<svg width="335" height="402" viewBox="0 0 335 402" fill="none" xmlns="http://www.w3.org/2000/svg">
<path d="M113.1 200.9C149.3 171.9 167.4 136.2 167.4 100.5C167.4 64.8 149.3 29.1 113.1 0.0999756H54.3C-18.1 58.1 -18.1 143 54.3 201C-18.1 259 -18.1 343.9 54.3 401.9H113.1C149.3 372.9 167.4 337.2 167.4 301.5C167.4 265.8 149.3 229.9 113.1 200.9Z" fill="white"/>
<path d="M280.5 200.9C352.9 142.9 352.9 58 280.5 0H221.7C185.5 29 167.4 64.7 167.4 100.4C167.4 136.1 185.5 171.9 221.7 200.9C185.5 229.9 167.4 265.6 167.4 301.3C167.4 337 185.5 372.7 221.7 401.7H280.5C352.8 343.8 352.8 258.9 280.5 200.9Z" fill="white"/>
</svg>
