<svg width="403" height="403" viewBox="0 0 403 403" fill="none" xmlns="http://www.w3.org/2000/svg">
<path d="M234.006 14.6056C261.706 -16.0944 312.506 5.00559 310.406 46.3056C309.106 72.3056 330.506 93.7056 356.506 92.4056C397.706 90.3056 418.806 141.106 388.206 168.806C368.906 186.206 368.906 216.506 388.206 234.006C418.906 261.706 397.806 312.506 356.506 310.406C330.506 309.106 309.106 330.506 310.406 356.506C312.506 397.706 261.706 418.806 234.006 388.206C216.606 368.906 186.306 368.906 168.806 388.206C141.106 418.906 90.3056 397.806 92.4056 356.506C93.7056 330.506 72.3056 309.106 46.3056 310.406C5.10559 312.506 -15.9944 261.706 14.6056 234.006C33.9056 216.606 33.9056 186.306 14.6056 168.806C-16.0944 141.106 5.00559 90.3056 46.3056 92.4056C72.3056 93.7056 93.7056 72.3056 92.4056 46.3056C90.3056 5.10559 141.106 -15.9944 168.806 14.6056C186.306 33.9056 216.506 33.9056 234.006 14.6056Z" fill="white"/>
</svg>
