<svg width="416" height="416" viewBox="0 0 416 416" fill="none" xmlns="http://www.w3.org/2000/svg">
<path d="M221.875 203.675C479.575 134.575 406.675 8.37502 218.075 197.075C406.775 8.37502 280.475 -64.425 211.475 193.275C280.575 -64.425 134.775 -64.425 203.775 193.275C134.675 -64.525 8.47501 8.375 197.075 196.975C8.47501 8.375 -64.425 134.575 193.275 203.675C-64.425 134.575 -64.425 280.375 193.275 211.375C-64.425 280.475 8.47501 406.675 197.075 217.975C8.37502 406.675 134.675 479.475 203.675 221.775C134.575 479.475 280.375 479.475 211.375 221.775C280.475 479.475 406.675 406.575 217.975 217.975C406.675 406.675 479.475 280.375 221.775 211.375C479.575 280.375 479.575 134.575 221.875 203.675Z" fill="white"/>
</svg>
