<svg width="410" height="293" viewBox="0 0 410 293" fill="none" xmlns="http://www.w3.org/2000/svg">
<path d="M356.7 0.900002C356.2 0.300002 355.5 0 354.8 0H297.9C297.2 0 296.5 0.300002 296 0.900002C292.5 5.1 289.1 9.4 285.9 13.8C282.7 9.4 279.3 5.1 275.8 0.900002C275.3 0.300002 274.6 0 273.9 0H216.9C216.2 0 215.5 0.300002 215 0.900002C211.5 5.1 208.1 9.4 204.9 13.8C201.7 9.4 198.3 5.1 194.8 0.900002C194.3 0.300002 193.6 0 192.9 0H136C135.3 0 134.6 0.300002 134.1 0.900002C130.6 5.1 127.2 9.4 124 13.8C120.8 9.4 117.4 5.1 113.9 0.900002C113.4 0.300002 112.7 0 112 0H55.1C54.4 0 53.7 0.300002 53.2 0.900002C18.9 41.5 0 93 0 146.1C0 199.2 18.9 250.7 53.1 291.3C53.6 291.9 54.3 292.2 55 292.2H111.9C112.6 292.2 113.3 291.9 113.8 291.3C117.3 287.1 120.7 282.8 123.9 278.4C127.1 282.8 130.5 287.1 134 291.3C134.5 291.9 135.2 292.2 135.9 292.2H192.9C193.6 292.2 194.3 291.9 194.8 291.3C198.3 287.1 201.7 282.8 204.9 278.4C208.1 282.8 211.5 287.1 215 291.3C215.5 291.9 216.2 292.2 216.9 292.2H273.8C274.5 292.2 275.2 291.9 275.7 291.3C279.2 287.1 282.6 282.8 285.8 278.4C289 282.8 292.4 287.1 295.9 291.3C296.4 291.9 297.1 292.2 297.8 292.2H354.7C355.4 292.2 356.1 291.9 356.6 291.3C390.8 250.8 409.7 199.2 409.7 146.1C409.8 93 390.9 41.5 356.7 0.900002ZM218.1 5H272.7C276.3 9.3 279.6 13.6 282.8 18.1C263.3 46.4 250.5 78.8 245.4 112.7C240.3 78.8 227.5 46.4 208 18.1C211.2 13.7 214.5 9.3 218.1 5ZM247.9 146.1C247.9 101.9 261.3 58.9 285.9 22.6C310.5 58.9 323.9 102 323.9 146.1C323.9 190.3 310.5 233.3 285.9 269.6C261.3 233.3 247.9 190.3 247.9 146.1ZM242.9 146.1C242.9 190.3 229.5 233.3 204.9 269.6C180.3 233.3 166.9 190.2 166.9 146.1C166.9 101.9 180.3 58.9 204.9 22.6C229.5 58.9 242.9 101.9 242.9 146.1ZM137.1 5H191.7C195.3 9.3 198.6 13.6 201.8 18.1C182.3 46.4 169.5 78.8 164.4 112.7C159.3 78.8 146.5 46.4 127 18.1C130.2 13.7 133.6 9.3 137.1 5ZM161.9 146.1C161.9 190.3 148.5 233.3 123.9 269.6C99.3 233.3 85.9 190.2 85.9 146.1C85.9 101.9 99.3 58.9 123.9 22.6C148.6 58.9 161.9 101.9 161.9 146.1ZM110.7 287.2H56.1C23.1 247.7 4.9 197.6 4.9 146.1C4.9 94.6 23.1 44.6 56.1 5H110.7C114.3 9.3 117.6 13.6 120.8 18.1C94.9 55.5 80.9 100.2 80.9 146C80.9 191.8 95 236.5 120.8 273.9C117.7 278.5 114.3 282.9 110.7 287.2ZM191.7 287.2H137.1C133.5 282.9 130.2 278.6 127 274.1C146.5 245.8 159.3 213.4 164.4 179.5C169.5 213.4 182.3 245.8 201.8 274.1C198.6 278.5 195.3 282.9 191.7 287.2ZM272.7 287.2H218.1C214.5 282.9 211.2 278.6 208 274.1C227.5 245.8 240.3 213.4 245.4 179.5C250.5 213.4 263.3 245.8 282.8 274.1C279.6 278.5 276.2 282.9 272.7 287.2ZM353.6 287.2H299C295.4 282.9 292.1 278.6 288.9 274.1C314.8 236.7 328.8 192 328.8 146.2C328.8 100.4 314.7 55.7 288.9 18.3C292.1 13.8 295.5 9.4 299 5.2H353.6C386.6 44.7 404.8 94.8 404.8 146.3C404.8 197.6 386.6 247.6 353.6 287.2Z" fill="white"/>
</svg>
