<svg width="287" height="464" viewBox="0 0 287 464" fill="none" xmlns="http://www.w3.org/2000/svg">
<path d="M143.3 320.3C90.3 320.3 43.9 291.5 19.2 248.6C7 269.7 0 294.2 0 320.3C0 399.4 64.2 463.6 143.3 463.6C222.4 463.6 286.6 399.4 286.6 320.3C286.6 294.2 279.6 269.7 267.4 248.6C242.7 291.4 196.3 320.3 143.3 320.3Z" fill="white"/>
<path d="M143.3 204.7C78.6 204.7 24 161.9 6.2 103.1C2.2 116.3 0 130.3 0 144.8C0 223.9 64.2 288.1 143.3 288.1C222.4 288.1 286.6 223.9 286.6 144.8C286.6 130.3 284.4 116.3 280.4 103.1C262.6 161.9 208 204.7 143.3 204.7Z" fill="white"/>
<path d="M143.3 118.5C72.6 118.5 13.9 67.3 2.10001 0C0.700006 8.1 0 16.3 0 24.8C0 103.9 64.2 168.1 143.3 168.1C222.4 168.1 286.6 104 286.6 24.8C286.6 16.3 285.9 8.1 284.5 0C272.7 67.3 214 118.5 143.3 118.5Z" fill="white"/>
</svg>
