<svg width="417" height="394" viewBox="0 0 417 394" fill="none" xmlns="http://www.w3.org/2000/svg">
<path d="M200.039 200.039C236.865 163.212 236.865 103.506 200.039 66.6795C163.212 29.8534 103.506 29.8534 66.6795 66.6795C29.8534 103.506 29.8534 163.212 66.6795 200.039C103.506 236.865 163.212 236.865 200.039 200.039Z" fill="white"/>
<path d="M321.939 227.672C374.02 227.672 416.239 185.452 416.239 133.372C416.239 81.2913 374.02 39.0718 321.939 39.0718C269.859 39.0718 227.639 81.2913 227.639 133.372C227.639 185.452 269.859 227.672 321.939 227.672Z" fill="white"/>
<path d="M133.34 338.472C185.42 338.472 227.64 313.668 227.64 283.072C227.64 252.475 185.42 227.672 133.34 227.672C81.2591 227.672 39.0396 252.475 39.0396 283.072C39.0396 313.668 81.2591 338.472 133.34 338.472Z" fill="white"/>
<path d="M321.939 338.472C374.02 338.472 416.239 313.668 416.239 283.072C416.239 252.475 374.02 227.672 321.939 227.672C269.859 227.672 227.639 252.475 227.639 283.072C227.639 313.668 269.859 338.472 321.939 338.472Z" fill="white"/>
<path d="M133.34 393.872C185.42 393.872 227.64 381.47 227.64 366.172C227.64 350.873 185.42 338.472 133.34 338.472C81.2591 338.472 39.0396 350.873 39.0396 366.172C39.0396 381.47 81.2591 393.872 133.34 393.872Z" fill="white"/>
<path d="M321.939 393.872C374.02 393.872 416.239 381.47 416.239 366.172C416.239 350.873 374.02 338.472 321.939 338.472C269.859 338.472 227.639 350.873 227.639 366.172C227.639 381.47 269.859 393.872 321.939 393.872Z" fill="white"/>
</svg>
