<svg width="425" height="394" viewBox="0 0 425 394" fill="none" xmlns="http://www.w3.org/2000/svg">
<path d="M379.9 86.4C367.3 86.4 356.1 98.4 348 118.1C346.5 113.2 345 108.6 343.2 104.2C333.2 78.8 319.5 64.8 304.8 64.8C293.5 64.8 282.8 73.1 273.9 88.4C262.3 59.2 246.6 43.2 229.6 43.2C218.9 43.2 208.7 49.6 199.7 61.7C187.1 35.7 171.3 21.6 154.4 21.6C144.2 21.6 134.5 26.7 125.5 36.5C112.2 12.8 96.2 0 79.2 0C57.6 0 37.5 20.8 22.6 58.4C8 95.3 0 144.4 0 196.6C0 248.8 8 297.8 22.6 334.8C37.5 372.5 57.6 393.2 79.2 393.2C96.1 393.2 112.2 380.4 125.5 356.7C134.4 366.5 144.2 371.6 154.4 371.6C171.3 371.6 187.1 357.5 199.7 331.5C208.7 343.6 218.9 350 229.6 350C246.5 350 262.2 333.9 273.9 304.8C282.8 320.1 293.5 328.4 304.8 328.4C319.5 328.4 333.2 314.4 343.2 289C344.9 284.6 346.5 279.9 348 275.1C356.1 294.8 367.3 306.8 379.9 306.8C405.1 306.8 424.9 258.4 424.9 196.7C424.9 135 405.1 86.4 379.9 86.4ZM270.9 287C261.4 262.9 256.1 230.8 256.1 196.5C256.1 162.2 261.4 130.2 270.9 106C271.6 104.2 272.3 102.5 273 100.9C281.8 127.7 286.6 161.1 286.6 196.5C286.6 231.9 281.8 265.3 273 292.1C272.4 290.4 271.6 288.7 270.9 287ZM79.3 388.1C59.9 388.1 41.5 368.5 27.4 332.8C13 296.4 5.1 248 5.1 196.5C5.1 145 13 96.6 27.4 60.2C41.5 24.5 59.9 4.9 79.3 4.9C94.8 4.9 109.6 17.4 122.1 40.5C115.4 48.9 109.3 60.1 103.9 73.6C90.9 106.5 83.8 150.1 83.8 196.5C83.8 242.9 91 286.5 103.9 319.4C109.3 333 115.4 344.1 122.1 352.5C109.6 375.6 94.8 388.1 79.3 388.1ZM124.6 45.3C126.9 49.9 129.1 54.8 131.2 60.1C145.6 96.6 153.5 145 153.5 196.5C153.5 248 145.6 296.4 131.2 332.8C129.1 338.1 126.9 343.1 124.6 347.6C118.8 339.8 113.4 329.7 108.5 317.5C95.7 285.2 88.7 242.2 88.7 196.5C88.7 150.8 95.7 107.8 108.5 75.5C113.4 63.2 118.8 53.1 124.6 45.3ZM154.4 366.5C145.2 366.5 136.3 361.5 128 352C130.7 346.7 133.3 341 135.8 334.7C150.5 297.7 158.5 248.6 158.5 196.5C158.5 144.4 150.5 95.3 135.9 58.3C133.4 52.1 130.8 46.3 128.1 41C136.3 31.5 145.3 26.5 154.4 26.5C169.8 26.5 184.5 40.6 196.4 66.3C192.3 72.6 188.5 80.2 185.1 88.9C173.7 117.7 167.5 155.9 167.5 196.5C167.5 237.1 173.8 275.3 185.1 304.1C188.5 312.8 192.3 320.3 196.4 326.7C184.6 352.4 169.8 366.5 154.4 366.5ZM200.3 75.5C213.1 107.8 220.1 150.8 220.1 196.5C220.1 242.2 213.1 285.2 200.3 317.5C199.8 318.7 199.3 319.9 198.9 321C195.6 315.6 192.6 309.3 189.8 302.2C178.6 274 172.5 236.5 172.5 196.5C172.5 156.5 178.6 119 189.8 90.8C192.6 83.7 195.7 77.4 198.9 72C199.4 73.1 199.9 74.3 200.3 75.5ZM269.4 302.2C258.7 329.3 244.2 344.8 229.6 344.8C220.1 344.8 210.6 338.2 202.2 326.1C203.2 323.9 204.1 321.7 205 319.3C218 286.4 225.1 242.8 225.1 196.4C225.1 150 217.9 106.4 205 73.5C204.1 71.2 203.1 68.9 202.2 66.7C210.6 54.6 220.1 48 229.6 48C244.2 48 258.7 63.5 269.4 90.6C269.8 91.7 270.3 92.9 270.7 94.1C269.2 97.2 267.7 100.5 266.3 104.1C256.5 128.8 251.2 161.6 251.2 196.4C251.2 231.2 256.6 264 266.3 288.7C267.7 292.3 269.2 295.6 270.7 298.7C270.3 299.9 269.9 301.1 269.4 302.2ZM338.5 287C329.4 310 317.1 323.3 304.7 323.3C294.6 323.3 284.5 314.4 276.1 298.5C286.1 270.5 291.6 234.5 291.6 196.5C291.6 158.5 286.1 122.6 276.1 94.5C284.4 78.6 294.5 69.7 304.7 69.7C317.1 69.7 329.4 82.9 338.5 106C340.9 112.2 343.1 118.9 345 126.1C338.6 145.1 334.9 169.5 334.9 196.5C334.9 223.5 338.7 247.9 345 266.9C343.1 274 341 280.8 338.5 287ZM347.4 136.1C351.3 154.4 353.3 175.1 353.3 196.5C353.3 217.9 351.2 238.6 347.4 256.9C342.7 239.7 339.9 218.8 339.9 196.5C339.9 174.2 342.6 153.3 347.4 136.1ZM379.9 301.6C368.3 301.6 357.7 287.9 350.3 266.4C355.5 245.7 358.3 221.6 358.3 196.5C358.3 171.4 355.5 147.3 350.3 126.6C357.7 105.1 368.3 91.4 379.9 91.4C401.6 91.4 419.9 139.5 419.9 196.5C419.9 253.5 401.6 301.6 379.9 301.6Z" fill="white"/>
</svg>
