<svg width="361" height="361" viewBox="0 0 361 361" fill="none" xmlns="http://www.w3.org/2000/svg">
<path d="M335.925 215.925C316.325 196.325 316.325 164.525 335.925 144.825C369.025 111.725 369.025 57.925 335.925 24.825C302.825 -8.275 249.025 -8.275 215.925 24.825C196.325 44.425 164.525 44.425 144.825 24.825C111.725 -8.275 57.925 -8.275 24.825 24.825C-8.275 57.925 -8.275 111.725 24.825 144.825C44.425 164.425 44.425 196.225 24.825 215.925C-8.275 249.025 -8.275 302.825 24.825 335.925C57.925 369.025 111.725 369.025 144.825 335.925C164.425 316.325 196.225 316.325 215.925 335.925C249.025 369.025 302.825 369.025 335.925 335.925C369.025 302.825 369.025 249.125 335.925 215.925Z" fill="white"/>
</svg>
