<svg width="402" height="402" viewBox="0 0 402 402" fill="none" xmlns="http://www.w3.org/2000/svg">
<path d="M356.3 157.6C345.8 157.6 316.3 161.2 285.7 167.2C311.9 149.7 335.8 131 343.3 123.5C360.8 106 360.8 77.5 343.3 60C325.8 42.5 297.3 42.5 279.8 60C272.1 67.7 252.9 92.3 235.1 119.2C241.6 87.4 245.5 55.9 245.5 44.9C245.5 20.1 225.4 0 200.6 0C175.8 0 155.7 20.1 155.7 44.9C155.7 55.5 159.4 85.5 165.5 116.3C148 90.1 129.3 66.2 121.8 58.7C104.3 41.2 75.8 41.2 58.3 58.7C40.8 76.2 40.8 104.7 58.3 122.2C66.1 130 91.4 149.7 118.8 167.8C87.1 161.4 55.7 157.5 44.9 157.5C20.1 157.5 0 177.6 0 202.4C0 227.2 20.1 247.3 44.9 247.3C55.4 247.3 85.1 243.7 115.7 237.6C90.1 254.8 67 272.9 59.7 280.2C42.2 297.7 42.2 326.2 59.7 343.7C77.2 361.2 105.7 361.2 123.2 343.7C130.4 336.5 147.9 314.2 164.8 289.2C159.2 318.5 155.8 346.3 155.8 356.4C155.8 381.2 175.9 401.3 200.7 401.3C225.5 401.3 245.6 381.2 245.6 356.4C245.6 346 242 316.8 236.1 286.5C253.3 312.1 271.4 335.2 278.7 342.5C296.2 360 324.7 360 342.2 342.5C359.7 325 359.7 296.5 342.2 279C335.1 271.9 313.4 254.9 288.9 238.2C318.3 243.9 346.3 247.2 356.4 247.2C381.2 247.2 401.3 227.1 401.3 202.3C401.3 177.5 381.1 157.6 356.3 157.6Z" fill="white"/>
</svg>
