<svg width="421" height="421" viewBox="0 0 421 421" fill="none" xmlns="http://www.w3.org/2000/svg">
<path d="M70.0736 0.0543287L0 70.1279L70.0736 140.202L140.147 70.1279L70.0736 0.0543287Z" fill="white"/>
<path d="M210.25 0.000118714L140.176 70.0737L210.25 140.147L280.323 70.0737L210.25 0.000118714Z" fill="white"/>
<path d="M350.355 0.016232L280.281 70.0898L350.355 140.163L420.429 70.0898L350.355 0.016232Z" fill="white"/>
<path d="M70.1278 140.231L0.0541992 210.304L70.1278 280.378L140.201 210.304L70.1278 140.231Z" fill="white"/>
<path d="M210.304 140.176L140.23 210.25L210.304 280.323L280.378 210.25L210.304 140.176Z" fill="white"/>
<path d="M350.41 140.193L280.336 210.266L350.41 280.34L420.483 210.266L350.41 140.193Z" fill="white"/>
<path d="M70.1117 280.336L0.0380859 350.41L70.1117 420.483L140.185 350.41L70.1117 280.336Z" fill="white"/>
<path d="M210.288 280.281L140.214 350.355L210.288 420.429L280.361 350.355L210.288 280.281Z" fill="white"/>
<path d="M350.393 280.298L280.32 350.372L350.393 420.445L420.467 350.372L350.393 280.298Z" fill="white"/>
</svg>
