<svg width="446" height="359" viewBox="0 0 446 359" fill="none" xmlns="http://www.w3.org/2000/svg">
<path d="M430.101 211.518C421.501 198.018 409.601 186.918 395.701 179.118C426.101 162.318 444.901 130.918 445.101 95.9182C445.301 43.7182 403.101 0.718233 350.901 0.0182326C335.401 -0.181767 320.501 3.21823 307.101 9.91823C294.701 3.81823 280.901 0.218233 266.301 0.0182326C250.801 -0.181767 235.901 3.21823 222.501 9.91823C210.101 3.81823 196.301 0.218233 181.701 0.0182326C166.301 -0.181767 151.301 3.21823 137.901 9.91823C125.501 3.81823 111.701 0.218233 97.1007 0.0182326C71.3007 -0.481767 46.9007 9.31823 28.6007 27.4182C10.2007 45.5182 0.100708 69.7182 0.100708 95.4182C0.100708 113.618 5.30071 131.418 15.0007 146.718C23.6007 160.218 35.5007 171.318 49.4007 179.118C19.0007 195.918 0.200708 227.318 0.000707973 262.318C-0.199292 314.518 42.0007 357.518 94.2007 358.218C94.7007 358.218 95.1007 358.218 95.6007 358.218C110.601 358.218 125.001 354.818 138.001 348.318C150.401 354.418 164.201 358.018 178.801 358.218C179.301 358.218 179.701 358.218 180.201 358.218C195.201 358.218 209.601 354.818 222.601 348.318C235.001 354.418 248.801 358.018 263.401 358.218C263.901 358.218 264.301 358.218 264.801 358.218C279.801 358.218 294.201 354.818 307.201 348.318C319.601 354.418 333.401 358.018 348.001 358.218C348.501 358.218 348.901 358.218 349.401 358.218C374.701 358.218 398.501 348.518 416.501 330.718C434.901 312.618 445.001 288.418 445.001 262.718C445.101 244.518 439.901 226.818 430.101 211.518ZM264.901 4.91823C265.301 4.91823 265.801 4.91823 266.201 4.91823C278.801 5.11823 290.801 7.91823 301.601 12.7182C294.701 16.7182 288.301 21.6182 282.401 27.4182C275.201 34.5182 269.301 42.4182 264.801 51.1182C256.401 35.1182 243.501 21.8182 227.901 12.7182C239.501 7.61823 252.001 4.91823 264.901 4.91823ZM254.001 95.4182C254.001 108.918 256.801 122.118 262.201 134.218C254.001 151.618 240.301 166.118 222.601 175.518C204.901 166.218 191.201 151.718 183.001 134.318C188.301 122.418 191.101 109.418 191.201 95.8182C191.301 81.9182 188.301 68.7182 183.001 56.7182C187.501 47.2182 193.601 38.5182 201.301 30.9182C207.701 24.6182 214.801 19.4182 222.501 15.3182C239.701 24.5182 253.701 39.0182 262.101 56.7182C256.801 68.8182 254.001 81.9182 254.001 95.4182ZM264.901 63.2182C268.801 73.3182 270.901 84.3182 270.901 95.8182C270.901 107.018 268.801 117.818 265.001 127.818C261.101 117.718 259.101 106.718 259.101 95.4182C259.001 84.2182 261.001 73.4182 264.901 63.2182ZM303.201 179.218C286.501 188.418 273.401 202.118 264.901 218.318C263.701 216.018 262.401 213.718 261.001 211.518C252.401 198.018 240.601 186.918 226.701 179.218V179.118C226.701 179.118 226.701 179.118 226.701 179.018C243.401 169.818 256.501 156.118 265.001 139.918C266.201 142.218 267.501 144.518 268.901 146.718C277.501 160.218 289.301 171.318 303.201 179.018C303.201 179.018 303.201 179.118 303.201 179.218C303.201 179.118 303.201 179.118 303.201 179.218ZM142.001 179.018C158.701 169.818 171.801 156.118 180.301 139.918C181.501 142.218 182.801 144.518 184.201 146.718C192.801 160.218 204.601 171.318 218.501 179.018V179.118C218.501 179.118 218.501 179.118 218.501 179.218C201.801 188.418 188.701 202.118 180.201 218.318C179.001 216.018 177.701 213.718 176.301 211.518C167.701 198.018 155.901 186.918 142.001 179.218C142.001 179.218 142.001 179.118 142.001 179.018C142.001 179.118 142.001 179.118 142.001 179.018ZM186.201 95.8182C186.201 107.018 184.101 117.818 180.301 127.818C176.401 117.718 174.401 106.718 174.401 95.4182C174.401 84.2182 176.401 73.3182 180.301 63.2182C184.201 73.4182 186.301 84.4182 186.201 95.8182ZM169.401 95.4182C169.401 108.918 172.201 122.118 177.601 134.218C169.401 151.618 155.701 166.118 138.001 175.518C108.201 159.718 89.8007 129.318 89.8007 95.4182C89.8007 71.0182 99.4007 48.1182 116.801 30.9182C123.201 24.6182 130.301 19.4182 138.001 15.3182C155.201 24.5182 169.201 39.0182 177.601 56.7182C172.201 68.8182 169.401 81.9182 169.401 95.4182ZM138.001 182.718C155.701 192.018 169.401 206.518 177.601 223.918C172.301 235.818 169.501 248.818 169.401 262.418C169.301 276.318 172.301 289.518 177.601 301.518C173.101 311.018 167.001 319.718 159.301 327.318C152.901 333.618 145.801 338.818 138.101 342.918C109.301 327.618 89.6007 297.218 89.8007 262.518C89.9007 228.618 108.301 198.418 138.001 182.718ZM174.401 262.418C174.401 251.218 176.501 240.418 180.301 230.418C184.201 240.518 186.201 251.518 186.201 262.818C186.201 274.018 184.201 284.918 180.301 295.018C176.401 284.818 174.301 273.818 174.401 262.418ZM191.201 262.818C191.201 249.318 188.401 236.118 183.001 224.018C191.201 206.618 204.901 192.118 222.601 182.718C240.301 192.018 254.001 206.518 262.201 223.918C256.901 235.818 254.101 248.818 254.001 262.418C253.901 276.318 256.901 289.518 262.201 301.518C257.701 311.018 251.601 319.718 243.901 327.318C237.501 333.618 230.401 338.818 222.701 342.918C205.501 333.718 191.501 319.218 183.101 301.518C188.401 289.418 191.201 276.318 191.201 262.818ZM259.001 262.418C259.001 251.218 261.101 240.418 264.901 230.418C268.801 240.518 270.801 251.518 270.801 262.818C270.801 274.018 268.801 284.918 264.901 295.018C261.001 284.818 258.901 273.818 259.001 262.418ZM275.801 262.818C275.801 249.318 273.001 236.118 267.601 224.018C275.801 206.618 289.501 192.118 307.201 182.718C337.001 198.518 355.401 228.918 355.401 262.818C355.401 287.218 345.801 310.118 328.401 327.318C322.001 333.618 314.901 338.818 307.201 342.918C290.001 333.718 276.001 319.218 267.601 301.518C273.001 289.418 275.801 276.318 275.801 262.818ZM307.201 175.518C289.501 166.218 275.801 151.718 267.601 134.318C272.901 122.418 275.701 109.418 275.801 95.8182C275.901 81.9182 272.901 68.7182 267.601 56.7182C272.101 47.2182 278.201 38.5182 285.901 30.9182C292.301 24.6182 299.401 19.4182 307.101 15.3182C335.901 30.6182 355.601 61.0182 355.401 95.7182C355.301 129.618 336.901 159.818 307.201 175.518ZM180.301 4.91823C180.701 4.91823 181.201 4.91823 181.601 4.91823C194.201 5.11823 206.201 7.91823 217.001 12.7182C210.101 16.7182 203.701 21.6182 197.801 27.4182C190.601 34.5182 184.701 42.4182 180.201 51.1182C171.801 35.1182 158.901 21.8182 143.301 12.7182C154.801 7.61823 167.401 4.91823 180.301 4.91823ZM94.4007 353.318C45.0007 352.618 4.90071 311.818 5.10071 262.418C5.20071 227.718 24.7007 196.618 56.0007 181.418C56.9007 181.018 57.4007 180.118 57.4007 179.218C57.4007 178.318 56.9007 177.418 56.0007 177.018C24.6007 161.718 5.10071 130.518 5.10071 95.6182C5.10071 71.2182 14.7007 48.3182 32.1007 31.1182C49.2007 14.1182 71.7007 4.91823 95.7007 4.91823C96.1007 4.91823 96.6007 4.91823 97.0007 4.91823C109.601 5.11823 121.601 7.91823 132.401 12.7182C125.501 16.7182 119.101 21.6182 113.201 27.4182C94.8007 45.5182 84.7007 69.7182 84.7007 95.4182C84.7007 113.618 89.9007 131.418 99.6007 146.718C108.201 160.218 120.001 171.318 133.901 179.018V179.118C133.901 179.118 133.901 179.118 133.901 179.218C103.601 196.018 84.8007 227.418 84.7007 262.418C84.6007 297.718 103.901 328.918 132.601 345.518C120.801 350.818 107.801 353.518 94.4007 353.318ZM179.001 353.318C166.401 353.118 154.401 350.318 143.601 345.518C150.501 341.518 157.001 336.618 162.801 330.818C170.001 323.718 175.901 315.818 180.401 307.118C188.801 323.118 201.701 336.418 217.301 345.518C205.401 350.818 192.401 353.518 179.001 353.318ZM263.601 353.318C251.001 353.118 239.001 350.318 228.201 345.518C235.101 341.518 241.601 336.618 247.401 330.818C254.601 323.718 260.501 315.818 265.001 307.118C273.401 323.118 286.301 336.418 301.901 345.518C290.001 350.818 277.001 353.518 263.601 353.318ZM413.101 327.218C395.701 344.318 372.701 353.618 348.201 353.318C335.601 353.118 323.601 350.318 312.801 345.518C319.701 341.518 326.201 336.618 332.001 330.818C350.401 312.718 360.501 288.518 360.501 262.818C360.501 244.618 355.301 226.818 345.601 211.518C337.001 198.018 325.201 186.918 311.301 179.218V179.118C311.301 179.118 311.301 179.118 311.301 179.018C341.601 162.218 360.401 130.818 360.501 95.8182C360.601 60.5182 341.301 29.3182 312.601 12.7182C324.101 7.61823 336.601 4.91823 349.501 4.91823C349.901 4.91823 350.401 4.91823 350.801 4.91823C400.201 5.61823 440.301 46.4182 440.101 95.8182C440.001 130.518 420.501 161.618 389.201 176.818C388.301 177.218 387.801 178.118 387.801 179.018C387.801 179.918 388.301 180.818 389.201 181.218C420.601 196.518 440.101 227.718 440.101 262.618C440.101 287.218 430.501 310.118 413.101 327.218Z" fill="white"/>
</svg>
