<svg width="441" height="436" viewBox="0 0 441 436" fill="none" xmlns="http://www.w3.org/2000/svg">
<path d="M269.6 319.1C332.5 332.6 395.5 305.6 440.4 265.2C404.4 287.7 355 305.7 314.5 278.7C372.9 260.7 417.9 206.8 431.4 148.3C413.4 188.8 377.5 220.2 332.5 224.7C350.5 202.2 359.5 175.3 373 148.3C386.5 112.3 368.5 80.9 368.5 49.4C368.5 94.3 359.5 143.8 319.1 166.3C332.6 107.9 310.1 40.4 265.2 0C292.2 36 305.7 85.4 278.7 125.9C265.1 58.4 206.7 22.5 148.3 4.5C184.2 27 229.2 58.4 224.7 107.9C179.7 62.9 107.8 53.9 49.4 67.4C94.3 62.9 143.8 80.9 170.8 116.8C107.9 98.8 44.9 125.8 0 170.7C36 143.7 85.4 130.2 125.9 157.2C63 175.2 22.5 229.1 4.5 287.6C27 247.1 62.9 215.7 107.9 211.2C63 260.6 54 328.1 67.4 386.5C67.4 341.6 76.4 292.1 116.8 269.6C107.8 332.5 130.3 395.5 170.7 435.9C152.7 395.4 134.7 350.5 157.2 310C175.2 377.4 229.1 408.9 287.6 431.4C247.2 409 215.7 373.1 211.2 328.1C260.6 373 328.1 382 386.5 368.6C341.6 373.1 292.1 355.1 269.6 319.1Z" fill="white"/>
</svg>
