<svg width="405" height="405" viewBox="0 0 405 405" fill="none" xmlns="http://www.w3.org/2000/svg">
<path d="M404.2 200C404.2 199.3 404.2 198.6 404.2 197.9C404.2 182.1 402 166.7 397.9 152.2C375.6 64.8 296.2 0 202.1 0C90.7 0 0 90.7 0 202.1C0 313.5 90.6 404.2 202.1 404.2C310.5 404.2 399.2 318.4 404 211.2C404.1 210.4 404.1 209.7 404.1 208.9C404.2 207.6 404.2 206.3 404.2 205C404.2 204.7 404.2 204.4 404.2 204.1C404.2 203.5 404.2 202.9 404.2 202.3C404.2 201.4 404.2 200.7 404.2 200ZM399.1 202.8C399 206.7 398.7 210.6 398.3 214.5C393.8 240.5 371 260.4 343.7 260.4C313.1 260.4 288.3 235.5 288.3 205C288.3 174.5 313.2 149.6 343.7 149.6C373 149.6 397.1 172.5 399 201.3C399.1 201.7 399.1 202.2 399.1 202.8ZM343.8 144.5C310.5 144.5 283.4 171.6 283.4 204.9C283.4 238.2 310.5 265.3 343.8 265.3C362.7 265.3 379.6 256.6 390.7 242.9C376.4 273.5 345.3 294.7 309.3 294.7C259.8 294.7 219.5 254.4 219.5 204.9C219.5 155.4 259.8 115.1 309.3 115.1C345.2 115.1 376.3 136.3 390.7 166.9C379.6 153.2 362.7 144.5 343.8 144.5ZM309.3 110.1C257 110.1 214.5 152.6 214.5 204.9C214.5 257.2 257 299.7 309.3 299.7C338.3 299.7 364.4 286.6 381.8 265.9C359.9 303.1 319.3 328.2 273.1 328.2C203.6 328.2 147 271.6 147 202.1C147 132.6 203.6 76 273.1 76C326.2 76 371.8 109 390.3 155.6C373.6 128.3 343.6 110.1 309.3 110.1ZM273.1 71C200.8 71 142 129.8 142 202.1C142 274.4 200.8 333.2 273.1 333.2C312.3 333.2 347.4 315.9 371.5 288.6C342.2 332.1 292.5 360.8 236.2 360.8C146.3 360.8 73.2 287.7 73.2 197.8C73.2 107.9 146.3 34.8 236.2 34.8C305.9 34.8 365.6 78.8 388.8 140.5C366.7 99.2 323.1 71 273.1 71ZM202.1 399.2C93.4 399.2 5 310.8 5 202.1C5 93.4 93.4 5 202.1 5C266.7 5 324.1 36.2 360 84.3C329.3 50.8 285.1 29.8 236.2 29.8C143.5 29.8 68.2 105.2 68.2 197.8C68.2 290.4 143.6 365.8 236.2 365.8C300.3 365.8 356.1 329.7 384.4 276.9C354.9 348.6 284.3 399.2 202.1 399.2Z" fill="white"/>
</svg>
