<svg width="417" height="417" viewBox="0 0 417 417" fill="none" xmlns="http://www.w3.org/2000/svg">
<path d="M200.039 200.039C236.865 163.213 236.865 103.506 200.039 66.6796C163.212 29.8535 103.506 29.8535 66.6795 66.6796C29.8534 103.506 29.8534 163.213 66.6795 200.039C103.506 236.865 163.212 236.865 200.039 200.039Z" fill="white"/>
<path d="M321.959 227.663C374.04 227.663 416.259 185.444 416.259 133.363C416.259 81.283 374.04 39.0635 321.959 39.0635C269.879 39.0635 227.659 81.283 227.659 133.363C227.659 185.444 269.879 227.663 321.959 227.663Z" fill="white"/>
<path d="M133.359 416.263C185.44 416.263 227.659 374.044 227.659 321.963C227.659 269.883 185.44 227.663 133.359 227.663C81.2789 227.663 39.0593 269.883 39.0593 321.963C39.0593 374.044 81.2789 416.263 133.359 416.263Z" fill="white"/>
<path d="M321.959 416.263C374.04 416.263 416.259 374.044 416.259 321.963C416.259 269.883 374.04 227.663 321.959 227.663C269.879 227.663 227.659 269.883 227.659 321.963C227.659 374.044 269.879 416.263 321.959 416.263Z" fill="white"/>
</svg>
