<svg width="376" height="376" viewBox="0 0 376 376" fill="none" xmlns="http://www.w3.org/2000/svg">
<path d="M94.0007 94.0007H95.3007C146.801 93.5007 188.201 51.5007 188.001 0.000721592C136.501 -0.199278 94.6007 41.2007 94.0007 92.7007C93.5007 41.2007 51.5007 -0.199278 0.000721592 0.000721592C-0.199278 51.5007 41.2007 93.4007 92.7007 94.0007H94.0007C42.5007 93.8007 0.600722 135.201 0.000721592 186.701V188.001H1.30072C52.8007 187.401 94.2007 145.501 94.0007 94.0007C93.8007 145.501 135.201 187.401 186.701 188.001H188.001V186.701C187.401 135.201 145.501 93.8007 94.0007 94.0007Z" fill="white"/>
<path d="M376.001 0.000721592C324.501 -0.199278 282.601 41.2007 282.001 92.7007V94.0007H283.301C334.801 93.4007 376.201 51.5007 376.001 0.000721592Z" fill="white"/>
<path d="M280.701 94.0007H282.001C230.501 93.8007 188.601 135.201 188.001 186.701V188.001H189.301C240.801 187.501 282.201 145.501 282.001 94.0007C281.801 145.501 323.201 187.401 374.701 188.001H376.001V186.701C375.501 135.201 333.501 93.8007 282.001 94.0007V92.7007C281.501 41.2007 239.501 -0.199278 188.001 0.000721592C187.801 51.5007 229.201 93.4007 280.701 94.0007Z" fill="white"/>
<path d="M188 188.001C136.5 187.801 94.6005 229.201 94.0005 280.701V282.001H95.3005C146.8 281.401 188.2 239.501 188 188.001Z" fill="white"/>
<path d="M94.0007 282.001V280.701C93.5007 229.201 51.5007 187.801 0.000721592 188.001C-0.199278 239.501 41.2007 281.401 92.7007 282.001H94.0007C42.5007 281.801 0.600722 323.201 0.000721592 374.701V376.001H1.30072C52.8007 375.401 94.2007 333.501 94.0007 282.001C93.8007 333.501 135.201 375.401 186.701 376.001H188.001V374.701C187.401 323.201 145.501 281.801 94.0007 282.001Z" fill="white"/>
<path d="M376.001 188.001C324.501 187.801 282.601 229.201 282.001 280.701V282.001H283.301C334.801 281.401 376.101 239.501 376.001 188.001Z" fill="white"/>
<path d="M282.001 282.001V280.701C281.501 229.201 239.501 187.801 188.001 188.001C187.801 239.501 229.201 281.401 280.701 282.001H282.001C230.501 281.801 188.601 323.201 188.001 374.701V376.001H189.301C240.801 375.401 282.201 333.501 282.001 282.001C281.801 333.501 323.201 375.401 374.701 376.001H376.001V374.701C375.401 323.201 333.501 281.801 282.001 282.001Z" fill="white"/>
</svg>
