<svg width="390" height="390" viewBox="0 0 390 390" fill="none" xmlns="http://www.w3.org/2000/svg">
<path d="M57 57C21.8 92.3 0 141 0 194.8C0 248.6 21.8 297.3 57 332.6C101.8 284.8 101.8 104.8 57 57Z" fill="white"/>
<path d="M332.6 57C297.3 21.8 248.6 0 194.8 0C141 0 92.3 21.8 57 57C104.8 101.8 284.8 101.8 332.6 57Z" fill="white"/>
<path d="M332.6 332.6C367.8 297.3 389.6 248.6 389.6 194.8C389.6 141 367.8 92.3 332.6 57C287.8 104.8 287.8 284.8 332.6 332.6Z" fill="white"/>
<path d="M57 332.6C92.3 367.8 141 389.6 194.8 389.6C248.6 389.6 297.3 367.8 332.6 332.6C284.8 287.8 104.8 287.8 57 332.6Z" fill="white"/>
</svg>
