<svg width="402" height="402" viewBox="0 0 402 402" fill="none" xmlns="http://www.w3.org/2000/svg">
<path d="M356.5 157.5C336.5 157.5 248 170.5 214 188.5C232.3 155.4 245.6 65 245.6 44.9C245.6 20.1 225.5 0 200.7 0C175.9 0 155.8 20.1 155.8 44.9C155.8 65.1 169.1 155.5 187.4 188.5C153.4 170.5 64.9 157.5 44.9 157.5C20.1 157.5 0 177.6 0 202.4C0 227.2 20.1 247.3 44.9 247.3C64.4 247.3 149.5 234.9 185 217.5C167.9 253.7 155.8 337.1 155.8 356.4C155.8 381.2 175.9 401.3 200.7 401.3C225.5 401.3 245.6 381.2 245.6 356.4C245.6 337.1 233.4 253.7 216.4 217.5C251.9 234.9 337 247.3 356.5 247.3C381.3 247.3 401.4 227.2 401.4 202.4C401.4 177.6 381.3 157.5 356.5 157.5Z" fill="white"/>
</svg>
