<svg width="364" height="364" viewBox="0 0 364 364" fill="none" xmlns="http://www.w3.org/2000/svg">
<path d="M360.9 140.2C362.3 140.2 363.4 139.1 363.4 137.7V54.4C363.4 53 362.3 51.9 360.9 51.9H311.4V2.5C311.4 1.1 310.3 0 308.9 0H225.6C224.2 0 223.1 1.1 223.1 2.5V51.9H140V2.5C140 1.1 138.9 0 137.5 0H54.2C52.8 0 51.7 1.1 51.7 2.5V51.9H2.5C1.1 51.9 0 53 0 54.4V137.7C0 139.1 1.1 140.2 2.5 140.2H51.7V223.3H2.5C1.1 223.3 0 224.4 0 225.8V309.1C0 310.5 1.1 311.6 2.5 311.6H51.7V361C51.7 362.4 52.8 363.5 54.2 363.5H137.5C138.9 363.5 140 362.4 140 361V311.6H223.1V361C223.1 362.4 224.2 363.5 225.6 363.5H308.9C310.3 363.5 311.4 362.4 311.4 361V311.6H360.9C362.3 311.6 363.4 310.5 363.4 309.1V225.7C363.4 224.3 362.3 223.2 360.9 223.2H311.4V140.1H360.9V140.2ZM358.4 56.9V135.2H311.4V56.9H358.4ZM306.4 135.2H228.1V56.9H306.4V135.2ZM228.1 5H306.4V51.9H228.1V5ZM223.1 56.9V135.2H140V56.9H223.1ZM223.1 140.2V223.3H140V140.2H223.1ZM135 135.2H56.7V56.9H135V135.2ZM56.7 5H135V51.9H56.7V5ZM5 135.2V56.9H51.7V135.2H5ZM56.7 140.2H135V223.3H56.7V140.2ZM135 228.2V306.5H56.7V228.2H135ZM5 306.5V228.2H51.7V306.5H5ZM135 358.4H56.7V311.5H135V358.4ZM140 306.5V228.2H223.1V306.5H140ZM228.1 228.2H306.4V306.5H228.1V228.2ZM306.4 358.4H228.1V311.5H306.4V358.4ZM358.4 228.2V306.5H311.4V228.2H358.4ZM306.4 223.2H228.1V140.1H306.4V223.2Z" fill="white"/>
</svg>
