<svg width="213" height="425" viewBox="0 0 213 425" fill="none" xmlns="http://www.w3.org/2000/svg">
<path d="M106.2 318.7C164.853 318.7 212.4 271.152 212.4 212.5C212.4 153.847 164.853 106.3 106.2 106.3C47.5474 106.3 0 153.847 0 212.5C0 271.152 47.5474 318.7 106.2 318.7Z" fill="white"/>
<path d="M106.2 0C47.5 0 0 47.6 0 106.2H106.2H212.4C212.4 47.6 164.9 0 106.2 0Z" fill="white"/>
<path d="M0 318.7C0 377.4 47.6 424.9 106.2 424.9C164.9 424.9 212.4 377.3 212.4 318.7H106.2H0Z" fill="white"/>
</svg>
