<svg width="370" height="409" viewBox="0 0 370 409" fill="none" xmlns="http://www.w3.org/2000/svg">
<path d="M368.45 164.307C368.95 163.807 369.25 163.207 369.25 162.507C369.25 161.807 368.95 161.207 368.45 160.707L365.95 158.207C350.95 143.507 334.55 130.907 316.95 120.407C334.55 109.907 350.95 97.307 365.95 82.607L368.45 80.107C368.95 79.607 369.25 79.007 369.25 78.307C369.25 77.607 368.95 77.007 368.45 76.507L365.95 74.007C316.75 25.807 251.65 -0.493 182.85 0.00700025C113.95 0.507 49.35 27.607 0.75 76.507C-0.25 77.507 -0.25 79.007 0.75 80.007C16.35 95.707 33.65 109.207 52.25 120.307C33.65 131.407 16.35 144.807 0.75 160.607C-0.25 161.607 -0.25 163.107 0.75 164.107C16.35 179.807 33.65 193.307 52.25 204.407C33.65 215.507 16.35 228.907 0.75 244.707C-0.25 245.707 -0.25 247.207 0.75 248.207C16.35 263.907 33.65 277.407 52.25 288.507C33.65 299.607 16.35 313.007 0.75 328.807C-0.25 329.807 -0.25 331.307 0.75 332.307C49.35 381.207 113.95 408.307 182.85 408.807C183.45 408.807 184.05 408.807 184.65 408.807C252.85 408.807 317.15 382.607 365.95 334.807L368.45 332.307C368.95 331.807 369.25 331.207 369.25 330.507C369.25 329.807 368.95 329.207 368.45 328.707L365.95 326.207C350.95 311.507 334.55 298.907 316.95 288.407C334.55 277.907 350.95 265.307 365.95 250.607L368.45 248.107C368.95 247.607 369.25 247.007 369.25 246.307C369.25 245.607 368.95 245.007 368.45 244.507L365.95 242.007C350.95 227.307 334.55 214.707 316.95 204.207C334.55 193.707 350.95 181.107 365.95 166.407L368.45 164.307ZM5.95 78.407C53.35 31.607 116.05 5.607 182.75 5.207C183.35 5.207 183.95 5.207 184.55 5.207C251.45 5.207 314.55 30.907 362.35 77.807L363.05 78.507L362.35 79.207C346.95 94.307 330.05 107.107 311.85 117.707C272.85 95.607 228.65 84.007 182.65 84.407C137.95 84.707 94.95 96.307 57.05 117.707C38.75 106.907 21.55 93.807 5.95 78.407ZM306.85 120.507C269.25 141.207 226.85 152.007 182.85 151.707C140.05 151.407 98.85 140.607 62.35 120.507C98.85 100.407 140.05 89.607 182.85 89.307C183.45 89.307 184.05 89.307 184.65 89.307C227.95 89.207 269.75 100.107 306.85 120.507ZM362.35 329.907L363.05 330.607L362.35 331.307C314.05 378.607 250.35 404.307 182.75 403.907C116.05 403.407 53.35 377.507 5.95 330.707C21.45 315.407 38.65 302.307 57.15 291.607C95.05 313.107 138.05 324.607 182.75 324.907C183.35 324.907 183.95 324.907 184.55 324.907C229.85 324.907 273.45 313.307 311.85 291.607C330.05 302.007 347.05 314.807 362.35 329.907ZM62.25 288.607C98.75 268.507 139.95 257.707 182.75 257.407C183.35 257.407 183.95 257.407 184.55 257.407C227.95 257.407 269.75 268.207 306.75 288.607C269.15 309.307 226.75 320.107 182.75 319.807C139.95 319.507 98.75 308.607 62.25 288.607ZM362.35 245.807L363.05 246.507L362.35 247.207C346.95 262.307 330.05 275.107 311.85 285.707C273.35 263.907 229.85 252.407 184.55 252.407C183.95 252.407 183.35 252.407 182.75 252.407C138.05 252.707 95.05 264.307 57.15 285.707C38.75 275.007 21.55 261.907 5.95 246.507C21.45 231.207 38.65 218.107 57.15 207.407C95.05 228.907 138.05 240.407 182.75 240.707C183.35 240.707 183.95 240.707 184.55 240.707C229.85 240.707 273.45 229.107 311.85 207.407C330.05 217.907 347.05 230.807 362.35 245.807ZM62.25 204.507C98.75 184.407 139.95 173.607 182.75 173.307C183.35 173.307 183.95 173.307 184.55 173.307C227.95 173.307 269.75 184.107 306.75 204.507C269.15 225.207 226.75 236.007 182.75 235.707C139.95 235.407 98.75 224.607 62.25 204.507ZM362.35 163.207C346.95 178.307 330.05 191.107 311.85 201.707C272.85 179.707 228.65 168.107 182.75 168.407C138.05 168.707 95.05 180.307 57.15 201.707C38.75 190.907 21.55 177.807 5.95 162.507C21.45 147.207 38.65 134.107 57.15 123.407C95.05 144.907 138.05 156.407 182.75 156.707C183.35 156.707 183.95 156.707 184.55 156.707C229.85 156.707 273.45 145.107 311.85 123.407C329.95 133.907 346.95 146.807 362.35 161.907L363.05 162.607L362.35 163.207Z" fill="white"/>
</svg>
