<svg width="240" height="492" viewBox="0 0 240 492" fill="none" xmlns="http://www.w3.org/2000/svg">
<path d="M228 346.2L212.1 330.3L226.4 316C241.6 300.8 241.6 276 226.4 260.7L210.5 244.8L224.8 230.5C240 215.3 240 190.5 224.8 175.2L208.9 159.3L223.2 145C238.4 129.8 238.4 105 223.2 89.7L144.9 11.4C137.5 4.1 127.7 0 117.3 0C106.9 0 97 4.1 89.7 11.4L11.4 89.7C-3.8 104.9 -3.8 129.7 11.4 145L27.3 160.9L13 175.2C-2.19999 190.4 -2.19999 215.2 13 230.5L28.9 246.4L14.6 260.7C-0.600003 275.9 -0.600003 300.7 14.6 316L30.5 331.9L16.2 346.2C1 361.4 1 386.2 16.2 401.5L94.5 479.8C102.1 487.4 112.1 491.2 122.1 491.2C132.1 491.2 142.1 487.4 149.7 479.8L228 401.5C243.3 386.2 243.3 361.4 228 346.2ZM222.9 264.2C236.2 277.5 236.2 299.1 222.9 312.4L208.6 326.7L168.6 286.7L207 248.3L222.9 264.2ZM96.4 186C103 179.4 111.8 176 120.5 176C129.2 176 138 179.3 144.6 186L159.9 201.3L141.4 219.8C135 226.2 126.4 229.8 117.3 229.8C108.2 229.8 99.6 226.3 93.2 219.8L77.9 204.5L96.4 186ZM74.4 201L34.4 161L94.8 100.6C101.2 94.2 109.8 90.6 118.9 90.6C128 90.6 136.6 94.1 143 100.6L201.8 159.4L163.4 197.8L148.1 182.5C132.9 167.3 108.1 167.3 92.8 182.5L74.4 201ZM89.6 223.3C97 230.7 106.8 234.7 117.2 234.7C127.6 234.7 137.5 230.6 144.8 223.3L163.3 204.8L203.3 244.8L164.9 283.2L149.6 267.9C134.4 252.7 109.6 252.7 94.3 267.9L75.8 286.4L35.8 246.4L74.2 208L89.6 223.3ZM98 271.4C104.6 264.8 113.4 261.4 122.1 261.4C130.8 261.4 139.6 264.7 146.2 271.4L161.5 286.7L143 305.2C136.6 311.6 128 315.2 118.9 315.2C109.8 315.2 101.2 311.7 94.8 305.2L79.5 289.9L98 271.4ZM91.3 308.8C98.7 316.2 108.5 320.2 118.9 320.2C129.3 320.2 139.2 316.1 146.5 308.8L165 290.3L205 330.3L144.6 390.7C131.3 404 109.7 404 96.4 390.7L37.6 331.9L76 293.5L91.3 308.8ZM221.3 178.8C234.6 192.1 234.6 213.7 221.3 227L207 241.3L167 201.3L205.4 162.9L221.3 178.8ZM14.9 141.5C1.6 128.2 1.6 106.6 14.9 93.3L93.2 15C99.6 8.6 108.2 5 117.3 5C126.4 5 135 8.5 141.4 15L219.7 93.3C233 106.6 233 128.2 219.7 141.5L205.4 155.8L146.6 97C131.4 81.8 106.6 81.8 91.3 97L30.9 157.4L14.9 141.5ZM16.5 227C3.20001 213.7 3.20001 192.1 16.5 178.8L30.8 164.5L70.8 204.5L32.4 242.9L16.5 227ZM18.1 312.4C4.8 299.1 4.8 277.5 18.1 264.2L32.4 249.9L72.4 289.9L34 328.3L18.1 312.4ZM224.5 397.9L146.2 476.2C132.9 489.5 111.3 489.5 98 476.2L19.7 397.9C13.3 391.5 9.7 382.9 9.7 373.8C9.7 364.7 13.2 356.1 19.7 349.7L34 335.4L92.8 394.2C100.4 401.8 110.4 405.6 120.4 405.6C130.4 405.6 140.4 401.8 148 394.2L208.4 333.8L224.3 349.7C230.7 356.1 234.3 364.7 234.3 373.8C234.5 382.9 230.9 391.5 224.5 397.9Z" fill="white"/>
</svg>
