<svg width="448" height="331" viewBox="0 0 448 331" fill="none" xmlns="http://www.w3.org/2000/svg">
<path d="M446.5 163.234L269.6 0.633957C268.9 -0.0660431 267.8 -0.166045 266.9 0.233955C266 0.633955 265.4 1.53396 265.4 2.53396V78.034L181.1 0.633957C180.4 -0.0660431 179.3 -0.166045 178.4 0.233955C177.5 0.633955 176.9 1.53396 176.9 2.53396V78.034L92.7 0.633957C92 -0.0660431 90.9 -0.166045 90 0.233955C89.1 0.633955 88.5 1.53396 88.5 2.53396V78.034L4.2 0.633957C3.5 -0.0660431 2.4 -0.166045 1.5 0.233955C0.6 0.633955 0 1.53396 0 2.53396V327.734C0 328.734 0.6 329.634 1.5 330.034C1.8 330.134 2.2 330.234 2.5 330.234C3.1 330.234 3.7 330.034 4.2 329.534L88.5 252.134V327.734C88.5 328.734 89.1 329.634 90 330.034C90.3 330.134 90.7 330.234 91 330.234C91.6 330.234 92.2 330.034 92.7 329.534L177 252.134V327.734C177 328.734 177.6 329.634 178.5 330.034C178.8 330.134 179.2 330.234 179.5 330.234C180.1 330.234 180.7 330.034 181.2 329.534L265.5 252.134V327.734C265.5 328.734 266.1 329.634 267 330.034C267.3 330.134 267.7 330.234 268 330.234C268.6 330.234 269.2 330.034 269.7 329.534L446.6 166.934C447.1 166.434 447.4 165.834 447.4 165.134C447.4 164.434 447.1 163.634 446.5 163.234ZM182 8.13396L265.5 84.834V159.334L182 82.634V8.13396ZM270.4 89.434L352.7 165.034L270.4 240.634V89.434ZM182 89.434L264.3 165.034L182 240.634V89.434ZM93.5 8.13396L177 84.834V159.334L93.5 82.634V8.13396ZM175.8 165.034L93.5 240.634V89.434L175.8 165.034ZM5.1 321.934V8.13396L88.6 84.834V245.234L5.1 321.934ZM93.5 321.934V247.434L177 170.734V245.234L93.5 321.934ZM182 321.934V247.434L265.5 170.734V245.234L182 321.934ZM270.4 321.934V247.434L358.1 166.834C358.6 166.334 358.9 165.734 358.9 165.034C358.9 164.334 358.6 163.634 358.1 163.234L270.4 82.634V8.13396L441.2 165.034L270.4 321.934Z" fill="white"/>
</svg>
