<svg width="380" height="380" viewBox="0 0 380 380" fill="none" xmlns="http://www.w3.org/2000/svg">
<path d="M0 94.8999C0 119.2 9.3 143.4 27.8 161.9C46.3 180.4 70.6 189.7 94.8 189.7C93.9 157.8 31.9 95.8999 0 94.8999Z" fill="white"/>
<path d="M0 94.8C31.9 93.8 93.8 31.8 94.8 0C70.5 0 46.3 9.3 27.8 27.8C9.3 46.3 0.1 70.6 0 94.8Z" fill="white"/>
<path d="M189.7 94.8C189.7 70.5 180.4 46.3 161.9 27.8C143.4 9.3 119.1 0 94.8999 0C95.8999 31.9 157.8 93.8 189.7 94.8Z" fill="white"/>
<path d="M189.7 94.8999C189.7 119.2 199 143.4 217.5 161.9C236 180.4 260.3 189.7 284.5 189.7C283.5 157.9 221.6 95.8999 189.7 94.8999Z" fill="white"/>
<path d="M189.7 94.9001C221.6 93.9001 283.5 31.9001 284.5 0.100098C260.2 0.100098 236 9.40009 217.5 27.9001C199 46.3001 189.7 70.6001 189.7 94.9001Z" fill="white"/>
<path d="M379.4 94.9001C379.4 70.6001 370.1 46.4001 351.6 27.9001C333.1 9.40009 308.8 0.100098 284.6 0.100098C285.5 31.9001 347.5 93.9001 379.4 94.9001Z" fill="white"/>
<path d="M284.5 189.7C308.8 189.7 333 180.4 351.5 161.9C370 143.4 379.3 119.1 379.3 94.8999C347.5 95.8999 285.5 157.9 284.5 189.7Z" fill="white"/>
<path d="M0 284.5C0 308.8 9.3 333 27.8 351.5C46.3 370 70.6 379.3 94.8 379.3C93.9 347.5 31.9 285.5 0 284.5Z" fill="white"/>
<path d="M0 284.5C31.9 283.5 93.8 221.5 94.8 189.7C70.5 189.7 46.3 199 27.8 217.5C9.3 236 0.1 260.2 0 284.5Z" fill="white"/>
<path d="M189.7 284.5C189.7 260.2 180.4 236 161.9 217.5C143.4 199 119.1 189.7 94.8999 189.7C119.2 189.7 143.4 180.4 161.9 161.9C180.4 143.4 189.7 119.1 189.7 94.8999C157.8 95.8999 95.8999 157.9 94.8999 189.7C95.8999 221.5 157.8 283.5 189.7 284.5Z" fill="white"/>
<path d="M94.8999 379.3C119.2 379.3 143.4 370 161.9 351.5C180.4 333 189.7 308.7 189.7 284.5C157.8 285.5 95.8999 347.5 94.8999 379.3Z" fill="white"/>
<path d="M189.7 284.6C189.7 308.9 199 333.1 217.5 351.6C236 370.1 260.3 379.4 284.5 379.4C283.5 347.5 221.6 285.6 189.7 284.6Z" fill="white"/>
<path d="M189.7 284.5C221.6 283.5 283.5 221.5 284.5 189.7C260.2 189.7 236 199 217.5 217.5C199 236 189.7 260.3 189.7 284.5Z" fill="white"/>
<path d="M284.5 189.7C285.5 221.6 347.5 283.5 379.3 284.5C379.3 260.2 370 236 351.5 217.5C333.1 199 308.8 189.7 284.5 189.7Z" fill="white"/>
<path d="M284.5 379.4C308.8 379.4 333 370.1 351.5 351.6C370 333.1 379.3 308.8 379.3 284.6C347.5 285.6 285.5 347.5 284.5 379.4Z" fill="white"/>
</svg>
