<svg width="434" height="434" viewBox="0 0 434 434" fill="none" xmlns="http://www.w3.org/2000/svg">
<path d="M433.4 216.7L430.4 216.1C382 206.5 321.7 200.8 259.3 199.1C303.1 152.7 342.4 105.1 369.9 63.5C328.3 91 280.7 130.3 234.3 174.1C232.5 110.3 226.6 48.9 216.7 0C206.8 48.9 200.9 110.3 199.1 174.1C152.7 130.3 105.1 91 63.5 63.5C91 105.1 130.3 152.7 174.1 199.1C110.3 200.9 48.9 206.8 0 216.7C48.9 226.6 110.3 232.5 174.1 234.3C131.2 279.7 92.6 326.3 65.2 367.3L63.5 369.9L66.1 368.2C107.1 340.7 153.7 302.1 199.1 259.3C200.9 321.7 206.5 381.9 216.1 430.4L216.7 433.4L217.3 430.4C226.9 382 232.6 321.7 234.3 259.3C279.7 302.2 326.3 340.8 367.3 368.2L369.9 369.9L368.2 367.3C340.7 326.3 302.1 279.7 259.3 234.3C321.7 232.5 381.9 226.9 430.4 217.3L433.4 216.7Z" fill="white"/>
</svg>
