<svg width="401" height="401" viewBox="0 0 401 401" fill="none" xmlns="http://www.w3.org/2000/svg">
<path d="M163.4 200.2L199.8 163.8L157.1 121.2L199.8 78.5L121.2 0L0 121.2L79.7 200.8L121.9 158.6L163.4 200.2Z" fill="white"/>
<path d="M199.8 163.8L236.8 200.8L279 158.6L320.5 200.2L399.5 121.2L278.3 0L199.8 78.5L242.4 121.2L199.8 163.8Z" fill="white"/>
<path d="M200.4 237.2L163.4 200.2L121.2 242.4L79.7 200.8L0.699951 279.8L121.9 401L200.4 322.5L157.7 279.8L200.4 237.2Z" fill="white"/>
<path d="M320.5 200.2L278.3 242.4L236.8 200.8L200.4 237.2L243.1 279.8L200.4 322.5L279 401L400.2 279.8L320.5 200.2Z" fill="white"/>
</svg>
