<svg width="356" height="356" viewBox="0 0 356 356" fill="none" xmlns="http://www.w3.org/2000/svg">
<path d="M353.1 0H177.8H2.5C1.1 0 0 1.1 0 2.5V177.8V353.1C0 354.5 1.1 355.6 2.5 355.6H353.1C354.5 355.6 355.6 354.5 355.6 353.1V2.5C355.6 1.1 354.5 0 353.1 0ZM350.6 172C327.3 150.6 297.2 138.9 265.5 138.9C265.2 138.9 264.9 138.9 264.6 138.9C239.8 139.1 216.1 146.4 195.8 159.8C209.6 139.1 216.9 114.7 216.7 89.3C216.5 57.8 204.8 28.1 183.6 5H350.5V172H350.6ZM349.5 177.8C326.8 199.7 297 211.8 265.4 211.8C265.1 211.8 264.8 211.8 264.5 211.8C233.2 211.6 203.7 199.5 181.2 177.8C203.7 156.1 233.1 144.1 264.5 143.8C264.8 143.8 265.1 143.8 265.4 143.8C297 143.8 326.8 155.9 349.5 177.8ZM177.8 174.2C155.7 151.3 143.6 121.2 143.8 89.3C144 58 156.1 28.5 177.8 6C199.5 28.5 211.5 57.9 211.8 89.3C212 121.2 199.9 151.3 177.8 174.2ZM171.9 5C150.8 28.1 139.1 57.8 138.8 89.3C138.6 114.7 146 139.1 159.8 159.8C139.1 146 114.7 138.7 89.3 138.8C57.8 139 28.1 150.7 5 171.9V5H171.9ZM174.2 177.8C151.5 199.7 121.7 211.8 90.1 211.8C89.8 211.8 89.5 211.8 89.2 211.8C57.9 211.6 28.4 199.5 5.9 177.8C28.4 156.1 57.8 144.1 89.2 143.8C121.2 143.6 151.3 155.7 174.2 177.8ZM5 183.7C28.1 204.9 57.8 216.6 89.3 216.8C89.6 216.8 89.9 216.8 90.2 216.8C115.3 216.8 139.3 209.5 159.8 195.9C146.4 216.1 139 239.8 138.9 264.7C138.7 296.8 150.4 327.2 172 350.7H5V183.7ZM177.8 181.4C199.5 203.9 211.5 233.3 211.8 264.7C212 296.6 200 326.7 177.8 349.6C155.7 326.7 143.6 296.6 143.8 264.7C144.1 233.3 156.1 203.8 177.8 181.4ZM183.6 350.6C205.2 327.1 216.9 296.7 216.7 264.6C216.5 239.8 209.2 216.1 195.8 195.9C216 209.3 239.7 216.6 264.5 216.8C264.8 216.8 265.1 216.8 265.4 216.8C297.2 216.8 327.2 205.1 350.5 183.7V350.7H183.6V350.6Z" fill="white"/>
</svg>
