<svg width="375" height="375" viewBox="0 0 375 375" fill="none" xmlns="http://www.w3.org/2000/svg">
<path d="M187.4 0C83.9 0 0 83.9 0 187.4C0 290.9 83.9 374.8 187.4 374.8C290.9 374.8 374.8 290.9 374.8 187.4C374.8 83.9 290.9 0 187.4 0ZM288 220.1C308.7 247 281.6 284.4 249.6 273C250.5 307 206.6 321.3 187.4 293.2C168.2 321.2 124.3 307 125.2 273C93.2 284.4 66 247 86.8 220.1C54.2 210.5 54.2 164.3 86.8 154.7C66.1 127.8 93.2 90.4 125.2 101.8C124.3 67.8 168.2 53.5 187.4 81.6C206.6 53.6 250.5 67.8 249.6 101.8C281.6 90.4 308.8 127.8 288 154.7C320.7 164.3 320.7 210.5 288 220.1Z" fill="white"/>
</svg>
