<svg width="420" height="337" viewBox="0 0 420 337" fill="none" xmlns="http://www.w3.org/2000/svg">
<path d="M417.5 0C388.4 0 360.9 7.4 337 20.5V2.5C337 1.1 335.9 0 334.5 0C305.4 0 277.9 7.4 254 20.5V2.5C254 1.1 252.9 0 251.5 0C222.4 0 194.9 7.4 171 20.5V2.5C171 1.1 169.9 0 168.5 0C75.6 0 0 75.6 0 168.5C0 261.4 75.6 337 168.5 337C169.9 337 171 335.9 171 334.5V316.5C194.9 329.6 222.4 337 251.5 337C252.9 337 254 335.9 254 334.5V316.5C277.9 329.6 305.4 337 334.5 337C335.9 337 337 335.9 337 334.5V316.5C360.9 329.6 388.4 337 417.5 337C418.9 337 420 335.9 420 334.5V2.5C420 1.1 418.9 0 417.5 0ZM332 5V23.3C293.7 46 265 83.4 254 127.7V26.2C277.1 13.1 303.7 5.4 332 5ZM249 307.8C202.2 279 171 227.3 171 168.5C171 109.7 202.2 58 249 29.2V307.8ZM166 307.8C119.2 279 88 227.3 88 168.5C88 109.7 119.2 58 166 29.2V307.8ZM332 29.2V307.8C285.2 279 254 227.3 254 168.5C254 109.7 285.2 58 332 29.2ZM249 5V23.3C210.7 46 182 83.4 171 127.7V26.2C194.1 13.1 220.7 5.4 249 5ZM166 332C77 330.6 5 257.8 5 168.5C5 79.2 77 6.4 166 5V23.3C116.4 52.7 83 106.7 83 168.4C83 230.1 116.4 284.2 166 313.5V332ZM249 332C220.7 331.6 194.1 323.9 171 310.8V209.3C182.1 253.6 210.7 291 249 313.7V332ZM332 332C303.7 331.6 277.1 323.9 254 310.8V209.3C265.1 253.6 293.7 291 332 313.7V332ZM415 332C386.7 331.6 360.1 323.9 337 310.8V26.2C360.1 13.1 386.7 5.4 415 5V332Z" fill="white"/>
</svg>
