<svg width="386" height="372" viewBox="0 0 386 372" fill="none" xmlns="http://www.w3.org/2000/svg">
<path d="M192.55 22.9432C222.15 -20.2568 289.75 1.74319 288.25 54.0432C337.55 36.5432 379.35 94.0432 347.45 135.443C397.65 150.243 397.65 221.343 347.45 236.143C379.35 277.643 337.55 335.143 288.25 317.543C289.65 369.843 222.05 391.843 192.55 348.643C162.95 391.843 95.35 369.843 96.85 317.543C47.55 335.043 5.75 277.543 37.65 236.143C-12.55 221.343 -12.55 150.243 37.65 135.443C5.75 93.9432 47.55 36.4432 96.85 54.0432C95.35 1.74319 162.95 -20.2568 192.55 22.9432Z" fill="white"/>
</svg>
