<svg width="406" height="406" viewBox="0 0 406 406" fill="none" xmlns="http://www.w3.org/2000/svg">
<path d="M101.35 168.65L121.25 188.55C139.85 207.15 170.05 207.15 188.65 188.55C197.95 179.25 202.65 167.05 202.65 154.85C202.65 167.05 207.35 179.25 216.65 188.55C225.95 197.85 238.15 202.55 250.35 202.55C262.55 202.55 274.75 197.85 284.05 188.55L303.95 168.65L323.85 188.55C342.45 207.15 372.65 207.15 391.25 188.55C409.85 169.95 409.85 139.75 391.25 121.15L371.35 101.25L391.25 81.35C409.85 62.75 409.85 32.55 391.25 13.95C372.65 -4.65 342.45 -4.65 323.85 13.95L303.95 33.85L284.05 13.95C265.45 -4.65 235.25 -4.65 216.65 13.95C207.35 23.25 202.65 35.45 202.65 47.65C202.65 59.85 207.35 72.05 216.65 81.35L236.55 101.25L216.55 121.25C207.25 130.55 202.55 142.75 202.55 154.95C202.55 142.75 197.85 130.55 188.55 121.25L168.65 101.35L188.55 81.45C197.85 72.15 202.55 59.95 202.55 47.75C202.55 35.55 197.85 23.35 188.55 14.05C169.95 -4.55 139.75 -4.55 121.15 14.05L101.25 33.95L81.35 14.05C62.75 -4.55 32.55 -4.55 13.95 14.05C-4.65 32.65 -4.65 62.85 13.95 81.45L33.85 101.35L13.95 121.25C-4.65 139.85 -4.65 170.05 13.95 188.65C23.25 197.95 35.45 202.65 47.65 202.65C59.85 202.65 72.05 197.95 81.35 188.65L101.35 168.65Z" fill="white"/>
<path d="M371.15 303.75L391.05 283.85C409.65 265.25 409.65 235.05 391.05 216.45C372.45 197.85 342.25 197.85 323.65 216.45L303.75 236.35L283.85 216.55C274.55 207.25 262.35 202.55 250.15 202.55C237.95 202.55 225.75 207.25 216.45 216.55C207.15 225.85 202.45 238.05 202.45 250.25C202.45 262.45 207.15 274.65 216.45 283.95L236.35 303.85L216.55 323.75C207.25 333.05 202.55 345.25 202.55 357.45C202.55 345.25 197.85 333.05 188.55 323.75L168.65 303.85L188.55 283.95C197.85 274.65 202.55 262.45 202.55 250.25C202.55 238.05 197.85 225.85 188.55 216.55C169.95 197.95 139.75 197.95 121.15 216.55L101.25 236.45L81.35 216.55C72.05 207.25 59.85 202.55 47.65 202.55C35.45 202.55 23.25 207.25 13.95 216.55C-4.65 235.15 -4.65 265.35 13.95 283.95L33.85 303.85L13.95 323.75C-4.65 342.35 -4.65 372.55 13.95 391.15C32.55 409.75 62.75 409.75 81.35 391.15L101.25 371.25L121.15 391.15C139.75 409.75 169.95 409.75 188.55 391.15C197.85 381.85 202.55 369.65 202.55 357.45C202.55 369.65 207.25 381.85 216.55 391.15C235.15 409.75 265.35 409.75 283.95 391.15L303.85 371.25L323.75 391.15C342.35 409.75 372.55 409.75 391.15 391.15C409.75 372.55 409.75 342.35 391.15 323.75L371.15 303.75Z" fill="white"/>
</svg>
