<svg width="430" height="431" viewBox="0 0 430 431" fill="none" xmlns="http://www.w3.org/2000/svg">
<path d="M215 430.05C214.4 430.05 213.7 429.85 213.2 429.35L0.700001 216.85C0.200001 216.35 0 215.75 0 215.05C0 214.35 0.300001 213.75 0.700001 213.25L213.2 0.75C214.2 -0.25 215.8 -0.25 216.7 0.75L429.2 213.25C429.7 213.75 429.9 214.35 429.9 215.05C429.9 215.75 429.6 216.35 429.2 216.85L216.8 429.35C216.3 429.85 215.6 430.05 215 430.05ZM6 215.05L215 424.05L424 215.05L215 6.05L6 215.05Z" fill="white"/>
<path d="M215 391.45C214.4 391.45 213.7 391.25 213.2 390.75L39.4002 216.85C38.9002 216.35 38.7002 215.75 38.7002 215.05C38.7002 214.35 39.0002 213.75 39.4002 213.25L213.2 39.4499C214.1 38.5499 215.8 38.5499 216.7 39.4499L390.6 213.35C391.6 214.35 391.6 215.95 390.6 216.85L216.8 390.65C216.3 391.15 215.6 391.45 215 391.45ZM44.7002 215.05L215 385.35L385.3 215.05L215 44.7499L44.7002 215.05Z" fill="white"/>
<path d="M215 352.75C214.4 352.75 213.7 352.55 213.2 352.05L77.9998 216.85C77.4998 216.35 77.2998 215.75 77.2998 215.05C77.2998 214.35 77.5998 213.75 77.9998 213.25L213.2 78.05C214.1 77.15 215.8 77.15 216.7 78.05L352 213.25C353 214.25 353 215.85 352 216.75L216.8 352.05C216.3 352.55 215.6 352.75 215 352.75ZM83.2998 215.05L215 346.75L346.7 215.05L215 83.35L83.2998 215.05Z" fill="white"/>
<path d="M215 314.15C214.4 314.15 213.7 313.95 213.2 313.45L116.6 216.85C115.6 215.85 115.6 214.25 116.6 213.35L213.2 116.75C214.1 115.85 215.8 115.85 216.7 116.75L313.3 213.35C314.3 214.35 314.3 215.95 313.3 216.85L216.7 313.45C216.3 313.85 215.6 314.15 215 314.15ZM122 215.05L215 308.05L308 215.05L215 122.05L122 215.05Z" fill="white"/>
<path d="M215 275.45C214.4 275.45 213.7 275.25 213.2 274.75L155.3 216.85C154.8 216.35 154.6 215.75 154.6 215.05C154.6 214.35 154.9 213.75 155.3 213.25L213.2 155.35C214.2 154.35 215.8 154.35 216.7 155.35L274.6 213.25C275.1 213.75 275.3 214.35 275.3 215.05C275.3 215.75 275 216.35 274.6 216.85L216.7 274.75C216.3 275.25 215.6 275.45 215 275.45ZM160.6 215.05L215 269.45L269.4 215.05L215 160.65L160.6 215.05Z" fill="white"/>
</svg>
