<svg width="408" height="408" viewBox="0 0 408 408" fill="none" xmlns="http://www.w3.org/2000/svg">
<path d="M408 222.5V185.5L239.2 200.8C239.1 199.8 239 198.9 238.8 198L405.8 169.1L396.2 133.4L237.1 191.9C236.8 191 236.4 190.1 236 189.3L389.9 118L371.4 86L232.9 183.7C232.3 182.9 231.8 182.2 231.2 181.4L361.4 72.9L335.2 46.7L226.6 176.9C225.9 176.3 225.1 175.7 224.3 175.2L322 36.6L290 18.1L218.9 171.9C218 171.5 217.2 171.1 216.3 170.8L274.8 11.7L239.1 2.1L210.2 169.1C209.3 168.9 208.3 168.8 207.4 168.7L222.5 0H185.5L200.8 168.8C199.8 168.9 198.9 169 198 169.2L169.1 2.2L133.4 11.8L191.9 170.9C191 171.2 190.1 171.6 189.3 172L118 18.1L86 36.6L183.7 175.1C182.9 175.7 182.2 176.2 181.4 176.8L72.8 46.7L46.6 72.9L176.8 181.4C176.2 182.1 175.6 182.9 175.1 183.7L36.6 86L18.1 118L171.9 189.1C171.5 190 171.1 190.8 170.8 191.7L11.8 133.3L2.2 169L169.2 197.9C169 198.8 168.9 199.8 168.8 200.7L0 185.5V222.5L168.8 207.2C168.9 208.2 169 209.1 169.2 210L2.2 238.9L11.8 274.6L170.9 216.1C171.2 217 171.6 217.9 172 218.7L18.1 290L36.6 322L175.1 224.3C175.7 225.1 176.2 225.8 176.8 226.6L46.7 335.2L72.9 361.4L181.4 231.2C182.1 231.8 182.9 232.4 183.7 232.9L86 371.4L118 389.9L189.1 236.1C190 236.5 190.8 236.9 191.7 237.2L133.2 396.3L168.9 405.9L197.8 238.9C198.7 239.1 199.7 239.2 200.6 239.3L185.5 408H222.5L207.2 239.2C208.2 239.1 209.1 239 210 238.8L238.9 405.8L274.6 396.2L216.1 237.1C217 236.8 217.9 236.4 218.7 236L290 389.9L322 371.4L224.3 232.9C225.1 232.3 225.8 231.8 226.6 231.2L335.1 361.4L361.3 335.2L231.1 226.6C231.7 225.9 232.3 225.1 232.8 224.3L371.4 322L389.9 290L236.1 218.9C236.5 218 236.9 217.2 237.2 216.3L396.3 274.8L405.9 239.1L238.9 210.2C239.1 209.3 239.2 208.3 239.3 207.4L408 222.5Z" fill="white"/>
</svg>
