<svg width="402" height="402" viewBox="0 0 402 402" fill="none" xmlns="http://www.w3.org/2000/svg">
<path d="M401.6 180.6H303.1L394.2 143.1L378.8 105.6L286.7 143.5L357.1 73.1L328.5 44.5L258.1 114.9L296 22.8L258.5 7.4L221 98.5V0H180.6V98.4L143.1 7.4L105.6 22.8L143.5 114.9L73.1 44.5L44.5 73.1L114.9 143.5L22.8 105.6L7.4 143.1L98.5 180.6H0V221H98.4L7.4 258.5L22.8 296L114.9 258L44.5 328.5L73.1 357.1L143.6 286.7L105.6 378.8L143.1 394.2L180.6 303.2V401.6H221V303.2L258.5 394.2L296 378.8L258 286.7L328.5 357.1L357.1 328.5L286.7 258L378.8 296L394.2 258.5L303.2 221H401.6V180.6Z" fill="white"/>
</svg>
