<svg width="440" height="440" viewBox="0 0 440 440" fill="none" xmlns="http://www.w3.org/2000/svg">
<path d="M109.8 109.801H111.3C171.4 109.201 219.8 60.1006 219.6 0.000617606C159.5 -0.199382 110.4 48.2006 109.8 108.301V109.801C49.6005 109.601 0.600488 158.001 0.000488281 218.101V219.601H1.50049C61.6005 218.901 110 169.901 109.8 109.801C109.6 169.901 158 218.901 218.1 219.601H219.6V218.101C218.9 158.001 169.9 109.601 109.8 109.801Z" fill="white"/>
<path d="M219.601 218.1V219.6H221.101C281.201 219 329.601 169.9 329.401 109.8C329.201 169.9 377.601 218.9 437.701 219.6H439.201V218.1C438.601 158 389.601 109.6 329.401 109.8C269.301 109.6 220.301 158 219.601 218.1Z" fill="white"/>
<path d="M327.901 109.801H329.401V108.301C328.801 48.1006 279.701 -0.199381 219.601 0.000618878C219.401 60.1006 267.801 109.101 327.901 109.801Z" fill="white"/>
<path d="M109.801 329.401H111.301C171.401 328.801 219.801 279.701 219.601 219.601C159.501 219.401 110.401 267.801 109.801 327.901C109.101 267.801 60.1006 219.401 0.000617606 219.601C-0.199382 279.701 48.2006 328.801 108.301 329.401H109.801C109.601 389.601 158.001 438.601 218.101 439.201H219.601V437.701C218.901 377.601 169.901 329.201 109.801 329.401Z" fill="white"/>
<path d="M329.401 327.901C328.801 267.801 279.701 219.401 219.601 219.601C219.401 279.701 267.801 328.801 327.901 329.401H329.401C269.301 329.201 220.301 377.601 219.601 437.701V439.201H221.101C281.201 438.601 329.601 389.601 329.401 329.401H330.901C391.001 328.801 439.401 279.701 439.201 219.601C379.101 219.401 330.101 267.801 329.401 327.901Z" fill="white"/>
</svg>
