<svg width="370" height="402" viewBox="0 0 370 402" fill="none" xmlns="http://www.w3.org/2000/svg">
<path d="M0 125.2V201H59.1C128.3 201 184.3 144.9 184.3 75.8V0H125.2C56 0 0 56 0 125.2Z" fill="white"/>
<path d="M310.1 0C240.9 0 184.9 56.1 184.9 125.2V201H244C313.2 201 369.2 144.9 369.2 75.8V0H310.1Z" fill="white"/>
<path d="M0 326.2V402H59.1C128.3 402 184.3 345.9 184.3 276.8V201H125.2C56 201 0 257.1 0 326.2Z" fill="white"/>
<path d="M184.9 326.2V402H244C313.2 402 369.2 345.9 369.2 276.8V201H310.1C240.9 201 184.9 257.1 184.9 326.2Z" fill="white"/>
</svg>
