<svg width="381" height="381" viewBox="0 0 381 381" fill="none" xmlns="http://www.w3.org/2000/svg">
<path d="M378.1 380.6H2.5C1.1 380.6 0 379.5 0 378.1V2.5C0 1.1 1.1 0 2.5 0H378.2C379.6 0 380.7 1.1 380.7 2.5V378.2C380.6 379.5 379.5 380.6 378.1 380.6ZM5 375.6H375.7V5H5V375.6Z" fill="white"/>
<path d="M327.6 330.1H53C51.6 330.1 50.5 329 50.5 327.6V53C50.5 51.6 51.6 50.5 53 50.5H327.5C328.9 50.5 330 51.6 330 53V327.5C330.1 328.9 328.9 330.1 327.6 330.1ZM55.5 325.1H325V55.5H55.5V325.1Z" fill="white"/>
<path d="M278.6 281.1H102C100.6 281.1 99.5 280 99.5 278.6V102C99.5 100.6 100.6 99.5 102 99.5H278.6C280 99.5 281.1 100.6 281.1 102V278.6C281.1 280 280 281.1 278.6 281.1ZM104.5 276.1H276.1V104.5H104.5V276.1Z" fill="white"/>
<path d="M234.2 236.7H146.4C145 236.7 143.9 235.6 143.9 234.2V146.4C143.9 145 145 143.9 146.4 143.9H234.2C235.6 143.9 236.7 145 236.7 146.4V234.2C236.7 235.6 235.6 236.7 234.2 236.7ZM148.9 231.7H231.7V148.9H148.9V231.7Z" fill="white"/>
</svg>
