<svg width="385" height="385" viewBox="0 0 385 385" fill="none" xmlns="http://www.w3.org/2000/svg">
<path d="M384.4 192.1L383.1 190.8C356.9 165.1 322.8 152.3 288.7 152.2C313.2 127.6 328.2 93.7 328.1 56.3C290.7 56.2 256.8 71.2 232.2 95.7C232.1 61 218.8 26.4 192.2 0C165.7 26.4 152.3 61 152.2 95.7C127.6 71.2 93.7 56.2 56.3 56.3C56.2 93.7 71.2 127.6 95.7 152.2C61 152.3 26.4 165.6 0 192.2C26.4 218.7 61 232.1 95.7 232.2C71.7 256.4 56.7 289.5 56.3 326.2V328.1H58.2C94.9 327.7 128.1 312.7 152.2 288.7C152.3 322.8 165.2 356.8 190.8 383.1L192.1 384.4L193.4 383.1C219.1 356.9 232 322.8 232 288.7C256.2 312.7 289.3 327.7 326 328.1H327.9V326.2C327.5 289.5 312.5 256.3 288.5 232.2C322.6 232.1 356.6 219.2 382.9 193.6L384.4 192.1Z" fill="white"/>
</svg>
