<svg width="462" height="231" viewBox="0 0 462 231" fill="none" xmlns="http://www.w3.org/2000/svg">
<path d="M231 0H0C0 63.8 51.7 115.5 115.5 115.5C179.3 115.5 231 63.8 231 0Z" fill="white"/>
<path d="M115.5 115.5C51.7 115.5 0 167.2 0 231H231C231 167.2 179.3 115.5 115.5 115.5Z" fill="white"/>
<path d="M346.5 115.5C410.3 115.5 462 63.8 462 0H231C231 63.8 282.7 115.5 346.5 115.5Z" fill="white"/>
<path d="M346.5 115.5C282.7 115.5 231 167.2 231 231H462C462 167.2 410.3 115.5 346.5 115.5Z" fill="white"/>
</svg>
