<svg width="374" height="393" viewBox="0 0 374 393" fill="none" xmlns="http://www.w3.org/2000/svg">
<path d="M187 186.8C290.277 186.8 374 144.983 374 93.4C374 41.8166 290.277 0 187 0C83.7228 0 0 41.8166 0 93.4C0 144.983 83.7228 186.8 187 186.8Z" fill="white"/>
<path d="M187 297.2C290.277 297.2 374 272.486 374 242C374 211.514 290.277 186.8 187 186.8C83.7228 186.8 0 211.514 0 242C0 272.486 83.7228 297.2 187 297.2Z" fill="white"/>
<path d="M187 360.6C290.277 360.6 374 346.408 374 328.9C374 311.393 290.277 297.2 187 297.2C83.7228 297.2 0 311.393 0 328.9C0 346.408 83.7228 360.6 187 360.6Z" fill="white"/>
<path d="M187 392.4C290.277 392.4 374 385.281 374 376.5C374 367.719 290.277 360.6 187 360.6C83.7228 360.6 0 367.719 0 376.5C0 385.281 83.7228 392.4 187 392.4Z" fill="white"/>
</svg>
