<svg width="267" height="383" viewBox="0 0 267 383" fill="none" xmlns="http://www.w3.org/2000/svg">
<path d="M236.9 341.7C230.8 339 223.5 336.7 214.2 334.6C223.5 332.5 230.8 330.2 236.9 327.5C263.8 315.7 266.7 295.1 266.7 286.8C266.7 278.5 263.8 257.9 236.9 246.1C230.8 243.4 223.5 241.1 214.2 239C223.5 236.9 230.8 234.6 236.9 231.9C263.8 220.1 266.7 199.5 266.7 191.2C266.7 182.9 263.8 162.3 236.9 150.5C230.8 147.8 223.5 145.5 214.2 143.4C223.5 141.3 230.8 139 236.9 136.3C263.8 124.5 266.7 103.9 266.7 95.6C266.7 87.3 263.8 66.7 236.9 54.9C230.8 52.2 223.5 49.9 214.2 47.8C223.5 45.7 230.8 43.4 236.9 40.7C263.8 28.9 266.7 8.3 266.7 0H195.2H52.5C43.2 2.1 35.9 4.4 29.8 7.1C2.9 18.9 0 39.5 0 47.8C0 56.1 2.9 76.7 29.8 88.5C35.9 91.2 43.2 93.5 52.5 95.6C43.2 97.7 35.9 100 29.8 102.7C2.9 114.5 0 135.1 0 143.4C0 151.7 2.9 172.3 29.8 184.1C35.9 186.8 43.2 189.1 52.5 191.2C43.2 193.3 35.9 195.6 29.8 198.3C2.9 210.1 0 230.7 0 239C0 247.3 2.9 267.9 29.8 279.7C35.9 282.4 43.2 284.7 52.5 286.8C43.2 288.9 35.9 291.2 29.8 293.9C2.9 305.7 0 326.3 0 334.6C0 342.9 2.9 363.5 29.8 375.3C35.8 377.9 42.9 380.1 51.9 382.2H266.8C266.6 373.8 263.6 353.3 236.9 341.7Z" fill="white"/>
</svg>
