<svg width="441" height="440" viewBox="0 0 441 440" fill="none" xmlns="http://www.w3.org/2000/svg">
<path d="M238.1 39.3L248.1 0.1L248 40.6C248 59.5 273.2 66 282.3 49.4L301.7 13.9L291.6 53C286.9 71.3 309.7 83.9 322.6 70L350.2 40.5L330.6 75.9C321.5 92.5 340.4 110.3 356.4 100.1L390.5 78.4L362.7 107.8C349.7 121.6 363.7 143.6 381.7 137.7L420.2 125.1L386 146.7C370 156.8 378.1 181.6 396.9 180.4L437.3 177.8L398.8 190.2C380.8 196 382.4 222 401 225.5L440.8 233L400.4 235.5C381.5 236.7 376.6 262.2 393.8 270.3L430.4 287.5L390.7 279.8C372.1 276.2 361 299.8 375.6 311.8L406.8 337.5L370.2 320.2C353.1 312.1 336.5 332.2 347.6 347.5L371.4 380.2L340.4 354.3C325.8 342.2 304.8 357.5 311.8 375.1L326.8 412.7L303.1 379.9C292 364.6 267.8 374.2 270.2 392.9L275.3 433L260.5 395.4C253.6 377.8 227.7 381.1 225.4 399.8L220.4 439.9L215.4 399.8C213.1 381 187.2 377.8 180.3 395.4L165.5 433L170.6 392.9C173 374.1 148.8 364.5 137.7 379.9L114 412.7L129 375.1C136 357.5 114.9 342.2 100.4 354.3L69.3 380.1L93.1 347.4C104.3 332.1 87.6 312 70.5 320.1L33.9 337.4L65.1 311.7C79.7 299.7 68.6 276.1 50 279.7L10.4 287.4L47 270.2C64.1 262.2 59.3 236.6 40.4 235.4L0 233L39.8 225.5C58.4 222 60 196 42 190.2L3.5 177.8L43.9 180.4C62.8 181.6 70.8 156.9 54.8 146.7L20.6 125.1L59.1 137.7C77.1 143.6 91 121.6 78.1 107.8L50.3 78.4L84.4 100.1C100.4 110.3 119.3 92.4 110.2 75.9L90.6 40.5L118.2 70C131.1 83.8 153.9 71.3 149.2 53L139.1 13.8L158.5 49.3C167.6 65.9 192.8 59.4 192.8 40.5L192.7 0L202.7 39.2C207.4 57.6 233.4 57.6 238.1 39.3Z" fill="white"/>
</svg>
