<svg width="441" height="415" viewBox="0 0 441 415" fill="none" xmlns="http://www.w3.org/2000/svg">
<path d="M439.3 0.203867C438.4 -0.196133 437.3 0.00386721 436.6 0.703867C411 24.9039 382.4 38.0039 353.8 38.7039V2.50387C353.8 1.50387 353.2 0.603867 352.3 0.203867C351.4 -0.196133 350.3 0.00386721 349.6 0.703867C336.3 13.2039 322.3 22.8039 307.8 29.2039C293.3 22.8039 279.2 13.3039 266 0.703867C266 0.703867 266 0.703867 265.9 0.703867C265.8 0.603867 265.7 0.603866 265.6 0.503866C265.5 0.403866 265.4 0.403866 265.3 0.303866C265.3 0.303866 265.3 0.303866 265.2 0.303866C265.1 0.303866 265 0.303867 264.9 0.203867C264.8 0.203867 264.7 0.103865 264.5 0.103865C264.4 0.103865 264.3 0.103865 264.1 0.103865C264 0.103865 263.9 0.103865 263.7 0.103865C263.6 0.103865 263.5 0.203867 263.3 0.203867C263.2 0.203867 263.1 0.203866 263 0.303866C263 0.303866 263 0.303866 262.9 0.303866C262.8 0.403866 262.7 0.403866 262.6 0.503866C262.5 0.603866 262.4 0.603867 262.3 0.703867C262.3 0.703867 262.3 0.703867 262.2 0.703867C248.9 13.2039 234.9 22.8039 220.4 29.2039C205.9 22.8039 191.8 13.3039 178.6 0.703867C178.6 0.703867 178.6 0.703867 178.5 0.703867C178.4 0.603867 178.3 0.603866 178.2 0.503866C178.1 0.403866 178 0.403866 177.9 0.303866C177.9 0.303866 177.9 0.303866 177.8 0.303866C177.7 0.303866 177.6 0.303867 177.5 0.203867C177.4 0.203867 177.3 0.103865 177.1 0.103865C177 0.103865 176.9 0.103865 176.7 0.103865C176.6 0.103865 176.5 0.103865 176.3 0.103865C176.2 0.103865 176.1 0.203867 175.9 0.203867C175.8 0.203867 175.7 0.203866 175.6 0.303866C175.6 0.303866 175.6 0.303866 175.5 0.303866C175.4 0.403866 175.3 0.403866 175.2 0.503866C175.1 0.603866 175 0.603867 174.9 0.703867C174.9 0.703867 174.9 0.703867 174.8 0.703867C161.5 13.2039 147.5 22.8039 133 29.2039C118.5 22.8039 104.4 13.3039 91.2 0.703867C90.5 0.00386721 89.4 -0.196133 88.5 0.203867C87.6 0.603867 87 1.50387 87 2.50387V38.7039C58.3 38.0039 29.7 24.9039 4.2 0.703867C3.5 0.00386721 2.4 -0.196133 1.5 0.203867C0.6 0.603867 0 1.50387 0 2.50387V412.204C0 413.204 0.6 414.104 1.5 414.504C2.4 414.904 3.5 414.704 4.2 414.004C29.8 389.804 58.4 376.704 87 376.004V412.204C87 413.204 87.6 414.104 88.5 414.504C89.4 414.904 90.5 414.704 91.2 414.004C104.5 401.504 118.5 391.904 133 385.504C147.5 391.904 161.6 401.404 174.8 414.004C174.8 414.004 174.8 414.004 174.9 414.104L175 414.204C175.2 414.304 175.3 414.404 175.5 414.504C175.5 414.504 175.5 414.504 175.6 414.504C175.8 414.604 176 414.604 176.2 414.704C176.3 414.704 176.3 414.704 176.4 414.704C176.5 414.704 176.5 414.704 176.6 414.704C176.7 414.704 176.8 414.704 176.9 414.704H177C177.2 414.704 177.4 414.604 177.5 414.504C177.5 414.504 177.5 414.504 177.6 414.504C177.7 414.404 177.8 414.404 177.9 414.304C178 414.204 178.1 414.204 178.2 414.104C178.2 414.104 178.2 414.104 178.3 414.104C191.6 401.604 205.6 392.004 220.1 385.604C234.6 392.004 248.7 401.504 261.9 414.104C261.9 414.104 261.9 414.104 262 414.204L262.1 414.304C262.3 414.404 262.4 414.504 262.6 414.604C262.6 414.604 262.6 414.604 262.7 414.604C262.9 414.704 263.1 414.704 263.3 414.804C263.4 414.804 263.4 414.804 263.5 414.804C263.6 414.804 263.6 414.804 263.7 414.804C263.8 414.804 263.9 414.804 264 414.804H264.1C264.3 414.804 264.5 414.704 264.6 414.604C264.6 414.604 264.6 414.604 264.7 414.604C264.8 414.504 264.9 414.504 265 414.404C265.1 414.304 265.2 414.304 265.3 414.204C265.3 414.204 265.3 414.204 265.4 414.204C278.7 401.704 292.7 392.104 307.2 385.704C321.7 392.104 335.8 401.604 349 414.204C349.5 414.604 350.1 414.904 350.7 414.904C351 414.904 351.4 414.804 351.7 414.704C352.6 414.304 353.2 413.404 353.2 412.404V376.204C381.9 376.904 410.5 390.004 436 414.204C436.5 414.604 437.1 414.904 437.7 414.904C438 414.904 438.4 414.804 438.7 414.704C439.6 414.304 440.2 413.404 440.2 412.404V2.50387C440.8 1.50387 440.2 0.603867 439.3 0.203867ZM92.5 43.6039C106.3 43.3039 120 40.3039 133.5 34.6039C147 40.3039 160.8 43.3039 174.5 43.6039V371.004C160.7 371.304 147 374.304 133.5 380.004C120 374.304 106.2 371.304 92.5 371.004V43.6039ZM179.6 43.6039C193.4 43.3039 207.1 40.3039 220.6 34.6039C234.1 40.3039 247.9 43.3039 261.6 43.6039V371.004C247.8 371.304 234.1 374.304 220.6 380.004C207.1 374.304 193.3 371.304 179.6 371.004V43.6039ZM266.6 43.6039C280.4 43.3039 294.1 40.3039 307.6 34.6039C321.1 40.3039 334.9 43.3039 348.6 43.6039V371.004C334.8 371.304 321.1 374.304 307.6 380.004C294.1 374.304 280.3 371.304 266.6 371.004V43.6039ZM348.7 8.10386V38.6039C337.1 38.3039 325.5 36.0039 314 31.7039C325.9 25.9039 337.5 18.1039 348.7 8.10386ZM266.6 38.6039V8.10386C277.8 18.1039 289.4 25.9039 301.3 31.7039C289.9 36.0039 278.3 38.3039 266.6 38.6039ZM261.6 8.10386V38.6039C250 38.3039 238.4 36.0039 226.9 31.7039C238.8 25.9039 250.4 18.1039 261.6 8.10386ZM179.6 38.6039V8.10386C190.8 18.1039 202.4 25.9039 214.3 31.7039C202.8 36.0039 191.2 38.3039 179.6 38.6039ZM174.6 8.10386V38.6039C163 38.3039 151.4 36.0039 139.9 31.7039C151.8 25.9039 163.4 18.1039 174.6 8.10386ZM127.2 31.7039C115.8 36.0039 104.2 38.3039 92.5 38.6039V8.10386C103.7 18.1039 115.3 25.9039 127.2 31.7039ZM5.4 406.504V8.10386C31.3 31.1039 59.3 42.9039 87.5 43.6039V371.004C59.4 371.604 31.3 383.504 5.4 406.504ZM92.5 406.504V376.004C104.1 376.304 115.7 378.604 127.2 382.904C115.3 388.704 103.7 396.504 92.5 406.504ZM174.6 376.004V406.504C163.4 396.504 151.8 388.704 139.9 382.904C151.3 378.604 162.9 376.304 174.6 376.004ZM179.6 406.504V376.004C191.2 376.304 202.8 378.604 214.3 382.904C202.4 388.704 190.8 396.504 179.6 406.504ZM261.6 376.004V406.504C250.4 396.504 238.8 388.704 226.9 382.904C238.4 378.604 250 376.304 261.6 376.004ZM266.6 406.504V376.004C278.2 376.304 289.8 378.604 301.3 382.904C289.4 388.704 277.8 396.504 266.6 406.504ZM314 382.904C325.4 378.604 337 376.304 348.7 376.004V406.504C337.5 396.504 325.9 388.704 314 382.904ZM435.8 406.504C409.9 383.504 381.9 371.704 353.7 371.004V43.6039C381.8 42.9039 409.9 31.1039 435.8 8.10386V406.504Z" fill="white"/>
</svg>
