<svg width="397" height="352" viewBox="0 0 397 352" fill="none" xmlns="http://www.w3.org/2000/svg">
<path d="M396.8 44C396.8 19.7 377.1 0 352.8 0H44C19.7 0 0 19.7 0 44C0 68.3 19.7 88 44 88C19.7 88 0 107.7 0 132C0 156.3 19.7 176 44 176C19.7 176 0 195.7 0 220C0 244.3 19.7 264 44 264C19.7 264 0 283.7 0 308C0 332.3 19.7 352 44 352H352.7C377 352 396.7 332.3 396.7 308C396.7 283.7 377 264 352.7 264C377 264 396.7 244.3 396.7 220C396.7 195.7 377 176 352.7 176C377 176 396.7 156.3 396.7 132C396.7 107.7 377 88 352.7 88C377.1 88.1 396.8 68.3 396.8 44Z" fill="white"/>
</svg>
