<svg width="256" height="426" viewBox="0 0 256 426" fill="none" xmlns="http://www.w3.org/2000/svg">
<path d="M252.7 0H2.5C1.1 0 0 1.1 0 2.5V422.8C0 424.2 1.1 425.3 2.5 425.3H252.8C254.2 425.3 255.3 424.2 255.3 422.8V2.5C255.2 1.1 254.1 0 252.7 0ZM250.2 420.2H5V5H250.3V420.2H250.2Z" fill="white"/>
<path d="M26.7002 385H228.5C229.9 385 231 383.9 231 382.5V43.6C231 42.2 229.9 41.1 228.5 41.1H26.7002C25.3002 41.1 24.2002 42.2 24.2002 43.6V382.5C24.2002 383.9 25.3002 385 26.7002 385ZM29.2002 46.1H226V380H29.2002V46.1Z" fill="white"/>
<path d="M204.3 82.2H50.8999C49.4999 82.2 48.3999 83.3 48.3999 84.7V342.2C48.3999 343.6 49.4999 344.7 50.8999 344.7H204.3C205.7 344.7 206.8 343.6 206.8 342.2V84.7C206.8 83.3 205.7 82.2 204.3 82.2ZM201.8 339.7H53.3999V87.2H201.8V339.7Z" fill="white"/>
<path d="M75.2002 304.5H180.1C181.5 304.5 182.6 303.4 182.6 302V125.8C182.6 124.4 181.5 123.3 180.1 123.3H75.2002C73.8002 123.3 72.7002 124.4 72.7002 125.8V301.9C72.7002 303.4 73.8002 304.5 75.2002 304.5ZM77.7002 128.3H177.6V299.4H77.7002V128.3Z" fill="white"/>
<path d="M155.8 164.5H99.3999C97.9999 164.5 96.8999 165.6 96.8999 167V261.8C96.8999 263.2 97.9999 264.3 99.3999 264.3H155.8C157.2 264.3 158.3 263.2 158.3 261.8V167C158.3 165.6 157.2 164.5 155.8 164.5ZM153.3 259.2H101.9V169.4H153.3V259.2Z" fill="white"/>
</svg>
