<svg width="465" height="338" viewBox="0 0 465 338" fill="none" xmlns="http://www.w3.org/2000/svg">
<path d="M463.25 54.1C464.25 53.1 464.25 51.5 463.25 50.6C430.65 18 387.25 0 341.15 0C328.65 0 316.45 1.3 304.55 3.9C280.65 -1.2 255.85 -1.2 232.05 4C208.05 -1.1 183.25 -1.1 159.25 4C103.85 -7.9 43.65 7.7 0.75 50.7C-0.25 51.7 -0.25 53.3 0.75 54.2C64.05 117.5 64.05 220.4 0.75 283.7C-0.25 284.7 -0.25 286.3 0.75 287.2C33.35 319.8 76.75 337.8 122.85 337.8C135.25 337.8 147.45 336.5 159.25 334C171.05 336.5 183.25 337.8 195.65 337.8C208.05 337.8 220.25 336.5 232.05 334C243.85 336.5 256.05 337.8 268.45 337.8C280.85 337.8 293.05 336.5 304.85 334C316.65 336.5 328.85 337.8 341.25 337.8C387.35 337.8 430.75 319.8 463.35 287.2C464.35 286.2 464.35 284.6 463.35 283.7C399.95 220.4 399.95 117.4 463.25 54.1ZM292.75 6.9C284.35 9.3 276.15 12.4 268.25 16.1C260.25 12.4 252.05 9.4 243.75 7C259.95 4.5 276.45 4.5 292.75 6.9ZM265.85 183C263.25 213.6 251.95 243.7 231.95 269C212.05 243.6 200.75 213.6 198.05 183C198.85 173.6 198.85 164.2 198.05 154.8C200.65 124.2 211.95 94.1 231.95 68.8C251.85 94.2 263.15 124.2 265.85 154.8C265.05 164.2 265.05 173.6 265.85 183ZM235.15 64.8C238.25 61.1 241.45 57.6 244.85 54.2C245.85 53.2 245.85 51.6 244.85 50.7C241.95 47.8 238.85 44.9 235.75 42.3C245.85 34.2 256.65 27.3 268.15 21.7C284.05 29.3 298.95 39.6 312.25 52.5C288.85 76.6 274.25 106 268.25 136.8C263.35 111 252.25 86.3 235.15 64.8ZM231.95 60.9C229.55 58 226.95 55.2 224.25 52.4C226.75 50 229.25 47.7 231.85 45.4C234.45 47.6 237.05 50 239.55 52.4C236.95 55.2 234.35 58 231.95 60.9ZM231.95 38.9C222.35 31.1 212.15 24.4 201.45 19C211.35 14.7 221.55 11.4 231.95 9.1C242.35 11.4 252.55 14.7 262.35 18.9C251.65 24.4 241.45 31.1 231.95 38.9ZM228.05 42.2C224.95 44.9 221.95 47.7 218.95 50.6C217.95 51.6 217.95 53.2 218.95 54.1C222.35 57.5 225.65 61.1 228.65 64.7C211.55 86.2 200.45 110.9 195.45 136.6C189.45 105.8 174.75 76.4 151.45 52.3C164.75 39.4 179.65 29.1 195.45 21.5C206.95 27.1 217.85 34 228.05 42.2ZM146.25 50.6C145.25 51.6 145.25 53.2 146.25 54.1C174.35 82.2 189.95 118 193.05 154.8C192.25 164.2 192.25 173.6 193.05 183C189.85 219.7 174.25 255.6 146.25 283.7C145.25 284.7 145.25 286.3 146.25 287.2C159.15 300.1 173.85 310.8 189.65 318.9C179.75 323.2 169.55 326.5 159.25 328.7C129.85 322.2 101.85 307.8 78.85 285.4C141.75 220.6 141.75 117.2 78.85 52.4C101.95 30 129.85 15.6 159.25 9.1C169.65 11.4 179.85 14.7 189.75 19C174.05 27 159.35 37.5 146.25 50.6ZM151.55 285.4C174.95 261.3 189.55 231.9 195.55 201.1C200.55 226.8 211.65 251.5 228.75 273C225.65 276.7 222.45 280.2 219.05 283.6C218.05 284.6 218.05 286.2 219.05 287.1C221.95 290 225.05 292.8 228.15 295.5C217.95 303.7 207.05 310.6 195.65 316C179.65 308.5 164.75 298.3 151.55 285.4ZM231.95 276.9C234.35 279.8 236.95 282.6 239.65 285.4C237.15 287.8 234.55 290.1 231.95 292.4C229.35 290.2 226.75 287.8 224.35 285.4C226.95 282.6 229.55 279.8 231.95 276.9ZM231.95 298.9C241.45 306.7 251.65 313.3 262.35 318.9C252.45 323.2 242.25 326.5 231.95 328.7C221.55 326.4 211.35 323.1 201.55 318.9C212.25 313.4 222.45 306.7 231.95 298.9ZM235.85 295.6C238.95 292.9 241.95 290.1 244.95 287.2C245.95 286.2 245.95 284.6 244.95 283.7C241.55 280.3 238.25 276.7 235.25 273.1C252.35 251.6 263.45 226.9 268.45 201.2C274.45 232 289.15 261.4 312.45 285.5C299.15 298.4 284.25 308.7 268.35 316.3C256.75 310.7 245.95 303.8 235.85 295.6ZM317.65 287.2C318.65 286.2 318.65 284.6 317.65 283.7C289.55 255.6 273.95 219.8 270.85 183C271.65 173.6 271.65 164.2 270.85 154.8C274.05 118.1 289.65 82.2 317.65 54.1C318.65 53.1 318.65 51.5 317.65 50.6C304.55 37.5 289.75 26.9 274.05 18.9C283.85 14.6 293.95 11.3 304.45 9C333.95 15.5 362.05 29.9 385.15 52.4C322.25 117.2 322.25 220.6 385.15 285.4C362.05 307.9 333.95 322.3 304.45 328.8C294.05 326.5 283.85 323.2 274.15 319C290.05 310.8 304.75 300.2 317.65 287.2ZM220.15 6.9C211.75 9.3 203.55 12.4 195.55 16.1C187.55 12.4 179.35 9.3 170.95 6.9C187.25 4.5 203.85 4.5 220.15 6.9ZM5.95 285.4C68.85 220.6 68.85 117.2 5.95 52.4C44.75 14.7 97.45 -0.399999 147.35 6.9C120.25 14.7 94.75 29.3 73.35 50.6C72.35 51.6 72.35 53.2 73.35 54.1C136.65 117.4 136.65 220.3 73.35 283.6C72.35 284.6 72.35 286.2 73.35 287.1C94.25 308 119.45 322.8 147.05 330.8C97.25 338.2 44.65 323 5.95 285.4ZM171.15 330.9C179.55 328.5 187.65 325.4 195.55 321.8C203.45 325.5 211.55 328.5 219.95 330.9C203.75 333.3 187.35 333.3 171.15 330.9ZM243.95 330.9C252.35 328.5 260.45 325.4 268.35 321.8C276.25 325.5 284.35 328.5 292.75 330.9C276.55 333.3 260.15 333.3 243.95 330.9ZM341.15 332.8C332.85 332.8 324.65 332.2 316.55 331C344.25 323 369.55 308.1 390.55 287.2C391.55 286.2 391.55 284.6 390.55 283.7C327.25 220.4 327.25 117.5 390.55 54.2C391.55 53.2 391.55 51.6 390.55 50.7C369.15 29.3 343.55 14.7 316.35 6.9C324.55 5.7 332.85 5.1 341.25 5.1C385.25 5.1 426.65 21.9 458.05 52.5C395.15 117.3 395.15 220.7 458.05 285.5C426.45 316 385.05 332.8 341.15 332.8Z" fill="white"/>
</svg>
