<svg width="353" height="353" viewBox="0 0 353 353" fill="none" xmlns="http://www.w3.org/2000/svg">
<path d="M352.802 350.201C352.102 280.701 312.702 220.501 255.302 190.001C244.502 184.201 244.502 168.701 255.302 162.901C312.602 132.301 351.902 72.2008 352.602 2.70076V0.200761H350.102C280.602 0.900761 220.502 40.2008 189.902 97.5008C184.102 108.301 168.602 108.401 162.902 97.5008C131.902 39.3008 70.6017 -0.199244 0.101687 0.000756003C-0.0983129 70.5008 39.4017 131.901 97.7017 162.801C108.502 168.601 108.502 184.101 97.7017 189.901C39.4017 220.801 -0.298311 282.301 0.00168863 352.801C70.5017 353.001 132.002 313.401 162.902 255.101C168.702 244.201 184.202 244.301 190.002 255.101C220.502 312.601 280.702 351.901 350.302 352.701H352.802V350.201Z" fill="white"/>
</svg>
