<svg width="399" height="398" viewBox="0 0 399 398" fill="none" xmlns="http://www.w3.org/2000/svg">
<path d="M344 258C331 259 320 257 307 256C306 256 304 254 303 254C292 252 282 247 272 242C326 233 373 196 397 148C388 129 381 108 371 89C357 130 325 167 281 178C286 172 290 165 294 158C295 154 297 151 299 147C315 108 316 63 303 23C298 23 294 20 290 18C274 12 258 7 243 0C246 7 250 14 252 22C253 26 254 29 255 33C261 56 260 79 254 101C253 104 252 107 251 110C248 116 246 122 242 127C235 73 196 26 148 2C129 11 108 18 89 28C130 42 169 74 178 118C160 101 136 94 111 90C91 86 72 85 51 89C42 91 33 93 24 96C16 116 8 136 0 156C39 137 89 132 127 157C89 161 56 182 30 210C27 214 25 217 21 221C13 230 8 241 2 251C10 265 14 280 21 295C24 300 26 305 28 310C42 268 74 231 118 220C113 228 108 237 103 246C102 250 100 253 98 257C83 295 84 337 97 375C117 382 136 393 157 398C137 360 134 310 157 272C158 282 162 291 164 301C165 305 167 308 169 312C186 348 215 378 251 396C262 393 270 387 281 383C291 380 300 375 310 371C269 356 231 325 221 281C265 312 325 320 376 302C383 282 392 262 399 242C382 251 363 255 344 258Z" fill="white"/>
</svg>
