<svg width="318" height="356" viewBox="0 0 318 356" fill="none" xmlns="http://www.w3.org/2000/svg">
<path d="M158.6 0C71.1 0 0 71.2 0 158.6V352.7C0 354.1 1.1 355.2 2.5 355.2H49.8H94.6H135.6H181.7H222.7H267.6H314.9C316.3 355.2 317.4 354.1 317.4 352.7V158.6C317.2 71.1 246.1 0 158.6 0ZM138 350.2V158.3C138 147 147.2 137.7 158.6 137.7C169.9 137.7 179.2 146.9 179.2 158.3V350.2H138ZM184.2 350.2V158.3C184.2 144.2 172.7 132.7 158.6 132.7C144.5 132.7 133 144.2 133 158.3V350.2H97V158.8C97 124.9 124.6 97.3 158.5 97.3C192.4 97.3 220 124.9 220 158.8V350.2H184.2ZM225.1 350.2V158.8C225.1 122.1 195.3 92.3 158.6 92.3C121.9 92.3 92.1 122.1 92.1 158.8V350.2H52.2V159.9C52.2 101.2 99.9 53.5 158.6 53.5C217.3 53.5 265 101.2 265 159.9V350.2H225.1ZM312.2 350.2H269.9V159.9C269.9 98.5 219.9 48.5 158.5 48.5C97.1 48.5 47.1 98.5 47.1 159.9V350.2H5V158.6C5 73.9 73.9 5 158.6 5C243.3 5 312.2 73.9 312.2 158.6V350.2Z" fill="white"/>
</svg>
