<svg width="480" height="277" viewBox="0 0 480 277" fill="none" xmlns="http://www.w3.org/2000/svg">
<path d="M479.1 80.2L399.6 0.699997C399.1 0.199997 398.5 0 397.8 0H296.1H285.4H194.3H183.6H81.9C81.2 0 80.6 0.299997 80.1 0.699997L0.7 80.2C0.2 80.7 0 81.3 0 82V194.4C0 195.1 0.3 195.7 0.7 196.2L80.2 275.7C80.7 276.2 81.3 276.4 82 276.4H183.7H194.4H285.5H296.2H397.9C398.6 276.4 399.2 276.1 399.7 275.7L479.2 196.2C479.7 195.7 479.9 195.1 479.9 194.4V82C479.8 81.3 479.6 80.7 479.1 80.2ZM279.4 5L239.9 44.5L200.4 5H279.4ZM5 193.4V83L83 5H177.7L102.4 80.2C101.9 80.7 101.7 81.3 101.7 82V194.4C101.7 195.1 102 195.7 102.4 196.2L177.6 271.4H83L5 193.4ZM184.7 271.4L106.7 193.4V83L184.7 5H193.3L236.3 48L204.2 80.2C203.7 80.7 203.5 81.3 203.5 82V194.4C203.5 195.1 203.8 195.7 204.2 196.2L236.4 228.4L193.4 271.4H184.7ZM239.9 51.6L271.4 83.1V193.5L239.9 224.8L208.4 193.3V83L239.9 51.6ZM239.9 231.9L279.4 271.4H200.4L239.9 231.9ZM286.5 271.4L243.5 228.4L275.7 196.2C276.2 195.7 276.4 195.1 276.4 194.4V82C276.4 81.3 276.1 80.7 275.7 80.2L243.5 48L286.5 5H295.1L373.1 83V193.4L295.1 271.4H286.5ZM474.8 193.4L396.8 271.4H302.1L377.3 196.2C377.8 195.7 378 195.1 378 194.4V82C378 81.3 377.7 80.7 377.3 80.2L302.1 5H396.8L474.8 83V193.4Z" fill="white"/>
</svg>
