<svg width="403" height="403" viewBox="0 0 403 403" fill="none" xmlns="http://www.w3.org/2000/svg">
<path d="M402.8 169.2H363.3L399.8 154.1L375.2 94.6L338.6 109.7L366.6 81.7L321.1 36.2L293.1 64.2L308.2 27.6L248.7 3L233.6 39.5V0H169.2V39.5L154.1 3L94.6 27.6L109.7 64.2L81.7 36.2L36.2 81.7L64.2 109.7L27.6 94.6L3 154.1L39.5 169.2H0V233.6H39.5L3 248.7L27.6 308.2L64.2 293.1L36.2 321.1L81.7 366.6L109.7 338.6L94.6 375.2L154.1 399.8L169.2 363.3V402.8H233.6V363.3L248.7 399.8L308.2 375.2L293.1 338.6L321.1 366.6L366.6 321.1L338.6 293.1L375.2 308.2L399.8 248.7L363.3 233.6H402.8V169.2Z" fill="white"/>
</svg>
