<svg width="452" height="452" viewBox="0 0 452 452" fill="none" xmlns="http://www.w3.org/2000/svg">
<path d="M232.8 104.5C256.6 98.6 278 86.7 294.6 67.7C302.9 58.2 306.5 46.3 311.2 35.6C314.8 23.7 316 11.8 316 0C321.9 7.1 325.5 15.4 330.3 22.6C332.7 27.4 335.1 33.3 338.6 38C339.8 40.4 339.8 43.9 341 46.3C367.1 104.5 367.1 173.5 346.9 232.9C351.7 250.7 358.8 268.5 370.7 282.7C380.2 293.4 390.9 300.5 402.8 306.5C405.2 307.7 408.7 308.9 411.1 310.1C424.2 314.9 437.2 317.2 451.5 317.2C383.8 363.5 294.6 375.4 217.4 346.9C209.1 351.7 199.6 351.7 191.3 357.6C190.1 358.8 187.7 357.6 186.5 358.8C178.2 363.6 172.2 368.3 165.1 374.2C163.9 376.6 161.5 377.8 159.2 380.1C142.6 400.3 135.4 425.3 134.2 451.4C87.9 383.7 77.2 295.7 103.3 218.5C99.7 203.1 95 188.8 85.5 175.7C73.6 159.1 58.2 148.4 39.2 141.2C26.1 136.4 13.1 135.3 0 134.1C4.8 130.5 9.5 127 14.3 124.6C20.2 122.2 25 119.8 29.7 116.3C54.7 104.4 80.8 94.9 109.3 91.3C150.8 86.7 193.6 89 232.8 104.5Z" fill="white"/>
</svg>
