<svg width="316" height="417" viewBox="0 0 316 417" fill="none" xmlns="http://www.w3.org/2000/svg">
<path d="M158 0C70.7 0 0 93.2 0 208.2C0 323.2 70.7 416.4 158 416.4C245.3 416.4 316 323.2 316 208.2C316 93.2 245.3 0 158 0ZM265.8 226.3C262.4 226.3 247.9 225.4 230.2 223.7C197.7 220.7 170.5 247.9 173.5 280.4C175.1 298.1 176.1 312.6 176.1 316C176.1 326 168 334.1 158 334.1C148 334.1 139.9 326 139.9 316C139.9 312.6 140.8 298.1 142.5 280.4C145.5 247.9 118.3 220.7 85.8 223.7C68.1 225.3 53.6 226.3 50.2 226.3C40.2 226.3 32.1 218.2 32.1 208.2C32.1 198.2 40.2 190.1 50.2 190.1C53.6 190.1 68.1 191 85.8 192.7C118.3 195.7 145.5 168.5 142.5 136C140.9 118.3 139.9 103.8 139.9 100.4C139.9 90.4 148 82.3 158 82.3C168 82.3 176.1 90.4 176.1 100.4C176.1 103.8 175.2 118.3 173.5 136C170.5 168.5 197.7 195.7 230.2 192.7C247.9 191.1 262.4 190.1 265.8 190.1C275.8 190.1 283.9 198.2 283.9 208.2C283.9 218.2 275.8 226.3 265.8 226.3Z" fill="white"/>
</svg>
