<svg width="287" height="430" viewBox="0 0 287 430" fill="none" xmlns="http://www.w3.org/2000/svg">
<path d="M143.3 286.7C90.3 286.7 43.9 257.9 19.2 215C7 236.1 0 260.6 0 286.7C0 365.8 64.2 430 143.3 430C222.4 430 286.6 365.8 286.6 286.7C286.6 260.6 279.6 236.1 267.4 215C242.7 257.8 196.3 286.7 143.3 286.7Z" fill="white"/>
<path d="M143.3 143.3C196.3 143.3 242.7 172.1 267.4 215C279.6 193.9 286.6 169.4 286.6 143.3C286.6 64.2 222.4 0 143.3 0C64.2 0 0 64.2 0 143.3C0 169.4 7 193.9 19.2 215C43.9 172.2 90.3 143.3 143.3 143.3Z" fill="white"/>
</svg>
