<svg width="434" height="358" viewBox="0 0 434 358" fill="none" xmlns="http://www.w3.org/2000/svg">
<path d="M431.5 0H356.4H345.3H281.3H270.2H206.2H195.1H120C53.8 0 0 53.8 0 120V354.8C0 356.2 1.1 357.3 2.5 357.3H77.6H88.7H152.7H163.8H227.8H238.9H314C380.2 357.3 434 303.5 434 237.3V2.5C434 1.1 432.9 0 431.5 0ZM310.9 5C301.3 7.9 292.1 11.9 283.7 17V5H310.9ZM235.8 5C226.2 7.9 217 11.9 208.6 17V5H235.8ZM4.8 120C4.8 56.6 56.4 5 119.8 5H160.6C111.1 19.8 74.9 65.8 74.9 120V352.3H4.8V120ZM79.9 352.2V120C79.9 56.6 131.5 5 194.9 5H203.5V20.2C171.3 41.7 150 78.5 150 120.1V334.5C132.2 345.8 111.1 352.4 88.5 352.4H79.9V352.2ZM203.6 26.2V237.2C203.6 275.9 184.4 310.1 155.1 331V120C155.1 81.3 174.3 47 203.6 26.2ZM150.1 340.2V352.2H122.9C132.5 349.4 141.6 345.3 150.1 340.2ZM155.1 352.2V337C187.3 315.5 208.6 278.7 208.6 237.1V22.8C226.4 11.5 247.5 4.9 270.1 4.9H278.7V20.1C246.5 41.6 225.2 78.4 225.2 120V334.4C207.4 345.7 186.3 352.3 163.7 352.3H155.1V352.2ZM278.7 26.2V237.2C278.7 275.9 259.5 310.1 230.2 331V120C230.2 81.3 249.4 47 278.7 26.2ZM225.2 340.2V352.2H198C207.6 349.4 216.8 345.3 225.2 340.2ZM230.2 352.2V337C262.4 315.5 283.7 278.7 283.7 237.1V22.8C301.5 11.5 322.6 4.9 345.2 4.9H353.8V237.2C353.8 300.6 302.2 352.2 238.8 352.2H230.2ZM429 237.2C429 300.6 377.4 352.2 314 352.2H273.2C322.7 337.4 358.9 291.4 358.9 237.2V5H429V237.2Z" fill="white"/>
</svg>
