<svg width="407" height="407" viewBox="0 0 407 407" fill="none" xmlns="http://www.w3.org/2000/svg">
<path d="M203.1 0C91.1 0 0 91.1 0 203.1C0 315.1 91.1 406.2 203.1 406.2C315.1 406.2 406.2 315.1 406.2 203.1C406.2 91.1 315.1 0 203.1 0ZM203.1 401.2C93.9 401.2 5 312.3 5 203.1C5 93.9 93.9 5 203.1 5C312.3 5 401.2 93.9 401.2 203.1C401.2 312.3 312.3 401.2 203.1 401.2Z" fill="white"/>
<path d="M203.1 38.7C112.4 38.7 38.7 112.5 38.7 203.1C38.7 293.7 112.4 367.5 203.1 367.5C293.8 367.5 367.5 293.8 367.5 203.1C367.5 112.4 293.8 38.7 203.1 38.7ZM203.1 362.5C115.2 362.5 43.7 291 43.7 203.1C43.7 115.2 115.2 43.7 203.1 43.7C291 43.7 362.5 115.2 362.5 203.1C362.5 291 291 362.5 203.1 362.5Z" fill="white"/>
<path d="M203.1 77.3C133.7 77.3 77.3 133.7 77.3 203.1C77.3 272.5 133.7 328.9 203.1 328.9C272.5 328.9 328.9 272.5 328.9 203.1C328.9 133.7 272.5 77.3 203.1 77.3ZM203.1 323.9C136.5 323.9 82.3 269.7 82.3 203.1C82.3 136.5 136.5 82.3 203.1 82.3C269.7 82.3 323.9 136.5 323.9 203.1C323.9 269.7 269.7 323.9 203.1 323.9Z" fill="white"/>
<path d="M203.1 115.9C155 115.9 115.9 155 115.9 203.1C115.9 251.2 155 290.3 203.1 290.3C251.2 290.3 290.3 251.2 290.3 203.1C290.3 155 251.2 115.9 203.1 115.9ZM203.1 285.3C157.8 285.3 120.9 248.4 120.9 203.1C120.9 157.8 157.8 120.9 203.1 120.9C248.4 120.9 285.3 157.8 285.3 203.1C285.3 248.4 248.4 285.3 203.1 285.3Z" fill="white"/>
<path d="M203.1 154.6C176.4 154.6 154.6 176.4 154.6 203.1C154.6 229.8 176.4 251.6 203.1 251.6C229.8 251.6 251.6 229.8 251.6 203.1C251.6 176.4 229.8 154.6 203.1 154.6ZM203.1 246.6C179.1 246.6 159.6 227.1 159.6 203.1C159.6 179.1 179.1 159.6 203.1 159.6C227.1 159.6 246.6 179.1 246.6 203.1C246.6 227.1 227.1 246.6 203.1 246.6Z" fill="white"/>
</svg>
