<svg width="421" height="394" viewBox="0 0 421 394" fill="none" xmlns="http://www.w3.org/2000/svg">
<path d="M347.3 0C330.1 0 314.3 5.9 301.7 15.9C289.1 6 273.3 0 256.1 0C238.9 0 223.1 5.9 210.5 15.9C197.9 6 182.1 0 164.9 0C147.7 0 131.9 5.9 119.3 15.9C106.7 6 90.9 0 73.7 0C33.1 0 0 33.1 0 73.7V319.6C0 360.2 33.1 393.3 73.7 393.3C90.9 393.3 106.7 387.4 119.3 377.4C131.9 387.3 147.7 393.3 164.9 393.3C182.1 393.3 197.9 387.4 210.5 377.4C223.1 387.3 238.9 393.3 256.1 393.3C273.3 393.3 289.1 387.4 301.7 377.4C314.3 387.3 330.1 393.3 347.3 393.3C387.9 393.3 421 360.2 421 319.6V73.8C421 33.1 387.9 0 347.3 0ZM73.7 388.4C35.8 388.4 5 357.6 5 319.7V73.8C5 35.9 35.8 5.1 73.7 5.1C89.4 5.1 103.8 10.4 115.4 19.2C100.5 32.7 91.2 52.2 91.2 73.8V319.7C91.2 341.3 100.6 360.8 115.4 374.3C103.8 383.1 89.4 388.4 73.7 388.4ZM142.5 73.8V319.7C142.5 340.1 133.5 358.5 119.4 371.1C105.2 358.5 96.3 340.2 96.3 319.7V73.8C96.3 53.4 105.3 35 119.4 22.4C133.5 35 142.5 53.3 142.5 73.8ZM164.9 388.4C149.2 388.4 134.8 383.1 123.2 374.3C138.1 360.8 147.4 341.3 147.4 319.7V73.8C147.4 52.2 138 32.7 123.2 19.2C134.8 10.3 149.2 5.1 164.9 5.1C180.6 5.1 195 10.4 206.6 19.2C191.7 32.7 182.4 52.2 182.4 73.8V319.7C182.4 341.3 191.8 360.8 206.6 374.3C195 383.1 180.6 388.4 164.9 388.4ZM233.6 73.8V319.7C233.6 340.1 224.6 358.5 210.5 371.1C196.3 358.5 187.4 340.2 187.4 319.7V73.8C187.4 53.4 196.4 35 210.5 22.4C224.7 35 233.6 53.3 233.6 73.8ZM256.1 388.4C240.4 388.4 226 383.1 214.4 374.3C229.3 360.8 238.6 341.3 238.6 319.7V73.8C238.6 52.2 229.2 32.7 214.4 19.2C226 10.3 240.4 5.1 256.1 5.1C271.8 5.1 286.2 10.4 297.8 19.2C282.9 32.7 273.6 52.2 273.6 73.8V319.7C273.6 341.3 283 360.8 297.8 374.3C286.2 383.1 271.7 388.4 256.1 388.4ZM324.8 73.8V319.7C324.8 340.1 315.8 358.5 301.7 371.1C287.5 358.4 278.5 340.1 278.5 319.6V73.8C278.5 53.4 287.5 35 301.6 22.4C315.8 35 324.8 53.3 324.8 73.8ZM416 319.6C416 357.5 385.2 388.3 347.3 388.3C331.6 388.3 317.2 383 305.6 374.2C320.5 360.7 329.8 341.2 329.8 319.6V73.8C329.8 52.2 320.4 32.7 305.6 19.2C317.2 10.3 331.6 5.1 347.3 5.1C385.2 5.1 416 35.9 416 73.8V319.6Z" fill="white"/>
</svg>
