<svg width="379" height="377" viewBox="0 0 379 377" fill="none" xmlns="http://www.w3.org/2000/svg">
<path d="M343.97 235.202C322.97 238.202 302.97 240.202 281.97 236.202C251.97 230.202 227.97 215.202 205.97 196.202C235.97 198.202 261.97 180.202 280.97 158.202C303.97 129.202 316.97 92.2019 307.97 55.2019C299.97 28.2019 278.97 -2.79808 247.97 0.201919C234.97 1.20192 231.97 16.2019 233.97 28.2019C237.97 52.2019 239.97 73.2019 235.97 97.2019C229.97 126.202 214.97 149.202 196.97 171.202C196.97 147.202 185.97 125.202 169.97 108.202C167.97 107.202 166.97 105.202 164.97 103.202C130.97 73.2019 79.9699 55.2019 37.9699 78.2019C17.9699 90.2019 -5.03011 109.202 0.969893 134.202C3.96989 144.202 15.9699 147.202 25.9699 146.202C49.9699 142.202 72.9699 138.202 96.9699 143.202C122.97 149.202 144.97 159.202 164.97 176.202C165.97 177.202 165.97 178.202 167.97 179.202C103.97 185.202 59.9699 254.202 70.9699 316.202C72.9699 329.202 77.9699 340.202 85.9699 351.202C97.9699 367.202 117.97 383.202 137.97 374.202C138.97 373.202 139.97 372.202 140.97 371.202C143.97 367.202 145.97 362.202 145.97 357.202C143.97 329.202 135.97 300.202 145.97 272.202C145.97 271.202 145.97 269.202 145.97 268.202C152.97 246.202 163.97 226.202 179.97 209.202C179.97 237.202 195.97 262.202 217.97 280.202C222.97 284.202 227.97 288.202 233.97 291.202C256.97 303.202 280.97 312.202 306.97 310.202C330.97 308.202 352.97 297.202 367.97 278.202C374.97 269.202 380.97 258.202 376.97 246.202C371.97 233.202 355.97 232.202 343.97 235.202Z" fill="white"/>
</svg>
