<svg width="468" height="391" viewBox="0 0 468 391" fill="none" xmlns="http://www.w3.org/2000/svg">
<path d="M467.3 194.2L368 1.4C367.6 0.599998 366.7 0 365.8 0C364.9 0 364 0.499998 363.6 1.4L321.8 82.6L280 1.4C279.6 0.599998 278.7 0 277.8 0C276.9 0 276 0.499998 275.6 1.4L233.8 82.6L192 1.4C191.6 0.599998 190.7 0 189.8 0C188.9 0 188 0.499998 187.6 1.4L145.8 82.6L104 1.4C103.6 0.599998 102.7 0 101.8 0C100.9 0 100 0.499998 99.6 1.4L0.3 194.2C-0.1 194.9 -0.1 195.8 0.3 196.5L99.5 389.3C99.9 390.1 100.8 390.7 101.7 390.7C102.6 390.7 103.5 390.2 103.9 389.3L145.7 308.1L187.5 389.3C187.9 390.1 188.8 390.7 189.7 390.7C190.6 390.7 191.5 390.2 191.9 389.3L233.7 308.1L275.5 389.3C275.9 390.1 276.8 390.7 277.7 390.7C278.6 390.7 279.5 390.2 279.9 389.3L321.7 308.1L363.5 389.3C363.9 390.1 364.8 390.7 365.7 390.7C366.6 390.7 367.5 390.2 367.9 389.3L467.1 196.5C467.7 195.7 467.7 194.9 467.3 194.2ZM277.8 8L319 88L277.8 168L236.6 88L277.8 8ZM176.3 196.4L186.9 217.1L145.7 297.1L93.4 195.3L145.8 93.5L187 173.5L176.4 194.2C176 194.9 176 195.7 176.3 196.4ZM181.4 195.3L189.8 178.9L198.2 195.3L189.8 211.7L181.4 195.3ZM203.2 196.4C203.6 195.7 203.6 194.8 203.2 194.1L192.6 173.4L233.8 93.4L275 173.4L264.4 194.1C264 194.8 264 195.7 264.4 196.4L275 217.1L233.8 297.1L192.6 217.1L203.2 196.4ZM269.4 195.3L277.8 178.9L286.2 195.3L277.8 211.7L269.4 195.3ZM291.3 196.4C291.7 195.7 291.7 194.8 291.3 194.1L280.7 173.4L321.9 93.4L374.2 195.3L321.8 297.1L280.6 217.1L291.3 196.4ZM189.8 8L231 88L189.8 168L148.6 88L189.8 8ZM101.8 382.6L5.4 195.3L101.8 8L143 88L88.4 194.1C88 194.8 88 195.7 88.4 196.4L143 302.5L101.8 382.6ZM189.8 382.6L148.6 302.6L189.8 222.6L231 302.6L189.8 382.6ZM277.8 382.6L236.6 302.6L277.8 222.6L319 302.6L277.8 382.6ZM365.8 382.6L324.6 302.6L379.2 196.5C379.6 195.8 379.6 194.9 379.2 194.2L324.6 88.1L365.8 8.1L462.2 195.3L365.8 382.6Z" fill="white"/>
</svg>
