<svg width="449" height="449" viewBox="0 0 449 449" fill="none" xmlns="http://www.w3.org/2000/svg">
<path d="M416.6 192.2C405.2 192.2 323.9 198.1 266.5 207C313.4 172.7 375 119.3 383.1 111.3C395.7 98.7 395.7 78.3 383.1 65.7C370.5 53.1 350.1 53.1 337.5 65.7C329.5 73.7 276.1 135.4 241.8 182.3C250.7 124.9 256.6 43.6 256.6 32.2C256.6 14.4 242.2 0 224.4 0C206.6 0 192.2 14.4 192.2 32.2C192.2 43.6 198.1 124.9 207 182.3C172.7 135.4 119.3 73.8 111.3 65.7C98.7 53.1 78.3 53.1 65.7 65.7C53.1 78.3 53.1 98.7 65.7 111.3C73.7 119.3 135.4 172.7 182.3 207C124.9 198.1 43.6 192.2 32.2 192.2C14.4 192.2 0 206.6 0 224.4C0 242.2 14.4 256.6 32.2 256.6C43.6 256.6 124.9 250.7 182.3 241.8C135.4 276.1 73.8 329.5 65.7 337.5C53.1 350.1 53.1 370.5 65.7 383.1C78.3 395.7 98.7 395.7 111.3 383.1C119.3 375.1 172.7 313.4 207 266.5C198.1 323.9 192.2 405.2 192.2 416.6C192.2 434.4 206.6 448.8 224.4 448.8C242.2 448.8 256.6 434.4 256.6 416.6C256.6 405.2 250.7 323.9 241.8 266.5C276.1 313.4 329.5 375 337.5 383.1C350.1 395.7 370.5 395.7 383.1 383.1C395.7 370.5 395.7 350.1 383.1 337.5C375.1 329.5 313.4 276.1 266.5 241.8C323.9 250.7 405.2 256.6 416.6 256.6C434.4 256.6 448.8 242.2 448.8 224.4C448.8 206.6 434.4 192.2 416.6 192.2Z" fill="white"/>
</svg>
