<svg width="380" height="380" viewBox="0 0 380 380" fill="none" xmlns="http://www.w3.org/2000/svg">
<path d="M344.612 236.706C319.612 239.706 294.612 241.706 269.612 234.706C301.612 232.706 332.612 219.706 355.612 196.706C362.612 188.706 368.612 180.706 372.612 170.706C376.612 158.706 379.612 145.706 379.612 132.706C378.612 116.706 371.612 94.7062 352.612 97.7062C343.612 98.7062 336.612 104.706 331.612 112.706C325.612 122.706 319.612 129.706 312.612 137.706C301.612 148.706 289.612 159.706 274.612 165.706C298.612 141.706 311.612 105.706 310.612 71.7062C309.612 53.7062 301.612 37.7062 290.612 22.7062C279.612 9.70624 262.612 -3.29376 245.612 2.70624C229.612 7.70624 233.612 29.7062 236.612 43.7062C238.612 60.7062 239.612 76.7062 236.612 94.7062C235.612 99.7062 235.612 104.706 232.612 108.706C229.612 66.7062 208.612 23.7062 168.612 7.70624C150.612 -0.293763 129.612 -3.29376 110.612 4.70624C103.612 7.70624 95.6123 11.7062 94.6123 20.7062C92.6123 35.7062 106.612 45.7062 118.612 52.7062C121.612 55.7062 124.612 57.7062 128.612 60.7062C143.612 72.7062 155.612 87.7062 164.612 104.706C142.612 83.7062 113.612 72.7062 83.6123 69.7062C58.6123 67.7062 33.6123 77.7062 15.6123 96.7062C5.61234 107.706 -3.38766 121.706 1.61234 137.706C11.6123 151.706 30.6123 147.706 45.6123 144.706C66.6123 140.706 86.6123 142.706 106.612 147.706C87.6123 148.706 68.6123 155.706 51.6123 164.706C36.6123 173.706 23.6123 182.706 14.6123 197.706C1.61234 218.706 -4.38766 243.706 3.61234 266.706C7.61234 276.706 14.6123 286.706 25.6123 286.706C32.6123 285.706 38.6123 281.706 43.6123 275.706C59.6123 253.706 75.6123 232.706 98.6123 219.706C81.6123 240.706 72.6123 265.706 68.6123 292.706C66.6123 309.706 70.6123 325.706 78.6123 340.706C82.6123 347.706 86.6123 353.706 91.6123 359.706C95.6123 363.706 99.6123 366.706 104.612 370.706C113.612 376.706 123.612 380.706 133.612 377.706C147.612 371.706 146.612 354.706 144.612 341.706C139.612 317.706 140.612 294.706 145.612 271.706C148.612 301.706 159.612 329.706 179.612 351.706C203.612 376.706 244.612 389.706 276.612 369.706C284.612 364.706 285.612 355.706 282.612 347.706C281.612 346.706 280.612 344.706 279.612 342.706C275.612 337.706 271.612 333.706 265.612 330.706L264.612 328.706C245.612 316.706 229.612 300.706 218.612 281.706C239.612 298.706 264.612 308.706 291.612 311.706C325.612 314.706 360.612 297.706 375.612 266.706C379.612 258.706 379.612 248.706 373.612 241.706C365.612 234.706 354.612 234.706 344.612 236.706Z" fill="white"/>
</svg>
