<svg width="374" height="374" viewBox="0 0 374 374" fill="none" xmlns="http://www.w3.org/2000/svg">
<path d="M362.287 246.687C361.987 246.587 361.587 246.487 361.287 246.287C305.587 226.187 305.587 147.087 361.287 126.987C361.587 126.887 361.987 126.787 362.287 126.587C397.587 27.5873 345.787 -24.2126 246.687 11.0874C246.587 11.3874 246.487 11.7874 246.287 12.0874C226.187 67.7874 147.087 67.7874 126.987 12.0874C126.887 11.7874 126.787 11.3874 126.587 11.0874C27.5873 -24.2126 -24.2126 27.5874 11.0874 126.687C11.3874 126.787 11.7874 126.887 12.0874 127.087C67.7874 147.187 67.7874 226.287 12.0874 246.387C11.7874 246.487 11.3874 246.587 11.0874 246.787C-24.2126 345.787 27.5874 397.587 126.687 362.287C126.787 361.987 126.887 361.587 127.087 361.287C147.187 305.587 226.287 305.587 246.387 361.287C246.487 361.587 246.587 361.987 246.787 362.287C345.787 397.587 397.587 345.787 362.287 246.687Z" fill="white"/>
</svg>
