<svg width="422" height="420" viewBox="0 0 422 420" fill="none" xmlns="http://www.w3.org/2000/svg">
<path d="M395.294 274.283C344.294 290.283 283.294 279.283 245.294 240.283C288.294 255.283 334.294 243.283 373.294 217.283C375.294 215.283 376.294 213.283 378.294 212.283C393.294 203.283 404.294 190.283 412.294 175.283C422.294 155.283 428.294 127.283 409.294 111.283C402.294 110.283 395.294 113.283 391.294 119.283C372.294 150.283 351.294 176.283 319.294 192.283C318.294 193.283 316.294 192.283 315.294 193.283C297.294 203.283 276.294 206.283 256.294 207.283C277.294 197.283 293.294 182.283 306.294 163.283C329.294 126.283 341.294 84.2826 329.294 42.2826C323.294 22.2826 308.294 2.28256 286.294 0.282558C277.294 -0.717442 272.294 9.28256 274.294 18.2826C281.294 48.2826 285.294 75.2825 279.294 105.283C273.294 132.283 261.294 157.283 241.294 175.283C247.294 158.283 248.294 140.283 247.294 122.283C247.294 118.283 245.294 114.283 244.294 109.283C233.294 58.2825 199.294 2.28256 143.294 0.282558C132.294 -0.717442 116.294 0.282557 112.294 14.2826C111.294 20.2826 115.294 25.2826 120.294 29.2826C145.294 45.2826 166.294 60.2826 183.294 84.2826C200.294 109.283 208.294 135.283 208.294 164.283C197.294 142.283 181.294 125.283 160.294 112.283C140.294 100.283 120.294 92.2825 98.2937 90.2825C79.2937 87.2825 61.2937 85.2825 43.2937 91.2825C23.2937 99.2825 -0.706281 114.283 1.29372 139.283C9.29372 151.283 25.2937 145.283 37.2937 142.283C43.2937 141.283 49.2937 140.283 55.2937 139.283C76.2937 136.283 97.2937 138.283 118.294 144.283C140.294 151.283 160.294 163.283 177.294 179.283C116.294 159.283 48.2937 186.283 12.2937 240.283C-1.70628 260.283 -6.70628 291.283 13.2937 308.283C26.2937 309.283 33.2937 296.283 39.2937 286.283C55.2937 261.283 76.2937 241.283 102.294 227.283C103.294 226.283 105.294 227.283 106.294 226.283C116.294 221.283 125.294 218.283 136.294 215.283C137.294 215.283 139.294 215.283 140.294 215.283C148.294 212.283 157.294 212.283 165.294 212.283C143.294 223.283 126.294 239.283 113.294 260.283C92.2937 297.283 80.2937 341.283 95.2937 382.283C101.294 401.283 120.294 425.283 142.294 417.283C149.294 414.283 148.294 404.283 146.294 397.283C142.294 379.283 139.294 362.283 140.294 345.283C140.294 337.283 140.294 330.283 141.294 322.283C143.294 311.283 146.294 302.283 149.294 291.283C150.294 288.283 152.294 286.283 153.294 284.283C154.294 283.283 153.294 281.283 154.294 280.283C162.294 267.283 169.294 254.283 180.294 244.283C161.294 305.283 187.294 373.283 241.294 409.283C254.294 417.283 268.294 421.283 283.294 419.283C293.294 418.283 306.294 418.283 308.294 407.283C312.294 392.283 295.294 386.283 284.294 379.283C262.294 364.283 245.294 347.283 232.294 325.283C227.294 315.283 223.294 306.283 219.294 296.283C215.294 283.283 214.294 269.283 213.294 255.283C217.294 263.283 222.294 271.283 229.294 278.283C230.294 279.283 230.294 281.283 231.294 282.283C265.294 319.283 314.294 335.283 363.294 331.283C383.294 329.283 400.294 320.283 413.294 304.283C418.294 296.283 425.294 287.283 419.294 278.283C418.294 277.283 417.294 276.283 416.294 275.283C409.294 271.283 402.294 273.283 395.294 274.283Z" fill="white"/>
</svg>
