<svg width="461" height="233" viewBox="0 0 461 233" fill="none" xmlns="http://www.w3.org/2000/svg">
<path d="M411.9 33.8C380.8 12 339.4 0 295.5 0C272.7 0 250.7 3.19999 230.3 9.39999C210 3.29999 187.9 0 165.1 0C121.2 0 79.8 12 48.7 33.8C17.3 55.8 0 85.1 0 116.4C0 147.7 17.3 177 48.7 199C79.8 220.8 121.2 232.8 165.1 232.8C187.9 232.8 209.9 229.6 230.3 223.4C250.6 229.5 272.7 232.8 295.5 232.8C339.4 232.8 380.8 220.8 411.9 199C443.3 177 460.6 147.7 460.6 116.4C460.6 85.1 443.2 55.8 411.9 33.8ZM165.1 227.8C76.8 227.8 5 177.8 5 116.4C5 55 76.8 5 165.1 5C185 5 204.1 7.5 221.6 12.2C206 17.7 191.7 24.9 179 33.8C147.6 55.8 130.3 85.1 130.3 116.4C130.3 147.7 147.6 177 179 199C191.7 207.9 206.1 215.1 221.6 220.6C204.1 225.2 185 227.8 165.1 227.8ZM230.3 14.7C286.2 32.1 325.2 71.1 325.2 116.4C325.2 161.7 286.2 200.7 230.3 218.1C174.4 200.7 135.4 161.7 135.4 116.4C135.4 71.1 174.4 32.1 230.3 14.7ZM295.5 227.8C275.6 227.8 256.6 225.3 239 220.6C254.6 215.1 268.9 207.9 281.6 199C313 177 330.3 147.7 330.3 116.4C330.3 85.1 313 55.8 281.6 33.8C268.9 24.9 254.5 17.7 239 12.2C256.6 7.6 275.6 5 295.5 5C383.8 5 455.6 55 455.6 116.4C455.6 177.8 383.7 227.8 295.5 227.8Z" fill="white"/>
</svg>
