<svg width="437" height="436" viewBox="0 0 437 436" fill="none" xmlns="http://www.w3.org/2000/svg">
<path d="M218.3 173.3L245.7 0L229.2 174.7L298.8 13.6L239.4 178.7L346.9 40.1L248.2 185.1L386.9 77.6L255.2 193.6L416.2 123.9L259.9 203.5L433.2 176L262 214.3L436.6 230.8L261.3 225.2L426.3 284.6L257.9 235.7L403 334.3L252 244.9L368 376.5L244 252.4L323.7 408.7L234.4 257.7L272.7 428.9L223.8 260.4L218.3 435.8L212.8 260.4L163.9 428.9L202.2 257.7L112.9 408.7L192.6 252.4L68.6 376.5L184.6 244.9L33.6 334.3L178.7 235.7L10.3 284.6L175.3 225.2L0 230.8L174.6 214.3L3.4 176L176.7 203.5L20.4 123.9L181.4 193.6L49.7 77.6L188.4 185.1L89.7 40.1L197.2 178.7L137.8 13.6L207.4 174.7L190.9 0L218.3 173.3Z" fill="white"/>
</svg>
