<svg width="476" height="225" viewBox="0 0 476 225" fill="none" xmlns="http://www.w3.org/2000/svg">
<path d="M363.1 0H316.1C306.6 0 297.4 1.20001 288.6 3.40001C279.8 1.20001 270.6 0 261.1 0H214.1C204.6 0 195.4 1.20001 186.6 3.40001C177.8 1.20001 168.6 0 159.1 0H112.1C50.3 0 0 50.3 0 112.1C0 173.9 50.3 224.2 112.1 224.2H159.1C168.6 224.2 177.8 223 186.6 220.8C195.4 223 204.6 224.2 214.1 224.2H261.1C270.6 224.2 279.8 223 288.6 220.8C297.4 223 306.6 224.2 316.1 224.2H363.1C424.9 224.2 475.2 173.9 475.2 112.1C475.2 50.3 424.9 0 363.1 0ZM214.3 5H261.3C267.3 5 273.1 5.50001 278.8 6.40001C263.3 11.9 249.4 20.7 237.8 32C226.3 20.7 212.3 11.9 196.8 6.40001C202.5 5.50001 208.4 5 214.3 5ZM209.1 112.1C209.1 84 220 58.4 237.8 39.3C255.6 58.4 266.5 84 266.5 112.1C266.5 140.2 255.6 165.8 237.8 184.9C220 165.8 209.1 140.2 209.1 112.1ZM234.3 188.5C221.3 201.3 205 210.7 186.9 215.6C141.1 203.4 107.3 161.7 107.3 112.1C107.3 62.6 141.1 20.8 186.9 8.60001C205 13.4 221.3 22.9 234.3 35.7C215.6 55.7 204.1 82.6 204.1 112.1C204.1 141.6 215.6 168.5 234.3 188.5ZM271.5 112.1C271.5 82.6 260 55.7 241.3 35.7C254.3 22.9 270.6 13.5 288.7 8.60001C334.5 20.8 368.3 62.5 368.3 112.1C368.3 161.6 334.5 203.4 288.7 215.6C270.6 210.8 254.3 201.3 241.3 188.5C260 168.5 271.5 141.6 271.5 112.1ZM159.4 219.2H112.4C53.4 219.2 5.3 171.2 5.3 112.1C5.3 53.1 53.3 5 112.4 5H159.4C165.4 5 171.2 5.50001 176.9 6.40001C133.5 21.8 102.3 63.4 102.3 112C102.3 160.7 133.5 202.2 176.9 217.6C171.2 218.7 165.4 219.2 159.4 219.2ZM261.3 219.2H214.3C208.3 219.2 202.5 218.7 196.8 217.8C212.3 212.3 226.2 203.5 237.8 192.2C249.3 203.5 263.3 212.3 278.8 217.8C273.1 218.7 267.2 219.2 261.3 219.2ZM363.1 219.2H316.1C310.1 219.2 304.3 218.7 298.6 217.8C342 202.4 373.2 160.8 373.2 112.2C373.2 63.6 342 22 298.6 6.60001C304.3 5.70001 310.1 5.20001 316.1 5.20001H363.1C422.1 5.20001 470.2 53.2 470.2 112.3C470.2 171.1 422.2 219.2 363.1 219.2Z" fill="white"/>
</svg>
