<svg width="362" height="405" viewBox="0 0 362 405" fill="none" xmlns="http://www.w3.org/2000/svg">
<path d="M180.6 0C81 0 0 81 0 180.6V402C0 403.4 1.1 404.5 2.5 404.5H358.7C360.1 404.5 361.2 403.4 361.2 402V180.5C361.2 81 280.2 0 180.6 0ZM356.2 399.4H5V180.5C5 83.7 83.8 4.9 180.6 4.9C277.4 4.9 356.2 83.7 356.2 180.5V399.4Z" fill="white"/>
<path d="M180.6 37.3C99.3998 37.3 33.2998 103.4 33.2998 184.6V364.7C33.2998 366.1 34.3998 367.2 35.7998 367.2H325.5C326.9 367.2 328 366.1 328 364.7V184.6C327.9 103.3 261.8 37.3 180.6 37.3ZM322.9 362.1H38.2998V184.6C38.2998 106.1 102.1 42.3 180.6 42.3C259.1 42.3 322.9 106.1 322.9 184.6V362.1Z" fill="white"/>
<path d="M180.6 74.6001C117.7 74.6001 66.5 125.8 66.5 188.7V327.4C66.5 328.8 67.6 329.9 69 329.9H292.1C293.5 329.9 294.6 328.8 294.6 327.4V188.6C294.7 125.7 243.5 74.6001 180.6 74.6001ZM289.7 324.8H71.5V188.6C71.5 128.5 120.4 79.5001 180.6 79.5001C240.7 79.5001 289.7 128.4 289.7 188.6V324.8Z" fill="white"/>
<path d="M180.6 111.9C136 111.9 99.7998 148.1 99.7998 192.7V290.1C99.7998 291.5 100.9 292.6 102.3 292.6H258.9C260.3 292.6 261.4 291.5 261.4 290.1V192.7C261.4 148.1 225.2 111.9 180.6 111.9ZM256.4 287.5H104.8V192.6C104.8 150.8 138.8 116.8 180.6 116.8C222.4 116.8 256.4 150.8 256.4 192.6V287.5Z" fill="white"/>
<path d="M180.6 149.2C154.4 149.2 133.1 170.5 133.1 196.7V252.7C133.1 254.1 134.2 255.2 135.6 255.2H225.6C227 255.2 228.1 254.1 228.1 252.7V196.7C228.1 170.5 206.8 149.2 180.6 149.2ZM223.1 250.2H138V196.7C138 173.2 157.1 154.2 180.5 154.2C203.9 154.2 223 173.3 223 196.7V250.2H223.1Z" fill="white"/>
</svg>
