<svg width="391" height="379" viewBox="0 0 391 379" fill="none" xmlns="http://www.w3.org/2000/svg">
<path d="M360.316 102.3L238.916 14.1C213.016 -4.7 177.916 -4.7 151.916 14.1L30.5164 102.3C4.61636 121.1 -6.28364 154.5 3.61636 185L50.0164 327.7C59.9164 358.2 88.3164 378.8 120.416 378.8H270.416C302.516 378.8 330.916 358.2 340.816 327.7L387.216 185C397.116 154.5 386.216 121.1 360.316 102.3ZM231.616 225.6L195.416 291.9L159.216 225.6L92.9164 189.4L159.216 153.2L195.416 86.9L231.616 153.2L297.916 189.4L231.616 225.6Z" fill="white"/>
</svg>
