<svg width="440" height="440" viewBox="0 0 440 440" fill="none" xmlns="http://www.w3.org/2000/svg">
<path d="M439.201 219.601V218.101C438.601 158.001 389.601 109.601 329.401 109.801C328.901 109.801 328.401 109.801 327.901 109.801H329.401V108.301C328.801 48.1006 279.701 -0.199381 219.601 0.000618878C159.501 -0.199381 110.401 48.2006 109.801 108.301V109.801C49.6006 109.601 0.600618 158.001 0.000617606 218.101V219.601C-0.199382 279.701 48.2006 328.801 108.301 329.401H109.801C109.601 389.601 158.001 438.601 218.101 439.201H219.601H221.101C281.201 438.601 329.601 389.601 329.401 329.401H330.901C391.101 328.801 439.401 279.701 439.201 219.601ZM109.801 329.401H111.301C110.801 329.401 110.301 329.401 109.801 329.401ZM285.701 285.701H153.501V153.501H285.801V285.701H285.701Z" fill="white"/>
</svg>
