<svg width="459" height="362" viewBox="0 0 459 362" fill="none" xmlns="http://www.w3.org/2000/svg">
<path d="M443.127 18.8751C408.027 -25.5249 322.027 11.0751 251.127 100.675C243.227 110.675 235.927 120.775 229.027 131.175C222.227 120.875 214.827 110.675 206.927 100.675C136.027 11.0751 50.1267 -25.5249 14.9267 18.8751C-20.1733 63.2751 8.72673 171.875 79.6267 261.375C122.627 315.675 171.127 350.475 210.527 359.575C216.227 361.275 222.427 362.075 229.027 361.975C235.627 362.075 241.827 361.275 247.527 359.575C286.927 350.475 335.427 315.575 378.427 261.375C449.227 171.775 478.227 63.1751 443.127 18.8751Z" fill="white"/>
</svg>
