<svg width="325" height="465" viewBox="0 0 325 465" fill="none" xmlns="http://www.w3.org/2000/svg">
<path d="M324.4 363.4C324.4 336.3 317.8 302 306.6 267.5H321.9C323.3 267.5 324.4 266.4 324.4 265C324.4 219.2 305.5 152.7 277.3 99.5C261.9 70.4 244.2 46.1 226 29.3C205.1 9.9 183.6 0 162.2 0C140.8 0 119.3 9.8 98.4 29.3C80.3 46.1 62.6 70.4 47.1 99.5C19 152.7 0 219.2 0 265C0 266.4 1.1 267.5 2.5 267.5H17.8C6.6 302 0 336.4 0 363.4C0 364.8 1.1 365.9 2.5 365.9H17.8C6.6 400.4 0 434.8 0 461.8C0 463.2 1.1 464.3 2.5 464.3H321.8C323.2 464.3 324.3 463.2 324.3 461.8C324.3 434.7 317.7 400.4 306.5 365.9H321.8C323.2 365.9 324.4 364.8 324.4 363.4ZM5.1 262.5C6.4 173.9 77 5 162.2 5C247.4 5 318 173.9 319.3 262.5H304.8C297.3 240.3 287.9 218.2 277.3 198C261.9 168.9 244.2 144.6 226 127.8C205.1 108.4 183.6 98.5 162.2 98.5C140.8 98.5 119.3 108.3 98.4 127.8C80.3 144.6 62.6 168.9 47.1 198C36.4 218.2 27.1 240.3 19.6 262.5H5.1ZM254.2 267.5C272.8 294.9 288.4 328.1 299.6 360.9H24.8C36 328 51.6 294.9 70.2 267.5H254.2ZM73.6 262.5C98.9 226.8 129.5 201.9 162.2 201.9C194.9 201.9 225.5 226.8 250.8 262.5H73.6ZM226 226.2C205.1 206.8 183.6 196.9 162.2 196.9C140.8 196.9 119.3 206.7 98.4 226.2C87.9 235.9 77.5 248.2 67.6 262.5H24.8C51.8 183.7 103.5 103.5 162.2 103.5C220.9 103.5 272.7 183.7 299.6 262.5H256.8C246.9 248.2 236.6 235.9 226 226.2ZM5.1 360.9C5.5 334.6 12 301.3 23.1 267.5H64.2C58.3 276.5 52.5 286.1 47.1 296.4C36.4 316.6 27.1 338.7 19.6 360.9H5.1ZM319.3 459.4H5.1C5.5 433.1 12 399.8 23.1 366H301.3C312.5 399.8 318.9 433.1 319.3 459.4ZM304.9 360.9C297.4 338.7 288 316.6 277.4 296.4C272 286.1 266.2 276.4 260.3 267.5H301.4C312.5 301.4 319 334.7 319.4 360.9H304.9Z" fill="white"/>
</svg>
