<svg width="371" height="371" viewBox="0 0 371 371" fill="none" xmlns="http://www.w3.org/2000/svg">
<path d="M370.1 107.9L262.9 0.700005C262.4 0.200005 261.8 0 261.1 0H109.6C108.9 0 108.3 0.300005 107.8 0.700005L0.700005 107.9C0.200005 108.4 0 109 0 109.7V261.3C0 262 0.300005 262.6 0.700005 263.1L107.9 370.3C108.4 370.8 109 371 109.7 371H261.3C262 371 262.6 370.7 263.1 370.3L370.3 263.1C370.8 262.6 371 262 371 261.3V109.6C370.8 109 370.6 108.3 370.1 107.9ZM365.8 260.1L260.1 365.8H110.7L5 260.1V110.7L110.7 5H260.2L365.9 110.7V260.1H365.8Z" fill="white"/>
<path d="M248.4 30.8H122.4C121.7 30.8 121.1 31.1 120.6 31.5L31.5 120.6C31 121.1 30.8 121.7 30.8 122.4V248.4C30.8 249.1 31.1 249.7 31.5 250.2L120.6 339.3C121.1 339.8 121.7 340 122.4 340H248.4C249.1 340 249.7 339.7 250.2 339.3L339.3 250.2C339.8 249.7 340 249.1 340 248.4V122.4C340 121.7 339.7 121.1 339.3 120.6L250.2 31.5C249.7 31 249.1 30.8 248.4 30.8ZM335 247.4L247.4 335H123.4L35.8 247.4V123.4L123.5 35.7001H247.5L335.2 123.4V247.4H335Z" fill="white"/>
<path d="M235.7 61.6001H135.1C134.4 61.6001 133.8 61.9001 133.3 62.3001L62.3 133.4C61.8 133.9 61.6 134.5 61.6 135.2V235.7C61.6 236.4 61.9 237 62.3 237.5L133.4 308.6C133.9 309.1 134.5 309.3 135.2 309.3H235.7C236.4 309.3 237 309 237.5 308.6L308.6 237.5C309.1 237 309.3 236.4 309.3 235.7V135.1C309.3 134.4 309 133.8 308.6 133.3L237.4 62.3001C237 61.8001 236.3 61.6001 235.7 61.6001ZM304.2 234.6L234.6 304.2H136.2L66.6 234.6V136.2L136.2 66.6001H234.6L304.2 136.2V234.6Z" fill="white"/>
<path d="M222.9 92.3999H147.9C147.2 92.3999 146.6 92.6999 146.1 93.0999L93.1 146.1C92.6 146.6 92.4 147.2 92.4 147.9V222.9C92.4 223.6 92.7 224.2 93.1 224.7L146.1 277.7C146.6 278.2 147.2 278.4 147.9 278.4H222.9C223.6 278.4 224.2 278.1 224.7 277.7L277.7 224.7C278.2 224.2 278.4 223.6 278.4 222.9V147.9C278.4 147.2 278.1 146.6 277.7 146.1L224.7 93.0999C224.2 92.6999 223.6 92.3999 222.9 92.3999ZM273.4 221.9L221.9 273.4H149L97.4 221.9V149L149 97.3999H221.9L273.5 149V221.9H273.4Z" fill="white"/>
<path d="M210.1 123.2H160.7C160 123.2 159.4 123.5 158.9 123.9L123.9 158.9C123.4 159.4 123.2 160 123.2 160.7V210.1C123.2 210.8 123.5 211.4 123.9 211.9L158.9 246.9C159.4 247.4 160 247.6 160.7 247.6H210.1C210.8 247.6 211.4 247.3 211.9 246.9L246.9 211.9C247.4 211.4 247.6 210.8 247.6 210.1V160.7C247.6 160 247.3 159.4 246.9 158.9L211.9 123.9C211.4 123.5 210.8 123.2 210.1 123.2ZM242.6 209.1L209.1 242.6H161.7L128.2 209.1V161.7L161.7 128.2H209.1L242.6 161.7V209.1Z" fill="white"/>
</svg>
