<svg width="375" height="433" viewBox="0 0 375 433" fill="none" xmlns="http://www.w3.org/2000/svg">
<path d="M347.075 276.35L271.875 237.65L312.275 216.85C341.775 201.65 341.775 159.55 312.275 144.45L250.975 112.85L283.475 96.15C306.275 84.45 306.275 51.85 283.475 40.15L223.775 9.45C199.275 -3.15 170.175 -3.15 145.775 9.45L86.075 40.15C63.275 51.85 63.275 84.45 86.075 96.15L118.575 112.85L57.275 144.45C27.775 159.65 27.775 201.75 57.275 216.85L100.275 239.05L27.675 276.45C-9.225 295.45 -9.225 348.15 27.675 367.15L124.275 416.85C163.875 437.25 210.975 437.25 250.575 416.85L347.175 367.15C383.975 348.05 383.975 295.35 347.075 276.35Z" fill="white"/>
</svg>
