<svg width="421" height="311" viewBox="0 0 421 311" fill="none" xmlns="http://www.w3.org/2000/svg">
<path d="M70.0913 0.0545729L0.0177002 70.1282L70.0913 140.202L140.165 70.1282L70.0913 0.0545729Z" fill="white"/>
<path d="M210.267 0.000118714L140.194 70.0737L210.267 140.147L280.341 70.0737L210.267 0.000118714Z" fill="white"/>
<path d="M350.373 0.0167203L280.299 70.0903L350.373 140.164L420.447 70.0903L350.373 0.0167203Z" fill="white"/>
<path d="M70.1 140.173L0 190.373L70.1 240.673L140.1 190.373L70.1 140.173Z" fill="white"/>
<path d="M140.1 190.373L210.2 240.673L280.3 190.373L210.2 140.173L140.1 190.373Z" fill="white"/>
<path d="M350.3 140.173L280.3 190.373L350.3 240.673L420.4 190.373L350.3 140.173Z" fill="white"/>
<path d="M0 275.673L70.1 310.773L140.1 275.673L70.1 240.673L0 275.673Z" fill="white"/>
<path d="M140.1 275.673L210.2 310.773L280.3 275.673L210.2 240.673L140.1 275.673Z" fill="white"/>
<path d="M350.3 310.773L420.4 275.673L350.3 240.673L280.3 275.673L350.3 310.773Z" fill="white"/>
</svg>
