<svg width="437" height="339" viewBox="0 0 437 339" fill="none" xmlns="http://www.w3.org/2000/svg">
<path d="M436.189 335L220.389 1.1C219.889 0.399998 219.089 0 218.289 0C217.489 0 216.689 0.399998 216.189 1.1L0.388543 335C-0.111457 335.8 -0.111455 336.7 0.288545 337.6C0.688545 338.4 1.58855 338.9 2.48855 338.9H434.089C434.989 338.9 435.889 338.4 436.289 337.6C436.689 336.7 436.689 335.7 436.189 335ZM7.08854 333.8L218.289 7.1L429.489 333.9H7.08854V333.8Z" fill="white"/>
<path d="M216.189 42.7999L42.9886 310.8C42.4886 311.6 42.4886 312.5 42.8886 313.4C43.2886 314.2 44.1886 314.7 45.0886 314.7H391.589C392.489 314.7 393.389 314.2 393.789 313.4C394.189 312.6 394.189 311.6 393.689 310.8L220.489 42.7999C219.989 42.0999 219.189 41.7 218.389 41.7C217.589 41.7 216.689 42.0999 216.189 42.7999ZM386.889 309.7H49.6886L218.289 48.7999L386.889 309.7Z" fill="white"/>
<path d="M216.189 84.6L85.4886 286.7C84.9886 287.5 84.9886 288.4 85.3886 289.3C85.7886 290.1 86.6886 290.6 87.5886 290.6H348.989C349.889 290.6 350.789 290.1 351.189 289.3C351.589 288.5 351.589 287.5 351.089 286.7L220.389 84.6C219.889 83.9 219.089 83.5 218.289 83.5C217.489 83.5 216.689 83.9 216.189 84.6ZM344.389 285.6H92.1886L218.289 90.5L344.389 285.6Z" fill="white"/>
<path d="M216.188 126.3L128.088 262.6C127.588 263.4 127.588 264.3 127.988 265.2C128.388 266 129.288 266.5 130.188 266.5H306.389C307.288 266.5 308.188 266 308.588 265.2C308.988 264.4 308.989 263.4 308.489 262.6L220.389 126.3C219.889 125.6 219.089 125.2 218.288 125.2C217.488 125.2 216.688 125.6 216.188 126.3ZM301.788 261.5H134.788L218.288 132.3L301.788 261.5Z" fill="white"/>
<path d="M216.189 168L170.689 238.5C170.189 239.3 170.189 240.2 170.589 241.1C170.989 241.9 171.889 242.4 172.789 242.4H263.889C264.789 242.4 265.689 241.9 266.089 241.1C266.489 240.3 266.489 239.3 265.989 238.5L220.489 168C219.989 167.3 219.189 166.9 218.389 166.9C217.589 166.9 216.689 167.3 216.189 168ZM259.289 237.4H177.289L218.289 174L259.289 237.4Z" fill="white"/>
</svg>
