<svg width="441" height="440" viewBox="0 0 441 440" fill="none" xmlns="http://www.w3.org/2000/svg">
<path d="M220.4 108.7L248.1 0L247.9 112.2L301.7 13.8L273.6 122.4L350.2 40.5L296 138.6L390.5 78.4L313.6 160L420.2 125.1L325.4 185L437.3 177.8L330.6 212.2L440.8 233L328.9 239.8L430.4 287.4L320.3 266.1L406.8 337.5L305.5 289.5L371.6 380.1L285.3 308.5L326.8 412.6L261 321.8L275.3 433L234.2 328.7L220.4 440L206.6 328.7L165.5 433L179.8 321.8L114 412.6L155.5 308.5L69.2 380.1L135.3 289.5L34 337.5L120.5 266.1L10.4 287.4L111.9 239.8L0 233L110.2 212.2L3.5 177.8L115.4 185L20.6 125.1L127.2 160L50.3 78.4L144.8 138.6L90.6 40.5L167.2 122.4L139.1 13.8L192.9 112.2L192.7 0L220.4 108.7Z" fill="white"/>
</svg>
