<svg width="424" height="269" viewBox="0 0 424 269" fill="none" xmlns="http://www.w3.org/2000/svg">
<path d="M70.7 0L0 109.3H70.7H141.3L70.7 0Z" fill="white"/>
<path d="M282.7 109.3L212 0L141.3 109.3H212H282.7Z" fill="white"/>
<path d="M424 109.3L353.3 0L282.7 109.3H353.3H424Z" fill="white"/>
<path d="M70.7 109.3L0 194.5H70.7H141.3L70.7 109.3Z" fill="white"/>
<path d="M212 109.3L141.3 194.5H212H282.7L212 109.3Z" fill="white"/>
<path d="M353.3 194.5H424L353.3 109.3L282.7 194.5H353.3Z" fill="white"/>
<path d="M141.3 247.1L70.7 194.5L0 247.1H66.1L0 268.6H141.3L75.3 247.1H141.3Z" fill="white"/>
<path d="M282.7 247.1L212 194.5L141.3 247.1H207.4L141.3 268.6H282.7L216.6 247.1H282.7Z" fill="white"/>
<path d="M424 247.1L353.3 194.5L282.7 247.1H348.7L282.7 268.6H424L357.9 247.1H424Z" fill="white"/>
</svg>
