<svg width="422" height="402" viewBox="0 0 422 402" fill="none" xmlns="http://www.w3.org/2000/svg">
<path d="M420.812 151.85L212.413 0.45C211.513 -0.15 210.313 -0.15 209.513 0.45L1.0125 151.85C0.112498 152.45 -0.1875 153.65 0.1125 154.65L79.7125 399.65C80.0125 400.65 81.0125 401.35 82.1125 401.35H339.712C340.812 401.35 341.713 400.65 342.113 399.65L421.712 154.65C422.012 153.65 421.612 152.45 420.812 151.85ZM337.913 396.35H83.9125L5.4125 154.85L210.913 5.55L416.413 154.85L337.913 396.35Z" fill="white"/>
<path d="M209.413 35.65L38.1126 160.15C37.2126 160.75 36.9126 161.95 37.2126 162.95L102.713 364.35C103.013 365.35 104.013 366.05 105.113 366.05H316.913C318.013 366.05 318.913 365.35 319.313 364.35L384.813 162.95C385.113 161.95 384.813 160.75 383.913 160.15L212.413 35.65C211.513 35.05 210.313 35.05 209.413 35.65ZM379.313 163.15L315.013 361.15H106.813L42.5126 163.15L210.913 40.7499L379.313 163.15Z" fill="white"/>
<path d="M209.413 70.8499L75.1126 168.45C74.2126 169.05 73.9126 170.25 74.2126 171.25L125.513 329.15C125.813 330.15 126.813 330.85 127.913 330.85H293.913C295.013 330.85 295.913 330.15 296.313 329.15L347.613 171.25C347.913 170.25 347.613 169.05 346.713 168.45L212.413 70.8499C211.513 70.2499 210.313 70.2499 209.413 70.8499ZM342.313 171.45L292.113 325.85H129.713L79.5126 171.45L210.913 76.0499L342.313 171.45Z" fill="white"/>
<path d="M209.413 106.15L112.113 176.85C111.213 177.45 110.913 178.65 111.213 179.65L148.413 293.95C148.713 294.95 149.713 295.65 150.813 295.65H271.013C272.113 295.65 273.013 294.95 273.413 293.95L310.613 179.65C310.913 178.65 310.613 177.45 309.713 176.85L212.413 106.15C211.513 105.45 210.313 105.45 209.413 106.15ZM305.213 179.75L269.213 290.65H152.613L116.613 179.75L210.913 111.25L305.213 179.75Z" fill="white"/>
<path d="M209.412 141.35L149.212 185.15C148.312 185.75 148.012 186.95 148.312 187.95L171.312 258.75C171.612 259.75 172.612 260.45 173.712 260.45H248.112C249.212 260.45 250.112 259.75 250.512 258.75L273.512 187.95C273.812 186.95 273.512 185.75 272.612 185.15L212.412 141.35C211.512 140.75 210.312 140.75 209.412 141.35ZM268.212 188.05L246.312 255.35H175.512L153.612 188.05L210.912 146.45L268.212 188.05Z" fill="white"/>
</svg>
