<svg width="377" height="376" viewBox="0 0 377 376" fill="none" xmlns="http://www.w3.org/2000/svg">
<path d="M188.4 30L212.1 0L227.5 34.9L257.9 11.8L264.2 49.4L299.3 34.6L296.1 72.6L333.8 66.9L321.2 103L359.2 106.9L338 138.7L373.8 151.9L345.4 177.4L376.8 199.1L342.9 216.7L367.9 245.6L330.7 254.2L347.8 288.4L309.6 287.5L317.6 324.8L280.9 314.5L279.3 352.7L246.3 333.5L235.3 370.1L208.1 343.3L188.4 376L168.7 343.3L141.5 370.1L130.5 333.5L97.5 352.7L95.9 314.5L59.2 324.8L67.2 287.5L29 288.4L46.1 254.2L8.9 245.6L33.9 216.7L0 199.1L31.4 177.4L3 151.9L38.8 138.7L17.6 106.9L55.6 103L43 66.9L80.7 72.6L77.5 34.6L112.6 49.4L118.9 11.8L149.3 34.9L164.7 0L188.4 30Z" fill="white"/>
</svg>
