<svg width="427" height="427" viewBox="0 0 427 427" fill="none" xmlns="http://www.w3.org/2000/svg">
<path d="M362.8 140.1C333.4 154.1 297.5 163 259.7 167C263.7 129.2 272.7 93.3 286.6 63.9C246.1 -21.3 180.6 -21.3 140.1 63.9C154.1 93.3 163 129.2 167 167C129.2 163 93.3 154 63.9 140.1C-21.3 180.6 -21.3 246.1 63.9 286.6C93.3 272.6 129.2 263.7 167 259.7C163 297.5 154 333.4 140.1 362.8C180.6 448 246.1 448 286.6 362.8C272.6 333.4 263.7 297.5 259.7 259.7C297.5 263.7 333.4 272.7 362.8 286.6C448 246.1 448 180.5 362.8 140.1Z" fill="white"/>
</svg>
