<svg width="500" height="500" viewBox="0 0 500 500" fill="none" xmlns="http://www.w3.org/2000/svg">
<g clip-path="url(#clip0_201_751)">
<mask id="mask0_201_751" style="mask-type:luminance" maskUnits="userSpaceOnUse" x="51" y="51" width="398" height="398">
<path d="M250 448.5C359.629 448.5 448.5 359.629 448.5 250C448.5 140.371 359.629 51.5 250 51.5C140.371 51.5 51.5 140.371 51.5 250C51.5 359.629 140.371 448.5 250 448.5Z" fill="white"/>
</mask>
<g mask="url(#mask0_201_751)">
<path d="M58.8 266.3C89.7 276.8 121 287.2 153.4 291.6C183.3 295.7 213.6 293.6 242.4 284.3C269.9 275.4 295.2 260.5 316.4 240.9C338.2 220.8 356.3 196.6 380.5 179.1C404.5 161.7 433.6 151.7 463.2 150.5C466.9 150.3 470.6 150.4 474.3 150.5C477.6 150.6 475.3 147.2 473.1 147.1C443.9 146.1 414.6 153.4 389.3 168.1C363.4 183.2 344.4 206.1 323.7 227.2C313.4 237.7 302.5 247.5 290.4 255.9C278.6 264.1 265.8 270.9 252.5 276.3C224.9 287.5 195.1 292 165.5 289.6C132.9 287 101.3 277.2 70.4 266.9C66.5 265.6 62.7 264.3 58.8 263C58 262.7 56.5 262.9 56.4 264C56.3 265.3 57.9 266 58.8 266.3Z" fill="white"/>
</g>
<mask id="mask1_201_751" style="mask-type:luminance" maskUnits="userSpaceOnUse" x="51" y="51" width="398" height="398">
<path d="M250 448.5C359.629 448.5 448.5 359.629 448.5 250C448.5 140.371 359.629 51.5 250 51.5C140.371 51.5 51.5 140.371 51.5 250C51.5 359.629 140.371 448.5 250 448.5Z" fill="white"/>
</mask>
<g mask="url(#mask1_201_751)">
<path d="M253.2 275.1C237.1 277.7 220.8 279.2 204.5 279.3C188.1 279.4 171.7 278.2 155.5 275.5C140.6 273 126 269.2 111.8 264.1C98.4001 259.2 85.4001 253.2 73.1001 245.9C60.8001 238.7 49.3001 230.2 38.8001 220.7C37.5001 219.5 36.1001 218.2 34.8001 217C34.0001 216.3 34.5001 217.9 34.6001 218.1C35.0001 219.1 35.6001 220.3 36.4001 221C46.7001 230.9 58.1001 239.6 70.2001 247.2C82.4001 254.9 95.4001 261.3 108.8 266.5C122.7 271.9 137.1 276 151.7 278.8C167.8 281.9 184.1 283.4 200.4 283.6C216.8 283.8 233.2 282.7 249.4 280.3C251.4 280 253.5 279.7 255.5 279.4C255.9 279.5 254.4 274.9 253.2 275.1Z" fill="white"/>
</g>
<mask id="mask2_201_751" style="mask-type:luminance" maskUnits="userSpaceOnUse" x="51" y="51" width="398" height="398">
<path d="M250 448.5C359.629 448.5 448.5 359.629 448.5 250C448.5 140.371 359.629 51.5 250 51.5C140.371 51.5 51.5 140.371 51.5 250C51.5 359.629 140.371 448.5 250 448.5Z" fill="white"/>
</mask>
<g mask="url(#mask2_201_751)">
<path d="M256.4 274C239.4 274.2 222.6 271.8 206 268.1C189.4 264.4 173.1 259.5 156.9 254.5C141.4 249.8 126.3 244.3 112.2 236.1C99.4001 228.6 87.6001 219.4 76.6001 209.4C65.5001 199.3 55.3001 188.3 45.4001 177C44.1001 175.6 42.9001 174.1 41.7001 172.7C40.9001 171.8 39.6001 171.2 38.3001 171.6C37.3001 171.9 36.8001 173 37.5001 173.9C47.6001 185.5 57.9001 196.9 69.1001 207.5C80.2001 218 92.1001 227.8 105 235.9C118.9 244.6 134 250.9 149.6 255.8C166.1 261.1 182.8 266 199.7 270.1C216.7 274.2 233.9 277.1 251.3 277.5C253.5 277.6 255.6 277.6 257.8 277.5C258.9 277.5 259.8 276.6 259.4 275.5C259 274.5 257.5 273.9 256.4 274Z" fill="white"/>
</g>
<mask id="mask3_201_751" style="mask-type:luminance" maskUnits="userSpaceOnUse" x="51" y="51" width="398" height="398">
<path d="M250 448.5C359.629 448.5 448.5 359.629 448.5 250C448.5 140.371 359.629 51.5 250 51.5C140.371 51.5 51.5 140.371 51.5 250C51.5 359.629 140.371 448.5 250 448.5Z" fill="white"/>
</mask>
<g mask="url(#mask3_201_751)">
<path d="M272.4 267.4C253.5 268.2 235.1 263 217.2 257.6C201.2 252.8 185.1 248 169.5 242.2C154.1 236.4 139.1 229.6 125.2 220.7C111.3 211.8 98.9999 200.7 88.3999 188C77.7999 175.2 68.8999 161 60.9999 146.4C59.9999 144.6 59.0999 142.8 58.0999 141C57.4999 139.9 56.1999 139.1 54.8999 139.4C53.7999 139.6 53.0999 140.8 53.5999 141.9C61.4999 157 70.2999 171.8 80.8999 185.3C91.2999 198.7 103.5 210.7 117.4 220.3C131.3 229.9 146.5 237.4 162.2 243.6C178.1 249.9 194.3 254.9 210.7 259.8C228.7 265.2 247.1 271 266.1 271.6C268.5 271.7 270.9 271.7 273.3 271.6C276.3 271.5 275.1 267.3 272.4 267.4Z" fill="white"/>
</g>
<mask id="mask4_201_751" style="mask-type:luminance" maskUnits="userSpaceOnUse" x="51" y="51" width="398" height="398">
<path d="M250 448.5C359.629 448.5 448.5 359.629 448.5 250C448.5 140.371 359.629 51.5 250 51.5C140.371 51.5 51.5 140.371 51.5 250C51.5 359.629 140.371 448.5 250 448.5Z" fill="white"/>
</mask>
<g mask="url(#mask4_201_751)">
<path d="M288.2 259.7C279.1 261.6 269.6 261.8 260.5 260.1C251.4 258.4 242.9 254.8 234.9 250.4C226.7 245.9 218.8 240.8 210.9 235.9C203 231 195.2 225.9 187.6 220.5C172.3 209.6 158.6 197 145.7 183.3C134.1 171 123.4 158 114.2 143.9C105.1 129.9 97.5 114.9 92.3 99C91.7 97 91.1 95 90.5 93C90.3 92.3 85.6 93.9 85.9 95C90.5 111.3 97.6 126.8 106.5 141.2C115.4 155.7 126 169 137.5 181.6C150 195.2 163.3 208.1 178.1 219.1C193.2 230.3 209.3 240.2 225.5 249.8C233.5 254.6 241.9 258.9 251 261.2C260 263.5 269.3 264.2 278.5 263.1C280.8 262.8 283 262.5 285.3 262C286.4 261.8 287.6 261.3 288.6 260.6C289.2 260 289.2 259.5 288.2 259.7Z" fill="white"/>
</g>
<mask id="mask5_201_751" style="mask-type:luminance" maskUnits="userSpaceOnUse" x="51" y="51" width="398" height="398">
<path d="M250 448.5C359.629 448.5 448.5 359.629 448.5 250C448.5 140.371 359.629 51.5 250 51.5C140.371 51.5 51.5 140.371 51.5 250C51.5 359.629 140.371 448.5 250 448.5Z" fill="white"/>
</mask>
<g mask="url(#mask5_201_751)">
<path d="M304.8 246.3C288.7 251.2 271.5 249.4 255.9 243.7C240.1 237.9 226.2 228 213.7 216.8C200.4 204.8 188.4 191.4 176.6 178C164.8 164.6 153.3 151.1 145.3 135.1C137.8 120 133 103.7 131.4 87C131.2 84.9 131 82.9 130.9 80.8C130.7 78.1 126.1 77.4 126.3 80.5C127.3 97.7 131.4 114.8 138.5 130.6C142 138.5 146.2 146.1 151.1 153.3C156.5 161.1 162.7 168.4 168.9 175.6C181 189.6 193.3 203.5 206.8 216.2C219.5 228.2 233.7 239 249.8 246C265.5 252.8 283.3 255.9 300.2 252.5C302.3 252.1 304.4 251.6 306.4 250.9C309.4 249.9 307.3 245.5 304.8 246.3Z" fill="white"/>
</g>
<mask id="mask6_201_751" style="mask-type:luminance" maskUnits="userSpaceOnUse" x="51" y="51" width="398" height="398">
<path d="M250 448.5C359.629 448.5 448.5 359.629 448.5 250C448.5 140.371 359.629 51.5 250 51.5C140.371 51.5 51.5 140.371 51.5 250C51.5 359.629 140.371 448.5 250 448.5Z" fill="white"/>
</mask>
<g mask="url(#mask6_201_751)">
<path d="M309.3 240.7C292.3 237.2 274.9 233.7 259.6 225.2C251.8 220.9 244.9 215.3 238.6 209.1C232.1 202.7 226 195.8 220.2 188.7C208.9 174.7 198.5 159.5 190.8 143.2C187 135.3 184 127 182.1 118.4C180.2 109.6 179.6 100.7 180.4 91.7C181.3 82.2 183.2 72.7 185.8 63.6C188 55.8 191.3 47.7 198.1 42.8C199.6 41.7 201.2 40.8 202.9 40.2C205.9 39.1 203.4 35 200.7 36C192.7 39.1 187.2 46.1 183.9 53.7C182.1 58 180.8 62.6 179.8 67.1C178.6 72 177.6 77 176.7 82C175.1 91.6 174.6 101.2 175.8 110.8C177 119.9 179.6 128.7 183 137.2C189.9 154.4 200.3 170.3 211.5 185.1C217.3 192.7 223.4 199.9 230 206.9C236.4 213.7 243.3 220.2 251.2 225.4C266.5 235.5 284.6 240.1 302.4 243.8C304.6 244.3 306.8 244.7 309 245.2C310.2 245.4 311.5 244.5 311.6 243.3C311.8 241.9 310.6 241 309.3 240.7Z" fill="white"/>
</g>
<mask id="mask7_201_751" style="mask-type:luminance" maskUnits="userSpaceOnUse" x="51" y="51" width="398" height="398">
<path d="M250 448.5C359.629 448.5 448.5 359.629 448.5 250C448.5 140.371 359.629 51.5 250 51.5C140.371 51.5 51.5 140.371 51.5 250C51.5 359.629 140.371 448.5 250 448.5Z" fill="white"/>
</mask>
<g mask="url(#mask7_201_751)">
<path d="M317 234.2C308.9 233.5 301.8 229.5 295.2 225C288.8 220.6 282.5 215.9 276.3 211.1C264.2 201.7 252.4 191.4 243.9 178.6C239.3 171.7 236 164.1 233.3 156.3C230.5 148.2 228.3 139.9 226.7 131.5C223.4 114.7 222.3 97.4 225 80.5C226.3 72.4 228.5 64.3 231.7 56.7C234.6 49.8 238.5 43.2 244.1 38.1C245.5 36.8 246.9 35.7 248.4 34.7C249.5 33.9 246.3 30.1 245 31.1C231.7 40.2 225.5 57 222.3 72.2C218.7 89.4 219.2 107.3 222.1 124.5C223.6 133.3 225.8 142 228.4 150.5C231 158.9 234.2 167.3 238.8 174.9C247.1 188.9 259 200.3 271.7 210.5C278.1 215.6 284.6 220.4 291.2 225.2C298 230.1 305 234.9 313.2 237.2C315.2 237.8 317.2 238.1 319.2 238.3C320.3 238.4 320 237.3 319.6 236.6C319.2 235.6 318.1 234.3 317 234.2Z" fill="white"/>
</g>
<mask id="mask8_201_751" style="mask-type:luminance" maskUnits="userSpaceOnUse" x="51" y="51" width="398" height="398">
<path d="M250 448.5C359.629 448.5 448.5 359.629 448.5 250C448.5 140.371 359.629 51.5 250 51.5C140.371 51.5 51.5 140.371 51.5 250C51.5 359.629 140.371 448.5 250 448.5Z" fill="white"/>
</mask>
<g mask="url(#mask8_201_751)">
<path d="M322.3 231.4C309.2 225.6 297.5 216.6 288.1 205.9C277.9 194.3 270.3 180.7 265.2 166.1C259.8 150.8 257.1 134.3 257.1 118C257.1 102.3 259.9 86.0001 268.4 72.6001C275.6 61.2001 287 51.9001 300.4 49.1001C302 48.7001 303.7 48.5001 305.4 48.4001C306.5 48.3001 307.1 47.4001 306.7 46.3001C306.2 45.2001 304.9 44.4001 303.7 44.5001C289.3 45.7001 276.4 53.9001 267.6 65.2001C257.6 78.0001 253.4 94.4001 252.6 110.4C251.8 127.2 254.1 144.3 258.9 160.4C263.6 176 271.1 190.8 281.3 203.5C290.9 215.4 302.8 225.5 316.5 232.5C318.2 233.4 320 234.2 321.7 235C322.6 235.4 324 235.2 324.3 234.1C324.6 232.8 323.2 231.8 322.3 231.4Z" fill="white"/>
</g>
<mask id="mask9_201_751" style="mask-type:luminance" maskUnits="userSpaceOnUse" x="51" y="51" width="398" height="398">
<path d="M250 448.5C359.629 448.5 448.5 359.629 448.5 250C448.5 140.371 359.629 51.5 250 51.5C140.371 51.5 51.5 140.371 51.5 250C51.5 359.629 140.371 448.5 250 448.5Z" fill="white"/>
</mask>
<g mask="url(#mask9_201_751)">
<path d="M332.1 226.2C320.8 218.4 311.3 208.2 304.1 196.5C296.9 184.8 292 171.8 289.9 158.3C288.8 151.6 288.4 144.8 288.8 138C289.2 130 290.4 121.9 293.4 114.4C296.3 106.9 301 100.2 306.1 94.1C311 88.2 316.7 82.9 323.8 79.7C337.8 73.3 353.8 74.9 368.8 74.4C370.8 74.3 372.7 74.2 374.7 74.1C375.3 74.1 376.4 73.8 375.7 73.1C374.9 72.4 373.2 72.5 372.3 72.6C356.8 73.7 340.7 71.7 325.6 76.4C318.1 78.7 311.5 82.8 306 88.4C300.4 94 295.4 100.6 291.6 107.5C284.2 121.1 282.7 137.4 284.4 152.6C285.9 166.4 290.2 179.9 296.9 192.1C303.6 204.3 312.7 215.1 323.7 223.7C325.1 224.8 326.5 225.8 327.9 226.8C328.8 227.4 330.3 227.4 331.3 227.3C331.7 227.1 333 226.8 332.1 226.2Z" fill="white"/>
</g>
<mask id="mask10_201_751" style="mask-type:luminance" maskUnits="userSpaceOnUse" x="51" y="51" width="398" height="398">
<path d="M250 448.5C359.629 448.5 448.5 359.629 448.5 250C448.5 140.371 359.629 51.5 250 51.5C140.371 51.5 51.5 140.371 51.5 250C51.5 359.629 140.371 448.5 250 448.5Z" fill="white"/>
</mask>
<g mask="url(#mask10_201_751)">
<path d="M336.9 217.4C318.9 200.1 305.8 175.9 307.3 150.4C307.9 139 311.6 127.6 317.9 118.1C324.5 108.2 334 100.9 345.3 97.2999C352.7 94.8999 360.6 93.6999 368.4 93.5999C376 93.4999 383.6 94.7999 390.4 98.2999C392 99.0999 395.7 95.8999 394 94.9999C381.2 88.2999 365.4 89.1999 351.7 92.2999C338.5 95.3999 326.6 102.3 318 112.8C310.4 122.1 305.4 133.6 303.6 145.4C301.6 158.2 303.4 171.1 307.9 183.2C313.1 197.2 322 209.8 332.7 220.1C334.2 221.6 338.1 218.6 336.9 217.4Z" fill="white"/>
</g>
<mask id="mask11_201_751" style="mask-type:luminance" maskUnits="userSpaceOnUse" x="51" y="51" width="398" height="398">
<path d="M250 448.5C359.629 448.5 448.5 359.629 448.5 250C448.5 140.371 359.629 51.5 250 51.5C140.371 51.5 51.5 140.371 51.5 250C51.5 359.629 140.371 448.5 250 448.5Z" fill="white"/>
</mask>
<g mask="url(#mask11_201_751)">
<path d="M341.7 214.6C329.7 197.9 327.7 174.8 335.5 155.9C343.1 137.7 359.4 123.9 378.1 118.3C383.9 116.6 390.4 115.2 396.5 116.3C402.8 117.4 408.2 121.6 414.4 123.1C415.3 123.3 416.7 123.3 416.9 122.1C417.1 121 415.7 119.9 414.7 119.6C408.8 118.2 403.8 114.6 398 113.1C391.9 111.5 385.5 112.3 379.5 113.7C369.4 116 359.9 120.6 351.7 127C343.7 133.2 337 141.3 332.5 150.4C327.8 160.1 325.6 171.1 326.2 181.9C326.8 194.2 330.8 206.1 338 216.1C339.5 217.9 343.6 217.2 341.7 214.6Z" fill="white"/>
</g>
<mask id="mask12_201_751" style="mask-type:luminance" maskUnits="userSpaceOnUse" x="51" y="51" width="398" height="398">
<path d="M250 448.5C359.629 448.5 448.5 359.629 448.5 250C448.5 140.371 359.629 51.5 250 51.5C140.371 51.5 51.5 140.371 51.5 250C51.5 359.629 140.371 448.5 250 448.5Z" fill="white"/>
</mask>
<g mask="url(#mask12_201_751)">
<path d="M347.8 206.8C345 190.3 350.2 173.2 360.3 160C370.8 146.3 386.8 137.7 403.6 135.1C413.2 133.6 423.1 133.9 432.6 136C433.6 136.2 435.2 136.3 435.8 135.2C436.3 134.2 435.1 133.2 434.3 133C416 129 396.3 130.7 379.4 139.1C363.4 147 350.9 161.1 345.3 178.1C342.2 187.5 341.3 197.4 342.9 207.2C343.3 209.2 348.2 209.2 347.8 206.8Z" fill="white"/>
</g>
<mask id="mask13_201_751" style="mask-type:luminance" maskUnits="userSpaceOnUse" x="51" y="51" width="398" height="398">
<path d="M250 448.5C359.629 448.5 448.5 359.629 448.5 250C448.5 140.371 359.629 51.5 250 51.5C140.371 51.5 51.5 140.371 51.5 250C51.5 359.629 140.371 448.5 250 448.5Z" fill="white"/>
</mask>
<g mask="url(#mask13_201_751)">
<path d="M349.3 208C352.9 193.4 360.7 180 371.6 169.7C383.1 158.7 397.9 151.6 413.7 149.2C422.8 147.8 432.1 148 441.1 149.9C441.8 150 440.3 148.3 440.2 148.3C439.5 147.6 438.6 146.8 437.6 146.6C421.6 143.4 404.8 145.3 389.9 151.8C375.8 158 363.8 168.5 355.5 181.5C350.9 188.7 347.5 196.6 345.5 204.9C345.3 205.6 346.6 206.5 347.1 206.9C347.2 206.9 349.2 208.4 349.3 208Z" fill="white"/>
</g>
<mask id="mask14_201_751" style="mask-type:luminance" maskUnits="userSpaceOnUse" x="51" y="51" width="398" height="398">
<path d="M250 448.5C359.629 448.5 448.5 359.629 448.5 250C448.5 140.371 359.629 51.5 250 51.5C140.371 51.5 51.5 140.371 51.5 250C51.5 359.629 140.371 448.5 250 448.5Z" fill="white"/>
</mask>
<g mask="url(#mask14_201_751)">
<path d="M261.9 277.9C276.6 273.8 291.2 269.3 305.1 262.9C318.7 256.6 330.9 248.1 342.5 238.7C365.7 220 387.3 198.5 414.3 185.1C428.9 177.9 444.9 173.3 461.3 173.6C462.4 173.6 463.3 172.7 462.9 171.7C462.5 170.5 461 170 459.9 170C429.8 169.3 402.4 184.5 379.2 202.3C355.4 220.6 334.3 243 307.4 257C292.2 264.9 275.8 269.8 259.4 274.4C258.3 274.7 257.9 275.8 258.6 276.7C259.3 277.7 260.8 278.2 261.9 277.9Z" fill="white"/>
</g>
<mask id="mask15_201_751" style="mask-type:luminance" maskUnits="userSpaceOnUse" x="51" y="51" width="398" height="398">
<path d="M250 448.5C359.629 448.5 448.5 359.629 448.5 250C448.5 140.371 359.629 51.5 250 51.5C140.371 51.5 51.5 140.371 51.5 250C51.5 359.629 140.371 448.5 250 448.5Z" fill="white"/>
</mask>
<g mask="url(#mask15_201_751)">
<path d="M249 282.9C257.8 282.6 266.5 282.2 275.3 281.9C283.9 281.6 292.5 281.3 301.1 280.7C317.2 279.6 333.1 276.2 348 270C362.7 264 376 255.2 388.8 245.8C401.6 236.4 414.1 226.5 428.1 219.1C441.7 211.9 456.9 206.7 472.5 207.5C474.4 207.6 476.2 207.8 478.1 208.1C481.1 208.6 479.8 204.2 477.6 203.9C462 201.5 446.4 205.1 432.3 211.6C417.8 218.2 405 227.7 392.3 237.1C379.5 246.6 366.7 256.1 352.2 262.9C337.7 269.7 322.1 274.1 306.1 275.8C297.5 276.7 288.9 276.9 280.2 277.3C271.4 277.6 262.7 278 253.9 278.3C251.7 278.4 249.6 278.5 247.4 278.6C244.7 278.6 246.8 283 249 282.9Z" fill="white"/>
</g>
<mask id="mask16_201_751" style="mask-type:luminance" maskUnits="userSpaceOnUse" x="51" y="51" width="398" height="398">
<path d="M250 448.5C359.629 448.5 448.5 359.629 448.5 250C448.5 140.371 359.629 51.5 250 51.5C140.371 51.5 51.5 140.371 51.5 250C51.5 359.629 140.371 448.5 250 448.5Z" fill="white"/>
</mask>
<g mask="url(#mask16_201_751)">
<path d="M234.1 288.6C243.4 287.6 252.9 287.3 262.3 287.7C271.7 288.2 281 289.6 290.3 290.7C308.6 292.9 327.3 293.5 345.7 291.3C363.3 289.2 379.8 283.6 395.9 276.3C411.7 269.1 426.8 260.5 442.6 253.3C458.2 246.1 474.6 240.2 491.8 238.5C493.9 238.3 496.1 238.2 498.2 238.1C501.3 238 499.8 233.7 497.3 233.8C479.9 234.3 463.1 239.3 447.2 246.1C431.2 252.9 416 261.4 400.4 269C384.6 276.7 368.3 283.3 350.9 286.1C332.7 289.1 313.8 289 295.5 287.1C286.2 286.2 276.9 284.6 267.5 283.8C258.1 283 248.7 283 239.3 283.7C237 283.9 234.6 284.1 232.3 284.4C231.1 284.5 230.8 286 231.3 286.9C231.6 288 232.9 288.7 234.1 288.6Z" fill="white"/>
</g>
<mask id="mask17_201_751" style="mask-type:luminance" maskUnits="userSpaceOnUse" x="51" y="51" width="398" height="398">
<path d="M250 448.5C359.629 448.5 448.5 359.629 448.5 250C448.5 140.371 359.629 51.5 250 51.5C140.371 51.5 51.5 140.371 51.5 250C51.5 359.629 140.371 448.5 250 448.5Z" fill="white"/>
</mask>
<g mask="url(#mask17_201_751)">
<path d="M223 291.3C240.7 292.4 258.2 295.1 275.6 298.1C293 301.1 310.3 304.3 327.8 306.7C345.2 309.1 362.8 310.7 380.5 310.2C398.2 309.7 415.6 307 432.7 302.5C441.3 300.3 449.7 297.6 458.1 294.7C466.3 291.9 474.7 289.2 483.4 288.5C485.5 288.3 487.6 288.3 489.8 288.4C490.6 288.4 491.6 288.1 491.1 287.2C490.6 286.3 488.9 285.9 487.9 285.9C479.2 285.5 470.7 287.3 462.4 289.8C454 292.3 445.7 295.4 437.3 297.9C420.4 302.9 402.9 306.3 385.3 307.3C367.8 308.3 350.2 307.1 332.8 304.9C315.3 302.7 298 299.5 280.6 296.5C263.1 293.5 245.6 290.7 227.8 289.2C225.6 289 223.4 288.9 221.3 288.7C220.5 288.6 219.5 289 220 289.9C220.4 290.9 222.1 291.2 223 291.3Z" fill="white"/>
</g>
<mask id="mask18_201_751" style="mask-type:luminance" maskUnits="userSpaceOnUse" x="51" y="51" width="398" height="398">
<path d="M250 448.5C359.629 448.5 448.5 359.629 448.5 250C448.5 140.371 359.629 51.5 250 51.5C140.371 51.5 51.5 140.371 51.5 250C51.5 359.629 140.371 448.5 250 448.5Z" fill="white"/>
</mask>
<g mask="url(#mask18_201_751)">
<path d="M211.2 293C229.6 295.7 247.6 300.6 265.4 305.9C283.2 311.2 301 316.8 319.1 321.1C337.4 325.4 356 328.1 374.8 329.1C393.6 330.1 412.5 329.5 431.2 327.5C449.9 325.5 468.5 322 486.8 317.3C489 316.7 491.2 316.1 493.4 315.5C494.6 315.2 495.1 313.7 494.6 312.7C493.9 311.5 492.5 311.3 491.3 311.6C473.4 316.5 455.1 320.2 436.6 322.5C418.2 324.8 399.6 325.8 381 325.1C362.5 324.4 344 322.3 325.9 318.3C307.7 314.3 290 308.8 272.2 303.4C254.5 298.1 236.6 293 218.4 289.8C216.2 289.4 213.9 289.1 211.7 288.7C210.5 288.5 209.1 289.3 209 290.6C208.8 292 210.1 292.8 211.2 293Z" fill="white"/>
</g>
<mask id="mask19_201_751" style="mask-type:luminance" maskUnits="userSpaceOnUse" x="51" y="51" width="398" height="398">
<path d="M250 448.5C359.629 448.5 448.5 359.629 448.5 250C448.5 140.371 359.629 51.5 250 51.5C140.371 51.5 51.5 140.371 51.5 250C51.5 359.629 140.371 448.5 250 448.5Z" fill="white"/>
</mask>
<g mask="url(#mask19_201_751)">
<path d="M197.2 293C205.9 294.5 214.7 296.1 222.8 299.7C230.9 303.3 238.2 308.7 245.9 313.2C261.1 322.3 277 330 294.1 334.7C311.6 339.5 329.6 341.7 347.6 344.1C365.2 346.5 382.9 348.5 400.6 348.8C418.1 349.1 435.6 347.6 452.5 342.8C454.7 342.2 456.8 341.5 458.9 340.8C459.8 340.5 461.4 339.9 461.9 339.1C462.3 338.3 461.2 338.7 460.8 338.8C444.2 344.3 426.7 346.3 409.3 346.4C391.7 346.5 374.1 344.6 356.6 342.3C338.9 340 321 337.9 303.6 333.6C286.5 329.4 270.5 322.5 255.3 313.8C247.7 309.4 240.4 304.4 232.7 300.1C224.9 295.8 216.6 293.4 207.9 291.8C205.8 291.4 203.6 291 201.5 290.6C200.6 290.4 199.3 291.2 198.6 291.6C198.3 291.7 196.6 292.9 197.2 293Z" fill="white"/>
</g>
<mask id="mask20_201_751" style="mask-type:luminance" maskUnits="userSpaceOnUse" x="51" y="51" width="398" height="398">
<path d="M250 448.5C359.629 448.5 448.5 359.629 448.5 250C448.5 140.371 359.629 51.5 250 51.5C140.371 51.5 51.5 140.371 51.5 250C51.5 359.629 140.371 448.5 250 448.5Z" fill="white"/>
</mask>
<g mask="url(#mask20_201_751)">
<path d="M194.3 294.1C202.2 299 210.2 304 217.8 309.4C225.2 314.7 232.2 320.5 238.6 327C245 333.5 251.1 340.3 258.2 346.1C265.2 351.8 273 356.3 281.2 360C298 367.6 316.3 372.3 334.3 375.5C353 378.9 372.1 380.5 391.2 380.5C410.3 380.6 429.4 379.1 448.4 376.5C450.7 376.2 453.1 375.8 455.4 375.5C456.2 375.4 454.9 373.9 454.7 373.7C454.2 373.2 453 371.8 452.2 371.9C433.4 374.8 414.4 376.6 395.4 376.9C376.5 377.2 357.6 376.1 338.9 373.2C320.6 370.4 302.2 366 285 359.2C276.8 355.9 268.8 352 261.6 346.8C254.3 341.6 248.3 335 242.1 328.6C235.7 322 228.9 315.8 221.5 310.2C214.1 304.6 206.3 299.6 198.4 294.6C196.5 293.4 194.5 292.2 192.6 291C191.8 290.5 191.6 290.9 192 291.7C192.3 292.7 193.3 293.5 194.3 294.1Z" fill="white"/>
</g>
<mask id="mask21_201_751" style="mask-type:luminance" maskUnits="userSpaceOnUse" x="51" y="51" width="398" height="398">
<path d="M250 448.5C359.629 448.5 448.5 359.629 448.5 250C448.5 140.371 359.629 51.5 250 51.5C140.371 51.5 51.5 140.371 51.5 250C51.5 359.629 140.371 448.5 250 448.5Z" fill="white"/>
</mask>
<g mask="url(#mask21_201_751)">
<path d="M185.6 294.3C193 298.2 198.1 304.9 202.2 311.9C206.7 319.5 210.3 327.5 215.1 334.9C225.4 350.8 239.4 364.3 255.8 374C265 379.4 274.8 383.7 284.6 387.8C294.7 392 304.9 396.3 315.2 400.1C335.6 407.6 356.7 412.5 378.2 415.3C399.7 418.1 421.4 419 443 419.1C445.7 419.1 448.3 419.1 451 419.1C452.2 419.1 453.6 418.4 453.8 417.1C454 415.9 452.8 414.9 451.6 414.9C430.1 414.9 408.6 414.4 387.2 412.1C365.9 409.8 344.8 405.7 324.5 398.8C314.1 395.3 303.9 391.1 293.8 386.9C284.1 382.9 274.3 378.9 265 373.9C248.2 365 233.4 352.5 222.4 336.9C217.3 329.6 213.3 321.7 209.1 314C205.1 306.7 200.6 299.4 193.9 294.3C192.2 293 190.5 291.8 188.6 290.9C187.5 290.3 185.9 290.5 185.1 291.5C184.4 292.3 184.5 293.7 185.6 294.3Z" fill="white"/>
</g>
<mask id="mask22_201_751" style="mask-type:luminance" maskUnits="userSpaceOnUse" x="51" y="51" width="398" height="398">
<path d="M250 448.5C359.629 448.5 448.5 359.629 448.5 250C448.5 140.371 359.629 51.5 250 51.5C140.371 51.5 51.5 140.371 51.5 250C51.5 359.629 140.371 448.5 250 448.5Z" fill="white"/>
</mask>
<g mask="url(#mask22_201_751)">
<path d="M164.1 294C172.3 295.6 178.6 301.8 183.4 308.4C188.7 315.7 192.9 323.8 197.1 331.7C205.7 348.2 213.5 365.3 224 380.7C234.2 395.6 247.2 408.1 262.2 418C277.6 428.2 294.8 435.6 312.4 441C332 447 352.3 450.5 372.6 453C375.1 453.3 377.6 453.6 380.1 453.9C381.2 454 382.5 453.6 383.4 453C383.8 452.8 385 451.7 383.8 451.6C363.4 449.2 343.1 446.1 323.3 440.7C305.1 435.7 287.4 428.8 271.3 418.9C255.9 409.5 242.2 397.6 231.5 383.1C220.4 368 212.5 351 204 334.5C199.8 326.3 195.5 318.1 190.5 310.4C186.1 303.7 180.7 296.8 173.3 293.4C171.5 292.6 169.6 292 167.7 291.6C166.6 291.4 165.3 291.9 164.4 292.5C164.1 292.9 163 293.8 164.1 294Z" fill="white"/>
</g>
<mask id="mask23_201_751" style="mask-type:luminance" maskUnits="userSpaceOnUse" x="51" y="51" width="398" height="398">
<path d="M250 448.5C359.629 448.5 448.5 359.629 448.5 250C448.5 140.371 359.629 51.5 250 51.5C140.371 51.5 51.5 140.371 51.5 250C51.5 359.629 140.371 448.5 250 448.5Z" fill="white"/>
</mask>
<g mask="url(#mask23_201_751)">
<path d="M155.1 293C169.6 299.5 175.2 315.8 178.8 330C180.9 338.4 183 346.9 185.5 355.2C188 363.5 191 371.6 194.4 379.6C200.7 394.4 208.9 408.4 219.4 420.8C229.7 433 242.2 443 256.4 450.3C271.1 457.9 286.9 462.8 302.7 467.4C304.7 468 306.6 468.5 308.6 469.1C311.4 469.9 313.2 465.8 310.1 464.9C294.4 460.4 278.6 455.8 263.7 448.8C256.4 445.4 249.4 441.4 243 436.5C236.9 431.9 231.2 426.7 226.1 421.1C215.4 409.3 207.1 395.6 200.5 381.1C193.4 365.5 188.7 349 184.6 332.4C180.9 317.3 176.1 300.9 162.5 291.8C161 290.8 159.5 289.9 157.8 289.2C156.6 288.7 155.1 289 154.4 290.1C153.7 291.1 154 292.5 155.1 293Z" fill="white"/>
</g>
<mask id="mask24_201_751" style="mask-type:luminance" maskUnits="userSpaceOnUse" x="51" y="51" width="398" height="398">
<path d="M250 448.5C359.629 448.5 448.5 359.629 448.5 250C448.5 140.371 359.629 51.5 250 51.5C140.371 51.5 51.5 140.371 51.5 250C51.5 359.629 140.371 448.5 250 448.5Z" fill="white"/>
</mask>
<g mask="url(#mask24_201_751)">
<path d="M151.6 290.7C158.2 313.8 158.4 338.1 159.8 361.9C161.1 385.2 163.7 409 174.4 430.1C180.3 441.7 188.5 452.1 198.3 460.7C199.1 461.4 200.7 461.5 201.6 461.5C202.1 461.5 203.4 461.4 202.6 460.7C193.9 453.1 186.6 443.9 181 433.8C175.3 423.6 171.6 412.6 169.2 401.2C164.3 378.1 164.7 354.2 162.9 330.8C161.9 317.5 160.2 304.3 156.5 291.5C156.1 290.1 151.4 290.3 151.6 290.7Z" fill="white"/>
</g>
<mask id="mask25_201_751" style="mask-type:luminance" maskUnits="userSpaceOnUse" x="51" y="51" width="398" height="398">
<path d="M250 448.5C359.629 448.5 448.5 359.629 448.5 250C448.5 140.371 359.629 51.5 250 51.5C140.371 51.5 51.5 140.371 51.5 250C51.5 359.629 140.371 448.5 250 448.5Z" fill="white"/>
</mask>
<g mask="url(#mask25_201_751)">
<path d="M148.5 290.4C145.4 301.8 142.3 313.2 139.2 324.6C136.2 335.8 132.9 346.9 130.5 358.2C126.2 378.8 126.4 400 131.7 420.4C134.6 431.7 139 442.7 144.7 452.9C145.2 453.8 146.4 454.9 147.5 454.6C148.6 454.2 148.4 452.8 148 452C138.1 434.4 132.5 414.5 131.6 394.3C131.1 383.9 132 373.6 134 363.4C136.1 352.3 139.3 341.4 142.3 330.5C145.7 317.9 149.2 305.3 152.6 292.6C153.1 290.8 149.3 287.8 148.5 290.4Z" fill="white"/>
</g>
<mask id="mask26_201_751" style="mask-type:luminance" maskUnits="userSpaceOnUse" x="51" y="51" width="398" height="398">
<path d="M250 448.5C359.629 448.5 448.5 359.629 448.5 250C448.5 140.371 359.629 51.5 250 51.5C140.371 51.5 51.5 140.371 51.5 250C51.5 359.629 140.371 448.5 250 448.5Z" fill="white"/>
</mask>
<g mask="url(#mask26_201_751)">
<path d="M140.9 289.2C132.9 305.2 121.9 319.5 110.7 333.4C105.1 340.3 99.3002 347.1 94.4002 354.6C89.6002 361.9 86.2002 369.9 84.8002 378.5C83.2002 388 84.0002 397.8 87.0002 406.9C87.2002 407.6 91.6002 405.4 91.2002 404.1C85.7002 387.6 88.1002 369.5 97.2002 354.7C101.8 347.2 107.6 340.5 113.1 333.7C118.7 326.8 124.2 319.9 129.4 312.7C135.2 304.7 140.5 296.3 144.9 287.5C145.4 286.5 144 287 143.6 287.2C142.7 287.5 141.4 288.3 140.9 289.2Z" fill="white"/>
</g>
<mask id="mask27_201_751" style="mask-type:luminance" maskUnits="userSpaceOnUse" x="51" y="51" width="398" height="398">
<path d="M250 448.5C359.629 448.5 448.5 359.629 448.5 250C448.5 140.371 359.629 51.5 250 51.5C140.371 51.5 51.5 140.371 51.5 250C51.5 359.629 140.371 448.5 250 448.5Z" fill="white"/>
</mask>
<g mask="url(#mask27_201_751)">
<path d="M139 288.3C125.9 299 108.2 301.5 92.6002 306.7C84.5002 309.4 76.7002 313 70.0002 318.3C63.5002 323.5 58.2002 330.3 54.7002 337.9C50.7002 346.5 48.8002 356.1 49.6002 365.6C49.8002 367.9 54.7002 367.2 54.5002 364.8C53.2002 348.5 60.2002 331.9 72.6002 321.3C85.3002 310.5 102.5 307.8 117.9 302.8C126.9 299.9 135.6 296.2 142.9 290.2C143.8 289.5 143.5 288.2 142.5 287.8C141.3 287.1 139.9 287.5 139 288.3Z" fill="white"/>
</g>
<mask id="mask28_201_751" style="mask-type:luminance" maskUnits="userSpaceOnUse" x="51" y="51" width="398" height="398">
<path d="M250 448.5C359.629 448.5 448.5 359.629 448.5 250C448.5 140.371 359.629 51.5 250 51.5C140.371 51.5 51.5 140.371 51.5 250C51.5 359.629 140.371 448.5 250 448.5Z" fill="white"/>
</mask>
<g mask="url(#mask28_201_751)">
<path d="M138.7 286.4C129.9 288 121.2 289.6 112.3 290.5C103.3 291.4 94.3 291.3 85.3 290.7C68.7 289.6 51.9 287.4 35.4 291.1C27 293 18.9 296.4 12.2 301.8C9.69997 303.8 13.7 306.2 15.7 304.6C27.3 295.3 42.7 292.8 57.2 292.9C66 293 74.7 293.8 83.5 294.5C92.4 295.1 101.2 295.4 110.1 294.6C120.2 293.7 130.1 292 140 290.2C141.1 290 142.1 288.9 141.8 287.8C141.4 286.5 139.9 286.2 138.7 286.4Z" fill="white"/>
</g>
</g>
<defs>
<clipPath id="clip0_201_751">
<rect width="500" height="500" fill="white"/>
</clipPath>
</defs>
</svg>
