<svg width="500" height="500" viewBox="0 0 500 500" fill="none" xmlns="http://www.w3.org/2000/svg">
<g clip-path="url(#clip0_201_697)">
<mask id="mask0_201_697" style="mask-type:luminance" maskUnits="userSpaceOnUse" x="51" y="51" width="398" height="398">
<path d="M250 448.5C359.629 448.5 448.5 359.629 448.5 250C448.5 140.371 359.629 51.5 250 51.5C140.371 51.5 51.5 140.371 51.5 250C51.5 359.629 140.371 448.5 250 448.5Z" fill="white"/>
</mask>
<g mask="url(#mask0_201_697)">
<path d="M8.99997 283.7C22.9 297.8 36.9 311.8 51.1 325.5C65.3 339.2 79.7 352.8 94.3 366.2C108.9 379.6 123.7 392.7 138.6 405.7C153.5 418.7 168.6 431.4 183.9 444C199.2 456.6 214.6 468.9 230.2 481.1C232.1 482.6 234 484.1 235.9 485.6C236.9 486.4 238.3 486.7 239.4 486.1C240.3 485.6 240.7 484.3 239.7 483.6C224.1 471.5 208.6 459.2 193.3 446.6C178 434.1 162.8 421.4 147.9 408.4C132.9 395.5 118.1 382.4 103.5 369C88.9 355.7 74.4 342.2 60.1 328.5C45.8 314.8 31.7 300.9 17.8 286.8C16.1 285.1 14.4 283.3 12.7 281.6C11.9 280.7 10.2 280.6 9.19997 281.1C8.29997 281.8 8.19997 282.9 8.99997 283.7Z" fill="white"/>
</g>
<mask id="mask1_201_697" style="mask-type:luminance" maskUnits="userSpaceOnUse" x="51" y="51" width="398" height="398">
<path d="M250 448.5C359.629 448.5 448.5 359.629 448.5 250C448.5 140.371 359.629 51.5 250 51.5C140.371 51.5 51.5 140.371 51.5 250C51.5 359.629 140.371 448.5 250 448.5Z" fill="white"/>
</mask>
<g mask="url(#mask1_201_697)">
<path d="M292 455C308 442 323.4 428.3 338.4 414.3C353.4 400.3 367.9 386 382.4 371.5C397 356.9 411.5 342.2 426.1 327.6C440.6 313.2 455.2 298.9 470.3 285C485.4 271 500.9 257.5 517 244.7C519 243.1 521 241.6 522.9 240C523.8 239.3 523.6 237.9 522.7 237.3C521.6 236.6 520.2 236.9 519.2 237.6C503 250.2 487.3 263.6 472.1 277.5C457 291.3 442.3 305.5 427.8 319.9C413.1 334.4 398.7 349.1 384.1 363.7C369.6 378.2 355.1 392.6 340.2 406.7C325.2 420.9 309.9 434.7 294.1 447.8C292.2 449.4 290.2 451 288.3 452.6C287.4 453.4 287.6 454.7 288.5 455.3C289.6 456 291.1 455.8 292 455Z" fill="white"/>
</g>
<mask id="mask2_201_697" style="mask-type:luminance" maskUnits="userSpaceOnUse" x="51" y="51" width="398" height="398">
<path d="M250 448.5C359.629 448.5 448.5 359.629 448.5 250C448.5 140.371 359.629 51.5 250 51.5C140.371 51.5 51.5 140.371 51.5 250C51.5 359.629 140.371 448.5 250 448.5Z" fill="white"/>
</mask>
<g mask="url(#mask2_201_697)">
<path d="M57.1999 292.7C75.5999 308.3 94.0999 323.9 112.7 339.5C131.2 355 149.8 370.5 168.5 385.9C187.1 401.3 205.7 416.6 224.3 431.8C243.1 447.2 261.9 462.5 280.8 477.7C299.5 492.8 318.3 507.9 337.2 522.9C339.6 524.8 341.9 526.7 344.3 528.5C344.9 529 346.7 528.3 347.4 528.1C347.7 528 349.4 527.5 348.9 527.1C330 512 311.1 496.9 292.3 481.8C273.5 466.6 254.7 451.4 235.9 436.1C217.2 420.9 198.6 405.6 180 390.3C161.3 374.8 142.6 359.3 124 343.7C105.5 328.2 87.0999 312.7 68.6999 297.2C66.3999 295.3 64.0999 293.3 61.7999 291.4C61.1999 290.9 59.2999 291.6 58.6999 291.8C58.4999 291.8 56.7999 292.3 57.1999 292.7Z" fill="white"/>
</g>
<mask id="mask3_201_697" style="mask-type:luminance" maskUnits="userSpaceOnUse" x="51" y="51" width="398" height="398">
<path d="M250 448.5C359.629 448.5 448.5 359.629 448.5 250C448.5 140.371 359.629 51.5 250 51.5C140.371 51.5 51.5 140.371 51.5 250C51.5 359.629 140.371 448.5 250 448.5Z" fill="white"/>
</mask>
<g mask="url(#mask3_201_697)">
<path d="M240.6 443.6C258.8 428 276.9 412.5 295.2 397C313.4 381.6 331.7 366.3 350.2 351.3C368.7 336.3 387.4 321.5 406.3 307C425.3 292.5 444.6 278.4 464.2 264.8C483.8 251.3 503.7 238.2 524 225.8C526.5 224.3 529.1 222.7 531.6 221.2C534 219.7 531.4 215.5 528.9 217C508.4 229.3 488.3 242.2 468.6 255.7C449 269.1 429.7 283.1 410.7 297.4C391.7 311.7 372.9 326.5 354.4 341.4C335.8 356.4 317.4 371.7 299.1 387.2C280.9 402.6 262.8 418.1 244.6 433.6C242.3 435.5 240.1 437.5 237.8 439.4C236.8 440.2 236.6 441.5 237.3 442.7C238 443.5 239.6 444.4 240.6 443.6Z" fill="white"/>
</g>
<mask id="mask4_201_697" style="mask-type:luminance" maskUnits="userSpaceOnUse" x="51" y="51" width="398" height="398">
<path d="M250 448.5C359.629 448.5 448.5 359.629 448.5 250C448.5 140.371 359.629 51.5 250 51.5C140.371 51.5 51.5 140.371 51.5 250C51.5 359.629 140.371 448.5 250 448.5Z" fill="white"/>
</mask>
<g mask="url(#mask4_201_697)">
<path d="M60.7999 246.9C74.3999 257.6 87.8999 268.4 101.4 279.2C114.9 290.1 128.3 301 141.7 312C155.1 323 168.4 334 181.6 345.2C194.8 356.4 208.1 367.5 221.2 378.8C234.3 390 247.4 401.4 260.4 412.7C262.1 414.1 263.7 415.6 265.4 417C266.3 417.8 267.5 418.4 268.7 418.1C269.6 417.9 270.1 417.1 269.3 416.3C256.2 404.8 243.1 393.4 229.9 382.1C216.7 370.8 203.5 359.5 190.2 348.3C176.9 337.1 163.5 326 150.1 314.9C136.7 303.8 123.2 292.9 109.7 281.9C96.1999 271 82.6999 260.2 69.0999 249.5C67.3999 248.1 65.6999 246.8 63.8999 245.4C63.0999 244.8 61.4999 244.2 60.4999 244.7C59.4999 245.4 60.0999 246.4 60.7999 246.9Z" fill="white"/>
</g>
<mask id="mask5_201_697" style="mask-type:luminance" maskUnits="userSpaceOnUse" x="51" y="51" width="398" height="398">
<path d="M250 448.5C359.629 448.5 448.5 359.629 448.5 250C448.5 140.371 359.629 51.5 250 51.5C140.371 51.5 51.5 140.371 51.5 250C51.5 359.629 140.371 448.5 250 448.5Z" fill="white"/>
</mask>
<g mask="url(#mask5_201_697)">
<path d="M239.3 393.6C256.7 379.1 274.4 365.1 292.4 351.4C310.5 337.6 328.7 324.2 347.1 310.9C365.4 297.6 383.8 284.5 402.2 271.3C420.7 258.1 439.1 244.8 457.3 231.3C475.5 217.9 493.5 204.2 511.2 190.2C513.4 188.5 515.6 186.7 517.7 185C518.3 184.5 515.3 180.5 514.8 180.9C497.2 195 479.2 208.8 461 222.3C442.8 235.8 424.4 249.2 405.9 262.4C387.5 275.6 369.1 288.7 350.8 301.9C332.4 315.2 314.1 328.6 296 342.3C278 355.9 260.1 369.8 242.7 384.2C240.6 386 238.4 387.7 236.3 389.5C235.9 390 238.9 393.9 239.3 393.6Z" fill="white"/>
</g>
<mask id="mask6_201_697" style="mask-type:luminance" maskUnits="userSpaceOnUse" x="51" y="51" width="398" height="398">
<path d="M250 448.5C359.629 448.5 448.5 359.629 448.5 250C448.5 140.371 359.629 51.5 250 51.5C140.371 51.5 51.5 140.371 51.5 250C51.5 359.629 140.371 448.5 250 448.5Z" fill="white"/>
</mask>
<g mask="url(#mask6_201_697)">
<path d="M43.3999 176.3C57.9999 188.8 72.5999 201.3 87.1999 213.8C101.8 226.2 116.5 238.7 131.2 251C145.9 263.3 160.7 275.7 175.4 288C190.1 300.2 204.9 312.4 219.6 324.6C234.4 336.8 249.3 349 264.2 361.1C266 362.6 267.9 364.1 269.7 365.6C272.2 367.6 274.7 363.9 272.3 361.9C257.4 349.8 242.5 337.6 227.7 325.4C212.9 313.2 198 301 183.2 288.7C168.4 276.4 153.7 264.1 138.9 251.7C124.2 239.4 109.6 227.1 94.9999 214.7C80.2999 202.3 65.6999 189.8 51.0999 177.3C49.2999 175.7 47.4999 174.2 45.6999 172.6C44.7999 171.8 43.1999 171.9 42.3999 172.9C41.9999 174 42.3999 175.5 43.3999 176.3Z" fill="white"/>
</g>
<mask id="mask7_201_697" style="mask-type:luminance" maskUnits="userSpaceOnUse" x="51" y="51" width="398" height="398">
<path d="M250 448.5C359.629 448.5 448.5 359.629 448.5 250C448.5 140.371 359.629 51.5 250 51.5C140.371 51.5 51.5 140.371 51.5 250C51.5 359.629 140.371 448.5 250 448.5Z" fill="white"/>
</mask>
<g mask="url(#mask7_201_697)">
<path d="M247.7 341.5C263.6 326.9 279.5 312.4 295.6 297.9C311.6 283.5 327.7 269.1 343.9 254.8C360 240.6 376.2 226.4 392.4 212.3C408.7 198.2 425.1 184.1 441.5 170.1C457.9 156.2 474.3 142.3 490.8 128.5C492.9 126.8 494.9 125.1 497 123.3C497.8 122.6 496.2 122.8 495.9 122.8C494.9 123 493.5 123.3 492.7 124C476.1 137.8 459.6 151.7 443.2 165.7C426.8 179.7 410.4 193.7 394.1 207.8C377.9 221.9 361.7 236 345.6 250.2C329.4 264.5 313.3 278.8 297.3 293.2C281.3 307.6 265.4 322 249.6 336.5C247.6 338.3 245.6 340.1 243.7 341.9C242.9 342.6 244.5 342.4 244.8 342.4C245.5 342.6 246.9 342.3 247.7 341.5Z" fill="white"/>
</g>
<mask id="mask8_201_697" style="mask-type:luminance" maskUnits="userSpaceOnUse" x="51" y="51" width="398" height="398">
<path d="M250 448.5C359.629 448.5 448.5 359.629 448.5 250C448.5 140.371 359.629 51.5 250 51.5C140.371 51.5 51.5 140.371 51.5 250C51.5 359.629 140.371 448.5 250 448.5Z" fill="white"/>
</mask>
<g mask="url(#mask8_201_697)">
<path d="M51.2998 133.9C63.0998 148.1 75.1998 162 87.5998 175.7C99.9998 189.3 112.6 202.7 125.5 215.8C138.5 229 151.8 241.9 165.3 254.6C178.7 267.2 192.4 279.4 206.4 291.4C220.4 303.4 234.7 315.2 249.1 326.6C250.9 328 252.7 329.4 254.5 330.8C255.3 331.4 256.8 332.1 257.7 331.4C258.6 330.7 257.8 329.4 257.1 328.9C242.6 317.6 228.4 306 214.3 294C200.3 282.1 186.5 269.9 173 257.4C159.6 245 146.4 232.3 133.6 219.4C120.6 206.4 107.9 193.1 95.4998 179.5C83.0998 166 70.9998 152.1 59.0998 138.1C57.5998 136.4 56.1998 134.6 54.6998 132.9C53.9998 132.1 52.5998 131.3 51.4998 131.7C50.3998 132 50.6998 133.2 51.2998 133.9Z" fill="white"/>
</g>
<mask id="mask9_201_697" style="mask-type:luminance" maskUnits="userSpaceOnUse" x="51" y="51" width="398" height="398">
<path d="M250 448.5C359.629 448.5 448.5 359.629 448.5 250C448.5 140.371 359.629 51.5 250 51.5C140.371 51.5 51.5 140.371 51.5 250C51.5 359.629 140.371 448.5 250 448.5Z" fill="white"/>
</mask>
<g mask="url(#mask9_201_697)">
<path d="M244.2 313.2C258.3 300.2 272 286.8 285.4 273.1C298.8 259.4 312 245.5 325.1 231.5C338.2 217.5 351.1 203.5 364.3 189.7C377.5 175.8 390.8 162 404.4 148.5C418 135.1 431.8 122 446.2 109.5C448 107.9 449.8 106.3 451.7 104.8C452.1 104.4 450 104.6 449.9 104.6C449 104.7 447.6 104.8 446.9 105.4C432.4 117.9 418.3 130.9 404.6 144.3C390.9 157.7 377.5 171.4 364.4 185.3C351.2 199.2 338.2 213.1 325.2 227.1C312.1 241.1 299 255.1 285.6 268.9C272.3 282.6 258.8 296 244.8 309.1C243 310.7 241.3 312.4 239.5 314C239.1 314.4 241.2 314.2 241.3 314.2C242.1 313.9 243.5 313.8 244.2 313.2Z" fill="white"/>
</g>
<mask id="mask10_201_697" style="mask-type:luminance" maskUnits="userSpaceOnUse" x="51" y="51" width="398" height="398">
<path d="M250 448.5C359.629 448.5 448.5 359.629 448.5 250C448.5 140.371 359.629 51.5 250 51.5C140.371 51.5 51.5 140.371 51.5 250C51.5 359.629 140.371 448.5 250 448.5Z" fill="white"/>
</mask>
<g mask="url(#mask10_201_697)">
<path d="M71.7001 102.4C83.1001 116.7 94.5001 130.9 106.1 145C117.2 158.4 128.6 171.6 140.1 184.7C151.6 197.7 163.3 210.4 175.2 223C187.2 235.6 199.4 248.1 211.8 260.3C224.1 272.5 236.6 284.4 249.3 296.1C250.9 297.6 252.5 299.1 254.1 300.5C254.9 301.2 254.3 299.6 254.2 299.4C253.7 298.4 253.1 297.3 252.3 296.6C239.6 284.9 227 273.1 214.7 261C202.4 248.9 190.3 236.7 178.3 224.2C166.4 211.7 154.7 199.1 143.2 186.2C131.7 173.4 120.4 160.3 109.4 147.1C97.9001 133.3 86.6001 119.3 75.4001 105.3C74.0001 103.5 72.5001 101.7 71.1001 99.8999C70.8001 99.4999 70.1001 98.5999 70.1001 99.4999C70.0001 100.3 71.2001 101.8 71.7001 102.4Z" fill="white"/>
</g>
<mask id="mask11_201_697" style="mask-type:luminance" maskUnits="userSpaceOnUse" x="51" y="51" width="398" height="398">
<path d="M250 448.5C359.629 448.5 448.5 359.629 448.5 250C448.5 140.371 359.629 51.5 250 51.5C140.371 51.5 51.5 140.371 51.5 250C51.5 359.629 140.371 448.5 250 448.5Z" fill="white"/>
</mask>
<g mask="url(#mask11_201_697)">
<path d="M235.2 279.9C248.2 268.1 260.1 255.2 271.3 241.8C282.6 228.3 293.3 214.4 304.1 200.5C314.8 186.6 325.6 172.8 337 159.4C348.8 145.7 361.2 132.5 374.2 120C387.1 107.5 400.7 95.6002 414.7 84.3002C416.5 82.9002 418.3 81.5002 420.1 80.1002C421.5 79.0002 418 75.4002 416.5 76.6002C402.3 87.7002 388.5 99.5002 375.4 111.9C362.3 124.3 349.7 137.3 337.8 150.9C326.2 164.1 315.3 177.9 304.5 191.9C293.7 205.8 283.1 219.8 271.9 233.4C260.8 246.9 249.2 259.9 236.5 271.9C234.9 273.4 233.3 274.9 231.6 276.4C230.3 277.6 233.8 281.1 235.2 279.9Z" fill="white"/>
</g>
<mask id="mask12_201_697" style="mask-type:luminance" maskUnits="userSpaceOnUse" x="51" y="51" width="398" height="398">
<path d="M250 448.5C359.629 448.5 448.5 359.629 448.5 250C448.5 140.371 359.629 51.5 250 51.5C140.371 51.5 51.5 140.371 51.5 250C51.5 359.629 140.371 448.5 250 448.5Z" fill="white"/>
</mask>
<g mask="url(#mask12_201_697)">
<path d="M106.6 98.7C126.1 118.4 145.2 138.5 164.2 158.7C183.1 179 201.8 199.5 220.1 220.2C230.5 231.9 240.7 243.7 250.9 255.5C251.5 256.1 252.9 257.2 253.9 256.7C254.9 256.2 253.9 254.9 253.5 254.4C235.4 233.4 217.1 212.6 198.5 192C179.9 171.5 161 151.2 141.8 131.1C131 119.8 120.1 108.6 109.1 97.4C108.5 96.8 107.1 95.7 106.1 96.2C105.2 96.9 106.1 98.2 106.6 98.7Z" fill="white"/>
</g>
<mask id="mask13_201_697" style="mask-type:luminance" maskUnits="userSpaceOnUse" x="51" y="51" width="398" height="398">
<path d="M250 448.5C359.629 448.5 448.5 359.629 448.5 250C448.5 140.371 359.629 51.5 250 51.5C140.371 51.5 51.5 140.371 51.5 250C51.5 359.629 140.371 448.5 250 448.5Z" fill="white"/>
</mask>
<g mask="url(#mask13_201_697)">
<path d="M237.1 232.4C257.4 210.9 277.3 189 296.9 166.8C316.4 144.7 335.5 122.3 354.2 99.6001C364.8 86.8001 375.2 73.8001 385.6 60.8001C386.6 59.5001 383 56.1001 382 57.3001C363.6 80.5001 344.9 103.4 325.7 125.9C306.7 148.3 287.2 170.4 267.5 192.2C256.3 204.5 245 216.7 233.6 228.8C232.4 230.1 236 233.6 237.1 232.4Z" fill="white"/>
</g>
<mask id="mask14_201_697" style="mask-type:luminance" maskUnits="userSpaceOnUse" x="51" y="51" width="398" height="398">
<path d="M250 448.5C359.629 448.5 448.5 359.629 448.5 250C448.5 140.371 359.629 51.5 250 51.5C140.371 51.5 51.5 140.371 51.5 250C51.5 359.629 140.371 448.5 250 448.5Z" fill="white"/>
</mask>
<g mask="url(#mask14_201_697)">
<path d="M120.2 77.7C129.5 83.4 136.9 92 144.4 99.7C153 108.5 161.7 117.4 170.3 126.3C187.4 143.9 204.5 161.5 221.6 179.2C231.2 189.2 240.8 199.1 250.4 209.1C251.2 209.9 252.1 210.6 253.1 211.2C253.3 211.3 254.7 212.1 254.1 211.4C236.5 193.1 218.9 174.8 201.2 156.6C183.5 138.4 165.7 120.2 148 102C138.8 92.6 129.7 82.8 118.4 75.8C118.1 75.6 117 74.8 117.4 75.6C117.9 76.4 119.4 77.3 120.2 77.7Z" fill="white"/>
</g>
<mask id="mask15_201_697" style="mask-type:luminance" maskUnits="userSpaceOnUse" x="51" y="51" width="398" height="398">
<path d="M250 448.5C359.629 448.5 448.5 359.629 448.5 250C448.5 140.371 359.629 51.5 250 51.5C140.371 51.5 51.5 140.371 51.5 250C51.5 359.629 140.371 448.5 250 448.5Z" fill="white"/>
</mask>
<g mask="url(#mask15_201_697)">
<path d="M235.6 190.3C243.4 182 250.6 173.1 257.6 164.1C264.8 154.8 272 145.5 279.2 136.2C293.7 117.4 308.2 98.6998 322.8 79.8998C331 69.2998 339.2 58.6998 347.4 48.0998C348 47.2998 344.1 44.1998 343.4 45.0998C328.8 63.8998 314.3 82.7998 299.7 101.6C285.2 120.3 270.8 139 256.3 157.7C248.4 167.8 240.4 177.9 231.7 187.3C231 188 234.8 191.2 235.6 190.3Z" fill="white"/>
</g>
<mask id="mask16_201_697" style="mask-type:luminance" maskUnits="userSpaceOnUse" x="51" y="51" width="398" height="398">
<path d="M250 448.5C359.629 448.5 448.5 359.629 448.5 250C448.5 140.371 359.629 51.5 250 51.5C140.371 51.5 51.5 140.371 51.5 250C51.5 359.629 140.371 448.5 250 448.5Z" fill="white"/>
</mask>
<g mask="url(#mask16_201_697)">
<path d="M148.3 62.1002C160.9 75.9002 173.9 89.3002 187.2 102.4C200.5 115.5 214.1 128.3 228 140.8C235.8 147.8 243.8 154.7 251.8 161.5C252.8 162.3 254.1 162.2 255.2 161.5C256 160.9 256.8 159.4 255.8 158.6C241.5 146.5 227.6 134.1 213.9 121.4C200.3 108.6 186.9 95.6002 173.9 82.2002C166.6 74.7002 159.4 67.0002 152.2 59.3002C150.6 57.4002 146.4 60.1002 148.3 62.1002Z" fill="white"/>
</g>
<mask id="mask17_201_697" style="mask-type:luminance" maskUnits="userSpaceOnUse" x="51" y="51" width="398" height="398">
<path d="M250 448.5C359.629 448.5 448.5 359.629 448.5 250C448.5 140.371 359.629 51.5 250 51.5C140.371 51.5 51.5 140.371 51.5 250C51.5 359.629 140.371 448.5 250 448.5Z" fill="white"/>
</mask>
<g mask="url(#mask17_201_697)">
<path d="M234.1 139.6C249.6 125.1 264.9 110.4 280.1 95.6002C295.2 80.9002 310.2 66.0002 325 50.9002C333.3 42.4002 341.6 33.9001 349.9 25.3001C351.5 23.6001 348.6 19.6001 346.8 21.5001C332.1 36.8001 317.3 52.0001 302.3 67.0001C287.4 81.9001 272.3 96.7002 257 111.4C248.4 119.6 239.8 127.8 231.1 136C229.4 137.3 232.2 141.4 234.1 139.6Z" fill="white"/>
</g>
<mask id="mask18_201_697" style="mask-type:luminance" maskUnits="userSpaceOnUse" x="51" y="51" width="398" height="398">
<path d="M250 448.5C359.629 448.5 448.5 359.629 448.5 250C448.5 140.371 359.629 51.5 250 51.5C140.371 51.5 51.5 140.371 51.5 250C51.5 359.629 140.371 448.5 250 448.5Z" fill="white"/>
</mask>
<g mask="url(#mask18_201_697)">
<path d="M177.5 57.3002C196.5 72.7002 215.2 88.4002 233.6 104.5C238.8 109 244 113.6 249.1 118.2C251 119.9 254.8 116.6 252.6 114.8C234.3 98.5002 215.8 82.6002 197 67.0002C191.7 62.6002 186.3 58.2002 181 53.9002C179 52.3002 175.3 55.6002 177.5 57.3002Z" fill="white"/>
</g>
<mask id="mask19_201_697" style="mask-type:luminance" maskUnits="userSpaceOnUse" x="51" y="51" width="398" height="398">
<path d="M250 448.5C359.629 448.5 448.5 359.629 448.5 250C448.5 140.371 359.629 51.5 250 51.5C140.371 51.5 51.5 140.371 51.5 250C51.5 359.629 140.371 448.5 250 448.5Z" fill="white"/>
</mask>
<g mask="url(#mask19_201_697)">
<path d="M237.5 96.6002C258.3 79.5002 278.5 61.7002 298.1 43.3002C303.6 38.1002 309.1 32.9002 314.6 27.6002C315.4 26.9002 313.7 27.3002 313.5 27.4002C312.5 27.8002 311.4 28.4002 310.6 29.1002C291.4 47.7002 271.7 65.7002 251.4 83.1002C245.7 88.0002 239.9 92.8002 234.1 97.6002C233.4 98.2002 233.6 98.4002 234.4 98.2002C235.5 97.9002 236.6 97.3002 237.5 96.6002Z" fill="white"/>
</g>
<mask id="mask20_201_697" style="mask-type:luminance" maskUnits="userSpaceOnUse" x="51" y="51" width="398" height="398">
<path d="M250 448.5C359.629 448.5 448.5 359.629 448.5 250C448.5 140.371 359.629 51.5 250 51.5C140.371 51.5 51.5 140.371 51.5 250C51.5 359.629 140.371 448.5 250 448.5Z" fill="white"/>
</mask>
<g mask="url(#mask20_201_697)">
<path d="M210.9 49.8998C221.9 62.7998 234.2 74.5998 247.7 84.8998C248.5 85.4998 250 86.2998 251 85.7998C252 85.3998 251.6 84.2998 250.9 83.7998C237.7 73.6998 225.6 62.2998 214.9 49.5998C214.2 48.6998 212.8 48.0998 211.6 48.1998C210.7 48.1998 210.2 48.9998 210.9 49.8998Z" fill="white"/>
</g>
<mask id="mask21_201_697" style="mask-type:luminance" maskUnits="userSpaceOnUse" x="51" y="51" width="398" height="398">
<path d="M250 448.5C359.629 448.5 448.5 359.629 448.5 250C448.5 140.371 359.629 51.5 250 51.5C140.371 51.5 51.5 140.371 51.5 250C51.5 359.629 140.371 448.5 250 448.5Z" fill="white"/>
</mask>
<g mask="url(#mask21_201_697)">
<path d="M240.3 74.8001C255.2 59.4001 271.1 45.0001 287.9 31.8001C292.7 28.0001 297.5 24.4001 302.4 20.8001C304.8 19.1001 301.1 15.9001 299.1 17.4001C281.6 30.2001 264.9 44.1001 249.3 59.1001C244.9 63.4001 240.5 67.7001 236.2 72.1001C234.2 74.0001 238.5 76.6001 240.3 74.8001Z" fill="white"/>
</g>
</g>
<defs>
<clipPath id="clip0_201_697">
<rect width="500" height="500" fill="white"/>
</clipPath>
</defs>
</svg>
