<svg width="500" height="500" viewBox="0 0 500 500" fill="none" xmlns="http://www.w3.org/2000/svg">
<g clip-path="url(#clip0_201_720)">
<mask id="mask0_201_720" style="mask-type:luminance" maskUnits="userSpaceOnUse" x="51" y="51" width="398" height="398">
<path d="M250 448.5C359.629 448.5 448.5 359.629 448.5 250C448.5 140.371 359.629 51.5 250 51.5C140.371 51.5 51.5 140.371 51.5 250C51.5 359.629 140.371 448.5 250 448.5Z" fill="white"/>
</mask>
<g mask="url(#mask0_201_720)">
<path d="M58.1998 101.3C90.7998 101.3 123.3 101.3 155.9 101.4C163.4 101.4 171.2 102 178.5 100C185.6 98.1 192 93.8 198.4 90.3C211.7 83.1 225.6 76.2 240.6 73.4C253.7 71 267.8 71.7 279.8 77.8C291.1 83.5 298.5 95.7 311.1 99C318.5 101 326.6 100.1 334.1 100.1C342.3 100.1 350.6 100.1 358.8 100.2C375.1 100.4 391.4 100.8 407.7 101.4C440.3 102.6 472.8 104.7 505.3 107.5C509.4 107.9 513.5 108.2 517.6 108.6C518.4 108.7 517.2 106.9 517.1 106.7C516.6 106 515.6 104.8 514.7 104.7C482.2 101.6 449.7 99.4 417.1 97.9C384.4 96.5 351.8 96.3 319.1 96.1C311.7 96 305.1 94.7 299 90.3C293.8 86.5 289.4 81.7 284.1 77.9C273.5 70.2 260.2 67.4 247.3 68.2C233 69 219.4 74.1 206.7 80.4C199.9 83.7 193.3 87.5 186.6 91.1C183.4 92.8 180.2 94.5 176.8 95.6C173 96.8 168.9 97.2 164.9 97.3C148.8 97.7 132.6 97.3 116.4 97.3C100.1 97.3 83.7998 97.3 67.5998 97.3C63.4998 97.3 59.3998 97.3 55.2998 97.3C54.4998 97.3 55.6998 99 55.7998 99.2C56.1998 99.9 57.2998 101.3 58.1998 101.3Z" fill="white"/>
</g>
<mask id="mask1_201_720" style="mask-type:luminance" maskUnits="userSpaceOnUse" x="51" y="51" width="398" height="398">
<path d="M250 448.5C359.629 448.5 448.5 359.629 448.5 250C448.5 140.371 359.629 51.5 250 51.5C140.371 51.5 51.5 140.371 51.5 250C51.5 359.629 140.371 448.5 250 448.5Z" fill="white"/>
</mask>
<g mask="url(#mask1_201_720)">
<path d="M80.2998 116.5C109.2 115.9 138 115.3 166.9 114.7C173.6 114.6 180.6 115 187.2 113.7C193.5 112.5 198.6 108.5 204 105.3C215.1 98.7002 227.2 93.7002 240 91.2002C252.1 88.9002 264.7 89.2002 276.5 92.8002C282.2 94.6002 287.6 97.1002 292.6 100.4C297.6 103.7 301.8 108.2 307 111.1C312.6 114.3 318.9 114.8 325.2 115.3C332.3 115.8 339.4 116.4 346.6 116.9C361 117.9 375.4 118.8 389.8 119.6C418.5 121.2 447.1 122.3 475.8 123C479.4 123.1 483.1 123.2 486.7 123.2C489.5 123.3 487.8 118.7 485.6 118.7C456.8 118.1 428 117.1 399.2 115.6C384.9 114.9 370.7 114.1 356.4 113.1C349.1 112.6 341.9 112.1 334.6 111.6C327.9 111.1 320.9 111.1 314.3 109.7C308.1 108.3 303.5 104.3 298.6 100.4C293.9 96.6002 288.8 93.5002 283.3 91.0002C272.4 86.3002 260.3 84.5002 248.5 85.3002C235.8 86.2002 223.6 89.9002 212.2 95.3002C206.3 98.1002 200.7 101.4 195.2 104.8C192.5 106.5 189.6 108.1 186.5 108.9C183.2 109.8 179.7 109.8 176.3 109.9C147.6 110.5 118.8 111.1 90.0998 111.7C86.4998 111.8 82.7998 111.9 79.1998 111.9C76.3998 112.1 78.0998 116.6 80.2998 116.5Z" fill="white"/>
</g>
<mask id="mask2_201_720" style="mask-type:luminance" maskUnits="userSpaceOnUse" x="51" y="51" width="398" height="398">
<path d="M250 448.5C359.629 448.5 448.5 359.629 448.5 250C448.5 140.371 359.629 51.5 250 51.5C140.371 51.5 51.5 140.371 51.5 250C51.5 359.629 140.371 448.5 250 448.5Z" fill="white"/>
</mask>
<g mask="url(#mask2_201_720)">
<path d="M78.0999 132.9C105.5 132.7 133 132.5 160.4 132.2C167 132.1 173.8 132.6 180.3 131.6C186.6 130.7 192.2 127.7 198 125.1C209.8 119.8 221.9 115 234.6 112.2C246 109.7 257.8 109.2 269.2 111.5C274.6 112.6 279.9 114.4 284.9 116.8C290 119.3 294.2 122.8 298.5 126.4C300.7 128.2 303 129.6 305.8 130.3C308.6 131 311.6 131 314.5 131.1C321.4 131.3 328.3 131.5 335.1 131.7C348.9 132.1 362.6 132.5 376.4 132.9C404 133.7 431.7 134.6 459.3 135.4C462.7 135.5 466 135.6 469.4 135.7C470.3 135.7 472.1 135.4 472.3 134.4C472.6 133.3 471.1 133 470.4 133C442.9 132.2 415.4 131.3 387.9 130.5C374.1 130.1 360.4 129.7 346.6 129.3C339.6 129.1 332.6 128.9 325.6 128.7C322.2 128.6 318.9 128.5 315.5 128.4C312.4 128.3 309.2 128.4 306.3 127.1C303.8 125.9 301.8 123.8 299.7 122C297.6 120.2 295.3 118.5 292.9 117.1C288.3 114.3 283.2 112.1 278 110.5C267.3 107.3 256 106.6 245 107.7C232.3 109 220 112.8 208.2 117.4C202.2 119.7 196.4 122.4 190.5 125C187.5 126.4 184.5 127.8 181.3 128.5C178.2 129.2 174.9 129.2 171.7 129.2C144.1 129.4 116.6 129.7 88.9999 129.9C85.5999 129.9 82.2999 130 78.8999 130C77.9999 130 76.1999 130.3 75.9999 131.3C75.8999 132.6 77.3999 132.9 78.0999 132.9Z" fill="white"/>
</g>
<mask id="mask3_201_720" style="mask-type:luminance" maskUnits="userSpaceOnUse" x="51" y="51" width="398" height="398">
<path d="M250 448.5C359.629 448.5 448.5 359.629 448.5 250C448.5 140.371 359.629 51.5 250 51.5C140.371 51.5 51.5 140.371 51.5 250C51.5 359.629 140.371 448.5 250 448.5Z" fill="white"/>
</mask>
<g mask="url(#mask3_201_720)">
<path d="M71.2998 147.2C99.1998 145.6 127.1 144.9 155 145.1C162.1 145.2 169.1 145.3 176.2 145.4C182.8 145.6 189.7 146.4 196.2 145.1C202.3 143.8 207.7 140.2 213.2 137.6C219 135 225 132.7 231.2 131.1C243 128 255.4 127.2 267.3 130C272.9 131.3 278.2 133.4 283.1 136.2C285.6 137.6 287.9 139.3 290.1 141.1C292.3 142.9 294.4 145 296.9 146.5C302.3 149.8 308.7 149.4 314.8 149.3C321.7 149.2 328.7 149.1 335.6 149C349.7 148.9 363.7 148.8 377.8 148.9C405.7 149 433.6 149.5 461.4 150.4C464.9 150.5 468.3 150.6 471.8 150.7C472.8 150.7 474.3 150.5 474.4 149.3C474.5 148.2 473 147.4 472.1 147.4C444.1 146.4 416.1 145.8 388.1 145.6C374.1 145.5 360.2 145.5 346.2 145.6C339.3 145.6 332.3 145.7 325.4 145.8C321.8 145.8 318.2 145.9 314.6 146C311.4 146.1 308.1 146.3 304.9 145.8C299 144.9 295.1 139.8 290.5 136.6C285.8 133.3 280.6 130.7 275.2 128.8C264 124.9 251.9 124.1 240.2 125.8C227.6 127.6 215.5 131.9 204.2 137.7C201.4 139.1 198.6 140.7 195.6 141.6C192.4 142.6 188.9 142.5 185.6 142.4C178.5 142.2 171.5 142 164.4 141.9C136.5 141.5 108.5 142 80.5998 143.3C77.0998 143.5 73.6998 143.7 70.1998 143.9C69.1998 144 67.9998 144.7 68.2998 145.8C68.6998 146.9 70.2998 147.3 71.2998 147.2Z" fill="white"/>
</g>
<mask id="mask4_201_720" style="mask-type:luminance" maskUnits="userSpaceOnUse" x="51" y="51" width="398" height="398">
<path d="M250 448.5C359.629 448.5 448.5 359.629 448.5 250C448.5 140.371 359.629 51.5 250 51.5C140.371 51.5 51.5 140.371 51.5 250C51.5 359.629 140.371 448.5 250 448.5Z" fill="white"/>
</mask>
<g mask="url(#mask4_201_720)">
<path d="M58.3002 157.4C87.7002 158.1 117 158.7 146.4 159.2C160.9 159.4 175.5 160 190 159.7C196.8 159.6 203.7 159 210.3 157.3C216.5 155.6 222.5 153 228.5 150.8C234.7 148.5 241 146.8 247.7 146.9C254.3 147 260.8 148.5 267 150.8C273.1 153.1 278.5 156.7 284.6 159.1C291 161.6 297.9 160.9 304.6 160.6C334 159.4 363.4 158.9 392.7 159C422 159.1 451.3 160 480.6 161.4C484.3 161.6 488.1 161.8 491.8 162C492.5 162 494.6 161.9 494.8 160.9C495 159.9 493.7 159.7 492.9 159.6C463.6 158 434.3 157 405 156.6C375.7 156.3 346.5 156.6 317.2 157.7C309.9 158 302.6 158.6 295.3 158.5C288.3 158.3 282.9 154.4 276.7 151.5C265.2 146.1 252.2 143.2 239.5 145.2C226.4 147.2 214.9 154.8 201.8 156.6C194.8 157.6 187.7 157.5 180.7 157.4C173.4 157.3 166 157.2 158.7 157.1C129.3 156.7 100 156.1 70.6002 155.4C66.9002 155.3 63.1002 155.2 59.4002 155.1C58.7002 155.1 56.6002 155.2 56.4002 156.2C56.2002 157.1 57.6002 157.3 58.3002 157.4Z" fill="white"/>
</g>
<mask id="mask5_201_720" style="mask-type:luminance" maskUnits="userSpaceOnUse" x="51" y="51" width="398" height="398">
<path d="M250 448.5C359.629 448.5 448.5 359.629 448.5 250C448.5 140.371 359.629 51.5 250 51.5C140.371 51.5 51.5 140.371 51.5 250C51.5 359.629 140.371 448.5 250 448.5Z" fill="white"/>
</mask>
<g mask="url(#mask5_201_720)">
<path d="M50.9002 172.7C79.9002 173.4 108.9 174.1 137.9 174.8C152.4 175.2 166.9 175.5 181.4 175.9C188.5 176.1 195.6 176.3 202.7 176.4C209.6 176.6 216 176.3 222.6 174C228.6 171.8 234.5 169.5 240.7 167.9C246.7 166.4 252.9 165.3 259.1 165.1C265.4 164.9 271.7 165.5 277.7 167.2C280.7 168.1 283.6 169.2 286.4 170.7C289.3 172.2 292 173.8 295.1 174.7C301.4 176.4 308.5 175.8 315 175.9C322.2 176 329.5 176.1 336.7 176.2C351.2 176.4 365.7 176.7 380.2 176.9C409.2 177.4 438.1 177.8 467.1 178.3C470.7 178.4 474.2 178.4 477.8 178.5C478 178.5 476.8 176.4 476.7 176.2C476.4 175.8 475.7 174.3 475 174.3C446 173.8 417.1 173.4 388.1 172.9C359.3 172.4 330.5 172 301.7 171.5C298.2 171.4 294.6 171.3 291.2 170.1C288.2 169 285.5 167.3 282.6 165.9C277.3 163.4 271.5 161.9 265.7 161.2C253.4 159.9 240.9 162.3 229.3 166.3C223.1 168.5 217.1 171.4 210.4 172C203.5 172.7 196.4 172.1 189.4 171.9C174.9 171.5 160.4 171.2 145.9 170.8C116.9 170.1 87.9002 169.4 58.9002 168.7C55.3002 168.6 51.8002 168.5 48.2002 168.4C48.0002 168.4 49.2002 170.5 49.3002 170.7C49.5002 171.3 50.2002 172.7 50.9002 172.7Z" fill="white"/>
</g>
<mask id="mask6_201_720" style="mask-type:luminance" maskUnits="userSpaceOnUse" x="51" y="51" width="398" height="398">
<path d="M250 448.5C359.629 448.5 448.5 359.629 448.5 250C448.5 140.371 359.629 51.5 250 51.5C140.371 51.5 51.5 140.371 51.5 250C51.5 359.629 140.371 448.5 250 448.5Z" fill="white"/>
</mask>
<g mask="url(#mask6_201_720)">
<path d="M34.2001 189.6C65.5001 191 96.9001 191.8 128.3 192C159.2 192.1 190.2 191.9 221.1 190.6C228.5 190.3 235.9 189.7 243.3 188.6C250.7 187.5 258.7 184.9 266.1 186.9C269.3 187.8 272.3 189.4 275.5 190.6C278.9 191.9 282.4 192.7 286 193C293.6 193.8 301.5 193.4 309.1 193.5C340.3 193.8 371.6 194.1 402.8 194.3C437.8 194.6 472.9 194.9 507.9 195.2C508.8 195.2 510.4 195 510.5 193.9C510.6 192.8 509 192.2 508.1 192.2C445.3 191.6 382.5 191.1 319.7 190.5C312.1 190.4 304.6 190.4 297 190.3C293.4 190.3 289.8 190.3 286.2 189.9C282.3 189.5 278.7 188.3 275.1 186.8C272.1 185.5 269.1 184.2 265.9 183.6C262.2 182.9 258.4 183 254.7 183.4C247.1 184.3 239.6 186 231.9 186.7C216.7 188 201.4 188.1 186.1 188.4C170.3 188.7 154.5 188.9 138.8 188.9C104 188.9 69.1001 188.1 34.3001 186.5C31.4001 186.4 31.1001 189.4 34.2001 189.6Z" fill="white"/>
</g>
<mask id="mask7_201_720" style="mask-type:luminance" maskUnits="userSpaceOnUse" x="51" y="51" width="398" height="398">
<path d="M250 448.5C359.629 448.5 448.5 359.629 448.5 250C448.5 140.371 359.629 51.5 250 51.5C140.371 51.5 51.5 140.371 51.5 250C51.5 359.629 140.371 448.5 250 448.5Z" fill="white"/>
</mask>
<g mask="url(#mask7_201_720)">
<path d="M46.2 209.2C78.2 208 110.2 207.9 142.2 208.7C158.1 209.1 173.9 209.8 189.8 210.7C197.5 211.1 205.3 211.8 213 211.2C220.2 210.7 227.1 208.7 233.9 206.4C240.6 204.2 247.7 201.8 254.8 202.5C261.9 203.2 268.2 207.4 275.2 208.7C282.6 210.1 290.1 209.8 297.5 209.8C305.5 209.8 313.4 209.7 321.4 209.7C353.4 209.6 385.5 209.4 417.5 209.3C449.5 209.2 481.6 209 513.6 208.9C517.6 208.9 521.6 208.9 525.6 208.8C526.6 208.8 527.4 208.1 526.9 207.2C526.4 206.2 524.7 206 523.7 206C491.7 206.1 459.6 206.3 427.6 206.4C395.6 206.5 363.5 206.7 331.5 206.8C315.7 206.9 299.8 207.5 284 206.9C280.1 206.7 276.2 206.4 272.4 205.3C269 204.3 265.7 202.7 262.4 201.5C256 199.3 249.5 199.1 242.8 200.4C235.8 201.8 229.2 204.5 222.3 206.4C214.8 208.4 207.1 208.7 199.3 208.3C183.4 207.6 167.5 206.6 151.5 206.1C119.7 205.1 87.9 205 56.1 205.9C52.1 206 48.2 206.1 44.2 206.3C43.3 206.3 42.4 207 42.9 207.9C43.5 209 45.3 209.3 46.2 209.2Z" fill="white"/>
</g>
<mask id="mask8_201_720" style="mask-type:luminance" maskUnits="userSpaceOnUse" x="51" y="51" width="398" height="398">
<path d="M250 448.5C359.629 448.5 448.5 359.629 448.5 250C448.5 140.371 359.629 51.5 250 51.5C140.371 51.5 51.5 140.371 51.5 250C51.5 359.629 140.371 448.5 250 448.5Z" fill="white"/>
</mask>
<g mask="url(#mask8_201_720)">
<path d="M48.5002 225.7C106.5 217.7 165.2 218.9 223.5 221.3C252.4 222.5 281.4 224 310.3 224.8C339.8 225.6 369.3 225.7 398.8 225.4C432 225 465.1 224.2 498.3 223.2C501.5 223.1 501 219.1 497.9 219.2C438.7 220.9 379.5 222.4 320.2 221.1C262.1 219.8 204 215.4 145.8 215.6C113.1 215.7 80.4002 217.3 48.0002 221.8C45.1002 222.1 45.4002 226.1 48.5002 225.7Z" fill="white"/>
</g>
<mask id="mask9_201_720" style="mask-type:luminance" maskUnits="userSpaceOnUse" x="51" y="51" width="398" height="398">
<path d="M250 448.5C359.629 448.5 448.5 359.629 448.5 250C448.5 140.371 359.629 51.5 250 51.5C140.371 51.5 51.5 140.371 51.5 250C51.5 359.629 140.371 448.5 250 448.5Z" fill="white"/>
</mask>
<g mask="url(#mask9_201_720)">
<path d="M133.5 80.4999C144 80.8999 154.4 81.4 164.9 81.7999C170 82 175.2 82.4999 180.3 82.1999C185.1 81.8999 189.3 79.9999 193.4 77.5999C208.1 68.9999 224.6 64.0999 241.7 63.7999C258.4 63.4999 275.1 67.3 289.8 75.3C293.7 77.4 297.3 79.9999 301.2 82.0999C305.5 84.4999 310.1 85.8999 315 86.3999C320.2 86.8999 325.4 86.7999 330.5 86.8999C335.8 86.9999 341.1 87.1999 346.3 87.2999C367.4 87.7999 388.5 88.2999 409.7 88.7999C412.3 88.9 415 88.8999 417.6 88.9999C418.2 88.9999 419.8 88.9999 419.5 87.9999C419.2 87.0999 417.2 86.9 416.6 86.7999C395.5 86.2999 374.4 85.7999 353.2 85.2999C342.5 85 331.9 84.7999 321.2 84.4999C316.4 84.3999 311.8 84.2999 307.4 82.3999C303.3 80.5999 299.6 77.8999 295.8 75.5999C281 66.9999 264 62.3999 247 61.5999C230 60.8999 212.8 64.0999 197.4 71.3999C193.4 73.2999 189.7 75.6999 185.8 77.6999C183.7 78.7999 181.5 79.5999 179.1 79.7999C176.7 80 174.2 79.7999 171.8 79.6999C161.3 79.2999 150.9 78.7999 140.4 78.3999C137.8 78.2999 135.2 78.1999 132.6 78.0999C132 78.0999 130.4 78.1999 130.7 79.0999C130.8 80.2999 132.8 80.4999 133.5 80.4999Z" fill="white"/>
</g>
<mask id="mask10_201_720" style="mask-type:luminance" maskUnits="userSpaceOnUse" x="51" y="51" width="398" height="398">
<path d="M250 448.5C359.629 448.5 448.5 359.629 448.5 250C448.5 140.371 359.629 51.5 250 51.5C140.371 51.5 51.5 140.371 51.5 250C51.5 359.629 140.371 448.5 250 448.5Z" fill="white"/>
</mask>
<g mask="url(#mask10_201_720)">
<path d="M153.9 70.7998C158 70.4998 162.1 70.2998 166.1 69.9998C170.2 69.6998 174.3 69.5998 178.4 69.1998C180.4 68.9998 182.4 68.4998 184.3 67.6998C186 66.8998 187.6 65.7998 189.2 64.7998C192.2 62.7998 195.4 60.9998 198.7 59.3998C211.7 52.8998 226 49.3998 240.5 48.8998C254.8 48.4998 269.1 51.3998 282.2 56.8998C288.8 59.6998 295.1 63.1998 301 67.3998C304 69.4998 306.9 71.8998 310.4 73.2998C314.1 74.6998 318.2 74.6998 322.1 74.8998C338.8 75.7998 355.5 76.7998 372.1 77.6998C374.2 77.7998 376.2 77.8998 378.3 77.9998C379.4 78.0998 380.9 77.5998 381.4 76.4998C381.9 75.4998 380.9 74.6998 380 74.5998C363.2 73.6998 346.5 72.6998 329.7 71.7998C325.6 71.5998 321.5 71.4998 317.5 71.0998C315.7 70.8998 313.9 70.4998 312.2 69.6998C310.5 68.8998 309 67.7998 307.5 66.5998C301.7 62.2998 295.5 58.4998 289 55.4998C275.8 49.2998 261.3 45.7998 246.8 45.4998C231.9 45.1998 217.1 47.9998 203.3 53.5998C199.9 54.9998 196.5 56.5998 193.3 58.3998C190 60.1998 187 62.1998 183.8 64.0998C180.5 66.0998 176.7 65.8998 173 66.0998C168.8 66.3998 164.7 66.5998 160.5 66.8998C158.5 66.9998 156.4 67.1998 154.4 67.2998C153.4 67.3998 151.9 68.0998 151.7 69.1998C151.6 70.5998 153.1 70.7998 153.9 70.7998Z" fill="white"/>
</g>
<mask id="mask11_201_720" style="mask-type:luminance" maskUnits="userSpaceOnUse" x="51" y="51" width="398" height="398">
<path d="M250 448.5C359.629 448.5 448.5 359.629 448.5 250C448.5 140.371 359.629 51.5 250 51.5C140.371 51.5 51.5 140.371 51.5 250C51.5 359.629 140.371 448.5 250 448.5Z" fill="white"/>
</mask>
<g mask="url(#mask11_201_720)">
<path d="M48.4002 238.8C78.9002 238.5 109.4 238.1 139.9 237.8C147.5 237.7 155.1 237.6 162.7 237.5C170.2 237.4 177.6 237.4 185 238.6C198.6 240.7 212.2 246.5 226.2 244C233.3 242.7 239.8 239.5 247.1 239C254.5 238.5 262.1 239.2 269.5 239.5C284.4 240.1 299.2 240.6 314.1 241C344.7 241.8 375.2 242.2 405.8 242.4C440 242.6 474.3 242.6 508.5 242.6C511.7 242.6 510.3 238 507.5 238C446.4 238 385.2 238 324.1 236.6C308.7 236.2 293.3 235.8 278 235.2C270.7 234.9 263.5 234.6 256.2 234.3C249.1 234 242.3 234.3 235.4 236.3C232 237.3 228.7 238.6 225.2 239.2C221.6 239.9 217.9 239.9 214.3 239.6C207.3 239 200.4 237.1 193.6 235.5C179.1 232.2 164.6 232.7 149.9 232.8C115.8 233.2 81.6002 233.6 47.5002 234C44.2002 234.2 45.6002 238.8 48.4002 238.8Z" fill="white"/>
</g>
<mask id="mask12_201_720" style="mask-type:luminance" maskUnits="userSpaceOnUse" x="51" y="51" width="398" height="398">
<path d="M250 448.5C359.629 448.5 448.5 359.629 448.5 250C448.5 140.371 359.629 51.5 250 51.5C140.371 51.5 51.5 140.371 51.5 250C51.5 359.629 140.371 448.5 250 448.5Z" fill="white"/>
</mask>
<g mask="url(#mask12_201_720)">
<path d="M43.2 253.7C72.2 252.3 101.2 251.4 130.2 250.9C144.3 250.7 158.2 251 171.9 254.4C185.1 257.8 197.9 262.8 211.3 265.5C224.1 268 237.5 268.7 250.3 265.4C256.7 263.7 262.6 260.4 269.1 258.9C276.1 257.3 283.5 257.7 290.6 257.7C319.7 257.5 348.8 257.3 377.8 257.2C407 257 436.2 256.8 465.5 256.7C469.1 256.7 472.7 256.7 476.3 256.6C477.2 256.6 478.9 256.3 479.2 255.2C479.5 254.1 478.1 253.7 477.3 253.7C448.1 253.9 418.9 254.1 389.6 254.2C360.5 254.4 331.4 254.6 302.4 254.7C295.1 254.7 287.8 254.7 280.6 254.9C273.9 255 267.6 255.9 261.3 258.3C254.9 260.7 248.9 263.2 242.1 264.1C235.4 265 228.5 264.9 221.8 264.1C208.2 262.4 195.3 257.8 182.2 253.9C175.6 252 169 250.2 162.2 249.3C155.4 248.3 148.5 248 141.7 248C112.8 247.8 83.9 249.1 55 250.4C51.4 250.6 47.9 250.7 44.3 250.9C43.4 250.9 41.7 251.1 41.4 252.3C41 253.3 42.4 253.8 43.2 253.7Z" fill="white"/>
</g>
<mask id="mask13_201_720" style="mask-type:luminance" maskUnits="userSpaceOnUse" x="51" y="51" width="398" height="398">
<path d="M250 448.5C359.629 448.5 448.5 359.629 448.5 250C448.5 140.371 359.629 51.5 250 51.5C140.371 51.5 51.5 140.371 51.5 250C51.5 359.629 140.371 448.5 250 448.5Z" fill="white"/>
</mask>
<g mask="url(#mask13_201_720)">
<path d="M46.8001 272.4C62.1001 271.5 77.5001 270.5 92.8001 269.6C100.4 269.1 108 268.7 115.6 268.2C123.1 267.7 130.6 267.1 138.1 267C152.8 266.9 166.1 273.7 179.9 277.9C193.2 281.9 206.8 285.1 220.7 286.5C234.1 287.8 247.6 287.6 260.8 284.8C267.5 283.4 274 281.1 280.4 278.5C283.6 277.2 286.8 275.9 290.1 275.1C293.7 274.3 297.3 274 301 273.8C331.4 272.5 361.9 271.7 392.3 270.7C422.8 269.7 453.3 268.6 483.9 267.6C487.8 267.5 491.6 267.3 495.5 267.2C498.6 267.1 498.6 263.5 495.5 263.6C465 264.6 434.5 265.7 403.9 266.7C373.2 267.7 342.6 268.8 311.9 269.8C304.8 270 297.5 269.9 290.4 271.2C283.7 272.5 277.6 275.7 271.1 277.9C258.1 282.5 244.3 284 230.5 283.5C216.7 283 203 280.4 189.7 276.8C182.8 274.9 176 272.8 169.3 270.4C162.7 268.1 156.1 265.3 149.1 264.1C141.8 262.9 134.5 263.3 127.1 263.8C119.4 264.3 111.6 264.7 103.9 265.2C88.7001 266.1 73.5001 267 58.3001 268C54.4001 268.2 50.6001 268.5 46.7001 268.7C43.7001 269 43.7001 272.6 46.8001 272.4Z" fill="white"/>
</g>
<mask id="mask14_201_720" style="mask-type:luminance" maskUnits="userSpaceOnUse" x="51" y="51" width="398" height="398">
<path d="M250 448.5C359.629 448.5 448.5 359.629 448.5 250C448.5 140.371 359.629 51.5 250 51.5C140.371 51.5 51.5 140.371 51.5 250C51.5 359.629 140.371 448.5 250 448.5Z" fill="white"/>
</mask>
<g mask="url(#mask14_201_720)">
<path d="M43.6001 293.6C59.1001 292.3 74.6001 291.4 90.1001 290.8C105.6 290.3 121.3 289.4 136.8 290.7C151.7 291.9 165.9 297.4 180.4 300.5C194.7 303.5 209.3 305.3 223.9 305.6C238.5 306 253.2 305.2 267.6 302.9C274.8 301.7 281.9 300 288.7 297.3C295.1 294.8 301.1 291.2 307.9 289.5C315.3 287.7 322.9 288.6 330.3 289.1C338 289.7 345.7 290.2 353.4 290.6C368.8 291.4 384.2 291.8 399.6 291.9C430.2 292 460.9 290.8 491.4 288C495.2 287.7 498.9 287.3 502.7 286.9C505 286.7 502.8 282.2 500.8 282.4C470.2 285.5 439.4 287.1 408.6 287.3C393.1 287.4 377.5 287.1 362 286.4C354.5 286.1 346.9 285.7 339.4 285.2C331.9 284.7 324.3 283.8 316.8 283.8C309.7 283.8 303.4 285.3 297 288.2C290.3 291.1 283.9 294.1 276.8 296C262.6 299.7 247.7 300.9 233.1 301.1C218.2 301.3 203.2 300.1 188.6 297.6C181.3 296.3 174.1 294.8 166.9 292.8C159.7 290.9 152.5 288.6 145.2 287.3C137.7 285.9 130.1 285.7 122.5 285.7C114.9 285.7 107.3 285.8 99.7001 285.9C84.2001 286.3 68.7001 287 53.2001 288.1C49.4001 288.4 45.6001 288.7 41.8001 289C39.4001 289.3 41.5001 293.8 43.6001 293.6Z" fill="white"/>
</g>
<mask id="mask15_201_720" style="mask-type:luminance" maskUnits="userSpaceOnUse" x="51" y="51" width="398" height="398">
<path d="M250 448.5C359.629 448.5 448.5 359.629 448.5 250C448.5 140.371 359.629 51.5 250 51.5C140.371 51.5 51.5 140.371 51.5 250C51.5 359.629 140.371 448.5 250 448.5Z" fill="white"/>
</mask>
<g mask="url(#mask15_201_720)">
<path d="M39.4002 314.6C54.5002 313.5 69.7002 312.5 84.8002 311.8C92.4002 311.4 100.1 311.1 107.7 310.8C111.5 310.7 115.5 310.4 119.3 311.1C122.6 311.7 125.5 313.4 128.4 315.1C140.1 322 153.2 324.9 166.6 327.1C181.3 329.5 196.1 331.7 211 332.8C237.8 334.7 265.3 332.6 290.2 322.1C296.1 319.6 301.8 316.7 307.2 313.2C309.8 311.5 312.3 309.5 314.9 307.8C316.4 306.8 318 305.7 319.9 305.3C321.9 304.9 324.1 305.1 326.1 305.1C341.3 305.4 356.5 305.8 371.7 306.1C402.2 306.8 432.7 307.4 463.3 308.1C467.1 308.2 470.8 308.3 474.6 308.3C475.7 308.3 476.9 308 478 307.7C478.3 307.6 479.8 306.9 478.7 306.9C448.2 306.2 417.7 305.6 387.1 304.9C371.8 304.6 356.4 304.2 341.1 303.9C334.2 303.7 326.7 302.8 319.9 304.3C313.7 305.6 309.3 309.5 304.2 313C281 328.5 252.8 332.8 225.4 331.9C210.2 331.4 195.2 329.5 180.2 327.2C166.5 325.1 152.3 323.2 139.6 317.2C133.6 314.4 128.5 310.2 121.8 309.4C114.6 308.6 107.1 309.5 99.9002 309.8C84.6002 310.4 69.3002 311.3 54.0002 312.3C50.3002 312.6 46.5002 312.8 42.8002 313.1C41.7002 313.2 40.3002 313.4 39.4002 313.9C38.7002 314.4 38.4002 314.7 39.4002 314.6Z" fill="white"/>
</g>
<mask id="mask16_201_720" style="mask-type:luminance" maskUnits="userSpaceOnUse" x="51" y="51" width="398" height="398">
<path d="M250 448.5C359.629 448.5 448.5 359.629 448.5 250C448.5 140.371 359.629 51.5 250 51.5C140.371 51.5 51.5 140.371 51.5 250C51.5 359.629 140.371 448.5 250 448.5Z" fill="white"/>
</mask>
<g mask="url(#mask16_201_720)">
<path d="M62.5002 335.3C77.1002 335.4 91.7002 335.5 106.4 335.7C109.9 335.7 113.3 336 116.5 337.5C119.3 338.9 121.8 340.8 124.3 342.6C129.4 346.1 135 349.1 140.7 351.5C152.4 356.3 164.8 359 177.3 360.7C191.5 362.6 205.8 363.5 220.1 363.6C234.1 363.7 248.2 363 262.2 361.8C273.7 360.8 285.2 359.3 296.4 356.1C307.2 353 317.7 348.3 326.4 341.1C331 337.3 334.8 331.4 341.1 330.6C344.5 330.1 348 330.3 351.4 330.3C355 330.3 358.5 330.2 362.1 330.2C391.3 329.8 420.4 329.5 449.6 329.1C453.3 329.1 457 329 460.7 329C461.8 329 461.1 327.8 460.7 327.3C460 326.5 458.7 325.8 457.6 325.8C428.4 326.2 399.3 326.5 370.1 326.9C362.7 327 355.3 327.1 347.9 327.2C341.7 327.3 335.3 326.7 330.3 331C328 333 326 335.2 323.8 337.2C321.6 339.1 319.4 340.8 317 342.4C312.2 345.6 307.1 348.1 301.8 350.2C291 354.4 279.5 356.5 268 357.9C254.7 359.5 241.2 360.2 227.7 360.5C213.3 360.8 198.8 360.4 184.5 358.9C171.5 357.5 158.4 355.5 146 351.2C140.1 349.2 134.3 346.6 129 343.3C123.7 340.1 119 335.7 113 333.9C106.5 332 99.2002 332.7 92.5002 332.7C85.2002 332.6 78.0002 332.6 70.7002 332.5C67.0002 332.5 63.3002 332.4 59.6002 332.4C58.5002 332.4 59.3002 333.7 59.6002 334.1C60.1002 334.6 61.4002 335.3 62.5002 335.3Z" fill="white"/>
</g>
<mask id="mask17_201_720" style="mask-type:luminance" maskUnits="userSpaceOnUse" x="51" y="51" width="398" height="398">
<path d="M250 448.5C359.629 448.5 448.5 359.629 448.5 250C448.5 140.371 359.629 51.5 250 51.5C140.371 51.5 51.5 140.371 51.5 250C51.5 359.629 140.371 448.5 250 448.5Z" fill="white"/>
</mask>
<g mask="url(#mask17_201_720)">
<path d="M75 362.6C90.4 364.7 105.8 357.5 120.8 363.4C128 366.2 134.8 370 141.9 373.1C148.8 376 155.8 378.7 162.9 381.1C191.5 390.7 221.7 395.8 251.9 396C267 396.1 282.2 395.1 297.1 392.8C311 390.7 324.9 387.7 337.8 381.9C344.2 379.1 350.4 375.5 355.8 371.1C361.2 366.7 365.6 360.6 371.9 357.5C379 354 387.8 354.9 395.5 354.8C404.1 354.7 412.7 354.6 421.2 354.4C455.2 353.9 489.3 353.5 523.3 353C527.6 352.9 531.9 352.9 536.2 352.8C537 352.8 535.7 351.1 535.6 351C535.1 350.4 534 349.2 533 349.2C499 349.7 464.9 350.1 430.9 350.6C422.3 350.7 413.7 350.8 405.2 351C396.8 351.1 388.4 350.9 380 351.4C376.4 351.6 372.8 352.1 369.4 353.5C366.2 354.9 363.6 357 361.1 359.4C355.9 364.3 351 369.1 344.9 372.9C332.8 380.4 318.8 384.5 304.9 387.3C290.2 390.2 275.2 391.8 260.1 392.3C229.6 393.3 198.9 389.3 169.6 380.6C155 376.2 140.7 370.7 127 364C120.2 360.7 113.5 357.6 105.8 357.3C98.2 357 90.8 358.6 83.2 359.2C79.4 359.5 75.6 359.5 71.7 359C70.9 358.9 72.3 360.7 72.3 360.8C73.1 361.6 74 362.5 75 362.6Z" fill="white"/>
</g>
<mask id="mask18_201_720" style="mask-type:luminance" maskUnits="userSpaceOnUse" x="51" y="51" width="398" height="398">
<path d="M250 448.5C359.629 448.5 448.5 359.629 448.5 250C448.5 140.371 359.629 51.5 250 51.5C140.371 51.5 51.5 140.371 51.5 250C51.5 359.629 140.371 448.5 250 448.5Z" fill="white"/>
</mask>
<g mask="url(#mask18_201_720)">
<path d="M103.1 393.5C115.1 390.2 127.3 392.9 138.7 396.9C150.4 400.9 161.6 405.9 173.6 409C197.8 415.2 223 415.9 247.9 415.3C260.2 415 272.4 414.6 284.7 413.9C296.7 413.2 308.8 412.2 320.6 410C332.2 407.9 343.7 404.7 354.4 399.8C365.4 394.8 375.2 387.3 386.7 383.4C410 375.6 435 381.7 458.9 381.1C461.9 381 465 380.8 468 380.5C467.9 380.5 466.7 376 465.6 376.1C441.4 378.6 417 372 393 376.7C387.1 377.9 381.3 379.8 375.9 382.5C370.5 385.2 365.4 388.4 360.1 391.3C349.6 397.1 338.3 401.1 326.7 403.8C303.2 409.3 278.7 409.8 254.7 410.6C229.7 411.4 204.5 411.6 179.9 406.6C167.4 404.1 155.7 399.7 143.8 395.2C132.9 391.1 121.3 387 109.5 387.7C106.5 387.9 103.6 388.4 100.7 389.2C100.5 389.2 102.2 393.8 103.1 393.5Z" fill="white"/>
</g>
<mask id="mask19_201_720" style="mask-type:luminance" maskUnits="userSpaceOnUse" x="51" y="51" width="398" height="398">
<path d="M250 448.5C359.629 448.5 448.5 359.629 448.5 250C448.5 140.371 359.629 51.5 250 51.5C140.371 51.5 51.5 140.371 51.5 250C51.5 359.629 140.371 448.5 250 448.5Z" fill="white"/>
</mask>
<g mask="url(#mask19_201_720)">
<path d="M117.6 415.8C136.9 421.2 156.2 426.5 175.7 430.9C195 435.3 214.6 438.8 234.3 440.4C254 442 273.8 441.9 293.4 439C313.1 436.1 332 430.1 350.6 423.3C369.7 416.4 388.7 409.3 407.7 402.3C410.1 401.4 412.5 400.6 414.8 399.7C415.3 399.5 416.8 399 416.3 398.3C415.8 397.6 413.7 398.1 413.2 398.3C394.5 405.2 375.7 412.1 357 419C338.7 425.7 320.4 432.4 301.2 435.9C282.3 439.4 262.9 440 243.7 438.8C224.3 437.6 205 434.5 186 430.4C166.8 426.3 147.8 421.1 128.8 415.9C126.4 415.2 124 414.6 121.6 413.9C120.5 413.6 119.2 413.8 118.2 414.3C117.8 414.6 116.5 415.5 117.6 415.8Z" fill="white"/>
</g>
<mask id="mask20_201_720" style="mask-type:luminance" maskUnits="userSpaceOnUse" x="51" y="51" width="398" height="398">
<path d="M250 448.5C359.629 448.5 448.5 359.629 448.5 250C448.5 140.371 359.629 51.5 250 51.5C140.371 51.5 51.5 140.371 51.5 250C51.5 359.629 140.371 448.5 250 448.5Z" fill="white"/>
</mask>
<g mask="url(#mask20_201_720)">
<path d="M167.2 446.1C190.3 447.2 213.4 448.3 236.5 448.9C259.6 449.5 282.7 449.5 305.7 448.4C318.7 447.8 331.7 446.8 344.6 445.4C345.7 445.3 347.1 444.7 347.5 443.5C347.8 442.4 346.8 441.8 345.8 441.9C322.9 444.4 300 445.5 277 445.7C254.1 445.9 231.1 445.3 208.2 444.4C195.3 443.9 182.4 443.2 169.4 442.6C168.2 442.5 166.9 442.9 166.2 444C165.8 444.9 166.1 446 167.2 446.1Z" fill="white"/>
</g>
</g>
<defs>
<clipPath id="clip0_201_720">
<rect width="500" height="500" fill="white"/>
</clipPath>
</defs>
</svg>
