<svg width="500" height="500" viewBox="0 0 500 500" fill="none" xmlns="http://www.w3.org/2000/svg">
<mask id="mask0_201_755" style="mask-type:luminance" maskUnits="userSpaceOnUse" x="51" y="51" width="398" height="398">
<path d="M250 448.5C359.629 448.5 448.5 359.629 448.5 250C448.5 140.371 359.629 51.5 250 51.5C140.371 51.5 51.5 140.371 51.5 250C51.5 359.629 140.371 448.5 250 448.5Z" fill="white"/>
</mask>
<g mask="url(#mask0_201_755)">
<path d="M227.4 30.3C213.1 47.6 198.8 64.9 184.5 82.2C170.2 99.5 156 116.9 141.8 134.2C127.6 151.5 113.5 168.8 99.4 186.1C85.2 203.5 71.1 220.9 57 238.4C42.9 255.8 28.9 273.2 14.9 290.6C13.1 292.8 11.4 295 9.6 297.2C8.8 298.2 9.8 299.6 10.7 300.1C11.9 300.7 13.2 300.4 14 299.4C28 281.9 42.1 264.4 56.2 247C70.3 229.6 84.5 212.1 98.6 194.7C112.7 177.4 126.8 160 141 142.8C155.2 125.4 169.4 108.1 183.7 90.8C197.9 73.5 212.1 56.3 226.4 39.1C228.2 36.9 230 34.7 231.8 32.6C232.6 31.6 231.6 30.2 230.7 29.7C229.5 29 228.2 29.3 227.4 30.3Z" fill="white"/>
</g>
<mask id="mask1_201_755" style="mask-type:luminance" maskUnits="userSpaceOnUse" x="51" y="51" width="398" height="398">
<path d="M250 448.5C359.629 448.5 448.5 359.629 448.5 250C448.5 140.371 359.629 51.5 250 51.5C140.371 51.5 51.5 140.371 51.5 250C51.5 359.629 140.371 448.5 250 448.5Z" fill="white"/>
</mask>
<g mask="url(#mask1_201_755)">
<path d="M232.5 24.2C220.6 49.3 208.5 74.3 196.1 99.2C183.7 124.1 171 148.8 158.1 173.4C145.1 198.1 131.9 222.7 118.4 247.1C105 271.4 91.1999 295.6 77.2999 319.6C63.2999 343.6 49.0999 367.5 34.5999 391.2C32.7999 394.2 30.9999 397.1 29.1999 400.1C28.5999 401.1 31.4999 405 32.0999 404C46.5999 380.3 60.8999 356.5 74.8999 332.5C88.8999 308.5 102.7 284.4 116.2 260.1C129.8 235.7 143.1 211.2 156.1 186.5C169.1 161.9 181.8 137.2 194.3 112.4C206.8 87.6 219 62.6 231 37.5C232.5 34.4 234 31.2 235.5 28.1C236 26.9 232.9 23.2 232.5 24.2Z" fill="white"/>
</g>
<mask id="mask2_201_755" style="mask-type:luminance" maskUnits="userSpaceOnUse" x="51" y="51" width="398" height="398">
<path d="M250 448.5C359.629 448.5 448.5 359.629 448.5 250C448.5 140.371 359.629 51.5 250 51.5C140.371 51.5 51.5 140.371 51.5 250C51.5 359.629 140.371 448.5 250 448.5Z" fill="white"/>
</mask>
<g mask="url(#mask2_201_755)">
<path d="M241.6 35.3001C230.6 63.3001 219.6 91.3001 208.5 119.3C197.4 147.3 186.5 175.3 175.4 203.3C164.3 231.3 153.4 259.3 142.3 287.3C131.3 315.3 120.3 343.3 109.2 371.3C98.2 399.3 87.2 427.3 76.1 455.3C74.7 458.8 73.4 462.2 72 465.7C71.1 468 75 471.1 76 468.6C87 440.6 98 412.6 109.1 384.6C120.2 356.6 131.1 328.6 142.2 300.6C153.3 272.6 164.2 244.6 175.3 216.6C186.4 188.6 197.3 160.6 208.4 132.6C219.4 104.6 230.4 76.6001 241.5 48.6001C242.9 45.1001 244.2 41.7001 245.6 38.2001C246.6 35.9001 242.6 32.8001 241.6 35.3001Z" fill="white"/>
</g>
<mask id="mask3_201_755" style="mask-type:luminance" maskUnits="userSpaceOnUse" x="51" y="51" width="398" height="398">
<path d="M250 448.5C359.629 448.5 448.5 359.629 448.5 250C448.5 140.371 359.629 51.5 250 51.5C140.371 51.5 51.5 140.371 51.5 250C51.5 359.629 140.371 448.5 250 448.5Z" fill="white"/>
</mask>
<g mask="url(#mask3_201_755)">
<path d="M250.2 25.3C240.1 86.4 230 147.5 220 208.6C210 269.4 200.1 330.2 190.3 391.1C184.8 425.2 179.3 459.3 173.8 493.4C173.6 494.4 178.4 495.6 178.5 495.2C188.3 434 198.2 372.9 208.2 311.8C218.1 251 228.1 190.1 238.1 129.3C243.7 95.2 249.4 61.1 255 27C255 26.1 250.3 24.9 250.2 25.3Z" fill="white"/>
</g>
<mask id="mask4_201_755" style="mask-type:luminance" maskUnits="userSpaceOnUse" x="51" y="51" width="398" height="398">
<path d="M250 448.5C359.629 448.5 448.5 359.629 448.5 250C448.5 140.371 359.629 51.5 250 51.5C140.371 51.5 51.5 140.371 51.5 250C51.5 359.629 140.371 448.5 250 448.5Z" fill="white"/>
</mask>
<g mask="url(#mask4_201_755)">
<path d="M251.2 33.5001C250.8 94.1001 250.7 154.7 250.8 215.4C250.9 275.7 251.2 336 251.8 396.3C252.1 430.3 252.5 464.3 253 498.4C253 500.4 257.4 502.4 257.4 499.7C256.6 439.1 256 378.5 255.6 317.8C255.2 257.5 255.1 197.2 255.2 136.9C255.3 102.9 255.4 68.9001 255.6 34.8001C255.6 32.9001 251.2 30.9001 251.2 33.5001Z" fill="white"/>
</g>
<mask id="mask5_201_755" style="mask-type:luminance" maskUnits="userSpaceOnUse" x="51" y="51" width="398" height="398">
<path d="M250 448.5C359.629 448.5 448.5 359.629 448.5 250C448.5 140.371 359.629 51.5 250 51.5C140.371 51.5 51.5 140.371 51.5 250C51.5 359.629 140.371 448.5 250 448.5Z" fill="white"/>
</mask>
<g mask="url(#mask5_201_755)">
<path d="M253.8 35.1C259.4 64.9 263.9 94.9 267.8 125C271.7 155.1 275 185.2 278.3 215.4C281.5 245.4 284.7 275.4 288.2 305.4C291.7 335.2 295.7 365.1 300.6 394.7C305.5 424.4 311.3 453.9 318.4 483.1C319.3 486.8 320.2 490.5 321.2 494.2C321.6 495.6 326.4 496 326 494.4C318.5 465.3 312.4 435.8 307.3 406.1C302.1 376.1 298 345.9 294.3 315.7C290.6 285.8 287.5 255.8 284.3 225.8C281.1 195.6 277.8 165.5 274 135.4C270.3 105.7 266 76 260.7 46.6C260 42.9 259.3 39.1 258.6 35.4C258.4 34 253.5 33.5 253.8 35.1Z" fill="white"/>
</g>
<mask id="mask6_201_755" style="mask-type:luminance" maskUnits="userSpaceOnUse" x="51" y="51" width="398" height="398">
<path d="M250 448.5C359.629 448.5 448.5 359.629 448.5 250C448.5 140.371 359.629 51.5 250 51.5C140.371 51.5 51.5 140.371 51.5 250C51.5 359.629 140.371 448.5 250 448.5Z" fill="white"/>
</mask>
<g mask="url(#mask6_201_755)">
<path d="M266.6 45.8C274.8 74.1 282.8 102.5 290.7 130.9C298.6 159.2 306.3 187.6 313.9 216C321.5 244.4 328.9 272.8 336.2 301.3C343.5 329.8 350.7 358.3 357.7 386.8C364.7 415.3 371.6 443.9 378.3 472.5C379.2 476.1 380 479.8 380.9 483.4C381.1 484.4 381.9 485.9 383 486.2C384.1 486.4 384.5 485.4 384.2 484.5C377.5 455.7 370.6 427 363.6 398.3C356.6 369.6 349.4 340.9 342.1 312.3C334.8 283.7 327.3 255.1 319.8 226.5C312.2 198 304.5 169.4 296.6 141C288.8 112.8 280.8 84.5 272.7 56.4C271.7 52.8 270.6 49.2 269.6 45.6C268.9 43.3 265.7 42.6 266.6 45.8Z" fill="white"/>
</g>
<mask id="mask7_201_755" style="mask-type:luminance" maskUnits="userSpaceOnUse" x="51" y="51" width="398" height="398">
<path d="M250 448.5C359.629 448.5 448.5 359.629 448.5 250C448.5 140.371 359.629 51.5 250 51.5C140.371 51.5 51.5 140.371 51.5 250C51.5 359.629 140.371 448.5 250 448.5Z" fill="white"/>
</mask>
<g mask="url(#mask7_201_755)">
<path d="M270.8 29.6C279.5 56.1 288.4 82.5 297.4 108.9C306.4 135.3 315.5 161.7 324.8 188C334 214.2 343.3 240.3 352.8 266.4C362.3 292.6 371.9 318.8 381.7 344.9C391.5 371 401.4 397.1 411.4 423.1C412.6 426.3 413.9 429.5 415.1 432.7C416.1 435.3 420.6 435.1 419.4 432C409.3 406 399.4 379.9 389.6 353.8C379.8 327.7 370.1 301.5 360.6 275.3C351.1 249.2 341.7 223.1 332.5 196.9C323.2 170.6 314.1 144.3 305 117.9C295.9 91.5 287.1 65.1 278.3 38.6C277.2 35.3 276.1 32.1 275.1 28.8C274.2 26.3 269.8 26.5 270.8 29.6Z" fill="white"/>
</g>
<mask id="mask8_201_755" style="mask-type:luminance" maskUnits="userSpaceOnUse" x="51" y="51" width="398" height="398">
<path d="M250 448.5C359.629 448.5 448.5 359.629 448.5 250C448.5 140.371 359.629 51.5 250 51.5C140.371 51.5 51.5 140.371 51.5 250C51.5 359.629 140.371 448.5 250 448.5Z" fill="white"/>
</mask>
<g mask="url(#mask8_201_755)">
<path d="M282 42.7C293.8 66.8 305.8 90.7 318 114.6C330.2 138.5 342.6 162.3 355.1 186C367.6 209.7 380.4 233.3 393.3 256.8C406.2 280.3 419.3 303.7 432.5 327C445.8 350.4 459.3 373.7 473 396.9C474.7 399.7 476.3 402.5 478 405.4C478.6 406.3 479.8 407.3 480.9 407.4C481.8 407.6 482.3 407.1 481.8 406.2C468.1 383.1 454.7 359.9 441.4 336.7C428.1 313.4 415 290 402 266.6C389 243.1 376.3 219.6 363.7 195.9C351.1 172.2 338.7 148.5 326.5 124.6C314.2 100.6 302.1 76.6 290.2 52.4C288.7 49.5 287.3 46.5 285.9 43.6C285.1 42.3 280.8 40.3 282 42.7Z" fill="white"/>
</g>
<mask id="mask9_201_755" style="mask-type:luminance" maskUnits="userSpaceOnUse" x="51" y="51" width="398" height="398">
<path d="M250 448.5C359.629 448.5 448.5 359.629 448.5 250C448.5 140.371 359.629 51.5 250 51.5C140.371 51.5 51.5 140.371 51.5 250C51.5 359.629 140.371 448.5 250 448.5Z" fill="white"/>
</mask>
<g mask="url(#mask9_201_755)">
<path d="M293.5 51.4C309.1 70 324.8 88.6 340.7 107C356.5 125.3 372.5 143.6 388.6 161.7C404.7 179.8 420.9 197.8 437.3 215.6C453.7 233.4 470.1 251.2 486.8 268.8C503.4 286.4 520.2 303.9 537.1 321.2C539.2 323.4 541.3 325.5 543.4 327.7C544.2 328.5 545.6 329.1 546.6 328.2C547.5 327.4 547.5 325.8 546.6 324.9C529.6 307.5 512.8 290 496.1 272.4C479.4 254.8 462.9 237.1 446.5 219.3C430.1 201.5 413.9 183.5 397.7 165.5C381.5 147.5 365.6 129.2 349.7 110.9C333.8 92.6 318.1 74.2 302.6 55.6C300.7 53.3 298.7 51 296.8 48.7C294.7 46.3 291.4 49 293.5 51.4Z" fill="white"/>
</g>
<mask id="mask10_201_755" style="mask-type:luminance" maskUnits="userSpaceOnUse" x="51" y="51" width="398" height="398">
<path d="M250 448.5C359.629 448.5 448.5 359.629 448.5 250C448.5 140.371 359.629 51.5 250 51.5C140.371 51.5 51.5 140.371 51.5 250C51.5 359.629 140.371 448.5 250 448.5Z" fill="white"/>
</mask>
<g mask="url(#mask10_201_755)">
<path d="M313.1 57.2C333.6 81.3 354.5 105 375.9 128.3C397.3 151.6 419.1 174.5 441.4 196.9C453.9 209.5 466.5 221.9 479.2 234.2C480 235 484.3 232.9 483.6 232.3C460.8 210.3 438.4 187.8 416.5 164.9C394.7 142.2 373.4 119.1 352.5 95.5C340.8 82.3 329.2 69 317.8 55.6C317 54.5 312.8 56.9 313.1 57.2Z" fill="white"/>
</g>
<mask id="mask11_201_755" style="mask-type:luminance" maskUnits="userSpaceOnUse" x="51" y="51" width="398" height="398">
<path d="M250 448.5C359.629 448.5 448.5 359.629 448.5 250C448.5 140.371 359.629 51.5 250 51.5C140.371 51.5 51.5 140.371 51.5 250C51.5 359.629 140.371 448.5 250 448.5Z" fill="white"/>
</mask>
<g mask="url(#mask11_201_755)">
<path d="M344.9 67.5C357.1 85.5 372.6 100.9 389.1 114.9C406.6 129.6 425.3 142.7 443.5 156.4C453.9 164.2 464.2 172.3 474 180.9C474.9 181.7 476.3 182.1 477.5 181.5C478.5 181 478.8 179.8 478 179C460.5 163.6 441.6 150.1 422.9 136.3C405.4 123.3 388 110 372.7 94.4C364.2 85.8 356.3 76.6 349.5 66.5C348.8 65.5 347.5 65 346.3 65.2C345.3 65.5 344.2 66.5 344.9 67.5Z" fill="white"/>
</g>
<mask id="mask12_201_755" style="mask-type:luminance" maskUnits="userSpaceOnUse" x="51" y="51" width="398" height="398">
<path d="M250 448.5C359.629 448.5 448.5 359.629 448.5 250C448.5 140.371 359.629 51.5 250 51.5C140.371 51.5 51.5 140.371 51.5 250C51.5 359.629 140.371 448.5 250 448.5Z" fill="white"/>
</mask>
<g mask="url(#mask12_201_755)">
<path d="M203.7 50.4C192.3 64 180.3 77.1 167.9 89.7C155.5 102.3 142.6 114.4 129.3 126C115.7 137.8 101.6 149 87.4002 159.9C73.0002 170.9 58.4002 181.6 44.0002 192.5C29.6002 203.4 15.2002 214.5 1.40019 226.1C-0.299811 227.6 -2.09981 229 -3.79981 230.5C-6.29981 232.6 -2.69981 235.2 -0.499811 233.4C13.3002 221.5 27.5002 210.3 42.0002 199.3C56.5002 188.3 71.1002 177.5 85.6002 166.5C100 155.6 114.3 144.4 128.1 132.6C141.6 121.1 154.6 109 167.2 96.5C179.8 83.9 192 70.8 203.6 57.3C205 55.6 206.5 53.9 207.9 52.2C208.7 51.3 208.3 49.9 207.2 49.4C206 49 204.5 49.4 203.7 50.4Z" fill="white"/>
</g>
<mask id="mask13_201_755" style="mask-type:luminance" maskUnits="userSpaceOnUse" x="51" y="51" width="398" height="398">
<path d="M250 448.5C359.629 448.5 448.5 359.629 448.5 250C448.5 140.371 359.629 51.5 250 51.5C140.371 51.5 51.5 140.371 51.5 250C51.5 359.629 140.371 448.5 250 448.5Z" fill="white"/>
</mask>
<g mask="url(#mask13_201_755)">
<path d="M181.5 51.6C161.5 72.6 140.8 92.9 119.2 112.4C108.5 122.1 97.5999 131.5 86.4999 140.8C75.4999 150 64.1999 159 52.8999 168C40.1999 178.3 27.5999 188.7 15.7999 200C14.9999 200.8 17.7999 204.7 18.0999 204.4C39.0999 184.3 62.4999 167 84.8999 148.4C107.1 130 128.6 110.7 149.4 90.7C161.1 79.4 172.6 67.8 183.8 56C184.6 55.1 181.7 51.3 181.5 51.6Z" fill="white"/>
</g>
<mask id="mask14_201_755" style="mask-type:luminance" maskUnits="userSpaceOnUse" x="51" y="51" width="398" height="398">
<path d="M250 448.5C359.629 448.5 448.5 359.629 448.5 250C448.5 140.371 359.629 51.5 250 51.5C140.371 51.5 51.5 140.371 51.5 250C51.5 359.629 140.371 448.5 250 448.5Z" fill="white"/>
</mask>
<g mask="url(#mask14_201_755)">
<path d="M144.4 54.2C171 59.9 197.9 63.9 225 66C238.7 67.1 252.4 67.9 266.1 67.8C279.6 67.7 292.9 66.2 305.9 62.8C320.2 59.1 334 53.6 347.7 48.1C348.3 47.8 349.6 47.1 349 46.3C348.4 45.5 346.5 46 345.8 46.3C333.9 51 322.1 55.8 309.8 59.3C297.2 62.9 284.5 64.8 271.4 65.1C258 65.4 244.6 64.7 231.3 63.7C218 62.7 204.8 61.3 191.6 59.5C176.8 57.4 162 54.8 147.4 51.6C146.3 51.4 144.8 51.8 144 52.5C143.2 53.3 143.4 54 144.4 54.2Z" fill="white"/>
</g>
<mask id="mask15_201_755" style="mask-type:luminance" maskUnits="userSpaceOnUse" x="51" y="51" width="398" height="398">
<path d="M250 448.5C359.629 448.5 448.5 359.629 448.5 250C448.5 140.371 359.629 51.5 250 51.5C140.371 51.5 51.5 140.371 51.5 250C51.5 359.629 140.371 448.5 250 448.5Z" fill="white"/>
</mask>
<g mask="url(#mask15_201_755)">
<path d="M117.6 68.1C138.4 76.3 159.7 83.4 181.2 89.3C202.9 95.3 225.1 100.5 247.5 102.9C270.2 105.3 293.1 104.2 315.8 101.9C338.1 99.6 360.3 95.9 382.3 91.2C404.3 86.5 426 80.6 447.5 74C450.2 73.2 452.9 72.3 455.5 71.5C455.6 71.5 453.8 69.9 453.7 69.8C453.3 69.5 452.1 68.3 451.6 68.5C430.3 75.3 408.7 81.3 386.9 86.3C365.1 91.3 343.1 95.3 320.9 97.9C298 100.6 274.7 102.3 251.7 100.6C229.2 98.9 207.1 94 185.3 88.3C163.8 82.7 142.5 75.9 121.7 68.1C119.1 67.1 116.5 66.1 113.9 65.1C113.7 65 114.9 66.3 115.1 66.4C115.9 67 116.7 67.7 117.6 68.1Z" fill="white"/>
</g>
<mask id="mask16_201_755" style="mask-type:luminance" maskUnits="userSpaceOnUse" x="51" y="51" width="398" height="398">
<path d="M250 448.5C359.629 448.5 448.5 359.629 448.5 250C448.5 140.371 359.629 51.5 250 51.5C140.371 51.5 51.5 140.371 51.5 250C51.5 359.629 140.371 448.5 250 448.5Z" fill="white"/>
</mask>
<g mask="url(#mask16_201_755)">
<path d="M78.8002 91.6C100.6 106.7 126.6 114 151.7 121.7C178.5 130 205.5 137.4 233.4 140.7C259.4 143.7 285.7 143.6 311.7 140.7C338 137.8 364 132.2 389.2 124.5C414.4 116.8 438.9 107.1 462.6 95.7C465.5 94.3 468.5 92.8 471.4 91.4C472.7 90.7 470.1 86.5 468.5 87.3C445 99.1 420.7 109.4 395.7 117.5C370.9 125.6 345.4 131.7 319.5 135.2C293.8 138.7 267.7 139.6 241.9 137.5C214.3 135.2 187.5 128.8 161.1 120.9C148.1 117 135 113 122.1 108.6C109.8 104.4 97.6002 99.6 86.3002 93C83.5002 91.4 80.8002 89.6 78.1002 87.8C77.2002 87.2 76.7002 87.8 76.8002 88.7C76.9002 89.8 77.9002 90.9 78.8002 91.6Z" fill="white"/>
</g>
<mask id="mask17_201_755" style="mask-type:luminance" maskUnits="userSpaceOnUse" x="51" y="51" width="398" height="398">
<path d="M250 448.5C359.629 448.5 448.5 359.629 448.5 250C448.5 140.371 359.629 51.5 250 51.5C140.371 51.5 51.5 140.371 51.5 250C51.5 359.629 140.371 448.5 250 448.5Z" fill="white"/>
</mask>
<g mask="url(#mask17_201_755)">
<path d="M52.7 124.2C74.1 141.2 98.7 153.7 124.3 163C151.1 172.8 179.3 179.8 207.5 184.3C237.5 189 268 189.8 297.9 184.3C312.9 181.5 327.6 177.5 342.2 173.2C356.6 168.9 371 164.5 385.3 159.9C413.9 150.9 442.3 141.2 469.6 128.8C473 127.3 476.4 125.7 479.7 124.1C480.4 123.8 481.5 123 480.9 122.2C480.3 121.4 478.3 122.2 477.7 122.5C451.2 135.3 423.5 145.2 395.6 154.3C381.6 158.8 367.6 163.1 353.5 167.4C339.2 171.8 324.9 176.1 310.3 179.4C295.7 182.7 280.9 184.9 265.9 185.4C250.9 186 235.8 185.1 220.8 183.2C192.5 179.6 164.3 173 137.3 163.9C111.7 155.3 86.9 143.9 64.9 128.1C62.2 126.2 59.6 124.2 57 122.2C55.8 121.1 51.5 123.2 52.7 124.2Z" fill="white"/>
</g>
<mask id="mask18_201_755" style="mask-type:luminance" maskUnits="userSpaceOnUse" x="51" y="51" width="398" height="398">
<path d="M250 448.5C359.629 448.5 448.5 359.629 448.5 250C448.5 140.371 359.629 51.5 250 51.5C140.371 51.5 51.5 140.371 51.5 250C51.5 359.629 140.371 448.5 250 448.5Z" fill="white"/>
</mask>
<g mask="url(#mask18_201_755)">
<path d="M52.6999 161.3C75.6999 177.8 99.0999 194.6 125.4 205.4C138.9 211 152.9 214.6 167.3 216.5C182.7 218.5 198.3 219 213.8 219.4C243.8 220.1 273.9 219.1 303.6 214.9C332 211 360 204.6 387.2 195.4C414.1 186.4 440.1 174.7 464.5 160.3C467.6 158.5 470.6 156.6 473.6 154.8C474.5 154.2 473 153.9 472.6 153.8C471.5 153.7 470.2 153.9 469.2 154.5C445.7 169.3 420.5 181.4 394.4 190.9C368.1 200.5 340.9 207.4 313.3 211.9C284.8 216.5 255.9 218.2 227 218C197.1 217.7 166.1 217.4 137.6 207.3C111.4 198 88.0999 182.4 65.6999 166.3C62.8999 164.3 60.0999 162.3 57.3999 160.3C56.5999 159.7 55.1999 159.9 54.2999 160.1C54.0999 160.2 51.9999 160.8 52.6999 161.3Z" fill="white"/>
</g>
<mask id="mask19_201_755" style="mask-type:luminance" maskUnits="userSpaceOnUse" x="51" y="51" width="398" height="398">
<path d="M250 448.5C359.629 448.5 448.5 359.629 448.5 250C448.5 140.371 359.629 51.5 250 51.5C140.371 51.5 51.5 140.371 51.5 250C51.5 359.629 140.371 448.5 250 448.5Z" fill="white"/>
</mask>
<g mask="url(#mask19_201_755)">
<path d="M37.7999 193.9C58.5999 215 84.2999 230.7 111.7 241.6C141.6 253.5 173.5 259.8 205.5 262.8C222.7 264.4 240 265.2 257.3 265.5C274.8 265.8 292.3 265.9 309.8 265.3C327 264.7 344.2 263.2 361.1 259.5C376.4 256.1 391.4 251.1 405.9 244.9C435.5 232.4 463 215.5 489.9 198.3C493.2 196.2 496.5 194.1 499.8 192C501.8 190.7 497.4 188.7 496 189.6C469.7 206.5 443.2 223.4 414.9 236.8C400.9 243.4 386.4 249.2 371.4 253.5C355.5 258 339.2 260.6 322.7 261.8C305.5 263 288.2 263 270.9 262.9C253.9 262.8 236.8 262.5 219.8 261.3C187.6 259.1 155.3 254.3 124.7 243.7C97.2999 234.2 71.1999 220.2 49.5999 200.7C46.8999 198.3 44.2999 195.7 41.6999 193.1C40.5999 191.8 35.7999 191.9 37.7999 193.9Z" fill="white"/>
</g>
<mask id="mask20_201_755" style="mask-type:luminance" maskUnits="userSpaceOnUse" x="51" y="51" width="398" height="398">
<path d="M250 448.5C359.629 448.5 448.5 359.629 448.5 250C448.5 140.371 359.629 51.5 250 51.5C140.371 51.5 51.5 140.371 51.5 250C51.5 359.629 140.371 448.5 250 448.5Z" fill="white"/>
</mask>
<g mask="url(#mask20_201_755)">
<path d="M31.1999 240.6C57.8999 259.2 84.7999 277.8 114.3 291.8C128.9 298.7 144 304.4 159.7 308.3C176.4 312.5 193.6 314.8 210.7 316.3C245.8 319.4 281.3 320 316.3 315.9C349.5 312 382 303.1 413.3 291.5C444.9 279.9 475.4 265.7 505.8 251.2C509.5 249.4 513.3 247.6 517 245.8C518 245.3 516.2 245.2 516 245.2C514.9 245.2 513.6 245.4 512.6 245.9C482.9 260.1 453.2 274.3 422.5 286.4C392 298.4 360.6 308.2 328.2 313.2C293.6 318.5 258.4 318.4 223.6 315.9C206.7 314.7 189.8 312.8 173.2 309.3C157.2 306 141.7 301 126.7 294.4C97.8999 281.8 71.4999 264.3 45.6999 246.5C42.3999 244.2 39.0999 241.9 35.7999 239.7C35.0999 239.2 33.4999 239.6 32.6999 239.7C32.5999 239.7 30.6999 240.2 31.1999 240.6Z" fill="white"/>
</g>
<mask id="mask21_201_755" style="mask-type:luminance" maskUnits="userSpaceOnUse" x="51" y="51" width="398" height="398">
<path d="M250 448.5C359.629 448.5 448.5 359.629 448.5 250C448.5 140.371 359.629 51.5 250 51.5C140.371 51.5 51.5 140.371 51.5 250C51.5 359.629 140.371 448.5 250 448.5Z" fill="white"/>
</mask>
<g mask="url(#mask21_201_755)">
<path d="M41.5998 284.3C64.3998 305.1 87.7998 325.6 116.6 337.7C131.4 343.9 146.9 348.4 162.5 352.4C178.4 356.5 194.5 360 210.8 362.7C243.2 368.1 276.2 370.6 309 369.1C339.4 367.7 369.6 362.8 398.7 354.1C427.2 345.5 454.6 333.2 479.6 316.9C482.7 314.9 485.8 312.8 488.8 310.6C490.4 309.5 487.1 305.8 485.3 307C461.3 324 434.7 337.1 406.9 346.5C378.8 356 349.4 361.8 319.8 364.1C287.5 366.6 254.9 365.2 222.9 360.6C206.9 358.3 191 355.3 175.2 351.6C159.7 348 144.3 344 129.3 338.8C114.4 333.6 100.3 326.9 87.2999 318C74.7999 309.5 63.2999 299.7 52.0998 289.6C49.2998 287.1 46.5999 284.6 43.8999 282.1C43.1999 281.5 41.8998 280.6 41.0998 281.4C40.1998 282.3 40.9998 283.8 41.5998 284.3Z" fill="white"/>
</g>
<mask id="mask22_201_755" style="mask-type:luminance" maskUnits="userSpaceOnUse" x="51" y="51" width="398" height="398">
<path d="M250 448.5C359.629 448.5 448.5 359.629 448.5 250C448.5 140.371 359.629 51.5 250 51.5C140.371 51.5 51.5 140.371 51.5 250C51.5 359.629 140.371 448.5 250 448.5Z" fill="white"/>
</mask>
<g mask="url(#mask22_201_755)">
<path d="M73.6 371.2C97.6 382.4 121.7 393.6 147 401.2C173 409 199.8 411.9 226.8 413.1C240.6 413.7 254.3 414 268.1 414.5C282 415 295.9 415.5 309.8 415.6C336.3 415.7 362.7 413.8 388.7 408C413.6 402.5 437.9 393.9 460.7 382.6C463.4 381.2 466.2 379.8 468.9 378.4C470 377.8 467 374 465.4 374.8C443 386.7 419.1 395.9 394.4 402.1C369.2 408.4 343.4 411.3 317.4 411.7C303.3 411.9 289.3 411.5 275.2 411C261.6 410.5 248 410.2 234.5 409.7C207.6 408.8 180.6 406.9 154.5 400.1C129 393.4 104.8 382.7 81 371.7C78.1 370.4 75.2 369 72.3 367.7C71.4 367.3 70.9 367.9 71.2 368.8C71.5 369.7 72.6 370.7 73.6 371.2Z" fill="white"/>
</g>
</svg>
