<svg width="500" height="500" viewBox="0 0 500 500" fill="none" xmlns="http://www.w3.org/2000/svg">
<mask id="mask0_201_729" style="mask-type:luminance" maskUnits="userSpaceOnUse" x="51" y="51" width="398" height="398">
<path d="M250 448.5C359.629 448.5 448.5 359.629 448.5 250C448.5 140.371 359.629 51.5 250 51.5C140.371 51.5 51.5 140.371 51.5 250C51.5 359.629 140.371 448.5 250 448.5Z" fill="white"/>
</mask>
<g mask="url(#mask0_201_729)">
<path d="M93.2 52.1999C90.9 63.9999 89.6 75.9999 89.5 87.8999C89.5 90.8999 89.5 93.8999 89.6 96.7999C89.7 99.1999 89.8 101.6 90.3 103.9C91.1 107.6 93.2 112.3 97.2 113.4C101.3 114.5 104.8 110.7 107.1 107.8C109.4 104.9 110.9 101.5 112.1 97.9999C114.6 90.7999 115.4 83.0999 117 75.6999C118.7 67.7999 121.4 59.6999 128.3 54.8999C128 54.8999 127.8 54.8999 127.5 54.9999C132.9 56.7999 134 63.3999 133.9 68.3999C133.7 75.8999 131.9 83.7999 135.6 90.7999C138.3 95.8999 144.4 101 150.5 98.6999C156.6 96.2999 158 87.7999 159.8 82.2999C162.6 73.0999 165.5 63.9999 168.3 54.7999C167.7 54.9999 167.2 55.1999 166.6 55.2999C174.3 58.8999 176.5 67.6999 177.1 75.3999C177.5 80.5999 177.5 85.8999 178.2 90.9999C178.7 95.0999 179.8 99.2999 182.5 102.6C184.9 105.6 188.6 107.5 192.4 106.2C196 105 198.6 101.5 200.4 98.2999C205.2 89.6999 208.6 80.0999 211 70.5999C212 66.6999 212.4 62.4999 214.6 58.9999C215.4 57.7999 216.5 56.5999 218 56.1999C220 55.7999 221.9 56.9999 223.2 58.3999C225.5 60.8999 226.2 64.3999 226.7 67.6999C227.2 71.5999 227.1 75.4999 227.4 79.2999C228 86.3999 231.2 94.5999 237.5 98.4999C240.4 100.3 243.8 100.5 246.9 99.1999C249.6 98.0999 251.4 95.5999 252.5 92.9999C255 86.6999 254.4 79.6999 255.5 73.1999C256.2 68.7999 258.1 64.7999 260.8 61.2999C262.7 58.8999 267.7 53.2999 271 56.4999C272.2 57.6999 272.7 59.6999 273.1 61.2999C273.8 63.7999 274.4 66.1999 274.9 68.6999C276 73.8999 276.7 79.1999 277 84.4999C277.3 88.5999 277.1 92.9999 278.9 96.8999C280.6 100.6 284 103.4 288.3 103.2C296.4 102.8 302 94.5999 304.8 87.7999C307.8 80.1999 308.5 71.9999 309.1 63.8999C309.3 60.8999 309.1 55.9999 312 54.0999C315.1 52.0999 318.7 56.6999 320.3 58.9999C324.5 65.0999 325.6 72.7999 326.7 79.8999C327.9 87.4999 328.7 95.8999 332.3 102.9C334.2 106.6 337.8 109.2 342.1 108.1C346 107.1 349 104 350.9 100.6C355 93.3999 355 84.8999 355.8 76.8999C356.6 69.7999 358.9 61.8999 364.6 57.1999C367.2 55.0999 370.2 54.0999 373.6 54.3999C372.7 53.4999 371.9 52.5999 371 51.6999C372.1 59.9999 373.3 68.3999 374.4 76.6999C375.3 83.1999 375.7 89.8999 379.5 95.4999C381 97.5999 383 99.7999 385.6 100.4C388.4 101.1 391 99.8999 392.8 97.7999C395 95.2999 396.4 91.9999 397.7 88.9999C399.1 85.5999 400.2 82.0999 401 78.4999C402.7 70.4999 402.8 62.2999 401.4 54.2999C401.2 53.2999 400.3 51.8999 399.2 51.5999C398.1 51.3999 397.9 52.4999 398 53.3999C400.3 65.9999 398.1 79.3999 392 90.6999C390.7 93.0999 389 95.7999 386 96.0999C384.2 96.2999 382.8 95.1999 381.8 93.7999C378.6 89.2999 378.6 82.8999 377.9 77.6999C376.8 69.3999 375.6 60.9999 374.5 52.6999C374.3 51.3999 373.2 50.0999 371.9 49.9999C364.6 49.2999 359.1 54.7999 356.1 60.7999C352.5 67.9999 352.4 75.7999 351.5 83.5999C351 87.5999 350.3 91.7999 348.5 95.4999C346.8 98.9999 344.1 102.5 340.2 103.6C338.6 104.1 336.5 104.1 335.3 102.7C334.2 101.4 333.7 99.2999 333.2 97.6999C332.1 93.9999 331.4 90.1999 330.8 86.3999C329.6 78.8999 328.7 71.0999 325.9 63.9999C324.5 60.4999 322.6 57.1999 320.1 54.3999C317.7 51.7999 314 47.9999 310.1 49.4999C307 50.7999 306 54.8999 305.8 57.8999C305.4 61.8999 305.2 65.9999 304.7 69.9999C303.7 77.8999 301.9 86.0999 296.8 92.3999C294.3 95.3999 290.9 98.2999 286.8 98.6999C285.1 98.8999 283.2 98.4999 282.1 97.0999C281.1 95.7999 280.9 93.7999 280.8 92.2999C280.4 87.4999 280.3 82.5999 279.6 77.7999C278.9 72.5999 277.9 67.4999 276.5 62.4999C275.5 58.6999 274 54.1999 270.4 52.0999C266.3 49.6999 262.3 52.5999 259.4 55.5999C256.4 58.6999 254.3 62.4999 252.9 66.4999C251.8 69.9999 251.5 73.7999 251.2 77.3999C250.7 82.8999 250.7 91.2999 245.2 94.4999C242.6 95.9999 239.3 95.9999 236.8 94.1999C234.2 92.2999 232.6 89.0999 231.7 86.1999C230.6 82.6999 230.6 78.9999 230.4 75.3999C230.2 71.5999 229.9 67.5999 228.8 63.8999C227.7 60.1999 225.8 56.5999 222.8 54.1999C219.8 51.7999 215.8 50.5999 212.8 53.4999C210.3 55.8999 209.2 59.5999 208.4 62.8999C207.3 67.7999 206.1 72.5999 204.5 77.2999C202.9 82.0999 201 86.7999 198.7 91.3999C196.9 94.9999 194.9 99.1999 191.2 101.4C188 103.3 184.6 102.1 183 98.8999C181.1 94.8999 181.1 89.9999 180.9 85.6999C180.5 76.5999 180.2 67.1999 175 59.2999C172.8 55.9999 170 53.0999 166.4 51.4999C165.7 51.1999 165 51.1999 164.7 51.9999C161.7 61.4999 158.8 71.0999 155.8 80.5999C154 86.2999 151.2 97.9999 142.7 94.2999C134.4 90.6999 136.7 79.6999 137.1 72.5999C137.5 65.5999 136.1 57.4999 130.3 52.7999C129.2 51.9999 127.7 50.7999 126.3 50.6999C125 50.4999 123.4 52.3999 122.5 53.2999C120.5 55.2999 118.9 57.4999 117.6 59.9999C114.9 65.3999 113.6 71.3999 112.5 77.3999C111.4 83.3999 110.5 89.4999 108.5 95.1999C107.6 97.8999 106.3 100.5 104.7 102.9C103.1 105.2 100.5 108.6 97.6 109.2C94.3 109.8 93.5 106 93.1 103.5C92.5 98.4999 92.7 93.1999 92.8 88.0999C93 77.0999 94.2 66.1999 96.3 55.4999C96.5 54.3999 95.8 52.9999 95 52.2999C94.7 51.4999 93.4 51.0999 93.2 52.1999Z" fill="white"/>
</g>
<mask id="mask1_201_729" style="mask-type:luminance" maskUnits="userSpaceOnUse" x="51" y="51" width="398" height="398">
<path d="M250 448.5C359.629 448.5 448.5 359.629 448.5 250C448.5 140.371 359.629 51.5 250 51.5C140.371 51.5 51.5 140.371 51.5 250C51.5 359.629 140.371 448.5 250 448.5Z" fill="white"/>
</mask>
<g mask="url(#mask1_201_729)">
<path d="M87.7999 148.5C90.9999 134.4 95.0999 116.8 109.2 109.7C108.3 109.7 107.4 109.8 106.5 109.8C110.5 112.6 110.4 118 110.3 122.3C110.1 128.5 110.2 134.4 111.6 140.5C112.7 145.4 114.2 152.4 119.6 154.3C124.3 156 129.7 153.4 133 150C137 145.9 137.9 139.9 139.2 134.6C140.6 129.2 142.9 124.1 146.3 119.7C147.9 117.6 149.7 115.6 151.8 113.8C153.4 112.4 156.4 109.2 158.4 111.3C160.2 113.2 160.5 116.7 160.9 119.1C161.4 122.3 161.7 125.5 161.9 128.7C162.6 136.8 163.8 157.7 177.1 153C186.3 149.7 191.1 140.1 194.8 131.8C196.7 127.6 198.4 123.3 200.8 119.3C202 117.3 203.4 115.2 205.1 113.7C206.8 112.3 208.6 113.1 209.9 114.6C211.3 116.3 212.1 118.7 212.6 120.9C213.3 124 213.8 127.2 214.4 130.4C215 133.9 215.7 137.3 216.3 140.8C216.8 143.5 217.2 146.2 218.1 148.8C223.1 162.1 238.7 146.2 242.9 140.1C246.3 135.1 248.1 129.4 249.8 123.7C251.4 118.4 253.2 112.8 257.3 108.9C259 107.3 260.9 106.3 263.2 105.9C262.6 105.6 261.9 105.2 261.3 104.9C262.7 111.8 264.1 118.7 265.5 125.7C266.8 132.1 267.8 138.7 269.5 145.1C270.8 149.7 273.2 154.4 278.4 155.3C283.5 156.2 288.9 152.9 291.8 148.9C295.4 143.9 296 137.6 297.5 131.9C299.1 125.9 301.6 120.2 304.9 115C305.6 113.8 306.3 112.5 307.3 111.5C308.2 110.5 309 111.2 309.9 112C311.8 113.7 313.4 115.9 314.6 118.1C317.2 122.7 318.7 127.8 320.1 132.8C322.3 140.8 325.5 157.9 337.3 155.2C342.9 153.9 347.6 149 350.9 144.6C354.2 140 356.6 134.8 357.6 129.2C358.6 124 358 116.7 362.6 113C367.7 108.8 371.7 116 373.4 120.1C375.6 125.4 376.5 131.1 378 136.7C379.3 141.6 381 148.1 385.3 151.4C390.2 155.2 396.7 151.8 400.7 148.4C404.9 144.9 408.4 140.8 411.4 136.3C417.2 127.4 420.3 116.7 420.2 106C420.2 103.3 419.9 100.7 419.4 97.9999C419 95.5999 414.4 97.4999 414.8 99.5999C416.6 109.8 415.1 120.5 410.7 129.9C408.5 134.5 405.7 138.7 402.2 142.5C399.5 145.5 393.8 151.7 389.4 148.6C387.2 147.1 386 144.3 384.9 141.9C383.8 139.4 383.1 136.8 382.4 134.2C381.1 128.9 380.1 123.4 378.1 118.3C376.2 113.7 373.1 108.1 367.4 108.2C362.1 108.3 357.4 112.4 355.6 117.2C353.5 122.5 353.9 128.4 352.2 133.9C350.6 139.1 347.7 143.9 343.8 147.8C342.1 149.5 339.8 151.7 337.2 152C334.7 152.3 332.6 150.5 331.3 148.6C328.3 144.5 326.9 139.2 325.6 134.4C324.2 129.5 323 124.5 321 119.8C320 117.5 318.9 115.3 317.4 113.3C316 111.3 314.3 109.1 312.1 108C306.5 105.2 302.3 112.1 300 116.1C297 121.2 294.7 126.7 293.1 132.5C291.6 137.8 291.3 144.3 287.7 148.7C284.7 152.4 279.6 153.4 276.6 149.2C275.2 147.3 274.4 144.9 273.9 142.7C273.2 139.7 272.6 136.6 272 133.5C270.7 126.8 269.3 120.1 268 113.4C267.3 110.2 266.7 106.9 266 103.7C265.8 102.8 264.9 102.5 264.1 102.7C258.9 103.5 254.5 106.6 251.5 110.8C248 115.6 246.3 121.2 244.7 126.8C243 132.4 240.9 137.7 237.2 142.3C235.5 144.4 233.6 146.3 231.4 147.9C229.5 149.4 226.8 151.7 224.5 149.8C222.8 148.4 222.2 145.8 221.8 143.7C221.2 140.4 220.6 137.1 220 133.8C219.4 130.5 218.8 127.1 218.1 123.8C217.6 121.3 217.2 118.7 216.3 116.3C214.6 111.9 211 108.5 206.1 110.2C201.4 111.8 198.2 116.7 195.9 120.9C191.5 128.8 189.2 138.2 183.3 145.2C180.7 148.2 175.9 152.6 172.2 149.1C170.3 147.3 169.4 144.7 168.7 142.3C167.9 139.3 167.4 136.3 167.1 133.2C166.4 126.9 166.3 120.6 164.8 114.5C164.3 112.2 163.5 109.6 161.4 108.3C158.9 106.7 155.8 107.8 153.6 109.2C144.3 115 137.6 125.1 134.9 135.7C133.6 140.6 133 147 128.7 150.3C127.1 151.5 125.1 152.2 123.2 151.7C120.6 151 119.3 148.5 118.4 146.2C116.1 140.2 115 133.6 115 127.2C115 122.3 115.8 117.3 114.3 112.6C113.6 110.5 112.4 108.7 110.6 107.4C109.8 106.8 108.7 107.1 107.9 107.5C92.0999 115.4 86.9999 133.8 83.4999 149.7C82.6999 151.8 87.3999 150.5 87.7999 148.5Z" fill="white"/>
</g>
<mask id="mask2_201_729" style="mask-type:luminance" maskUnits="userSpaceOnUse" x="51" y="51" width="398" height="398">
<path d="M250 448.5C359.629 448.5 448.5 359.629 448.5 250C448.5 140.371 359.629 51.5 250 51.5C140.371 51.5 51.5 140.371 51.5 250C51.5 359.629 140.371 448.5 250 448.5Z" fill="white"/>
</mask>
<g mask="url(#mask2_201_729)">
<path d="M52.5999 205C56.6999 190.2 62 171.7 76.9 164.3C75.7 164.7 74.5 165.1 73.3 165.5C77.5 170.2 76.5 176.8 76.4 182.6C76.3 189.1 77.8 195.4 81.4 200.8C83 203.2 85.1 206.1 87.9 207.1C90.6 208.1 93.8999 206.6 96.0999 205.2C98.5999 203.6 100.4 200.8 102 198.4C103.8 195.6 105.3 192.7 106.5 189.6C107.7 186.5 108.7 183.2 109.3 179.9C109.6 178.3 109.8 176.7 110.2 175.2C110.4 174.4 110.7 173.6 111.2 172.9C111.4 172.6 111.6 172.3 111.9 172C113.5 170.2 111 172.1 111 172C111.1 171.5 114.4 172.5 114.7 172.6C116 173.1 117.3 174 118.3 175C120.5 177.2 121.3 180.1 121.7 183.1C122.5 189.2 121.5 195.7 124.9 201.2C126.2 203.3 128.2 205.1 130.7 205.6C133.5 206.2 136.5 205.1 139.1 203.9C145.2 201.1 147.7 195.8 149 189.6C150.6 182.4 152.3 175.5 155.8 168.9C156.6 167.4 157.4 165.9 158.4 164.6C158.8 164.1 159.2 163.5 159.6 163C159.9 162.7 160.1 162.4 160.4 162.2C161.3 161.6 161.3 161.5 160.6 161.8C160.1 162 160 162 160.4 162C160.5 162.1 161.3 162.2 161.5 162.3C161.9 162.5 162.2 162.7 162.5 163C162.9 163.4 163.2 164 163.5 164.6C164.2 166.3 164.6 168.3 165.1 170.1C167.2 177.7 169.4 185.3 171.5 192.9C172.3 195.8 173.3 198.9 175.8 200.7C177.7 202 180.1 202.4 182.5 202.2C187.6 201.7 193.3 199 196.4 194.7C200.2 189.4 200.9 182.7 202 176.5C202.6 173.4 203.2 170.2 204.5 167.2C205.2 165.7 206 164.2 207 162.8C207.5 162.2 208 161.6 208.6 161C208.7 160.9 208.8 160.8 209 160.7C209.5 160.3 209.5 160.3 208.8 160.8C209.3 161 209.9 161 210.5 161.2C215.8 163.4 219.4 169.1 221.7 174C224.2 179.4 225.6 185.1 227.7 190.6C228.6 193.1 230 195.9 232.6 196.8C235.3 197.7 238.5 196.2 240.8 195C245.8 192.5 248.3 187.9 249.6 182.6C251 177.2 251.1 171.5 253.1 166.2C254.1 163.6 255.5 161.1 257.5 159.2C257.9 158.8 259.5 158 258.1 158.4C258.8 158.2 259.5 158.2 260.2 158.2C261.7 158.2 263.3 158.6 264.6 159.3C269.6 161.9 272.6 167.7 273.7 173C275.1 179.5 275 186.4 277.9 192.5C279.2 195.2 281.2 198.1 284.3 198.8C287.2 199.5 290.3 198.4 292.9 197.2C298.2 194.8 301.5 190.7 303.4 185.3C305.6 179.2 305.7 172.5 307.6 166.3C308.1 164.7 308.6 163.2 309.4 161.7C309.8 161 310.2 160.2 310.7 159.5C310.9 159.2 311.1 158.9 311.4 158.6C311.8 158.1 313 157.4 311.4 158.1C310 158.7 310.9 158.4 311.7 158.7C312.1 158.9 312.3 159 312.6 159.2C313.3 159.7 313.8 160.3 314.4 160.8C315.6 162 316.7 163.3 317.7 164.7C321.9 170.1 324.8 176.4 326.5 183C327.8 188.1 328.6 194 332.2 198C336.2 202.4 341.8 201.6 346.8 199.4C352.4 196.9 356.1 192.6 357.9 186.8C359.9 180.4 359.8 173.5 362 167.1C363 164.2 364.5 161.4 366.6 159.1C367.2 158.5 367.8 158 368.4 157.5C368.5 157.4 369.5 156.9 368.7 157.2C367.8 157.6 369.5 157.1 369.7 157.1C371.6 157 373.5 157.5 375 158.9C377.1 160.9 378.2 164 379.1 166.7C380 169.5 380.7 172.3 381.4 175.1C382.8 180.7 384.4 186.6 388.3 191C390.2 193.1 392.8 195.1 395.8 195C398.4 195 401.3 193.7 403.5 192.3C409 188.9 410.2 182.3 411 176.4C411.5 172.8 411.9 169 413.2 165.6C413.8 164.1 414.5 162.7 415.5 161.5C416.3 160.4 417.5 158.7 418.8 158.2C421 157.3 424.6 159.1 426.4 160.8C428.4 162.7 429.8 165.3 430.6 167.9C432.7 174.4 431.6 181.4 434 187.8C434.1 188.2 438.8 186.4 438.6 185.9C436.2 179.4 437.3 172.2 435.1 165.7C433.4 160.7 429.4 155.6 423.5 156C418.1 156.4 412.6 159.9 409.9 164.5C406.3 170.6 406.9 177.9 405.2 184.6C404.4 187.6 403.1 190.5 400.8 192.6C400.5 192.9 399.5 193.2 400.2 193.1C401 193 399.9 193 399.9 193C398.9 192.8 398.1 192.8 397.1 192.3C395.6 191.6 394.4 190.6 393.3 189.4C389.3 185.2 387.7 179.5 386.2 174C385.5 171.2 384.8 168.3 383.9 165.6C383 162.8 381.9 159.6 379.9 157.4C375.7 152.8 368.1 155.9 364 158.9C352.9 166.9 357.4 182.8 351.1 193.4C349.6 195.9 347.1 199.1 344 199.2C341.2 199.3 338.6 198 336.7 196C333.1 192 332.2 186.1 331 181C329.4 174.5 326.4 168.3 322.4 163C320.8 160.8 318.6 157.6 316 156.6C313.6 155.6 310.1 157.4 308.1 158.8C303.3 162.3 302.2 170.1 301.3 175.5C300.3 181.5 299.4 187.9 295.6 193C294.8 194.1 293.8 195.2 292.6 196.1C291.1 197.3 288.9 197 287.2 196.1C284.4 194.7 282.7 191.5 281.6 188.6C279.2 182.4 279.5 175.6 277.7 169.2C276.2 164 272.9 158.4 267.6 156.5C263 154.8 257.3 156.9 253.6 159.8C244.5 167 247.5 180.5 242.6 189.8C242 190.9 241.3 192 240.4 192.9C239.9 193.5 239.3 194 238.7 194.5C238.5 194.6 238.2 195 237.9 195C239.3 194.7 237.2 194.6 237.1 194.5C234.2 193.9 232.7 190.7 231.8 188.2C229.8 182.7 228.3 176.9 225.8 171.6C223.5 166.6 220.2 161.5 215.1 159C212.4 157.6 209.6 158.6 207.1 159.9C204.4 161.2 202.4 163.1 200.9 165.7C197.6 171.2 197.1 177.7 195.9 183.9C195.2 187.3 194.4 190.7 192.7 193.7C191.5 195.9 189.5 199.1 186.8 199.5C184.2 199.9 181.3 199.4 179.3 197.6C176.9 195.4 176.2 192 175.3 189C173.2 181.5 171.1 174.1 169 166.6C168.3 164.1 167.9 160 164.7 159.6C162.3 159.2 159.1 160.9 157.1 162.2C154.5 163.9 152.9 166.5 151.4 169.2C149.8 172.1 148.4 175.2 147.2 178.3C146 181.7 145.1 185.2 144.4 188.7C143.7 192.2 143 195.8 141.2 198.9C140.5 200.2 139.5 201.3 138.5 202.3C137.2 203.5 135.8 203.5 134.1 203C131.4 202.2 129.4 199.9 128.2 197.5C125.3 191.6 126.8 185 125.4 178.8C124.3 173.9 120.2 169.1 114.7 169.6C112.3 169.8 109.6 171 107.7 172.4C105.4 174.1 104.8 176.9 104.4 179.6C103.3 186.6 101 193.2 97.3 199.2C96.4 200.6 95.5 201.9 94.5 203.2C94 203.8 93.4 204.4 92.9 205.1C92.1 206.3 93.2 204.4 93.3 205.2C93.3 205.2 92.2999 205 92.1999 205C89.0999 204.1 86.7 200.6 85 198C81.4 192.4 80.1 186.1 80.3 179.5C80.5 174 81.0999 167.7 77.1999 163.3C76.7999 162.8 73.9999 164.3 73.5999 164.5C57.4999 172.6 51.7 190.5 47.2 206.7C47.2 206.8 49.3999 206.1 49.5999 206C50.9999 206.1 52.4999 205.7 52.5999 205Z" fill="white"/>
</g>
<mask id="mask3_201_729" style="mask-type:luminance" maskUnits="userSpaceOnUse" x="51" y="51" width="398" height="398">
<path d="M250 448.5C359.629 448.5 448.5 359.629 448.5 250C448.5 140.371 359.629 51.5 250 51.5C140.371 51.5 51.5 140.371 51.5 250C51.5 359.629 140.371 448.5 250 448.5Z" fill="white"/>
</mask>
<g mask="url(#mask3_201_729)">
<path d="M48.7 237.2C52 228.2 56.2 219.5 61.1 211.2C62.1 209.5 63.3 207.5 65 206.4C65.6 206 66.5 205.6 67 205.9C67.6 206.3 68.1 208.7 68.3 209.3C70 214 71.6 218.8 73.3 223.5C75.7 230.5 78 239.8 86.7 241.1C93.5 242.1 100.4 237 104 231.6C108.5 224.7 111 215.5 118.6 211.2C117.5 210.5 116.5 209.8 115.4 209.2C118 215.6 120.6 221.9 123.1 228.3C124.4 231.5 125.7 234.7 127 237.8C128.1 240.4 129.3 242.8 131.6 244.6C135.5 247.6 140.3 246.9 144.3 244.4C148.9 241.5 152 236.7 154.3 231.9C156.6 227.2 157.5 222.1 159.6 217.4C161.2 213.8 165.3 209.6 169.5 212.3C173.4 214.8 174.4 220.3 175 224.5C175.7 229.3 176.5 234.3 179.4 238.3C186 247.5 198.5 245 204.7 236.8C211.4 227.9 211.9 215.2 220.3 207.5C221.4 206.5 222.6 205.6 224 205.3C225.7 204.9 226.1 205.5 226.7 207C228 210.1 229.2 213.3 230.5 216.5C232.6 221.6 234.3 227.2 237.7 231.7C240.5 235.3 244.7 238.4 249.5 237.5C254.2 236.6 257.3 232.1 259 227.9C260.9 223.2 261.5 217.6 265.2 213.7C268.4 210.3 274.8 209 278.5 212.5C282.1 216 282.3 222.3 283.2 226.9C284.2 231.7 286.5 236.4 290.4 239.5C293.8 242.2 298.5 243.1 302.2 240.4C305.5 237.9 306.8 233.3 307.3 229.4C308 224.9 307.7 220.2 309.6 215.9C311.3 212 315.8 208.9 319.8 211.7C323.7 214.4 325.1 219.6 326.2 223.9C327.3 228.3 328.6 232.9 331.4 236.6C334 240.2 338.2 242.9 342.8 242.6C347.6 242.2 351.3 238.7 353.9 234.9C359.2 226.9 358.8 214.9 366.7 208.7C367.5 208.1 369 206.9 370.1 207C371.1 207.1 371.9 208.5 372.4 209.2C373.4 210.8 374.1 212.7 374.7 214.5C376 218.4 376.8 222.4 378.4 226.2C379.9 229.8 382.4 233.1 385.9 234.8C390.5 237.1 395.7 236 399.7 232.9C404.2 229.4 406.3 223.7 407.9 218.5C409.2 214.3 411.6 207.2 417.4 210.2C422.4 212.8 422.3 220.4 423.8 225.1C425.3 229.7 428.6 234.4 433.4 236C444.5 239.7 447 223.7 448.5 216.5C449.9 209.8 451.3 203.1 452.7 196.3C453.1 194.5 449.2 191.5 448.8 193.4C447.4 200.1 446 206.8 444.6 213.6C443.6 218.6 442.9 224.2 440.1 228.5C437.6 232.3 432.7 234 429.5 229.9C426.2 225.5 426.4 219.3 424.3 214.4C422.4 210.1 418.2 205.9 413.2 205.5C407.9 205.2 405.7 210 404.4 214.3C402.7 219.7 400.9 225.5 396.4 229.2C393 231.9 387.2 233.6 383.9 229.9C381.5 227.3 380.7 223.3 379.8 220C378.7 216 377.5 212 375.3 208.5C374.1 206.7 372.6 204.9 370.8 203.8C368.4 202.4 366.2 203.1 364 204.5C360.1 207.1 357.9 211.5 356.3 215.8C354.6 220.4 353.7 225.3 351.3 229.6C349.1 233.6 345.3 238.2 340.4 238.5C330.8 239.2 330.5 224.1 327.7 218C325.8 213.8 322.8 209.6 318.5 207.6C314.7 205.8 310.1 206.6 307.4 210C301.7 217.2 305.7 227.6 300.5 234.9C297.9 238.6 293.1 239.2 290.2 235.5C287 231.5 286.8 226.3 285.8 221.5C284.7 216.6 282.7 211.8 278.4 208.9C274.6 206.3 269.3 205.5 265.1 207.6C255.4 212.3 258.2 225.9 250.1 232C248.2 233.4 245.7 234.1 243.4 233.2C241.5 232.4 240.1 230.5 239.1 228.8C236.1 223.7 234.3 217.8 232.1 212.3C230.3 207.9 228.3 200.5 222.1 201.3C217 201.9 213.3 207.5 211.1 211.7C206.3 220.8 204.7 234.4 194.3 239.1C190 241 184.3 241.3 181.6 236.7C179.2 232.4 179.2 227.1 178.3 222.5C176.8 215.1 168.8 203.3 160 209C156.4 211.3 155 216 153.8 219.9C152.1 225.4 150.1 230.6 146.7 235.3C144.1 238.9 139.4 243.3 134.6 242.7C131.9 242.4 131.1 239.6 130.2 237.4C128.9 234.2 127.6 231 126.3 227.9C123.8 221.8 121.3 215.7 118.8 209.5C118.5 208.7 116.7 206.8 115.6 207.5C108.9 211.3 105.9 218.4 102.3 224.8C99 230.8 93 238.2 85.2 237.4C81 236.9 79.8 232.9 78.6 229.4C76.9 224.5 75.2 219.7 73.5 214.8C72.2 211.1 71.3 205.8 68 203.2C64.7 200.6 61.1 202.5 58.9 205.5C55.9 209.6 53.6 214.4 51.3 218.9C48.8 223.9 46.6 229.1 44.6 234.4C44.2 235.9 48 239.1 48.7 237.2Z" fill="white"/>
</g>
<mask id="mask4_201_729" style="mask-type:luminance" maskUnits="userSpaceOnUse" x="51" y="51" width="398" height="398">
<path d="M250 448.5C359.629 448.5 448.5 359.629 448.5 250C448.5 140.371 359.629 51.5 250 51.5C140.371 51.5 51.5 140.371 51.5 250C51.5 359.629 140.371 448.5 250 448.5Z" fill="white"/>
</mask>
<g mask="url(#mask4_201_729)">
<path d="M51.2 272.7C50.1 260.5 56.3 248.3 66.9 242C65.4 241.3 63.9 240.6 62.4 239.8C64.7 252.7 67.3 268.2 77.4 277.5C79.6 279.5 82.6 281.2 85.5 281.9C88.4 282.5 91.2 281.5 93.4 279.7C97.9 276 100 269.9 102.3 264.7C104.8 259 107.7 252.9 113.8 250.2C112.3 249.5 110.9 248.8 109.4 248.1C112.9 254 113.2 261 114.1 267.6C114.8 273.3 115.9 279.4 120.2 283.6C125 288.3 132.5 290.5 138.9 288.4C146.1 286 151.4 280.3 155 273.9C159.5 265.8 162.3 256.7 168.7 249.8C167.4 249.3 166 248.8 164.7 248.2C169.4 251.8 171.1 257.9 172.3 263.4C173.5 268.8 174.3 274.3 176.6 279.3C177.8 281.8 179.5 284.4 181.7 286.1C184.1 287.9 187.5 289.6 190.5 288.3C197 285.6 202.3 280.6 205.3 274.3C208.4 267.9 209.9 260.7 214.8 255.3C217.1 252.8 220 250.7 223.4 250C224.9 249.7 226.8 249.5 228.1 250.5C229.3 251.5 230.2 252.9 231 254.3C234 259.7 234.4 266 237.1 271.5C239.6 276.5 244.3 280.5 250 281.4C256.1 282.4 260.2 277.4 262.7 272.5C265.4 267.1 266.7 260.8 271.2 256.4C273.4 254.2 276.4 252.9 279.6 253.7C279.2 253.6 278.7 253 279.5 253.8C279.7 254 280 254.2 280.2 254.5C280.7 255 281.1 255.5 281.5 256.1C282.4 257.4 283.2 258.7 283.8 260.2C286.3 265.7 286.9 271.9 290.6 276.8C293.6 280.8 299.5 284.4 304.7 283.4C310.2 282.3 313.1 276.4 314.7 271.6C316.5 266.1 317.1 260.2 320.5 255.2C322.1 252.9 324.3 251 327.1 250.6C328.3 250.4 329.7 250.4 330.4 250.9C331.7 251.8 332.7 253.3 333.5 254.6C336.7 259.7 337.4 265.7 340 271.1C342.6 276.3 346.9 280.5 352.8 281.8C359.7 283.3 364.2 277.1 366.4 271.5C369 265 369.8 257.8 374.2 252.1C376.2 249.5 378.9 247.6 382.1 246.9C380.6 246.2 379.2 245.5 377.7 244.8C380.3 250.6 383 256.4 385.6 262.2C387.6 266.7 389.2 272.3 393.6 275.1C397.2 277.4 401.3 278.4 405.2 276.4C409.9 274 411.9 269.4 413.3 264.7C414.8 259.6 415.8 254.2 419.8 250.4C421.6 248.6 423.9 247.2 426.5 247.1C427.1 247.1 427.6 247.2 428.2 247.3C427.1 247.1 427.7 247 428.1 247.5C428.8 248.3 429.4 249 429.9 249.9C433.6 256 434.1 263.6 440.8 267.3C445.3 269.8 450.2 270.3 454.6 267.1C459.6 263.4 460.9 256.9 461.6 251.2C461.7 250.2 457.1 248.9 457.1 249C456.5 253.9 455.5 259.2 452.1 263.1C450.6 264.8 448.7 266.1 446.5 266.8C445.6 267.1 444.6 267.2 443.6 267.2C443.3 267.2 443 267.2 442.7 267.1C441.7 266.9 441.7 266.9 442.6 267.2C442.2 266.9 441.8 266.6 441.5 266.2C437 261.4 437 253.9 432.4 249.3C430.1 246.9 426.3 245.1 423 244.9C418.7 244.6 415 247.8 412.8 251.2C408 258.8 409.4 271.5 399.2 274.9C398.1 275.3 397 275.3 395.9 275.4C395.7 275.4 395.6 275.3 395.4 275.3C396.2 275.6 396.1 275.5 395.3 274.8C394.9 274.3 394.6 273.8 394.3 273.3C392.7 270.7 391.6 267.7 390.3 264.9C387.6 258.9 384.8 252.8 382.1 246.8C381.7 245.9 378.7 244.5 377.7 244.7C371.4 246 367.6 251.8 365.5 257.4C363.1 263.9 362.2 271.7 357.1 276.8C355.3 278.6 351.2 281 348.9 279.4C346.5 277.8 344.9 274.5 343.8 272C341.4 266.6 340.6 260.7 337.2 255.7C334.4 251.6 329.1 248.2 323.9 248.3C318.3 248.5 315 253.7 313.1 258.4C311 263.8 310.6 269.7 307.7 274.8C306.4 277.2 304.6 279.5 302 280.6C300.9 281.1 299.7 281.3 298.5 281.3C298.1 281.3 297.6 281.1 297.2 281.2C296.7 281.3 297.1 281.1 297.4 281.4C296.6 280.8 295.9 280.2 295.3 279.4C291.5 274.7 290.7 268.6 288.5 263.2C286.3 257.8 282.7 253.9 277.1 252C263.6 247.5 261.2 266.6 255.8 274.2C254.1 276.5 251.9 278.7 249 279.3C247.8 279.5 246.4 279.7 245.4 279C244.2 278.1 243.2 276.6 242.4 275.3C239.3 270.1 238.8 263.9 236.4 258.4C234.1 253 229.5 249.3 223.7 248C217.3 246.6 211.5 251.2 208.1 256.2C204.2 261.8 202.9 268.8 199.6 274.7C197.8 277.8 195.5 280.4 192.6 282.5C191.1 283.6 189.5 284.5 187.8 285.5C186.9 286 185.9 286.3 185 286.7C184.9 286.8 183.1 286.9 185 287.3C184.7 287.2 184.1 286.4 183.9 286.2C176.4 277.5 178.5 264.7 173 255.1C171.7 252.9 170 251 168 249.5C167.5 249.1 164.6 247.3 164 247.9C154.2 258.4 152.7 274.8 140.5 283.3C137.8 285.2 134.7 286.7 131.4 287.2C130 287.4 128.5 287.5 127.1 287.2C125.5 286.9 124.3 285.9 123.3 284.7C119.7 280.5 118.9 274.5 118.3 269.2C117.5 262.8 117 256.1 113.7 250.5C113.3 249.8 110.2 248.1 109.3 248.4C100 252.4 98 263.6 93.5 271.7C92.3 274 90.8 276.2 88.9 277.8C87.7 278.8 86.3 279.7 84.8 280.1C84.2 280.2 83.6 280.3 83.1 280.4C82 280.4 82.2 280.5 81.2 279.6C76.7 275.5 73.8 269.4 71.8 263.8C69.3 256.9 68 249.7 66.7 242.6C66.5 241.7 62.9 240 62.2 240.4C51.7 246.7 45.4 258.9 46.5 271.1C46.6 271.7 48.1 272.3 48.6 272.6C48.9 272.1 51.2 273 51.2 272.7Z" fill="white"/>
</g>
<mask id="mask5_201_729" style="mask-type:luminance" maskUnits="userSpaceOnUse" x="51" y="51" width="398" height="398">
<path d="M250 448.5C359.629 448.5 448.5 359.629 448.5 250C448.5 140.371 359.629 51.5 250 51.5C140.371 51.5 51.5 140.371 51.5 250C51.5 359.629 140.371 448.5 250 448.5Z" fill="white"/>
</mask>
<g mask="url(#mask5_201_729)">
<path d="M52.3999 315.1C51.3999 309.1 50.2999 302.2 53.2999 296.5C55.2999 292.7 59.8999 289.8 64.2999 290.5C66.6999 290.9 67.2999 293.1 67.7999 295.3C68.2999 298 68.3999 300.7 69.5999 303.2C71.3999 307 75.2999 309.4 79.2999 310.3C82.8999 311.1 87.0999 310.6 89.9999 308.3C93.6999 305.5 93.3999 300.9 95.6999 297.2C98.8999 291.8 103.2 298.2 104.7 301.4C106.5 305.2 107.5 309.2 109.1 313C110.7 316.7 112.8 320.1 116.2 322.4C120.4 325.2 125.5 325.5 130 323.2C140.9 317.5 141.7 301.9 153.4 297.4C155.6 296.6 158.5 296.1 160.6 297.4C162 298.3 162.9 300 163.6 301.5C165.3 305.3 165.8 309.5 167.2 313.3C168.6 317.2 170.8 320.7 174.4 322.7C179 325.3 184.3 324.6 188.5 321.5C193.4 318 195.7 312.4 198.6 307.3C200.6 303.8 205.9 295.9 210.8 300C214.6 303.3 215.4 308.9 217.2 313.3C219.1 317.8 222.1 322.1 226.9 323.7C232 325.4 236.8 322.9 240.1 319C243.8 314.6 245 308.9 247.4 303.8C248.6 301.3 250.2 298.6 252.5 297C253.5 296.3 255.2 295.3 256.5 295.6C257.8 295.9 258.7 297.9 259.3 299C262.3 304.1 264.6 309.7 268.6 314.1C272.2 318 277.3 321.1 282.6 321.3C288.1 321.5 292 318 294.2 313.2C296.4 308.5 297.3 303 301.1 299.2C303 297.3 305.8 296 308.4 297.1C310.9 298.1 312.6 300.8 314.1 302.9C319.5 310.6 326 320.7 336.6 321C348 321.3 353.2 309 359.9 302C363.6 298.2 369.4 294 375 296.4C377.5 297.5 379.5 299.8 381.4 301.7C383.5 303.8 385.6 306 388.1 307.6C392.3 310.3 398 311.9 402.3 308.4C405.7 305.6 406.8 301 408.5 297.1C410.5 292.5 413.7 288.7 419.1 288.7C425.3 288.8 426.6 294.9 428.7 299.5C430.8 304.1 435.3 309 440.7 308.9C446.2 308.9 448.3 303.2 449.2 298.7C449.7 296 450.1 293 451.8 290.8C452.5 289.9 453.4 289.2 454.5 288.8C455.1 288.6 455.6 288.5 456.2 288.5C456.4 288.5 456.7 288.5 456.9 288.5C457.2 288.6 456.8 288.5 456.8 288.4C457.4 289.4 458.6 290.3 459.7 290.4C460.7 290.5 461.2 289.9 460.7 289C458.3 285 452.8 283.6 449 286.6C444.5 290.2 445.7 297 443.2 301.7C442 303.9 439.6 306.2 436.9 305.2C434.3 304.3 432.9 301.1 432 298.7C429.8 293.5 427.5 288.6 422 286.3C417.5 284.4 412 284.7 408.3 288.1C404.9 291.2 403.8 295.9 402 300C399.9 304.7 395.9 308.6 390.4 305.9C385.1 303.3 382 297.5 376.9 294.4C372.2 291.6 366.8 291.3 361.9 294C356.9 296.8 353.5 301.5 350.1 305.9C346.9 310.1 343.2 314.8 338 316.6C332.8 318.4 328.3 316.1 324.8 312.3C321.2 308.4 318.7 303.7 315.3 299.6C312 295.6 306.8 291.7 301.3 293.3C290 296.5 293.8 314.6 282.5 317.2C276.5 318.6 271.6 314 268.6 309.3C265.5 304.4 263.5 297.9 259 294C254.2 289.9 248.6 292.2 245.3 296.9C242 301.5 241 307.3 238.3 312.2C236.1 316.2 230.2 322.9 225 319.9C223 318.8 221.9 316.2 221.1 314.2C220.1 311.8 219.5 309.2 218.5 306.8C216.7 302.2 213.5 297.7 208.8 295.9C203.4 293.8 198.8 297.1 195.9 301.5C192.5 306.6 190.5 312.8 185.9 316.9C182.7 319.8 176.3 322.6 173.1 318.2C170.8 314.9 170.1 310.5 169.1 306.8C168 302.9 166.5 298.9 163.3 296.2C159.4 292.7 154.1 291.9 149.3 293.8C143.8 296 140.5 300.9 137.6 305.8C134.5 311.1 131.4 316.9 125.6 319.7C121.2 321.8 117 320.9 114.5 316.7C110.3 309.5 109.8 300.3 103.2 294.4C99.5999 291.2 93.6999 289.2 90.9999 294.5C88.9999 298.4 89.0999 303.1 84.7999 305.4C81.8999 306.9 77.2999 307.4 74.5999 305.2C72.7999 303.7 72.4999 301 72.0999 298.7C71.6999 296 71.2999 293.3 69.5999 291C63.4999 282.9 51.0999 286.5 47.9999 295.3C45.9999 301 46.8999 307.3 47.8999 313.1C48.3999 315.2 52.7999 317.3 52.3999 315.1Z" fill="white"/>
</g>
<mask id="mask6_201_729" style="mask-type:luminance" maskUnits="userSpaceOnUse" x="51" y="51" width="398" height="398">
<path d="M250 448.5C359.629 448.5 448.5 359.629 448.5 250C448.5 140.371 359.629 51.5 250 51.5C140.371 51.5 51.5 140.371 51.5 250C51.5 359.629 140.371 448.5 250 448.5Z" fill="white"/>
</mask>
<g mask="url(#mask6_201_729)">
<path d="M65.9 342.2C67.2 337.6 68.6 331.6 73 328.9C74.7 327.8 76.7 327.2 78.7 327.6C80.9 328 82.1 329.6 82.7 331.6C84.2 336 84.3 341 89.2 343.2C93.5 345.1 98.9 343.6 101.1 339.3C102 337.6 102.5 334.6 104.8 334.2C106.6 333.8 108.6 335 109.9 336.1C113.6 339 115 343.8 117.7 347.4C120.5 351.1 124.6 353.8 129.4 353.1C134.5 352.4 138.3 348.3 141 344.2C143.6 340.2 145.4 335.7 148.9 332.4C152.5 329.1 157 329.5 160.2 333.1C164 337.3 164.9 343.2 166.4 348.4C168 353.6 170.5 358.3 175.3 361.1C179.5 363.6 184.8 363.7 188.6 360.5C191.8 357.9 193.1 353.7 194.3 350C195.6 346 196.7 341.5 200.4 339C203.7 336.6 208.5 335.9 211.6 339C214.6 342 215.5 346.7 217.2 350.5C219.1 354.7 221.9 358.3 226.4 359.9C231.1 361.5 236.2 360.8 240.6 358.7C245.4 356.4 249 352.1 251.6 347.6C253 345.2 254.2 342.7 255.4 340.2C256.5 337.8 257.4 335.2 259.1 333.2C262.4 329.2 267.8 330.3 271.6 333C276.1 336.2 278.6 341.4 281.4 346C284.3 350.6 287.8 354.8 292.8 357C297.1 359 302.4 359.2 306.4 356.4C309.6 354.1 311.4 350.6 312.7 347C314 343.5 314.9 339.7 317 336.6C319.5 332.8 323.7 332.3 327.6 334.3C336.8 339 340 351.3 350.9 353.5C356 354.5 361.1 352.6 364.8 349.2C369.1 345.3 370.3 340.3 372.2 335.1C373.6 331.2 377.7 325.1 382.3 329C385.8 332 386.9 337 389.4 340.8C392 344.7 396.4 348.3 401.4 347.2C406.1 346.1 408 341.4 408.7 337.1C409.2 333.6 408.8 328 412.2 325.8C415.5 323.6 417.6 329.7 418.6 331.8C420.5 336 423 339.7 427.5 341.3C432.2 343 437.5 342.3 441.2 338.8C444.6 335.7 446.3 330.7 445.2 326.2C444.6 323.5 439.6 323.5 440.2 326.4C441.2 330.8 439.1 335.9 434.6 337.3C430.1 338.7 426 336 424 332.1C422.3 328.7 421 324.4 417.6 322.1C413.8 319.6 409.1 320.9 406.6 324.5C404 328.3 404.3 332.8 403.4 337.2C403 339 402.5 341.1 400.9 342.2C399 343.5 397.1 342.4 395.6 341.1C392 337.8 390.9 332.6 388.1 328.7C385.4 324.9 381 322.2 376.3 323.5C370.9 325 368.3 330.4 366.7 335.3C365 340.5 363 345.4 357.9 348.1C347.7 353.4 341.2 339.8 335.1 334.3C331.2 330.7 325.9 327.8 320.4 328.8C316.4 329.5 313.3 332.4 311.5 335.9C309.7 339.3 308.8 343 307.4 346.5C306 349.8 303.9 353.5 300 354C295.1 354.6 290.6 350.9 287.8 347.3C284.4 342.8 282.1 337.5 278.3 333.2C275 329.5 270.4 326.6 265.4 326.2C260.1 325.7 255.8 328.4 253.1 332.9C248.1 341.6 245.1 354.2 233.6 356.3C229.1 357.1 225 355.5 222.7 351.5C220.5 347.7 219.6 343.4 217.4 339.6C215 335.6 211.1 332.9 206.4 332.7C201.9 332.5 197.3 334.7 194.3 338C191.4 341.3 190.3 345.7 189 349.8C187.9 353.2 186.5 357.7 182.6 358.7C177.7 360 173.6 354.7 172 350.8C169.9 345.6 169.3 339.7 166.6 334.7C164.2 330.4 160.2 326.4 155.1 325.9C150.3 325.4 146 327.9 143 331.5C139.9 335.3 138.1 339.9 135.1 343.7C132.5 347.1 128.1 350.8 123.8 347.8C120.2 345.2 118.7 340.4 116.3 336.8C113.8 333.1 109.4 330 104.9 329.9C102.7 329.8 100.6 330.7 99.1 332.2C97.4 334 97.2 336.9 95.4 338.6C94.2 339.8 92 340.1 90.5 339.2C88.7 338.1 88.2 335.4 87.8 333.5C86.7 328.8 84.7 324.7 79.6 323.5C75 322.4 70 324.3 66.8 327.7C63.3 331.5 61.8 336.6 60.5 341.4C60.2 344 65.1 345 65.9 342.2Z" fill="white"/>
</g>
<mask id="mask7_201_729" style="mask-type:luminance" maskUnits="userSpaceOnUse" x="51" y="51" width="398" height="398">
<path d="M250 448.5C359.629 448.5 448.5 359.629 448.5 250C448.5 140.371 359.629 51.5 250 51.5C140.371 51.5 51.5 140.371 51.5 250C51.5 359.629 140.371 448.5 250 448.5Z" fill="white"/>
</mask>
<g mask="url(#mask7_201_729)">
<path d="M88.1999 378.2C89.1999 370.3 92.4999 360.1 102 359.6C103.5 359.5 105.3 359.8 106.5 360.7C108.2 362 108.7 364.5 109.3 366.4C110.5 370.4 112 373.9 115.4 376.5C121.8 381.4 130.4 381.3 136 375.3C139.1 372 140.9 367.8 144.1 364.5C146.5 362.1 151.4 358.8 154.6 361.7C157 363.8 157.6 367.8 158.5 370.7C159.6 374.3 160.9 377.7 163.4 380.5C168 385.8 175.3 388.5 182.2 388.1C185.4 387.9 188.7 387 191.4 385.2C194.6 383.1 196.7 379.9 198.9 376.8C200.9 373.9 203.2 370.6 206.7 369.2C210.7 367.7 214.4 369.8 217 372.7C222.6 378.8 224.5 387.5 231.3 392.7C234.6 395.2 238.9 396.7 243.1 395.8C247.1 395 250.6 392.5 253.3 389.5C258.8 383.4 259.9 374.9 265 368.4C267.4 365.4 270.9 363.3 274.8 364.1C279.1 365 282.1 368.8 284.3 372.3C289.2 379.7 294.5 389.1 304.6 389.1C308.7 389.1 312.1 386.7 314.1 383.2C316.2 379.5 316.9 375.2 319 371.5C320.7 368.4 323.9 364.8 327.9 366.1C331.5 367.2 333.9 371.5 336.3 374.1C342.2 380.6 352 385.1 359.7 379C366.3 373.8 368.8 363.7 377.1 360.7C381.1 359.2 384 361.2 386.4 364.2C388.7 367.1 390.6 370.2 393.5 372.5C400 377.7 409.9 376.7 414.2 369.3C418 362.8 418.2 352.6 427.3 351C430.5 350.5 434.1 351.1 436.3 353.7C436.9 354.4 438.4 355.4 439.3 354.8C440.3 354.2 439.6 352.9 439.1 352.3C434.1 346.6 424.6 344.9 418.5 349.9C412 355.2 413.6 366.5 405.8 370.6C402.4 372.4 397.9 372.5 394.9 369.9C392.3 367.6 390.5 364.4 388.2 361.8C385.6 358.8 382.2 356.4 378.1 356.3C373.6 356.1 369.6 358.9 366.7 362.1C361.4 367.8 357.3 379.5 347.7 378C338.6 376.7 335.9 365.9 327.8 362.7C324 361.2 320 362.2 317.2 365.1C314.3 368.2 313.2 372.3 311.8 376.2C310.4 380.1 308.1 384.5 303.6 385.1C299.1 385.7 295.2 382.7 292.7 379.3C289.7 375.4 287.6 370.8 284.3 367.1C281.4 363.8 277.6 361 273.2 360.2C264.6 358.5 259.7 366 256.7 372.8C253.4 380.2 249.7 390 240.6 391.8C231.7 393.6 227.8 383.7 224.3 377.5C220.4 370.6 212.6 362.2 203.8 365.2C196.2 367.8 194.4 377.1 188.2 381.3C182.7 384.9 175.2 384.9 169.6 381.6C166.8 380 164.9 377.5 163.8 374.5C162.5 371 161.8 367.2 160.1 363.8C158.4 360.3 155.3 357.4 151.4 356.7C147 355.9 142.9 358.4 139.9 361.5C134.6 367.2 131.4 377.4 121.7 375.7C118 375.1 115.5 372.8 114.2 369.3C112.7 365 111.9 360.7 108 357.8C101 352.7 91.6999 356 87.5999 363.1C85.4999 366.8 84.4999 371.1 83.9999 375.3C83.6999 377.6 87.8999 380.2 88.1999 378.2Z" fill="white"/>
</g>
<mask id="mask8_201_729" style="mask-type:luminance" maskUnits="userSpaceOnUse" x="51" y="51" width="398" height="398">
<path d="M250 448.5C359.629 448.5 448.5 359.629 448.5 250C448.5 140.371 359.629 51.5 250 51.5C140.371 51.5 51.5 140.371 51.5 250C51.5 359.629 140.371 448.5 250 448.5Z" fill="white"/>
</mask>
<g mask="url(#mask8_201_729)">
<path d="M137.3 416.2C137.8 409.9 139.3 403.3 143.8 398.6C147.5 394.7 153.7 392.6 158.8 394.7C164.5 397 165.2 404.5 168 409.2C171.3 414.8 176.9 418.9 183.2 420.4C189.6 421.9 196.6 420.2 201.7 416.2C206.1 412.7 208.7 407.3 213.3 404.1C215.4 402.6 217.9 401.9 220.4 402.8C223.1 403.7 225.1 406 226.7 408.3C230.2 413.6 232.3 420 238.1 423.4C241.1 425.2 244.6 425.7 248.1 426C251.2 426.2 254.4 426.4 257.5 426.3C263.4 426.1 269.6 424.7 273.6 420C277.2 415.9 278.2 410.1 281.7 406C286.1 401 294.2 403.2 299.4 405.7C305 408.4 308.9 413.2 313.4 417.3C317.6 421.1 323 424.5 328.8 422.8C339.4 419.9 340.8 406.2 350 401.3C355.1 398.7 361.4 398.9 366.5 401.1C372.8 403.8 376.6 410.3 383.4 412.1C386.4 412.9 389.8 412.7 392.3 410.7C394.5 409 395.6 406.4 396.3 403.7C397 401.2 397.4 398.3 399 396.1C400.6 393.9 403.1 392.6 405.7 392C408.5 391.3 411.5 391.2 414.4 391.1C415.7 391.1 415.8 389.3 415.6 388.4C415.2 387.2 414.2 386.4 412.9 386.4C407.2 386.5 400.5 387 396.4 391.5C394.4 393.7 393.6 396.4 392.9 399.2C392.3 401.7 391.7 404.6 389.7 406.4C387.4 408.4 384 407.9 381.4 406.7C378.3 405.2 375.9 402.5 373.3 400.4C368.4 396.4 362.2 394.3 355.9 394.6C349.9 394.9 344.7 397.8 341 402.4C337.8 406.4 335.6 411.3 331.9 415C328.3 418.6 323.3 419.3 319 416.6C313.9 413.3 310.3 408.1 305.5 404.5C300.1 400.4 292.7 397.5 285.8 398.2C279.5 398.9 276.5 404.2 274.1 409.3C272.9 411.8 271.8 414.3 269.9 416.4C268 418.5 265.4 419.8 262.7 420.5C259.8 421.2 256.8 421.4 253.8 421.4C250.5 421.4 247 421.2 243.7 420.7C240.6 420.2 238 418.8 236 416.4C234.1 414.1 232.8 411.4 231.4 408.8C228.4 403.4 223.5 397.3 216.7 397.6C210.8 397.8 207 402.9 203.6 407C201.7 409.3 199.8 411.5 197.3 413.1C194.6 414.8 191.5 415.8 188.3 416.1C182.1 416.6 175.8 413.8 172.1 408.8C170.3 406.4 169.4 403.5 168.2 400.8C166.9 397.6 165.2 394.5 162.5 392.3C157.9 388.5 151.4 388.5 146.1 390.7C140.2 393.2 136.5 399 134.7 405C133.8 408.1 133.2 411.3 133 414.5C132.9 415.7 133.6 417.1 134.8 417.6C136 418 137.2 417.4 137.3 416.2Z" fill="white"/>
</g>
<mask id="mask9_201_729" style="mask-type:luminance" maskUnits="userSpaceOnUse" x="51" y="51" width="398" height="398">
<path d="M250 448.5C359.629 448.5 448.5 359.629 448.5 250C448.5 140.371 359.629 51.5 250 51.5C140.371 51.5 51.5 140.371 51.5 250C51.5 359.629 140.371 448.5 250 448.5Z" fill="white"/>
</mask>
<g mask="url(#mask9_201_729)">
<path d="M183.7 452.2C185.1 448.5 186.8 445 188.9 441.7C189.9 440.1 191 438.5 192.2 437.1C193.1 436 194.1 434.9 195.4 434.4C196.8 433.8 198.6 433.8 200 434.4C201.6 435.1 202.6 436.4 203.5 437.9C205.2 440.7 207.2 443.1 210.1 444.8C216.4 448.4 223.9 447.6 230.3 444.8C233.9 443.2 237.1 440.9 240.1 438.4C241.1 437.6 242.2 436.3 243.5 436.1C244.9 435.8 246.4 436.6 247.5 437.6C249.7 439.7 250.9 442.7 252.8 445C254.9 447.6 257.7 449.6 260.7 450.9C263.9 452.2 267.9 453 271.2 451.6C274.9 450 276.4 446.5 278.5 443.4C281.9 438.1 286.2 432.5 292.8 431.6C295.8 431.2 299 431.7 301.6 433.3C304.4 435.1 305.9 438.1 307.4 440.9C309 443.8 311 446.4 314.2 447.5C317.5 448.6 321.1 448.2 324.3 447C327.9 445.6 331.1 443.3 333.8 440.5C336.2 438.1 338.1 435 340.8 433C341.8 432.3 342.8 432.1 344.1 432.2C345.2 432.3 346.5 431.4 347.2 430.7C347.7 430.2 348.4 429.2 347.3 429.1C339.5 428.2 334.9 436.4 330.1 441.1C327.7 443.4 324.9 445.1 321.5 445.1C317.8 445.1 314.9 443.3 312.9 440.3C311.1 437.5 309.9 434.3 307.5 431.9C305.2 429.7 302.1 428.6 299 428.4C291.7 428 284.9 432 280.1 437.2C277.6 440 275.5 443.1 273.5 446.3C273.1 447 272.6 447.8 272.2 448.4C272 448.6 271.6 449.1 271.5 449.3C271.5 449.4 271.1 449.5 271.6 449.3C272.1 449.1 271.3 449.3 271.2 449.3C269.5 449.4 267.6 449 266 448.5C262.6 447.4 259.6 445.4 257.4 442.7C255.4 440.3 254.2 437.2 251.9 435C245.6 429.2 238.7 438 233.6 441.1C227.6 444.8 220.1 445.5 213.9 441.8C212.4 440.9 211.1 439.8 210 438.4C208.9 437.1 208.2 435.5 207.2 434.1C204.9 431 201.3 430.4 197.8 431.4C194 432.4 190.9 435.1 188.4 438.1C185.9 441.2 183.8 444.7 182 448.2C181.1 450 180.3 451.8 179.6 453.7C179.2 454.7 180.5 454.6 181.1 454.4C181.9 454 183.3 453.2 183.7 452.2Z" fill="white"/>
</g>
</svg>
