<svg width="500" height="500" viewBox="0 0 500 500" fill="none" xmlns="http://www.w3.org/2000/svg">
<g clip-path="url(#clip0_201_735)">
<mask id="mask0_201_735" style="mask-type:luminance" maskUnits="userSpaceOnUse" x="51" y="51" width="398" height="398">
<path d="M250 448.5C359.629 448.5 448.5 359.629 448.5 250C448.5 140.371 359.629 51.5 250 51.5C140.371 51.5 51.5 140.371 51.5 250C51.5 359.629 140.371 448.5 250 448.5Z" fill="white"/>
</mask>
<g mask="url(#mask0_201_735)">
<path d="M252.8 233.3C234 209 215.5 184.5 197.2 159.8C178.9 135.1 160.9 110.2 143.2 85.2C133.2 71.1 123.4 57 113.6 42.9C112.3 41 107.7 42.9 109.2 45C126.6 70.3 144.4 95.4 162.3 120.3C180.3 145.2 198.5 169.9 217 194.4C227.4 208.1 237.8 221.8 248.4 235.5C249.8 237.2 254.4 235.3 252.8 233.3Z" fill="white"/>
</g>
<mask id="mask1_201_735" style="mask-type:luminance" maskUnits="userSpaceOnUse" x="51" y="51" width="398" height="398">
<path d="M250 448.5C359.629 448.5 448.5 359.629 448.5 250C448.5 140.371 359.629 51.5 250 51.5C140.371 51.5 51.5 140.371 51.5 250C51.5 359.629 140.371 448.5 250 448.5Z" fill="white"/>
</mask>
<g mask="url(#mask1_201_735)">
<path d="M250.7 239C245.2 212.3 238.7 185.8 231.3 159.5C223.9 133.2 215.6 107.2 206.3 81.6C201.1 67.1 195.6 52.8 189.8 38.5C189.4 37.6 188.6 36.8 187.9 36.1C187.6 35.8 187.2 35.2 186.8 35.1C186.8 35.1 186.3 34.8 186.5 35.1C196.8 60.4 206.1 86 214.6 112C223 137.9 230.6 164.2 237.1 190.7C240.8 205.6 244.2 220.6 247.3 235.7C247.5 236.6 248.6 237.5 249.2 238.1C249.5 238.2 250.7 239.3 250.7 239Z" fill="white"/>
</g>
<mask id="mask2_201_735" style="mask-type:luminance" maskUnits="userSpaceOnUse" x="51" y="51" width="398" height="398">
<path d="M250 448.5C359.629 448.5 448.5 359.629 448.5 250C448.5 140.371 359.629 51.5 250 51.5C140.371 51.5 51.5 140.371 51.5 250C51.5 359.629 140.371 448.5 250 448.5Z" fill="white"/>
</mask>
<g mask="url(#mask2_201_735)">
<path d="M255.7 237C255.7 212.7 255 188.4 253.8 164.2C252.5 140 250.6 115.7 248.1 91.5999C246.7 77.9999 245 64.2999 243.2 50.7999C243 49.5999 242 48.8999 240.9 48.4999C240.3 48.2999 238.4 48.0999 238.5 49.2999C241.7 73.3999 244.4 97.4999 246.3 121.7C248.3 145.9 249.6 170.2 250.4 194.4C250.8 208.1 251 221.8 251 235.5C251 237.4 255.7 239.1 255.7 237Z" fill="white"/>
</g>
<mask id="mask3_201_735" style="mask-type:luminance" maskUnits="userSpaceOnUse" x="51" y="51" width="398" height="398">
<path d="M250 448.5C359.629 448.5 448.5 359.629 448.5 250C448.5 140.371 359.629 51.5 250 51.5C140.371 51.5 51.5 140.371 51.5 250C51.5 359.629 140.371 448.5 250 448.5Z" fill="white"/>
</mask>
<g mask="url(#mask3_201_735)">
<path d="M257.5 236C263.5 214.1 268.9 192 273.8 169.8C278.7 147.6 283 125.3 286.7 102.8C288.8 90.1 290.7 77.5 292.5 64.7C292.8 62.7 287.9 63.3 287.6 64.9C284.5 87.4 280.8 109.9 276.6 132.2C272.4 154.5 267.6 176.8 262.2 198.9C259.2 211.4 256 223.8 252.6 236.2C252.2 238.1 257.1 237.7 257.5 236Z" fill="white"/>
</g>
<mask id="mask4_201_735" style="mask-type:luminance" maskUnits="userSpaceOnUse" x="51" y="51" width="398" height="398">
<path d="M250 448.5C359.629 448.5 448.5 359.629 448.5 250C448.5 140.371 359.629 51.5 250 51.5C140.371 51.5 51.5 140.371 51.5 250C51.5 359.629 140.371 448.5 250 448.5Z" fill="white"/>
</mask>
<g mask="url(#mask4_201_735)">
<path d="M256.3 238.3C276.2 214.1 295.6 189.4 314.5 164.4C333.4 139.4 351.8 114 369.8 88.3C379.9 73.8 389.8 59.2 399.6 44.5C401 42.4 396.4 40.5 395.2 42.4C377.8 68.5 360 94.3 341.6 119.7C323.2 145.1 304.4 170.1 285.1 194.8C274.2 208.7 263.2 222.5 252 236.1C250.3 238.1 254.9 240.1 256.3 238.3Z" fill="white"/>
</g>
<mask id="mask5_201_735" style="mask-type:luminance" maskUnits="userSpaceOnUse" x="51" y="51" width="398" height="398">
<path d="M250 448.5C359.629 448.5 448.5 359.629 448.5 250C448.5 140.371 359.629 51.5 250 51.5C140.371 51.5 51.5 140.371 51.5 250C51.5 359.629 140.371 448.5 250 448.5Z" fill="white"/>
</mask>
<g mask="url(#mask5_201_735)">
<path d="M256.9 238.7C271.4 228.6 285.9 218.5 300.4 208.5C315 198.4 329.5 188.3 344.1 178.1C358.6 168 373.1 157.9 387.6 147.9C402.1 137.8 416.6 127.7 431.1 117.7C445.7 107.6 460.2 97.5 474.8 87.3C476.6 86.1 478.4 84.8 480.1 83.6C480.5 83.3 481.8 82.4 481.1 81.8C480.4 81.3 478.6 82.4 478.1 82.8C463.6 92.9 449.1 103 434.6 113C420 123.1 405.5 133.2 390.9 143.4C376.4 153.5 361.9 163.6 347.4 173.6C332.9 183.7 318.4 193.8 303.9 203.8C289.3 213.9 274.8 224 260.2 234.2C258.4 235.4 256.6 236.7 254.9 237.9C254.5 238.2 253.2 239.1 253.9 239.7C254.6 240.2 256.5 239.1 256.9 238.7Z" fill="white"/>
</g>
<mask id="mask6_201_735" style="mask-type:luminance" maskUnits="userSpaceOnUse" x="51" y="51" width="398" height="398">
<path d="M250 448.5C359.629 448.5 448.5 359.629 448.5 250C448.5 140.371 359.629 51.5 250 51.5C140.371 51.5 51.5 140.371 51.5 250C51.5 359.629 140.371 448.5 250 448.5Z" fill="white"/>
</mask>
<g mask="url(#mask6_201_735)">
<path d="M252.3 237.8C269.1 241.3 286 244.6 302.9 247.6C319.9 250.6 336.9 253.4 354 256C371 258.5 388 260.8 405.1 262.8C422.2 264.8 439.3 266.6 456.4 268C473.5 269.5 490.7 270.7 507.8 271.7C509.9 271.8 512.1 271.9 514.2 272.1C515.3 272.2 516.5 271.6 517.5 271.1C517.8 270.9 519.1 270.2 518.1 270.1C500.9 269.2 483.8 268 466.7 266.6C449.6 265.2 432.5 263.5 415.4 261.5C398.3 259.6 381.3 257.4 364.3 254.9C347.4 252.5 330.5 249.8 313.6 246.8C296.7 243.8 279.8 240.6 263 237.2C260.9 236.8 258.8 236.3 256.7 235.9C255.8 235.7 254.5 236.3 253.7 236.6C253.6 236.7 251.8 237.7 252.3 237.8Z" fill="white"/>
</g>
<mask id="mask7_201_735" style="mask-type:luminance" maskUnits="userSpaceOnUse" x="51" y="51" width="398" height="398">
<path d="M250 448.5C359.629 448.5 448.5 359.629 448.5 250C448.5 140.371 359.629 51.5 250 51.5C140.371 51.5 51.5 140.371 51.5 250C51.5 359.629 140.371 448.5 250 448.5Z" fill="white"/>
</mask>
<g mask="url(#mask7_201_735)">
<path d="M251.8 237.1C265.1 255.2 275.5 275.2 286.3 294.8C297.6 315.4 308.9 336 320.2 356.7C331.5 377.4 342.9 398.1 354.2 418.8C365.5 439.4 376.8 460 388.1 480.7C399.4 501.3 410.7 521.9 422 542.6C423.4 545.2 424.8 547.7 426.2 550.3C426.7 551.3 427.8 552.1 428.8 552.5C429.2 552.7 430.7 553.1 430.2 552.1C418.9 531.4 407.5 510.7 396.2 490C384.9 469.3 373.5 448.6 362.2 427.9C350.9 407.2 339.5 386.5 328.2 365.8C316.9 345.1 305.5 324.4 294.2 303.7C283.4 283.9 273.1 263.7 260.3 245.1C258.7 242.8 257.2 240.6 255.5 238.4C254.8 237.5 253.7 236.6 252.6 236.3C251.6 235.9 251.2 236.3 251.8 237.1Z" fill="white"/>
</g>
<mask id="mask8_201_735" style="mask-type:luminance" maskUnits="userSpaceOnUse" x="51" y="51" width="398" height="398">
<path d="M250 448.5C359.629 448.5 448.5 359.629 448.5 250C448.5 140.371 359.629 51.5 250 51.5C140.371 51.5 51.5 140.371 51.5 250C51.5 359.629 140.371 448.5 250 448.5Z" fill="white"/>
</mask>
<g mask="url(#mask8_201_735)">
<path d="M252.7 229C248.9 262 245.1 295.1 241.4 328.1C237.6 361 233.9 393.8 230.1 426.7C228 445.3 225.8 463.9 223.7 482.5C223.6 483.5 224.6 484.6 225.2 485.3C225.4 485.5 226.9 486.9 227 486.1C230.8 453.1 234.6 420 238.3 387C242.1 354.1 245.8 321.3 249.6 288.4C251.7 269.8 253.9 251.2 256 232.6C256.1 231.6 255.1 230.5 254.5 229.8C254.4 229.6 252.8 228.1 252.7 229Z" fill="white"/>
</g>
<mask id="mask9_201_735" style="mask-type:luminance" maskUnits="userSpaceOnUse" x="51" y="51" width="398" height="398">
<path d="M250 448.5C359.629 448.5 448.5 359.629 448.5 250C448.5 140.371 359.629 51.5 250 51.5C140.371 51.5 51.5 140.371 51.5 250C51.5 359.629 140.371 448.5 250 448.5Z" fill="white"/>
</mask>
<g mask="url(#mask9_201_735)">
<path d="M250.2 236.6C230.3 260.4 210.7 284.3 191.2 308.4C171.8 332.4 152.7 356.5 133.8 380.8C123.1 394.6 112.4 408.4 101.8 422.2C100.4 424 104.7 426.6 106.1 424.8C124.9 400.2 143.9 375.7 163.1 351.5C182.2 327.3 201.6 303.4 221.1 279.5C232.2 266 243.3 252.6 254.5 239.2C255.3 238.3 254 236.9 253.2 236.4C252.3 235.8 251 235.7 250.2 236.6Z" fill="white"/>
</g>
<mask id="mask10_201_735" style="mask-type:luminance" maskUnits="userSpaceOnUse" x="51" y="51" width="398" height="398">
<path d="M250 448.5C359.629 448.5 448.5 359.629 448.5 250C448.5 140.371 359.629 51.5 250 51.5C140.371 51.5 51.5 140.371 51.5 250C51.5 359.629 140.371 448.5 250 448.5Z" fill="white"/>
</mask>
<g mask="url(#mask10_201_735)">
<path d="M249.2 235.6C233.1 242.2 216.9 248.6 200.6 254.7C184.3 260.9 167.8 266.8 151.3 272.6C134.9 278.3 118.4 283.8 101.8 289.1C85.2 294.4 68.6 299.4 51.9 304.2C35.2 309 18.4 313.6 1.60001 318C-0.499991 318.6 -2.59999 319.1 -4.79999 319.6C-5.69999 319.8 -3.99999 321.2 -3.79999 321.3C-3.09999 321.8 -1.79999 322.6 -0.899991 322.4C16 318.1 32.7 313.6 49.5 308.8C66.3 304 83.1 299 99.7 293.8C116.3 288.6 132.8 283.2 149.3 277.5C165.8 271.8 182.1 266 198.4 259.9C214.7 253.8 230.9 247.5 247 241C249 240.2 251.1 239.3 253.1 238.5C253.9 238.2 252.3 237 252.1 236.8C251.5 236.2 250.1 235.2 249.2 235.6Z" fill="white"/>
</g>
<mask id="mask11_201_735" style="mask-type:luminance" maskUnits="userSpaceOnUse" x="51" y="51" width="398" height="398">
<path d="M250 448.5C359.629 448.5 448.5 359.629 448.5 250C448.5 140.371 359.629 51.5 250 51.5C140.371 51.5 51.5 140.371 51.5 250C51.5 359.629 140.371 448.5 250 448.5Z" fill="white"/>
</mask>
<g mask="url(#mask11_201_735)">
<path d="M251 233.3C219.2 231.4 187.4 229.4 155.6 227.5C123.9 225.6 92.1998 223.6 60.3998 221.7C42.4998 220.6 24.6998 219.5 6.7998 218.4C5.9998 218.3 4.2998 218.6 4.1998 219.7C4.0998 220.8 5.8998 221.2 6.5998 221.2C38.3998 223.1 70.1998 225.1 102 227C133.7 228.9 165.4 230.9 197.2 232.8C215.1 233.9 232.9 235 250.8 236.1C251.6 236.2 253.3 235.9 253.4 234.8C253.5 233.8 251.7 233.4 251 233.3Z" fill="white"/>
</g>
<mask id="mask12_201_735" style="mask-type:luminance" maskUnits="userSpaceOnUse" x="51" y="51" width="398" height="398">
<path d="M250 448.5C359.629 448.5 448.5 359.629 448.5 250C448.5 140.371 359.629 51.5 250 51.5C140.371 51.5 51.5 140.371 51.5 250C51.5 359.629 140.371 448.5 250 448.5Z" fill="white"/>
</mask>
<g mask="url(#mask12_201_735)">
<path d="M256.8 233.8C230.3 222.1 202.7 212.9 175 204.5C146.7 196 118.3 188 89.9001 179.8C73.6001 175.1 57.3001 170.4 40.9001 165.7C39.9001 165.4 40.2001 166.6 40.5001 167.2C40.9001 168.1 41.9001 169.4 42.9001 169.7C72.0001 178.1 101.1 186.5 130.3 194.8C158.1 202.8 186 210.7 213.4 220.1C228.8 225.4 243.9 231.2 258.8 237.7C259.8 238.2 259.4 236.6 259.2 236.2C258.7 235.3 257.8 234.3 256.8 233.8Z" fill="white"/>
</g>
<mask id="mask13_201_735" style="mask-type:luminance" maskUnits="userSpaceOnUse" x="51" y="51" width="398" height="398">
<path d="M250 448.5C359.629 448.5 448.5 359.629 448.5 250C448.5 140.371 359.629 51.5 250 51.5C140.371 51.5 51.5 140.371 51.5 250C51.5 359.629 140.371 448.5 250 448.5Z" fill="white"/>
</mask>
<g mask="url(#mask13_201_735)">
<path d="M258 233C231.1 217 204.2 200.9 176.9 185.5C149.8 170.2 122.3 155.4 94.2001 142C78.4001 134.4 62.5001 127.3 46.3001 120.7C45.3001 120.3 44.7001 121.1 44.9001 122.1C45.2001 123.3 46.3001 124.2 47.4001 124.6C76.2001 136.4 104.2 149.9 131.8 164.4C159.3 178.8 186.2 194.2 213 209.9C228.1 218.7 243.1 227.7 258.1 236.6C258.9 237.1 260 237 260.1 235.9C260.1 234.7 258.9 233.6 258 233Z" fill="white"/>
</g>
<mask id="mask14_201_735" style="mask-type:luminance" maskUnits="userSpaceOnUse" x="51" y="51" width="398" height="398">
<path d="M250 448.5C359.629 448.5 448.5 359.629 448.5 250C448.5 140.371 359.629 51.5 250 51.5C140.371 51.5 51.5 140.371 51.5 250C51.5 359.629 140.371 448.5 250 448.5Z" fill="white"/>
</mask>
<g mask="url(#mask14_201_735)">
<path d="M254.1 235.8C223.5 238.7 192.8 241.9 162.2 245.3C131.6 248.7 101 252.4 70.4999 256.4C53.2999 258.6 35.9999 261 18.7999 263.4C17.6999 263.6 18.8999 264.6 19.2999 264.8C20.2999 265.4 21.4999 265.8 22.5999 265.6C53.0999 261.3 83.6999 257.3 114.2 253.6C144.6 249.9 175.1 246.4 205.5 243.2C222.7 241.4 239.8 239.7 257 238.1C257.9 238 258.1 237.6 257.4 236.9C256.7 236.3 255.2 235.7 254.1 235.8Z" fill="white"/>
</g>
<mask id="mask15_201_735" style="mask-type:luminance" maskUnits="userSpaceOnUse" x="51" y="51" width="398" height="398">
<path d="M250 448.5C359.629 448.5 448.5 359.629 448.5 250C448.5 140.371 359.629 51.5 250 51.5C140.371 51.5 51.5 140.371 51.5 250C51.5 359.629 140.371 448.5 250 448.5Z" fill="white"/>
</mask>
<g mask="url(#mask15_201_735)">
<path d="M247.8 235.4C233.3 244.5 218.9 253.7 204.7 263.1C190.4 272.5 176.3 282 162.2 291.7C148.1 301.5 134.1 311.4 120.2 321.4C106.4 331.4 92.7 341.6 79.1 351.9C65.5 362.2 52 372.8 38.6 383.4C36.9 384.7 35.3 386.1 33.6 387.4C31.7 388.9 35 392.7 36.9 391.2C50.2 380.5 63.7 370 77.2 359.6C90.8 349.2 104.5 339 118.3 328.9C132.2 318.8 146.1 308.8 160.2 299C174.2 289.3 188.4 279.7 202.6 270.2C216.8 260.8 231.2 251.5 245.6 242.4C247.4 241.3 249.2 240.1 251 239C252 238.4 251.3 236.6 250.7 235.9C250.1 235.2 248.9 234.7 247.8 235.4Z" fill="white"/>
</g>
<mask id="mask16_201_735" style="mask-type:luminance" maskUnits="userSpaceOnUse" x="51" y="51" width="398" height="398">
<path d="M250 448.5C359.629 448.5 448.5 359.629 448.5 250C448.5 140.371 359.629 51.5 250 51.5C140.371 51.5 51.5 140.371 51.5 250C51.5 359.629 140.371 448.5 250 448.5Z" fill="white"/>
</mask>
<g mask="url(#mask16_201_735)">
<path d="M250.1 232.2C246.3 250.1 238.9 266.9 231.4 283.4C223.7 300.4 216.2 317.4 209 334.6C201.8 351.9 194.8 369.2 188.2 386.7C181.5 404.2 175.2 421.8 169.1 439.5C163 457.2 157.2 475 151.7 492.9C151 495.1 150.3 497.3 149.7 499.5C149 501.8 152.8 504.5 153.7 501.5C159.1 483.6 164.8 465.8 170.9 448.1C176.9 430.4 183.2 412.8 189.8 395.3C196.4 377.8 203.3 360.4 210.4 343.1C217.6 325.8 225 308.7 232.7 291.7C240.2 275.1 247.9 258.4 252.6 240.7C253.2 238.5 253.7 236.3 254.1 234.1C254.6 231.8 250.7 229.2 250.1 232.2Z" fill="white"/>
</g>
<mask id="mask17_201_735" style="mask-type:luminance" maskUnits="userSpaceOnUse" x="51" y="51" width="398" height="398">
<path d="M250 448.5C359.629 448.5 448.5 359.629 448.5 250C448.5 140.371 359.629 51.5 250 51.5C140.371 51.5 51.5 140.371 51.5 250C51.5 359.629 140.371 448.5 250 448.5Z" fill="white"/>
</mask>
<g mask="url(#mask17_201_735)">
<path d="M250.3 237.5C250.3 274.1 250.8 310.6 251.8 347.2C252.8 383.6 254.4 420 256.5 456.3C257.7 476.7 259.1 497.1 260.6 517.4C260.8 519.7 265.7 519.8 265.5 517.2C262.8 480.9 260.6 444.6 258.9 408.2C257.3 372 256.2 335.8 255.6 299.6C255.3 279.2 255.1 258.7 255.2 238.3C255.2 237.1 254.2 236.3 253 236.1C252.2 235.9 250.3 236.2 250.3 237.5Z" fill="white"/>
</g>
<mask id="mask18_201_735" style="mask-type:luminance" maskUnits="userSpaceOnUse" x="51" y="51" width="398" height="398">
<path d="M250 448.5C359.629 448.5 448.5 359.629 448.5 250C448.5 140.371 359.629 51.5 250 51.5C140.371 51.5 51.5 140.371 51.5 250C51.5 359.629 140.371 448.5 250 448.5Z" fill="white"/>
</mask>
<g mask="url(#mask18_201_735)">
<path d="M248 228.8C251.6 248.1 255.3 267.4 259 286.6C262.7 305.9 266.6 325.1 270.4 344.3C274.3 363.5 278.3 382.7 282.3 401.9C286.3 421.1 290.4 440.3 294.6 459.5C298.8 478.7 303 497.8 307.4 517C307.9 519.4 308.5 521.8 309 524.1C309.5 526.4 314 524.4 313.6 522.4C309.3 503.3 305 484.1 300.8 465C296.6 445.8 292.5 426.7 288.4 407.5C284.3 388.3 280.4 369.1 276.5 349.9C272.6 330.7 268.8 311.4 265 292.2C261.2 273 257.6 253.7 253.9 234.4C253.5 232 253 229.6 252.6 227.2C252.1 224.8 247.6 226.8 248 228.8Z" fill="white"/>
</g>
<mask id="mask19_201_735" style="mask-type:luminance" maskUnits="userSpaceOnUse" x="51" y="51" width="398" height="398">
<path d="M250 448.5C359.629 448.5 448.5 359.629 448.5 250C448.5 140.371 359.629 51.5 250 51.5C140.371 51.5 51.5 140.371 51.5 250C51.5 359.629 140.371 448.5 250 448.5Z" fill="white"/>
</mask>
<g mask="url(#mask19_201_735)">
<path d="M251.2 233.3C258.2 249.3 265.3 265.3 272.3 281.3C279.3 297.2 286.3 313.1 293.3 329.1C300.3 345.1 307.4 361.1 314.4 377.1C321.4 393 328.4 408.9 335.4 424.9C342.4 440.9 349.5 456.9 356.5 472.9C357.4 474.9 358.2 476.9 359.1 478.8C359.7 480.2 364.6 480.4 364 479C357 463 349.9 447 342.9 431C335.9 415.1 328.9 399.2 321.9 383.2C314.9 367.2 307.8 351.2 300.8 335.2C293.8 319.3 286.8 303.4 279.8 287.4C272.8 271.4 265.7 255.4 258.7 239.4C257.8 237.4 257 235.4 256.1 233.5C255.5 232.1 250.6 231.9 251.2 233.3Z" fill="white"/>
</g>
<mask id="mask20_201_735" style="mask-type:luminance" maskUnits="userSpaceOnUse" x="51" y="51" width="398" height="398">
<path d="M250 448.5C359.629 448.5 448.5 359.629 448.5 250C448.5 140.371 359.629 51.5 250 51.5C140.371 51.5 51.5 140.371 51.5 250C51.5 359.629 140.371 448.5 250 448.5Z" fill="white"/>
</mask>
<g mask="url(#mask20_201_735)">
<path d="M247.9 231.1C259.5 246.5 271.3 261.7 283.3 276.9C295.3 292.1 307.5 307.3 319.9 322.2C332.2 337.1 344.7 351.9 357.3 366.6C370 381.3 382.8 395.9 395.7 410.4C408.6 424.8 421.7 439.1 434.9 453.2C436.5 454.9 438.1 456.7 439.8 458.4C440.5 459.2 442 459.5 443 459.5C443.5 459.5 444.9 459.4 444.1 458.6C430.9 444.5 417.8 430.3 404.8 415.9C391.9 401.6 379.2 387.1 366.6 372.6C354 358 341.5 343.2 329.1 328.3C316.8 313.5 304.7 298.5 292.7 283.4C280.6 268.2 268.7 252.9 257 237.5C255.6 235.6 254.1 233.7 252.7 231.8C252.1 231 250.9 230.6 249.9 230.5C249.7 230.4 247.4 230.4 247.9 231.1Z" fill="white"/>
</g>
<mask id="mask21_201_735" style="mask-type:luminance" maskUnits="userSpaceOnUse" x="51" y="51" width="398" height="398">
<path d="M250 448.5C359.629 448.5 448.5 359.629 448.5 250C448.5 140.371 359.629 51.5 250 51.5C140.371 51.5 51.5 140.371 51.5 250C51.5 359.629 140.371 448.5 250 448.5Z" fill="white"/>
</mask>
<g mask="url(#mask21_201_735)">
<path d="M252.1 230.9C265 244.2 278.5 256.8 292.5 268.8C306.5 280.9 320.9 292.4 335.6 303.7C350.3 315.1 365.2 326.2 380.2 337.2C395.2 348.3 410.2 359.3 425 370.6C439.7 381.8 454.2 393.2 468.3 405.1C470 406.6 471.8 408 473.5 409.5C474.3 410.2 475.5 410.7 476.3 409.7C477 408.7 476.3 407.2 475.5 406.5C461.4 394.4 446.8 382.8 432.1 371.5C417.4 360.2 402.5 349.1 387.6 338.1C372.7 327.1 357.8 316.1 343 304.8C328.3 293.6 313.8 282.1 299.7 270.1C285.6 258.2 271.9 245.7 258.9 232.6C257.3 231 255.7 229.4 254.1 227.7C253.4 227 252 226.6 251.3 227.5C250.5 228.7 251.4 230.2 252.1 230.9Z" fill="white"/>
</g>
<mask id="mask22_201_735" style="mask-type:luminance" maskUnits="userSpaceOnUse" x="51" y="51" width="398" height="398">
<path d="M250 448.5C359.629 448.5 448.5 359.629 448.5 250C448.5 140.371 359.629 51.5 250 51.5C140.371 51.5 51.5 140.371 51.5 250C51.5 359.629 140.371 448.5 250 448.5Z" fill="white"/>
</mask>
<g mask="url(#mask22_201_735)">
<path d="M246.5 234.5C261.9 246.1 278.8 255.6 296.3 263.8C313.9 272.1 332.2 279.1 350.4 285.9C370 293.1 389.7 300 409.5 306.4C429.3 312.8 449.1 318.9 469.1 324.5C489.1 330.1 509.3 335.4 529.5 340.3C532 340.9 534.6 341.5 537.1 342.1C538.1 342.3 539.5 341.9 539.5 340.7C539.5 339.4 538.1 338.7 537.1 338.5C517 333.8 497 328.7 477.1 323.2C457.3 317.7 437.5 311.8 417.9 305.5C398.2 299.2 378.6 292.5 359.2 285.4C340.8 278.7 322.4 271.8 304.5 263.8C287.1 256 270.3 247.1 254.7 236.1C252.7 234.7 250.8 233.3 248.8 231.8C248 231.2 246.2 231 245.5 231.9C244.8 232.9 245.8 234 246.5 234.5Z" fill="white"/>
</g>
<mask id="mask23_201_735" style="mask-type:luminance" maskUnits="userSpaceOnUse" x="51" y="51" width="398" height="398">
<path d="M250 448.5C359.629 448.5 448.5 359.629 448.5 250C448.5 140.371 359.629 51.5 250 51.5C140.371 51.5 51.5 140.371 51.5 250C51.5 359.629 140.371 448.5 250 448.5Z" fill="white"/>
</mask>
<g mask="url(#mask23_201_735)">
<path d="M249.9 236.3C267.6 244 285.6 251.1 303.8 257.6C322 264.1 340.4 269.9 359 275.4C377.6 280.8 396.3 285.8 415.1 290.5C433.9 295.2 452.8 299.6 471.7 303.8C490.6 308 509.6 312.1 528.6 316.1C531 316.6 533.3 317.1 535.7 317.6C536.9 317.8 537.9 316.9 537.8 315.7C537.7 314.3 536.4 313.6 535.2 313.3C516.4 309.3 497.5 305.3 478.7 301.1C459.9 296.9 441 292.6 422.3 288C403.5 283.4 384.8 278.5 366.2 273.1C347.7 267.8 329.3 262.1 311.2 255.8C293 249.5 275.1 242.6 257.4 235.1C255.2 234.2 253 233.2 250.8 232.2C249.8 231.7 248.3 232.3 248.1 233.4C247.6 234.9 248.8 235.8 249.9 236.3Z" fill="white"/>
</g>
<mask id="mask24_201_735" style="mask-type:luminance" maskUnits="userSpaceOnUse" x="51" y="51" width="398" height="398">
<path d="M250 448.5C359.629 448.5 448.5 359.629 448.5 250C448.5 140.371 359.629 51.5 250 51.5C140.371 51.5 51.5 140.371 51.5 250C51.5 359.629 140.371 448.5 250 448.5Z" fill="white"/>
</mask>
<g mask="url(#mask24_201_735)">
<path d="M234.8 236.7C273.7 233.7 312.6 231.2 351.5 229C390.5 226.9 429.4 225.1 468.4 223.9C490.3 223.2 512.1 222.6 534 222.1C536.8 222 535 217.5 532.9 217.6C493.7 218.4 454.6 219.7 415.4 221.3C376.5 223 337.6 225 298.8 227.5C276.8 228.9 254.8 230.5 232.7 232.2C231.5 232.3 231.7 234.1 232 234.8C232.5 235.9 233.5 236.8 234.8 236.7Z" fill="white"/>
</g>
<mask id="mask25_201_735" style="mask-type:luminance" maskUnits="userSpaceOnUse" x="51" y="51" width="398" height="398">
<path d="M250 448.5C359.629 448.5 448.5 359.629 448.5 250C448.5 140.371 359.629 51.5 250 51.5C140.371 51.5 51.5 140.371 51.5 250C51.5 359.629 140.371 448.5 250 448.5Z" fill="white"/>
</mask>
<g mask="url(#mask25_201_735)">
<path d="M257 235.1C291 235.7 325 236.3 359 237C392.8 237.6 426.6 238.2 460.4 238.9C479.5 239.2 498.5 239.6 517.6 239.9C518 239.9 516.3 238.9 516.1 238.9C515.2 238.5 514.2 237.9 513.2 237.9C479.2 237.3 445.2 236.7 411.2 236C377.4 235.4 343.6 234.8 309.8 234.1C290.7 233.8 271.7 233.4 252.6 233.1C252.2 233.1 253.9 234.1 254.1 234.1C255 234.5 256 235 257 235.1Z" fill="white"/>
</g>
<mask id="mask26_201_735" style="mask-type:luminance" maskUnits="userSpaceOnUse" x="51" y="51" width="398" height="398">
<path d="M250 448.5C359.629 448.5 448.5 359.629 448.5 250C448.5 140.371 359.629 51.5 250 51.5C140.371 51.5 51.5 140.371 51.5 250C51.5 359.629 140.371 448.5 250 448.5Z" fill="white"/>
</mask>
<g mask="url(#mask26_201_735)">
<path d="M246.2 240C274.7 230.9 303.3 222.3 332.1 214.3C360.9 206.3 389.8 198.9 418.9 192.2C435.4 188.4 451.8 184.7 468.4 181.2C469.2 181 470.6 180.5 470.2 179.4C469.8 178.4 468 178.2 467.1 178.3C437.6 184.5 408.3 191.3 379.1 198.6C350 206 321 213.9 292.2 222.4C276 227.2 259.9 232.2 243.8 237.3C242.9 237.6 242.2 238.4 242.9 239.3C243.5 240.3 245.2 240.3 246.2 240Z" fill="white"/>
</g>
<mask id="mask27_201_735" style="mask-type:luminance" maskUnits="userSpaceOnUse" x="51" y="51" width="398" height="398">
<path d="M250 448.5C359.629 448.5 448.5 359.629 448.5 250C448.5 140.371 359.629 51.5 250 51.5C140.371 51.5 51.5 140.371 51.5 250C51.5 359.629 140.371 448.5 250 448.5Z" fill="white"/>
</mask>
<g mask="url(#mask27_201_735)">
<path d="M260.8 239.4C275.3 226 290.5 213.3 306.1 201.3C321.7 189.2 337.8 177.7 354 166.4C370.3 155.1 386.7 144.1 403.1 133C419.5 121.9 435.8 110.7 451.9 99.2C468 87.7 483.7 75.7 499 63.2C500.9 61.6 502.8 60 504.7 58.4C505.3 57.9 502.5 53.9 502.4 54C487.3 66.8 471.6 78.8 455.6 90.5C439.6 102.2 423.3 113.4 406.9 124.5C390.5 135.6 374.1 146.6 357.7 157.9C341.4 169.1 325.3 180.5 309.5 192.5C293.8 204.4 278.4 216.9 263.8 230.1C262 231.8 260.1 233.4 258.3 235.1C257.9 235.6 260.8 239.4 260.8 239.4Z" fill="white"/>
</g>
<mask id="mask28_201_735" style="mask-type:luminance" maskUnits="userSpaceOnUse" x="51" y="51" width="398" height="398">
<path d="M250 448.5C359.629 448.5 448.5 359.629 448.5 250C448.5 140.371 359.629 51.5 250 51.5C140.371 51.5 51.5 140.371 51.5 250C51.5 359.629 140.371 448.5 250 448.5Z" fill="white"/>
</mask>
<g mask="url(#mask28_201_735)">
<path d="M259.5 238.2C300.4 241.1 341.3 243.2 382.2 244.8C423.1 246.3 464.1 247.2 505.1 247.4C528.1 247.5 551.1 247.4 574.1 247.1C576.1 247.1 574.4 242.4 572.6 242.5C531.6 243.1 490.7 242.9 449.7 242.2C408.7 241.4 367.8 240 326.9 237.9C303.9 236.7 281 235.3 258 233.7C256.1 233.4 257.7 238.1 259.5 238.2Z" fill="white"/>
</g>
<mask id="mask29_201_735" style="mask-type:luminance" maskUnits="userSpaceOnUse" x="51" y="51" width="398" height="398">
<path d="M250 448.5C359.629 448.5 448.5 359.629 448.5 250C448.5 140.371 359.629 51.5 250 51.5C140.371 51.5 51.5 140.371 51.5 250C51.5 359.629 140.371 448.5 250 448.5Z" fill="white"/>
</mask>
<g mask="url(#mask29_201_735)">
<path d="M255.1 234.2C245.9 225.2 236.7 216.2 227.1 207.6C217.5 199 207.4 190.9 197 183.2C186.6 175.5 176.1 168.1 166 160.1C156.1 152.2 146.6 143.7 137.2 135.3C126.6 125.8 115.9 116.2 104.7 107.2C103.9 106.6 103.3 107.1 103.3 108C103.4 109.2 104.2 110.4 105.1 111.1C124.8 126.9 142.8 144.7 162.4 160.8C182.2 177 203.8 190.8 223.1 207.7C234 217.2 244.3 227.4 254.7 237.5C255.2 238 256.2 238.6 256.5 237.5C256.7 236.4 255.8 234.9 255.1 234.2Z" fill="white"/>
</g>
<mask id="mask30_201_735" style="mask-type:luminance" maskUnits="userSpaceOnUse" x="51" y="51" width="398" height="398">
<path d="M250 448.5C359.629 448.5 448.5 359.629 448.5 250C448.5 140.371 359.629 51.5 250 51.5C140.371 51.5 51.5 140.371 51.5 250C51.5 359.629 140.371 448.5 250 448.5Z" fill="white"/>
</mask>
<g mask="url(#mask30_201_735)">
<path d="M254.1 232C247.7 204.9 242 177.6 237.1 150.1C232.3 122.9 228.6 95.5 224.1 68.3C221.6 53 218.7 37.7999 215 22.6999C214.7 21.4999 213.9 20.3999 212.6 20.0999C211.6 19.7999 210.6 20.4999 210.9 21.5999C217.5 48.3999 221.5 75.6999 225.5 103C229.6 130.4 234.3 157.8 239.8 185C242.9 200.3 246.3 215.6 249.9 230.9C250.2 232.1 251 233.2 252.3 233.5C253.4 233.8 254.4 233.1 254.1 232Z" fill="white"/>
</g>
<mask id="mask31_201_735" style="mask-type:luminance" maskUnits="userSpaceOnUse" x="51" y="51" width="398" height="398">
<path d="M250 448.5C359.629 448.5 448.5 359.629 448.5 250C448.5 140.371 359.629 51.5 250 51.5C140.371 51.5 51.5 140.371 51.5 250C51.5 359.629 140.371 448.5 250 448.5Z" fill="white"/>
</mask>
<g mask="url(#mask31_201_735)">
<path d="M259.7 235.1C256.6 208 257.8 180.8 260.5 153.7C263.2 126.5 267.3 99.4 269.9 72.1C271.4 56.8 272.3 41.5 272.3 26.2C272.3 25 271.6 23.8 270.7 23.2C270.1 22.8 268.7 22.4 268.7 23.6C268.7 51.1 265.6 78.5 262.2 105.8C258.8 133 255.2 160.1 254.4 187.5C253.9 202.8 254.3 218.2 256.1 233.4C256.2 234.5 257.1 235.8 258.2 236.2C259.1 236.7 259.8 236.2 259.7 235.1Z" fill="white"/>
</g>
<mask id="mask32_201_735" style="mask-type:luminance" maskUnits="userSpaceOnUse" x="51" y="51" width="398" height="398">
<path d="M250 448.5C359.629 448.5 448.5 359.629 448.5 250C448.5 140.371 359.629 51.5 250 51.5C140.371 51.5 51.5 140.371 51.5 250C51.5 359.629 140.371 448.5 250 448.5Z" fill="white"/>
</mask>
<g mask="url(#mask32_201_735)">
<path d="M257.4 238.6C264.9 224.4 273 210.5 281.4 196.8C289.9 183 298.7 169.4 307.5 155.8C316.2 142.3 324.9 128.7 333.2 114.9C341.5 101.1 349.4 87.2 356.6 72.8C363.7 58.5 370 43.8 375.2 28.7C375.8 26.8 376.5 24.9 377.1 23C377.4 22.1 376.6 20.8 376 20.1C375.8 19.8 374.4 18.3 374.2 19.2C369.3 34.4 363.3 49.2 356.4 63.6C349.5 78.1 341.7 92.1 333.5 105.9C325.3 119.7 316.7 133.3 308 146.8C299.2 160.4 290.4 174 281.8 187.8C273.3 201.4 265 215.3 257.4 229.4C256.5 231.2 255.5 232.9 254.6 234.7C253.8 235.9 256.8 239.7 257.4 238.6Z" fill="white"/>
</g>
<mask id="mask33_201_735" style="mask-type:luminance" maskUnits="userSpaceOnUse" x="51" y="51" width="398" height="398">
<path d="M250 448.5C359.629 448.5 448.5 359.629 448.5 250C448.5 140.371 359.629 51.5 250 51.5C140.371 51.5 51.5 140.371 51.5 250C51.5 359.629 140.371 448.5 250 448.5Z" fill="white"/>
</mask>
<g mask="url(#mask33_201_735)">
<path d="M254 241C258.6 234.9 261.6 227.7 264.7 220.7C268 213.5 271.1 206.2 274.2 198.9C280.4 184.3 286.3 169.6 292.1 154.9C303.7 125.6 314.8 96.1 326.9 67C333.7 50.6 340.8 34.4 348.4 18.4C349.1 16.9 345.9 13.2 345.1 14.8C331.5 43.4 319.5 72.8 308 102.2C296.5 131.5 285.3 161 273 190.1C269.6 198.3 266 206.4 262.4 214.5C258.9 222.3 255.7 230.5 250.5 237.4C249.8 238.7 252.8 242.6 254 241Z" fill="white"/>
</g>
<mask id="mask34_201_735" style="mask-type:luminance" maskUnits="userSpaceOnUse" x="51" y="51" width="398" height="398">
<path d="M250 448.5C359.629 448.5 448.5 359.629 448.5 250C448.5 140.371 359.629 51.5 250 51.5C140.371 51.5 51.5 140.371 51.5 250C51.5 359.629 140.371 448.5 250 448.5Z" fill="white"/>
</mask>
<g mask="url(#mask34_201_735)">
<path d="M256.1 233.9C283.7 221.6 311.2 209.2 338.6 196.7C365.9 184.2 393.1 171.7 420.3 158.9C435.7 151.7 451 144.5 466.4 137.2C467.3 136.8 465.6 136.9 465.4 136.9C464.3 137 463.1 137.2 462.1 137.7C434.8 150.6 407.5 163.4 380.1 176.1C352.9 188.7 325.6 201.2 298.2 213.5C282.7 220.5 267.2 227.4 251.7 234.3C250.8 234.7 252.5 234.6 252.7 234.6C253.8 234.5 255.1 234.3 256.1 233.9Z" fill="white"/>
</g>
<mask id="mask35_201_735" style="mask-type:luminance" maskUnits="userSpaceOnUse" x="51" y="51" width="398" height="398">
<path d="M250 448.5C359.629 448.5 448.5 359.629 448.5 250C448.5 140.371 359.629 51.5 250 51.5C140.371 51.5 51.5 140.371 51.5 250C51.5 359.629 140.371 448.5 250 448.5Z" fill="white"/>
</mask>
<g mask="url(#mask35_201_735)">
<path d="M258.4 232.1C243.8 225.5 228.5 221.2 212.8 218.2C196.9 215.1 180.7 213.5 164.6 212C147.4 210.5 130.1 209.1 112.9 207.7C95.2002 206.2 77.5002 204.7 59.8002 203.3C42.2002 201.8 24.6002 200.4 7.0002 198.9C4.8002 198.7 2.6002 198.5 0.300196 198.3C-0.399804 198.2 1.1002 199.9 1.2002 200C1.8002 200.6 2.8002 201.6 3.8002 201.7C21.3002 203.2 38.8002 204.6 56.4002 206.1C73.9002 207.6 91.4002 209 109 210.5C126.4 212 143.8 213.4 161.2 214.9C177.2 216.3 193.2 217.7 209.1 220.3C224.8 222.9 240.3 226.7 255.1 232.7C257 233.5 258.9 234.3 260.7 235.1C261.5 235.5 261.7 235.2 261.2 234.5C260.5 233.5 259.4 232.5 258.4 232.1Z" fill="white"/>
</g>
<mask id="mask36_201_735" style="mask-type:luminance" maskUnits="userSpaceOnUse" x="51" y="51" width="398" height="398">
<path d="M250 448.5C359.629 448.5 448.5 359.629 448.5 250C448.5 140.371 359.629 51.5 250 51.5C140.371 51.5 51.5 140.371 51.5 250C51.5 359.629 140.371 448.5 250 448.5Z" fill="white"/>
</mask>
<g mask="url(#mask36_201_735)">
<path d="M255.6 238.4C240.8 211 226 183.6 211 156.2C196.1 128.9 181.2 101.6 166.3 74.3C157.9 59 149.5 43.6 141 28.3C140.6 27.7 139.1 27.8 138.5 27.8C138.3 27.8 135.8 28 136 28.4C151 55.7 166 83.1 181 110.4C195.9 137.7 210.8 165 225.6 192.3C233.9 207.7 242.3 223.1 250.6 238.5C250.9 239.1 252.5 239 253.1 239C253.3 239 255.8 238.8 255.6 238.4Z" fill="white"/>
</g>
<mask id="mask37_201_735" style="mask-type:luminance" maskUnits="userSpaceOnUse" x="51" y="51" width="398" height="398">
<path d="M250 448.5C359.629 448.5 448.5 359.629 448.5 250C448.5 140.371 359.629 51.5 250 51.5C140.371 51.5 51.5 140.371 51.5 250C51.5 359.629 140.371 448.5 250 448.5Z" fill="white"/>
</mask>
<g mask="url(#mask37_201_735)">
<path d="M253.4 233.7C244.2 245.2 236.6 257.9 229.4 270.8C221.8 284.3 214.3 297.8 206.8 311.3C191.7 338.6 176.9 366 162.3 393.6C154.1 409.1 145.9 424.7 137.9 440.3C137.9 440.4 140.2 440.3 140.4 440.2C140.9 440.1 142.6 440.1 142.8 439.6C157.2 411.8 171.9 384.1 186.7 356.5C201.5 329.1 216.5 301.8 231.8 274.6C239.8 260.3 248 246 258.3 233.1C258.3 233.1 256 233.1 255.8 233.2C255.2 233.2 253.8 233.2 253.4 233.7Z" fill="white"/>
</g>
<mask id="mask38_201_735" style="mask-type:luminance" maskUnits="userSpaceOnUse" x="51" y="51" width="398" height="398">
<path d="M250 448.5C359.629 448.5 448.5 359.629 448.5 250C448.5 140.371 359.629 51.5 250 51.5C140.371 51.5 51.5 140.371 51.5 250C51.5 359.629 140.371 448.5 250 448.5Z" fill="white"/>
</mask>
<g mask="url(#mask38_201_735)">
<path d="M255.7 233.4C249.6 248.1 244.1 263 239.2 278C234.2 293.1 229.8 308.3 225.6 323.6C221.4 339 217.5 354.4 213.8 369.8C210 385.3 206.4 400.8 202.7 416.3C199 431.8 195.2 447.3 191.2 462.7C190.7 464.7 190.2 466.6 189.6 468.6C189.2 470.2 194 469.7 194.4 468.2C198.5 452.8 202.3 437.4 206 421.9C209.7 406.4 213.4 390.9 217.1 375.4C220.8 359.9 224.6 344.5 228.8 329.1C232.9 313.8 237.3 298.5 242.1 283.4C246.9 268.3 252.3 253.3 258.2 238.6C259 236.7 259.7 234.8 260.5 233C261.1 231.6 256.3 232 255.7 233.4Z" fill="white"/>
</g>
<mask id="mask39_201_735" style="mask-type:luminance" maskUnits="userSpaceOnUse" x="51" y="51" width="398" height="398">
<path d="M250 448.5C359.629 448.5 448.5 359.629 448.5 250C448.5 140.371 359.629 51.5 250 51.5C140.371 51.5 51.5 140.371 51.5 250C51.5 359.629 140.371 448.5 250 448.5Z" fill="white"/>
</mask>
<g mask="url(#mask39_201_735)">
<path d="M256.7 235.3C241.4 245.3 226.1 255.4 211.3 266C196.5 276.6 182.2 287.9 168.8 300.4C155.3 313 142.7 326.6 129.8 339.9C117.2 353 104.1 365.6 90.2002 377.4C76.4002 389.2 62.0002 400.2 47.0002 410.5C45.2002 411.8 43.3002 413 41.5002 414.2C40.0002 415.2 43.8002 418.3 45.1002 417.5C60.0002 407.5 74.5002 396.7 88.3002 385.3C102.2 373.7 115.5 361.4 128.2 348.5C141.2 335.3 153.7 321.7 167 308.8C180.2 296 194.4 284.3 209.2 273.4C224 262.5 239.3 252.3 254.6 242.3C256.5 241.1 258.4 239.8 260.2 238.6C261.8 237.6 258 234.5 256.7 235.3Z" fill="white"/>
</g>
<mask id="mask40_201_735" style="mask-type:luminance" maskUnits="userSpaceOnUse" x="51" y="51" width="398" height="398">
<path d="M250 448.5C359.629 448.5 448.5 359.629 448.5 250C448.5 140.371 359.629 51.5 250 51.5C140.371 51.5 51.5 140.371 51.5 250C51.5 359.629 140.371 448.5 250 448.5Z" fill="white"/>
</mask>
<g mask="url(#mask40_201_735)">
<path d="M260.6 233.7C243.7 237.9 226.8 242 209.9 246C193 250 176 253.8 159 257.4C142 261.1 125 264.6 107.9 268C90.7998 271.4 73.5998 274.7 56.4998 277.8C39.3998 280.9 22.1998 283.9 5.09982 286.8C2.99982 287.2 0.899819 287.5 -1.30018 287.9C-2.40018 288.1 -3.80018 288.7 -4.10018 289.9C-4.40018 291 -3.40018 291.6 -2.40018 291.4C14.8998 288.6 32.0998 285.6 49.2998 282.5C66.4998 279.4 83.7998 276.1 100.9 272.7C118.1 269.3 135.2 265.8 152.3 262.1C169.4 258.4 186.5 254.6 203.5 250.7C220.5 246.8 237.5 242.7 254.5 238.5C256.6 238 258.7 237.5 260.8 236.9C261.7 236.7 263.2 235.7 263.1 234.6C262.9 233.5 261.4 233.5 260.6 233.7Z" fill="white"/>
</g>
<mask id="mask41_201_735" style="mask-type:luminance" maskUnits="userSpaceOnUse" x="51" y="51" width="398" height="398">
<path d="M250 448.5C359.629 448.5 448.5 359.629 448.5 250C448.5 140.371 359.629 51.5 250 51.5C140.371 51.5 51.5 140.371 51.5 250C51.5 359.629 140.371 448.5 250 448.5Z" fill="white"/>
</mask>
<g mask="url(#mask41_201_735)">
<path d="M254 228.8C223.6 228 193.2 227.6 162.8 227.7C132.4 227.8 102 228.3 71.5998 229.3C54.4998 229.9 37.3998 230.5 20.2998 231.4C19.0998 231.5 19.4998 232.8 19.9998 233.4C20.6998 234.3 21.8998 235.1 22.9998 235.1C53.3998 233.6 83.7998 232.6 114.2 232C144.6 231.4 175 231.3 205.4 231.6C222.5 231.8 239.6 232.1 256.7 232.5C257.9 232.5 257.4 231.1 257 230.5C256.3 229.5 255.2 228.8 254 228.8Z" fill="white"/>
</g>
<mask id="mask42_201_735" style="mask-type:luminance" maskUnits="userSpaceOnUse" x="51" y="51" width="398" height="398">
<path d="M250 448.5C359.629 448.5 448.5 359.629 448.5 250C448.5 140.371 359.629 51.5 250 51.5C140.371 51.5 51.5 140.371 51.5 250C51.5 359.629 140.371 448.5 250 448.5Z" fill="white"/>
</mask>
<g mask="url(#mask42_201_735)">
<path d="M240.5 233.5C255.2 246.9 270 260.1 284.9 273.3C299.9 286.5 314.9 299.5 330.1 312.5C345.2 325.4 360.4 338.1 375.7 350.8C391 363.4 406.4 375.9 422 388.3C437.5 400.7 453.2 412.9 468.9 425C470.9 426.5 472.8 428 474.8 429.5C475.5 430.1 477.1 429.7 477.9 429.5C478.2 429.4 480.1 428.8 479.5 428.3C463.7 416.2 448.1 404 432.5 391.7C416.9 379.3 401.4 366.8 386 354.1C370.7 341.5 355.4 328.8 340.3 315.9C325.2 303 310.1 290.1 295.2 277C280.3 263.9 265.5 250.7 250.8 237.3C249 235.6 247.1 234 245.3 232.3C244.6 231.7 242.9 232.1 242.2 232.3C241.8 232.4 239.9 232.9 240.5 233.5Z" fill="white"/>
</g>
<mask id="mask43_201_735" style="mask-type:luminance" maskUnits="userSpaceOnUse" x="51" y="51" width="398" height="398">
<path d="M250 448.5C359.629 448.5 448.5 359.629 448.5 250C448.5 140.371 359.629 51.5 250 51.5C140.371 51.5 51.5 140.371 51.5 250C51.5 359.629 140.371 448.5 250 448.5Z" fill="white"/>
</mask>
<g mask="url(#mask43_201_735)">
<path d="M252.5 233.2C220.5 233.8 188.4 234.8 156.4 236C124.4 237.3 92.4002 238.9 60.4002 240.8C42.5002 241.9 24.6002 243.1 6.70015 244.4C5.50015 244.5 5.10015 245.9 5.40015 246.9C5.80015 248.1 7.00015 249 8.30015 248.9C40.3002 246.6 72.2001 244.6 104.2 243C136.2 241.4 168.2 240 200.2 239.1C218.1 238.6 236 238.1 254 237.8C255.2 237.8 255.6 236.3 255.3 235.3C254.9 234 253.8 233.2 252.5 233.2Z" fill="white"/>
</g>
<mask id="mask44_201_735" style="mask-type:luminance" maskUnits="userSpaceOnUse" x="51" y="51" width="398" height="398">
<path d="M250 448.5C359.629 448.5 448.5 359.629 448.5 250C448.5 140.371 359.629 51.5 250 51.5C140.371 51.5 51.5 140.371 51.5 250C51.5 359.629 140.371 448.5 250 448.5Z" fill="white"/>
</mask>
<g mask="url(#mask44_201_735)">
<path d="M253.7 234C227.8 248.7 200.6 260.8 173.3 272.5C145.1 284.5 116.8 296.4 88.6 308.3C72.5 315.1 56.4 321.9 40.3 328.7C37.5 329.9 40.8001 333.1 42.9001 332.2C71.7001 320 100.5 307.9 129.3 295.7C157.2 283.9 185.2 272.5 212.6 259.8C227.8 252.8 242.7 245.3 257.2 237.1C258.3 236.5 257.9 235.2 257.1 234.5C256.2 233.7 254.7 233.4 253.7 234Z" fill="white"/>
</g>
<mask id="mask45_201_735" style="mask-type:luminance" maskUnits="userSpaceOnUse" x="51" y="51" width="398" height="398">
<path d="M250 448.5C359.629 448.5 448.5 359.629 448.5 250C448.5 140.371 359.629 51.5 250 51.5C140.371 51.5 51.5 140.371 51.5 250C51.5 359.629 140.371 448.5 250 448.5Z" fill="white"/>
</mask>
<g mask="url(#mask45_201_735)">
<path d="M249.7 230.3C254.8 247.6 259.2 265.1 263.2 282.7C267.2 300.4 270.9 318.1 274.6 335.8C278.3 353.5 281.9 371.3 285.8 388.9C289.7 406.5 294 424.1 298.9 441.4C303.8 458.8 309.4 476 315.9 492.8C316.7 494.9 317.5 496.9 318.4 499C318.8 500.1 320.1 501.1 321.3 500.7C322.5 500.3 322.8 498.9 322.4 497.8C315.6 481.1 309.8 464 304.8 446.7C299.7 429.4 295.4 412 291.4 394.4C287.4 376.8 283.7 359 280.1 341.3C276.4 323.6 272.8 305.8 268.8 288.1C264.8 270.5 260.5 252.9 255.6 235.5C255 233.3 254.3 231.1 253.7 228.9C253.4 227.8 251.9 226.9 250.8 227.2C249.5 227.8 249.4 229.2 249.7 230.3Z" fill="white"/>
</g>
<mask id="mask46_201_735" style="mask-type:luminance" maskUnits="userSpaceOnUse" x="51" y="51" width="398" height="398">
<path d="M250 448.5C359.629 448.5 448.5 359.629 448.5 250C448.5 140.371 359.629 51.5 250 51.5C140.371 51.5 51.5 140.371 51.5 250C51.5 359.629 140.371 448.5 250 448.5Z" fill="white"/>
</mask>
<g mask="url(#mask46_201_735)">
<path d="M252.5 237.7C259.4 253.9 266.2 270.2 272.8 286.6C279.3 302.9 285.5 319.3 291.4 335.9C297 351.8 302.3 367.8 307.6 383.8C313 399.8 318.4 415.7 324.4 431.5C330.4 447.3 336.8 462.9 344.2 478.1C345.1 480 346 481.9 347 483.7C347.3 484.4 348.4 486 349.3 485.9C350.3 485.8 349.5 484.2 349.3 483.8C341.8 468.9 335.2 453.5 329.2 437.9C323.2 422.3 317.7 406.4 312.3 390.5C306.9 374.5 301.7 358.5 296.1 342.5C290.4 326.1 284.3 309.8 278 293.6C271.6 277.3 264.8 261 258 244.9C257.1 242.9 256.3 240.9 255.4 238.8C255 237.9 254.2 236.5 253.2 236.2C252.1 235.9 252.2 237 252.5 237.7Z" fill="white"/>
</g>
<mask id="mask47_201_735" style="mask-type:luminance" maskUnits="userSpaceOnUse" x="51" y="51" width="398" height="398">
<path d="M250 448.5C359.629 448.5 448.5 359.629 448.5 250C448.5 140.371 359.629 51.5 250 51.5C140.371 51.5 51.5 140.371 51.5 250C51.5 359.629 140.371 448.5 250 448.5Z" fill="white"/>
</mask>
<g mask="url(#mask47_201_735)">
<path d="M256.1 238.3C275.2 217.9 294.6 197.7 314.3 178C334.1 158.2 354.2 138.7 374.7 119.5C386.2 108.8 397.8 98.1 409.5 87.6C409.8 87.3 407.5 86.3 407.3 86.3C406.7 86.1 405.3 85.5 404.7 86.1C383.9 104.8 363.5 123.9 343.4 143.3C323.2 162.8 303.4 182.6 283.9 202.7C273 214 262.1 225.4 251.4 236.9C251.1 237.3 253.4 238.2 253.6 238.2C254.1 238.3 255.6 238.9 256.1 238.3Z" fill="white"/>
</g>
<mask id="mask48_201_735" style="mask-type:luminance" maskUnits="userSpaceOnUse" x="51" y="51" width="398" height="398">
<path d="M250 448.5C359.629 448.5 448.5 359.629 448.5 250C448.5 140.371 359.629 51.5 250 51.5C140.371 51.5 51.5 140.371 51.5 250C51.5 359.629 140.371 448.5 250 448.5Z" fill="white"/>
</mask>
<g mask="url(#mask48_201_735)">
<path d="M258.7 235.2C289.5 231.4 320.3 227.9 351.1 224.6C381.9 221.3 412.8 218.3 443.7 215.6C461 214.1 478.4 212.6 495.7 211.2C496.9 211.1 498.2 210.4 498.6 209.2C499 208.2 498.4 207.1 497.2 207.2C466.3 209.6 435.4 212.3 404.6 215.3C373.7 218.3 342.9 221.5 312.1 225C294.8 227 277.5 229 260.3 231.2C259.1 231.3 257.9 232 257.4 233.2C257 234.2 257.6 235.3 258.7 235.2Z" fill="white"/>
</g>
<mask id="mask49_201_735" style="mask-type:luminance" maskUnits="userSpaceOnUse" x="51" y="51" width="398" height="398">
<path d="M250 448.5C359.629 448.5 448.5 359.629 448.5 250C448.5 140.371 359.629 51.5 250 51.5C140.371 51.5 51.5 140.371 51.5 250C51.5 359.629 140.371 448.5 250 448.5Z" fill="white"/>
</mask>
<g mask="url(#mask49_201_735)">
<path d="M243.3 235.5C247.1 236.5 250.8 235.3 254.3 233.8C257.9 232.3 261.5 230.6 265.1 229C272.5 225.8 280 222.6 287.5 219.5C302.4 213.3 317.4 207.3 332.5 201.6C347.6 195.9 362.8 190.4 378 185.1C393.3 179.8 408.6 174.8 424.1 170.1C439.5 165.3 455 160.8 470.6 156.6C472.5 156.1 474.4 155.6 476.4 155C478.7 154.4 476.7 149.9 474.7 150.4C459.2 154.6 443.7 159 428.4 163.7C413 168.4 397.7 173.3 382.5 178.4C367.3 183.6 352.1 188.9 337.1 194.6C322 200.3 306.9 206.2 292 212.3C284.6 215.4 277.2 218.5 269.8 221.6C266.1 223.2 262.5 224.8 258.9 226.4C255.3 228 251.7 230 247.9 230.9C246.1 231.3 244.3 231.5 242.5 231C241.3 230.7 240.9 232 241 232.9C241.3 234 242.1 235.2 243.3 235.5Z" fill="white"/>
</g>
<mask id="mask50_201_735" style="mask-type:luminance" maskUnits="userSpaceOnUse" x="51" y="51" width="398" height="398">
<path d="M250 448.5C359.629 448.5 448.5 359.629 448.5 250C448.5 140.371 359.629 51.5 250 51.5C140.371 51.5 51.5 140.371 51.5 250C51.5 359.629 140.371 448.5 250 448.5Z" fill="white"/>
</mask>
<g mask="url(#mask50_201_735)">
<path d="M254.2 234.8C230.2 218.8 204.1 206.3 177.4 195.3C150.6 184.4 123.3 175 96.2998 164.8C80.9998 159.1 65.7998 153.1 50.8998 146.4C49.7998 145.9 48.3998 146.4 47.4998 147.2C46.7998 147.8 46.2998 149 47.3998 149.4C73.7998 161.1 101.1 170.9 128.2 180.8C155.2 190.7 182.2 200.8 208.1 213.5C222.5 220.5 236.6 228.4 250 237.3C251 238 252.3 237.7 253.2 237.1C253.8 236.8 255.2 235.5 254.2 234.8Z" fill="white"/>
</g>
<mask id="mask51_201_735" style="mask-type:luminance" maskUnits="userSpaceOnUse" x="51" y="51" width="398" height="398">
<path d="M250 448.5C359.629 448.5 448.5 359.629 448.5 250C448.5 140.371 359.629 51.5 250 51.5C140.371 51.5 51.5 140.371 51.5 250C51.5 359.629 140.371 448.5 250 448.5Z" fill="white"/>
</mask>
<g mask="url(#mask51_201_735)">
<path d="M257 237.8C243.1 211.4 231.7 183.9 220.5 156.3C209.2 128.5 197.9 100.8 184.9 73.8C177.3 58.1 169.4 42.5 161.4 27C160.9 26 160.1 24.9 159 24.4C158.2 24.1 157.6 24.4 158 25.3C172.1 52.9 186 80.5 198.2 108.9C210 136.3 220.6 164.2 232.5 191.6C239.2 207 246.3 222.2 254.1 237.1C254.5 237.9 255.7 239.2 256.7 239.4C257.8 239.5 257.3 238.4 257 237.8Z" fill="white"/>
</g>
<mask id="mask52_201_735" style="mask-type:luminance" maskUnits="userSpaceOnUse" x="51" y="51" width="398" height="398">
<path d="M250 448.5C359.629 448.5 448.5 359.629 448.5 250C448.5 140.371 359.629 51.5 250 51.5C140.371 51.5 51.5 140.371 51.5 250C51.5 359.629 140.371 448.5 250 448.5Z" fill="white"/>
</mask>
<g mask="url(#mask52_201_735)">
<path d="M246.2 235.4C260.9 244 275.7 252.6 290.4 261.3C304.8 269.7 319.2 278.3 333.8 286.5C347.9 294.5 362.3 302 377.1 308.7C390.8 314.9 404.7 320.4 418.4 326.6C432 332.7 445.3 339.6 457.6 348.1C459.1 349.2 460.7 350.3 462.2 351.4C463 352 464.5 352.1 465.5 352.1C465.9 352.1 467.3 352.1 466.5 351.5C454.6 342.5 441.4 335.4 427.9 329.1C414.3 322.7 400.4 317.1 386.6 311.1C371.9 304.7 357.5 297.4 343.5 289.6C328.9 281.5 314.6 273 300.2 264.6C285.5 256 270.7 247.4 256 238.7C254.1 237.6 252.3 236.5 250.4 235.4C249.4 234.8 248.1 234.7 247.1 234.7C246.9 234.7 245.3 234.8 246.2 235.4Z" fill="white"/>
</g>
<mask id="mask53_201_735" style="mask-type:luminance" maskUnits="userSpaceOnUse" x="51" y="51" width="398" height="398">
<path d="M250 448.5C359.629 448.5 448.5 359.629 448.5 250C448.5 140.371 359.629 51.5 250 51.5C140.371 51.5 51.5 140.371 51.5 250C51.5 359.629 140.371 448.5 250 448.5Z" fill="white"/>
</mask>
<g mask="url(#mask53_201_735)">
<path d="M250.9 233.8C262.6 244 274.6 254 286.9 263.6C299.2 273.3 311.7 282.7 324.5 291.7C337.2 300.7 350.1 309.4 363.3 317.8C376.5 326.2 390 334.4 403.6 342.1C417.1 349.8 430.9 357.2 444.8 364.2C446.5 365.1 448.3 366 450 366.8C451.1 367.3 452.7 367.1 453.4 366.2C454.2 365.2 453.5 364.1 452.5 363.6C438.6 356.7 424.8 349.4 411.2 341.7C397.7 334.1 384.4 326.2 371.3 318C358.1 309.7 345.1 301.1 332.4 292.1C319.7 283.2 307.2 274 295 264.5C282.7 254.9 270.6 245.1 258.8 234.9C257.3 233.6 255.9 232.4 254.4 231.1C252.6 229.6 248.5 231.8 250.9 233.8Z" fill="white"/>
</g>
<mask id="mask54_201_735" style="mask-type:luminance" maskUnits="userSpaceOnUse" x="51" y="51" width="398" height="398">
<path d="M250 448.5C359.629 448.5 448.5 359.629 448.5 250C448.5 140.371 359.629 51.5 250 51.5C140.371 51.5 51.5 140.371 51.5 250C51.5 359.629 140.371 448.5 250 448.5Z" fill="white"/>
</mask>
<g mask="url(#mask54_201_735)">
<path d="M247.8 225.4C265.7 251.9 284.1 278 302.8 303.9C321.4 329.7 340.5 355.1 359.9 380.3C370.8 394.4 381.8 408.4 393 422.3C393.7 423.2 395 423.9 396.2 423.9C397.2 423.9 397.5 423.3 396.9 422.5C376.9 397.5 357.3 372.3 338.2 346.7C319.1 321.3 300.4 295.5 282.1 269.5C271.8 254.9 261.7 240.2 251.7 225.5C251.1 224.6 249.6 223.9 248.5 223.9C247.5 224 247.3 224.6 247.8 225.4Z" fill="white"/>
</g>
</g>
<defs>
<clipPath id="clip0_201_735">
<rect width="500" height="500" fill="white"/>
</clipPath>
</defs>
</svg>
