<svg width="500" height="500" viewBox="0 0 500 500" fill="none" xmlns="http://www.w3.org/2000/svg">
<mask id="mask0_201_695" style="mask-type:luminance" maskUnits="userSpaceOnUse" x="51" y="51" width="398" height="398">
<path d="M250 448.5C359.629 448.5 448.5 359.629 448.5 250C448.5 140.371 359.629 51.5 250 51.5C140.371 51.5 51.5 140.371 51.5 250C51.5 359.629 140.371 448.5 250 448.5Z" fill="white"/>
</mask>
<g mask="url(#mask0_201_695)">
<path d="M339.6 45.2999C325.3 78.2 309.3 110.4 292.6 142.1C276.6 172.4 260 202.5 243.1 232.4C227.6 259.8 211.7 287.1 194.6 313.5C177.5 339.9 159.3 365.5 139.1 389.6C119.1 413.5 97.0999 435.9 72.8999 455.7C69.8999 458.1 66.8999 460.5 63.8999 462.9C62.2999 464.1 66.1999 467.2 67.4999 466.2C92.0999 447.1 114.6 425.4 135.1 402C155.8 378.4 174.5 353.1 191.8 327C209.3 300.7 225.5 273.5 241.2 246C258 216.6 274.3 186.9 290.3 157C307.3 125.2 323.7 93.1 338.4 60.2C340.2 56.2 342 52.0999 343.7 48.0999C344.5 46.3999 340.3 43.7999 339.6 45.2999Z" fill="white"/>
</g>
<mask id="mask1_201_695" style="mask-type:luminance" maskUnits="userSpaceOnUse" x="51" y="51" width="398" height="398">
<path d="M250 448.5C359.629 448.5 448.5 359.629 448.5 250C448.5 140.371 359.629 51.5 250 51.5C140.371 51.5 51.5 140.371 51.5 250C51.5 359.629 140.371 448.5 250 448.5Z" fill="white"/>
</mask>
<g mask="url(#mask1_201_695)">
<path d="M66.3999 86.8999C85.2999 111.2 107.1 133.1 130.1 153.6C153.4 174.5 177.6 194.4 202.1 213.8C226.9 233.5 252.5 252.4 279.2 269.6C305.3 286.3 332.5 301.3 361 313.4C389 325.3 418.3 334.5 448.3 340C452 340.7 455.6 341.3 459.3 341.8C459.6 341.9 460.9 342.2 460.3 341.7C459.6 341.1 457.8 341 457 340.8C427 336.3 397.8 327.6 369.8 316C341.8 304.4 315.1 290.1 289.5 274C263.1 257.5 238 239.1 213.5 219.9C189.4 201 165.7 181.5 142.6 161.3C119.8 141.3 97.7999 120.2 78.4999 96.7999C76.0999 93.8999 73.7999 90.9999 71.4999 87.9999C71.0999 87.4999 69.6999 87.2999 69.0999 87.1999C68.5999 87.0999 66.4999 86.9999 66.3999 86.8999Z" fill="white"/>
</g>
<mask id="mask2_201_695" style="mask-type:luminance" maskUnits="userSpaceOnUse" x="51" y="51" width="398" height="398">
<path d="M250 448.5C359.629 448.5 448.5 359.629 448.5 250C448.5 140.371 359.629 51.5 250 51.5C140.371 51.5 51.5 140.371 51.5 250C51.5 359.629 140.371 448.5 250 448.5Z" fill="white"/>
</mask>
<g mask="url(#mask2_201_695)">
<path d="M358.3 77.4C348.7 98.6 339 119.8 329.4 141C319.8 162.1 310.2 183.1 300.7 204.2C295.3 216.2 289.8 228.1 284.4 240.1C284 241.1 284.6 241.8 285.4 242.3C298.2 249.5 311.5 255.5 325.2 260.7C338.9 265.9 352.9 270.2 367.1 274.1C381.4 278.1 395.8 281.6 410.1 285.2C424.4 288.8 438.7 292.4 452.8 296.5C466.9 300.6 480.8 305.1 494.4 310.6C496.1 311.3 497.9 312 499.6 312.7C500.7 313.2 502.3 312.7 503 311.7C503.7 310.7 503.4 309.5 502.3 309C488.7 303.3 474.8 298.5 460.7 294.3C446.5 290.1 432.1 286.3 417.7 282.7C403.4 279.1 389 275.6 374.7 271.7C360.6 267.9 346.6 263.7 332.8 258.7C319.1 253.8 305.7 248 292.9 241.2C291.3 240.3 289.6 239.4 288 238.5C288.3 239.2 288.7 239.9 289 240.7C298.6 219.5 308.3 198.3 317.9 177.1C327.5 156 337.1 135 346.6 113.9C352 101.9 357.5 90 362.9 78C363.4 76.9 362.4 75.8 361.3 75.7C360.2 75.6 358.8 76.2 358.3 77.4Z" fill="white"/>
</g>
<mask id="mask3_201_695" style="mask-type:luminance" maskUnits="userSpaceOnUse" x="51" y="51" width="398" height="398">
<path d="M250 448.5C359.629 448.5 448.5 359.629 448.5 250C448.5 140.371 359.629 51.5 250 51.5C140.371 51.5 51.5 140.371 51.5 250C51.5 359.629 140.371 448.5 250 448.5Z" fill="white"/>
</mask>
<g mask="url(#mask3_201_695)">
<path d="M384.2 92.1999C376.4 108.6 368.6 125.1 360.9 141.5C353.2 157.9 345.3 174.4 337.6 190.8C333.2 200.1 328.8 209.4 324.4 218.7C323.9 219.7 325.6 220.7 326.3 220.9C344 226.7 361.8 232 379.9 236.7C397.8 241.3 415.8 245.2 433.9 248.9C443.2 250.8 452.4 253.2 460.7 257.8C461.6 258.3 463.2 258.6 464 257.7C464.8 256.8 463.6 255.8 462.9 255.4C455.3 251.1 446.8 248.6 438.3 246.7C429.5 244.7 420.7 243.1 411.9 241.2C393.6 237.2 375.5 232.6 357.5 227.4C347.4 224.5 337.3 221.3 327.2 218C327.8 218.7 328.5 219.5 329.1 220.2C336.9 203.8 344.7 187.3 352.4 170.9C360.1 154.5 368 138 375.7 121.6C380.1 112.3 384.5 103 388.9 93.6999C389.8 91.8999 385.1 90.1999 384.2 92.1999Z" fill="white"/>
</g>
<mask id="mask4_201_695" style="mask-type:luminance" maskUnits="userSpaceOnUse" x="51" y="51" width="398" height="398">
<path d="M250 448.5C359.629 448.5 448.5 359.629 448.5 250C448.5 140.371 359.629 51.5 250 51.5C140.371 51.5 51.5 140.371 51.5 250C51.5 359.629 140.371 448.5 250 448.5Z" fill="white"/>
</mask>
<g mask="url(#mask4_201_695)">
<path d="M399.8 114.6C389.9 136.9 380 159.2 370 181.5C367.2 187.8 364.4 194.1 361.6 200.4C360.9 201.9 363.9 203.1 364.9 203.2C394.3 206.7 423.6 210.6 452.9 214.8C461.1 216 469.2 217.2 477.4 218.4C478.2 218.5 479.3 218.5 479 217.4C478.7 216.4 477.2 215.5 476.2 215.4C446.8 210.9 417.3 206.8 387.7 203.1C379.3 202 371 201 362.6 200C363.7 200.9 364.8 201.9 365.9 202.8C375.8 180.5 385.7 158.2 395.7 135.9C398.5 129.6 401.3 123.3 404.1 117C404.9 115.4 400.4 113.1 399.8 114.6Z" fill="white"/>
</g>
<mask id="mask5_201_695" style="mask-type:luminance" maskUnits="userSpaceOnUse" x="51" y="51" width="398" height="398">
<path d="M250 448.5C359.629 448.5 448.5 359.629 448.5 250C448.5 140.371 359.629 51.5 250 51.5C140.371 51.5 51.5 140.371 51.5 250C51.5 359.629 140.371 448.5 250 448.5Z" fill="white"/>
</mask>
<g mask="url(#mask5_201_695)">
<path d="M420.1 125.9C411.1 143 403.6 160.9 397.8 179.3C397.6 180 398.5 181.1 398.9 181.5C399.4 182.1 400.1 182.8 401 182.9C421.3 185.3 441.7 187.6 462 190C467.8 190.7 473.6 191.3 479.4 192C480.3 192.1 479.2 190.2 479 190C478.4 189.2 477.6 188.2 476.5 188.1C456.2 185.7 435.8 183.4 415.5 181C409.7 180.3 403.9 179.7 398.1 179C399.2 180.2 400.2 181.4 401.3 182.6C407.1 164.3 414.4 146.6 423.4 129.6C424.1 128.3 420.4 125.2 420.1 125.9Z" fill="white"/>
</g>
<mask id="mask6_201_695" style="mask-type:luminance" maskUnits="userSpaceOnUse" x="51" y="51" width="398" height="398">
<path d="M250 448.5C359.629 448.5 448.5 359.629 448.5 250C448.5 140.371 359.629 51.5 250 51.5C140.371 51.5 51.5 140.371 51.5 250C51.5 359.629 140.371 448.5 250 448.5Z" fill="white"/>
</mask>
<g mask="url(#mask6_201_695)">
<path d="M311.1 49.4C299 67.1 287.9 85.4 277 103.9C271.6 113 266.3 122.2 261 131.4C255.9 140.3 250.8 149.2 246.1 158.3C240.8 168.5 236 179.1 232.2 190C233.8 189.5 235.4 189 237 188.5C218.9 175.2 201.2 161.4 183.9 147.2C166.6 132.9 149.7 118.2 133.2 102.9C123.9 94.3 114.8 85.6 105.8 76.8C105.3 76.3 103.8 77 103.3 77.1C103.1 77.2 100.8 78.1 101.1 78.3C117.1 94 133.5 109.3 150.3 124.1C167.1 138.9 184.4 153.3 202 167.1C211.9 174.9 222 182.5 232.1 190C232.7 190.4 234 189.8 234.6 189.7C235.2 189.5 236.6 189.2 236.8 188.5C243.6 169 253.6 150.9 263.9 133C274.5 114.6 285 96.2 296.2 78.2C302.5 68.1 308.9 58 315.6 48.2C315.9 47.7 313.9 48.2 313.8 48.2C313.1 48.4 311.5 48.7 311.1 49.4Z" fill="white"/>
</g>
<mask id="mask7_201_695" style="mask-type:luminance" maskUnits="userSpaceOnUse" x="51" y="51" width="398" height="398">
<path d="M250 448.5C359.629 448.5 448.5 359.629 448.5 250C448.5 140.371 359.629 51.5 250 51.5C140.371 51.5 51.5 140.371 51.5 250C51.5 359.629 140.371 448.5 250 448.5Z" fill="white"/>
</mask>
<g mask="url(#mask7_201_695)">
<path d="M135 61.9999C145.8 74.5999 156.9 86.9999 168.1 99.1999C179.3 111.4 190.6 123.4 202.1 135.2C208.6 141.9 215.2 148.6 221.9 155.2C222.6 155.9 224.1 157.1 224.9 155.8C238.7 132.5 252.4 109.1 266.2 85.7999C270.1 79.1999 274 72.5999 277.9 66.0999C278.8 64.4999 275.3 60.9999 274.2 62.9999C260.4 86.2999 246.7 109.7 232.9 133C229 139.6 225.1 146.2 221.2 152.7C222.2 152.9 223.2 153.1 224.2 153.3C212.4 141.6 200.8 129.7 189.4 117.7C178 105.7 166.8 93.5999 155.8 81.1999C149.5 74.1999 143.4 67.1999 137.2 60.0999C136.6 59.3999 135.3 58.3999 134.5 59.1999C133.6 59.7999 134.5 61.3999 135 61.9999Z" fill="white"/>
</g>
<mask id="mask8_201_695" style="mask-type:luminance" maskUnits="userSpaceOnUse" x="51" y="51" width="398" height="398">
<path d="M250 448.5C359.629 448.5 448.5 359.629 448.5 250C448.5 140.371 359.629 51.5 250 51.5C140.371 51.5 51.5 140.371 51.5 250C51.5 359.629 140.371 448.5 250 448.5Z" fill="white"/>
</mask>
<g mask="url(#mask8_201_695)">
<path d="M161.3 51.3001C175 69.1001 188.7 86.9001 202.4 104.8C206.3 109.8 210.1 114.8 214 119.8C215.1 121.2 217.7 120.5 218.5 119.2C234.3 94.1001 250.6 69.4001 267.5 45.1001C272.3 38.2001 277.1 31.4001 281.9 24.6001C282.6 23.6001 281.4 22.7001 280.5 22.6001C279.2 22.4001 278 22.9001 277.3 23.9001C260.1 48.0001 243.4 72.5001 227.3 97.3001C222.8 104.3 218.3 111.4 213.8 118.4C215.3 118.2 216.8 118 218.3 117.8C204.6 100 190.9 82.2001 177.2 64.3001C173.3 59.3001 169.5 54.3001 165.6 49.3001C164.5 47.6001 159.9 49.4001 161.3 51.3001Z" fill="white"/>
</g>
<mask id="mask9_201_695" style="mask-type:luminance" maskUnits="userSpaceOnUse" x="51" y="51" width="398" height="398">
<path d="M250 448.5C359.629 448.5 448.5 359.629 448.5 250C448.5 140.371 359.629 51.5 250 51.5C140.371 51.5 51.5 140.371 51.5 250C51.5 359.629 140.371 448.5 250 448.5Z" fill="white"/>
</mask>
<g mask="url(#mask9_201_695)">
<path d="M197.2 50.8001C200.7 57.6001 204.1 64.4001 207.6 71.3001C209.3 74.7001 211.1 78.1001 212.8 81.5001C213.5 82.8001 214 84.3001 215.4 85.0001C217.3 85.9001 219.5 85.5001 221.1 84.2001C224 81.7001 226.7 79.1001 229.6 76.5001C232.4 73.9001 235.2 71.4001 238.1 68.8001C243.7 63.7001 249.4 58.5001 255 53.4001C261.4 47.6001 267.8 41.8001 274.1 36.0001C275.7 34.5001 271 33.5001 269.8 34.6001C255.9 47.3001 242 59.9001 228.1 72.6001C226.1 74.4001 224.2 76.2001 222.2 78.0001C221.2 78.9001 220.2 79.8001 219.3 80.7001C218.8 81.1001 218.3 81.6001 217.8 82.0001C217.6 82.2001 217.4 82.3001 217.2 82.5001C217 82.7001 216.9 82.8001 216.7 83.0001C216.3 83.3001 216.5 83.3001 217.3 83.1001C217.9 83.2001 218.5 83.4001 219 83.5001C218.6 83.3001 218.3 82.4001 218.1 82.0001C217.8 81.3001 217.4 80.7001 217.1 80.0001C216.4 78.6001 215.7 77.2001 215 75.8001C213.6 73.0001 212.1 70.2001 210.7 67.3001C207.8 61.7001 205 56.0001 202.1 50.4001C201.3 48.9001 196.4 49.2001 197.2 50.8001Z" fill="white"/>
</g>
<mask id="mask10_201_695" style="mask-type:luminance" maskUnits="userSpaceOnUse" x="51" y="51" width="398" height="398">
<path d="M250 448.5C359.629 448.5 448.5 359.629 448.5 250C448.5 140.371 359.629 51.5 250 51.5C140.371 51.5 51.5 140.371 51.5 250C51.5 359.629 140.371 448.5 250 448.5Z" fill="white"/>
</mask>
<g mask="url(#mask10_201_695)">
<path d="M145.1 445.9C158.6 424.3 172 402.6 185.2 380.9C198.4 359.2 211.5 337.5 224.4 315.6C231.7 303.3 239 291 246.2 278.6C245.1 278 243.9 277.5 242.8 276.9C264 293.9 286.1 309.8 309.4 323.7C332.4 337.4 356.5 349.1 381.8 357.8C396 362.7 410.4 366.6 425.2 369.3C426.2 369.5 425.1 368.4 424.8 368.2C424 367.5 422.9 366.7 421.8 366.5C396.2 361.8 371.4 353.5 347.7 342.7C324.1 331.9 301.7 318.6 280.3 303.8C268.3 295.5 256.6 286.7 245.3 277.5C245 277.3 242.3 275.2 241.9 275.8C229 297.8 216.1 319.7 203 341.6C189.9 363.4 176.7 385.1 163.4 406.7C155.9 418.9 148.3 431 140.8 443.2C140.5 443.8 144.7 446.5 145.1 445.9Z" fill="white"/>
</g>
<mask id="mask11_201_695" style="mask-type:luminance" maskUnits="userSpaceOnUse" x="51" y="51" width="398" height="398">
<path d="M250 448.5C359.629 448.5 448.5 359.629 448.5 250C448.5 140.371 359.629 51.5 250 51.5C140.371 51.5 51.5 140.371 51.5 250C51.5 359.629 140.371 448.5 250 448.5Z" fill="white"/>
</mask>
<g mask="url(#mask11_201_695)">
<path d="M189.4 442.3C196.9 424.8 204.3 407.3 211.6 389.7C218.9 372.1 226 354.5 233 336.8C237 326.8 240.9 316.7 244.8 306.6C243.9 306.4 242.9 306.2 242 305.9C265.6 328.4 292.8 346.8 321.7 361.7C352.4 377.5 384.9 389.3 418.1 398.8C437.3 404.3 456.8 409.1 476.3 413.4C477.4 413.7 477.2 412.2 476.9 411.6C476.4 410.6 475.3 409.7 474.2 409.4C440.1 401.8 406.1 392.9 373.3 380.8C342.6 369.5 313 355.4 285.7 337.4C270.8 327.5 256.7 316.4 243.8 304.1C243.3 303.6 241.5 302.2 241 303.4C234.1 321.2 227.1 338.9 220 356.5C212.9 374.2 205.6 391.8 198.2 409.3C194 419.3 189.8 429.2 185.5 439.1C185 440.7 188.7 444 189.4 442.3Z" fill="white"/>
</g>
<mask id="mask12_201_695" style="mask-type:luminance" maskUnits="userSpaceOnUse" x="51" y="51" width="398" height="398">
<path d="M250 448.5C359.629 448.5 448.5 359.629 448.5 250C448.5 140.371 359.629 51.5 250 51.5C140.371 51.5 51.5 140.371 51.5 250C51.5 359.629 140.371 448.5 250 448.5Z" fill="white"/>
</mask>
<g mask="url(#mask12_201_695)">
<path d="M224.1 456.5C238.1 429.8 248.8 401.5 255.9 372.2C257.9 364 259.6 355.7 261.1 347.4C260 346.6 258.8 345.8 257.7 344.9C270.8 364 289.4 378.2 308.3 391.2C328.4 405.1 349.1 417.9 370.8 429.2C382.9 435.5 395.2 441.3 407.8 446.5C408.8 446.9 407.8 445.5 407.7 445.3C407 444.5 406.1 443.5 405.1 443.1C383.4 434.1 362.4 423.3 342.2 411.2C332.1 405.2 322.3 398.9 312.6 392.3C303.4 386.1 294.2 379.7 285.6 372.6C276.3 365 267.8 356.5 261 346.6C260.7 346.2 257.7 343.2 257.6 344.1C252.5 373.7 243.7 402.7 231.6 430.2C228.2 437.9 224.6 445.5 220.7 452.9C219.9 454.1 223.9 456.9 224.1 456.5Z" fill="white"/>
</g>
<mask id="mask13_201_695" style="mask-type:luminance" maskUnits="userSpaceOnUse" x="51" y="51" width="398" height="398">
<path d="M250 448.5C359.629 448.5 448.5 359.629 448.5 250C448.5 140.371 359.629 51.5 250 51.5C140.371 51.5 51.5 140.371 51.5 250C51.5 359.629 140.371 448.5 250 448.5Z" fill="white"/>
</mask>
<g mask="url(#mask13_201_695)">
<path d="M257.8 460.5C267.5 444.2 274.2 426.1 277.6 407.5C278.6 402.2 279.2 397 279.7 391.6C278.1 391.8 276.6 392 275 392.1C286.2 404.9 299 416.2 312.6 426.3C326.3 436.4 340.7 445.5 355.4 454C363.7 458.9 372.2 463.6 380.6 468.3C381.7 468.9 383 469.1 384.1 468.5C385 468 385.2 466.9 384.2 466.3C369.4 458 354.6 449.7 340.3 440.6C326 431.6 312.2 421.8 299.5 410.7C292.4 404.5 285.6 397.8 279.4 390.6C278.5 389.5 274.9 389.1 274.7 391.1C273.2 409.7 268.4 428.1 260.5 445C258.3 449.8 255.8 454.6 253 459.2C251.9 461.3 256.8 462.2 257.8 460.5Z" fill="white"/>
</g>
<mask id="mask14_201_695" style="mask-type:luminance" maskUnits="userSpaceOnUse" x="51" y="51" width="398" height="398">
<path d="M250 448.5C359.629 448.5 448.5 359.629 448.5 250C448.5 140.371 359.629 51.5 250 51.5C140.371 51.5 51.5 140.371 51.5 250C51.5 359.629 140.371 448.5 250 448.5Z" fill="white"/>
</mask>
<g mask="url(#mask14_201_695)">
<path d="M290.6 464.9C290.7 452.9 291.5 440.9 293 429C291.5 429.5 290 430.1 288.4 430.6C300 445.7 313.3 459.4 327.9 471.6C332 475 336.2 478.3 340.6 481.5C342.4 482.8 346.4 480 344.1 478.4C329 467.3 315.1 454.6 302.8 440.4C299.3 436.4 296 432.3 292.8 428.1C291.5 426.5 288.5 427.9 288.2 429.7C286.7 441.6 286 453.6 285.8 465.6C285.7 468.2 290.6 467.2 290.6 464.9Z" fill="white"/>
</g>
<mask id="mask15_201_695" style="mask-type:luminance" maskUnits="userSpaceOnUse" x="51" y="51" width="398" height="398">
<path d="M250 448.5C359.629 448.5 448.5 359.629 448.5 250C448.5 140.371 359.629 51.5 250 51.5C140.371 51.5 51.5 140.371 51.5 250C51.5 359.629 140.371 448.5 250 448.5Z" fill="white"/>
</mask>
<g mask="url(#mask15_201_695)">
<path d="M77.5 131.9C93.8 148 110.5 163.8 127.3 179.4C144.1 194.8 161.1 210 178.3 224.9C188.1 233.3 197.9 241.7 207.8 249.9C207.6 249.7 207.5 249.5 207.3 249.3C190 274.3 172 298.7 153.3 322.7C134.6 346.7 115.3 370.1 95.4 393C84.2 405.8 72.9 418.5 61.3 431C61.2 431.1 65 434.2 65.5 433.7C86.1 411.4 106.1 388.6 125.5 365.2C144.9 341.8 163.6 317.9 181.7 293.5C191.8 279.8 201.7 266 211.4 252C211.5 251.9 210.9 251.4 210.9 251.4C193.4 236.9 176.1 222 159.1 206.9C142 191.8 125.2 176.3 108.7 160.6C99.4 151.8 90.2 142.9 81.1 133.9C80.3 133.1 79.3 132.5 78.3 132C78.2 131.9 76.8 131.2 77.5 131.9Z" fill="white"/>
</g>
<mask id="mask16_201_695" style="mask-type:luminance" maskUnits="userSpaceOnUse" x="51" y="51" width="398" height="398">
<path d="M250 448.5C359.629 448.5 448.5 359.629 448.5 250C448.5 140.371 359.629 51.5 250 51.5C140.371 51.5 51.5 140.371 51.5 250C51.5 359.629 140.371 448.5 250 448.5Z" fill="white"/>
</mask>
<g mask="url(#mask16_201_695)">
<path d="M52.5 142.3C70.6 155 88 168.6 104.5 183.1C121 197.6 136.7 212.9 151.5 229.1C159.9 238.3 168 247.7 175.9 257.4C175.9 256.9 176 256.4 176 255.9C158.2 274 140.2 292 122 309.7C103.8 327.5 85.5 345 66.9 362.4C56.4 372.2 45.9 381.9 35.4 391.6C34.5 392.4 35.4 393.4 36.2 393.7C37.2 394.1 38.8 394.1 39.6 393.3C58.3 376.1 76.9 358.8 95.3 341.2C113.7 323.7 131.9 305.9 149.9 288C160.1 277.9 170.2 267.7 180.2 257.5C180.7 257 180.7 256.5 180.3 256C166.4 238.8 151.5 222.3 135.8 206.7C120.1 191.1 103.5 176.3 86.1 162.5C76.4 154.7 66.4 147.3 56.2 140.2C55.3 139.5 53.7 139.4 52.7 140C51.7 140.6 51.6 141.6 52.5 142.3Z" fill="white"/>
</g>
<mask id="mask17_201_695" style="mask-type:luminance" maskUnits="userSpaceOnUse" x="51" y="51" width="398" height="398">
<path d="M250 448.5C359.629 448.5 448.5 359.629 448.5 250C448.5 140.371 359.629 51.5 250 51.5C140.371 51.5 51.5 140.371 51.5 250C51.5 359.629 140.371 448.5 250 448.5Z" fill="white"/>
</mask>
<g mask="url(#mask17_201_695)">
<path d="M51 171C64.9 179.2 78.2 188.5 90.7 198.8C103.2 209.1 114.8 220.4 125.5 232.6C131.5 239.5 137.3 246.6 142.6 254C142.8 253.5 142.9 252.9 143.1 252.4C126.7 266.2 110.4 280.3 94.3 294.5C78.3 308.6 62.5 322.9 46.8 337.4C37.9 345.6 29.1 353.9 20.3 362.2C18.1 364.3 22.6 365.4 24 364C39.6 349.2 55.4 334.6 71.3 320.2C87.1 305.9 103.1 291.8 119.2 277.8C128.4 269.9 137.6 262 146.9 254.2C147.3 253.8 147.8 253.2 147.4 252.6C137.7 239.3 127 226.8 115.3 215.3C103.7 203.7 91.1 193.1 77.7 183.6C70.1 178.2 62.3 173.1 54.3 168.4C52.5 167.4 48.4 169.5 51 171Z" fill="white"/>
</g>
<mask id="mask18_201_695" style="mask-type:luminance" maskUnits="userSpaceOnUse" x="51" y="51" width="398" height="398">
<path d="M250 448.5C359.629 448.5 448.5 359.629 448.5 250C448.5 140.371 359.629 51.5 250 51.5C140.371 51.5 51.5 140.371 51.5 250C51.5 359.629 140.371 448.5 250 448.5Z" fill="white"/>
</mask>
<g mask="url(#mask18_201_695)">
<path d="M39.1 189.1C60.5 205.7 81 223.5 100.4 242.3C101.6 243.5 102.9 244.7 104.1 245.9C105.1 246.9 106.5 247.9 107 249.3C107.5 250.4 107.1 251.4 106.3 252.2C105.2 253.4 103.8 254.4 102.6 255.5C97.2 260.2 91.8 264.9 86.4 269.6C75.6 279 64.8 288.5 54.1 297.9C41.9 308.5 29.8 319.2 17.6 329.8C16.7 330.6 17.4 331.8 18.3 332.3C19.4 332.9 20.8 332.8 21.8 332C43.9 312.7 65.9 293.4 88 274.1C93.5 269.3 99 264.5 104.5 259.6C105.9 258.4 107.3 257.2 108.6 256C109.7 255 110.9 254.1 111.6 252.8C113.3 249.9 111.2 247.2 109.1 245.1C99.3 235.3 89.1 225.9 78.8 216.7C67.1 206.4 55.1 196.4 42.8 186.9C41.8 186.2 40.4 186 39.3 186.6C38.4 187.2 38.2 188.4 39.1 189.1Z" fill="white"/>
</g>
<mask id="mask19_201_695" style="mask-type:luminance" maskUnits="userSpaceOnUse" x="51" y="51" width="398" height="398">
<path d="M250 448.5C359.629 448.5 448.5 359.629 448.5 250C448.5 140.371 359.629 51.5 250 51.5C140.371 51.5 51.5 140.371 51.5 250C51.5 359.629 140.371 448.5 250 448.5Z" fill="white"/>
</mask>
<g mask="url(#mask19_201_695)">
<path d="M37.4 218.2C51.3 229 64.9 240.3 78.1 252C78 251.4 77.9 250.7 77.8 250.1C56.5 265.2 35.7 280.8 15.4 297.1C9.59995 301.7 3.89995 306.4 -1.80005 311.1C-3.40005 312.4 0.699953 315.1 2.19995 314C22.3 297.4 42.7999 281.4 63.7999 266C69.7999 261.6 75.8 257.3 81.8 253C82.5 252.5 82 251.5 81.5 251.1C68 239.1 54.1 227.6 39.8 216.5C39.1 215.9 37.5 215.3 36.6 216C35.8 216.6 36.8 217.7 37.4 218.2Z" fill="white"/>
</g>
</svg>
