<svg width="500" height="500" viewBox="0 0 500 500" fill="none" xmlns="http://www.w3.org/2000/svg">
<g clip-path="url(#clip0_201_707)">
<mask id="mask0_201_707" style="mask-type:luminance" maskUnits="userSpaceOnUse" x="51" y="51" width="398" height="398">
<path d="M250 448.5C359.629 448.5 448.5 359.629 448.5 250C448.5 140.371 359.629 51.5 250 51.5C140.371 51.5 51.5 140.371 51.5 250C51.5 359.629 140.371 448.5 250 448.5Z" fill="white"/>
</mask>
<g mask="url(#mask0_201_707)">
<path d="M18.5001 126.2C18.1001 148.8 22.0001 171.4 30.0001 192.6C33.9001 203.1 38.9001 213.2 44.7001 222.7C50.3001 231.8 56.5001 240.5 62.3001 249.5C68.0001 258.4 73.4001 267.6 76.9001 277.6C80.9001 288.8 81.5001 300.7 84.1001 312.2C86.7001 323.3 91.2001 333.8 97.4001 343.4C103.5 352.8 111.1 361.1 118.8 369.2C133.4 384.7 149.3 401.4 153 423.2C153.4 425.8 153.7 428.4 153.7 431C153.7 432.4 158.5 431.4 158.5 429.6C158.1 407.7 143.8 389.4 129.6 374.1C122.1 365.9 114.2 358 107.4 349.3C100.4 340.3 94.9001 330.3 91.4001 319.5C87.7001 308.2 87.0001 296.3 84.2001 284.7C81.7001 274.3 77.1001 264.6 71.6001 255.5C66.2001 246.4 60.0001 237.8 54.2001 228.9C48.1001 219.6 42.7001 210 38.2001 199.8C29.2001 179.1 24.1001 156.7 23.4001 134.1C23.3001 131.2 23.3001 128.4 23.3001 125.5C23.3001 123.5 18.5001 124.6 18.5001 126.2Z" fill="white"/>
</g>
<mask id="mask1_201_707" style="mask-type:luminance" maskUnits="userSpaceOnUse" x="51" y="51" width="398" height="398">
<path d="M250 448.5C359.629 448.5 448.5 359.629 448.5 250C448.5 140.371 359.629 51.5 250 51.5C140.371 51.5 51.5 140.371 51.5 250C51.5 359.629 140.371 448.5 250 448.5Z" fill="white"/>
</mask>
<g mask="url(#mask1_201_707)">
<path d="M53.4001 179.9C67.0001 193.9 70.0001 214.1 73.8001 232.5C75.8001 242.1 78.0001 251.7 81.9001 260.8C86.0001 270.6 92.2001 279.3 98.2001 288C104.1 296.7 110.1 305.6 113.4 315.6C117 326.5 117.1 338.3 122.1 348.7C130.1 365.4 147.3 374.7 160.2 387C167.3 393.7 172.8 401.6 175.8 410.9C179.2 421.4 179.8 432.7 179.8 443.6C179.8 446.4 179.8 449.2 179.7 451.9C179.7 454.7 184.6 454.4 184.6 452C184.8 440.7 184.8 429.3 182.7 418.2C180.7 407.9 176.6 398.3 169.7 390.2C157.9 376.3 140.5 367.9 130 352.8C127.1 348.7 125 344.2 123.7 339.3C122.1 333.5 121.3 327.6 120 321.8C117.7 311.1 112.8 301.6 106.9 292.5C101 283.5 94.4001 274.8 89.3001 265.3C84.6001 256.5 81.9001 247 79.7001 237.4C75.5001 218.8 73.4001 198.3 61.6001 182.5C60.2001 180.6 58.6001 178.7 56.9001 177C55.5001 175.3 51.3001 177.8 53.4001 179.9Z" fill="white"/>
</g>
<mask id="mask2_201_707" style="mask-type:luminance" maskUnits="userSpaceOnUse" x="51" y="51" width="398" height="398">
<path d="M250 448.5C359.629 448.5 448.5 359.629 448.5 250C448.5 140.371 359.629 51.5 250 51.5C140.371 51.5 51.5 140.371 51.5 250C51.5 359.629 140.371 448.5 250 448.5Z" fill="white"/>
</mask>
<g mask="url(#mask2_201_707)">
<path d="M60.5999 151.6C67.2999 162.4 71.5999 174.5 76.3999 186.2C78.7999 192.1 81.3999 197.9 84.4999 203.5C87.6999 209.2 91.4999 214.4 95.6999 219.3C100.1 224.4 104.7 229.3 108.3 234.9C111.9 240.5 114.5 246.7 116.2 253.1C117.9 259.7 118.3 266.4 118.2 273.1C118.1 280 117.7 286.9 118.4 293.9C119 299.9 120.7 305.7 123.7 311C126.3 315.5 129.5 319.6 133 323.5C140 331.2 148.3 338 154.1 346.8C157.2 351.6 159.2 356.7 160.3 362.3C161.5 368.5 162.1 374.9 164.1 380.8C166 386.3 169.2 390.9 173.6 394.8C177.7 398.5 182.4 401.3 187.2 404C192 406.7 196.9 409.3 201.4 412.5C206 415.8 210 419.9 213.3 424.6C219.8 433.7 223.6 444.9 223.9 456.1C224 458.9 223.8 461.8 223.4 464.6C223.1 466.9 227.8 468.4 228.2 465.8C231.3 442.5 219.5 419.3 199.7 407C190.6 401.4 179.8 397.2 173 388.6C165.1 378.7 167 364.9 162.4 353.6C158.4 343.7 150.7 336 143.3 328.6C136 321.2 128.2 313.5 124.9 303.4C120.6 290.1 123.9 275.8 122.4 262.1C121 248.7 115.2 236.5 106.7 226.2C102.4 220.9 97.5999 216 93.5999 210.5C89.8999 205.4 86.9999 199.9 84.3999 194.2C78.9999 182.6 75.0999 170.4 69.2999 158.9C67.8999 156.1 66.3999 153.3 64.6999 150.7C64.0999 149.7 62.6999 148.9 61.4999 149.2C60.5999 149.5 59.9999 150.6 60.5999 151.6Z" fill="white"/>
</g>
<mask id="mask3_201_707" style="mask-type:luminance" maskUnits="userSpaceOnUse" x="51" y="51" width="398" height="398">
<path d="M250 448.5C359.629 448.5 448.5 359.629 448.5 250C448.5 140.371 359.629 51.5 250 51.5C140.371 51.5 51.5 140.371 51.5 250C51.5 359.629 140.371 448.5 250 448.5Z" fill="white"/>
</mask>
<g mask="url(#mask3_201_707)">
<path d="M79.8999 142.7C89.5999 150 95.4999 160.6 99.0999 172C100.9 177.9 102.1 184 102.8 190.1C103.5 196.8 103.2 203.6 104.5 210.3C107.1 223.7 118.5 231.3 127.3 240.5C136.3 249.9 142.5 261.7 146.2 274.2C149.9 286.6 150.4 299.6 152.6 312.3C154.7 324.6 158.6 336.5 167 345.9C171.2 350.6 176.3 354.4 181.2 358.3C185.9 362.1 190.4 366 193.1 371.5C198.5 382.4 199.2 395 205.5 405.6C208.6 410.9 212.9 415.3 217.9 418.8C222.9 422.3 228.4 424.8 233.8 427.6C239.2 430.4 244.6 433.3 248.9 437.7C253.3 442.1 256.3 447.7 258 453.7C258.8 456.7 259.3 459.8 259.5 462.9C259.5 463.9 260.5 464.9 261 465.6C261.1 465.7 262.6 467.2 262.6 466.6C262 453.7 255.5 441.3 245.8 432.8C236.4 424.6 224 421.4 214.2 413.9C209.3 410.1 206.4 405.3 204.4 399.5C202.3 393.6 201 387.4 199 381.5C197 375.4 194.2 369.7 190.1 364.8C186 359.8 180.8 355.9 175.8 351.9C170.9 348 166.1 344 163 338.6C159.9 333.2 158 327.1 156.7 321C154 308.3 153.7 295.2 150.7 282.5C147.6 269.4 141.8 257 133.7 246.2C129.6 240.8 125 236.1 120 231.6C115.4 227.3 110.5 223 108.6 216.8C106.4 210 107 202.6 106.3 195.6C105.7 189.4 104.6 183.3 102.9 177.3C99.4999 165.3 93.4999 153.9 84.7999 145C82.6999 142.8 80.3999 140.8 77.8999 139C76.9999 138.4 77.6999 140 77.7999 140.2C78.1999 141 78.9999 142 79.8999 142.7Z" fill="white"/>
</g>
<mask id="mask4_201_707" style="mask-type:luminance" maskUnits="userSpaceOnUse" x="51" y="51" width="398" height="398">
<path d="M250 448.5C359.629 448.5 448.5 359.629 448.5 250C448.5 140.371 359.629 51.5 250 51.5C140.371 51.5 51.5 140.371 51.5 250C51.5 359.629 140.371 448.5 250 448.5Z" fill="white"/>
</mask>
<g mask="url(#mask4_201_707)">
<path d="M90.7002 116.4C92.1002 131.1 96.3002 146.1 105.3 158.1C113 168.3 123.6 175.6 133.2 183.9C142.8 192.2 151 201.8 153.1 214.7C155.4 228.7 151.9 242.8 152.7 256.9C153 263.6 154.5 270.3 157.8 276.1C161.1 281.8 166 286.3 170.9 290.5C175.8 294.7 181.1 298.7 185.1 303.8C189.5 309.4 191.7 316 192.7 323C194.8 337.2 193 351.9 199.4 365.2C202.3 371.4 206.7 376.9 212 381.2C217.1 385.4 223.1 388.1 229.1 390.7C234.9 393.2 241 395.9 245.3 400.6C250.1 405.9 251.3 413.1 251.9 420C252.5 427.1 253.1 434 255.4 440.8C257.7 447.4 261.2 453.5 265.7 458.7C268 461.3 270.4 463.7 273.1 465.9C274.8 467.3 278.7 464.2 276.8 462.7C265.8 453.8 258.8 440.9 257.2 426.9C256.4 419.9 256.4 412.6 254 405.9C251.8 399.7 247.2 395.1 241.6 391.8C236 388.6 229.9 386.5 224.2 383.6C218.2 380.6 212.8 376.3 208.7 370.9C204.5 365.4 201.6 359.1 200.2 352.3C198.7 345.1 198.6 337.8 198.2 330.5C197.7 323.4 196.9 316.3 194.2 309.7C191.7 303.5 187.3 298.5 182.4 294.1C177.6 289.7 172.3 285.9 167.8 281.2C163.1 276.4 159.8 270.6 158.4 264.1C155.4 250.5 158.6 236.5 158.5 222.8C158.4 216 157.5 209.2 154.8 203C152.4 197.4 148.7 192.6 144.6 188.2C136 179.1 125.3 172.2 116.4 163.4C105.9 153 99.7002 140 96.9002 125.8C96.2002 122.1 95.6002 118.4 95.3002 114.7C95.1002 112.4 90.5002 114.3 90.7002 116.4Z" fill="white"/>
</g>
<mask id="mask5_201_707" style="mask-type:luminance" maskUnits="userSpaceOnUse" x="51" y="51" width="398" height="398">
<path d="M250 448.5C359.629 448.5 448.5 359.629 448.5 250C448.5 140.371 359.629 51.5 250 51.5C140.371 51.5 51.5 140.371 51.5 250C51.5 359.629 140.371 448.5 250 448.5Z" fill="white"/>
</mask>
<g mask="url(#mask5_201_707)">
<path d="M100.1 100.3C110 110.6 119.9 121.1 127.8 133.1C131.7 139 135 145.3 137.4 152C139.9 159 141.1 166.4 144.2 173.2C149.8 185.6 161.5 192.7 170.8 202.1C180.3 211.7 185.1 224.8 187.5 237.9C188.8 244.7 189.4 251.6 189.7 258.5C190 265.3 190.1 272.2 190.9 279C191.7 285.6 193.1 292.1 196.2 298C199.5 304.4 204.6 309.4 210 314.1C215.3 318.7 220.4 323.3 224.7 328.8C229 334.2 232.7 340.2 235.6 346.4C238.7 353 240.8 359.8 242.6 366.8C244.4 373.8 246 380.9 249 387.6C254.8 400.6 267.3 409 272.4 422.4C277.2 434.9 277.4 448.7 282.5 461.1C283.7 464.1 285.2 466.9 287 469.5C287.5 470.2 288.6 471.8 289.5 471.8C290.4 471.9 290 471.1 289.6 470.5C282 459.1 281.5 444.8 278 432C276.3 425.5 273.7 419.3 269.8 413.8C265.7 408 260.6 403 256.5 397.2C247.8 385.1 247.1 369.6 242 356C237.1 343 229.4 331 219.7 321C214.7 315.8 208.7 311.6 203.8 306.3C199 301.2 196.5 294.6 195.2 287.8C193.8 280.9 193.6 273.8 193.4 266.8C193.2 260 192.8 253.1 191.8 246.4C190 233.3 186.2 220.2 178.5 209.2C174.6 203.7 169.9 199 164.8 194.6C159.9 190.4 154.7 186.3 150.8 181.1C146.3 175.1 144.7 167.6 142.7 160.5C140.8 153.7 138 147.1 134.6 140.9C127.6 128.4 118.3 117.5 108.5 107C106.1 104.4 103.7 101.9 101.2 99.3001C100.9 99.0001 99.4999 97.5001 98.9999 97.9001C98.3999 98.4001 99.7999 100 100.1 100.3Z" fill="white"/>
</g>
<mask id="mask6_201_707" style="mask-type:luminance" maskUnits="userSpaceOnUse" x="51" y="51" width="398" height="398">
<path d="M250 448.5C359.629 448.5 448.5 359.629 448.5 250C448.5 140.371 359.629 51.5 250 51.5C140.371 51.5 51.5 140.371 51.5 250C51.5 359.629 140.371 448.5 250 448.5Z" fill="white"/>
</mask>
<g mask="url(#mask6_201_707)">
<path d="M42.5001 239.6C43.9001 254.4 49.2001 268.8 57.6001 281C59.7001 284.1 62.1001 287 64.5001 289.8C66.9001 292.7 69.4001 295.6 71.0001 299.1C74.4001 306.3 74.4001 314.5 74.5001 322.2C74.7001 330.1 75.0001 338.2 76.6001 346C78.1001 353.3 80.9001 360.2 84.9001 366.5C92.8001 378.8 104.1 388.1 114.8 397.9C125 407.2 135.2 417.7 139.4 431.2C139.9 432.9 140.3 434.6 140.7 436.3C140.9 437.3 141.9 438.1 142.6 438.7C142.7 438.8 144.6 440 144.5 439.3C141.9 425.1 132.7 413.4 122.7 403.5C112.6 393.5 101 384.8 92.1001 373.7C87.6001 368 84.0001 361.8 81.9001 354.9C79.5001 347.3 78.8001 339.2 78.4001 331.2C78.1001 323.4 78.6001 315.3 76.7001 307.6C75.8001 304 74.3001 300.6 72.3001 297.4C70.2001 294.2 67.6001 291.3 65.2001 288.4C55.6001 276.9 49.3001 262.9 46.9001 248.1C46.6001 246.3 46.4001 244.5 46.2001 242.6C46.1001 241.6 45.0001 240.7 44.3001 240.2C44.2001 240 42.4001 238.9 42.5001 239.6Z" fill="white"/>
</g>
<mask id="mask7_201_707" style="mask-type:luminance" maskUnits="userSpaceOnUse" x="51" y="51" width="398" height="398">
<path d="M250 448.5C359.629 448.5 448.5 359.629 448.5 250C448.5 140.371 359.629 51.5 250 51.5C140.371 51.5 51.5 140.371 51.5 250C51.5 359.629 140.371 448.5 250 448.5Z" fill="white"/>
</mask>
<g mask="url(#mask7_201_707)">
<path d="M118 91.1C122.9 121.7 156.1 133.4 172.5 156.3C176.9 162.4 180.2 169.2 182.5 176.3C184.8 183.5 185.8 191.1 186.8 198.6C187.8 206.1 188.7 213.6 190.7 220.8C192.5 227.3 195.1 233.3 198.7 238.9C205.2 249 214 257.4 221.9 266.4C229.6 275.1 236.9 284.8 238.9 296.5C240.3 304.7 239.4 312.9 239.5 321.2C239.7 328.7 241 336.1 243.5 343.2C245.9 350 249.3 356.4 253.6 362.1C257.6 367.4 262.4 372.2 267 377C271.3 381.5 275.6 386.2 278.6 391.7C282.3 398.5 283 405.8 282.7 413.3C282.4 421.1 281.9 428.7 283.1 436.4C284.3 443.7 286.6 450.8 290 457.3C291.7 460.5 293.6 463.6 295.7 466.6C297.3 468.9 301.5 467.3 299.6 464.6C290.7 452.3 286.4 437.4 287 422.3C287.3 414.5 288.3 406.5 286.2 398.8C284.6 392.6 281.3 387.1 277.3 382.2C268.9 371.8 258.2 363.4 251.9 351.4C248.5 344.9 246.1 337.9 245 330.7C243.8 322.8 244.4 314.8 244.3 306.8C244.3 299.9 243.3 293.1 240.7 286.7C238.5 281.3 235.4 276.4 231.9 271.8C224.7 262.3 215.9 254.2 208.4 244.9C204.7 240.3 201.3 235.4 198.8 230.1C195.6 223.3 194 216 192.9 208.6C190.6 193.8 189.6 178.9 183 165.3C179.8 158.7 175.6 152.5 170.6 147.1C165.6 141.6 159.9 136.9 154.2 132.2C143.3 123.2 131.5 114 125.6 100.7C124.2 97.6 123.2 94.3 122.7 91C122.3 88.7 117.5 88.1 118 91.1Z" fill="white"/>
</g>
<mask id="mask8_201_707" style="mask-type:luminance" maskUnits="userSpaceOnUse" x="51" y="51" width="398" height="398">
<path d="M250 448.5C359.629 448.5 448.5 359.629 448.5 250C448.5 140.371 359.629 51.5 250 51.5C140.371 51.5 51.5 140.371 51.5 250C51.5 359.629 140.371 448.5 250 448.5Z" fill="white"/>
</mask>
<g mask="url(#mask8_201_707)">
<path d="M144 70.5999C147.2 83.5999 156.9 93.2999 163.3 104.8C167 111.3 168.5 118.2 169.8 125.5C171.2 133.3 173.4 140.3 177.5 147.1C181.4 153.4 186.1 159.1 190.6 164.9C195 170.6 199.5 176.3 203.8 182.1C212.3 193.5 220.2 205.3 226.1 218.3C229 224.7 231.4 231.4 232.9 238.2C234.6 245.8 234.9 253.4 235.6 261.1C236.8 274.5 241.9 286.3 249.1 297.4C256 308.2 264.2 318.1 270.8 329.1C274.1 334.7 277 340.6 279 346.8C281.2 353.9 282.4 361.3 283.6 368.6C284.8 375.9 285.9 383.3 288.2 390.3C290.5 397.4 293.9 403.7 298.3 409.7C307 421.5 319 431.9 322.9 446.6C323.8 450.2 324.2 453.8 323.8 457.4C323.6 459.3 328.1 461.4 328.3 459.2C329.7 444.1 320.2 431.2 311.1 420.3C306.3 414.5 301.3 408.8 297.5 402.3C293.8 395.8 291.6 388.6 290.1 381.4C287.2 367.2 286.2 352.7 280.2 339.3C274.9 327.5 267 317.2 259.5 306.8C252.2 296.5 245 285.7 241.8 273.3C239.9 265.8 239.9 258 239.1 250.3C238.4 243.1 236.8 236.1 234.5 229.2C225.3 202.2 206.3 180 189.1 157.7C184.4 151.7 179.7 145.5 177 138.3C174.2 130.8 174 122.6 171.7 114.9C167.8 102 157.8 92.3999 151.8 80.6999C150.3 77.7999 149.1 74.7999 148.3 71.5999C148 69.7999 143.4 68.1999 144 70.5999Z" fill="white"/>
</g>
<mask id="mask9_201_707" style="mask-type:luminance" maskUnits="userSpaceOnUse" x="51" y="51" width="398" height="398">
<path d="M250 448.5C359.629 448.5 448.5 359.629 448.5 250C448.5 140.371 359.629 51.5 250 51.5C140.371 51.5 51.5 140.371 51.5 250C51.5 359.629 140.371 448.5 250 448.5Z" fill="white"/>
</mask>
<g mask="url(#mask9_201_707)">
<path d="M148.4 61.2001C162.2 83.6001 186.4 97.3001 200.1 119.8C203.7 125.7 206.3 132.1 207.7 138.9C209.5 147.3 209.9 155.9 211.9 164.2C215 176.9 222.1 188.2 229.9 198.6C237.9 209.3 247 219.2 254.5 230.3C258.1 235.6 261.4 241.2 263.9 247.1C266.9 254.1 268.6 261.4 269.5 268.9C270.6 277.5 271 286.2 272.5 294.7C273.8 302.1 275.9 309.3 278.7 316.3C284.2 330.3 292.5 343.4 303 354.2C308.2 359.6 314 364.5 318.2 370.7C322.8 377.7 323.7 385.6 324 393.8C324.2 401.5 324.4 409.1 326.8 416.5C329 423.3 332.5 429.6 337.1 435.1C339.4 437.8 342 440.3 344.7 442.5C345.5 443.2 347.1 443.6 348.1 443.4C349 443.3 349.2 442.8 348.4 442.2C336.6 432.6 329.8 418.3 328.9 403.2C328.5 395.3 329 387.1 326.6 379.4C324.4 372.3 319.5 366.6 314.3 361.5C309 356.2 303.7 351 299.1 345C294.5 339 290.5 332.5 287.1 325.6C283.8 318.9 281.1 311.8 279.2 304.6C277 296.6 276 288.4 275.2 280.2C274.4 271.9 273.7 263.6 271.3 255.6C269.5 249.4 266.7 243.4 263.4 237.8C256.8 226.6 248.3 216.7 240.2 206.6C232.1 196.5 224.2 186 219.4 173.8C213.6 159.2 215.1 142.9 208.9 128.5C198.5 104.4 174.6 90.2001 158.8 70.1001C156.8 67.5001 154.9 64.8001 153.1 62.0001C152.6 61.1001 151.3 60.8001 150.3 60.6001C150.1 60.6001 147.9 60.4001 148.4 61.2001Z" fill="white"/>
</g>
<mask id="mask10_201_707" style="mask-type:luminance" maskUnits="userSpaceOnUse" x="51" y="51" width="398" height="398">
<path d="M250 448.5C359.629 448.5 448.5 359.629 448.5 250C448.5 140.371 359.629 51.5 250 51.5C140.371 51.5 51.5 140.371 51.5 250C51.5 359.629 140.371 448.5 250 448.5Z" fill="white"/>
</mask>
<g mask="url(#mask10_201_707)">
<path d="M189.1 43.7001C191.3 71.1001 201.5 97.0001 215 120.7C221.8 132.7 229.6 144 237.7 155.1C241.8 160.8 246 166.4 249.5 172.5C253.1 178.7 255.5 185.3 257.2 192.3C260.5 206.1 261.4 220.5 266.6 233.8C271.4 246.2 279.3 257.3 288.2 267C297.1 276.7 307.7 285 315.6 295.6C319.5 300.8 322.5 306.5 324.3 312.7C326.2 319.2 327 325.9 327.6 332.6C328.7 345.9 328.7 359.5 332.7 372.4C336.8 385.4 344.9 396.5 353.7 406.8C355.9 409.3 358.1 411.8 360.3 414.3C360.9 414.9 361.7 415.3 362 414.3C362.3 413.3 361.2 411.8 360.6 411.1C351.8 401.2 342.7 391.1 337.5 378.8C332.3 366.5 332 352.9 331.1 339.8C330.2 326.8 328.7 313.6 322.4 302C316.2 290.5 306.4 281.6 297.2 272.7C287.8 263.6 279.1 253.8 272.9 242.3C266.2 229.8 264.5 215.9 262 202.2C260.7 195.4 259.2 188.7 256.7 182.2C254.2 175.8 250.7 169.8 246.8 164C239.2 152.6 230.7 141.8 223.4 130.2C209.1 107.5 197.5 82.6001 193.5 55.9001C193 52.6001 192.6 49.2001 192.3 45.8001C192.2 44.7001 191.4 43.4001 190.5 42.7001C189.6 42.4001 189 42.7001 189.1 43.7001Z" fill="white"/>
</g>
<mask id="mask11_201_707" style="mask-type:luminance" maskUnits="userSpaceOnUse" x="51" y="51" width="398" height="398">
<path d="M250 448.5C359.629 448.5 448.5 359.629 448.5 250C448.5 140.371 359.629 51.5 250 51.5C140.371 51.5 51.5 140.371 51.5 250C51.5 359.629 140.371 448.5 250 448.5Z" fill="white"/>
</mask>
<g mask="url(#mask11_201_707)">
<path d="M201.6 51.2C213 60.8 213.7 76.8 215.2 90.4C216.1 98 217.3 105.7 220.6 112.7C223.2 118.2 226.8 123.1 230.9 127.5C239.5 136.8 249.9 144 259.2 152.5C263.8 156.8 268.2 161.4 271.8 166.6C275.3 171.8 278.2 177.4 280.5 183.2C290.1 206.9 291.5 233.2 301.8 256.7C304.3 262.4 307.3 267.7 310.9 272.7C315.2 278.6 320.6 283.6 326 288.6C331.6 293.7 337.2 298.9 341.5 305.2C345.7 311.2 348.8 317.9 350.9 324.9C353.1 332.4 353.7 340.2 353.7 348C353.6 356.1 353.3 364.2 355 372.1C358 386.2 365.6 398.7 374.7 409.7C377 412.5 379.5 415.2 382 417.8C383.7 419.5 388.1 417.5 386.1 415.4C376.1 405 367.1 393.1 362.2 379.4C359.6 372.1 358.6 364.5 358.6 356.8C358.6 348.7 359.1 340.6 357.8 332.6C355.4 318.2 348.6 304.8 338.5 294.3C333.1 288.8 327.1 283.9 321.7 278.4C317.1 273.7 313.2 268.4 310 262.6C297.7 240 296 213.6 288 189.5C284.1 177.6 278.4 166.3 270 156.9C261.4 147.5 250.9 140.1 241.5 131.6C236.9 127.5 232.6 123 229.1 117.9C225.2 112.1 222.7 105.7 221.4 98.9C218.7 84.7 219.8 69.2 212 56.4C210.3 53.5 208.1 51 205.6 48.8C204.6 48 203.2 47.8 202.1 48.5C201.4 49 200.7 50.4 201.6 51.2Z" fill="white"/>
</g>
<mask id="mask12_201_707" style="mask-type:luminance" maskUnits="userSpaceOnUse" x="51" y="51" width="398" height="398">
<path d="M250 448.5C359.629 448.5 448.5 359.629 448.5 250C448.5 140.371 359.629 51.5 250 51.5C140.371 51.5 51.5 140.371 51.5 250C51.5 359.629 140.371 448.5 250 448.5Z" fill="white"/>
</mask>
<g mask="url(#mask12_201_707)">
<path d="M219.3 45.2C217.2 57.9 220.5 71.2 228.2 81.5C236.6 92.7 249.8 98 259.8 107.3C264.5 111.7 268.7 117.3 270.2 123.7C271 127 270.9 130.3 270.3 133.7C269.7 137.4 268.7 141.1 269.2 144.9C270 151.4 274.2 156.8 278.6 161.4C283.2 166.2 288.1 170.8 292.8 175.4C302.3 184.7 311.6 194.5 318.4 206C321.7 211.6 324.2 217.5 325.9 223.7C327.7 230.1 328.6 236.7 329.5 243.3C331.2 255.9 332.7 269.2 339.3 280.4C346.2 292.1 358.4 298.8 367.2 308.8C371.7 313.9 375.2 320 377.4 326.5C379.8 333.7 380.1 341.2 380.9 348.7C382.2 362.3 387 375 395.9 385.5C397.9 387.9 400.1 390.1 402.5 392.2C403.4 393 407.6 391 407 390.5C397 381.7 390 369.8 387.1 356.9C385.5 349.6 385.4 342.1 384.4 334.7C383.4 327.6 381.1 320.8 377.3 314.7C370.2 302.9 358 296.2 349.1 286.1C340.5 276.2 337.4 263.5 335.5 250.8C333.6 237.9 332.5 224.6 327.1 212.5C321.9 200.6 313.5 190.5 304.6 181.2C300 176.4 295.2 171.7 290.4 167.1C285.7 162.5 280.6 157.9 277.1 152.2C275.4 149.4 274.2 146.3 273.9 143C273.6 139.2 274.6 135.5 275.2 131.7C276.2 125.1 274.6 118.9 270.9 113.3C263.2 101.7 249.9 96.2 239.7 87.3C229.9 78.7 224 66.2 223.5 53.2C223.4 50 223.6 46.9 224.1 43.8C224.2 43.5 219.5 43.8 219.3 45.2Z" fill="white"/>
</g>
<mask id="mask13_201_707" style="mask-type:luminance" maskUnits="userSpaceOnUse" x="51" y="51" width="398" height="398">
<path d="M250 448.5C359.629 448.5 448.5 359.629 448.5 250C448.5 140.371 359.629 51.5 250 51.5C140.371 51.5 51.5 140.371 51.5 250C51.5 359.629 140.371 448.5 250 448.5Z" fill="white"/>
</mask>
<g mask="url(#mask13_201_707)">
<path d="M252.7 41.5999C257.8 44.6999 260.2 50.4999 261.5 56.0999C263.2 63.5999 262.7 71.2999 263.2 78.8999C264.2 92.5999 270.1 104.7 278.7 115.2C283 120.5 287.9 125.3 293 129.9C297.9 134.3 303.2 138.4 308.2 142.8C312.8 146.9 317.2 151.6 319.6 157.4C322.5 164.3 322 172 322.2 179.3C322.3 185.3 323.1 191.2 325.1 196.9C326.8 201.8 329.2 206.4 332.1 210.8C337.8 219.6 345.1 227.3 352.4 234.9C359.7 242.5 367.1 250.2 373 259C375.7 263.1 378.1 267.6 379.7 272.2C381.9 278.5 382.5 285.1 382.8 291.7C383.1 299.1 383.2 306.6 385 313.9C386.5 320.1 389.5 325.7 393.2 330.8C400.4 340.5 410.1 348 418 357.1C419.9 359.3 421.6 361.6 423.2 364C423.8 364.9 424.7 366.1 425.9 366.2C427 366.2 426.9 365.1 426.5 364.4C419.8 353.8 410.2 345.9 401.7 336.9C397.7 332.6 394 328.1 391.5 322.8C388.3 316.2 387.5 308.8 387.2 301.6C386.8 294.1 386.8 286.6 385.2 279.2C384.1 274.1 382.1 269.2 379.7 264.6C374.6 255.2 367.5 247 360.2 239.2C346.3 224.3 328.8 208.9 326.7 187.3C326 179.7 326.8 172.1 325.3 164.6C324 157.9 320.6 152.1 316.2 146.9C311.8 141.8 306.5 137.6 301.3 133.3C296.1 129.1 291.1 124.6 286.5 119.8C277.3 110.2 269.6 98.6999 267.8 85.1999C265.9 71.3999 268.8 56.0999 259.6 44.2999C257.7 41.7999 255.4 39.6999 252.7 37.9999C252 37.5999 250.9 37.3999 250.9 38.4999C250.6 39.8999 251.8 41.0999 252.7 41.5999Z" fill="white"/>
</g>
<mask id="mask14_201_707" style="mask-type:luminance" maskUnits="userSpaceOnUse" x="51" y="51" width="398" height="398">
<path d="M250 448.5C359.629 448.5 448.5 359.629 448.5 250C448.5 140.371 359.629 51.5 250 51.5C140.371 51.5 51.5 140.371 51.5 250C51.5 359.629 140.371 448.5 250 448.5Z" fill="white"/>
</mask>
<g mask="url(#mask14_201_707)">
<path d="M269.5 41.3001C275.3 60.9001 295.1 70.8001 308.6 84.4001C312 87.8001 315.1 91.5001 317.5 95.7001C320.5 100.9 322.1 106.7 322.9 112.7C324.5 125.8 322.6 139.2 326.3 152C332.7 174.6 356.6 184.3 368 203.5C374.5 214.4 375.7 227.3 377.4 239.6C378.2 245.9 379.2 252.2 380.9 258.3C382.6 264.4 385.2 270.1 388.6 275.4C395.4 286.2 404.7 295.1 411.6 305.9C419 317.5 422.8 331 425.7 344.4C426.4 347.7 427.1 350.9 427.8 354.2C428.3 356.4 433.1 355.8 432.6 353.2C429.8 339.7 427 326.1 421.1 313.6C415.5 301.7 406.8 292.2 398.8 281.9C394.9 276.9 391.3 271.7 388.8 266C386.2 260.2 384.7 254 383.7 247.8C381.6 235.4 381.1 222.5 376.7 210.6C372.6 199.6 364.8 191.3 356.3 183.4C348.3 176.1 339.6 168.8 334.4 159.1C328.2 147.4 329.1 134 328.6 121.2C328.3 114.7 327.7 108.1 325.6 101.9C324 97.0001 321.4 92.5001 318.2 88.5001C312 80.6001 303.9 74.4001 296.2 68.1001C288.9 62.0001 281.3 55.5001 276.9 46.8001C275.8 44.7001 275 42.6001 274.3 40.3001C273.7 38.1001 268.8 38.8001 269.5 41.3001Z" fill="white"/>
</g>
<mask id="mask15_201_707" style="mask-type:luminance" maskUnits="userSpaceOnUse" x="51" y="51" width="398" height="398">
<path d="M250 448.5C359.629 448.5 448.5 359.629 448.5 250C448.5 140.371 359.629 51.5 250 51.5C140.371 51.5 51.5 140.371 51.5 250C51.5 359.629 140.371 448.5 250 448.5Z" fill="white"/>
</mask>
<g mask="url(#mask15_201_707)">
<path d="M307.3 33.0999C313.1 41.7999 315.1 52.1999 317.3 62.2999C318.4 67.3999 319.6 72.4999 321.4 77.3999C323.2 82.2999 325.7 86.9999 328.5 91.3999C334.4 100.5 341.7 108.5 348 117.3C354.4 126.1 359.7 135.7 363.6 145.9C365.5 151 367.1 156.3 368.3 161.6C369.5 167.3 370.1 173 370.7 178.7C371.4 184.5 372.2 190.4 374.1 195.9C375.9 201.1 378.5 206 381.4 210.6C384.4 215.4 387.8 220 391 224.7C394.5 229.8 397.9 234.9 401.2 240.1C407.4 249.8 413.9 259.6 417.9 270.5C419.9 276.1 420.9 281.8 421.3 287.7C421.7 293.7 421.8 299.7 423 305.6C425.2 316.2 430.3 325.9 436.5 334.7C438 336.9 439.6 339 441.2 341C441.9 341.9 446.5 340.3 445.7 339.3C439 330.8 433 321.4 429.6 311.1C427.8 305.7 426.9 300.1 426.6 294.4C426.2 288.5 426.2 282.5 424.9 276.6C422.5 265.3 416.4 255.3 410.4 245.7C404.1 235.5 397.4 225.7 390.6 215.8C387.5 211.2 384.4 206.6 382 201.6C379.4 196.4 377.7 191 376.8 185.3C375.8 179.5 375.4 173.6 374.6 167.7C373.9 162.3 372.7 157 371.1 151.7C367.9 141.3 363.2 131.3 357.3 122.2C351.5 113.1 344.3 105 337.9 96.2999C334.7 91.9999 331.7 87.4999 329.3 82.6999C327 78.0999 325.3 73.1999 324 68.0999C321.4 58.0999 320.1 47.4999 315.8 37.9999C314.8 35.6999 313.6 33.4999 312.2 31.4999C311.3 30.4999 306.9 32.3999 307.3 33.0999Z" fill="white"/>
</g>
<mask id="mask16_201_707" style="mask-type:luminance" maskUnits="userSpaceOnUse" x="51" y="51" width="398" height="398">
<path d="M250 448.5C359.629 448.5 448.5 359.629 448.5 250C448.5 140.371 359.629 51.5 250 51.5C140.371 51.5 51.5 140.371 51.5 250C51.5 359.629 140.371 448.5 250 448.5Z" fill="white"/>
</mask>
<g mask="url(#mask16_201_707)">
<path d="M340.7 54.8C349.2 71.8 355.7 89.8 359.8 108.3C360.8 112.7 361.5 117.2 363.1 121.4C364.7 125.7 367.4 129.4 370.3 132.9C376 139.9 381.6 146.9 386.7 154.4C391.7 161.8 396.1 169.6 399.3 177.9C402.3 185.6 404.1 193.6 405.8 201.6C409 217.2 411.5 233.5 420 247.4C422.3 251.1 425 254.5 427.8 257.8C430.8 261.3 433.3 264.9 435.3 269.1C439.5 277.9 443 287 446.2 296.2C447 298.5 447.8 300.7 448.5 303C448.8 304 449.9 305 450.8 305.6C451.1 305.8 452.3 306.6 452 305.7C449 296.4 445.5 287.3 441.7 278.4C439.9 274.1 438 269.7 435.5 265.8C433 261.9 429.8 258.6 426.9 254.9C416.7 242.2 413.6 225.6 410.5 210.1C408.9 202.2 407.3 194.2 404.8 186.5C402.2 178.2 398.3 170.3 393.8 162.8C389.1 155.1 383.7 147.8 378.1 140.7C375.3 137.2 372.3 133.8 369.7 130.1C367 126.3 365.7 121.9 364.7 117.4C362.7 108.3 360.5 99.2 357.6 90.3C354.7 81.3 351.2 72.4 347.2 63.8C346.2 61.7 345.2 59.6 344.2 57.5C343.7 56.5 342.8 55.6 341.9 54.9C341.6 54.6 340.2 53.8 340.7 54.8Z" fill="white"/>
</g>
<mask id="mask17_201_707" style="mask-type:luminance" maskUnits="userSpaceOnUse" x="51" y="51" width="398" height="398">
<path d="M250 448.5C359.629 448.5 448.5 359.629 448.5 250C448.5 140.371 359.629 51.5 250 51.5C140.371 51.5 51.5 140.371 51.5 250C51.5 359.629 140.371 448.5 250 448.5Z" fill="white"/>
</mask>
<g mask="url(#mask17_201_707)">
<path d="M371.1 72.2C380.1 84.2 385.8 98.5 387.6 113.4C388.1 117.3 388.2 121.3 388.2 125.2C388.2 129.1 388.3 133.1 389 137C390.4 143.7 393.7 149.7 397.6 155.2C401.6 160.8 406.2 166 410.4 171.5C415.1 177.5 419.1 184 422.3 190.9C425.7 198 428.2 205.4 430 213.1C431.9 221.2 433 229.3 434.6 237.5C437.3 251.6 441.5 266 451.6 276.6C452.8 277.9 454.1 279.1 455.5 280.2C456.2 280.8 457.5 281.9 458.5 281.9C459.4 281.9 458.5 281.2 458.1 280.9C447.2 271.7 442.4 257.1 439.6 243.6C437.9 235.5 436.8 227.3 435.1 219.2C433.5 211.6 431.3 204.1 428.2 196.9C425.2 189.9 421.4 183.3 417 177.1C413 171.4 408.3 166.2 404.1 160.7C400 155.4 396.2 149.7 394.2 143.3C391.8 135.8 392.7 128 392.2 120.2C391.2 105.5 386.3 91.2 378.2 78.9C377.2 77.3 376.1 75.8 375 74.4C374.3 73.5 373.2 72.9 372.2 72.4C371.9 72 370.4 71.4 371.1 72.2Z" fill="white"/>
</g>
<mask id="mask18_201_707" style="mask-type:luminance" maskUnits="userSpaceOnUse" x="51" y="51" width="398" height="398">
<path d="M250 448.5C359.629 448.5 448.5 359.629 448.5 250C448.5 140.371 359.629 51.5 250 51.5C140.371 51.5 51.5 140.371 51.5 250C51.5 359.629 140.371 448.5 250 448.5Z" fill="white"/>
</mask>
<g mask="url(#mask18_201_707)">
<path d="M406.2 103.8C414.1 112.9 419.3 124 421.2 135.9C423.2 148.7 419.9 162.1 424.9 174.4C429 184.4 437.7 191.4 444.1 199.8C447.5 204.4 449.8 209.3 450.7 215C451.7 221.4 451.1 227.9 451.1 234.4C451 241.6 451.8 248.6 454.1 255.4C456.3 262.1 459.6 268.4 464 274C464.7 274.9 466.1 275.6 467.2 275C468.3 274.4 468 273 467.3 272.2C459.7 262.4 455.8 250.4 455.6 238.1C455.5 231.4 456.1 224.8 455.5 218.1C454.9 212 453 206.4 449.7 201.3C444 192.5 435.3 185.9 430.3 176.6C424.2 165.1 427.4 151.6 426 139.2C424.4 125.5 418.6 112.4 409.5 102.1C408.8 101.3 407.4 100.4 406.3 101.1C405.3 101.6 405.6 103 406.2 103.8Z" fill="white"/>
</g>
</g>
<defs>
<clipPath id="clip0_201_707">
<rect width="500" height="500" fill="white"/>
</clipPath>
</defs>
</svg>
