<svg width="500" height="500" viewBox="0 0 500 500" fill="none" xmlns="http://www.w3.org/2000/svg">
<mask id="mask0_201_692" style="mask-type:luminance" maskUnits="userSpaceOnUse" x="51" y="51" width="398" height="398">
<path d="M250 448.5C359.629 448.5 448.5 359.629 448.5 250C448.5 140.371 359.629 51.5 250 51.5C140.371 51.5 51.5 140.371 51.5 250C51.5 359.629 140.371 448.5 250 448.5Z" fill="white"/>
</mask>
<g mask="url(#mask0_201_692)">
<path d="M78 60.4C84.2 87.1 90.2 113.8 96 140.6C101.9 167.7 107.6 194.8 113.2 221.9C118.7 248.7 124 275.6 129.2 302.5C134.3 329.4 139.3 356.3 144.1 383.3C148.9 410.4 153.6 437.5 158.1 464.7C158.7 468.1 159.2 471.4 159.8 474.8C160 475.8 160.6 476.7 161.2 477.6C161.3 477.8 162.6 479.2 162.5 478.8C158.1 451.6 153.5 424.5 148.7 397.4C143.9 370.3 139 343.2 133.8 316.2C128.6 289.2 123.4 262.1 117.9 235.2C112.4 208.3 106.8 181.4 101 154.5C95.2 127.6 89.2 100.7 83 73.9C82.2 70.6 81.5 67.3 80.7 63.9C80.5 62.8 79.7 61.8 79 60.9C78.7 60.6 77.8 59.5 78 60.4Z" fill="white"/>
</g>
<mask id="mask1_201_692" style="mask-type:luminance" maskUnits="userSpaceOnUse" x="51" y="51" width="398" height="398">
<path d="M250 448.5C359.629 448.5 448.5 359.629 448.5 250C448.5 140.371 359.629 51.5 250 51.5C140.371 51.5 51.5 140.371 51.5 250C51.5 359.629 140.371 448.5 250 448.5Z" fill="white"/>
</mask>
<g mask="url(#mask1_201_692)">
<path d="M341 39.5001C341.2 68.9001 340 98.4001 338 127.7C335.9 157.2 333 186.7 329.7 216.1C326.4 245.4 322.8 274.7 319.3 304C315.8 333.3 312.5 362.6 309.8 392C307.1 421.5 305.2 451 304.4 480.6C304.3 484.3 304.2 487.9 304.2 491.6C304.2 492.5 305.4 493.6 306 494.1C306.2 494.3 307.7 495.6 307.7 494.9C308.2 465.4 309.9 436 312.3 406.7C314.8 377.2 318 347.7 321.5 318.3C324.9 289 328.6 259.7 332 230.4C335.4 201.1 338.4 171.8 340.7 142.4C343 112.9 344.5 83.4001 344.6 53.8001C344.6 50.1001 344.6 46.5001 344.6 42.8001C344.6 41.9001 343.4 40.8001 342.8 40.3001C342.5 40.2001 341 38.9001 341 39.5001Z" fill="white"/>
</g>
<mask id="mask2_201_692" style="mask-type:luminance" maskUnits="userSpaceOnUse" x="51" y="51" width="398" height="398">
<path d="M250 448.5C359.629 448.5 448.5 359.629 448.5 250C448.5 140.371 359.629 51.5 250 51.5C140.371 51.5 51.5 140.371 51.5 250C51.5 359.629 140.371 448.5 250 448.5Z" fill="white"/>
</mask>
<g mask="url(#mask2_201_692)">
<path d="M430.9 97.1999C410.5 113 389.8 128.5 368.9 143.7C348 158.9 326.9 173.8 305.6 188.4C293.7 196.6 281.6 204.7 269.6 212.7C269.2 212.9 271.3 212.9 271.4 212.9C272.3 212.8 273.6 212.8 274.4 212.2C295.9 197.9 317.3 183.4 338.4 168.5C359.5 153.6 380.4 138.4 401.1 123C412.7 114.3 424.2 105.5 435.7 96.6999C436.1 96.3999 434 96.4999 433.9 96.4999C433.1 96.5999 431.6 96.5999 430.9 97.1999Z" fill="white"/>
</g>
<mask id="mask3_201_692" style="mask-type:luminance" maskUnits="userSpaceOnUse" x="51" y="51" width="398" height="398">
<path d="M250 448.5C359.629 448.5 448.5 359.629 448.5 250C448.5 140.371 359.629 51.5 250 51.5C140.371 51.5 51.5 140.371 51.5 250C51.5 359.629 140.371 448.5 250 448.5Z" fill="white"/>
</mask>
<g mask="url(#mask3_201_692)">
<path d="M431.7 136C410.1 151.7 388.7 167.5 367.2 183.4C345.9 199.2 324.7 215.1 303.6 231.1C291.6 240.1 279.7 249.2 267.8 258.3C266.2 259.5 269.4 263.4 271 262.2C292.2 246 313.5 229.9 334.8 213.9C356 198 377.3 182.2 398.6 166.5C410.7 157.6 422.8 148.8 434.9 139.9C436.4 138.8 433.3 134.9 431.7 136Z" fill="white"/>
</g>
<mask id="mask4_201_692" style="mask-type:luminance" maskUnits="userSpaceOnUse" x="51" y="51" width="398" height="398">
<path d="M250 448.5C359.629 448.5 448.5 359.629 448.5 250C448.5 140.371 359.629 51.5 250 51.5C140.371 51.5 51.5 140.371 51.5 250C51.5 359.629 140.371 448.5 250 448.5Z" fill="white"/>
</mask>
<g mask="url(#mask4_201_692)">
<path d="M428.4 162.5C406.1 179 383.9 195.7 361.8 212.5C339.7 229.3 317.7 246.3 295.9 263.4C283.7 273 271.4 282.6 259.3 292.3C258.8 292.7 257.9 293.5 259 293.7C259.9 293.9 261.6 293.1 262.2 292.6C283.9 275.3 305.8 258.2 327.7 241.2C349.7 224.2 371.7 207.4 393.9 190.7C406.3 181.3 418.8 172 431.3 162.8C431.8 162.4 432.6 161.6 431.6 161.4C430.7 161.2 429.1 162 428.4 162.5Z" fill="white"/>
</g>
<mask id="mask5_201_692" style="mask-type:luminance" maskUnits="userSpaceOnUse" x="51" y="51" width="398" height="398">
<path d="M250 448.5C359.629 448.5 448.5 359.629 448.5 250C448.5 140.371 359.629 51.5 250 51.5C140.371 51.5 51.5 140.371 51.5 250C51.5 359.629 140.371 448.5 250 448.5Z" fill="white"/>
</mask>
<g mask="url(#mask5_201_692)">
<path d="M432.3 194.1C409 209.6 386.1 225.7 363.8 242.6C341.5 259.4 319.6 276.9 298.4 295.1C286.5 305.3 274.7 315.7 263.1 326.3C261.2 328.1 265.3 330.8 267.1 329.2C287.6 310.4 308.7 292.3 330.4 274.8C352 257.3 374.2 240.5 396.8 224.4C409.6 215.3 422.5 206.4 435.6 197.7C437.8 196 434.2 192.8 432.3 194.1Z" fill="white"/>
</g>
<mask id="mask6_201_692" style="mask-type:luminance" maskUnits="userSpaceOnUse" x="51" y="51" width="398" height="398">
<path d="M250 448.5C359.629 448.5 448.5 359.629 448.5 250C448.5 140.371 359.629 51.5 250 51.5C140.371 51.5 51.5 140.371 51.5 250C51.5 359.629 140.371 448.5 250 448.5Z" fill="white"/>
</mask>
<g mask="url(#mask6_201_692)">
<path d="M474.5 202.5C458.6 212.2 442.8 221.9 427 231.7C411.2 241.5 395.4 251.4 379.7 261.3C363.9 271.3 348.1 281.3 332.4 291.3C316.7 301.3 301.1 311.4 285.5 321.5C269.9 331.6 254.4 341.8 238.9 352.1C237 353.4 235.1 354.6 233.2 355.9C230.8 357.5 233.4 361.8 235.8 360.2C251.3 349.9 266.8 339.7 282.4 329.6C298 319.4 313.6 309.4 329.2 299.3C344.9 289.2 360.7 279.2 376.5 269.2C392.2 259.3 408 249.4 423.8 239.6C439.6 229.8 455.4 220 471.3 210.3C473.3 209.1 475.2 207.9 477.2 206.7C479.6 205.3 477 201 474.5 202.5Z" fill="white"/>
</g>
<mask id="mask7_201_692" style="mask-type:luminance" maskUnits="userSpaceOnUse" x="51" y="51" width="398" height="398">
<path d="M250 448.5C359.629 448.5 448.5 359.629 448.5 250C448.5 140.371 359.629 51.5 250 51.5C140.371 51.5 51.5 140.371 51.5 250C51.5 359.629 140.371 448.5 250 448.5Z" fill="white"/>
</mask>
<g mask="url(#mask7_201_692)">
<path d="M486.4 232.7C470.8 244 455.1 255.2 439.4 266.4C423.7 277.6 407.9 288.6 392 299.5C376.2 310.4 360.3 321.2 344.3 331.9C328.3 342.6 312.2 353.3 296.1 363.8C280 374.3 263.9 384.7 247.7 395C245.7 396.3 243.6 397.6 241.6 398.9C240.9 399.4 241 399.6 241.8 399.3C242.9 399 244 398.4 245 397.8C261.3 387.4 277.6 377 293.8 366.4C309.9 355.9 326 345.3 342 334.5C358.1 323.7 374.1 312.9 390.1 301.9C406 291 421.8 280 437.5 268.9C453.3 257.8 468.9 246.6 484.6 235.3C486.6 233.9 488.5 232.5 490.5 231C491.3 230.4 489.6 230.9 489.5 231C488.4 231.5 487.4 232 486.4 232.7Z" fill="white"/>
</g>
<mask id="mask8_201_692" style="mask-type:luminance" maskUnits="userSpaceOnUse" x="51" y="51" width="398" height="398">
<path d="M250 448.5C359.629 448.5 448.5 359.629 448.5 250C448.5 140.371 359.629 51.5 250 51.5C140.371 51.5 51.5 140.371 51.5 250C51.5 359.629 140.371 448.5 250 448.5Z" fill="white"/>
</mask>
<g mask="url(#mask8_201_692)">
<path d="M452.3 280.9C438.5 290.5 424.7 300 410.9 309.5C397.1 318.9 383.3 328.3 369.4 337.6C355.5 346.9 341.5 356.2 327.4 365.4C313.3 374.6 299.3 383.7 285.2 392.8C271.2 401.8 257.1 410.8 242.9 419.7C241.1 420.8 239.3 422 237.5 423.1C235.6 424.3 239 427.9 240.6 426.9C254.8 418 269 409 283.1 399.9C297.2 390.9 311.2 381.8 325.1 372.7C339.1 363.5 353.1 354.3 367.1 344.9C381.1 335.6 395 326.2 408.8 316.8C422.6 307.4 436.4 297.9 450.1 288.4C451.8 287.2 453.6 286 455.3 284.8C457.3 283.4 453.9 279.8 452.3 280.9Z" fill="white"/>
</g>
<mask id="mask9_201_692" style="mask-type:luminance" maskUnits="userSpaceOnUse" x="51" y="51" width="398" height="398">
<path d="M250 448.5C359.629 448.5 448.5 359.629 448.5 250C448.5 140.371 359.629 51.5 250 51.5C140.371 51.5 51.5 140.371 51.5 250C51.5 359.629 140.371 448.5 250 448.5Z" fill="white"/>
</mask>
<g mask="url(#mask9_201_692)">
<path d="M478.1 301.1C450.9 317.8 423.5 334.2 395.8 350.2C368.3 366.1 340.6 381.7 312.8 397C297 405.6 281.2 414.1 265.3 422.6C264.2 423.2 264.7 424.9 265.3 425.6C266.2 426.6 267.5 426.8 268.6 426.2C296.8 411.3 324.9 396 352.7 380.4C380.4 364.9 407.9 349 435.2 332.7C450.7 323.5 466.1 314.2 481.4 304.8C483.8 303.3 480.3 299.7 478.1 301.1Z" fill="white"/>
</g>
<mask id="mask10_201_692" style="mask-type:luminance" maskUnits="userSpaceOnUse" x="51" y="51" width="398" height="398">
<path d="M250 448.5C359.629 448.5 448.5 359.629 448.5 250C448.5 140.371 359.629 51.5 250 51.5C140.371 51.5 51.5 140.371 51.5 250C51.5 359.629 140.371 448.5 250 448.5Z" fill="white"/>
</mask>
<g mask="url(#mask10_201_692)">
<path d="M430.3 354.6C409 366.2 387.7 377.8 366.3 389.4C344.9 401 323.7 412.6 302.3 424.2C290.3 430.7 278.4 437.2 266.4 443.8C265.6 444.2 264.9 445.1 265.7 445.9C266.5 446.7 268.3 446.6 269.2 446.1C290.5 434.5 311.8 422.9 333.2 411.3C354.6 399.7 375.8 388.1 397.2 376.5C409.2 370 421.1 363.5 433.1 356.9C433.9 356.5 434.6 355.6 433.8 354.8C433 354 431.2 354.1 430.3 354.6Z" fill="white"/>
</g>
<mask id="mask11_201_692" style="mask-type:luminance" maskUnits="userSpaceOnUse" x="51" y="51" width="398" height="398">
<path d="M250 448.5C359.629 448.5 448.5 359.629 448.5 250C448.5 140.371 359.629 51.5 250 51.5C140.371 51.5 51.5 140.371 51.5 250C51.5 359.629 140.371 448.5 250 448.5Z" fill="white"/>
</mask>
<g mask="url(#mask11_201_692)">
<path d="M456.8 388.4C429.1 398.9 401.4 409.4 373.6 419.9C345.9 430.4 318.2 440.9 290.4 451.4C274.8 457.3 259.3 463.2 243.7 469.1C241.7 469.9 243.8 474.4 245.9 473.6C273.6 463.1 301.3 452.6 329.1 442.1C356.8 431.6 384.5 421.1 412.3 410.6C427.9 404.7 443.4 398.8 459 392.9C461 392.2 458.9 387.7 456.8 388.4Z" fill="white"/>
</g>
<mask id="mask12_201_692" style="mask-type:luminance" maskUnits="userSpaceOnUse" x="51" y="51" width="398" height="398">
<path d="M250 448.5C359.629 448.5 448.5 359.629 448.5 250C448.5 140.371 359.629 51.5 250 51.5C140.371 51.5 51.5 140.371 51.5 250C51.5 359.629 140.371 448.5 250 448.5Z" fill="white"/>
</mask>
<g mask="url(#mask12_201_692)">
<path d="M280.2 62.6001C283.4 114.2 285.8 165.8 287.3 217.4C288.8 269 289.5 320.7 289.3 372.4C289.2 401.4 288.8 430.4 288.2 459.4C288.2 461 292.3 463.6 292.3 461.2C293.4 409.6 293.7 357.9 293.1 306.2C292.5 254.5 291.1 202.9 288.8 151.3C287.5 122.3 286 93.4001 284.2 64.4001C284.3 62.9001 280.1 60.3001 280.2 62.6001Z" fill="white"/>
</g>
<mask id="mask13_201_692" style="mask-type:luminance" maskUnits="userSpaceOnUse" x="51" y="51" width="398" height="398">
<path d="M250 448.5C359.629 448.5 448.5 359.629 448.5 250C448.5 140.371 359.629 51.5 250 51.5C140.371 51.5 51.5 140.371 51.5 250C51.5 359.629 140.371 448.5 250 448.5Z" fill="white"/>
</mask>
<g mask="url(#mask13_201_692)">
<path d="M234.4 76.9C230.3 124.9 227.8 173 226.9 221.1C226 269.2 226.8 317.4 229.2 365.5C230.5 392.6 232.4 419.7 234.8 446.7C235 448.7 239.7 450.2 239.5 448C235.3 400 232.7 351.9 231.8 303.8C230.8 255.7 231.5 207.5 233.8 159.4C235.1 132.3 236.9 105.2 239.2 78.2C239.2 76.3 234.6 74.6 234.4 76.9Z" fill="white"/>
</g>
<mask id="mask14_201_692" style="mask-type:luminance" maskUnits="userSpaceOnUse" x="51" y="51" width="398" height="398">
<path d="M250 448.5C359.629 448.5 448.5 359.629 448.5 250C448.5 140.371 359.629 51.5 250 51.5C140.371 51.5 51.5 140.371 51.5 250C51.5 359.629 140.371 448.5 250 448.5Z" fill="white"/>
</mask>
<g mask="url(#mask14_201_692)">
<path d="M150.9 118.7C183.2 116 215.6 113.4 247.9 110.7C280.2 108 312.6 105.4 344.9 102.7C363.1 101.2 381.4 99.7 399.6 98.2C400.8 98.1 400.9 96.4 400.6 95.5C400.2 94.3 399.1 93.5 397.9 93.6C365.6 96.3 333.2 98.9 300.9 101.6C268.6 104.3 236.2 106.9 203.9 109.6C185.7 111.1 167.4 112.6 149.2 114.1C148 114.2 147.9 115.9 148.2 116.8C148.6 118 149.6 118.8 150.9 118.7Z" fill="white"/>
</g>
<mask id="mask15_201_692" style="mask-type:luminance" maskUnits="userSpaceOnUse" x="51" y="51" width="398" height="398">
<path d="M250 448.5C359.629 448.5 448.5 359.629 448.5 250C448.5 140.371 359.629 51.5 250 51.5C140.371 51.5 51.5 140.371 51.5 250C51.5 359.629 140.371 448.5 250 448.5Z" fill="white"/>
</mask>
<g mask="url(#mask15_201_692)">
<path d="M110.4 129.5C148.9 127.9 187.4 126.1 225.9 124C264.2 121.9 302.5 119.5 340.7 116.8C362.2 115.3 383.6 113.7 405.1 112C406.3 111.9 405.7 110.6 405.2 110.1C404.5 109.2 403.2 108.6 402.1 108.7C363.7 111.7 325.2 114.4 286.7 116.9C248.4 119.3 210.1 121.5 171.8 123.4C150.3 124.4 128.8 125.4 107.3 126.3C106.1 126.3 106.7 127.7 107.2 128.2C108 129 109.2 129.6 110.4 129.5Z" fill="white"/>
</g>
<mask id="mask16_201_692" style="mask-type:luminance" maskUnits="userSpaceOnUse" x="51" y="51" width="398" height="398">
<path d="M250 448.5C359.629 448.5 448.5 359.629 448.5 250C448.5 140.371 359.629 51.5 250 51.5C140.371 51.5 51.5 140.371 51.5 250C51.5 359.629 140.371 448.5 250 448.5Z" fill="white"/>
</mask>
<g mask="url(#mask16_201_692)">
<path d="M170.1 90.2C200.5 88.2 230.9 86.3 261.2 84.6C291.6 82.9 322 81.4 352.4 80C369.5 79.2 386.6 78.5 403.8 77.8C404.9 77.8 403.9 75.9 403.6 75.6C403 74.8 402 73.8 400.9 73.9C370.5 75.1 340.1 76.4 309.7 77.9C279.3 79.4 248.9 81.1 218.5 83C201.4 84 184.3 85.1 167.2 86.3C166.1 86.4 167.1 88.2 167.4 88.5C168 89.2 169.1 90.2 170.1 90.2Z" fill="white"/>
</g>
<mask id="mask17_201_692" style="mask-type:luminance" maskUnits="userSpaceOnUse" x="51" y="51" width="398" height="398">
<path d="M250 448.5C359.629 448.5 448.5 359.629 448.5 250C448.5 140.371 359.629 51.5 250 51.5C140.371 51.5 51.5 140.371 51.5 250C51.5 359.629 140.371 448.5 250 448.5Z" fill="white"/>
</mask>
<g mask="url(#mask17_201_692)">
<path d="M8.40001 163.7C60.6 156.4 112.9 150.1 165.4 144.8C217.8 139.5 270.4 135.1 323 131.7C352.5 129.8 382 128.2 411.5 126.9C412.3 126.9 410.6 125.4 410.5 125.3C409.8 124.7 408.7 123.9 407.7 123.9C355 126.2 302.4 129.5 249.9 133.8C197.4 138.1 144.9 143.3 92.6 149.5C63.3 153 33.9 156.7 4.70001 160.8C3.90001 160.9 5.60001 162.3 5.70001 162.4C6.20001 162.8 7.50001 163.8 8.40001 163.7Z" fill="white"/>
</g>
<mask id="mask18_201_692" style="mask-type:luminance" maskUnits="userSpaceOnUse" x="51" y="51" width="398" height="398">
<path d="M250 448.5C359.629 448.5 448.5 359.629 448.5 250C448.5 140.371 359.629 51.5 250 51.5C140.371 51.5 51.5 140.371 51.5 250C51.5 359.629 140.371 448.5 250 448.5Z" fill="white"/>
</mask>
<g mask="url(#mask18_201_692)">
<path d="M130.9 87.2001C134.9 134.5 139.6 181.7 144.9 228.8C150.2 275.7 156.2 322.5 162.7 369.3C166.4 395.5 170.3 421.7 174.4 447.8C174.7 449.8 179.7 449.2 179.4 447.2C172.1 400.3 165.3 353.3 159.3 306.3C153.3 259.5 147.9 212.6 143.2 165.6C140.5 139.3 138.1 112.9 135.9 86.5001C135.7 84.6001 130.7 85.1001 130.9 87.2001Z" fill="white"/>
</g>
<mask id="mask19_201_692" style="mask-type:luminance" maskUnits="userSpaceOnUse" x="51" y="51" width="398" height="398">
<path d="M250 448.5C359.629 448.5 448.5 359.629 448.5 250C448.5 140.371 359.629 51.5 250 51.5C140.371 51.5 51.5 140.371 51.5 250C51.5 359.629 140.371 448.5 250 448.5Z" fill="white"/>
</mask>
<g mask="url(#mask19_201_692)">
<path d="M46.5 202.5C72.4 195.1 98.5 188.5 124.8 182.8C151 177.1 177.3 172.3 203.8 168.3C218.8 166.1 233.8 164.1 248.9 162.4C250 162.3 250.2 161.2 249.6 160.4C248.8 159.4 247.4 159.1 246.3 159.2C219.5 162.2 192.9 166.1 166.4 170.8C140.1 175.5 113.9 181.1 87.9 187.5C73.2 191.1 58.5 195.1 44 199.2C43 199.5 42.6 200.3 43.3 201.2C43.8 202.2 45.4 202.8 46.5 202.5Z" fill="white"/>
</g>
<mask id="mask20_201_692" style="mask-type:luminance" maskUnits="userSpaceOnUse" x="51" y="51" width="398" height="398">
<path d="M250 448.5C359.629 448.5 448.5 359.629 448.5 250C448.5 140.371 359.629 51.5 250 51.5C140.371 51.5 51.5 140.371 51.5 250C51.5 359.629 140.371 448.5 250 448.5Z" fill="white"/>
</mask>
<g mask="url(#mask20_201_692)">
<path d="M26.5 231.8C57.4 225.8 88.3 219.8 119.3 213.8C150.3 207.8 181.1 201.8 212.1 195.8C229.4 192.4 246.8 189.1 264.1 185.7C265.7 185.4 263.4 181.1 262 181.3C231.1 187.3 200.2 193.3 169.2 199.3C138.3 205.3 107.4 211.3 76.4 217.3C59.1 220.7 41.7 224 24.4 227.4C22.8 227.7 25.1 232 26.5 231.8Z" fill="white"/>
</g>
<mask id="mask21_201_692" style="mask-type:luminance" maskUnits="userSpaceOnUse" x="51" y="51" width="398" height="398">
<path d="M250 448.5C359.629 448.5 448.5 359.629 448.5 250C448.5 140.371 359.629 51.5 250 51.5C140.371 51.5 51.5 140.371 51.5 250C51.5 359.629 140.371 448.5 250 448.5Z" fill="white"/>
</mask>
<g mask="url(#mask21_201_692)">
<path d="M55.7 258.7C80.4 251.9 105.4 245.7 130.4 240.2C155.5 234.7 180.8 229.8 206.1 225.6C220.3 223.2 234.6 221.1 248.9 219.1C250 219 251.3 218.1 251.1 216.8C250.9 215.6 249.5 215 248.4 215.2C222.8 218.7 197.4 222.8 172 227.6C146.5 232.4 121.2 237.9 96 244.1C81.9 247.5 67.8 251.2 53.8 255C52.7 255.3 51.8 256.5 52.4 257.6C53.1 258.9 54.6 259 55.7 258.7Z" fill="white"/>
</g>
<mask id="mask22_201_692" style="mask-type:luminance" maskUnits="userSpaceOnUse" x="51" y="51" width="398" height="398">
<path d="M250 448.5C359.629 448.5 448.5 359.629 448.5 250C448.5 140.371 359.629 51.5 250 51.5C140.371 51.5 51.5 140.371 51.5 250C51.5 359.629 140.371 448.5 250 448.5Z" fill="white"/>
</mask>
<g mask="url(#mask22_201_692)">
<path d="M64.8 280.1C85.8 275.7 106.9 271.7 128.1 268.2C149.3 264.6 170.5 261.5 191.8 258.7C203.8 257.1 215.9 255.7 227.9 254.4C228.8 254.3 227.3 252.7 227.2 252.6C226.6 252 225.5 250.9 224.5 251C203.1 253.3 181.8 256 160.6 259.1C139.3 262.2 118.2 265.7 97 269.7C85.1 271.9 73.2 274.3 61.3 276.7C60.5 276.9 61.8 278.3 62 278.5C62.7 279 64 280.3 64.8 280.1Z" fill="white"/>
</g>
<mask id="mask23_201_692" style="mask-type:luminance" maskUnits="userSpaceOnUse" x="51" y="51" width="398" height="398">
<path d="M250 448.5C359.629 448.5 448.5 359.629 448.5 250C448.5 140.371 359.629 51.5 250 51.5C140.371 51.5 51.5 140.371 51.5 250C51.5 359.629 140.371 448.5 250 448.5Z" fill="white"/>
</mask>
<g mask="url(#mask23_201_692)">
<path d="M55.2 173.6C57.9 190.6 60.7 207.6 63.6 224.6C66.5 241.6 69.6 258.6 72.7 275.5C75.8 292.4 79.1 309.2 82.4 326C85.8 342.9 89.2 359.8 92.8 376.6C96.4 393.5 100 410.3 103.8 427.1C104.3 429.2 104.7 431.3 105.2 433.3C105.7 435.4 110.5 435.8 109.9 433C106.1 416.3 102.4 399.5 98.8 382.8C95.2 366 91.7 349.2 88.4 332.4C85 315.6 81.8 298.7 78.6 281.9C75.4 265 72.4 248.2 69.5 231.3C66.6 214.4 63.7 197.5 61 180.6C60.7 178.5 60.3 176.4 60 174.3C59.8 173.1 58.7 172.3 57.5 172.1C56.7 172 55 172.4 55.2 173.6Z" fill="white"/>
</g>
<mask id="mask24_201_692" style="mask-type:luminance" maskUnits="userSpaceOnUse" x="51" y="51" width="398" height="398">
<path d="M250 448.5C359.629 448.5 448.5 359.629 448.5 250C448.5 140.371 359.629 51.5 250 51.5C140.371 51.5 51.5 140.371 51.5 250C51.5 359.629 140.371 448.5 250 448.5Z" fill="white"/>
</mask>
<g mask="url(#mask24_201_692)">
<path d="M98.2 237.3C103 272.5 108.2 307.7 113.7 342.8C119.2 377.7 124.9 412.6 131.1 447.4C134.5 467 138.1 486.6 141.7 506.1C141.9 507.3 143 508.5 144.3 508.5C145.5 508.5 146.3 507.3 146.1 506.1C139.6 471.2 133.4 436.2 127.6 401.1C121.8 366.2 116.3 331.3 111.1 296.3C108.2 276.6 105.4 256.9 102.7 237.2C102.2 234.5 97.8 234.1 98.2 237.3Z" fill="white"/>
</g>
<mask id="mask25_201_692" style="mask-type:luminance" maskUnits="userSpaceOnUse" x="51" y="51" width="398" height="398">
<path d="M250 448.5C359.629 448.5 448.5 359.629 448.5 250C448.5 140.371 359.629 51.5 250 51.5C140.371 51.5 51.5 140.371 51.5 250C51.5 359.629 140.371 448.5 250 448.5Z" fill="white"/>
</mask>
<g mask="url(#mask25_201_692)">
<path d="M56.8 323.7C76.6 319.8 96.4 316.2 116.3 312.8C136.1 309.4 155.9 306.2 175.7 303.2C186.9 301.5 198.1 299.9 209.3 298.4C210.4 298.2 211.5 297.5 212.4 296.8C212.7 296.6 213.8 295.4 212.7 295.6C192.7 298.3 172.8 301.3 152.9 304.5C133.1 307.7 113.3 311.1 93.6 314.7C82.5 316.7 71.4 318.8 60.2 321C59.1 321.2 58 321.8 57.1 322.6C56.9 322.7 55.8 323.9 56.8 323.7Z" fill="white"/>
</g>
<mask id="mask26_201_692" style="mask-type:luminance" maskUnits="userSpaceOnUse" x="51" y="51" width="398" height="398">
<path d="M250 448.5C359.629 448.5 448.5 359.629 448.5 250C448.5 140.371 359.629 51.5 250 51.5C140.371 51.5 51.5 140.371 51.5 250C51.5 359.629 140.371 448.5 250 448.5Z" fill="white"/>
</mask>
<g mask="url(#mask26_201_692)">
<path d="M133.3 373.9C160.7 367.3 188.2 361.3 215.9 355.9C223.7 354.4 231.6 352.9 239.4 351.4C240.4 351.2 241.8 350.6 241.7 349.3C241.6 348.1 240 347.7 239 347.9C210.9 353.1 183 358.8 155.2 365.2C147.3 367 139.5 368.8 131.6 370.7C130.6 370.9 129.6 372 130.1 373.1C130.6 374.3 132.3 374.2 133.3 373.9Z" fill="white"/>
</g>
<mask id="mask27_201_692" style="mask-type:luminance" maskUnits="userSpaceOnUse" x="51" y="51" width="398" height="398">
<path d="M250 448.5C359.629 448.5 448.5 359.629 448.5 250C448.5 140.371 359.629 51.5 250 51.5C140.371 51.5 51.5 140.371 51.5 250C51.5 359.629 140.371 448.5 250 448.5Z" fill="white"/>
</mask>
<g mask="url(#mask27_201_692)">
<path d="M126.7 388.8C143.3 385.2 160 381.9 176.8 379C193.6 376.1 210.4 373.4 227.3 371.2C236.9 369.9 246.5 368.7 256.1 367.7C256.4 367.7 255.1 365.6 255 365.4C254.6 364.9 253.8 363.6 253.1 363.7C236.2 365.6 219.3 367.8 202.5 370.4C185.7 373 168.9 375.9 152.2 379.1C142.7 380.9 133.3 382.9 123.8 384.9C123.4 385 124.8 387 124.9 387.2C125.1 387.5 126.1 388.9 126.7 388.8Z" fill="white"/>
</g>
<mask id="mask28_201_692" style="mask-type:luminance" maskUnits="userSpaceOnUse" x="51" y="51" width="398" height="398">
<path d="M250 448.5C359.629 448.5 448.5 359.629 448.5 250C448.5 140.371 359.629 51.5 250 51.5C140.371 51.5 51.5 140.371 51.5 250C51.5 359.629 140.371 448.5 250 448.5Z" fill="white"/>
</mask>
<g mask="url(#mask28_201_692)">
<path d="M137.6 411.7C169.1 402.9 200.9 395.1 232.9 388.4C241.9 386.5 250.8 384.7 259.8 383C260.6 382.8 259.3 381.4 259.1 381.2C258.6 380.7 257.4 379.3 256.5 379.5C224.4 385.7 192.5 392.9 160.8 401.1C151.9 403.4 143.1 405.8 134.3 408.2C133.5 408.4 134.8 409.8 135 410C135.4 410.4 136.8 411.9 137.6 411.7Z" fill="white"/>
</g>
</svg>
