<svg width="500" height="500" viewBox="0 0 500 500" fill="none" xmlns="http://www.w3.org/2000/svg">
<mask id="mask0_201_691" style="mask-type:luminance" maskUnits="userSpaceOnUse" x="51" y="51" width="398" height="398">
<path d="M250 448.5C359.629 448.5 448.5 359.629 448.5 250C448.5 140.371 359.629 51.5 250 51.5C140.371 51.5 51.5 140.371 51.5 250C51.5 359.629 140.371 448.5 250 448.5Z" fill="white"/>
</mask>
<g mask="url(#mask0_201_691)">
<path d="M33.9998 188.3C33.3998 177.7 33.0998 166.8 35.8998 156.4C37.1998 151.6 39.2998 146.9 42.4998 143C43.3998 141.9 46.9998 137.3 48.3998 138.5C49.1998 139.2 49.5998 141.8 49.8998 142.8C50.3998 144.4 50.8998 146 51.2998 147.6C53.2998 155 54.5998 162.6 55.1998 170.2C55.3998 172.2 58.7998 174.5 59.2998 171.5C61.0998 161.5 62.9998 151.1 68.3998 142.2C69.6998 140.1 71.1998 138.1 72.9998 136.3C74.5998 134.7 77.3998 131.6 79.8998 131.6C82.1998 131.6 82.1998 136.8 82.4998 138.4C82.9998 141.8 83.4998 145.1 83.9998 148.5C84.9998 156.2 85.7998 163.9 86.2998 171.6C86.3998 173.6 89.9998 175.9 90.3998 172.9C91.8998 162.2 93.6998 150.9 99.3998 141.5C101.9 137.3 106.2 131.9 111.1 130.3C114.7 129.2 114.9 133.7 115.4 136.1C116.2 139.9 116.9 143.7 117.5 147.5C118.8 155.8 119.7 164.2 120.1 172.5C120.2 174.6 123.4 176.7 124.2 173.8C126 166.6 128.5 159.7 131.6 152.9C133.2 149.5 134.9 146.1 136.8 142.8C138.3 140.2 140.1 136.6 143.1 135.5C146.4 134.3 147.7 139.4 148.6 141.6C150.1 145.1 151.4 148.7 152.7 152.3C155.2 159.6 157.3 167 159 174.5C159.3 175.9 162.1 177.9 162.8 175.7C165.1 168.3 167.9 161.1 171.1 154C172.7 150.5 174.4 147 176.2 143.6C177.5 141.2 178.9 138 181.6 136.9C187.6 134.6 190.8 146 192.1 149.7C194.8 156.9 196.7 164.4 198 172C198.3 174 201.3 176.3 202.1 173.3C204.4 164.6 207.1 155.9 210.3 147.5C212.4 141.8 214.8 132.7 221.7 131.1C220.9 130.6 220.1 130.1 219.3 129.6C225.9 141.1 230.3 153.7 232.2 166.9C232.3 167.9 232.9 169 233.9 169.5C234.7 169.9 235.8 169.7 236.1 168.8C238.5 162.5 241.3 156.4 244.6 150.6C246.2 147.7 247.9 144.9 249.8 142.2C250.9 140.6 253.2 137.3 255.6 138.4C257.6 139.3 258.2 142.7 258.7 144.5C259.8 147.9 260.8 151.4 261.9 154.8C264.1 162 266.3 169.1 268.5 176.3C269.1 178.2 271.8 179.5 272.5 177C277 161 284 145.7 293.1 131.8C292 131.8 291 131.8 289.9 131.8C297.7 142.8 302.6 155.8 304.2 169.2C304.4 171.2 307.5 173.4 308.3 170.5C311.7 157.7 315.6 143.9 326.5 135.5C325.4 135.2 324.3 134.8 323.2 134.5C327.8 144 330.8 154.2 332.1 164.7C332.2 165.7 332.8 166.8 333.8 167.3C334.6 167.6 335.7 167.5 336 166.6C340.1 154.1 346.8 142.8 355.7 133.1C354.7 132.9 353.8 132.8 352.8 132.6C360.1 143.1 364.3 155.4 365.2 168.1C365.3 169.7 368 172.3 369.1 169.9C371.4 164.8 373.6 159.7 375.9 154.6C377 152.1 378.1 149.6 379.2 147.1C380.1 145 380.9 142.1 382.6 140.6C386.3 137.2 389.1 144.5 390 147C391.8 152.1 393.2 157.4 394.3 162.7C394.6 164.1 397.4 166.1 398.1 163.9C400.6 155.9 404.3 147.7 409.6 141C410 140.6 410.9 139.2 411.6 139.2C412.1 139.2 411.7 139.1 412 139.6C412.2 140 412.2 140.7 412.3 141.2C412.8 143.4 413.2 145.7 413.7 147.9C414.7 152.5 415.6 157.1 416.6 161.7C416.9 163.3 419.4 164.8 420.4 162.9C422.5 158.9 424.9 155.1 427.6 151.5C428.9 149.7 430.3 148 431.8 146.3C433.2 144.7 434.6 143 436.5 142.1C438.4 141.2 439.6 141.8 440.6 143.6C441.7 145.6 442.6 147.6 443.4 149.7C445 154.1 446 158.6 446.4 163.2C446.5 164.4 447.3 165.7 448.6 165.9C449.8 166.1 450.6 165 450.5 163.9C450 158.2 448.8 152.7 446.7 147.5C445.1 143.5 442.9 137 437.6 136.8C432.6 136.6 428.6 142.4 425.9 145.9C422.4 150.3 419.4 155 416.8 160C418.1 160.4 419.3 160.8 420.6 161.2C419.4 155.4 418.2 149.6 417 143.8C416.3 140.4 415.3 133 410 134.6C407.8 135.3 406.4 137.4 405.1 139.2C403.6 141.4 402.2 143.6 400.9 145.9C398.3 150.7 396.2 155.7 394.5 160.8C395.8 161.2 397 161.6 398.3 162C397.1 155.7 395.4 149.4 393 143.5C391.4 139.6 387.9 134.2 383 134.9C380.6 135.2 379 137 377.9 139C376.3 141.9 375.1 145.1 373.8 148.1C371 154.3 368.3 160.5 365.5 166.7C366.8 167.3 368.1 167.9 369.4 168.5C368.4 154.4 363.6 141 355.6 129.4C355 128.5 353.5 128.1 352.7 128.9C343.6 138.7 336.6 150.5 332.5 163.2C333.8 163.8 335.1 164.4 336.4 165C335 153.6 331.8 142.6 326.8 132.3C326.2 131 324.7 130.4 323.5 131.3C312 140.2 307.9 154.9 304.4 168.2C305.8 168.6 307.1 169.1 308.5 169.5C306.8 154.7 301.4 140.7 292.8 128.5C291.9 127.3 290.4 127.3 289.6 128.5C280.3 142.8 273.3 158.4 268.7 174.8C270 175 271.3 175.3 272.7 175.5C270.2 167.3 267.7 159.1 265.2 150.9C264 147.1 263.1 143.1 261.6 139.5C260.6 137.1 258.9 134.6 256.4 133.6C249.8 131.1 245.4 140.5 242.9 144.9C238.9 151.5 235.6 158.5 232.9 165.7C234.2 166.3 235.5 166.9 236.8 167.5C234.8 153.5 230.3 140 223.2 127.7C222.8 127 221.8 126 220.8 126.2C213 128 210.1 136.2 207.6 142.9C204.1 152.2 201.1 161.7 198.5 171.3C199.9 171.7 201.2 172.2 202.6 172.6C201.5 165.8 199.9 159.2 197.8 152.7C195.9 147 194 140.5 190.1 135.8C186.8 131.8 181.5 130.2 177.3 134C175.3 135.8 174 138.5 172.8 140.9C171.2 144 169.7 147.1 168.2 150.3C164.9 157.6 162 165.1 159.6 172.7C160.9 173.1 162.1 173.5 163.4 173.9C161.9 167.1 160.1 160.5 157.9 153.9C156.8 150.6 155.6 147.2 154.3 144C153.1 141 152 137.8 150.4 135C149.1 132.8 147.2 130.8 144.5 130.5C141.8 130.2 139.5 131.8 137.7 133.6C135.6 135.8 134.1 138.7 132.6 141.4C131 144.3 129.5 147.2 128.2 150.2C125 157.1 122.5 164.4 120.6 171.8C122 172.2 123.3 172.7 124.7 173.1C124.3 164.4 123.4 155.8 122 147.3C121.3 143.1 120.5 138.9 119.6 134.7C118.9 131.7 118.2 128.3 115.6 126.4C110.2 122.4 103.1 129.4 99.7998 133.4C95.7998 138.2 93.1998 143.9 91.2998 149.8C89.0998 156.7 87.8998 163.8 86.8998 171C88.2998 171.4 89.5998 171.9 90.9998 172.3C90.4998 164.3 89.6998 156.3 88.5998 148.4C88.0998 144.6 87.4998 140.7 86.7998 136.9C86.2998 133.9 85.8998 130.5 83.4998 128.4C78.5998 123.9 72.1998 130.4 68.9998 134.1C65.1998 138.6 62.4998 144 60.5998 149.5C58.3998 156 56.9998 162.8 55.7998 169.6C57.1998 170 58.4998 170.5 59.8998 170.9C59.2998 163.1 57.9998 155.3 55.9998 147.8C54.9998 144.2 54.0998 140.3 52.4998 136.9C51.1998 134.2 48.4998 132.4 45.4998 133.9C42.7998 135.2 40.5998 138.1 38.8998 140.5C37.0998 142.9 35.6998 145.5 34.4998 148.3C32.1998 153.9 30.9998 159.8 30.4998 165.8C29.8998 173 30.0998 180.3 30.4998 187.5C29.9998 190.2 34.0998 191.6 33.9998 188.3Z" fill="white"/>
</g>
<mask id="mask1_201_691" style="mask-type:luminance" maskUnits="userSpaceOnUse" x="51" y="51" width="398" height="398">
<path d="M250 448.5C359.629 448.5 448.5 359.629 448.5 250C448.5 140.371 359.629 51.5 250 51.5C140.371 51.5 51.5 140.371 51.5 250C51.5 359.629 140.371 448.5 250 448.5Z" fill="white"/>
</mask>
<g mask="url(#mask1_201_691)">
<path d="M93.0998 121.4C97.4998 113.7 103.4 107 110.6 101.8C112.3 100.6 114.1 99.3999 115.9 98.2999C117.8 97.1999 120 95.6999 122.2 95.2999C124.8 94.7999 125.7 96.4999 126.9 98.3999C128.2 100.4 129.4 102.6 130.5 104.7C132.9 109.6 134.8 114.8 136.1 120.2C136.3 120.8 138.5 124.5 139.2 123.1C142.1 117.9 145.3 112.8 148.8 107.9C151.6 104 154.7 98.8999 159.4 96.9999C163.5 95.3999 168.6 97.2999 171.1 100.9C174.1 105.2 174.2 111.4 174.5 116.4C174.6 117.4 175.3 118.5 176 119.2C176.3 119.5 177.5 120.6 177.7 119.8C179.1 114.9 181 110 183.4 105.5C184.5 103.3 185.8 101.1 187.1 99.0999C188.4 97.0999 189.8 94.6999 191.7 93.1999C192.1 92.8999 192.6 92.5999 193.1 92.4999C193.6 92.3999 194.3 92.8999 193.9 92.3999C194.5 93.1999 194.8 94.5999 195.1 95.5999C196 98.0999 196.7 100.7 197.4 103.3C198.8 108.7 199.7 114.2 200.1 119.8C200.2 120.8 200.9 121.9 201.6 122.6C201.9 122.9 203 124 203.3 123.2C205.4 118 207.8 112.9 210.5 107.9C211.9 105.4 213.3 103 214.8 100.6C216.1 98.4999 217.3 96.0999 219.3 94.4999C223.7 91.0999 227.3 98.1999 228.8 101.4C231 106 232 111 232 116.1C232 116.9 234.6 120.8 235.2 119.4C237.6 114.1 240.2 109 243 103.9C244.3 101.5 245.7 99.1999 247.1 96.8999C248.3 94.9999 249.6 91.6999 251.9 90.7999C254.2 89.8999 255.8 93.4999 256.7 94.9999C257.9 96.9999 258.9 99.1999 259.7 101.4C261.4 106.3 262.2 111.4 262 116.6C262 117.6 262.9 118.7 263.5 119.4C263.8 119.7 265 120.8 265.2 120C266.8 114.6 268.8 109.3 271 104.2C272.1 101.6 273.3 99.0999 274.6 96.5999C275.8 94.1999 277 91.5999 278.5 89.3999C279.1 88.4999 279.9 87.4999 280.9 87.0999C281.4 86.8999 282.6 87.1999 282.1 86.5999C282.5 86.9999 282.6 87.7999 282.8 88.2999C283.9 90.8999 284.8 93.5999 285.5 96.2999C287 101.7 287.9 107.3 288.3 113C288.4 114 289.1 115.1 289.8 115.8C290.1 116.1 291.2 117.2 291.5 116.4C294.9 107.9 300.3 100.2 307.3 94.1999C308.6 93.0999 310.9 90.5999 312.9 91.4999C312.8 91.3999 312.6 91.0999 312.8 91.3999C313 91.7999 313.2 92.3999 313.3 92.7999C313.6 93.9999 313.9 95.1999 314.2 96.3999C315.5 101.8 316.9 107.1 318.2 112.5C318.4 113.4 319.1 114.4 319.8 115.1C320.1 115.3 321.1 116.2 321.3 115.4C322.6 111 324.3 106.7 326.4 102.6C327.5 100.5 328.6 98.3999 329.9 96.2999C330.9 94.5999 332.2 92.5999 334.1 91.8999C336.3 90.9999 337.3 92.9999 338.3 94.5999C339.5 96.4999 340.6 98.3999 341.5 100.4C343.5 104.5 345 108.9 346.1 113.4C346.3 114.3 347 115.3 347.7 116C348 116.3 349 117.1 349.2 116.3C352 107.9 356.7 100.4 363.1 94.3999C362.4 93.8999 361.6 93.3999 360.9 92.8999C364.2 97.8999 366.2 103.8 366.8 109.8C366.9 110.8 367.6 111.8 368.3 112.6C368.6 112.9 369.8 114 370 113.2C371.8 107.2 374.8 98.7999 382 97.7999C385.7 97.2999 389.6 99.1999 391.8 102.2C394.3 105.6 395.2 110.1 396.2 114.1C396.5 115.2 397.3 116.4 398.2 117C399 117.5 399.5 117.2 399.3 116.2C397.1 107.2 393 95.2999 382.3 93.5999C373.1 92.1999 368.9 102.4 366.7 109.5C367.8 110.6 368.8 111.7 369.9 112.8C369.1 105.3 366.4 98.1999 362.3 91.8999C362.1 91.4999 360.7 89.7999 360.1 90.3999C353.6 96.4999 348.7 104.2 345.9 112.7C346.9 113.7 348 114.6 349 115.6C347.7 110.3 345.8 105.2 343.4 100.3C342.2 97.7999 340.8 95.4999 339.3 93.1999C338 91.1999 336.5 88.7999 334.1 87.7999C329.4 85.8999 326.1 93.0999 324.4 96.2999C321.7 101.2 319.6 106.4 317.9 111.8C318.9 112.8 320 113.7 321 114.7C319.8 109.8 318.6 105 317.4 100.1C316.4 96.0999 315.8 91.5999 312.6 88.6999C311.4 87.4999 309.8 86.8999 308.2 87.3999C306.3 87.9999 304.6 89.7999 303.1 91.1999C300 93.9999 297.2 97.0999 294.8 100.5C292.1 104.3 289.9 108.4 288.1 112.8C289.2 113.9 290.2 115 291.3 116.1C291 111 290.2 106 289 101C288.4 98.4999 287.6 95.9999 286.8 93.4999C286 91.1999 285.2 88.7999 284 86.6999C283 84.9999 281.4 82.8999 279.2 82.8999C277.2 82.8999 275.7 84.7999 274.8 86.2999C272.1 90.5999 269.9 95.3999 267.9 99.9999C265.5 105.4 263.5 110.9 261.8 116.6C262.9 117.7 263.9 118.8 265 119.9C265.4 110.5 262.5 101.2 257.4 93.2999C255.6 90.4999 251.6 84.2999 247.7 87.6999C246 89.0999 245 91.3999 243.8 93.1999C242.4 95.3999 241.1 97.6999 239.8 99.8999C236.9 105.1 234.2 110.5 231.7 115.9C232.8 117 233.8 118.1 234.9 119.2C235 109.8 231.4 100.5 225.3 93.3999C224 91.8999 222.4 90.1999 220.3 89.5999C218.3 88.9999 216.4 89.8999 215.1 91.3999C213.6 92.9999 212.5 95.0999 211.3 96.9999C209.9 99.1999 208.6 101.5 207.3 103.8C204.5 108.9 202 114.2 199.8 119.6C200.9 120.7 201.9 121.8 203 122.9C202.6 117.9 201.8 112.9 200.7 108.1C199.6 103.3 198.3 98.2999 196.3 93.7999C194.7 90.2999 191.1 86.4999 187.6 90.1999C184.6 93.3999 182.2 97.6999 180.2 101.5C177.7 106.3 175.6 111.3 174.1 116.5C175.2 117.6 176.2 118.7 177.3 119.8C176.7 110.4 175.1 99.8999 166.3 94.5999C162.8 92.4999 158.5 91.7999 154.8 93.8999C150.7 96.1999 147.9 100.9 145.2 104.6C141.7 109.5 138.5 114.5 135.6 119.7C136.6 120.7 137.7 121.6 138.7 122.6C137.4 117.2 135.5 111.9 133.1 106.8C131.9 104.3 130.6 101.9 129.2 99.5999C127.8 97.2999 126.4 94.7999 124.4 92.9999C122.5 91.1999 120.3 90.7999 117.8 91.6999C115.4 92.4999 113.1 93.9999 111 95.2999C106.8 97.8999 102.9 101 99.4998 104.6C95.5998 108.6 92.1998 113.1 89.3998 118C89.2998 118.9 92.3998 122.6 93.0998 121.4Z" fill="white"/>
</g>
<mask id="mask2_201_691" style="mask-type:luminance" maskUnits="userSpaceOnUse" x="51" y="51" width="398" height="398">
<path d="M250 448.5C359.629 448.5 448.5 359.629 448.5 250C448.5 140.371 359.629 51.5 250 51.5C140.371 51.5 51.5 140.371 51.5 250C51.5 359.629 140.371 448.5 250 448.5Z" fill="white"/>
</mask>
<g mask="url(#mask2_201_691)">
<path d="M128.5 83.8C133 78.1 138.2 72.9 144 68.4C145.4 67.3 146.9 66.2 148.4 65.2C149.7 64.3 151.2 63.2 152.6 64.4C155 66.5 157.1 69 158.8 71.7C160.9 74.9 162.4 78.5 163.3 82.2C163.5 83.1 164.3 83.9 165.1 84.4C165.6 84.7 166.8 85.3 167.3 84.6C170.7 79.3 174.3 74 179.1 69.9C181.4 67.9 184 66.3 186.9 65.2C188.3 64.7 189.9 64.2 191.4 64.3C191.6 64.3 192.1 64.4 192.1 64.3C191.9 64.2 192.2 64.5 192.2 64.6C192.6 65.4 193 66.1 193.3 66.9C195.1 71 196.4 75.3 197.3 79.8C197.5 80.9 200.7 83.9 201.4 82C202.7 78.3 204.4 74.8 206.4 71.4C208.4 68.1 210.7 64.7 213.5 62C214.7 60.8 216.4 59.5 218.2 59.6C219.4 59.7 219.7 60.7 220.2 61.7C222 65.5 223.3 69.6 224.8 73.5C225.1 74.3 226 75.1 226.7 75.4C227.1 75.6 228.3 76.1 228.6 75.5C230.5 72.2 232.5 68.9 234.7 65.8C235.8 64.3 236.8 62.8 238 61.4C239 60.2 240 58.2 241.5 57.5C241.6 57.5 242.4 57.3 242.4 57.3C242.3 57.4 242 56.8 242.2 57.2C242.3 57.7 243 58.3 243.2 58.8C244 60.5 244.6 62.2 245.2 63.9C246.4 67.5 247.2 71.2 247.7 75C247.9 76.2 251.1 79.1 251.8 77.2C253.2 73.7 254.9 70.4 256.9 67.3C258.8 64.5 260.9 61.1 263.8 59.2C264.4 58.8 265.1 58.4 265.8 58.2C266.1 58.1 266.5 58.1 266.8 58.1C267 58.1 267.3 58.3 267 58.1C267.4 58.4 267.6 59.2 267.8 59.6C268.1 60.4 268.4 61.2 268.7 62C270.1 65.9 271 69.9 271.7 73.9C271.9 75.1 275.1 78 275.8 76.1C277.1 72.8 278.9 69.7 281.1 67C282.2 65.7 283.4 64.4 284.8 63.2C286.1 62.1 287.6 60.7 289.3 60.6C290.3 60.5 290.4 60.8 290.9 61.6C291.7 62.9 292.1 64.4 292.5 65.8C293.6 69.8 294.8 73.9 295.9 77.9C296.2 78.8 296.9 79.6 297.7 80.1C298.2 80.4 299.5 81 299.9 80.3C303.2 75.1 306.9 70 311 65.3C311.4 64.8 311.8 64.2 312.4 63.9C312.5 63.8 313 63.7 313 63.7C312.1 62.9 311.8 62.7 312 63.1C312.1 63.2 312.2 63.3 312.2 63.5C312.9 64.7 313.6 66 314.2 67.2C315.6 70 316.9 73 318 75.9C318.4 76.9 321.2 79.4 322 77.6C323.1 75 324.5 72.5 326.2 70.1C327.7 68 329.5 65.6 331.6 64.1C333.4 62.9 335.8 62.7 337.3 64.4C339 66.3 339.6 69.1 340.2 71.5C340.5 72.6 341.5 73.6 342.6 74C343.2 74.3 344.7 74.4 344.4 73.3C343.5 69.9 342.5 66.4 340.2 63.7C338 61.1 334.4 59 330.9 59.5C327.6 60.1 325.2 63.2 323.3 65.7C321.1 68.6 319.3 71.7 317.9 75C319.2 75.6 320.6 76.1 321.9 76.7C320.6 73.2 319 69.8 317.3 66.5C316.5 64.9 315.7 63.2 314.5 61.9C313.3 60.6 311.4 59.4 309.5 60C308 60.5 307 62.1 306 63.2C304.8 64.6 303.6 66.1 302.5 67.6C300.2 70.6 298 73.7 296 77C297.3 77.8 298.7 78.7 300 79.5C298.7 74.8 297.5 70.1 296 65.5C294.8 61.8 292.6 57.9 288.5 56.8C284.3 55.7 280.6 59.6 278 62.4C275.2 65.5 273 69.2 271.5 73.2C272.9 73.9 274.3 74.6 275.6 75.4C274.8 70.6 273.5 65.8 271.8 61.2C270.4 57.4 267.2 53.1 262.6 54.2C258.6 55.1 255.8 59.4 253.6 62.5C251.1 66.2 249 70.1 247.4 74.2C248.8 74.9 250.2 75.6 251.5 76.4C250.9 71.9 249.8 67.4 248.2 63.1C246.8 59.3 245 54.5 240.7 53.3C238.8 52.8 237.3 53.6 236.1 55C234.6 56.7 233.3 58.6 231.9 60.4C229.2 64.1 226.7 68 224.5 72C225.8 72.7 227.1 73.4 228.4 74C227 70.3 225.7 66.6 224.2 63C222.9 59.9 220.8 56.9 217.4 55.8C213.9 54.7 210.8 56.8 208.5 59.3C206.1 61.9 204 64.9 202.2 68C200.1 71.5 198.4 75.2 197.1 79C198.5 79.7 199.9 80.4 201.2 81.2C200.4 76.8 199.1 72.4 197.3 68.3C195.6 64.4 193.2 60 188.2 60.2C181 60.5 174.8 65.7 170.4 70.9C167.7 74.1 165.4 77.5 163.1 81C164.4 81.8 165.8 82.7 167.1 83.5C165.2 75.6 160.9 68.5 154.9 62.9C153.3 61.4 151.5 60 149.4 59.6C147.3 59.3 145.6 60.5 143.9 61.7C140.4 64.1 137.1 66.8 134 69.6C130.5 72.8 127.3 76.3 124.3 80.1C123.5 82 127.4 85.2 128.5 83.8Z" fill="white"/>
</g>
<mask id="mask3_201_691" style="mask-type:luminance" maskUnits="userSpaceOnUse" x="51" y="51" width="398" height="398">
<path d="M250 448.5C359.629 448.5 448.5 359.629 448.5 250C448.5 140.371 359.629 51.5 250 51.5C140.371 51.5 51.5 140.371 51.5 250C51.5 359.629 140.371 448.5 250 448.5Z" fill="white"/>
</mask>
<g mask="url(#mask3_201_691)">
<path d="M58.9001 233.4C59.3001 222.7 60.4001 211.6 65.1001 201.9C69.0001 193.8 75.5001 186.7 84.0001 183.4C82.6001 182.5 81.2001 181.6 79.7001 180.8C83.6001 194.2 86.7001 207.7 89.0001 221.5C89.2001 222.4 93.3001 224 93.3001 224.1C95.3001 211.7 100 199.9 107.1 189.6C105.7 188.8 104.3 187.9 102.9 187.1C109.4 197.4 113.4 209 114.8 221.1C114.9 221.8 119 223.9 119.1 223.7C121.4 217.8 123.7 211.8 127.1 206.5C128.8 203.9 130.7 201.4 132.9 199.3C134.9 197.4 138.7 193.8 141.8 195C141 194.5 140.2 194.1 139.3 193.6C138.8 193.3 139.6 194.4 139.6 194.4C139.8 194.7 139.9 195.1 140 195.4C140.5 196.8 140.9 198.2 141.3 199.7C142 202.2 142.6 204.7 143.1 207.2C144.1 212.3 144.8 217.4 145 222.5C145 223.4 149.3 225 149.3 225.1C150.4 219.1 152.2 213.2 154.8 207.7C156 205 157.4 202.4 158.9 199.9C160.3 197.6 161.7 195.2 163.9 193.6C165 192.8 166.2 192.1 167.6 192.1C167.9 192.1 168.2 192.1 168.4 192.1C169.7 192.5 169.4 192.2 167.5 191.3C167.6 191.6 168.4 192.4 168.6 192.7C170.1 195 170.9 197.8 171.7 200.4C173.9 207 176 213.6 178.2 220.2C178.4 220.9 182.4 222.9 182.5 222.8C184 216.6 186.2 210.7 189.2 205.1C190.6 202.4 192.2 199.8 193.9 197.2C195.5 194.8 197.3 192.1 199.5 190.2C200.1 189.7 200.7 189.3 201.4 189.1C201.7 189 202.1 188.9 202.4 189C200.4 187.5 199.8 187.2 200.6 188.2C201.2 189.5 202 190.8 202.6 192.1C204 195.1 205.3 198.1 206.4 201.1C208.8 207.7 210.4 214.5 211.4 221.4C211.5 222.2 215.7 224 215.7 224C217.2 218.2 219.1 212.4 221.5 206.9C223.5 202.2 225.6 196.6 229.5 193.2C230.3 192.5 231.2 191.9 232.2 191.5C232.8 191.3 233.4 191.1 234.1 191.1C234.4 191.1 234.6 191.1 234.9 191.1C235.8 191.3 235.6 191.1 234.4 190.5C234.5 190.9 235.4 191.7 235.7 192.1C236 192.6 236.3 193.1 236.6 193.6C237.3 194.8 237.8 196 238.4 197.2C240.8 202.7 242.2 208.5 242.7 214.5C242.8 215.3 246.9 217.3 247 217.1C248.9 212 250.9 207 252.8 201.9C254.1 198.5 255.5 191.1 260.3 191.3C260.6 191.3 261.8 191.6 260.6 191C261.1 191.3 261.5 192 261.9 192.4C262.6 193.3 263.2 194.3 263.8 195.3C265 197.3 266.1 199.4 267 201.6C269 206.2 270.3 211.1 271.1 216C271.2 216.7 275.3 218.8 275.4 218.6C277.4 213 279.7 207.5 282.3 202.1C283.5 199.5 284.8 197 286.2 194.5C287.4 192.2 288.7 190 290.6 188.2C291.4 187.5 292.3 186.8 293.3 186.4C293.8 186.2 294.8 186.3 295.2 186.1C295.9 186.2 295.6 185.9 294.3 185.1C294.6 185.4 294.9 185.8 295.1 186.1C296.6 188.3 297.3 191.1 298.1 193.5C299.9 199.3 301.2 205.2 301.9 211.2C302 212 306.1 213.9 306.2 213.8C307.7 208.6 309.4 203.5 311.6 198.5C312.7 195.9 313.9 193.4 315.2 190.8C316.2 188.8 317.3 186.6 319 185.1C319.8 184.4 320.9 183.8 322 183.8C322.3 183.8 322.5 183.8 322.8 183.9C323.5 184 323.2 183.8 321.8 183.3C321.8 183.5 322.6 184.4 322.7 184.6C324 186.6 324.8 189 325.6 191.3C327.6 196.9 329.2 202.7 330.5 208.6C330.6 209.3 334.7 211.4 334.8 211.2C336.5 206.9 338.2 202.5 340 198.2C340.8 196.2 341.5 194.2 342.4 192.2C343 190.8 343.9 189.2 345.4 188.6C345.5 188.6 346.8 188.5 346.8 188.4C346.6 188.7 345 186.8 346.2 188.4C346.7 189.1 347.1 189.8 347.4 190.6C348.3 192.5 349.1 194.5 349.9 196.5C351.7 200.9 353.1 205.4 354.4 209.9C354.6 210.6 358.6 212.6 358.7 212.5C361.6 202 365.8 191.3 371.9 182.2C372.5 181.3 373.2 180.4 374.1 179.9C374.3 179.8 375.9 179.2 375.8 179.4C375.7 179.7 373.4 177.2 374.8 179.4C376.3 181.7 377.6 184.1 378.8 186.5C381.3 191.6 383.1 196.9 384.4 202.4C384.6 203.1 388.6 205.1 388.7 205C390.2 199.8 392.2 194.8 394.9 190C397.4 185.6 400.4 180.5 404.4 177.3C405.3 176.6 406.3 175.9 407.4 175.6C407.8 175.5 408.2 175.4 408.6 175.5C409.4 175.6 409 175.3 407.3 174.6C407.4 174.9 407.9 175.7 408 176C409 178.7 409.4 181.8 410 184.7C411.4 190.9 412.8 197.1 414.2 203.3C414.4 204.1 418.4 206 418.5 205.9C420.1 200.2 422.1 194.7 424.5 189.4C425.5 187.2 426.6 184.8 428.6 183.4C429.5 182.7 430.6 182.3 431.8 182.2C432.3 182.2 432.8 182.2 433.2 182.3C433.3 182.3 434.6 182.7 434.2 182.5C436 183.5 437.4 186.4 438.1 188.3C439 190.7 439.2 193.3 439.4 195.9C439.8 200.7 440 205.5 442.5 209.7C443 210.5 444.3 211.1 445 211.5C445.2 211.6 446.8 212.3 446.7 212.1C443.5 206.6 444.2 200.2 443.2 194.1C442.3 188.6 439 184.7 434.3 181.8C432.4 180.6 430.1 179.4 427.8 179.6C425.1 179.8 423.2 181.6 421.8 183.8C418.2 189.7 416 196.8 414.2 203.4C415.6 204.3 417 205.2 418.5 206C416.9 198.8 415.3 191.6 413.6 184.4C413 181.9 412.8 178.5 411 176.5C409.5 174.9 406.7 173 404.5 173C401.8 172.9 399.6 175.2 398 177C395.9 179.4 394 182 392.3 184.7C388.8 190.2 386.2 196.2 384.4 202.5C385.8 203.4 387.2 204.3 388.7 205.1C387.3 198.9 385.1 192.8 382.1 187.2C380.8 184.8 379.6 181.9 377.6 180C376.2 178.7 373.4 176.6 371.3 176.8C368.7 177.1 367.1 180.5 366 182.5C364.4 185.3 362.9 188.2 361.5 191.1C358.6 197.2 356.3 203.5 354.6 209.9C356 210.8 357.4 211.7 358.9 212.5C357.5 207.3 355.8 202.2 353.7 197.2C352.8 195 351.9 192.5 350.4 190.6C349.1 188.9 347.3 187.7 345.5 186.7C344 185.9 342.4 185.3 340.8 186.3C339 187.4 338.3 189.8 337.6 191.7C335.4 197.3 333.1 203 330.9 208.6C332.3 209.5 333.7 210.4 335.2 211.2C333.8 204.7 332 198.2 329.6 192C328.7 189.6 327.8 187 325.9 185.1C324.3 183.5 321.9 181.9 319.7 181.3C314.1 179.8 311.1 188.5 309.4 192.3C306.5 198.4 304.2 204.7 302.4 211.2C303.8 212.1 305.2 213 306.7 213.8C305.8 206.8 304.2 199.9 301.9 193.2C301 190.7 300.1 188.1 298 186.4C296.2 185 293.6 183.2 291.2 183.3C285.4 183.5 282.3 191.9 280.1 196.1C276.9 202.5 274.1 209 271.7 215.8C273.1 216.7 274.5 217.6 276 218.4C275.1 212.6 273.4 206.9 270.9 201.6C268.5 196.6 265.8 192.6 260.9 189.9C259.1 188.9 257.1 188 255 188.8C252.6 189.8 251.7 192.6 250.9 194.8C248.4 201.3 245.9 207.8 243.4 214.3C244.8 215.2 246.2 216.1 247.7 216.9C247.2 210.2 245.5 203.6 242.5 197.5C241.3 194.9 239.8 192.7 237.5 191C235.5 189.6 233 187.9 230.5 188.2C224.7 188.8 221.7 196.2 219.6 200.7C216.6 207.3 214.2 214.1 212.4 221.1C213.8 222 215.2 222.9 216.7 223.7C215.9 217.8 214.6 212 212.7 206.3C211 201 209 195.2 206 190.5C204.8 188.7 202.8 187.5 200.9 186.6C198.7 185.5 197 186.3 195.4 188C191.7 192.1 188.7 196.9 186.1 201.7C183.1 207.4 180.8 213.5 179.3 219.7C180.7 220.6 182.1 221.5 183.6 222.3C181.1 214.7 178.7 207 176.1 199.4C175.3 197 174.3 194.5 172.4 192.7C170.6 191 167.9 189.2 165.4 188.8C162.3 188.4 159.8 190.6 158.1 192.9C156.1 195.5 154.5 198.5 153 201.4C149.7 207.9 147.4 214.8 146.1 221.9C147.5 222.8 148.9 223.7 150.4 224.5C150 216.9 148.8 209.4 146.8 202C146.1 199.5 145.5 196.2 143.5 194.3C141.7 192.7 138.9 190.9 136.4 191.5C133.6 192.2 130.9 194.7 128.9 196.7C126.9 198.8 125.1 201.1 123.6 203.6C120.4 208.8 118.1 214.6 115.9 220.3C117.3 221.2 118.7 222.1 120.2 222.9C118.8 210.8 114.7 199.1 108.2 188.7C107.9 188.3 104.3 185.8 104 186.2C95.8001 197.2 91.0001 208.9 89.0001 221.3C90.4001 222.2 91.8001 223.1 93.3001 223.9C91.0001 210.2 87.9001 196.6 84.0001 183.2C83.8001 182.5 80.5001 180.3 79.7001 180.6C71.2001 183.9 64.7001 191 60.8001 199.1C56.1001 208.9 55.0001 219.9 54.6001 230.6C54.6001 231.1 56.2001 231.9 56.6001 232.2C56.7001 232.4 58.8001 233.4 58.9001 233.4Z" fill="white"/>
</g>
<mask id="mask4_201_691" style="mask-type:luminance" maskUnits="userSpaceOnUse" x="51" y="51" width="398" height="398">
<path d="M250 448.5C359.629 448.5 448.5 359.629 448.5 250C448.5 140.371 359.629 51.5 250 51.5C140.371 51.5 51.5 140.371 51.5 250C51.5 359.629 140.371 448.5 250 448.5Z" fill="white"/>
</mask>
<g mask="url(#mask4_201_691)">
<path d="M47.7999 274.6C49.8999 257.6 60.8999 242.1 76.4999 234.9C75.2999 234.7 74.1999 234.4 72.9999 234.2C76.8999 244 79.4999 254.2 80.5999 264.7C80.7999 267 84.9999 265.3 85.4999 263.9C87.8999 255.5 93.9999 248.3 101.9 244.7C102.7 244.3 104 243.6 104.9 243.7C106.2 243.8 106.8 245.2 107.2 246.2C108.1 248.6 108.8 251.1 109.4 253.6C110.7 259.1 111.5 264.8 111.8 270.4C111.9 272.7 116 272.2 116.5 270.4C118.7 264 120.8 257.5 123 251.1C124.4 246.9 126.9 239.1 132.6 239.4C135.2 239.5 136.9 242 138 244.1C139.3 246.8 140.2 249.7 141.1 252.5C143.1 258.7 144.5 265.2 145.3 271.7C145.6 273.7 149.5 272.7 150 271.3C152.4 264.1 154.6 256.6 157.4 249.5C159.1 245.3 161.9 238.7 166.9 237.6C172.6 236.4 176.5 243.1 177.9 247.6C179.9 254.4 179 261.8 182.2 268.3C183.1 270.2 186.6 269.4 187.1 267.5C188.4 261.4 190.2 255.3 192.4 249.5C193.6 246.5 194.8 243.5 196.2 240.6C196.9 239.1 198.2 235.7 200.2 235.7C202.6 235.7 204.8 239.4 206 241.2C207.7 243.6 209.1 246.1 210.4 248.8C212.8 254.1 214.3 259.7 214.8 265.5C215 267.7 219.3 266.2 219.7 264.7C221.2 258.3 222.7 251.9 224.2 245.5C225.1 241.9 226 235.1 230.1 233.5C232.2 232.7 234.4 234.3 235.8 235.8C237.6 237.8 238.7 240.2 239.3 242.8C240.5 248.2 240.3 253.7 242.9 258.8C243.7 260.4 246.8 259.2 247.4 258C250.3 252.6 250.4 246.4 252.4 240.7C253.8 236.6 257.3 230.8 262.5 232.3C267.5 233.8 270.1 239.7 271.2 244.2C272.6 249.9 273.1 255.9 276.4 261C277.5 262.7 280.6 261.3 281.1 259.8C282.9 253.5 285.3 247.4 288.3 241.6C289.7 238.8 291.2 236.1 292.9 233.5C293.8 232.1 296.1 227.6 298.4 228.4C300.7 229.3 302.1 233.4 303 235.4C304.2 238.3 305.2 241.2 306 244.2C307.7 250.5 308.7 256.9 309.6 263.3C309.9 265.5 314.1 264.1 314.5 262.5C317.3 250.2 323.3 238.8 331.7 229.4C330.3 229.5 328.9 229.6 327.5 229.8C334.3 239 338.5 249.9 339.6 261.3C339.8 263.5 343.7 261.9 344.3 260.9C347.8 255.4 348.9 249 351.2 243C353.2 238.1 356.4 232.9 362 231.8C361.1 231.6 360.2 231.4 359.4 231.3C363.8 239.2 366.3 248.1 366.6 257.1C366.7 259.5 371.4 258.8 371.5 256.7C372 247.4 376.2 238.4 383.2 232.3C384 231.6 384.8 230.9 385.7 230.4C387.1 229.6 387.9 230.2 388.8 231.4C390.4 233.4 391.5 236 392.5 238.3C394.6 243.2 396 248.4 396.7 253.6C397 255.8 401.2 254.3 401.6 252.8C403.5 244.9 405.8 235.3 412.5 230C414.1 228.8 416.5 226.7 418.1 228.8C419.5 230.8 420.1 233.6 420.9 235.9C422.9 241.4 424.9 247 426.9 252.5C427.7 254.6 431.3 253.4 431.8 251.7C433.6 244.7 437.2 238.5 442.2 233.4C440.9 233.6 439.6 233.9 438.3 234.1C445.5 239.3 449.6 248 449 256.8C448.8 259.2 453.8 258.5 453.9 256.4C454.5 246.6 450 237.1 442 231.3C440.9 230.5 439 231.1 438.1 232C432.6 237.6 428.7 244.5 426.8 252C428.4 251.7 430 251.4 431.7 251.2C429.2 244.3 426.7 237.4 424.2 230.5C423.4 228.2 422.4 225.6 419.9 224.6C417.1 223.5 414 224.8 411.6 226.2C402.2 231.8 399.1 243.2 396.7 253.1C398.3 252.8 399.9 252.5 401.6 252.3C400.7 245.7 398.7 239.2 395.7 233.3C394.5 231 393.3 228.3 390.9 227C388.2 225.6 385.1 226.6 382.7 228.2C373.3 234.3 367.4 246 366.8 257C368.4 256.9 370.1 256.7 371.7 256.6C371.4 246.9 368.8 237.6 364.1 229.1C363.6 228.3 362.2 228.4 361.5 228.6C355.2 229.8 350.7 234.8 347.9 240.3C344.7 246.8 343.9 254.2 340 260.4C341.6 260.3 343.1 260.1 344.7 260C343.6 248.3 339.3 237.1 332.3 227.7C331.3 226.4 329 227.1 328.1 228.1C319.2 238 313 250 310 262.9C311.6 262.6 313.2 262.3 314.9 262.1C313.8 254.5 312.6 246.9 310.3 239.5C309.2 236 307.8 232.5 306 229.4C304.5 226.7 302.1 224.7 298.9 224.9C295.6 225.1 292.9 227.3 291 229.8C288.8 232.7 287 236 285.2 239.2C281.6 245.9 278.8 252.9 276.7 260.2C278.3 259.8 279.8 259.4 281.4 259C277.6 253.1 278 245.9 275.5 239.6C273.4 234.3 269.3 229.1 263.2 228.7C257 228.3 252 232.6 249.4 237.9C246.3 244.1 246.7 251.5 243.3 257.6C244.8 257.3 246.3 257.1 247.8 256.8C244.7 250.8 246.1 243.7 243.2 237.7C240.7 232.6 235.6 228.7 229.7 230.5C224.2 232.1 221.9 237.6 220.6 242.7C218.7 250.2 217.1 257.7 215.3 265.2C216.9 264.9 218.5 264.6 220.2 264.4C219.6 257.4 217.5 250.7 214.3 244.5C211.7 239.5 207.4 231.8 200.7 232.5C194.1 233.2 191.6 241.3 189.5 246.4C186.6 253.4 184.4 260.7 182.8 268.1C184.4 267.8 186 267.5 187.7 267.3C182.9 257.5 186.9 242.5 176 236C171.6 233.4 166.2 234 162.1 236.8C158 239.7 155.4 244.4 153.6 249C150.7 256.2 148.6 263.7 146.1 271C147.7 270.9 149.2 270.7 150.8 270.6C149.8 262.8 148 255.2 145.3 247.9C143.3 242.3 140.7 236 133.7 236.2C127.1 236.4 122.5 241.5 120.2 247.3C117.2 254.7 115 262.5 112.5 270.1C114.1 270.1 115.7 270.1 117.2 270.1C116.9 263.1 115.9 256.2 114 249.4C113.3 246.9 112.7 243.8 110.8 241.9C108.6 239.7 105.3 240.1 102.6 241.1C92.1999 244.8 84.0999 253.8 81.0999 264.4C82.6999 264.1 84.2999 263.8 85.9999 263.6C84.8999 253.1 82.2999 242.9 78.3999 233.1C77.8999 231.8 75.9999 231.9 74.8999 232.4C57.4999 240 45.1999 256.5 42.8999 275C42.5999 277.4 47.4999 276.7 47.7999 274.6Z" fill="white"/>
</g>
<mask id="mask5_201_691" style="mask-type:luminance" maskUnits="userSpaceOnUse" x="51" y="51" width="398" height="398">
<path d="M250 448.5C359.629 448.5 448.5 359.629 448.5 250C448.5 140.371 359.629 51.5 250 51.5C140.371 51.5 51.5 140.371 51.5 250C51.5 359.629 140.371 448.5 250 448.5Z" fill="white"/>
</mask>
<g mask="url(#mask5_201_691)">
<path d="M56.9001 313.5C57.1001 303.4 60.9001 293.6 67.7001 286.1C68.5001 285.2 69.4001 284.2 70.5001 283.5C71.5001 282.8 72.4001 282.3 73.2001 283.4C74.7001 285.6 75.5001 288.6 76.3001 291.1C78.1001 296.5 79.0001 302.2 79.3001 307.9C79.4001 309.2 82.5001 311.6 83.5001 310C89.0001 301.8 89.9001 286.8 101.7 284.8C104 284.4 106 284.9 107.4 286.9C109 289.4 109.6 292.5 110.3 295.4C112.1 302.2 114 309.1 115.8 315.9C116.1 317 117 317.8 118 318.2C118.7 318.5 120 318.7 120.2 317.7C122 305.4 129 294.1 139.4 287.2C141.1 286 146 282.4 148.2 283.8C149.3 284.5 149.8 286.7 150.1 287.8C150.6 289.5 151.1 291.3 151.6 293.1C153.7 300.9 155.5 308.8 157 316.7C157.2 317.8 160.4 320.6 161.2 318.8C163.5 313.4 165.8 308 168 302.5C169.8 298.1 171.4 293.2 174.8 289.8C176 288.6 178 287 179.9 287.7C181.8 288.4 183.2 291.5 184.2 293.1C186.9 297.5 189 302.4 190.6 307.3C191 308.5 194.2 310.6 194.8 308.6C196.3 303.4 198 298.2 200.1 293.2C201.2 290.6 202.3 288 203.5 285.4C204 284.4 204.4 283.3 205.1 282.5C206.1 281.3 206.4 281.7 207.1 282.8C213 291.4 217.3 301.1 219.8 311.3C220 312.3 223.2 315.3 224 313.4C226.4 308 228.8 302.6 231.2 297.2C232.4 294.5 233.6 291.8 234.8 289.1C235.8 286.8 236.7 284.5 238.2 282.5C238.8 281.7 239.5 281 240.3 280.4C241.3 279.8 241.9 279.5 242.3 280.6C243.3 283.2 244.1 285.9 244.9 288.6C246.4 294 247.6 299.5 248.4 305.1C248.6 306.5 252.6 309 252.8 306.9C253.2 300.9 253.8 294.9 254.9 288.9C255.4 286.2 255.8 283.5 256.6 280.9C257.2 279 258.1 276.7 260 275.7C264.5 273.3 267.3 281.2 268.5 284.1C270.8 289.5 272.7 295.1 274.1 300.8C274.4 302 278 304.9 278.5 302.6C280.6 291.7 285.6 281.7 293 273.4C291.7 273 290.5 272.6 289.2 272.2C294.2 279.7 296.9 288.5 297 297.5C297 299 300.8 301.3 301.4 299.3C302.5 295.1 304.3 291.1 306.7 287.4C308.9 284.1 312.1 279.7 315.8 278.2C317 277.7 317.2 278 317.8 279.1C318.3 280.1 318.6 281.2 319 282.2C319.8 284.4 320.6 286.7 321.4 289C323 294 324.4 299 325.6 304.1C325.9 305.3 329.7 308.2 330 305.9C331.5 294.1 336.6 283.1 344.7 274.3C343.4 273.9 342.2 273.5 340.9 273.1C347 280.9 350.9 290.2 352.1 300C352.3 301.4 355.9 303.9 356.5 301.8C359.5 290 365.5 279.3 374 270.7C372.6 270.1 371.3 269.6 369.9 269C374 276.9 376.4 285.4 376.9 294.3C377 295.5 380.3 298.1 381.1 296.4C383.2 292.4 385.3 288.4 387.4 284.3C389.3 280.6 391 276.2 393.6 272.9C394.1 272.3 394.7 271.6 395.3 271.2C395.6 271 395.9 270.8 396.2 270.7C396.7 270.6 396.7 270.6 396.9 270.7C397.4 271.1 397.7 272.6 397.9 273.2C398.3 274.3 398.7 275.3 399 276.4C400.4 280.6 401.4 285 402.1 289.4C402.3 290.5 405.5 293.3 406.3 291.5C407.9 288 409.6 284.6 411.4 281.2C413.2 277.8 414.9 274.2 417.1 271.1C417.3 270.8 418.1 269.7 418.3 269.7C418.6 269.7 419.7 271.9 419.8 272.2C420.7 273.8 421.5 275.4 422.2 277C423.7 280.5 424.9 284.1 425.7 287.8C425.9 288.9 426.9 289.7 427.9 290.1C428.5 290.3 430 290.6 430.1 289.6C430.9 281.1 435.7 273.4 443 269C441.7 268.4 440.5 267.7 439.2 267.1C442.3 273.3 444.3 279.9 445.2 286.8C445.4 288.1 448.3 290.4 449.4 288.9C452.8 284.3 456.3 279.8 459.7 275.2C460.9 273.6 456.9 270.7 455.6 272.3C452.2 276.9 448.7 281.4 445.3 286C446.7 286.7 448.1 287.4 449.5 288.1C448.6 280.9 446.5 274 443.3 267.5C442.8 266.4 440.9 264.8 439.5 265.6C431.8 270.3 426.6 278.5 425.7 287.5C427.2 288.1 428.6 288.7 430.1 289.3C429.1 284.7 427.6 280.2 425.6 275.9C424 272.5 421.7 266.8 417.5 266.2C415.6 265.9 414.2 266.9 413.2 268.3C411.8 270.3 410.7 272.5 409.5 274.7C407 279.3 404.6 284 402.4 288.7C403.8 289.4 405.2 290.1 406.6 290.8C405.7 285.5 404.4 280.2 402.6 275.1C401.3 271.3 398.8 265.7 393.7 267C389.3 268.1 387.3 274 385.4 277.6C382.6 282.9 379.9 288.2 377.1 293.6C378.5 294.3 379.9 295 381.3 295.7C380.8 286.5 378.2 277.6 374 269.5C373.4 268.3 371.2 266.5 369.9 267.8C361.3 276.7 355.1 287.7 352.1 299.7C353.6 300.3 355 300.9 356.5 301.5C355.2 291 351 281 344.5 272.7C343.8 271.8 341.8 270.3 340.7 271.5C332.5 280.4 327.2 291.8 325.7 303.8C327.2 304.4 328.6 305 330.1 305.6C328.7 299.4 327 293.4 324.9 287.4C323.3 282.9 321.8 275.7 316.3 274.5C311.4 273.4 306.9 279.1 304.2 282.5C300.8 286.9 298.5 291.9 297.1 297.2C298.6 297.8 300 298.4 301.5 299C301.3 289.3 298.2 279.9 292.8 271.8C292.1 270.8 290.1 269.4 289 270.6C281.5 279.1 276.4 289.4 274.2 300.6C275.7 301.2 277.1 301.8 278.6 302.4C276.8 295.4 274.5 288.6 271.4 282C269.3 277.5 265.6 272 260 271.7C254.2 271.4 252.4 277.8 251.5 282.3C250 289.8 249 297.3 248.5 304.9C250 305.5 251.4 306.1 252.9 306.7C251.9 299.9 250.4 293.3 248.4 286.8C247 282.4 244.6 274.5 238.3 276.6C236.1 277.3 234.5 279.3 233.3 281.3C231.5 284.3 230.3 287.7 228.9 290.9C226 297.5 223 304.1 220.1 310.7C221.5 311.4 222.9 312.1 224.3 312.8C222.7 306.5 220.6 300.3 217.7 294.5C216.4 291.8 214.9 289.2 213.4 286.6C211.9 284.1 210.3 281 207.8 279.2C205.8 277.8 203.2 277.4 201.4 279.4C199.5 281.5 198.5 284.9 197.4 287.5C194.7 293.8 192.4 300.2 190.6 306.7C192 307.1 193.4 307.6 194.8 308C192.9 302 190.2 296.3 186.7 291C184.1 287 179.9 282.5 174.6 284.5C169.8 286.3 167.5 291.8 165.6 296.1C162.8 302.8 160 309.4 157.2 316.1C158.6 316.8 160 317.5 161.4 318.2C160.1 311 158.5 303.9 156.6 296.8C155.2 291.5 154.3 283.9 149 281C143.7 278.1 137.6 282.5 133.5 285.7C129.1 289.1 125.3 293.2 122.4 297.9C119 303.3 116.8 309.4 115.9 315.6C117.4 316.2 118.8 316.8 120.3 317.4C118.2 309.5 116.1 301.5 113.9 293.6C112.3 287.7 109 281.8 102.2 281.2C96.7001 280.7 91.3001 284.3 88.4001 288.7C84.6001 294.5 83.4001 301.6 79.6001 307.4C81.0001 308.1 82.4001 308.8 83.8001 309.5C83.4001 302.5 82.0001 295.6 79.5001 289C77.8001 284.5 74.1001 276.9 67.9001 279.9C65.4001 281.1 63.3001 283.8 61.6001 286C59.7001 288.4 58.2001 291 56.9001 293.7C54.2001 299.3 52.7001 305.4 52.6001 311.6C52.6001 312.8 53.5001 313.7 54.5001 314.2C55.0001 314.2 56.9001 314.7 56.9001 313.5Z" fill="white"/>
</g>
<mask id="mask6_201_691" style="mask-type:luminance" maskUnits="userSpaceOnUse" x="51" y="51" width="398" height="398">
<path d="M250 448.5C359.629 448.5 448.5 359.629 448.5 250C448.5 140.371 359.629 51.5 250 51.5C140.371 51.5 51.5 140.371 51.5 250C51.5 359.629 140.371 448.5 250 448.5Z" fill="white"/>
</mask>
<g mask="url(#mask6_201_691)">
<path d="M66.9 349.1C68.3 339.6 73.9 330.8 81.8 325.3C83.7 324 85.9 322.5 88.2 321.9C89.7 321.5 90 321.9 90.7 323.2C91.3 324.4 91.9 325.6 92.4 326.9C94.7 332.4 96.1 338.1 96.7 344C96.9 345.5 100.2 347.1 101.3 345.8C103.4 343.2 104.9 340.2 106.5 337.3C108 334.5 109.8 331.5 112.8 330.1C116.6 328.3 120.1 330.6 122 334C124.4 338.2 124.6 343.2 124.8 347.8C124.9 349.2 128.5 351.1 129.4 349.6C131.8 345.5 134.2 341.3 137 337.5C139.9 333.6 143.6 329.5 148 327.4C152.6 325.3 156.5 327.7 158.7 331.9C161.1 336.7 161 342.3 160.9 347.5C160.9 348.9 164.9 350.8 165.5 349.3C167.3 344.3 169.4 339.5 171.8 334.8C173.1 332.4 174.4 330.1 175.8 327.8C176.6 326.5 178.4 322.7 180.3 322.8C180 322.8 180.5 323 180.7 323.3C181 323.7 181.2 324.2 181.4 324.7C181.9 325.8 182.3 327 182.7 328.1C183.6 330.7 184.3 333.4 184.9 336.1C186.1 341.5 186.6 347.1 186.6 352.6C186.6 354 190.9 355.9 191.2 354.4C192.5 348.2 194.6 342.2 197.6 336.6C200.4 331.3 204 325.7 208.6 321.8C209.7 320.9 211.2 319.7 212.7 319.7C214.1 319.7 215 321 215.7 322C217.6 324.5 219.1 327.4 220.5 330.2C223.5 336.2 225.6 342.7 226.8 349.3C227 350.4 231 352.8 231.4 351.1C233 343.4 235.8 332.6 245.3 331.7C249.7 331.3 251.3 335.6 252.8 339C254.9 343.9 257.1 348.8 259.2 353.7C259.6 354.7 263.7 356.8 263.7 354.8C263.9 348.3 264.9 341.8 266.7 335.6C267.6 332.5 268.6 329.5 269.9 326.6C271 323.9 272.2 321 274 318.7C274.8 317.6 275.9 316.5 277.1 315.9C278.2 315.3 278.7 315.3 279.4 316.3C281.2 318.9 282.5 322 283.8 324.9C286.4 330.8 288.3 337 289.6 343.3C289.8 344.4 293.7 346.8 294.2 345.1C297.1 334.9 300.4 323.4 309.2 316.7C310.2 315.9 311.4 315.1 312.6 314.6C313 314.4 313.5 314.2 314 314.1C313.8 313.9 313.8 313.9 314 314.2C314.5 314.6 314.9 315.6 315.1 316.1C316.6 319 318 322 319.2 325C321.8 331.4 323.6 338.1 324.6 344.9C324.8 346.3 329 348.4 329.2 346.4C331 332.4 340.6 319.7 353.6 314.2C352.4 313.7 351.2 313.2 349.9 312.8C354.9 319.4 357.6 327.3 358 335.5C358.1 336.8 362.2 338.9 362.6 337.3C364.5 329.5 368.3 322.2 373.8 316.4C375.1 315 376.5 313.8 377.9 312.6C378.3 312.3 378.7 311.9 379.1 311.7C379.4 311.5 379.7 311.3 380.1 311.2C379.8 311 379.6 310.9 379.3 310.7C379.2 310.8 380.1 313.2 380.1 313.5C381.2 318.4 382.4 323.3 383.5 328.1C383.7 329.2 387.7 331.7 388.1 329.9C388.9 326.1 390.2 322.3 391.9 318.8C393.5 315.5 395.5 311.4 398.5 309.1C401.4 306.8 404.6 308.1 406.4 311.1C408.5 314.6 408.4 319.1 408.4 323.1C408.4 324.4 412.6 326.4 413 324.9C415 317.3 419.3 310.5 425.3 305.5C424 305.1 422.6 304.6 421.3 304.2C424.4 309 427 314.1 429 319.4C429.4 320.3 433 322.4 433.5 320.8C434.5 317.5 436 314.3 437.8 311.3C439.6 308.4 441.8 305.3 444.6 303.3C444.9 303.1 446.6 302.4 446 302.2C446.5 302.3 447.1 303.7 447.3 304.2C448.1 305.9 448.8 307.7 449.5 309.4C450.9 313.2 451.9 317 452.6 320.9C452.9 322.5 457.5 324 457.2 322.4C456.3 317.5 455 312.7 453.1 308.1C451.5 304.2 449.5 300 444.7 299.4C440.6 298.9 437.4 303.3 435.2 306.2C432.4 309.9 430.3 314.1 428.9 318.6C430.4 319.1 431.9 319.5 433.4 320C431.2 314.4 428.5 309.1 425.2 304C424.6 303.1 422.2 301.9 421.2 302.7C415 307.9 410.5 314.8 408.4 322.7C409.9 323.3 411.5 323.9 413 324.5C413 319.7 412.8 314.5 409.9 310.5C407.5 307.1 403 304.6 398.8 304.8C394 305.1 391.2 309.6 389.1 313.4C386.5 317.9 384.7 322.7 383.6 327.8C385.1 328.4 386.7 329 388.2 329.6C387.5 326.6 386.8 323.6 386.1 320.6C385.5 317.9 385 315.1 384.1 312.4C383.4 310.2 381.6 308.7 379.4 308.2C376.9 307.6 375.1 308.9 373.3 310.4C365.7 316.8 360.3 325.6 358 335.2C359.5 335.8 361.1 336.4 362.6 337C362.2 328.2 359.1 319.8 353.8 312.8C353.2 312 351.2 310.9 350.1 311.4C336.3 317.2 326.4 330.2 324.4 345C325.9 345.5 327.5 346 329 346.5C328.1 340.5 326.6 334.6 324.5 328.8C323.5 325.9 322.3 323.1 321 320.4C319.9 318.1 318.8 315.3 316.9 313.5C312.6 309.3 307.4 312 303.6 315.3C300 318.4 297.3 322.5 295.2 326.8C292.7 332 291 337.6 289.4 343.2C290.9 343.8 292.5 344.4 294 345C292.8 339.2 291.1 333.6 288.9 328.1C287.7 325.3 286.5 322.5 285 319.8C283.8 317.6 282.7 315.4 280.5 314C269.8 307.1 264 326.5 262 333.4C260.1 340 259 346.8 258.8 353.6C260.3 354 261.8 354.3 263.3 354.7C260.8 349 258.5 343.1 255.7 337.4C253.5 332.9 249.7 329.4 244.6 328.9C240.1 328.5 235.5 330.5 232.6 334C229 338.3 227.7 343.9 226.6 349.3C228.1 349.9 229.7 350.5 231.2 351.1C230.1 345.2 228.4 339.5 226 334C224.8 331.3 223.4 328.6 221.9 326.1C220.5 323.8 219.1 321.4 217 319.6C215.1 318 212.5 316.8 210 316.9C207.3 317 205 318.6 203.2 320.5C199.2 324.5 195.9 329.2 193.2 334.1C190 339.8 187.8 346 186.4 352.4C187.9 353 189.5 353.6 191 354.2C191 347.4 190.2 340.7 188.5 334.2C187.2 329.3 185.8 322.2 180.3 320.2C174.3 318.1 171.3 325.1 168.9 329.3C165.7 335 162.9 341 160.7 347.2C162.2 347.8 163.8 348.4 165.3 349C165.4 342.9 165.4 336.3 161.9 331C159.1 326.7 154 323.3 148.7 323.5C142.9 323.7 138 328.5 134.5 332.6C130.6 337.1 127.6 342.3 124.7 347.4C126.2 348 127.8 348.6 129.3 349.2C129 343.6 128.6 337.7 125.2 333C122.4 329.1 117.5 326.1 112.6 326.3C103.4 326.7 101.4 337.7 96.5 343.6C98 344.2 99.6 344.8 101.1 345.4C100.4 338.3 98.5 331.4 95.4 325C94.1 322.4 92.5 320.1 89.7 319C86.8 317.9 84 318.9 81.4 320.2C71 325.5 63.7 336 62 347.5C62 349.2 66.6 351.1 66.9 349.1Z" fill="white"/>
</g>
<mask id="mask7_201_691" style="mask-type:luminance" maskUnits="userSpaceOnUse" x="51" y="51" width="398" height="398">
<path d="M250 448.5C359.629 448.5 448.5 359.629 448.5 250C448.5 140.371 359.629 51.5 250 51.5C140.371 51.5 51.5 140.371 51.5 250C51.5 359.629 140.371 448.5 250 448.5Z" fill="white"/>
</mask>
<g mask="url(#mask7_201_691)">
<path d="M103.1 391.7C103.6 382.8 106.9 374.3 112.3 367.3C115 363.8 118.3 360.6 121.9 358.1C123.8 356.8 125.8 355.6 127.9 354.6C128.4 354.3 129 354.1 129.6 353.9C129.8 353.8 130.3 353.8 130.4 353.7C130.5 353.7 130.6 353.7 130.7 353.6C130.2 353.3 129.8 353.1 129.3 352.8C129.6 352.6 130.6 355.6 130.7 355.9C132.4 362.3 133.7 368.9 135.2 375.4C135.4 376.1 139.3 378.1 139.7 377.4C144.1 370.2 149.3 362 157.5 358.9C159.7 358.1 161.7 357.8 164 357.9C164.8 358.1 164.7 358 163.9 357.8C164 357.9 164.1 358 164.2 358.1C164.6 358.7 165 359.3 165.3 359.9C165.8 360.9 166.2 362 166.6 363.1C168.4 368.4 169.4 373.9 169.5 379.6C169.5 380.7 174 382 174 381.7C175 373 183.3 367.6 191.3 366.1C193.4 365.7 195.7 365.5 197.8 365.7C198.2 365.7 198.5 365.8 198.9 365.8C199.7 366 199.8 366 199.2 365.8C199.7 366.2 200 366.7 200.4 367.3C201 368.3 201.5 369.5 201.9 370.7C203.8 376.4 205.1 382.3 205.7 388.3C205.8 389.2 210 391 210.2 390.4C212.9 381.2 216.6 369.9 227.3 367.7C229.1 367.3 231.5 367 233.1 368.2C234.7 369.4 235.8 371.2 236.6 373C238.5 377 239.1 381.5 239.5 385.8C239.6 386.8 243.9 388.4 244 387.9C244.7 383.7 246 379.5 247.9 375.7C249.6 372.1 251.9 367.9 255.1 365.4C255.9 364.8 256.8 364.3 257.8 364.1C258.3 364 258.8 364 259.4 364C259.1 363.7 259 363.7 259.3 363.9C259.5 364.1 259.7 364.2 259.9 364.4C261.4 365.7 262.4 367.5 263.4 369.2C265.6 373.2 267.2 377.5 268.2 382C268.4 382.7 272.6 384.5 272.7 384C274 378.7 275.8 373.5 278.2 368.6C280.4 363.9 283 358.9 286.3 354.9C286.7 354.5 287.1 354 287.5 353.7C287.8 353.5 288.2 353.3 288.6 353.2C289.5 353.1 289.2 352.9 287.8 352.5C287.8 352.7 288.7 353.4 288.8 353.6C289.3 354.2 289.8 354.8 290.3 355.4C291.8 357.4 293.1 359.5 294.2 361.7C296.5 366.4 297.8 371.6 298.1 376.9C298.1 377.8 302.4 379.7 302.6 379C305.7 370.6 310.4 362.1 316.9 355.9C317.3 355.5 317.8 355.1 318.3 354.8C318.5 354.7 318.7 354.6 318.9 354.6C319.8 354.5 319.2 354.1 317.3 353.7C317.3 354 318 354.6 318.2 354.9C318.5 355.4 318.8 355.9 319 356.3C320.1 358.4 321.1 360.6 321.8 362.9C323.2 367.5 323.8 372.2 323.5 377C323.4 377.9 327.7 379.8 328 379.1C331.3 372 335.3 365.1 340.2 359C340.7 358.3 341.3 357.7 341.9 357.1C342.3 356.8 342.7 356.5 343.2 356.2C343.5 356.1 344.1 356 344.3 355.9C344.7 355.9 344.6 355.8 344.1 355.6C343.6 355.3 343.5 355.3 344 355.7C344.2 356.1 344.6 356.4 344.9 356.8C345.4 357.5 345.9 358.3 346.4 359.1C348.4 362.6 349.6 366.4 350.1 370.4C350.2 371.3 354.4 373.2 354.6 372.5C357.3 364.1 362.8 356.8 370.2 352C368.7 351.3 367.2 350.7 365.7 350C368.5 354.6 370.2 359.7 370.8 365C370.9 365.8 374.9 367.9 375.3 367.1C376.8 364.2 378.5 361.5 380.3 358.8C381.9 356.5 383.7 353.1 386.4 351.9C386.7 351.8 387 351.7 387.3 351.6C387.4 351.6 387.6 351.5 387.7 351.5C387.3 351.3 386.9 351.1 386.5 350.9C386.5 350.9 387.7 352.6 387.8 352.8C388.6 354.1 389.2 355.4 389.8 356.8C391.1 359.7 392 362.8 392.5 366C392.6 366.7 396.5 368.6 397 368C401.1 362.2 403.2 353.3 410.7 350.7C412.5 350.1 414.5 349.8 416.4 350.1C418.3 350.4 419.5 351.5 420.6 353C422.8 356.1 423.5 360.1 422.5 363.8C422.2 364.7 426.9 366.4 427 365.9C429.7 356.1 420.3 347.8 411 347.6C406.3 347.5 402.4 349.9 399.6 353.6C396.8 357.4 395.1 361.9 392.5 365.7C394 366.4 395.5 367 397 367.7C396.3 363.8 395.1 360 393.3 356.5C391.5 353 389.3 350.2 385.2 349.3C381.6 348.4 379.3 351.7 377.4 354.2C374.9 357.6 372.7 361.2 370.7 364.9C372.2 365.6 373.7 366.3 375.2 367C374.6 361.5 372.9 356.4 370 351.7C369.5 350.9 366.4 349.1 365.5 349.7C358.1 354.6 352.6 361.8 349.9 370.2C351.4 370.9 352.9 371.6 354.4 372.3C353.8 367.6 352.3 363 349.7 359C348.5 357.2 347.2 355.8 345.3 354.8C343.6 353.9 341.4 352.9 339.5 353.4C337.6 353.9 336.2 355.7 335 357.2C333.5 359.2 332 361.3 330.6 363.4C327.8 367.6 325.4 372.1 323.3 376.7C324.8 377.4 326.3 378.1 327.8 378.8C328.2 373.4 327.4 367.9 325.5 362.8C323.8 358.1 321.3 352.7 315.8 351.8C313.3 351.4 311.8 353.6 310.3 355.2C308.5 357.3 306.8 359.4 305.3 361.7C302.2 366.3 299.7 371.2 297.8 376.4C299.3 377.1 300.8 377.8 302.3 378.5C301.9 369.4 298.3 360.2 291.9 353.7C290.3 352.1 288.2 350.9 286.1 350.4C283.9 349.9 282.4 351 281.1 352.6C278.1 356.5 275.6 360.9 273.5 365.4C271.1 370.5 269.2 375.8 267.8 381.3C269.3 382 270.8 382.6 272.3 383.3C271.1 378 269.2 372.6 266.1 368.1C263.6 364.5 259.3 361.2 254.8 361.1C249.9 361 246.8 366.4 244.6 370.1C241.9 374.8 240.1 380 239.1 385.3C240.6 386 242.1 386.7 243.6 387.4C242.9 379.8 241.4 371.6 234.4 367.3C230.7 365.1 226.3 363.9 222 365C217.8 366.1 214.2 368.8 211.7 372.3C208.4 376.9 206.8 382.4 205.3 387.7C206.8 388.4 208.3 389.1 209.8 389.8C209.2 384.5 208.2 379.2 206.6 374.1C205.9 371.9 205.3 369.6 203.9 367.7C202.5 365.9 200.5 364.7 198.4 363.8C191.1 360.8 181.5 363.5 175.5 368.2C172.1 370.9 169.7 374.6 169.2 379C170.7 379.7 172.2 380.4 173.7 381.1C173.6 376.2 172.9 371.3 171.5 366.6C170.8 364.4 170.2 362 168.9 360.1C167.7 358.3 166 357.1 164 356.2C156.2 352.6 148.2 357.2 142.9 363C139.7 366.5 137.1 370.6 134.6 374.6C136.1 375.3 137.6 375.9 139.1 376.6C137.6 370.1 136.3 363.5 134.6 357.1C133.9 354.6 132.7 353 130.4 351.8C129.3 351.2 128 350.7 126.7 350.6C125.3 350.5 124.1 351.1 122.9 351.7C113.9 356 106.6 363.5 102.3 372.5C99.8 377.7 98.3 383.3 98 389C98.5 390.8 103.1 391.9 103.1 391.7Z" fill="white"/>
</g>
<mask id="mask8_201_691" style="mask-type:luminance" maskUnits="userSpaceOnUse" x="51" y="51" width="398" height="398">
<path d="M250 448.5C359.629 448.5 448.5 359.629 448.5 250C448.5 140.371 359.629 51.5 250 51.5C140.371 51.5 51.5 140.371 51.5 250C51.5 359.629 140.371 448.5 250 448.5Z" fill="white"/>
</mask>
<g mask="url(#mask8_201_691)">
<path d="M111.4 423.5C112.9 419 114.6 414.7 116.5 410.4C118 407 119.8 403.6 122.3 400.8C124.4 398.4 127.6 396.2 130.9 396.4C134.1 396.6 136.9 400.3 138.3 402.9C140.6 407.3 141.3 412.3 141.9 417.2C142 418.4 146 419.5 146.7 418.5C153 410.8 159.5 403.1 167.5 397.2C171.5 394.3 175.9 391.9 180.6 390.5C182.5 389.9 185.7 388.7 187.4 390.1C189.2 391.5 190.2 393.8 191 395.8C193.4 402.1 194.5 408.9 194.5 415.6C194.5 416.8 198.6 417.8 199.3 416.9C203.9 410.8 210.3 406.2 217.5 403.7C221 402.5 224.6 401.7 228.3 401.6C230.2 401.5 232.1 401.5 234 401.8C235.6 402.1 236.9 403.1 237.9 404.4C240.2 407.5 241.1 411.5 241.7 415.2C241.9 416.2 246 417.3 246.5 416.3C249.9 409.6 255.4 404.1 262.1 400.7C265.5 399 269.2 397.7 273 397.3C274.8 397.1 276.1 397.1 277.3 398.5C278.3 399.6 278.9 401.1 279.3 402.5C280.4 406.1 280.6 409.9 282.4 413.2C282.8 413.9 286.8 415.5 287.2 414.3C289.1 408.2 293.3 400.8 300.6 400.6C303.1 400.5 305 403 306.3 405C307.9 407.6 308.9 410.5 309.8 413.3C310.1 414.2 314.2 415.5 314.6 414.4C315.8 410.6 317.4 406.9 319.4 403.4C321.2 400.2 323.3 396.4 326.7 394.7C327.1 394.5 327.6 394.4 328 394.2C328.1 394.2 328.3 394.2 328.4 394.1C327.7 393.9 327.6 393.9 328.1 394.3C328.5 395 329.3 395.6 329.7 396.2C330.8 397.7 331.9 399.3 332.8 400.9C334.8 404.3 336.3 408 337.4 411.7C337.7 412.6 341.8 413.9 342.2 412.8C343.6 408.8 345.3 404.9 347.1 401.1C348 399.3 348.9 397.5 349.9 395.7C350.4 394.8 350.9 393.9 351.4 393C351.6 392.6 351.9 392.2 352.2 391.9C352.5 391.6 352.9 391.4 353.2 391C353.7 390.7 353.4 390.6 352.2 390.5C352.3 390.6 352.5 390.7 352.6 390.8C352.9 391.1 353.3 391.4 353.6 391.7C354.3 392.3 354.9 393 355.5 393.7C356.7 395.1 357.8 396.7 358.7 398.3C360.5 401.6 361.7 405.1 362.1 408.8C362.2 409.9 366.4 411.2 366.9 410.1C368.6 406.1 370.6 402.3 373.1 398.8C375.3 395.5 377.9 391.6 381.2 389.3C382.3 388.6 384 387.7 385.3 388.3C386.9 389 388.3 390.7 389.1 392.2C391.3 396.1 391.3 400.6 391.3 405C391.3 406.3 396.1 407 396.1 406.3C396.1 401.4 396 395.8 392.9 391.7C390.1 388.1 385.1 385.8 380.6 386.3C375.8 386.8 372.6 391.5 370 395.1C366.9 399.4 364.2 404 362.1 408.9C363.7 409.3 365.3 409.8 366.9 410.2C366.4 405.9 365 401.8 362.7 398C360.4 394.2 357.1 390.1 352.6 389C350.4 388.5 348.6 388.8 347.2 390.7C345.8 392.6 344.7 395 343.6 397.1C341.2 401.7 339.1 406.5 337.4 411.4C339 411.8 340.6 412.1 342.2 412.5C340.9 407.9 338.9 403.6 336.3 399.6C335.1 397.8 333.8 395.7 332.1 394.3C330.3 392.9 327.9 392.1 325.7 392C321.1 391.9 318.3 395.9 316.1 399.4C313.5 403.6 311.4 408.1 309.9 412.8C311.5 413.2 313.1 413.5 314.7 413.9C313.6 410.4 312.3 406.8 310 403.8C307.5 400.7 303.8 398.9 299.9 398.4C296 397.9 291.9 399.1 289 401.8C285.8 404.7 283.9 408.6 282.7 412.6C284.3 413 285.9 413.3 287.5 413.7C285.7 410.3 285.5 406.4 284.4 402.8C283.1 398.6 280 396.1 275.7 395.2C271.2 394.2 266.4 395.2 262.1 396.8C258.1 398.3 254.4 400.4 251.2 403.1C247.5 406.2 244.4 410.1 242.2 414.5C243.8 414.9 245.4 415.2 247 415.6C246.3 411.8 245.4 407.7 243 404.6C240 400.7 235.2 399.5 230.5 399.1C221.8 398.5 213 400.6 205.6 405.2C201.5 407.8 197.9 411.1 195 414.9C196.6 415.3 198.2 415.8 199.8 416.2C199.7 409.5 198.7 402.8 196.4 396.5C195.6 394.1 194.4 391.7 192.5 390C190.2 387.9 187 386.9 184 386.8C178.5 386.6 172.7 389.1 168 391.8C163.2 394.6 158.9 398.1 155 402C150.5 406.5 146.4 411.4 142.3 416.4C143.9 416.8 145.5 417.3 147.1 417.7C146.5 412.8 145.9 407.8 143.7 403.4C141.7 399.4 138.3 396.3 134.1 394.7C130 393.1 125.3 393 121.4 395.4C118 397.5 115.7 401 113.8 404.5C111 409.8 108.8 415.6 106.9 421.3C106.3 423.1 111.1 424.6 111.4 423.5Z" fill="white"/>
</g>
<mask id="mask9_201_691" style="mask-type:luminance" maskUnits="userSpaceOnUse" x="51" y="51" width="398" height="398">
<path d="M250 448.5C359.629 448.5 448.5 359.629 448.5 250C448.5 140.371 359.629 51.5 250 51.5C140.371 51.5 51.5 140.371 51.5 250C51.5 359.629 140.371 448.5 250 448.5Z" fill="white"/>
</mask>
<g mask="url(#mask9_201_691)">
<path d="M158.8 459.9C159.8 452.8 161 445.4 164.2 438.9C165.7 435.8 167.7 432.8 170.3 430.6C171.2 429.8 173.8 427.2 175.2 428C175.4 428.1 175.6 428.5 175.7 428.7C176.2 429.7 176.6 430.9 177 432C179 437.3 181.1 442.6 183.1 447.8C183.4 448.6 185.4 451 186.3 449.4C189.8 443.2 194.6 435.2 202.8 435.6C204.2 435.7 205.7 436 207 436.8C208.1 437.4 208.6 438.1 208.9 439C209.5 440.8 209.5 442.7 210.1 444.5C210.8 446.5 212 448.1 213.8 449.3C214.6 449.8 215.3 449.4 215.6 448.7C218.3 442.3 223.2 436.8 229.2 433.2C230.6 432.4 232.3 431.2 234 431.2C234.2 431.2 234.8 431.4 234.4 431.1C234.6 431.2 234.6 431.6 234.7 431.8C235.1 432.7 235.3 433.7 235.6 434.7C236.8 438.9 237.7 443.2 238.3 447.6C238.4 448.5 239.1 449.5 239.9 449.9C240.4 450.2 241.4 450.6 241.7 449.8C244.6 443.6 248.1 436.8 254.8 434.1C261.2 431.5 269 433.8 273.1 439.3C275.4 442.4 276.4 446.2 276.4 449.9C276.4 450.9 277 452 277.8 452.6C278.3 453 279.4 453.5 279.9 452.7C283.2 446.9 287.1 440.1 294.1 438.4C297 437.7 300.3 437.7 302.7 439.8C304.9 441.7 305.8 444.8 306.6 447.5C306.9 448.4 307.3 449.3 308.2 449.8C308.7 450.1 309.6 450.4 310 449.7C313.5 443.2 317.4 436 324.1 432.2C329.7 429.1 337.8 428.5 341.7 434.6C343.6 437.6 344.3 441.3 344.4 444.8C344.4 445.8 345 446.9 345.8 447.5C346.4 447.9 347.4 448.3 347.9 447.6C351.1 442.7 354.6 437.3 360 434.6C364 432.7 370 432.4 373 436.3C373.5 437 374.8 437.7 375.5 436.8C376.2 435.9 375.3 434.4 374.8 433.6C371 428.6 364.2 427.7 358.6 429.8C352.2 432.2 348.2 438.4 344.6 443.9C345.7 444.8 346.9 445.8 348 446.7C347.7 438.9 344.6 429.6 336.7 426.5C328.7 423.3 320.2 427.4 314.8 433.5C311.5 437.2 309.1 441.7 306.7 446.1C307.8 446.8 309 447.6 310.1 448.3C308.9 444.5 307.6 440.5 304.8 437.5C302 434.5 298.2 433.1 294.1 433.6C285.5 434.6 280.6 442.3 276.7 449.1C277.8 450 279 451 280.1 451.9C280.1 443.4 275.6 434.7 267.9 430.8C264.3 429 260 428.2 256 428.9C252 429.6 248.6 431.7 245.8 434.6C242.7 437.9 240.5 442.1 238.6 446.2C239.7 446.9 240.9 447.7 242 448.4C241.5 444.4 240.7 440.5 239.6 436.7C238.7 433.4 237.8 428.4 234.2 427C231.2 425.8 227.5 428.4 225.1 430C222.4 431.8 220 433.9 218 436.4C215.6 439.2 213.7 442.4 212.2 445.9C212.8 445.7 213.4 445.5 214 445.3C213.9 445.3 213.8 445.1 213.7 444.7C213.5 444.1 213.4 443.5 213.3 442.9C213 441.3 212.8 439.8 212.2 438.3C211 435.6 208.8 433.3 206 432.2C203.4 431.1 200.5 430.9 197.7 431.6C194.6 432.4 192.1 434.2 189.9 436.4C187.2 439.2 185.2 442.6 183.3 445.9C184.4 446.4 185.4 447 186.5 447.5C184.5 442.3 182.5 437.1 180.5 431.9C179.1 428.2 176.6 421.5 171.3 424C167.8 425.7 164.9 429.2 162.9 432.4C160.8 435.8 159.3 439.6 158.2 443.5C156.9 448 156.2 452.6 155.5 457.2C155.3 458.4 155.9 459.6 156.8 460.4C157.2 460.8 158.7 461.1 158.8 459.9Z" fill="white"/>
</g>
</svg>
