<svg width="500" height="500" viewBox="0 0 500 500" fill="none" xmlns="http://www.w3.org/2000/svg">
<mask id="mask0_201_680" style="mask-type:luminance" maskUnits="userSpaceOnUse" x="51" y="51" width="398" height="398">
<path d="M250 448.5C359.629 448.5 448.5 359.629 448.5 250C448.5 140.371 359.629 51.5 250 51.5C140.371 51.5 51.5 140.371 51.5 250C51.5 359.629 140.371 448.5 250 448.5Z" fill="white"/>
</mask>
<g mask="url(#mask0_201_680)">
<path d="M65.4001 399.7C65.0001 370.6 64.5001 341.5 64.1001 312.5C63.9001 298.1 63.6001 283.7 63.5001 269.2C63.4001 255.7 63.8001 242 67.6001 228.9C71.2001 216.5 78 204.8 88.6 197.2C87.1 197 85.6001 196.8 84.0001 196.7C92.2001 217 86.6001 239.9 94.3001 260.3C96.1001 265 98.6001 270 102.4 273.3C106.1 276.5 111.3 278.5 116 276.6C120.9 274.7 122.3 269.2 123.7 264.7C125.2 259.5 126.4 254.3 127.3 249C130.8 227.9 130 205.8 136.6 185.2C138.2 180.3 140.2 175.5 142.7 171C144 168.7 145.4 166.5 147 164.4C148.1 162.9 150.3 159.8 152.5 160.5C154.2 161 155.5 163.2 156.2 164.7C157.2 166.8 157.8 169 158.2 171.3C159 177.2 158.9 183.3 159 189.3C159.4 214.3 157.8 239.5 161.9 264.3C162.9 270.3 164.2 276.2 165.9 282C167.4 287 168.9 292.8 172.5 296.9C175.7 300.6 181.2 301.6 185.4 299C189.8 296.3 192.4 290.8 194.7 286.4C204.7 267.1 206.8 245 212.6 224.3C214.1 219 215.8 213.8 218 208.8C220.1 204 222.5 198.5 226.1 194.6C227.6 193 230.3 190.3 232.6 191.7C234.8 193 235.9 195.9 236.9 198.1C239.1 203.3 240.5 208.8 241.3 214.4C244.8 236.4 240.7 259.6 248.4 280.9C250.2 285.9 252.5 291.1 256.8 294.5C260.7 297.6 266.4 298.6 270.6 295.4C274.7 292.2 277.1 286.4 278.6 281.6C280.3 276.2 281.1 270.6 281.6 264.9C282.8 252.1 283.9 239.3 286.1 226.6C287.2 220.1 288.5 213.5 290 207.1C291.4 201 292.7 194.6 294.8 188.7C295.9 185.7 298.8 179.1 303.1 180.8C307.1 182.4 309.2 187.9 310.1 191.8C313.2 203.8 313.1 216.7 313.5 228.9C313.8 241.2 314.1 253.6 316.6 265.7C318.4 274.5 321.5 288.6 332.3 290.3C342.3 291.8 347.4 282.2 349.4 273.9C352.3 261.6 353.7 248.9 355.1 236.4C357.9 211.2 359.8 185.7 366.8 161.3C367.7 158.1 368.7 155 369.8 151.9C370 151.3 370.6 149 371.3 148.8C372.2 148.6 373.9 151.4 374.3 152C377.4 156.7 379.3 162 380.5 167.4C383.1 179.2 382.9 191.6 383.9 203.7C385 217.2 386.7 230.6 388.9 243.9C390 250.4 391.2 256.9 392.5 263.4C393.4 267.8 395.1 273.2 399.8 274.8C401.9 275.5 404.4 275.3 406.2 274C408.2 272.5 408.9 269.9 409.6 267.7C411.4 262.5 412.7 257.1 413.9 251.7C416.3 240.6 417.9 229.2 421.4 218.3C423 213.1 425.1 207.9 427.8 203.2C429.2 200.8 430.7 198.3 432.6 196.2C434.3 194.3 436.8 192 439.4 191.8C444.6 191.4 447.1 200 448.3 203.7C450.3 209.8 451.7 216.1 452.6 222.5C454.4 235.4 454.7 248.5 455.2 261.5C455.7 275.2 456.1 288.9 456.4 302.6C456.6 315.9 456.7 329.2 456.7 342.5C456.7 344.4 461.7 344.6 461.7 342.7C461.8 315.3 461.2 287.9 460.1 260.5C459.6 247.4 459.3 234.2 457.3 221.2C456.4 215.1 455.1 209 453.1 203.1C451.5 198.4 449.6 192.9 445.1 190.4C434.1 184.4 425.3 197.2 421.2 205.5C416.3 215.4 413.9 226.3 411.8 237C410.7 242.6 409.6 248.3 408.3 253.9C407.1 259.3 405.8 265 403.6 270.1C403.4 270.6 403.2 271.1 402.8 271.5C402.6 271.8 401.6 272.3 402.3 272.4C401.4 272.3 400.4 270.8 400 270.1C398.5 267.9 397.9 265.3 397.4 262.7C396 255.9 394.8 249.2 393.7 242.4C391.5 229.1 389.9 215.6 388.8 202.2C387.8 190.4 387.9 178.4 385.4 166.8C384.2 161.4 382.3 156.1 379.2 151.4C377.8 149.2 376.2 147.1 373.7 146.2C371.4 145.4 368.5 145.6 366.8 147.5C365 149.5 364.4 152.9 363.6 155.4C362.7 158.3 361.8 161.2 361 164.1C359.4 170.2 358 176.4 356.9 182.6C352.4 207.7 351.2 233.2 347.3 258.3C346.4 264.1 345.7 270.2 343.9 275.8C342.7 279.8 340.6 284.6 336.8 286.8C332.4 289.4 328.6 284.7 326.7 281.2C324 276.1 322.5 270.1 321.4 264.4C319 252.2 318.8 239.6 318.5 227.2C318.2 215.2 318.1 202.6 315 190.9C313.9 186.7 311.8 182.3 308.1 179.7C304.5 177.2 299.3 177 295.7 179.5C291.9 182 290.3 186.7 289.1 190.9C287.3 197.3 285.7 203.7 284.3 210.2C281.4 223.3 279.3 236.6 278 249.9C276.8 261.4 277.1 273.7 272.5 284.5C271.4 287 270.1 289.5 268.4 291.7C266.7 293.9 264.7 295.5 262.1 293.9C257.3 291.1 255 285.1 253.2 280.1C249.4 269.5 248.7 258.1 248.3 246.9C247.9 235.5 248 224 246 212.7C245 207.3 243.6 202 241.5 197C239.5 192.2 236.2 188.3 230.5 188.6C225.1 188.9 221.2 193.1 218.5 197.4C215.7 202 213.4 206.9 211.5 211.9C207.6 222 205.3 232.5 203 243.1C200.7 253.8 198.4 264.5 194.6 274.8C192.7 279.9 190.5 284.9 187.7 289.6C186.3 291.9 184.9 294.3 183 296.2C181 298.1 179.3 298.4 177.3 296.3C173.6 292.4 172.1 286 170.6 281C168.8 275 167.5 268.8 166.6 262.6C164.7 250.3 164.2 237.8 164.1 225.3C164 212.7 164.3 200.1 164 187.5C163.9 181.7 164.1 175.6 162.9 169.9C162.1 166 160.4 161.6 156.9 159.3C146.9 152.9 139.3 167 135.9 174.2C131.4 183.5 129 193.7 127.5 203.9C124.3 225.1 125 247.5 117.7 267.9C116.9 270.2 115.7 273.1 113.4 274.3C111.2 275.5 108.7 273.9 107.1 272.5C103 269.2 100.6 263.9 98.9001 259.1C95.3001 248.9 95.0001 237.8 94.4001 227.1C93.8001 216.7 92.9001 206.2 89.0001 196.4C88.4001 194.9 85.5001 195.1 84.4001 195.9C63.5001 210.8 58.9001 238 58.6001 262C58.4001 276.6 58.9001 291.2 59.1001 305.7C59.3001 320.4 59.6001 335 59.8001 349.7C60.1001 366.4 60.3001 383 60.6001 399.7C60.5001 401.3 65.5001 401.5 65.4001 399.7Z" fill="white"/>
</g>
<mask id="mask1_201_680" style="mask-type:luminance" maskUnits="userSpaceOnUse" x="51" y="51" width="398" height="398">
<path d="M250 448.5C359.629 448.5 448.5 359.629 448.5 250C448.5 140.371 359.629 51.5 250 51.5C140.371 51.5 51.5 140.371 51.5 250C51.5 359.629 140.371 448.5 250 448.5Z" fill="white"/>
</mask>
<g mask="url(#mask1_201_680)">
<path d="M64.9002 149.5C68.9002 158.5 72.8002 167.6 77.0002 176.6C78.4002 179.5 80.7002 182.8 84.2002 183C88.6002 183.3 91.0002 179.6 93.0002 176.2C101.8 161.4 104 143.9 110.9 128.4C114.5 120.3 119.4 112.7 126.7 107.4C125.4 107.1 124 106.8 122.7 106.4C126.7 138.9 130.8 171.4 134.8 203.9C136.8 220 138.6 236.2 140.8 252.3C141.2 254.8 141.9 257.7 144 259.3C146.3 261.1 149.6 260.8 151.8 259C154.2 257.1 155.3 253.9 156.5 251.1C157.8 247.8 159 244.5 160.1 241.1C168.6 214.7 170 186.7 177.6 160.1C179.5 153.4 181.8 146.8 184.8 140.5C186.1 137.7 187.3 134.1 189.6 132C191.8 129.8 194 133 195.1 134.8C196.7 137.6 197.8 140.9 198.8 143.9C199.9 147.1 200.9 150.4 201.7 153.8C203.4 160.5 204.7 167.3 205.7 174.1C209.8 201.5 209.9 229.8 219.8 256C221 259.2 222.4 262.4 223.9 265.4C224.5 266.6 226.2 266.5 227.2 266.2C244.1 260.7 246.8 238.7 248.7 223.8C251.3 203 251.6 182.1 254 161.3C255.4 149.4 257.5 137.6 261.2 126.2C259.7 126.3 258.1 126.5 256.6 126.6C266.8 141 269.5 158.7 271.8 175.8C274.4 194.9 277.8 213.7 283.6 232.1C286.9 242.7 290.9 253.1 295.5 263.3C296 264.4 297.8 264.5 298.8 264.1C306.7 260.4 310.8 252.6 313.7 244.8C317.4 235.1 320.1 225.1 322.1 214.9C326.2 194.6 327.6 173.8 329.1 153.1C329.3 150.7 329.4 148.4 329.6 146C329.8 143.7 329.7 141.1 330.5 139C332.2 134.2 336 141.5 336.7 143.4C340.4 153.1 342.5 163.4 344.2 173.6C345.9 184 347.3 194.4 349.2 204.7C351.2 215.3 353.5 225.9 356.2 236.3C358.9 246.8 361.9 257.1 365.3 267.4C366 269.4 366.6 271.4 368.3 272.7C370 273.9 372.2 274.1 374.1 273.4C378.2 272 380.4 267.9 382.3 264.3C390.4 249.3 393.5 232.2 395.8 215.5C398.2 198.6 399.6 181.3 405.1 165.1C407.7 157.4 411.2 149.4 416.2 143C416.5 142.6 417 141.8 417.6 141.8C418.1 141.8 418.8 142.8 419 143.2C420.3 145.1 420.7 147.4 421.2 149.6C422.2 154.1 423.1 158.7 423.8 163.2C429.4 199.4 426.1 237.7 440.8 272C442.6 276.2 444.7 280.2 447 284.2C448.3 286.3 453 284.6 451.5 282.3C432 249.5 434.3 209.6 430.1 173C429 163.7 427.9 154.1 425.2 145.2C424.2 141.8 422 137.9 417.9 137.9C413.4 137.8 410.9 142.6 408.8 146C399.7 160.5 396.1 177.6 393.7 194.3C391.2 211.4 389.8 228.7 384.9 245.4C383.7 249.6 382.2 253.7 380.4 257.7C378.8 261.3 377 265.8 374.2 268.6C373.8 269 372.9 270 372.2 270C371.3 270 370.8 268.5 370.5 267.8C369.5 265.4 368.8 262.8 368.1 260.3C366.4 254.9 364.8 249.5 363.3 244.1C357.5 223.2 353.6 202 350.3 180.5C348.7 170.1 346.9 159.6 343.9 149.5C342.6 145.2 341.4 140.3 338.5 136.8C336 133.7 331.7 132.3 328.2 134.8C324.6 137.4 324.9 142.8 324.6 146.8C324.2 152 323.8 157.2 323.4 162.3C322.6 172.9 321.7 183.5 320.4 194C319.1 204.2 317.4 214.4 314.9 224.4C312.6 233.8 309.9 243.8 305 252.3C303 255.8 300.3 259 296.6 260.7C297.7 261 298.8 261.2 299.9 261.5C291.8 243.4 285.6 224.5 281.5 205.1C279.5 195.8 278.1 186.4 276.8 176.9C275.7 168.3 274.5 159.7 272.4 151.3C270.1 141.9 266.6 132.7 261 124.8C260 123.5 257 123.3 256.4 125.2C250.1 144.7 248.2 165.1 246.8 185.5C246.1 195.7 245.5 205.9 244.5 216.1C243.6 225.4 242.6 235.1 239.9 244.1C237.6 251.9 233.4 260.2 225.1 262.9C226.2 263.2 227.3 263.4 228.4 263.7C216.1 238.5 215.2 210 211.8 182.7C210.1 168.9 207.8 155.1 203.3 142C201.6 137 199.5 129.4 193.7 127.7C186.7 125.7 183.3 133.3 180.9 138.4C169 163.4 166.7 191.4 161.3 218.1C159.9 224.9 158.3 231.7 156.3 238.4C155.3 241.7 154.2 245 152.9 248.2C152.3 249.7 151.7 251.2 151.1 252.7C150.7 253.7 149.9 256.1 148.7 256.5C145.8 257.5 144.7 240.7 144.5 238.9C143.5 230.7 142.5 222.5 141.5 214.3C137.5 182.1 133.5 149.8 129.5 117.6C129 113.6 128.5 109.5 128 105.5C127.8 103.7 125.1 103.7 124 104.5C111.8 113.3 105.8 127.6 101.4 141.5C98.9002 149.3 96.8002 157.3 93.7002 164.9C92.2002 168.6 90.5002 172.2 88.4002 175.6C87.8002 176.5 86.7002 179.1 85.4002 179C84.1002 178.9 82.9002 176.5 82.4002 175.6C80.1002 171.2 78.3002 166.5 76.3002 162C74.1002 157.2 72.0002 152.4 69.8002 147.5C68.5002 145.4 63.8002 147 64.9002 149.5Z" fill="white"/>
</g>
<mask id="mask2_201_680" style="mask-type:luminance" maskUnits="userSpaceOnUse" x="51" y="51" width="398" height="398">
<path d="M250 448.5C359.629 448.5 448.5 359.629 448.5 250C448.5 140.371 359.629 51.5 250 51.5C140.371 51.5 51.5 140.371 51.5 250C51.5 359.629 140.371 448.5 250 448.5Z" fill="white"/>
</mask>
<g mask="url(#mask2_201_680)">
<path d="M72.6002 417.6C71.3002 399.2 71.2002 380.6 72.4002 362.2C72.9002 353.6 73.1002 344.5 76.2002 336.4C78.7002 329.7 83.4002 323.9 89.6002 320.2C91.7002 318.9 97.0002 315.5 99.3002 317.6C100.2 318.4 100.5 319.9 100.8 321.1C101.4 323.2 101.7 325.4 102.1 327.6C103.6 336.3 104.7 345 105.6 353.7C107.4 371.2 108.6 388.8 111.8 406.1C112.6 410.2 113.4 414.4 114.4 418.5C115.4 422.4 116.3 426.4 118.6 429.8C120.5 432.5 123.4 434.6 126.7 434.9C130.4 435.3 132.9 432.9 134.4 429.7C137.9 422.3 139.5 414 140.6 405.9C141.8 397.4 142.8 388.9 144.3 380.5C145.8 371.7 147.7 362.9 149.9 354.3C151.9 346.4 153.7 338.2 157 330.7C159.3 325.6 163.1 319.2 169.4 318.8C175.8 318.4 179.2 324.6 180.9 329.9C183.3 337.2 184 345.2 184.7 352.8C185.4 360.9 185.5 369.1 185.6 377.2C185.8 393.3 185.7 409.6 188.8 425.5C190.3 433 192.2 441.1 195.9 447.9C197.4 450.7 199.9 453.9 203.3 454.4C206.9 454.9 208.6 451.8 209.7 448.9C215.8 432.8 216.7 415.3 217.7 398.3C218.7 380.5 219.3 362.6 220.6 344.8C221.3 335.9 222.2 327.1 223.4 318.2C224 313.9 224.7 309.6 225.5 305.4C225.9 303.3 226.3 301.1 226.8 299C227.2 296.9 227.5 294.5 228.4 292.5C230.5 287.9 233 295.5 233.5 297.1C235 301.2 236.4 305.4 237.6 309.6C239.9 317.8 241.6 326.1 243.1 334.5C246.1 351.5 248.4 368.7 252.3 385.6C256.2 402.8 261.4 419.6 267.7 436.1C269 439.4 270.2 442.9 273 445.3C274.1 446.3 275.5 447.1 277 447.2C278.7 447.4 279.6 445.6 280.5 444.4C284.9 438.5 287.3 431.4 288.9 424.2C290.6 416.3 291.4 408.2 292.3 400.1C293.3 391.1 294.2 382.2 295.1 373.2C297 355.3 299 337.4 302.8 319.7C304.3 312.9 305.6 305.1 311.2 300.2C310.2 299.7 309.1 299.2 308.1 298.6C324.9 333.4 328.6 372.9 345.6 407.7C347.5 411.6 355.9 431 362 422.4C364.5 418.8 366.2 414.2 367.7 410.1C369.3 405.8 370.6 401.3 371.7 396.8C376 378.5 376.1 359.5 377.8 340.8C378.7 330.2 380.1 319.6 382.9 309.3C385.4 300.1 389.1 289.5 398.1 284.8C397.1 284.3 396 283.8 395 283.2C409.4 312.7 406.4 346.8 411.7 378.5C413 386.4 414.8 394.2 417.4 401.8C418.5 404.9 420 409.1 424 409.3C427.1 409.4 429.4 406 430.4 403.5C433.2 396.3 434.4 388.2 435.4 380.6C436.4 372.7 437 364.7 437.6 356.7C439 339 440.8 320.9 449.5 305.1C450.5 303.3 447 299.8 445.9 301.8C430.9 329 435.8 361.3 429.3 390.8C428.5 394.3 427.9 398.4 426.1 401.6C425.5 402.8 424.5 404.2 423.2 404.7C422.3 405 422.4 405 422 404.4C421.5 403.7 421.3 402.4 421 401.5C418.5 394.2 416.8 386.6 415.6 379C413.1 363.6 412.5 348 410.9 332.5C409.1 315.3 406.1 298.1 398.4 282.4C397.9 281.3 396.5 280.2 395.3 280.8C387.7 284.6 383.8 292.7 381.2 300.4C378.3 309 376.5 318 375.3 327C372.9 345.3 373 363.8 370.3 382.1C369 391.1 367 400 363.7 408.4C362.9 410.3 362.1 412.2 361.2 414C360.5 415.4 359.2 419.3 357.5 419.8C355.9 420.3 354.7 417.3 354.1 416.2C352.9 414.1 351.7 412 350.6 409.8C342.1 393.3 336.8 375.3 331.8 357.5C326.1 337.2 320.7 316.7 311.5 297.7C311.1 296.9 309.4 295.2 308.4 296.1C302.9 300.9 301.2 308.1 299.6 314.9C297.6 323.8 296.1 332.8 294.8 341.8C292.3 359.8 290.8 377.9 288.8 395.9C287.9 404 287.1 412.2 285.5 420.3C284 427.6 281.6 434.8 277.2 440.8C276.9 441.3 276.2 442.5 275.7 442.5C275.2 442.5 274.6 441.9 274.3 441.5C273.2 440.3 272.7 438.6 272.1 437.1C270.5 433 269 428.8 267.5 424.6C264.6 416.2 262 407.8 259.7 399.2C255.1 382.1 252.1 364.8 249.3 347.3C246.6 330.4 243.6 313.3 237.6 297.1C236.4 293.8 235.2 290.1 232.3 287.8C229.6 285.6 226.2 286 224.9 289.4C223.5 293.1 223 297.3 222.2 301.2C221.3 305.7 220.6 310.2 219.9 314.7C217.4 332.4 216.3 350.2 215.4 368C214.5 385.6 214.2 403.3 212 420.8C210.9 429.4 209.3 438.1 206 446.1C205.5 447.4 204.8 449.1 203.3 449.5C201.6 450 200.4 448.4 199.6 447.1C197.6 443.8 196.5 439.8 195.4 436.2C185.9 404.8 192.7 371.4 187.1 339.4C185.9 332.7 184.4 325.9 180.2 320.4C176.6 315.7 170.5 312.4 164.6 314.7C158.9 316.9 155.5 322.8 153.3 328.1C150.2 335.8 148.3 344.1 146.3 352.1C144.1 360.8 142.3 369.5 140.8 378.3C139.3 387 138.3 395.7 137 404.3C136.4 408.3 135.7 412.3 134.6 416.2C133.6 420 132.5 424.7 130.1 428C127.9 431 123.7 430.5 121.7 427.6C119.5 424.4 118.8 419.9 118 416.2C114 399 112.5 381.4 110.8 363.9C110 355.1 109.1 346.4 107.8 337.7C107.2 333.2 106.4 328.8 105.6 324.4C105 321.1 104.3 317.8 102.1 315.2C97.0002 309.1 88.8002 314.1 83.9002 317.9C78.1002 322.4 74.1002 328.7 72.0002 335.7C69.5002 344 69.3002 353 68.8002 361.6C68.3002 370.7 68.0002 379.8 68.1002 389C68.2002 398 68.5002 406.9 69.1002 415.8C68.8002 418.3 72.8002 420.6 72.6002 417.6Z" fill="white"/>
</g>
<mask id="mask3_201_680" style="mask-type:luminance" maskUnits="userSpaceOnUse" x="51" y="51" width="398" height="398">
<path d="M250 448.5C359.629 448.5 448.5 359.629 448.5 250C448.5 140.371 359.629 51.5 250 51.5C140.371 51.5 51.5 140.371 51.5 250C51.5 359.629 140.371 448.5 250 448.5Z" fill="white"/>
</mask>
<g mask="url(#mask3_201_680)">
<path d="M75.1999 400.9C77.8999 376.6 82.7999 352.6 89.7999 329.3C92.8999 318.8 95.8999 307.5 102.3 298.5C104.9 294.8 109.3 289 114.3 292.4C116.4 293.8 117.8 296.1 119 298.2C120.4 300.6 121.6 303.1 122.7 305.6C127.4 316.1 130.3 327.2 133.6 338.2C137.1 349.7 141.2 361 145.8 372.1C147 374.9 148.2 377.8 149.5 380.6C150.6 383 151.7 385.6 153.4 387.7C156.3 391.2 160.7 392 164.7 389.6C168.7 387.1 171.2 383.1 173.1 378.9C175.1 374.6 176.7 370.1 178.1 365.5C183.6 347.5 185.7 327.4 196.9 311.6C198.3 309.7 199.8 307.8 201.4 306.1C201.1 306.2 200.8 306.2 200.4 306.3C203.6 307.4 204.5 310.6 205.3 313.7C206.5 318.4 207.5 323.2 208.6 328C210.8 337.5 213 347.1 215.2 356.6C219.7 375.9 224.1 395.2 228.6 414.5C231.1 425.4 233.6 436.4 236.2 447.3C236.4 448 237.5 451.1 238.8 450.3C246.3 445.3 247.2 434.6 248.4 426.4C250.1 415.6 251.2 404.7 252 393.9C253.6 372.2 254.1 350.3 256.6 328.7C257.5 320.7 258 311.4 263.2 304.8C265.2 302.2 268.2 300.3 271.6 300.4C275.7 300.5 278.8 303.3 281 306.5C283.4 310 284.9 314.1 286.4 318.1C288.2 322.8 289.7 327.7 291.2 332.5C294 342.1 296.2 351.8 298.4 361.5C303.3 383.4 307.9 405.4 317.3 425.9C317.7 426.7 318.4 427.9 319.5 427.6C326.3 426.2 327.7 417.1 328.9 411.5C330.9 402.8 332.6 394 334.1 385.2C337.2 367.6 340 350 343.9 332.6C345.9 323.9 348.1 315.3 350.9 306.9C352 303.5 352.9 299.2 355.3 296.3C358.3 292.6 362.1 295.3 364.5 298.1C373.9 308.8 379.1 322.3 384 335.5C389.7 350.7 395.3 366.3 405.9 378.9C406.2 379.3 407.3 380.1 407.6 379.4C414.3 367.1 415.7 353 416.6 339.2C417 332.2 417.4 325.1 418.2 318.1C419.1 310.8 420.8 303.5 423.1 296.5C425.8 288.6 429.4 281.1 433.9 274.1C434.8 272.7 432.2 268.5 431.3 270C423.5 282.3 418.2 296.2 415.8 310.6C413.5 324.6 414 338.9 411.9 352.9C410.7 360.7 408.7 368.3 404.9 375.2C405.5 375.4 406.1 375.5 406.6 375.7C397.1 364.4 392 350.3 386.9 336.7C381.8 323 376.6 309.1 367.4 297.6C365.2 294.9 362.7 291.5 359.3 290.3C355.9 289 353 290.9 351.3 293.9C349.4 297.5 348.3 301.6 347.1 305.4C345.8 309.6 344.5 313.9 343.4 318.2C338.8 335.8 335.8 353.7 332.7 371.6C331 381.6 329.2 391.6 327.1 401.6C326.1 406.2 325.3 411 323.8 415.5C322.7 418.9 320.8 422.3 317.1 423.1C317.8 423.7 318.6 424.3 319.3 424.8C310.7 406.1 306.3 385.9 301.9 365.9C299.7 356 297.5 346 294.8 336.2C292.2 326.8 289.4 317 284.9 308.3C281.5 301.6 275.2 293.6 266.7 296C259.7 298 256.7 306.4 255.3 312.7C254.3 317.5 253.8 322.5 253.3 327.4C252.7 332.9 252.2 338.5 251.8 344C251 355.1 250.4 366.2 249.8 377.3C249.1 389.8 248.2 402.3 246.6 414.7C245.8 420.8 244.9 427 243.6 433C242.5 437.7 240.9 442.7 236.6 445.5C237.5 446.5 238.3 447.5 239.2 448.5C229.8 407.7 220.4 366.9 211 326.1C209.8 321.1 209 315.8 207.3 310.9C206 307.1 203.8 303.1 199.8 301.7C199.4 301.6 199.1 301.6 198.8 301.9C185.5 316.2 182.1 336.2 177.3 354.4C176.1 359 174.7 363.7 173.1 368.2C171.5 372.7 169.7 377.5 166.6 381.3C164.1 384.4 158.7 388.6 154.9 385C153.1 383.3 152.2 380.4 151.2 378.2C149.9 375.4 148.7 372.6 147.5 369.7C142.8 358.4 138.8 346.9 135.3 335.2C132 324.2 128.9 313.1 124 302.7C120.6 295.4 112.8 280.3 103.4 289.6C95.7999 297.2 92.2999 308 89.0999 318C81.5999 341.3 76.1999 365.2 72.9999 389.4C72.5999 392.4 72.1999 395.4 71.8999 398.4C71.9999 400 74.8999 403.7 75.1999 400.9Z" fill="white"/>
</g>
<mask id="mask4_201_680" style="mask-type:luminance" maskUnits="userSpaceOnUse" x="51" y="51" width="398" height="398">
<path d="M250 448.5C359.629 448.5 448.5 359.629 448.5 250C448.5 140.371 359.629 51.5 250 51.5C140.371 51.5 51.5 140.371 51.5 250C51.5 359.629 140.371 448.5 250 448.5Z" fill="white"/>
</mask>
<g mask="url(#mask4_201_680)">
<path d="M118.5 48.1001C127.6 64.6001 128.3 83.9001 131.9 102C133.7 110.9 136.1 119.8 140.7 127.8C141.8 129.7 143 131.7 144.4 133.4C146 135.3 147.6 135.8 149.9 134.9C152.5 133.8 154.2 132.2 155.7 129.9C157.2 127.8 158.5 125.5 159.8 123.3C169.9 105.3 173.8 84.9001 181.5 65.9001C184.8 57.7001 189.3 49.0001 196.5 43.5001C198 42.4001 199.6 41.4001 201.4 40.9001C204 40.1001 206 41.1001 207.1 43.5001C208 45.5001 208.2 47.7001 208.5 49.8001C208.8 52.4001 209.2 55.1001 209.5 57.7001C210.7 68.1001 211.7 78.5001 213.8 88.7001C214.9 93.9001 216.2 99.0001 218 103.9C219.7 108.6 221.7 113.4 224.4 117.6C225.6 119.4 227.3 120.9 229.6 120.5C231.8 120.2 234.1 118.8 235.9 117.4C239.5 114.5 241 109.6 242.5 105.4C245.7 96.0001 247.1 86.1001 248.2 76.2001C249.3 66.2001 250.1 56.1001 252 46.1001C253 41.1001 254.2 36.2001 256 31.4001C256.8 29.1001 257.8 26.8001 258.9 24.7001C259.4 23.7001 259.9 22.6001 260.5 21.7001C260.6 21.5001 260.8 21.3001 261 21.0001C261.6 20.0001 258.4 21.5001 259.3 21.9001C259.9 22.1001 260.3 22.0001 260.9 22.4001C262.6 23.5001 263.5 25.6001 264 27.4001C264.8 30.2001 265.6 33.0001 266.3 35.8001C267.9 41.6001 269.4 47.5001 270.9 53.4001C273.8 64.9001 276.4 76.4001 278.9 87.9001C280.1 93.6001 281.1 99.3001 282.4 104.9C283.5 109.6 285.6 114.5 290.1 116.9C294.3 119.1 298.7 117.5 302.4 115.1C305.9 112.8 308 109.3 309.3 105.3C310.8 100.8 311.3 95.9001 311.8 91.2001C312.3 86.0001 312.6 80.8001 312.8 75.6001C313.2 65.4001 313.5 55.1001 315.8 45.1001C316.9 40.1001 318.6 35.3001 321 30.7001C319.6 31.5001 318.1 32.2001 316.7 33.0001C330.5 44.9001 334.1 63.8001 337.5 80.8001C339.3 89.9001 341.3 99.2001 345 107.7C346.9 111.9 349.2 116 352.1 119.6C353.4 121.3 355 123 357.1 123.7C359 124.4 360.9 123.9 362.7 123.1C367.1 121.1 369.9 117.9 371.6 113.4C373.3 109 374 104.3 374.3 99.6001C375 89.6001 374.2 79.6001 376.1 69.7001C378 59.9001 381.8 50.4001 387.3 42.0001C387.9 41.1001 388.8 40.3001 389.4 39.4001C389.9 38.7001 387.6 39.7001 388.6 39.9001C388.8 39.9001 389 39.9001 389.3 39.9001C389.9 40.0001 390.5 40.2001 391 40.6001C392.7 41.9001 393.3 44.4001 394 46.3001C395.5 50.8001 396.6 55.5001 397.4 60.2001C400.7 79.3001 399.7 99.2001 406.2 117.6C407 119.8 407.9 122 408.9 124.2C409.1 124.6 413.5 122.4 413.3 121.8C405 104 405.3 84.0001 402.9 64.9001C402.3 60.1001 401.5 55.4001 400.4 50.8001C399.8 48.4001 399.2 46.0001 398.4 43.7001C397.8 41.8001 397.2 39.5001 395.5 38.2001C393.9 36.9001 391.9 37.5001 390.2 38.2001C388 39.2001 386 40.5001 384.5 42.3001C381.5 45.9001 379.3 50.5001 377.4 54.8001C373.4 63.7001 371.1 73.3001 370.6 83.1001C370.1 93.1001 371.3 103.4 368.3 113.1C367.6 115.3 366.8 117.5 365.6 119.4C365 120.3 364.3 121 363.6 121.9C362.9 122.6 365.6 121.4 364.5 121.4C364.3 121.4 364 121.5 363.8 121.5C363.2 121.5 362.6 121.5 362.1 121.3C359.8 120.7 358.1 118.7 356.7 116.9C355.3 115.1 354 113.2 352.9 111.2C348.2 103.2 345.7 94.1001 343.7 85.0001C339.9 67.8001 337.8 48.8001 326 34.9001C324.6 33.3001 323.1 31.7001 321.5 30.3001C320.9 29.8001 317.5 32.0001 317.2 32.6001C307.8 50.9001 309.9 72.1001 308.1 92.0001C307.6 96.9001 307.1 102 305.7 106.8C305.1 108.8 304.3 110.7 303.2 112.5C302.7 113.3 302.1 114.1 301.4 114.9C301.2 115.1 301 115.2 300.9 115.4C300.4 116 300.5 115 301.6 115.2C301.2 115.1 300.5 115.5 300.1 115.6C295.3 116.1 291.3 112.3 289.3 108.2C287 103.3 286.4 97.7001 285.3 92.4001C283 80.9001 280.4 69.5001 277.6 58.1001C276.2 52.4001 274.8 46.7001 273.3 41.1001C271.9 35.6001 270.6 29.9001 268.8 24.5001C268.2 22.8001 267.2 20.7001 265.4 19.8001C263.5 18.9001 261.2 20.3001 259.6 21.2001C257.5 22.5001 256.5 24.1001 255.4 26.3001C254.3 28.5001 253.3 30.7001 252.5 33.0001C249.1 42.1001 247.5 51.8001 246.3 61.4001C245.1 71.3001 244.4 81.3001 242.7 91.1001C241.9 96.1001 240.8 101 239.3 105.8C238.6 108.1 237.7 110.5 236.8 112.7C236.4 113.7 235.9 114.8 235.4 115.7C234.8 116.8 234 117.6 233.3 118.5C232.7 119.3 232.6 117.7 234.5 118C234.3 118 234.1 118.1 233.9 118.1C233.3 118.1 232.7 118 232.1 117.7C231 117.2 230.3 116.3 229.6 115.3C228.2 113.3 227.1 111 226 108.7C223.8 104.1 222.1 99.3001 220.8 94.4001C218.1 84.5001 216.7 74.2001 215.5 64.0001C214.9 58.8001 214.4 53.7001 213.7 48.5001C213.3 45.2001 213.2 39.1001 209.1 38.1001C206.9 37.6001 204.3 38.8001 202.3 39.7001C200.1 40.7001 197.9 41.9001 195.9 43.2001C192.3 45.6001 189.2 48.7001 186.6 52.1001C181 59.6001 177.6 68.4001 174.6 77.2001C171.3 86.8001 168.4 96.6001 164.9 106.2C161.5 115.6 157.3 125 151.4 133.1C151.3 133.3 151.1 133.4 151 133.6C150.4 134.6 153.7 133.2 152.7 132.8C152.1 132.6 151.6 132.6 151.1 132.2C150.1 131.5 149.4 130.5 148.7 129.6C147.4 127.7 146.1 125.7 145.1 123.7C143 119.8 141.4 115.6 140.1 111.4C134.7 93.8001 134.7 75.1001 128.9 57.6001C127.5 53.4001 125.8 49.4001 123.7 45.6001C122.7 45.3001 118.3 47.7001 118.5 48.1001Z" fill="white"/>
</g>
<mask id="mask5_201_680" style="mask-type:luminance" maskUnits="userSpaceOnUse" x="51" y="51" width="398" height="398">
<path d="M250 448.5C359.629 448.5 448.5 359.629 448.5 250C448.5 140.371 359.629 51.5 250 51.5C140.371 51.5 51.5 140.371 51.5 250C51.5 359.629 140.371 448.5 250 448.5Z" fill="white"/>
</mask>
<g mask="url(#mask5_201_680)">
<path d="M298.4 53.1001C301.1 75.4001 307.3 97.2001 317 117.5C318.9 121.6 321.9 126.6 327.2 124.9C332 123.3 334.8 117.4 336.3 113C337.9 108.2 338.5 103.1 339.2 98.1001C340.1 92.1001 340.9 86.1001 341.8 80.0001C343.8 66.3001 345.7 52.6001 347.7 38.9001C347.9 37.8001 345.9 38.0001 345.3 38.2001C344.2 38.6001 343.2 39.4001 343 40.5001C341.4 51.9001 339.7 63.3001 338.1 74.6001C337.3 80.3001 336.5 86.0001 335.6 91.7001C334.8 96.9001 334.2 102.2 333.2 107.4C332.4 111.8 331.1 116.2 328.5 119.9C328.2 120.4 327.5 121.6 326.9 121.7C326.3 121.9 325.5 121.2 325 120.9C323.3 119.6 322.3 117.6 321.4 115.7C316.8 106.2 313 96.3001 310 86.2001C306.6 74.8001 304.2 63.2001 302.8 51.4001C302.7 49.3001 298.2 51.2001 298.4 53.1001Z" fill="white"/>
</g>
<mask id="mask6_201_680" style="mask-type:luminance" maskUnits="userSpaceOnUse" x="51" y="51" width="398" height="398">
<path d="M250 448.5C359.629 448.5 448.5 359.629 448.5 250C448.5 140.371 359.629 51.5 250 51.5C140.371 51.5 51.5 140.371 51.5 250C51.5 359.629 140.371 448.5 250 448.5Z" fill="white"/>
</mask>
<g mask="url(#mask6_201_680)">
<path d="M216.8 44.6999C220.6 56.1999 224.9 67.5999 229.6 78.7999C231.9 84.2999 234.3 89.7999 236.8 95.1999C239.1 100.1 241.5 105 244.7 109.4C247.6 113.4 251.6 118.5 257 118.3C261.8 118.1 264.8 114 266.5 110C267.4 107.8 267.9 105.4 268.5 103.1C269.2 100.2 269.8 97.1999 270.5 94.2999C271.8 88.2999 273 82.2999 274.1 76.2999C276.6 62.6999 278.6 49.0999 280.1 35.3999C280.2 34.0999 279 33.3999 277.9 33.4999C276.6 33.5999 275.5 34.6999 275.4 35.8999C272.8 58.7999 268.9 81.4999 263.7 103.9C263.2 106 262.7 108.1 261.8 110C261.2 111.4 260.2 112.9 259.1 113.5C258.7 113.8 258.2 114 257.4 113.9C256.4 113.9 255.4 113.3 254.7 112.8C252.7 111.4 251.1 109.4 249.6 107.4C246.5 103.4 244.2 98.8999 242 94.2999C239.6 89.2999 237.4 84.1999 235.2 79.0999C230.2 67.2999 225.7 55.2999 221.7 43.1999C220.6 40.3999 216 42.1999 216.8 44.6999Z" fill="white"/>
</g>
<mask id="mask7_201_680" style="mask-type:luminance" maskUnits="userSpaceOnUse" x="51" y="51" width="398" height="398">
<path d="M250 448.5C359.629 448.5 448.5 359.629 448.5 250C448.5 140.371 359.629 51.5 250 51.5C140.371 51.5 51.5 140.371 51.5 250C51.5 359.629 140.371 448.5 250 448.5Z" fill="white"/>
</mask>
<g mask="url(#mask7_201_680)">
<path d="M152.1 64.3C156.9 76.1 161.6 88 166.4 99.8C170.2 109.2 175.7 120.4 186.3 123.5C190.8 124.8 195.7 124.2 199.3 121C203 117.6 204.7 112.4 206.3 107.8C210.5 96.2 214.3 84.4 217.7 72.4C221.4 58.9 224.6 45.3 227.1 31.5C227.3 30.7 226 29.4 225.6 28.8C225.4 28.6 224.1 27.2 224 27.8C219.7 51 213.7 73.8 206 96.1C204.2 101.3 202.6 106.7 200.1 111.6C198 115.7 194.8 119.1 190.1 119.9C185.6 120.6 180.6 118.9 177.2 115.9C173.6 112.8 171.7 108.2 169.9 104C164.7 91.6 159.8 79.1 154.8 66.6C154.4 65.6 153.5 64.5 152.7 63.8C152.1 63.3 151.8 63.4 152.1 64.3Z" fill="white"/>
</g>
</svg>
