<svg width="500" height="500" viewBox="0 0 500 500" fill="none" xmlns="http://www.w3.org/2000/svg">
<g clip-path="url(#clip0_201_665)">
<mask id="mask0_201_665" style="mask-type:luminance" maskUnits="userSpaceOnUse" x="51" y="51" width="398" height="398">
<path d="M250 448.5C359.629 448.5 448.5 359.629 448.5 250C448.5 140.371 359.629 51.5 250 51.5C140.371 51.5 51.5 140.371 51.5 250C51.5 359.629 140.371 448.5 250 448.5Z" fill="white"/>
</mask>
<g mask="url(#mask0_201_665)">
<path d="M82.4999 134.7C104.9 122.6 127.8 110.1 152.8 104.5C164.9 101.8 177.3 100.7 189.7 102C201.9 103.3 213.3 107.1 223.9 113.2C234.1 119.1 243.4 126.4 253.4 132.6C263.5 138.9 274.3 143.7 286 146C309.3 150.6 333.9 146.3 354.6 134.7C373.5 124.1 389.1 107.7 399.6 88.7999C400.9 86.4999 402.1 84.0998 403.2 81.6998C403.7 80.5998 402.4 79.6998 401.5 79.6998C400.2 79.5998 399.1 80.3998 398.5 81.4998C389.3 100.8 374.8 117.7 356.7 129.1C337.2 141.4 313.5 146.6 290.7 142.8C279 140.9 268.1 136.4 258 130.2C248 124.1 238.8 116.9 228.7 110.9C218.4 104.8 207.4 100.5 195.5 98.6998C183.4 96.7998 170.9 97.2998 158.8 99.4998C133.6 103.9 110.5 115.4 88.0999 127.4C85.2999 128.9 82.5999 130.4 79.7999 131.9C78.8999 132.4 78.1999 133.7 78.8999 134.6C79.9999 135.6 81.5999 135.2 82.4999 134.7Z" fill="white"/>
</g>
<mask id="mask1_201_665" style="mask-type:luminance" maskUnits="userSpaceOnUse" x="51" y="51" width="398" height="398">
<path d="M250 448.5C359.629 448.5 448.5 359.629 448.5 250C448.5 140.371 359.629 51.5 250 51.5C140.371 51.5 51.5 140.371 51.5 250C51.5 359.629 140.371 448.5 250 448.5Z" fill="white"/>
</mask>
<g mask="url(#mask1_201_665)">
<path d="M112.4 93.1002C130.8 84.9002 150.8 79.2002 171.1 79.3002C181.5 79.3002 191.5 81.3002 201.5 84.3002C211.5 87.3002 221.6 90.5002 231.4 94.3002C241 98.0002 249.9 103 258.9 108C267.7 112.8 276.6 116.9 286.4 119.4C305.2 124.2 325.5 123.6 343.6 116.4C359.5 110.1 373.6 99.0002 383.4 85.0002C384.6 83.3002 385.8 81.5002 386.9 79.6002C386.9 79.6002 382.5 77.7002 382 78.6002C373 93.5002 359.7 105.6 344 113C327 121 307.1 123.6 288.8 119.2C279.1 116.9 270.2 112.3 261.5 107.5C252.5 102.5 243.6 97.8002 234 94.1002C224.2 90.4002 214.2 87.2002 204.1 84.2002C194.1 81.2002 183.8 78.9002 173.3 78.3002C153.2 77.1002 133.2 81.6002 114.6 89.1002C112.3 90.0002 110 91.0002 107.7 92.0002C107.3 92.2002 109.2 92.8002 109.3 92.8002C110.1 92.9002 111.6 93.5002 112.4 93.1002Z" fill="white"/>
</g>
<mask id="mask2_201_665" style="mask-type:luminance" maskUnits="userSpaceOnUse" x="51" y="51" width="398" height="398">
<path d="M250 448.5C359.629 448.5 448.5 359.629 448.5 250C448.5 140.371 359.629 51.5 250 51.5C140.371 51.5 51.5 140.371 51.5 250C51.5 359.629 140.371 448.5 250 448.5Z" fill="white"/>
</mask>
<g mask="url(#mask2_201_665)">
<path d="M160.9 66.8998C175.2 63.8998 190 64.3998 204.3 66.9998C219.1 69.6998 233.1 75.0998 246.7 81.4998C260.3 87.8998 273.9 94.8998 288.6 98.4998C302.5 101.9 317.8 102.3 331.3 96.7998C343.2 91.9998 353.6 82.1998 356.3 69.2998C356.3 69.0998 351.6 68.7998 351.3 69.8998C348.9 81.3998 340.2 90.4998 329.9 95.4998C317.5 101.5 303.5 100.4 290.6 96.8998C276 92.8998 262.6 85.7998 248.9 79.3998C235.7 73.2998 222 68.2998 207.7 65.7998C191.4 62.8998 174.6 62.9998 158.3 66.3998C157.8 66.4998 156.7 66.6998 157.5 67.0998C158.3 67.4998 160.1 66.9998 160.9 66.8998Z" fill="white"/>
</g>
<mask id="mask3_201_665" style="mask-type:luminance" maskUnits="userSpaceOnUse" x="51" y="51" width="398" height="398">
<path d="M250 448.5C359.629 448.5 448.5 359.629 448.5 250C448.5 140.371 359.629 51.5 250 51.5C140.371 51.5 51.5 140.371 51.5 250C51.5 359.629 140.371 448.5 250 448.5Z" fill="white"/>
</mask>
<g mask="url(#mask3_201_665)">
<path d="M190 51.8001C210.9 49.6001 233 49.5001 252.8 57.2001C257.6 59.1001 262.3 61.5001 266.6 64.3001C270.9 67.1001 274.9 70.3001 279.1 73.1001C283.2 75.8001 287.6 78.2001 292.5 79.3001C297.7 80.4001 302.8 79.6001 307.6 77.6001C313 75.3001 318.3 71.8001 322.9 68.1001C326.9 64.8001 330.5 60.5001 330.5 55.0001C330.5 53.9001 329.7 52.7001 328.9 52.0001C328.4 51.6001 327.2 51.0001 327.2 52.1001C327.2 56.9001 323.9 60.8001 320.4 63.7001C316.5 67.0001 311.9 69.9001 307.4 72.2001C302.7 74.6001 297.5 76.1001 292.1 75.3001C287.3 74.6001 282.9 72.2001 278.9 69.6001C274.8 66.9001 270.9 63.9001 266.9 61.1001C262.6 58.2001 258 55.7001 253.2 53.7001C243.7 49.7001 233.5 47.6001 223.3 46.7001C211.5 45.6001 199.5 46.2001 187.7 47.4001C186.2 47.7001 188.5 52.0001 190 51.8001Z" fill="white"/>
</g>
<mask id="mask4_201_665" style="mask-type:luminance" maskUnits="userSpaceOnUse" x="51" y="51" width="398" height="398">
<path d="M250 448.5C359.629 448.5 448.5 359.629 448.5 250C448.5 140.371 359.629 51.5 250 51.5C140.371 51.5 51.5 140.371 51.5 250C51.5 359.629 140.371 448.5 250 448.5Z" fill="white"/>
</mask>
<g mask="url(#mask4_201_665)">
<path d="M51.5001 170.3C76.2001 156.8 102.7 145.9 130.1 139C155.8 132.5 184 129.9 209 140.1C221.7 145.3 232.8 153.7 245.1 159.7C257.2 165.6 270 169.6 283.2 172.3C296.6 174.9 310.2 176.1 323.8 176.3C337.8 176.5 351.5 175.7 364.4 169.8C376.2 164.4 387 156.7 397.3 148.8C407.3 141.2 416.8 132.7 424 122.3C425.7 119.8 427.3 117.1 428.7 114.4C429.9 112.1 425.3 110.4 424 112.7C418.1 123.8 409.2 133 399.5 140.9C389.7 149 379.1 156.6 367.9 162.8C362 166.1 355.7 168.8 349.1 170.2C342.2 171.7 335 172 328 172C314.6 172 301.1 171.1 287.8 168.8C274.6 166.5 261.6 162.8 249.4 157.1C237 151.3 225.9 143 213.4 137.4C189 126.4 161.1 127.5 135.4 133.1C108.3 139 82.0001 149.3 57.4001 161.8C54.3001 163.4 51.2001 165 48.1001 166.7C47.0001 167.3 47.3001 168.9 48.0001 169.6C49.0001 170.8 50.4001 170.9 51.5001 170.3Z" fill="white"/>
</g>
<mask id="mask5_201_665" style="mask-type:luminance" maskUnits="userSpaceOnUse" x="51" y="51" width="398" height="398">
<path d="M250 448.5C359.629 448.5 448.5 359.629 448.5 250C448.5 140.371 359.629 51.5 250 51.5C140.371 51.5 51.5 140.371 51.5 250C51.5 359.629 140.371 448.5 250 448.5Z" fill="white"/>
</mask>
<g mask="url(#mask5_201_665)">
<path d="M34.6999 202.8C62.0999 186.5 92.7999 176.1 124.5 172.2C140.5 170.2 157 169.6 173 171.9C181.4 173.1 189.6 175.4 197.5 178.7C205.1 181.9 212.4 185.9 219.8 189.7C248.1 204 278.9 214.2 310.7 216.2C339.2 218 368.1 212.8 393.3 199.1C415.8 186.8 435.3 168 445.7 144.3C447 141.4 448.1 138.4 449.1 135.3C449.6 133.8 444.7 134.1 444.3 135.6C436.1 160.5 418.1 180.8 396 194.5C371.9 209.4 343.9 215.5 315.8 214.2C283.6 212.7 252.4 202.5 223.9 188C209.3 180.6 195.1 173.1 178.8 170.3C163 167.6 146.6 167.9 130.7 169.4C99.4999 172.4 68.7999 181.5 41.0999 196.3C37.6999 198.1 34.2999 200 30.9999 202C30.0999 202.5 30.4999 203.2 31.2999 203.5C32.1999 203.8 33.6999 203.4 34.6999 202.8Z" fill="white"/>
</g>
<mask id="mask6_201_665" style="mask-type:luminance" maskUnits="userSpaceOnUse" x="51" y="51" width="398" height="398">
<path d="M250 448.5C359.629 448.5 448.5 359.629 448.5 250C448.5 140.371 359.629 51.5 250 51.5C140.371 51.5 51.5 140.371 51.5 250C51.5 359.629 140.371 448.5 250 448.5Z" fill="white"/>
</mask>
<g mask="url(#mask6_201_665)">
<path d="M40.9998 235.5C67.5998 221.4 96.3998 210.3 126.4 206.7C141.3 204.9 156.3 204.9 171.1 207.7C186.1 210.5 200.5 215.9 214.7 221.6C228.8 227.3 242.8 233.3 257.5 237.4C272.3 241.6 287.6 243.7 302.9 244.6C318.6 245.4 334.4 244.8 350 243.4C365.4 242 381.3 240.5 396.3 236.4C410.7 232.5 423.2 225 434.7 215.7C446.2 206.4 456.8 195.9 466.3 184.5C468.7 181.6 471 178.7 473.2 175.7C473.3 175.5 470.9 175.2 470.7 175.2C470.1 175.2 468.6 174.9 468.2 175.4C459.1 187.5 448.9 198.7 437.5 208.7C426.4 218.5 414.4 227.7 400.4 233C385.6 238.6 369.4 240.2 353.8 241.9C337.8 243.6 321.8 244.6 305.7 243.9C289.5 243.2 273.5 240.8 258 236.1C243.6 231.7 229.7 225.7 215.7 220.1C201.9 214.6 187.8 209.6 173.1 207C159 204.5 144.6 204 130.4 205.2C101 207.5 72.4998 217 46.0998 230C42.7998 231.6 39.4998 233.3 36.1998 235.1C35.7998 235.3 37.7998 235.7 37.8998 235.7C38.7998 235.7 40.1998 236 40.9998 235.5Z" fill="white"/>
</g>
<mask id="mask7_201_665" style="mask-type:luminance" maskUnits="userSpaceOnUse" x="51" y="51" width="398" height="398">
<path d="M250 448.5C359.629 448.5 448.5 359.629 448.5 250C448.5 140.371 359.629 51.5 250 51.5C140.371 51.5 51.5 140.371 51.5 250C51.5 359.629 140.371 448.5 250 448.5Z" fill="white"/>
</mask>
<g mask="url(#mask7_201_665)">
<path d="M44.6002 262.7C66.0002 245.9 92.4002 236.5 119.4 234C146.9 231.4 174.7 235.8 200.2 246.2C215.2 252.3 229.7 259.7 245.4 264.3C260.8 268.7 276.7 270.8 292.7 271.9C309.1 273 325.6 273.1 342 272.9C358.4 272.7 374.9 271.6 390.9 268.2C417.5 262.6 443.8 250.1 461.2 228.5C463.3 225.9 465.2 223.1 467 220.3C467.5 219.4 467.2 219.1 466.3 219.1C465.3 219.2 463.9 220.2 463.3 221C448.5 244.6 422.8 258.3 396.3 264.4C380.2 268.1 363.6 269.3 347.1 269.7C330.8 270 314.4 269.8 298.2 268.9C281.9 268 265.7 266 250 261.5C234.5 257.1 220 249.8 205.1 243.7C179.8 233.3 152.4 228.6 125.1 230.7C98.6002 232.7 72.4002 241.1 50.4002 256.1C47.7002 257.9 45.1002 259.9 42.5002 261.9C42.0002 262.3 41.0002 263.2 41.7002 263.9C42.3002 264.3 44.2002 263 44.6002 262.7Z" fill="white"/>
</g>
<mask id="mask8_201_665" style="mask-type:luminance" maskUnits="userSpaceOnUse" x="51" y="51" width="398" height="398">
<path d="M250 448.5C359.629 448.5 448.5 359.629 448.5 250C448.5 140.371 359.629 51.5 250 51.5C140.371 51.5 51.5 140.371 51.5 250C51.5 359.629 140.371 448.5 250 448.5Z" fill="white"/>
</mask>
<g mask="url(#mask8_201_665)">
<path d="M34.1998 296.4C61.3998 282.8 90.9998 273.6 121.4 271.1C136.9 269.8 152.6 270.4 167.9 272.9C183.8 275.5 199.3 280 214.8 284.4C230.3 288.8 245.8 293 261.6 296C277.5 299.1 293.5 301.3 309.6 303C325.9 304.7 342.2 305.9 358.5 306.6C373.9 307.3 389.4 307.1 404.6 303.9C430.9 298.5 455.8 285.5 475.2 267C477.5 264.8 479.8 262.5 481.9 260.1C482.7 259.2 478.6 256.6 477.4 257.9C458.9 278 434.5 292.5 408.1 299.4C393.6 303.2 378.8 304.3 363.8 303.9C347.4 303.5 331 302.3 314.7 300.8C298.4 299.3 282.1 297.2 265.9 294.3C249.9 291.4 234.1 287.5 218.4 283C203.1 278.7 187.8 274.1 172.1 271.1C157.2 268.2 142.1 267 127 267.6C96.9998 268.8 67.3998 276.5 40.0998 288.8C36.6998 290.3 33.2998 292 29.8998 293.6C28.7998 294.4 32.6998 297.2 34.1998 296.4Z" fill="white"/>
</g>
<mask id="mask9_201_665" style="mask-type:luminance" maskUnits="userSpaceOnUse" x="51" y="51" width="398" height="398">
<path d="M250 448.5C359.629 448.5 448.5 359.629 448.5 250C448.5 140.371 359.629 51.5 250 51.5C140.371 51.5 51.5 140.371 51.5 250C51.5 359.629 140.371 448.5 250 448.5Z" fill="white"/>
</mask>
<g mask="url(#mask9_201_665)">
<path d="M56.3001 329.4C69.7001 323.6 83.3001 318.4 97.3001 313.9C111.4 309.4 125.9 305.2 140.6 303.5C148 302.6 155.4 302.5 162.8 303.3C170.2 304.1 177.5 305.9 184.7 307.8C199 311.6 213.3 315.6 227.7 319.1C256.5 326.3 285.6 332.4 315.1 336.1C329.7 337.9 344.5 339.1 359.2 339.6C373.7 340 388.4 340 402.8 338.1C416.6 336.3 429.6 332.1 441.9 325.6C453.6 319.4 464.4 311.6 474.9 303.5C477.5 301.5 480.1 299.4 482.8 297.4C485.4 295.4 481.5 294.1 479.7 295.4C458.7 311.9 436.8 328.7 410 333.8C395.6 336.6 380.6 336.7 366 336.4C351.2 336.2 336.5 335.1 321.8 333.4C292.3 330 263.1 324 234.2 317C219.9 313.5 205.8 309.7 191.6 305.8C177.4 301.9 163.3 298.9 148.5 299.6C133.8 300.4 119.5 304 105.5 308.1C91.6001 312.2 77.9001 317 64.5001 322.5C61.1001 323.9 57.8001 325.3 54.4001 326.8C53.6001 327.2 52.5001 328.1 53.2001 329.1C53.7001 330.1 55.4001 329.8 56.3001 329.4Z" fill="white"/>
</g>
<mask id="mask10_201_665" style="mask-type:luminance" maskUnits="userSpaceOnUse" x="51" y="51" width="398" height="398">
<path d="M250 448.5C359.629 448.5 448.5 359.629 448.5 250C448.5 140.371 359.629 51.5 250 51.5C140.371 51.5 51.5 140.371 51.5 250C51.5 359.629 140.371 448.5 250 448.5Z" fill="white"/>
</mask>
<g mask="url(#mask10_201_665)">
<path d="M61.6 372.9C72.9 367 83.1 359.4 93.8 352.6C104.6 345.7 115.9 340.1 128.5 337.2C154.4 331.4 181.4 335.8 207 341C235.3 346.7 263.5 352.8 291.9 358.2C320 363.6 348.5 368.6 377.2 368.3C402.5 368 428.4 363.1 450.9 351.1C453.7 349.6 456.5 347.9 459.2 346.2C461.6 344.7 459.4 340.2 457 341.7C435.4 355.6 410 361.8 384.6 363.2C355.9 364.8 327.3 360.1 299.2 354.8C270.6 349.4 242.1 343.4 213.7 337.5C188.2 332.2 161.7 327.1 135.7 330.9C122.9 332.7 110.8 337 99.6 343.3C88.7 349.5 78.6 357.1 67.8 363.6C65.1 365.3 62.3 366.8 59.5 368.3C56.9 369.7 59.1 374.2 61.6 372.9Z" fill="white"/>
</g>
<mask id="mask11_201_665" style="mask-type:luminance" maskUnits="userSpaceOnUse" x="51" y="51" width="398" height="398">
<path d="M250 448.5C359.629 448.5 448.5 359.629 448.5 250C448.5 140.371 359.629 51.5 250 51.5C140.371 51.5 51.5 140.371 51.5 250C51.5 359.629 140.371 448.5 250 448.5Z" fill="white"/>
</mask>
<g mask="url(#mask11_201_665)">
<path d="M96.9002 396.7C111 380.6 129.7 368.8 150.2 362.8C160.6 359.7 171.4 358.2 182.3 358.3C194.5 358.4 206.6 360.5 218.4 363.4C242.1 369.4 264.7 378.9 288.3 385.1C310.9 391.1 334.3 394.3 357.8 393.9C381 393.5 404.2 389.5 425.7 381C428.4 379.9 431.1 378.8 433.8 377.5C435 376.9 431.3 374 429.9 374.6C408.5 384.3 385.3 389.4 361.9 390.5C338.3 391.7 314.5 388.9 291.6 383.3C267.8 377.5 245.2 368 221.6 361.6C199.2 355.5 175.9 352.6 153 358C132.4 362.8 113.3 373.3 98.2002 388.2C96.3002 390.1 94.5002 392 92.7002 394.1C91.7002 395.1 95.8002 397.9 96.9002 396.7Z" fill="white"/>
</g>
<mask id="mask12_201_665" style="mask-type:luminance" maskUnits="userSpaceOnUse" x="51" y="51" width="398" height="398">
<path d="M250 448.5C359.629 448.5 448.5 359.629 448.5 250C448.5 140.371 359.629 51.5 250 51.5C140.371 51.5 51.5 140.371 51.5 250C51.5 359.629 140.371 448.5 250 448.5Z" fill="white"/>
</mask>
<g mask="url(#mask12_201_665)">
<path d="M103.9 426.4C116.1 412.9 131.5 402.5 148.5 396.1C165.4 389.6 183.8 387 201.9 388.9C223.4 391.1 243.1 400.4 263.5 406.8C285 413.5 307.5 417 329.8 419.2C350.7 421.2 372.4 421.2 392.3 414.1C394.8 413.2 397.2 412.3 399.5 411.2C402.4 409.9 400.4 406.1 397.6 407.3C378.3 416.1 356.8 417 336 415.4C325 414.6 313.9 413.1 303 411.3C291.7 409.5 280.4 407.1 269.4 404C248.3 397.9 228.2 388.2 206.3 385.1C187.9 382.5 169 384.6 151.4 390.5C133.9 396.3 117.7 406.1 104.6 419.1C103 420.7 101.4 422.3 99.8999 424C97.7999 426.2 102 428.4 103.9 426.4Z" fill="white"/>
</g>
<mask id="mask13_201_665" style="mask-type:luminance" maskUnits="userSpaceOnUse" x="51" y="51" width="398" height="398">
<path d="M250 448.5C359.629 448.5 448.5 359.629 448.5 250C448.5 140.371 359.629 51.5 250 51.5C140.371 51.5 51.5 140.371 51.5 250C51.5 359.629 140.371 448.5 250 448.5Z" fill="white"/>
</mask>
<g mask="url(#mask13_201_665)">
<path d="M129.6 440.1C145.1 430.6 162.2 424 180.1 420.6C189.4 418.8 198.9 417.9 208.4 418C218.2 418.1 227.8 419.7 237.1 422.8C246.3 425.8 255.1 429.8 264.2 433.1C273.3 436.4 282.5 439.2 292 441.4C310.3 445.7 329.3 447.7 348.1 446.2C365.9 444.8 383.6 440.2 399.5 432C401.5 431 403.5 429.9 405.4 428.7C405.9 428.4 403.1 424.3 402.2 424.9C386.6 434.1 369 439.6 351.1 441.7C332.5 443.9 313.6 442.6 295.3 438.8C285.8 436.9 276.5 434.3 267.4 431.2C258.2 428.1 249.3 424.4 240.3 421C231.2 417.6 221.9 415.1 212.2 414.4C202.7 413.7 193.1 414.3 183.6 415.7C165.7 418.3 148.4 424.1 132.6 432.9C130.6 434 128.6 435.2 126.7 436.3C125.8 436.6 128.7 440.7 129.6 440.1Z" fill="white"/>
</g>
<mask id="mask14_201_665" style="mask-type:luminance" maskUnits="userSpaceOnUse" x="51" y="51" width="398" height="398">
<path d="M250 448.5C359.629 448.5 448.5 359.629 448.5 250C448.5 140.371 359.629 51.5 250 51.5C140.371 51.5 51.5 140.371 51.5 250C51.5 359.629 140.371 448.5 250 448.5Z" fill="white"/>
</mask>
<g mask="url(#mask14_201_665)">
<path d="M159.1 466.6C168.6 448.3 191.7 442.7 210.7 445.4C236.5 449 258.9 463.8 284.4 468.7C298 471.3 312.3 471.2 325 465.2C327.1 464.2 324.5 459.9 322.4 460.9C298.8 472 272.1 461.8 249.6 452.9C237.4 448.1 225.1 443.2 212.2 441C202 439.3 191.4 439.7 181.5 442.8C170.8 446.2 161.1 452.8 155.8 462.9C155.2 464 155.5 465.3 156.4 466.2C156.9 466.8 158.5 467.7 159.1 466.6Z" fill="white"/>
</g>
</g>
<defs>
<clipPath id="clip0_201_665">
<rect width="500" height="500" fill="white"/>
</clipPath>
</defs>
</svg>
