<svg width="500" height="500" viewBox="0 0 500 500" fill="none" xmlns="http://www.w3.org/2000/svg">
<g clip-path="url(#clip0_201_672)">
<mask id="mask0_201_672" style="mask-type:luminance" maskUnits="userSpaceOnUse" x="51" y="51" width="398" height="398">
<path d="M250 448.5C359.629 448.5 448.5 359.629 448.5 250C448.5 140.371 359.629 51.5 250 51.5C140.371 51.5 51.5 140.371 51.5 250C51.5 359.629 140.371 448.5 250 448.5Z" fill="white"/>
</mask>
<g mask="url(#mask0_201_672)">
<path d="M17.5002 458.5C42.6002 425.1 69.7002 393.2 98.5002 363C127.3 332.8 158 304.3 190.1 277.7C208.3 262.7 226.9 248.3 246 234.5C245.4 234.2 244.8 233.9 244.1 233.6C275.4 266.6 312.5 293.2 350.5 317.8C389 342.7 428.8 365.7 466.1 392.5C487 407.5 507 423.7 525.3 441.7C525.7 442.1 526.8 443.1 527.3 442.3C527.8 441.6 526.3 439.9 525.9 439.5C493.5 407.5 455.9 381.5 417.6 357.1C378.9 332.5 339.3 309.3 302.5 281.9C281.9 266.6 262.3 249.9 244.7 231.3C244.4 231 243.4 230 242.8 230.4C208.9 254.8 176.5 281.2 145.7 309.4C114.9 337.6 85.8002 367.6 58.5002 399.3C43.1002 417.2 28.3002 435.5 14.2002 454.3C13.4002 455.8 16.8002 459.3 17.5002 458.5Z" fill="white"/>
</g>
<mask id="mask1_201_672" style="mask-type:luminance" maskUnits="userSpaceOnUse" x="51" y="51" width="398" height="398">
<path d="M250 448.5C359.629 448.5 448.5 359.629 448.5 250C448.5 140.371 359.629 51.5 250 51.5C140.371 51.5 51.5 140.371 51.5 250C51.5 359.629 140.371 448.5 250 448.5Z" fill="white"/>
</mask>
<g mask="url(#mask1_201_672)">
<path d="M244.8 236.7C247.9 208.7 250.7 180.6 253.3 152.5C255.8 124.4 258.1 96.2999 260 68.1999C261.1 52.2999 262.1 36.3999 263 20.4999C263.1 19.3999 262.4 18.0999 261.6 17.3999C261.2 16.9999 259.9 16.1999 259.8 17.3999C258.2 45.5999 256.3 73.6999 254.1 101.8C251.9 129.9 249.4 158 246.6 186.1C245 201.9 243.4 217.8 241.6 233.6C241.5 234.7 242.2 236 243 236.7C243.5 237.2 244.7 237.9 244.8 236.7Z" fill="white"/>
</g>
<mask id="mask2_201_672" style="mask-type:luminance" maskUnits="userSpaceOnUse" x="51" y="51" width="398" height="398">
<path d="M250 448.5C359.629 448.5 448.5 359.629 448.5 250C448.5 140.371 359.629 51.5 250 51.5C140.371 51.5 51.5 140.371 51.5 250C51.5 359.629 140.371 448.5 250 448.5Z" fill="white"/>
</mask>
<g mask="url(#mask2_201_672)">
<path d="M308 36.7999C300.6 66.8999 293.7 97.1999 287.4 127.6C284.2 142.8 281.2 158 278.4 173.3C277 180.9 275.6 188.6 274.2 196.2C273.5 200.1 272.8 204 272.2 207.8C271.7 210.9 271.3 214 272.3 217.1C274.5 223.8 280.5 227.2 286 231C292.5 235.4 299 239.9 305.5 244.3C318.5 253.2 331.5 262.1 344.5 270.9C370.5 288.7 396.5 306.4 422.5 324.2C448.5 342 474.5 359.7 500.5 377.5C503.7 379.7 506.9 381.9 510.1 384.1C511 384.7 510.5 383.3 510.4 382.9C510.1 382 509.4 380.6 508.6 380C483.2 362.7 457.9 345.4 432.5 328.1C407.1 310.8 381.8 293.5 356.4 276.2C331 258.9 305.7 241.6 280.3 224.3C278.1 222.8 274.4 221 274 218.1C273.6 214.6 274.7 210.8 275.3 207.3C276.6 199.8 278 192.2 279.4 184.7C282.1 169.9 285 155.1 288 140.3C294 110.6 300.6 81.0999 307.8 51.6999C308.7 48.0999 309.6 44.4999 310.4 40.8999C310.6 39.9999 309.8 38.6999 309.3 37.9999C309.4 37.7999 308.2 36.0999 308 36.7999Z" fill="white"/>
</g>
<mask id="mask3_201_672" style="mask-type:luminance" maskUnits="userSpaceOnUse" x="51" y="51" width="398" height="398">
<path d="M250 448.5C359.629 448.5 448.5 359.629 448.5 250C448.5 140.371 359.629 51.5 250 51.5C140.371 51.5 51.5 140.371 51.5 250C51.5 359.629 140.371 448.5 250 448.5Z" fill="white"/>
</mask>
<g mask="url(#mask3_201_672)">
<path d="M343.6 58.6999C336.7 83.9999 329.7 109.4 322.8 134.7C319.3 147.3 315.9 160 312.4 172.6C310.7 178.9 308.9 185.2 307.2 191.5C306.4 194.5 305.3 197.6 304.8 200.7C304.4 203.6 305.4 205.9 307.7 207.7C309.9 209.4 312.5 210.7 314.9 212.1C317.5 213.6 320.1 215.2 322.7 216.7C328.1 219.9 333.4 223.1 338.7 226.4C349.2 232.8 359.6 239.4 369.9 246C390.6 259.3 410.9 273.2 430.9 287.5C451 301.9 470.7 316.7 490 332.1C492.4 334 494.7 335.9 497.1 337.8C498.8 339.2 502.8 336.5 500.6 334.7C481.6 319.4 462.1 304.6 442.4 290.2C422.7 275.9 402.7 262.1 382.3 248.7C362 235.4 341.3 222.5 320.3 210.2C317.7 208.7 315 207.2 312.5 205.6C311.6 205 310.7 204.4 310.1 203.5C309.3 202.3 309.5 200.8 309.8 199.4C311.2 193.2 313.2 187.1 314.8 180.9C318.2 168.4 321.7 155.8 325.1 143.3C331.9 118.3 338.8 93.2999 345.6 68.2999C346.5 65.1999 347.3 62.0999 348.2 58.9999C349 56.2999 344.2 56.4999 343.6 58.6999Z" fill="white"/>
</g>
<mask id="mask4_201_672" style="mask-type:luminance" maskUnits="userSpaceOnUse" x="51" y="51" width="398" height="398">
<path d="M250 448.5C359.629 448.5 448.5 359.629 448.5 250C448.5 140.371 359.629 51.5 250 51.5C140.371 51.5 51.5 140.371 51.5 250C51.5 359.629 140.371 448.5 250 448.5Z" fill="white"/>
</mask>
<g mask="url(#mask4_201_672)">
<path d="M375.9 85.3001C365.2 113.2 354.5 141.2 343.9 169.1C340.9 177 337.8 184.9 334.8 192.8C334.6 193.4 335.2 194.4 335.4 194.8C335.8 195.5 336.2 196.4 336.9 196.8C357.8 210.4 378.8 223.9 399.7 237.5C420.6 251.1 441.6 264.6 462.5 278.2C474.2 285.8 486 293.4 497.7 301C498.6 301.6 498.2 300.2 498 299.8C497.6 298.9 497 297.5 496.1 296.9C475.2 283.3 454.2 269.8 433.3 256.2C412.4 242.6 391.4 229.1 370.5 215.5C358.8 207.9 347 200.3 335.3 192.7C336 194 336.7 195.4 337.4 196.7C348.1 168.8 358.8 140.8 369.4 112.9C372.4 105 375.5 97.1001 378.5 89.2001C378.8 88.4001 377.8 86.9001 377.4 86.3001C377.3 86.2001 376.2 84.6001 375.9 85.3001Z" fill="white"/>
</g>
<mask id="mask5_201_672" style="mask-type:luminance" maskUnits="userSpaceOnUse" x="51" y="51" width="398" height="398">
<path d="M250 448.5C359.629 448.5 448.5 359.629 448.5 250C448.5 140.371 359.629 51.5 250 51.5C140.371 51.5 51.5 140.371 51.5 250C51.5 359.629 140.371 448.5 250 448.5Z" fill="white"/>
</mask>
<g mask="url(#mask5_201_672)">
<path d="M400.6 122.8C394.4 134.9 388.6 147.2 383.1 159.7C380.4 166 377.7 172.4 375.2 178.8C374.6 180.3 374 181.8 373.4 183.3C372.8 184.9 372 186.5 371.9 188.2C371.8 191.3 374.5 193.9 376.8 195.6C382.5 199.6 388.6 203.3 394.4 207.1C400.2 210.9 406.1 214.7 411.9 218.5C423.7 226.2 435.6 233.9 447.4 241.6C460.8 250.3 474.1 259 487.5 267.7C488.3 268.2 488.7 267.7 488.4 266.9C488 265.8 487.1 264.8 486.1 264.2C463.3 249.3 440.4 234.5 417.6 219.6C406.2 212.2 394.8 204.7 383.4 197.3C380.8 195.6 378 194 375.5 192.1C375.4 192 375.2 191.9 375.1 191.7C375.6 192.2 375.2 192 375.2 191.6C375.3 190.8 375.4 190 375.6 189.2C376.2 187.5 376.9 185.9 377.5 184.3C379.9 178.2 382.4 172.1 385 166.1C390.8 152.6 397.1 139.2 403.8 126.1C404.6 125.1 401.2 121.6 400.6 122.8Z" fill="white"/>
</g>
<mask id="mask6_201_672" style="mask-type:luminance" maskUnits="userSpaceOnUse" x="51" y="51" width="398" height="398">
<path d="M250 448.5C359.629 448.5 448.5 359.629 448.5 250C448.5 140.371 359.629 51.5 250 51.5C140.371 51.5 51.5 140.371 51.5 250C51.5 359.629 140.371 448.5 250 448.5Z" fill="white"/>
</mask>
<g mask="url(#mask6_201_672)">
<path d="M422.1 134.6C417.3 142.9 413 151.5 409.2 160.3C407.3 164.7 405.5 169.1 403.8 173.5C402.9 175.8 402.1 178 401.3 180.3C400.6 182.5 400.2 184.5 401.8 186.3C403.2 188 405.3 189 407.2 190.2C409.4 191.5 411.6 192.9 413.9 194.2C418.2 196.8 422.6 199.4 427 202C435.7 207.1 444.4 212.2 453.1 217.3C462.9 222.9 472.7 228.5 482.6 234C483.1 234.3 484.6 234.9 484.8 233.9C485 233 483.3 231.9 482.7 231.6C465.9 222.2 449.2 212.7 432.6 202.9C424.4 198.1 416.2 193.2 408.1 188.2C407.2 187.7 406.3 187.1 405.4 186.5C404.8 186.1 405.2 186.3 405.3 186.4C405.2 186.3 405.2 186.3 405.2 186.1C405.2 185.4 405.1 184.9 405.3 184.2C405.8 182 406.8 179.8 407.6 177.7C409.2 173.4 410.9 169.1 412.7 164.9C416.8 155.4 421.4 146.2 426.5 137.3C426.9 136.1 422.7 133.4 422.1 134.6Z" fill="white"/>
</g>
<mask id="mask7_201_672" style="mask-type:luminance" maskUnits="userSpaceOnUse" x="51" y="51" width="398" height="398">
<path d="M250 448.5C359.629 448.5 448.5 359.629 448.5 250C448.5 140.371 359.629 51.5 250 51.5C140.371 51.5 51.5 140.371 51.5 250C51.5 359.629 140.371 448.5 250 448.5Z" fill="white"/>
</mask>
<g mask="url(#mask7_201_672)">
<path d="M88.2 421.8C99.5 412.4 110 402 120.3 391.5C130.9 380.7 141.6 369.9 152.2 359.1C173.7 337.2 195.2 315.3 216.7 293.5C222.1 288 227.5 282.5 232.9 277C234.2 275.7 235.4 274.4 236.7 273.2C237.9 272 239 270.5 240.6 269.8C242.5 268.9 243.7 270.6 245 271.8C246.2 273 247.5 274.1 248.7 275.3C258.8 284.7 269.1 293.8 279.6 302.6C300.6 320.3 322.5 337 345.1 352.6C367.7 368.2 391.1 382.6 415.1 395.9C418.1 397.6 421.1 399.2 424.1 400.8C425.1 401.3 424.6 399.8 424.5 399.4C424 398.4 423.2 397.4 422.2 396.8C397.8 383.6 374 369.3 350.9 353.8C327.9 338.3 305.7 321.7 284.3 304C273.7 295.2 263.3 286.2 253.2 276.9C250.6 274.5 248 272.1 245.5 269.7C243.7 268 241.2 264.7 238.3 265.5C236.9 265.9 235.9 267 234.9 268C233.5 269.4 232.1 270.9 230.7 272.3C228 275.1 225.2 277.9 222.5 280.7C200.9 302.7 179.3 324.6 157.7 346.6C146.9 357.6 136 368.6 125.2 379.7C114.8 390.3 104.5 401 93.5001 410.9C90.8001 413.3 88.1001 415.7 85.3001 418C84.2001 418.6 87.3 422.5 88.2 421.8Z" fill="white"/>
</g>
<mask id="mask8_201_672" style="mask-type:luminance" maskUnits="userSpaceOnUse" x="51" y="51" width="398" height="398">
<path d="M250 448.5C359.629 448.5 448.5 359.629 448.5 250C448.5 140.371 359.629 51.5 250 51.5C140.371 51.5 51.5 140.371 51.5 250C51.5 359.629 140.371 448.5 250 448.5Z" fill="white"/>
</mask>
<g mask="url(#mask8_201_672)">
<path d="M138 431.7C153.4 417.9 168.1 403.4 182.2 388.2C196.3 373 209.6 357.3 222.3 340.9C229.4 331.7 236.2 322.3 242.8 312.8C241.6 312.7 240.4 312.7 239.2 312.6C260.7 331.7 282.8 350.2 305.5 367.9C328.1 385.5 351.2 402.4 374.9 418.6C388.2 427.7 401.7 436.5 415.3 445.1C416.2 445.7 417.7 445.9 418.4 444.9C419.1 443.9 418.1 442.6 417.2 442.1C393 426.8 369.3 410.8 346.1 394C323.1 377.4 300.7 360 278.8 341.9C266.4 331.6 254.1 321.1 242.1 310.4C241.2 309.6 239.4 308.9 238.5 310.2C226.8 327.1 214.4 343.4 201.2 359.1C188 374.8 174.2 390 159.6 404.4C151.4 412.6 142.9 420.5 134.3 428.3C132.5 430.1 136.3 433.2 138 431.7Z" fill="white"/>
</g>
<mask id="mask9_201_672" style="mask-type:luminance" maskUnits="userSpaceOnUse" x="51" y="51" width="398" height="398">
<path d="M250 448.5C359.629 448.5 448.5 359.629 448.5 250C448.5 140.371 359.629 51.5 250 51.5C140.371 51.5 51.5 140.371 51.5 250C51.5 359.629 140.371 448.5 250 448.5Z" fill="white"/>
</mask>
<g mask="url(#mask9_201_672)">
<path d="M162.9 449.3C175.9 438.9 188.5 428.1 200.7 416.8C213 405.5 224.8 393.7 236.2 381.5C242.6 374.6 248.8 367.7 255 360.5C253.6 360.1 252.3 359.6 250.9 359.2C267.9 372.6 285.4 385.5 303.3 397.8C321.1 410 339.2 421.7 357.8 432.7C368.4 439 379 445.1 389.8 451C390.3 451.3 392.3 452.3 392.8 451.8C393.3 451.3 391.8 450.6 391.5 450.4C372.8 440.1 354.4 429.3 336.4 417.8C318.4 406.3 300.7 394.3 283.4 381.7C273.6 374.6 264 367.2 254.5 359.8C253.9 359.3 251.1 357.7 250.4 358.5C239.6 371.1 228.3 383.3 216.6 395.1C204.8 406.9 192.6 418.3 180 429.3C172.9 435.4 165.7 441.4 158.4 447.3C158 447.6 160.3 448.8 160.5 448.8C161 449.1 162.3 449.8 162.9 449.3Z" fill="white"/>
</g>
<mask id="mask10_201_672" style="mask-type:luminance" maskUnits="userSpaceOnUse" x="51" y="51" width="398" height="398">
<path d="M250 448.5C359.629 448.5 448.5 359.629 448.5 250C448.5 140.371 359.629 51.5 250 51.5C140.371 51.5 51.5 140.371 51.5 250C51.5 359.629 140.371 448.5 250 448.5Z" fill="white"/>
</mask>
<g mask="url(#mask10_201_672)">
<path d="M216.9 458.6C231.3 443.5 245.2 427.8 258.4 411.6C260.1 409.6 261.7 407.5 263.4 405.5C263.8 405.1 264.2 404.6 264.5 404.1L264.6 404C262.5 404.2 261.9 404.4 262.8 404.7C263 404.9 263.4 405 263.6 405.1C264.8 405.8 265.9 406.7 267 407.5C271.4 410.6 275.8 413.7 280.2 416.8C289.1 423 298 429.3 306.9 435.5C317 442.6 327 449.6 337.1 456.7C337.8 457.2 339.5 456.5 340.2 456.2C340.5 456.1 342.2 455.3 341.6 454.8C323 441.7 304.4 428.7 285.8 415.6C281.2 412.4 276.6 409.1 271.9 405.9C269.8 404.4 267.6 402.2 264.8 402.6C263.5 402.8 262.1 403.3 261 404.2C260 405 259.3 406.1 258.5 407.1C251.7 415.6 244.7 424 237.5 432.2C229.4 441.5 221.2 450.5 212.7 459.4C212 460.2 213.5 460.1 213.9 460C214.8 459.8 216.2 459.4 216.9 458.6Z" fill="white"/>
</g>
<mask id="mask11_201_672" style="mask-type:luminance" maskUnits="userSpaceOnUse" x="51" y="51" width="398" height="398">
<path d="M250 448.5C359.629 448.5 448.5 359.629 448.5 250C448.5 140.371 359.629 51.5 250 51.5C140.371 51.5 51.5 140.371 51.5 250C51.5 359.629 140.371 448.5 250 448.5Z" fill="white"/>
</mask>
<g mask="url(#mask11_201_672)">
<path d="M246 469.4C253.5 457.6 261.5 446.1 269.9 435C270.7 434 271.5 432.8 272.7 432.2C274.3 431.4 275.4 432.3 276.6 433.3C279.4 435.6 282.1 437.8 284.9 440.1C290.5 444.7 296.1 449.2 301.7 453.8C308 458.9 314.3 464.1 320.7 469.2C321.2 469.6 322.2 470.1 322.1 469.1C322 468.1 320.7 467 320 466.4C308.4 457 296.8 447.5 285.2 438.1C282.2 435.7 279.3 433.3 276.3 430.9C274.2 429.2 271.6 427 268.9 428.9C267.7 429.7 266.9 431 266 432.2C264.8 433.7 263.7 435.3 262.5 436.8C260.4 439.6 258.3 442.5 256.3 445.4C251.6 452.1 247 458.9 242.6 465.8C241.9 466.8 245.5 470 246 469.4Z" fill="white"/>
</g>
<mask id="mask12_201_672" style="mask-type:luminance" maskUnits="userSpaceOnUse" x="51" y="51" width="398" height="398">
<path d="M250 448.5C359.629 448.5 448.5 359.629 448.5 250C448.5 140.371 359.629 51.5 250 51.5C140.371 51.5 51.5 140.371 51.5 250C51.5 359.629 140.371 448.5 250 448.5Z" fill="white"/>
</mask>
<g mask="url(#mask12_201_672)">
<path d="M231.1 33.9001C227.1 61.3001 223.1 88.7001 219.1 116.1C215.1 143.4 211.3 170.8 207.1 198.1C206.1 204.4 204.7 210.4 201 215.7C197.5 220.7 193 225.1 188.8 229.6C180.2 238.8 171.5 247.9 162.5 256.7C144.7 274.3 126.1 291.2 106.9 307.3C87.6999 323.4 67.7999 338.7 47.2999 353.1C44.6999 354.9 42.1999 356.7 39.5999 358.5C38.5999 359.2 39.4999 360.2 40.1999 360.6C41.1999 361.1 42.6999 361.2 43.6999 360.6C64.4999 346.3 84.6999 331 104.2 315C123.7 299 142.6 282.1 160.7 264.5C169.6 255.8 178.4 246.9 187 237.9C191.3 233.4 195.6 228.8 199.8 224.1C204 219.5 207.8 214.8 209.8 208.8C211.9 202.6 212.5 195.8 213.4 189.4C214.4 182.5 215.4 175.7 216.4 168.8C218.4 155.1 220.4 141.4 222.4 127.7C226.4 100.1 230.5 72.5001 234.5 44.9001C235 41.5001 235.5 38.0001 236 34.6001C236.3 32.6001 231.4 31.9001 231.1 33.9001Z" fill="white"/>
</g>
<mask id="mask13_201_672" style="mask-type:luminance" maskUnits="userSpaceOnUse" x="51" y="51" width="398" height="398">
<path d="M250 448.5C359.629 448.5 448.5 359.629 448.5 250C448.5 140.371 359.629 51.5 250 51.5C140.371 51.5 51.5 140.371 51.5 250C51.5 359.629 140.371 448.5 250 448.5Z" fill="white"/>
</mask>
<g mask="url(#mask13_201_672)">
<path d="M208.5 44.5999C203.6 67.3999 198.6 90.1999 193.7 113C188.8 135.8 183.8 158.6 178.9 181.4C177.8 186.6 176.8 192 175 197.1C173.2 202.1 170.4 206.4 166.8 210.4C159.6 218.4 151.9 226 144.2 233.6C128.8 249 112.9 263.9 96.4998 278.3C80.1998 292.7 63.3998 306.6 46.1998 320C44.0998 321.7 41.8998 323.3 39.7998 325C38.5998 325.9 41.9998 329.6 43.3998 328.5C60.6998 315.2 77.6998 301.3 94.1998 287C110.7 272.7 126.8 257.8 142.4 242.5C150.2 234.8 158 227 165.6 219.1C169.2 215.4 172.8 211.7 175.5 207.3C178.2 202.9 179.7 197.9 180.9 192.9C183.5 181.7 185.8 170.4 188.2 159.2C190.7 147.7 193.2 136.2 195.7 124.7C200.7 101.8 205.6 78.8999 210.6 55.9999C211.2 53.1999 211.8 50.2999 212.4 47.4999C212.7 45.8999 208.8 42.9999 208.5 44.5999Z" fill="white"/>
</g>
<mask id="mask14_201_672" style="mask-type:luminance" maskUnits="userSpaceOnUse" x="51" y="51" width="398" height="398">
<path d="M250 448.5C359.629 448.5 448.5 359.629 448.5 250C448.5 140.371 359.629 51.5 250 51.5C140.371 51.5 51.5 140.371 51.5 250C51.5 359.629 140.371 448.5 250 448.5Z" fill="white"/>
</mask>
<g mask="url(#mask14_201_672)">
<path d="M187.2 42.2998C182.7 62.6998 178.1 82.9998 173.6 103.4C169.1 123.8 164.5 144.1 160 164.5C158.9 169.2 158.1 174.1 156.7 178.7C155.4 183.1 153.4 187 150 190.1C146.7 193.2 142.8 195.5 139 198C134.6 200.9 130.3 203.8 125.9 206.7C108.5 218.2 91.0999 229.8 73.6999 241.3C56.2999 252.8 38.8999 264.4 21.4999 275.9C19.3999 277.3 17.1999 278.8 15.0999 280.2C14.3999 280.6 16.9999 284.9 17.3999 284.6C34.8999 273 52.2999 261.4 69.7999 249.8C87.2999 238.2 104.7 226.6 122.2 215C130.7 209.3 139.4 203.9 147.8 198C151.3 195.5 154.6 192.7 156.7 188.9C158.9 185 159.8 180.6 160.8 176.3C165.3 155.9 169.9 135.6 174.4 115.2C178.9 94.6998 183.5 74.2998 188 53.7998C188.6 51.2998 189.1 48.7998 189.7 46.2998C189.9 45.4998 189 44.0998 188.6 43.3998C188.4 43.4998 187.3 41.7998 187.2 42.2998Z" fill="white"/>
</g>
<mask id="mask15_201_672" style="mask-type:luminance" maskUnits="userSpaceOnUse" x="51" y="51" width="398" height="398">
<path d="M250 448.5C359.629 448.5 448.5 359.629 448.5 250C448.5 140.371 359.629 51.5 250 51.5C140.371 51.5 51.5 140.371 51.5 250C51.5 359.629 140.371 448.5 250 448.5Z" fill="white"/>
</mask>
<g mask="url(#mask15_201_672)">
<path d="M163.1 51.0001C154.2 81.3001 145.3 111.6 136.5 141.9C134.5 148.8 132.6 155.8 129.2 162.2C126 168.1 121.4 173 116.3 177.4C110.8 182.1 105.1 186.5 99.5001 191C93.7001 195.7 88.1001 200.5 82.4001 205.4C69.6001 216.5 57.1001 227.9 45.0001 239.7C43.4001 241.2 46.7001 245 48.2001 243.5C59.1001 232.9 70.2001 222.6 81.7001 212.6C92.9001 202.8 104.4 193.5 115.9 184.2C121.2 179.9 126.3 175.4 130.2 169.8C134.2 164.1 136.5 157.5 138.5 150.9C143 135.7 147.4 120.5 151.9 105.3C156.9 88.2001 161.9 71.2001 166.9 54.1001C167.2 52.9001 166.7 51.8001 165.7 51.0001C165.1 50.6001 163.4 49.9001 163.1 51.0001Z" fill="white"/>
</g>
<mask id="mask16_201_672" style="mask-type:luminance" maskUnits="userSpaceOnUse" x="51" y="51" width="398" height="398">
<path d="M250 448.5C359.629 448.5 448.5 359.629 448.5 250C448.5 140.371 359.629 51.5 250 51.5C140.371 51.5 51.5 140.371 51.5 250C51.5 359.629 140.371 448.5 250 448.5Z" fill="white"/>
</mask>
<g mask="url(#mask16_201_672)">
<path d="M134.6 82.4998C132.1 91.7998 129.5 101.1 127 110.4C124.6 119.3 122.3 128.4 119.6 137.2C118.4 141.2 117 145.2 114.9 148.9C112.8 152.5 110.1 155.6 107 158.4C103.7 161.4 100.2 164.1 96.7998 166.9C93.0998 169.9 89.2998 173 85.5998 176C77.1998 182.8 68.7998 189.6 60.3998 196.4C59.4998 197.1 60.7998 197.8 61.3998 197.9C62.4998 198.1 63.8998 198 64.7998 197.3C72.2998 191.2 79.7998 185.2 87.2998 179.1C94.5998 173.2 102 167.4 109.2 161.3C112.4 158.6 115.5 155.6 118 152.2C120.5 148.8 122.2 144.9 123.5 140.9C124.9 136.8 126 132.5 127.2 128.3C128.5 123.7 129.7 119 131 114.4C133.9 103.9 136.7 93.3998 139.6 82.8998C140 80.9998 135 80.9998 134.6 82.4998Z" fill="white"/>
</g>
</g>
<defs>
<clipPath id="clip0_201_672">
<rect width="500" height="500" fill="white"/>
</clipPath>
</defs>
</svg>
