<svg width="500" height="500" viewBox="0 0 500 500" fill="none" xmlns="http://www.w3.org/2000/svg">
<mask id="mask0_201_721" style="mask-type:luminance" maskUnits="userSpaceOnUse" x="51" y="51" width="398" height="398">
<path d="M250 448.5C359.629 448.5 448.5 359.629 448.5 250C448.5 140.371 359.629 51.5 250 51.5C140.371 51.5 51.5 140.371 51.5 250C51.5 359.629 140.371 448.5 250 448.5Z" fill="white"/>
</mask>
<g mask="url(#mask0_201_721)">
<path d="M212.4 5.39996C201.6 24.5 190.1 43.3 177.7 61.4C165.3 79.4 152 96.7 137.3 112.9C123.1 128.6 107.6 143.2 90.7 156.1C74.4 168.6 56.7 179.5 38.1 188.2C19.4 196.9 -0.300026 203.3 -20.6 206.8C-23.1 207.2 -25.6 207.6 -28.2 208C-29.3 208.2 -30.4 209 -31.2 209.7C-31.5 210 -32.5 211.2 -31.4 211C-10.4 208.1 9.99997 202.1 29.5 193.8C49.1 185.4 67.7 174.6 85 162.1C102.6 149.4 118.9 134.9 133.8 119.2C149.2 103 163.2 85.5 176.2 67.3C189.2 49 201 30.1 212.2 10.8C213.6 8.39996 215 5.99996 216.3 3.59996C216.8 2.69996 215.4 3.09996 215 3.29996C214.1 3.69996 212.9 4.39996 212.4 5.39996Z" fill="white"/>
</g>
<mask id="mask1_201_721" style="mask-type:luminance" maskUnits="userSpaceOnUse" x="51" y="51" width="398" height="398">
<path d="M250 448.5C359.629 448.5 448.5 359.629 448.5 250C448.5 140.371 359.629 51.5 250 51.5C140.371 51.5 51.5 140.371 51.5 250C51.5 359.629 140.371 448.5 250 448.5Z" fill="white"/>
</mask>
<g mask="url(#mask1_201_721)">
<path d="M237.1 13.7C226.8 33.2 216.3 52.5001 204.9 71.4001C193.6 90.1001 181.5 108.2 167.9 125.3C154.6 142 139.8 157.6 123.6 171.5C107.9 184.9 90.9 196.7 72.9 206.7C54.8 216.8 35.8 225.1 16.1 231.5C13.7 232.3 11.3 233 8.89997 233.7C8.39997 233.9 7.29997 234.1 8.09997 234.6C8.79997 235 10.8 234.6 11.5 234.3C31.5 228.4 51 220.5 69.5 210.8C87.9 201.2 105.3 189.8 121.5 176.8C138.1 163.5 153.2 148.4 166.9 132.1C181.1 115.2 193.7 97 205.3 78.2C217 59.4 227.6 40.1 238 20.6C239.3 18.2 240.6 15.8 241.8 13.4C242.1 12.8 240.2 12.9 240 12.9C239.4 12.9 237.4 13 237.1 13.7Z" fill="white"/>
</g>
<mask id="mask2_201_721" style="mask-type:luminance" maskUnits="userSpaceOnUse" x="51" y="51" width="398" height="398">
<path d="M250 448.5C359.629 448.5 448.5 359.629 448.5 250C448.5 140.371 359.629 51.5 250 51.5C140.371 51.5 51.5 140.371 51.5 250C51.5 359.629 140.371 448.5 250 448.5Z" fill="white"/>
</mask>
<g mask="url(#mask2_201_721)">
<path d="M279.6 14.3C265.9 40.5 252.2 66.8 236.4 91.8C221.8 115 205.3 136.8 186.6 156.8C168.9 175.6 149.5 192.8 128.9 208.4C108.2 224.1 86.3 238.2 63.6 251C41 263.7 17.5 275.1 -6.40003 285.3C-9.40003 286.6 -12.3 287.8 -15.3 289C-16.9 289.6 -14.3 293.9 -12.5 293.2C11.7 283.2 35.3 272.1 58.3 259.6C81.2 247.1 103.4 233.3 124.5 217.9C145.4 202.6 165.1 185.8 183.2 167.3C202.1 148.1 218.9 127.1 233.7 104.6C250 79.9 264 53.8 277.7 27.6C279.4 24.4 281.1 21.1 282.8 17.9C283.7 16.3 280.5 12.6 279.6 14.3Z" fill="white"/>
</g>
<mask id="mask3_201_721" style="mask-type:luminance" maskUnits="userSpaceOnUse" x="51" y="51" width="398" height="398">
<path d="M250 448.5C359.629 448.5 448.5 359.629 448.5 250C448.5 140.371 359.629 51.5 250 51.5C140.371 51.5 51.5 140.371 51.5 250C51.5 359.629 140.371 448.5 250 448.5Z" fill="white"/>
</mask>
<g mask="url(#mask3_201_721)">
<path d="M304.9 17.5999C291.6 43.4999 277.5 68.9999 262.1 93.7999C246.8 118.5 230.2 142.5 212.2 165.4C194.7 187.6 175.8 208.6 155.4 228.1C135.6 247 114.4 264.3 91.8 279.7C69.4 295 45.6 308.3 20.6 319C17.6 320.3 14.5 321.6 11.5 322.8C10.9 323.1 9.20003 323.7 9.50003 324.7C9.80003 325.6 11.7 325.3 12.2 325C37.9 314.7 62.5 301.8 85.8 286.7C108.9 271.7 130.6 254.7 150.9 236.2C171.7 217.2 191 196.5 208.9 174.7C227.5 152 244.6 128 260.4 103.3C276.2 78.5999 290.7 53.0999 304.3 27.0999C306 23.8999 307.7 20.5999 309.4 17.2999C310.4 15.4999 305.6 16.2999 304.9 17.5999Z" fill="white"/>
</g>
<mask id="mask4_201_721" style="mask-type:luminance" maskUnits="userSpaceOnUse" x="51" y="51" width="398" height="398">
<path d="M250 448.5C359.629 448.5 448.5 359.629 448.5 250C448.5 140.371 359.629 51.5 250 51.5C140.371 51.5 51.5 140.371 51.5 250C51.5 359.629 140.371 448.5 250 448.5Z" fill="white"/>
</mask>
<g mask="url(#mask4_201_721)">
<path d="M349.3 29C334.3 56.9 318.7 84.5 302.1 111.5C285.5 138.3 267.8 164.5 248.6 189.5C230.3 213.3 210.7 236.3 189.2 257.3C168.3 277.7 145.5 296.4 120.5 311.6C93.5 328.1 64.1 339.5 34.3 349.9C30.5 351.2 26.7 352.5 22.9 353.9C21.8 354.3 23.2 355.1 23.6 355.3C24.6 355.7 26 355.9 27 355.5C57.4 345 87.9 334.3 115.9 318.3C141.3 303.9 164.6 286 185.9 266.1C207.8 245.7 227.6 223.3 246.1 199.8C265.8 174.9 283.9 148.8 300.8 122C317.7 95.3 333.4 67.9 348.5 40.2C350.4 36.8 352.2 33.4 354.1 29.9C354.7 29 350.1 27.6 349.3 29Z" fill="white"/>
</g>
<mask id="mask5_201_721" style="mask-type:luminance" maskUnits="userSpaceOnUse" x="51" y="51" width="398" height="398">
<path d="M250 448.5C359.629 448.5 448.5 359.629 448.5 250C448.5 140.371 359.629 51.5 250 51.5C140.371 51.5 51.5 140.371 51.5 250C51.5 359.629 140.371 448.5 250 448.5Z" fill="white"/>
</mask>
<g mask="url(#mask5_201_721)">
<path d="M370.1 50.5999C359.9 79.4999 347.1 107.5 331.8 134.1C316.6 160.6 299.1 185.7 279.6 209.1C260.1 232.5 238.5 254.3 215.3 274C192 293.8 167.1 311.6 140.7 327.1C114.4 342.6 86.7 355.7 58 366.2C54.5 367.5 51 368.7 47.5 369.9C46.5 370.2 45.4 371.3 45.7 372.5C46.1 373.7 47.7 373.7 48.7 373.4C78 363.5 106.3 350.8 133.2 335.7C160.2 320.6 185.8 303.2 209.7 283.7C233.6 264.2 255.9 242.6 276.1 219.3C296.3 196 314.6 171 330.5 144.6C346.4 118.2 360 90.2999 370.8 61.4999C372.1 57.9999 373.4 54.4999 374.6 50.9999C375.7 48.1999 370.9 48.3999 370.1 50.5999Z" fill="white"/>
</g>
<mask id="mask6_201_721" style="mask-type:luminance" maskUnits="userSpaceOnUse" x="51" y="51" width="398" height="398">
<path d="M250 448.5C359.629 448.5 448.5 359.629 448.5 250C448.5 140.371 359.629 51.5 250 51.5C140.371 51.5 51.5 140.371 51.5 250C51.5 359.629 140.371 448.5 250 448.5Z" fill="white"/>
</mask>
<g mask="url(#mask6_201_721)">
<path d="M398.8 80.6C386.1 112 373.4 143.6 355.8 172.7C340.1 198.8 320.4 222.3 298.3 243.2C276.4 263.9 252.1 282.1 226.5 298.1C198.1 315.9 168 331 137.4 344.6C105.9 358.6 73.7 371 41.5 383.2C37.6 384.7 33.7 386.1 29.8 387.6C29.2 387.8 28.3 388.2 29.1 388.8C29.8 389.3 31.8 388.8 32.5 388.6C64.9 376.3 97.4 364.1 129.3 350.4C160.6 337 191.3 322.1 220.6 304.6C246.8 288.9 271.8 271.2 294.6 250.8C317.1 230.7 337.4 208.1 354 182.9C372.7 154.6 386.1 123.3 398.9 92C400.5 88.1 402.1 84.2 403.7 80.2C404.1 79.3 399.3 79.4 398.8 80.6Z" fill="white"/>
</g>
<mask id="mask7_201_721" style="mask-type:luminance" maskUnits="userSpaceOnUse" x="51" y="51" width="398" height="398">
<path d="M250 448.5C359.629 448.5 448.5 359.629 448.5 250C448.5 140.371 359.629 51.5 250 51.5C140.371 51.5 51.5 140.371 51.5 250C51.5 359.629 140.371 448.5 250 448.5Z" fill="white"/>
</mask>
<g mask="url(#mask7_201_721)">
<path d="M412 120.8C401.8 151.4 386.2 180 367.3 206C348.3 232.2 326 255.9 302.3 277.9C277 301.4 250.1 323.6 221.5 342.9C206.8 352.8 191.5 361.9 175.5 369.6C159.3 377.5 142.5 384 125.4 389.4C90.7 400.4 54.9 407.1 19 412.6C14.6 413.3 10.1 413.9 5.70004 414.6C3.70004 414.9 7.40004 418 8.80005 417.8C44.7 412.5 80.7 406.4 115.7 396.5C150.5 386.6 183.6 372.4 214.3 353.1C243.7 334.5 271 312.5 296.9 289.3C321.2 267.6 344.1 244.3 364.1 218.5C383.9 193 400.7 165 412.2 134.7C413.6 131 414.9 127.2 416.2 123.4C416.9 121.7 412.5 119.5 412 120.8Z" fill="white"/>
</g>
<mask id="mask8_201_721" style="mask-type:luminance" maskUnits="userSpaceOnUse" x="51" y="51" width="398" height="398">
<path d="M250 448.5C359.629 448.5 448.5 359.629 448.5 250C448.5 140.371 359.629 51.5 250 51.5C140.371 51.5 51.5 140.371 51.5 250C51.5 359.629 140.371 448.5 250 448.5Z" fill="white"/>
</mask>
<g mask="url(#mask8_201_721)">
<path d="M441.1 140.8C426 169.9 408.9 197.9 389.7 224.4C370.5 250.9 349.4 275.9 326.3 299.1C303.2 322.3 278.3 343.7 251.7 362.7C224.9 381.9 196.5 398.8 166.8 413C137.1 427.2 106.2 438.9 74.4 447.5C70.4 448.6 66.4 449.6 62.4 450.6C61.3 450.9 60 451.7 59.8 452.9C59.6 454 60.7 454.4 61.7 454.2C94.2 446.2 125.9 435.1 156.3 421.3C186.7 407.5 215.9 391 243.4 372.2C270.9 353.4 296.8 332.2 320.7 309C344.4 286.1 366.3 261.2 386.1 234.8C405.9 208.4 423.8 180.5 439.5 151.5C441.5 147.9 443.4 144.3 445.3 140.6C445.8 139.6 445.2 138.8 444.1 138.8C442.9 138.9 441.7 139.8 441.1 140.8Z" fill="white"/>
</g>
<mask id="mask9_201_721" style="mask-type:luminance" maskUnits="userSpaceOnUse" x="51" y="51" width="398" height="398">
<path d="M250 448.5C359.629 448.5 448.5 359.629 448.5 250C448.5 140.371 359.629 51.5 250 51.5C140.371 51.5 51.5 140.371 51.5 250C51.5 359.629 140.371 448.5 250 448.5Z" fill="white"/>
</mask>
<g mask="url(#mask9_201_721)">
<path d="M447.8 188.2C433.6 211.8 419.2 235.3 402.3 257C386.8 276.9 369.2 295 350.1 311.5C331.1 327.9 310.8 342.6 289.6 356C266.8 370.3 243.1 383.1 218.9 394.8C194.2 406.7 169 417.5 143.5 427.9C140.4 429.2 137.3 430.4 134.2 431.7C133.3 432.1 132.4 433.3 133.1 434.2C133.8 435.2 135.4 434.9 136.4 434.6C162 424.3 187.5 413.6 212.5 401.8C237.3 390.1 261.7 377.4 285.2 363.1C306.8 349.9 327.7 335.3 347.2 319.1C366.6 302.9 384.7 285.2 400.8 265.6C418.3 244.3 433.1 221 447.3 197.5C449 194.6 450.8 191.7 452.5 188.9C453.1 187.8 451.9 187 451 186.8C449.7 186.5 448.4 187.2 447.8 188.2Z" fill="white"/>
</g>
<mask id="mask10_201_721" style="mask-type:luminance" maskUnits="userSpaceOnUse" x="51" y="51" width="398" height="398">
<path d="M250 448.5C359.629 448.5 448.5 359.629 448.5 250C448.5 140.371 359.629 51.5 250 51.5C140.371 51.5 51.5 140.371 51.5 250C51.5 359.629 140.371 448.5 250 448.5Z" fill="white"/>
</mask>
<g mask="url(#mask10_201_721)">
<path d="M478.5 210.1C464.3 233.7 449.8 257.2 433.6 279.5C417.6 301.6 400.1 322.7 380 341.2C359.2 360.4 335.7 376.1 310.8 389.4C285.2 403.1 258.4 414.3 231.6 425.4C203.8 436.9 175.6 447.9 146 454.1C142.4 454.8 138.8 455.5 135.2 456.1C134.4 456.2 135.9 457.7 136.1 457.8C136.7 458.3 137.9 459.5 138.8 459.3C168.6 454.4 197.1 444.1 225 432.8C251.9 421.9 278.7 410.8 304.6 397.7C330 384.9 354.4 369.9 376 351.3C396.8 333.4 414.9 312.8 431.4 290.9C448 268.8 462.9 245.4 477.2 221.7C478.9 218.8 480.7 216 482.4 213.1C483.1 212.2 479 209.4 478.5 210.1Z" fill="white"/>
</g>
<mask id="mask11_201_721" style="mask-type:luminance" maskUnits="userSpaceOnUse" x="51" y="51" width="398" height="398">
<path d="M250 448.5C359.629 448.5 448.5 359.629 448.5 250C448.5 140.371 359.629 51.5 250 51.5C140.371 51.5 51.5 140.371 51.5 250C51.5 359.629 140.371 448.5 250 448.5Z" fill="white"/>
</mask>
<g mask="url(#mask11_201_721)">
<path d="M498.5 270.1C480.9 289.9 463.3 309.7 444.5 328.4C425.9 346.9 406.1 364.1 384.5 378.9C363.8 393.1 341.6 405.1 318.8 415.5C295.8 426 272 435 248 443.1C223.9 451.2 199.5 458.5 175.1 465.6C172.1 466.5 169.2 467.3 166.2 468.2C165 468.5 165.2 470 165.8 470.7C166.5 471.7 167.9 472.2 169.1 471.8C193.6 464.7 218.1 457.5 242.3 449.6C266.4 441.7 290.3 433 313.5 422.9C336.5 412.8 358.9 401.2 380 387.6C402 373.4 422.2 356.8 441 338.7C460.2 320.3 478 300.5 495.7 280.7C497.8 278.3 500 275.9 502.1 273.5C504 271.4 500 268.5 498.5 270.1Z" fill="white"/>
</g>
<mask id="mask12_201_721" style="mask-type:luminance" maskUnits="userSpaceOnUse" x="51" y="51" width="398" height="398">
<path d="M250 448.5C359.629 448.5 448.5 359.629 448.5 250C448.5 140.371 359.629 51.5 250 51.5C140.371 51.5 51.5 140.371 51.5 250C51.5 359.629 140.371 448.5 250 448.5Z" fill="white"/>
</mask>
<g mask="url(#mask12_201_721)">
<path d="M143.2 29C174.2 39.9 204.1 53.7001 232.6 70C261.3 86.5 288.5 105.5 313.7 126.9C338.8 148.2 361.9 171.7 382.7 197.2C403.5 222.8 422 250.2 437.9 279.1C453.8 308 467 338.3 477.4 369.6C478.7 373.5 479.9 377.3 481.1 381.2C481.3 381.9 486.1 380.5 486 380C476.3 348.3 463.6 317.5 448.3 288.1C433 258.9 415.1 231 394.9 205C374.5 178.9 351.8 154.7 327 132.8C302.5 111.2 276.1 91.8 248.1 74.9001C219.9 57.9001 190.2 43.4 159.4 31.7C155.6 30.3 151.8 28.9 148 27.5C147.1 27.2 145.8 27.7 144.9 27.9C144.6 28.1 142.7 28.8 143.2 29Z" fill="white"/>
</g>
<mask id="mask13_201_721" style="mask-type:luminance" maskUnits="userSpaceOnUse" x="51" y="51" width="398" height="398">
<path d="M250 448.5C359.629 448.5 448.5 359.629 448.5 250C448.5 140.371 359.629 51.5 250 51.5C140.371 51.5 51.5 140.371 51.5 250C51.5 359.629 140.371 448.5 250 448.5Z" fill="white"/>
</mask>
<g mask="url(#mask13_201_721)">
<path d="M203.9 28.2C228.5 39.6 252.5 52.3 275.6 66.5C298.6 80.7 320.8 96.3 341.6 113.7C361.9 130.7 380.9 149.3 398.2 169.3C415.2 189 430.7 210.1 444.3 232.3C458 254.5 469.8 277.7 479.8 301.8C481 304.8 482.2 307.7 483.4 310.7C483.8 311.7 485 312.8 486.2 312.5C487.4 312.2 487.4 310.7 487.1 309.8C477.5 285.1 465.8 261.2 452.4 238.4C439 215.7 423.8 194.1 407 173.9C389.9 153.4 371.2 134.2 351.1 116.7C330.5 98.8 308.4 82.6 285.4 67.9C262 53.2 237.9 40 213 28.1C210 26.7 207 25.3 204 23.9C202.9 23.4 201.9 24.3 201.9 25.3C201.8 26.6 202.8 27.7 203.9 28.2Z" fill="white"/>
</g>
<mask id="mask14_201_721" style="mask-type:luminance" maskUnits="userSpaceOnUse" x="51" y="51" width="398" height="398">
<path d="M250 448.5C359.629 448.5 448.5 359.629 448.5 250C448.5 140.371 359.629 51.5 250 51.5C140.371 51.5 51.5 140.371 51.5 250C51.5 359.629 140.371 448.5 250 448.5Z" fill="white"/>
</mask>
<g mask="url(#mask14_201_721)">
<path d="M268.8 35.2C287 47.8 305.1 60.7 322.8 74C340.4 87.3 357.7 101.2 374.3 115.8C390.3 129.9 405.7 144.8 420.2 160.5C434.2 175.7 447.4 191.7 459.3 208.6C471.2 225.4 481.9 243 491 261.4C492.2 263.7 493.3 266.1 494.4 268.4C494.8 269.3 496.3 270 497.2 270.3C497.8 270.5 499 270.7 498.5 269.8C489.6 250.9 479.1 232.8 467.4 215.6C455.7 198.4 442.7 182.1 428.8 166.6C414.5 150.7 399.3 135.6 383.5 121.3C366.9 106.3 349.7 92.2 332 78.6C314.2 65 296.1 51.9 277.7 39.1C275.4 37.5 273.1 35.9 270.8 34.3C270.2 33.9 268.6 32.8 267.8 33.3C267 34 268.5 35 268.8 35.2Z" fill="white"/>
</g>
<mask id="mask15_201_721" style="mask-type:luminance" maskUnits="userSpaceOnUse" x="51" y="51" width="398" height="398">
<path d="M250 448.5C359.629 448.5 448.5 359.629 448.5 250C448.5 140.371 359.629 51.5 250 51.5C140.371 51.5 51.5 140.371 51.5 250C51.5 359.629 140.371 448.5 250 448.5Z" fill="white"/>
</mask>
<g mask="url(#mask15_201_721)">
<path d="M89.3 57C122 65.4 152.4 80.6 180.9 98.4C195.4 107.4 209.5 117.1 223.3 127C237.4 137.1 251.2 147.6 264.4 158.8C277.8 170.1 290.5 182.1 302.2 195.1C313.7 207.9 324.3 221.5 334.3 235.6C354.5 264.2 372.5 294.4 389.3 325.1C406.2 356.1 421.4 388.1 434.4 421C436 425.2 437.7 429.4 439.2 433.6C440.2 436.2 445.1 435.2 444.1 432.6C431.6 399.1 416.8 366.5 400.1 334.8C383.6 303.5 365.5 272.8 345.7 243.4C326.1 214.4 303.9 187.4 277.7 164C251.8 140.9 223.3 120.4 194.3 101.4C165.9 82.9 135.8 66.5 103.3 56.4C99.3 55.1 95.2 54 91.1 52.9C88.3 52.2 86.2 56.2 89.3 57Z" fill="white"/>
</g>
<mask id="mask16_201_721" style="mask-type:luminance" maskUnits="userSpaceOnUse" x="51" y="51" width="398" height="398">
<path d="M250 448.5C359.629 448.5 448.5 359.629 448.5 250C448.5 140.371 359.629 51.5 250 51.5C140.371 51.5 51.5 140.371 51.5 250C51.5 359.629 140.371 448.5 250 448.5Z" fill="white"/>
</mask>
<g mask="url(#mask16_201_721)">
<path d="M138.9 45.3C169.2 62.9 198.2 82.5 226.7 102.7C253.9 121.9 280.9 141.7 305.1 164.8C327.4 186.1 346.8 210.3 363.7 236C380.4 261.4 394.9 288.3 408 315.7C421.3 343.5 433.3 371.9 445 400.4C446.4 403.8 447.8 407.3 449.2 410.7C449.7 412 454.6 411.9 454 410.5C442.2 381.9 430.4 353.4 417.4 325.3C404.4 297.4 390.3 270 373.8 244C357.6 218.3 339.1 194 317.8 172.3C294.3 148.4 267.6 128 240.4 108.6C212.1 88.4 183.4 68.6 153.6 50.7C149.9 48.5 146.2 46.3 142.4 44.1C141.5 43.6 139.9 43.5 138.9 43.9C138 44.2 138 44.8 138.9 45.3Z" fill="white"/>
</g>
<mask id="mask17_201_721" style="mask-type:luminance" maskUnits="userSpaceOnUse" x="51" y="51" width="398" height="398">
<path d="M250 448.5C359.629 448.5 448.5 359.629 448.5 250C448.5 140.371 359.629 51.5 250 51.5C140.371 51.5 51.5 140.371 51.5 250C51.5 359.629 140.371 448.5 250 448.5Z" fill="white"/>
</mask>
<g mask="url(#mask17_201_721)">
<path d="M98.6 88.2C124.1 104.8 149.3 121.9 173.4 140.6C197.3 159.2 220 179.5 239.9 202.4C260.8 226.3 278.3 252.9 295.2 279.7C303.8 293.3 312.5 307 321.1 320.6C329.7 334.2 338.2 347.9 346 362C353.9 376.4 360.9 391.2 366.8 406.5C372.8 421.9 377.8 437.6 382.7 453.3C383.9 457.2 385.1 461.1 386.3 464.9C386.7 466.1 391.3 465.5 391.3 465.4C381.7 434 371.8 402.5 356.8 373.2C342.1 344.5 324 317.7 306.9 290.5C289.9 263.5 272.8 236.4 252.5 211.7C233.2 188.2 211 167.2 187.4 148.1C163.7 128.9 138.5 111.5 113 94.7C109.9 92.6 106.7 90.6 103.6 88.5C102.8 88 101.5 87.9 100.6 87.9C100.2 87.7 98.1 87.9 98.6 88.2Z" fill="white"/>
</g>
<mask id="mask18_201_721" style="mask-type:luminance" maskUnits="userSpaceOnUse" x="51" y="51" width="398" height="398">
<path d="M250 448.5C359.629 448.5 448.5 359.629 448.5 250C448.5 140.371 359.629 51.5 250 51.5C140.371 51.5 51.5 140.371 51.5 250C51.5 359.629 140.371 448.5 250 448.5Z" fill="white"/>
</mask>
<g mask="url(#mask18_201_721)">
<path d="M76.7 58.1C109.8 71.5 137.9 95 165.7 116.8C194.9 139.7 224 163 251.4 188.1C264.8 200.4 277.6 213.2 289.4 227C300.9 240.5 311.6 254.8 321.5 269.6C341.3 299.2 358.6 330.6 373.7 362.9C388.8 395.2 401.6 428.7 411.9 462.8C413.2 467 414.4 471.2 415.6 475.4C416.4 478.1 420.2 478.2 419.3 475.1C409.5 440.3 397.1 406.3 382.4 373.3C367.8 340.6 350.9 308.8 331.6 278.6C312.1 247.9 289.6 219.5 263.4 194.3C236.6 168.5 207.4 145.1 178.3 121.9C163.6 110.2 148.9 98.6 133.8 87.5C119.7 76.9 105.2 67 89.4 59.2C85.5 57.3 81.5 55.5 77.4 53.8C74.6 52.6 74.5 57.2 76.7 58.1Z" fill="white"/>
</g>
<mask id="mask19_201_721" style="mask-type:luminance" maskUnits="userSpaceOnUse" x="51" y="51" width="398" height="398">
<path d="M250 448.5C359.629 448.5 448.5 359.629 448.5 250C448.5 140.371 359.629 51.5 250 51.5C140.371 51.5 51.5 140.371 51.5 250C51.5 359.629 140.371 448.5 250 448.5Z" fill="white"/>
</mask>
<g mask="url(#mask19_201_721)">
<path d="M65.3 118.4C91.9 134.5 117.2 152.7 141.1 172.6C165 192.6 187.4 214.3 208.1 237.6C228.7 260.8 247.6 285.4 264.7 311.3C281.8 337.2 297 364.3 310.1 392.4C323.2 420.5 334.3 449.6 343 479.4C344.1 483.1 345.1 486.8 346.1 490.5C346.7 492.6 351.6 491.6 351 489.5C342.8 459.5 332.3 430.1 319.6 401.6C306.9 373.1 292.2 345.5 275.5 319.2C258.8 292.8 240.2 267.7 219.8 244C199.5 220.4 177.5 198.2 153.9 177.8C130.3 157.4 105.3 138.7 78.9 122C75.6 119.9 72.4 117.9 69.1 115.9C68.1 115.3 66.6 115.3 65.6 116C65.1 116.6 64.3 117.8 65.3 118.4Z" fill="white"/>
</g>
<mask id="mask20_201_721" style="mask-type:luminance" maskUnits="userSpaceOnUse" x="51" y="51" width="398" height="398">
<path d="M250 448.5C359.629 448.5 448.5 359.629 448.5 250C448.5 140.371 359.629 51.5 250 51.5C140.371 51.5 51.5 140.371 51.5 250C51.5 359.629 140.371 448.5 250 448.5Z" fill="white"/>
</mask>
<g mask="url(#mask20_201_721)">
<path d="M80.2999 102.1C106.8 113.9 130.6 130.8 152 150.3C173.8 170.1 193.2 192.4 211.8 215.2C231 238.8 249.7 262.9 267.4 287.7C285.1 312.6 301.7 338.4 316.3 365.2C330.9 392 343.7 419.8 353.5 448.7C354.7 452.2 355.9 455.8 357 459.4C357.3 460.3 362 459.4 362 459.4C352.8 430.3 340.8 402.1 326.6 375.1C312.3 347.9 296 321.7 278.5 296.5C261 271.2 242.3 246.8 223 222.9C204.7 200.1 185.8 177.8 164.7 157.5C143.9 137.5 120.8 119.5 94.7999 106.5C91.5999 104.9 88.3999 103.4 85.1999 102C84.2999 101.6 83.0999 101.7 82.0999 101.8C81.6999 101.7 79.9999 102 80.2999 102.1Z" fill="white"/>
</g>
<mask id="mask21_201_721" style="mask-type:luminance" maskUnits="userSpaceOnUse" x="51" y="51" width="398" height="398">
<path d="M250 448.5C359.629 448.5 448.5 359.629 448.5 250C448.5 140.371 359.629 51.5 250 51.5C140.371 51.5 51.5 140.371 51.5 250C51.5 359.629 140.371 448.5 250 448.5Z" fill="white"/>
</mask>
<g mask="url(#mask21_201_721)">
<path d="M67 161C87.7 171.6 107.1 184.7 125 199.6C142.9 214.5 159.4 231.3 174.3 249.2C190 267.9 204.1 288 216.8 308.8C230.5 331.1 242.6 354.4 253.7 378.1C264.8 401.8 274.8 426 284.2 450.3C285.4 453.3 286.5 456.3 287.7 459.3C288 460.2 289.1 461 289.9 461.5C290.1 461.6 291.8 462.6 291.6 462.2C282 437.2 272 412.3 260.8 388C249.8 363.8 237.7 340.1 224.1 317.3C211.3 295.7 197.1 275 181.2 255.5C166 236.9 149.3 219.4 131.2 203.7C113.1 188 93.5 174 72.5 162.5C69.9 161.1 67.3 159.7 64.6 158.3C63.8 157.9 63.7 158.1 64.2 158.8C65 159.6 66.1 160.5 67 161Z" fill="white"/>
</g>
<mask id="mask22_201_721" style="mask-type:luminance" maskUnits="userSpaceOnUse" x="51" y="51" width="398" height="398">
<path d="M250 448.5C359.629 448.5 448.5 359.629 448.5 250C448.5 140.371 359.629 51.5 250 51.5C140.371 51.5 51.5 140.371 51.5 250C51.5 359.629 140.371 448.5 250 448.5Z" fill="white"/>
</mask>
<g mask="url(#mask22_201_721)">
<path d="M25.8 167C48.4 174.7 69.3 186.9 87.9 201.9C107.8 217.9 124.4 237.2 139.6 257.6C155.1 278.4 170 299.7 184.6 321.1C199 342.3 212.9 363.9 225.3 386.3C237.6 408.5 248.4 431.6 256.7 455.6C257.7 458.6 258.8 461.6 259.7 464.7C260 465.7 264.8 464.4 264.6 463.6C256.8 439.1 246.4 415.6 234.3 392.9C222.2 370.2 208.6 348.4 194.2 327.1C179.7 305.5 164.7 284.2 149.3 263.2C134.2 242.5 118 222.5 98.6 205.7C80.7 190 60.3 177 38 168.3C35.3 167.2 32.6 166.3 29.8 165.3C28.8 165 27.3 165.5 26.4 165.8C26 166.1 24.8 166.6 25.8 167Z" fill="white"/>
</g>
<mask id="mask23_201_721" style="mask-type:luminance" maskUnits="userSpaceOnUse" x="51" y="51" width="398" height="398">
<path d="M250 448.5C359.629 448.5 448.5 359.629 448.5 250C448.5 140.371 359.629 51.5 250 51.5C140.371 51.5 51.5 140.371 51.5 250C51.5 359.629 140.371 448.5 250 448.5Z" fill="white"/>
</mask>
<g mask="url(#mask23_201_721)">
<path d="M31.0999 187.5C48.0999 201.1 64.0999 216 78.7999 232C93.5999 248.1 107.1 265.3 119.3 283.4C132.2 302.7 143.4 323.1 153.5 344C163.9 365.5 173.2 387.6 182.4 409.6C192.2 433 202 456.3 211.8 479.7C213 482.6 214.2 485.5 215.4 488.3C215.8 489.3 216.8 490.2 217.8 490.8C218.2 491 219.7 491.6 219.2 490.6C209.2 466.8 199.2 443.1 189.3 419.3C179.8 396.7 170.4 374.1 160 352C149.9 330.6 138.8 309.7 125.9 289.8C113.8 271.2 100.3 253.4 85.4999 236.8C70.7999 220.3 54.7999 204.8 37.6999 190.7C35.4999 188.9 33.2999 187.1 31.0999 185.4C30.6999 185.1 29.3999 184.2 29.0999 185C28.9999 185.8 30.6999 187.1 31.0999 187.5Z" fill="white"/>
</g>
<mask id="mask24_201_721" style="mask-type:luminance" maskUnits="userSpaceOnUse" x="51" y="51" width="398" height="398">
<path d="M250 448.5C359.629 448.5 448.5 359.629 448.5 250C448.5 140.371 359.629 51.5 250 51.5C140.371 51.5 51.5 140.371 51.5 250C51.5 359.629 140.371 448.5 250 448.5Z" fill="white"/>
</mask>
<g mask="url(#mask24_201_721)">
<path d="M29.9 231.3C43 242.8 55.3 255.1 66.6 268.3C78 281.5 88.5 295.5 98 310.2C107.8 325.3 116.4 341.1 123.9 357.5C132 375.2 139 393.3 145.7 411.6C152.5 430.3 159.2 449.1 165.9 467.9C166.7 470.2 167.6 472.6 168.4 474.9C168.9 476.4 173.8 475.4 173.4 474.4C166.6 455.5 159.9 436.5 153.1 417.6C146.5 399.3 139.7 381.1 131.8 363.3C124.4 346.6 116 330.4 106.3 314.8C97.2 300 87 285.9 75.9 272.5C64.7 259 52.5 246.3 39.5 234.5C37.9 233.1 36.3 231.6 34.7 230.2C33.9 229.5 32.5 229.6 31.6 229.8C31.2 230 29.2 230.6 29.9 231.3Z" fill="white"/>
</g>
<mask id="mask25_201_721" style="mask-type:luminance" maskUnits="userSpaceOnUse" x="51" y="51" width="398" height="398">
<path d="M250 448.5C359.629 448.5 448.5 359.629 448.5 250C448.5 140.371 359.629 51.5 250 51.5C140.371 51.5 51.5 140.371 51.5 250C51.5 359.629 140.371 448.5 250 448.5Z" fill="white"/>
</mask>
<g mask="url(#mask25_201_721)">
<path d="M25.0001 279.2C48.0001 291.5 68.1001 308.8 84.7001 328.9C102.3 350.2 115.8 374.5 126 400.2C131.9 415.1 136.6 430.4 140.5 445.9C141.1 448.5 146 447.5 145.3 444.7C138.4 416.7 128.4 389.3 114.4 364.1C101.3 340.4 84.4001 318.8 64.1001 300.9C52.9001 291.1 40.7001 282.5 27.6001 275.5C24.9001 274.1 22.1001 277.6 25.0001 279.2Z" fill="white"/>
</g>
</svg>
