<svg width="500" height="500" viewBox="0 0 500 500" fill="none" xmlns="http://www.w3.org/2000/svg">
<mask id="mask0_201_713" style="mask-type:luminance" maskUnits="userSpaceOnUse" x="51" y="51" width="398" height="398">
<path d="M250 448.5C359.629 448.5 448.5 359.629 448.5 250C448.5 140.371 359.629 51.5 250 51.5C140.371 51.5 51.5 140.371 51.5 250C51.5 359.629 140.371 448.5 250 448.5Z" fill="white"/>
</mask>
<g mask="url(#mask0_201_713)">
<path d="M120.8 4.40006C118.7 36.8001 116.5 69.3001 114.4 101.7C113.3 118 112.3 134.3 111.2 150.6C110.7 158.6 110.1 166.6 109.6 174.6C109.4 178.1 109.7 182.5 107.6 185.4C105.9 187.7 103 188.7 100.4 189.3C97.1002 190.1 93.7002 190.5 90.3002 191.2C86.5002 192 82.8002 193 79.2002 194.1C75.6002 195.2 72.0002 196.5 68.4002 198C65.6002 199.2 62.7002 200.6 60.5002 202.8C56.4002 207 56.6002 212.9 59.0002 218C61.6002 223.6 66.2002 227.6 72.0002 229.7C78.5002 232 85.4002 232.2 92.0002 233.7C97.4002 234.9 104.2 237.4 106.4 243C107.8 246.4 107.7 250.3 107.7 253.9C107.7 257.8 107.7 261.8 107.7 265.7C107.7 273.9 107.7 282 107.7 290.2C107.7 322.7 107.7 355.2 107.7 387.7C107.7 391.8 107.7 395.9 107.7 399.9C107.7 401.1 108.2 402.2 109 403.1C109.4 403.5 110.7 404.4 110.7 403.2C110.7 370.7 110.7 338.2 110.7 305.7C110.7 289.4 110.7 273.1 110.7 256.8C110.7 250.2 110.1 243.6 105.9 238.2C102.3 233.6 97.0002 231.1 91.5002 229.6C84.8002 227.8 77.7002 227.8 71.1002 225.5C65.7002 223.6 59.8002 219.5 60.2002 213C60.7002 206.1 68.3002 203.3 73.8002 201.2C81.0002 198.4 88.4002 196.3 96.0002 194.9C101.2 193.9 108.5 193.7 111 188.1C112.4 185 112.3 181.2 112.5 177.9C112.8 173.8 113 169.8 113.3 165.7C114.4 149.5 115.4 133.4 116.5 117.2C118.6 84.8001 120.8 52.3001 122.9 19.9001C123.2 15.8001 123.4 11.8001 123.7 7.70006C123.8 6.60006 123.1 5.30006 122.4 4.50006C122.1 4.10006 120.9 3.20006 120.8 4.40006Z" fill="white"/>
</g>
<mask id="mask1_201_713" style="mask-type:luminance" maskUnits="userSpaceOnUse" x="51" y="51" width="398" height="398">
<path d="M250 448.5C359.629 448.5 448.5 359.629 448.5 250C448.5 140.371 359.629 51.5 250 51.5C140.371 51.5 51.5 140.371 51.5 250C51.5 359.629 140.371 448.5 250 448.5Z" fill="white"/>
</mask>
<g mask="url(#mask1_201_713)">
<path d="M146.3 54.2C147 85.4 147.1 116.6 146.9 147.8C146.8 155.6 146.7 163.4 146.6 171.2C146.5 174.9 146.5 178.6 146.4 182.3C146.3 185.5 145.9 188.9 144.3 191.7C141.8 196.1 137 198.1 132.3 199.4C127.1 200.8 121.8 201.4 116.6 202.9C111.8 204.4 105.9 207.8 106.1 213.6C106.3 219.7 112.6 222.9 117.6 224.6C127.4 227.9 141.4 228.4 145.5 239.7C147.6 245.5 147.1 252 146.7 258C146.2 265.8 145.7 273.6 145.2 281.4C144.2 297 143.2 312.6 142.1 328.3C140.1 359.4 138 390.5 136 421.6C135.7 425.5 135.5 429.4 135.2 433.3C135 436 139.7 437.1 139.9 434.1C141.9 402.9 144 371.6 146 340.4C147 324.8 148 309.2 149.1 293.5C149.6 285.7 150.1 277.9 150.6 270.1C151.1 263.1 151.9 256.1 151.6 249.1C151.4 243.1 150 237 146.1 232.3C142.5 228 137.3 225.7 132 224.1C126.6 222.5 120.9 221.6 115.8 219.3C113.6 218.3 110.9 216.7 110.8 214C110.7 211.3 113.3 209.4 115.5 208.3C120.2 205.9 125.9 205.4 131.1 204.3C136 203.3 141.2 201.9 145 198.5C149.7 194.4 151 188.6 151.3 182.6C151.6 175 151.6 167.3 151.7 159.7C152.1 128.6 152 97.5 151.5 66.4C151.4 62.5 151.4 58.6 151.3 54.7C151 52.4 146.2 51.2 146.3 54.2Z" fill="white"/>
</g>
<mask id="mask2_201_713" style="mask-type:luminance" maskUnits="userSpaceOnUse" x="51" y="51" width="398" height="398">
<path d="M250 448.5C359.629 448.5 448.5 359.629 448.5 250C448.5 140.371 359.629 51.5 250 51.5C140.371 51.5 51.5 140.371 51.5 250C51.5 359.629 140.371 448.5 250 448.5Z" fill="white"/>
</mask>
<g mask="url(#mask2_201_713)">
<path d="M184.8 37.5001C185.7 68.4001 186.6 99.3001 185.9 130.2C185.6 145.3 185.2 160.6 183.6 175.6C182.3 187.7 177.7 201.9 164.3 205.1C159.5 206.2 153.6 208.1 154.4 214.3C155.1 219.5 160.2 223.9 165 225.5C170.1 227.2 177.2 226.6 181.4 230.4C185.7 234.3 185.2 241.3 184.7 246.5C183.2 261.5 181.2 276.5 179.5 291.5C177.8 306.8 176.3 322.2 174.9 337.5C172.2 367.9 170.4 398.5 170.1 429C170.1 432.7 170 436.5 170.1 440.2C170.1 442.2 174.6 443.9 174.6 441.1C174.6 410.3 176.2 379.5 178.7 348.8C181.2 318.3 184.6 287.9 188.2 257.5C189.5 246.3 192.6 231.4 180 225.4C177.3 224.1 174.4 223.6 171.5 223.1C168.9 222.6 165.9 222.3 163.6 220.9C161.5 219.7 159.5 217.5 159.2 215C158.9 212.1 161.2 210.3 163.7 209.5C166.4 208.7 169.1 208.3 171.7 207.1C174.3 205.9 176.5 204.2 178.5 202.2C182.8 197.8 185.4 192.2 186.9 186.3C188.7 179.2 189 171.8 189.4 164.5C189.9 156.8 190.2 149.1 190.5 141.3C191.5 110.8 190.8 80.2001 190 49.7001C189.9 45.8001 189.8 42.0001 189.7 38.1001C189.3 36.4001 184.7 34.8001 184.8 37.5001Z" fill="white"/>
</g>
<mask id="mask3_201_713" style="mask-type:luminance" maskUnits="userSpaceOnUse" x="51" y="51" width="398" height="398">
<path d="M250 448.5C359.629 448.5 448.5 359.629 448.5 250C448.5 140.371 359.629 51.5 250 51.5C140.371 51.5 51.5 140.371 51.5 250C51.5 359.629 140.371 448.5 250 448.5Z" fill="white"/>
</mask>
<g mask="url(#mask3_201_713)">
<path d="M84.7 101.5C85 115.3 84.9 129 84.6 142.8C84.5 146.3 84.4 149.7 84.3 153.2C84.2 156.3 84.3 159.5 83.5 162.5C82.1 168.2 76.5 171.8 71.9 174.7C61.9 181 50.6 184.9 39.9 189.9C31 194 19.4 200.2 20.7 211.8C21.9 222.7 32 230.7 40.7 236C49.7 241.5 59.7 245.5 67.5 252.7C71.4 256.3 74.5 260.7 76 265.9C77.8 272.1 77.2 278.6 76.2 284.8C75.2 291.2 74 297.5 73.5 304C72.9 310.5 72.7 317 72.8 323.5C72.9 349.6 76.6 375.8 73.3 401.9C72.9 405.1 72.4 408.2 71.8 411.4C71.4 413.3 76.3 414.4 76.7 412.5C81.8 386.7 78.7 360.3 77.9 334.2C77.5 321 77.7 307.7 79.7 294.7C81.6 282.8 84.5 270.2 77.9 259.3C72.4 250.3 62.8 244.7 53.8 239.8C44.6 234.9 34.5 229.8 28.8 220.8C25.8 216 24.1 210 27.1 204.7C29.6 200.2 34.2 197.2 38.7 194.9C49.2 189.4 60.5 185.7 70.9 180.1C75.9 177.4 81.1 174.2 85 170C89.4 165.3 89.1 159.1 89.3 153.1C89.8 139.3 89.9 125.5 89.8 111.7C89.8 108.4 89.7 105.1 89.7 101.8C89.5 100 84.6 99.2 84.7 101.5Z" fill="white"/>
</g>
<mask id="mask4_201_713" style="mask-type:luminance" maskUnits="userSpaceOnUse" x="51" y="51" width="398" height="398">
<path d="M250 448.5C359.629 448.5 448.5 359.629 448.5 250C448.5 140.371 359.629 51.5 250 51.5C140.371 51.5 51.5 140.371 51.5 250C51.5 359.629 140.371 448.5 250 448.5Z" fill="white"/>
</mask>
<g mask="url(#mask4_201_713)">
<path d="M213.9 25.6001C215.1 57.4001 215.4 89.3001 214.8 121.2C214.5 137.1 213.9 153.1 213.1 169C212.7 176.2 212.8 183.7 211.6 190.9C211.1 193.9 210.3 196.9 208.5 199.4C206.9 201.7 204.5 203.1 202.1 204.5C197.6 207 192.5 210 193.2 215.9C194 222.2 199.5 226 204.3 229.3C209.7 232.9 213.8 237.2 216.2 243.3C218.3 248.9 218.9 254.9 218.9 260.9C218.9 267.4 218.3 273.8 217.7 280.2C217 288.3 216.2 296.3 215.5 304.4C214.1 320.4 212.6 336.3 211.2 352.3C208.3 384.1 205.4 415.9 202.6 447.7C202.2 451.7 201.9 455.8 201.5 459.8C201.4 461 206.1 462.1 206.1 461.6C209 429.7 211.9 397.7 214.8 365.8C216.2 349.8 217.7 333.9 219.1 317.9C220.5 302.6 222.1 287.2 223.2 271.9C224 260.8 224.1 248 217.4 238.4C213.6 233 207.7 230.4 202.9 226.2C198.3 222.2 195.6 215.2 200.6 210.4C204.4 206.8 209.9 205.6 213.1 201.3C216.9 196 216.7 188.7 217 182.5C217.9 166.6 218.6 150.7 219 134.7C219.9 103 219.8 71.2001 218.8 39.5001C218.7 35.5001 218.5 31.5001 218.4 27.4001C218.5 26.1001 213.9 25.3001 213.9 25.6001Z" fill="white"/>
</g>
<mask id="mask5_201_713" style="mask-type:luminance" maskUnits="userSpaceOnUse" x="51" y="51" width="398" height="398">
<path d="M250 448.5C359.629 448.5 448.5 359.629 448.5 250C448.5 140.371 359.629 51.5 250 51.5C140.371 51.5 51.5 140.371 51.5 250C51.5 359.629 140.371 448.5 250 448.5Z" fill="white"/>
</mask>
<g mask="url(#mask5_201_713)">
<path d="M238.6 33.2C238.8 66.8 238.9 100.3 239.1 133.9C239.2 150.7 239.3 167.5 239.4 184.3C239.5 198.6 239.4 213.1 242.6 227.1C244.1 233.7 246.3 240.2 249.5 246.1C252.8 252.3 257.3 257.6 262.2 262.6C267.2 267.7 272.7 272.3 277.8 277.2C282.4 281.6 289.8 287.7 286.8 294.8C284 301.5 276.1 303.3 269.9 305.4C263.6 307.5 257.9 310.5 253.4 315.5C244.1 325.9 241.9 339.9 242.4 353.4C242.7 361.7 243.8 370 244.4 378.3C245 386.7 245.2 395 245 403.4C244.8 420.1 243.4 436.7 241.6 453.3C241.2 457.4 240.7 461.5 240.2 465.6C239.9 468.2 244.4 466.4 244.6 464.5C246.6 447.8 248.3 431.1 249 414.3C249.7 397.8 249.3 381.4 247.7 364.9C246.3 350.4 245 334.4 253.1 321.4C256.7 315.6 261.7 311.7 268.1 309.5C274.6 307.2 281.5 305.6 286.6 300.7C291.2 296.3 293.6 289.9 290.2 284C288.5 281 285.8 278.5 283.3 276C280.9 273.6 278.4 271.3 275.9 269C265.2 259.2 254.9 249.3 249.8 235.4C244.9 222.1 244 207.8 243.7 193.7C243.4 177.4 243.5 161.2 243.4 144.9C243.2 111.2 243.1 77.5 242.9 43.8C242.9 39.6 242.9 35.5 242.8 31.3C242.8 30.1 240.9 30.4 240.3 30.7C239.4 31.1 238.6 32 238.6 33.2Z" fill="white"/>
</g>
<mask id="mask6_201_713" style="mask-type:luminance" maskUnits="userSpaceOnUse" x="51" y="51" width="398" height="398">
<path d="M250 448.5C359.629 448.5 448.5 359.629 448.5 250C448.5 140.371 359.629 51.5 250 51.5C140.371 51.5 51.5 140.371 51.5 250C51.5 359.629 140.371 448.5 250 448.5Z" fill="white"/>
</mask>
<g mask="url(#mask6_201_713)">
<path d="M269.6 35.1C273.3 73.2 266.2 111.1 266.5 149.2C266.7 178.4 272 208.9 287.9 233.9C291.8 240 296.3 245.6 301.4 250.7C307 256.2 313.5 260.7 319.7 265.5C325.8 270.3 331.7 275.7 334.4 283.2C336.8 289.8 336.5 297.5 331.3 302.7C327.4 306.6 321.8 308.4 316.5 309.6C310.9 310.9 305.2 311.7 299.7 313.5C294.6 315.1 290 317.9 287 322.4C282.5 329.5 283.6 339 283.6 346.9C283.6 385.9 283.6 424.8 283.6 463.8C283.6 468.5 283.6 473.2 283.6 478C283.6 480.6 287.6 482.1 287.6 478.9C287.6 439.9 287.6 401 287.6 362C287.6 357.1 287.6 352.3 287.6 347.4C287.6 342.9 287.3 338.2 287.9 333.7C288.7 327 292.1 322.2 298.2 319.4C308.5 314.7 320.8 315.9 330.5 309.7C343.2 301.6 341.3 285 333.6 274C329 267.5 322.4 262.6 316.1 257.9C310 253.3 304.1 248.5 299 242.8C279.5 220.5 272.2 189.9 270.7 161C268.7 123.9 275.7 87 274.4 50C274.2 45.4 273.9 40.8 273.5 36.2C273.4 35.1 272.7 33.6 271.4 33.4C270.4 33 269.5 34 269.6 35.1Z" fill="white"/>
</g>
<mask id="mask7_201_713" style="mask-type:luminance" maskUnits="userSpaceOnUse" x="51" y="51" width="398" height="398">
<path d="M250 448.5C359.629 448.5 448.5 359.629 448.5 250C448.5 140.371 359.629 51.5 250 51.5C140.371 51.5 51.5 140.371 51.5 250C51.5 359.629 140.371 448.5 250 448.5Z" fill="white"/>
</mask>
<g mask="url(#mask7_201_713)">
<path d="M305.4 42.9C308.2 81.2 305.7 119.6 307.5 157.9C308.2 174.2 308.8 191.7 316 206.6C323.1 221.2 337.2 229 349.5 238.7C361.6 248.1 372.5 259.6 379.2 273.4C385.4 286.2 388.1 302.1 381.8 315.4C378.9 321.6 374.1 326.3 367.8 329C361.9 331.6 355.4 332.5 349.1 333.8C343.2 335.1 337.2 336.6 332.4 340.5C326.7 345.1 324.5 352 323.9 359.1C323.1 368 323.6 377.1 323.6 386C323.6 395.6 323.6 405.1 323.7 414.7C323.7 434 323.8 453.3 323.8 472.5C323.8 477.2 323.8 481.9 323.8 486.6C323.8 487.9 328.2 489.9 328.2 488.7C328.1 450.1 328.1 411.6 328 373C328 365.3 327.6 357 331.2 349.9C334.3 343.8 339.9 340.3 346.3 338.4C358.3 334.7 372.5 335.1 381.5 325.1C390.9 314.7 391.3 298.9 387.7 286.1C383.6 271.8 374.7 259.4 364.2 249C358.8 243.7 352.9 238.9 346.8 234.4C340.3 229.7 333.4 225.2 327.8 219.2C316.4 207 313.9 190 312.7 174C309.8 135.7 312.3 97.3 310.6 59C310.4 54.3 310.1 49.6 309.8 45C309.7 43.7 305.3 41.8 305.4 42.9Z" fill="white"/>
</g>
<mask id="mask8_201_713" style="mask-type:luminance" maskUnits="userSpaceOnUse" x="51" y="51" width="398" height="398">
<path d="M250 448.5C359.629 448.5 448.5 359.629 448.5 250C448.5 140.371 359.629 51.5 250 51.5C140.371 51.5 51.5 140.371 51.5 250C51.5 359.629 140.371 448.5 250 448.5Z" fill="white"/>
</mask>
<g mask="url(#mask8_201_713)">
<path d="M342.2 51.9001C341.2 85.2001 342.6 118.7 346.6 151.8C348.4 166.9 350.4 182.5 356.8 196.5C362.9 209.8 373.1 220.6 383.7 230.5C403.7 249.4 429.4 270 428.4 300.5C428 313.9 420.9 324.9 410.5 332.9C400.7 340.5 389.4 345.7 379.1 352.5C373.6 356.1 368.3 360.3 364.5 365.8C360.4 371.7 359.1 378.7 358.8 385.7C358.5 393.7 358.9 401.8 359.3 409.8C359.7 418.1 360.3 426.5 361.1 434.8C361.5 439 361.9 443.1 362.4 447.2C362.5 447.7 367.2 446.7 367.1 445.5C365.2 428.9 364 412.3 363.6 395.6C363.4 388 363 380 365.2 372.6C367.3 365.7 371.9 360.3 377.4 355.9C395.9 341.2 424.9 334 431.8 308.4C435.4 295 431.9 280.5 425.1 268.7C417.8 256.1 407.1 245.9 396.5 236.1C385.9 226.3 374.9 216.5 366.9 204.3C358.6 191.5 355 176.7 352.9 161.8C348.2 129 346.3 95.7001 346.7 62.6001C346.8 58.4001 346.8 54.3001 347 50.1001C346.9 49.8001 342.2 50.6001 342.2 51.9001Z" fill="white"/>
</g>
<mask id="mask9_201_713" style="mask-type:luminance" maskUnits="userSpaceOnUse" x="51" y="51" width="398" height="398">
<path d="M250 448.5C359.629 448.5 448.5 359.629 448.5 250C448.5 140.371 359.629 51.5 250 51.5C140.371 51.5 51.5 140.371 51.5 250C51.5 359.629 140.371 448.5 250 448.5Z" fill="white"/>
</mask>
<g mask="url(#mask9_201_713)">
<path d="M376.2 53.4999C375 85.7999 373.7 118.7 380.8 150.4C382.5 157.9 384.8 165.4 388 172.4C390.9 178.7 394.6 184.6 398.7 190.1C406.9 201.3 416.6 211.2 425.7 221.7C444.3 243.3 459.4 269.8 457.2 299.3C456.2 313.3 451.2 327 441.9 337.7C432.9 348.1 421.1 355.7 412 366.1C393.7 387 392.8 415.8 394.5 442.1C394.7 445.5 395 449 395.3 452.4C395.4 454.1 399.9 452.1 399.8 450.6C397.7 424.4 395.6 394.3 411.4 371.6C419.3 360.2 431.1 352.4 440.8 342.8C450.7 333 457.4 321.2 460.3 307.6C466.4 279.1 454.8 250.5 437.4 228.2C420.2 206.2 397.8 187.8 388.7 160.5C383.6 145.2 381.6 128.8 380.6 112.8C379.6 96.5999 379.9 80.2999 380.4 64.0999C380.5 59.9999 380.7 55.8999 380.8 51.6999C380.8 50.0999 376.3 51.8999 376.2 53.4999Z" fill="white"/>
</g>
<mask id="mask10_201_713" style="mask-type:luminance" maskUnits="userSpaceOnUse" x="51" y="51" width="398" height="398">
<path d="M250 448.5C359.629 448.5 448.5 359.629 448.5 250C448.5 140.371 359.629 51.5 250 51.5C140.371 51.5 51.5 140.371 51.5 250C51.5 359.629 140.371 448.5 250 448.5Z" fill="white"/>
</mask>
<g mask="url(#mask10_201_713)">
<path d="M404.8 94.6999C409.5 112.5 409.1 131.2 414.3 148.9C416.9 158 421.2 166.3 426.7 173.9C432.4 181.7 439.1 188.8 445.8 195.8C453.8 204.3 461.9 212.7 470.2 221C470.8 221.6 471.1 221.5 470.8 220.6C470.5 219.6 469.7 218.4 469 217.6C462 210.5 455 203.4 448.2 196.2C441.8 189.5 435.2 182.8 429.4 175.5C424 168.7 419.8 161.5 417.3 153.2C414.7 144.9 413.5 136.2 412.4 127.5C411.2 117.6 410.1 107.7 407.5 98.0999C407.2 96.9999 406.6 95.9999 405.9 95.0999C405.6 94.8999 404.5 93.6999 404.8 94.6999Z" fill="white"/>
</g>
</svg>
