<svg width="500" height="500" viewBox="0 0 500 500" fill="none" xmlns="http://www.w3.org/2000/svg">
<mask id="mask0_201_745" style="mask-type:luminance" maskUnits="userSpaceOnUse" x="51" y="51" width="398" height="398">
<path d="M250 448.5C359.629 448.5 448.5 359.629 448.5 250C448.5 140.371 359.629 51.5 250 51.5C140.371 51.5 51.5 140.371 51.5 250C51.5 359.629 140.371 448.5 250 448.5Z" fill="white"/>
</mask>
<g mask="url(#mask0_201_745)">
<path d="M38.8 105.7C44.1 92.8 54.9 83.4 66.6 76.6C79.8 68.9 94.8 63.3 109.9 61C117.7 59.8 125.7 59.5 133.6 60.7C141.1 61.8 148 64.6 154.7 68C166.9 74.3 179.2 83 193.4 83.6C209.1 84.2 221.2 73.2 233.9 65.6C247 57.8 262.2 51.9 277.7 54.4C285.2 55.6 291.7 59 297.4 64C303 69 308 74.5 314.6 78.3C326.8 85.2 341.9 86.8 355.3 82.4C368.7 78 378.8 67.7 389.8 59.4C395.5 55.1 401.5 51.3 408.4 49.1C416.1 46.7 424.3 46.3 432.4 46.4C436.4 46.5 440.5 46.7 444.5 47C447.8 47.2 447.2 43.2 444.3 43C428.5 42 412 41.3 397.6 48.9C384.9 55.6 375.3 66.5 363.2 73.9C350.9 81.4 335.9 82.9 322.5 77.5C315.4 74.7 310 69.9 304.5 64.7C298.9 59.4 293.1 54.7 285.7 52.2C271 47.1 254.9 50.3 241.1 56.7C233.9 60.1 227.2 64.3 220.6 68.7C214.1 73 207.4 77.6 199.6 79C185.4 81.6 172.3 72.7 160.4 66.3C153.9 62.8 147.1 59.5 139.8 57.8C132.1 55.9 124.1 55.5 116.1 56.1C100.4 57.3 84.9 62.4 70.9 69.3C58.5 75.4 46.5 83.6 38.8 95.4C37 98.2 35.4 101.2 34.2 104.3C33 106.7 37.8 108.1 38.8 105.7Z" fill="white"/>
</g>
<mask id="mask1_201_745" style="mask-type:luminance" maskUnits="userSpaceOnUse" x="51" y="51" width="398" height="398">
<path d="M250 448.5C359.629 448.5 448.5 359.629 448.5 250C448.5 140.371 359.629 51.5 250 51.5C140.371 51.5 51.5 140.371 51.5 250C51.5 359.629 140.371 448.5 250 448.5Z" fill="white"/>
</mask>
<g mask="url(#mask1_201_745)">
<path d="M162.9 52.2C171.7 62.3 185.3 67.3 198.6 66.4C205.6 65.9 212.4 64 218.7 61C225.2 57.8 230.6 53.2 236.6 49.2C242.5 45.3 249.2 43 256.2 41.9C262.8 40.9 269.6 40.5 276.3 40.7C282.5 40.9 288.9 41.7 294.8 43.7C300.8 45.7 306.1 48.8 310.7 53.1C313.5 55.7 316.1 58.5 319.2 60.8C322.3 63.1 325.9 64.8 329.6 65.8C337 67.8 344.9 67.1 352.5 66.4C355.6 66.1 354 61.8 351.4 62C344.8 62.6 337.9 63.3 331.3 61.9C328.3 61.3 325.5 60.2 323 58.5C320.3 56.7 318 54.5 315.6 52.2C310.9 47.6 305.9 43.7 299.8 41.1C293.9 38.6 287.5 37.2 281.1 36.6C274.7 36 268.2 36.1 261.7 36.6C254.8 37.2 247.7 38.3 241.3 41C234.7 43.8 229.3 48.4 223.5 52.4C217.8 56.3 211.4 59.2 204.6 60.8C191 63.9 175.7 60.4 166.3 49.7C165.5 48.8 164 48.3 163 49C162 49.9 162.2 51.4 162.9 52.2Z" fill="white"/>
</g>
<mask id="mask2_201_745" style="mask-type:luminance" maskUnits="userSpaceOnUse" x="51" y="51" width="398" height="398">
<path d="M250 448.5C359.629 448.5 448.5 359.629 448.5 250C448.5 140.371 359.629 51.5 250 51.5C140.371 51.5 51.5 140.371 51.5 250C51.5 359.629 140.371 448.5 250 448.5Z" fill="white"/>
</mask>
<g mask="url(#mask2_201_745)">
<path d="M135.5 74.5C142.1 81 148.8 87.5 156.7 92.3C165.1 97.4 174.5 99.7 184.3 99.6C194.5 99.5 205 97.4 214.9 94.7C219.8 93.3 224.6 91.6 229.1 89.5C233.4 87.5 237.5 85.2 241.7 82.8C249.7 78.3 257.7 73.4 266.6 71C271.1 69.8 275.8 69.2 280.4 70.2C284.7 71.2 288.3 73.7 291.3 76.9C294.3 80.1 296.8 83.8 299.8 87C302.8 90.3 306.1 93.3 309.8 95.9C317.2 101.2 325.9 104.6 335 105.5C344.6 106.5 354.4 104.6 362.9 99.9C371.1 95.3 377.6 88.5 383.5 81.5C385 79.7 386.5 77.9 387.9 76.1C388.6 75.3 388.4 74 387.4 73.7C386.2 73.3 384.9 74.3 384.2 75.1C378.6 81.9 372.9 88.9 365.7 94.1C358.3 99.4 349.6 102 340.6 101.8C331.7 101.6 323.1 98.7 315.6 94C311.9 91.7 308.5 88.9 305.5 85.8C302.5 82.7 299.9 79.2 297.2 76C294.5 72.9 291.5 69.8 287.8 68C283.5 66 278.7 65.4 274.1 65.9C264.9 66.9 256.3 70.9 248.3 75.3C240.2 79.8 232.4 84.8 223.7 88.1C214.5 91.7 204.6 93.8 194.8 95C185.2 96.2 175.3 95.9 166.3 92C158 88.4 151 82.4 144.5 76.3C142.9 74.8 141.3 73.2 139.7 71.7C138.9 70.9 137.6 71.1 136.7 71.7C136.1 72.1 134.7 73.7 135.5 74.5Z" fill="white"/>
</g>
<mask id="mask3_201_745" style="mask-type:luminance" maskUnits="userSpaceOnUse" x="51" y="51" width="398" height="398">
<path d="M250 448.5C359.629 448.5 448.5 359.629 448.5 250C448.5 140.371 359.629 51.5 250 51.5C140.371 51.5 51.5 140.371 51.5 250C51.5 359.629 140.371 448.5 250 448.5Z" fill="white"/>
</mask>
<g mask="url(#mask3_201_745)">
<path d="M128.3 80.2C136.5 98.6 156.1 109.2 175.4 111.5C199.8 114.4 223.4 106.4 246.6 99.9C252.4 98.3 258.2 96.7 264 95.4C268.5 94.5 273.3 93.9 277.9 94.3C282.2 94.7 286.5 96 289.6 99.1C291.4 100.9 292.8 103.1 294.1 105.4C295.5 107.7 296.9 110 298.4 112.3C304.3 121.3 311.5 129.7 320.9 135.2C329.9 140.4 341 142.8 351.2 139.8C371.8 133.6 379.3 110.8 393.4 96.9C395.2 95.1 397.1 93.6 399.2 92.1C401.5 90.5 398.1 86.9 396 88.3C379.3 100 373.3 122 355.7 132.5C347 137.7 336.7 137.7 327.5 133.9C317.9 129.9 310.5 122.3 304.6 114C301.6 109.8 299.1 105.1 296.2 100.8C293.4 96.6 289.7 93.3 285 91.6C275.7 88.2 265.6 90.2 256.3 92.5C233.3 98.1 210.7 107.3 186.7 107.8C167.6 108.1 146.5 101.8 135.6 84.9C134.4 83 133.3 81 132.4 79C131.3 76.4 126.9 77.2 128.3 80.2Z" fill="white"/>
</g>
<mask id="mask4_201_745" style="mask-type:luminance" maskUnits="userSpaceOnUse" x="51" y="51" width="398" height="398">
<path d="M250 448.5C359.629 448.5 448.5 359.629 448.5 250C448.5 140.371 359.629 51.5 250 51.5C140.371 51.5 51.5 140.371 51.5 250C51.5 359.629 140.371 448.5 250 448.5Z" fill="white"/>
</mask>
<g mask="url(#mask4_201_745)">
<path d="M116.9 93.2C121.1 103.3 130 110.4 139.6 115C150.8 120.4 163 123.1 175.4 124C201.7 125.9 227.4 119.1 252.4 112.1C255.6 111.2 258.9 110.3 262.1 109.4C265 108.6 268.1 107.9 271.1 108.4C275.5 109.2 278.7 112.8 281.1 116.4C283.8 120.4 286 124.8 288.9 128.7C291.8 132.6 295.2 136 299.1 138.9C315.1 150.7 336.8 153.5 355.6 147.3C375.8 140.7 391.9 125 402.4 106.9C403.7 104.7 404.9 102.4 406 100C407.2 97.5 402.4 96.3 401.3 98.6C392.5 116.6 378.3 133 359.7 141.2C342.5 148.8 322.1 148.3 305.9 138.3C302 135.9 298.4 132.9 295.3 129.4C292.3 126 290 121.9 287.7 118C285.2 113.9 282.5 109.9 278.5 107.2C273.7 103.9 268 103.7 262.5 105C256.2 106.5 250 108.5 243.8 110.2C237.6 111.9 231.3 113.6 225 115C212.8 117.8 200.2 120 187.7 120.3C175.7 120.6 163.6 119.3 152.1 115.6C142.2 112.4 131.9 107.4 125.5 98.9C124 96.9 122.7 94.8 121.7 92.5C121.2 91.3 120 90.7 118.7 90.9C117.8 91 116.4 92 116.9 93.2Z" fill="white"/>
</g>
<mask id="mask5_201_745" style="mask-type:luminance" maskUnits="userSpaceOnUse" x="51" y="51" width="398" height="398">
<path d="M250 448.5C359.629 448.5 448.5 359.629 448.5 250C448.5 140.371 359.629 51.5 250 51.5C140.371 51.5 51.5 140.371 51.5 250C51.5 359.629 140.371 448.5 250 448.5Z" fill="white"/>
</mask>
<g mask="url(#mask5_201_745)">
<path d="M99.0001 106C116.1 121.9 137.7 132.9 160.6 137.4C172 139.6 183.7 140.2 195.2 139C208.1 137.6 220.3 133.5 232.6 129.7C238.8 127.8 245.1 126 251.6 125.1C254.9 124.7 258.3 124.3 261.6 124.5C264.9 124.7 267.3 126.1 269.3 128.7C271 130.9 272.3 133.3 274 135.4C275.6 137.4 277.2 139.3 279 141.1C282.7 144.8 286.9 148 291.4 150.6C310 161.4 332.9 163 353.3 156.9C375.5 150.2 394.3 135.7 408.4 117.5C410.1 115.3 411.8 113 413.4 110.7C413.8 110.1 411.7 110.4 411.5 110.4C410.7 110.6 409.2 110.9 408.6 111.6C396.3 129.9 379 146 358.1 154C338.6 161.4 316.4 160.1 298 150.2C288.8 145.2 281.4 138.3 275.6 129.6C274.2 127.4 272.6 125.2 270.2 124C267.6 122.7 264.5 122.8 261.7 122.8C255.2 123 248.7 124.1 242.4 125.7C230 128.8 218.1 133.8 205.4 136.2C194.3 138.3 182.9 138.5 171.7 137C149.1 134 127.5 124.4 109.8 110C107.6 108.2 105.5 106.4 103.5 104.5C102.8 103.6 98.5001 105.5 99.0001 106Z" fill="white"/>
</g>
<mask id="mask6_201_745" style="mask-type:luminance" maskUnits="userSpaceOnUse" x="51" y="51" width="398" height="398">
<path d="M250 448.5C359.629 448.5 448.5 359.629 448.5 250C448.5 140.371 359.629 51.5 250 51.5C140.371 51.5 51.5 140.371 51.5 250C51.5 359.629 140.371 448.5 250 448.5Z" fill="white"/>
</mask>
<g mask="url(#mask6_201_745)">
<path d="M51.2 201.9C65 209.6 81.9 211 97.4 211.3C105.7 211.5 114.1 210.9 122.2 209C129.9 207.2 137.2 204.2 144.2 200.5C171.2 186.3 194.2 161.3 225.5 156.7C239.4 154.7 254.5 156.9 265.4 166.3C271.1 171.2 275.4 177.6 280 183.5C284.5 189.4 289.5 194.8 295.1 199.7C306.7 209.9 320.5 217.3 335.3 221.9C350.6 226.7 366.7 228.8 382.7 229.7C412.7 231.4 446 227.1 467.9 204.4C470.3 201.9 472.4 199.3 474.4 196.5C475.2 195.3 472.4 191.3 471.5 192.6C453.5 218.2 420.8 225.9 391.2 225.6C359.6 225.3 325.8 220.1 300.1 200.4C294.1 195.8 288.6 190.5 283.7 184.7C279 179 274.9 172.8 269.8 167.3C260.3 157 247.5 151.7 233.5 151.6C202.3 151.3 178.1 173.7 153.2 189.4C139.6 198 125 204.8 108.8 206.4C100.5 207.2 92 206.9 83.7 206.2C75.8 205.5 67.9 204.5 60.4 202.1C56.8 200.9 53.3 199.4 49.9 197.6C48.9 197 49 198.6 49.1 199.1C49.4 200.3 50.2 201.4 51.2 201.9Z" fill="white"/>
</g>
<mask id="mask7_201_745" style="mask-type:luminance" maskUnits="userSpaceOnUse" x="51" y="51" width="398" height="398">
<path d="M250 448.5C359.629 448.5 448.5 359.629 448.5 250C448.5 140.371 359.629 51.5 250 51.5C140.371 51.5 51.5 140.371 51.5 250C51.5 359.629 140.371 448.5 250 448.5Z" fill="white"/>
</mask>
<g mask="url(#mask7_201_745)">
<path d="M82.3 106C93.9 118.8 108.9 128.1 124.7 134.7C133.5 138.4 142.7 141.2 151.9 143.6C156.5 144.8 161.1 145.8 165.7 146.8C169.9 147.7 174.6 148.1 178.4 150.1C181.5 151.7 184.4 155.7 182.9 159.4C182.2 161.2 180.6 162.4 178.9 163.3C176.8 164.5 174.7 165.5 172.6 166.6C163.9 170.9 154.9 174.6 146 178.4C128.9 185.6 111.3 191.7 92.6 192.7C74.7 193.7 56.5 190.8 39.8 184.3C37.7 183.5 35.7 182.6 33.7 181.7C32.7 181.2 31.3 181.5 30.3 181.9C29.8 182.1 28.6 182.7 29.6 183.2C46.7 190.9 65.3 194.8 84 194.8C93.5 194.8 102.9 193.8 112.2 191.8C121.9 189.7 131.4 186.5 140.7 182.9C150 179.2 159.2 175.2 168.3 171.2C172.9 169.1 177.6 167 182 164.5C185.2 162.7 188.8 160.1 188.2 156C187.7 151.9 184.1 149.2 180.5 147.9C176.2 146.4 171.6 145.8 167.2 144.9C157.4 142.8 147.8 140.3 138.3 137C121.2 131 104.7 122.4 91.5 109.7C89.9 108.2 88.4 106.6 87 105C86.1 103.8 81.6 105.1 82.3 106Z" fill="white"/>
</g>
<mask id="mask8_201_745" style="mask-type:luminance" maskUnits="userSpaceOnUse" x="51" y="51" width="398" height="398">
<path d="M250 448.5C359.629 448.5 448.5 359.629 448.5 250C448.5 140.371 359.629 51.5 250 51.5C140.371 51.5 51.5 140.371 51.5 250C51.5 359.629 140.371 448.5 250 448.5Z" fill="white"/>
</mask>
<g mask="url(#mask8_201_745)">
<path d="M76 123.3C80.3 128.3 86.3 131.3 92.4 133.7C99.1 136.3 106 138.5 112.9 140.5C126.5 144.4 140.3 147.7 153.5 153C155 153.6 156.5 154.3 158 154.9C159.6 155.6 161.3 156.3 162.7 157.2C164.2 158.2 162.8 159.2 161.8 159.9C160.5 160.9 159.1 161.7 157.6 162.3C154.5 163.7 151.1 164.5 147.8 165.3C144.1 166.2 140.3 166.9 136.5 167.5C121.3 169.9 105.9 170.5 90.6 171.6C86.1 171.9 81.7 172.2 77.2 172.5C73 172.8 68.8 173.1 64.6 173C57.4 172.7 50 170.9 44.9 165.6C44.1 164.7 42.7 164.5 41.6 164.7C40.8 164.9 39.7 165.6 40.5 166.5C51.5 178.1 68.9 176 83.3 175C99.6 173.9 116 173.2 132.2 171.2C140 170.2 147.8 168.9 155.4 166.7C158.8 165.7 162.1 164.5 165.1 162.5C166.3 161.7 168 160.7 168.5 159.2C169 157.6 167.7 156.3 166.5 155.5C163.4 153.6 159.8 152.2 156.5 150.8C153 149.4 149.4 148.1 145.8 146.9C138.7 144.5 131.5 142.5 124.3 140.6C116.2 138.4 108.1 136.2 100.2 133.4C93.2 130.9 85.7 128.2 80.7 122.4C79.9 121.5 78.4 121.3 77.4 121.5C76.3 121.7 75.2 122.4 76 123.3Z" fill="white"/>
</g>
<mask id="mask9_201_745" style="mask-type:luminance" maskUnits="userSpaceOnUse" x="51" y="51" width="398" height="398">
<path d="M250 448.5C359.629 448.5 448.5 359.629 448.5 250C448.5 140.371 359.629 51.5 250 51.5C140.371 51.5 51.5 140.371 51.5 250C51.5 359.629 140.371 448.5 250 448.5Z" fill="white"/>
</mask>
<g mask="url(#mask9_201_745)">
<path d="M74.1001 143.9C83.8001 148.9 93.5001 153.5 104.3 155.4C114.9 157.3 125.7 157.5 136.3 159.1C137.6 159.3 138.9 159.5 140.1 159.8C141.4 160.1 142.8 160.6 144.2 160.7C144.2 160.7 144.7 160.9 144.7 160.8C144.5 160.5 144.3 160.2 144.1 160C143.8 159.1 143.6 158.9 143.4 159.4C143 159.6 142.6 160 142.2 160.3C141.1 160.9 139.8 161.2 138.6 161.4C136 161.8 133.3 161.6 130.7 161.6C127.8 161.6 125 161.6 122.1 161.6C110.8 161.5 99.4001 161.5 88.2001 160.1C76.8001 158.7 65.2001 155.6 55.8001 148.8C55.1001 148.3 53.8001 147.7 53.3001 148.7C52.8001 149.7 54.0001 151.1 54.7001 151.6C74.0001 165.5 98.8001 165.4 121.5 165.7C127.3 165.8 133.3 166.1 139.1 165.6C141.6 165.4 144.4 165 146.3 163.4C148.8 161.4 146.4 158.2 144.2 157.2C141.7 156.1 138.7 155.7 136 155.3C133.2 154.8 130.4 154.4 127.5 154.1C121.8 153.5 116.1 153.1 110.4 152.4C104 151.7 97.6001 150.5 91.5001 148.3C85.4001 146.1 79.7001 143.2 73.9001 140.2C73.1001 139.8 72.0001 139.8 71.9001 140.9C72.0001 142.2 73.2001 143.4 74.1001 143.9Z" fill="white"/>
</g>
<mask id="mask10_201_745" style="mask-type:luminance" maskUnits="userSpaceOnUse" x="51" y="51" width="398" height="398">
<path d="M250 448.5C359.629 448.5 448.5 359.629 448.5 250C448.5 140.371 359.629 51.5 250 51.5C140.371 51.5 51.5 140.371 51.5 250C51.5 359.629 140.371 448.5 250 448.5Z" fill="white"/>
</mask>
<g mask="url(#mask10_201_745)">
<path d="M418.6 118.9C410.1 129.9 399.1 138.9 386.9 145.6C373.5 152.9 358.8 157.5 343.8 159.9C336 161.1 328.1 161.8 320.2 161.9C312.3 162.1 304.2 161.7 296.7 159.1C284.6 154.9 274.9 145.9 263.4 140.4C260.5 139 257.5 137.8 254.4 137.1C252.8 136.7 251.1 136.4 249.5 136.2C247.8 136 245.9 135.8 244.3 136.5C242.6 137.3 241.6 138.9 241.7 140.7C241.8 142.4 242.7 143.8 243.8 145.1C244.9 146.4 246.5 147.4 247.9 148.4C249.5 149.5 251.1 150.6 252.7 151.7C259 155.8 265.6 159.5 271.7 163.8C277.8 168 283 173 288.1 178.3C293.3 183.6 298.4 189 304.6 193.1C311.1 197.5 318.5 200.3 325.8 203C341 208.5 356.7 212.4 372.7 214.6C380.8 215.8 389 216.5 397.2 216.9C405.3 217.2 413.7 217.5 421.7 215.5C429.3 213.6 436.4 209.8 443.2 206C450.1 202.1 456.8 197.8 463.1 193.1C466.2 190.8 469.3 188.4 472.3 185.9C473.3 185.1 473.4 183.6 472.5 182.7C471.5 181.8 470 181.9 469 182.7C457.2 192.4 444.3 201 430.4 207.5C427 209.1 423.5 210.4 419.8 211.3C416 212.2 412.1 212.4 408.2 212.5C400.3 212.6 392.3 212.2 384.4 211.4C368.6 209.9 353 206.7 337.8 202C330.4 199.7 323.1 197.2 316.1 194C309.4 190.9 303.6 186.7 298.3 181.6C293.1 176.6 288.4 171.2 283.1 166.5C277.5 161.6 271.3 157.6 265 153.7C261.8 151.7 258.6 149.8 255.5 147.8C254 146.8 252.6 145.8 251.1 144.8C249.9 143.9 248.4 143 247.4 141.8C247 141.3 246.8 140.8 246.6 140.3C246.5 140.2 246.6 139.9 246.5 140.1C246.5 140.5 246.2 140.1 246.5 140.3C246.7 140.4 247.4 140.3 247.6 140.4C248 140.4 248.3 140.5 248.7 140.5C249.4 140.6 250.1 140.7 250.8 140.8C253.7 141.4 256.5 142.3 259.2 143.5C270.8 148.6 280.4 157.4 292.1 162.1C299.2 165 306.8 166 314.5 166.2C322.3 166.3 330.2 165.9 337.9 165C353.3 163.2 368.4 159.3 382.4 152.7C394.9 147 406.5 139 416 129C418.4 126.5 420.6 123.9 422.8 121.1C423.6 120.1 423.1 118.6 422.1 118.1C420.9 117.4 419.4 117.9 418.6 118.9Z" fill="white"/>
</g>
<mask id="mask11_201_745" style="mask-type:luminance" maskUnits="userSpaceOnUse" x="51" y="51" width="398" height="398">
<path d="M250 448.5C359.629 448.5 448.5 359.629 448.5 250C448.5 140.371 359.629 51.5 250 51.5C140.371 51.5 51.5 140.371 51.5 250C51.5 359.629 140.371 448.5 250 448.5Z" fill="white"/>
</mask>
<g mask="url(#mask11_201_745)">
<path d="M422.7 132.7C416.8 139.9 410.2 146.6 402.8 152.1C395.1 157.8 386.6 162.1 377.3 164.6C358.1 169.7 337.9 168.1 318.3 170.6C315.9 170.9 313.5 171.3 311.1 171.7C309 172.1 306.5 172.5 305.4 174.5C304.3 176.5 305.7 178.2 307.3 179.5C309.4 181.2 311.8 182.3 314.1 183.5C323.4 188.5 332.9 192.9 343.1 195.7C353.3 198.5 363.8 200.4 374.2 202C385 203.7 395.9 204.9 406.8 205C417.2 205.2 428.3 204.9 438.1 201.2C442.9 199.4 447.4 196.8 452 194.3C456.8 191.7 461.7 189 466.5 186.4C468.9 185.1 471.3 183.8 473.7 182.5C474 182.3 472.1 180.8 471.9 180.7C471.5 180.4 470.2 179.3 469.6 179.6C460.3 184.6 451.1 189.8 441.7 194.7C437.2 197 432.6 199 427.6 200.1C422.5 201.2 417.3 201.6 412.2 201.8C391.2 202.6 370.1 199.4 349.6 195C339.5 192.9 329.8 189.9 320.5 185.4C318.2 184.3 315.9 183.1 313.6 181.9C312.6 181.4 311.5 180.8 310.5 180.2C309.9 179.9 309.4 179.6 308.8 179.3C308.6 179.2 308.5 179.1 308.3 179C307.8 178.7 307.9 178.8 308.6 179.2C309.1 179.7 309.3 179.7 309 179.3C309.1 178.9 308.9 178.3 309.1 177.8C309.2 177.4 309.4 177 309.7 176.7C310.5 175.7 311.7 175.2 312.8 174.9C315.1 174.3 317.4 174 319.7 173.7C338.7 171 358.1 172.5 376.9 168.4C385.8 166.5 394.3 163.1 402 158.1C409.6 153.2 416.3 147.1 422.3 140.4C423.8 138.8 425.2 137.1 426.7 135.4C427.1 135.3 423.1 132.2 422.7 132.7Z" fill="white"/>
</g>
<mask id="mask12_201_745" style="mask-type:luminance" maskUnits="userSpaceOnUse" x="51" y="51" width="398" height="398">
<path d="M250 448.5C359.629 448.5 448.5 359.629 448.5 250C448.5 140.371 359.629 51.5 250 51.5C140.371 51.5 51.5 140.371 51.5 250C51.5 359.629 140.371 448.5 250 448.5Z" fill="white"/>
</mask>
<g mask="url(#mask12_201_745)">
<path d="M428.7 148.9C424.3 154 419.8 159.1 414.5 163.3C409.4 167.4 403.7 170.3 397.5 172.3C384.4 176.6 370.4 176.8 356.7 176.8C348.2 176.8 339.6 176.7 331.1 177.4C329.4 177.5 328.5 179.7 329.8 180.9C336.2 186.6 344.6 187.5 352.7 188.9C362.1 190.5 371.5 192.3 380.9 193.6C399.4 196.2 418.4 196.8 436.3 190.6C446.2 187.2 455.8 182.7 465.5 178.6C468.4 177.4 465.8 173.4 463.2 174.5C454.8 178.1 446.5 181.8 438 185.1C429.7 188.3 421.2 190.3 412.3 190.9C394.1 192.2 376 188.5 358.2 185.4C353.5 184.6 348.8 184 344.2 183C340.4 182.2 336.4 180.9 333.5 178.3C333.1 179.5 332.6 180.6 332.2 181.8C360.1 179.4 391.8 185.9 416.1 168.2C422.5 163.5 427.7 157.6 432.9 151.7C434.7 149.5 430.5 146.9 428.7 148.9Z" fill="white"/>
</g>
<mask id="mask13_201_745" style="mask-type:luminance" maskUnits="userSpaceOnUse" x="51" y="51" width="398" height="398">
<path d="M250 448.5C359.629 448.5 448.5 359.629 448.5 250C448.5 140.371 359.629 51.5 250 51.5C140.371 51.5 51.5 140.371 51.5 250C51.5 359.629 140.371 448.5 250 448.5Z" fill="white"/>
</mask>
<g mask="url(#mask13_201_745)">
<path d="M434.4 160.9C431.4 168.4 423.5 172.4 416.1 174.5C411.7 175.8 407.3 176.7 402.9 177.7C398.2 178.8 393.4 179.9 388.7 181.1C387.7 181.3 387.6 182.2 388.1 183C388.6 183.9 389.7 184.8 390.8 184.9C401.4 185.6 412.1 186.1 422.7 185.7C433 185.4 442.8 183 452.4 179.3C457.8 177.2 463 174.9 468.2 172.5C470.1 171.6 466.6 168.2 464.8 169C455.9 173 446.9 177.1 437.3 179.6C427.3 182.1 417.1 182.1 406.9 181.9C401 181.8 395.1 181.5 389.3 181.1C390 182.4 390.7 183.6 391.4 184.9C396.4 183.7 401.4 182.6 406.4 181.4C411 180.3 415.7 179.4 420.2 177.9C428.1 175.4 435.7 171.1 438.9 163.1C439.4 161.4 435.3 158.8 434.4 160.9Z" fill="white"/>
</g>
<mask id="mask14_201_745" style="mask-type:luminance" maskUnits="userSpaceOnUse" x="51" y="51" width="398" height="398">
<path d="M250 448.5C359.629 448.5 448.5 359.629 448.5 250C448.5 140.371 359.629 51.5 250 51.5C140.371 51.5 51.5 140.371 51.5 250C51.5 359.629 140.371 448.5 250 448.5Z" fill="white"/>
</mask>
<g mask="url(#mask14_201_745)">
<path d="M44.1 214.1C75.5 220.6 108.8 227.3 140.3 217.6C147.5 215.4 154.5 212.3 160.9 208.3C167.5 204.2 173.6 199.3 179.8 194.6C192.2 185.3 205.6 177.5 220.1 171.9C223.7 170.5 227.3 169.3 231 168.2C232.8 167.7 234.6 167.2 236.3 166.7C238.2 166.2 240.3 165.5 242.3 165.8C243.9 166.1 244.9 167.4 245.9 168.6C247 170 248.1 171.4 249.3 172.8C251.5 175.5 253.8 178.1 256.2 180.6C265.6 190.7 276.2 199.8 287.6 207.7C311.1 223.9 338.2 234.8 366.5 238.9C396.9 243.4 428.5 240.3 457.4 229.9C461 228.6 464.5 227.2 468 225.7C470.1 224.8 466.5 221.4 464.5 222.2C436.1 234.3 404.7 239.1 374 236.1C345.5 233.3 317.9 223.5 293.9 208C282.3 200.5 271.5 191.7 261.8 181.7C257 176.8 252.9 171.4 248.4 166.3C246.2 163.8 243.4 161.9 239.9 161.8C236.3 161.7 232.5 163.1 229.1 164.2C214.8 168.5 201 174.8 188.4 182.8C175.4 191 164.2 202.1 150.3 208.9C120.9 223.3 86.8 219 55.8 212.8C51.8 212 47.7 211.2 43.7 210.3C40.5 209.7 41.9 213.6 44.1 214.1Z" fill="white"/>
</g>
<mask id="mask15_201_745" style="mask-type:luminance" maskUnits="userSpaceOnUse" x="51" y="51" width="398" height="398">
<path d="M250 448.5C359.629 448.5 448.5 359.629 448.5 250C448.5 140.371 359.629 51.5 250 51.5C140.371 51.5 51.5 140.371 51.5 250C51.5 359.629 140.371 448.5 250 448.5Z" fill="white"/>
</mask>
<g mask="url(#mask15_201_745)">
<path d="M47.5 228.7C75.3 238.5 105.9 239.4 134.4 232.3C148.6 228.8 162.3 223.2 174.9 215.8C187.7 208.3 198.9 198.3 211.4 190.3C217.6 186.3 224.3 182.8 231.5 181C233.7 180.4 235.9 180 238 180.9C239.9 181.7 241.5 183.1 243 184.5C245.6 186.9 248.1 189.5 250.4 192.1C260 202.7 268.3 214.7 279.4 223.9C291.6 234 306.5 238.3 321.8 241.3C339.1 244.7 356.5 247.2 374 248.8C403.3 251.4 436.2 253.6 462.9 238.8C466 237.1 468.9 235.1 471.7 233C472.5 232.4 472.1 231.9 471.3 231.7C470.2 231.5 468.8 232.3 468 232.9C444.1 251.2 410.6 249 382.3 246.7C364.9 245.3 347.6 243 330.4 239.8C314.9 236.9 299.2 233.5 286.4 223.8C275.3 215.4 267 203.9 257.9 193.5C255.6 190.8 253.2 188.2 250.7 185.7C248.2 183.2 245.6 180.2 242.2 178.8C238.9 177.4 235.1 178.1 231.8 179C228.4 179.9 225.1 181.1 221.9 182.5C208.5 188.3 197.2 197.7 185.5 206.2C173.7 214.8 160.9 221.8 147.1 226.6C119.8 236.1 89.6 237.2 61.6 229.7C58.1 228.8 54.6 227.7 51.2 226.5C50 225.9 45.7 228.1 47.5 228.7Z" fill="white"/>
</g>
<mask id="mask16_201_745" style="mask-type:luminance" maskUnits="userSpaceOnUse" x="51" y="51" width="398" height="398">
<path d="M250 448.5C359.629 448.5 448.5 359.629 448.5 250C448.5 140.371 359.629 51.5 250 51.5C140.371 51.5 51.5 140.371 51.5 250C51.5 359.629 140.371 448.5 250 448.5Z" fill="white"/>
</mask>
<g mask="url(#mask16_201_745)">
<path d="M41.6 245.7C71.3 253.3 102.4 252.1 132.2 245.5C147.2 242.2 161.8 237.5 176.1 231.8C190 226.3 204.4 219.9 219.5 219C226.8 218.6 234.1 219.6 240.8 222.8C247.4 225.9 252.9 230.9 258.5 235.5C269.6 244.7 282 252.1 295.4 257.7C324.1 269.6 355.4 272.9 386.2 272.3C401.7 272 417.4 271.1 432.8 268.9C446.8 266.9 460.8 263.7 473.4 257C476.5 255.4 479.5 253.5 482.4 251.5C483.3 250.9 483.6 249.6 482.7 248.9C481.7 248.1 480.2 248.5 479.2 249.1C467.6 257.2 454.1 261.5 440.4 264C425.6 266.7 410.3 267.6 395.3 268.2C364.2 269.4 332.5 267.2 303.1 256.2C289.7 251.1 277 244.3 265.8 235.4C260.2 231 255 226.1 249 222.3C243.1 218.6 236.5 216.2 229.5 215.4C215 213.8 200.6 218.4 187.2 223.4C172.9 228.8 158.9 234.6 144.2 238.6C115 246.6 84.2 249.7 54.2 244.2C50.6 243.5 47 242.7 43.4 241.8C40.8 241.5 38.4 244.9 41.6 245.7Z" fill="white"/>
</g>
<mask id="mask17_201_745" style="mask-type:luminance" maskUnits="userSpaceOnUse" x="51" y="51" width="398" height="398">
<path d="M250 448.5C359.629 448.5 448.5 359.629 448.5 250C448.5 140.371 359.629 51.5 250 51.5C140.371 51.5 51.5 140.371 51.5 250C51.5 359.629 140.371 448.5 250 448.5Z" fill="white"/>
</mask>
<g mask="url(#mask17_201_745)">
<path d="M42.1 260.3C78.4 265.6 115.6 264.6 151.6 257.4C169.7 253.8 187.3 248.4 204.6 241.9C212.9 238.8 221.8 235.5 230.8 235.7C239.3 235.9 246.1 240.5 251.4 246.9C256.4 252.9 260 259.9 264.1 266.5C268.1 273 272.5 279.3 277.2 285.4C286.9 297.9 297.9 309.4 310 319.7C334.8 340.8 364 356.4 395.4 365.2C429.7 374.8 466.3 376.5 501.3 369.7C505.6 368.9 509.9 367.9 514.2 366.8C515.2 366.5 515.1 365.8 514.4 365.2C513.5 364.5 511.9 364.4 510.9 364.7C476 373.5 439 373.6 404 365C372.1 357.1 342.1 342 316.8 321C304.7 311 293.6 299.7 283.8 287.4C278.9 281.2 274.3 274.7 270 268C266 261.7 262.5 255.1 258.1 249C253.7 243.1 248.2 237.9 241.1 235.3C233.3 232.4 225 232.8 217 234.6C208.3 236.6 200.1 240.2 191.8 243.1C183.2 246.1 174.5 248.8 165.7 251.1C130.1 260.3 92.8 263.2 56.2 259.5C51.6 259 47 258.5 42.4 257.8C41.7 257.7 39.9 257.6 39.8 258.6C39.6 259.7 41.5 260.2 42.1 260.3Z" fill="white"/>
</g>
<mask id="mask18_201_745" style="mask-type:luminance" maskUnits="userSpaceOnUse" x="51" y="51" width="398" height="398">
<path d="M250 448.5C359.629 448.5 448.5 359.629 448.5 250C448.5 140.371 359.629 51.5 250 51.5C140.371 51.5 51.5 140.371 51.5 250C51.5 359.629 140.371 448.5 250 448.5Z" fill="white"/>
</mask>
<g mask="url(#mask18_201_745)">
<path d="M36.9999 266C41.9999 270.4 48.4999 272.1 54.9999 272.7C62.7999 273.4 70.6999 273.2 78.4999 273C94.9999 272.7 111.5 272 128 271.2C158 269.6 188.9 266.1 215.8 251.8C219.1 250 222.7 247.7 226.6 247.9C229.3 248.1 231.8 249.2 234 250.8C238.9 254.3 242.1 259.9 244.8 265.2C247.8 271 250.5 276.9 253.9 282.5C257.4 288.4 261.3 294 265.5 299.3C282.6 321 305 338.3 329.5 350.8C357.4 365 387.9 373.3 418.7 377.9C422.6 378.5 426.4 379 430.3 379.5C431.4 379.6 432.7 379.4 433.7 378.9C434 378.8 435.4 378 434.4 377.8C403.3 373.9 372.4 366.8 343.7 353.8C317.9 342.1 294.1 325.6 275.5 304.2C266.5 293.9 258.8 282.5 252.9 270.2C248.4 260.9 242.8 247.5 231 246.1C223.8 245.3 217.4 248.8 211.2 252C204.5 255.5 197.4 258.3 190.1 260.6C175.6 265.1 160.4 267.1 145.3 268.4C129.3 269.7 113.3 270.2 97.2999 270.8C88.7 271.1 79.9999 271.3 71.3999 271.3C64.2999 271.3 56.8999 271.4 50.0999 269.2C46.8999 268.2 43.9999 266.6 41.4999 264.4C40.6999 263.8 36.4999 265.6 36.9999 266Z" fill="white"/>
</g>
<mask id="mask19_201_745" style="mask-type:luminance" maskUnits="userSpaceOnUse" x="51" y="51" width="398" height="398">
<path d="M250 448.5C359.629 448.5 448.5 359.629 448.5 250C448.5 140.371 359.629 51.5 250 51.5C140.371 51.5 51.5 140.371 51.5 250C51.5 359.629 140.371 448.5 250 448.5Z" fill="white"/>
</mask>
<g mask="url(#mask19_201_745)">
<path d="M40.4 284.2C70.1 292 100.7 284 130.3 280.2C137.7 279.2 145.2 278.6 152.7 278.3C160.1 278 167.5 277.9 174.9 277.5C182.3 277.1 189.7 276.3 196.9 274.6C200.5 273.8 204.1 272.7 207.6 271.4C210.9 270.2 214.2 268.7 217.6 267.7C220.6 266.8 223.8 266.2 226.9 266.8C229.8 267.4 232.5 269 234.5 271.2C238.3 275.4 240.1 281.1 241.7 286.4C245.7 298.8 251.6 310.3 260.1 320.3C264.4 325.3 269.1 329.8 274.3 333.8C279.9 338.2 285.6 342.4 289.8 348.3C293.8 353.9 296.7 360.3 299.3 366.6C301.9 372.8 304 379.2 305.7 385.7C312.3 411.5 311.9 439.6 301.4 464.3C300.1 467.3 298.7 470.2 297.2 473.1C296.8 473.9 298.9 473.5 299.1 473.5C299.9 473.3 301.4 473 301.9 472.1C314.7 448.3 317.4 420.2 312.6 393.9C310.2 380.7 305.9 367.7 299.8 355.7C296.6 349.3 292.6 343.5 287.2 338.7C282 334.1 276.3 330.3 271.3 325.6C261.7 316.4 254.1 305.1 249.2 292.8C245.3 283 243.6 268.2 231.6 265C224.6 263.2 217 266.1 210.5 268.6C203.8 271.2 197.2 273.2 190.1 274.2C175.4 276.3 160.4 275.6 145.6 276.7C115.5 279 85.4 288.6 55.1 284.3C51.5 283.8 47.9 283.1 44.4 282.1C43.4 281.8 42 282.4 41.1 282.8C40.5 283.2 39.3 283.9 40.4 284.2Z" fill="white"/>
</g>
<mask id="mask20_201_745" style="mask-type:luminance" maskUnits="userSpaceOnUse" x="51" y="51" width="398" height="398">
<path d="M250 448.5C359.629 448.5 448.5 359.629 448.5 250C448.5 140.371 359.629 51.5 250 51.5C140.371 51.5 51.5 140.371 51.5 250C51.5 359.629 140.371 448.5 250 448.5Z" fill="white"/>
</mask>
<g mask="url(#mask20_201_745)">
<path d="M138.1 468.9C147.6 455.6 157.2 442.2 166.1 428.5C174.9 414.9 183.2 400.9 190.2 386.3C197.3 371.4 203.2 355.9 208.5 340.3C213.7 324.6 218.4 308.7 222.9 292.8C223.7 290 224.5 286.2 221.5 284.3C218.8 282.6 214.6 283 211.7 284C208.5 285.1 205.8 287.4 203.3 289.6C200.5 292.1 197.9 294.9 195.5 297.8C190.7 303.6 186.2 309.7 181.6 315.7C177.1 321.5 172.6 327.3 168 333C158.7 344.3 148.8 355.1 137.5 364.5C126.1 374 113.5 381.6 99.7 386.9C85.7 392.3 70.8 395.4 55.9 397.2C40.9 399 25.8 399.6 10.7 399.8C7 400 3.3 400 -0.5 400.1C-0.9 400.1 -3 400.1 -3 400.7C-3 401.3 -0.8 401.3 -0.5 401.3C14.6 401.1 29.8 400.9 44.9 399.7C59.8 398.5 74.8 396.4 89.3 392.4C103.4 388.5 117 382.7 129.3 374.6C141.3 366.7 151.9 356.9 161.6 346.3C171.4 335.6 180.3 324.1 189.1 312.6C193.6 306.7 198 300.6 203 295C205.5 292.2 208.3 289.6 211.3 287.3C212.6 286.3 213.9 285.5 215.4 284.9C215.5 284.9 216.8 284.5 216.8 284.5C216.8 284.8 216 284.2 216.3 284.5C216.5 284.7 216.9 284.8 217.2 285C220 287.3 218.2 291.8 217.4 294.6C216.3 298.5 215.1 302.4 214 306.3C211.7 314.1 209.4 321.9 206.9 329.7C202 345.2 196.6 360.6 190.1 375.6C183.6 390.5 175.9 404.9 167.3 418.7C158.8 432.4 149.6 445.7 140.2 458.9C137.9 462.1 135.6 465.4 133.3 468.6C132.9 469.2 134.8 469.3 135 469.4C135.6 469.4 137.6 469.5 138.1 468.9Z" fill="white"/>
</g>
<mask id="mask21_201_745" style="mask-type:luminance" maskUnits="userSpaceOnUse" x="51" y="51" width="398" height="398">
<path d="M250 448.5C359.629 448.5 448.5 359.629 448.5 250C448.5 140.371 359.629 51.5 250 51.5C140.371 51.5 51.5 140.371 51.5 250C51.5 359.629 140.371 448.5 250 448.5Z" fill="white"/>
</mask>
<g mask="url(#mask21_201_745)">
<path d="M458.6 268.4C448.8 274.8 437.1 277.4 425.6 278.4C412.5 279.6 399.3 279 386.2 279.3C373.4 279.6 360.5 280.2 347.7 279.4C335.6 278.7 323.6 276.6 312.1 272.7C299.8 268.5 288.3 262.3 277.9 254.5C277.5 254.2 276.4 254.7 276.1 254.8C275.4 255.2 274.7 255.7 274.2 256.3C269.8 261.7 274.7 268.7 277.8 273.4C281.5 279.1 285.5 284.5 289.9 289.7C298.7 300 308.7 309.2 319.5 317.3C330.5 325.5 342.3 332.6 354.6 338.5C368.6 345.3 383.1 350.7 398 355.2C412.9 359.7 428 363.1 443.2 366C445.1 366.4 447 366.7 448.9 367.1C450.2 367.3 453.9 364.3 452 364C422 358.6 392.2 351 364.4 338.4C339.7 327.2 316.7 311.9 298.3 291.9C293.3 286.5 288.7 280.7 284.5 274.7C282.4 271.7 280.3 268.6 278.6 265.3C277.2 262.5 275.7 258.5 277.9 255.8C276.6 256.4 275.4 257 274.1 257.7C283.5 264.8 294 270.5 305 274.7C316.5 279 328.6 281.5 340.9 282.5C354 283.5 367.1 283.1 380.1 282.7C393.5 282.3 407 282.9 420.4 281.9C434.1 280.9 447.9 277.9 459.6 270.3C460.1 270 461.7 268.9 461.2 268.1C460.8 267.2 459 268.1 458.6 268.4Z" fill="white"/>
</g>
<mask id="mask22_201_745" style="mask-type:luminance" maskUnits="userSpaceOnUse" x="51" y="51" width="398" height="398">
<path d="M250 448.5C359.629 448.5 448.5 359.629 448.5 250C448.5 140.371 359.629 51.5 250 51.5C140.371 51.5 51.5 140.371 51.5 250C51.5 359.629 140.371 448.5 250 448.5Z" fill="white"/>
</mask>
<g mask="url(#mask22_201_745)">
<path d="M454.1 281.6C443.9 285.4 433.1 287.1 422.3 288.1C411 289.1 399.7 289.5 388.4 289.8C376.9 290.1 365.3 290.2 353.7 290.1C348 290 342.2 290 336.5 289.7C331.6 289.5 326.9 288.6 322.4 286.8C312.4 282.7 303.5 276.1 293 273.1C292.7 273 289.5 272.2 289.8 273.3C290.6 275.8 292.4 278 293.9 280.2C295.4 282.4 297 284.5 298.5 286.7C301.6 290.9 304.9 295 308.5 298.8C312 302.5 315.9 306 320.2 308.8C325 312 330.2 314.3 335.4 316.5C346.8 321.2 358.4 325.8 369.8 330.5C381.1 335.1 392.3 340 403.9 343.6C417 347.7 430.7 349.5 444.4 348.5C445.3 348.4 445.4 348 444.6 347.5C443.7 346.9 442.2 346.6 441.2 346.7C429.9 347.5 418.5 346.4 407.6 343.1C396.5 339.8 385.9 335.1 375.2 330.8C364.2 326.3 353.1 321.8 342.1 317.4C337 315.3 331.9 313.3 327.2 310.5C322.8 307.9 318.8 304.7 315.1 301.2C311.1 297.2 307.5 292.8 304.1 288.3C302.4 286.1 300.8 283.8 299.2 281.5C297.5 279.1 295.5 276.7 294.6 273.9C293.5 274 292.5 274 291.4 274.1C300.8 276.8 308.9 282.7 317.8 286.6C322.6 288.7 327.7 290.3 332.9 291C338.7 291.7 344.6 291.7 350.4 291.8C374 292.3 397.7 292 421.2 290.3C433.7 289.4 446.2 287.8 458 283.4C459 283 457.8 282.5 457.3 282.3C456.7 281.8 455.1 281.3 454.1 281.6Z" fill="white"/>
</g>
<mask id="mask23_201_745" style="mask-type:luminance" maskUnits="userSpaceOnUse" x="51" y="51" width="398" height="398">
<path d="M250 448.5C359.629 448.5 448.5 359.629 448.5 250C448.5 140.371 359.629 51.5 250 51.5C140.371 51.5 51.5 140.371 51.5 250C51.5 359.629 140.371 448.5 250 448.5Z" fill="white"/>
</mask>
<g mask="url(#mask23_201_745)">
<path d="M455.6 291.3C447 295.1 436.9 294.6 427.7 294.9C417.6 295.2 407.5 295.4 397.4 295.6C387.4 295.8 377.3 295.8 367.3 295.9C362.2 295.9 357.2 296 352.1 296C347.1 296 342.2 296.1 337.2 295.4C327.2 294 318.3 289.1 309.8 283.9C309.7 283.8 306.8 282.4 306.6 283.2C306.2 285.5 308.4 287.6 309.7 289.2C311.2 291.1 312.7 292.9 314.4 294.6C317.6 298 321.1 301.2 324.8 304.1C332.6 310.2 341.3 315.1 350.5 318.7C360.9 322.7 371.7 325.7 382.4 328.5C393.2 331.4 404.1 333.9 415 336.1C427.3 338.6 439.7 340.6 452.1 342.1C453 342.2 453.2 341.8 452.5 341.2C451.7 340.5 450.4 339.8 449.3 339.7C428.3 337.1 407.4 333.2 386.9 327.9C376.7 325.3 366.5 322.4 356.4 319.1C347.6 316.2 339.3 312.4 331.7 307.1C327.7 304.3 323.9 301.1 320.4 297.6C318.6 295.8 316.9 294 315.3 292C314.5 291.1 313.7 290.1 313 289.1C312.1 288 310.8 286.7 311.1 285.1C310 284.9 309 284.6 307.9 284.4C316 289.3 324.5 294 333.8 296.4C343.7 299 354.1 298.3 364.2 298.2C385.2 298.1 406.1 297.9 427.1 297.3C432.7 297.1 438.4 297 444 296.7C449.3 296.4 454.7 295.7 459.6 293.5C460.4 293.2 458.6 292.1 458.4 292C457.9 291.7 456.4 290.9 455.6 291.3Z" fill="white"/>
</g>
<mask id="mask24_201_745" style="mask-type:luminance" maskUnits="userSpaceOnUse" x="51" y="51" width="398" height="398">
<path d="M250 448.5C359.629 448.5 448.5 359.629 448.5 250C448.5 140.371 359.629 51.5 250 51.5C140.371 51.5 51.5 140.371 51.5 250C51.5 359.629 140.371 448.5 250 448.5Z" fill="white"/>
</mask>
<g mask="url(#mask24_201_745)">
<path d="M457 301C449 303.4 440.5 303.4 432.2 303.5C423.4 303.6 414.5 303.6 405.7 303.5C388.1 303.3 370.5 302.8 353 301.3C348.3 300.9 343.5 300.6 338.9 299.8C334.2 299.1 329.8 297.2 325.2 296.1C325.1 296.1 325 296.1 325.1 296.2C326.4 299.6 329.2 302.1 332 304.3C335 306.6 338.3 308.4 341.8 310C349.5 313.5 357.6 316.7 365.8 319.1C374.3 321.5 383.2 323.1 391.8 324.9C400.5 326.7 409.3 328.4 418.1 329.8C428 331.4 438 332.7 448 333.4C448.4 333.4 446.9 332.1 446.9 332C446.3 331.5 445.2 330.3 444.3 330.3C427.3 329.1 410.6 326.3 393.9 323C385.5 321.3 377.1 319.7 368.8 317.8C360.6 315.9 352.8 313 345 309.9C341.4 308.5 337.8 307 334.4 305.1C333.3 304.5 332.3 303.9 331.5 303C331 302.4 330.5 301.8 330.1 301.2C329.9 300.8 329.7 300.5 329.5 300.1C329.3 299.6 329 299.4 329.6 299.4C330.4 299.3 331.7 300 332.5 300.2C333.5 300.5 334.4 300.8 335.4 301.1C337.3 301.7 339.3 302.2 341.2 302.6C345.2 303.4 349.4 303.7 353.5 304C370.7 305.5 387.9 306.2 405.2 306.4C413.8 306.5 422.4 306.5 431 306.5C439 306.4 447.2 306.7 455.2 305.4C457.2 305.1 459.1 304.6 461 304C461.1 304 459.4 302.3 459.2 302.2C458.7 302 457.5 300.8 457 301Z" fill="white"/>
</g>
<mask id="mask25_201_745" style="mask-type:luminance" maskUnits="userSpaceOnUse" x="51" y="51" width="398" height="398">
<path d="M250 448.5C359.629 448.5 448.5 359.629 448.5 250C448.5 140.371 359.629 51.5 250 51.5C140.371 51.5 51.5 140.371 51.5 250C51.5 359.629 140.371 448.5 250 448.5Z" fill="white"/>
</mask>
<g mask="url(#mask25_201_745)">
<path d="M441.6 310.4C439.2 311.4 436.5 311.6 434 311.7C431 311.8 428 311.9 425 311.9C419 312 412.9 311.9 406.9 311.8C400.7 311.7 394.4 311.5 388.3 310.8C382.2 310.1 376.3 309 370.2 308.1C363.5 307.1 356.7 306.4 350 305.9C349.1 305.8 347.9 306.3 347.1 306.7C346.9 306.8 345.7 307.6 346.3 307.9C352.1 311.1 358.4 313 364.7 314.5C371.5 316.1 378.3 317.5 385.1 318.8C399.1 321.4 413.2 323.3 427.4 324.1C435.4 324.5 443.3 324.5 451.3 324.1C452.4 324 453.7 323.7 454.7 323C455.4 322.5 455.4 321.9 454.4 321.9C426.5 323.4 398.6 319.2 371.5 313C364.4 311.4 357.3 309.5 350.8 305.9C349.6 306.6 348.3 307.2 347.1 307.9C353.4 308.4 359.7 309 366 309.9C372.3 310.8 378.7 312 385 312.7C391.3 313.4 397.7 313.6 404 313.7C410.3 313.8 416.6 313.9 422.9 313.8C429.8 313.7 437.1 314 443.5 311.2C443.9 311 445.4 310.4 444.9 309.7C444.2 309.4 442.1 310.2 441.6 310.4Z" fill="white"/>
</g>
<mask id="mask26_201_745" style="mask-type:luminance" maskUnits="userSpaceOnUse" x="51" y="51" width="398" height="398">
<path d="M250 448.5C359.629 448.5 448.5 359.629 448.5 250C448.5 140.371 359.629 51.5 250 51.5C140.371 51.5 51.5 140.371 51.5 250C51.5 359.629 140.371 448.5 250 448.5Z" fill="white"/>
</mask>
<g mask="url(#mask26_201_745)">
<path d="M232.4 191.8C230.4 188.7 225.3 191.4 223.6 193.3C220.7 196.4 223.4 200.4 226.2 202.4C229.4 204.6 232.9 206.6 236.2 208.7C239.5 210.9 242.8 213.1 246.1 215.3C259.3 224.4 272.3 234 286.3 241.9C293.2 245.8 300.4 249.4 307.9 252.2C316.1 255.3 324.6 257.3 333.2 258.6C342.4 260 351.7 260.6 361 261.1C370.4 261.6 379.8 261.8 389.2 261.8C408.1 261.7 427 260.4 445.8 258C448.2 257.7 450.5 257.4 452.9 257C454 256.8 455.1 256.3 456 255.6C456.3 255.4 457.4 254.2 456.3 254.4C438.4 256.9 420.3 258.5 402.2 258.9C384.2 259.4 366.1 258.9 348.1 257.2C339.3 256.4 330.6 255.1 322 252.8C314.6 250.8 307.4 248 300.4 244.6C286.6 237.9 273.9 229.2 261.3 220.5C255.1 216.1 248.8 211.8 242.5 207.6C239.3 205.5 236.1 203.4 232.8 201.4C230 199.7 225.5 197 226.7 193C226.9 192.2 227.6 191.8 226.3 192.6C225 193.3 225.6 192.9 226.2 193C226.9 193.1 227.4 193.5 227.8 194.1C228.6 195 232.9 192.5 232.4 191.8Z" fill="white"/>
</g>
<mask id="mask27_201_745" style="mask-type:luminance" maskUnits="userSpaceOnUse" x="51" y="51" width="398" height="398">
<path d="M250 448.5C359.629 448.5 448.5 359.629 448.5 250C448.5 140.371 359.629 51.5 250 51.5C140.371 51.5 51.5 140.371 51.5 250C51.5 359.629 140.371 448.5 250 448.5Z" fill="white"/>
</mask>
<g mask="url(#mask27_201_745)">
<path d="M228.1 192.5C241.4 201.7 254.2 211.5 266.9 221.4C272.9 226.1 279 230.6 285.5 234.6C292.2 238.7 299.3 242.1 306.8 244.6C314.5 247.2 322.4 249.1 330.3 250.8C338.4 252.5 346.7 253.9 354.9 254.9C371.6 256.9 388.4 257.5 405.2 257C422.1 256.5 438.9 255.1 455.7 253.3C457.8 253.1 460 252.8 462.1 252.6C463 252.5 463.9 251.8 463.2 250.9C462.5 250 460.9 249.9 459.9 250C443.5 251.8 427.1 253.4 410.7 254.1C394.3 254.8 377.9 254.7 361.6 253C345.6 251.4 329.6 248.6 314.1 244.1C306.8 241.9 299.6 239.2 293 235.4C286.5 231.7 280.4 227.4 274.5 222.9C268.4 218.3 262.5 213.5 256.4 208.8C250 203.9 243.5 199.2 236.9 194.6C235.3 193.4 233.6 192.3 232 191.1C231.1 190.5 229.6 190.2 228.5 190.7C227.4 191 227.2 191.9 228.1 192.5Z" fill="white"/>
</g>
<mask id="mask28_201_745" style="mask-type:luminance" maskUnits="userSpaceOnUse" x="51" y="51" width="398" height="398">
<path d="M250 448.5C359.629 448.5 448.5 359.629 448.5 250C448.5 140.371 359.629 51.5 250 51.5C140.371 51.5 51.5 140.371 51.5 250C51.5 359.629 140.371 448.5 250 448.5Z" fill="white"/>
</mask>
<g mask="url(#mask28_201_745)">
<path d="M329.8 448.5C334.1 422 330 394.4 318.7 370.1C315.4 363.1 311.6 356.3 307.2 350C307.6 351.2 307.9 352.4 308.3 353.6C321.9 360.4 334.3 369.3 347.7 376.6C354.2 380.2 361 383.3 368.1 385.6C375.9 388.1 384 389.2 392.2 389C402.3 388.8 412.4 387.1 422.3 385.3C422.8 385.2 421.3 380.7 420 380.9C411.1 382.5 402.3 384 393.3 384.4C384.9 384.8 376.6 384.1 368.5 381.8C354 377.7 341.2 369.7 328.5 361.9C321.3 357.4 314 353 306.4 349.2C305.9 348.9 306.2 350.2 306.2 350.3C306.5 351.2 306.9 352 307.5 352.8C321.6 373.3 328.9 398.3 329.1 423.2C329.1 430.3 328.6 437.5 327.4 444.5C327.2 445.5 327.9 446.6 328.4 447.4C328.4 447.5 329.7 449.3 329.8 448.5Z" fill="white"/>
</g>
<mask id="mask29_201_745" style="mask-type:luminance" maskUnits="userSpaceOnUse" x="51" y="51" width="398" height="398">
<path d="M250 448.5C359.629 448.5 448.5 359.629 448.5 250C448.5 140.371 359.629 51.5 250 51.5C140.371 51.5 51.5 140.371 51.5 250C51.5 359.629 140.371 448.5 250 448.5Z" fill="white"/>
</mask>
<g mask="url(#mask29_201_745)">
<path d="M348 433.2C348 424.9 346.4 416.7 344.5 408.7C342.4 400.3 340.2 392 338 383.7C337 379.8 336.2 375.5 333.5 372.4C332 372.9 330.5 373.3 329.1 373.8C337.3 380.7 345.5 387.9 354.2 394.1C362.7 400.2 372 404.7 382.4 406.6C388.4 407.7 394.5 408 400.5 408C401.3 408 403.1 407.8 403.5 406.8C403.8 405.8 402.2 405.6 401.6 405.6C391.4 405.6 381.1 404.5 371.7 400.3C362.7 396.3 354.9 390.1 347.3 383.9C342.6 380 337.9 376.1 333.2 372.1C332.3 371.3 327.7 372.2 328.8 373.5C331.2 376.2 331.9 379.8 332.8 383.2C333.9 387.4 335 391.5 336.1 395.7C338.2 403.6 340.5 411.6 341.9 419.7C342.7 424.3 343.2 429 343.2 433.7C343.1 435.2 348 434.9 348 433.2Z" fill="white"/>
</g>
<mask id="mask30_201_745" style="mask-type:luminance" maskUnits="userSpaceOnUse" x="51" y="51" width="398" height="398">
<path d="M250 448.5C359.629 448.5 448.5 359.629 448.5 250C448.5 140.371 359.629 51.5 250 51.5C140.371 51.5 51.5 140.371 51.5 250C51.5 359.629 140.371 448.5 250 448.5Z" fill="white"/>
</mask>
<g mask="url(#mask30_201_745)">
<path d="M363.2 424.9C362.1 415 353.7 408.3 351 399C349.9 399.3 348.8 399.7 347.7 400C359.4 410.6 373.2 418.7 388.1 423.9C389.1 424.2 390.3 423.9 390.4 422.7C390.5 421.5 389.3 420.3 388.3 419.9C374 415 361 407.4 350 397.4C349.4 396.8 348.4 396.4 347.6 396.7C346.9 396.9 346.5 397.7 346.7 398.5C348.1 403.4 350.9 407.6 353.6 411.8C356.1 415.7 358.5 419.8 359 424.4C359.2 426.6 363.5 427.9 363.2 424.9Z" fill="white"/>
</g>
<mask id="mask31_201_745" style="mask-type:luminance" maskUnits="userSpaceOnUse" x="51" y="51" width="398" height="398">
<path d="M250 448.5C359.629 448.5 448.5 359.629 448.5 250C448.5 140.371 359.629 51.5 250 51.5C140.371 51.5 51.5 140.371 51.5 250C51.5 359.629 140.371 448.5 250 448.5Z" fill="white"/>
</mask>
<g mask="url(#mask31_201_745)">
<path d="M40.6 295.8C62 296.2 83.4 294.3 104.7 292.3C126 290.3 147.3 288.3 168.6 286.3C180.4 285.1 192.2 283.7 203.7 280.7C202.8 280.6 201.9 280.5 201 280.4C201.2 282.7 199.1 284 197.4 285C195.1 286.3 192.8 287.5 190.6 289C186.1 292 181.9 295.6 178 299.4C170.3 307.1 163.9 315.9 157.6 324.7C151.3 333.6 145.1 342.6 137.7 350.6C134 354.6 130 358.3 125.7 361.5C120.8 365 115.5 367.7 110.1 370.3C97.3 376.5 85 383.7 72.9 391C72.3 391.4 71.5 392.2 72.5 392.7C73.5 393.1 75.1 392.5 75.9 392C86.9 385.3 97.9 378.7 109.5 373.1C115.2 370.3 121.1 367.7 126.4 364.1C131 361.1 135.2 357.5 139.1 353.6C154.9 337.8 165 317.3 180.5 301.1C184.7 296.7 189.3 292.7 194.3 289.4C196.8 287.8 199.5 286.6 201.9 284.9C204 283.4 206 281.5 205.8 278.6C205.7 277.7 203.4 278.2 203.1 278.3C193.2 280.9 183.1 282.2 172.9 283.2C162.5 284.3 152 285.2 141.6 286.2C120.5 288.2 99.4 290.4 78.3 291.9C66.4 292.7 54.4 293.2 42.5 293C41.5 293 39.9 293.5 39.4 294.4C38.7 295.6 39.9 295.8 40.6 295.8Z" fill="white"/>
</g>
<mask id="mask32_201_745" style="mask-type:luminance" maskUnits="userSpaceOnUse" x="51" y="51" width="398" height="398">
<path d="M250 448.5C359.629 448.5 448.5 359.629 448.5 250C448.5 140.371 359.629 51.5 250 51.5C140.371 51.5 51.5 140.371 51.5 250C51.5 359.629 140.371 448.5 250 448.5Z" fill="white"/>
</mask>
<g mask="url(#mask32_201_745)">
<path d="M47.2 302.4C56.1 303.7 65 301.4 73.8 300.1C82.6 298.8 91.5 297.9 100.5 297.4C109.5 296.8 118.5 296.7 127.5 296.8C136.6 296.8 145.6 296.9 154.7 295.9C164.5 294.8 174.2 292.6 183.5 289.3C182.8 288.6 182.1 288 181.4 287.3C168 299 156.6 312.7 145.5 326.6C140 333.5 134.8 340.7 128.8 347.3C122.7 354 115 358.5 107.3 363.2C97.9 368.8 88.6 374.5 79.2 380.1C78.5 380.5 77.4 381.4 78.1 382.3C78.8 383.1 80.6 382.6 81.3 382.2C89.7 377.2 98 372.1 106.4 367.1C114.2 362.4 122.4 357.9 129.1 351.6C135.6 345.5 140.9 338.1 146.5 331.1C152.1 324 157.7 317 163.6 310.2C170.1 302.7 177 295.4 184.6 288.8C185.1 288.3 185.7 287.6 185.1 286.9C184.5 286.3 183.2 286.5 182.5 286.8C174.6 289.7 166.3 291.6 157.9 292.7C149.2 293.8 140.4 293.8 131.7 293.8C122.8 293.8 114 293.8 105.1 294.2C96.3 294.7 87.6 295.5 78.9 296.6C74 297.2 69.1 298 64.2 298.8C59.4 299.6 54.6 300.1 49.8 299.4C48.7 299.2 47.2 299.7 46.5 300.6C45.9 301.3 46.1 302.2 47.2 302.4Z" fill="white"/>
</g>
<mask id="mask33_201_745" style="mask-type:luminance" maskUnits="userSpaceOnUse" x="51" y="51" width="398" height="398">
<path d="M250 448.5C359.629 448.5 448.5 359.629 448.5 250C448.5 140.371 359.629 51.5 250 51.5C140.371 51.5 51.5 140.371 51.5 250C51.5 359.629 140.371 448.5 250 448.5Z" fill="white"/>
</mask>
<g mask="url(#mask33_201_745)">
<path d="M55.6 312.5C69.8 309.4 84.2 307.7 98.6 306.6C112.8 305.5 127 305.2 141.3 304.3C148.9 303.8 156.6 302.9 163.6 299.7C162.1 299.2 160.7 298.6 159.2 298.1C153.8 303.5 148.5 309.1 143.4 314.8C138.2 320.6 133.3 326.5 128.2 332.3C123.3 338 118.2 343.5 113 348.9C110.6 351.5 108.1 354 105.3 356.2C102.5 358.5 99.2 360.1 95.9 361.6C88.1 365 80.1 367.8 72.1 370.9C71 371.3 72.2 372.2 72.7 372.4C73.7 372.9 75.1 373 76.1 372.6C83.3 369.8 90.6 367.1 97.8 364.2C101.1 362.9 104.4 361.3 107.3 359.4C110.2 357.5 112.7 355.1 115.2 352.6C125.9 341.7 135.6 329.9 145.7 318.5C151.5 312 157.4 305.6 163.6 299.4C164.2 298.8 162.8 298.1 162.4 297.9C161.5 297.6 160.2 297.3 159.3 297.8C153.1 300.6 146.4 301.5 139.8 301.9C132.9 302.4 125.9 302.5 119 302.9C104.6 303.6 90.3 304.5 76 306.3C68 307.3 60 308.6 52.1 310.3C51.1 310.5 51.1 311.2 51.8 311.7C53.1 312.5 54.5 312.7 55.6 312.5Z" fill="white"/>
</g>
<mask id="mask34_201_745" style="mask-type:luminance" maskUnits="userSpaceOnUse" x="51" y="51" width="398" height="398">
<path d="M250 448.5C359.629 448.5 448.5 359.629 448.5 250C448.5 140.371 359.629 51.5 250 51.5C140.371 51.5 51.5 140.371 51.5 250C51.5 359.629 140.371 448.5 250 448.5Z" fill="white"/>
</mask>
<g mask="url(#mask34_201_745)">
<path d="M59.8 321C81.7 319.7 102.9 313.7 124.6 310.7C130.7 309.8 136.9 309.2 143.1 309C141.8 308.4 140.5 307.8 139.3 307.2C129.4 315.5 119.7 323.9 111.3 333.8C107.2 338.6 103.1 343.5 98.5 347.9C94.3 352 89.7 355.7 84.9 359C79.5 362.7 73.7 365.9 67.7 368.5C67 368.8 69 369.7 69.2 369.8C70.1 370.1 71.4 370.6 72.3 370.2C83 365.6 92.9 359 101.5 351C106 346.9 110 342.3 113.9 337.7C118.2 332.6 122.6 327.8 127.5 323.2C132.8 318.2 138.3 313.5 143.9 308.9C144.8 308.2 140.5 307.1 140.1 307.1C118.1 307.8 96.9 313.6 75.3 317C69.2 318 63 318.7 56.8 319.1C55.9 319.2 55.8 319.5 56.5 320C57.3 320.6 58.7 321.1 59.8 321Z" fill="white"/>
</g>
<mask id="mask35_201_745" style="mask-type:luminance" maskUnits="userSpaceOnUse" x="51" y="51" width="398" height="398">
<path d="M250 448.5C359.629 448.5 448.5 359.629 448.5 250C448.5 140.371 359.629 51.5 250 51.5C140.371 51.5 51.5 140.371 51.5 250C51.5 359.629 140.371 448.5 250 448.5Z" fill="white"/>
</mask>
<g mask="url(#mask35_201_745)">
<path d="M62.4001 331.8C70.8001 331.1 78.9 328.9 87 326.7C91 325.6 95 324.5 99.1 323.7C102.9 322.9 106.8 322.5 110.6 321.8C114.9 321.1 119.1 320 122.7 317.5C123.5 317 123.6 316 122.8 315.4C122 314.8 120.5 314.6 119.6 315.1C102.2 324 94.3 343.3 79.1 354.9C74.1 358.8 68.5 362 63.1 365.2C62.1 365.8 62.3001 366.9 63.2001 367.4C64.3001 368.1 65.7 367.9 66.7 367.3C76 361.9 85.0001 356.2 92.3001 348.2C98.6001 341.3 103.8 333.6 110.3 326.9C113.8 323.3 117.7 320 122.2 317.7C121.2 316.9 120.1 316.1 119.1 315.3C116.2 317.2 113 318.1 109.6 318.6C105.9 319.2 102.2 319.6 98.6 320.3C90.8 321.9 83.2001 324.3 75.5 326.2C71.2 327.3 66.8 328.1 62.3 328.5C61.4 328.6 59.8 328.9 59.8 330.2C59.9 331.4 61.6001 331.9 62.4001 331.8Z" fill="white"/>
</g>
<mask id="mask36_201_745" style="mask-type:luminance" maskUnits="userSpaceOnUse" x="51" y="51" width="398" height="398">
<path d="M250 448.5C359.629 448.5 448.5 359.629 448.5 250C448.5 140.371 359.629 51.5 250 51.5C140.371 51.5 51.5 140.371 51.5 250C51.5 359.629 140.371 448.5 250 448.5Z" fill="white"/>
</mask>
<g mask="url(#mask36_201_745)">
<path d="M66.7 341.3C71.3 339.1 75.8 336.9 80.4 334.7C82.5 333.7 84.7 332.8 86.9 332.2C89.2 331.6 91.6 331.1 94 330.7C93.2 330.2 92.4 329.7 91.6 329.3C80.5 338.9 73.5 352.6 61.3 360.9C60.5 361.5 60.6 362.2 61.5 362.5C62.5 362.9 64.1 362.7 65 362.1C77.5 353.6 84.6 339.7 96 329.9C97.4 328.7 94.2 328.4 93.6 328.5C88.3 329.4 83.2 330.5 78.3 332.7C73.4 335 68.6 337.4 63.8 339.7C63.1 340 62.2 340.7 63.1 341.4C64.1 341.9 65.9 341.7 66.7 341.3Z" fill="white"/>
</g>
<mask id="mask37_201_745" style="mask-type:luminance" maskUnits="userSpaceOnUse" x="51" y="51" width="398" height="398">
<path d="M250 448.5C359.629 448.5 448.5 359.629 448.5 250C448.5 140.371 359.629 51.5 250 51.5C140.371 51.5 51.5 140.371 51.5 250C51.5 359.629 140.371 448.5 250 448.5Z" fill="white"/>
</mask>
<g mask="url(#mask37_201_745)">
<path d="M170.4 445.7C182.9 427.4 193 407.6 201.8 387.2C210.7 366.7 218.6 345.8 226 324.7C230.4 312.5 234 299.5 232.5 286.4C231.6 286.5 230.7 286.6 229.8 286.7C234.3 291.8 237.2 298 240.3 304C243.6 310.5 247 317 250.3 323.5C253.5 329.6 257 335.3 262.5 339.6C267.6 343.6 273.3 346.5 278.1 350.9C282.7 355.2 285.9 360.5 287.8 366.4C289.8 372.8 291.1 379.4 292.3 386C294.6 399 295.5 412.3 294.6 425.5C293.6 440.2 290.2 454.8 283.9 468.1C283.4 469.2 283.9 470.4 284.6 471.3C285 471.8 286.5 472.9 287 471.9C298.7 447.2 300.5 419.1 296.6 392.3C295.6 385.5 294.3 378.8 292.6 372.1C290.9 365.1 288.4 358.6 284 352.8C280 347.6 274.7 343.7 269.3 340.1C266.5 338.2 263.7 336.4 261.2 334.1C258.9 331.9 257.1 329.2 255.5 326.5C251.4 319.4 247.9 311.8 244.1 304.5C240.4 297.4 237 290 231.7 283.9C231 283.1 228.8 282.3 229.1 284.2C230.5 295.7 227.6 307.1 224 317.9C220.4 328.5 216.4 338.9 212.4 349.4C204.6 370 196.3 390.4 186.2 409.9C180.6 420.8 174.3 431.5 167.4 441.7C166.2 443.6 169.2 447.5 170.4 445.7Z" fill="white"/>
</g>
<mask id="mask38_201_745" style="mask-type:luminance" maskUnits="userSpaceOnUse" x="51" y="51" width="398" height="398">
<path d="M250 448.5C359.629 448.5 448.5 359.629 448.5 250C448.5 140.371 359.629 51.5 250 51.5C140.371 51.5 51.5 140.371 51.5 250C51.5 359.629 140.371 448.5 250 448.5Z" fill="white"/>
</mask>
<g mask="url(#mask38_201_745)">
<path d="M182.2 448.3C188.8 442.6 193.6 435.3 197.7 427.7C202.2 419.1 205.7 410.1 209.2 401.1C216.4 382.6 223.2 363.9 229.6 345.1C233.2 334.5 236.8 323.8 240.2 313.1C238.6 312.6 237.1 312.2 235.5 311.7C235.8 317.7 237.3 323.6 240 328.9C242.5 333.7 245.9 337.9 249.9 341.6C257.1 348.3 266.1 353.6 271.8 361.8C275.1 366.5 276.6 372 277.5 377.6C278.5 384 279.4 390.5 279.8 396.9C280.6 408.9 279.7 421 277 432.8C274 446 269 458.6 262 470.2C261.4 471.2 262.9 472.4 263.7 472.7C264.8 473.1 266 473.1 266.7 472C279.1 451.4 285.5 427.1 284.9 403C284.7 396.4 283.9 390 283.1 383.5C282.3 377.4 281.5 371 278.8 365.4C274.3 356.1 265.8 350.1 258 343.7C253.6 340 249.3 336.1 246.2 331.2C242.7 325.6 240.7 319.1 240.4 312.5C240.4 311.4 239.3 310.6 238.3 310.3C237.5 310.1 236 310 235.7 311.1C229.7 329.9 223.3 348.7 216.6 367.3C213.3 376.6 209.8 385.8 206.3 395C202.8 404 199.4 413.1 195.2 421.8C190.9 430.6 185.7 439 178.3 445.5C176.3 447.2 180.6 449.8 182.2 448.3Z" fill="white"/>
</g>
<mask id="mask39_201_745" style="mask-type:luminance" maskUnits="userSpaceOnUse" x="51" y="51" width="398" height="398">
<path d="M250 448.5C359.629 448.5 448.5 359.629 448.5 250C448.5 140.371 359.629 51.5 250 51.5C140.371 51.5 51.5 140.371 51.5 250C51.5 359.629 140.371 448.5 250 448.5Z" fill="white"/>
</mask>
<g mask="url(#mask39_201_745)">
<path d="M195.8 454.7C208.1 446 216.5 432.9 222 419.1C228.4 402.8 230.9 385.4 233.8 368.2C234.6 363.4 235.4 358.5 236.5 353.8C237.4 349.8 238.8 345.8 241.8 342.9C240.3 342.4 238.9 342 237.4 341.5C240 349.2 244.7 356.2 251 361.5C254.1 364.1 257.6 365.9 260.8 368.3C262.2 369.3 263.5 370.6 264.4 372.1C265.5 374 265.9 376.3 266.1 378.4C267.1 387.9 266.7 397.6 265.7 407.1C264.7 416.7 262.9 426.2 260.5 435.6C257.8 446.1 254.4 456.4 250.5 466.6C249.7 468.6 254.3 470.5 255.1 468.5C262.1 450.3 267.6 431.4 270.1 411.9C271.3 402.3 271.7 392.6 271.1 382.9C270.8 378.4 270.5 373.7 267.5 370C264.9 366.8 261.4 364.8 258.1 362.7C250.5 357.8 244.8 350.3 242 341.7C241.5 340.3 238.8 339.1 237.6 340.3C232 345.8 231.2 354.6 229.9 362C228.3 370.9 227 379.9 225.3 388.8C222.2 404.6 217.7 420.4 208.9 434.1C204.3 441.1 198.6 447.4 191.7 452.2C190.7 452.9 191.9 454.3 192.6 454.7C193.5 455.2 194.8 455.4 195.8 454.7Z" fill="white"/>
</g>
<mask id="mask40_201_745" style="mask-type:luminance" maskUnits="userSpaceOnUse" x="51" y="51" width="398" height="398">
<path d="M250 448.5C359.629 448.5 448.5 359.629 448.5 250C448.5 140.371 359.629 51.5 250 51.5C140.371 51.5 51.5 140.371 51.5 250C51.5 359.629 140.371 448.5 250 448.5Z" fill="white"/>
</mask>
<g mask="url(#mask40_201_745)">
<path d="M209.4 454.9C232.1 441.9 241.6 415.7 244.6 391C245.6 382.9 246 374.7 246.3 366.6C244.7 366.8 243 366.9 241.4 367.1C244.2 369.9 247 372.6 249.8 375.3C251.2 376.7 252.6 378 253.9 379.4C255.1 380.6 256.1 381.8 256.3 383.5C256.5 385.1 256.3 386.7 256.2 388.3C256.1 390.3 255.9 392.2 255.7 394.2C255.4 397.6 254.9 401.1 254.4 404.5C252.2 418.7 248.6 432.7 243.5 446.2C240.6 453.8 237.2 461.2 233.4 468.4C232.9 469.4 237.6 469.7 238.2 468.6C245 455.7 250.4 442.1 254.3 428.1C258.2 414.2 260.7 399.8 261.3 385.4C261.4 383.5 261.1 381.8 259.9 380.2C258.7 378.7 257.2 377.4 255.9 376.1C252.6 372.9 249.4 369.7 246.1 366.5C245.4 365.9 241.3 365.6 241.2 367C240.3 393.1 237.6 421.2 220 441.9C215.7 446.9 210.7 451.2 205 454.4C204 455 205.5 455.4 206 455.5C207.1 455.5 208.5 455.4 209.4 454.9Z" fill="white"/>
</g>
<mask id="mask41_201_745" style="mask-type:luminance" maskUnits="userSpaceOnUse" x="51" y="51" width="398" height="398">
<path d="M250 448.5C359.629 448.5 448.5 359.629 448.5 250C448.5 140.371 359.629 51.5 250 51.5C140.371 51.5 51.5 140.371 51.5 250C51.5 359.629 140.371 448.5 250 448.5Z" fill="white"/>
</mask>
<g mask="url(#mask41_201_745)">
<path d="M228.5 454.1C240 438.8 247.7 420.8 250.7 401.9C251.6 396.6 252 391.2 252.2 385.8C252.2 383.8 247.3 384.2 247.2 386.3C246.8 405 241.8 423.5 232.7 439.8C230.1 444.4 227.3 448.8 224.1 453C223.4 453.9 224.3 454.7 225.2 455C226.2 455.2 227.8 455 228.5 454.1Z" fill="white"/>
</g>
<mask id="mask42_201_745" style="mask-type:luminance" maskUnits="userSpaceOnUse" x="51" y="51" width="398" height="398">
<path d="M250 448.5C359.629 448.5 448.5 359.629 448.5 250C448.5 140.371 359.629 51.5 250 51.5C140.371 51.5 51.5 140.371 51.5 250C51.5 359.629 140.371 448.5 250 448.5Z" fill="white"/>
</mask>
<g mask="url(#mask42_201_745)">
<path d="M100.2 398C109.2 395.3 117.5 390.9 125.4 385.8C133.3 380.7 141.1 375.2 148.5 369.3C156.3 363.1 163 356.1 169.4 348.5C176 340.6 182.6 332.8 189.3 324.9C196.8 316 204.3 307 211.9 298.1C210.6 297.2 209.4 296.3 208.1 295.4C205.1 307.2 199.9 318.2 196.3 329.7C194.5 335.4 192.8 341.2 190.9 346.9C189.2 352 187.3 357 185.2 362C177 381.8 166.4 400.6 153.5 417.7C146.2 427.4 138.3 436.5 129.7 445.1C127.8 447 131 450.8 133 448.8C148.4 433.4 161.9 416 173 397.3C178.5 388 183.4 378.3 187.7 368.3C192.2 357.9 195.7 347.2 199 336.4C203 323.2 209 310.5 212.4 297.1C212.9 295.3 210.2 292.6 208.6 294.4C195.4 310.1 182.1 325.9 168.9 341.6C162.7 349 156.5 356.2 149.1 362.5C141.9 368.6 134.2 374 126.4 379.2C117.9 385 108.8 390.3 98.9 393.2C96.1 394.1 97.7 398.7 100.2 398Z" fill="white"/>
</g>
<mask id="mask43_201_745" style="mask-type:luminance" maskUnits="userSpaceOnUse" x="51" y="51" width="398" height="398">
<path d="M250 448.5C359.629 448.5 448.5 359.629 448.5 250C448.5 140.371 359.629 51.5 250 51.5C140.371 51.5 51.5 140.371 51.5 250C51.5 359.629 140.371 448.5 250 448.5Z" fill="white"/>
</mask>
<g mask="url(#mask43_201_745)">
<path d="M111.7 404.5C118.5 401.8 124.3 397.4 130.2 393.2C136.5 388.7 142.8 384.3 149.1 379.8C160.6 371.6 172.1 363.3 180.3 351.6C184.8 345.2 188.4 338.3 191.6 331.1C190.1 330.6 188.5 330.1 187 329.6C181.9 343.3 173.4 355.4 165.9 367.9C158.1 380.8 152.5 394.8 143.8 407.1C139.1 413.8 133.8 420 127.9 425.7C127 426.6 127.4 428.1 128.4 428.7C129.6 429.4 131 429.1 131.9 428.2C142.4 417.9 151.2 405.9 158 392.8C161.7 385.8 165 378.7 169 371.8C172.7 365.5 176.7 359.4 180.5 353.1C184.7 346.1 188.7 338.8 191.6 331.1C192.7 328.2 188.1 327 187 329.6C181.5 341.9 174.6 353.5 164.4 362.5C159.2 367.1 153.6 371.1 148 375.1C142 379.4 136 383.6 130 387.9C123.6 392.4 117.2 397.7 109.8 400.6C108.7 401 107.9 402.3 108.5 403.5C109 404.6 110.5 404.9 111.7 404.5Z" fill="white"/>
</g>
<mask id="mask44_201_745" style="mask-type:luminance" maskUnits="userSpaceOnUse" x="51" y="51" width="398" height="398">
<path d="M250 448.5C359.629 448.5 448.5 359.629 448.5 250C448.5 140.371 359.629 51.5 250 51.5C140.371 51.5 51.5 140.371 51.5 250C51.5 359.629 140.371 448.5 250 448.5Z" fill="white"/>
</mask>
<g mask="url(#mask44_201_745)">
<path d="M120.4 410.3C132.5 403.5 144.9 396.4 154.1 385.7C152.9 384.6 151.7 383.4 150.4 382.3C142.2 393 134 403.7 125.8 414.4C125 415.4 125.3 416.8 126.2 417.6C127 418.3 128.7 418.8 129.5 417.8C137.7 407.1 145.9 396.4 154.1 385.7C155.8 383.5 152.2 380.2 150.4 382.3C141.5 392.7 129.4 399.6 117.6 406.2C115.1 407.6 118.1 411.6 120.4 410.3Z" fill="white"/>
</g>
</svg>
