<svg width="500" height="500" viewBox="0 0 500 500" fill="none" xmlns="http://www.w3.org/2000/svg">
<g clip-path="url(#clip0_201_664)">
<mask id="mask0_201_664" style="mask-type:luminance" maskUnits="userSpaceOnUse" x="51" y="51" width="398" height="398">
<path d="M250 448.5C359.629 448.5 448.5 359.629 448.5 250C448.5 140.371 359.629 51.5 250 51.5C140.371 51.5 51.5 140.371 51.5 250C51.5 359.629 140.371 448.5 250 448.5Z" fill="white"/>
</mask>
<g mask="url(#mask0_201_664)">
<path d="M93.7 86.7C116.4 86.6 139.2 86.4 161.9 86.3C168.4 86.3 174.8 86.2 181.3 86.2C182.1 86.2 182.2 85.9 181.4 85.6C180.4 85.2 179.1 84.9 177.9 84.9C155.2 85 132.4 85.2 109.7 85.3C103.2 85.3 96.8 85.4 90.3 85.4C89.5 85.4 89.4 85.7 90.2 86C91.3 86.4 92.6 86.7 93.7 86.7Z" fill="white"/>
</g>
<mask id="mask1_201_664" style="mask-type:luminance" maskUnits="userSpaceOnUse" x="51" y="51" width="398" height="398">
<path d="M250 448.5C359.629 448.5 448.5 359.629 448.5 250C448.5 140.371 359.629 51.5 250 51.5C140.371 51.5 51.5 140.371 51.5 250C51.5 359.629 140.371 448.5 250 448.5Z" fill="white"/>
</mask>
<g mask="url(#mask1_201_664)">
<path d="M205.7 87.4C224.8 86.2 244 85.9 263.1 86.6C264.1 86.6 262.6 85.9 262.4 85.8C261.4 85.4 260.2 85 259.1 84.9C240 84.2 220.8 84.5 201.7 85.7C200.7 85.8 202.1 86.4 202.4 86.5C203.3 87 204.6 87.5 205.7 87.4Z" fill="white"/>
</g>
<mask id="mask2_201_664" style="mask-type:luminance" maskUnits="userSpaceOnUse" x="51" y="51" width="398" height="398">
<path d="M250 448.5C359.629 448.5 448.5 359.629 448.5 250C448.5 140.371 359.629 51.5 250 51.5C140.371 51.5 51.5 140.371 51.5 250C51.5 359.629 140.371 448.5 250 448.5Z" fill="white"/>
</mask>
<g mask="url(#mask2_201_664)">
<path d="M285.6 87.2C302.8 87.1 320 87.2 337.3 87.7C354.5 88.2 371.7 88.9 388.9 90C398.7 90.6 408.4 91.3 418.1 92.1C419.2 92.2 418.4 90.8 418.1 90.5C417.3 89.7 416.2 89 415 89C397.8 87.6 380.6 86.5 363.4 85.7C346.2 84.9 329 84.4 311.8 84.2C302 84.1 292.3 84.1 282.5 84.1C281.4 84.1 282.1 85.3 282.5 85.7C283.3 86.4 284.5 87.2 285.6 87.2Z" fill="white"/>
</g>
<mask id="mask3_201_664" style="mask-type:luminance" maskUnits="userSpaceOnUse" x="51" y="51" width="398" height="398">
<path d="M250 448.5C359.629 448.5 448.5 359.629 448.5 250C448.5 140.371 359.629 51.5 250 51.5C140.371 51.5 51.5 140.371 51.5 250C51.5 359.629 140.371 448.5 250 448.5Z" fill="white"/>
</mask>
<g mask="url(#mask3_201_664)">
<path d="M151.5 71.5C171.6 71.8 191.7 71.9 211.8 71.9C217.5 71.9 223.3 71.8 229 71.8C230.1 71.8 231.3 71 232.1 70.4C232.4 70.2 233.6 69.3 232.5 69.3C212.6 69.5 192.6 69.5 172.7 69.3C167 69.2 161.3 69.2 155.6 69.1C154.6 69.1 153.5 69.7 152.7 70.2C152.6 70.1 150.9 71.4 151.5 71.5Z" fill="white"/>
</g>
<mask id="mask4_201_664" style="mask-type:luminance" maskUnits="userSpaceOnUse" x="51" y="51" width="398" height="398">
<path d="M250 448.5C359.629 448.5 448.5 359.629 448.5 250C448.5 140.371 359.629 51.5 250 51.5C140.371 51.5 51.5 140.371 51.5 250C51.5 359.629 140.371 448.5 250 448.5Z" fill="white"/>
</mask>
<g mask="url(#mask4_201_664)">
<path d="M251.5 71.6C269.9 71.7 288.4 72 306.8 72.4C325.1 72.8 343.5 73.4 361.8 74.2C372.2 74.6 382.5 75.1 392.9 75.6C394.1 75.7 395.5 75 395.6 73.7C395.7 72.4 394.5 71.4 393.3 71.3C374.9 70.4 356.5 69.6 338.1 69C319.8 68.4 301.4 67.9 283.1 67.6C272.7 67.4 262.3 67.3 252 67.2C250.8 67.2 249.4 67.7 249.3 69.1C249.1 70.4 250.3 71.5 251.5 71.6Z" fill="white"/>
</g>
<mask id="mask5_201_664" style="mask-type:luminance" maskUnits="userSpaceOnUse" x="51" y="51" width="398" height="398">
<path d="M250 448.5C359.629 448.5 448.5 359.629 448.5 250C448.5 140.371 359.629 51.5 250 51.5C140.371 51.5 51.5 140.371 51.5 250C51.5 359.629 140.371 448.5 250 448.5Z" fill="white"/>
</mask>
<g mask="url(#mask5_201_664)">
<path d="M206 57.9001C237.2 57.9001 268.5 58.7 299.7 60.5C308.5 61 317.3 61.6001 326.1 62.2001C327.3 62.3001 328.5 61.4001 328.4 60.2001C328.3 58.9001 326.9 58.2 325.8 58.1C294.6 55.8 263.4 54.4 232.2 54C223.4 53.9 214.6 53.8 205.8 53.8C204.7 53.8 203.4 54.6 203.5 55.8C203.4 57 204.8 57.9001 206 57.9001Z" fill="white"/>
</g>
<mask id="mask6_201_664" style="mask-type:luminance" maskUnits="userSpaceOnUse" x="51" y="51" width="398" height="398">
<path d="M250 448.5C359.629 448.5 448.5 359.629 448.5 250C448.5 140.371 359.629 51.5 250 51.5C140.371 51.5 51.5 140.371 51.5 250C51.5 359.629 140.371 448.5 250 448.5Z" fill="white"/>
</mask>
<g mask="url(#mask6_201_664)">
<path d="M101.8 100.8C118.7 98.8 135.7 97.4 152.7 96.8C169.6 96.2 186.5 96.2 203.3 97C212.9 97.4 222.5 98.1 232.1 99C233 99.1 234.4 98.8 234.3 97.6C234.2 96.4 232.6 95.7 231.7 95.6C214.6 94 197.5 93.1 180.4 92.9C163.3 92.7 146.2 93.2 129.2 94.5C119.5 95.2 109.9 96.1 100.3 97.3C99.3 97.4 98.3 98.1 98.8 99.2C99.1 100.4 100.7 101 101.8 100.8Z" fill="white"/>
</g>
<mask id="mask7_201_664" style="mask-type:luminance" maskUnits="userSpaceOnUse" x="51" y="51" width="398" height="398">
<path d="M250 448.5C359.629 448.5 448.5 359.629 448.5 250C448.5 140.371 359.629 51.5 250 51.5C140.371 51.5 51.5 140.371 51.5 250C51.5 359.629 140.371 448.5 250 448.5Z" fill="white"/>
</mask>
<g mask="url(#mask7_201_664)">
<path d="M248.9 102.3C274.1 100.9 299.3 101.1 324.4 103C331.5 103.5 338.7 104.2 345.8 105.1C346.9 105.2 348.4 104.9 348.6 103.7C348.8 102.5 347.5 101.6 346.4 101.4C321 98.5001 295.4 97.2 269.9 97.7C262.7 97.8 255.4 98.1 248.2 98.5C247.2 98.6 245.9 99.2 246.1 100.5C246.3 101.7 247.8 102.4 248.9 102.3Z" fill="white"/>
</g>
<mask id="mask8_201_664" style="mask-type:luminance" maskUnits="userSpaceOnUse" x="51" y="51" width="398" height="398">
<path d="M250 448.5C359.629 448.5 448.5 359.629 448.5 250C448.5 140.371 359.629 51.5 250 51.5C140.371 51.5 51.5 140.371 51.5 250C51.5 359.629 140.371 448.5 250 448.5Z" fill="white"/>
</mask>
<g mask="url(#mask8_201_664)">
<path d="M363.8 104.1C380.8 104.1 397.9 104.1 414.9 104.1C417.7 104.1 416.2 99.5 413.9 99.5C396.9 99.5 379.8 99.5 362.8 99.5C360 99.5 361.6 104.1 363.8 104.1Z" fill="white"/>
</g>
<mask id="mask9_201_664" style="mask-type:luminance" maskUnits="userSpaceOnUse" x="51" y="51" width="398" height="398">
<path d="M250 448.5C359.629 448.5 448.5 359.629 448.5 250C448.5 140.371 359.629 51.5 250 51.5C140.371 51.5 51.5 140.371 51.5 250C51.5 359.629 140.371 448.5 250 448.5Z" fill="white"/>
</mask>
<g mask="url(#mask9_201_664)">
<path d="M56 115.1C88.2 113.6 120.4 113 152.7 113.3C161.8 113.4 171 113.6 180.1 113.8C181.1 113.8 182.7 113.8 183.5 113.1C184.2 112.4 183 112.1 182.5 112.1C149.9 111.2 117.2 111.3 84.6 112.3C75.5 112.6 66.3 112.9 57.2 113.4C56.5 113.4 54.6 113.6 54.2 114.4C53.8 115.1 55.7 115.1 56 115.1Z" fill="white"/>
</g>
<mask id="mask10_201_664" style="mask-type:luminance" maskUnits="userSpaceOnUse" x="51" y="51" width="398" height="398">
<path d="M250 448.5C359.629 448.5 448.5 359.629 448.5 250C448.5 140.371 359.629 51.5 250 51.5C140.371 51.5 51.5 140.371 51.5 250C51.5 359.629 140.371 448.5 250 448.5Z" fill="white"/>
</mask>
<g mask="url(#mask10_201_664)">
<path d="M204 114.9C223.1 116.8 242.3 117.4 261.5 116.7C262.6 116.7 263.7 115.5 263.4 114.3C263.1 113 261.6 112.6 260.4 112.6C241.6 113.2 222.9 112.5 204.2 110.7C203.1 110.6 201.6 111.3 201.5 112.5C201.6 114 202.9 114.8 204 114.9Z" fill="white"/>
</g>
<mask id="mask11_201_664" style="mask-type:luminance" maskUnits="userSpaceOnUse" x="51" y="51" width="398" height="398">
<path d="M250 448.5C359.629 448.5 448.5 359.629 448.5 250C448.5 140.371 359.629 51.5 250 51.5C140.371 51.5 51.5 140.371 51.5 250C51.5 359.629 140.371 448.5 250 448.5Z" fill="white"/>
</mask>
<g mask="url(#mask11_201_664)">
<path d="M289.3 117.8C311.5 117.8 333.8 117.8 356 117.8C378.2 117.8 400.3 117.6 422.5 117.9C434.8 118.1 447.2 118.6 459.4 120.1C459.8 120.1 458.1 119 458 118.9C457.1 118.4 456.1 117.8 455.2 117.7C433.4 115 411.3 115.4 389.3 115.4C367.1 115.4 344.8 115.4 322.6 115.4C310.1 115.4 297.6 115.4 285.1 115.4C284.7 115.4 286.4 116.5 286.5 116.6C287.3 117.1 288.4 117.8 289.3 117.8Z" fill="white"/>
</g>
<mask id="mask12_201_664" style="mask-type:luminance" maskUnits="userSpaceOnUse" x="51" y="51" width="398" height="398">
<path d="M250 448.5C359.629 448.5 448.5 359.629 448.5 250C448.5 140.371 359.629 51.5 250 51.5C140.371 51.5 51.5 140.371 51.5 250C51.5 359.629 140.371 448.5 250 448.5Z" fill="white"/>
</mask>
<g mask="url(#mask12_201_664)">
<path d="M85.3001 126.5C103.8 124.4 122.5 123 141.1 122.5C146.5 122.3 151.8 122.2 157.2 122.2C158.2 122.2 159.8 122 160.5 121.2C161.2 120.4 160 120.2 159.4 120.2C140.4 120.3 121.4 121.2 102.5 122.9C97.1 123.4 91.7001 123.9 86.3001 124.6C85.6001 124.7 83.7 125 83.4 125.8C83.1 126.7 85.0001 126.5 85.3001 126.5Z" fill="white"/>
</g>
<mask id="mask13_201_664" style="mask-type:luminance" maskUnits="userSpaceOnUse" x="51" y="51" width="398" height="398">
<path d="M250 448.5C359.629 448.5 448.5 359.629 448.5 250C448.5 140.371 359.629 51.5 250 51.5C140.371 51.5 51.5 140.371 51.5 250C51.5 359.629 140.371 448.5 250 448.5Z" fill="white"/>
</mask>
<g mask="url(#mask13_201_664)">
<path d="M180.8 123.4C200.2 125.4 219.7 127 239.2 128.3C240.3 128.4 241.5 128 242.6 127.6C242.9 127.5 244.3 126.8 243.3 126.7C223.8 125.4 204.3 123.8 184.9 121.8C183.8 121.7 182.6 122.1 181.5 122.5C181.2 122.6 179.8 123.3 180.8 123.4Z" fill="white"/>
</g>
<mask id="mask14_201_664" style="mask-type:luminance" maskUnits="userSpaceOnUse" x="51" y="51" width="398" height="398">
<path d="M250 448.5C359.629 448.5 448.5 359.629 448.5 250C448.5 140.371 359.629 51.5 250 51.5C140.371 51.5 51.5 140.371 51.5 250C51.5 359.629 140.371 448.5 250 448.5Z" fill="white"/>
</mask>
<g mask="url(#mask14_201_664)">
<path d="M275 130.9C296.3 130.3 317.6 129.8 338.9 129.4C360.2 129 381.5 128.8 402.8 128.6C414.8 128.5 426.8 128.5 438.8 128.5C439.8 128.5 439.9 127.8 439.3 127.1C438.5 126.3 437.1 125.9 436 125.9C414.7 125.9 393.4 126 372.1 126.2C350.8 126.4 329.5 126.8 308.2 127.3C296.2 127.6 284.2 127.9 272.2 128.3C271.2 128.3 271.1 129 271.7 129.7C272.5 130.5 273.9 130.9 275 130.9Z" fill="white"/>
</g>
<mask id="mask15_201_664" style="mask-type:luminance" maskUnits="userSpaceOnUse" x="51" y="51" width="398" height="398">
<path d="M250 448.5C359.629 448.5 448.5 359.629 448.5 250C448.5 140.371 359.629 51.5 250 51.5C140.371 51.5 51.5 140.371 51.5 250C51.5 359.629 140.371 448.5 250 448.5Z" fill="white"/>
</mask>
<g mask="url(#mask15_201_664)">
<path d="M70.9 141.6C87.6 142.2 104.3 142.8 121 143.4C122 143.4 123.3 143 123.2 141.7C123.1 140.5 121.6 139.7 120.5 139.7C103.8 139.1 87.1 138.5 70.4 137.9C69.4 137.9 68.1 138.3 68.2 139.6C68.3 140.8 69.8 141.6 70.9 141.6Z" fill="white"/>
</g>
<mask id="mask16_201_664" style="mask-type:luminance" maskUnits="userSpaceOnUse" x="51" y="51" width="398" height="398">
<path d="M250 448.5C359.629 448.5 448.5 359.629 448.5 250C448.5 140.371 359.629 51.5 250 51.5C140.371 51.5 51.5 140.371 51.5 250C51.5 359.629 140.371 448.5 250 448.5Z" fill="white"/>
</mask>
<g mask="url(#mask16_201_664)">
<path d="M147.9 142.2C176.5 141.8 205.1 142.2 233.7 143.4C241.8 143.7 250 144.1 258.1 144.6C258.1 144.6 258.8 144.7 258.9 144.5C258.9 144.4 258.2 144.2 258.2 144.2C257.1 143.9 255.9 143.6 254.7 143.6C225.9 142 197 141.2 168.1 141.1C160 141.1 151.8 141.1 143.7 141.2C142.7 141.2 144.4 141.7 144.5 141.7C145.6 141.9 146.8 142.2 147.9 142.2Z" fill="white"/>
</g>
<mask id="mask17_201_664" style="mask-type:luminance" maskUnits="userSpaceOnUse" x="51" y="51" width="398" height="398">
<path d="M250 448.5C359.629 448.5 448.5 359.629 448.5 250C448.5 140.371 359.629 51.5 250 51.5C140.371 51.5 51.5 140.371 51.5 250C51.5 359.629 140.371 448.5 250 448.5Z" fill="white"/>
</mask>
<g mask="url(#mask17_201_664)">
<path d="M281 144.2C295.6 144.2 310.2 144.2 324.8 144.2C325.8 144.2 327.4 143.8 328 142.9C328.6 142 327.4 141.8 326.8 141.8C312.2 141.8 297.6 141.8 283 141.8C282 141.8 280.4 142.2 279.8 143.1C279.1 144 280.3 144.2 281 144.2Z" fill="white"/>
</g>
<mask id="mask18_201_664" style="mask-type:luminance" maskUnits="userSpaceOnUse" x="51" y="51" width="398" height="398">
<path d="M250 448.5C359.629 448.5 448.5 359.629 448.5 250C448.5 140.371 359.629 51.5 250 51.5C140.371 51.5 51.5 140.371 51.5 250C51.5 359.629 140.371 448.5 250 448.5Z" fill="white"/>
</mask>
<g mask="url(#mask18_201_664)">
<path d="M348.4 144.7C374 145.6 399.5 146 425.1 146.1C432.4 146.1 439.7 146.1 447 146.1C447.8 146.1 446.9 144.4 446.7 144.1C446.3 143.5 445.4 141.9 444.5 141.9C418.9 142 393.4 141.8 367.8 141.2C360.5 141 353.2 140.8 345.9 140.6C345 140.6 346 142.3 346.2 142.6C346.6 143.1 347.5 144.7 348.4 144.7Z" fill="white"/>
</g>
<mask id="mask19_201_664" style="mask-type:luminance" maskUnits="userSpaceOnUse" x="51" y="51" width="398" height="398">
<path d="M250 448.5C359.629 448.5 448.5 359.629 448.5 250C448.5 140.371 359.629 51.5 250 51.5C140.371 51.5 51.5 140.371 51.5 250C51.5 359.629 140.371 448.5 250 448.5Z" fill="white"/>
</mask>
<g mask="url(#mask19_201_664)">
<path d="M64.5 154.9C81.7 155.3 98.9 155.4 116.1 155C121 154.9 125.9 154.8 130.8 154.6C131.9 154.6 133.3 154.2 134.1 153.4C134.7 152.8 134.7 152.1 133.7 152.1C116.5 152.7 99.3 152.9 82.1 152.7C77.2 152.6 72.3 152.6 67.4 152.4C66.3 152.4 64.9 152.8 64.1 153.6C63.4 154.2 63.5 154.8 64.5 154.9Z" fill="white"/>
</g>
<mask id="mask20_201_664" style="mask-type:luminance" maskUnits="userSpaceOnUse" x="51" y="51" width="398" height="398">
<path d="M250 448.5C359.629 448.5 448.5 359.629 448.5 250C448.5 140.371 359.629 51.5 250 51.5C140.371 51.5 51.5 140.371 51.5 250C51.5 359.629 140.371 448.5 250 448.5Z" fill="white"/>
</mask>
<g mask="url(#mask20_201_664)">
<path d="M156.1 154.2C170 155 183.9 155.5 197.8 155.5C198.8 155.5 198.2 154.5 197.8 154C197.2 153.3 195.9 152.1 194.9 152.1C181 152.1 167.1 151.7 153.2 150.8C152.1 150.7 152.8 151.8 153.2 152.3C153.8 153 155 154.1 156.1 154.2Z" fill="white"/>
</g>
<mask id="mask21_201_664" style="mask-type:luminance" maskUnits="userSpaceOnUse" x="51" y="51" width="398" height="398">
<path d="M250 448.5C359.629 448.5 448.5 359.629 448.5 250C448.5 140.371 359.629 51.5 250 51.5C140.371 51.5 51.5 140.371 51.5 250C51.5 359.629 140.371 448.5 250 448.5Z" fill="white"/>
</mask>
<g mask="url(#mask21_201_664)">
<path d="M212 155.3C235.8 157.1 259.6 158.5 283.4 159.5C290.2 159.8 297 160 303.8 160.3C304.7 160.3 306.4 160.1 306.8 159C307.1 157.9 305.7 157.5 304.9 157.5C281.1 156.7 257.2 155.5 233.4 153.9C226.6 153.5 219.8 153 213.1 152.5C212.2 152.4 210.5 152.7 210.1 153.8C209.8 154.8 211.3 155.2 212 155.3Z" fill="white"/>
</g>
<mask id="mask22_201_664" style="mask-type:luminance" maskUnits="userSpaceOnUse" x="51" y="51" width="398" height="398">
<path d="M250 448.5C359.629 448.5 448.5 359.629 448.5 250C448.5 140.371 359.629 51.5 250 51.5C140.371 51.5 51.5 140.371 51.5 250C51.5 359.629 140.371 448.5 250 448.5Z" fill="white"/>
</mask>
<g mask="url(#mask22_201_664)">
<path d="M327.7 161.3C345.2 162.1 362.8 162.6 380.3 162.9C397.9 163.2 415.5 163.3 433.2 163.1C443.1 163 453 162.9 462.9 162.6C464.1 162.6 464.2 161.3 463.9 160.4C463.4 159.3 462.3 158.4 461.1 158.4C443.6 158.8 426 159 408.5 159C390.9 159 373.3 158.7 355.6 158.2C345.7 157.9 335.8 157.6 325.9 157.1C324.7 157 324.6 158.5 324.9 159.3C325.4 160.4 326.5 161.2 327.7 161.3Z" fill="white"/>
</g>
<mask id="mask23_201_664" style="mask-type:luminance" maskUnits="userSpaceOnUse" x="51" y="51" width="398" height="398">
<path d="M250 448.5C359.629 448.5 448.5 359.629 448.5 250C448.5 140.371 359.629 51.5 250 51.5C140.371 51.5 51.5 140.371 51.5 250C51.5 359.629 140.371 448.5 250 448.5Z" fill="white"/>
</mask>
<g mask="url(#mask23_201_664)">
<path d="M63.1999 172.2C92.9999 172.3 122.7 172.3 152.5 172.4C160.8 172.4 169.1 172.4 177.4 172.5C178.6 172.5 178.7 171.2 178.4 170.3C178 169.2 176.8 168.2 175.6 168.2C145.8 168.1 116.1 168.1 86.2999 168C77.9999 168 69.6999 168 61.3999 167.9C60.1999 167.9 60.0999 169.2 60.3999 170.1C60.8999 171.2 61.9999 172.2 63.1999 172.2Z" fill="white"/>
</g>
<mask id="mask24_201_664" style="mask-type:luminance" maskUnits="userSpaceOnUse" x="51" y="51" width="398" height="398">
<path d="M250 448.5C359.629 448.5 448.5 359.629 448.5 250C448.5 140.371 359.629 51.5 250 51.5C140.371 51.5 51.5 140.371 51.5 250C51.5 359.629 140.371 448.5 250 448.5Z" fill="white"/>
</mask>
<g mask="url(#mask24_201_664)">
<path d="M199.5 172C222.6 172.4 245.7 172.8 268.8 173.2C275.3 173.3 281.8 173.4 288.2 173.5C288.9 173.5 290 173.1 289.4 172.3C288.8 171.4 287.1 171.3 286.1 171.3C263 170.9 239.9 170.5 216.8 170.1C210.3 170 203.8 169.9 197.4 169.8C196.7 169.8 195.6 170.2 196.2 171C196.9 171.8 198.6 172 199.5 172Z" fill="white"/>
</g>
<mask id="mask25_201_664" style="mask-type:luminance" maskUnits="userSpaceOnUse" x="51" y="51" width="398" height="398">
<path d="M250 448.5C359.629 448.5 448.5 359.629 448.5 250C448.5 140.371 359.629 51.5 250 51.5C140.371 51.5 51.5 140.371 51.5 250C51.5 359.629 140.371 448.5 250 448.5Z" fill="white"/>
</mask>
<g mask="url(#mask25_201_664)">
<path d="M314.3 176.6C335.8 177.1 357.3 177.6 378.8 177.9C400.3 178.3 421.8 178.6 443.3 178.8C455.5 178.9 467.6 179 479.8 179.1C482.9 179.1 481.1 174.9 478.7 174.9C457.2 174.8 435.7 174.6 414.2 174.3C392.7 174 371.2 173.7 349.7 173.2C337.5 173 325.4 172.7 313.2 172.4C310.1 172.3 312 176.6 314.3 176.6Z" fill="white"/>
</g>
<mask id="mask26_201_664" style="mask-type:luminance" maskUnits="userSpaceOnUse" x="51" y="51" width="398" height="398">
<path d="M250 448.5C359.629 448.5 448.5 359.629 448.5 250C448.5 140.371 359.629 51.5 250 51.5C140.371 51.5 51.5 140.371 51.5 250C51.5 359.629 140.371 448.5 250 448.5Z" fill="white"/>
</mask>
<g mask="url(#mask26_201_664)">
<path d="M53.9999 184.2C71.6999 185.1 89.3999 185.6 107.1 185.7C112.2 185.7 117.2 185.7 122.3 185.7C125.4 185.7 125 180.8 122.1 180.8C104.4 180.9 86.6999 180.6 68.9999 180C63.8999 179.8 58.8999 179.6 53.7999 179.3C50.6999 179.1 51.1999 184 53.9999 184.2Z" fill="white"/>
</g>
<mask id="mask27_201_664" style="mask-type:luminance" maskUnits="userSpaceOnUse" x="51" y="51" width="398" height="398">
<path d="M250 448.5C359.629 448.5 448.5 359.629 448.5 250C448.5 140.371 359.629 51.5 250 51.5C140.371 51.5 51.5 140.371 51.5 250C51.5 359.629 140.371 448.5 250 448.5Z" fill="white"/>
</mask>
<g mask="url(#mask27_201_664)">
<path d="M148.3 184C169.2 185 190.1 185.9 210.9 186.9C216.8 187.2 222.7 187.4 228.6 187.7C229.2 187.7 230.8 187.8 230.6 186.8C230.4 185.9 228.4 185.5 227.7 185.4C206.8 184.4 185.9 183.5 165.1 182.5C159.2 182.2 153.3 182 147.4 181.7C146.8 181.7 145.2 181.6 145.4 182.6C145.6 183.5 147.6 183.9 148.3 184Z" fill="white"/>
</g>
<mask id="mask28_201_664" style="mask-type:luminance" maskUnits="userSpaceOnUse" x="51" y="51" width="398" height="398">
<path d="M250 448.5C359.629 448.5 448.5 359.629 448.5 250C448.5 140.371 359.629 51.5 250 51.5C140.371 51.5 51.5 140.371 51.5 250C51.5 359.629 140.371 448.5 250 448.5Z" fill="white"/>
</mask>
<g mask="url(#mask28_201_664)">
<path d="M249.9 187.9C273.6 188.7 297.3 189.4 321 190.2C327.7 190.4 334.5 190.6 341.2 190.9C342.2 190.9 343.3 190.6 344.2 190.3C344.6 190.2 345.3 190.1 345.6 189.8C345.6 189.8 346.1 189.5 345.8 189.5C322.1 188.7 298.4 188 274.7 187.2C268 187 261.2 186.8 254.5 186.5C253.5 186.5 252.4 186.8 251.5 187.1C251.1 187.2 250.4 187.3 250.1 187.6C250.1 187.7 249.6 187.9 249.9 187.9Z" fill="white"/>
</g>
<mask id="mask29_201_664" style="mask-type:luminance" maskUnits="userSpaceOnUse" x="51" y="51" width="398" height="398">
<path d="M250 448.5C359.629 448.5 448.5 359.629 448.5 250C448.5 140.371 359.629 51.5 250 51.5C140.371 51.5 51.5 140.371 51.5 250C51.5 359.629 140.371 448.5 250 448.5Z" fill="white"/>
</mask>
<g mask="url(#mask29_201_664)">
<path d="M368.7 194.4C400.2 194.4 431.8 194.4 463.3 194.4C472.1 194.4 480.9 194.4 489.7 194.4C491 194.4 491.3 192.6 491 191.7C490.6 190.4 489.6 189.6 488.3 189.6C456.8 189.6 425.2 189.6 393.7 189.6C384.9 189.6 376.1 189.6 367.3 189.6C366 189.6 365.7 191.4 366 192.3C366.4 193.6 367.4 194.4 368.7 194.4Z" fill="white"/>
</g>
<mask id="mask30_201_664" style="mask-type:luminance" maskUnits="userSpaceOnUse" x="51" y="51" width="398" height="398">
<path d="M250 448.5C359.629 448.5 448.5 359.629 448.5 250C448.5 140.371 359.629 51.5 250 51.5C140.371 51.5 51.5 140.371 51.5 250C51.5 359.629 140.371 448.5 250 448.5Z" fill="white"/>
</mask>
<g mask="url(#mask30_201_664)">
<path d="M48.7 200.8C68.2 201.3 87.6999 201.5 107.2 201.2C112.8 201.1 118.3 201 123.9 200.9C124.9 200.9 126.5 200.7 127.2 199.9C127.9 199.1 126.7 198.9 126.1 198.9C106.6 199.4 87.0999 199.5 67.5999 199.2C61.9999 199.1 56.5 199 50.9 198.8C49.9 198.8 48.2999 199 47.5999 199.8C46.8999 200.6 48.1 200.7 48.7 200.8Z" fill="white"/>
</g>
<mask id="mask31_201_664" style="mask-type:luminance" maskUnits="userSpaceOnUse" x="51" y="51" width="398" height="398">
<path d="M250 448.5C359.629 448.5 448.5 359.629 448.5 250C448.5 140.371 359.629 51.5 250 51.5C140.371 51.5 51.5 140.371 51.5 250C51.5 359.629 140.371 448.5 250 448.5Z" fill="white"/>
</mask>
<g mask="url(#mask31_201_664)">
<path d="M150.4 201.1C169.7 201.6 189 202.2 208.3 202.7C209.1 202.7 210.5 202.5 210.3 201.4C210.1 200.4 208.3 199.9 207.5 199.9C188.2 199.4 168.9 198.8 149.6 198.3C148.8 198.3 147.4 198.5 147.6 199.6C147.7 200.6 149.5 201.1 150.4 201.1Z" fill="white"/>
</g>
<mask id="mask32_201_664" style="mask-type:luminance" maskUnits="userSpaceOnUse" x="51" y="51" width="398" height="398">
<path d="M250 448.5C359.629 448.5 448.5 359.629 448.5 250C448.5 140.371 359.629 51.5 250 51.5C140.371 51.5 51.5 140.371 51.5 250C51.5 359.629 140.371 448.5 250 448.5Z" fill="white"/>
</mask>
<g mask="url(#mask32_201_664)">
<path d="M229.6 203.5C255.5 202.3 281.4 201.5 307.3 201.1C314.6 201 321.9 200.9 329.2 200.8C329.8 200.8 328.1 199.4 328.1 199.4C327.4 198.9 326.3 197.9 325.4 198C299.5 198.2 273.6 198.8 247.7 199.8C240.4 200.1 233.1 200.4 225.8 200.7C225.2 200.7 226.9 202.1 226.9 202.1C227.6 202.5 228.7 203.5 229.6 203.5Z" fill="white"/>
</g>
<mask id="mask33_201_664" style="mask-type:luminance" maskUnits="userSpaceOnUse" x="51" y="51" width="398" height="398">
<path d="M250 448.5C359.629 448.5 448.5 359.629 448.5 250C448.5 140.371 359.629 51.5 250 51.5C140.371 51.5 51.5 140.371 51.5 250C51.5 359.629 140.371 448.5 250 448.5Z" fill="white"/>
</mask>
<g mask="url(#mask33_201_664)">
<path d="M366.6 206.3C389.1 206.5 411.6 206.7 434 207C440.4 207.1 446.8 207.1 453.2 207.2C454.3 207.2 455.6 206.3 455.6 205.1C455.5 203.8 454.1 203.3 453 203.3C430.5 203.1 408 202.9 385.6 202.6C379.2 202.5 372.8 202.5 366.4 202.4C365.3 202.4 364 203.3 364 204.5C364.1 205.8 365.5 206.3 366.6 206.3Z" fill="white"/>
</g>
<mask id="mask34_201_664" style="mask-type:luminance" maskUnits="userSpaceOnUse" x="51" y="51" width="398" height="398">
<path d="M250 448.5C359.629 448.5 448.5 359.629 448.5 250C448.5 140.371 359.629 51.5 250 51.5C140.371 51.5 51.5 140.371 51.5 250C51.5 359.629 140.371 448.5 250 448.5Z" fill="white"/>
</mask>
<g mask="url(#mask34_201_664)">
<path d="M42 214C58.8 214 75.7 214.2 92.5 214.5C109.3 214.8 126 215.2 142.8 215.8C152.3 216.1 161.9 216.5 171.4 216.9C172.5 216.9 173.7 216.7 174.8 216.4C175.1 216.3 176.6 215.8 175.6 215.8C158.8 215.1 141.9 214.5 125.1 214C108.3 213.5 91.6 213.2 74.8 213C65.3 212.9 55.7 212.8 46.2 212.8C45.1 212.8 43.9 213 42.8 213.3C42.5 213.4 41 214 42 214Z" fill="white"/>
</g>
<mask id="mask35_201_664" style="mask-type:luminance" maskUnits="userSpaceOnUse" x="51" y="51" width="398" height="398">
<path d="M250 448.5C359.629 448.5 448.5 359.629 448.5 250C448.5 140.371 359.629 51.5 250 51.5C140.371 51.5 51.5 140.371 51.5 250C51.5 359.629 140.371 448.5 250 448.5Z" fill="white"/>
</mask>
<g mask="url(#mask35_201_664)">
<path d="M198.8 218C215.5 216.7 232.3 216 249 215.8C253.8 215.8 258.6 215.8 263.4 215.8C264.4 215.8 265.7 215.1 265.6 213.9C265.4 212.7 264 212 262.8 212C246 211.8 229.3 212.2 212.5 213.2C207.7 213.5 202.9 213.8 198.1 214.2C197.1 214.3 195.7 214.8 195.9 216.1C196.2 217.3 197.7 218.1 198.8 218Z" fill="white"/>
</g>
<mask id="mask36_201_664" style="mask-type:luminance" maskUnits="userSpaceOnUse" x="51" y="51" width="398" height="398">
<path d="M250 448.5C359.629 448.5 448.5 359.629 448.5 250C448.5 140.371 359.629 51.5 250 51.5C140.371 51.5 51.5 140.371 51.5 250C51.5 359.629 140.371 448.5 250 448.5Z" fill="white"/>
</mask>
<g mask="url(#mask36_201_664)">
<path d="M293.6 214.3C317.8 218 342.1 220.7 366.5 222.5C390.9 224.3 415.3 225.1 439.7 224.9C453.5 224.8 467.3 224.4 481.1 223.8C482 223.8 482.9 223.1 482.4 222.2C481.8 221.2 480.2 220.9 479.2 221C455.1 222.2 431 222.4 406.8 221.8C382.6 221.1 358.5 219.5 334.5 216.9C321 215.5 307.6 213.7 294.2 211.7C293.4 211.6 291.7 211.4 291.5 212.5C291.3 213.5 292.9 214.2 293.6 214.3Z" fill="white"/>
</g>
<mask id="mask37_201_664" style="mask-type:luminance" maskUnits="userSpaceOnUse" x="51" y="51" width="398" height="398">
<path d="M250 448.5C359.629 448.5 448.5 359.629 448.5 250C448.5 140.371 359.629 51.5 250 51.5C140.371 51.5 51.5 140.371 51.5 250C51.5 359.629 140.371 448.5 250 448.5Z" fill="white"/>
</mask>
<g mask="url(#mask37_201_664)">
<path d="M27.2001 229.1C48.9001 234.1 71.2001 236.7 93.5001 236.5C99.8001 236.5 106 236.2 112.3 235.8C113.7 235.7 111.7 231.2 110.4 231.3C88.1001 232.9 65.7001 231.9 43.7001 228.3C37.5001 227.3 31.4001 226.1 25.3001 224.6C24.3001 224.4 25.0001 226.4 25.1001 226.7C25.5001 227.6 26.2001 228.8 27.2001 229.1Z" fill="white"/>
</g>
<mask id="mask38_201_664" style="mask-type:luminance" maskUnits="userSpaceOnUse" x="51" y="51" width="398" height="398">
<path d="M250 448.5C359.629 448.5 448.5 359.629 448.5 250C448.5 140.371 359.629 51.5 250 51.5C140.371 51.5 51.5 140.371 51.5 250C51.5 359.629 140.371 448.5 250 448.5Z" fill="white"/>
</mask>
<g mask="url(#mask38_201_664)">
<path d="M128.6 233.5C150.2 235.3 172 236.5 193.7 236.8C199.8 236.9 206 236.9 212.1 236.9C213.2 236.9 214.6 236.1 215.1 235.1C215.6 234.2 215.1 233.3 214.1 233.3C192.4 233.3 170.7 232.7 149 231.2C142.9 230.8 136.8 230.3 130.6 229.8C128.8 229.8 125.7 233.2 128.6 233.5Z" fill="white"/>
</g>
<mask id="mask39_201_664" style="mask-type:luminance" maskUnits="userSpaceOnUse" x="51" y="51" width="398" height="398">
<path d="M250 448.5C359.629 448.5 448.5 359.629 448.5 250C448.5 140.371 359.629 51.5 250 51.5C140.371 51.5 51.5 140.371 51.5 250C51.5 359.629 140.371 448.5 250 448.5Z" fill="white"/>
</mask>
<g mask="url(#mask39_201_664)">
<path d="M245.2 236.9C263.7 236.5 282.3 236.5 300.8 236.9C306.1 237 311.4 237.2 316.7 237.4C317.7 237.4 317.9 236.6 317.3 235.9C316.5 235 315.2 234.7 314 234.6C295.5 233.9 276.9 233.6 258.4 233.8C253.1 233.8 247.8 233.9 242.5 234.1C241.5 234.1 241.3 234.9 241.9 235.6C242.7 236.4 244.1 236.9 245.2 236.9Z" fill="white"/>
</g>
<mask id="mask40_201_664" style="mask-type:luminance" maskUnits="userSpaceOnUse" x="51" y="51" width="398" height="398">
<path d="M250 448.5C359.629 448.5 448.5 359.629 448.5 250C448.5 140.371 359.629 51.5 250 51.5C140.371 51.5 51.5 140.371 51.5 250C51.5 359.629 140.371 448.5 250 448.5Z" fill="white"/>
</mask>
<g mask="url(#mask40_201_664)">
<path d="M335.7 241.3C353.6 241.1 371.4 241.7 389.3 243C394.4 243.4 399.5 243.8 404.6 244.3C405.6 244.4 407.1 243.7 407.1 242.6C407.1 241.3 405.6 240.9 404.6 240.8C386.8 239 369 238 351.1 237.8C346 237.7 340.8 237.7 335.7 237.8C334.7 237.8 333.2 238.3 333.2 239.5C333.2 240.7 334.7 241.3 335.7 241.3Z" fill="white"/>
</g>
<mask id="mask41_201_664" style="mask-type:luminance" maskUnits="userSpaceOnUse" x="51" y="51" width="398" height="398">
<path d="M250 448.5C359.629 448.5 448.5 359.629 448.5 250C448.5 140.371 359.629 51.5 250 51.5C140.371 51.5 51.5 140.371 51.5 250C51.5 359.629 140.371 448.5 250 448.5Z" fill="white"/>
</mask>
<g mask="url(#mask41_201_664)">
<path d="M422.8 243.4C440.5 243.4 458.2 243.4 475.9 243.4C481 243.4 486 243.4 491.1 243.4C492.2 243.4 493.6 242.8 493.6 241.6C493.6 240.4 492.1 239.8 491.1 239.8C473.4 239.8 455.7 239.8 438 239.8C432.9 239.8 427.9 239.8 422.8 239.8C421.7 239.8 420.3 240.4 420.3 241.6C420.3 242.9 421.8 243.4 422.8 243.4Z" fill="white"/>
</g>
<mask id="mask42_201_664" style="mask-type:luminance" maskUnits="userSpaceOnUse" x="51" y="51" width="398" height="398">
<path d="M250 448.5C359.629 448.5 448.5 359.629 448.5 250C448.5 140.371 359.629 51.5 250 51.5C140.371 51.5 51.5 140.371 51.5 250C51.5 359.629 140.371 448.5 250 448.5Z" fill="white"/>
</mask>
<g mask="url(#mask42_201_664)">
<path d="M44 248.4C65.4 248.7 86.8 249.1 108.2 249.4C114.3 249.5 120.4 249.6 126.4 249.7C127.2 249.7 128.2 249.3 127.6 248.4C127 247.5 125.3 247.3 124.4 247.3C103 247 81.6 246.6 60.2 246.3C54.1 246.2 48 246.1 42 246C41.2 246 40.2 246.4 40.8 247.3C41.4 248.2 43 248.4 44 248.4Z" fill="white"/>
</g>
<mask id="mask43_201_664" style="mask-type:luminance" maskUnits="userSpaceOnUse" x="51" y="51" width="398" height="398">
<path d="M250 448.5C359.629 448.5 448.5 359.629 448.5 250C448.5 140.371 359.629 51.5 250 51.5C140.371 51.5 51.5 140.371 51.5 250C51.5 359.629 140.371 448.5 250 448.5Z" fill="white"/>
</mask>
<g mask="url(#mask43_201_664)">
<path d="M156.2 249.6C182.2 251.9 208.2 253.2 234.3 253.3C241.6 253.3 249 253.3 256.3 253.2C257.5 253.2 258.7 253 259.8 252.6C260.5 252.4 260.7 252.1 259.7 252.2C233.9 252.6 208 252 182.2 250.3C174.9 249.8 167.7 249.3 160.4 248.6C159.3 248.5 158.1 248.8 157 249C156.7 249.1 155.2 249.6 156.2 249.6Z" fill="white"/>
</g>
<mask id="mask44_201_664" style="mask-type:luminance" maskUnits="userSpaceOnUse" x="51" y="51" width="398" height="398">
<path d="M250 448.5C359.629 448.5 448.5 359.629 448.5 250C448.5 140.371 359.629 51.5 250 51.5C140.371 51.5 51.5 140.371 51.5 250C51.5 359.629 140.371 448.5 250 448.5Z" fill="white"/>
</mask>
<g mask="url(#mask44_201_664)">
<path d="M277.8 255.8C308 257.7 338.3 258.3 368.5 257.6C377 257.4 385.6 257.1 394.1 256.7C394.9 256.7 394 255.1 393.9 254.8C393.6 254.3 392.7 252.4 391.9 252.4C361.7 253.9 331.4 254 301.1 252.8C292.6 252.5 284 252 275.5 251.5C274.7 251.5 275.6 253.2 275.7 253.4C276.1 253.9 277 255.7 277.8 255.8Z" fill="white"/>
</g>
<mask id="mask45_201_664" style="mask-type:luminance" maskUnits="userSpaceOnUse" x="51" y="51" width="398" height="398">
<path d="M250 448.5C359.629 448.5 448.5 359.629 448.5 250C448.5 140.371 359.629 51.5 250 51.5C140.371 51.5 51.5 140.371 51.5 250C51.5 359.629 140.371 448.5 250 448.5Z" fill="white"/>
</mask>
<g mask="url(#mask45_201_664)">
<path d="M413.4 258.1C434.2 260.7 455.2 261.5 476.2 260.3C477.4 260.2 478.6 259.4 478.5 258C478.4 256.7 477.1 255.8 475.8 255.8C455.3 257 434.7 256.3 414.4 253.8C413.2 253.6 411.8 254 411.5 255.4C411.2 256.6 412.2 258 413.4 258.1Z" fill="white"/>
</g>
<mask id="mask46_201_664" style="mask-type:luminance" maskUnits="userSpaceOnUse" x="51" y="51" width="398" height="398">
<path d="M250 448.5C359.629 448.5 448.5 359.629 448.5 250C448.5 140.371 359.629 51.5 250 51.5C140.371 51.5 51.5 140.371 51.5 250C51.5 359.629 140.371 448.5 250 448.5Z" fill="white"/>
</mask>
<g mask="url(#mask46_201_664)">
<path d="M56 268.9C84.9 269.4 113.8 269.9 142.7 270.3C150.8 270.4 159 270.6 167.1 270.7C167.6 270.7 169.6 270.7 169.6 269.9C169.6 269.1 167.5 269 167.1 269C138.2 268.5 109.3 268 80.4 267.6C72.3 267.5 64.1 267.3 56 267.2C55.5 267.2 53.5 267.2 53.5 268C53.5 268.8 55.6 268.9 56 268.9Z" fill="white"/>
</g>
<mask id="mask47_201_664" style="mask-type:luminance" maskUnits="userSpaceOnUse" x="51" y="51" width="398" height="398">
<path d="M250 448.5C359.629 448.5 448.5 359.629 448.5 250C448.5 140.371 359.629 51.5 250 51.5C140.371 51.5 51.5 140.371 51.5 250C51.5 359.629 140.371 448.5 250 448.5Z" fill="white"/>
</mask>
<g mask="url(#mask47_201_664)">
<path d="M203.6 271.7C217 272.2 230.4 272.4 243.8 272.2C244.7 272.2 243.6 270.4 243.4 270.2C242.9 269.5 241.9 268.3 240.9 268.3C227.5 268.5 214.1 268.3 200.7 267.8C199.8 267.8 200.9 269.6 201.1 269.8C201.6 270.6 202.6 271.7 203.6 271.7Z" fill="white"/>
</g>
<mask id="mask48_201_664" style="mask-type:luminance" maskUnits="userSpaceOnUse" x="51" y="51" width="398" height="398">
<path d="M250 448.5C359.629 448.5 448.5 359.629 448.5 250C448.5 140.371 359.629 51.5 250 51.5C140.371 51.5 51.5 140.371 51.5 250C51.5 359.629 140.371 448.5 250 448.5Z" fill="white"/>
</mask>
<g mask="url(#mask48_201_664)">
<path d="M261.6 275.1C284.9 276.5 308.2 277.1 331.5 276.9C338.1 276.8 344.7 276.7 351.3 276.6C354.4 276.5 354.6 272 351.4 272.1C328.1 272.7 304.8 272.6 281.5 271.6C274.9 271.3 268.3 271 261.7 270.6C260.5 270.5 259.2 271.7 259.2 272.9C259.1 274.4 260.3 275.1 261.6 275.1Z" fill="white"/>
</g>
<mask id="mask49_201_664" style="mask-type:luminance" maskUnits="userSpaceOnUse" x="51" y="51" width="398" height="398">
<path d="M250 448.5C359.629 448.5 448.5 359.629 448.5 250C448.5 140.371 359.629 51.5 250 51.5C140.371 51.5 51.5 140.371 51.5 250C51.5 359.629 140.371 448.5 250 448.5Z" fill="white"/>
</mask>
<g mask="url(#mask49_201_664)">
<path d="M381.2 278.2C405.5 278.6 429.8 278.6 454.1 278.2C460.9 278.1 467.8 278 474.6 277.8C475.8 277.8 476.6 276.5 476.2 275.4C475.8 274.1 474.5 273.4 473.3 273.4C449 274 424.7 274.2 400.4 274C393.6 274 386.7 273.9 379.9 273.8C378.7 273.8 378 275.2 378.3 276.2C378.7 277.5 379.9 278.1 381.2 278.2Z" fill="white"/>
</g>
<mask id="mask50_201_664" style="mask-type:luminance" maskUnits="userSpaceOnUse" x="51" y="51" width="398" height="398">
<path d="M250 448.5C359.629 448.5 448.5 359.629 448.5 250C448.5 140.371 359.629 51.5 250 51.5C140.371 51.5 51.5 140.371 51.5 250C51.5 359.629 140.371 448.5 250 448.5Z" fill="white"/>
</mask>
<g mask="url(#mask50_201_664)">
<path d="M44.8 283.3C65.8 283.3 86.7 283.3 107.7 283.3C113.7 283.3 119.7 283.3 125.7 283.3C126.8 283.3 125.9 281.4 125.7 281C125.1 280.1 124.2 279.2 123.1 279.2C102.1 279.2 81.2 279.2 60.2 279.2C54.2 279.2 48.2 279.2 42.2 279.2C41.1 279.2 42 281.1 42.2 281.5C42.8 282.4 43.7 283.3 44.8 283.3Z" fill="white"/>
</g>
<mask id="mask51_201_664" style="mask-type:luminance" maskUnits="userSpaceOnUse" x="51" y="51" width="398" height="398">
<path d="M250 448.5C359.629 448.5 448.5 359.629 448.5 250C448.5 140.371 359.629 51.5 250 51.5C140.371 51.5 51.5 140.371 51.5 250C51.5 359.629 140.371 448.5 250 448.5Z" fill="white"/>
</mask>
<g mask="url(#mask51_201_664)">
<path d="M156.9 284.9C174.6 285.7 192.4 286 210.1 285.8C212.5 285.8 210.9 281 208.8 281.1C191.1 281.3 173.3 281 155.6 280.2C153.2 280 154.7 284.8 156.9 284.9Z" fill="white"/>
</g>
<mask id="mask52_201_664" style="mask-type:luminance" maskUnits="userSpaceOnUse" x="51" y="51" width="398" height="398">
<path d="M250 448.5C359.629 448.5 448.5 359.629 448.5 250C448.5 140.371 359.629 51.5 250 51.5C140.371 51.5 51.5 140.371 51.5 250C51.5 359.629 140.371 448.5 250 448.5Z" fill="white"/>
</mask>
<g mask="url(#mask52_201_664)">
<path d="M231.7 286C262.2 288.4 292.8 289.6 323.4 289.7C332 289.7 340.7 289.6 349.3 289.5C350.1 289.5 351.8 289.2 351.8 288.1C351.8 287 350 286.8 349.3 286.8C319 287.4 288.7 286.8 258.5 285.1C250 284.6 241.6 284 233.1 283.4C232.2 283.3 230.5 283.3 230 284.4C229.5 285.4 231 285.9 231.7 286Z" fill="white"/>
</g>
<mask id="mask53_201_664" style="mask-type:luminance" maskUnits="userSpaceOnUse" x="51" y="51" width="398" height="398">
<path d="M250 448.5C359.629 448.5 448.5 359.629 448.5 250C448.5 140.371 359.629 51.5 250 51.5C140.371 51.5 51.5 140.371 51.5 250C51.5 359.629 140.371 448.5 250 448.5Z" fill="white"/>
</mask>
<g mask="url(#mask53_201_664)">
<path d="M368.6 290.4C385.5 290.8 402.4 291.1 419.4 291.2C436.4 291.3 453.4 291.3 470.4 291.1C479.9 291 489.5 290.9 499 290.7C500.1 290.7 501.3 290.3 502.3 290C502.5 289.9 504 289.3 503.1 289.3C486.2 289.6 469.2 289.8 452.3 289.9C435.3 289.9 418.3 289.8 401.3 289.6C391.8 289.5 382.2 289.3 372.7 289C371.6 289 370.4 289.4 369.4 289.7C369.1 289.8 367.6 290.3 368.6 290.4Z" fill="white"/>
</g>
<mask id="mask54_201_664" style="mask-type:luminance" maskUnits="userSpaceOnUse" x="51" y="51" width="398" height="398">
<path d="M250 448.5C359.629 448.5 448.5 359.629 448.5 250C448.5 140.371 359.629 51.5 250 51.5C140.371 51.5 51.5 140.371 51.5 250C51.5 359.629 140.371 448.5 250 448.5Z" fill="white"/>
</mask>
<g mask="url(#mask54_201_664)">
<path d="M42.2 298C75 301.3 107.9 303.4 140.8 304.2C150.1 304.4 159.3 304.5 168.6 304.6C169.6 304.6 170.9 303.9 170.6 302.7C170.4 301.5 168.8 301 167.7 301C135.2 300.9 102.7 299.6 70.3 297C61.1 296.3 51.9 295.4 42.6 294.5C41.6 294.4 40.1 294.6 39.9 295.9C39.8 297.1 41.3 297.9 42.2 298Z" fill="white"/>
</g>
<mask id="mask55_201_664" style="mask-type:luminance" maskUnits="userSpaceOnUse" x="51" y="51" width="398" height="398">
<path d="M250 448.5C359.629 448.5 448.5 359.629 448.5 250C448.5 140.371 359.629 51.5 250 51.5C140.371 51.5 51.5 140.371 51.5 250C51.5 359.629 140.371 448.5 250 448.5Z" fill="white"/>
</mask>
<g mask="url(#mask55_201_664)">
<path d="M196.3 304.2C213.7 304.4 231 304.5 248.4 304.7C253.3 304.7 258.2 304.8 263.1 304.8C264 304.8 265.6 304.6 265.7 303.4C265.8 302.3 264.1 301.8 263.3 301.7C245.9 301.5 228.6 301.4 211.2 301.2C206.3 301.2 201.4 301.1 196.5 301.1C195.6 301.1 194 301.3 193.9 302.5C193.8 303.6 195.5 304.2 196.3 304.2Z" fill="white"/>
</g>
<mask id="mask56_201_664" style="mask-type:luminance" maskUnits="userSpaceOnUse" x="51" y="51" width="398" height="398">
<path d="M250 448.5C359.629 448.5 448.5 359.629 448.5 250C448.5 140.371 359.629 51.5 250 51.5C140.371 51.5 51.5 140.371 51.5 250C51.5 359.629 140.371 448.5 250 448.5Z" fill="white"/>
</mask>
<g mask="url(#mask56_201_664)">
<path d="M295.5 305.4C318.5 305.4 341.5 305.4 364.4 305.4C387.3 305.4 410.2 305.4 433.1 305.4C446 305.4 458.9 305.4 471.8 305.4C472.6 305.4 471.8 303.8 471.7 303.5C471.4 303 470.6 301.1 469.8 301.1C446.8 301.1 423.8 301.1 400.9 301.1C378 301.1 355.1 301.1 332.2 301.1C319.3 301.1 306.4 301.1 293.5 301.1C292.7 301.1 293.5 302.7 293.6 303C293.8 303.5 294.7 305.4 295.5 305.4Z" fill="white"/>
</g>
<mask id="mask57_201_664" style="mask-type:luminance" maskUnits="userSpaceOnUse" x="51" y="51" width="398" height="398">
<path d="M250 448.5C359.629 448.5 448.5 359.629 448.5 250C448.5 140.371 359.629 51.5 250 51.5C140.371 51.5 51.5 140.371 51.5 250C51.5 359.629 140.371 448.5 250 448.5Z" fill="white"/>
</mask>
<g mask="url(#mask57_201_664)">
<path d="M54.6 313.2C73.7 314.3 92.9 315.2 112 315.7C113.1 315.7 114.3 315.3 115.3 314.8C115.6 314.6 116.9 313.7 115.9 313.7C96.8 313.2 77.6 312.3 58.5 311.2C57.4 311.1 56.2 311.6 55.2 312.1C54.9 312.3 53.6 313.1 54.6 313.2Z" fill="white"/>
</g>
<mask id="mask58_201_664" style="mask-type:luminance" maskUnits="userSpaceOnUse" x="51" y="51" width="398" height="398">
<path d="M250 448.5C359.629 448.5 448.5 359.629 448.5 250C448.5 140.371 359.629 51.5 250 51.5C140.371 51.5 51.5 140.371 51.5 250C51.5 359.629 140.371 448.5 250 448.5Z" fill="white"/>
</mask>
<g mask="url(#mask58_201_664)">
<path d="M139.8 318.1C162.4 319.2 185.1 319.8 207.8 320C214.2 320.1 220.6 320.1 227 320.1C230.1 320.1 228.9 315.7 226.4 315.7C203.7 315.7 181.1 315.4 158.4 314.5C152 314.3 145.6 314 139.2 313.7C136.1 313.5 137.3 318 139.8 318.1Z" fill="white"/>
</g>
<mask id="mask59_201_664" style="mask-type:luminance" maskUnits="userSpaceOnUse" x="51" y="51" width="398" height="398">
<path d="M250 448.5C359.629 448.5 448.5 359.629 448.5 250C448.5 140.371 359.629 51.5 250 51.5C140.371 51.5 51.5 140.371 51.5 250C51.5 359.629 140.371 448.5 250 448.5Z" fill="white"/>
</mask>
<g mask="url(#mask59_201_664)">
<path d="M243.6 320.4C265.1 321.5 286.6 322 308.1 322C314.2 322 320.4 321.9 326.5 321.8C327.7 321.8 327.4 320.4 327 319.7C326.4 318.7 325.2 318 324 318C302.7 318.4 281.4 318.2 260.2 317.4C254.2 317.2 248.1 316.9 242.1 316.6C239.1 316.6 241.8 320.4 243.6 320.4Z" fill="white"/>
</g>
<mask id="mask60_201_664" style="mask-type:luminance" maskUnits="userSpaceOnUse" x="51" y="51" width="398" height="398">
<path d="M250 448.5C359.629 448.5 448.5 359.629 448.5 250C448.5 140.371 359.629 51.5 250 51.5C140.371 51.5 51.5 140.371 51.5 250C51.5 359.629 140.371 448.5 250 448.5Z" fill="white"/>
</mask>
<g mask="url(#mask60_201_664)">
<path d="M345 321.3C370.5 320.7 396.1 320.9 421.6 322.1C428.8 322.4 436 322.8 443.2 323.3C444.1 323.4 444.1 323 443.4 322.6C442.4 322.1 441.1 321.8 440 321.8C414.3 320.1 388.6 319.4 362.8 319.5C355.5 319.5 348.2 319.7 341 319.8C339.9 319.8 341.5 320.6 341.7 320.7C342.7 321.1 343.9 321.3 345 321.3Z" fill="white"/>
</g>
<mask id="mask61_201_664" style="mask-type:luminance" maskUnits="userSpaceOnUse" x="51" y="51" width="398" height="398">
<path d="M250 448.5C359.629 448.5 448.5 359.629 448.5 250C448.5 140.371 359.629 51.5 250 51.5C140.371 51.5 51.5 140.371 51.5 250C51.5 359.629 140.371 448.5 250 448.5Z" fill="white"/>
</mask>
<g mask="url(#mask61_201_664)">
<path d="M52.2 325C76.7 325.5 101.1 326.5 125.6 327.9C132.6 328.3 139.5 328.7 146.5 329.2C147.6 329.3 148.8 329 149.9 328.6C150.2 328.5 151.7 327.8 150.6 327.7C125.9 326 101.2 324.8 76.5 324C69.5 323.8 62.5 323.6 55.6 323.4C54.5 323.4 53.2 323.7 52.2 324.2C51.3 324.7 51.3 325 52.2 325Z" fill="white"/>
</g>
<mask id="mask62_201_664" style="mask-type:luminance" maskUnits="userSpaceOnUse" x="51" y="51" width="398" height="398">
<path d="M250 448.5C359.629 448.5 448.5 359.629 448.5 250C448.5 140.371 359.629 51.5 250 51.5C140.371 51.5 51.5 140.371 51.5 250C51.5 359.629 140.371 448.5 250 448.5Z" fill="white"/>
</mask>
<g mask="url(#mask62_201_664)">
<path d="M174.3 332.4C190.9 333.9 207.5 334.8 224.1 335.2C228.9 335.3 233.7 335.4 238.4 335.4C239.3 335.4 237.4 331.2 236.1 331.1C219.5 331 202.8 330.4 186.2 329.2C181.4 328.9 176.7 328.5 171.9 328.1C171 328 171.9 329.8 172.1 330.1C172.6 330.8 173.4 332.3 174.3 332.4Z" fill="white"/>
</g>
<mask id="mask63_201_664" style="mask-type:luminance" maskUnits="userSpaceOnUse" x="51" y="51" width="398" height="398">
<path d="M250 448.5C359.629 448.5 448.5 359.629 448.5 250C448.5 140.371 359.629 51.5 250 51.5C140.371 51.5 51.5 140.371 51.5 250C51.5 359.629 140.371 448.5 250 448.5Z" fill="white"/>
</mask>
<g mask="url(#mask63_201_664)">
<path d="M262.2 335.3C288.5 335.6 314.8 335.8 341.2 335.9C367.4 336 393.5 336.1 419.7 336C434.5 336 449.4 335.9 464.2 335.8C464.8 335.8 466.4 335.6 466 334.7C465.7 333.8 463.7 333.7 463 333.7C436.7 333.9 410.4 333.9 384 333.9C357.8 333.9 331.7 333.8 305.5 333.6C290.7 333.5 275.8 333.3 261 333.2C260.4 333.2 258.8 333.4 259.2 334.3C259.5 335.2 261.5 335.3 262.2 335.3Z" fill="white"/>
</g>
<mask id="mask64_201_664" style="mask-type:luminance" maskUnits="userSpaceOnUse" x="51" y="51" width="398" height="398">
<path d="M250 448.5C359.629 448.5 448.5 359.629 448.5 250C448.5 140.371 359.629 51.5 250 51.5C140.371 51.5 51.5 140.371 51.5 250C51.5 359.629 140.371 448.5 250 448.5Z" fill="white"/>
</mask>
<g mask="url(#mask64_201_664)">
<path d="M208.5 348.4C235.2 348.3 261.9 348.7 288.6 349.6C296.2 349.9 303.8 350.2 311.5 350.5C312.8 350.6 314.1 349.7 314.2 348.4C314.3 347.1 313.2 346.1 312 346C285.3 344.8 258.7 344.1 232 343.9C224.4 343.9 216.7 343.8 209.1 343.9C207.8 343.9 206.5 344.7 206.4 346C206.2 347.3 207.3 348.4 208.5 348.4Z" fill="white"/>
</g>
<mask id="mask65_201_664" style="mask-type:luminance" maskUnits="userSpaceOnUse" x="51" y="51" width="398" height="398">
<path d="M250 448.5C359.629 448.5 448.5 359.629 448.5 250C448.5 140.371 359.629 51.5 250 51.5C140.371 51.5 51.5 140.371 51.5 250C51.5 359.629 140.371 448.5 250 448.5Z" fill="white"/>
</mask>
<g mask="url(#mask65_201_664)">
<path d="M340.4 348.9C357.9 349.7 375.4 350.4 393 350.9C410.4 351.4 427.9 351.7 445.4 351.9C455.3 352 465.2 352 475.1 352C476.2 352 475.8 350.9 475.4 350.3C474.8 349.5 473.6 348.3 472.6 348.3C455.1 348.3 437.5 348.2 420 347.9C402.5 347.6 385.1 347.1 367.7 346.4C357.8 346 347.9 345.6 338.1 345.1C337 345 337.4 346.2 337.8 346.8C338.1 347.8 339.3 348.8 340.4 348.9Z" fill="white"/>
</g>
<mask id="mask66_201_664" style="mask-type:luminance" maskUnits="userSpaceOnUse" x="51" y="51" width="398" height="398">
<path d="M250 448.5C359.629 448.5 448.5 359.629 448.5 250C448.5 140.371 359.629 51.5 250 51.5C140.371 51.5 51.5 140.371 51.5 250C51.5 359.629 140.371 448.5 250 448.5Z" fill="white"/>
</mask>
<g mask="url(#mask66_201_664)">
<path d="M57.1 343.5C75.3 345.7 93.5 347.4 111.8 348.7C130.2 350 148.5 350.8 166.9 351.2C177.2 351.4 187.5 351.5 197.8 351.4C197.8 351.4 196.5 349.5 196.4 349.3C196.1 348.9 195.2 347.5 194.6 347.5C176.3 347.6 158 347.3 139.7 346.5C121.3 345.7 102.9 344.5 84.6 342.8C74.3 341.9 64.1 340.8 53.8 339.5C53.7 339.5 54.2 340.3 54.1 340.2C54.4 340.7 54.8 341.2 55.2 341.6C55.7 342.2 56.4 343.5 57.1 343.5Z" fill="white"/>
</g>
<mask id="mask67_201_664" style="mask-type:luminance" maskUnits="userSpaceOnUse" x="51" y="51" width="398" height="398">
<path d="M250 448.5C359.629 448.5 448.5 359.629 448.5 250C448.5 140.371 359.629 51.5 250 51.5C140.371 51.5 51.5 140.371 51.5 250C51.5 359.629 140.371 448.5 250 448.5Z" fill="white"/>
</mask>
<g mask="url(#mask67_201_664)">
<path d="M70.9 362C90.2 362.6 109.5 363.3 128.8 363.9C134.3 364.1 139.8 364.3 145.3 364.4C146.9 364.5 144.9 360 143.3 360C124 359.4 104.7 358.7 85.4 358.1C79.9 357.9 74.4 357.7 68.9 357.6C67.3 357.5 69.3 362 70.9 362Z" fill="white"/>
</g>
<mask id="mask68_201_664" style="mask-type:luminance" maskUnits="userSpaceOnUse" x="51" y="51" width="398" height="398">
<path d="M250 448.5C359.629 448.5 448.5 359.629 448.5 250C448.5 140.371 359.629 51.5 250 51.5C140.371 51.5 51.5 140.371 51.5 250C51.5 359.629 140.371 448.5 250 448.5Z" fill="white"/>
</mask>
<g mask="url(#mask68_201_664)">
<path d="M164.6 364.6C184.9 364.5 205.1 364.4 225.4 364.3C231.2 364.3 237 364.2 242.8 364.2C243.9 364.2 245.1 363.3 245.8 362.5C246.2 362.1 247 361 245.9 361C225.6 361.1 205.4 361.2 185.1 361.3C179.3 361.3 173.5 361.4 167.7 361.4C166.6 361.4 165.4 362.3 164.7 363.1C164.3 363.6 163.5 364.6 164.6 364.6Z" fill="white"/>
</g>
<mask id="mask69_201_664" style="mask-type:luminance" maskUnits="userSpaceOnUse" x="51" y="51" width="398" height="398">
<path d="M250 448.5C359.629 448.5 448.5 359.629 448.5 250C448.5 140.371 359.629 51.5 250 51.5C140.371 51.5 51.5 140.371 51.5 250C51.5 359.629 140.371 448.5 250 448.5Z" fill="white"/>
</mask>
<g mask="url(#mask69_201_664)">
<path d="M263.8 367.5C287 367.7 310.2 367.9 333.4 368.1C356.5 368.3 379.6 368.5 402.7 368.7C415.7 368.8 428.8 368.9 441.8 369.1C442.8 369.1 444.2 368.6 444 367.3C443.9 366.1 442.4 365.3 441.3 365.3C418.1 365.1 394.9 364.9 371.7 364.7C348.6 364.5 325.5 364.3 302.4 364.1C289.4 364 276.3 363.9 263.3 363.7C262.3 363.7 260.9 364.2 261.1 365.5C261.2 366.7 262.7 367.5 263.8 367.5Z" fill="white"/>
</g>
<mask id="mask70_201_664" style="mask-type:luminance" maskUnits="userSpaceOnUse" x="51" y="51" width="398" height="398">
<path d="M250 448.5C359.629 448.5 448.5 359.629 448.5 250C448.5 140.371 359.629 51.5 250 51.5C140.371 51.5 51.5 140.371 51.5 250C51.5 359.629 140.371 448.5 250 448.5Z" fill="white"/>
</mask>
<g mask="url(#mask70_201_664)">
<path d="M83.6 378C98.9 378.8 114.1 379.5 129.4 380.3C130.2 380.3 131.9 380 131.9 378.9C131.9 377.8 130.1 377.7 129.4 377.6C114.1 376.8 98.9 376.1 83.6 375.3C82.8 375.3 81.1 375.6 81.1 376.7C81.1 377.9 82.9 378 83.6 378Z" fill="white"/>
</g>
<mask id="mask71_201_664" style="mask-type:luminance" maskUnits="userSpaceOnUse" x="51" y="51" width="398" height="398">
<path d="M250 448.5C359.629 448.5 448.5 359.629 448.5 250C448.5 140.371 359.629 51.5 250 51.5C140.371 51.5 51.5 140.371 51.5 250C51.5 359.629 140.371 448.5 250 448.5Z" fill="white"/>
</mask>
<g mask="url(#mask71_201_664)">
<path d="M146.9 381C167.4 380.7 188 380.8 208.5 381.3C214.3 381.4 220.1 381.6 225.9 381.8C226.9 381.8 228.2 381.1 228.1 379.9C227.9 378.7 226.5 378 225.4 378C204.9 377.4 184.3 377.1 163.8 377.1C158 377.1 152.2 377.2 146.4 377.2C145.4 377.2 144 377.8 144.2 379.1C144.3 380.3 145.8 381 146.9 381Z" fill="white"/>
</g>
<mask id="mask72_201_664" style="mask-type:luminance" maskUnits="userSpaceOnUse" x="51" y="51" width="398" height="398">
<path d="M250 448.5C359.629 448.5 448.5 359.629 448.5 250C448.5 140.371 359.629 51.5 250 51.5C140.371 51.5 51.5 140.371 51.5 250C51.5 359.629 140.371 448.5 250 448.5Z" fill="white"/>
</mask>
<g mask="url(#mask72_201_664)">
<path d="M242.3 381.2C262.8 381.3 283.3 381.8 303.7 382.7C304.6 382.7 306.3 382.5 306.6 381.5C306.9 380.5 305.3 380.2 304.7 380.2C284.2 379.3 263.8 378.8 243.3 378.7C242.4 378.7 240.7 378.9 240.4 379.9C240.1 380.9 241.7 381.2 242.3 381.2Z" fill="white"/>
</g>
<mask id="mask73_201_664" style="mask-type:luminance" maskUnits="userSpaceOnUse" x="51" y="51" width="398" height="398">
<path d="M250 448.5C359.629 448.5 448.5 359.629 448.5 250C448.5 140.371 359.629 51.5 250 51.5C140.371 51.5 51.5 140.371 51.5 250C51.5 359.629 140.371 448.5 250 448.5Z" fill="white"/>
</mask>
<g mask="url(#mask73_201_664)">
<path d="M321.2 382.8C351.3 385.1 381.5 386.6 411.6 387.4C420.1 387.6 428.5 387.8 437 387.9C437.8 387.9 438.9 387.6 438.4 386.6C437.9 385.7 436.3 385.1 435.3 385.1C405.1 384.7 374.9 383.6 344.8 381.8C336.4 381.3 327.9 380.7 319.5 380.1C318.7 380 317.6 380.4 318.1 381.4C318.6 382.2 320.2 382.7 321.2 382.8Z" fill="white"/>
</g>
<mask id="mask74_201_664" style="mask-type:luminance" maskUnits="userSpaceOnUse" x="51" y="51" width="398" height="398">
<path d="M250 448.5C359.629 448.5 448.5 359.629 448.5 250C448.5 140.371 359.629 51.5 250 51.5C140.371 51.5 51.5 140.371 51.5 250C51.5 359.629 140.371 448.5 250 448.5Z" fill="white"/>
</mask>
<g mask="url(#mask74_201_664)">
<path d="M93.7 397.1C112.8 397 131.8 396.9 150.9 396.8C156.4 396.8 161.8 396.7 167.3 396.7C170.5 396.7 169.3 392.1 166.5 392.1C147.4 392.2 128.4 392.3 109.3 392.4C103.8 392.4 98.4 392.5 92.9 392.5C89.8 392.6 91 397.1 93.7 397.1Z" fill="white"/>
</g>
<mask id="mask75_201_664" style="mask-type:luminance" maskUnits="userSpaceOnUse" x="51" y="51" width="398" height="398">
<path d="M250 448.5C359.629 448.5 448.5 359.629 448.5 250C448.5 140.371 359.629 51.5 250 51.5C140.371 51.5 51.5 140.371 51.5 250C51.5 359.629 140.371 448.5 250 448.5Z" fill="white"/>
</mask>
<g mask="url(#mask75_201_664)">
<path d="M192.7 398.1C211.6 398.5 230.4 398.6 249.3 398.4C254.7 398.3 260.1 398.3 265.5 398.2C266.7 398.2 267.7 397.3 267.5 396C267.3 394.8 265.9 393.9 264.7 393.9C245.8 394.3 227 394.3 208.1 394.1C202.7 394 197.3 393.9 191.9 393.8C190.7 393.8 189.7 394.8 189.9 396C190.2 397.3 191.5 398.1 192.7 398.1Z" fill="white"/>
</g>
<mask id="mask76_201_664" style="mask-type:luminance" maskUnits="userSpaceOnUse" x="51" y="51" width="398" height="398">
<path d="M250 448.5C359.629 448.5 448.5 359.629 448.5 250C448.5 140.371 359.629 51.5 250 51.5C140.371 51.5 51.5 140.371 51.5 250C51.5 359.629 140.371 448.5 250 448.5Z" fill="white"/>
</mask>
<g mask="url(#mask76_201_664)">
<path d="M277.5 397.7C302.6 398.2 327.7 398.5 352.7 398.6C359.8 398.6 367 398.6 374.1 398.6C375 398.6 376.7 398.5 377.1 397.5C377.5 396.5 375.9 396.1 375.2 396.1C350.1 396.1 325 396 300 395.6C292.9 395.5 285.7 395.4 278.6 395.2C277.7 395.2 276 395.3 275.6 396.3C275.2 397.3 276.8 397.7 277.5 397.7Z" fill="white"/>
</g>
<mask id="mask77_201_664" style="mask-type:luminance" maskUnits="userSpaceOnUse" x="51" y="51" width="398" height="398">
<path d="M250 448.5C359.629 448.5 448.5 359.629 448.5 250C448.5 140.371 359.629 51.5 250 51.5C140.371 51.5 51.5 140.371 51.5 250C51.5 359.629 140.371 448.5 250 448.5Z" fill="white"/>
</mask>
<g mask="url(#mask77_201_664)">
<path d="M120.2 411.8C141.1 412.1 161.9 413 182.7 414.5C188.6 414.9 194.6 415.4 200.5 415.9C201.5 416 202.6 415.3 203.4 414.8C203.5 414.7 205.2 413.3 204.5 413.2C183.5 411.4 162.5 410.1 141.4 409.5C135.5 409.3 129.5 409.2 123.6 409.1C122.6 409.1 121.3 410 120.5 410.6C120.2 410.8 119.2 411.8 120.2 411.8Z" fill="white"/>
</g>
<mask id="mask78_201_664" style="mask-type:luminance" maskUnits="userSpaceOnUse" x="51" y="51" width="398" height="398">
<path d="M250 448.5C359.629 448.5 448.5 359.629 448.5 250C448.5 140.371 359.629 51.5 250 51.5C140.371 51.5 51.5 140.371 51.5 250C51.5 359.629 140.371 448.5 250 448.5Z" fill="white"/>
</mask>
<g mask="url(#mask78_201_664)">
<path d="M239.2 417.8C260.5 417.1 281.8 417.2 303 418.3C309 418.6 315.1 419 321.1 419.5C324.3 419.7 323.6 415.4 320.9 415.2C299.4 413.6 277.7 412.9 256.1 413.1C250 413.2 243.8 413.3 237.7 413.5C236.5 413.5 235.8 414.8 236.2 415.9C236.7 417.1 238 417.9 239.2 417.8Z" fill="white"/>
</g>
<mask id="mask79_201_664" style="mask-type:luminance" maskUnits="userSpaceOnUse" x="51" y="51" width="398" height="398">
<path d="M250 448.5C359.629 448.5 448.5 359.629 448.5 250C448.5 140.371 359.629 51.5 250 51.5C140.371 51.5 51.5 140.371 51.5 250C51.5 359.629 140.371 448.5 250 448.5Z" fill="white"/>
</mask>
<g mask="url(#mask79_201_664)">
<path d="M341.1 416.5C359 416.4 377 416.6 394.9 417.1C400 417.3 405.2 417.4 410.3 417.6C411.2 417.6 411.2 417.2 410.5 416.8C409.5 416.2 408.2 416 407.1 415.9C389.2 415.2 371.2 414.8 353.3 414.7C348.1 414.7 343 414.7 337.8 414.7C336.9 414.7 336.8 415.1 337.6 415.5C338.6 416.2 340 416.5 341.1 416.5Z" fill="white"/>
</g>
<mask id="mask80_201_664" style="mask-type:luminance" maskUnits="userSpaceOnUse" x="51" y="51" width="398" height="398">
<path d="M250 448.5C359.629 448.5 448.5 359.629 448.5 250C448.5 140.371 359.629 51.5 250 51.5C140.371 51.5 51.5 140.371 51.5 250C51.5 359.629 140.371 448.5 250 448.5Z" fill="white"/>
</mask>
<g mask="url(#mask80_201_664)">
<path d="M135.3 428.1C156.1 428.4 177 428.8 197.8 429.1C203.7 429.2 209.6 429.3 215.5 429.4C217.4 429.4 215.5 424.9 213.7 424.9C192.9 424.6 172 424.2 151.2 423.9C145.3 423.8 139.4 423.7 133.5 423.6C131.7 423.6 133.6 428.1 135.3 428.1Z" fill="white"/>
</g>
<mask id="mask81_201_664" style="mask-type:luminance" maskUnits="userSpaceOnUse" x="51" y="51" width="398" height="398">
<path d="M250 448.5C359.629 448.5 448.5 359.629 448.5 250C448.5 140.371 359.629 51.5 250 51.5C140.371 51.5 51.5 140.371 51.5 250C51.5 359.629 140.371 448.5 250 448.5Z" fill="white"/>
</mask>
<g mask="url(#mask81_201_664)">
<path d="M235 428.6C253.4 430 271.8 431.1 290.2 431.8C295.4 432 300.6 432.2 305.8 432.4C306.9 432.4 308.1 431.8 308.9 431C309.3 430.6 310.1 429.4 309 429.3C290.6 428.7 272.2 427.8 253.8 426.6C248.6 426.3 243.4 425.9 238.2 425.5C237.1 425.4 235.8 426.2 235.1 426.9C234.6 427.4 233.8 428.6 235 428.6Z" fill="white"/>
</g>
<mask id="mask82_201_664" style="mask-type:luminance" maskUnits="userSpaceOnUse" x="51" y="51" width="398" height="398">
<path d="M250 448.5C359.629 448.5 448.5 359.629 448.5 250C448.5 140.371 359.629 51.5 250 51.5C140.371 51.5 51.5 140.371 51.5 250C51.5 359.629 140.371 448.5 250 448.5Z" fill="white"/>
</mask>
<g mask="url(#mask82_201_664)">
<path d="M319.2 432.4C334.1 432.4 348.9 432.4 363.8 432.4C364.5 432.4 366 432.3 365.8 431.2C365.6 430.2 363.7 429.8 362.9 429.8C348 429.8 333.2 429.8 318.3 429.8C317.6 429.8 316.1 429.9 316.3 431C316.5 432 318.4 432.4 319.2 432.4Z" fill="white"/>
</g>
<mask id="mask83_201_664" style="mask-type:luminance" maskUnits="userSpaceOnUse" x="51" y="51" width="398" height="398">
<path d="M250 448.5C359.629 448.5 448.5 359.629 448.5 250C448.5 140.371 359.629 51.5 250 51.5C140.371 51.5 51.5 140.371 51.5 250C51.5 359.629 140.371 448.5 250 448.5Z" fill="white"/>
</mask>
<g mask="url(#mask83_201_664)">
<path d="M182.9 444.2C203.1 445.2 223.4 446.1 243.6 447C263.8 447.9 283.9 448.8 304.1 449.6C315.5 450.1 326.8 450.5 338.2 451C338.3 451 337.4 448.8 337.3 448.6C337.1 448.2 336.5 446.5 335.9 446.5C315.7 445.7 295.4 444.9 275.2 444C255 443.1 234.9 442.2 214.7 441.3C203.3 440.8 192 440.2 180.6 439.7C180.5 439.7 181.4 441.9 181.5 442.1C181.7 442.5 182.4 444.2 182.9 444.2Z" fill="white"/>
</g>
</g>
<defs>
<clipPath id="clip0_201_664">
<rect width="500" height="500" fill="white"/>
</clipPath>
</defs>
</svg>
