<svg width="500" height="500" viewBox="0 0 500 500" fill="none" xmlns="http://www.w3.org/2000/svg">
<mask id="mask0_201_668" style="mask-type:luminance" maskUnits="userSpaceOnUse" x="51" y="51" width="398" height="398">
<path d="M250 448.5C359.629 448.5 448.5 359.629 448.5 250C448.5 140.371 359.629 51.5 250 51.5C140.371 51.5 51.5 140.371 51.5 250C51.5 359.629 140.371 448.5 250 448.5Z" fill="white"/>
</mask>
<g mask="url(#mask0_201_668)">
<path d="M97.8001 93.8999C142 92.6999 186.3 91.7999 230.5 91.1999C274.5 90.5999 318.5 90.1999 362.6 89.9999C387.4 89.8999 412.3 89.8999 437.1 89.9999C438.2 89.9999 439.2 89.0999 439 87.9999C438.8 86.7999 437.3 85.9999 436.2 85.9999C392 85.7999 347.7 85.8999 303.5 86.2999C259.5 86.6999 215.5 87.2999 171.4 88.0999C146.6 88.5999 121.7 89.1999 96.9001 89.7999C93.6001 89.8999 95.2001 93.8999 97.8001 93.8999Z" fill="white"/>
</g>
<mask id="mask1_201_668" style="mask-type:luminance" maskUnits="userSpaceOnUse" x="51" y="51" width="398" height="398">
<path d="M250 448.5C359.629 448.5 448.5 359.629 448.5 250C448.5 140.371 359.629 51.5 250 51.5C140.371 51.5 51.5 140.371 51.5 250C51.5 359.629 140.371 448.5 250 448.5Z" fill="white"/>
</mask>
<g mask="url(#mask1_201_668)">
<path d="M127.2 69.4C160.7 69.4 194.3 69.5 227.8 69.5C261.2 69.5 294.5 69.6 327.9 69.6C346.7 69.6 365.5 69.7 384.3 69.7C385.1 69.7 385.2 69.4 384.4 69.1C383.4 68.6 382.1 68.3 381 68.3C347.5 68.3 313.9 68.2 280.4 68.2C247 68.2 213.7 68.1 180.3 68.1C161.5 68.1 142.7 68 123.9 68C123.1 68 123 68.3 123.8 68.6C124.7 69 126.1 69.4 127.2 69.4Z" fill="white"/>
</g>
<mask id="mask2_201_668" style="mask-type:luminance" maskUnits="userSpaceOnUse" x="51" y="51" width="398" height="398">
<path d="M250 448.5C359.629 448.5 448.5 359.629 448.5 250C448.5 140.371 359.629 51.5 250 51.5C140.371 51.5 51.5 140.371 51.5 250C51.5 359.629 140.371 448.5 250 448.5Z" fill="white"/>
</mask>
<g mask="url(#mask2_201_668)">
<path d="M87.0001 125.1C134 124.2 181 123.2 228 122.3C274.8 121.4 321.5 120.4 368.3 119.5C394.7 119 421 118.4 447.4 117.9C449.3 117.9 446.1 114.3 444.7 114.4C397.7 115.3 350.7 116.3 303.7 117.2C256.9 118.1 210.2 119.1 163.4 120C137 120.5 110.7 121.1 84.3001 121.6C82.4001 121.6 85.6001 125.2 87.0001 125.1Z" fill="white"/>
</g>
<mask id="mask3_201_668" style="mask-type:luminance" maskUnits="userSpaceOnUse" x="51" y="51" width="398" height="398">
<path d="M250 448.5C359.629 448.5 448.5 359.629 448.5 250C448.5 140.371 359.629 51.5 250 51.5C140.371 51.5 51.5 140.371 51.5 250C51.5 359.629 140.371 448.5 250 448.5Z" fill="white"/>
</mask>
<g mask="url(#mask3_201_668)">
<path d="M54.4 154C109.2 152.7 164 151.4 218.8 150.1C273.3 148.8 327.8 147.5 382.4 146.2C413.2 145.5 443.9 144.7 474.7 144C475.7 144 477 143.3 476.7 142.1C476.5 140.9 474.9 140.4 473.8 140.4C419 141.7 364.2 143 309.4 144.3C254.9 145.6 200.4 146.9 145.8 148.2C115 148.9 84.3 149.7 53.5 150.4C52.5 150.4 51.2 151.1 51.5 152.3C51.7 153.6 53.3 154.1 54.4 154Z" fill="white"/>
</g>
<mask id="mask4_201_668" style="mask-type:luminance" maskUnits="userSpaceOnUse" x="51" y="51" width="398" height="398">
<path d="M250 448.5C359.629 448.5 448.5 359.629 448.5 250C448.5 140.371 359.629 51.5 250 51.5C140.371 51.5 51.5 140.371 51.5 250C51.5 359.629 140.371 448.5 250 448.5Z" fill="white"/>
</mask>
<g mask="url(#mask4_201_668)">
<path d="M29.5 185.9C87.7 185.7 145.8 185.5 204 185.3C261.9 185.1 319.8 184.9 377.6 184.7C410.2 184.6 442.9 184.5 475.5 184.4C476.6 184.4 477.8 184.2 478.9 183.9C479.1 183.8 480.7 183.3 479.7 183.4C421.5 183.6 363.4 183.8 305.2 184C247.3 184.2 189.4 184.4 131.6 184.6C99 184.7 66.3 184.8 33.7 184.9C32.6 184.9 31.4 185.1 30.3 185.4C30.1 185.4 28.6 185.9 29.5 185.9Z" fill="white"/>
</g>
<mask id="mask5_201_668" style="mask-type:luminance" maskUnits="userSpaceOnUse" x="51" y="51" width="398" height="398">
<path d="M250 448.5C359.629 448.5 448.5 359.629 448.5 250C448.5 140.371 359.629 51.5 250 51.5C140.371 51.5 51.5 140.371 51.5 250C51.5 359.629 140.371 448.5 250 448.5Z" fill="white"/>
</mask>
<g mask="url(#mask5_201_668)">
<path d="M49.4001 221.1C106 221.7 162.7 222.1 219.3 222.3C275.7 222.5 332 222.5 388.4 222.3C420.2 222.2 452 222 483.8 221.8C485.6 221.8 488.7 218.2 485.8 218.2C429.2 218.6 372.5 218.8 315.9 218.8C259.5 218.8 203.2 218.6 146.8 218.3C115 218.1 83.2001 217.8 51.4001 217.5C49.6001 217.5 46.5001 221 49.4001 221.1Z" fill="white"/>
</g>
<mask id="mask6_201_668" style="mask-type:luminance" maskUnits="userSpaceOnUse" x="51" y="51" width="398" height="398">
<path d="M250 448.5C359.629 448.5 448.5 359.629 448.5 250C448.5 140.371 359.629 51.5 250 51.5C140.371 51.5 51.5 140.371 51.5 250C51.5 359.629 140.371 448.5 250 448.5Z" fill="white"/>
</mask>
<g mask="url(#mask6_201_668)">
<path d="M43.4999 252.7C104.9 254 166.4 255.3 227.8 256.5C288.9 257.8 350 259 411.2 260.3C445.7 261 480.2 261.7 514.6 262.5C517.8 262.6 517.5 258.1 514.4 258.1C453 256.8 391.5 255.5 330.1 254.3C269 253 207.9 251.8 146.7 250.5C112.2 249.8 77.6999 249.1 43.2999 248.3C40.0999 248.2 40.2999 252.6 43.4999 252.7Z" fill="white"/>
</g>
<mask id="mask7_201_668" style="mask-type:luminance" maskUnits="userSpaceOnUse" x="51" y="51" width="398" height="398">
<path d="M250 448.5C359.629 448.5 448.5 359.629 448.5 250C448.5 140.371 359.629 51.5 250 51.5C140.371 51.5 51.5 140.371 51.5 250C51.5 359.629 140.371 448.5 250 448.5Z" fill="white"/>
</mask>
<g mask="url(#mask7_201_668)">
<path d="M45.6001 292.1C105.4 291.5 165.3 291.5 225.1 292.3C254.8 292.7 284.5 293.2 314.2 293.9C344 294.6 373.8 295.7 403.5 296.1C436.3 296.5 469.1 295.9 501.7 292.1C502.7 292 500.9 291.7 500.8 291.7C499.7 291.6 498.5 291.6 497.4 291.7C438.7 298.5 379.4 294.9 320.5 293.5C261.7 292.1 202.8 291.3 144 291.1C110.8 291 77.5001 291.2 44.3001 291.5C44.0001 291.5 42.4001 291.4 42.5001 291.8C42.7001 292.2 45.3001 292.1 45.6001 292.1Z" fill="white"/>
</g>
<mask id="mask8_201_668" style="mask-type:luminance" maskUnits="userSpaceOnUse" x="51" y="51" width="398" height="398">
<path d="M250 448.5C359.629 448.5 448.5 359.629 448.5 250C448.5 140.371 359.629 51.5 250 51.5C140.371 51.5 51.5 140.371 51.5 250C51.5 359.629 140.371 448.5 250 448.5Z" fill="white"/>
</mask>
<g mask="url(#mask8_201_668)">
<path d="M46.9001 328.6C104.2 327.8 161.4 326.9 218.7 326.1C275.7 325.3 332.6 324.4 389.6 323.6C421.7 323.1 453.9 322.7 486 322.2C485.8 322.2 484.8 317.8 483.7 317.8C426.4 318.6 369.2 319.5 311.9 320.3C254.9 321.1 198 322 141 322.8C108.9 323.3 76.7001 323.7 44.6001 324.2C44.7001 324.2 45.7001 328.6 46.9001 328.6Z" fill="white"/>
</g>
<mask id="mask9_201_668" style="mask-type:luminance" maskUnits="userSpaceOnUse" x="51" y="51" width="398" height="398">
<path d="M250 448.5C359.629 448.5 448.5 359.629 448.5 250C448.5 140.371 359.629 51.5 250 51.5C140.371 51.5 51.5 140.371 51.5 250C51.5 359.629 140.371 448.5 250 448.5Z" fill="white"/>
</mask>
<g mask="url(#mask9_201_668)">
<path d="M32.9999 356.8C95.4999 357.1 157.9 357.1 220.4 356.6C282.5 356.2 344.7 355.3 406.8 354.1C441.9 353.4 476.9 352.6 511.9 351.6C513.1 351.6 510.6 347.6 509.1 347.6C446.7 349.3 384.2 350.6 321.7 351.5C259.6 352.4 197.4 352.9 135.3 353C100.2 353.1 65.1999 353 30.0999 352.8C29.0999 352.8 31.4999 356.7 32.9999 356.8Z" fill="white"/>
</g>
<mask id="mask10_201_668" style="mask-type:luminance" maskUnits="userSpaceOnUse" x="51" y="51" width="398" height="398">
<path d="M250 448.5C359.629 448.5 448.5 359.629 448.5 250C448.5 140.371 359.629 51.5 250 51.5C140.371 51.5 51.5 140.371 51.5 250C51.5 359.629 140.371 448.5 250 448.5Z" fill="white"/>
</mask>
<g mask="url(#mask10_201_668)">
<path d="M78.0999 389.2C125.6 388.6 173 387.9 220.5 386.9C267.7 386 314.9 384.8 362.1 383.5C388.7 382.8 415.4 382 442 381.1C442.9 381.1 444 380.2 444.8 379.8C445 379.7 446.4 378.7 446.2 378.7C398.8 380.2 351.3 381.5 303.9 382.7C256.7 383.8 209.5 384.8 162.3 385.6C135.7 386 109 386.4 82.3999 386.7C81.4999 386.7 80.3999 387.6 79.5999 388C79.1999 388.2 77.7999 389.2 78.0999 389.2Z" fill="white"/>
</g>
<mask id="mask11_201_668" style="mask-type:luminance" maskUnits="userSpaceOnUse" x="51" y="51" width="398" height="398">
<path d="M250 448.5C359.629 448.5 448.5 359.629 448.5 250C448.5 140.371 359.629 51.5 250 51.5C140.371 51.5 51.5 140.371 51.5 250C51.5 359.629 140.371 448.5 250 448.5Z" fill="white"/>
</mask>
<g mask="url(#mask11_201_668)">
<path d="M88.9999 420.6C134.1 417.2 179.2 415.2 224.4 414.2C269.4 413.2 314.3 413.1 359.3 413.3C384.5 413.4 409.8 413.7 435 413.9C435.1 413.9 434.2 411.7 434.1 411.6C433.9 411.2 433.2 409.5 432.7 409.5C387.5 409.1 342.3 408.7 297.1 408.8C252.1 409 207.2 409.7 162.3 411.7C137.1 412.8 111.9 414.2 86.6999 416.2C86.5999 416.2 87.4999 418.4 87.5999 418.5C87.7999 418.8 88.5999 420.6 88.9999 420.6Z" fill="white"/>
</g>
<mask id="mask12_201_668" style="mask-type:luminance" maskUnits="userSpaceOnUse" x="51" y="51" width="398" height="398">
<path d="M250 448.5C359.629 448.5 448.5 359.629 448.5 250C448.5 140.371 359.629 51.5 250 51.5C140.371 51.5 51.5 140.371 51.5 250C51.5 359.629 140.371 448.5 250 448.5Z" fill="white"/>
</mask>
<g mask="url(#mask12_201_668)">
<path d="M138.2 439.7C176.1 440.3 213.9 441 251.8 441.6C289.5 442.2 327.1 442.9 364.8 443.5C386.1 443.9 407.3 444.2 428.6 444.6C429.7 444.6 430.1 443.7 429.7 442.8C429.2 441.8 427.8 441 426.7 441C388.8 440.4 351 439.7 313.1 439.1C275.4 438.5 237.8 437.8 200.1 437.2C178.8 436.8 157.6 436.5 136.3 436.1C135.2 436.1 134.8 437 135.2 437.9C135.7 438.9 137.1 439.7 138.2 439.7Z" fill="white"/>
</g>
<mask id="mask13_201_668" style="mask-type:luminance" maskUnits="userSpaceOnUse" x="51" y="51" width="398" height="398">
<path d="M250 448.5C359.629 448.5 448.5 359.629 448.5 250C448.5 140.371 359.629 51.5 250 51.5C140.371 51.5 51.5 140.371 51.5 250C51.5 359.629 140.371 448.5 250 448.5Z" fill="white"/>
</mask>
<g mask="url(#mask13_201_668)">
<path d="M224.1 67.3001C225.8 57.1001 227 46.9001 227.7 36.6001C227.8 35.4001 225.9 35.4001 225.2 35.6001C224 36.0001 223.1 36.8001 223 38.1001C222.2 48.1001 221 58.0001 219.4 67.9001C219.1 70.6001 223.8 69.4001 224.1 67.3001Z" fill="white"/>
</g>
<mask id="mask14_201_668" style="mask-type:luminance" maskUnits="userSpaceOnUse" x="51" y="51" width="398" height="398">
<path d="M250 448.5C359.629 448.5 448.5 359.629 448.5 250C448.5 140.371 359.629 51.5 250 51.5C140.371 51.5 51.5 140.371 51.5 250C51.5 359.629 140.371 448.5 250 448.5Z" fill="white"/>
</mask>
<g mask="url(#mask14_201_668)">
<path d="M292.3 68.5999C291.3 60.1999 290.3 51.8999 289.3 43.4999C289.2 42.3999 288.2 41.2999 287.3 40.6999C286.8 40.3999 285.5 39.8999 285.6 40.9999C286.6 49.3999 287.6 57.6999 288.6 66.0999C288.7 67.1999 289.7 68.2999 290.6 68.8999C291.1 69.1999 292.4 69.6999 292.3 68.5999Z" fill="white"/>
</g>
<mask id="mask15_201_668" style="mask-type:luminance" maskUnits="userSpaceOnUse" x="51" y="51" width="398" height="398">
<path d="M250 448.5C359.629 448.5 448.5 359.629 448.5 250C448.5 140.371 359.629 51.5 250 51.5C140.371 51.5 51.5 140.371 51.5 250C51.5 359.629 140.371 448.5 250 448.5Z" fill="white"/>
</mask>
<g mask="url(#mask15_201_668)">
<path d="M256.3 88.2001C256.1 81.7001 256.3 75.1001 256.9 68.6001C257.1 66.6001 252.3 68.0001 252.2 69.7001C251.6 76.2001 251.4 82.7001 251.6 89.3001C251.6 91.4001 256.3 89.9001 256.3 88.2001Z" fill="white"/>
</g>
<mask id="mask16_201_668" style="mask-type:luminance" maskUnits="userSpaceOnUse" x="51" y="51" width="398" height="398">
<path d="M250 448.5C359.629 448.5 448.5 359.629 448.5 250C448.5 140.371 359.629 51.5 250 51.5C140.371 51.5 51.5 140.371 51.5 250C51.5 359.629 140.371 448.5 250 448.5Z" fill="white"/>
</mask>
<g mask="url(#mask16_201_668)">
<path d="M177.1 90.2002C176.6 83.2002 177.1 76.2002 178.7 69.4002C178.8 69.0002 173.9 68.0002 173.8 68.6002C172.2 75.4002 171.7 82.4002 172.2 89.4002C172.2 89.9002 174.3 90.1002 174.6 90.2002C174.8 90.2002 177.1 90.5002 177.1 90.2002Z" fill="white"/>
</g>
<mask id="mask17_201_668" style="mask-type:luminance" maskUnits="userSpaceOnUse" x="51" y="51" width="398" height="398">
<path d="M250 448.5C359.629 448.5 448.5 359.629 448.5 250C448.5 140.371 359.629 51.5 250 51.5C140.371 51.5 51.5 140.371 51.5 250C51.5 359.629 140.371 448.5 250 448.5Z" fill="white"/>
</mask>
<g mask="url(#mask17_201_668)">
<path d="M336.1 87.9002C335.4 82.6002 334.9 77.3002 334.4 72.0002C334.3 70.8002 333.4 69.7002 332.4 69.2002C331.7 68.9002 330.3 68.7002 330.4 69.9002C330.9 75.2002 331.4 80.5002 332.1 85.8002C332.2 87.0002 333 88.1002 334.1 88.6002C334.7 89.0002 336.2 89.1002 336.1 87.9002Z" fill="white"/>
</g>
<mask id="mask18_201_668" style="mask-type:luminance" maskUnits="userSpaceOnUse" x="51" y="51" width="398" height="398">
<path d="M250 448.5C359.629 448.5 448.5 359.629 448.5 250C448.5 140.371 359.629 51.5 250 51.5C140.371 51.5 51.5 140.371 51.5 250C51.5 359.629 140.371 448.5 250 448.5Z" fill="white"/>
</mask>
<g mask="url(#mask18_201_668)">
<path d="M297.2 119.9C296 110 295.4 100.1 295.3 90.2C295.3 89.3 294.4 88.2 293.9 87.5C293.8 87.3 292.6 85.9 292.6 86.3C292.7 96.2 293.4 106.1 294.5 116C294.6 117 295.4 118 295.9 118.7C296 118.9 297.3 120.3 297.2 119.9Z" fill="white"/>
</g>
<mask id="mask19_201_668" style="mask-type:luminance" maskUnits="userSpaceOnUse" x="51" y="51" width="398" height="398">
<path d="M250 448.5C359.629 448.5 448.5 359.629 448.5 250C448.5 140.371 359.629 51.5 250 51.5C140.371 51.5 51.5 140.371 51.5 250C51.5 359.629 140.371 448.5 250 448.5Z" fill="white"/>
</mask>
<g mask="url(#mask19_201_668)">
<path d="M211.4 119.2C210.7 109.1 210.8 98.9999 211.6 88.8999C211.7 88.1999 210 88.8999 209.7 89.0999C209.2 89.2999 207.2 90.0999 207.1 90.8999C206.3 101.1 206.2 111.4 206.9 121.6C206.9 122.1 209.2 121.1 209.4 121C209.9 120.6 211.4 119.9 211.4 119.2Z" fill="white"/>
</g>
<mask id="mask20_201_668" style="mask-type:luminance" maskUnits="userSpaceOnUse" x="51" y="51" width="398" height="398">
<path d="M250 448.5C359.629 448.5 448.5 359.629 448.5 250C448.5 140.371 359.629 51.5 250 51.5C140.371 51.5 51.5 140.371 51.5 250C51.5 359.629 140.371 448.5 250 448.5Z" fill="white"/>
</mask>
<g mask="url(#mask20_201_668)">
<path d="M140.2 124.2C140.1 132.5 139.9 140.9 139.8 149.2C139.8 150.5 144.8 150.4 144.8 149C144.9 140.7 145.1 132.3 145.2 124C145.2 122.7 140.2 122.8 140.2 124.2Z" fill="white"/>
</g>
<mask id="mask21_201_668" style="mask-type:luminance" maskUnits="userSpaceOnUse" x="51" y="51" width="398" height="398">
<path d="M250 448.5C359.629 448.5 448.5 359.629 448.5 250C448.5 140.371 359.629 51.5 250 51.5C140.371 51.5 51.5 140.371 51.5 250C51.5 359.629 140.371 448.5 250 448.5Z" fill="white"/>
</mask>
<g mask="url(#mask21_201_668)">
<path d="M242 120.3C241.8 129.1 242.5 137.8 244.1 146.4C244.4 147.9 249.2 148.7 248.9 147C247.3 138.6 246.6 130.1 246.8 121.5C246.9 119.9 242 119 242 120.3Z" fill="white"/>
</g>
<mask id="mask22_201_668" style="mask-type:luminance" maskUnits="userSpaceOnUse" x="51" y="51" width="398" height="398">
<path d="M250 448.5C359.629 448.5 448.5 359.629 448.5 250C448.5 140.371 359.629 51.5 250 51.5C140.371 51.5 51.5 140.371 51.5 250C51.5 359.629 140.371 448.5 250 448.5Z" fill="white"/>
</mask>
<g mask="url(#mask22_201_668)">
<path d="M341.7 118.4C342.4 126.8 343.5 135.1 345.1 143.4C345.3 144.5 346.3 145.5 347.1 146.2C347.5 146.5 348.7 147.3 348.5 146.2C347 137.9 345.8 129.6 345.1 121.2C345 120.2 343.9 119 343.1 118.4C342.7 118 341.7 117.3 341.7 118.4Z" fill="white"/>
</g>
<mask id="mask23_201_668" style="mask-type:luminance" maskUnits="userSpaceOnUse" x="51" y="51" width="398" height="398">
<path d="M250 448.5C359.629 448.5 448.5 359.629 448.5 250C448.5 140.371 359.629 51.5 250 51.5C140.371 51.5 51.5 140.371 51.5 250C51.5 359.629 140.371 448.5 250 448.5Z" fill="white"/>
</mask>
<g mask="url(#mask23_201_668)">
<path d="M293.5 146.2C293 158.2 293.2 170.2 294.1 182.2C294.2 183.4 295.2 184.3 296.4 184.6C297.2 184.8 299 184.6 298.9 183.3C298 171.3 297.8 159.3 298.3 147.3C298.3 145.1 293.6 143.7 293.5 146.2Z" fill="white"/>
</g>
<mask id="mask24_201_668" style="mask-type:luminance" maskUnits="userSpaceOnUse" x="51" y="51" width="398" height="398">
<path d="M250 448.5C359.629 448.5 448.5 359.629 448.5 250C448.5 140.371 359.629 51.5 250 51.5C140.371 51.5 51.5 140.371 51.5 250C51.5 359.629 140.371 448.5 250 448.5Z" fill="white"/>
</mask>
<g mask="url(#mask24_201_668)">
<path d="M390.5 146C391.9 158.2 393.5 170.3 395.4 182.4C395.8 185.1 400.6 183.9 400.2 181.5C398.3 169.4 396.6 157.3 395.3 145.1C395.1 142.5 390.3 143.6 390.5 146Z" fill="white"/>
</g>
<mask id="mask25_201_668" style="mask-type:luminance" maskUnits="userSpaceOnUse" x="51" y="51" width="398" height="398">
<path d="M250 448.5C359.629 448.5 448.5 359.629 448.5 250C448.5 140.371 359.629 51.5 250 51.5C140.371 51.5 51.5 140.371 51.5 250C51.5 359.629 140.371 448.5 250 448.5Z" fill="white"/>
</mask>
<g mask="url(#mask25_201_668)">
<path d="M186.4 150.6C186.6 161.6 186.8 172.5 186.9 183.5C186.9 185.9 191.9 185.4 191.9 182.9C191.7 171.9 191.5 161 191.4 150C191.4 147.6 186.4 148.2 186.4 150.6Z" fill="white"/>
</g>
<mask id="mask26_201_668" style="mask-type:luminance" maskUnits="userSpaceOnUse" x="51" y="51" width="398" height="398">
<path d="M250 448.5C359.629 448.5 448.5 359.629 448.5 250C448.5 140.371 359.629 51.5 250 51.5C140.371 51.5 51.5 140.371 51.5 250C51.5 359.629 140.371 448.5 250 448.5Z" fill="white"/>
</mask>
<g mask="url(#mask26_201_668)">
<path d="M89.7 152.8C90.1 162.9 89.8 173 88.9 183.1C88.8 184.4 89.8 185.4 91 185.6C92.1 185.8 93.7 185.3 93.8 184C94.8 173.5 95 163 94.7 152.5C94.6 149.9 89.6 149.9 89.7 152.8Z" fill="white"/>
</g>
<mask id="mask27_201_668" style="mask-type:luminance" maskUnits="userSpaceOnUse" x="51" y="51" width="398" height="398">
<path d="M250 448.5C359.629 448.5 448.5 359.629 448.5 250C448.5 140.371 359.629 51.5 250 51.5C140.371 51.5 51.5 140.371 51.5 250C51.5 359.629 140.371 448.5 250 448.5Z" fill="white"/>
</mask>
<g mask="url(#mask27_201_668)">
<path d="M136.3 184.6C135.6 196.3 135.5 208.1 135.9 219.8C135.9 220.9 137.1 221.8 138.1 222.1C138.7 222.3 140.5 222.7 140.4 221.5C140 209.8 140.1 198 140.8 186.3C140.9 184.6 136.4 182.6 136.3 184.6Z" fill="white"/>
</g>
<mask id="mask28_201_668" style="mask-type:luminance" maskUnits="userSpaceOnUse" x="51" y="51" width="398" height="398">
<path d="M250 448.5C359.629 448.5 448.5 359.629 448.5 250C448.5 140.371 359.629 51.5 250 51.5C140.371 51.5 51.5 140.371 51.5 250C51.5 359.629 140.371 448.5 250 448.5Z" fill="white"/>
</mask>
<g mask="url(#mask28_201_668)">
<path d="M250.5 185C250.3 196.2 250.3 207.4 250.7 218.7C250.7 219.8 251.4 221.2 252.2 221.9C252.9 222.5 253.5 222.3 253.5 221.3C253.1 210.1 253 198.9 253.3 187.6C253.3 186.5 252.6 185.1 251.8 184.4C251.1 183.7 250.6 184.1 250.5 185Z" fill="white"/>
</g>
<mask id="mask29_201_668" style="mask-type:luminance" maskUnits="userSpaceOnUse" x="51" y="51" width="398" height="398">
<path d="M250 448.5C359.629 448.5 448.5 359.629 448.5 250C448.5 140.371 359.629 51.5 250 51.5C140.371 51.5 51.5 140.371 51.5 250C51.5 359.629 140.371 448.5 250 448.5Z" fill="white"/>
</mask>
<g mask="url(#mask29_201_668)">
<path d="M346.4 185.6C348.6 197.4 349.7 209.3 349.8 221.2C349.8 223.5 354.6 222.2 354.6 220.3C354.5 208.1 353.3 195.9 351.1 183.9C350.9 182.8 348.9 183.1 348.2 183.4C347.3 183.6 346.2 184.4 346.4 185.6Z" fill="white"/>
</g>
<mask id="mask30_201_668" style="mask-type:luminance" maskUnits="userSpaceOnUse" x="51" y="51" width="398" height="398">
<path d="M250 448.5C359.629 448.5 448.5 359.629 448.5 250C448.5 140.371 359.629 51.5 250 51.5C140.371 51.5 51.5 140.371 51.5 250C51.5 359.629 140.371 448.5 250 448.5Z" fill="white"/>
</mask>
<g mask="url(#mask30_201_668)">
<path d="M301.7 219.8C301.2 231.1 301.4 242.4 302.3 253.6C302.4 254.8 303.2 256.1 304.5 256.3C305.7 256.5 306.4 255.4 306.3 254.3C305.4 243.4 305.2 232.5 305.6 221.6C305.7 220.4 305.2 219 304 218.5C303 218.1 301.7 218.6 301.7 219.8Z" fill="white"/>
</g>
<mask id="mask31_201_668" style="mask-type:luminance" maskUnits="userSpaceOnUse" x="51" y="51" width="398" height="398">
<path d="M250 448.5C359.629 448.5 448.5 359.629 448.5 250C448.5 140.371 359.629 51.5 250 51.5C140.371 51.5 51.5 140.371 51.5 250C51.5 359.629 140.371 448.5 250 448.5Z" fill="white"/>
</mask>
<g mask="url(#mask31_201_668)">
<path d="M413.4 220.2C412.8 232.5 413 244.9 413.8 257.2C414 259.7 418.4 261 418.2 257.9C417.4 246 417.2 234 417.7 222.1C417.8 220.8 417.1 219.6 415.9 219.1C415.1 218.7 413.5 219 413.4 220.2Z" fill="white"/>
</g>
<mask id="mask32_201_668" style="mask-type:luminance" maskUnits="userSpaceOnUse" x="51" y="51" width="398" height="398">
<path d="M250 448.5C359.629 448.5 448.5 359.629 448.5 250C448.5 140.371 359.629 51.5 250 51.5C140.371 51.5 51.5 140.371 51.5 250C51.5 359.629 140.371 448.5 250 448.5Z" fill="white"/>
</mask>
<g mask="url(#mask32_201_668)">
<path d="M181.2 219.6C181.3 229.9 181.5 240.2 181.6 250.5C181.6 251.6 182.9 252.2 183.9 252.3C184.6 252.4 186.6 252.3 186.6 251.2C186.5 240.9 186.3 230.6 186.2 220.3C186.2 219.2 184.9 218.6 183.9 218.5C183.2 218.4 181.2 218.5 181.2 219.6Z" fill="white"/>
</g>
<mask id="mask33_201_668" style="mask-type:luminance" maskUnits="userSpaceOnUse" x="51" y="51" width="398" height="398">
<path d="M250 448.5C359.629 448.5 448.5 359.629 448.5 250C448.5 140.371 359.629 51.5 250 51.5C140.371 51.5 51.5 140.371 51.5 250C51.5 359.629 140.371 448.5 250 448.5Z" fill="white"/>
</mask>
<g mask="url(#mask33_201_668)">
<path d="M79.3999 220.9C80.5999 230.6 81.1999 240.4 81.1999 250.2C81.1999 253 86.1999 252.7 86.1999 249.8C86.1999 240 85.5999 230.2 84.3999 220.5C83.9999 217.8 79.0999 218.1 79.3999 220.9Z" fill="white"/>
</g>
<mask id="mask34_201_668" style="mask-type:luminance" maskUnits="userSpaceOnUse" x="51" y="51" width="398" height="398">
<path d="M250 448.5C359.629 448.5 448.5 359.629 448.5 250C448.5 140.371 359.629 51.5 250 51.5C140.371 51.5 51.5 140.371 51.5 250C51.5 359.629 140.371 448.5 250 448.5Z" fill="white"/>
</mask>
<g mask="url(#mask34_201_668)">
<path d="M132.6 252.4C132.1 264.9 132.4 277.4 133.4 289.8C133.5 291.1 138.2 292.4 138.1 291C137.1 278.7 136.8 266.4 137.3 254.1C137.4 252.5 132.7 251.4 132.6 252.4Z" fill="white"/>
</g>
<mask id="mask35_201_668" style="mask-type:luminance" maskUnits="userSpaceOnUse" x="51" y="51" width="398" height="398">
<path d="M250 448.5C359.629 448.5 448.5 359.629 448.5 250C448.5 140.371 359.629 51.5 250 51.5C140.371 51.5 51.5 140.371 51.5 250C51.5 359.629 140.371 448.5 250 448.5Z" fill="white"/>
</mask>
<g mask="url(#mask35_201_668)">
<path d="M247.2 254.3C247.2 266.7 247.2 279.1 247.2 291.5C247.2 293 251.9 294 251.9 293.3C251.9 280.9 251.9 268.5 251.9 256.1C251.9 254.5 247.2 253.5 247.2 254.3Z" fill="white"/>
</g>
<mask id="mask36_201_668" style="mask-type:luminance" maskUnits="userSpaceOnUse" x="51" y="51" width="398" height="398">
<path d="M250 448.5C359.629 448.5 448.5 359.629 448.5 250C448.5 140.371 359.629 51.5 250 51.5C140.371 51.5 51.5 140.371 51.5 250C51.5 359.629 140.371 448.5 250 448.5Z" fill="white"/>
</mask>
<g mask="url(#mask36_201_668)">
<path d="M363.7 255.9C363.6 268.2 363.6 280.4 363.8 292.7C363.8 293.6 364.6 294.7 365.1 295.5C365.2 295.7 366.4 297.2 366.4 296.8C366.2 284.5 366.2 272.3 366.3 260C366.3 259.1 365.5 257.9 365 257.2C364.9 257 363.8 255.5 363.7 255.9Z" fill="white"/>
</g>
<mask id="mask37_201_668" style="mask-type:luminance" maskUnits="userSpaceOnUse" x="51" y="51" width="398" height="398">
<path d="M250 448.5C359.629 448.5 448.5 359.629 448.5 250C448.5 140.371 359.629 51.5 250 51.5C140.371 51.5 51.5 140.371 51.5 250C51.5 359.629 140.371 448.5 250 448.5Z" fill="white"/>
</mask>
<g mask="url(#mask37_201_668)">
<path d="M188.2 291.6C188.3 301.7 188 311.7 187.2 321.7C187.1 323.1 191.4 325.4 191.5 324C192.3 314 192.6 303.9 192.5 293.9C192.5 292.4 188.2 290.3 188.2 291.6Z" fill="white"/>
</g>
<mask id="mask38_201_668" style="mask-type:luminance" maskUnits="userSpaceOnUse" x="51" y="51" width="398" height="398">
<path d="M250 448.5C359.629 448.5 448.5 359.629 448.5 250C448.5 140.371 359.629 51.5 250 51.5C140.371 51.5 51.5 140.371 51.5 250C51.5 359.629 140.371 448.5 250 448.5Z" fill="white"/>
</mask>
<g mask="url(#mask38_201_668)">
<path d="M85.5 292.8C85.6 303.2 86.1 313.7 86.7 324.1C86.9 327 91.9 326.9 91.7 324C91 313.6 90.6 303.1 90.5 292.7C90.4 289.8 85.4 289.9 85.5 292.8Z" fill="white"/>
</g>
<mask id="mask39_201_668" style="mask-type:luminance" maskUnits="userSpaceOnUse" x="51" y="51" width="398" height="398">
<path d="M250 448.5C359.629 448.5 448.5 359.629 448.5 250C448.5 140.371 359.629 51.5 250 51.5C140.371 51.5 51.5 140.371 51.5 250C51.5 359.629 140.371 448.5 250 448.5Z" fill="white"/>
</mask>
<g mask="url(#mask39_201_668)">
<path d="M311 294.4C310.8 303.5 310.7 312.7 310.5 321.8C310.5 323.4 315.4 322.7 315.4 320.8C315.6 311.7 315.7 302.5 315.9 293.4C316 291.9 311.1 292.5 311 294.4Z" fill="white"/>
</g>
<mask id="mask40_201_668" style="mask-type:luminance" maskUnits="userSpaceOnUse" x="51" y="51" width="398" height="398">
<path d="M250 448.5C359.629 448.5 448.5 359.629 448.5 250C448.5 140.371 359.629 51.5 250 51.5C140.371 51.5 51.5 140.371 51.5 250C51.5 359.629 140.371 448.5 250 448.5Z" fill="white"/>
</mask>
<g mask="url(#mask40_201_668)">
<path d="M403.3 296.1C403 303.8 402.7 311.5 402.4 319.2C402.3 320.6 407.2 321.4 407.3 320.3C407.6 312.6 407.9 304.9 408.2 297.2C408.2 295.8 403.3 295 403.3 296.1Z" fill="white"/>
</g>
<mask id="mask41_201_668" style="mask-type:luminance" maskUnits="userSpaceOnUse" x="51" y="51" width="398" height="398">
<path d="M250 448.5C359.629 448.5 448.5 359.629 448.5 250C448.5 140.371 359.629 51.5 250 51.5C140.371 51.5 51.5 140.371 51.5 250C51.5 359.629 140.371 448.5 250 448.5Z" fill="white"/>
</mask>
<g mask="url(#mask41_201_668)">
<path d="M140.4 324.4C140.5 334.1 140.2 343.7 139.5 353.3C139.4 354.9 144 356.8 144.1 354.9C144.8 345.3 145.1 335.6 145 326C145 324.4 140.4 322.6 140.4 324.4Z" fill="white"/>
</g>
<mask id="mask42_201_668" style="mask-type:luminance" maskUnits="userSpaceOnUse" x="51" y="51" width="398" height="398">
<path d="M250 448.5C359.629 448.5 448.5 359.629 448.5 250C448.5 140.371 359.629 51.5 250 51.5C140.371 51.5 51.5 140.371 51.5 250C51.5 359.629 140.371 448.5 250 448.5Z" fill="white"/>
</mask>
<g mask="url(#mask42_201_668)">
<path d="M249.2 323C248.7 333.2 248.8 343.5 249.7 353.7C249.8 354.9 250.9 356.1 252.1 356.3C253.2 356.6 254 355.8 253.9 354.7C253 344.9 252.9 335 253.4 325.1C253.5 323.9 252.7 322.7 251.6 322.1C250.7 321.7 249.2 321.8 249.2 323Z" fill="white"/>
</g>
<mask id="mask43_201_668" style="mask-type:luminance" maskUnits="userSpaceOnUse" x="51" y="51" width="398" height="398">
<path d="M250 448.5C359.629 448.5 448.5 359.629 448.5 250C448.5 140.371 359.629 51.5 250 51.5C140.371 51.5 51.5 140.371 51.5 250C51.5 359.629 140.371 448.5 250 448.5Z" fill="white"/>
</mask>
<g mask="url(#mask43_201_668)">
<path d="M351 323.2C351.8 332.7 352.9 342.3 354.2 351.7C354.4 352.9 355.5 353.7 356.6 353.9C357.4 354 359.1 353.8 359 352.6C357.7 343.1 356.6 333.6 355.8 324.1C355.6 321.9 350.8 320.8 351 323.2Z" fill="white"/>
</g>
<mask id="mask44_201_668" style="mask-type:luminance" maskUnits="userSpaceOnUse" x="51" y="51" width="398" height="398">
<path d="M250 448.5C359.629 448.5 448.5 359.629 448.5 250C448.5 140.371 359.629 51.5 250 51.5C140.371 51.5 51.5 140.371 51.5 250C51.5 359.629 140.371 448.5 250 448.5Z" fill="white"/>
</mask>
<g mask="url(#mask44_201_668)">
<path d="M306.1 353.5C306.7 363.3 307.2 373.1 307.8 382.8C307.9 384.4 312.9 384.7 312.8 383.3C312.2 373.5 311.7 363.7 311.1 354C311 352.4 306.1 352.2 306.1 353.5Z" fill="white"/>
</g>
<mask id="mask45_201_668" style="mask-type:luminance" maskUnits="userSpaceOnUse" x="51" y="51" width="398" height="398">
<path d="M250 448.5C359.629 448.5 448.5 359.629 448.5 250C448.5 140.371 359.629 51.5 250 51.5C140.371 51.5 51.5 140.371 51.5 250C51.5 359.629 140.371 448.5 250 448.5Z" fill="white"/>
</mask>
<g mask="url(#mask45_201_668)">
<path d="M198.2 354.5C198.2 364.7 198.2 374.8 198.2 385C198.2 387 203.1 387.6 203.1 385.2C203.1 375 203.1 364.9 203.1 354.7C203.1 352.7 198.2 352.1 198.2 354.5Z" fill="white"/>
</g>
<mask id="mask46_201_668" style="mask-type:luminance" maskUnits="userSpaceOnUse" x="51" y="51" width="398" height="398">
<path d="M250 448.5C359.629 448.5 448.5 359.629 448.5 250C448.5 140.371 359.629 51.5 250 51.5C140.371 51.5 51.5 140.371 51.5 250C51.5 359.629 140.371 448.5 250 448.5Z" fill="white"/>
</mask>
<g mask="url(#mask46_201_668)">
<path d="M160 387.1C159.3 396 159.8 404.9 161.2 413.7C161.5 415.8 166.5 415.9 166.1 413.4C164.7 404.9 164.3 396.3 165 387.7C165.1 385.5 160.1 384.9 160 387.1Z" fill="white"/>
</g>
<mask id="mask47_201_668" style="mask-type:luminance" maskUnits="userSpaceOnUse" x="51" y="51" width="398" height="398">
<path d="M250 448.5C359.629 448.5 448.5 359.629 448.5 250C448.5 140.371 359.629 51.5 250 51.5C140.371 51.5 51.5 140.371 51.5 250C51.5 359.629 140.371 448.5 250 448.5Z" fill="white"/>
</mask>
<g mask="url(#mask47_201_668)">
<path d="M262.8 386.6C262.8 395.1 262.8 403.6 262.8 412C262.8 414.7 267.7 413.8 267.7 411.3C267.7 402.8 267.7 394.3 267.7 385.9C267.7 383.3 262.8 384.2 262.8 386.6Z" fill="white"/>
</g>
<mask id="mask48_201_668" style="mask-type:luminance" maskUnits="userSpaceOnUse" x="51" y="51" width="398" height="398">
<path d="M250 448.5C359.629 448.5 448.5 359.629 448.5 250C448.5 140.371 359.629 51.5 250 51.5C140.371 51.5 51.5 140.371 51.5 250C51.5 359.629 140.371 448.5 250 448.5Z" fill="white"/>
</mask>
<g mask="url(#mask48_201_668)">
<path d="M359.7 382.6C359.5 390.7 359.4 398.8 359.2 406.9C359.2 407.5 360.4 408.4 360.8 408.8C361.2 409.2 361.7 409.6 362.2 409.9C362.3 409.9 362.9 410.3 362.9 410.2C363.1 402.1 363.2 394 363.4 385.9C363.4 385.3 362.2 384.4 361.8 384C361.4 383.6 360.9 383.2 360.4 382.9C360.3 382.9 359.7 382.5 359.7 382.6Z" fill="white"/>
</g>
<mask id="mask49_201_668" style="mask-type:luminance" maskUnits="userSpaceOnUse" x="51" y="51" width="398" height="398">
<path d="M250 448.5C359.629 448.5 448.5 359.629 448.5 250C448.5 140.371 359.629 51.5 250 51.5C140.371 51.5 51.5 140.371 51.5 250C51.5 359.629 140.371 448.5 250 448.5Z" fill="white"/>
</mask>
<g mask="url(#mask49_201_668)">
<path d="M226.7 412.9C226.8 421 226.9 429.1 227.1 437.2C227.1 439.6 232 440.6 232 437.9C231.9 429.8 231.8 421.7 231.6 413.6C231.5 411.2 226.6 410.2 226.7 412.9Z" fill="white"/>
</g>
<mask id="mask50_201_668" style="mask-type:luminance" maskUnits="userSpaceOnUse" x="51" y="51" width="398" height="398">
<path d="M250 448.5C359.629 448.5 448.5 359.629 448.5 250C448.5 140.371 359.629 51.5 250 51.5C140.371 51.5 51.5 140.371 51.5 250C51.5 359.629 140.371 448.5 250 448.5Z" fill="white"/>
</mask>
<g mask="url(#mask50_201_668)">
<path d="M309.5 410.7C309.7 418.8 309.7 426.8 309.6 434.9C309.6 436.1 310.2 437.3 311.1 438C311.6 438.4 313 439 313 437.8C313.1 429.4 313.1 421 312.9 412.7C312.9 411.6 311.9 410.3 310.9 409.8C310.1 409.2 309.5 409.7 309.5 410.7Z" fill="white"/>
</g>
<mask id="mask51_201_668" style="mask-type:luminance" maskUnits="userSpaceOnUse" x="51" y="51" width="398" height="398">
<path d="M250 448.5C359.629 448.5 448.5 359.629 448.5 250C448.5 140.371 359.629 51.5 250 51.5C140.371 51.5 51.5 140.371 51.5 250C51.5 359.629 140.371 448.5 250 448.5Z" fill="white"/>
</mask>
<g mask="url(#mask51_201_668)">
<path d="M251.1 440.5C252.5 448.4 253.1 456.4 252.8 464.4C252.8 465.5 253.6 466.7 254.2 467.5C254.5 467.9 255.5 468.8 255.6 467.8C255.9 459.5 255.2 451.2 253.7 443.1C253.5 442 252.8 440.8 252 440C251.4 439.4 250.9 439.6 251.1 440.5Z" fill="white"/>
</g>
</svg>
