<svg width="500" height="500" viewBox="0 0 500 500" fill="none" xmlns="http://www.w3.org/2000/svg">
<mask id="mask0_201_703" style="mask-type:luminance" maskUnits="userSpaceOnUse" x="51" y="51" width="398" height="398">
<path d="M250 448.5C359.629 448.5 448.5 359.629 448.5 250C448.5 140.371 359.629 51.5 250 51.5C140.371 51.5 51.5 140.371 51.5 250C51.5 359.629 140.371 448.5 250 448.5Z" fill="white"/>
</mask>
<g mask="url(#mask0_201_703)">
<path d="M174.9 43.6999C155.9 47.8999 139 58.0999 124.5 70.9999C109.6 84.1999 96.8999 100.1 86.3999 117C64.9999 151 52.5999 191.6 56.7999 232C59.0999 254.7 66.3999 276.5 74.1999 297.7C81.4999 317.6 89.9999 337.4 102.8 354.5C125.4 384.8 160 404.4 196.3 413.4C239.5 424.1 285.2 419.5 327.8 408.1C348.3 402.6 369.7 396.5 387.2 384.1C404.1 372.2 416.2 354.5 426.1 336.6C436.5 317.7 444.5 297.5 449.8 276.6C455.3 254.8 458.4 231.9 455.1 209.5C451.8 187.8 442.3 167.5 431.3 148.7C420.6 130.4 407.8 113.3 393.1 97.9999C378.6 82.8999 362 69.9999 341.5 64.1999C331 61.1999 320.1 59.7999 309.2 58.8999C297.7 57.8999 286.2 57.3999 274.7 57.2999C251.8 57.1999 228.9 58.8999 206.2 62.2999C194.7 63.9999 183.3 66.2999 172 68.8999C161.1 71.4999 150 74.0999 139.7 78.3999C130.3 82.2999 121.9 87.8999 114.9 95.2999C108.1 102.3 102.7 110.5 97.9999 119C88.2999 136.7 81.5999 156.1 77.5999 175.9C69.3999 216.4 72.6999 258.9 84.8999 298.2C91.0999 318.4 99.7999 338.1 113.1 354.6C125.3 369.7 141 381.7 158.1 390.9C196.6 411.5 241.5 416.7 284.6 416.9C325.8 417.1 368.9 410.4 402.3 384.5C416.6 373.4 428.6 359.1 435.6 342.3C444.1 321.7 444.8 298.8 445.2 276.8C445.4 265 445.4 253.2 445.3 241.3C445.2 229.8 445.3 218.3 444.3 206.8C443.4 196.1 441.1 185.5 436.8 175.6C433 166.8 427.8 158.6 421.9 151C409.7 135.4 394.6 122.2 379.3 109.7C370.9 102.8 362.2 96.2999 352.5 91.2999C343 86.3999 332.7 83.2999 322.3 81.1999C311.7 79.0999 300.9 78.0999 290.1 77.4999C278.3 76.7999 266.5 76.4999 254.7 76.2999C243.3 76.0999 231.9 76.0999 220.5 76.2999C210.1 76.4999 199.6 77.0999 189.3 78.8999C179.2 80.5999 169.2 83.5999 160.1 88.3999C151.8 92.7999 144.4 98.6999 138.1 105.5C125.3 119.2 116.7 136.3 109.4 153.4C100.5 174.2 92.8999 195.6 86.1999 217.2C79.4999 239.1 73.1999 261.6 73.2999 284.7C73.4999 322.9 90.8999 359.9 117.8 386.7C146.1 414.9 184.7 431.3 224 436.5C267 442.2 310.9 434.4 351 418.8C361.1 414.8 371.1 410.4 380.8 405.5C390.3 400.7 399.6 395.2 407.7 388.3C421.4 376.5 431.3 360.9 437.6 344C444.1 326.9 447.3 308.7 448.5 290.5C449.9 269.8 449.2 248.9 445.8 228.4C442.3 207.3 435.8 186.7 425.3 168.1C415.1 150.1 401.5 134.1 387.1 119.4C379.7 111.8 372.1 104.4 364.2 97.3999C356.2 90.2999 347.6 84.0999 337.6 80.0999C327.5 76.0999 316.6 74.0999 305.8 72.3999C294.6 70.6999 283.2 69.5999 271.9 69.0999C249.1 68.0999 226.1 69.5999 203.6 73.4999C182.4 77.1999 160 81.9999 143 95.9999C135.1 102.5 128.3 110.2 122 118.3C116.1 125.9 110.6 134 105.8 142.3C95.8999 159.4 88.2999 177.9 83.2999 197.1C78.2999 216.3 75.7999 236.3 76.2999 256.2C76.7999 278.2 81.1999 299.8 86.2999 321.1C91.4999 343 96.6999 365.3 106.5 385.7C110.7 394.6 115.9 403.2 122.8 410.3C129.9 417.6 138.8 422.7 148.5 425.9C158.6 429.3 169.2 431 179.8 432.1C191.5 433.3 203.2 433.6 214.9 433.4C238.3 432.9 261.8 430.8 285.1 428.7C326.8 424.9 369.8 417.7 404.9 393.3C420.8 382.3 434.2 367.9 443 350.6C452.1 332.9 456.5 313.1 457.2 293.3C458 271.8 454.3 250.3 448.2 229.7C442.1 209.2 433.8 189.2 424.4 170C416.3 153.6 406.8 137.6 394.4 123.9C381.7 109.8 366 98.8999 347.7 93.3999C326.4 86.9999 303.5 86.4999 281.5 85.7999C269.5 85.4999 257.6 85.3999 245.6 85.3999C234.3 85.3999 222.9 85.1999 211.6 85.7999C200.8 86.3999 189.9 87.9999 179.7 91.5999C170.2 94.9999 161.5 100.2 153.7 106.5C138.3 119.1 125.9 135.4 115.4 152.2C93.6999 186.7 80.7999 227 78.9999 267.9C77.3999 303.4 83.9999 342.8 110.7 368.4C111.9 369.6 116.4 367.5 115 366.2C87.4999 339.8 81.6999 298.6 83.9999 262.3C86.5999 222.6 99.4999 183.7 120.9 150.1C131.3 133.7 143.7 117.5 159.3 105.6C167.1 99.5999 175.7 94.9999 185.2 92.2999C195.5 89.2999 206.4 88.4999 217 88.1999C228.1 87.8999 239.3 87.9999 250.4 88.0999C262 88.0999 273.5 88.2999 285.1 88.6999C306.7 89.4999 329.4 90.2999 349.9 97.7999C384.7 110.7 406.2 143.6 421.5 175.7C439.4 213.2 454.3 254.6 452 296.8C450.9 316.3 446.2 335.8 436.8 353C427.7 369.7 414.1 383.3 398.3 393.7C363.2 416.8 320.5 422.5 279.6 426C257 427.9 234.2 430 211.5 430.2C200.1 430.3 188.8 429.8 177.5 428.4C167 427.1 156.5 425.1 146.7 421C137.4 417.2 129.5 411.3 123.1 403.6C116.7 395.9 112.1 386.9 108.1 377.7C99.4999 357.5 94.5999 335.9 89.5999 314.7C84.6999 293.8 80.6999 272.6 80.6999 251.1C80.6999 231.9 83.2999 212.6 88.2999 194C93.2999 175.3 100.9 157.4 110.7 140.7C115.7 132.3 121.2 124.2 127.3 116.5C133.5 108.7 140.2 101.2 148.2 95.0999C156.6 88.6999 166.1 84.7999 176.2 81.8999C186.9 78.8999 197.9 76.6999 208.8 74.9999C230.9 71.5999 253.5 70.5999 275.9 72.0999C286.9 72.7999 297.9 74.0999 308.7 75.9999C319.2 77.7999 329.8 80.2999 339.4 85.0999C348.7 89.6999 356.6 96.5999 364.1 103.6C371.7 110.7 379.1 117.9 386.2 125.3C400.3 140.1 413.3 156.1 422.8 174.3C432.4 192.7 438.2 212.8 441.3 233.2C444.2 253.1 444.8 273.5 443.2 293.5C441.8 311.4 438.5 329.4 431.9 346.1C425.4 362.5 415.5 377.7 401.7 388.8C393.4 395.4 384.1 400.5 374.6 405.2C365.1 409.9 355.3 414.1 345.4 417.8C305.9 432.5 263 439.3 221.1 432.7C182.7 426.6 145.5 409.5 118.6 381.1C92.9999 354.1 76.6999 317.3 77.6999 279.8C78.2999 257.3 84.5999 235.3 91.2999 213.9C97.8999 192.8 105.4 171.9 114.1 151.6C121.3 134.9 129.8 118.2 142.5 105C148.9 98.2999 156.4 92.5999 164.8 88.5999C173.7 84.3999 183.4 82.0999 193.2 80.7999C203.4 79.3999 213.7 79.0999 223.9 78.9999C235.3 78.8999 246.8 78.8999 258.2 79.0999C280 79.4999 302.4 79.8999 323.7 84.7999C333.9 87.1999 343.8 90.7999 353 96.0999C362.3 101.5 370.7 108.3 378.9 115.1C393.6 127.5 408.2 140.5 419.6 156C425.1 163.5 429.9 171.7 433.2 180.5C437.1 190.7 438.9 201.5 439.6 212.3C440.3 223.5 440.2 234.7 440.3 245.8C440.4 257.5 440.4 269.2 440.1 280.9C439.6 302.2 438.8 324.5 429.9 344.3C422.7 360.5 410.8 374.2 396.6 384.7C363.2 409.4 320.6 414.3 280.2 413.6C238.1 412.8 194.7 407 157.6 385.8C141.2 376.5 126.3 364.1 114.9 349.1C102.2 332.4 94.0999 312.5 88.1999 292.4C76.8999 253.7 74.1999 212.2 82.5999 172.7C86.6999 153.3 93.4999 134.2 103.3 116.9C107.9 108.7 113.3 100.9 120 94.2999C127.3 86.9999 136.1 81.9999 145.8 78.5999C156.1 74.9999 166.7 72.4999 177.3 70.0999C188.4 67.5999 199.6 65.5999 210.8 64.0999C233.1 60.9999 255.6 59.6999 278.2 60.0999C289.5 60.2999 300.8 60.8999 312 62.0999C322.5 63.1999 333.1 64.8999 343.1 68.3999C362.5 75.0999 378.1 88.7999 391.9 103.8C406.1 119.3 418.5 136.4 428.8 154.6C439.2 173.1 447.9 193 450.5 214.1C453.2 236.3 449.7 259.1 444 280.5C438.6 301 430.5 320.7 420 339.1C410.1 356.5 398.1 373.6 381 384.7C372.4 390.3 362.8 394.2 353.2 397.6C342.8 401.2 332.2 404.3 321.5 406.9C280.2 417.2 236 420.7 194.5 409.2C159.1 399.5 125.9 379.3 104.6 348.9C92.3999 331.6 84.3999 311.7 77.2999 291.9C69.7999 271.3 63.0999 250.1 61.0999 228.1C57.4999 188.3 70.3999 148.5 91.5999 115.1C101.6 99.3999 113.5 84.5999 127.3 72.1999C140.7 60.0999 156.5 50.2999 174.2 46.2999C175 46.0999 176.7 45.4999 176.8 44.3999C177.1 43.4999 175.6 43.4999 174.9 43.6999Z" fill="white"/>
</g>
<mask id="mask1_201_703" style="mask-type:luminance" maskUnits="userSpaceOnUse" x="51" y="51" width="398" height="398">
<path d="M250 448.5C359.629 448.5 448.5 359.629 448.5 250C448.5 140.371 359.629 51.5 250 51.5C140.371 51.5 51.5 140.371 51.5 250C51.5 359.629 140.371 448.5 250 448.5Z" fill="white"/>
</mask>
<g mask="url(#mask1_201_703)">
<path d="M206.5 142.6C184.7 147.3 165.2 160.6 151.8 178.3C138.5 195.8 130.9 217.4 131 239.4C131.1 263 139.4 286.1 152.7 305.4C166.5 325.5 185.7 341.2 207.6 351.8C230.8 362.9 256.5 368.3 282.2 368.9C295.4 369.2 308.9 368.6 321.9 366C335 363.4 347.4 357.9 357.7 349.1C366.9 341.3 374.2 331.4 380.1 320.9C386.5 309.4 391.3 296.9 394.1 284C396.9 271.4 397.8 258.3 396.6 245.5C395.3 232 391.3 219 385.6 206.7C379.9 194.5 372.8 182.8 365 171.9C357.8 161.9 349.1 152.7 338 147.1C325.9 141.1 312.2 139.8 298.9 138.6C284.2 137.4 269.6 135.7 254.9 134.8C240.4 133.9 225.7 134 211.4 136.7C199.8 138.9 188.6 143 178.4 148.9C168.7 154.5 159.9 161.9 153.6 171.2C146.4 181.8 143.3 194.5 143.4 207.3C143.5 235.1 157.9 260.6 171.6 283.8C178.5 295.4 186.1 306.7 195.5 316.5C204.2 325.5 214.4 332.8 225.6 338.5C248.1 349.9 274.5 354.7 299.5 351.7C324.6 348.7 348.6 337.2 364.9 317.5C380.4 298.8 388.2 274.7 387.6 250.5C386.9 224.4 377.1 198.1 360.7 177.8C352.7 167.9 342.8 159.6 331.3 154.1C319.9 148.6 307.3 145.6 294.7 144.5C266.2 142 238.2 149.3 211 156.8C198.5 160.2 185.9 163.6 174.5 170C169.1 173.1 164 176.9 159.9 181.6C155.6 186.4 152.3 192.1 149.7 197.9C144.5 209.3 141 221.6 138.7 233.8C136.4 246 135.4 258.6 136.3 271C137.1 283.1 139.7 295.1 144.6 306.3C149.5 317.6 156.6 327.7 165.5 336.1C184.2 354 208.8 364.2 234 368.9C248.1 371.6 262.4 372.7 276.7 373C291 373.3 305.3 372.4 319.1 368.2C341.2 361.5 360.1 346.2 372.3 326.7C385.3 305.9 389.9 281 387 256.8C383.8 230.8 372.5 205.4 355 185.9C337.7 166.6 313.7 155 288.9 148.9C262.1 142.3 233 140.9 206.7 150.3C183.8 158.5 163.2 174.2 153 196.7C147.5 209 144.7 222.4 142.7 235.6C140.9 248.1 140.1 260.9 141.9 273.5C143.7 285.6 148.2 297.1 156 306.5C163.3 315.3 172.9 322 183.1 327.1C193.7 332.5 205 336.5 216.3 340.1C229.9 344.5 243.7 348.5 257.7 351.2C271.6 353.9 285.9 355.3 300.1 354.2C313.2 353.2 326 350.1 338 344.7C360.7 334.4 379.9 316.7 389.5 293.4C394.3 281.7 396.7 269.1 396.3 256.4C395.8 243.7 392.3 231.3 386.6 219.9C381 208.6 373.5 198.4 365 189C356.3 179.5 346.7 170.2 334.9 164.6C321.9 158.4 307 157.3 292.9 156.1C278 154.8 263.1 154.3 248.1 154.6C234.4 154.9 220.4 155.6 207 158.4C194.7 161 182.4 165.8 172.8 174.2C156.9 188.1 150.2 211.5 157 231.7C157.2 232.3 161.8 230.4 161.5 229.5C154.7 209.3 161.5 184.8 178.5 171.6C188 164.2 200 161.1 211.7 159.4C225.3 157.4 239.2 157 253 157C267.8 157 282.5 157.8 297.2 159.4C310.7 160.8 324.4 162.9 336.2 170C347 176.5 356.1 185.9 364.2 195.5C372.1 204.9 379.1 215.2 384.1 226.4C389.1 237.7 391.9 249.8 391.8 262.1C391.7 274.6 388.9 287.1 383.6 298.4C373.8 319.8 355.4 336.8 333.4 345.3C308 355.1 279.8 353 253.8 347C240.5 344 227.4 340 214.5 335.6C203.7 332 193 327.9 183 322.3C173.3 316.8 164.3 309.8 157.7 300.7C150.6 290.9 147 279.2 145.7 267.3C144.4 254.9 145.5 242.4 147.5 230.1C149.6 217.1 152.6 204 158.4 192.1C168.6 171.5 188 156.8 209.8 150.4C236.1 142.7 264.8 145.4 290.8 152.8C302.8 156.2 314.4 160.9 325.1 167.3C336.1 173.8 345.8 182.2 353.9 192.1C370 211.8 380.3 236.6 382.7 261.9C385 285.7 379.9 309.7 366.8 329.8C360.8 339 353.3 347.1 344.6 353.8C335.8 360.5 325.8 365.1 315 367.6C301.2 370.7 286.9 370.8 272.8 370.1C258.9 369.5 245.1 368 231.6 364.9C207.5 359.4 184.1 348.5 166.8 330.4C158.6 321.8 152.2 311.7 147.8 300.7C143.5 289.6 141.2 277.8 140.6 265.9C140 253.7 141.1 241.4 143.6 229.5C146 217.6 149.5 205.5 154.7 194.5C157.4 188.9 160.6 183.5 164.9 178.9C168.9 174.6 173.7 171.2 178.9 168.6C190 163 202.5 160.2 214.4 157C240.8 149.8 268.2 143.6 295.7 147.1C308 148.7 320.1 152.2 330.9 158.1C341.9 164.1 351.1 172.8 358.6 182.8C373.9 203.2 382.9 228.7 383.1 254.3C383.3 277.9 375.3 301.5 360 319.6C352.6 328.4 343.5 335.7 333.1 340.7C322 346 309.7 348.7 297.5 349.6C273 351.3 247.6 345.7 226 333.8C215.1 327.8 205.2 320 196.9 310.7C188.2 301 181.1 289.9 174.5 278.6C161.2 255.7 147.6 230.9 147.9 203.7C148 191.3 151.3 178.9 158.4 168.6C164.5 159.6 173.2 152.5 182.7 147.5C205.7 135.4 232.6 135.5 257.9 137.4C265.2 138 272.5 138.7 279.8 139.4C286.6 140 293.5 140.6 300.3 141.2C313.1 142.4 326.2 144.4 337.4 151C348 157.2 356 166.9 362.9 176.8C370.3 187.6 377.1 199 382.5 211C387.8 222.9 391.4 235.5 392.5 248.6C393.6 261.4 392.5 274.3 389.6 286.8C386.7 299.2 382.1 311.2 375.9 322.4C370.2 332.7 363 342.5 353.8 350.1C349.4 353.8 344.5 356.9 339.1 359.2C333 361.8 326.4 363.3 319.8 364.3C307.1 366.2 294.2 366.6 281.4 366C256.5 364.8 231.7 359 209.3 347.8C188.1 337.1 169.8 321.4 156.5 301.6C143.8 282.7 135.9 260.2 135.7 237.3C135.5 215.8 142.8 194.4 155.7 177.2C167.6 161.2 184.2 148.8 203.9 144.6C205 144.4 206.2 143.8 207.1 143C207.5 142.7 207.4 142.4 206.5 142.6Z" fill="white"/>
</g>
<mask id="mask2_201_703" style="mask-type:luminance" maskUnits="userSpaceOnUse" x="51" y="51" width="398" height="398">
<path d="M250 448.5C359.629 448.5 448.5 359.629 448.5 250C448.5 140.371 359.629 51.5 250 51.5C140.371 51.5 51.5 140.371 51.5 250C51.5 359.629 140.371 448.5 250 448.5Z" fill="white"/>
</mask>
<g mask="url(#mask2_201_703)">
<path d="M286.4 213.4C271.5 206.6 253.7 207.3 239.4 215.5C226.6 222.8 217.3 236.2 214.8 250.7C214.1 254.9 213.8 259.3 214.8 263.5C215.7 267.6 217.9 271.2 220.8 274.3C226.5 280.4 234.4 284 242.2 286.7C256.6 291.6 272.8 294.2 287.6 289.8C294.9 287.6 302 283.6 306.8 277.7C309.4 274.5 311.2 270.7 311.9 266.6C312.6 262.1 312.4 257.4 312.2 252.8C311.7 243.9 310.3 234.9 307.6 226.5C305.4 219.8 302.2 213 296.8 208.2C290.6 202.6 282.6 201.1 274.5 201.4C267.4 201.7 260.4 203.2 253.7 205.8C240.6 211 229.4 220.4 221.9 232.3C220.1 235.2 218.5 238.3 217.2 241.5C215.8 245.1 214.5 249 214.1 252.8C213.7 257 214.7 261.1 217.2 264.6C219.5 267.7 222.4 270.3 225.6 272.4C238.4 280.7 255.5 280.3 270 277.5C278.1 276 286.3 273.2 292.7 267.9C298.4 263.1 303 256.4 303.8 248.9C304.6 240.9 301.1 233.5 296.2 227.4C293.7 224.3 290.9 221.5 287.8 219C284.6 216.3 281.2 213.8 277.4 212.1C263.5 205.8 246.8 210.1 235.8 220C224 230.6 218.3 246.6 216.9 262.1C216.6 265.9 216.6 269.9 218.1 273.5C219.6 277.3 222.9 279.7 226.6 281.1C234.2 284.2 242.8 285.4 251 285.7C267.6 286.3 285 282.4 299.1 273.4C305.7 269.2 310.7 263.2 312.8 255.6C314.7 248.5 313.9 240.8 312 233.8C310 226.6 306.9 219.2 302.3 213.3C299.9 210.2 296.7 207.8 292.8 207C288.3 206 283.6 206.5 279 206.5C269.4 206.6 259.7 206.8 250.1 206.9C245.6 207 240.9 206.9 236.5 208.1C232.7 209.2 229.4 211.1 226.5 213.8C221 218.9 217.5 225.8 214.1 232.4C210.4 239.6 206.9 247.7 208.3 255.9C209.4 262.5 213.5 268.5 220 270.7C222.6 271.6 225 267.8 221.9 266.8C216.2 264.9 213.4 258.6 213 253C212.5 245.4 216.4 238 219.9 231.5C223 225.7 226.2 219.5 231.4 215.4C234.1 213.2 237.2 211.9 240.7 211.5C244.8 210.9 249 211.1 253.1 211C262.1 210.9 271 210.7 280 210.6C284 210.5 288.4 210 292.3 211.2C295.4 212.2 297.7 214.8 299.5 217.5C303.2 223.2 306 229.7 307.7 236.3C309.3 242.7 309.8 249.7 307.8 256.1C305.6 262.9 300.6 267.7 294.5 271.3C288 275.1 280.8 277.8 273.5 279.5C266 281.2 258.4 281.9 250.7 281.5C247 281.3 243.3 280.9 239.6 280.2C236 279.5 232.3 278.7 228.9 277.2C225.7 275.8 223.3 273.6 222.4 270.2C221.5 266.8 221.8 263.3 222.3 259.8C223.2 252.7 224.9 245.6 227.9 239C230.8 232.6 234.8 226.5 240.2 222C245.3 217.7 251.4 214.7 257.9 213.5C264.4 212.3 271 213.3 276.9 216.4C280.3 218.2 283.3 220.6 286.1 223.1C288.8 225.5 291.3 228.1 293.5 231C297.6 236.6 300.3 243.3 299 250.3C297.7 256.9 293.3 262.5 287.9 266.3C281.7 270.6 274.1 272.7 266.7 273.8C259.9 274.9 252.9 275.3 246.1 274.5C239.6 273.7 233.1 271.7 227.7 267.9C225 265.9 222.5 263.5 220.9 260.5C219 256.9 219.2 253.1 220.1 249.2C223.1 236.8 231 225.7 240.9 218C250.8 210.3 263.1 205.4 275.7 205.3C279.5 205.3 283.5 205.6 287.1 206.9C290 208 292.6 209.9 294.7 212.1C299.1 216.8 301.8 222.9 303.6 229C306 237.1 307.2 245.5 307.7 253.9C307.9 258.1 308.1 262.4 307.3 266.5C306.6 270.1 304.9 273.3 302.5 276C293.2 286.4 278.1 288.5 264.9 287.1C257.8 286.4 250.8 284.6 244.1 282.3C237.1 279.9 230.1 276.5 225 271C222.4 268.2 220.6 264.9 220 261.2C219.3 257.4 219.7 253.5 220.4 249.7C221.6 243.2 224.4 237 228.2 231.6C236.4 220.2 249.4 213 263.5 212.5C270.5 212.3 277.5 213.6 283.9 216.5C285.1 217 286.5 216.9 287.4 215.9C287.7 215.3 287.5 213.9 286.4 213.4Z" fill="white"/>
</g>
<mask id="mask3_201_703" style="mask-type:luminance" maskUnits="userSpaceOnUse" x="51" y="51" width="398" height="398">
<path d="M250 448.5C359.629 448.5 448.5 359.629 448.5 250C448.5 140.371 359.629 51.5 250 51.5C140.371 51.5 51.5 140.371 51.5 250C51.5 359.629 140.371 448.5 250 448.5Z" fill="white"/>
</mask>
<g mask="url(#mask3_201_703)">
<path d="M266.4 239.6C264.4 239.2 262.4 238.9 260.4 238.9C258.5 238.9 256.5 238.9 254.6 239.4C251.4 240.3 250.4 243.6 251.5 246.5C252.2 248.4 253.5 250.1 254.9 251.5C256.3 252.9 257.8 254.3 259.6 255.3C262.4 257 265.9 258 269 256.6C271.7 255.4 273.7 252.7 273.1 249.7C272.7 247.8 271.7 246.2 270.5 244.7C269.2 243 267.7 241.5 265.9 240.3C263.2 238.4 259.6 237.9 256.8 240.2C254.1 242.4 253.8 246.4 255.8 249.2C257.2 251.3 259.3 252.9 261.7 253.5C263.3 253.9 265.4 253.8 266.4 252.3C267.6 250.6 266.4 248.7 265.2 247.3C263.8 245.7 261.9 244 259.7 243.9C259 243.9 260.3 245.5 260.4 245.7C260.9 246.3 261.9 247.6 262.8 247.6C263.4 247.6 263.8 247.8 264.3 248C265.1 248.2 263.1 246.2 263.2 246.9C263.2 247.1 263.3 247.3 263.3 247.6C263.3 248.7 262.3 249.6 261.3 250C260.1 250.4 258.7 250.1 257.6 249.6C256.3 249 258.2 249.5 258.4 250.7C258.4 250.4 258.2 250.1 258.1 249.9C258 249.3 258 248.6 258 247.9C258.3 245.5 260.1 243.4 262.4 242.7C263.5 242.4 264.7 242.4 265.8 242.7C266.3 242.9 266.8 243.1 267.2 243.4C267.4 243.5 267.5 243.6 267.7 243.8C268 244 267.7 243.8 268 244.1C267.7 243.8 268.3 244.5 268.1 244.3C268.2 244.5 268.4 244.7 268.5 244.9C268.8 245.4 269 245.9 269.2 246.4C269.5 247.5 269.4 248.8 268.9 249.9C268 251.8 266 253.3 263.9 253.7C261.5 254.2 258.9 253.4 256.9 252.1C256.5 251.9 256.2 251.6 255.8 251.3C255.5 251.1 255.5 251.1 255.3 250.8C254.6 249.9 254.3 248.9 254.3 247.8C254.3 246.6 254.6 245.4 255.5 244.5C256.5 243.4 257.9 243.2 259.3 243C262.6 242.7 266 242.9 269.2 243.6C269.9 243.8 268.6 241.9 268.5 241.8C268.3 240.8 267.4 239.8 266.4 239.6Z" fill="white"/>
</g>
<mask id="mask4_201_703" style="mask-type:luminance" maskUnits="userSpaceOnUse" x="51" y="51" width="398" height="398">
<path d="M250 448.5C359.629 448.5 448.5 359.629 448.5 250C448.5 140.371 359.629 51.5 250 51.5C140.371 51.5 51.5 140.371 51.5 250C51.5 359.629 140.371 448.5 250 448.5Z" fill="white"/>
</mask>
<g mask="url(#mask4_201_703)">
<path d="M409.7 142.7C427.5 177 429.2 216.5 429.6 254.3C429.7 264.3 429.6 274.4 428 284.2C426.4 293.8 422.9 302.9 418 311.3C413.1 319.6 407.2 327.3 401.2 334.9C395 342.9 388.5 350.7 381.9 358.3C375.3 365.9 368.4 373.4 361.4 380.7C354.8 387.6 348.1 394.5 340.3 400.2C332.6 405.9 323.9 409.7 314.6 411.9C305.1 414.1 295.3 414.9 285.7 415.6C264.5 417.2 243.3 418.8 222 419.8C211.9 420.2 201.6 420.3 191.6 418.3C182.1 416.4 173.4 412.2 165.3 407.1C157.2 402 149.6 396.2 142 390.5C134.4 384.8 126.7 379.1 119.2 373.2C104.2 361.4 89.7 348.9 76.9 334.7C73.7 331.2 70.7 327.6 67.7 323.8C67.1 323 65.8 322.7 64.9 322.5C64.7 322.5 62.6 322.2 63 322.7C75.1 338 89.3 351.5 104.2 363.9C119.2 376.4 135 388.1 150.8 399.5C158.6 405.1 166.7 410.4 175.5 414.3C184.6 418.3 194.3 420.6 204.2 421.4C214.4 422.3 224.6 421.7 234.7 421.1C245.8 420.4 257 419.7 268.1 419C278.6 418.3 289.2 417.6 299.7 416.6C309.3 415.7 318.9 414.3 328 411C346.5 404.3 360.1 388.7 373.2 374.7C387.2 359.6 400.5 343.9 412.8 327.4C418.6 319.6 424.1 311.5 427.9 302.5C431.9 292.9 433.6 282.6 434.1 272.3C434.6 262.3 434.3 252.2 434.1 242.2C433.9 232.5 433.4 222.8 432.5 213.1C430.8 193.9 427.3 174.7 420.2 156.7C418.5 152.3 416.5 148.1 414.3 143.9C413.9 143.1 412.2 142.8 411.5 142.6C411.4 142.5 409.4 142.1 409.7 142.7Z" fill="white"/>
</g>
<mask id="mask5_201_703" style="mask-type:luminance" maskUnits="userSpaceOnUse" x="51" y="51" width="398" height="398">
<path d="M250 448.5C359.629 448.5 448.5 359.629 448.5 250C448.5 140.371 359.629 51.5 250 51.5C140.371 51.5 51.5 140.371 51.5 250C51.5 359.629 140.371 448.5 250 448.5Z" fill="white"/>
</mask>
<g mask="url(#mask5_201_703)">
<path d="M74.3001 205C63.3001 234.8 59.4001 267 62.9001 298.5C64.6001 314.1 68.1001 329.6 73.3001 344.4C78.5001 359.2 85.3001 373.6 96.3001 385C106.8 395.8 119.9 403.9 133.2 410.8C146.4 417.7 160.1 423.5 174.3 428C202.7 437.1 232.6 441.6 262.4 441.1C292.3 440.7 322.3 435.4 350.4 425.1C353.8 423.9 357.2 422.5 360.5 421.2C361.5 420.8 361.3 419.9 360.5 419.4C359.5 418.8 358 418.9 357 419.3C330.1 430.4 301.2 436.8 272.1 438.3C243.2 439.8 214 436.6 186.1 428.7C172.1 424.7 158.4 419.6 145.2 413.3C132.1 407 119.1 399.8 108 390.5C102.3 385.7 97.1001 380.4 92.9001 374.3C88.5001 367.9 85.0001 360.9 82.0001 353.7C76.0001 339.2 71.8001 324 69.3001 308.5C64.5001 277.9 66.5001 246.2 75.6001 216.6C76.7001 212.9 77.9001 209.3 79.3001 205.7C79.8001 203.9 74.8001 203.4 74.3001 205Z" fill="white"/>
</g>
<mask id="mask6_201_703" style="mask-type:luminance" maskUnits="userSpaceOnUse" x="51" y="51" width="398" height="398">
<path d="M250 448.5C359.629 448.5 448.5 359.629 448.5 250C448.5 140.371 359.629 51.5 250 51.5C140.371 51.5 51.5 140.371 51.5 250C51.5 359.629 140.371 448.5 250 448.5Z" fill="white"/>
</mask>
<g mask="url(#mask6_201_703)">
<path d="M303.2 79.2C322.1 83 338.4 93.7 352.3 106.7C367 120.4 379.2 136.3 391.4 152.1C405.2 170.1 418.5 188.5 427 209.7C434.9 229.3 439.1 250.3 439.6 271.4C440 292.3 436.8 313.4 429.8 333.2C428.9 335.7 428 338.1 427 340.6C426.1 342.7 431 343.4 431.8 341.6C439.9 321.8 444.2 300.5 444.7 279.1C445.1 257.7 441.8 236.2 434.6 216.1C431 205.8 426.3 195.9 420.8 186.5C414.8 176.3 407.9 166.6 400.7 157.2C388.2 140.7 375.6 124 360.8 109.3C346.9 95.5 330.7 83.6 311.7 78.1C309.4 77.4 307 76.8 304.7 76.4C303.8 76.2 302.1 76.2 301.6 77.3C301.1 78.3 302.4 79.1 303.2 79.2Z" fill="white"/>
</g>
</svg>
