<svg width="500" height="500" viewBox="0 0 500 500" fill="none" xmlns="http://www.w3.org/2000/svg">
<mask id="mask0_201_758" style="mask-type:luminance" maskUnits="userSpaceOnUse" x="51" y="51" width="398" height="398">
<path d="M250 448.5C359.629 448.5 448.5 359.629 448.5 250C448.5 140.371 359.629 51.5 250 51.5C140.371 51.5 51.5 140.371 51.5 250C51.5 359.629 140.371 448.5 250 448.5Z" fill="white"/>
</mask>
<g mask="url(#mask0_201_758)">
<path d="M112.1 61.4C114.8 67.3 118.7 72.5 123.1 77.3C127.5 82.1 132.2 86.6 137.3 90.7C147.3 98.9 159.8 105.5 173.1 103.7C184.1 102.3 195.3 94 196.4 82.3C196.7 79.6 196.1 76.6 194 74.7C191.7 72.6 188.2 72.5 185.3 73.5C180.2 75.3 176.9 80.2 176.3 85.4C175.6 91.1 178.7 96.4 183.1 99.8C188.1 103.6 194.3 104.5 200.4 103.5C206.6 102.4 212.4 99.2 217.3 95.2C221.8 91.5 225.6 86.9 228 81.6C230.1 77.1 232.2 70.7 228.5 66.3C224.1 61.1 216.8 65.7 214.2 70.4C211.6 75.1 211.6 80.7 212.7 85.8C213.3 88.4 214.2 91 215.3 93.4C216.6 96.3 218.4 99 221.2 100.7C226.1 103.6 232.8 102.9 238.1 101.5C243.3 100.1 248.1 97.3 252.2 93.8C256.2 90.3 259.5 86 261.7 81.1C263.9 76.2 265.6 70.1 264.4 64.8C263 58.5 255.8 56.7 250.6 59.8C245.4 62.9 243.6 69.6 242.8 75.1C241.8 81.1 241.9 87.4 244.2 93.1C246.4 98.5 250.2 103 255.4 105.7C260.3 108.3 266 109.5 271.6 108.8C277.5 108.1 283 105.6 287.7 101.9C292.4 98.2 296.2 93.2 298.4 87.7C300.6 82.2 300.7 75.2 296 70.9C292 67.2 285.6 66.2 281.6 70.5C277.6 74.7 276.7 81.4 277.9 86.9C279.1 92.4 282.9 97.3 288 99.8C293.3 102.3 299.4 102.5 304.7 100.2C309.5 98.1 313.2 93.9 315.7 89.3C318.1 84.7 319.9 79.4 320.7 74.3C321.4 69.8 320.2 62.7 314.2 63.1C311.1 63.3 308.9 65.9 307.7 68.6C306.3 71.7 305.2 74.9 304.4 78.2C303.6 81.5 302.9 85 303.4 88.3C303.9 91.3 305.6 93.7 308.1 95.3C313.1 98.4 319.7 98.1 325.3 97.1C338 94.8 348.6 86.3 356.6 76.7C360.7 71.8 364.3 66.5 367.9 61.2C369.7 58.5 365.4 56 363.6 58.7C357.6 67.8 351.2 77 342.4 83.8C338.2 87 333.5 89.7 328.5 91.3C323.9 92.7 318.7 93.6 314 92.4C312.2 92 310.4 91.2 309.3 89.8C307.9 87.9 308.3 85.2 308.7 83.1C309.2 80.2 309.9 77.4 310.8 74.6C311.5 72.7 312.2 69.9 313.9 68.6C313.9 68.6 314.6 68.2 314.4 68.3C314.6 68.2 314.9 68.3 315 68.4C314.8 68.3 315.2 68.7 315 68.4C315.1 68.5 315.2 68.6 315.3 68.8C315.1 68.5 315.4 69 315.4 69C315.4 69.1 315.5 69.1 315.6 69.4C316.1 70.9 316 72.6 315.7 74.1C314.8 78.4 313.5 82.8 311.5 86.8C309.6 90.5 306.9 93.8 303.1 95.8C299.3 97.7 294.6 97.7 290.8 96C286.7 94.2 283.8 90.7 282.7 86.3C281.7 82.4 282.2 77.1 285.3 74.2C286.6 73 288.1 72.9 289.6 73.4C291.1 73.8 292.6 74.9 293.5 76.3C296.3 80.4 294.2 86.1 291.9 90C287.3 97.8 278.9 104.1 269.7 104.5C260.6 104.9 251.6 99.9 248.6 91.1C247 86.4 246.9 81.3 247.7 76.4C248.4 72.4 249.5 66.4 253.5 64.3C254.9 63.6 256.9 63.3 258.3 64.2C259.9 65.3 259.9 67.7 259.8 69.5C259.6 73.7 258.2 77.9 256.2 81.6C252 89.1 244.9 94.9 236.6 97.1C232.6 98.2 227.2 98.9 223.6 96.5C221.6 95.2 220.5 92.7 219.6 90.6C218.8 88.6 218.1 86.6 217.7 84.5C216.9 80.7 216.9 76.4 218.9 73C219.8 71.4 221.5 69.6 223.5 69.4C224.3 69.3 224.7 69.6 225.1 70C225.4 70.3 225.7 71.2 225.8 71.7C226.1 73.7 225.6 75.5 224.9 77.3C224.1 79.5 223 81.7 221.7 83.7C219.1 87.7 215.6 91.2 211.6 93.9C203.8 99.2 192.2 102.4 184.7 94.7C181.8 91.8 180.7 87.8 182.2 84C182.8 82.4 183.8 80.9 185.1 79.8C186.4 78.7 188.6 77.8 190.3 78.4C191.9 79 191.9 81.3 191.7 82.7C191.4 84.7 190.6 86.7 189.6 88.4C187.4 92.2 183.9 95.2 179.9 97.1C170.4 101.7 158.9 98.8 150.2 93.8C145.4 91.1 141.1 87.7 137.1 84C133 80.3 129 76.4 125.4 72.3C122 68.3 119 64 116.8 59.2C116.2 58 114.5 57.7 113.4 58.3C111.7 58.7 111.5 60.1 112.1 61.4Z" fill="white"/>
</g>
<mask id="mask1_201_758" style="mask-type:luminance" maskUnits="userSpaceOnUse" x="51" y="51" width="398" height="398">
<path d="M250 448.5C359.629 448.5 448.5 359.629 448.5 250C448.5 140.371 359.629 51.5 250 51.5C140.371 51.5 51.5 140.371 51.5 250C51.5 359.629 140.371 448.5 250 448.5Z" fill="white"/>
</mask>
<g mask="url(#mask1_201_758)">
<path d="M114.7 92.9C118.4 100 122.5 107.3 129.3 111.8C135 115.6 143.2 116.5 149.3 113C152.2 111.4 154.7 108.6 155.4 105.3C156.1 101.9 155.2 97.9 151.9 96.3C148.1 94.6 143.6 96.5 140.7 99C137.7 101.4 135.7 104.9 134.3 108.4C131.6 115.2 130.8 124.2 135.3 130.5C140.1 137.3 148.6 138.4 156.3 137.1C160.4 136.4 164.3 135 168.1 133.4C172.2 131.6 176.2 129.5 179.8 126.9C183.3 124.4 186.6 121.1 187.4 116.7C188.2 112.7 187 108.4 183.4 106.1C180.5 104.2 176.6 104.1 173.4 105.3C169.7 106.7 167.3 109.7 166 113.3C163.4 120.7 166.3 129 171.2 134.7C175.9 140.2 183 143.8 190.2 144.2C197.9 144.7 205.3 141.1 210.9 136.1C213.8 133.5 216.3 130.4 218.4 127.1C220.5 123.8 222.7 120.1 223.3 116.2C223.9 112.3 222.5 108.2 218.8 106.4C215.7 104.9 212 105.3 208.9 106.9C201.3 110.8 201.4 121.2 202.8 128.4C203.7 132.8 206.1 136.2 210.4 137.8C214 139.1 218.2 138.9 221.9 138.3C229.3 137 236 132.6 240.5 126.7C244.5 121.5 248.4 112.6 244 106.6C241.6 103.3 237.5 102.4 233.9 104.1C230.3 105.8 227.8 109.5 226.4 113.1C224.9 117.3 224.3 122.1 224.6 126.6C224.9 131.1 225.8 135.9 228 139.9C232.3 147.6 241.9 147.5 248.8 143.7C255.5 140.1 260.4 133.5 262.4 126.2C263.4 122.5 263.6 118.7 263 114.9C262.6 112.7 261.4 110.6 259.2 109.8C257.4 109.1 255.4 109.4 253.8 110.3C249.8 112.5 249.4 117.2 249.7 121.3C250 125.7 250.8 130.2 252.7 134.2C256.1 141.3 263.8 146.4 271.8 144.1C279.3 142 284.3 135 288.3 128.8C290.7 125.1 293.2 121.2 294.5 117C295.4 113.9 295.1 109.7 292.1 107.8C288.6 105.6 284.2 108.6 281.9 111.2C279.3 114.1 277.8 117.8 277.5 121.7C277 129.5 282.3 136.8 289.3 139.8C293.7 141.7 298.4 141.8 302.5 139.3C306 137.1 309 133.7 311.7 130.6C314.5 127.4 317 124 318.6 120.1C320.1 116.5 320.9 111.9 319.5 108.2C318 104.4 313.5 100.8 309.7 104C307 106.2 306 110.5 306 113.9C306.1 120.8 310.3 127.4 316.1 130.9C322.7 134.8 331 133.9 337.5 130.2C343.8 126.6 349.1 120 350.2 112.7C351.2 105.9 348.7 97.5 340.9 96.5C333.7 95.5 326.9 101.7 326.5 108.8C326 117.1 332.9 124 340.4 126.2C348.6 128.6 357.8 126.6 365.6 123.4C372.8 120.5 379.4 116.2 385 110.9C390.4 105.8 394.9 99.6 398 92.9C398.6 91.7 398.3 90.2 397.1 89.5C396 88.9 394.3 89.2 393.7 90.4C388.4 101.7 379.5 111 368.4 116.7C358.4 121.9 340.2 127.1 333 114.8C331.7 112.6 331 109.8 331.8 107.3C332.5 105 334.4 103.1 336.5 102.1C338.4 101.2 340.7 101.2 342.5 102.4C344.3 103.7 345.2 105.8 345.4 107.9C346.8 119.1 334.7 129.7 323.9 128.4C318.8 127.8 314.5 124.1 312.4 119.5C311.4 117.3 310.9 114.8 311.2 112.4C311.3 111.3 312.2 106.8 313.8 108.2C315.9 110.1 315.6 113.6 314.9 116C314.1 119.2 312.3 122.2 310.2 124.8C308.2 127.4 305.9 129.8 303.6 132.1C301.2 134.5 298.5 136.6 295 136.3C289.2 135.7 284 130.7 282.8 125.1C282.2 122.5 282.7 119.6 283.9 117.2C285 115.1 287.1 112.4 289.6 112.1C289.4 112.1 289.3 111.9 289.6 112.2C289.4 112.1 289.4 111.9 289.6 112.3C289.8 112.6 289.9 112.9 289.9 113.4C290 114.5 289.8 115.6 289.4 116.7C288.1 120.1 286.1 123.2 284.2 126.2C281.1 131 277.4 136.6 271.9 138.9C266.4 141.2 260.8 138.2 257.9 133.4C256.2 130.5 255.3 127.1 254.9 123.8C254.7 122.1 254.5 120.4 254.6 118.7C254.6 117.4 254.8 115.8 255.9 115C258.4 113 258.4 117.4 258.4 118.9C258.4 121.9 257.9 124.8 256.8 127.6C254.7 132.8 250.7 137.3 245.7 139.8C243.2 141 240.2 141.7 237.4 141.2C234.4 140.6 232.7 138.5 231.6 135.8C229 129.2 228.6 120.8 231.5 114.2C232.5 111.9 234.4 109 237 108.4C239.3 107.9 240.6 109.8 240.9 111.8C241.7 117.1 238.1 122.7 234.6 126.2C230.6 130.3 225.1 133.1 219.4 133.7C216.7 134 213.4 134 211 132.6C208.3 131 207.8 127.6 207.5 124.7C207 119.7 207.1 112.2 213.2 110.7C215 110.3 217.2 110.5 218.1 112.2C219.6 114.8 217.8 118.3 216.6 120.6C211.3 130.7 201.2 141 188.7 139.1C178 137.4 167.2 126.3 170.9 114.9C171.7 112.6 173.3 110.6 175.7 109.9C177.7 109.3 180.2 109.4 181.6 111C183.6 113.2 182.7 116.7 181.2 118.9C179.3 121.6 176.3 123.5 173.5 125.1C167.7 128.6 161 131.6 154.2 132.5C148.8 133.2 142.4 132.4 139.2 127.4C136 122.4 136.9 115.7 138.9 110.4C139.9 107.8 141.3 105.3 143.3 103.4C144.2 102.5 145.2 101.8 146.4 101.3C147.3 100.9 149.1 100.4 149.9 101C151.3 101.9 150.6 104.8 149.8 106.1C148.5 108.1 146.3 109.3 144.1 109.9C139 111.2 133.7 109.4 129.9 106C125.1 101.8 122.1 96 119.2 90.4C117.6 87.5 113.2 90.1 114.7 92.9Z" fill="white"/>
</g>
<mask id="mask2_201_758" style="mask-type:luminance" maskUnits="userSpaceOnUse" x="51" y="51" width="398" height="398">
<path d="M250 448.5C359.629 448.5 448.5 359.629 448.5 250C448.5 140.371 359.629 51.5 250 51.5C140.371 51.5 51.5 140.371 51.5 250C51.5 359.629 140.371 448.5 250 448.5Z" fill="white"/>
</mask>
<g mask="url(#mask2_201_758)">
<path d="M96.4 105C94.5 109.7 93.4 114.8 93.3 119.9C93.2 124.4 94 129.2 98.4 131.5C107.4 136.2 116 127.6 120.5 120.7C123.4 116.2 125.3 111.2 126.3 106C126.6 104.5 125.9 103.5 124.6 102.9C121.1 101.5 117.1 102.5 114.1 104.7C111.1 106.9 109.3 110.3 108 113.6C104.9 121.2 102.6 129.5 103.8 137.8C104.8 144.2 108.5 150.6 114.3 153.8C120.1 157.1 127.2 156.4 132.6 152.6C138.8 148.3 142.8 141.4 145 134.3C145.3 133.3 144.8 132 143.9 131.5C139.5 129 134.2 130.3 130.5 133.5C126.4 137 125 142.5 124.2 147.6C122.6 158.1 121.1 171.2 130.3 178.8C134.2 182 139.4 183.7 144.3 181.9C149.4 180.1 153 175.7 156.5 171.8C163.3 164.3 170.7 155.1 170.7 144.4C170.7 139.8 167.2 134.2 162 136.8C159.8 137.9 158 140.1 156.5 142C154.9 144 153.6 146.1 152.5 148.3C150.3 152.9 149 157.9 148.3 163C148 165.5 147.8 168 147.8 170.6C147.8 173.2 147.7 176.1 148.4 178.6C149.8 183.3 154.1 185.6 158.8 185.5C163.6 185.5 168.2 183.5 172.4 181.3C181.5 176.4 190 168.9 195.3 159.9C197.9 155.4 198.7 149.2 193.9 145.9C189.1 142.5 184.3 146.8 182 151C177.1 159.9 171.9 172.7 180.3 181.3C187.7 188.9 199.6 184.9 206.7 179.1C214.8 172.5 220.5 162.7 222.6 152.5C223.1 150 223.8 146.9 223.1 144.4C222.4 141.9 220.1 140.4 217.6 140.5C212.7 140.7 209.2 145.4 207 149.4C202 158.4 201.7 169.2 201.7 179.3C201.7 184.7 201.9 190.4 205.7 194.7C208.7 198.1 213.5 199.9 218 199.9C228.5 200 236.1 191.1 239.4 181.9C241.4 176.3 242.1 170.3 242.8 164.4C243.1 162 242.9 159.2 240.7 157.7C238.2 156 235.4 157.2 233.5 159.1C231.5 161.1 230 163.8 228.6 166.1C227.1 168.5 225.8 171 224.8 173.7C223 178.6 222.6 184.3 224.6 189.2C226.6 194.1 230.9 197.4 235.9 198.8C241.3 200.2 246.9 199.3 251.9 197.2C261.5 193.2 270.3 186.1 275.7 177.3C278.3 173 280.1 168.3 280.5 163.3C280.9 158.6 280.2 153.2 276.8 149.7C275.2 148 273 147 270.7 147.3C267.9 147.6 265.9 149.5 264.3 151.7C261.2 156 259.8 161.2 259.4 166.4C259 171.6 259.6 177 260.8 182.1C261.8 186.6 263.7 191.4 267.3 194.6C276 202.2 287.4 196.3 294.1 189.1C297.8 185.1 300.9 180.5 303 175.5C304.9 170.9 306.2 165.6 304.8 160.7C303.6 156.6 300.5 152.6 295.8 152.8C291.2 153 288.5 156.9 287.5 161C286.5 165.3 287 169.8 288.1 174C289.2 178.4 291.1 182.7 294.1 186.1C297.2 189.5 301.7 191.6 306.3 191.4C311.2 191.2 315.9 188.7 319.3 185.2C327.4 177 327.4 164.8 326.8 154.1C326.6 150 325.8 144.7 321.8 142.6C316.9 140.1 312.7 144.3 311.4 148.7C310 153.2 310.4 158.6 311.4 163.1C312.4 167.7 314.4 172.2 317.2 176.1C320 180.1 323.7 183.7 328 186C330.6 187.4 333.4 187.5 335.9 185.7C338 184.2 340 182.3 341.7 180.4C348.7 172.6 353 162.4 353.5 151.8C353.7 147.4 352.6 141.8 347.7 140.3C342.8 138.8 337.8 142.6 335.6 146.7C326.9 163.6 349.4 190.6 366.4 176.7C374.2 170.3 376.2 158.7 375.6 149.2C375.3 143.3 374 137.5 371.7 132C370.8 129.8 369.7 127.3 367.4 126.1C364.8 124.7 362.1 125.9 360.1 127.7C356.4 130.9 354.8 136.3 355.2 141C355.7 146.5 358.4 151.3 361.8 155.5C365 159.5 369.3 163.8 374.9 162.1C380.6 160.3 382.8 154.7 384 149.4C385.9 140.8 387.6 129.9 380.5 123.2C379.2 122 377.6 122.4 376.6 123.7C370.4 132 371.5 144.8 378.9 152C381 154 383.7 155.7 386.7 155.9C390.1 156.1 392.6 154.2 394.4 151.5C397.6 146.9 399.3 141.2 399.5 135.6C399.7 129.3 397.9 122.8 394.3 117.6C393.5 116.4 391.5 115.8 390.4 117.1C383.5 125.1 385.2 137.8 391.8 145.5C395.4 149.7 400.8 151.6 406 149.1C410.9 146.7 413.8 141.1 415.6 136.2C417.7 130 417.9 123.3 416.4 117C415.6 113.9 410.8 115.2 411.6 118.3C413.6 126.4 412.2 137.1 405.9 143.2C403 146 399.3 145.9 396.4 143.1C393.6 140.4 392 136.5 391.3 132.7C390.6 128.6 391.2 123.9 394 120.7C392.7 120.5 391.4 120.4 390.1 120.2C395.1 127.4 396.1 137.3 392.4 145.3C391.6 147.1 390.4 149.7 388.6 150.7C386.8 151.7 384.4 150.2 383.1 149C380.2 146.4 378.4 142.7 377.9 138.9C377.3 134.4 378.4 130 381.1 126.3C379.8 126.5 378.5 126.6 377.2 126.8C382.7 131.9 381.1 140.6 379.7 147.1C378.9 150.8 378 156 373.9 157.4C372 158 370.5 157.2 369.1 155.9C367.6 154.5 366.2 152.9 364.9 151.2C362.5 147.9 360.5 144 360.5 139.8C360.5 138 360.8 136.2 361.5 134.6C362.1 133.3 363.4 131.1 364.9 130.7C366.2 130.3 367 133 367.4 133.9C368.3 136.1 369 138.4 369.6 140.6C370.7 145.2 371.2 149.9 370.9 154.6C370.5 161.5 368.4 170 362.1 173.9C355.1 178.2 347.1 173.1 343 167.2C339.5 162.1 337.1 154.2 340.7 148.5C342 146.4 346.1 143.2 347.9 146.5C349.5 149.5 348.7 154 348.1 157.2C346.5 165.3 342.6 172.9 336.7 178.8C336 179.5 335.2 180.2 334.5 180.8C333.9 181.3 333 182.2 332.2 182.2C330.7 182.2 328.6 180.3 327.5 179.5C324.5 177.1 322 174.2 320.1 170.9C318.2 167.6 316.9 164 316.2 160.2C315.6 156.8 315.4 152.7 316.7 149.4C317.1 148.4 317.9 146.9 319.1 146.8C320.3 146.7 320.9 148 321.3 148.9C321.9 150.4 322.1 152.1 322.2 153.7C322.3 156 322.4 158.4 322.5 160.7C322.6 169 321.3 178.2 314.1 183.5C311.3 185.6 307.6 186.9 304.1 186.1C300.9 185.4 298.4 183.3 296.6 180.5C294.7 177.5 293.6 174.1 292.9 170.6C292.3 167.4 292.1 164.1 293.1 161C293.8 158.9 295.7 156.5 298.1 158C300.6 159.6 301 163.5 300.8 166.1C300.4 170.4 298.5 174.6 296.3 178.3C294.1 182 291.4 185.4 288.2 188.2C285.4 190.6 281.7 192.9 277.9 193.1C274.3 193.3 271.2 191.5 269.2 188.5C267.2 185.4 266.2 181.6 265.6 178C264.9 173.8 264.6 169.5 265.1 165.3C265.5 161.4 266.8 157.2 269.2 154.1C270 153 271.3 151.7 272.7 152.4C274 153 274.9 154.7 275.3 156C277.8 163.4 274.3 171.7 269.9 177.6C265 184.2 257.8 189.7 250.2 192.7C243.2 195.5 232.8 195.5 229.5 187.2C226.2 178.9 232 169.7 236.9 163.3C237.2 162.9 237.5 162.5 237.9 162.2C238 162.1 238.7 161.7 238.5 161.7C238.1 161.7 238.5 161.5 238.4 161.9C238.3 162.2 238.5 162.8 238.4 163.2C238.3 165.4 237.9 167.7 237.6 169.9C236.9 174.4 235.9 179.1 233.9 183.2C230.7 189.7 224.4 195.8 216.7 194.6C213.5 194.1 210.4 192.4 208.8 189.5C206.8 185.7 207.3 180.8 207.3 176.7C207.4 168.8 207.7 160.3 211.2 153.1C212 151.4 213.1 149.7 214.3 148.2C215.2 147.1 216.7 145.4 218.3 145.4C219.6 145.4 218.9 147.9 218.8 148.8C218.5 150.9 218.1 152.9 217.5 154.9C215.2 162.9 210.4 170.4 203.8 175.6C198.7 179.6 189.6 183.3 184.3 177.6C181.7 174.8 181.1 170.6 181.7 167C182.4 162.4 184.6 158.1 186.7 154.1C187.7 152.1 191 147.2 192.8 151.4C194.4 155 190.5 159.5 188.5 162.1C183.4 168.7 176.7 174 169.3 177.7C166.1 179.3 162.6 180.7 159 180.5C157.7 180.4 156.3 180.1 155.3 179.3C153.8 178.1 153.7 176 153.7 174.2C153.4 166.3 154.2 158 157.7 150.9C159.3 147.5 161.6 143.8 164.7 141.6C167.2 139.8 166.4 147.2 166.2 148.1C164.4 156.4 158.7 163.2 153.1 169.2C150.4 172.1 147.6 175.8 143.7 177.1C140.1 178.3 136.4 176.8 133.8 174.2C127.2 167.8 128.8 157.3 130 149.1C130.6 145.3 131.3 141 133.9 138C136 135.7 139.5 134.1 142.3 135.7C141.9 134.8 141.5 133.8 141.2 132.9C138.5 141.5 130.6 153.8 119.8 150.3C115 148.7 111.6 144.1 110.3 139.4C108.4 132.9 109.9 126 112 119.8C113.7 114.9 117.1 104.6 124.3 107.6C123.7 106.6 123.1 105.5 122.6 104.5C121.8 109.3 120 113.9 117.3 118C114.9 121.7 111.5 126 107.1 127.3C105.3 127.8 103.3 127.8 101.7 126.8C99.9 125.7 99.5 123.7 99.5 121.7C99.4 116.4 100.5 111.1 102.5 106.2C103 104.9 101.9 103.5 100.8 103.1C98.1 102.9 97 103.7 96.4 105Z" fill="white"/>
</g>
<mask id="mask3_201_758" style="mask-type:luminance" maskUnits="userSpaceOnUse" x="51" y="51" width="398" height="398">
<path d="M250 448.5C359.629 448.5 448.5 359.629 448.5 250C448.5 140.371 359.629 51.5 250 51.5C140.371 51.5 51.5 140.371 51.5 250C51.5 359.629 140.371 448.5 250 448.5Z" fill="white"/>
</mask>
<g mask="url(#mask3_201_758)">
<path d="M68.3 155.5C78.4 155 86.1 145 84 135C83.6 133.1 81.1 132.6 79.8 133.9C74.3 139.3 70 145.8 67.1 153C64.5 159.4 62.8 166.7 63.9 173.6C64.8 179.1 68 185 73.9 185.9C81.8 187.2 88.2 179.6 92.1 173.8C97 166.6 99.7 158.1 100.1 149.5C100.2 148.2 98.9 146.9 97.6 147C89.8 147.6 83.8 153.2 80.9 160.2C77.4 168.7 78.8 178.8 80.7 187.5C82.1 193.8 85.4 201.5 92.6 202.8C97.2 203.6 101.5 201.5 105.4 199.3C108.8 197.4 112.1 195.2 115.1 192.7C121.7 187.3 127.1 179.9 126.9 171.1C126.9 168.9 124.2 167.9 122.6 169.3C112.4 178.5 103.9 193 105.5 207.3C105.9 210.5 106.7 213.7 108.3 216.5C109.9 219.3 112.4 222.6 115.8 222.9C119.4 223.3 123.2 220.7 126.1 218.9C129 217.1 131.8 215 134.4 212.7C140.4 207.4 145.2 200.9 148.6 193.7C149.2 192.5 148.9 191 147.7 190.3C141.3 186.4 135.2 193.6 132.2 198.5C128.8 204.2 127 211.4 128.9 218C130.6 223.9 135 229 140.8 231C147.1 233.2 153.9 230.7 158.7 226.4C164.8 220.9 167.4 212.8 169.6 205.2C170.5 202.1 165.9 200.9 164.8 203.9C161.6 212.6 158.5 223 164.6 231.1C167 234.3 170.6 236.8 174.7 237.1C179.2 237.5 183.1 234.9 186.3 232C199.2 220.4 206.4 202.7 205.5 185.4C205.4 183.3 205.4 180.8 204 179.1C202.7 177.6 200.8 177.1 198.9 177.5C194.8 178.5 192.3 182.5 190.3 185.8C185.9 193.3 183.6 202 183.8 210.7C183.9 219 186.1 229 192 235.3C197.8 241.5 207.8 242 215.6 240.5C222.8 239.1 229.9 235.5 234.6 229.9C236.9 227.1 238.7 224 239.7 220.5C240.7 216.8 241.2 211.9 237.8 209.2C234.5 206.5 229.6 207.7 226.4 209.9C222.9 212.3 220.3 215.7 219 219.8C216.4 227.8 220.1 236.8 227.3 241C235.5 245.7 245.4 242.9 252.9 238.1C260.2 233.4 266.8 226.8 269.9 218.6C271.3 215 272.7 209.6 270.4 206.1C268.3 202.8 263.6 202.4 260.2 203.6C253.5 206 249.8 213.2 250.1 220C250.4 228 256 234 263.2 236.8C271.2 240 280 238.5 287.5 234.6C291.4 232.6 295.1 229.8 298.4 226.9C301.7 224 304.9 220.7 307 216.8C310.9 209.7 310.5 200.2 303.2 195.4C296.6 191.1 289.3 195.5 286.8 202.1C284.2 208.9 286.5 216.3 291.6 221.3C296.8 226.4 304.2 228.8 311.4 228.7C319.4 228.6 326.6 225.1 332.4 219.8C338.6 214.1 342.9 206.6 345.7 198.7C347.2 194.6 348.4 189.6 344.2 186.6C340.9 184.3 336.3 183.9 332.4 184.6C324.1 186.2 318.2 193.9 318.7 202.4C319.2 210.5 325.2 216.4 332.8 218.6C348.7 223.2 366.7 213.9 376.8 201.8C379.6 198.4 382.5 194.5 383.2 190.1C383.8 186 382.1 181.4 378 179.8C369.2 176.2 362.6 189.2 361.5 196C360.1 204.5 362.8 213.1 369.1 219.1C372 221.9 375.9 224.5 379.9 225.3C384.8 226.3 387.7 222.2 390.3 218.8C395.5 211.9 399 203.6 400.4 195.1C401.8 186.9 401.9 177.6 399 169.7C397.6 165.9 394.4 162.3 389.9 163.9C386.1 165.3 383.9 169.5 382.8 173.2C380.8 180.2 382.3 188.1 386.6 193.9C388.9 197 392.1 199.7 395.8 200.9C400.2 202.3 404.2 200.4 407 197C412.3 190.5 414.8 181.4 414.8 173.1C414.8 164.7 412.4 156.4 407.6 149.5C406.7 148.2 404.9 147.8 403.7 149C395.6 157.3 394.2 171.8 401.9 180.8C405.5 185 411.7 188 417.1 185.7C420 184.5 422 181.9 423.2 179.1C424.7 175.8 425.8 172.4 426.7 168.9C427.6 165.3 428.1 161.6 428.4 157.9C428.6 154.9 428.9 151.3 426.7 148.9C421.2 143 414.4 152.4 412.4 156.9C409.8 162.7 409.5 169.6 413.1 175C416.4 180 422.2 183.1 428.3 181.9C435.4 180.5 440.1 173.7 442.8 167.6C446.1 160.1 447.5 151.8 446.5 143.6C446.1 140.4 441.1 140.4 441.5 143.6C442.7 153.7 440.5 166.1 433 173.6C429.8 176.8 425.4 178.4 421.3 176.1C417.3 173.9 415.2 169.6 415.4 165.1C415.5 162.8 416.2 160.5 417.2 158.4C418.2 156.4 419.8 153.3 422 152.4C423.8 151.6 423.5 154.8 423.4 155.8C423.3 158.8 423 161.8 422.4 164.8C421.9 167.5 421.1 170.2 420.2 172.9C419.4 175.3 418.5 178.1 416.8 179.9C413.8 183 409 180.8 406.4 178.3C399.3 171.6 400.6 159 407.1 152.4C405.8 152.2 404.5 152.1 403.2 151.9C410.9 163 411.9 178.2 405.4 190.1C404.1 192.6 401.9 196.4 398.7 196.4C395.9 196.4 393.1 193.9 391.3 192C387.7 188 386 182 386.9 176.7C387.3 174.1 388.4 170.3 390.8 168.9C393.5 167.3 394.5 173.1 394.8 174.7C396.3 181.3 396.3 188.4 395 195C393.7 201.8 391.1 208.2 387.3 213.9C386.3 215.4 385.3 216.8 384.1 218.1C383 219.4 382.1 220.8 380.2 220.3C377.2 219.6 374.4 217.6 372.2 215.5C367.3 210.8 364.9 204.2 365.9 197.5C366.4 194.2 367.7 190.9 369.6 188.2C371.1 186.1 374.5 182.3 376.9 185.3C379.2 188.1 377.2 192 375.6 194.5C373.8 197.4 371.5 200 369.1 202.3C364.2 207 358.3 210.6 351.9 212.7C346.2 214.6 339.9 215.4 334 213.8C328.5 212.3 323.6 208.2 323.3 202.1C323 195.6 327.5 190.1 334 189.3C336.2 189.1 341.5 189.2 341.7 192.2C341.8 193.8 341 195.6 340.5 197.1C339.9 198.7 339.3 200.3 338.6 201.8C333.4 212.9 323.8 223.6 310.7 223.7C300.8 223.8 287.6 216.6 290.7 204.9C291.9 200.4 296.3 196.4 300.8 200.1C306.1 204.4 304.2 211.7 300.8 216.5C296.8 222.2 290.7 227.1 284.6 230.3C278.7 233.3 272 234.6 265.6 232.5C260.3 230.8 255.4 226.6 254.7 220.9C254.1 216.1 256.3 210.4 261 208.4C262.1 207.9 263.4 207.7 264.5 208C266.1 208.4 266.2 209.7 266.1 211.1C265.9 214.5 264.6 217.9 262.9 220.8C259.4 226.8 253.8 231.7 247.8 235.1C241.9 238.4 234 240.3 228.1 235.8C223 231.9 221.3 224.8 224.3 219.2C225.7 216.6 228 214.1 230.9 213.1C232 212.7 233.6 212.4 234.5 213.3C235.5 214.3 235.1 216.6 234.9 217.9C233.9 223.3 230.4 227.9 225.9 231C221.1 234.3 215.4 236.2 209.6 236.4C206.4 236.5 203.2 236.2 200.2 235.2C196.6 234 194.2 231.3 192.5 228C186.2 215.9 187.5 200.2 194.4 188.6C195.2 187.3 196 185.9 197 184.7C197.5 184.1 199.2 182.2 200.2 182.6C199.8 182.4 200.1 183.7 200.2 184.1C200.3 185 200.3 185.9 200.3 186.7C200.4 188.5 200.3 190.2 200.2 192C199.8 198.8 198 205.6 195 211.7C192 217.9 188 223.5 182.9 228.2C180.6 230.4 177.6 232.8 174.2 232.2C171.2 231.7 168.8 229.4 167.4 226.9C163.6 220.2 166.9 211.9 169.3 205.3C167.7 204.9 166.1 204.4 164.5 204C162.9 209.4 161.2 214.8 158 219.5C155.2 223.5 150.6 226.9 145.6 227C141 227.1 137 224.1 134.8 220.2C132.2 215.7 132.4 210.4 134 205.6C135 202.8 136.5 200.2 138.4 197.9C139.7 196.3 142.5 193.3 144.8 194.7C144.5 193.6 144.2 192.4 143.9 191.3C138.8 202.2 130.3 211.2 119.7 216.7C118.5 217.3 116.8 218.5 115.5 217.9C114.4 217.4 113.4 215.9 112.8 214.8C111.4 212.5 110.5 209.8 110.2 207.1C109.6 201.5 110.9 195.8 113.1 190.7C116 183.9 120.4 177.9 125.9 173C124.5 172.4 123.1 171.8 121.6 171.2C121.7 177.4 118.4 182.6 114 186.8C111.7 189 109.1 190.9 106.4 192.7C103.5 194.6 100.4 196.6 97.1 197.6C90.6 199.5 87.3 193.9 85.7 188.5C83.7 181.4 82.4 173.1 84 165.9C85.4 159.5 90.1 152.7 97.2 152.2C96.4 151.4 95.5 150.5 94.7 149.7C94.4 156.1 92.6 162.5 89.5 168.1C87.9 171 86 173.6 83.8 176.1C81.8 178.3 79.3 180.7 76.3 181.3C71.3 182.2 69 176.8 68.3 172.8C67.4 167.2 69 161.2 70.9 156C73.4 149.1 77.6 142.8 82.8 137.7C81.4 137.3 80 137 78.6 136.6C80 143.3 74.5 150.4 67.7 150.7C65.1 150.7 65.1 155.7 68.3 155.5Z" fill="white"/>
</g>
<mask id="mask4_201_758" style="mask-type:luminance" maskUnits="userSpaceOnUse" x="51" y="51" width="398" height="398">
<path d="M250 448.5C359.629 448.5 448.5 359.629 448.5 250C448.5 140.371 359.629 51.5 250 51.5C140.371 51.5 51.5 140.371 51.5 250C51.5 359.629 140.371 448.5 250 448.5Z" fill="white"/>
</mask>
<g mask="url(#mask4_201_758)">
<path d="M48.6 189.4C45.8 199.2 43.3 212.5 53.2 219.4C57.5 222.4 63.2 222.3 67.9 220.4C72.8 218.4 76.5 214.4 79.2 209.9C81.6 206 85.5 199.7 82.4 195.3C79.5 191.2 73.7 191.3 70 194.2C66.1 197.2 63.9 202.5 62.7 207.2C61.3 212.3 61.2 217.7 62 222.9C62.8 227.9 64.8 233.7 68.3 237.5C72.3 241.9 77.9 240.2 82.9 238.6C92.5 235.5 102.5 229.2 102.8 217.9C102.9 213.8 100.9 207.1 95.9 206.7C93.4 206.5 91.6 208.4 90.1 210.2C88.5 212.1 87.2 214.3 86.1 216.5C82.2 224.9 81.9 234.9 85.4 243.5C87.5 248.6 91.1 253.5 96 256.3C101.4 259.4 107.4 258.9 112.8 256.2C123 251.1 129.6 240.5 130.8 229.3C130.9 228.3 130 227 129 226.9C121.9 225.8 114.5 229 110.9 235.4C107.5 241.5 108.6 249.3 112.9 254.7C117.3 260.1 124.6 261.6 131.2 260C138 258.4 143.8 253.8 147.4 247.8C152.2 240.1 153.7 230.8 154.9 222C155.2 220.2 153.2 217.7 151.2 219.2C139.2 228.4 133.4 245.7 139.2 260C142.1 267.2 149.2 273.4 157.1 269.3C160.7 267.4 163.6 264.1 166 260.9C168.7 257.5 171 253.8 172.8 249.8C174.6 245.9 176.1 241.7 176.9 237.4C177.6 234 177.8 229.8 174.2 227.8C170.4 225.7 166.4 228.8 163.8 231.4C160.7 234.4 157.7 237.5 155.1 241C150.3 247.4 147.5 255.1 148.8 263.1C150 270.6 155.2 276.9 162.7 278.5C177.9 281.9 194.1 271.4 200.9 258.1C202.6 254.8 204.1 251 204.4 247.3C204.7 243.5 202.5 239.5 198.3 239.4C190.1 239.3 186 250.6 184.9 257.2C184.2 261.3 184.2 265.5 185 269.6C185.7 273.3 187 277.6 189.8 280.3C196.3 286.7 205.8 278.2 210.7 273.6C216.7 268 221.4 261.1 224.4 253.5C225.7 250.2 226.9 246.7 226.3 243.1C225.7 239.5 222.8 236.6 219 237.3C215 238 212.4 242.1 210.8 245.4C209 249.1 207.9 253.2 207.7 257.3C207.3 264.7 209.9 274.9 217.6 277.8C225.5 280.8 234 274.8 239.6 269.8C245.6 264.4 250.3 257.6 253.4 250.1C254.9 246.5 255.9 242.7 256.5 238.8C256.8 236.8 255.4 235.4 253.4 235.7C246.6 236.8 241.6 242.1 238.8 248.1C235.8 254.7 233.9 263.2 235.2 270.4C236.7 278.5 245.4 282.3 252.9 280C261.1 277.6 267.2 269.8 271 262.5C275.5 253.9 277.5 244.1 276.5 234.4C276.3 232.6 274.5 231.1 272.7 232.2C260.9 239.6 254.3 255.8 259.3 269.2C260.5 272.5 262.6 275.8 265.9 277.3C269.6 279 273.2 277.6 276.4 275.6C282.7 271.7 287.9 266.1 291.4 259.6C295.4 252.2 297.3 243.7 296.4 235.3C296.2 233.1 293 231.6 291.7 234C287.8 241.7 283.5 250.3 284.5 259.2C285.3 266.2 289.3 273.2 296 275.9C310.8 281.9 321.6 263 323.4 251C324.5 243.9 323.2 236 316.5 232.1C315.2 231.4 313.9 231.9 313.1 233C304.1 244.9 303 263.3 311.9 275.7C314.2 278.9 317.2 281.5 321.3 281.9C325.4 282.3 329.3 280.3 332.4 277.8C338.3 273.1 342.6 266.2 344.9 259C347.2 251.8 347.6 243.9 345.7 236.5C344.8 232.9 342.7 229.3 338.7 228.7C335.1 228.2 331.5 230 329 232.5C320.6 241.1 324.4 258 336.2 261.4C343.1 263.4 350.9 260.3 355.5 255C357.9 252.2 359.6 248.8 359.9 245C360.4 239.9 358.6 234.9 356.8 230.2C356.1 228.4 353.3 227.5 352.2 229.6C348.8 236.6 345.9 244.6 346.8 252.6C347.6 260 352.4 266.5 359.8 268.4C366.7 270.1 374.2 268 379.6 263.5C385.9 258.3 388.6 249.9 388.9 242C389 237.7 388.5 233.4 387.5 229.3C386.6 225.6 385.1 221.7 382.2 219C379.3 216.3 375.3 215.5 371.8 217.6C368.5 219.6 366.3 223.4 364.9 226.9C362.3 233.8 363.2 242.2 367.5 248.2C371.8 254.2 379.1 257.4 386.4 256.9C394.1 256.4 400.8 252.1 404.2 245.1C406.1 241.3 407 237.1 407.5 232.9C408 229 408.5 225 408.2 221.1C407.9 217.6 407 213.8 404.3 211.4C402.7 209.9 401.2 209.4 399.2 210.5C397.9 211.2 396.7 212.2 395.7 213.4C391.7 218.5 392.1 226.3 395.4 231.7C399.5 238.6 408.1 241.4 415.6 242.6C423.4 243.9 433.7 245.9 439.7 239.2C446 232.2 444.5 222.5 441.8 214.3C439.5 207.4 435.7 197.4 426.5 199C422.3 199.7 418.2 202.4 414.8 205C411.5 207.5 408.7 210.6 407.2 214.5C404.8 220.8 407.4 229.4 414.3 231.6C422 234 427.9 227.1 431 221C432.9 217.2 434.2 213.2 435.5 209.1C436.8 204.7 437.9 200.1 438 195.5C438.1 191 437.2 186.6 435.2 182.6C434.5 181.3 432.2 180.9 431.3 182.1C425.9 189.1 425.6 199.1 431.3 206.1C436.8 212.8 446.7 214.4 454.3 210.7C457.2 209.3 454.7 205 451.8 206.4C446.3 209.1 439.2 207.6 435.2 203C431.1 198.3 431 190.6 434.8 185.7C433.5 185.5 432.2 185.4 430.9 185.2C434 191.5 433.2 198.6 431.4 205.1C429.8 211 427.9 217.4 424.3 222.4C421.8 226 416.5 229.4 413 224.8C409.6 220.3 411.8 214.5 415.5 210.9C417.7 208.7 420.4 207.1 423.1 205.6C425.8 204.1 428.9 202.8 431.6 205.1C433.6 206.9 434.8 209.7 435.7 212.1C437 215.6 438.3 219.2 438.9 222.9C439.8 228.5 438.5 236 432.4 238C429.2 239.1 425.7 238.6 422.5 238.3C419.4 238 416.3 237.6 413.3 236.9C407.4 235.6 400.8 232.8 398.7 226.6C397.2 222.1 397.8 216.3 402.7 214.2C401.9 214.2 401 214.2 400.2 214.2C405.1 217.3 403.4 226.1 402.9 230.8C402.2 237.3 400.6 244.8 394.9 248.7C390.2 252 383.9 252.5 378.7 250.5C373.1 248.3 369.5 243 368.8 237.1C368.5 234.2 368.8 231.3 369.7 228.6C370.6 226 372.7 221.9 375.6 221.2C378.4 220.6 380.4 224.1 381.4 226.2C382.8 229.2 383.4 232.7 383.7 236C384.4 242.8 383.6 250 379.7 255.8C376.6 260.5 371 263.4 365.5 263.6C358.7 263.9 353.3 259.7 352 253C350.6 245.9 353.5 238.1 356.6 231.8C355.1 231.6 353.6 231.4 352 231.2C354.2 237 356.7 243.5 353.2 249.3C350.8 253.3 346.1 256.4 341.4 256.6C332 257.1 326.9 246.1 330.8 238.2C331.8 236.3 333.3 234.6 335.3 233.7C339 232.1 340.3 234.9 341.1 238C342.4 243.7 342.2 249.8 340.7 255.4C339.1 261.2 336.2 266.6 332 270.9C329.8 273.2 327.3 275.4 324.2 276.2C320.9 277.1 318.2 275.3 316.3 272.7C308.3 261.7 309.5 245.6 317.5 235.1C316.4 235.4 315.2 235.7 314.1 236C318.5 238.6 319.2 243.9 318.8 248.6C318.2 254.1 316 259.5 312.9 264C310 268.3 305.1 272.6 299.5 271.4C294 270.2 290.6 264.5 289.7 259.3C288.4 251.2 292.7 243.1 296.2 236.2C294.6 235.8 293.1 235.4 291.5 234.9C292.7 247.1 287.8 259.5 278.5 267.6C276.3 269.5 273.4 272 270.5 272.6C267.6 273.2 265.6 270.5 264.6 268.2C262.2 263.1 262.5 256.8 264 251.5C265.8 245.2 269.8 239.6 275.4 236.1C274.1 235.4 272.9 234.7 271.6 233.9C272.3 241.1 271.4 248.2 268.8 254.9C266.3 261.3 262.1 268 256.5 272.1C252 275.4 243.2 277.1 240.6 270.4C239.4 267.3 239.9 263.5 240.3 260.3C240.7 257.4 241.4 254.6 242.4 251.9C244.5 246.1 248.4 240.9 254.8 239.9C253.8 238.9 252.7 237.8 251.7 236.8C249.8 249.1 243.1 260.7 233 268.1C228.5 271.4 220.7 275.9 216.2 270.1C212.4 265.3 212 257.8 213.4 252.1C214.2 249 215.5 245.8 217.6 243.4C218.2 242.7 219.5 241.2 220.6 241.7C221.5 242.1 221.5 243.6 221.5 244.4C221.5 247.2 220.2 250.2 219.1 252.7C217.8 255.6 216.3 258.3 214.5 260.9C211 266.1 206.5 270.6 201.3 274.2C199.1 275.7 195.5 278.5 193.1 276C191 273.8 190.2 270.2 189.7 267.3C188.5 260.8 189.8 253.8 193.1 248.1C193.8 246.8 196.9 242.5 198.8 244C200.6 245.4 198.5 250.2 197.9 251.9C193.9 262.7 183.8 271 172.5 273.1C166.4 274.2 159.3 273.2 155.8 267.6C152.9 263 152.7 257.2 154.3 252.1C156.4 245.6 161 240.4 165.7 235.7C166.6 234.8 171 229.9 172 232.2C172.5 233.3 171.9 235.1 171.7 236.1C171.3 237.8 170.9 239.6 170.3 241.3C168.2 247.7 164.9 253.7 160.5 258.8C158.5 261.1 156.2 263.9 153.2 264.8C150.3 265.7 147.7 264 146 261.8C142.4 257.4 141.5 251 141.8 245.4C142.2 239.6 144.2 233.9 147.6 229.1C149.2 226.8 151.3 224.7 153.5 222.9C152.3 222 151.1 221 149.8 220.1C148.1 231.7 146.1 246.1 134.8 252.5C130.5 254.9 124.9 256.1 120.2 253.9C115.4 251.6 112.6 245.9 113.6 240.7C114.7 234.6 121.1 230.2 127.2 231.1C126.6 230.3 126 229.5 125.4 228.7C124.6 236.1 120.8 243 115.1 247.8C112.1 250.3 108.3 252.6 104.3 252.9C100.4 253.1 96.9 251 94.3 248.3C89.4 243.1 87.2 235.8 87.5 228.8C87.6 225.4 88.4 222 89.7 218.9C90.4 217.3 91.2 215.8 92.2 214.4C92.7 213.7 93.2 213 93.7 212.4C94 212.1 94.3 211.5 94.7 211.3C95.3 211 94.9 211 95.4 211.3C96.6 212.1 97.1 214.5 97.2 215.7C97.4 217.5 97.1 219.3 96.5 221C95.2 224.6 92.5 227.4 89.2 229.4C85.7 231.5 81.8 232.9 77.8 234C76 234.5 73.8 235.2 72.1 234C70.7 233 69.8 231 69 229.5C65.4 222.2 65 213.5 67.5 205.9C68.6 202.7 70.4 198.1 73.7 196.7C74.8 196.2 76.5 196.2 77.4 197.2C78.8 198.6 77.1 201.1 76.4 202.6C74.5 206.7 72.1 210.8 68.3 213.5C65 215.9 60.4 217.1 56.5 215.3C52.9 213.6 50.9 209.5 50.4 205.7C49.6 200.4 51.3 195.1 52.8 190.1C54.3 187.6 49.5 186.3 48.6 189.4Z" fill="white"/>
</g>
<mask id="mask5_201_758" style="mask-type:luminance" maskUnits="userSpaceOnUse" x="51" y="51" width="398" height="398">
<path d="M250 448.5C359.629 448.5 448.5 359.629 448.5 250C448.5 140.371 359.629 51.5 250 51.5C140.371 51.5 51.5 140.371 51.5 250C51.5 359.629 140.371 448.5 250 448.5Z" fill="white"/>
</mask>
<g mask="url(#mask5_201_758)">
<path d="M37.3 232.9C39.2 240.7 38 249.3 42.2 256.5C45.5 262.1 51.9 266.5 58.5 264.1C64.1 262.1 66.8 256.3 67.8 250.9C68.8 245.7 70.1 236.3 63.2 234.8C60.2 234.1 57 235.3 55 237.7C52.8 240.4 52.2 243.9 51.9 247.3C51.2 255.6 52.3 264.1 55.1 271.9C57.5 278.6 61.2 285.6 69.2 285.7C76 285.8 82 281.1 84.9 275.2C86.5 271.8 87.4 268.2 87.9 264.5C88.4 261.3 89.1 257.6 88.1 254.4C87.1 251.4 84.2 249.3 80.9 250.3C77.4 251.4 75.2 255.1 73.6 258.1C70.3 264.3 68.8 271.6 69.3 278.6C69.9 285.5 72.2 293.6 77.5 298.4C82.6 303.1 89.8 303 95.8 300.1C102.4 296.9 106.3 290.3 108.7 283.6C110.6 278.4 113.9 270.6 110.2 265.4C108.4 262.8 105 262.6 102.5 264.5C100.2 266.3 98.6 269.1 97.6 271.8C93.5 282.4 98.4 296.4 109.1 301C112.7 302.6 116.5 302.8 119.8 300.4C122.7 298.2 125.1 294.9 127.1 291.8C131.1 285.6 133.7 278.4 134.7 271C135.2 267.4 135.3 263.7 135 260C134.8 258.3 132.9 256.7 131.2 257.8C119.5 265.9 114.2 280.6 116.4 294.5C117 298 118.1 301.3 119.6 304.4C121.2 307.6 123.5 311.3 126.7 313.1C134.9 317.5 142.4 306.8 146.3 301.1C151.9 292.6 155.3 282.9 156.5 272.8C156.7 270.9 154.2 269.8 152.7 270.6C142.5 276.6 137.2 289 139.5 300.5C140.7 306.3 144.4 312.7 151.3 311.2C157.2 309.9 162.3 304.9 165.4 299.9C169 294.1 170.2 287.1 169 280.4C168.7 278.6 166 277.9 164.8 279.3C160 284.7 156.6 291.2 155 298.3C154.2 301.9 153.8 305.6 154 309.2C154.2 312.6 154.6 316.3 156.6 319.1C160.6 324.9 168.2 324.2 173.8 321.5C179.8 318.6 184.9 313.2 188.6 307.7C193 301.1 195.5 293.5 196 285.6C196.1 283.6 193.8 282.6 192.2 283.4C181.3 289.1 174.2 302.5 177.2 314.7C178.6 320.4 182.7 325.9 189 326.1C196 326.4 201.5 320 205.3 314.9C210.1 308.4 213.4 300.8 215 292.9C215.6 289.7 211.4 288.6 210.2 291.6C207.7 297.7 206.3 304.2 206.4 310.8C206.4 316.3 208.6 322.1 214.9 322.4C221.1 322.8 225.2 317.7 228.3 313C231.7 307.7 235.2 302.2 236.2 295.9C237.1 289.9 235.6 283.3 230.7 279.4C229.7 278.6 228.1 278.3 227.2 279.4C218.9 288.7 217.2 305.5 226.7 314.7C229.1 317 232.2 318.4 235.6 318C239.2 317.6 242.1 315.4 244.7 313.2C250.2 308.5 255.2 303.1 259.1 297.1C263.3 290.5 265.9 282.8 264.9 274.9C264.7 273.2 263.5 272.2 261.7 272.5C254.4 273.9 248.6 279.3 245.6 286C242.3 293.4 242.7 301.7 245.8 309.1C247.4 313.1 249.7 316.7 252.4 320.1C254.6 322.9 257.5 326.8 261.4 326.6C265.3 326.4 268.8 322.5 271.3 319.8C274 316.8 276.3 313.5 278.1 310C282.1 302.1 283.9 293.1 282.9 284.2C282.7 282.2 280.3 280.7 278.6 282.4C273.9 287.4 269.7 293.3 269 300.3C268.4 306.3 270.8 312.9 276.2 316.1C281.4 319.2 287.9 318.4 293 315.6C298.9 312.4 302.4 306.4 304.6 300.3C305.8 296.9 306.9 293.2 307.4 289.5C307.8 286.2 307.3 282.8 304.3 281C303.4 280.4 302 280.6 301.3 281.4C296.7 285.9 292.2 291.3 291 297.8C289.9 303.5 291.3 310.1 296 313.9C305.4 321.5 318.6 314 322.8 304.4C325.9 297.3 326 289.4 325.9 281.7C325.9 279.7 323 278.1 321.6 279.9C313.6 290.1 312.7 305.2 320.5 315.8C324.2 320.9 330.3 324.9 336.8 322.8C342.7 320.9 346.5 315.2 348.7 309.7C352 301.6 352.7 292.2 351.9 283.6C351.7 281.7 349.9 280.5 348.1 281.4C342.4 284.5 339.5 291 339.9 297.4C340.3 304.1 344.1 309.9 350.2 312.7C356.7 315.8 364.5 315.5 370.9 312.3C377.7 308.9 382.5 302.3 385.1 295.3C386.3 292 387.5 288.2 387.1 284.7C386.8 281.5 384.8 278.3 381.3 278.3C377.5 278.3 375.1 282 373.6 285C371.9 288.3 370.5 291.9 370.3 295.7C370.1 299.2 371.1 302.8 373.7 305.2C376.5 307.8 380.4 308.7 384.1 308.8C391.3 308.9 398.1 305.3 403 300.2C416.8 285.6 411.7 264.2 401.8 248.9C400.9 247.5 399.1 247.3 397.9 248.4C387.7 256.9 385.7 273.3 393 284.3C394.9 287.1 397.4 290 400.7 291.3C404.7 292.8 408.6 290.9 411.7 288.4C417.2 283.9 419.9 276.9 421.1 270.2C421.8 266.7 422.2 263.1 422.4 259.5C422.7 256 422.9 252 420.5 249C415.4 242.6 407.5 248.6 405.5 254.5C403.3 260.8 406.6 268.1 411.3 272.3C416.1 276.8 422.9 279.2 429.5 277.8C443.7 274.7 448.5 255 439 244.8C437.9 243.6 435.9 244 435.1 245.3C428.9 255.3 429.4 268.9 436.7 278.2C437.6 279.3 439.5 280.1 440.6 278.7C448.9 268.5 453.9 255.9 454.5 242.7C454.6 240.1 454.5 237.1 452.5 235.1C450.8 233.4 448.1 233 446 234.3C441.1 237.4 441.7 244.3 442.9 249.1C444.7 256.1 448.4 262.4 453.6 267.4C455.9 269.6 459.5 266.1 457.1 263.9C452.7 259.6 449.5 254.4 447.8 248.4C447.1 245.8 446.3 242.9 447.3 240.4C448 238.5 449.1 237.6 449.4 240.2C449.7 243.1 449.1 246.4 448.6 249.2C448 252.3 447.2 255.3 446.2 258.3C444.1 264.4 440.9 270.1 436.9 275.1C438.2 275.3 439.5 275.4 440.8 275.6C434.6 267.6 433.9 256.4 439.2 247.8C437.9 248 436.6 248.1 435.3 248.3C441.2 254.7 439.5 266.5 432.2 271.2C423.8 276.7 411.9 270 410 260.7C409.5 258.3 409.8 255.9 411.2 253.9C412.2 252.5 414.4 250.3 416.1 251.7C418.1 253.2 417.4 257 417.3 259.2C417.1 261.9 416.8 264.7 416.4 267.4C415.5 272.6 414.1 278.2 410.6 282.4C409 284.3 406.3 286.9 403.7 287C401.1 287.1 398.8 284.3 397.5 282.4C391 273.2 392.7 259.4 401.4 252.1C400.1 251.9 398.8 251.8 397.5 251.6C404.4 262.3 409.8 276.7 404.5 289.2C402.3 294.2 398.6 298.6 393.8 301.4C389.4 303.9 382.6 305.5 378 302.5C373 299.2 375.8 291.9 378 287.7C378.5 286.8 380.8 282 382 284.1C383.1 286 381.9 289.6 381.3 291.5C378.2 302.3 368.6 312.2 356.5 309.7C350.8 308.5 346.2 304.7 345.2 298.9C344.3 293.9 346.2 288.4 350.8 285.9C349.5 285.2 348.3 284.5 347 283.7C347.6 290.3 347.2 296.9 345.6 303.4C344.4 308.2 342.3 313.4 338.3 316.5C333.9 319.9 328.9 318 325.6 314.1C322.3 310.2 320.5 305 320.3 299.9C320.1 294.1 321.7 288.1 325.3 283.5C323.9 282.9 322.5 282.3 321 281.7C321.1 288.6 321.3 296.1 318.3 302.5C316 307.4 311.4 311.5 305.8 311.9C299.9 312.4 295.9 307.8 295.7 302C295.5 295.1 300.3 289.4 304.9 284.9C303.9 285 302.9 285.2 301.9 285.3C303.9 286.5 302.2 291.1 301.8 292.8C301 296.1 300 299.4 298.5 302.4C295.8 307.7 291.4 312.3 285.2 313C279.2 313.7 274.7 309.5 274.1 303.6C273.4 296.7 277.8 290.7 282.3 285.9C280.9 285.3 279.5 284.7 278 284.1C279.6 297 274.7 310.3 265 319C264.1 319.8 262.4 321.7 261 321.4C259.7 321.1 258.2 318.9 257.4 318C255.1 315.3 253.1 312.4 251.5 309.2C248.6 303.4 247.4 296.5 249.4 290.2C251.4 283.8 256.4 278.4 263.2 277.2C262.1 276.4 261.1 275.6 260 274.8C261.5 286.7 254.2 297 246.2 305C243 308.2 237.3 315.1 232.2 312.5C227.7 310.2 225.7 303.9 225.4 299.2C225 293.3 226.8 287.3 230.8 282.9C229.6 282.9 228.4 282.9 227.3 282.9C231.5 286.4 232.3 292.1 230.9 297.1C230.1 300.2 228.6 303 227 305.8C225.4 308.4 223.8 311.2 221.9 313.6C220.2 315.7 217.9 317.8 215 317.4C212.1 317.1 211.6 314.1 211.5 311.7C211.2 305.2 212.6 298.8 215.1 292.9C213.5 292.5 211.9 292 210.3 291.6C208.9 298.9 206 305.8 201.6 311.8C198.4 316.2 191.1 324.9 185.3 319.3C180.8 315 181.1 307.5 182.8 302C184.8 295.8 189.1 290.6 194.9 287.6C193.6 286.9 192.4 286.2 191.1 285.4C190.4 296.7 184.6 307.6 175.5 314.4C172.1 316.9 165.8 320.5 161.8 317.2C159.6 315.4 159.2 311.9 159.1 309.3C158.9 306.4 159.1 303.5 159.6 300.7C160.8 294 163.8 287.7 168.3 282.6C166.9 282.2 165.5 281.9 164.1 281.5C165.2 287.4 163.6 293.5 160.2 298.3C157.8 301.7 149.8 309.8 146.1 304.1C143.1 299.5 143.3 292.9 144.8 287.9C146.4 282.3 150.1 277.5 155.1 274.5C153.8 273.8 152.6 273.1 151.3 272.3C150.5 279.8 148.1 287 144.5 293.6C142.7 296.8 140.6 299.9 138.3 302.8C136.4 305 133.1 309.2 129.7 308.5C127 307.9 125.1 303.9 123.9 301.7C122.6 299.2 121.8 296.5 121.3 293.8C120.2 288.2 120.8 282.3 122.5 276.9C124.5 270.8 128.3 265.4 133.6 261.7C132.3 261 131.1 260.3 129.8 259.5C130.8 270.7 127.7 282.1 120.9 291.2C119.4 293.2 117.2 296.6 114.4 296.7C112.1 296.8 109.6 295.4 107.9 294C104.6 291.4 102.5 287.5 101.6 283.5C100.7 279.6 101 275.2 102.8 271.5C103.2 270.7 103.7 269.8 104.3 269.1C104.6 268.6 105 268.2 105.5 267.8C105.9 267.4 106.2 267.7 105.9 267.6C106.9 268.3 106.7 271 106.6 272C106.2 274.7 105.2 277.5 104.3 280.1C103.4 282.8 102.3 285.4 100.9 287.8C98.3 292.2 94.1 295.8 88.8 296.5C77.1 298 73.6 281.9 74.1 273.2C74.4 267.8 76.1 262.4 79.1 257.8C79.8 256.7 82.4 252.7 83.2 255.6C83.8 257.9 83.2 260.9 82.8 263.3C82 268.6 80.5 274.6 75.9 277.9C72.1 280.6 66.8 281.4 63.5 277.5C61.5 275.2 60.5 272.2 59.5 269.4C58.5 266.4 57.7 263.4 57.2 260.3C56.7 257.2 56.5 254 56.5 250.9C56.5 248.1 56.6 245 57.6 242.3C58.3 240.6 59.8 238.7 61.9 239.2C63.9 239.7 63.3 243.2 63.2 244.7C63.1 248.7 62.3 253.5 59.7 256.7C56.7 260.4 51.8 259.8 48.6 256.6C44.2 252.3 43.7 246.2 43.2 240.4C42.9 237.3 42.6 234.1 41.8 231.1C41.3 228.4 36.5 229.7 37.3 232.9Z" fill="white"/>
</g>
<mask id="mask6_201_758" style="mask-type:luminance" maskUnits="userSpaceOnUse" x="51" y="51" width="398" height="398">
<path d="M250 448.5C359.629 448.5 448.5 359.629 448.5 250C448.5 140.371 359.629 51.5 250 51.5C140.371 51.5 51.5 140.371 51.5 250C51.5 359.629 140.371 448.5 250 448.5Z" fill="white"/>
</mask>
<g mask="url(#mask6_201_758)">
<path d="M46.7 320.3C56.3 313.8 60.7 300.8 56.6 289.9C55.9 287.9 53.2 287.4 52 289.3C45.7 299.7 41.2 316 52.3 325C56.2 328.2 61.4 330.1 66.5 329.4C72.5 328.5 76.3 323.9 78 318.4C80.5 310.1 80.1 300.9 77.6 292.7C77.2 291.2 75.3 290.3 73.9 291.2C67.9 295.2 64.7 301.8 63.9 308.8C63 316.9 65.8 324.9 69.2 332C70.8 335.3 72.4 339 75.3 341.4C78.1 343.7 81.6 344.3 85.1 343.7C92.6 342.3 97 335.6 99.1 328.8C101 322.9 104.4 312.4 96.9 309C93.7 307.5 90.1 308.7 88.7 312C87.2 315.3 87.3 319.6 87 323.1C86.3 330.9 86.8 339.6 91.6 346.1C95.6 351.5 102.2 355.6 109.1 354.5C117.5 353.3 122.7 344.9 125.6 337.6C128.8 329.3 129.2 320 126.9 311.3C126.4 309.4 124.1 309 122.7 310.2C117 315 112.7 321.2 109.9 328.1C107.2 334.8 105.4 343.2 108.7 350C113.7 360.6 128.7 362.4 138.2 357.4C144.2 354.3 148.7 348.7 151.9 342.8C153.6 339.7 154.9 336.5 156.1 333.2C157.3 329.9 159 326 158.3 322.5C157.6 319.2 154.7 317.1 151.4 317C148 316.9 145.2 318.9 143.2 321.6C139.1 327.3 138 335.6 138.4 342.5C139.1 355.1 147.6 375.3 163.4 371C170.6 369.1 176.5 363.4 181 357.7C183.3 354.7 185.4 351.4 186.9 348C188.4 344.7 190.1 340.9 190.3 337.3C190.7 330 182.3 328.5 176.8 330.4C171.1 332.4 166.4 336.4 162.8 341.2C155.7 350.8 153.8 364.2 159 375.1C162.1 381.6 168 386 175.5 385C182.6 384.1 188.8 379.5 193.4 374.2C202.8 363.7 208.2 349.6 208.1 335.5C208.1 332 207.7 328.4 207.1 324.9C206.7 322.9 204.2 322.6 202.9 323.8C191.2 334.5 186.1 351.4 189.5 366.8C190.3 370.4 191.4 374.9 193.9 377.8C196.9 381.3 201.8 380.3 205.6 378.8C213 375.8 218.5 369.4 221.6 362.2C226 352 225.5 340.6 224.8 329.7C224.7 328.1 223.3 326.8 221.6 327.3C209.1 331.1 200.3 347.3 208.3 359C212.3 364.8 219 367.1 225.3 363.4C231.3 359.8 236.3 354 240.2 348.2C244.8 341.4 247.9 333.7 249.4 325.7C249.8 323.6 247.7 321.7 245.7 322.9C238 327.3 234.8 336.4 235.4 344.9C235.7 349.9 237 354.9 238.7 359.6C239.9 363.1 241.5 366.6 244 369.4C246.4 372.1 249.9 373.9 253.6 373.7C257.8 373.4 261.4 370.8 264.3 367.8C270.4 361.4 274.5 353 276 344.3C277 338.5 278.9 323.6 269.6 323.6C265.3 323.6 261.9 327.3 259 330C255.7 333.1 252.5 336.5 250.1 340.4C246 346.9 244.6 355.3 248.2 362.3C252.1 370 261.1 371.6 268.7 369C284 363.8 299.2 343.7 289.3 327.8C288.3 326.1 286 326.2 285 327.8C280.2 334.8 274.8 343.5 277.7 352.3C280.2 360.1 287.7 364.8 295.6 361.3C299.7 359.5 303.1 356.1 306.2 352.9C309.4 349.7 312.2 346.2 314.8 342.4C316.1 340.5 317.3 338.6 318.4 336.6C319.5 334.7 320.7 332.7 321 330.4C321.7 325.6 317.3 323 313 323.4C305.6 324.1 301.4 332.3 300.3 338.8C299.1 346.2 299.9 355.4 306.7 359.8C313.9 364.5 323.4 360.6 328.4 354.6C331.3 351.2 333.2 347.2 334.9 343.1C336.3 339.8 338 336 337 332.3C335.9 328.4 331.6 327 328.1 328.7C324.7 330.4 322.8 334.2 322.7 337.9C322.5 345.8 329.1 352 336.6 352.6C345.8 353.3 353.6 347 358.4 339.8C360.8 336.2 362.9 332.2 364.5 328.2C365.8 325 366.5 320.8 364.4 317.8C362 314.4 357.4 314.1 354.1 316.4C350.4 318.9 349.4 323.3 349.8 327.5C350.2 332.2 351.4 336.9 352.9 341.4C353.7 343.7 354.5 345.9 355.5 348.1C356.4 350.2 357.3 352.7 358.8 354.4C362.3 358.1 366.7 354.1 369.6 351.7C372.7 349 375.4 345.8 377.7 342.4C380 339 381.8 335.2 383.1 331.3C384.3 327.7 385.8 323.1 384.7 319.2C383.7 315.7 380.1 313.1 376.8 315.7C375.2 317 374.3 319.2 373.6 321.1C372.7 323.2 372 325.4 371.5 327.7C370.1 334.7 369.2 350.3 380.5 347.7C387.7 346.1 394.3 340.5 398.7 334.7C403.3 328.7 406.2 321.4 406.9 313.9C407.2 310.2 407 306.5 406.2 302.8C405.8 301.1 403.9 300.7 402.5 301.3C393.2 305.6 389.8 318 393.6 327.1C395.6 332 401.1 338.1 407 336C410.2 334.9 412.3 331.6 414 328.9C415.8 326 417.3 322.9 418.3 319.6C420.7 312.2 420.9 304.3 419.1 296.7C418.7 294.9 416.2 294.3 414.9 295.6C411.1 299.5 407.3 304.5 407.5 310.3C407.7 315.1 410.7 320.2 415.6 321.2C421 322.4 425.4 318.5 428 314.2C431.1 309.1 432.6 303 433.3 297.1C434.2 290 433.5 282.7 431.3 275.9C430.8 274.4 429 273.5 427.6 274.4C417.7 280.6 422.2 294.9 427.3 302.7C430.3 307.3 434.9 311.7 440.8 311.4C446 311.1 450.7 307.7 451.1 302.3C451.3 299.1 446.3 299.1 446.1 302.3C445.9 305.4 441.8 306.7 439.2 306.3C435 305.7 432.2 301.4 430.3 298C427.5 292.9 423.6 282.6 430.1 278.6C428.9 278.1 427.7 277.6 426.4 277.1C428.2 283 428.9 289.1 428.4 295.2C427.9 301 426.4 307.4 423.1 312.3C421.9 314.1 420.1 316.1 417.7 316.3C415.5 316.5 413.8 314.8 413 313C410.6 307.8 414.8 302.6 418.2 299C416.8 298.6 415.4 298.3 414 297.9C416.6 308.4 414.3 320 407.7 328.6C407 329.5 406.1 330.7 405 331.2C403.7 331.7 402.4 330.8 401.4 330C399.9 328.8 398.8 327.3 398 325.6C396.5 322.4 396.3 318.5 397.2 315.1C398.2 310.9 400.8 307.5 404.7 305.7C403.5 305.2 402.3 304.7 401 304.2C403.4 314.9 399.6 326.5 392.2 334.4C388.8 338.1 383.7 342.1 378.6 342.9C377 343.2 376.3 342.6 375.9 341C375.5 339.2 375.4 337.4 375.4 335.6C375.4 332.1 375.9 328.7 377 325.3C377.5 323.7 378.1 322.2 378.9 320.8C379 320.6 379.3 320.3 379.3 320C379.7 318.8 379.7 319.9 379.3 319.6C379.1 319.4 379.5 320.4 379.5 320.5C380.2 323 379 326.3 378.3 328.7C376.5 334.6 373.4 340.1 369.2 344.6C368.2 345.7 367.2 346.7 366.1 347.6C364.9 348.7 363.4 349.5 362.2 350.6C362 350.8 361.5 350.7 361.9 350.9C362.4 351.1 361.8 350.5 361.7 350.3C361.4 349.6 360.9 348.8 360.6 348.1C359.7 346.3 359 344.5 358.3 342.7C357.1 339.4 356 336.1 355.3 332.6C354.6 329.4 353.5 325.5 354.9 322.4C355.6 320.7 358.7 318.4 360 320.8C361.2 322.9 359.7 326.2 358.8 328C356 333.8 352.8 340.1 347.5 344.1C342.9 347.4 335.6 349.5 330.9 345.4C329.1 343.8 327.8 341.5 327.5 339.2C327.2 337 328 333.9 330.3 333.1C332.9 332.2 331.9 336.4 331.5 337.6C330.5 340.6 329.2 343.5 327.8 346.3C325 351.6 320.5 356.8 314.1 357C301.6 357.3 303.2 337.7 308.9 331.1C310.3 329.4 312.5 328 314.8 328.5C316.6 328.9 315.9 330.4 315.2 331.7C314.4 333.3 313.5 334.9 312.5 336.4C309 342.1 304.7 347.3 299.8 351.9C295.7 355.7 289.6 360.2 284.8 355C280.6 350.5 281.4 344.1 283.8 339C285.3 335.9 287.2 333 289.2 330.2C287.8 330.2 286.3 330.2 284.9 330.2C291.5 340.8 283.3 354.2 274.3 360.4C269.3 363.9 261.4 367.4 255.7 363.5C251.1 360.4 250.2 353.8 251.6 348.7C253.4 341.9 259 336.7 263.9 332C265.3 330.7 269.6 326.3 271 329.8C272.1 332.7 271.7 336.6 271.5 339.6C270.9 346.5 268.5 353.2 264.7 359C261.8 363.4 255.6 371.4 249.6 367.5C247 365.8 245.4 362.7 244.2 359.9C242.6 356 241.4 351.7 240.7 347.5C239.5 340 241.1 331.1 248.2 327C247 326.1 245.8 325.1 244.5 324.2C242.4 335.8 236.6 346.5 228 354.6C224.3 358.1 219.2 362.5 214.4 358.2C210.4 354.7 209.5 349.1 210.9 344.2C212.6 338.4 217.1 333.6 222.9 331.9C221.8 331.1 220.8 330.3 219.7 329.5C220.6 343.9 221.2 362.6 207.6 371.8C206.4 372.6 205 373.4 203.6 373.9C202.2 374.4 199.6 375.5 198.2 374.8C196.8 374.2 196.2 371.8 195.7 370.5C195.1 368.9 194.6 367.2 194.2 365.5C192.8 359.1 193.1 352.3 194.8 345.9C196.8 338.6 200.7 332.1 206.3 327C204.9 326.6 203.5 326.3 202.1 325.9C204.2 337.3 202.3 349.3 197 359.6C194.3 364.7 190.9 369.5 186.6 373.4C182.8 377 177.1 380.5 171.6 379.7C166.1 378.9 163.1 373.3 161.7 368.4C160.4 363.8 160.5 359 161.6 354.4C162.7 349.9 164.8 345.5 167.9 342C170.8 338.6 175 335.3 179.5 334.4C181 334.1 183.8 333.9 184.7 335.4C185.4 336.6 184.6 338.4 184.3 339.6C183.9 341.1 183.4 342.5 182.8 343.9C180.4 349.5 176.9 354.7 172.6 358.9C168.6 362.8 162.5 367.5 156.5 365.9C151 364.4 147.4 357.8 145.5 352.9C143.4 347.3 142.6 341.3 143.3 335.4C143.7 332.5 144.4 329.5 145.5 326.8C146.4 324.7 147.9 321.8 150.5 321.6C154 321.3 153.1 325 152.4 327.1C151.6 329.8 150.6 332.5 149.5 335.2C147.3 340.3 144.5 345.2 140.4 349C134 355 122.9 357.3 115.7 351.1C111.2 347.3 111.1 341.4 112.2 336.1C113.4 330.2 116 324.6 119.6 319.8C121.4 317.4 123.6 315.3 125.9 313.3C124.5 312.9 123.1 312.6 121.7 312.2C124.7 323.4 122.6 337.7 114 346C110 349.8 104.8 350.1 100.2 347.3C95.2 344.3 92.6 339 91.8 333.4C91.3 330.2 91.4 326.9 91.6 323.7C91.8 320.7 92 317.5 92.7 314.5C92.9 313.6 93.1 312.8 94.1 312.9C95.2 313 95.9 314.1 96.1 315C96.8 317.8 95.6 321.1 94.9 323.8C93.5 329.2 91.5 335.3 85.9 337.7C83.7 338.6 81.1 338.9 79 337.7C76.6 336.3 75.3 333.4 74.1 331C68.8 320.3 63.8 303.2 76 295C74.8 294.5 73.6 294 72.3 293.5C74.2 299.6 74.8 306.1 73.6 312.5C72.8 316.9 71.4 322.3 66.5 323.7C62.8 324.8 58.8 323.5 55.7 321.4C51.9 318.7 50.1 314.4 50 309.9C49.7 303.3 52.4 296.9 55.8 291.4C54.3 291.2 52.8 291 51.2 290.8C54.5 299.6 51.5 310.2 43.6 315.6C41.5 317.8 44 322.1 46.7 320.3Z" fill="white"/>
</g>
<mask id="mask7_201_758" style="mask-type:luminance" maskUnits="userSpaceOnUse" x="51" y="51" width="398" height="398">
<path d="M250 448.5C359.629 448.5 448.5 359.629 448.5 250C448.5 140.371 359.629 51.5 250 51.5C140.371 51.5 51.5 140.371 51.5 250C51.5 359.629 140.371 448.5 250 448.5Z" fill="white"/>
</mask>
<g mask="url(#mask7_201_758)">
<path d="M84.3 376.2C89.2 368.1 89.6 358.1 85.6 349.6C84.7 347.6 81.6 348.3 81 350.2C79.4 355.9 79.3 361.9 80.7 367.7C82 372.9 84.7 379.2 89.4 382.3C94 385.3 99.8 383.8 103.7 380.4C108.2 376.5 109.4 370.4 110 364.8C110.3 362.3 110.5 359.8 109.6 357.5C108.7 355.3 106.6 353.6 104.1 354.2C101.5 354.9 100 357.8 98.9 360C97.7 362.4 96.8 365 96.2 367.7C95.1 373 95.2 378.7 96.8 383.9C98.3 389 101.1 394.6 105.7 397.4C108.3 399 111.6 399.4 114.2 397.6C117 395.8 118.3 392.2 119.5 389.3C122.2 382.7 123.4 375.5 123.1 368.3C123 366.3 121.1 365.3 119.3 366.1C112.9 369.2 109.1 375.9 108.2 382.7C107.7 386.9 108.2 391.3 109.3 395.4C110.3 399 111.7 403.2 114.1 406.1C119.3 412.1 128.7 407.2 133.6 403.3C139.2 398.9 143.2 392.9 145.7 386.3C149.1 377.2 149.6 367.3 149.3 357.7C149.2 355.5 146.6 354.5 145 355.9C134 365.6 129.2 381.3 131.9 395.6C133.2 402.3 136.5 411.3 143.5 413.8C151.6 416.7 158.7 409.4 162.2 403C167 394.3 168.9 384.2 167.6 374.4C167.3 372.3 165.1 371.1 163.3 372.6C153.1 381.8 149.2 397.6 154.2 410.4C155.5 413.8 157.2 417.7 160.7 419.3C164.6 421 168.8 419.1 172.1 417C178.2 413 183.4 407.8 187.4 401.7C192 394.7 194.7 386.6 195.6 378.3C195.8 375.9 191.9 374.8 190.9 377C187.2 385.3 185.6 394.4 186.3 403.5C186.7 408.1 187.6 412.7 189.1 417.1C190.3 420.6 191.8 425.9 195.4 427.7C199.4 429.7 203.9 425.6 206.8 423.3C209.9 420.8 212.7 417.9 215.1 414.7C220 408.3 223.4 400.5 224.6 392.5C225.2 388.6 225.7 384.3 224.5 380.5C223.4 377 220.5 373.9 216.6 374.7C212.4 375.5 210.3 379.7 208.9 383.3C207.2 387.5 206.4 391.9 206.2 396.4C205.9 404.9 208.2 414.5 213.8 421.1C216.5 424.2 220.3 426.2 224.4 425.7C228.8 425.2 232.7 422.4 235.6 419.2C248 405.3 249.8 383.6 241.4 367.3C240.5 365.6 238 365.8 237.1 367.3C230.5 377.5 228.1 390.2 230.3 402.1C231.3 407.4 233.1 413.7 238.3 416.3C243.6 419 249.2 416.5 253.5 413.1C258.1 409.4 261.9 404.3 265.2 399.3C268.5 394.2 271.2 388.3 270.9 382.1C270.7 379.1 269.1 375.9 265.6 376.5C262.9 377 261.2 379.3 260 381.6C257.3 387.2 255.6 393.5 256.3 399.8C256.9 405.4 259.2 410.7 263.5 414.4C267.3 417.6 272.3 419.7 277.4 419.4C283.3 419.1 287.7 415.5 291.1 410.9C294.7 406 297.5 400.3 299.2 394.5C302.1 384.6 300.9 369.6 288.9 366.5C274.6 362.7 276.3 384.5 277.9 392.7C278.5 395.9 279.5 399 280.7 402C281.8 404.7 283 407.6 285.4 409.4C290.8 413.3 296.9 408.5 300.6 404.5C308.8 395.6 314.7 384.6 317.4 372.8C318.1 369.8 318.5 366.8 318.8 363.8C319 361.7 316.6 361 315 361.6C309 364.2 307.8 372.3 306.6 377.9C305.1 385 304.5 392.6 307.9 399.3C310.7 404.7 316.1 408.9 322.3 408.8C328.6 408.6 334.2 404.4 337.3 399.2C341.1 393 341.3 385.3 340.7 378.3C340.6 376.6 340.4 374.9 340.2 373.2C340 371.6 339.9 369.9 339 368.5C337 365.3 333.2 365.6 330.7 367.8C328.2 369.9 326 373.3 324.4 376.1C322.8 379 321.6 382.2 321.7 385.5C321.8 391.6 325.9 397 332.3 397.2C339.4 397.4 345.4 391.7 348.8 386C352.9 379.2 354.9 371.1 354.5 363.2C354.4 361.3 351.7 359.6 350.2 361.4C346.5 366 343.8 371.3 342.5 377.1C341.3 382.3 340.6 389.2 343.4 394C346.5 399.3 352.8 399 357.3 395.9C362.2 392.6 365.8 387.3 368.8 382.3C372.3 376.4 374.9 369.9 376.5 363.2C377.1 360.6 374.2 359.3 372.3 360.8C367.7 364.4 364 369.6 363.9 375.6C363.8 380.9 367.2 386.3 372.2 388C377.4 389.8 382.5 386.9 385.6 382.9C389 378.6 391.3 373.1 392.6 367.8C394.2 361.5 394.1 354.9 390 349.6C389.2 348.6 387.3 348.7 386.5 349.6C383.1 353.5 379.3 358.3 380.5 363.8C381.6 368.5 386.5 372.4 391.3 370.2C393.7 369.1 395.4 366.8 396.9 364.8C398.6 362.6 400.1 360.2 401.3 357.7C403.9 352.6 405.4 347.2 406.1 341.6C406.3 339.7 403.8 338.5 402.3 339.4C398.2 342.1 396 346.6 395.8 351.5C395.6 356.6 397.9 361.5 401.3 365.2C403 367.1 405.1 368.7 407.3 370.1C409.6 371.5 412.3 372.9 415 371.8C417.6 370.8 419.2 367.8 420.6 365.6C422.1 363.2 423.5 360.6 424.5 357.9C426.5 352.8 426.9 347.2 424.7 342.1C422.8 337.9 419.1 334.1 414.4 333.3C413.3 333.1 411.8 332.9 410.7 333.2C409.5 333.6 408.5 335 407.8 336C406.5 338 406 340.5 406.3 342.9C406.9 348 411.2 351.7 416.2 352C422.5 352.4 426.5 347 428.8 341.8C431.6 335.4 433.1 328.7 433.3 321.7C433.4 319.9 431.1 318.5 429.5 319.5C425 322.6 423.6 328.6 425.4 333.7C427.4 339.5 432.7 343.2 437.8 346.1C440.6 347.7 443.1 343.4 440.3 341.8C436.5 339.7 432.4 337.2 430.5 333.1C429.1 330.2 429.2 325.8 432.1 323.9C430.8 323.2 429.6 322.5 428.3 321.7C428.1 326.1 427.4 330.5 426.1 334.7C425 338.3 423.6 342.5 420.8 345.2C418.6 347.4 415.1 347.6 412.7 345.4C410.3 343.2 410.8 339.4 413 337.3C412.4 337.5 411.8 337.8 411.2 338C415.3 337.7 418.5 340.6 420.1 344.2C422.1 348.7 420.9 353.8 418.9 358.1C417.8 360.4 416.4 362.6 415 364.8C414.5 365.5 413.8 367 412.9 367.1C411.9 367.3 410.5 366.2 409.7 365.7C405.9 363.4 402.4 360 401.1 355.6C399.9 351.4 400.9 346.2 404.7 343.7C403.4 343 402.2 342.3 400.9 341.5C399.9 349.5 396.5 357.4 391.2 363.6C390.3 364.6 389.2 366.1 387.7 365.8C386.4 365.5 385.5 364.1 385.1 362.9C384 359.3 387.5 355.5 389.7 353.1C388.5 353.1 387.3 353.1 386.2 353.1C389.6 357.4 388.5 363.5 387 368.3C385.5 373 383.4 378.8 379.3 381.9C375.3 385 370.4 382.8 368.9 378.2C367.2 372.6 371.3 367.4 375.4 364.2C374 363.4 372.6 362.6 371.2 361.8C369.7 368.1 367.3 374.1 364 379.7C362.3 382.5 360.5 385.1 358.4 387.6C356.7 389.7 354.6 391.8 352 392.8C345.5 395.2 345.8 385.7 346.2 381.8C346.8 375.7 349.3 369.7 353.2 364.9C351.8 364.3 350.4 363.7 348.9 363.1C349.2 368.5 348.3 373.9 346.2 378.9C344.3 383.4 341.5 387.8 337.3 390.4C333.9 392.5 328.9 393.3 326.9 389C324.7 384.5 327.3 379.5 329.9 375.8C330.6 374.7 331.4 373.7 332.2 372.7C332.4 372.4 333.7 370.9 334 371C334.6 371.2 334.6 373.7 334.6 374.2C334.8 375.7 334.9 377.2 335.1 378.7C335.5 384.1 335.7 390.1 333.2 395.2C331.3 399.2 327.7 402.9 323.2 403.8C318.7 404.7 314.6 402.1 312.3 398.3C309 393 309.3 386.6 310.5 380.8C311.1 377.7 311.8 374.5 312.8 371.4C313.5 369.1 314.6 367.1 316.9 366.1C315.6 365.4 314.4 364.7 313.1 363.9C312.1 373.5 308.9 382.9 303.9 391.1C301.4 395.2 298.4 399.1 295 402.5C293.6 403.9 291.7 405.7 289.6 405.9C287.3 406.1 286.3 403.7 285.4 401.9C283.2 397.2 281.8 392 281.4 386.8C281.2 384.3 281.2 381.7 281.3 379.2C281.5 377.1 281.5 374 282.8 372.3C284.9 369.7 289.1 372 290.9 373.7C294 376.7 295 381.5 294.9 385.7C294.8 390.5 293.3 395.3 291.2 399.6C289.2 403.9 286.7 408.6 283.1 411.8C277.1 417.2 267.5 414.1 263.3 407.8C260.7 403.9 260 399 260.5 394.4C260.7 392.1 261.3 389.8 262.1 387.5C262.5 386.4 262.9 385.3 263.5 384.3C263.7 383.8 264 383.3 264.3 382.8C264.6 382.4 265.4 382 265.5 381.6C265.6 381.6 265.6 381.5 265.7 381.5C265 381 264.8 381 265.1 381.6C264.9 382 265.2 383 265.2 383.4C265.2 384.5 265.1 385.7 264.8 386.8C264.3 389.3 263.3 391.6 262.1 393.8C259.7 398.1 256.7 402.2 253.4 405.8C250.6 408.9 246.1 413.4 241.5 412.5C236.6 411.6 235.2 404.9 234.5 400.9C232.5 390.2 235 379 240.8 369.9C239.4 369.9 237.9 369.9 236.5 369.9C242.6 381.7 242.5 396.5 236.4 408.3C234.9 411.3 233 414.2 230.7 416.5C228.4 418.8 225.2 421.2 221.8 420.7C218.7 420.3 216.5 417.5 215 414.9C213.1 411.7 211.9 408.1 211.2 404.5C209.8 397.5 210.6 389.7 213.7 383.2C214.5 381.6 216.8 377.7 218.6 380.5C220.1 382.9 219.7 386.4 219.4 389.1C218.3 402.1 210.7 414.7 199.7 421.8C199.2 422.1 197.9 423.2 197.3 423.2C196.6 423.2 196.2 422.2 195.9 421.7C195 420 194.2 418.1 193.6 416.3C192.2 412.4 191.2 408.2 190.9 404.1C190.2 395.8 191.4 387.2 194.8 379.5C193.2 379.1 191.7 378.7 190.1 378.2C188.9 390.6 182.4 402.2 172.8 410C170.5 411.9 167.5 414.3 164.5 414.9C161.3 415.5 159.8 412.1 158.8 409.6C156.6 404.3 156.1 398.3 157.2 392.7C158.5 386.3 161.6 380.5 166.4 376.2C165 375.6 163.6 375 162.1 374.4C163.1 381.8 162.2 389.4 159.3 396.4C158 399.7 156.2 403 153.7 405.6C151.7 407.7 148.9 409.9 145.8 409.5C142.6 409.1 140.5 406 139.1 403.3C137.7 400.6 136.7 397.6 136.1 394.5C134.9 388.6 135.3 382.3 137 376.5C138.9 369.9 142.6 364 147.8 359.4C146.4 358.8 145 358.2 143.5 357.6C143.9 370.7 142.8 385.2 133.7 395.5C131.8 397.7 129.6 399.6 127.1 401.1C124.9 402.4 121.9 404 119.2 403.8C116.1 403.6 115 399.2 114.1 396.8C112.9 393.5 112.1 390 112 386.4C111.9 379.9 114.8 373.3 120.9 370.3C119.6 369.6 118.4 368.9 117.1 368.1C117.3 372.9 116.8 377.7 115.5 382.4C114.9 384.6 114.1 386.8 113.1 388.9C112.4 390.4 111.4 393.3 109.5 393.5C105.9 393.9 103.1 388.5 101.9 385.9C100.2 382.3 99.4 378.2 99.4 374.2C99.4 370.2 100.3 366.1 102 362.5C102.4 361.7 102.8 360.9 103.3 360.2C103.4 360 104.1 359.2 104.1 359C104.2 358.9 104.2 358.9 104.3 358.8C103.8 358.6 103.6 358.5 103.7 358.7C103.6 358.9 104.1 359.8 104.1 360.1C104.2 361 104.1 361.9 104 362.7C103.6 366.9 103.2 371.7 100.4 375.1C98.4 377.7 94.4 379.8 91.2 377.9C89.3 376.8 88.1 374.8 87.1 373C85.9 370.8 85 368.5 84.4 366C83.2 361.1 83.3 356 84.7 351.2C83.2 351.4 81.7 351.6 80.1 351.8C83.3 358.7 82.7 366.9 78.8 373.4C78.4 376.4 82.7 378.9 84.3 376.2Z" fill="white"/>
</g>
<mask id="mask8_201_758" style="mask-type:luminance" maskUnits="userSpaceOnUse" x="51" y="51" width="398" height="398">
<path d="M250 448.5C359.629 448.5 448.5 359.629 448.5 250C448.5 140.371 359.629 51.5 250 51.5C140.371 51.5 51.5 140.371 51.5 250C51.5 359.629 140.371 448.5 250 448.5Z" fill="white"/>
</mask>
<g mask="url(#mask8_201_758)">
<path d="M149.3 441.8C157.4 439.7 165.1 436.1 171.9 431.2C175.3 428.8 178.5 426 181.4 423C184.2 420.1 187.9 415.9 185.3 411.8C184.5 410.6 182.4 410 181.4 411.3C174.8 419.6 176.5 432.7 184.7 439.4C193.8 446.7 207.2 442.9 213.3 433.6C214.8 431.2 215.7 428.6 216.1 425.8C216.3 424.1 216.2 422.2 215 420.8C213.9 419.6 212.2 419.1 210.5 419.1C204.4 419.4 200 425 198.5 430.5C196.8 436.7 198.2 443.7 201.4 449.2C203.1 452.1 205.4 454.9 208.3 456.7C211.7 458.8 215.2 457.9 218.4 455.9C230.3 448.3 237.8 434.4 237.6 420.3C237.6 418.6 235.4 416.9 233.8 418.1C228.5 422.1 226.3 428.5 226.8 435C227.3 441.6 230.1 448.7 235.4 452.8C238.4 455.2 242.2 456.3 245.9 455.1C249.4 454 252.2 451.3 254.5 448.6C259.5 442.9 264.7 436.6 265.5 428.8C265.7 426.7 265.1 424.4 262.9 423.6C260.8 422.9 259 424 257.4 425.3C254.8 427.4 252.9 430.2 251.7 433.2C249.2 439.3 249.8 446.4 252.7 452.3C255.9 458.7 261.7 463.5 268 466.5C271.2 468 275.8 470.4 279.2 468.4C280.9 467.4 282 465.6 283.2 464.1C284.5 462.4 285.7 460.6 286.9 458.8C291.6 451.9 296 444.5 299 436.7C301.7 429.5 302.8 421.2 299.7 413.9C299 412.1 298.1 410.5 296.9 409C296.2 408 294.7 407.2 293.5 408.1C284.4 414.9 281.9 428.1 287.1 438.1C289.9 443.4 295.8 448.6 302.2 446.6C308.7 444.6 312.6 437.5 315.2 431.7C318.2 425.1 320.1 418.2 320.8 411C321.1 408.1 321.4 404.6 319.8 402C319 400.8 317.9 399.8 316.4 399.6C314.2 399.2 312.5 400.4 311 401.9C306.4 406.5 303.6 412.7 302.8 419.1C302.1 425 303 432.5 307.8 436.6C314.5 442.3 323 437.1 328.5 432.3C334.1 427.5 339.1 420.2 336.7 412.5C336.1 410.6 334 410.2 332.5 411.4C329.1 414 327.5 418.4 327.5 422.7C327.4 427.4 329.4 431.9 331.8 435.8C333 437.8 334.3 440 335.9 441.6C337.7 443.4 340.1 444.1 342.6 443.7C346.9 443 350.4 439.3 352.9 436C358.2 429.1 361.1 420.2 360.3 411.5C359.9 407.5 358.8 403.2 355.7 400.4C352.2 397.1 347.6 397.6 344.1 400.7C340.8 403.7 338.4 408 337.3 412.3C336.3 416.1 336 420.8 338.4 424.2C341.5 428.6 346.8 427.2 351.2 425.9C355.6 424.6 359.9 422.7 363.6 420C371 414.8 376.6 406.5 376.6 397.2C376.6 393.4 374.6 388.4 370.1 388.4C367.7 388.4 365.5 390 364.5 392.1C363.3 394.5 363.5 397.2 364 399.8C364.4 402 364.9 404.4 366.7 405.9C368.4 407.3 370.6 407.8 372.7 407.8C376.8 407.7 381 406.2 384.6 404.4C391.7 400.8 397.7 394.7 400.8 387.4C401.6 385.5 402.3 383.7 402.8 381.7C403.5 378.6 398.7 377.2 398 380.4C396.5 386.5 393.2 391.8 388.5 395.9C386.2 397.9 383.5 399.6 380.7 400.8C378.1 401.9 375 402.9 372.1 402.8C370.9 402.8 370 402.4 369.5 401.3C368.9 399.7 368.5 397.5 368.6 395.8C368.7 394.9 369.1 393.5 370.2 393.4C370.5 393.4 370.7 393.6 370.8 393.7C371.2 394.2 371.4 394.8 371.5 395.4C372.2 398.3 371.3 402 370.1 404.7C368.8 407.8 366.8 410.7 364.3 413C361.7 415.5 358.6 417.4 355.3 419C352.2 420.5 348.5 421.8 345 422.3C343.6 422.5 342.8 422.2 342.2 421.1C341.6 420 341.5 418.7 341.5 417.4C341.6 414.1 342.8 410.7 344.5 408C345.4 406.6 346.4 405.2 347.7 404.1C348.7 403.2 349.8 402.7 351 403.2C353.2 404 354.4 407.1 354.9 409.4C356.2 415.7 354.8 422.8 351.8 428.4C350.2 431.4 348.2 434 345.7 436.3C344.6 437.3 343.2 438.4 341.7 438.7C340.3 439 339.4 438.3 338.6 437.2C334.8 432.1 330.4 424.8 333.3 418.2C333.9 416.8 334.8 415.8 336 414.8C334.6 414.4 333.2 414.1 331.8 413.7C333.4 418.8 330.2 423.5 326.8 427C324.9 428.9 322.8 430.6 320.5 432C318.4 433.2 315.9 434.5 313.4 434C308.8 432.9 307.7 426.8 307.6 422.9C307.5 417.8 309 412.8 311.9 408.6C312.5 407.6 313.3 406.8 314 405.9C314.4 405.5 314.8 405 315.2 404.7C315.3 404.6 315.4 404.6 315.5 404.5C315.7 404.5 315.7 404.4 315.4 404.5C315.1 404.5 315.1 404.5 315.5 404.6C315.4 404.6 315.3 404.6 315.3 404.5C315.5 404.7 315.8 405.6 315.9 406.1C316.1 407.4 315.9 408.9 315.8 410.2C315.4 416 313.9 421.8 311.7 427.3C310.6 430 309.2 432.6 307.7 435.1C306.4 437.1 305 439.2 303.1 440.6C301.4 441.9 299.3 442.6 297.2 441.7C295.1 440.8 293.3 438.9 292.1 437C287.3 429.6 288.5 418 295.9 412.5C294.8 412.2 293.6 411.9 292.5 411.6C301.1 422.8 293.9 437.4 287.8 447.9C286 451 284.1 454 282.1 457C281.1 458.4 280.2 459.8 279.2 461.2C278.5 462.1 277.6 463.9 276.5 464.3C275.4 464.7 273.6 463.7 272.6 463.3C271.2 462.8 269.8 462.1 268.5 461.4C266 460 263.6 458.4 261.5 456.3C257.7 452.6 255.1 447.8 255 442.4C254.8 437.5 256.5 432.4 260.4 429.3C260.6 429.1 260.7 429 261 428.9C261.1 428.8 261.2 428.8 261.3 428.7C261.7 428.5 261.8 428.5 261.5 428.6C261.2 428.4 260.8 428.2 260.5 428C260.6 428.1 260.6 428.2 260.5 428.3C260.4 428.5 260.5 428.9 260.4 429C260.2 430.5 259.8 432 259.2 433.4C258 436.2 256.2 438.8 254.3 441.2C252.4 443.6 250.4 446.2 248 448.3C246.2 450 243.8 451.3 241.2 450.7C238.3 449.9 236.2 447.3 234.7 444.9C233.2 442.4 232.3 439.7 231.8 436.8C231 431.9 231.9 425.8 236.1 422.6C234.8 421.9 233.6 421.2 232.3 420.4C232.5 430.5 228.3 440.4 221 447.4C219.1 449.2 217.1 450.8 214.9 452.2C214 452.7 212.9 453.4 211.8 453.1C210.6 452.9 209.6 452 208.8 451.2C205.1 447.7 202.8 442.8 202.5 437.7C202.2 433.5 203.4 428.6 206.9 425.8C207.6 425.3 208.4 424.8 209.2 424.6C209.5 424.5 210.7 424.2 210.9 424.3V424.2C210.9 424.5 210.9 424.7 210.9 425C210.9 425.2 210.9 425.4 210.8 425.6C210.8 425.9 210.7 426.4 210.6 426.8C210.4 427.8 210 428.7 209.6 429.6C205.9 436.8 196.3 440.9 189.2 436.7C182.1 432.5 179.6 421.4 184.7 414.9C183.4 414.7 182.1 414.6 180.8 414.4C181.4 415.4 180.1 416.9 179.5 417.6C178.3 418.9 177.1 420.2 175.8 421.4C173.2 423.9 170.4 426.1 167.5 428.1C161.5 432.2 154.8 435.2 147.8 437C144.8 437.8 146.2 442.6 149.3 441.8Z" fill="white"/>
</g>
<mask id="mask9_201_758" style="mask-type:luminance" maskUnits="userSpaceOnUse" x="51" y="51" width="398" height="398">
<path d="M250 448.5C359.629 448.5 448.5 359.629 448.5 250C448.5 140.371 359.629 51.5 250 51.5C140.371 51.5 51.5 140.371 51.5 250C51.5 359.629 140.371 448.5 250 448.5Z" fill="white"/>
</mask>
<g mask="url(#mask9_201_758)">
<path d="M173 60.1C171.5 62.7 170.1 65.9 170.3 69C170.6 72.8 173.5 75.2 177.2 75.7C184.7 76.6 191 70.1 195.6 65.1C198.3 62.3 200.7 59.3 203 56.1C204 54.7 205.3 53.2 205.7 51.4C206.2 49.4 205.3 47.3 203.4 46.5C199.8 45.2 196.4 48.9 194.7 51.6C193 54.4 192.2 57.8 192.6 61.1C193.4 67.9 199.2 74 206.2 74.3C210 74.5 213.2 72.3 215.6 69.6C218 66.9 220 63.8 221.6 60.7C223.3 57.4 224.8 53.9 225.8 50.3C226.6 47.3 227.3 42.6 223.2 41.8C219.9 41.2 216.3 44.8 214.5 47.2C212.5 49.8 211.3 52.8 210.8 56.1C210.3 59.5 210.7 63.4 213 66.1C215.4 68.8 219.3 69 222.6 68.4C228.9 67.3 235 63.3 238.9 58.3C239.9 57 240.9 55.6 241.7 54.2C243.3 51.4 239.1 49 237.4 51.7C235.5 54.6 233.7 57.8 233.6 61.3C233.5 64.3 234.9 67.5 237.5 69.1C240.4 71 244.3 70.2 247.4 69.2C250.6 68.2 253.5 66.6 256.1 64.5C261.2 60.2 264 53.2 262.5 46.6C262 44.6 260.5 43.4 258.4 43.9C256.5 44.3 255.3 46 254.4 47.6C252.7 50.5 251.7 53.9 251.8 57.2C252 63.5 256.3 69.7 262.7 70.9C269.7 72.2 276 67.8 279.8 62.4C281.8 59.6 283.2 56.5 284.6 53.4C285.3 51.9 285.7 50.2 284.9 48.7C283.8 46.8 281.4 46.4 279.6 47.5C278.2 48.3 277.4 49.7 276.6 51.1C275.7 52.8 274.8 54.6 274.1 56.4C273 59.4 272.7 62.9 273.8 65.9C275.1 69.4 277.9 72 281.6 72.6C285.5 73.2 289.2 72 292.4 69.8C295.5 67.6 298.3 64.9 300.9 62.1C303.4 59.3 305.6 56.1 306.3 52.4C306.8 49.8 304.1 48.5 302.1 50C298.4 52.9 296.5 57.9 296.8 62.6C297.1 67.8 299.5 72.6 302.8 76.6C305.9 80.4 310.5 83.4 315.5 82.5C318 82 320.2 80.4 322.1 78.9C323.9 77.5 325.5 75.9 326.9 74.1C329.9 70.4 332.2 66.3 333.7 61.8C334.4 59.6 335.1 57.1 335.1 54.8C335.1 52.5 333.3 49.8 330.7 50.6C329.4 51 328.5 52.6 327.8 53.6C327.1 54.7 326.6 55.8 326.1 57C325.2 59.2 324.7 61.6 324.4 64C323.9 69.2 325.1 74.3 327.2 79C328.3 81.5 329.6 84.1 331.3 86.4C332.2 87.6 333.3 88.6 334.9 88.8C336.5 88.9 337.8 88.2 339 87.1C343.5 83.2 347.4 78.3 350.8 73.4C352.6 70.7 348.3 68.2 346.5 70.9C343.9 74.7 341 78.2 337.7 81.5C337 82.2 336.3 83 335.5 83.6C335.4 83.7 335.2 83.8 335.1 83.9C335.4 83.8 335.6 83.8 335.9 84.1C335.8 84.2 335.2 83.1 335.2 83.2C334 81.4 332.9 79.4 332 77.4C328.8 70.4 328 61.1 333.3 54.9C332.9 55.1 332.6 55.3 332.2 55.5C332.3 55.5 332.4 55.5 332.4 55.5C332 55.5 331.5 55.5 331.1 55.5C330.8 55.3 330.6 55.1 330.3 54.8V54.7C330.4 54.7 330.4 54.7 330.3 54.9C330.2 55.2 330.2 55.7 330.2 56C330 57.1 329.8 58.2 329.5 59.2C329 61.2 328.2 63.1 327.3 65C325.4 68.7 322.9 72 319.7 74.7C318.2 76 316.4 77.5 314.4 77.8C312.7 78 311 77.2 309.6 76.2C306.2 73.8 303.6 69.5 302.5 65.5C301.3 61.2 302.2 56.4 305.8 53.6C304.4 52.8 303 52 301.6 51.2C300.7 55.3 297.9 58.4 294.9 61.3C292.1 64 288.8 67.4 284.7 67.9C281.1 68.3 278.4 66 278.3 62.3C278.2 60.3 278.8 58.3 279.6 56.4C280.1 55.3 280.6 54.3 281.2 53.3C281.4 53 281.7 52.5 281.9 52.2C282 52.1 282.1 52 282.2 51.9C281.7 51.9 281.7 52 282.1 52C281.7 51.9 281.3 51.8 280.8 51.7L280.4 50.7L280.3 51C280.1 51.2 280.1 51.6 279.9 51.8C279.5 52.6 279.1 53.5 278.7 54.3C277.9 55.9 277 57.6 276 59.1C274.3 61.7 272 64.1 269 65.4C266.3 66.6 263.3 66.6 260.8 65C258.6 63.6 257.1 61 256.7 58.4C256.4 56.5 256.7 54.6 257.3 52.9C257.6 52.1 258 51.3 258.4 50.5C258.6 50.1 258.9 49.7 259.2 49.3C259.8 48.5 259.4 49.5 258.4 48.9C258 48.4 257.6 47.9 257.3 47.4C259.3 54.7 254 61.6 247.4 64.1C245 65 240.3 66.9 238.9 63.8C237.4 60.6 239.9 57 241.5 54.4C240.1 53.6 238.6 52.7 237.2 51.9C234.9 56.1 231.4 59.4 227.2 61.6C224.6 63 217.6 66 216 61.9C214.4 57.9 216.2 52.7 218.9 49.6C219.6 48.9 220.3 48.2 221.1 47.6C221.3 47.5 221.5 47.3 221.7 47.2C221.8 47.1 221.9 47.1 222 47C222.5 46.8 222.5 46.7 222 46.8C222 46.8 221.2 46.2 221.3 46.2C221.4 46.2 221.3 46.7 221.3 46.7C221.3 47.5 220.8 48.8 220.6 49.7C220.2 51.1 219.7 52.6 219.1 54C217.2 58.7 214.4 63.8 210.8 67.3C208.9 69.1 206.9 69.8 204.3 69.1C202.4 68.5 200.6 67.2 199.3 65.6C196.5 62 196.6 56.9 199.4 53.3C200 52.5 200.8 52.1 201.4 51.4C201.9 50.8 201.9 51.8 201.4 51.1C201.2 51.1 201.1 51 200.9 51C200.7 50 200.6 49.9 200.5 50.5C200.1 50.8 199.8 51.5 199.6 52C198 54.4 196.2 56.6 194.3 58.8C192.2 61.2 189.9 63.6 187.6 65.8C185.5 67.7 183.2 69.7 180.4 70.5C178.5 71.1 175.3 71.3 175 68.9C174.7 67 176 64.5 177 62.7C178.9 59.8 174.6 57.3 173 60.1Z" fill="white"/>
</g>
</svg>
