<svg width="500" height="500" viewBox="0 0 500 500" fill="none" xmlns="http://www.w3.org/2000/svg">
<mask id="mask0_201_659" style="mask-type:luminance" maskUnits="userSpaceOnUse" x="51" y="51" width="398" height="398">
<path d="M250 448.5C359.629 448.5 448.5 359.629 448.5 250C448.5 140.371 359.629 51.5 250 51.5C140.371 51.5 51.5 140.371 51.5 250C51.5 359.629 140.371 448.5 250 448.5Z" fill="white"/>
</mask>
<g mask="url(#mask0_201_659)">
<path d="M236.5 27.6001C245.3 53.5001 254.1 79.3001 262.9 105.2C271.7 130.9 280.4 156.6 289.2 182.3C294.1 196.8 299.1 211.3 304 225.8C304.3 226.8 305.5 227.4 306.4 227.8C306.6 227.9 308.8 228.5 308.5 227.7C299.7 201.8 290.9 176 282.1 150.1C273.3 124.4 264.6 98.7001 255.8 73.0001C250.9 58.5001 245.9 44.0001 241 29.5001C240.7 28.5001 239.5 27.9001 238.6 27.5001C238.3 27.4001 236.2 26.7001 236.5 27.6001Z" fill="white"/>
</g>
<mask id="mask1_201_659" style="mask-type:luminance" maskUnits="userSpaceOnUse" x="51" y="51" width="398" height="398">
<path d="M250 448.5C359.629 448.5 448.5 359.629 448.5 250C448.5 140.371 359.629 51.5 250 51.5C140.371 51.5 51.5 140.371 51.5 250C51.5 359.629 140.371 448.5 250 448.5Z" fill="white"/>
</mask>
<g mask="url(#mask1_201_659)">
<path d="M314.6 176.3C320.6 195.2 326.7 214.1 333 232.9C339.2 251.6 345.6 270.3 352.2 289C358.8 307.7 365.5 326.4 372.3 345C379.1 363.6 386.1 382.2 393.2 400.7C400.3 419.2 407.6 437.7 415 456.1C415.9 458.3 416.8 460.6 417.7 462.8C418 463.6 419.5 464.2 420.2 464.6C420.4 464.7 422.1 465.5 421.9 465.1C414.5 446.7 407.2 428.2 400 409.7C392.9 391.3 385.9 372.8 379.1 354.3C372.2 335.7 365.5 317 358.9 298.3C352.3 279.6 345.9 260.8 339.5 242C333.1 223.2 327 204.3 321 185.4C320.3 183.1 319.5 180.8 318.8 178.5C318.6 177.8 316.9 177.1 316.3 176.7C316.1 176.7 314.5 175.9 314.6 176.3Z" fill="white"/>
</g>
<mask id="mask2_201_659" style="mask-type:luminance" maskUnits="userSpaceOnUse" x="51" y="51" width="398" height="398">
<path d="M250 448.5C359.629 448.5 448.5 359.629 448.5 250C448.5 140.371 359.629 51.5 250 51.5C140.371 51.5 51.5 140.371 51.5 250C51.5 359.629 140.371 448.5 250 448.5Z" fill="white"/>
</mask>
<g mask="url(#mask2_201_659)">
<path d="M287.4 46.5002C293.8 65.3002 300.3 84.1002 307.1 102.8C313.8 121.4 320.8 140 327.9 158.4C331.9 168.9 336.1 179.3 340.2 189.7C340.5 190.5 342.1 191 342.9 191.2C343.1 191.3 345.1 191.8 344.8 191.1C337.4 172.6 330.2 154.1 323.2 135.5C316.2 117 309.5 98.4002 302.9 79.7002C299.2 69.1002 295.5 58.5002 291.9 47.9002C291.6 47.1002 289.9 46.6002 289.2 46.4002C289.1 46.2002 287.2 45.7002 287.4 46.5002Z" fill="white"/>
</g>
<mask id="mask3_201_659" style="mask-type:luminance" maskUnits="userSpaceOnUse" x="51" y="51" width="398" height="398">
<path d="M250 448.5C359.629 448.5 448.5 359.629 448.5 250C448.5 140.371 359.629 51.5 250 51.5C140.371 51.5 51.5 140.371 51.5 250C51.5 359.629 140.371 448.5 250 448.5Z" fill="white"/>
</mask>
<g mask="url(#mask3_201_659)">
<path d="M346.3 151.4C352.3 169.6 358.4 187.8 364.6 205.9C370.7 224 377 242 383.3 260C389.7 278.1 396.2 296.1 402.8 314.1C409.4 332 416 349.9 422.8 367.8C429.6 385.7 436.5 403.6 443.5 421.5C444.4 423.7 445.2 425.9 446.1 428.1C446.4 428.9 448.2 429.3 448.9 429.5C449.2 429.6 451.1 430 450.8 429.3C443.8 411.5 436.9 393.6 430.1 375.6C423.3 357.8 416.6 339.9 410 322C403.4 304 396.9 286 390.5 267.9C384.1 249.9 377.8 231.9 371.6 213.8C365.4 195.7 359.3 177.5 353.3 159.3C352.6 157.1 351.8 154.8 351.1 152.6C350.8 151.8 349 151.4 348.3 151.2C347.9 151.1 346.1 150.6 346.3 151.4Z" fill="white"/>
</g>
<mask id="mask4_201_659" style="mask-type:luminance" maskUnits="userSpaceOnUse" x="51" y="51" width="398" height="398">
<path d="M250 448.5C359.629 448.5 448.5 359.629 448.5 250C448.5 140.371 359.629 51.5 250 51.5C140.371 51.5 51.5 140.371 51.5 250C51.5 359.629 140.371 448.5 250 448.5Z" fill="white"/>
</mask>
<g mask="url(#mask4_201_659)">
<path d="M208.9 53C214.9 69.4 220.8 85.8 226.7 102.2C232.5 118.6 238.3 134.9 244.1 151.3C247.4 160.6 250.6 169.9 253.8 179.2C253.9 179.6 258.7 177.9 258.5 177.6C252.8 161.1 247 144.6 241.2 128.2C235.4 111.8 229.6 95.5 223.7 79.1C220.4 69.8 217 60.6 213.6 51.3C213.5 51 208.8 52.7 208.9 53Z" fill="white"/>
</g>
<mask id="mask5_201_659" style="mask-type:luminance" maskUnits="userSpaceOnUse" x="51" y="51" width="398" height="398">
<path d="M250 448.5C359.629 448.5 448.5 359.629 448.5 250C448.5 140.371 359.629 51.5 250 51.5C140.371 51.5 51.5 140.371 51.5 250C51.5 359.629 140.371 448.5 250 448.5Z" fill="white"/>
</mask>
<g mask="url(#mask5_201_659)">
<path d="M238.6 182.4C244.1 201.4 249.6 220.3 255.2 239.3C260.8 258.3 266.5 277.1 272.3 296C278.1 314.9 283.9 333.8 289.8 352.6C295.7 371.4 301.6 390.1 307.7 408.8C313.8 427.6 319.9 446.4 326.1 465.1C326.9 467.5 327.7 469.8 328.4 472.2C328.7 473.2 329.6 474.4 330.6 475C331.4 475.4 331.9 475.2 331.6 474.2C325.4 455.5 319.2 436.7 313.1 417.9C307 399.1 301 380.3 295.1 361.5C289.2 342.7 283.3 323.8 277.5 304.9C271.7 286.1 266.1 267.3 260.5 248.5C254.9 229.6 249.3 210.6 243.8 191.6C243.1 189.2 242.4 186.8 241.7 184.4C241.4 183.4 240.4 182.2 239.5 181.6C238.8 181.1 238.4 181.4 238.6 182.4Z" fill="white"/>
</g>
<mask id="mask6_201_659" style="mask-type:luminance" maskUnits="userSpaceOnUse" x="51" y="51" width="398" height="398">
<path d="M250 448.5C359.629 448.5 448.5 359.629 448.5 250C448.5 140.371 359.629 51.5 250 51.5C140.371 51.5 51.5 140.371 51.5 250C51.5 359.629 140.371 448.5 250 448.5Z" fill="white"/>
</mask>
<g mask="url(#mask6_201_659)">
<path d="M279.4 195.3C285.5 213 291.7 230.7 297.8 248.5C303.9 266.3 310.1 283.9 316.2 301.7C322.3 319.5 328.5 337.1 334.6 354.9C340.7 372.5 346.8 390.2 352.9 407.8C359 425.5 365.2 443.2 371.3 461C372.1 463.2 372.8 465.5 373.6 467.7C374.4 470 378.5 470.5 377.4 467.4C371.3 449.7 365.1 432 359 414.2C352.9 396.4 346.7 378.8 340.6 361C334.5 343.3 328.3 325.6 322.2 307.8C316.1 290.2 310 272.5 303.9 254.9C297.8 237.2 291.6 219.5 285.5 201.7C284.7 199.5 284 197.2 283.2 195C282.5 192.7 278.3 192.2 279.4 195.3Z" fill="white"/>
</g>
<mask id="mask7_201_659" style="mask-type:luminance" maskUnits="userSpaceOnUse" x="51" y="51" width="398" height="398">
<path d="M250 448.5C359.629 448.5 448.5 359.629 448.5 250C448.5 140.371 359.629 51.5 250 51.5C140.371 51.5 51.5 140.371 51.5 250C51.5 359.629 140.371 448.5 250 448.5Z" fill="white"/>
</mask>
<g mask="url(#mask7_201_659)">
<path d="M335.2 295C342.7 319.9 350.4 344.7 358.5 369.3C366.6 394 374.9 418.6 383.5 443.1C388.3 456.8 393.3 470.5 398.3 484.1C398.9 485.7 403.8 485.8 403.2 484C394.2 459.6 385.6 435.1 377.2 410.6C368.8 386 360.7 361.3 352.9 336.6C348.5 322.7 344.3 308.8 340.1 294.9C339.5 293.2 334.6 293.1 335.2 295Z" fill="white"/>
</g>
<mask id="mask8_201_659" style="mask-type:luminance" maskUnits="userSpaceOnUse" x="51" y="51" width="398" height="398">
<path d="M250 448.5C359.629 448.5 448.5 359.629 448.5 250C448.5 140.371 359.629 51.5 250 51.5C140.371 51.5 51.5 140.371 51.5 250C51.5 359.629 140.371 448.5 250 448.5Z" fill="white"/>
</mask>
<g mask="url(#mask8_201_659)">
<path d="M369.3 276.5C378.1 303.8 387.5 330.9 397.5 357.8C407.5 384.6 418.1 411.2 429.2 437.5C435.5 452.3 442 467.1 448.7 481.7C449.2 482.8 450.5 483.6 451.8 483.4C452.9 483.2 453.7 482.1 453.2 480.9C441.3 454.8 430 428.4 419.3 401.8C408.6 375.3 398.6 348.5 389.2 321.5C383.9 306.3 378.8 291 373.8 275.7C373 273.4 368.3 273.5 369.3 276.5Z" fill="white"/>
</g>
<mask id="mask9_201_659" style="mask-type:luminance" maskUnits="userSpaceOnUse" x="51" y="51" width="398" height="398">
<path d="M250 448.5C359.629 448.5 448.5 359.629 448.5 250C448.5 140.371 359.629 51.5 250 51.5C140.371 51.5 51.5 140.371 51.5 250C51.5 359.629 140.371 448.5 250 448.5Z" fill="white"/>
</mask>
<g mask="url(#mask9_201_659)">
<path d="M395 220.5C403.7 249.8 413.5 278.8 424.4 307.3C435.3 335.8 447.2 363.8 460.3 391.4C467.6 406.9 475.3 422.3 483.3 437.5C483.8 438.5 484.5 439.5 485.3 440.4C485.8 441 486.1 441 485.7 440.1C471.6 413.3 458.5 385.9 446.4 358C434.4 330.2 423.4 301.9 413.6 273.2C408 257 402.8 240.7 398 224.3C397.7 223.3 397 222.4 396.4 221.7C396.1 221.4 395.8 220.8 395.4 220.6C395.3 220.6 394.9 220.2 395 220.5Z" fill="white"/>
</g>
<mask id="mask10_201_659" style="mask-type:luminance" maskUnits="userSpaceOnUse" x="51" y="51" width="398" height="398">
<path d="M250 448.5C359.629 448.5 448.5 359.629 448.5 250C448.5 140.371 359.629 51.5 250 51.5C140.371 51.5 51.5 140.371 51.5 250C51.5 359.629 140.371 448.5 250 448.5Z" fill="white"/>
</mask>
<g mask="url(#mask10_201_659)">
<path d="M334.5 70.5998C340 85.9998 345.8 101.3 352 116.4C358.2 131.5 364.8 146.5 371.7 161.4C375.6 169.8 379.6 178.1 383.8 186.4C384.1 187 385.7 187 386.2 187.1C386.4 187.1 388.8 187.2 388.7 187C381.4 172.4 374.4 157.5 367.8 142.6C361.2 127.6 354.9 112.5 349 97.2999C345.7 88.6999 342.4 79.9998 339.3 71.2998C339.1 70.7998 337.3 70.6998 336.9 70.5998C336.9 70.4998 334.4 70.3998 334.5 70.5998Z" fill="white"/>
</g>
<mask id="mask11_201_659" style="mask-type:luminance" maskUnits="userSpaceOnUse" x="51" y="51" width="398" height="398">
<path d="M250 448.5C359.629 448.5 448.5 359.629 448.5 250C448.5 140.371 359.629 51.5 250 51.5C140.371 51.5 51.5 140.371 51.5 250C51.5 359.629 140.371 448.5 250 448.5Z" fill="white"/>
</mask>
<g mask="url(#mask11_201_659)">
<path d="M375.7 116.9C381.7 135.4 388 153.7 394.5 172C401.1 190.3 408 208.4 415.2 226.4C419.3 236.6 423.5 246.8 427.8 257C428.3 258.2 430.2 258.2 431.1 257.8C432.3 257.2 432.7 256 432.2 254.8C424.7 237 417.5 219.1 410.6 201.1C403.7 183.1 397.2 165 390.9 146.8C387.3 136.5 383.9 126.1 380.5 115.7C379.7 113 374.8 114.2 375.7 116.9Z" fill="white"/>
</g>
<mask id="mask12_201_659" style="mask-type:luminance" maskUnits="userSpaceOnUse" x="51" y="51" width="398" height="398">
<path d="M250 448.5C359.629 448.5 448.5 359.629 448.5 250C448.5 140.371 359.629 51.5 250 51.5C140.371 51.5 51.5 140.371 51.5 250C51.5 359.629 140.371 448.5 250 448.5Z" fill="white"/>
</mask>
<g mask="url(#mask12_201_659)">
<path d="M433.8 277C440.5 304.6 448.1 331.9 456.8 358.9C459.2 366.5 461.7 374 464.3 381.5C464.7 382.6 465.6 383.5 466.5 384.2C466.8 384.4 468.2 385.2 467.8 384.2C458.6 357.4 450.4 330.2 443.2 302.8C441.2 295.1 439.2 287.4 437.4 279.7C437.1 278.7 436.1 277.7 435.2 277C434.8 276.7 433.6 276 433.8 277Z" fill="white"/>
</g>
<mask id="mask13_201_659" style="mask-type:luminance" maskUnits="userSpaceOnUse" x="51" y="51" width="398" height="398">
<path d="M250 448.5C359.629 448.5 448.5 359.629 448.5 250C448.5 140.371 359.629 51.5 250 51.5C140.371 51.5 51.5 140.371 51.5 250C51.5 359.629 140.371 448.5 250 448.5Z" fill="white"/>
</mask>
<g mask="url(#mask13_201_659)">
<path d="M176.8 62.7999C182.9 82.5999 189 102.4 195.1 122.2C201.2 142 207.3 161.8 213.4 181.6C216.8 192.7 220.3 203.9 223.7 215C224.1 216.2 225.3 217.2 226.6 217C227.8 216.8 228.5 215.5 228.2 214.4C222.1 194.6 216 174.8 209.9 155C203.8 135.2 197.7 115.4 191.6 95.5999C188.2 84.4999 184.7 73.2999 181.3 62.1999C180.9 60.9999 179.7 59.9999 178.4 60.1999C177.2 60.3999 176.5 61.5999 176.8 62.7999Z" fill="white"/>
</g>
<mask id="mask14_201_659" style="mask-type:luminance" maskUnits="userSpaceOnUse" x="51" y="51" width="398" height="398">
<path d="M250 448.5C359.629 448.5 448.5 359.629 448.5 250C448.5 140.371 359.629 51.5 250 51.5C140.371 51.5 51.5 140.371 51.5 250C51.5 359.629 140.371 448.5 250 448.5Z" fill="white"/>
</mask>
<g mask="url(#mask14_201_659)">
<path d="M264.8 216.1C270.8 235.9 276.9 255.7 283.1 275.4C289.4 295.2 295.7 315 302.3 334.7C308.8 354.3 315.4 373.9 322.1 393.5C328.8 413.1 335.7 432.6 342.7 452C349.7 471.6 356.9 491.1 364.1 510.5C365 512.9 365.9 515.3 366.8 517.7C367.2 518.9 371.6 516.6 371 515C363.7 495.6 356.6 476.2 349.6 456.8C342.5 437.3 335.6 417.7 328.8 398C322 378.5 315.4 358.9 308.9 339.2C302.4 319.5 296 299.9 289.7 280.2C283.4 260.4 277.2 240.5 271.2 220.7C270.5 218.2 269.7 215.8 269 213.3C268.7 212.4 264.4 214.5 264.8 216.1Z" fill="white"/>
</g>
<mask id="mask15_201_659" style="mask-type:luminance" maskUnits="userSpaceOnUse" x="51" y="51" width="398" height="398">
<path d="M250 448.5C359.629 448.5 448.5 359.629 448.5 250C448.5 140.371 359.629 51.5 250 51.5C140.371 51.5 51.5 140.371 51.5 250C51.5 359.629 140.371 448.5 250 448.5Z" fill="white"/>
</mask>
<g mask="url(#mask15_201_659)">
<path d="M231.2 247.4C236.7 264.3 242.2 281.2 247.7 298C253.2 315 258.7 331.9 264.3 348.9C269.8 365.8 275.3 382.7 280.8 399.5C286.3 416.4 291.8 433.3 297.3 450.1C302.8 467 308.3 483.9 313.8 500.7C314.5 502.8 315.2 505 315.9 507.1C316.3 508.2 317.6 508.5 318.6 508.3C319.4 508.2 321.1 507.4 320.8 506.3C315.3 489.4 309.8 472.5 304.3 455.7C298.8 438.7 293.3 421.8 287.7 404.8C282.2 387.9 276.7 371 271.2 354.2C265.7 337.3 260.2 320.4 254.7 303.6C249.2 286.7 243.7 269.8 238.2 253C237.5 250.9 236.8 248.7 236.1 246.6C235.7 245.5 234.4 245.2 233.4 245.4C232.6 245.5 230.8 246.3 231.2 247.4Z" fill="white"/>
</g>
<mask id="mask16_201_659" style="mask-type:luminance" maskUnits="userSpaceOnUse" x="51" y="51" width="398" height="398">
<path d="M250 448.5C359.629 448.5 448.5 359.629 448.5 250C448.5 140.371 359.629 51.5 250 51.5C140.371 51.5 51.5 140.371 51.5 250C51.5 359.629 140.371 448.5 250 448.5Z" fill="white"/>
</mask>
<g mask="url(#mask16_201_659)">
<path d="M191.2 186C196.1 204.4 201.3 222.8 206.8 241.2C212.2 259.5 217.9 277.8 223.8 295.9C229.7 314.1 235.8 332.2 242.2 350.2C248.5 368.2 255.1 386 261.9 403.8C268.7 421.6 275.8 439.4 283.1 457C284 459.2 284.9 461.4 285.9 463.6C286.3 464.6 287.8 465.2 288.8 465.4C289.5 465.5 290.6 465.6 290.2 464.6C282.9 447 275.8 429.4 268.9 411.7C262 393.8 255.3 375.9 248.9 357.8C242.5 339.9 236.4 321.9 230.4 303.8C224.5 285.7 218.8 267.6 213.3 249.4C207.8 231.2 202.6 212.9 197.6 194.6C197 192.3 196.3 190 195.7 187.7C195.4 186.7 194.2 186 193.3 185.7C193 185.5 191 185 191.2 186Z" fill="white"/>
</g>
<mask id="mask17_201_659" style="mask-type:luminance" maskUnits="userSpaceOnUse" x="51" y="51" width="398" height="398">
<path d="M250 448.5C359.629 448.5 448.5 359.629 448.5 250C448.5 140.371 359.629 51.5 250 51.5C140.371 51.5 51.5 140.371 51.5 250C51.5 359.629 140.371 448.5 250 448.5Z" fill="white"/>
</mask>
<g mask="url(#mask17_201_659)">
<path d="M146.2 58.3999C155.2 83.2999 163.2 108.6 170.1 134.2C172 141.4 173.9 148.6 175.6 155.8C176.2 158.2 181.1 157.4 180.4 154.7C174.2 129 166.8 103.5 158.4 78.3999C156 71.3999 153.6 64.2999 151 57.3999C150.2 54.8999 145.3 55.7999 146.2 58.3999Z" fill="white"/>
</g>
<mask id="mask18_201_659" style="mask-type:luminance" maskUnits="userSpaceOnUse" x="51" y="51" width="398" height="398">
<path d="M250 448.5C359.629 448.5 448.5 359.629 448.5 250C448.5 140.371 359.629 51.5 250 51.5C140.371 51.5 51.5 140.371 51.5 250C51.5 359.629 140.371 448.5 250 448.5Z" fill="white"/>
</mask>
<g mask="url(#mask18_201_659)">
<path d="M124.5 81.8002C133.4 106.7 142.2 131.6 150.7 156.7C159.2 181.7 167.5 206.8 175.5 232C180 246.2 184.5 260.5 188.9 274.8C189.2 275.9 190.3 276.8 191.3 277.3C191.8 277.6 193.2 278 192.9 276.9C185.1 251.6 177.1 226.4 168.9 201.3C160.7 176.2 152.2 151.1 143.5 126.2C138.6 112.1 133.6 98.0002 128.5 83.9002C128.1 82.8002 127.2 81.9002 126.1 81.4002C125.6 81.1002 124.1 80.7002 124.5 81.8002Z" fill="white"/>
</g>
<mask id="mask19_201_659" style="mask-type:luminance" maskUnits="userSpaceOnUse" x="51" y="51" width="398" height="398">
<path d="M250 448.5C359.629 448.5 448.5 359.629 448.5 250C448.5 140.371 359.629 51.5 250 51.5C140.371 51.5 51.5 140.371 51.5 250C51.5 359.629 140.371 448.5 250 448.5Z" fill="white"/>
</mask>
<g mask="url(#mask19_201_659)">
<path d="M195 298.4C200 315.1 205.1 331.8 210.1 348.5C215.1 365.2 220.2 381.9 225.2 398.6C230.2 415.3 235.3 432 240.3 448.7C245.3 465.4 250.4 482.1 255.4 498.8C260.4 515.5 265.5 532.2 270.5 548.9C271.1 551 271.8 553.2 272.4 555.3C272.7 556.3 273.8 557 274.7 557.4C274.9 557.5 277 558.3 276.7 557.5C271.7 540.8 266.6 524.1 261.6 507.4C256.6 490.7 251.5 474 246.5 457.3C241.5 440.6 236.4 423.9 231.4 407.2C226.4 390.5 221.3 373.8 216.3 357.1C211.3 340.4 206.2 323.7 201.2 307C200.6 304.9 199.9 302.7 199.3 300.6C199 299.6 197.9 298.9 197 298.5C196.8 298.4 194.8 297.5 195 298.4Z" fill="white"/>
</g>
<mask id="mask20_201_659" style="mask-type:luminance" maskUnits="userSpaceOnUse" x="51" y="51" width="398" height="398">
<path d="M250 448.5C359.629 448.5 448.5 359.629 448.5 250C448.5 140.371 359.629 51.5 250 51.5C140.371 51.5 51.5 140.371 51.5 250C51.5 359.629 140.371 448.5 250 448.5Z" fill="white"/>
</mask>
<g mask="url(#mask20_201_659)">
<path d="M105.5 86.5999C110.7 103.6 115.9 120.6 121.1 137.6C126.3 154.5 131.5 171.5 136.6 188.4C139.5 198 142.5 207.6 145.4 217.3C145.7 218.3 147.1 218.9 147.9 219.2C148.2 219.3 150.2 219.8 149.9 218.9C144.7 201.9 139.5 184.9 134.3 167.9C129.1 151 123.9 134 118.8 117.1C115.9 107.5 112.9 97.8999 110 88.1999C109.7 87.1999 108.3 86.5999 107.5 86.2999C107.3 86.2999 105.3 85.6999 105.5 86.5999Z" fill="white"/>
</g>
<mask id="mask21_201_659" style="mask-type:luminance" maskUnits="userSpaceOnUse" x="51" y="51" width="398" height="398">
<path d="M250 448.5C359.629 448.5 448.5 359.629 448.5 250C448.5 140.371 359.629 51.5 250 51.5C140.371 51.5 51.5 140.371 51.5 250C51.5 359.629 140.371 448.5 250 448.5Z" fill="white"/>
</mask>
<g mask="url(#mask21_201_659)">
<path d="M150.1 234.5C159.2 265.3 168.7 296 178.4 326.6C188.2 357.2 198.3 387.7 208.7 418.1C214.5 435.1 220.5 452.1 226.5 469C226.9 470.2 231.4 471.9 230.8 470.1C220 440 209.6 409.7 199.5 379.3C189.4 349 179.6 318.6 170.2 288C164.9 270.8 159.7 253.5 154.5 236.2C154.2 235.2 153 234.5 152.1 234.2C151.9 234.1 149.8 233.5 150.1 234.5Z" fill="white"/>
</g>
<mask id="mask22_201_659" style="mask-type:luminance" maskUnits="userSpaceOnUse" x="51" y="51" width="398" height="398">
<path d="M250 448.5C359.629 448.5 448.5 359.629 448.5 250C448.5 140.371 359.629 51.5 250 51.5C140.371 51.5 51.5 140.371 51.5 250C51.5 359.629 140.371 448.5 250 448.5Z" fill="white"/>
</mask>
<g mask="url(#mask22_201_659)">
<path d="M85.9001 111.1C93.4001 132.4 100.6 153.7 107.6 175.1C114.6 196.4 121.3 217.8 127.8 239.3C131.5 251.5 135.1 263.6 138.6 275.8C139.3 278 144.1 277.1 143.5 274.9C137.2 253.3 130.7 231.7 124 210.2C117.3 188.8 110.3 167.4 103.2 146.2C99.1001 134.2 95.0001 122.2 90.8001 110.2C90.4001 109.1 89.1001 108.8 88.0001 109C87.3001 109.1 85.5001 109.9 85.9001 111.1Z" fill="white"/>
</g>
<mask id="mask23_201_659" style="mask-type:luminance" maskUnits="userSpaceOnUse" x="51" y="51" width="398" height="398">
<path d="M250 448.5C359.629 448.5 448.5 359.629 448.5 250C448.5 140.371 359.629 51.5 250 51.5C140.371 51.5 51.5 140.371 51.5 250C51.5 359.629 140.371 448.5 250 448.5Z" fill="white"/>
</mask>
<g mask="url(#mask23_201_659)">
<path d="M143.9 287.9C150.7 312.7 157.6 337.6 164.3 362.5C171.1 387.4 177.8 412.3 184.4 437.1C188.1 451.1 191.9 465 195.6 479C195.9 480.2 196.8 481.3 198.1 481.5C199.1 481.7 200 481 199.7 479.9C193.1 455 186.4 430.1 179.7 405.2C173 380.3 166.2 355.4 159.4 330.6C155.6 316.6 151.8 302.7 147.9 288.8C147.6 287.6 146.7 286.5 145.4 286.3C144.5 286.1 143.6 286.8 143.9 287.9Z" fill="white"/>
</g>
<mask id="mask24_201_659" style="mask-type:luminance" maskUnits="userSpaceOnUse" x="51" y="51" width="398" height="398">
<path d="M250 448.5C359.629 448.5 448.5 359.629 448.5 250C448.5 140.371 359.629 51.5 250 51.5C140.371 51.5 51.5 140.371 51.5 250C51.5 359.629 140.371 448.5 250 448.5Z" fill="white"/>
</mask>
<g mask="url(#mask24_201_659)">
<path d="M73.7 133.1C79.3 148.5 84.7 164 89.8 179.6C94.9 195.2 99.7 210.9 104.3 226.6C106.9 235.5 109.4 244.4 111.8 253.4C112.5 256.1 117.2 254.4 116.5 251.7C112.2 235.9 107.7 220.1 102.9 204.4C98.1 188.7 93 173.1 87.7 157.6C84.7 148.8 81.6 140.1 78.4 131.4C77.4 128.8 72.7 130.4 73.7 133.1Z" fill="white"/>
</g>
<mask id="mask25_201_659" style="mask-type:luminance" maskUnits="userSpaceOnUse" x="51" y="51" width="398" height="398">
<path d="M250 448.5C359.629 448.5 448.5 359.629 448.5 250C448.5 140.371 359.629 51.5 250 51.5C140.371 51.5 51.5 140.371 51.5 250C51.5 359.629 140.371 448.5 250 448.5Z" fill="white"/>
</mask>
<g mask="url(#mask25_201_659)">
<path d="M118.6 274.1C128.4 301.9 137.8 329.8 146.9 357.8C156 385.8 164.8 413.9 173.2 442.1C177.9 457.9 182.5 473.8 187.1 489.7C187.2 490.2 192.1 488.9 191.9 488.5C183.9 460.2 175.5 431.9 166.7 403.8C158 375.7 148.9 347.7 139.5 319.8C134.2 304.1 128.9 288.5 123.4 272.9C123.2 272.3 118.4 273.7 118.6 274.1Z" fill="white"/>
</g>
<mask id="mask26_201_659" style="mask-type:luminance" maskUnits="userSpaceOnUse" x="51" y="51" width="398" height="398">
<path d="M250 448.5C359.629 448.5 448.5 359.629 448.5 250C448.5 140.371 359.629 51.5 250 51.5C140.371 51.5 51.5 140.371 51.5 250C51.5 359.629 140.371 448.5 250 448.5Z" fill="white"/>
</mask>
<g mask="url(#mask26_201_659)">
<path d="M62.9 159.2C68.2 180.3 74 201.4 80.2 222.3C86.4 243.2 93 264 100.1 284.6C104.1 296.2 108.2 307.8 112.4 319.3C112.7 320.2 113.5 321.1 114.1 321.9C114.4 322.2 114.7 322.9 115.1 323C115.1 323 115.5 323.4 115.4 323.1C107.9 302.6 100.8 282 94.1 261.2C87.4 240.4 81.2 219.5 75.3 198.5C72 186.7 68.9 174.8 65.9 162.9C65.7 162 64.8 161 64.2 160.3C63.9 160 63.6 159.4 63.2 159.2C63.1 159.2 62.8 158.9 62.9 159.2Z" fill="white"/>
</g>
<mask id="mask27_201_659" style="mask-type:luminance" maskUnits="userSpaceOnUse" x="51" y="51" width="398" height="398">
<path d="M250 448.5C359.629 448.5 448.5 359.629 448.5 250C448.5 140.371 359.629 51.5 250 51.5C140.371 51.5 51.5 140.371 51.5 250C51.5 359.629 140.371 448.5 250 448.5Z" fill="white"/>
</mask>
<g mask="url(#mask27_201_659)">
<path d="M117.4 341.5C123.3 359.5 129.2 377.5 135.3 395.4C141.4 413.3 147.6 431.2 153.9 449.1C157.5 459.2 161.1 469.3 164.8 479.3C165 479.9 166.7 479.9 167.3 479.9C167.5 479.9 170 479.9 169.8 479.5C163.3 461.7 157 443.8 150.8 426C144.6 408.1 138.5 390.2 132.5 372.2C129.1 362 125.8 351.9 122.5 341.7C122.1 340.7 117.4 341.3 117.4 341.5Z" fill="white"/>
</g>
<mask id="mask28_201_659" style="mask-type:luminance" maskUnits="userSpaceOnUse" x="51" y="51" width="398" height="398">
<path d="M250 448.5C359.629 448.5 448.5 359.629 448.5 250C448.5 140.371 359.629 51.5 250 51.5C140.371 51.5 51.5 140.371 51.5 250C51.5 359.629 140.371 448.5 250 448.5Z" fill="white"/>
</mask>
<g mask="url(#mask28_201_659)">
<path d="M51.9001 175.4C58.0001 198.9 64.0001 222.4 70.0001 246C71.7001 252.7 73.4001 259.3 75.1001 266C75.7001 268.5 80.2001 266.3 79.6001 264.1C73.6001 240.6 67.5001 217 61.5001 193.5C59.8001 186.8 58.1001 180.2 56.4001 173.5C55.8001 171 51.4001 173.2 51.9001 175.4Z" fill="white"/>
</g>
<mask id="mask29_201_659" style="mask-type:luminance" maskUnits="userSpaceOnUse" x="51" y="51" width="398" height="398">
<path d="M250 448.5C359.629 448.5 448.5 359.629 448.5 250C448.5 140.371 359.629 51.5 250 51.5C140.371 51.5 51.5 140.371 51.5 250C51.5 359.629 140.371 448.5 250 448.5Z" fill="white"/>
</mask>
<g mask="url(#mask29_201_659)">
<path d="M82.1 288.8C89.7 311.3 97.2 333.8 104.8 356.3C112.4 378.8 119.9 401.3 127.5 423.8C131.7 436.4 136 449.1 140.2 461.7C140.6 462.8 141.8 463.1 142.9 462.9C143.6 462.8 145.5 462.1 145.2 461C137.6 438.5 130.1 416 122.5 393.5C114.9 371 107.4 348.5 99.8 326C95.6 313.4 91.3 300.7 87.1 288.1C86.7 287 85.5 286.7 84.4 286.9C83.7 287 81.8 287.7 82.1 288.8Z" fill="white"/>
</g>
<mask id="mask30_201_659" style="mask-type:luminance" maskUnits="userSpaceOnUse" x="51" y="51" width="398" height="398">
<path d="M250 448.5C359.629 448.5 448.5 359.629 448.5 250C448.5 140.371 359.629 51.5 250 51.5C140.371 51.5 51.5 140.371 51.5 250C51.5 359.629 140.371 448.5 250 448.5Z" fill="white"/>
</mask>
<g mask="url(#mask30_201_659)">
<path d="M45.5 197.7C46.8 210.1 49.6 222.3 52.6 234.4C55.6 246.7 58.6 258.9 61.6 271.2C63.3 278.2 65 285.2 66.8 292.2C66.9 292.7 71.8 291.5 71.6 290.9C68.6 278.5 65.5 266.1 62.5 253.8C59.5 241.6 56.3 229.5 53.8 217.3C52.3 210.4 51.1 203.5 50.4 196.5C50.3 196 45.4 196.8 45.5 197.7Z" fill="white"/>
</g>
<mask id="mask31_201_659" style="mask-type:luminance" maskUnits="userSpaceOnUse" x="51" y="51" width="398" height="398">
<path d="M250 448.5C359.629 448.5 448.5 359.629 448.5 250C448.5 140.371 359.629 51.5 250 51.5C140.371 51.5 51.5 140.371 51.5 250C51.5 359.629 140.371 448.5 250 448.5Z" fill="white"/>
</mask>
<g mask="url(#mask31_201_659)">
<path d="M74.2001 316.1C83.7001 345.3 92.7001 374.7 101.2 404.3C103.6 412.7 105.9 421.1 108.2 429.5C108.8 431.8 113.2 429.5 112.7 427.6C104.6 398 95.9001 368.5 86.7001 339.1C84.1001 330.8 81.4001 322.5 78.7001 314.2C78.0001 312 73.6001 314.2 74.2001 316.1Z" fill="white"/>
</g>
</svg>
