<svg width="500" height="500" viewBox="0 0 500 500" fill="none" xmlns="http://www.w3.org/2000/svg">
<mask id="mask0_201_660" style="mask-type:luminance" maskUnits="userSpaceOnUse" x="51" y="51" width="398" height="398">
<path d="M250 448.5C359.629 448.5 448.5 359.629 448.5 250C448.5 140.371 359.629 51.5 250 51.5C140.371 51.5 51.5 140.371 51.5 250C51.5 359.629 140.371 448.5 250 448.5Z" fill="white"/>
</mask>
<g mask="url(#mask0_201_660)">
<path d="M179.9 20.2C180 36.1 180.1 52 180.2 67.9C180.3 75.9 180.3 84 180.4 92C180.4 98.9 180.3 105.9 180.7 112.9C181.3 123.4 183.5 135.4 192.3 142.2C197 145.8 203.7 147 208.9 143.8C213.9 140.7 218.7 135.7 221.5 130.5C226.6 120.9 223 107.8 210.8 107.3C205.5 107.1 200.1 108.7 196 112.2C191.2 116.3 189.1 122.6 188.2 128.6C187.1 135.8 187.1 143.2 187 150.4C187 158.4 187.3 166.3 187.8 174.3C188.8 190.1 190.7 205.8 192.7 221.5C193.6 228.1 193.8 235.2 196.1 241.5C197.9 246.5 201.5 250.3 207 250.8C212.6 251.2 218.4 249.4 222.2 245.1C226.2 240.6 228.2 234.2 229.5 228.4C230.6 223.7 231.2 218 228.8 213.5C226.2 208.8 220.9 207.8 215.9 208.5C202 210.5 199.9 226.4 197.9 237.7C195.1 252.9 193.9 268.3 194.3 283.8C194.5 291.4 195.1 298.9 196 306.4C196.8 313.1 197.5 320.4 199.9 326.8C201.8 332 205.4 335 211 334.8C216.7 334.6 222.4 332 226.7 328.4C231 324.9 234.4 319.8 235.1 314.2C235.7 309 233.5 303.7 229.7 300.1C225.7 296.4 220.3 295.6 215.1 296.6C209.4 297.7 204.8 301.5 202.2 306.6C199.1 312.6 198.7 319.5 198.5 326.2C198.2 334.2 198 342.3 197.8 350.3C197 382.3 196.9 414.4 197.5 446.4C197.6 454.1 197.8 461.9 198 469.6C198 470.3 203 470.1 203 469.2C202.2 441.2 201.9 413.2 202.2 385.1C202.3 371.1 202.6 357.1 203 343.1C203.2 336.4 203.3 329.7 203.7 322.9C204 316.9 204.6 310.5 207.8 305.3C210.4 301 215.6 295.8 220.9 298C225.4 299.8 228.6 304.2 229.8 308.8C232.6 319.4 223.9 329.1 214.7 332.8C213.2 333.4 211.9 333.9 210.3 333.2C209.3 332.8 208.4 332 207.7 331.3C206 329.5 205.1 327.1 204.4 324.8C202.6 318.8 201.9 312.3 201.1 306.1C199.5 293.1 199 279.9 199.6 266.8C200.3 253.4 202.1 240.1 205.1 227.1C206.4 221.8 208 216 212.3 212.3C214.6 210.3 217.4 208.9 220.3 210.4C222.3 211.5 223.8 213.3 224.6 215.4C226.2 219.5 225.6 224.3 224.7 228.6C223.5 234 221.7 239.8 218.4 244.2C216.7 246.4 214.6 248.3 212 249.3C209.1 250.5 206.3 249 204.3 246.8C201 243.3 200.1 238 199.4 233.4C195.5 206 192 178.4 192.1 150.7C192.1 144.3 192.2 137.8 192.9 131.4C193.5 125.7 194.8 119.7 198.4 115C201.3 111.3 206.6 107.4 211.5 109.2C216.2 111 218.6 115.9 219 120.7C219.4 126.2 217 131.3 213.6 135.4C211.8 137.5 209.9 139.4 207.8 141.2C206.9 142 206 142.7 205.1 143.4C204.7 143.7 203.7 144.4 203.2 144.5C202.1 144.6 200.4 143.6 199.5 143.1C190.7 138.1 187.5 127.6 186.4 118.1C185 106.3 185.6 94.3 185.5 82.4C185.4 68.4 185.3 54.5 185.2 40.5C185.2 33.7 185.1 26.8 185.1 20C184.8 19.2 179.9 19.3 179.9 20.2Z" fill="white"/>
</g>
<mask id="mask1_201_660" style="mask-type:luminance" maskUnits="userSpaceOnUse" x="51" y="51" width="398" height="398">
<path d="M250 448.5C359.629 448.5 448.5 359.629 448.5 250C448.5 140.371 359.629 51.5 250 51.5C140.371 51.5 51.5 140.371 51.5 250C51.5 359.629 140.371 448.5 250 448.5Z" fill="white"/>
</mask>
<g mask="url(#mask1_201_660)">
<path d="M237.3 41.6002C241.9 65.2002 244.9 89.2002 246.1 113.2C246.7 124.7 247.3 136.3 246.6 147.8C246.3 152.8 245.6 157.8 243.8 162.5C242.1 166.8 239.3 171.9 234.9 173.8C234.1 174.1 232.3 174.7 231.7 174.3C231.1 173.9 230.8 172.5 230.6 171.8C230.1 169.6 230.1 167.3 230.1 165.1C230.1 161 230.7 155.8 234.7 153.5C238.9 151.1 243.5 153.3 245.7 157.3C248.3 162 248.7 167.6 249.4 172.8C252.4 196.8 252.6 221.1 251.6 245.3C251.4 251.4 251.1 257.4 250.7 263.5C250.4 269.2 250.4 275 249.5 280.7C249.2 282.6 248.7 284.5 247.5 286.1C245.6 288.5 242.8 288.3 240.2 287.3C235.9 285.6 232.3 282.2 230.8 277.8C229.4 273.6 230.3 269.2 233.3 265.9C236 262.8 241.4 260.3 244.8 263.7C248.3 267.1 250.2 272.8 251.6 277.4C253.3 282.8 254.2 288.3 254.8 293.9C255.9 305.1 255.7 316.5 255.8 327.8C255.9 340 255.8 352.1 255.7 364.3C255.6 369.8 255.8 375.4 255.3 380.8C254.9 385.7 253.5 390.7 249.7 394.1C246.7 396.9 242.4 398.3 238.3 398.2C233.9 398 230.6 395.7 228.8 391.7C225.2 383.8 228.7 374.7 237 371.7C240.6 370.4 245.1 370.3 248.3 372.5C251.9 375 253.5 379.6 254.5 383.6C255.6 388 255.8 392.6 256 397.2C256.3 403.5 256.5 409.7 256.7 416C257.1 428.2 257.2 440.5 257.2 452.7C257.2 458.7 257.1 464.6 257 470.6C257 472.1 261.3 474.2 261.3 472.8C261.5 458.6 261.5 444.4 261.2 430.1C261.1 423 260.9 415.9 260.6 408.8C260.4 402.7 260.3 396.4 259.5 390.4C258.2 380.8 253.8 371 243.7 368.2C234.9 365.8 224.8 370.7 223.2 380.1C221.5 389.5 228.4 398.7 237.4 400.9C241.8 402 246.8 401.3 250.7 399C255.2 396.4 257.7 392.1 258.8 387.1C260.1 380.9 259.7 374.4 259.8 368.1C259.9 361 259.9 354 259.9 346.9C259.9 333.2 260.1 319.5 259.6 305.8C259.1 293.6 257.7 280.9 252 269.9C249.6 265.2 246.1 260.8 240.9 259.2C236.5 257.9 232 259.6 229 263C221.4 271.5 228.4 282.6 236.5 287.7C240.3 290.1 246.7 293.3 250.7 289.8C254.4 286.5 254.1 280 254.4 275.5C256.2 247.4 257.4 219.2 255.3 191.1C254.8 184.2 254.1 177.2 253.1 170.4C252.3 165 251.1 159.5 247.4 155.3C244.3 151.8 239.3 149 234.5 149.4C229.6 149.9 226.9 153.9 226.1 158.4C225.4 162.7 225.2 168.6 227.3 172.6C229.7 177 235.2 179 239.7 176.4C244.3 173.6 247.1 168.1 248.6 163.2C250.3 157.9 250.8 152.3 251 146.7C251.4 133.1 250.7 119.5 249.8 105.9C248.8 91.9002 247.2 78.0002 245.1 64.2002C244.1 57.4002 242.9 50.7002 241.6 43.9002C241.4 42.8002 240.4 42.1002 239.4 41.6002C239.2 41.4002 237.1 40.6002 237.3 41.6002Z" fill="white"/>
</g>
<mask id="mask2_201_660" style="mask-type:luminance" maskUnits="userSpaceOnUse" x="51" y="51" width="398" height="398">
<path d="M250 448.5C359.629 448.5 448.5 359.629 448.5 250C448.5 140.371 359.629 51.5 250 51.5C140.371 51.5 51.5 140.371 51.5 250C51.5 359.629 140.371 448.5 250 448.5Z" fill="white"/>
</mask>
<g mask="url(#mask2_201_660)">
<path d="M266.1 36.4001C268.6 62.9001 271 89.4001 273.5 115.9C274.1 122 274.4 128.3 275.3 134.3C275.9 138.4 277.3 142.9 280.5 145.8C289.5 153.7 298.1 140.4 301.2 133.2C305.5 123.4 306.1 111.7 298.8 103.2C298.3 102.6 297 102 296.3 102.6C288 109.9 284.2 120.3 282.3 131C280.1 143.4 279.8 156.3 280.5 168.9C281.2 182.3 283.2 195.6 286.7 208.5C288.1 213.7 290.2 219.1 294.7 222.3C298.8 225.2 304.5 225.9 308.3 222.3C312.4 218.5 314.5 211.7 315.2 206.4C315.9 201.2 314.9 195.8 311.7 191.5C308.6 187.4 303.9 185 298.7 185.7C293.8 186.3 289.4 189.5 286.6 193.5C283.3 198.4 282.1 204.3 281.4 210C280.7 216.3 280.3 222.6 280.1 229C279.8 242.1 280.5 255.2 282.3 268.2C284.1 281.5 287.1 294.6 291.1 307.3C292.5 311.9 293.9 319.1 299.9 319.5C302.5 319.7 305.1 318.3 307.4 317.2C309.9 315.9 312.2 314.4 314.4 312.6C322 306.2 326.6 295.9 321.4 286.5C317 278.6 306.2 273.4 298.8 280.6C295.3 284 293.8 289 292.6 293.7C291.1 300.1 289.6 306.5 288.5 312.9C286.2 325.4 285.1 338.4 287 351C288.8 362.2 292.9 373.1 300.1 382C303.3 386 308.1 390.8 313.8 389.2C318.8 387.8 322.5 382.5 324.7 378.2C327.2 373.4 328 367.7 326 362.6C324.2 358 320.3 354.1 315.3 353.3C305.4 351.7 299.2 362.8 297.1 370.8C290.1 396.6 294.9 423.8 301.5 449.1C303.1 455.4 304.9 461.7 306.7 467.9C307.5 470.7 311.3 470.2 310.4 467.1C304.2 445.1 297.8 422.6 297.8 399.6C297.8 389.3 298.6 377.9 302.8 368.3C304.4 364.6 306.8 360.9 310.4 358.9C313.9 356.9 318.3 357.6 320.9 360.8C323.7 364.4 323.5 369.2 321.9 373.3C320.3 377.3 317 382.5 312.9 384.3C307.9 386.5 303.8 380.8 301.3 377.3C298.4 373.3 296.2 369 294.5 364.4C286.9 343.7 290.9 321.2 295.7 300.4C297.3 293.4 299.7 280.4 309.6 281.8C313.4 282.3 316.7 285.2 318.4 288.5C320.3 292.2 319.9 296.3 318.3 300.1C316.5 304.1 313.4 307.4 309.9 310C307.6 311.6 299.5 317.4 297.6 313.6C296.5 311.5 295.9 308.9 295.2 306.6C294.3 303.7 293.4 300.8 292.6 297.9C291.1 292.5 289.8 286.9 288.8 281.4C284.5 259.4 283.3 236.8 285.5 214.5C286.4 205.5 288.5 193.8 298.6 190.8C302.8 189.6 307.1 190.8 309.5 194.6C312.3 198.9 311.8 204.2 310.4 208.9C309.1 213 307 219.6 302 220.3C297 221 293.6 216.7 292 212.5C290.1 207.5 289.1 202.1 288 196.8C286.9 191.3 286.1 185.7 285.5 180.1C284.3 168.5 284.1 156.9 285 145.3C285.7 135.9 287 126.3 291.1 117.7C293 113.6 295.7 109.9 299.1 106.9C298.3 106.7 297.4 106.5 296.6 106.3C302.3 112.9 300.7 122.6 297.6 130.1C295.9 134 293.7 138.3 290.5 141.1C287.5 143.8 283.2 144.6 281.1 140.5C279.1 136.7 279.1 132 278.7 127.8C278.2 122 277.6 116.1 277.1 110.3C276 98.9001 275 87.5001 273.9 76.1001C272.7 63.0001 271.5 49.9001 270.2 36.8001C270 34.2001 265.8 33.1001 266.1 36.4001Z" fill="white"/>
</g>
<mask id="mask3_201_660" style="mask-type:luminance" maskUnits="userSpaceOnUse" x="51" y="51" width="398" height="398">
<path d="M250 448.5C359.629 448.5 448.5 359.629 448.5 250C448.5 140.371 359.629 51.5 250 51.5C140.371 51.5 51.5 140.371 51.5 250C51.5 359.629 140.371 448.5 250 448.5Z" fill="white"/>
</mask>
<g mask="url(#mask3_201_660)">
<path d="M324.1 48.6001C326 65.1 327.4 81.7001 328.2 98.3001C329 114.7 329.7 131.2 329 147.6C328.8 151.6 328.3 155.8 326.4 159.4C324.9 162.2 321.8 166.1 318.2 166C318.6 166.1 319 166.1 319.4 166.2C314.7 161.1 312.5 153.9 313.5 147C313.8 144.9 315.3 138.2 318.2 138.4C319.5 138.5 321.1 140 321.9 140.9C323.3 142.2 324.4 143.8 325.3 145.4C327.1 148.6 328.4 152.3 329.6 155.8C331 159.6 332.1 163.5 333.1 167.4C335.1 175.1 336.4 183 337 190.9C338.2 206.7 336.6 222.6 332.3 237.8C330.8 243.1 328 253.2 320.4 250C314.8 247.7 314 240.5 317.5 236C318.2 235.1 319.4 233.9 320.6 233.7C322.3 233.5 324.4 234.8 325.7 235.7C328.8 237.8 331.2 240.9 333.1 244.1C336.9 250.3 339.6 257.1 341.6 264.1C345.6 278.6 346 293.9 345.4 308.9C345.1 316.3 344.7 323.8 343.9 331.1C343.5 334.5 342.7 338.4 339.6 340.4C337.2 342 334.1 340.8 331.9 339.2C326.3 335.2 325.3 326.2 328.1 320.3C328.7 318.9 329.8 317.1 331.5 317.4C333.4 317.7 335.1 318.4 336.8 319.4C339.8 321.2 342.3 323.8 344.1 326.7C348.4 333.4 349.3 341.5 349.8 349.2C350.4 357.9 350.7 366.7 350.8 375.4C351.1 393.3 350.6 411.2 349.3 429C349 433.4 348.6 437.8 348.2 442.2C348.1 442.8 353 442.7 353.1 441.5C355.5 416 356.4 390.3 355.5 364.7C355.3 358.4 355.1 352 354.5 345.7C354 340.1 353.2 334.5 350.8 329.4C347 321.1 338.3 313.9 328.7 316.5C323.7 317.9 322.1 322.6 321.8 327.4C321.5 332 323 337 326.6 340C332.8 345.1 345 343.5 347.8 335.4C349.4 330.8 349.2 325.5 349.5 320.8C349.9 315.3 350.2 309.8 350.4 304.3C350.7 293.6 350.3 282.8 348.4 272.3C346.6 262 343.2 251.9 337.6 243C335.1 238.9 331.8 234.9 327.1 233.1C323.2 231.6 317.7 232.1 314.3 234.6C311.5 236.7 309.9 240.4 310.3 243.9C310.7 247.9 313.7 250.8 317.5 251.7C321.5 252.7 326.3 252.1 329.8 250.1C334 247.7 335.3 243 336.6 238.8C343.2 216.9 343.9 193.4 339 171.1C337.8 165.7 336.3 160.4 334.4 155.2C332.7 150.4 331 145.2 327.6 141.2C324.7 137.7 320.9 136.2 316.4 137.1C311.4 138.2 309.3 142.3 308.4 147C307.5 151.8 308.2 157 310.3 161.4C311.2 163.2 312.3 165 313.6 166.5C314.4 167.5 314.9 167.6 316.2 167.6C317.6 167.6 319 167.5 320.4 167.2C325 166.2 329 163.2 331.1 158.9C333.5 154.2 333.7 148.7 333.8 143.5C334.2 117.8 333.1 92.1001 330.8 66.5001C330.2 60.3001 329.6 54.1001 328.9 47.9001C328.9 47.0001 324 47.6001 324.1 48.6001Z" fill="white"/>
</g>
<mask id="mask4_201_660" style="mask-type:luminance" maskUnits="userSpaceOnUse" x="51" y="51" width="398" height="398">
<path d="M250 448.5C359.629 448.5 448.5 359.629 448.5 250C448.5 140.371 359.629 51.5 250 51.5C140.371 51.5 51.5 140.371 51.5 250C51.5 359.629 140.371 448.5 250 448.5Z" fill="white"/>
</mask>
<g mask="url(#mask4_201_660)">
<path d="M364.7 59.9998C359.5 82.6998 354.2 106.2 356.7 129.7C357.3 135.2 358.1 140.9 359.9 146.1C361.2 149.8 363.4 153.8 367 155.7C370.3 157.4 375.7 157.9 378.8 155.6C382 153.3 383.3 148.8 384.3 145.2C386.1 138.4 386.5 128.5 377.9 126.6C373.5 125.6 368.8 125.9 365.2 128.8C361.3 131.9 359.7 136.9 358.6 141.6C353.4 164.6 353.3 188.8 357.7 211.9C358.7 216.8 359.7 221.9 361.9 226.5C363.8 230.4 366.8 234.7 371.2 235.8C373.3 236.4 376.1 236.7 378.2 236.1C380.4 235.5 382 233.5 383.4 231.8C386.6 228 389.4 223.5 389.9 218.4C390.3 214.1 388.5 209.6 385 207C381.8 204.5 376.7 203.9 372.9 204.8C364.6 206.7 363.2 217.7 362.5 224.6C361.3 236.7 361.3 248.8 362.3 260.9C362.8 266.5 363.3 272.2 364.6 277.6C365.7 282 367.8 286.2 371.8 288.5C375.4 290.6 380.1 291.1 384.3 290.8C388.3 290.5 392.1 288.8 394.5 285.5C399.2 279 397.5 267.4 389 265C385.1 263.9 380.6 263.8 377.5 266.8C374.1 270.1 372.9 275 371.9 279.4C369.3 290.6 369.2 302.2 370.2 313.7C371.2 325.3 373.3 336.8 375.1 348.4C377 360.5 378.6 372.7 379.9 384.9C380.5 390.8 381.1 396.8 381.6 402.7C381.7 403.4 386.6 403.4 386.6 403.2C384.8 381.7 382 360.5 378.6 339.2C375.4 319.3 372.2 298.5 377.2 278.6C378.2 274.8 379.3 270.7 382.1 267.7C382.7 267.1 383.3 266.5 384 266.1C384.2 266 386.4 264.9 386.5 265.1C386.2 265.1 385.8 265.1 385.5 265.1C385.9 265.3 386.3 265.4 386.6 265.7C387 266 387.5 266.3 387.9 266.6C388.8 267.3 389.6 268.2 390.2 269.2C394.2 275.4 392.5 284.7 385.9 288.4C384.3 289.3 382.4 289.9 380.5 290C379.3 290 377.3 289.1 376 288.3C372.3 285.9 370.5 281.7 369.6 277.5C368.5 272.7 368 267.6 367.5 262.7C367 257.6 366.7 252.5 366.7 247.4C366.6 242.1 366.7 236.7 367.1 231.4C367.4 226.8 367.7 222.2 368.7 217.7C369.5 214.3 370.7 210.8 373.1 208.2C374.2 207 375.5 206.1 377 205.6C377.2 205.5 378.3 205.1 378.4 205.3C378.2 205.3 377.9 205.2 377.7 205.2C378 205.3 378.4 205.4 378.7 205.6C379.7 206.1 380.6 206.7 381.3 207.5C388.1 214 384.7 223.7 379.7 230C378.3 231.7 376.8 233.8 374.8 234.9C374.9 234.9 373.9 235.4 373.9 235.3C374.2 235.4 374.5 235.4 374.8 235.5C374.4 235.3 374 235.1 373.6 234.9C372.5 234.2 371.6 233.4 370.7 232.5C367.7 229.3 366 225.1 364.8 220.9C362.1 211.4 360.8 201.4 360.1 191.6C359.4 181.2 359.6 170.6 360.7 160.2C361.3 155 362.1 149.8 363.1 144.7C364 140.3 365 135.6 367.7 131.9C368.9 130.3 370.3 129 372.1 128.1C373.1 127.6 374 127.4 375 127.1C375.2 127.1 375.3 127.1 375.5 127C374.7 126.9 374.7 126.9 375.6 127.2C376 127.4 376.3 127.6 376.7 127.8C379.5 129.7 380.5 133.2 380.6 136.4C380.7 139.9 380 143.5 378.9 146.9C377.8 150.3 376.3 154.5 372.7 155.9C372.5 156 371.4 156.2 371.3 156.3C371.8 156.3 372.3 156.4 372.8 156.4C372.5 156.3 372.2 156.2 371.9 156C371.3 155.7 370.7 155.2 370.2 154.8C368.6 153.4 367.4 151.5 366.4 149.6C364.5 145.7 363.6 141.2 362.9 137C359.3 116.5 362.5 95.4998 366.7 75.2998C367.7 70.3998 368.8 65.4998 370 60.6998C369.8 60.1998 364.9 59.2998 364.7 59.9998Z" fill="white"/>
</g>
<mask id="mask5_201_660" style="mask-type:luminance" maskUnits="userSpaceOnUse" x="51" y="51" width="398" height="398">
<path d="M250 448.5C359.629 448.5 448.5 359.629 448.5 250C448.5 140.371 359.629 51.5 250 51.5C140.371 51.5 51.5 140.371 51.5 250C51.5 359.629 140.371 448.5 250 448.5Z" fill="white"/>
</mask>
<g mask="url(#mask5_201_660)">
<path d="M408.9 104.2C409.4 121.1 414.5 138 412.5 154.9C411.6 162.6 409.1 171.2 403.4 176.7C402.2 177.9 401.6 178.4 400.2 178.7C398.5 179 396.8 178.9 395.1 178.5C392 177.7 389.2 175.4 388.5 172.1C388.2 170.5 388.4 168.8 389 167.3C389.3 166.7 389.6 166.1 390 165.6C390.2 165.3 391.7 163.3 392 163.4C391.8 163.5 391.6 163.6 391.4 163.7C391.7 163.6 391.9 163.5 392.2 163.5C392.7 163.4 393.2 163.3 393.7 163.3C394.6 163.2 395.5 163.3 396.4 163.4C398.5 163.7 400.4 164.6 402.2 165.7C409.3 170.3 411.6 179.1 413.3 186.8C415.3 195.8 416.3 205 416.3 214.2C416.3 222.9 415.7 232.1 413.3 240.6C412.2 244.3 410.6 247.9 408.1 250.9C407.5 251.5 406.6 252.1 406.1 252.8L406 252.9C406.7 252.6 406.7 252.5 406 252.8C405.5 252.9 405 253 404.4 253C402.9 253 401.4 252.5 400.2 251.6C395.7 248.1 395.5 240.6 397.1 235.6C397.7 233.9 398.5 232.6 399.5 231.2C399.6 231.1 399.7 231 399.8 230.9C398.2 231.6 397.9 231.9 398.8 231.7C399.1 231.7 399.5 231.7 399.8 231.7C400.7 231.8 401.4 232.2 402.2 232.7C404.8 234.5 406.3 237.7 407.3 240.6C408.7 244.9 409.5 249.4 410.3 253.8C411.1 258.2 411.8 262.7 412.3 267.1C413.3 276.2 413.6 285.4 413.3 294.6C413.1 299.3 412.8 303.9 412.2 308.6C411.8 312.4 411.3 316.3 410.1 319.9C409.1 322.8 407.7 325.8 405.4 327.9C405.3 328 404.8 328.3 404.8 328.4C404.9 327.8 406.3 327.8 405.1 328.1C404.4 328.2 403.6 328.3 402.9 328.2C401 328 399.3 327.2 397.9 326C392.3 321.1 391.5 311.2 396 305.3C396.6 304.6 397.2 303.8 398 303.3C397.6 303.5 397.8 303.4 398 303.3C398.4 303.1 398.9 303 399.3 303C401.3 302.6 403.5 302.9 405.3 303.8C408.8 305.5 411.4 308.9 413.6 312.1C417.9 318.6 420.2 326.1 421.4 333.7C424.1 351.2 420.4 368.7 420.6 386.3C420.7 390.9 421 395.5 421.8 400C421.8 400 426.4 398.6 426.2 397.6C422.8 377.2 428.3 356.6 426.4 336.1C425.6 327.3 423.5 318.5 418.8 310.9C416.6 307.3 413.7 303.3 409.8 301.5C406 299.7 402 300.6 398.3 302.4C394.3 304.4 391 307.2 389.6 311.6C388.3 315.6 388.6 320.2 390.4 324C392 327.4 394.9 330.4 398.8 330.7C402.4 331 406.2 328.9 408.9 326.7C414.9 321.7 415.9 312.9 416.7 305.7C417.9 295.3 418.2 284.8 417.5 274.3C416.9 263.8 415.4 253.4 413 243.2C412.1 239.2 411.1 235 408.3 231.9C407.3 230.7 406 229.7 404.4 229.4C402.6 229 400.8 229.8 399.3 230.5C397.4 231.4 395.6 232.6 394.5 234.4C393.5 235.9 392.9 237.6 392.5 239.3C391.7 242.5 391.8 246.1 392.8 249.3C393.7 252.1 395.6 254.6 398.6 255.3C402.7 256.3 407.4 253.5 410.4 251C417.3 245.3 418.9 235.6 419.9 227.2C421.2 216.7 421.1 206.1 419.8 195.7C419.1 190.5 418.2 185.4 416.8 180.4C415.6 175.9 414 171.3 411.1 167.6C408.5 164.3 404.8 161.7 400.6 161.1C396.4 160.4 392.3 162.2 388.9 164.7C386 166.8 383.7 170 384 173.7C384.3 177.3 387.1 179.9 390.4 180.9C394.2 182.1 397.9 181.1 401.4 179.3C405.3 177.3 408.5 174.5 410.8 170.9C421.3 154.8 416.7 133.9 414.5 116.1C413.9 111.4 413.4 106.7 413.3 101.9C413.3 101.7 411.1 102.7 410.9 102.8C410.6 103 408.9 103.6 408.9 104.2Z" fill="white"/>
</g>
<mask id="mask6_201_660" style="mask-type:luminance" maskUnits="userSpaceOnUse" x="51" y="51" width="398" height="398">
<path d="M250 448.5C359.629 448.5 448.5 359.629 448.5 250C448.5 140.371 359.629 51.5 250 51.5C140.371 51.5 51.5 140.371 51.5 250C51.5 359.629 140.371 448.5 250 448.5Z" fill="white"/>
</mask>
<g mask="url(#mask6_201_660)">
<path d="M433.5 130.6C432.9 150.3 432.4 170 431.8 189.8C431.5 199.7 431.2 209.5 431 219.4C430.9 223.8 430.4 228.4 430.9 232.9C431.3 236.5 432.8 240 436.1 241.8C437.5 242.6 439.1 242.9 440.7 242.9C442.7 242.9 444.9 242.8 446.7 242C450 240.6 450.8 236.4 451 233.2C451.2 230.2 451 226.6 448.9 224.2C446.5 221.3 442.1 221.5 438.8 222.2C429.7 224.1 430.2 235.1 429.9 242.4C429.5 252 429.6 261.7 429.9 271.3C430.7 290.5 432.9 309.6 436.6 328.4C437.1 330.8 437.6 333.2 438.1 335.5C438.3 336.2 443.2 335.5 443.1 335.2C439.4 317.9 436.8 300.3 435.6 282.6C435 273.7 434.7 264.8 434.7 255.9C434.7 251.4 434.8 247 434.9 242.5C435 238.4 435 234.1 435.9 230.1C436.3 228.4 437 226.6 438.2 225.2C438.7 224.5 439.4 224 440.1 223.5C440.4 223.3 440.8 223 441.2 222.9C441.4 222.8 441.5 222.7 441.7 222.7C442.8 222.3 441.8 223.1 440.7 222.6C441.4 222.9 442 223 442.7 223.4C443.3 223.8 443.8 224.3 444.3 224.9C445.1 226 445.6 227.3 445.9 228.7C446.5 231.7 446.3 235.1 445.3 238C444.7 239.8 443.8 241.1 442.2 242.1C442.1 242.1 441.8 242.2 441.8 242.3C441.9 242 443.7 242.6 443.3 242.2C443.1 242 442.5 242 442.2 241.9C441.5 241.7 440.8 241.3 440.2 240.9C437.2 238.8 436.1 235.1 435.9 231.6C435.6 227.4 435.9 223.1 436.1 218.9C436.4 209.9 436.6 200.8 436.9 191.8C437.4 173.6 437.9 155.3 438.4 137.1C438.5 134.9 438.5 132.6 438.6 130.4C438.5 129.9 433.5 129.9 433.5 130.6Z" fill="white"/>
</g>
<mask id="mask7_201_660" style="mask-type:luminance" maskUnits="userSpaceOnUse" x="51" y="51" width="398" height="398">
<path d="M250 448.5C359.629 448.5 448.5 359.629 448.5 250C448.5 140.371 359.629 51.5 250 51.5C140.371 51.5 51.5 140.371 51.5 250C51.5 359.629 140.371 448.5 250 448.5Z" fill="white"/>
</mask>
<g mask="url(#mask7_201_660)">
<path d="M161.2 51.8999C162 63.9999 162.8 76.0999 163.6 88.1999C164.4 99.5999 165.4 111 165.3 122.5C165.3 128.1 164.9 133.7 163.9 139.3C163 144.3 161.9 149.9 159.4 154.4C158.6 155.8 156.9 158.5 155.2 158.8C152.9 159.2 151.1 155.9 150.1 154.3C147.2 149.7 145 144.8 143.4 139.6C142.7 137.3 141.8 134.7 142.1 132.3C142.2 131.7 142.5 130.4 143 130.3C143.8 130 145.3 130.8 146 131.2C150.1 133.3 153.2 137.9 155.5 141.7C160.5 149.8 163.2 159 164.7 168.3C166.5 178.8 166.8 189.6 166.9 200.2C167 206.1 166.9 212.1 166.8 218C166.7 220.8 166.7 223.6 166.6 226.4C166.5 228.7 166.4 231.2 165.4 233.4C163.5 237.4 159.2 237.7 155.5 236.2C151.4 234.4 149 230.3 147.9 226.1C146.8 221.9 146.5 216.8 148.6 212.9C149.3 211.5 150.1 210.1 151.8 210.8C153.9 211.6 155.7 213.9 157.2 215.6C169.4 229.6 172.1 249.2 172.7 267.2C173 277.5 172.9 287.8 172.5 298.1C172.2 309.6 171.3 321 168.9 332.3C168.4 334.8 167.8 337.3 167 339.7C166.4 341.4 165.5 344.2 163.4 344.5C161.5 344.8 159.2 343.4 157.9 342.2C156 340.4 155 337.9 154.5 335.4C154 333.1 154 330.7 154 328.3C154 325.5 153.9 322.7 154.5 320C155 317.8 156.1 315.1 158.3 314C160.6 312.8 162.8 314.8 164.4 316.3C178 329.3 179 349.9 178.9 367.5C178.7 391.1 178 414.7 177.5 438.3C177.4 444.2 177.3 450.1 177.2 456C177.2 458 181.9 456.7 182 455C182.5 427.1 183.1 399.3 183.6 371.4C184 351.9 183.9 327.4 168 313.4C163.8 309.7 158.2 310.1 154 313.7C149.5 317.6 149.2 323.5 149.2 329C149.2 334.3 149.4 340.4 153.4 344.4C156.8 347.8 162.1 348.6 166.3 346.2C171.1 343.4 172.1 337.4 173.2 332.4C174.6 325.9 175.6 319.4 176.2 312.8C177.3 300.1 177.4 287.3 177.4 274.6C177.3 254.2 175.9 231.6 162.7 215C159.7 211.3 156 206.7 150.7 207.9C146.2 208.9 143.6 213 142.6 217.2C140.6 226.4 145.2 238.4 155.3 240.1C159.8 240.8 164.8 239.5 168 236.1C171.9 231.9 171.4 225.6 171.5 220.4C171.8 206.9 172 193.3 170.9 179.8C170.1 169 168.4 158 164.1 147.9C162 143 159.3 138.4 155.9 134.3C152.9 130.7 149 127 143.9 127.5C141.6 127.8 139.2 129 138 131C136.7 133.2 137.1 135.8 137.6 138.1C139 144.2 141.5 150 144.7 155.4C146 157.5 147.3 160.1 149.6 161.3C151.7 162.4 154.2 162.2 156.3 161.4C161.3 159.5 164 154.7 165.7 149.9C169.8 137.9 170.3 125.2 169.8 112.6C169.2 98.9999 168.1 85.3999 167.2 71.7999C166.7 64.9999 166.3 58.0999 165.8 51.2999C165.8 48.8999 161.1 50.2999 161.2 51.8999Z" fill="white"/>
</g>
<mask id="mask8_201_660" style="mask-type:luminance" maskUnits="userSpaceOnUse" x="51" y="51" width="398" height="398">
<path d="M250 448.5C359.629 448.5 448.5 359.629 448.5 250C448.5 140.371 359.629 51.5 250 51.5C140.371 51.5 51.5 140.371 51.5 250C51.5 359.629 140.371 448.5 250 448.5Z" fill="white"/>
</mask>
<g mask="url(#mask8_201_660)">
<path d="M114.7 87.5002C109.9 111.3 107.9 135.6 109 159.9C109.2 165.7 109.5 171.6 110.3 177.3C111 182.3 112.8 187 117.1 190C121.1 192.8 126.3 192.7 130 189.5C133.6 186.4 136.4 181.1 137.2 176.4C138 171.6 136.5 166.6 132.4 163.7C128.9 161.2 124.2 161.4 120.8 164.1C117.6 166.6 115.9 170.7 114.9 174.5C113.6 179.6 113 185.1 112.5 190.3C110.1 213.1 112.3 236.4 118.8 258.4C121.3 266.8 124.3 280.6 136 278.6C146.5 276.8 149.2 265 148 256C147.4 251.3 145 246.8 140.2 245.4C136.1 244.3 131.4 245.6 128.2 248.3C124.5 251.4 122.7 256.2 121.7 260.7C120.5 266.2 119.9 271.8 119.3 277.4C116.7 301.1 117.8 325.2 122.4 348.7C124.3 358.6 125.9 370.9 136.4 375.3C145.2 379.1 155.4 375.2 159.4 366.5C161.3 362.4 161.6 357.1 159.1 353.2C156.6 349.2 151.9 347.6 147.4 348.3C136.9 349.9 132.9 362.2 131.3 371.2C129.2 382.5 129.9 394.1 130.5 405.5C131.1 418 131.8 430.6 132.4 443.1C132.7 449.2 133 455.3 133.3 461.4C133.4 464.3 138.4 464.7 138.3 461.6C137.2 440.4 136 419.2 135 397.9C134.6 388 134.4 377.9 136.9 368.3C138 364.1 139.5 359.7 142.3 356.4C144.6 353.7 148.5 351.7 152.1 353C155.8 354.3 156.4 358.9 155.6 362.3C154.7 365.9 152.2 369.1 148.9 370.8C145.5 372.6 141.6 372.7 138.1 371.1C134.1 369.3 131.8 365.7 130.5 361.7C129 357 128.1 352.1 127.1 347.3C126.1 342.2 125.3 337.1 124.7 332C123.4 321.8 122.8 311.6 122.9 301.4C123 291.1 123.7 280.7 125.1 270.5C126.1 263.5 126.9 251.8 135.5 249.7C144.8 247.5 144.3 261.6 142.4 267.1C141.2 270.6 138.4 273.6 134.6 274.1C130.3 274.6 128.3 270.8 127.1 267.3C120.3 248.9 116.9 229.2 116.7 209.6C116.6 199.8 117.4 189.9 119 180.2C119.6 176.7 120.3 173.1 122.2 170C123.8 167.5 126.6 165.1 129.6 167.1C133.1 169.5 133 174.1 131.8 177.7C130.7 181.1 128 186.7 124 187.4C120.1 188.1 117.2 184.1 116.1 180.9C114.6 176.3 114.6 171.1 114.3 166.3C113 145.5 113.8 124.6 116.9 104C117.6 99.0002 118.5 94.0002 119.5 89.0002C120 86.0002 115.2 84.6002 114.7 87.5002Z" fill="white"/>
</g>
<mask id="mask9_201_660" style="mask-type:luminance" maskUnits="userSpaceOnUse" x="51" y="51" width="398" height="398">
<path d="M250 448.5C359.629 448.5 448.5 359.629 448.5 250C448.5 140.371 359.629 51.5 250 51.5C140.371 51.5 51.5 140.371 51.5 250C51.5 359.629 140.371 448.5 250 448.5Z" fill="white"/>
</mask>
<g mask="url(#mask9_201_660)">
<path d="M92 104.8C89.6 129.6 92.8 154.4 93.8 179.2C94.3 191.7 94.2 204.3 92.4 216.8C91.6 222.6 90.5 228.6 88.6 234.2C88.2 235.3 87.8 236.5 87.1 237.5C86.8 237.9 86.5 238.3 86.2 238.7C86.1 238.9 85.5 239.2 86.1 238.9C86.8 238.6 85.8 238.8 85.6 238.9C83.4 239 81.4 237.5 80.1 235.9C76.4 231.3 77 225.4 79.5 220.4C82.2 215.1 86.9 211 91.6 207.4C90.4 207.8 89.2 208.2 88 208.6C92.9 215.3 94.6 223.5 95.6 231.6C96.8 241.1 97.7 250.6 98.3 260.2C98.9 269.9 99.1 279.6 99 289.3C99 294 98.8 298.7 98.6 303.4C98.4 307.9 98.4 312.6 97.7 317.1C97.6 317.8 97.4 318.6 97.2 319.3C96.9 320.2 96.3 320.9 95.9 321.7C95.8 321.8 95.7 321.9 95.7 321.9C96.5 321.6 96.7 321.5 96.1 321.6C95.7 321.6 95.3 321.7 94.9 321.6C94.1 321.5 93.4 321.3 92.6 321C89 319.5 87.3 316.1 87 312.4C86.7 308.7 87.5 304.5 89 301.1C89.4 300.3 89.8 299.5 90.3 298.8C90.4 298.7 90.5 298.6 90.6 298.5C91.1 298.1 90.9 298.1 90.1 298.6C90.1 298.5 91.4 298.6 91.4 298.6C93.2 298.9 94.6 300.3 95.7 301.7C98 304.8 99.6 308.6 100.9 312.2C102.4 316.2 103.4 320.4 104.2 324.6C105.7 333 106.1 341.5 106.2 350C106.5 371.8 105.7 393.7 105.1 415.5C105.1 416.3 109.5 414.8 109.5 413.6C110.1 392.2 110.8 370.9 110.6 349.5C110.5 340.2 110.2 330.9 108.5 321.8C107.6 317.2 106.4 312.8 104.7 308.4C103.2 304.6 101.4 300 98.2 297.4C95 294.8 90.9 296 87.9 298.3C84.8 300.6 83.6 304.4 82.9 308.1C82.1 312.1 81.9 316.9 84.5 320.3C86.5 323 90 324.5 93.2 323.8C97 323.1 100.6 320.5 101.7 316.6C102.3 314.6 102.3 312.4 102.5 310.3C102.7 307.7 102.8 305 102.9 302.4C103.4 292 103.5 281.5 103.2 271C102.9 260.4 102.2 249.8 101.1 239.3C100.2 230.1 99.5 220.3 95.6 211.7C94.7 209.7 93.6 207.8 92.3 206C91.7 205.2 89.2 206.9 88.7 207.2C84.2 210.7 79.7 214.5 76.5 219.3C73.7 223.5 71.7 229 73.4 234C74.9 238.4 79 242.2 83.9 240.9C86.5 240.2 89.1 238.6 90.8 236.4C92.3 234.3 93.1 231.8 93.8 229.3C100.9 203.1 98.2 175.6 96.6 148.9C95.6 133.5 95 118.1 96.4 102.8C96.5 102.1 92.1 103.6 92 104.8Z" fill="white"/>
</g>
<mask id="mask10_201_660" style="mask-type:luminance" maskUnits="userSpaceOnUse" x="51" y="51" width="398" height="398">
<path d="M250 448.5C359.629 448.5 448.5 359.629 448.5 250C448.5 140.371 359.629 51.5 250 51.5C140.371 51.5 51.5 140.371 51.5 250C51.5 359.629 140.371 448.5 250 448.5Z" fill="white"/>
</mask>
<g mask="url(#mask10_201_660)">
<path d="M56.2 163.4C54 184.2 51.8 205.2 52.5 226.2C52.9 236.5 54 246.8 56.1 257C57.1 261.7 58.1 266.5 60.1 270.8C61.7 274.3 64.5 277.7 68.5 278.4C77.4 279.8 81.6 266.8 79.6 260C78.4 255.9 74.6 253.1 70.3 253.3C66.2 253.4 62.6 255.6 60.3 259C57.8 262.8 56.9 267.5 56.3 271.9C55.6 277.3 55.2 282.7 55 288.1C54.7 299 55.4 309.9 56.6 320.7C58.8 342.4 61.9 364.1 64.6 385.8C64.9 388.5 65.3 391.2 65.6 393.9C65.8 395.1 66.7 396.4 68 396.4C69.2 396.5 70.2 395.3 70.1 394.1C67.6 373.9 65 353.8 62.5 333.6C60.1 313.7 58 293.5 60.7 273.5C61.2 269.6 61.8 265.4 63.9 262.1C65.6 259.4 68.7 257.5 72 258C75.3 258.5 75.8 261.9 75.4 264.8C74.9 267.8 73.7 271.9 70.6 273.2C67.7 274.4 65.6 271.9 64.4 269.7C62.4 266.1 61.7 261.8 60.8 257.9C58.7 248.6 57.6 239.1 57.1 229.6C56.1 210.3 57.8 191 59.8 171.8C60 169.5 60.3 167.1 60.5 164.8C60.6 163.5 60 162.2 58.7 161.8C57.7 161.5 56.3 162.1 56.2 163.4Z" fill="white"/>
</g>
</svg>
