<svg width="500" height="500" viewBox="0 0 500 500" fill="none" xmlns="http://www.w3.org/2000/svg">
<mask id="mask0_201_702" style="mask-type:luminance" maskUnits="userSpaceOnUse" x="51" y="51" width="398" height="398">
<path d="M250 448.5C359.629 448.5 448.5 359.629 448.5 250C448.5 140.371 359.629 51.5 250 51.5C140.371 51.5 51.5 140.371 51.5 250C51.5 359.629 140.371 448.5 250 448.5Z" fill="white"/>
</mask>
<g mask="url(#mask0_201_702)">
<path d="M130.2 6.70001C107.4 23.8 92.4999 50.5 89.5999 78.9C87.9999 94.8 91.1999 110.1 94.7999 125.5C98.7999 142.3 102.2 159.2 97.2999 176.2C92.5999 192.4 83.3999 206.8 79.5999 223.3C75.6999 239.9 76.2999 257 80.3999 273.5C84.3999 289.4 90.8999 304.6 94.5999 320.6C96.3999 328.4 97.4999 336.5 97.0999 344.5C96.5999 353 94.0999 361.1 90.8999 369C87.7999 376.8 84.3999 384.5 82.6999 392.8C80.9999 401 80.7999 409.4 81.4999 417.7C82.9999 435.2 88.6999 452.1 95.0999 468.3C96.6999 472.4 98.3999 476.4 99.9999 480.5C100.7 482.2 105.4 480.5 104.8 478.9C98.1999 462.8 91.5999 446.5 88.1999 429.3C84.7999 412.4 85.1999 395.4 91.2999 379.1C94.1999 371.2 97.8999 363.6 100.1 355.5C102.1 347.9 102.5 340 101.7 332.2C100.2 316.3 94.1999 301.2 89.3999 286C84.2999 269.9 80.6999 253.8 82.1999 236.8C82.8999 228.2 84.7999 219.7 87.5999 211.5C90.3999 203.6 94.0999 196.1 97.2999 188.4C100.4 181 103.2 173.4 104.2 165.5C105.3 157.4 104.7 149.1 103.3 141.1C100.5 124.5 94.6999 108.4 93.9999 91.5C92.8999 63.1 104.5 34.5 125 15C127.6 12.5 130.4 10.1 133.3 8.00001C135.9 6.00001 131.7 5.60001 130.2 6.70001Z" fill="white"/>
</g>
<mask id="mask1_201_702" style="mask-type:luminance" maskUnits="userSpaceOnUse" x="51" y="51" width="398" height="398">
<path d="M250 448.5C359.629 448.5 448.5 359.629 448.5 250C448.5 140.371 359.629 51.5 250 51.5C140.371 51.5 51.5 140.371 51.5 250C51.5 359.629 140.371 448.5 250 448.5Z" fill="white"/>
</mask>
<g mask="url(#mask1_201_702)">
<path d="M59.2 111.9C64.6 129.5 69.9 147.3 71.9 165.7C72.9 174.7 72.9 183.8 71.7 192.7C70.5 201.8 67.8 210.5 64.8 219.2C58.9 236.4 52.9 253.6 52.4 272C52.1 281.1 53.4 290 55.7 298.8C58 307.5 60.9 316.1 62.8 325C66.6 342.9 67.5 361.3 65.3 379.4C65 381.6 64.7 383.9 64.4 386.1C64.1 388 68.6 390.1 69 387.8C71.8 369.8 71.8 351.4 68.8 333.4C67.3 324.3 64.8 315.4 62.2 306.6C59.6 297.8 57.4 289 57 279.8C56.3 261.4 61.4 243.7 67.4 226.5C70.4 218 73.4 209.4 75.2 200.5C77 191.6 77.4 182.4 76.9 173.4C75.8 154.9 70.9 136.9 65.6 119.3C64.9 117.1 64.3 114.9 63.6 112.8C63.3 111.7 62.1 110.8 60.9 110.6C60.2 110.4 58.9 110.7 59.2 111.9Z" fill="white"/>
</g>
<mask id="mask2_201_702" style="mask-type:luminance" maskUnits="userSpaceOnUse" x="51" y="51" width="398" height="398">
<path d="M250 448.5C359.629 448.5 448.5 359.629 448.5 250C448.5 140.371 359.629 51.5 250 51.5C140.371 51.5 51.5 140.371 51.5 250C51.5 359.629 140.371 448.5 250 448.5Z" fill="white"/>
</mask>
<g mask="url(#mask2_201_702)">
<path d="M111 60.6C118.4 84.3 125.8 108.7 124.8 133.8C123.8 157.2 116.8 179.8 111 202.4C108.1 213.6 105.5 224.9 104.1 236.3C102.5 248.3 102.5 260.4 103.8 272.4C106.5 297.2 114 321.1 118.3 345.6C122.2 367.9 123.5 391.6 115.7 413.2C114.7 415.8 113.6 418.4 112.4 420.9C111.9 422 112.8 423.2 113.9 423.4C115.2 423.6 116.4 422.7 116.9 421.6C126.9 400.8 127.4 377.2 124.6 354.7C121.4 330.1 113.9 306.3 110 281.8C108 269.5 107.1 257.1 108 244.7C108.8 232.9 111.1 221.3 113.9 209.9C119.4 187.2 126.8 164.7 129.1 141.3C130.3 129.1 129.7 116.9 127.8 104.9C125.7 92.4 122.3 80.1 118.6 68C117.7 65 116.8 62 115.8 59.1C114.8 56.3 110.2 58.1 111 60.6Z" fill="white"/>
</g>
<mask id="mask3_201_702" style="mask-type:luminance" maskUnits="userSpaceOnUse" x="51" y="51" width="398" height="398">
<path d="M250 448.5C359.629 448.5 448.5 359.629 448.5 250C448.5 140.371 359.629 51.5 250 51.5C140.371 51.5 51.5 140.371 51.5 250C51.5 359.629 140.371 448.5 250 448.5Z" fill="white"/>
</mask>
<g mask="url(#mask3_201_702)">
<path d="M143.5 47.7C147.8 74.5 156.4 100.9 155.5 128.4C154.6 153.5 147.1 177.7 141.4 201.9C138.6 213.9 136.2 226.1 135.3 238.5C134.4 251.2 135.5 263.7 138.4 276.1C141.4 289 145.3 301.7 147.6 314.8C149.8 327.7 151 340.7 151 353.8C151.1 379.7 147 405.6 138.7 430.1C137.7 433.1 136.6 436.1 135.5 439.1C135.2 440 139.6 442.1 139.8 441.7C149 417.5 154.2 391.8 155.2 366C155.7 353.2 155.1 340.4 153.5 327.6C151.8 314.4 148.7 301.6 145.4 288.8C142 276 139.3 263.2 139.4 249.8C139.5 237.3 141.4 225 143.9 212.8C149.1 188.2 157.1 164.2 159.3 139.1C160.5 126.1 159.7 113.1 157.6 100.2C155.4 86.7 152.2 73.3 149.6 59.9C149 56.6 148.4 53.3 147.9 50C147.8 49.2 146 48.4 145.4 48.1C145 47.9 143.4 47.1 143.5 47.7Z" fill="white"/>
</g>
<mask id="mask4_201_702" style="mask-type:luminance" maskUnits="userSpaceOnUse" x="51" y="51" width="398" height="398">
<path d="M250 448.5C359.629 448.5 448.5 359.629 448.5 250C448.5 140.371 359.629 51.5 250 51.5C140.371 51.5 51.5 140.371 51.5 250C51.5 359.629 140.371 448.5 250 448.5Z" fill="white"/>
</mask>
<g mask="url(#mask4_201_702)">
<path d="M159.1 40.2C168.8 67.4 175.4 95.7 178.6 124.4C181.8 152.9 182.6 182.5 173.7 210.1C169.5 223 163.9 235.4 160.6 248.6C157.1 262.4 157.4 276.2 159.9 290.2C162.4 304.3 166.4 318.1 169.4 332.1C172.3 345.7 174.8 359.5 176.3 373.3C179.3 400.7 178.8 428.8 171 455.4C170 458.7 168.9 462 167.8 465.3C167.3 466.7 171.8 468.8 172.2 467.6C181.7 441.6 183.8 413.7 181.8 386.3C180.8 372.3 178.7 358.3 176.1 344.5C173.4 330.5 169.8 316.7 166.6 302.8C163.4 288.6 161 274 163.2 259.5C165.3 245.8 170.8 232.9 175.4 220C180.1 206.9 183.3 193.5 184.5 179.6C185.7 165.2 185.2 150.6 184 136.2C181.6 107.3 175.7 78.7 166.7 51.2C165.6 47.9 164.5 44.6 163.3 41.4C163 40.1 158.5 38.4 159.1 40.2Z" fill="white"/>
</g>
<mask id="mask5_201_702" style="mask-type:luminance" maskUnits="userSpaceOnUse" x="51" y="51" width="398" height="398">
<path d="M250 448.5C359.629 448.5 448.5 359.629 448.5 250C448.5 140.371 359.629 51.5 250 51.5C140.371 51.5 51.5 140.371 51.5 250C51.5 359.629 140.371 448.5 250 448.5Z" fill="white"/>
</mask>
<g mask="url(#mask5_201_702)">
<path d="M191.7 41.7999C203.1 68.4 210 96.7 212.5 125.5C215 154.1 213 183.1 206.5 211.1C199.7 240.4 185.5 267.8 183.6 298.2C181.6 329.4 189.3 360 194.7 390.4C199.7 418.7 202.9 448.8 193.9 476.7C192.8 480.1 191.5 483.3 190.1 486.6C189.4 488.2 192.7 491.9 193.5 490.1C205.3 463.3 204.5 433.2 200.3 404.8C195.8 373.8 187 343.2 186.9 311.6C186.8 295.7 189.5 280.3 194.2 265.1C198.7 250.8 204.2 236.7 208 222.2C215.4 194.1 218.2 164.9 216.6 135.9C215 107 209 78.4 198.6 51.4C197.3 48 195.9 44.7 194.5 41.4C193.6 39.1 190.4 38.6999 191.7 41.7999Z" fill="white"/>
</g>
<mask id="mask6_201_702" style="mask-type:luminance" maskUnits="userSpaceOnUse" x="51" y="51" width="398" height="398">
<path d="M250 448.5C359.629 448.5 448.5 359.629 448.5 250C448.5 140.371 359.629 51.5 250 51.5C140.371 51.5 51.5 140.371 51.5 250C51.5 359.629 140.371 448.5 250 448.5Z" fill="white"/>
</mask>
<g mask="url(#mask6_201_702)">
<path d="M227.4 28.6C231.4 57.8 235.4 87.1 236.8 116.5C238.2 145.6 237.2 175 231.1 203.5C228 218.1 223.1 232 218.2 246.1C213.3 260.1 209.4 274.3 208.4 289.2C207.4 304 209.2 318.6 212.4 333.1C215.6 347.6 220 361.9 223.1 376.5C229.3 405.9 229.7 436.4 224.2 465.9C223.5 469.5 222.8 473.1 221.9 476.7C221.4 479 226.3 479.6 226.9 477.3C233.7 448.3 234.8 418.1 230.3 388.7C225.7 359.1 213.5 330.8 213.1 300.5C212.9 285.3 215.4 270.3 220.1 255.8C224.6 241.8 230.1 228.2 233.8 213.9C241.1 185.5 243 156 242.1 126.8C241.2 97.4 237.6 68.2 233.7 39.1C233.2 35.5 232.7 31.9 232.2 28.3C232 26 227 26.1 227.4 28.6Z" fill="white"/>
</g>
<mask id="mask7_201_702" style="mask-type:luminance" maskUnits="userSpaceOnUse" x="51" y="51" width="398" height="398">
<path d="M250 448.5C359.629 448.5 448.5 359.629 448.5 250C448.5 140.371 359.629 51.5 250 51.5C140.371 51.5 51.5 140.371 51.5 250C51.5 359.629 140.371 448.5 250 448.5Z" fill="white"/>
</mask>
<g mask="url(#mask7_201_702)">
<path d="M256.1 27.9C259.1 57.3 262 86.7 263 116.2C264 145.3 263.1 174.5 258.4 203.3C256.1 217.6 252.7 231.7 248.3 245.5C243.9 259.2 238 272.3 233.3 285.9C228.7 299.3 225.3 313.2 226.1 327.4C226.9 341.6 231.2 355.2 236.1 368.4C245.8 394.3 259.3 422.1 252.7 450.4C251.9 453.8 250.8 457.1 249.4 460.3C248.7 462 252.9 464.6 253.5 463.2C265.1 436.7 255 407.6 245.2 382.4C239.9 368.9 234.5 355.4 231.8 341.1C229.1 326.8 230.3 312.7 234.2 298.8C238.1 284.8 244.1 271.4 249.1 257.8C254.1 244.2 257.9 230.2 260.8 216C266.5 187.2 268.1 157.7 267.6 128.4C267.1 98.9 264.4 69.4 261.4 40C261 36.4 260.7 32.9 260.3 29.3C260.2 27.8 255.9 25.6 256.1 27.9Z" fill="white"/>
</g>
<mask id="mask8_201_702" style="mask-type:luminance" maskUnits="userSpaceOnUse" x="51" y="51" width="398" height="398">
<path d="M250 448.5C359.629 448.5 448.5 359.629 448.5 250C448.5 140.371 359.629 51.5 250 51.5C140.371 51.5 51.5 140.371 51.5 250C51.5 359.629 140.371 448.5 250 448.5Z" fill="white"/>
</mask>
<g mask="url(#mask8_201_702)">
<path d="M274.5 31.3C283.9 60 284.7 90.9 286.3 120.8C287.9 150.4 288.8 180.5 283.7 209.8C281.1 224.5 276.9 238.6 271.3 252.4C265.7 266.3 260.1 279.9 258.4 294.8C256.6 310.2 257.5 326.1 258.9 341.4C259.6 348.9 260.7 356.4 262.5 363.8C264.3 371.1 266.9 378.2 269.5 385.2C274.9 399.4 279.8 413.6 282.1 428.7C284.3 443.3 284.5 458.2 282.6 472.9C282.1 476.7 281.5 480.6 280.7 484.3C280.2 486.8 285 488.3 285.5 485.8C291.4 456.4 289.2 425.9 279.2 397.7C274.1 383.2 267.9 369.1 265.4 353.9C262.9 338.7 262.1 322.8 262.5 307.4C262.7 299.5 263.5 291.5 265.4 283.8C267.2 276.5 269.8 269.4 272.6 262.4C278.2 248.5 283.5 234.8 286.7 220.2C293.1 191 293.1 161 291.7 131.3C291 116.3 290.1 101.3 288.9 86.3C287.7 71.3 286 56.3 282.3 41.7C281.4 38 280.3 34.3 279.1 30.7C278.5 28.3 273.6 28.5 274.5 31.3Z" fill="white"/>
</g>
<mask id="mask9_201_702" style="mask-type:luminance" maskUnits="userSpaceOnUse" x="51" y="51" width="398" height="398">
<path d="M250 448.5C359.629 448.5 448.5 359.629 448.5 250C448.5 140.371 359.629 51.5 250 51.5C140.371 51.5 51.5 140.371 51.5 250C51.5 359.629 140.371 448.5 250 448.5Z" fill="white"/>
</mask>
<g mask="url(#mask9_201_702)">
<path d="M307.1 39.5C317 66.4 324.1 94.5 327.5 123C330.9 151.2 330.7 179.9 326.1 207.9C323.8 222 320.3 235.9 315.7 249.4C311.1 262.9 304.9 275.9 299.8 289.2C294.8 302.4 290.9 316.2 290.9 330.4C290.9 345.2 294.4 359.6 298.7 373.7C307 401.1 319.2 429.7 313.6 458.9C312.9 462.5 311.9 466.1 310.6 469.6C309.8 471.6 314.5 470.1 315 468.7C325.3 441 316 411.4 307.3 384.6C302.6 370.1 297.9 355.5 296.1 340.3C294.4 325.6 296.4 311.3 300.9 297.3C305.4 283.6 311.6 270.6 316.8 257.1C321.9 243.9 325.8 230.2 328.7 216.3C334.4 188.4 335.6 159.6 333.1 131.2C330.6 102.6 324.4 74.4001 315.2 47.2C314 43.8 312.8 40.4 311.6 37C311 35.6 306.5 37.8 307.1 39.5Z" fill="white"/>
</g>
<mask id="mask10_201_702" style="mask-type:luminance" maskUnits="userSpaceOnUse" x="51" y="51" width="398" height="398">
<path d="M250 448.5C359.629 448.5 448.5 359.629 448.5 250C448.5 140.371 359.629 51.5 250 51.5C140.371 51.5 51.5 140.371 51.5 250C51.5 359.629 140.371 448.5 250 448.5Z" fill="white"/>
</mask>
<g mask="url(#mask10_201_702)">
<path d="M332.7 37.2999C338.6 63.2999 348.1 88.2999 354 114.3C360 140.8 361.5 168.2 358.3 195.2C355.2 221.8 346.9 247.3 340.2 273.1C333.7 298.4 328.8 324.7 332.4 350.8C334.1 363.2 338.2 374.9 342.7 386.5C347 397.8 351.6 409 353.5 421C354 424.1 354.2 427.2 354.3 430.3C354.3 431.4 355 432.6 355.6 433.5C355.8 433.8 356.9 435 356.8 433.9C356.2 409.2 342.5 387.9 336.9 364.4C330.6 338.2 334.5 310.7 340.7 284.9C347 258.9 355.7 233.4 359.7 206.8C363.7 180.3 363.2 153.3 358.4 126.9C353.6 100.6 344.2 75.5999 337.5 49.7999C336.7 46.4999 335.9 43.2999 335.1 39.9999C334.9 38.8999 334.3 37.5999 333.5 36.7999C333 36.3999 332.5 36.2999 332.7 37.2999Z" fill="white"/>
</g>
<mask id="mask11_201_702" style="mask-type:luminance" maskUnits="userSpaceOnUse" x="51" y="51" width="398" height="398">
<path d="M250 448.5C359.629 448.5 448.5 359.629 448.5 250C448.5 140.371 359.629 51.5 250 51.5C140.371 51.5 51.5 140.371 51.5 250C51.5 359.629 140.371 448.5 250 448.5Z" fill="white"/>
</mask>
<g mask="url(#mask11_201_702)">
<path d="M357.4 59.8C359.8 84 363.5 108 366.5 132.1C369.6 156.2 372 180.4 371.9 204.7C371.8 216.7 371.1 228.6 369.5 240.5C368 252.1 365.7 263.7 363.7 275.2C359.6 297.9 355.9 321.2 359.9 344.2C361.8 355.1 365.7 365.5 369.3 375.9C372.8 386.1 376.2 396.6 376.3 407.5C376.3 410.2 376.1 412.8 375.8 415.4C375.7 416.3 376.8 417.5 377.4 418.1C377.6 418.3 379.1 419.7 379.3 418.8C382.4 396.9 370.9 376.7 365.5 356.2C359.5 333.5 362 309.8 365.9 287C367.9 275.3 370.2 263.7 372.1 251.9C374 240 375.1 228.1 375.5 216C376.2 192 374.2 168 371.4 144.1C368.5 119.9 364.8 95.7 362.1 71.5C361.8 68.5 361.4 65.5 361.1 62.5C361 61.5 359.9 60.3 359.1 59.7C358.4 59.5 357.3 58.8 357.4 59.8Z" fill="white"/>
</g>
<mask id="mask12_201_702" style="mask-type:luminance" maskUnits="userSpaceOnUse" x="51" y="51" width="398" height="398">
<path d="M250 448.5C359.629 448.5 448.5 359.629 448.5 250C448.5 140.371 359.629 51.5 250 51.5C140.371 51.5 51.5 140.371 51.5 250C51.5 359.629 140.371 448.5 250 448.5Z" fill="white"/>
</mask>
<g mask="url(#mask12_201_702)">
<path d="M381.1 81.9C380.4 104.7 381.1 127.5 383.5 150.1C384.6 161.2 386.1 172.2 388 183.2C389.8 193.9 391.9 204.6 393.8 215.3C397.4 236.4 400.2 258.1 396.8 279.5C395.1 290.1 391.5 300 387.5 310C383.6 319.9 380.4 329.8 380.2 340.5C380 361.6 389.2 381.6 398.7 399.9C399.9 402.3 401.2 404.7 402.5 407C402.9 407.8 407.2 405.2 406.7 404.2C396.8 385.7 386.5 366 384.7 344.7C383.8 334.2 385.6 324.1 389.1 314.2C392.7 304.3 397.2 294.7 399.6 284.4C404.4 263.7 402.6 242.1 399.4 221.3C396 199.4 391.3 177.7 388.7 155.7C386 133.2 384.9 110.5 385.3 87.8C385.3 85 385.4 82.3 385.5 79.5C385.4 78.8 381.1 80.6 381.1 81.9Z" fill="white"/>
</g>
<mask id="mask13_201_702" style="mask-type:luminance" maskUnits="userSpaceOnUse" x="51" y="51" width="398" height="398">
<path d="M250 448.5C359.629 448.5 448.5 359.629 448.5 250C448.5 140.371 359.629 51.5 250 51.5C140.371 51.5 51.5 140.371 51.5 250C51.5 359.629 140.371 448.5 250 448.5Z" fill="white"/>
</mask>
<g mask="url(#mask13_201_702)">
<path d="M405.6 102.3C404.8 120.1 405.4 138 407.2 155.7C409 173.4 412 191 415.6 208.4C419.2 225.9 422.9 243.4 423.1 261.3C423.2 270 422.2 278.6 420.4 287.1C418.6 295.5 416.2 303.7 414.8 312.2C413.4 320.4 413 328.8 414.7 337C416.4 345.1 419.9 352.8 423.6 360.1C424.5 361.9 425.5 363.8 426.4 365.6C426.9 366.6 428.4 367.4 429.5 367.3C430.6 367.2 431 366.4 430.5 365.5C426.7 358.2 422.9 350.9 420.5 343C418 334.9 417.6 326.7 418.7 318.4C419.7 310.1 421.9 301.9 423.8 293.8C425.8 285.4 427.3 276.9 427.6 268.3C428.2 250.7 425 233.2 421.5 216C418 198.7 414.6 181.4 412.6 163.8C410.5 146.1 409.6 128.3 410.1 110.6C410.2 108.4 410.2 106.2 410.4 103.9C410.3 102.1 405.7 100.2 405.6 102.3Z" fill="white"/>
</g>
<mask id="mask14_201_702" style="mask-type:luminance" maskUnits="userSpaceOnUse" x="51" y="51" width="398" height="398">
<path d="M250 448.5C359.629 448.5 448.5 359.629 448.5 250C448.5 140.371 359.629 51.5 250 51.5C140.371 51.5 51.5 140.371 51.5 250C51.5 359.629 140.371 448.5 250 448.5Z" fill="white"/>
</mask>
<g mask="url(#mask14_201_702)">
<path d="M433.5 134.9C422.4 156.2 422.2 180.9 425.6 204.2C429.3 229.9 437.2 254.9 438.4 281C439.1 296 438.1 311 437.1 326C436.9 328.7 441.4 330.2 441.6 327C442.5 313.7 443.4 300.5 443.1 287.2C442.8 274.2 441.1 261.4 438.7 248.7C434.1 224.5 427.3 200.4 428.3 175.6C428.8 162.7 431.4 149.7 437.4 138.2C438 137.1 437.7 135.7 436.7 134.9C435.8 134.1 434.1 133.7 433.5 134.9Z" fill="white"/>
</g>
</svg>
