<svg width="500" height="500" viewBox="0 0 500 500" fill="none" xmlns="http://www.w3.org/2000/svg">
<mask id="mask0_201_681" style="mask-type:luminance" maskUnits="userSpaceOnUse" x="51" y="51" width="398" height="398">
<path d="M250 448.5C359.629 448.5 448.5 359.629 448.5 250C448.5 140.371 359.629 51.5 250 51.5C140.371 51.5 51.5 140.371 51.5 250C51.5 359.629 140.371 448.5 250 448.5Z" fill="white"/>
</mask>
<g mask="url(#mask0_201_681)">
<path d="M-4.69977 147.6C32.5002 110 79.8002 82.7998 130.8 68.6998C156.4 61.5998 183 57.7998 209.5 57.6998C216 57.6998 222.5 57.7998 229 58.1998C235.2 58.5998 243.6 58.8998 244.5 66.6998C245.3 73.5998 240.5 79.2998 235.6 83.4998C230.2 88.0998 224.4 92.3998 219 96.9998C213.5 101.7 208.2 106.6 203 111.6C197.9 116.5 192.2 121.6 188.1 127.4C184.9 132 183.3 137.6 185.5 143C187.6 148.1 192.2 151.9 197.3 153.8C203.6 156.2 210.5 155.6 217 154.3C224.3 152.8 231.4 150.7 238.6 148.7C252.8 144.7 266.8 140.4 280.8 135.8C337 117.3 391.6 94.2998 446.5 72.2998C501.7 50.0998 557.3 28.6998 615 13.7998C622.1 11.9998 629.3 10.1998 636.5 8.59981C639.2 7.99981 636.2 4.09981 634.1 4.59981C575.9 17.8998 519.7 38.2998 464.3 60.1998C408.7 82.1998 353.7 105.7 297.2 125.4C283.3 130.2 269.3 134.8 255.2 139.1C248 141.3 240.7 143.4 233.4 145.4C226.1 147.4 218.6 149.8 211.1 150.9C204.2 152 196 151.4 191.4 145.4C186.7 139.4 190.1 132.5 194.4 127.5C204.1 116.1 215.8 105.9 227.4 96.3998C236.2 89.1998 250.6 81.1998 249.2 67.7998C247.8 54.3998 232.5 54.1998 222.2 53.6998C196.2 52.5998 170 54.9998 144.5 60.5998C93.0002 71.9998 44.3002 96.3998 5.10023 131.5C0.400233 135.7 -4.19977 140.1 -8.69977 144.6C-10.2998 146.2 -6.39977 149.2 -4.69977 147.6Z" fill="white"/>
</g>
<mask id="mask1_201_681" style="mask-type:luminance" maskUnits="userSpaceOnUse" x="51" y="51" width="398" height="398">
<path d="M250 448.5C359.629 448.5 448.5 359.629 448.5 250C448.5 140.371 359.629 51.5 250 51.5C140.371 51.5 51.5 140.371 51.5 250C51.5 359.629 140.371 448.5 250 448.5Z" fill="white"/>
</mask>
<g mask="url(#mask1_201_681)">
<path d="M27.2998 118.9C70.4998 99.9002 114.9 80.5001 162.4 76.1001C168.1 75.6001 173.9 75.3001 179.6 75.2001C182.3 75.2001 185.5 74.7001 188.1 75.4001C191.2 76.3001 191.2 79.2001 190.5 81.8001C187.7 92.1002 180.3 100.6 173.7 108.8C160 125.9 149.6 145.4 144.1 166.8C142 175 139.5 186.6 150.1 189.7C154.8 191.1 160.1 190.5 165 190.3C171 190 176.9 189.6 182.8 189C206 186.6 229 181.6 251.4 175.1C296.8 161.9 340 142.3 383.3 123.6C426.9 104.8 471.1 86.6001 517.8 77.1001C523.5 75.9001 529.2 74.9001 534.9 74.0001C536 73.8001 537.2 73.2001 537.9 72.4001C538.2 72.2001 539.3 71.0001 538.2 71.1001C491.6 78.4001 447.2 94.9001 403.9 113.1C359.8 131.6 316.5 152.1 271 167C248.1 174.5 224.8 180.6 200.9 184.2C189.3 185.9 177.5 187.1 165.8 187.5C160.9 187.7 155.1 188.2 150.7 185.4C146.3 182.6 145.8 177.3 146.4 172.5C147.9 161.8 152 151.1 156.3 141.3C160.9 131 166.7 121.1 173.6 112.1C179.9 103.7 187.3 96.0001 191.9 86.4001C193.4 83.4001 196.8 77.0002 194.2 73.8002C192.8 72.2002 190.5 72.3001 188.5 72.2001C185.6 72.2001 182.8 72.2001 179.9 72.2001C133 73.6001 88.0998 91.0001 45.2998 109.5C39.7998 111.9 34.3998 114.3 28.8998 116.7C28.1998 117 26.1998 117.9 26.0998 118.7C25.9998 119.5 26.5998 119.3 27.2998 118.9Z" fill="white"/>
</g>
<mask id="mask2_201_681" style="mask-type:luminance" maskUnits="userSpaceOnUse" x="51" y="51" width="398" height="398">
<path d="M250 448.5C359.629 448.5 448.5 359.629 448.5 250C448.5 140.371 359.629 51.5 250 51.5C140.371 51.5 51.5 140.371 51.5 250C51.5 359.629 140.371 448.5 250 448.5Z" fill="white"/>
</mask>
<g mask="url(#mask2_201_681)">
<path d="M67.2002 142.2C80.7002 129.3 97.8002 120.2 116.2 116.7C120.6 115.9 125.5 115.4 127.3 120.5C128.8 124.4 127.4 129 126.1 132.8C123 142.1 118.9 151.1 115.2 160.2C111.7 169.1 108.5 178.2 107.2 187.6C106.1 195.7 105.5 205.6 113.4 210.5C119.9 214.5 128.2 214.5 135.6 214.2C146 213.8 156.4 212.9 166.8 211.8C208.9 207.2 250.3 197.3 291 185.7C332.4 173.9 373.4 160.5 414.6 148.1C456.8 135.4 499.1 123.1 541.5 111.3C546.8 109.8 552.1 108.3 557.4 106.9C558.5 106.6 557 105.8 556.7 105.7C555.7 105.3 554.3 105.2 553.3 105.5C510.5 117.3 467.9 129.6 425.4 142.3C383.8 154.7 342.5 168.1 300.9 180.4C259.9 192.5 218.4 203.2 176.1 208.9C165.5 210.3 154.8 211.4 144.2 212.1C139.3 212.4 134.3 212.8 129.4 212.8C125.6 212.8 121.4 212.5 118 210.5C109.4 205.4 111.5 192.6 113.1 184.4C114.9 175 118.4 166 122.1 157.1C125.7 148.3 130.2 139.4 132.4 130.1C133.3 126.6 133.7 122.3 131.5 119.2C129.4 116.2 125.6 115 122.1 114.6C113.8 113.8 104.7 116.8 97.1002 119.7C88.7002 122.8 80.6002 127.1 73.3002 132.4C69.6002 135.1 66.1002 138 62.7002 141.2C61.8002 141.7 66.2002 143.2 67.2002 142.2Z" fill="white"/>
</g>
<mask id="mask3_201_681" style="mask-type:luminance" maskUnits="userSpaceOnUse" x="51" y="51" width="398" height="398">
<path d="M250 448.5C359.629 448.5 448.5 359.629 448.5 250C448.5 140.371 359.629 51.5 250 51.5C140.371 51.5 51.5 140.371 51.5 250C51.5 359.629 140.371 448.5 250 448.5Z" fill="white"/>
</mask>
<g mask="url(#mask3_201_681)">
<path d="M25.6 217.1C32.4 211.1 40.1 206.2 48.4 202.4C52.6 200.5 56.9 198.9 61.4 197.7C63.4 197.2 65.5 196.7 67.6 196.8C70.8 197 71.4 199.2 71.6 202C71.9 206.9 71.7 211.9 71.6 216.9C71.6 222 71.6 227.2 71.6 232.3C71.6 240.7 69.9 250.8 76.5 257.3C81.8 262.5 89.3 263.4 96.3 263.8C106.6 264.5 117 263.9 127.2 262.7C147.5 260.3 167.7 255.7 187.6 250.8C227.3 241.1 266.2 228.6 305 215.7C345 202.4 384.9 189 424.9 175.6C464.9 162.2 504.9 148.8 544.9 135.4C550 133.7 555 132 560.1 130.3C561.4 129.8 558.6 125.9 557.3 126.3C517 139.8 476.6 153.3 436.3 166.8C396.2 180.2 356.1 193.7 316 207.1C276.9 220.2 237.8 233.1 197.9 243.5C178.1 248.7 158.1 253.4 137.8 256.8C127.8 258.5 117.7 259.8 107.5 260.1C102.3 260.3 97.2 260.2 92 259.8C88 259.5 83.7 259 80 257.3C75.2 255 75.1 250.4 75.1 245.6C75.1 240.3 75.1 235 75.1 229.6C75.1 224.5 75.1 219.3 75.1 214.2C75.1 210 75.7 205.2 74.4 201.1C73.5 198 71.3 195.1 68.3 193.7C64.6 192 60.5 193.2 56.8 194.3C48.5 196.8 40.5 200.4 33.1 205.1C29.3 207.6 25.7 210.3 22.3 213.3C21.4 214.1 24.7 217.9 25.6 217.1Z" fill="white"/>
</g>
<mask id="mask4_201_681" style="mask-type:luminance" maskUnits="userSpaceOnUse" x="51" y="51" width="398" height="398">
<path d="M250 448.5C359.629 448.5 448.5 359.629 448.5 250C448.5 140.371 359.629 51.5 250 51.5C140.371 51.5 51.5 140.371 51.5 250C51.5 359.629 140.371 448.5 250 448.5Z" fill="white"/>
</mask>
<g mask="url(#mask4_201_681)">
<path d="M277.5 48.4999C278.1 48.9999 278.7 49.5999 279.2 50.1999C279.2 50.1999 279 49.6999 279.1 50.0999C279.2 50.4999 279.4 50.7999 279.5 51.1999C280.1 52.8999 280.4 54.6999 280.5 56.4999C280.7 60.2999 279.9 64.0999 278.6 67.6999C275.6 75.5999 269.4 81.6999 264 87.8999C260.7 91.5999 257.6 95.4999 255.3 99.8999C255.1 100.4 256.1 101.8 256.4 102.2C256.7 102.7 257.3 104 258 104.2C269.3 106.6 280.5 103 291.1 99.1999C302.4 95.1999 313.6 91.1999 324.9 87.1999C347.3 79.2999 369.7 71.2999 392.2 63.3999C404.9 58.8999 417.6 54.3999 430.3 49.8999C430.4 49.8999 428.4 45.3999 427.7 45.5999C405.1 53.5999 382.6 61.5999 360 69.5999C337.6 77.4999 315.2 85.4999 292.7 93.3999C280.9 97.5999 268.2 102.6 255.5 99.7999C256.4 101.2 257.3 102.6 258.1 104.1C262.8 95.0999 270.7 88.5999 276.6 80.4999C281.4 73.8999 284.8 65.1999 282.9 56.8999C281.8 52.1999 279 47.3999 275.3 44.1999C275.1 43.9999 275.8 45.6999 275.9 45.8999C276.2 46.7999 276.7 47.7999 277.5 48.4999Z" fill="white"/>
</g>
<mask id="mask5_201_681" style="mask-type:luminance" maskUnits="userSpaceOnUse" x="51" y="51" width="398" height="398">
<path d="M250 448.5C359.629 448.5 448.5 359.629 448.5 250C448.5 140.371 359.629 51.5 250 51.5C140.371 51.5 51.5 140.371 51.5 250C51.5 359.629 140.371 448.5 250 448.5Z" fill="white"/>
</mask>
<g mask="url(#mask5_201_681)">
<path d="M306.1 46.0999C305.8 53.2999 303.6 60.3999 299.8 66.4999C298.9 67.8999 297.7 69.1999 297.2 70.7999C296.6 72.5999 297.3 74.3999 298.8 75.4999C300.4 76.5999 302.5 76.7999 304.4 76.9999C306.3 77.1999 308.1 77.0999 310 76.8999C317.8 75.9999 324.9 72.3999 332 69.2999C339.2 66.1999 346.5 63.4999 354 61.0999C362.5 58.3999 371.1 56.0999 379.9 54.2999C381.1 54.0999 381.1 52.5999 380.6 51.7999C380 50.6999 378.7 50.0999 377.4 50.2999C362.8 53.2999 348.6 57.5999 334.8 63.1999C328 65.8999 321.5 69.3999 314.5 71.4999C311.2 72.4999 307.8 73.1999 304.4 72.9999C303.5 72.9999 302.7 72.8999 301.9 72.6999C301.7 72.6999 301.1 72.3999 300.9 72.4999C301.2 72.7999 301.4 73.0999 301.7 73.4999C301.7 73.2999 301.8 73.1999 301.8 72.9999C302.3 71.4999 303.6 70.1999 304.4 68.7999C308.4 62.1999 310.6 54.6999 310.9 47.0999C310.8 44.8999 306.2 43.2999 306.1 46.0999Z" fill="white"/>
</g>
<mask id="mask6_201_681" style="mask-type:luminance" maskUnits="userSpaceOnUse" x="51" y="51" width="398" height="398">
<path d="M250 448.5C359.629 448.5 448.5 359.629 448.5 250C448.5 140.371 359.629 51.5 250 51.5C140.371 51.5 51.5 140.371 51.5 250C51.5 359.629 140.371 448.5 250 448.5Z" fill="white"/>
</mask>
<g mask="url(#mask6_201_681)">
<path d="M10.9002 267C17.9002 262.2 25.6002 256.7 34.4002 256.8C42.8002 256.9 48.4002 262 51.1002 269.7C53.4002 276.2 54.5002 283.6 59.7002 288.5C65.8002 294.1 75.1002 295.9 83.0002 297C101 299.6 119.3 297 137 293.7C155 290.3 172.8 285.9 190.4 280.6C225.6 270.1 259.7 256.5 293.6 242.4C328.5 228 363.2 213.2 398.6 200.1C434.6 186.7 471 174.5 507.7 163.4C512.3 162 516.9 160.7 521.4 159.3C524.3 158.5 523.5 155.6 520.6 156.5C483.4 167.3 446.6 179.4 410.3 192.6C374.7 205.6 339.7 220 304.7 234.5C270.3 248.8 235.9 263 200.4 274.4C182.9 280 165.1 284.9 147.1 288.7C128.8 292.6 109.7 296.1 90.9002 294.6C86.2002 294.2 81.6002 293.5 77.0002 292.3C72.7002 291.2 68.3002 289.9 64.8002 287C58.9002 282.2 58.0002 274.2 55.5002 267.5C53.0002 260.7 48.3002 255.7 41.0002 254.2C33.2002 252.5 25.4002 254.7 18.5002 258.3C14.7002 260.3 11.1002 262.7 7.60023 265.2C6.80023 265.8 6.40023 266.7 7.30023 267.4C8.40023 268.1 10.0002 267.6 10.9002 267Z" fill="white"/>
</g>
<mask id="mask7_201_681" style="mask-type:luminance" maskUnits="userSpaceOnUse" x="51" y="51" width="398" height="398">
<path d="M250 448.5C359.629 448.5 448.5 359.629 448.5 250C448.5 140.371 359.629 51.5 250 51.5C140.371 51.5 51.5 140.371 51.5 250C51.5 359.629 140.371 448.5 250 448.5Z" fill="white"/>
</mask>
<g mask="url(#mask7_201_681)">
<path d="M32 297.5C37.4 311.2 49.5 321 62.9 326.2C79.4 332.6 97.7 332.7 115.2 331.6C150.9 329.3 185.6 319.4 218.8 306.5C253 293.2 285.9 276.9 319.1 261.3C354.3 244.7 389.6 228.4 425.1 212.5C460.6 196.6 496.2 180.9 531.9 165.5C536.4 163.6 540.8 161.7 545.3 159.8C546 159.5 547.4 158.4 546.9 157.5C546.4 156.5 544.7 157.1 544.1 157.4C508.9 172.4 473.9 187.7 439 203.3C404.3 218.8 369.6 234.7 335.2 250.8C302.2 266.2 269.5 282.5 236 296.7C203.5 310.4 169.8 321.9 134.8 326.6C104.1 330.7 61.9 333.2 41.5 304.6C39.4 301.7 37.8 298.6 36.5 295.3C35.9 293.6 31.3 295.7 32 297.5Z" fill="white"/>
</g>
<mask id="mask8_201_681" style="mask-type:luminance" maskUnits="userSpaceOnUse" x="51" y="51" width="398" height="398">
<path d="M250 448.5C359.629 448.5 448.5 359.629 448.5 250C448.5 140.371 359.629 51.5 250 51.5C140.371 51.5 51.5 140.371 51.5 250C51.5 359.629 140.371 448.5 250 448.5Z" fill="white"/>
</mask>
<g mask="url(#mask8_201_681)">
<path d="M73.4002 354C89.2002 359 105.8 361.1 122.3 361.7C138.2 362.3 154.2 361.4 170 359.4C201.6 355.4 232.5 346.7 262.3 335.5C292.3 324.3 321.3 310.5 349.7 295.7C377.8 281 405.1 265 431.7 247.7C458.4 230.3 484.2 211.7 509.1 191.9C512.1 189.5 515.2 187 518.2 184.6C518.5 184.3 515.2 180.7 514.5 181.3C489.9 201.3 464.5 220.2 438.1 237.8C411.9 255.3 384.8 271.6 357.1 286.6C329.1 301.7 300.4 315.7 270.9 327.5C240.9 339.5 209.8 349.2 177.9 354.4C162.3 356.9 146.6 358.4 130.8 358.5C114.5 358.6 97.9002 357.5 82.0002 353.9C78.0002 353 74.1002 351.9 70.2002 350.7C69.7002 350.5 71.1002 352.2 71.1002 352.3C71.6002 352.9 72.4002 353.7 73.4002 354Z" fill="white"/>
</g>
<mask id="mask9_201_681" style="mask-type:luminance" maskUnits="userSpaceOnUse" x="51" y="51" width="398" height="398">
<path d="M250 448.5C359.629 448.5 448.5 359.629 448.5 250C448.5 140.371 359.629 51.5 250 51.5C140.371 51.5 51.5 140.371 51.5 250C51.5 359.629 140.371 448.5 250 448.5Z" fill="white"/>
</mask>
<g mask="url(#mask9_201_681)">
<path d="M72.6001 375.4C84.4001 383.8 98.4001 387.7 112.7 389.4C128.5 391.2 144.5 390.8 160.4 390.1C177.8 389.3 195.2 387.7 212.6 386C229.4 384.3 246.1 382.7 262.7 379.7C278.7 376.8 294.4 372.6 309.6 366.6C324.2 360.8 338.3 353.6 351.9 345.7C365.5 337.8 378.6 329.2 391.6 320.4C404.2 311.8 416.8 303.2 429.1 294.1C453.8 276 477.6 256.3 497.2 232.7C499.6 229.8 501.9 226.9 504.2 223.9C505.6 222 502.8 217.9 501.3 220C483.1 243.9 460.5 264.1 436.7 282.3C424.6 291.5 412.2 300.3 399.6 308.9C386.9 317.6 374.2 326.3 361.1 334.4C334.4 350.9 306.1 365.1 275.4 372.2C259.3 375.9 242.9 378 226.5 379.8C209.5 381.6 192.6 383.3 175.6 384.5C158.9 385.7 142.2 386.4 125.4 385.8C111.3 385.2 96.7001 383.4 83.8001 377.3C80.6001 375.8 77.5001 374 74.6001 372C71.8001 369.9 70.5001 373.9 72.6001 375.4Z" fill="white"/>
</g>
<mask id="mask10_201_681" style="mask-type:luminance" maskUnits="userSpaceOnUse" x="51" y="51" width="398" height="398">
<path d="M250 448.5C359.629 448.5 448.5 359.629 448.5 250C448.5 140.371 359.629 51.5 250 51.5C140.371 51.5 51.5 140.371 51.5 250C51.5 359.629 140.371 448.5 250 448.5Z" fill="white"/>
</mask>
<g mask="url(#mask10_201_681)">
<path d="M147.5 422.4C170.7 422 193.8 419.8 216.7 415.9C239.6 412 262.2 406.5 284.3 399.3C306.5 392.1 328.1 383.3 349 373C369.9 362.7 390 350.7 409.2 337.4C429.4 323.3 448.7 308 469.7 295C472.3 293.4 474.9 291.8 477.5 290.3C480.3 288.7 477.5 285.4 475 286.9C453.8 299.2 434.3 314.3 414.4 328.5C395.4 342.1 375.7 354.5 355 365.3C334.5 375.9 313.3 385 291.5 392.5C269.8 400 247.5 405.9 224.9 410.1C202.2 414.4 179.2 416.9 156.1 417.8C153.2 417.9 150.4 418 147.5 418C144.5 418.2 144.3 422.5 147.5 422.4Z" fill="white"/>
</g>
<mask id="mask11_201_681" style="mask-type:luminance" maskUnits="userSpaceOnUse" x="51" y="51" width="398" height="398">
<path d="M250 448.5C359.629 448.5 448.5 359.629 448.5 250C448.5 140.371 359.629 51.5 250 51.5C140.371 51.5 51.5 140.371 51.5 250C51.5 359.629 140.371 448.5 250 448.5Z" fill="white"/>
</mask>
<g mask="url(#mask11_201_681)">
<path d="M159 442.1C181.5 443.4 204 443.1 226.4 441.2C248.9 439.2 271.2 435.6 293 430C314.9 424.5 336.3 417.1 356.9 407.7C377.7 398.2 397.4 386.5 416.8 374.5C436.5 362.3 456 349.8 476.6 339C479.2 337.7 481.7 336.4 484.3 335.1C485.5 334.5 482 331.1 480.9 331.7C460.3 341.9 440.8 354.1 421.4 366.2C401.8 378.4 382.2 390.6 361.5 400.6C341.4 410.4 320.3 418.2 298.7 424.2C277 430.2 254.8 434.4 232.4 436.8C210 439.2 187.4 439.9 164.8 439C162 438.9 159.2 438.7 156.4 438.6C155.3 438.5 156 439.7 156.3 440.1C156.7 441 157.9 442 159 442.1Z" fill="white"/>
</g>
<mask id="mask12_201_681" style="mask-type:luminance" maskUnits="userSpaceOnUse" x="51" y="51" width="398" height="398">
<path d="M250 448.5C359.629 448.5 448.5 359.629 448.5 250C448.5 140.371 359.629 51.5 250 51.5C140.371 51.5 51.5 140.371 51.5 250C51.5 359.629 140.371 448.5 250 448.5Z" fill="white"/>
</mask>
<g mask="url(#mask12_201_681)">
<path d="M157.9 456.1C189.3 459.9 221.2 458.2 252.4 453.1C283.9 448 314.7 439.4 345 429.6C362 424.1 378.9 418.1 395.7 412C396.6 411.7 396.5 411 395.7 410.6C394.6 410.2 393.2 410.3 392.2 410.7C362.6 421.4 332.9 431.7 302.6 439.9C272.8 447.9 242.3 454 211.5 455.7C194.1 456.7 176.7 456.2 159.4 454.2C158.7 454.1 156.7 454.1 156.3 455C155.7 455.8 157.4 456 157.9 456.1Z" fill="white"/>
</g>
<mask id="mask13_201_681" style="mask-type:luminance" maskUnits="userSpaceOnUse" x="51" y="51" width="398" height="398">
<path d="M250 448.5C359.629 448.5 448.5 359.629 448.5 250C448.5 140.371 359.629 51.5 250 51.5C140.371 51.5 51.5 140.371 51.5 250C51.5 359.629 140.371 448.5 250 448.5Z" fill="white"/>
</mask>
<g mask="url(#mask13_201_681)">
<path d="M59.9002 142.9C67.5002 142.2 76.1002 141.2 83.3002 144.3C90.2002 147.3 92.2002 154.9 92.0002 161.8C91.7002 170 91.0002 178.1 90.4002 186.3C89.9002 193.5 89.1002 200.9 90.9002 208C93.9002 220.5 106.6 228.2 118.6 230.4C126.7 231.9 135 231.1 143.1 230.1C151.3 229 159.4 227.9 167.5 226.6C200 221.5 232.3 215 264.3 207.4C296.2 199.9 327.9 191.3 359.5 182.3C391.2 173.2 422.7 163.6 454.2 153.9C458.1 152.7 461.9 151.5 465.8 150.3C466.3 150.2 464.6 149.1 464.5 149C464 148.7 462.4 147.5 461.7 147.7C430.2 157.4 398.7 167.1 367 176.3C335.4 185.5 303.6 194.3 271.6 202.1C239.6 209.9 207.5 216.7 175 222.2C167 223.5 159 224.8 151 225.9C142.9 227.1 134.7 228.4 126.5 228.7C119.4 228.9 111.1 228.4 104.9 224.4C98.8002 220.4 95.4002 213.7 94.5002 206.6C93.6002 199 94.6002 191.2 95.1002 183.6C95.4002 179.4 95.6002 175.2 95.9002 171C96.1002 167.2 96.6002 163.4 96.2002 159.6C94.9002 146.2 79.3002 139.9 67.5002 139.7C63.6002 139.6 59.6002 140 55.7002 140.4C55.2002 140.4 56.9002 141.6 57.0002 141.7C57.8002 142 59.1002 143 59.9002 142.9Z" fill="white"/>
</g>
<mask id="mask14_201_681" style="mask-type:luminance" maskUnits="userSpaceOnUse" x="51" y="51" width="398" height="398">
<path d="M250 448.5C359.629 448.5 448.5 359.629 448.5 250C448.5 140.371 359.629 51.5 250 51.5C140.371 51.5 51.5 140.371 51.5 250C51.5 359.629 140.371 448.5 250 448.5Z" fill="white"/>
</mask>
<g mask="url(#mask14_201_681)">
<path d="M64.8998 344.6C92.8998 344.9 120.8 343.1 148.5 339.2C176.1 335.3 203.4 329.3 230.1 321.3C256.9 313.3 283.1 303.3 308.4 291.3C333.7 279.4 357.7 265.3 381.2 250.1C404.6 234.9 428 219.2 453.9 208.4C457.1 207 460.4 205.8 463.7 204.6C464.5 204.3 465.9 203.4 465.5 202.3C465.1 201.2 463.4 201.4 462.6 201.7C436.3 211.1 412.6 225.9 389.2 241C365.8 256.2 342.3 271 317.4 283.5C292.6 295.9 266.8 306.4 240.3 314.9C213.9 323.4 186.8 329.9 159.4 334.3C132.1 338.7 104.4 341.1 76.7998 341.3C73.2998 341.3 69.7998 341.3 66.2998 341.3C65.1998 341.3 63.6998 341.9 63.2998 343C62.9998 344 63.8998 344.6 64.8998 344.6Z" fill="white"/>
</g>
<mask id="mask15_201_681" style="mask-type:luminance" maskUnits="userSpaceOnUse" x="51" y="51" width="398" height="398">
<path d="M250 448.5C359.629 448.5 448.5 359.629 448.5 250C448.5 140.371 359.629 51.5 250 51.5C140.371 51.5 51.5 140.371 51.5 250C51.5 359.629 140.371 448.5 250 448.5Z" fill="white"/>
</mask>
<g mask="url(#mask15_201_681)">
<path d="M59.8002 307.6C88.7002 309.9 117.8 309.5 146.7 306.4C175.4 303.4 203.9 297.7 231.6 289.5C259.4 281.3 286.5 270.5 312.3 257.3C325.5 250.5 338.3 243 350.9 235.2C364.1 227 377.2 218.7 391 211.7C418.3 197.9 448.1 190.1 476.2 178.3C479.7 176.8 483.2 175.3 486.6 173.7C487.3 173.4 485.2 168.8 484.5 169.2C456.8 182.1 427.1 189.9 399.2 202.3C371.3 214.8 346.6 233.2 319.8 247.7C294.3 261.5 267.5 272.9 239.9 281.7C212.4 290.5 184.1 296.8 155.4 300.5C126.6 304.2 97.5002 305.3 68.5002 303.7C64.9002 303.5 61.3002 303.2 57.7002 303C57.7002 303.1 58.5002 307.5 59.8002 307.6Z" fill="white"/>
</g>
<mask id="mask16_201_681" style="mask-type:luminance" maskUnits="userSpaceOnUse" x="51" y="51" width="398" height="398">
<path d="M250 448.5C359.629 448.5 448.5 359.629 448.5 250C448.5 140.371 359.629 51.5 250 51.5C140.371 51.5 51.5 140.371 51.5 250C51.5 359.629 140.371 448.5 250 448.5Z" fill="white"/>
</mask>
<g mask="url(#mask16_201_681)">
<path d="M86.6998 377.9C117.5 377.1 148.2 374.4 178.7 370C209 365.6 239.1 359.3 268.7 351.4C298 343.5 327.1 334.3 354.9 322.1C382.9 309.7 408.5 293.2 433.7 276.1C457.4 260.1 481.6 244.2 502.1 224C504.6 221.5 507 219 509.4 216.5C510.7 215.1 506.9 211.9 505.5 213.4C486.1 234.5 462.5 250.9 438.8 266.8C413.9 283.7 388.9 300.7 361.7 313.8C334.4 326.9 305.4 336.5 276.3 344.8C246.8 353.2 216.8 359.8 186.6 364.6C156.5 369.4 126 372.5 95.5998 373.7C91.7998 373.9 88.0998 374 84.2998 374.1C83.0998 374.1 83.2998 375.5 83.7998 376.2C84.2998 377.1 85.4998 377.9 86.6998 377.9Z" fill="white"/>
</g>
<mask id="mask17_201_681" style="mask-type:luminance" maskUnits="userSpaceOnUse" x="51" y="51" width="398" height="398">
<path d="M250 448.5C359.629 448.5 448.5 359.629 448.5 250C448.5 140.371 359.629 51.5 250 51.5C140.371 51.5 51.5 140.371 51.5 250C51.5 359.629 140.371 448.5 250 448.5Z" fill="white"/>
</mask>
<g mask="url(#mask17_201_681)">
<path d="M118.3 414C144.1 410.4 169.9 406.5 195.6 402.3C220.9 398.2 246.5 394.5 271.4 388.1C295.2 382 317.7 372 339.5 360.8C362.2 349.1 384.4 336.6 406.6 323.9C429 311.1 451.3 297.9 473.5 284.7C476.3 283.1 479 281.4 481.8 279.8C482.6 279.3 483.5 278.3 482.8 277.3C482.1 276.4 480.4 276.8 479.5 277.2C457.5 290.3 435.5 303.3 413.3 316.1C391.3 328.8 369.1 341.3 346.6 353.3C325.1 364.7 303 375.4 279.6 382.4C255.3 389.6 229.8 393.2 204.8 397.3C179.3 401.5 153.8 405.4 128.2 409.1C125 409.6 121.8 410 118.6 410.4C117.6 410.5 116.1 411.3 116.1 412.5C116 413.9 117.4 414.1 118.3 414Z" fill="white"/>
</g>
<mask id="mask18_201_681" style="mask-type:luminance" maskUnits="userSpaceOnUse" x="51" y="51" width="398" height="398">
<path d="M250 448.5C359.629 448.5 448.5 359.629 448.5 250C448.5 140.371 359.629 51.5 250 51.5C140.371 51.5 51.5 140.371 51.5 250C51.5 359.629 140.371 448.5 250 448.5Z" fill="white"/>
</mask>
<g mask="url(#mask18_201_681)">
<path d="M162.8 437.2C183.9 436.7 204.9 434.4 225.5 430.1C246.2 425.8 266.4 419.5 286.2 412.3C305.4 405.3 324.4 397.7 343.1 389.6C361.9 381.4 380.4 372.8 398.7 363.5C416.8 354.3 434.7 344.6 452.3 334.3C454.5 333 456.8 331.7 459 330.4C459.6 330 460.3 329.1 459.3 328.7C458.3 328.3 456.8 329 456 329.5C438.8 339.7 421.2 349.5 403.4 358.7C385.6 367.9 367.6 376.5 349.4 384.6C331.1 392.7 312.5 400.3 293.8 407.3C274.6 414.5 255.1 421.1 235 425.8C214.8 430.5 194.1 433.4 173.3 434.3C170.7 434.4 168.2 434.5 165.6 434.6C164.5 434.6 163.1 435 162.3 435.8C161.7 436.4 161.8 437.2 162.8 437.2Z" fill="white"/>
</g>
<mask id="mask19_201_681" style="mask-type:luminance" maskUnits="userSpaceOnUse" x="51" y="51" width="398" height="398">
<path d="M250 448.5C359.629 448.5 448.5 359.629 448.5 250C448.5 140.371 359.629 51.5 250 51.5C140.371 51.5 51.5 140.371 51.5 250C51.5 359.629 140.371 448.5 250 448.5Z" fill="white"/>
</mask>
<g mask="url(#mask19_201_681)">
<path d="M175.1 64.1C182.8 64.6 190.4 65.1 198.1 65.6C201.1 65.8 204.1 65.9 207 66.6C209 67.1 211.3 68.1 212.4 70C214 72.7 212.7 75.7 211.2 78.2C209.3 81.2 206.9 84 204.7 86.8C200.3 92.5 195.9 98.2 191.8 104C183.7 115.4 176.6 127.6 172.6 141.1C171.6 144.4 170.9 147.7 170.4 151.1C169.9 154.4 169.5 157.9 169.8 161.2C170.1 164.2 171.3 167.1 173.6 169.1C175.8 171 178.6 171.9 181.4 172.4C184.4 172.9 187.5 172.9 190.5 172.9C194.2 172.8 197.9 172.5 201.5 172.1C209 171.2 216.3 169.7 223.7 168.1C237.8 165 251.7 161.3 265.4 157C292.8 148.4 319.6 137.7 345.8 126C372.1 114.2 397.8 101.3 423.5 88.3C426.6 86.7 429.8 85.1 432.9 83.5C433.8 83 434.9 81.9 434.3 80.8C433.8 79.7 432.1 79.9 431.3 80.3C405.8 93.3 380.3 106.3 354.3 118.3C328.5 130.2 302.1 141.2 275.1 150.2C261.6 154.7 247.9 158.7 234.1 162C220 165.4 205.5 168.8 190.9 169.1C186 169.2 178.9 169.2 176 164.4C174.3 161.7 174.4 158.3 174.6 155.2C174.9 151.9 175.4 148.6 176.1 145.3C179.2 131.9 185.9 119.6 193.6 108.4C197.7 102.4 202.1 96.7 206.5 90.9C208.7 88.1 210.8 85.3 213 82.4C215 79.8 217.1 76.9 217.6 73.6C218.1 70.8 217.3 68 215.3 66C213.4 64.1 210.7 63.2 208.2 62.6C205.3 62 202.4 61.9 199.5 61.7C195.8 61.5 192 61.2 188.3 61C184.6 60.8 180.8 60.5 177.1 60.3C175.9 60.2 174.5 60.7 173.9 61.9C173.5 62.8 173.9 64 175.1 64.1Z" fill="white"/>
</g>
<mask id="mask20_201_681" style="mask-type:luminance" maskUnits="userSpaceOnUse" x="51" y="51" width="398" height="398">
<path d="M250 448.5C359.629 448.5 448.5 359.629 448.5 250C448.5 140.371 359.629 51.5 250 51.5C140.371 51.5 51.5 140.371 51.5 250C51.5 359.629 140.371 448.5 250 448.5Z" fill="white"/>
</mask>
<g mask="url(#mask20_201_681)">
<path d="M250.7 47.4C258.4 50.6 260.8 60.6 259.2 68.1C257.1 78 248.8 85.4 241.5 91.7C236.8 95.8 232 99.9 227.3 104C222.9 107.8 218.4 111.5 214.2 115.6C212.3 117.5 210.5 119.5 208.9 121.6C207.5 123.5 206.1 125.7 205.5 128C205 129.9 205 132.2 206.4 133.8C208.3 135.9 211.4 135.8 214 135.8C220.3 135.8 226.6 134.8 232.8 133.7C238.8 132.6 244.7 131.3 250.6 129.9C262.3 127.2 273.8 124.2 285.3 120.9C308.3 114.2 331 106.3 353.3 97.6C375.7 88.9 397.9 79.5 419.9 69.7C422.6 68.5 425.3 67.3 428.1 66.1C428.9 65.7 429.5 64.8 428.7 64.1C427.8 63.4 426.2 63.7 425.2 64.1C403.6 73.7 381.9 83.1 359.9 91.9C337.9 100.6 315.7 108.7 293 115.6C281.6 119.1 270.2 122.3 258.6 125.1C247.2 127.9 235.6 130.7 223.9 132.3C220.9 132.7 217.9 132.9 214.9 132.9C213.9 132.9 212.5 133.1 211.5 132.6C210.6 132.1 210.2 131.1 210.1 130.1C209.9 127.9 211 125.7 212.1 123.9C213.5 121.6 215.2 119.6 217.1 117.6C220.9 113.6 225.3 110 229.5 106.4C234.2 102.4 238.8 98.3 243.5 94.3C251.2 87.6 259.7 80.5 263.3 70.6C265.9 63.2 264.8 53.7 259.1 48.1C257.6 46.6 255.9 45.5 254 44.7C253 44.3 251.4 44.5 250.5 45.2C249.5 46.2 249.7 47 250.7 47.4Z" fill="white"/>
</g>
<mask id="mask21_201_681" style="mask-type:luminance" maskUnits="userSpaceOnUse" x="51" y="51" width="398" height="398">
<path d="M250 448.5C359.629 448.5 448.5 359.629 448.5 250C448.5 140.371 359.629 51.5 250 51.5C140.371 51.5 51.5 140.371 51.5 250C51.5 359.629 140.371 448.5 250 448.5Z" fill="white"/>
</mask>
<g mask="url(#mask21_201_681)">
<path d="M122.7 96.5002C125.5 96.0002 128.3 95.7002 131.1 95.7002C133.3 95.7002 135.7 95.8002 137.6 96.8002C143.9 99.9002 143.4 107.8 141.9 113.6C138.6 127.3 132.1 140 127 153C124.5 159.5 122.2 166.1 120.9 172.9C119.8 178.7 118.5 186 121.3 191.6C124.5 197.8 132.6 199 138.8 199.4C146.8 200 154.9 199.2 162.9 198.5C195.4 195.5 227.8 191.6 260 186.7C275.5 184.3 291 181.7 306.1 177.5C320.8 173.4 335 167.8 348.7 161.1C362.4 154.4 375.6 146.7 388.7 138.9C402.6 130.6 416.4 122.2 430.1 113.8C433.5 111.7 436.9 109.7 440.3 107.6C441 107.2 439.1 106.4 438.9 106.3C438.2 106 436.6 105.4 435.8 105.9C421.9 114.4 407.9 122.9 393.9 131.4C380.9 139.3 367.8 147.1 354.3 154.3C341 161.4 327.2 167.7 312.8 172.5C297.7 177.5 282.1 180.7 266.5 183.3C234.6 188.6 202.4 192.6 170.1 195.7C161.9 196.5 153.7 197.5 145.5 197.8C141.4 198 137.3 197.9 133.3 197.4C130 197 127.5 195.8 125.9 192.8C123 187.1 124.5 179.4 125.7 173.5C127.1 166.8 129.3 160.2 131.8 153.9C136.9 140.9 143.3 128.3 146.6 114.7C148 108.6 148 102 142.5 98.0002C138 94.8002 131.9 93.9002 126.4 94.1002C123.7 94.2002 121.1 94.5002 118.4 95.0002C117.3 95.2002 118.7 96.0002 119 96.2002C120.3 96.3002 121.7 96.7002 122.7 96.5002Z" fill="white"/>
</g>
</svg>
