<svg width="500" height="500" viewBox="0 0 500 500" fill="none" xmlns="http://www.w3.org/2000/svg">
<g clip-path="url(#clip0_201_675)">
<mask id="mask0_201_675" style="mask-type:luminance" maskUnits="userSpaceOnUse" x="51" y="51" width="398" height="398">
<path d="M250 448.5C359.629 448.5 448.5 359.629 448.5 250C448.5 140.371 359.629 51.5 250 51.5C140.371 51.5 51.5 140.371 51.5 250C51.5 359.629 140.371 448.5 250 448.5Z" fill="white"/>
</mask>
<g mask="url(#mask0_201_675)">
<path d="M117.9 72.1998C122.1 71.3998 126.3 70.4998 130.6 69.6998C133.9 68.9998 137.3 68.0998 140.7 68.2998C141.9 68.3998 143.1 68.5998 144.2 69.0998C144.5 69.2998 144.9 69.5998 145.1 69.6998L145 69.5998C145 69.6998 145.1 69.6998 145.1 69.7998C145 69.5998 144.9 69.3998 144.8 69.1998C144.7 69.0998 144.8 69.1998 144.8 69.3998C144.6 71.3998 142.6 72.5998 141 73.4998C139.1 74.5998 136.8 75.5998 135.6 77.4998C133.8 80.1998 134.9 83.6998 136.8 85.9998C140.9 90.9998 148 90.1998 152.5 86.2998C154.8 84.2998 156.4 81.6998 157.2 78.7998C157.6 77.3998 157.7 75.8998 157.6 74.3998C157.5 73.5998 157.4 72.8998 157.3 72.1998C157.1 71.3998 156.7 70.3998 156.9 69.4998C157.3 67.8998 159.4 67.4998 160.8 67.1998C162.9 66.6998 165 66.2998 167.1 65.9998C169.1 65.6998 171.1 65.4998 173.2 65.3998C174.7 65.2998 176.5 65.2998 177.8 66.0998C178.2 66.2998 178.4 66.7998 178.3 66.2998C178.4 66.8998 178.2 67.6998 178 68.2998C177.4 69.8998 176.4 71.2998 175.3 72.4998C173.3 74.8998 171.2 76.8998 170.3 79.9998C169.4 83.0998 170.3 86.6998 172.7 88.7998C175.3 90.9998 179.4 90.4998 182.5 89.8998C188.9 88.6998 195.6 84.9998 199.2 79.3998C200.9 76.6998 200 73.3998 197.9 71.1998C196.4 69.4998 194.3 68.5998 192.6 67.1998L191.8 66.4998C191.9 66.3998 192.1 67.0998 192.1 67.1998C192.1 67.1998 192.1 67.1998 192.1 66.9998C192 67.2998 191.8 67.6998 191.7 67.9998C198.5 65.4998 206.6 64.9998 213.4 67.5998C214 67.7998 214.7 68.0998 215.3 68.5998C215.5 68.7998 215.7 69.0998 215.6 68.7998C215.4 68.2998 215.6 68.8998 215.5 69.0998C215.2 70.6998 214.4 71.9998 213.6 73.2998C212 75.8998 210.8 78.3998 211.2 81.5998C211.9 87.0998 216.5 91.9998 221.8 93.2998C227 94.5998 231.9 91.3998 234 86.6998C236.2 81.7998 235.8 75.8998 233.2 71.1998C232.7 70.2998 231.3 69.0998 232.1 68.0998C232.9 67.0998 234.6 66.8998 235.8 66.7998C237.7 66.5998 239.7 66.4998 241.6 66.2998C243.5 66.0998 245.5 65.7998 247.4 65.8998C248.2 65.8998 248.8 66.0998 249.5 66.3998C249.8 66.4998 249.8 66.7998 249.6 66.3998C250 67.2998 249.5 68.8998 249.1 69.7998C248 72.7998 245.5 75.0998 244.6 78.1998C242.9 83.6998 246.9 89.1998 252.2 90.4998C258 91.8998 264.1 89.0998 267.1 83.8998C268.9 80.7998 269.2 77.0998 267.9 73.7998C266.6 70.4998 264.2 67.5998 260.6 66.7998C261.2 68.2998 261.9 69.7998 262.5 71.2998C266 68.3998 271.4 67.7998 275.3 70.1998C278.8 72.3998 279.6 76.8998 278.1 80.4998C277.6 81.5998 276.9 82.5998 276.6 83.7998C276.2 85.1998 276.6 86.6998 277.3 87.8998C278.5 90.0998 280.5 91.0998 282.9 91.4998C287.8 92.1998 293.6 92.4998 298.1 89.9998C301.7 87.9998 303.8 84.0998 303.6 80.0998C303.5 77.7998 302.7 75.4998 301.3 73.5998C299.9 71.7998 297.9 70.9998 296 69.7998C295.7 69.5998 295.2 69.0998 295 69.0998C294.7 69.0998 295 68.8998 294.9 69.0998C294.9 69.1998 295.4 70.2998 295.4 70.2998C295.6 70.3998 297.1 69.5998 297.4 69.4998C298.1 69.1998 298.8 68.8998 299.6 68.6998C302.1 67.8998 305 67.2998 307.6 68.1998C309.2 68.6998 311 69.5998 311.1 71.3998C311.2 73.8998 310.1 76.3998 310 78.8998C309.8 84.3998 314 89.0998 319.5 89.4998C325.4 89.8998 329.7 85.1998 333.3 81.1998C334.2 80.1998 332.8 77.7998 331.9 77.1998C327.5 74.3998 323.5 70.9998 320 67.1998C320.3 68.3998 320.7 69.5998 321 70.7998C324.4 67.5998 330 66.8998 334 69.3998C337.6 71.5998 338.4 76.2998 336.7 79.9998C336.1 81.3998 337.2 83.5998 338.5 84.1998C345.4 87.5998 354.1 85.6998 359 79.8998C360 78.6998 357.5 74.4998 356.3 75.8998C351.9 81.1998 343.9 82.8998 337.7 79.8998C338.3 81.2998 338.9 82.6998 339.5 84.0998C342.2 78.0998 340.1 70.5998 335.1 66.3998C330.3 62.2998 322.9 62.6998 318.4 66.8998C317.6 67.6998 318.9 69.8998 319.4 70.4998C323.1 74.5998 327.4 78.1998 332 81.2998C331.5 79.9998 331.1 78.5998 330.6 77.2998C327.4 80.8998 323.5 85.2998 318.2 85.0998C316.5 84.9998 314.4 84.5998 313.2 83.1998C313 82.9998 312.9 82.1998 313 81.5998C313.1 80.2998 313.4 78.9998 313.7 77.6998C314.2 74.9998 314.3 72.3998 313.1 69.7998C312 67.4998 310.2 65.6998 308 64.5998C305.7 63.4998 303.2 63.2998 300.8 63.6998C299.5 63.8998 298.2 64.2998 296.9 64.6998C296.2 64.8998 295.6 65.1998 295 65.3998C294.4 65.5998 293.3 65.8998 292.8 66.3998C291.3 68.1998 293.1 71.2998 294.4 72.5998C295.9 74.0998 297.9 74.7998 299.6 75.9998C299.8 76.0998 300.2 76.4998 300.2 76.4998C300.4 76.6998 300.4 76.6998 300.4 76.8998C300.6 77.3998 300.6 78.2998 300.5 78.9998C300.3 80.8998 299.4 82.7998 298 84.1998C294.6 87.7998 288.6 87.7998 284 87.3998C282.9 87.2998 281.7 87.1998 280.7 86.9998C280.2 86.8998 279.8 86.6998 279.3 86.4998C279.2 86.4998 279 86.2998 278.9 86.2998C279.3 87.7998 279.5 88.0998 279.6 87.3998C279.6 87.2998 279.7 87.0998 279.7 86.9998C280.1 85.8998 280.8 84.8998 281.2 83.7998C281.6 82.6998 281.8 81.4998 281.9 80.2998C282.3 74.8998 279.4 68.9998 274.8 66.1998C270.4 63.4998 264.4 63.6998 260.3 66.9998C258.9 68.0998 260.8 71.1998 262.2 71.4998C264.4 71.9998 265.8 73.6998 265.7 75.8998C265.7 78.8998 263.7 81.6998 261.5 83.4998C258.1 86.2998 252.8 87.3998 248.8 85.1998C248.4 84.9998 248 84.6998 247.7 84.3998C247.6 84.2998 247.4 83.7998 247.4 84.0998C247.4 83.9998 247.3 83.6998 247.4 83.9998C247.3 83.1998 247.4 84.3998 247.3 83.5998C247.2 82.8998 247.3 82.1998 247.6 81.4998C248.5 78.4998 250.9 76.2998 252 73.3998C253 70.7998 253 67.8998 251.8 65.3998C250.3 62.2998 247.6 61.0998 244.2 61.2998C240.5 61.5998 236.8 61.6998 233.2 62.1998C230.4 62.5998 228.2 64.0998 228.7 67.1998C229.2 70.0998 231.4 71.9998 232 74.6998C232.5 76.9998 232.3 79.3998 231.6 81.5998C230.2 86.0998 226 89.6998 221.1 88.8998C218.9 88.4998 216.6 87.2998 215.2 85.4998C214.2 84.1998 213.8 82.5998 214.5 80.6998C215.6 77.4998 218.4 74.9998 218.5 71.4998C218.6 67.6998 215.9 64.4998 212.5 63.2998C205.2 60.4998 196.7 60.9998 189.4 63.5998C189 63.6998 189 64.2998 189 64.5998C189 67.2998 190.6 69.7998 192.7 71.3998C193.6 72.0998 194.5 72.5998 195.4 73.1998C195.8 73.4998 196.2 73.7998 196.6 74.0998C196.7 74.0998 197.1 74.4998 196.9 74.2998C197 74.3998 197.1 74.4998 197.1 74.4998C197.1 74.2998 197.3 74.6998 197.1 74.4998C197.1 74.7998 196.9 73.9998 196.9 73.8998C196.7 73.7998 197.1 73.6998 196.9 73.8998C196.9 73.8998 196.9 74.0998 196.9 74.1998C196.6 74.9998 196.2 75.6998 195.7 76.2998C194.6 77.5998 193.4 78.8998 192.1 79.9998C189.5 82.0998 186.4 83.7998 183.2 84.7998C181.6 85.2998 179.9 85.5998 178.2 85.7998C176.6 85.8998 174.7 86.0998 173.2 85.3998C172.8 85.1998 172.8 84.9998 172.9 85.3998C172.8 85.0998 173 84.3998 173 83.9998C173.3 82.5998 174 81.2998 174.9 80.0998C176.8 77.3998 179.3 75.3998 180.6 72.2998C182 68.8998 181 65.0998 178.3 62.6998C175.8 60.4998 172.3 60.6998 169.2 60.9998C165.2 61.3998 161 61.9998 157.1 63.0998C155.6 63.4998 154.3 64.2998 153.8 65.8998C153.2 67.6998 153.9 69.4998 154.2 71.2998C154.7 73.9998 153.9 76.8998 152.4 79.1998C149.5 83.6998 142.7 87.2998 137.8 83.3998C137.6 83.2998 137.5 82.8998 137.6 83.2998C137.5 82.8998 137.7 82.3998 137.9 81.9998C138.4 81.0998 139.2 80.3998 140 79.7998C141.8 78.5998 143.9 77.7998 145.6 76.3998C150.1 72.5998 146.9 65.8998 141.9 64.3998C139.4 63.6998 136.8 63.5998 134.3 64.0998C130.1 64.8998 126 65.6998 121.8 66.5998C119.7 66.9998 117.6 67.3998 115.5 67.8998C114.3 67.9998 116.1 72.4998 117.9 72.1998Z" fill="white"/>
</g>
<mask id="mask1_201_675" style="mask-type:luminance" maskUnits="userSpaceOnUse" x="51" y="51" width="398" height="398">
<path d="M250 448.5C359.629 448.5 448.5 359.629 448.5 250C448.5 140.371 359.629 51.5 250 51.5C140.371 51.5 51.5 140.371 51.5 250C51.5 359.629 140.371 448.5 250 448.5Z" fill="white"/>
</mask>
<g mask="url(#mask1_201_675)">
<path d="M102.2 103.7C105.2 103.2 108.1 102.7 111.1 102.2C109.9 101.2 108.6 100.1 107.4 99.1002C106.6 106.1 104.3 112.9 100.7 118.9C100.3 119.6 102.4 121.2 102.7 121.4C107.2 124.6 112.5 126.4 118 126.2C122.5 126 129.8 124.2 131.1 119.1C132.2 114.9 128.2 111.5 125.6 108.9C124.9 108.2 124.2 107.6 123.6 106.8C123.3 106.4 123.1 106.1 122.8 105.7C122.3 104.8 122.3 104.6 123.2 104.1C125.9 102.6 129.3 101.8 132.3 101.1C139.4 99.4002 146.7 98.9002 153.9 99.7002C152.7 98.6002 151.5 97.5002 150.3 96.4002C145 104.2 139.8 112 134.5 119.8C133.9 120.7 137.4 123 138.1 123.1C152.3 125.1 166.8 123.5 180.2 118.7C180.7 118.5 179.9 117.7 179.8 117.4C174.5 111.3 167.8 106.4 160.3 103.4C161.4 104.5 162.5 105.6 163.7 106.6C165.6 104.7 168 103.5 170.6 103.1C172.9 102.8 176 102.9 177.9 104.4C179.4 105.7 180.2 108.7 180.4 110.7C180.6 113.4 180 116 178.5 118.2C178 119 181.5 121.8 182.3 121.4C186.6 119.7 190.9 117.9 195.2 116.2C198.3 114.9 201.7 113.4 203.7 110.6C205.3 108.3 205.4 105.3 204.1 102.8C202.7 100.2 199.7 97.5002 196.6 97.4002C197.8 98.5002 199 99.6002 200.2 100.7C202.3 99.0002 204.8 98.1002 207.5 98.0002C209.6 98.0002 212.6 98.3002 214 99.9002C217.6 104.1 216.5 111.2 213 115C212.3 115.7 215.8 118.1 216.4 118.2C222.2 120.3 231.7 123.3 236 116.9C237.3 114.9 238 112.2 237.4 109.9C236.7 107.1 234 104.7 231.5 103.6C232.5 104.6 233.5 105.7 234.5 106.7C237.3 105.5 240.1 104.4 243.1 104.1C245.1 103.9 248.1 103.9 249 106C250.1 108.3 249 110.5 248 112.6C247.2 114.3 246.3 116.2 247.3 117.9C248.4 119.9 250.8 121.8 253 122.2C255.3 122.6 258 122.1 260.3 121.8C264.6 121.1 269.4 119.5 271.1 115.1C273 110.4 270.6 106.3 266.5 103.7C267.3 104.6 268.2 105.6 269 106.5C270.4 104.9 272.2 103.8 274.3 103.4C275.2 103.2 276.2 103.2 277.1 103.3C277.7 103.4 278.2 103.5 278.8 103.7C279 103.8 279.9 104.3 279.7 104C279.3 103.7 280 104.5 280.1 104.6C280.4 105.1 280.6 105.6 280.8 106.1C281.1 107 281.3 107.9 281.3 108.8C281.4 110.9 280.8 112.8 279.5 114.5C278.9 115.3 282 117.3 282.5 117.6C286.6 119.7 291.1 120.8 295.7 120.6C298 120.5 300.3 120.2 302.5 119.5C304.2 119 306.4 118.3 306.6 116.3C307.1 112.7 301.8 111.6 301.5 108.4C301.2 104.6 305.2 101.6 308.8 102.6C309.9 102.9 310 103 310.6 104C311.3 105.1 311.6 106.4 311.8 107.6C312.2 110.6 311.6 113.6 310.8 116.5C310.5 117.6 313.5 119.7 314.4 119.8C319.7 120.2 327.1 120.3 328.9 114C329.6 111.6 328.8 109.6 327.2 107.8C326.2 106.7 322.8 104.4 324.1 102.6C325.3 101 329.2 101.1 331.1 101.1C332.3 101.1 333.4 101.2 334.6 101.4C335.2 101.5 335.7 101.7 336.3 101.9C336.5 102 336.8 102.2 337.1 102.2C337.6 102.3 336.8 101.9 336.8 101.9C337.3 101.8 337.7 104.8 337.7 105.3C337.9 106.9 337.9 108.4 338.6 109.9C339.8 112.3 342.3 114.4 344.8 115.5C347 116.5 349.5 116.5 351.5 115C353.8 113.3 354.4 110.6 354 107.9C353.7 106.4 353.6 105.1 354.7 103.9C355.8 102.8 357.5 102.3 359 102C362.3 101.2 365.7 100.9 369.1 101.2C369.8 101.3 370.6 101.4 371.3 101.5C371.7 101.6 372.1 101.7 372.5 101.8C373.9 102.2 372.1 101.8 372.4 101.2C372.3 101.3 372.7 102.2 372.7 102.5C372.7 103 372.6 103.5 372.4 103.9C371.6 105.7 369.8 107.1 368.5 108.5C367.2 110 366.1 111.7 366.5 113.8C367 116.3 369.4 118.4 371.4 119.7C375.7 122.6 383.3 123.4 387 119C390.6 114.6 385.8 108.3 381.1 107.5C382.3 108.6 383.5 109.7 384.7 110.8C386.7 107.4 390.1 105.2 394 104.4C397.1 103.8 401.6 103.9 404 106.3C404.4 106.7 406 108.3 406.6 108C407.2 107.7 406 106.5 405.7 106.3C402.1 102.7 397.4 100.5 392.3 100.8C387.7 101.1 383.2 103.5 380.8 107.5C380.2 108.5 383.7 110.7 384.4 110.8C385.8 111 383.1 109.9 383.5 109.7L383.8 110.2C384 110.7 384.1 111.2 384.2 111.7C384.3 112.7 384.2 113.8 383.7 114.7C382.5 116.9 379.9 118 377.6 118.4C375.2 118.8 372.7 118.6 370.5 117.5C370.2 117.3 370.6 117.6 370.6 117.6C370.9 118 370.5 117.4 370.5 117.3C370.3 116.8 370.2 116.4 370.2 115.9C370.2 114.8 370.6 113.9 371.2 113C372.9 110.4 377.5 107.8 376.3 104.2C375.6 101.8 372.9 99.8002 370.7 98.8002C368.2 97.7002 365.2 97.5002 362.4 97.5002C359.3 97.5002 356.2 98.0002 353.3 99.1002C350.6 100.1 349.5 101.7 349.9 104.6C350.4 107.3 349.9 109.8 347.6 111.6C346.6 112.3 345.5 112.7 344.2 112.7C343.6 112.7 343.1 112.5 342.5 112.4C341.9 112.3 342.2 112.2 342.4 112.5C342.2 112.3 342.1 111.9 342 111.7C341 109.2 341.7 106.4 340.2 104C338.9 102 336.9 100.2 334.8 99.2002C331.1 97.3002 326.1 97.3002 322.1 98.3002C319.5 99.0002 319.5 101.1 320.9 102.9C322.3 104.8 325.1 106.4 325.3 109C325.4 111.7 323.5 114.3 321.1 115.5C318 117.1 314.3 116.7 310.9 116.4C312.1 117.5 313.3 118.6 314.5 119.7C316 114.8 316.6 109.4 313.4 105C311 101.7 306.1 97.7002 301.8 99.2002C298.2 100.5 296.4 104.9 298.7 108.1C299.3 109 300.1 109.7 300.8 110.4C301.4 110.9 302.3 111.5 302.5 112.1C303.5 114.7 299.6 115.8 297.9 116.2C292.1 117.8 285.7 117.2 280.3 114.5C281.3 115.5 282.3 116.6 283.3 117.6C290.9 107.4 273.5 93.2002 265.2 103.1C264.7 103.7 267.4 105.7 267.7 105.9C267.4 105.7 267 104.9 267.1 105.5C267.1 105.6 267.3 105.8 267.3 106C267.5 106.4 267.6 106.8 267.6 107.2C267.7 108 267.7 108.9 267.6 109.7C267.3 111.5 266.5 113.2 265.3 114.5C262.1 117.9 256.9 118.4 252.5 118.7C252 118.7 251.4 118.8 250.9 118.8C250.6 118.8 249.8 118.6 249.6 118.7C250 119 250.3 119.4 250.7 119.7C250.7 119.6 250.7 119.5 250.6 119.4C250.6 119.2 250.6 119 250.6 118.9C250.6 118.3 250.8 117.8 251 117.2C251.7 115.4 252.9 113.7 253.2 111.7C253.9 107.4 249.5 103.6 246.1 101.8C241 99.1002 235.5 101.2 230.6 103.2C230 103.5 233.2 106.1 233.6 106.3C234.5 106.7 233 105.8 233 105.6C233 105.7 233.2 105.9 233.2 105.9C233.3 106.3 233.5 106.7 233.6 107.2C233.8 108.1 233.7 109.1 233.6 110C233.2 112 232.2 113.9 230.6 115.2C225.9 119.2 218.5 116.6 213.4 114.8C214.5 115.9 215.6 117 216.8 118C221.9 112.5 220.5 104.2 215.4 99.3002C210.3 94.4002 202.2 92.4002 196.4 97.2002C195.7 97.8002 199.4 100.5 200 100.5C200.2 100.5 200.7 100.7 200.9 100.6C201.3 100.4 200.1 100.1 200.2 99.9002C200.2 100 200.7 101 200.8 101.2C201.1 102.2 201.2 103.3 201 104.4C200.6 107 198.4 109 196.3 110.3C193.9 111.8 191.1 112.8 188.4 113.9C185 115.3 181.7 116.6 178.3 118C179.6 119.1 180.8 120.2 182.1 121.2C190.6 108.3 170.5 91.8002 159.6 103C158.9 103.7 162.5 106 163 106.2C168.4 108.4 173.2 111.7 177 116.1C176.9 115.7 176.7 115.3 176.6 114.8C163.1 119.7 148.6 121.2 134.5 119.2C135.7 120.3 136.9 121.4 138.1 122.5C143.4 114.7 148.6 106.9 153.9 99.1002C154.5 98.2002 151 95.9002 150.3 95.8002C139.3 94.6002 128.3 96.3002 118.2 100.7C118.2 100.8 118.2 100.8 118.2 100.9C119.3 104.3 122 106.7 124.4 109.1C126.7 111.4 128.3 114.2 126.2 117.2C123.8 120.6 118.8 121.9 114.8 122.2C110.5 122.5 105.8 121.6 102.2 119.1C102.9 119.9 103.6 120.8 104.2 121.6C107.9 115.5 110.3 108.6 111 101.4C111.1 100.5 108.2 98.1002 107.3 98.3002C104.3 98.8002 101.4 99.3002 98.4 99.8002C97.7 99.9002 99.1 101.3 99.3 101.5C100.1 102.5 101.3 103.8 102.2 103.7Z" fill="white"/>
</g>
<mask id="mask2_201_675" style="mask-type:luminance" maskUnits="userSpaceOnUse" x="51" y="51" width="398" height="398">
<path d="M250 448.5C359.629 448.5 448.5 359.629 448.5 250C448.5 140.371 359.629 51.5 250 51.5C140.371 51.5 51.5 140.371 51.5 250C51.5 359.629 140.371 448.5 250 448.5Z" fill="white"/>
</mask>
<g mask="url(#mask2_201_675)">
<path d="M71.1 139.3C77 137.7 83 137 89 137.1C89.7 137.1 90.3 137.1 91 137.2C91.7 137.3 93.2 137.8 91.8 137C90.5 136.2 91.4 136.9 91.3 137.7C91.3 138.2 91.1 138.6 90.8 138.9C89.8 140.4 87.8 141.2 86.3 142.3C83 144.7 82.9 149 84.8 152.3C86.9 156.1 91.5 158.5 95.5 159.6C100.3 160.9 105.9 160.5 110.7 159.8C115.1 159.2 119.8 157.1 120.7 152.3C121.6 147.9 117.9 145.4 114.4 143.6C114 143.4 113.5 143.2 113.1 142.9C112.8 142.8 112.2 142.2 112.6 142.7C112 142 111.7 141 111.9 140.1C112.3 138.1 114.6 136.9 116.4 136.3C121.6 134.7 127.9 135.3 132.9 137.6C134 138.1 135.2 138.8 136 139.6C137.1 140.8 135.8 142.9 135.3 144.2C134.2 147.5 133 150.8 131.9 154.1C131.8 154.5 133.1 155.3 133.3 155.4C137.3 158.1 143.3 159.6 146.6 154.9C147.9 153 148.1 150.4 147.4 148.2C146.5 145.7 144.5 144 142.3 142.7C142.9 143.2 143.6 143.8 144.2 144.3C152.3 140.9 161.4 140 170 141.8C171 142 172 142.4 172.9 142.5C173.7 142.8 173.3 142.5 171.8 141.7C171.9 141.9 172 142 172.1 142.2C172.2 142.8 172.3 143.1 172.1 143.7C171.6 145.6 169.5 147.2 168.2 148.7C164.9 152.3 161.7 155.9 158.4 159.6C158 160 161.2 161.7 161.4 161.8C166.4 164.2 171.9 165.6 177.5 165.5C180.2 165.5 183.2 165.3 185.8 164.4C188.5 163.4 187.8 161.3 187 159.2C185.9 156.2 184.7 153.2 183.6 150.2C182.5 147.4 181.3 144.5 184.2 142.4C187.6 140 194.5 138.9 197.5 142.2C201.3 146.2 201.9 152.6 199.5 157.4C199.2 158 203 160.1 203.7 160C213.3 158.3 222.4 154.5 230.4 148.9C231.8 147.9 233.9 146.7 233.8 144.8C233.7 143.6 232.8 142.8 231.9 142.1C230.6 141 229.1 140.3 227.7 139.4C227.4 139.2 226.8 138.8 226.7 138.3C226.6 137.5 227.8 136.5 228.3 136C229.7 134.7 231.5 133.8 233.4 133.4C234.3 133.2 235.2 133.1 236.1 133.1C236.6 133.1 237.1 133.2 237.6 133.2C237.9 133.2 239.4 133.9 238.7 133.4C241.8 135.5 242.7 140.6 241.9 144C241.5 145.7 239.9 147.4 240.2 149.2C240.5 151.1 243.4 152.4 245 153.1C248.6 154.6 253.1 154.8 256.8 153.5C260.8 152.2 263.8 149.1 264.3 144.8C264.8 140.4 262.4 137.4 258.9 135.2C259.5 135.7 260.2 136.3 260.8 136.8C263.1 134.8 266 134.3 269 134.5C270.6 134.6 272.2 134.9 273.8 135.3C274.4 135.5 275.1 135.6 275.7 135.8C275.9 135.9 276.5 136.2 276.7 136.1C276 136.3 275.4 134.6 276.2 136.2C277.7 139.2 274.1 142.9 272.5 145.1C270.3 148.1 267.9 150.9 265.4 153.6C265 154 268.5 155.9 268.9 156C276.5 158.6 284.8 158.3 292.1 154.9C295.5 153.3 300.1 150.8 299.8 146.5C299.5 142.7 296.3 139.6 293.6 137.2C293.8 137.4 293.9 137.6 294.1 137.8C295 136.9 296 136.3 297.3 136.1C297.9 136 298.4 135.9 299 136C299.6 136 300.5 136.4 301 136.3C301.4 136.3 300.5 135.6 300.8 136.1C300.9 136.3 301.3 136.6 301.4 136.8C301.7 137.3 302 137.8 302.2 138.3C302.8 140.1 302.4 142.1 302.4 144C302.4 147.1 303.9 149 306.3 150.6C308.5 152.1 311.2 153.4 313.9 153C319.9 152.2 321.4 144.9 318.9 140.3C318 138.7 317.4 137.3 318.9 135.8C320 134.7 321.4 133.9 322.8 133.3C325.2 132.3 329.5 131.4 332 132.9C331.5 132.6 332.2 133.1 332.3 133.3C332.6 133.7 332.9 134 333.1 134.4C333.5 135 333.8 135.6 334 136.2C334.5 137.6 334.7 139.2 334.6 140.7C334.3 143.5 332.9 146.1 330.4 147.6C330.1 147.8 333.9 150.1 334.3 150.2C340.7 152.1 350.2 152.9 354.3 146.3C355.7 143.9 356.3 141 355.6 138.3C354.8 135.2 352.3 133.3 349.5 131.8C350.3 132.5 351.2 133.1 352 133.8C352.8 132 354.3 131 356.2 130.6C357.1 130.5 358 130.5 358.8 130.6C359 130.6 359.2 130.7 359.5 130.7C360.2 130.8 359.5 131 359.6 130.6C359.5 130.5 359.4 130.5 359.3 130.4C359.5 130.6 359.6 130.8 359.8 131C360 131.3 360.2 131.6 360.4 131.9C361.6 134.1 361.8 136.7 361.5 139.2C361.3 140.5 361 141.7 360.6 142.9C360.2 144.1 359.5 145.2 359.2 146.5C358.8 148.9 361.1 150.2 362.9 151.2C365 152.3 367 152.3 369.3 151.7C373.5 150.7 377.9 148 378.8 143.5C379.8 138.3 376.3 134.9 372 132.7C373 133.4 374 134.2 375 134.9C377.6 133.7 380.2 132.5 383 132C384.3 131.8 385.7 131.7 387 132.1C387.3 132.2 387.5 132.2 387.8 132.3C387.4 132.1 387.1 131.6 387.7 132.4C388.1 132.9 388.5 133.4 388.7 134C389.8 136.5 388.5 138.5 388.1 140.9C387.8 143.2 389.2 144.7 391 145.9C394.7 148.5 399.5 149.9 404 150.3C406.2 150.5 408.5 150.4 410.6 149.7C412.4 149.1 415.1 148 415.9 146.1C416.9 143.7 413.2 141.7 411.8 140.5C409.1 138.3 406.4 136.1 403.6 133.9C403.8 134.1 403.9 134.3 404.1 134.5C406.5 132.1 410 131.1 413.3 131.6C414.6 131.8 416.1 132.2 416.7 132.8C418 134 418.8 135.6 419.3 137.3C419.5 138.1 421.2 138.8 421.8 139.1C422 139.2 423.7 140 423.6 139.6C422.3 134.7 417.3 131.4 412.7 129.8C408.3 128.2 403.2 128.6 399.8 132C399.7 132.1 400.3 132.6 400.3 132.6C402.6 134.4 404.9 136.3 407.2 138.1C408.3 139 409.3 139.8 410.4 140.7C411.6 141.7 412.4 142.8 411.3 144.2C408.4 147.7 402.9 148.1 398.8 147.4C397.7 147.2 396.5 147 395.4 146.7C394.9 146.6 394.4 146.4 393.9 146.2C393.6 146.1 393.3 146 393.1 145.9C392.8 145.8 391.8 145.6 392.8 145.9C393.7 146.2 393 146 392.8 145.4C392.7 145.1 392.6 144.6 392.6 144.3C392.6 143.8 392.7 143.2 392.8 142.7C393.1 141.5 393.6 140.4 393.7 139.2C394 134.9 389.5 132 386.1 130.4C380.8 128 375.7 130 370.8 132.3C370.6 132.4 373.6 134.4 373.8 134.5C373.6 134.4 372.6 133.5 372.8 134C372.9 134.2 373.2 134.4 373.3 134.6C373.5 134.9 373.7 135.3 373.9 135.7C374.4 136.7 374.6 137.9 374.6 139C374.6 140.9 374 142.8 372.8 144.3C371.4 146.1 369.5 147.4 367.4 148.2C366.4 148.6 365.3 148.9 364.2 149.1C363.6 149.2 363 149.3 362.4 149.3C362.2 149.3 361.8 149.2 361.6 149.3C360.9 149.2 361.1 149.4 362.3 149.8C363.2 150.6 363.5 150.6 363.3 149.9C363.5 149.4 363.4 148.7 363.5 148.1C363.7 147.6 363.9 147.1 364.1 146.6C364.6 145.5 364.9 144.4 365.2 143.3C365.7 141.2 365.8 138.9 365.4 136.8C364.5 132.6 361 130 357.2 128.4C353.8 127.1 349.3 127.2 347.6 130.9C347.4 131.4 349.9 132.8 350.1 132.9C349.6 132.7 349.7 132.5 349.9 132.9C350 133.2 350.3 133.5 350.5 133.8C350.7 134.2 350.9 134.7 351.1 135.2C351.5 136.3 351.6 137.5 351.5 138.7C351.3 141 350.3 143.4 348.7 145.1C344.2 149.8 336.4 149.1 330.7 147.4C332 148.3 333.3 149.1 334.6 150C339.7 147.1 340 139.7 336.6 135.5C332.4 130.3 324.7 128.1 318.5 130.7C317 131.3 315.5 132.2 314.4 133.4C313 134.9 313.7 136.4 314.6 138C316.2 141 316.3 144.7 314.3 147.5C313.4 148.8 312.1 149.7 310.6 150.1C309.9 150.3 309.2 150.3 308.6 150.3C308.1 150.3 307.7 150.1 307.3 150.1C307.2 150.1 307 150 306.9 150C308 150.8 308.2 150.8 307.6 150.2C306.7 148.4 306.6 146.7 306.7 144.7C306.8 143 306.8 141.2 306 139.7C304.5 136.9 301 134.9 298.1 133.9C295.2 132.9 292 133.1 289.8 135.3C289.7 135.4 290.3 135.9 290.3 135.9C292.8 138.2 296.1 141.7 295.5 145.4C294.9 148.9 290.8 151 287.9 152.3C281.2 155.4 273.2 156 266.2 153.6C267.4 154.4 268.5 155.2 269.7 156C272.9 152.5 276 148.8 278.7 144.8C279.8 143.2 281.1 141.5 280.8 139.4C280.6 137.6 279 136.4 277.6 135.5C274.5 133.4 270.8 132.4 267.1 131.8C263.4 131.2 259.4 131.3 256.5 133.9C256.2 134.1 258.4 135.5 258.4 135.5C257.5 135 258.5 135.7 258.7 136.1C259 136.5 259.2 136.9 259.4 137.4C259.9 138.5 260.1 139.8 260 141C260 143.1 259.3 145.2 258 146.8C254.8 151 248.7 151.8 243.8 150.7C243.9 150.7 242.8 150.5 242.8 150.5C243.1 150.7 243.4 150.9 243.7 151.1C244.6 152 244.8 151.9 244.4 150.8C244.4 150.2 244.7 149.5 245 149C245.5 147.9 246 146.9 246.3 145.7C246.7 143.6 246.5 141.3 245.7 139.3C244 135 239.6 131.9 235.3 130.6C230.5 129.2 225 130.9 222.2 135.2V135.3C223.6 138 226.6 138.8 228.8 140.6C229.3 141 229.6 142.2 229.1 143.2C228.3 144.9 226 146 224.5 147C217 152 208.5 155.4 199.6 157C201 157.9 202.4 158.7 203.8 159.6C206.1 155 205.7 149.4 202.7 145.2C199.9 141.2 194.7 138.1 189.9 137.4C186.1 136.8 177.2 137.9 178 143.5C178.2 145.1 179 146.7 179.6 148.2C180.3 149.9 180.9 151.6 181.6 153.3C182.2 154.9 182.9 156.4 183.4 158C183.9 159.9 183.2 161 181.4 161.5C174.5 163.6 166.2 162.5 159.7 159.5C160.7 160.2 161.7 161 162.7 161.7C166.7 157.2 170.8 152.8 174.8 148.3C176.1 146.8 177.2 145 175.6 143.2C174.2 141.6 171.9 140.5 169.9 139.8C160.3 136.5 149.1 137.5 139.8 141.3C139.6 141.4 141.7 142.9 141.7 142.9C140.8 142.4 141.8 143.2 142 143.5C142.2 143.8 142.4 144.1 142.6 144.4C143 145.2 143.3 146.1 143.4 147C143.6 148.5 143.3 150.1 142.5 151.4C141.7 152.8 140.3 153.9 138.7 154.4C138 154.6 137.3 154.8 136.5 154.8C136.1 154.8 135.6 154.8 135.2 154.7C134.7 154.6 133.6 154 134.8 154.8C135.3 155.2 135.7 155.7 136.2 156.1C137.8 151.4 139.4 146.8 141 142.1C141 142 140.9 141.8 140.8 141.7C134.1 135.3 124.6 131.1 115.2 132.4C112.2 132.8 106 134.6 107.9 139C108.6 140.6 110.4 141.7 111.9 142.6C113.5 143.6 115.4 144 116.2 145.6C118.2 149.6 114.7 154.1 111.1 155.5C108.5 156.6 105.7 156.8 103 157C100.5 157.2 98 157.3 95.5 157.1C94.3 157 93 156.8 91.9 156.5C90.6 156.1 90.1 155.6 89.4 154.5C88.3 152.8 87.7 150.8 88 148.8C88.2 146.8 89.3 145.4 90.9 144.2C92.3 143.2 94.2 142.4 95.2 141C97.8 137.1 89.7 134.2 87 134C80.3 133.5 73.5 134.3 67.1 136C66.6 136.1 68.2 137.2 68.3 137.3C68.9 138.3 70.4 139.5 71.1 139.3Z" fill="white"/>
</g>
<mask id="mask3_201_675" style="mask-type:luminance" maskUnits="userSpaceOnUse" x="51" y="51" width="398" height="398">
<path d="M250 448.5C359.629 448.5 448.5 359.629 448.5 250C448.5 140.371 359.629 51.5 250 51.5C140.371 51.5 51.5 140.371 51.5 250C51.5 359.629 140.371 448.5 250 448.5Z" fill="white"/>
</mask>
<g mask="url(#mask3_201_675)">
<path d="M65.7001 172.2C70.9001 171.2 76.1001 170.8 81.4001 170.9C82.1001 170.9 84.1001 170.6 84.7001 171.1C84.7001 171 84.7001 170.9 84.7001 170.8C84.7001 171.1 84.7001 171.4 84.6001 171.6C84.5001 171.9 84.4001 172.2 84.2001 172.5C83.2001 174.3 81.4001 175.3 79.6001 176.1C76.6001 177.4 73.0001 179 72.8001 182.7C72.6001 186.3 75.6001 189.2 78.6001 190.8C82.4001 192.7 87.0001 193.1 91.2001 193.3C96.0001 193.6 101.2 193.6 105.9 192.5C109.9 191.6 111.2 188.3 109.3 184.8C108.4 183.2 107.1 181.9 106.1 180.4C105.1 178.8 105.2 176.8 106 175.2C107.5 171.9 113.9 169.8 115.5 174.2C117 178.4 113.9 183.7 111.8 187.1C111 188.4 113.1 190.3 114.1 190.6C121.5 193.4 131.9 196.7 138.2 189.7C142.9 184.4 140.2 175.2 133.4 173.1C134.1 174.4 134.8 175.7 135.5 177C143.9 171.6 156.3 172.2 163.5 179.4C163.2 178.6 163 177.7 162.7 176.9C161.6 178.6 160.6 180.4 159.5 182.1C158.6 183.6 157.2 185.2 156.8 187C156.2 189.9 158.3 192.5 160.6 193.9C163.2 195.5 166.5 196.5 169.5 197.3C172.8 198.3 176.3 199 179.8 198.6C185.1 198.1 190.8 195.1 192 189.6C193.2 184.3 190.3 178.8 185.3 176.6C185.7 178 186.2 179.3 186.6 180.7C193 181 199.5 181.2 205.9 181.5C206.9 181.5 208.4 181.4 209.4 181.8C210 181.9 210 182 209.4 182.1C209.3 182.4 209.2 182.7 209 183C208.6 183.7 208.2 184.4 207.8 185.1C206.2 187.8 204.6 190.5 203 193.3C202.5 194.1 203.4 195.2 203.8 195.8C208.9 202.6 219.9 197.9 224.9 193.3C227.7 190.7 229.2 187.3 228.7 183.4C228.2 179.6 225.8 176.3 222.2 174.9C222.9 176.2 223.6 177.5 224.3 178.8C226.9 176 232.8 175.3 235.2 178.8C238 182.8 235.3 188.7 231.9 191.3C230.6 192.3 232.7 194.4 233.5 194.9C237.2 197.4 241.7 197.4 245.8 196.1C247.9 195.4 249.9 194.4 251.8 193.4C253.6 192.4 255.8 191.4 257 189.6C258.7 186.9 256.9 183.8 255 181.8C253.6 180.2 250.3 178.4 250.7 176C250.5 176.3 250.3 176.6 250 176.9C257.8 175.3 265.7 175.3 273.5 176.7C277.3 177.4 281 178.5 284.6 179.9C284.9 180 286.1 180.4 286.2 180.6C285.9 179.9 285.5 180.8 285.3 181C284.7 181.8 284 182.6 283.3 183.4C281.8 185.2 280.4 187 278.9 188.7C277.9 189.9 279.4 191.7 280.5 192.3C285.7 195.4 293.1 195.1 297.3 190.4C301.5 185.8 301.5 179 298.4 173.8C298.3 174.6 298.3 175.4 298.2 176.3C302.4 175.9 306.7 175.4 310.9 175C313 174.8 315.2 174.5 317.3 174.3C318.5 174.2 320.6 173.9 321.1 175.2C322.2 177.6 320.4 180.9 319 182.8C317 185.6 314.6 188 313.6 191.3C313.1 192.8 314.6 194.4 315.9 194.8C319.9 196.3 324.4 197.8 328.7 196.6C332.1 195.6 335 193 336.3 189.7C339.2 182.7 334 174.3 326.9 172.4C327.5 173.8 328.1 175.1 328.6 176.5C337.1 173.9 346 173.3 354.7 174.7C353.8 173.5 352.9 172.3 351.9 171.1C349.8 177.7 347.1 184.1 343.7 190.2C343 191.4 344.7 193 345.5 193.5C350.2 196.7 357.4 195.7 360.2 190.5C363.1 185.1 359.8 178.1 354.8 175.3C355.2 176.6 355.6 177.8 356 179.1C366 175.7 376.5 174.3 387 174.9C386.1 173.7 385.2 172.5 384.2 171.3C382.5 176.6 379.9 181.6 376.5 186C375.5 187.2 377 189 378.1 189.6C381.8 191.7 385.8 191.2 389.6 189.6C393 188.2 396.9 186.2 399.2 183.3C401.4 180.6 401.9 177.3 400.5 174.1C399.3 171.1 396.3 168.2 392.9 168.5C393.7 169.8 394.6 171.1 395.4 172.5C397.5 169.7 402.2 169.4 404.7 172C408.1 175.7 405.6 182.5 403.8 186.3C403.1 187.6 405.5 190.6 407 189.9C410.7 188.2 414.4 186.3 417.9 184.3C421.1 182.4 424.9 180.5 427.2 177.5C429 175.1 429.6 172.2 428.5 169.4C427.4 166.6 425.1 164.3 422.1 164C422.8 165.4 423.6 166.8 424.3 168.2C427.6 166.9 431.2 165.4 434.8 165.4C437.1 165.4 440 166 441.4 168C442.1 169.1 442.3 170.5 442.8 171.7C443.3 173 444 174.2 445 175.2C446.6 176.7 449.5 178 451.4 176.1C452.8 174.7 449.4 171 448.1 172.4C446.9 173.6 446.5 172.5 446.1 171.4C445.7 170.1 445.3 168.8 444.6 167.6C443.3 165.3 441.2 163.6 438.8 162.5C433.1 159.9 427.1 161.9 421.6 164.1C419.5 165 422.5 168.1 423.8 168.3C425.4 168.5 425.3 170.7 424.9 171.9C424.1 174.3 421.9 176.1 419.8 177.4C414.9 180.7 409.6 183.4 404.3 185.9C405.4 187.1 406.4 188.3 407.5 189.5C410.6 183.3 411.8 175.1 406.4 169.7C402.8 166.2 395.7 164 392.1 168.8C391.1 170.1 393.1 172.9 394.6 172.8C396.6 172.6 397.3 174 397.3 175.9C397.2 178.4 395.3 180.5 393.4 181.9C389.8 184.7 382.7 188.7 378.2 186.1C378.7 187.3 379.2 188.5 379.8 189.7C383.4 185.1 386.2 180 388 174.4C388.5 172.9 386.7 170.8 385.2 170.8C374.4 170.2 363.6 171.7 353.4 175.1C351.6 175.7 353.8 178.4 354.6 178.9C357.9 180.7 358 185.6 355.8 188.3C353.4 191.3 348.8 192.2 345.6 190C346.2 191.1 346.8 192.2 347.4 193.3C350.8 187.2 353.5 180.9 355.6 174.2C356.1 172.6 354.3 170.8 352.8 170.6C343.8 169.1 334.6 169.7 325.8 172.4C323.8 173 326.5 176.2 327.5 176.5C333 178 334.3 184.3 331.2 188.7C329.7 190.8 327.3 192.3 324.8 192.8C321.4 193.4 318 192 314.9 190.9C315.7 192.1 316.4 193.3 317.2 194.4C318.5 190.3 322.1 187.6 323.9 183.7C325.4 180.5 325.5 176.6 323.5 173.7C320.7 169.5 316.2 169.9 311.7 170.4C306.2 171 300.7 171.6 295.3 172.1C294.1 172.2 294.9 174.1 295.1 174.6C297.4 178.5 296.4 183.9 293.2 187C289.8 190.3 284.3 191.2 280.2 188.7C280.7 189.9 281.2 191.1 281.8 192.3C283.6 190.1 285.4 188 287.2 185.8C288.6 184.1 290.2 182.5 289.1 180.1C288.2 178 286.2 177 284.3 176.2C281.9 175.2 279.4 174.3 276.8 173.7C267 171.1 256.8 170.7 246.9 172.7C246.4 172.8 246.3 173.2 246.2 173.6C245.7 176.3 247.4 178.8 249.2 180.6C250.2 181.7 253.1 183.5 253.1 185.1C253.2 186.7 251.1 187.7 250 188.4C248.2 189.5 246.3 190.5 244.3 191.4C240.7 192.9 236.5 193.8 233 191.5C233.5 192.7 234 193.9 234.6 195.1C240 190.8 241.2 182.5 236.8 177C233 172.3 224.9 170.2 220.3 175.1C219.1 176.4 221.2 178.5 222.4 179C224.3 179.8 224.4 182.6 224.1 184.4C223.6 187.1 221.7 189.2 219.6 190.8C217.4 192.4 214.7 193.7 212.1 194.5C210.1 195.1 206.7 196 205.2 194.1C205.5 194.9 205.7 195.8 206 196.6C207 194.8 208.1 193 209.1 191.3C210.1 189.5 211.5 187.7 212.2 185.8C213.4 182.6 211.2 179.4 208.2 178.3C204.9 177.1 200.8 177.5 197.4 177.4C192.9 177.2 188.5 177 184 176.9C183 176.9 182.8 177.8 183 178.6C183.3 179.7 184.2 180.5 185.3 181C188.3 182.3 187.7 187.1 186.5 189.4C184.5 193 180.1 194.8 176.2 195C171.2 195.3 166.3 193.5 161.8 191.7C161.3 191.5 159.9 190.9 159.8 190.7C159.5 190.1 160.8 188.3 161.2 187.6C162.7 185.2 164.1 182.8 165.6 180.5C166 179.8 165.3 178.5 164.8 178C156 169.2 141.9 166.9 131.3 173.8C129.8 174.8 132.4 177.4 133.4 177.7C135.4 178.3 136 180.4 135.8 182.4C135.6 185.1 133.7 187.3 131.5 188.6C125.5 192.1 118.4 189.5 112.4 187.2C113.2 188.4 113.9 189.6 114.7 190.7C116.9 187.1 119 182.8 118.9 178.5C118.7 174.3 116.1 170.3 112.1 168.7C108.4 167.3 104.1 168.2 101.9 171.6C99.7001 175.1 100.6 179.3 103 182.5C103.9 183.7 106.2 185.6 105.3 187.2C104.2 189.2 100.3 189.2 98.5001 189.3C92.9001 189.8 86.9001 189.7 81.3001 188.7C79.7001 188.4 77.5001 187.9 76.4001 186.7C75.3001 185.5 76.3001 183.8 77.3001 182.9C80.3001 180.2 84.6001 180.1 86.9001 176.5C89.8001 172 85.5001 167.5 80.9001 167.2C74.8001 166.7 68.4001 167.4 62.3001 168.5C61.1001 168.4 63.9001 172.5 65.7001 172.2Z" fill="white"/>
</g>
<mask id="mask4_201_675" style="mask-type:luminance" maskUnits="userSpaceOnUse" x="51" y="51" width="398" height="398">
<path d="M250 448.5C359.629 448.5 448.5 359.629 448.5 250C448.5 140.371 359.629 51.5 250 51.5C140.371 51.5 51.5 140.371 51.5 250C51.5 359.629 140.371 448.5 250 448.5Z" fill="white"/>
</mask>
<g mask="url(#mask4_201_675)">
<path d="M66.4001 213.7C68.2001 211.7 70.7001 208.6 73.5001 208.1C75.7001 207.7 77.6001 210.7 77.2001 212.7C76.7001 214.9 74.4001 216.4 73.8001 218.6C73.2001 220.6 73.5001 222.7 74.2001 224.6C77.2001 233 89.0001 235.6 95.2001 229.1C98.0001 226.1 99.4001 221.5 98.4001 217.5C98.2001 216.6 97.8001 215.7 97.4001 214.9C96.7001 213.6 95.4001 212.1 95.9001 210.5C96.4001 209.1 98.1001 208.5 99.3001 207.9C101 207.1 102.7 206.4 104.5 205.9C106 205.4 107.4 205 108.9 204.7C110.3 204.4 111.1 204.5 111.6 206C112.4 208.1 111.6 210.9 110.5 212.7C108.2 216.6 103.4 221.5 107.4 226.1C111.2 230.4 118.8 230.6 124.1 230.8C131.7 231.1 139.3 230.4 146.7 228.8C147.4 228.7 147.7 228.2 147.2 227.7C142.1 222.8 137 217.9 131.9 213.1C131.9 213.4 131.9 213.7 131.8 214C135.7 211.4 141.6 206.9 146.3 210.2C148.2 211.5 149.6 213.7 149.3 216.1C149.1 218.4 147.8 220.5 147.5 222.7C146.6 228.5 153.8 228.4 157.7 228.2C164.3 227.9 171 227.5 177.6 227.2C178 227.2 179.9 227 179.4 226.2C177.1 221.5 174.8 216.9 172.5 212.2C172.4 212.4 172.3 212.7 172.2 212.9C174.6 211.5 177.7 209.4 180.6 209.5C182.9 209.6 185.1 211.8 185.5 214.1C186.1 218.3 181.6 222 184.4 226.1C186.5 229.1 190.7 230.1 194.2 230.1C198.1 230.1 201.7 228.5 203.5 224.9C205.9 220.2 205 214.6 203 209.9C202.9 210.1 202.8 210.4 202.7 210.6C206.2 209 210 208 213.9 207.7C216.5 207.5 221.8 207 223.3 209.7C224.8 212.4 222.6 215.7 220.8 217.5C218.6 219.6 215.9 221.3 214.5 224.1C214.3 224.6 214.6 224.9 215.1 225.1C221.6 227.6 228.3 229.2 235.2 229.7C237.9 229.9 249.7 231.3 248.9 225.8C248.7 224.4 247.5 223 246.7 221.8C245.7 220.3 244.7 218.8 243.8 217.3C243.3 216.5 242.5 215.6 242.1 214.7C241.7 213.7 241.5 213.6 242.5 213C243.6 212.4 245 211.9 246.3 212.1C252.2 212.8 253.6 221 251.1 225.3C250.6 226.1 252.3 226.5 252.8 226.6C257.3 227.2 261.6 226 264.4 222.3C266.9 219 267.6 214.5 265.3 210.9C265.2 211.1 265.1 211.4 265 211.6C267.8 210.1 272.5 207.1 275.8 208.6C278.4 209.8 280.4 213 279.5 215.9C278.7 218.5 275.8 220 274.5 222.4C273.2 225 275.5 226.7 277.8 227.3C281.2 228.1 285.1 227.8 288.6 227.4C292.3 227 296 226.2 299.5 224.9C304.6 223.1 311.4 219.5 311.7 213.3C312 206.9 304.8 202.7 299.1 204.9C298.2 205.3 298.2 205.7 299 206.2C299.9 206.7 301.6 206.8 302.5 206.5C305.8 205.4 309.2 204.7 312.8 204.5C315.6 204.3 319.7 204 322.1 205.7C327.8 209.6 320.9 216.8 317.6 219.5C317.1 219.9 318 220.3 318.2 220.5C321.4 222.3 324.9 223.6 328.6 223.8C331.5 223.9 335.1 223.4 337 220.9C338.4 219.2 338.9 216.8 338.3 214.7C337.7 212.3 335.8 211.1 333.4 210.6C333.9 211.1 334.3 211.6 334.8 212.1C337 210.4 339.7 208.1 342.6 207.8C345 207.5 347.2 210.2 347.2 212.5C347.2 214.8 344.8 217 346.7 219.1C348 220.6 350.5 221 352.4 221.2C357 221.6 363.1 221.3 366.9 218.4C370.1 215.9 371.2 211 368 208.1C368 208.4 368 208.7 367.9 209C370.4 207.8 373 206.8 375.7 206.1C378.1 205.4 381.2 204.5 383.7 204.7C385.8 204.9 385.9 207.9 385.3 209.5C384.4 212 381.7 213.3 379.4 214.4C379 214.6 378.9 215.1 379.3 215.3C389.2 221.3 401.9 222.6 412.7 218.5C413 218.4 413.7 218.1 413.4 217.6C411.6 214.7 409.8 211.7 408.1 208.8C408 209 407.9 209.3 407.8 209.5C409.1 208.6 410.5 207.8 412.1 207.4C413.6 206.9 414.1 206.8 415 208.3C416.4 210.8 415.1 213.9 416.3 216.4C417.7 219.3 422.1 219.3 424.7 218.7C429.1 217.6 433.5 216.1 437.8 214.9C438.1 214.8 438.8 214.5 438.5 214C436.6 210.7 434.7 207.4 432.8 204.1C432.7 204.3 432.6 204.6 432.5 204.8C436 203.1 441.1 200.3 443.7 204.8C445.5 207.9 443.6 211.9 446.9 214.3C450.7 217.1 459.1 216.8 460.6 211.5C460.9 210.4 456 209.7 455.6 211.1C455.2 212.7 453.2 214.8 451.4 213.8C448.3 212.1 450.1 207.1 448.4 204.5C446.6 201.8 443.1 200.7 440 200.4C435.8 200.1 431.9 201.7 428.2 203.5C427.9 203.6 427.7 203.9 427.9 204.2C429.8 207.5 431.7 210.8 433.6 214.1C433.8 213.8 434.1 213.5 434.3 213.2C432 213.9 429.8 214.5 427.5 215.2C426.4 215.5 425.4 215.8 424.3 216.1C423.8 216.3 422 217.1 421.5 216.9C420.5 216.4 420.6 213.9 420.6 213C420.6 211.6 420.5 210.1 420 208.8C418.9 205.9 415.4 205.1 412.6 205.2C409.3 205.3 406.2 206.5 403.5 208.3C403.3 208.5 403 208.7 403.2 209C405 211.9 406.8 214.9 408.5 217.8C408.7 217.5 409 217.2 409.2 216.9C400.7 220.1 391.4 219.4 383.6 214.7C383.6 215 383.6 215.3 383.5 215.6C386.3 214.2 389.6 212.4 390.3 209.1C391 205.9 388.8 203.8 385.9 203.1C382.4 202.3 378.6 203.1 375.2 203.8C371.1 204.7 367.2 206 363.5 207.8C363 208 363.1 208.4 363.4 208.7C365 210.1 365 212.4 364.3 214.3C363.5 216.6 361.5 218.1 359.2 218.8C357.2 219.4 354.5 219.7 352.4 219.4C349.3 218.9 351.6 215.4 351.9 213.7C352.7 209.4 347.9 206.6 344.3 206.1C338.9 205.2 334.4 207.9 330.3 211C329.2 211.8 331.1 212.4 331.7 212.5C332.6 212.7 333.1 214.6 333.2 215.4C333.4 216.8 333.1 218.4 332.4 219.6C329.9 223.9 324.8 221.5 321.5 219.6C321.7 219.9 321.9 220.2 322.1 220.6C324.8 218.4 327.6 215.6 328.6 212.1C329.6 208.6 327.5 205.7 324.4 204.3C320.7 202.7 316.3 202.6 312.4 202.7C307.8 202.8 303.2 203.6 298.8 205.1C299.9 205.6 301.1 206.2 302.2 206.7C302.8 206.4 302.2 206.3 302.9 206.6C303.4 206.8 303.9 207.3 304.3 207.7C305.1 208.5 305.7 209.6 306 210.7C306.8 213.3 305.9 216 304.2 218C300.4 222.7 293.5 224.6 287.9 225.5C286.2 225.8 284.5 225.9 282.8 225.9C281.5 225.9 279.2 226.4 278.6 224.9C277.9 223 281 220.6 282.1 219.4C283.7 217.6 284.6 215.7 283.9 213.4C283.3 211.2 281.6 209.4 279.7 208.2C273.5 204.5 266 207.5 260.2 210.5C260 210.6 259.7 210.9 259.9 211.2C261.6 213.9 261.5 217.2 260 220C259 222 256.3 225.4 253.7 225C254.3 225.4 254.8 225.9 255.4 226.3C258.1 221.6 256.8 215.2 252 212.3C247.2 209.4 240.2 209.6 235.9 213.3C235.8 213.5 235.8 213.6 235.9 213.8C238 217 240.1 220.3 242.2 223.5C243 224.7 244.2 226.3 242.9 227.5C242 228.3 240.5 228.2 239.4 228.2C232.2 228.3 225 226.8 218.3 224.2C218.5 224.5 218.7 224.8 218.9 225.2C220.7 221.4 224.9 219.9 227 216.4C229 213.2 228.9 209.3 225.2 207.6C221.4 205.8 216.2 205.9 212.1 206.1C207.3 206.4 202.6 207.6 198.2 209.6C197.9 209.7 197.8 210 197.9 210.3C200.1 215.4 201 222.7 196.6 226.9C193.7 229.7 188.4 228.2 188.1 223.9C187.9 220.9 190.2 218.5 190.2 215.6C190.2 212.9 188.3 210.7 186 209.5C179.9 206.2 173.2 208.7 167.7 212C167.4 212.2 167.2 212.4 167.4 212.7C169.7 217.4 172 222 174.3 226.7C174.9 226.4 175.5 226 176.1 225.7C169.1 226.1 162.1 226.4 155 226.8C153.5 226.9 152.3 226.8 152.1 225C152 223.9 152.3 222.8 152.7 221.8C153.4 219.5 154.5 217.3 153.9 214.8C152.8 210.3 147.7 207.9 143.4 207.5C137.4 207 132.2 209.9 127.3 213.1C126.8 213.4 126.8 213.7 127.2 214C132.3 218.9 137.4 223.8 142.5 228.6C142.7 228.2 142.8 227.9 143 227.5C136 229 128.8 229.6 121.7 229.1C117.2 228.8 109.3 227.9 110.7 221.3C111.8 216.3 117.4 213.1 116.5 207.4C115.6 201.8 108.5 202.5 104.5 203.5C101.4 204.2 98.3001 205.3 95.4001 206.6C93.1001 207.6 89.8001 208.9 90.6001 212C91.2001 214.4 93.1001 216.1 93.4001 218.7C93.7001 220.9 93.3001 223.2 92.3001 225.2C90.8001 228.4 86.9001 232.6 83.1001 230.3C79.5001 228.1 77.2001 223.2 78.5001 219C79.3001 216.5 82.2001 214.9 81.9001 212.1C81.6001 209.6 79.4001 207.9 77.2001 207C70.7001 204.4 65.4001 208.4 61.2001 213C60.8001 213.7 65.4001 214.8 66.4001 213.7Z" fill="white"/>
</g>
<mask id="mask5_201_675" style="mask-type:luminance" maskUnits="userSpaceOnUse" x="51" y="51" width="398" height="398">
<path d="M250 448.5C359.629 448.5 448.5 359.629 448.5 250C448.5 140.371 359.629 51.5 250 51.5C140.371 51.5 51.5 140.371 51.5 250C51.5 359.629 140.371 448.5 250 448.5Z" fill="white"/>
</mask>
<g mask="url(#mask5_201_675)">
<path d="M64 249.4C69.7 248.3 75.5 247.3 81.2 246.2C80.7 246 80.1 245.7 79.6 245.5C77.7 244.3 78.7 244.7 78.4 246.1C78.3 246.8 78 247.4 77.8 248C77.3 249.2 76.8 250.4 76.4 251.6C75.7 254.1 76.5 256.5 78 258.5C80.8 262.3 85.9 265.1 90.7 265C95.5 264.9 99.7 261.7 100.6 256.9C101.5 252.2 99.3 247.9 95.6 245.1C96 245.6 96.4 246.1 96.8 246.6C97.1 245.2 98 244.2 99.4 243.8C100.1 243.6 100.9 243.6 101.6 243.7C102 243.7 102.3 243.9 102.7 243.9C102.9 243.9 103 244 103.1 244.1C102.2 243.4 102 243.2 102.3 243.6C102.3 243.9 102.7 244.2 102.8 244.5C103 245.1 103.2 245.7 103.2 246.4C103.4 247.7 103.2 249.1 102.8 250.3C102.1 252.8 100.8 255 99.5 257.2C99.3 257.6 100.6 258.5 100.7 258.7C106.1 262.8 115.8 267.3 121.4 261.1C123.4 258.9 124.2 255.8 123.7 252.9C123.1 249.6 120.3 247.3 117.5 245.7C118.4 246.5 119.4 247.4 120.3 248.2C123.3 244.8 127.5 242.8 132 242.4C136.1 242 141.1 242.7 144 245.8C143.9 245.5 143.8 245.3 143.8 245C139.5 245.5 138.1 251 139.9 254.5C142.2 258.9 147.8 261.7 152.5 262.8C158.9 264.2 165.7 264.2 172.2 263.1C175.3 262.6 187.2 261 184.4 255.5C183 252.7 179.5 250.8 177 249.1C173.5 246.7 170.1 244.3 166.6 241.8C167.2 242.4 167.8 243 168.3 243.7C171.5 242.3 176 242.5 178 245.7C180.3 249.4 178.2 254 180.8 257.4C183 260.2 186.9 262.3 190.4 262.1C195 261.8 198.2 258 200.9 254.7C200.9 254.5 200.9 254.4 200.8 254.3C199.3 252.4 197.7 250.5 196.2 248.6C195.7 247.9 194.2 246.8 194.6 245.9C194.8 245.4 196.4 244.8 196.9 244.6C200.5 243 204.7 242.9 208.6 243.3C210.6 243.5 212.6 243.9 214.5 244.3C215.4 244.5 216.2 244.7 217.1 244.9C217.4 245 217.6 245 217.9 245.1C218.3 245.3 218.3 245.2 217.8 245C217.3 244.6 217.2 244.7 217.5 245.2C217.5 245.5 217.5 245.8 217.4 246.1C216.9 247.9 214.8 249.6 213.6 251C212 252.9 210.3 254.8 208.7 256.7C208.4 257 209.8 258.1 209.9 258.2C213.3 261 217.6 263.3 222.1 263.7C225.9 264 230.2 262.7 232.2 259.2C235.7 252.9 231 245.3 224.3 243.9C225.5 244.9 226.7 245.8 228 246.8C235.5 243.8 243.7 242.7 251.7 243.6C252.7 243.7 253.8 243.9 254.8 244.1C255.1 244.2 256.2 244.5 255.2 244C254.5 243.6 254.9 244 254.8 244.8C254.5 246.8 252.6 248.3 251.3 249.7C248.3 253 245.3 256.2 242.3 259.5C241.7 260.1 245.5 262.3 246 262.4C251.7 264.3 257.9 266.3 264 264.9C268.2 263.9 271.8 260.7 273 256.5C273.5 254.7 273.6 252.7 272.9 250.9C272.7 250.5 272.4 250.1 272.3 249.6C272 248.9 271.8 249 272.5 248.5C273.5 247.6 274.8 247 275.9 246.4C278.6 245.1 281.5 244.3 284.4 244.2C286.7 244.1 290.4 244 292.4 245.4C294.9 247.1 294.1 251.4 293.2 253.7C292 256.6 289.9 259 287.8 261.3C287.3 261.9 291 264.1 291.5 264.2C298.5 266 309.7 268.6 314.3 260.9C315.7 258.5 316.3 255.3 315.4 252.5C314.4 249.5 311.4 247.3 308.5 246.1C309.6 247 310.7 247.9 311.8 248.9C313.5 247.6 315.4 246.9 317.6 247C320.1 247 321.2 247.6 322 250C323.3 253.9 321.7 258.4 318.2 260.6C318 260.7 318.6 261.3 318.6 261.3C323 266.1 330.5 269.2 336.4 265.3C342.2 261.5 342 253 337.6 248.2C337.7 248.4 337.9 248.7 338 248.9C341.1 247.1 344.4 245.4 348 244.7C350.7 244.2 354.9 243.9 357.2 245.7C361.4 249.1 359.6 257 354.8 258.8C354.1 259 356.2 260.6 356.4 260.7C359.5 262.8 362.8 263.8 366.4 262.2C369.7 260.7 372.2 257.5 371.7 253.7C371.5 252.3 370.9 251 372 249.8C372.8 248.9 374.2 248.4 375.3 248C377.9 247.1 380.1 247.2 382.7 247.7C383.2 247.9 383.2 247.9 382.6 247.6C382.7 247.8 382.9 248 383 248.2C383.1 248.6 383.4 249 383.5 249.5C383.8 250.4 383.9 251.4 383.7 252.3C383.5 254.1 382.5 255.5 380.9 256.3C380.9 256.5 380.9 256.6 381 256.7C384 261.9 391.4 263.3 395.2 258.3C397.5 255.3 396.8 251.1 395.4 248C394.6 246.1 393.4 244.3 392.3 242.5C391.7 241.6 391.3 241.4 392.3 240.7C393 240.2 394.1 240 395 239.8C397.6 239.3 401.4 239.5 403.3 241.5C406.2 244.4 405.4 248.4 406.9 251.8C409.3 257.4 416.7 259.7 421.5 255.8C428.9 249.7 421 239.9 415.8 235.5C416.2 236 416.6 236.5 417 237C420.4 235.5 424 234.6 427.7 234.5C429.6 234.4 431.5 234.6 433.3 234.9C435.1 235.2 436.8 236.1 438.6 236.5C439.3 236.9 439.3 236.8 438.5 236.3C438.7 236.6 438.9 236.9 439 237.2C439.2 237.8 439.2 238.3 439.1 238.9C439 239.9 438.5 240.8 438.1 241.6C437 243.7 435.4 245.6 434.9 247.9C433.7 253.4 441.4 254.8 445.4 254C450.5 253 455 249.1 456 243.9C456.2 242.7 451.9 240.9 451.9 241C450.5 248.1 442.4 253 435.5 250.6C436.7 251.5 437.9 252.4 439.2 253.3C438 249.9 441 246.8 442.4 244C444.1 240.6 442.9 238 439.9 235.8C432.3 230.2 421.4 230.1 413 233.9C412.7 234 414.2 235.4 414.2 235.4C418.5 238.9 423 246.3 418.7 251.5C417.2 253.3 414.9 254.6 412.5 254.8C411.9 254.8 411.4 254.7 410.8 254.7C410 254.4 410.3 254.7 411.7 255.5C411.4 255.1 411.2 254.7 411 254.3C410.4 252.9 410.3 251.3 410 249.7C408.5 240.4 395.6 233 387.2 238.3C387.2 238.5 387.2 238.6 387.3 238.7C390.5 243.2 395.6 250.9 390.6 256C389.1 257.5 386.9 258.6 384.7 258.4C384.7 258.4 383.9 258.2 383.9 258.3C383.9 258.3 385 259 385.4 258.9C385.8 258.8 386.2 258.3 386.5 258C387.3 257.2 387.7 256.2 387.8 255.1C388.5 250 383.8 246.1 379.4 244.6C376.5 243.7 373.4 244.1 370.6 245.2C369.6 245.6 368.3 246.1 367.7 247C366.8 248.3 367.5 249.8 367.6 251.3C367.8 254 366.3 256.5 364.2 258C363 258.9 361.7 259.5 360.2 259.8C359.6 259.9 359 260 358.4 259.9C358.1 259.9 357.7 259.9 357.4 259.8C357.1 259.7 356 259.2 356.9 259.7C357.4 260.3 358 261 358.5 261.6C361.7 260.4 363.4 257.4 363.5 254C363.6 250.2 361.1 247.3 358.2 245.1C355.1 242.7 351.3 241.2 347.4 241.2C342.5 241.2 337.9 243.5 333.8 245.9C333.6 246 334.2 246.6 334.2 246.6C337.5 250.2 337.4 256.3 334.5 260.1C333 262 330.9 263.2 328.6 263.6C326.6 264 323.3 264.1 321.8 262.5C321.9 262.7 322.1 263 322.2 263.2C327.3 259.9 327.7 252.6 323.6 248.4C319.5 244.3 312.7 241.7 307.7 245.8C307.2 246.2 310.6 248.4 311 248.6C312.1 249 310.3 248.2 310.4 248.1C310.4 248.1 310.8 248.6 310.8 248.7C311 249.2 311.3 249.7 311.4 250.2C311.7 251.4 311.8 252.6 311.6 253.9C311.3 256.2 310.2 258.5 308.5 260.1C303.2 265.1 294.4 262.9 288.3 261.2C289.5 262.2 290.7 263.1 292 264.1C294.9 261 298.2 257.1 298.3 252.7C298.4 248.6 295.2 245.7 291.9 243.7C284.3 239.2 274.4 240.9 267.7 246.2C267.7 246.4 267.7 246.5 267.8 246.6C271.3 251 268.3 257.2 264.3 260.1C258 264.6 249.4 261.7 242.8 259.5C244 260.5 245.2 261.4 246.5 262.4C248.4 260.3 250.4 258.2 252.3 256.1C254.2 254.1 256.3 252.1 257.9 249.9C259.1 248.2 259.4 246.4 258 244.8C256.7 243.4 254.8 242.2 253 241.5C248.5 240 243.1 240.1 238.5 240.4C233.5 240.8 228.6 242 224 243.9C223.7 244 227.1 246.7 227.7 246.8C228 246.8 228.2 246.9 228.5 247C227.8 246.4 227.6 246.3 228 246.8C228.2 247.3 228.6 247.8 228.8 248.3C229.2 249.2 229.4 250.1 229.4 251.1C229.6 253.3 229 255.7 227.6 257.4C224 262 216 261.8 211.8 258.3C212.2 258.8 212.6 259.3 213 259.8C214.7 257.8 216.5 255.8 218.2 253.8C219.4 252.4 221.8 250.5 221.8 248.5C221.9 245.3 216.7 243 214.2 242.3C206.6 240.2 197.1 238.7 190.3 243.7C190.3 243.9 190.3 244 190.4 244.1C191.5 245.5 192.7 246.9 193.8 248.3C194.3 248.9 194.8 249.5 195.3 250.1C195.6 250.4 196.7 251.5 196.8 251.9C197 253 195 254.7 194.3 255.4C193.4 256.3 192.5 257.1 191.5 257.8C189.7 259 186.4 260.3 184.3 259.1C185.3 259.6 184.3 258.7 184.2 258.2C184 257.5 183.9 256.8 183.9 256C183.8 254.7 184 253.3 183.8 252C183.2 247.7 179.6 244.5 176.1 242.4C172.6 240.3 168.5 239.3 164.6 241C164.2 241.2 166.4 242.9 166.3 242.9C169.2 245 172.2 247 175.1 249.1C177.1 250.5 182.4 252.8 180.5 256C179.2 258.2 175.4 258.9 173.1 259.4C169.9 260.2 166.6 260.8 163.2 261C160 261.2 156.8 261.2 153.6 260.8C151.1 260.5 147.4 260.2 145.3 258.7C141.7 256.1 143.5 248.9 147.9 248.3C148.4 248.2 147.7 247.6 147.7 247.5C139.8 238.9 125.1 236.1 116.6 245.6C116.1 246.1 119.1 248 119.4 248.1C118 247.3 119 247.9 119.4 248.7C119.6 249.1 119.7 249.5 119.8 249.9C120.1 251 120.1 252.1 120 253.2C119.7 255.2 118.9 257.1 117.5 258.6C113.8 262.4 106.7 262 102.6 258.9C103 259.4 103.4 259.9 103.8 260.4C105.6 257.4 107.5 254.1 107.6 250.5C107.6 247.5 106.3 245.4 104 243.7C101.3 241.6 94.1 238.6 92.9 244C92.8 244.5 93.8 245.2 94.1 245.5C98.1 248.5 97.5 255.7 94.5 259.2C92.8 261.2 90.2 262.3 87.6 262.4C86.3 262.5 84.9 262.4 83.7 262C82.3 261.6 81.6 260.7 81 259.2C79.7 256.1 81.3 253.7 82.3 250.8C83.1 248.4 82.8 246.9 80.8 245.3C80 244.6 78.8 243.7 77.7 243.6C76.8 243.5 75.6 244 74.7 244.2C73.7 244.4 72.7 244.6 71.7 244.8C68 245.5 64.2 246.2 60.5 246.9C59.8 247 61.4 248.3 61.6 248.4C61.9 248.3 63.2 249.5 64 249.4Z" fill="white"/>
</g>
<mask id="mask6_201_675" style="mask-type:luminance" maskUnits="userSpaceOnUse" x="51" y="51" width="398" height="398">
<path d="M250 448.5C359.629 448.5 448.5 359.629 448.5 250C448.5 140.371 359.629 51.5 250 51.5C140.371 51.5 51.5 140.371 51.5 250C51.5 359.629 140.371 448.5 250 448.5Z" fill="white"/>
</mask>
<g mask="url(#mask6_201_675)">
<path d="M69.1 291.7C75.3 284.1 83.7 278.1 93.2 275.3C95 274.7 96.9 274.3 98.7 275.4C100.7 276.6 100.5 278.9 99.1 280.5C97.4 282.6 94.9 284.3 92.8 286C90.5 288 88.2 289.9 85.8 291.9C85.7 292 85.7 292.1 85.9 292.2C91.7 295.8 98.4 298.1 105.2 298.4C110.4 298.6 118.1 297.4 119.9 291.6C120.9 288.3 118.5 286.5 117.2 283.7C116.6 282.6 116.5 281.3 116.9 280.1C117.2 279.3 117.6 278.6 118.2 278.1C118.9 277.4 119 277.1 119.9 277.4C127.1 280 126.1 288.9 124 294.5C124.1 294.6 124.2 294.7 124.4 294.7C135.9 296.1 148 293.6 158.1 287.7C158.3 287.6 158.4 287.5 158.4 287.4C156.4 283.3 154.4 279.3 152.3 275.2C151.9 275.4 151.5 275.6 151.2 275.9C155.8 274.3 163.6 274.2 164.3 280.6C165 286.7 158.2 290.9 158.4 297C158.5 297.1 158.6 297.2 158.8 297.2C163.5 297.9 168.3 297.9 173.1 297.4C176.8 297 181.5 296.6 184.6 294.2C190.5 289.6 181.1 283.5 182 278.1C181.8 278.3 181.6 278.4 181.3 278.6C185 277 188.8 276.8 192.7 277.6C195.4 278.2 200.7 279.5 201.1 282.9C201.3 285.1 199.4 287 198.2 288.6C196.8 290.3 195.3 292.2 195.6 294.6C195.7 294.7 195.8 294.8 196 294.8C200.5 295.9 205.1 296.1 209.7 295.5C213.8 295 218.5 294.1 222.1 292C229.3 287.7 219.5 282.2 218.3 277.6C218.1 277.8 217.9 277.9 217.6 278.1C220.3 277 223.1 276.7 226 276.9C228.1 277.1 231 277.5 231.9 279.7C232.8 281.8 231 285 230.3 287C229.3 289.8 228.3 292.6 227.3 295.4C227.4 295.5 227.5 295.6 227.7 295.6C235.4 297.4 243.5 296.9 251.1 294.6C253.6 293.8 258 292.7 257.4 289.3C257.1 287.3 255.5 285.1 254.5 283.3C253.5 281.3 252.4 279.3 251.4 277.2C251.2 277.4 251 277.5 250.7 277.7C255.1 275.8 260.9 274.2 265.3 277.1C268.2 279 269.7 284.4 266.2 286.5C266 286.6 265.9 286.7 265.9 286.8C268 292.4 275.9 292.3 280.3 289.9C285.2 287.2 284.5 279.5 279.4 277.4C279.3 277.5 279.3 277.7 279.2 277.8C281.2 276.6 283.8 274.6 286.2 274.9C288.2 275.1 290.2 276.3 291.2 278C293.8 282.3 289.7 286.8 286.8 289.6C286.7 289.7 286.7 289.8 286.9 289.9C290.6 291.8 294.6 293.6 298.8 293.8C302.2 294 306.4 293.4 309.1 291.4C312.8 288.7 314.6 281.1 309.2 279.2C309.1 279.3 309.1 279.5 309 279.6C311.5 278.4 314.1 277.8 316.9 277.9C318.9 278 322.4 278.2 323.8 279.9C325.4 281.8 323.3 284.8 322.5 286.6C321.4 289 320.3 291.5 319.2 293.9C319.1 294 319.1 294.1 319.3 294.2C325.9 297.2 335.6 298.1 341.2 292.3C343.5 289.9 344.4 286.3 342.5 283.4C340.5 280.2 337.2 279.7 333.7 280.4C334.5 280.5 335.4 280.5 336.2 280.6C337.2 279 339 277.2 341 277.4C343.4 277.6 345.6 278.9 346.9 280.9C349.5 284.7 348.9 290.2 345.5 293.3C345.3 293.5 345.7 293.6 345.8 293.6C351.4 294.7 357.4 294.9 362.8 292.6C366.9 290.9 369.8 286.8 368.8 282.2C368.6 281.2 368.2 280.3 367.5 279.5C367 278.9 365.7 278.4 365.6 277.7C365.5 276.8 366.9 276 367.4 275.5C368 275.3 367.8 275.3 367 275.5C367.3 275.5 367.6 275.5 367.8 275.6C368.3 275.7 368.8 275.9 369.3 276.1C374.9 278.7 373.6 286.6 371.4 291C371.3 291.1 371.3 291.2 371.5 291.3C377.7 293.3 384.4 293.8 390.9 292.6C395.4 291.7 402.2 289.2 400.3 283.3C399.9 282 399.1 280.9 398.2 279.8C397.7 279.2 395.2 277.4 395.3 276.7C395.3 276.4 396 275.8 396.2 275.7C396.6 275.3 397.4 275.2 396.5 275.2C397.5 275.2 398.5 275.6 399.3 276C403.9 278.5 401.4 284.1 402.4 288.2C403.5 292.8 410.8 291.5 413.1 288.7C416.7 284.3 412.3 276.3 418.7 273.9C420.4 273.3 423 273.5 424 275.2C425.2 277.3 422.7 279.7 422.8 282C423 284.3 424.4 286.5 426.5 287.6C428.8 288.8 431.6 288.4 434 287.7C436.5 286.9 438.7 285.4 439.7 282.9C440.2 281.4 440.2 280 439.6 278.6C439.1 277.2 438.2 275.8 438.4 274.2C438.5 273 439.3 271.9 440.3 271.1C440.5 271 440.7 270.8 440.9 270.7C441.4 270.5 441.4 270.4 440.9 270.6C440.5 270.6 440.4 270.7 440.8 270.7C441.2 271.1 442.1 271 442.4 271.5C442.9 272.2 442.6 273.9 442.5 274.7C442.5 275.7 442.5 276.7 442.5 277.8C442.5 280.1 442.4 282.4 442.4 284.7L442.5 284.8C446.9 286 451.3 286.2 455.9 285.7C456.3 285.7 458.8 285.3 458.9 284.8C458.9 284.2 457.5 284.5 457.1 284.5C455.3 284.7 453.5 284.7 451.7 284.5C451 284.4 450.2 284.3 449.5 284.2C449.2 284.1 448.7 284.1 448.4 284C447.5 283.6 447.5 283.1 447.4 282.3C447.2 280.7 447.5 278.9 447.5 277.3C447.5 275.5 447.6 273.7 447.6 272C447.6 270.8 447.4 270.3 446.2 269.8C445.4 269.5 444.6 269.4 443.8 269.3C441.7 269.2 439.3 269.7 437.4 270.7C435.9 271.4 434.6 272.5 434 274.1C433 276.5 434.8 278.4 435.3 280.7C435.8 283 434.6 285.5 432.7 286.9L431.9 287.4C431.7 287 433.4 287.7 432.5 287C432.1 286.7 431.4 286.6 430.9 286.3C429.9 285.6 429.2 284.7 428.7 283.6C427.5 281.1 428.3 279.5 429.2 277.1C429.8 275.4 429.3 273.9 427.7 273.1C424.1 271.3 418.9 272.7 415.4 274C413.3 274.8 411.5 276.1 410.8 278.3C410 280.8 410.7 283.4 410.3 285.9C410.1 287 409.7 288.1 409.1 289C408.7 289.6 407.6 290.2 408.9 289.9C410.2 289.6 409.1 289.6 408.5 289C407.3 287.6 407.5 285.2 407.5 283.5C407.5 281.4 407.8 279 406.7 277.1C405.7 275.5 404 274.6 402.3 274.2C398.6 273.4 392.7 274.3 390.7 277.9C390.6 278 390.6 278.1 390.8 278.2C393 280.1 395.7 282.4 396.1 285.5C396.5 288.5 394.3 291 391.5 291.7C388.2 292.6 384.3 292.1 381.1 291.5C380.1 291.3 378.9 291.2 378 290.8C376.8 290.3 377 290.2 377.5 289C378 287.8 378.4 286.5 378.6 285.1C379.4 280.1 377.3 275.1 371.9 274.5C368.2 274.1 362.2 275.1 361.1 279.3L361.2 279.4C364.9 281 365.2 285.9 363.6 289.2C362.6 291.1 360.8 292.8 358.6 293.2C356 293.7 353 293 350.5 292.5C350.6 292.6 350.7 292.7 350.8 292.8C355.5 288.5 354.9 280 349 277.1C343.8 274.6 335.3 276.4 332 281.3C331.6 281.9 334.4 281.5 334.5 281.5C335.1 281.4 337 282.9 337.5 283.5C338.3 284.4 338.9 285.6 339.1 286.9C339.5 289.4 338.3 291.7 336.5 293.4C335.4 294.4 334.1 295.3 332.5 295.3C330.7 295.3 328.8 294.8 327.1 294.2C326.7 294.1 325.4 293.8 325.1 293.4C324.5 292.6 325.4 291.5 325.7 290.7C326.4 289.3 327 287.8 327.7 286.4C328.6 284.5 331 281 329.3 279C327.9 277.2 324.3 277 322.2 276.8C316.4 276.3 310.4 277.5 305.2 280C305.1 280 304.7 280.3 305 280.4C309.3 281.9 308.7 287.7 306.3 290.7C305.7 291.5 304.8 292.4 303.7 292.6C302 292.9 299.9 292.2 298.3 291.7C296.6 291.2 294.7 290.5 293.2 289.5C292.4 288.9 292.4 289.1 292.9 288.3C293.4 287.6 294.1 287 294.6 286.4C296.4 284.2 298 281.3 297 278.5C296.3 276.2 294.2 274.8 292 274.2C286.2 272.6 280 275.5 275.2 278.4C275.1 278.5 274.7 278.7 275 278.8C279 280.5 280.6 286.6 277.3 289.7C277 289.9 276.8 290.2 276.5 290.3C275.9 290.6 276 290.6 277 290.3C277 290.4 275.6 290.1 275.5 290C274.5 289.7 273.6 289.2 272.8 288.5C272.1 287.9 271.1 286.8 271.6 286C271.9 285.6 272.5 285.2 272.8 284.7C273 284.3 273.2 283.9 273.3 283.5C274.9 278.3 270 274.9 265.5 274.4C259.5 273.7 253 275.4 247.6 277.8C247.6 277.8 246.8 278.1 246.9 278.3C248.5 281.4 250.1 284.6 251.7 287.7C252.4 289.1 253.5 290.9 252.4 292.5C251.5 293.8 249.4 294.2 248 294.6C244.6 295.5 241.1 295.7 237.7 295.4C236.8 295.3 235.9 295.2 234.9 295C234.6 294.9 233.1 294.9 232.8 294.6C232.4 294 233.3 292.4 233.5 291.8C233.8 291 234.1 290.2 234.4 289.4C235 287.8 235.6 286.1 236.2 284.5C236.7 283 237.6 281.4 237.4 279.8C237.1 277.4 234.5 276.5 232.4 276.1C226.4 274.9 219.9 276 214.3 278.2C214.2 278.2 213.6 278.5 213.6 278.7C214.2 280.8 215.7 282.4 217.1 284.1C218.3 285.5 220 287.1 220 289.1C220.1 292.3 216.2 293.4 213.7 294C210.2 294.9 206.5 294.8 203 294.3C201.6 294.1 200.3 294.1 200.7 292.4C200.9 291.3 201.6 290.4 202.2 289.5C203.4 287.9 204.9 286.4 205.8 284.6C208.2 279.2 199.9 277.1 196.1 276.5C193 276 189.8 276 186.7 276.5C185.2 276.7 183.6 277 182.2 277.4C180.9 277.8 179 278.1 177.8 279C175 281.1 181 287.9 181.6 290.2C183.6 297.5 171.9 296.9 167.6 296.7C166.6 296.6 165.6 296.7 164.6 296.5C163.7 296.3 163.5 296.3 163.5 295.3C163.5 294.1 164.1 292.7 164.6 291.6C165.7 289.4 167.1 287.5 168.2 285.3C170.4 280.9 169.4 276 164.3 274.5C159.4 273 153.4 274.2 148.7 275.9C148.6 275.9 147.4 276.3 147.6 276.6C149.2 279.9 150.9 283.1 152.5 286.4C152.8 286.9 153.7 288.2 153.4 288.8C153.2 289.2 151.7 289.7 151.4 289.9C149.8 290.7 148.1 291.4 146.4 292C143.4 293 140.3 293.7 137.2 294C135.6 294.1 134 294.2 132.4 294.1C131.7 294.1 130.4 294.3 129.8 293.9C129.1 293.5 129.8 292.4 130 291.6C131.6 286.3 131.1 279 125.1 276.7C121.1 275.1 114.3 276.6 112.5 280.9C111.3 283.8 113.3 285.8 114.7 288.2C116.2 290.7 115.6 293.7 113.5 295.7C110.9 298.3 107.1 297.4 103.9 296.7C100.5 296 97.2 294.8 94.2 293.3C93.6 293 92.6 292.6 92.1 292.1C91.7 291.7 91.3 292 91.6 291.2C91.7 291 92.3 290.6 92.5 290.5C94 289.3 95.4 288.1 96.9 286.8C99.4 284.7 102.5 282.7 104.5 280.1C105.8 278.4 106 276 104 274.8C102.3 273.7 99.8 273.7 97.9 273.9C91.6 274.4 85.2 277.2 79.8 280.2C74.1 283.4 69 287.7 64.9 292.8C64.5 293.3 66.6 293.1 66.7 293.1C66.9 292.5 68.5 292.3 69.1 291.7Z" fill="white"/>
</g>
<mask id="mask7_201_675" style="mask-type:luminance" maskUnits="userSpaceOnUse" x="51" y="51" width="398" height="398">
<path d="M250 448.5C359.629 448.5 448.5 359.629 448.5 250C448.5 140.371 359.629 51.5 250 51.5C140.371 51.5 51.5 140.371 51.5 250C51.5 359.629 140.371 448.5 250 448.5Z" fill="white"/>
</mask>
<g mask="url(#mask7_201_675)">
<path d="M73.4001 320.2C78.4001 309.4 91.2001 303.2 102.8 306C102.1 304.5 101.5 303 100.8 301.5C98.8001 303.9 96.8001 306.2 94.8001 308.6C93.3001 310.4 91.0001 312.4 90.3001 314.7C89.7001 316.8 90.7001 319.3 92.1001 320.9C93.5001 322.6 95.5001 323 97.6001 323.3C100.4 323.7 103.3 323.9 106.2 323.7C107.9 323.6 111 323.8 111.9 322.1C112.9 320.2 111.3 317.4 110.6 315.7C109.5 312.8 108.4 309.9 107.3 307C107.4 307.7 107.4 308.3 107.5 309C109.6 308 111.7 307 114 306.6C115.8 306.3 119.6 306.2 120.5 307.9C121.2 309.1 120.1 312.2 119.5 313.7C118.6 315.8 117.4 317.8 116 319.6C115.3 320.5 117.2 323.7 118.2 323.9C122 324.9 125.9 325.4 129.9 325.6C131.7 325.7 133.6 325.7 135.4 325.6C137.1 325.5 139.1 325.6 140.7 325C143.8 323.9 142.6 320.2 141.5 318C139.8 314.4 137.7 310.9 135.7 307.4C135.8 308.3 136 309.1 136.1 310C139.9 308.3 144.9 306.6 148.8 308.9C150.3 309.8 149.1 313.1 148.6 314.6C148 316.8 147.2 319 147.1 321.3C147 323.4 147.4 326.3 149.1 327.8C150.7 329.1 153.3 329.2 155.2 328.9C159.7 328.4 163.4 325.1 164.1 320.6C165 315.5 162.3 309.8 158.3 306.6C158.9 308 159.5 309.5 160 310.9C165.8 308.4 174.6 304.7 179.8 310.4C181.7 312.5 180 315.3 178.5 317.2C176.8 319.4 175.3 321.2 175.6 324.1C175.7 325 176.7 327.5 177.8 327.7C182.2 328.4 186.7 328.8 191.2 328.6C195.3 328.5 199.8 328.2 203.8 327.1C207.3 326.1 207.3 322.7 206.2 319.8C205.6 318.1 204.6 316.5 203.4 315.1C202.5 314.1 200.2 312.7 199.9 311.4C199.9 311.9 199.9 312.3 199.9 312.8C204.4 310.7 210.3 308 215.1 310.9C215.9 311.4 216.8 312 217 312.9C217.2 314.1 216.5 315.3 216.2 316.4C215.6 318.6 216.3 320.7 217.6 322.5C219.1 324.5 221.6 324.6 223.9 324.9C226.7 325.3 229.6 325.5 232.5 325.5C238.1 325.5 243.7 324.8 249.1 323.4C250.2 323.1 248 319.7 247.7 319.3C244.7 316.2 241.6 313.1 238.6 310C239.1 311.3 239.6 312.6 240.2 313.9C242.5 310.4 247.3 308.8 251.2 310.4C253 311.1 254.2 312.2 254.4 314.1C254.7 316.3 254 318.4 252.7 320.1C252 321.1 253.9 324 254.9 324.4C259 326.1 263.3 326.9 267.7 326.7C271.1 326.6 276.4 326.2 278.4 322.9C280.2 319.9 278.9 315.8 277.2 313.1C275.1 309.6 271.7 307.7 268.2 305.9C268.9 307.4 269.5 308.9 270.2 310.4C273.7 307.7 278.5 307 282.6 308.8C287 310.8 288.1 315.1 286.6 319.5C286.2 320.7 287.5 323 288.5 323.7C292.7 326.4 299 325.3 301.2 320.5C303.2 316 301.1 309.4 297.2 306.5C296.6 305.8 296.6 306 297.4 307C297.5 306.7 297.7 306.5 298 306.3C298.4 306 299 305.8 299.5 305.7C300.7 305.4 301.9 305.6 303.1 305.9C306.3 306.5 309.7 306.9 312.9 307.8C314.7 308.3 318.7 309.3 318.8 311.6C318.9 313.9 317.6 316.1 315.2 316.6C314.1 316.8 316.3 320.3 316.6 320.7C320.1 324.8 326.9 326 331.1 322.1C335.5 318 334.7 311.5 331.9 306.8C332.1 307.9 332.4 308.9 332.6 310C336.3 307.3 341.7 305.3 346 307.7C349.1 309.4 348.2 313.7 345.5 315.5C344.5 316.2 346.5 319.5 347.2 319.8C350.2 321.4 353.6 321.9 356.9 320.8C358.3 320.3 359.4 319.8 359.6 318.3C359.8 317 359.3 315.6 358.8 314.3C358.4 313.4 357.6 312.2 357.8 311.1C358.1 309.3 360.6 309.1 362.1 308.8C366.6 308.1 371.2 308 375.8 308.3C375.1 307 374.3 305.6 373.6 304.3C373 308.7 371.2 312.8 368.7 316.4C368.1 317.3 369.9 320.5 370.9 320.7C374.8 321.5 378.9 321.9 382.9 321.9C385.6 321.9 388.9 321.9 390.2 319C391.2 316.8 390.4 314 389.5 311.9C388.3 309 386.6 306.4 384.5 304.2C385 305.6 385.4 306.9 385.9 308.3C391.1 305.8 397 305.5 402.4 307.6C401.7 306.2 401 304.7 400.2 303.3C398.8 307.5 401.3 313 404.8 315.4C408.5 317.9 413.6 316.2 415.3 312.1C416.3 309.8 415 306.9 417.9 305.8C420.3 304.9 423.6 304.7 426.1 304.9C427.5 305 429 305.3 430.3 306.1C430.5 306.2 431.3 307 431.2 306.8C431 306.4 431.2 307.4 431.2 307.6C431.3 309.5 430.2 311.2 428.3 311.6C427.2 311.9 429.5 315.6 430 315.9C433.4 318.1 438.6 317.1 440 312.9C441.4 308.9 439 303.7 435.8 301.3C436.4 302.7 437 304.2 437.5 305.6C439.9 303.1 443.4 301.9 446.8 302.7C450.6 303.6 452.6 306.4 451.8 310.2C451.6 311.2 452.2 312.4 452.7 313.2C452.8 313.4 454.2 315.2 454.3 314.3C455.4 309.3 453 303.5 449.1 300.2C445 296.9 438.9 297.3 435.2 301.1C434.3 302.1 436.1 304.9 436.9 305.4C437.8 306.1 437.8 306.9 437.5 308.2C437.2 309.4 436.5 310.5 435.5 311.2C433.5 312.7 430.7 312.9 428.6 311.6C429.2 313 429.8 314.5 430.3 315.9C434.4 314.9 433.9 309.6 432.6 306.7C430.5 301.6 426 300 420.7 300.4C418.6 300.6 415.2 300.5 413.8 302.3C413 303.3 413.1 304.5 413 305.7C412.9 307 412.6 308.1 411.8 309.2C410.4 311.2 407.7 312.4 405.2 311.9C402.6 311.3 401.7 309.8 402.5 307.3C402.9 306.1 401.5 303.4 400.3 303C394.8 300.9 388.7 301.2 383.3 303.8C382.2 304.3 384.3 307.4 384.7 307.9C387 310.3 389.5 314.9 385.2 316.9C382.9 318 379.6 317.5 377.1 317.4C374.3 317.2 371.4 316.9 368.7 316.3C369.4 317.7 370.1 319.2 370.9 320.6C373.6 316.8 375.3 312.5 375.9 307.9C376 307 374.8 304 373.7 303.9C369.7 303.6 365.7 303.6 361.7 304.1C358.9 304.4 354.7 304.6 354.9 308.4C355 309.6 355.4 310.9 355.9 312C356.2 312.9 357.2 314.2 356.6 315.1C355.8 316.4 353 316.8 351.6 316.8C349.6 316.9 347.5 316.5 345.7 315.5C346.3 316.9 346.9 318.4 347.4 319.8C352.2 316.6 350 309.5 347.1 305.8C342.8 300.2 335.1 301.6 330 305.3C329.2 305.9 330.5 308 330.7 308.5C331.6 310 331.2 312.4 330.6 314C329.9 315.9 328.6 317.6 326.8 318.6C323.2 320.6 318.3 319.9 315.6 316.8C316.1 318.2 316.5 319.5 317 320.9C321.2 320.1 321.5 314.9 320.3 311.6C318.6 306.7 314.6 304.1 309.8 302.9C306.9 302.2 303.9 301.7 300.9 301.2C299.1 300.9 296.5 300.5 295 301.9C293.4 303.4 294.6 306.1 295.5 307.6C296.1 308.6 296.9 309.5 297.8 310.3C298.7 311.1 298.9 311.7 298.9 313C298.9 319 291.8 322.4 286.9 319.2C287.5 320.6 288.2 322 288.8 323.4C290.8 317.7 288.5 310.8 284.2 306.6C279.7 302.2 272.5 301.8 267.6 305.7C266.5 306.6 268.8 309.8 269.6 310.2C271.6 311.2 275.6 312.8 276.2 315.3C276.9 318.6 273.8 320.4 271.1 321.1C265 322.7 258.5 322.1 252.7 319.7C253.4 321.1 254.1 322.6 254.9 324C258.6 319 256.3 311.4 252.1 307.5C247.7 303.5 240.5 304.6 237.3 309.5C236.7 310.5 238.3 312.8 238.9 313.4C241.9 316.5 245 319.6 248 322.7C247.5 321.3 247.1 320 246.6 318.6C240.6 320.1 234.5 320.9 228.3 320.7C225.3 320.6 222.3 320.3 219.4 319.8C218.5 319.6 217.8 318.9 218.2 320.3C218.7 322 218.7 319.9 219 319.2C219.3 318.2 219.6 317.3 219.6 316.3C219.5 312.1 216.4 307.7 212.6 305.9C207.7 303.7 202.2 306.1 197.7 308.2C197.3 308.4 197.6 309.3 197.7 309.6C198.6 312.7 200.5 315 202.8 317.2C203.9 318.3 205 319.1 204.2 320.8C203.4 322.3 201.5 322.6 200 322.9C192.2 324.4 184.1 324.4 176.3 323.1C177 324.3 177.8 325.5 178.5 326.7C178.2 323.3 182.6 320.8 183.4 317.7C184.3 314.3 182.6 310.6 180.6 307.9C174.8 300.3 165.6 303.1 158.1 306.3C156.9 306.8 159.3 310.2 159.8 310.6C163.2 313.2 162.1 318.6 159.3 321.3C156.3 324.2 151.7 325 147.9 323.3C148.6 324.3 149.3 325.4 150 326.4C149.2 323.2 151.2 319.6 151.9 316.5C152.6 313.2 152.1 310.1 150.3 307.2C146.6 301.3 139.5 302.9 134.1 305.3C133.4 305.6 134.4 307.6 134.5 307.9C136 310.7 137.5 313.5 139.1 316.2C139.8 317.5 140.9 318.9 139.3 320C138.3 320.7 136.7 320.7 135.6 320.8C129.2 321.4 122.8 320.8 116.6 319.2C117.3 320.6 118 322.1 118.8 323.5C122.5 318.5 125.3 312.4 121.9 306.5C120.4 303.9 118.1 301.8 114.9 301.7C111.6 301.5 108.4 302.9 105.5 304.3C105 304.6 105.5 306 105.7 306.3C106.4 308.2 107.1 310.1 107.9 312C108.2 312.9 108.6 313.8 108.9 314.7C109.2 315.5 110.1 317 109.7 317.9C109 319.3 105.8 319.1 104.6 319.2C102.5 319.3 100.4 319.3 98.2001 319C96.6001 318.8 94.7001 318.7 93.2001 318.1C92.5001 317.8 91.8001 316.9 92.6001 318.4C93.3001 319.8 93.0001 319 93.3001 318.2C93.6001 317.4 94.2001 316.7 94.8001 316C97.6001 312.6 100.5 309.3 103.3 306C104.1 305 102.4 301.8 101.3 301.5C89.4001 298.6 76.3001 304.9 71.2001 316.1C70.3001 317.3 73.0001 321 73.4001 320.2Z" fill="white"/>
</g>
<mask id="mask8_201_675" style="mask-type:luminance" maskUnits="userSpaceOnUse" x="51" y="51" width="398" height="398">
<path d="M250 448.5C359.629 448.5 448.5 359.629 448.5 250C448.5 140.371 359.629 51.5 250 51.5C140.371 51.5 51.5 140.371 51.5 250C51.5 359.629 140.371 448.5 250 448.5Z" fill="white"/>
</mask>
<g mask="url(#mask8_201_675)">
<path d="M86.5001 348.1C90.9001 344.1 96.0001 341.1 101.7 339.3C104.3 338.4 107.1 337.7 109.8 337.6C110.6 337.6 113.9 337.5 114.1 338.7C114.3 338.2 114.5 337.8 114.7 337.3C111.5 339.4 108.6 341.8 106 344.6C105.1 345.5 105.4 346.8 106.2 347.7C109.9 352.1 116.7 353.6 121.6 350.4C126.5 347.2 127.4 340.2 124.7 335.3C124.7 336 124.8 336.8 124.8 337.5C126 335.8 129.3 335.5 130.5 337.4C132.2 340 129.7 343.5 127.6 345C126.2 346 127.5 348.5 128.8 348.9C137.7 352.1 147.6 353.5 157 352.1C160.7 351.5 163.8 349.3 163.4 345.2C163.1 341.4 160.7 337.8 158 335.2C157.9 336.3 157.8 337.5 157.7 338.6C164.1 336.9 171.1 336.3 177.7 337.4C180.2 337.8 181.6 338.7 181.1 341.4C180.6 343.9 179 346.3 177.4 348.3C176.2 349.7 177.2 351.4 178.6 352.2C186 356.7 195.9 357.4 203.6 353.3C207 351.5 208.7 348.6 207.1 344.9C206.4 343.4 205.4 342 204.3 340.7C203.5 339.6 202.4 338.4 202.1 337C201.8 337.6 201.4 338.1 201.1 338.7C207.4 336.7 214.2 336.4 220.7 337.8C222.2 338.1 223.8 338.5 225.2 339.1C225.7 339.3 226.7 339.5 227.1 339.9C227.4 340.1 227.4 340.1 227.2 340.1C227.1 340.5 226.9 341 226.7 341.4C225.3 344.7 223.6 347.8 222.1 351C221.5 352.2 222.3 354.1 223.6 354.5C227.9 356.1 232.3 357.2 236.8 357.7C241 358.1 245.9 358.5 250 357.3C253.6 356.3 255.3 352.7 255.2 349.2C255.2 345 252.6 341.5 250.2 338.3C250.1 339.4 250 340.6 249.9 341.7C253 340.1 257.8 337.4 261 339.9C263.5 341.8 260.7 345.6 260.6 348.2C260.5 352.3 264.1 354 267.7 353.8C271.8 353.6 276.6 352.9 280.3 351.2C283.2 349.8 283.6 346.9 282 344.3C281.3 343.2 280.4 342.3 279.6 341.2C279.5 341 279.3 340.8 279.2 340.6C279.1 340.4 278.9 341 279 340.9C279.3 340.6 280.5 340.5 280.9 340.4C284.6 339.5 289.3 338.8 292.4 341.6C293.4 342.5 294.1 343.6 294.1 345C294.1 347.1 292.9 348.9 293.5 351C294.5 354.4 297.8 355.8 301 356.2C305.5 356.8 310.1 357 314.6 356.7C320 356.4 327.9 353.2 325.4 346.3C324.4 343.5 322.1 341.8 320.4 339.4C319.9 338.7 319.8 338.5 320.4 337.9C321 337.3 322.1 337.1 323 337C324.3 336.7 325.6 336.5 327 336.3C329.1 336.1 331.2 336.1 333.2 336.2C334.3 336.3 335.4 336.5 336.5 336.7C337 336.8 338.7 336.9 338.9 337.4C339.1 337.8 338.7 338.9 338.5 339.4C338 340.7 337.3 341.9 336.8 343.2C335.6 346 334.9 350.6 338.5 352C342.1 353.4 346.8 353.5 350.2 351.8C356.5 348.7 357.3 338.8 350.4 335.6C350.8 336.9 351.2 338.2 351.6 339.5C354.6 337.1 359.4 338.1 361.5 341.2C362.8 343.1 362.2 345 362 347.1C361.7 350.1 363 352.8 365.9 354.1C371 356.3 376.7 353.3 379.2 348.7C382.3 343 380.5 336.2 377.8 330.7C377.4 331.7 377 332.7 376.6 333.6C379.6 333 382.7 332.7 385.7 332.5C388.6 332.4 392.1 332.1 395 332.8C395.2 332.9 395.8 333.2 395.6 332.9C395.4 332.5 395.7 332.8 395.5 333C395.1 333.5 394.9 334.4 394.6 335C393.7 336.5 392.7 337.9 392 339.5C391.3 341.2 391.1 343.5 392.3 345C393.7 346.7 396.4 347.8 398.6 348.1C403 348.8 407.5 347.3 410.1 343.6C413.2 339.2 412.5 333.4 409.6 329.2C409.7 330.2 409.7 331.3 409.8 332.3C411.6 331.1 414.1 332.2 415 333.9C416.6 336.8 415.4 340.8 414.7 343.7C414.4 345.1 415.6 346.6 416.9 346.9C424.3 348.8 432.4 346.4 437.4 340.6C439.1 338.7 435.8 334.9 434.2 336.8C429.9 341.8 423.1 344.1 416.7 342.5C417.4 343.6 418.2 344.7 418.9 345.7C420 340.8 421 335 417.4 330.8C414.8 327.6 410.1 325.8 406.4 328.4C405.3 329.2 406 330.7 406.6 331.5C408.7 334.5 407.7 339.2 405 341.6C402.1 344.1 397.6 344.3 394.6 341.9C395 342.4 395.3 343 395.7 343.5C395.2 341.6 397.5 339.2 398.4 337.6C399.7 335.4 400.3 332.9 398.6 330.6C396.4 327.6 392.1 327.7 388.7 327.6C384.1 327.5 379.6 327.9 375.1 328.7C373.6 329 373.3 330.4 373.9 331.6C376.2 336.4 377.7 342.9 373.6 347.2C372 348.9 369.5 350.2 367.1 349.7C365.7 349.4 365.9 348.9 366.1 347.6C366.3 346.4 366.5 345.2 366.4 344C365.8 335.8 354.7 329.8 348 335.2C346.6 336.3 347.9 338.6 349.2 339.1C351.6 340.2 350.6 344.1 349.2 345.6C346.4 348.7 341.5 348.1 337.9 347C338.5 347.5 339.2 348 339.8 348.5C339.1 347 340.8 344.4 341.4 343.1C342.3 341.1 343.2 338.9 342.6 336.7C341.7 333.7 339 332.4 336.1 331.8C332.4 331 328.6 330.8 324.8 331.3C321.9 331.6 317.5 331.9 315.8 334.6C314.6 336.5 315.3 338.8 316.4 340.5C317.6 342.4 319.6 343.9 320.6 345.9C321.7 348 319.8 349.6 318 350.4C315.2 351.7 312.1 351.7 309 351.7C305.6 351.7 301.7 351.8 298.4 350.8C296.9 350.4 296.9 350.2 297.2 348.7C297.6 347.1 297.9 345.6 297.7 344C297.2 341 295.2 338.4 292.8 336.7C290.1 334.8 286.9 334.2 283.6 334.4C281.8 334.5 280.1 334.8 278.3 335.2C276.7 335.6 274.8 335.6 274.4 337.5C273.9 339.9 275.4 341.9 276.8 343.6C277.1 343.9 278.1 344.9 278 345.3C277.9 346.1 275.8 346.5 275.2 346.7C273.1 347.3 271 347.8 268.9 348.1C268 348.2 267 348.3 266 348.4C265.6 348.4 265.2 348.5 264.8 348.5C264.5 348.5 264.3 348.5 264 348.5C264.2 349 264.3 349.2 264.3 348.9C264.3 347.5 265 346.1 265.4 344.8C265.8 343.2 266 341.6 265.4 340C264.4 336.9 261.3 334.5 258.1 333.9C254.1 333.1 250.3 334.9 246.9 336.7C245.5 337.4 245.8 339 246.6 340.1C248.3 342.3 250.3 344.9 250.2 347.8C250.1 351.1 247.7 352.3 244.7 352.6C237.6 353.2 230.4 352.2 223.7 349.8C224.2 351 224.7 352.2 225.2 353.3C226.2 351.2 227.2 349.1 228.2 347C229.1 345.1 230.5 343 230.7 340.8C231.1 336.5 226.7 334.7 223.3 333.6C215.1 331 206.2 331.1 198 333.6C197.3 333.8 196.9 334.6 197 335.3C197.5 338.4 199.3 340.6 201.1 343.1C201.6 343.8 202.5 344.7 202.6 345.7C202.8 347.2 201.1 348 200 348.5C193.2 351.8 185.1 351.3 178.7 347.4C179.1 348.7 179.5 350 179.9 351.3C182.1 348.6 184.3 345.5 184.8 342C185.3 338.4 183.6 335.1 180.4 333.4C176.9 331.6 172.1 331.6 168.2 331.6C163.6 331.6 159.1 332.3 154.7 333.5C153.2 333.9 153.6 336.1 154.4 336.9C156.1 338.6 158.3 341.1 158.3 343.7C158.4 347.2 153.5 347 151.1 347.2C143.6 347.7 136 346.6 128.9 344.1C129.3 345.4 129.7 346.7 130.1 348C134.5 344.9 136.2 338.2 132.4 333.9C129.3 330.4 123.1 329.5 120.2 333.7C119.8 334.3 120 335.3 120.3 335.9C122.1 339.1 121 343.5 118 345.6C115.1 347.7 110.6 347.3 108.3 344.5C108.4 345.5 108.4 346.6 108.5 347.6C111.1 344.8 114 342.4 117.2 340.3C117.6 340.1 117.8 339.3 117.8 338.9C116.7 331.5 108.2 331.9 102.6 333.2C95.2001 334.9 88.3001 338.6 82.7001 343.6C81.4001 346 84.6001 349.8 86.5001 348.1Z" fill="white"/>
</g>
<mask id="mask9_201_675" style="mask-type:luminance" maskUnits="userSpaceOnUse" x="51" y="51" width="398" height="398">
<path d="M250 448.5C359.629 448.5 448.5 359.629 448.5 250C448.5 140.371 359.629 51.5 250 51.5C140.371 51.5 51.5 140.371 51.5 250C51.5 359.629 140.371 448.5 250 448.5Z" fill="white"/>
</mask>
<g mask="url(#mask9_201_675)">
<path d="M120 376.9C123.4 375.6 126.7 374.4 130.1 373.1C131.3 372.7 132.5 372.2 133.8 372.1C134 372.1 134.2 372.1 134.4 372.1C134 372.1 134.1 371.8 134.1 372.1C134.1 372.4 134.6 373 134.7 373.4C135 375.3 133.8 377.4 133.1 379.2C132.3 381.1 131.7 383.3 132.6 385.3C133.1 386.4 134.7 387.1 135.9 387C139.4 387 142.9 386.7 146.3 386.1C149.5 385.5 152.8 384.9 155.7 383.5C158.1 382.3 160.2 380.6 161 378C161.7 375.6 161.1 373.1 159.3 371.4C159.1 371.9 159 372.4 158.8 372.9C167.6 371.6 176.6 373.3 184.3 377.8C184 377.4 183.7 376.9 183.4 376.5C182 379.5 180.7 382.5 179.3 385.6C178.9 386.5 180.9 387.3 181.3 387.4C188.6 389.6 196.4 389.8 203.8 387.8C206.4 387.1 211.3 386 211.5 382.7C211.6 380.9 210.7 378.9 210.1 377.1C209.5 375.1 208.9 373.1 208.3 371.1C208 371.4 207.7 371.7 207.4 371.9C211.8 371.2 217.4 371.5 220.7 374.9C222.3 376.6 223 378.7 222.1 380.9C221.3 382.7 219.9 384.7 221.5 386.5C223.1 388.4 225.9 388.7 228.1 389C230.5 389.4 233 389.6 235.5 389.4C239.7 389.2 244 387.6 246.2 383.8C248.2 380.3 248 375.8 244.7 373.2C244.7 373.7 244.7 374.1 244.7 374.6C249.9 372.2 256 371.5 261.5 373.2C262.2 373.4 264.7 374.1 264.8 374.5C265.1 375.2 262.8 377.7 262.3 378.4C260.3 381.3 258.2 384.1 256.2 387C255.2 388.4 258.5 389.2 259.3 389.3C264.6 389.9 270 389.9 275.3 389C277.9 388.6 280.5 388 283 387.2C285.1 386.5 287.2 385.8 289 384.5C290.5 383.4 291.7 381.9 291.6 380C291.5 378.1 290.2 376.7 289.2 375.2C288.8 374.7 288.2 373.7 288.4 372.9C288.7 372.2 290.1 371.8 290.7 371.7C292.1 371.5 293.3 371.9 294.2 373C296.9 376.4 294.6 381.9 290.7 383.1C289.9 383.4 290.2 384.1 290.7 384.5C295.2 389.1 305.4 389.2 306.7 381.5C307 380 306.6 378.5 306.4 377C306.2 375.5 306.1 373.7 307.9 373.2C311.7 372.2 316.3 373 319.9 374.2C319.2 373.6 318.5 373 317.9 372.4C315.9 376.7 313.8 380.9 311.8 385.2C311.5 385.9 312.8 386.6 313.2 386.8C318.6 389.1 325.1 389 329.8 385.3C334.3 381.9 336 375.7 334.4 370.4C334.2 370.6 334.1 370.9 333.9 371.1C337.3 370.2 342.6 368.5 344.5 372.7C345.9 376 342.5 379.6 344.3 382.8C346.4 386.5 352 386.2 355.6 385.8C359.2 385.4 363.2 384.1 365.4 381C367.6 377.8 367.6 373.6 364.7 370.9C364.7 371.4 364.7 371.8 364.7 372.3C367.3 371.6 370.7 370.4 373.4 371.4C374.4 371.7 375.2 372.5 375.7 373.3C376.4 374.4 376.4 375.5 376.7 376.7C377.5 379.5 380.9 380.2 383.5 380.5C385.8 380.7 388.2 380.4 390.4 379.6C394.6 378 398.3 374.6 399.6 370.2C400.2 368.4 400 364.5 402.4 364C403.9 363.7 405.7 365.8 406.4 366.9C407.9 369 409.2 371.3 411.2 373.1C413.4 375 416.3 376.1 419.2 375.8C420.2 375.7 420.3 375 419.7 374.3C418.9 373.5 417.4 373.1 416.3 373.2C414.8 373.4 413.2 370.7 412.4 369.5C411 367.5 409.8 365.5 407.8 364C404.5 361.5 397.4 359.2 395.6 364.6C394.8 367 394.7 369.3 393.4 371.5C392.2 373.4 390.4 375.1 388.4 376.2C386.4 377.3 384 378 381.8 377.8C381.6 377.8 381.4 377.7 381.2 377.7C381.1 377.7 381.1 377.7 381 377.7C381.5 378.1 381.7 378.1 381.5 377.7C381.6 377.3 381.2 376.2 381.1 375.8C380.8 374.6 380.2 373.5 379.4 372.6C374.6 367.2 367 368.2 360.8 369.8C360 370 360.4 370.8 360.8 371.2C364 374.3 361.3 379.6 358.1 381.5C356 382.7 353.6 383.1 351.2 383.3C350.6 383.3 350 383.4 349.4 383.3C349.2 383.3 348.9 383.3 348.7 383.3C349 383.5 349.1 383.5 348.9 383.3C348.5 382.3 348.5 381.5 348.7 380.4C349.1 378.4 350 376.3 349.4 374.2C348.8 372.1 347.2 370.5 345.4 369.4C340.6 366.4 335.2 367.3 330 368.7C329.7 368.8 329.4 369.1 329.5 369.4C330.8 373.8 329.8 378.7 326.6 382C323.8 384.9 318.9 386.7 315 385C315.5 385.5 315.9 386.1 316.4 386.6C318.4 382.3 320.5 378.1 322.5 373.8C322.9 372.9 320.9 372.1 320.5 372C316.8 370.8 313 370.2 309.1 370.2C306.5 370.2 301.7 370.1 301.3 373.6C301.2 375 301.5 376.3 301.7 377.6C301.9 379.1 301.7 380.6 301 382C299.7 384.4 296.6 386.1 294.4 383.9C294.4 384.4 294.4 384.8 294.4 385.3C298.3 384 300.8 379.7 299.8 375.7C298.7 371.2 293.5 368.8 289.2 368.8C287.6 368.8 284.2 369.2 283.6 370.9C282.9 372.8 284.8 374.8 285.7 376.2C289.3 381.4 281.5 383.9 277.8 385C271.1 386.9 264.2 387.3 257.3 386.5C258.3 387.3 259.4 388 260.4 388.8C263 385.1 265.6 381.5 268.3 377.8C269.3 376.4 270 375.1 268.5 373.8C267.1 372.5 265 371.9 263.2 371.2C256 368.6 247.7 368.8 240.7 371.9C240 372.2 240.1 372.9 240.7 373.3C243.4 375.4 242.8 379.4 241.3 382C239.2 385.7 234.7 386.7 230.8 386.5C229.8 386.5 228.9 386.4 227.9 386.3C227.3 386.2 226.7 386.1 226.2 386C226 386 225.7 385.9 225.5 385.9C224.7 385.7 225.5 386 225.6 385.9C225.8 385.5 225.7 384.9 225.8 384.4C226 384 226.2 383.6 226.4 383.1C226.9 382.2 227.3 381.2 227.4 380.2C227.7 376.1 223.8 372.9 220.5 371.2C215.7 368.8 209.8 368.1 204.6 369C204.2 369.1 203.5 369.3 203.7 369.8C204.7 373 205.8 376.3 206.6 379.5C207 381.3 206.6 382.4 205 383.2C203.6 383.9 202.1 384.4 200.6 384.8C194.6 386.6 188.1 386.6 182 384.8C182.7 385.4 183.4 386 184 386.6C185.4 383.6 186.7 380.6 188.1 377.5C188.3 377 187.5 376.4 187.2 376.2C177.8 370.6 166.7 368.2 155.9 369.7C154.9 369.8 154.7 370.5 155.4 371.2C156.8 372.6 156.6 374.9 155.9 376.6C155 378.8 152.7 380.2 150.6 381C145.4 383 139.5 383.7 134 383.8C135.1 384.4 136.2 385 137.3 385.5C135.1 380.7 142.4 375.5 137.9 371.1C135.3 368.6 131.3 368.6 128.1 369.5C124.1 370.6 120.1 372.4 116.2 373.9C115.1 374.3 116 375.2 116.6 375.6C117.5 376.8 119 377.3 120 376.9Z" fill="white"/>
</g>
<mask id="mask10_201_675" style="mask-type:luminance" maskUnits="userSpaceOnUse" x="51" y="51" width="398" height="398">
<path d="M250 448.5C359.629 448.5 448.5 359.629 448.5 250C448.5 140.371 359.629 51.5 250 51.5C140.371 51.5 51.5 140.371 51.5 250C51.5 359.629 140.371 448.5 250 448.5Z" fill="white"/>
</mask>
<g mask="url(#mask10_201_675)">
<path d="M167.7 411.6C167.2 407.6 166.7 403.2 168.3 399.3C168.9 397.8 169.9 396.4 171.2 395.4C172.1 394.7 173.2 393.9 174.3 394.2C173.9 394 173.5 393.8 173.2 393.6C175.4 397.3 170.8 401.4 171.9 405.3C172.6 408.1 175.9 408.6 178.3 409C181.8 409.6 185.5 409.9 189 408.9C191.7 408.1 194 406.5 195.1 403.8C195.5 402.7 195.7 401.5 195.3 400.4C194.9 399.1 193.8 398 193.6 396.6C193.6 396.4 193.5 396.2 193.6 396C193.6 395.9 193.7 395.8 193.7 395.7C194.1 395.3 193.9 395.2 193.1 395.5C193.4 395.8 195 395.9 195.5 396C197.2 396.4 198.8 396.8 200.5 397.2C203.9 398.1 207.3 399.2 210.7 400.4C212.6 401.1 214.5 401.8 216.4 402.6C217.6 403.1 220.5 403.7 219.6 405.7C219.2 406.5 218.5 407.1 217.9 407.7C217.1 408.6 216.3 409.4 215.5 410.3C214 411.9 212.6 413.5 211.1 415.1C210.4 415.8 212.6 416.3 212.8 416.3C221.9 417.3 231.2 417.5 240.3 416.4C243.7 416 247.3 414.9 248 411.1C248.6 408.1 247.3 404.8 246.1 402.2C245.9 402.5 245.7 402.8 245.4 403.1C247.8 402.3 250.2 402.3 252.7 402.7C255.2 403 257.7 403.5 260.1 404.2C262 404.8 263.9 405.9 264.4 407.9C264.8 409.3 264.6 411.6 263 412.1C262.4 412.3 262 412.8 262.6 413.2C266.8 416.5 274.1 416.6 278.3 413.3C282.3 410.2 283.1 404.4 280.3 400.2C279.9 400.5 279.5 400.9 279.1 401.2C284 400.3 289 400.5 293.7 401.9C294.6 402.2 295.6 402.5 296 403.5C296.4 404.6 295.8 405.8 295.1 406.7C294 408.3 292.4 409.8 292.5 411.9C292.7 414.2 295.2 414.8 297 415C299.5 415.3 302 415.4 304.4 415.4C309 415.4 314 414.6 317.6 411.6C320.9 408.8 322.9 404.4 321.1 400.2C321.1 400.4 321.1 400.5 321.1 400.7C321.9 399.9 323.2 399 324.4 399.2C325.7 399.5 326.8 400.6 327.3 401.7C328.6 404.3 327.7 407.9 325 409.2C324.6 409.4 324.6 409.9 325 410.1C329.2 412.3 335.1 412.4 339.1 409.5C342.7 406.9 343.9 402.3 342.4 398.2C342 398.5 341.6 398.9 341.2 399.2C344.5 398.7 348.2 397.9 351.1 400.1C353.4 401.9 354.8 405.2 353.3 407.9C352.7 408.9 355.3 409.1 355.7 409.1C360.5 409.2 365.2 408.4 369.6 406.5C370.5 406.1 370.5 405.6 369.6 405.2C368.6 404.8 367 404.7 366.1 405.1C362.8 406.5 359.4 407.3 355.8 407.2C356.6 407.6 357.4 408 358.2 408.4C360.2 404.8 357.9 400.6 354.7 398.6C350 395.8 344 396.7 338.8 397.5C338.3 397.6 337.4 397.9 337.6 398.5C338.6 401.4 338 404.7 336.1 407.1C334.4 409.1 331.8 410.3 329.3 409C329.3 409.3 329.3 409.6 329.3 409.9C333.2 407.9 334 402.2 330.8 399.3C327.1 395.8 319.8 396.3 316.2 399.8C316.1 400 316.1 400.1 316.2 400.3C317.7 403.8 316 407.7 313.4 410.1C310.2 413 305.8 413.3 301.7 413.1C300.8 413.1 299.8 413 298.9 412.9C297.9 412.8 297.4 412.6 297.4 411.5C297.3 409.5 299.1 408.1 300 406.6C301.1 404.9 301.4 402.9 299.6 401.5C297.9 400.2 295.4 399.8 293.4 399.4C287.8 398.2 282 398.2 276.4 399.3C276 399.4 274.8 399.7 275.2 400.3C277.3 403.4 277.2 407.7 274.9 410.7C273.9 412 272.4 413.1 270.7 413.3C269.2 413.5 267.8 412.8 266.6 411.9C266.5 412.3 266.3 412.7 266.2 413C268.5 412.2 269.6 410 269.1 407.6C268.5 404.8 265.8 403.2 263.2 402.3C259.9 401.2 256.4 400.6 253 400.2C249.2 399.7 245.2 399.9 241.6 401.1C241.2 401.2 240.7 401.5 240.9 402C242 404.4 243 407.1 242.7 409.8C242.6 411 242.1 412.2 241.2 413C240 414 238.3 414 236.8 414.1C229.1 414.8 221.4 414.8 213.8 413.9C214.4 414.3 215 414.7 215.5 415.1C217.2 413.2 219 411.3 220.7 409.4C221.9 408.1 224.5 406.2 224.2 404.2C223.9 402.3 221.3 401.6 219.8 401C217.6 400.1 215.5 399.3 213.3 398.5C208.8 396.9 204.2 395.5 199.6 394.4C197.3 393.8 194.9 393.1 192.6 393.1C191 393.1 188.1 393.5 188.2 395.7C188.2 397.5 189.9 398.8 190.1 400.6C190.3 402.3 189.5 403.9 188.4 405.2C187.1 406.6 185.4 407.2 183.5 407.2C182.5 407.2 181.6 407.1 180.6 406.9C179.7 406.8 178.6 406.7 177.8 406.4C175.2 405.2 176.9 401.2 177.6 399.3C178 398 178.5 396.6 178.5 395.2C178.5 394.6 178.4 394 178.1 393.5C177.7 392.5 176.9 392.3 175.9 392.1C171.4 391.2 166.6 392.9 164 396.8C161.2 401 161.8 406.4 162.4 411.2C162.8 412.9 167.8 412.8 167.7 411.6Z" fill="white"/>
</g>
<mask id="mask11_201_675" style="mask-type:luminance" maskUnits="userSpaceOnUse" x="51" y="51" width="398" height="398">
<path d="M250 448.5C359.629 448.5 448.5 359.629 448.5 250C448.5 140.371 359.629 51.5 250 51.5C140.371 51.5 51.5 140.371 51.5 250C51.5 359.629 140.371 448.5 250 448.5Z" fill="white"/>
</mask>
<g mask="url(#mask11_201_675)">
<path d="M181.9 438.4C184.9 434.8 189 432.5 193.6 431.9C195.5 431.7 197.9 431.6 199.7 432.3C200.6 432.7 200.7 433.7 200.8 434.6C200.9 435.8 200.9 437 201.3 438.1C203 442.7 209.2 442.6 213.1 441.7C216.2 441 219.3 440.1 222.4 439.3C223.8 438.9 225.3 438.6 226.7 438.2C228.1 437.8 229.8 437.6 231.1 436.9C232.6 436.1 233 434.7 232.7 433.2C232.4 431.5 231.9 429.9 231.4 428.2C230.4 424.9 229.4 421.5 228.1 418.3C226.9 418.9 225.6 419.5 224.4 420C228.8 421.5 233.8 423 237 426.6C239.6 429.6 241.1 434.6 238.6 438.1C237.5 439.6 239.3 440.6 240.7 440.7C245.5 441 251.5 440.8 254.9 436.9C257.6 433.8 258 428.8 254.5 426.1C254.1 427 253.7 427.9 253.3 428.8C256.3 428.1 259.4 427.6 262.5 427.5C264.1 427.4 265.7 427.4 267.3 427.5C268.4 427.6 269.9 427.5 270.9 428C272.6 428.8 271.2 430.9 270.6 432C269.6 433.7 268.3 435.5 268.4 437.6C268.4 438.3 268.9 438.8 269.6 439.1C272.7 440.2 275.9 440.9 279.1 441.1C282 441.3 285.6 441.4 288.3 440.1C290.4 439 291.3 436.9 290.4 434.7C289.6 432.7 287.8 431 287.5 428.8C287.4 429.1 287.3 429.3 287.1 429.6C289.4 427.3 292.6 428.2 293.8 431.1C294.5 432.8 294.4 434.3 293.8 436C293.1 438.1 293.4 440.1 295.6 441.1C297.5 441.9 299.8 441.8 301.8 441.6C303.7 441.4 305.7 440.9 307.4 440.2C309.3 439.4 311 438.4 312.6 437C314 435.8 315.6 434.3 316.3 432.6C317.4 430 315 428.1 313.4 426.4C311.5 424.3 309.6 422.3 307.7 420.2C307.2 421 306.7 421.8 306.1 422.6C308.5 422.1 311.3 421.6 313.7 422C314.7 422.2 315.7 422.5 316.4 423.3C317.5 424.4 317.8 425.9 318.3 427.3C320.8 433.4 329.5 435 334.3 430.7C336.7 428.5 337.7 425 336.8 421.8C336 422.5 335.1 423.1 334.3 423.8C338.8 424.1 343.3 424.7 347.7 425.8C349.5 426.2 351.5 426.5 353.1 427.4C353.8 427.8 355.9 429.2 355.1 430.3C353.5 432.5 358.2 433.8 359.4 432.1C360.7 430.2 360.3 428.2 358.7 426.6C356.8 424.7 354.4 423.9 351.9 423.3C346.2 421.7 340.3 420.8 334.4 420.5C333.3 420.4 331.5 421.1 331.9 422.5C332.7 425.1 331.4 428.8 328.6 429.7C327.5 430 326.3 429.8 325.3 429.1C323.8 428.2 323.2 426.7 322.7 425.1C320.2 417.7 311.2 418 304.9 419.4C303.9 419.6 302.2 420.6 303.3 421.8C305.6 424.3 307.8 426.7 310.1 429.2C310.5 429.7 311.2 430.2 311.5 430.8C311.8 431.5 311.3 432 310.9 432.5C310.2 433.5 309.3 434.4 308.3 435.2C306.4 436.7 304 437.8 301.6 438.2C301.1 438.3 300.6 438.3 300 438.4C299.7 438.4 298.4 438.5 298.1 438.3C298.3 438.5 298.2 438 298.2 437.7C298.3 437 298.6 436.4 298.8 435.8C300.4 430.3 295.8 425.3 290.4 425C287.7 424.8 284.6 425.7 282.7 427.7C281.2 429.4 283.9 432.7 284.7 434.2C285.1 434.9 285.7 436 285.4 436.8C285 437.9 283.3 437.8 282.4 437.8C278.9 438 275.3 437.5 271.9 436.3C272.3 436.8 272.7 437.3 273.1 437.8C272.9 435.5 274.9 433.7 275.8 431.7C277 429.2 276 426.7 273.5 425.5C270.5 424.1 266.5 424.2 263.3 424.3C259.4 424.4 255.6 424.9 251.8 425.8C250.5 426.1 249.1 427.4 250.6 428.5C252.8 430.2 251.8 433.8 250.2 435.5C247.8 438 243.7 437.8 240.6 437.6C241.3 438.5 242 439.3 242.7 440.2C245.9 435.8 244.9 430 241.7 425.9C238.1 421.3 232.2 419.3 226.9 417.5C225.8 417.1 222.4 417.2 223.2 419.2C224.2 422 225.2 424.9 226.1 427.7C226.5 429.1 226.9 430.4 227.2 431.8C227.4 432.5 227.6 433.1 227.7 433.8C227.8 434.6 227.8 434.5 227.1 434.7C224.1 435.5 221.1 436.2 218.2 437C215.6 437.7 213 438.5 210.4 438.9C209 439.1 207.3 439.4 206.4 438.2C205.2 436.6 206 434.1 205.2 432.2C204.1 429.8 201.2 429.1 198.8 428.8C196.4 428.5 193.9 428.5 191.4 428.9C186.1 429.8 181 432.5 177.5 436.7C175.9 438.7 180.6 440 181.9 438.4Z" fill="white"/>
</g>
</g>
<defs>
<clipPath id="clip0_201_675">
<rect width="500" height="500" fill="white"/>
</clipPath>
</defs>
</svg>
