<svg width="500" height="500" viewBox="0 0 500 500" fill="none" xmlns="http://www.w3.org/2000/svg">
<mask id="mask0_201_715" style="mask-type:luminance" maskUnits="userSpaceOnUse" x="51" y="51" width="398" height="398">
<path d="M250 448.5C359.629 448.5 448.5 359.629 448.5 250C448.5 140.371 359.629 51.5 250 51.5C140.371 51.5 51.5 140.371 51.5 250C51.5 359.629 140.371 448.5 250 448.5Z" fill="white"/>
</mask>
<g mask="url(#mask0_201_715)">
<path d="M242.5 25.8001C244.2 53.0001 245.1 80.2001 245.4 107.4C245.5 115 245.5 122.7 245.5 130.3C245.5 131.2 250.4 130.8 250.4 129.5C250.5 102.3 249.9 75.0001 248.6 47.8001C248.2 40.2001 247.8 32.5001 247.4 24.9001C247.4 24.0001 242.4 24.6001 242.5 25.8001Z" fill="white"/>
</g>
<mask id="mask1_201_715" style="mask-type:luminance" maskUnits="userSpaceOnUse" x="51" y="51" width="398" height="398">
<path d="M250 448.5C359.629 448.5 448.5 359.629 448.5 250C448.5 140.371 359.629 51.5 250 51.5C140.371 51.5 51.5 140.371 51.5 250C51.5 359.629 140.371 448.5 250 448.5Z" fill="white"/>
</mask>
<g mask="url(#mask1_201_715)">
<path d="M246.6 158.1C247.2 160.2 247.5 162.3 247.7 164.4C247.8 165 247.8 166.3 247.8 167.2C247.8 168.3 247.7 169.3 247.6 170.4C247.5 171.6 248.5 173 249.7 173.3C250.9 173.6 251.9 172.9 252 171.7C252.4 167.2 252 162.6 250.8 158.2C250.5 157.1 249.5 155.8 248.2 155.8C247.2 155.8 246.3 156.9 246.6 158.1Z" fill="white"/>
</g>
<mask id="mask2_201_715" style="mask-type:luminance" maskUnits="userSpaceOnUse" x="51" y="51" width="398" height="398">
<path d="M250 448.5C359.629 448.5 448.5 359.629 448.5 250C448.5 140.371 359.629 51.5 250 51.5C140.371 51.5 51.5 140.371 51.5 250C51.5 359.629 140.371 448.5 250 448.5Z" fill="white"/>
</mask>
<g mask="url(#mask2_201_715)">
<path d="M248.3 194C248 212.9 247.9 231.9 247.9 250.8C247.9 269.7 248.1 288.7 248.4 307.6C248.6 318.2 248.8 328.9 249.1 339.5C249.1 340.5 250.1 341.5 250.8 342.1C251 342.2 252.7 343.6 252.6 342.8C252.1 323.9 251.8 304.9 251.6 286C251.4 267.1 251.4 248.1 251.5 229.2C251.6 218.6 251.7 207.9 251.9 197.3C251.9 196.3 250.8 195.3 250.2 194.7C250 194.6 248.3 193.2 248.3 194Z" fill="white"/>
</g>
<mask id="mask3_201_715" style="mask-type:luminance" maskUnits="userSpaceOnUse" x="51" y="51" width="398" height="398">
<path d="M250 448.5C359.629 448.5 448.5 359.629 448.5 250C448.5 140.371 359.629 51.5 250 51.5C140.371 51.5 51.5 140.371 51.5 250C51.5 359.629 140.371 448.5 250 448.5Z" fill="white"/>
</mask>
<g mask="url(#mask3_201_715)">
<path d="M250.3 368.3C250.8 385.5 251.4 402.8 251.9 420C251.9 421 253.2 421.9 254 422.3C254.4 422.5 256.2 423.3 256.2 422.2C255.7 405 255.1 387.7 254.6 370.5C254.6 369.5 253.3 368.6 252.5 368.2C252.1 368 250.3 367.3 250.3 368.3Z" fill="white"/>
</g>
<mask id="mask4_201_715" style="mask-type:luminance" maskUnits="userSpaceOnUse" x="51" y="51" width="398" height="398">
<path d="M250 448.5C359.629 448.5 448.5 359.629 448.5 250C448.5 140.371 359.629 51.5 250 51.5C140.371 51.5 51.5 140.371 51.5 250C51.5 359.629 140.371 448.5 250 448.5Z" fill="white"/>
</mask>
<g mask="url(#mask4_201_715)">
<path d="M255.8 439.5C255.8 445.8 255.8 452 255.8 458.3C255.8 459.2 257.4 458.6 257.8 458.5C258.3 458.3 260.4 457.5 260.4 456.7C260.4 450.4 260.4 444.2 260.4 437.9C260.4 437 258.8 437.6 258.4 437.7C257.9 437.9 255.8 438.7 255.8 439.5Z" fill="white"/>
</g>
<mask id="mask5_201_715" style="mask-type:luminance" maskUnits="userSpaceOnUse" x="51" y="51" width="398" height="398">
<path d="M250 448.5C359.629 448.5 448.5 359.629 448.5 250C448.5 140.371 359.629 51.5 250 51.5C140.371 51.5 51.5 140.371 51.5 250C51.5 359.629 140.371 448.5 250 448.5Z" fill="white"/>
</mask>
<g mask="url(#mask5_201_715)">
<path d="M248.6 45.2998C249.8 53.0998 251 60.9998 252.2 68.7998C252.5 70.6998 257.5 70.6998 257.2 69.0998C256 61.2998 254.8 53.3998 253.6 45.5998C253.3 43.5998 248.4 43.5998 248.6 45.2998Z" fill="white"/>
</g>
<mask id="mask6_201_715" style="mask-type:luminance" maskUnits="userSpaceOnUse" x="51" y="51" width="398" height="398">
<path d="M250 448.5C359.629 448.5 448.5 359.629 448.5 250C448.5 140.371 359.629 51.5 250 51.5C140.371 51.5 51.5 140.371 51.5 250C51.5 359.629 140.371 448.5 250 448.5Z" fill="white"/>
</mask>
<g mask="url(#mask6_201_715)">
<path d="M255.9 90.3002C256.7 106.5 258.4 122.6 261.2 138.6C261.6 141.1 266.5 141.5 266 138.6C263.3 123 261.6 107.2 260.8 91.4002C260.7 90.1002 259.9 89.1002 258.6 88.9002C257.6 88.6002 255.9 89.0002 255.9 90.3002Z" fill="white"/>
</g>
<mask id="mask7_201_715" style="mask-type:luminance" maskUnits="userSpaceOnUse" x="51" y="51" width="398" height="398">
<path d="M250 448.5C359.629 448.5 448.5 359.629 448.5 250C448.5 140.371 359.629 51.5 250 51.5C140.371 51.5 51.5 140.371 51.5 250C51.5 359.629 140.371 448.5 250 448.5Z" fill="white"/>
</mask>
<g mask="url(#mask7_201_715)">
<path d="M264.3 166.3C264.3 168.6 264.3 171 264.3 173.3C264.3 173.7 264.9 173.9 265.1 174C265.6 174.2 266.3 174.2 266.9 174.1C267.5 174 268.1 173.8 268.6 173.5C268.9 173.3 269.2 173 269.2 172.6C269.2 170.3 269.2 167.9 269.2 165.6C269.2 165.2 268.6 165 268.4 164.9C267.9 164.7 267.2 164.7 266.6 164.8C266 164.9 265.4 165.1 264.9 165.4C264.5 165.6 264.3 165.9 264.3 166.3Z" fill="white"/>
</g>
<mask id="mask8_201_715" style="mask-type:luminance" maskUnits="userSpaceOnUse" x="51" y="51" width="398" height="398">
<path d="M250 448.5C359.629 448.5 448.5 359.629 448.5 250C448.5 140.371 359.629 51.5 250 51.5C140.371 51.5 51.5 140.371 51.5 250C51.5 359.629 140.371 448.5 250 448.5Z" fill="white"/>
</mask>
<g mask="url(#mask8_201_715)">
<path d="M267.9 194.9C268.3 225.7 270.3 256.5 273.9 287.1C274.9 295.8 276.1 304.4 277.4 313.1C277.5 313.9 282.3 312.7 282.1 311.5C277.6 281 274.6 250.3 273.3 219.5C272.9 210.8 272.7 202 272.6 193.3C272.6 192.7 267.8 193.6 267.9 194.9Z" fill="white"/>
</g>
<mask id="mask9_201_715" style="mask-type:luminance" maskUnits="userSpaceOnUse" x="51" y="51" width="398" height="398">
<path d="M250 448.5C359.629 448.5 448.5 359.629 448.5 250C448.5 140.371 359.629 51.5 250 51.5C140.371 51.5 51.5 140.371 51.5 250C51.5 359.629 140.371 448.5 250 448.5Z" fill="white"/>
</mask>
<g mask="url(#mask9_201_715)">
<path d="M278.3 327C278.6 330.4 278.9 333.8 279.2 337.2C279.3 338.3 280.6 338.4 281.5 338.2C282.1 338 282.8 337.8 283.2 337.3C283.5 337 284 336.5 283.9 336.1C283.6 332.7 283.3 329.3 283 325.9C282.9 324.8 281.6 324.7 280.7 324.9C280.1 325.1 279.4 325.3 279 325.8C278.7 326 278.3 326.5 278.3 327Z" fill="white"/>
</g>
<mask id="mask10_201_715" style="mask-type:luminance" maskUnits="userSpaceOnUse" x="51" y="51" width="398" height="398">
<path d="M250 448.5C359.629 448.5 448.5 359.629 448.5 250C448.5 140.371 359.629 51.5 250 51.5C140.371 51.5 51.5 140.371 51.5 250C51.5 359.629 140.371 448.5 250 448.5Z" fill="white"/>
</mask>
<g mask="url(#mask10_201_715)">
<path d="M282.2 355.9C283.8 366.1 285.4 376.3 287 386.5C287.2 387.8 291.3 390.3 291 388.3C289.4 378.1 287.8 367.9 286.2 357.7C286 356.5 281.9 354 282.2 355.9Z" fill="white"/>
</g>
<mask id="mask11_201_715" style="mask-type:luminance" maskUnits="userSpaceOnUse" x="51" y="51" width="398" height="398">
<path d="M250 448.5C359.629 448.5 448.5 359.629 448.5 250C448.5 140.371 359.629 51.5 250 51.5C140.371 51.5 51.5 140.371 51.5 250C51.5 359.629 140.371 448.5 250 448.5Z" fill="white"/>
</mask>
<g mask="url(#mask11_201_715)">
<path d="M287.9 399.7C292.4 420 297.5 440.1 303.3 460C304.1 462.7 309 461.7 308.1 458.9C302.3 439 297.2 418.8 292.7 398.6C292.1 395.9 287.2 396.8 287.9 399.7Z" fill="white"/>
</g>
<mask id="mask12_201_715" style="mask-type:luminance" maskUnits="userSpaceOnUse" x="51" y="51" width="398" height="398">
<path d="M250 448.5C359.629 448.5 448.5 359.629 448.5 250C448.5 140.371 359.629 51.5 250 51.5C140.371 51.5 51.5 140.371 51.5 250C51.5 359.629 140.371 448.5 250 448.5Z" fill="white"/>
</mask>
<g mask="url(#mask12_201_715)">
<path d="M240.1 42.7002C238.7 53.5002 236.6 64.2002 233.8 74.8002C233.5 75.9002 235.3 76.0002 236 75.9002C237 75.7002 238.4 75.2002 238.6 74.0002C241.3 63.4002 243.4 52.7002 244.9 41.9002C245.1 39.9002 240.3 40.8002 240.1 42.7002Z" fill="white"/>
</g>
<mask id="mask13_201_715" style="mask-type:luminance" maskUnits="userSpaceOnUse" x="51" y="51" width="398" height="398">
<path d="M250 448.5C359.629 448.5 448.5 359.629 448.5 250C448.5 140.371 359.629 51.5 250 51.5C140.371 51.5 51.5 140.371 51.5 250C51.5 359.629 140.371 448.5 250 448.5Z" fill="white"/>
</mask>
<g mask="url(#mask13_201_715)">
<path d="M229.2 102.5C224.9 118.4 221.1 134.3 217.7 150.4C216.7 155 215.8 159.6 215 164.3C214.5 167.1 219.3 166.6 219.7 164.4C222.7 148.3 226.3 132.2 230.3 116.3C231.5 111.7 232.7 107.2 233.9 102.6C234.6 99.9002 229.8 100.3 229.2 102.5Z" fill="white"/>
</g>
<mask id="mask14_201_715" style="mask-type:luminance" maskUnits="userSpaceOnUse" x="51" y="51" width="398" height="398">
<path d="M250 448.5C359.629 448.5 448.5 359.629 448.5 250C448.5 140.371 359.629 51.5 250 51.5C140.371 51.5 51.5 140.371 51.5 250C51.5 359.629 140.371 448.5 250 448.5Z" fill="white"/>
</mask>
<g mask="url(#mask14_201_715)">
<path d="M210.9 185.1C209.4 190.8 207.9 196.6 206.3 202.3C206.1 202.9 208.7 202.6 208.9 202.5C209.6 202.4 211 202.2 211.2 201.4C212.7 195.7 214.2 189.9 215.8 184.2C216 183.6 213.4 183.9 213.2 184C212.6 184.1 211.1 184.3 210.9 185.1Z" fill="white"/>
</g>
<mask id="mask15_201_715" style="mask-type:luminance" maskUnits="userSpaceOnUse" x="51" y="51" width="398" height="398">
<path d="M250 448.5C359.629 448.5 448.5 359.629 448.5 250C448.5 140.371 359.629 51.5 250 51.5C140.371 51.5 51.5 140.371 51.5 250C51.5 359.629 140.371 448.5 250 448.5Z" fill="white"/>
</mask>
<g mask="url(#mask15_201_715)">
<path d="M203 220.8C198.8 237.5 194.6 254.1 190.4 270.8C189.2 275.5 188 280.3 186.8 285C186.1 287.6 190.9 289.1 191.5 286.6C195.7 269.9 199.9 253.3 204.1 236.6C205.3 231.9 206.5 227.1 207.7 222.4C208.4 219.8 203.6 218.3 203 220.8Z" fill="white"/>
</g>
<mask id="mask16_201_715" style="mask-type:luminance" maskUnits="userSpaceOnUse" x="51" y="51" width="398" height="398">
<path d="M250 448.5C359.629 448.5 448.5 359.629 448.5 250C448.5 140.371 359.629 51.5 250 51.5C140.371 51.5 51.5 140.371 51.5 250C51.5 359.629 140.371 448.5 250 448.5Z" fill="white"/>
</mask>
<g mask="url(#mask16_201_715)">
<path d="M183.1 304.4C181.8 307.8 180.5 311.2 179.3 314.6C179.1 315 179.3 315.8 179.5 316.2C179.7 316.8 180 317.4 180.5 317.9C181.1 318.5 181.9 319 182.3 318C183.6 314.6 184.9 311.2 186.1 307.8C186.3 307.4 186.1 306.6 185.9 306.2C185.7 305.6 185.4 305 184.9 304.5C184.4 303.9 183.5 303.3 183.1 304.4Z" fill="white"/>
</g>
<mask id="mask17_201_715" style="mask-type:luminance" maskUnits="userSpaceOnUse" x="51" y="51" width="398" height="398">
<path d="M250 448.5C359.629 448.5 448.5 359.629 448.5 250C448.5 140.371 359.629 51.5 250 51.5C140.371 51.5 51.5 140.371 51.5 250C51.5 359.629 140.371 448.5 250 448.5Z" fill="white"/>
</mask>
<g mask="url(#mask17_201_715)">
<path d="M169.4 345.6C163.2 370.8 155.8 395.7 147.1 420.1C144.6 427 142 433.9 139.3 440.8C138.2 443.6 142.8 443 143.5 441C153.1 416.5 161.4 391.6 168.4 366.3C170.4 359.2 172.2 352.1 174 344.9C174.3 343.7 173 343.3 172.1 343.4C170.9 343.6 169.7 344.5 169.4 345.6Z" fill="white"/>
</g>
<mask id="mask18_201_715" style="mask-type:luminance" maskUnits="userSpaceOnUse" x="51" y="51" width="398" height="398">
<path d="M250 448.5C359.629 448.5 448.5 359.629 448.5 250C448.5 140.371 359.629 51.5 250 51.5C140.371 51.5 51.5 140.371 51.5 250C51.5 359.629 140.371 448.5 250 448.5Z" fill="white"/>
</mask>
<g mask="url(#mask18_201_715)">
<path d="M242.8 51.9998C239.8 69.0998 237.9 86.2998 236.9 103.6C236.8 104.7 237.8 105.7 238.7 106.3C239.1 106.6 241 107.4 241 106.3C242 88.9998 243.9 71.7998 246.9 54.6998C247.2 52.9998 243.2 50.1998 242.8 51.9998Z" fill="white"/>
</g>
<mask id="mask19_201_715" style="mask-type:luminance" maskUnits="userSpaceOnUse" x="51" y="51" width="398" height="398">
<path d="M250 448.5C359.629 448.5 448.5 359.629 448.5 250C448.5 140.371 359.629 51.5 250 51.5C140.371 51.5 51.5 140.371 51.5 250C51.5 359.629 140.371 448.5 250 448.5Z" fill="white"/>
</mask>
<g mask="url(#mask19_201_715)">
<path d="M233.2 124.6C230.9 145.8 228.7 167 226.4 188.2C226.1 191.1 230.8 189.9 231.1 187.5C233.4 166.3 235.6 145.1 237.9 123.9C238.2 121 233.5 122.2 233.2 124.6Z" fill="white"/>
</g>
<mask id="mask20_201_715" style="mask-type:luminance" maskUnits="userSpaceOnUse" x="51" y="51" width="398" height="398">
<path d="M250 448.5C359.629 448.5 448.5 359.629 448.5 250C448.5 140.371 359.629 51.5 250 51.5C140.371 51.5 51.5 140.371 51.5 250C51.5 359.629 140.371 448.5 250 448.5Z" fill="white"/>
</mask>
<g mask="url(#mask20_201_715)">
<path d="M222.6 211.7C222.8 215.7 222.6 219.7 222.1 223.7C222.1 224 222.6 224.6 222.8 224.7C223.2 225.1 223.8 225.6 224.3 225.9C224.7 226.1 226.1 227 226.2 226.2C226.7 222.2 226.9 218.2 226.7 214.2C226.7 213.9 226.2 213.4 226 213.2C225.6 212.8 225 212.3 224.5 212C224.3 211.8 222.6 210.9 222.6 211.7Z" fill="white"/>
</g>
<mask id="mask21_201_715" style="mask-type:luminance" maskUnits="userSpaceOnUse" x="51" y="51" width="398" height="398">
<path d="M250 448.5C359.629 448.5 448.5 359.629 448.5 250C448.5 140.371 359.629 51.5 250 51.5C140.371 51.5 51.5 140.371 51.5 250C51.5 359.629 140.371 448.5 250 448.5Z" fill="white"/>
</mask>
<g mask="url(#mask21_201_715)">
<path d="M218.7 254.3C216 272.8 212.9 291.2 209.3 309.5C208.3 314.7 207.2 320 206.1 325.2C205.9 326.4 210.6 327.7 210.8 326.9C214.7 308.6 218.1 290.3 221 271.8C221.8 266.5 222.7 261.2 223.4 255.9C223.6 254.8 218.8 253.5 218.7 254.3Z" fill="white"/>
</g>
<mask id="mask22_201_715" style="mask-type:luminance" maskUnits="userSpaceOnUse" x="51" y="51" width="398" height="398">
<path d="M250 448.5C359.629 448.5 448.5 359.629 448.5 250C448.5 140.371 359.629 51.5 250 51.5C140.371 51.5 51.5 140.371 51.5 250C51.5 359.629 140.371 448.5 250 448.5Z" fill="white"/>
</mask>
<g mask="url(#mask22_201_715)">
<path d="M204.9 337.4C203.5 345.6 202.1 353.7 200.7 361.9C200.5 363.1 201.1 364.4 202.2 365C203 365.5 204.5 365.5 204.7 364.3C206.1 356.1 207.5 348 208.9 339.8C209.1 338.6 208.5 337.3 207.4 336.7C206.5 336.2 205.1 336.2 204.9 337.4Z" fill="white"/>
</g>
<mask id="mask23_201_715" style="mask-type:luminance" maskUnits="userSpaceOnUse" x="51" y="51" width="398" height="398">
<path d="M250 448.5C359.629 448.5 448.5 359.629 448.5 250C448.5 140.371 359.629 51.5 250 51.5C140.371 51.5 51.5 140.371 51.5 250C51.5 359.629 140.371 448.5 250 448.5Z" fill="white"/>
</mask>
<g mask="url(#mask23_201_715)">
<path d="M194.9 386.3C192.7 404.5 189.8 422.7 186.3 440.7C185.3 445.9 184.2 451 183.1 456.1C182.9 457.2 184.8 456.9 185.3 456.7C186.3 456.4 187.5 455.7 187.8 454.7C191.7 436.7 194.9 418.6 197.5 400.5C198.2 395.3 198.9 390.1 199.6 384.9C199.8 383.2 195.1 384.7 194.9 386.3Z" fill="white"/>
</g>
<mask id="mask24_201_715" style="mask-type:luminance" maskUnits="userSpaceOnUse" x="51" y="51" width="398" height="398">
<path d="M250 448.5C359.629 448.5 448.5 359.629 448.5 250C448.5 140.371 359.629 51.5 250 51.5C140.371 51.5 51.5 140.371 51.5 250C51.5 359.629 140.371 448.5 250 448.5Z" fill="white"/>
</mask>
<g mask="url(#mask24_201_715)">
<path d="M252.8 46.4C255.1 51.7 257.3 57 259.6 62.3C261.7 67.3 263.8 72.5 264.4 78C264.5 78.7 266 79.1 266.6 79.3C266.8 79.4 269.1 80.1 269.1 79.8C268.5 74.4 266.5 69.3 264.4 64.3C262.1 58.9 259.8 53.4 257.5 48C257.2 47.3 255.4 46.8 254.8 46.6C254.4 46.4 252.5 45.9 252.8 46.4Z" fill="white"/>
</g>
<mask id="mask25_201_715" style="mask-type:luminance" maskUnits="userSpaceOnUse" x="51" y="51" width="398" height="398">
<path d="M250 448.5C359.629 448.5 448.5 359.629 448.5 250C448.5 140.371 359.629 51.5 250 51.5C140.371 51.5 51.5 140.371 51.5 250C51.5 359.629 140.371 448.5 250 448.5Z" fill="white"/>
</mask>
<g mask="url(#mask25_201_715)">
<path d="M270.7 96.5999C276.9 113.8 281.6 131.5 284.7 149.6C284.9 150.5 285.9 151.5 286.5 152.1C286.6 152.3 288.1 153.5 288.1 153.1C285 134.9 280.2 117 273.9 99.5999C273.5 98.5999 272.5 97.5999 271.7 96.8999C271.5 96.6999 270.3 95.6999 270.7 96.5999Z" fill="white"/>
</g>
<mask id="mask26_201_715" style="mask-type:luminance" maskUnits="userSpaceOnUse" x="51" y="51" width="398" height="398">
<path d="M250 448.5C359.629 448.5 448.5 359.629 448.5 250C448.5 140.371 359.629 51.5 250 51.5C140.371 51.5 51.5 140.371 51.5 250C51.5 359.629 140.371 448.5 250 448.5Z" fill="white"/>
</mask>
<g mask="url(#mask26_201_715)">
<path d="M286.6 164.9C288.4 170.5 289.9 176.3 291.1 182.1C291.4 183.4 292.4 184.2 293.8 184.2C294.9 184.2 296.3 183.3 296.1 182C294.9 175.8 293.3 169.7 291.4 163.7C290.5 161.2 285.7 162 286.6 164.9Z" fill="white"/>
</g>
<mask id="mask27_201_715" style="mask-type:luminance" maskUnits="userSpaceOnUse" x="51" y="51" width="398" height="398">
<path d="M250 448.5C359.629 448.5 448.5 359.629 448.5 250C448.5 140.371 359.629 51.5 250 51.5C140.371 51.5 51.5 140.371 51.5 250C51.5 359.629 140.371 448.5 250 448.5Z" fill="white"/>
</mask>
<g mask="url(#mask27_201_715)">
<path d="M292.4 195.4C297.9 215.5 302.5 235.8 306.1 256.2C307.1 262 308.1 267.7 309 273.5C309.3 275.2 314.1 276.1 313.8 274.2C310.6 253.6 306.6 233.2 301.6 213C300.2 207.3 298.7 201.7 297.2 196C296.8 194.5 291.9 193.7 292.4 195.4Z" fill="white"/>
</g>
<mask id="mask28_201_715" style="mask-type:luminance" maskUnits="userSpaceOnUse" x="51" y="51" width="398" height="398">
<path d="M250 448.5C359.629 448.5 448.5 359.629 448.5 250C448.5 140.371 359.629 51.5 250 51.5C140.371 51.5 51.5 140.371 51.5 250C51.5 359.629 140.371 448.5 250 448.5Z" fill="white"/>
</mask>
<g mask="url(#mask28_201_715)">
<path d="M312.5 289C314.3 295.4 316.1 301.8 317.9 308.2C318.2 309.3 319.5 310.4 320.6 310.1C321.9 309.8 321.9 308.4 321.6 307.4C319.8 301 318 294.6 316.2 288.2C315.9 287.1 314.6 286 313.5 286.3C312.2 286.6 312.2 288 312.5 289Z" fill="white"/>
</g>
<mask id="mask29_201_715" style="mask-type:luminance" maskUnits="userSpaceOnUse" x="51" y="51" width="398" height="398">
<path d="M250 448.5C359.629 448.5 448.5 359.629 448.5 250C448.5 140.371 359.629 51.5 250 51.5C140.371 51.5 51.5 140.371 51.5 250C51.5 359.629 140.371 448.5 250 448.5Z" fill="white"/>
</mask>
<g mask="url(#mask29_201_715)">
<path d="M319.8 321C323.8 334 326.9 347.2 329.1 360.6C329.6 363.4 334.3 362 333.9 359.4C331.6 346 328.5 332.8 324.6 319.8C324.2 318.6 323.1 318 321.9 318.3C320.9 318.6 319.4 319.8 319.8 321Z" fill="white"/>
</g>
<mask id="mask30_201_715" style="mask-type:luminance" maskUnits="userSpaceOnUse" x="51" y="51" width="398" height="398">
<path d="M250 448.5C359.629 448.5 448.5 359.629 448.5 250C448.5 140.371 359.629 51.5 250 51.5C140.371 51.5 51.5 140.371 51.5 250C51.5 359.629 140.371 448.5 250 448.5Z" fill="white"/>
</mask>
<g mask="url(#mask30_201_715)">
<path d="M335.4 382.5C342.1 400.4 348.9 418.4 355.6 436.3C356.2 437.8 361.1 438 360.5 436.3C353.8 418.4 347 400.4 340.3 382.5C339.7 381 334.8 380.8 335.4 382.5Z" fill="white"/>
</g>
<mask id="mask31_201_715" style="mask-type:luminance" maskUnits="userSpaceOnUse" x="51" y="51" width="398" height="398">
<path d="M250 448.5C359.629 448.5 448.5 359.629 448.5 250C448.5 140.371 359.629 51.5 250 51.5C140.371 51.5 51.5 140.371 51.5 250C51.5 359.629 140.371 448.5 250 448.5Z" fill="white"/>
</mask>
<g mask="url(#mask31_201_715)">
<path d="M256.5 47.0999C264.4 58.2999 272.4 69.4999 278.2 81.8999C278.9 83.2999 283.8 82.6999 283 81.0999C277.2 68.6999 269.2 57.3999 261.3 46.2999C260.3 44.8999 255.5 45.6999 256.5 47.0999Z" fill="white"/>
</g>
<mask id="mask32_201_715" style="mask-type:luminance" maskUnits="userSpaceOnUse" x="51" y="51" width="398" height="398">
<path d="M250 448.5C359.629 448.5 448.5 359.629 448.5 250C448.5 140.371 359.629 51.5 250 51.5C140.371 51.5 51.5 140.371 51.5 250C51.5 359.629 140.371 448.5 250 448.5Z" fill="white"/>
</mask>
<g mask="url(#mask32_201_715)">
<path d="M285.9 94.5999C290 101.6 293.7 108.8 296.8 116.3C297.2 117.2 298.3 117.9 299 118.5C299.2 118.7 300.6 119.6 300.5 119.4C297.4 111.9 293.8 104.7 289.6 97.6999C289.1 96.7999 288.2 96.0999 287.4 95.4999C287.1 95.1999 286.6 94.6999 286.2 94.5999C286.2 94.4999 285.8 94.2999 285.9 94.5999Z" fill="white"/>
</g>
<mask id="mask33_201_715" style="mask-type:luminance" maskUnits="userSpaceOnUse" x="51" y="51" width="398" height="398">
<path d="M250 448.5C359.629 448.5 448.5 359.629 448.5 250C448.5 140.371 359.629 51.5 250 51.5C140.371 51.5 51.5 140.371 51.5 250C51.5 359.629 140.371 448.5 250 448.5Z" fill="white"/>
</mask>
<g mask="url(#mask33_201_715)">
<path d="M300.2 130.9C306.8 146.9 313.1 163.1 319.1 179.4C320.8 184 322.5 188.6 324.1 193.2C324.5 194.3 325.7 195.4 327 195C328.2 194.7 328.7 193.3 328.3 192.1C322.5 175.8 316.4 159.5 309.9 143.4C308.1 138.8 306.2 134.3 304.4 129.7C303.9 128.6 302.8 127.5 301.5 127.9C300.3 128.3 299.7 129.8 300.2 130.9Z" fill="white"/>
</g>
<mask id="mask34_201_715" style="mask-type:luminance" maskUnits="userSpaceOnUse" x="51" y="51" width="398" height="398">
<path d="M250 448.5C359.629 448.5 448.5 359.629 448.5 250C448.5 140.371 359.629 51.5 250 51.5C140.371 51.5 51.5 140.371 51.5 250C51.5 359.629 140.371 448.5 250 448.5Z" fill="white"/>
</mask>
<g mask="url(#mask34_201_715)">
<path d="M327.1 205.4C329.7 212.5 332.3 219.7 334.9 226.8C335.3 227.9 336.7 228.8 337.8 228.8C338.9 228.9 339.4 228.1 339 227.1C336.4 220 333.8 212.8 331.2 205.7C330.8 204.6 329.4 203.7 328.3 203.7C327.2 203.6 326.8 204.4 327.1 205.4Z" fill="white"/>
</g>
<mask id="mask35_201_715" style="mask-type:luminance" maskUnits="userSpaceOnUse" x="51" y="51" width="398" height="398">
<path d="M250 448.5C359.629 448.5 448.5 359.629 448.5 250C448.5 140.371 359.629 51.5 250 51.5C140.371 51.5 51.5 140.371 51.5 250C51.5 359.629 140.371 448.5 250 448.5Z" fill="white"/>
</mask>
<g mask="url(#mask35_201_715)">
<path d="M340.9 244.9C343.6 254.3 346.4 263.7 349.1 273.1C349.5 274.3 350.6 275.3 352 275.2C353.2 275.1 354.2 273.9 353.8 272.6C351.1 263.2 348.3 253.8 345.6 244.4C345.2 243.2 344.1 242.2 342.7 242.3C341.6 242.5 340.6 243.7 340.9 244.9Z" fill="white"/>
</g>
<mask id="mask36_201_715" style="mask-type:luminance" maskUnits="userSpaceOnUse" x="51" y="51" width="398" height="398">
<path d="M250 448.5C359.629 448.5 448.5 359.629 448.5 250C448.5 140.371 359.629 51.5 250 51.5C140.371 51.5 51.5 140.371 51.5 250C51.5 359.629 140.371 448.5 250 448.5Z" fill="white"/>
</mask>
<g mask="url(#mask36_201_715)">
<path d="M355.3 287.5C357.7 295.8 360.8 303.8 364.5 311.6C364.8 312.2 366.4 312.1 367 312.1C367.2 312.1 369.7 312 369.5 311.7C365.8 303.9 362.7 295.9 360.3 287.6C360 286.5 355.2 287.2 355.3 287.5Z" fill="white"/>
</g>
<mask id="mask37_201_715" style="mask-type:luminance" maskUnits="userSpaceOnUse" x="51" y="51" width="398" height="398">
<path d="M250 448.5C359.629 448.5 448.5 359.629 448.5 250C448.5 140.371 359.629 51.5 250 51.5C140.371 51.5 51.5 140.371 51.5 250C51.5 359.629 140.371 448.5 250 448.5Z" fill="white"/>
</mask>
<g mask="url(#mask37_201_715)">
<path d="M369.7 326.2C380.6 351.4 391.4 376.5 402.3 401.7C405.4 408.8 408.4 415.9 411.5 423C411.8 423.8 416.5 422.3 416.4 422.1C405.5 396.9 394.7 371.8 383.8 346.6C380.7 339.5 377.7 332.4 374.6 325.3C374.3 324.5 369.6 326 369.7 326.2Z" fill="white"/>
</g>
<mask id="mask38_201_715" style="mask-type:luminance" maskUnits="userSpaceOnUse" x="51" y="51" width="398" height="398">
<path d="M250 448.5C359.629 448.5 448.5 359.629 448.5 250C448.5 140.371 359.629 51.5 250 51.5C140.371 51.5 51.5 140.371 51.5 250C51.5 359.629 140.371 448.5 250 448.5Z" fill="white"/>
</mask>
<g mask="url(#mask38_201_715)">
<path d="M265.8 49.5002C271 57.1002 276.7 64.5002 282.7 71.5002C282.8 71.6002 283.2 72.1002 283.4 72.0002C283.6 71.9002 283.5 71.3002 283.5 71.1002C283.3 70.0002 282.6 68.8002 281.9 68.0002C276.1 61.3002 270.6 54.2002 265.6 46.8002C265.3 46.4002 264.5 45.4002 264.4 46.4002C264.4 47.4002 265.3 48.8002 265.8 49.5002Z" fill="white"/>
</g>
<mask id="mask39_201_715" style="mask-type:luminance" maskUnits="userSpaceOnUse" x="51" y="51" width="398" height="398">
<path d="M250 448.5C359.629 448.5 448.5 359.629 448.5 250C448.5 140.371 359.629 51.5 250 51.5C140.371 51.5 51.5 140.371 51.5 250C51.5 359.629 140.371 448.5 250 448.5Z" fill="white"/>
</mask>
<g mask="url(#mask39_201_715)">
<path d="M286.2 81C289.9 87.2 293.6 93.3 297.3 99.5C297.9 100.4 299.3 101.2 300.3 101.4C301.3 101.6 301.5 101 301 100.2C297.3 94 293.6 87.9 289.9 81.7C289.3 80.8 287.9 80 286.9 79.8C285.9 79.6 285.7 80.2 286.2 81Z" fill="white"/>
</g>
<mask id="mask40_201_715" style="mask-type:luminance" maskUnits="userSpaceOnUse" x="51" y="51" width="398" height="398">
<path d="M250 448.5C359.629 448.5 448.5 359.629 448.5 250C448.5 140.371 359.629 51.5 250 51.5C140.371 51.5 51.5 140.371 51.5 250C51.5 359.629 140.371 448.5 250 448.5Z" fill="white"/>
</mask>
<g mask="url(#mask40_201_715)">
<path d="M303.5 112.2C306.7 118.4 309.8 124.7 313 130.9C314 133 318.6 132.7 317.2 129.9C314 123.7 310.9 117.4 307.7 111.2C306.7 109.1 302.1 109.4 303.5 112.2Z" fill="white"/>
</g>
<mask id="mask41_201_715" style="mask-type:luminance" maskUnits="userSpaceOnUse" x="51" y="51" width="398" height="398">
<path d="M250 448.5C359.629 448.5 448.5 359.629 448.5 250C448.5 140.371 359.629 51.5 250 51.5C140.371 51.5 51.5 140.371 51.5 250C51.5 359.629 140.371 448.5 250 448.5Z" fill="white"/>
</mask>
<g mask="url(#mask41_201_715)">
<path d="M320.5 145.8C330.5 164.8 340.3 183.9 349.8 203.1C352.5 208.5 355.2 214 357.8 219.4C358.1 220 362.4 217.6 362 216.6C352.6 197.3 343 178.1 333.1 159C330.3 153.6 327.5 148.2 324.7 142.9C324.3 142.4 320 144.9 320.5 145.8Z" fill="white"/>
</g>
<mask id="mask42_201_715" style="mask-type:luminance" maskUnits="userSpaceOnUse" x="51" y="51" width="398" height="398">
<path d="M250 448.5C359.629 448.5 448.5 359.629 448.5 250C448.5 140.371 359.629 51.5 250 51.5C140.371 51.5 51.5 140.371 51.5 250C51.5 359.629 140.371 448.5 250 448.5Z" fill="white"/>
</mask>
<g mask="url(#mask42_201_715)">
<path d="M363 231.1C364.9 234.4 366.8 237.7 368.7 241C369.3 242 370.4 243 371.7 242.9C372.1 242.9 372.7 242.8 372.9 242.4C373.1 242 373.1 241.5 372.9 241.1C371 237.8 369.1 234.5 367.2 231.2C366.6 230.2 365.5 229.2 364.2 229.3C363.8 229.3 363.2 229.4 363 229.8C362.7 230.2 362.7 230.7 363 231.1Z" fill="white"/>
</g>
<mask id="mask43_201_715" style="mask-type:luminance" maskUnits="userSpaceOnUse" x="51" y="51" width="398" height="398">
<path d="M250 448.5C359.629 448.5 448.5 359.629 448.5 250C448.5 140.371 359.629 51.5 250 51.5C140.371 51.5 51.5 140.371 51.5 250C51.5 359.629 140.371 448.5 250 448.5Z" fill="white"/>
</mask>
<g mask="url(#mask43_201_715)">
<path d="M376.6 251.6C385.4 267.3 394.4 282.9 403.6 298.3C404.1 299.1 405 300.6 405.9 300.8C406.8 301 406.3 300 406 299.6C396.8 284.1 387.8 268.6 379 252.9C378.6 252.1 377.6 250.6 376.7 250.4C375.8 250.1 376.3 251.1 376.6 251.6Z" fill="white"/>
</g>
<mask id="mask44_201_715" style="mask-type:luminance" maskUnits="userSpaceOnUse" x="51" y="51" width="398" height="398">
<path d="M250 448.5C359.629 448.5 448.5 359.629 448.5 250C448.5 140.371 359.629 51.5 250 51.5C140.371 51.5 51.5 140.371 51.5 250C51.5 359.629 140.371 448.5 250 448.5Z" fill="white"/>
</mask>
<g mask="url(#mask44_201_715)">
<path d="M409.7 310.1C421.1 326.3 431.9 342.9 442.1 359.8C442.6 360.6 443.3 362 444.2 362.5C444.9 362.9 444.2 361.8 444 361.5C433.4 343.8 422.1 326.5 410.2 309.7C410.1 309.5 408.8 307.6 408.5 307.8C408.2 308.1 409.6 310.1 409.7 310.1Z" fill="white"/>
</g>
<mask id="mask45_201_715" style="mask-type:luminance" maskUnits="userSpaceOnUse" x="51" y="51" width="398" height="398">
<path d="M250 448.5C359.629 448.5 448.5 359.629 448.5 250C448.5 140.371 359.629 51.5 250 51.5C140.371 51.5 51.5 140.371 51.5 250C51.5 359.629 140.371 448.5 250 448.5Z" fill="white"/>
</mask>
<g mask="url(#mask45_201_715)">
<path d="M269.9 50.4002C277.1 58.5002 284.6 66.3002 292.5 73.7002C293 74.1002 294.5 73.8002 295 73.7002C295.2 73.7002 297.5 73.1002 297.4 73.0002C289.5 65.6002 282 57.8002 274.8 49.7002C274.4 49.3002 272.8 49.7002 272.3 49.7002C272.1 49.7002 269.8 50.3002 269.9 50.4002Z" fill="white"/>
</g>
<mask id="mask46_201_715" style="mask-type:luminance" maskUnits="userSpaceOnUse" x="51" y="51" width="398" height="398">
<path d="M250 448.5C359.629 448.5 448.5 359.629 448.5 250C448.5 140.371 359.629 51.5 250 51.5C140.371 51.5 51.5 140.371 51.5 250C51.5 359.629 140.371 448.5 250 448.5Z" fill="white"/>
</mask>
<g mask="url(#mask46_201_715)">
<path d="M300.5 84.9001C304.7 89.1001 308.6 93.5001 312.3 98.2001C313 99.1001 314.3 98.8001 315.2 98.3001C315.7 98.0001 317.5 96.8001 316.8 96.0001C313 91.1001 308.9 86.5001 304.6 82.1001C304.3 81.8001 303.6 81.8001 303.2 81.9001C302.6 82.0001 301.9 82.3001 301.4 82.6001C300.6 83.1001 299.7 84.1001 300.5 84.9001Z" fill="white"/>
</g>
<mask id="mask47_201_715" style="mask-type:luminance" maskUnits="userSpaceOnUse" x="51" y="51" width="398" height="398">
<path d="M250 448.5C359.629 448.5 448.5 359.629 448.5 250C448.5 140.371 359.629 51.5 250 51.5C140.371 51.5 51.5 140.371 51.5 250C51.5 359.629 140.371 448.5 250 448.5Z" fill="white"/>
</mask>
<g mask="url(#mask47_201_715)">
<path d="M319.1 108.2C329.9 123 340.5 137.9 350.8 153.1C353.7 157.4 356.6 161.7 359.5 166C360.9 168.1 365.2 165.6 363.8 163.5C353.7 148.2 343.3 133.2 332.6 118.3C329.6 114.1 326.5 109.9 323.5 105.7C322.8 104.7 321.4 104.7 320.4 105.3C319.4 105.8 318.4 107.2 319.1 108.2Z" fill="white"/>
</g>
<mask id="mask48_201_715" style="mask-type:luminance" maskUnits="userSpaceOnUse" x="51" y="51" width="398" height="398">
<path d="M250 448.5C359.629 448.5 448.5 359.629 448.5 250C448.5 140.371 359.629 51.5 250 51.5C140.371 51.5 51.5 140.371 51.5 250C51.5 359.629 140.371 448.5 250 448.5Z" fill="white"/>
</mask>
<g mask="url(#mask48_201_715)">
<path d="M368.4 177.9C371.9 183.5 375.7 188.8 379.8 193.9C380.6 194.8 382.4 194.6 383.3 194.1C384.3 193.4 384.6 192.4 383.8 191.4C379.9 186.6 376.3 181.5 373 176.2C372.4 175.2 370.8 174.9 369.8 175.4C368.8 175.7 367.7 176.8 368.4 177.9Z" fill="white"/>
</g>
<mask id="mask49_201_715" style="mask-type:luminance" maskUnits="userSpaceOnUse" x="51" y="51" width="398" height="398">
<path d="M250 448.5C359.629 448.5 448.5 359.629 448.5 250C448.5 140.371 359.629 51.5 250 51.5C140.371 51.5 51.5 140.371 51.5 250C51.5 359.629 140.371 448.5 250 448.5Z" fill="white"/>
</mask>
<g mask="url(#mask49_201_715)">
<path d="M385.9 202.5C394.5 217.4 403.5 232 413 246.3C413.7 247.3 415 247.2 416 246.7C416.8 246.3 418.2 245.1 417.5 244.1C408 229.8 399 215.2 390.4 200.3C389.2 198.3 384.7 200.5 385.9 202.5Z" fill="white"/>
</g>
<mask id="mask50_201_715" style="mask-type:luminance" maskUnits="userSpaceOnUse" x="51" y="51" width="398" height="398">
<path d="M250 448.5C359.629 448.5 448.5 359.629 448.5 250C448.5 140.371 359.629 51.5 250 51.5C140.371 51.5 51.5 140.371 51.5 250C51.5 359.629 140.371 448.5 250 448.5Z" fill="white"/>
</mask>
<g mask="url(#mask50_201_715)">
<path d="M420.7 257.2C422.3 258.1 423.3 259.5 424.4 261C425.7 262.8 427.1 264.6 428.4 266.4C431.1 270 433.9 273.7 436.6 277.3C442.1 284.6 447.6 291.8 453.1 299.1C456.2 303.2 459.3 307.3 462.4 311.4C463.1 312.3 464.4 313.1 465.6 312.8C466.7 312.5 466.6 311.3 466 310.5C454.7 295.6 443.5 280.6 432.2 265.7C430.7 263.7 429.2 261.7 427.6 259.7C426.1 257.8 424.5 255.9 422.4 254.7C421.6 254.2 420.1 253.7 419.4 254.7C418.8 255.5 419.9 256.8 420.7 257.2Z" fill="white"/>
</g>
<mask id="mask51_201_715" style="mask-type:luminance" maskUnits="userSpaceOnUse" x="51" y="51" width="398" height="398">
<path d="M250 448.5C359.629 448.5 448.5 359.629 448.5 250C448.5 140.371 359.629 51.5 250 51.5C140.371 51.5 51.5 140.371 51.5 250C51.5 359.629 140.371 448.5 250 448.5Z" fill="white"/>
</mask>
<g mask="url(#mask51_201_715)">
<path d="M277.4 51.9C286.8 59 296.2 66.2 305.6 73.3C306.5 74 307.9 74.6 309 74C310 73.5 309.8 72.2 308.9 71.6C299.5 64.5 290.1 57.3 280.7 50.2C279.8 49.5 278.4 48.9 277.3 49.5C276.4 50.1 276.6 51.3 277.4 51.9Z" fill="white"/>
</g>
<mask id="mask52_201_715" style="mask-type:luminance" maskUnits="userSpaceOnUse" x="51" y="51" width="398" height="398">
<path d="M250 448.5C359.629 448.5 448.5 359.629 448.5 250C448.5 140.371 359.629 51.5 250 51.5C140.371 51.5 51.5 140.371 51.5 250C51.5 359.629 140.371 448.5 250 448.5Z" fill="white"/>
</mask>
<g mask="url(#mask52_201_715)">
<path d="M314.6 82.7999C325.9 92.6999 336.4 103.5 346.1 115.1C347.1 116.3 351.2 113.6 350.5 112.7C340.7 101 330 90.0999 318.6 80.0999C317.6 79.1999 313.4 81.7999 314.6 82.7999Z" fill="white"/>
</g>
<mask id="mask53_201_715" style="mask-type:luminance" maskUnits="userSpaceOnUse" x="51" y="51" width="398" height="398">
<path d="M250 448.5C359.629 448.5 448.5 359.629 448.5 250C448.5 140.371 359.629 51.5 250 51.5C140.371 51.5 51.5 140.371 51.5 250C51.5 359.629 140.371 448.5 250 448.5Z" fill="white"/>
</mask>
<g mask="url(#mask53_201_715)">
<path d="M353.9 122.8C358.3 127.5 362.5 132.3 366.7 137.1C366.8 137.3 367.3 137.2 367.5 137.2C368.1 137.2 368.7 137.1 369.3 137C369.9 136.9 370.5 136.8 371 136.6C371.1 136.6 371.8 136.3 371.7 136.2C367.5 131.3 363.3 126.6 358.9 121.9C358.7 121.7 358.3 121.8 358.1 121.8C357.5 121.8 356.9 121.9 356.3 122C355.7 122.1 355.1 122.2 354.6 122.4C354.6 122.5 353.9 122.7 353.9 122.8Z" fill="white"/>
</g>
<mask id="mask54_201_715" style="mask-type:luminance" maskUnits="userSpaceOnUse" x="51" y="51" width="398" height="398">
<path d="M250 448.5C359.629 448.5 448.5 359.629 448.5 250C448.5 140.371 359.629 51.5 250 51.5C140.371 51.5 51.5 140.371 51.5 250C51.5 359.629 140.371 448.5 250 448.5Z" fill="white"/>
</mask>
<g mask="url(#mask54_201_715)">
<path d="M377.5 147.1C389.1 159.1 400.6 171.3 412 183.5C413.8 185.5 418.1 183.1 416 180.8C404.6 168.5 393.1 156.4 381.5 144.4C379.7 142.5 375.4 144.9 377.5 147.1Z" fill="white"/>
</g>
<mask id="mask55_201_715" style="mask-type:luminance" maskUnits="userSpaceOnUse" x="51" y="51" width="398" height="398">
<path d="M250 448.5C359.629 448.5 448.5 359.629 448.5 250C448.5 140.371 359.629 51.5 250 51.5C140.371 51.5 51.5 140.371 51.5 250C51.5 359.629 140.371 448.5 250 448.5Z" fill="white"/>
</mask>
<g mask="url(#mask55_201_715)">
<path d="M420.2 193.8C431.5 206.7 443.1 219.2 455.1 231.5C458.5 235 462 238.5 465.5 241.9C466.3 242.6 467.7 243.4 468.7 242.7C469.7 242 469.2 240.6 468.5 240C456.3 228 444.5 215.6 433 202.9C429.7 199.3 426.5 195.6 423.2 191.9C422.5 191.1 421 190.4 420 191.1C419 191.7 419.6 193 420.2 193.8Z" fill="white"/>
</g>
<mask id="mask56_201_715" style="mask-type:luminance" maskUnits="userSpaceOnUse" x="51" y="51" width="398" height="398">
<path d="M250 448.5C359.629 448.5 448.5 359.629 448.5 250C448.5 140.371 359.629 51.5 250 51.5C140.371 51.5 51.5 140.371 51.5 250C51.5 359.629 140.371 448.5 250 448.5Z" fill="white"/>
</mask>
<g mask="url(#mask56_201_715)">
<path d="M285.8 55.4998C298.8 61.2998 311.2 68.4998 322.7 76.9998C323.6 77.6998 325 78.1998 326.1 77.7998C327 77.4998 327.4 76.5998 326.5 75.9998C314.4 66.9998 301.4 59.3998 287.6 53.2998C286.8 52.8998 285 52.5998 284.4 53.4998C283.8 54.4998 285.2 55.2998 285.8 55.4998Z" fill="white"/>
</g>
<mask id="mask57_201_715" style="mask-type:luminance" maskUnits="userSpaceOnUse" x="51" y="51" width="398" height="398">
<path d="M250 448.5C359.629 448.5 448.5 359.629 448.5 250C448.5 140.371 359.629 51.5 250 51.5C140.371 51.5 51.5 140.371 51.5 250C51.5 359.629 140.371 448.5 250 448.5Z" fill="white"/>
</mask>
<g mask="url(#mask57_201_715)">
<path d="M333.3 83.6998C338.9 87.6998 344.3 91.8998 349.4 96.3998C350.2 97.0998 351.5 97.5998 352.2 96.5998C352.9 95.5998 352.3 94.0998 351.5 93.2998C346 88.4998 340.3 83.9998 334.4 79.7998C333.5 79.1998 332.2 79.2998 331.8 80.4998C331.5 81.7998 332.3 83.0998 333.3 83.6998Z" fill="white"/>
</g>
<mask id="mask58_201_715" style="mask-type:luminance" maskUnits="userSpaceOnUse" x="51" y="51" width="398" height="398">
<path d="M250 448.5C359.629 448.5 448.5 359.629 448.5 250C448.5 140.371 359.629 51.5 250 51.5C140.371 51.5 51.5 140.371 51.5 250C51.5 359.629 140.371 448.5 250 448.5Z" fill="white"/>
</mask>
<g mask="url(#mask58_201_715)">
<path d="M360 105.9C368 112.4 375.7 119.1 383.2 126.1C383.9 126.7 385 127 385.4 125.9C385.8 124.8 385.1 123.3 384.3 122.6C376.8 115.6 369.1 108.9 361.1 102.4C360.4 101.8 359.3 101.4 358.9 102.6C358.5 103.6 359.2 105.2 360 105.9Z" fill="white"/>
</g>
<mask id="mask59_201_715" style="mask-type:luminance" maskUnits="userSpaceOnUse" x="51" y="51" width="398" height="398">
<path d="M250 448.5C359.629 448.5 448.5 359.629 448.5 250C448.5 140.371 359.629 51.5 250 51.5C140.371 51.5 51.5 140.371 51.5 250C51.5 359.629 140.371 448.5 250 448.5Z" fill="white"/>
</mask>
<g mask="url(#mask59_201_715)">
<path d="M397.1 138.7C410.2 149.1 423.3 159.6 436.5 170C440.3 173 444 176 447.8 179C448.6 179.6 450 180.2 450.8 179.3C451.6 178.4 450.6 177 449.9 176.4C436.7 165.9 423.5 155.4 410.3 144.9C406.6 142 403 139.1 399.3 136.1C398.5 135.5 397.1 134.9 396.3 135.8C395.4 136.8 396.4 138.2 397.1 138.7Z" fill="white"/>
</g>
<mask id="mask60_201_715" style="mask-type:luminance" maskUnits="userSpaceOnUse" x="51" y="51" width="398" height="398">
<path d="M250 448.5C359.629 448.5 448.5 359.629 448.5 250C448.5 140.371 359.629 51.5 250 51.5C140.371 51.5 51.5 140.371 51.5 250C51.5 359.629 140.371 448.5 250 448.5Z" fill="white"/>
</mask>
<g mask="url(#mask60_201_715)">
<path d="M295.1 58.3999C311.4 59.7999 325.1 70.6999 338.5 79.0999C353.3 88.3999 368.6 96.8999 384.3 104.6C393.2 109 402.2 113.1 411.3 117C412.4 117.5 413.9 117.4 414.8 116.7C415.6 116.1 415.7 115.2 414.7 114.8C398.3 107.8 382.3 99.9999 366.7 91.3999C358.9 87.0999 351.2 82.5999 343.7 77.8999C336.5 73.3999 329.5 68.5999 322.2 64.4999C314.2 59.9999 305.5 56.3999 296.3 55.5999C295.4 55.4999 293.7 55.6999 293.3 56.7999C292.8 57.8999 294.3 58.3999 295.1 58.3999Z" fill="white"/>
</g>
<mask id="mask61_201_715" style="mask-type:luminance" maskUnits="userSpaceOnUse" x="51" y="51" width="398" height="398">
<path d="M250 448.5C359.629 448.5 448.5 359.629 448.5 250C448.5 140.371 359.629 51.5 250 51.5C140.371 51.5 51.5 140.371 51.5 250C51.5 359.629 140.371 448.5 250 448.5Z" fill="white"/>
</mask>
<g mask="url(#mask61_201_715)">
<path d="M235.6 48.9C231.1 56.5 227.3 64.7 224.6 73.1C224.2 74.2 225.5 74.3 226.2 74.1C227.2 73.8 228.5 73 228.9 71.9C231.6 63.7 235.1 55.9 239.5 48.5C240 47.6 239.6 47 238.6 47C237.5 47.1 236.2 48 235.6 48.9Z" fill="white"/>
</g>
<mask id="mask62_201_715" style="mask-type:luminance" maskUnits="userSpaceOnUse" x="51" y="51" width="398" height="398">
<path d="M250 448.5C359.629 448.5 448.5 359.629 448.5 250C448.5 140.371 359.629 51.5 250 51.5C140.371 51.5 51.5 140.371 51.5 250C51.5 359.629 140.371 448.5 250 448.5Z" fill="white"/>
</mask>
<g mask="url(#mask62_201_715)">
<path d="M219.6 86.8C213.1 103 206.8 119.4 200.7 135.8C199 140.5 197.2 145.2 195.5 149.9C195.1 151.1 195.5 152.4 196.6 153.1C197.4 153.6 199.1 153.9 199.6 152.7C205.6 136.2 211.7 119.9 218.1 103.6C219.9 98.9 221.8 94.3 223.7 89.6C224.2 88.4 223.7 87.1 222.6 86.4C221.7 85.9 220.1 85.6 219.6 86.8Z" fill="white"/>
</g>
<mask id="mask63_201_715" style="mask-type:luminance" maskUnits="userSpaceOnUse" x="51" y="51" width="398" height="398">
<path d="M250 448.5C359.629 448.5 448.5 359.629 448.5 250C448.5 140.371 359.629 51.5 250 51.5C140.371 51.5 51.5 140.371 51.5 250C51.5 359.629 140.371 448.5 250 448.5Z" fill="white"/>
</mask>
<g mask="url(#mask63_201_715)">
<path d="M189.7 163.8C187.9 170.3 185.7 176.8 183.2 183C182.9 183.7 184.8 183.5 185.1 183.4C185.8 183.3 187.7 183 188 182.3C190.6 176 192.8 169.6 194.5 163.1C194.7 162.3 193 162.6 192.6 162.7C192 162.8 191.3 163 190.7 163.2C190.4 163.2 189.7 163.4 189.7 163.8Z" fill="white"/>
</g>
<mask id="mask64_201_715" style="mask-type:luminance" maskUnits="userSpaceOnUse" x="51" y="51" width="398" height="398">
<path d="M250 448.5C359.629 448.5 448.5 359.629 448.5 250C448.5 140.371 359.629 51.5 250 51.5C140.371 51.5 51.5 140.371 51.5 250C51.5 359.629 140.371 448.5 250 448.5Z" fill="white"/>
</mask>
<g mask="url(#mask64_201_715)">
<path d="M178.1 192.2C169.6 214.6 159.9 236.5 149.1 257.9C146 264 142.8 270 139.6 276C138.5 278.1 142.5 280.9 143.8 278.6C155.3 257.6 165.6 236 174.8 213.8C177.4 207.5 179.9 201.2 182.3 194.8C183.1 192.6 179 189.8 178.1 192.2Z" fill="white"/>
</g>
<mask id="mask65_201_715" style="mask-type:luminance" maskUnits="userSpaceOnUse" x="51" y="51" width="398" height="398">
<path d="M250 448.5C359.629 448.5 448.5 359.629 448.5 250C448.5 140.371 359.629 51.5 250 51.5C140.371 51.5 51.5 140.371 51.5 250C51.5 359.629 140.371 448.5 250 448.5Z" fill="white"/>
</mask>
<g mask="url(#mask65_201_715)">
<path d="M135.3 284.3C133.6 287.8 131.9 291.3 130.2 294.8C129.7 295.8 131.2 296.8 131.9 297.1C132.6 297.4 134.3 297.9 134.7 297C136.4 293.5 138.1 290 139.8 286.5C140.3 285.5 138.8 284.5 138.1 284.2C137.4 283.9 135.8 283.4 135.3 284.3Z" fill="white"/>
</g>
<mask id="mask66_201_715" style="mask-type:luminance" maskUnits="userSpaceOnUse" x="51" y="51" width="398" height="398">
<path d="M250 448.5C359.629 448.5 448.5 359.629 448.5 250C448.5 140.371 359.629 51.5 250 51.5C140.371 51.5 51.5 140.371 51.5 250C51.5 359.629 140.371 448.5 250 448.5Z" fill="white"/>
</mask>
<g mask="url(#mask66_201_715)">
<path d="M122.3 310.1C112.6 327 101.8 343.4 90.1 359C86.7 363.5 83.3 367.9 79.8 372.2C78.6 373.6 83.4 375 84.5 373.6C96.8 358.4 108.1 342.5 118.5 325.9C121.4 321.2 124.3 316.4 127.1 311.5C128 309.8 123.1 308.6 122.3 310.1Z" fill="white"/>
</g>
<mask id="mask67_201_715" style="mask-type:luminance" maskUnits="userSpaceOnUse" x="51" y="51" width="398" height="398">
<path d="M250 448.5C359.629 448.5 448.5 359.629 448.5 250C448.5 140.371 359.629 51.5 250 51.5C140.371 51.5 51.5 140.371 51.5 250C51.5 359.629 140.371 448.5 250 448.5Z" fill="white"/>
</mask>
<g mask="url(#mask67_201_715)">
<path d="M234.4 47.4002C226.8 60.9002 218.2 73.9002 208.6 86.1002C207.9 87.0002 208.4 88.1002 209.2 88.7002C209.9 89.2002 211.8 89.9002 212.5 89.0002C222.3 76.5002 231.1 63.4002 238.9 49.5002C240 47.7002 235.5 45.4002 234.4 47.4002Z" fill="white"/>
</g>
<mask id="mask68_201_715" style="mask-type:luminance" maskUnits="userSpaceOnUse" x="51" y="51" width="398" height="398">
<path d="M250 448.5C359.629 448.5 448.5 359.629 448.5 250C448.5 140.371 359.629 51.5 250 51.5C140.371 51.5 51.5 140.371 51.5 250C51.5 359.629 140.371 448.5 250 448.5Z" fill="white"/>
</mask>
<g mask="url(#mask68_201_715)">
<path d="M201.6 98.0999C198.6 103.1 195.7 108.2 192.7 113.2C192.1 114.2 193.5 115 194.3 115.2C195.3 115.4 196.8 115.4 197.4 114.3C200.4 109.3 203.3 104.2 206.3 99.1999C206.9 98.1999 205.5 97.3999 204.7 97.1999C203.7 96.9999 202.2 97.0999 201.6 98.0999Z" fill="white"/>
</g>
<mask id="mask69_201_715" style="mask-type:luminance" maskUnits="userSpaceOnUse" x="51" y="51" width="398" height="398">
<path d="M250 448.5C359.629 448.5 448.5 359.629 448.5 250C448.5 140.371 359.629 51.5 250 51.5C140.371 51.5 51.5 140.371 51.5 250C51.5 359.629 140.371 448.5 250 448.5Z" fill="white"/>
</mask>
<g mask="url(#mask69_201_715)">
<path d="M181 133.7C175 145.1 168.6 156.4 161.9 167.4C161.6 167.9 162.7 169.3 162.9 169.7C163 169.9 164.4 171.8 164.5 171.7C171.2 160.7 177.6 149.4 183.6 138C183.9 137.5 182.8 136.1 182.6 135.7C182.5 135.5 181.1 133.6 181 133.7Z" fill="white"/>
</g>
<mask id="mask70_201_715" style="mask-type:luminance" maskUnits="userSpaceOnUse" x="51" y="51" width="398" height="398">
<path d="M250 448.5C359.629 448.5 448.5 359.629 448.5 250C448.5 140.371 359.629 51.5 250 51.5C140.371 51.5 51.5 140.371 51.5 250C51.5 359.629 140.371 448.5 250 448.5Z" fill="white"/>
</mask>
<g mask="url(#mask70_201_715)">
<path d="M152.4 186.3C145.9 200.9 135.5 213.2 125.2 225.3C124.5 226.1 126.1 225.5 126.3 225.4C127.3 225 128.4 224.3 129.2 223.5C139.6 211.3 150.1 198.8 156.7 184C157 183.4 155 184.3 154.9 184.4C154.1 184.8 152.7 185.5 152.4 186.3Z" fill="white"/>
</g>
<mask id="mask71_201_715" style="mask-type:luminance" maskUnits="userSpaceOnUse" x="51" y="51" width="398" height="398">
<path d="M250 448.5C359.629 448.5 448.5 359.629 448.5 250C448.5 140.371 359.629 51.5 250 51.5C140.371 51.5 51.5 140.371 51.5 250C51.5 359.629 140.371 448.5 250 448.5Z" fill="white"/>
</mask>
<g mask="url(#mask71_201_715)">
<path d="M119.2 239.6C116.7 245.5 113.4 251.1 109.6 256.2C109.1 256.8 111.2 256.9 111.4 256.9C112 256.9 112.7 256.9 113.3 256.7C113.6 256.6 114.2 256.5 114.4 256.2C118.3 251.1 121.5 245.5 124 239.6C124.3 238.9 122.6 238.9 122.2 238.9C121.6 238.9 120.9 238.9 120.3 239.1C120 239.2 119.3 239.3 119.2 239.6Z" fill="white"/>
</g>
<mask id="mask72_201_715" style="mask-type:luminance" maskUnits="userSpaceOnUse" x="51" y="51" width="398" height="398">
<path d="M250 448.5C359.629 448.5 448.5 359.629 448.5 250C448.5 140.371 359.629 51.5 250 51.5C140.371 51.5 51.5 140.371 51.5 250C51.5 359.629 140.371 448.5 250 448.5Z" fill="white"/>
</mask>
<g mask="url(#mask72_201_715)">
<path d="M99.8 271.6C85.3 289.2 69.4 305.7 52.3 320.9C47.5 325.2 42.6 329.4 37.6 333.4C35.9 334.8 39.4 338.4 41.1 336.9C58.8 322.5 75.4 306.7 90.7 289.7C95 284.9 99.2 280 103.3 275C104.7 273.4 101.1 269.9 99.8 271.6Z" fill="white"/>
</g>
<mask id="mask73_201_715" style="mask-type:luminance" maskUnits="userSpaceOnUse" x="51" y="51" width="398" height="398">
<path d="M250 448.5C359.629 448.5 448.5 359.629 448.5 250C448.5 140.371 359.629 51.5 250 51.5C140.371 51.5 51.5 140.371 51.5 250C51.5 359.629 140.371 448.5 250 448.5Z" fill="white"/>
</mask>
<g mask="url(#mask73_201_715)">
<path d="M233 45.5999C225.8 54.4999 218.4 63.2999 210.8 71.8999C210 72.7999 210.9 74.4998 211.7 75.0998C212.6 75.8998 213.8 75.9998 214.6 75.0998C222.2 66.4998 229.6 57.6999 236.8 48.7999C238.2 46.9999 234.7 43.4999 233 45.5999Z" fill="white"/>
</g>
<mask id="mask74_201_715" style="mask-type:luminance" maskUnits="userSpaceOnUse" x="51" y="51" width="398" height="398">
<path d="M250 448.5C359.629 448.5 448.5 359.629 448.5 250C448.5 140.371 359.629 51.5 250 51.5C140.371 51.5 51.5 140.371 51.5 250C51.5 359.629 140.371 448.5 250 448.5Z" fill="white"/>
</mask>
<g mask="url(#mask74_201_715)">
<path d="M197.9 87.9998C188.4 100.4 178.9 112.9 169.4 125.3C168.8 126.1 169.2 126.7 170.2 126.7C171.3 126.6 172.6 125.9 173.3 125C182.8 112.6 192.3 100.1 201.8 87.6998C202.4 86.8998 202 86.2998 201 86.2998C199.9 86.2998 198.6 87.0998 197.9 87.9998Z" fill="white"/>
</g>
<mask id="mask75_201_715" style="mask-type:luminance" maskUnits="userSpaceOnUse" x="51" y="51" width="398" height="398">
<path d="M250 448.5C359.629 448.5 448.5 359.629 448.5 250C448.5 140.371 359.629 51.5 250 51.5C140.371 51.5 51.5 140.371 51.5 250C51.5 359.629 140.371 448.5 250 448.5Z" fill="white"/>
</mask>
<g mask="url(#mask75_201_715)">
<path d="M162.8 132.3C156.3 141.1 149.8 149.9 143.2 158.7C141.6 160.9 145.8 163.5 147.2 161.5C153.7 152.7 160.2 143.9 166.8 135.1C168.5 132.9 164.3 130.3 162.8 132.3Z" fill="white"/>
</g>
<mask id="mask76_201_715" style="mask-type:luminance" maskUnits="userSpaceOnUse" x="51" y="51" width="398" height="398">
<path d="M250 448.5C359.629 448.5 448.5 359.629 448.5 250C448.5 140.371 359.629 51.5 250 51.5C140.371 51.5 51.5 140.371 51.5 250C51.5 359.629 140.371 448.5 250 448.5Z" fill="white"/>
</mask>
<g mask="url(#mask76_201_715)">
<path d="M128.7 176.5C124.8 182 120.5 187.2 115.9 192.1C115.1 193 115.1 194.3 116.1 195.1C117.1 195.8 118.8 195.8 119.6 194.9C124.4 189.7 129 184.1 133.1 178.4C133.8 177.4 133 176 132 175.6C130.8 175 129.4 175.5 128.7 176.5Z" fill="white"/>
</g>
<mask id="mask77_201_715" style="mask-type:luminance" maskUnits="userSpaceOnUse" x="51" y="51" width="398" height="398">
<path d="M250 448.5C359.629 448.5 448.5 359.629 448.5 250C448.5 140.371 359.629 51.5 250 51.5C140.371 51.5 51.5 140.371 51.5 250C51.5 359.629 140.371 448.5 250 448.5Z" fill="white"/>
</mask>
<g mask="url(#mask77_201_715)">
<path d="M102.8 204.9C92.0001 215.5 81.2001 226.1 70.4001 236.6C69.6001 237.4 71.2001 238.8 71.7001 239.1C72.5001 239.6 73.8001 240.1 74.6001 239.3C85.4001 228.7 96.2001 218.1 107 207.6C107.8 206.8 106.2 205.4 105.7 205.1C104.8 204.6 103.6 204.1 102.8 204.9Z" fill="white"/>
</g>
<mask id="mask78_201_715" style="mask-type:luminance" maskUnits="userSpaceOnUse" x="51" y="51" width="398" height="398">
<path d="M250 448.5C359.629 448.5 448.5 359.629 448.5 250C448.5 140.371 359.629 51.5 250 51.5C140.371 51.5 51.5 140.371 51.5 250C51.5 359.629 140.371 448.5 250 448.5Z" fill="white"/>
</mask>
<g mask="url(#mask78_201_715)">
<path d="M55.8 249.2C50.5 254.7 44.7 259.8 38.6 264.3C38.2 264.6 38.3 265.3 38.4 265.6C38.6 266.2 39 266.7 39.4 267.1C40.2 267.8 41.4 268.3 42.3 267.6C48.4 263.1 54.2 258 59.5 252.5C61 251.1 57.3 247.7 55.8 249.2Z" fill="white"/>
</g>
<mask id="mask79_201_715" style="mask-type:luminance" maskUnits="userSpaceOnUse" x="51" y="51" width="398" height="398">
<path d="M250 448.5C359.629 448.5 448.5 359.629 448.5 250C448.5 140.371 359.629 51.5 250 51.5C140.371 51.5 51.5 140.371 51.5 250C51.5 359.629 140.371 448.5 250 448.5Z" fill="white"/>
</mask>
<g mask="url(#mask79_201_715)">
<path d="M227.8 51.4C213.8 63.8 199.5 75.7 184.8 87.2C184.6 87.4 183.2 88.3 183.6 88.6C184 88.9 186 87.3 186.3 87.1C201.6 75.2 216.5 62.8 231 49.9C231.7 49.3 231.4 49.1 230.7 49.4C229.7 49.9 228.7 50.7 227.8 51.4Z" fill="white"/>
</g>
<mask id="mask80_201_715" style="mask-type:luminance" maskUnits="userSpaceOnUse" x="51" y="51" width="398" height="398">
<path d="M250 448.5C359.629 448.5 448.5 359.629 448.5 250C448.5 140.371 359.629 51.5 250 51.5C140.371 51.5 51.5 140.371 51.5 250C51.5 359.629 140.371 448.5 250 448.5Z" fill="white"/>
</mask>
<g mask="url(#mask80_201_715)">
<path d="M164.1 103.5C158.3 110.1 152.1 116.2 145.4 121.8C145.4 121.8 144.8 122.2 144.9 122.4C145 122.5 145.7 122.2 145.6 122.2C146.6 121.7 147.7 121 148.6 120.3C155.5 114.5 162 108.3 167.9 101.5C168.5 100.8 167.1 101.5 166.9 101.6C165.9 102.1 164.8 102.7 164.1 103.5Z" fill="white"/>
</g>
<mask id="mask81_201_715" style="mask-type:luminance" maskUnits="userSpaceOnUse" x="51" y="51" width="398" height="398">
<path d="M250 448.5C359.629 448.5 448.5 359.629 448.5 250C448.5 140.371 359.629 51.5 250 51.5C140.371 51.5 51.5 140.371 51.5 250C51.5 359.629 140.371 448.5 250 448.5Z" fill="white"/>
</mask>
<g mask="url(#mask81_201_715)">
<path d="M129.2 135.6C124.8 139.8 120.5 143.9 116.1 148.1C115.3 148.9 116.3 149.7 117.1 149.9C118.2 150.2 119.7 150.1 120.5 149.3C124.9 145.1 129.2 141 133.6 136.8C134.4 136 133.4 135.2 132.6 135C131.5 134.8 130 134.8 129.2 135.6Z" fill="white"/>
</g>
<mask id="mask82_201_715" style="mask-type:luminance" maskUnits="userSpaceOnUse" x="51" y="51" width="398" height="398">
<path d="M250 448.5C359.629 448.5 448.5 359.629 448.5 250C448.5 140.371 359.629 51.5 250 51.5C140.371 51.5 51.5 140.371 51.5 250C51.5 359.629 140.371 448.5 250 448.5Z" fill="white"/>
</mask>
<g mask="url(#mask82_201_715)">
<path d="M96.3 167C91.7 172.7 86 177.4 79.5 180.8C78.9 181.1 80.9 181.8 81 181.9C81.6 182.1 82.2 182.3 82.9 182.4C83.2 182.5 83.8 182.6 84.1 182.4C90.7 179 96.5 174.2 101.2 168.4C101.5 168.1 99.1 167.3 98.9 167.2C98.3 167.1 96.7 166.5 96.3 167Z" fill="white"/>
</g>
<mask id="mask83_201_715" style="mask-type:luminance" maskUnits="userSpaceOnUse" x="51" y="51" width="398" height="398">
<path d="M250 448.5C359.629 448.5 448.5 359.629 448.5 250C448.5 140.371 359.629 51.5 250 51.5C140.371 51.5 51.5 140.371 51.5 250C51.5 359.629 140.371 448.5 250 448.5Z" fill="white"/>
</mask>
<g mask="url(#mask83_201_715)">
<path d="M70.3 189C65.5 193.5 60.7 197.8 55.7 202C55.5 202.2 57.4 203.6 57.5 203.7C58 204 58.5 204.4 59 204.6C59.1 204.7 59.6 205 59.7 204.8C64.7 200.6 69.6 196.2 74.3 191.8C74.5 191.6 72.6 190.2 72.5 190.1C72 189.8 71.5 189.4 71 189.2C70.9 189.2 70.5 188.9 70.3 189Z" fill="white"/>
</g>
<mask id="mask84_201_715" style="mask-type:luminance" maskUnits="userSpaceOnUse" x="51" y="51" width="398" height="398">
<path d="M250 448.5C359.629 448.5 448.5 359.629 448.5 250C448.5 140.371 359.629 51.5 250 51.5C140.371 51.5 51.5 140.371 51.5 250C51.5 359.629 140.371 448.5 250 448.5Z" fill="white"/>
</mask>
<g mask="url(#mask84_201_715)">
<path d="M224.2 50.3C208.3 61.9 192.2 73.2 175.9 84.3C175.2 84.8 174 85.9 174.5 86.8C175.1 87.7 176.7 87.1 177.4 86.7C193.6 75.6 209.7 64.2 225.7 52.7C226.4 52.2 227.6 51.2 227.1 50.2C226.5 49.2 224.8 49.8 224.2 50.3Z" fill="white"/>
</g>
<mask id="mask85_201_715" style="mask-type:luminance" maskUnits="userSpaceOnUse" x="51" y="51" width="398" height="398">
<path d="M250 448.5C359.629 448.5 448.5 359.629 448.5 250C448.5 140.371 359.629 51.5 250 51.5C140.371 51.5 51.5 140.371 51.5 250C51.5 359.629 140.371 448.5 250 448.5Z" fill="white"/>
</mask>
<g mask="url(#mask85_201_715)">
<path d="M154.7 95.6C147.2 106.6 133.6 110.6 123.8 119.1C123.4 119.4 125.5 119.1 125.6 119.1C126.5 118.9 127.8 118.7 128.5 118C138.3 109.5 151.8 105.5 159.4 94.5C159.7 94.1 157.7 94.4 157.6 94.5C156.9 94.7 155.1 94.9 154.7 95.6Z" fill="white"/>
</g>
<mask id="mask86_201_715" style="mask-type:luminance" maskUnits="userSpaceOnUse" x="51" y="51" width="398" height="398">
<path d="M250 448.5C359.629 448.5 448.5 359.629 448.5 250C448.5 140.371 359.629 51.5 250 51.5C140.371 51.5 51.5 140.371 51.5 250C51.5 359.629 140.371 448.5 250 448.5Z" fill="white"/>
</mask>
<g mask="url(#mask86_201_715)">
<path d="M106.7 129.7C97.8 140.4 85.6 147.4 75.3 156.6C72.4 159.2 69.6 162 67.1 165C65.1 167.5 69.1 169.9 70.9 167.7C79.7 156.9 91.9 149.9 102.3 140.8C105.2 138.2 108 135.4 110.5 132.4C112.6 129.9 108.5 127.5 106.7 129.7Z" fill="white"/>
</g>
<mask id="mask87_201_715" style="mask-type:luminance" maskUnits="userSpaceOnUse" x="51" y="51" width="398" height="398">
<path d="M250 448.5C359.629 448.5 448.5 359.629 448.5 250C448.5 140.371 359.629 51.5 250 51.5C140.371 51.5 51.5 140.371 51.5 250C51.5 359.629 140.371 448.5 250 448.5Z" fill="white"/>
</mask>
<g mask="url(#mask87_201_715)">
<path d="M216 53.0998C209.8 58.7998 201.6 62.0998 194.2 65.7998C185.9 69.8998 177.6 74.0998 169.3 78.1998C164.6 80.5998 159.8 82.8998 155.1 85.2998C152.7 86.4998 155.4 90.6998 157.5 89.5998C174.2 81.2998 190.9 73.1998 207.5 64.6998C211.7 62.4998 215.8 60.0998 219.3 56.8998C221.1 55.1998 217.8 51.3998 216 53.0998Z" fill="white"/>
</g>
<mask id="mask88_201_715" style="mask-type:luminance" maskUnits="userSpaceOnUse" x="51" y="51" width="398" height="398">
<path d="M250 448.5C359.629 448.5 448.5 359.629 448.5 250C448.5 140.371 359.629 51.5 250 51.5C140.371 51.5 51.5 140.371 51.5 250C51.5 359.629 140.371 448.5 250 448.5Z" fill="white"/>
</mask>
<g mask="url(#mask88_201_715)">
<path d="M143.4 91.1C135.9 95.8 127.7 99.2 119.6 102.8C111 106.7 102.4 110.5 93.7999 114.4C88.8999 116.6 84.0999 118.8 79.1999 120.9C76.4999 122.1 78.9999 126.4 81.5999 125.3C98.6999 117.6 115.8 110.1 132.8 102.3C137.3 100.3 141.6 98.1 145.8 95.5C146.9 94.8 147.3 93.6 146.6 92.4C146.1 91.3 144.5 90.4 143.4 91.1Z" fill="white"/>
</g>
</svg>
