<svg width="500" height="500" viewBox="0 0 500 500" fill="none" xmlns="http://www.w3.org/2000/svg">
<mask id="mask0_201_732" style="mask-type:luminance" maskUnits="userSpaceOnUse" x="51" y="51" width="398" height="398">
<path d="M250 448.5C359.629 448.5 448.5 359.629 448.5 250C448.5 140.371 359.629 51.5 250 51.5C140.371 51.5 51.5 140.371 51.5 250C51.5 359.629 140.371 448.5 250 448.5Z" fill="white"/>
</mask>
<g mask="url(#mask0_201_732)">
<path d="M70.0998 111.7C68.8998 149.7 68.2998 187.8 68.2998 225.8C68.2998 263.9 68.8998 301.9 69.9998 339.9C70.5998 361.2 71.4998 382.6 72.4998 403.9C72.4998 404.4 74.7998 403.3 74.9998 403.2C75.4998 402.9 76.9998 402.3 76.9998 401.5C75.1998 363.5 73.9998 325.5 73.2998 287.4C72.6998 249.4 72.5998 211.3 73.0998 173.2C73.3998 151.8 73.8998 130.5 74.4998 109.1C74.4998 108.7 72.1998 109.7 71.9998 109.8C71.4998 110.3 70.0998 110.9 70.0998 111.7Z" fill="white"/>
</g>
<mask id="mask1_201_732" style="mask-type:luminance" maskUnits="userSpaceOnUse" x="51" y="51" width="398" height="398">
<path d="M250 448.5C359.629 448.5 448.5 359.629 448.5 250C448.5 140.371 359.629 51.5 250 51.5C140.371 51.5 51.5 140.371 51.5 250C51.5 359.629 140.371 448.5 250 448.5Z" fill="white"/>
</mask>
<g mask="url(#mask1_201_732)">
<path d="M89.2002 84.9002C87.3002 126.4 86.1002 168 85.6002 209.6C85.1002 251.2 85.3002 292.7 86.1002 334.3C86.6002 357.6 87.3002 380.9 88.2002 404.3C88.2002 405.3 88.9002 406.3 89.3002 407.2C89.4002 407.4 90.4002 408.9 90.4002 408.6C88.8002 367.1 87.8002 325.5 87.6002 283.9C87.3002 242.3 87.8002 200.8 88.9002 159.2C89.5002 135.9 90.4002 112.6 91.4002 89.3002C91.4002 88.4002 90.7002 87.2002 90.3002 86.4002C90.2002 86.0002 89.2002 84.6002 89.2002 84.9002Z" fill="white"/>
</g>
<mask id="mask2_201_732" style="mask-type:luminance" maskUnits="userSpaceOnUse" x="51" y="51" width="398" height="398">
<path d="M250 448.5C359.629 448.5 448.5 359.629 448.5 250C448.5 140.371 359.629 51.5 250 51.5C140.371 51.5 51.5 140.371 51.5 250C51.5 359.629 140.371 448.5 250 448.5Z" fill="white"/>
</mask>
<g mask="url(#mask2_201_732)">
<path d="M96.4002 76.0001C96.2002 120.3 96.4002 164.5 97.1002 208.8C97.7002 252.8 98.8002 296.8 100.3 340.9C101.1 365.7 102.1 390.5 103.2 415.4C103.3 416.7 104.2 417.9 105.4 418.1C106.6 418.3 107.7 417.5 107.6 416.3C105.6 372.1 104.1 327.9 103 283.6C101.9 239.6 101.2 195.6 100.9 151.5C100.7 126.7 100.7 101.8 100.8 77.0001C100.9 74.2001 96.4002 72.8001 96.4002 76.0001Z" fill="white"/>
</g>
<mask id="mask3_201_732" style="mask-type:luminance" maskUnits="userSpaceOnUse" x="51" y="51" width="398" height="398">
<path d="M250 448.5C359.629 448.5 448.5 359.629 448.5 250C448.5 140.371 359.629 51.5 250 51.5C140.371 51.5 51.5 140.371 51.5 250C51.5 359.629 140.371 448.5 250 448.5Z" fill="white"/>
</mask>
<g mask="url(#mask3_201_732)">
<path d="M49.3998 149.5C48.9998 177.6 48.7998 205.7 48.9998 233.8C49.1998 261.9 49.6998 290 50.4998 318.1C50.9998 333.9 51.4998 349.7 52.0998 365.5C52.0998 366.6 57.0998 366.3 57.0998 365C55.8998 336.9 55.0998 308.8 54.5998 280.7C54.0998 252.6 53.8998 224.5 53.8998 196.4C53.9998 180.6 54.0998 164.8 54.3998 149C54.3998 147.9 49.3998 148.2 49.3998 149.5Z" fill="white"/>
</g>
<mask id="mask4_201_732" style="mask-type:luminance" maskUnits="userSpaceOnUse" x="51" y="51" width="398" height="398">
<path d="M250 448.5C359.629 448.5 448.5 359.629 448.5 250C448.5 140.371 359.629 51.5 250 51.5C140.371 51.5 51.5 140.371 51.5 250C51.5 359.629 140.371 448.5 250 448.5Z" fill="white"/>
</mask>
<g mask="url(#mask4_201_732)">
<path d="M113.4 71.5001C112.3 117.4 111.8 163.4 111.9 209.3C111.9 255 112.5 300.7 113.6 346.4C114.2 372.2 115 397.9 116 423.7C116.1 426.4 121 427 120.9 424.1C119.2 378.2 118 332.3 117.4 286.3C116.8 240.6 116.7 194.9 117.1 149.2C117.4 123.4 117.8 97.6001 118.4 71.9001C118.4 69.3001 113.4 68.6001 113.4 71.5001Z" fill="white"/>
</g>
<mask id="mask5_201_732" style="mask-type:luminance" maskUnits="userSpaceOnUse" x="51" y="51" width="398" height="398">
<path d="M250 448.5C359.629 448.5 448.5 359.629 448.5 250C448.5 140.371 359.629 51.5 250 51.5C140.371 51.5 51.5 140.371 51.5 250C51.5 359.629 140.371 448.5 250 448.5Z" fill="white"/>
</mask>
<g mask="url(#mask5_201_732)">
<path d="M127.1 68.6998C124.9 118.5 123.9 168.4 124 218.2C124.1 267.8 125.4 317.4 127.9 367C129.3 394.8 131 422.6 133.2 450.4C133.3 451.6 134.3 452.7 135.5 453C136.5 453.2 137.8 452.8 137.7 451.6C133.9 401.9 131.3 352.1 129.8 302.2C128.4 252.6 128.1 203 129 153.4C129.5 125.6 130.4 97.6998 131.6 69.8998C131.7 67.6998 127.2 65.8998 127.1 68.6998Z" fill="white"/>
</g>
<mask id="mask6_201_732" style="mask-type:luminance" maskUnits="userSpaceOnUse" x="51" y="51" width="398" height="398">
<path d="M250 448.5C359.629 448.5 448.5 359.629 448.5 250C448.5 140.371 359.629 51.5 250 51.5C140.371 51.5 51.5 140.371 51.5 250C51.5 359.629 140.371 448.5 250 448.5Z" fill="white"/>
</mask>
<g mask="url(#mask6_201_732)">
<path d="M144.5 58.0998C143.9 109.6 144.2 161.2 145.3 212.7C146.5 264 148.5 315.2 151.5 366.4C153.2 395.1 155.1 423.8 157.3 452.5C157.5 454.5 162.4 453.7 162.2 451.6C158.2 400.2 155.2 348.8 153 297.3C150.8 246.1 149.6 194.8 149.2 143.5C149 114.7 149 85.8999 149.4 57.1999C149.4 55.1999 144.5 55.9999 144.5 58.0998Z" fill="white"/>
</g>
<mask id="mask7_201_732" style="mask-type:luminance" maskUnits="userSpaceOnUse" x="51" y="51" width="398" height="398">
<path d="M250 448.5C359.629 448.5 448.5 359.629 448.5 250C448.5 140.371 359.629 51.5 250 51.5C140.371 51.5 51.5 140.371 51.5 250C51.5 359.629 140.371 448.5 250 448.5Z" fill="white"/>
</mask>
<g mask="url(#mask7_201_732)">
<path d="M170.9 46.2998C173.8 102.8 176.8 159.4 180 215.9C183.2 272.4 186.5 328.9 189.9 385.4C191.8 417.1 193.8 448.8 195.8 480.5C195.9 482.2 199.6 485.1 199.4 482.3C195.8 425.8 192.3 369.3 189 312.8C185.7 256.3 182.5 199.8 179.4 143.3C177.7 111.6 176 79.8998 174.4 48.0998C174.4 46.3998 170.7 43.3998 170.9 46.2998Z" fill="white"/>
</g>
<mask id="mask8_201_732" style="mask-type:luminance" maskUnits="userSpaceOnUse" x="51" y="51" width="398" height="398">
<path d="M250 448.5C359.629 448.5 448.5 359.629 448.5 250C448.5 140.371 359.629 51.5 250 51.5C140.371 51.5 51.5 140.371 51.5 250C51.5 359.629 140.371 448.5 250 448.5Z" fill="white"/>
</mask>
<g mask="url(#mask8_201_732)">
<path d="M150.6 40.0002C153.8 97.0002 157.9 154 162.8 210.9C167.8 267.8 173.6 324.6 180.4 381.4C184.2 413.2 188.2 445 192.6 476.7C192.7 477.8 193.8 478.9 194.8 479.4C195.4 479.7 196.6 480.1 196.5 479C188.8 422.4 181.9 365.7 175.9 308.9C169.9 252.1 164.9 195.2 160.7 138.2C158.4 106.3 156.3 74.3002 154.5 42.3002C154.3 40.9002 150.5 38.0002 150.6 40.0002Z" fill="white"/>
</g>
<mask id="mask9_201_732" style="mask-type:luminance" maskUnits="userSpaceOnUse" x="51" y="51" width="398" height="398">
<path d="M250 448.5C359.629 448.5 448.5 359.629 448.5 250C448.5 140.371 359.629 51.5 250 51.5C140.371 51.5 51.5 140.371 51.5 250C51.5 359.629 140.371 448.5 250 448.5Z" fill="white"/>
</mask>
<g mask="url(#mask9_201_732)">
<path d="M189.6 49.3998C192.5 104.8 194.7 160.2 196.1 215.7C197.6 271.2 198.3 326.6 198.4 382.1C198.4 413.2 198.3 444.4 197.9 475.5C197.9 478.3 202.9 478.3 202.9 475.5C203.6 420 203.6 364.5 203 309.1C202.3 253.6 200.9 198.2 198.8 142.7C197.6 111.6 196.2 80.4998 194.6 49.3998C194.5 46.5998 189.5 46.5998 189.6 49.3998Z" fill="white"/>
</g>
<mask id="mask10_201_732" style="mask-type:luminance" maskUnits="userSpaceOnUse" x="51" y="51" width="398" height="398">
<path d="M250 448.5C359.629 448.5 448.5 359.629 448.5 250C448.5 140.371 359.629 51.5 250 51.5C140.371 51.5 51.5 140.371 51.5 250C51.5 359.629 140.371 448.5 250 448.5Z" fill="white"/>
</mask>
<g mask="url(#mask10_201_732)">
<path d="M221.1 43.1002C220.8 95.3002 221 147.5 221.5 199.7C222 251.6 222.9 303.6 224.2 355.5C224.9 384.8 225.8 414.1 226.8 443.4C226.8 443.6 231.6 442.9 231.6 441.9C229.9 389.7 228.5 337.5 227.6 285.3C226.7 233.4 226.1 181.4 225.9 129.5C225.8 100.2 225.8 70.9002 226 41.6002C225.8 41.5002 221.1 42.1002 221.1 43.1002Z" fill="white"/>
</g>
<mask id="mask11_201_732" style="mask-type:luminance" maskUnits="userSpaceOnUse" x="51" y="51" width="398" height="398">
<path d="M250 448.5C359.629 448.5 448.5 359.629 448.5 250C448.5 140.371 359.629 51.5 250 51.5C140.371 51.5 51.5 140.371 51.5 250C51.5 359.629 140.371 448.5 250 448.5Z" fill="white"/>
</mask>
<g mask="url(#mask11_201_732)">
<path d="M247.6 36.0002C243.8 88.4002 241.9 140.9 242.1 193.4C242.2 245.9 244.3 298.4 248.3 350.8C250.6 380.2 253.5 409.5 256.9 438.7C257.2 440.8 262 442.1 261.7 439.8C255.5 387.6 251.2 335.3 248.9 282.8C246.6 230.3 246.2 177.8 247.8 125.3C248.7 95.9002 250.2 66.5002 252.4 37.1002C252.5 35.0002 247.8 33.6002 247.6 36.0002Z" fill="white"/>
</g>
<mask id="mask12_201_732" style="mask-type:luminance" maskUnits="userSpaceOnUse" x="51" y="51" width="398" height="398">
<path d="M250 448.5C359.629 448.5 448.5 359.629 448.5 250C448.5 140.371 359.629 51.5 250 51.5C140.371 51.5 51.5 140.371 51.5 250C51.5 359.629 140.371 448.5 250 448.5Z" fill="white"/>
</mask>
<g mask="url(#mask12_201_732)">
<path d="M263.3 43.2999C262.9 97.6999 263 152.2 263.6 206.6C264.1 260.9 265 315.1 266.6 369.4C267.5 398.6 269.1 428.1 276.1 456.6C276.2 456.8 280.9 455.4 280.7 454.7C274.5 429.3 272.5 403.1 271.5 377C270.5 350.1 270.1 323.2 269.6 296.2C268.6 241.8 268 187.4 267.8 132.9C267.7 102.4 267.8 71.8999 268 41.3999C267.9 41.5999 263.3 42.2999 263.3 43.2999Z" fill="white"/>
</g>
<mask id="mask13_201_732" style="mask-type:luminance" maskUnits="userSpaceOnUse" x="51" y="51" width="398" height="398">
<path d="M250 448.5C359.629 448.5 448.5 359.629 448.5 250C448.5 140.371 359.629 51.5 250 51.5C140.371 51.5 51.5 140.371 51.5 250C51.5 359.629 140.371 448.5 250 448.5Z" fill="white"/>
</mask>
<g mask="url(#mask13_201_732)">
<path d="M284.9 41.8C283.5 98.6 283 155.5 283.4 212.4C283.8 269.3 285.1 326.1 287.3 382.9C288.5 414.8 290 446.7 291.8 478.5C291.9 479.9 296.7 480.5 296.6 479.8C293.4 423 291.1 366.2 289.7 309.4C288.3 252.6 287.8 195.7 288.2 138.8C288.4 106.9 288.9 75 289.7 43.1C289.7 41.7 284.9 41 284.9 41.8Z" fill="white"/>
</g>
<mask id="mask14_201_732" style="mask-type:luminance" maskUnits="userSpaceOnUse" x="51" y="51" width="398" height="398">
<path d="M250 448.5C359.629 448.5 448.5 359.629 448.5 250C448.5 140.371 359.629 51.5 250 51.5C140.371 51.5 51.5 140.371 51.5 250C51.5 359.629 140.371 448.5 250 448.5Z" fill="white"/>
</mask>
<g mask="url(#mask14_201_732)">
<path d="M298.5 44.9002C300.5 105.6 303.3 166.2 306.9 226.8C310.5 287.1 314.8 347.3 319.9 407.5C322.8 441.6 325.9 475.6 329.3 509.6C329.6 512.2 334.6 512.1 334.3 509.4C328.3 449 323.1 388.5 318.6 328C314.2 267.8 310.5 207.5 307.6 147.2C306 113 304.6 78.9002 303.4 44.7002C303.4 42.0002 298.4 42.2002 298.5 44.9002Z" fill="white"/>
</g>
<mask id="mask15_201_732" style="mask-type:luminance" maskUnits="userSpaceOnUse" x="51" y="51" width="398" height="398">
<path d="M250 448.5C359.629 448.5 448.5 359.629 448.5 250C448.5 140.371 359.629 51.5 250 51.5C140.371 51.5 51.5 140.371 51.5 250C51.5 359.629 140.371 448.5 250 448.5Z" fill="white"/>
</mask>
<g mask="url(#mask15_201_732)">
<path d="M332.5 51.1001C332.7 105.9 333.3 160.7 334.4 215.6C335.4 270.1 336.9 324.7 338.7 379.2C339.7 410 340.9 440.7 342.2 471.4C342.3 473.3 347 475 346.9 472.8C344.6 418 342.6 363.2 341.1 308.4C339.6 253.9 338.5 199.3 337.8 144.8C337.4 114 337.2 83.3001 337 52.5001C337.2 50.6001 332.5 48.9001 332.5 51.1001Z" fill="white"/>
</g>
<mask id="mask16_201_732" style="mask-type:luminance" maskUnits="userSpaceOnUse" x="51" y="51" width="398" height="398">
<path d="M250 448.5C359.629 448.5 448.5 359.629 448.5 250C448.5 140.371 359.629 51.5 250 51.5C140.371 51.5 51.5 140.371 51.5 250C51.5 359.629 140.371 448.5 250 448.5Z" fill="white"/>
</mask>
<g mask="url(#mask16_201_732)">
<path d="M345.5 67.0998C349.2 115.3 352.6 163.6 355.5 211.9C358.4 260.1 360.9 308.3 363 356.5C364.2 383.6 365.2 410.6 366.1 437.7C366.2 439.9 371.1 440.4 371 438.4C369.4 389.9 367.3 341.4 364.9 293C362.5 244.9 359.6 196.8 356.3 148.8C354.5 121.5 352.5 94.2998 350.4 66.9998C350.2 64.9998 345.3 64.6998 345.5 67.0998Z" fill="white"/>
</g>
<mask id="mask17_201_732" style="mask-type:luminance" maskUnits="userSpaceOnUse" x="51" y="51" width="398" height="398">
<path d="M250 448.5C359.629 448.5 448.5 359.629 448.5 250C448.5 140.371 359.629 51.5 250 51.5C140.371 51.5 51.5 140.371 51.5 250C51.5 359.629 140.371 448.5 250 448.5Z" fill="white"/>
</mask>
<g mask="url(#mask17_201_732)">
<path d="M361.5 74.6001C364.1 121.3 366.3 168 368.1 214.8C369.9 261.5 371.4 308.3 372.4 355.1C373 381.3 373.5 407.6 373.8 433.8C373.8 436 378.6 437.6 378.5 435.1C377.9 388.3 376.8 341.6 375.4 294.8C374 248 372.2 201.3 370.1 154.6C368.9 128.4 367.6 102.2 366.1 75.9001C366 74.7001 365.1 73.8001 363.9 73.4001C363.2 73.2001 361.4 73.4001 361.5 74.6001Z" fill="white"/>
</g>
<mask id="mask18_201_732" style="mask-type:luminance" maskUnits="userSpaceOnUse" x="51" y="51" width="398" height="398">
<path d="M250 448.5C359.629 448.5 448.5 359.629 448.5 250C448.5 140.371 359.629 51.5 250 51.5C140.371 51.5 51.5 140.371 51.5 250C51.5 359.629 140.371 448.5 250 448.5Z" fill="white"/>
</mask>
<g mask="url(#mask18_201_732)">
<path d="M386.8 76.9001C388.9 124.5 391 172.1 393.1 219.7C395.2 267.1 397.3 314.4 399.3 361.8C400.5 388.5 401.6 415.2 402.8 442C402.9 444.1 407.8 443.3 407.7 441C405.6 393.4 403.5 345.8 401.4 298.2C399.3 250.8 397.2 203.5 395.2 156.1C394 129.4 392.9 102.7 391.7 75.9001C391.6 73.9001 386.7 74.7001 386.8 76.9001Z" fill="white"/>
</g>
<mask id="mask19_201_732" style="mask-type:luminance" maskUnits="userSpaceOnUse" x="51" y="51" width="398" height="398">
<path d="M250 448.5C359.629 448.5 448.5 359.629 448.5 250C448.5 140.371 359.629 51.5 250 51.5C140.371 51.5 51.5 140.371 51.5 250C51.5 359.629 140.371 448.5 250 448.5Z" fill="white"/>
</mask>
<g mask="url(#mask19_201_732)">
<path d="M410.6 125.7C411.8 160.9 413.1 196.1 414.6 231.2C416.1 266.2 417.8 301.2 419.7 336.1C420.8 355.7 421.9 375.4 423.1 395C423.2 396.3 425 396.7 426 396.5C427.3 396.2 428.1 395.3 428 394C425.9 359 424 324.1 422.3 289.1C420.6 254.3 419 219.5 417.7 184.7C416.9 165.1 416.2 145.4 415.6 125.8C415.6 124.5 414.7 123.7 413.4 123.7C412.3 123.7 410.6 124.5 410.6 125.7Z" fill="white"/>
</g>
<mask id="mask20_201_732" style="mask-type:luminance" maskUnits="userSpaceOnUse" x="51" y="51" width="398" height="398">
<path d="M250 448.5C359.629 448.5 448.5 359.629 448.5 250C448.5 140.371 359.629 51.5 250 51.5C140.371 51.5 51.5 140.371 51.5 250C51.5 359.629 140.371 448.5 250 448.5Z" fill="white"/>
</mask>
<g mask="url(#mask20_201_732)">
<path d="M428.5 158.6C429.2 187.2 429.9 215.8 430.6 244.4C431.3 272.9 432 301.4 432.7 330C433.1 346 433.5 362.1 433.9 378.1C434 381 438.7 381.4 438.6 378.2C437.9 349.6 437.2 321 436.5 292.4C435.8 263.9 435.1 235.4 434.4 206.8C434 190.8 433.6 174.7 433.2 158.7C433.1 155.8 428.4 155.4 428.5 158.6Z" fill="white"/>
</g>
<mask id="mask21_201_732" style="mask-type:luminance" maskUnits="userSpaceOnUse" x="51" y="51" width="398" height="398">
<path d="M250 448.5C359.629 448.5 448.5 359.629 448.5 250C448.5 140.371 359.629 51.5 250 51.5C140.371 51.5 51.5 140.371 51.5 250C51.5 359.629 140.371 448.5 250 448.5Z" fill="white"/>
</mask>
<g mask="url(#mask21_201_732)">
<path d="M440.1 176.6C443 203.4 445.3 230.3 447.2 257.2C449.1 284 450.5 310.9 451.4 337.8C451.9 352.9 452.3 368.1 452.5 383.2C452.5 384.1 453.5 385.2 454 385.9C454.1 386.1 455.3 387.5 455.3 387.1C454.9 360.1 454.1 333.2 452.7 306.2C451.4 279.3 449.5 252.5 447.2 225.7C445.9 210.6 444.4 195.5 442.8 180.5C442.7 179.6 441.8 178.5 441.3 177.8C441.3 177.6 440.1 176.3 440.1 176.6Z" fill="white"/>
</g>
<mask id="mask22_201_732" style="mask-type:luminance" maskUnits="userSpaceOnUse" x="51" y="51" width="398" height="398">
<path d="M250 448.5C359.629 448.5 448.5 359.629 448.5 250C448.5 140.371 359.629 51.5 250 51.5C140.371 51.5 51.5 140.371 51.5 250C51.5 359.629 140.371 448.5 250 448.5Z" fill="white"/>
</mask>
<g mask="url(#mask22_201_732)">
<path d="M125.2 158.4C123.5 159.3 122 160.7 121 162.3C120 163.8 119.3 165.9 119.7 167.8C120 169.2 121.4 170.1 122.7 170.5C124 170.9 125.5 170.9 126.8 170.6C129 170 130.5 168.2 131.1 166.1C131.5 164.8 131.6 163.5 131.2 162.3C130.8 161 129.8 160 128.6 159.4C128.1 159.1 127.3 159 126.7 159.1C126.2 159.2 125.5 159.4 125.2 159.7C124.4 160.6 125 161.5 125.9 162C126.1 162.1 125.9 162.1 125.8 161.9C125.8 161.9 125.9 162 126 162C126.2 162.1 125.8 161.7 125.9 161.9C125.9 162 126 162 126 162.1C126.1 162.2 126.1 162.2 126.2 162.3C126.1 162.1 126.2 162.3 126.2 162.4C126.2 162.5 126.3 162.6 126.3 162.7C126.4 162.9 126.4 163 126.4 163.2C126.4 163.3 126.5 163.5 126.4 163.2C126.4 163.3 126.4 163.4 126.4 163.5C126.4 163.9 126.4 164.3 126.3 164.8C126.3 164.9 126.3 165 126.2 165.1C126.2 165 126.3 164.8 126.2 165.2C126.1 165.4 126.1 165.5 126 165.7C125.9 166.1 125.7 166.4 125.5 166.8C125.5 166.9 125.4 166.9 125.4 167C125.4 167 125.2 167.3 125.3 167.1C125.2 167.2 125.2 167.2 125.1 167.3C125 167.4 124.7 167.7 124.9 167.5C124.8 167.6 124.7 167.6 124.6 167.7C124.4 167.8 124.8 167.6 124.8 167.6C124.8 167.6 124.6 167.7 124.5 167.7C124.2 167.8 124.4 167.7 124.5 167.7C124.9 167.6 124.5 167.7 124.4 167.7C124.2 167.8 124.7 167.7 124.7 167.7C124.6 167.7 124.5 167.7 124.4 167.7C124 167.7 124.3 167.7 124.4 167.7C124.9 167.8 124.3 167.6 124.3 167.7C124.4 167.7 124.4 167.7 124.5 167.8C124.7 167.9 124.7 167.9 124.5 167.8C124.8 167.9 124.4 167.6 124.6 167.9C124.8 168.2 124.6 167.9 124.6 167.7C124.6 167.6 124.5 167.4 124.6 167.6C124.6 167.8 124.6 167.5 124.6 167.5C124.6 167.2 124.6 166.8 124.7 166.5C124.7 166.3 124.8 166.2 124.8 166C124.8 165.9 124.9 165.8 124.9 165.7C125.1 165 125.4 164.4 125.8 163.8C125.9 163.6 126 163.5 126.1 163.3C125.9 163.5 126.2 163.2 126.2 163.2C126.4 162.9 126.7 162.6 127 162.4C127.1 162.3 127.3 162.2 127.4 162C127.5 161.9 127.5 161.9 127.6 161.8C127.4 161.9 127.9 161.6 127.6 161.8C127.9 161.6 128.3 161.4 128.6 161.2C129.6 160.7 129.6 159.5 128.8 158.9C127.7 158 126.3 157.9 125.2 158.4Z" fill="white"/>
</g>
<mask id="mask23_201_732" style="mask-type:luminance" maskUnits="userSpaceOnUse" x="51" y="51" width="398" height="398">
<path d="M250 448.5C359.629 448.5 448.5 359.629 448.5 250C448.5 140.371 359.629 51.5 250 51.5C140.371 51.5 51.5 140.371 51.5 250C51.5 359.629 140.371 448.5 250 448.5Z" fill="white"/>
</mask>
<g mask="url(#mask23_201_732)">
<path d="M146.9 194C145 194.9 143.2 196.3 142.3 198.3C141.3 200.5 141.5 202.9 142.6 205C143.8 207.2 146.2 209 148.8 208.8C150.1 208.7 151 207.9 151.8 206.9C152.5 205.9 153.2 204.9 153.7 203.7C154.8 200.9 154.3 197.8 152.3 195.5C151.7 194.8 150.1 194 149.3 194.9C148.5 195.8 149 197.1 149.7 197.9C149.4 197.4 150 198.2 149.7 197.9C149.8 198 149.8 198.1 149.9 198.2C150 198.4 149.8 198 149.8 198C149.8 198.1 150 198.5 150 198.6C150 198.6 149.9 198.2 149.9 198.4C149.9 198.5 149.9 198.7 150 198.8C150 198.9 150 199 150 199.1C150 198.8 150 199.4 150 199.5C150 199.7 150 199.9 149.9 200C149.9 200.1 149.8 200.2 149.8 200.3C149.8 200.6 149.9 199.9 149.8 200.4C149.5 201.3 149.1 202.1 148.6 202.8C148.5 203 148.4 203.1 148.2 203.3C148.1 203.4 148.1 203.5 148 203.6C147.9 203.8 147.8 203.9 147.6 204C147.5 204.1 147.5 204.1 147.4 204.2C147.1 204.5 147.5 204.2 147.3 204.3C147.2 204.3 147.1 204.4 147 204.4C146.9 204.4 146.8 204.4 146.6 204.4C146.7 204.4 146.9 204.5 146.6 204.4C146.5 204.4 146.5 204.4 146.4 204.4C146.1 204.4 146.8 204.6 146.6 204.5C146.5 204.4 146 204.2 146.3 204.4C146.7 204.6 146.2 204.3 146.1 204.3C145.8 204.1 146.5 204.7 146.2 204.3C146.1 204.2 146.1 204.2 146 204.1C145.8 203.9 146.2 204.4 146.2 204.4C146.1 204.2 146 204 145.9 203.9C145.8 203.7 146 204.1 146 204.1C146 204 145.9 203.9 145.9 203.8C145.8 203.6 145.8 203.5 145.7 203.3C145.6 203 145.8 203.7 145.7 203.5C145.7 203.4 145.7 203.4 145.7 203.3C145.7 203.2 145.6 202.8 145.6 202.7C145.6 202.7 145.6 203.1 145.6 202.8C145.6 202.7 145.6 202.6 145.6 202.5C145.6 202.3 145.6 202.2 145.7 202C145.7 201.9 145.7 201.9 145.8 201.8C145.7 202.2 145.8 201.9 145.8 201.8C145.9 201.6 145.9 201.4 146 201.2C146.1 201 146.2 200.8 146.3 200.6C146.3 200.5 146.4 200.5 146.4 200.4C146.3 200.6 146.6 200 146.4 200.4C146.7 200.1 147 199.7 147.3 199.4C147.6 199.1 147.9 198.9 148.3 198.6C148.4 198.5 148.5 198.5 148.6 198.4C148.8 198.3 149 198.2 149.2 198.1C150.3 197.6 150.2 196.2 149.6 195.3C149.3 194.5 148 193.5 146.9 194Z" fill="white"/>
</g>
<mask id="mask24_201_732" style="mask-type:luminance" maskUnits="userSpaceOnUse" x="51" y="51" width="398" height="398">
<path d="M250 448.5C359.629 448.5 448.5 359.629 448.5 250C448.5 140.371 359.629 51.5 250 51.5C140.371 51.5 51.5 140.371 51.5 250C51.5 359.629 140.371 448.5 250 448.5Z" fill="white"/>
</mask>
<g mask="url(#mask24_201_732)">
<path d="M195.1 154.6C193.3 155.9 191.8 157.7 190.9 159.8C189.8 162.1 188.9 164.9 190.9 167.1C191.8 168.1 192.9 168.8 194 169.5C195.4 170.3 197 170.8 198.6 170.5C201.5 170 203 167.3 203.2 164.6C203.4 161.8 202.1 159.2 200.4 157.1C199.7 156.1 198.1 155.6 197 156.2C195.9 156.8 195.5 158 196.3 159C196.6 159.4 196.8 159.7 197.1 160.1C197.2 160.3 197.3 160.5 197.4 160.6C197.5 160.7 197.5 160.8 197.6 161C197.8 161.4 198 161.8 198.1 162.2C198.1 162.3 198.2 162.4 198.2 162.5C198.2 162.5 198.3 162.8 198.2 162.6C198.2 162.4 198.2 162.7 198.2 162.7C198.2 162.9 198.2 163 198.3 163.2C198.3 163.4 198.3 163.6 198.3 163.8C198.3 163.9 198.3 164.4 198.3 164.2C198.3 164 198.3 164.3 198.3 164.3C198.3 164.4 198.3 164.5 198.2 164.7C198.2 164.9 198.1 165.1 198 165.3C198 165.5 198 165.3 198 165.2C198 165.3 197.9 165.4 197.9 165.5C197.8 165.7 197.7 165.8 197.6 166C197.6 166 197.3 166.4 197.5 166.2C197.6 166 197.5 166.2 197.4 166.3C197.3 166.4 197.2 166.4 197.2 166.5C197 166.7 197.4 166.4 197.2 166.5C197.1 166.5 197 166.6 196.9 166.6C196.9 166.6 197.3 166.5 197 166.5C196.7 166.6 197.4 166.5 197 166.5C196.7 166.5 197.2 166.5 197.2 166.5C197.2 166.5 196.4 166.4 197 166.5C196.8 166.5 196.5 166.3 196.3 166.2C196.1 166.1 195.9 166 195.6 165.8C195.1 165.5 195.9 166 195.5 165.7C195.2 165.5 194.8 165.2 194.5 164.9C194.7 165.2 194.6 165 194.5 164.8C194.3 164.5 194.6 165 194.5 164.7C194.5 164.7 194.4 164.4 194.5 164.6C194.5 164.9 194.5 164.4 194.5 164.4C194.5 164.3 194.5 164.1 194.6 164C194.7 163.6 194.8 163.2 194.9 162.9C195 162.7 195.1 162.5 195.1 162.3C195.2 162.1 195.1 162.3 195.1 162.4C195.2 162.3 195.2 162.2 195.3 162.1C195.7 161.2 196.2 160.4 196.9 159.7C197 159.6 197 159.6 197.1 159.5C196.9 159.7 197.3 159.2 197.1 159.5C197.3 159.3 197.4 159.2 197.6 159C198 158.6 198.4 158.3 198.8 158C199.8 157.3 199.5 155.8 198.6 155.1C197.6 153.9 196.2 153.8 195.1 154.6Z" fill="white"/>
</g>
<mask id="mask25_201_732" style="mask-type:luminance" maskUnits="userSpaceOnUse" x="51" y="51" width="398" height="398">
<path d="M250 448.5C359.629 448.5 448.5 359.629 448.5 250C448.5 140.371 359.629 51.5 250 51.5C140.371 51.5 51.5 140.371 51.5 250C51.5 359.629 140.371 448.5 250 448.5Z" fill="white"/>
</mask>
<g mask="url(#mask25_201_732)">
<path d="M224 200.2C221.6 201 219.3 202.2 218 204.4C217.4 205.4 217.2 206.6 217.2 207.8C217.2 208.9 217.2 210 217.7 211.1C218.8 214 222.3 213.9 224.6 212.6C225.8 211.9 226.8 210.9 227.7 209.8C228.5 208.9 229.2 207.9 229.5 206.7C229.9 205.3 230 203.9 229.9 202.5C229.9 201.9 229.7 201.3 229.5 200.7C229.2 200 228.6 199.6 228 199.3C227.6 199.1 226.7 199.2 226.3 199.3C225.7 199.5 225.1 199.9 224.7 200.4C224.4 200.8 224.1 201.4 224.3 201.9C224.4 202.4 224.7 202.7 225.2 203C225.2 203 225.1 203 225.1 202.9C225 202.8 225 202.8 225.1 202.9C225.2 203 225.2 203 225.1 202.9L225 202.8C225 202.9 225.1 202.9 225.1 203L225.2 203.2C225.2 203.2 225.1 202.8 225.2 203.1C225.2 203.2 225.2 203.3 225.3 203.4C225.3 203.6 225.4 203.8 225.4 203.9C225.4 204.1 225.4 204.2 225.4 204.4C225.4 204.5 225.4 205 225.4 204.7C225.4 205.2 225.4 205.7 225.3 206.2C225.3 206.3 225.3 206.4 225.3 206.5C225.3 206.6 225.2 206.9 225.3 206.7C225.4 206.5 225.3 206.7 225.3 206.8C225.3 206.9 225.2 207 225.2 207.1C225.2 207.2 225.1 207.3 225.1 207.4C224.9 207.6 225.1 207.5 225.1 207.4C225.3 207.2 225.1 207.4 225 207.5C224.9 207.6 224.8 207.7 224.8 207.8C224.6 208.1 224.3 208.4 224.1 208.7C223.8 209 224.4 208.4 224 208.8C223.8 209 223.7 209.1 223.5 209.3C223.4 209.4 223.3 209.4 223.2 209.5C223 209.7 223.4 209.4 223.4 209.4C223.3 209.4 223.2 209.5 223.1 209.6C222.9 209.8 222.9 209.6 223.3 209.5C223.2 209.5 223.1 209.6 223.1 209.6C222.8 209.7 223.6 209.5 223.2 209.6H223C223.3 209.6 223.4 209.6 223.2 209.6C223.1 209.6 223.1 209.6 223 209.6C222.7 209.6 223.3 209.7 223.1 209.6L222.9 209.5C222.9 209.5 223.3 209.8 223 209.5L222.9 209.4C222.8 209.3 222.8 209.2 222.8 209.4C222.8 209.5 222.9 209.6 222.8 209.4C222.7 209.2 222.6 209.1 222.5 208.9C222.4 208.7 222.6 209 222.6 209C222.6 209 222.5 208.8 222.5 208.7C222.5 208.5 222.4 208.4 222.4 208.2C222.4 208 222.4 207.9 222.3 207.7C222.3 207.6 222.3 207.3 222.3 207.2C222.4 207.4 222.3 207.5 222.3 207.3C222.3 207.2 222.3 207.1 222.3 207C222.3 206.8 222.3 206.6 222.3 206.4C222.3 206.2 222.3 206 222.4 205.8C222.4 205.7 222.5 205.6 222.5 205.5C222.4 205.7 222.5 205.7 222.5 205.5C222.5 205.4 222.6 205.3 222.6 205.2C222.4 205.4 222.8 204.8 222.6 205.2C222.6 205.1 222.7 205.1 222.7 205C223 204.6 222.4 205.3 222.6 205.1C222.7 205 222.9 204.8 223 204.7C223.2 204.5 222.5 205 222.8 204.8C222.9 204.7 223 204.7 223.1 204.6C223.3 204.5 223.4 204.4 223.6 204.3C223.8 204.2 224 204.2 223.4 204.4C223.5 204.4 223.6 204.3 223.7 204.3C224.1 204.1 224.5 204 225 203.8C225.6 203.6 226.2 203.2 226.6 202.7C226.9 202.3 227.2 201.7 227 201.2C226.3 200.1 225 199.9 224 200.2Z" fill="white"/>
</g>
<mask id="mask26_201_732" style="mask-type:luminance" maskUnits="userSpaceOnUse" x="51" y="51" width="398" height="398">
<path d="M250 448.5C359.629 448.5 448.5 359.629 448.5 250C448.5 140.371 359.629 51.5 250 51.5C140.371 51.5 51.5 140.371 51.5 250C51.5 359.629 140.371 448.5 250 448.5Z" fill="white"/>
</mask>
<g mask="url(#mask26_201_732)">
<path d="M243.4 281.2C240.6 281.9 238.2 284.3 238 287.3C237.8 290.5 240 293.1 242.8 294.4C244 295 245.4 295.4 246.7 295.5C247.7 295.6 248.8 295.5 249.3 294.5C249.6 293.9 249.6 293.2 249.8 292.6C250 291.7 250.4 290.9 250.7 290C251.2 288.6 251.4 287.2 250.7 285.8C249.7 283.9 247 283.1 245 283C244.2 283 243.3 283.2 242.7 283.8C242.2 284.3 241.9 284.9 241.8 285.6C241.4 287.5 242.4 289.4 241.8 291.2C241.7 291.5 242.2 291.8 242.4 291.9C242.9 292.2 243.5 292.4 244 292.6C244.6 292.8 245.2 292.9 245.8 292.9C246 292.9 246.6 292.9 246.6 292.6C247.3 290.4 245.6 287.5 247.2 285.5C247.3 285.3 247.5 285.2 247.7 285.1C247.7 285.1 248 284.9 247.9 285C247.8 285.1 248.4 284.7 247.9 285C247.9 285.1 245.4 284.3 245.3 284.2C245.4 284.3 245.5 284.4 245.6 284.4C245.7 284.6 245.9 284.8 246 285C246.5 286.1 246.4 287.1 246 288.2C245.6 289.5 245 290.6 244.8 291.9C244.7 292.3 244.6 292.9 244.3 293.3C244.2 293.4 244.1 293.4 244.1 293.5C244.1 293.5 245.1 293.7 245.5 293.8C245.1 293.7 245.5 293.8 245.6 293.8C245.2 293.6 245.8 293.9 245.4 293.7C245.1 293.5 244.7 293.2 244.3 292.8C243.9 292.4 243.6 291.9 243.4 291.5C242.9 290.5 242.7 289.4 242.8 288.3C243.1 285.9 244.9 283.6 247.3 283C248.3 282.8 247.1 282 246.7 281.8C245.9 281.5 244.5 281 243.4 281.2Z" fill="white"/>
</g>
<mask id="mask27_201_732" style="mask-type:luminance" maskUnits="userSpaceOnUse" x="51" y="51" width="398" height="398">
<path d="M250 448.5C359.629 448.5 448.5 359.629 448.5 250C448.5 140.371 359.629 51.5 250 51.5C140.371 51.5 51.5 140.371 51.5 250C51.5 359.629 140.371 448.5 250 448.5Z" fill="white"/>
</mask>
<g mask="url(#mask27_201_732)">
<path d="M311.8 261.5C309.4 262.7 307.7 264.7 306.9 267.3C306.2 269.5 306.5 272 307.8 273.9C309.9 277 314.2 276.5 316.7 274.2C318.6 272.5 319.3 270 318.8 267.6C318.3 265.1 316.5 262.9 314 262.2C312.9 261.9 311.4 262.2 310.6 263.1C309.9 263.9 310.1 264.9 311.2 265.2C311.4 265.2 311.6 265.3 311.7 265.4C311.3 265.3 311.7 265.4 311.9 265.5C312.1 265.6 312.2 265.7 312.4 265.8C312.5 265.9 312.6 266 312.7 266.1C313 266.4 313.2 266.7 313.4 267C313.5 267.1 313.5 267.2 313.5 267.2C313.4 266.9 313.5 267.1 313.5 267.2C313.6 267.4 313.7 267.6 313.7 267.8C313.8 268.2 313.9 268.5 314 268.9C314 269 314.1 269.6 314.1 269.3C314.1 269.5 314.1 269.7 314.1 270C314.1 270.4 314 270.8 313.9 271.2C313.9 271.3 313.8 271.4 313.8 271.5C313.7 271.7 313.9 271.2 313.8 271.5C313.7 271.7 313.6 271.9 313.5 272.2C313.4 272.3 313.4 272.4 313.3 272.5C313.1 272.7 313 272.8 312.8 273C312.9 272.9 313.1 272.7 312.8 273C312.4 273.3 312.8 272.9 312.9 273L312.6 273.1C312.9 273 313 272.9 312.8 273C312.6 273 312.7 273 313.1 273C313.2 273 313.6 273 313.2 273C313.3 273 313.7 273.1 313.3 273C313 272.8 313.2 273 313.3 273C313.2 272.9 313.1 272.9 313 272.8C312.9 272.7 312.8 272.7 312.7 272.6C312.8 272.7 312.9 272.8 312.7 272.6C312.5 272.4 312.4 272.2 312.2 272C312.1 271.9 312.1 271.8 312 271.7C312 271.7 311.8 271.4 311.9 271.5C312 271.7 311.8 271.4 311.8 271.3C311.8 271.2 311.7 271.1 311.7 271C311.5 270.6 311.4 270.2 311.4 269.8C311.4 269.6 311.3 269.4 311.3 269.2C311.3 269.5 311.3 269 311.3 268.9C311.3 268.4 311.4 268 311.5 267.5C311.6 267.3 311.6 267 311.7 266.8C311.6 267.1 311.8 266.5 311.9 266.4C312.1 266 312.3 265.5 312.6 265.1C312.3 265.5 312.7 265 312.8 264.9C312.9 264.8 313.1 264.4 313.3 264.4C313.2 264.4 313 264.6 313.2 264.5C313.3 264.4 313.4 264.3 313.6 264.2L313.9 264C313.4 264.3 313.9 264.1 313.9 264C314.7 263.6 315.8 262.6 315.1 261.7C314.3 260.9 312.6 261.1 311.8 261.5Z" fill="white"/>
</g>
<mask id="mask28_201_732" style="mask-type:luminance" maskUnits="userSpaceOnUse" x="51" y="51" width="398" height="398">
<path d="M250 448.5C359.629 448.5 448.5 359.629 448.5 250C448.5 140.371 359.629 51.5 250 51.5C140.371 51.5 51.5 140.371 51.5 250C51.5 359.629 140.371 448.5 250 448.5Z" fill="white"/>
</mask>
<g mask="url(#mask28_201_732)">
<path d="M356.8 218.4C354 220.2 351.6 222.9 350.9 226.2C350.6 227.6 350.6 229.3 351.5 230.5C352.7 232.1 354.5 232.4 356.4 232.4C360.1 232.2 363.6 229.6 364.6 226C365 224.4 364.9 222.7 364.2 221.2C363.4 219.5 361.7 218.8 360 219C357.9 219.3 355.8 220.7 354.9 222.6C354 224.4 354.2 226.4 354.5 228.4C354.9 230.8 359.4 228.9 359.1 226.8C359 226.2 358.9 225.6 358.9 225C358.9 224.7 358.9 224.4 358.9 224.2C358.9 224.1 358.9 223.8 358.9 224C358.9 223.8 358.9 223.6 359 223.5C359 223.4 359.1 223.2 359.1 223.1C359.1 223 359.3 222.7 359.1 223C359.1 222.9 359.2 222.8 359.2 222.7C358.9 223 359.4 222.3 359.2 222.7C359.3 222.6 359.3 222.6 359.4 222.5C359.1 222.9 359.2 222.8 359.3 222.6C359.5 222.4 358.7 222.9 359.2 222.7C359.4 222.6 359.8 222.5 359.1 222.7C359.5 222.6 358.9 222.7 358.9 222.7H359C359.2 222.7 359.2 222.7 358.8 222.7H359.1C358.7 222.7 359.1 222.5 359.1 222.7C359.2 222.7 359.4 222.9 359.1 222.7C359.2 222.8 359.3 222.8 359.4 222.9C359.7 223.1 359.3 222.7 359.5 223C359.6 223.1 359.7 223.3 359.7 223.4C359.7 223.5 359.8 223.6 359.8 223.7C359.8 223.7 360 224.2 359.9 223.9C359.8 223.7 360 224.2 360 224.2C360 224.3 360 224.4 360.1 224.5C360.2 225.2 360.2 225.5 360.1 226C360.1 226.2 360 226.5 359.9 226.7C359.8 227 360.1 226.3 359.9 226.8C359.9 226.9 359.8 227 359.8 227.1C359.7 227.2 359.7 227.3 359.6 227.5C359.5 227.8 359.9 227.1 359.6 227.5C359.5 227.6 359.5 227.7 359.4 227.8C359.3 227.9 359.3 228 359.2 228C359.4 227.8 359.5 227.7 359.4 227.8C359.3 227.9 359.2 228 359.1 228.1C358.8 228.4 359.2 228 359.3 228C359.2 228 358.7 228.3 358.6 228.4C359.4 227.9 358.4 228.6 358.3 228.5C358.3 228.5 358.9 228.4 358.4 228.5C358.2 228.5 358.1 228.6 357.9 228.6C357.8 228.6 357.8 228.6 357.7 228.6C357.5 228.6 357.5 228.6 357.8 228.6H357.5C357.4 228.6 357.2 228.6 357.1 228.6C356.8 228.6 357.5 228.7 357 228.6C356.9 228.6 356.8 228.5 356.7 228.5C356.7 228.5 356.2 228.2 356.5 228.4C356.4 228.3 356.3 228.3 356.2 228.2C356.1 228.1 355.9 227.9 356.1 228.1C355.9 227.9 355.8 227.7 355.7 227.5C355.6 227.2 355.7 227.4 355.7 227.5C355.7 227.4 355.6 227.2 355.6 227.1C355.6 226.9 355.5 226.6 355.5 226.4C355.5 226.3 355.5 226 355.5 226.3C355.5 226.1 355.5 226 355.6 225.8C355.7 225.5 355.7 225.2 355.8 224.9C355.8 224.8 355.9 224.7 355.9 224.6C356.1 224.1 355.7 225 356 224.5C356.2 224 356.5 223.3 356.9 222.9C356.5 223.3 356.9 222.9 357 222.8C357.1 222.7 357.2 222.5 357.3 222.4C357.5 222.2 357.7 221.9 357.9 221.8C357.8 221.9 357.8 221.9 357.7 222C357.8 221.9 357.9 221.9 357.9 221.8C358 221.7 358.2 221.6 358.3 221.5C358.4 221.4 358.5 221.4 358.6 221.3C358.8 221.1 358.8 221.2 358.5 221.4C358.6 221.3 358.7 221.3 358.8 221.2C359.3 220.9 359.8 220.5 360.1 219.9C360.3 219.5 360.4 218.9 360.2 218.5C359.2 217.7 357.6 217.9 356.8 218.4Z" fill="white"/>
</g>
<mask id="mask29_201_732" style="mask-type:luminance" maskUnits="userSpaceOnUse" x="51" y="51" width="398" height="398">
<path d="M250 448.5C359.629 448.5 448.5 359.629 448.5 250C448.5 140.371 359.629 51.5 250 51.5C140.371 51.5 51.5 140.371 51.5 250C51.5 359.629 140.371 448.5 250 448.5Z" fill="white"/>
</mask>
<g mask="url(#mask29_201_732)">
<path d="M100.5 257.1C99.2002 257.3 98.1002 257.7 97.1002 258.4C96.4002 258.9 95.7002 259.5 95.2002 260.2C94.0002 261.4 92.8002 262.8 92.2002 264.4C91.6002 266.1 91.8002 267.9 93.0002 269.2C94.4002 270.8 97.1002 270.9 99.0002 270.3C101 269.7 102.4 268.4 103.4 266.6C104.1 265.3 104.6 263.8 104.9 262.4C105.2 260.8 105 259.2 103.5 258.2C101.3 256.7 98.1002 257.5 96.4002 259.4C95.8002 260.1 95.3002 261.1 95.0002 261.9C94.6002 262.9 94.2002 263.9 94.1002 265C93.9002 267.2 95.3002 269 97.3002 269.6C98.5002 270 100.3 269.6 100.9 268.3C101.4 267.4 101.8 266.4 102.3 265.5C102.5 265.1 102.2 264.6 101.9 264.3C101.5 263.9 100.9 263.8 100.3 263.7C99.2002 263.6 97.9002 264 97.3002 265.1C96.8002 266 96.4002 267 95.9002 267.9C97.1002 267.5 98.3002 267.1 99.5002 266.6C99.1002 266.5 99.9002 266.8 99.5002 266.6C99.6002 266.7 99.9002 266.9 99.5002 266.6C99.4002 266.5 99.2002 266.2 99.4002 266.6C99.3002 266.5 99.2002 266.4 99.2002 266.3C99.1002 266.2 99.1002 266.1 99.0002 265.9C98.8002 265.5 99.0002 266.2 99.0002 265.8C98.9002 265.5 98.9002 265.2 98.9002 265C98.9002 265 98.9002 264.5 98.9002 264.7C98.9002 264.5 99.0002 264.4 99.0002 264.2C99.1002 263.9 99.2002 263.5 99.3002 263.2C99.5002 262.6 99.8002 262 100.1 261.4C100.1 261.4 100.4 260.9 100.2 261.2C100.3 261.1 100.4 260.9 100.5 260.8C100.6 260.7 100.7 260.6 100.8 260.4C101.1 260 100.5 260.6 100.9 260.3C101.1 260.2 100.9 260.1 100.8 260.3C100.9 260.2 101.5 260 100.8 260.3C101.3 260.1 100.2 260.4 100.7 260.3C100.5 260.3 100.2 260.3 100 260.3C99.7002 260.2 99.7002 260.2 99.9002 260.3C99.4002 260 99.7002 260.2 99.9002 260.3C99.8002 260 100.2 260.5 99.9002 260.3C99.9002 260.3 100.1 260.6 100 260.6C100 260.6 99.9002 260.2 100 260.5C100 260.7 100.1 261 100.1 261.2C100.1 261.3 100.1 261.5 100.1 261.6C100.1 261.7 100.1 261.8 100.1 261.9C100.1 261.7 100.1 261.7 100.1 261.9C99.9002 263 99.5002 264.1 99.1002 265.2C99.0002 265.4 98.9002 265.7 98.8002 265.9C98.6002 266.3 99.0002 265.6 98.7002 266C98.6002 266.1 98.5002 266.3 98.4002 266.4C98.2002 266.6 98.0002 266.9 97.8002 267.1C98.2002 266.8 97.8002 267.1 97.7002 267.1L97.4002 267.3C97.5002 267.3 97.6002 267.2 97.6002 267.2C97.5002 267.2 97.4002 267.3 97.4002 267.3C97.4002 267.3 97.3002 267.3 97.3002 267.4C97.1002 267.5 97.1002 267.5 97.5002 267.3C97.4002 267.3 97.2002 267.4 97.1002 267.4C97.2002 267.4 97.4002 267.4 97.5002 267.3C97.4002 267.3 97.3002 267.3 97.2002 267.3C97.3002 267.3 97.5002 267.3 97.6002 267.3C97.5002 267.3 97.4002 267.3 97.3002 267.3C97.4002 267.3 97.5002 267.3 97.7002 267.4C97.6002 267.4 97.5002 267.4 97.4002 267.3C97.0002 267.2 97.6002 267.3 97.6002 267.4C97.5002 267.4 97.4002 267.3 97.4002 267.3C97.6002 267.5 97.7002 267.5 97.5002 267.4C97.4002 267.3 97.3002 267.2 97.2002 267.1C97.5002 267.4 97.2002 267.1 97.2002 267C97.1002 266.9 97.1002 266.8 97.0002 266.6C97.1002 266.9 97.0002 266.5 97.0002 266.5C97.0002 266.3 96.9002 266 96.9002 265.8C96.9002 265.7 96.9002 265.5 96.9002 265.4C96.9002 265.8 97.0002 265.2 97.0002 265.1C97.1002 264.7 97.2002 264.4 97.4002 264.1C97.6002 263.6 97.2002 264.3 97.5002 263.9C97.6002 263.8 97.7002 263.6 97.8002 263.5C98.2002 262.9 98.7002 262.3 99.2002 261.7C99.4002 261.4 99.6002 261.2 99.9002 261C100 260.9 100.1 260.8 100.2 260.7C99.8002 261 100.3 260.6 100.4 260.5C100.5 260.4 100.6 260.3 100.8 260.2C100.9 260.1 101 260.1 101 260C100.7 260.2 100.7 260.2 100.9 260.1C101 260.1 101.3 260 101.3 259.9C100.9 260 100.9 260 101.1 260C101.4 259.9 101.3 259.9 100.9 260C101.5 259.9 102.1 259.8 102.6 259.4C102.9 259.2 103.3 258.7 103.2 258.2C103 257.3 101.4 257 100.5 257.1Z" fill="white"/>
</g>
<mask id="mask30_201_732" style="mask-type:luminance" maskUnits="userSpaceOnUse" x="51" y="51" width="398" height="398">
<path d="M250 448.5C359.629 448.5 448.5 359.629 448.5 250C448.5 140.371 359.629 51.5 250 51.5C140.371 51.5 51.5 140.371 51.5 250C51.5 359.629 140.371 448.5 250 448.5Z" fill="white"/>
</mask>
<g mask="url(#mask30_201_732)">
<path d="M333.4 101.4C331.2 100.8 330 103.6 329.6 105.3C329.3 106.6 329.3 107.9 329.7 109.2C330.2 110.6 331.1 111.8 332.3 112.7C333.9 114 336.3 114.5 337.7 112.7C338.8 111.3 339.3 109.5 339.2 107.7C339 105.1 337.7 102.4 335.4 101.1C335 100.9 334.5 100.6 334.1 100.7C333.7 100.8 333.5 101.1 333.5 101.5C333.5 102.6 334.3 103.9 335.3 104.5C335.4 104.5 335.7 104.7 335.7 104.8C335.7 104.8 335.3 104.4 335.5 104.6C335.6 104.7 335.8 105 335.5 104.6C335 104.1 335.8 105.1 335.4 104.5C335 103.9 335.6 105 335.4 104.4C335.2 104 335.4 104.5 335.5 104.7C335.6 105 335.4 104.6 335.4 104.5C335.4 104.6 335.4 104.7 335.5 104.7C335.5 104.9 335.6 105 335.6 105.2V105.4C335.6 105.4 335.6 105 335.6 105.3C335.6 105.6 335.6 105.9 335.6 106.3C335.6 106.5 335.6 106.6 335.5 106.8C335.5 107 335.5 107 335.5 106.8C335.5 106.9 335.5 107 335.4 107C335.2 107.7 334.9 108.4 334.5 109C334.6 108.9 334.6 108.8 334.7 108.7C334.4 109.1 334 109.5 333.5 109.7C333.6 109.7 333.7 109.6 333.8 109.6C333.6 109.7 333.5 109.7 333.3 109.7C333.2 109.7 333.1 109.7 333.1 109.7C332.9 109.7 333 109.7 333.1 109.7C333 109.7 332.7 109.6 332.6 109.6C332.7 109.6 332.9 109.7 332.7 109.6C332.6 109.6 332.5 109.5 332.5 109.5C332.6 109.5 332.9 109.8 332.7 109.6L332.5 109.5C332.5 109.5 333 109.9 332.7 109.6C332.4 109.4 332.9 109.8 332.9 109.8C332.7 109.5 333.1 110 333.1 110L333 109.8C333 109.8 333.2 110.3 333.1 110C333 109.7 333.2 110.3 333.1 110.1C333.1 110 333.1 109.9 333 109.8C333 109.8 333 109.4 333 109.7C333 109.9 333 109.6 333 109.6C333 109.5 333 109.4 333 109.3C333 109.1 333 108.9 333.1 108.7C333.1 108.5 333.1 108.9 333.1 108.6C333.1 108.5 333.2 108.4 333.2 108.3C333.4 107.5 333.8 106.8 334.2 106.1C334.1 106.2 334.1 106.3 334 106.4C334.3 106.1 334.6 105.8 335 105.6C334.9 105.6 334.9 105.6 334.8 105.6C334.9 105.6 335 105.6 335 105.6C335.4 105.7 335.8 105.5 335.9 105.2C336.1 104.8 335.9 104.2 335.8 103.8C335.4 102.7 334.6 101.7 333.4 101.4Z" fill="white"/>
</g>
<mask id="mask31_201_732" style="mask-type:luminance" maskUnits="userSpaceOnUse" x="51" y="51" width="398" height="398">
<path d="M250 448.5C359.629 448.5 448.5 359.629 448.5 250C448.5 140.371 359.629 51.5 250 51.5C140.371 51.5 51.5 140.371 51.5 250C51.5 359.629 140.371 448.5 250 448.5Z" fill="white"/>
</mask>
<g mask="url(#mask31_201_732)">
<path d="M263.4 84.9999C261 85.6999 258.3 86.9999 257.8 89.6999C257.6 90.7999 257.9 91.8999 258.8 92.6999C260 93.7999 261.9 93.8999 263.4 93.9999C264.9 94.0999 266.8 94.2999 268.2 93.2999C269.1 92.6999 269.7 91.6999 270 90.5999C270.2 89.4999 270.1 88.1999 269.5 87.1999C269.2 86.6999 268.7 86.2999 268.1 86.1999C267.4 85.9999 266.6 85.8999 265.9 85.8999C265 85.7999 264.1 85.7999 263.2 85.7999C262 85.8999 260.7 86.4999 260.3 87.7999C259.8 89.2999 260.4 90.9999 261.1 92.3999C261.2 92.5999 261.7 92.5999 261.8 92.5999C262.4 92.6999 263 92.7999 263.6 92.7999C264.2 92.7999 264.8 92.8999 265.4 92.7999C265.5 92.7999 266.2 92.6999 266.1 92.6999C265.2 90.7999 264.3 88.1999 266.4 86.6999C266.4 86.6999 266.3 86.6999 266.3 86.7999C266.5 86.6999 266.6 86.5999 266.8 86.4999C266.9 86.3999 267.2 86.3999 267.3 86.2999C267.3 86.2999 267.3 86.2999 267.2 86.2999C266.6 86.2999 265.9 86.2999 265.3 86.1999C264.7 86.2999 264.1 86.1999 263.5 85.9999H263.6C263.8 86.0999 263.9 86.1999 264.1 86.2999L264 86.1999C264.9 87.0999 265.1 88.4999 264.9 89.6999C264.7 90.8999 264.2 91.9999 263.2 92.6999C263.2 92.6999 263.3 92.6999 263.3 92.5999C263 92.7999 262.7 92.8999 262.4 92.9999C262.2 93.0999 262.1 93.0999 261.9 93.0999C262.1 93.0999 261.8 93.0999 261.8 93.0999C261.8 92.9999 263.9 93.1999 263.3 93.1999C262.8 93.1999 264.8 93.1999 264.8 93.3999L264.6 93.2999C264.4 93.2999 264.8 93.3999 264.5 93.2999C264.4 93.2999 264.4 93.1999 264.3 93.1999C264 93.0999 263.7 92.8999 263.5 92.6999L263.6 92.7999C262.7 91.9999 262.5 90.7999 262.7 89.6999C263 88.3999 263.8 87.3999 264.9 86.6999C264.9 86.6999 264.8 86.6999 264.8 86.7999C265.8 86.0999 266.9 85.6999 268.1 85.3999C268.4 85.2999 267.8 85.1999 267.9 85.1999C267.4 85.0999 266.9 84.9999 266.4 84.9999C265.8 84.8999 265.1 84.8999 264.5 84.8999C264.1 84.8999 263.7 84.8999 263.4 84.9999Z" fill="white"/>
</g>
<mask id="mask32_201_732" style="mask-type:luminance" maskUnits="userSpaceOnUse" x="51" y="51" width="398" height="398">
<path d="M250 448.5C359.629 448.5 448.5 359.629 448.5 250C448.5 140.371 359.629 51.5 250 51.5C140.371 51.5 51.5 140.371 51.5 250C51.5 359.629 140.371 448.5 250 448.5Z" fill="white"/>
</mask>
<g mask="url(#mask32_201_732)">
<path d="M391.3 153.5C389.1 155.3 386.8 157.4 386.2 160.3C385.6 163.1 386.9 166.2 389.6 167.5C392.7 168.9 396 166.9 397.3 164.1C398 162.6 398.3 161.1 398.5 159.5C398.7 158 398.9 156.4 398.5 154.9C398 152.9 396.3 151.6 394.3 151.6C392.3 151.6 390.4 153.1 390.3 155.2C390.3 156.5 391.6 157.4 392.8 157.2C394.1 157.1 395.2 156.2 395.3 154.8C395.3 154.4 395.3 155 395.3 155C395.2 155.2 395.1 155.5 394.9 155.7C395.2 155.4 394.6 155.9 394.6 155.9C394.9 155.7 394.3 156 394.3 156C394.3 156 394.5 156 394.5 155.9C394 156.1 393.9 156 394.2 156C393.5 156 393.8 156 393.9 156C394.3 156.1 393.4 155.8 393.8 156C393.3 155.7 393.5 155.8 393.6 155.9C393.9 156.1 393.5 155.8 393.5 155.8C393.5 155.8 393.7 156 393.7 156.1C393.7 156.1 393.5 155.7 393.6 156C393.6 156.1 393.7 156.2 393.7 156.3C393.8 156.7 393.6 156.2 393.7 156.2L393.8 157C393.8 157.5 393.8 158 393.7 158.5C393.7 158.8 393.6 159.1 393.6 159.4C393.6 159.5 393.5 159.8 393.6 159.5C393.6 159.7 393.5 159.9 393.5 160C393.4 160.5 393.3 161 393.2 161.6C393.1 161.8 393.1 162 393 162.2C393 162.3 392.9 162.5 392.9 162.5C392.9 162.4 393.1 162.1 392.9 162.5C392.8 162.7 392.7 162.9 392.6 163.1C392.5 163.2 392.5 163.3 392.4 163.4C392.2 163.7 392.7 163.1 392.5 163.3C392.4 163.4 392.2 163.6 392.1 163.7C391.9 163.9 392.5 163.5 392.3 163.6C392.2 163.6 392 163.7 392 163.8C392.1 163.7 392.2 163.7 392.3 163.6C392.2 163.6 392.2 163.7 392.1 163.7C392.2 163.7 392.4 163.6 392.1 163.7C391.8 163.7 392.6 163.8 392.3 163.7C392.2 163.7 392.1 163.7 392 163.7C391.7 163.7 392.5 163.9 392.2 163.8C392.1 163.8 392 163.7 392 163.7C391.8 163.6 392.4 164 392.1 163.8C392 163.8 391.7 163.4 391.7 163.5C391.8 163.5 392 163.9 391.8 163.6C391.7 163.5 391.7 163.5 391.6 163.4C391.5 163.2 391.4 163.1 391.3 162.9C391.1 162.5 391.4 163 391.4 163L391.2 162.6C391.1 162.4 391.1 162.2 391 162C390.9 161.6 391 162.1 391 162.1V161.8C391 161.6 391 161.4 391 161.2C391 160.8 391 161.3 391 161.3C391.1 161.2 391.1 160.9 391.1 160.8C391.1 160.7 391.2 160.6 391.2 160.5C391.2 160.4 391.4 160 391.3 160.3C391.2 160.6 391.3 160.2 391.4 160.2C391.5 160.1 391.5 159.9 391.6 159.8C391.6 159.7 392 159.1 392.1 159.1C392.1 159.1 391.7 159.5 392.1 159.2C392.2 159.1 392.3 159 392.4 158.9C393.2 158 394.1 157.3 395 156.5C395.9 155.7 395.9 154.1 394.9 153.4C393.7 152.4 392.3 152.7 391.3 153.5Z" fill="white"/>
</g>
<mask id="mask33_201_732" style="mask-type:luminance" maskUnits="userSpaceOnUse" x="51" y="51" width="398" height="398">
<path d="M250 448.5C359.629 448.5 448.5 359.629 448.5 250C448.5 140.371 359.629 51.5 250 51.5C140.371 51.5 51.5 140.371 51.5 250C51.5 359.629 140.371 448.5 250 448.5Z" fill="white"/>
</mask>
<g mask="url(#mask33_201_732)">
<path d="M413.5 207.9C413.2 211.5 410.4 214.5 410.7 218.2C410.8 219.7 411.7 221.1 413 221.7C414.7 222.5 416.5 221.7 418.1 220.9C419.7 220.1 421.1 219.1 421.8 217.4C422.3 216.1 422.5 214.7 422.5 213.4C422.6 211.5 423 206 419.7 206.5C418.2 206.7 416.6 207.7 415.3 208.6C414.6 209.1 414 209.8 413.6 210.6C412.8 212.4 412.4 214.4 412.2 216.4C412.2 216.7 414.5 215.7 414.6 215.6C415.1 215.3 415.6 215 416.1 214.7C416.3 214.6 416.6 214.4 416.6 214.1C416.7 212.6 417 211.1 417.5 209.7C417.7 209.1 417.9 208.6 418.2 208.1C418.3 207.9 418.5 207.7 418.6 207.5C418.1 207.7 417.7 208 417.2 208.2C415.7 208.7 415.3 208.9 416 208.9C416.1 208.9 416.3 208.9 416.4 209C417.3 209.4 417.7 210.6 417.8 211.4C418 212.7 418 214.1 417.9 215.4C417.9 216.6 417.8 217.8 417.4 218.9C417.2 219.4 417.1 219.8 416.8 220.2C416.7 220.4 416.6 220.5 416.5 220.7C416.4 220.8 416.3 220.8 416.3 220.9C417.1 220.5 417.9 220 418.7 219.6C418.8 219.6 418.8 219.6 418.7 219.6C418.2 219.5 417.7 219.6 417.2 219.3C416.7 219 416.3 218.7 415.9 218.2C415.1 217.2 414.8 215.9 415 214.6C415.3 211.4 417.6 208.7 417.8 205.4C417.8 205.1 415.5 206.1 415.4 206.2C414.9 206.5 414.4 206.8 413.9 207.1C413.8 207.5 413.5 207.6 413.5 207.9Z" fill="white"/>
</g>
<mask id="mask34_201_732" style="mask-type:luminance" maskUnits="userSpaceOnUse" x="51" y="51" width="398" height="398">
<path d="M250 448.5C359.629 448.5 448.5 359.629 448.5 250C448.5 140.371 359.629 51.5 250 51.5C140.371 51.5 51.5 140.371 51.5 250C51.5 359.629 140.371 448.5 250 448.5Z" fill="white"/>
</mask>
<g mask="url(#mask34_201_732)">
<path d="M398 325.7C395 327.8 391.5 331.2 392.9 335.3C393.6 337.2 394.9 338.3 396.8 338.9C398.9 339.6 401.8 340.7 403.8 339.2C405.1 338.3 405.8 336.6 406.2 335.1C406.6 333.3 406.8 331 406.1 329.3C405.7 328.4 405.1 327.8 404.2 327.4C403.2 326.9 402.2 326.6 401.1 326.4C400.3 326.2 399.5 326 398.7 326C396.4 326 396.1 328.8 395.9 330.6C395.7 332 395.8 333.3 396 334.7C396.1 335.2 396.2 335.7 396.4 336.1C396.8 336.6 397.5 336.8 398.1 337C399 337.3 399.9 337.5 400.8 337.7C401.2 337.8 401.6 337.9 401.9 337.8C402.2 337.8 402.5 337.6 402.7 337.3C403.2 336.6 403.3 335.6 403.1 334.8C403.1 334.6 402.5 334.5 402.4 334.4C401.9 334.2 401.3 334 400.7 333.9C400.5 333.9 398.2 333.4 398.2 333.5C398.3 334.1 398.3 334.7 398.1 335.3C398 335.6 397.9 335.8 397.7 336C397.6 336.1 397.6 336.1 397.5 336.2C397.3 336.3 397.1 336.3 397.5 336.4C398.5 336.7 399.5 336.9 400.4 337.2C401.4 337.5 401.1 337.6 400.8 337.2C400.7 337.1 400.7 336.9 400.6 336.7C400.5 336.4 400.5 336.1 400.4 335.7C400.3 334.7 400.2 333.8 400.3 332.8C400.4 331.3 400.5 329.4 401.4 328.2C401.6 328 401.8 327.7 402 327.6C402.3 327.4 402.6 327.5 402.9 327.4C402.4 327.3 401.8 327.1 401.3 327C399.7 326.4 399.2 326.3 399.8 326.6C399.9 326.7 400.1 326.8 400.2 326.9C400.5 327.2 400.7 327.5 400.9 327.9C401.5 329.2 401.5 330.9 401.3 332.3C401.1 334.5 400.2 337.3 398 338.3C397.8 338.4 397.5 338.5 397.2 338.5C397 338.5 396.9 338.5 396.7 338.6C396.6 338.6 396.6 338.6 396.5 338.6C395.4 338.5 396.4 338.7 399.4 339.4C398.9 339.1 398.5 338.8 398.2 338.4C397.4 337.4 396.9 336.1 396.9 334.8C396.9 331.4 399.8 328.9 402.3 327.1C402.4 327 401.5 326.7 401.6 326.7C401.1 326.5 400.5 326.3 399.9 326.2C399.3 326 398.8 325.9 398.2 325.8C398.5 325.7 398.2 325.6 398 325.7Z" fill="white"/>
</g>
<mask id="mask35_201_732" style="mask-type:luminance" maskUnits="userSpaceOnUse" x="51" y="51" width="398" height="398">
<path d="M250 448.5C359.629 448.5 448.5 359.629 448.5 250C448.5 140.371 359.629 51.5 250 51.5C140.371 51.5 51.5 140.371 51.5 250C51.5 359.629 140.371 448.5 250 448.5Z" fill="white"/>
</mask>
<g mask="url(#mask35_201_732)">
<path d="M288.4 329.7C286.4 330.5 285 331.9 284.2 333.9C283.3 336.2 283.4 338.7 283.6 341C283.7 343 284.2 345.1 285.6 346.7C287.1 348.4 289.7 349 291.5 347.5C293.5 345.9 293.6 343.3 293.6 340.9C293.5 338.8 293.7 336.5 293.1 334.4C292.5 332.3 290.4 330.1 288 330.7C286.1 331.2 284.9 333.2 284.4 335C283.1 339.4 283 344.5 286.4 348C287.1 348.8 288.5 349.3 289.3 348.3C290.1 347.3 289.6 345.8 288.8 345C288.7 344.9 288.6 344.7 288.5 344.6C288.2 344.3 288.8 345.1 288.5 344.6C288.4 344.4 288.2 344.1 288.1 343.9C288.4 344.5 288 343.5 287.9 343.4C287.8 343 287.9 343.3 287.9 343.4C287.9 343.2 287.8 343 287.8 342.8C287.6 341.7 287.7 340.6 287.9 339.2C287.9 339.1 288 338.9 288 338.8C287.9 339.1 288 338.7 288 338.7C288.1 338.4 288.2 338 288.3 337.7C288.4 337.4 288.5 337.2 288.6 336.9C288.7 336.7 288.7 336.6 288.8 336.4C288.9 336.3 288.9 336.3 288.8 336.4C288.9 336.3 288.9 336.2 289 336.1C289.2 335.9 289.3 335.6 289.6 335.4C289.4 335.6 289.6 335.4 289.7 335.4C290.1 335.1 289.5 335.5 289.8 335.3H289.9C290.1 335.3 290.1 335.3 289.9 335.3C290 335.2 290.2 335.5 289.9 335.3C289.7 335.2 289.6 335.1 289.5 335C289.3 334.6 289.9 335.3 289.5 335C289.2 334.5 289.4 334.8 289.5 335C289.4 334.4 289.6 335.4 289.5 335C289.5 335.3 289.6 335.5 289.6 335.8C289.7 336.6 289.7 337.4 289.7 338.3C289.7 339.8 290 341.2 289.5 342.6C289.4 343 289.1 343.3 288.6 343.6C288.5 343.7 288.3 343.7 288.2 343.7C288.4 343.9 288.5 343.7 288.2 343.7C288.1 343.7 288.1 343.7 288 343.6C288.3 343.7 288.3 343.8 288.1 343.6C288.2 343.6 288.5 344 288.2 343.7C288.6 344.1 288.4 344 288.3 343.8C288 343.4 288.3 344.1 288.3 343.8C288.3 343.7 288.2 343.5 288.1 343.4C288.1 343.3 288 343 288.1 343.5C288.1 343.4 288 343.2 288 343.1C287.9 342.8 287.9 342.4 287.9 342.1C287.8 340.5 287.6 338.8 288.1 337.2C288.3 336.4 288.5 336.1 289 335.5C289.1 335.4 289.2 335.3 289.3 335.2C289.3 335.2 289.8 334.8 289.5 335C289.6 334.9 289.8 334.8 289.9 334.7C290 334.7 290.5 334.4 290.3 334.5C291.4 334.1 291.8 332.9 291.4 331.8C290.8 330.7 289.6 329.2 288.4 329.7Z" fill="white"/>
</g>
<mask id="mask36_201_732" style="mask-type:luminance" maskUnits="userSpaceOnUse" x="51" y="51" width="398" height="398">
<path d="M250 448.5C359.629 448.5 448.5 359.629 448.5 250C448.5 140.371 359.629 51.5 250 51.5C140.371 51.5 51.5 140.371 51.5 250C51.5 359.629 140.371 448.5 250 448.5Z" fill="white"/>
</mask>
<g mask="url(#mask36_201_732)">
<path d="M174.8 326.3C172.5 328.5 171.1 331.5 171.6 334.8C171.8 336.4 172.4 337.8 173.4 339C174.9 340.8 177.3 341.2 179.3 339.8C180.2 339.2 180.8 338.3 180.9 337.2C181 336.2 181 335.2 181 334.2C181 332.5 181.1 330.8 180.9 329.1C180.8 327.8 180.3 326.3 179.2 325.4C177.4 324 174.7 324.7 173.1 326.1C172.2 326.9 171.5 327.9 171.2 329.2C170.9 330.2 170.9 331.4 170.9 332.4C170.9 334.4 171 336.4 172 338.1C172.6 339.1 174.1 339 175 338.5C175.8 338.1 177.1 336.9 176.4 335.8C175.7 334.7 175.6 333.7 175.5 332.4C175.4 331.1 175.5 329.9 175.7 328.7C175.7 328.7 175.8 328.3 175.7 328.6C175.7 328.5 175.8 328.4 175.9 328.2C175.7 328.4 176.1 327.7 175.9 328.2C175.4 328.5 176.1 327.9 175.9 328.2C175.8 328.2 175.4 328.4 175.8 328.3C175.6 328.4 175.5 328.4 175.2 328.5C175.6 328.5 175.2 328.5 175.1 328.5C174.8 328.5 175.3 328.6 175.3 328.6C175.1 328.3 175.5 328.6 175.3 328.6C175.3 328.7 175.4 328.7 175.5 328.8C175.3 328.6 175.4 328.6 175.5 328.8C175.6 328.9 175.6 329 175.7 329.1C175.8 329.3 175.9 329.5 175.9 329.7C175.8 329.3 176 330 176 330.2C176.2 331.4 176.1 332.6 176.1 333.9C176.1 334.6 176.1 335.3 176.1 336C176.1 336.4 176.1 336.8 176.1 337.2C176.1 337.4 176.1 337.5 176.1 337.7C176.1 337.7 176.1 338.3 176.1 337.9C176.1 338 176.1 338.1 176 338.2C176 338.3 176 338.3 176 338.4C176 338.2 176.1 338.1 176.3 337.9C176.7 337.4 177.3 337.1 178 337.1C178.1 337.1 178.3 337.2 178 337.1C177.7 336.9 177.9 337 177.9 337.1C177.8 337 177.7 336.9 177.5 336.8C177.4 336.7 177.3 336.6 177.2 336.5C176.9 336.2 177.3 336.7 177.1 336.4C176.8 336 176.6 335.6 176.4 335.1C176.3 334.9 176.2 334.7 176.2 334.5C176.3 334.8 176.2 334.5 176.2 334.4C176.2 334.2 176.1 334.1 176.1 333.9C176 333.3 176 332.8 176 332.2C176 331.8 176 332.1 176 332.2C176 332 176 331.9 176.1 331.7C176.1 331.4 176.2 331.1 176.3 330.8C176.3 330.7 176.4 330.5 176.4 330.4C176.5 330 176.2 330.7 176.4 330.3C176.5 330.1 176.6 329.8 176.8 329.6C176.9 329.5 176.9 329.4 177 329.3C177.2 328.9 176.7 329.6 177 329.2C177.1 329.1 177.2 329 177.3 328.9C177.4 328.8 177.8 328.3 177.4 328.8C178.1 328.2 179 326.9 178 326.1C177.2 325.2 175.6 325.5 174.8 326.3Z" fill="white"/>
</g>
<mask id="mask37_201_732" style="mask-type:luminance" maskUnits="userSpaceOnUse" x="51" y="51" width="398" height="398">
<path d="M250 448.5C359.629 448.5 448.5 359.629 448.5 250C448.5 140.371 359.629 51.5 250 51.5C140.371 51.5 51.5 140.371 51.5 250C51.5 359.629 140.371 448.5 250 448.5Z" fill="white"/>
</mask>
<g mask="url(#mask37_201_732)">
<path d="M283 132.1C281.9 133.1 280.9 134.3 280.1 135.5C279.2 136.7 278.3 138.1 277.8 139.5C277.5 140.2 277.5 140.9 277.9 141.6C278.2 142 278.6 142.4 279 142.8C279.8 143.5 280.6 144.1 281.4 144.7C282.5 145.5 283.7 146 285.1 145.9C287.4 145.8 289.7 144.2 290.1 141.8C290.2 141.1 290.1 140.4 289.9 139.8C289.5 138.8 288.5 138 287.7 137.4C286.5 136.4 284.5 134.6 282.7 135.4C281.5 136 281.2 137.4 281.4 138.6C281.7 140.3 283.1 141.6 284.3 142.8C284.2 142.6 284 142.4 283.9 142.2C283.5 142.3 283.2 142.3 282.9 142.2C282.8 142.2 282.8 142.2 282.7 142.1C283.5 142.7 284.3 143.3 285.1 144L285.2 144.1C285.1 144 285 143.8 284.9 143.7C284.5 143 284.4 142.2 284.6 141.4C285 139.6 286.5 138.2 287.8 137C288 136.8 286.2 135.3 286 135.2C285.5 134.8 285.1 134.5 284.6 134.2C284.5 134.1 284 133.8 283.9 133.9C282.3 135.4 280.2 137.4 280.7 139.9C281 141.5 282.5 142.6 283.7 143.6C284.8 144.5 286.3 145.8 287.9 145.4C288 145.4 287.4 144.7 287.5 144.8C287 144.3 286.8 144.1 286.5 143.7C286.1 143.3 285.8 142.8 285.6 142.2C285.3 141.3 285.3 140.3 285.8 139.4C286.3 138.5 287.2 138.3 288.2 138.5H288.3C288.8 138.8 288.4 138.5 287.1 137.5C286.7 137.2 286.3 136.8 285.8 136.5L285.9 136.6C286 136.8 286.1 137.1 286.2 137.3C286.4 137.9 286.3 138.5 286.2 139.1C285.7 141 284 142.3 282.2 142.7C281.3 142.9 280.4 142.8 279.6 142.5C279.5 142.5 279.1 142.3 279.4 142.4C284 143.8 282.1 145.3 281.7 144.2C281.6 144 281.6 143.9 281.6 143.8C281.5 143.2 281.9 142.5 282.1 142C283.3 139.5 285 137.2 287 135.3C287.2 135.1 285.4 133.6 285.2 133.5C284.7 133.1 284.3 132.8 283.8 132.5C283.6 132.3 283.1 132 283 132.1Z" fill="white"/>
</g>
</svg>
