<svg width="500" height="500" viewBox="0 0 500 500" fill="none" xmlns="http://www.w3.org/2000/svg">
<mask id="mask0_201_719" style="mask-type:luminance" maskUnits="userSpaceOnUse" x="51" y="51" width="398" height="398">
<path d="M250 448.5C359.629 448.5 448.5 359.629 448.5 250C448.5 140.371 359.629 51.5 250 51.5C140.371 51.5 51.5 140.371 51.5 250C51.5 359.629 140.371 448.5 250 448.5Z" fill="white"/>
</mask>
<g mask="url(#mask0_201_719)">
<path d="M76.2001 455.4C102.7 424.5 130.4 393.9 164.1 370.7C181.1 358.9 199.6 349.4 219.3 342.8C240.1 335.9 261.9 332.2 283.7 330.5C329.5 327 375.2 332.4 420.9 335.5C464.7 338.5 509.3 339.5 552.1 328.7C587.8 319.7 622.5 302.6 647.4 274.9C650.5 271.5 653.4 267.9 656.1 264.2C656.9 263.1 652.2 262.1 651.3 263.3C628.7 293.9 594.8 313.6 558.7 324.3C516.1 337 471.3 336.7 427.3 333.9C381.7 331 336.1 325.4 290.3 327.9C248.2 330.2 206.9 339.9 170.7 362.2C136.2 383.4 107.7 412.8 81.3001 443.1C78.0001 446.9 74.7001 450.7 71.5001 454.5C70.6001 455.5 75.2001 456.5 76.2001 455.4Z" fill="white"/>
</g>
<mask id="mask1_201_719" style="mask-type:luminance" maskUnits="userSpaceOnUse" x="51" y="51" width="398" height="398">
<path d="M250 448.5C359.629 448.5 448.5 359.629 448.5 250C448.5 140.371 359.629 51.5 250 51.5C140.371 51.5 51.5 140.371 51.5 250C51.5 359.629 140.371 448.5 250 448.5Z" fill="white"/>
</mask>
<g mask="url(#mask1_201_719)">
<path d="M52.2 394.6C68.7 361.2 92.3 331.4 120.8 307.5C149.2 283.7 182.6 265.5 218.5 256.3C238.1 251.2 258.2 248.9 278.4 249.2C302.9 249.6 327.1 253.3 351.1 257.9C398.1 267.1 444.9 280.2 493.2 280.2C532.5 280.3 573.5 270.7 604.7 245.7C608.5 242.6 612.1 239.3 615.6 235.9C617.6 233.9 613 233.6 611.7 234.8C583.3 263.7 542.4 276 502.7 277.3C453.6 278.9 405.7 265.6 358 256.1C314.2 247.4 269.4 242 225.3 251.9C189.4 259.9 155.7 276.5 126.5 298.8C97.2 321.3 72.3 349.8 54.2 382C51.9 386 49.8 390.1 47.7 394.2C46.7 396.3 51.5 396.1 52.2 394.6Z" fill="white"/>
</g>
<mask id="mask2_201_719" style="mask-type:luminance" maskUnits="userSpaceOnUse" x="51" y="51" width="398" height="398">
<path d="M250 448.5C359.629 448.5 448.5 359.629 448.5 250C448.5 140.371 359.629 51.5 250 51.5C140.371 51.5 51.5 140.371 51.5 250C51.5 359.629 140.371 448.5 250 448.5Z" fill="white"/>
</mask>
<g mask="url(#mask2_201_719)">
<path d="M38.7 328.6C48.1 292.7 61.5 256.4 88 229.5C99.9 217.4 114.1 207.6 130.1 201.9C148.6 195.3 168.7 194.5 188.2 196.5C228.3 200.6 266 216.8 306.1 221.3C327 223.7 348.2 223 369.1 221.3C389.2 219.7 409.4 217.5 429.2 213.3C463.9 206 498.5 191.6 522.5 164.6C525.2 161.5 527.8 158.3 530.2 155C531.6 153 527.8 149.9 526.2 152.2C505 181.6 470.8 198.4 436.3 206.9C416.8 211.7 396.8 214.2 376.9 216C355.7 218 334.3 219.3 313 217.6C272.2 214.3 234.1 198.1 193.7 192.8C174.7 190.3 155.2 190.2 136.6 195.1C119.9 199.4 104.7 208 91.8 219.3C63.9 243.7 48.4 278.4 38.2 313.3C36.9 317.8 35.6 322.4 34.4 327C33.7 329.2 37.9 331.5 38.7 328.6Z" fill="white"/>
</g>
<mask id="mask3_201_719" style="mask-type:luminance" maskUnits="userSpaceOnUse" x="51" y="51" width="398" height="398">
<path d="M250 448.5C359.629 448.5 448.5 359.629 448.5 250C448.5 140.371 359.629 51.5 250 51.5C140.371 51.5 51.5 140.371 51.5 250C51.5 359.629 140.371 448.5 250 448.5Z" fill="white"/>
</mask>
<g mask="url(#mask3_201_719)">
<path d="M23.6 214.6C46.8 188.2 71.8 162.9 101.5 143.9C131.2 124.9 166.3 112.5 201.9 114.2C220.1 115.1 237.2 120.3 253.8 127.6C270.1 134.8 285.9 143.3 302.9 148.9C331 158.2 361.6 158.6 390.2 151.4C418.7 144.2 445.5 129.4 465.9 108.1C468.5 105.4 470.9 102.6 473.3 99.8001C474.6 98.2001 471.1 94.6001 469.9 96.1001C450.9 119.1 425.1 135.8 396.7 144.7C368.3 153.6 337.4 154.9 308.7 146.9C291.6 142.2 275.9 134 259.9 126.6C243.9 119.2 227.5 112.9 209.8 110.8C174.9 106.5 139.3 116.5 109.1 133.6C78.3 151 52.5 175.3 29 201.1C26 204.4 23.1 207.6 20.2 210.9C18.8 212.5 22.3 216.1 23.6 214.6Z" fill="white"/>
</g>
<mask id="mask4_201_719" style="mask-type:luminance" maskUnits="userSpaceOnUse" x="51" y="51" width="398" height="398">
<path d="M250 448.5C359.629 448.5 448.5 359.629 448.5 250C448.5 140.371 359.629 51.5 250 51.5C140.371 51.5 51.5 140.371 51.5 250C51.5 359.629 140.371 448.5 250 448.5Z" fill="white"/>
</mask>
<g mask="url(#mask4_201_719)">
<path d="M115.6 73.3998C134.2 60.3998 155.6 51.7998 178 47.7998C200.4 43.7998 223.7 44.5998 245.8 50.1998C269.4 56.1998 290.1 68.8998 312.1 78.8998C323 83.8998 334.4 88.1998 346.2 90.3998C358.3 92.5998 370.7 92.4998 382.8 90.5998C407.6 86.6998 430.9 75.6998 451.9 62.3998C454.6 60.6998 457.2 58.9998 459.8 57.1998C460.3 56.8998 461.6 55.8998 460.8 55.2998C460.1 54.6998 458.3 55.5998 457.7 55.9998C437 69.9998 414.2 81.8998 389.5 86.8998C377.3 89.2998 364.8 89.8998 352.5 87.9998C340.4 86.0998 328.9 81.9998 317.7 76.9998C295.8 67.0998 275.1 54.3998 251.8 47.9998C229.9 41.9998 206.7 40.8998 184.3 44.1998C161.8 47.4998 139.9 55.3998 120.6 67.3998C118.2 68.8998 115.8 70.4998 113.5 72.0998C113 72.3998 111.7 73.3998 112.5 73.9998C113.2 74.6998 115 73.7998 115.6 73.3998Z" fill="white"/>
</g>
<mask id="mask5_201_719" style="mask-type:luminance" maskUnits="userSpaceOnUse" x="51" y="51" width="398" height="398">
<path d="M250 448.5C359.629 448.5 448.5 359.629 448.5 250C448.5 140.371 359.629 51.5 250 51.5C140.371 51.5 51.5 140.371 51.5 250C51.5 359.629 140.371 448.5 250 448.5Z" fill="white"/>
</mask>
<g mask="url(#mask5_201_719)">
<path d="M180.7 474.4C193.4 451.6 209.8 430.7 229 413C238.1 404.6 248.2 396.7 259.9 392.2C273.2 387.1 287.4 388.1 301.1 390.5C329.2 395.5 356.6 403.9 384.8 408.6C409.3 412.7 434.5 413.8 458.8 408C480.2 402.9 500.9 392.7 515.6 375.9C517.4 373.8 519.1 371.7 520.7 369.4C522.6 366.8 518.4 364.6 516.7 366.9C503.8 384.9 484.1 396.5 463 402.3C439.2 408.9 414.5 408.5 390.2 404.8C361.8 400.5 334.3 392.2 306.2 386.8C292.3 384.1 277.8 382.2 263.9 386.1C251.7 389.5 241 396.5 231.4 404.5C211.5 421.4 194.5 442 181 464.2C179.3 467 177.7 469.8 176.1 472.7C175.5 473.8 176.4 475.2 177.5 475.5C178.8 476.2 180.1 475.5 180.7 474.4Z" fill="white"/>
</g>
<mask id="mask6_201_719" style="mask-type:luminance" maskUnits="userSpaceOnUse" x="51" y="51" width="398" height="398">
<path d="M250 448.5C359.629 448.5 448.5 359.629 448.5 250C448.5 140.371 359.629 51.5 250 51.5C140.371 51.5 51.5 140.371 51.5 250C51.5 359.629 140.371 448.5 250 448.5Z" fill="white"/>
</mask>
<g mask="url(#mask6_201_719)">
<path d="M100.7 322.7C115.2 337.9 132.5 350.3 151.7 359C157.1 361.5 162.7 363.7 168.3 365.6C169.5 366 170.7 365.3 170.3 363.9C162.1 339.3 155.8 311.8 167.1 287.1C169.8 281.1 173.7 275.6 178.4 271.1C177 270.3 175.6 269.6 174.3 268.8C178.5 291.6 190.7 312.4 208.2 327.6C213.1 331.9 218.5 335.6 224.2 338.9C224.8 339.3 226.7 339.7 226.8 338.4C228.5 324.4 229.9 310.3 232.3 296.4C234.1 285.4 236.8 274 242.5 264.3C245.6 259 249.6 254.3 254.6 250.7C253.3 249.8 252.1 249 250.8 248.1C252.5 272 246.9 298.1 260.7 319.6C263.9 324.6 268.1 328.9 273 332.2C273.8 332.7 275.2 332.8 275.6 331.7C284 309.1 292.8 285.8 308.8 267.3C313.2 262.2 318.2 257.6 323.6 253.6C322.3 252.7 321.1 251.9 319.8 251C319.4 271.8 319.1 293.5 326.6 313.2C328.7 318.7 331.4 323.9 334.7 328.7C335.4 329.7 338 331.6 338.7 329.6C347.3 304.9 359.3 281.5 374.4 260.1C373.1 259.5 371.7 258.9 370.4 258.3C375.2 278.8 380.1 299.5 389.3 318.5C391.9 323.9 394.9 329.1 398.2 334.1C398.8 335 401.7 337.1 402.2 335C406.2 317.2 410.5 298.6 421.3 283.6C424.3 279.4 427.9 275.6 431.9 272.4C430.6 271.5 429.4 270.7 428.1 269.8C427.4 295.6 433.7 321.4 446.1 344C446.6 345 448 345.9 449.1 345.7C450.3 345.5 450.3 344.3 449.8 343.4C437.7 321.4 431.8 296.3 432.5 271.2C432.5 269.9 430 267.6 428.7 268.6C413.8 280.5 406.5 298.7 401.7 316.6C400.3 321.9 399.1 327.2 397.9 332.6C399.2 332.9 400.6 333.2 401.9 333.5C390.2 316.2 383.8 296.1 378.8 276C377.3 270.2 376 264.5 374.6 258.7C374.3 257.5 371.6 255.4 370.6 256.9C355.4 278.5 343.3 302.2 334.6 327.2C335.9 327.5 337.3 327.8 338.6 328.1C326.9 311.1 324.5 290.2 324.2 270.1C324.1 264.2 324.2 258.3 324.3 252.4C324.3 251 321.8 248.9 320.5 249.8C300.3 264.4 288.3 286.9 279 309.5C276.3 316 273.8 322.6 271.4 329.2C272.3 329 273.1 328.9 274 328.7C265.9 323.4 261.1 314.4 258.5 305.4C255.3 294.3 255.4 282.5 255.5 271C255.6 263.8 255.7 256.6 255.2 249.4C255.1 248.1 252.8 245.8 251.4 246.8C231.6 261 228.6 287.8 225.7 310.2C224.6 318.7 223.6 327.3 222.6 335.8C223.5 335.6 224.3 335.5 225.2 335.3C206.6 324.7 191.9 307.5 183.9 287.6C181.6 281.9 179.9 276 178.7 269.9C178.4 268.4 176.1 266.1 174.6 267.6C165.9 276 160.6 287.3 158.2 299.1C155.5 312.5 156.6 326.1 159.5 339.4C161.2 347.5 163.6 355.4 166.2 363.2C166.9 362.6 167.5 362.1 168.2 361.5C149.2 355.2 131.5 345.2 116.1 332.3C111.8 328.7 107.7 324.8 103.8 320.7C103.1 320 101.7 319.1 100.7 319.7C99.6001 320.6 100.1 322 100.7 322.7Z" fill="white"/>
</g>
<mask id="mask7_201_719" style="mask-type:luminance" maskUnits="userSpaceOnUse" x="51" y="51" width="398" height="398">
<path d="M250 448.5C359.629 448.5 448.5 359.629 448.5 250C448.5 140.371 359.629 51.5 250 51.5C140.371 51.5 51.5 140.371 51.5 250C51.5 359.629 140.371 448.5 250 448.5Z" fill="white"/>
</mask>
<g mask="url(#mask7_201_719)">
<path d="M99.6 322.3C103 343.3 111.8 362.9 121.7 381.6C124.5 386.9 127.5 392.2 130.4 397.5C131.1 396.5 131.8 395.5 132.5 394.4C113.8 385.4 95 376.8 76 368.5C73.1 367.3 73 371.9 75.3 372.9C94.3 381.2 113.2 389.8 131.8 398.8C133.8 399.8 134.7 397.2 133.9 395.7C123.9 377.8 113.8 359.6 107.8 339.9C106.1 334.4 104.7 328.7 103.8 323C103.6 321.8 102.9 320.5 101.6 320.3C100.3 320.1 99.4 321.2 99.6 322.3Z" fill="white"/>
</g>
<mask id="mask8_201_719" style="mask-type:luminance" maskUnits="userSpaceOnUse" x="51" y="51" width="398" height="398">
<path d="M250 448.5C359.629 448.5 448.5 359.629 448.5 250C448.5 140.371 359.629 51.5 250 51.5C140.371 51.5 51.5 140.371 51.5 250C51.5 359.629 140.371 448.5 250 448.5Z" fill="white"/>
</mask>
<g mask="url(#mask8_201_719)">
<path d="M202.1 440.3C188.2 424.8 174 409 164.8 390.1C162.2 384.8 160.1 379.3 158.6 373.6C157.2 373.9 155.8 374.3 154.4 374.6C175.3 379.6 195.3 388.3 213.1 400.3C218.2 403.7 223 407.4 227.7 411.3C228.4 411.9 229.6 411.9 230.5 411.8C231 411.7 232.7 411.5 232.6 410.7C229.9 392.8 227.1 374.9 224.4 357C223.6 351.9 222.8 346.8 222.1 341.7C220.5 341.9 218.8 342.1 217.2 342.3C230.6 353.5 242.9 365.9 253.9 379.5C257 383.4 260.1 387.3 263 391.3C263.7 392.3 267.7 392.1 267.9 390.7C268.9 381.7 270 372.7 271.3 363.7C272.4 355.9 273.2 347.8 275.9 340.4C277.3 336.5 279.2 332.9 282 329.8C280.4 329.8 278.7 329.9 277.1 329.9C283.3 344.8 288.8 359.9 293.6 375.3C295 379.7 296.3 384 297.5 388.4C297.9 389.8 301.8 389.4 302.4 388.3C310.7 373.2 317.8 357.4 324.6 341.6C326.5 337.1 328.5 332.6 330.4 328.1C328.8 328.1 327.1 328.2 325.5 328.2C330.5 346.6 335.4 364.9 340.4 383.3C341.8 388.5 343.2 393.7 344.6 398.9C345 400.3 349 399.9 349.5 398.8C358.3 380.9 367.7 363.3 377.6 346C380.4 341.1 383.2 336.3 386.1 331.4C384.5 331.4 382.8 331.5 381.2 331.5C383.5 349.5 386.2 367.4 389.3 385.3C390.2 390.4 391.1 395.5 392.1 400.6C392.4 402.1 397.3 401.5 397.1 400.2C393.7 382.4 390.8 364.5 388.2 346.5C387.5 341.4 386.8 336.3 386.1 331.1C385.9 329.6 381.7 330.3 381.2 331.2C371 348.3 361.3 365.7 352.2 383.4C349.6 388.4 347.1 393.4 344.6 398.5C346.2 398.5 347.9 398.4 349.5 398.4C344.5 380 339.6 361.7 334.6 343.3C333.2 338.1 331.8 332.9 330.4 327.7C330 326.3 326 326.7 325.5 327.8C318.7 343.7 312 359.5 304.3 374.9C302.1 379.3 299.9 383.6 297.5 387.9C299.1 387.9 300.8 387.8 302.4 387.8C298 372.3 292.8 357 287.1 342C285.5 337.7 283.8 333.5 282 329.3C281.4 327.8 277.9 328.5 277.1 329.4C272.1 334.9 269.9 342.2 268.6 349.4C267 358 265.9 366.7 264.8 375.3C264.1 380.5 263.5 385.7 262.9 390.9C264.5 390.7 266.2 390.5 267.8 390.3C257.5 376.2 245.9 363.1 233.2 351.2C229.6 347.8 225.8 344.5 222 341.3C221.3 340.7 220.1 340.7 219.2 340.8C218.7 340.9 217 341.1 217.1 341.9C219.8 359.8 222.6 377.7 225.3 395.6C226.1 400.7 226.9 405.8 227.6 410.9C229.2 410.7 230.9 410.5 232.5 410.3C215.7 396.2 196.4 385.3 175.7 378C169.8 375.9 163.9 374.2 157.8 372.8C156.9 372.6 156 372.6 155.1 372.8C154.8 372.9 153.5 373.2 153.6 373.8C159.2 394.2 171.9 411.7 185.5 427.6C189.4 432.2 193.4 436.6 197.4 441.1C198.1 441.9 199.6 441.7 200.5 441.6C200.9 441.6 202.8 441 202.1 440.3Z" fill="white"/>
</g>
<mask id="mask9_201_719" style="mask-type:luminance" maskUnits="userSpaceOnUse" x="51" y="51" width="398" height="398">
<path d="M250 448.5C359.629 448.5 448.5 359.629 448.5 250C448.5 140.371 359.629 51.5 250 51.5C140.371 51.5 51.5 140.371 51.5 250C51.5 359.629 140.371 448.5 250 448.5Z" fill="white"/>
</mask>
<g mask="url(#mask9_201_719)">
<path d="M197.4 439.6C174.8 438.5 152.2 438.2 129.6 438.7C123.2 438.9 116.8 439.1 110.5 439.4C109.4 439.4 110.9 440.3 111.1 440.4C112.1 440.9 113.3 441.3 114.4 441.2C136.8 440.2 159.2 440 181.6 440.6C187.9 440.8 194.2 441 200.5 441.4C201.4 441.4 201.5 441.1 200.7 440.6C199.8 440.1 198.5 439.6 197.4 439.6Z" fill="white"/>
</g>
<mask id="mask10_201_719" style="mask-type:luminance" maskUnits="userSpaceOnUse" x="51" y="51" width="398" height="398">
<path d="M250 448.5C359.629 448.5 448.5 359.629 448.5 250C448.5 140.371 359.629 51.5 250 51.5C140.371 51.5 51.5 140.371 51.5 250C51.5 359.629 140.371 448.5 250 448.5Z" fill="white"/>
</mask>
<g mask="url(#mask10_201_719)">
<path d="M51.7 275.5C70.3 289.5 84 309.2 90.9 331.3C91.6 333.5 95.6 332.8 95.8 330.6C98 299.8 100.3 269 102.5 238.2C103.1 229.4 103.8 220.5 104.4 211.7C102.8 211.9 101.1 212.2 99.5 212.4C112.8 237.8 126.1 263.2 139.3 288.6C140.1 290.2 143.6 290.5 144.1 288.4C151.5 256.9 158.9 225.5 166.3 194C164.7 194.1 163.1 194.1 161.5 194.2C172.9 216.5 183 239.5 191.9 262.9C192.6 264.8 196 264.5 196.7 262.7C204.6 241.7 214.1 221.3 225.2 201.8C223.6 201.5 222.1 201.3 220.5 201C223 217.4 225.6 233.8 228.1 250.2C228.5 252.5 231.5 252.3 232.8 251C244.2 238.6 255.6 226.3 267 213.9C265.5 213.8 263.9 213.7 262.4 213.6C265.7 225.1 269 236.7 272.2 248.2C272.7 250 275.9 249.8 276.8 248.5C283.7 238.1 292.1 228.7 301.7 220.7C300.3 220.5 298.9 220.2 297.5 220C300.8 230 304 239.9 307.3 249.9C307.9 251.6 311 251.6 311.9 250.2C318.1 239.9 325.8 230.6 334.7 222.6C333.3 222.2 331.8 221.8 330.4 221.4C332.6 232.9 336.2 244.1 341.3 254.7C342.1 256.3 344.9 256.4 345.9 255C354.6 242.6 364.4 231.1 375.3 220.7C373.9 220.5 372.5 220.2 371.1 220C375.5 234.5 380 249 384.4 263.6C385 265.7 388.5 265.1 389.2 263.4C396.4 246.3 405.9 230.2 417.4 215.6C415.9 215.5 414.3 215.4 412.8 215.3C418.3 233.6 423.7 251.9 429.2 270.2C429.8 272.3 433.3 271.6 434 270C442.3 252.6 450.6 235.2 459 217.7C460.1 215.3 455.2 214.7 454.1 216.9C445.8 234.3 437.5 251.7 429.1 269.2C430.7 269.1 432.3 269.1 433.9 269C428.4 250.7 423 232.4 417.5 214.1C416.9 212.2 413.9 212.6 412.9 213.8C401.2 228.7 391.5 245.1 384.2 262.5C385.8 262.4 387.4 262.4 389 262.3C384.6 247.8 380.1 233.3 375.7 218.7C375.2 217.1 372.5 217.1 371.5 218C360.3 228.7 350.2 240.4 341.3 253.1C342.8 253.2 344.4 253.3 345.9 253.4C340.9 243.2 337.3 232.3 335.2 221.1C334.9 219.3 332.2 218.7 330.9 219.9C321.7 228.2 313.8 237.7 307.4 248.3C308.9 248.4 310.5 248.5 312 248.6C308.7 238.6 305.5 228.7 302.2 218.7C301.7 217.1 299.1 217.1 298 218C288.1 226.3 279.5 235.9 272.4 246.6C273.9 246.7 275.5 246.8 277 246.9C273.7 235.4 270.4 223.8 267.2 212.3C266.6 210.3 263.6 210.9 262.6 212C251.2 224.4 239.8 236.7 228.4 249.1C230 249.4 231.5 249.6 233.1 249.9C230.6 233.5 228 217.1 225.5 200.7C225.2 198.7 221.8 198.2 220.8 199.9C209.6 219.7 199.9 240.4 191.9 261.7C193.5 261.6 195.1 261.6 196.7 261.5C187.8 238.1 177.7 215.1 166.3 192.8C165.5 191.2 162 190.9 161.5 193C154.1 224.5 146.7 255.9 139.3 287.4C140.9 287.3 142.5 287.3 144.1 287.2C130.8 261.8 117.5 236.4 104.3 211C103.3 209.1 99.6 209.3 99.4 211.7C97.2 242.5 94.9 273.3 92.7 304.1C92.1 312.9 91.4 321.8 90.8 330.6C92.4 330.4 94.1 330.1 95.7 329.9C88.6 307.1 74.3 286.8 55.1 272.4C53.2 271.2 49.2 273.6 51.7 275.5Z" fill="white"/>
</g>
<mask id="mask11_201_719" style="mask-type:luminance" maskUnits="userSpaceOnUse" x="51" y="51" width="398" height="398">
<path d="M250 448.5C359.629 448.5 448.5 359.629 448.5 250C448.5 140.371 359.629 51.5 250 51.5C140.371 51.5 51.5 140.371 51.5 250C51.5 359.629 140.371 448.5 250 448.5Z" fill="white"/>
</mask>
<g mask="url(#mask11_201_719)">
<path d="M71.8001 164.3C80.2001 181.8 86.7001 200.2 91.0001 219.2C91.2001 220.2 93.9001 223.6 94.8001 221.5C101 206.8 106.9 191.9 112.5 176.9C115.2 169.7 117.8 162.5 120.4 155.3C122.4 149.7 124.6 144.1 127.6 139C130.9 133.4 135.3 128.4 141.4 125.8C140.3 124.7 139.3 123.6 138.2 122.5C135.6 147 141.2 172.1 153.9 193.2C154.3 193.9 156.7 196.1 157.3 194.4C165.4 170.9 175.2 146.8 192.3 128.4C197.1 123.3 202.4 118.7 208.1 114.7C206.9 113.8 205.7 113 204.5 112.1C206.4 140.6 209.2 169 213 197.3C213.2 198.5 215.8 201.5 216.8 199.6C226.4 180.3 236.3 160.6 251 144.5C255.1 140 259.6 135.8 264.5 132.1C263.3 131.1 262.1 130 260.9 129C259.2 157.3 264.2 185.9 275.4 211.9C275.7 212.7 278.4 215.6 279.1 213.6C286.6 191.2 294.5 168 310 149.6C308.8 148.7 307.6 147.9 306.4 147C308.7 160.7 310.9 174.3 313.2 188C315 199.1 317.3 210.4 324.6 219.3C325 219.8 327.2 221.4 327.6 219.9C334.2 197 344.9 175.4 359.1 156.4C357.8 155.6 356.6 154.9 355.3 154.1C361.2 177 371.9 198.5 386.5 217.1C387.1 217.9 389.4 219.2 389.6 217.3C391.9 193.2 394.5 167.2 409.8 147.4C408.9 147.1 408 146.8 407 146.5C422.5 165.1 437.1 184.5 450.7 204.6C451.2 205.4 452.4 206.7 453.5 206.3C454.6 205.9 454.3 204.5 453.8 203.8C440 183.3 425.1 163.6 409.3 144.6C408.9 144.1 407.2 142.8 406.5 143.7C390.8 164 387.9 190.4 385.6 215.1C386.6 215.2 387.7 215.2 388.7 215.3C374.8 197.7 364.7 177.3 359.1 155.6C358.8 154.3 356.6 151.5 355.3 153.3C341.1 172.4 330.4 194 323.8 216.8C324.8 217 325.8 217.2 326.8 217.4C319.8 209 318.3 197.6 316.6 187.1C314.5 174.2 312.3 161.3 310.2 148.3C310 147.3 307.8 144.3 306.6 145.7C290.9 164.3 282.9 187.6 275.2 210.4C276.4 211 277.6 211.5 278.9 212.1C267.9 186.7 263 158.9 264.7 131.3C264.8 129.9 262.7 127 261.1 128.2C243.7 141.5 231.7 160.3 221.5 179.5C218.5 185.1 215.7 190.7 212.9 196.3C214.2 197.1 215.4 197.8 216.7 198.6C212.9 170.3 210 141.9 208.2 113.4C208.1 112 206.1 109.9 204.6 110.8C183.6 125.2 170.3 147.8 160.8 170.8C158 177.5 155.5 184.3 153.2 191.2C154.3 191.6 155.5 192 156.6 192.4C144.5 172.2 139.3 148.3 141.8 124.9C141.9 123.6 140.1 121 138.6 121.6C127.4 126.4 121.8 137.7 117.7 148.5C112.1 163.2 107 178 101.3 192.7C97.9001 201.3 94.4001 209.8 90.9001 218.3C92.2001 219.1 93.4001 219.8 94.7001 220.6C90.3001 201.3 83.8001 182.5 75.2001 164.6C74.7001 163.6 73.8001 162.4 72.6001 162.3C71.7001 162.3 71.4001 163.5 71.8001 164.3Z" fill="white"/>
</g>
<mask id="mask12_201_719" style="mask-type:luminance" maskUnits="userSpaceOnUse" x="51" y="51" width="398" height="398">
<path d="M250 448.5C359.629 448.5 448.5 359.629 448.5 250C448.5 140.371 359.629 51.5 250 51.5C140.371 51.5 51.5 140.371 51.5 250C51.5 359.629 140.371 448.5 250 448.5Z" fill="white"/>
</mask>
<g mask="url(#mask12_201_719)">
<path d="M118.7 131C117.9 112.6 120.7 94.0999 126.8 76.7999C128.6 71.7999 130.6 66.8998 132.9 62.1998C131.5 61.4998 130.1 60.7998 128.7 60.0998C132.4 79.3998 136.6 99.8998 149.8 115.3C150.4 116 153.4 118.1 153.7 116.1C157.2 93.5998 161 70.0998 172.6 50.0998C175.8 44.5998 179.5 39.4998 183.9 34.8998C182.5 34.0998 181.1 33.1998 179.7 32.3998C179.7 53.1998 182.4 73.9998 187.9 94.0998C189.4 99.7998 191.2 105.4 193.2 111C193.6 112 197.1 114.3 197.4 112.3C200.9 90.4999 207.9 69.1998 218.1 49.5998C221 44.0998 224.1 38.6998 227.4 33.3998C226 32.6998 224.6 31.9998 223.2 31.2998C226 53.1998 221.6 75.4999 225 97.2999C226 103.4 227.6 109.3 230 115C230.4 115.8 231.3 116.5 232.1 116.8C232.6 117 233.8 117.3 234.1 116.6C241.3 99.8998 248.7 82.5998 261.1 68.9998C264.5 65.1998 268.3 61.7998 272.5 58.8998C271.2 57.9998 269.9 57.0998 268.6 56.0998C267.7 76.6998 266.7 97.4998 270.1 117.9C271.1 123.7 272.4 129.3 274.1 134.9C274.5 136.2 277.6 138.8 278.5 136.6C285.2 119.8 292.4 102.2 305.1 88.8998C308.6 85.1998 312.6 81.9999 316.9 79.2999C315.6 78.4999 314.3 77.6998 313 76.9998C314.1 86.8998 315.1 96.8998 316.2 106.8C317.3 116.3 318.6 125.7 320.9 135C322.2 140.2 323.8 145.4 325.8 150.4C326.3 151.5 329.4 153.7 330 151.7C335 135.4 340.1 118.6 350.2 104.6C353 100.7 356.2 97.0998 359.7 93.8998C358.3 93.1998 356.9 92.4999 355.5 91.7999C357.8 110.4 363.2 128.6 371.5 145.5C373.8 150.3 376.4 154.9 379.2 159.4C379.7 160.2 383 162.1 383.1 160.2C384.5 136.7 389.8 113.3 398.8 91.5998C401.4 85.3998 404.2 79.3998 407.3 73.3998C408.2 71.5998 404.1 68.8998 403.2 70.4998C392.1 91.4998 384.5 114.3 380.8 137.8C379.8 144.5 379 151.2 378.6 158C379.9 158.3 381.2 158.5 382.5 158.8C373 143.3 366.2 126.2 362.3 108.5C361.2 103.4 360.3 98.2998 359.7 93.0998C359.5 91.4998 356.8 89.7998 355.5 90.9998C342.6 102.8 335.4 119.1 329.9 135.4C328.3 140.1 326.9 144.8 325.4 149.6C326.8 150 328.2 150.4 329.6 150.9C322.6 133.2 321 114 318.9 95.2999C318.3 89.6999 317.7 84.0998 317.1 78.4998C317 77.1998 314.5 75.2998 313.2 76.1998C297.2 86.1998 287.5 103.1 280.1 120C277.9 124.9 276 129.8 274 134.8C275.5 135.4 276.9 136 278.4 136.5C272.3 116.9 271.6 96.2999 272.2 75.8998C272.4 70.0998 272.6 64.2998 272.9 58.4998C273 57.0998 270.4 54.6998 269 55.6998C253.8 66.3998 244.2 82.7999 236.5 99.2999C234.2 104.1 232.1 109 230 113.9C231.4 114.4 232.7 115 234.1 115.5C225.4 95.1998 228.6 72.5998 228.6 51.1998C228.6 44.9998 228.4 38.8998 227.6 32.6998C227.4 31.3998 224.4 28.9998 223.4 30.5998C211.4 49.3998 202.4 70.0998 196.9 91.6998C195.3 97.7998 194.1 104 193 110.2C194.4 110.6 195.8 111 197.2 111.5C190.4 92.2998 186.3 72.2998 184.7 51.9998C184.3 46.1998 184.1 40.4998 184.1 34.6998C184.1 33.0998 181.3 30.6998 179.9 32.1998C163.9 49.1998 157.1 72.0998 152.8 94.4998C151.5 101 150.5 107.6 149.5 114.1C150.8 114.4 152.1 114.6 153.4 114.9C140.5 99.7999 136.6 79.9998 133 61.2998C132.8 60.3998 131.9 59.4998 131.1 59.0998C130.6 58.7998 129.2 58.3998 128.8 59.1998C120.6 76.1998 115.7 94.6998 114.5 113.5C114.2 118.9 114.1 124.3 114.4 129.6C114.4 131.4 118.8 133.5 118.7 131Z" fill="white"/>
</g>
<mask id="mask13_201_719" style="mask-type:luminance" maskUnits="userSpaceOnUse" x="51" y="51" width="398" height="398">
<path d="M250 448.5C359.629 448.5 448.5 359.629 448.5 250C448.5 140.371 359.629 51.5 250 51.5C140.371 51.5 51.5 140.371 51.5 250C51.5 359.629 140.371 448.5 250 448.5Z" fill="white"/>
</mask>
<g mask="url(#mask13_201_719)">
<path d="M286.7 59.4998C297.2 48.1998 308.7 37.9998 321.1 28.9998C319.9 29.2998 318.6 29.5998 317.4 29.9998C320.1 48.5998 324.1 67.0998 329.6 85.0998C329.9 86.1998 332.9 84.3998 333.3 84.0998C339.5 79.5998 345.7 75.1998 351.9 70.6998C352.4 70.2998 353.2 69.3998 352.2 69.1998C351.2 68.9998 349.7 69.8998 349 70.3998C342.8 74.8998 336.6 79.2998 330.4 83.7998C331.6 83.4998 332.9 83.1998 334.1 82.7998C328.6 64.7998 324.6 46.3998 321.9 27.6998C321.7 26.5998 318.5 28.4998 318.2 28.6998C305.4 37.9998 293.6 48.3998 282.9 59.9998C282.3 60.6998 282.5 61.1998 283.5 61.0998C284.6 60.9998 285.9 60.2998 286.7 59.4998Z" fill="white"/>
</g>
<mask id="mask14_201_719" style="mask-type:luminance" maskUnits="userSpaceOnUse" x="51" y="51" width="398" height="398">
<path d="M250 448.5C359.629 448.5 448.5 359.629 448.5 250C448.5 140.371 359.629 51.5 250 51.5C140.371 51.5 51.5 140.371 51.5 250C51.5 359.629 140.371 448.5 250 448.5Z" fill="white"/>
</mask>
<g mask="url(#mask14_201_719)">
<path d="M224 447.1C222.7 436.2 223.9 425.1 227.4 414.7C226.2 414.3 224.9 413.9 223.7 413.5C234 426.4 243.4 440 252 454.2C252.4 454.8 255.5 457.2 255.7 455.4C257.9 438.7 256.2 421.6 259.3 405C260.1 400.4 261.4 395.8 263.2 391.4C261.9 390.8 260.5 390.3 259.2 389.7C267 408.1 274.8 426.6 282.9 444.8C285.2 450 287.5 455.2 289.9 460.3C290.3 461.2 291.2 462 292.1 462.4C292.6 462.6 293.7 462.9 293.9 462C297.2 442.2 300.4 422.4 303.8 402.7C304.5 399 305.4 394.5 309.1 392.6C307.9 391.7 306.6 390.8 305.4 390C309 408.2 313.5 426.2 318.7 443.9C320.2 449 321.8 454.1 323.4 459.1C323.7 460.1 324.4 460.8 325.2 461.3C325.6 461.5 327.1 462.2 327.4 461.5C334.6 445.7 341.9 430 349.1 414.2C351.1 409.8 353.2 405.3 355.2 400.9C353.9 400.2 352.6 399.6 351.3 398.9C356.8 413.4 362.4 428 367.9 442.5C368.3 443.5 369.6 444.5 370.7 444.7C371.7 444.9 372.2 444.3 371.8 443.3C366.3 428.8 360.7 414.2 355.2 399.7C354.9 398.9 354 398.1 353.2 397.8C352.8 397.6 351.6 397.1 351.3 397.7C344.1 413.5 336.8 429.2 329.6 445C327.6 449.4 325.5 453.9 323.5 458.3C324.8 459.1 326.2 459.9 327.5 460.7C321.8 443.1 316.8 425.2 312.7 407.1C311.5 401.9 310.4 396.7 309.4 391.5C309.2 390.3 307 388.1 305.7 388.9C302.4 390.6 301 394 300.1 397.5C299 402.1 298.4 406.9 297.6 411.6C295.9 421.7 294.2 431.8 292.5 442C291.5 447.8 290.6 453.6 289.6 459.4C290.9 460 292.3 460.5 293.6 461.1C285.3 442.9 277.4 424.5 269.5 406.1C267.3 400.9 265.1 395.6 262.9 390.4C262.5 389.4 259.6 386.9 258.9 388.7C252.6 404.5 253.4 421.7 252.7 438.4C252.5 443.2 252.2 448 251.5 452.7C252.7 453.1 254 453.5 255.2 453.9C246.6 439.8 237.2 426.2 226.9 413.2C226.3 412.5 223.7 410.3 223.2 412C219.6 422.6 218.5 434 219.8 445.2C219.9 446.3 221.2 447.3 222.2 447.7C223 448.1 224.1 448.2 224 447.1Z" fill="white"/>
</g>
</svg>
