<svg width="500" height="500" viewBox="0 0 500 500" fill="none" xmlns="http://www.w3.org/2000/svg">
<mask id="mask0_201_736" style="mask-type:luminance" maskUnits="userSpaceOnUse" x="51" y="51" width="398" height="398">
<path d="M250 448.5C359.629 448.5 448.5 359.629 448.5 250C448.5 140.371 359.629 51.5 250 51.5C140.371 51.5 51.5 140.371 51.5 250C51.5 359.629 140.371 448.5 250 448.5Z" fill="white"/>
</mask>
<g mask="url(#mask0_201_736)">
<path d="M103.1 51.1C101.9 84 99.6 116.8 96.1 149.5C95.1 158.7 94 167.9 92.9 177.1C92.7 179.1 97.6 179.4 97.9 177.4C102 144.8 105 112 106.9 79.2C107.4 70 107.8 60.7 108.2 51.5C108.2 49.3 103.2 49 103.1 51.1Z" fill="white"/>
</g>
<mask id="mask1_201_736" style="mask-type:luminance" maskUnits="userSpaceOnUse" x="51" y="51" width="398" height="398">
<path d="M250 448.5C359.629 448.5 448.5 359.629 448.5 250C448.5 140.371 359.629 51.5 250 51.5C140.371 51.5 51.5 140.371 51.5 250C51.5 359.629 140.371 448.5 250 448.5Z" fill="white"/>
</mask>
<g mask="url(#mask1_201_736)">
<path d="M92.1 194.5C86.7 219.4 81.7 244.5 77 269.6C72.4 294.6 68.1 319.7 64.3 344.8C62.1 359 60.1 373.2 58.1 387.4C57.9 388.9 62.6 390.3 62.7 389.3C66.1 364 69.9 338.8 74.1 313.6C78.3 288.5 82.9 263.5 87.8 238.5C90.6 224.4 93.5 210.4 96.6 196.3C97 195 92.4 193.5 92.1 194.5Z" fill="white"/>
</g>
<mask id="mask2_201_736" style="mask-type:luminance" maskUnits="userSpaceOnUse" x="51" y="51" width="398" height="398">
<path d="M250 448.5C359.629 448.5 448.5 359.629 448.5 250C448.5 140.371 359.629 51.5 250 51.5C140.371 51.5 51.5 140.371 51.5 250C51.5 359.629 140.371 448.5 250 448.5Z" fill="white"/>
</mask>
<g mask="url(#mask2_201_736)">
<path d="M85.2001 115.2C83.2001 137.7 81.7001 160.3 80.8001 182.9C80.5001 189.3 80.3001 195.7 80.1001 202C80.1001 203.2 80.8001 204.5 81.9001 205C82.9001 205.5 83.8001 205 83.9001 203.8C84.5001 181.2 85.7001 158.6 87.4001 136C87.9001 129.6 88.4001 123.3 89.0001 116.9C89.1001 115.7 88.2001 114.4 87.2001 113.9C86.1001 113.5 85.3001 114.1 85.2001 115.2Z" fill="white"/>
</g>
<mask id="mask3_201_736" style="mask-type:luminance" maskUnits="userSpaceOnUse" x="51" y="51" width="398" height="398">
<path d="M250 448.5C359.629 448.5 448.5 359.629 448.5 250C448.5 140.371 359.629 51.5 250 51.5C140.371 51.5 51.5 140.371 51.5 250C51.5 359.629 140.371 448.5 250 448.5Z" fill="white"/>
</mask>
<g mask="url(#mask3_201_736)">
<path d="M69.5 235.3C63.9 257 59.3 278.9 55.6 300.9C54.6 307.2 53.6001 313.5 52.7001 319.8C52.5001 321.3 57.4 322.3 57.6 321C60.8 298.9 64.8001 276.9 69.9001 255.1C71.3001 248.9 72.8001 242.7 74.4001 236.5C74.7001 235 69.9 233.8 69.5 235.3Z" fill="white"/>
</g>
<mask id="mask4_201_736" style="mask-type:luminance" maskUnits="userSpaceOnUse" x="51" y="51" width="398" height="398">
<path d="M250 448.5C359.629 448.5 448.5 359.629 448.5 250C448.5 140.371 359.629 51.5 250 51.5C140.371 51.5 51.5 140.371 51.5 250C51.5 359.629 140.371 448.5 250 448.5Z" fill="white"/>
</mask>
<g mask="url(#mask4_201_736)">
<path d="M67.9999 157.5C62.4999 187.2 56.8999 217 51.3999 246.7C49.7999 255 48.2999 263.4 46.6999 271.7C46.4999 273 47.1999 274.2 48.3999 274.7C49.3999 275.1 51.0999 274.7 51.2999 273.5C56.7999 243.8 62.3999 214 67.8999 184.3C69.4999 176 70.9999 167.6 72.5999 159.3C72.7999 158 72.0999 156.8 70.8999 156.3C69.8999 155.9 68.1999 156.2 67.9999 157.5Z" fill="white"/>
</g>
<mask id="mask5_201_736" style="mask-type:luminance" maskUnits="userSpaceOnUse" x="51" y="51" width="398" height="398">
<path d="M250 448.5C359.629 448.5 448.5 359.629 448.5 250C448.5 140.371 359.629 51.5 250 51.5C140.371 51.5 51.5 140.371 51.5 250C51.5 359.629 140.371 448.5 250 448.5Z" fill="white"/>
</mask>
<g mask="url(#mask5_201_736)">
<path d="M112.9 97.3C111.5 113.8 110.4 130.3 109.4 146.9C108.4 163.5 107.7 180.2 107.1 196.8C106.8 206.2 106.5 215.5 106.3 224.9C106.3 225.6 111.1 224.9 111.1 223.5C111.4 206.9 112 190.4 112.7 173.8C113.4 157.2 114.4 140.5 115.5 123.9C116.1 114.6 116.9 105.2 117.6 95.9C117.8 95.3 113 95.8 112.9 97.3Z" fill="white"/>
</g>
<mask id="mask6_201_736" style="mask-type:luminance" maskUnits="userSpaceOnUse" x="51" y="51" width="398" height="398">
<path d="M250 448.5C359.629 448.5 448.5 359.629 448.5 250C448.5 140.371 359.629 51.5 250 51.5C140.371 51.5 51.5 140.371 51.5 250C51.5 359.629 140.371 448.5 250 448.5Z" fill="white"/>
</mask>
<g mask="url(#mask6_201_736)">
<path d="M103.8 250.4C102.1 274.9 100.1 299.4 97.8999 323.9C95.5999 348.3 93.0999 372.7 90.2999 397C88.6999 410.7 86.9999 424.5 85.1999 438.2C84.9999 439.5 85.6999 440.7 86.8999 441.3C87.8999 441.7 89.3999 441.4 89.5999 440.2C92.7999 415.7 95.6999 391.2 98.2999 366.7C100.9 342.1 103.2 317.5 105.2 292.9C106.3 279 107.4 265.2 108.4 251.3C108.5 248.6 104 247.3 103.8 250.4Z" fill="white"/>
</g>
<mask id="mask7_201_736" style="mask-type:luminance" maskUnits="userSpaceOnUse" x="51" y="51" width="398" height="398">
<path d="M250 448.5C359.629 448.5 448.5 359.629 448.5 250C448.5 140.371 359.629 51.5 250 51.5C140.371 51.5 51.5 140.371 51.5 250C51.5 359.629 140.371 448.5 250 448.5Z" fill="white"/>
</mask>
<g mask="url(#mask7_201_736)">
<path d="M123.9 77.5C124.1 95.4 124.3 113.3 124.5 131.1C124.7 148.9 124.9 166.9 125.1 184.7C125.2 194.8 125.3 205 125.4 215.1C125.4 217.6 130.2 218.6 130.1 215.6C129.9 197.7 129.7 179.8 129.5 162C129.3 144.1 129.1 126.2 128.9 108.4C128.8 98.3 128.7 88.1 128.6 78C128.6 75.6 123.9 74.6 123.9 77.5Z" fill="white"/>
</g>
<mask id="mask8_201_736" style="mask-type:luminance" maskUnits="userSpaceOnUse" x="51" y="51" width="398" height="398">
<path d="M250 448.5C359.629 448.5 448.5 359.629 448.5 250C448.5 140.371 359.629 51.5 250 51.5C140.371 51.5 51.5 140.371 51.5 250C51.5 359.629 140.371 448.5 250 448.5Z" fill="white"/>
</mask>
<g mask="url(#mask8_201_736)">
<path d="M126.2 240.5C124.9 265.3 123.6 290.2 122.2 315C120.8 339.8 119.6 364.7 118.2 389.5C117.5 403.5 116.7 417.4 116 431.4C115.9 432.7 120.4 434.6 120.5 433.3C121.8 408.5 123.1 383.6 124.5 358.8C125.8 334 127.1 309.1 128.5 284.3C129.2 270.3 130 256.4 130.7 242.4C130.7 241.1 126.3 239.1 126.2 240.5Z" fill="white"/>
</g>
<mask id="mask9_201_736" style="mask-type:luminance" maskUnits="userSpaceOnUse" x="51" y="51" width="398" height="398">
<path d="M250 448.5C359.629 448.5 448.5 359.629 448.5 250C448.5 140.371 359.629 51.5 250 51.5C140.371 51.5 51.5 140.371 51.5 250C51.5 359.629 140.371 448.5 250 448.5Z" fill="white"/>
</mask>
<g mask="url(#mask9_201_736)">
<path d="M143.5 62.9C142.9 91.4 142.3 120 142 148.5C141.6 177 141.4 205.6 141.3 234.1C141.2 250.1 141.2 266 141.3 282C141.3 284.8 146.3 285 146.3 282C146.2 253.5 146.3 224.9 146.6 196.4C146.9 167.9 147.2 139.3 147.7 110.8C148 94.8 148.3 78.9 148.7 62.9C148.6 60.1 143.6 59.9 143.5 62.9Z" fill="white"/>
</g>
<mask id="mask10_201_736" style="mask-type:luminance" maskUnits="userSpaceOnUse" x="51" y="51" width="398" height="398">
<path d="M250 448.5C359.629 448.5 448.5 359.629 448.5 250C448.5 140.371 359.629 51.5 250 51.5C140.371 51.5 51.5 140.371 51.5 250C51.5 359.629 140.371 448.5 250 448.5Z" fill="white"/>
</mask>
<g mask="url(#mask10_201_736)">
<path d="M138.2 301.2C138 322 137.8 342.8 137.6 363.7C137.4 384.6 137.2 405.5 137 426.4C136.9 438.1 136.8 449.9 136.6 461.6C136.6 463.1 141.5 463.7 141.5 462.5C141.7 441.7 141.9 420.9 142.1 400C142.3 379.1 142.5 358.2 142.7 337.3C142.8 325.6 142.9 313.8 143.1 302.1C143.1 300.6 138.2 300 138.2 301.2Z" fill="white"/>
</g>
<mask id="mask11_201_736" style="mask-type:luminance" maskUnits="userSpaceOnUse" x="51" y="51" width="398" height="398">
<path d="M250 448.5C359.629 448.5 448.5 359.629 448.5 250C448.5 140.371 359.629 51.5 250 51.5C140.371 51.5 51.5 140.371 51.5 250C51.5 359.629 140.371 448.5 250 448.5Z" fill="white"/>
</mask>
<g mask="url(#mask11_201_736)">
<path d="M157.4 65.7C157.7 88.6 157.9 111.6 158.2 134.5C158.5 157.4 158.7 180.2 159 203.1C159.1 216 159.3 228.9 159.4 241.8C159.4 243 160.3 244.3 161.6 244.5C162.8 244.7 163.6 243.6 163.6 242.5C163.3 219.6 163.1 196.6 162.8 173.7C162.5 150.8 162.3 128 162 105.1C161.9 92.2 161.7 79.3 161.6 66.4C161.6 65.2 160.7 63.9 159.4 63.7C158.1 63.5 157.4 64.6 157.4 65.7Z" fill="white"/>
</g>
<mask id="mask12_201_736" style="mask-type:luminance" maskUnits="userSpaceOnUse" x="51" y="51" width="398" height="398">
<path d="M250 448.5C359.629 448.5 448.5 359.629 448.5 250C448.5 140.371 359.629 51.5 250 51.5C140.371 51.5 51.5 140.371 51.5 250C51.5 359.629 140.371 448.5 250 448.5Z" fill="white"/>
</mask>
<g mask="url(#mask12_201_736)">
<path d="M158.7 267.6C158.5 292.1 158.3 316.7 158.1 341.2C157.9 365.7 157.7 390.3 157.5 414.8C157.4 428.6 157.3 442.4 157.2 456.2C157.2 456.4 159.4 455.3 159.5 455.2C159.9 455 161.5 454.3 161.5 453.7C161.7 429.2 161.9 404.6 162.1 380.1C162.3 355.6 162.5 331 162.7 306.5C162.8 292.7 162.9 278.9 163 265.1C163 264.9 160.8 266 160.7 266.1C160.3 266.4 158.7 267.1 158.7 267.6Z" fill="white"/>
</g>
<mask id="mask13_201_736" style="mask-type:luminance" maskUnits="userSpaceOnUse" x="51" y="51" width="398" height="398">
<path d="M250 448.5C359.629 448.5 448.5 359.629 448.5 250C448.5 140.371 359.629 51.5 250 51.5C140.371 51.5 51.5 140.371 51.5 250C51.5 359.629 140.371 448.5 250 448.5Z" fill="white"/>
</mask>
<g mask="url(#mask13_201_736)">
<path d="M172.5 51.7C173 82.3 173.6 113 174.1 143.6C174.6 174.1 175.2 204.5 175.7 235C176 252.1 176.3 269.3 176.6 286.4C176.6 287.6 177.2 288.9 178.3 289.5C179.2 290 180.2 289.6 180.2 288.5C179.7 257.9 179.1 227.2 178.6 196.6C178.1 166.1 177.5 135.7 177 105.2C176.7 88.1 176.4 70.9 176.1 53.8C176.1 52.6 175.5 51.3 174.4 50.7C173.5 50.2 172.4 50.6 172.5 51.7Z" fill="white"/>
</g>
<mask id="mask14_201_736" style="mask-type:luminance" maskUnits="userSpaceOnUse" x="51" y="51" width="398" height="398">
<path d="M250 448.5C359.629 448.5 448.5 359.629 448.5 250C448.5 140.371 359.629 51.5 250 51.5C140.371 51.5 51.5 140.371 51.5 250C51.5 359.629 140.371 448.5 250 448.5Z" fill="white"/>
</mask>
<g mask="url(#mask14_201_736)">
<path d="M177.6 305.3C176.7 328.1 176.3 351 176.3 373.8C176.3 396.6 176.8 419.3 177.8 442C178.3 454.9 179 467.7 179.8 480.6C179.9 481.8 180.4 483.1 181.5 483.7C182.4 484.2 183.5 483.8 183.4 482.6C181.9 459.8 180.9 437 180.4 414.2C179.8 391.5 179.8 368.7 180.1 345.9C180.3 333 180.7 320.2 181.2 307.3C181.2 306.1 180.5 304.8 179.5 304.2C178.6 303.8 177.7 304.2 177.6 305.3Z" fill="white"/>
</g>
<mask id="mask15_201_736" style="mask-type:luminance" maskUnits="userSpaceOnUse" x="51" y="51" width="398" height="398">
<path d="M250 448.5C359.629 448.5 448.5 359.629 448.5 250C448.5 140.371 359.629 51.5 250 51.5C140.371 51.5 51.5 140.371 51.5 250C51.5 359.629 140.371 448.5 250 448.5Z" fill="white"/>
</mask>
<g mask="url(#mask15_201_736)">
<path d="M190.6 50.7C191.2 76.1 191.7 101.6 192.2 127.1C192.7 152.6 193 178 193.2 203.5C193.3 217.8 193.4 232.1 193.5 246.4C193.5 247.6 194.7 248.2 195.7 248.4C196.4 248.5 198.4 248.5 198.4 247.3C198.3 221.8 198 196.4 197.7 170.9C197.4 145.4 197 120 196.5 94.5C196.2 80.2 195.9 65.9 195.6 51.6C195.6 50.4 194.5 49.8 193.4 49.6C192.6 49.6 190.5 49.6 190.6 50.7Z" fill="white"/>
</g>
<mask id="mask16_201_736" style="mask-type:luminance" maskUnits="userSpaceOnUse" x="51" y="51" width="398" height="398">
<path d="M250 448.5C359.629 448.5 448.5 359.629 448.5 250C448.5 140.371 359.629 51.5 250 51.5C140.371 51.5 51.5 140.371 51.5 250C51.5 359.629 140.371 448.5 250 448.5Z" fill="white"/>
</mask>
<g mask="url(#mask16_201_736)">
<path d="M191 275.9C190.9 300.1 190.7 324.2 190.6 348.4C190.5 372.5 190.3 396.6 190.2 420.6C190.1 434.2 190 447.8 190 461.3C190 461.7 195 461.6 195 461C195.1 436.8 195.3 412.7 195.4 388.5C195.5 364.4 195.7 340.3 195.8 316.3C195.9 302.7 196 289.1 196 275.6C196 275.3 191 275.4 191 275.9Z" fill="white"/>
</g>
<mask id="mask17_201_736" style="mask-type:luminance" maskUnits="userSpaceOnUse" x="51" y="51" width="398" height="398">
<path d="M250 448.5C359.629 448.5 448.5 359.629 448.5 250C448.5 140.371 359.629 51.5 250 51.5C140.371 51.5 51.5 140.371 51.5 250C51.5 359.629 140.371 448.5 250 448.5Z" fill="white"/>
</mask>
<g mask="url(#mask17_201_736)">
<path d="M215.5 13.8C215.7 41.9 216.1 70.1 216.9 98.2C217.7 126.3 218.7 154.4 220.1 182.5C220.9 198.3 221.7 214 222.6 229.7C222.6 229.9 227.3 228.9 227.2 227.7C225.5 199.6 224.1 171.5 223.1 143.4C222 115.3 221.2 87.2 220.7 59C220.4 43.2 220.2 27.5 220.1 11.7C220.1 11.3 217.8 12.2 217.6 12.2C217.2 12.6 215.5 13.2 215.5 13.8Z" fill="white"/>
</g>
<mask id="mask18_201_736" style="mask-type:luminance" maskUnits="userSpaceOnUse" x="51" y="51" width="398" height="398">
<path d="M250 448.5C359.629 448.5 448.5 359.629 448.5 250C448.5 140.371 359.629 51.5 250 51.5C140.371 51.5 51.5 140.371 51.5 250C51.5 359.629 140.371 448.5 250 448.5Z" fill="white"/>
</mask>
<g mask="url(#mask18_201_736)">
<path d="M219.1 247.2C218.7 275.3 218.3 303.4 217.9 331.5C217.5 359.6 217.1 387.7 216.7 415.8C216.5 431.6 216.2 447.4 216 463.2C216 464.8 220.9 464.4 221 462.5C221.4 434.4 221.8 406.3 222.2 378.2C222.6 350.1 223 322 223.4 293.9C223.6 278.1 223.9 262.3 224.1 246.5C224 244.8 219.1 245.3 219.1 247.2Z" fill="white"/>
</g>
<mask id="mask19_201_736" style="mask-type:luminance" maskUnits="userSpaceOnUse" x="51" y="51" width="398" height="398">
<path d="M250 448.5C359.629 448.5 448.5 359.629 448.5 250C448.5 140.371 359.629 51.5 250 51.5C140.371 51.5 51.5 140.371 51.5 250C51.5 359.629 140.371 448.5 250 448.5Z" fill="white"/>
</mask>
<g mask="url(#mask19_201_736)">
<path d="M229.3 41.9C229.9 72.7 230.2 103.5 230.2 134.3C230.2 143 230.2 151.6 230.1 160.3C230.1 162.9 235 163.9 235 161.1C235.2 130.3 235.1 99.5 234.6 68.7C234.5 60 234.3 51.4 234.1 42.7C234.1 41.4 233 40.4 231.8 40.2C230.9 40.1 229.3 40.6 229.3 41.9Z" fill="white"/>
</g>
<mask id="mask20_201_736" style="mask-type:luminance" maskUnits="userSpaceOnUse" x="51" y="51" width="398" height="398">
<path d="M250 448.5C359.629 448.5 448.5 359.629 448.5 250C448.5 140.371 359.629 51.5 250 51.5C140.371 51.5 51.5 140.371 51.5 250C51.5 359.629 140.371 448.5 250 448.5Z" fill="white"/>
</mask>
<g mask="url(#mask20_201_736)">
<path d="M230.3 186.4C229.3 223.2 228.6 260 228.1 296.8C227.6 333.4 227.3 370 227.3 406.7C227.3 427.4 227.3 448 227.5 468.7C227.5 470 232.5 469.8 232.5 468.5C232.3 431.7 232.3 394.9 232.5 358.1C232.7 321.5 233.2 284.9 233.9 248.2C234.3 227.5 234.8 206.9 235.3 186.2C235.3 185 230.3 185 230.3 186.4Z" fill="white"/>
</g>
<mask id="mask21_201_736" style="mask-type:luminance" maskUnits="userSpaceOnUse" x="51" y="51" width="398" height="398">
<path d="M250 448.5C359.629 448.5 448.5 359.629 448.5 250C448.5 140.371 359.629 51.5 250 51.5C140.371 51.5 51.5 140.371 51.5 250C51.5 359.629 140.371 448.5 250 448.5Z" fill="white"/>
</mask>
<g mask="url(#mask21_201_736)">
<path d="M242.9 39.5C245.3 61.2 247.2 83 248.7 104.8C250.2 126.6 251.2 148.4 251.8 170.3C252.1 182.5 252.3 194.8 252.3 207C252.3 207.3 254.6 206.6 254.8 206.5C255.2 206.4 257 205.9 257 205.3C256.9 183.5 256.4 161.6 255.4 139.8C254.4 118 253 96.2 251.1 74.4C250 62.2 248.8 50 247.5 37.8C247.6 37.7 242.8 38.6 242.9 39.5Z" fill="white"/>
</g>
<mask id="mask22_201_736" style="mask-type:luminance" maskUnits="userSpaceOnUse" x="51" y="51" width="398" height="398">
<path d="M250 448.5C359.629 448.5 448.5 359.629 448.5 250C448.5 140.371 359.629 51.5 250 51.5C140.371 51.5 51.5 140.371 51.5 250C51.5 359.629 140.371 448.5 250 448.5Z" fill="white"/>
</mask>
<g mask="url(#mask22_201_736)">
<path d="M249.5 231.3C248.6 262.4 248.2 293.5 248.2 324.6C248.2 355.5 248.6 386.5 249.5 417.4C250 434.9 250.6 452.3 251.4 469.8C251.5 471 252.6 471.6 253.6 471.7C254.3 471.8 256.4 471.7 256.3 470.6C254.9 439.5 254 408.4 253.5 377.3C253 346.4 253 315.4 253.3 284.5C253.5 267 253.9 249.6 254.3 232.1C254.3 230.9 253.1 230.3 252.1 230.2C251.5 230.1 249.5 230.2 249.5 231.3Z" fill="white"/>
</g>
<mask id="mask23_201_736" style="mask-type:luminance" maskUnits="userSpaceOnUse" x="51" y="51" width="398" height="398">
<path d="M250 448.5C359.629 448.5 448.5 359.629 448.5 250C448.5 140.371 359.629 51.5 250 51.5C140.371 51.5 51.5 140.371 51.5 250C51.5 359.629 140.371 448.5 250 448.5Z" fill="white"/>
</mask>
<g mask="url(#mask23_201_736)">
<path d="M263.8 37C266.2 72.3 268.3 107.5 270.1 142.8C271.9 178 273.4 213.2 274.6 248.4C275.3 268.2 275.9 288.1 276.4 307.9C276.4 309 277.3 309.9 278.1 310.6C278.3 310.8 280.2 312 280.2 311C279.3 275.6 278.1 240.1 276.7 204.7C275.2 169.4 273.4 134.1 271.4 98.8C270.2 79 269 59.2 267.6 39.4C267.5 38.4 266.3 37.2 265.4 36.7C264.8 36.3 263.7 35.9 263.8 37Z" fill="white"/>
</g>
<mask id="mask24_201_736" style="mask-type:luminance" maskUnits="userSpaceOnUse" x="51" y="51" width="398" height="398">
<path d="M250 448.5C359.629 448.5 448.5 359.629 448.5 250C448.5 140.371 359.629 51.5 250 51.5C140.371 51.5 51.5 140.371 51.5 250C51.5 359.629 140.371 448.5 250 448.5Z" fill="white"/>
</mask>
<g mask="url(#mask24_201_736)">
<path d="M275.3 333.7C273.7 352.4 276.5 371.1 279.2 389.5C280.6 398.8 281.9 408.1 282.7 417.5C283.5 426.9 283.9 436.4 284 445.8C284.1 456.6 283.9 467.4 283.7 478.1C283.7 480 287.9 482.4 288 479.8C288.4 460.7 288.8 441.6 287.3 422.6C285.9 403.9 282.2 385.5 280.3 366.9C279.2 356.4 278.7 345.9 279.6 335.4C279.7 333.4 275.5 331 275.3 333.7Z" fill="white"/>
</g>
<mask id="mask25_201_736" style="mask-type:luminance" maskUnits="userSpaceOnUse" x="51" y="51" width="398" height="398">
<path d="M250 448.5C359.629 448.5 448.5 359.629 448.5 250C448.5 140.371 359.629 51.5 250 51.5C140.371 51.5 51.5 140.371 51.5 250C51.5 359.629 140.371 448.5 250 448.5Z" fill="white"/>
</mask>
<g mask="url(#mask25_201_736)">
<path d="M281.9 42.6C281.4 78.2 283.3 113.8 286.1 149.3C288.8 184.7 292.3 220 294.8 255.4C296.2 275.2 297.3 295.1 297.8 315C297.9 318 302.6 316.8 302.5 314.4C301.7 278.8 298.8 243.2 295.8 207.7C292.8 172.4 289.5 137 287.8 101.6C286.8 81.8 286.4 61.9 286.7 42C286.7 39 282 40.1 281.9 42.6Z" fill="white"/>
</g>
<mask id="mask26_201_736" style="mask-type:luminance" maskUnits="userSpaceOnUse" x="51" y="51" width="398" height="398">
<path d="M250 448.5C359.629 448.5 448.5 359.629 448.5 250C448.5 140.371 359.629 51.5 250 51.5C140.371 51.5 51.5 140.371 51.5 250C51.5 359.629 140.371 448.5 250 448.5Z" fill="white"/>
</mask>
<g mask="url(#mask26_201_736)">
<path d="M298 338.1C296.6 366 297.6 394 300.9 421.8C301.8 429.6 303 437.4 304.3 445.1C304.5 446.3 305.3 447.5 306.5 447.8C307.5 448.1 308.6 447.4 308.4 446.2C303.8 418.6 301.5 390.7 301.5 362.7C301.5 354.9 301.7 347 302.1 339.2C302.2 337 298.1 335 298 338.1Z" fill="white"/>
</g>
<mask id="mask27_201_736" style="mask-type:luminance" maskUnits="userSpaceOnUse" x="51" y="51" width="398" height="398">
<path d="M250 448.5C359.629 448.5 448.5 359.629 448.5 250C448.5 140.371 359.629 51.5 250 51.5C140.371 51.5 51.5 140.371 51.5 250C51.5 359.629 140.371 448.5 250 448.5Z" fill="white"/>
</mask>
<g mask="url(#mask27_201_736)">
<path d="M295.7 43.5C294.9 62.4 294.6 81.3 294.8 100.2C295 119 295.7 137.9 296.9 156.7C297.6 167.3 298.4 178 299.4 188.6C299.5 189.4 300.9 190.4 301.5 190.9C301.7 191 303.3 192.2 303.2 191.6C301.5 172.8 300.2 153.9 299.5 135C298.8 116.2 298.5 97.3 298.7 78.5C298.8 67.8 299.1 57.2 299.6 46.5C299.6 45.8 298 44.6 297.5 44.2C297.2 44 295.7 42.9 295.7 43.5Z" fill="white"/>
</g>
<mask id="mask28_201_736" style="mask-type:luminance" maskUnits="userSpaceOnUse" x="51" y="51" width="398" height="398">
<path d="M250 448.5C359.629 448.5 448.5 359.629 448.5 250C448.5 140.371 359.629 51.5 250 51.5C140.371 51.5 51.5 140.371 51.5 250C51.5 359.629 140.371 448.5 250 448.5Z" fill="white"/>
</mask>
<g mask="url(#mask28_201_736)">
<path d="M298.6 214.1C302.2 243.5 305.8 273 309.3 302.4C312.9 331.7 316.4 361 320 390.2C322 406.7 324 423.3 326 439.8C326.2 441.2 331.1 440.3 330.9 438.8C327.3 409.4 323.7 379.9 320.2 350.5C316.6 321.2 313.1 291.9 309.5 262.7C307.5 246.2 305.5 229.6 303.5 213.1C303.4 211.6 298.4 212.5 298.6 214.1Z" fill="white"/>
</g>
<mask id="mask29_201_736" style="mask-type:luminance" maskUnits="userSpaceOnUse" x="51" y="51" width="398" height="398">
<path d="M250 448.5C359.629 448.5 448.5 359.629 448.5 250C448.5 140.371 359.629 51.5 250 51.5C140.371 51.5 51.5 140.371 51.5 250C51.5 359.629 140.371 448.5 250 448.5Z" fill="white"/>
</mask>
<g mask="url(#mask29_201_736)">
<path d="M308.7 52.4C312.9 79.6 315.6 107 317.1 134.5C317.8 148.1 318.4 161.8 319.3 175.4C320.2 189 321.7 202.5 323.6 215.9C325.7 231 327.8 246.2 327.6 261.5C327.6 263.4 332.4 264.7 332.4 262.5C332.5 248.9 330.9 235.4 329.1 222C327.3 208.5 325.5 194.9 324.5 181.3C322.4 154 321.9 126.7 319.3 99.5C317.8 84.1 315.9 68.7 313.5 53.4C313.2 51.4 308.4 50.3 308.7 52.4Z" fill="white"/>
</g>
<mask id="mask30_201_736" style="mask-type:luminance" maskUnits="userSpaceOnUse" x="51" y="51" width="398" height="398">
<path d="M250 448.5C359.629 448.5 448.5 359.629 448.5 250C448.5 140.371 359.629 51.5 250 51.5C140.371 51.5 51.5 140.371 51.5 250C51.5 359.629 140.371 448.5 250 448.5Z" fill="white"/>
</mask>
<g mask="url(#mask30_201_736)">
<path d="M327.4 268.6C331 298.9 334.7 329.3 338.6 359.6C342.5 389.9 346.6 420.2 350.8 450.5C353.2 467.6 355.6 484.7 358.1 501.8C358.3 502.9 359.2 504 360.1 504.6C360.6 504.9 362 505.4 361.8 504.3C357.4 474.1 353.2 443.8 349.1 413.5C345 383.2 341.1 352.9 337.3 322.6C335.2 305.5 333.1 288.3 331.1 271.2C331 270.1 330 269 329.1 268.4C328.6 267.9 327.3 267.4 327.4 268.6Z" fill="white"/>
</g>
<mask id="mask31_201_736" style="mask-type:luminance" maskUnits="userSpaceOnUse" x="51" y="51" width="398" height="398">
<path d="M250 448.5C359.629 448.5 448.5 359.629 448.5 250C448.5 140.371 359.629 51.5 250 51.5C140.371 51.5 51.5 140.371 51.5 250C51.5 359.629 140.371 448.5 250 448.5Z" fill="white"/>
</mask>
<g mask="url(#mask31_201_736)">
<path d="M325.8 58.7C327.2 88.8 329.3 118.8 331.9 148.8C332.6 157.2 333.4 165.6 334.3 174C334.5 175.8 339.1 174 338.9 172.5C335.9 142.5 333.5 112.5 331.7 82.4C331.2 74 330.8 65.5 330.4 57.1C330.3 55.5 325.7 57.2 325.8 58.7Z" fill="white"/>
</g>
<mask id="mask32_201_736" style="mask-type:luminance" maskUnits="userSpaceOnUse" x="51" y="51" width="398" height="398">
<path d="M250 448.5C359.629 448.5 448.5 359.629 448.5 250C448.5 140.371 359.629 51.5 250 51.5C140.371 51.5 51.5 140.371 51.5 250C51.5 359.629 140.371 448.5 250 448.5Z" fill="white"/>
</mask>
<g mask="url(#mask32_201_736)">
<path d="M336.5 201C339.4 232.2 342.4 263.5 345.7 294.7C349 325.7 352.4 356.8 356.1 387.7C358.2 405.2 360.3 422.6 362.5 440.1C362.8 442.6 367.5 440.9 367.2 438.7C363.3 407.6 359.5 376.4 356 345.2C352.5 314.2 349.2 283.1 346.1 252.1C344.4 234.6 342.7 217.1 341.1 199.5C340.9 197.1 336.3 198.8 336.5 201Z" fill="white"/>
</g>
<mask id="mask33_201_736" style="mask-type:luminance" maskUnits="userSpaceOnUse" x="51" y="51" width="398" height="398">
<path d="M250 448.5C359.629 448.5 448.5 359.629 448.5 250C448.5 140.371 359.629 51.5 250 51.5C140.371 51.5 51.5 140.371 51.5 250C51.5 359.629 140.371 448.5 250 448.5Z" fill="white"/>
</mask>
<g mask="url(#mask33_201_736)">
<path d="M343.9 60.2C345.9 87.2 347.4 114.2 348.3 141.3C348.8 154.7 349.1 168.2 349.3 181.6C349.5 194.9 349.5 208.3 349.9 221.7C350.4 236.6 351.4 251.5 353.9 266.2C354.1 267.6 359 266.5 358.7 265C354.1 238.7 354.5 212 354.2 185.4C353.9 158.4 353 131.4 351.6 104.5C350.8 89.3 349.8 74.2 348.7 59C348.7 57.6 343.8 58.5 343.9 60.2Z" fill="white"/>
</g>
<mask id="mask34_201_736" style="mask-type:luminance" maskUnits="userSpaceOnUse" x="51" y="51" width="398" height="398">
<path d="M250 448.5C359.629 448.5 448.5 359.629 448.5 250C448.5 140.371 359.629 51.5 250 51.5C140.371 51.5 51.5 140.371 51.5 250C51.5 359.629 140.371 448.5 250 448.5Z" fill="white"/>
</mask>
<g mask="url(#mask34_201_736)">
<path d="M356.9 280.2C360.1 298.1 363.1 316 365.8 334C368.5 351.9 371.1 369.9 373.4 387.8C374.7 398 375.9 408.2 377.1 418.5C377.2 419.7 377.9 420.9 379 421.5C379.9 422 380.8 421.6 380.6 420.5C378.5 402.3 376.2 384.2 373.7 366.1C371.2 347.9 368.4 329.7 365.4 311.6C363.7 301.4 362 291.3 360.2 281.2C360 280.2 359 278.8 358 278.6C356.9 278.3 356.8 279.4 356.9 280.2Z" fill="white"/>
</g>
<mask id="mask35_201_736" style="mask-type:luminance" maskUnits="userSpaceOnUse" x="51" y="51" width="398" height="398">
<path d="M250 448.5C359.629 448.5 448.5 359.629 448.5 250C448.5 140.371 359.629 51.5 250 51.5C140.371 51.5 51.5 140.371 51.5 250C51.5 359.629 140.371 448.5 250 448.5Z" fill="white"/>
</mask>
<g mask="url(#mask35_201_736)">
<path d="M362.8 70.2C364.2 97 365.5 123.8 366.9 150.6C368.3 177.4 369.6 204.2 371 231C371.8 246.1 372.6 261.3 373.3 276.4C373.3 277.2 374.5 278.4 375 279C375.2 279.2 376.4 280.5 376.4 280.1C375 253.3 373.7 226.5 372.3 199.7C370.9 172.9 369.6 146.1 368.2 119.3C367.4 104.2 366.6 89 365.9 73.9C365.9 73.1 364.7 71.9 364.2 71.3C364 71.1 362.7 69.8 362.8 70.2Z" fill="white"/>
</g>
<mask id="mask36_201_736" style="mask-type:luminance" maskUnits="userSpaceOnUse" x="51" y="51" width="398" height="398">
<path d="M250 448.5C359.629 448.5 448.5 359.629 448.5 250C448.5 140.371 359.629 51.5 250 51.5C140.371 51.5 51.5 140.371 51.5 250C51.5 359.629 140.371 448.5 250 448.5Z" fill="white"/>
</mask>
<g mask="url(#mask36_201_736)">
<path d="M375.4 298.6C376.9 314.3 380.7 329.6 385 344.7C389.2 359.9 393.9 374.9 397.2 390.3C399 399 400.4 407.7 401 416.5C401.2 419 406.1 419.1 405.9 416.3C404.9 400.6 401.4 385.3 397.2 370.1C393.1 354.9 388.3 339.8 384.8 324.5C382.8 315.9 381.2 307.1 380.4 298.3C380 295.9 375.1 295.8 375.4 298.6Z" fill="white"/>
</g>
<mask id="mask37_201_736" style="mask-type:luminance" maskUnits="userSpaceOnUse" x="51" y="51" width="398" height="398">
<path d="M250 448.5C359.629 448.5 448.5 359.629 448.5 250C448.5 140.371 359.629 51.5 250 51.5C140.371 51.5 51.5 140.371 51.5 250C51.5 359.629 140.371 448.5 250 448.5Z" fill="white"/>
</mask>
<g mask="url(#mask37_201_736)">
<path d="M381.4 88.9C381 114.2 381.1 139.6 381.8 164.9C382.5 190.1 383.8 215.2 385.7 240.4C386.8 254.6 388 268.8 389.4 283C389.6 285 394.3 283.4 394.1 281.7C391.6 256.5 389.6 231.2 388.3 205.9C386.9 180.8 386.2 155.6 385.9 130.4C385.8 116.2 385.8 101.9 386.1 87.7C386.1 85.6 381.4 87.1 381.4 88.9Z" fill="white"/>
</g>
<mask id="mask38_201_736" style="mask-type:luminance" maskUnits="userSpaceOnUse" x="51" y="51" width="398" height="398">
<path d="M250 448.5C359.629 448.5 448.5 359.629 448.5 250C448.5 140.371 359.629 51.5 250 51.5C140.371 51.5 51.5 140.371 51.5 250C51.5 359.629 140.371 448.5 250 448.5Z" fill="white"/>
</mask>
<g mask="url(#mask38_201_736)">
<path d="M393.7 300.9C399.5 326.3 404.3 351.8 408.2 377.6C409.3 384.9 410.3 392.2 411.2 399.5C411.6 402.4 416.3 402.1 415.9 399C412.6 373.2 408.3 347.5 403.1 322C401.6 314.8 400.1 307.6 398.4 300.4C397.8 297.5 393 297.8 393.7 300.9Z" fill="white"/>
</g>
<mask id="mask39_201_736" style="mask-type:luminance" maskUnits="userSpaceOnUse" x="51" y="51" width="398" height="398">
<path d="M250 448.5C359.629 448.5 448.5 359.629 448.5 250C448.5 140.371 359.629 51.5 250 51.5C140.371 51.5 51.5 140.371 51.5 250C51.5 359.629 140.371 448.5 250 448.5Z" fill="white"/>
</mask>
<g mask="url(#mask39_201_736)">
<path d="M401.8 108.9C400.2 130.7 399.5 152.6 399.8 174.5C399.9 180.6 400 186.8 400.3 192.9C400.3 193.7 405.3 193.2 405.2 192.2C404.4 170.3 404.5 148.4 405.6 126.6C405.9 120.5 406.3 114.3 406.7 108.2C406.8 107.6 401.9 107.7 401.8 108.9Z" fill="white"/>
</g>
<mask id="mask40_201_736" style="mask-type:luminance" maskUnits="userSpaceOnUse" x="51" y="51" width="398" height="398">
<path d="M250 448.5C359.629 448.5 448.5 359.629 448.5 250C448.5 140.371 359.629 51.5 250 51.5C140.371 51.5 51.5 140.371 51.5 250C51.5 359.629 140.371 448.5 250 448.5Z" fill="white"/>
</mask>
<g mask="url(#mask40_201_736)">
<path d="M400.2 205.4C404.6 228.8 409.1 252.3 413.4 275.7C417.7 298.9 421.6 322.2 424.2 345.7C425.6 358.9 426.6 372.1 427 385.4C427 386.6 428.1 387.5 429.2 387.9C429.9 388.1 431.7 388.2 431.7 387C431 363.3 428.4 339.7 424.8 316.2C421.2 292.7 416.7 269.4 412.4 246.1C409.9 232.8 407.4 219.4 404.9 206.1C404.4 204.1 399.7 202.8 400.2 205.4Z" fill="white"/>
</g>
<mask id="mask41_201_736" style="mask-type:luminance" maskUnits="userSpaceOnUse" x="51" y="51" width="398" height="398">
<path d="M250 448.5C359.629 448.5 448.5 359.629 448.5 250C448.5 140.371 359.629 51.5 250 51.5C140.371 51.5 51.5 140.371 51.5 250C51.5 359.629 140.371 448.5 250 448.5Z" fill="white"/>
</mask>
<g mask="url(#mask41_201_736)">
<path d="M421.6 137.3C424 167.8 426.3 198.3 428.7 228.8C429.4 237.4 430 246 430.7 254.7C430.8 256 431.6 257.2 432.9 257.5C434 257.7 435.3 256.9 435.2 255.7C432.8 225.2 430.5 194.7 428.1 164.2C427.4 155.6 426.8 147 426.1 138.3C426 137 425.2 135.8 423.9 135.5C422.8 135.3 421.5 136.1 421.6 137.3Z" fill="white"/>
</g>
<mask id="mask42_201_736" style="mask-type:luminance" maskUnits="userSpaceOnUse" x="51" y="51" width="398" height="398">
<path d="M250 448.5C359.629 448.5 448.5 359.629 448.5 250C448.5 140.371 359.629 51.5 250 51.5C140.371 51.5 51.5 140.371 51.5 250C51.5 359.629 140.371 448.5 250 448.5Z" fill="white"/>
</mask>
<g mask="url(#mask42_201_736)">
<path d="M433.6 272.2C435.5 292.9 438 313.5 441 334.1C441.9 340 442.8 345.8 443.7 351.7C443.9 352.9 445.2 354 446.5 353.7C447.9 353.5 448.4 352.1 448.2 350.9C444.9 330.7 442.1 310.5 439.9 290.1C439.3 284.3 438.7 278.5 438.1 272.7C438 271.4 437.2 270.2 435.8 270C434.8 269.8 433.5 270.9 433.6 272.2Z" fill="white"/>
</g>
</svg>
