<svg width="500" height="500" viewBox="0 0 500 500" fill="none" xmlns="http://www.w3.org/2000/svg">
<g clip-path="url(#clip0_201_718)">
<mask id="mask0_201_718" style="mask-type:luminance" maskUnits="userSpaceOnUse" x="51" y="51" width="398" height="398">
<path d="M250 448.5C359.629 448.5 448.5 359.629 448.5 250C448.5 140.371 359.629 51.5 250 51.5C140.371 51.5 51.5 140.371 51.5 250C51.5 359.629 140.371 448.5 250 448.5Z" fill="white"/>
</mask>
<g mask="url(#mask0_201_718)">
<path d="M144.1 72.8C134.4 78.8 122.5 87 123.1 99.9C123.6 111.4 135.3 118.4 145.9 118.4C152.4 118.4 158.7 116.3 164.4 113.3C169.7 110.5 174.9 107.1 177.1 101.3C177.6 99.9 178 98.4 178.4 96.9C178.8 95.3 179.1 93.7 178.5 92.1C177.4 89.4 174.3 87.5 171.8 86.4C169.2 85.2 166.3 84.6 163.5 84.1C160.5 83.6 157.3 82.9 154.2 83.5C147.8 84.8 146.1 91.6 145.3 97.2C144.9 100.6 145.8 103.7 149 105.2C151.7 106.5 154.8 106.2 157.7 105.8C158.8 105.6 159.8 104.4 159.4 103.3C158.9 102 157.4 101.8 156.3 102C154.9 102.2 152.8 102.4 151.5 101.7C149.7 100.7 150.1 98.2 150.4 96.5C150.9 93.4 151.7 88.2 155.4 87.4C157.6 86.9 160.2 87.6 162.4 88C164.6 88.4 166.8 88.9 168.9 89.7C170.5 90.4 173.4 91.8 173.8 93.7C174 94.8 173.5 96.1 173.2 97.2C172.9 98.5 172.5 99.9 171.9 101.2C169.9 105.6 165.2 108.2 161.2 110.2C156.7 112.5 151.8 114.2 146.7 114.4C138.7 114.6 129.5 109.8 128.3 101.2C126.6 89.3 138.1 81.6 146.8 76.2C149.5 74.5 146.5 71.4 144.1 72.8Z" fill="white"/>
</g>
<mask id="mask1_201_718" style="mask-type:luminance" maskUnits="userSpaceOnUse" x="51" y="51" width="398" height="398">
<path d="M250 448.5C359.629 448.5 448.5 359.629 448.5 250C448.5 140.371 359.629 51.5 250 51.5C140.371 51.5 51.5 140.371 51.5 250C51.5 359.629 140.371 448.5 250 448.5Z" fill="white"/>
</mask>
<g mask="url(#mask1_201_718)">
<path d="M200 57.7C195.1 56.3 191.1 60.2 189.6 64.5C188.1 68.7 187.5 73.5 187.4 78C187.3 82.5 188.1 87.1 190.5 91C192.6 94.4 195.8 97.1 199.5 98.6C206.7 101.5 215.3 100.5 221.8 96.3C225.5 93.9 228.8 90.5 230.2 86.3C231.7 81.8 230.9 76.8 227.9 73.1C224.6 69.2 219.2 67.5 214.3 66.5C211.8 66 208.8 65.7 206.6 67.3C204.6 68.7 203.5 71.3 204.4 73.7C204.9 74.8 205.9 75.8 207.3 75.8C208.4 75.8 209.3 74.8 208.9 73.7C208.4 72.5 209.4 71.2 210.5 70.7C212.2 70 214.4 70.7 216.1 71.1C219.1 71.9 222.5 72.8 224.6 75.2C226.8 77.8 226.8 81.7 225.6 84.7C224.3 88.1 221.6 90.7 218.6 92.6C213.7 95.8 207.4 97 201.7 95.4C195.6 93.7 192.4 88.2 192 81.9C191.7 77.8 192.3 73.7 193.2 69.7C193.9 66.6 195.7 60.7 200 61.9C201.1 62.2 202.3 61.5 202.2 60.4C202.4 59 201.2 58 200 57.7Z" fill="white"/>
</g>
<mask id="mask2_201_718" style="mask-type:luminance" maskUnits="userSpaceOnUse" x="51" y="51" width="398" height="398">
<path d="M250 448.5C359.629 448.5 448.5 359.629 448.5 250C448.5 140.371 359.629 51.5 250 51.5C140.371 51.5 51.5 140.371 51.5 250C51.5 359.629 140.371 448.5 250 448.5Z" fill="white"/>
</mask>
<g mask="url(#mask2_201_718)">
<path d="M261.5 46.0999C257.1 44.1999 252.4 45.7999 248.6 48.1999C244.2 50.9999 240.9 54.7999 238.7 59.5999C234.8 67.6999 231.1 79.1999 237.2 87.0999C240.1 90.9999 245 93.7999 249.7 94.9999C254.5 96.1999 258.8 94.8999 262.8 92.0999C266.4 89.5999 269.3 86.3999 271 82.2999C272.5 78.6999 274.2 72.9999 271.5 69.5999C270 67.5999 267.4 66.7999 265.2 66.0999C262.5 65.2999 259.5 64.3999 256.7 64.8999C253.9 65.3999 251.2 67.2999 249.2 69.1999C247.6 70.7999 246.6 72.8999 247.5 75.0999C247.5 75.1999 251.9 73.0999 251.6 72.2999C250.9 70.5999 251.5 69.0999 252.5 67.5999C252.7 67.2999 253.4 66.7999 252.2 67.6999C251 68.4999 251.6 68.0999 251.9 67.9999C252.4 67.8999 253 67.6999 253.5 67.6999C254.6 67.5999 255.7 67.6999 256.8 67.7999C258.9 68.0999 261 68.7999 263 69.4999C264.6 70.0999 266.3 70.8999 267.4 72.2999C269.7 75.2999 268.6 79.8999 267.5 83.0999C266.5 85.9999 264.8 89.4999 262.2 91.3999C262.7 90.9999 261.5 91.6999 261.3 91.6999C260.5 91.9999 259.6 92.1999 258.8 92.2999C256.5 92.5999 254.3 92.1999 252.1 91.4999C248.3 90.1999 244.6 87.9999 241.9 84.9999C236.4 78.7999 237.7 69.9999 240.2 62.6999C241.7 58.4999 243.5 54.0999 246.4 50.6999C246.8 50.2999 247.1 49.8999 247.6 49.4999C247.7 49.3999 247.8 49.2999 247.9 49.1999C247.7 49.2999 247.7 49.2999 247.9 49.1999C248.8 48.6999 249.9 48.2999 250.9 48.0999C253 47.6999 255.2 47.7999 257.2 48.6999C257.7 48.8999 259 47.7999 259.5 47.5999C259.8 47.6999 261.6 46.0999 261.5 46.0999Z" fill="white"/>
</g>
<mask id="mask3_201_718" style="mask-type:luminance" maskUnits="userSpaceOnUse" x="51" y="51" width="398" height="398">
<path d="M250 448.5C359.629 448.5 448.5 359.629 448.5 250C448.5 140.371 359.629 51.5 250 51.5C140.371 51.5 51.5 140.371 51.5 250C51.5 359.629 140.371 448.5 250 448.5Z" fill="white"/>
</mask>
<g mask="url(#mask3_201_718)">
<path d="M321.2 50.2999C310.1 47.1999 298.2 50.3999 290.4 58.9999C286.9 62.8999 284.4 67.5999 283.3 72.6999C282.6 75.7999 282.4 79.1999 283.2 82.2999C283.9 85.0999 285.5 87.6999 287.3 89.9999C291.1 94.5999 295.9 98.2999 301.2 100.9C306 103.3 311.7 105.3 317.2 105.1C319.7 105 322.2 104.4 324.3 102.9C326.6 101.3 328 98.6999 328.8 95.9999C330.3 90.7999 330.5 84.5999 327.8 79.7999C324.4 73.8999 317 71.1999 310.7 69.5999C306.3 68.3999 297.9 66.2999 296.2 72.4999C295.6 74.4999 299.3 77.5999 300.1 74.9999C300.6 73.3999 302.4 72.8999 303.9 72.7999C306.1 72.5999 308.4 73.1999 310.5 73.6999C313.1 74.3999 315.7 75.2999 318.2 76.2999C320.2 77.1999 322.5 78.1999 324 79.8999C326.8 83.0999 326.3 88.3999 325.4 92.2999C324.9 94.4999 324 96.7999 322.2 98.2999C320.6 99.6999 318.5 100.3 316.4 100.5C311.8 100.9 307.1 99.2999 303 97.3999C298.6 95.3999 294.5 92.4999 291.2 88.9999C289.7 87.3999 288.3 85.5999 287.5 83.4999C286.6 81.0999 286.8 78.3999 287.2 75.8999C288.1 71.3999 290.1 67.2999 292.9 63.6999C299.6 55.2999 311.2 51.5999 321.6 54.3999C324.3 55.3999 323.2 50.8999 321.2 50.2999Z" fill="white"/>
</g>
<mask id="mask4_201_718" style="mask-type:luminance" maskUnits="userSpaceOnUse" x="51" y="51" width="398" height="398">
<path d="M250 448.5C359.629 448.5 448.5 359.629 448.5 250C448.5 140.371 359.629 51.5 250 51.5C140.371 51.5 51.5 140.371 51.5 250C51.5 359.629 140.371 448.5 250 448.5Z" fill="white"/>
</mask>
<g mask="url(#mask4_201_718)">
<path d="M366.9 73.1999C361.3 71.7999 355.3 73.2999 350.5 76.3999C345.9 79.3999 342.6 83.8999 340.2 88.6999C335.9 97.5999 334.5 109.5 341.8 117.3C345.3 121 350.4 123.4 355.4 124.6C361 125.9 367.1 125.5 371.7 121.6C375.6 118.3 377.4 113.1 376.4 108.1C375.4 103.1 371.7 98.5999 366.9 96.7999C361.9 94.8999 355.1 95.9999 352.2 100.9C349.9 104.6 350.3 109.9 354.5 112C356 112.8 360.1 110.1 357.9 109C355.3 107.7 355.1 104 356.1 101.7C357.4 98.6999 360.9 98.8999 363.7 99.9999C371.2 103 375.2 113.9 368.9 120C365.9 122.9 361.2 122.4 357.5 121.3C353.4 120.1 349.5 118.3 346.4 115.3C340.1 109.2 340.3 99.4999 343.1 91.7999C346.1 83.5999 353.3 73.7999 363.4 76.2999C364.6 76.5999 365.8 76.1999 366.7 75.3999C367.4 74.7999 368.1 73.4999 366.9 73.1999Z" fill="white"/>
</g>
<mask id="mask5_201_718" style="mask-type:luminance" maskUnits="userSpaceOnUse" x="51" y="51" width="398" height="398">
<path d="M250 448.5C359.629 448.5 448.5 359.629 448.5 250C448.5 140.371 359.629 51.5 250 51.5C140.371 51.5 51.5 140.371 51.5 250C51.5 359.629 140.371 448.5 250 448.5Z" fill="white"/>
</mask>
<g mask="url(#mask5_201_718)">
<path d="M416 126.8C405.6 122.5 393.8 118 382.6 122.3C378.3 124 374.3 126.8 371.9 130.8C369.3 135.1 369.1 140.3 370.8 144.9C372.7 149.9 376.3 154.1 380.2 157.6C384.3 161.2 389.3 164.5 394.8 165.4C399.7 166.1 405.2 165 408.6 161.3C412.1 157.5 412.2 151.7 409.9 147.2C408.6 144.6 406.5 142.3 404.2 140.6C401.8 138.8 399 137.1 396.2 136.3C393 135.3 390 136.8 389.4 140.2C388.8 143.4 389.4 147 390 150.2C390.4 152.4 395.3 152 394.9 149.5C394.4 146.9 394.2 144.2 394.4 141.6C394.4 140.9 394.6 140.3 394.8 139.7C395.1 138.8 394.8 140 394.6 139.7C394.6 139.7 394.5 139.6 394.6 139.8C394.9 140.1 396 140.4 396.4 140.6C400 142.4 403.7 144.9 405.4 148.7C407.1 152.3 407.2 156.9 404.2 159.8C401.6 162.3 397.7 162.8 394.4 161.9C390.1 160.8 386.4 157.8 383.2 154.9C380.1 152 377.2 148.5 375.7 144.5C374.3 140.7 374.3 136.6 376.3 133C378 129.9 380.9 127.6 384.1 126.2C393.8 122 404.3 126.4 413.4 130.1C414.5 130.5 416 130.6 416.8 129.6C417.5 128.4 417 127.2 416 126.8Z" fill="white"/>
</g>
<mask id="mask6_201_718" style="mask-type:luminance" maskUnits="userSpaceOnUse" x="51" y="51" width="398" height="398">
<path d="M250 448.5C359.629 448.5 448.5 359.629 448.5 250C448.5 140.371 359.629 51.5 250 51.5C140.371 51.5 51.5 140.371 51.5 250C51.5 359.629 140.371 448.5 250 448.5Z" fill="white"/>
</mask>
<g mask="url(#mask6_201_718)">
<path d="M93.2 115.8C86.3 121.9 84.3 132.6 89 140.7C91.7 145.4 96.3 149.3 100.7 152.5C105.2 155.7 110.6 158.2 116.3 157.5C127.9 156.1 132 143.6 134.1 133.9C134.7 131.3 134.9 128.5 133.7 126C132.7 123.9 130.9 122.4 128.9 121.3C127 120.2 124.8 119.5 122.6 119.1C120.2 118.6 117.5 118 115 118.3C112 118.7 110.1 120.7 109.1 123.4C108.1 126.2 107.4 129.6 107.6 132.6C107.9 138.7 113.2 143.9 119.4 142.4C120.5 142.1 120.8 140.8 120.1 139.9C119.3 138.8 117.9 138.6 116.7 138.9C115.4 139.2 114.2 138 113.5 137C112.3 135.3 112.2 133 112.4 131C112.6 128.9 113.1 126.7 113.8 124.7C114.4 122.9 115.5 121.7 117.5 121.8C120.6 121.9 124.5 122.7 127.2 124.4C130.8 126.8 129.7 130.9 128.8 134.5C127.7 138.9 126.5 143.5 123.9 147.2C121.8 150.2 118.7 153 114.9 153.6C110.8 154.2 106.9 152.1 103.6 149.8C100.1 147.3 96.5 144.3 94.1 140.7C89.5 134.1 90.8 124.1 96.8 118.7C98.9 116.9 94.9 114.3 93.2 115.8Z" fill="white"/>
</g>
<mask id="mask7_201_718" style="mask-type:luminance" maskUnits="userSpaceOnUse" x="51" y="51" width="398" height="398">
<path d="M250 448.5C359.629 448.5 448.5 359.629 448.5 250C448.5 140.371 359.629 51.5 250 51.5C140.371 51.5 51.5 140.371 51.5 250C51.5 359.629 140.371 448.5 250 448.5Z" fill="white"/>
</mask>
<g mask="url(#mask7_201_718)">
<path d="M181.9 109C172.9 109.1 164.1 112.9 157.6 119.2C154.4 122.3 151.7 126 149.8 130C148.9 132.1 148 134.3 147.6 136.5C147.1 139.3 148.3 141.3 150.1 143.4C153.7 147.5 157.8 151.4 162.6 154.1C167.4 156.8 172.8 157.5 178.2 156.6C183.5 155.7 188.8 153.7 193.6 151.2C197.7 149.1 202 144.6 199.5 139.7C197.2 135 191.1 132.6 186.2 131.9C181.9 131.2 176.4 131.4 173.9 135.6C173.3 136.5 177.5 139.3 177.9 138.6C179.8 135.3 183.7 134.6 187.2 134.8C189.1 134.9 190.9 135.3 192.7 135.8C193.5 136 194.2 136.3 194.9 136.7C195.3 136.9 195.3 137 195.1 136.7C195.4 137 195.6 137.4 195.8 137.9C197.6 142.4 193.1 146.4 189.6 148.2C185.3 150.4 180.6 152.2 175.9 153.2C171.2 154.2 166.1 154.2 161.8 152C160 151.1 158.4 149.8 156.9 148.4C155.4 147 153.8 145.5 152.5 143.8C150.9 141.8 151.4 139.3 152.1 137C152.7 135.1 153.4 133.3 154.3 131.6C156.1 128.1 158.5 124.9 161.4 122.2C167.8 116 176.4 112.3 185.4 112.2C186.2 112.2 184.6 110.6 184.5 110.5C183.9 109.9 182.9 109 181.9 109Z" fill="white"/>
</g>
<mask id="mask8_201_718" style="mask-type:luminance" maskUnits="userSpaceOnUse" x="51" y="51" width="398" height="398">
<path d="M250 448.5C359.629 448.5 448.5 359.629 448.5 250C448.5 140.371 359.629 51.5 250 51.5C140.371 51.5 51.5 140.371 51.5 250C51.5 359.629 140.371 448.5 250 448.5Z" fill="white"/>
</mask>
<g mask="url(#mask8_201_718)">
<path d="M227.8 104.1C221.7 102.8 215.1 101.4 208.9 103.3C206.3 104.1 203.8 105.6 202.1 107.8C200.3 110.1 199.3 113 198.7 115.9C196.5 127.3 201.9 139.4 212.4 144.5C217.5 146.9 223.5 148 229 146.4C234.5 144.9 238.4 140.8 240.2 135.4C241.9 130.5 242.1 124.3 238.3 120.3C236.2 118.1 233.3 116.9 230.4 116C227.8 115.2 225.2 114.8 222.5 114.8C217.6 114.8 212.2 116.5 209.4 120.8C208 122.9 207.5 125.4 208.3 127.8C209.3 130.7 212.3 131.9 215.2 132.3C215.8 132.4 216.8 132.5 216.3 131.8C215.8 131.1 213.8 130.8 213.1 130.7C215.2 131 214.8 131.5 214.1 130.6C213.8 130.3 213.6 129.9 213.4 129.5C213 128.6 212.8 127.7 212.8 126.7C212.8 124.9 213.5 123.1 214.6 121.6C216.9 118.5 220.9 116.9 224.6 116.6C228.5 116.2 232.5 117.2 234.8 120.7C237.4 124.6 236.9 129.8 235.4 134C233.8 138.5 230.9 142.2 226.4 144.1C222.7 145.6 218.4 145.9 214.8 144C206.2 139.3 202.1 128.7 203.2 119.3C203.8 113.8 206.1 108.3 211.3 105.7C216.9 103 223 104.2 228.7 105.5C229.1 105.6 230.7 106 230.6 105.3C230.6 104.7 228.3 104.2 227.8 104.1Z" fill="white"/>
</g>
<mask id="mask9_201_718" style="mask-type:luminance" maskUnits="userSpaceOnUse" x="51" y="51" width="398" height="398">
<path d="M250 448.5C359.629 448.5 448.5 359.629 448.5 250C448.5 140.371 359.629 51.5 250 51.5C140.371 51.5 51.5 140.371 51.5 250C51.5 359.629 140.371 448.5 250 448.5Z" fill="white"/>
</mask>
<g mask="url(#mask9_201_718)">
<path d="M261.7 97.1C255.3 95.4 249 99.1 245.8 104.6C242.4 110.5 242.3 117.6 244.3 124C246.3 130.3 250.4 136.3 255.3 140.7C257.8 143 260.8 144.7 264.1 145.6C267.6 146.5 271.2 146.5 274.8 146.1C278 145.7 281.2 145.1 284.3 144.2C287.4 143.3 290.4 142.2 293.1 140.4C298.3 136.8 300.4 130.6 299.9 124.5C299.4 118.3 296.7 111.7 291.5 108.1C288.7 106.1 285.1 105.4 281.7 105.2C278.4 105 275 105.1 271.7 105.5C268.2 105.9 264.5 106.9 261.8 109.3C259 111.7 258.1 115.2 259.2 118.6C260.4 121.9 263.1 124.5 266.3 125.8C269.9 127.4 273.9 127.4 277.7 127.4C280.9 127.4 280 123.2 277.2 123.2C272.7 123.2 266.4 123.5 264 118.9C261.3 113.8 267.5 110.6 271.6 109.9C274.3 109.4 277 109.4 279.7 109.4C282.3 109.4 285.2 109.4 287.7 110.5C292.1 112.5 294.3 118.1 294.9 122.6C295.6 127.4 294.6 132.6 290.9 136C287.1 139.4 281.7 140.5 276.8 141.5C271.5 142.5 265.6 143 260.8 140.1C256.4 137.4 252.8 132.5 250.5 127.9C247.8 122.4 246.7 116 248.9 110.1C250.5 105.5 255.4 99.9 260.9 101.3C262 101.6 263.4 101.4 263.6 100.1C263.9 98.7 262.8 97.4 261.7 97.1Z" fill="white"/>
</g>
<mask id="mask10_201_718" style="mask-type:luminance" maskUnits="userSpaceOnUse" x="51" y="51" width="398" height="398">
<path d="M250 448.5C359.629 448.5 448.5 359.629 448.5 250C448.5 140.371 359.629 51.5 250 51.5C140.371 51.5 51.5 140.371 51.5 250C51.5 359.629 140.371 448.5 250 448.5Z" fill="white"/>
</mask>
<g mask="url(#mask10_201_718)">
<path d="M320.8 114.9C318 114.8 315.6 116.4 313.6 118.3C311.5 120.4 309.6 122.8 307.8 125.1C305.7 127.7 303.7 130.3 301.7 133C300 135.3 298.4 137.7 298 140.5C297.2 146.6 301.9 151.5 306.3 155C308.8 156.9 311.4 158.7 314.1 160.3C316.6 161.7 319.3 163.3 322.1 163.9C325.2 164.5 327.9 163.6 330.7 162.5C333.1 161.6 335.5 160.6 337.8 159.3C342.5 156.7 346.3 152.9 347.6 147.5C349 142 347.4 135.9 343.7 131.7C340.3 127.8 335.1 125.2 329.8 125.8C324.4 126.4 319.1 130.3 319.1 136.1C319.1 141.2 323.3 147.3 328.9 146.6C331.3 146.3 329.7 141.6 327.6 141.9C324.6 142.2 322.3 139.6 322.9 136.7C323.6 133 327.7 130.8 331.1 130.5C335 130.1 339 131.7 341.6 134.6C344.4 137.7 345 142.2 343.7 146C342.3 150.1 339 153 335.2 155C333.3 156 331.3 156.9 329.3 157.7C327.1 158.5 324.8 159.7 322.4 159.5C320.1 159.3 317.9 158.1 315.9 157C313.7 155.8 311.5 154.4 309.5 153C307.6 151.6 305.7 150.2 304 148.5C302.7 147.2 301.5 145.5 301.4 143.6C301.3 141.1 303.1 138.8 304.5 136.9C306.3 134.5 308.1 132.1 310 129.7C311.8 127.4 313.6 125.1 315.6 123C317.3 121.2 319.3 119.6 321.9 119.7C324.5 119.7 323 115 320.8 114.9Z" fill="white"/>
</g>
<mask id="mask11_201_718" style="mask-type:luminance" maskUnits="userSpaceOnUse" x="51" y="51" width="398" height="398">
<path d="M250 448.5C359.629 448.5 448.5 359.629 448.5 250C448.5 140.371 359.629 51.5 250 51.5C140.371 51.5 51.5 140.371 51.5 250C51.5 359.629 140.371 448.5 250 448.5Z" fill="white"/>
</mask>
<g mask="url(#mask11_201_718)">
<path d="M370.1 164.1C373.6 169 374.3 175.8 371.6 181.2C370.3 183.7 368.3 186 365.8 187.5C363.5 188.9 361.6 189.3 358.9 188.9C352.6 187.9 347.4 183.5 344.2 178.1C342.6 175.4 341.4 172.4 340.7 169.3C340.3 167.7 340.1 166.2 341.3 164.9C342.3 163.9 343.1 163.7 344.2 163.7C351.3 163.7 356.9 169.8 357.2 176.7C357.2 177 362.1 176.5 362.1 175.6C361.8 168.3 355.8 162.5 348.5 162.3C346.3 162.2 344.2 162.6 342.1 163.1C340.4 163.6 338.6 164.1 337.2 165.2C335.7 166.3 335.2 167.7 335.6 169.5C336 171.4 336.6 173.3 337.4 175.1C340.2 181.9 345.5 188 352.8 189.9C359.6 191.6 368.1 189.4 373.2 184.5C379 178.9 379.6 169.5 374.9 163C374.5 162.5 372.8 163 372.4 163.1C372.2 163.2 369.9 163.9 370.1 164.1Z" fill="white"/>
</g>
<mask id="mask12_201_718" style="mask-type:luminance" maskUnits="userSpaceOnUse" x="51" y="51" width="398" height="398">
<path d="M250 448.5C359.629 448.5 448.5 359.629 448.5 250C448.5 140.371 359.629 51.5 250 51.5C140.371 51.5 51.5 140.371 51.5 250C51.5 359.629 140.371 448.5 250 448.5Z" fill="white"/>
</mask>
<g mask="url(#mask12_201_718)">
<path d="M135.7 149.3C128.2 152.9 120.3 158.1 118.4 166.8C116.8 174.5 121.9 181.4 128.6 184.5C136.4 188.2 145.6 186.5 152.7 182C155.7 180.1 160 177.2 160 173.2C159.9 169.3 156.6 165.8 153.5 163.9C149.6 161.6 144.8 160.6 140.3 161.5C136.4 162.4 132.2 165.2 132 169.6C131.9 171.5 136.9 172 137 170.1C137.1 167.2 139.4 165.1 142.1 164.3C144.6 163.6 147.4 164.1 149.7 165.4C152.2 166.8 155.1 169.7 155.1 172.7C155.2 176 151.4 178.4 149 179.9C143.8 183.3 137 185 131.2 182.1C125.9 179.5 122.5 173.7 123.5 167.7C124.9 159.5 132.3 154.7 139.2 151.4C140.1 150.9 140.2 150.1 139.4 149.5C138.3 149 136.7 148.8 135.7 149.3Z" fill="white"/>
</g>
<mask id="mask13_201_718" style="mask-type:luminance" maskUnits="userSpaceOnUse" x="51" y="51" width="398" height="398">
<path d="M250 448.5C359.629 448.5 448.5 359.629 448.5 250C448.5 140.371 359.629 51.5 250 51.5C140.371 51.5 51.5 140.371 51.5 250C51.5 359.629 140.371 448.5 250 448.5Z" fill="white"/>
</mask>
<g mask="url(#mask13_201_718)">
<path d="M97 154.3C87 151.9 75.6 155.8 68.5 163.1C64.8 166.9 61.5 172.2 61.5 177.6C61.5 183.1 65.1 188.6 68.6 192.6C72.3 196.8 77.1 199.6 82.7 199.7C89.3 199.7 95.6 197 101.4 194.1C105.7 191.9 110.6 189.3 112.9 184.9C114.2 182.4 114.6 179.5 113.1 177C111.7 174.7 109.6 172.5 107.6 170.7C105.2 168.6 102.3 167.1 99.1 166.9C95.9 166.7 92.2 167.5 89.7 169.5C85.6 172.8 85.4 178.8 85.4 183.7C85.4 184.3 90.3 183.8 90.3 182.7C90.2 178.9 90.3 174.5 92.4 171.2C92.9 170.4 93.4 169.8 94.1 169.2C94.4 168.9 94.8 168.6 95.2 168.5C94.9 168.6 95.7 168.5 95.9 168.6C98.3 168.9 100.5 170.1 102.4 171.7C104.3 173.3 106 175.3 107.5 177.3C109.1 179.4 109.5 181.8 108.6 184.4C107.1 188.4 103.4 191.1 99.8 193C97.7 194.1 95.6 195.2 93.4 196.1C91.2 197.1 88.8 198.1 86.3 198.2C81.7 198.4 77.5 195.8 74.3 192.7C71 189.4 68 184.9 66.7 180.4C65.3 175.5 67.1 170.5 69.9 166.4C72.5 162.5 76.2 159.2 80.5 157.1C84.4 155.2 88.5 154.9 92.7 155.9C93.7 156.1 95.1 155.8 96.1 155.4C96.7 155.2 98 154.6 97 154.3Z" fill="white"/>
</g>
<mask id="mask14_201_718" style="mask-type:luminance" maskUnits="userSpaceOnUse" x="51" y="51" width="398" height="398">
<path d="M250 448.5C359.629 448.5 448.5 359.629 448.5 250C448.5 140.371 359.629 51.5 250 51.5C140.371 51.5 51.5 140.371 51.5 250C51.5 359.629 140.371 448.5 250 448.5Z" fill="white"/>
</mask>
<g mask="url(#mask14_201_718)">
<path d="M91.6 208.9C85.7 208.5 79.8 209 74 210.1C68.8 211.1 63.2 212.1 58.5 214.6C54.6 216.7 51.1 220 51.9 224.8C52.6 229.6 56.5 233.3 60.2 236.1C64.5 239.4 69.4 241.2 74.9 241.1C80.2 240.9 85.9 239.9 90.8 237.8C95.2 235.9 99.4 233 101.2 228.3C102.8 224.2 101.8 219.7 98.2 217.1C94 213.9 87.9 213.9 83.2 216.1C80.9 217.2 78.5 218.9 77.9 221.5C77.4 223.6 78 225.7 79.8 226.8C80.8 227.5 84.8 225 84.1 224.5C82.8 223.6 82.2 222 82.4 220.5C82.5 219.4 83.1 217.7 84.2 217.2C85.6 216.6 87.9 217 89.4 217.3C91.1 217.7 92.9 218.5 94.3 219.6C97.3 222 98 225.9 96.9 229.4C95.8 232.8 93.2 235.5 89.8 236.7C85.9 238.1 81.4 238.7 77.3 238.6C72.9 238.5 68.9 236.9 65.4 234.3C62.1 231.9 58.9 228.9 57.3 225.1C55.9 221.7 56.3 217.7 59.5 215.5C60.8 214.6 62.4 214.2 63.9 213.8C66.5 213.1 69.1 212.5 71.7 212.1C77.1 211.1 82.5 210.7 88 211.1C89.1 211.2 90.4 210.5 91.2 209.9C91.6 209.8 92.7 208.9 91.6 208.9Z" fill="white"/>
</g>
<mask id="mask15_201_718" style="mask-type:luminance" maskUnits="userSpaceOnUse" x="51" y="51" width="398" height="398">
<path d="M250 448.5C359.629 448.5 448.5 359.629 448.5 250C448.5 140.371 359.629 51.5 250 51.5C140.371 51.5 51.5 140.371 51.5 250C51.5 359.629 140.371 448.5 250 448.5Z" fill="white"/>
</mask>
<g mask="url(#mask15_201_718)">
<path d="M122.4 189.5C117.1 189.5 113 193.4 110.4 197.7C107.8 202.1 105 207.8 107.3 212.9C109.3 217.3 113.3 220.6 117.4 222.8C121.8 225.1 126.8 226.9 131.8 226.6C141.1 226 151.7 217.6 148.8 207.3C147.6 203 144.2 199.7 140.3 197.6C136.1 195.3 130.2 192.8 125.5 195.1C121.4 197.1 120.2 203.1 123.3 206.4C125.1 208.4 128.1 209.6 130.6 210.3C132.8 210.9 135.1 210.8 137 209.7C137.1 209.6 135 208.5 134.8 208.4C134.3 208.2 132.9 207.4 132.4 207.7C131.6 208.1 130.9 208.5 130 208.6C129.6 208.7 129.3 208.7 128.9 208.7C128.4 208.7 127.9 208.5 127.5 208.5C127.1 208.5 128.8 209 128.9 209.1C128.9 209 128.5 208.8 128.4 208.8C128.1 208.6 127.8 208.3 127.6 208C127 207.3 126.6 206.5 126.4 205.6C125.6 202.5 127 198.8 129.9 197.3C131.9 196.3 134.3 196.2 136.4 196.7C136.8 196.8 137.2 196.9 137.5 197C137 196.8 137.5 197.1 137.7 197.2C138.5 197.7 139.3 198.3 140 199C142.7 201.5 144.6 205 144.5 208.8C144.3 217.2 136.4 223.5 128.6 224.5C125.2 224.9 121.5 224.7 118.6 222.7C115.4 220.5 112.1 217 111 213.2C110.4 210.7 110.9 208.2 111.8 205.9C112.7 203.6 113.7 201.3 115 199.2C117.5 195.1 121.4 191.6 126.4 191.6C126.8 191.6 125.1 190.6 125 190.6C124.5 190.2 123.4 189.5 122.4 189.5Z" fill="white"/>
</g>
<mask id="mask16_201_718" style="mask-type:luminance" maskUnits="userSpaceOnUse" x="51" y="51" width="398" height="398">
<path d="M250 448.5C359.629 448.5 448.5 359.629 448.5 250C448.5 140.371 359.629 51.5 250 51.5C140.371 51.5 51.5 140.371 51.5 250C51.5 359.629 140.371 448.5 250 448.5Z" fill="white"/>
</mask>
<g mask="url(#mask16_201_718)">
<path d="M185 171C183.1 168.3 180.2 168.7 177.4 169.5C174.6 170.3 171.9 171.3 169.3 172.7C164.3 175.3 159.7 179.3 156.9 184.3C155.3 187.2 154.2 190.6 154.6 194C154.9 197.6 156.7 200.8 158.8 203.6C162.3 208.5 167.2 213 173.1 214.6C179.3 216.3 186.3 214.2 191.6 210.9C196.6 207.9 200.4 203.1 201.1 197.2C201.8 191 199 184.8 193.7 181.5C191.2 180 188.3 179.1 185.4 178.6C182.4 178.1 179 177.6 176.1 178.9C173.2 180.2 171.6 183.3 171.4 186.3C171.2 189.8 172.9 193.3 175.5 195.6C177.7 197.6 180.7 199 183.7 198.4C186.4 197.8 188.5 196.1 188.5 193.2C188.5 192.1 187.8 190.7 186.8 190.1C185.9 189.6 185.1 190 185.1 191.1C185.1 192.8 183.1 193.7 181.7 193.9C179.7 194.2 177.8 193.6 176.3 192.2C173.2 189.3 175.4 184.3 178.9 183C181.3 182.1 184.2 182.5 186.7 183C189 183.4 191.2 184 193.2 185.1C194.9 186.1 196.4 187.3 197.1 189.2C197.9 191.2 197.9 193.4 197.5 195.5C196.5 200.2 193.2 203.9 189.2 206.4C184.8 209.1 179.1 211.1 173.9 210.5C169.3 209.9 165.2 207 162.2 203.6C160.6 201.8 159 199.8 158.2 197.5C157.3 194.9 158 192 159.1 189.6C161.2 184.8 165.1 181 169.5 178.3C171.8 176.9 174.2 175.8 176.7 174.9C177.9 174.5 179.2 174 180.5 173.7C181 173.6 181.6 173.5 182.2 173.4C182.5 173.4 182.7 173.4 183 173.4C183.3 173.4 183.4 173.6 183.3 173.5C183.8 174.2 185 175 185.6 174.2C186.4 173.3 185.5 171.7 185 171Z" fill="white"/>
</g>
<mask id="mask17_201_718" style="mask-type:luminance" maskUnits="userSpaceOnUse" x="51" y="51" width="398" height="398">
<path d="M250 448.5C359.629 448.5 448.5 359.629 448.5 250C448.5 140.371 359.629 51.5 250 51.5C140.371 51.5 51.5 140.371 51.5 250C51.5 359.629 140.371 448.5 250 448.5Z" fill="white"/>
</mask>
<g mask="url(#mask17_201_718)">
<path d="M223.2 149.2C216.3 147.4 208.8 150.2 203.2 154.4C198.5 157.9 193.8 163.2 194.3 169.5C194.8 175.7 200.2 179.9 205.1 182.9C210.6 186.3 216.3 189 222.9 189C233.7 188.9 246.7 182 246.7 169.8C246.7 166.8 245.6 163.7 243.5 161.6C241.3 159.4 238.2 158.2 235.2 157.5C228.7 156.1 220.9 157.3 216.1 162.2C211.7 166.7 211 174.6 216.4 178.7C221.3 182.5 230.4 180.9 233.1 175.1C233.7 173.9 228.9 174 228.3 175.4C227.6 176.8 226.2 178.3 224.7 178.5C222.8 178.7 220.9 177.4 219.7 176C216.5 172.3 216.9 166.8 220 163.1C223.4 159.1 228.4 158.4 233.3 159.8C235.7 160.5 238 161.7 239.6 163.6C241.3 165.5 241.9 168.1 241.9 170.6C241.9 179.4 233.7 186.3 225.3 186.7C220.2 187 215.6 184.7 211.3 182.3C207.1 179.9 202.3 176.9 200.3 172.2C197.9 166.7 200.7 161.1 204.7 157.2C208.6 153.4 214.4 149.8 220.1 151.3C221.2 151.6 222.7 151.3 223.6 150.7C224.3 150 224.2 149.4 223.2 149.2Z" fill="white"/>
</g>
<mask id="mask18_201_718" style="mask-type:luminance" maskUnits="userSpaceOnUse" x="51" y="51" width="398" height="398">
<path d="M250 448.5C359.629 448.5 448.5 359.629 448.5 250C448.5 140.371 359.629 51.5 250 51.5C140.371 51.5 51.5 140.371 51.5 250C51.5 359.629 140.371 448.5 250 448.5Z" fill="white"/>
</mask>
<g mask="url(#mask18_201_718)">
<path d="M284.2 166.6C284.6 163.9 282.5 161.2 280.4 159.8C278.2 158.3 275.4 157.8 272.7 158C267.4 158.4 261.9 161.6 258.1 165.3C254 169.2 252.5 174.7 253.8 180.2C255.1 185.6 258.8 190.4 263.4 193.4C267.9 196.4 273.3 197.8 278.7 197.4C283.7 197 289 195 292.3 191C295.6 187 295.9 181.8 293.5 177.2C290.9 172.1 285.8 168.6 280.1 167.8C275.1 167.2 266.7 168.5 267.2 175.3C267.4 178.4 269.9 181.1 272.4 182.7C275 184.3 278.2 185.5 281.2 184.4C283 183.7 280.2 179.7 278.6 180.3C276.6 181 274.6 180.7 272.8 179.7C271.4 178.9 270.4 178.2 270.9 176.5C272.1 172.2 277.7 171.5 281.4 171.9C284.9 172.3 288.7 173.8 290.4 177.1C292.1 180.6 291.2 184.7 288.6 187.6C283.2 193.7 273.4 194.8 266.1 191.7C262.7 190.2 259.6 187.8 258.1 184.4C256.3 180.6 256.5 176 258.5 172.4C260.8 168.4 265.5 165.2 269.7 163.5C271.9 162.6 274.3 162 276.7 162.2C277.7 162.3 278.8 162.4 279.8 162.9C280 163 280.3 163.2 280.4 163.4C280 162.9 280.3 163.1 280.3 163.3C280.3 163.6 280.3 163.9 280.3 164.1C280.3 165.6 283.9 168.8 284.2 166.6Z" fill="white"/>
</g>
<mask id="mask19_201_718" style="mask-type:luminance" maskUnits="userSpaceOnUse" x="51" y="51" width="398" height="398">
<path d="M250 448.5C359.629 448.5 448.5 359.629 448.5 250C448.5 140.371 359.629 51.5 250 51.5C140.371 51.5 51.5 140.371 51.5 250C51.5 359.629 140.371 448.5 250 448.5Z" fill="white"/>
</mask>
<g mask="url(#mask19_201_718)">
<path d="M331.3 178.2C331.4 174.6 328.9 171.5 326.3 169.3C323.9 167.1 320.8 165.7 317.5 165.7C310 165.8 303.5 172.4 299.2 177.9C296.9 180.9 294.9 184.3 294.3 188.1C293.7 191.6 294.6 195.1 296.4 198C300.3 204.2 306.6 208.1 313.4 210.4C317.7 211.8 322.1 212.9 326.6 213.5C330.5 214.1 334.8 214.5 338.5 212.8C344.5 210 347.3 202.6 345.6 196.4C343.7 189.5 337.5 183.2 330.8 180.9C327.1 179.6 322.9 179.3 319.1 180.2C316 181 312.8 182.8 311.6 186C310.3 189.5 312.1 192.8 314.4 195.4C316.8 198.3 320 200.6 323.7 201.3C326.8 201.8 330.7 201.3 332.5 198.5C334.2 195.9 333.4 192.8 331.5 190.5C330.4 189.1 329.1 187.8 327.5 187.1C327 186.9 328.2 188.7 328.2 188.8C328.8 189.6 329.6 190.5 330.5 190.9C331.6 191.4 330 191.4 329.5 189.6C329.6 189.9 329.7 190.1 329.8 190.4C329.9 190.9 330 191.3 330 191.8C330 193 329.6 194.2 328.9 195.2C327.2 197.5 324.1 198.1 321.4 197.8C320 197.6 318.7 197.3 317.5 196.7C316.9 196.4 316.3 196 315.8 195.6C315.8 195.6 315.3 195.1 315.6 195.5C315.9 195.8 315.3 195.1 315.3 194.9C314.1 192.4 314.7 189.4 316.6 187.4C320.8 182.9 328.4 182.9 333.9 184.9C336.1 185.7 338.5 186.9 340 188.8C341.7 190.8 342.6 193.6 342.8 196.1C343.2 201.4 340.4 206.9 335.6 209.3C332.6 210.8 329.1 210.7 325.8 210.3C322.2 209.9 318.6 209.2 315 208.2C312 207.4 309.1 206.5 306.3 205.2C304.1 204.2 301.7 202.9 300 201.1C296.1 196.9 297.6 190.1 300.1 185.6C301.9 182.5 304.3 179.7 306.8 177.2C309.2 174.8 311.8 172.6 314.9 171.2C317.9 169.8 321.1 169.3 324.3 170.3C325 170.5 325.6 170.8 326.2 171.1C326.5 171.3 326.7 171.4 327 171.6C327.5 171.9 327.3 172 327.2 171.6C327.7 172.8 328 173.8 328 175C328 175.8 329.3 177 329.8 177.5C329.9 177.5 331.3 178.8 331.3 178.2Z" fill="white"/>
</g>
<mask id="mask20_201_718" style="mask-type:luminance" maskUnits="userSpaceOnUse" x="51" y="51" width="398" height="398">
<path d="M250 448.5C359.629 448.5 448.5 359.629 448.5 250C448.5 140.371 359.629 51.5 250 51.5C140.371 51.5 51.5 140.371 51.5 250C51.5 359.629 140.371 448.5 250 448.5Z" fill="white"/>
</mask>
<g mask="url(#mask20_201_718)">
<path d="M432.3 168.9C426.2 162.3 417.1 158.7 408.1 160C400.9 161.1 390.1 166.8 392.4 175.8C393.5 180 397.1 183.5 400.4 185.9C404.1 188.6 408.5 190.4 413 191.3C415.5 191.8 418 192.2 420.5 192.3C422.8 192.5 425.4 192.7 427.7 192.1C431.2 191.2 433.3 187.8 433.1 184.2C432.7 179.4 428.4 175.9 424.1 174.5C419.3 173 414.3 174.6 410.5 177.7C409 178.9 413 181.8 414.2 180.8C416.8 178.7 420.1 177 423.6 177.4C426.2 177.7 428.3 179.5 428.6 182.2C428.8 184.9 427.4 187.9 424.7 188.7C422.9 189.2 420.9 189 419.1 188.9C417.1 188.8 415 188.6 413 188.2C409.6 187.6 406.2 186.5 403.3 184.7C400.7 183.1 398 180.6 396.9 177.6C394.3 170.6 402.7 165.3 408.3 163.7C415.7 161.7 423.7 163.5 428.9 169.2C429.6 170 430.9 170.9 432 170.6C433.3 170.5 432.9 169.5 432.3 168.9Z" fill="white"/>
</g>
<mask id="mask21_201_718" style="mask-type:luminance" maskUnits="userSpaceOnUse" x="51" y="51" width="398" height="398">
<path d="M250 448.5C359.629 448.5 448.5 359.629 448.5 250C448.5 140.371 359.629 51.5 250 51.5C140.371 51.5 51.5 140.371 51.5 250C51.5 359.629 140.371 448.5 250 448.5Z" fill="white"/>
</mask>
<g mask="url(#mask21_201_718)">
<path d="M412.3 194.8C407.7 191.5 403.8 187.3 398.6 185C396 183.8 393.2 183.2 390.4 183.3C387.4 183.4 384.5 184.3 381.8 185.4C377 187.4 372.5 190.2 368.6 193.8C364.9 197.2 361.8 201.2 362.5 206.4C363.1 211.2 366.5 215.2 370.5 217.7C375.1 220.5 380.6 221.4 385.9 222C388.6 222.3 391.5 222.4 394.1 221.4C396.3 220.5 398 218.8 399.3 216.9C400.7 214.8 401.8 212.5 402.8 210.2C403.8 207.8 404.8 205.3 404.8 202.7C404.7 199.7 403.1 197.4 400.3 196.4C397.4 195.3 394 195.6 391 195.6C388 195.7 385.3 195.9 383.6 198.6C382 201.2 381.4 204.2 381.7 207.2C381.9 209 386.8 209.6 386.6 207.3C386.4 205.1 386.8 202.8 387.9 200.9C388.3 200.2 388.8 199.3 389.5 198.9C390.3 198.5 391.5 198.6 392.3 198.6C394.1 198.6 396.4 198.3 398.2 198.8C399.9 199.3 400.1 201.6 399.9 203.1C399.5 207.2 397.2 211.4 395.1 214.9C394.1 216.4 393 218 391.3 218.8C389.4 219.7 387.2 219.4 385.2 219.2C381.3 218.8 377.2 218.1 373.8 216C370.6 214.1 368.2 210.8 367.6 207.1C366.9 203 369.4 199.6 372.2 196.8C375.3 193.8 378.9 191.2 382.8 189.3C387.1 187.2 391.7 185.4 396.3 187.4C401 189.4 404.5 193.4 408.6 196.3C409.6 197 410.9 197.4 412.1 197C412.8 196.5 413.2 195.4 412.3 194.8Z" fill="white"/>
</g>
<mask id="mask22_201_718" style="mask-type:luminance" maskUnits="userSpaceOnUse" x="51" y="51" width="398" height="398">
<path d="M250 448.5C359.629 448.5 448.5 359.629 448.5 250C448.5 140.371 359.629 51.5 250 51.5C140.371 51.5 51.5 140.371 51.5 250C51.5 359.629 140.371 448.5 250 448.5Z" fill="white"/>
</mask>
<g mask="url(#mask22_201_718)">
<path d="M369.1 216.7C363.8 212.4 357 211.7 350.5 213.1C344.8 214.3 338.3 216.7 334.5 221.4C330.9 225.9 330.1 232.2 332 237.6C333.9 243 337.9 247.3 342.7 250.2C348.3 253.6 354.9 255.1 361.3 255.7C366.6 256.2 372.6 256 376.9 252.5C381.3 248.9 382 242.1 380.7 236.9C379.4 231.4 375.6 227.1 370.4 225.1C367 223.8 362.7 223 359.2 223.9C356.3 224.6 353.9 227 353 229.8C350.9 236.3 357.4 242 363.6 241C364.6 240.8 365.9 240.2 365.6 239C365.3 237.8 363.8 237.2 362.7 237.4C358.9 238 356.5 233.7 358 230.4C358.8 228.6 360.3 227.3 362.3 227.2C364.6 227.1 367.2 227.7 369.3 228.7C373.1 230.3 375.3 234.1 376.1 238C376.9 242.1 376.4 247.4 373 250.1C369.9 252.5 365.4 252.4 361.7 252C356.7 251.5 351.6 250.4 347.1 248C343.2 245.9 339.8 242.8 337.7 238.8C335.8 234.9 335.5 230 337.3 226C339.6 221 344.9 218.7 349.8 217.2C354.9 215.7 361 215.2 365.3 218.8C366.3 219.6 367.7 219.9 368.8 219.2C369.7 218.7 370 217.4 369.1 216.7Z" fill="white"/>
</g>
<mask id="mask23_201_718" style="mask-type:luminance" maskUnits="userSpaceOnUse" x="51" y="51" width="398" height="398">
<path d="M250 448.5C359.629 448.5 448.5 359.629 448.5 250C448.5 140.371 359.629 51.5 250 51.5C140.371 51.5 51.5 140.371 51.5 250C51.5 359.629 140.371 448.5 250 448.5Z" fill="white"/>
</mask>
<g mask="url(#mask23_201_718)">
<path d="M441.8 203.7C440.1 198.2 434.7 194.9 429.2 194.4C426 194.1 422.7 194.7 419.6 195.5C416.7 196.3 413.8 197.3 411 198.7C405.8 201.3 401.3 205.6 399.9 211.4C398.5 217.3 401 223.7 404 228.6C407 233.5 411.4 237.5 416.8 239.4C422.3 241.3 428.3 240.8 433.4 238.2C438.2 235.8 442.2 231.4 443.8 226.3C445.7 220.4 444.1 214.1 438.7 210.6C433.6 207.3 426.9 208.5 423.2 213.2C421.3 215.6 420.3 218.8 420.8 221.9C421.5 225.3 424.1 228.3 427.8 228.4C430.9 228.5 430 223.7 427.3 223.6C425.5 223.6 425 221.7 425.2 220.2C425.4 218.4 426.4 216.8 427.7 215.6C430.4 213.2 434.4 212.8 437.3 215C440.9 217.7 440.5 222.4 438.7 226.1C436.9 229.8 433.7 232.8 430 234.4C426.1 236.1 421.6 236.2 417.6 234.9C413.5 233.5 410.3 230.6 408 227C405.7 223.4 403.5 218.6 404 214.3C404.5 210 407.6 206.5 411.2 204.3C413.5 202.9 416 201.8 418.5 201C421.2 200.1 423.9 199.3 426.8 199.2C431.1 199 436.1 200.4 437.5 204.9C438.5 207.7 442.7 206.8 441.8 203.7Z" fill="white"/>
</g>
<mask id="mask24_201_718" style="mask-type:luminance" maskUnits="userSpaceOnUse" x="51" y="51" width="398" height="398">
<path d="M250 448.5C359.629 448.5 448.5 359.629 448.5 250C448.5 140.371 359.629 51.5 250 51.5C140.371 51.5 51.5 140.371 51.5 250C51.5 359.629 140.371 448.5 250 448.5Z" fill="white"/>
</mask>
<g mask="url(#mask24_201_718)">
<path d="M421.1 246.7C420.4 241.9 417 238.3 412.6 236.5C409.9 235.4 407 234.8 404.2 234.9C401.1 235 398.1 236.1 395.3 237.1C390.3 238.9 384.7 241.3 381 245.2C377.2 249.2 376.7 254.9 379.3 259.7C381.7 264.2 386.2 267.1 391 268.6C396.9 270.5 403.2 270.5 409 268.5C411.5 267.7 414 266.6 415.1 264C416.1 261.6 416.1 258.3 415.7 255.7C414.8 249.9 409.4 247.3 404.1 246.7C401.4 246.4 398.7 247.1 396.6 248.9C394.7 250.5 393.1 253.3 393.6 255.9C394.4 260.6 408.7 263.9 407.7 257.8C407.6 257.2 405.9 256.9 405.4 256.7C405.2 256.7 402.8 256.2 402.9 256.6C403.1 257.5 402.7 258.4 402 259C401.7 259.3 401.2 259.5 400.8 259.6C399.3 260 401.5 259.7 401.3 259.9C401.2 259.9 400.5 259.5 400.4 259.4C398.3 258.2 398.2 256.1 398.9 254C399.5 252.2 400.7 250.6 402.3 249.6C403 249.1 403.8 248.7 404.7 248.5C405.1 248.4 405.6 248.3 406 248.3C406.2 248.3 406.5 248.3 406.7 248.3C407.4 248.1 405.8 248.9 406.3 248.2C406.5 248 408.3 249.5 408.4 249.6C409.1 250.2 409.7 251 410.1 251.8C411.2 253.9 411.2 256.3 411.1 258.6C411 260.5 410.8 262.6 409.6 264.2C408.2 266 405.7 266.8 403.6 267.4C399.8 268.5 395.1 269.3 391.4 267.5C388 265.9 385.1 262.9 383.6 259.4C381.9 255.4 382.4 250.7 385.1 247.3C387.7 244.1 391.7 242 395.4 240.3C397.8 239.2 400.4 238.2 402.9 237.4C404.2 237 405.5 236.6 406.9 236.4C407.6 236.3 408.3 236.2 409 236.2C409.3 236.2 410.2 236.4 409.6 236.2C413.3 237.6 416 241.4 416.6 245.2C416.7 245.8 418.4 246.2 418.9 246.3C418.7 246.6 421.1 247 421.1 246.7Z" fill="white"/>
</g>
<mask id="mask25_201_718" style="mask-type:luminance" maskUnits="userSpaceOnUse" x="51" y="51" width="398" height="398">
<path d="M250 448.5C359.629 448.5 448.5 359.629 448.5 250C448.5 140.371 359.629 51.5 250 51.5C140.371 51.5 51.5 140.371 51.5 250C51.5 359.629 140.371 448.5 250 448.5Z" fill="white"/>
</mask>
<g mask="url(#mask25_201_718)">
<path d="M234.2 190.3C224.6 186.3 213.6 188.5 205.9 195.4C199.3 201.3 194.2 212.2 200.6 220C207.4 228.3 219 227.5 228.4 225.3C231.1 224.7 233.8 223.7 235.9 221.9C237.8 220.3 239.2 218 240.2 215.8C241.3 213.6 242.2 210.9 241.1 208.5C240.2 206.4 237.9 205.1 235.9 204.1C233.3 202.8 230.3 201.8 227.4 201.9C224.5 201.9 221.8 203.4 219.7 205.5C217.9 207.3 216.1 209.6 215.3 212.1C214.4 214.6 215.6 217.6 218.6 217.3C219.7 217.2 221 216.3 221.5 215.3C221.9 214.4 221.5 213.6 220.4 213.7C219.8 213.8 219.3 212.7 219.3 212.2C219.2 211.3 219.8 210.4 220.3 209.6C221.1 208.4 222 207 223.2 206.2C224.7 205.2 226.7 205.6 228.3 206C230.2 206.5 232.1 207.3 233.8 208.3C235.3 209.2 236.9 210.4 237.1 212.2C237.3 214.2 236.2 216.2 235.2 217.8C234.3 219.4 233.3 220.5 231.6 221.1C229.7 221.8 227.6 222.2 225.5 222.5C218 223.8 209.5 223.4 204.4 216.9C202.1 214 201.3 210.6 202.1 207C202.9 203.6 204.7 200.4 207.1 197.9C213.1 191.6 222.5 190.2 230.5 193.5C231.6 193.9 232.8 193.3 233.6 192.6C234.2 192.3 235.3 190.7 234.2 190.3Z" fill="white"/>
</g>
<mask id="mask26_201_718" style="mask-type:luminance" maskUnits="userSpaceOnUse" x="51" y="51" width="398" height="398">
<path d="M250 448.5C359.629 448.5 448.5 359.629 448.5 250C448.5 140.371 359.629 51.5 250 51.5C140.371 51.5 51.5 140.371 51.5 250C51.5 359.629 140.371 448.5 250 448.5Z" fill="white"/>
</mask>
<g mask="url(#mask26_201_718)">
<path d="M274.2 205.9C272.4 201.8 267.5 200.4 263.4 200.9C259.3 201.4 255.4 203.2 252.3 206C245.6 212 244.6 222.3 249.5 229.7C254.3 237.1 264.5 241.4 273.1 239.6C275.4 239.1 277.6 238.3 279.5 236.8C281.2 235.3 282.1 233.2 282.3 231C282.8 226.4 281.7 221.3 278.8 217.7C275.8 213.9 270.2 210.6 265.3 212.5C260.3 214.5 260 221.5 262 225.7C262.5 226.7 263.7 227.7 264.8 227.8C265.8 227.9 266.4 227.3 265.9 226.3C264.4 223.3 264.8 218.9 267.5 216.7C269.8 214.7 273.5 215.8 275.3 217.9C277.6 220.5 278.2 224.6 278.1 228C278 229.8 277.6 231.6 276.4 233C275.2 234.4 273.3 235.2 271.6 235.8C265.6 237.6 258 235.8 253.9 231C249.5 225.7 249.9 217.5 253.7 212.1C255.8 209.1 258.9 206.9 262.3 205.6C264 205 265.8 204.6 267.6 204.6C268.2 204.6 268.9 204.7 269.6 204.8C270.2 205 270.1 204.9 270.3 205.3C270.7 206.3 272 207.3 273.1 207.4C274.1 207.5 274.7 206.8 274.2 205.9Z" fill="white"/>
</g>
<mask id="mask27_201_718" style="mask-type:luminance" maskUnits="userSpaceOnUse" x="51" y="51" width="398" height="398">
<path d="M250 448.5C359.629 448.5 448.5 359.629 448.5 250C448.5 140.371 359.629 51.5 250 51.5C140.371 51.5 51.5 140.371 51.5 250C51.5 359.629 140.371 448.5 250 448.5Z" fill="white"/>
</mask>
<g mask="url(#mask27_201_718)">
<path d="M315.2 221.3C316.2 215.7 311.8 211.5 306.8 210.3C300.8 208.9 294.7 211.1 289.4 213.9C284.5 216.5 279.8 219.8 277.2 224.7C275.9 227 275.3 229.7 275.3 232.3C275.4 235.1 276.6 237.7 278.2 239.9C281.5 244.6 285.7 248.6 291.1 250.9C296.7 253.2 303.6 254.1 309.2 251.6C311.8 250.4 314.1 248.6 316.1 246.7C318.1 244.9 319.8 242.7 320.8 240.2C321.8 237.7 322.1 234.8 321.2 232.3C320.3 229.8 318.5 227.9 316.3 226.6C310.9 223.4 302.8 221.7 297.3 225.4C294.9 227 293.5 229.8 293.8 232.7C294.1 235.7 296.1 238.2 298.5 239.8C299.5 240.4 301 240.2 302 239.8C302.7 239.4 303.6 238.5 302.6 237.9C299.3 235.7 296.9 230.5 300.3 227.3C301.8 225.9 303.9 225.9 305.8 226.3C307.9 226.7 310 227.4 311.9 228.4C313.7 229.4 315.3 230.7 316.1 232.6C317 234.7 317 237.1 316.3 239.2C315 243.3 311.4 246.8 307.8 249C304 251.3 299.2 250.4 295.2 248.9C290.8 247.2 287.3 244.1 284.4 240.5C283 238.7 281.5 236.8 280.8 234.5C280.2 232.4 280.2 230.1 280.8 228C282 223.7 285.1 220.4 288.7 217.9C290.7 216.5 293 215.3 295.2 214.3C297.4 213.3 299.7 212.5 302.1 212.5C306.7 212.5 311.4 216.3 310.4 221.3C310 223.3 314.9 222.9 315.2 221.3Z" fill="white"/>
</g>
<mask id="mask28_201_718" style="mask-type:luminance" maskUnits="userSpaceOnUse" x="51" y="51" width="398" height="398">
<path d="M250 448.5C359.629 448.5 448.5 359.629 448.5 250C448.5 140.371 359.629 51.5 250 51.5C140.371 51.5 51.5 140.371 51.5 250C51.5 359.629 140.371 448.5 250 448.5Z" fill="white"/>
</mask>
<g mask="url(#mask28_201_718)">
<path d="M188.3 221.6C187.4 218.2 183.8 216.9 180.7 216.4C176.5 215.7 172 216 167.7 216.3C163.5 216.6 159.2 217.1 155.1 217.9C151.8 218.5 148.5 219.3 145.6 220.9C139.3 224.5 138.5 232.5 140.7 238.8C142.8 245.1 147.6 250.3 153.3 253.6C159.9 257.5 167.5 259.2 175 260.2C181.8 261.1 190.5 262.7 195.1 256.3C196.9 253.8 197.8 250.7 198.3 247.6C198.9 244.1 198.7 240.4 196.7 237.3C193 231.8 185.3 230.2 179.2 229.1C175.3 228.4 171.1 227.7 167.2 228C163.9 228.3 161.2 230 160.7 233.4C159.7 239.9 165.4 245.2 171.3 246.5C173.1 246.9 175.1 247.1 177 247C177.6 247 178.6 246.9 178 246.3C177.4 245.7 175.4 245.7 174.6 245.7C174.3 245.7 174.1 245.7 173.8 245.7C174.4 245.7 173.8 245.7 173.6 245.6C173.1 245.4 172.6 245.3 172.2 245.1C171 244.5 169.9 243.8 169 242.8C167.1 240.9 165.8 238.5 165.7 235.8C165.5 233.1 166.5 230.1 169.4 229.3C170.5 229 171.6 229.1 172.7 229.2C174.5 229.4 176.3 229.6 178.1 230C183.1 230.9 188.7 232.4 191.8 236.7C195.2 241.4 193.9 248.7 191.5 253.6C190.3 256 188.4 258.2 185.7 259.1C182.9 260.1 179.8 259.5 177 259.1C171 258.3 165 257 159.7 254.3C154.5 251.6 150.1 247.6 147.3 242.4C144.7 237.5 143.6 230.9 146.3 225.7C149.5 219.5 158.2 218.7 164.3 217.9C168.2 217.4 172.1 217.1 176 217C177.5 217 179.1 216.8 180.5 217.4C182 218 183.2 219.3 183.6 220.9C183.7 222.3 188.4 222 188.3 221.6Z" fill="white"/>
</g>
<mask id="mask29_201_718" style="mask-type:luminance" maskUnits="userSpaceOnUse" x="51" y="51" width="398" height="398">
<path d="M250 448.5C359.629 448.5 448.5 359.629 448.5 250C448.5 140.371 359.629 51.5 250 51.5C140.371 51.5 51.5 140.371 51.5 250C51.5 359.629 140.371 448.5 250 448.5Z" fill="white"/>
</mask>
<g mask="url(#mask29_201_718)">
<path d="M234.1 233.7C232.5 231.6 230.2 229.7 227.8 228.7C225.6 227.8 223.2 227.7 220.9 228.1C216.5 228.8 211.7 230.6 208.2 233.4C204.4 236.4 202.6 240.8 202.5 245.6C202.4 248 202.6 250.5 203 252.9C203.3 255 203.8 257.2 204.7 259.1C206.9 263.5 211.5 266.8 216.3 267.6C221.4 268.4 227 267.7 231.9 266.2C235.6 265.1 239.6 263 241.2 259.2C242.9 255 241 250.7 238 247.7C234.1 243.6 229 241.3 223.3 241.7C220.8 241.9 218.3 242.5 217.5 245.2C216.7 247.8 217.8 250.3 219 252.5C219.5 253.4 220.6 254.2 221.5 254.9C221.8 255.1 223 255.9 222.5 255.1C221.5 253.3 220.7 251.1 221.1 249C221.5 247.3 222.6 246 224.3 245.5C226.2 244.9 228.4 244.9 230.4 245.1C231.3 245.2 232.1 245.4 232.9 245.6C233.9 245.9 234.8 246.4 235.7 246.8C236.1 247 235.7 246.8 235.8 246.8C236 247.1 236.3 247.4 236.5 247.8C237 248.5 237.3 249.4 237.6 250.2C238.1 251.9 238.2 253.8 237.6 255.5C236.5 258.6 233.7 260.7 230.8 262C227.1 263.6 222.9 264.4 218.9 264.6C216.7 264.7 214.6 264.7 212.4 264.3C211.4 264.1 210.4 263.9 209.5 263.5C209.5 263.5 209 263.2 208.9 263.2C209 263.1 209.6 264.1 209.2 263.5C208.9 263.1 208.6 262.7 208.4 262.2C206.7 258.9 206.4 254.8 206.2 251.2C206 247.2 206.6 243 209.1 239.7C211.5 236.5 215.1 234.5 218.7 233.1C220.9 232.3 223.2 231.6 225.5 231.3C226.6 231.2 227.8 231.2 228.9 231.4C229.4 231.5 229.9 231.6 230.4 231.8C230.6 231.9 230.8 232 231 232C231.5 232.3 231.5 232.2 231 231.9C230.6 231.5 230.6 231.5 230.9 231.9C231.6 232.8 232.6 233.6 233.6 234.2C234.5 234.6 234.7 234.4 234.1 233.7Z" fill="white"/>
</g>
<mask id="mask30_201_718" style="mask-type:luminance" maskUnits="userSpaceOnUse" x="51" y="51" width="398" height="398">
<path d="M250 448.5C359.629 448.5 448.5 359.629 448.5 250C448.5 140.371 359.629 51.5 250 51.5C140.371 51.5 51.5 140.371 51.5 250C51.5 359.629 140.371 448.5 250 448.5Z" fill="white"/>
</mask>
<g mask="url(#mask30_201_718)">
<path d="M128.8 234.8C125.6 231.3 120.3 231 115.8 231.3C110.8 231.7 105.8 233.5 101.8 236.5C97.9 239.4 95.1 243.5 94.4 248.3C93.8 253 95 257.7 97.8 261.5C104.1 270.2 115.5 272.2 125.5 269.8C130.7 268.6 136.5 266.1 139.1 261.2C140.3 259 141 256.6 141.4 254.1C141.9 251.4 141.4 249.1 139.2 247.4C137 245.7 134.2 244.4 131.7 243.4C129 242.3 126 241.7 123.1 242.3C118.3 243.3 111.8 247.6 112.7 253.3C112.8 253.7 117.2 252 117 250.7C116.7 249 117.3 247 118.6 245.8C119.7 244.8 121.8 244.9 123.2 245.1C125.4 245.4 127.5 246.1 129.5 247.1C131.4 248 133.5 248.9 135.2 250.3C137 251.8 137.6 253.7 137.3 256C137 258 136.5 260 135.7 261.8C135.1 263.3 134.1 265 132.6 265.8C130.6 266.8 128.2 267.3 126 267.7C117.6 269.1 108.5 266.7 102.9 260C98 254.1 96.7 244.5 102.1 238.4C104.6 235.5 108.5 234.5 112.2 234.1C116.4 233.7 121.5 234 124.6 237.3C125.4 238.3 129.3 235.3 128.8 234.8Z" fill="white"/>
</g>
<mask id="mask31_201_718" style="mask-type:luminance" maskUnits="userSpaceOnUse" x="51" y="51" width="398" height="398">
<path d="M250 448.5C359.629 448.5 448.5 359.629 448.5 250C448.5 140.371 359.629 51.5 250 51.5C140.371 51.5 51.5 140.371 51.5 250C51.5 359.629 140.371 448.5 250 448.5Z" fill="white"/>
</mask>
<g mask="url(#mask31_201_718)">
<path d="M90.1001 241.5C84.8001 239.7 79.2001 241.9 74.5001 244.5C70.0001 246.9 66.6001 250.4 64.5001 255.1C62.5001 259.6 61.6001 264.6 61.2001 269.4C61.0001 272.2 60.9001 275 61.6001 277.7C62.2001 280.2 63.5001 282.5 65.2001 284.5C68.5001 288.5 73.3001 291.7 78.3001 293.2C83.7001 294.9 88.9001 293.8 93.7001 290.9C95.8001 289.7 97.9001 288.3 99.5001 286.5C101.4 284.4 102 281.9 101.7 279.1C101.1 274.2 98.5001 269.5 95.2001 265.9C91.4001 261.8 85.5001 258 79.6001 259C74.9001 259.9 71.0001 265.3 74.2001 269.7C74.9001 270.7 76.1001 271.4 77.4001 271.2C78.4001 271 79.1001 270 78.4001 269C76.5001 266.3 79.4001 262.9 82.2001 262.5C85.9001 262 89.5001 264.9 91.8001 267.4C94.4001 270.3 96.3001 273.9 97.0001 277.7C97.4001 279.9 97.0001 281.9 95.5001 283.6C94.1001 285.1 92.4001 286.3 90.6001 287.4C86.9001 289.6 83.0001 290.9 78.8001 289.6C75.0001 288.5 71.5001 285.9 69.0001 282.9C66.1001 279.5 65.7001 275.2 66.0001 270.9C66.3001 266.8 66.9001 262.7 68.4001 258.8C70.0001 254.6 72.5001 250.9 76.4001 248.5C78.5001 247.2 80.8001 246.1 83.0001 245.3C85.3001 244.5 87.6001 244 90.0001 244.8C90.9001 245.1 92.3001 244.8 92.5001 243.7C92.5001 242.7 91.1001 241.9 90.1001 241.5Z" fill="white"/>
</g>
<mask id="mask32_201_718" style="mask-type:luminance" maskUnits="userSpaceOnUse" x="51" y="51" width="398" height="398">
<path d="M250 448.5C359.629 448.5 448.5 359.629 448.5 250C448.5 140.371 359.629 51.5 250 51.5C140.371 51.5 51.5 140.371 51.5 250C51.5 359.629 140.371 448.5 250 448.5Z" fill="white"/>
</mask>
<g mask="url(#mask32_201_718)">
<path d="M443 260.4C443.3 255.7 437.9 254.3 434.2 254.4C430.1 254.5 426 255.1 422.2 256.7C415.4 259.6 410 267.3 413.2 274.7C414.7 278.1 417.5 280.8 420.4 282.9C423.6 285.2 427.2 287.2 431.1 288C434.5 288.7 439.9 288.6 442.2 285.5C443.4 283.9 443.4 281.5 443.6 279.6C443.8 277.4 443.8 275.2 443.5 273C443.3 270.8 442.9 268.5 441.4 266.8C440 265.2 438 264.2 436 263.8C431.6 262.9 426.8 264.2 423.2 266.7C422.2 267.4 421.6 268.5 422.4 269.6C423.1 270.5 424.8 270.9 425.8 270.2C428.1 268.6 430.9 267.5 433.8 267.7C436.3 267.9 437.8 269.2 438.3 271.7C438.9 274.9 438.9 278.4 438.4 281.6C438.2 282.9 438.2 283.4 437 283.8C435.7 284.2 434.4 284.3 433.1 284.1C430.3 283.7 427.6 282.4 425.2 280.8C423 279.3 420.8 277.6 419.1 275.4C417.6 273.3 416.7 270.8 417.3 268.3C417.9 265.7 419.5 263.5 421.6 261.9C424.1 260 427.4 259.2 430.5 258.8C432.2 258.6 438 257.5 437.8 260.6C437.8 263.2 442.8 263.1 443 260.4Z" fill="white"/>
</g>
<mask id="mask33_201_718" style="mask-type:luminance" maskUnits="userSpaceOnUse" x="51" y="51" width="398" height="398">
<path d="M250 448.5C359.629 448.5 448.5 359.629 448.5 250C448.5 140.371 359.629 51.5 250 51.5C140.371 51.5 51.5 140.371 51.5 250C51.5 359.629 140.371 448.5 250 448.5Z" fill="white"/>
</mask>
<g mask="url(#mask33_201_718)">
<path d="M428 297C426.4 290.4 421.4 284.8 415.4 281.8C408.7 278.4 400.9 277.6 393.4 277.8C389.5 277.9 385.5 278.3 381.7 279.1C378.4 279.8 375.4 281 373.2 283.6C371.2 286 370.2 289.1 369.7 292.2C369.1 295.8 369.1 299.7 369.8 303.2C371.2 310.2 375.5 316.2 381.5 320.2C387.4 324.2 395.1 325.8 402.1 325.2C408.8 324.6 414.8 321.5 417.6 315.1C420.3 308.7 420.8 300.5 417.1 294.5C414 289.4 408 285.7 402 286.3C396 286.9 391.3 291.7 389.9 297.4C389.5 298.9 389.5 300.3 389.6 301.8C389.7 302.9 390.6 304.2 391.5 304.8C392.4 305.3 393 304.9 392.9 303.9C392.6 298.8 395.9 293.9 400.4 291.8C404.7 289.7 410.4 290.7 413.7 294.1C415.4 295.9 416.1 298.1 416.2 300.6C416.4 303.7 415.9 307 415 309.9C414.1 312.6 412.7 315.2 410.5 317.1C408.3 318.9 405.7 320 402.9 320.6C392.5 322.7 378 318.9 373.9 308C372.7 304.8 372.5 301.4 372.8 298C373 295.2 373.5 292.4 374.8 289.9C377.8 284.1 384.5 283.3 390.3 282.7C397.6 282 405.3 282.1 412.3 284.4C418 286.3 423.4 290.1 424.9 296.3C425.1 297.3 426.1 298.7 427.1 298.9C428.2 298.9 428.2 297.8 428 297Z" fill="white"/>
</g>
<mask id="mask34_201_718" style="mask-type:luminance" maskUnits="userSpaceOnUse" x="51" y="51" width="398" height="398">
<path d="M250 448.5C359.629 448.5 448.5 359.629 448.5 250C448.5 140.371 359.629 51.5 250 51.5C140.371 51.5 51.5 140.371 51.5 250C51.5 359.629 140.371 448.5 250 448.5Z" fill="white"/>
</mask>
<g mask="url(#mask34_201_718)">
<path d="M354 263.9C347.1 261.2 340 258.5 332.5 259.1C326.1 259.6 318.7 261.7 314.9 267.3C311.6 272.1 311.2 278.5 313 283.9C315 289.7 319.6 294.3 324.9 297.3C330.7 300.6 337.8 302.8 344.6 301.7C348.5 301.1 352.2 299.7 355.7 297.9C358.5 296.5 361.3 294.9 363.4 292.5C367.6 287.7 366.7 280.7 362.5 276.3C358.1 271.6 350.9 270.2 344.7 271.1C341.3 271.6 336.8 272.4 334.4 275.2C332.1 277.9 332.1 282 333.8 285C335.5 288 338.4 289 341.6 288.5C344.7 288 348.6 287.2 349.9 284C349.9 283.9 347.6 284.3 347.4 284.3C346.9 284.4 345.3 284.6 345 285.2C344.6 286.2 343.9 287 343 287.6C342.6 287.8 341.8 288.1 343.4 287.6C345 287.2 344.1 287.4 343.6 287.3C343 287.2 342.4 287.1 341.8 286.8C339.6 285.8 338.1 283.4 337.7 281.1C337.2 278.5 337.7 275.6 339.7 273.7C340.1 273.3 340.6 273 341.1 272.7C341.2 272.6 341.9 272.2 342.1 272.2C342 272.2 340.9 273.4 341.6 272.3C341.7 272.1 343.1 272.2 343.2 272.2C344 272.2 344.9 272.2 345.7 272.3C351 272.8 356.4 275 359.3 279.6C362.1 284.1 362.2 289.9 358.5 293.9C356.7 295.8 354.5 297.2 352.2 298.4C350.9 299 349.7 299.7 348.3 300.2C348 300.3 347.7 300.4 347.5 300.5C347.5 300.5 346.4 300.8 347.1 300.7C346.2 300.8 345.2 300.8 344.3 300.8C338.8 300.5 333.2 298.3 328.6 295.4C324.3 292.7 320.5 288.9 318.5 284.2C316.7 279.8 316.3 274.7 317.9 270.2C318.8 267.6 320.3 265.3 322.4 263.5C324.5 261.7 326.7 260.7 329.3 260.5C336.3 260 343.1 262.8 349.5 265.3C350.3 265.6 351.8 265 352.5 264.8C352.7 264.6 354.3 264 354 263.9Z" fill="white"/>
</g>
<mask id="mask35_201_718" style="mask-type:luminance" maskUnits="userSpaceOnUse" x="51" y="51" width="398" height="398">
<path d="M250 448.5C359.629 448.5 448.5 359.629 448.5 250C448.5 140.371 359.629 51.5 250 51.5C140.371 51.5 51.5 140.371 51.5 250C51.5 359.629 140.371 448.5 250 448.5Z" fill="white"/>
</mask>
<g mask="url(#mask35_201_718)">
<path d="M280.6 245.3C274.9 241.3 267.3 241 260.9 243.4C254.7 245.8 249.7 250.8 246.6 256.6C243.2 262.8 241.5 270.7 244.4 277.5C247.1 283.8 253.1 288 259.4 290.2C263 291.5 266.8 292.1 270.7 292.6C274.7 293.1 278.7 293.4 282.7 293.3C286.5 293.2 290.7 293.1 293.7 290.4C296.2 288.1 297.6 284.3 298.5 281.1C300.6 273.9 296.9 267 291.6 262.2C289.1 259.9 286.3 258.1 283.3 256.7C280.3 255.4 276.8 254.1 273.5 254.2C269.3 254.3 266.9 258 265.5 261.6C264.2 264.8 263.7 268.5 265.6 271.7C267.3 274.6 270.4 276.3 273.5 277.3C277.1 278.5 281.3 278.7 284.5 276.4C286 275.4 287 274 287.5 272.3C287.9 271.1 286.7 270.1 285.6 270.1C284.3 270 283.1 270.9 282.7 272.1C281.9 274.4 278.8 274.2 276.9 273.8C274.4 273.2 271.9 272.1 270.3 270.1C268.6 268 269 265.1 269.9 262.8C270.4 261.6 271 260.4 271.8 259.3C272.2 258.8 272.3 258.7 272.6 258.6C273.2 258.5 274.2 258.7 274.9 258.9C280.1 259.9 285 262.5 288.7 266.3C290.6 268.2 292.3 270.4 293.3 273C294.5 275.8 294.5 278.6 293.6 281.5C293.2 282.8 292.6 284.2 292 285.4C291.5 286.5 290.9 287.6 289.9 288.3C288.9 289 287.7 289.1 286.5 289.2C284.8 289.3 283.2 289.4 281.5 289.3C275.1 289.2 268.4 288.6 262.2 286.6C257.3 285 252.5 282.1 249.8 277.5C246.9 272.4 247.4 266.1 249.7 260.8C251.9 255.6 255.6 250.7 260.8 248.2C266.1 245.7 272.4 245.8 277.3 249.2C279.5 250.3 283.1 247 280.6 245.3Z" fill="white"/>
</g>
<mask id="mask36_201_718" style="mask-type:luminance" maskUnits="userSpaceOnUse" x="51" y="51" width="398" height="398">
<path d="M250 448.5C359.629 448.5 448.5 359.629 448.5 250C448.5 140.371 359.629 51.5 250 51.5C140.371 51.5 51.5 140.371 51.5 250C51.5 359.629 140.371 448.5 250 448.5Z" fill="white"/>
</mask>
<g mask="url(#mask36_201_718)">
<path d="M176.8 262.1C169.1 259.3 160.7 258.4 152.6 259.5C145.6 260.5 138.2 263.1 133.8 269C129.7 274.4 128.8 282.4 133 288C135.3 291.1 138.6 293.4 141.7 295.7C144.9 298 148.2 300 151.6 301.8C155.1 303.6 158.7 305.4 162.5 306.6C166 307.7 169.7 308.1 173.2 306.8C179.1 304.6 182.8 298.5 183.3 292.4C183.8 285.8 179.9 279.5 175 275.5C169.8 271.3 163 268.6 156.2 269.3C153.1 269.6 149.8 270.8 147.5 273C144.7 275.6 143.6 279.4 145.9 282.7C148 285.7 151.5 287.8 154.8 289.2C158.3 290.6 162.4 290.5 165 287.6C166.1 286.4 166.6 284.8 166.4 283.2C166.2 281.9 165.2 280.9 163.9 280.7C162.8 280.6 161.5 281.3 161.6 282.6C161.9 285.3 158.7 286.2 156.7 285.6C155.4 285.2 154.2 284.5 153.1 283.8C151.9 283.1 150.7 282.3 149.8 281.2C148.1 279.1 150.2 276.9 152 275.6C154 274.2 156.6 273.6 159 273.6C168.4 273.6 179.7 282 178.3 292.3C177.7 296.8 174.7 301.3 170.2 302.9C167.6 303.8 164.8 303.2 162.3 302.3C159.2 301.2 156.2 299.8 153.3 298.3C150.5 296.8 147.7 295.1 145 293.3C142.5 291.6 140 289.8 137.8 287.6C133.8 283.6 134 277.8 136.9 273.2C140.4 267.7 147.1 265.2 153.3 264.2C160.8 263.1 168.4 263.9 175.6 266.4C176.7 266.8 178.1 266.5 178.4 265.2C178.9 263.8 177.9 262.5 176.8 262.1Z" fill="white"/>
</g>
<mask id="mask37_201_718" style="mask-type:luminance" maskUnits="userSpaceOnUse" x="51" y="51" width="398" height="398">
<path d="M250 448.5C359.629 448.5 448.5 359.629 448.5 250C448.5 140.371 359.629 51.5 250 51.5C140.371 51.5 51.5 140.371 51.5 250C51.5 359.629 140.371 448.5 250 448.5Z" fill="white"/>
</mask>
<g mask="url(#mask37_201_718)">
<path d="M234 273C223.9 268.4 212.1 269.2 202.2 273.7C197.7 275.8 193.1 278.5 190.2 282.7C187.3 286.9 186.7 291.9 187.8 296.9C190.3 307.4 200 314.2 208.8 319.3C213.8 322.2 219 324.6 224.4 326.4C230.1 328.2 236.5 329.7 242.5 328.5C251.6 326.7 257.8 319 260.9 310.7C262.7 306 263.9 300.6 262.9 295.7C261.9 291.1 258.4 287.5 254.4 285.1C250 282.5 244.8 281 239.8 280.6C234.7 280.2 229.5 280.8 225 283.4C217.5 287.8 214.4 299 221.6 305.2C225.9 308.9 232 310.7 237.5 311.4C241.5 311.9 246.9 312.1 249.9 308.8C253.1 305.3 250.1 300 247.6 297.1C244.6 293.5 240 291.3 235.4 290.8C233.1 290.6 230.8 290.8 228.7 291.7C227.7 292.1 228.8 292.8 229.3 293.1C230.2 293.5 231.7 293.9 232.7 293.5C235.9 292.1 238.6 292.9 241.1 295.1C242.6 296.3 243.8 297.8 244.8 299.5C245.8 301.3 246.8 303.5 246.2 305.6C245.3 308.8 241.2 309.8 238.3 309.6C234.1 309.4 229.2 308 225.9 305.2C219.8 300 222.1 290.2 228.1 285.8C234.6 281 244.3 281.8 250.9 285.8C254.4 287.9 257.1 291.1 258 295.1C258.9 299.5 257.8 304.4 256.3 308.6C253.8 315.8 249 323.1 241.6 325.8C237.2 327.4 232.6 326.9 228.3 325.6C223.7 324.3 219.2 322.4 214.9 320.2C207.1 316 198.4 310.6 194.3 302.4C192.3 298.4 191.4 293.7 192.4 289.3C193.4 285 196.4 281.6 199.9 279C207 273.9 216.7 270.8 225.4 272.2C227.4 272.5 229.2 273.1 231 274C231.9 274.4 233.5 274.9 234.4 274.4C235.6 273.9 234.6 273.2 234 273Z" fill="white"/>
</g>
<mask id="mask38_201_718" style="mask-type:luminance" maskUnits="userSpaceOnUse" x="51" y="51" width="398" height="398">
<path d="M250 448.5C359.629 448.5 448.5 359.629 448.5 250C448.5 140.371 359.629 51.5 250 51.5C140.371 51.5 51.5 140.371 51.5 250C51.5 359.629 140.371 448.5 250 448.5Z" fill="white"/>
</mask>
<g mask="url(#mask38_201_718)">
<path d="M312.8 293.1C302.4 290.9 290.8 291.4 280.9 295.6C276.7 297.4 272.7 300.2 270.3 304.2C267.8 308.3 267.2 313.2 267.7 317.9C268.7 327.5 274.2 336.5 280.7 343.4C287.3 350.3 295.9 355 305.3 356.4C315.1 357.8 326.4 355.9 334.4 349.8C338.7 346.6 340.9 341.5 342.4 336.5C343.9 331.6 344.3 326.3 342.7 321.3C341.1 316.6 337.8 311.7 333.5 309.1C329.4 306.6 324.3 306.2 319.6 306.3C314.7 306.5 309.8 307.4 305.3 309.4C301 311.3 296.2 314.3 294 318.5C291.6 323 293.7 327.6 296.4 331.4C299.5 335.8 303.7 338.3 308.9 339.6C311.3 340.2 313.7 340.7 316.1 341C318.3 341.3 320.7 341.4 322.9 340.5C327.1 338.8 327.6 334.1 326.7 330.2C326.2 328.1 325.4 326.1 324.4 324.2C323.9 323.2 323.2 322.1 322.4 321.3C321.9 320.7 321.5 320.7 322 321.6C323.7 324.8 325.2 329.1 323.7 332.7C322.1 336.8 317.6 337.3 313.8 336.9C309.3 336.4 304.5 335.5 300.5 333.3C299.6 332.8 298.7 332.2 297.9 331.5C297.6 331.2 297.2 330.9 296.9 330.5C297.3 331 296.7 329.9 296.6 329.8C295.8 327.8 295.8 325.6 296.6 323.6C298.1 319.6 302.1 316.7 305.7 314.8C309.6 312.7 313.9 311.4 318.2 310.8C322.5 310.2 327.2 310.1 331.5 311.2C333.7 311.8 335.8 312.6 337.6 314.1C338 314.4 338.4 314.8 338.7 315.1C338.8 315.2 339.1 315.6 338.9 315.3C339.5 316.2 339.8 317.2 340.2 318.2C341.7 323 341.1 328.2 339.6 332.9C338.2 337.4 336.2 341.9 332.5 345.1C329 348.1 324.6 350 320.2 351.2C315.8 352.5 311.2 353 306.6 352.8C297.9 352.4 289.4 349.2 282.7 343.7C276.5 338.6 272.3 331.7 270.9 323.8C270.2 319.5 270.4 314.9 272.1 310.9C273.8 307 276.8 303.9 280.4 301.8C288.4 297.1 298.7 295.8 307.8 296.4C310.4 296.6 313 297 315.5 297.5C316 297.6 314.9 295.9 314.9 295.8C314.4 294.9 313.5 293.2 312.8 293.1Z" fill="white"/>
</g>
<mask id="mask39_201_718" style="mask-type:luminance" maskUnits="userSpaceOnUse" x="51" y="51" width="398" height="398">
<path d="M250 448.5C359.629 448.5 448.5 359.629 448.5 250C448.5 140.371 359.629 51.5 250 51.5C140.371 51.5 51.5 140.371 51.5 250C51.5 359.629 140.371 448.5 250 448.5Z" fill="white"/>
</mask>
<g mask="url(#mask39_201_718)">
<path d="M377.1 318.7C372.3 315.4 365.9 314.7 360.3 316.2C354.5 317.8 349.4 321.2 345 325.3C342.9 327.3 340.9 329.6 340 332.4C339 335.3 339.2 338.4 340.3 341.3C342.5 347.1 347.5 351.3 352.4 354.8C357.5 358.5 363 361.4 368.9 363.5C371.9 364.6 374.9 365.4 378 364.3C380.7 363.4 383.1 361.4 385 359.4C388.6 355.4 390.8 350.1 391 344.7C391.1 341.8 390.9 338.5 389.4 335.9C387.8 333.1 385.1 331.9 382.2 331C375.9 329 368.5 327.2 363 332C358.3 336 359.1 344.3 364.5 347.3C365.5 347.8 366.5 347.3 366.7 346.2C366.9 345 366.1 343.6 365.1 343C363.9 342.3 363.6 341.3 363.7 339.8C363.9 337.9 365.2 336.3 366.8 335.3C371.3 332.5 376.6 333.8 381.3 335.2C383 335.7 385.9 336.2 386.7 338C387.5 339.8 387.4 342.3 387.1 344.3C386.6 348.7 384.6 352.8 381.6 355.9C380 357.5 378.1 359 375.9 359.8C373.3 360.7 370.7 359.7 368.2 358.8C363.4 357.1 358.8 354.6 354.5 351.8C350.7 349.2 346.3 346 344.1 341.8C343.1 340 342.6 337.9 343.2 335.9C343.8 333.6 345.4 331.6 347.1 330C354.4 322.7 366.7 316.3 376.4 323C377.3 323.6 378.4 322.9 378.6 321.9C378.9 320.6 378.1 319.4 377.1 318.7Z" fill="white"/>
</g>
<mask id="mask40_201_718" style="mask-type:luminance" maskUnits="userSpaceOnUse" x="51" y="51" width="398" height="398">
<path d="M250 448.5C359.629 448.5 448.5 359.629 448.5 250C448.5 140.371 359.629 51.5 250 51.5C140.371 51.5 51.5 140.371 51.5 250C51.5 359.629 140.371 448.5 250 448.5Z" fill="white"/>
</mask>
<g mask="url(#mask40_201_718)">
<path d="M446.6 314C433.9 310.7 420 311.6 408 317.1C402.5 319.6 397.7 323.3 395.9 329.3C394.2 334.8 394.8 341.4 397.3 346.6C400 352.2 405.1 355.5 411.1 356.9C417.2 358.3 424.2 359.1 430.3 357.2C441.1 353.8 446.7 339.2 438.8 330.2C434.1 324.9 425.5 324.2 419.1 326C413 327.7 407.2 333.6 408.9 340.4C409.2 341.6 410.4 342.3 411.6 342.2C412.6 342.1 414.2 341.1 413.8 339.9C412.6 335.2 416.1 331.3 420.4 330C424.5 328.7 430.6 329.1 433.9 332.1C440.6 338.1 437.4 350.2 429.3 353.2C424.4 355 418.6 354.2 413.6 353.2C408.9 352.3 404.6 350.1 402.3 345.7C400.1 341.6 399.5 336.5 400.3 331.9C400.8 329.5 401.7 327.1 403.4 325.3C405 323.5 407.1 322.2 409.3 321.2C420.1 316 433 314.9 444.6 317.9C445.8 318.2 447.3 317.9 447.9 316.8C448.4 315.7 447.8 314.3 446.6 314Z" fill="white"/>
</g>
<mask id="mask41_201_718" style="mask-type:luminance" maskUnits="userSpaceOnUse" x="51" y="51" width="398" height="398">
<path d="M250 448.5C359.629 448.5 448.5 359.629 448.5 250C448.5 140.371 359.629 51.5 250 51.5C140.371 51.5 51.5 140.371 51.5 250C51.5 359.629 140.371 448.5 250 448.5Z" fill="white"/>
</mask>
<g mask="url(#mask41_201_718)">
<path d="M122.1 280.3C116.4 277.3 110.3 277.9 104.5 280.4C99.8 282.4 95.2 285.3 92 289.3C88.6 293.6 87.4 299.1 88.8 304.4C90.2 309.8 93.9 314.3 98.6 317.3C108.1 323.4 122.2 324.6 131.1 316.7C135 313.2 137.6 308.2 137.6 302.9C137.6 296.4 131.6 292.5 126 290.6C120.3 288.7 113.3 289.4 109.7 294.8C108.3 297 107.8 299.8 108.6 302.3C109.5 305.3 111.7 307.3 114.4 308.7C114.9 309 116.7 309.6 117.1 308.8C117.5 308 115.7 307.1 115.2 306.9C113.9 306.3 113.2 304.1 113 302.8C112.6 300.8 113.1 298.8 114.2 297C116.6 293.3 121.4 291.6 125.6 292.7C127.5 293.2 129.4 294.2 130.8 295.6C132.6 297.4 133 299.9 132.9 302.3C132.6 306.7 130.3 311 127.1 314C120.5 320.1 109.7 321.4 101.9 316.9C94 312.4 90.3 302.1 94.8 293.9C97.2 289.6 101.2 286.6 105.5 284.3C107.8 283.1 110.2 282 112.8 281.4C115 280.9 117.9 280.4 120.1 281.5C120.8 281.9 122.4 282.7 123.2 282.1C124 281.5 122.6 280.6 122.1 280.3Z" fill="white"/>
</g>
<mask id="mask42_201_718" style="mask-type:luminance" maskUnits="userSpaceOnUse" x="51" y="51" width="398" height="398">
<path d="M250 448.5C359.629 448.5 448.5 359.629 448.5 250C448.5 140.371 359.629 51.5 250 51.5C140.371 51.5 51.5 140.371 51.5 250C51.5 359.629 140.371 448.5 250 448.5Z" fill="white"/>
</mask>
<g mask="url(#mask42_201_718)">
<path d="M115.3 326.4C105 322.5 92.4 325.2 85 333.5C83.1 335.6 81.5 338.1 80.7 340.9C79.7 344.2 80.5 347.2 82.5 349.9C86.2 354.7 91.7 358.4 97 361C102.5 363.7 108.6 365.3 114.7 365.7C120.9 366.1 127.9 365.7 133.5 362.7C138.7 359.9 141.9 354.7 142.5 348.8C142.8 346 142.6 342.9 141.5 340.3C140.4 337.5 138.1 335.6 135.2 334.7C131.9 333.6 128.4 333.8 125 334.3C122.2 334.7 119 335.5 116.9 337.6C114.8 339.7 114.5 342.8 116.1 345.3C117.8 348 120.9 349.7 123.8 350.7C124.8 351.1 126.4 351.3 127.2 350.5C128 349.8 127.3 348.9 126.4 348.6C123 347.4 117.5 343.6 120.8 339.5C122.1 338 124.2 337.4 126.1 337C128.1 336.6 130.3 336.4 132.3 336.8C137.2 337.9 137.8 344.3 137.4 348.4C136.9 353.1 134.6 357.7 130.5 360.2C126.3 362.8 120.7 363.3 115.8 363C110.8 362.8 106 361.6 101.4 359.6C96.8 357.6 92.5 354.7 89 351.2C87.2 349.4 85.3 347.3 85.1 344.6C84.9 341.9 86.2 339.3 87.7 337.1C92.9 329.3 103.6 325.1 112.6 328.5C113.6 328.9 115.2 329.1 116 328.3C116.9 327.5 116.1 326.7 115.3 326.4Z" fill="white"/>
</g>
<mask id="mask43_201_718" style="mask-type:luminance" maskUnits="userSpaceOnUse" x="51" y="51" width="398" height="398">
<path d="M250 448.5C359.629 448.5 448.5 359.629 448.5 250C448.5 140.371 359.629 51.5 250 51.5C140.371 51.5 51.5 140.371 51.5 250C51.5 359.629 140.371 448.5 250 448.5Z" fill="white"/>
</mask>
<g mask="url(#mask43_201_718)">
<path d="M174.8 306.3C165.2 300.4 152.2 305.9 143.8 311.6C139.6 314.5 136.3 318.2 135.9 323.4C135.7 326.2 136.2 329.1 136.9 331.8C137.5 334.3 138.5 336.7 140.2 338.7C143.6 342.6 149.4 344.1 154.3 345.1C159.8 346.2 165.6 346.5 171.1 345.4C175.9 344.4 181 342.3 182.6 337.2C183.3 334.9 183.5 332.3 183.6 329.8C183.7 327.3 183.1 325 181.3 323.2C179.5 321.4 177 320.5 174.6 319.9C171.5 319.2 168.3 318.9 165.1 318.9C161.8 318.9 158.3 319.2 155.2 320.4C153.1 321.3 150.1 323.6 151.9 326.1C152.7 327.3 157.1 325.4 156.7 324.9C156.2 324.2 156.1 323.3 156.4 322.5C156.6 322 156.8 321.7 157.2 321.4C157.5 321.1 157.4 321.2 157.8 321.1C160 320.6 162.5 320.6 164.7 320.7C168.6 320.9 173.2 321.5 176.2 324.2C179.5 327.2 178.8 332.5 178 336.4C177.3 340 175.1 342.8 171.4 343.5C167 344.3 162.3 343.9 157.9 343C153.7 342.2 149.2 340.9 145.9 338.1C142.4 335.1 141.3 330.3 140.8 326C140.2 321.5 141.2 317.3 144.5 314C147.7 310.8 152.2 308.5 156.3 306.9C160.9 305.2 165.9 305.1 170.1 307.7C170.9 308.2 172.4 307.7 173.2 307.5C173.6 307.6 175.5 306.8 174.8 306.3Z" fill="white"/>
</g>
<mask id="mask44_201_718" style="mask-type:luminance" maskUnits="userSpaceOnUse" x="51" y="51" width="398" height="398">
<path d="M250 448.5C359.629 448.5 448.5 359.629 448.5 250C448.5 140.371 359.629 51.5 250 51.5C140.371 51.5 51.5 140.371 51.5 250C51.5 359.629 140.371 448.5 250 448.5Z" fill="white"/>
</mask>
<g mask="url(#mask44_201_718)">
<path d="M82.9 299.5C80.1 297.3 76.4 298.3 73.4 299.5C69.6 301 65.8 302.8 62.4 305.2C59.7 307.1 56 310.1 56.5 313.9C57 317.5 60.6 320.3 63.4 322.1C69.2 325.7 76.5 326.6 83 324.5C86.3 323.5 90.4 321.5 92.2 318.4C94.1 315.1 92 311.4 89.3 309.4C87.7 308.1 85.7 306.9 83.7 306.3C81.4 305.5 79.2 306.4 77.2 307.7C75.5 308.8 73.9 310.1 73.4 312.2C72.9 314.4 73.6 316.6 74.5 318.6C74.7 319.1 79.2 316.8 78.9 316.1C78.3 314.8 77.8 313.4 77.7 311.9C77.6 311.2 77.7 310.4 77.9 309.7C78.1 308.9 78.6 308.4 79 307.8C78.5 308.1 78 308.4 77.4 308.7C77.7 308.7 78.1 308.7 78.4 308.7C78.7 308.7 79 308.8 79.3 308.9C80.1 309.1 80.9 309.5 81.7 309.9C83 310.6 84.4 311.4 85.5 312.4C87.6 314.2 89.4 317 88.4 319.8C88.2 320.3 88 320.8 87.6 321.3C87.4 321.5 87.3 321.7 87.1 321.9C87 322 87 322 86.9 322.1C86.6 322.3 86.7 322.3 87.2 322C87.1 322.3 86.2 322.4 85.9 322.5C85.2 322.7 84.4 322.9 83.7 323C78.6 323.9 73 322.8 68.5 320.3C66.2 319 63.9 317.2 62.4 315.1C61.6 314 61 312.7 60.9 311.4C60.8 309.7 61.7 308.2 62.8 307C64.8 304.8 67.5 303.5 70.2 302.4C72.9 301.3 76.2 300.4 78.7 302.4C79.2 302.8 80.7 301.8 81.1 301.6C81.1 301 83.1 299.7 82.9 299.5Z" fill="white"/>
</g>
<mask id="mask45_201_718" style="mask-type:luminance" maskUnits="userSpaceOnUse" x="51" y="51" width="398" height="398">
<path d="M250 448.5C359.629 448.5 448.5 359.629 448.5 250C448.5 140.371 359.629 51.5 250 51.5C140.371 51.5 51.5 140.371 51.5 250C51.5 359.629 140.371 448.5 250 448.5Z" fill="white"/>
</mask>
<g mask="url(#mask45_201_718)">
<path d="M233.8 332.7C224.8 324.5 210.2 325.2 199.1 327.7C196.3 328.3 193.5 329.3 191.2 331C188.9 332.7 187.3 335.2 186.4 337.9C185.4 340.8 185.1 343.8 184.8 346.8C184.5 349.9 184.4 353.1 185.6 356C186.8 358.8 189.2 360.8 191.7 362.3C194.6 364.1 197.7 365.6 200.8 366.9C204.1 368.3 207.6 369.4 211.1 370.3C214.5 371.1 218.3 372.1 221.7 370.9C227.2 369 230.2 362.8 230.2 357.3C230.2 351.5 227.2 346.4 222.5 343.2C219.5 341.2 216.2 339.9 212.6 339.2C209.5 338.6 206.2 338.4 203.3 339.5C200.7 340.4 198.4 342.5 198.7 345.5C199 348.7 201.4 351.3 202.5 354.3C202.8 355.1 204.7 355.4 205.4 355.5C205.7 355.6 207.6 355.8 207.3 355.1C205.9 351.2 200.8 345.8 205.5 342.2C208.9 339.6 213.7 340.3 217.2 342.3C221.5 344.7 224.5 349 225.2 353.9C225.9 358.7 224.4 364 220.7 367.3C218.5 369.2 216.1 370 213.2 369.4C210.4 368.8 207.5 368 204.8 366.9C202.1 365.9 199.5 364.7 197 363.3C194.7 362 192.4 360.5 191 358.3C189.5 355.9 189.2 353.1 189.4 350.4C189.5 347.8 189.8 345.1 190.3 342.6C190.8 340.1 191.5 337.5 193 335.4C194.4 333.3 196.5 331.9 198.8 330.9C201.4 329.8 204.2 329.3 207 328.8C209.8 328.4 212.6 328.1 215.4 328C220.6 327.9 225.5 328.8 229.4 332.4C230.2 333.1 231.6 333.4 232.7 333.5C233.1 333.5 234.5 333.4 233.8 332.7Z" fill="white"/>
</g>
<mask id="mask46_201_718" style="mask-type:luminance" maskUnits="userSpaceOnUse" x="51" y="51" width="398" height="398">
<path d="M250 448.5C359.629 448.5 448.5 359.629 448.5 250C448.5 140.371 359.629 51.5 250 51.5C140.371 51.5 51.5 140.371 51.5 250C51.5 359.629 140.371 448.5 250 448.5Z" fill="white"/>
</mask>
<g mask="url(#mask46_201_718)">
<path d="M186.3 359.1C179.8 355.4 172.5 352.8 164.9 352.9C158.6 353 152 355.3 147.5 359.8C142.4 364.9 140.3 372.7 140 379.7C139.7 387 143.5 393.6 149.3 397.9C155.3 402.3 162.6 403.7 169.9 404.2C176 404.6 182.9 404.5 188.1 400.7C193.3 396.9 194.8 390.1 193.4 384.1C191.9 377.4 186.9 372 181 368.7C178.1 367.1 174.9 365.9 171.6 365.5C167.9 365 165.3 367.5 163.8 370.7C160.9 377 164 384.5 169.6 388.3C171 389.2 172.4 389.9 174 390.3C175.1 390.6 174.9 389.3 174.7 388.7C174.3 387.7 173.4 386.5 172.3 386.3C170.1 385.8 168.1 384.5 167.1 382.5C165.9 380.2 166.2 377.3 167.1 375C168.2 372.3 170.5 369.4 173.7 369.8C176.5 370.2 179.2 371.2 181.7 372.4C186.2 374.8 189.6 378.5 190.4 383.7C191.1 389 189 394.4 184.5 397.4C179.9 400.4 173.9 400.6 168.6 400.3C162.5 399.9 155.9 399 150.6 395.7C148.6 394.4 146.7 392.8 145.5 390.7C144 388.2 143.7 385.3 143.8 382.4C144.1 376.3 145.9 369.3 150.1 364.7C154.3 360.1 160.4 357.6 166.5 357.3C173.9 356.9 181.1 359.4 187.5 363C188.4 363.5 188.9 362.9 188.7 362C188.3 360.8 187.3 359.6 186.3 359.1Z" fill="white"/>
</g>
<mask id="mask47_201_718" style="mask-type:luminance" maskUnits="userSpaceOnUse" x="51" y="51" width="398" height="398">
<path d="M250 448.5C359.629 448.5 448.5 359.629 448.5 250C448.5 140.371 359.629 51.5 250 51.5C140.371 51.5 51.5 140.371 51.5 250C51.5 359.629 140.371 448.5 250 448.5Z" fill="white"/>
</mask>
<g mask="url(#mask47_201_718)">
<path d="M135.7 373.3C127.3 369.6 116.6 369.9 109.9 376.8C107 379.8 105.1 383.7 104.8 387.9C104.4 392.7 106.5 397.3 109.3 401.1C112.2 404.9 115.8 408.2 119.9 410.6C121.9 411.7 123.9 412.7 126.1 413.4C128.2 414.1 130.5 414.8 132.7 414.8C135.2 414.8 136.6 413 137.9 411.1C139.2 409.2 140.2 407.2 140.8 405C142 400.6 141.6 395.9 139.4 391.9C137 387.5 132.9 383.8 127.9 382.7C125.8 382.2 123.4 382.2 122.3 384.4C121.4 386.3 122 388.8 122.6 390.6C123 391.7 123.9 392.8 125 393.2C125.9 393.5 126.7 393 126.3 392C125.9 390.7 125.5 389.2 125.9 387.9C126.5 386.2 128.2 386.3 129.6 386.7C132.5 387.4 134.9 389.4 136.3 392C137.9 395.2 137.9 399 136.9 402.5C136.4 404.3 135.5 406.1 134.5 407.6C133.4 409.2 132.2 411 130 410.7C123 409.9 116 406 111.9 400.4C109.7 397.4 108.4 394 108.7 390.2C109 386.8 110.7 383.4 113 380.9C119.1 374.3 128.9 373.8 136.7 377.2C137.7 377.6 138.2 376.9 138 376C137.8 374.8 136.8 373.8 135.7 373.3Z" fill="white"/>
</g>
<mask id="mask48_201_718" style="mask-type:luminance" maskUnits="userSpaceOnUse" x="51" y="51" width="398" height="398">
<path d="M250 448.5C359.629 448.5 448.5 359.629 448.5 250C448.5 140.371 359.629 51.5 250 51.5C140.371 51.5 51.5 140.371 51.5 250C51.5 359.629 140.371 448.5 250 448.5Z" fill="white"/>
</mask>
<g mask="url(#mask48_201_718)">
<path d="M276.6 342C273.6 338.3 268.6 337.7 264.1 337.6C258.7 337.5 253.2 337.6 248 339C243.2 340.3 238.7 342.8 235.6 346.8C232.7 350.7 231.2 355.6 232.5 360.4C233.9 365.5 238 369.2 242.2 372.2C246.6 375.4 251.6 378.3 256.8 379.9C259.5 380.8 262.3 381.1 265.2 380.7C267.9 380.3 270.6 379.4 273.1 378.3C275.5 377.3 277.7 376 279.1 373.8C280.5 371.6 281 368.9 280.9 366.4C280.8 360.9 278.1 355.4 273.5 352.2C268.9 349 262.6 348.6 257.8 351.5C255.3 353 257.8 357.3 260.3 355.8C263.4 354 267.5 354 270.6 355.8C273.7 357.6 275.6 360.9 276.1 364.5C276.3 366.3 276.3 368.3 275.5 370C274.7 371.8 273.1 372.8 271.3 373.6C267.3 375.4 262.8 376.7 258.4 375.5C254 374.3 249.8 372 246.1 369.5C242.8 367.3 239.1 364.7 237.3 361C233.8 353.9 240.8 346.6 247.1 344.3C252 342.6 257.1 342.4 262.2 342.4C265.9 342.4 270.8 342 273.3 345.2C274.1 346.2 275.7 346.2 276.5 345.3C277.7 344.4 277.4 343 276.6 342Z" fill="white"/>
</g>
<mask id="mask49_201_718" style="mask-type:luminance" maskUnits="userSpaceOnUse" x="51" y="51" width="398" height="398">
<path d="M250 448.5C359.629 448.5 448.5 359.629 448.5 250C448.5 140.371 359.629 51.5 250 51.5C140.371 51.5 51.5 140.371 51.5 250C51.5 359.629 140.371 448.5 250 448.5Z" fill="white"/>
</mask>
<g mask="url(#mask49_201_718)">
<path d="M241.1 377.8C238 375.1 233.5 375.2 229.6 375.4C225 375.7 220.4 376.4 216.3 378.4C209.1 381.9 203.4 388.9 202.4 397C201.9 401.2 202.5 405.4 204.3 409.2C206 412.9 208.8 416 212 418.4C218.9 423.7 227.5 427 236 428.6C244.7 430.2 254.4 430.6 261.6 424.8C267.7 419.9 270.5 411.5 268.4 403.9C266.2 395.9 259.8 389.9 252.1 387.3C248.2 386 243.6 385 239.5 385.7C235 386.5 231.5 389.9 228.5 393C226.9 394.6 225.4 396.3 224 398C222.7 399.6 221.1 401.5 221.3 403.7C221.6 407.6 226.2 410.4 229.5 411.5C234 413 238.7 412.7 243.3 412.4C245.5 412.2 247.7 411.9 249.6 410.6C251.1 409.6 252.4 407.9 252.7 406.1C253 404.5 252.7 402.9 251.6 401.7C250.4 400.3 246.3 403.2 247.4 404.5C248.2 405.5 248.6 406.8 248.2 408C248.1 408.5 247.6 408.8 248.1 408.5C247.4 408.8 246.6 408.8 245.9 408.9C241.9 409.2 237.8 409.5 233.8 408.5C230.8 407.7 227.5 405.8 226 402.9C225 401 226.3 399.6 227.5 398.2C228.6 396.8 229.8 395.5 231 394.2C232.3 392.9 233.7 391.6 235.1 390.4C236.4 389.4 237.7 389 239.4 389C242.9 388.9 246.5 389.8 249.7 391C256.2 393.6 261.7 398.7 263.7 405.4C265.5 411.3 264.5 418.4 259.8 422.7C254.6 427.5 246 426.4 239.6 425.3C232.2 424 225 421.3 218.7 417.4C212.6 413.6 207.7 408.2 206.7 400.9C205.8 394.3 208.1 387.6 213.2 383.3C215.7 381.2 218.9 380.1 222.1 379.5C225.6 378.9 229.4 378.5 232.9 379.1C234.6 379.4 236.1 380 237.4 381.1C238.7 382.1 242.7 379.1 241.1 377.8Z" fill="white"/>
</g>
<mask id="mask50_201_718" style="mask-type:luminance" maskUnits="userSpaceOnUse" x="51" y="51" width="398" height="398">
<path d="M250 448.5C359.629 448.5 448.5 359.629 448.5 250C448.5 140.371 359.629 51.5 250 51.5C140.371 51.5 51.5 140.371 51.5 250C51.5 359.629 140.371 448.5 250 448.5Z" fill="white"/>
</mask>
<g mask="url(#mask50_201_718)">
<path d="M199.9 408C196.3 405.9 192 405.3 188 404.4C183.6 403.5 179.2 402.7 174.7 402.7C167.6 402.7 160.2 405.1 155.5 410.7C150.5 416.7 151 424.7 154.7 431.3C158.6 438.4 165.3 443.1 172.6 446.2C180.2 449.4 188.5 451.2 196.8 451.4C201 451.5 205.2 451.2 209.3 450.4C212.4 449.8 215.9 449 218.3 446.8C224.5 440.8 217.5 431.6 212.8 427.2C207.1 421.9 199.6 416.9 191.7 415.8C188.2 415.3 184.4 415.9 181.4 417.8C178.6 419.6 175.9 423 176.7 426.5C177.6 430.6 181.2 433.5 184.7 435.3C188 437 192.2 438.1 195.9 437.7C197.5 437.5 198.9 437 199.7 435.6C200.4 434.5 197.3 430.7 196.6 431.9C194.9 434.5 189.9 433.5 187.4 432.9C185.9 432.5 184.3 432 182.9 431.2C182.2 430.8 181.4 430.4 180.8 429.9C180.5 429.7 180.2 429.5 180 429.3C179.9 429.2 179.7 429.1 179.6 428.9C179.7 429.1 179.7 429.1 179.7 428.9C179.1 425.9 182.1 423.1 184.4 421.7C187.1 420.1 190.3 419.6 193.5 419.9C200.4 420.7 207.2 424.9 212.2 429.5C214.3 431.4 216.7 433.5 217.3 436.4C218 439.4 216.5 442.1 214 443.7C211.5 445.3 208.4 445.9 205.5 446.3C201.8 446.9 198.1 447.1 194.4 447C187.2 446.8 180 445.5 173.3 442.9C167.4 440.7 160.8 437.5 157.4 432C154.1 426.7 154.4 419.9 158.2 415C162.6 409.4 169.7 407 176.6 406.9C180.9 406.8 185.2 407.5 189.4 408.4C193.5 409.3 198 409.9 201.6 412C202.6 412.6 202.3 411 202.1 410.6C201.6 409.6 200.9 408.6 199.9 408Z" fill="white"/>
</g>
<mask id="mask51_201_718" style="mask-type:luminance" maskUnits="userSpaceOnUse" x="51" y="51" width="398" height="398">
<path d="M250 448.5C359.629 448.5 448.5 359.629 448.5 250C448.5 140.371 359.629 51.5 250 51.5C140.371 51.5 51.5 140.371 51.5 250C51.5 359.629 140.371 448.5 250 448.5Z" fill="white"/>
</mask>
<g mask="url(#mask51_201_718)">
<path d="M323.2 367C311.4 364.2 300 358.6 287.5 360.5C277.9 362 267.3 369.3 267.8 380.1C268.3 390.7 277.7 399 286.1 404.2C295.1 409.8 305.4 412.9 315.8 414.7C327.2 416.7 339.5 417.2 350 411.6C354.5 409.2 359.3 405.4 361.3 400.5C363.4 395.2 360.5 390.6 356.6 387.1C348.5 380 338.3 375.2 327.8 373.1C322.5 372 316.9 371.6 311.5 372.1C305.9 372.6 300.6 374.6 297.1 379.2C295.6 381.2 294.5 383.5 293.7 385.9C293 388.2 292.2 391.1 293.9 393.2C295.4 395 298.2 395.6 300.3 396.2C303.3 397.1 306.3 397.8 309.4 398.3C314.5 399.2 320.4 400.5 325.3 398.3C327.4 397.4 329.3 395.7 329.9 393.4C330.4 391.5 329.7 389.4 328.5 387.9C327.2 386.3 325.2 385.5 323.2 385.5C322.1 385.5 320.6 386 320.1 387.1C319.7 388.1 320.6 388.7 321.6 388.7C324.5 388.6 326.5 393.3 324.4 395.3C323.4 396.2 321.8 396.3 320.4 396.2C318 396.2 315.7 395.7 313.3 395.3C310.6 394.8 308 394.3 305.3 393.6C303.3 393.1 300.7 392.7 298.9 391.4C297 390 297.8 387.4 298.3 385.5C298.9 383.5 299.8 381.5 301.1 379.9C302.3 378.4 303.7 377 305.5 376.2C307.6 375.3 310.1 375.1 312.4 375C317 374.9 321.6 375.3 326.2 376.3C335.4 378.3 344.2 382.5 351.4 388.5C354.7 391.2 358.3 395 357 399.6C355.9 403.7 351.8 407.1 348.2 409C339.4 413.9 328.9 413.2 319.3 411.6C310.3 410.1 301.3 407.6 293.2 403.2C285.4 399.1 277.3 392.8 273.9 384.4C272.2 380.3 272.1 375.8 274.3 371.8C276.1 368.5 279.3 365.8 282.9 364.5C292.6 360.9 303.3 364.9 312.7 367.8C315.3 368.6 317.9 369.4 320.5 370C321.6 370.3 323.1 369.8 323.9 368.9C324.6 368.1 324.3 367.3 323.2 367Z" fill="white"/>
</g>
<mask id="mask52_201_718" style="mask-type:luminance" maskUnits="userSpaceOnUse" x="51" y="51" width="398" height="398">
<path d="M250 448.5C359.629 448.5 448.5 359.629 448.5 250C448.5 140.371 359.629 51.5 250 51.5C140.371 51.5 51.5 140.371 51.5 250C51.5 359.629 140.371 448.5 250 448.5Z" fill="white"/>
</mask>
<g mask="url(#mask52_201_718)">
<path d="M407.5 366.5C393.7 364 377.1 370.8 371.5 384.2C370.1 387.5 369.5 391.2 370.1 394.7C370.7 398.1 372.7 401.2 375.3 403.3C381.2 408.1 389.4 409.9 396.8 411.1C405.5 412.6 414.3 413 423 413.1C427.1 413.1 431.8 413.5 435.3 411.1C438.1 409.2 439.4 405.9 440.2 402.7C442.1 395.9 444.1 387.9 441 381.1C437.7 374 429.5 371.1 422.1 371.6C417.7 371.9 413.3 373.1 409.3 374.9C406.3 376.3 403.2 378.2 401.6 381.2C399.9 384.3 400.7 388 402.6 390.8C404.7 393.9 408.1 395.7 411.6 396.9C413.4 397.5 415.3 398 417.2 398.5C418.3 398.8 419.7 398.6 420.7 398C421.5 397.5 421.5 396.7 420.5 396.4C414.5 395 406.7 392.7 405.7 385.5C404.7 378.7 412.9 375.6 418.2 374.5C424.6 373.1 431.8 374.9 435.4 380.7C438.9 386.2 437.8 393.3 436.3 399.3C435.6 402.3 434.9 405.5 433.3 408.2C432.7 409.1 431.9 410.1 430.8 410.5C429.3 411.1 427.3 410.8 425.8 410.8C418.1 410.7 410.4 410.5 402.8 409.4C391.6 407.9 372.6 404.2 374.8 388.9C375.8 381.9 380.7 375.9 386.6 372.3C392.2 368.9 398.7 367.6 405.2 368.8C406.2 369 407.9 368.7 408.5 367.9C409.3 367 408.2 366.7 407.5 366.5Z" fill="white"/>
</g>
<mask id="mask53_201_718" style="mask-type:luminance" maskUnits="userSpaceOnUse" x="51" y="51" width="398" height="398">
<path d="M250 448.5C359.629 448.5 448.5 359.629 448.5 250C448.5 140.371 359.629 51.5 250 51.5C140.371 51.5 51.5 140.371 51.5 250C51.5 359.629 140.371 448.5 250 448.5Z" fill="white"/>
</mask>
<g mask="url(#mask53_201_718)">
<path d="M308.6 412.1C291.4 409.4 273.4 412.4 258 420.6C255.2 422.1 250.4 424.3 250 428C249.8 429.9 250.9 431.5 252 432.9C253.3 434.5 254.7 436 256.1 437.5C261.6 443.5 267.9 448.8 275.2 452.6C282.9 456.6 291.5 458.6 300.2 457.6C309.5 456.5 318.2 452.7 326.6 448.9C329.8 447.4 333.9 445.7 334.8 441.9C335.7 438 333.5 434.3 330.6 431.9C327.2 429 322.9 427.3 318.9 425.5C314.5 423.6 310 421.8 305.2 421C298.1 419.8 289.8 421.1 285 427C282.7 429.9 281.2 434.2 283.4 437.5C285.6 441 290.6 442.6 294.5 442.6C296.8 442.6 299 442 301.1 441.4C301.9 441.2 300 439.9 299.8 439.9C299 439.5 297.7 438.9 296.8 439.2C294.2 440 289.8 441.6 287.8 438.8C285.7 435.8 287.4 431.6 289.4 429.1C293.5 423.9 300.9 422.2 307.2 423.3C311.1 423.9 314.8 425.4 318.4 427C321.5 428.4 325.1 429.7 327.5 432.2C329.9 434.6 331.1 438.6 329.3 441.7C327.5 444.7 323.7 446 320.7 447.4C313.2 450.8 305.4 454.1 297.2 455.2C290.1 456.1 283.1 455.1 276.7 451.8C270.5 448.6 265.2 443.9 260.4 438.8C259.2 437.5 258 436.1 256.8 434.8C255.7 433.5 254.3 432 254.3 430.2C254.4 426.8 258.5 424.8 261 423.4C274.4 416 290 412.5 305.3 413.8C307.2 414 309.2 414.2 311.1 414.5C312 414.6 312.1 414.1 311.5 413.5C311 412.6 309.8 412.2 308.6 412.1Z" fill="white"/>
</g>
</g>
<defs>
<clipPath id="clip0_201_718">
<rect width="500" height="500" fill="white"/>
</clipPath>
</defs>
</svg>
