<svg width="500" height="500" viewBox="0 0 500 500" fill="none" xmlns="http://www.w3.org/2000/svg">
<g clip-path="url(#clip0_201_663)">
<mask id="mask0_201_663" style="mask-type:luminance" maskUnits="userSpaceOnUse" x="51" y="51" width="398" height="398">
<path d="M250 448.5C359.629 448.5 448.5 359.629 448.5 250C448.5 140.371 359.629 51.5 250 51.5C140.371 51.5 51.5 140.371 51.5 250C51.5 359.629 140.371 448.5 250 448.5Z" fill="white"/>
</mask>
<g mask="url(#mask0_201_663)">
<path d="M50.5001 96.8999C54.6001 121.9 58.7001 147 66.5001 171.2C74.2001 195.1 85.7001 217.5 96.1001 240.3C106.4 263 114.8 286.3 121.3 310.4C127.8 334.4 132.5 358.8 136.2 383.4C139.9 407.9 142.7 432.6 145.3 457.3C145.6 460.4 145.9 463.4 146.2 466.5C146.4 468.2 151.4 468.1 151.2 466.6C148.7 441.9 146.1 417.2 142.5 392.7C139 368.1 134.6 343.6 128.5 319.5C122.5 295.6 114.9 272.2 105.1 249.6C95.1001 226.6 83.4001 204.4 74.7001 180.8C65.8001 156.8 61.0001 131.6 56.9001 106.4C56.4001 103.3 55.9001 100.1 55.4001 96.9999C55.2001 95.2999 50.3001 95.4999 50.5001 96.8999Z" fill="white"/>
</g>
<mask id="mask1_201_663" style="mask-type:luminance" maskUnits="userSpaceOnUse" x="51" y="51" width="398" height="398">
<path d="M250 448.5C359.629 448.5 448.5 359.629 448.5 250C448.5 140.371 359.629 51.5 250 51.5C140.371 51.5 51.5 140.371 51.5 250C51.5 359.629 140.371 448.5 250 448.5Z" fill="white"/>
</mask>
<g mask="url(#mask1_201_663)">
<path d="M29.1999 194.6C38.9999 217.5 55.9999 236.1 74.1999 252.7C92.9999 269.8 113.2 285.4 131.4 303.1C150.1 321.2 167.3 340.8 182.9 361.5C198.5 382.2 212.4 404.1 224.6 427C236.9 450 247.4 473.9 255.9 498.5C256.9 501.5 258 504.5 258.9 507.6C259.5 509.5 264.4 508.5 263.8 506.8C255.8 482 245.8 457.9 234 434.7C222.2 411.5 208.6 389.1 193.3 368C178.1 346.9 161.2 327 143 308.6C133.9 299.4 124.5 290.6 114.7 282.2C105.2 274 95.4999 266 85.9999 257.7C67.3999 241.5 49.3999 223.8 37.7999 201.7C36.3999 198.9 34.9999 196.1 33.7999 193.3C33.0999 191.6 28.2999 192.6 29.1999 194.6Z" fill="white"/>
</g>
<mask id="mask2_201_663" style="mask-type:luminance" maskUnits="userSpaceOnUse" x="51" y="51" width="398" height="398">
<path d="M250 448.5C359.629 448.5 448.5 359.629 448.5 250C448.5 140.371 359.629 51.5 250 51.5C140.371 51.5 51.5 140.371 51.5 250C51.5 359.629 140.371 448.5 250 448.5Z" fill="white"/>
</mask>
<g mask="url(#mask2_201_663)">
<path d="M85.1001 98.8001C86.8001 129.4 101.5 157.2 119.6 181.3C139 207.2 162.2 230.2 184.6 253.3C208.4 277.8 232.4 302.3 254.5 328.4C275.4 353.1 294.5 379.3 309.8 407.8C324.6 435.3 335.8 465 340.8 495.9C341.4 499.8 341.9 503.7 342.4 507.6C342.5 508.4 344 509.4 344.6 509.8C344.8 509.9 346.3 511 346.2 510.6C342.8 479.3 332.9 449.2 318.9 421.1C304.9 392.9 287.1 366.7 267.4 342.3C246 315.8 222.5 291.2 198.8 266.7C175.8 243 152 219.7 131.1 194.1C111.9 170.6 94.8001 143.7 90.0001 113.2C89.4001 109.4 89.0001 105.7 88.8001 101.8C88.8001 101.1 87.2001 100 86.6001 99.6001C86.6001 99.5001 85.1001 98.4001 85.1001 98.8001Z" fill="white"/>
</g>
<mask id="mask3_201_663" style="mask-type:luminance" maskUnits="userSpaceOnUse" x="51" y="51" width="398" height="398">
<path d="M250 448.5C359.629 448.5 448.5 359.629 448.5 250C448.5 140.371 359.629 51.5 250 51.5C140.371 51.5 51.5 140.371 51.5 250C51.5 359.629 140.371 448.5 250 448.5Z" fill="white"/>
</mask>
<g mask="url(#mask3_201_663)">
<path d="M125.5 75.2001C133.3 112 141.1 148.7 150.3 185.2C159.4 221.6 169.9 257.6 182.9 292.8C194.7 324.5 208.6 355.5 225.4 384.9C241.2 412.5 259.4 438.8 280.5 462.7C301.5 486.6 325.3 508.1 351.7 525.8C354.9 528 358.2 530.1 361.5 532.1C362.3 532.6 363.6 532.6 364.6 532.6C364.8 532.6 366.8 532.3 366.4 532.1C339.5 515.4 315.1 494.8 293.4 471.6C271.5 448.1 252.5 422.1 236 394.6C218.9 366.1 204.6 336 192.5 305C178.9 270.2 168 234.4 158.6 198.3C149.2 162.1 141.2 125.5 133.4 88.8001C132.4 84.3001 131.5 79.9001 130.6 75.4001C130.3 74.4001 125.5 74.8001 125.5 75.2001Z" fill="white"/>
</g>
<mask id="mask4_201_663" style="mask-type:luminance" maskUnits="userSpaceOnUse" x="51" y="51" width="398" height="398">
<path d="M250 448.5C359.629 448.5 448.5 359.629 448.5 250C448.5 140.371 359.629 51.5 250 51.5C140.371 51.5 51.5 140.371 51.5 250C51.5 359.629 140.371 448.5 250 448.5Z" fill="white"/>
</mask>
<g mask="url(#mask4_201_663)">
<path d="M139.8 35.4C151.7 71.5 166.6 107 188.8 138.1C209.7 167.5 236.4 192.1 263.3 215.9C290.3 239.9 317.3 263.7 340.7 291.3C363.7 318.4 383.7 348.2 400.1 379.8C416.5 411.4 429.4 444.9 438.3 479.3C439.4 483.5 440.4 487.7 441.4 491.9C441.6 492.9 442.3 494.3 443.2 494.9C443.9 495.4 444.5 495.3 444.3 494.3C436.4 459.8 424.6 426.3 409.4 394.4C394.1 362.3 375.3 331.9 353.4 303.8C342.5 289.9 330.9 276.5 318.5 263.8C305.9 250.9 292.5 238.7 279 226.6C251.9 202.4 224 178.7 200.9 150.5C176.3 121 159.7 86.2 146.9 50C145.3 45.6 143.9 41.2 142.4 36.8C142.1 36 141.3 34.2 140.4 34C139.4 33.8 139.6 34.7 139.8 35.4Z" fill="white"/>
</g>
<mask id="mask5_201_663" style="mask-type:luminance" maskUnits="userSpaceOnUse" x="51" y="51" width="398" height="398">
<path d="M250 448.5C359.629 448.5 448.5 359.629 448.5 250C448.5 140.371 359.629 51.5 250 51.5C140.371 51.5 51.5 140.371 51.5 250C51.5 359.629 140.371 448.5 250 448.5Z" fill="white"/>
</mask>
<g mask="url(#mask5_201_663)">
<path d="M183.5 18.7999C207.8 43.7999 224.9 74.7999 237.4 107.1C250.4 141 258.5 176.4 266.5 211.7C275 249.4 283.3 287.4 297.5 323.4C310.4 356.2 328.4 386.5 350.8 413.8C372.6 440.4 398.2 463.9 426.2 484C429.6 486.4 433 488.8 436.5 491.2C438.9 492.8 441.8 489.1 439.2 487.4C410.7 468 384.4 445.2 361.7 419.3C338.9 393.2 319.9 363.7 306.3 331.9C291.1 296.3 282.2 258.5 273.7 220.9C265.7 185.2 257.9 149.4 245.6 114.9C234 82.3999 218.4 51.2 195.9 24.9999C193.1 21.7999 190.2 18.5999 187.2 15.5999C185.3 13.5999 181.4 16.5999 183.5 18.7999Z" fill="white"/>
</g>
<mask id="mask6_201_663" style="mask-type:luminance" maskUnits="userSpaceOnUse" x="51" y="51" width="398" height="398">
<path d="M250 448.5C359.629 448.5 448.5 359.629 448.5 250C448.5 140.371 359.629 51.5 250 51.5C140.371 51.5 51.5 140.371 51.5 250C51.5 359.629 140.371 448.5 250 448.5Z" fill="white"/>
</mask>
<g mask="url(#mask6_201_663)">
<path d="M241.8 26.4998C265.6 44.8998 284 69.1998 298.2 95.5998C313.1 123.4 322.8 153.3 331.6 183.4C336.5 200.3 341.5 217.1 348.5 233.3C354.4 247 361.6 260.1 369.9 272.5C386.5 297.3 407.3 319 429.6 338.7C452.2 358.7 476.5 376.6 501 394.1C504 396.3 507 398.4 510 400.6C512.7 402.5 512.7 398.3 510.9 397.1C486.3 379.6 461.8 361.8 438.7 342.3C416.1 323.1 394.8 302.1 377.4 278C368.8 266 361.1 253.3 354.8 239.9C347.5 224.3 342.2 207.8 337.3 191.3C332.6 175.3 328.1 159.2 322.5 143.5C317.4 129.2 311.6 115.1 304.8 101.6C291.4 74.8998 274 49.8998 251.4 30.0998C248.6 27.6998 245.7 25.2998 242.8 22.9998C242 22.3998 240.9 22.1998 240.6 23.2998C240.1 24.3998 241 25.8998 241.8 26.4998Z" fill="white"/>
</g>
<mask id="mask7_201_663" style="mask-type:luminance" maskUnits="userSpaceOnUse" x="51" y="51" width="398" height="398">
<path d="M250 448.5C359.629 448.5 448.5 359.629 448.5 250C448.5 140.371 359.629 51.5 250 51.5C140.371 51.5 51.5 140.371 51.5 250C51.5 359.629 140.371 448.5 250 448.5Z" fill="white"/>
</mask>
<g mask="url(#mask7_201_663)">
<path d="M234.5 28.3001C239.7 54.6001 250.8 79.2001 265.1 101.8C279.9 125.1 298 146 317.3 165.6C338.2 186.7 360.6 206.4 382.3 226.7C402.7 245.8 422.6 265.5 440 287.4C456.7 308.4 471.1 331.4 480.6 356.5C481.8 359.6 482.9 362.7 483.9 365.9C484.7 368.5 489.5 366.8 488.6 364.2C480.4 338.6 467 315 451 293.5C434.5 271.3 415.3 251.3 395.3 232.2C373.8 211.7 351.3 192.1 330.1 171.3C310.2 151.9 291.3 131.3 275.5 108.3C260.4 86.3001 248.1 62.2001 241.5 36.2001C240.7 33.0001 240 29.8001 239.3 26.6001C238.6 24.0001 233.9 25.6001 234.5 28.3001Z" fill="white"/>
</g>
<mask id="mask8_201_663" style="mask-type:luminance" maskUnits="userSpaceOnUse" x="51" y="51" width="398" height="398">
<path d="M250 448.5C359.629 448.5 448.5 359.629 448.5 250C448.5 140.371 359.629 51.5 250 51.5C140.371 51.5 51.5 140.371 51.5 250C51.5 359.629 140.371 448.5 250 448.5Z" fill="white"/>
</mask>
<g mask="url(#mask8_201_663)">
<path d="M306.3 25.3001C320 41.6001 328.7 61.3001 336 81.1001C343.4 101.3 349.5 122 358.7 141.4C367.6 160.4 379.9 177.3 395 191.9C410 206.4 427.3 218.5 445.2 229.2C463.5 240 482.6 249.4 501.7 258.5C504 259.6 506.4 260.7 508.7 261.8C509.3 262.1 510.6 261.4 511.1 261.1C511.3 261 513.3 259.7 513.2 259.7C494 250.6 474.7 241.4 456.2 230.9C437.9 220.5 420.3 208.8 404.7 194.7C389.2 180.8 376 164.5 366.4 146C356.5 127 350.2 106.4 343.1 86.2001C336.1 66.3001 328.2 46.4001 315.7 29.3001C314.1 27.2001 312.5 25.1001 310.8 23.1001C310.2 22.5001 306.1 25.2001 306.3 25.3001Z" fill="white"/>
</g>
<mask id="mask9_201_663" style="mask-type:luminance" maskUnits="userSpaceOnUse" x="51" y="51" width="398" height="398">
<path d="M250 448.5C359.629 448.5 448.5 359.629 448.5 250C448.5 140.371 359.629 51.5 250 51.5C140.371 51.5 51.5 140.371 51.5 250C51.5 359.629 140.371 448.5 250 448.5Z" fill="white"/>
</mask>
<g mask="url(#mask9_201_663)">
<path d="M296.4 52.4998C301.1 67.9998 306 83.4998 312.5 98.2998C318.7 112.8 326.4 126.8 336.8 138.8C341.9 144.7 347.6 150 353.9 154.6C361.3 159.9 369.4 164.1 377.9 167.5C394.7 174.3 412.6 178.1 429.3 185.2C443.7 191.4 457.8 200.3 466.2 213.9C467.2 215.6 468.2 217.3 469 219.1C469.5 220.1 470.7 220.6 471.8 220.7C472.3 220.7 474.3 220.5 473.9 219.5C467.1 204.6 453.9 194.1 439.6 186.8C423.7 178.7 406.3 174.5 389.4 168.8C380.7 165.8 372.2 162.4 364.3 157.7C357.4 153.6 351.2 148.6 345.6 143C334.6 131.8 326.4 118.2 319.8 104C313 89.2998 307.9 73.9998 303.1 58.4998C302.5 56.5998 301.9 54.6998 301.3 52.7998C300.7 51.1998 295.8 50.6998 296.4 52.4998Z" fill="white"/>
</g>
<mask id="mask10_201_663" style="mask-type:luminance" maskUnits="userSpaceOnUse" x="51" y="51" width="398" height="398">
<path d="M250 448.5C359.629 448.5 448.5 359.629 448.5 250C448.5 140.371 359.629 51.5 250 51.5C140.371 51.5 51.5 140.371 51.5 250C51.5 359.629 140.371 448.5 250 448.5Z" fill="white"/>
</mask>
<g mask="url(#mask10_201_663)">
<path d="M49.9002 284.8C63.2002 260.5 79.6002 237.8 99.4002 218.4C119.2 199 142.3 183.4 168.2 173.2C194.9 162.7 223.3 157.4 251.4 151.6C279.1 145.9 307.1 139.7 332.8 127.5C358.5 115.2 380.8 96.4999 397 72.9999C398.9 70.1999 400.7 67.3999 402.5 64.4999C403.2 63.3999 400.1 59.5999 399.4 60.7999C384.6 85.2999 363.4 105.5 338.3 119.1C313.1 132.8 285.1 139.7 257.2 145.6C229.4 151.5 201.1 156.3 174.2 165.7C147.8 174.9 123.9 189.2 103.3 208C82.9002 226.5 65.9002 248.5 52.0002 272.2C50.3002 275.1 48.6002 278 47.0002 281C46.2002 282.2 49.3002 285.9 49.9002 284.8Z" fill="white"/>
</g>
<mask id="mask11_201_663" style="mask-type:luminance" maskUnits="userSpaceOnUse" x="51" y="51" width="398" height="398">
<path d="M250 448.5C359.629 448.5 448.5 359.629 448.5 250C448.5 140.371 359.629 51.5 250 51.5C140.371 51.5 51.5 140.371 51.5 250C51.5 359.629 140.371 448.5 250 448.5Z" fill="white"/>
</mask>
<g mask="url(#mask11_201_663)">
<path d="M359.7 63.5998C332 74.4998 304.2 85.4998 278.2 100.2C265.5 107.4 253.1 115.5 242.1 125.1C231 134.7 222.1 146.1 213.9 158.1C197.4 182.1 180.9 206 161.9 228.1C143.5 249.4 123.1 269.1 99.9 285.1C77.5 300.5 52.5 312.6 25.9 318.6C22.6 319.4 19.3 320 16 320.6C15.2 320.7 17.9 324.4 19.2 324.2C46 319.6 71.5 308.9 94.5 294.4C118.2 279.5 139.2 260.7 158 240.1C177.5 218.6 194.7 195.2 211 171.2C219.3 159 227.4 146.6 237.8 136.1C248 125.8 259.8 117.2 272.1 109.6C297.6 93.7998 325.3 82.2998 353.1 71.1998C356.5 69.7998 360 68.4998 363.4 67.0998C363.7 66.8998 361 62.9998 359.7 63.5998Z" fill="white"/>
</g>
<mask id="mask12_201_663" style="mask-type:luminance" maskUnits="userSpaceOnUse" x="51" y="51" width="398" height="398">
<path d="M250 448.5C359.629 448.5 448.5 359.629 448.5 250C448.5 140.371 359.629 51.5 250 51.5C140.371 51.5 51.5 140.371 51.5 250C51.5 359.629 140.371 448.5 250 448.5Z" fill="white"/>
</mask>
<g mask="url(#mask12_201_663)">
<path d="M37.1998 179.9C50.4998 163.8 67.9998 151.8 86.7998 143.1C108.1 133.3 131 127.7 153.9 123C177.6 118.2 201.7 114.6 224.3 105.5C235.1 101.1 245.6 95.8998 256 90.5998C264.7 86.1998 273.4 81.6998 281.8 76.6998C298.2 66.7998 313.9 54.6998 323.9 38.0998C325.1 36.0998 326.2 34.0998 327.2 31.9998C327.7 30.9998 325.7 30.7998 325.2 30.7998C324.2 30.8998 322.8 31.1998 322.3 32.1998C313.7 49.4998 298.8 62.3998 282.8 72.5998C274.6 77.7998 266.1 82.3998 257.5 86.6998C247.5 91.7998 237.4 96.8998 227.1 101.4C216.1 106.2 204.6 109.8 192.9 112.5C181.1 115.2 169.2 117.3 157.3 119.7C134.2 124.3 111 129.8 89.1998 139C70.0998 147.1 51.9998 158.4 37.7998 173.6C36.0998 175.4 34.3998 177.4 32.7998 179.3C32.0998 180.2 33.2998 180.7 33.9998 180.8C34.9998 181.1 36.4998 180.8 37.1998 179.9Z" fill="white"/>
</g>
<mask id="mask13_201_663" style="mask-type:luminance" maskUnits="userSpaceOnUse" x="51" y="51" width="398" height="398">
<path d="M250 448.5C359.629 448.5 448.5 359.629 448.5 250C448.5 140.371 359.629 51.5 250 51.5C140.371 51.5 51.5 140.371 51.5 250C51.5 359.629 140.371 448.5 250 448.5Z" fill="white"/>
</mask>
<g mask="url(#mask13_201_663)">
<path d="M290.4 34.6001C270.7 42.0001 253.7 55.0001 238.6 69.4001C223 84.3001 209.3 100.9 194.2 116.2C179.2 131.4 162.8 145.1 143.4 154.3C124.7 163.2 104.5 168.3 84.0998 171.2C63.2998 174.1 42.1998 174.8 21.1998 174.8C18.5998 174.8 16.0998 174.8 13.4998 174.7C12.4998 174.7 10.8998 175.1 10.2998 176.1C9.79979 177.1 10.7998 177.6 11.5998 177.6C32.8998 177.8 54.2998 177.5 75.4998 175C96.3998 172.6 117.1 168.2 136.6 160.2C146.3 156.2 155.6 151.4 164.3 145.6C173.5 139.5 182 132.4 190 124.8C205.8 109.8 219.7 92.9001 235 77.4001C249.6 62.5001 265.8 48.4001 284.9 39.6001C287.3 38.5001 289.7 37.5001 292.2 36.5001C292.9 36.2001 294.1 35.3001 293.5 34.5001C293 33.8001 291.2 34.3001 290.4 34.6001Z" fill="white"/>
</g>
<mask id="mask14_201_663" style="mask-type:luminance" maskUnits="userSpaceOnUse" x="51" y="51" width="398" height="398">
<path d="M250 448.5C359.629 448.5 448.5 359.629 448.5 250C448.5 140.371 359.629 51.5 250 51.5C140.371 51.5 51.5 140.371 51.5 250C51.5 359.629 140.371 448.5 250 448.5Z" fill="white"/>
</mask>
<g mask="url(#mask14_201_663)">
<path d="M411.5 118.9C396.7 143.5 372.6 160.6 347 172.7C317.3 186.9 285.3 195.1 254.7 207C227.9 217.5 202.9 231.5 180.6 249.6C159.4 266.7 140.8 286.9 125.4 309.4C110.1 331.9 98.0999 356.5 90.1999 382.5C89.1999 385.7 88.2999 388.9 87.4999 392.1C87.2999 393 89.2999 392 89.4999 391.9C90.2999 391.4 91.4999 390.7 91.6999 389.7C98.5999 363.4 109.7 338.2 124.3 315.2C138.9 292.3 156.9 271.6 177.6 254.1C199.1 235.9 223.3 221.6 249.4 211.1C280 198.8 312.1 190.6 342.1 176.8C367.9 165 392.8 148.8 409.7 125.6C411.7 122.8 413.6 119.9 415.4 117C416 116 414.4 116.4 414 116.6C413.2 117.1 412.1 117.9 411.5 118.9Z" fill="white"/>
</g>
<mask id="mask15_201_663" style="mask-type:luminance" maskUnits="userSpaceOnUse" x="51" y="51" width="398" height="398">
<path d="M250 448.5C359.629 448.5 448.5 359.629 448.5 250C448.5 140.371 359.629 51.5 250 51.5C140.371 51.5 51.5 140.371 51.5 250C51.5 359.629 140.371 448.5 250 448.5Z" fill="white"/>
</mask>
<g mask="url(#mask15_201_663)">
<path d="M102.7 405.1C124.8 388.6 144.6 368.9 161.3 346.9C178 324.9 191.6 300.7 201.6 274.9C210.8 251.2 217.7 225.2 234.5 205.4C238.8 200.3 243.7 195.8 249.2 192C255.4 187.8 262.1 184.5 269 181.7C276.1 178.8 283.3 176.3 290.5 173.8C298.5 171 306.4 168.1 314.4 165.3C346.2 154 378 142.7 409.7 131.4C413.7 130 417.7 128.6 421.7 127.2C422.1 127.1 420.1 126.6 420 126.6C419.1 126.5 417.8 126.1 416.9 126.4C384.9 137.8 352.9 149.1 321 160.5C305.3 166.1 289.6 171.6 273.9 177.2C260.3 182.1 246.8 187.9 236 197.9C216.9 215.6 208.8 241.5 200.1 265.2C195.4 277.9 190.2 290.4 184 302.5C177.7 314.8 170.5 326.6 162.5 337.9C146.6 360.5 127.5 380.8 106 398.1C103.3 400.3 100.6 402.4 97.7998 404.4C97.7998 404.4 99.9998 405 100.2 405C100.8 405.2 102.1 405.5 102.7 405.1Z" fill="white"/>
</g>
<mask id="mask16_201_663" style="mask-type:luminance" maskUnits="userSpaceOnUse" x="51" y="51" width="398" height="398">
<path d="M250 448.5C359.629 448.5 448.5 359.629 448.5 250C448.5 140.371 359.629 51.5 250 51.5C140.371 51.5 51.5 140.371 51.5 250C51.5 359.629 140.371 448.5 250 448.5Z" fill="white"/>
</mask>
<g mask="url(#mask16_201_663)">
<path d="M144.7 432.9C165.1 407.7 183 380.4 204.2 355.8C222.8 334.1 244.5 313.9 270.5 301.5C295.3 289.6 322.8 285.9 349.6 281.3C375.9 276.8 403 271.5 425.9 257.1C438.5 249.2 449 238.6 458.6 227.4C468.4 216 478.3 204.2 485.1 190.7C486.8 187.4 488.3 184 489.5 180.5C490.4 177.9 485.6 178.2 484.8 180.3C479.7 194.7 470.4 206.9 460.8 218.6C451.2 230.3 441.1 241.9 428.7 250.8C406.9 266.4 380.3 272.3 354.4 276.9C327.6 281.6 300.1 284.9 274.9 295.7C248.4 307 226 325.9 206.8 347C185.3 370.7 167.5 397.3 147.9 422.5C145.4 425.7 142.9 428.8 140.4 431.9C139.7 432.8 140.3 433.9 141.3 434.3C142.6 434.5 143.9 433.8 144.7 432.9Z" fill="white"/>
</g>
<mask id="mask17_201_663" style="mask-type:luminance" maskUnits="userSpaceOnUse" x="51" y="51" width="398" height="398">
<path d="M250 448.5C359.629 448.5 448.5 359.629 448.5 250C448.5 140.371 359.629 51.5 250 51.5C140.371 51.5 51.5 140.371 51.5 250C51.5 359.629 140.371 448.5 250 448.5Z" fill="white"/>
</mask>
<g mask="url(#mask17_201_663)">
<path d="M454 192.7C438.5 196 423.2 199.8 407.9 204C393.2 208.1 378.3 212.3 364.2 218.1C350.9 223.5 338.9 230.8 328.7 241C318.9 250.7 311 262.2 303.7 273.8C287.4 299.8 273.1 327 260.8 355C249.5 380.7 239.8 408 221.8 430C204.6 451.1 180.8 465.5 156.1 476.1C153 477.4 149.8 478.7 146.7 480C145.6 480.4 146.7 481.3 147.2 481.7C148.1 482.2 149.6 482.6 150.6 482.2C175.6 472.4 200.1 459.4 219.1 440C238.7 419.9 249.7 393.7 260.6 368.2C272.6 340.1 286.1 312.8 301.7 286.5C308.9 274.4 316.4 262.4 325.4 251.5C334.4 240.6 345.1 231.5 357.7 225C371.1 218.2 385.6 213.9 400 209.6C415.1 205.1 430.3 201.1 445.6 197.6C449.5 196.7 453.3 195.9 457.2 195C458.2 194.8 458.3 194.1 457.6 193.5C456.7 192.9 455.1 192.5 454 192.7Z" fill="white"/>
</g>
<mask id="mask18_201_663" style="mask-type:luminance" maskUnits="userSpaceOnUse" x="51" y="51" width="398" height="398">
<path d="M250 448.5C359.629 448.5 448.5 359.629 448.5 250C448.5 140.371 359.629 51.5 250 51.5C140.371 51.5 51.5 140.371 51.5 250C51.5 359.629 140.371 448.5 250 448.5Z" fill="white"/>
</mask>
<g mask="url(#mask18_201_663)">
<path d="M255.7 468.5C267.9 449.3 280.1 429.9 294.2 411.9C300.7 403.6 307.8 395.7 316.2 389.2C324 383.2 332.8 378.5 341.9 374.7C360.5 367.1 380.5 363.7 400.2 360.5C411.1 358.7 422 356.9 432.6 353.7C441.7 350.9 450.5 347 458.6 341.9C473.9 332.2 486.6 318.4 495 302.3C496 300.3 497 298.3 497.9 296.3C498.3 295.3 494 293 493.8 293.5C486.5 310.1 474.7 324.7 460.1 335.4C452.6 340.9 444.5 345.3 435.8 348.5C425.4 352.4 414.4 354.6 403.5 356.4C383.5 359.8 363.3 362.6 344 369.5C334.9 372.7 326.1 376.8 318.1 382.1C309.4 387.8 301.9 395 295.2 402.9C288 411.4 281.6 420.4 275.3 429.6C268.8 439.1 262.5 448.8 256.3 458.5C254.8 460.9 253.3 463.3 251.8 465.6C251.2 466.4 255.3 469.1 255.7 468.5Z" fill="white"/>
</g>
<mask id="mask19_201_663" style="mask-type:luminance" maskUnits="userSpaceOnUse" x="51" y="51" width="398" height="398">
<path d="M250 448.5C359.629 448.5 448.5 359.629 448.5 250C448.5 140.371 359.629 51.5 250 51.5C140.371 51.5 51.5 140.371 51.5 250C51.5 359.629 140.371 448.5 250 448.5Z" fill="white"/>
</mask>
<g mask="url(#mask19_201_663)">
<path d="M468.8 291.9C448.7 293 429.8 300.8 412.1 309.9C403.4 314.4 394.6 318.9 386.6 324.5C378.6 330.1 372 337.1 367 345.5C361.8 354.1 357.7 363.5 353.8 372.8C349.8 382.3 346.2 391.9 342.3 401.4C335.2 419 327.3 436.5 315.6 451.6C305.2 464.9 291.9 476.5 275.9 482.3C273.9 483 272 483.6 269.9 484.2C268.9 484.5 270.8 489 272.2 488.6C288.7 484.2 302.6 473.8 313.7 461.1C325.9 447.2 334.4 430.6 341.5 413.7C349.5 394.9 356 375.4 365.3 357.2C369.8 348.4 375.2 340.1 382.7 333.6C390.1 327.3 398.6 322.6 407.1 318C424.6 308.6 443.2 299.7 463.1 297C465.5 296.7 468 296.4 470.4 296.3C472 296.3 470.1 291.8 468.8 291.9Z" fill="white"/>
</g>
</g>
<defs>
<clipPath id="clip0_201_663">
<rect width="500" height="500" fill="white"/>
</clipPath>
</defs>
</svg>
