<svg width="500" height="500" viewBox="0 0 500 500" fill="none" xmlns="http://www.w3.org/2000/svg">
<mask id="mask0_201_662" style="mask-type:luminance" maskUnits="userSpaceOnUse" x="51" y="51" width="398" height="398">
<path d="M250 448.5C359.629 448.5 448.5 359.629 448.5 250C448.5 140.371 359.629 51.5 250 51.5C140.371 51.5 51.5 140.371 51.5 250C51.5 359.629 140.371 448.5 250 448.5Z" fill="white"/>
</mask>
<g mask="url(#mask0_201_662)">
<path d="M22 135.3C50.6 139.5 79.1 134.4 106.6 126.7C119.9 122.9 133.1 118.7 146.2 114.3C157.3 110.6 168.4 106.4 178.8 101C190.4 94.9001 201 87.0001 209.1 76.6001C207.5 76.5001 205.8 76.4001 204.2 76.2001C222.1 115.3 250.4 149.4 285.4 174.4C295.1 181.3 305.3 187.5 315.9 192.9C316.6 193.2 320.2 193.8 320.6 192.9C330.9 170.1 346 149.7 364.4 132.9C382.8 116.1 404.5 102.9 427.9 94.5001C441.1 89.7001 454.9 86.5001 468.9 85.0001C469.9 84.9001 469.6 84.6001 468.9 84.3001C467.9 83.9001 466.4 84.0001 465.4 84.1001C440.4 86.8001 416.1 94.9001 394.3 107.2C372.4 119.6 352.9 136.4 337.4 156.3C328.7 167.5 321.4 179.6 315.6 192.5C317.2 192.5 318.7 192.5 320.3 192.5C282.5 173.1 250 143.6 226.8 108.1C220.2 98.0001 214.3 87.3001 209.3 76.3001C209 75.5001 204.9 75.3001 204.4 75.9001C190.5 93.9001 169.3 103.8 148.3 111.3C136.7 115.4 124.9 119.1 113.2 122.7C99.7 126.8 86 130.6 72.1 133C56.5 135.7 40.5 136.8 24.7 134.5C23.8 134.4 22.1 134 21.3 134.5C20.4 135.1 21.5 135.2 22 135.3Z" fill="white"/>
</g>
<mask id="mask1_201_662" style="mask-type:luminance" maskUnits="userSpaceOnUse" x="51" y="51" width="398" height="398">
<path d="M250 448.5C359.629 448.5 448.5 359.629 448.5 250C448.5 140.371 359.629 51.5 250 51.5C140.371 51.5 51.5 140.371 51.5 250C51.5 359.629 140.371 448.5 250 448.5Z" fill="white"/>
</mask>
<g mask="url(#mask1_201_662)">
<path d="M39.8 171.3C63.8 172.7 87.3 168 110.3 161.6C132.5 155.5 154.9 149.2 176.4 140.7C188.1 136.1 199.6 130.7 210.3 124C208.7 123.9 207 123.9 205.4 123.8C216.5 142.1 230.4 158.7 246.3 173C262.3 187.4 280.4 199.6 299.8 208.9C310.6 214.1 321.9 218.4 333.4 221.7C334.2 221.9 337.6 222.5 338.1 221.5C356.1 183.1 383.4 149.3 416.9 123.4C426.4 116.1 436.4 109.4 446.8 103.4C447.3 103.1 445.2 102.8 445.1 102.8C444.2 102.7 442.8 102.6 442 103.1C405.2 124.3 373.7 154.4 350.6 190.1C344.1 200.2 338.3 210.7 333.1 221.5C334.7 221.4 336.2 221.4 337.8 221.3C317.3 215.3 297.7 206.3 279.8 194.7C262.1 183.2 245.9 169.3 232.1 153.3C224.1 144.1 216.9 134.2 210.5 123.8C210 122.9 206.4 123.1 205.6 123.6C187.1 135.1 166.6 142.7 145.9 149.2C135.4 152.5 124.9 155.6 114.4 158.6C103.1 161.9 91.7 164.9 80.2 167.2C67.4 169.7 54.4 171.1 41.3 170.3C40.9 170.3 38.4 170.1 38.2 170.6C37.9 171.3 39.4 171.3 39.8 171.3Z" fill="white"/>
</g>
<mask id="mask2_201_662" style="mask-type:luminance" maskUnits="userSpaceOnUse" x="51" y="51" width="398" height="398">
<path d="M250 448.5C359.629 448.5 448.5 359.629 448.5 250C448.5 140.371 359.629 51.5 250 51.5C140.371 51.5 51.5 140.371 51.5 250C51.5 359.629 140.371 448.5 250 448.5Z" fill="white"/>
</mask>
<g mask="url(#mask2_201_662)">
<path d="M92.6 101.3C127.6 97.2999 161.7 86.5999 192.8 69.9999C201.5 65.2999 210 60.1999 218.2 54.6999C217.1 54.8999 216 55.0999 215 55.3999C234.9 85.6999 257.6 114.2 282.7 140.4C289.8 147.8 297.2 155.1 304.7 162.2C305.9 163.3 308.4 161.4 309 160.4C327.4 132.1 350.8 107 377.8 86.7999C385.4 81.0999 393.3 75.7999 401.4 70.7999C401.9 70.4999 403.5 69.4998 403.1 68.6999C402.7 67.8998 400.9 68.6999 400.4 68.9999C385.4 78.0999 371.3 88.3999 358.1 99.8999C344.9 111.4 332.8 124.1 321.9 137.7C315.8 145.3 310.1 153.3 304.8 161.5C306.2 160.9 307.7 160.3 309.1 159.7C282.7 134.8 258.6 107.6 237.1 78.2999C231 69.9999 225.1 61.4999 219.5 52.8999C218.9 51.9999 216.8 53.1999 216.3 53.5999C188.2 72.6999 156.5 86.1998 123.3 93.5998C114 95.6998 104.6 97.1999 95.2 98.2999C94.1 98.3999 92.8 99.0998 92.1 99.9999C91.3 100.8 91.6 101.4 92.6 101.3Z" fill="white"/>
</g>
<mask id="mask3_201_662" style="mask-type:luminance" maskUnits="userSpaceOnUse" x="51" y="51" width="398" height="398">
<path d="M250 448.5C359.629 448.5 448.5 359.629 448.5 250C448.5 140.371 359.629 51.5 250 51.5C140.371 51.5 51.5 140.371 51.5 250C51.5 359.629 140.371 448.5 250 448.5Z" fill="white"/>
</mask>
<g mask="url(#mask3_201_662)">
<path d="M161.8 61.0002C178.9 53.0002 195.9 45.1002 213 37.1002C217.8 34.8002 222.7 32.6002 227.5 30.3002C226.3 30.3002 225 30.2002 223.8 30.2002C231.2 45.1002 239.9 59.2002 249.8 72.5002C259.7 85.7002 270.8 98.1002 282.9 109.3C289.8 115.7 296.9 121.7 304.4 127.3C305.4 128.1 307.9 127.5 308.7 126.7C319.7 115.1 331.4 104.1 343.7 93.8002C356 83.5002 368.9 73.9002 382.4 65.0002C389.9 60.0002 397.6 55.3002 405.5 50.8002C406.4 50.3002 406.1 49.5002 405.3 49.2002C404.2 48.8002 402.8 49.2002 401.8 49.7002C387.8 57.7002 374.2 66.5002 361.2 76.1002C348.2 85.7002 335.7 95.9002 323.8 106.9C317.1 113.1 310.6 119.5 304.4 126.1C305.8 125.9 307.2 125.7 308.7 125.5C295.6 115.6 283.3 104.4 272.2 92.3002C261.1 80.2002 251.1 67.1002 242.3 53.1002C237.3 45.2002 232.8 37.1002 228.7 28.8002C228.2 27.8002 225.6 28.4002 225 28.7002C207.9 36.7002 190.9 44.6002 173.8 52.6002C169 54.9002 164.1 57.1002 159.3 59.4002C158.6 59.7002 157.7 60.4002 158.6 61.0002C159.2 61.7002 160.9 61.4002 161.8 61.0002Z" fill="white"/>
</g>
<mask id="mask4_201_662" style="mask-type:luminance" maskUnits="userSpaceOnUse" x="51" y="51" width="398" height="398">
<path d="M250 448.5C359.629 448.5 448.5 359.629 448.5 250C448.5 140.371 359.629 51.5 250 51.5C140.371 51.5 51.5 140.371 51.5 250C51.5 359.629 140.371 448.5 250 448.5Z" fill="white"/>
</mask>
<g mask="url(#mask4_201_662)">
<path d="M250.3 37.5998C263.2 53.6998 276.7 69.3998 290.7 84.5998C294.7 88.8998 298.7 93.0998 302.7 97.2998C303.6 98.1998 305.6 97.5998 306.5 96.9998C325.2 83.4998 344 69.8998 362.7 56.3998C368 52.5998 373.2 48.7998 378.5 44.9998C379.2 44.4998 379.8 43.4998 378.8 42.9998C377.9 42.3998 376.2 42.8998 375.4 43.4998C356.7 56.9998 337.9 70.5998 319.2 84.0998C313.9 87.8998 308.7 91.6998 303.4 95.4998C304.7 95.3998 305.9 95.2998 307.2 95.1998C292.9 80.2998 279.1 64.8998 265.8 49.0998C262.1 44.5998 258.4 40.0998 254.7 35.5998C253.6 34.0998 249 35.9998 250.3 37.5998Z" fill="white"/>
</g>
<mask id="mask5_201_662" style="mask-type:luminance" maskUnits="userSpaceOnUse" x="51" y="51" width="398" height="398">
<path d="M250 448.5C359.629 448.5 448.5 359.629 448.5 250C448.5 140.371 359.629 51.5 250 51.5C140.371 51.5 51.5 140.371 51.5 250C51.5 359.629 140.371 448.5 250 448.5Z" fill="white"/>
</mask>
<g mask="url(#mask5_201_662)">
<path d="M280.5 45.2999C287.7 52.3999 295.4 58.9999 303.4 65.2999C304.2 65.8999 305 66.5999 305.9 67.1999C307 67.8999 308.4 68.0999 309.7 68.0999C312.4 68.0999 314.5 66.6999 316.8 65.5999C321.5 63.1999 326.3 60.7999 331 58.2999C336.4 55.4999 341.8 52.7999 347.2 49.9999C347.8 49.6999 345.6 49.1999 345.5 49.1999C344.5 49.0999 343.3 48.9999 342.4 49.3999C333.8 53.7999 325.2 58.1999 316.7 62.5999C314.6 63.6999 312.4 64.7999 310.3 65.8999C309.8 66.1999 309.3 66.3999 308.7 66.6999C307.1 67.4999 309.5 65.8999 310.6 66.9999C310.5 66.8999 310.3 66.7999 310.1 66.6999C309.2 65.9999 308.3 65.2999 307.3 64.5999C303.7 61.7999 300.2 58.8999 296.8 55.8999C292.9 52.4999 289.1 48.9999 285.4 45.3999C284.7 44.7999 283.2 44.7999 282.3 44.7999C282.1 44.6999 280 44.8999 280.5 45.2999Z" fill="white"/>
</g>
<mask id="mask6_201_662" style="mask-type:luminance" maskUnits="userSpaceOnUse" x="51" y="51" width="398" height="398">
<path d="M250 448.5C359.629 448.5 448.5 359.629 448.5 250C448.5 140.371 359.629 51.5 250 51.5C140.371 51.5 51.5 140.371 51.5 250C51.5 359.629 140.371 448.5 250 448.5Z" fill="white"/>
</mask>
<g mask="url(#mask6_201_662)">
<path d="M62.2001 203.9C94.6001 197.6 125 184.5 154.6 170.3C162.1 166.7 169.7 163 177.2 159.4C180.9 157.6 184.6 155.8 188.3 154C190.1 153.2 191.8 152.3 193.6 151.5C194.5 151.1 195.5 150.6 196.4 150.2C196.9 150 197.4 149.7 198 149.5C198.7 149.2 199.7 149 200.4 148.7C200.6 148.6 201.9 148.8 200.6 148.2C200.8 148.3 201.2 149 201.3 149.1C201.9 149.8 202.4 150.5 203 151.2C204.2 152.7 205.4 154.2 206.7 155.6C209.1 158.4 211.5 161.1 214 163.8C218.9 169.1 224 174.2 229.3 179.2C250.8 199.2 275.5 216 302 228.7C315.3 235.1 329 240.4 343.1 244.6C346.3 245.6 350 247 352.8 244.5C355.4 242.2 356.9 238.4 358.6 235.5C362.5 228.9 366.6 222.5 370.8 216.1C387.6 190.5 407.1 166.4 431.1 147.2C434.1 144.8 437.1 142.5 440.2 140.3C440.2 140.3 436.9 137 436 137.6C411.2 155.3 390.8 178.4 373.4 203.3C369 209.6 364.8 216 360.8 222.4C358.8 225.6 356.8 228.9 354.8 232.2C353 235.2 351.4 238.9 349 241.4C345.9 244.6 341.6 242.5 337.9 241.4C334.4 240.3 330.9 239.2 327.5 238C320.5 235.6 313.7 232.8 307 229.8C280.3 217.9 255.6 201.6 234 181.8C228.6 176.8 223.3 171.6 218.3 166.2C215.8 163.5 213.4 160.8 211 158C208.7 155.3 206.5 152.2 204 149.6C202 147.5 198.7 145.1 195.6 146C193.7 146.6 191.8 147.6 190 148.5C188.1 149.4 186.3 150.3 184.4 151.1C177 154.7 169.5 158.3 162.1 161.9C132.4 176.3 102.4 190.5 70.2001 198.4C66.2001 199.4 62.2001 200.3 58.2001 201C57.7001 201.1 59.3001 202.3 59.4001 202.4C60.0001 202.9 61.4001 204 62.2001 203.9Z" fill="white"/>
</g>
<mask id="mask7_201_662" style="mask-type:luminance" maskUnits="userSpaceOnUse" x="51" y="51" width="398" height="398">
<path d="M250 448.5C359.629 448.5 448.5 359.629 448.5 250C448.5 140.371 359.629 51.5 250 51.5C140.371 51.5 51.5 140.371 51.5 250C51.5 359.629 140.371 448.5 250 448.5Z" fill="white"/>
</mask>
<g mask="url(#mask7_201_662)">
<path d="M56 236.1C87 223.1 118 210 149 197C156.8 193.7 164.6 190.5 172.4 187.2C176.3 185.6 180.2 183.9 184.1 182.3C186 181.5 187.9 180.7 189.7 179.9C190.6 179.5 191.5 179.2 192.3 178.8C192.7 178.6 193.2 178.4 193.6 178.3C193.9 178.2 194.2 178.1 194.6 178C194.2 178.1 194.2 178.1 194.6 178.3C196 179.2 197.1 180.6 198.2 181.9C199.5 183.3 200.7 184.8 202 186.2C204.4 188.9 206.7 191.5 209.1 194.2C214.1 199.7 219.1 205.1 224.3 210.3C234.6 220.5 245.6 230.1 257.8 238.1C270.2 246.2 283.7 252.4 297.6 257.2C311.9 262.2 326.7 265.9 341.5 269.3C345.2 270.2 348.9 271 352.7 271.9C356 272.6 359.7 273.2 363 272.2C366.5 271.2 369.1 268.5 371.8 266.1C374.9 263.4 377.9 260.7 381 257.9C406.2 235.5 431.4 213.2 456.7 190.8C459.9 188 463 185.2 466.2 182.4C466.8 181.8 464.8 181.3 464.6 181.3C463.8 181.1 462.2 180.8 461.5 181.5C436.4 203.8 411.3 226.1 386.1 248.3C379.9 253.8 373.6 259.3 367.4 264.9C364.7 267.3 361.4 271.1 357.4 271.1C355.6 271.1 353.8 270.5 352.1 270.1C350.2 269.7 348.3 269.2 346.4 268.8C331.6 265.4 316.9 261.8 302.5 256.9C288.2 252 274.4 245.7 261.7 237.4C249.4 229.3 238.3 219.5 228 209.1C222.9 204 217.9 198.6 213.1 193.2C210.6 190.5 208.2 187.7 205.7 184.9C203.7 182.6 201.7 179.7 199.1 178C196.6 176.3 193.1 176 190.3 176.8C186.4 177.9 182.6 179.9 178.9 181.5C171.2 184.7 163.6 187.9 155.9 191.2C125 204.2 94.1 217.2 63.2 230.2C59.4 231.8 55.7 233.4 51.9 235C50.9 235.4 52.3 236 52.7 236.1C53.5 236.3 55 236.5 56 236.1Z" fill="white"/>
</g>
<mask id="mask8_201_662" style="mask-type:luminance" maskUnits="userSpaceOnUse" x="51" y="51" width="398" height="398">
<path d="M250 448.5C359.629 448.5 448.5 359.629 448.5 250C448.5 140.371 359.629 51.5 250 51.5C140.371 51.5 51.5 140.371 51.5 250C51.5 359.629 140.371 448.5 250 448.5Z" fill="white"/>
</mask>
<g mask="url(#mask8_201_662)">
<path d="M43.2 266.6C78.7 254.4 113.8 241.1 148.4 226.7C157 223.1 165.6 219.5 174.1 215.8C178.5 213.9 182.9 211.5 187.4 210C189.8 209.2 190.7 210.9 192 212.5C193.2 213.9 194.4 215.3 195.7 216.7C206 228.3 217.3 239 229.3 248.7C253.3 268 280.6 283.3 309.6 293.8C316.9 296.4 324.2 298.7 331.7 300.7C339.2 302.7 346.8 304.7 354.5 305.7C358.6 306.2 362.6 306 366.3 304.1C369.8 302.3 372.8 299.5 375.8 297C382 291.9 388 286.6 394 281.4C417.9 260.5 441.8 238.7 470.7 224.9C474.3 223.2 477.9 221.6 481.7 220.2C484.6 219.1 483.5 215.4 480.6 216.5C450.8 228.1 425.8 248.4 402 269.2C395.9 274.5 389.9 279.8 383.9 285C380.8 287.7 377.6 290.4 374.5 293C371.5 295.5 368.6 298.3 365.3 300.3C361.3 302.7 357 302.1 352.6 301.3C348.8 300.6 345 299.8 341.2 298.9C333.7 297.1 326.2 295 318.9 292.5C289.5 282.7 261.8 268 237.3 249.1C225 239.6 213.5 229.1 203 217.7C200.4 214.9 197.9 211.9 195.4 209C192.8 205.9 189.8 205 185.9 206.4C177.2 209.7 168.8 213.9 160.2 217.5C125.7 232.2 90.7 245.7 55.3 258.2C50.9 259.8 46.4 261.3 42 262.8C39.1 263.9 40.2 267.6 43.2 266.6Z" fill="white"/>
</g>
<mask id="mask9_201_662" style="mask-type:luminance" maskUnits="userSpaceOnUse" x="51" y="51" width="398" height="398">
<path d="M250 448.5C359.629 448.5 448.5 359.629 448.5 250C448.5 140.371 359.629 51.5 250 51.5C140.371 51.5 51.5 140.371 51.5 250C51.5 359.629 140.371 448.5 250 448.5Z" fill="white"/>
</mask>
<g mask="url(#mask9_201_662)">
<path d="M40.5 302.1C75.9 289.5 110.6 274.8 144.1 257.9C152.5 253.7 160.8 249.4 169 244.9C171 243.8 173 242.7 175.1 241.6C177.7 240.2 180.3 239.3 182.6 241.5C185.4 244.1 187.8 247.3 190.5 250C201.5 261.2 213.6 271.2 226.7 279.9C253.1 297.4 282.7 309.7 313.1 318.4C328.5 322.8 344.2 326.3 360.1 329C363.9 329.7 367.8 330.3 371.6 330.9C375.6 331.5 379.8 332.1 383.6 330.2C387.4 328.3 390.3 324.8 393.3 321.9C396.6 318.8 399.8 315.7 403.2 312.7C430.3 287.9 459.2 265 489.7 244.4C493.4 241.9 497.2 239.4 500.9 236.9C502 236.2 498.9 232.3 497.6 233.1C466.9 253.1 437.7 275.4 410.3 299.6C403.5 305.6 396.7 311.8 390.1 318.1C387.1 320.9 384.1 324.5 380.4 326.4C376.3 328.4 371.4 327.2 367.1 326.6C351.3 324.1 335.5 321 320 316.9C289.3 308.9 259.2 297.5 232.2 280.6C218.8 272.3 206.3 262.6 195 251.6C192.2 248.9 189.5 246.1 186.9 243.2C184.5 240.6 182 237 178.4 236.3C174.5 235.5 170.3 238.9 167 240.6C162.8 242.9 158.6 245.1 154.4 247.3C120.9 264.8 86.3 280.2 50.8 293.4C46.5 295 42.1 296.6 37.8 298.1C36.3 298.7 39.2 302.6 40.5 302.1Z" fill="white"/>
</g>
<mask id="mask10_201_662" style="mask-type:luminance" maskUnits="userSpaceOnUse" x="51" y="51" width="398" height="398">
<path d="M250 448.5C359.629 448.5 448.5 359.629 448.5 250C448.5 140.371 359.629 51.5 250 51.5C140.371 51.5 51.5 140.371 51.5 250C51.5 359.629 140.371 448.5 250 448.5Z" fill="white"/>
</mask>
<g mask="url(#mask10_201_662)">
<path d="M38.6 339.4C68 329 96.6 316.6 124.4 302.4C138.3 295.3 151.9 287.7 165.3 279.6C166.8 278.7 168.3 277.4 170.1 278.2C171.6 278.9 173 280.6 174.2 281.7C177.2 284.3 180.1 286.9 183.2 289.4C189.1 294.4 195.2 299.2 201.4 303.8C225.7 321.9 252.1 339 281.2 348.2C296.1 352.9 311.5 355.5 327 357.1C334.8 357.9 342.7 358.4 350.5 358.9C358.2 359.3 366 359.9 373.7 359.9C377.4 359.9 381.1 359.6 384.5 358.4C387.9 357.2 391 355.3 394.1 353.3C401 348.7 407.8 344.1 414.7 339.4C428.6 330.1 442.4 320.8 456.3 311.4C459.7 309.1 463.1 306.8 466.5 304.5C467.4 303.9 467.6 302.6 466.7 302C465.7 301.2 464.2 301.7 463.2 302.3C449.5 311.5 435.7 320.8 422 330C415.1 334.7 408.1 339.3 401.2 344C397.8 346.3 394.5 348.5 391.1 350.8C388.1 352.8 384.9 354.7 381.4 355.6C377.6 356.5 373.5 356.2 369.6 356C365.7 355.8 361.9 355.7 358 355.5C350.3 355.1 342.6 354.7 334.9 354C319.4 352.7 303.9 350.5 288.9 346.3C259.2 338 232.5 321.2 207.9 303C201.8 298.5 195.7 293.8 189.8 289C186.9 286.6 183.9 284.1 181.1 281.6C178.5 279.4 175.8 276.1 172.7 274.7C169.4 273.3 166.2 274.7 163.4 276.4C160.1 278.4 156.8 280.3 153.5 282.3C146.7 286.2 139.9 290 133.1 293.7C105.8 308.3 77.5 321.2 48.5 332C44.9 333.3 41.3 334.7 37.7 335.9C36.8 336.2 35.4 337 35.8 338.3C36 339.5 37.6 339.7 38.6 339.4Z" fill="white"/>
</g>
<mask id="mask11_201_662" style="mask-type:luminance" maskUnits="userSpaceOnUse" x="51" y="51" width="398" height="398">
<path d="M250 448.5C359.629 448.5 448.5 359.629 448.5 250C448.5 140.371 359.629 51.5 250 51.5C140.371 51.5 51.5 140.371 51.5 250C51.5 359.629 140.371 448.5 250 448.5Z" fill="white"/>
</mask>
<g mask="url(#mask11_201_662)">
<path d="M35.2 360.4C72.6 355.7 109.2 345.3 143.4 329.7C153 325.3 162.4 320.5 171.6 315.3C170.8 315.1 170 315 169.2 314.8C195.1 342.2 232.1 354.4 267 366C287.3 372.8 307.8 379.2 328.8 383.9C339.1 386.2 349.6 388.2 360.1 389.5C365.5 390.2 371 390.7 376.4 391C381.3 391.3 385.7 391.2 390 388.4C394.7 385.2 398.9 381.1 403.4 377.6C408.1 373.8 413 370.2 417.8 366.6C427.5 359.5 437.4 352.8 447.6 346.4C449.6 345.2 446.7 341.1 444.7 342.3C427 353.4 410 365.5 393.9 378.8C390.3 381.8 386.7 385.7 381.8 386.4C379.4 386.8 377 386.5 374.6 386.3C371.7 386.1 368.9 385.9 366 385.6C355.6 384.6 345.3 382.9 335.1 380.8C314.5 376.6 294.4 370.5 274.4 364C256.5 358.2 238.5 352.3 221.3 344.8C202.8 336.7 185.1 326.3 171.2 311.6C170.6 310.9 169.6 310.6 168.8 311.1C136.2 329.4 100.9 342.7 64.3 350.5C54 352.7 43.6 354.4 33.2 355.7C30.8 356.3 33 360.7 35.2 360.4Z" fill="white"/>
</g>
<mask id="mask12_201_662" style="mask-type:luminance" maskUnits="userSpaceOnUse" x="51" y="51" width="398" height="398">
<path d="M250 448.5C359.629 448.5 448.5 359.629 448.5 250C448.5 140.371 359.629 51.5 250 51.5C140.371 51.5 51.5 140.371 51.5 250C51.5 359.629 140.371 448.5 250 448.5Z" fill="white"/>
</mask>
<g mask="url(#mask12_201_662)">
<path d="M74.7 381.2C95.6 376.1 115.9 368.8 135.3 359.3C140.1 356.9 144.9 354.4 149.6 351.8C152 350.5 154.3 349.1 156.7 347.7C158.7 346.5 161 345.1 163.4 345.7C165.8 346.2 167.9 347.9 169.9 349.3C172.1 350.7 174.3 352.2 176.5 353.6C180.9 356.4 185.3 359 189.8 361.6C207.7 372 226.4 381.1 245.7 388.8C265 396.5 284.8 402.8 304.9 407.7C325 412.5 345.4 415.9 366 417.8C368.6 418 371.2 418.2 373.9 418.4C376.2 418.6 378.5 414.5 375.4 414.3C354.6 412.8 334 409.7 313.6 405.2C293.3 400.6 273.3 394.6 253.8 387.1C234.4 379.7 215.6 370.8 197.5 360.6C188.4 355.5 179.7 349.9 170.9 344.2C168.8 342.8 166.4 341.6 163.8 341.5C161.1 341.4 158.6 342.5 156.3 343.8C151.7 346.4 147.2 349.1 142.5 351.5C123.5 361.5 103.5 369.5 82.8 375.2C80.2 375.9 77.5 376.6 74.9 377.2C73.8 377.5 72.5 378.4 72.4 379.7C72.5 380.9 73.7 381.5 74.7 381.2Z" fill="white"/>
</g>
<mask id="mask13_201_662" style="mask-type:luminance" maskUnits="userSpaceOnUse" x="51" y="51" width="398" height="398">
<path d="M250 448.5C359.629 448.5 448.5 359.629 448.5 250C448.5 140.371 359.629 51.5 250 51.5C140.371 51.5 51.5 140.371 51.5 250C51.5 359.629 140.371 448.5 250 448.5Z" fill="white"/>
</mask>
<g mask="url(#mask13_201_662)">
<path d="M92.4 401.2C107 397.6 121.4 393.3 135.6 388.1C142.6 385.5 149.5 382.8 156.4 379.9C158 379.2 159.6 378.3 161.3 377.8C162.6 377.4 164.3 378.5 165.6 379.1C169.2 380.9 172.8 382.6 176.3 384.4C204.5 398.3 232.7 412.2 260.9 426.1C276.7 433.9 292.5 441.7 308.3 449.5C309.2 450 310.8 449.4 311.7 449C312.3 448.7 313.3 448.1 312.3 447.6C283.5 433.4 254.7 419.2 226 405.1C211.7 398 197.4 391 183.1 383.9C179.5 382.1 175.9 380.4 172.4 378.6C170.8 377.8 169.3 376.9 167.6 376.3C165.6 375.5 163.6 375.5 161.6 375.9C158 376.7 154.5 378.6 151.1 380.1C147.7 381.5 144.2 382.9 140.7 384.3C124.9 390.4 108.7 395.5 92.2 399.5C91.7 399.6 89.8 400.1 90 400.9C89.9 401.7 91.9 401.3 92.4 401.2Z" fill="white"/>
</g>
<mask id="mask14_201_662" style="mask-type:luminance" maskUnits="userSpaceOnUse" x="51" y="51" width="398" height="398">
<path d="M250 448.5C359.629 448.5 448.5 359.629 448.5 250C448.5 140.371 359.629 51.5 250 51.5C140.371 51.5 51.5 140.371 51.5 250C51.5 359.629 140.371 448.5 250 448.5Z" fill="white"/>
</mask>
<g mask="url(#mask14_201_662)">
<path d="M131.6 421.7C140.8 415.7 150 409.6 159.1 403.6C161.1 402.3 163.1 400.6 165.4 399.7C167.4 398.9 169.5 401.2 170.9 402.3C175.2 405.6 179.5 408.8 183.8 412.1C201.2 425.3 218.6 438.4 236.1 451.6C245.9 459 255.7 466.4 265.5 473.8C266.4 474.5 267.9 474.4 268.9 474.1C269.6 473.9 270.6 473.1 269.7 472.4C251.6 458.7 233.4 445 215.3 431.2C206.2 424.3 197.2 417.5 188.1 410.6C183.5 407.1 179 403.7 174.4 400.2C172.4 398.7 170.3 397.2 167.7 397C165 396.7 162.3 397.7 160 399.1C154.7 402.4 149.5 406 144.3 409.4C138.9 413 133.5 416.5 128 420.1C127.2 420.6 127.1 421.4 128.1 421.8C129.1 422.4 130.7 422.3 131.6 421.7Z" fill="white"/>
</g>
<mask id="mask15_201_662" style="mask-type:luminance" maskUnits="userSpaceOnUse" x="51" y="51" width="398" height="398">
<path d="M250 448.5C359.629 448.5 448.5 359.629 448.5 250C448.5 140.371 359.629 51.5 250 51.5C140.371 51.5 51.5 140.371 51.5 250C51.5 359.629 140.371 448.5 250 448.5Z" fill="white"/>
</mask>
<g mask="url(#mask15_201_662)">
<path d="M149.2 436.8C156.3 433.2 163.4 429.6 170.5 426C172.9 424.8 176.5 422.1 179.1 424.1C181.8 426.2 184.1 428.9 186.4 431.3C197 442 207.3 453 217.3 464.3C223 470.7 228.6 477.2 234 483.8C234.8 484.8 236.3 485.2 237.4 484.5C238.5 483.8 238.6 482.4 237.8 481.4C227.7 469.2 217.2 457.3 206.3 445.7C200.9 439.9 195.4 434.2 189.8 428.5C188.5 427.1 187.1 425.8 185.8 424.5C184.5 423.2 183.2 421.7 181.6 420.6C178.1 418.1 174.4 418.8 170.7 420.5C162.4 424.4 154.2 428.9 146 433.1C144.9 433.7 144.9 435.3 145.6 436.2C146.7 437.2 148.1 437.4 149.2 436.8Z" fill="white"/>
</g>
</svg>
