<svg width="500" height="500" viewBox="0 0 500 500" fill="none" xmlns="http://www.w3.org/2000/svg">
<mask id="mask0_201_673" style="mask-type:luminance" maskUnits="userSpaceOnUse" x="51" y="51" width="398" height="398">
<path d="M250 448.5C359.629 448.5 448.5 359.629 448.5 250C448.5 140.371 359.629 51.5 250 51.5C140.371 51.5 51.5 140.371 51.5 250C51.5 359.629 140.371 448.5 250 448.5Z" fill="white"/>
</mask>
<g mask="url(#mask0_201_673)">
<path d="M105 55.9001C140.7 57.1001 176.4 58.4001 212.1 59.6001C222.1 59.9001 232.1 60.3001 242.1 60.6001C242.4 59.5001 242.7 58.4001 243.1 57.3001C193.8 72.0001 144.1 85.3001 94.0999 97.2001C79.8999 100.6 65.5999 103.9 51.2999 107C50.2999 107.2 48.7999 107.9 48.4999 109.1C48.1999 110.3 49.2999 110.5 50.2999 110.5C84.5999 108 119 105.5 153.3 102.9C187.5 100.4 221.7 97.9001 255.9 95.4001C275.2 94.0001 294.6 92.6001 313.9 91.1001C314 90.0001 314.2 88.9001 314.3 87.8001C271.3 99.4001 228.3 110.9 185.2 122.5C173 125.8 160.9 129 148.7 132.3C146.8 132.8 145.3 135.8 148.3 135.6C200.2 131.7 252 127.8 303.9 123.9C318.5 122.8 333.1 121.7 347.7 120.6C347.8 119.5 348 118.4 348.1 117.3C304.8 128.5 262.1 141.7 220 156.9C208.2 161.2 196.5 165.6 184.8 170.2C183.1 170.9 181.3 173.8 184.4 173.5C227.4 169.6 270.3 164.4 313 158.1C325.2 156.3 337.4 154.4 349.6 152.4C349.5 151.4 349.5 150.4 349.4 149.4C324.1 164.6 298.5 179.9 276 199.2C269.7 204.6 263.6 210.3 257.9 216.3C256.8 217.4 257.5 219 259.1 218.6C310.6 205.8 362.2 193 413.7 180.2C428.2 176.6 442.6 173 457.1 169.4C458.1 169.1 459.6 168.5 459.9 167.3C460.1 166.2 459.1 165.7 458.1 165.9C406.6 178.7 355 191.5 303.5 204.3C289 207.9 274.6 211.5 260.1 215.1C260.5 215.9 260.9 216.6 261.3 217.4C281.3 196.4 305.4 179.9 329.9 164.7C336.8 160.4 343.8 156.2 350.8 152C352.2 151.1 353.3 148.5 350.6 149C308 156 265.2 161.8 222.2 166.5C209.9 167.8 197.7 169 185.4 170.2C185.3 171.3 185.1 172.4 185 173.5C226.6 157.2 269 142.8 312 130.5C324.1 127 336.2 123.7 348.3 120.6C350.2 120.1 351.7 117.1 348.7 117.3C296.8 121.2 245 125.1 193.1 129C178.5 130.1 163.9 131.2 149.3 132.3C149.2 133.4 149 134.5 148.9 135.6C191.9 124 234.9 112.5 278 100.9C290.2 97.6001 302.3 94.4001 314.5 91.1001C316.4 90.6001 317.9 87.6001 314.9 87.8001C280.6 90.3001 246.2 92.8001 211.9 95.4001C177.7 97.9001 143.5 100.4 109.3 102.9C90 104.3 70.5999 105.7 51.2999 107.2C50.9999 108.4 50.5999 109.5 50.2999 110.7C100.9 99.5001 151.2 86.9001 201.1 72.8001C215.2 68.8001 229.3 64.8001 243.3 60.6001C244.6 60.2001 246.9 57.4001 244.3 57.3001C208.6 56.1001 172.9 54.8001 137.2 53.6001C127.2 53.3001 117.2 52.9001 107.2 52.6001C106 52.6001 104.7 53.2001 104.1 54.3001C103.5 54.9001 103.9 55.8001 105 55.9001Z" fill="white"/>
</g>
<mask id="mask1_201_673" style="mask-type:luminance" maskUnits="userSpaceOnUse" x="51" y="51" width="398" height="398">
<path d="M250 448.5C359.629 448.5 448.5 359.629 448.5 250C448.5 140.371 359.629 51.5 250 51.5C140.371 51.5 51.5 140.371 51.5 250C51.5 359.629 140.371 448.5 250 448.5Z" fill="white"/>
</mask>
<g mask="url(#mask1_201_673)">
<path d="M25.8002 158.6C41.7002 153.3 57.7002 148.1 73.6002 142.8C89.5002 137.5 105.5 132.3 121.4 127C130.4 124 139.4 121.1 148.4 118.1C147.8 117.7 147.2 117.3 146.6 116.8C126.7 131 107.8 146.4 89.8002 163C84.7002 167.7 79.7002 172.5 74.7002 177.4C73.4002 178.7 75.3002 178.8 76.3002 178.5C93.1002 174.2 109.7 169.6 126.3 164.7C143 159.8 159.6 154.7 176.1 149.3C185.4 146.3 194.6 143.2 203.8 140C203.2 139.6 202.6 139.2 202 138.7C182.8 149.7 163.5 160.7 144.3 171.6C125.1 182.6 105.8 193.6 86.6002 204.5C75.8002 210.7 64.9002 216.9 54.1002 223.1C53.8002 223.3 53.0002 223.8 53.2002 224.3C53.4002 224.8 54.3002 224.7 54.6002 224.7C80.4002 220.8 106.3 216.8 132.1 212.9C157.8 209 183.4 205.1 209.1 201.2C223.6 199 238.1 196.8 252.5 194.6C252.7 193.9 252.9 193.2 253.1 192.5C224.6 202.4 196.2 212.3 167.7 222.2C139.4 232 111.1 241.9 82.8002 251.7C66.8002 257.3 50.7002 262.9 34.7002 268.4C34.2002 268.6 32.8002 269.1 32.7002 269.9C32.6002 270.6 33.7002 270.6 34.1002 270.5C52.4002 268.6 70.7002 267 89.1002 265.7C107.4 264.4 125.6 263.3 143.9 262.5C154.3 262.1 164.6 261.7 175 261.5C175.4 260.8 175.8 260.1 176.1 259.4C153 268.1 130.2 277.4 107.6 287.4C85.1002 297.4 62.9002 308 41.1002 319.3C28.7002 325.7 16.5002 332.3 4.30018 339.1C3.70018 339.4 2.90018 340.2 3.90018 340.6C4.90018 341 6.40018 340.2 7.20018 339.8C28.5002 327.9 50.1002 316.6 72.1002 306C94.0002 295.4 116.1 285.5 138.6 276.2C151.2 271 163.9 266 176.7 261.2C177.3 261 178.4 260.6 178.7 259.9C178.9 259.3 178.4 259.1 177.9 259.1C159.4 259.6 140.9 260.3 122.5 261.3C104 262.3 85.6002 263.6 67.2002 265.2C56.8002 266.1 46.4002 267.1 36.0002 268.2C35.8002 268.9 35.6002 269.6 35.4002 270.3C63.9002 260.4 92.3002 250.5 120.8 240.6C149.1 230.8 177.4 220.9 205.7 211.1C221.7 205.5 237.8 199.9 253.8 194.4C254.3 194.2 255.7 193.7 255.8 192.9C255.9 192.2 254.8 192.2 254.4 192.3C228.6 196.2 202.7 200.2 176.9 204.1C151.2 208 125.6 211.9 99.9002 215.8C85.4002 218 70.9002 220.2 56.5002 222.4C56.7002 222.9 56.9002 223.4 57.0002 223.9C76.2002 212.9 95.5002 201.9 114.7 191C133.9 180.1 153.2 169 172.4 158.1C183.2 151.9 194.1 145.7 204.9 139.5C205.3 139.3 206.2 138.6 205.6 138.1C205.1 137.6 203.7 138 203.1 138.2C186.9 143.8 170.6 149.2 154.3 154.3C137.9 159.4 121.5 164.3 104.9 168.9C95.6002 171.5 86.2002 174 76.9002 176.4C77.4002 176.8 77.9002 177.2 78.5002 177.5C95.8002 160.5 114 144.5 133.2 129.7C138.6 125.6 144 121.5 149.5 117.6C149.9 117.3 150.8 116.7 150.2 116.2C149.7 115.7 148.3 116.2 147.7 116.3C131.8 121.6 115.8 126.8 99.9002 132.1C84.0002 137.4 68.0002 142.6 52.1002 147.9C43.1002 150.9 34.1002 153.8 25.1002 156.8C24.6002 157 22.8002 157.7 23.1002 158.5C23.4002 159.4 25.3002 158.8 25.8002 158.6Z" fill="white"/>
</g>
<mask id="mask2_201_673" style="mask-type:luminance" maskUnits="userSpaceOnUse" x="51" y="51" width="398" height="398">
<path d="M250 448.5C359.629 448.5 448.5 359.629 448.5 250C448.5 140.371 359.629 51.5 250 51.5C140.371 51.5 51.5 140.371 51.5 250C51.5 359.629 140.371 448.5 250 448.5Z" fill="white"/>
</mask>
<g mask="url(#mask2_201_673)">
<path d="M465.3 186.7C435.3 198.7 405 209.6 374.3 219.6C343.7 229.5 312.9 238.4 281.7 246.3C264.2 250.7 246.6 254.8 228.9 258.6C226.4 259.1 228.4 263.5 230.5 263.2C254.1 260.6 277.7 258.2 301.3 256.1C324.8 253.9 348.3 252 371.9 250.3C385.2 249.3 398.6 248.4 411.9 247.5C411.2 246 410.5 244.5 409.8 243C377.4 254.9 345.7 268.5 314.8 283.9C306.1 288.2 297.5 292.7 289 297.2C286.9 298.3 289.3 301.7 291.1 301.7C319 300.8 346.9 299.9 374.8 299C382.7 298.7 390.7 298.5 398.6 298.2C398.1 296.7 397.5 295.1 397 293.6C360.3 306.1 323.6 318.6 286.8 331.1C276.4 334.6 266 338.2 255.6 341.7C253.3 342.5 255 345.9 256.8 346.3C291.2 354.2 325.7 361 360.5 366.9C395.2 372.8 430.2 377.6 465.2 381.5C484.8 383.7 504.5 385.5 524.1 387C526.9 387.2 525.6 382.6 523.4 382.4C488.3 379.7 453.2 375.9 418.3 371.2C383.4 366.5 348.6 360.7 314 353.9C294.6 350.1 275.3 346 256.1 341.6C256.5 343.1 256.9 344.7 257.3 346.2C294 333.7 330.7 321.2 367.5 308.7C377.9 305.2 388.3 301.6 398.7 298.1C401.2 297.3 399.2 293.4 397.1 293.5C369.2 294.4 341.3 295.3 313.4 296.2C305.5 296.5 297.5 296.7 289.6 297C290.3 298.5 291 300 291.7 301.5C322.1 285.2 353.4 270.6 385.4 257.7C394.4 254.1 403.4 250.6 412.5 247.3C413.5 246.9 413.2 245.2 412.9 244.6C412.4 243.7 411.6 242.8 410.5 242.9C386.8 244.4 363.2 246.1 339.6 248.1C316.1 250 292.6 252.2 269.1 254.5C255.8 255.8 242.5 257.2 229.2 258.7C229.7 260.2 230.3 261.8 230.8 263.3C262.5 256.5 294 248.7 325.1 239.9C356.1 231.1 386.7 221.3 417 210.5C434.1 204.4 451.1 198 468 191.2C469.9 190.2 467.5 185.8 465.3 186.7Z" fill="white"/>
</g>
<mask id="mask3_201_673" style="mask-type:luminance" maskUnits="userSpaceOnUse" x="51" y="51" width="398" height="398">
<path d="M250 448.5C359.629 448.5 448.5 359.629 448.5 250C448.5 140.371 359.629 51.5 250 51.5C140.371 51.5 51.5 140.371 51.5 250C51.5 359.629 140.371 448.5 250 448.5Z" fill="white"/>
</mask>
<g mask="url(#mask3_201_673)">
<path d="M68.4002 328.1C94.2002 322.6 120 317.1 145.8 311.7C171.6 306.3 197.4 300.7 223.2 295.3C237.7 292.2 252.2 289.2 266.7 286.1C266.5 284.7 266.4 283.3 266.2 281.8C245.1 291.8 223.4 300.6 201.4 308.7C179.4 316.8 157.2 324.1 134.9 331.2C122.3 335.2 109.8 339.1 97.2002 342.9C94.8002 343.6 94.7002 347.6 97.7002 347.2C116.4 344.5 135.1 341.8 153.8 339C172.5 336.2 191.2 333.6 209.9 330.8C220.4 329.3 231 327.7 241.5 326.2C241.3 324.8 241.2 323.4 241 321.9C215.2 331.7 189.4 341.5 163.6 351.3C156.3 354.1 149 356.9 141.7 359.6C139.8 360.3 138.9 363.5 141.5 363.9C163.1 366.5 184.8 369.2 206.4 372.1C228.1 375 249.7 378.2 271.4 381.5C283.6 383.4 295.7 385.3 307.8 387.3C308.1 385.8 308.3 384.4 308.6 382.9C285.7 383.9 262.8 384.9 239.9 386C217.1 387 194.2 388 171.4 389C158.5 389.6 145.7 390.1 132.8 390.7C130.7 390.8 129.2 393.9 131.5 395C150.8 403.9 171.9 408.1 192.5 412.7C214.5 417.6 236.6 422.5 258.6 427.4C271 430.1 283.3 432.9 295.7 435.6C296 434.1 296.2 432.7 296.5 431.2C272 434.1 247.4 436.5 222.7 438.3C198.1 440.2 173.4 441.5 148.7 442.3C134.8 442.8 120.9 443 107.1 443.1C105.9 443.1 104.7 444.4 104.6 445.6C104.6 447 105.7 447.5 106.9 447.5C131.6 447.3 156.3 446.6 181 445.3C205.7 444 230.3 442.2 254.9 439.9C268.7 438.6 282.5 437.1 296.3 435.5C298.7 435.2 299.9 431.7 297.1 431.1C275.2 426.2 253.2 421.3 231.3 416.5C220.4 414.1 209.5 411.7 198.6 409.2C188.2 406.9 177.7 404.7 167.4 402.1C156 399.2 144.7 395.7 134.1 390.8C133.7 392.2 133.2 393.6 132.8 395.1C155.7 394.1 178.6 393.1 201.5 392C224.3 391 247.2 390 270 389C282.9 388.4 295.7 387.9 308.6 387.3C311 387.2 312.2 383.4 309.4 382.9C287.9 379.4 266.4 376 244.8 372.8C223.2 369.6 201.5 366.7 179.8 363.9C167.6 362.3 155.4 360.8 143.2 359.4C143.1 360.8 143.1 362.2 143 363.7C168.8 353.9 194.6 344.1 220.4 334.3C227.7 331.5 235 328.7 242.3 326C243.3 325.6 244.3 324.6 244.1 323.4C244 322.3 242.9 321.6 241.8 321.8C223.1 324.5 204.4 327.2 185.7 330C167 332.8 148.3 335.4 129.6 338.2C119.1 339.7 108.5 341.3 98.0002 342.8C98.2002 344.2 98.3002 345.6 98.5002 347.1C120.9 340.2 143.2 333.3 165.5 325.9C187.7 318.5 209.7 310.7 231.4 301.8C243.6 296.8 255.6 291.6 267.5 286C268.5 285.5 269.5 284.6 269.3 283.4C269.2 282.3 268.1 281.5 267 281.8C241.2 287.3 215.4 292.8 189.6 298.2C163.8 303.6 138 309.2 112.2 314.6C97.7002 317.7 83.2002 320.7 68.7002 323.8C67.5002 324.1 66.3002 324.9 66.2002 326.3C66.0002 327.3 67.2002 328.3 68.4002 328.1Z" fill="white"/>
</g>
<mask id="mask4_201_673" style="mask-type:luminance" maskUnits="userSpaceOnUse" x="51" y="51" width="398" height="398">
<path d="M250 448.5C359.629 448.5 448.5 359.629 448.5 250C448.5 140.371 359.629 51.5 250 51.5C140.371 51.5 51.5 140.371 51.5 250C51.5 359.629 140.371 448.5 250 448.5Z" fill="white"/>
</mask>
<g mask="url(#mask4_201_673)">
<path d="M383.9 408.5C351.8 408.7 319.7 408.8 287.5 409C278.3 409 269.2 409.1 260 409.1C259.1 409.1 258.7 409.6 259.1 410.4C259.6 411.3 260.9 411.9 261.8 412.1C278 415.8 294.2 419.5 310.3 423.3C326.6 427 342.8 430.8 359.1 434.5C368.2 436.6 377.4 438.7 386.5 440.8C387.3 441 388.4 440.8 388 439.7C387.6 438.7 386.1 438 385.1 437.8C368.9 434.1 352.7 430.4 336.6 426.6C320.3 422.9 304.1 419.1 287.8 415.4C278.7 413.3 269.5 411.2 260.4 409.1C261 410.1 261.7 411.1 262.3 412.1C294.4 411.9 326.5 411.8 358.7 411.6C367.9 411.6 377 411.5 386.2 411.5C387.2 411.5 387.5 410.8 387 410C386.4 409.2 385 408.5 383.9 408.5Z" fill="white"/>
</g>
<mask id="mask5_201_673" style="mask-type:luminance" maskUnits="userSpaceOnUse" x="51" y="51" width="398" height="398">
<path d="M250 448.5C359.629 448.5 448.5 359.629 448.5 250C448.5 140.371 359.629 51.5 250 51.5C140.371 51.5 51.5 140.371 51.5 250C51.5 359.629 140.371 448.5 250 448.5Z" fill="white"/>
</mask>
<g mask="url(#mask5_201_673)">
<path d="M293.8 56.3C273.9 61.6 253.6 65.7 233.1 68.3C227.3 69 221.4 69.7 215.6 70.2C214.6 70.3 213.3 70.8 213 71.8C212.7 72.8 213.6 73.3 214.5 73.4C242.1 76 269.8 77.7 297.5 78.5C305.3 78.7 313.1 78.9 320.9 79C322 79 323.5 78.7 324.1 77.6C324.6 76.6 323.7 75.8 322.7 75.8C295 75.4 267.3 74.2 239.7 72.1C231.9 71.5 224.1 70.9 216.4 70.1C216 71.2 215.6 72.2 215.2 73.3C236.1 71.5 256.9 68.2 277.4 63.6C283.2 62.3 289 60.8 294.8 59.3C295.7 59.1 297.1 58.3 296.8 57.2C296.4 56 294.6 56.1 293.8 56.3Z" fill="white"/>
</g>
<mask id="mask6_201_673" style="mask-type:luminance" maskUnits="userSpaceOnUse" x="51" y="51" width="398" height="398">
<path d="M250 448.5C359.629 448.5 448.5 359.629 448.5 250C448.5 140.371 359.629 51.5 250 51.5C140.371 51.5 51.5 140.371 51.5 250C51.5 359.629 140.371 448.5 250 448.5Z" fill="white"/>
</mask>
<g mask="url(#mask6_201_673)">
<path d="M359.1 92.3C340.5 96.9 321.9 101.5 303.3 106.1C298 107.4 292.6 108.7 287.3 110C286.7 110.1 285.3 110.5 285.6 111.3C285.9 112.1 287.5 112.1 288.1 112C309.6 111.2 331.1 110.3 352.5 109.5C358.6 109.3 364.6 109 370.7 108.8C371.3 108.8 373.2 108.4 373.1 107.5C373 106.5 371.1 106.6 370.5 106.6C349 107.4 327.5 108.3 306.1 109.1C300 109.3 294 109.6 287.9 109.8C288.2 110.5 288.5 111.2 288.7 111.9C307.3 107.3 325.9 102.7 344.5 98.1C349.8 96.8 355.2 95.5 360.5 94.2C361.1 94 362.6 93.6 362.1 92.7C361.7 91.9 359.8 92.1 359.1 92.3Z" fill="white"/>
</g>
<mask id="mask7_201_673" style="mask-type:luminance" maskUnits="userSpaceOnUse" x="51" y="51" width="398" height="398">
<path d="M250 448.5C359.629 448.5 448.5 359.629 448.5 250C448.5 140.371 359.629 51.5 250 51.5C140.371 51.5 51.5 140.371 51.5 250C51.5 359.629 140.371 448.5 250 448.5Z" fill="white"/>
</mask>
<g mask="url(#mask7_201_673)">
<path d="M385.2 113.9C364.8 122.5 343.9 129.8 322.6 135.6C316.6 137.3 310.5 138.8 304.4 140.2C303.8 140.3 302.9 140.7 303.2 141.5C303.5 142.3 304.9 142.4 305.6 142.5C312.1 143 318.7 142.1 325.1 141C331.6 139.9 338 138.7 344.5 137.8C357.5 135.9 370.6 134.7 383.7 134.2C391 133.9 398.3 133.8 405.5 133.9C404.8 133.3 404.1 132.7 403.4 132C381.8 148.1 357.1 159.5 335.5 175.6C329.4 180.1 323.6 185 318.3 190.4C317.6 191.1 318.1 191.6 318.9 191.9C319.9 192.3 321.2 192.3 322.2 191.9C337.9 185.9 353.8 180.3 369.8 175.1C385.8 169.9 401.9 165 418.1 160.4C427.3 157.8 436.4 155.4 445.6 153.1C446.4 152.9 447.3 152.3 446.6 151.5C445.9 150.7 444.1 150.7 443.2 150.9C426.7 155.1 410.3 159.6 394.1 164.5C377.9 169.4 361.8 174.6 345.8 180.2C336.8 183.4 327.7 186.6 318.8 190C320.1 190.5 321.4 191.1 322.7 191.6C341.8 172.4 366.2 160.1 388.9 146C395.4 142 401.8 137.8 407.9 133.2C409.3 132.1 406.5 131.4 405.8 131.3C379.4 131 353.1 133.3 327.1 138C320.1 139.3 313 140.5 305.8 140C306.2 140.7 306.6 141.5 307 142.2C328.8 137.1 350.3 130.5 371.2 122.6C377.1 120.3 383 118 388.9 115.5C389.8 115.1 389.8 114.3 389 113.8C387.7 113.5 386.2 113.5 385.2 113.9Z" fill="white"/>
</g>
<mask id="mask8_201_673" style="mask-type:luminance" maskUnits="userSpaceOnUse" x="51" y="51" width="398" height="398">
<path d="M250 448.5C359.629 448.5 448.5 359.629 448.5 250C448.5 140.371 359.629 51.5 250 51.5C140.371 51.5 51.5 140.371 51.5 250C51.5 359.629 140.371 448.5 250 448.5Z" fill="white"/>
</mask>
<g mask="url(#mask8_201_673)">
<path d="M44.3001 205.4C62.1001 198.6 79.9001 191.5 97.5001 184.1C96.8001 184.3 96.1002 184.4 95.3001 184.6C79.1001 197 62.2001 208.5 44.8001 219C39.8001 222 34.8001 224.9 29.8001 227.8C29.1001 228.2 29.2001 228.4 30.0001 228.2C31.1001 227.9 32.2001 227.4 33.2001 226.8C51.2001 216.6 68.6001 205.5 85.4001 193.5C90.1001 190.1 94.8001 186.7 99.4001 183.2C99.8001 182.9 99.6002 183 99.3001 182.9C98.7001 182.8 97.8001 183.4 97.3001 183.6C80.1001 190.8 62.8001 197.7 45.4001 204.3C44.9001 204.5 42.8001 205.2 42.7001 205.7C42.4001 206.2 44.1001 205.5 44.3001 205.4Z" fill="white"/>
</g>
<mask id="mask9_201_673" style="mask-type:luminance" maskUnits="userSpaceOnUse" x="51" y="51" width="398" height="398">
<path d="M250 448.5C359.629 448.5 448.5 359.629 448.5 250C448.5 140.371 359.629 51.5 250 51.5C140.371 51.5 51.5 140.371 51.5 250C51.5 359.629 140.371 448.5 250 448.5Z" fill="white"/>
</mask>
<g mask="url(#mask9_201_673)">
<path d="M35.7 240.4C56.7 236.9 77.7 234.1 98.9 232C104.9 231.4 110.8 230.9 116.8 230.4C116.7 229.2 116.5 228 116.4 226.8C85.9 235.6 55.4 244.4 25.3 254.5C16.8 257.3 8.39999 260.3 -0.100012 263.3C-1.10001 263.7 -2.30001 264.5 -2.00001 265.7C-1.70001 266.8 -1.14441e-05 267 0.899988 266.7C30.7 255.8 61.1 246.6 91.6 237.7C100.2 235.2 108.8 232.7 117.4 230.2C118.3 229.9 119.4 229.1 119.3 228C119.2 226.9 118 226.6 117 226.6C95.8 228.3 74.7 230.8 53.7 233.9C47.8 234.8 41.9 235.7 36 236.7C34.9 236.9 33.5 237.5 33.4 238.8C33.3 240 34.7 240.6 35.7 240.4Z" fill="white"/>
</g>
<mask id="mask10_201_673" style="mask-type:luminance" maskUnits="userSpaceOnUse" x="51" y="51" width="398" height="398">
<path d="M250 448.5C359.629 448.5 448.5 359.629 448.5 250C448.5 140.371 359.629 51.5 250 51.5C140.371 51.5 51.5 140.371 51.5 250C51.5 359.629 140.371 448.5 250 448.5Z" fill="white"/>
</mask>
<g mask="url(#mask10_201_673)">
<path d="M44.2998 280.1C63.5998 279.8 82.8998 279.4 102.2 279.1C101.5 277.8 100.8 276.5 100.1 275.3C80.4998 279.9 61.4998 287.1 43.7998 296.5C38.7998 299.2 33.7998 302 28.9998 305.1C26.9998 306.4 30.6998 309.7 32.4998 308.5C49.2998 297.9 67.4998 289.5 86.4998 283.5C91.8998 281.8 97.2998 280.3 102.8 279C103.8 278.8 103.9 277.7 103.5 276.9C103 276 101.8 275.2 100.7 275.2C81.3998 275.5 62.0998 275.9 42.7998 276.2C41.6998 276.2 41.0998 277.1 41.4998 278.1C41.7998 279.2 43.1998 280.1 44.2998 280.1Z" fill="white"/>
</g>
<mask id="mask11_201_673" style="mask-type:luminance" maskUnits="userSpaceOnUse" x="51" y="51" width="398" height="398">
<path d="M250 448.5C359.629 448.5 448.5 359.629 448.5 250C448.5 140.371 359.629 51.5 250 51.5C140.371 51.5 51.5 140.371 51.5 250C51.5 359.629 140.371 448.5 250 448.5Z" fill="white"/>
</mask>
<g mask="url(#mask11_201_673)">
<path d="M459.7 207.3C440.6 213.3 421.5 219.3 402.4 225.3C400.5 225.9 401.7 227.8 402.9 228.4C409 231.4 415.9 232 422.5 232.7C428.6 233.4 434.9 234.2 440 237.9C439.9 237.1 439.7 236.2 439.6 235.4C418.2 249.5 395.7 262.1 372.5 273.1C365.9 276.2 359.3 279.2 352.6 282C351.8 282.3 351.4 283.2 351.8 284C352.2 284.9 353.5 285.4 354.4 285.4C375.1 285.1 395.9 284.9 416.6 285.8C422.5 286.1 428.3 286.4 434.1 286.9C433.4 285.9 432.6 284.8 431.9 283.8C408.4 300.1 381.1 309.1 355 320C347.5 323.1 340.1 326.4 332.9 330C330.9 331 332.5 332.9 334 333.3C349.6 337.5 365.4 341.3 381.2 344.6C397.1 347.9 413.1 350.8 429.2 353.2C438.2 354.6 447.3 355.8 456.4 356.8C457.4 356.9 458.9 356.8 459.2 355.6C459.5 354.5 458.1 353.5 457.1 353.4C441 351.5 425 349.2 409 346.4C393 343.6 377 340.3 361.2 336.6C352.3 334.5 343.4 332.3 334.6 329.9C335 331 335.3 332.1 335.7 333.2C361.4 320.3 389.2 312 414.8 298.8C422 295.1 429 291 435.6 286.4C436.3 285.9 436.2 285 435.8 284.4C435.2 283.6 434.3 283.3 433.4 283.2C412.7 281.5 392 281.3 371.3 281.5C365.4 281.5 359.6 281.6 353.7 281.7C354.3 282.8 354.9 284 355.5 285.1C379.5 275 402.7 263.1 425 249.7C431.2 245.9 437.4 242.1 443.4 238C444.4 237.3 443.8 236 443 235.5C437.4 231.4 430.5 230.2 423.8 229.4C417.4 228.7 410.8 228.3 404.9 225.4C405.1 226.4 405.2 227.5 405.4 228.5C424.5 222.5 443.6 216.5 462.7 210.5C463.8 210.2 463.9 208.8 463.2 208.1C462.3 207.1 460.9 206.9 459.7 207.3Z" fill="white"/>
</g>
<mask id="mask12_201_673" style="mask-type:luminance" maskUnits="userSpaceOnUse" x="51" y="51" width="398" height="398">
<path d="M250 448.5C359.629 448.5 448.5 359.629 448.5 250C448.5 140.371 359.629 51.5 250 51.5C140.371 51.5 51.5 140.371 51.5 250C51.5 359.629 140.371 448.5 250 448.5Z" fill="white"/>
</mask>
<g mask="url(#mask12_201_673)">
<path d="M411.6 388.6C392.4 387.8 373.3 385.9 354.4 382.9C349 382 343.6 381.1 338.2 380C337.3 379.8 336.3 380 335.7 380.7C335.2 381.3 335.2 382.3 335.8 382.9C352.9 399.4 375.1 408.5 395.1 420.8C400.7 424.2 406.2 428 411.3 432.2C413.4 433.9 417 431.4 414.4 429.4C396.3 414.6 374.3 406.1 355 393.1C349.6 389.5 344.4 385.5 339.7 381C338.9 382 338.1 383 337.3 384C356.5 387.7 375.9 390.3 395.3 391.8C400.8 392.2 406.4 392.5 412 392.7C413.1 392.7 414.3 391.9 414.2 390.7C414.2 389.3 412.8 388.7 411.6 388.6Z" fill="white"/>
</g>
<mask id="mask13_201_673" style="mask-type:luminance" maskUnits="userSpaceOnUse" x="51" y="51" width="398" height="398">
<path d="M250 448.5C359.629 448.5 448.5 359.629 448.5 250C448.5 140.371 359.629 51.5 250 51.5C140.371 51.5 51.5 140.371 51.5 250C51.5 359.629 140.371 448.5 250 448.5Z" fill="white"/>
</mask>
<g mask="url(#mask13_201_673)">
<path d="M88.7001 371.2C107.6 371.7 126.2 375.5 144.7 379.2C144.5 378.1 144.3 377 144.1 375.9C127.7 377.7 111.3 379.9 95.0001 382.5C90.4001 383.2 85.8001 384 81.1001 384.8C80.1001 385 79.2001 385.8 79.7001 386.8C80.2001 387.8 81.8001 388.3 82.9001 388.1C99.2001 385.3 115.5 382.9 131.9 380.8C136.5 380.2 141.2 379.7 145.8 379.2C146.6 379.1 147.5 378.5 147.3 377.6C147.2 376.7 146 376.1 145.2 375.9C126.3 372 107.2 368.2 87.9001 367.7C86.9001 367.7 85.6001 368.1 85.8001 369.3C86.1001 370.6 87.7001 371.2 88.7001 371.2Z" fill="white"/>
</g>
<mask id="mask14_201_673" style="mask-type:luminance" maskUnits="userSpaceOnUse" x="51" y="51" width="398" height="398">
<path d="M250 448.5C359.629 448.5 448.5 359.629 448.5 250C448.5 140.371 359.629 51.5 250 51.5C140.371 51.5 51.5 140.371 51.5 250C51.5 359.629 140.371 448.5 250 448.5Z" fill="white"/>
</mask>
<g mask="url(#mask14_201_673)">
<path d="M126.9 415.8C136.9 413.9 147.1 415.4 157.1 416.8C167.2 418.2 177.2 419.9 187.2 421.8C192.9 422.9 198.5 424.1 204.2 425.3C203.6 424 203 422.8 202.3 421.5C174.8 422.8 147.3 424.7 119.9 427.2C112.2 427.9 104.5 428.7 96.7001 429.5C95.6001 429.6 96.7001 431.4 97.0001 431.8C97.7001 432.6 98.7001 433.4 99.8001 433.3C127 430.5 154.2 428.3 181.5 426.6C189.2 426.1 196.9 425.7 204.6 425.4C205.6 425.4 205.5 424.5 205.2 423.8C204.8 422.9 203.8 421.8 202.7 421.6C192.5 419.3 182.2 417.3 171.8 415.5C161.6 413.8 151.3 412 141 411.2C135.2 410.7 129.4 410.8 123.7 411.9C122.6 412.1 123.6 413.8 124 414.2C124.7 415.1 125.9 416 126.9 415.8Z" fill="white"/>
</g>
<mask id="mask15_201_673" style="mask-type:luminance" maskUnits="userSpaceOnUse" x="51" y="51" width="398" height="398">
<path d="M250 448.5C359.629 448.5 448.5 359.629 448.5 250C448.5 140.371 359.629 51.5 250 51.5C140.371 51.5 51.5 140.371 51.5 250C51.5 359.629 140.371 448.5 250 448.5Z" fill="white"/>
</mask>
<g mask="url(#mask15_201_673)">
<path d="M448.5 297.6C433 303.4 417.4 309.3 402 315.3C397.6 317 393.2 318.7 388.9 320.4C387.4 321 387.3 322.9 389 323.4C405.2 327.8 422 328 438.6 328.6C443.5 328.8 448.3 329 453.2 329.2C454.2 329.2 455.7 328.6 455.7 327.4C455.7 326.1 454.1 325.8 453.2 325.7C445 325.4 436.8 325 428.5 324.7C420.5 324.4 412.6 324 404.7 322.9C400.3 322.3 395.9 321.5 391.5 320.3C391.5 321.3 391.5 322.3 391.6 323.3C407 317.2 422.5 311.2 438 305.4C442.4 303.7 446.8 302.1 451.2 300.5C452.2 300.1 452.8 299 452 298.1C451.2 297.1 449.6 297.2 448.5 297.6Z" fill="white"/>
</g>
<mask id="mask16_201_673" style="mask-type:luminance" maskUnits="userSpaceOnUse" x="51" y="51" width="398" height="398">
<path d="M250 448.5C359.629 448.5 448.5 359.629 448.5 250C448.5 140.371 359.629 51.5 250 51.5C140.371 51.5 51.5 140.371 51.5 250C51.5 359.629 140.371 448.5 250 448.5Z" fill="white"/>
</mask>
<g mask="url(#mask16_201_673)">
<path d="M453.2 248.9C437.4 253.5 422.3 260 408.2 268.4C407.7 268.7 408.9 270.1 409.1 270.2C409.8 270.9 410.6 271.5 411.5 271.7C416.3 272.6 421.2 272.5 426.1 272.2C431.1 271.8 436.2 271.3 441.2 271C451.5 270.3 461.8 270.1 472.1 270.4C477.9 270.5 483.7 270.8 489.4 271.3C490.5 271.4 489.9 270.2 489.5 269.8C488.9 269 487.7 268 486.6 267.9C466.2 266.4 445.8 266.8 425.4 268.6C419.8 269.1 414.2 269.4 408.6 268.3C409.7 269.4 410.8 270.5 411.9 271.6C425.9 263.3 440.9 256.9 456.5 252.3C457.8 252 454.6 248.5 453.2 248.9Z" fill="white"/>
</g>
<mask id="mask17_201_673" style="mask-type:luminance" maskUnits="userSpaceOnUse" x="51" y="51" width="398" height="398">
<path d="M250 448.5C359.629 448.5 448.5 359.629 448.5 250C448.5 140.371 359.629 51.5 250 51.5C140.371 51.5 51.5 140.371 51.5 250C51.5 359.629 140.371 448.5 250 448.5Z" fill="white"/>
</mask>
<g mask="url(#mask17_201_673)">
<path d="M414.8 136.9C405.7 143.7 396.6 150.6 387.5 157.4C386.9 157.9 387.8 157.8 388.1 157.7C405 153.5 421.9 149.2 438.8 144.9C443.6 143.7 448.4 142.4 453.3 141.1C454.4 140.8 455.6 140.3 456.5 139.7C457.1 139.2 457.2 138.9 456.3 139.1C439.4 143.5 422.6 147.8 405.7 152.1C400.9 153.3 396 154.5 391.2 155.7C391.4 155.8 391.6 155.9 391.8 156C400.9 149.2 410 142.3 419.1 135.5C419.9 134.9 418.2 135.3 418 135.3C416.8 135.7 415.7 136.2 414.8 136.9Z" fill="white"/>
</g>
<mask id="mask18_201_673" style="mask-type:luminance" maskUnits="userSpaceOnUse" x="51" y="51" width="398" height="398">
<path d="M250 448.5C359.629 448.5 448.5 359.629 448.5 250C448.5 140.371 359.629 51.5 250 51.5C140.371 51.5 51.5 140.371 51.5 250C51.5 359.629 140.371 448.5 250 448.5Z" fill="white"/>
</mask>
<g mask="url(#mask18_201_673)">
<path d="M317.4 60.5999C307.5 62.2999 297.5 63.4999 287.5 64.2999C286.7 64.3999 287.1 64.9999 287.4 65.3999C288.1 66.0999 289.2 66.4999 290.1 66.7999C307.9 71.5999 326 74.6999 344.4 76.2999C345.3 76.3999 345.5 75.8999 344.9 75.1999C344.1 74.3999 342.8 73.7999 341.7 73.6999C323.7 72.1999 305.9 69.0999 288.5 64.3999C289.4 65.1999 290.3 65.9999 291.1 66.8999C301.1 66.0999 311.1 64.8999 321 63.1999C322 62.9999 321.1 62.0999 320.7 61.7999C319.9 61.1999 318.5 60.4999 317.4 60.5999Z" fill="white"/>
</g>
</svg>
