<svg width="500" height="500" viewBox="0 0 500 500" fill="none" xmlns="http://www.w3.org/2000/svg">
<mask id="mask0_201_706" style="mask-type:luminance" maskUnits="userSpaceOnUse" x="51" y="51" width="398" height="398">
<path d="M250 448.5C359.629 448.5 448.5 359.629 448.5 250C448.5 140.371 359.629 51.5 250 51.5C140.371 51.5 51.5 140.371 51.5 250C51.5 359.629 140.371 448.5 250 448.5Z" fill="white"/>
</mask>
<g mask="url(#mask0_201_706)">
<path d="M263.1 224C253.5 208.2 241.8 193.7 228.3 181C228.3 181 227.6 180.3 227.6 180.7C228.7 188.8 230.2 196.9 232.1 204.8C233 208.8 234.1 212.7 235.2 216.7C235.7 218.6 236.3 220.5 236.9 222.4C237.3 223.8 237.7 224.5 236.6 225.7C235.9 226.5 234.8 227.1 233.9 227.7C220.1 238 206.3 248.3 192.5 258.7C192.2 258.9 195 262.7 195.7 262.6C210.2 260.7 224.6 257.9 238.8 254.2C237.7 253 236.7 251.7 235.6 250.5C236.1 262.1 236.5 273.8 237 285.4C237 286 239.9 289.4 240.2 289.1C248.5 279.7 255.6 269.5 261.6 258.5C260.6 257.3 259.5 256.2 258.5 255C262.6 265.3 269.8 274.6 278.6 281.4C278.7 281.5 278.8 281.6 279 281.6C279.7 275.4 280.3 269.1 280.5 262.9C280.6 259.8 280.7 256.7 280.7 253.6C280.7 252.1 280.5 250.4 280.7 248.9C280.9 247.4 280.9 247.4 282.3 247.4C283 247.4 283.8 247.6 284.6 247.6C296.9 248.7 309.4 247.8 321.5 245.1C321.8 245 318.9 241.5 318.5 241.2C309.1 235.2 299.7 229.1 290.3 223.1C291.3 224.4 292.3 225.7 293.3 227C302.9 219.8 309 208.9 310.2 197C310.3 196.3 307.8 193.2 307 193.3C295.3 194.9 283.6 196.6 271.9 198.2C273 199.4 274 200.7 275.1 201.9C271.6 192.1 268.2 182.3 264.7 172.6C264.5 172.1 262.1 168.5 261.5 168.9C256.2 172.6 252 177.3 248.8 182.9C249.7 183.8 250.5 184.7 251.4 185.6C240.8 170 225.8 157.8 207.8 151.9C207.7 151.8 207.6 151.9 207.7 152C208.1 161.2 209 170.5 210.3 179.6C210.9 184.2 211.7 188.8 212.6 193.3C213 195.4 213.4 197.5 213.9 199.7C214.3 201.5 214.4 202 212.8 202.9C211.9 203.4 210.8 203.7 209.8 204.1C192.9 210.7 176.4 218.1 160.2 226.2C160 226.3 162.6 230.1 163.4 230.1C175.4 229.7 187.4 230.8 199.1 233.4C198.1 232.1 197.1 230.8 196.1 229.5C182.2 243.5 168.4 257.4 154.5 271.4C154.1 271.8 157.1 275.2 157.7 275.3C165.9 275.7 173.8 278.2 180.6 282.6C179.7 281.4 178.7 280.1 177.8 278.9C167.1 289.8 159.1 303.1 154.5 317.6C154.3 318.3 157 321.7 157.7 321.5C177.3 315 196.2 306.3 214 295.8C212.9 294.6 211.9 293.3 210.8 292.1C213.5 310.1 219.1 327.5 227.4 343.7C227.6 344.1 230.4 347.4 230.5 347.2C236.7 332.4 242 317.2 246.4 301.7C245.3 300.5 244.3 299.2 243.2 298C248.5 314.4 258.4 329.1 271.1 340.8C271 340.7 271.7 341.4 271.8 341.2C276.9 327.4 279 312.7 277.9 298.1C277.3 297.6 276.7 297 276 296.5C286.2 309.4 300.5 318.6 316.8 321.4C316.9 321.5 317 321.4 316.9 321.3C314.5 313 312.2 304.8 309.8 296.5C308.7 292.5 307.5 288.5 306.4 284.6C306.2 283.7 305.7 282.7 305.6 281.8C305.5 280.3 305.5 280.4 306.8 280.1C308.6 279.6 311 279.9 312.9 279.8C328.2 278.6 343.3 274.4 357 267.5C357.2 267.4 356.1 265.9 356.1 265.9C351.1 259.5 346.2 253.1 341.2 246.7C341.5 247.2 341.8 247.8 342.1 248.3C353.2 242.9 362.4 234.4 368.8 223.8C369.2 223.2 366.3 219.9 365.6 219.9C352.9 219.8 340.3 218.7 327.7 216.7C328.7 218 329.7 219.3 330.7 220.6C338.6 202.5 343.7 183.3 345.6 163.7C345.7 163.1 343 159.7 342.4 160C332.9 165.1 323.4 170.1 313.9 175.2C315 176.4 316 177.7 317.1 178.9C316.7 167.2 315.3 155.6 312.9 144.2C312.8 143.7 310.3 140.1 309.7 140.5C300.3 146.5 292.3 154.3 286 163.6C287.1 164.8 288.1 166.1 289.2 167.3C284.2 147 274.1 128.4 260.6 112.5C260.5 112.4 259.3 111.1 259.2 111.3C253.5 123.5 248.8 136.2 245.3 149.2C245.5 149.3 245.7 149.5 246 149.6C230.4 136 211.9 126.3 191.8 121.4C191.7 121.3 191.6 121.4 191.7 121.5C191.7 127.4 191.6 133.3 191.6 139.1C191.6 140.5 191.9 142.5 191.6 143.9C191.1 145.6 189.5 145 188 144.8C185.3 144.6 182.6 144.3 179.8 144.2C168 143.5 156.1 143.5 144.2 144.1C144.1 144.1 146.1 147 146.4 147.2C156.1 156.9 165.8 166.6 175.4 176.3C174.7 175.3 174 174.2 173.2 173.2C157 180.4 140.7 187.5 124.5 194.7C124.1 194.9 127.1 198.3 127.5 198.6C140.1 206.1 153.7 211.6 167.9 215C166.9 213.7 165.9 212.4 164.9 211.1C141.7 220.9 119.8 233.5 99.6 248.5C99.2 248.8 102.1 252.2 102.6 252.4C114 254.8 125.7 255.8 137.3 255.3C136.2 254 135.2 252.7 134.1 251.4C124.2 267.1 114.2 282.8 104.3 298.4C103.9 299 106.8 302.3 107.5 302.3C116.7 301.7 125.9 301.1 135.1 300.6C134 299.3 133 298 131.9 296.7C122.8 312 115.5 328.3 110.1 345.3C109.9 346 112.6 349.3 113.3 349.2C129.6 346.6 145.8 343.2 161.8 338.9C160.7 337.6 159.7 336.3 158.6 335C153.7 350.4 153 366.9 156.7 382.7C156.8 383.2 159.5 386.8 159.9 386.4C172.1 373.1 183.8 359.5 195.1 345.4C194 344.2 193 342.9 191.9 341.7C193.7 360.1 197.4 378.3 203.1 396C203.2 396.5 205.9 400.1 206.3 399.7C217.1 388.9 227.3 377.6 236.7 365.6C235.7 364.6 234.8 363.5 233.8 362.5C241.9 375.5 250.1 388.6 258.2 401.6C258.4 402 261.1 404.8 261.1 404.7C266.6 387.9 269 370.2 268.2 352.5C267.9 352.3 267.5 352.1 267.2 351.9C277.7 362.7 289.3 372.2 302 380.3C302.1 380.4 302.2 380.3 302.1 380.2C300.9 373.3 299.8 366.4 298.6 359.5C298 356.1 297.4 352.6 296.9 349.2C296.7 348.3 295.8 345.4 296.8 344.9C297.1 344.7 299 345.6 299.4 345.7C300.3 346 301.1 346.2 302 346.5C314.6 350 327.6 351.6 340.7 351.2C345.8 351.1 351.6 350 350.1 343.5C349.4 340.3 348 337.2 346.9 334.1C345.7 330.8 344.6 327.6 343.4 324.3C342.2 321 341.1 317.8 339.9 314.5C339.4 313 338.8 311.5 338.3 310.1C338 309.3 337.1 308.2 338.2 307.6C338.5 307.4 340.5 307.7 340.9 307.7C347.4 308 354 307.8 360.5 307.2C375.3 305.9 389.9 302.4 403.8 297C404.1 296.9 401.8 294.1 401.6 293.9C395.8 287.7 390 281.5 384.2 275.2C384.9 276.2 385.6 277.3 386.4 278.3C394.3 272 401.3 264.8 407.5 256.9C407.9 256.4 405 253.1 404.5 253C390.7 251.1 376.9 249.3 363.2 247.4C364.2 248.7 365.2 250 366.2 251.3C379.4 238.6 391.2 224.5 401.4 209.3C401.8 208.8 399 205.5 398.4 205.4C391.9 204.7 385.5 204 379 203.4C380 204.7 381 206 382 207.3C386.1 192.2 390.2 177 394.2 161.9C394.4 161.2 391.7 157.8 391 158C380.9 161.8 370.9 165.6 360.8 169.4C361.9 170.6 362.9 171.9 364 173.1C364.5 156.1 365 139.2 365.5 122.2C365.5 121.6 363 118.2 362.3 118.5C352.4 122.2 343 127 334.2 132.9C335.3 134.1 336.3 135.4 337.4 136.6C335.4 122.4 331.9 108.4 327.1 94.8999C326.9 94.3999 324.6 90.7999 323.9 91.1999C314.5 96.5999 306.7 104.3 301.2 113.6C302 114.3 302.7 115.1 303.5 115.8C294.8 104.8 286.1 93.7999 277.4 82.7999C277.3 82.6999 275.4 80.2999 275.1 80.5999C269.2 86.0999 265.3 93.3999 264.1 101.4C264.9 102.1 265.6 102.9 266.4 103.6C257.4 92.0999 246.9 81.8999 234.9 73.6999C234.8 73.5999 234.7 73.4999 234.5 73.4999C232.5 85.0999 230.5 96.5999 228.5 108.2C228.7 108.3 228.9 108.5 229.2 108.6C219 98.5999 207.4 90.0999 194.7 83.3999H194.6C193.8 89.5999 192.9 95.8999 192.1 102.1C191.9 103.5 192.1 105.4 190.4 105.5C189.1 105.5 187.1 104.5 185.9 104.2C182.9 103.3 179.9 102.4 176.8 101.6C164.9 98.0999 153 94.6999 141 91.1999C140.7 91.0999 140.9 91.4999 141 91.5999C144.8 100.6 148.6 109.6 152.4 118.6C152.9 119.8 153.4 120.9 153.9 122.1C154.3 123.1 155.2 124.5 155.4 125.6C156 126.2 155.9 126.8 155.1 127.1C154.5 127.2 153.8 127.3 153.2 127.4C151.9 127.6 150.7 127.9 149.4 128.1C144.7 129 140 129.8 135.3 130.7C115.9 134.2 96.4 137.8 77 141.3C76.8 141.3 79.5 144.7 79.8 145C97.8 158.3 116.7 170.4 136.3 181.4C135.3 180.1 134.3 178.8 133.3 177.5C117.1 179.8 101.5 185.2 87.3 193.3C86.9 193.5 89.9 196.9 90.3 197.2C101.4 202.3 112.5 207.3 123.7 212.4C122.7 211.1 121.7 209.8 120.7 208.5C102.5 215.7 85.1001 224.9 68.8001 235.9C68.4001 236.2 71.3001 239.6 71.8001 239.8C77.7001 241.9 83.6 244 89.5 246C88.5 244.7 87.5 243.4 86.5 242.1C74 253.9 61.4001 265.7 48.9001 277.6C48.5 278 51.4001 281.3 51.9001 281.5C65.8 284.7 80.2001 285.5 94.3 283.9C93.2001 282.6 92.2 281.3 91.1 280C84.1 294.3 77.1001 308.5 70 322.8C69.7001 323.5 72.5 326.6 73.2 326.7C86 327.7 98.8 326.6 111.3 323.4C110.2 322.1 109.2 320.8 108.1 319.5C94.1 334.9 83.3 353.1 76.5 372.8C76.3 373.5 79 376.8 79.7 376.7C92.1 373.3 104.4 369.9 116.8 366.5C115.7 365.2 114.7 363.9 113.6 362.6C109.3 375.2 107.2 388.4 107.4 401.7C107.4 402.4 109.8 405.5 110.6 405.4C121.5 404 131.8 400 140.7 393.7C139.6 392.5 138.6 391.2 137.5 390C137.1 401.1 137.8 412.1 139.7 423.1C139.8 423.7 142.2 427.2 142.9 426.8C158.7 418.7 174.4 410.7 190.2 402.6C189.2 401.4 188.1 400.3 187.1 399.1C192.1 410 197 420.8 202 431.7C202.2 432.1 204.8 435.5 205.1 435.2C212 426.8 218.9 418.4 225.8 410C224.8 408.8 223.7 407.7 222.7 406.5C228.5 419.4 237.2 431 247.8 440.3C247.8 440.3 248.3 440.8 248.5 440.7C252.8 436.4 256 431.2 258.1 425.5C257.9 425.4 257.7 425.2 257.4 425.1C267.4 434.4 279.4 441.5 292.5 445.5H292.6C293.7 438.3 294.3 431 294.3 423.7C294.3 419.8 294.1 416 293.8 412.1C293.6 410.3 293.4 408.4 293.2 406.6C293.1 405.7 293 404.8 292.8 403.8C292.7 403.3 292.1 401.4 292.4 401.1C292.9 400.5 293.2 401.1 294 401.6C294.5 402 295.1 402.3 295.7 402.7C297.1 403.6 298.6 404.5 300.1 405.3C303.1 407 306.1 408.5 309.2 410C315.7 412.9 322.4 415.3 329.3 417C329.4 417.1 329.5 417 329.4 416.9C328.6 408.2 327.4 399.6 325.7 391.1C325.3 389.1 324.9 387.1 324.5 385.2C324.4 384.6 323.5 382.5 323.8 382C324.4 381 325.3 381.6 326.1 381.8C330.3 382.7 334.5 383.4 338.8 384C355.3 386.3 372 386.5 388.5 384.6V384.5C386.5 377.6 384.5 370.6 382.5 363.7C381.4 360.1 380.4 356.5 379.3 352.9C379 351.7 377.5 349 379.1 348.9C380.4 348.8 382.8 349.9 384.2 350.2C397.2 353.1 410.9 352.4 423.6 348.3C423.7 348.3 423.3 347.5 423.3 347.6C416.6 336.3 409.4 325.3 401.6 314.7C401.9 315.2 402.2 315.8 402.5 316.3C408.8 314.1 415.1 311.9 421.3 309.7C425.7 308.2 432.7 306.9 435.5 302.7C438 298.9 434.2 294.7 431.7 292C427.1 287.1 422.3 282.4 417.6 277.7C418.3 278.7 419 279.8 419.8 280.8C433.1 269.4 446.5 258 459.8 246.6C460.3 246.2 457.2 243 456.8 242.7C446.1 237.8 435.1 234.1 423.6 231.4C424.6 232.7 425.6 234 426.6 235.3C432.7 221.5 440.3 208.4 449.3 196.4C449.7 195.9 446.8 192.5 446.1 192.5C439.4 193.2 432.8 193.9 426.1 194.6C427.2 195.9 428.2 197.2 429.3 198.5C433.2 186.6 437.1 174.6 440.9 162.7C441.2 161.9 438.5 158.9 437.7 158.8C427.5 158.3 417.3 158.7 407.2 160C408.3 161.3 409.3 162.6 410.4 163.9C413.6 149.1 417.7 134.4 422.6 120.1C422.8 119.4 420.1 116.1 419.4 116.2C406.1 118.7 393.1 122.3 380.4 127.1C381.5 128.3 382.5 129.6 383.6 130.8C382.5 114.1 381.5 97.2999 380.4 80.5999C380.4 80.0999 377.7 76.4999 377.2 76.8999C371 81.1999 364.8 85.4999 358.5 89.7999C359.6 90.9999 360.6 92.2999 361.7 93.4999C358.3 79.0999 352.3 65.5999 344.2 53.2999C344 52.8999 342.1 50.2999 341.6 50.5999C330.7 56.0999 321.1 63.5999 313.2 72.8999C314.1 73.7999 314.9 74.6999 315.8 75.5999C307.7 64.2999 299.5 52.9999 291.4 41.5999C291.2 41.2999 289.1 38.5999 288.8 38.8999C285.4 41.9999 282.3 45.2999 279.6 48.8999C278.2 50.7999 276.8 52.6999 275.6 54.6999C275.2 55.3999 274.6 57.0999 273.9 57.4999C272.8 58.1999 271.3 56.4999 270.4 55.7999C261.9 49.3999 253.3 43.0999 244.8 36.6999C244.7 36.5999 244.6 36.4999 244.4 36.4999C239.3 42.6999 235.2 49.4999 232.2 56.8999C232.7 57.2999 233.1 57.6999 233.6 58.0999C226.1 49.8999 217.6 42.8999 207.9 37.4999H207.8C205.8 42.8999 203.7 48.2999 201.7 53.6999C201.2 55.1999 200.6 56.5999 200.1 58.0999C199.6 59.2999 199.3 60.8999 198.6 61.9999C198.1 62.8999 198.1 63.2999 196.9 62.9999C196.4 62.8999 195.7 62.2999 195.3 61.9999C194 61.1999 192.6 60.2999 191.3 59.4999C181.2 53.0999 171.1 46.7999 161 40.3999H160.9C157.7 45.1999 155.3 50.5999 154 56.1999C153.4 58.6999 153 61.2999 152.8 63.8999C152.7 65.3999 152.7 66.8999 152.7 68.2999C152.7 68.5999 153 70.0999 152.8 70.2999C152.2 70.9999 151.1 70.1999 150.5 69.9999C138.4 65.1999 125.9 61.5999 113.1 59.1999C113 59.0999 112.9 59.1999 113 59.2999C113.1 66.5999 114 73.8999 115.7 80.9999C116.1 82.8999 116.6 84.7999 117.2 86.5999C117.4 87.1999 118.1 88.5999 118 89.1999C117.7 90.2999 116.3 90.0999 115.5 90.1999C111.7 90.4999 108 90.7999 104.2 90.9999C88.6 91.7999 72.9 91.3999 57.3 89.6999C56.9 89.6999 58.7001 92.0999 58.9001 92.2999C67.2001 101.7 75.6 111.2 83.9 120.6C83.3 119.7 82.7 118.8 82.1 117.9C65.2 124.9 49.3 134.1 34.7001 145.1C34.2001 145.5 37.3001 148.7 37.7001 149C48 155.1 58.3 161.3 68.5 167.4C67.5 166.1 66.5 164.8 65.5 163.5C48.5 171.1 32.5 180.6 17.8 192C17.4 192.3 20.3 195.7 20.8 195.9C32.1 200.1 43.1 205.1 53.6 211.1C52.6 209.8 51.6 208.5 50.6 207.2C44.3 213.4 37.9 219.7 31.6 225.9C28.4 229 25.3 232.1 22.1 235.3C19.8 237.6 16 240.3 16 243.8C16 246.5 18.2 249 20 250.9C22.3 253.3 25 254.8 27.8 256.5C35.4 261.1 43 265.8 50.7001 270.4C49.7001 269.1 48.7001 267.8 47.7001 266.5C34.4001 276 22.7 287.6 13 300.8C12.6 301.4 15.5 304.5 16 304.7C23.8 307.2 31.6001 309.7 39.4001 312.1C43.0001 313.2 46.6001 314.7 50.2001 315.6C51.1001 316.1 51 316 50 315.2C50.1 315.9 50 316.7 49.8 317.4C49.6 318.2 49.3 318.9 49 319.6C48.2001 321.5 47.4 323.4 46.6 325.3C40 340.5 33.4 355.8 26.8 371C26.5 371.7 29.3 375 30 374.9C44.3 373 58.7001 371.1 73 369.2C71.9001 367.9 70.9001 366.6 69.8001 365.3C68.4001 373.1 67.4 381 66.7 388.9C66.1 396.8 65.5 405 66.1 412.9C66.5 418.4 68.7 423.5 73.1 427.1C75.5 429 78.4 429.6 81.3 429.7C85.1001 429.9 89 429.7 92.8 429.6C102.3 429.3 111.7 428.6 121.1 427.4C120 426.2 119 424.9 117.9 423.7C118.2 436.5 118.6 449.3 118.9 462C118.9 462.6 121.4 466 122.1 465.7C131.9 461.7 141.8 457.6 151.6 453.6C156.6 451.6 161.5 449.5 166.5 447.5C167.5 447.1 168.5 446.7 169.6 446.5C170.2 446.4 170.8 446.3 171.5 446.3C172 446.3 172.9 446.7 173.3 446.7C173.4 446.7 173.5 446.8 173.7 446.8C173.3 446.1 173.1 446 173.3 446.5C173.2 446.8 173.5 447.3 173.6 447.6C173.8 448.5 173.9 449.3 173.9 450.2C174.1 453.4 174.1 456.6 175.7 459.5C177.1 461.9 179.1 464.3 181.5 465.8C186.7 469 194 467.8 199.1 465C207 460.6 212.6 452.7 221.9 451C221.1 450.3 220.4 449.5 219.6 448.8C228.4 460.2 238.4 470.5 249.7 479.5C254.6 483.4 260.5 488.3 267.2 486.1C270.3 485.1 272.9 482.8 275.2 480.6C278.1 477.8 281 474.8 283.9 472C290.6 465.4 297.2 458.7 303.9 452.1C303.7 452 303.5 451.8 303.2 451.7C309.3 457.1 315.9 461.9 323.1 465.8C326.2 467.5 330.5 470.4 334.3 469.9C337.7 469.4 339.1 465.9 339.9 462.9C342.2 453.8 343.9 444.4 345.8 435.2C346.5 431.7 346.8 426.7 350.1 424.5C353.6 422.2 359 422.9 362.9 423.5C376.5 425.8 391.8 434.8 405 425.8C410.7 422 411.9 415.9 410.9 409.5C409.8 402.5 407.3 394.6 413.6 389.3C418.4 385.2 425.1 384.4 430.5 381.3C436.3 378 439.4 372.1 440.4 365.6C441.4 358.9 440.6 352.2 439.5 345.6C438.8 341.5 439.1 337.9 442.9 335.5C446.5 333.3 450.8 332.1 454.6 330.5C462.8 326.9 470.9 322.9 478.7 318.4C482.3 316.3 486 314.2 489.4 311.9C492.2 310 494.9 307.5 496.1 304.2C497.4 300.4 496 296.4 494.3 293C492.5 289.4 490.4 286 488.2 282.7C485.8 279.2 483.3 275.8 480.5 272.6C478 269.6 474.2 266.6 476 262.3C477.2 259.5 480.1 257.5 482.5 255.8C485 253.9 487.5 252 489.1 249.3C492.3 243.9 492 237.1 489.9 231.3C484.9 217.7 471.9 210.3 458.5 206.9C454.8 205.9 451 205.2 447.2 204.5C448.2 205.8 449.2 207.1 450.2 208.4C454.9 200.9 459.6 193.5 464.4 186C467.8 180.7 474.5 173.1 471.6 166.3C469 160.3 463.1 157.4 457.5 154.8C450 151.3 442.3 148.4 434.4 146C435.4 147.3 436.4 148.6 437.4 149.9C447 136.2 454.1 120.8 458.3 104.6C459.3 100.6 460.2 96.4999 460.9 92.2999C461.4 88.9999 461.8 85.4999 460.7 82.1999C459.8 79.3999 457.7 76.7999 455.5 74.8999C453 72.6999 449.8 72.0999 446.6 71.8999C437.5 71.1999 428.4 71.1999 419.3 70.7999C415.7 70.6999 411.9 70.6999 408.5 69.0999C406.5 68.1999 406.5 67.2999 406.2 64.9999C405.9 63.0999 405.9 61.1999 405.6 59.2999C404.7 53.5999 400.6 48.3999 396 44.9999C391 41.3999 384.7 39.6999 378.6 39.7999C368.6 39.8999 359 43.4999 349.1 43.5999C342.1 43.6999 331.3 41.6999 328.7 34.1999C328.4 33.2999 327.6 32.3999 326.9 31.6999C326.7 31.4999 325.4 30.3999 325.5 30.5999C329.8 42.9999 342.9 48.2999 355.2 47.2999C364 46.5999 372.5 43.7999 381.4 43.5999C384.9 43.4999 388.4 43.9999 391.7 45.0999C394.7 46.0999 398.4 47.5999 400.4 50.0999C402.7 52.8999 402.6 57.0999 402.9 60.5999C403.3 63.9999 404.6 66.6999 406.8 69.2999C411.5 74.6999 418.2 74.4999 424.8 74.7999C429.4 74.9999 434.1 75.1999 438.7 75.2999C443 75.4999 447.5 75.2999 451.9 75.9999C453.4 76.1999 455.7 76.5999 456.9 77.5999C458 78.5999 458.1 81.2999 458.2 82.7999C458.3 86.8999 457.3 91.0999 456.5 94.9999C452.6 113.3 444.9 130.6 434.2 146C433.8 146.6 436.7 149.7 437.2 149.9C443.7 151.9 450.1 154.2 456.3 156.9C459.3 158.2 462.4 159.6 465.3 161.1C466.5 161.7 468.1 162.4 468.6 163.5C469.3 165 469 167 468.6 168.6C467.9 171.5 466.2 174.1 464.6 176.6C462.6 179.8 460.6 183 458.5 186.2C454.6 192.3 450.7 198.5 446.9 204.6C446.5 205.2 449.3 208.3 449.9 208.5C457.2 209.9 464.5 211.3 471.3 214.2C474.8 215.7 478.1 217.5 481.1 220C484 222.4 485.7 225.5 486.9 229.1C488.8 235 488.6 242 484.7 247.1C481.3 251.6 474 253.7 472.3 259.4C470.5 265.6 478.3 271.4 481.6 275.6C484.3 279 486.7 282.6 488.9 286.3C491.2 290.2 493.9 294.8 492.9 299.5C491.5 306.4 482.7 310.4 477.2 313.6C469.8 317.9 462.2 321.8 454.4 325.4C450.6 327.1 446.7 328.7 442.7 330.3C439.3 331.7 436.1 333.5 435.7 337.6C435.4 340.7 436.4 343.9 436.8 346.9C437.3 350.3 437.5 353.7 437.4 357.1C437.2 363.4 435.7 370.1 431 374.6C426.6 379 420.3 380.2 414.9 382.7C409.1 385.4 405.5 389.8 405.9 396.4C406.3 403.3 409.8 410.6 406.2 417.1C403.4 422.2 397.5 424.7 392 425.6C384.6 426.7 377.6 424.6 370.6 422.5C366.5 421.3 362.4 420.1 358.1 419.5C354.7 419.1 350.5 418.7 347.4 420.3C343.9 422.1 343.5 426.5 342.8 430C341.8 434.5 340.9 439 339.9 443.4C338.9 447.9 338 452.4 337 456.8C336.4 459.7 335.7 463.3 333.1 465.1C329.7 467.4 325.1 464.4 321.9 462.8C318.1 460.9 314.5 458.7 311 456.3C307.6 453.9 304.3 451.3 301.2 448.6C301.2 448.6 300.7 448.1 300.5 448.2C293.6 455.1 286.7 461.9 279.8 468.8C276.7 471.9 273.7 475.2 270.4 478.1C267.6 480.5 264.4 482.8 260.6 482.9C256.2 483 252.4 480.2 249 477.6C245.6 475 242.2 472.2 239 469.3C232.3 463.3 226.2 456.7 220.7 449.6C220.4 449.2 219.1 447.2 218.4 447.4C210.4 448.9 204.8 455.1 198.4 459.6C193.2 463.3 186 465.6 179.8 463C179.2 462.7 178.3 462.4 177.8 461.9C178.3 462.5 177.7 461.4 177.7 461.3C177.6 460.9 177.5 460.6 177.4 460.2C177 458.4 177 456.6 176.9 454.8C176.7 451.7 176.1 449.2 174.1 446.7C171.9 443.9 169.5 442.3 165.8 443.1C161 444.2 156.3 446.8 151.7 448.7C140.7 453.2 129.7 457.7 118.7 462.2C119.8 463.4 120.8 464.7 121.9 465.9C121.6 453.1 121.2 440.3 120.9 427.6C120.9 426.9 118.5 423.8 117.7 423.9C108.8 425 99.8 425.7 90.8 426C86.6001 426.1 82.5 426.3 78.3 426.2C76.4 426.1 74.4 425.9 72.6 425.2C70.5 424.3 70.1 423.1 69.6 421C68.8 417.4 68.9001 413.7 68.9001 410.1C68.9001 405.8 69.1001 401.4 69.3001 397.1C69.9001 387.9 71 378.7 72.6 369.5C72.7 368.7 70.2001 365.5 69.4001 365.6C55.1001 367.5 40.7 369.4 26.4 371.3C27.5 372.6 28.5 373.9 29.6 375.2C33.5 366.2 37.4 357.2 41.3 348.2C43.2 343.8 45.1001 339.5 46.9001 335.1C48.7001 330.9 50.9001 326.7 52.4001 322.3C53.5 318.9 52.2001 316.7 49.9001 314.2C47.5 311.6 44 311 40.7001 309.9C31.4001 306.9 22.1 304 12.8 301C13.8 302.3 14.8 303.6 15.8 304.9C25.5 291.7 37.2001 280.1 50.5 270.6C51 270.2 47.9001 267 47.5 266.7C41.2001 262.9 34.9 259.1 28.6 255.3C25.6 253.5 22.4 251.9 19.7 249.7C18.8 248.9 18.7 248.8 19.3 249.5C19.2 249.2 19.1 248.9 19 248.5C18.9 247.7 18.9 246.7 19.2 245.9C19.7 244.5 20.7 243.4 21.7 242.4C32 231.7 42.9 221.5 53.5 211.1C54 210.6 50.9001 207.5 50.5 207.2C40 201.2 29 196.1 17.7 192C18.7 193.3 19.7 194.6 20.7 195.9C35.4 184.5 51.4001 175 68.4001 167.4C68.8001 167.2 65.8001 163.8 65.4001 163.5C55.1001 157.4 44.8 151.2 34.6 145.1C35.6 146.4 36.6 147.7 37.6 149C52 137.7 68 128.6 84.9 121.5C85.2001 121.4 83.2 118.9 83.1 118.8C74.8 109.4 66.4 99.8999 58.1 90.4999C58.6 91.3999 59.2001 92.2999 59.7001 93.0999C80.1001 95.1999 100.6 95.2999 121 93.2999V93.1999C119.1 87.4999 117.7 81.6999 116.9 75.7999C116.5 72.7999 116.2 69.8999 116 66.8999C115.9 65.7999 115.3 63.2999 116.6 62.6999C117.4 62.3999 120.2 63.3999 121 63.5999C132.8 66.0999 144.4 69.6999 155.6 74.3999C155.7 74.4999 155.8 74.3999 155.7 74.2999C155.3 68.3999 155.9 62.4999 157.6 56.7999C158.4 54.0999 159.5 51.3999 160.7 48.8999C161.3 47.6999 162 46.4999 162.7 45.3999C164 43.2999 165.3 44.6999 166.9 45.6999C178.2 52.7999 189.5 59.9999 200.9 67.0999H201C202.8 62.3999 204.5 57.6999 206.3 53.0999C207.2 50.7999 208.1 48.3999 208.9 46.0999C209.3 44.9999 209.6 43.5999 210.2 42.5999C211 41.2999 211.1 40.9999 212.5 41.8999C220.4 46.4999 227.6 52.2999 233.8 59.0999C233.9 59.1999 235.2 60.4999 235.2 60.2999C236.9 56.0999 238.9 52.0999 241.4 48.1999C242.6 46.2999 243.8 44.4999 245.1 42.7999C245.7 42.0999 246.4 40.5999 247.3 40.3999C248.3 40.1999 250 41.8999 250.8 42.5999C259.2 48.8999 267.6 55.0999 276 61.3999C276.1 61.4999 276.2 61.5999 276.4 61.5999C280.5 54.3999 285.6 47.8999 291.8 42.2999C290.9 41.3999 290.1 40.4999 289.2 39.5999C297.3 50.8999 305.5 62.1999 313.6 73.5999C313.8 73.7999 315.9 76.5999 316.2 76.2999C324.1 66.9999 333.7 59.4999 344.6 53.9999C343.7 53.0999 342.9 52.1999 342 51.2999C349.7 62.8999 355.2 75.8999 358.4 89.3999C358.5 89.8999 361 93.4999 361.6 93.0999C367.8 88.7999 374 84.4999 380.3 80.1999C379.2 78.9999 378.2 77.6999 377.1 76.4999C378.2 93.1999 379.2 110 380.3 126.7C380.3 127.3 382.8 130.7 383.5 130.4C396.2 125.6 409.2 122 422.5 119.5C421.4 118.2 420.4 116.9 419.3 115.6C414.4 130 410.3 144.6 407.1 159.4C406.9 160.1 409.5 163.4 410.3 163.3C420.4 162 430.6 161.6 440.8 162.1C439.7 160.8 438.7 159.5 437.6 158.2C433.7 170.1 429.8 182.1 426 194C425.8 194.7 428.4 197.9 429.2 197.9C435.9 197.2 442.5 196.5 449.2 195.8C448.1 194.5 447.1 193.2 446 191.9C437 204 429.4 217 423.3 230.8C423 231.5 425.7 234.5 426.3 234.7C437.7 237.3 448.8 241.1 459.5 246C458.5 244.7 457.5 243.4 456.5 242.1C443.2 253.5 429.8 264.9 416.5 276.3C416.1 276.6 418.4 279.2 418.7 279.4C422.6 283.3 426.5 287.3 430.4 291.2C432.2 293 433.9 294.7 432.7 297.4C432 299.1 430.4 300.2 428.8 301.1C424.7 303.4 419.8 304.6 415.4 306.1C410 308 404.6 309.9 399.3 311.8C399.1 311.9 400.2 313.4 400.2 313.4C407.5 323.4 414.3 333.8 420.6 344.5C420.5 344.3 420.4 344 420.3 343.8C405.5 348.5 389.6 348.6 374.8 344C374.7 343.9 374.6 344 374.7 344.1C377.1 352.2 379.4 360.4 381.8 368.5C382.4 370.6 383 372.7 383.6 374.8C383.9 375.9 384.2 376.9 384.5 378C384.6 378.5 384.8 378.9 384.9 379.4C384.7 380.2 384.1 380.5 383.3 380.4C381.4 381 378.8 380.8 376.9 381C374.9 381.1 372.9 381.3 370.9 381.4C353.9 382.1 336.9 380.6 320.2 376.8C320.1 376.7 320 376.8 320.1 376.9C321.6 383.3 322.8 389.7 323.8 396.1C324.3 399.5 324.8 402.9 325.2 406.3C325.4 407.8 325.8 409.4 325.7 410.9C325.6 412.3 325.7 412.3 324.4 412.2C323.7 412.1 323 411.8 322.3 411.6C310.5 408.3 299.2 403 289.1 396.1C289 396.1 288.7 395.8 288.7 396.1C290 403.4 290.7 410.8 290.8 418.2C290.8 421.8 290.7 425.3 290.5 428.8C290.4 430.8 290.2 432.8 290 434.7C289.9 435.9 289.9 439.8 288.9 440.5C288 441.2 285.8 439.9 284.7 439.5C283.2 438.9 281.7 438.3 280.2 437.7C277.2 436.4 274.4 435 271.5 433.4C265.6 430.1 260.2 426 255.2 421.4C255.3 421.5 254.6 420.8 254.5 421C252.5 426.8 249.2 431.9 244.9 436.2C245.1 436.3 245.3 436.5 245.6 436.6C236.8 428.9 230.1 419.6 225.3 409C225.1 408.6 222.5 405.2 222.2 405.5C215.3 413.9 208.4 422.3 201.5 430.7C202.5 431.9 203.6 433 204.6 434.2C199.6 423.3 194.7 412.5 189.7 401.6C189.5 401.1 187.3 397.8 186.6 398.1C170.8 406.2 155.1 414.2 139.3 422.3C140.4 423.5 141.4 424.8 142.5 426C140.6 415.1 139.8 404 140.3 392.9C140.3 392.3 137.6 388.8 137.1 389.2C128.2 395.6 117.9 399.6 107 400.9C108.1 402.1 109.1 403.4 110.2 404.6C110 391.4 112.1 378.3 116.4 365.8C116.6 365.1 113.9 361.8 113.2 361.9C100.8 365.3 88.5 368.7 76.1 372.1C77.2001 373.4 78.2001 374.7 79.3 376C86.1001 356.3 96.8 338.1 110.9 322.7C111.3 322.3 108.3 318.7 107.7 318.8C95.3 322 82.4 323.1 69.6 322.1C70.7 323.4 71.7001 324.7 72.8001 326C79.8 311.7 86.8 297.5 93.9 283.2C94.2001 282.6 91.4 279.3 90.7 279.3C76.6 280.9 62.3 280.1 48.5 276.9C49.5 278.2 50.5 279.5 51.5 280.8C64 269 76.6 257.2 89.1 245.3C89.5 244.9 86.6 241.6 86.1 241.4C80.2 239.3 74.3001 237.2 68.4001 235.2C69.4001 236.5 70.4001 237.8 71.4001 239.1C87.6001 228.1 105 218.9 123.3 211.7C123.6 211.6 120.7 208.1 120.3 207.8C109.2 202.7 98.1 197.7 86.9 192.6C87.9 193.9 88.9 195.2 89.9 196.5C104.1 188.4 119.7 183.1 135.9 180.7C136 180.7 133.4 177.1 132.9 176.8C113.5 165.9 94.8 153.9 76.9 140.7C77.8 141.9 78.8 143.2 79.7 144.4C106 139.6 132.3 134.8 158.7 130C158.7 129.9 158.7 129.7 158.6 129.6C155.7 122.6 152.7 115.7 149.8 108.7C148.3 105.2 146.9 101.7 145.4 98.1999C145.1 97.3999 144.5 96.3999 144.3 95.5999C144 94.2999 144 94.4999 145.3 94.6999C147.1 95.0999 148.9 95.7999 150.7 96.2999C165.2 100.5 179.7 104.7 194.2 108.9H194.3C195 103.4 195.8 97.9999 196.5 92.4999C196.7 91.0999 196.7 89.5999 197.1 88.2999C197.2 87.7999 197.2 86.8999 198 86.7999C198.3 86.7999 199.5 87.5999 199.9 87.7999C202.1 88.9999 204.3 90.2999 206.5 91.5999C215.3 96.9999 223.4 103.5 230.8 110.7C230.7 110.6 231.4 111.3 231.5 111.1C232.6 104.9 233.7 98.5999 234.7 92.3999C235.2 89.2999 235.8 86.1999 236.3 82.9999C236.6 81.4999 236.7 79.7999 237.1 78.2999C237.3 77.4999 237.2 76.7999 238.1 76.9999C238.5 77.0999 239.5 77.9999 239.8 78.1999C249.2 84.8999 257.7 92.8999 264.8 102.1C264.9 102.2 267 104.4 267.1 104.3C268.4 96.2999 272.2 89.0999 278.1 83.4999C277.3 82.7999 276.6 81.9999 275.8 81.2999C284.5 92.2999 293.2 103.3 301.9 114.3C301.9 114.3 304 116.8 304.2 116.5C309.8 107.2 317.5 99.4999 326.9 94.0999C325.8 92.8999 324.8 91.5999 323.7 90.3999C328.5 103.9 332 117.9 334 132.1C334.1 132.6 336.7 136.2 337.2 135.8C345.9 129.9 355.3 125 365.3 121.4C364.2 120.2 363.2 118.9 362.1 117.7C361.6 134.7 361.1 151.6 360.6 168.6C360.6 169.2 363.1 172.6 363.8 172.3C373.9 168.5 383.9 164.7 394 160.9C392.9 159.6 391.9 158.3 390.8 157C386.7 172.1 382.6 187.3 378.6 202.4C378.4 203.1 380.9 206.2 381.6 206.3C388.1 207 394.5 207.7 401 208.3C400 207 399 205.7 398 204.4C387.8 219.6 376 233.7 362.8 246.4C362.4 246.8 365.3 250.2 365.8 250.3C379.6 252.2 393.4 254 407.1 255.9C406.1 254.6 405.1 253.3 404.1 252C397.9 260 390.9 267.1 383 273.4C382.6 273.7 384.9 276.3 385.2 276.5C391 282.7 396.8 288.9 402.6 295.2C401.9 294.2 401.2 293.1 400.4 292.1C379.3 300.4 356.6 303.9 334 302.6V302.7C337 311 339.9 319.3 342.9 327.6C344.2 331.2 345.9 335 346.8 338.7C347.7 342.7 345.7 345.1 341.9 345.8C338.3 346.5 334.3 346.2 330.7 346.1C326.4 346 322 345.7 317.7 345.1C309.3 344.1 301 342.2 293 339.5C292.9 339.4 292.8 339.5 292.9 339.6C294 346.2 295.1 352.8 296.2 359.4C296.8 362.8 297.4 366.3 297.9 369.7C298 370.2 299 374.2 298.7 374.4C297.8 375.1 295.2 372.8 294.6 372.3C284.3 365.3 274.7 357.3 266.1 348.4C266 348.3 265.1 347.4 265.1 347.8C265.8 365.4 263.4 383 258 399.8C259 400.8 259.9 401.9 260.9 402.9C252.8 389.9 244.6 376.8 236.5 363.8C236.3 363.5 233.9 360.3 233.6 360.7C224.1 372.6 214 384 203.2 394.8C204.3 396 205.3 397.3 206.4 398.5C200.8 380.9 197 362.7 195.2 344.2C195.1 343.6 192.3 340.2 192 340.5C180.7 354.5 169 368.2 156.8 381.5C157.9 382.7 158.9 384 160 385.2C156.3 369.5 157 353.1 161.9 337.7C162.1 337 159.4 333.7 158.7 333.8C142.7 338.1 126.6 341.5 110.2 344.1C111.3 345.4 112.3 346.7 113.4 348C118.8 331 126.1 314.7 135.2 299.4C135.6 298.8 132.7 295.5 132 295.5C122.8 296.1 113.6 296.7 104.4 297.2C105.5 298.5 106.5 299.8 107.6 301.1C117.5 285.4 127.5 269.7 137.4 254.1C137.8 253.5 134.9 250.2 134.2 250.2C122.6 250.6 111.1 249.7 99.7 247.3C100.7 248.6 101.7 249.9 102.7 251.2C122.9 236.2 144.9 223.6 168 213.8C168.3 213.7 165.6 210.1 165 209.9C150.8 206.5 137.2 200.9 124.6 193.5C125.6 194.8 126.6 196.1 127.6 197.4C143.8 190.2 160.1 183.1 176.3 175.9C176.6 175.8 174.3 173 174.1 172.8C164.4 163.1 154.7 153.4 145.1 143.7C145.8 144.7 146.5 145.8 147.3 146.8C163.1 145.9 178.9 146.2 194.6 147.8C194.7 147.9 194.8 147.8 194.7 147.7C194.7 143.9 194.7 140.1 194.8 136.3C194.8 134.4 194.8 132.5 194.8 130.6C194.8 129.6 194.8 128.7 194.8 127.7C194.8 127.2 194.5 125.3 194.8 124.8C195.6 123.6 198.2 124.9 199.4 125.2C201 125.6 202.5 126.1 204.1 126.6C207.3 127.6 210.5 128.8 213.6 130.1C226 135.3 237.6 142.5 247.8 151.3C247.7 151.2 248.4 151.9 248.5 151.7C252 138.7 256.7 126 262.4 113.8C261.9 113.4 261.5 113 261 112.6C273.2 126.9 281.6 144.2 286.1 162.4C286.2 162.9 289.1 166.4 289.3 166.1C295.6 156.9 303.6 149 313 143C311.9 141.8 310.9 140.5 309.8 139.3C312.2 150.7 313.6 162.4 314 174C314 174.6 316.6 178 317.2 177.7C326.7 172.6 336.2 167.6 345.7 162.5C344.6 161.3 343.6 160 342.5 158.8C340.6 178.4 335.5 197.5 327.6 215.5C327.3 216.2 330 219.2 330.6 219.4C343.2 221.4 356 222.5 368.7 222.6C367.6 221.3 366.6 220 365.5 218.7C359.1 229.3 349.9 237.8 338.8 243.2C338.6 243.3 339.7 244.8 339.7 244.8C344.7 251.2 349.6 257.6 354.6 264C354.3 263.5 354 262.9 353.7 262.4C337.6 270.5 319.8 274.8 301.8 275V275.1C304 282.8 306.2 290.4 308.4 298.1C309.5 302.1 310.7 306.1 311.8 310C312.1 310.9 312.3 311.8 312.6 312.8C312.7 313.2 313.5 315.2 313.4 315.6C313.1 316.7 312.4 316.2 311.6 316C310.7 315.8 309.9 315.6 309 315.4C296.4 312.2 284.5 305.1 276.4 294.9C276.3 294.8 274.5 293 274.5 293.3C275.5 307.9 273.4 322.4 268.4 336.2C268.6 336.3 268.8 336.5 269.1 336.6C258.4 326.8 250.8 314.3 246.3 300.5C246.1 299.9 243.1 296.8 243.1 296.8C238.7 312.3 233.4 327.5 227.2 342.3C228.2 343.5 229.3 344.6 230.3 345.8C222.1 329.8 216.6 312.5 213.9 294.7C213.8 294.1 211.3 290.6 210.7 291C192.9 301.6 174 310.2 154.4 316.7C155.5 318 156.5 319.3 157.6 320.6C162.3 306.1 170.2 292.8 180.9 281.9C181.4 281.4 178.5 278.5 178.1 278.2C171 273.6 163 271 154.5 270.6C155.6 271.9 156.6 273.2 157.7 274.5C171.6 260.5 185.4 246.6 199.3 232.6C199.7 232.2 196.8 228.9 196.3 228.7C184.5 226.1 172.4 225 160.3 225.4C161.4 226.7 162.4 228 163.5 229.3C181.2 220.4 199.3 212.4 217.8 205.3V205.2C215.9 196.5 214.3 187.6 213.2 178.8C212.6 174.2 212.1 169.6 211.7 165C211.5 162.8 211.4 160.7 211.2 158.5C211.2 158 210.8 156.1 211 155.7C211.7 154.7 212.7 155.5 213.7 155.9C227.9 161.1 240.9 170.6 249.4 183.2C249.5 183.4 251.9 186.2 252 185.9C255.2 180.3 259.5 175.6 264.7 171.9C263.6 170.7 262.6 169.4 261.5 168.2C265 178 268.4 187.8 271.9 197.5C272.2 198.3 274.1 201.4 275.1 201.2C286.8 199.6 298.5 197.9 310.2 196.3C309.1 195.1 308.1 193.8 307 192.6C305.8 204.4 299.6 215.2 290.1 222.3C289.6 222.7 292.7 225.9 293.1 226.2C302.5 232.2 311.9 238.3 321.3 244.3C320.3 243 319.3 241.7 318.3 240.4C304.9 243.5 291.2 244.2 277.6 242.5C277.5 242.4 277.4 242.5 277.5 242.6C277.8 252.7 277.4 262.9 276.4 272.9C276.3 273.8 276.3 274.7 276.1 275.6C275.9 276.3 276 276.6 275.4 276.4C274.6 276.2 273.4 274.7 272.8 274.2C271.1 272.7 269.6 271 268.2 269.2C265.5 265.6 263.4 261.6 261.7 257.4C261.5 256.9 258.7 253.7 258.6 253.9C252.6 264.9 245.4 275.1 237.2 284.5C238.3 285.7 239.3 287 240.4 288.2C239.9 276.6 239.5 264.9 239 253.3C239 252.6 236.6 249.4 235.8 249.6C221.6 253.3 207.2 256.1 192.7 258C193.8 259.3 194.8 260.6 195.9 261.9C211 250.6 226 239.4 241.1 228.1V228C236.4 213.6 233.1 198.8 231 183.7C230.8 183.6 230.6 183.5 230.3 183.4C242.1 194.5 252.2 207.1 260.6 221C261.2 221.9 261.9 223.1 262.8 223.7C263.3 224.7 263.6 224.9 263.1 224Z" fill="white"/>
</g>
</svg>
