<svg width="500" height="500" viewBox="0 0 500 500" fill="none" xmlns="http://www.w3.org/2000/svg">
<mask id="mask0_201_740" style="mask-type:luminance" maskUnits="userSpaceOnUse" x="51" y="51" width="398" height="398">
<path d="M250 448.5C359.629 448.5 448.5 359.629 448.5 250C448.5 140.371 359.629 51.5 250 51.5C140.371 51.5 51.5 140.371 51.5 250C51.5 359.629 140.371 448.5 250 448.5Z" fill="white"/>
</mask>
<g mask="url(#mask0_201_740)">
<path d="M237.7 228.8C225.2 239.1 215 252.1 207.9 266.7C207.1 268.4 209 270.5 210.8 270.3C222.8 268.7 233.6 260.9 238.7 249.9C237.3 249.5 235.9 249.2 234.5 248.8C237.9 257.8 244.1 265.5 252.1 270.7C252.9 271.2 254.6 271.4 255.1 270.2C258.1 262 258.8 253.2 257 244.6C256.1 245.2 255.3 245.8 254.4 246.4C259.7 248.3 265.3 249.9 270.9 250.5C275 250.9 279.1 249 278.7 244.3C278.3 240.4 275.3 236.8 271.9 235.2C268 233.4 262.8 233.7 259.8 230.3C259.6 231.5 259.4 232.7 259.2 233.9C274 233.3 288.4 228.5 300.6 220.2C302.1 219.2 301.6 217.2 300.2 216.3C288.3 208 271.7 207.3 259.4 215C260.5 216.1 261.7 217.3 262.8 218.4C265.7 212.9 267.5 206.9 267.9 200.7C268.2 195.8 267.9 188.9 261.9 187.7C256.6 186.7 252.4 191.5 249.7 195.4C246.3 200.5 244.3 206.4 243.7 212.4C245.2 212.8 246.7 213.1 248.2 213.5C245.8 197.4 235.2 183.3 220.4 176.4C219.3 175.9 218.1 176.5 217.8 177.7C214.3 191.8 218.5 207.1 228.3 217.6C228.9 216.4 229.5 215.3 230.1 214.1C209.9 209 188.2 212.3 170.6 223.6C169 224.7 169.8 227.3 171.6 227.8C183.4 230.9 195.6 231.4 207.5 229.3C206.8 227.9 206.1 226.4 205.4 225C192 232.2 180.5 242.4 171.7 254.8C171 255.8 172 257.5 172.9 258C182.5 263 194.5 261.7 202.3 254C204.2 252.1 200.9 249 198.8 250.4C188.6 257.6 181.2 268.1 177.6 280C176.1 285 173.5 293.2 179 296.7C183.9 299.9 190.9 296.2 195.6 294.2C202.8 291 209.4 286.7 215.4 281.6C214.1 280.7 212.7 279.9 211.4 279C209.4 287.5 208.9 296.2 209.8 304.9C210.6 313 212.6 321.7 216.4 329.1C217.9 332 220.5 334.5 223.9 334.3C227 334.2 229.3 331.7 230.7 329.2C232.7 325.8 233.4 321.7 234.3 318C235.4 313.4 236.4 308.8 237.1 304.2C238.8 293.9 239.7 283.5 239.7 273C238.2 272.8 236.7 272.6 235.2 272.4C237.7 293.8 254 312.7 274.8 318.1C275.7 318.3 276.8 318.3 277.2 317.4C283.2 303.5 281.4 286.9 272.4 274.6C271.5 275.5 270.6 276.4 269.7 277.3C280.7 285.9 294.1 291.5 308 293.1C311 293.4 314.5 293.9 317.2 292.2C319.4 290.7 320.4 288.2 320.4 285.6C320.5 279.7 316.9 273.9 313.3 269.5C308.8 263.9 302.7 259.6 295.9 257.1C296.1 258.5 296.2 260 296.4 261.4C304.1 261.1 311.8 260.1 319.2 258.1C322.7 257.2 326.2 256.1 329.6 254.8C332.3 253.8 335.6 252.8 336.5 249.8C338.5 243.5 329.6 238.4 325.2 236.1C319.1 232.9 312.4 231.2 305.5 231.2C306.2 232.5 306.8 233.9 307.5 235.2C317.8 225.9 326.4 214.7 332.5 202.3C333.8 199.6 335.8 196.3 335.6 193.1C335.4 190 333 187.8 330 187.2C326.8 186.6 323.3 187.3 320.1 187.7C316.6 188.2 313.2 188.9 309.7 189.8C301.7 192 294.1 195.1 287 199.3C288 200.6 289 201.9 290.1 203.2C298 193.6 304.4 182.4 307.7 170.4C308.8 166.3 308.8 160.8 304.7 158.3C299.5 155.1 294 160.6 290.8 164.2C286.3 169.2 283.1 175.2 281.3 181.7C282.8 182.1 284.3 182.4 285.8 182.8C286 167.8 282.2 153 275 139.8C274.5 138.9 273.4 138.3 272.4 138.4C263.7 139.6 256.7 145.5 252.2 152.8C246.8 161.7 245.4 172.4 244.1 182.4C245.6 182.8 247.1 183.1 248.6 183.5C245.7 170.4 240.8 157.8 233.9 146.3C231.2 141.8 227.8 134.5 221.8 134.1C216.9 133.8 213.8 138.6 212.8 142.8C211.2 149.7 216.4 156.2 214.8 163.1C215.5 162.6 216.1 162.2 216.8 161.7C208.2 159.7 199.5 158.5 190.7 158.3C186.4 158.2 182.1 158.3 177.8 158.7C174.9 159 171.3 159.4 169.6 162.1C165.4 168.8 175.4 175.5 179.8 178.7C186.3 183.4 193.4 187.2 200.8 190C200.8 188.6 200.9 187.1 200.9 185.7C183.3 184.3 165.6 185.4 148.4 188.9C146.9 189.2 146.6 190.8 147.4 192C152 199.6 160.4 204.6 169.4 204.7C169.1 203.2 168.7 201.7 168.4 200.2C145.7 204.6 123.6 212.4 103.2 223.3C101.6 224.1 102.2 226.5 103.6 227.2C119.7 235.8 138.3 239.1 156.4 236.1C155.6 234.8 154.7 233.4 153.9 232.1C149.7 237.3 143.6 240.1 139.1 244.9C135.2 249 132.3 254.9 133.9 260.5C137.1 271.8 151 270.8 159.9 268.5C159.2 267.1 158.5 265.6 157.8 264.2C146.5 270.4 137.3 280.2 131.8 291.9C130.4 294.8 129.3 297.8 128.4 300.9C127.5 303.9 126.4 307.3 126.8 310.4C127.6 318.2 136.2 317.1 141.6 316C150.4 314.2 158.9 311.4 167 307.5C166 306.2 165 304.9 163.9 303.6C159.7 308.7 156 314 152.7 319.7C151 322.6 149.5 325.5 148.1 328.5C146.8 331.3 145.1 334.4 144.8 337.6C144.4 343.1 149.2 347.2 154.3 347.7C160.7 348.3 166.2 343.5 171.1 340.1C177.9 335.4 184.7 330.7 191.5 325.9C190.3 324.9 189.1 323.9 188 323C186.4 330.3 185.6 337.8 185.6 345.3C185.7 352.2 186 360 188.4 366.6C192.7 378.4 207.2 379.2 215.7 371.5C221 366.6 223.9 359.7 226.5 353.1C225.1 352.7 223.7 352.4 222.3 352C225.7 359.2 229.9 365.8 234.9 372C237.5 375.2 240.3 378.2 243.2 381C245.8 383.5 248.5 386.1 251.6 387.9C257.3 391.3 265.7 392.4 268.1 384.5C269.2 380.8 269.2 376.6 269.3 372.8C269.4 368.7 269.1 364.5 268.5 360.4C267.2 351.1 264.2 342.2 259.9 333.9C258.8 334.7 257.7 335.4 256.7 336.2C262.3 341.8 268.3 347 274.7 351.8C277.9 354.1 281.1 356.3 284.4 358.4C287.4 360.3 290.6 362.3 294 363.3C296.9 364.1 300.1 364.5 302.9 363.1C305.8 361.6 307.2 358.6 307.8 355.5C309.2 348 308.9 339.8 307.8 332.3C306.5 323.5 303.7 315 299.7 307.1C299 308.1 298.3 309.1 297.5 310.1C320.3 319.8 345.4 323.2 370 320.2C371.3 320 371.6 318.7 371.3 317.7C366.9 301 354.1 287.1 338 281.1C338.2 282.5 338.3 284 338.5 285.4C351.1 282.5 362.8 276.3 372.3 267.5C376.8 263.3 381.8 258.3 383.8 252.3C385.9 246.3 383.6 240.7 377.6 238.4C369.9 235.4 361 234.2 352.7 233.6C353.4 234.9 354 236.3 354.7 237.6C364.2 229.1 372.2 218.9 378.2 207.6C381 202.3 384.3 195.7 381.5 189.7C379.5 185.5 375.3 183.2 370.8 183C365.3 182.8 359.9 184.7 355.1 187.2C356.2 188.3 357.4 189.5 358.5 190.6C361.3 182.8 363.4 174.8 364.7 166.6C365.4 162.3 365.8 158 366 153.7C366.2 150 366.7 145.8 365.8 142.2C363.9 134.6 355.2 137.1 350.3 139.8C344.8 142.8 340.5 147.3 336.9 152.3C332.6 158.4 329.4 165.1 326.4 171.9C327.8 172.6 329.3 173.4 330.7 174.1C332.6 165.4 333.7 156.5 334 147.6C334.1 143.2 334.1 138.9 333.9 134.5C333.7 131.1 333.6 127.6 332 124.5C330.6 121.7 327.9 119.7 324.7 119.7C321.2 119.7 317.5 121.7 314.4 123.4C308 127 302.6 131.9 298.4 137.8C299.8 138.5 301.3 139.3 302.7 140C304.3 130.6 305.4 121.1 306.1 111.5C306.4 106.8 306.6 102.1 306.7 97.3999C306.8 93.4999 307.5 88.7999 305.5 85.1999C301.7 77.9999 293.1 81.3999 288.4 85.5999C282.3 91.0999 277 97.6999 272.4 104.5C267.1 112.2 262.8 120.5 259.4 129.2C260.7 129.4 262 129.5 263.3 129.7C260.1 123.2 256.9 116.6 253.7 110.1C251.3 105.3 249.1 97.4999 242.8 96.7999C238 96.2999 233.7 100.4 232.1 104.6C229.8 110.6 232 117.3 230.1 123.4C231.5 123.4 232.8 123.4 234.2 123.4C231.2 117.8 227.6 112.5 223.4 107.7C219.8 103.5 215 97.3999 209.2 96.4999C204 95.6999 199.1 99.5999 197.2 104.2C194.7 110.3 196.7 117 198.5 123C199.5 122.3 200.5 121.6 201.5 120.9C189.4 113.2 174.3 110.2 160.2 113.1C157.4 113.7 154 114.3 151.8 116.3C149.4 118.5 149.8 121.8 151.5 124.3C153.6 127.5 156.7 130.2 159.3 132.9C162.3 135.9 165.4 138.9 168.7 141.7C168.9 140.5 169.1 139.3 169.3 138.1C161 138.5 152.7 138.6 144.4 139.2C138.4 139.7 131.6 141.2 128.3 146.7C122.9 155.8 132.6 169.2 142.9 167.4C142.4 165.9 141.8 164.4 141.3 162.9C120.3 167.7 99.3 172.6 78.3 177.4C76.2 177.9 76.7 180.5 78.2 181.5C91 189.7 105.8 193.9 120.9 193.8C120.2 192.4 119.5 190.9 118.8 189.5C102.4 196.4 86.5 204.7 71.5 214.2C70.1 215.1 70.5 216.6 71.4 217.7C77.8 225.2 85.9 230.9 95 234.6C94.7 233.2 94.4 231.8 94 230.4C87.7 233.6 81.9 237.8 76.9 242.9C73 246.9 65.4 254.4 71 260C73.4 262.4 77.1 262.9 80.2 263.6C84.2 264.5 88.3 265.3 92.4 266C100.6 267.4 108.8 268.3 117.1 268.8C116.6 267.4 116.1 265.9 115.6 264.5C102 272.9 89.5 282.8 78.3 294.2C77 295.5 78.2999 297.6 79.7 298.1C90.2999 302.1 101.5 303.8 112.8 303.2C112 301.9 111.1 300.5 110.3 299.2C104.9 303.5 99.8 308.1 94.8 313C89.8 317.8 84.7 322.9 80.6 328.4C78.8 330.7 77.4 333.4 78 336.4C78.5 339.1 80.4 341 82.8 342.2C85.3 343.4 88 343.7 90.7 343.9C94.2999 344.2 98 344.4 101.6 344.5C110.1 344.8 118.5 344.7 127 344.3C126.2 343 125.3 341.6 124.5 340.3C115 349.9 108.5 363.3 108 376.9C107.8 383.3 111 389.5 118.1 389.5C121.3 389.5 124.4 388.3 127.4 387.1C130.9 385.7 134.4 384.2 137.8 382.5C145.4 378.6 152.6 373.9 159.2 368.5C158 367.3 156.9 366.1 155.7 364.9C151.5 370.3 147.8 376.1 144.9 382.4C142.1 388.4 139.3 395.2 138.3 401.8C137.4 408 142.3 411.7 148.2 410.9C151.1 410.5 153.8 409.1 156.4 407.9C159.6 406.4 162.7 404.7 165.8 402.9C172.7 398.8 179.2 394.1 185.3 388.9C184 388 182.6 387.2 181.3 386.3C177.2 403.7 176.9 421.9 180.4 439.4C180.7 440.9 181.9 442 183.4 441.9C194.4 441.2 204.2 434.4 210.7 425.8C218.1 415.9 221.8 404 225.3 392.3C223.8 391.9 222.3 391.6 220.8 391.2C222.4 399.2 223.9 407.2 225.5 415.2C226.5 420.4 228 427.1 233.6 429.2C240.2 431.6 245.2 424.8 248.6 420.2C252.9 414.3 256.4 407.9 258.9 401C257.5 400.6 256.1 400.3 254.7 399.9C260.2 413.5 266.9 428.7 280 436.6C286 440.2 295.6 443.7 300.9 437.2C305.7 431.4 304.5 422.5 303.6 415.6C302.2 404.5 299.3 393.6 295.1 383.3C294.1 384 293.1 384.7 292.1 385.4C305.9 395.3 323.3 399.9 340.2 398C344.1 397.6 348.3 397 351.6 394.8C354.7 392.7 356.3 389.4 356.8 385.8C357.8 378 354.8 369.5 351.7 362.4C347.9 353.5 342.5 345.4 335.8 338.5C335.4 339.7 335 340.9 334.6 342.1C349.9 344.6 366.4 349.9 381.2 342.3C387.2 339.2 391.9 334.1 393.8 327.6C395.9 320.5 394.8 312.6 391.9 305.9C388.3 297.6 382.5 290.7 376.7 283.9C376.3 285.1 375.9 286.3 375.5 287.5C399.3 288.2 423 284 445.1 275.2C446.9 274.5 445.8 272 444.7 271.3C431.1 262.6 415.5 257.3 399.3 256.2C400 257.5 400.6 258.9 401.3 260.2C407.9 254.4 414.5 248.5 421.1 242.7C424.3 239.9 427.5 237.1 430.7 234.2C433.1 232 435.9 229.4 435.8 225.9C435.7 218.3 425.4 217.7 420 217C411.5 215.9 402.9 215.8 394.4 216.4C395.1 217.8 395.8 219.3 396.5 220.7C413.1 210.9 425.1 194.6 429.8 175.9C430.1 174.5 428.7 172.9 427.3 172.8C417.1 172.2 406.9 174.6 398.2 179.9C399.3 181 400.5 182.2 401.6 183.3C409.5 167.5 415.7 150.9 420.1 133.8C420.4 132.4 418.9 130.8 417.6 130.7C405.3 129.7 393.2 136.4 387.6 147.4C389 148.1 390.5 148.9 391.9 149.6C394.4 132.8 394.9 115.8 393.5 98.8999C393.2 95.5999 393.3 91.4999 391.8 88.3999C390.2 85.3999 387.1 84.1999 383.9 85.2999C377.8 87.2999 372 92.1999 367.6 96.7999C362.5 102.2 358.5 108.6 356 115.5C357.4 116.2 358.9 117 360.3 117.7C363.4 95.6999 364.3 73.2999 362.9 51.0999C362.8 49.6999 360.8 47.7999 359.3 48.6999C343.6 59.3999 333.1 76.5999 331.2 95.4999C332.7 95.8999 334.2 96.1999 335.7 96.5999C335 88.9999 333.8 81.4999 331.9 74.0999C330.2 67.2999 328.3 60.0999 325 53.8999C322.1 48.5999 316.7 44.7999 310.5 46.4999C303.9 48.2999 298.4 54.0999 293.6 58.6999C287.4 64.5999 281.8 70.8999 276.5 77.5999C277.8 78.2999 279.2 78.9999 280.5 79.6999C277.9 58.7999 272.7 38.3999 265 18.7999C264.5 17.5999 263 16.2999 261.6 16.9999C250.9 22.5999 243.8 32.9999 240.2 44.2999C235.7 58.3999 236.5 73.4999 237.6 88.0999C239 87.8999 240.3 87.6999 241.7 87.4999C235.7 76.3999 228.7 65.9999 220.7 56.2999C220.3 55.7999 219.2 55.1999 218.5 55.3999C203.8 59.4999 198.7 79.3999 208.6 90.5999C209.4 89.4999 210.1 88.4999 210.9 87.3999C187.5 73.2999 160.3 66.3999 133.1 67.5999C131.1 67.6999 131.6 70.2999 132.5 71.1999C141.1 80.0999 151.4 86.9999 162.8 91.6999C162.6 90.2999 162.5 88.7999 162.3 87.3999C147.5 87.7999 132.6 88.2999 117.8 88.6999C108.9 88.9999 93.7999 87.6999 90.7 98.7999C90.3999 99.6999 91.2 101 92 101.5C103 107.7 114 113.9 124.9 120C124.9 118.6 125 117.3 125 115.9C110.2 119.9 95.3999 123.8 80.7 127.8C75.7999 129.1 70.3 131 67.6 135.6C64.5 140.7 68.5 145.5 73.1 147.8C80.3 151.4 87.8999 154.2 95.7 156.4C95.5 155 95.3999 153.5 95.2 152.1C78.2999 155.8 61.7 160.9 45.7 167.4C42.6 168.7 38.4 169.8 36.2 172.5C34.1 175.2 34.9 178.5 36.9 181C39.2 183.8 42.7 185.6 45.8 187.4C49.3 189.4 52.9 191.1 56.6 192.7C65 196.3 73.9 198.8 83 200.2C82.7 198.7 82.3 197.2 82 195.7C67.3 197.6 53.3 203.1 41.2 211.5C35.1 215.8 29.5 220.7 24.8 226.4C22.6 229 20.4 232.5 21.7 236C23 239.4 26.4 240.5 29.7 241.2C40.1 243.2 50.5 245 60.9 246.9C60.2 245.6 59.6 244.2 58.9 242.9C53.1 248.2 47.6 253.8 42.4 259.8C39.8 262.8 37.3 265.8 34.9 268.9C32.8 271.6 30 274.6 29.5 278C28.3 286.1 40.2 286.7 45.5 287.2C53.5 287.9 61.6 287.3 69.4 285.4C68.6 284.1 67.7 282.7 66.9 281.4C55.2 292.1 45.5 304.8 38.2 318.9C37.5 320.2 38.7 321.9 39.9 322.4C52.5 326.6 65.9 326.6 78.6 322.6C77.6 321.3 76.6 320 75.5 318.7C65.4 326.6 56.7 336.3 49.9 347.3C47.3 351.6 42.8 357.6 44.6 363C46.8 369.5 54.7 368.2 60 367.8C68.5 367.1 76.9 365.7 85.2 363.7C84.4 362.4 83.5 361 82.7 359.7C71.6 371.9 63.5 386.6 59 402.5C58.5 404.2 60.6 405.7 62 405.6C75.4 404.9 88.6 400.8 100.1 393.8C99.1 392.5 98.1 391.2 97 389.9C90.4 399 85.8 409.2 83.4 420.2C83 421.9 84.9 423.4 86.4 423.3C101.8 421.7 116.3 416.1 128.8 407C127.6 405.8 126.5 404.6 125.3 403.4C114.7 416.6 108 432.6 106.1 449.5C105.8 452 110.2 454.1 110.6 451.2C112.4 435.1 118.7 419.7 128.8 407C130.5 404.9 127.4 401.9 125.3 403.4C113.4 412 99.4 417.2 84.8 418.8C85.8 419.8 86.8 420.9 87.8 421.9C90 411.7 94.3 401.9 100.4 393.5C101.7 391.8 99.5 388.3 97.3 389.6C86.1 396.4 73.4 400.3 60.3 401.1C61.3 402.1 62.3 403.2 63.3 404.2C67.6 389 75.4 375 86 363.3C87.4 361.8 85.4 358.8 83.5 359.3C75.6 361.2 67.7 362.5 59.6 363.3C57.4 363.5 55.2 363.7 52.9 363.8C51.7 363.8 49.6 364.1 48.9 363C47.4 360.8 50.4 356.4 51.4 354.6C58.3 342.2 67.7 331.3 79 322.5C81.1 320.9 77.8 318 75.9 318.6C64.4 322.3 52 322.2 40.5 318.4C41.1 319.6 41.6 320.7 42.2 321.9C49.4 308.1 58.9 295.8 70.3 285.3C71.9 283.8 69.6 280.8 67.8 281.3C61.1 282.9 54.3 283.6 47.5 283.2C44.1 283 40.8 282.6 37.5 282C36.2 281.7 34.1 281.7 34 280.1C33.9 278.8 35.4 277 36.1 276C43.7999 265.4 52.8 255.7 62.5 246.8C64.1 245.4 62 243.1 60.5 242.8C52.6 241.4 44.8 239.9 36.9 238.5C34.9 238.1 33 237.8 31 237.4C29.8 237.2 27.1 237.1 26.2 236C24.4 233.8 29.3 229.2 30.7 227.8C39.5 218.3 50.4 210.9 62.5 206C69.3 203.3 76.5 201.4 83.8 200.5C86.7 200.1 84.7 196.3 82.8 196C68.9 193.8 55.3 188.9 43.4 181.4C41.1 180 38 177.5 41.3 175.2C44.1 173.3 47.8 172.2 50.9 171C57.9 168.2 65 165.7 72.2 163.4C80.4 160.8 88.7 158.7 97.1 156.8C99.5 156.3 98.6 153 96.6 152.5C89 150.3 81.3 147.7 74.3 144C71.9 142.7 70.3 140.9 72.1 138.3C73.7 136 76.7 134.5 79.3 133.5C83 132.1 87 131.3 90.8 130.3C94.6 129.3 98.5 128.2 102.3 127.2C110.5 125 118.7 122.8 126.9 120.6C128.9 120.1 128.6 117.5 127 116.5C116 110.3 105 104.1 94.1 97.9999C94.5 98.8999 95 99.7999 95.4 100.7C96.6 96.3999 101.5 94.7999 105.5 94.1999C111.3 93.2999 117.3 93.4999 123.1 93.2999C136.8 92.8999 150.5 92.4999 164.2 92.0999C166.9 91.9999 165.2 88.3999 163.7 87.7999C153.1 83.3999 143.5 76.8999 135.5 68.6999C135.3 69.8999 135.1 71.0999 134.9 72.2999C160.9 71.1999 187 77.8999 209.3 91.2999C211.8 92.7999 213.3 90.0999 211.6 88.0999C203.9 79.3999 209.4 63.1999 220.3 60.0999C219.6 59.7999 218.8 59.4999 218.1 59.1999C225.8 68.5999 232.5 78.6999 238.3 89.3999C239.3 91.1999 242.6 91.2999 242.4 88.7999C241.4 74.9999 240.5 60.6999 244.6 47.2999C247.9 36.5999 254.5 26.5999 264.6 21.3999C263.5 20.7999 262.3 20.1999 261.2 19.5999C268.8 38.7999 273.9 58.7999 276.4 79.2999C276.6 80.6999 279.1 82.9999 280.4 81.3999C285.5 74.7999 291.1 68.5999 297.2 62.7999C300.2 59.9999 303.2 57.0999 306.5 54.5999C309.4 52.3999 313.6 49.6999 317.4 51.2999C320.4 52.4999 322 55.8999 323.1 58.6999C324.6 62.5999 325.9 66.5999 327 70.5999C329.4 78.9999 330.9 87.4999 331.6 96.1999C331.8 98.1999 335.8 100.1 336.1 97.2999C337.9 79.5999 347.7 62.9999 362.4 52.9999C361.2 52.1999 360 51.3999 358.8 50.5999C360.2 72.3999 359.3 94.3999 356.2 116C355.9 118 359.6 120.7 360.5 118.2C364.4 107.4 371.8 97.9999 381.7 91.9999C382.8 91.2999 384 90.6999 385.2 90.0999C385.8 89.7999 386.7 89.2999 387.5 89.2999C388.4 89.2999 388.4 89.6999 388.6 90.4999C389.4 93.6999 389.4 97.3999 389.7 100.7C390.2 108.1 390.4 115.5 390.2 123C389.9 131.3 389.2 139.6 387.9 147.8C387.6 149.8 391 152.4 392.2 150C397.1 140.4 407.8 134.2 418.6 135.1C417.8 134.1 417 133 416.1 132C411.9 148.8 405.8 165 398 180.4C397.1 182.1 399.6 184.9 401.4 183.8C409.5 178.9 418.9 176.4 428.4 177C427.6 176 426.8 174.9 425.9 173.9C421.5 191.5 410 207 394.4 216.2C392.1 217.6 394.4 220.7 396.5 220.5C403.8 220 411.2 220.1 418.5 220.9C421.9 221.3 425.4 221.6 428.7 222.4C429.5 222.6 431 222.9 431.5 223.7C432.4 224.9 431.2 226.6 430.4 227.6C428.4 230.1 425.6 232.1 423.1 234.3C420.3 236.7 417.6 239.2 414.8 241.6C409.3 246.5 403.7 251.4 398.2 256.3C396.7 257.6 398.6 260.2 400.2 260.3C415.5 261.4 430.3 266.2 443.3 274.6C443.2 273.3 443 272 442.9 270.7C421.5 279.2 398.5 283.3 375.4 282.7C373.1 282.6 373 284.9 374.2 286.3C382.9 296.5 393.1 308.7 390.3 323.2C387.7 336.6 373.3 341.8 361.1 341.4C352.1 341.1 343.4 338.7 334.5 337.3C332.2 336.9 332.2 339.7 333.3 340.9C338.5 346.4 342.9 352.6 346.3 359.4C349.4 365.8 352.2 373.1 352.7 380.2C352.9 383.5 352.5 387.1 350.1 389.5C347.6 392 343.7 392.5 340.3 393C332.7 394 325 393.6 317.6 392C309.2 390.1 301.3 386.5 294.3 381.5C292.8 380.4 290.5 381.7 291.3 383.6C294.6 391.7 297.1 400.2 298.7 408.8C299.4 413 300 417.2 300.3 421.4C300.5 424.4 300.4 427.7 299.4 430.6C298.3 433.6 296.1 435.8 292.9 436C289.5 436.2 285.8 434.6 282.9 433C277.3 429.8 273 424.8 269.5 419.4C265.4 413 262.3 406 259.5 399C259 397.7 256.1 395.8 255.3 397.9C253.3 403.5 250.6 408.9 247.3 413.9C245.6 416.4 243.8 418.9 241.8 421.1C240.2 422.9 237.6 425.5 234.9 424.6C233.1 423.9 232.2 421.6 231.7 420C230.8 417.3 230.4 414.5 229.9 411.7C228.6 404.9 227.3 398.2 225.9 391.4C225.5 389.3 222.3 387.5 221.4 390.3C215.7 409.7 206.2 435.5 182.3 437.1C183.3 437.9 184.3 438.8 185.3 439.6C181.8 422.4 182.1 404.7 186.1 387.6C186.6 385.6 183.7 383.6 182.1 385C176.3 390 170.1 394.5 163.5 398.4C160.2 400.3 156.9 402.1 153.4 403.7C150.8 404.9 147.8 406.6 144.8 406.2C141.3 405.8 143.8 400.3 144.3 398.2C145.3 394.6 146.6 391 148.1 387.5C151.1 380.6 154.9 374.1 159.5 368.2C161.1 366.1 158.1 362.9 156 364.6C146.2 372.6 135 379.1 123 383.4C120.7 384.2 117.3 385.4 114.9 384.1C112.5 382.8 112.6 379.3 112.8 377C113.2 371.2 114.7 365.4 117 360C119.7 353.8 123.5 348.3 128.2 343.5C129.9 341.8 127.5 339.4 125.7 339.5C117.5 339.9 109.2 340 101 339.7C96.9 339.6 92.7999 339.4 88.7 339C86.3999 338.8 82.2999 338.4 82.7 335.3C83.1 331.9 87 328.6 89.2 326.2C91.7 323.4 94.3 320.7 97 318C102.4 312.6 108.2 307.4 114.2 302.6C116.1 301.1 113.3 298.5 111.7 298.6C101.2 299.2 90.7 297.6 80.8 293.8C81.3 295.1 81.7 296.4 82.2 297.7C93.1 286.6 105.4 276.8 118.6 268.6C120.5 267.4 119.1 264.4 117.1 264.3C110.2 263.9 103.3 263.2 96.5 262.2C89.8 261.2 82.9 260.2 76.4 258.2C75.1 257.8 74 257.5 74.1 256C74.2 254.6 75.4 253 76.3 251.9C78.2 249.4 80.3 247.2 82.5 245C86.9 240.8 91.7999 237.4 97.2 234.6C99.1 233.6 97.7 231 96.2 230.4C87.8999 227.1 80.6 221.8 74.7 215C74.7 216.2 74.6 217.3 74.6 218.5C89.7 208.9 105.5 200.7 121.9 193.8C124.5 192.7 121.6 189.5 119.8 189.5C105.9 189.6 92.2 185.6 80.4 178.1C80.4 179.5 80.3 180.8 80.3 182.2C101.3 177.4 122.3 172.5 143.3 167.7C146.2 167 144.2 162.8 141.7 163.2C137.8 163.9 134.5 161.5 132.8 158C130.9 154.1 131.6 149.8 135.1 147.2C139.3 144 145.3 143.9 150.4 143.7C157.4 143.4 164.3 143.1 171.3 142.8C173.2 142.7 173 140.1 171.9 139.2C166.9 134.8 162.1 130.1 157.5 125.1C156.7 124.2 154.9 122.7 155 121.4C155.1 120.2 156.5 119.5 157.4 119.1C159.9 118 163 117.5 165.7 117.2C177.7 115.6 190 118.3 200.1 124.8C201.8 125.9 203.7 124.7 203.1 122.7C201.6 117.8 199.6 111.9 201.8 106.9C203.5 103.1 207.8 99.5999 212 102C214.1 103.2 215.8 105.1 217.4 106.8C219.1 108.6 220.7 110.4 222.3 112.3C225.6 116.3 228.4 120.7 230.8 125.3C231.7 127 234.2 127.2 234.9 125.3C236.5 120.1 235.3 114.7 236.1 109.4C236.6 106.2 239.9 100.5 244 101.5C246.1 102.1 247.1 105.2 247.9 107C249.2 109.7 250.5 112.4 251.9 115.1C254.6 120.6 257.3 126.1 260 131.7C260.6 132.9 263.2 133.9 263.9 132.2C269.1 118.6 276.8 106.1 286.5 95.2999C288.8 92.7999 291.2 89.9999 294 87.9999C295.7 86.7999 299.9 84.2999 301.7 86.3999C302.7 87.4999 302.6 89.4999 302.6 90.7999C302.6 92.8999 302.6 94.9999 302.6 96.9999C302.5 101.3 302.3 105.6 302 109.9C301.4 119.4 300.2 129 298.6 138.4C298.2 140.7 301.4 142.6 302.9 140.6C306.6 135.5 311.4 131.1 316.8 128C319.3 126.6 322.4 124.8 325.2 124.3C328.2 123.9 328.9 126.5 329.3 128.9C330.3 135.8 330.1 143.1 329.7 150C329.3 157.5 328.2 165 326.6 172.3C326.2 174.4 329.8 176.9 330.9 174.5C335.3 164.6 340.2 154.2 348.6 147.1C350.3 145.7 361.2 138.4 361.9 142.9C362.4 146.2 362 149.9 361.8 153.3C361.6 156.9 361.2 160.6 360.7 164.2C359.5 172.3 357.5 180.3 354.7 188C354.1 189.8 356.1 192.5 358.1 191.4C362.6 189.1 368 186.9 373.2 187.6C375.2 187.9 377 188.7 377.9 190.6C379.5 193.8 377.9 197.9 376.5 200.9C370.7 213.5 362 224.8 351.6 234C350.1 235.3 352 237.9 353.6 238C357.9 238.3 362.2 238.8 366.4 239.6C370.1 240.3 374.1 241 377.6 242.6C385 245.8 376.9 255.7 373.7 259.2C364.1 269.9 351.3 277.6 337.3 280.8C334.8 281.4 336 284.5 337.8 285.1C352.4 290.6 363.6 303.1 367.6 318.1C368 317.3 368.5 316.4 368.9 315.6C345.1 318.6 320.8 315.2 298.7 305.8C296.6 304.9 295.7 307.2 296.5 308.8C302.7 321.1 305.5 335.2 304.3 348.9C304.1 351.7 304 355.5 302.1 357.8C300.2 360 297 359.8 294.5 358.9C291.5 358 288.9 356.2 286.3 354.6C283.4 352.8 280.6 350.9 277.8 348.9C271.4 344.3 265.5 339.1 259.9 333.5C258 331.6 255.4 333.3 256.7 335.8C263.3 348.4 266.2 362.9 265 377.1C264.8 380 264.7 384.3 261.7 385.8C259.2 387.1 256 385.7 253.8 384.4C248.3 381.2 243.5 375.8 239.4 371C234.4 365.1 230.1 358.5 226.8 351.5C226.2 350.3 223.5 348.3 222.6 350.4C220.1 356.8 217.4 363.7 212 368.3C208 371.8 200.8 373.8 196.1 370.5C193.4 368.6 192.5 365.1 191.9 361.9C191.2 358 190.7 353.9 190.5 349.9C190.1 341.4 190.9 333 192.7 324.7C193 323.2 190.7 320.7 189.2 321.8C182.7 326.3 176.3 330.8 169.8 335.2C166.8 337.3 163.9 339.5 160.7 341.3C158.1 342.8 154.8 344 151.9 342.7C148.4 341.1 149.7 337.6 150.9 334.8C152.3 331.5 153.8 328.3 155.5 325.2C158.9 318.9 163 312.9 167.6 307.3C169.1 305.5 166.7 302.4 164.5 303.4C158.4 306.3 152.1 308.7 145.5 310.4C142.3 311.2 139.1 311.9 135.8 312.4C134.7 312.6 133.5 312.7 132.4 312.4C131 312 131.2 310.6 131.3 309.4C132.8 298.6 138.4 288 145.8 280C150 275.4 155 271.5 160.4 268.5C162.6 267.3 160.5 263.6 158.3 264.2C152.4 265.7 138.5 268.4 138 258.8C137.7 253.8 141.5 249.3 145.1 246.3C149.3 242.8 154 240.1 157.4 235.8C158.7 234.1 156.9 231.4 154.9 231.8C138.1 234.6 120.6 231.9 105.5 223.8C105.6 225.1 105.8 226.4 105.9 227.7C126 216.9 147.7 209.2 170.1 204.9C172.7 204.4 171.3 200.4 169.1 200.4C161.8 200.4 155.1 196.8 151.3 190.5C151 191.5 150.6 192.6 150.3 193.6C167.2 190.1 184.5 189 201.7 190.4C204.6 190.6 203.9 186.8 201.8 186.1C195.4 183.7 189.4 180.5 183.7 176.6C181.4 175 168.8 166.9 175.3 164.1C178 162.9 181.6 163.1 184.5 163C188.2 162.8 191.8 162.9 195.5 163.1C202.9 163.5 210.3 164.6 217.5 166.3C218.5 166.5 219.3 165.8 219.5 164.9C220.3 161.5 219.7 158.2 218.9 154.8C218.1 151.7 216.8 148.4 217.4 145.1C217.8 142.9 219 140.2 221.2 139.1C224.1 137.6 225.9 140.9 227.2 142.9C235.3 155.1 241.1 168.7 244.3 183C244.6 184.1 245.3 185.2 246.5 185.5C247.5 185.7 248.6 185.3 248.8 184.2C250 174.8 251.2 165.1 255.9 156.7C259.8 149.8 266.2 144.1 274.2 143C273.3 142.5 272.4 142.1 271.6 141.6C278.4 154.1 281.8 168.1 281.6 182.3C281.6 184.6 285.4 186 286.1 183.4C287.7 177.5 290.7 172 294.9 167.5C296.7 165.6 299.4 162.3 302.2 161.9C304.7 161.6 304.4 164.7 304.2 166.4C303.8 169.3 302.7 172.1 301.6 174.7C300.4 177.7 299.1 180.6 297.7 183.4C294.7 189.2 291.2 194.6 287.1 199.5C285.7 201.2 288.1 204.6 290.2 203.4C297.2 199.3 304.7 196 312.6 194C316.3 193 320 192.3 323.7 191.8C325.6 191.6 327.6 191.2 329.5 191.3C330 191.3 331.2 191.3 331.5 191.7C332 192.3 331.3 193.8 331.1 194.5C328.5 201.4 324.4 208.1 320.1 214.1C315.6 220.5 310.3 226.3 304.4 231.5C303 232.8 304.7 235.5 306.4 235.5C311.9 235.5 317.4 236.6 322.4 238.9C324.9 240 327.3 241.5 329.5 243.1C331.7 244.8 334.3 247.3 330.7 249.1C325.4 251.8 319.1 253.3 313.3 254.5C307.3 255.8 301.2 256.5 295.1 256.7C292.5 256.8 294 260.5 295.6 261C302 263.3 307.6 267.5 311.6 273C313.8 276.1 320.3 287 313.1 288.5C309.7 289.2 305.5 288.1 302.1 287.5C298.5 286.8 294.9 285.8 291.5 284.5C284.4 281.9 277.8 278.2 271.8 273.5C269.9 272 267.7 274.3 269.1 276.2C277.2 287.2 278.8 302 273.4 314.5C274.2 314.3 275 314 275.8 313.8C256.9 308.9 242.2 292.3 240 272.9C239.7 270.4 235.5 269.2 235.5 272.3C235.4 288.2 233.3 304 229.3 319.4C228.5 322.4 227.7 325.6 225.6 328C224.9 328.8 223.9 329.7 222.7 329.7C221.3 329.7 220.5 328.1 220 327C216.9 320.4 215.2 313 214.4 305.8C213.5 297.4 214.1 288.9 216 280.7C216.5 278.7 213.6 276.7 212 278.1C206.3 283 200 287 193.1 290.1C190.1 291.5 186.7 293.1 183.4 293.4C182.1 293.5 180.7 293.6 180.4 292C180.1 290.4 180.6 288.4 180.9 286.8C183.5 273.5 191.4 261.7 202.5 253.9C201.3 252.7 200.2 251.5 199 250.3C192.8 256.4 182.7 258.3 174.9 254.2C175.3 255.3 175.7 256.3 176.1 257.4C184.5 245.6 195.6 235.9 208.3 229.1C210.6 227.9 208.3 224.4 206.2 224.8C195 226.8 183.5 226.5 172.5 223.6C172.8 225 173.1 226.4 173.5 227.8C190 217.2 210.6 213.5 229.7 218.3C232.1 218.9 233 216.5 231.5 214.8C222.7 205.4 219.5 191.8 222.6 179.3C221.7 179.7 220.9 180.1 220 180.6C232.7 186.6 241.9 199.1 244 213C244.3 214.9 248.2 217 248.5 214.1C249 209.6 250.2 205.2 252.3 201.2C254.1 197.8 256.9 193 261 192.1C265.3 191.2 263.7 199.7 263.4 201.9C262.7 206.7 261.2 211.3 258.9 215.6C258 217.3 260.5 220.2 262.3 219C273.4 212.1 287.9 212.2 298.7 219.7C298.6 218.4 298.4 217.1 298.3 215.8C286.3 224 272.4 228.6 257.9 229.2C255.9 229.3 256.4 231.9 257.3 232.8C259.7 235.5 262.9 236.6 266.3 237.5C269.3 238.3 272.6 238.8 274.1 241.8C274.5 242.7 274.9 243.9 274.2 244.8C273.1 246.3 270.4 245.6 268.9 245.4C264.3 244.7 259.8 243.5 255.4 241.9C254.2 241.5 252.5 242.2 252.8 243.7C254.5 251.5 254 259.6 251.3 267.2C252.3 267 253.3 266.9 254.3 266.7C247.3 262.2 242 255.6 239.1 247.8C238.6 246.4 235.9 244.7 234.9 246.7C230.2 256.7 220.5 263.8 209.5 265.3C210.5 266.5 211.4 267.7 212.4 268.9C219.3 254.6 229.3 242 241.5 231.9C243.2 230.8 239.7 227.2 237.7 228.8Z" fill="white"/>
</g>
<mask id="mask1_201_740" style="mask-type:luminance" maskUnits="userSpaceOnUse" x="51" y="51" width="398" height="398">
<path d="M250 448.5C359.629 448.5 448.5 359.629 448.5 250C448.5 140.371 359.629 51.5 250 51.5C140.371 51.5 51.5 140.371 51.5 250C51.5 359.629 140.371 448.5 250 448.5Z" fill="white"/>
</mask>
<g mask="url(#mask1_201_740)">
<path d="M327.5 443.4C323.7 432.6 319.2 422.1 313.9 412C312.9 412.7 312 413.5 311 414.2C320.4 419 330.6 422.1 341.1 423.5C346.3 424.2 351.5 424.4 356.7 424.2C359.1 424.1 362.4 424.3 364.3 422.5C365.8 421 365.8 418.7 365.3 416.8C364.6 414.1 363 411.6 361.5 409.2C359.9 406.7 358 404.4 355.9 402.2C355.6 403.4 355.2 404.7 354.9 405.9C362.5 407.3 370.1 408.4 377.7 409.2C381.5 409.6 385.3 409.9 389.2 410.1C392.9 410.3 396.7 410.7 400.4 410.4C403.5 410.1 406.6 408.8 408.1 406C409.7 403.1 408.5 399.7 406.5 397.3C404.2 394.6 401.2 392.3 398.5 390C395.7 387.6 392.9 385.1 390 382.7C383.5 377.2 376.8 371.7 370.1 366.4C369.8 367.6 369.4 368.9 369.1 370.1C381.9 369.6 394.5 373.6 407.3 372.6C412.8 372.2 418.3 370.8 423 367.9C425.2 366.5 427.5 364.8 429 362.6C430.7 359.9 430.2 356.9 428.5 354.3C426.6 351.5 423.8 349 421.3 346.7C418.5 344.2 415.6 341.8 412.6 339.6C412.5 341 412.3 342.3 412.2 343.7C427.2 343.2 442.8 342 456.3 335C457.9 334.2 459.4 333.3 460.9 332.3C462.3 331.3 464.2 330.3 465.2 328.9C467.8 325.4 463.1 321.3 460.6 319.2C454.4 314 446.6 311 439.2 308.1C429.8 304.4 420.1 301.3 410.5 298.2C410.7 299.6 411 301.1 411.2 302.5C422.6 301.6 434 300.7 445.2 298.1C450.7 296.9 456.1 295.2 461.3 293.1C463.8 292 466.5 291 468.8 289.4C471.1 287.9 472.6 285.3 470.9 282.8C470 281.5 468.6 280.8 467.2 280.3C465.6 279.7 463.9 279.1 462.2 278.5C458.9 277.3 455.5 276.3 452.2 275.2C451.1 274.9 449.9 275.3 449.7 276.6C449.6 277.8 450.6 279.1 451.7 279.4C454.4 280.2 457 281.1 459.7 282C461 282.4 462.3 282.9 463.6 283.3C464.2 283.5 464.8 283.7 465.4 283.9C465.9 284.1 466.6 284.5 467.1 284.5C469.1 284.6 467.3 284.8 467.4 284.6C467.3 284.8 467.2 284.2 467.1 284.2C467 284.2 466.4 285 466.4 285C465.5 285.8 464.3 286.3 463.2 286.8C460.9 287.9 458.6 288.9 456.2 289.9C446.8 293.5 436.7 295.3 426.7 296.5C420.9 297.2 415.2 297.6 409.4 298.1C408.4 298.2 407.9 299.3 408.1 300.1C408.3 301.1 409.1 302.1 410.1 302.4C418 305 425.8 307.5 433.6 310.4C440.6 313 447.9 315.5 454.3 319.5C455.7 320.4 457.1 321.3 458.4 322.4C459.4 323.3 461.1 324.5 461.6 325.7C461.7 325.9 461.6 325.5 461.6 325.5C461.6 325.7 461.5 325.7 461.3 325.9C461.1 326.1 460.9 326.3 460.6 326.5C459.9 327 459.2 327.5 458.5 328C457.1 328.9 455.7 329.8 454.2 330.6C448.1 333.9 441.5 335.8 434.8 337.1C427.1 338.5 419.3 339 411.5 339.3C410.6 339.3 409.7 339.8 409.6 340.8C409.5 341.9 410.2 342.8 411.1 343.4C415.7 346.8 420 350.7 423.9 354.9C424.6 355.6 425.4 356.5 425.6 357.5C425.8 358.5 425.3 359.5 424.8 360.2C423.4 362 421.3 363.4 419.3 364.6C410.1 369.7 399 368.8 388.9 367.5C382.1 366.6 375.3 365.6 368.4 365.8C366.4 365.9 365.9 368.2 367.4 369.5C378.4 378.2 389.2 387.3 399.7 396.6C401.2 398 404.2 399.9 404.2 402.2C404.1 405 400.7 406 398.5 406.2C395.2 406.4 391.7 406 388.4 405.8C384.9 405.6 381.4 405.3 377.9 405C369.9 404.2 362 403.1 354.1 401.7C353.3 401.6 352.5 402.2 352.3 402.9C352.1 403.8 352.5 404.7 353.2 405.3C356.1 408.4 358.8 412 360.5 415.9C360.9 416.9 361.6 418.7 360.4 419.4C359.6 419.9 358.3 419.8 357.4 419.9C356.2 420 355.1 420 353.9 420.1C344.8 420.3 335.7 419.1 326.9 416.5C322 415 317.2 413.1 312.6 410.8C311.8 410.4 310.9 410.2 310.2 410.8C309.6 411.3 309.4 412.3 309.7 413.1C314.9 423.2 319.5 433.7 323.3 444.5C324.2 446.8 328.5 446.5 327.5 443.4Z" fill="white"/>
</g>
</svg>
