<svg width="500" height="500" viewBox="0 0 500 500" fill="none" xmlns="http://www.w3.org/2000/svg">
<mask id="mask0_201_756" style="mask-type:luminance" maskUnits="userSpaceOnUse" x="51" y="51" width="398" height="398">
<path d="M250 448.5C359.629 448.5 448.5 359.629 448.5 250C448.5 140.371 359.629 51.5 250 51.5C140.371 51.5 51.5 140.371 51.5 250C51.5 359.629 140.371 448.5 250 448.5Z" fill="white"/>
</mask>
<g mask="url(#mask0_201_756)">
<path d="M135 120C138.9 126 142.9 132 146.8 137.9C147.4 138.8 148.8 139.6 149.9 139.1C151 138.5 150.7 137.1 150.2 136.3C146.3 130.3 142.3 124.3 138.4 118.4C137.8 117.5 136.4 116.7 135.3 117.2C134.1 117.7 134.5 119.1 135 120Z" fill="white"/>
</g>
<mask id="mask1_201_756" style="mask-type:luminance" maskUnits="userSpaceOnUse" x="51" y="51" width="398" height="398">
<path d="M250 448.5C359.629 448.5 448.5 359.629 448.5 250C448.5 140.371 359.629 51.5 250 51.5C140.371 51.5 51.5 140.371 51.5 250C51.5 359.629 140.371 448.5 250 448.5Z" fill="white"/>
</mask>
<g mask="url(#mask1_201_756)">
<path d="M171.5 130.9C172.5 126.5 173.6 122 174.6 117.6C174.9 116.5 174.1 115.4 173.3 114.7C172.9 114.4 171.2 113.3 171 114.4C170 118.8 168.9 123.3 167.9 127.7C167.6 128.8 168.4 129.9 169.2 130.6C169.6 130.9 171.2 132 171.5 130.9Z" fill="white"/>
</g>
<mask id="mask2_201_756" style="mask-type:luminance" maskUnits="userSpaceOnUse" x="51" y="51" width="398" height="398">
<path d="M250 448.5C359.629 448.5 448.5 359.629 448.5 250C448.5 140.371 359.629 51.5 250 51.5C140.371 51.5 51.5 140.371 51.5 250C51.5 359.629 140.371 448.5 250 448.5Z" fill="white"/>
</mask>
<g mask="url(#mask2_201_756)">
<path d="M172.3 95.6C172.8 95.7 173.3 95.7 173.8 95.8C174.4 95.9 173.5 95.7 174 95.8C174.3 95.9 174.6 95.9 174.9 96C175.8 96.2 176.7 96.4 177.6 96.7C178.5 97 179.4 97.2 180.3 97.5C180.8 97.7 181.3 97.8 181.7 98C181.3 97.9 182 98.1 182 98.1C182.3 98.2 182.5 98.3 182.8 98.4C183.9 98.9 185.4 98.9 186.3 98.1C187.1 97.4 187.2 96.3 186.1 95.8C182 94 177.7 92.8 173.3 92.2C172.3 92.1 170.7 92.5 170.3 93.6C170 94.9 171.4 95.5 172.3 95.6Z" fill="white"/>
</g>
<mask id="mask3_201_756" style="mask-type:luminance" maskUnits="userSpaceOnUse" x="51" y="51" width="398" height="398">
<path d="M250 448.5C359.629 448.5 448.5 359.629 448.5 250C448.5 140.371 359.629 51.5 250 51.5C140.371 51.5 51.5 140.371 51.5 250C51.5 359.629 140.371 448.5 250 448.5Z" fill="white"/>
</mask>
<g mask="url(#mask3_201_756)">
<path d="M215.2 87.7C215.9 87.8 216.7 87.9 217.4 88C217.6 88 217.8 88.1 218 88.1C218.1 88.1 218.2 88.1 218.3 88.2C218.5 88.3 218.5 88.3 218.2 88.2C218.5 88.2 218.9 88.4 219.2 88.6C219.9 88.9 220.6 89.2 221.2 89.5C221.4 89.6 221.5 89.7 221.7 89.7C221.9 89.8 221.9 89.8 221.6 89.6C221.7 89.7 221.8 89.7 221.9 89.8C222.2 90 222.6 90.2 222.9 90.5C223.8 91.2 225.3 91.2 225.8 90C226.3 88.9 225.9 87.4 224.9 86.6C222.1 84.5 218.7 83.2 215.3 82.9C214.7 82.8 214.2 83 213.8 83.4C213.4 83.8 213.2 84.4 213.2 85C213 86.2 213.9 87.6 215.2 87.7Z" fill="white"/>
</g>
<mask id="mask4_201_756" style="mask-type:luminance" maskUnits="userSpaceOnUse" x="51" y="51" width="398" height="398">
<path d="M250 448.5C359.629 448.5 448.5 359.629 448.5 250C448.5 140.371 359.629 51.5 250 51.5C140.371 51.5 51.5 140.371 51.5 250C51.5 359.629 140.371 448.5 250 448.5Z" fill="white"/>
</mask>
<g mask="url(#mask4_201_756)">
<path d="M248 95.8C245.2 100.4 241.7 104.6 237.8 108.3C237.5 108.6 237.7 109 237.9 109.2C238.2 109.6 238.9 109.8 239.3 109.9C240.2 110.1 241.7 110.3 242.5 109.6C246.5 105.9 249.9 101.7 252.7 97.1C253.2 96.2 251.8 95.7 251.2 95.5C250.6 95.3 249.9 95.2 249.3 95.3C248.9 95.4 248.2 95.4 248 95.8Z" fill="white"/>
</g>
<mask id="mask5_201_756" style="mask-type:luminance" maskUnits="userSpaceOnUse" x="51" y="51" width="398" height="398">
<path d="M250 448.5C359.629 448.5 448.5 359.629 448.5 250C448.5 140.371 359.629 51.5 250 51.5C140.371 51.5 51.5 140.371 51.5 250C51.5 359.629 140.371 448.5 250 448.5Z" fill="white"/>
</mask>
<g mask="url(#mask5_201_756)">
<path d="M205 138.4C202.9 139.9 200.8 141.5 198.7 143C197.7 143.7 197.6 145.3 198.4 146.2C199.2 147.1 200.7 147.6 201.8 146.8C203.9 145.3 206 143.7 208.1 142.2C209.1 141.5 209.2 139.9 208.4 139C207.6 138.1 206.1 137.6 205 138.4Z" fill="white"/>
</g>
<mask id="mask6_201_756" style="mask-type:luminance" maskUnits="userSpaceOnUse" x="51" y="51" width="398" height="398">
<path d="M250 448.5C359.629 448.5 448.5 359.629 448.5 250C448.5 140.371 359.629 51.5 250 51.5C140.371 51.5 51.5 140.371 51.5 250C51.5 359.629 140.371 448.5 250 448.5Z" fill="white"/>
</mask>
<g mask="url(#mask6_201_756)">
<path d="M200.5 108.1C207.9 111.6 214.8 116 220.9 121.4C221.9 122.2 223.4 122.4 224.4 121.6C225.4 120.9 225.6 119.4 224.6 118.6C218.2 113 211 108.2 203.2 104.6C202.1 104.1 200.6 104.1 199.7 105.1C199.1 106 199.4 107.5 200.5 108.1Z" fill="white"/>
</g>
<mask id="mask7_201_756" style="mask-type:luminance" maskUnits="userSpaceOnUse" x="51" y="51" width="398" height="398">
<path d="M250 448.5C359.629 448.5 448.5 359.629 448.5 250C448.5 140.371 359.629 51.5 250 51.5C140.371 51.5 51.5 140.371 51.5 250C51.5 359.629 140.371 448.5 250 448.5Z" fill="white"/>
</mask>
<g mask="url(#mask7_201_756)">
<path d="M256.4 141.4C261.7 143.2 267.6 142.5 272.1 139.2C272.3 139 270.3 137.7 270.1 137.6C269.6 137.3 269.1 137 268.5 136.8C268.3 136.7 267.9 136.5 267.7 136.7C263.8 139.6 258.3 140.8 253.6 139.2C253.6 139.2 252.9 138.9 252.8 139.1C252.7 139.3 253.3 139.7 253.3 139.7C254.2 140.4 255.3 141 256.4 141.4Z" fill="white"/>
</g>
<mask id="mask8_201_756" style="mask-type:luminance" maskUnits="userSpaceOnUse" x="51" y="51" width="398" height="398">
<path d="M250 448.5C359.629 448.5 448.5 359.629 448.5 250C448.5 140.371 359.629 51.5 250 51.5C140.371 51.5 51.5 140.371 51.5 250C51.5 359.629 140.371 448.5 250 448.5Z" fill="white"/>
</mask>
<g mask="url(#mask8_201_756)">
<path d="M307.4 110.3C310.6 110.7 313.2 113.6 315.5 115.5C318.2 117.8 321 120.1 323.7 122.4C329.2 127 334.8 131.7 340.3 136.3C341.5 137.3 345.2 134.2 344.5 133.6C338.7 128.7 332.9 123.9 327.1 119C324.2 116.6 321.4 114.2 318.5 111.8C316.1 109.8 313.8 107.5 310.5 107.1C309.5 107 308.1 108 307.4 108.7C307 109.2 306.4 110.1 307.4 110.3Z" fill="white"/>
</g>
<mask id="mask9_201_756" style="mask-type:luminance" maskUnits="userSpaceOnUse" x="51" y="51" width="398" height="398">
<path d="M250 448.5C359.629 448.5 448.5 359.629 448.5 250C448.5 140.371 359.629 51.5 250 51.5C140.371 51.5 51.5 140.371 51.5 250C51.5 359.629 140.371 448.5 250 448.5Z" fill="white"/>
</mask>
<g mask="url(#mask9_201_756)">
<path d="M360.5 167.1C357.3 171.5 354.2 175.9 351 180.3C350.4 181.1 350.4 182.5 351.5 182.8C352.7 183.2 354.1 182.5 354.7 181.6C357.9 177.2 361 172.8 364.2 168.4C364.8 167.6 364.8 166.2 363.7 165.9C362.6 165.5 361.2 166.1 360.5 167.1Z" fill="white"/>
</g>
<mask id="mask10_201_756" style="mask-type:luminance" maskUnits="userSpaceOnUse" x="51" y="51" width="398" height="398">
<path d="M250 448.5C359.629 448.5 448.5 359.629 448.5 250C448.5 140.371 359.629 51.5 250 51.5C140.371 51.5 51.5 140.371 51.5 250C51.5 359.629 140.371 448.5 250 448.5Z" fill="white"/>
</mask>
<g mask="url(#mask10_201_756)">
<path d="M298 221C300.4 212.9 302.8 204.8 305.1 196.8C305.4 195.7 303.4 195.2 302.8 195.1C301.8 195 300.5 195.2 300.2 196.3C297.8 204.4 295.4 212.5 293.1 220.5C292.8 221.6 294.8 222.1 295.4 222.2C296.4 222.3 297.7 222.1 298 221Z" fill="white"/>
</g>
<mask id="mask11_201_756" style="mask-type:luminance" maskUnits="userSpaceOnUse" x="51" y="51" width="398" height="398">
<path d="M250 448.5C359.629 448.5 448.5 359.629 448.5 250C448.5 140.371 359.629 51.5 250 51.5C140.371 51.5 51.5 140.371 51.5 250C51.5 359.629 140.371 448.5 250 448.5Z" fill="white"/>
</mask>
<g mask="url(#mask11_201_756)">
<path d="M316.7 147.4C319.4 154.8 322.9 161.8 327.1 168.5C327.8 169.6 329.1 170.2 330.4 169.7C331.5 169.3 332.4 167.9 331.7 166.8C327.5 160.2 324 153.1 321.3 145.7C320.9 144.5 319.1 144.1 318 144.5C316.7 145 316.2 146.2 316.7 147.4Z" fill="white"/>
</g>
<mask id="mask12_201_756" style="mask-type:luminance" maskUnits="userSpaceOnUse" x="51" y="51" width="398" height="398">
<path d="M250 448.5C359.629 448.5 448.5 359.629 448.5 250C448.5 140.371 359.629 51.5 250 51.5C140.371 51.5 51.5 140.371 51.5 250C51.5 359.629 140.371 448.5 250 448.5Z" fill="white"/>
</mask>
<g mask="url(#mask12_201_756)">
<path d="M353 203C347.6 214.3 342.6 225.7 338 237.4C337.6 238.5 338.8 239 339.6 238.9C340.7 238.8 342.1 238.1 342.5 237C347.1 225.4 352.1 213.9 357.5 202.6C358 201.5 356.7 201 355.9 201.1C354.7 201.2 353.5 201.9 353 203Z" fill="white"/>
</g>
<mask id="mask13_201_756" style="mask-type:luminance" maskUnits="userSpaceOnUse" x="51" y="51" width="398" height="398">
<path d="M250 448.5C359.629 448.5 448.5 359.629 448.5 250C448.5 140.371 359.629 51.5 250 51.5C140.371 51.5 51.5 140.371 51.5 250C51.5 359.629 140.371 448.5 250 448.5Z" fill="white"/>
</mask>
<g mask="url(#mask13_201_756)">
<path d="M308.9 284.7C306 285.5 303.2 286.3 300.3 287C299.8 287.1 299.2 287.4 298.9 287.8C298.7 288.1 298.5 288.4 298.8 288.7C299.5 289.5 301.1 289.2 302 289C304.9 288.2 307.7 287.4 310.6 286.7C311.1 286.6 311.7 286.3 312 285.9C312.2 285.6 312.4 285.3 312.1 285C311.4 284.2 309.8 284.5 308.9 284.7Z" fill="white"/>
</g>
<mask id="mask14_201_756" style="mask-type:luminance" maskUnits="userSpaceOnUse" x="51" y="51" width="398" height="398">
<path d="M250 448.5C359.629 448.5 448.5 359.629 448.5 250C448.5 140.371 359.629 51.5 250 51.5C140.371 51.5 51.5 140.371 51.5 250C51.5 359.629 140.371 448.5 250 448.5Z" fill="white"/>
</mask>
<g mask="url(#mask14_201_756)">
<path d="M213.1 221.6C209.7 216.6 205.7 212.2 201.1 208.2C200.3 207.6 198.8 207.3 198.2 208.4C197.6 209.6 198.3 210.8 199.2 211.6C199.7 212 200.2 212.5 200.7 212.9C201 213.1 201.2 213.4 201.5 213.6C201.7 213.8 201.7 213.8 201.5 213.6C201.6 213.7 201.8 213.9 201.9 214C202.9 214.9 203.8 215.9 204.7 216.9C205.6 217.9 206.4 218.9 207.3 219.9C207.7 220.4 208.2 221 208.6 221.6C208.8 221.9 209 222.1 209.2 222.4C209.3 222.5 209.4 222.6 209.5 222.8C209.2 222.3 209.6 222.9 209.6 223C210.2 223.9 211.4 225 212.6 224.5C213.6 224 213.8 222.5 213.1 221.6Z" fill="white"/>
</g>
<mask id="mask15_201_756" style="mask-type:luminance" maskUnits="userSpaceOnUse" x="51" y="51" width="398" height="398">
<path d="M250 448.5C359.629 448.5 448.5 359.629 448.5 250C448.5 140.371 359.629 51.5 250 51.5C140.371 51.5 51.5 140.371 51.5 250C51.5 359.629 140.371 448.5 250 448.5Z" fill="white"/>
</mask>
<g mask="url(#mask15_201_756)">
<path d="M234.4 188.6C240.4 187.3 246.3 185.4 252 182.9C252.3 182.8 253.9 182.1 253.4 181.7C253.2 181.5 252.4 181.8 252.2 181.8C251.6 181.9 251 182.1 250.4 182.4C245.9 184.4 241.5 185.8 236.5 186.9C235.5 187.1 234.1 187.5 233.3 188.2C232.6 188.9 234 188.6 234.4 188.6Z" fill="white"/>
</g>
<mask id="mask16_201_756" style="mask-type:luminance" maskUnits="userSpaceOnUse" x="51" y="51" width="398" height="398">
<path d="M250 448.5C359.629 448.5 448.5 359.629 448.5 250C448.5 140.371 359.629 51.5 250 51.5C140.371 51.5 51.5 140.371 51.5 250C51.5 359.629 140.371 448.5 250 448.5Z" fill="white"/>
</mask>
<g mask="url(#mask16_201_756)">
<path d="M276.5 169.2C278 175.9 278.9 182.7 279.1 189.5C279.1 189.8 279.6 190.3 279.8 190.5C280.2 191 280.7 191.4 281.2 191.8C281.4 192 282.8 193.1 282.8 192.6C282.6 185.8 281.7 179 280.2 172.3C280 171.4 278.8 170.5 278.1 170C277.9 169.9 276.4 168.8 276.5 169.2Z" fill="white"/>
</g>
<mask id="mask17_201_756" style="mask-type:luminance" maskUnits="userSpaceOnUse" x="51" y="51" width="398" height="398">
<path d="M250 448.5C359.629 448.5 448.5 359.629 448.5 250C448.5 140.371 359.629 51.5 250 51.5C140.371 51.5 51.5 140.371 51.5 250C51.5 359.629 140.371 448.5 250 448.5Z" fill="white"/>
</mask>
<g mask="url(#mask17_201_756)">
<path d="M257.7 225.5C253.3 232.3 248.9 239.1 244.4 245.9C243.5 247.3 247.5 250.3 248.3 249.1C252.7 242.3 257.1 235.5 261.6 228.7C262.5 227.3 258.5 224.2 257.7 225.5Z" fill="white"/>
</g>
<mask id="mask18_201_756" style="mask-type:luminance" maskUnits="userSpaceOnUse" x="51" y="51" width="398" height="398">
<path d="M250 448.5C359.629 448.5 448.5 359.629 448.5 250C448.5 140.371 359.629 51.5 250 51.5C140.371 51.5 51.5 140.371 51.5 250C51.5 359.629 140.371 448.5 250 448.5Z" fill="white"/>
</mask>
<g mask="url(#mask18_201_756)">
<path d="M293.5 263C301.9 264.4 310.2 266.1 318.5 268C319.4 268.2 320.7 267.5 321.5 267.2C321.7 267.1 323.4 266.3 323 266.2C314.7 264.2 306.4 262.5 298 261.2C297.1 261 295.8 261.6 295 262C294.8 262.1 293.2 262.9 293.5 263Z" fill="white"/>
</g>
<mask id="mask19_201_756" style="mask-type:luminance" maskUnits="userSpaceOnUse" x="51" y="51" width="398" height="398">
<path d="M250 448.5C359.629 448.5 448.5 359.629 448.5 250C448.5 140.371 359.629 51.5 250 51.5C140.371 51.5 51.5 140.371 51.5 250C51.5 359.629 140.371 448.5 250 448.5Z" fill="white"/>
</mask>
<g mask="url(#mask19_201_756)">
<path d="M353.8 258.9C360 254 366.6 249.6 373.4 245.6C374.4 245 374.4 243.8 373.5 243.1C372.5 242.3 371 242.3 370 242.9C363.2 246.9 356.7 251.4 350.4 256.2C347.9 258.2 351.9 260.4 353.8 258.9Z" fill="white"/>
</g>
<mask id="mask20_201_756" style="mask-type:luminance" maskUnits="userSpaceOnUse" x="51" y="51" width="398" height="398">
<path d="M250 448.5C359.629 448.5 448.5 359.629 448.5 250C448.5 140.371 359.629 51.5 250 51.5C140.371 51.5 51.5 140.371 51.5 250C51.5 359.629 140.371 448.5 250 448.5Z" fill="white"/>
</mask>
<g mask="url(#mask20_201_756)">
<path d="M380.4 210C378.5 201.2 375.8 192.6 372.5 184.2C372.1 183.3 367.4 184.9 367.7 185.5C371.1 193.9 373.7 202.5 375.6 211.3C375.7 212 380.6 210.9 380.4 210Z" fill="white"/>
</g>
<mask id="mask21_201_756" style="mask-type:luminance" maskUnits="userSpaceOnUse" x="51" y="51" width="398" height="398">
<path d="M250 448.5C359.629 448.5 448.5 359.629 448.5 250C448.5 140.371 359.629 51.5 250 51.5C140.371 51.5 51.5 140.371 51.5 250C51.5 359.629 140.371 448.5 250 448.5Z" fill="white"/>
</mask>
<g mask="url(#mask21_201_756)">
<path d="M318.4 185.7C317.8 195 319.1 204.3 322.3 213.1C322.7 214.1 323.9 214.7 324.8 215C325.1 215.1 327.2 215.5 326.9 214.5C323.7 205.7 322.4 196.4 323 187.1C323.2 185.8 318.5 184 318.4 185.7Z" fill="white"/>
</g>
<mask id="mask22_201_756" style="mask-type:luminance" maskUnits="userSpaceOnUse" x="51" y="51" width="398" height="398">
<path d="M250 448.5C359.629 448.5 448.5 359.629 448.5 250C448.5 140.371 359.629 51.5 250 51.5C140.371 51.5 51.5 140.371 51.5 250C51.5 359.629 140.371 448.5 250 448.5Z" fill="white"/>
</mask>
<g mask="url(#mask22_201_756)">
<path d="M288.8 114.8C288.5 110.4 289 106 290.3 101.8C290.9 100 285.9 100.2 285.4 101.8C284 106.2 283.5 110.8 283.8 115.4C283.9 116.4 285.8 116.4 286.4 116.3C287.2 116.3 288.9 115.9 288.8 114.8Z" fill="white"/>
</g>
<mask id="mask23_201_756" style="mask-type:luminance" maskUnits="userSpaceOnUse" x="51" y="51" width="398" height="398">
<path d="M250 448.5C359.629 448.5 448.5 359.629 448.5 250C448.5 140.371 359.629 51.5 250 51.5C140.371 51.5 51.5 140.371 51.5 250C51.5 359.629 140.371 448.5 250 448.5Z" fill="white"/>
</mask>
<g mask="url(#mask23_201_756)">
<path d="M314.8 92.6C321.4 95.3 328.3 97.3 335.4 98.6C336.3 98.8 336.5 98.1 335.9 97.5C335.1 96.7 333.9 96.2 332.7 96C326.4 94.9 320.2 93 314.3 90.6C313.8 90.4 312.3 89.9 312.3 90.8C312.3 91.6 314.2 92.4 314.8 92.6Z" fill="white"/>
</g>
<mask id="mask24_201_756" style="mask-type:luminance" maskUnits="userSpaceOnUse" x="51" y="51" width="398" height="398">
<path d="M250 448.5C359.629 448.5 448.5 359.629 448.5 250C448.5 140.371 359.629 51.5 250 51.5C140.371 51.5 51.5 140.371 51.5 250C51.5 359.629 140.371 448.5 250 448.5Z" fill="white"/>
</mask>
<g mask="url(#mask24_201_756)">
<path d="M300.4 70.7C287 70.6 273.7 72.2 260.8 75.4C259.8 75.6 259.4 76.4 260.1 77.2C260.7 78 262.3 78.7 263.4 78.5C276 75.4 289 73.8 301.9 73.8C302.8 73.8 303.8 73.4 303.4 72.3C303.1 71.4 301.4 70.7 300.4 70.7Z" fill="white"/>
</g>
<mask id="mask25_201_756" style="mask-type:luminance" maskUnits="userSpaceOnUse" x="51" y="51" width="398" height="398">
<path d="M250 448.5C359.629 448.5 448.5 359.629 448.5 250C448.5 140.371 359.629 51.5 250 51.5C140.371 51.5 51.5 140.371 51.5 250C51.5 359.629 140.371 448.5 250 448.5Z" fill="white"/>
</mask>
<g mask="url(#mask25_201_756)">
<path d="M249.7 61.1001C256.2 63.5001 262.7 66.0001 269.2 68.4001C270.1 68.7001 270.5 68.3001 270.1 67.4001C269.6 66.4001 268.5 65.4001 267.5 65.0001C261 62.6001 254.5 60.1001 248 57.7001C247.1 57.4001 246.7 57.8001 247.1 58.7001C247.5 59.7001 248.6 60.7001 249.7 61.1001Z" fill="white"/>
</g>
<mask id="mask26_201_756" style="mask-type:luminance" maskUnits="userSpaceOnUse" x="51" y="51" width="398" height="398">
<path d="M250 448.5C359.629 448.5 448.5 359.629 448.5 250C448.5 140.371 359.629 51.5 250 51.5C140.371 51.5 51.5 140.371 51.5 250C51.5 359.629 140.371 448.5 250 448.5Z" fill="white"/>
</mask>
<g mask="url(#mask26_201_756)">
<path d="M241.5 59.2C236 62.3 230.5 65.4 225 68.5C224 69.1 223.1 70.3 223.8 71.5C224.4 72.6 226 72.8 227 72.2C232.5 69.1 238 66 243.5 62.9C244.5 62.3 245.4 61.1 244.7 59.9C244.1 58.8 242.5 58.6 241.5 59.2Z" fill="white"/>
</g>
<mask id="mask27_201_756" style="mask-type:luminance" maskUnits="userSpaceOnUse" x="51" y="51" width="398" height="398">
<path d="M250 448.5C359.629 448.5 448.5 359.629 448.5 250C448.5 140.371 359.629 51.5 250 51.5C140.371 51.5 51.5 140.371 51.5 250C51.5 359.629 140.371 448.5 250 448.5Z" fill="white"/>
</mask>
<g mask="url(#mask27_201_756)">
<path d="M214.8 64.7C202.5 59.4 190.8 52.8 179.9 44.9C179 44.3 177.6 43.6 176.6 44C175.6 44.4 176 45.5 176.8 46C188.3 54.4 200.8 61.4 213.9 67C214.6 67.3 216.3 67.7 216.7 66.7C217 65.9 215.4 64.9 214.8 64.7Z" fill="white"/>
</g>
<mask id="mask28_201_756" style="mask-type:luminance" maskUnits="userSpaceOnUse" x="51" y="51" width="398" height="398">
<path d="M250 448.5C359.629 448.5 448.5 359.629 448.5 250C448.5 140.371 359.629 51.5 250 51.5C140.371 51.5 51.5 140.371 51.5 250C51.5 359.629 140.371 448.5 250 448.5Z" fill="white"/>
</mask>
<g mask="url(#mask28_201_756)">
<path d="M170.1 58.9C174 69.3 179.8 78.9 187.2 87.1C188 87.9 189.4 88.2 190.5 88.1C191.2 88 192.4 87.5 191.6 86.6C184.4 78.5 178.7 69.2 174.9 59C174.4 57.5 169.5 57.3 170.1 58.9Z" fill="white"/>
</g>
<mask id="mask29_201_756" style="mask-type:luminance" maskUnits="userSpaceOnUse" x="51" y="51" width="398" height="398">
<path d="M250 448.5C359.629 448.5 448.5 359.629 448.5 250C448.5 140.371 359.629 51.5 250 51.5C140.371 51.5 51.5 140.371 51.5 250C51.5 359.629 140.371 448.5 250 448.5Z" fill="white"/>
</mask>
<g mask="url(#mask29_201_756)">
<path d="M212.5 65.3C205.1 64.5 197.7 64.9 190.4 66.5C190 66.6 191.6 71.2 192.7 70.9C199.9 69.4 207.2 68.9 214.5 69.7C215.2 69.8 214.4 68.1 214.3 67.9C214 67.3 213.7 66.7 213.4 66.2C213.2 66 212.8 65.4 212.5 65.3Z" fill="white"/>
</g>
<mask id="mask30_201_756" style="mask-type:luminance" maskUnits="userSpaceOnUse" x="51" y="51" width="398" height="398">
<path d="M250 448.5C359.629 448.5 448.5 359.629 448.5 250C448.5 140.371 359.629 51.5 250 51.5C140.371 51.5 51.5 140.371 51.5 250C51.5 359.629 140.371 448.5 250 448.5Z" fill="white"/>
</mask>
<g mask="url(#mask30_201_756)">
<path d="M160.1 90.5C147.6 94.6 135 98.8 122.5 102.9C121.7 103.2 121.7 103.6 122.5 103.8C123.5 104.1 125 104 126 103.7C138.5 99.6 151.1 95.4 163.6 91.3C164.4 91 164.4 90.6 163.6 90.4C162.6 90.1 161.1 90.1 160.1 90.5Z" fill="white"/>
</g>
<mask id="mask31_201_756" style="mask-type:luminance" maskUnits="userSpaceOnUse" x="51" y="51" width="398" height="398">
<path d="M250 448.5C359.629 448.5 448.5 359.629 448.5 250C448.5 140.371 359.629 51.5 250 51.5C140.371 51.5 51.5 140.371 51.5 250C51.5 359.629 140.371 448.5 250 448.5Z" fill="white"/>
</mask>
<g mask="url(#mask31_201_756)">
<path d="M147.1 74C150.3 79.8 154.1 85.2 158.4 90.2C158.9 90.8 160.1 92.1 161 91.4C161.8 90.8 161.1 89.2 160.6 88.6C158.5 86.2 156.6 83.8 154.8 81.2C153.9 79.9 153.2 78.8 152.5 77.7C151.6 76.3 150.8 74.9 150 73.5C149.5 72.7 148.5 71.4 147.4 71.6C146.3 71.8 146.8 73.3 147.1 74Z" fill="white"/>
</g>
<mask id="mask32_201_756" style="mask-type:luminance" maskUnits="userSpaceOnUse" x="51" y="51" width="398" height="398">
<path d="M250 448.5C359.629 448.5 448.5 359.629 448.5 250C448.5 140.371 359.629 51.5 250 51.5C140.371 51.5 51.5 140.371 51.5 250C51.5 359.629 140.371 448.5 250 448.5Z" fill="white"/>
</mask>
<g mask="url(#mask32_201_756)">
<path d="M155.9 106.4C154.2 113.2 151.9 119.8 149 126.2C148.5 127.4 148.8 128.8 149.8 129.6C150.7 130.3 152.2 130.3 152.7 129.2C155.7 122.5 158.2 115.5 160 108.3C160.3 107.1 159.6 105.6 158.5 105.1C157.4 104.6 156.2 105.2 155.9 106.4Z" fill="white"/>
</g>
<mask id="mask33_201_756" style="mask-type:luminance" maskUnits="userSpaceOnUse" x="51" y="51" width="398" height="398">
<path d="M250 448.5C359.629 448.5 448.5 359.629 448.5 250C448.5 140.371 359.629 51.5 250 51.5C140.371 51.5 51.5 140.371 51.5 250C51.5 359.629 140.371 448.5 250 448.5Z" fill="white"/>
</mask>
<g mask="url(#mask33_201_756)">
<path d="M135.2 146.1C144.1 146.1 152.9 146.1 161.8 146.1C162.8 146.1 161.6 144.3 161.4 144C160.8 143.2 159.9 142.2 158.8 142.2C149.9 142.2 141.1 142.2 132.2 142.2C131.2 142.2 132.4 144 132.6 144.3C133.2 145 134.1 146.1 135.2 146.1Z" fill="white"/>
</g>
<mask id="mask34_201_756" style="mask-type:luminance" maskUnits="userSpaceOnUse" x="51" y="51" width="398" height="398">
<path d="M250 448.5C359.629 448.5 448.5 359.629 448.5 250C448.5 140.371 359.629 51.5 250 51.5C140.371 51.5 51.5 140.371 51.5 250C51.5 359.629 140.371 448.5 250 448.5Z" fill="white"/>
</mask>
<g mask="url(#mask34_201_756)">
<path d="M183 128.4C180.4 137.5 177.7 146.6 175.1 155.8C174.5 157.9 179.2 159.6 179.8 157.6C182.4 148.5 185.1 139.4 187.7 130.2C188.3 128.1 183.6 126.3 183 128.4Z" fill="white"/>
</g>
<mask id="mask35_201_756" style="mask-type:luminance" maskUnits="userSpaceOnUse" x="51" y="51" width="398" height="398">
<path d="M250 448.5C359.629 448.5 448.5 359.629 448.5 250C448.5 140.371 359.629 51.5 250 51.5C140.371 51.5 51.5 140.371 51.5 250C51.5 359.629 140.371 448.5 250 448.5Z" fill="white"/>
</mask>
<g mask="url(#mask35_201_756)">
<path d="M174.1 172C180.1 173.2 186.1 174.5 192.1 175.7C193.2 175.9 194.5 176 195.6 175.8C196.4 175.7 196.6 175.3 195.6 175.1C189.6 173.9 183.6 172.6 177.6 171.4C176.5 171.2 175.2 171.1 174.1 171.3C173.4 171.4 173.2 171.8 174.1 172Z" fill="white"/>
</g>
<mask id="mask36_201_756" style="mask-type:luminance" maskUnits="userSpaceOnUse" x="51" y="51" width="398" height="398">
<path d="M250 448.5C359.629 448.5 448.5 359.629 448.5 250C448.5 140.371 359.629 51.5 250 51.5C140.371 51.5 51.5 140.371 51.5 250C51.5 359.629 140.371 448.5 250 448.5Z" fill="white"/>
</mask>
<g mask="url(#mask36_201_756)">
<path d="M224.9 144C224.9 148.7 224.9 153.4 224.9 158.1C224.9 159.3 225.6 160.6 226.8 161.1C227.8 161.5 228.9 161 228.9 159.8C228.9 155.1 228.9 150.4 228.9 145.7C228.9 144.5 228.2 143.2 227 142.7C226 142.3 224.9 142.9 224.9 144Z" fill="white"/>
</g>
<mask id="mask37_201_756" style="mask-type:luminance" maskUnits="userSpaceOnUse" x="51" y="51" width="398" height="398">
<path d="M250 448.5C359.629 448.5 448.5 359.629 448.5 250C448.5 140.371 359.629 51.5 250 51.5C140.371 51.5 51.5 140.371 51.5 250C51.5 359.629 140.371 448.5 250 448.5Z" fill="white"/>
</mask>
<g mask="url(#mask37_201_756)">
<path d="M238.7 146.8C241.1 157.5 245.4 167.6 251.3 176.9C251.9 177.9 253.5 178.2 254.3 177.4C255.3 176.4 254.9 175 254.2 174C248.8 165.5 245 156.1 242.8 146.3C242.5 145.2 241.4 144 240.2 144.2C238.9 144.3 238.4 145.7 238.7 146.8Z" fill="white"/>
</g>
<mask id="mask38_201_756" style="mask-type:luminance" maskUnits="userSpaceOnUse" x="51" y="51" width="398" height="398">
<path d="M250 448.5C359.629 448.5 448.5 359.629 448.5 250C448.5 140.371 359.629 51.5 250 51.5C140.371 51.5 51.5 140.371 51.5 250C51.5 359.629 140.371 448.5 250 448.5Z" fill="white"/>
</mask>
<g mask="url(#mask38_201_756)">
<path d="M278 141.8C282.4 146.8 286.7 151.8 291.1 156.9C291.3 157.2 292.1 157.1 292.4 157.1C293 157.1 293.7 156.9 294.3 156.6C294.8 156.4 296.2 155.7 295.6 154.9C291.2 149.9 286.9 144.9 282.5 139.8C282.3 139.5 281.5 139.6 281.2 139.6C280.6 139.6 279.9 139.8 279.3 140.1C278.8 140.4 277.4 141.1 278 141.8Z" fill="white"/>
</g>
<mask id="mask39_201_756" style="mask-type:luminance" maskUnits="userSpaceOnUse" x="51" y="51" width="398" height="398">
<path d="M250 448.5C359.629 448.5 448.5 359.629 448.5 250C448.5 140.371 359.629 51.5 250 51.5C140.371 51.5 51.5 140.371 51.5 250C51.5 359.629 140.371 448.5 250 448.5Z" fill="white"/>
</mask>
<g mask="url(#mask39_201_756)">
<path d="M307.2 135.7C308.8 134.9 310.4 134.2 311.9 133.4C312.2 133.3 312 133 311.9 132.8C311.6 132.4 311.1 132.1 310.6 131.9C310 131.6 309.4 131.4 308.8 131.2C308.4 131.1 307.9 131 307.6 131.2C306 132 304.4 132.7 302.9 133.5C302.6 133.6 302.8 133.9 302.9 134.1C303.2 134.5 303.7 134.8 304.2 135C304.8 135.3 305.4 135.5 306 135.7C306.3 135.7 306.8 135.9 307.2 135.7Z" fill="white"/>
</g>
<mask id="mask40_201_756" style="mask-type:luminance" maskUnits="userSpaceOnUse" x="51" y="51" width="398" height="398">
<path d="M250 448.5C359.629 448.5 448.5 359.629 448.5 250C448.5 140.371 359.629 51.5 250 51.5C140.371 51.5 51.5 140.371 51.5 250C51.5 359.629 140.371 448.5 250 448.5Z" fill="white"/>
</mask>
<g mask="url(#mask40_201_756)">
<path d="M370.2 114.7C368.7 119.4 367.2 124.1 365.7 128.9C365 131 368.8 134 369.7 131.4C371.2 126.7 372.7 122 374.2 117.2C374.8 115 371.1 112 370.2 114.7Z" fill="white"/>
</g>
<mask id="mask41_201_756" style="mask-type:luminance" maskUnits="userSpaceOnUse" x="51" y="51" width="398" height="398">
<path d="M250 448.5C359.629 448.5 448.5 359.629 448.5 250C448.5 140.371 359.629 51.5 250 51.5C140.371 51.5 51.5 140.371 51.5 250C51.5 359.629 140.371 448.5 250 448.5Z" fill="white"/>
</mask>
<g mask="url(#mask41_201_756)">
<path d="M373.4 140.8C381.7 144.7 389.9 149.2 397.7 154C398.2 154.3 399.6 153.3 400 153C400.1 152.9 402.1 151.5 401.9 151.4C394.1 146.5 385.9 142.1 377.6 138.2C377 137.9 375.7 138.9 375.3 139.2C375.1 139.3 373.2 140.7 373.4 140.8Z" fill="white"/>
</g>
<mask id="mask42_201_756" style="mask-type:luminance" maskUnits="userSpaceOnUse" x="51" y="51" width="398" height="398">
<path d="M250 448.5C359.629 448.5 448.5 359.629 448.5 250C448.5 140.371 359.629 51.5 250 51.5C140.371 51.5 51.5 140.371 51.5 250C51.5 359.629 140.371 448.5 250 448.5Z" fill="white"/>
</mask>
<g mask="url(#mask42_201_756)">
<path d="M407.6 153C406.6 161.1 405 169 402.9 176.9C402.4 178.8 407.1 180.5 407.6 178.7C409.8 170.6 411.4 162.4 412.4 154.1C412.6 152.3 407.9 150.8 407.6 153Z" fill="white"/>
</g>
<mask id="mask43_201_756" style="mask-type:luminance" maskUnits="userSpaceOnUse" x="51" y="51" width="398" height="398">
<path d="M250 448.5C359.629 448.5 448.5 359.629 448.5 250C448.5 140.371 359.629 51.5 250 51.5C140.371 51.5 51.5 140.371 51.5 250C51.5 359.629 140.371 448.5 250 448.5Z" fill="white"/>
</mask>
<g mask="url(#mask43_201_756)">
<path d="M385.6 164.3C385.3 177.1 385.6 189.9 386.4 202.6C386.6 205.1 391.5 205.8 391.3 203C390.5 190.2 390.2 177.4 390.5 164.7C390.6 162.1 385.6 161.5 385.6 164.3Z" fill="white"/>
</g>
<mask id="mask44_201_756" style="mask-type:luminance" maskUnits="userSpaceOnUse" x="51" y="51" width="398" height="398">
<path d="M250 448.5C359.629 448.5 448.5 359.629 448.5 250C448.5 140.371 359.629 51.5 250 51.5C140.371 51.5 51.5 140.371 51.5 250C51.5 359.629 140.371 448.5 250 448.5Z" fill="white"/>
</mask>
<g mask="url(#mask44_201_756)">
<path d="M403.6 226.4C407.7 221.1 412.2 216.2 417.2 211.8C418.1 211 417.6 209.2 416.8 208.4C415.9 207.5 414.8 207.3 413.8 208.1C408.8 212.5 404.2 217.4 400.2 222.7C399.4 223.7 399.7 225.2 400.6 226.1C401.3 226.8 402.8 227.4 403.6 226.4Z" fill="white"/>
</g>
<mask id="mask45_201_756" style="mask-type:luminance" maskUnits="userSpaceOnUse" x="51" y="51" width="398" height="398">
<path d="M250 448.5C359.629 448.5 448.5 359.629 448.5 250C448.5 140.371 359.629 51.5 250 51.5C140.371 51.5 51.5 140.371 51.5 250C51.5 359.629 140.371 448.5 250 448.5Z" fill="white"/>
</mask>
<g mask="url(#mask45_201_756)">
<path d="M405.4 186.9C420.3 192.7 435.6 197.3 451.2 200.8C452.2 201 453.6 200.3 454.5 199.8C455 199.5 456 198.7 455 198.5C439.6 195.1 424.5 190.5 409.8 184.8C408.9 184.4 407.6 185.1 406.8 185.5C406.4 185.5 404.6 186.6 405.4 186.9Z" fill="white"/>
</g>
<mask id="mask46_201_756" style="mask-type:luminance" maskUnits="userSpaceOnUse" x="51" y="51" width="398" height="398">
<path d="M250 448.5C359.629 448.5 448.5 359.629 448.5 250C448.5 140.371 359.629 51.5 250 51.5C140.371 51.5 51.5 140.371 51.5 250C51.5 359.629 140.371 448.5 250 448.5Z" fill="white"/>
</mask>
<g mask="url(#mask46_201_756)">
<path d="M426.9 119.4C415.7 123.4 405.1 128.9 395.4 135.7C394.5 136.4 395.5 137.2 396.2 137.4C397.2 137.8 398.7 137.8 399.6 137.1C409.1 130.4 419.4 125.1 430.3 121.2C431.3 120.8 431.2 119.9 430.4 119.5C429.4 119 428 119.1 426.9 119.4Z" fill="white"/>
</g>
<mask id="mask47_201_756" style="mask-type:luminance" maskUnits="userSpaceOnUse" x="51" y="51" width="398" height="398">
<path d="M250 448.5C359.629 448.5 448.5 359.629 448.5 250C448.5 140.371 359.629 51.5 250 51.5C140.371 51.5 51.5 140.371 51.5 250C51.5 359.629 140.371 448.5 250 448.5Z" fill="white"/>
</mask>
<g mask="url(#mask47_201_756)">
<path d="M377.3 89.5C371.7 93.3 366.7 97.9 362.4 103.2C361.8 103.9 363.7 104.3 364.1 104.4C364.7 104.5 365.4 104.5 366 104.4C366.4 104.3 366.9 104.3 367.2 103.9C371.3 98.8 376.1 94.3 381.6 90.6C382.5 90 381.4 89.5 380.8 89.4C379.8 89.2 378.1 88.9 377.3 89.5Z" fill="white"/>
</g>
<mask id="mask48_201_756" style="mask-type:luminance" maskUnits="userSpaceOnUse" x="51" y="51" width="398" height="398">
<path d="M250 448.5C359.629 448.5 448.5 359.629 448.5 250C448.5 140.371 359.629 51.5 250 51.5C140.371 51.5 51.5 140.371 51.5 250C51.5 359.629 140.371 448.5 250 448.5Z" fill="white"/>
</mask>
<g mask="url(#mask48_201_756)">
<path d="M353 99C351.9 93 350.9 87 349.8 81C349.6 79.9 348.9 78.6 347.9 78C347.1 77.5 346.4 77.8 346.6 78.8C347.7 84.8 348.7 90.8 349.8 96.8C350 97.9 350.7 99.2 351.7 99.8C352.5 100.4 353.1 100 353 99Z" fill="white"/>
</g>
<mask id="mask49_201_756" style="mask-type:luminance" maskUnits="userSpaceOnUse" x="51" y="51" width="398" height="398">
<path d="M250 448.5C359.629 448.5 448.5 359.629 448.5 250C448.5 140.371 359.629 51.5 250 51.5C140.371 51.5 51.5 140.371 51.5 250C51.5 359.629 140.371 448.5 250 448.5Z" fill="white"/>
</mask>
<g mask="url(#mask49_201_756)">
<path d="M333 61C325.5 66.1 318.6 72.1 312.6 79C312 79.7 315.7 83.1 316.2 82.4C322.2 75.5 329 69.5 336.6 64.4C337.1 64.1 334 60.4 333 61Z" fill="white"/>
</g>
<mask id="mask50_201_756" style="mask-type:luminance" maskUnits="userSpaceOnUse" x="51" y="51" width="398" height="398">
<path d="M250 448.5C359.629 448.5 448.5 359.629 448.5 250C448.5 140.371 359.629 51.5 250 51.5C140.371 51.5 51.5 140.371 51.5 250C51.5 359.629 140.371 448.5 250 448.5Z" fill="white"/>
</mask>
<g mask="url(#mask50_201_756)">
<path d="M316.4 229C307.2 233.3 298.5 238.8 290.7 245.3C290 245.9 293.6 249.2 294.7 248.3C302.5 241.9 311 236.5 320 232.2C321 231.7 317.6 228.4 316.4 229Z" fill="white"/>
</g>
<mask id="mask51_201_756" style="mask-type:luminance" maskUnits="userSpaceOnUse" x="51" y="51" width="398" height="398">
<path d="M250 448.5C359.629 448.5 448.5 359.629 448.5 250C448.5 140.371 359.629 51.5 250 51.5C140.371 51.5 51.5 140.371 51.5 250C51.5 359.629 140.371 448.5 250 448.5Z" fill="white"/>
</mask>
<g mask="url(#mask51_201_756)">
<path d="M277.7 235.3C278 240.8 278.3 246.3 278.6 251.7C278.6 252.2 280.9 251.2 281.1 251.1C281.6 250.8 283.1 250.2 283.1 249.4C282.8 243.9 282.5 238.4 282.2 233C282.2 232.5 279.9 233.5 279.7 233.6C279.1 233.9 277.7 234.5 277.7 235.3Z" fill="white"/>
</g>
<mask id="mask52_201_756" style="mask-type:luminance" maskUnits="userSpaceOnUse" x="51" y="51" width="398" height="398">
<path d="M250 448.5C359.629 448.5 448.5 359.629 448.5 250C448.5 140.371 359.629 51.5 250 51.5C140.371 51.5 51.5 140.371 51.5 250C51.5 359.629 140.371 448.5 250 448.5Z" fill="white"/>
</mask>
<g mask="url(#mask52_201_756)">
<path d="M262.8 284.6C266.5 288.1 269.2 292.5 270.8 297.4C271.2 298.8 276.1 299 275.7 297.6C274.1 292.5 271.1 287.9 267.3 284.3C266.5 283.5 265 283.3 264 283.4C263.3 283.4 262 283.8 262.8 284.6Z" fill="white"/>
</g>
<mask id="mask53_201_756" style="mask-type:luminance" maskUnits="userSpaceOnUse" x="51" y="51" width="398" height="398">
<path d="M250 448.5C359.629 448.5 448.5 359.629 448.5 250C448.5 140.371 359.629 51.5 250 51.5C140.371 51.5 51.5 140.371 51.5 250C51.5 359.629 140.371 448.5 250 448.5Z" fill="white"/>
</mask>
<g mask="url(#mask53_201_756)">
<path d="M307.9 310.5C314.4 310.8 320.9 311.9 327.2 313.6C328.2 313.9 326.8 312.8 326.7 312.7C325.8 312.1 324.8 311.3 323.7 311C317.2 309.2 310.6 308.1 303.8 307.8C303.3 307.8 305 309 305.1 309.1C305.9 309.6 307 310.4 307.9 310.5Z" fill="white"/>
</g>
<mask id="mask54_201_756" style="mask-type:luminance" maskUnits="userSpaceOnUse" x="51" y="51" width="398" height="398">
<path d="M250 448.5C359.629 448.5 448.5 359.629 448.5 250C448.5 140.371 359.629 51.5 250 51.5C140.371 51.5 51.5 140.371 51.5 250C51.5 359.629 140.371 448.5 250 448.5Z" fill="white"/>
</mask>
<g mask="url(#mask54_201_756)">
<path d="M333.5 278.5C337.1 282.2 340.8 285.8 344.4 289.5C345.3 290.4 346.8 290.8 347.9 290.1C348.9 289.5 349.3 288 348.4 287.1C344.8 283.4 341.1 279.8 337.5 276.1C336.6 275.2 335.1 274.8 334 275.5C333.1 276.1 332.6 277.5 333.5 278.5Z" fill="white"/>
</g>
<mask id="mask55_201_756" style="mask-type:luminance" maskUnits="userSpaceOnUse" x="51" y="51" width="398" height="398">
<path d="M250 448.5C359.629 448.5 448.5 359.629 448.5 250C448.5 140.371 359.629 51.5 250 51.5C140.371 51.5 51.5 140.371 51.5 250C51.5 359.629 140.371 448.5 250 448.5Z" fill="white"/>
</mask>
<g mask="url(#mask55_201_756)">
<path d="M369.9 287.8C372.7 282.7 376.1 278 380 273.6C380.8 272.7 380 271.1 379.1 270.6C377.9 270 376.6 270.1 375.7 271.1C371.8 275.4 368.4 280.2 365.6 285.3C365 286.4 365.4 287.7 366.5 288.3C367.5 288.8 369.3 289 369.9 287.8Z" fill="white"/>
</g>
<mask id="mask56_201_756" style="mask-type:luminance" maskUnits="userSpaceOnUse" x="51" y="51" width="398" height="398">
<path d="M250 448.5C359.629 448.5 448.5 359.629 448.5 250C448.5 140.371 359.629 51.5 250 51.5C140.371 51.5 51.5 140.371 51.5 250C51.5 359.629 140.371 448.5 250 448.5Z" fill="white"/>
</mask>
<g mask="url(#mask56_201_756)">
<path d="M382.4 250.2C390 253.2 397.4 256.6 404.5 260.5C405.4 261 406.2 260.6 406.1 259.5C406.1 258.4 405.3 257 404.3 256.4C396.9 252.4 389.2 248.8 381.3 245.7C380.2 245.3 380 246.7 380.2 247.4C380.5 248.6 381.3 249.7 382.4 250.2Z" fill="white"/>
</g>
<mask id="mask57_201_756" style="mask-type:luminance" maskUnits="userSpaceOnUse" x="51" y="51" width="398" height="398">
<path d="M250 448.5C359.629 448.5 448.5 359.629 448.5 250C448.5 140.371 359.629 51.5 250 51.5C140.371 51.5 51.5 140.371 51.5 250C51.5 359.629 140.371 448.5 250 448.5Z" fill="white"/>
</mask>
<g mask="url(#mask57_201_756)">
<path d="M381.9 224C392.3 232 402.9 239.7 413.8 246.9C414.6 247.5 415.7 247.7 416.7 248C417.1 248.1 417.8 248.4 418.2 248.3C418.2 248.3 418.8 248.3 418.5 248.2C407.6 240.9 397 233.3 386.6 225.3C385.8 224.7 384.6 224.5 383.7 224.2C383.3 224.1 382.7 223.8 382.2 223.9C382.1 223.9 381.6 223.8 381.9 224Z" fill="white"/>
</g>
<mask id="mask58_201_756" style="mask-type:luminance" maskUnits="userSpaceOnUse" x="51" y="51" width="398" height="398">
<path d="M250 448.5C359.629 448.5 448.5 359.629 448.5 250C448.5 140.371 359.629 51.5 250 51.5C140.371 51.5 51.5 140.371 51.5 250C51.5 359.629 140.371 448.5 250 448.5Z" fill="white"/>
</mask>
<g mask="url(#mask58_201_756)">
<path d="M434.1 225.4C432.8 235.3 431.4 245.2 430.1 255.1C429.8 257.6 434.7 257.4 435 255.3C436.3 245.4 437.7 235.5 439 225.6C439.3 223.1 434.4 223.3 434.1 225.4Z" fill="white"/>
</g>
<mask id="mask59_201_756" style="mask-type:luminance" maskUnits="userSpaceOnUse" x="51" y="51" width="398" height="398">
<path d="M250 448.5C359.629 448.5 448.5 359.629 448.5 250C448.5 140.371 359.629 51.5 250 51.5C140.371 51.5 51.5 140.371 51.5 250C51.5 359.629 140.371 448.5 250 448.5Z" fill="white"/>
</mask>
<g mask="url(#mask59_201_756)">
<path d="M398.5 283.4C411.9 290.9 424.9 299.1 437.5 307.9C438.4 308.5 439.9 308.5 440.9 308.4C441.4 308.4 442.7 308.1 441.9 307.6C429.3 298.8 416.3 290.6 402.9 283.1C401.9 282.6 400.6 282.5 399.5 282.6C399.1 282.6 397.6 282.9 398.5 283.4Z" fill="white"/>
</g>
<mask id="mask60_201_756" style="mask-type:luminance" maskUnits="userSpaceOnUse" x="51" y="51" width="398" height="398">
<path d="M250 448.5C359.629 448.5 448.5 359.629 448.5 250C448.5 140.371 359.629 51.5 250 51.5C140.371 51.5 51.5 140.371 51.5 250C51.5 359.629 140.371 448.5 250 448.5Z" fill="white"/>
</mask>
<g mask="url(#mask60_201_756)">
<path d="M425.6 261.5C425.8 265.6 425.6 269.7 424.8 273.8C424.7 274.6 426.4 274.2 426.7 274.1C427.3 273.9 427.9 273.7 428.5 273.4C428.8 273.2 429.4 273 429.4 272.6C430.1 268.4 430.4 264.1 430.2 259.9C430.3 259.2 425.5 260.2 425.6 261.5Z" fill="white"/>
</g>
<mask id="mask61_201_756" style="mask-type:luminance" maskUnits="userSpaceOnUse" x="51" y="51" width="398" height="398">
<path d="M250 448.5C359.629 448.5 448.5 359.629 448.5 250C448.5 140.371 359.629 51.5 250 51.5C140.371 51.5 51.5 140.371 51.5 250C51.5 359.629 140.371 448.5 250 448.5Z" fill="white"/>
</mask>
<g mask="url(#mask61_201_756)">
<path d="M399.1 312.1C395.2 316.6 391.3 321 387.5 325.5C386.7 326.4 387.8 327.6 388.7 328C389.8 328.5 391.2 328.5 392 327.6C395.9 323.1 399.8 318.7 403.6 314.2C404.4 313.3 403.3 312.1 402.4 311.7C401.3 311.2 399.9 311.1 399.1 312.1Z" fill="white"/>
</g>
<mask id="mask62_201_756" style="mask-type:luminance" maskUnits="userSpaceOnUse" x="51" y="51" width="398" height="398">
<path d="M250 448.5C359.629 448.5 448.5 359.629 448.5 250C448.5 140.371 359.629 51.5 250 51.5C140.371 51.5 51.5 140.371 51.5 250C51.5 359.629 140.371 448.5 250 448.5Z" fill="white"/>
</mask>
<g mask="url(#mask62_201_756)">
<path d="M378.8 306.4C386.4 311.5 394.6 315.7 403.2 318.9C404.3 319.3 404.5 318.1 404.4 317.3C404.2 316.3 403.5 314.9 402.4 314.5C394.1 311.4 386.2 307.4 378.8 302.4C377.9 301.8 377.2 302.2 377.2 303.2C377.1 304.3 377.9 305.7 378.8 306.4Z" fill="white"/>
</g>
<mask id="mask63_201_756" style="mask-type:luminance" maskUnits="userSpaceOnUse" x="51" y="51" width="398" height="398">
<path d="M250 448.5C359.629 448.5 448.5 359.629 448.5 250C448.5 140.371 359.629 51.5 250 51.5C140.371 51.5 51.5 140.371 51.5 250C51.5 359.629 140.371 448.5 250 448.5Z" fill="white"/>
</mask>
<g mask="url(#mask63_201_756)">
<path d="M415 307.6C421.3 313.8 426.7 320.9 431.1 328.5C431.9 329.9 436.8 329.1 435.8 327.4C431.3 319.5 425.7 312.3 419.2 305.9C418.1 304.9 413.3 306 415 307.6Z" fill="white"/>
</g>
<mask id="mask64_201_756" style="mask-type:luminance" maskUnits="userSpaceOnUse" x="51" y="51" width="398" height="398">
<path d="M250 448.5C359.629 448.5 448.5 359.629 448.5 250C448.5 140.371 359.629 51.5 250 51.5C140.371 51.5 51.5 140.371 51.5 250C51.5 359.629 140.371 448.5 250 448.5Z" fill="white"/>
</mask>
<g mask="url(#mask64_201_756)">
<path d="M406.1 333.8C403.9 344 401.8 354.1 399.6 364.3C399.3 365.5 400.6 366.9 401.7 367.1C403.1 367.4 403.9 366.5 404.2 365.3C406.4 355.1 408.5 345 410.7 334.8C411 333.6 409.7 332.2 408.6 332C407.2 331.7 406.3 332.6 406.1 333.8Z" fill="white"/>
</g>
<mask id="mask65_201_756" style="mask-type:luminance" maskUnits="userSpaceOnUse" x="51" y="51" width="398" height="398">
<path d="M250 448.5C359.629 448.5 448.5 359.629 448.5 250C448.5 140.371 359.629 51.5 250 51.5C140.371 51.5 51.5 140.371 51.5 250C51.5 359.629 140.371 448.5 250 448.5Z" fill="white"/>
</mask>
<g mask="url(#mask65_201_756)">
<path d="M358.5 214.6C360.1 220.5 362.6 226.2 365.9 231.4C366.5 232.4 367.7 233.2 368.8 233.4C369.8 233.5 370.3 232.9 369.7 232C366.6 227 364.3 221.7 362.7 216C362.4 214.9 361.1 214.1 360.1 213.7C359.4 213.6 358.1 213.5 358.5 214.6Z" fill="white"/>
</g>
<mask id="mask66_201_756" style="mask-type:luminance" maskUnits="userSpaceOnUse" x="51" y="51" width="398" height="398">
<path d="M250 448.5C359.629 448.5 448.5 359.629 448.5 250C448.5 140.371 359.629 51.5 250 51.5C140.371 51.5 51.5 140.371 51.5 250C51.5 359.629 140.371 448.5 250 448.5Z" fill="white"/>
</mask>
<g mask="url(#mask66_201_756)">
<path d="M359.3 139.9C351.3 147 343.9 154.8 337.2 163.2C336.4 164.3 341 165.5 341.9 164.4C348.6 156 356 148.2 364 141.1C364.7 140.4 362.8 139.8 362.4 139.7C361.5 139.4 360.1 139.2 359.3 139.9Z" fill="white"/>
</g>
<mask id="mask67_201_756" style="mask-type:luminance" maskUnits="userSpaceOnUse" x="51" y="51" width="398" height="398">
<path d="M250 448.5C359.629 448.5 448.5 359.629 448.5 250C448.5 140.371 359.629 51.5 250 51.5C140.371 51.5 51.5 140.371 51.5 250C51.5 359.629 140.371 448.5 250 448.5Z" fill="white"/>
</mask>
<g mask="url(#mask67_201_756)">
<path d="M244.4 208.3C234.5 218.3 225 228.6 215.9 239.2C215.5 239.7 217.6 239.4 217.7 239.4C218.5 239.3 220 239.1 220.6 238.4C229.8 227.8 239.3 217.4 249.1 207.5C249.5 207.1 247.3 207.3 247.3 207.3C246.4 207.4 245 207.6 244.4 208.3Z" fill="white"/>
</g>
<mask id="mask68_201_756" style="mask-type:luminance" maskUnits="userSpaceOnUse" x="51" y="51" width="398" height="398">
<path d="M250 448.5C359.629 448.5 448.5 359.629 448.5 250C448.5 140.371 359.629 51.5 250 51.5C140.371 51.5 51.5 140.371 51.5 250C51.5 359.629 140.371 448.5 250 448.5Z" fill="white"/>
</mask>
<g mask="url(#mask68_201_756)">
<path d="M200.2 262.5C206 269 212 275.2 218.4 281.1C219.2 281.9 220.5 282.2 221.7 282.2C222.3 282.2 223.7 281.7 222.9 280.9C216.6 275 210.5 268.8 204.7 262.3C203.9 261.5 202.5 261.2 201.4 261.2C200.7 261.3 199.4 261.7 200.2 262.5Z" fill="white"/>
</g>
<mask id="mask69_201_756" style="mask-type:luminance" maskUnits="userSpaceOnUse" x="51" y="51" width="398" height="398">
<path d="M250 448.5C359.629 448.5 448.5 359.629 448.5 250C448.5 140.371 359.629 51.5 250 51.5C140.371 51.5 51.5 140.371 51.5 250C51.5 359.629 140.371 448.5 250 448.5Z" fill="white"/>
</mask>
<g mask="url(#mask69_201_756)">
<path d="M233.1 257C234.9 262.4 237.3 267.7 240.1 272.7C240.7 273.8 242.2 274.3 243.4 273.8C244.4 273.3 245.4 272 244.7 270.8C241.9 265.8 239.5 260.6 237.7 255.1C237.3 253.9 235.5 253.5 234.4 254C233.2 254.6 232.7 255.7 233.1 257Z" fill="white"/>
</g>
<mask id="mask70_201_756" style="mask-type:luminance" maskUnits="userSpaceOnUse" x="51" y="51" width="398" height="398">
<path d="M250 448.5C359.629 448.5 448.5 359.629 448.5 250C448.5 140.371 359.629 51.5 250 51.5C140.371 51.5 51.5 140.371 51.5 250C51.5 359.629 140.371 448.5 250 448.5Z" fill="white"/>
</mask>
<g mask="url(#mask70_201_756)">
<path d="M256.6 262.8C249.8 276.5 245.2 291.3 243.2 306.4C242.8 309.3 247.7 310.2 248.1 307.3C250.1 292.5 254.5 278.2 261.2 264.8C262.5 262.2 257.9 260.3 256.6 262.8Z" fill="white"/>
</g>
<mask id="mask71_201_756" style="mask-type:luminance" maskUnits="userSpaceOnUse" x="51" y="51" width="398" height="398">
<path d="M250 448.5C359.629 448.5 448.5 359.629 448.5 250C448.5 140.371 359.629 51.5 250 51.5C140.371 51.5 51.5 140.371 51.5 250C51.5 359.629 140.371 448.5 250 448.5Z" fill="white"/>
</mask>
<g mask="url(#mask71_201_756)">
<path d="M268 307.9C273.4 316.1 278.8 324.2 284.1 332.4C284.7 333.4 285.5 334.3 286.4 335.1C287 335.6 287.3 335.6 286.8 334.8C281.4 326.6 276 318.5 270.7 310.3C270.1 309.3 269.3 308.4 268.4 307.6C267.8 307.1 267.5 307.1 268 307.9Z" fill="white"/>
</g>
<mask id="mask72_201_756" style="mask-type:luminance" maskUnits="userSpaceOnUse" x="51" y="51" width="398" height="398">
<path d="M250 448.5C359.629 448.5 448.5 359.629 448.5 250C448.5 140.371 359.629 51.5 250 51.5C140.371 51.5 51.5 140.371 51.5 250C51.5 359.629 140.371 448.5 250 448.5Z" fill="white"/>
</mask>
<g mask="url(#mask72_201_756)">
<path d="M303.4 320.2C302.9 332.8 305.3 345.4 310.4 357C310.7 357.6 312.3 357.6 312.9 357.6C313.1 357.6 315.6 357.5 315.4 357.1C310.4 345.5 308 332.9 308.4 320.3C308.5 319.5 303.5 319.4 303.4 320.2Z" fill="white"/>
</g>
<mask id="mask73_201_756" style="mask-type:luminance" maskUnits="userSpaceOnUse" x="51" y="51" width="398" height="398">
<path d="M250 448.5C359.629 448.5 448.5 359.629 448.5 250C448.5 140.371 359.629 51.5 250 51.5C140.371 51.5 51.5 140.371 51.5 250C51.5 359.629 140.371 448.5 250 448.5Z" fill="white"/>
</mask>
<g mask="url(#mask73_201_756)">
<path d="M339.8 304.7C341.8 312.5 343.8 320.4 345.9 328.2C346.1 329.2 346.9 330.7 347.9 331C348.9 331.4 348.9 330.2 348.7 329.5C346.7 321.7 344.7 313.8 342.6 306C342.4 305 341.6 303.5 340.6 303.2C339.6 302.8 339.6 304 339.8 304.7Z" fill="white"/>
</g>
<mask id="mask74_201_756" style="mask-type:luminance" maskUnits="userSpaceOnUse" x="51" y="51" width="398" height="398">
<path d="M250 448.5C359.629 448.5 448.5 359.629 448.5 250C448.5 140.371 359.629 51.5 250 51.5C140.371 51.5 51.5 140.371 51.5 250C51.5 359.629 140.371 448.5 250 448.5Z" fill="white"/>
</mask>
<g mask="url(#mask74_201_756)">
<path d="M365.7 305.8C363.5 324.9 360.4 344 356.6 362.9C356 365.7 360.9 366.6 361.5 363.7C365.4 344.8 368.4 325.8 370.6 306.6C370.9 303.7 366 302.8 365.7 305.8Z" fill="white"/>
</g>
<mask id="mask75_201_756" style="mask-type:luminance" maskUnits="userSpaceOnUse" x="51" y="51" width="398" height="398">
<path d="M250 448.5C359.629 448.5 448.5 359.629 448.5 250C448.5 140.371 359.629 51.5 250 51.5C140.371 51.5 51.5 140.371 51.5 250C51.5 359.629 140.371 448.5 250 448.5Z" fill="white"/>
</mask>
<g mask="url(#mask75_201_756)">
<path d="M328.6 345.1C333.8 351.9 339.1 358.6 344.3 365.4C345 366.3 346.4 366 347.3 365.5C348 365.1 349.3 363.8 348.6 362.8C343.4 356 338.1 349.3 332.9 342.5C332.2 341.6 330.8 341.9 329.9 342.4C329.3 342.8 327.9 344.1 328.6 345.1Z" fill="white"/>
</g>
<mask id="mask76_201_756" style="mask-type:luminance" maskUnits="userSpaceOnUse" x="51" y="51" width="398" height="398">
<path d="M250 448.5C359.629 448.5 448.5 359.629 448.5 250C448.5 140.371 359.629 51.5 250 51.5C140.371 51.5 51.5 140.371 51.5 250C51.5 359.629 140.371 448.5 250 448.5Z" fill="white"/>
</mask>
<g mask="url(#mask76_201_756)">
<path d="M377.1 348.2C375.8 353.7 374.4 359.1 373.1 364.6C372.9 365.6 374.2 366.4 374.9 366.7C375.4 366.9 377.4 367.6 377.7 366.6C379 361.1 380.4 355.7 381.7 350.2C381.9 349.2 380.6 348.4 379.9 348.1C379.3 347.9 377.3 347.2 377.1 348.2Z" fill="white"/>
</g>
<mask id="mask77_201_756" style="mask-type:luminance" maskUnits="userSpaceOnUse" x="51" y="51" width="398" height="398">
<path d="M250 448.5C359.629 448.5 448.5 359.629 448.5 250C448.5 140.371 359.629 51.5 250 51.5C140.371 51.5 51.5 140.371 51.5 250C51.5 359.629 140.371 448.5 250 448.5Z" fill="white"/>
</mask>
<g mask="url(#mask77_201_756)">
<path d="M365.3 386.5C373.2 391.2 379.8 397.8 384.4 405.8C385 406.9 386.5 407.3 387.6 407.1C388.6 406.9 389.6 406 389 405C384.1 396.4 377 389.1 368.4 384.1C367.4 383.5 365.9 383.2 364.9 384C364 384.7 364.4 386 365.3 386.5Z" fill="white"/>
</g>
<mask id="mask78_201_756" style="mask-type:luminance" maskUnits="userSpaceOnUse" x="51" y="51" width="398" height="398">
<path d="M250 448.5C359.629 448.5 448.5 359.629 448.5 250C448.5 140.371 359.629 51.5 250 51.5C140.371 51.5 51.5 140.371 51.5 250C51.5 359.629 140.371 448.5 250 448.5Z" fill="white"/>
</mask>
<g mask="url(#mask78_201_756)">
<path d="M385.4 380.3C390.9 386.5 397 392.2 403.7 397.2C404.5 397.8 405.8 398.6 406.9 398.4C407.9 398.2 407.2 397.2 406.7 396.8C400.3 392 394.5 386.6 389.2 380.6C388.5 379.8 387.2 379.1 386 379C385.1 379 384.8 379.5 385.4 380.3Z" fill="white"/>
</g>
<mask id="mask79_201_756" style="mask-type:luminance" maskUnits="userSpaceOnUse" x="51" y="51" width="398" height="398">
<path d="M250 448.5C359.629 448.5 448.5 359.629 448.5 250C448.5 140.371 359.629 51.5 250 51.5C140.371 51.5 51.5 140.371 51.5 250C51.5 359.629 140.371 448.5 250 448.5Z" fill="white"/>
</mask>
<g mask="url(#mask79_201_756)">
<path d="M329.5 380.9C321.3 389.7 313.1 398.4 305 407.2C303.1 409.2 306.8 412.6 308.8 410.4C317 401.6 325.2 392.9 333.3 384.1C335.2 382.1 331.5 378.8 329.5 380.9Z" fill="white"/>
</g>
<mask id="mask80_201_756" style="mask-type:luminance" maskUnits="userSpaceOnUse" x="51" y="51" width="398" height="398">
<path d="M250 448.5C359.629 448.5 448.5 359.629 448.5 250C448.5 140.371 359.629 51.5 250 51.5C140.371 51.5 51.5 140.371 51.5 250C51.5 359.629 140.371 448.5 250 448.5Z" fill="white"/>
</mask>
<g mask="url(#mask80_201_756)">
<path d="M343 394.5C342.4 398.2 340.7 402.3 338.4 405.3C337.7 406.3 338.1 407.5 339 408.3C339.6 408.9 341.3 409.8 342 408.8C344.7 405.1 346.5 400.9 347.3 396.3C347.7 394.2 343.5 391.7 343 394.5Z" fill="white"/>
</g>
<mask id="mask81_201_756" style="mask-type:luminance" maskUnits="userSpaceOnUse" x="51" y="51" width="398" height="398">
<path d="M250 448.5C359.629 448.5 448.5 359.629 448.5 250C448.5 140.371 359.629 51.5 250 51.5C140.371 51.5 51.5 140.371 51.5 250C51.5 359.629 140.371 448.5 250 448.5Z" fill="white"/>
</mask>
<g mask="url(#mask81_201_756)">
<path d="M278.3 364.8C289.6 369 301.3 372 313.2 373.6C314.2 373.7 315.8 373.8 316.6 373.1C317.4 372.4 316.3 371.9 315.6 371.8C304 370.2 292.7 367.3 281.7 363.3C280.7 362.9 279.2 363 278.2 363.5C277.4 363.8 277.4 364.4 278.3 364.8Z" fill="white"/>
</g>
<mask id="mask82_201_756" style="mask-type:luminance" maskUnits="userSpaceOnUse" x="51" y="51" width="398" height="398">
<path d="M250 448.5C359.629 448.5 448.5 359.629 448.5 250C448.5 140.371 359.629 51.5 250 51.5C140.371 51.5 51.5 140.371 51.5 250C51.5 359.629 140.371 448.5 250 448.5Z" fill="white"/>
</mask>
<g mask="url(#mask82_201_756)">
<path d="M257.5 329.8C250.4 333.2 243.7 337.2 237.2 341.7C235.4 342.9 238.2 347.1 240 345.9C246.4 341.4 253.2 337.5 260.3 334C261.3 333.5 260.7 331.7 260.2 331.1C259.6 330.1 258.5 329.3 257.5 329.8Z" fill="white"/>
</g>
<mask id="mask83_201_756" style="mask-type:luminance" maskUnits="userSpaceOnUse" x="51" y="51" width="398" height="398">
<path d="M250 448.5C359.629 448.5 448.5 359.629 448.5 250C448.5 140.371 359.629 51.5 250 51.5C140.371 51.5 51.5 140.371 51.5 250C51.5 359.629 140.371 448.5 250 448.5Z" fill="white"/>
</mask>
<g mask="url(#mask83_201_756)">
<path d="M213.6 170.6C209.6 175.7 205.5 180.8 201.5 186C201.3 186.3 203.7 186.8 203.9 186.8C204.5 186.9 206 187.2 206.4 186.6C210.4 181.5 214.5 176.4 218.5 171.2C218.7 170.9 216.3 170.4 216.1 170.4C215.6 170.4 214.1 170 213.6 170.6Z" fill="white"/>
</g>
<mask id="mask84_201_756" style="mask-type:luminance" maskUnits="userSpaceOnUse" x="51" y="51" width="398" height="398">
<path d="M250 448.5C359.629 448.5 448.5 359.629 448.5 250C448.5 140.371 359.629 51.5 250 51.5C140.371 51.5 51.5 140.371 51.5 250C51.5 359.629 140.371 448.5 250 448.5Z" fill="white"/>
</mask>
<g mask="url(#mask84_201_756)">
<path d="M186.8 188.2C181.4 187.7 175.8 188.5 170.8 190.6C168.1 191.8 171 195.7 173.3 194.7C177.7 192.8 182.4 192 187 192.5C188.1 192.6 189.3 192 189.2 190.7C189.2 189.4 188 188.3 186.8 188.2Z" fill="white"/>
</g>
<mask id="mask85_201_756" style="mask-type:luminance" maskUnits="userSpaceOnUse" x="51" y="51" width="398" height="398">
<path d="M250 448.5C359.629 448.5 448.5 359.629 448.5 250C448.5 140.371 359.629 51.5 250 51.5C140.371 51.5 51.5 140.371 51.5 250C51.5 359.629 140.371 448.5 250 448.5Z" fill="white"/>
</mask>
<g mask="url(#mask85_201_756)">
<path d="M166.2 205C165.4 214.1 164 223.1 162.3 232C162.1 233.1 163 234.2 163.9 234.8C164.4 235.2 166.2 235.9 166.4 234.7C168.2 225.5 169.6 216.2 170.4 206.9C170.5 205.1 166.4 202.5 166.2 205Z" fill="white"/>
</g>
<mask id="mask86_201_756" style="mask-type:luminance" maskUnits="userSpaceOnUse" x="51" y="51" width="398" height="398">
<path d="M250 448.5C359.629 448.5 448.5 359.629 448.5 250C448.5 140.371 359.629 51.5 250 51.5C140.371 51.5 51.5 140.371 51.5 250C51.5 359.629 140.371 448.5 250 448.5Z" fill="white"/>
</mask>
<g mask="url(#mask86_201_756)">
<path d="M182.3 221.1C184.6 229.5 186.9 237.8 189.2 246.2C189.4 247 191.4 247.4 192 247.5C192.4 247.6 194.1 247.9 193.9 247.2C191.6 238.8 189.3 230.5 187 222.1C186.8 221.3 184.8 220.9 184.2 220.8C183.8 220.7 182 220.4 182.3 221.1Z" fill="white"/>
</g>
<mask id="mask87_201_756" style="mask-type:luminance" maskUnits="userSpaceOnUse" x="51" y="51" width="398" height="398">
<path d="M250 448.5C359.629 448.5 448.5 359.629 448.5 250C448.5 140.371 359.629 51.5 250 51.5C140.371 51.5 51.5 140.371 51.5 250C51.5 359.629 140.371 448.5 250 448.5Z" fill="white"/>
</mask>
<g mask="url(#mask87_201_756)">
<path d="M168.6 259.9C164.9 262.5 161.3 265.1 157.6 267.7C157.2 268 159 269.6 159.2 269.7C159.7 270.1 160.1 270.4 160.6 270.7C160.8 270.8 161.2 271 161.4 270.9C165.1 268.3 168.7 265.7 172.4 263.1C172.8 262.8 171 261.2 170.8 261.1C170.3 260.7 169.9 260.4 169.4 260.1C169.2 260 168.8 259.8 168.6 259.9Z" fill="white"/>
</g>
<mask id="mask88_201_756" style="mask-type:luminance" maskUnits="userSpaceOnUse" x="51" y="51" width="398" height="398">
<path d="M250 448.5C359.629 448.5 448.5 359.629 448.5 250C448.5 140.371 359.629 51.5 250 51.5C140.371 51.5 51.5 140.371 51.5 250C51.5 359.629 140.371 448.5 250 448.5Z" fill="white"/>
</mask>
<g mask="url(#mask88_201_756)">
<path d="M146.9 240.7C142.7 240.7 138.5 241.3 134.5 242.5C133.5 242.8 132.3 243.8 132.9 245C133.4 246.1 134.9 246.6 136 246.2C136.9 245.9 137.8 245.7 138.8 245.4C139.3 245.3 139.8 245.2 140.3 245.1C140.5 245.1 140.7 245 140.9 245C141 245 141.2 245 141.3 244.9C141.6 244.9 141.6 244.9 141.4 244.9C141.2 244.9 141.2 244.9 141.5 244.9C141.6 244.9 141.8 244.9 141.9 244.8C142.1 244.8 142.3 244.7 142.6 244.7C143.1 244.6 143.5 244.6 144 244.6C145 244.5 146 244.5 147 244.5C148.1 244.5 149.5 243.7 149.4 242.4C149.4 241.3 148.1 240.7 146.9 240.7Z" fill="white"/>
</g>
<mask id="mask89_201_756" style="mask-type:luminance" maskUnits="userSpaceOnUse" x="51" y="51" width="398" height="398">
<path d="M250 448.5C359.629 448.5 448.5 359.629 448.5 250C448.5 140.371 359.629 51.5 250 51.5C140.371 51.5 51.5 140.371 51.5 250C51.5 359.629 140.371 448.5 250 448.5Z" fill="white"/>
</mask>
<g mask="url(#mask89_201_756)">
<path d="M144.8 213C145.4 213 145.9 213.1 146.5 213.2C146.1 213.1 147.1 213.3 146.5 213.2C146.7 213.2 146.8 213.3 147 213.3C147.3 213.4 147.6 213.5 147.8 213.5C148.1 213.6 148.3 213.7 148.6 213.8C148.7 213.8 149.2 214 148.8 213.9C148.5 213.8 148.9 213.9 148.9 214C149.5 214.2 150 214.5 150.5 214.8C150.6 214.9 150.7 214.9 150.8 215C150.9 215 151.3 215.3 151 215.1C150.7 214.9 151.1 215.2 151.1 215.2C151.2 215.3 151.4 215.4 151.5 215.5C152 215.8 152.4 216.2 152.8 216.6C152.9 216.7 153 216.8 153.1 216.9C153.4 217.1 152.8 216.5 153.2 217C153.4 217.2 153.6 217.4 153.8 217.6C154.2 218.1 154.6 218.5 154.9 219C155.5 219.9 157.2 220.4 158.3 220.1C159.4 219.7 159.7 218.8 159 217.8C155.7 213 150.1 209.9 144.3 209.4C143.4 209.3 141.9 209.6 142 210.9C142.3 212.1 143.8 212.9 144.8 213Z" fill="white"/>
</g>
<mask id="mask90_201_756" style="mask-type:luminance" maskUnits="userSpaceOnUse" x="51" y="51" width="398" height="398">
<path d="M250 448.5C359.629 448.5 448.5 359.629 448.5 250C448.5 140.371 359.629 51.5 250 51.5C140.371 51.5 51.5 140.371 51.5 250C51.5 359.629 140.371 448.5 250 448.5Z" fill="white"/>
</mask>
<g mask="url(#mask90_201_756)">
<path d="M121.8 151.1C134.9 157.6 147.4 165.6 158.7 174.8C159 175 160.2 176.2 160.5 175.5C160.7 174.9 159 173.3 158.7 173C146.5 163.1 133.3 154.6 119.2 147.6C118.2 147.1 119 148.6 119.2 148.9C119.9 149.8 120.8 150.6 121.8 151.1Z" fill="white"/>
</g>
<mask id="mask91_201_756" style="mask-type:luminance" maskUnits="userSpaceOnUse" x="51" y="51" width="398" height="398">
<path d="M250 448.5C359.629 448.5 448.5 359.629 448.5 250C448.5 140.371 359.629 51.5 250 51.5C140.371 51.5 51.5 140.371 51.5 250C51.5 359.629 140.371 448.5 250 448.5Z" fill="white"/>
</mask>
<g mask="url(#mask91_201_756)">
<path d="M156.3 150C156.6 152.1 156.8 154.2 157.1 156.3C157.2 156.7 157.7 157.2 158 157.4C158.5 157.7 159.2 158 159.8 158.1C160.5 158.2 162.1 158.2 161.9 157C161.6 154.9 161.4 152.8 161.1 150.7C161 150.3 160.5 149.8 160.2 149.6C159.7 149.3 159 149 158.4 148.9C157.7 148.9 156.2 148.9 156.3 150Z" fill="white"/>
</g>
<mask id="mask92_201_756" style="mask-type:luminance" maskUnits="userSpaceOnUse" x="51" y="51" width="398" height="398">
<path d="M250 448.5C359.629 448.5 448.5 359.629 448.5 250C448.5 140.371 359.629 51.5 250 51.5C140.371 51.5 51.5 140.371 51.5 250C51.5 359.629 140.371 448.5 250 448.5Z" fill="white"/>
</mask>
<g mask="url(#mask92_201_756)">
<path d="M140 180.2C134.4 185.3 129.2 190.8 124.2 196.5C123.2 197.6 127.8 199.2 128.8 198.1C133.8 192.4 139.1 187 144.6 181.8C145.3 181.1 143.6 180.3 143.2 180.2C142.4 179.9 140.8 179.5 140 180.2Z" fill="white"/>
</g>
<mask id="mask93_201_756" style="mask-type:luminance" maskUnits="userSpaceOnUse" x="51" y="51" width="398" height="398">
<path d="M250 448.5C359.629 448.5 448.5 359.629 448.5 250C448.5 140.371 359.629 51.5 250 51.5C140.371 51.5 51.5 140.371 51.5 250C51.5 359.629 140.371 448.5 250 448.5Z" fill="white"/>
</mask>
<g mask="url(#mask93_201_756)">
<path d="M157.2 188.7C155.1 190.8 153 192.9 150.9 195C150.6 195.3 150.7 195.9 150.9 196.2C151.2 196.6 151.8 197 152.2 197.2C152.8 197.4 153.5 197.5 154.1 197.4C154.3 197.4 154.5 197.3 154.6 197.3C154.9 197.2 155.2 197 155.4 196.8C157.5 194.7 159.6 192.6 161.7 190.5C162 190.2 161.9 189.6 161.7 189.3C161.4 188.9 160.8 188.5 160.4 188.3C159.8 188.1 159.1 188 158.5 188.1C158.3 188.1 158.1 188.2 158 188.2C157.7 188.2 157.4 188.4 157.2 188.7Z" fill="white"/>
</g>
<mask id="mask94_201_756" style="mask-type:luminance" maskUnits="userSpaceOnUse" x="51" y="51" width="398" height="398">
<path d="M250 448.5C359.629 448.5 448.5 359.629 448.5 250C448.5 140.371 359.629 51.5 250 51.5C140.371 51.5 51.5 140.371 51.5 250C51.5 359.629 140.371 448.5 250 448.5Z" fill="white"/>
</mask>
<g mask="url(#mask94_201_756)">
<path d="M127.8 171.9C116.5 168.6 105.4 164.5 94.6001 159.7C93.5001 159.2 92.1001 159.5 91.2001 160.4C90.5001 161.1 90.2001 162.6 91.3001 163.1C102.4 168.1 113.8 172.3 125.5 175.7C127.9 176.3 130.8 172.7 127.8 171.9Z" fill="white"/>
</g>
<mask id="mask95_201_756" style="mask-type:luminance" maskUnits="userSpaceOnUse" x="51" y="51" width="398" height="398">
<path d="M250 448.5C359.629 448.5 448.5 359.629 448.5 250C448.5 140.371 359.629 51.5 250 51.5C140.371 51.5 51.5 140.371 51.5 250C51.5 359.629 140.371 448.5 250 448.5Z" fill="white"/>
</mask>
<g mask="url(#mask95_201_756)">
<path d="M124.5 124.5C116.3 117.6 107.6 111.2 98.5999 105.3C97.6999 104.7 96.0999 104.6 95.0999 105C94.0999 105.4 94.0999 106.1 94.9999 106.6C103.8 112.3 112.2 118.5 120.2 125.2C121.1 125.9 122.5 126.1 123.6 125.9C124.2 125.9 125.4 125.2 124.5 124.5Z" fill="white"/>
</g>
<mask id="mask96_201_756" style="mask-type:luminance" maskUnits="userSpaceOnUse" x="51" y="51" width="398" height="398">
<path d="M250 448.5C359.629 448.5 448.5 359.629 448.5 250C448.5 140.371 359.629 51.5 250 51.5C140.371 51.5 51.5 140.371 51.5 250C51.5 359.629 140.371 448.5 250 448.5Z" fill="white"/>
</mask>
<g mask="url(#mask96_201_756)">
<path d="M92.8999 115.4C97.0999 120.3 101.3 125.3 105.5 130.2C106.5 131.4 110.7 129 110.1 128.3C105.9 123.4 101.7 118.4 97.4999 113.5C96.4999 112.4 92.2999 114.8 92.8999 115.4Z" fill="white"/>
</g>
<mask id="mask97_201_756" style="mask-type:luminance" maskUnits="userSpaceOnUse" x="51" y="51" width="398" height="398">
<path d="M250 448.5C359.629 448.5 448.5 359.629 448.5 250C448.5 140.371 359.629 51.5 250 51.5C140.371 51.5 51.5 140.371 51.5 250C51.5 359.629 140.371 448.5 250 448.5Z" fill="white"/>
</mask>
<g mask="url(#mask97_201_756)">
<path d="M104.7 144.8C94.4 142.6 84 141.6 73.5 142C72.3 142 71 142.7 71 144.1C71 145.3 72.2 146.6 73.4 146.5C83.4 146.1 93.5 146.9 103.3 149.1C104.5 149.4 105.9 149.1 106.4 147.8C106.8 146.6 105.9 145.1 104.7 144.8Z" fill="white"/>
</g>
<mask id="mask98_201_756" style="mask-type:luminance" maskUnits="userSpaceOnUse" x="51" y="51" width="398" height="398">
<path d="M250 448.5C359.629 448.5 448.5 359.629 448.5 250C448.5 140.371 359.629 51.5 250 51.5C140.371 51.5 51.5 140.371 51.5 250C51.5 359.629 140.371 448.5 250 448.5Z" fill="white"/>
</mask>
<g mask="url(#mask98_201_756)">
<path d="M86.6999 180.1C87.4999 186.6 88.2999 193.1 89.0999 199.7C89.3999 202.4 94.0999 202.9 93.6999 199.7C92.8999 193.2 92.0999 186.7 91.2999 180.1C90.8999 177.5 86.2999 177 86.6999 180.1Z" fill="white"/>
</g>
<mask id="mask99_201_756" style="mask-type:luminance" maskUnits="userSpaceOnUse" x="51" y="51" width="398" height="398">
<path d="M250 448.5C359.629 448.5 448.5 359.629 448.5 250C448.5 140.371 359.629 51.5 250 51.5C140.371 51.5 51.5 140.371 51.5 250C51.5 359.629 140.371 448.5 250 448.5Z" fill="white"/>
</mask>
<g mask="url(#mask99_201_756)">
<path d="M108.2 192.1C103.6 197.7 99.7 203.7 96.3 210C95.8 210.9 96.9 212 97.6 212.5C98.1 212.9 99.9 213.8 100.4 212.8C103.7 206.4 107.7 200.4 112.3 194.9C113.4 193.5 109.4 190.6 108.2 192.1Z" fill="white"/>
</g>
<mask id="mask100_201_756" style="mask-type:luminance" maskUnits="userSpaceOnUse" x="51" y="51" width="398" height="398">
<path d="M250 448.5C359.629 448.5 448.5 359.629 448.5 250C448.5 140.371 359.629 51.5 250 51.5C140.371 51.5 51.5 140.371 51.5 250C51.5 359.629 140.371 448.5 250 448.5Z" fill="white"/>
</mask>
<g mask="url(#mask100_201_756)">
<path d="M91.4001 238.9C85.9001 241.9 80.9001 245.7 76.5001 250.1C76.3001 250.3 78.7001 251 78.9001 251C79.5001 251.1 80.9001 251.6 81.4001 251C85.8001 246.7 90.7001 243 96.1001 240C96.6001 239.7 94.6001 239.1 94.5001 239.1C93.9001 238.9 93.2001 238.8 92.6001 238.8C92.2001 238.8 91.7001 238.7 91.4001 238.9Z" fill="white"/>
</g>
<mask id="mask101_201_756" style="mask-type:luminance" maskUnits="userSpaceOnUse" x="51" y="51" width="398" height="398">
<path d="M250 448.5C359.629 448.5 448.5 359.629 448.5 250C448.5 140.371 359.629 51.5 250 51.5C140.371 51.5 51.5 140.371 51.5 250C51.5 359.629 140.371 448.5 250 448.5Z" fill="white"/>
</mask>
<g mask="url(#mask101_201_756)">
<path d="M64.8001 187.5C69.6001 196.9 75.5001 205.8 82.4001 213.9C83.0001 214.6 84.1001 215.7 85.1001 215C86.0001 214.4 85.3001 212.7 84.8001 212.1C78.2001 204.4 72.5001 195.9 67.9001 186.9C67.5001 186.1 66.3001 184.8 65.2001 185.1C64.1001 185.3 64.5001 186.8 64.8001 187.5Z" fill="white"/>
</g>
<mask id="mask102_201_756" style="mask-type:luminance" maskUnits="userSpaceOnUse" x="51" y="51" width="398" height="398">
<path d="M250 448.5C359.629 448.5 448.5 359.629 448.5 250C448.5 140.371 359.629 51.5 250 51.5C140.371 51.5 51.5 140.371 51.5 250C51.5 359.629 140.371 448.5 250 448.5Z" fill="white"/>
</mask>
<g mask="url(#mask102_201_756)">
<path d="M71.4001 144.2C74.8001 151.3 78.7001 158.1 83.0001 164.6C83.7001 165.7 85.0001 166.4 86.3001 165.9C87.4001 165.4 88.0001 163.9 87.3001 162.9C82.9001 156.4 79.1001 149.6 75.7001 142.5C74.3001 139.8 70.0001 141.3 71.4001 144.2Z" fill="white"/>
</g>
<mask id="mask103_201_756" style="mask-type:luminance" maskUnits="userSpaceOnUse" x="51" y="51" width="398" height="398">
<path d="M250 448.5C359.629 448.5 448.5 359.629 448.5 250C448.5 140.371 359.629 51.5 250 51.5C140.371 51.5 51.5 140.371 51.5 250C51.5 359.629 140.371 448.5 250 448.5Z" fill="white"/>
</mask>
<g mask="url(#mask103_201_756)">
<path d="M62.4999 222C59.9999 226.2 57.3999 230.4 54.8999 234.6C54.2999 235.6 55.5999 236.8 56.3999 237.1C57.2999 237.5 58.6999 237.8 59.2999 236.8C61.7999 232.6 64.3999 228.4 66.8999 224.2C67.4999 223.2 66.1999 222 65.3999 221.7C64.4999 221.3 63.0999 220.9 62.4999 222Z" fill="white"/>
</g>
<mask id="mask104_201_756" style="mask-type:luminance" maskUnits="userSpaceOnUse" x="51" y="51" width="398" height="398">
<path d="M250 448.5C359.629 448.5 448.5 359.629 448.5 250C448.5 140.371 359.629 51.5 250 51.5C140.371 51.5 51.5 140.371 51.5 250C51.5 359.629 140.371 448.5 250 448.5Z" fill="white"/>
</mask>
<g mask="url(#mask104_201_756)">
<path d="M93 244.3C99.5 249 106 253.8 112.5 258.5C113.4 259.2 114.8 259.7 115.9 259.1C116.9 258.5 116.7 257.2 115.8 256.6C109.3 251.9 102.8 247.1 96.3 242.4C95.4 241.7 94 241.2 92.9 241.8C92 242.3 92.2 243.6 93 244.3Z" fill="white"/>
</g>
<mask id="mask105_201_756" style="mask-type:luminance" maskUnits="userSpaceOnUse" x="51" y="51" width="398" height="398">
<path d="M250 448.5C359.629 448.5 448.5 359.629 448.5 250C448.5 140.371 359.629 51.5 250 51.5C140.371 51.5 51.5 140.371 51.5 250C51.5 359.629 140.371 448.5 250 448.5Z" fill="white"/>
</mask>
<g mask="url(#mask105_201_756)">
<path d="M117.2 215.8C117.1 219.4 117.7 223.1 118.9 226.5C119.3 227.7 121 227.8 122 227.4C123.1 226.9 124 225.9 123.6 224.6C123.3 223.8 123.1 223 122.9 222.2C122.8 222 122.8 221.7 122.7 221.5C122.8 221.8 122.7 221.4 122.7 221.3C122.6 220.9 122.5 220.5 122.5 220.1C122.2 218.4 122.1 216.7 122.2 215C122.2 213.8 120.7 213.2 119.7 213.4C118.3 213.6 117.2 214.5 117.2 215.8Z" fill="white"/>
</g>
<mask id="mask106_201_756" style="mask-type:luminance" maskUnits="userSpaceOnUse" x="51" y="51" width="398" height="398">
<path d="M250 448.5C359.629 448.5 448.5 359.629 448.5 250C448.5 140.371 359.629 51.5 250 51.5C140.371 51.5 51.5 140.371 51.5 250C51.5 359.629 140.371 448.5 250 448.5Z" fill="white"/>
</mask>
<g mask="url(#mask106_201_756)">
<path d="M118.6 278.6C116.7 288.3 115.5 298.2 115.1 308.1C115 310.9 119.2 312 119.4 308.8C119.8 299.3 121 289.8 122.8 280.5C123 279.3 122.4 277.9 121.2 277.3C120.1 276.9 118.8 277.4 118.6 278.6Z" fill="white"/>
</g>
<mask id="mask107_201_756" style="mask-type:luminance" maskUnits="userSpaceOnUse" x="51" y="51" width="398" height="398">
<path d="M250 448.5C359.629 448.5 448.5 359.629 448.5 250C448.5 140.371 359.629 51.5 250 51.5C140.371 51.5 51.5 140.371 51.5 250C51.5 359.629 140.371 448.5 250 448.5Z" fill="white"/>
</mask>
<g mask="url(#mask107_201_756)">
<path d="M140.6 277.4C147.3 288.3 155.8 298.1 165.7 306.3C166.5 306.9 167.8 306.9 168.8 306.8C169 306.8 171.2 306.4 170.5 305.8C160.6 297.6 152.1 287.8 145.4 276.9C144.8 275.9 140.1 276.6 140.6 277.4Z" fill="white"/>
</g>
<mask id="mask108_201_756" style="mask-type:luminance" maskUnits="userSpaceOnUse" x="51" y="51" width="398" height="398">
<path d="M250 448.5C359.629 448.5 448.5 359.629 448.5 250C448.5 140.371 359.629 51.5 250 51.5C140.371 51.5 51.5 140.371 51.5 250C51.5 359.629 140.371 448.5 250 448.5Z" fill="white"/>
</mask>
<g mask="url(#mask108_201_756)">
<path d="M188.7 284.5C191 282.7 193.4 280.8 195.7 279C196 278.7 195.9 278.1 195.9 277.8C195.7 277.2 195.3 276.7 194.9 276.3C194.3 275.7 193.1 274.7 192.2 275.4C189.9 277.2 187.5 279.1 185.2 280.9C184.9 281.2 185 281.8 185 282.1C185.2 282.7 185.6 283.2 186 283.6C186.6 284.2 187.8 285.2 188.7 284.5Z" fill="white"/>
</g>
<mask id="mask109_201_756" style="mask-type:luminance" maskUnits="userSpaceOnUse" x="51" y="51" width="398" height="398">
<path d="M250 448.5C359.629 448.5 448.5 359.629 448.5 250C448.5 140.371 359.629 51.5 250 51.5C140.371 51.5 51.5 140.371 51.5 250C51.5 359.629 140.371 448.5 250 448.5Z" fill="white"/>
</mask>
<g mask="url(#mask109_201_756)">
<path d="M204 289.4C204 296.4 204 303.5 204 310.5C204 311.5 208.9 311 208.9 309.5C208.9 302.5 208.9 295.4 208.9 288.4C208.9 287.4 204 287.9 204 289.4Z" fill="white"/>
</g>
<mask id="mask110_201_756" style="mask-type:luminance" maskUnits="userSpaceOnUse" x="51" y="51" width="398" height="398">
<path d="M250 448.5C359.629 448.5 448.5 359.629 448.5 250C448.5 140.371 359.629 51.5 250 51.5C140.371 51.5 51.5 140.371 51.5 250C51.5 359.629 140.371 448.5 250 448.5Z" fill="white"/>
</mask>
<g mask="url(#mask110_201_756)">
<path d="M178.3 292.1C180 294.7 181.6 297.2 183.3 299.8C183.5 300.1 183.9 300.4 184.2 300.5C184.8 300.8 185.4 301.1 186 301.3C186.5 301.5 187 301.6 187.5 301.6C187.6 301.6 188.1 301.6 187.9 301.3C186.2 298.7 184.6 296.2 182.9 293.6C182.7 293.3 182.3 293 182 292.9C181.4 292.6 180.8 292.3 180.2 292.1C179.7 291.9 179.2 291.8 178.7 291.8C178.6 291.8 178.2 291.8 178.3 292.1Z" fill="white"/>
</g>
<mask id="mask111_201_756" style="mask-type:luminance" maskUnits="userSpaceOnUse" x="51" y="51" width="398" height="398">
<path d="M250 448.5C359.629 448.5 448.5 359.629 448.5 250C448.5 140.371 359.629 51.5 250 51.5C140.371 51.5 51.5 140.371 51.5 250C51.5 359.629 140.371 448.5 250 448.5Z" fill="white"/>
</mask>
<g mask="url(#mask111_201_756)">
<path d="M171.2 335.2C164.1 345.1 157 354.9 149.9 364.8C149.2 365.8 150.7 366.8 151.4 367C152.5 367.3 153.9 367.2 154.6 366.2C161.7 356.3 168.8 346.5 175.9 336.6C176.6 335.6 175.1 334.6 174.4 334.4C173.3 334 171.9 334.2 171.2 335.2Z" fill="white"/>
</g>
<mask id="mask112_201_756" style="mask-type:luminance" maskUnits="userSpaceOnUse" x="51" y="51" width="398" height="398">
<path d="M250 448.5C359.629 448.5 448.5 359.629 448.5 250C448.5 140.371 359.629 51.5 250 51.5C140.371 51.5 51.5 140.371 51.5 250C51.5 359.629 140.371 448.5 250 448.5Z" fill="white"/>
</mask>
<g mask="url(#mask112_201_756)">
<path d="M194.7 346C202.3 353.3 209.9 360.6 217.5 367.9C218.1 368.4 219.4 369.7 220.3 369.3C221.2 368.9 220.1 367.6 219.8 367.2C212.2 359.9 204.6 352.6 197 345.3C196.4 344.8 195.1 343.5 194.2 343.9C193.3 344.3 194.4 345.6 194.7 346Z" fill="white"/>
</g>
<mask id="mask113_201_756" style="mask-type:luminance" maskUnits="userSpaceOnUse" x="51" y="51" width="398" height="398">
<path d="M250 448.5C359.629 448.5 448.5 359.629 448.5 250C448.5 140.371 359.629 51.5 250 51.5C140.371 51.5 51.5 140.371 51.5 250C51.5 359.629 140.371 448.5 250 448.5Z" fill="white"/>
</mask>
<g mask="url(#mask113_201_756)">
<path d="M217 328.7C222.5 326.4 228 324.2 233.5 321.9C234.4 321.6 232.8 320.3 232.6 320.1C232 319.6 230.5 318.7 229.7 319C224.2 321.3 218.7 323.5 213.2 325.8C212.3 326.1 213.9 327.4 214.1 327.6C214.7 328.1 216.1 329.1 217 328.7Z" fill="white"/>
</g>
<mask id="mask114_201_756" style="mask-type:luminance" maskUnits="userSpaceOnUse" x="51" y="51" width="398" height="398">
<path d="M250 448.5C359.629 448.5 448.5 359.629 448.5 250C448.5 140.371 359.629 51.5 250 51.5C140.371 51.5 51.5 140.371 51.5 250C51.5 359.629 140.371 448.5 250 448.5Z" fill="white"/>
</mask>
<g mask="url(#mask114_201_756)">
<path d="M201.1 319.4C188.7 321.9 176.1 322.9 163.5 322.4C162.4 322.4 163.1 323.7 163.5 324.1C164.3 324.9 165.4 325.6 166.6 325.7C179.2 326.2 191.8 325.2 204.2 322.7C206.1 322.3 202.4 319.1 201.1 319.4Z" fill="white"/>
</g>
<mask id="mask115_201_756" style="mask-type:luminance" maskUnits="userSpaceOnUse" x="51" y="51" width="398" height="398">
<path d="M250 448.5C359.629 448.5 448.5 359.629 448.5 250C448.5 140.371 359.629 51.5 250 51.5C140.371 51.5 51.5 140.371 51.5 250C51.5 359.629 140.371 448.5 250 448.5Z" fill="white"/>
</mask>
<g mask="url(#mask115_201_756)">
<path d="M150.9 309.9C145.8 315.3 141.2 321.2 137.2 327.5C136.5 328.6 136.9 330 138 330.7C138.9 331.4 140.6 331.5 141.3 330.4C145.3 324.1 149.9 318.2 155 312.8C155.9 311.9 155.1 310.2 154.2 309.6C153.1 308.8 151.8 308.9 150.9 309.9Z" fill="white"/>
</g>
<mask id="mask116_201_756" style="mask-type:luminance" maskUnits="userSpaceOnUse" x="51" y="51" width="398" height="398">
<path d="M250 448.5C359.629 448.5 448.5 359.629 448.5 250C448.5 140.371 359.629 51.5 250 51.5C140.371 51.5 51.5 140.371 51.5 250C51.5 359.629 140.371 448.5 250 448.5Z" fill="white"/>
</mask>
<g mask="url(#mask116_201_756)">
<path d="M130.3 341.7C129.7 348.2 129.2 354.7 128.6 361.3C128.5 362.8 132.2 365.9 132.4 363.7C133 357.2 133.5 350.7 134.1 344.1C134.2 342.7 130.5 339.5 130.3 341.7Z" fill="white"/>
</g>
<mask id="mask117_201_756" style="mask-type:luminance" maskUnits="userSpaceOnUse" x="51" y="51" width="398" height="398">
<path d="M250 448.5C359.629 448.5 448.5 359.629 448.5 250C448.5 140.371 359.629 51.5 250 51.5C140.371 51.5 51.5 140.371 51.5 250C51.5 359.629 140.371 448.5 250 448.5Z" fill="white"/>
</mask>
<g mask="url(#mask117_201_756)">
<path d="M163.3 372.7C168 380.8 172.7 388.8 177.5 396.9C178.6 398.8 183.5 397.7 182.2 395.5C177.5 387.4 172.8 379.4 168 371.3C166.8 369.3 162 370.5 163.3 372.7Z" fill="white"/>
</g>
<mask id="mask118_201_756" style="mask-type:luminance" maskUnits="userSpaceOnUse" x="51" y="51" width="398" height="398">
<path d="M250 448.5C359.629 448.5 448.5 359.629 448.5 250C448.5 140.371 359.629 51.5 250 51.5C140.371 51.5 51.5 140.371 51.5 250C51.5 359.629 140.371 448.5 250 448.5Z" fill="white"/>
</mask>
<g mask="url(#mask118_201_756)">
<path d="M183.6 368.9C187.5 375.4 191.4 382 195.3 388.5C195.9 389.5 197.5 390.1 198.5 389.5C199.7 388.8 199.4 387.5 198.8 386.5C194.9 380 191 373.4 187.1 366.9C186.5 365.9 184.9 365.3 183.9 365.9C182.8 366.6 183.1 367.9 183.6 368.9Z" fill="white"/>
</g>
<mask id="mask119_201_756" style="mask-type:luminance" maskUnits="userSpaceOnUse" x="51" y="51" width="398" height="398">
<path d="M250 448.5C359.629 448.5 448.5 359.629 448.5 250C448.5 140.371 359.629 51.5 250 51.5C140.371 51.5 51.5 140.371 51.5 250C51.5 359.629 140.371 448.5 250 448.5Z" fill="white"/>
</mask>
<g mask="url(#mask119_201_756)">
<path d="M216.1 394.2C221.2 388.3 226 382.2 230.6 375.9C231 375.3 229.2 375.1 228.9 375.1C228.3 375 227.6 375 227 375.1C226.7 375.1 226 375.2 225.8 375.4C221.2 381.7 216.4 387.8 211.3 393.7C210.8 394.3 212.8 394.5 213 394.5C213.6 394.6 214.3 394.6 214.9 394.5C215.3 394.5 215.9 394.5 216.1 394.2Z" fill="white"/>
</g>
<mask id="mask120_201_756" style="mask-type:luminance" maskUnits="userSpaceOnUse" x="51" y="51" width="398" height="398">
<path d="M250 448.5C359.629 448.5 448.5 359.629 448.5 250C448.5 140.371 359.629 51.5 250 51.5C140.371 51.5 51.5 140.371 51.5 250C51.5 359.629 140.371 448.5 250 448.5Z" fill="white"/>
</mask>
<g mask="url(#mask120_201_756)">
<path d="M239.6 360.6C242.8 365.7 245.2 371.2 246.6 377.1C246.7 377.5 251.2 375.7 250.9 374.5C249.5 368.7 247.1 363.1 243.9 358C243.4 357.2 239.1 359.9 239.6 360.6Z" fill="white"/>
</g>
<mask id="mask121_201_756" style="mask-type:luminance" maskUnits="userSpaceOnUse" x="51" y="51" width="398" height="398">
<path d="M250 448.5C359.629 448.5 448.5 359.629 448.5 250C448.5 140.371 359.629 51.5 250 51.5C140.371 51.5 51.5 140.371 51.5 250C51.5 359.629 140.371 448.5 250 448.5Z" fill="white"/>
</mask>
<g mask="url(#mask121_201_756)">
<path d="M266.9 366.2C265.8 373.8 264.6 381.3 263.5 388.9C263.4 389.8 264.4 391 265 391.6C265.2 391.8 266.6 393.2 266.7 392.5C267.8 384.9 269 377.4 270.1 369.8C270.2 368.9 269.2 367.7 268.6 367.1C268.5 366.9 267 365.4 266.9 366.2Z" fill="white"/>
</g>
<mask id="mask122_201_756" style="mask-type:luminance" maskUnits="userSpaceOnUse" x="51" y="51" width="398" height="398">
<path d="M250 448.5C359.629 448.5 448.5 359.629 448.5 250C448.5 140.371 359.629 51.5 250 51.5C140.371 51.5 51.5 140.371 51.5 250C51.5 359.629 140.371 448.5 250 448.5Z" fill="white"/>
</mask>
<g mask="url(#mask122_201_756)">
<path d="M283.4 396.6C289.1 395.1 294.6 392.9 299.7 390.1C299.9 390 298.3 388.3 298.1 388.1C297.9 387.9 296.5 386.3 296.2 386.5C291 389.3 285.6 391.5 279.9 393C279.8 393 281.3 394.8 281.5 395C281.9 395.4 282.3 395.8 282.8 396.2C282.9 396.3 283.2 396.6 283.4 396.6Z" fill="white"/>
</g>
<mask id="mask123_201_756" style="mask-type:luminance" maskUnits="userSpaceOnUse" x="51" y="51" width="398" height="398">
<path d="M250 448.5C359.629 448.5 448.5 359.629 448.5 250C448.5 140.371 359.629 51.5 250 51.5C140.371 51.5 51.5 140.371 51.5 250C51.5 359.629 140.371 448.5 250 448.5Z" fill="white"/>
</mask>
<g mask="url(#mask123_201_756)">
<path d="M295.4 351.6C295.3 351.4 295.1 350.8 295.3 351.5C295.3 351.3 295.2 351.2 295.1 351C295 350.6 294.8 350.3 294.7 349.9C294.7 349.8 294.5 349.6 294.6 349.4C294.7 349.7 294.7 349.8 294.6 349.5C294.6 349.4 294.5 349.3 294.5 349.2C294.4 348.9 294.4 348.5 294.3 348.1C294.3 347.9 294.2 347.7 294.2 347.5C294.2 347.4 294.1 347.1 294.2 347C294.2 347.3 294.2 347.3 294.2 347.1C294.2 347 294.2 346.9 294.2 346.8C294.2 346.6 294.2 346.5 294.2 346.3C294.2 345.9 294.2 345.5 294.3 345.1C294.3 344.9 294.3 344.8 294.4 344.6C294.4 344.5 294.5 343.8 294.4 344.3C294.6 343.1 294.2 341.8 293.2 341C292.8 340.7 292.3 340.4 291.8 340.5C291.4 340.6 290.9 340.9 290.9 341.3C290.2 345.3 290.8 349.3 292.7 353C293 353.5 293.5 354 294 354.3C294.4 354.5 295 354.6 295.3 354.4C296.3 353.9 295.8 352.4 295.4 351.6Z" fill="white"/>
</g>
<mask id="mask124_201_756" style="mask-type:luminance" maskUnits="userSpaceOnUse" x="51" y="51" width="398" height="398">
<path d="M250 448.5C359.629 448.5 448.5 359.629 448.5 250C448.5 140.371 359.629 51.5 250 51.5C140.371 51.5 51.5 140.371 51.5 250C51.5 359.629 140.371 448.5 250 448.5Z" fill="white"/>
</mask>
<g mask="url(#mask124_201_756)">
<path d="M131.3 259.7C122.5 264.2 113.4 268.3 104.1 271.9C103.2 272.3 102.1 273.4 102.5 274.5C103 275.6 104.6 275.3 105.5 275C114.8 271.4 123.8 267.3 132.7 262.8C133.6 262.4 134.8 261.4 134.3 260.2C133.8 259.1 132.1 259.2 131.3 259.7Z" fill="white"/>
</g>
<mask id="mask125_201_756" style="mask-type:luminance" maskUnits="userSpaceOnUse" x="51" y="51" width="398" height="398">
<path d="M250 448.5C359.629 448.5 448.5 359.629 448.5 250C448.5 140.371 359.629 51.5 250 51.5C140.371 51.5 51.5 140.371 51.5 250C51.5 359.629 140.371 448.5 250 448.5Z" fill="white"/>
</mask>
<g mask="url(#mask125_201_756)">
<path d="M92.8001 266C89.1001 271.9 85.7001 278 82.7001 284.2C82.5001 284.7 85.0001 284.8 85.2001 284.8C85.8001 284.8 87.4001 284.8 87.7001 284.2C90.7001 278 94.0001 272.1 97.7001 266.3C98.1001 265.7 96.2001 265.6 95.9001 265.6C95.3001 265.6 94.6001 265.6 94.0001 265.7C93.7001 265.7 93.0001 265.7 92.8001 266Z" fill="white"/>
</g>
<mask id="mask126_201_756" style="mask-type:luminance" maskUnits="userSpaceOnUse" x="51" y="51" width="398" height="398">
<path d="M250 448.5C359.629 448.5 448.5 359.629 448.5 250C448.5 140.371 359.629 51.5 250 51.5C140.371 51.5 51.5 140.371 51.5 250C51.5 359.629 140.371 448.5 250 448.5Z" fill="white"/>
</mask>
<g mask="url(#mask126_201_756)">
<path d="M92.3 304C96 310 99.1 316.3 101.7 322.8C102.5 324.7 107.1 322.8 106.3 320.9C103.7 314.4 100.6 308.1 96.9 302.1C96.3 301.1 94.9 301.2 94 301.6C93.3 301.9 91.7 303 92.3 304Z" fill="white"/>
</g>
<mask id="mask127_201_756" style="mask-type:luminance" maskUnits="userSpaceOnUse" x="51" y="51" width="398" height="398">
<path d="M250 448.5C359.629 448.5 448.5 359.629 448.5 250C448.5 140.371 359.629 51.5 250 51.5C140.371 51.5 51.5 140.371 51.5 250C51.5 359.629 140.371 448.5 250 448.5Z" fill="white"/>
</mask>
<g mask="url(#mask127_201_756)">
<path d="M103 285.2C94.8999 289.8 87.5999 295.7 81.2999 302.5C80.4999 303.4 81.5999 304.1 82.3999 304.3C83.4999 304.5 84.9999 304.3 85.6999 303.4C91.7999 296.8 98.8999 291.2 106.7 286.8C107.6 286.3 107.4 285.2 106.5 284.9C105.4 284.3 104 284.6 103 285.2Z" fill="white"/>
</g>
<mask id="mask128_201_756" style="mask-type:luminance" maskUnits="userSpaceOnUse" x="51" y="51" width="398" height="398">
<path d="M250 448.5C359.629 448.5 448.5 359.629 448.5 250C448.5 140.371 359.629 51.5 250 51.5C140.371 51.5 51.5 140.371 51.5 250C51.5 359.629 140.371 448.5 250 448.5Z" fill="white"/>
</mask>
<g mask="url(#mask128_201_756)">
<path d="M86.3999 330.4C86.3999 334.6 86.3999 338.7 86.3999 342.9C86.3999 343.9 87.4999 344.9 88.1999 345.4C88.3999 345.6 90.0999 346.8 90.0999 345.9C90.0999 341.7 90.0999 337.6 90.0999 333.4C90.0999 332.4 88.9999 331.4 88.2999 330.9C88.1999 330.8 86.3999 329.6 86.3999 330.4Z" fill="white"/>
</g>
<mask id="mask129_201_756" style="mask-type:luminance" maskUnits="userSpaceOnUse" x="51" y="51" width="398" height="398">
<path d="M250 448.5C359.629 448.5 448.5 359.629 448.5 250C448.5 140.371 359.629 51.5 250 51.5C140.371 51.5 51.5 140.371 51.5 250C51.5 359.629 140.371 448.5 250 448.5Z" fill="white"/>
</mask>
<g mask="url(#mask129_201_756)">
<path d="M109.7 335.8C104.6 345.6 100.7 356.1 98.2 366.9C98 367.9 98.7 369.1 99.4 369.8C99.6 370.1 101.2 371.5 101.5 370.5C104 359.7 107.9 349.3 113 339.4C113.6 338.1 110.5 334.4 109.7 335.8Z" fill="white"/>
</g>
<mask id="mask130_201_756" style="mask-type:luminance" maskUnits="userSpaceOnUse" x="51" y="51" width="398" height="398">
<path d="M250 448.5C359.629 448.5 448.5 359.629 448.5 250C448.5 140.371 359.629 51.5 250 51.5C140.371 51.5 51.5 140.371 51.5 250C51.5 359.629 140.371 448.5 250 448.5Z" fill="white"/>
</mask>
<g mask="url(#mask130_201_756)">
<path d="M114.3 383.3C119.4 389.3 125.3 394.4 131.8 398.7C132.6 399.2 134.3 399.6 135.1 398.7C135.9 397.8 134.8 396.8 134.1 396.3C128.3 392.5 122.9 387.7 118.4 382.4C117.6 381.5 116.3 380.9 115.1 381.2C114.1 381.5 113.6 382.5 114.3 383.3Z" fill="white"/>
</g>
<mask id="mask131_201_756" style="mask-type:luminance" maskUnits="userSpaceOnUse" x="51" y="51" width="398" height="398">
<path d="M250 448.5C359.629 448.5 448.5 359.629 448.5 250C448.5 140.371 359.629 51.5 250 51.5C140.371 51.5 51.5 140.371 51.5 250C51.5 359.629 140.371 448.5 250 448.5Z" fill="white"/>
</mask>
<g mask="url(#mask131_201_756)">
<path d="M144.4 383.7C143.6 392.8 142.8 402 142.1 411.1C141.9 413.1 146.8 412.4 147 410.8C147.8 401.7 148.6 392.5 149.3 383.4C149.4 381.5 144.6 382.2 144.4 383.7Z" fill="white"/>
</g>
<mask id="mask132_201_756" style="mask-type:luminance" maskUnits="userSpaceOnUse" x="51" y="51" width="398" height="398">
<path d="M250 448.5C359.629 448.5 448.5 359.629 448.5 250C448.5 140.371 359.629 51.5 250 51.5C140.371 51.5 51.5 140.371 51.5 250C51.5 359.629 140.371 448.5 250 448.5Z" fill="white"/>
</mask>
<g mask="url(#mask132_201_756)">
<path d="M70.7 282.6C62.6 283.9 55.4 288.6 51 295.5C50.3 296.5 51.3 297.7 52.3 298C53.5 298.4 54.9 297.9 55.6 296.8C57.4 294 59.8 291.7 62.4 290C63.9 289 65 288.5 66.5 287.8C68.3 287.1 69.4 286.8 71.2 286.5C72.3 286.3 73.6 285.4 73.4 284.2C73.3 282.9 71.8 282.4 70.7 282.6Z" fill="white"/>
</g>
<mask id="mask133_201_756" style="mask-type:luminance" maskUnits="userSpaceOnUse" x="51" y="51" width="398" height="398">
<path d="M250 448.5C359.629 448.5 448.5 359.629 448.5 250C448.5 140.371 359.629 51.5 250 51.5C140.371 51.5 51.5 140.371 51.5 250C51.5 359.629 140.371 448.5 250 448.5Z" fill="white"/>
</mask>
<g mask="url(#mask133_201_756)">
<path d="M63.2 260.9C62.9 263.2 62.6 265.6 62.3 267.9C62.2 268.4 62.6 269 63 269.4C63.4 269.8 64.1 270 64.7 269.9C65.9 269.8 67.1 269 67.3 267.7C67.6 265.4 67.9 263 68.2 260.7C68.3 260.2 67.9 259.6 67.5 259.2C67.1 258.8 66.4 258.6 65.8 258.7C64.6 258.8 63.4 259.5 63.2 260.9Z" fill="white"/>
</g>
<mask id="mask134_201_756" style="mask-type:luminance" maskUnits="userSpaceOnUse" x="51" y="51" width="398" height="398">
<path d="M250 448.5C359.629 448.5 448.5 359.629 448.5 250C448.5 140.371 359.629 51.5 250 51.5C140.371 51.5 51.5 140.371 51.5 250C51.5 359.629 140.371 448.5 250 448.5Z" fill="white"/>
</mask>
<g mask="url(#mask134_201_756)">
<path d="M170.4 397.9C169.7 403.1 169.5 408.3 169.9 413.6C170 414.5 171.5 413.8 171.9 413.6C172.5 413.3 173 413 173.5 412.5C173.7 412.3 174.3 411.8 174.2 411.5C173.8 406.3 174 401 174.7 395.8C174.8 394.9 173 395.7 172.7 395.8C172 396.2 170.5 397 170.4 397.9Z" fill="white"/>
</g>
<mask id="mask135_201_756" style="mask-type:luminance" maskUnits="userSpaceOnUse" x="51" y="51" width="398" height="398">
<path d="M250 448.5C359.629 448.5 448.5 359.629 448.5 250C448.5 140.371 359.629 51.5 250 51.5C140.371 51.5 51.5 140.371 51.5 250C51.5 359.629 140.371 448.5 250 448.5Z" fill="white"/>
</mask>
<g mask="url(#mask135_201_756)">
<path d="M192.1 424.8C197.1 424.8 202 424.8 207 424.8C208 424.8 207.1 423 206.9 422.6C206.4 421.8 205.4 420.7 204.4 420.7C199.4 420.7 194.5 420.7 189.5 420.7C188.5 420.7 189.4 422.5 189.6 422.9C190.1 423.7 191.1 424.8 192.1 424.8Z" fill="white"/>
</g>
<mask id="mask136_201_756" style="mask-type:luminance" maskUnits="userSpaceOnUse" x="51" y="51" width="398" height="398">
<path d="M250 448.5C359.629 448.5 448.5 359.629 448.5 250C448.5 140.371 359.629 51.5 250 51.5C140.371 51.5 51.5 140.371 51.5 250C51.5 359.629 140.371 448.5 250 448.5Z" fill="white"/>
</mask>
<g mask="url(#mask136_201_756)">
<path d="M191.3 401.8C194.7 404.7 198.1 407.5 201.5 410.4C201.9 410.7 202.6 410.7 203 410.6C203.6 410.5 204.3 410.1 204.7 409.7C205.4 409 206 407.9 205.1 407.1C201.7 404.2 198.3 401.4 194.9 398.5C194.5 398.2 193.8 398.2 193.4 398.3C192.8 398.4 192.1 398.8 191.7 399.2C191.1 399.9 190.4 401 191.3 401.8Z" fill="white"/>
</g>
<mask id="mask137_201_756" style="mask-type:luminance" maskUnits="userSpaceOnUse" x="51" y="51" width="398" height="398">
<path d="M250 448.5C359.629 448.5 448.5 359.629 448.5 250C448.5 140.371 359.629 51.5 250 51.5C140.371 51.5 51.5 140.371 51.5 250C51.5 359.629 140.371 448.5 250 448.5Z" fill="white"/>
</mask>
<g mask="url(#mask137_201_756)">
<path d="M227.5 411.4C229.6 416.4 231.6 421.3 233.7 426.3C234.2 427.4 235.5 428.1 236.7 427.8C237.7 427.6 239.1 426.6 238.6 425.4C236.5 420.4 234.5 415.5 232.4 410.5C231.9 409.4 230.6 408.7 229.4 409C228.4 409.3 227 410.2 227.5 411.4Z" fill="white"/>
</g>
<mask id="mask138_201_756" style="mask-type:luminance" maskUnits="userSpaceOnUse" x="51" y="51" width="398" height="398">
<path d="M250 448.5C359.629 448.5 448.5 359.629 448.5 250C448.5 140.371 359.629 51.5 250 51.5C140.371 51.5 51.5 140.371 51.5 250C51.5 359.629 140.371 448.5 250 448.5Z" fill="white"/>
</mask>
<g mask="url(#mask138_201_756)">
<path d="M247.7 387.8C245.6 393.3 244.3 399.2 244 405.1C243.9 406.2 245.3 406.7 246.2 406.9C246.8 407 248.8 407.1 248.9 406.1C249.2 400.2 250.5 394.4 252.6 388.8C253 387.8 251 387.1 250.4 387C249.6 386.8 248.1 386.8 247.7 387.8Z" fill="white"/>
</g>
<mask id="mask139_201_756" style="mask-type:luminance" maskUnits="userSpaceOnUse" x="51" y="51" width="398" height="398">
<path d="M250 448.5C359.629 448.5 448.5 359.629 448.5 250C448.5 140.371 359.629 51.5 250 51.5C140.371 51.5 51.5 140.371 51.5 250C51.5 359.629 140.371 448.5 250 448.5Z" fill="white"/>
</mask>
<g mask="url(#mask139_201_756)">
<path d="M254.4 420.1C260.6 423.8 266.9 427.5 273.1 431.2C273.7 431.5 275 430.6 275.5 430.3C275.6 430.2 277.7 428.8 277.5 428.7C271.3 425 265 421.3 258.8 417.6C258.2 417.3 256.9 418.2 256.4 418.5C256.2 418.6 254.2 420 254.4 420.1Z" fill="white"/>
</g>
<mask id="mask140_201_756" style="mask-type:luminance" maskUnits="userSpaceOnUse" x="51" y="51" width="398" height="398">
<path d="M250 448.5C359.629 448.5 448.5 359.629 448.5 250C448.5 140.371 359.629 51.5 250 51.5C140.371 51.5 51.5 140.371 51.5 250C51.5 359.629 140.371 448.5 250 448.5Z" fill="white"/>
</mask>
<g mask="url(#mask140_201_756)">
<path d="M274.9 410.3C278.5 413.2 282.1 416.2 285.7 419.1C286.6 419.8 288.1 419.9 289.1 419.4C289.9 419 290.8 418 289.9 417.3C286.3 414.4 282.7 411.4 279.1 408.5C278.2 407.8 276.7 407.7 275.7 408.2C274.9 408.5 273.9 409.5 274.9 410.3Z" fill="white"/>
</g>
<mask id="mask141_201_756" style="mask-type:luminance" maskUnits="userSpaceOnUse" x="51" y="51" width="398" height="398">
<path d="M250 448.5C359.629 448.5 448.5 359.629 448.5 250C448.5 140.371 359.629 51.5 250 51.5C140.371 51.5 51.5 140.371 51.5 250C51.5 359.629 140.371 448.5 250 448.5Z" fill="white"/>
</mask>
<g mask="url(#mask141_201_756)">
<path d="M308.3 420.9C304.2 429.3 301.5 438.2 300.3 447.4C300.1 448.5 305.1 449.2 305.3 448.1C306.5 438.9 309.3 429.9 313.3 421.6C313.5 420.9 308.9 419.6 308.3 420.9Z" fill="white"/>
</g>
<mask id="mask142_201_756" style="mask-type:luminance" maskUnits="userSpaceOnUse" x="51" y="51" width="398" height="398">
<path d="M250 448.5C359.629 448.5 448.5 359.629 448.5 250C448.5 140.371 359.629 51.5 250 51.5C140.371 51.5 51.5 140.371 51.5 250C51.5 359.629 140.371 448.5 250 448.5Z" fill="white"/>
</mask>
<g mask="url(#mask142_201_756)">
<path d="M327 434.3C330.4 436.2 333.7 438.1 337.1 439.9C338.1 440.4 337.8 438.9 337.6 438.5C337.2 437.5 336.5 436.3 335.5 435.8C332.1 433.9 328.8 432 325.4 430.2C324.4 429.7 324.7 431.2 324.9 431.6C325.3 432.6 326 433.7 327 434.3Z" fill="white"/>
</g>
<mask id="mask143_201_756" style="mask-type:luminance" maskUnits="userSpaceOnUse" x="51" y="51" width="398" height="398">
<path d="M250 448.5C359.629 448.5 448.5 359.629 448.5 250C448.5 140.371 359.629 51.5 250 51.5C140.371 51.5 51.5 140.371 51.5 250C51.5 359.629 140.371 448.5 250 448.5Z" fill="white"/>
</mask>
<g mask="url(#mask143_201_756)">
<path d="M262.7 193.7C263.2 200.4 264.6 207.1 266.6 213.5C266.7 213.8 267.5 214.1 267.6 214.1C268.2 214.3 268.8 214.5 269.5 214.6C269.9 214.7 271.6 214.9 271.4 214.2C269.4 207.9 268.1 201.4 267.6 194.8C267.5 193.5 262.6 193.2 262.7 193.7Z" fill="white"/>
</g>
<mask id="mask144_201_756" style="mask-type:luminance" maskUnits="userSpaceOnUse" x="51" y="51" width="398" height="398">
<path d="M250 448.5C359.629 448.5 448.5 359.629 448.5 250C448.5 140.371 359.629 51.5 250 51.5C140.371 51.5 51.5 140.371 51.5 250C51.5 359.629 140.371 448.5 250 448.5Z" fill="white"/>
</mask>
<g mask="url(#mask144_201_756)">
<path d="M296.2 175.7C303.9 173.8 311.4 171 318.5 167.5C319.5 167 319.1 165.8 318.4 165.2C317.6 164.5 316.1 164 315 164.5C308.2 167.9 301 170.6 293.6 172.4C292.6 172.7 292.2 173.6 292.9 174.5C293.6 175.3 295.1 175.9 296.2 175.7Z" fill="white"/>
</g>
<mask id="mask145_201_756" style="mask-type:luminance" maskUnits="userSpaceOnUse" x="51" y="51" width="398" height="398">
<path d="M250 448.5C359.629 448.5 448.5 359.629 448.5 250C448.5 140.371 359.629 51.5 250 51.5C140.371 51.5 51.5 140.371 51.5 250C51.5 359.629 140.371 448.5 250 448.5Z" fill="white"/>
</mask>
<g mask="url(#mask145_201_756)">
<path d="M247.4 106.7C253.7 107 259.9 107.2 266.2 107.5C267.3 107.5 267.7 106.6 267.2 105.7C266.6 104.7 265.3 104 264.1 103.9C257.8 103.6 251.6 103.4 245.3 103.1C244.2 103.1 243.8 104 244.3 104.9C244.9 106 246.2 106.6 247.4 106.7Z" fill="white"/>
</g>
<mask id="mask146_201_756" style="mask-type:luminance" maskUnits="userSpaceOnUse" x="51" y="51" width="398" height="398">
<path d="M250 448.5C359.629 448.5 448.5 359.629 448.5 250C448.5 140.371 359.629 51.5 250 51.5C140.371 51.5 51.5 140.371 51.5 250C51.5 359.629 140.371 448.5 250 448.5Z" fill="white"/>
</mask>
<g mask="url(#mask146_201_756)">
<path d="M271 91.5C271.1 91.6 271.2 91.8 271.2 91.9C271.1 91.7 271.1 91.7 271.2 92C271.3 92.3 271.5 92.5 271.6 92.8C271.8 93.3 272.1 93.7 272.3 94.2C272.8 95.2 273.2 96.1 273.6 97.1C274 98.1 274.3 99.1 274.6 100.1C274.7 100.4 274.8 100.7 274.8 101C274.8 101.1 275 101.7 274.9 101.3C275 101.9 275.1 102.5 275.2 103C275.4 104.2 276.5 105.1 277.8 104.9C278.9 104.7 280.3 103.6 280.1 102.3C279.2 97.4 277.5 92.9 274.9 88.7C274.6 88.2 273.8 88 273.3 87.9C272.7 87.8 271.9 88 271.4 88.4C270.6 89.2 270.3 90.4 271 91.5Z" fill="white"/>
</g>
<mask id="mask147_201_756" style="mask-type:luminance" maskUnits="userSpaceOnUse" x="51" y="51" width="398" height="398">
<path d="M250 448.5C359.629 448.5 448.5 359.629 448.5 250C448.5 140.371 359.629 51.5 250 51.5C140.371 51.5 51.5 140.371 51.5 250C51.5 359.629 140.371 448.5 250 448.5Z" fill="white"/>
</mask>
<g mask="url(#mask147_201_756)">
<path d="M282.3 271.4C282.3 273 282.3 274.5 282.3 276.1C282.3 276.6 282.8 277.1 283.1 277.4C283.6 277.8 284.3 278.1 284.9 278.1C285.4 278.1 286.1 278.1 286.6 277.8C287 277.5 287.2 277.2 287.2 276.7C287.2 275.1 287.2 273.6 287.2 272C287.2 271.5 286.7 271 286.4 270.7C285.9 270.3 285.2 270 284.6 270C284.1 270 283.4 270 282.9 270.3C282.5 270.6 282.3 270.9 282.3 271.4Z" fill="white"/>
</g>
<mask id="mask148_201_756" style="mask-type:luminance" maskUnits="userSpaceOnUse" x="51" y="51" width="398" height="398">
<path d="M250 448.5C359.629 448.5 448.5 359.629 448.5 250C448.5 140.371 359.629 51.5 250 51.5C140.371 51.5 51.5 140.371 51.5 250C51.5 359.629 140.371 448.5 250 448.5Z" fill="white"/>
</mask>
<g mask="url(#mask148_201_756)">
<path d="M420.4 278.9C422.2 279.9 424.1 281 425.9 282C426.4 282.3 427 282.6 427.6 282.6C427.9 282.6 428.5 282.6 428.6 282.3C428.8 281.9 428.6 281.5 428.4 281.2C428 280.7 427.6 280.3 427 280C425.2 279 423.3 277.9 421.5 276.9C421 276.6 420.4 276.3 419.8 276.3C419.5 276.3 418.9 276.3 418.8 276.6C418.6 277 418.8 277.4 419 277.7C419.4 278.2 419.8 278.6 420.4 278.9Z" fill="white"/>
</g>
<mask id="mask149_201_756" style="mask-type:luminance" maskUnits="userSpaceOnUse" x="51" y="51" width="398" height="398">
<path d="M250 448.5C359.629 448.5 448.5 359.629 448.5 250C448.5 140.371 359.629 51.5 250 51.5C140.371 51.5 51.5 140.371 51.5 250C51.5 359.629 140.371 448.5 250 448.5Z" fill="white"/>
</mask>
<g mask="url(#mask149_201_756)">
<path d="M445 272.9C452.6 270.1 460.2 267.2 467.7 264.4C468.3 264.2 466.5 263.2 466.3 263.1C465.6 262.8 464.1 261.9 463.3 262.2C455.7 265 448.1 267.9 440.6 270.7C440 270.9 441.8 271.9 442 272C442.7 272.3 444.2 273.2 445 272.9Z" fill="white"/>
</g>
</svg>
