<svg width="500" height="500" viewBox="0 0 500 500" fill="none" xmlns="http://www.w3.org/2000/svg">
<g clip-path="url(#clip0_201_709)">
<mask id="mask0_201_709" style="mask-type:luminance" maskUnits="userSpaceOnUse" x="51" y="51" width="398" height="398">
<path d="M250 448.5C359.629 448.5 448.5 359.629 448.5 250C448.5 140.371 359.629 51.5 250 51.5C140.371 51.5 51.5 140.371 51.5 250C51.5 359.629 140.371 448.5 250 448.5Z" fill="white"/>
</mask>
<g mask="url(#mask0_201_709)">
<path d="M43.7002 121.2C61.6002 119.5 79.5002 118.5 97.5002 118.2C115.4 117.8 133.3 117.9 151.2 118.2C156.2 118.3 161.3 118.4 166.3 118.5C168.5 118.5 170.6 118.5 172.8 118.7C173.7 118.8 174.6 119 175.5 119.2C175.8 119.3 176.2 119.5 176.5 119.6C176.7 119.6 176.6 119.9 176.4 119.5C176.2 119.2 176.2 119.4 176.5 119.7C176.4 119.4 176.3 119.2 176.2 118.9C169.2 124.6 160.5 126.9 151.7 127.9C142 129 132.2 128.6 122.5 128.6C100.2 128.6 77.9002 128.9 55.7002 129.4C43.1002 129.7 30.4002 130.1 17.8002 130.5C17.1002 130.5 18.6002 132 18.7002 132.1C19.3002 132.7 20.5002 133.7 21.4002 133.6C43.9002 132.8 66.4002 132.3 89.0002 132C100.2 131.9 111.4 131.8 122.7 131.7C132.7 131.7 142.8 132.1 152.8 131.3C162.6 130.5 172.5 128.2 180.2 121.9C180.4 121.7 179.9 121.2 179.9 121.1C177.6 118 174 116.1 170.2 115.6C166.1 115 161.8 115.2 157.6 115.1C148.1 114.9 138.6 114.8 129.1 114.7C110.1 114.6 91.2002 114.7 72.2002 115.6C61.5002 116.1 50.8002 116.9 40.1002 117.9C39.4002 118 40.9002 119.4 41.0002 119.5C41.6002 120.2 42.8002 121.3 43.7002 121.2Z" fill="white"/>
</g>
<mask id="mask1_201_709" style="mask-type:luminance" maskUnits="userSpaceOnUse" x="51" y="51" width="398" height="398">
<path d="M250 448.5C359.629 448.5 448.5 359.629 448.5 250C448.5 140.371 359.629 51.5 250 51.5C140.371 51.5 51.5 140.371 51.5 250C51.5 359.629 140.371 448.5 250 448.5Z" fill="white"/>
</mask>
<g mask="url(#mask1_201_709)">
<path d="M96.2 83.6C121.1 83.1 146 83.1 170.8 83.7C195.7 84.2 220.5 85.3 245.4 86.9C258.7 87.8 272.2 88.3 285.1 92.1C284.7 91.4 284.2 90.6 283.8 89.9C283.5 91.9 281.9 92.6 280 93.1C277.2 93.8 274.3 93.7 271.4 93.7C263.6 93.9 255.8 94 248 94.1C232.6 94.3 217.1 94.2 201.7 94.1C170.8 93.7 140 92.7 109.1 91.1C91.7 90.2 74.3 89 56.9 87.7C55.7 87.6 54.3 88.4 54 89.7C53.7 90.9 54.7 92 55.9 92C87.6 94.5 119.3 96.2 151.1 97.3C182.8 98.4 214.5 98.8 246.2 98.5C255.1 98.4 264 98.3 272.8 98.1C278.4 98 287.3 97.5 288.4 90.4C288.6 89.4 288.1 88.5 287.1 88.2C275.5 84.9 263.4 84 251.4 83.2C238.9 82.4 226.4 81.6 213.9 81.1C189 80 164.2 79.3 139.3 79.2C125.2 79.1 111.1 79.3 97 79.6C95.8 79.6 94.4 80.2 94.1 81.6C94.1 82.4 95 83.6 96.2 83.6Z" fill="white"/>
</g>
<mask id="mask2_201_709" style="mask-type:luminance" maskUnits="userSpaceOnUse" x="51" y="51" width="398" height="398">
<path d="M250 448.5C359.629 448.5 448.5 359.629 448.5 250C448.5 140.371 359.629 51.5 250 51.5C140.371 51.5 51.5 140.371 51.5 250C51.5 359.629 140.371 448.5 250 448.5Z" fill="white"/>
</mask>
<g mask="url(#mask2_201_709)">
<path d="M359.3 60.9999C340.4 58.7999 321.3 57.2999 302.3 56.5999C283.1 55.8999 263.9 55.9999 244.7 56.7999C233.9 57.2999 223.2 57.9999 212.5 58.9999C211.6 59.0999 209.9 59.7 210.8 60.9C218.4 70.5 230.9 74.3999 242.6 75.5999C249.6 76.2999 256.6 76.1999 263.6 76.1999C270.6 76.2999 277.7 76.5 284.7 76.8C313 78 341.3 80.9 369.4 84.4C385.3 86.4 401.1 88.4999 417 90.6999C417.8 90.7999 419.5 90.5999 419.6 89.5999C419.7 88.5 418 88.1 417.3 88C389.7 84.2 362 80.3999 334.3 77.6999C320.4 76.2999 306.6 75.2 292.6 74.4C285.5 74 278.5 73.6999 271.4 73.5999C264.6 73.3999 257.7 73.5 250.9 73.3C238 73 223.7 70.7 215.2 59.9C214.6 60.5 214.1 61.0999 213.5 61.7999C232.4 60.0999 251.4 59.1 270.4 58.9C289.3 58.7 308.3 59.3 327.2 60.7C337.9 61.5 348.5 62.5 359.1 63.7C359.9 63.8 361.6 63.6999 361.7 62.5999C361.8 61.4999 360 61.0999 359.3 60.9999Z" fill="white"/>
</g>
<mask id="mask3_201_709" style="mask-type:luminance" maskUnits="userSpaceOnUse" x="51" y="51" width="398" height="398">
<path d="M250 448.5C359.629 448.5 448.5 359.629 448.5 250C448.5 140.371 359.629 51.5 250 51.5C140.371 51.5 51.5 140.371 51.5 250C51.5 359.629 140.371 448.5 250 448.5Z" fill="white"/>
</mask>
<g mask="url(#mask3_201_709)">
<path d="M423.8 108C388.3 105.6 352.8 104 317.2 103.1C281.6 102.3 246.1 102.3 210.5 103.1C207.1 103.2 202.8 102.7 199.8 104.7C197.3 106.4 196.5 109.6 198.7 111.9C201 114.3 204.5 114.7 207.6 115C212.1 115.5 216.5 115.9 221 116.3C238.6 118.1 256.3 119.8 273.9 121.5C309.2 124.9 344.5 128.2 379.9 131.3C415.3 134.4 450.6 137.4 485.9 140.3C490.3 140.7 494.6 141 499 141.4C500.2 141.5 501.6 141.1 502.2 139.9C502.7 139 502.3 137.7 501.1 137.6C466.5 134.8 432 131.9 397.4 128.9C362.8 125.9 328.3 122.7 293.8 119.4C276.5 117.8 259.3 116.1 242 114.4C233.4 113.5 224.7 112.7 216.1 111.8C214 111.6 211.9 111.4 209.9 111.2C208.3 111 206.6 111 205 110.4C204 110 202.5 109.4 202.1 108.3C201.8 107.4 202.2 107.2 203.1 107.1C204.8 106.8 206.5 106.9 208.2 106.9C210.6 106.8 213 106.8 215.4 106.7C219.6 106.6 223.8 106.5 228 106.5C236.8 106.4 245.5 106.3 254.3 106.3C271.6 106.2 289 106.4 306.3 106.7C341 107.3 375.6 108.7 410.2 110.9C414.4 111.2 418.6 111.4 422.7 111.7C425.4 112 427.1 108.2 423.8 108Z" fill="white"/>
</g>
<mask id="mask4_201_709" style="mask-type:luminance" maskUnits="userSpaceOnUse" x="51" y="51" width="398" height="398">
<path d="M250 448.5C359.629 448.5 448.5 359.629 448.5 250C448.5 140.371 359.629 51.5 250 51.5C140.371 51.5 51.5 140.371 51.5 250C51.5 359.629 140.371 448.5 250 448.5Z" fill="white"/>
</mask>
<g mask="url(#mask4_201_709)">
<path d="M447.7 147.3C420.9 146.6 394.1 146.1 367.3 145.7C340.6 145.3 313.9 145 287.2 144.7C279.8 144.6 272.4 144.6 264.9 144.6C257.7 144.6 250.4 144.9 243.3 146.7C241.6 147.1 241.5 149.4 242.6 150.5C247 155.3 253.3 156.9 259.5 157.8C267.1 158.8 274.8 159.1 282.5 159.1C290.3 159.1 298.2 158.9 306 158.8C313.7 158.7 321.5 158.9 329.2 159.3C344.9 160.1 360.5 161.8 376.2 162.8C391.8 163.9 407.4 164.2 423 164.3C440.7 164.4 458.4 164.4 476.1 164.4C477.4 164.4 477.7 162.7 477.4 161.8C477.1 160.6 476.1 159.7 474.8 159.7C443.9 159.7 412.8 160.3 381.9 158.5C366.5 157.6 351.2 156 335.9 155C328.1 154.5 320.4 154.1 312.6 154.1C305.1 154 297.6 154.3 290 154.4C281.5 154.5 273.1 154.5 264.6 153.8C260.9 153.5 257.1 153.1 253.5 152.2C250.5 151.4 247.4 150.2 245.3 147.8C245.1 149.1 244.8 150.4 244.6 151.6C250.8 150.1 257.2 149.6 263.5 149.6C270.1 149.5 276.6 149.6 283.2 149.7C296.5 149.8 309.8 149.9 323.1 150.1C349.7 150.4 376.3 150.8 403 151.3C418 151.6 432.9 151.9 447.9 152.3C450.9 152.1 450.2 147.4 447.7 147.3Z" fill="white"/>
</g>
<mask id="mask5_201_709" style="mask-type:luminance" maskUnits="userSpaceOnUse" x="51" y="51" width="398" height="398">
<path d="M250 448.5C359.629 448.5 448.5 359.629 448.5 250C448.5 140.371 359.629 51.5 250 51.5C140.371 51.5 51.5 140.371 51.5 250C51.5 359.629 140.371 448.5 250 448.5Z" fill="white"/>
</mask>
<g mask="url(#mask5_201_709)">
<path d="M54.6002 141.8C75.8002 141.2 97.0002 141.1 118.3 141.4C139.5 141.7 160.6 142.3 181.7 143.5C192.7 144.1 203.8 145 214.1 149.1C213.5 147.8 212.8 146.6 212.2 145.3C208.7 149.7 201.5 149.7 196.5 150C189.4 150.5 182.3 150.4 175.2 150.4C160.9 150.3 146.6 150.2 132.3 149.9C103.8 149.5 75.2001 148.8 46.7002 147.8C30.7002 147.3 14.6002 146.6 -1.39985 145.9C-4.09985 145.8 -2.29985 150.3 -0.199847 150.4C28.7002 151.7 57.7001 152.7 86.6002 153.4C115.5 154.1 144.5 154.6 173.4 154.8C181.5 154.9 189.6 155 197.7 154.4C203.9 154 211.6 153.9 215.8 148.6C216.8 147.3 215 145.2 213.9 144.8C204.6 141.2 194.7 139.9 184.9 139.3C174.4 138.6 163.9 138.2 153.4 137.8C132.1 137 110.8 136.7 89.5002 136.8C77.5002 136.8 65.5002 137 53.4002 137.3C50.7002 137.4 52.6002 141.9 54.6002 141.8Z" fill="white"/>
</g>
<mask id="mask6_201_709" style="mask-type:luminance" maskUnits="userSpaceOnUse" x="51" y="51" width="398" height="398">
<path d="M250 448.5C359.629 448.5 448.5 359.629 448.5 250C448.5 140.371 359.629 51.5 250 51.5C140.371 51.5 51.5 140.371 51.5 250C51.5 359.629 140.371 448.5 250 448.5Z" fill="white"/>
</mask>
<g mask="url(#mask6_201_709)">
<path d="M237.4 124.2C226.7 123 215.9 122 205.1 121.2C199.8 120.8 194.4 120.5 189 120.2C186.3 120.1 183.6 119.9 180.8 119.8C179.3 119.7 175.5 119.1 176.1 121.8C176.7 124 179.2 125.5 181 126.6C183 127.8 185.1 128.7 187.4 129.4C191.7 130.8 196.1 131.3 200.6 131.7C211.1 132.7 221.5 133.9 232 135.1C243.9 136.5 255.9 137.6 267.9 137.5C268.3 137.5 268.5 137.4 268.5 137C269.1 134.4 265 132.4 263 131.8C260 130.8 256.9 129.9 253.9 129C247.8 127.2 241.7 125.5 235.6 123.8C234.7 123.6 234.3 124.1 234.8 124.9C235.4 125.9 236.6 126.7 237.6 127C242.5 128.3 247.3 129.6 252.2 131.1C254.5 131.8 256.9 132.5 259.2 133.2C260.4 133.6 261.7 134 262.9 134.3C263.5 134.5 264.1 134.7 264.8 134.9C265 134.9 265.2 135 265.4 135.1C264.7 134 264.4 133.8 264.3 134.5C264.5 134.3 264.7 134.2 264.9 134C245 134.2 225.4 130.9 205.6 128.9C201.2 128.5 196.8 128.2 192.5 127.6C188.6 127.1 184.5 126.2 181.1 124.1C180.8 123.9 180.5 123.6 180.1 123.5C180 123.5 180 123.4 179.9 123.4C180.2 123.8 180.3 123.8 180.2 123.6C180.1 123.6 180.3 123.2 180.3 123.2C180.6 122.8 181.4 123 181.8 123C182.5 123 183.1 123.1 183.8 123.1C186.3 123.2 188.7 123.3 191.2 123.4C196.2 123.7 201.2 124 206.3 124.3C217.6 125.1 228.8 126.1 240.1 127.4C241.2 127.5 240.5 126.2 240.2 125.8C239.7 125.1 238.6 124.3 237.4 124.2Z" fill="white"/>
</g>
<mask id="mask7_201_709" style="mask-type:luminance" maskUnits="userSpaceOnUse" x="51" y="51" width="398" height="398">
<path d="M250 448.5C359.629 448.5 448.5 359.629 448.5 250C448.5 140.371 359.629 51.5 250 51.5C140.371 51.5 51.5 140.371 51.5 250C51.5 359.629 140.371 448.5 250 448.5Z" fill="white"/>
</mask>
<g mask="url(#mask7_201_709)">
<path d="M438.6 169C407.7 168.8 376.8 170.5 346.1 174.1C337.4 175.1 328.8 176.3 320.2 177.6C320 177.6 319.6 177.8 319.7 178.1C321.4 181.4 325.4 182.8 328.9 183.2C333.3 183.8 337.8 183.5 342.2 183.6C352 183.8 361.8 183.9 371.6 184.1C391.3 184.4 411 184.7 430.7 185C441.8 185.2 452.8 185.3 463.9 185.5C464.8 185.5 465 185 464.3 184.4C463.5 183.7 462.1 183.1 461 183.1C442.4 182.8 423.8 182.5 405.1 182.2C386.5 181.9 367.9 181.6 349.2 181.3C344 181.2 338.9 181.1 333.7 181.1C331.4 181.1 329.1 181.2 326.9 180.9C325.6 180.7 324.9 180.6 324.2 179.4C324 179.6 323.9 179.7 323.7 179.9C354 175.2 384.5 172.4 415.1 171.5C423.8 171.2 432.5 171.2 441.3 171.2C442.2 171.2 442.4 170.7 441.7 170.1C441.1 169.6 439.7 169 438.6 169Z" fill="white"/>
</g>
<mask id="mask8_201_709" style="mask-type:luminance" maskUnits="userSpaceOnUse" x="51" y="51" width="398" height="398">
<path d="M250 448.5C359.629 448.5 448.5 359.629 448.5 250C448.5 140.371 359.629 51.5 250 51.5C140.371 51.5 51.5 140.371 51.5 250C51.5 359.629 140.371 448.5 250 448.5Z" fill="white"/>
</mask>
<g mask="url(#mask8_201_709)">
<path d="M459.4 205C450.8 202.2 441.8 201.5 432.8 201C423.5 200.5 414.1 200 404.8 199.7C385.9 199 366.9 198.6 348 198.4C310 197.9 271.9 197.8 233.9 197.5C223.2 197.4 212.6 197.3 201.9 197.3C191.4 197.3 180.8 197.6 170.4 199.3C169 199.5 167.7 201 168.3 202.4C171.3 209.7 180.1 211.4 187.2 211.9C198 212.7 208.8 213.1 219.6 213.6C241.6 214.7 263.6 215.5 285.5 216.3C307.5 217 329.5 217.6 351.5 218.1C373.5 218.6 395.5 219 417.5 219.4C439.5 219.8 461.5 220.1 483.5 220.3C486.3 220.3 489.1 220.4 491.8 220.4C494.6 220.4 495.9 216.1 492.6 216.1C470.9 215.8 449.2 215.5 427.6 215.2C405.9 214.9 384.2 214.5 362.6 214C340.9 213.5 319.3 213 297.6 212.3C275.9 211.6 254.3 210.8 232.6 209.8C221.8 209.3 211.1 208.8 200.3 208.2C195.4 207.9 190.5 207.8 185.7 207.3C182.3 206.9 178.6 206.1 175.8 204C174.5 203 173.6 201.8 173 200.3C172.3 201.3 171.6 202.4 170.9 203.4C189.4 200.5 208.4 201.6 227 201.7C245.9 201.8 264.9 202 283.8 202.1C321.3 202.4 358.9 202.4 396.4 203.7C406.8 204 417.3 204.5 427.7 205.1C437.7 205.7 447.9 206.1 457.5 209.2C459.9 209.9 462.4 205.9 459.4 205Z" fill="white"/>
</g>
<mask id="mask9_201_709" style="mask-type:luminance" maskUnits="userSpaceOnUse" x="51" y="51" width="398" height="398">
<path d="M250 448.5C359.629 448.5 448.5 359.629 448.5 250C448.5 140.371 359.629 51.5 250 51.5C140.371 51.5 51.5 140.371 51.5 250C51.5 359.629 140.371 448.5 250 448.5Z" fill="white"/>
</mask>
<g mask="url(#mask9_201_709)">
<path d="M44.8002 163.9C77.2002 164.9 109.6 166 141.9 167C173.6 168 205.4 168.7 237.1 171.4C254.9 172.9 272.7 175 290.2 178.2C291.3 177.7 292.5 177.2 293.6 176.7C284.8 178.7 275.8 179.4 266.8 179.7C257.7 180 248.5 180 239.4 180C220.8 180.1 202.3 180 183.8 179.8C146.6 179.4 109.4 178.5 72.2002 177C51.4002 176.2 30.6002 175.1 9.80019 174C8.80019 173.9 7.70019 174.4 6.80019 174.7C6.50019 174.8 5.00019 175.6 5.30019 175.6C42.9002 177.7 80.5002 179.3 118.2 180.3C155.6 181.3 192.9 181.8 230.3 181.6C240.6 181.6 250.9 181.6 261.2 181.3C271.4 181 281.5 180.2 291.5 178C292.4 177.8 293.3 177.5 294.1 177.2C294.2 177.2 295.2 176.7 294.8 176.6C263.5 170.9 231.6 168.6 199.8 167.2C167.8 165.8 135.8 165 103.8 164C85.6002 163.4 67.4002 162.8 49.3002 162.3C48.3002 162.3 47.2002 162.6 46.3002 163C46.0002 163.1 44.5002 163.9 44.8002 163.9Z" fill="white"/>
</g>
<mask id="mask10_201_709" style="mask-type:luminance" maskUnits="userSpaceOnUse" x="51" y="51" width="398" height="398">
<path d="M250 448.5C359.629 448.5 448.5 359.629 448.5 250C448.5 140.371 359.629 51.5 250 51.5C140.371 51.5 51.5 140.371 51.5 250C51.5 359.629 140.371 448.5 250 448.5Z" fill="white"/>
</mask>
<g mask="url(#mask10_201_709)">
<path d="M29.3999 188.7C47.5999 192.5 66.1999 193.7 84.6999 194.2C103.3 194.7 121.9 194.6 140.4 195.9C145 196.2 149.7 196.6 154.3 197.2C155.6 197.4 157.6 197.3 158.7 198.2C159.6 198.9 158.3 200.1 157.5 200.7C154.9 202.4 151 202 148.1 201.9C143.4 201.8 138.6 201.7 133.9 201.6C114.7 201.1 95.4999 200.7 76.3999 200.2C57.2999 199.7 37.9999 199.3 18.8999 198.8C16.4999 198.7 14.0999 198.7 11.6999 198.6C8.59995 198.5 8.19995 203 11.3999 203C31.2999 203.5 51.2999 203.9 71.1999 204.4C91.0999 204.9 111.1 205.3 131 205.8C135.9 205.9 140.8 206 145.7 206.1C149.6 206.2 153.8 206.6 157.6 205.3C161 204.1 165.8 200.4 163.6 196.3C161.7 192.7 156.4 192.8 153 192.5C133.8 190.4 114.5 190.3 95.1999 189.9C76.0999 189.5 56.9999 188.9 38.0999 185.6C35.6999 185.2 33.3999 184.7 30.9999 184.3C29.7999 184 28.2999 184.6 27.8999 185.9C27.3999 187.2 28.0999 188.4 29.3999 188.7Z" fill="white"/>
</g>
<mask id="mask11_201_709" style="mask-type:luminance" maskUnits="userSpaceOnUse" x="51" y="51" width="398" height="398">
<path d="M250 448.5C359.629 448.5 448.5 359.629 448.5 250C448.5 140.371 359.629 51.5 250 51.5C140.371 51.5 51.5 140.371 51.5 250C51.5 359.629 140.371 448.5 250 448.5Z" fill="white"/>
</mask>
<g mask="url(#mask11_201_709)">
<path d="M20.6002 211.6C50.1002 215.8 79.8002 219.3 109.4 222.4C124.2 223.9 139 225.3 153.8 226.5C168.5 227.7 183.3 228.5 198 229.8C205.1 230.4 212.3 231.3 219.3 232.7C220.9 233 222.4 233.4 224 233.8C225.3 234.1 227.2 234.3 228.3 235.1C228.9 235.5 229 236.1 228.6 236.4C228 236.9 226.9 237.1 226.1 237.1C222.5 237.2 218.9 237 215.3 237C211.5 237 207.6 236.9 203.8 236.9C196.3 236.8 188.8 236.7 181.3 236.7C151.4 236.4 121.4 236.1 91.5002 235.8C61.6002 235.5 31.6002 235.2 1.70023 234.9C-1.99977 234.9 -5.59977 234.8 -9.29977 234.8C-10.2998 234.8 -11.8998 235.5 -11.9998 236.7C-12.1998 237.9 -10.7998 238.3 -9.79977 238.4C21.0002 238.7 51.8002 239 82.5002 239.3C113.1 239.6 143.7 239.9 174.3 240.2C189.6 240.4 204.9 240.5 220.2 240.7C223.4 240.7 226.7 241.1 229.8 239.8C232.1 238.9 234.6 236.7 233.2 234C232.6 232.7 231.3 232 230 231.6C228.3 231 226.4 230.6 224.7 230.2C221.1 229.4 217.5 228.7 213.9 228.1C199.2 225.8 184.3 225.3 169.5 224.2C154.3 223 139.2 221.7 124 220.3C93.7002 217.4 63.5002 213.9 33.4002 209.8C29.6002 209.3 25.9002 208.8 22.1002 208.2C21.0002 208 19.4002 208.5 18.9002 209.6C18.7002 210.6 19.6002 211.4 20.6002 211.6Z" fill="white"/>
</g>
<mask id="mask12_201_709" style="mask-type:luminance" maskUnits="userSpaceOnUse" x="51" y="51" width="398" height="398">
<path d="M250 448.5C359.629 448.5 448.5 359.629 448.5 250C448.5 140.371 359.629 51.5 250 51.5C140.371 51.5 51.5 140.371 51.5 250C51.5 359.629 140.371 448.5 250 448.5Z" fill="white"/>
</mask>
<g mask="url(#mask12_201_709)">
<path d="M250.7 232.5C279 233 307.4 233.5 335.7 234.1C363.9 234.6 392.1 234.9 420.2 236.2C436.1 236.9 451.9 238 467.7 239.6C467.5 239.5 467.4 239.5 467.2 239.4C467.3 240.6 466.8 242.3 465.8 242.9C465.9 242.8 466.2 242.7 465.8 242.9C465.4 243 465 243.1 464.7 243.1C463.7 243.2 462.7 243.2 461.7 243.3C457.9 243.3 454.1 243.4 450.3 243.4C442.7 243.4 435 243.5 427.4 243.5C412 243.6 396.5 243.7 381.1 243.8C350.5 244 319.9 244.1 289.3 242.6C280.7 242.2 272.1 241.6 263.6 240.9C261.5 240.7 259.3 240.5 257.2 240.3C255.3 240.1 253.3 240 251.5 239.1C250 238.4 248.8 237.2 248.3 235.5C248.1 234.8 248.1 234 248.4 233.4C248.4 233.3 248.8 232.9 248.8 232.8C247.2 233.3 246.8 233.5 247.7 233.4C247.9 233.4 248.1 233.5 248.3 233.6C249.1 234 250.6 233.1 251.3 232.7C251.5 232.6 253.2 231.4 252.5 231.1C251 230.5 249.4 231 248 231.6C246.5 232.3 244.8 233.4 244.1 235C242.7 237.9 245.4 240.8 248 241.8C249.7 242.5 251.6 242.6 253.5 242.8C255.6 243 257.6 243.2 259.7 243.4C263.9 243.8 268.1 244.1 272.3 244.4C289 245.5 305.8 246.1 322.6 246.4C339.4 246.7 356.2 246.6 373 246.5C389.8 246.4 406.7 246.3 423.5 246.2C431.9 246.1 440.3 246.1 448.6 246C452.6 246 456.8 246.2 460.8 245.8C464.4 245.5 468.4 244.1 470.7 241.1C471.6 239.9 472 238.7 471.9 237.2C471.8 237.1 471.6 237 471.4 237C443.4 234.1 415.3 233.1 387.2 232.4C358.9 231.8 330.7 231.3 302.4 230.8C286.4 230.5 270.4 230.2 254.4 229.9C253.3 229.9 252.1 230.6 251.2 231.2C250.7 231.5 249.6 232.5 250.7 232.5Z" fill="white"/>
</g>
<mask id="mask13_201_709" style="mask-type:luminance" maskUnits="userSpaceOnUse" x="51" y="51" width="398" height="398">
<path d="M250 448.5C359.629 448.5 448.5 359.629 448.5 250C448.5 140.371 359.629 51.5 250 51.5C140.371 51.5 51.5 140.371 51.5 250C51.5 359.629 140.371 448.5 250 448.5Z" fill="white"/>
</mask>
<g mask="url(#mask13_201_709)">
<path d="M455.5 256.2C427.1 257.9 398.8 260.2 370.5 263C363.1 263.7 355.3 264.1 348.4 267.1C346 268.1 347 270.7 349.2 271.1C356 272.4 363 272.7 369.9 273.2C377 273.7 384.1 274.3 391.2 274.8C405.3 275.8 419.5 276.7 433.6 277.4C441.6 277.8 449.6 278.2 457.7 278.6C458.9 278.7 460.3 278.2 460.4 276.8C460.5 275.6 459.3 274.5 458.2 274.5C429.8 273.2 401.5 271.5 373.1 269.3C365.3 268.7 357.4 268.4 349.7 267C350 268.3 350.2 269.6 350.5 271C356.5 268.4 363 268 369.4 267.4C376.4 266.7 383.4 266 390.4 265.4C404.5 264.1 418.6 263 432.7 262C440.6 261.4 448.5 260.9 456.5 260.4C457.7 260.3 458.8 259.3 458.5 258.1C458.1 256.7 456.7 256.1 455.5 256.2Z" fill="white"/>
</g>
<mask id="mask14_201_709" style="mask-type:luminance" maskUnits="userSpaceOnUse" x="51" y="51" width="398" height="398">
<path d="M250 448.5C359.629 448.5 448.5 359.629 448.5 250C448.5 140.371 359.629 51.5 250 51.5C140.371 51.5 51.5 140.371 51.5 250C51.5 359.629 140.371 448.5 250 448.5Z" fill="white"/>
</mask>
<g mask="url(#mask14_201_709)">
<path d="M451.3 291.4C432.5 295.7 413 295.5 393.8 295.8C374.6 296.1 355.4 296.2 336.3 296.4C298 296.8 259.7 297.7 221.6 301.8C200.2 304.1 178.9 307.4 157.9 312.2C157.4 312.3 153.8 314.2 155.1 314.9C164.1 319.2 174.8 318.4 184.6 318.6C195.7 318.8 206.7 319.1 217.8 319.3C239.9 319.8 262 320.3 284.1 320.6C305.9 320.9 327.6 321 349.4 320.1C371.3 319.2 393.2 317.4 415.1 315.8C439.7 314 464.3 312.5 488.9 313.2C490 313.2 491.3 312.7 492.1 311.9C492.5 311.6 493.5 310.4 492.3 310.3C448.7 309.1 405.3 314.5 361.8 316.8C318.1 319.1 274.3 317.5 230.6 316.6C218.2 316.3 205.8 316.1 193.4 315.8C187.4 315.7 181.4 315.6 175.4 315.4C169.9 315.2 164.4 314.6 159.3 312.2C158.4 313.1 157.5 314 156.5 314.9C193.9 306.5 232.1 302.7 270.4 300.9C308.9 299.1 347.4 299.3 385.9 298.8C407.3 298.5 429.1 298.8 450.1 294.1C451 293.9 452.6 293.2 453 292.2C453 291.2 451.9 291.3 451.3 291.4Z" fill="white"/>
</g>
<mask id="mask15_201_709" style="mask-type:luminance" maskUnits="userSpaceOnUse" x="51" y="51" width="398" height="398">
<path d="M250 448.5C359.629 448.5 448.5 359.629 448.5 250C448.5 140.371 359.629 51.5 250 51.5C140.371 51.5 51.5 140.371 51.5 250C51.5 359.629 140.371 448.5 250 448.5Z" fill="white"/>
</mask>
<g mask="url(#mask15_201_709)">
<path d="M39.1002 275.8C80.2002 275.4 121.3 275.3 162.4 275.7C203.3 276.1 244.1 276.9 285 278.2C307.7 278.9 330.6 279 353 283C352.4 282 351.7 281 351.1 280C347.8 283.2 343.3 284.2 338.9 284.6C333.7 285 328.4 284.7 323.1 284.6C310.9 284.4 298.6 284.5 286.4 284.6C261.9 284.9 237.5 285.8 213 286.9C188.4 288 163.8 289.4 139.2 290.6C114.7 291.9 90.3002 293.1 65.8002 294C41.3002 294.9 16.8002 295.3 -7.69981 295.2C-10.7998 295.2 -13.7998 295.1 -16.8998 295.1C-17.9998 295.1 -19.3998 295.5 -19.4998 296.8C-19.5998 298 -18.1998 298.9 -17.0998 298.9C7.70018 299.3 32.6002 298.9 57.4002 298.1C82.4002 297.3 107.3 296.1 132.3 294.8C157.1 293.5 182 292.1 206.8 291C231.7 289.8 256.5 288.9 281.4 288.5C293.9 288.3 306.4 288.3 318.9 288.4C324.6 288.5 330.3 288.7 336 288.6C340.7 288.5 345.5 288.1 349.8 286.1C351.9 285.1 353.7 283.9 355.3 282.3C356.8 280.9 354.6 279.5 353.4 279.3C333.5 275.8 313.3 275.4 293.2 274.8C272.7 274.1 252.1 273.6 231.6 273.2C190.7 272.3 149.9 271.9 109 271.8C85.9002 271.8 62.7002 271.9 39.6002 272.1C38.5002 272.1 37.1002 272.5 37.0002 273.8C36.6002 274.9 38.0002 275.8 39.1002 275.8Z" fill="white"/>
</g>
<mask id="mask16_201_709" style="mask-type:luminance" maskUnits="userSpaceOnUse" x="51" y="51" width="398" height="398">
<path d="M250 448.5C359.629 448.5 448.5 359.629 448.5 250C448.5 140.371 359.629 51.5 250 51.5C140.371 51.5 51.5 140.371 51.5 250C51.5 359.629 140.371 448.5 250 448.5Z" fill="white"/>
</mask>
<g mask="url(#mask16_201_709)">
<path d="M31.2999 256.7C51.8999 254.2 72.5999 253.8 93.2999 253.7C113.8 253.6 134.4 253.6 154.9 253.5C195.9 253.4 236.9 252.6 277.9 254.6C288.2 255.1 298.4 255.8 308.6 256.8C313.8 257.3 318.9 257.9 324 258.5C326.4 258.8 328.7 259.1 331.1 259.4C331.7 259.5 332.4 259.6 333 259.7C333.2 259.7 334.8 259.8 334.9 260C335.2 260.4 335.5 260 334.6 260.7C334.2 261 333.8 261.3 333.3 261.5C331.7 262.1 329.6 262 327.9 262.1C325.2 262.2 322.4 262.4 319.7 262.5C314.7 262.8 309.6 263 304.6 263.3C294.2 263.8 283.8 264.4 273.4 264.9C232.2 266.9 191 268.7 149.7 269.8C108.4 270.9 66.9999 271.2 25.5999 270.2C20.5999 270.1 15.4999 270 10.4999 269.8C9.39988 269.8 8.19988 270.3 7.19988 270.7C6.89988 270.8 5.49988 271.5 6.49988 271.5C28.6999 272.2 50.8999 272.5 73.0999 272.5C95.1999 272.5 117.3 272.2 139.4 271.7C161.6 271.2 183.8 270.4 206 269.5C228.1 268.6 250.2 267.6 272.3 266.5C283.3 266 294.4 265.4 305.4 264.8C311 264.5 316.5 264.2 322.1 263.9C326.6 263.7 330.9 263.3 335.1 261.6C336.9 260.9 338.5 259.9 339.8 258.6C339.9 258.5 339.9 258.4 339.7 258.4C300.5 252.6 260.8 251.7 221.2 251.6C181.1 251.5 140.9 251.8 100.8 251.9C78.4999 252 56.2999 252.4 34.0999 255C32.9999 255.1 31.6999 255.5 30.6999 256.1C30.3999 256.5 30.3999 256.8 31.2999 256.7Z" fill="white"/>
</g>
<mask id="mask17_201_709" style="mask-type:luminance" maskUnits="userSpaceOnUse" x="51" y="51" width="398" height="398">
<path d="M250 448.5C359.629 448.5 448.5 359.629 448.5 250C448.5 140.371 359.629 51.5 250 51.5C140.371 51.5 51.5 140.371 51.5 250C51.5 359.629 140.371 448.5 250 448.5Z" fill="white"/>
</mask>
<g mask="url(#mask17_201_709)">
<path d="M54.4001 313.3C58.9001 310.3 64.2001 308.7 69.5001 307.8C75.4001 306.8 81.3001 306.5 87.3001 306.3C100.1 305.8 113.1 306.2 125.8 307.4C132.8 308.1 139.7 309.2 146.5 311.3C146.2 310.8 146 310.3 145.7 309.8C142.3 314.1 135.3 314.2 130.3 314.9C123.2 315.9 116 316.6 108.8 317.2C94.3001 318.4 79.7001 319.1 65.2001 320C57.0001 320.5 48.9001 321.1 40.7001 321.9C39.8001 322 38.1001 322.6 38.0001 323.6C37.8001 324.7 39.4001 324.9 40.1001 324.8C70.4001 321.8 101 321.8 131.2 317.6C138 316.7 145.6 315.7 150.2 310C150.8 309.3 150 308.7 149.4 308.5C136.8 304.6 123.5 303.9 110.5 303.4C103.5 303.2 96.6001 303.1 89.6001 303.3C83.2001 303.5 76.8001 303.8 70.5001 304.8C63.7001 305.9 57.1001 307.8 51.3001 311.6C50.5001 312.1 50.0001 313.1 50.9001 313.7C51.9001 314.3 53.5001 313.8 54.4001 313.3Z" fill="white"/>
</g>
<mask id="mask18_201_709" style="mask-type:luminance" maskUnits="userSpaceOnUse" x="51" y="51" width="398" height="398">
<path d="M250 448.5C359.629 448.5 448.5 359.629 448.5 250C448.5 140.371 359.629 51.5 250 51.5C140.371 51.5 51.5 140.371 51.5 250C51.5 359.629 140.371 448.5 250 448.5Z" fill="white"/>
</mask>
<g mask="url(#mask18_201_709)">
<path d="M33.1998 329.8C61.2998 329.8 89.3998 329.8 117.5 329.8C145.6 329.8 173.8 329.7 201.9 330.5C209.6 330.7 217.3 331 225 331.4C232.4 331.8 239.9 332.6 247 334.8C246.7 334.5 246.5 334.1 246.2 333.8C243.7 338.4 238.2 339.4 233.4 339.8C226.1 340.4 218.7 340.5 211.4 340.5C196.3 340.6 181.1 340.6 166 340.6C135.9 340.7 105.8 340.7 75.6998 340.8C58.6998 340.8 41.7998 340.9 24.7998 340.9C23.9998 340.9 22.1998 341 21.7998 342C21.4998 343 23.0998 343.2 23.6998 343.2C54.5998 343.1 85.5998 343.1 116.5 343C147.4 342.9 178.4 342.9 209.3 342.8C217.7 342.8 226.3 342.8 234.7 341.9C240.7 341.3 247.9 339.6 251 333.8C251.3 333.3 250.6 332.9 250.2 332.8C237.1 328.8 222.9 328.9 209.3 328.4C195.2 327.9 181.1 327.7 167 327.6C138.6 327.4 110.3 327.5 81.8998 327.5C65.9998 327.5 50.0998 327.5 34.0998 327.5C33.2998 327.5 31.4998 327.6 31.0998 328.6C30.9998 329.5 32.5998 329.8 33.1998 329.8Z" fill="white"/>
</g>
<mask id="mask19_201_709" style="mask-type:luminance" maskUnits="userSpaceOnUse" x="51" y="51" width="398" height="398">
<path d="M250 448.5C359.629 448.5 448.5 359.629 448.5 250C448.5 140.371 359.629 51.5 250 51.5C140.371 51.5 51.5 140.371 51.5 250C51.5 359.629 140.371 448.5 250 448.5Z" fill="white"/>
</mask>
<g mask="url(#mask19_201_709)">
<path d="M453.9 325.9C428.3 326.3 402.7 326.8 377 327.3C351.4 327.8 325.8 328.4 300.2 329.1C293 329.3 285.9 329.5 278.7 329.7C275.4 329.8 272 329.5 268.8 330.1C266.4 330.5 263.9 331.7 263.7 334.4C263.6 335.6 264.9 336.7 265.9 336.9C273.3 338.3 280.8 338.3 288.3 338.2C295.8 338.1 303.3 338.1 310.8 338C325.8 337.9 340.8 337.7 355.8 337.6C385.9 337.3 416.1 337.1 446.2 336.8C463.2 336.7 480.2 336.5 497.2 336.4C498.3 336.4 499.3 335.8 499.1 334.6C498.9 333.5 497.4 332.5 496.3 332.5C466.2 332.8 436.2 333 406.1 333.3C376 333.6 346 333.8 315.9 334.1C307.6 334.2 299.2 334.2 290.9 334.3C282.7 334.4 274.3 334.8 266.2 333.2C266.9 334 267.7 334.8 268.4 335.7C268.6 334.1 270.9 333.9 272.2 333.8C275.3 333.6 278.5 333.6 281.7 333.5C287.9 333.3 294 333.2 300.2 333C312.7 332.7 325.1 332.4 337.6 332.1C362.6 331.5 387.7 331 412.7 330.5C426.8 330.2 440.8 330 454.9 329.8C456 329.8 457 329.2 456.8 328C456.5 326.8 455 325.8 453.9 325.9Z" fill="white"/>
</g>
<mask id="mask20_201_709" style="mask-type:luminance" maskUnits="userSpaceOnUse" x="51" y="51" width="398" height="398">
<path d="M250 448.5C359.629 448.5 448.5 359.629 448.5 250C448.5 140.371 359.629 51.5 250 51.5C140.371 51.5 51.5 140.371 51.5 250C51.5 359.629 140.371 448.5 250 448.5Z" fill="white"/>
</mask>
<g mask="url(#mask20_201_709)">
<path d="M442.7 343.6C406.3 346.3 369.9 347.1 333.4 347.8C297 348.5 260.5 349.1 224.2 351.5C203.7 352.9 183.2 354.9 162.8 357.8C161.1 358.1 163.2 361.2 163.9 361.6C167.9 364.2 172.3 364.6 176.9 364.6C182.6 364.7 188.4 364.7 194.1 364.8C205.6 364.9 217.1 365 228.6 365.1C251.4 365.3 274.1 365.4 296.9 365.5C342.4 365.7 388 365.6 433.5 365.3C459.3 365.1 485 364.9 510.8 364.6C512.4 364.6 510.2 360.3 508.5 360.3C463.2 360.9 417.9 361.2 372.6 361.3C327.5 361.4 282.5 361.3 237.4 360.9C224.8 360.8 212.1 360.7 199.5 360.6C193.3 360.5 187.1 360.5 180.9 360.4C177.9 360.4 174.9 360.4 171.9 360.3C169.3 360.2 166.5 359.8 164.2 358.4C164.6 359.7 164.9 360.9 165.3 362.2C201.3 357 237.7 354.8 274.1 353.6C310.5 352.4 347 352.2 383.5 351.1C404.1 350.5 424.7 349.6 445.2 348C446.7 347.7 444.3 343.5 442.7 343.6Z" fill="white"/>
</g>
<mask id="mask21_201_709" style="mask-type:luminance" maskUnits="userSpaceOnUse" x="51" y="51" width="398" height="398">
<path d="M250 448.5C359.629 448.5 448.5 359.629 448.5 250C448.5 140.371 359.629 51.5 250 51.5C140.371 51.5 51.5 140.371 51.5 250C51.5 359.629 140.371 448.5 250 448.5Z" fill="white"/>
</mask>
<g mask="url(#mask21_201_709)">
<path d="M64.9 357.6C87.5 356.7 110.1 355.8 132.7 356.3C135.2 356.4 137.7 356.4 140.2 356.9C141.3 357.1 142.4 357.4 143.4 357.8C143.5 357.9 144.4 358.3 144.4 358.3C144.1 358.7 144.2 357.3 144.2 357.3C144 357.2 145.7 357 144 357.4C143.7 357.5 143.4 357.7 143.1 357.8C142.7 357.9 142.3 358 141.9 358C140.4 358.2 138.9 358.3 137.4 358.4C134.6 358.6 131.8 358.9 129 359.1C117.9 359.9 106.7 360.5 95.5 360.9C82.8 361.4 70.1 361.6 57.5 361.9C54.5 362 55.4 366.7 58 366.7C82.1 366.2 106.1 365.7 130.1 363.9C133.2 363.7 136.2 363.4 139.3 363.2C141.7 363 144.4 363.1 146.5 361.9C148.9 360.5 149.2 357.5 147.4 355.5C145.7 353.5 142.7 352.8 140.2 352.3C134.7 351.2 128.9 351.5 123.3 351.5C117.3 351.5 111.3 351.5 105.4 351.6C91.8 351.8 78.2 352.4 64.5 352.9C61.4 352.9 62.3 357.7 64.9 357.6Z" fill="white"/>
</g>
<mask id="mask22_201_709" style="mask-type:luminance" maskUnits="userSpaceOnUse" x="51" y="51" width="398" height="398">
<path d="M250 448.5C359.629 448.5 448.5 359.629 448.5 250C448.5 140.371 359.629 51.5 250 51.5C140.371 51.5 51.5 140.371 51.5 250C51.5 359.629 140.371 448.5 250 448.5Z" fill="white"/>
</mask>
<g mask="url(#mask22_201_709)">
<path d="M64.0001 370.5C97.2001 376 130.8 377.3 164.4 377.5C198.1 377.7 231.8 376.9 265.4 378.2C284.3 378.9 303.1 380.3 321.8 383C322.1 382.4 322.4 381.8 322.7 381.2C319.9 383.6 316.2 384.6 312.7 385.2C308.6 385.9 304.4 386.2 300.2 386.5C290.6 387.2 281 387.6 271.4 388C252.2 388.7 233.1 389.2 213.9 389.6C175.5 390.4 137 390.7 98.6001 390.6C77.0001 390.5 55.3001 390.3 33.7001 389.9C32.7001 389.9 31.6001 390.6 30.9001 391.2C30.8001 391.3 29.2001 392.9 30.0001 393C49.6001 393.3 69.2001 393.6 88.8001 393.7C108.5 393.8 128.2 393.8 147.9 393.6C167.6 393.4 187.3 393.2 207 392.8C226.7 392.4 246.3 391.9 266 391.2C275.7 390.9 285.4 390.4 295.1 389.8C303.3 389.2 312.1 389.1 319.5 385.2C321.3 384.2 323.1 383.1 324.6 381.8C324.7 381.7 326.4 380.2 325.5 380C292.3 375.3 258.6 374.5 225.1 374.5C191.4 374.5 157.6 375.2 123.9 373.4C105.1 372.4 86.3001 370.6 67.7001 367.5C66.7001 367.3 65.6001 368.3 64.9001 368.8C64.7001 368.9 63.1001 370.4 64.0001 370.5Z" fill="white"/>
</g>
<mask id="mask23_201_709" style="mask-type:luminance" maskUnits="userSpaceOnUse" x="51" y="51" width="398" height="398">
<path d="M250 448.5C359.629 448.5 448.5 359.629 448.5 250C448.5 140.371 359.629 51.5 250 51.5C140.371 51.5 51.5 140.371 51.5 250C51.5 359.629 140.371 448.5 250 448.5Z" fill="white"/>
</mask>
<g mask="url(#mask23_201_709)">
<path d="M393.6 405.3C358.6 405.5 323.5 405.8 288.5 406C253.7 406.2 218.8 406.5 184 406.7C164.8 406.8 145.2 406 126.1 409.4C126.1 409.4 125.5 409.5 125.8 409.6C132.6 414.2 141.9 413.7 149.7 414C159.1 414.3 168.4 414.6 177.8 414.8C196.7 415.3 215.7 415.7 234.6 416C253.4 416.3 272.3 416.5 291.1 416.7C309.9 416.8 328.8 416.9 347.6 416.8C366.5 416.8 385.5 416.6 404.4 416.4C406.7 416.4 409.1 416.3 411.4 416.3C412.3 416.3 412.3 416.1 411.5 415.8C410.4 415.4 409.1 415.3 408 415.3C371.4 415.8 334.9 415.9 298.3 415.7C261.7 415.5 225.2 415 188.6 414.1C178.3 413.9 168 413.6 157.7 413.3C152.6 413.2 147.6 413 142.5 412.8C138.2 412.7 134.2 412.6 130.5 410.1C130.4 410.2 130.3 410.3 130.2 410.3C147.1 407.3 164.5 407.8 181.6 407.7C199 407.6 216.4 407.5 233.9 407.4C268.7 407.2 303.6 406.9 338.4 406.7C357.9 406.6 377.4 406.4 396.9 406.3C397.8 406.3 397.8 406.1 397 405.8C396 405.4 394.7 405.2 393.6 405.3Z" fill="white"/>
</g>
<mask id="mask24_201_709" style="mask-type:luminance" maskUnits="userSpaceOnUse" x="51" y="51" width="398" height="398">
<path d="M250 448.5C359.629 448.5 448.5 359.629 448.5 250C448.5 140.371 359.629 51.5 250 51.5C140.371 51.5 51.5 140.371 51.5 250C51.5 359.629 140.371 448.5 250 448.5Z" fill="white"/>
</mask>
<g mask="url(#mask24_201_709)">
<path d="M414.4 375.4C391.2 375.5 368 376.5 344.8 378.3C340.9 378.6 334.3 378.4 333 383.1C332.8 383.8 333.7 384.9 334 385.3C334.5 386 335.1 386.7 335.8 387C341.1 388.9 346.6 389.6 352.2 390C358.1 390.4 364 390.7 369.9 390.9C381.7 391.3 393.6 391.4 405.4 391.2C412.1 391.1 418.8 390.8 425.5 390.5C426.3 390.5 425.3 388.9 425.2 388.6C424.9 388 423.8 386.4 423 386.4C399.3 387.6 375.5 387.5 351.8 386.1C345.5 385.7 339.2 385.1 333.3 382.9C334.2 384.2 335.2 385.5 336.1 386.8C337.2 382.7 343.2 382.7 346.5 382.5C352.2 382.1 357.9 381.7 363.6 381.3C374.9 380.6 386.1 380.1 397.4 379.9C403.9 379.7 410.3 379.6 416.8 379.6C417.6 379.6 416.6 377.9 416.5 377.7C416.2 377 415.2 375.4 414.4 375.4Z" fill="white"/>
</g>
<mask id="mask25_201_709" style="mask-type:luminance" maskUnits="userSpaceOnUse" x="51" y="51" width="398" height="398">
<path d="M250 448.5C359.629 448.5 448.5 359.629 448.5 250C448.5 140.371 359.629 51.5 250 51.5C140.371 51.5 51.5 140.371 51.5 250C51.5 359.629 140.371 448.5 250 448.5Z" fill="white"/>
</mask>
<g mask="url(#mask25_201_709)">
<path d="M399.6 396.1C375.3 396.3 351.1 396.3 326.8 396.2C320 396.2 313.2 396.1 306.4 396.1C305.3 396.1 303.8 396.6 303.3 397.7C302.8 398.8 303.9 399.4 304.8 399.4C335.9 401.4 367.1 402.9 398.3 403.9C407.1 404.2 415.9 404.4 424.7 404.6C425.8 404.6 427.3 404.1 427.8 403C428.3 401.9 427.3 401.3 426.3 401.3C395.1 400.6 363.9 399.4 332.8 397.6C324 397.1 315.2 396.6 306.5 396C306 397.1 305.5 398.2 304.9 399.3C329.2 399.5 353.4 399.5 377.7 399.4C384.5 399.4 391.3 399.3 398.1 399.3C399.2 399.3 400.7 398.8 401.2 397.7C401.6 396.8 400.6 396.1 399.6 396.1Z" fill="white"/>
</g>
<mask id="mask26_201_709" style="mask-type:luminance" maskUnits="userSpaceOnUse" x="51" y="51" width="398" height="398">
<path d="M250 448.5C359.629 448.5 448.5 359.629 448.5 250C448.5 140.371 359.629 51.5 250 51.5C140.371 51.5 51.5 140.371 51.5 250C51.5 359.629 140.371 448.5 250 448.5Z" fill="white"/>
</mask>
<g mask="url(#mask26_201_709)">
<path d="M131.3 426.3C151.2 427 171 427.8 190.9 428.5C210.7 429.2 230.6 429.8 250.4 431C261.6 431.7 272.8 432.6 284 433.9C283.9 432.7 283.7 431.4 283.6 430.2C280.3 432.4 276.4 433.3 272.5 433.8C268 434.3 263.4 434.4 258.8 434.5C249 434.7 239.2 434.5 229.3 434.5C209.6 434.5 189.9 435.1 170.3 436.2C159.1 436.8 147.9 437.6 136.8 438.6C134.1 438.8 133.4 443.1 136.6 442.8C156.5 441.1 176.5 439.9 196.5 439.3C206.5 439 216.5 438.8 226.5 438.8C236.5 438.8 246.5 439 256.5 438.8C261.7 438.7 267 438.6 272.1 438C276.9 437.5 281.7 436.2 285.8 433.4C287.3 432.4 287.5 429.9 285.4 429.7C265.7 427.4 245.9 426.3 226.1 425.5C206.3 424.7 186.4 424 166.5 423.3C155.2 422.9 144 422.5 132.7 422C131.5 422 130.2 422.8 129.8 424C129.4 425.2 130.1 426.2 131.3 426.3Z" fill="white"/>
</g>
<mask id="mask27_201_709" style="mask-type:luminance" maskUnits="userSpaceOnUse" x="51" y="51" width="398" height="398">
<path d="M250 448.5C359.629 448.5 448.5 359.629 448.5 250C448.5 140.371 359.629 51.5 250 51.5C140.371 51.5 51.5 140.371 51.5 250C51.5 359.629 140.371 448.5 250 448.5Z" fill="white"/>
</mask>
<g mask="url(#mask27_201_709)">
<path d="M368 427C346.5 425.8 324.9 426.5 303.5 429.3C297.4 430.1 291.4 431 285.4 432.1C284.7 432.2 285.3 433.2 285.5 433.4C286 434.2 286.8 434.7 287.7 435.1C293.9 438.2 300.9 439.4 307.8 439.7C315.1 440.1 322.5 439.8 329.8 439.8C345.6 439.7 361.4 439.6 377.3 439.5C386.1 439.4 395 439.4 403.8 439.3C404.9 439.3 404.3 438.2 403.9 437.7C403.3 436.9 402 435.9 401 435.9C385.5 436 370 436.1 354.5 436.2C339.3 436.3 324.1 436.7 308.9 436.4C301.3 436.3 293.6 435.6 286.7 432.2C287.5 433.2 288.2 434.3 289 435.3C310.1 431.5 331.5 429.6 352.9 429.7C358.9 429.7 365 429.9 371 430.3C372.1 430.4 371.5 429.2 371.1 428.7C370.3 428 369.1 427.1 368 427Z" fill="white"/>
</g>
</g>
<defs>
<clipPath id="clip0_201_709">
<rect width="500" height="500" fill="white"/>
</clipPath>
</defs>
</svg>
