<svg width="500" height="500" viewBox="0 0 500 500" fill="none" xmlns="http://www.w3.org/2000/svg">
<mask id="mask0_201_752" style="mask-type:luminance" maskUnits="userSpaceOnUse" x="51" y="51" width="398" height="398">
<path d="M250 448.5C359.629 448.5 448.5 359.629 448.5 250C448.5 140.371 359.629 51.5 250 51.5C140.371 51.5 51.5 140.371 51.5 250C51.5 359.629 140.371 448.5 250 448.5Z" fill="white"/>
</mask>
<g mask="url(#mask0_201_752)">
<path d="M461.8 154.5C448.3 157 434.9 160.4 422.1 165.3C409.5 170.1 397.3 176.5 386.8 185.1C381.6 189.4 376.9 194.2 372.7 199.5C368 205.5 364.2 212.2 360.6 218.8C356.8 225.6 353.1 232.5 348.5 238.8C344.5 244.3 339.3 249.7 332.7 251.9C327.2 253.7 320.6 252.9 316.4 248.7C312.8 245.1 312.1 238.5 314.8 234.2C315.4 233.2 316.2 232.4 317.2 231.8C318 231.3 318.7 230.3 317.8 229.5C317 228.7 315.3 228.8 314.3 229.4C309.2 232.5 307.1 238.8 308.7 244.6C310.4 250.9 316.2 254.9 322.5 255.9C329.9 257 337 254.7 342.9 250.3C349.1 245.7 353.7 239.2 357.7 232.7C361.9 225.9 365.5 218.7 369.6 211.7C373.4 205.3 377.7 199.2 382.9 193.9C392.6 184 404.4 176.6 417 171C429.8 165.3 443.4 161.6 457.1 158.8C458.8 158.5 460.5 158.1 462.2 157.8C463.1 157.6 464.6 157 464.5 155.8C464.3 154.6 462.6 154.3 461.8 154.5Z" fill="white"/>
</g>
<mask id="mask1_201_752" style="mask-type:luminance" maskUnits="userSpaceOnUse" x="51" y="51" width="398" height="398">
<path d="M250 448.5C359.629 448.5 448.5 359.629 448.5 250C448.5 140.371 359.629 51.5 250 51.5C140.371 51.5 51.5 140.371 51.5 250C51.5 359.629 140.371 448.5 250 448.5Z" fill="white"/>
</mask>
<g mask="url(#mask1_201_752)">
<path d="M284.9 264.1C284.3 258.7 290.8 255.1 295.5 256C297.9 256.5 299.8 257.9 300.5 260.1C301.5 262.9 301.4 266 300.7 268.8C298.8 275.7 293.2 281 287.9 285.5C282 290.5 275.6 294.8 268.8 298.3C255.6 305.1 240.7 308 228 315.5C216.2 322.5 207.3 334.2 204.2 347.6C203.5 350.5 203.3 353.7 204 356.6C204.9 359.9 207 363.3 209.9 365.1C212.5 366.7 215.9 366.7 218.6 365.5C221.6 364.2 223.6 361.4 224.7 358.4C225.3 356.8 225.6 355.2 225.8 353.5C225.9 352.6 225 351.4 224.4 350.7C224.3 350.5 222.9 349 222.8 349.7C222.5 353.1 221.4 356.5 219.1 359C216.9 361.4 213.5 362.7 210.2 362C209.5 361.9 208.8 361.6 208.2 361.2C207.9 361 207.6 360.8 207.3 360.5C207 360.2 207.4 360.6 207.4 360.6C206.9 359.4 206.7 357.9 206.7 356.6C206.7 353.3 207.5 350.1 208.6 347C210.8 340.5 214.4 334.5 219 329.4C223.8 324.1 229.7 320 236.1 316.9C242.8 313.6 249.9 311.3 256.9 308.8C264 306.2 271 303.2 277.5 299.3C284 295.4 290.2 290.8 295.6 285.5C300.2 281 304.6 275.1 304.6 268.3C304.6 262.2 301.1 255.2 295.5 252.4C291 250.2 284.7 252.4 282.7 257.1C282.2 258.3 282.1 259.5 282.3 260.7C282.4 261.8 283.4 262.9 284 263.6C284 264.2 285.1 265.1 284.9 264.1Z" fill="white"/>
</g>
<mask id="mask2_201_752" style="mask-type:luminance" maskUnits="userSpaceOnUse" x="51" y="51" width="398" height="398">
<path d="M250 448.5C359.629 448.5 448.5 359.629 448.5 250C448.5 140.371 359.629 51.5 250 51.5C140.371 51.5 51.5 140.371 51.5 250C51.5 359.629 140.371 448.5 250 448.5Z" fill="white"/>
</mask>
<g mask="url(#mask2_201_752)">
<path d="M210.1 392.8C212.7 389.6 212.9 385.2 211.3 381.5C209.5 377.3 205.4 375.1 201.2 374C196.8 372.8 192.1 372.8 187.9 374.8C183.9 376.8 180.8 380.2 178.7 384.1C176.2 388.8 175.6 394.2 173.8 399.2C172.3 403.4 170 407.3 167.2 410.8C161.3 418 153.4 423.2 144.9 426.8C133.5 431.6 121.2 433.5 109 435.3C108 435.5 109.4 436.1 109.7 436.2C110.6 436.6 112 437 113.1 436.9C131.9 434 151.8 430.8 166.6 417.8C169.8 415 172.7 411.7 175 408.1C177.5 404.3 179 400.1 180.2 395.7C181.4 391 182.6 386.4 185.4 382.4C187.9 378.9 191.4 376.1 195.7 375.1C197.4 374.7 199.6 374.4 201.2 375C203.2 375.8 204.9 377.5 206 379.3C208.2 383.1 208.2 388.1 205.3 391.6C205 391.9 207.4 392.6 207.6 392.7C208.1 392.8 209.7 393.3 210.1 392.8Z" fill="white"/>
</g>
<mask id="mask3_201_752" style="mask-type:luminance" maskUnits="userSpaceOnUse" x="51" y="51" width="398" height="398">
<path d="M250 448.5C359.629 448.5 448.5 359.629 448.5 250C448.5 140.371 359.629 51.5 250 51.5C140.371 51.5 51.5 140.371 51.5 250C51.5 359.629 140.371 448.5 250 448.5Z" fill="white"/>
</mask>
<g mask="url(#mask3_201_752)">
<path d="M454.6 175.6C447.9 175.6 442.1 179 436.7 182.6C430.9 186.5 425.3 190.7 420 195.2C417.6 197.3 415.1 199.5 412.8 201.7C410.5 204 408.3 206.5 406.9 209.5C404.8 214.1 404.9 220.6 409.5 223.7C413.5 226.4 421.6 228.2 424.5 223C424.7 222.6 420.2 220.7 419.7 221.6C418.8 223.4 417 224.4 415 224.6C414.8 224.6 414 224.5 413.9 224.6C414.1 224.5 414.6 225.1 414 224.6C413.2 223.9 412.5 223.3 411.9 222.4C409.1 217.9 410.7 212.1 413.5 208.1C416.8 203.3 421.6 199.4 426 195.7C430.7 191.8 435.6 188.1 440.7 184.6C446.1 181 451.9 177.3 458.6 177.3C459.7 177.3 458.1 176.4 457.9 176.4C456.9 175.9 455.7 175.6 454.6 175.6Z" fill="white"/>
</g>
<mask id="mask4_201_752" style="mask-type:luminance" maskUnits="userSpaceOnUse" x="51" y="51" width="398" height="398">
<path d="M250 448.5C359.629 448.5 448.5 359.629 448.5 250C448.5 140.371 359.629 51.5 250 51.5C140.371 51.5 51.5 140.371 51.5 250C51.5 359.629 140.371 448.5 250 448.5Z" fill="white"/>
</mask>
<g mask="url(#mask4_201_752)">
<path d="M415.5 243C415.2 237.9 411.5 234.2 406.9 232.4C401.3 230.3 395.5 231.4 390.4 234.2C384.9 237.2 380.7 242.1 376.9 247C373.3 251.7 369.9 256.6 366.7 261.6C353.8 281.7 343.1 304 325.6 320.7C323.2 323 320.6 325.3 317.8 327.3C315.2 329.2 312.3 330.9 309.1 331.3C306.1 331.7 302.6 331 300.7 328.4C299.5 326.7 299 323.3 301.1 322.1C301.8 321.7 302.8 320.6 302 319.8C301.2 319 299.5 319.7 298.8 320.2C296.4 321.6 294.9 324.1 295 326.9C295.1 329.6 296.7 331.8 299 333.1C304.7 336.4 311.9 334.1 317.2 331C322.6 327.8 327.4 323.3 331.8 318.8C336 314.4 339.8 309.8 343.4 304.9C350.7 295 356.9 284.3 363.2 273.8C369.5 263.3 375.9 252.5 384 243.3C387.8 238.9 393.2 234.1 399.4 234.5C404.6 234.9 410.3 238.5 410.6 244.2C410.9 246.4 415.6 244.8 415.5 243Z" fill="white"/>
</g>
<mask id="mask5_201_752" style="mask-type:luminance" maskUnits="userSpaceOnUse" x="51" y="51" width="398" height="398">
<path d="M250 448.5C359.629 448.5 448.5 359.629 448.5 250C448.5 140.371 359.629 51.5 250 51.5C140.371 51.5 51.5 140.371 51.5 250C51.5 359.629 140.371 448.5 250 448.5Z" fill="white"/>
</mask>
<g mask="url(#mask5_201_752)">
<path d="M275.1 341.3C276.4 339.5 278.4 337.7 280.7 337.5C280.2 337.6 281.1 337.6 281.2 337.6C281.7 337.7 282.2 337.9 282.7 338.1C283.9 338.6 284.9 339.4 285.8 340.3C289.3 343.9 289.2 349.2 286.6 353.3C283.9 357.6 279.4 360.5 275.4 363.4C270.7 366.8 266.1 370.3 261.6 374C252.5 381.4 243.9 389.4 235.7 397.8C231.6 402.1 227.6 406.5 223.8 411C220.4 415 216.7 419.6 217.3 425.2C218 431.7 224.9 433.9 230.5 433.8C233.7 433.8 237.1 433.2 239.6 431.1C241.7 429.4 243 426.8 242.8 424.2C242.7 423.3 237.8 423.6 237.8 424.5C238 427 236.8 429.4 234.9 431C232.9 432.7 231 433 228.6 432.2C226.1 431.4 223.8 429.8 222.8 427.2C221.9 424.8 222.1 422 222.9 419.6C223.9 416.8 225.7 414.5 227.5 412.3C229.3 410.1 231.2 407.9 233.2 405.7C237.1 401.3 241.1 397.1 245.3 392.9C253.6 384.7 262.3 377 271.5 369.8C275.9 366.4 280.5 363.3 284.8 359.9C288.4 357.1 292.2 353.5 293.1 348.8C294.1 343.6 290.8 338.4 285.8 336.9C280.5 335.3 273.5 336.6 270.2 341.3C269.8 341.9 271.7 341.9 272 341.9C272.7 341.9 274.6 342 275.1 341.3Z" fill="white"/>
</g>
<mask id="mask6_201_752" style="mask-type:luminance" maskUnits="userSpaceOnUse" x="51" y="51" width="398" height="398">
<path d="M250 448.5C359.629 448.5 448.5 359.629 448.5 250C448.5 140.371 359.629 51.5 250 51.5C140.371 51.5 51.5 140.371 51.5 250C51.5 359.629 140.371 448.5 250 448.5Z" fill="white"/>
</mask>
<g mask="url(#mask6_201_752)">
<path d="M190.6 465.2C193.7 459.3 198.6 454.4 204.5 451.1C207.4 449.5 210.5 448.3 213.7 447.7C216.8 447.1 220.6 446.5 223.4 448.4C226.3 450.5 226.4 454.9 224.5 457.6C223.9 458.5 224.2 459.5 225.3 459.8C226.4 460.1 228 459.6 228.6 458.6C230.8 455.4 231.4 451 229.2 447.6C226.7 443.8 221.6 443.4 217.5 443.8C209.1 444.6 200.9 448.4 194.7 454C191.2 457.2 188.3 460.9 186.1 465.1C185.5 466.2 186.8 466.9 187.7 466.9C188.8 466.9 190 466.3 190.6 465.2Z" fill="white"/>
</g>
<mask id="mask7_201_752" style="mask-type:luminance" maskUnits="userSpaceOnUse" x="51" y="51" width="398" height="398">
<path d="M250 448.5C359.629 448.5 448.5 359.629 448.5 250C448.5 140.371 359.629 51.5 250 51.5C140.371 51.5 51.5 140.371 51.5 250C51.5 359.629 140.371 448.5 250 448.5Z" fill="white"/>
</mask>
<g mask="url(#mask7_201_752)">
<path d="M256.1 460.4C259.3 444.1 264.3 428.2 270.9 413C272.6 409.2 274.3 405.5 276.2 401.8C277.8 398.6 279.6 395.3 281.9 392.5C284.1 389.7 286.8 387.4 290.1 386.1C292.8 385.1 296.3 384.6 299 385.9C300.3 386.5 300.8 387 301.4 388.2C302 389.4 302.2 390.7 302.2 392C302.2 394.7 300.9 397.4 298.3 398.4C296.5 399.1 300 402.6 301.7 401.9C307.5 399.5 307.5 391.7 304.4 387.2C300 380.7 290.8 380.1 284.3 383.7C277.2 387.8 273.5 395.9 270.1 403C266.2 411.2 262.7 419.6 259.8 428.1C256.5 437.9 253.8 447.8 251.8 458C251.5 459.8 255.7 462.4 256.1 460.4Z" fill="white"/>
</g>
<mask id="mask8_201_752" style="mask-type:luminance" maskUnits="userSpaceOnUse" x="51" y="51" width="398" height="398">
<path d="M250 448.5C359.629 448.5 448.5 359.629 448.5 250C448.5 140.371 359.629 51.5 250 51.5C140.371 51.5 51.5 140.371 51.5 250C51.5 359.629 140.371 448.5 250 448.5Z" fill="white"/>
</mask>
<g mask="url(#mask8_201_752)">
<path d="M325.1 388.4C320.5 386.4 317.6 381.6 316.9 376.7C316.1 371 318.1 365.4 321.5 360.8C325.2 355.7 330.4 352 335.8 349C341.8 345.7 348 343 354.1 339.8C366.3 333.5 378.1 326.3 389.3 318.3C394.9 314.3 400.2 310 405.4 305.5C410 301.5 415.2 296.9 416.7 290.6C418.1 284.7 415.8 277.3 409.3 275.6C404.1 274.3 397 277.7 397.2 283.7C397.3 286.4 402.3 286.3 402.2 283.5C402.2 281.7 403.4 280.4 405 279.8C406.4 279.3 408 279.3 409.3 280.4C413.3 283.5 412.5 289.7 410.3 293.6C407.2 298.9 401.8 302.9 397.1 306.8C392 311 386.6 315 381.2 318.8C370.3 326.3 358.7 332.9 346.8 338.8C335.6 344.3 323.2 349.5 316.2 360.5C312.7 365.9 311.1 372.3 312.4 378.7C313.6 384.5 317.4 389.8 322.9 392.2C324 392.7 325.6 392.4 326.3 391.3C326.8 390.2 326.2 388.9 325.1 388.4Z" fill="white"/>
</g>
<mask id="mask9_201_752" style="mask-type:luminance" maskUnits="userSpaceOnUse" x="51" y="51" width="398" height="398">
<path d="M250 448.5C359.629 448.5 448.5 359.629 448.5 250C448.5 140.371 359.629 51.5 250 51.5C140.371 51.5 51.5 140.371 51.5 250C51.5 359.629 140.371 448.5 250 448.5Z" fill="white"/>
</mask>
<g mask="url(#mask9_201_752)">
<path d="M414.8 266.6C416.7 271 419.2 276.1 423.7 278.2C429.3 280.8 435.4 277.8 439.6 274C444 270.1 447.1 265.1 450 260.1C453.5 254.1 457.1 248.1 460.6 242.2C464.6 235.4 468.7 228.5 472.7 221.7C473.3 220.7 472.7 219.5 471.6 219.3C470.4 219 469 219.7 468.4 220.8C461.8 231.9 455.3 243 448.7 254.1C445.9 258.8 443.3 263.8 439.9 268C437.3 271.2 432.8 276 428.1 275.1C423.4 274.2 420.9 268.5 419.3 264.6C418.4 262.3 413.8 264.3 414.8 266.6Z" fill="white"/>
</g>
<mask id="mask10_201_752" style="mask-type:luminance" maskUnits="userSpaceOnUse" x="51" y="51" width="398" height="398">
<path d="M250 448.5C359.629 448.5 448.5 359.629 448.5 250C448.5 140.371 359.629 51.5 250 51.5C140.371 51.5 51.5 140.371 51.5 250C51.5 359.629 140.371 448.5 250 448.5Z" fill="white"/>
</mask>
<g mask="url(#mask10_201_752)">
<path d="M461.4 291.3C448.4 302.8 433.7 312.4 418 319.8C410.5 323.3 402.5 325.9 395.1 329.8C388.8 333.1 380.7 338.9 380.9 346.9C380.9 348.9 381.7 350.7 383 352.2C384.3 353.8 386 355.4 387.8 356.4C390.4 357.8 394 358 395.7 355.2C396.1 354.5 392.2 351.5 392.1 351.7C390.6 354 387.8 354.3 385.5 353.3C385.2 353.2 385 353 384.7 352.9C383.6 352.4 385.6 353.6 385.4 353.7C385.3 353.7 384.8 352.3 384.7 352C384.2 350.2 384.5 348.2 385.1 346.5C387.6 339.6 394.7 335.2 401 332.2C408 328.9 415.3 326.4 422.3 323C429.5 319.6 436.5 315.7 443.2 311.3C450.8 306.4 458.1 300.9 464.9 294.9C465.3 294.5 461.9 290.9 461.4 291.3Z" fill="white"/>
</g>
<mask id="mask11_201_752" style="mask-type:luminance" maskUnits="userSpaceOnUse" x="51" y="51" width="398" height="398">
<path d="M250 448.5C359.629 448.5 448.5 359.629 448.5 250C448.5 140.371 359.629 51.5 250 51.5C140.371 51.5 51.5 140.371 51.5 250C51.5 359.629 140.371 448.5 250 448.5Z" fill="white"/>
</mask>
<g mask="url(#mask11_201_752)">
<path d="M385.5 367.9C384 363.2 382.2 358.9 377.7 356.5C375.5 355.3 372.8 354.4 370.3 354.7C368.3 355 366.6 356.1 365.1 357.5C361.7 360.8 359.2 365.1 357 369.3C354.8 373.6 352.8 378.1 350.7 382.5C342.4 399.9 332.5 417.4 316.8 429.1C308.7 435.1 299.3 439.6 289.2 440.8C288.2 440.9 289.4 441.7 289.7 441.9C290.6 442.4 291.9 443.1 293 442.9C310.1 440.8 324.9 430.3 335.6 417.2C341.6 409.9 346.5 401.8 350.8 393.4C353 389.2 355 384.9 357.1 380.6C359.1 376.4 360.9 372.2 363.2 368.2C364.4 366 365.8 363.8 367.4 361.8C368.9 359.9 370.6 358 372.9 357.1C373.4 356.9 373.9 356.7 374.5 356.7C374.6 356.7 375.7 356.8 375.4 356.6C376.2 356.9 377.2 358.1 377.8 358.9C379.3 361.1 380.1 363.7 380.9 366.2C381.2 367 382.9 367.5 383.6 367.7C383.9 368.1 385.8 368.6 385.5 367.9Z" fill="white"/>
</g>
<mask id="mask12_201_752" style="mask-type:luminance" maskUnits="userSpaceOnUse" x="51" y="51" width="398" height="398">
<path d="M250 448.5C359.629 448.5 448.5 359.629 448.5 250C448.5 140.371 359.629 51.5 250 51.5C140.371 51.5 51.5 140.371 51.5 250C51.5 359.629 140.371 448.5 250 448.5Z" fill="white"/>
</mask>
<g mask="url(#mask12_201_752)">
<path d="M442.4 348.8C436.5 348.2 430.8 350.1 425.2 352C420.2 353.7 415.1 355.5 410.8 358.6C407 361.4 403.7 365.6 402.8 370.4C402.3 373.2 402.7 375.7 404.8 377.7C406.7 379.4 409.3 380.6 411.9 380.7C417.6 381 422 376.5 422 370.8C422 369.3 418.1 366.5 418.1 368.7C418.1 372.8 414.8 376.4 410.8 376.8C409.9 376.9 408.9 376.8 408 376.6C407.6 376.5 407.1 376.3 406.7 376.1C406.6 376.1 406.5 375.9 406.4 375.9C405.9 375.7 406.6 376 406.6 376C406.7 375.6 406.6 374.8 406.6 374.4C406.6 374 406.7 373.5 406.8 373.1C407 372 407.3 371 407.8 370C411.4 361.7 420.6 358.3 428.5 355.7C433.7 354 439.1 352.1 444.7 352.7C445.8 352.8 445.5 351.5 445.1 350.9C444.6 350 443.5 348.9 442.4 348.8Z" fill="white"/>
</g>
<mask id="mask13_201_752" style="mask-type:luminance" maskUnits="userSpaceOnUse" x="51" y="51" width="398" height="398">
<path d="M250 448.5C359.629 448.5 448.5 359.629 448.5 250C448.5 140.371 359.629 51.5 250 51.5C140.371 51.5 51.5 140.371 51.5 250C51.5 359.629 140.371 448.5 250 448.5Z" fill="white"/>
</mask>
<g mask="url(#mask13_201_752)">
<path d="M393.4 403.4C395.6 398.9 392.7 393.8 388.5 391.9C383.3 389.6 376.8 390.6 371.8 393.2C366.9 395.7 363.7 400 362.4 405.3C361 410.9 361.2 416.7 359.8 422.3C358.3 428.7 355.7 434.7 352.1 440.2C351.5 441 353.6 441.2 354 441.2C355 441.2 356.4 441 357 440.1C359.8 435.8 362 431.1 363.6 426.2C365.1 421.3 365.8 416.4 366.3 411.4C366.8 406.6 367.6 401.4 371 397.7C373.8 394.6 378.1 392.3 382.3 393C387 393.8 390.9 399 388.6 403.7C387.9 404.8 392.7 404.8 393.4 403.4Z" fill="white"/>
</g>
<mask id="mask14_201_752" style="mask-type:luminance" maskUnits="userSpaceOnUse" x="51" y="51" width="398" height="398">
<path d="M250 448.5C359.629 448.5 448.5 359.629 448.5 250C448.5 140.371 359.629 51.5 250 51.5C140.371 51.5 51.5 140.371 51.5 250C51.5 359.629 140.371 448.5 250 448.5Z" fill="white"/>
</mask>
<g mask="url(#mask14_201_752)">
<path d="M363.6 139.8C363.2 137.7 362.9 135 364 133C365.1 131 367.6 130.9 368.9 132.8C371.7 137.1 369.5 143.5 366.5 147.1C362.6 151.9 356.6 154.3 351.1 156.5C345.1 158.9 339.2 161.5 333.5 164.5C321.8 170.6 310.8 177.9 300.8 186.3C292.8 193 280.4 202.8 284.9 214.8C287 220.3 292.5 225.2 298.7 223.7C304.5 222.3 308.1 216.1 309.7 210.9C310.2 209.2 306.4 206.1 305.8 208C304.3 212.7 301.2 218.3 296.1 219.7C291.5 221 288.6 217.6 288.1 213.3C287.4 207.3 291.4 202.1 295.3 198.1C299.8 193.5 304.8 189.4 309.8 185.5C320.2 177.4 331.5 170.5 343.5 165C349.2 162.3 355.3 160.3 360.9 157.5C366.2 154.8 371 151.1 373.1 145.4C375.3 139.3 373.7 131.6 367.6 128.4C365 127 361.7 127.2 360.2 130C358.9 132.3 359.2 135.4 359.6 137.9C359.8 139.1 360.6 140.1 361.7 140.6C362.3 140.7 363.9 141 363.6 139.8Z" fill="white"/>
</g>
<mask id="mask15_201_752" style="mask-type:luminance" maskUnits="userSpaceOnUse" x="51" y="51" width="398" height="398">
<path d="M250 448.5C359.629 448.5 448.5 359.629 448.5 250C448.5 140.371 359.629 51.5 250 51.5C140.371 51.5 51.5 140.371 51.5 250C51.5 359.629 140.371 448.5 250 448.5Z" fill="white"/>
</mask>
<g mask="url(#mask15_201_752)">
<path d="M381.1 117.3C380.1 120.6 379.7 123.9 382.5 126.4C384.8 128.6 388.5 130.1 391.7 130.5C398.6 131.3 403.3 125.1 406 119.5C407.9 115.5 409.5 111.3 412.1 107.7C412.2 107.5 408.1 105 407.5 105.7C402.8 112 401.6 120.6 395.4 125.7C394.1 126.8 392.5 127.7 390.8 128.1C390 128.3 389.2 128.4 388.5 128.3C388.1 128.3 387.8 128.2 387.4 128.2C387.1 128.1 386 128.1 387.4 128.3C387.8 128.4 387.3 128.2 387.2 128.1C386.9 127.9 386.6 127.6 386.3 127.3C385.9 126.8 385.5 126.2 385.2 125.6C384.4 123.5 385.1 121.3 385.7 119.2C385.9 118.6 381.2 116.9 381.1 117.3Z" fill="white"/>
</g>
<mask id="mask16_201_752" style="mask-type:luminance" maskUnits="userSpaceOnUse" x="51" y="51" width="398" height="398">
<path d="M250 448.5C359.629 448.5 448.5 359.629 448.5 250C448.5 140.371 359.629 51.5 250 51.5C140.371 51.5 51.5 140.371 51.5 250C51.5 359.629 140.371 448.5 250 448.5Z" fill="white"/>
</mask>
<g mask="url(#mask16_201_752)">
<path d="M276.3 241.5C279.1 240 280.4 236.7 281.6 233.9C283.1 230.7 284.3 227.3 284.2 223.7C284.1 221 283 218.4 281.2 216.4C279.2 214.2 276 212.2 272.9 211.8C267.1 211.2 263.2 217 260.5 221.2C257.1 226.5 253.3 231.6 249.2 236.4C240.9 246 231.3 254.4 220.7 261.4C215.3 264.9 209.7 268.1 203.8 270.8C197.7 273.6 191 276.7 184.1 277C181.4 277.2 177.6 277 175.3 275.2C172.8 273.2 171.5 269.7 171.8 266.6C172 263.6 173.6 260.7 176.4 259.5C177.6 259 178.9 258.8 180.2 258.9C180.6 258.9 181.6 259.3 181.9 259.2C181.7 259.3 181.3 258.7 181.2 258.8C181.2 258.9 181.7 259.5 181.8 259.7C182.3 260.6 183.4 261.2 184.2 261.6C184.4 261.7 186.3 262.4 186 262C184.5 259.4 181.6 257.5 178.8 256.6C176.4 255.8 173.9 255.9 171.6 257.1C166.2 259.9 166.5 267.4 169.6 271.7C173.4 277 180.8 280 187.2 279.8C194.4 279.6 201.5 276.4 207.9 273.4C219.9 267.8 231 260.5 240.8 251.7C245.7 247.3 250.4 242.5 254.6 237.4C256.7 234.9 258.7 232.2 260.7 229.5C262.6 226.9 264.2 224.1 266.1 221.5C267.9 218.9 270.2 216 273.4 214.9C274.1 214.7 274.9 214.5 275.6 214.5C276 214.5 276.3 214.5 276.7 214.6C276.9 214.6 277.1 214.7 277.3 214.7C277.6 214.8 277.5 214.7 276.9 214.4C276.6 214.3 277.1 214.6 277.2 214.7C277.5 215 277.8 215.4 278 215.8C278.4 216.5 278.8 217.2 279.1 218C280.4 221.8 279.3 225.9 277.8 229.5C276.5 232.7 275 237 271.8 238.8C271.4 239 273.5 240.5 273.7 240.6C274.5 241 275.7 241.9 276.3 241.5Z" fill="white"/>
</g>
<mask id="mask17_201_752" style="mask-type:luminance" maskUnits="userSpaceOnUse" x="51" y="51" width="398" height="398">
<path d="M250 448.5C359.629 448.5 448.5 359.629 448.5 250C448.5 140.371 359.629 51.5 250 51.5C140.371 51.5 51.5 140.371 51.5 250C51.5 359.629 140.371 448.5 250 448.5Z" fill="white"/>
</mask>
<g mask="url(#mask17_201_752)">
<path d="M144.4 280.2C147.3 276.6 151.6 274.1 156.1 273.4C157 273.3 158 273.2 158.9 273.2C159.4 273.2 159.9 273.3 160.5 273.4C160.7 273.4 161.1 273.6 161.3 273.6C161.1 273.6 160.2 272.9 160.5 273.3C161.2 274.1 162 274.6 162.7 275.6C163.5 276.7 164 278 164.3 279.3C165.4 284.6 163.2 289.7 160 293.8C156.3 298.4 151.6 302.4 147.1 306.1C137.9 313.7 127.9 320.2 117.3 325.6C106.8 330.9 95.8 335.6 86.7 343.2C77.8 350.6 70.6 361.4 71 373.4C71 374 72.7 374.6 73.1 374.8C73.3 374.9 75.5 375.7 75.5 375.5C75.1 364.2 81.5 353.9 89.7 346.5C99 338.2 110.6 333.3 121.6 327.7C132.9 322 143.5 315 153.2 306.8C157.8 302.9 162.7 298.8 166.1 293.7C169 289.2 170.5 283.4 167.9 278.4C166.6 275.7 164.1 274 161.5 272.7C159 271.5 156.4 270.7 153.6 270.8C148.4 271 143.3 273.9 140.1 277.9C139.8 278.2 143.9 280.9 144.4 280.2Z" fill="white"/>
</g>
<mask id="mask18_201_752" style="mask-type:luminance" maskUnits="userSpaceOnUse" x="51" y="51" width="398" height="398">
<path d="M250 448.5C359.629 448.5 448.5 359.629 448.5 250C448.5 140.371 359.629 51.5 250 51.5C140.371 51.5 51.5 140.371 51.5 250C51.5 359.629 140.371 448.5 250 448.5Z" fill="white"/>
</mask>
<g mask="url(#mask18_201_752)">
<path d="M97.5 400.7C99.4 385.1 106.9 370.5 117.7 359.2C122.8 353.9 128.7 349.3 135.3 345.9C138.6 344.2 142.1 342.9 145.7 341.8C149.8 340.6 154.9 338.9 158.8 341.5C162.9 344.2 164 349.5 162.4 354C162 355.2 161.4 356.3 160.7 357.3C160.3 357.8 159.9 358.3 159.5 358.7C159.4 358.8 159.2 358.9 159.1 359C158.8 359.5 160.3 358.6 159.7 358.7C157.6 359.1 155.8 359.3 154.2 357.5C153.7 356.9 149.7 359.8 149.8 359.9C153 363.6 158.7 360.3 161.8 358.2C165.7 355.5 168.2 350.5 167.4 345.7C166.6 341 162.7 337.6 157.9 337.7C155.4 337.8 152.9 338.4 150.5 339.1C148.4 339.7 146.3 340.4 144.2 341.2C127.2 347.6 112.2 359.7 102.8 375.3C97.7 383.8 94.3 393.3 93.1 403.2C93.1 403.3 95.3 402.4 95.4 402.3C96 401.9 97.5 401.3 97.5 400.7Z" fill="white"/>
</g>
<mask id="mask19_201_752" style="mask-type:luminance" maskUnits="userSpaceOnUse" x="51" y="51" width="398" height="398">
<path d="M250 448.5C359.629 448.5 448.5 359.629 448.5 250C448.5 140.371 359.629 51.5 250 51.5C140.371 51.5 51.5 140.371 51.5 250C51.5 359.629 140.371 448.5 250 448.5Z" fill="white"/>
</mask>
<g mask="url(#mask19_201_752)">
<path d="M189.3 330.1C188.2 332.5 186.4 334.7 184.2 336.1C183.7 336.4 183.1 336.8 182.6 337C182.3 337.1 182 337.3 181.7 337.4C181.5 337.5 180.6 337.6 181.3 337.8C180.7 337.6 180 336.3 179.7 335.7C177.6 332 177.9 327 179.4 323.1C183.3 312.6 194.6 308.7 204.5 305.7C216.4 302.1 228.1 297.9 239.4 292.7C245.3 290 251 287.1 256.7 284C261.1 281.6 266.4 279 269 274.5C272.2 269.1 269.1 263.2 264 260.4C261.5 259 258.5 258.6 255.8 259.8C253.2 260.9 251.3 263.3 250.8 266C250.5 267.4 254.7 269.9 255 268.4C255.5 265.9 257.4 263.8 259.7 262.9C261.4 262.2 263.7 262.1 264.9 263.6C268.3 267.7 264.5 273 261.2 275.7C259.1 277.4 256.6 278.8 254.3 280.1C251.5 281.7 248.7 283.2 245.8 284.7C240.2 287.6 234.5 290.2 228.7 292.7C222.9 295.1 217 297.4 211.1 299.4C205.6 301.3 199.9 302.7 194.4 304.7C189.3 306.5 184.3 309 180.3 312.8C177 315.9 174.9 320.3 174.3 324.7C173.6 329.9 175.2 335 179.1 338.6C180.3 339.7 181.9 340.9 183.7 341C185.2 341.1 186.6 340.3 187.8 339.5C190.3 337.9 192.3 335.7 193.5 333C194 331.6 189.8 328.9 189.3 330.1Z" fill="white"/>
</g>
<mask id="mask20_201_752" style="mask-type:luminance" maskUnits="userSpaceOnUse" x="51" y="51" width="398" height="398">
<path d="M250 448.5C359.629 448.5 448.5 359.629 448.5 250C448.5 140.371 359.629 51.5 250 51.5C140.371 51.5 51.5 140.371 51.5 250C51.5 359.629 140.371 448.5 250 448.5Z" fill="white"/>
</mask>
<g mask="url(#mask20_201_752)">
<path d="M424 124.3C411.5 141.9 395.4 156.8 376.9 167.9C367.7 173.4 358 178 347.9 181.6C340.1 184.3 325.6 186.5 326.6 197.7C327.1 202.7 331.7 208.2 337.2 207C342.2 205.9 345.1 199.6 341.8 195.4C341.1 194.5 339.8 193.6 338.7 194.2C337.6 194.7 337.8 196.2 338.4 197C338.8 197.5 338.9 197.8 338.8 198.5C338.7 199.3 338.4 200.1 337.9 200.8C337 202 335.5 203.2 333.9 202.9C332.5 202.7 331.8 201.7 331.3 200.4C330.7 198.8 330.8 197 331.5 195.4C333.3 191.6 337.8 189.9 341.6 188.7C346.2 187.2 350.8 185.8 355.4 184.1C373.9 177 391 166.3 405.6 152.9C413.8 145.4 421.2 137 427.6 128C428.3 127 427.9 125.8 427 125C426.4 124.1 424.7 123.3 424 124.3Z" fill="white"/>
</g>
<mask id="mask21_201_752" style="mask-type:luminance" maskUnits="userSpaceOnUse" x="51" y="51" width="398" height="398">
<path d="M250 448.5C359.629 448.5 448.5 359.629 448.5 250C448.5 140.371 359.629 51.5 250 51.5C140.371 51.5 51.5 140.371 51.5 250C51.5 359.629 140.371 448.5 250 448.5Z" fill="white"/>
</mask>
<g mask="url(#mask21_201_752)">
<path d="M376.7 81.8002C367 95.7002 356.4 109.2 344.5 121.3C334.1 131.8 321.8 141.3 307.2 144.9C306.2 145.1 305.2 145.4 304.2 145.5C303.7 145.6 303.2 145.7 302.6 145.7C302.5 145.7 302.1 145.7 302.1 145.8C302.6 145.3 303.9 147.2 303.5 145.8C303 143.9 302.9 141.7 303 139.7C303.3 135.5 304.9 131.3 307.6 128C306.4 127.8 305.1 127.6 303.9 127.4C305.6 128.5 306.6 130.1 307 132.1C307.3 133.7 312.1 134.8 311.7 133.2C311.1 130.4 309.3 128 306.9 126.4C306.2 126 304 124.9 303.2 125.8C300.6 128.9 298.9 132.6 298.3 136.6C298 138.6 298 140.6 298.2 142.6C298.5 144.7 298.9 146.7 300.9 147.8C303 149 305.2 148.6 307.5 148.2C309.5 147.8 311.4 147.4 313.3 146.8C317.1 145.7 320.8 144.1 324.4 142.2C339.2 134.4 350.9 121.9 361.6 109.2C368.5 101 375.1 92.4002 381.3 83.5002C382.2 82.4002 377.7 80.3002 376.7 81.8002Z" fill="white"/>
</g>
<mask id="mask22_201_752" style="mask-type:luminance" maskUnits="userSpaceOnUse" x="51" y="51" width="398" height="398">
<path d="M250 448.5C359.629 448.5 448.5 359.629 448.5 250C448.5 140.371 359.629 51.5 250 51.5C140.371 51.5 51.5 140.371 51.5 250C51.5 359.629 140.371 448.5 250 448.5Z" fill="white"/>
</mask>
<g mask="url(#mask22_201_752)">
<path d="M280.9 147.5C281.6 145.8 283 144.8 284.7 144.5C285.4 144.4 286.2 144.4 286.9 144.5C287 144.5 287.3 144.6 287.4 144.6L286.9 144.4C286.9 144.4 287.3 144.8 287.4 144.9C290.4 148.6 288.7 154.3 286 157.6C282.6 161.6 277.6 163.6 272.9 165.7C267.5 168.2 262.1 170.7 256.7 173.1C247.1 177.5 237.4 182 228.4 187.8C224 190.6 219.8 193.7 215.9 197.3C212.3 200.5 208.4 204.4 207.7 209.4C207.4 211.6 207.8 214 208.9 216C210.2 218.3 212.5 219.8 215 220.7C217.1 221.5 219.5 221.7 221.6 220.7C223.4 219.8 224.7 218.2 224.7 216.2C224.7 215.4 223.3 214.9 222.7 214.6C222.5 214.5 220.2 213.6 220.2 214.1C220.2 216 219 217.6 217.4 218.4C216.7 218.8 215.8 219 215 219.1C214.9 219.1 213.8 219 213.8 219C212.7 220.1 214.6 219.1 214.8 219.4C214.7 219.3 214.2 218.9 214.1 218.8C211 215.3 212 209.9 214.3 206.3C217 202 221.3 198.5 225.3 195.4C229.5 192.1 234 189.3 238.6 186.6C248.1 181.2 258.1 176.8 268 172.3C273.1 169.9 278.5 167.8 283.4 165.1C287.6 162.8 291.5 159.7 292.8 154.9C293.4 152.6 293.4 150 292.3 147.8C291.2 145.7 289.2 144.3 287 143.4C283.5 141.8 277.9 141.2 276.1 145.5C276 146.2 280.6 148.2 280.9 147.5Z" fill="white"/>
</g>
<mask id="mask23_201_752" style="mask-type:luminance" maskUnits="userSpaceOnUse" x="51" y="51" width="398" height="398">
<path d="M250 448.5C359.629 448.5 448.5 359.629 448.5 250C448.5 140.371 359.629 51.5 250 51.5C140.371 51.5 51.5 140.371 51.5 250C51.5 359.629 140.371 448.5 250 448.5Z" fill="white"/>
</mask>
<g mask="url(#mask23_201_752)">
<path d="M212.8 234.3C211.4 229.7 209.6 224.7 206.2 221.2C202.2 217.2 196.3 216 191 218.1C185.7 220.2 182 224.9 178.5 229.2C174.8 233.8 170.8 238.1 166.6 242.3C150.3 258.5 130.2 271.6 107.7 277.1C104.7 277.8 101.6 278.4 98.5 278.9C97.4 279 95.5 279.6 94.5 279.2C93.3 278.7 92.8 276.6 92.4 275.6C91.4 272.9 90.7 268.9 92.9 266.5C93.5 265.8 94.4 265.4 95.2 265.3C94.8 265.3 95.7 265.3 95.6 265.3C95.2 265.3 95.9 265.5 95.7 265.3C96 265.4 96.3 265.7 96.5 266.1C97.1 267.1 98.4 267.4 99.5 267.3C100.2 267.2 101.9 266.6 101.3 265.6C98.7 260.8 90.6 261.5 87.8 265.7C86.1 268.3 86.2 271.6 87 274.5C87.7 277.4 89 280.6 92 281.7C95 282.8 98.6 282 101.7 281.5C104.9 281 108 280.3 111.1 279.5C117 278 122.7 276 128.3 273.5C139.6 268.6 150 261.9 159.5 254.1C164.2 250.2 168.7 246.1 173 241.7C177.3 237.2 181.2 232.4 185.2 227.7C188.4 224 193.9 217.8 199.4 220.6C204.4 223.1 206.4 229.8 207.9 234.8C208.5 236.7 213.4 236.5 212.8 234.3Z" fill="white"/>
</g>
<mask id="mask24_201_752" style="mask-type:luminance" maskUnits="userSpaceOnUse" x="51" y="51" width="398" height="398">
<path d="M250 448.5C359.629 448.5 448.5 359.629 448.5 250C448.5 140.371 359.629 51.5 250 51.5C140.371 51.5 51.5 140.371 51.5 250C51.5 359.629 140.371 448.5 250 448.5Z" fill="white"/>
</mask>
<g mask="url(#mask24_201_752)">
<path d="M74.8 280.5C75.9 279.7 77.2 279.4 78.5 279.8C79.5 280.1 80.1 280.5 80.3 281.4C80.9 283.2 79.9 285.2 78.9 286.6C77.6 288.4 76 289.8 74.3 291.2C70.9 294 67.1 296.3 63.2 298.3C59.2 300.3 54.9 301.8 51.2 304.5C47.6 307.1 44.8 310.9 44.4 315.5C44.2 317.7 48.4999 320 48.7999 317.2C49.0999 312.8 52.5 309.4 56 307.2C60.3 304.6 65.1 303 69.5 300.4C73.7 298 78 295.1 81.3 291.5C84.3 288.2 86.2 283.4 83.3 279.3C80.9 275.9 75.5 273.9 71.8 276.6C70.8 277.3 70.8999 278.4 71.5999 279.4C72.1999 280 73.8 281.2 74.8 280.5Z" fill="white"/>
</g>
<mask id="mask25_201_752" style="mask-type:luminance" maskUnits="userSpaceOnUse" x="51" y="51" width="398" height="398">
<path d="M250 448.5C359.629 448.5 448.5 359.629 448.5 250C448.5 140.371 359.629 51.5 250 51.5C140.371 51.5 51.5 140.371 51.5 250C51.5 359.629 140.371 448.5 250 448.5Z" fill="white"/>
</mask>
<g mask="url(#mask25_201_752)">
<path d="M54.9 342C62.1 326.3 77.4 314.5 94.6 312.4C104.5 311.2 114.6 312.3 124.3 309.8C127.9 308.9 131.6 307.5 134.3 304.9C136.8 302.5 139.7 297.7 137.2 294.4C136 292.7 133.8 292.1 131.9 291.7C129.3 291.2 126.6 291 124 291.1C121.3 291.2 118.1 291.4 115.9 293.1C114.1 294.4 113 296.5 113.6 298.7C113.8 299.4 118.6 298.5 118.6 298.3C118.1 296.4 118.9 294.5 120.4 293.2C121.2 292.5 122 292.3 123 291.8C123.5 291.6 122.6 291.7 123.1 291.8C123.4 291.9 123.7 291.8 124 291.8C124.6 291.8 125.3 291.9 125.9 292C127.6 292.2 129.4 292.5 130.9 293.4C132.8 294.5 133.4 296.6 133.1 298.7C131.8 306 123.7 309.3 117.2 310.2C112.7 310.8 108 310.7 103.4 310.9C98.2 311.1 93.1 311.5 88 312.5C80.2 314 72.8 317.3 66.5 322C59.4 327.2 53.7 334.2 50 342.2C49.9 342.4 52.3 342.4 52.5 342.3C52.9 342.4 54.7 342.5 54.9 342Z" fill="white"/>
</g>
<mask id="mask26_201_752" style="mask-type:luminance" maskUnits="userSpaceOnUse" x="51" y="51" width="398" height="398">
<path d="M250 448.5C359.629 448.5 448.5 359.629 448.5 250C448.5 140.371 359.629 51.5 250 51.5C140.371 51.5 51.5 140.371 51.5 250C51.5 359.629 140.371 448.5 250 448.5Z" fill="white"/>
</mask>
<g mask="url(#mask26_201_752)">
<path d="M357.4 70.0001C350.1 82.4001 341 94.7001 327.8 101.2C326 102.1 324.2 102.8 322.3 103.5C321.4 103.8 320.5 104.1 319.5 104.3C318.4 104.6 317.2 105 316.2 104.8C316.7 105 317.2 105.1 317.6 105.3C319.6 106.1 319.2 106.4 318.7 105.5C318.6 105.2 318.4 104.9 318.3 104.6C318 103.8 317.8 102.9 317.6 102.1C317.2 100.4 316.9 98.5001 317.5 96.8001C317.9 95.5001 318.8 94.2001 320.1 93.7001C320.4 93.6001 320.7 93.5001 321.1 93.4001C321.2 93.4001 321.4 93.4001 321.5 93.4001C319.7 92.2001 319.2 92.0001 319.9 92.8001C320.2 93.5001 320.5 93.9001 320.3 94.7001C320.1 95.7001 324.7 97.2001 324.8 96.9001C325.4 94.0001 321.7 92.3001 319.5 91.5001C317 90.6001 314.6 91.3001 313.4 93.8001C312.1 96.5001 313 99.8001 313.8 102.5C314.7 105.2 317.5 107.1 320.3 107.4C321.6 107.5 323.1 107 324.3 106.7C325.8 106.3 327.2 105.8 328.6 105.3C331.3 104.2 334 102.9 336.5 101.3C341.5 98.2001 346 94.2001 349.9 89.7001C354.5 84.4001 358.4 78.5001 362 72.4001C362.2 71.7001 357.8 69.3001 357.4 70.0001Z" fill="white"/>
</g>
<mask id="mask27_201_752" style="mask-type:luminance" maskUnits="userSpaceOnUse" x="51" y="51" width="398" height="398">
<path d="M250 448.5C359.629 448.5 448.5 359.629 448.5 250C448.5 140.371 359.629 51.5 250 51.5C140.371 51.5 51.5 140.371 51.5 250C51.5 359.629 140.371 448.5 250 448.5Z" fill="white"/>
</mask>
<g mask="url(#mask27_201_752)">
<path d="M307.3 111.5C310.1 108.5 307.2 103.4 304.8 101.2C301.5 98.0998 296.9 99.7998 294.1 102.8C290.8 106.3 289.6 111.2 288 115.6C286.3 120.4 283.9 124.8 280.9 128.8C275.2 136.6 267.8 143.3 259.9 148.9C252.1 154.5 243.5 159 234.4 162.2C231.9 163.1 229.4 163.9 226.9 164.6C225.7 164.9 224.4 165.3 223.1 165.4C222.5 165.4 221.8 165.4 221.2 165.2C221.1 165.2 220.5 164.9 220.5 164.9C220.7 164.8 221.3 166.8 221 165.6C220.4 162.8 219.4 159.9 220.4 157.1C221.2 154.8 223.1 152.9 225.6 152.8C226.2 152.8 225 150.5 224.9 150.3C224.6 149.7 223.9 148.4 223.1 148.5C218.1 148.8 216.8 154.6 217.4 158.6C218 162.6 219.6 169.9 224.8 169.9C227 169.9 229.2 169.1 231.3 168.5C233.6 167.8 235.8 167.1 238 166.3C242.5 164.6 246.8 162.7 251 160.4C259.5 155.9 267.3 150.2 274.2 143.5C281.2 136.8 287.3 129 290.6 119.7C292.4 114.7 293.8 108.7 298.4 105.5C300.2 104.2 302.9 103.3 305 104.4C305.1 104.5 305.8 105.1 305.9 105.1C305.5 105.2 305.5 103.7 305.6 104.8C305.6 105.8 305.4 106.6 304.7 107.3C303.9 108.1 306.9 111.9 307.3 111.5Z" fill="white"/>
</g>
<mask id="mask28_201_752" style="mask-type:luminance" maskUnits="userSpaceOnUse" x="51" y="51" width="398" height="398">
<path d="M250 448.5C359.629 448.5 448.5 359.629 448.5 250C448.5 140.371 359.629 51.5 250 51.5C140.371 51.5 51.5 140.371 51.5 250C51.5 359.629 140.371 448.5 250 448.5Z" fill="white"/>
</mask>
<g mask="url(#mask28_201_752)">
<path d="M212.2 168.7C212.9 165.1 210.7 161.9 207.6 160.2C204 158.2 199.6 158.7 196 160.3C192.3 162 189.4 164.9 187.3 168.4C185 172.2 183.6 176.4 181.7 180.3C178.1 187.5 172.8 193.5 166.7 198.6C163.6 201.2 160.3 203.5 157 205.7C153.5 208 149.8 210.4 145.6 211.3C141.7 212.2 137.2 211.3 134.5 208.3C132.1 205.7 131.1 200.7 133.7 197.9C134.4 197.2 134.3 196.4 133.2 196.2C132.2 196 130.5 196.3 129.8 197.1C127.4 199.8 126.7 203.4 127.9 206.8C129.3 210.4 132.5 212.7 136.1 213.7C144.9 216.1 153.5 211.2 160.6 206.5C167.5 202 174 196.8 179.3 190.5C181.9 187.4 184.2 184.1 186 180.5C188 176.5 189.4 172.2 191.7 168.4C193.5 165.3 196.6 161.4 200.5 161.3C204.3 161.2 208.1 165.2 207.4 169C207 171.2 211.9 170.4 212.2 168.7Z" fill="white"/>
</g>
<mask id="mask29_201_752" style="mask-type:luminance" maskUnits="userSpaceOnUse" x="51" y="51" width="398" height="398">
<path d="M250 448.5C359.629 448.5 448.5 359.629 448.5 250C448.5 140.371 359.629 51.5 250 51.5C140.371 51.5 51.5 140.371 51.5 250C51.5 359.629 140.371 448.5 250 448.5Z" fill="white"/>
</mask>
<g mask="url(#mask29_201_752)">
<path d="M164.7 215.9C156.7 223.2 147.3 228.8 137.1 232.5C132.1 234.3 126.8 235.6 121.5 236.3C119 236.6 116.4 237.1 113.9 236.8C111.2 236.5 109.4 234.5 107.8 232.4C106.3 230.4 103.9 227.3 105 224.7C105.6 223.3 107.1 222.8 108.4 222.4C109.8 222 111.3 221.8 112.7 221.9C113.5 221.9 115.3 221.7 115.7 220.8C116 219.8 114.3 219.8 113.8 219.7C108.8 219.5 97.5 221.2 100.2 228.6C101.2 231.3 103.2 234.2 105.4 236.1C107.9 238.3 111.2 238.9 114.5 238.9C127.3 238.6 140.3 234.7 151.6 228.8C157.9 225.5 163.8 221.3 169.1 216.5C169.9 215.8 168.7 215.3 168 215.2C167 215 165.5 215.2 164.7 215.9Z" fill="white"/>
</g>
<mask id="mask30_201_752" style="mask-type:luminance" maskUnits="userSpaceOnUse" x="51" y="51" width="398" height="398">
<path d="M250 448.5C359.629 448.5 448.5 359.629 448.5 250C448.5 140.371 359.629 51.5 250 51.5C140.371 51.5 51.5 140.371 51.5 250C51.5 359.629 140.371 448.5 250 448.5Z" fill="white"/>
</mask>
<g mask="url(#mask30_201_752)">
<path d="M93.4 235.1C95.1 233.2 94.8 230.4 93.4 228.4C91.5 225.7 88 225 84.9 225.2C77.6 225.8 72.3 231.3 68.6 237.2C65 242.9 62.3 249.2 58.6 254.9C54.8 260.7 50.5 266.2 45.7 271.2C40.2 276.8 34.1 281.8 27.5 286C26.5 286.6 28 287.1 28.5 287.2C29.6 287.4 30.9 287.2 31.9 286.6C42.5 279.8 51.9 271.1 59.5 260.9C63.3 255.8 66.5 250.3 69.5 244.7C72.3 239.4 75.2 233.8 79.9 229.9C82 228.2 85.1 225.9 87.6 228.1C89.6 229.8 90.5 233 88.6 235.1C87.9 235.8 90.2 236.1 90.4 236.1C91.4 236 92.7 235.9 93.4 235.1Z" fill="white"/>
</g>
<mask id="mask31_201_752" style="mask-type:luminance" maskUnits="userSpaceOnUse" x="51" y="51" width="398" height="398">
<path d="M250 448.5C359.629 448.5 448.5 359.629 448.5 250C448.5 140.371 359.629 51.5 250 51.5C140.371 51.5 51.5 140.371 51.5 250C51.5 359.629 140.371 448.5 250 448.5Z" fill="white"/>
</mask>
<g mask="url(#mask31_201_752)">
<path d="M330.7 59.0998C318.4 64.0998 306.1 69.0998 293.8 73.9998C290.7 75.1998 287.6 76.4998 284.6 77.6998C281.8 78.8998 278.8 79.8998 276.1 81.3998C273.8 82.6998 271.5 84.5998 270.8 87.1998C270.2 89.4998 271.3 91.5998 273.3 92.8998C275.5 94.2998 278.6 95.0998 281.1 94.6998C283.4 94.2998 288.2 91.9998 286.6 88.8998C286 87.7998 281.5 89.8998 282 90.8998C282.2 91.2998 282.3 91.6998 282.2 92.1998L281.9 92.7998C282.2 92.5998 282.6 92.3998 282.9 92.2998C282.8 92.2998 282.7 92.2998 282.5 92.2998C281.5 92.0998 280.4 91.9998 279.4 91.5998C277.7 90.9998 275.9 89.8998 275.3 87.9998C273.7 82.9998 280.5 81.1998 283.8 79.8998C294 75.7998 304.1 71.6998 314.3 67.5998C320 65.2998 325.7 62.9998 331.4 60.6998C331.9 60.4998 333.7 59.5998 333.3 58.8998C333 58.0998 331.1 58.9998 330.7 59.0998Z" fill="white"/>
</g>
<mask id="mask32_201_752" style="mask-type:luminance" maskUnits="userSpaceOnUse" x="51" y="51" width="398" height="398">
<path d="M250 448.5C359.629 448.5 448.5 359.629 448.5 250C448.5 140.371 359.629 51.5 250 51.5C140.371 51.5 51.5 140.371 51.5 250C51.5 359.629 140.371 448.5 250 448.5Z" fill="white"/>
</mask>
<g mask="url(#mask32_201_752)">
<path d="M269.3 104.3C271.1 100.6 269 96.4 265.8 94.4C261.5 91.8 255.6 92.9 251.4 95.1C246.9 97.4 243.8 101.4 240.7 105.3C237.4 109.6 234 113.9 230.5 118C217.8 133.1 202 147.9 182 151.8C179.7 152.2 177.2 152.7 175 151.8C172.7 151 171.3 149 171 146.6C170.8 144.6 171.4 142.1 173.3 141C174.6 140.2 176.5 141.2 177.6 142.2C178.7 143.2 183.2 141.6 182.2 140.7C178.8 137.5 172.8 137.9 169.2 140.5C165.8 143 165 148 167.7 151.3C170.9 155.2 177.1 154.5 181.5 153.7C186.8 152.7 191.9 151.1 196.8 148.9C217.2 139.8 231.7 122.4 245.1 105.2C246.9 102.8 248.8 100.4 251 98.4C252.8 96.7 255.1 95 257.7 94.9C262.5 94.6 266.7 100 264.5 104.5C264.1 105.4 266.1 105.4 266.5 105.3C267.3 105.5 268.8 105.2 269.3 104.3Z" fill="white"/>
</g>
<mask id="mask33_201_752" style="mask-type:luminance" maskUnits="userSpaceOnUse" x="51" y="51" width="398" height="398">
<path d="M250 448.5C359.629 448.5 448.5 359.629 448.5 250C448.5 140.371 359.629 51.5 250 51.5C140.371 51.5 51.5 140.371 51.5 250C51.5 359.629 140.371 448.5 250 448.5Z" fill="white"/>
</mask>
<g mask="url(#mask33_201_752)">
<path d="M152.6 154.2C153.1 151.5 154.8 149.4 157.3 148.3C156.5 148.1 155.7 147.9 154.9 147.7C155.7 148.2 156.1 150 156.3 151C156.5 152.6 156.4 154.3 155.8 155.8C154.5 159.4 151.1 161.8 147.8 163.4C143.8 165.3 139.6 166.8 135.4 168.2C130.9 169.7 126.4 170.9 121.8 171.9C113.1 173.9 104.1 174.6 95.4 176.8C91.2 177.8 87.1 179.2 83.3 181.3C80.1 183 76.8 185.5 75.6 189.1C74.3 193 75.6 197 79 199.4C80.6 200.5 82.7 201.3 84.7 201C86.2 200.8 87.4 199.9 87.3 198.2C87.2 196.8 82.8 195 82.9 196.2C83 197.8 81.5 198 80.3 198.1C80.3 198.1 80 198.1 80 198C80.1 197.8 81 198.9 80.9 198.5C80.9 198.3 80.4 197.8 80.2 197.6C79.8 196.8 79.5 196 79.4 195.1C79 191 81.6 187.6 84.8 185.4C92.3 180.3 101.8 178.7 110.6 177.4C120.2 175.9 129.6 174.1 138.8 171.1C143.2 169.7 147.7 168.2 151.8 166.1C155.2 164.4 158.7 161.9 160 158.3C161.3 154.7 160.7 150.6 157.9 147.9C157 147 155.8 146.1 154.5 145.7C153.3 145.3 152.3 145.9 151.4 146.6C149.7 147.9 148.6 149.7 148.2 151.8C148 153.2 152.5 155 152.6 154.2Z" fill="white"/>
</g>
<mask id="mask34_201_752" style="mask-type:luminance" maskUnits="userSpaceOnUse" x="51" y="51" width="398" height="398">
<path d="M250 448.5C359.629 448.5 448.5 359.629 448.5 250C448.5 140.371 359.629 51.5 250 51.5C140.371 51.5 51.5 140.371 51.5 250C51.5 359.629 140.371 448.5 250 448.5Z" fill="white"/>
</mask>
<g mask="url(#mask34_201_752)">
<path d="M69.2 209.3C71 205.5 71 200.9 69.2 197C68.3 195 66.9 193.3 64.9 192.4C62.9 191.5 60.6 191.3 58.4 191.5C53.8 191.9 50.6 194.9 47.2 197.7C43.4 200.9 39.7 204 35.9 207.2C34.1 208.7 37.6 212.3 39.5 210.7C42.5 208.2 45.5 205.6 48.5 203.1C51.2 200.8 53.9 197.9 57.2 196.5C58.8 195.8 60.7 195.6 62.4 195.8C63.8 195.9 64.6 196.2 65.2 197.5C66.6 200.4 66.4 203.8 65 206.6C64.1 208.7 68.1 211.6 69.2 209.3Z" fill="white"/>
</g>
<mask id="mask35_201_752" style="mask-type:luminance" maskUnits="userSpaceOnUse" x="51" y="51" width="398" height="398">
<path d="M250 448.5C359.629 448.5 448.5 359.629 448.5 250C448.5 140.371 359.629 51.5 250 51.5C140.371 51.5 51.5 140.371 51.5 250C51.5 359.629 140.371 448.5 250 448.5Z" fill="white"/>
</mask>
<g mask="url(#mask35_201_752)">
<path d="M297.1 49.5002C293.2 55.6002 287.9 60.5002 281.5 64.0002C278.3 65.7002 275 67.0002 271.5 67.8002C269.8 68.2002 268.1 68.5002 266.3 68.7002C265.4 68.8002 264.5 68.8002 263.7 68.9002C263.1 68.9002 262.3 69.1002 261.8 68.7002C261.1 68.2002 260.5 67.0002 260.2 66.3002C259.9 65.6002 259.6 64.8002 259.8 64.0002C259.9 63.5002 260.2 62.9002 260.8 62.7002C261.4 62.5002 261 63.1002 261.1 62.2002C261 63.5002 261.7 64.8002 263 65.2002C264.1 65.5002 265.5 64.8002 265.6 63.5002C265.7 60.8002 264 58.4002 261.3 57.9002C258.8 57.4002 256.5 59.0002 255.6 61.4002C254.6 64.0002 255.4 66.7002 256.7 69.0002C258.1 71.5002 260 73.6002 263 73.7002C272.4 74.0002 282.3 70.3002 289.8 64.7002C294.1 61.5002 297.8 57.6002 300.7 53.0002C301.4 51.9002 301.3 50.5002 300.3 49.6002C299.5 48.8002 297.8 48.4002 297.1 49.5002Z" fill="white"/>
</g>
<mask id="mask36_201_752" style="mask-type:luminance" maskUnits="userSpaceOnUse" x="51" y="51" width="398" height="398">
<path d="M250 448.5C359.629 448.5 448.5 359.629 448.5 250C448.5 140.371 359.629 51.5 250 51.5C140.371 51.5 51.5 140.371 51.5 250C51.5 359.629 140.371 448.5 250 448.5Z" fill="white"/>
</mask>
<g mask="url(#mask36_201_752)">
<path d="M244.2 69.4999C245.4 67.8999 248.7 67.3999 249.9 69.3999C251.3 71.6999 249.6 74.8999 248.1 76.6999C244.1 81.5999 237.5 83.9999 231.4 85.2999C224.3 86.7999 217 87.3999 209.8 88.1999C206.2 88.5999 202.6 88.8999 199 89.4999C196.3 89.9999 193.6 90.6999 191.6 92.6999C189 95.1999 188.9 99.2999 190.6 102.3C192.5 105.7 196.1 107.6 199.9 106.5C201 106.2 200.3 104.2 200 103.6C199.5 102.7 198.6 101.8 197.5 102.1C196.3 102.5 194.8 102.3 193.8 101.5C192.9 100.8 192.9 99.4999 193.3 98.4999C194.2 95.9999 197 94.8999 199.4 94.2999C202.9 93.4999 206.6 93.2999 210.1 92.8999C214 92.3999 217.9 91.9999 221.8 91.4999C228.4 90.6999 235.1 89.8999 241.3 87.3999C246.9 85.0999 253.3 80.6999 254 74.0999C254.3 70.4999 252.7 66.4999 249.6 64.5999C247 62.9999 243.3 63.0999 241.3 65.6999C240 67.1999 242.8 71.1999 244.2 69.4999Z" fill="white"/>
</g>
<mask id="mask37_201_752" style="mask-type:luminance" maskUnits="userSpaceOnUse" x="51" y="51" width="398" height="398">
<path d="M250 448.5C359.629 448.5 448.5 359.629 448.5 250C448.5 140.371 359.629 51.5 250 51.5C140.371 51.5 51.5 140.371 51.5 250C51.5 359.629 140.371 448.5 250 448.5Z" fill="white"/>
</mask>
<g mask="url(#mask37_201_752)">
<path d="M187.1 112.9C188.7 110 189.2 106.5 188 103.4C187.5 102 186.6 100.9 185 100.7C183.4 100.4 181.5 100.8 179.9 101.3C173.2 103.2 168.2 108.2 164.1 113.6C162 116.3 160.1 119.1 157.8 121.6C155.7 124 153.3 126.2 150.8 128.1C145.8 131.9 140 135 134.1 137C131.1 138 127.7 138.7 124.5 138C123 137.7 121.4 137 120.2 136C119.6 135.5 119 134.8 118.9 134C118.8 133.6 119 133.5 119 133.1C119 133 119.1 133 119.2 132.9C118.9 133.2 118.5 133.2 118.1 133.1C119.3 133.5 120.6 133.3 121.5 132.4C122.1 131.8 122.6 130.3 121.4 129.9C118.2 128.7 113.7 131.1 114.1 134.9C114.4 138.4 118.1 140.4 121.1 141.3C127.6 143.3 134.9 140.7 140.8 138C147.2 135.1 153.3 131.3 158.5 126.4C163.7 121.4 167.2 115 172.3 110C174.8 107.6 177.7 105.3 181.2 104.6C181.7 104.5 182.7 104.2 183.1 104.5C183.6 104.9 183.8 106.2 183.9 106.8C184.2 108.6 183.9 110.5 183 112C181.4 114.6 186 114.8 187.1 112.9Z" fill="white"/>
</g>
<mask id="mask38_201_752" style="mask-type:luminance" maskUnits="userSpaceOnUse" x="51" y="51" width="398" height="398">
<path d="M250 448.5C359.629 448.5 448.5 359.629 448.5 250C448.5 140.371 359.629 51.5 250 51.5C140.371 51.5 51.5 140.371 51.5 250C51.5 359.629 140.371 448.5 250 448.5Z" fill="white"/>
</mask>
<g mask="url(#mask38_201_752)">
<path d="M103.8 143.6C104.9 142.8 106.1 142.2 107.3 141.6C107.9 141.3 108.5 141.1 109.1 140.9C109.2 140.9 109.2 140.9 109.3 140.8C109.9 140.7 109.8 140.6 109.1 140.6L109.5 141.5C110.2 143.8 109.1 146.3 107.6 148.1C104.4 151.7 99.4 152.8 94.8 153.5C89.4 154.3 84 154.6 78.6 155.8C72.7 157.1 66.9 159 61.3 161.5C58.4 162.8 55.2 164 52.9 166.2C50.7 168.2 49.5 171.2 51.1 173.9C52.1 175.5 56.8 174.1 55.7 172.2C54.1 169.5 56.8 167.2 58.9 166.1C61.7 164.6 64.6 163.3 67.6 162.2C73.5 160 79.6 158.4 85.9 157.5C91.5 156.7 97.2999 156.5 102.7 154.7C107.6 153.1 113.1 149.6 114.4 144.2C114.7 142.8 114.7 141.2 114.1 139.9C113.4 138.1 111.8 137.5 110 137.7C106.4 138 102.8 140.1 99.9 142.2C99 142.8 99.4 143.9 100.3 144.2C101.5 144.7 102.9 144.2 103.8 143.6Z" fill="white"/>
</g>
<mask id="mask39_201_752" style="mask-type:luminance" maskUnits="userSpaceOnUse" x="51" y="51" width="398" height="398">
<path d="M250 448.5C359.629 448.5 448.5 359.629 448.5 250C448.5 140.371 359.629 51.5 250 51.5C140.371 51.5 51.5 140.371 51.5 250C51.5 359.629 140.371 448.5 250 448.5Z" fill="white"/>
</mask>
<g mask="url(#mask39_201_752)">
<path d="M67.3 176.6C72.1 174.4 77.1 172.7 82.2 171.7C87.3 170.6 92.4 170.3 97.6 170.3C102.5 170.3 107.5 170.2 112.2 168.5C115.9 167.1 119.8 164.6 121.3 160.8C122.5 157.9 118.9 157 116.7 156.7C114.1 156.3 111.4 156.6 109.2 158.2C108.5 158.7 110.5 159.3 110.7 159.4C111.4 159.6 113.1 160.1 113.8 159.6C114.6 159 115.4 158.6 116.3 158.4C116.6 158.3 117.1 158.4 117.4 158.3H117.5C116.6 157.8 116.3 157.7 116.5 158.2C116.5 158.4 116.6 158.7 116.6 158.9C116.4 160.6 115 162.3 113.8 163.4C111.1 166 107.5 167.4 103.8 168.1C99.3 168.9 94.6 168.6 90 168.8C85.5 169 81 169.6 76.7 170.6C71.8 171.7 67.1 173.4 62.6 175.5C61.9 175.8 64 176.6 64.1 176.7C65.1 176.7 66.4 177 67.3 176.6Z" fill="white"/>
</g>
<mask id="mask40_201_752" style="mask-type:luminance" maskUnits="userSpaceOnUse" x="51" y="51" width="398" height="398">
<path d="M250 448.5C359.629 448.5 448.5 359.629 448.5 250C448.5 140.371 359.629 51.5 250 51.5C140.371 51.5 51.5 140.371 51.5 250C51.5 359.629 140.371 448.5 250 448.5Z" fill="white"/>
</mask>
<g mask="url(#mask40_201_752)">
<path d="M178.3 129.6C178.1 128.3 178.7 127.1 179.7 126.3C180.9 125.4 182.3 125.5 183.7 125.5C186.6 125.6 189.4 125.6 192.3 125.4C197.9 124.9 203.3 123.6 208.5 121.5C213.6 119.5 218.3 116.8 222.6 113.4C224.8 111.7 226.8 109.9 228.7 107.9C230.2 106.3 233.1 103.8 232.8 101.4C232.4 98.2999 227.4 97.7999 225.1 98.1999C222.6 98.5999 220.1 100.2 219.9 102.9C219.8 104.2 224.8 104.6 224.9 103.4C225 102.4 225.4 101.6 226 101C226.4 100.6 226.8 100.3 227.2 100.1C228.3 99.5999 226.9 99.8999 227 99.7999C227.1 99.6999 227.7 100.6 227.8 100.7C228 101.2 227.9 101.8 227.7 102.3C227.2 103.5 226.2 104.6 225.4 105.5C222.2 109.1 218.5 112.3 214.5 115C206.4 120.3 196.9 123.5 187.2 123.7C184.2 123.8 181.2 123.3 178.2 123.9C175.8 124.4 173.1 126.2 173.4 129C173.5 130.5 178.4 130.6 178.3 129.6Z" fill="white"/>
</g>
<mask id="mask41_201_752" style="mask-type:luminance" maskUnits="userSpaceOnUse" x="51" y="51" width="398" height="398">
<path d="M250 448.5C359.629 448.5 448.5 359.629 448.5 250C448.5 140.371 359.629 51.5 250 51.5C140.371 51.5 51.5 140.371 51.5 250C51.5 359.629 140.371 448.5 250 448.5Z" fill="white"/>
</mask>
<g mask="url(#mask41_201_752)">
<path d="M249.2 37.5002C247.6 47.6002 238.7 54.3002 230.5 59.3002C225.8 62.2002 220.8 64.8002 215.6 66.5002C211.3 67.9002 204.3 69.9002 200.7 66.2002C199.2 64.7002 198.2 61.9002 199.6 60.0002C199.7 59.8002 199.9 59.7002 200 59.5002C200.1 59.4002 200.2 59.3002 200.3 59.3002C198 59.8002 197.3 60.0002 198.2 60.0002C198.7 60.1002 199.1 60.1002 199.6 60.2002C200.6 60.5002 201.4 61.2002 201.8 62.2002C202.1 62.9002 206.7 61.1002 206.6 60.7002C205.6 58.5002 203.2 58.1002 201 58.4002C198.5 58.8002 194.9 59.8002 194.2 62.6002C193.6 65.0002 195.2 67.6002 197.2 68.7002C200.1 70.3002 203.7 69.9002 206.8 69.4002C213.9 68.2002 220.8 65.7002 227.2 62.5002C232.9 59.6002 238.6 56.3002 243.5 52.2002C248.5 48.0002 252.8 42.7002 253.9 36.0002C253.9 35.7002 251.6 36.3002 251.4 36.4002C251 36.5002 249.3 36.9002 249.2 37.5002Z" fill="white"/>
</g>
<mask id="mask42_201_752" style="mask-type:luminance" maskUnits="userSpaceOnUse" x="51" y="51" width="398" height="398">
<path d="M250 448.5C359.629 448.5 448.5 359.629 448.5 250C448.5 140.371 359.629 51.5 250 51.5C140.371 51.5 51.5 140.371 51.5 250C51.5 359.629 140.371 448.5 250 448.5Z" fill="white"/>
</mask>
<g mask="url(#mask42_201_752)">
<path d="M185.5 70.2999C185.2 69.7999 186.2 68.7999 186.7 68.7999C187.5 68.7999 187.8 70.4999 187.7 71.0999C187.5 74.2999 184.5 77.0999 182.1 78.9999C176.6 83.1999 169.6 84.8999 163 86.5999C154.3 88.8999 145.6 91.0999 136.9 93.3999C133.2 94.3999 129.3 95.2999 126.2 97.6999C123.5 99.7999 121.3 103.1 121.7 106.7C122.1 110.6 125.2 114.4 129.3 114.6C131.2 114.7 133.1 114 134.4 112.6C135.8 111.1 136.2 109.3 135.8 107.3C135.3 104.8 130.7 104.6 131.3 107.7C131.5 108.8 130.2 109.9 129.3 110.3C128.3 110.7 127.5 110.3 127 109.5C125.2 106.9 127 103.5 129.2 101.7C132.2 99.1999 136.3 98.3999 139.9 97.3999C144.3 96.2999 148.6 95.0999 153 93.9999C157.4 92.8999 161.7 91.6999 166.1 90.5999C169.5 89.6999 172.9 88.7999 176.2 87.5999C179.4 86.3999 182.6 84.8999 185.4 82.7999C188.2 80.6999 190.9 77.8999 192 74.4999C193.3 70.4999 191 65.7999 186.7 64.8999C182.7 64.0999 179.2 68.2999 181.5 71.8999C182.1 72.8999 183.6 73.5999 184.7 73.1999C186 72.5999 186.1 71.2999 185.5 70.2999Z" fill="white"/>
</g>
<mask id="mask43_201_752" style="mask-type:luminance" maskUnits="userSpaceOnUse" x="51" y="51" width="398" height="398">
<path d="M250 448.5C359.629 448.5 448.5 359.629 448.5 250C448.5 140.371 359.629 51.5 250 51.5C140.371 51.5 51.5 140.371 51.5 250C51.5 359.629 140.371 448.5 250 448.5Z" fill="white"/>
</mask>
<g mask="url(#mask43_201_752)">
<path d="M118.9 117.8C117.4 114.1 114.1 111.3 110.3 110.3C106.2 109.2 102.1 110.1 98.5 112C94.5 114.1 91.3 117.3 88 120.4C84.8 123.4 81.5 126.2 77.7 128.4C73.5 130.9 68.9 132.8 64.2 134.1C61.8 134.7 64 139.2 66.2 138.6C74 136.5 81.3 132.8 87.5 127.6C93.4 122.6 98.9 115 107.2 114.3C110.4 114 114.2 115.3 115.5 118.5C115.9 119.5 117.1 120.6 118.2 120.4C119.4 120.1 119.3 118.6 118.9 117.8Z" fill="white"/>
</g>
<mask id="mask44_201_752" style="mask-type:luminance" maskUnits="userSpaceOnUse" x="51" y="51" width="398" height="398">
<path d="M250 448.5C359.629 448.5 448.5 359.629 448.5 250C448.5 140.371 359.629 51.5 250 51.5C140.371 51.5 51.5 140.371 51.5 250C51.5 359.629 140.371 448.5 250 448.5Z" fill="white"/>
</mask>
<g mask="url(#mask44_201_752)">
<path d="M135.6 76.7002C145.1 77.9002 155.2 77.4002 164.1 73.8002C171.7 70.7002 178.7 65.4002 182.8 58.1002C184.1 55.8002 185.2 53.2002 184.5 50.6002C183.9 48.2002 182.1 45.8002 179.5 45.4002C176.4 44.9002 176.7 49.5002 179.3 49.9002C182.3 50.4002 178.4 56.1002 177.6 57.3002C175.6 60.2002 173.1 62.7002 170.3 64.7002C164.1 69.3002 156.6 71.7002 149 72.4002C144.2 72.8002 139.4 72.6002 134.7 72.1002C133.5 71.9002 132.8 73.4002 133 74.4002C133.2 75.6002 134.3 76.5002 135.6 76.7002Z" fill="white"/>
</g>
<mask id="mask45_201_752" style="mask-type:luminance" maskUnits="userSpaceOnUse" x="51" y="51" width="398" height="398">
<path d="M250 448.5C359.629 448.5 448.5 359.629 448.5 250C448.5 140.371 359.629 51.5 250 51.5C140.371 51.5 51.5 140.371 51.5 250C51.5 359.629 140.371 448.5 250 448.5Z" fill="white"/>
</mask>
<g mask="url(#mask45_201_752)">
<path d="M194.5 48.9001C197.8 50.2001 200.6 52.7001 203.8 54.3001C207.3 56.1001 211.1 57.3001 214.9 57.9001C218.6 58.5001 222.6 58.4001 226.1 57.1001C229.6 55.8001 232.6 53.5001 235.5 51.2001C237.4 49.7001 233.4 46.8001 231.7 48.1001C229.1 50.2001 226.4 52.3001 223.3 53.5001C220 54.7001 216.5 54.7001 213.1 54.0001C209.9 53.4001 206.8 52.2001 203.9 50.6001C200.8 48.9001 198 46.7001 194.7 45.4001C193.8 45.0001 192.3 45.3001 192.2 46.4001C192.2 47.6001 193.6 48.5001 194.5 48.9001Z" fill="white"/>
</g>
</svg>
