<svg width="500" height="500" viewBox="0 0 500 500" fill="none" xmlns="http://www.w3.org/2000/svg">
<mask id="mask0_201_717" style="mask-type:luminance" maskUnits="userSpaceOnUse" x="51" y="51" width="398" height="398">
<path d="M250 448.5C359.629 448.5 448.5 359.629 448.5 250C448.5 140.371 359.629 51.5 250 51.5C140.371 51.5 51.5 140.371 51.5 250C51.5 359.629 140.371 448.5 250 448.5Z" fill="white"/>
</mask>
<g mask="url(#mask0_201_717)">
<path d="M93.2 29C103.2 61.1 113.1 93.3 123.1 125.4C133.1 157.7 143.1 190 153.1 222.3C163.1 254.4 173 286.6 183 318.7C193 351 203 383.3 213 415.6C223 447.7 232.9 479.9 242.9 512C244.2 516.1 245.4 520.2 246.7 524.3C247.4 526.5 251.8 524.3 251.2 522.4C241.2 490.3 231.3 458.1 221.3 426C211.3 393.7 201.3 361.4 191.3 329.1C181.3 297 171.4 264.8 161.4 232.7C151.4 200.4 141.4 168.1 131.4 135.8C121.4 103.7 111.5 71.5 101.5 39.4C100.2 35.3 99 31.2 97.7 27.1C97 24.9 92.6 27.2 93.2 29Z" fill="white"/>
</g>
<mask id="mask1_201_717" style="mask-type:luminance" maskUnits="userSpaceOnUse" x="51" y="51" width="398" height="398">
<path d="M250 448.5C359.629 448.5 448.5 359.629 448.5 250C448.5 140.371 359.629 51.5 250 51.5C140.371 51.5 51.5 140.371 51.5 250C51.5 359.629 140.371 448.5 250 448.5Z" fill="white"/>
</mask>
<g mask="url(#mask1_201_717)">
<path d="M154.6 32.2C155.8 97.4 157.1 162.6 158.6 227.9C160.1 292.8 161.7 357.7 163.5 422.5C164.5 459.1 165.5 495.7 166.6 532.3C166.7 534.1 171.3 535.9 171.2 533.9C169.2 468.7 167.5 403.5 165.8 338.3C164.2 273.4 162.7 208.5 161.4 143.6C160.6 107 159.9 70.4 159.3 33.8C159.2 32 154.6 30.2 154.6 32.2Z" fill="white"/>
</g>
<mask id="mask2_201_717" style="mask-type:luminance" maskUnits="userSpaceOnUse" x="51" y="51" width="398" height="398">
<path d="M250 448.5C359.629 448.5 448.5 359.629 448.5 250C448.5 140.371 359.629 51.5 250 51.5C140.371 51.5 51.5 140.371 51.5 250C51.5 359.629 140.371 448.5 250 448.5Z" fill="white"/>
</mask>
<g mask="url(#mask2_201_717)">
<path d="M237.8 35.7C237.1 104 236.9 172.3 237.4 240.6C237.9 308.5 239 376.5 240.7 444.4C241.7 482.7 242.8 521 244.2 559.3C244.2 560.3 248.5 558.3 248.5 557C246.1 488.8 244.3 420.5 243.1 352.2C241.9 284.3 241.4 216.3 241.4 148.4C241.4 110.1 241.7 71.8 242.1 33.4C242.1 32.4 237.9 34.4 237.8 35.7Z" fill="white"/>
</g>
<mask id="mask3_201_717" style="mask-type:luminance" maskUnits="userSpaceOnUse" x="51" y="51" width="398" height="398">
<path d="M250 448.5C359.629 448.5 448.5 359.629 448.5 250C448.5 140.371 359.629 51.5 250 51.5C140.371 51.5 51.5 140.371 51.5 250C51.5 359.629 140.371 448.5 250 448.5Z" fill="white"/>
</mask>
<g mask="url(#mask3_201_717)">
<path d="M185.5 47.5C199.7 84.1 214 120.8 228.2 157.4C242.4 193.9 256.5 230.3 270.7 266.8C284.9 303.4 299.2 340.1 313.4 376.7C327.6 413.2 341.7 449.6 355.9 486.1C370.1 522.7 384.4 559.4 398.6 596C400.4 600.5 402.1 605.1 403.9 609.6C404.5 611.1 409.1 612 408.6 610.8C394.4 574.2 380.1 537.5 365.9 500.9C351.7 464.4 337.6 428 323.4 391.5C309.2 354.9 294.9 318.2 280.7 281.6C266.5 245.1 252.4 208.7 238.2 172.2C224 135.6 209.7 98.9 195.5 62.3C193.7 57.8 192 53.2 190.2 48.7C189.7 47.2 185.1 46.3 185.5 47.5Z" fill="white"/>
</g>
<mask id="mask4_201_717" style="mask-type:luminance" maskUnits="userSpaceOnUse" x="51" y="51" width="398" height="398">
<path d="M250 448.5C359.629 448.5 448.5 359.629 448.5 250C448.5 140.371 359.629 51.5 250 51.5C140.371 51.5 51.5 140.371 51.5 250C51.5 359.629 140.371 448.5 250 448.5Z" fill="white"/>
</mask>
<g mask="url(#mask4_201_717)">
<path d="M316.8 45.4C308 85.9 298.2 126.1 287.9 166.2C277.7 206.4 267 246.5 256.7 286.6C246.4 326.7 236.3 366.9 227.1 407.2C217.9 447.6 209.6 488.3 202.9 529.2C196.3 569.6 191.2 610.3 188.3 651.2C187.9 656.3 187.6 661.4 187.3 666.4C187.2 668.3 192.1 667.8 192.3 665.8C194.7 624.6 199.3 583.5 205.7 542.7C212 501.9 220 461.4 229 421.2C237.9 381 247.8 341 258.1 301.1C268.3 261.1 278.9 221.2 289.2 181.2C299.5 141.1 309.5 100.9 318.6 60.4C319.7 55.4 320.8 50.4 321.9 45.5C322.2 43.4 317.2 43.6 316.8 45.4Z" fill="white"/>
</g>
<mask id="mask5_201_717" style="mask-type:luminance" maskUnits="userSpaceOnUse" x="51" y="51" width="398" height="398">
<path d="M250 448.5C359.629 448.5 448.5 359.629 448.5 250C448.5 140.371 359.629 51.5 250 51.5C140.371 51.5 51.5 140.371 51.5 250C51.5 359.629 140.371 448.5 250 448.5Z" fill="white"/>
</mask>
<g mask="url(#mask5_201_717)">
<path d="M369.9 77.8C368.2 139.5 364.7 201.1 359.1 262.6C353.5 324.2 346 385.7 336.6 446.8C331.4 480.9 325.5 515 319 549C318.5 551.6 323.4 552 323.9 549.7C329.7 519.2 335.1 488.7 339.9 458C344.7 427.7 349 397.2 352.9 366.8C356.8 336 360.2 305.2 363.1 274.3C366 243.6 368.4 212.8 370.3 182C372.2 151 373.7 120.1 374.6 89.1C374.7 85.2 374.8 81.4 374.9 77.5C375 75.1 370 75.3 369.9 77.8Z" fill="white"/>
</g>
<mask id="mask6_201_717" style="mask-type:luminance" maskUnits="userSpaceOnUse" x="51" y="51" width="398" height="398">
<path d="M250 448.5C359.629 448.5 448.5 359.629 448.5 250C448.5 140.371 359.629 51.5 250 51.5C140.371 51.5 51.5 140.371 51.5 250C51.5 359.629 140.371 448.5 250 448.5Z" fill="white"/>
</mask>
<g mask="url(#mask6_201_717)">
<path d="M318.4 63.7C328.1 95.4 337.6 127.3 347 159.1C356.3 190.8 365.4 222.6 374.3 254.4C383.3 286.4 392 318.4 400.6 350.5C409.2 382.6 417.6 414.7 425.7 446.9C433.8 478.9 441.8 511 449.6 543.1C450.6 547.2 451.6 551.2 452.5 555.3C452.9 556.8 457.8 557 457.4 555.1C449.6 522.8 441.7 490.6 433.5 458.4C425.4 426.4 417.1 394.4 408.6 362.5C400.1 330.4 391.4 298.4 382.5 266.4C373.6 234.4 364.5 202.5 355.2 170.6C346 138.9 336.5 107.2 326.9 75.6C325.7 71.6 324.5 67.6 323.2 63.6C322.8 62 317.8 61.9 318.4 63.7Z" fill="white"/>
</g>
<mask id="mask7_201_717" style="mask-type:luminance" maskUnits="userSpaceOnUse" x="51" y="51" width="398" height="398">
<path d="M250 448.5C359.629 448.5 448.5 359.629 448.5 250C448.5 140.371 359.629 51.5 250 51.5C140.371 51.5 51.5 140.371 51.5 250C51.5 359.629 140.371 448.5 250 448.5Z" fill="white"/>
</mask>
<g mask="url(#mask7_201_717)">
<path d="M399.7 122.5C393.3 175 388.3 227.7 384.6 280.5C380.9 333 378.5 385.6 377.5 438.3C376.9 468 376.7 497.6 377 527.3C377 527.8 382 527.5 381.9 526.6C381.5 473.7 382.4 420.8 384.6 367.9C386.8 315.3 390.4 262.8 395.2 210.3C397.9 180.8 401.1 151.3 404.7 121.8C404.6 121.4 399.8 121.4 399.7 122.5Z" fill="white"/>
</g>
<mask id="mask8_201_717" style="mask-type:luminance" maskUnits="userSpaceOnUse" x="51" y="51" width="398" height="398">
<path d="M250 448.5C359.629 448.5 448.5 359.629 448.5 250C448.5 140.371 359.629 51.5 250 51.5C140.371 51.5 51.5 140.371 51.5 250C51.5 359.629 140.371 448.5 250 448.5Z" fill="white"/>
</mask>
<g mask="url(#mask8_201_717)">
<path d="M289.8 41.8C298.7 82.2 306.2 122.9 312.6 163.7C318.9 204.6 324.1 245.6 328.4 286.7C332.7 327.9 336.1 369.2 338.9 410.5C341.7 452.1 343.9 493.7 345.8 535.3C347.7 576.7 349.2 618.1 350.8 659.5C351 664.6 351.2 669.7 351.4 674.9C351.5 676.4 356.3 675.4 356.2 673.5C354.7 632.1 353.2 590.7 351.4 549.3C349.6 507.9 347.5 466.5 344.8 425.1C342.1 383.8 338.9 342.5 334.8 301.3C330.7 259.9 325.8 218.7 319.7 177.6C313.6 136.7 306.4 96 297.9 55.5C296.8 50.5 295.7 45.5 294.6 40.5C294.2 38.7 289.4 40 289.8 41.8Z" fill="white"/>
</g>
<mask id="mask9_201_717" style="mask-type:luminance" maskUnits="userSpaceOnUse" x="51" y="51" width="398" height="398">
<path d="M250 448.5C359.629 448.5 448.5 359.629 448.5 250C448.5 140.371 359.629 51.5 250 51.5C140.371 51.5 51.5 140.371 51.5 250C51.5 359.629 140.371 448.5 250 448.5Z" fill="white"/>
</mask>
<g mask="url(#mask9_201_717)">
<path d="M184.6 46.3C188.7 122.5 191.8 198.8 193.9 275.1C196 351.3 197 427.6 197 504C197 546.8 196.7 589.7 196.1 632.5C196.1 634.6 200.7 632.9 200.7 631C201.8 554.7 201.9 478.4 201 402C200.1 325.7 198.1 249.4 195.2 173.1C193.5 130.3 191.5 87.5 189.2 44.7C189.2 42.5 184.5 44.3 184.6 46.3Z" fill="white"/>
</g>
<mask id="mask10_201_717" style="mask-type:luminance" maskUnits="userSpaceOnUse" x="51" y="51" width="398" height="398">
<path d="M250 448.5C359.629 448.5 448.5 359.629 448.5 250C448.5 140.371 359.629 51.5 250 51.5C140.371 51.5 51.5 140.371 51.5 250C51.5 359.629 140.371 448.5 250 448.5Z" fill="white"/>
</mask>
<g mask="url(#mask10_201_717)">
<path d="M85 99.2C91.2 128.3 97 157.5 102.3 186.7C107.6 215.7 112.5 244.9 117 274C121.5 303.2 125.5 332.4 129.2 361.7C132.8 391 136.1 420.4 138.9 449.7C141.7 479.1 144.1 508.5 146 538C146.2 541.7 146.5 545.3 146.7 549C146.8 550.4 151.7 550.8 151.6 549.9C149.7 520.3 147.4 490.7 144.7 461.1C142 431.6 138.8 402 135.3 372.6C131.8 343.3 127.8 314 123.4 284.8C119 255.5 114.2 226.2 108.9 197C103.7 168 98.1 139.1 92 110.2C91.2 106.6 90.5 103 89.7 99.4C89.6 98.5 84.7 97.9 85 99.2Z" fill="white"/>
</g>
<mask id="mask11_201_717" style="mask-type:luminance" maskUnits="userSpaceOnUse" x="51" y="51" width="398" height="398">
<path d="M250 448.5C359.629 448.5 448.5 359.629 448.5 250C448.5 140.371 359.629 51.5 250 51.5C140.371 51.5 51.5 140.371 51.5 250C51.5 359.629 140.371 448.5 250 448.5Z" fill="white"/>
</mask>
<g mask="url(#mask11_201_717)">
<path d="M149.8 13.6C142.1 81.5 134.6 149.4 127.3 217.3C120 284.9 112.8 352.5 105.8 420.1C101.8 458.4 97.9 496.7 94 535C93.9 535.9 94.8 537.1 95.3 537.8C95.4 538 96.7 539.6 96.8 539C103.7 471 110.7 403.1 117.9 335.1C125.1 267.5 132.4 199.9 139.8 132.4C144 94.1 148.3 55.9 152.6 17.6C152.7 16.7 151.8 15.5 151.3 14.8C151.2 14.6 149.9 13 149.8 13.6Z" fill="white"/>
</g>
<mask id="mask12_201_717" style="mask-type:luminance" maskUnits="userSpaceOnUse" x="51" y="51" width="398" height="398">
<path d="M250 448.5C359.629 448.5 448.5 359.629 448.5 250C448.5 140.371 359.629 51.5 250 51.5C140.371 51.5 51.5 140.371 51.5 250C51.5 359.629 140.371 448.5 250 448.5Z" fill="white"/>
</mask>
<g mask="url(#mask12_201_717)">
<path d="M65 116.1C76 185.8 86.9 255.5 95.3 325.6C99.5 360.3 103 395 105.6 429.8C108.2 464.9 109.4 500 111.2 535.2C113.1 574 115.8 612.9 122.3 651.2C122.8 653.9 127.4 652.1 127 649.6C115.3 580.7 115.9 510.5 111.2 440.9C106.5 370.9 97.8 301.1 87.7 231.7C82 192.6 75.9 153.5 69.7 114.5C69.3 111.8 64.6 113.7 65 116.1Z" fill="white"/>
</g>
<mask id="mask13_201_717" style="mask-type:luminance" maskUnits="userSpaceOnUse" x="51" y="51" width="398" height="398">
<path d="M250 448.5C359.629 448.5 448.5 359.629 448.5 250C448.5 140.371 359.629 51.5 250 51.5C140.371 51.5 51.5 140.371 51.5 250C51.5 359.629 140.371 448.5 250 448.5Z" fill="white"/>
</mask>
<g mask="url(#mask13_201_717)">
<path d="M45.4 191.9C53.7 213.5 62 235.1 70.2 256.7C78.4 278.3 86.8 299.9 95 321.5C103.3 343.2 111.6 364.9 119.9 386.6C128.2 408.2 136.5 429.8 144.7 451.4C153 473 161.3 494.6 169.5 516.2C170.5 518.9 171.6 521.6 172.6 524.3C173 525.4 174 526.3 175 526.7C175.5 526.9 176.9 527.3 176.5 526.2C168.2 504.6 159.9 483 151.7 461.4C143.5 439.8 135.1 418.2 126.9 396.6C118.6 374.9 110.3 353.2 102 331.5C93.7 309.9 85.4 288.3 77.2 266.7C69 245.1 60.6 223.5 52.4 201.9C51.4 199.2 50.3 196.5 49.3 193.8C48.9 192.7 47.9 191.8 46.9 191.4C46.5 191.2 45 190.8 45.4 191.9Z" fill="white"/>
</g>
<mask id="mask14_201_717" style="mask-type:luminance" maskUnits="userSpaceOnUse" x="51" y="51" width="398" height="398">
<path d="M250 448.5C359.629 448.5 448.5 359.629 448.5 250C448.5 140.371 359.629 51.5 250 51.5C140.371 51.5 51.5 140.371 51.5 250C51.5 359.629 140.371 448.5 250 448.5Z" fill="white"/>
</mask>
<g mask="url(#mask14_201_717)">
<path d="M434.7 114.4C429 138.8 423.5 163.3 418.4 187.9C413.2 212.5 408.3 237.1 403.7 261.7C399.1 286.4 394.7 311.1 390.7 335.8C386.6 360.7 382.8 385.6 379.3 410.6C375.8 435.4 372.6 460.3 369.6 485.2C369.2 488.3 368.9 491.4 368.5 494.5C368.3 496.2 372.7 498.4 373 496.4C375.9 471.5 379 446.6 382.5 421.7C385.9 396.8 389.7 372 393.7 347.3C397.7 322.5 402 297.8 406.5 273.1C411.1 248.3 415.9 223.6 421 198.9C426.1 174.3 431.5 149.8 437.1 125.4C437.8 122.4 438.5 119.4 439.2 116.3C439.5 114.8 435.1 112.4 434.7 114.4Z" fill="white"/>
</g>
<mask id="mask15_201_717" style="mask-type:luminance" maskUnits="userSpaceOnUse" x="51" y="51" width="398" height="398">
<path d="M250 448.5C359.629 448.5 448.5 359.629 448.5 250C448.5 140.371 359.629 51.5 250 51.5C140.371 51.5 51.5 140.371 51.5 250C51.5 359.629 140.371 448.5 250 448.5Z" fill="white"/>
</mask>
<g mask="url(#mask15_201_717)">
<path d="M405.7 128.9C412.7 186.3 419.7 243.7 426.8 301.2C433.8 358.3 440.8 415.5 447.8 472.6C451.8 505 455.7 537.3 459.7 569.7C459.9 571.1 464.8 571.3 464.7 570.4C457.7 513 450.7 455.6 443.6 398.1C436.6 341 429.6 283.8 422.6 226.7C418.6 194.3 414.7 162 410.7 129.6C410.5 128.1 405.6 128 405.7 128.9Z" fill="white"/>
</g>
<mask id="mask16_201_717" style="mask-type:luminance" maskUnits="userSpaceOnUse" x="51" y="51" width="398" height="398">
<path d="M250 448.5C359.629 448.5 448.5 359.629 448.5 250C448.5 140.371 359.629 51.5 250 51.5C140.371 51.5 51.5 140.371 51.5 250C51.5 359.629 140.371 448.5 250 448.5Z" fill="white"/>
</mask>
<g mask="url(#mask16_201_717)">
<path d="M264 34.7999C273.9 116.6 281.5 198.7 286.8 280.9C292.1 362.8 295.1 444.9 295.9 527.1C296.3 573.4 296 619.6 295 665.9C295 668.1 299.9 668.6 300 666.4C301.8 583.9 301.4 501.3 298.6 418.8C295.8 336.3 290.7 253.9 283.4 171.7C279.3 125.9 274.5 80.0999 268.9 34.4999C268.6 32.3999 263.7 32.3999 264 34.7999Z" fill="white"/>
</g>
<mask id="mask17_201_717" style="mask-type:luminance" maskUnits="userSpaceOnUse" x="51" y="51" width="398" height="398">
<path d="M250 448.5C359.629 448.5 448.5 359.629 448.5 250C448.5 140.371 359.629 51.5 250 51.5C140.371 51.5 51.5 140.371 51.5 250C51.5 359.629 140.371 448.5 250 448.5Z" fill="white"/>
</mask>
<g mask="url(#mask17_201_717)">
<path d="M223.3 36C215.1 71.9 207.4 107.9 200.1 144C192.8 180.1 185.9 216.2 179.4 252.5C173 288.6 166.9 324.7 161.3 360.9C155.7 397.3 150.5 433.7 145.7 470.2C140.9 506.7 136.6 543.3 132.7 579.9C132.2 584.4 131.7 589 131.3 593.5C131.1 595.9 135.9 596.9 136.2 594.6C140 558 144.2 521.4 148.9 484.9C153.6 448.4 158.7 411.9 164.2 375.5C169.7 339.3 175.6 303.1 181.9 267C188.3 230.7 195.1 194.6 202.3 158.4C209.5 122.2 217.2 86.3 225.2 50.4C226.2 46 227.2 41.5 228.2 37.1C228.7 34.8 223.8 33.7 223.3 36Z" fill="white"/>
</g>
<mask id="mask18_201_717" style="mask-type:luminance" maskUnits="userSpaceOnUse" x="51" y="51" width="398" height="398">
<path d="M250 448.5C359.629 448.5 448.5 359.629 448.5 250C448.5 140.371 359.629 51.5 250 51.5C140.371 51.5 51.5 140.371 51.5 250C51.5 359.629 140.371 448.5 250 448.5Z" fill="white"/>
</mask>
<g mask="url(#mask18_201_717)">
<path d="M352.8 45.6C342.3 109 333.7 172.7 327 236.6C320.3 300 315.4 363.6 312.4 427.3C310.7 463.2 309.6 499.2 309 535.2C309 537.8 313.8 536.5 313.8 534.1C314.7 470.2 317.5 406.3 322.2 342.6C326.8 279 333.3 215.6 341.7 152.4C346.4 116.7 351.7 81.1 357.5 45.6C358 42.7 353.2 43.4 352.8 45.6Z" fill="white"/>
</g>
<mask id="mask19_201_717" style="mask-type:luminance" maskUnits="userSpaceOnUse" x="51" y="51" width="398" height="398">
<path d="M250 448.5C359.629 448.5 448.5 359.629 448.5 250C448.5 140.371 359.629 51.5 250 51.5C140.371 51.5 51.5 140.371 51.5 250C51.5 359.629 140.371 448.5 250 448.5Z" fill="white"/>
</mask>
<g mask="url(#mask19_201_717)">
<path d="M440.7 112.2C437.5 165.7 434.7 219.3 432.1 272.8C429.5 326.4 427.3 379.9 425.3 433.5C424.2 463.6 423.2 493.7 422.3 523.7C422.2 526.5 427.2 526.3 427.3 523.5C428.9 469.9 430.8 416.3 433.1 362.7C435.3 309.1 437.8 255.6 440.7 202C442.3 171.9 444 141.9 445.7 111.9C445.9 109.2 440.9 109.4 440.7 112.2Z" fill="white"/>
</g>
<mask id="mask20_201_717" style="mask-type:luminance" maskUnits="userSpaceOnUse" x="51" y="51" width="398" height="398">
<path d="M250 448.5C359.629 448.5 448.5 359.629 448.5 250C448.5 140.371 359.629 51.5 250 51.5C140.371 51.5 51.5 140.371 51.5 250C51.5 359.629 140.371 448.5 250 448.5Z" fill="white"/>
</mask>
<g mask="url(#mask20_201_717)">
<path d="M64.7 160.4C64 204.6 63.7 248.8 63.8 293C63.9 337 64.4 380.9 65.4 424.9C65.9 449.7 66.6 474.5 67.4 499.3C67.5 501.3 72.4 502.1 72.3 499.7C70.9 455.5 69.9 411.3 69.3 367.1C68.7 323.1 68.6 279.2 68.8 235.2C68.9 210.4 69.2 185.6 69.6 160.8C69.6 158.8 64.7 158 64.7 160.4Z" fill="white"/>
</g>
</svg>
