<svg width="500" height="500" viewBox="0 0 500 500" fill="none" xmlns="http://www.w3.org/2000/svg">
<mask id="mask0_201_741" style="mask-type:luminance" maskUnits="userSpaceOnUse" x="51" y="51" width="398" height="398">
<path d="M250 448.5C359.629 448.5 448.5 359.629 448.5 250C448.5 140.371 359.629 51.5 250 51.5C140.371 51.5 51.5 140.371 51.5 250C51.5 359.629 140.371 448.5 250 448.5Z" fill="white"/>
</mask>
<g mask="url(#mask0_201_741)">
<path d="M66.1998 93.3C97.3998 93.3 128.6 93.1999 159.8 93.1999C175 93.1999 190.3 93.7 205.5 92.4C212.7 91.8 219.9 90.6999 226.8 88.6999C232.4 87.0999 237.8 84.7 242.2 80.9C246.1 77.6 248.9 72.8999 248 67.6999C247.1 62.1999 241.8 58.2 236.3 58.2C230.8 58.3 224.8 61.5999 222.5 66.5999C220.3 71.4999 222.1 77.1 225.5 81C234.7 91.3999 250.9 87.8999 262.9 86.5999C278.3 84.9999 293.8 83.5999 309.2 82.1999C340.3 79.4999 371.5 77.2 402.7 75.4C406.6 75.2 410.6 74.8999 414.5 74.6999C415.6 74.5999 417 74.1 417.7 73.3C418.3 72.6 418.2 72.0999 417.2 72.0999C388.1 73.6999 359 75.6999 329.9 78.0999C315.5 79.2999 301.1 80.6 286.7 81.9C279.4 82.6 272.2 83.2999 264.9 84C258.2 84.7 251.4 85.8 244.7 85.3C238.8 84.8 233.1 82.8999 229.3 78.0999C226.3 74.1999 224.6 68.5999 227.4 64.1999C228.7 61.9999 230.8 60.4999 233.4 60.5999C236.2 60.5999 238.9 62.0999 240.7 64.1999C244.1 68.1999 244.1 73.7 241.1 77.9C238.2 82 233.5 84.5 228.9 85.9C222.3 87.9 215.5 88.9999 208.6 89.5999C194.6 90.8999 180.4 90.4 166.4 90.4C137.4 90.4 108.4 90.5 79.3998 90.5C75.7998 90.5 72.1998 90.5 68.6998 90.5C67.5998 90.5 66.1998 91.1 65.4998 91.9C64.9998 92.9 65.1998 93.3 66.1998 93.3Z" fill="white"/>
</g>
<mask id="mask1_201_741" style="mask-type:luminance" maskUnits="userSpaceOnUse" x="51" y="51" width="398" height="398">
<path d="M250 448.5C359.629 448.5 448.5 359.629 448.5 250C448.5 140.371 359.629 51.5 250 51.5C140.371 51.5 51.5 140.371 51.5 250C51.5 359.629 140.371 448.5 250 448.5Z" fill="white"/>
</mask>
<g mask="url(#mask1_201_741)">
<path d="M75.3002 111.6C94.1002 112.1 113 112.7 131.8 113.2C150.5 113.7 169.3 114.6 188 114.8C196 114.9 205.9 113.4 209.1 104.8C209.5 103.7 207.7 101.1 206.9 100.5C204 98.5001 200.8 96.5001 197.1 96.3001C194.4 96.2001 191.6 97.5001 190.2 99.8001C188.6 102.5 190 105.8 191.5 108.2C193.1 110.7 195.4 112.4 198.2 113.4C201.8 114.7 205.7 115.1 209.5 115.3C213.5 115.6 217.6 115.6 221.6 115.5C230.3 115.3 239 115 247.6 114.6C282 113.1 316.3 110.5 350.7 107.6C370.1 105.9 389.4 104.2 408.7 102.4C408.9 102.4 407.6 97.9001 406.4 98.0001C374.2 101 342 103.9 309.7 106.3C293.6 107.5 277.6 108.6 261.5 109.4C253.5 109.8 245.4 110.2 237.4 110.5C229.4 110.8 221.5 111.2 213.5 111.1C208.9 111 204.4 110.7 199.9 109.9C198.3 109.6 196.7 109.2 195.2 108.5C194.4 108.2 193.7 107.8 193 107.3C192.7 107.1 192.4 106.8 192.1 106.6C192 106.5 191.9 106.4 191.8 106.3C192.1 107 192.2 107.2 192.1 106.7C192.2 106.4 192.1 105.8 192.2 105.5C192.3 105.1 192.4 104.7 192.6 104.3C193 103.6 193.5 103 194.1 102.5C195.2 101.6 196.7 101 198.2 100.8C202.1 100.3 205.9 102.8 208.9 104.9C208.2 103.5 207.4 102.1 206.7 100.6C203.9 108.1 195.3 110.1 188.2 110.3C179.1 110.5 169.9 109.9 160.8 109.6C142.1 109.1 123.3 108.5 104.6 108C94.1002 107.7 83.5002 107.4 73.0002 107.1C72.6002 107.1 73.6002 109.4 73.7002 109.6C73.9002 110.2 74.5002 111.6 75.3002 111.6Z" fill="white"/>
</g>
<mask id="mask2_201_741" style="mask-type:luminance" maskUnits="userSpaceOnUse" x="51" y="51" width="398" height="398">
<path d="M250 448.5C359.629 448.5 448.5 359.629 448.5 250C448.5 140.371 359.629 51.5 250 51.5C140.371 51.5 51.5 140.371 51.5 250C51.5 359.629 140.371 448.5 250 448.5Z" fill="white"/>
</mask>
<g mask="url(#mask2_201_741)">
<path d="M66.7999 130.3C96.0999 139.6 127.4 142.5 157.9 138.5C163.4 137.8 170.4 137.2 174.5 132.9C176 131.3 176.8 128.9 176 126.8C175.2 124.6 173.1 123.3 170.9 122.6C166.2 121.1 158.6 121.1 154.9 124.8C150.7 129.1 154.8 135.3 159.3 137.2C162.3 138.4 165.6 138.7 168.8 139C172.8 139.3 176.8 139.6 180.9 139.9C189.2 140.4 197.5 140.8 205.8 141.1C222.2 141.6 238.5 141.7 254.9 141.4C287.5 140.8 320 138.6 352.5 135.7C385.2 132.7 417.8 129 450.4 125.1C454.4 124.6 458.4 124.1 462.4 123.7C463.2 123.6 465.1 123.3 465.3 122.4C465.5 121.4 463.9 121.4 463.3 121.5C433.4 125.1 403.5 128.6 373.6 131.6C343.8 134.6 313.9 137 284 138.3C254 139.6 223.9 139.8 193.8 138.3C186.3 137.9 178.7 137.4 171.2 136.8C165.9 136.4 158.2 135.3 158.1 128.4C158 122.7 166.4 123.3 169.6 125.9C171.4 127.3 172 129.8 170.8 131.8C169.6 133.8 167.1 134.8 165 135.3C158.6 136.9 151.5 137.2 144.9 137.6C137.7 138 130.6 138.1 123.4 137.8C109.2 137.2 95.0999 135 81.3999 131.5C77.8999 130.6 74.2999 129.6 70.8999 128.5C69.7999 128.2 68.4999 128.3 67.4999 128.8C66.9999 128.9 65.6999 129.9 66.7999 130.3Z" fill="white"/>
</g>
<mask id="mask3_201_741" style="mask-type:luminance" maskUnits="userSpaceOnUse" x="51" y="51" width="398" height="398">
<path d="M250 448.5C359.629 448.5 448.5 359.629 448.5 250C448.5 140.371 359.629 51.5 250 51.5C140.371 51.5 51.5 140.371 51.5 250C51.5 359.629 140.371 448.5 250 448.5Z" fill="white"/>
</mask>
<g mask="url(#mask3_201_741)">
<path d="M49 164.4C82.6 168.5 116.7 168.4 150.3 164.1C152.3 163.8 154.3 163.6 156.3 163.3C158 163.1 159.8 162.9 161.3 162.1C163.8 160.7 163.5 158 161.8 156.1C159.8 153.8 156.8 152.1 154 151C150.7 149.7 147.1 148.2 143.6 147.6C136.6 146.5 134 153.7 135.8 159.4C137.7 165.2 143.1 169.4 148.5 171.8C155.3 174.9 162.8 174.9 170.1 174.6C178.6 174.2 187 173.6 195.5 173C212.6 171.7 229.6 170 246.7 168.1C280.6 164.3 314.5 159.4 348.3 154.8C382.1 150.1 416 145.6 450 142.3C454.2 141.9 458.3 141.5 462.5 141.2C463.2 141.1 461.4 139.8 461.3 139.8C460.5 139.3 459.4 138.6 458.4 138.7C426.9 141.4 395.6 145.4 364.3 149.6C333.1 153.8 302 158.3 270.8 162.3C239.6 166.3 208.3 169.6 177 171.6C169.4 172.1 161.4 173 153.8 171.9C150.4 171.4 147.2 170.4 144.6 168C142.4 166 140.8 163.3 140.1 160.4C139.5 157.6 139.8 154.4 141.7 152.1C144.4 148.9 148.3 150.4 151.6 151.5C154.2 152.4 158.4 153.2 158.9 156.5C159.4 160.3 154.1 160.5 151.6 160.9C120.4 165.4 88.7 166.1 57.3 163.2C53.4 162.8 49.5 162.4 45.7 161.9C44.6 161.8 45.9 162.8 46.1 163C46.7 163.6 47.9 164.3 49 164.4Z" fill="white"/>
</g>
<mask id="mask4_201_741" style="mask-type:luminance" maskUnits="userSpaceOnUse" x="51" y="51" width="398" height="398">
<path d="M250 448.5C359.629 448.5 448.5 359.629 448.5 250C448.5 140.371 359.629 51.5 250 51.5C140.371 51.5 51.5 140.371 51.5 250C51.5 359.629 140.371 448.5 250 448.5Z" fill="white"/>
</mask>
<g mask="url(#mask4_201_741)">
<path d="M36.6002 197.7C53.6002 199.6 70.7002 199.3 87.6002 196.5C92.0002 195.8 96.4002 194.9 100.7 193.8C102.7 193.3 104.6 192.8 106.5 192.3C108 191.9 109.6 191.5 110.7 190.3C113 187.9 110.7 185 108.4 183.6C105.9 182 102.7 181.4 99.8002 181C94.0002 180.4 86.5002 181.8 86.9002 189.2C87.2002 196.3 94.0002 199.8 100.1 201.3C116.7 205.4 134.6 204.4 151.5 202.7C169.8 200.8 188 198.3 206.3 196.2C224.7 194.1 243.1 192.1 261.5 190.3C298.3 186.6 335.2 183.4 372.2 180.7C409.3 178 446.4 175.8 483.5 174.2C488 174 492.6 173.8 497.1 173.6C497.8 173.6 498.5 173.6 498 173C497.6 172.5 495.2 172.5 494.6 172.6C460.9 174 427.2 175.8 393.6 178C359.8 180.2 326.1 182.9 292.4 186C258.7 189.1 225 192.6 191.4 196.5C174.8 198.4 158.3 200.9 141.6 202.3C133 203 124.4 203.3 115.8 202.7C108.8 202.2 99.6002 201.7 94.5002 196.2C90.4002 191.7 90.6002 181.8 98.5002 181.8C101.3 181.8 106 183.9 106.5 187.1C107 190.9 101.4 191.6 98.8002 192.3C83.0002 196.4 66.6002 198.3 50.3002 197.7C46.1002 197.6 42.0002 197.2 37.9002 196.8C37.5002 196.8 35.0002 196.4 34.8002 196.9C34.7002 197.6 36.2002 197.7 36.6002 197.7Z" fill="white"/>
</g>
<mask id="mask5_201_741" style="mask-type:luminance" maskUnits="userSpaceOnUse" x="51" y="51" width="398" height="398">
<path d="M250 448.5C359.629 448.5 448.5 359.629 448.5 250C448.5 140.371 359.629 51.5 250 51.5C140.371 51.5 51.5 140.371 51.5 250C51.5 359.629 140.371 448.5 250 448.5Z" fill="white"/>
</mask>
<g mask="url(#mask5_201_741)">
<path d="M25.7999 233.7C35.1999 233.8 44.4999 233.4 53.8999 232.6C58.4999 232.2 63.0999 231.9 67.6999 231C70.6999 230.4 73.7999 229.3 75.3999 226.5C77.9999 221.8 75.4999 215.3 71.4999 212.3C66.4999 208.6 59.3999 211.8 57.9999 217.7C56.6999 223.6 61.5999 228.9 66.6999 230.9C73.3999 233.6 81.3999 232.8 88.3999 232.7C107.5 232.5 126.6 231.5 145.7 230.4C183.9 228.3 222.1 226.1 260.3 223.8C298.3 221.5 336.4 219.1 374.4 216.3C412.6 213.5 450.7 210.4 488.8 206.8C493.5 206.4 498.2 205.9 503 205.4C504.7 205.2 502.4 200.9 500.8 201.1C465.7 204.5 430.6 207.5 395.4 210.2C360.2 212.9 325.1 215.3 289.9 217.5C254.7 219.7 219.5 221.7 184.3 223.7C149.3 225.7 114.2 228.3 79.1999 228.3C75.7999 228.3 72.4999 228.3 69.0999 227.7C66.6999 227.2 63.2999 226.4 61.7999 224.2C58.2999 219 68.4999 211.2 72.2999 216.3C73.6999 218.2 73.1999 221.3 71.9999 223.1C70.0999 226 66.1999 226.5 62.9999 226.9C54.2999 228 45.5999 228.7 36.8999 229C32.4999 229.2 28.1999 229.2 23.7999 229.2C22.0999 229.4 24.1999 233.7 25.7999 233.7Z" fill="white"/>
</g>
<mask id="mask6_201_741" style="mask-type:luminance" maskUnits="userSpaceOnUse" x="51" y="51" width="398" height="398">
<path d="M250 448.5C359.629 448.5 448.5 359.629 448.5 250C448.5 140.371 359.629 51.5 250 51.5C140.371 51.5 51.5 140.371 51.5 250C51.5 359.629 140.371 448.5 250 448.5Z" fill="white"/>
</mask>
<g mask="url(#mask6_201_741)">
<path d="M27.2 259C55.8 259.2 84.4 257.4 112.8 253.6C113.8 253.5 115.3 252.6 115.3 251.5C115.1 240.4 98.8 237.8 94.3 247.6C92.5 251.6 93.2 256.8 96.6 259.7C98.9 261.7 102 262.4 105 262.8C108.8 263.3 112.6 263.6 116.4 263.8C148.1 266 180.1 262.8 211.6 259.3C243.1 255.8 274.4 251.4 305.8 246.9C337.1 242.4 368.5 237.9 399.9 234.3C431.5 230.6 463.3 227.9 495.1 227C499 226.9 502.9 226.8 506.8 226.8C507.9 226.8 509.5 226.3 509.8 225.1C510.1 224 509.3 223.2 508.2 223.2C449.1 224 390.4 231.5 331.9 239.8C302.5 243.9 273.2 248.3 243.8 252C214.3 255.8 184.6 259.3 154.9 260.6C146.5 260.9 138 261.1 129.5 260.8C121.6 260.6 113.3 260.5 105.5 259C102.3 258.4 99.6 257 98.6 253.7C98 251.5 98.2 248.8 99.6 246.9C103.1 241.7 110.4 247.5 110.6 252.2C111.4 251.5 112.3 250.8 113.1 250.1C85.1 253.8 57 255.6 28.8 255.4C27.7 255.4 26.1 255.9 25.8 257.1C25.2 258.2 26.1 259 27.2 259Z" fill="white"/>
</g>
<mask id="mask7_201_741" style="mask-type:luminance" maskUnits="userSpaceOnUse" x="51" y="51" width="398" height="398">
<path d="M250 448.5C359.629 448.5 448.5 359.629 448.5 250C448.5 140.371 359.629 51.5 250 51.5C140.371 51.5 51.5 140.371 51.5 250C51.5 359.629 140.371 448.5 250 448.5Z" fill="white"/>
</mask>
<g mask="url(#mask7_201_741)">
<path d="M22.5998 290.5C41.7998 292 61.0998 293 80.2998 293.2C89.8998 293.3 99.5998 293.3 109.2 293.1C117.1 292.9 125.2 293.1 133 291.5C139.6 290.2 146.4 287.5 150.7 282C152.6 279.6 154 276.2 153 273.1C152 270 149 268.4 146 268C140.2 267.1 131.4 269.7 130.5 276.4C129.5 283.6 136.3 288.4 142.5 289.7C146.6 290.5 150.7 290.4 154.9 290.3C159.6 290.2 164.3 290.1 169 289.9C178.3 289.6 187.6 289.1 196.9 288.5C215.5 287.3 234.1 285.5 252.6 283.5C290 279.4 327.4 274.2 364.8 269.7C402.1 265.2 439.5 261.5 477 260.5C481.7 260.4 486.4 260.3 491.1 260.2C492 260.2 493.6 259.9 493.7 258.7C493.7 257.6 492.2 256.9 491.3 257C456.7 257.3 422.1 260.1 387.6 263.8C353 267.6 318.6 272.3 284 276.6C249.7 280.8 215.3 284.5 180.7 286.2C172 286.6 163.3 286.9 154.5 287.1C147.9 287.2 138.2 287.9 135.7 280.1C134.6 276.6 136.1 273.6 139.4 272.2C141.9 271.2 146.2 270.3 147.8 273.3C149.4 276.5 146.7 280.2 144.5 282.3C142.1 284.6 139.2 286.2 136 287.2C129.5 289.4 122.5 289.6 115.7 289.8C106.8 290 97.9998 290.2 89.0998 290.1C71.1998 290 53.3998 289.4 35.4998 288.3C31.1998 288 26.7998 287.7 22.4998 287.3C19.5998 287 19.4998 290.3 22.5998 290.5Z" fill="white"/>
</g>
<mask id="mask8_201_741" style="mask-type:luminance" maskUnits="userSpaceOnUse" x="51" y="51" width="398" height="398">
<path d="M250 448.5C359.629 448.5 448.5 359.629 448.5 250C448.5 140.371 359.629 51.5 250 51.5C140.371 51.5 51.5 140.371 51.5 250C51.5 359.629 140.371 448.5 250 448.5Z" fill="white"/>
</mask>
<g mask="url(#mask8_201_741)">
<path d="M38.3999 324.7C78.4999 325.2 118.7 325.6 158.8 324.4C168.7 324.1 178.7 323.7 188.6 323.1C196.9 322.6 205.2 321.9 213.2 319.7C217.1 318.6 220.9 317.1 224.4 315.2C227.5 313.5 231.1 311.1 232.2 307.5C234.3 300.6 225.2 297.6 220.2 296.5C214.6 295.3 206.6 294 201.6 297.9C195.9 302.3 198.9 310.2 204 313.7C210.6 318.3 219.9 317.1 227.3 316C237.4 314.6 247.5 313.2 257.6 311.9C297.4 306.6 337.3 301.6 377.2 297C417.3 292.4 457.4 288.2 497.5 284.3C502.5 283.8 507.5 283.4 512.5 282.9C515.6 282.6 511.2 281.5 510.1 281.6C473.2 285 436.3 288.8 399.5 292.9C362.5 297 325.6 301.4 288.7 306.1C270.3 308.5 252 310.9 233.6 313.4C229.1 314 224.6 314.7 220.1 315.2C215.6 315.7 210.9 315.8 207.3 312.6C202.3 308.1 201.8 299.6 209.1 297.2C212.1 296.2 215.4 296.7 218.4 297.5C221.4 298.2 224.8 299.4 226.5 302.1C231.2 309.5 218.3 315.2 213.3 317.1C205.7 319.9 197.6 320.9 189.6 321.4C180.5 322 171.4 322.4 162.3 322.7C125.2 324 88.0999 323.8 51.0999 323.4C46.3999 323.3 41.6999 323.3 36.9999 323.2C36.4999 323.2 34.9999 323.1 35.1999 323.8C35.4999 324.6 37.9999 324.7 38.3999 324.7Z" fill="white"/>
</g>
<mask id="mask9_201_741" style="mask-type:luminance" maskUnits="userSpaceOnUse" x="51" y="51" width="398" height="398">
<path d="M250 448.5C359.629 448.5 448.5 359.629 448.5 250C448.5 140.371 359.629 51.5 250 51.5C140.371 51.5 51.5 140.371 51.5 250C51.5 359.629 140.371 448.5 250 448.5Z" fill="white"/>
</mask>
<g mask="url(#mask9_201_741)">
<path d="M69.6002 356.5C105.2 358.7 140.9 357.1 176.3 353.3C212 349.6 247.3 343.8 282.7 338C289.2 336.9 297.1 336 301.4 330.3C305 325.6 304.8 318.6 299.7 315.1C296.7 313 293.1 312.7 289.5 312.9C286.4 313.1 282.9 313.5 280.1 314.9C274.2 317.8 273.6 324.4 277.1 329.5C281.3 335.6 288.9 336.8 295.8 336.9C304.5 337 313.2 336.7 321.9 336.3C339.5 335.7 357.1 334.5 374.7 332.8C409.8 329.4 444.7 324 479.2 316.5C483.5 315.6 487.7 314.6 492 313.6C495 312.9 492 309.5 489.9 309.9C458.1 317.3 425.8 322.9 393.4 326.8C361.1 330.7 328.6 332.8 296.1 333.1C290 333.2 281.6 332.9 279.8 325.6C278.1 318.4 286.3 316.8 291.6 316.4C294.6 316.2 298 316.5 298.9 319.8C299.6 322.5 298.6 325.5 297 327.6C292.8 333.1 284.2 333.5 278 334.5C245.4 339.8 212.7 345.1 179.8 348.7C147 352.3 113.9 354.4 80.9002 353.1C76.7002 352.9 72.6002 352.7 68.4002 352.5C65.3002 352.7 67.2002 356.4 69.6002 356.5Z" fill="white"/>
</g>
<mask id="mask10_201_741" style="mask-type:luminance" maskUnits="userSpaceOnUse" x="51" y="51" width="398" height="398">
<path d="M250 448.5C359.629 448.5 448.5 359.629 448.5 250C448.5 140.371 359.629 51.5 250 51.5C140.371 51.5 51.5 140.371 51.5 250C51.5 359.629 140.371 448.5 250 448.5Z" fill="white"/>
</mask>
<g mask="url(#mask10_201_741)">
<path d="M88.8002 384.1C124.5 386.1 160.3 388.3 196 388.2C213.6 388.1 231.3 387.2 248.7 384.3C266 381.4 283 376.8 299.9 372.6C317.2 368.3 334.5 363.9 351.8 359.6C357.8 358.1 368.3 356.8 366.5 348.1C365.2 341.8 358.5 338 352.6 337.7C346.1 337.3 339.2 340.3 336.4 346.5C333.7 352.5 336.8 358.2 342.6 360.7C348.9 363.4 356.3 362.8 363 362.8C372.1 362.9 381.2 362.8 390.2 362.7C426 362.1 461.7 359.9 497.4 357.5C501.9 357.2 506.3 356.9 510.8 356.6C513.9 356.4 514 351.9 510.7 352.1C477.5 354.3 444.3 356.6 411 357.7C394.5 358.2 378 358.5 361.5 358.4C355.7 358.3 348.7 359.1 343.4 356C337.5 352.6 340.7 345.3 346 343.2C351 341.2 358 342.6 360.7 347.6C361.3 348.7 361.8 350.3 361.3 351.5C360.6 353 358.7 353.4 357.2 353.8C353.4 354.8 349.5 355.7 345.7 356.7C329.6 360.7 313.5 364.7 297.4 368.8C281.5 372.8 265.6 377.1 249.5 379.9C233.6 382.7 217.5 383.7 201.4 384C168.4 384.5 135.3 382.5 102.3 380.7C98.1002 380.5 93.9002 380.2 89.7002 380C88.4002 379.9 87.1002 380.5 86.7002 381.8C86.7002 382.6 87.6002 384 88.8002 384.1Z" fill="white"/>
</g>
<mask id="mask11_201_741" style="mask-type:luminance" maskUnits="userSpaceOnUse" x="51" y="51" width="398" height="398">
<path d="M250 448.5C359.629 448.5 448.5 359.629 448.5 250C448.5 140.371 359.629 51.5 250 51.5C140.371 51.5 51.5 140.371 51.5 250C51.5 359.629 140.371 448.5 250 448.5Z" fill="white"/>
</mask>
<g mask="url(#mask11_201_741)">
<path d="M104.1 411.4C135.8 415.1 167.8 415.9 199.7 415.3C231.6 414.7 263.5 412.9 295.3 410.9C310.9 409.9 326.5 408.5 341.6 404.4C356.4 400.5 370.5 394.7 384.6 388.8C389.5 386.7 396.1 384.6 398 378.9C399.8 373.4 395.2 367.7 390.5 365.4C385.3 362.8 379.5 364.6 375.9 369.1C372.4 373.5 370.3 380.9 375.2 385.1C377.7 387.3 381.3 387.8 384.4 388.4C388 389.1 391.7 389.6 395.4 389.8C402.7 390.3 410 390 417.3 389.4C432.3 388.1 447.2 385.4 462.2 384.8C465.9 384.6 469.7 384.6 473.4 384.8C475.5 384.9 472.7 381 471.2 380.9C443.4 379.7 415.9 388.8 388.2 385.4C384.8 385 381.3 384.4 377.9 383.5C377.5 383.4 377.1 383.2 376.7 383.1C376.6 383.1 376 382.7 376.3 383C376.6 383.4 376.2 382.4 376.2 382.2C376.1 381.8 376.2 381.4 376.2 380.9C376.3 379.6 376.6 378.2 377.1 376.9C378.9 372 383.8 366.9 389.5 368C391.8 368.4 393.9 369.9 394.5 372.2C395.2 374.9 393.8 377.5 391.9 379.3C389.9 381.2 387.4 382.4 384.8 383.5C381.6 384.9 378.5 386.2 375.3 387.5C362.1 393 348.6 398.1 334.7 401.5C320.5 404.9 305.9 406.1 291.3 407C261.7 408.8 232.2 410.5 202.6 411.2C172.6 411.9 142.6 411.4 112.8 408.5C109.2 408.2 105.6 407.8 101.9 407.3C100.8 407.2 101.1 408.4 101.4 409C101.9 410.1 103 411.3 104.1 411.4Z" fill="white"/>
</g>
<mask id="mask12_201_741" style="mask-type:luminance" maskUnits="userSpaceOnUse" x="51" y="51" width="398" height="398">
<path d="M250 448.5C359.629 448.5 448.5 359.629 448.5 250C448.5 140.371 359.629 51.5 250 51.5C140.371 51.5 51.5 140.371 51.5 250C51.5 359.629 140.371 448.5 250 448.5Z" fill="white"/>
</mask>
<g mask="url(#mask12_201_741)">
<path d="M155.7 436.6C172.6 436.3 189.5 436.1 206.4 435.8C223.2 435.6 240 435.4 256.8 434.8C273.5 434.1 290.2 432.5 306.8 430.2C323.5 427.9 340.1 425.3 356.7 422.9C375.5 420.1 394.3 417.3 413 414.5C414.1 414.3 415.4 413.3 415.3 412.1C415.2 410.8 413.8 410.7 412.8 410.8C379.5 415.7 346.3 420.8 313 425.6C296.5 428 280 429.8 263.3 430.7C246.7 431.5 230.1 431.7 213.5 431.9C194.6 432.2 175.6 432.5 156.7 432.7C155.6 432.7 154.1 433.5 153.8 434.7C153.6 436 154.6 436.6 155.7 436.6Z" fill="white"/>
</g>
<mask id="mask13_201_741" style="mask-type:luminance" maskUnits="userSpaceOnUse" x="51" y="51" width="398" height="398">
<path d="M250 448.5C359.629 448.5 448.5 359.629 448.5 250C448.5 140.371 359.629 51.5 250 51.5C140.371 51.5 51.5 140.371 51.5 250C51.5 359.629 140.371 448.5 250 448.5Z" fill="white"/>
</mask>
<g mask="url(#mask13_201_741)">
<path d="M165.2 60.9C185.6 60.6 206 60.4 226.4 60.1C236.6 60 246.8 59.8 257 59.7C261.8 59.6 266.6 59.8 271.4 59.4C275.4 59.1 279.9 58.2 282.8 55.1C285.3 52.4 286.7 48.5 285.5 44.9C284.2 41.1 280.8 38.8 276.9 38.6C273.3 38.4 269.7 40 266.7 41.8C265 42.9 263.7 44.4 264.1 46.5C264.5 48.7 266.2 50.4 268 51.6C269.8 52.7 272.1 53.3 274.2 53.8C276.6 54.4 279 54.7 281.4 54.9C286.4 55.4 291.4 55.5 296.4 55.7C306.6 56 316.8 55.9 326.9 55.6C347.3 54.9 367.6 53.3 387.9 51.5C390.4 51.3 392.9 51.1 395.3 50.8C398.2 50.5 396.5 46 394.1 46.2C375.4 47.9 356.6 49.5 337.8 50.5C319.2 51.4 300.3 51.9 281.7 50.4C279.5 50.2 277.3 49.9 275.1 49.5C273.2 49.1 271 48.7 269.4 47.7C268.2 47 268 46.7 269.3 45.9C270.6 45 272.1 44.4 273.5 43.8C275.7 43 279.3 42.2 281 44.2C282.7 46.2 281.1 49.6 279.5 51.3C276.9 54 272.9 54.5 269.4 54.7C264.9 54.9 260.4 54.9 255.9 54.9C246.4 55 237 55.1 227.5 55.3C208.7 55.5 189.8 55.8 171 56C168.7 56 166.4 56.1 164 56.1C161.1 56.3 162.8 60.9 165.2 60.9Z" fill="white"/>
</g>
</svg>
