<svg width="500" height="500" viewBox="0 0 500 500" fill="none" xmlns="http://www.w3.org/2000/svg">
<mask id="mask0_201_744" style="mask-type:luminance" maskUnits="userSpaceOnUse" x="51" y="51" width="398" height="398">
<path d="M250 448.5C359.629 448.5 448.5 359.629 448.5 250C448.5 140.371 359.629 51.5 250 51.5C140.371 51.5 51.5 140.371 51.5 250C51.5 359.629 140.371 448.5 250 448.5Z" fill="white"/>
</mask>
<g mask="url(#mask0_201_744)">
<path d="M157.1 29.7C176.6 44.1 199.2 54.1 222.7 59.6C246.3 65 270.9 65.8 294.7 61.9C308.3 59.7 321.6 55.8 334.3 50.5C334.9 50.3 336.5 49.3 336.1 48.5C335.7 47.6 333.9 48.4 333.4 48.6C311.7 57.6 288.1 61.8 264.6 61.5C241.1 61.2 217.5 56.2 195.8 47C183.5 41.8 171.8 35.1 161.1 27.2C160.1 26.2 155.9 28.8 157.1 29.7Z" fill="white"/>
</g>
<mask id="mask1_201_744" style="mask-type:luminance" maskUnits="userSpaceOnUse" x="51" y="51" width="398" height="398">
<path d="M250 448.5C359.629 448.5 448.5 359.629 448.5 250C448.5 140.371 359.629 51.5 250 51.5C140.371 51.5 51.5 140.371 51.5 250C51.5 359.629 140.371 448.5 250 448.5Z" fill="white"/>
</mask>
<g mask="url(#mask1_201_744)">
<path d="M185.4 51.1C203.6 60.9 223.8 66.6 244.3 69C265.9 71.5 287.8 70.2 309.2 66.4C321.5 64.2 333.6 61.1 345.5 57.5C346.4 57.2 346.4 56.5 345.6 56.1C344.6 55.6 343.1 55.6 342.1 55.9C321.8 62.1 300.9 66.5 279.6 67.9C259.6 69.2 239.4 67.6 220 62.2C209.3 59.2 198.9 55.1 189.1 49.9C188.1 49.4 186.6 49.4 185.6 49.7C184.6 50.1 184.6 50.7 185.4 51.1Z" fill="white"/>
</g>
<mask id="mask2_201_744" style="mask-type:luminance" maskUnits="userSpaceOnUse" x="51" y="51" width="398" height="398">
<path d="M250 448.5C359.629 448.5 448.5 359.629 448.5 250C448.5 140.371 359.629 51.5 250 51.5C140.371 51.5 51.5 140.371 51.5 250C51.5 359.629 140.371 448.5 250 448.5Z" fill="white"/>
</mask>
<g mask="url(#mask2_201_744)">
<path d="M173.9 54.9C195.6 70.1 222 75.7 247.9 78.2C262.6 79.6 277.4 80.4 292.2 79.9C299.8 79.6 307.5 79 315 77.7C322 76.6 329 74.9 335.9 73.1C351.7 68.9 367.4 63.8 383.7 61.7C385.3 61.5 383 57.1 381.6 57.3C367.3 59.1 353.4 63.3 339.5 67.1C332.5 69 325.6 70.9 318.5 72.3C311.2 73.7 303.9 74.7 296.5 75.2C281.6 76.2 266.7 75.5 251.8 74.3C238.8 73.2 225.8 71.6 213.1 68.4C199 64.9 185.3 59.4 173.3 51.1C172.5 50.5 171.9 51 172.1 51.9C172.2 53 173 54.3 173.9 54.9Z" fill="white"/>
</g>
<mask id="mask3_201_744" style="mask-type:luminance" maskUnits="userSpaceOnUse" x="51" y="51" width="398" height="398">
<path d="M250 448.5C359.629 448.5 448.5 359.629 448.5 250C448.5 140.371 359.629 51.5 250 51.5C140.371 51.5 51.5 140.371 51.5 250C51.5 359.629 140.371 448.5 250 448.5Z" fill="white"/>
</mask>
<g mask="url(#mask3_201_744)">
<path d="M144.7 57.8C158.5 65.7 173.3 71.9 188.4 76.6C203.6 81.3 219.1 84.5 234.8 86.7C250.7 88.8 266.8 89.8 282.9 90C299.8 90.2 316.7 89.6 333.4 87.8C350.6 86 367.6 82.8 384.1 77.6C386.1 77 388.1 76.3 390.1 75.6C390.1 75.6 388 71.2 387.2 71.5C371 77.2 354.2 80.8 337.3 82.9C320.4 85 303.4 85.8 286.4 85.9C270.4 85.9 254.4 85.2 238.5 83.4C222.6 81.6 206.8 78.6 191.4 74.3C176.1 69.9 161.2 64.2 147.2 56.7C145.5 55.8 143.8 54.8 142.1 53.9C141.8 53.7 142.7 55.4 142.8 55.5C143.3 56.2 143.9 57.3 144.7 57.8Z" fill="white"/>
</g>
<mask id="mask4_201_744" style="mask-type:luminance" maskUnits="userSpaceOnUse" x="51" y="51" width="398" height="398">
<path d="M250 448.5C359.629 448.5 448.5 359.629 448.5 250C448.5 140.371 359.629 51.5 250 51.5C140.371 51.5 51.5 140.371 51.5 250C51.5 359.629 140.371 448.5 250 448.5Z" fill="white"/>
</mask>
<g mask="url(#mask4_201_744)">
<path d="M225.8 49.9C246.5 56.7 268.7 58.9 290.3 56.3C296.4 55.6 302.4 54.4 308.4 53C309.5 52.7 309 51.5 308.5 50.9C307.7 50.1 306.4 49.5 305.2 49.8C284.9 54.9 263.5 55.4 243 51.4C237.2 50.3 231.5 48.8 225.9 46.9C225.1 46.6 223.7 46.5 223.6 47.6C223.4 48.7 225 49.7 225.8 49.9Z" fill="white"/>
</g>
<mask id="mask5_201_744" style="mask-type:luminance" maskUnits="userSpaceOnUse" x="51" y="51" width="398" height="398">
<path d="M250 448.5C359.629 448.5 448.5 359.629 448.5 250C448.5 140.371 359.629 51.5 250 51.5C140.371 51.5 51.5 140.371 51.5 250C51.5 359.629 140.371 448.5 250 448.5Z" fill="white"/>
</mask>
<g mask="url(#mask5_201_744)">
<path d="M138 66.6C150.6 76.2 165.3 82.4 180.5 86.6C195.8 90.8 211.5 93 227.2 94.8C245.6 97 264.1 99.1 282.6 100.1C300.8 101 319.1 100.4 337.2 98C355.2 95.6 372.9 91.6 390.1 85.9C392.2 85.2 394.4 84.5 396.5 83.7C399.5 82.6 396.7 79 394.3 79.8C377.5 85.8 360.1 90.2 342.5 93C324.9 95.8 307 96.9 289.1 96.4C270.5 95.9 251.9 93.8 233.4 91.6C217.9 89.8 202.4 88 187.1 84.3C172.4 80.8 157.9 75.6 145.3 67.1C143.7 66 142.1 64.9 140.5 63.7C139.6 63 138 62.8 137.1 63.7C136.5 64.7 137.1 66 138 66.6Z" fill="white"/>
</g>
<mask id="mask6_201_744" style="mask-type:luminance" maskUnits="userSpaceOnUse" x="51" y="51" width="398" height="398">
<path d="M250 448.5C359.629 448.5 448.5 359.629 448.5 250C448.5 140.371 359.629 51.5 250 51.5C140.371 51.5 51.5 140.371 51.5 250C51.5 359.629 140.371 448.5 250 448.5Z" fill="white"/>
</mask>
<g mask="url(#mask6_201_744)">
<path d="M114.4 63.7C128.8 74.5 145 82.8 161.8 89.1C179 95.5 196.8 99.8 214.9 102.6C234.7 105.6 254.8 106.8 274.8 107.4C284.9 107.7 295.1 107.9 305.2 108C314.4 108.1 323.7 108.2 332.9 108C351.1 107.4 369.5 105.3 386.7 98.8C388.8 98 390.9 97.1 393 96.2C393 96.2 391 95.1 390.8 95C390.3 94.8 389 94 388.4 94.3C372.1 101.7 354.4 104.7 336.7 105.7C318.4 106.8 300 106.2 281.7 105.8C262.3 105.4 242.8 104.6 223.5 102.4C205.4 100.3 187.4 97 170.1 91.4C153.9 86.2 138.3 79 124.3 69.3C122.5 68.1 120.7 66.8 118.9 65.4C118.1 64.8 117.1 64.4 116.1 64C115.7 63.8 115.1 63.5 114.7 63.5C114.7 63.6 114.2 63.5 114.4 63.7Z" fill="white"/>
</g>
<mask id="mask7_201_744" style="mask-type:luminance" maskUnits="userSpaceOnUse" x="51" y="51" width="398" height="398">
<path d="M250 448.5C359.629 448.5 448.5 359.629 448.5 250C448.5 140.371 359.629 51.5 250 51.5C140.371 51.5 51.5 140.371 51.5 250C51.5 359.629 140.371 448.5 250 448.5Z" fill="white"/>
</mask>
<g mask="url(#mask7_201_744)">
<path d="M120.8 74.4C135.5 85.3 152.2 93.4 169.6 99.2C188 105.4 207.2 109 226.5 111.2C247.1 113.6 267.7 114.4 288.4 115.1C308.9 115.9 329.3 116.5 349.8 115.9C370.1 115.3 390.5 113.6 410.5 109.5C413 109 415.5 108.5 418 107.9C419.2 107.6 420.4 106.8 420.2 105.5C420.1 104.3 418.6 103.4 417.5 103.7C397.8 108.2 377.7 110.5 357.6 111.4C337.5 112.3 317.4 111.9 297.3 111.2C276.9 110.5 256.4 109.8 236 107.9C216.6 106.1 197.3 103 178.6 97.5C161.3 92.3 144.5 85.1 129.4 74.9C127.6 73.7 125.8 72.4 124 71.1C121.7 69.3 118.2 72.5 120.8 74.4Z" fill="white"/>
</g>
<mask id="mask8_201_744" style="mask-type:luminance" maskUnits="userSpaceOnUse" x="51" y="51" width="398" height="398">
<path d="M250 448.5C359.629 448.5 448.5 359.629 448.5 250C448.5 140.371 359.629 51.5 250 51.5C140.371 51.5 51.5 140.371 51.5 250C51.5 359.629 140.371 448.5 250 448.5Z" fill="white"/>
</mask>
<g mask="url(#mask8_201_744)">
<path d="M121.9 85.8C136.9 98.2 154.4 107 173.2 111.9C183.3 114.5 193.5 116.1 203.8 117.5C214 118.9 224.1 120.2 234.3 121.4C254.7 123.8 275.1 125.6 295.6 126.4C315.9 127.2 336.3 127 356.6 125.1C376.8 123.3 396.9 119.8 416.4 114.2C418.8 113.5 421.2 112.8 423.6 112C424.7 111.7 425.9 111.1 426.7 110.2C427.2 109.6 427.2 109.1 426.2 109.4C407 115.4 387.2 119.3 367.2 121.6C347.2 123.8 327 124.4 306.8 123.9C286.3 123.4 265.9 121.7 245.5 119.5C235.4 118.4 225.4 117.2 215.3 115.8C205.1 114.5 194.9 113.1 184.8 111C165.6 106.9 147.4 99.4 131.6 87.7C129.7 86.3 127.8 84.8 126 83.3C125.2 82.5 121.5 85.5 121.9 85.8Z" fill="white"/>
</g>
<mask id="mask9_201_744" style="mask-type:luminance" maskUnits="userSpaceOnUse" x="51" y="51" width="398" height="398">
<path d="M250 448.5C359.629 448.5 448.5 359.629 448.5 250C448.5 140.371 359.629 51.5 250 51.5C140.371 51.5 51.5 140.371 51.5 250C51.5 359.629 140.371 448.5 250 448.5Z" fill="white"/>
</mask>
<g mask="url(#mask9_201_744)">
<path d="M114.3 87C130.7 98.9 148.8 108.3 167.8 115.5C187 122.8 207.1 127.7 227.4 130.9C250.1 134.5 273.1 135.8 296.1 136C319 136.2 341.9 135.4 364.8 133.9C387.2 132.4 409.7 129.9 431.5 124.8C434.2 124.2 437 123.5 439.7 122.7C440.4 122.5 438.6 118 437.2 118.4C415.3 124.3 392.8 127.3 370.2 129C347.6 130.7 324.9 131.6 302.3 131.7C279.5 131.8 256.7 130.8 234.1 127.9C213.5 125.2 193.1 120.7 173.4 114C154.2 107.4 135.8 98.7 119 87.4C116.9 86 114.8 84.5 112.8 83C111.9 82.3 112.2 83.9 112.3 84.3C112.7 85.2 113.4 86.3 114.3 87Z" fill="white"/>
</g>
<mask id="mask10_201_744" style="mask-type:luminance" maskUnits="userSpaceOnUse" x="51" y="51" width="398" height="398">
<path d="M250 448.5C359.629 448.5 448.5 359.629 448.5 250C448.5 140.371 359.629 51.5 250 51.5C140.371 51.5 51.5 140.371 51.5 250C51.5 359.629 140.371 448.5 250 448.5Z" fill="white"/>
</mask>
<g mask="url(#mask10_201_744)">
<path d="M97.7 93C117.3 103.7 137 114.4 157.7 122.8C179 131.5 201.2 136.8 223.8 140.5C246.2 144.2 268.8 146.7 291.4 147.6C314 148.6 336.7 148.2 359.2 146.1C381.7 144 404.1 140.3 426 134.7C428.8 134 431.5 133.3 434.2 132.5C436.9 131.7 434.4 127.6 432.3 128.2C410.7 134.2 388.6 138.4 366.4 140.9C344.2 143.4 321.8 144.3 299.4 143.7C276.9 143.1 254.5 141 232.3 137.7C209.8 134.3 187.4 129.9 166 122C145.2 114.3 125.6 104 106.1 93.5C103.7 92.2 101.4 90.9 99 89.6C96.2 88 95.2 91.7 97.7 93Z" fill="white"/>
</g>
<mask id="mask11_201_744" style="mask-type:luminance" maskUnits="userSpaceOnUse" x="51" y="51" width="398" height="398">
<path d="M250 448.5C359.629 448.5 448.5 359.629 448.5 250C448.5 140.371 359.629 51.5 250 51.5C140.371 51.5 51.5 140.371 51.5 250C51.5 359.629 140.371 448.5 250 448.5Z" fill="white"/>
</mask>
<g mask="url(#mask11_201_744)">
<path d="M88.6998 94.8C96.5998 103.2 106.3 109.7 116.6 114.9C127.3 120.3 138.5 124.8 149.7 128.9C173.2 137.3 197.4 143.3 222 147.5C246.8 151.7 272 154 297.1 154.9C322.3 155.8 347.5 155.5 372.6 154C397.9 152.5 423.3 149.1 447.5 141.3C450.5 140.3 453.5 139.3 456.4 138.2C459.4 137.1 457.3 133.2 454.4 134.3C431 143 406.1 147.1 381.3 149.1C356.5 151.1 331.5 151.5 306.6 150.9C282 150.3 257.4 148.5 233 144.9C208.8 141.3 184.8 136 161.5 128.4C150 124.6 138.6 120.3 127.5 115.4C117.3 110.8 107.2 105.4 98.5998 98.1C96.3998 96.2 94.3998 94.3 92.3998 92.2C90.6998 89.9 86.5998 92.5 88.6998 94.8Z" fill="white"/>
</g>
<mask id="mask12_201_744" style="mask-type:luminance" maskUnits="userSpaceOnUse" x="51" y="51" width="398" height="398">
<path d="M250 448.5C359.629 448.5 448.5 359.629 448.5 250C448.5 140.371 359.629 51.5 250 51.5C140.371 51.5 51.5 140.371 51.5 250C51.5 359.629 140.371 448.5 250 448.5Z" fill="white"/>
</mask>
<g mask="url(#mask12_201_744)">
<path d="M88.7001 103.9C105.8 118.9 125.5 131 146.6 139.5C169.6 148.7 194 152.8 218.5 155.6C244.3 158.6 270.3 160.4 296.3 161.1C322.2 161.7 348.1 161.2 373.9 159.6C399.8 157.9 425.7 155.1 451.4 151.1C454.6 150.6 457.8 150.1 461 149.6C461.8 149.5 462.6 148.9 462 148.1C461.3 147.3 459.5 147.4 458.6 147.6C433.5 151.8 408.2 154.8 382.8 156.7C357.4 158.6 332 159.4 306.5 159.1C281.1 158.8 255.6 157.3 230.3 154.7C205.8 152.2 181.1 149.1 157.7 140.9C136.6 133.5 116.7 122.4 99.3001 108.3C97.2001 106.6 95.1001 104.8 93.0001 103C92.2001 102.3 90.6001 102.2 89.6001 102.5C89.0001 102.6 87.8001 103.2 88.7001 103.9Z" fill="white"/>
</g>
<mask id="mask13_201_744" style="mask-type:luminance" maskUnits="userSpaceOnUse" x="51" y="51" width="398" height="398">
<path d="M250 448.5C359.629 448.5 448.5 359.629 448.5 250C448.5 140.371 359.629 51.5 250 51.5C140.371 51.5 51.5 140.371 51.5 250C51.5 359.629 140.371 448.5 250 448.5Z" fill="white"/>
</mask>
<g mask="url(#mask13_201_744)">
<path d="M73.7998 114.6C90.9998 131 114.5 138.6 136.6 145.8C148.9 149.8 161.2 153.4 173.6 156.9C186.1 160.4 198.6 164 211.2 167.3C223.8 170.5 236.5 173.4 249.4 175.1C262.4 176.8 275.4 177.5 288.5 177.6C314.2 177.8 340 176.7 365.5 174.4C390.6 172.1 415.6 168.1 439.8 161.2C442.9 160.3 445.9 159.4 448.9 158.5C452 157.5 449.7 153.6 447 154.5C423.2 161.9 398.7 166.5 373.9 169.2C349.1 171.9 324.1 173 299.1 173.3C286.1 173.5 273.1 173.3 260.2 172.1C247.4 170.9 234.8 168.7 222.3 165.8C210 162.9 197.8 159.5 185.6 156C173.3 152.5 161 149.1 148.8 145.3C136.9 141.6 125.1 137.8 113.5 133.2C103.2 129 92.9998 124.3 83.9998 117.5C81.7998 115.8 79.6998 114.1 77.6998 112.2C76.7998 111.3 75.3998 110.9 74.1998 111.6C73.2998 112.2 72.8998 113.7 73.7998 114.6Z" fill="white"/>
</g>
<mask id="mask14_201_744" style="mask-type:luminance" maskUnits="userSpaceOnUse" x="51" y="51" width="398" height="398">
<path d="M250 448.5C359.629 448.5 448.5 359.629 448.5 250C448.5 140.371 359.629 51.5 250 51.5C140.371 51.5 51.5 140.371 51.5 250C51.5 359.629 140.371 448.5 250 448.5Z" fill="white"/>
</mask>
<g mask="url(#mask14_201_744)">
<path d="M73.0002 129.9C83.7002 137.3 94.4002 144.8 106.2 150.3C117.9 155.8 130.4 159.4 142.9 162.6C168.1 168.9 193.7 174 219.4 177.8C245 181.6 270.9 184.2 296.8 185C322.7 185.9 348.7 185.1 374.4 182.3C400.1 179.5 425.6 174.7 450.4 167.6C453.4 166.7 456.5 165.8 459.5 164.9C460.1 164.7 461 164.3 460.2 163.8C459.5 163.3 457.5 163.9 456.8 164.1C432.7 171.6 407.9 176.8 382.8 179.9C357.6 183.1 332.2 184.2 306.8 183.6C281.4 183.1 256 180.9 230.7 177.4C205.4 173.9 180.4 169.1 155.5 163.3C143.1 160.4 130.8 157.3 118.9 152.7C106.9 148.1 95.9002 141.5 85.3002 134.3C82.7002 132.5 80.0002 130.7 77.4002 128.8C76.6002 128.3 75.1002 128.6 74.3002 128.8C74.3002 128.8 72.3002 129.4 73.0002 129.9Z" fill="white"/>
</g>
<mask id="mask15_201_744" style="mask-type:luminance" maskUnits="userSpaceOnUse" x="51" y="51" width="398" height="398">
<path d="M250 448.5C359.629 448.5 448.5 359.629 448.5 250C448.5 140.371 359.629 51.5 250 51.5C140.371 51.5 51.5 140.371 51.5 250C51.5 359.629 140.371 448.5 250 448.5Z" fill="white"/>
</mask>
<g mask="url(#mask15_201_744)">
<path d="M66.9001 142.3C86.7001 157.9 110.4 167.5 134.6 174C160.7 181 187.7 185.2 214.5 188.4C242.8 191.8 271.3 193.7 299.8 194C328.5 194.3 357.3 193 385.9 190.1C414.4 187.2 442.6 182.8 470.6 176.8C474 176.1 477.4 175.3 480.7 174.6C483.4 174 480.9 169.6 478.4 170.2C450.8 176.5 422.9 181.2 394.8 184.4C366.8 187.6 338.6 189.3 310.4 189.4C282.1 189.5 253.8 188.1 225.7 185.2C198.7 182.4 171.7 178.4 145.3 172.2C121.2 166.5 97.1001 158.4 76.5001 144.3C73.9001 142.5 71.4001 140.7 69.0001 138.8C66.5001 136.7 64.6001 140.4 66.9001 142.3Z" fill="white"/>
</g>
<mask id="mask16_201_744" style="mask-type:luminance" maskUnits="userSpaceOnUse" x="51" y="51" width="398" height="398">
<path d="M250 448.5C359.629 448.5 448.5 359.629 448.5 250C448.5 140.371 359.629 51.5 250 51.5C140.371 51.5 51.5 140.371 51.5 250C51.5 359.629 140.371 448.5 250 448.5Z" fill="white"/>
</mask>
<g mask="url(#mask16_201_744)">
<path d="M55.6998 151.7C77.9998 164.5 102.1 173.7 126.9 180.4C152.1 187.2 178 191.6 203.9 194.8C230.8 198.2 257.8 200.7 284.9 202.4C312.2 204.1 339.6 204.5 366.9 202.6C394.2 200.7 421.4 196.3 447.6 188.4C450.9 187.4 454.1 186.4 457.4 185.3C457.7 185.2 455.9 184.7 455.8 184.6C455 184.4 453.6 183.9 452.7 184.2C427.7 192.7 401.6 197.8 375.4 200.5C348.7 203.2 321.7 203.3 294.9 202.1C268.5 200.9 242.1 198.5 215.8 195.6C190.4 192.8 165.1 189.2 140.2 183.2C115.5 177.3 91.2998 168.9 68.7998 157.1C65.9998 155.6 63.2998 154.1 60.5998 152.6C59.6998 152.1 58.5998 152 57.5998 151.8C57.0998 151.6 55.4998 151.6 55.6998 151.7Z" fill="white"/>
</g>
<mask id="mask17_201_744" style="mask-type:luminance" maskUnits="userSpaceOnUse" x="51" y="51" width="398" height="398">
<path d="M250 448.5C359.629 448.5 448.5 359.629 448.5 250C448.5 140.371 359.629 51.5 250 51.5C140.371 51.5 51.5 140.371 51.5 250C51.5 359.629 140.371 448.5 250 448.5Z" fill="white"/>
</mask>
<g mask="url(#mask17_201_744)">
<path d="M59.0001 164.9C81.0001 178.6 105.3 188.1 130.3 194.8C155.6 201.5 181.6 205.3 207.6 208C235.6 210.9 263.7 212.9 291.9 213.7C320.4 214.5 349 213.9 377.4 211.4C405.6 208.9 433.6 204.5 461 197.6C464.5 196.7 468 195.8 471.5 194.8C472.6 194.5 472.7 193.4 472 192.6C471.2 191.7 469.7 191.5 468.6 191.8C441.6 199.3 413.9 204.2 386 207.1C358.1 210 329.9 211 301.8 210.6C273.8 210.2 245.8 208.4 218 205.8C192.4 203.4 166.8 200.2 141.7 194.3C116.9 188.6 92.5001 180.2 70.3001 167.7C67.5001 166.1 64.8001 164.5 62.1001 162.8C61.2001 162.2 59.6001 161.8 58.6001 162.6C57.7001 163.3 58.1001 164.3 59.0001 164.9Z" fill="white"/>
</g>
<mask id="mask18_201_744" style="mask-type:luminance" maskUnits="userSpaceOnUse" x="51" y="51" width="398" height="398">
<path d="M250 448.5C359.629 448.5 448.5 359.629 448.5 250C448.5 140.371 359.629 51.5 250 51.5C140.371 51.5 51.5 140.371 51.5 250C51.5 359.629 140.371 448.5 250 448.5Z" fill="white"/>
</mask>
<g mask="url(#mask18_201_744)">
<path d="M58.0001 178.6C81.6001 190.3 106.4 199.4 131.8 206.1C157.2 212.8 183.1 217.3 209.2 220.1C237.4 223.1 265.8 224.1 294.1 223.9C322.7 223.7 351.2 222.3 379.7 220.5C405.7 218.9 432.1 216.9 456.9 208.4C459.9 207.4 462.9 206.2 465.9 205C467.4 204.4 465.3 199.9 463.6 200.5C439.3 210.5 413 213.5 387 215.3C358.9 217.2 330.7 218.7 302.6 219.1C274.3 219.6 246 218.9 217.9 216.4C191.7 214.1 165.5 210.1 139.9 203.9C114.5 197.7 89.5001 189.3 65.8001 178.3C62.9001 176.9 60.0001 175.5 57.1001 174.1C56.1001 173.6 55.9001 175 56.0001 175.7C56.2001 176.9 57.0001 178.1 58.0001 178.6Z" fill="white"/>
</g>
<mask id="mask19_201_744" style="mask-type:luminance" maskUnits="userSpaceOnUse" x="51" y="51" width="398" height="398">
<path d="M250 448.5C359.629 448.5 448.5 359.629 448.5 250C448.5 140.371 359.629 51.5 250 51.5C140.371 51.5 51.5 140.371 51.5 250C51.5 359.629 140.371 448.5 250 448.5Z" fill="white"/>
</mask>
<g mask="url(#mask19_201_744)">
<path d="M45.8002 188.7C70.5002 201.2 96.9002 210.2 123.8 216.7C150.9 223.2 178.6 227.2 206.4 230C234.5 232.8 262.7 234.6 290.9 235.4C319.7 236.2 348.6 235.8 377.2 233C405.6 230.2 433.8 225 461.1 216.4C464.5 215.3 467.8 214.2 471.1 213.1C474.1 212.1 471.8 207.9 469.1 208.8C442.4 218.1 414.6 224 386.5 227.4C358.2 230.8 329.6 231.7 301.1 231.2C272.9 230.7 244.7 229 216.7 226.5C189.1 224.1 161.6 220.5 134.6 214.7C107.9 208.9 81.6002 200.8 56.7002 189.2C53.6002 187.8 50.5002 186.3 47.5002 184.7C44.7002 183.2 43.0002 187.2 45.8002 188.7Z" fill="white"/>
</g>
<mask id="mask20_201_744" style="mask-type:luminance" maskUnits="userSpaceOnUse" x="51" y="51" width="398" height="398">
<path d="M250 448.5C359.629 448.5 448.5 359.629 448.5 250C448.5 140.371 359.629 51.5 250 51.5C140.371 51.5 51.5 140.371 51.5 250C51.5 359.629 140.371 448.5 250 448.5Z" fill="white"/>
</mask>
<g mask="url(#mask20_201_744)">
<path d="M27.7 185.9C52.1 202.7 79.2 215.3 107.4 224.3C137 233.8 167.7 239.3 198.7 242.3C231.8 245.6 265.1 245.9 298.3 245.5C332.1 245 366 243.9 399.8 241.8C428.4 240 458.3 238.1 484.3 225C487.5 223.4 490.7 221.6 493.7 219.6C495.4 218.5 490.9 216.9 489.7 217.7C465.5 233.3 436.4 236.8 408.4 238.8C375.6 241.1 342.7 242.3 309.9 242.9C277.2 243.6 244.5 243.6 211.9 241.1C181.2 238.8 150.6 234.2 121 225.8C92.9 217.8 65.6 206.5 40.8 190.9C37.7 189 34.7 186.9 31.7 184.9C30.8 184.3 29.2 183.9 28.2 184.3C27.1 184.7 26.8 185.3 27.7 185.9Z" fill="white"/>
</g>
<mask id="mask21_201_744" style="mask-type:luminance" maskUnits="userSpaceOnUse" x="51" y="51" width="398" height="398">
<path d="M250 448.5C359.629 448.5 448.5 359.629 448.5 250C448.5 140.371 359.629 51.5 250 51.5C140.371 51.5 51.5 140.371 51.5 250C51.5 359.629 140.371 448.5 250 448.5Z" fill="white"/>
</mask>
<g mask="url(#mask21_201_744)">
<path d="M43.6001 206.5C66.2001 220.2 90.8001 230.4 116.1 237.8C142.4 245.5 169.6 250.1 196.9 252.8C225.8 255.6 254.9 256.3 284 256.2C313.5 256.1 343 255.4 372.5 254.4C401.1 253.4 430.1 252.8 458.2 246.6C461.6 245.8 465 245 468.4 244.1C470.1 243.6 467.4 239.5 465.9 239.9C438.5 247.4 410 248.7 381.7 249.8C352.5 250.9 323.2 251.6 293.9 251.9C264.5 252.2 235.1 252 205.8 249.6C178.4 247.4 151.1 243.4 124.4 236.5C98.9001 229.8 74.0001 220.5 51.0001 207.6C48.1001 206 45.3001 204.4 42.5001 202.7C41.6001 202.1 41.1001 202.8 41.2001 203.7C41.6001 204.9 42.7001 206 43.6001 206.5Z" fill="white"/>
</g>
<mask id="mask22_201_744" style="mask-type:luminance" maskUnits="userSpaceOnUse" x="51" y="51" width="398" height="398">
<path d="M250 448.5C359.629 448.5 448.5 359.629 448.5 250C448.5 140.371 359.629 51.5 250 51.5C140.371 51.5 51.5 140.371 51.5 250C51.5 359.629 140.371 448.5 250 448.5Z" fill="white"/>
</mask>
<g mask="url(#mask22_201_744)">
<path d="M26.6001 210.2C48.4001 227.3 73.7001 239.5 100.1 247.7C128.8 256.6 158.6 260.9 188.5 263.1C219.8 265.4 251.3 265.9 282.6 266.1C314 266.3 345.4 265.7 376.7 263.8C408.1 261.9 439.4 258.6 470.4 253.4C474.3 252.7 478.3 252.1 482.2 251.3C485 250.8 483.6 246 481 246.5C450.4 252.1 419.4 255.8 388.3 258.1C357.1 260.4 325.8 261.3 294.5 261.3C263.5 261.3 232.5 260.8 201.6 259.1C171.4 257.4 141.1 254.1 111.9 246.3C85.3001 239.2 59.4001 228.3 36.8001 212.4C34.0001 210.4 31.3001 208.4 28.7001 206.3C26.1001 204.3 24.4001 208.5 26.6001 210.2Z" fill="white"/>
</g>
<mask id="mask23_201_744" style="mask-type:luminance" maskUnits="userSpaceOnUse" x="51" y="51" width="398" height="398">
<path d="M250 448.5C359.629 448.5 448.5 359.629 448.5 250C448.5 140.371 359.629 51.5 250 51.5C140.371 51.5 51.5 140.371 51.5 250C51.5 359.629 140.371 448.5 250 448.5Z" fill="white"/>
</mask>
<g mask="url(#mask23_201_744)">
<path d="M31.2998 229C57.5998 241.8 85.1998 251.7 113.5 259.2C141.6 266.6 170.4 271.7 199.3 274.9C229.9 278.2 260.7 279.4 291.5 279.3C323 279.2 354.5 277.6 385.9 275.4C401.5 274.3 417.2 273.1 432.8 271.7C447.1 270.5 461.5 268.8 475.1 264.2C478.4 263.1 481.7 261.8 484.9 260.3C487.5 259.1 484.9 254.8 482.5 256C469.4 262.1 455.1 264.7 440.9 266.2C425.9 267.8 410.8 268.8 395.8 270C364.7 272.3 333.5 274.1 302.3 274.6C271.3 275.1 240.3 274.3 209.5 271.4C180.7 268.7 152.1 264.2 124 257.4C95.8998 250.6 68.3998 241.4 42.0998 229.4C38.7998 227.9 35.5998 226.4 32.3998 224.8C31.2998 224.3 29.9998 224.9 29.6998 226.1C29.1998 227.3 30.1998 228.5 31.2998 229Z" fill="white"/>
</g>
<mask id="mask24_201_744" style="mask-type:luminance" maskUnits="userSpaceOnUse" x="51" y="51" width="398" height="398">
<path d="M250 448.5C359.629 448.5 448.5 359.629 448.5 250C448.5 140.371 359.629 51.5 250 51.5C140.371 51.5 51.5 140.371 51.5 250C51.5 359.629 140.371 448.5 250 448.5Z" fill="white"/>
</mask>
<g mask="url(#mask24_201_744)">
<path d="M31.5002 228.6C55.3002 245 81.5002 257.2 109 266.1C136.8 275.1 165.7 280.6 194.6 284C224.4 287.5 254.5 288.8 284.5 289.2C319.1 289.7 353.7 288.9 388.2 286.9C421.1 285 454.1 282 486.1 273.7C490.1 272.7 494 271.5 497.9 270.3C498.8 270 497 268.7 496.8 268.6C496 268.1 494.8 267.5 493.8 267.8C462.6 277.3 430 281.2 397.6 283.4C364.2 285.7 330.6 286.7 297.1 286.6C266.7 286.5 236.3 285.7 206 282.8C177.5 280.1 149 275.6 121.4 267.9C94.1002 260.3 67.7002 249.5 43.6002 234.5C40.5002 232.6 37.4002 230.5 34.4002 228.5C33.7002 228 32.1002 226.9 31.2002 227.3C30.3002 227.5 30.9002 228.2 31.5002 228.6Z" fill="white"/>
</g>
<mask id="mask25_201_744" style="mask-type:luminance" maskUnits="userSpaceOnUse" x="51" y="51" width="398" height="398">
<path d="M250 448.5C359.629 448.5 448.5 359.629 448.5 250C448.5 140.371 359.629 51.5 250 51.5C140.371 51.5 51.5 140.371 51.5 250C51.5 359.629 140.371 448.5 250 448.5Z" fill="white"/>
</mask>
<g mask="url(#mask25_201_744)">
<path d="M31.6001 244.4C54.7001 260.5 81.0001 270.9 108.2 277.8C136 284.9 164.6 288.3 193.2 291.1C225.3 294.2 257.4 296.3 289.6 297.1C322.1 297.9 354.6 297.3 386.9 294.8C418.9 292.4 450.9 288.2 482.4 281.7C486.3 280.9 490.2 280.1 494.1 279.2C495 279 496.7 278.4 497 277.4C497.3 276.4 496.4 276.3 495.6 276.5C464.3 283.4 432.5 288.2 400.5 291C368.6 293.8 336.6 294.8 304.6 294.4C272.4 294 240.2 292.1 208.1 289.3C179.5 286.7 150.8 283.7 122.7 277.5C95.3001 271.5 68.4001 262.3 44.5001 247.5C41.5001 245.7 38.6001 243.7 35.7001 241.7C34.4001 241 30.3001 243.5 31.6001 244.4Z" fill="white"/>
</g>
<mask id="mask26_201_744" style="mask-type:luminance" maskUnits="userSpaceOnUse" x="51" y="51" width="398" height="398">
<path d="M250 448.5C359.629 448.5 448.5 359.629 448.5 250C448.5 140.371 359.629 51.5 250 51.5C140.371 51.5 51.5 140.371 51.5 250C51.5 359.629 140.371 448.5 250 448.5Z" fill="white"/>
</mask>
<g mask="url(#mask26_201_744)">
<path d="M33.4001 260.3C60.2001 271 88.1001 279.1 116.3 285.1C144.7 291.1 173.5 295 202.4 297.6C232.4 300.3 262.5 301.7 292.6 301.9C323 302.2 353.4 301.3 383.7 299.2C414.1 297.1 444.5 293.8 474.7 289.4C478.5 288.8 482.2 288.3 486 287.7C486.9 287.6 486.7 287.5 486 287.3C485 287 483.5 287.2 482.5 287.3C453 292 423.3 295.5 393.5 297.9C363.7 300.3 333.7 301.4 303.8 301.5C274.2 301.5 244.6 300.4 215 298C186.5 295.7 158.1 292.2 130 286.8C102.1 281.4 74.5001 274 47.9001 264C44.6001 262.8 41.4001 261.5 38.2001 260.2C37.3001 259.8 36.1001 260 35.1001 260C34.9001 259.9 33.2001 260.2 33.4001 260.3Z" fill="white"/>
</g>
<mask id="mask27_201_744" style="mask-type:luminance" maskUnits="userSpaceOnUse" x="51" y="51" width="398" height="398">
<path d="M250 448.5C359.629 448.5 448.5 359.629 448.5 250C448.5 140.371 359.629 51.5 250 51.5C140.371 51.5 51.5 140.371 51.5 250C51.5 359.629 140.371 448.5 250 448.5Z" fill="white"/>
</mask>
<g mask="url(#mask27_201_744)">
<path d="M42.0002 271.8C66.0002 284.2 91.6002 292.8 117.9 298.7C144.5 304.7 171.7 308 198.8 310.1C226.5 312.3 254.3 313.5 282.1 314.6C311 315.8 339.9 316.4 368.8 314.9C397.2 313.4 425.7 309.6 453.2 302C456.7 301 460.2 300 463.7 298.9C464.6 298.6 465.3 298 464.7 297.2C464 296.4 462.2 296.3 461.3 296.6C434.3 305.1 406.3 309.6 378.2 311.7C349.8 313.8 321.4 313.4 293 312.4C265.5 311.4 238.1 310.2 210.6 308.3C183.8 306.5 157 303.7 130.6 298.5C104.5 293.4 78.7002 285.8 54.6002 274.4C51.6002 273 48.6002 271.5 45.7002 270C44.7002 269.5 43.2002 269.3 42.2002 269.9C41.2002 270.4 41.0002 271.3 42.0002 271.8Z" fill="white"/>
</g>
<mask id="mask28_201_744" style="mask-type:luminance" maskUnits="userSpaceOnUse" x="51" y="51" width="398" height="398">
<path d="M250 448.5C359.629 448.5 448.5 359.629 448.5 250C448.5 140.371 359.629 51.5 250 51.5C140.371 51.5 51.5 140.371 51.5 250C51.5 359.629 140.371 448.5 250 448.5Z" fill="white"/>
</mask>
<g mask="url(#mask28_201_744)">
<path d="M40.6998 277.9C65.8998 290.5 92.2998 300.7 119.5 308.2C147.7 316 176.5 320.7 205.6 322.9C235.8 325.2 266.1 325.2 296.4 325.3C326.1 325.4 355.8 325.4 385.5 323.8C415 322.2 444.5 318.9 473.4 312.4C477 311.6 480.5 310.7 484.1 309.8C484.7 309.7 481.7 306.4 480.4 306.7C452 313.9 422.9 317.8 393.7 319.9C364.5 322 335.2 322.3 305.9 322.2C275.9 322.2 245.8 322.3 215.7 320.7C186.5 319.1 157.4 315.4 129 308.4C101.4 301.7 74.4998 292.2 48.8998 280.1C45.6998 278.6 42.5998 277.1 39.3998 275.5C38.7998 275.2 37.9998 274.8 38.0998 275.7C38.1998 276.5 39.9998 277.5 40.6998 277.9Z" fill="white"/>
</g>
<mask id="mask29_201_744" style="mask-type:luminance" maskUnits="userSpaceOnUse" x="51" y="51" width="398" height="398">
<path d="M250 448.5C359.629 448.5 448.5 359.629 448.5 250C448.5 140.371 359.629 51.5 250 51.5C140.371 51.5 51.5 140.371 51.5 250C51.5 359.629 140.371 448.5 250 448.5Z" fill="white"/>
</mask>
<g mask="url(#mask29_201_744)">
<path d="M41.9 287.5C65.8 301 92.3 308.8 118.9 315.3C146.4 322 174.2 327.2 202.2 330.9C230.3 334.6 258.5 336.8 286.8 337.5C315 338.2 343.3 337.4 371.5 335.1C399.7 332.8 427.8 329 455.6 323.6C459 322.9 462.4 322.3 465.8 321.6C469 321 467.9 316.6 464.8 317.2C437.3 322.8 409.6 327 381.7 329.7C353.9 332.4 325.9 333.6 298 333.2C270 332.9 242 331.1 214.1 327.8C186.3 324.5 158.8 319.8 131.5 313.6C105 307.5 78.1 300.6 53.6 288.5C50.6 287 47.6 285.4 44.7 283.8C42.2 282.4 39.1 285.9 41.9 287.5Z" fill="white"/>
</g>
<mask id="mask30_201_744" style="mask-type:luminance" maskUnits="userSpaceOnUse" x="51" y="51" width="398" height="398">
<path d="M250 448.5C359.629 448.5 448.5 359.629 448.5 250C448.5 140.371 359.629 51.5 250 51.5C140.371 51.5 51.5 140.371 51.5 250C51.5 359.629 140.371 448.5 250 448.5Z" fill="white"/>
</mask>
<g mask="url(#mask30_201_744)">
<path d="M50.3001 303.5C76.0001 310.8 101.9 317.8 127.9 324.1C153.8 330.4 180 335.9 206.3 340.2C232.5 344.5 259 347.5 285.5 348.6C312 349.8 338.6 349.1 365 346.1C392.1 343.1 419 338.8 446 335C449.4 334.5 452.9 334 456.3 333.5C459.2 333.1 455.7 330 453.9 330.2C427.1 334 400.3 338.1 373.4 341.5C347 344.9 320.5 346.3 294 345.6C267.6 344.9 241.2 342.3 215.1 338.4C188.9 334.5 162.9 329.2 137 323.2C111.1 317.1 85.3001 310.3 59.7001 303.1C56.6001 302.2 53.4001 301.3 50.3001 300.4C49.5001 300.2 48.1001 300.1 48.0001 301.2C47.9001 302.4 49.5001 303.3 50.3001 303.5Z" fill="white"/>
</g>
<mask id="mask31_201_744" style="mask-type:luminance" maskUnits="userSpaceOnUse" x="51" y="51" width="398" height="398">
<path d="M250 448.5C359.629 448.5 448.5 359.629 448.5 250C448.5 140.371 359.629 51.5 250 51.5C140.371 51.5 51.5 140.371 51.5 250C51.5 359.629 140.371 448.5 250 448.5Z" fill="white"/>
</mask>
<g mask="url(#mask31_201_744)">
<path d="M50.6 312.1C76 321.8 102 329.6 128.5 335.9C155.1 342.2 182 346.9 209.1 350.3C236.2 353.7 263.4 355.8 290.6 356.9C317.3 358 344.2 358.6 370.9 356.7C396.9 354.9 422.9 350.6 447.2 340.9C450.2 339.7 453.2 338.4 456.2 337.1C459 335.8 455.9 332.4 453.7 333.4C430.1 344.3 404.5 349.6 378.7 352C352.5 354.4 326 354.1 299.7 353.2C272.7 352.3 245.7 350.5 218.9 347.4C192.1 344.3 165.4 340.1 139.1 334.2C112.8 328.4 86.9 321 61.6 311.8C58.4 310.6 55.2 309.5 52.1 308.3C48.8 307.4 47.7 311 50.6 312.1Z" fill="white"/>
</g>
<mask id="mask32_201_744" style="mask-type:luminance" maskUnits="userSpaceOnUse" x="51" y="51" width="398" height="398">
<path d="M250 448.5C359.629 448.5 448.5 359.629 448.5 250C448.5 140.371 359.629 51.5 250 51.5C140.371 51.5 51.5 140.371 51.5 250C51.5 359.629 140.371 448.5 250 448.5Z" fill="white"/>
</mask>
<g mask="url(#mask32_201_744)">
<path d="M53.5998 319.1C64.1998 326.2 76.1998 330.5 88.2998 334.4C100.9 338.5 113.6 342.1 126.4 345.5C152.2 352.2 178.3 357.5 204.7 361.2C231 365 257.4 367.3 284 368.1C310.7 369 337.4 368.3 364 366.2C390.5 364.1 416.8 360.5 442.9 355.4C446.1 354.8 449.3 354.1 452.6 353.4C453.2 353.3 454.7 352.6 454.1 351.8C453.6 350.9 451.7 351.3 450.9 351.5C425.2 356.9 399.2 360.7 373.1 363.2C347.1 365.6 321 366.6 294.9 366.1C268.8 365.6 242.7 363.7 216.8 360.3C190.7 356.9 164.9 352.1 139.3 345.9C126.6 342.8 113.9 339.3 101.4 335.5C89.3998 331.8 77.0998 328.1 65.8998 322.3C63.0998 320.8 60.3998 319.2 57.7998 317.5C56.5998 316.6 51.8998 317.9 53.5998 319.1Z" fill="white"/>
</g>
<mask id="mask33_201_744" style="mask-type:luminance" maskUnits="userSpaceOnUse" x="51" y="51" width="398" height="398">
<path d="M250 448.5C359.629 448.5 448.5 359.629 448.5 250C448.5 140.371 359.629 51.5 250 51.5C140.371 51.5 51.5 140.371 51.5 250C51.5 359.629 140.371 448.5 250 448.5Z" fill="white"/>
</mask>
<g mask="url(#mask33_201_744)">
<path d="M55.4002 331.7C77.9002 342.8 102 350.3 126.4 355.8C150.9 361.3 175.8 364.7 200.7 367.8C226.6 371 252.6 373.8 278.7 375.4C304.8 377.1 331.1 377.6 357.2 376C382.9 374.5 408.5 371 433.5 364.9C436.7 364.1 439.9 363.3 443 362.4C443.8 362.2 445.7 361.8 446.1 361C446.5 360.3 445.6 360.5 445 360.6C420 367.5 394.4 371.5 368.6 373.4C342.7 375.3 316.8 375.2 290.9 373.8C264.9 372.4 238.9 369.8 213 366.7C188.2 363.7 163.4 360.5 139 355.5C114.7 350.5 90.6002 343.7 68.0002 333.5C65.2002 332.3 62.5002 331 59.8002 329.6C59.1002 329.2 57.5002 330 56.8002 330.3C56.6002 330.5 54.9002 331.4 55.4002 331.7Z" fill="white"/>
</g>
<mask id="mask34_201_744" style="mask-type:luminance" maskUnits="userSpaceOnUse" x="51" y="51" width="398" height="398">
<path d="M250 448.5C359.629 448.5 448.5 359.629 448.5 250C448.5 140.371 359.629 51.5 250 51.5C140.371 51.5 51.5 140.371 51.5 250C51.5 359.629 140.371 448.5 250 448.5Z" fill="white"/>
</mask>
<g mask="url(#mask34_201_744)">
<path d="M61.8998 344C83.9998 352.1 106.9 358.1 130 362.5C153.2 366.9 176.6 369.8 200 372C224 374.3 248.1 376 272.2 377.7C297 379.4 321.8 380.8 346.7 381.1C371.6 381.4 396.6 380.5 421.3 377.7C424.4 377.4 427.5 377 430.6 376.6C431.1 376.5 432.7 376.4 432.4 375.5C432.1 374.7 429.9 374.8 429.3 374.9C405 378.1 380.5 379.4 356.1 379.4C331.4 379.4 306.8 378.2 282.2 376.6C258.4 375 234.7 373.3 210.9 371.2C187.6 369.1 164.3 366.5 141.2 362.5C118.3 358.5 95.6998 353.2 73.6998 345.7C70.8998 344.7 68.0998 343.8 65.2998 342.7C64.2998 342.3 62.7998 342.3 61.7998 342.7C60.9998 343.1 60.8998 343.6 61.8998 344Z" fill="white"/>
</g>
<mask id="mask35_201_744" style="mask-type:luminance" maskUnits="userSpaceOnUse" x="51" y="51" width="398" height="398">
<path d="M250 448.5C359.629 448.5 448.5 359.629 448.5 250C448.5 140.371 359.629 51.5 250 51.5C140.371 51.5 51.5 140.371 51.5 250C51.5 359.629 140.371 448.5 250 448.5Z" fill="white"/>
</mask>
<g mask="url(#mask35_201_744)">
<path d="M74.4002 354.7C95.6002 363.1 117.8 369.1 140.2 373.3C162.8 377.6 185.8 380.3 208.7 382.2C232.8 384.3 256.9 385.8 281 386.7C305.4 387.6 329.8 387.8 354.1 387.1C378.3 386.4 402.5 384.9 426.7 382.3C429.8 382 432.8 381.6 435.9 381.3C436.6 381.2 435.2 379.8 435 379.6C434.5 379.1 433.2 377.8 432.4 377.9C408.3 380.7 384.1 382.5 359.9 383.4C335.7 384.3 311.4 384.3 287.1 383.6C262.9 382.9 238.7 381.5 214.5 379.6C191.6 377.8 168.8 375.4 146.2 371.6C123.6 367.8 101.1 362.4 79.5002 354.5C76.8002 353.5 74.0002 352.5 71.3002 351.4C70.3002 351 71.3002 352.4 71.5002 352.6C72.4002 353.5 73.4002 354.3 74.4002 354.7Z" fill="white"/>
</g>
<mask id="mask36_201_744" style="mask-type:luminance" maskUnits="userSpaceOnUse" x="51" y="51" width="398" height="398">
<path d="M250 448.5C359.629 448.5 448.5 359.629 448.5 250C448.5 140.371 359.629 51.5 250 51.5C140.371 51.5 51.5 140.371 51.5 250C51.5 359.629 140.371 448.5 250 448.5Z" fill="white"/>
</mask>
<g mask="url(#mask36_201_744)">
<path d="M75.6002 364C96.6002 371.4 118 377.6 139.8 382.5C161.5 387.4 183.4 391 205.5 393.6C227.7 396.2 250 397.6 272.3 398.1C294.7 398.6 317.1 398.1 339.4 396.7C361.7 395.3 384 393.1 406.2 390.1C408.9 389.7 411.6 389.4 414.3 389C415.5 388.8 414.8 387 414.4 386.5C413.8 385.5 412.7 384.8 411.5 385C389.4 388.2 367.2 390.6 344.9 392.2C322.8 393.8 300.6 394.5 278.4 394.2C256.3 394 234.2 392.8 212.2 390.5C190.1 388.2 168.1 384.8 146.4 380.2C124.8 375.6 103.5 369.9 82.6002 362.8C79.9002 361.9 77.3002 361 74.7002 360.1C73.7002 359.7 73.0002 360.6 73.2002 361.5C73.4002 362.7 74.5002 363.7 75.6002 364Z" fill="white"/>
</g>
<mask id="mask37_201_744" style="mask-type:luminance" maskUnits="userSpaceOnUse" x="51" y="51" width="398" height="398">
<path d="M250 448.5C359.629 448.5 448.5 359.629 448.5 250C448.5 140.371 359.629 51.5 250 51.5C140.371 51.5 51.5 140.371 51.5 250C51.5 359.629 140.371 448.5 250 448.5Z" fill="white"/>
</mask>
<g mask="url(#mask37_201_744)">
<path d="M78.8001 376.6C100 382.4 121.3 387.6 142.9 391.9C164.4 396.3 186.1 399.9 208 402.6C229.9 405.3 251.8 407.1 273.9 407.8C295.7 408.5 317.6 408.1 339.4 406.6C361 405.1 382.6 402.3 403.9 398.3C406.6 397.8 409.3 397.3 411.9 396.7C412.1 396.7 410.4 394.9 410.2 394.8C409.7 394.4 408.7 393.4 408 393.5C386.5 397.9 364.8 401 342.9 402.8C321.1 404.6 299.3 405.2 277.4 404.8C255.6 404.3 233.8 402.8 212.1 400.4C190.3 397.9 168.5 394.5 146.9 390.3C125.4 386.1 104.1 381.2 83.0001 375.6C80.4001 374.9 77.7001 374.2 75.1001 373.5C74.6001 373.4 76.1001 374.9 76.1001 375C76.9001 375.5 77.8001 376.3 78.8001 376.6Z" fill="white"/>
</g>
<mask id="mask38_201_744" style="mask-type:luminance" maskUnits="userSpaceOnUse" x="51" y="51" width="398" height="398">
<path d="M250 448.5C359.629 448.5 448.5 359.629 448.5 250C448.5 140.371 359.629 51.5 250 51.5C140.371 51.5 51.5 140.371 51.5 250C51.5 359.629 140.371 448.5 250 448.5Z" fill="white"/>
</mask>
<g mask="url(#mask38_201_744)">
<path d="M96.7001 389.3C115.3 394.7 133.9 399.8 152.7 404.2C171.6 408.6 190.6 412.3 209.9 414.9C228.8 417.4 247.9 418.9 267 419.4C286.1 419.9 305.2 419.3 324.2 417.7C343.3 416.1 362.2 413.4 381 409.8C383.4 409.3 385.8 408.8 388.1 408.3C391.3 407.6 389.3 403.6 386.5 404.2C367.9 408.1 349.1 411 330.2 412.9C311.4 414.8 292.5 415.6 273.6 415.4C254.6 415.2 235.6 414 216.7 411.7C197.7 409.4 178.9 406 160.3 401.8C141.5 397.6 122.9 392.6 104.5 387.3C102.2 386.7 100 386 97.7001 385.3C96.6001 385 95.1001 385.5 94.8001 386.7C94.5001 387.9 95.6001 389 96.7001 389.3Z" fill="white"/>
</g>
<mask id="mask39_201_744" style="mask-type:luminance" maskUnits="userSpaceOnUse" x="51" y="51" width="398" height="398">
<path d="M250 448.5C359.629 448.5 448.5 359.629 448.5 250C448.5 140.371 359.629 51.5 250 51.5C140.371 51.5 51.5 140.371 51.5 250C51.5 359.629 140.371 448.5 250 448.5Z" fill="white"/>
</mask>
<g mask="url(#mask39_201_744)">
<path d="M105.8 402.1C122.1 408.5 139.1 413.3 156.2 416.9C173.5 420.6 190.9 423.1 208.5 425.3C225.9 427.4 243.4 429.3 261 430.6C278.4 431.8 296 432.4 313.4 431.3C330.8 430.3 348.1 427.7 364.8 422.9C366.9 422.3 369 421.6 371.1 421C372.1 420.7 373.4 419.9 373.1 418.6C372.9 417.4 371.2 417 370.2 417.3C353.9 422.6 337 425.6 319.9 427C302.6 428.4 285.3 428.2 268 427.1C250.7 426.1 233.5 424.2 216.3 422.2C199 420.2 181.8 417.8 164.7 414.5C147.7 411.2 130.9 406.9 114.7 400.9C112.7 400.2 110.7 399.4 108.7 398.6C107.6 398.1 106.1 398.4 105.3 399.4C104.5 400.4 104.7 401.7 105.8 402.1Z" fill="white"/>
</g>
<mask id="mask40_201_744" style="mask-type:luminance" maskUnits="userSpaceOnUse" x="51" y="51" width="398" height="398">
<path d="M250 448.5C359.629 448.5 448.5 359.629 448.5 250C448.5 140.371 359.629 51.5 250 51.5C140.371 51.5 51.5 140.371 51.5 250C51.5 359.629 140.371 448.5 250 448.5Z" fill="white"/>
</mask>
<g mask="url(#mask40_201_744)">
<path d="M130.7 418.5C156.4 428.5 183.9 432.7 211.3 434.8C225 435.9 238.7 436.4 252.3 437C267 437.6 281.8 438.1 296.5 438.1C313 438.1 329.6 437.3 346 435C346.9 434.9 348.5 434.4 349.1 433.5C349.7 432.6 348.4 432.8 347.9 432.9C319.1 436.9 289.9 436.1 261 435C233.7 434 206.3 433 179.4 428.4C164.3 425.8 149.4 422 135.1 416.5C134.2 416.1 132.9 416.7 132 417.1C131.8 417.2 129.9 418.2 130.7 418.5Z" fill="white"/>
</g>
<mask id="mask41_201_744" style="mask-type:luminance" maskUnits="userSpaceOnUse" x="51" y="51" width="398" height="398">
<path d="M250 448.5C359.629 448.5 448.5 359.629 448.5 250C448.5 140.371 359.629 51.5 250 51.5C140.371 51.5 51.5 140.371 51.5 250C51.5 359.629 140.371 448.5 250 448.5Z" fill="white"/>
</mask>
<g mask="url(#mask41_201_744)">
<path d="M155.1 438.2C179.3 440.5 203.6 442.2 228 443.3C252.4 444.4 276.8 444.8 301.3 444.6C315 444.5 328.8 444.2 342.5 443.7C343 443.7 341.2 442.5 341.1 442.5C340.3 442.1 339.2 441.4 338.2 441.5C313.9 442.4 289.5 442.6 265.2 442.3C240.9 441.9 216.5 441 192.3 439.3C178.7 438.4 165 437.3 151.4 436C150.4 435.9 151.8 436.8 152 436.9C152.8 437.4 154 438.1 155.1 438.2Z" fill="white"/>
</g>
</svg>
