<svg width="500" height="500" viewBox="0 0 500 500" fill="none" xmlns="http://www.w3.org/2000/svg">
<mask id="mask0_201_689" style="mask-type:luminance" maskUnits="userSpaceOnUse" x="51" y="51" width="398" height="398">
<path d="M250 448.5C359.629 448.5 448.5 359.629 448.5 250C448.5 140.371 359.629 51.5 250 51.5C140.371 51.5 51.5 140.371 51.5 250C51.5 359.629 140.371 448.5 250 448.5Z" fill="white"/>
</mask>
<g mask="url(#mask0_201_689)">
<path d="M172.4 20.1999C143.6 60.3999 114.7 100.6 85.8999 140.8C78.6999 150.9 71.3999 161 64.1999 171.1C61.4999 174.9 57.5999 179 61.0999 183.6C64.6999 188.3 69.4999 192.4 73.4999 196.6C90.7999 214.5 108.1 232.5 125.3 250.4C158.4 284.8 191.5 319.2 224.9 353.4C258.1 387.4 291.6 421.3 325.7 454.5C359.8 487.9 394.5 520.7 429.9 552.6C434.3 556.6 438.7 560.5 443.1 564.4C445.1 566.1 448.8 564.1 446.4 561.9C411.3 530.6 376.9 498.5 343.1 465.8C309.3 433.1 276.1 399.8 243.1 366.2C210 332.5 177.3 298.5 144.5 264.5C127.7 247 110.8 229.5 93.9999 212.1C85.4999 203.3 76.9999 194.4 68.4999 185.6C66.5999 183.6 63.2999 181.4 64.9999 178.3C66.4999 175.6 68.5999 173.2 70.3999 170.7C73.9999 165.7 77.4999 160.8 81.0999 155.8C109.4 116.3 137.7 76.7999 166 37.3999C169.6 32.3999 173.1 27.4999 176.7 22.4999C178.4 20.2999 173.8 18.2999 172.4 20.1999Z" fill="white"/>
</g>
<mask id="mask1_201_689" style="mask-type:luminance" maskUnits="userSpaceOnUse" x="51" y="51" width="398" height="398">
<path d="M250 448.5C359.629 448.5 448.5 359.629 448.5 250C448.5 140.371 359.629 51.5 250 51.5C140.371 51.5 51.5 140.371 51.5 250C51.5 359.629 140.371 448.5 250 448.5Z" fill="white"/>
</mask>
<g mask="url(#mask1_201_689)">
<path d="M39.1 186C55.2 204.7 70.6 224.1 85.9 243.4C101.1 262.6 116.3 281.9 132 300.7C147.7 319.4 164 337.5 180.9 355.2C197.6 372.7 214.7 389.8 232.1 406.7C249.6 423.7 267.3 440.4 285.1 457.2C287.3 459.2 289.4 461.3 291.6 463.3C292.3 464 293.5 464.7 294.3 463.7C295 462.8 294.5 461.1 293.8 460.4C276.1 443.7 258.3 427 240.8 410C223.4 393.2 206.2 376.2 189.4 358.8C172.5 341.3 156 323.3 140.2 304.8C124.3 286.1 109.1 266.9 93.9 247.7C78.6 228.3 63.3 208.9 47.4 190.1C45.5 187.8 43.5 185.5 41.5 183.2C40.8 182.4 39.5 181.9 38.8 182.8C37.8 183.6 38.5 185.2 39.1 186Z" fill="white"/>
</g>
<mask id="mask2_201_689" style="mask-type:luminance" maskUnits="userSpaceOnUse" x="51" y="51" width="398" height="398">
<path d="M250 448.5C359.629 448.5 448.5 359.629 448.5 250C448.5 140.371 359.629 51.5 250 51.5C140.371 51.5 51.5 140.371 51.5 250C51.5 359.629 140.371 448.5 250 448.5Z" fill="white"/>
</mask>
<g mask="url(#mask2_201_689)">
<path d="M35.1 215.1C48.5 233.4 62 251.6 75.7 269.7C89.3 287.7 103 305.6 116.9 323.4C130.8 341.3 144.9 359.1 159.1 376.8C173.3 394.4 187.6 411.9 202 429.3C216.4 446.7 231 464 245.7 481.2C247.5 483.3 249.3 485.4 251.2 487.6C251.7 488.2 253 489.3 253.8 488.6C254.6 487.9 253.5 486.4 253.1 485.9C238.4 468.8 223.9 451.6 209.5 434.3C195 416.9 180.7 399.4 166.5 381.9C152.4 364.4 138.3 346.7 124.5 329C110.6 311.2 96.8 293.4 83.2 275.4C69.6 257.5 56.1 239.4 42.8 221.2C41.1 218.9 39.5 216.7 37.8 214.4C37.3 213.7 36.2 212.4 35.1 212.7C34.1 213 34.7 214.5 35.1 215.1Z" fill="white"/>
</g>
<mask id="mask3_201_689" style="mask-type:luminance" maskUnits="userSpaceOnUse" x="51" y="51" width="398" height="398">
<path d="M250 448.5C359.629 448.5 448.5 359.629 448.5 250C448.5 140.371 359.629 51.5 250 51.5C140.371 51.5 51.5 140.371 51.5 250C51.5 359.629 140.371 448.5 250 448.5Z" fill="white"/>
</mask>
<g mask="url(#mask3_201_689)">
<path d="M18.9001 236.4C32.0001 250.8 44.9001 265.5 57.6001 280.4C70.3001 295.3 82.9001 310.4 95.4001 325.4C108.2 340.7 120.9 356.1 133.7 371.4C146.5 386.8 159.4 402.3 172.2 417.7C185 433.1 197.8 448.4 210.6 463.8C212.2 465.7 213.8 467.6 215.4 469.6C217.2 471.7 221.1 469.7 219 467.2C206.2 451.8 193.4 436.5 180.6 421.1C167.8 405.7 154.9 390.2 142.1 374.8C129.3 359.4 116.5 344.1 103.7 328.7C91.2001 313.6 78.6001 298.5 65.9001 283.6C53.3001 268.7 40.5001 254 27.4001 239.5C25.8001 237.7 24.1001 235.9 22.5001 234.1C20.6001 232 16.7001 234 18.9001 236.4Z" fill="white"/>
</g>
<mask id="mask4_201_689" style="mask-type:luminance" maskUnits="userSpaceOnUse" x="51" y="51" width="398" height="398">
<path d="M250 448.5C359.629 448.5 448.5 359.629 448.5 250C448.5 140.371 359.629 51.5 250 51.5C140.371 51.5 51.5 140.371 51.5 250C51.5 359.629 140.371 448.5 250 448.5Z" fill="white"/>
</mask>
<g mask="url(#mask4_201_689)">
<path d="M30.7998 287.4C40.6998 300.5 50.6998 313.5 60.8998 326.5C70.9998 339.4 81.1998 352.1 91.4998 364.8C101.9 377.5 112.4 390.2 123 402.8C133.6 415.4 144.3 427.8 155.1 440.2C165.9 452.5 176.7 464.7 187.7 476.8C189.1 478.3 190.5 479.9 191.9 481.4C192.7 482.3 194.2 482.7 195.3 482.3C196.3 481.9 196.7 480.9 195.9 480.1C184.8 467.9 173.9 455.7 163 443.3C152.2 431 141.5 418.6 131 406.2C120.4 393.7 109.9 381 99.4998 368.3C89.0998 355.6 78.7998 342.8 68.5998 329.8C58.4998 317 48.4998 304 38.5998 291C37.2998 289.3 36.0998 287.7 34.7998 286C33.5998 284.4 28.9998 285 30.7998 287.4Z" fill="white"/>
</g>
<mask id="mask5_201_689" style="mask-type:luminance" maskUnits="userSpaceOnUse" x="51" y="51" width="398" height="398">
<path d="M250 448.5C359.629 448.5 448.5 359.629 448.5 250C448.5 140.371 359.629 51.5 250 51.5C140.371 51.5 51.5 140.371 51.5 250C51.5 359.629 140.371 448.5 250 448.5Z" fill="white"/>
</mask>
<g mask="url(#mask5_201_689)">
<path d="M205.9 47.0999C167.1 70.9999 133 102.5 106.1 139.2C98.3998 149.6 91.3998 160.5 84.8998 171.7C84.3998 172.5 86.0998 174.1 86.4998 174.5C108.4 194.2 130.1 214 151.7 233.9C173.3 253.8 194.8 273.9 216.2 294.1C237.6 314.3 258.8 334.6 280 355.1C301.1 375.5 322.1 396.1 343 416.8C363.9 437.5 384.6 458.3 405.3 479.3C407.9 481.9 410.5 484.5 413 487.2C413.3 487.6 414.4 488.6 414.8 487.9C415.2 487.3 413.4 485.6 413.1 485.3C392.5 464.3 371.8 443.5 350.9 422.7C330 402 309.1 381.4 288 360.9C266.9 340.4 245.7 320.1 224.3 299.8C202.9 279.5 181.5 259.5 159.9 239.5C138.3 219.5 116.6 199.7 94.7998 180C92.0998 177.5 89.2998 175.1 86.5998 172.6C87.0998 173.5 87.6998 174.5 88.1998 175.4C111 136 141.4 101 177.4 72.9999C187.6 64.9999 198.3 57.5999 209.3 50.8999C209.9 50.3999 206.9 46.4999 205.9 47.0999Z" fill="white"/>
</g>
<mask id="mask6_201_689" style="mask-type:luminance" maskUnits="userSpaceOnUse" x="51" y="51" width="398" height="398">
<path d="M250 448.5C359.629 448.5 448.5 359.629 448.5 250C448.5 140.371 359.629 51.5 250 51.5C140.371 51.5 51.5 140.371 51.5 250C51.5 359.629 140.371 448.5 250 448.5Z" fill="white"/>
</mask>
<g mask="url(#mask6_201_689)">
<path d="M228.8 46C198.8 76.7 168.8 107.3 138.8 138C130.4 146.6 121.9 155.2 113.5 163.8C112.6 164.7 113.2 166.4 114 167.1C134.5 188 155.1 208.8 175.9 229.5C196.7 250.1 217.7 270.6 238.9 290.7C260.2 311 281.8 331 303.6 350.7C325.4 370.3 347.4 389.5 369.8 408.4C392.2 427.2 414.8 445.6 437.9 463.5C440.8 465.8 443.7 468 446.6 470.2C447.5 470.9 448.9 470.6 449.4 469.5C449.9 468.3 449.1 466.9 448.2 466.2C425.1 448.4 402.3 430.1 379.9 411.4C357.4 392.6 335.3 373.5 313.5 354C291.8 334.6 270.3 314.8 249.1 294.8C227.8 274.7 206.8 254.3 185.9 233.7C165.1 213.2 144.6 192.5 124.2 171.7C121.6 169.1 119.1 166.5 116.5 163.8C116.7 164.9 116.8 166 117 167.1C147 136.4 177 105.8 207 75.1C215.4 66.5 223.9 57.9 232.3 49.3C234 47.7 230.8 44 228.8 46Z" fill="white"/>
</g>
<mask id="mask7_201_689" style="mask-type:luminance" maskUnits="userSpaceOnUse" x="51" y="51" width="398" height="398">
<path d="M250 448.5C359.629 448.5 448.5 359.629 448.5 250C448.5 140.371 359.629 51.5 250 51.5C140.371 51.5 51.5 140.371 51.5 250C51.5 359.629 140.371 448.5 250 448.5Z" fill="white"/>
</mask>
<g mask="url(#mask7_201_689)">
<path d="M275.6 41.7001C240.2 70.3001 207 101.5 176.4 135.1C167.8 144.5 159.5 154.1 151.3 163.9C150.7 164.6 151.1 165.8 151.7 166.4C170 186.3 188.4 206.3 207 226C225.6 245.7 244.5 265.2 263.8 284.1C283.1 303 302.9 321.4 323.4 339.1C343.6 356.5 364.7 372.7 385.8 388.9C406.3 404.7 426.6 420.9 444.3 439.9C446.5 442.2 448.6 444.6 450.7 447.1C452.6 449.3 456.1 447.5 453.9 445C437 425.4 417.1 408.7 396.8 392.7C376 376.5 354.9 360.8 334.7 343.8C314 326.4 294 308.1 274.5 289.3C254.9 270.4 235.9 250.9 217.1 231.2C198.4 211.6 180 191.6 161.7 171.7C159.4 169.2 157.2 166.8 154.9 164.3C155 165.1 155.2 166 155.3 166.8C184.2 132.2 215.8 99.7001 249.7 69.9001C259.3 61.5001 269 53.3001 278.9 45.3001C280.9 43.7001 277.4 40.2001 275.6 41.7001Z" fill="white"/>
</g>
<mask id="mask8_201_689" style="mask-type:luminance" maskUnits="userSpaceOnUse" x="51" y="51" width="398" height="398">
<path d="M250 448.5C359.629 448.5 448.5 359.629 448.5 250C448.5 140.371 359.629 51.5 250 51.5C140.371 51.5 51.5 140.371 51.5 250C51.5 359.629 140.371 448.5 250 448.5Z" fill="white"/>
</mask>
<g mask="url(#mask8_201_689)">
<path d="M303.6 41.7C284.9 54.5 267.1 68.4 250.3 83.5C233.5 98.5 217.8 114.7 203.2 131.8C194.9 141.5 187 151.4 179.5 161.7C179.1 162.2 179.1 163.2 179.6 163.7C215.3 195.8 250.8 228.2 286.1 260.9C321.3 293.6 356.3 326.6 391 359.8C410.5 378.4 429.8 397.2 449.1 416C450 416.9 451.4 417.1 452.6 416.5C453.5 416 454.2 414.6 453.3 413.7C418.9 380.2 384.2 346.9 349.3 313.9C314.4 280.9 279.2 248.2 243.7 215.7C223.8 197.5 203.9 179.4 183.8 161.4C183.8 162.1 183.9 162.7 183.9 163.4C197.1 145.5 211.4 128.5 226.8 112.4C242.2 96.3 258.7 81.2 276.2 67.3C286 59.5 296.1 52 306.5 44.9C309 43.1 305.8 40.1 303.6 41.7Z" fill="white"/>
</g>
<mask id="mask9_201_689" style="mask-type:luminance" maskUnits="userSpaceOnUse" x="51" y="51" width="398" height="398">
<path d="M250 448.5C359.629 448.5 448.5 359.629 448.5 250C448.5 140.371 359.629 51.5 250 51.5C140.371 51.5 51.5 140.371 51.5 250C51.5 359.629 140.371 448.5 250 448.5Z" fill="white"/>
</mask>
<g mask="url(#mask9_201_689)">
<path d="M322.1 46.1001C288.3 71.6001 256.6 99.8001 227.3 130.5C219.1 139.1 211 148 203.2 157C202.8 157.4 204.3 159 204.4 159.2C219.2 177.2 235.2 194.3 251.8 210.7C268.4 227.1 285.7 242.7 303.3 258.1C320.9 273.5 338.8 288.7 356.6 303.9C374.4 319.2 392.1 334.6 409.2 350.5C426.4 366.5 443.1 383 458.7 400.5C460.6 402.6 462.5 404.8 464.4 406.9C464.7 407.2 465.6 408.3 466 407.9C466.3 407.5 464.5 405.5 464.3 405.3C449 387.8 432.7 371.2 415.8 355.2C398.8 339.1 381.3 323.6 363.7 308.4C346 293.1 328.2 278.1 310.6 262.8C293 247.5 275.6 232 258.8 215.9C242 199.8 225.8 183 210.7 165.2C208.9 163 207 160.8 205.2 158.6C205.6 159.3 206 160.1 206.4 160.8C234.2 128.9 264.6 99.2001 297.2 72.2001C306.4 64.6001 315.8 57.2001 325.3 50.0001C325.8 49.6001 322.7 45.6001 322.1 46.1001Z" fill="white"/>
</g>
<mask id="mask10_201_689" style="mask-type:luminance" maskUnits="userSpaceOnUse" x="51" y="51" width="398" height="398">
<path d="M250 448.5C359.629 448.5 448.5 359.629 448.5 250C448.5 140.371 359.629 51.5 250 51.5C140.371 51.5 51.5 140.371 51.5 250C51.5 359.629 140.371 448.5 250 448.5Z" fill="white"/>
</mask>
<g mask="url(#mask10_201_689)">
<path d="M333.2 56.2999C302.6 78.7999 274.5 104.5 249.5 133C242.5 141 235.8 149.1 229.3 157.5C228.7 158.3 228.7 159.1 229.3 159.8C243 176.4 257.6 192.3 272.8 207.6C287.9 222.9 303.6 237.5 319.6 251.9C335.7 266.4 352.1 280.5 368.6 294.5C385 308.5 401.5 322.4 417.8 336.5C434.2 350.6 450.4 365 466.2 379.8C468.2 381.6 470.1 383.5 472 385.3C473.7 387 478 384.7 475.9 382.6C460.2 367.7 444.1 353.3 427.7 339.1C411.4 324.9 395 311 378.5 297C362 283 345.6 268.9 329.4 254.5C313.3 240.2 297.5 225.7 282.3 210.5C267 195.3 252.2 179.6 238.3 163.2C236.6 161.2 234.9 159.1 233.1 157C233.1 157.8 233.1 158.6 233.1 159.3C256.1 129.6 282.3 102.4 311.1 78.3999C319.2 71.5999 327.6 65.0999 336.1 58.7999C338.9 57.1999 335.3 54.6999 333.2 56.2999Z" fill="white"/>
</g>
<mask id="mask11_201_689" style="mask-type:luminance" maskUnits="userSpaceOnUse" x="51" y="51" width="398" height="398">
<path d="M250 448.5C359.629 448.5 448.5 359.629 448.5 250C448.5 140.371 359.629 51.5 250 51.5C140.371 51.5 51.5 140.371 51.5 250C51.5 359.629 140.371 448.5 250 448.5Z" fill="white"/>
</mask>
<g mask="url(#mask11_201_689)">
<path d="M349 64.8001C321 83.6001 295.6 106.3 274 132.3C268 139.5 262.2 147 256.8 154.7C256.3 155.4 256.6 156.5 257.2 157.1C272.3 171.9 287.4 186.6 302.5 201.4C317.6 216.2 332.7 230.9 347.8 245.7C362.6 260.2 377.4 274.8 392.3 289.1C406.4 302.7 421 315.6 436.6 327.5C450.6 338.2 465 348.7 476.1 362.5C477.4 364.2 478.7 365.9 480 367.6C480.7 368.5 481.8 369.5 483.1 369.3C484.2 369.1 484.5 367.8 483.9 366.9C473.6 352.2 459.7 340.8 445.5 329.9C438.3 324.4 431 318.9 424 313.1C416.2 306.6 408.7 299.9 401.4 292.9C386.3 278.7 371.6 264 356.8 249.6C341.7 234.8 326.6 220.1 311.5 205.3C296.3 190.5 281.2 175.6 266 160.8C264.1 159 262.3 157.2 260.4 155.3C260.5 156.1 260.7 156.9 260.8 157.7C280.1 130.4 303.2 105.8 329.4 85.0001C336.8 79.1001 344.4 73.6001 352.2 68.4001C354.3 67.2001 350.8 63.6001 349 64.8001Z" fill="white"/>
</g>
<mask id="mask12_201_689" style="mask-type:luminance" maskUnits="userSpaceOnUse" x="51" y="51" width="398" height="398">
<path d="M250 448.5C359.629 448.5 448.5 359.629 448.5 250C448.5 140.371 359.629 51.5 250 51.5C140.371 51.5 51.5 140.371 51.5 250C51.5 359.629 140.371 448.5 250 448.5Z" fill="white"/>
</mask>
<g mask="url(#mask12_201_689)">
<path d="M374.7 71.4001C354.5 83.8001 336.1 98.9001 318.9 115.1C310.2 123.2 301.8 131.6 293.4 140C291.3 142.1 289.3 144.2 287.2 146.2C286.2 147.2 285.2 148.2 284.2 149.2C283.3 150.2 282.8 151.3 283.4 152.5C284 153.7 285.2 154.6 286.2 155.5C287.5 156.7 288.7 158 290 159.2C292.3 161.5 294.7 163.7 297 166C316 184.4 334.9 202.7 353.9 221.1C372.9 239.5 392 258 411 276.4C429.9 294.7 448.9 313.1 467.8 331.4C470.1 333.7 472.5 335.9 474.8 338.2C475.6 339 477 339.6 478.1 339.3C479.1 339.1 479.5 338.3 478.7 337.5C460 319.3 441.2 301.2 422.5 283C403.7 264.8 385 246.6 366.2 228.5C347.6 210.4 328.9 192.4 310.3 174.3C305.6 169.8 300.9 165.2 296.2 160.7C293.8 158.4 291.4 156 289 153.7C288.7 153.4 288.1 153 288 152.6C287.8 152 288.5 151.4 288.9 151C290 149.9 291 148.9 292.1 147.8C300.3 139.5 308.6 131.1 317.1 123C334 106.8 351.7 91.4001 371.2 78.5001C373.6 76.9001 376 75.4001 378.5 73.9001C380.4 72.8001 376.1 70.5001 374.7 71.4001Z" fill="white"/>
</g>
<mask id="mask13_201_689" style="mask-type:luminance" maskUnits="userSpaceOnUse" x="51" y="51" width="398" height="398">
<path d="M250 448.5C359.629 448.5 448.5 359.629 448.5 250C448.5 140.371 359.629 51.5 250 51.5C140.371 51.5 51.5 140.371 51.5 250C51.5 359.629 140.371 448.5 250 448.5Z" fill="white"/>
</mask>
<g mask="url(#mask13_201_689)">
<path d="M383.9 84.5C361.9 98.4 342.9 116.3 324.9 134.9C319.8 140.1 314.8 145.4 309.8 150.7C308.7 151.9 310.2 154 311.1 154.7C323.1 163.2 334.9 172.1 346.3 181.4C357.8 190.7 368.9 200.4 379.8 210.5C390.6 220.6 401.1 231 411.3 241.7C421.4 252.4 431.1 263.5 440.5 274.8C449.9 286.2 458.8 297.8 467.4 309.8C468.5 311.3 469.6 312.9 470.7 314.4C471.2 315.1 472.4 315.9 473.2 315.1C474 314.2 473.3 312.6 472.7 311.9C464.1 299.8 455.2 287.9 445.8 276.4C436.4 264.8 426.5 253.4 416.3 242.4C406.2 231.5 395.7 220.9 384.9 210.7C374 200.4 362.9 190.6 351.3 181.1C339.8 171.6 328 162.5 315.9 153.8C314.4 152.7 312.9 151.6 311.3 150.5C311.7 151.8 312.2 153.2 312.6 154.5C330.2 135.9 348 117.1 368.3 101.4C374 97 380 92.8 386.1 88.9C388 87.8 385.6 83.4 383.9 84.5Z" fill="white"/>
</g>
<mask id="mask14_201_689" style="mask-type:luminance" maskUnits="userSpaceOnUse" x="51" y="51" width="398" height="398">
<path d="M250 448.5C359.629 448.5 448.5 359.629 448.5 250C448.5 140.371 359.629 51.5 250 51.5C140.371 51.5 51.5 140.371 51.5 250C51.5 359.629 140.371 448.5 250 448.5Z" fill="white"/>
</mask>
<g mask="url(#mask14_201_689)">
<path d="M400.1 91C384.8 105.6 369.8 120.5 355.1 135.8C351 140.1 346.9 144.4 342.8 148.8C342.2 149.4 342.1 150.3 342.7 150.9C364.7 172.8 386.7 194.6 408.6 216.6C430.1 238.3 451.4 260.2 472.1 282.7C483.7 295.3 495.1 308.1 506.2 321.1C507 322 508.2 321.8 509.2 321.2C509.8 320.8 511.3 319.5 510.6 318.6C490.7 295.3 469.9 272.6 448.6 250.5C427.4 228.4 405.9 206.8 384.2 185.2C371.6 172.7 359.1 160.2 346.5 147.7C346.5 148.4 346.4 149.1 346.4 149.8C360.6 134.6 375.1 119.6 390.1 105.1C394.3 101 398.6 96.9 402.8 92.9C403.5 92.3 404.3 91.1 403.3 90.3C402.5 89.7 400.8 90.4 400.1 91Z" fill="white"/>
</g>
<mask id="mask15_201_689" style="mask-type:luminance" maskUnits="userSpaceOnUse" x="51" y="51" width="398" height="398">
<path d="M250 448.5C359.629 448.5 448.5 359.629 448.5 250C448.5 140.371 359.629 51.5 250 51.5C140.371 51.5 51.5 140.371 51.5 250C51.5 359.629 140.371 448.5 250 448.5Z" fill="white"/>
</mask>
<g mask="url(#mask15_201_689)">
<path d="M416.9 102.8C404.5 112.9 392.9 124 382.4 136.1C379.8 139.1 377.3 142.2 374.8 145.3C373.7 146.7 372.2 148.3 372.1 150.2C372.1 152.1 373.6 153.6 374.7 154.9C379.7 160.9 384.7 166.8 389.8 172.7C400.1 184.5 410.6 196.1 421 207.9C431.3 219.6 441.6 231.4 451.2 243.7C460.9 255.9 470 268.6 478.1 281.9C479.1 283.6 480.2 285.3 481.2 287C482.1 288.5 486.5 286.2 485.7 284.8C477.9 271.6 469.1 258.9 459.7 246.8C450.3 234.6 440.4 222.8 430.2 211.3C420 199.7 409.7 188.2 399.4 176.6C394.3 170.8 389.2 165 384.2 159.1C383 157.6 381.7 156.2 380.5 154.7C379.3 153.3 377.9 151.9 377 150.3C375.8 148.3 377.2 146.9 378.4 145.4C379.6 143.9 380.8 142.4 382.1 140.9C392.1 128.8 403.2 117.6 415.2 107.5C416.7 106.2 418.2 105 419.7 103.8C420.3 103.3 420.8 102.3 419.8 102C419.1 101.4 417.6 102.2 416.9 102.8Z" fill="white"/>
</g>
<mask id="mask16_201_689" style="mask-type:luminance" maskUnits="userSpaceOnUse" x="51" y="51" width="398" height="398">
<path d="M250 448.5C359.629 448.5 448.5 359.629 448.5 250C448.5 140.371 359.629 51.5 250 51.5C140.371 51.5 51.5 140.371 51.5 250C51.5 359.629 140.371 448.5 250 448.5Z" fill="white"/>
</mask>
<g mask="url(#mask16_201_689)">
<path d="M420.7 119.4C414.2 127.1 407.8 134.9 401.3 142.6C400 144.2 397.8 146 397.8 148.2C397.7 150.9 399.9 152.9 401.5 154.8C404.8 158.6 408.2 162.5 411.5 166.3C424.8 181.5 438.1 196.8 451.4 212C458.9 220.6 466.4 229.2 473.9 237.8C474.5 238.5 475.5 238.8 475.9 237.8C476.3 236.7 475.5 235.3 474.8 234.5C462.1 219.9 449.4 205.4 436.7 190.8C430.3 183.5 423.9 176.1 417.5 168.8C414.3 165.2 411.2 161.5 408 157.9C406.4 156.1 404.8 154.3 403.2 152.4C402.8 152 402.4 151.5 402.1 151.1C401.8 150.8 401.3 149.9 401 149.8C401 149.8 400.3 149.2 401 150C401.3 150.4 401.1 150.3 401.5 149.8C401.9 149.3 402.3 148.8 402.7 148.4C409.6 140.1 416.6 131.8 423.5 123.5C424.6 122.1 422 117.9 420.7 119.4Z" fill="white"/>
</g>
<mask id="mask17_201_689" style="mask-type:luminance" maskUnits="userSpaceOnUse" x="51" y="51" width="398" height="398">
<path d="M250 448.5C359.629 448.5 448.5 359.629 448.5 250C448.5 140.371 359.629 51.5 250 51.5C140.371 51.5 51.5 140.371 51.5 250C51.5 359.629 140.371 448.5 250 448.5Z" fill="white"/>
</mask>
<g mask="url(#mask17_201_689)">
<path d="M432.5 136.4C426.4 141.1 420.9 146.3 415.9 152.1C415.8 152.3 415.9 152.5 416 152.6C426.5 165.9 437 179.3 447.5 192.6C450.5 196.4 453.5 200.3 456.6 204.1C457.3 205 458.5 205.6 459.6 205.8C460 205.9 461.6 206 460.9 205.1C450.4 191.8 439.9 178.4 429.4 165.1C426.4 161.3 423.4 157.4 420.3 153.6C420.3 153.8 420.4 154 420.4 154.1C425.3 148.4 430.8 143.3 436.7 138.7C437.7 138.1 433.5 135.6 432.5 136.4Z" fill="white"/>
</g>
</svg>
