<svg width="500" height="500" viewBox="0 0 500 500" fill="none" xmlns="http://www.w3.org/2000/svg">
<mask id="mask0_201_704" style="mask-type:luminance" maskUnits="userSpaceOnUse" x="51" y="51" width="398" height="398">
<path d="M250 448.5C359.629 448.5 448.5 359.629 448.5 250C448.5 140.371 359.629 51.5 250 51.5C140.371 51.5 51.5 140.371 51.5 250C51.5 359.629 140.371 448.5 250 448.5Z" fill="white"/>
</mask>
<g mask="url(#mask0_201_704)">
<path d="M59.2999 109.5C80.2999 113.2 102.4 110.5 122 102.1C127.6 99.7 133.1 96.8 138.2 93.6C137.1 93.8 136 94 134.9 94.1C145.5 108.3 164.1 115 181.5 113C190.4 112 199.1 108.8 206.3 103.4C208.4 101.8 210.5 99.6 213.4 100.6C215.8 101.5 217.7 103.5 219.6 105.1C223.3 108.3 227.5 111 231.9 113.2C249.3 121.8 270.4 122.5 288.4 115.1C293.2 113.1 297.3 110.3 301.8 107.8C307.3 104.7 312.8 108.9 317.9 111.1C327.5 115.1 337.8 117.4 348.2 118.1C369.1 119.5 390.3 114.3 408.2 103.2C410.4 101.9 412.5 100.4 414.5 98.9C415 98.5 416.2 97.6 415.5 96.9C414.8 96.3 413 97.2 412.4 97.6C396 109.7 375.8 115.6 355.5 115.2C345.2 115 334.9 113.1 325.3 109.5C322.9 108.6 320.6 107.6 318.2 106.5C315.7 105.3 313.1 103.9 310.3 103.5C304.7 102.7 300.1 106.1 295.7 108.9C279.5 118.9 258.1 119.4 240.7 112.4C236.3 110.6 232.1 108.4 228.2 105.6C226.2 104.2 224.4 102.7 222.6 101.1C220.8 99.5 218.9 97.9 216.5 97.3C211.2 96 206.8 100.3 202.9 103C199.5 105.3 195.8 107.1 191.8 108.3C175.4 113.1 156.2 108.6 144 96.6C142.4 95.1 141 93.4 139.7 91.6C139 90.7 137.1 91.7 136.4 92.1C114.7 105.8 88.0999 110.7 62.8999 106.3C61.7999 106.1 60.4999 106.8 59.6999 107.5C58.8999 108.2 58.0999 109.3 59.2999 109.5Z" fill="white"/>
</g>
<mask id="mask1_201_704" style="mask-type:luminance" maskUnits="userSpaceOnUse" x="51" y="51" width="398" height="398">
<path d="M250 448.5C359.629 448.5 448.5 359.629 448.5 250C448.5 140.371 359.629 51.5 250 51.5C140.371 51.5 51.5 140.371 51.5 250C51.5 359.629 140.371 448.5 250 448.5Z" fill="white"/>
</mask>
<g mask="url(#mask1_201_704)">
<path d="M134 72.5001C145.4 82.8001 160.9 88.0001 176.2 87.2001C183.7 86.8001 191.2 85.0001 197.9 81.7001C199.7 80.8001 201.4 79.8001 203.1 78.8001C205.2 77.6001 207.1 77.2001 209.3 78.3001C211.3 79.4001 213.2 80.9001 215.1 82.1001C217 83.3001 219 84.5001 221 85.6001C236.6 94.3001 255.4 99.5001 272.9 93.6001C275.1 92.9001 277.2 92.0001 279.2 90.9001C281.2 89.9001 283.1 88.7001 285.2 87.9001C290 86.3001 294.8 88.5001 299.4 90.0001C308 92.8001 316.9 94.9001 325.8 96.2001C343.3 98.7001 361.5 97.9001 378.1 91.4001C380.1 90.6001 382.1 89.7001 384.1 88.7001C385 88.3001 382.6 83.9001 381.5 84.4001C365.5 92.3001 347.4 94.3001 329.8 92.6001C320.8 91.7001 312 90.0001 303.3 87.5001C298.9 86.3001 294.6 84.5001 290.2 83.4001C288 82.9001 285.6 82.7001 283.4 83.3001C281.2 83.9001 279.3 85.0001 277.3 86.1001C261 95.0001 241.4 92.2001 225.2 84.5001C221 82.5001 217 80.2001 213.1 77.7001C211.3 76.5001 209.5 75.2001 207.7 74.1001C205.8 73.0001 203.8 72.8001 201.8 73.7001C200 74.5001 198.4 75.7001 196.6 76.6001C194.9 77.5001 193.2 78.2001 191.5 78.9001C188 80.3001 184.4 81.3001 180.7 81.9001C165.8 84.5001 149.8 81.1001 137.5 72.2001C136 71.1001 134.6 69.9001 133.2 68.7001C132.5 68.1001 132.1 68.4001 132.3 69.3001C132.4 70.5001 133.1 71.7001 134 72.5001Z" fill="white"/>
</g>
<mask id="mask2_201_704" style="mask-type:luminance" maskUnits="userSpaceOnUse" x="51" y="51" width="398" height="398">
<path d="M250 448.5C359.629 448.5 448.5 359.629 448.5 250C448.5 140.371 359.629 51.5 250 51.5C140.371 51.5 51.5 140.371 51.5 250C51.5 359.629 140.371 448.5 250 448.5Z" fill="white"/>
</mask>
<g mask="url(#mask2_201_704)">
<path d="M165.6 54.6C177.2 60.6 190.7 62.7 203.5 60.2C205 59.9 206.4 59.5 207.9 59.2C209.8 58.9 211.3 59.1 213 60C215.7 61.4 218.2 63.1 221 64.4C226.5 67.1 232.3 69.3 238.3 70.9C250 74 262.4 74.8 274.5 73.2C280.6 72.4 286.6 71 292.4 68.9C293.8 68.4 295.2 67.9 296.6 67.3C298 66.7 299.4 65.9 301 66.1C302.5 66.2 303.8 67.2 305.1 67.8C306.6 68.5 308.1 69.2 309.7 69.9C323.2 75.6 338.3 77.4 352.8 74.9C355.3 74.5 353.6 69.8 351.4 70.2C338.6 72.4 325.4 71.2 313.2 66.8C310.2 65.7 307.3 64.4 304.5 63C303.1 62.3 301.7 61.6 300.1 61.4C298.5 61.2 297 61.7 295.5 62.4C289.9 64.7 284.3 66.5 278.4 67.6C266.5 69.9 254.2 69.8 242.3 67.3C236.5 66.1 230.8 64.3 225.3 61.9C222.6 60.7 219.9 59.4 217.3 57.9C214.5 56.3 211.9 54.3 208.5 54.3C206.5 54.3 204.6 55 202.6 55.4C200.9 55.7 199.2 56 197.5 56.2C193.9 56.6 190.3 56.6 186.7 56.3C179.5 55.7 172.5 53.6 166.1 50.3C165.1 49.8 164.1 50.3 164 51.4C163.8 52.6 164.5 54 165.6 54.6Z" fill="white"/>
</g>
<mask id="mask3_201_704" style="mask-type:luminance" maskUnits="userSpaceOnUse" x="51" y="51" width="398" height="398">
<path d="M250 448.5C359.629 448.5 448.5 359.629 448.5 250C448.5 140.371 359.629 51.5 250 51.5C140.371 51.5 51.5 140.371 51.5 250C51.5 359.629 140.371 448.5 250 448.5Z" fill="white"/>
</mask>
<g mask="url(#mask3_201_704)">
<path d="M218.3 38.3001C229.1 47.0001 242.1 53.0001 255.7 55.7001C269.8 58.4001 284.4 57.6001 298.2 53.5001C305.9 51.2001 313.2 47.8001 320 43.5001C320.8 43.0001 321.4 42.1001 320.5 41.5001C319.6 40.9001 317.9 41.2001 317.1 41.8001C305.8 49.0001 292.8 53.4001 279.4 54.4001C266.4 55.3001 253.2 53.0001 241.3 47.7001C234.5 44.7001 228.1 40.8001 222.3 36.1001C220.8 34.9001 216.3 36.7001 218.3 38.3001Z" fill="white"/>
</g>
<mask id="mask4_201_704" style="mask-type:luminance" maskUnits="userSpaceOnUse" x="51" y="51" width="398" height="398">
<path d="M250 448.5C359.629 448.5 448.5 359.629 448.5 250C448.5 140.371 359.629 51.5 250 51.5C140.371 51.5 51.5 140.371 51.5 250C51.5 359.629 140.371 448.5 250 448.5Z" fill="white"/>
</mask>
<g mask="url(#mask4_201_704)">
<path d="M75.0999 120.1C87.2999 123.5 99.7999 125.3 112.5 125.4C118.8 125.4 124.9 124.8 131.1 124.1C137.2 123.5 143 126.2 148.9 127.6C160.9 130.5 173.3 131.7 185.6 131.2C191.7 131 197.8 130.4 203.8 129.3C206.9 128.8 209.9 128.1 212.9 127.4C216.1 126.7 218.7 126.6 221.7 127.8C227.1 130 232.3 132.3 237.9 133.8C243.5 135.3 249.3 136.2 255.1 136.4C266.8 136.9 278 134.9 289.1 131C291.8 130.1 294.4 129.5 297.2 130.1C300 130.7 302.7 132 305.2 133.3C310.2 135.8 315.3 138 320.6 139.8C331 143.4 341.9 145.6 353 146.4C374.9 148.1 397.3 144.5 417.3 135.4C419.8 134.2 422.3 133 424.8 131.7C425.9 131.1 426 129.6 425.3 128.7C424.5 127.7 422.9 127.6 421.8 128.2C402.6 138.4 380.7 143.1 359 142.5C348.3 142.2 337.5 140.5 327.2 137.4C322 135.8 316.8 133.9 311.9 131.7C306.8 129.4 301.8 126.2 296.1 125.6C290.3 125.1 285.1 127.9 279.7 129.4C274.2 130.9 268.6 131.8 262.9 132.1C251.7 132.7 240.3 130.8 229.9 126.6C227.1 125.5 224.5 124 221.6 123.2C218.7 122.3 215.8 122.3 212.8 122.9C206.8 124.1 200.9 125.4 194.8 126.1C182.8 127.4 170.6 127.1 158.7 125.1C152.7 124.1 146.8 122.6 141 120.9C138.1 120.1 135.4 119.4 132.4 119.5C129.4 119.6 126.4 120.2 123.4 120.4C110.9 121.5 98.2999 120.7 85.9999 118.2C82.9999 117.6 79.9999 116.9 76.9999 116C75.7999 115.7 74.3999 115.8 73.6999 117C73.1999 118.3 73.9999 119.8 75.0999 120.1Z" fill="white"/>
</g>
<mask id="mask5_201_704" style="mask-type:luminance" maskUnits="userSpaceOnUse" x="51" y="51" width="398" height="398">
<path d="M250 448.5C359.629 448.5 448.5 359.629 448.5 250C448.5 140.371 359.629 51.5 250 51.5C140.371 51.5 51.5 140.371 51.5 250C51.5 359.629 140.371 448.5 250 448.5Z" fill="white"/>
</mask>
<g mask="url(#mask5_201_704)">
<path d="M76.5001 151.1C89.6001 152.8 103.1 154.5 116.2 151.5C119.4 150.8 122.5 149.7 125.5 148.4C128.6 147 131.8 144.1 135.1 146.4C140.2 150 145.5 153.1 151.4 155.4C163 160 175.7 161.7 188.1 160.2C194.2 159.5 200.2 158 205.9 155.7C207.6 155 209.3 154.3 211.1 154.1C213 153.9 214.7 154.4 216.4 155.1C219.5 156.4 222.6 157.9 225.7 159.1C238 164 251.1 167.8 264.5 167.7C270.8 167.6 277.1 166.6 283 164.4C286.1 163.2 288.9 161.5 291.9 160.2C295.6 158.6 298.9 160.2 302.3 161.8C324.2 172.3 348.9 176.6 373 174.8C397.1 173 420.9 165.2 441.1 151.8C443.6 150.1 446.1 148.3 448.5 146.5C449.2 146 446.1 142.1 445.3 142.7C425.9 157.7 402.4 167 378.2 170.2C354.1 173.3 329.1 170.5 306.6 161.2C303.8 160 301.1 158.7 298.4 157.5C295.5 156.1 292.5 155.1 289.3 156.3C286.2 157.5 283.5 159.4 280.4 160.6C277.3 161.8 274 162.7 270.7 163.2C257.6 165.4 244 162.8 231.5 158.6C228.2 157.5 224.9 156.2 221.7 154.9C218.7 153.6 215.8 152.1 212.7 151C209.3 149.8 206.5 150.5 203.3 151.8C200.4 153 197.4 154 194.3 154.8C182.1 157.9 169 157.7 156.9 154.5C150.7 152.9 144.8 150.4 139.3 147.2C138 146.4 136.7 145.6 135.4 144.7C134.1 143.8 132.9 142.7 131.4 142.1C128.4 140.9 125.7 143.1 123.1 144.4C110.9 150.3 96.9001 150 83.7001 148.7C80.3001 148.3 77.0001 147.9 73.6001 147.5C72.8001 147.4 74.0001 149.2 74.1001 149.3C74.7001 149.7 75.6001 151 76.5001 151.1Z" fill="white"/>
</g>
<mask id="mask6_201_704" style="mask-type:luminance" maskUnits="userSpaceOnUse" x="51" y="51" width="398" height="398">
<path d="M250 448.5C359.629 448.5 448.5 359.629 448.5 250C448.5 140.371 359.629 51.5 250 51.5C140.371 51.5 51.5 140.371 51.5 250C51.5 359.629 140.371 448.5 250 448.5Z" fill="white"/>
</mask>
<g mask="url(#mask6_201_704)">
<path d="M63.5001 175.7C84.1001 182.8 108.1 178.9 126 166.7C124.5 167.1 123 167.5 121.5 167.9C132.3 177.1 145.9 181.5 159.6 184.2C166.7 185.6 173.9 186.6 181.1 187.6C188.4 188.6 195.8 189.3 203.2 188.7C211.1 188.1 218.8 186 225.7 182.1C224.2 182.5 222.8 182.9 221.3 183.3C234.9 192.2 250.8 197.2 267 198.1C274.9 198.5 282.9 197.9 290.6 196.3C295.1 195.4 300 193.2 304.6 194.2C308.5 195.1 311.8 197.8 315.3 199.6C329.3 206.9 345.3 210.1 361 209.2C376.6 208.3 391.4 203.5 404.8 195.8C405.9 195.2 407 194.5 408.1 194C409.6 193.4 411.2 193.6 412.7 194C415.1 194.5 417.5 195.5 419.9 196.3C424.6 197.9 429.5 199.1 434.4 200.1C444.5 202 454.9 202.6 465.2 201.7C466.3 201.6 467.5 201.3 468.5 200.8C468.7 200.7 470.2 199.9 469.2 200C459.8 200.8 450.4 200.4 441.2 198.8C436.8 198 432.4 197 428.1 195.8C424 194.6 419.9 192.5 415.7 192.1C407.7 191.3 400.9 196.9 394.2 200.2C387 203.7 379.4 205.9 371.5 206.9C355.8 209 339.4 206.8 324.9 200.4C321.2 198.8 317.8 196.8 314.2 194.8C310.5 192.7 307 192 302.8 192.7C298.7 193.4 294.8 194.7 290.7 195.4C286.5 196.1 282.3 196.5 278.1 196.6C259.7 197 241.4 191.8 226 181.8C225.1 181.2 222.4 182.6 221.6 183C209.8 189.7 194.6 187.2 181.8 185.4C169.4 183.6 156.8 181.8 145 177.2C138.3 174.6 132 171.1 126.5 166.4C125.7 165.7 122.7 167.1 122 167.6C106.2 178.3 86.2001 180.3 68.3001 174.1C67.5001 173.8 66.1001 174.4 65.3001 174.7C64.8001 174.8 63.1001 175.6 63.5001 175.7Z" fill="white"/>
</g>
<mask id="mask7_201_704" style="mask-type:luminance" maskUnits="userSpaceOnUse" x="51" y="51" width="398" height="398">
<path d="M250 448.5C359.629 448.5 448.5 359.629 448.5 250C448.5 140.371 359.629 51.5 250 51.5C140.371 51.5 51.5 140.371 51.5 250C51.5 359.629 140.371 448.5 250 448.5Z" fill="white"/>
</mask>
<g mask="url(#mask7_201_704)">
<path d="M47.7999 202.8C61.3999 204 75.3999 205 89.0999 204.3C94.4999 204 99.9999 203.4 105 201.4C107.5 200.4 109.8 199.1 111.9 197.4C113.8 195.8 115.8 192.4 118.6 192.4C121.3 192.4 123.7 195.4 125.7 197C127.8 198.7 130 200.4 132.3 201.9C137 205.1 141.9 207.8 147.1 210C157.3 214.4 168.2 216.9 179.3 217.5C191.8 218.1 204.5 216.2 216.2 211.7C215.9 211.6 215.6 211.5 215.3 211.4C228.6 221.6 244.6 227.9 261.2 229.6C269.3 230.5 277.6 230.2 285.7 228.9C289.9 228.2 294.1 227.2 298.1 225.9C302.6 224.5 307.3 221.7 312.1 223.4C314.2 224.2 316.2 225.5 318.2 226.5C320.3 227.5 322.4 228.4 324.6 229.1C329.2 230.6 334.1 231.5 338.9 232.1C348.2 233.3 357.6 233.4 366.9 232.4C376.2 231.4 385.3 229.3 394.1 226.2C398.5 224.6 402.7 222.7 407 220.8C409.3 219.7 411.3 219.3 413.7 220.4C415.8 221.4 417.7 222.8 419.8 223.9C437.2 233.3 458 235.6 477 230.3C478 230 476 225.5 474.6 225.9C460 230 444.3 229.4 430 224.6C426.4 223.4 422.9 221.9 419.5 220.1C416.5 218.5 413.6 216 410.2 215.2C406.6 214.4 403 217.1 399.9 218.5C396.3 220.1 392.6 221.5 388.9 222.7C373.6 227.7 357.3 229.5 341.2 228C333.1 227.2 324.7 225.9 317.4 222.3C314.1 220.7 311 218.3 307.2 218.2C303.5 218.1 299.9 220 296.4 221.1C282.8 225.6 268.1 226.6 254 224.2C247 223 240.1 221.1 233.6 218.3C226.9 215.5 221 211.7 215 207.6C213.7 206.7 212.8 207.5 211.4 208C209.8 208.6 208.1 209.1 206.4 209.6C202.9 210.6 199.4 211.4 195.9 211.9C189.3 212.9 182.5 213.2 175.8 212.7C162.1 211.7 148.5 207.8 136.6 200.9C133.6 199.2 130.7 197.3 128 195.3C125.3 193.3 122.9 190.7 120 188.9C116.8 186.9 114.5 187.9 112.1 190.5C109.8 192.9 107.2 194.9 104.1 196.3C97.9999 199.1 91.0999 199.7 84.3999 199.8C75.8999 200 67.3999 199.6 58.9999 199.2C54.6999 198.9 50.3999 198.6 45.9999 198.2C44.5999 198.3 46.2999 202.7 47.7999 202.8Z" fill="white"/>
</g>
<mask id="mask8_201_704" style="mask-type:luminance" maskUnits="userSpaceOnUse" x="51" y="51" width="398" height="398">
<path d="M250 448.5C359.629 448.5 448.5 359.629 448.5 250C448.5 140.371 359.629 51.5 250 51.5C140.371 51.5 51.5 140.371 51.5 250C51.5 359.629 140.371 448.5 250 448.5Z" fill="white"/>
</mask>
<g mask="url(#mask8_201_704)">
<path d="M32.5 221.9C47.1 225.9 62.3 227.1 77.3 225.3C84.5 224.5 91.7 223 98.7 220.8C102.4 219.7 105.9 218.3 109.5 216.9C111.6 216.1 113.6 215.5 115.8 216.1C117.6 216.5 119.2 217.3 120.8 218.1C134.4 224.8 149.1 229.2 164.1 231.1C171.5 232 179 232.3 186.5 232C190.3 231.8 194.3 231.1 198.2 231.3C202 231.5 204.5 233.8 207.1 236.3C229.1 257.5 261.9 254.7 289.4 248.9C293.4 248.1 297.6 246.8 301.7 246.3C305.8 245.9 309.2 247.9 312.8 249.6C319 252.5 325.5 254.8 332.2 256.5C345.6 259.9 359.7 260.7 373.4 259C386.9 257.4 400.1 253.3 412.3 247.1C414.1 246.2 416 244.7 418.1 245.1C419.8 245.5 421.5 246.6 423 247.4C426.3 249.1 429.7 250.5 433.3 251.7C440.5 254.1 448 255.6 455.5 256C459.1 256.2 462.6 256.1 466.2 255.8C467.3 255.7 468.5 255.1 469.4 254.5C469.7 254.3 470.9 253.4 469.9 253.5C454.7 254.7 439.4 251.5 426 244.4C422.9 242.8 420.6 242.1 417.3 243.4C414 244.6 411 246.6 407.8 248.1C401.5 251 394.8 253.2 388 254.7C374.2 257.8 359.9 258.2 346 256C339.1 254.9 332.3 253.1 325.8 250.7C322.6 249.5 319.4 248.2 316.3 246.7C313.1 245.2 310.1 243.5 306.4 243.7C302.4 243.9 298.5 245.2 294.6 246C290.5 246.9 286.5 247.7 282.4 248.4C274.2 249.8 265.9 250.7 257.5 250.6C243.7 250.4 229.3 247.1 217.9 238.9C215.2 237 212.8 234.7 210.4 232.5C208.1 230.3 205.7 228.8 202.4 228.7C198.8 228.6 195.2 229.2 191.6 229.4C187.6 229.6 183.5 229.6 179.4 229.5C164.2 228.9 149.2 225.6 135.1 220C131.6 218.6 128.2 217.1 124.9 215.4C121.9 213.9 118.9 212.8 115.5 213.5C111.9 214.2 108.6 216 105.2 217.2C101.5 218.5 97.7 219.6 93.8 220.5C78.8 224 63.1 224.4 47.9 221.7C44.2 221.1 40.6 220.2 36.9 219.2C36 219 34.7 219.8 34 220.2C33.6 220.6 31.9 221.7 32.5 221.9Z" fill="white"/>
</g>
<mask id="mask9_201_704" style="mask-type:luminance" maskUnits="userSpaceOnUse" x="51" y="51" width="398" height="398">
<path d="M250 448.5C359.629 448.5 448.5 359.629 448.5 250C448.5 140.371 359.629 51.5 250 51.5C140.371 51.5 51.5 140.371 51.5 250C51.5 359.629 140.371 448.5 250 448.5Z" fill="white"/>
</mask>
<g mask="url(#mask9_201_704)">
<path d="M36.4 239.9C56.7 247.7 79.6 247.8 100 240.4C102.5 239.5 104.9 238.2 107.4 237.3C110.2 236.3 112.2 238.1 114.4 239.6C118.7 242.5 123.1 245.1 127.8 247.3C137.2 251.7 147.3 254.7 157.6 256.1C169.3 257.7 181.3 257.3 192.8 254.9C191.9 254.7 191.1 254.4 190.2 254.2C194.2 261.9 201.5 266.9 209.3 270.3C217.5 273.9 226.5 276.1 235.2 278.2C244.7 280.4 254.5 281.9 264.2 280.9C268.8 280.4 273.4 279.3 277.7 277.3C279.8 276.3 281.9 275.1 283.8 273.8C285.6 272.5 287.8 270.5 290.2 270.3C292.8 270.1 295.3 272.2 297.4 273.4C299.5 274.6 301.7 275.7 303.9 276.8C308.2 278.8 312.7 280.6 317.2 281.9C326.3 284.6 335.7 286.1 345.2 286.3C364.5 286.7 383.8 281.6 400.2 271.5C403 269.8 405.1 268.4 408.4 269.8C411.1 270.9 413.6 272.5 416.2 273.8C421.6 276.4 427.2 278.6 433 280.3C444.7 283.7 456.9 285.1 469 284.5C470 284.5 471.6 284 471.8 282.8C472 281.7 470.6 281.1 469.7 281.2C458.9 281.7 448.1 280.6 437.7 277.8C432.5 276.4 427.3 274.5 422.4 272.3C420.2 271.3 418 270.2 415.9 269.1C413.6 267.9 411.4 266.5 408.9 266C403.7 264.9 399.7 267.8 395.5 270.3C391.4 272.7 387.1 274.8 382.6 276.6C373.9 280 364.7 282.1 355.5 282.8C336.5 284.2 317 280.2 300.5 270.6C296.3 268.2 292.3 266.2 287.4 267.8C282.9 269.3 279.5 273 275.3 274.9C266.6 278.8 256.7 278.6 247.4 277.2C237.2 275.6 226.8 273 217.1 269.5C208.1 266.3 199.4 261.5 194.9 252.7C194.5 251.9 193.1 251.8 192.3 252C172.2 256.3 151 253.8 132.2 245.2C127.6 243.1 123.2 240.6 119 237.8C117 236.4 115 234.9 112.7 234.2C110.3 233.5 107.9 233.8 105.6 234.7C100.7 236.6 96.1 238.7 91 240C85.8 241.4 80.5 242.2 75.2 242.6C63.1 243.4 50.9 241.6 39.5 237.2C38.4 236.8 36.9 237 36 237.8C35.2 238.4 35.3 239.5 36.4 239.9Z" fill="white"/>
</g>
<mask id="mask10_201_704" style="mask-type:luminance" maskUnits="userSpaceOnUse" x="51" y="51" width="398" height="398">
<path d="M250 448.5C359.629 448.5 448.5 359.629 448.5 250C448.5 140.371 359.629 51.5 250 51.5C140.371 51.5 51.5 140.371 51.5 250C51.5 359.629 140.371 448.5 250 448.5Z" fill="white"/>
</mask>
<g mask="url(#mask10_201_704)">
<path d="M40.2 261.9C56.1 265.1 72.6 265.5 88.6 262.7C92.5 262 96.3 261.1 100 260.2C101.9 259.7 103.8 259.3 105.8 259.6C108 260 110 261.2 112 262C119.3 265.1 126.8 267.7 134.5 269.6C142.1 271.4 149.8 272.7 157.5 273.2C161.5 273.5 165.5 273.4 169.5 273.5C173.6 273.6 176.2 275.2 179.2 277.6C190 286.2 202.4 292.4 215.6 296.1C228.9 299.8 242.8 301.2 256.5 300.8C263.5 300.6 270.5 300 277.4 299C281.3 298.4 285.3 297.4 289.3 297.7C293.3 298 297 299.8 300.7 301C329.2 310.5 361.2 309.9 389.3 299.4C392.7 298.1 396.1 296.2 399.6 295.2C403.2 294.2 406.7 297.2 409.8 298.7C416.4 302 423.4 304.6 430.5 306.5C444.8 310.3 459.9 311.2 474.5 309C478.1 308.5 481.6 307.8 485.1 306.9C486.3 306.6 486.4 305.3 485.8 304.5C485 303.4 483.6 303.2 482.4 303.5C468 307.1 452.8 307.4 438.2 304.6C431 303.2 423.9 301.1 417.2 298.2C413.9 296.8 410.7 295.1 407.4 293.4C404.3 291.8 401.1 290.8 397.7 291.7C394.2 292.6 390.8 294.5 387.4 295.8C383.9 297.1 380.4 298.3 376.8 299.3C369.5 301.4 361.9 302.8 354.3 303.5C339.4 305 324.3 303.8 309.8 300.1C306.2 299.2 302.6 298.1 299.1 296.8C295.4 295.5 291.7 294.1 287.7 294C283.8 293.9 280 294.7 276.1 295.3C272.7 295.8 269.3 296.2 265.9 296.5C252.2 297.7 238.2 297.4 224.7 294.6C211.3 291.9 198.3 286.9 187.1 279C184.3 277 181.8 274.7 178.9 272.8C175.9 270.8 172.6 269.9 169 269.8C161.2 269.6 153.5 269.4 145.7 268.2C137.9 267 130.2 265.1 122.8 262.5C118.9 261.2 115.1 259.6 111.4 257.9C108 256.4 104.8 255.4 101.1 255.8C97.1 256.3 93.2 257.7 89.2 258.5C85.3 259.3 81.3 259.8 77.3 260.2C69.2 261 61.1 261 53 260.2C48.9 259.8 44.9 259.2 40.9 258.4C39.9 258.2 38.4 258.2 38 259.4C38 260.5 39.2 261.7 40.2 261.9Z" fill="white"/>
</g>
<mask id="mask11_201_704" style="mask-type:luminance" maskUnits="userSpaceOnUse" x="51" y="51" width="398" height="398">
<path d="M250 448.5C359.629 448.5 448.5 359.629 448.5 250C448.5 140.371 359.629 51.5 250 51.5C140.371 51.5 51.5 140.371 51.5 250C51.5 359.629 140.371 448.5 250 448.5Z" fill="white"/>
</mask>
<g mask="url(#mask11_201_704)">
<path d="M38.3 275.6C57.3 279.1 76.8 279.2 95.9 276C94.9 275.9 93.9 275.8 92.9 275.6C114.9 290.2 143.5 293.6 168.4 285.1C167 284.7 165.6 284.4 164.2 284C165.7 292 171.7 297.6 178.4 301.6C186.4 306.4 195.4 309.6 204.3 312.3C213.5 315.1 222.8 317.5 232.1 319.7C241 321.8 250 323.5 259.1 324C267.7 324.5 276.5 324.1 284.8 321.7C289 320.5 293 318.8 296.8 316.7C297.6 316.2 299.2 315.1 300.2 315.4C301 315.6 301.9 317.1 302.5 317.6C303.9 319.1 305.5 320.3 307.4 321.2C314.8 324.9 324.1 324.7 332.1 325.3C341.3 326 350.5 326.5 359.7 326.4C379.7 326.2 400 323.1 417.5 312.8C416.1 312.7 414.6 312.6 413.2 312.6C425.4 325.1 441.9 332.6 459.3 334.1C460 334.2 461.8 334 461.9 333C462 332 460.1 331.7 459.5 331.6C443.6 330.3 428.7 323 417.7 311.6C416.7 310.6 414.5 310.7 413.4 311.4C398.4 320.2 381.1 323.3 364 323.9C355.3 324.2 346.5 323.9 337.8 323.3C333.4 323 329 322.7 324.6 322.3C320.7 322 316.7 321.8 313 320.5C311.1 319.9 309.4 318.9 308 317.6C306.7 316.4 305.7 314.9 304.1 314C300.1 311.6 296.1 313.6 292.5 315.6C285.1 319.6 276.8 321.5 268.5 321.9C251.1 322.7 233.7 317.8 217 313.4C206.7 310.6 196.3 307.5 186.7 302.7C179.2 298.9 171.1 293.3 169.5 284.5C169.2 282.9 166.5 283 165.3 283.4C150.5 288.4 134.3 288.8 119.2 284.5C111.7 282.4 104.5 279.2 98 275C96.1 273.8 94.9 273.7 92.6 274.1C90.1 274.5 87.7 274.8 85.2 275.1C80.6 275.6 76 275.9 71.5 276C61 276.2 50.5 275.4 40.2 273.5C39.4 273.4 37.5 273.2 37.1 274.2C36.2 274.9 37.7 275.5 38.3 275.6Z" fill="white"/>
</g>
<mask id="mask12_201_704" style="mask-type:luminance" maskUnits="userSpaceOnUse" x="51" y="51" width="398" height="398">
<path d="M250 448.5C359.629 448.5 448.5 359.629 448.5 250C448.5 140.371 359.629 51.5 250 51.5C140.371 51.5 51.5 140.371 51.5 250C51.5 359.629 140.371 448.5 250 448.5Z" fill="white"/>
</mask>
<g mask="url(#mask12_201_704)">
<path d="M44.8999 294.4C52.6999 296.8 60.9999 297.6 69.1999 296.9C73.3999 296.5 77.4999 295.4 81.5999 294.7C86.0999 293.9 89.1999 296.3 92.7999 298.6C104.9 306.1 119.5 309.3 133.7 308.3C141.9 307.7 149.9 305.7 157.4 302.4C156.1 302.5 154.9 302.6 153.6 302.7C163.6 322.6 183.5 334.7 204.3 340.8C215.6 344.1 227.4 346 239.2 346.9C250 347.8 261 347.5 271.6 344.9C276.8 343.7 281.8 341.8 286.5 339.4C288.8 338.2 290.9 336.8 293 335.4C293.2 335.3 293.4 335.1 293.6 335C294 334.5 294.2 334.5 294.2 335C294.7 335.1 295.2 335.7 295.6 336C296.7 336.9 297.7 337.8 298.8 338.6C306.5 344.6 315.2 349.1 324.4 352.2C343 358.5 363.5 358.8 382.4 353.5C387.7 352 392.9 350.1 397.9 347.7C400.4 346.5 402.8 345.2 405.1 343.8C406.3 343.1 407.4 342.4 408.6 341.6C409.5 341 410.8 339.6 411.9 339.5C413.1 339.3 415.3 341.1 416.3 341.6C417.8 342.4 419.3 343.1 420.9 343.8C423.9 345.1 426.9 346.2 430.1 347.1C436.5 349 443.2 349.9 449.9 349.9C451 349.9 452.4 349.7 453.3 349C453.9 348.5 454.1 347.9 453 347.9C446.8 347.9 440.7 347 434.8 345.4C428.9 343.8 423.7 341.1 418.3 338.4C413.4 336 409.1 338.5 405 341.3C400.9 344 396.6 346.4 392 348.3C374.2 355.9 353.9 356.9 335.3 352.1C325.9 349.7 316.9 345.8 308.7 340.5C306.9 339.3 305.1 338.1 303.4 336.7C301.6 335.3 299.7 333.1 297.4 332.6C292.1 331.5 287.5 336.5 283.2 338.8C273.7 343.8 262.9 345.2 252.3 345.2C240.9 345.1 229.5 343.6 218.4 341.2C194.4 336.1 170 324.1 158.5 301.2C158 300.2 155.4 301.2 154.7 301.5C142.1 307 127.8 307.6 114.6 304.1C108 302.4 101.7 299.6 95.9999 295.9C93.1999 294.1 90.4999 292.4 86.9999 292.3C83.1999 292.2 79.5999 293.5 75.8999 294.1C66.8999 295.7 57.6999 295 48.8999 292.4C47.8999 292.1 46.3999 292.5 45.4999 293C45.0999 293.4 43.8999 294.1 44.8999 294.4Z" fill="white"/>
</g>
<mask id="mask13_201_704" style="mask-type:luminance" maskUnits="userSpaceOnUse" x="51" y="51" width="398" height="398">
<path d="M250 448.5C359.629 448.5 448.5 359.629 448.5 250C448.5 140.371 359.629 51.5 250 51.5C140.371 51.5 51.5 140.371 51.5 250C51.5 359.629 140.371 448.5 250 448.5Z" fill="white"/>
</mask>
<g mask="url(#mask13_201_704)">
<path d="M41.7 314C48 316.5 54.7 318.2 61.4 318.9C68.3 319.6 75 319.2 81.8 318.3C85.3 317.8 87.6 319.4 90.5 321.2C93.2 322.9 96 324.4 98.9 325.7C104.6 328.2 110.8 329.9 117 330.7C123.2 331.5 129.4 331.5 135.5 330.6C138.7 330.1 141.7 329.3 144.8 328.6C146.2 328.3 147.8 327.8 149.2 328.3C150.7 328.7 151.7 330.1 152.6 331.3C160 341 171.6 345.7 182.9 349.4C209.8 358.1 238.3 361 266.4 358.2C269.9 357.8 273.3 357.4 276.7 356.9C280.3 356.3 283.1 356.1 286.3 358.1C291.3 361.3 296.1 364.7 301.5 367.2C312.3 372.4 324.1 375.2 336 376.4C348.2 377.6 360.5 376.9 372.6 374.9C378.7 373.9 384.7 372.5 390.6 370.8C393.6 369.9 396.6 368.9 399.6 368C402.6 367.1 406 366.4 409.1 367.3C411.6 368.1 413.5 369.7 414.5 372.1C415.3 374.1 420 372.7 419.1 370.3C416.9 365 410.6 363 405.3 363.3C398.8 363.7 392.6 366.6 386.4 368.2C374.6 371.3 362.4 373.2 350.1 373.3C338 373.4 325.8 371.9 314.3 368C308.7 366.1 303.2 363.6 298.1 360.6C292.9 357.5 288.2 352.6 281.7 352.7C278.2 352.7 274.7 353.6 271.3 354C267.7 354.5 264.1 354.8 260.6 355.1C253.5 355.6 246.5 355.7 239.4 355.5C225.1 355 210.9 353 197.1 349.4C190.5 347.7 184 345.8 177.7 343.3C172.1 341.1 166.6 338.4 162.1 334.5C159.8 332.5 158 330.2 156 327.8C154.1 325.5 151.6 324.4 148.6 324.4C145.4 324.4 142.3 325.6 139.2 326.3C136.2 326.9 133.1 327.4 130.1 327.5C117.4 328.2 104.5 324.9 93.8 318C91.1 316.3 88.5 314.6 85.3 314.4C82 314.2 78.7 315.1 75.4 315.4C68.4 315.9 61.4 315.4 54.6 313.8C51.3 313 48.1 312 44.9 310.7C43.8 310.3 42.3 310.4 41.4 311.3C40.5 312.4 40.6 313.6 41.7 314Z" fill="white"/>
</g>
<mask id="mask14_201_704" style="mask-type:luminance" maskUnits="userSpaceOnUse" x="51" y="51" width="398" height="398">
<path d="M250 448.5C359.629 448.5 448.5 359.629 448.5 250C448.5 140.371 359.629 51.5 250 51.5C140.371 51.5 51.5 140.371 51.5 250C51.5 359.629 140.371 448.5 250 448.5Z" fill="white"/>
</mask>
<g mask="url(#mask14_201_704)">
<path d="M41.3001 328.6C49.6001 332.8 58.2001 336.3 67.0001 339.1C71.3001 340.5 75.7001 341.6 80.1001 342.6C84.5001 343.6 88.9001 344.1 93.3001 345C97.6001 346 100 349.6 103.4 352.2C106.3 354.4 109.5 356.1 112.8 357.5C119.7 360.2 127.2 361.1 134.5 361.4C142.4 361.7 150.3 360.9 158.2 361.4C160.2 361.5 162.1 361.9 163.9 362.9C165.8 364 167.5 365.4 169.2 366.6C172.3 368.9 175.6 371 179 373C192.7 380.9 208.1 385.8 223.8 387.6C241.6 389.6 259.8 387.4 276.6 381.1C275.6 380.9 274.6 380.8 273.6 380.6C284.4 392 299.5 398.3 314.9 400.2C332.6 402.4 350.5 398.6 367.2 392.9C368.5 392.5 369.7 392 371 391.6C372 391.2 373.4 390.5 374.5 390.5C376.5 390.5 378.7 392.7 380.3 393.8C384.9 396.9 389.5 400 394.1 403.1C396.4 404.7 399.7 401.3 397 399.5C393 396.8 389 394.1 385 391.3C381.7 389.1 378.2 385.7 373.9 386.2C371.8 386.5 369.8 387.4 367.8 388.2C365.5 389 363.2 389.8 360.9 390.6C356.7 391.9 352.4 393.1 348.1 394C331.8 397.6 314.6 397.8 298.9 391.7C290.9 388.6 283.6 383.9 277.7 377.7C276.9 376.9 275.7 376.9 274.7 377.2C245.7 388.1 212.2 385.5 185 370.9C181.6 369.1 178.2 367 175 364.8C171.7 362.5 168.6 359.6 164.8 358.1C160.9 356.6 156.7 356.8 152.6 356.9C148.8 357 145 357 141.2 357C134 357 126.6 356.7 119.6 354.8C116.2 353.9 112.9 352.6 109.8 350.8C106.5 348.8 104.1 345.9 101.1 343.5C97.2001 340.4 92.1001 340.3 87.4001 339.4C82.4001 338.5 77.5001 337.3 72.6001 335.9C62.8001 333.1 53.3001 329.4 44.3001 324.8C43.2001 324.2 41.7001 324.4 40.8001 325.4C40.0001 326.5 40.2001 328 41.3001 328.6Z" fill="white"/>
</g>
<mask id="mask15_201_704" style="mask-type:luminance" maskUnits="userSpaceOnUse" x="51" y="51" width="398" height="398">
<path d="M250 448.5C359.629 448.5 448.5 359.629 448.5 250C448.5 140.371 359.629 51.5 250 51.5C140.371 51.5 51.5 140.371 51.5 250C51.5 359.629 140.371 448.5 250 448.5Z" fill="white"/>
</mask>
<g mask="url(#mask15_201_704)">
<path d="M76.9999 358.7C79.9999 359.1 82.9999 359.4 85.8999 359.8C87.1999 360 88.5999 360.1 89.8999 360.3C91.2999 360.5 92.7999 360.5 94.1999 360.9C96.2999 361.5 97.7999 364.1 99.1999 365.6C100.7 367.2 102.4 368.7 104.1 370.1C111.4 376 120 380 129.1 381.9C133.6 382.9 138.2 383.2 142.8 383.1C145.1 383 147.4 382.8 149.7 382.4C150.8 382.2 152 381.9 153.1 381.8C154.5 381.7 155.4 382.3 156.6 383.1C165.1 388.5 174.1 393 183.6 396.5C202.5 403.4 222.9 406.2 242.9 404.5C247.9 404.1 252.8 403.4 257.7 402.5C260.2 402 262.7 401.4 265.2 400.8C267.5 400.2 270 399.3 272.2 400.7C274.3 402 276.1 403.6 278.2 404.9C280.4 406.3 282.7 407.5 285 408.6C289.7 410.8 294.6 412.4 299.6 413.6C310.4 416.1 321.5 416.4 332.5 415.4C338.3 414.9 344 414 349.7 412.9C352.3 412.4 355.1 411.4 357.7 411.4C358.9 411.4 359.6 412.1 360.4 412.8C361.6 413.8 362.8 414.9 364 415.9C366.2 417.8 368.5 419.7 370.7 421.7C371.6 422.5 373.1 422.8 374.2 422.1C375.2 421.4 375 420.1 374.1 419.4C371.8 417.4 369.5 415.4 367.2 413.4C365.1 411.6 363 409.2 360.4 408.2C357.8 407.2 355.2 407.7 352.6 408.3C349.7 408.9 346.8 409.5 343.9 410C332.6 411.9 321 413 309.6 411.7C299.4 410.5 289.4 407.6 280.7 402.1C278.6 400.8 276.8 399.2 274.7 397.9C272.3 396.4 269.5 396 266.7 396.5C264.1 396.9 261.5 397.8 258.9 398.3C256.5 398.8 254 399.3 251.5 399.7C231.7 402.8 211.2 401.4 192 395.5C182.4 392.6 173.2 388.6 164.5 383.6C162.3 382.3 160.2 380.9 157.9 379.6C155.2 378 152.7 378 149.6 378.6C145.2 379.5 140.7 379.7 136.2 379.4C127.2 378.7 118.4 375.6 110.9 370.6C107.1 368.1 103.7 365 100.8 361.6C98.8999 359.4 96.9999 357.8 94.0999 357.3C91.2999 356.7 88.2999 356.5 85.3999 356.2C82.4999 355.9 79.5999 355.5 76.7999 355.2C75.6999 355.1 74.3999 355.6 74.3999 356.9C74.4999 357.8 75.8999 358.6 76.9999 358.7Z" fill="white"/>
</g>
<mask id="mask16_201_704" style="mask-type:luminance" maskUnits="userSpaceOnUse" x="51" y="51" width="398" height="398">
<path d="M250 448.5C359.629 448.5 448.5 359.629 448.5 250C448.5 140.371 359.629 51.5 250 51.5C140.371 51.5 51.5 140.371 51.5 250C51.5 359.629 140.371 448.5 250 448.5Z" fill="white"/>
</mask>
<g mask="url(#mask16_201_704)">
<path d="M104.8 392.9C112.3 396.1 120.4 397.8 128.6 397.8C132.6 397.8 136.5 397.4 140.4 396.6C142.4 396.2 144.3 395.5 146.3 395.2C147 395.1 147.5 395.1 148.1 395.5C148.9 396.1 149.5 396.8 150.3 397.3C162.1 406.9 176.9 411.2 191.6 413.9C208.3 416.9 225.6 419 242.7 418C247.1 417.8 251.5 417.3 255.8 416.5C257.9 416.1 260.1 415.6 262.2 415.3C264.2 415.1 265.7 415.7 267.4 416.7C274.2 420.7 281.4 424 288.9 426.3C303.8 431 319.8 432.3 335.2 429.8C337.1 429.5 339 429.1 340.8 428.7C343.5 428.1 341 424 338.9 424.4C323.8 427.7 308.2 427.4 293.2 423.5C285.8 421.6 278.7 418.8 272 415.2C268.5 413.3 265.2 410.7 261 410.9C258.8 411 256.5 411.7 254.3 412.1C252.2 412.5 250 412.8 247.9 413C230.7 415 213.4 413.1 196.4 410.5C182.1 408.3 167.3 405.1 155.2 396.6C153.8 395.6 152.4 394.5 151.1 393.4C149.5 392 147.9 390.7 145.6 390.7C143.7 390.7 141.8 391.4 140 391.9C138.1 392.4 136.1 392.7 134.2 393C126.4 394 118.3 393.4 110.7 391C108.8 390.4 107 389.7 105.1 388.9C104.1 388.5 102.9 388.8 102.8 390C102.7 391.3 103.8 392.5 104.8 392.9Z" fill="white"/>
</g>
<mask id="mask17_201_704" style="mask-type:luminance" maskUnits="userSpaceOnUse" x="51" y="51" width="398" height="398">
<path d="M250 448.5C359.629 448.5 448.5 359.629 448.5 250C448.5 140.371 359.629 51.5 250 51.5C140.371 51.5 51.5 140.371 51.5 250C51.5 359.629 140.371 448.5 250 448.5Z" fill="white"/>
</mask>
<g mask="url(#mask17_201_704)">
<path d="M132.1 416.4C135.9 416.7 139.8 416.3 143.6 415.4C145.2 415 146.7 414.5 148.2 413.9C149 413.6 149.9 413.3 150.6 412.8C150.7 412.8 150.9 412.7 151 412.7C149.7 412.5 149.4 412.5 150.1 412.8C150.5 413.1 151 413.4 151.4 413.7C157.1 417.6 163.4 420.8 169.8 423.3C176.4 425.9 183.2 427.9 190.1 429.7C197.1 431.5 204.1 433.1 211.2 434.3C218.3 435.5 225.6 436.1 232.7 435.5C236.2 435.2 239.7 434.6 243.1 433.5C244.8 433 246.4 432.4 248 431.7C248.8 431.4 249.6 431.1 250.4 430.7C250.9 430.4 250.3 430.6 250.8 430.7C251.3 430.8 251.9 431.1 252.4 431.4C258.9 434.4 265.3 437.2 272.1 439.3C278.9 441.4 285.8 443 292.9 444.1C308.9 446.6 325.4 446.4 341.4 443.3C342 443.2 343.1 442.8 342.3 442.1C341.6 441.4 339.8 441.5 338.9 441.6C311.3 446.9 282.4 443 257.2 430.8C253.7 429.1 250 428.1 246.2 429.5C244.7 430.1 243.3 430.8 241.8 431.4C240.1 432 238.3 432.6 236.5 433C229.8 434.4 222.9 434.2 216.2 433.3C209.4 432.4 202.7 430.8 196 429.2C189.2 427.6 182.5 425.7 175.9 423.3C168.5 420.6 161.7 417 155.1 412.7C153.4 411.6 151.5 411 149.5 411.1C147.3 411.2 145.5 412.4 143.6 413.2C140 414.6 136.2 415.1 132.3 414.9C131.8 414.9 129.8 414.8 129.8 415.7C129.6 416.2 131.7 416.4 132.1 416.4Z" fill="white"/>
</g>
<mask id="mask18_201_704" style="mask-type:luminance" maskUnits="userSpaceOnUse" x="51" y="51" width="398" height="398">
<path d="M250 448.5C359.629 448.5 448.5 359.629 448.5 250C448.5 140.371 359.629 51.5 250 51.5C140.371 51.5 51.5 140.371 51.5 250C51.5 359.629 140.371 448.5 250 448.5Z" fill="white"/>
</mask>
<g mask="url(#mask18_201_704)">
<path d="M165.2 436.5C178.4 443.3 193.3 445.2 208 445.6C216 445.8 224.1 445.6 232.1 445.6C236 445.6 240 445.6 243.9 445.8C245.8 445.9 247.8 445.9 249.7 446.4C251.8 446.9 253.7 447.8 255.7 448.7C263.9 452.4 272.2 456.1 280.4 459.8C281.4 460.2 280.5 458.9 280.3 458.6C279.7 457.7 278.8 456.7 277.8 456.3C270.5 453 263.1 449.7 255.8 446.4C252.2 444.8 248.7 442.8 244.7 442.4C240.8 441.9 236.9 442 233 442C217.4 441.9 201.7 442.9 186.3 440.5C178.1 439.2 170.1 436.9 162.7 433.2C161.7 432.7 162.6 434.2 162.8 434.4C163.3 435 164.2 436 165.2 436.5Z" fill="white"/>
</g>
</svg>
