<svg width="500" height="500" viewBox="0 0 500 500" fill="none" xmlns="http://www.w3.org/2000/svg">
<mask id="mask0_201_748" style="mask-type:luminance" maskUnits="userSpaceOnUse" x="51" y="51" width="398" height="398">
<path d="M250 448.5C359.629 448.5 448.5 359.629 448.5 250C448.5 140.371 359.629 51.5 250 51.5C140.371 51.5 51.5 140.371 51.5 250C51.5 359.629 140.371 448.5 250 448.5Z" fill="white"/>
</mask>
<g mask="url(#mask0_201_748)">
<path d="M98.3 80.5C146.1 79.8 193.8 79.2 241.6 78.5C289.4 77.8 337.1 77.2 384.9 76.5C411.7 76.1 438.5 75.8 465.2 75.4C463.9 74.3 462.7 73.3 461.4 72.2C420.9 79.1 380.4 85.8 339.8 92.3C299 98.8 258.1 105 217.2 111C194.4 114.3 171.6 117.6 148.7 120.8C148.2 120.9 149.7 122.1 149.8 122.2C150.3 122.7 151.6 123.9 152.4 123.9C203 123 253.6 123.3 304.2 125C318.7 125.5 333.1 126 347.5 126.7C346.2 125.6 345 124.6 343.7 123.5C294.9 134.1 246.4 146.3 198.3 160.2C184.7 164.1 171.1 168.2 157.5 172.4C157.6 172.4 160.4 175.5 161.3 175.6C216 181.7 270.7 187.8 325.4 193.9C340.9 195.6 356.4 197.4 371.8 199.1C370.6 198 369.4 197 368.2 195.9C321.3 199.3 274.4 202.7 227.4 206.1C180.4 209.5 133.6 212.9 86.6 216.3C60.3 218.2 33.9 220.1 7.60004 222C7.10004 222 8.60004 223.4 8.70004 223.4C9.20004 223.9 10.5 225.1 11.3 225.1C50.6 224.4 90 224.3 129.3 224.8C168.8 225.3 208.3 226.4 247.8 228.1C270 229.1 292.1 230.2 314.3 231.6C313.1 230.5 311.9 229.5 310.7 228.4C265.6 234.4 220.4 240.4 175.3 246.4C162.4 248.1 149.5 249.8 136.6 251.5C136.1 251.6 137.6 252.8 137.7 252.9C138.2 253.4 139.4 254.6 140.3 254.6C168 254.4 195.8 255.9 223.3 259C222 257.9 220.8 256.9 219.5 255.8C175.8 266.9 132 278.1 88.3 289.2C88.6001 289.1 91 292.3 92.1 292.4C149.6 293.3 207 293.8 264.5 294C322 294.2 379.4 294 436.9 293.5C469.2 293.2 501.4 292.8 533.7 292.4C532.5 291.3 531.3 290.3 530.1 289.2C489.1 295.3 448.1 301 407 306.5C365.9 312 324.8 317.2 283.6 322.1C260.3 324.9 237.1 327.5 213.8 330.1C213.3 330.2 214.8 331.4 214.9 331.5C215.5 332 216.6 333.1 217.5 333.2C261.4 337.2 305.4 341.3 349.3 345.3C348.1 344.2 346.9 343.2 345.7 342.1C318.2 346 291.5 353.7 266.1 364.9C266 364.9 269.1 368 269.9 368.1C307 370.2 344.2 372.2 381.4 374C418.6 375.8 455.7 377.5 492.9 379.1C513.8 380 534.8 380.9 555.7 381.8C554.5 380.7 553.3 379.7 552.1 378.6C489.6 384 427 387.7 364.4 390.4C302.1 393.1 239.8 394.7 177.4 395.9C142.1 396.6 106.8 397.2 71.4 397.8C70.9 397.8 72.4 399.2 72.5 399.2C73.1 399.7 74.2 400.9 75.1 400.9C125.7 405.1 176.3 409.2 226.9 413.4C241.4 414.6 255.8 415.8 270.3 417C269 415.9 267.8 414.9 266.5 413.8C245.4 419.6 224.3 425.3 203.1 431.1C203.3 431.1 205.9 434.2 206.9 434.3C263.5 438.4 320.3 441 377 442.1C392.9 442.4 408.8 442.6 424.7 442.7C425.2 442.7 423.7 441.3 423.6 441.3C423.1 440.8 421.9 439.6 421 439.6C364.2 439.4 307.5 437.6 250.8 434.4C234.9 433.5 219 432.5 203.2 431.3C204.5 432.4 205.7 433.4 207 434.5C228.1 428.7 249.2 423 270.4 417.2C270.2 417.2 267.6 414.1 266.6 414C216 409.8 165.4 405.7 114.8 401.5C100.3 400.3 85.9 399.1 71.4 397.9C72.6 399 73.8 400 75 401.1C137.7 400.1 200.4 399 263.1 397.3C325.4 395.6 387.7 393.2 450 389.5C485.3 387.4 520.5 384.9 555.7 381.9C556.2 381.9 554.7 380.6 554.6 380.5C554 380 552.9 378.8 552 378.8C514.8 377.2 477.7 375.6 440.5 373.9C403.3 372.2 366.2 370.4 329 368.5C308.1 367.4 287.2 366.3 266.2 365.1C267.5 366.2 268.7 367.2 270 368.3C295.3 357.1 322 349.4 349.3 345.6C349.8 345.5 348.3 344.3 348.2 344.2C347.6 343.7 346.5 342.6 345.6 342.5C301.7 338.5 257.7 334.4 213.8 330.4C215 331.5 216.2 332.5 217.4 333.6C258.6 329 299.8 324.2 340.9 319C382 313.8 423.1 308.4 464.2 302.7C487.4 299.5 510.6 296.1 533.8 292.7C534.3 292.6 532.8 291.4 532.7 291.3C532.2 290.8 530.9 289.6 530.1 289.6C472.6 290.5 415.2 291 357.7 291.2C300.2 291.4 242.8 291.3 185.3 290.8C153 290.5 120.8 290.2 88.5 289.7C89.8 290.8 91 291.8 92.3 292.9C136 281.8 179.8 270.6 223.5 259.5C223.3 259.5 220.6 256.5 219.7 256.3C192.1 253.2 164.4 251.7 136.7 251.9C137.9 253 139.1 254 140.3 255.1C185.4 249.1 230.6 243.1 275.7 237.1C288.6 235.4 301.5 233.7 314.4 232C314.9 231.9 313.4 230.7 313.3 230.6C312.7 230.1 311.6 228.9 310.7 228.9C271.4 226.5 232.1 224.7 192.8 223.6C153.3 222.4 113.8 221.8 74.3 221.9C52.1 221.9 29.9 222.1 7.70004 222.5C8.90004 223.6 10.1 224.6 11.3 225.7C58.2 222.3 105.1 218.9 152.1 215.5C199.1 212.1 245.9 208.7 292.9 205.3C319.2 203.4 345.6 201.5 371.9 199.6C372.4 199.6 370.9 198.2 370.8 198.2C370.2 197.7 369.1 196.6 368.2 196.5C313.5 190.4 258.8 184.3 204.1 178.2C188.6 176.5 173.1 174.7 157.7 173C159 174.1 160.2 175.1 161.5 176.2C209.3 161.5 257.5 148.3 306.1 136.8C319.9 133.5 333.7 130.4 347.6 127.4C347.8 127.4 346.2 125.8 346.1 125.8C345.6 125.3 344.6 124.3 343.8 124.3C293.2 122 242.6 120.9 192 121.1C177.5 121.2 163.1 121.3 148.6 121.6C149.8 122.7 151 123.7 152.2 124.8C193.1 119.1 233.9 113.2 274.7 107C315.3 100.8 356 94.4 396.5 87.7C419.4 83.9 442.3 80.1 465.2 76.1C465.4 76.1 463.8 74.5 463.7 74.5C463.2 74.1 462.1 73 461.4 73C413.6 73.7 365.9 74.3 318.1 75C270.3 75.7 222.6 76.3 174.8 77C148 77.4 121.2 77.7 94.5 78.1C94 78.1 95.5 79.5 95.6 79.5C96.3 79.2 97.5 80.5 98.3 80.5Z" fill="white"/>
</g>
<mask id="mask1_201_748" style="mask-type:luminance" maskUnits="userSpaceOnUse" x="51" y="51" width="398" height="398">
<path d="M250 448.5C359.629 448.5 448.5 359.629 448.5 250C448.5 140.371 359.629 51.5 250 51.5C140.371 51.5 51.5 140.371 51.5 250C51.5 359.629 140.371 448.5 250 448.5Z" fill="white"/>
</mask>
<g mask="url(#mask1_201_748)">
<path d="M423.8 145.1C404.1 145.2 384.5 145.8 364.9 147C345.2 148.2 325.5 150 305.9 152.3C294.8 153.6 283.8 155.1 272.8 156.8C272.3 156.9 271.4 157.3 271.5 157.9C271.6 158.6 272.7 158.9 273.2 159C292.8 162.8 312.4 166.3 332.1 169.3C351.8 172.3 371.5 174.9 391.3 177C402.5 178.2 413.6 179.3 424.8 180.2C424.6 179.4 424.5 178.6 424.3 177.8C404.3 179.1 384.3 180.4 364.3 181.7C363.7 181.7 362.6 181.9 362.5 182.6C362.3 183.3 363.1 183.7 363.6 183.9C379.4 189.9 395.2 195.9 410.9 202C410.8 201.4 410.6 200.7 410.5 200.1C378.6 209.9 346.6 219.8 314.7 229.6C305.7 232.4 296.7 235.2 287.7 237.9C287.1 238.1 286.7 238.6 287.1 239.2C287.5 239.8 288.6 240 289.3 240.1C321.7 242.7 354.2 246 386 253.3C394.9 255.3 403.7 257.7 412.4 260.4C412.6 259.7 412.9 259 413.1 258.2C392.9 260.1 372.7 261.9 352.5 263.8C332.3 265.7 312.1 267.5 291.9 269.4C280.5 270.5 269.1 271.5 257.7 272.6C257.1 272.7 255.7 272.9 255.8 273.8C255.9 274.7 257.5 274.9 258.2 275C280.7 276.6 303.3 278.2 325.8 279.8C348.3 281.4 370.9 283 393.4 284.6C406 285.5 418.7 286.4 431.3 287.3C431.1 286.5 431 285.7 430.8 284.9C405.2 288.4 379.6 291.9 354 295.4C328.4 298.9 302.8 302.4 277.2 305.9C262.8 307.9 248.4 309.8 233.9 311.8C233.3 311.9 231.9 312.1 232 313C232.1 313.9 233.7 314.2 234.4 314.2C257.4 315.1 280.4 316.3 303.4 317.7C326.2 319.1 349 320.6 371.8 322.4C384.7 323.4 397.6 324.5 410.6 325.7C410.2 324.9 409.9 324.2 409.5 323.4C392 328.5 374.7 334.6 357.8 341.6C353 343.6 348.3 345.6 343.6 347.8C341.5 348.7 344.2 349.9 345.2 350C364.2 351.4 383.3 352.8 402.3 354.2C421.3 355.6 440.4 357 459.4 358.4C470.2 359.2 480.9 360 491.7 360.8C492.4 360.9 494.2 360.8 494.3 359.8C494.4 358.8 492.5 358.5 491.9 358.4C472.9 357 453.8 355.6 434.8 354.2C415.8 352.8 396.7 351.4 377.7 350C366.9 349.2 356.2 348.4 345.4 347.6C345.9 348.3 346.5 349 347 349.8C363.4 342.4 380.2 335.9 397.4 330.3C402.2 328.7 407 327.2 411.9 325.8C412.5 325.6 413.4 325.3 413.1 324.5C412.8 323.7 411.4 323.5 410.7 323.5C387.8 321.5 364.8 319.6 341.8 318C319 316.4 296.2 315 273.4 313.8C260.5 313.1 247.5 312.5 234.6 312C234.8 312.8 234.9 313.6 235.1 314.4C260.7 310.9 286.3 307.4 311.9 303.9C337.5 300.4 363.1 296.9 388.7 293.4C403.1 291.4 417.5 289.5 432 287.5C432.6 287.4 434 287.2 433.9 286.3C433.8 285.4 432.2 285.2 431.5 285.1C409 283.5 386.4 281.9 363.9 280.3C341.4 278.7 318.8 277.1 296.3 275.5C283.7 274.6 271 273.7 258.4 272.8C258.6 273.6 258.7 274.4 258.9 275.2C279.1 273.3 299.3 271.5 319.5 269.6C339.7 267.7 359.9 265.9 380.1 264C391.5 262.9 402.9 261.9 414.3 260.8C414.9 260.7 415.9 260.6 416.1 259.9C416.3 259.3 415.5 258.8 415 258.6C399.2 253.7 383 249.9 366.7 247C350.3 244.1 333.8 242 317.3 240.3C308 239.4 298.7 238.6 289.4 237.8C289.9 238.5 290.5 239.2 291 240C322.9 230.2 354.9 220.3 386.8 210.5C395.8 207.7 404.8 204.9 413.8 202.2C415.3 201.7 414.3 200.6 413.4 200.3C397.6 194.3 381.8 188.3 366.1 182.2C365.9 182.9 365.6 183.6 365.4 184.4C385.4 183.1 405.4 181.8 425.4 180.5C426 180.5 427.4 180.2 427.3 179.3C427.2 178.4 425.6 178.2 424.9 178.1C405.2 176.4 385.6 174.4 366 171.9C346.5 169.4 327 166.5 307.5 163.1C296.5 161.2 285.6 159.2 274.6 157C274.8 157.7 274.9 158.5 275.1 159.2C294.4 156.3 313.8 153.9 333.3 152.1C352.8 150.3 372.3 149 391.9 148.4C402.9 148 413.9 147.8 424.9 147.8C425.6 147.8 427.1 147.4 426.7 146.4C426.5 145.1 424.6 145.1 423.8 145.1Z" fill="white"/>
</g>
<mask id="mask2_201_748" style="mask-type:luminance" maskUnits="userSpaceOnUse" x="51" y="51" width="398" height="398">
<path d="M250 448.5C359.629 448.5 448.5 359.629 448.5 250C448.5 140.371 359.629 51.5 250 51.5C140.371 51.5 51.5 140.371 51.5 250C51.5 359.629 140.371 448.5 250 448.5Z" fill="white"/>
</mask>
<g mask="url(#mask2_201_748)">
<path d="M81.2 89.4001C128.6 88.5001 176 87.6001 223.4 86.7001C236.6 86.4001 249.8 86.2001 263.1 85.9001C261.8 85.0001 260.5 84.1001 259.1 83.1001C211.2 92.6001 163.4 102.9 115.8 113.9C102.3 117 88.9 120.2 75.5 123.4C74.8 123.6 76.5 124.8 76.7 124.9C77.5 125.4 78.5 126.2 79.5 126.2C124 126.4 168.6 127.8 213 130.3C225.4 131 237.8 131.8 250.2 132.7C248.9 131.8 247.6 130.9 246.2 129.9C205.5 137.5 165 146 124.6 155.5C113.2 158.2 101.9 160.9 90.6 163.7C89.9 163.9 91.6 165.1 91.8 165.2C92.5 165.7 93.7 166.5 94.6 166.5C138.2 165 181.8 166.5 225.2 171C237.4 172.3 249.6 173.8 261.7 175.6C260.5 174.7 259.2 173.8 258 172.9C229.1 177.5 200.2 182.2 171.2 186.8C142.2 191.4 113.4 196.1 84.4 200.7C68.2 203.3 51.9 205.9 35.7 208.5C35 208.6 36.7 209.9 36.9 210C37.7 210.5 38.7 211.3 39.7 211.3C86.9 211.8 134 215.6 180.6 222.8C193.7 224.8 206.7 227.1 219.7 229.6C218.5 228.7 217.2 227.8 216 226.9C178.2 234.1 140.6 241.9 103.1 250.3C92.5 252.7 82 255.1 71.4 257.6C70.7 257.8 72.4 259 72.6 259.1C73.4 259.7 74.4 260.3 75.4 260.4C108.2 262 141 263.6 173.9 265.2C183.1 265.6 192.3 266.1 201.5 266.5C200.2 265.6 198.9 264.7 197.5 263.7C171.6 268.7 146.1 275.8 121.3 284.9C120.7 285.1 122.3 286.2 122.5 286.4C123.3 286.9 124.3 287.7 125.3 287.7C162.8 288.3 200.3 288.9 237.9 289.5C248.6 289.7 259.3 289.8 270 290C268.7 289.1 267.4 288.2 266 287.2C236.1 293 206 297.9 175.8 302.3C145.6 306.7 115.4 310.6 85.1 314.2C68 316.3 50.9 318.3 33.8 320.3C33.1 320.4 34.9 321.7 35 321.8C35.8 322.4 36.8 323 37.8 323.1C73.7 324.9 109.5 326.7 145.4 328.6C181.3 330.5 217.1 332.2 253 334.1C273.2 335.1 293.3 336.2 313.5 337.2C312.2 336.3 310.9 335.4 309.5 334.4C285.1 339.7 260.5 343.9 235.8 347.3C211.1 350.7 186.2 353.4 161.4 355.9C147.3 357.3 133.3 358.6 119.2 359.9C118.5 360 120.3 361.3 120.4 361.4C121.1 361.9 122.3 362.7 123.2 362.7C167.4 360.8 211.6 361.9 255.6 366.3C267.8 367.5 280.1 368.9 292.3 370.6C291.1 369.7 289.8 368.8 288.6 367.9C257.8 374.8 227 381.6 196.3 388.5C195.6 388.6 197.3 389.9 197.5 390C198.3 390.5 199.3 391.3 200.3 391.3C227.8 391.4 255.3 392 282.8 393.2C310.4 394.4 338 396.2 365.5 398.5C381.1 399.8 396.6 401.3 412.2 403C411 402.1 409.7 401.2 408.5 400.3C369.9 407 330.9 410.8 291.8 413.6C252.8 416.4 213.7 418.3 174.7 421.1C152.7 422.7 130.8 424.6 108.9 427.2C108.2 427.3 110 428.6 110.1 428.7C110.9 429.3 111.9 429.9 112.9 430C139.4 432.1 165.9 433.8 192.5 434.9C219.2 436.1 245.9 436.7 272.6 436.9C287.6 437 302.7 436.9 317.7 436.7C318.4 436.7 316.6 435.3 316.5 435.2C315.8 434.7 314.7 433.9 313.7 433.9C287.1 434.3 260.5 434.2 233.9 433.6C207.2 433 180.5 431.9 153.8 430.3C138.8 429.4 123.8 428.4 108.8 427.2C110.1 428.1 111.4 429 112.8 430C151.8 425.4 190.9 422.9 230.1 420.5C269.1 418.2 308.2 415.9 347 411.9C368.9 409.6 390.7 406.8 412.4 403C413 402.9 411.6 401.8 411.5 401.7C410.8 401.1 409.7 400.4 408.7 400.3C381.3 397.3 353.8 394.9 326.2 393.1C298.5 391.3 270.8 390 243.1 389.3C227.5 388.9 211.9 388.7 196.3 388.6C197.6 389.5 198.9 390.4 200.3 391.4C231.1 384.5 261.9 377.7 292.6 370.8C293.2 370.7 291.8 369.6 291.7 369.5C290.9 368.9 289.9 368.2 288.9 368.1C245.2 362.1 201 359.1 156.9 359.3C144.4 359.3 131.8 359.6 119.3 360.2C120.6 361.1 121.9 362 123.3 363C148.2 360.7 173 358.4 197.9 355.6C222.7 352.8 247.5 349.6 272.1 345.5C286 343.2 299.9 340.5 313.7 337.5C314.4 337.4 312.7 336.1 312.5 336C311.7 335.4 310.7 334.8 309.7 334.7C273.8 332.9 238 331.1 202.1 329.2C166.2 327.3 130.4 325.6 94.5 323.7C74.3 322.7 54.2 321.6 34 320.6C35.3 321.5 36.6 322.4 38 323.4C68.3 319.8 98.6 316.3 128.8 312.4C159 308.5 189.2 304.3 219.3 299.3C236.3 296.5 253.2 293.5 270.1 290.3C270.8 290.2 269.1 288.9 268.9 288.8C268.1 288.3 267.1 287.5 266.1 287.5C228.6 286.9 191.1 286.3 153.5 285.7C142.8 285.5 132.1 285.4 121.4 285.2C122.7 286.1 124 287 125.4 288C150.2 278.9 175.7 271.9 201.6 266.8C202.3 266.7 200.6 265.4 200.4 265.3C199.6 264.7 198.6 264.1 197.6 264C164.8 262.4 132 260.8 99.1 259.2C89.9 258.8 80.7 258.3 71.5 257.9C72.8 258.8 74.1 259.7 75.5 260.7C112.9 251.9 150.5 243.8 188.1 236.2C198.7 234.1 209.4 232 220 230C220.6 229.9 219.2 228.8 219.1 228.7C218.3 228.1 217.3 227.4 216.3 227.3C170.1 218.2 123.2 212.5 76.1 210.1C62.6 209.4 49.2 209 35.7 208.9C37 209.8 38.3 210.7 39.7 211.7C68.6 207.1 97.5 202.4 126.5 197.8C155.5 193.2 184.3 188.5 213.3 183.9C229.5 181.3 245.8 178.7 262 176.1C262.6 176 261.2 174.9 261.1 174.8C260.3 174.2 259.3 173.5 258.3 173.4C215 167.1 171.2 163.8 127.4 163.7C115.1 163.6 102.9 163.8 90.6 164.3C91.9 165.2 93.2 166.1 94.6 167.1C134.8 157.2 175.2 148.1 215.8 140C227.2 137.7 238.7 135.5 250.2 133.3C250.9 133.2 249.2 131.9 249 131.8C248.2 131.2 247.2 130.6 246.2 130.5C201.8 127.4 157.3 125.3 112.8 124.5C100.4 124.3 87.9 124.1 75.5 124C76.8 124.9 78.1 125.8 79.5 126.8C127 115.4 174.7 104.7 222.5 94.7001C236 91.9001 249.6 89.1001 263.1 86.4001C263.8 86.3001 262.1 85.0001 261.9 84.9001C261.2 84.4001 260.1 83.6001 259.1 83.6001C211.7 84.5001 164.3 85.4001 116.9 86.3001C103.7 86.6001 90.5 86.8001 77.2 87.1001C76.5 87.1001 78.3 88.5001 78.4 88.6001C79.2 88.6001 80.3 89.4001 81.2 89.4001Z" fill="white"/>
</g>
<mask id="mask3_201_748" style="mask-type:luminance" maskUnits="userSpaceOnUse" x="51" y="51" width="398" height="398">
<path d="M250 448.5C359.629 448.5 448.5 359.629 448.5 250C448.5 140.371 359.629 51.5 250 51.5C140.371 51.5 51.5 140.371 51.5 250C51.5 359.629 140.371 448.5 250 448.5Z" fill="white"/>
</mask>
<g mask="url(#mask3_201_748)">
<path d="M423.4 106.9C404.6 107.3 385.7 108.3 367 109.9C348.2 111.5 329.5 113.8 310.9 116.6C300.4 118.2 289.9 120 279.4 122C276.8 122.5 279.1 126 280.8 126.2C297.4 128.1 314 129.8 330.7 131.4C347.3 132.9 364 134.3 380.7 135.4C390.1 136 399.5 136.6 409 137.1C408.2 135.7 407.4 134.4 406.6 133C377.7 140.9 348.2 145.8 318.6 150C310.3 151.2 301.9 152.3 293.6 153.5C292.4 153.7 292.2 154.8 292.6 155.7C293.1 156.9 294.2 157.6 295.5 157.7C316 159 336.4 161.5 356.7 164.9C362.5 165.9 368.3 167 374 168.1C373.5 166.7 373.1 165.3 372.6 163.9C355.8 167.1 338.8 170.3 322.7 176.1C318.1 177.8 313.6 179.6 309.2 181.8C308.2 182.3 308.4 183.4 308.9 184.2C309.5 185.2 310.4 185.9 311.6 185.9C333.8 186.4 355.9 186.9 378.1 187.7C400.3 188.4 422.6 189.4 444.8 190.9C457.3 191.7 469.7 192.7 482.1 193.8C481.6 192.4 481.2 191 480.7 189.6C462 193.2 443.4 197 424.8 200.9C406.2 204.8 387.6 208.8 369 213C363.9 214.1 358.8 215.2 353.7 216.5C348.9 217.7 344.2 219.1 339.8 221.4C338.9 221.9 339 223 339.5 223.8C340.1 224.8 341 225.4 342.2 225.5C365.8 226.7 389.4 228.7 412.8 231.8C419.5 232.7 426.1 233.6 432.8 234.6C432.3 233.2 431.9 231.8 431.4 230.4C409.7 232.6 388 234.9 366.7 239.2C360.7 240.4 354.7 241.8 348.8 243.4C347.9 243.6 348 244.9 348.3 245.5C348.7 246.4 349.6 247.3 350.6 247.4C370.6 250.2 390.7 252.9 410.7 255.7C430.7 258.5 450.6 261.2 470.6 264C481.9 265.6 493.2 267.1 504.5 268.7C504 267.3 503.6 265.9 503.1 264.5C483.9 265.8 464.7 267.4 445.5 269.2C426.3 271 407.2 273.1 388 275.5C377.2 276.8 366.3 278.2 355.5 279.7C352.8 280.1 355.3 283.6 356.9 283.9C387.7 289.3 418.5 294.7 449.3 300.1C458 301.6 466.7 303.1 475.4 304.7C476.5 304.9 477.3 304.1 477 303C476.8 301.9 475.6 300.7 474.5 300.5C443.7 295.1 412.9 289.7 382.1 284.3C373.4 282.8 364.7 281.3 356 279.7C356.5 281.1 356.9 282.5 357.4 283.9C376.5 281.3 395.6 278.9 414.8 276.8C434 274.7 453.1 272.8 472.3 271.2C483.2 270.3 494.1 269.5 505 268.7C506.1 268.6 506.3 267.6 506 266.7C505.7 265.7 504.7 264.6 503.6 264.5C483.6 261.7 463.5 259 443.5 256.2C423.5 253.4 403.6 250.7 383.6 247.9C372.3 246.3 361 244.8 349.7 243.2C350.3 244.6 350.9 245.9 351.6 247.3C372.3 241.7 393.6 238.8 414.9 236.4C421 235.7 427.1 235.1 433.2 234.5C434.2 234.4 434.5 233.4 434.2 232.5C433.9 231.5 432.9 230.5 431.8 230.3C408.1 226.7 384.3 224 360.4 222.3C353.7 221.8 347 221.4 340.2 221.1C341 222.5 341.8 223.8 342.6 225.2C350.4 221.1 359.4 219.6 367.9 217.6C377.2 215.5 386.5 213.5 395.8 211.4C414.2 207.4 432.7 203.5 451.2 199.8C461.7 197.7 472.1 195.6 482.6 193.6C485.2 193.1 482.9 189.6 481.2 189.4C458.9 187.4 436.6 185.9 414.3 184.8C392 183.7 369.6 183 347.3 182.4C334.7 182.1 322.1 181.8 309.6 181.5C310.4 182.9 311.2 184.2 312 185.6C327.3 178.2 343.8 174 360.3 170.7C365 169.7 369.8 168.8 374.5 167.9C377.2 167.4 374.7 164 373.1 163.7C352.6 159.6 331.9 156.6 311.1 154.6C305.2 154.1 299.4 153.6 293.5 153.2C294.1 154.6 294.8 156 295.4 157.4C325.2 153.3 355 149.2 384.4 142.8C392.8 141 401.1 138.9 409.3 136.7C410.3 136.4 410 134.9 409.6 134.3C409 133.3 408.1 132.7 406.9 132.6C390.4 131.7 373.9 130.6 357.4 129.3C340.8 128 324.3 126.5 307.7 124.8C298.4 123.8 289.1 122.8 279.8 121.8C280.3 123.2 280.7 124.6 281.2 126C299.7 122.5 318.3 119.5 337 117.2C355.7 114.9 374.5 113.2 393.3 112.1C403.9 111.5 414.6 111.1 425.2 110.8C426.4 110.8 426.5 109.4 426.2 108.6C425.8 107.8 424.6 106.9 423.4 106.9Z" fill="white"/>
</g>
<mask id="mask4_201_748" style="mask-type:luminance" maskUnits="userSpaceOnUse" x="51" y="51" width="398" height="398">
<path d="M250 448.5C359.629 448.5 448.5 359.629 448.5 250C448.5 140.371 359.629 51.5 250 51.5C140.371 51.5 51.5 140.371 51.5 250C51.5 359.629 140.371 448.5 250 448.5Z" fill="white"/>
</mask>
<g mask="url(#mask4_201_748)">
<path d="M65.3 145.4C84.5 145.9 103.7 146.8 122.9 148C142.1 149.2 161.2 150.9 180.3 152.9C191.1 154 201.9 155.3 212.7 156.7C212.7 155.5 212.7 154.2 212.6 153C197.8 158.5 182.5 162.4 167.1 165.9C151.6 169.4 136 172.5 120.6 176.4C111.8 178.6 103.1 181.1 94.6 184C93.7 184.3 92.8 185.2 92.8 186.2C92.8 187.1 93.7 187.8 94.6 187.8C116.3 187.7 138 189.2 159.4 192.2C165.4 193.1 171.5 194 177.5 195.1C177.7 193.9 177.8 192.7 178 191.5C154.4 199.5 130.7 207.5 107.1 215.5C100.5 217.7 93.9 220 87.2 222.2C85.2 222.9 84.8 225.7 87.3 225.9C108.6 227.6 129.8 229.3 151.1 231.5C172.3 233.7 193.5 236.4 214.6 240.1C226.4 242.2 238.2 244.6 249.9 247.5C250.3 246.2 250.7 245 251.1 243.7C223.9 249.1 196.6 254.1 169.3 258.8C142.1 263.5 114.9 267.8 87.7 271.9C72.4 274.2 57 276.3 41.6 278.4C40.6 278.5 39.4 279.4 39.2 280.5C39.1 281.6 40 282.3 41 282.3C72.4 283.8 104 286 134.8 292.3C143.5 294.1 152.2 296.2 160.7 298.7C160.9 297.5 161 296.3 161.2 295.1C141.9 300.5 122.6 305.9 103.3 311.3C97.9 312.8 92.4 314.3 87 315.9C85.3 316.4 84.5 318.9 86.5 319.5C101.9 324.2 117.8 326.7 133.6 329.1C150.1 331.6 166.7 334.1 183.2 336.7C192.5 338.1 201.8 339.5 211.1 341C211.1 339.8 211.1 338.5 211 337.3C192.6 343.5 173.4 346.9 154.1 349.5C134.8 352.2 115.4 354.3 96.3 358C85.5 360.1 74.7 362.9 64.3 366.5C62.3 367.2 61.9 370 64.4 370.2C91.1 372.3 117.7 373.8 144.5 374.7C152.1 375 159.8 375.2 167.4 375.4C167.6 374.1 167.8 372.8 168 371.5C146.5 373.5 125.1 376.6 103.9 380.6C98 381.7 92 383 86.1 384.3C85 384.5 83.7 385.3 83.7 386.6C83.7 387.8 85.1 388.4 86.2 388.2C107.3 383.6 128.6 379.9 150 377.3C156 376.6 162 375.9 168 375.4C169 375.3 170.2 374.4 170.4 373.3C170.5 372.2 169.7 371.5 168.6 371.5C141.9 370.9 115.2 369.7 88.5 368C80.9 367.5 73.3 367 65.6 366.4C65.6 367.6 65.6 368.9 65.7 370.1C84.1 363.8 103.3 360.4 122.5 357.7C141.8 355 161.2 352.9 180.3 349.2C191.1 347.1 201.9 344.4 212.4 340.9C214.6 340.2 214.7 337.5 212.3 337.2C195.8 334.7 179.4 332.2 162.9 329.7C146.9 327.3 130.9 325.1 114.9 322.2C106.1 320.6 97.3 318.7 88.8 316C88.6 317.2 88.5 318.4 88.3 319.6C107.6 314.2 126.9 308.8 146.2 303.4C151.6 301.9 157.1 300.4 162.5 298.8C164.2 298.3 165.1 295.8 163 295.2C132.4 286.2 100.6 282.3 68.8 280.1C59.9 279.5 51 279 42.1 278.6C41.9 279.9 41.7 281.2 41.5 282.5C69 278.8 96.4 274.8 123.8 270.5C151 266.2 178.2 261.5 205.3 256.6C220.6 253.8 235.8 250.9 251 247.9C252 247.7 253 247.1 253.3 246.1C253.6 245.2 253 244.3 252.1 244.1C231.2 239 210 235.3 188.8 232.3C167.5 229.3 146.1 227.2 124.7 225.3C112.6 224.3 100.5 223.3 88.5 222.3C88.5 223.5 88.5 224.8 88.6 226C112.2 218 135.9 210 159.5 202C166.1 199.8 172.7 197.5 179.4 195.3C180.9 194.8 182.2 192.1 179.9 191.7C158.3 187.7 136.4 185.3 114.5 184.5C108.3 184.3 102.1 184.2 95.9 184.2C95.9 185.4 95.9 186.7 96 187.9C111 182.8 126.3 179.1 141.8 175.7C157.4 172.3 173 169.1 188.4 164.9C197.1 162.6 205.6 159.9 214 156.8C216.1 156 216.4 153.4 213.9 153.1C194.8 150.7 175.7 148.6 156.6 146.9C137.5 145.2 118.3 143.9 99.1 143C88.2 142.5 77.3 142.1 66.5 141.8C65.3 141.8 63.9 142.4 63.5 143.6C63.2 144.4 64.2 145.3 65.3 145.4Z" fill="white"/>
</g>
<mask id="mask5_201_748" style="mask-type:luminance" maskUnits="userSpaceOnUse" x="51" y="51" width="398" height="398">
<path d="M250 448.5C359.629 448.5 448.5 359.629 448.5 250C448.5 140.371 359.629 51.5 250 51.5C140.371 51.5 51.5 140.371 51.5 250C51.5 359.629 140.371 448.5 250 448.5Z" fill="white"/>
</mask>
<g mask="url(#mask5_201_748)">
<path d="M310.5 54.2999C286.3 57.0999 262.1 59.8999 237.9 62.5999C231 63.3999 224.2 64.1999 217.3 64.9999C216.7 65.0999 217.9 66.4999 218.1 66.6999C218.6 67.2999 219.6 68.4999 220.5 68.6999C251.3 73.8999 282.6 72.1999 313.7 73.9999C322.4 74.4999 331.1 75.1999 339.7 76.4999C338.6 75.2999 337.5 74.0999 336.4 72.8999C317 79.7999 296.6 83.4999 276.3 86.3999C270.5 87.1999 264.7 87.9999 258.9 88.6999C258.3 88.7999 259.5 90.1999 259.7 90.3999C260.2 90.8999 261.3 92.3999 262.1 92.3999C293.7 92.3999 325.2 92.4999 356.8 92.4999C365.8 92.4999 374.7 92.4999 383.7 92.4999C384.3 92.4999 383 90.8999 382.9 90.7999C382.4 90.2999 381.3 88.7999 380.5 88.7999C348.9 88.7999 317.4 88.6999 285.8 88.6999C276.8 88.6999 267.9 88.6999 258.9 88.6999C260 89.8999 261 91.0999 262.1 92.3999C282.6 89.6999 303.2 86.9999 323.2 81.6999C328.8 80.1999 334.4 78.4999 339.9 76.4999C340.3 76.3999 337.3 72.9999 336.6 72.8999C305.7 68.3999 274.4 70.2999 243.3 68.0999C234.6 67.4999 226 66.5999 217.4 65.0999C218.5 66.2999 219.5 67.4999 220.6 68.7999C244.8 65.9999 269 63.1999 293.2 60.4999C300.1 59.6999 306.9 58.8999 313.8 58.0999C314.4 57.9999 313.2 56.5999 313 56.3999C312.5 55.8999 311.2 54.1999 310.5 54.2999Z" fill="white"/>
</g>
</svg>
