<svg width="500" height="500" viewBox="0 0 500 500" fill="none" xmlns="http://www.w3.org/2000/svg">
<g clip-path="url(#clip0_201_724)">
<mask id="mask0_201_724" style="mask-type:luminance" maskUnits="userSpaceOnUse" x="51" y="51" width="398" height="398">
<path d="M250 448.5C359.629 448.5 448.5 359.629 448.5 250C448.5 140.371 359.629 51.5 250 51.5C140.371 51.5 51.5 140.371 51.5 250C51.5 359.629 140.371 448.5 250 448.5Z" fill="white"/>
</mask>
<g mask="url(#mask0_201_724)">
<path d="M165.9 18C146.5 48.9 127.1 79.9 107.7 110.8C88.3 141.7 69 172.7 49.6 203.6C38.6 221.1 27.6 238.7 16.6 256.2C15.3 258.3 20 259.1 21.2 257.8C44.9 232.8 68.6 207.7 92.3 182.7C116 157.7 139.7 132.6 163.4 107.6C176.8 93.5 190.1 79.4 203.5 65.3C202 64.8 200.4 64.2 198.9 63.7C170.4 111.4 140.8 158.4 110.1 204.6C101.5 217.6 92.8 230.5 84.1 243.3C82.8 245.2 87.3 246.2 88.4 245.2C116.4 222.1 141.5 195.8 165.2 168.3C189.1 140.5 211.6 111.4 234.5 82.7C247.4 66.6 260.4 50.6 273.9 35C272.4 34.5 270.8 33.9 269.3 33.4C257.2 58.5 244.3 83.3 230.6 107.6C217 131.8 202.6 155.5 187.4 178.8C172.2 202.2 156.2 225 139.5 247.4C122.9 269.6 105.6 291.3 87.5 312.4C69.3 333.7 50.5 354.5 30.9 374.5C28.5 377 26.1 379.4 23.7 381.9C21.7 383.9 26.2 385.1 27.7 384.2C70.9 356.5 105.3 317.8 139.5 280C178.2 237.2 216.9 194.3 255.6 151.5C277.3 127.5 298.9 103.6 320.6 79.6C319.1 79.1 317.5 78.5 316 78C294.2 120.9 270.1 162.7 243.7 203C217.4 243.3 188.8 282.1 158 319.1C140.7 339.9 122.8 360 104.2 379.6C105.7 380.1 107.3 380.7 108.8 381.2C138.5 347.8 168.2 314.4 197.9 280.9C227.6 247.4 257.3 214.1 287 180.6C303.7 161.8 320.4 143.1 337 124.3C335.5 123.8 333.9 123.2 332.4 122.7C313.6 164.1 290.2 203.2 264.2 240.4C238.2 277.6 209.7 312.9 180.4 347.5C163.8 367 147 386.3 130.1 405.6C128.7 407.2 133.2 408.7 134.4 407.5C171.6 372.2 207.2 335.3 241.8 297.5C276.5 259.6 310.2 220.7 343.5 181.5C362.2 159.5 380.7 137.5 399.3 115.4C397.8 114.9 396.2 114.3 394.7 113.8C374.4 159 349.2 201.9 321.2 242.8C293.2 283.7 262.6 322.6 231.1 360.8C213.3 382.4 195.1 403.7 177 425C175.5 426.8 180.2 427.8 181.3 426.9C224.5 395.1 265.6 360.5 304.4 323.5C342.9 286.8 379.2 247.6 412.8 206.4C431.8 183.1 450 159.1 467.4 134.5C465.9 134 464.3 133.4 462.8 132.9C438.2 179.6 410.8 224.8 379.4 267.2C363.7 288.4 346.9 309 329.1 328.5C311.3 348 292.3 366.2 272.6 383.9C250.4 403.8 228 423.7 210.3 447.9C208.9 449.8 213.7 450.9 214.9 449.5C244.1 418.4 274.6 388.5 306.3 360C336.6 332.8 368.5 307.3 398.4 279.6C414.9 264.4 430.7 248.3 445 231.1C443.5 230.6 441.9 230 440.4 229.5C414.6 266.7 387 302.7 357.7 337.2C328.4 371.9 297.3 405.1 264.8 436.8C246.5 454.6 227.6 472 208.3 488.8C206.2 490.6 210.8 492 212.3 491.1C246.2 468.9 276.9 442.2 307.4 415.6C340 387.1 372.6 358.6 405.2 330.1C423.6 314 442.1 297.8 460.5 281.7C459.1 281.1 457.6 280.4 456.2 279.8C435.3 307.6 413.6 334.8 391.2 361.5C368.9 388 345.9 414 322.3 439.3C308.8 453.7 295.1 468 281.2 482C279.4 483.8 283.3 485.3 284.8 484.5C321.7 464.8 357.1 442.4 390.6 417.3C400.1 410.2 409.4 402.9 418.6 395.4C420.6 393.8 416.1 391.9 414.6 393.1C382.5 419.4 348.4 443.2 312.6 464.3C302.4 470.3 292.1 476.1 281.6 481.7C282.8 482.5 284 483.4 285.2 484.2C309.7 459.5 333.6 434.2 356.8 408.2C380.1 382.1 402.7 355.5 424.5 328.2C436.9 312.8 449 297.2 460.9 281.4C462.3 279.6 457.7 278.4 456.6 279.5C424 308 391.3 336.6 358.7 365.1C327 392.8 295.8 421 263.4 447.8C245.8 462.4 227.6 476.3 208.5 488.9C209.8 489.7 211.2 490.4 212.5 491.2C246.7 461.3 279.5 429.8 310.7 396.8C342 363.7 371.7 329.1 399.7 293.1C415.4 272.9 430.6 252.3 445.1 231.2C446.4 229.3 441.7 228.1 440.5 229.6C414.7 260.8 384.1 287.5 353.4 313.7C321.6 340.8 290.2 368.2 260.2 397.3C243.2 413.8 226.6 430.8 210.3 448C211.8 448.5 213.4 449.1 214.9 449.6C230.7 427.9 250.5 409.6 270.4 391.8C289.9 374.3 309.1 356.6 327 337.5C363 299.1 394.7 256.7 422.8 212.2C438.7 187 453.5 161.1 467.4 134.7C468.5 132.6 463.9 131.5 462.8 133.1C432.1 176.7 398.6 218.4 362.6 257.8C326.6 297.3 288 334.6 247.3 369.3C224.6 388.6 201.2 407.2 177.2 424.9C178.6 425.5 180.1 426.2 181.5 426.8C213.8 388.8 246.1 350.8 276.7 311.5C307 272.5 335.7 232.2 360.8 189.7C374.9 165.7 387.9 141 399.3 115.6C400.3 113.3 395.9 112.5 394.7 114C361.8 153.1 328.9 192.3 295.3 230.8C261.6 269.5 227.3 307.6 191.7 344.4C171.7 365.1 151.3 385.5 130.4 405.3C131.8 405.9 133.3 406.6 134.7 407.2C164.8 372.8 194.8 338.4 223.3 302.6C251.5 267.2 278.2 230.6 301.4 191.8C314.5 169.9 326.5 147.4 337 124.2C338 121.9 333.6 121.2 332.4 122.6C302.7 156 273 189.4 243.3 222.9C213.6 256.4 183.9 289.7 154.2 323.2C137.5 342 120.8 360.7 104.2 379.5C102.7 381.1 107.5 382.5 108.8 381.1C142 346.2 173 309.4 201.9 270.8C230.8 232.3 257.4 192.1 281.8 150.5C295.5 127.2 308.4 103.5 320.6 79.4C321.7 77.2 317.2 76.4 316 77.8C277.5 120.4 239 163 200.5 205.6C181.1 227 161.8 248.4 142.4 269.8C124.9 289.1 107.6 308.6 89.3 327.1C69.2 347.3 47.7 366.3 23.7 381.7C25 382.5 26.4 383.2 27.7 384C47.2 364.2 66.1 343.9 84.3 322.9C102.7 301.7 120.4 280 137.3 257.7C154.2 235.5 170.4 212.8 185.8 189.5C201.2 166.3 215.9 142.5 229.8 118.4C243.8 94.1 257 69.4 269.3 44.2C270.8 41.1 272.3 38 273.8 34.9C274.9 32.7 270.4 31.9 269.2 33.3C245.3 60.9 223 89.7 200.3 118.2C177.6 146.7 154.5 175 129.1 201.2C115 216 100.2 230 84.5 243C85.9 243.6 87.4 244.3 88.8 244.9C120.1 199 150.3 152.4 179.4 105.1C187.6 91.9 195.6 78.5 203.6 65.2C204.9 63.1 200.2 62.3 199 63.6C175.3 88.6 151.6 113.7 127.9 138.7C104.2 163.7 80.5 188.8 56.8 213.8C43.3 228 30 242.1 16.6 256.2C18.1 256.7 19.7 257.3 21.2 257.8C40.6 226.9 60 196 79.4 165C98.8 134 118.2 103.1 137.6 72.2C148.6 54.7 159.6 37.1 170.6 19.6C171.7 17.7 167 16.3 165.9 18Z" fill="white"/>
</g>
<mask id="mask1_201_724" style="mask-type:luminance" maskUnits="userSpaceOnUse" x="51" y="51" width="398" height="398">
<path d="M250 448.5C359.629 448.5 448.5 359.629 448.5 250C448.5 140.371 359.629 51.5 250 51.5C140.371 51.5 51.5 140.371 51.5 250C51.5 359.629 140.371 448.5 250 448.5Z" fill="white"/>
</mask>
<g mask="url(#mask1_201_724)">
<path d="M9.60005 219.5C37 258.5 66.9 295.7 99.1 330.9C131.2 366 165.6 399 202 429.6C222.4 446.8 243.5 463.3 265.1 479C266 479.6 267.2 480 268.3 479.6C269.1 479.3 269.9 478.7 269.2 477.8C243.5 443.1 216 409.8 187.9 377C159.3 343.6 130.4 310.5 101.7 277.3C85.3 258.3 68.8 239.3 52.4001 220.4C51 220.8 49.6001 221.2 48.2001 221.6C80.6001 250.9 111.8 281.6 141.8 313.3C170.1 343.2 196.6 374.9 226.2 403.5C242.4 419.2 259.7 433.7 278.6 446.1C279.3 446.6 283.3 446.8 282.5 445C263.3 404.3 237.1 367.7 208.9 332.8C180.6 297.7 150.3 264.3 122.5 228.8C106.8 208.8 91.9 188.2 78.7 166.5C77.3 166.9 75.9 167.3 74.5 167.7C107.5 202.3 140.5 236.9 173.5 271.5C206.5 306.1 239.5 340.7 272.5 375.3C291 394.7 309.6 414.2 328.1 433.6C328.9 434.4 333.4 434.7 332.5 432.8C313.4 392.6 287.3 356.3 259.3 321.9C231 287.1 200.7 253.9 172.5 219C156.7 199.4 141.6 179.1 128.1 157.8C126.7 158.2 125.3 158.6 123.9 159C155.5 190.2 187.2 221.4 218.8 252.6C250.4 283.8 282.1 315 313.7 346.2C331.5 363.7 349.3 381.3 367.1 398.8C368.1 399.8 372.8 399.6 371.3 397.6C353.5 374.7 335.6 351.9 317.4 329.2C299.1 306.5 280.7 283.9 262 261.5C243.4 239.2 224.6 217.1 205.6 195.1C186.6 173.1 167.4 151.4 148.1 129.7C128.6 108 109 86.4 89.1 65.1C86.6 62.5 84.2 59.8 81.7 57.2C80.3 57.6 78.9 58 77.5 58.4C99.4 79.9 121.1 101.6 142.6 123.4C164.1 145.3 185.4 167.4 206.6 189.6C227.7 211.8 248.7 234.2 269.6 256.6C290.5 279.1 311.3 301.6 332.1 324.2C352.9 346.8 373.6 369.4 394.3 392.1C396.9 394.9 399.4 397.7 402 400.6C403.1 401.8 407.8 402.3 406.5 399.8C381.5 353.4 352.3 309.4 322.7 265.8C292.3 221 261.5 176.4 230.2 132.2C212.5 107.2 194.7 82.2 176.7 57.4C175.3 57.8 173.9 58.2 172.5 58.6C207 91.6 240.9 125.3 274.2 159.6C307.5 194 340.2 229 372.3 264.6C390.2 284.5 407.9 304.6 425.4 324.9C426.2 325.8 427.5 326.2 428.7 326C429.6 325.8 430.6 325.1 429.9 324.1C403.5 286.1 381 245.5 356.8 206.1C332.2 166.2 305.9 127.5 279 89.1C263.9 67.6 248.6 46.2 233.4 24.9C231.9 25.2 230.4 25.4 228.9 25.7C255.9 55.2 282.9 84.7 309.8 114.3C336.7 143.9 363.6 173.5 390.3 203.2C405.3 219.9 420.4 236.6 435.4 253.3C436.5 254.5 441.2 255 439.9 252.5C425.4 226.1 410.9 199.7 396.4 173.2C381.8 146.6 367.3 120.1 352.7 93.5C344.5 78.6 336.3 63.6 328.1 48.7C326.6 49 325.1 49.2 323.6 49.5C359.6 90.2 392.2 133.8 424 178C433 190.6 442 203.1 450.9 215.7C451.7 216.8 456.3 217.4 455.6 215.3C445.5 186.7 435.4 158 425.3 129.4C422.4 121.2 419.5 113 416.6 104.7C416 102.9 411 102.7 411.7 104.7C421.8 133.3 431.9 162 442 190.6C444.9 198.8 447.8 207 450.7 215.3C452.3 215.2 453.8 215 455.4 214.9C423.9 170.6 392.4 126.2 358 84C348.3 72 338.3 60.2 328.1 48.6C327 47.4 322.3 47 323.6 49.4C338.1 75.8 352.6 102.2 367.1 128.7C381.7 155.3 396.2 181.8 410.8 208.4C419 223.3 427.2 238.3 435.4 253.2C436.9 252.9 438.4 252.7 439.9 252.4C413.2 222.6 386.4 193 359.6 163.3C332.8 133.7 305.9 104.1 278.9 74.6C264 58 248.9 41.4 233.7 24.9C232.9 24 231.6 23.6 230.4 23.8C229.5 24 228.5 24.7 229.2 25.7C256.4 63.8 283.7 101.9 309.8 140.7C322.9 160.2 335.8 179.8 348.2 199.8C360.4 219.4 372.1 239.4 384 259.2C397.3 281.5 410.9 303.6 425.7 324.9C427.2 324.6 428.7 324.4 430.2 324.1C398.8 287.7 366.7 251.9 334 216.7C301.5 181.8 268.5 147.5 234.7 113.8C215.6 94.7 196.2 75.8 176.7 57.1C175.7 56.1 171.1 56.2 172.5 58.3C204.4 102.4 235.9 146.9 267 191.7C297.4 235.6 327.9 279.5 356.8 324.4C372.8 349.3 388.2 374.7 402.3 400.8C403.8 400.5 405.3 400.3 406.8 400C386 377.2 365.2 354.5 344.4 331.8C323.7 309.2 302.9 286.6 282 264.1C261.1 241.6 240.1 219.2 219 196.9C197.9 174.6 176.6 152.5 155.2 130.6C133.6 108.6 111.9 86.7 89.9 65.1C87.2001 62.4 84.5 59.8 81.7 57.1C80.6 56 75.9 56.6 77.5 58.3C97.3 79.5 116.9 100.9 136.4 122.5C155.9 144.2 175.2 166 194.4 188C213.4 209.9 232.3 232 250.9 254.3C269.5 276.6 288 299 306.2 321.6C324.5 344.3 342.6 367.2 360.5 390.2C362.7 393 364.9 395.9 367.1 398.8C368.5 398.4 369.9 398 371.3 397.6C339.7 366.4 308 335.2 276.4 304C244.8 272.8 213.1 241.6 181.5 210.4C163.7 192.9 145.9 175.3 128.1 157.8C127.1 156.8 122.6 156.8 123.9 159C147.9 196.7 176.7 231.1 205.8 265C234.8 298.8 264.4 332.4 289.9 369C304.1 389.4 317.1 410.8 327.8 433.3C329.3 433 330.7 432.8 332.2 432.5C299.2 397.9 266.2 363.3 233.2 328.7C200.2 294.1 167.2 259.5 134.2 224.9C115.7 205.5 97.1 186 78.6 166.6C77.6 165.5 73.1 165.6 74.4 167.8C97.8 206.3 126.4 241.2 155.4 275.5C184.4 309.8 214 343.7 239.7 380.6C254 401.2 267 422.8 277.7 445.5C279 445.1 280.3 444.8 281.6 444.4C247.9 422.5 219.8 393.2 192.9 363.6C164.3 332.2 135.6 300.8 105.4 270.9C88 253.7 70.3 236.9 52.2001 220.5C51.4001 219.8 50 219.5 49 219.9C48.3 220.1 47.3 220.9 48.1 221.7C77.4 255.5 106.6 289.2 135.9 323C164.2 355.7 192.7 388.3 220.2 421.7C235.6 440.5 250.6 459.5 265 479C266.4 478.6 267.8 478.2 269.2 477.8C230.8 450 194.2 419.7 159.8 387.1C125.2 354.5 92.8 319.7 62.8 282.9C45.9 262.2 29.8 240.9 14.4 219C13 217.1 8.20005 217.4 9.60005 219.5Z" fill="white"/>
</g>
</g>
<defs>
<clipPath id="clip0_201_724">
<rect width="500" height="500" fill="white"/>
</clipPath>
</defs>
</svg>
