<svg width="500" height="500" viewBox="0 0 500 500" fill="none" xmlns="http://www.w3.org/2000/svg">
<g clip-path="url(#clip0_201_714)">
<mask id="mask0_201_714" style="mask-type:luminance" maskUnits="userSpaceOnUse" x="51" y="51" width="398" height="398">
<path d="M250 448.5C359.629 448.5 448.5 359.629 448.5 250C448.5 140.371 359.629 51.5 250 51.5C140.371 51.5 51.5 140.371 51.5 250C51.5 359.629 140.371 448.5 250 448.5Z" fill="white"/>
</mask>
<g mask="url(#mask0_201_714)">
<path d="M244.7 49.8999C226.4 70.6999 214.6 96.1999 206.9 122.6C203 135.9 200 149.5 197.7 163.2C195 178.7 193 194.3 191.9 209.9C189.7 241.6 191.8 273.5 200.8 304.1C205.2 318.9 210.8 333.4 217.2 347.5C223.3 360.8 230.2 373.8 238.5 385.9C253.9 408.3 274.5 428.2 299.5 439.5C302.5 440.9 305.5 442.1 308.6 443.2C309.1 443.4 307.7 441.7 307.6 441.7C306.9 441 306.1 440.2 305.1 439.9C279.2 430.7 258.3 411.9 242.7 389.6C234.4 377.7 227.5 364.9 221.4 351.8C215.2 338.2 209.6 324.2 205.2 309.9C196 280.1 193.4 249 195.1 218C196.7 189.3 201.1 160.2 208.6 132.4C215.5 106.9 225.7 81.8999 241.9 60.7999C243.9 58.1999 246 55.5999 248.2 53.0999C248.8 52.6999 245.1 49.3999 244.7 49.8999Z" fill="white"/>
</g>
<mask id="mask1_201_714" style="mask-type:luminance" maskUnits="userSpaceOnUse" x="51" y="51" width="398" height="398">
<path d="M250 448.5C359.629 448.5 448.5 359.629 448.5 250C448.5 140.371 359.629 51.5 250 51.5C140.371 51.5 51.5 140.371 51.5 250C51.5 359.629 140.371 448.5 250 448.5Z" fill="white"/>
</mask>
<g mask="url(#mask1_201_714)">
<path d="M225.8 51.1C238 75 244.1 101.4 246.3 128C248.5 154.9 247 181.9 244.1 208.7C241.1 237.1 237.1 265.5 230.2 293.2C223.7 319.5 214.5 345.3 200.9 368.8C188.6 390.3 172.8 409.9 153.3 425.3C150.9 427.2 148.4 429 146 430.8C145.5 431.2 148.4 435.2 148.9 434.9C169.3 420.5 186.2 401.5 199.4 380.3C213.5 357.8 223.4 332.9 230.5 307.4C238.3 279.2 242.7 250.1 246.1 221.1C249.2 194.2 251.2 167.1 249.8 140.1C248.4 113.5 243.4 87 232.6 62.5C231.3 59.5 229.9 56.5 228.4 53.6C227.9 52.6 227.2 51.5 226.3 50.7C225.7 50.3 225.3 50.2 225.8 51.1Z" fill="white"/>
</g>
<mask id="mask2_201_714" style="mask-type:luminance" maskUnits="userSpaceOnUse" x="51" y="51" width="398" height="398">
<path d="M250 448.5C359.629 448.5 448.5 359.629 448.5 250C448.5 140.371 359.629 51.5 250 51.5C140.371 51.5 51.5 140.371 51.5 250C51.5 359.629 140.371 448.5 250 448.5Z" fill="white"/>
</mask>
<g mask="url(#mask2_201_714)">
<path d="M209.5 33.7999C199.6 46.8999 192.1 61.7999 187.5 77.5999C182.6 94.6999 181.4 112.6 183 130.3C186 162.6 197.6 193.8 215.1 221C232.5 248.2 255.5 271.4 281.8 290C308.9 309.3 339.2 323.8 370.8 334C404.7 345 440.2 350.9 475.8 351.5C480.1 351.6 484.4 351.6 488.7 351.5C490.7 351.5 488.7 347 486.9 347C451.9 347.7 417 343.1 383.3 333.7C351.6 324.8 321 311.5 293.2 293.7C266.7 276.7 243 255.3 224.5 229.8C206.4 204.8 193.5 175.8 188.3 145.3C185.3 127.6 184.9 109.2 188.4 91.4999C191.5 75.7999 197.5 60.7999 206 47.1999C208.1 43.8999 210.3 40.5999 212.7 37.4999C213.7 36.0999 210.8 32.0999 209.5 33.7999Z" fill="white"/>
</g>
<mask id="mask3_201_714" style="mask-type:luminance" maskUnits="userSpaceOnUse" x="51" y="51" width="398" height="398">
<path d="M250 448.5C359.629 448.5 448.5 359.629 448.5 250C448.5 140.371 359.629 51.5 250 51.5C140.371 51.5 51.5 140.371 51.5 250C51.5 359.629 140.371 448.5 250 448.5Z" fill="white"/>
</mask>
<g mask="url(#mask3_201_714)">
<path d="M139.7 29.8C144.8 53.4 157.1 74.8 173.6 92.3C190.4 110.2 211.2 124.3 233.8 133.8C260.8 145.2 289.9 150.8 319 152.8C347.8 154.8 377.1 153.9 405.7 150.4C433.2 147.1 460.8 140.5 485.2 127C488.2 125.4 491.1 123.6 493.9 121.8C495.2 121 491.1 118.5 489.7 119.3C466.7 134 440.3 141.9 413.5 146C400 148.1 386.4 149.3 372.7 150C358.3 150.7 344 151 329.6 150.5C301 149.5 272.4 145.5 245.4 135.9C222.4 127.7 201 115.2 183.4 98.3C166.5 82.2 153.1 62.1 146.4 39.6C145.6 36.8 144.8 33.9 144.2 31C144.1 29.7 139.4 28.4 139.7 29.8Z" fill="white"/>
</g>
<mask id="mask4_201_714" style="mask-type:luminance" maskUnits="userSpaceOnUse" x="51" y="51" width="398" height="398">
<path d="M250 448.5C359.629 448.5 448.5 359.629 448.5 250C448.5 140.371 359.629 51.5 250 51.5C140.371 51.5 51.5 140.371 51.5 250C51.5 359.629 140.371 448.5 250 448.5Z" fill="white"/>
</mask>
<g mask="url(#mask4_201_714)">
<path d="M287.1 39.0001C289.5 53.9001 284.5 68.6 278.8 82.2001C273.5 94.9001 267.7 107.5 261.2 119.7C248.5 143.8 233.1 166.7 213.7 186C195 204.7 173 219.8 149.2 231.4C124.5 243.5 97.9999 251.7 70.8999 256.5C41.0999 261.9 10.6999 263.4 -19.5001 262.4C-23.2001 262.3 -26.8001 262.1 -30.5001 261.9C-31.6001 261.8 -33.0001 262.2 -33.9001 262.8C-34.6001 263.3 -34.6001 263.9 -33.6001 263.9C-2.80009 265.5 28.0999 264.7 58.5999 260.2C87.1999 256 115.3 248.4 141.8 236.7C166.4 225.9 189.5 211.6 209.5 193.6C230.2 175 246.8 152.6 260.5 128.5C267.5 116.2 273.7 103.5 279.4 90.6001C285.3 77.3001 291.4 63.5001 292.3 48.8001C292.5 45.1001 292.3 41.3001 291.7 37.6001C291.8 36.6001 286.9 37.7001 287.1 39.0001Z" fill="white"/>
</g>
<mask id="mask5_201_714" style="mask-type:luminance" maskUnits="userSpaceOnUse" x="51" y="51" width="398" height="398">
<path d="M250 448.5C359.629 448.5 448.5 359.629 448.5 250C448.5 140.371 359.629 51.5 250 51.5C140.371 51.5 51.5 140.371 51.5 250C51.5 359.629 140.371 448.5 250 448.5Z" fill="white"/>
</mask>
<g mask="url(#mask5_201_714)">
<path d="M336.9 50.4C329.5 80.4 318.7 109.6 304.7 137.2C291.3 163.9 275.1 189.1 257.4 213.2C248.6 225.2 239.5 236.9 230 248.3C220.8 259.6 211.2 270.6 200.8 280.8C190.4 291.1 179.1 300.5 166.8 308.4C155 315.9 142.4 322.1 129.3 327.1C102.6 337.3 74.3001 342.7 45.9001 345.9C42.5001 346.3 39.1001 346.6 35.6001 347C35.0001 347.1 36.7001 348.3 36.8001 348.4C37.4001 348.9 38.7001 349.9 39.5001 349.8C67.8001 347.1 96.1001 342.5 123.1 333.5C136.4 329.1 149.4 323.5 161.7 316.6C174.3 309.5 185.9 301 196.6 291.3C207.5 281.5 217.4 270.7 226.9 259.5C236.5 248.2 245.8 236.6 254.8 224.7C272.9 200.8 289.6 175.8 303.7 149.4C318.2 122.2 329.8 93.6 338 63.9C339 60.3 340 56.6 340.9 52.9C341.3 52.1 336.9 50.3 336.9 50.4Z" fill="white"/>
</g>
<mask id="mask6_201_714" style="mask-type:luminance" maskUnits="userSpaceOnUse" x="51" y="51" width="398" height="398">
<path d="M250 448.5C359.629 448.5 448.5 359.629 448.5 250C448.5 140.371 359.629 51.5 250 51.5C140.371 51.5 51.5 140.371 51.5 250C51.5 359.629 140.371 448.5 250 448.5Z" fill="white"/>
</mask>
<g mask="url(#mask6_201_714)">
<path d="M95.2002 60.9999C101 97.3999 112.4 132.7 127.8 166.1C142.2 197.5 160 227.4 181 254.9C201.1 281.2 224.2 305.2 250.5 325.2C278.1 346.3 309.1 362.6 342.1 373.3C376 384.2 411.8 389.3 447.4 388C451.9 387.8 456.3 387.6 460.8 387.2C461.4 387.2 462.9 386.9 462.6 386C462.2 385.1 460.2 385.2 459.5 385.2C424.4 388 388.9 384.3 355 374.7C321.8 365.3 290.4 350 262.3 329.8C235.7 310.7 212.2 287.6 191.8 262C170.8 235.7 152.8 206.9 137.9 176.8C121.8 144.2 109.4 109.6 102.4 73.8999C101.6 69.5999 100.8 65.2999 100.1 60.9999C100 59.4999 95.0002 59.6999 95.2002 60.9999Z" fill="white"/>
</g>
<mask id="mask7_201_714" style="mask-type:luminance" maskUnits="userSpaceOnUse" x="51" y="51" width="398" height="398">
<path d="M250 448.5C359.629 448.5 448.5 359.629 448.5 250C448.5 140.371 359.629 51.5 250 51.5C140.371 51.5 51.5 140.371 51.5 250C51.5 359.629 140.371 448.5 250 448.5Z" fill="white"/>
</mask>
<g mask="url(#mask7_201_714)">
<path d="M119.4 55.9C137.2 83.5 160.3 107.1 184.5 129C208.1 150.4 232.6 171.1 259.8 187.9C273.3 196.2 287.5 203.5 302.3 209.1C318.2 215.1 334.7 219 351.5 221.4C368.9 224 386.6 225.1 404.2 225.9C421.6 226.8 439 227.3 456.4 227.2C490.6 226.9 524.9 223.8 557.9 214.8C562.1 213.7 566.2 212.4 570.3 211.1C570.8 210.9 573 210.3 573 209.6C573 208.9 571.5 209.3 571.1 209.5C538.3 220.1 503.8 224.1 469.4 225C452.3 225.4 435.1 225 418 224.3C400.7 223.6 383.4 222.7 366.3 220.7C349.1 218.7 331.9 215.6 315.4 210.1C300.6 205.2 286.3 198.6 272.8 190.9C245.4 175.3 220.9 155.3 197.4 134.5C173.2 113 149.7 90.3 130.8 63.9C128.5 60.7 126.3 57.4 124.1 54.1C123.4 53.1 119 55.4 119.4 55.9Z" fill="white"/>
</g>
<mask id="mask8_201_714" style="mask-type:luminance" maskUnits="userSpaceOnUse" x="51" y="51" width="398" height="398">
<path d="M250 448.5C359.629 448.5 448.5 359.629 448.5 250C448.5 140.371 359.629 51.5 250 51.5C140.371 51.5 51.5 140.371 51.5 250C51.5 359.629 140.371 448.5 250 448.5Z" fill="white"/>
</mask>
<g mask="url(#mask8_201_714)">
<path d="M64.3001 154.2C91.7001 182 130.4 194.9 166.6 207.1C207.8 220.9 249.9 232 292.8 238.8C334.6 245.5 377.1 248.1 419.3 245.3C458 242.7 496.5 235.4 533.2 223C569.6 210.7 604.4 193.4 635.4 170.6C639.3 167.7 643.2 164.7 647 161.7C647.5 161.3 644.4 157.4 643.9 157.8C614.1 181.6 580.5 200.3 544.8 213.8C509 227.4 471.3 235.9 433.3 239.9C391.8 244.2 349.8 242.9 308.4 237.6C266.1 232.1 224.4 222.3 183.6 209.6C163.8 203.5 144.2 196.8 124.9 189.2C106.9 182.1 89.2001 173.6 74.0001 161.5C70.2001 158.5 66.6001 155.3 63.2001 151.8C62.7001 151.3 62.3001 150.8 62.1001 151.5C62.1001 152.2 63.8001 153.8 64.3001 154.2Z" fill="white"/>
</g>
<mask id="mask9_201_714" style="mask-type:luminance" maskUnits="userSpaceOnUse" x="51" y="51" width="398" height="398">
<path d="M250 448.5C359.629 448.5 448.5 359.629 448.5 250C448.5 140.371 359.629 51.5 250 51.5C140.371 51.5 51.5 140.371 51.5 250C51.5 359.629 140.371 448.5 250 448.5Z" fill="white"/>
</mask>
<g mask="url(#mask9_201_714)">
<path d="M385.4 89.2C374.2 128.8 360.1 167.5 343.4 205C327.9 239.7 310.7 274.3 288.2 305C277.4 319.7 265.3 333.4 251.4 345.3C236.3 358.2 219.2 368.4 201.5 377.2C183.3 386.2 164.4 394.1 145.5 401.5C126.4 409 107.1 415.8 87.6001 422.1C48.4001 434.6 8.50011 444.5 -31.9999 451.7C-36.9999 452.6 -41.8999 453.4 -46.8999 454.2C-47.8999 454.4 -49.3999 454.9 -50.0999 455.8C-50.5999 456.4 -50.6999 456.9 -49.5999 456.8C-8.29989 450.1 32.5001 440.7 72.6001 428.6C112.4 416.6 151.4 402.1 189.2 384.8C207.5 376.5 225.4 367.1 241.7 355.3C256.8 344.4 270.2 331.4 282.1 317C306.4 287.7 324.4 253.5 340.5 219.2C358.3 181.4 373.4 142.3 385.5 102.3C387 97.3 388.5 92.4 389.9 87.4C390.1 86.6 388.2 87.2 387.9 87.3C387.2 87.7 385.7 88.3 385.4 89.2Z" fill="white"/>
</g>
<mask id="mask10_201_714" style="mask-type:luminance" maskUnits="userSpaceOnUse" x="51" y="51" width="398" height="398">
<path d="M250 448.5C359.629 448.5 448.5 359.629 448.5 250C448.5 140.371 359.629 51.5 250 51.5C140.371 51.5 51.5 140.371 51.5 250C51.5 359.629 140.371 448.5 250 448.5Z" fill="white"/>
</mask>
<g mask="url(#mask10_201_714)">
<path d="M423.2 120C419.8 159 406.7 196.3 391.5 232.1C376.8 266.7 359.9 300.7 338.3 331.6C318.5 360.1 294.6 385.3 267.5 406.9C240.9 428.1 211.7 445.9 181.1 460.8C150.3 475.8 118.1 488 85.2999 498C81.2999 499.2 77.3999 500.4 73.3999 501.5C73.0999 501.6 74.9999 506.1 75.9999 505.8C108.9 496.3 141.3 484.7 172.4 470.4C203.4 456.1 233.2 439.1 260.6 418.6C288.1 397.9 312.9 373.7 333.6 346.1C356 316.1 373.7 282.8 388.9 248.6C404.6 213.3 418.9 176.6 424.5 138.1C425.2 133.4 425.7 128.7 426.1 124C426.2 123.1 425.3 121.9 424.8 121.2C424.5 121 423.2 119.5 423.2 120Z" fill="white"/>
</g>
<mask id="mask11_201_714" style="mask-type:luminance" maskUnits="userSpaceOnUse" x="51" y="51" width="398" height="398">
<path d="M250 448.5C359.629 448.5 448.5 359.629 448.5 250C448.5 140.371 359.629 51.5 250 51.5C140.371 51.5 51.5 140.371 51.5 250C51.5 359.629 140.371 448.5 250 448.5Z" fill="white"/>
</mask>
<g mask="url(#mask11_201_714)">
<path d="M456.3 177.7C427.2 212.2 395.1 244.1 360.4 273C325.6 301.9 288.3 327.7 249.1 350.1C208.6 373.2 166 392.6 122 407.8C74.7 424.2 25.7 435.9 -23.9 442.8C-73.3 449.6 -123.3 451.7 -173.1 448.8C-179.4 448.4 -185.8 448 -192.1 447.4C-195 447.2 -195.3 449.1 -192.3 449.4C-142.2 453.6 -91.7 452.9 -41.7 447.3C8.19998 441.7 57.6 431.3 105.5 416.2C150.9 401.9 194.9 383.3 236.8 360.8C276.8 339.3 314.9 314.2 350.6 286C386.4 257.7 419.7 226.1 450 191.9C453.8 187.6 457.6 183.2 461.3 178.8C461.9 177.7 457.3 176.5 456.3 177.7Z" fill="white"/>
</g>
<mask id="mask12_201_714" style="mask-type:luminance" maskUnits="userSpaceOnUse" x="51" y="51" width="398" height="398">
<path d="M250 448.5C359.629 448.5 448.5 359.629 448.5 250C448.5 140.371 359.629 51.5 250 51.5C140.371 51.5 51.5 140.371 51.5 250C51.5 359.629 140.371 448.5 250 448.5Z" fill="white"/>
</mask>
<g mask="url(#mask12_201_714)">
<path d="M145.1 56C144.7 97.9 148.8 139.9 158.3 180.7C167.4 219.9 181.4 258 201 293.2C218.8 325.2 240.9 354.8 267.1 380.4C294 406.8 325.1 428.6 359.2 444.6C396 461.9 435.8 472.5 476.1 477.5C481.1 478.1 486 478.6 491 479.1C494.3 479.4 493.6 475.6 490.7 475.3C450.6 471.8 410.8 462.8 373.7 447.1C338.9 432.4 306.9 411.9 279.1 386.4C252.4 362 229.7 333.4 211.2 302.4C191.1 268.7 176.3 232 166.3 194.1C155.9 154.2 150.7 113 150 71.9C149.9 66.8 149.9 61.7 150 56.5C150 54.2 145.1 53.4 145.1 56Z" fill="white"/>
</g>
<mask id="mask13_201_714" style="mask-type:luminance" maskUnits="userSpaceOnUse" x="51" y="51" width="398" height="398">
<path d="M250 448.5C359.629 448.5 448.5 359.629 448.5 250C448.5 140.371 359.629 51.5 250 51.5C140.371 51.5 51.5 140.371 51.5 250C51.5 359.629 140.371 448.5 250 448.5Z" fill="white"/>
</mask>
<g mask="url(#mask13_201_714)">
<path d="M61.7998 131.2C65.0998 169.1 70.9998 206.9 81.5998 243.5C91.4998 277.6 105.6 310.7 125.1 340.5C142.8 367.3 164.8 391.5 190.8 410.5C219.5 431.5 252.5 444.8 287.1 452.4C306.1 456.6 325.4 459.3 344.7 461.3C364.8 463.3 385 464.2 405.1 463C410.2 462.7 415.3 462.3 420.3 461.7C420.7 461.7 419 460.7 418.9 460.6C418.2 460.2 416.9 459.4 416 459.5C396.2 461.7 376.2 461.8 356.3 460.4C336.8 459.1 317.3 456.6 298.1 453.2C279.8 449.9 261.6 445.4 244.1 438.8C228.6 432.9 213.9 425.2 200.3 415.8C174.2 397.9 152 374.7 134 348.8C114.2 320.3 99.5998 288.6 89.1998 255.5C77.9998 220.3 71.4998 183.6 67.5998 146.9C67.0998 142.4 66.6998 137.9 66.2998 133.3C66.2998 132.8 64.5998 132.2 64.1998 132C63.9998 131.9 61.7998 131.1 61.7998 131.2Z" fill="white"/>
</g>
<mask id="mask14_201_714" style="mask-type:luminance" maskUnits="userSpaceOnUse" x="51" y="51" width="398" height="398">
<path d="M250 448.5C359.629 448.5 448.5 359.629 448.5 250C448.5 140.371 359.629 51.5 250 51.5C140.371 51.5 51.5 140.371 51.5 250C51.5 359.629 140.371 448.5 250 448.5Z" fill="white"/>
</mask>
<g mask="url(#mask14_201_714)">
<path d="M244.5 41.2C253.6 81.1 262.7 121.2 266.7 162C270 196 269.6 230.4 265.7 264.4C261.8 298.1 254.5 331.4 243.9 363.7C233.3 396.1 219.5 427.4 202.7 457C185.8 486.6 166 514.5 143.3 539.9C140.4 543.2 137.5 546.4 134.5 549.5C132.5 551.6 137.1 552.2 138.3 550.9C161.8 526 182.5 498.6 200.3 469.3C218 440 232.8 409 244.3 376.8C255.9 344.5 264.2 311 269 276.9C273.8 243.1 275.1 208.7 272.8 174.6C270 134.3 261.8 94.6 252.9 55.3C251.8 50.3 250.6 45.3 249.5 40.3C249 38.3 244 39.3 244.5 41.2Z" fill="white"/>
</g>
<mask id="mask15_201_714" style="mask-type:luminance" maskUnits="userSpaceOnUse" x="51" y="51" width="398" height="398">
<path d="M250 448.5C359.629 448.5 448.5 359.629 448.5 250C448.5 140.371 359.629 51.5 250 51.5C140.371 51.5 51.5 140.371 51.5 250C51.5 359.629 140.371 448.5 250 448.5Z" fill="white"/>
</mask>
<g mask="url(#mask15_201_714)">
<path d="M334.6 75.5C338.7 104.9 341.3 134.5 343.1 164.1C344.9 193.7 346.3 223.5 346.4 253.2C346.4 267.8 345.8 282.4 343.7 296.8C341.7 310.5 338.3 323.9 333.9 337C325.3 362.9 313.3 387.6 300.3 411.5C287.7 434.6 273.5 457 255.8 476.6C253.6 479.1 251.3 481.5 249 483.9C248.9 484 252.7 486.9 253.5 486.2C272 467.3 286.9 445.4 299.9 422.6C313.3 399 325.6 374.4 335.1 348.8C339.8 336 343.8 322.9 346.4 309.5C349.2 295.3 350.5 280.8 350.8 266.3C351.2 251.7 350.7 237.1 350.2 222.5C349.7 207.6 349.1 192.7 348.3 177.8C346.7 148.2 344.3 118.6 340.6 89.1C340.1 85.4 339.6 81.6 339.1 77.9C339 77.2 337.6 76.7 337.1 76.4C336.8 76.1 334.5 75.3 334.6 75.5Z" fill="white"/>
</g>
<mask id="mask16_201_714" style="mask-type:luminance" maskUnits="userSpaceOnUse" x="51" y="51" width="398" height="398">
<path d="M250 448.5C359.629 448.5 448.5 359.629 448.5 250C448.5 140.371 359.629 51.5 250 51.5C140.371 51.5 51.5 140.371 51.5 250C51.5 359.629 140.371 448.5 250 448.5Z" fill="white"/>
</mask>
<g mask="url(#mask16_201_714)">
<path d="M401.1 74.2C415.7 101.4 419.4 133 422.6 163.2C426 195 427.7 227.2 424.9 259.1C422.2 289.4 414.9 319.1 402.2 346.8C390.5 372.3 374.8 395.9 357.1 417.7C339.2 439.7 319.2 460 298.3 479.3C295.7 481.7 293.1 484.1 290.4 486.5C289 487.8 291.6 492 292.8 490.9C314.2 471.6 334.9 451.4 353.6 429.4C372.1 407.6 388.7 384.1 401.4 358.5C415 331.3 423.5 302.1 427.1 271.9C431 239.6 429.9 206.9 426.8 174.5C425.3 158.9 423.6 143.2 420.9 127.7C418.3 112.5 414.5 97.3 408.3 83.2C406.8 79.7 405.1 76.3 403.3 73C402.9 72.3 401.9 70.9 400.9 71.4C400.1 71.9 400.8 73.5 401.1 74.2Z" fill="white"/>
</g>
<mask id="mask17_201_714" style="mask-type:luminance" maskUnits="userSpaceOnUse" x="51" y="51" width="398" height="398">
<path d="M250 448.5C359.629 448.5 448.5 359.629 448.5 250C448.5 140.371 359.629 51.5 250 51.5C140.371 51.5 51.5 140.371 51.5 250C51.5 359.629 140.371 448.5 250 448.5Z" fill="white"/>
</mask>
<g mask="url(#mask17_201_714)">
<path d="M68.2001 101.6C72.6001 141 84.4001 179.3 101.9 214.8C119.5 250.3 142.8 282.9 170.3 311.5C198.8 341.2 231.9 366.2 267.9 386.1C306.1 407.2 347.5 422.6 390 432.6C432.7 442.7 476.7 447.3 520.6 447.1C525.9 447.1 531.3 447 536.6 446.8C537.7 446.8 539.2 446.3 539.9 445.5C540.5 444.9 540.5 444.3 539.4 444.3C495.5 445.7 451.5 442.2 408.5 433.4C365.7 424.6 323.9 410.5 284.9 390.6C248.2 371.9 214.2 348 184.6 319.3C156.2 291.8 131.8 260 112.9 225.2C94.1001 190.6 80.9001 153 74.8001 114.1C74.1001 109.3 73.4001 104.6 72.9001 99.8C72.7001 98.8 68.0001 100.1 68.2001 101.6Z" fill="white"/>
</g>
<mask id="mask18_201_714" style="mask-type:luminance" maskUnits="userSpaceOnUse" x="51" y="51" width="398" height="398">
<path d="M250 448.5C359.629 448.5 448.5 359.629 448.5 250C448.5 140.371 359.629 51.5 250 51.5C140.371 51.5 51.5 140.371 51.5 250C51.5 359.629 140.371 448.5 250 448.5Z" fill="white"/>
</mask>
<g mask="url(#mask18_201_714)">
<path d="M43.8002 261.1C63.4002 286.1 90.2002 304.1 118.4 318.3C149.2 333.8 181.8 345.6 215 354.8C249.2 364.3 284.1 370.8 319.3 375.3C354 379.7 389.1 382.6 424 382.5C458.5 382.4 493.4 378.9 526.1 367.5C530.1 366.1 534 364.6 537.9 363C538.7 362.7 539.7 361.8 539.1 360.9C538.5 360 536.6 360.7 535.9 360.9C504.1 373.9 469.7 378.6 435.5 379.3C401 380.1 366.3 377.4 332 373.5C297.5 369.5 263.2 363.6 229.6 355C196.1 346.4 163.3 335.1 132 320.4C104 307.3 76.8002 290.9 55.8002 267.8C53.2002 264.9 50.7002 261.9 48.2002 258.9C47.1002 257.6 42.5002 259.5 43.8002 261.1Z" fill="white"/>
</g>
<mask id="mask19_201_714" style="mask-type:luminance" maskUnits="userSpaceOnUse" x="51" y="51" width="398" height="398">
<path d="M250 448.5C359.629 448.5 448.5 359.629 448.5 250C448.5 140.371 359.629 51.5 250 51.5C140.371 51.5 51.5 140.371 51.5 250C51.5 359.629 140.371 448.5 250 448.5Z" fill="white"/>
</mask>
<g mask="url(#mask19_201_714)">
<path d="M46.6002 340.1C67.4002 363.5 97.0002 377.1 125.3 389.1C155.8 402.1 187.3 412.4 219.5 420.3C251.6 428.2 284.3 433.6 317.2 436.9C350 440.1 383.1 441.2 416 440.3C447.5 439.4 480.2 437.5 509.4 424.6C512.9 423 516.3 421.3 519.7 419.5C520.6 419 520.3 418.5 519.5 418.3C518.5 418 516.9 418.5 516 419C488.2 434.4 455.8 437.1 424.6 438.2C392.3 439.3 359.9 438.6 327.6 435.7C295.2 432.8 263.1 427.9 231.4 420.5C200.1 413.2 169.3 403.7 139.5 391.7C124.9 385.8 110.4 379.4 96.4002 372.1C83.0002 365 70.0002 356.9 58.9002 346.5C56.2002 344 53.6002 341.4 51.2002 338.6C50.3002 337.7 45.8002 339.1 46.6002 340.1Z" fill="white"/>
</g>
<mask id="mask20_201_714" style="mask-type:luminance" maskUnits="userSpaceOnUse" x="51" y="51" width="398" height="398">
<path d="M250 448.5C359.629 448.5 448.5 359.629 448.5 250C448.5 140.371 359.629 51.5 250 51.5C140.371 51.5 51.5 140.371 51.5 250C51.5 359.629 140.371 448.5 250 448.5Z" fill="white"/>
</mask>
<g mask="url(#mask20_201_714)">
<path d="M407.5 99C394.6 138.3 379 176.7 360.8 213.9C342.7 251 322.2 286.8 299.3 321.1C276.3 355.5 251.1 388.4 223.7 419.5C196.4 450.5 167.1 479.8 135.6 506.5C103.4 533.8 67.8001 558.3 27.6001 572.2C22.8001 573.9 17.9001 575.4 12.9001 576.8C10.0001 577.6 13.1001 581 15.3001 580.4C56.2001 569.1 92.8001 546.7 125.8 520.6C158.7 494.5 188.9 465 217.2 434C245.1 403.4 270.9 371 294.5 337C318.1 302.8 339.5 267.1 358.3 230.1C377.2 193 393.6 154.6 407.2 115.3C408.9 110.5 410.5 105.8 412 101C412.8 98.6 408.2 96.8 407.5 99Z" fill="white"/>
</g>
<mask id="mask21_201_714" style="mask-type:luminance" maskUnits="userSpaceOnUse" x="51" y="51" width="398" height="398">
<path d="M250 448.5C359.629 448.5 448.5 359.629 448.5 250C448.5 140.371 359.629 51.5 250 51.5C140.371 51.5 51.5 140.371 51.5 250C51.5 359.629 140.371 448.5 250 448.5Z" fill="white"/>
</mask>
<g mask="url(#mask21_201_714)">
<path d="M287.1 47.8C288.6 84.6 289 121.4 287 158.2C285 194.5 280.7 230.7 272.9 266.2C266 297.7 256.3 328.6 243.3 358.2C230.4 387.5 214.3 415.4 194.7 440.7C173.3 468.2 147.5 491.8 121.3 514.7C118 517.6 114.6 520.5 111.3 523.4C110.8 523.9 115 525.7 115.9 524.9C142.3 502 168.9 478.9 191.4 452C212 427.4 229.1 399.9 242.9 370.9C256.7 341.8 267.2 311.1 274.9 279.8C283.4 244.9 288.4 209.2 291 173.4C293.6 136.7 293.7 99.8 292.5 63.1C292.3 58.5 292.2 53.9 292 49.3C291.9 47.8 287.1 47.3 287.1 47.8Z" fill="white"/>
</g>
<mask id="mask22_201_714" style="mask-type:luminance" maskUnits="userSpaceOnUse" x="51" y="51" width="398" height="398">
<path d="M250 448.5C359.629 448.5 448.5 359.629 448.5 250C448.5 140.371 359.629 51.5 250 51.5C140.371 51.5 51.5 140.371 51.5 250C51.5 359.629 140.371 448.5 250 448.5Z" fill="white"/>
</mask>
<g mask="url(#mask22_201_714)">
<path d="M118.5 75.2C128.9 100.2 135.9 126.5 139.5 153.2C143.1 180 143.2 207.3 139.7 234.1C136.1 261.9 129.1 289.1 120.7 315.8C112.6 341.5 103.1 366.7 92.0999 391.3C81.1999 415.8 68.9999 439.7 55.3999 462.8C53.6999 465.7 51.8999 468.6 50.1999 471.5C49.3999 472.8 53.9999 474.7 54.8999 473.1C68.8999 450 81.5999 426.1 92.8999 401.5C104.2 376.9 114.1 351.7 122.6 326.1C131.4 299.4 138.9 272.2 143.2 244.4C147.4 217.5 148.2 190.2 145.3 163.2C142.5 136.3 136.2 109.8 126.6 84.6C125.4 81.5 124.2 78.5 123 75.5C122.4 74 117.7 73.1 118.5 75.2Z" fill="white"/>
</g>
<mask id="mask23_201_714" style="mask-type:luminance" maskUnits="userSpaceOnUse" x="51" y="51" width="398" height="398">
<path d="M250 448.5C359.629 448.5 448.5 359.629 448.5 250C448.5 140.371 359.629 51.5 250 51.5C140.371 51.5 51.5 140.371 51.5 250C51.5 359.629 140.371 448.5 250 448.5Z" fill="white"/>
</mask>
<g mask="url(#mask23_201_714)">
<path d="M479.9 212.8C467.5 244.6 450.8 274.5 431 302.3C411.1 330.2 388.1 355.8 363.3 379.4C338.3 403.2 311.4 425 283.3 445.1C253.1 466.8 221.7 486.9 189 504.5C155.5 522.4 120.3 537.5 83.7 547.9C79.2 549.2 74.8 550.3 70.3 551.5C69.3 551.8 68.3 552.9 68.8 554C69.4 555.2 71 555.2 72 554.9C109.3 545.6 145.3 531.3 179.5 513.9C213.2 496.8 245.5 476.7 276.5 455C305.1 435 332.7 413.4 358.4 389.8C383.8 366.5 407.4 341.2 428.2 313.7C448.9 286.3 466.6 256.6 480.1 225C481.8 221.1 483.4 217.2 484.9 213.3C485.7 210.9 480.8 210.6 479.9 212.8Z" fill="white"/>
</g>
<mask id="mask24_201_714" style="mask-type:luminance" maskUnits="userSpaceOnUse" x="51" y="51" width="398" height="398">
<path d="M250 448.5C359.629 448.5 448.5 359.629 448.5 250C448.5 140.371 359.629 51.5 250 51.5C140.371 51.5 51.5 140.371 51.5 250C51.5 359.629 140.371 448.5 250 448.5Z" fill="white"/>
</mask>
<g mask="url(#mask24_201_714)">
<path d="M242.7 24.1C259.4 47.9 278 70.4 298.1 91.5C318.2 112.5 339.9 132.1 362.8 149.9C385.7 167.7 409.9 183.9 435.1 198.2C460.4 212.6 486.7 225.1 513.9 235.7C540.8 246.2 568.5 254.6 596.6 261C600.1 261.8 603.7 262.6 607.2 263.3C608 263.5 609.3 262.2 609.9 261.8C610.1 261.7 611.5 260.5 611 260.4C582.4 254.5 554.2 246.4 526.8 236.3C499.7 226.3 473.3 214.2 448 200.4C422.5 186.5 398.1 170.7 374.9 153.3C351.7 135.9 329.8 116.8 309.4 96.2C289 75.4 270.2 53.4 253.1 30C251 27.1 248.9 24.1 246.8 21.2C246.4 20.7 242.3 23.6 242.7 24.1Z" fill="white"/>
</g>
<mask id="mask25_201_714" style="mask-type:luminance" maskUnits="userSpaceOnUse" x="51" y="51" width="398" height="398">
<path d="M250 448.5C359.629 448.5 448.5 359.629 448.5 250C448.5 140.371 359.629 51.5 250 51.5C140.371 51.5 51.5 140.371 51.5 250C51.5 359.629 140.371 448.5 250 448.5Z" fill="white"/>
</mask>
<g mask="url(#mask25_201_714)">
<path d="M193.7 28.9C208.1 56.6 224.2 83.5 242.4 108.9C260.5 134.3 280.6 158.3 302.8 180.2C325.1 202.2 349.5 222.1 375.8 239C402.2 256 430.5 270.1 460.1 280.5C489.6 290.9 520.6 297.6 551.8 299.8C555.6 300.1 559.5 300.3 563.3 300.4C566.3 300.5 565.3 295.8 562.7 295.7C531.6 294.6 500.8 289 471.2 279.6C441.5 270.1 413 256.9 386.4 240.7C360 224.6 335.4 205.6 312.9 184.3C290.6 163.2 270.3 140 251.9 115.3C233.5 90.5 217 64.2 202.4 36.9C200.6 33.5 198.8 30.2 197 26.8C196.5 25.8 195 25.1 194 25.7C192.9 26.4 193.2 27.9 193.7 28.9Z" fill="white"/>
</g>
</g>
<defs>
<clipPath id="clip0_201_714">
<rect width="500" height="500" fill="white"/>
</clipPath>
</defs>
</svg>
