<svg width="500" height="500" viewBox="0 0 500 500" fill="none" xmlns="http://www.w3.org/2000/svg">
<mask id="mask0_201_688" style="mask-type:luminance" maskUnits="userSpaceOnUse" x="51" y="51" width="398" height="398">
<path d="M250 448.5C359.629 448.5 448.5 359.629 448.5 250C448.5 140.371 359.629 51.5 250 51.5C140.371 51.5 51.5 140.371 51.5 250C51.5 359.629 140.371 448.5 250 448.5Z" fill="white"/>
</mask>
<g mask="url(#mask0_201_688)">
<path d="M61.1 183.2C58.4 205.5 57.4 228 58.1 250.4C58.4 261.5 59.2 272.6 60.4 283.6C61.4 293.3 62.6 303 64.9 312.5C67.4 322.4 71.4 332 78.5 339.5C79.1 340.2 83.3 339.2 83.3 338.2C85.6 286.5 86.6 234.7 86.3 182.9C86.3 175.9 86.4 168.9 86.1 161.9C85.9 157 85.1 151.6 80.6 148.8C79.8 148.3 76.1 149.2 75.9 150.2C70.5 182.1 70.4 214.5 71.6 246.7C72.2 262.4 72.9 278.1 74.1 293.8C75.2 309 77 324.3 80.6 339.2C82.5 347.1 84.7 355.2 88.1 362.6C90.7 368.2 94.7 373.8 101.3 374.7C102.1 374.8 105.6 374.4 105.7 373.2C109.3 339.4 111.7 305.4 112.8 271.4C114 237.6 114.1 203.8 112.7 170C112 152.7 110.3 135.2 103.3 119.1C102.9 118.3 98.8 119.5 98.5 120.2C92.1 137.5 94.2 157 94.8 175.1C95.4 194.6 96.2 214.2 97.1 233.7C98 253.5 99.1 273.3 100.3 293C101.5 312.1 102.7 331.2 105.5 350.2C107 360 108.6 370 111.5 379.6C114 387.8 117.8 395.6 124.6 401C125.3 401.6 128.9 400.6 129.3 399.8C138.4 381.2 142.2 360.7 144.2 340.2C146.3 317.7 146.9 295.1 147.4 272.5C147.9 250.2 148.2 227.8 148.1 205.5C148 184.3 147.2 162.9 143.4 142C141.6 131.8 139 121.6 135.6 111.8C134.7 109.3 133.8 106.8 132.8 104.3C132.1 102.6 131.2 100.7 129.7 99.5C126.9 97.3 122.1 98.6 119.6 100.7C116.4 103.4 115.8 108.3 115.2 112.1C114.3 117.7 114 123.3 113.9 128.9C113.6 140.4 113.4 151.8 113.3 163.3C113 186.5 113.1 209.8 113.6 233C114 254.1 114.4 275.2 115.9 296.2C118.5 334.4 124.8 373.7 144.2 407.2C146.5 411.2 149 415.1 151.7 418.9C152.4 419.8 155.9 418.4 156.5 417.8C170.6 403 173.7 381.2 176.5 361.9C179.9 338.3 181.3 314.5 182.3 290.7C184.2 244.1 184.3 197.2 178.4 150.8C176.8 138 174.7 125.3 172.1 112.6C169.9 102.2 168.4 89.5 160.2 81.9C159.5 81.3 156 82.4 155.5 83.1C150.1 92.3 150.1 103.3 149.8 113.7C149.5 126 149.6 138.3 149.8 150.6C150.3 175.2 151.6 199.8 152.7 224.4C153.8 249 154.9 273.6 156.2 298.1C157.5 321.9 158.6 345.8 160.7 369.5C162.9 394.2 167 419.1 178.2 441.5C178.5 442.1 180.4 441.5 180.8 441.4C185.2 440.2 188.4 437.8 190.5 433.6C192.8 429 193.6 423.8 194.7 418.9C197.4 405.9 199.6 392.8 201.4 379.7C205.1 353.3 207.1 326.6 208.3 300C209.5 273.4 209.8 246.9 210.1 220.3C210.3 193.9 210.3 167.4 208.2 141C207.2 127.9 205.6 114.9 203.3 102C201.1 89.8 198.9 77 193.7 65.6C192.4 62.8 191 60.1 189.2 57.6C188.5 56.6 185 58.1 184.4 58.7C178.5 64.6 179.9 74.7 179.9 82.2C180 92.7 180.1 103.1 180.2 113.6C180.5 134.7 181.1 155.7 181.8 176.8C183.2 218.8 185.2 260.7 187.3 302.7C188.4 323.3 189.3 343.9 190.6 364.5C191.8 384.4 193.6 404.3 197.7 423.9C198.7 428.6 199.8 433.4 201.1 438C202 441.3 203.3 445.4 206.9 446.5C210.1 447.5 214.3 446 216.9 444.1C220.3 441.6 222.6 437.5 224.5 433.8C228.6 426 230.9 417.4 232.5 408.8C234.3 399.2 235.4 389.4 236.3 379.6C238.2 359.1 238.9 338.6 239.7 318C240.5 297.2 241.3 276.5 241.8 255.7C242.8 214.2 242.8 172.6 240.2 131.2C239.5 120.8 238.7 110.5 237.7 100.2C236.7 90.3 235.7 80.4 233.8 70.6C232.9 65.9 231.7 61.2 230.3 56.5C229.6 54.4 228.9 52.3 228.1 50.2C227.4 48.4 226.7 46.1 225.3 44.6C223.1 42.4 219 43.4 216.7 44.9C214.1 46.6 213.1 50 212.8 52.9C210.6 73.4 211.1 94.1 211.4 114.7C211.6 135.7 212.1 156.6 212.9 177.6C214.4 219.2 216.9 260.8 220.5 302.4C222.3 323.1 224.3 343.7 226.6 364.4C227.8 374.6 229.1 384.8 230.6 394.9C232.1 404.5 233.6 414.1 235.9 423.5C238 431.8 241 439.9 246.1 446.9C246.7 447.7 249.2 446.7 249.9 446.4C259.7 442 261 430.3 262.8 420.9C265.4 407.5 267.5 394.1 269.3 380.6C272.8 353.6 274.9 326.4 276.4 299.2C277.9 271.5 278.9 243.8 279.5 216.1C280.1 188.3 280.3 160.4 280 132.6C279.8 105.9 280.4 78.5 275 52.2C274.3 49 273.6 45.7 272.7 42.6C272.6 42.2 271.6 42.4 271.4 42.4C268.2 42.9 265.1 44 263.1 46.7C260.9 49.6 260 53.3 259.1 56.7C256.7 65.6 255.2 74.8 254.3 84C252.5 102.7 253.1 121.7 253.7 140.5C255.1 179.5 258.7 218.4 262.2 257.2C265.6 295.3 269.2 333.3 275.1 371.1C278.1 389.9 281.6 408.6 286 427.1C287.3 432.7 289.1 441.4 296.7 440.7C299.9 440.4 303 439.1 305 436.5C307.4 433.5 308.4 429.5 309.6 425.9C315 408.4 317.1 390.2 318.6 372C320.2 352.6 321.3 333.1 322.2 313.6C323.9 274.9 325.3 236.1 325.7 197.4C326.1 159.3 324.8 121.1 318.3 83.5C317.5 79.1 316.8 74.6 315.7 70.2C315 67.3 313.7 64.2 311.4 62.2C309 60.2 305.8 60.5 303 61.5C300.1 62.5 298.3 64.5 297.3 67.4C296.2 70.9 296.1 74.6 295.8 78.2C295.4 82.7 295.1 87.2 294.7 91.8C294 100.7 293.4 109.7 292.9 118.6C290.7 154.6 289.8 190.6 291.1 226.6C292.4 262.2 296 297.7 303 332.6C306.5 350.1 310.8 367.4 316.1 384.5C318.7 393 321.6 401.4 324.7 409.7C325.5 411.8 326.3 413.8 327.1 415.9C327.8 417.6 328.3 419.5 329.6 420.8C332.1 423.3 336.3 422.3 339.2 421.1C345.7 418.4 348.1 411.7 349.1 405.2C350.4 396.3 350.5 387 351.1 378C352.3 358.7 353.3 339.3 354 319.9C355.5 281 355.9 242.1 354.9 203.3C353.8 164.5 351.3 125.7 346.7 87.1C346.1 82 345.6 72.1 338.3 72.5C337 72.6 335.1 72.8 334.1 73.8C333.5 74.4 333.1 75.9 332.8 76.7C332.3 77.9 331.8 79.1 331.3 80.3C329.9 84.1 328.8 88 327.9 91.9C324 109.1 324.5 127 324.4 144.5C324.2 181.7 325 219 327.9 256.1C330.8 293 335.8 329.9 344.1 366C346.2 375 348.5 383.9 351 392.8C352.3 397.3 353.6 401.8 355 406.3C356 409.4 356.7 413 360.7 412.7C369.5 412.1 371.1 402.5 372.9 395.6C375.2 386.8 376.4 377.7 377.4 368.6C381.4 330 382 291 382.1 252.2C382.1 232.7 382 213.2 381.8 193.8C381.7 175.4 382.1 157 381.3 138.6C380.6 123.1 378.2 107.1 369.4 94C368.9 93.2 364.6 94.3 364.6 95.3C361.2 133.7 360.4 172.2 362.3 210.7C364.2 249.3 368.8 287.7 376 325.7C380.1 347 385 368.1 390.7 389.1C390.9 390 395.1 388.6 395.5 388C403.6 373.2 405 356 406.3 339.5C407.8 320.7 408.8 301.8 409.3 282.9C410.2 245.4 409.1 207.9 405.9 170.5C404.3 151.2 402.7 131.3 394.2 113.6C393.8 112.7 389.8 114 389.4 114.7C382.5 127.3 383.7 142.9 383.7 156.7C383.7 172.4 384.3 188 385.3 203.6C387.4 234.9 391.4 266 397.5 296.7C400.9 314 404.9 331.1 409.5 348.1C409.7 348.9 414 347.7 414.3 347C420 335.2 422.6 322.3 424 309.3C425.5 295.4 425.9 281.3 426.5 267.3C427.7 238.1 428.7 208.9 428 179.7C427.7 165.8 426.3 151.3 418.6 139.4C418.1 138.6 414 139.8 413.8 140.7C410.8 153.6 410.7 166.9 410.9 180.1C411.1 193.6 411.4 207.1 411.7 220.6C412.4 247.5 413.6 274.5 416.5 301.3C417.5 311.2 418.4 324.9 428.7 329.8C429.6 330.2 433.1 329.5 433.4 328.4C443.7 290.3 447.7 250.6 445.4 211.3C444.7 200.1 443.5 189 441.8 177.9C441.7 177.2 437.1 178.2 437 179.2C430.7 210.2 429.9 242.2 434.6 273.5C435.9 282.3 437.7 291.1 439.9 299.7C440.1 300.5 444.9 299.3 444.7 298.4C437 267.7 434.6 235.8 437.8 204.3C438.7 195.4 440.1 186.6 441.8 177.9C440.2 178.3 438.6 178.7 437 179.2C443 218.2 442.6 258.1 435.8 296.9C433.9 307.9 431.5 318.9 428.6 329.7C430.2 329.2 431.7 328.8 433.3 328.3C424.3 324.1 422.7 312.8 421.7 304C420.2 290.7 419.1 277.3 418.4 263.9C416.8 237.1 416.3 210.3 415.8 183.5C415.5 168.8 415.3 153.9 418.6 139.4C417 139.8 415.4 140.2 413.8 140.7C420.6 151.2 422.4 163.7 423 175.9C423.7 190 423.4 204.1 423.2 218.2C423 232.9 422.5 247.5 422 262.2C421.4 276.3 421 290.4 419.8 304.5C418.6 319.4 416.2 334.4 409.7 347.9C411.3 347.5 412.9 347.2 414.5 346.8C406.4 316.8 400.1 286.3 395.8 255.6C391.5 224.8 389.1 193.8 388.7 162.7C388.6 154.1 388.5 145.5 388.9 137C389.3 128.9 390.4 120.8 394.3 113.7C392.7 114.1 391.1 114.4 389.5 114.8C396.9 130.2 399 147.3 400.6 164.2C402.3 182.9 403.5 201.6 404.2 220.3C405.6 257.8 404.9 295.3 402.2 332.7C400.8 351.6 400.2 371.9 390.9 388.8C392.5 388.4 394.1 388.1 395.7 387.7C385.5 350.6 378 312.7 373 274.5C368.1 236.2 365.8 197.5 366.2 158.9C366.4 137.2 367.5 115.5 369.5 93.9C367.9 94.3 366.3 94.7 364.7 95.2C375.5 111.3 376.7 131.2 376.9 149.9C377.1 172.4 377.1 194.9 377.3 217.4C377.6 263.3 377.5 309.2 374 354.9C373.2 365.7 372.3 376.6 370.3 387.3C369.3 392.9 368 398.4 366.2 403.8C365.5 405.9 364.9 408 363.6 409.8C363.3 410.2 362.8 410.6 362.5 411C362.4 411.1 362.3 411.2 362.2 411.3C363.5 411.2 363.8 411 362.9 410.7C362.7 410.2 361.9 409.8 361.6 409.2C361.3 408.7 361.1 408.2 361 407.7C357.4 397.5 354.8 386.9 352.2 376.5C349.5 366 347.2 355.4 345.1 344.7C336 302 331.9 258.5 330.1 215C329.2 193.2 328.9 171.3 329 149.4C329 128.8 328 107.4 333.3 87.3C334.6 82.4 336.4 77.5 338.6 72.9C337.4 73.3 336.3 73.7 335.1 74.2C337 74 338.6 76.4 339.3 77.8C340.3 79.9 340.8 82.2 341.1 84.5C341.9 90.8 342.6 97.1 343.3 103.5C344.7 116.4 345.8 129.4 346.8 142.3C348.7 168 349.8 193.7 350.2 219.4C351.1 271.2 349.4 323 346.4 374.6C346 381 345.6 387.3 345.2 393.7C344.8 399.1 344.8 404.7 343.5 410C343 412.3 342.2 414.5 340.9 416.5C339.9 418 337.7 421.3 335.6 420.5C333.2 419.5 332.4 416.3 331.5 414.1C330.3 411.1 329.2 408.2 328.1 405.2C320 383.1 313.7 360.3 308.8 337.3C299 290.7 295.4 243 295.2 195.4C295.1 171.5 295.9 147.7 297.2 123.8C297.9 111.8 298.7 99.8 299.6 87.8C300 82.1 300.3 76.4 301 70.7C301.3 68.5 301.7 66.3 302.8 64.4C303 64 303.3 63.6 303.6 63.2C303.7 63.1 303.8 63 303.9 62.9C304.6 62.5 304.6 62.4 303.8 62.6C304.9 62.7 305.9 63.3 306.7 64.1C310.2 67.4 310.8 72.9 311.7 77.3C312.9 83.4 313.9 89.6 314.8 95.7C316.7 108.3 318 121 318.8 133.6C320.6 158.8 320.7 184.1 320.3 209.4C319.8 235.3 319 261.1 318 286.9C317.1 312.8 315.9 338.8 314 364.7C313.1 377.2 312 389.7 310.1 402C309.2 408 308 413.9 306.5 419.8C305.7 422.9 304.8 426 303.8 429.1C303 431.6 302.2 434.2 300.7 436.5C300.1 437.5 299.2 438.2 298.5 439.1C298.3 439.4 297.8 439.3 298.5 439.3C298 439.3 297.4 439.1 297 438.8C294.9 437.8 293.7 435.6 292.8 433.6C290.6 428.5 289.8 422.7 288.6 417.4C285.8 404.9 283.4 392.4 281.3 379.8C272.8 329.5 268.7 278.5 264.3 227.7C262 201.9 260 176.1 258.8 150.3C257.6 125.1 256.4 99.4 259.9 74.3C260.7 68.5 261.8 62.8 263.3 57.2C264 54.5 264.7 51.7 265.8 49.1C266.2 48.1 266.8 47.1 267.4 46.2C267.7 45.8 268 45.4 268.4 45C268.6 44.8 269.9 44.1 268.9 44.2C268.5 44.1 268 44.1 267.6 44C274.5 69.5 274.4 96.2 274.8 122.4C275.2 149.8 275.1 177.3 274.6 204.7C274.1 232.1 273.2 259.5 271.9 286.9C270.6 313.7 268.9 340.6 265.9 367.3C264.4 380.6 262.6 393.8 260.4 407C259.3 413.6 258.1 420.1 256.7 426.7C255.7 431.7 254.7 437 252 441.4C250.7 443.4 249 445.4 246.8 446.4C248.1 446.2 249.3 446.1 250.6 445.9C245.5 439 242.5 430.8 240.4 422.5C238.1 413.4 236.6 404 235.2 394.7C232.1 374.9 230 354.9 228 334.9C224 294.5 220.9 254 218.9 213.5C216.9 173.3 215.7 132.9 215.7 92.6C215.7 82.6 215.8 72.6 216.4 62.6C216.5 60.2 216.7 57.9 216.9 55.5C217.1 53.3 217.1 50.9 217.9 48.8C218.2 48 218.5 47.2 219 46.5C219.3 46.1 220.2 45.4 220.3 45C220 46.7 217.2 44.7 219.2 45.7C219.7 45.9 220.1 46.3 220.4 46.7C221 47.4 221.3 48.2 221.7 49C229.4 66.4 231.1 86.1 232.8 104.9C236.6 145.2 237.5 185.6 237.1 226.1C236.7 266.2 235.3 306.4 233.4 346.5C232.5 366.2 231.2 386 228.2 405.6C226.8 414.4 224.9 423.2 221.3 431.3C219.6 435.2 217.5 439.1 214.9 442.4C214.2 443.3 213.4 444.2 212.4 444.9C211.6 445.4 211.2 445.3 210.4 444.9C208.7 444 207.6 442.2 206.9 440.4C205.2 436.3 204.4 431.7 203.4 427.3C202.3 422.6 201.4 417.8 200.5 413C198.9 403.4 197.7 393.8 196.8 384.1C195 364.4 194.2 344.6 193.2 324.9C191.1 284.3 189 243.7 187.5 203C185.9 162.4 184.8 121.7 184.6 81.1C184.6 73.7 183.1 63.7 189 57.9C187.4 58.3 185.8 58.6 184.2 59C191 69 193.7 81.2 196.2 92.8C198.9 105.4 200.8 118.1 202.1 130.9C204.8 156.6 205.2 182.4 205.1 208.2C204.9 260.2 204.4 312.4 198.5 364.1C196.9 378.6 194.8 393 192.2 407.3C190.9 414.2 189.7 421.2 188 428C187.4 430.6 186.5 433.1 185.3 435.5C184.3 437.3 182.6 439.9 180.4 440.5C181.3 440.5 182.1 440.4 183 440.4C173.1 420.7 168.7 398.8 166.4 377C163.9 353.6 162.9 330.1 161.6 306.6C160.3 282.3 159.1 258 158 233.7C156.9 209.1 155.6 184.5 154.9 159.9C154.5 146.3 154.3 132.6 154.5 118.9C154.7 106.8 153.9 93.1 160.2 82.3C158.6 82.7 157.1 83.1 155.5 83.5C162.9 90.3 164.5 101.5 166.5 110.9C168.9 122.3 170.9 133.7 172.5 145.2C175.7 168 177.4 190.9 178 213.9C178.7 236.9 178.4 260 177.6 283C176.8 306.6 175.6 330.2 172.7 353.7C171.2 365.7 169.6 377.9 166.5 389.7C163.7 400.3 159.3 410.7 151.6 418.8C153.2 418.4 154.8 418.1 156.4 417.7C134.6 386.8 125.8 349.2 122 312.1C120 292.7 119.3 273.2 118.8 253.8C118.2 231.2 117.9 208.7 117.9 186.1C117.9 174.9 118 163.7 118.2 152.4C118.4 141.4 118.3 130.2 119.1 119.2C119.5 114.1 119.8 108.5 121.7 103.7C122.1 102.8 122.5 101.9 123.1 101.1C123.4 100.7 123.9 100.4 124.1 100C124.2 99.9 124.4 99.8 124.5 99.7C122.9 99.9 122.6 100 123.4 100.2C124.5 100.8 125.3 101.1 126.1 102.1C126.7 102.9 127.2 103.9 127.6 104.8C131.8 114 134.5 124.1 136.7 134C141.2 154 142.7 174.5 143.1 195C143.6 216.6 143.1 238.1 142.8 259.7C142.5 282.2 141.9 304.7 140.5 327.1C139.2 347.3 137.1 367.7 130.4 386.9C128.8 391.6 126.8 396.2 124.6 400.7C126.2 400.3 127.7 399.9 129.3 399.5C123.2 394.7 119.6 387.7 117.1 380.4C114.4 372.2 112.8 363.6 111.4 355.1C108.3 336.2 106.8 317.1 105.6 298.1C103.1 259.4 101.3 220.6 100 181.8C99.6 171.1 99.2 160.3 99.1 149.6C99 139.3 99.7 128.9 103.3 119.2C101.7 119.6 100.1 119.9 98.5 120.3C104.7 134.5 106.8 150 107.6 165.4C108.5 182 108.7 198.6 108.8 215.2C109 249.2 108 283.3 105.8 317.2C104.6 336.3 102.9 355.4 100.9 374.4C102.4 373.9 103.9 373.4 105.3 372.9C99.2 372.1 95.5 366.6 93.1 361.5C90.1 355 88.1 348 86.3 341.1C82.5 326.4 80.5 311.3 79.3 296.2C78 280.9 77.4 265.5 76.7 250.1C76 234.2 75.7 218.2 76 202.2C76.4 184.3 77.8 166.5 80.8 148.8C79.2 149.3 77.7 149.7 76.1 150.2C80.1 152.7 81 157.6 81.3 162C81.7 168 81.5 174.1 81.5 180.1C81.6 193 81.6 205.9 81.5 218.7C81.3 244.5 80.9 270.2 80.1 296C79.7 310.5 79.1 325 78.5 339.4C80.1 339 81.7 338.6 83.3 338.1C70.3 324.2 67.7 304.3 65.6 286.2C63.1 264.2 62.2 241.9 62.9 219.8C63.3 207.1 64.3 194.5 65.8 181.9C66 181.7 61.3 181.9 61.1 183.2Z" fill="white"/>
</g>
</svg>
