<svg width="500" height="500" viewBox="0 0 500 500" fill="none" xmlns="http://www.w3.org/2000/svg">
<mask id="mask0_201_699" style="mask-type:luminance" maskUnits="userSpaceOnUse" x="51" y="51" width="398" height="398">
<path d="M250 448.5C359.629 448.5 448.5 359.629 448.5 250C448.5 140.371 359.629 51.5 250 51.5C140.371 51.5 51.5 140.371 51.5 250C51.5 359.629 140.371 448.5 250 448.5Z" fill="white"/>
</mask>
<g mask="url(#mask0_201_699)">
<path d="M209 64.8999C173.9 72.4999 138.7 86.9999 112.7 112.5C98.7999 126.1 88.5999 142.5 81.6999 160.6C73.8999 180.9 68.9999 202.6 66.3999 224.2C61.3999 265 66.1999 307.5 86.0999 343.9C95.2999 360.6 107.3 375.7 122.1 387.8C138.3 401.1 157.2 410.8 176.1 419.7C185.9 424.3 195.9 428.6 206.2 431.7C216.1 434.7 226.3 436.4 236.6 436.9C256.7 437.9 276.8 434.3 295.8 428C315.3 421.5 333.8 412.3 351.4 401.7C368.9 391.1 386 379.3 400.4 364.8C427.6 337.5 441.8 299.9 443 261.6C444.3 222.2 431.6 183.5 411.2 150.1C400.8 133 388.4 116.6 373.8 102.8C366.5 95.8999 358.6 89.6999 350 84.6999C341.5 79.6999 332.3 75.7999 322.9 72.6999C304 66.3999 284.3 63.2999 264.7 60.5999C247.2 58.1999 228.7 55.2999 211.2 59.6999C203.3 61.6999 195.9 65.3999 189.9 71.0999C188.5 72.4999 191.9 76.0999 193.3 74.7999C206 62.5999 224.3 60.8999 241.1 61.8999C250 62.3999 258.9 63.6999 267.7 64.8999C277.5 66.2999 287.4 67.6999 297.1 69.6999C315.8 73.4999 334.4 78.9999 350.8 88.7999C367.9 98.9999 381.6 113.9 393.6 129.7C416.9 160.4 433.7 196.7 438 235.2C442.1 271.9 434.1 310.7 413.2 341.4C402 357.8 387.2 371.1 371.2 382.6C355 394.3 337.7 404.7 319.6 413.2C283.7 430.1 242.8 439.3 204 427.2C193.6 424 183.6 419.5 173.7 414.8C164.5 410.4 155.4 405.9 146.6 400.8C129.7 391 114.3 378.9 102.3 363.3C78.4 332.3 68.1999 293 68.4999 254.3C68.6999 232.6 71.9 211 77.3 190C82.2999 170.3 89.1999 150.6 101 133.8C121.4 104.7 153.5 86.1999 186.8 75.4999C195 72.7999 203.4 70.5999 211.8 68.7999C213.7 68.5999 210.9 64.4999 209 64.8999Z" fill="white"/>
</g>
<mask id="mask1_201_699" style="mask-type:luminance" maskUnits="userSpaceOnUse" x="51" y="51" width="398" height="398">
<path d="M250 448.5C359.629 448.5 448.5 359.629 448.5 250C448.5 140.371 359.629 51.5 250 51.5C140.371 51.5 51.5 140.371 51.5 250C51.5 359.629 140.371 448.5 250 448.5Z" fill="white"/>
</mask>
<g mask="url(#mask1_201_699)">
<path d="M170.2 90.1001C155 97.0001 140 104.6 127.1 115.2C120.9 120.3 115.3 126.1 110.6 132.6C105.3 140.1 101.5 148.4 98.5 157C92.2 175.1 87.8 194.1 84.7 213C81.6 232.2 80.3 251.8 81.7 271.2C84 304.4 94.4 336.9 114.2 363.8C123.4 376.2 134.5 387.3 147.3 395.9C161.9 405.8 178.5 412.1 195.6 415.9C204.7 417.9 214 419.3 223.4 420.2C233.1 421.2 242.9 421.9 252.6 421.5C262.1 421.2 271.4 419.6 280.3 416.4C289 413.3 297.2 409 305.2 404.3C321.1 395 336.8 385.1 351.8 374.3C366.6 363.6 380.6 351.8 392.5 337.9C403.4 325.1 412.6 310.5 418.4 294.7C424.6 277.7 426.3 259.7 423.9 241.8C421.5 223 415.2 204.9 407.3 187.8C400.7 173.5 392.8 159.7 383.5 146.8C365.4 121.7 341.6 99.7001 312.5 88.2001C295.5 81.4001 277.3 78.9001 259.1 78.6001C239.1 78.2001 218.9 79.8001 199.2 83.1001C189.7 84.7001 180.3 86.8001 171.1 89.3001C170.1 89.6001 169.5 90.6001 170.1 91.5001C170.8 92.5001 172.5 92.5001 173.5 92.2001C192.3 87.1001 211.6 84.0001 231 82.6001C250 81.2001 269.6 81.0001 288.4 84.6001C318.9 90.6001 345.2 108.5 365.7 131.5C375.9 143 384.8 155.7 392.4 169.1C400.9 184 408 199.7 413.1 216.1C418.5 233.6 421.3 252.2 419.1 270.5C417.1 287 410.9 302.8 402.2 316.9C383.6 347.2 354.5 368.8 324.9 387.6C317.4 392.4 309.8 397.1 302.1 401.6C294.3 406.2 286.2 410.5 277.7 413.5C259.8 419.9 240.6 418.7 222 416.8C204.1 415 186.2 411.3 169.7 404.1C155.4 397.9 142.5 388.8 131.5 377.7C110 355.9 96 327.1 89.9 297.2C82.3 259.8 86.2 220.9 95.3 184.1C99.6 166.8 104.3 148.4 114.8 133.7C124.1 120.6 137.4 110.9 151.3 103.2C158.1 99.4001 165.2 96.0001 172.3 92.7001C175.6 91.6001 172.3 89.1001 170.2 90.1001Z" fill="white"/>
</g>
<mask id="mask2_201_699" style="mask-type:luminance" maskUnits="userSpaceOnUse" x="51" y="51" width="398" height="398">
<path d="M250 448.5C359.629 448.5 448.5 359.629 448.5 250C448.5 140.371 359.629 51.5 250 51.5C140.371 51.5 51.5 140.371 51.5 250C51.5 359.629 140.371 448.5 250 448.5Z" fill="white"/>
</mask>
<g mask="url(#mask2_201_699)">
<path d="M164.4 112.7C138.1 126.8 122.4 154.5 115.1 182.6C110.7 199.8 108.9 217.5 107.9 235.1C107.4 244 107 253 106.7 261.9C106.4 271 106.5 280.1 107.8 289C109.2 297.8 111.9 306.4 115 314.8C117.8 322.4 120.8 329.9 123.9 337.3C129.7 351.2 136.3 365 145.9 376.8C155.3 388.4 167.4 396.9 181.4 402.1C195.5 407.4 210.7 409.2 225.7 409.6C233.3 409.8 240.9 409.6 248.5 409.3C257.2 408.9 266 408.4 274.4 406C290.4 401.4 303.7 390.4 316.9 380.7C343.4 361.1 370.1 340.1 387.9 311.9C396.2 298.7 402.6 284.1 405.4 268.7C408.4 252.2 407 235.6 402.3 219.6C393.8 190.4 376.2 163.5 354.4 142.4C333.2 121.9 306.9 106.5 278.3 99.2C247.9 91.4 215.2 92.5 185.5 102.9C178.2 105.5 171.1 108.6 164.3 112.3C162.4 113.3 164.8 117.7 166.7 116.7C193.8 102.1 225.5 96.4 256.1 99.7C285.4 102.8 313.2 114.1 336.7 131.9C359.3 148.9 377.6 171.4 389.9 196.8C397.1 211.7 402.4 228 403.2 244.7C403.9 260.2 400.6 275.5 394.5 289.7C381.8 319.3 358.4 342.4 333.5 362C327.1 367.1 320.6 372 314 376.8C307.4 381.6 300.9 386.6 294.1 391.1C287.3 395.5 280.1 399.5 272.2 401.7C264 404 255.5 404.5 247.1 404.9C218.7 406.2 186.8 405.6 162.7 388.4C150.9 380 142.3 368.2 135.6 355.4C128.5 341.9 122.9 327.4 117.7 313.1C114.8 305.1 112.3 296.9 111.1 288.4C109.9 279.6 110 270.7 110.3 261.8C110.9 244.4 111.6 226.9 113.9 209.7C117.8 180 127.8 149.8 150.3 128.9C155.2 124.3 160.7 120.4 166.6 117.2C168.8 116.1 166.3 111.7 164.4 112.7Z" fill="white"/>
</g>
<mask id="mask3_201_699" style="mask-type:luminance" maskUnits="userSpaceOnUse" x="51" y="51" width="398" height="398">
<path d="M250 448.5C359.629 448.5 448.5 359.629 448.5 250C448.5 140.371 359.629 51.5 250 51.5C140.371 51.5 51.5 140.371 51.5 250C51.5 359.629 140.371 448.5 250 448.5Z" fill="white"/>
</mask>
<g mask="url(#mask3_201_699)">
<path d="M164.1 125.7C146.2 148.3 133.5 175 127.2 203.2C120.7 232.2 121.2 262.5 128.4 291.3C132 305.8 137.3 320 144.2 333.3C150.9 346.3 159 358.8 170.1 368.4C189 384.8 214.5 391.7 239.2 391C265.5 390.3 290.3 380.2 311.6 365C333.8 349.1 352 328 367 305.3C375.2 293 382.5 279.7 386.7 265.5C391 251.3 391.7 236.4 387.9 222C384.1 207.8 376.6 194.8 367.8 183.1C359.7 172.3 350.2 162.5 339.8 153.9C318.8 136.6 293.9 123.9 267.7 116.7C240.4 109.2 210.8 107.4 183.7 116.3C177.3 118.4 171 121.2 165.1 124.5C162.5 126 165 130.3 167.4 128.9C191.6 115.2 220.2 112.7 247.3 116.9C273.7 121 299.4 131.4 321.8 146.1C343.8 160.5 363.2 179.9 375.6 203.2C382.4 216 386.5 230 385.7 244.5C384.9 258.9 379.8 272.7 373.1 285.3C366.6 297.5 358.7 309.1 350.2 319.9C342 330.4 333 340.2 323.1 349.1C304 366.2 281 379.8 255.5 384.4C232.2 388.6 206.9 386 186.1 374.3C174.9 368 165.6 359.2 158.3 348.6C150 336.7 143.5 323.3 138.6 309.6C128.7 282.4 125.1 252.9 128.4 224.1C131.6 196.2 141.3 169 156.2 145.2C159.8 139.4 163.8 133.8 168 128.5C168.8 127.5 168 125.8 167.1 125.2C166.1 124.5 164.9 124.7 164.1 125.7Z" fill="white"/>
</g>
<mask id="mask4_201_699" style="mask-type:luminance" maskUnits="userSpaceOnUse" x="51" y="51" width="398" height="398">
<path d="M250 448.5C359.629 448.5 448.5 359.629 448.5 250C448.5 140.371 359.629 51.5 250 51.5C140.371 51.5 51.5 140.371 51.5 250C51.5 359.629 140.371 448.5 250 448.5Z" fill="white"/>
</mask>
<g mask="url(#mask4_201_699)">
<path d="M176.2 141.6C161.7 161 150.4 182.9 143.9 206.2C137.4 229.3 136 253.8 141.3 277.3C144.2 290 148.9 302.1 154.7 313.7C160.1 324.5 166.3 335 173.8 344.5C180.9 353.4 189.4 361.3 199.6 366.4C211.4 372.3 224.8 373.9 237.8 374.2C251 374.5 264.8 374.6 277.2 369.5C288.9 364.6 299.4 356.7 308.8 348.4C318.1 340.2 326.5 330.9 334 321.1C341.6 311.2 348.3 300.6 353.6 289.4C364 267.5 368.9 243 364.4 218.9C362.2 207.1 357.8 195.8 351 186C344.2 176.1 335.2 167.9 325.5 160.9C306.1 147 283.5 137.5 260.1 133C237 128.5 212.7 129 190.1 135.7C184.6 137.3 179.3 139.4 174.1 141.7C173 142.2 174.2 143.2 174.8 143.4C175.9 143.9 177.2 143.9 178.2 143.4C198.8 134.1 222 130.9 244.4 133.1C267 135.3 289.1 142.5 308.8 153.8C318.9 159.6 328.5 166.4 336.7 174.8C344.9 183.2 351.3 193 355.4 204.1C363.6 226.3 362.4 251 354.9 273.2C347.2 296.1 333.3 316.8 317 334.5C308.8 343.4 299.7 351.5 289.7 358.4C284.5 362 279.1 365.3 273.2 367.7C267.1 370.1 260.7 371.3 254.2 371.7C247.8 372.1 241.3 372.1 234.8 371.8C228.7 371.6 222.5 371.1 216.4 369.8C210.6 368.5 205 366.5 199.8 363.6C195 360.9 190.7 357.5 186.7 353.7C178.6 345.9 172.2 336.7 166.5 327.1C160.1 316.3 154.5 304.9 150.3 293C146.3 281.5 143.7 269.5 142.9 257.3C142.2 245.7 142.9 233.9 145 222.5C149.1 199.3 158.4 177.2 170.8 157.3C173.8 152.4 177.1 147.7 180.5 143.1C181.9 141.5 177.2 140.3 176.2 141.6Z" fill="white"/>
</g>
<mask id="mask5_201_699" style="mask-type:luminance" maskUnits="userSpaceOnUse" x="51" y="51" width="398" height="398">
<path d="M250 448.5C359.629 448.5 448.5 359.629 448.5 250C448.5 140.371 359.629 51.5 250 51.5C140.371 51.5 51.5 140.371 51.5 250C51.5 359.629 140.371 448.5 250 448.5Z" fill="white"/>
</mask>
<g mask="url(#mask5_201_699)">
<path d="M174.2 166.6C163.3 187.7 154.8 210.4 151.6 234.1C148.7 255.4 150.2 277.3 158.2 297.3C165.2 314.9 176.7 330.8 192.1 341.9C208.8 353.9 229.9 359.3 250.3 357.3C271.8 355.2 291.8 345.6 307.7 331.1C323.3 316.9 334.8 298.6 342.4 279C350.9 257.4 354.7 232.9 345.9 210.8C337.9 190.7 321.7 175.1 302.9 165C292.8 159.6 281.9 155.6 270.8 152.7C260.7 150 250.4 148.3 240 147.8C220.3 146.8 199.7 150 182.6 160.6C178.6 163.1 174.9 165.9 171.5 169.1C171.3 169.3 173.6 170.1 173.8 170.1C174.4 170.2 175.8 170.8 176.3 170.3C190.6 157 209.8 150.6 229 149.4C249 148.1 269.4 151.8 287.9 159.5C307.4 167.6 325 180.9 335.9 199.3C341.3 208.5 344.7 218.7 345.7 229.4C346.8 240.9 345.2 252.5 342.2 263.6C336.7 283.8 326.7 303.3 313.1 319.2C299.5 335.1 281.9 347.4 261.7 353C251.6 355.8 241 357 230.6 356C221.3 355.1 212.4 352.3 204.3 347.7C188.3 338.8 175.7 324.4 167.3 308.2C158 290.1 154.3 269.9 155.1 249.7C156 226.7 162.6 204.1 171.8 183.1C174 178 176.5 172.9 179 168C179.2 167.6 174.7 165.7 174.2 166.6Z" fill="white"/>
</g>
<mask id="mask6_201_699" style="mask-type:luminance" maskUnits="userSpaceOnUse" x="51" y="51" width="398" height="398">
<path d="M250 448.5C359.629 448.5 448.5 359.629 448.5 250C448.5 140.371 359.629 51.5 250 51.5C140.371 51.5 51.5 140.371 51.5 250C51.5 359.629 140.371 448.5 250 448.5Z" fill="white"/>
</mask>
<g mask="url(#mask6_201_699)">
<path d="M209.7 163.6C202.2 165.1 196.6 170.3 192.4 176.4C187.6 183.4 184.3 191.4 181.2 199.2C174.3 216.9 169.7 235.9 170.1 255C170.5 271.3 174.7 287.4 183.6 301.2C192 314.4 204.1 324.7 218.4 330.9C225.9 334.1 234 335.8 242.2 335.9C251.2 336 260.2 334.2 268.7 331.3C277.5 328.3 285.9 324.1 293.8 319.1C301.4 314.3 308.5 308.6 313.6 301C318.4 293.8 321.4 285.6 323.3 277.3C325.3 269 326.5 260.4 327.2 251.8C328.5 235.4 327.1 217.6 317.1 203.8C311.9 196.6 304.7 191.1 297.2 186.5C289.1 181.4 280.5 177 271.6 173.3C263 169.7 254.1 166.9 245 164.8C236.3 162.8 227 160.9 218.1 161.8C214 162.2 209.9 163.3 206.4 165.4C206.3 165.4 208.3 166.7 208.5 166.8C208.9 167 210.4 168 210.8 167.7C218.3 163.3 227.3 163.5 235.7 164.6C244.7 165.8 253.7 167.9 262.4 170.7C270.9 173.4 279.2 176.9 287 181.1C294.6 185.1 302 189.8 308 195.9C313.8 201.8 317.9 208.9 320.3 216.8C322.6 224.6 323.4 232.8 323.3 240.9C323.2 249.2 322.3 257.4 320.9 265.6C319.5 273.8 317.6 282 314.2 289.6C310.8 297.4 305.8 304.3 299.2 309.8C292.5 315.4 284.7 320 276.8 323.8C260.9 331.5 242.8 336 225.2 332.1C218.6 330.6 212.5 327.9 207 324C201.1 319.7 195.9 314.5 191.5 308.6C182.3 296.3 176.8 281.6 175.1 266.4C173.1 248.2 176.2 229.7 181.8 212.4C184.5 203.9 187.8 195.5 191.7 187.6C194.9 181.1 198.9 174.6 204.9 170.2C207.7 168.2 210.8 166.7 214.1 166.1C214.2 166.1 213.4 165.5 213.5 165.6C213 165.3 212.5 165 212 164.7C211.5 164.2 210.4 163.4 209.7 163.6Z" fill="white"/>
</g>
<mask id="mask7_201_699" style="mask-type:luminance" maskUnits="userSpaceOnUse" x="51" y="51" width="398" height="398">
<path d="M250 448.5C359.629 448.5 448.5 359.629 448.5 250C448.5 140.371 359.629 51.5 250 51.5C140.371 51.5 51.5 140.371 51.5 250C51.5 359.629 140.371 448.5 250 448.5Z" fill="white"/>
</mask>
<g mask="url(#mask7_201_699)">
<path d="M205.4 174.2C195.1 202.8 186.8 233.4 192.3 263.9C193.6 271 195.7 278 198.6 284.7C201.4 291 204.8 297.3 209.5 302.4C214.3 307.8 220.3 311.6 227.3 313.6C234.1 315.6 241.3 315.9 248.3 316.2C255.5 316.5 262.9 316.7 269.4 313C272.5 311.3 275.1 308.9 277.6 306.4C280.2 303.9 282.7 301.2 285.2 298.6C294.7 288.6 302.8 277.4 305.8 263.7C311.4 238.2 301.4 211.3 282.2 194C272.5 185.2 260.8 178.9 248.4 174.8C242.1 172.7 235.6 171.3 229 170.5C225.8 170.1 222.5 169.8 219.2 169.7C216.3 169.6 213.2 169.7 210.5 170.6C207.7 171.5 205.5 173.1 204.1 175.7C203.5 176.8 204.7 178.3 205.6 178.7C206.7 179.3 207.9 179 208.5 177.9C211.1 173.3 218.5 173.9 222.9 174.2C229 174.6 235 175.5 241 177C252.8 179.9 264.3 185 274 192.4C283.6 199.6 291.4 208.9 296.4 219.8C301.4 230.6 303.6 242.7 302.5 254.6C301.9 260.4 300.6 266.1 298.3 271.5C295.7 277.7 291.9 283.3 287.5 288.5C283.1 293.8 278.4 298.8 273.4 303.5C271 305.8 268.5 307.9 265.6 309.4C262.7 310.9 259.4 311.5 256.2 311.7C252.7 311.9 249.2 311.7 245.7 311.5C242.3 311.3 238.9 311.1 235.6 310.7C229.4 309.9 223.1 308.3 218 304.5C212.9 300.7 209.1 295.4 206.1 289.9C202.8 284 200.4 277.6 198.6 271C191.2 242.8 197.3 213.5 206.3 186.4C207.5 182.9 208.7 179.5 209.9 176.1C210.7 174 206.4 171.6 205.4 174.2Z" fill="white"/>
</g>
<mask id="mask8_201_699" style="mask-type:luminance" maskUnits="userSpaceOnUse" x="51" y="51" width="398" height="398">
<path d="M250 448.5C359.629 448.5 448.5 359.629 448.5 250C448.5 140.371 359.629 51.5 250 51.5C140.371 51.5 51.5 140.371 51.5 250C51.5 359.629 140.371 448.5 250 448.5Z" fill="white"/>
</mask>
<g mask="url(#mask8_201_699)">
<path d="M231.9 191.2C223.4 192.8 215.8 199 211.8 206.5C207.1 215.2 206.6 225.4 207 235.1C207.7 253.1 212.4 272.8 228.3 283.5C235.2 288.1 243.6 290.6 251.9 289.1C261.4 287.4 269.7 281.3 276.6 274.8C283.5 268.4 289.7 260.8 292 251.5C293.1 246.9 293.1 242 291.7 237.4C290.3 232.7 287.5 228.6 284.6 224.7C273.3 209.4 258 195.4 238.6 192.1C236.3 191.7 233.9 191.5 231.5 191.4C230.5 191.4 229.4 192.1 228.7 192.7C228.6 192.8 227 194.3 227.7 194.3C246.3 194.8 262.3 205.8 274.1 219.4C277 222.8 279.8 226.3 282.4 230C285 233.8 287.3 237.9 288.2 242.4C290 251.5 286.3 260.7 280.8 267.8C278.1 271.2 275 274.3 271.7 277.2C268.6 279.9 265.3 282.5 261.5 284.2C254.1 287.6 245.7 287.1 238.3 283.9C230.9 280.7 224.8 275.1 220.5 268.4C215.8 260.9 213.3 252.2 212.1 243.5C211.5 239 211.2 234.4 211.1 229.8C211 225.1 211.2 220.4 212 215.8C213.3 208.4 216.8 199.8 223.7 195.8C225.2 194.9 226.9 194.4 228.6 194.1C229.7 193.9 230.8 193.2 231.6 192.4C231.9 192.2 233 191 231.9 191.2Z" fill="white"/>
</g>
<mask id="mask9_201_699" style="mask-type:luminance" maskUnits="userSpaceOnUse" x="51" y="51" width="398" height="398">
<path d="M250 448.5C359.629 448.5 448.5 359.629 448.5 250C448.5 140.371 359.629 51.5 250 51.5C140.371 51.5 51.5 140.371 51.5 250C51.5 359.629 140.371 448.5 250 448.5Z" fill="white"/>
</mask>
<g mask="url(#mask9_201_699)">
<path d="M230 203.5C220.6 211 219.4 224.3 220.9 235.4C221.7 241.7 223.6 248.1 227.2 253.5C230.3 258.3 234.8 262 240 264.3C250.2 268.9 263.7 269.3 273.2 262.6C274.5 261.7 275.7 260.6 276.4 259.2C277.2 257.7 277.4 256 277.5 254.3C277.9 250.5 278.2 246.7 277.8 242.9C277.1 236.9 274.7 231.1 271.2 226.2C262.3 213.7 247.5 207.5 233.1 203.9C232.6 203.8 230.4 203.2 230 203.8C229.6 204.4 231.3 204.7 231.6 204.8C243.6 207.7 255.4 212.9 263.7 222.3C267.5 226.7 270.6 231.8 272 237.5C272.8 240.6 273.1 243.7 273.1 246.9C273.1 250.2 273 253.8 272.1 256.9C271.3 259.9 268.7 261.7 266 263.1C263.7 264.3 261.3 265.2 258.8 265.7C254.3 266.6 249.6 266.5 245.2 264.8C234.1 260.6 228.2 249.9 226.2 238.7C224.2 227.2 224.8 212.5 234.7 204.7C235.3 204.3 233.3 203.8 233.1 203.7C232.5 203.5 230.7 203 230 203.5Z" fill="white"/>
</g>
<mask id="mask10_201_699" style="mask-type:luminance" maskUnits="userSpaceOnUse" x="51" y="51" width="398" height="398">
<path d="M250 448.5C359.629 448.5 448.5 359.629 448.5 250C448.5 140.371 359.629 51.5 250 51.5C140.371 51.5 51.5 140.371 51.5 250C51.5 359.629 140.371 448.5 250 448.5Z" fill="white"/>
</mask>
<g mask="url(#mask10_201_699)">
<path d="M238.1 222.7C236.9 230 236.1 237.7 240 244.3C243.4 249.9 249.7 257.9 257.2 254.2C264.3 250.7 263.2 241.4 261.6 235C260.7 231.5 259.8 227.8 258.3 224.6C256.8 221.5 254.1 219.4 250.8 218.6C248.9 218.2 247 218.1 245.1 218.1C243.2 218.2 241.1 218.1 239.4 219C237.6 219.9 236.4 221.7 237.2 223.7C238 225.6 240.2 226.2 242 225.4C243 225 243.9 223.8 243.3 222.7C242.7 221.6 241.1 221.4 240 221.8C240.1 221.8 240.1 221.8 240.2 221.7C240.6 221.7 241.1 221.7 241.5 221.8C242.6 222 241.5 222.1 241.6 222.5C241.6 222.4 242.3 222.3 242.4 222.3C243.6 222.2 244.8 222.1 246 222.2C248.1 222.2 250.4 222.5 252 224C253.7 225.5 254.3 227.8 255 229.9C255.9 232.8 256.7 235.6 257.3 238.6C257.8 241.3 258.2 244.3 257.5 247C257.1 248.6 256 250.8 254.1 251C251.8 251.3 249.7 249.3 248.3 247.7C246.5 245.7 244.9 243.4 243.7 240.9C240.9 235.3 242 228.8 243 222.9C243.5 220.2 238.6 220.2 238.1 222.7Z" fill="white"/>
</g>
</svg>
