<svg width="500" height="500" viewBox="0 0 500 500" fill="none" xmlns="http://www.w3.org/2000/svg">
<mask id="mask0_201_661" style="mask-type:luminance" maskUnits="userSpaceOnUse" x="51" y="51" width="398" height="398">
<path d="M250 448.5C359.629 448.5 448.5 359.629 448.5 250C448.5 140.371 359.629 51.5 250 51.5C140.371 51.5 51.5 140.371 51.5 250C51.5 359.629 140.371 448.5 250 448.5Z" fill="white"/>
</mask>
<g mask="url(#mask0_201_661)">
<path d="M208 41.6C207.2 88.8 206.5 135.9 205.9 183.1C205.6 206.5 205.3 230 205 253.4C204.9 265 204.5 276.6 204.7 288.1C204.9 298 205.9 308.2 210.9 316.9C215.2 324.3 221.9 330.1 230.5 331.6C238.9 333.1 247.5 330.3 254.4 325.7C271.3 314.7 276.1 295.1 281.2 276.9C283.7 268.1 286.2 258.2 292.5 251.2C295.1 248.3 298.5 245.9 302.6 246C307.3 246.1 311.6 248.9 314.6 252.2C321.5 259.8 322.2 271.2 323 280.9C323.9 292.5 324.1 304.2 324 315.8C323.9 362.8 322.9 409.9 322.3 457C322.2 462.7 322.2 468.5 322.1 474.2C322.1 476.2 326.9 475 326.9 473.3C327.5 426.2 328.1 379 328.7 331.9C328.8 320.3 329 308.6 328.7 297C328.4 286.3 328.3 275.1 326 264.6C324.1 255.8 319.1 246.8 310 243.9C301.9 241.3 293.6 244.7 288.2 250.9C282.2 257.8 279.5 266.8 277 275.4C274.1 285.3 271.8 295.5 267.4 304.9C263.5 313.2 257.7 320.6 249.6 325.2C242 329.5 233.1 330.2 225.5 325.6C217.5 320.7 213 311.8 211 302.9C208.6 291.9 209.4 280.2 209.5 269C209.8 245.7 210 222.4 210.3 199.1C210.9 151.9 211.6 104.8 212.3 57.6C212.4 51.8 212.5 46.1 212.6 40.3C212.8 38.8 208 39.9 208 41.6Z" fill="white"/>
</g>
<mask id="mask1_201_661" style="mask-type:luminance" maskUnits="userSpaceOnUse" x="51" y="51" width="398" height="398">
<path d="M250 448.5C359.629 448.5 448.5 359.629 448.5 250C448.5 140.371 359.629 51.5 250 51.5C140.371 51.5 51.5 140.371 51.5 250C51.5 359.629 140.371 448.5 250 448.5Z" fill="white"/>
</mask>
<g mask="url(#mask1_201_661)">
<path d="M248.3 36.5999C243.1 72.0999 240.9 108 241.9 143.9C242.1 152.7 242.5 161.5 243.1 170.3C243.7 178.3 244.6 186.7 249.1 193.5C252.6 198.9 258 202.8 264.6 203.3C271.2 203.8 277.7 201.8 283.1 197.9C288.9 193.7 293.2 188 297.8 182.5C302.4 177.1 307.9 171.3 314.7 168.9C321.3 166.6 327.9 171.7 331.7 176.8C335.9 182.6 338.4 189.6 340.4 196.4C345.1 212.6 346.4 229.6 346.9 246.5C347.5 264.5 347.6 282.4 347.7 300.4C348 336.7 348 373 348.9 409.3C349 413.8 349.1 418.3 349.3 422.8C349.3 423.4 354.3 423.1 354.3 422.3C353.2 385.9 353.1 349.5 352.9 313.1C352.8 294.9 352.6 276.7 352.3 258.5C352 241.7 351.6 224.7 348.4 208.1C346.9 200.1 344.8 192.2 341.5 184.7C339 179 335.4 173.1 329.9 169.9C324.3 166.6 317 166.8 311 168.9C304.5 171.2 299.2 176 294.7 181.1C289.9 186.5 285.8 192.3 280.2 196.9C277.5 199.1 274.5 201.1 271.2 202.1C267.9 203.1 264.3 201.9 261.4 200.2C254.9 196.3 251.4 189.3 249.8 182.2C247.9 173.8 247.8 165 247.4 156.5C245.7 120.8 247.1 85 251.6 49.5C252.1 45.1 252.7 40.7 253.4 36.4C253.3 35.7 248.5 35.4999 248.3 36.5999Z" fill="white"/>
</g>
<mask id="mask2_201_661" style="mask-type:luminance" maskUnits="userSpaceOnUse" x="51" y="51" width="398" height="398">
<path d="M250 448.5C359.629 448.5 448.5 359.629 448.5 250C448.5 140.371 359.629 51.5 250 51.5C140.371 51.5 51.5 140.371 51.5 250C51.5 359.629 140.371 448.5 250 448.5Z" fill="white"/>
</mask>
<g mask="url(#mask2_201_661)">
<path d="M268.8 44.1C269.3 67.1 269.8 90 270.3 113C270.8 134.5 271.6 156.1 271.5 177.6C271.4 196.4 270.2 215.6 263.2 233.3C261.5 237.5 259.5 241.7 257.2 245.6C255.2 248.9 252 255.5 247.3 254.9C242.8 254.3 241.2 247.8 239.8 244.3C237.7 239.3 235.8 234.3 234.1 229.1C230.7 219 228.4 208.7 226.1 198.3C224.3 190.1 221.1 180.8 213.3 176.4C205.3 171.9 197.6 177.2 192.9 183.8C187.4 191.6 184 201.4 181.6 210.6C176.2 230.8 175.2 252 173.9 272.7C172.6 295.4 171.8 318.2 171.3 341C170.2 386.6 169.6 432.3 168.7 477.9C168.6 483.6 168.5 489.3 168.4 495C168.4 496.1 169.1 497.3 169.7 498.2C170 498.5 170.9 499.7 170.9 498.6C171.7 452.8 172.5 407 173.5 361.1C174 338.3 174.5 315.6 175.6 292.8C176.6 271.1 177.4 249.1 181.2 227.7C183 217.8 185.6 207.9 189.7 198.7C193 191.3 197.8 181.5 206.5 179.6C211.1 178.6 215.7 180.6 218.8 184C222.3 187.9 223.2 193.4 224.2 198.3C226.3 208.6 228.9 218.7 232.3 228.6C234 233.7 235.9 238.7 238 243.7C239.7 247.8 241.3 252.2 244.1 255.8C246.2 258.5 249.5 260.7 252.9 258.5C256.3 256.3 258.6 251.6 260.6 248.2C269.8 232.1 272.8 213.3 273.7 195C274.7 174.3 273.6 153.4 273.2 132.7C272.7 110 272.2 87.4 271.8 64.7C271.7 59 271.6 53.4 271.4 47.7C271.4 46.6 270.7 45.4 270.1 44.5C269.8 44.2 268.8 43 268.8 44.1Z" fill="white"/>
</g>
<mask id="mask3_201_661" style="mask-type:luminance" maskUnits="userSpaceOnUse" x="51" y="51" width="398" height="398">
<path d="M250 448.5C359.629 448.5 448.5 359.629 448.5 250C448.5 140.371 359.629 51.5 250 51.5C140.371 51.5 51.5 140.371 51.5 250C51.5 359.629 140.371 448.5 250 448.5Z" fill="white"/>
</mask>
<g mask="url(#mask3_201_661)">
<path d="M207.9 475.9C209.9 453.5 211.9 431 213.9 408.6C214.9 397.3 215.9 386.1 216.9 374.8C217.9 363.9 218.7 353 219.9 342.1C220.9 332.4 222.5 322.3 227.5 313.7C231.4 307 238 301 245.8 299.5C249.9 298.7 254.5 299 258 301.4C261.7 303.9 263.2 308.2 264.2 312.4C265.4 317.5 266.2 322.7 267.2 327.9C268.3 333.4 269.3 338.9 270.4 344.4C271.5 349.9 272.5 355.4 273.6 360.9C274.5 365.7 275.2 370.8 277.3 375.4C279.1 379.4 282.3 382.8 286.6 383.9C291.2 385.1 295.7 383.3 298.9 379.7C302 376.2 304.1 371.6 306.1 367.4C308.1 363 309.9 358.4 311.4 353.8C314.6 344.4 317.1 334.8 320.2 325.4C323 316.8 326.2 308.2 331.3 300.6C335.6 294.2 341.7 288.4 349.4 286.6C357.3 284.8 365.5 287.3 372 291.8C379.3 296.8 384.6 303.8 388 311.9C391.8 321 393.2 330.9 393.9 340.7C394.7 351.3 395 362 395.4 372.6C396.4 395.1 397.4 417.6 398.4 440.1C398.6 445.6 398.9 451.1 399.1 456.5C399.2 458.8 403.8 457 403.7 454.9C402.7 432 401.7 409.1 400.7 386.1C400.2 374.7 399.7 363.3 399.2 352C398.8 342 398.3 331.8 396.2 322C394.2 312.9 390.8 303.9 384.7 296.7C379.2 290.3 371.9 285 363.5 283.1C354.8 281.1 346 282.9 338.7 287.9C331.5 292.8 326.3 300.3 322.5 308C313.8 325.6 310.9 345.4 303.3 363.5C301.4 368 299.3 372.7 296.5 376.7C295.5 378.1 294.2 379.7 292.5 380.2C290.8 380.6 288.9 380.1 287.3 379.3C283.2 377.1 281.2 372.6 280.1 368.2C278.8 363 277.9 357.6 276.9 352.3C274.7 341.1 272.5 329.9 270.4 318.8C269.5 314.1 268.9 309.2 267 304.8C265.2 300.5 261.9 297.4 257.4 296.1C248.6 293.5 239.2 296.9 232.4 302.5C225 308.5 220.5 316.9 218.1 326C215.3 336.1 214.8 346.8 213.9 357.2C212.9 368.6 211.9 380 210.8 391.5C208.8 414.3 206.7 437 204.7 459.8C204.2 465.3 203.7 470.9 203.2 476.4C203.1 479.2 207.7 477.9 207.9 475.9Z" fill="white"/>
</g>
<mask id="mask4_201_661" style="mask-type:luminance" maskUnits="userSpaceOnUse" x="51" y="51" width="398" height="398">
<path d="M250 448.5C359.629 448.5 448.5 359.629 448.5 250C448.5 140.371 359.629 51.5 250 51.5C140.371 51.5 51.5 140.371 51.5 250C51.5 359.629 140.371 448.5 250 448.5Z" fill="white"/>
</mask>
<g mask="url(#mask4_201_661)">
<path d="M294.4 40.6C297.8 78.6 294.7 116.8 297.6 154.8C298.3 164.2 299.4 173.6 301 182.8C302.3 190.6 303.6 199 307.1 206.2C309.9 212.1 315.2 217.5 322.2 217.4C329.2 217.3 334.3 211.9 337.5 206.2C341.6 198.8 343.5 190.3 345.7 182.3C348.1 173.8 350.6 165.3 354.6 157.4C358.1 150.5 362.9 143.9 369.1 139.2C372.3 136.8 376.3 134.3 380.5 134.4C384.6 134.4 387.6 137.3 390 140.3C395.3 146.6 398.5 154.3 400.9 162.2C403.5 170.9 405.2 179.9 406.6 188.8C409.6 207.9 410.7 227.3 411.7 246.7C413.8 286.1 415.5 325.6 416.6 365.1C416.7 369.9 416.9 374.8 417 379.6C417.1 381.8 421.6 383.7 421.5 380.8C420.5 341.2 419 301.6 416.9 262.1C415.9 242.8 415.1 223.4 412.9 204.2C411.8 194.8 410.4 185.4 408.5 176.1C406.7 167.7 404.6 159.3 401.1 151.4C397.9 144.2 393.1 136.2 386 132.2C378.3 127.8 369.8 132 363.7 137.2C350.7 148.2 345.4 165 341 180.8C338.8 188.7 337 197.2 332.8 204.3C329.7 209.4 324.1 215.3 317.6 212.8C311.8 210.6 309.5 202.9 308.2 197.5C305.9 188.3 304.4 179 303.3 169.6C298.9 131.8 301.8 93.7 299.8 55.9C299.6 51.3 299.2 46.6 298.8 42C298.7 40.8 297.7 39.7 296.5 39.4C295.7 39 294.3 39.4 294.4 40.6Z" fill="white"/>
</g>
<mask id="mask5_201_661" style="mask-type:luminance" maskUnits="userSpaceOnUse" x="51" y="51" width="398" height="398">
<path d="M250 448.5C359.629 448.5 448.5 359.629 448.5 250C448.5 140.371 359.629 51.5 250 51.5C140.371 51.5 51.5 140.371 51.5 250C51.5 359.629 140.371 448.5 250 448.5Z" fill="white"/>
</mask>
<g mask="url(#mask5_201_661)">
<path d="M354.2 29.9001C355.5 58.8001 357.1 87.6001 359 116.5C359.9 130.6 360.7 144.6 362 158.6C363.3 172.2 365.2 185.8 368.8 198.9C370.4 204.6 372 210.5 375.6 215.3C378.8 219.5 383.9 222.3 389.1 220C391.8 218.8 393.9 216.5 395.5 214C397.2 211.6 398.6 209 400 206.4C402.6 201.2 404.6 195.7 406.2 190.1C409.4 178.7 411 167 413.3 155.5C414.4 149.8 415.7 144.2 417.4 138.7C418.9 133.8 420.7 128.4 424.5 124.6C433.8 115.4 442.8 131.6 446 138.8C450.9 150 452.6 162.3 453.7 174.3C454 177.3 454.2 180.2 454.4 183.2C454.6 186.2 459.5 185.2 459.3 182.3C458.4 170 457.3 157.6 453.8 145.7C452.1 139.8 449.7 134.1 446.5 128.9C443.6 124.1 439.7 119 434 117.6C428.3 116.2 423.1 118.8 419.5 123.2C416 127.5 414.2 132.8 412.6 138C409.1 149.3 407.4 161.1 405.2 172.7C403.1 184 400.4 195.4 395 205.7C393.7 208.2 392.2 210.7 390.5 212.9C389.2 214.6 387.4 216.3 385.2 216.1C380.8 215.7 377.9 210.1 376.4 206.5C374 200.5 372.4 194.1 371.1 187.7C369.7 181 368.6 174.2 367.8 167.3C366.1 153.5 365.4 139.6 364.5 125.8C362.6 97.0001 361 68.1001 359.6 39.2001C359.4 35.7001 359.3 32.2001 359.1 28.7001C359 26.1001 354.1 27.1001 354.2 29.9001Z" fill="white"/>
</g>
<mask id="mask6_201_661" style="mask-type:luminance" maskUnits="userSpaceOnUse" x="51" y="51" width="398" height="398">
<path d="M250 448.5C359.629 448.5 448.5 359.629 448.5 250C448.5 140.371 359.629 51.5 250 51.5C140.371 51.5 51.5 140.371 51.5 250C51.5 359.629 140.371 448.5 250 448.5Z" fill="white"/>
</mask>
<g mask="url(#mask6_201_661)">
<path d="M185.2 47.1C186.2 81.8 184.5 116.6 180.1 151.1C179.3 157.4 178.9 164.6 175.2 170.1C173.5 172.7 170.9 174.7 167.8 175.3C166.4 175.6 164.9 175.5 163.5 175.2C161.8 174.8 160.7 174 159.5 172.8C154.2 167.4 153.2 159.2 152.1 152.1C151.1 145.4 150 137.4 145.1 132.3C142.9 130.1 139.6 128.2 136.6 127.7C133.3 127.1 129.9 128.5 127.1 130.1C122.1 133.1 118.2 137.6 115.4 142.8C109.3 153.9 108 167 106.7 179.5C103.1 214.2 100.2 248.9 97.8999 283.7C95.5999 318.5 94.0999 353.3 93.1999 388.2C93.0999 392.4 92.9999 396.6 92.8999 400.8C92.8999 401.3 94.5999 402 94.9999 402.2C95.1999 402.3 97.3999 403.2 97.3999 403.1C98.0999 368.2 99.4999 333.4 101.6 298.6C103.7 263.7 106.5 228.8 109.9 194C111.3 180.2 111.9 165.8 116.5 152.7C118.5 147.2 121.2 141.8 125.3 137.5C127.4 135.3 129.8 133.4 132.4 132C134.1 131.1 135.8 130.4 137.7 130.1C138.4 130 139.2 130 139.9 130C140.2 130 140.5 130.1 140.7 130.1C140.2 129.7 140.1 129.8 140.6 130.1C140.9 130.6 141.4 131 141.8 131.4C150.7 143.1 144.7 161.1 156.1 171.5C160.3 175.3 167.2 179 173 177.4C179 175.8 181.7 169.6 182.9 164.1C184.7 156.3 185.2 148.2 186.1 140.2C187 131.6 187.8 123 188.4 114.4C189.6 97.1 190.1 79.7 189.9 62.3C189.9 58 189.8 53.7 189.7 49.4C189.7 48.8 188 48.2 187.6 48C187.4 47.9 185.2 47 185.2 47.1Z" fill="white"/>
</g>
<mask id="mask7_201_661" style="mask-type:luminance" maskUnits="userSpaceOnUse" x="51" y="51" width="398" height="398">
<path d="M250 448.5C359.629 448.5 448.5 359.629 448.5 250C448.5 140.371 359.629 51.5 250 51.5C140.371 51.5 51.5 140.371 51.5 250C51.5 359.629 140.371 448.5 250 448.5Z" fill="white"/>
</mask>
<g mask="url(#mask7_201_661)">
<path d="M59.2001 396.3C58.9001 366.1 58.7001 335.8 61.9001 305.7C63.5001 290.9 65.9 276.1 69.7 261.7C72.7001 249.9 76.1001 233.8 88.8001 228.7C91.2001 227.7 94.6001 226.8 97.1001 227.9C99.7001 229 101.7 231.4 103.2 233.7C106.4 238.7 107.6 244.7 111.1 249.6C114.6 254.5 120 257.8 126.1 257.7C132.2 257.6 136.5 251.9 139.1 247C142.1 241.4 143.5 235.1 144.7 228.9C146.1 221.4 147.3 213.9 148.5 206.4C151 191 153.2 175.5 155.1 159.9C158.8 128.7 160.8 97.2 159.7 65.8C159.6 62 159.4 58.2 159.2 54.4C159.1 53.3 154.3 52.9 154.3 53.3C156.2 84.7 154.8 116.2 151.5 147.5C149.9 163.1 147.8 178.6 145.4 194C144.2 201.7 143 209.3 141.7 217C140.6 223.8 139.6 230.7 137.7 237.3C135.9 243.3 133.1 249.7 128.2 253.8C127 254.8 125.7 255.6 124.2 255.9C122.6 256.3 122.1 256.1 120.6 255.1C118 253.4 116 250.8 114.5 248.1C111.6 243 110.4 237.1 106.7 232.5C103 227.9 97.1001 225.8 91.3001 226C85.6001 226.1 80.4001 228.8 76.6001 233C72.2001 237.9 69.8001 244.2 67.9001 250.4C63.6001 264.6 60.6001 279.2 58.6001 293.9C54.5001 323.9 54.2001 354.2 54.4001 384.4C54.4001 388.1 54.5001 391.7 54.5001 395.4C54.3001 396.3 59.2001 396.8 59.2001 396.3Z" fill="white"/>
</g>
<mask id="mask8_201_661" style="mask-type:luminance" maskUnits="userSpaceOnUse" x="51" y="51" width="398" height="398">
<path d="M250 448.5C359.629 448.5 448.5 359.629 448.5 250C448.5 140.371 359.629 51.5 250 51.5C140.371 51.5 51.5 140.371 51.5 250C51.5 359.629 140.371 448.5 250 448.5Z" fill="white"/>
</mask>
<g mask="url(#mask8_201_661)">
<path d="M125.6 76.5001C125.6 104 125.5 131.5 125.5 158.9C125.5 165.7 125.5 172.5 125.5 179.3C125.5 185.5 125 192.2 127.4 198.1C129.2 202.6 133 206.1 137.8 207.1C140.5 207.6 143.3 207.4 146 206.7C148.7 205.9 151.1 204.3 153.7 203.4C160.3 201 160.4 211.4 160.8 215.5C161.4 222.2 161.5 228.9 161.4 235.5C161.2 249.1 160.2 262.8 159.2 276.4C157.1 303.7 154 331 150.7 358.2C147.5 385.3 144.2 412.3 141 439.4C140.6 442.8 140.2 446.3 139.8 449.7C139.7 450.5 144.7 450.7 144.8 449.6C148.1 422.4 151.3 395.2 154.6 368.1C157.8 341 161.1 313.9 163.4 286.7C164.6 273.1 165.5 259.4 166.1 245.7C166.4 238.9 166.6 232.1 166.4 225.3C166.3 222 166.1 218.7 165.8 215.5C165.5 212.5 165.4 209.2 164.4 206.4C162.7 201.5 156.8 201.2 152.4 202C149.7 202.5 147.4 203.8 144.9 204.9C143.7 205.5 142.1 206.3 140.7 206.1C139.4 205.9 138.1 205.1 137 204.3C132.2 200.7 130.8 194.8 130.5 189.1C130.1 182.4 130.4 175.6 130.4 168.9C130.4 141.5 130.5 114.2 130.5 86.8001C130.5 83.3001 130.5 79.9001 130.5 76.4001C130.6 75.4001 125.6 75.4001 125.6 76.5001Z" fill="white"/>
</g>
<mask id="mask9_201_661" style="mask-type:luminance" maskUnits="userSpaceOnUse" x="51" y="51" width="398" height="398">
<path d="M250 448.5C359.629 448.5 448.5 359.629 448.5 250C448.5 140.371 359.629 51.5 250 51.5C140.371 51.5 51.5 140.371 51.5 250C51.5 359.629 140.371 448.5 250 448.5Z" fill="white"/>
</mask>
<g mask="url(#mask9_201_661)">
<path d="M318.9 58.6998C317.7 88.6998 316.5 118.7 316.6 148.7C316.6 163.7 316.9 178.8 317.7 193.8C318.1 201.2 318.6 208.6 319.2 216.1C319.7 222.2 320.6 228.6 324 233.9C331.1 244.7 345.4 246.3 357 243.7C360.4 243 363.8 241.9 367.1 240.8C370.3 239.7 373.7 238.2 377.2 238.5C382.7 238.9 385.9 244 387.5 248.8C389.5 255.1 390.2 261.9 390.9 268.4C391.7 275.8 392.1 283.2 392.3 290.6C392.8 305.6 392.8 320.7 393 335.8C393.4 366 393.7 396.1 394.1 426.3C394.1 430.1 394.2 433.8 394.2 437.6C394.2 440.5 398.9 439.5 398.9 437.1C398.5 406.9 398.2 376.8 397.8 346.6C397.6 331.4 397.5 316.3 397.2 301.1C397 286.3 396.5 271.5 394.2 256.9C393.4 251.5 392.4 245.8 389.4 241.1C386.3 236.3 381.4 233.8 375.6 234.4C372.2 234.8 368.9 236 365.7 237.2C362.3 238.4 358.9 239.4 355.4 240.1C349.1 241.2 342.5 241.1 336.6 238.4C330.9 235.8 327 231 325.3 224.9C323.5 218.4 323.4 211.4 322.9 204.8C321.9 189.8 321.3 174.7 321.1 159.6C320.7 129.6 321.8 99.5998 322.9 69.5998C323 65.8998 323.2 62.0998 323.3 58.3998C323.7 55.2998 319 56.2998 318.9 58.6998Z" fill="white"/>
</g>
<mask id="mask10_201_661" style="mask-type:luminance" maskUnits="userSpaceOnUse" x="51" y="51" width="398" height="398">
<path d="M250 448.5C359.629 448.5 448.5 359.629 448.5 250C448.5 140.371 359.629 51.5 250 51.5C140.371 51.5 51.5 140.371 51.5 250C51.5 359.629 140.371 448.5 250 448.5Z" fill="white"/>
</mask>
<g mask="url(#mask10_201_661)">
<path d="M228.3 480C228.7 459.6 229.2 439.2 229.6 418.8C229.8 409 229.4 398.9 230.7 389.1C231.8 381 235 373 242.7 369.2C246 367.5 250 366.9 253.4 368.6C256.5 370.1 258.5 373.2 259.8 376.2C263 383.5 263.4 391.9 264.6 399.8C265.8 408.3 267.5 417.3 271.9 424.8C273.7 427.9 276.7 430.5 280.4 430.7C283.7 430.9 287 429.1 289 426.5C291.6 423.2 292 418.6 292.2 414.6C292.4 409.6 292.5 404.7 292.6 399.7C292.9 389.6 293.1 379.5 293.4 369.5C293.9 348.9 294.5 328.3 295 307.7C296.1 266.8 297.1 225.9 298.2 185C299.3 144.1 300.3 103.2 301.4 62.3C301.5 57.3 301.7 52.2 301.8 47.2C301.9 45.2 297.4 43.4 297.3 46.1C296.2 87 295.2 127.9 294.1 168.8C293 209.7 292 250.6 290.9 291.5C290.4 311.9 289.8 332.4 289.3 352.8C289 363.2 288.8 373.5 288.5 383.9C288.2 394 288.3 404.3 287.7 414.4C287.4 418.4 286.6 423 283.1 425.4C281.8 426.3 279.9 427.1 278.3 426.7C276.4 426.1 275.4 423.6 274.6 422C270.8 413.9 269.6 404.9 268.4 396.1C267.4 388.5 266.5 380.6 262.7 373.8C259.3 367.6 253 363.2 245.7 363.9C238.3 364.6 232.1 370.1 229.1 376.8C225.5 384.9 225.6 394 225.5 402.7C225.1 423.1 224.6 443.5 224.2 463.9C224.1 468.9 224 474 223.9 479C223.8 480.9 228.2 482.8 228.3 480Z" fill="white"/>
</g>
<mask id="mask11_201_661" style="mask-type:luminance" maskUnits="userSpaceOnUse" x="51" y="51" width="398" height="398">
<path d="M250 448.5C359.629 448.5 448.5 359.629 448.5 250C448.5 140.371 359.629 51.5 250 51.5C140.371 51.5 51.5 140.371 51.5 250C51.5 359.629 140.371 448.5 250 448.5Z" fill="white"/>
</mask>
<g mask="url(#mask11_201_661)">
<path d="M226.7 40.1001C221.2 83.9001 217.3 127.9 214.9 171.9C213.7 194.1 212.8 216.3 212.4 238.5C212.3 242.4 212.5 246.6 210.3 250C209.9 250.6 209.4 251.2 208.9 251.6C208.6 251.8 208.2 252.1 207.8 252.1C208.6 252 208.5 252.2 208.1 251.6C206.9 249.5 205.5 247.6 204.4 245.3C200.6 237.3 198.9 228.6 197.9 219.8C196 202.3 196.9 184.1 190.6 167.4C189.2 163.8 187.8 160.1 183.7 159C179.3 157.9 175.9 160.6 172.6 163.2C166.1 168.4 161 175.1 157.2 182.5C148.2 199.9 147.1 219.7 147.2 238.9C147.3 249.9 147.6 260.8 147.2 271.8C146.8 282.4 145.9 292.9 144.7 303.4C139.9 345.8 130 387.4 126 429.8C125.5 434.9 125.1 440.1 124.8 445.2C124.7 446.5 129.7 447.1 129.7 446C132.1 403.4 141.7 361.7 147.6 319.5C150.6 298.2 152.4 276.9 152.2 255.4C152 235.1 150.9 214.1 157.3 194.5C160 186.2 164 178.3 169.7 171.6C172.3 168.5 175.3 165.7 178.6 163.2C179.4 162.6 180.3 162 181.1 161.5C181.3 161.4 181.5 161.3 181.6 161.2C182.7 160.9 182.7 160.7 181.8 160.5C182.1 160.7 182.5 161.1 182.7 161.4C184.1 163.1 184.8 165.4 185.6 167.4C191.9 184.4 190.7 202.9 192.9 220.6C193.9 229.2 195.8 237.7 199.6 245.5C201.4 249.1 203.2 252.8 207.5 253.7C210.8 254.4 213.4 253.4 215.1 250.5C217.2 246.8 217 242.6 217.1 238.4C217.2 233.1 217.3 227.7 217.5 222.4C217.8 211.2 218.2 199.9 218.8 188.7C220.9 144.6 224.4 100.6 229.5 56.8001C230.1 51.5001 230.8 46.2001 231.4 40.9001C231.8 39.6001 226.9 38.9001 226.7 40.1001Z" fill="white"/>
</g>
<mask id="mask12_201_661" style="mask-type:luminance" maskUnits="userSpaceOnUse" x="51" y="51" width="398" height="398">
<path d="M250 448.5C359.629 448.5 448.5 359.629 448.5 250C448.5 140.371 359.629 51.5 250 51.5C140.371 51.5 51.5 140.371 51.5 250C51.5 359.629 140.371 448.5 250 448.5Z" fill="white"/>
</mask>
<g mask="url(#mask12_201_661)">
<path d="M52.2001 165.9C54.0001 151.8 61.5001 138.6 72.6001 129.7C71.3001 129.4 70.0001 129.1 68.8001 128.8C78.8001 144.2 76.9001 163.8 76.5001 181.3C75.9001 202.6 75.4001 223.9 74.8001 245.2C74.5001 257.2 74.2001 269.2 73.9001 281.2C73.9001 283 76.0001 284 77.5001 283.5C87.6001 280.5 89.7001 268.4 90.4001 259.4C91.4001 244.9 92.4001 230.3 93.6001 215.8C96.0001 186.5 99.1001 157.3 102.8 128.1C104.9 111.7 107.2 95.3998 109.6 78.9998C110 76.2998 105.1 75.4998 104.7 78.3998C100.4 107 96.6001 135.6 93.5001 164.4C90.4001 193.1 87.9001 221.9 86.0001 250.8C85.6001 256.9 85.6001 263.2 83.8001 269.1C82.5001 273.7 80.1001 278.1 75.2001 279.6C76.4001 280.4 77.6001 281.1 78.8001 281.9C79.4001 260.3 79.9001 238.8 80.5001 217.2C80.8001 206.5 81.1001 195.7 81.3001 185C81.6001 175.4 82.1001 165.7 81.4001 156.1C80.7001 146 78.6001 135.9 73.1001 127.3C72.3001 126.1 70.5001 125.4 69.3001 126.4C57.3001 136.1 49.3001 150.2 47.3001 165.5C46.9001 168 51.8001 168.8 52.2001 165.9Z" fill="white"/>
</g>
</svg>
