<svg width="500" height="500" viewBox="0 0 500 500" fill="none" xmlns="http://www.w3.org/2000/svg">
<g clip-path="url(#clip0_201_753)">
<mask id="mask0_201_753" style="mask-type:luminance" maskUnits="userSpaceOnUse" x="51" y="51" width="398" height="398">
<path d="M250 448.5C359.629 448.5 448.5 359.629 448.5 250C448.5 140.371 359.629 51.5 250 51.5C140.371 51.5 51.5 140.371 51.5 250C51.5 359.629 140.371 448.5 250 448.5Z" fill="white"/>
</mask>
<g mask="url(#mask0_201_753)">
<path d="M99.9999 90.9C111.7 77.1 123.3 63.3 135 49.5C133.4 49.4 131.8 49.2 130.3 49.1C130.6 59.6 130.9 70.1 131.1 80.5C131.4 90.4 131.7 100.2 133.2 110C134.1 115.4 135.3 120.8 137.1 126C137.7 127.6 141 127.3 141.7 125.9C153.9 101.7 166.2 77.5 178.4 53.3C181.9 46.4 185.3 39.6 188.8 32.7C187.2 32.6 185.6 32.4 184.1 32.3C188.2 55.7 186.3 79.8 191.2 103.2C192.6 109.7 194.5 116 197.1 122.1C197.8 123.8 201.5 123.4 201.9 121.6C207.4 97.7 213 73.8 218.5 49.9C220.1 43.1 221.6 36.3 223.2 29.5C221.6 29.5 219.9 29.5 218.3 29.5C219 53.6 220.8 77.6 223.6 101.5C224.4 108.3 225.3 115 226.2 121.8C226.5 123.9 230 123.6 230.9 122.2C237.9 112.1 241 100 244.5 88.4C248.4 75.3 252.3 62.3 256.2 49.2C258.4 41.7 260.6 34.3 262.9 26.8C261.3 26.8 259.6 26.8 258 26.8C258.9 47.7 259.7 68.8 264.1 89.4C265.3 95.1 266.8 100.8 268.6 106.4C268.9 107.3 270.4 107.5 271.1 107.4C272 107.3 273 106.8 273.4 105.9C280.4 85.6 286.1 64.8 290.5 43.8C291.7 37.9 292.9 31.9 293.9 26C292.3 26 290.6 26 289 26C290.8 50.3 292.7 74.8 299.9 98.3C300.5 100.2 304.2 99.4 304.7 97.8C311.4 75.9 315.6 53.3 317.3 30.5C315.6 30.7 314 30.8 312.3 31C313.7 51.9 315.2 72.9 320.9 93.1C322.5 98.8 324.5 104.4 326.8 109.9C327.5 111.6 331.2 111.2 331.6 109.4C336.7 84.9 339.6 60 340.5 35C338.8 35.2 337.2 35.3 335.5 35.5C337.2 56.9 339 78.4 345.3 99C347.1 104.8 349.2 110.5 351.7 116C352.5 117.7 356.1 117.3 356.5 115.5C361.7 90.8 366.5 66.1 370.7 41.2C371.9 34.1 373.1 27 374.2 19.9C372.6 19.9 370.9 19.9 369.3 19.9C368.2 41.7 369.6 63.7 373.5 85.2C374.6 91.3 375.9 97.5 377.4 103.5C377.9 105.7 381.6 105.3 382.3 103.5C390.9 81.7 398.2 59.4 404.4 36.7C405.1 34.3 400.1 34.1 399.5 36.3C393.4 58.9 386 81.2 377.4 103.1C379 103.1 380.7 103.1 382.3 103.1C377.1 81.9 374.2 60.1 373.9 38.2C373.8 32 373.9 25.7 374.2 19.5C374.3 17.4 369.6 17.6 369.3 19.5C365.4 44.4 361 69.2 356 93.9C354.6 101 353.1 108 351.6 115.1C353.2 114.9 354.8 114.8 356.4 114.6C347.5 95.2 344.1 74.1 342.1 53C341.5 47 341 41 340.5 34.9C340.3 32.5 335.6 33.1 335.5 35.4C334.7 60.1 331.7 84.6 326.7 108.8C328.3 108.6 329.9 108.5 331.5 108.3C323.3 89.2 320.3 68.5 318.5 48C318 42.1 317.6 36.2 317.2 30.3C317 27.9 312.4 28.5 312.2 30.8C310.5 53.3 306.3 75.6 299.7 97.2C301.3 97 302.9 96.9 304.5 96.7C297.4 73.6 295.7 49.3 293.9 25.3C293.7 23.1 289.3 23.4 289 25.3C285.4 46.5 280.4 67.4 274.1 87.9C272.3 93.7 270.5 99.4 268.5 105.2C270.1 105 271.7 104.9 273.3 104.7C267 85 264.9 64.3 263.8 43.8C263.5 37.9 263.2 32 263 26C262.9 23.7 258.6 24.2 258.1 26C254.2 39 250.4 51.9 246.5 64.9C242.8 77.4 239.4 90 235.2 102.4C233.1 108.8 230.4 114.9 226.6 120.4C228.2 120.5 229.8 120.7 231.3 120.8C227.9 97 225.6 73 224.3 48.9C223.9 42.1 223.6 35.3 223.4 28.4C223.3 26.2 218.9 26.6 218.5 28.4C213 52.3 207.4 76.2 201.9 100.1C200.3 106.9 198.8 113.7 197.2 120.5C198.8 120.3 200.4 120.2 202 120C192.6 98.3 193.3 74.1 191.6 50.9C191.1 44.3 190.4 37.7 189.3 31.1C189 29.2 185.4 29.1 184.6 30.7C172.4 54.9 160.1 79.1 147.9 103.3C144.4 110.2 141 117 137.5 123.9C139 123.9 140.6 123.9 142.1 123.8C135.7 105.3 136.5 85 136 65.7C135.8 59.7 135.7 53.8 135.5 47.8C135.5 46.9 134.3 46.4 133.5 46.3C132.4 46.2 131.5 46.6 130.8 47.4C119.1 61.2 107.5 75 95.7999 88.8C94.9999 89.7 96.0999 90.8 96.8999 91.1C97.8999 92.3 99.1999 91.9 99.9999 90.9Z" fill="white"/>
</g>
<mask id="mask1_201_753" style="mask-type:luminance" maskUnits="userSpaceOnUse" x="51" y="51" width="398" height="398">
<path d="M250 448.5C359.629 448.5 448.5 359.629 448.5 250C448.5 140.371 359.629 51.5 250 51.5C140.371 51.5 51.5 140.371 51.5 250C51.5 359.629 140.371 448.5 250 448.5Z" fill="white"/>
</mask>
<g mask="url(#mask1_201_753)">
<path d="M90 155.4C98 135.5 106.3 115.7 115.1 96.2C113.7 95.8 112.3 95.4 111 95.1C115.6 115.9 119.1 136.9 121.5 158C122.2 164.1 122.8 170.1 123.3 176.2C123.4 177.4 124 178.5 125.2 178.9C126.3 179.2 127.4 178.6 127.7 177.5C133.6 156.4 142.4 136.2 153.9 117.6C157.2 112.3 160.7 107 164.4 102C163 101.4 161.6 100.8 160.2 100.2C161.7 116.9 163.1 133.5 164.6 150.2C164.7 151.4 165.3 152.5 166.5 152.9C167.6 153.2 168.7 152.6 169 151.5C174.7 130.6 178.7 109.2 181 87.6C179.5 87.4 178 87.2 176.5 87C176.9 110.3 179.8 133.7 185.1 156.4C186.6 162.8 188.3 169.2 190.2 175.5C190.5 176.5 191.2 177.5 192.3 177.6C193.3 177.7 194.3 177.1 194.5 176.1C200.3 151.3 206.1 126.5 212 101.7C210.5 101.5 209.1 101.3 207.6 101.1C209.8 120.9 211.9 140.6 214.1 160.4C214.3 162.6 218 163.5 218.5 161C221.9 143.6 225.4 126.1 228.8 108.7C227.3 108.5 225.9 108.3 224.4 108.1C228.9 126.7 234.2 145.1 240.4 163.3C241.1 165.4 243.8 166.4 244.8 163.9C249 153.7 251.1 142.9 253.1 132.2C255.2 120.7 257.3 109.2 259.5 97.7C260.7 91.2 261.9 84.7 263.1 78.2C261.6 78 260.2 77.8 258.7 77.6C263.8 101.3 268.9 125 274 148.7C275.4 155.4 276.9 162.1 278.3 168.8C278.7 170.8 282.1 172 282.7 169.4C287.5 147.9 292.3 126.4 297.1 105C298.5 98.8 299.9 92.6 301.3 86.5C299.8 86.3 298.4 86.1 296.9 85.9C302 111.1 307.1 136.4 312.1 161.6C312.5 163.6 316 164.8 316.5 162.2C320.7 138.7 324.9 115.2 329.1 91.7C327.6 91.5 326.2 91.3 324.7 91.1C327.8 112.7 331 134.6 340.2 154.6C341 156.4 343.7 156.6 344.4 154.6C349.8 138.1 355.3 121.5 360.7 105C359.2 104.8 357.8 104.6 356.3 104.4C359.8 124.6 363.4 145 371.5 164C372.3 165.8 375.1 166.1 375.7 164C380.6 143.7 385.5 123.3 390.3 103C388.8 102.8 387.4 102.6 385.9 102.4C389.6 117.1 395 131.2 402.1 144.6C403 146.4 405.5 146.7 406.3 144.6C408.4 138.3 410.6 132.1 412.7 125.8C413.6 123.1 409.4 120.9 408.4 124C406.3 130.3 404.1 136.5 402 142.8C403.4 142.8 404.8 142.8 406.2 142.8C399.3 129.9 394 116.1 390.4 101.9C389.9 99.9 386.7 98.7 386 101.3C381.1 121.6 376.2 142 371.4 162.3C372.8 162.3 374.2 162.3 375.6 162.3C367.7 143.8 364.2 123.8 360.9 104C360.5 101.7 357.3 101 356.5 103.4C351.1 119.9 345.6 136.5 340.2 153C341.6 153 343 153 344.4 153C335.4 133.4 332.3 111.9 329.3 90.8C329 88.7 325.4 87.7 324.9 90.2C320.7 113.7 316.5 137.2 312.3 160.7C313.8 160.9 315.2 161.1 316.7 161.3C311.6 136.1 306.5 110.8 301.5 85.6C301.1 83.5 297.7 82.4 297.1 85C292.3 106.5 287.5 128 282.7 149.4C281.3 155.6 279.9 161.8 278.5 167.9C280 168.1 281.4 168.3 282.9 168.5C277.8 144.8 272.7 121.1 267.6 97.4C266.2 90.7 264.7 84 263.3 77.3C262.9 75.3 259.4 74.1 258.9 76.7C256.8 88.2 254.6 99.7 252.5 111.2C250.4 122.4 248.6 133.6 246.1 144.7C244.7 150.7 243 156.6 240.6 162.4C242.1 162.6 243.5 162.8 245 163C238.8 144.9 233.5 126.5 229 107.8C228.5 105.8 225.1 104.5 224.6 107.2C221.2 124.6 217.7 142.1 214.3 159.5C215.8 159.7 217.2 159.9 218.7 160.1C216.5 140.3 214.4 120.6 212.2 100.8C212 98.6 208.4 97.8 207.8 100.2C202 125 196.2 149.8 190.3 174.6C191.8 174.8 193.2 175 194.7 175.2C188.1 153.2 183.7 130.4 182 107.4C181.5 100.9 181.2 94.4 181.1 87.9C181.1 85 176.9 84 176.6 87.3C174.4 108.5 170.5 129.4 164.8 150C166.3 150.4 167.8 150.8 169.2 151.2C167.7 134.5 166.3 117.9 164.8 101.2C164.6 99.1 162.2 97.3 160.6 99.4C147.4 117.4 136.8 137.2 129.2 158.1C127 164 125.1 170 123.4 176C124.9 176.4 126.4 176.8 127.8 177.2C126 155.7 123.1 134.3 119.1 113.1C117.9 107 116.7 100.9 115.4 94.8C115 93.2 112.2 91.5 111.3 93.7C102.4 113.6 93.9 133.8 85.8 154C84.6 156.2 88.8 158.3 90 155.4Z" fill="white"/>
</g>
<mask id="mask2_201_753" style="mask-type:luminance" maskUnits="userSpaceOnUse" x="51" y="51" width="398" height="398">
<path d="M250 448.5C359.629 448.5 448.5 359.629 448.5 250C448.5 140.371 359.629 51.5 250 51.5C140.371 51.5 51.5 140.371 51.5 250C51.5 359.629 140.371 448.5 250 448.5Z" fill="white"/>
</mask>
<g mask="url(#mask2_201_753)">
<path d="M57.9999 189.3C68.8999 171 78.6999 152 87.2999 132.5C85.9999 132.2 84.6999 131.9 83.3999 131.6C86.9999 135.7 87.1999 141.7 87.7999 146.9C88.5999 153.3 89.2999 159.7 90.0999 166.1C91.6999 179 93.1999 192 94.7999 204.9C94.9999 206.5 98.6999 208.5 99.2999 206.4C106.1 182.3 113 158.3 119.8 134.2C118.3 133.7 116.8 133.2 115.3 132.7C117.8 153 120.3 173.4 126.6 193C127 194.4 130.3 196.7 131.1 194.5C139.2 170.2 147.2 146 155.3 121.7C153.8 121.2 152.3 120.7 150.8 120.2C155.9 141.3 161 162.4 166 183.6C166.4 185.1 168.6 186.6 170.1 185.7C174.8 183 176.1 177.1 177.7 172.3C179.9 165.9 182 159.5 184.2 153.1C188.6 140 193 127 197.4 113.9C195.9 113.4 194.4 112.9 192.9 112.4C197.4 136.6 201.8 160.8 208.1 184.6C208.5 186 210.8 187.7 212.2 186.7C216.2 184 218.2 179.8 219.6 175.3C221.4 169.6 222.6 163.7 224 158C227.1 145.3 230.3 132.6 233.4 119.9C231.9 119.4 230.4 118.9 228.9 118.4C231.9 140.2 236.5 161.7 242.6 182.9C243 184.2 246.6 186.7 247.1 184.4C251.1 163.4 255.2 142.3 263.5 122.4C262 121.6 260.6 120.9 259.1 120.1C259.5 144.3 263.6 168.3 271.4 191.3C271.8 192.6 275.2 195.1 275.9 192.8C282.1 169.7 288.4 146.5 298.2 124.6C296.8 124 295.3 123.4 293.9 122.8C297.4 142.8 302.1 162.5 307.9 182C308.2 183.1 311.4 185.8 312.2 183.8C320.7 163.7 328.6 143.3 335.8 122.6C334.3 122.1 332.8 121.6 331.3 121.1C335.2 141.6 339.1 162.2 346.2 181.9C346.6 183.1 350.2 185.8 350.7 183.4C354.7 164.4 358.7 145.4 362.7 126.4C361.2 125.9 359.7 125.4 358.2 124.9C362.8 143.5 367.4 162.1 371.9 180.8C372.3 182.3 375.7 184.5 376.4 182.3C383.7 159.3 389 135.8 394.4 112.4C392.9 111.9 391.4 111.4 389.9 110.9C392.9 132.6 397.8 153.9 404.7 174.7C405 175.7 408.2 178.5 409 176.5C416.6 158.6 421.8 139.7 424.2 120.4C424.4 118.5 420 116.3 419.7 118.5C417.3 137.5 412.3 156.2 404.7 173.8C406.1 174.4 407.6 175 409 175.6C402.1 154.8 397.2 133.5 394.2 111.8C394 110.3 390.2 108.1 389.7 110.3C384.4 133.8 379 157.3 371.7 180.2C373.2 180.7 374.7 181.2 376.2 181.7C371.6 163.1 367 144.5 362.5 125.8C362.2 124.4 358.5 122 358 124.3C354 143.3 350 162.3 346 181.3C347.5 181.8 349 182.3 350.5 182.8C343.4 163.1 339.5 142.5 335.6 122C335.3 120.4 331.9 118.4 331.1 120.5C324 140.9 316.3 161 307.8 180.9C309.2 181.5 310.7 182.1 312.1 182.7C306.3 163.3 301.6 143.5 298.1 123.5C297.9 122.3 294.6 119.9 293.8 121.7C283.9 143.8 277.5 167.3 271.3 190.7C272.8 191.2 274.3 191.7 275.8 192.2C268.1 169.6 263.9 145.8 263.5 121.9C263.5 120.8 262.7 120 261.8 119.5C261.2 119.2 259.6 118.7 259.2 119.6C250.8 139.7 246.6 161.1 242.5 182.3C244 182.8 245.5 183.3 247 183.8C240.9 162.7 236.3 141.1 233.3 119.3C233.1 117.8 229.4 115.7 228.8 117.8C225.8 130 222.7 142.2 219.7 154.4C218.3 160.1 217 165.9 215.4 171.6C214.2 176 212.3 180.5 208.4 183.2C209.8 183.9 211.1 184.6 212.5 185.3C206.2 161.5 201.8 137.3 197.3 113.1C197 111.5 193.5 109.5 192.8 111.6C188.6 124.2 184.3 136.8 180.1 149.4C178 155.6 175.9 161.8 173.8 168C172.2 172.7 171 179.4 166.4 182.1C167.8 182.8 169.1 183.5 170.5 184.2C165.4 163.1 160.3 142 155.3 120.8C154.9 119.3 151.5 117.1 150.8 119.3C142.7 143.6 134.7 167.8 126.6 192.1C128.1 192.6 129.6 193.1 131.1 193.6C124.8 174 122.3 153.6 119.8 133.3C119.6 131.7 115.9 129.7 115.3 131.8C108.5 155.9 101.6 179.9 94.7999 204C96.2999 204.5 97.7999 205 99.2999 205.5C97.6999 192.1 96.0999 178.6 94.4999 165.2C93.6999 158.5 92.8999 151.9 92.0999 145.2C91.4999 139.9 90.6999 134.4 86.9999 130.2C86.3999 129.5 83.7999 127.8 83.0999 129.3C74.4999 148.8 64.6999 167.7 53.7999 186C52.6999 188.4 56.8999 191 57.9999 189.3Z" fill="white"/>
</g>
<mask id="mask3_201_753" style="mask-type:luminance" maskUnits="userSpaceOnUse" x="51" y="51" width="398" height="398">
<path d="M250 448.5C359.629 448.5 448.5 359.629 448.5 250C448.5 140.371 359.629 51.5 250 51.5C140.371 51.5 51.5 140.371 51.5 250C51.5 359.629 140.371 448.5 250 448.5Z" fill="white"/>
</mask>
<g mask="url(#mask3_201_753)">
<path d="M42.4 235.3C52.6 217.5 61.7 199.1 69.5 180.1C68.2 179.2 66.9 178.3 65.7 177.5C70.1 200.1 74.6 222.9 83.9 244.1C84.2 244.8 87 247.5 87.4 245.8C93.6 223.4 99.9 201 106.1 178.6C104.8 177.9 103.6 177.1 102.3 176.4C107.5 195.1 112.7 213.8 118 232.5C118.2 233.3 121.1 236.6 121.8 234.7C129.3 212.3 136.8 189.9 144.3 167.6C143.1 167 141.9 166.5 140.8 165.9C145.6 176.3 145.7 188 147.5 199.1C149.4 210.5 152.7 221.5 157.4 232C157.7 232.7 160.4 235.4 160.9 233.7C168.2 212.5 175.5 191.3 182.9 170.1C181.6 169.2 180.3 168.3 179.1 167.5C182.8 187.1 188 206.4 194.6 225.2C194.9 226.1 197.4 229.1 198.4 227.4C205.1 215.4 209 202.1 209.9 188.4C208.6 187.8 207.4 187.2 206.1 186.6C210.2 202.4 214.3 218.1 218.4 233.9C218.6 234.7 221.6 238 222.2 236.1C228.7 211.9 235.3 187.7 241.8 163.6C240.5 162.7 239.2 161.8 238 161C240.1 182.6 244.8 203.9 252 224.4C252.2 225.1 255.3 228.5 255.8 226.6C261.2 203.9 265.3 181 268.2 157.8C266.9 157.1 265.7 156.3 264.4 155.6C268.1 173.1 271.9 190.6 275.6 208.1C275.8 209 278.8 212.1 279.4 210.3C285.2 192.3 291.1 174.2 296.9 156.2C295.6 155.3 294.3 154.4 293.1 153.6C296.5 171.9 299.8 190.2 303.2 208.6C303.4 209.7 304.1 210.6 305 211.2C305.5 211.5 306.8 212.2 307.1 211.2C313.4 186 321.4 161.2 330.9 136.9C329.6 136 328.3 135.1 327.1 134.3C331.8 160 336.4 185.6 341.1 211.3C341.2 212.1 343.8 215.8 344.8 214.2C349.8 205.9 351.3 196.4 352.8 187C354.6 176.4 356.4 165.8 358.1 155.3C356.8 154.4 355.5 153.5 354.3 152.7C356.8 172.3 360.7 191.7 366.1 210.8C366.3 211.5 369.4 214.9 369.9 213C374.2 194.2 377 175.1 378.4 155.8C377.1 155.2 375.9 154.6 374.6 154C380.6 178.6 386.7 203.3 396.7 226.6C397 227.3 399.8 230 400.2 228.3C406 204.5 410.7 180.4 414.4 156.2C413.1 155.3 411.8 154.4 410.6 153.6C412.4 174.3 415.8 194.8 420.8 215C421 215.9 423.9 219 424.6 217.2C431.1 199.1 435.4 180.2 437.4 161C437.5 159.9 436.8 158.8 435.9 158.2C435.6 157.9 433.7 156.9 433.6 158C431.6 177.2 427.3 196 420.8 214.2C422.1 214.9 423.3 215.7 424.6 216.4C419.7 196.5 416.4 176.3 414.6 155.9C414.5 154.8 413.6 153.9 412.8 153.3C412.4 153 410.9 152.3 410.7 153.3C407 177.5 402.3 201.6 396.5 225.4C397.7 226 398.9 226.5 400 227.1C390.1 204.1 384.2 179.7 378.3 155.5C378 154.4 374.7 151.3 374.5 153.7C373.2 172.7 370.3 191.6 366.1 210.1C367.4 210.8 368.6 211.6 369.9 212.3C364.6 193.6 360.7 174.5 358.3 155.2C358.2 154.1 357.4 153.2 356.5 152.6C356.1 152.3 354.6 151.6 354.4 152.6C352.7 162.9 350.9 173.3 349.2 183.6C347.6 192.9 346.4 202.8 341.4 211C342.6 212 343.8 213 345.1 213.9C340.4 188.2 335.8 162.6 331.1 136.9C330.9 136 328.1 132.2 327.3 134.3C317.8 158.5 309.8 183.3 303.5 208.6C304.8 209.5 306.1 210.4 307.3 211.2C303.9 192.9 300.6 174.6 297.2 156.2C297 155.1 296.3 154.2 295.4 153.6C294.9 153.3 293.6 152.6 293.3 153.6C287.5 171.6 281.6 189.7 275.8 207.7C277.1 208.4 278.3 209.2 279.6 209.9C275.9 192.4 272.1 174.9 268.4 157.4C268.2 156.6 264.9 153.4 264.6 155.2C261.7 178.3 257.6 201.3 252.2 224C253.5 224.7 254.7 225.5 256 226.2C248.9 206 244.3 185 242.2 163.7C242.1 162.7 238.9 159.1 238.4 161.1C231.9 185.3 225.3 209.5 218.8 233.6C220.1 234.3 221.3 235.1 222.6 235.8C218.5 220 214.4 204.3 210.3 188.5C210 187.4 206.7 184.3 206.5 186.7C205.5 200.1 201.6 213.2 195 225C196.3 225.7 197.5 226.5 198.8 227.2C192.2 208.7 187.1 189.7 183.5 170.4C183.3 169.5 180.4 165.7 179.7 167.8C172.4 189 165.1 210.2 157.7 231.4C158.9 232 160.1 232.5 161.2 233.1C156.4 222.3 153.2 210.9 151.5 199.3C149.9 188.4 149.3 177.2 144.6 167C144.3 166.3 141.6 163.6 141.1 165.3C133.6 187.7 126.1 210.1 118.6 232.4C119.9 233.1 121.1 233.9 122.4 234.6C117.2 215.9 112 197.2 106.7 178.5C106.5 177.7 103.5 174.4 102.9 176.3C96.7 198.7 90.4 221.1 84.2 243.5C85.4 244.1 86.6 244.6 87.7 245.2C78.6 224.7 74.3 202.5 70.1 180.5C69.9 179.6 67.1 175.8 66.3 177.9C58.5 196.9 49.4 215.3 39.2 233.1C37.8 233.7 41.4 237 42.4 235.3Z" fill="white"/>
</g>
<mask id="mask4_201_753" style="mask-type:luminance" maskUnits="userSpaceOnUse" x="51" y="51" width="398" height="398">
<path d="M250 448.5C359.629 448.5 448.5 359.629 448.5 250C448.5 140.371 359.629 51.5 250 51.5C140.371 51.5 51.5 140.371 51.5 250C51.5 359.629 140.371 448.5 250 448.5Z" fill="white"/>
</mask>
<g mask="url(#mask4_201_753)">
<path d="M26.3 239.3C26.9 241.9 27.5 244.4 28.1 247C28.5 248.8 32.2 247.9 32.8 246.7C42.4 229.9 52 213.1 61.6 196.3C60 196.4 58.5 196.5 56.9 196.6C60.5 216.1 64.2001 235.6 67.8001 255.1C68.1001 256.9 71.9001 255.9 72.5 254.8C81.3 240.3 85.4001 223.7 89.4001 207.4C87.8001 207.6 86.1 207.8 84.5 208C87.2001 224.1 90 240.4 95.5 255.8C96.2 257.7 99.8 256.6 100.4 255.2C107.9 237.1 115.1 218.8 122.1 200.5C120.5 200.7 118.8 200.9 117.2 201.1C119.8 227.6 122.6 254.4 131.2 279.8C131.8 281.7 135.6 280.7 136.1 279.2C144 256.4 151.9 233.7 159.9 210.9C158.3 211.1 156.6 211.3 155 211.5C158.9 231 162.7 250.5 166.6 270C167 272 171.1 270.8 171.5 269.4C178.1 247.5 184.7 225.6 191.2 203.7C189.6 203.9 187.9 204.1 186.3 204.3C186.9 227.4 189.7 250.3 194.8 272.8C195.2 274.8 199.2 273.6 199.7 272.2C208 247.2 216.4 222.1 224.7 197.1C223.1 197.3 221.4 197.5 219.8 197.7C223.2 226.6 226.7 255.6 235.2 283.5C235.8 285.3 239.7 284.5 240.1 282.9C245.3 260.3 250.5 237.6 255.7 215C254.1 215.2 252.4 215.4 250.8 215.6C253.5 229.9 256.4 244.2 259.4 258.4C260.9 265.5 262.4 272.6 264 279.7C265 284 266.7 289 271.6 290C272.8 290.3 275.2 290.1 275.6 288.5C281.5 261.4 284.5 233.7 284.7 206C283.1 206.3 281.4 206.7 279.8 207C280.5 226.9 284 246.6 290.1 265.5C290.7 267.3 294.6 266.4 295 264.9C300.9 242.9 305.2 220.5 307.7 197.8C306.1 198 304.4 198.2 302.8 198.4C303.9 219 305.1 240.1 313 259.4C313.7 261.1 317.5 260.5 317.9 258.8C322.4 236.9 326.9 215 331.4 193C329.8 193.2 328.1 193.4 326.5 193.6C331.1 221.9 335.7 250.2 340.3 278.5C340.6 280.4 344.8 279.3 345.2 277.9C351 254.1 355.3 230 358.1 205.7C356.5 205.9 354.8 206.1 353.2 206.3C358.6 226.7 364.1 247.1 369.5 267.5C370 269.4 373.9 268.3 374.4 266.9C381 246.9 385 226.1 386.6 205.1C385 205.3 383.3 205.5 381.7 205.7C385.4 222.3 389.2 239.1 395.8 254.8C396.6 256.7 400.1 255.7 400.7 254.2C405.5 242.4 409.4 230.2 412.6 217.8C411 218 409.3 218.2 407.7 218.4C413.1 234.8 418 251.3 422.5 268C423 269.8 427 268.9 427.4 267.4C431.8 247.8 434.9 227.8 436.7 207.8C435.1 208 433.4 208.2 431.8 208.4C434.8 219.8 437.8 231.3 440.8 242.7C441.2 244.3 444.4 243.7 445.2 242.8C449.1 238.6 451.9 233.7 453.5 228.2C454.1 226.2 449.1 226.7 448.6 228.5C447.2 233.4 444.7 237.9 441.3 241.6C442.8 241.6 444.2 241.7 445.7 241.7C442.7 230.3 439.7 218.8 436.7 207.4C436.2 205.7 432 206.4 431.8 208C430 228 426.9 247.9 422.5 267.6C424.1 267.4 425.8 267.2 427.4 267C422.9 250.3 418 233.8 412.6 217.4C412 215.6 408.1 216.4 407.7 218C404.5 230.4 400.6 242.5 395.8 254.4C397.4 254.2 399.1 254 400.7 253.8C394 238 390.3 221.3 386.6 204.7C386.2 202.9 381.8 203.7 381.7 205.3C380.2 226.3 376.1 247.1 369.5 267.1C371.1 266.9 372.8 266.7 374.4 266.5C369 246.1 363.5 225.7 358.1 205.3C357.6 203.5 353.4 204.3 353.2 205.9C350.4 230.2 346.1 254.4 340.3 278.1C341.9 277.9 343.6 277.7 345.2 277.5C340.6 249.2 336 220.9 331.4 192.6C331.1 190.7 326.8 191.7 326.5 193.2C322 215.1 317.5 237 313 259C314.6 258.8 316.3 258.6 317.9 258.4C310 239 308.8 218 307.7 197.4C307.6 195.6 303 196.5 302.8 198C300.2 220.6 295.9 243 290.1 265.1C291.7 264.9 293.4 264.7 295 264.5C288.9 245.6 285.4 225.9 284.7 206C284.6 204.2 279.8 205 279.8 207C279.6 234.5 276.6 261.9 270.7 288.8C272 288.3 273.3 287.8 274.7 287.3C269.7 286.2 269.1 279 268.2 275C266.7 268.3 265.3 261.6 263.9 254.9C261.1 241.5 258.4 228 255.8 214.6C255.4 212.7 251.3 213.7 250.9 215.2C245.7 237.8 240.5 260.5 235.3 283.1C236.9 282.9 238.6 282.7 240.2 282.5C231.7 254.6 228.2 225.6 224.8 196.7C224.6 194.7 220.4 196 219.9 197.3C211.6 222.3 203.2 247.4 194.9 272.4C196.5 272.2 198.2 272 199.8 271.8C194.7 249.3 191.8 226.3 191.3 203.3C191.3 201.4 186.8 202.6 186.4 203.9C179.8 225.8 173.2 247.7 166.7 269.6C168.3 269.4 170 269.2 171.6 269C167.7 249.5 163.9 230 160 210.5C159.6 208.5 155.6 209.8 155.1 211.1C147.2 233.9 139.3 256.6 131.3 279.4C132.9 279.2 134.6 279 136.2 278.8C127.5 253.4 124.8 226.6 122.2 200.1C122 198 117.8 199.5 117.3 200.7C110.3 219 103.1 237.2 95.6 255.4C97.2 255.2 98.9 255 100.5 254.8C94.9 239.3 92.2001 223.1 89.5 207C89.2001 205.1 85 206.2 84.6 207.6C80.7 223.6 76.7001 240 68.1 254.2C69.7 254.1 71.2001 254 72.8001 253.9C69.2001 234.4 65.5 214.9 61.9001 195.4C61.6001 193.6 57.8 194.6 57.2 195.7C47.6 212.5 38 229.3 28.4 246.1C30 246 31.5 245.9 33.1 245.8C32.5 243.2 31.9 240.7 31.3 238.1C30.8 236.4 25.9 237.5 26.3 239.3Z" fill="white"/>
</g>
<mask id="mask5_201_753" style="mask-type:luminance" maskUnits="userSpaceOnUse" x="51" y="51" width="398" height="398">
<path d="M250 448.5C359.629 448.5 448.5 359.629 448.5 250C448.5 140.371 359.629 51.5 250 51.5C140.371 51.5 51.5 140.371 51.5 250C51.5 359.629 140.371 448.5 250 448.5Z" fill="white"/>
</mask>
<g mask="url(#mask5_201_753)">
<path d="M37.4999 272.8C42.8999 259.6 48.3999 246.4 53.7999 233.2C52.1999 232.8 50.5999 232.5 48.9999 232.1C55.1999 247.6 61.3999 263 67.5999 278.5C67.9999 279.4 71.9999 280.7 72.3999 279.6C76.8999 267.7 81.2999 255.8 85.7999 243.9C84.1999 243.5 82.5999 243.2 80.9999 242.8C85.4999 258.1 90.7999 273.2 96.7999 288.1C97.0999 288.9 101.2 290.3 101.6 289.2C106.8 272.3 111.9 255.4 117.1 238.4C115.5 238 113.9 237.7 112.3 237.3C117.2 251 120.4 265.2 121.9 279.6C122 280.7 126.3 282.1 126.7 280.9C132.2 264.7 137.6 248.5 143.1 232.3C141.5 231.9 139.9 231.4 138.3 231C140.6 256.6 145.1 282 151.6 306.9C151.8 307.8 156.1 309.1 156.4 308C161.6 289.6 165.6 270.9 168.5 252C166.9 251.6 165.3 251.1 163.7 250.7C165.1 263.6 166.5 276.6 168 289.5C169.3 301.2 171 313 175.5 323.9C175.8 324.7 180 326.1 180.3 325C185 305 189.7 285 194.5 264.9C192.9 264.5 191.3 264 189.7 263.6C191.5 285.9 194.9 308.1 199.9 329.9C200.1 330.8 204.4 332.1 204.7 331C210.1 308.6 217.4 286.7 226.5 265.5C224.9 265.1 223.3 264.6 221.7 264.2C223.4 285.2 227.1 306 232.8 326.3C233.1 327.3 237.1 328.5 237.6 327.4C244.4 311.7 249.6 295.5 253.2 278.8C251.6 278.4 250 278.1 248.4 277.7C251.9 299.5 255.5 321.6 264.3 342.1C264.7 343 268.6 344.3 269.1 343.2C278 321.4 285.5 299 291.4 276.2C289.8 275.8 288.2 275.3 286.6 274.9C288 292.2 290.8 309.4 294.7 326.3C294.9 327.2 299.2 328.5 299.5 327.4C305.3 306.5 311.1 285.7 316.9 264.8C315.3 264.4 313.7 263.9 312.1 263.5C314.3 282.9 318.8 302 325.6 320.4C325.9 321.3 330.1 322.6 330.4 321.5C335.9 301.4 340.1 280.9 342.9 260.3C341.3 259.9 339.7 259.6 338.1 259.2C343.4 283.1 348.8 307 354.1 330.9C354.3 331.9 358.4 333 358.9 332C364.6 319.4 367.5 305.9 370.4 292.5C373.5 278 376.6 263.6 379.7 249.1C381.4 241 383.2 232.8 384.9 224.7C383.3 224.3 381.7 223.8 380.1 223.4C383.6 248.6 388.6 273.5 395.1 298C395.3 298.9 399.6 300.2 399.9 299.1C405.3 279.6 410.7 260 416.1 240.5C414.5 240.1 412.9 239.8 411.3 239.4C415.5 264.5 419.7 289.6 423.9 314.7C424.1 315.7 428.3 316.8 428.7 315.8C437.9 292.8 442.9 268.5 447.8 244.4C446.2 244 444.6 243.7 443 243.3C447.5 267 450.7 290.9 452.6 315C452.7 316.2 457.3 317.4 457.4 316.3C459.3 304.6 461.1 292.8 463 281.1C463.2 279.9 458.3 278.8 458.2 279.8C456.3 291.5 454.5 303.3 452.6 315C454.2 315.4 455.8 315.9 457.4 316.3C455.5 292.1 452.3 268 447.8 244.2C447.6 243.3 443.2 242.1 443 243.1C438.1 267.3 433.1 291.6 423.9 314.5C425.5 314.9 427.1 315.2 428.7 315.6C424.5 290.5 420.3 265.4 416.1 240.3C415.9 239.3 411.6 238.2 411.3 239.2C405.9 258.7 400.5 278.3 395.1 297.8C396.7 298.2 398.3 298.5 399.9 298.9C393.4 274.5 388.4 249.7 385 224.7C384.8 223.6 380.4 222.2 380.2 223.4C377.1 237.7 374 252.1 371 266.4C368 280.5 365.3 294.7 361.7 308.7C359.8 316.2 357.4 323.7 354.2 330.7C355.8 331.1 357.4 331.4 359 331.8C353.7 307.9 348.3 284 343 260.1C342.8 259.2 338.3 258 338.2 259C335.4 279.7 331.2 300.1 325.7 320.2C327.3 320.6 328.9 320.9 330.5 321.3C323.8 303.1 319.3 284.1 317.1 264.9C317 263.8 312.6 262.4 312.3 263.6C306.5 284.5 300.7 305.3 294.9 326.2C296.5 326.6 298.1 326.9 299.7 327.3C295.8 310.5 293.1 293.5 291.7 276.3C291.6 275.2 287.2 273.9 286.9 275C280.9 297.8 273.5 320.2 264.6 342C266.2 342.4 267.8 342.7 269.4 343.1C260.7 322.6 257 300.5 253.5 278.7C253.3 277.7 248.9 276.6 248.7 277.6C245.2 294.3 239.9 310.6 233.1 326.2C234.7 326.6 236.3 326.9 237.9 327.3C232.2 307.2 228.5 286.5 226.8 265.7C226.7 264.5 222.5 263.2 222 264.4C212.9 285.6 205.6 307.5 200.2 329.9C201.8 330.3 203.4 330.6 205 331C200.1 309.3 196.7 287.3 194.9 265.2C194.8 264 190.3 262.8 190.1 263.9C185.4 283.9 180.7 303.9 175.9 324C177.5 324.4 179.1 324.7 180.7 325.1C176.1 314 174.5 302.2 173.2 290.3C171.8 277.6 170.4 264.9 169 252.2C168.9 251 164.3 249.8 164.2 250.9C161.3 269.8 157.2 288.5 152.1 306.9C153.7 307.3 155.3 307.6 156.9 308C150.4 283.3 146 258 143.7 232.6C143.6 231.5 139.3 230.1 138.9 231.3C133.4 247.5 128 263.7 122.5 279.9C124.1 280.3 125.7 280.8 127.3 281.2C125.8 266.6 122.6 252.3 117.7 238.4C117.4 237.5 113.3 236.2 112.9 237.3C107.7 254.2 102.6 271.1 97.3999 288.1C98.9999 288.5 100.6 288.8 102.2 289.2C96.1999 274.4 90.8999 259.3 86.3999 243.9C86.0999 243 81.9999 241.7 81.5999 242.8C77.0999 254.7 72.6999 266.6 68.1999 278.5C69.7999 278.9 71.3999 279.2 72.9999 279.6C66.1999 263.9 59.9999 248.4 53.7999 233C53.3999 232.1 49.4999 230.8 48.9999 231.9C43.5999 245.1 38.0999 258.3 32.6999 271.5C32.2999 272.4 36.9999 274 37.4999 272.8Z" fill="white"/>
</g>
<mask id="mask6_201_753" style="mask-type:luminance" maskUnits="userSpaceOnUse" x="51" y="51" width="398" height="398">
<path d="M250 448.5C359.629 448.5 448.5 359.629 448.5 250C448.5 140.371 359.629 51.5 250 51.5C140.371 51.5 51.5 140.371 51.5 250C51.5 359.629 140.371 448.5 250 448.5Z" fill="white"/>
</mask>
<g mask="url(#mask6_201_753)">
<path d="M43.7999 328.4C46.9999 314.3 50.2999 300.2 53.4999 286.2C52.2999 285.9 51.1999 285.7 49.9999 285.4C61.8999 305.4 60.9999 330.5 74.0999 349.9C74.4999 350.5 76.8999 352.8 77.4999 351.1C83.8999 331.6 90.2999 312.2 96.7999 292.7C95.5999 292.1 94.3999 291.5 93.0999 291C99.6999 310.2 106.4 329.5 113 348.7C113.4 349.9 115.6 352.1 116.7 350.4C122.9 341 124.3 329.3 126.3 318.4C128.6 305.8 130.9 293.1 133.2 280.5C131.9 279.9 130.6 279.3 129.3 278.6C132.6 296.7 136 314.8 142.4 332.1C142.7 332.9 145.5 335.8 146.1 333.8C151.3 316.7 155.6 299.3 158.9 281.7C157.6 281.1 156.3 280.5 155 279.8C159.4 304.1 163.8 328.3 168.2 352.6C168.4 353.6 170 356.1 171.4 355.4C174.9 353.6 176.8 350.4 178.1 346.7C179.9 341.8 181.3 336.7 182.8 331.7C186.1 321.1 189.4 310.5 192.7 299.8C191.4 299 190.2 298.3 188.9 297.5C192.2 321.3 197.8 344.8 205.6 367.6C205.9 368.5 208.4 371.2 209.3 369.3C218.8 347.6 226.1 325 231.2 301.8C229.9 301.4 228.7 300.9 227.4 300.5C231.9 317.3 236.5 334.1 241 350.9C241.3 351.9 243.8 354.4 244.7 352.6C252.5 336.1 258.9 319.1 263.9 301.6C262.7 301 261.5 300.4 260.2 299.9C264.9 317.5 270.7 334.7 277.6 351.6C277.9 352.4 280.6 355.3 281.3 353.3C286.4 338.5 291.4 323.7 296.5 308.9C295.3 308.3 294.1 307.7 292.8 307.2C300 328.2 307.2 349.3 314.4 370.3C314.8 371.4 316.1 372.8 317.4 372.6C322.2 371.7 324.8 367.1 326.3 362.8C328.7 356.4 330.7 349.7 332.9 343.2C337.4 329.6 341.9 316.1 346.5 302.5C345.3 301.9 344.1 301.3 342.8 300.8C346.8 312.1 351.1 323.3 355.7 334.3C356 335 358.8 338 359.4 336C362.9 324.1 366.3 312.1 369.8 300.2C368.6 299.6 367.4 299 366.1 298.5C370.8 312.5 374.7 326.8 377.7 341.3C378 342.6 380.9 345.8 381.6 343.2C385.6 327.5 389.6 311.9 393.6 296.2C392.3 295.6 391 295 389.7 294.3C392.3 309.4 396.5 324.1 402.2 338.3C402.5 339.1 405.2 342 405.9 340C413.5 316.6 421.2 293.3 428.8 269.9C427.6 269.3 426.4 268.7 425.1 268.2C431.5 288.2 434.5 309.1 437.5 329.8C437.6 330.8 440.5 334.2 441.3 332.1C447.9 315.5 454.6 299 461.2 282.4C461.9 280.6 458.3 277.2 457.5 279.2C450.9 295.8 444.2 312.3 437.6 328.9C438.9 329.7 440.1 330.4 441.4 331.2C438.4 310.1 435.2 288.9 428.7 268.5C428.4 267.6 425.7 264.9 425 266.8C417.4 290.2 409.7 313.5 402.1 336.9C403.3 337.5 404.5 338.1 405.8 338.6C400.2 324.7 396.1 310.4 393.5 295.7C393.3 294.3 390.2 291.2 389.6 293.8C385.6 309.5 381.6 325.1 377.6 340.8C378.9 341.4 380.2 342 381.5 342.7C378.4 327.8 374.5 313.2 369.6 298.8C369.3 298 366.5 295.1 365.9 297.1C362.4 309 359 321 355.5 332.9C356.7 333.5 357.9 334.1 359.2 334.6C354.6 323.6 350.3 312.4 346.3 301.1C346 300.3 343.3 297.4 342.6 299.4C338.3 312.4 333.9 325.5 329.6 338.5C327.4 345 325.3 351.5 323.1 358C321.7 362.2 319.7 367.4 314.8 368.3C315.8 369.1 316.8 369.8 317.8 370.6C310.6 349.6 303.4 328.5 296.2 307.5C295.9 306.6 293.2 303.9 292.5 305.8C287.4 320.6 282.4 335.4 277.3 350.2C278.5 350.8 279.7 351.4 281 351.9C274.1 335.1 268.3 317.8 263.6 300.2C263.4 299.3 260.5 296.6 259.9 298.5C254.9 316 248.4 333.1 240.7 349.5C241.9 350.1 243.1 350.7 244.4 351.2C239.9 334.4 235.3 317.6 230.8 300.8C230.5 299.5 227.5 297.2 227 299.5C222 322.4 214.8 344.7 205.4 366.1C206.6 366.7 207.8 367.3 209.1 367.8C201.4 345.4 195.9 322.3 192.7 298.8C192.6 297.8 189.6 294.4 188.9 296.5C185.8 306.6 182.6 316.7 179.5 326.8C178 331.7 176.5 336.6 174.9 341.4C173.8 345 172.4 349.2 168.8 351C169.9 351.9 170.9 352.9 172 353.8C167.6 329.5 163.2 305.3 158.8 281C158.6 279.7 155.4 276.5 154.9 279.1C151.7 296.4 147.5 313.5 142.4 330.3C143.6 330.9 144.8 331.5 146.1 332C139.9 315.1 136.6 297.3 133.3 279.6C133.1 278.3 129.9 275.1 129.4 277.7C127.1 290.1 124.9 302.4 122.6 314.8C120.6 325.7 119.3 337.3 113.1 346.8C114.3 347.4 115.5 348 116.8 348.5C110.2 329.3 103.5 310 96.8999 290.8C96.5999 290 93.8999 287.1 93.1999 289.1C86.7999 308.6 80.3999 328 73.8999 347.5C74.9999 347.9 76.1999 348.3 77.2999 348.7C64.1999 329.3 65.0999 304.2 53.1999 284.2C52.5999 283.1 50.1999 281.3 49.6999 283.4C46.4999 297.5 43.1999 311.6 39.9999 325.6C39.4999 327.9 43.1999 330.9 43.7999 328.4Z" fill="white"/>
</g>
<mask id="mask7_201_753" style="mask-type:luminance" maskUnits="userSpaceOnUse" x="51" y="51" width="398" height="398">
<path d="M250 448.5C359.629 448.5 448.5 359.629 448.5 250C448.5 140.371 359.629 51.5 250 51.5C140.371 51.5 51.5 140.371 51.5 250C51.5 359.629 140.371 448.5 250 448.5Z" fill="white"/>
</mask>
<g mask="url(#mask7_201_753)">
<path d="M68.2001 371.8C73.7001 360 80.5001 348.9 88.4001 338.6C87.0001 338.9 85.6001 339.2 84.1001 339.5C90.3001 355.9 97.7001 371.8 106.2 387.1C107.1 388.8 110.1 386.8 110.7 385.8C118.4 372.2 125.6 358.3 132 344.1C130.5 344.5 129 345 127.5 345.4C133 366.2 139.7 386.7 147.4 406.8C148 408.4 151.6 406.6 151.9 405.5C157.6 386.6 163.2 367.6 168.6 348.6C167.1 349 165.6 349.5 164.1 349.9C169 368.3 173.9 386.7 178.8 405.1C179.3 406.8 183 404.7 183.3 403.8C190.4 384.8 197.4 365.9 204.5 346.9C203 347.2 201.4 347.6 199.9 347.9C201.9 363.4 204 378.9 206.3 394.3C207.4 401.7 208.4 409.2 209.7 416.6C210.8 423 212.3 429.4 216.2 434.8C217.2 436.2 220.3 434.8 220.7 433.5C229.3 407.5 237.9 381.5 246.5 355.5C245 355.8 243.4 356.2 241.9 356.5C244.7 375.1 247.6 393.9 254 411.6C254.6 413.2 258.2 411.4 258.5 410.3C265.5 386 272.6 361.7 279.6 337.3C278.1 337.6 276.5 338 275 338.3C277.4 362 281.1 385.7 286.1 409C286.5 410.7 290.3 408.6 290.6 407.7C299 384.7 303.7 360.7 308.4 336.7C306.8 337.2 305.3 337.6 303.7 338.1C306.9 360.6 310.1 383 313.3 405.5C313.6 407.3 316.5 406.1 317.3 405.3C330.8 391.8 333.8 372.5 340.1 355.2C341.9 350.2 344.1 345.3 346.8 340.8C345.3 341.2 343.8 341.7 342.3 342.1C346.3 358.9 350.4 375.6 354.4 392.4C354.8 394.1 358.6 392 358.9 391.1C365.7 373.4 370.8 355.2 374.2 336.5C372.6 337 371.1 337.4 369.5 337.9C371.3 354.9 373.2 372 375 389C375.2 390.8 378.2 389.5 379 388.8C393.8 374.2 392.1 351.7 401.3 334.1C399.8 334.4 398.2 334.8 396.7 335.1C397.4 348.1 400.5 360.9 405.8 372.8C406.6 374.5 409.8 372.4 410.3 371.5C419.7 355 424.8 336.6 429.7 318.4C428.2 318.8 426.7 319.3 425.2 319.7C428.1 333.8 431.1 347.9 434 362C434.3 363.6 438.9 361.8 438.5 359.9C435.6 345.8 432.6 331.7 429.7 317.6C429.4 315.9 425.5 317.9 425.2 318.9C420.2 337.1 415.1 355.5 405.8 372C407.3 371.6 408.8 371.1 410.3 370.7C405 359 402 346.5 401.3 333.7C401.2 331.5 397.2 333.7 396.7 334.7C392.2 343.4 390.3 353.1 387.9 362.5C385.6 371.6 382.6 381 375.7 387.8C377 387.7 378.3 387.7 379.7 387.6C377.9 370.6 376 353.5 374.2 336.5C374 334.3 369.8 336.4 369.5 337.9C366.2 356.3 361.1 374.3 354.4 391.7C355.9 391.3 357.4 390.8 358.9 390.4C354.9 373.6 350.8 356.9 346.8 340.1C346.6 339.3 345.1 339.6 344.6 339.7C343.6 340 342.8 340.6 342.3 341.4C336.2 351.5 333.2 362.9 329.7 374.1C326.3 384.9 322.2 396.1 314 404.3C315.3 404.2 316.6 404.2 318 404.1C314.8 381.6 311.6 359.2 308.4 336.7C308.1 334.5 304 336.6 303.7 338.1C299.1 361.8 294.5 385.6 286.1 408.3C287.6 407.9 289.1 407.4 290.6 407C285.6 383.9 282 360.5 279.6 337C279.4 335 275.4 336.7 275 338C268 362.3 260.9 386.6 253.9 411C255.4 410.6 256.9 410.1 258.4 409.7C252 392.2 249.1 373.7 246.4 355.3C246.1 353.2 242.2 355 241.8 356.3C233.2 382.3 224.6 408.3 216 434.3C217.5 433.9 219 433.4 220.5 433C216.7 427.7 215.1 421.3 214 414.9C212.8 407.4 211.7 400 210.6 392.5C208.4 377.3 206.3 362 204.3 346.8C204 344.7 200.2 346.6 199.7 347.8C192.6 366.8 185.6 385.7 178.5 404.7C180 404.3 181.5 403.8 183 403.4C178.1 385 173.2 366.6 168.3 348.2C167.9 346.5 164.1 348.5 163.8 349.5C158.4 368.5 152.8 387.5 147.1 406.4C148.6 406 150.1 405.5 151.6 405.1C143.9 385 137.2 364.5 131.7 343.7C131.2 341.9 127.6 344.1 127.2 345C120.8 359.2 113.6 373.1 105.9 386.7C107.4 386.3 108.9 385.8 110.4 385.4C101.9 370.1 94.6001 354.2 88.3001 337.8C87.7001 336.2 84.6001 338 84.0001 338.7C75.8001 349.2 68.9001 360.6 63.3001 372.7C62.8001 373.8 64.1001 374 64.9001 374C66.4001 373.5 67.7001 372.8 68.2001 371.8Z" fill="white"/>
</g>
<mask id="mask8_201_753" style="mask-type:luminance" maskUnits="userSpaceOnUse" x="51" y="51" width="398" height="398">
<path d="M250 448.5C359.629 448.5 448.5 359.629 448.5 250C448.5 140.371 359.629 51.5 250 51.5C140.371 51.5 51.5 140.371 51.5 250C51.5 359.629 140.371 448.5 250 448.5Z" fill="white"/>
</mask>
<g mask="url(#mask8_201_753)">
<path d="M114.3 444.3C119.9 427.7 126.5 411.5 134.1 395.8C136.3 391.3 138.6 386.8 140.9 382.4C139.3 382.1 137.8 381.9 136.2 381.6C142.1 399.2 148 416.8 153.9 434.4C154.5 436.2 157.6 436.9 158.6 435.2C169.1 416.7 178.3 397.5 186.1 377.7C184.7 377.7 183.4 377.8 182 377.8C187.8 382.5 186.4 392 186.5 398.5C186.6 408.3 187.4 418 188.8 427.7C189.6 433.2 190.6 438.6 191.8 444C192.1 445.5 195.2 446.5 196.2 445.2C201.1 438.7 204.3 431.3 207.1 423.7C210.2 415.3 213.1 406.8 216 398.4C217.7 393.5 219.5 388.6 221.2 383.7C219.6 383.4 218.1 383.2 216.5 382.9C223.3 399.7 221.7 418.2 225.3 435.6C226.3 440.6 227.8 445.4 229.9 450.1C230.6 451.6 233.7 452.9 234.6 450.9C243.3 431.4 252 412 260.7 392.5C259.1 392.2 257.6 392 256 391.7C261.8 406.9 264.9 423 267.9 438.9C268.2 440.6 271.9 441.5 272.6 439.7C278.8 423.1 285 406.4 291.3 389.8C289.7 389.4 288.1 388.9 286.5 388.5C289.6 406.2 292.7 423.8 295.9 441.5C296.1 442.5 296.8 443.2 297.7 443.5C298.4 443.8 299.9 443.9 300.4 443.1C310.4 427.3 318 410.1 322.9 392.1C321.3 391.7 319.7 391.2 318.1 390.8C320 407 323.7 422.9 329.1 438.3C329.6 439.8 333.1 441.2 333.8 439.1C338.2 424.9 341.8 410.5 344.7 396C343.1 395.6 341.5 395.1 339.9 394.7C341.8 409.6 343.6 424.5 345.5 439.4C345.6 440.5 346.6 441.3 347.6 441.5C348.4 441.7 349.9 441.7 350.2 440.7C356.5 420.6 362.8 400.5 369.1 380.4C367.5 380 365.9 379.5 364.3 379.1C365.4 392.9 368.2 406.5 372.4 419.7C372.8 421.1 375.8 422.4 376.8 420.9C381.5 414 385.2 406.5 387.6 398.5C386 398.2 384.5 398 382.9 397.7C384.3 402.4 384.8 407.2 384.3 412C384.1 414.2 388.9 415.4 389.1 412.8C389.6 407.6 389.1 402.5 387.5 397.5C387 396 383.4 394.7 382.8 396.7C380.5 404.4 377.1 411.7 372.5 418.3C374 418.7 375.5 419.1 376.9 419.5C372.7 406.6 370 393.4 368.9 379.9C368.8 378.1 364.8 376.4 364.1 378.6C357.8 398.7 351.5 418.8 345.2 438.9C346.8 439.3 348.4 439.8 350 440.2C348.1 425.3 346.3 410.4 344.4 395.5C344.3 394.4 343.3 393.6 342.3 393.4C341.5 393.2 339.9 393.2 339.7 394.2C336.8 408.8 333.2 423.2 328.8 437.3C330.4 437.6 331.9 437.8 333.5 438.1C328.2 423 324.5 407.4 322.7 391.6C322.6 390.5 321.6 389.7 320.6 389.5C319.8 389.3 318.3 389.3 318 390.3C313.1 408 305.7 424.9 296 440.5C297.5 441.1 299 441.6 300.5 442.2C297.4 424.5 294.3 406.9 291.1 389.2C290.8 387.5 287.2 385.7 286.3 387.9C280.1 404.5 273.9 421.2 267.6 437.8C269.2 438.1 270.7 438.3 272.3 438.6C269.2 422.7 266.1 406.6 260.4 391.4C259.8 389.8 256.6 388.7 255.7 390.6C247 410.1 238.3 429.5 229.6 449C231.2 449.3 232.7 449.5 234.3 449.8C226.7 433.4 228.1 414.8 224.9 397.3C224 392.3 222.7 387.3 220.8 382.6C220.2 381.2 216.9 379.7 216.1 381.8C212.3 392.7 208.4 403.6 204.6 414.6C201.2 424.3 197.8 434.2 191.6 442.5C193.1 442.9 194.6 443.3 196 443.7C193.8 433.9 192.3 423.9 191.5 413.9C191.1 408.9 190.9 403.9 190.8 398.9C190.8 394.8 191 390.8 190.4 386.7C189.8 382.5 188.3 378.4 184.9 375.6C183.9 374.8 181.5 374 180.8 375.7C173 395.5 163.8 414.7 153.3 433.2C154.9 433.5 156.4 433.7 158 434C152.1 416.4 146.2 398.8 140.3 381.2C139.7 379.5 136.6 378.6 135.6 380.4C127.4 395.8 120.2 411.8 114 428.1C112.2 432.8 110.6 437.5 109 442.3C108.9 444.8 113.6 446.5 114.3 444.3Z" fill="white"/>
</g>
</g>
<defs>
<clipPath id="clip0_201_753">
<rect width="500" height="500" fill="white"/>
</clipPath>
</defs>
</svg>
