<svg width="500" height="500" viewBox="0 0 500 500" fill="none" xmlns="http://www.w3.org/2000/svg">
<mask id="mask0_201_738" style="mask-type:luminance" maskUnits="userSpaceOnUse" x="51" y="51" width="398" height="398">
<path d="M250 448.5C359.629 448.5 448.5 359.629 448.5 250C448.5 140.371 359.629 51.5 250 51.5C140.371 51.5 51.5 140.371 51.5 250C51.5 359.629 140.371 448.5 250 448.5Z" fill="white"/>
</mask>
<g mask="url(#mask0_201_738)">
<path d="M207.6 38.0999C192.7 43.1999 178.3 49.3999 164.3 56.5999C154 61.8999 141.9 69.5999 142.1 82.6999C142.2 87.7999 144.2 92.9 148.5 95.9C152.9 99 159 99.2 163.8 96.9C168.4 94.6 171.8 90.1 171.4 84.8C171 79.2 166.8 74.4 161.7 72.4C155.5 70 149.1 72.5 144.1 76.4C138.4 80.8 133.3 86.3 128.6 91.8C124.1 97.2 119.2 103.3 118.1 110.4C117.3 116.1 119.7 121.4 124.7 124.5C129 127.1 135.3 127.6 138.8 123.4C141.9 119.7 140.9 114.2 138.4 110.5C134.9 105.5 128.6 103.8 122.8 104.3C115.9 104.9 109.4 108 103.4 111.3C91.6 117.8 81.3 127 73.5 138C69.8 143.3 66.9 149.5 68.8 156.1C70.4 161.7 74.7 166.3 79.8 169C85.9 172.3 93 172.9 99.7 171.7C106.3 170.5 113.3 167.9 118.8 163.9C123.2 160.7 127.9 155.7 127.7 149.9C127.4 143.6 121.2 140.4 116 138.5C94 130.3 65.2 141.4 59 165.2C56.2 176.1 59.3 188.8 70 194.1C78.3 198.2 90.6 198 96.5 189.8C98.3 187.3 99.1 184.5 97 181.9C95.2 179.7 92.4 178.2 89.8 177.1C84.5 174.7 78.5 174.1 72.7 174.8C60.4 176.3 50 184 44 194.7C40.9 200.3 38.8 206.4 37.7 212.7C36.5 219.1 35.7 226.3 37 232.8C38.2 239 42.5 243.6 48.3 245.8C54.5 248.2 61.2 247.7 67.4 245.7C70.9 244.5 74.2 242.9 77.4 241.1C80.2 239.6 83.1 238 85.6 236C90 232.5 92.6 227.3 90.8 221.8C87.3 211.1 74 206.3 64.1 210.7C52.8 215.8 47.2 228.6 45.7 240.2C44 253.6 47 267.8 54.5 279.2C56.2 281.7 58.2 284 61.2 284.9C64.6 285.9 68 284.7 71 283.1C77.2 279.9 82.7 275.7 87.5 270.7C91.4 266.6 96.1 259.6 90 255.2C85.2 251.7 77.8 251.5 72.2 252.7C59.8 255.5 50.7 265.3 46.5 277C44 283.8 43.1 291.1 42.7 298.2C42.4 304.4 42.2 310.9 43.1 317.1C43.9 322.5 45.9 328.1 50.2 331.8C55.3 336.2 62.2 336.9 68.6 336.4C80.2 335.4 92.7 332.2 102 324.8C106.5 321.3 110.2 316.6 112 311.1C114 305 110.9 299.7 105.3 296.9C94.6 291.7 81.4 295.9 73.1 303.6C63.7 312.3 60.1 325 62.1 337.5C63.2 344.1 65.7 350.4 69.3 356C72.8 361.4 77.4 366.8 84.5 365.5C87.8 364.9 91 363.2 94 361.6C96.9 360.1 99.8 358.4 102.5 356.6C108.1 352.8 113.2 348.4 117.8 343.4C121.8 339 125.6 334.3 127.7 328.6C129.5 323.9 130.4 318.3 128 313.7C125.4 308.7 119.4 306.5 114.1 307.4C108.1 308.4 102.9 312.8 99.2 317.5C91 328.1 86.1 342 84.4 355.2C83.5 362 83.5 368.9 84.3 375.7C85 381.3 85.8 388.1 89.8 392.5C94.3 397.4 100.8 396 105.3 391.9C110.6 387 115.5 381.4 120.1 375.9C129.2 365 137.1 353.1 143.9 340.6C144.4 339.6 143.4 338.7 142.5 338.4C131.7 335.4 123.1 343 117.4 351.4C112.2 359.2 107.6 369.1 107.8 378.7C107.9 383.1 109.2 387.3 112.2 390.5C115.6 394.2 120.5 396 125.4 396C130.5 395.9 135.4 394.1 139.7 391.5C144.2 388.8 148.7 385 151.5 380.6C154.2 376.4 154.4 370.8 150 367.7C145.2 364.3 140 367.3 136.3 370.8C129.5 377.3 126.7 386.7 126.6 395.9C126.4 405.9 128.8 415.9 132.8 424.9C137.2 434.6 144.8 442.7 156 443.1C166.5 443.5 176.4 437.3 182.4 429C185.8 424.2 188.1 418.8 190 413.3C191 410.5 191.8 407.6 192.6 404.7C193.4 402 194.3 399.2 194.5 396.4C195.5 384.5 179.7 384 171.7 386.6C162.8 389.4 155.1 396.9 152.9 406.1C148.1 425.5 170.6 442 188.4 436.5C198.7 433.3 205.6 424.2 210.9 415.3C212.3 413 214.3 410.4 214.3 407.6C214.3 405.2 212.7 403.2 210.7 401.9C206.5 399.1 200.8 399.2 196.3 401.2C186.3 405.7 182.6 417.2 184.9 427.3C186.2 433.2 189.1 438.6 192.3 443.6C195.3 448.3 198.5 453.9 204.6 454.5C210 455.1 215.7 452 220.3 449.4C224.9 446.9 229.1 443.8 233 440.2C240.6 433.2 246.5 424.7 250.4 415.1C252.3 410.3 253.7 405.4 254.4 400.3C254.7 398.4 251.1 397.7 250 398.7C242.5 405 235.6 412.6 232.8 422.1C230.4 430.1 231.6 439.6 237 446.2C242.7 453 252 455.2 260.5 453.3C269.3 451.3 276.4 445.6 280.8 437.7C283.1 433.6 284.6 429 285.7 424.4C286.7 419.8 287.5 414.9 287.2 410.2C287 406.6 285.9 402.5 282.6 400.5C279.3 398.4 274.9 398.7 271.9 401.3C268.8 404.1 267.3 408.2 266.1 412.1C264.5 417.5 263.1 423 263.8 428.6C264.8 437.3 273 445.5 282.2 443.4C287.4 442.2 291.3 437.7 295 434.1C298.9 430.3 302.7 426.4 306 422.1C312.4 413.9 317 404.3 316.3 393.7C316.2 392.2 313.3 391.8 312.3 392.3C305.4 395.6 300.9 402.6 300.4 410.3C299.9 418 303.7 425.1 310.4 428.9C317 432.6 325.8 433.2 332.6 429.8C341.2 425.5 344.9 415.6 346.4 406.7C348.3 395.2 346.5 383.4 341.6 372.9C341 371.7 337.7 371 337 372.5C333.1 381.2 331.9 390.8 333.7 400.2C334.5 404.5 335.8 409.5 338.6 413C341.3 416.3 345.5 417.5 349.6 416.9C357.6 415.8 365.1 409.3 370.4 403.6C376 397.6 380.3 390.4 383.1 382.7C386.2 374 387.3 364.7 386.1 355.5C385.9 354 383.2 353.6 382.1 354.1C373.4 358.4 367.4 366.6 365.2 376C363.1 385.2 364.7 396.4 371.6 403.3C373.7 405.3 376.4 406.8 379.4 406.8C382.5 406.9 385 405.3 387.4 403.5C392.1 400 396.5 396 400.5 391.6C408.5 382.9 414.7 372.8 419.1 361.9C423.5 350.9 425.9 339.2 425.9 327.3C425.9 322.7 425 317.6 421.8 314C418.4 310.2 412.7 309.9 408.7 312.9C403.9 316.5 400.6 322.6 398.6 328.2C396.6 333.8 395.5 340.2 396.7 346.1C397.7 351.4 401 355.8 406.4 357.1C411.7 358.4 417.1 356.1 421.2 352.7C429.3 345.8 432.9 334.2 433.2 323.8C433.5 313.2 430.5 302.5 424.2 293.8C422.6 291.6 420.9 289.6 418.9 287.8C418 287 415.4 286.4 414.7 287.7C409.3 298.2 413.4 311.5 423.3 317.6C424.2 318.1 426.4 318.5 427.1 317.3C439.4 295.4 435.9 266.8 419.2 248.2C418.4 247.3 416.2 247 415.3 247.8C408.6 254 405.1 262.9 406 271.9C406.4 276 407.7 280.5 410.9 283.4C414 286.3 418.8 287 422.5 285C426.3 283 428.5 279 430.1 275.1C431.7 271.3 432.7 267.2 433.3 263.1C434.3 254.8 433.3 246.2 430.4 238.4C427.1 229.5 421.5 221.5 413.9 215.7C412.7 214.8 410.8 214.4 409.7 215.6C405.3 220.5 401 226.3 401.4 233.2C401.7 239 405.5 244.2 411.3 245.5C417.8 246.9 424.6 243.5 429.3 239.2C433.6 235.4 436.7 230.5 439 225.3C441.4 219.8 443 214 444.3 208.1C445.5 202.5 446.7 196.8 446.6 191.1C446.5 186.1 445.5 180.5 441.5 177C439.4 175.2 436.6 173.5 434 175.1C431.3 176.8 428.8 178.8 426.6 181.1C422 186 419 193 421.6 199.6C424 205.8 429.9 209.9 436.6 209.1C437.3 209 437.8 208.6 438.1 208C442 197.8 443 186.6 441.3 175.8C439.7 165.8 435.6 155.2 428.7 147.5C422.9 141.1 413.3 135.4 404.4 137.6C400.1 138.6 396.5 141.7 394.8 145.8C393 150.3 393.7 155.5 394.9 160.1C395.6 162.5 396.4 164.8 397.4 167.1C398.3 169.2 399.1 171.4 400.8 172.9C404.8 176.7 410.7 174.9 414.3 171.5C421.4 164.9 425.3 154.7 425.9 145.2C426.5 135.3 423.6 125.4 417.1 117.9C411 110.8 402.3 106.1 393.1 104.5C384.1 103 373.1 104.3 366.2 110.8C362.9 114 360.9 118.3 361.9 122.9C362.8 127.3 366.2 130.7 370.6 131.4C379.2 132.9 388 126.5 392.5 119.7C397 112.8 398.8 104.3 398 96.0999C396.1 76.7 377 60.9999 357.6 63.0999C348.3 64.0999 339.5 69.9999 334.9 78.0999C330.9 85.0999 328.1 100.1 339.9 100.7C349.1 101.1 355.2 91.9999 355.2 83.5999C355.2 73.7 348.3 66 339.8 61.7999C331 57.5 319.5 55.4 310.2 59.4C306.4 61.1 302.9 63.8 301.3 67.8C299.9 71.3 299.8 75.5 301.2 79C302.6 82.4 305.3 85 308.9 86.0999C310.1 86.3999 311.8 86.5999 312.3 85.1999C315.5 76.6999 312.5 67.7 306.7 61.2C300.4 53.9 291.4 49.6999 281.8 49.0999C270.2 48.3999 258.8 52.6 248.7 58C243.9 60.6 238.7 63.3 234.6 66.9C231.4 69.7 228 73.7 228.8 78.3C229.6 82.8 234.4 85.2 238.2 87C242.2 88.9 246.7 90.2 251.1 90.3C255.1 90.3 259.1 89.1999 261.8 86.0999C264.7 82.7999 265 78.3 263.4 74.4C259.6 65 249.3 60.3 239.8 59.4C229.5 58.3 218.8 61.3 211.1 68.4C202.8 76 198.5 87.1 199.6 98.3C200.8 110.9 208 122.1 215.7 131.7C216.6 132.9 220.6 133.8 220.4 131.3C219.5 120.1 209.8 113.1 200.4 108.7C195.2 106.3 189.4 104 183.7 102.9C180.5 102.3 177.2 102.6 174.7 104.8C172.5 106.7 171.3 109.5 170.4 112.3C166.5 124.5 168.2 138.3 174.4 149.3C177.2 154.3 181.6 160.8 188.2 159.4C194.2 158.2 196.9 150.7 199.2 145.9C204.5 134.8 208.1 120.6 198.9 110.4C194.5 105.5 188 103.9 181.6 104C174.5 104.1 167.1 105.2 160.1 106.9C147.6 109.9 135 116.5 129.3 128.6C123.4 141 128.5 155.5 135.7 166.3C139.1 171.5 143.9 176.1 150 177.9C155.4 179.6 161.8 179.4 166.6 176.2C171.3 173 173.1 167.4 172.3 162C171.5 156.1 167.9 151.2 163.1 148C157.7 144.3 151 142.8 144.6 142.2C138.4 141.7 131.6 141.7 126.2 145.2C115.8 152 119.1 166.8 123.3 176.2C128.6 188 137.3 198.2 148 205.5C150.7 207.3 153.9 209.4 157.3 208.8C160.2 208.2 161.8 205.8 162.7 203.2C164.6 197.5 163.5 191.2 160.8 186C154.7 174.3 140.5 169.7 128 171.3C122.2 172.1 116.2 174.4 111.9 178.6C107.1 183.3 105.6 189.5 106.3 196C107.1 203.3 109.9 210.5 112.7 217.2C115.5 224.1 118.9 230.8 122.7 237.2C125.8 242.4 129.7 247.3 135.4 249.8C140.1 251.8 146.4 251.5 148.8 246.3C151.4 240.7 147.7 234.9 143 231.9C137.9 228.6 131 226.9 124.9 226.8C119.1 226.7 113.1 228.4 109.6 233.3C106.2 238 106.2 244.3 107.4 249.6C110 260.9 118 272 128.8 276.6C133.6 278.6 140.9 280.2 145.5 277C151.1 273.2 146.4 265.2 144 260.9C137.9 250 128.2 240.9 116.9 235.6C110.7 232.6 103.5 230.3 96.6 231.8C91.1 233 86.6 236.6 83.7 241.4C76.7 253.2 81 266.9 87.4 278C93.2 288.1 101.7 300.5 114.7 300.5C126.6 300.5 133.6 289.7 136.6 279.5C137.9 275 139.7 267.9 134.7 264.9C129.3 261.7 122.2 265.8 117.9 269.2C108.5 276.6 103.7 289 105.6 300.8C107.5 312.7 115.8 323.8 126.8 329C135.8 333.3 148.8 334.2 156.7 327.1C160.5 323.7 163.2 318.1 161.3 313C159.2 307.4 152.5 306.2 147.5 308.2C137.2 312.3 133.7 325.4 135.4 335.4C137.1 345.9 144.3 355 154.6 358.2C164.8 361.3 176.7 359.2 184.7 352.1C188.8 348.5 192.7 343.1 192.5 337.4C192.3 331.8 187.5 328.5 182.3 328.1C171.3 327.2 163.1 336.5 160.8 346.5C158.4 356.7 161.4 368.1 168.5 375.9C176.5 384.8 189.3 388 200.9 386.7C213.2 385.4 224.1 378.7 231.4 368.8C238.6 359 242.1 346.7 242.2 334.6C242.2 333 240.1 332.4 238.7 332.6C225.9 334.6 213.9 340.7 204.6 349.7C196.3 357.8 188.7 369.1 188.4 381.1C188.3 386.3 189.5 391.7 193.4 395.4C198.6 400.4 206.2 400.1 212.8 398.8C226 396.2 238.6 391.1 249.9 383.9C262.7 375.8 273.8 365.1 282.2 352.5C283.6 350.4 279.1 349.7 277.9 350.5C269.4 356.1 261 363.2 257 372.8C253.6 380.9 254.4 390.2 259.8 397.4C265.2 404.6 274.6 407.7 283.1 403.9C292.7 399.7 298.7 389.3 302.5 380.1C304.7 374.8 306.2 369.3 307 363.7C307.7 358.7 308.4 352.9 307.2 348C306.1 343.5 302 340.6 297.3 341.8C292.2 343.1 289.2 348.8 286.6 352.9C281.3 361.4 277.2 371.9 283 381.3C285.3 385 288.9 387.9 293.2 388.8C298.6 390 303.6 387.7 308.1 384.8C327.4 372.7 340.8 351.9 344.1 329.5C344.4 327.6 340.8 326.9 339.7 327.9C332.3 334.6 327.5 344.8 329.5 355C331.3 364.1 339.5 371.6 348.7 372.9C359 374.3 367.1 367.6 372.2 359.3C377.8 350.3 380.9 339.7 381.5 329.2C382.2 317.2 379.8 305.3 374.3 294.6C373.7 293.3 370.5 292.8 369.7 294.2C365.1 302.1 363.9 311.7 366.5 320.5C367.7 324.7 369.7 329.1 372.8 332.2C376.2 335.7 381.1 335.6 384.7 332.5C391.6 326.7 396.5 317.8 399.5 309.5C402.6 301 403.7 291.8 402.9 282.8C402.5 278.4 402 273.1 399.4 269.4C397.1 266 392.9 264.5 389 265.1C380.2 266.4 374.2 275.2 371.2 282.8C368 290.8 368.9 301.7 378 305.4C387.1 309.1 395.7 302 398.1 293.5C399.5 288.2 399.3 282.5 398.8 277.1C398.3 271.6 397.1 266.1 395.4 260.9C391.9 250.3 386.2 240.7 378.6 232.6C377.8 231.7 376.2 231.6 375.1 232C371.3 233.3 368.9 236.8 368.6 240.7C368.2 245 370.2 248.8 373.7 251.2C382.5 257.1 393.6 252.7 399.3 244.8C406.2 235.3 407.9 222.6 407.3 211.2C407.1 206.2 406.8 200.2 403.5 196.1C400.6 192.4 396 191 391.5 191.7C386.5 192.5 382.2 195.8 380.3 200.5C377.8 206.5 379 213.2 381.2 219.1C381.8 220.8 384.3 221.1 385.6 220.3C392.5 216.1 399.8 211.6 404.3 204.7C408.8 197.8 409.3 189.3 406.7 181.6C400.9 164.7 383.3 156.2 367.2 152C359 149.9 349 148.8 341.7 154.1C336.3 158 332.6 165.5 335.6 171.9C338.6 178.5 347 180.8 353.6 179C361.1 177 365.5 169.8 366.3 162.4C368.1 144.5 352.1 131.4 337 125.8C329.4 123 321 120.6 312.9 120.7C306.6 120.8 299.2 122.5 296.1 128.6C292.9 135 296.6 142.3 302.3 145.9C309 150.2 317.8 148.6 323.9 143.9C330.9 138.4 333.8 129.7 334.5 121.1C335.1 113.7 334.7 105.9 332 98.9C329.5 92.6 325 87.3999 318.2 85.6999C309.4 83.4999 299.6 87.9999 291.9 91.6999C283.9 95.5999 276.1 100.6 269.6 106.7C264.1 111.9 258.9 119 258.4 126.8C258.2 130.4 259.1 133.7 261.1 136.6C261.9 137.7 264.3 138.4 265.3 137.4C270.9 131.8 270.7 123.6 267.1 117C263.1 109.7 255.3 105.6 247 106.2C237.7 106.9 229.3 112.9 224.5 120.7C218.8 130.1 218.4 141.8 220 152.4C221.2 160.2 223 173.2 232.7 174.8C241.7 176.4 246 165.5 240.9 159C235.1 151.7 223.6 150.8 215.1 152.4C206.2 154.1 198 158.9 192.2 165.8C180.3 180.2 182.8 202.3 196 214.9C199.1 217.9 203.1 221 207.7 220.8C209.8 220.7 211.9 219.7 212.8 217.7C213.6 215.6 212.8 213.2 211.7 211.4C209.3 207.2 205.3 203.5 201.5 200.6C197.4 197.4 192.7 194.6 187.8 192.7C183.3 191 178.3 191 174.6 194.5C171.2 197.7 169.6 202.5 168.5 206.9C166.1 216.9 166.8 227.7 170.4 237.3C173.8 246.3 180 256.7 189.9 259.1C194.2 260.1 198.9 259.3 202 256.1C204.5 253.5 205.5 249.8 205.4 246.2C205.1 236.7 197.2 230.8 189 227.6C184.4 225.8 179.3 224.2 174.4 223.6C169.4 223 164.6 224.6 162.2 229.3C160 233.6 159.5 238.7 159.4 243.5C159.2 248.9 159.8 254.2 161.1 259.4C162.4 264.4 164.3 269.2 166.8 273.7C169.1 277.7 171.5 281.5 176 283.2C179.1 284.3 183.4 284.4 184.5 280.6C184.7 279.9 184 279.4 183.5 279.1C173.4 272.4 161 265.1 148.4 268.3C138.2 271 129.3 280.4 133.7 291.5C137.6 301.3 147.7 308.2 157.3 311.6C166.7 314.9 177.2 315.5 187 313.5C198 311.2 208.1 305.5 215.1 296.6C216.1 295.4 213.9 294.4 213.1 294.2C198.8 291.1 188 309.4 196.2 321C200.5 327 207.8 330 215 330.4C222.8 330.9 230.3 328 236 322.7C243 316.2 247 307.1 249 297.9C249.4 296.1 246.1 295.5 245 296.1C237.1 299.9 231.4 307.9 231 316.8C230.6 325.4 235.2 333.4 242.2 338.1C249.4 343 259 343.7 266.8 340C274.3 336.4 279.6 329.2 279.2 320.7C278.8 312.9 273.9 305.2 266.4 302.5C262.7 301.2 258.1 301 254.6 303.1C250.4 305.6 250 310.4 251.3 314.7C252.7 319.4 255.1 324 257.7 328.2C260.3 332.3 263.5 336.6 267.3 339.6C271.1 342.6 276 343.4 280.3 340.9C284.6 338.4 288.1 333.7 291.2 329.9C294.7 325.7 297.8 321.2 300.7 316.6C303.2 312.7 305.7 308.6 307.1 304.1C308.2 300.6 308.6 296.3 306.4 293C305.3 291.3 303.5 289.7 301.3 290C299.2 290.3 297 291.3 295.2 292.3C286.8 296.9 281.9 305.9 280.6 315.1C279.8 320.4 280.1 325.9 280.9 331.1C281.6 335.6 282.2 340.8 286.6 343.1C290.9 345.4 295.9 343.8 300.1 342.1C304.6 340.3 309 338.1 313.2 335.7C322 330.7 330.1 324.6 337.2 317.4C340.6 314 343.9 310.3 346.8 306.4C349.6 302.8 352.7 298 351 293.2C348.1 284.7 336.1 283.7 329.2 287C322 290.4 317.2 298.1 319.6 306.1C322.1 314.2 330.4 320.1 338.9 319.4C348.2 318.7 355 311.3 359.5 303.7C364.8 294.6 368.7 284.5 371.3 274.3C372.7 269 373.7 263.7 374.4 258.2C374.9 253.9 375.7 248.8 371.8 245.8C368.7 243.4 364.1 243.2 360.6 244.6C356.6 246.2 354.2 250 352.7 253.8C349.7 261.3 347.5 272.5 356.1 277.2C364 281.6 373.7 277.8 378.2 270.5C382.7 263.1 383.5 253.6 382.5 245.1C381.5 236.6 378.3 228.4 373.6 221.3C368.9 214.2 362.5 208.1 354.9 204C350.9 201.8 346 199.3 341.4 200.3C336.7 201.3 334.8 206.3 333.7 210.4C331.7 217.8 331.5 235.2 343.2 233.4C350.8 232.3 356 225.3 357.6 218.2C361.8 199 343.9 186.2 328.8 179.1C323.7 176.7 318.5 174.5 313.2 172.6C308.4 170.9 303.5 169 298.4 168.6C294.3 168.3 289.7 169.4 287.2 173C285 176.1 285.1 180.4 286.6 183.8C290.3 192.2 301.7 193.1 308.9 188.9C317 184.2 320.6 173.4 320 164.5C319.4 156 313.3 149.8 305.3 147.5C297.7 145.3 289.5 146.3 282.7 150.4C274.6 155.3 269.1 163.5 264.9 171.8C260.2 181.1 255.4 191.6 255.6 202.3C255.8 211 259.4 219.4 266.7 224.3C267.5 224.8 269.4 225.1 270.2 224.4C277.7 216.8 283.5 206.8 284.1 195.9C284.7 185.9 280.5 176.4 272.3 170.4C264.8 164.9 254.7 163 246.3 167.4C238 171.8 233.2 181 232.3 190.1C231 203.3 237.5 215.9 244 226.9C244.8 228.2 247.6 228.7 248.6 227.3C254.2 219.7 252.9 208.8 247.2 201.7C240.8 193.6 229.8 191.5 220.2 194.5C209.9 197.7 202.8 206.7 201.8 217.4C200.7 228.7 205.8 239.7 214.6 246.6C219.1 250.1 224.3 252.7 229.7 254.2C232.6 255 235.5 255.5 238.5 255.7C241 255.9 244.1 256.1 246.1 254.3C250.9 250 242.5 245.3 239.2 244.1C232.8 241.7 226.1 240.2 219.4 239.6C213.5 239.1 206.4 238.6 200.7 240.9C195.8 242.9 193.3 247.5 193.4 252.8C193.5 258.4 195.6 263.6 198 268.5C200.8 274.4 204.2 280 208.2 285.2C211.8 289.8 216.1 293.9 222.4 293.6C228.3 293.3 234 289.7 238.9 286.7C248.9 280.6 257.6 272.3 264.3 262.8C266 260.4 267.6 257.9 269 255.3C269.7 254 268 253.1 267 252.9C258.8 251.2 250.3 254.9 245.5 261.7C240.5 268.8 241 278.2 244.6 285.8C248.4 293.7 257 301.5 266.4 299.3C270.9 298.2 274.4 295.1 277.4 291.8C280.6 288.3 283.4 284.5 285.9 280.4C291.5 271.2 295 260.8 296.2 250.1C296.4 248.2 292.9 247.5 291.8 248.5C283.2 255.7 277.8 266.2 276.9 277.3C276.4 282.7 276.9 288.7 279 293.8C281.4 299.3 286.7 301.7 292.6 301.2C298.2 300.7 303.4 298 308.1 295C312.8 292 317 288.3 320.5 284.1C324.1 279.8 327.1 275 329.4 269.9C330.5 267.4 331.4 264.9 332.1 262.3C332.8 259.8 333.7 256.7 333.3 254.1C332.4 248.5 325.6 248.5 321.8 251C317.2 254 315.2 260.4 315.7 265.7C316.2 271.2 320.4 275.5 325.7 276.6C331 277.7 335.6 275 337.6 270C341.4 260.3 337.5 248.1 331.8 239.9C328.7 235.5 324.8 231.7 320.3 228.8C315.9 226 309.9 223.1 304.6 223.5C299.3 223.8 296.9 229.1 300.1 233.4C303.6 238 310.7 237.4 315.2 234.9C323 230.7 325.9 221.1 324.2 212.7C322.2 202.9 313.9 196.4 304.1 195.2C293.5 193.9 282.4 198.1 275.8 206.5C272.3 211 269.9 217.1 271.2 222.9C272.3 228 276.3 232.5 281.3 234.1C286.1 235.7 291.3 234.5 294.5 230.5C297.4 226.9 297.7 221.7 294.4 218.3C290.6 214.3 284.2 213.6 279 214.1C273.8 214.7 268.9 216.9 264.8 220.1C256.4 226.9 251.3 239 255.7 249.5C259.5 258.7 270.6 261.7 279.6 258.8C289.1 255.6 293.1 245.2 290.2 236C286.9 225.6 276.7 220.1 266.2 221C254.9 222 246 230 243.3 240.9C242 246.3 242.2 252 243.8 257.3C244.4 259.2 249.4 259.5 248.7 257.3C246.1 248.7 247.4 238.9 253.2 231.8C258.5 225.4 268 222.2 275.9 225.4C283.2 228.3 287.2 236.9 286 244.5C284.9 252 278.5 257.3 270.9 256.8C261.7 256.1 258.2 246.8 259.5 238.6C260.8 230.4 266.6 222.9 274.1 219.3C277.7 217.6 281.7 216.8 285.6 217.5C289.9 218.2 293 221.3 291.7 225.8C290.8 229 287.6 232.2 284 231.6C279.8 230.9 276.8 226.4 276.1 222.4C274.5 213.1 282.3 204.3 290.2 200.6C297.4 197.3 306.5 196.9 313.1 201.9C318.6 206.1 320.7 213.6 319.6 220.2C319.1 223.5 317.8 226.7 315.6 229.2C313.5 231.6 308.6 235 305.4 232.9C304 232 303.4 229.9 303.9 228.3C304.7 225.8 307.6 226.6 309.5 227.2C313.4 228.4 317.1 230.4 320.3 233C326.9 238.4 331.7 246 333.4 254.4C334.3 258.6 334.5 263.2 333.3 267.3C332.3 270.8 329.4 274.9 325.3 273C320.7 270.8 320.1 265.1 321.2 260.7C321.7 258.6 322.5 256.5 323.9 254.9C324.6 254.1 327.1 252.1 327.8 252.4C329.4 253.2 328.2 257.5 327.9 258.7C327.4 261 326.8 263.2 326 265.4C324.5 269.5 322.5 273.4 320.1 277C315.2 284.3 308.5 290.6 300.7 294.7C297.1 296.6 292.3 298.9 288.2 297.7C283.6 296.4 282.7 290.2 282.1 286.2C280.9 277.4 283 268.2 287.5 260.6C289.7 256.9 292.5 253.5 295.9 250.7C294.4 250.2 292.9 249.6 291.5 249.1C290.6 257.2 288.4 265 284.9 272.4C281.5 279.6 276.9 286.7 271 292.1C268.1 294.8 264.3 297.2 260.2 295.9C256.5 294.7 253.6 291.6 251.4 288.5C247.2 282.3 245.5 274 248.3 266.9C251.1 259.8 258.9 254.2 266.7 255.9C266 255.1 265.4 254.3 264.7 253.5C259.9 262.1 253.6 269.9 246 276.4C242.4 279.5 238.4 282.3 234.3 284.8C232.2 286.1 230 287.2 227.8 288.3C225.3 289.5 222.1 291 219.3 290.2C217.3 289.6 215.7 287.8 214.3 286.3C212.5 284.1 210.8 281.8 209.2 279.5C206.2 275 203.6 270.2 201.5 265.2C198.2 257.5 195.5 245 206.9 243C212.2 242.1 217.9 242.5 223.2 243.3C228.7 244.1 234.9 245.3 239.9 247.9C241.2 248.6 243.8 250.6 242.3 252.2C241 253.6 236.5 252.5 234.9 252.2C230.3 251.4 225.9 249.8 221.9 247.3C213.6 242.3 208 233.8 207 224.1C206 215 209.5 205.7 217.2 200.4C224.7 195.3 235.5 194.5 242.1 201.5C248.1 207.9 249.6 218.4 244.3 225.7C245.8 225.8 247.3 226 248.9 226.1C243.5 216.8 238.2 206.9 237.5 196C237 187.8 239.7 178.9 245.8 173.2C252 167.4 260.5 166.7 267.7 171.2C275.2 175.9 279.6 184.3 279.7 193.1C279.7 204 274.2 214.4 266.7 222.1C267.9 222.1 269 222.1 270.2 222.2C259.4 214.9 259.9 199.7 263.6 188.7C265.7 182.4 268.5 176.2 271.7 170.4C274.6 165.2 278 160.2 282.4 156.3C289.6 150 300.5 146.9 309.1 152.5C319.1 159.1 316.5 175.2 309.6 183.1C306.1 187.2 299.2 190.2 294.3 186.7C290.5 184 289.6 177.4 292.9 173.9C297.2 169.3 305.3 173 310.1 174.7C316.7 177 323.2 179.7 329.4 182.8C339.2 187.8 350.2 195 353.1 206.4C355.2 214.9 352.5 227.2 343 230.1C341.2 230.7 340.5 230.2 339.8 228.4C339.2 226.9 338.9 225.3 338.6 223.7C338 220.3 338.1 216.8 338.7 213.5C339.2 210.6 340.1 207.3 342.1 205C344.5 202.2 348 204 350.8 205.4C360.4 210.1 368.1 218.2 372.9 227.7C377.8 237.2 379.7 248.4 377.8 258.9C376.8 264.5 374.5 270.6 369.5 274C365.4 276.8 359.2 276.8 356.7 271.9C354.1 266.8 356.2 259.9 358.2 254.9C359.2 252.3 360.7 249.7 363 248.1C364.6 247 367.2 246.4 368.9 247.6C371.4 249.4 370.6 253.3 370.3 255.9C369.9 259.2 369.4 262.5 368.8 265.8C367.5 272.5 365.7 279.1 363.3 285.5C361 291.7 358.3 297.8 354.8 303.4C351.8 308.2 347.9 313 342.5 315.2C337.3 317.4 332.1 315.9 328.4 311.7C324.9 307.7 323.4 301.9 325.7 296.9C327.8 292.5 332.1 289.2 336.9 288.4C342.4 287.5 348.5 291.2 346.8 297.4C346 300.6 343.8 303.3 341.8 305.8C339.9 308.2 337.9 310.5 335.9 312.7C331.6 317.3 326.8 321.6 321.7 325.4C316.7 329.1 311.4 332.5 305.9 335.3C303.2 336.7 300.4 337.9 297.6 339.1C295.3 340 291.2 342.1 289.1 340C287 338 286.8 334 286.4 331.3C285.9 327.7 285.6 324.1 285.7 320.5C285.9 314.1 287.4 307.8 291 302.5C294.1 297.9 298.5 294.1 304 292.8C303 292.5 302 292.3 301.1 292C306.6 296.2 302.4 304.9 299.7 309.5C295.8 316.5 291.2 323.1 286 329.2C283.5 332.2 280.8 335.7 277.5 337.8C275.8 338.9 274.2 339.2 272.4 338.1C270.6 337 269.2 335.4 267.9 333.8C262.9 328.2 258.4 321 256.5 313.7C255.6 310.3 256 306.1 259.8 304.8C262.5 303.9 265.5 304.8 267.8 306.4C272.8 309.9 275.3 316.5 274.7 322.4C274.1 328.9 269.8 334.3 264 337C258 339.8 251.4 339.4 245.9 335.8C239.7 331.7 235.9 324.2 236.4 316.8C237 309.2 241.6 302 248.6 298.6C247.3 298 245.9 297.4 244.6 296.8C241.9 309.7 233.9 324.6 219.5 326.8C213.8 327.6 207.6 326.3 203.3 322.3C198.9 318.2 197.8 312.4 199.7 306.9C201.6 301.5 206.8 295.8 213.1 297.1C212.4 296.3 211.8 295.5 211.1 294.7C200.3 308.5 181.3 313.9 164.4 310.1C156 308.2 147.9 303.7 142.5 296.9C139.2 292.7 137 287.5 138.6 282.2C139.9 278 143.4 274.7 147.3 272.8C159.1 267 171.4 274.8 181.1 281.3C180.8 280.8 180.4 280.3 180.1 279.8C179.3 282.5 175.5 278.6 174.8 277.6C172.3 274 170.2 270.1 168.6 266C165.6 258.1 164.3 249.5 165.1 241C165.5 237.2 166 232.7 168.3 229.5C171.1 225.5 175.7 226.8 179.7 227.8C186.7 229.7 195.3 232.2 199.2 238.9C202 243.7 202.1 251.9 196.9 255.3C189.5 260.1 181.8 249.3 178.8 243.9C174.7 236.6 172.5 228 172.5 219.6C172.5 215.4 173 211.2 174 207.1C174.9 203.4 176.2 199.5 179 196.8C182.3 193.6 186.1 195.2 189.8 197C193.5 198.8 196.9 201.1 200.1 203.9C203 206.5 206.8 209.8 208.2 213.5C208.7 214.9 209 217.7 206.8 217.7C205.1 217.7 203.2 216 202 215C190.9 205.7 186.5 188.8 192.3 175.4C198 162.2 213.3 152.9 227.8 155.4C231.5 156 235.3 157.6 237.5 160.8C239.3 163.5 239.1 167.2 237.3 169.8C235.3 172.6 232.7 172 230.8 169.6C228.5 166.8 227.6 163.1 226.8 159.7C223 143.3 223 122.9 238.9 112.8C244.6 109.2 252.5 107.6 258.2 112C262.8 115.5 265.8 121.7 265.3 127.5C265 130.3 263.9 133 261.9 135C263.3 135.3 264.7 135.5 266.1 135.8C262.1 130.1 263.9 123 267.2 117.4C270.9 111.2 276.4 106.4 282.3 102.3C288.5 97.7999 295.3 94.2 302.5 91.5C308.8 89.0999 316.7 86.2 322.5 91.3C326.8 95.1 328.7 101 329.6 106.5C330.8 113.3 330.6 120.7 328.9 127.4C327.2 134.5 323 141.4 316 144.3C310 146.8 303.6 144.4 301 138.2C298.7 132.6 301.8 127.1 307.3 125.1C312.9 123.1 319.2 124.2 324.8 125.5C339.2 128.9 354.8 135.8 360.3 150.8C362.6 157.1 362.7 164.5 359 170.3C355.9 175.2 349.3 178.7 343.8 175.3C338.3 171.8 339.4 164.5 342.8 160C347.3 153.9 355.1 153 362.2 154.2C369.6 155.5 377.2 158.1 383.8 161.7C390.2 165.1 396 169.8 399.7 176.1C403.2 182.1 404.9 189.4 403.3 196.2C401.6 203.3 396.5 208.5 390.8 212.7C388 214.7 385.1 216.5 382.2 218.3C383.7 218.7 385.2 219.1 386.6 219.5C383.8 212.1 382.4 201.3 390.4 196.5C393.2 194.8 396.9 194.3 399.3 196.9C402 199.9 402.4 204.6 402.7 208.5C403.5 218.1 402.6 228.3 398.7 237.2C395.7 244.1 389.5 252.1 381 250.9C377.2 250.3 374.3 247.5 373.9 243.7C373.5 240.2 375.1 236.4 378.5 235.2C377.3 235 376.2 234.8 375 234.6C386.2 246.7 393 262.5 394.3 278.9C394.9 286.6 394.8 296.7 387.9 301.7C385 303.8 381.3 304.6 378.4 302C375.8 299.7 374.5 295.9 374.5 292.5C374.6 288.1 376.3 283.9 378.3 280.1C380.1 276.8 382.3 273.9 385.3 271.6C387.3 270.1 390.8 267.7 393.4 269.2C396.7 271 397.2 276.2 397.8 279.6C400.2 294.8 396.3 311 387.3 323.5C386.1 325.2 384.7 326.9 383.3 328.5C382.3 329.6 379.9 332.7 378.2 332.3C376.6 332 375.1 328.9 374.4 327.6C373.3 325.7 372.5 323.8 371.8 321.7C369.2 313.3 370.1 304.1 374.5 296.5C373 296.4 371.5 296.2 369.9 296.1C378.5 313.1 379.1 334 371.4 351.4C368 359 362.5 368.4 353.8 370.4C345.8 372.2 337.9 365.8 335.3 358.5C331.9 348.7 336.5 337.8 343.9 331.1C342.4 330.6 340.9 330 339.5 329.5C336.9 346.6 328.5 362.7 315.8 374.6C312.6 377.6 309.1 380.3 305.4 382.7C302 384.9 297.4 388 293.1 386.3C289.6 384.9 287.2 381.2 286.1 377.7C284.8 373.6 285.3 369.3 286.6 365.2C288.2 360.5 290.9 356.2 293.6 352.1C294.8 350.3 295.9 348.5 297.5 347.1C298.1 346.5 299.1 345.6 300 345.6C301 345.5 301.5 346.4 301.9 347.2C303.7 351 303 356.5 302.6 360.5C302.1 365.3 301.2 370.1 299.7 374.7C296.9 383.4 292.3 392.7 285.2 398.7C282.1 401.3 278.3 403.4 274.1 403.2C270.7 403 267.7 401.1 265.5 398.6C259.6 392.1 258.7 382.6 262 374.7C265.9 365.6 274 358.9 282.1 353.6C280.7 352.9 279.2 352.3 277.8 351.6C264.1 372.1 243.1 387.5 219.4 394.4C216.4 395.3 213.3 396 210.3 396.6C207 397.2 203.3 397.8 200.1 396.3C195.7 394.3 194 389.4 193.6 384.9C192.8 373.8 199.3 363 206.6 355.1C215.6 345.3 227.8 338.6 240.9 336.5C239.7 335.8 238.6 335.2 237.4 334.5C237.3 355 226.6 377.2 205.6 383.1C196.1 385.8 185.4 384.9 177.1 379.2C169.7 374.1 165.6 365.3 165.1 356.5C164.7 348.3 167.8 338.4 175.4 334C178.3 332.4 183.2 330.8 185.9 333.4C189.9 337.2 186.7 343.8 184 347.3C178.8 354.1 169.7 357.8 161.2 357.1C152.2 356.4 145 350.2 141.9 341.9C138.9 333.8 139.4 324.2 144.5 317C146.4 314.3 152.3 308.8 155.7 312.4C158.9 315.8 156.6 321.5 154 324.5C148.2 331.1 137.9 330.9 130.4 327.8C121.2 324 114.2 314.8 111.6 305.4C108.8 295.4 111.2 284.7 117.8 276.7C120.8 273.1 125 269.8 129.5 268.4C130.7 268 131.9 267.6 132.7 268.9C133.3 269.8 133.4 271.1 133.4 272.2C133.4 274.6 132.7 277.1 132.1 279.4C129.9 287.3 124.5 297.7 115.2 298.3C104.7 299.1 97.4 286.9 92.9 279.2C87.4 269.8 82.9 258.4 87.1 247.6C88.8 243.2 91.9 239.1 96.1 237C101.7 234.3 107.9 236 113.3 238.3C122.8 242.4 131.1 249.4 137 257.9C138.4 260 139.7 262.1 140.9 264.4C142.1 266.8 143.8 269.8 143.7 272.6C143.5 278.3 135.6 276.6 132.2 275.4C122.9 271.9 116.2 262.2 113.4 253.1C112.1 248.6 111.4 243.6 113 239.1C114.8 234.2 119.2 231.5 124.3 231.2C129.3 230.9 135 232.2 139.3 234.6C143.3 236.8 147.1 242.2 144.1 246.8C141.1 251.3 136 247.8 133.2 245.1C129 241.2 126.3 235.7 123.7 230.7C120.7 225 118.1 219.2 115.9 213.2C113.9 207.8 111.9 202.1 111.5 196.2C111.1 190.5 113 184.9 117.4 181.1C121.3 177.8 126.3 176 131.4 175.5C142 174.4 153.2 179.3 157.4 189.5C159.3 194.1 160 200.1 157.6 204.7C157 205.8 156.2 207.2 154.8 206.6C153.6 206.1 152.4 205.2 151.3 204.4C149.1 202.9 147 201.3 145.1 199.5C136.9 192.3 130.4 183 126.7 172.7C123.8 164.5 122.6 151.8 132.3 147.6C137.2 145.5 143.2 145.9 148.3 146.7C153.7 147.5 159.1 149.4 163 153.3C169.5 159.7 170.2 173.3 159.9 176.3C149 179.5 141.1 168.6 137 160.2C134.3 154.6 132 148.4 131.9 142.2C131.8 136.9 133.6 131.8 136.5 127.4C142.8 118 153.4 113 164.2 110.7C170.1 109.4 176.3 108.5 182.3 108.4C187.8 108.2 192.9 109.6 196.2 114.3C202.8 123.7 199.5 135.6 195 145.1C193.8 147.6 192.6 150.2 191.2 152.6C190.2 154.3 188.3 157.5 186.1 157.6C184.1 157.7 182.3 154.4 181.3 153C179.7 150.7 178.3 148.1 177.1 145.5C172.9 135.5 172.2 124 175.7 113.7C176.5 111.5 177.6 108.8 179.7 107.6C182.1 106.2 185.2 107.6 187.6 108.4C192.1 109.8 196.5 111.4 200.7 113.6C208.2 117.5 215 123.4 215.7 132.4C217.3 132.3 218.8 132.1 220.4 132C209.2 117.8 198.9 98.8999 208.3 81C212.3 73.4 219.1 67.4 227.3 64.8C235.6 62.2 246.2 62.9 253.2 68.5C258.4 72.7 263.3 82.5999 255.5 87C252.6 88.5999 249 88.2999 245.9 87.5C242.4 86.5999 238.4 85 235.7 82.5C232.2 79.4 234.4 74.9 237 72C240.2 68.5 244.5 66.1999 248.6 63.7999C257.1 58.9 266.4 54.5999 276.2 53.4999C285.7 52.3999 294.7 55.1999 301.4 62.0999C307.5 68.2999 310.6 77 307.5 85.4C308.6 85.1 309.8 84.7999 310.9 84.5C304.7 82.7 304.1 73.7999 306.8 69C310.8 61.7999 320.6 60.9 327.8 62.2C336 63.7 344.2 67.9 348.3 75.4C351.7 81.6 351.1 90.6999 345.8 95.6999C343.8 97.5999 338.7 100.5 337.1 96.6999C335.6 93.1999 336.6 88.3 337.7 84.9C340.3 77.4 346.6 71.2999 354 68.5999C369.7 62.8999 387 75.2999 391.7 90.1999C395.7 102.9 392 119.7 380 126.9C377.3 128.5 372.4 130.8 369.5 128.8C366.7 126.8 366.1 122.5 366.9 119.4C369.1 111.4 379.6 108.3 387 108.2C403.1 108.1 417.1 119.9 420.3 135.6C421.9 143.8 420.8 152.6 417.2 160.2C415.5 163.8 413.2 167.5 410.3 170.3C409.2 171.4 406.8 173.6 405.1 172.8C403.4 172.1 402.6 168.9 402 167.4C399.2 160.5 396 150.5 402.1 144.3C407.8 138.6 416.3 142.6 421.5 146.9C428 152.3 432 160.6 434.5 168.5C437.2 177.2 437.9 186.4 436.6 195.4C436 199.8 434.8 204 433.2 208.1C433.7 207.7 434.2 207.4 434.7 207C428.4 207.8 425 199.1 425.8 194.1C427 187 432.8 181.8 438.6 178.1C437.6 178.2 436.7 178.2 435.7 178.3C441.8 180.7 442.1 189.2 441.7 194.7C441.2 201.7 439.5 208.9 437.6 215.6C435.7 222.4 433 229.1 428.5 234.6C424.8 239.2 414.7 247.6 409.1 241.5C402.4 234.1 409.2 224.1 414.4 218.2C413 218.2 411.6 218.2 410.2 218.1C421.8 226.9 428.5 241.1 428.9 255.6C429.1 262.6 427.8 269.9 424.8 276.3C423.5 279 420.7 284 417.1 283.7C413.6 283.4 412 278 411.4 275.2C409.7 266.4 412.9 256.9 419.5 250.9C418.2 250.8 416.9 250.6 415.6 250.5C431.4 268.1 434.3 295.8 422.8 316.4C424.1 316.3 425.3 316.2 426.6 316.1C418.1 310.9 415.1 298.9 419.6 290.1C418.2 290.1 416.8 290.1 415.4 290C428.7 302.9 432.4 324.6 424.5 341.3C422.4 345.7 419.7 349.7 415.6 352.5C411.8 355.1 406.9 356.2 403.9 351.9C401.2 348 401.2 342.6 401.8 338C402.5 332.4 404.5 327.1 407.5 322.3C409.2 319.7 413.9 312.2 417.6 315.5C420.4 318 421.2 322.7 421.3 326.3C421.5 336.5 419.6 346.8 416.4 356.4C413.2 366 408.4 375 402.4 383.1C399.3 387.2 395.9 391.1 392.1 394.7C390.4 396.3 388.6 397.9 386.8 399.3C384.9 400.9 382.7 403 380.3 403.8C375.5 405.5 371.8 396.5 370.8 393C369.5 388.6 369.3 384.1 370 379.6C371.5 370.4 376.9 361.5 385.5 357.4C384.2 356.9 382.8 356.5 381.5 356C383.4 370.4 379.2 385.2 370.7 396.9C366.5 402.7 361.1 407.8 355 411.5C352.3 413.2 347.5 415.8 344.4 413.6C341.3 411.4 340.1 406.2 339.3 402.8C337 393.5 337.9 383.4 341.9 374.7C340.4 374.6 338.9 374.4 337.3 374.3C341.1 382.5 342.9 391.7 342.3 400.7C341.8 409 339.7 418.8 333.6 424.8C329 429.3 322 430.6 316 428.4C309.8 426.2 305.8 420.5 305.4 414C305 406.7 308.8 399 315.5 395.8C314.2 395.3 312.8 394.9 311.5 394.4C312.6 410.9 299.9 424.3 288.7 434.8C286.1 437.2 283 440.9 279.2 441.2C275.5 441.5 272.3 438.3 270.6 435.4C268.4 431.6 268.3 426.9 268.9 422.7C269.5 418.4 270.7 413.9 272.4 409.8C273.3 407.6 275.7 402.6 278.7 403C281.6 403.4 282.2 408.4 282.3 410.6C282.5 414.5 281.9 418.5 281.2 422.3C280.5 426.3 279.4 430.2 277.7 433.9C274.5 441 269.3 447.1 261.9 449.9C255.3 452.4 247.6 452.1 242.4 447C236.6 441.3 235.5 431.9 237.6 424.3C240.1 415.1 246.9 407.7 254.1 401.7C252.6 401.2 251.1 400.6 249.7 400.1C247.2 417.4 237.3 433.3 223.2 443.5C219.7 446.1 215.9 448.2 211.9 450C209.8 450.9 207 452.4 204.7 452C202.3 451.6 200.8 448.9 199.5 447.1C193.9 439 187.9 429 189.5 418.7C190.2 414.6 192.2 410.6 195.2 407.7C197.9 405 202.2 402.7 206.1 403.9C208.1 404.5 209.8 406.1 209.5 408.3C209.2 410.6 207.2 413.1 206 415.1C203.6 419 201 422.9 197.8 426.3C192.1 432.3 184.4 436.5 176 434.7C168.7 433.1 162.1 427.7 159.1 420.8C152.6 405.8 167 387.4 183.1 389.4C185 389.6 187.5 390.1 188.8 391.7C190.4 393.7 189.9 396.6 189.4 398.9C188.4 403.5 187 408.2 185.5 412.7C182.5 421.7 178 430.8 169.9 436.3C162.8 441.1 153.2 443 146.1 437.2C139.4 431.8 136.1 422.7 133.9 414.6C130.1 400.3 129.8 380.1 144 371.1C145 370.5 146 369.8 147 370.6C147.8 371.2 148.3 372.3 148.6 373.2C149.3 375.5 148.4 377.8 147.2 379.8C144.8 383.5 141.2 386.6 137.6 389.1C131.1 393.5 121 396.8 115.6 388.9C111.1 382.4 113.3 373.4 115.8 366.6C118.8 358.7 123.5 350.3 130.2 345.1C133.2 342.8 137 340.9 140.9 342C140.4 341.3 140 340.5 139.5 339.8C133.7 350.6 127 360.9 119.4 370.6C115.6 375.4 111.7 380 107.5 384.4C105.4 386.6 103.3 388.9 101 390.9C99.3 392.4 96.9 394.3 94.7 392.7C90.9 389.7 90.2 383.1 89.6 378.7C88.8 373 88.6 367.2 89 361.4C89.9 349.8 93.2 338.5 98.8 328.3C101.5 323.4 104.5 318.6 108.9 315.1C112.5 312.2 118 309.3 122.1 313.1C125.2 316 125.1 320.8 124.3 324.7C123.3 329.4 120.9 333.5 118 337.2C111 346.2 102.1 353.8 92.1 359.2C89.6 360.5 87 361.9 84.4 362.8C81.1 363.9 79.1 362.5 77 360C73.4 355.6 70.7 350.4 69 345.1C65.7 334.8 66 323.2 71.7 313.8C76.8 305.4 86.1 298.7 96.2 298.6C100.4 298.6 105.5 300.1 107.4 304.3C109.7 309.3 105.8 315.4 102.6 319.1C96.3 326.6 86.5 330.5 77.2 332.5C72 333.6 66.3 334.7 61 333.9C55.8 333.1 52.1 329.8 50.1 325C48.2 320.5 47.8 315.4 47.7 310.5C47.6 304.7 47.8 298.8 48.5 293.1C49.8 281.8 53.5 270.2 62.5 262.7C66.4 259.5 71 257.1 76 256.2C79.8 255.6 88.9 255.6 88.4 261.3C88.1 264.2 86.1 266.6 84.3 268.6C82.3 270.8 80.1 272.8 77.8 274.7C75.5 276.5 73.2 278.2 70.7 279.6C68.7 280.8 64.8 283.6 62.4 282.3C60.2 281.1 58.7 277.9 57.5 275.8C56.1 273.2 54.9 270.6 53.9 267.8C51.9 262.3 50.8 256.5 50.6 250.7C50.2 240.1 52.7 228.8 59.5 220.5C62.6 216.7 67 213.5 71.9 212.8C76.2 212.2 80.5 214.5 83.3 217.6C86.2 220.8 87.8 225.4 85.9 229.5C83.6 234.5 77.8 237.2 73.3 239.7C64.7 244.3 50.2 249.1 43.9 238.3C41 233.3 41.5 226.7 42 221.1C42.5 215.7 43.5 210.4 45.3 205.2C48.8 195.2 55.4 186 65.2 181.5C69.6 179.5 74.5 178.4 79.4 178.5C83.9 178.7 89.4 180.1 92.7 183.4C96.2 186.8 89.8 191.9 86.8 193.1C83.4 194.5 79.4 194.6 75.9 193.6C66.3 190.8 62.4 180.7 63.5 171.4C64.7 161 70.9 152 79.5 146.4C87.5 141.1 97.6 138.8 107.2 140.1C111.7 140.8 117.3 142.2 120.8 145.3C124.9 149 122.9 154.4 119.9 158.1C116.2 162.6 111 165.2 105.7 167.3C100 169.5 93.6 170.8 87.6 169.3C82.8 168.2 78.5 164.9 75.9 160.7C72.9 155.7 73.2 150.1 75.8 145C78.4 140 82.2 135.4 86 131.3C89.9 127.2 94.2 123.4 98.7 120.1C103.4 116.7 108.4 113.8 113.6 111.4C118.6 109.1 125.1 106.6 130.6 108.9C134.2 110.4 136.6 114.9 136.2 118.7C135.7 123 131.8 125.2 128.1 122.9C116.8 115.9 127.8 101.2 133.4 94.4C137.5 89.5 142 84.7999 146.9 80.6999C150.7 77.4999 156.1 73.4999 161.2 76.1999C165.3 78.3999 167.8 83.5999 166.6 88.1999C165.5 92.2999 161.5 95.4 157.4 95.9C153.1 96.3 149.8 93.0999 148.4 89.1999C146.9 84.8999 147.3 79.9 149.2 75.9C154.1 65.7 166.3 60.6999 175.8 56.0999C187.3 50.5999 199.1 45.6999 211.1 41.5999C212.2 41.1999 212.2 40.1 211.5 39.4C210.3 37.8 208.7 37.6999 207.6 38.0999Z" fill="white"/>
</g>
</svg>
