<svg width="500" height="500" viewBox="0 0 500 500" fill="none" xmlns="http://www.w3.org/2000/svg">
<mask id="mask0_201_734" style="mask-type:luminance" maskUnits="userSpaceOnUse" x="51" y="51" width="398" height="398">
<path d="M250 448.5C359.629 448.5 448.5 359.629 448.5 250C448.5 140.371 359.629 51.5 250 51.5C140.371 51.5 51.5 140.371 51.5 250C51.5 359.629 140.371 448.5 250 448.5Z" fill="white"/>
</mask>
<g mask="url(#mask0_201_734)">
<path d="M46.0001 113.9C76.6001 109.4 107.7 108.3 138.6 110.3C154 111.3 169.4 113.2 184.6 115.8C192 117.1 199.5 118.4 206.8 120.3C213.4 122 220 124.5 224.9 129.3C229.3 133.5 232.3 139.5 231.6 145.7C231 151.1 227.6 155.6 223.4 158.9C219.1 162.3 214 164.6 208.9 166.4C201.9 168.8 194.7 170.9 187.5 172.6C158.1 179.5 127.7 180.8 97.7001 179.8C66.0001 178.7 34.4001 175 2.80013 172.4C-1.19987 172.1 -5.09987 171.8 -9.09987 171.5C-10.1999 171.4 -11.5999 171.8 -12.4999 172.4C-13.2999 172.9 -13.1999 173.4 -12.1999 173.4C20.6001 175.8 53.3001 179.8 86.2001 181.4C117.4 182.9 148.9 182.2 179.6 176C187.2 174.5 194.8 172.6 202.2 170.4C208.7 168.5 215.1 166.4 221.1 163.2C226 160.6 230.8 157.2 233.8 152.5C237 147.5 237.5 141.4 235.2 135.9C229.5 122.5 213.9 119.1 201.1 116.6C185.5 113.4 169.8 111.1 154 109.7C122.3 106.7 90.3001 107.1 58.7001 110.9C54.8001 111.4 51.0001 111.9 47.1001 112.4C46.4001 112.5 44.5001 112.9 44.2001 113.7C43.8001 114.3 45.7001 114 46.0001 113.9Z" fill="white"/>
</g>
<mask id="mask1_201_734" style="mask-type:luminance" maskUnits="userSpaceOnUse" x="51" y="51" width="398" height="398">
<path d="M250 448.5C359.629 448.5 448.5 359.629 448.5 250C448.5 140.371 359.629 51.5 250 51.5C140.371 51.5 51.5 140.371 51.5 250C51.5 359.629 140.371 448.5 250 448.5Z" fill="white"/>
</mask>
<g mask="url(#mask1_201_734)">
<path d="M406.2 101.9C370.5 105.7 334.8 109.6 299.5 116.2C291 117.8 282.4 119.2 274.1 121.7C267 123.8 260.3 127.3 256.3 133.7C252.7 139.5 252.2 146.6 256 152.4C259.5 157.7 265.6 160.6 271.4 162.3C279 164.5 287 165.4 294.8 166.3C303.7 167.4 312.6 168.1 321.6 168.6C339.7 169.6 357.8 169.9 375.9 170.1C412.5 170.4 449.2 169.4 485.8 168.4C522.3 167.3 558.8 166.2 595.3 165.9C599.7 165.9 604.2 165.9 608.6 165.9C611.7 165.9 610.3 161.5 607.8 161.5C572.2 161.5 536.6 162.5 501.1 163.6C465.5 164.6 430 165.7 394.4 165.8C376.6 165.9 358.9 165.7 341.1 165.2C323.7 164.7 306.2 163.7 288.9 161.4C281.9 160.4 274.5 159.6 267.9 156.9C262.8 154.8 257.9 151 257.8 145C257.7 138 262.9 132.2 268.8 129.1C275.7 125.4 283.9 124.2 291.5 122.7C325.7 115.8 360.4 111.7 395 107.9C399.3 107.4 403.7 107 408 106.5C409.3 106.4 409.5 104.9 409.1 103.9C408.7 102.5 407.4 101.8 406.2 101.9Z" fill="white"/>
</g>
<mask id="mask2_201_734" style="mask-type:luminance" maskUnits="userSpaceOnUse" x="51" y="51" width="398" height="398">
<path d="M250 448.5C359.629 448.5 448.5 359.629 448.5 250C448.5 140.371 359.629 51.5 250 51.5C140.371 51.5 51.5 140.371 51.5 250C51.5 359.629 140.371 448.5 250 448.5Z" fill="white"/>
</mask>
<g mask="url(#mask2_201_734)">
<path d="M141.6 63.3C156.4 62.4 171.4 62 186.2 62.6C188.9 62.7 191.7 63 194.3 63.7C195.5 64 196.6 64.5 197.6 65.1C198.1 65.4 198.6 65.7 199 66.1C199.1 66.2 199.3 66.4 199.4 66.5C199.2 66 199.5 66.6 199.4 66.5C200.5 68.8 199.9 71.9 199.1 74.2C198.2 76.7 196.5 79.1 194.6 80.9C185.9 89.1 172.8 89.6 161.5 89.5C146.7 89.4 132 89.2 117.2 89C100.4 88.8 83.6998 88.6 66.8998 88.5C66.1998 88.5 67.1998 90.1 67.2998 90.3C67.5998 90.8 68.5998 92.6 69.2998 92.7C100.7 93 132.1 93.5 163.5 93.7C175.1 93.8 189.1 93.4 197.9 84.6C201.8 80.7 204.2 74.7 202.2 69.3C201.1 66.4 199.2 63.7 196.7 61.8C194.5 60.1 191.8 59.3 189.1 58.8C185.5 58.2 181.8 58.2 178.1 58.1C173.8 58 169.5 58 165.2 58C156.4 58.1 147.6 58.4 138.8 58.9C138.4 58.9 139.6 61.1 139.7 61.3C140.1 62 140.8 63.4 141.6 63.3Z" fill="white"/>
</g>
<mask id="mask3_201_734" style="mask-type:luminance" maskUnits="userSpaceOnUse" x="51" y="51" width="398" height="398">
<path d="M250 448.5C359.629 448.5 448.5 359.629 448.5 250C448.5 140.371 359.629 51.5 250 51.5C140.371 51.5 51.5 140.371 51.5 250C51.5 359.629 140.371 448.5 250 448.5Z" fill="white"/>
</mask>
<g mask="url(#mask3_201_734)">
<path d="M353.5 43.9C339.7 43.7 325.9 43.6 312 43.4C298.9 43.3 285.7 42.6 272.6 43.5C259.7 44.3 247.2 47.1 235.8 53.4C230.6 56.3 225.4 59.6 220.9 63.4C218.9 65.1 217.1 67.2 216.2 69.7C215.4 72 215.5 74.5 216.1 76.9C219.2 88.5 232.4 91.3 242.6 92.5C255.7 94.1 269 93.5 282.1 92C295.5 90.5 308.7 88.2 322.1 86.4C335.6 84.6 349.1 83.2 362.7 82.1C389.8 80 416.9 79.1 444 78.3C447.3 78.2 450.6 78.1 453.9 78C455.1 78 456.3 77.7 457.4 77.4C458.1 77.2 458.3 77 457.3 77C431 77.7 404.7 78.5 378.4 80.2C365.3 81.1 352.2 82.2 339.1 83.6C326.1 85.1 313.1 87.1 300.2 89C287.4 90.9 274.5 92.5 261.6 92.4C255.2 92.3 248.7 91.9 242.4 90.8C237 89.9 231.4 88.4 227 84.9C223.2 81.9 220.5 77.2 220.6 72.3C220.7 66.6 225 63 229.3 59.9C239 52.9 249.6 47.1 261.5 45.2C273.9 43.3 286.8 44.1 299.3 44.2C312.6 44.4 325.9 44.5 339.3 44.7C342.6 44.7 346 44.8 349.3 44.8C350.4 44.8 351.6 44.6 352.7 44.3C352.9 44.4 354.5 43.9 353.5 43.9Z" fill="white"/>
</g>
<mask id="mask4_201_734" style="mask-type:luminance" maskUnits="userSpaceOnUse" x="51" y="51" width="398" height="398">
<path d="M250 448.5C359.629 448.5 448.5 359.629 448.5 250C448.5 140.371 359.629 51.5 250 51.5C140.371 51.5 51.5 140.371 51.5 250C51.5 359.629 140.371 448.5 250 448.5Z" fill="white"/>
</mask>
<g mask="url(#mask4_201_734)">
<path d="M46.9002 208.2C104 204.6 161.2 203.4 218.4 204.8C247.2 205.5 275.9 206.8 304.6 208.8C318.9 209.8 333.2 210.9 347.5 212.2C360.8 213.4 374.5 214.2 387.2 218.6C391.7 220.1 400.5 223 399.7 229.2C399 234.6 393.6 239.2 389.3 241.9C384.3 245 378.7 246.9 373.1 248.5C366.5 250.4 359.7 251.9 352.9 253C339.1 255.2 325.2 256.2 311.2 257.1C297 258 282.8 258.7 268.6 259.1C211.2 261 153.7 260.9 96.3002 261.1C38.7002 261.3 -18.8998 261.2 -76.4998 261C-83.4998 261 -90.4998 261 -97.4998 260.9C-100.4 260.9 -101.2 265.3 -97.8998 265.3C-38.5998 265.4 20.6002 265.6 79.9002 265.5C138.8 265.4 197.8 265.5 256.8 263.8C285.7 263 314.8 262.1 343.5 258.6C356.9 257 370.7 254.6 383.3 249.5C388.3 247.5 393.3 244.9 397.3 241.1C401.1 237.6 405.3 232 404.5 226.5C403.8 221.2 398.7 218.1 394.2 216.2C388 213.5 381.4 211.9 374.8 210.7C360.8 208.3 346.5 207.5 332.3 206.3C303.1 203.9 273.8 202.1 244.6 201.1C186.1 198.9 127.5 199.4 69.1002 202.5C61.8002 202.9 54.6002 203.3 47.3002 203.8C44.4002 203.9 43.6002 208.4 46.9002 208.2Z" fill="white"/>
</g>
<mask id="mask5_201_734" style="mask-type:luminance" maskUnits="userSpaceOnUse" x="51" y="51" width="398" height="398">
<path d="M250 448.5C359.629 448.5 448.5 359.629 448.5 250C448.5 140.371 359.629 51.5 250 51.5C140.371 51.5 51.5 140.371 51.5 250C51.5 359.629 140.371 448.5 250 448.5Z" fill="white"/>
</mask>
<g mask="url(#mask5_201_734)">
<path d="M465.3 215.6C457.4 217.3 449.9 220.4 443.1 224.7C439.7 226.8 436.6 229.3 433.6 232C431.2 234.3 426.6 237.9 428 241.7C428.7 243.6 430.6 244.8 432.3 245.8C434.1 246.9 436.1 247.8 438.1 248.5C442.3 250 446.6 250.9 451 251.5C460.3 252.6 469.8 252.8 479.2 252.9C490.3 253 501.4 252.7 512.5 252.3C513.5 252.3 513.7 251.6 513.1 250.9C512.3 250.1 510.9 249.6 509.8 249.6C491.7 250.1 473.5 250.7 455.4 249.4C451.5 249.1 447.6 248.8 443.8 247.9C440.4 247.1 436.6 246.1 433.7 244C430.1 241.4 435.3 236.9 437.2 235C439.9 232.4 442.8 230.1 445.9 228C452.9 223.3 460.7 219.9 469 218.2C470.1 218 469.2 216.9 468.7 216.5C467.8 215.9 466.5 215.4 465.3 215.6Z" fill="white"/>
</g>
<mask id="mask6_201_734" style="mask-type:luminance" maskUnits="userSpaceOnUse" x="51" y="51" width="398" height="398">
<path d="M250 448.5C359.629 448.5 448.5 359.629 448.5 250C448.5 140.371 359.629 51.5 250 51.5C140.371 51.5 51.5 140.371 51.5 250C51.5 359.629 140.371 448.5 250 448.5Z" fill="white"/>
</mask>
<g mask="url(#mask6_201_734)">
<path d="M478 262.8C427.3 267.3 376.5 271.3 325.7 274.7C300.4 276.4 275.2 278 249.9 279.4C237.1 280.1 224.3 280.8 211.5 281.5C205.7 281.8 199.7 281.6 194 282.7C189.6 283.6 185.1 285.9 183.5 290.5C179.9 300.8 193.8 306.7 201.3 309C212.1 312.3 223.6 312.4 234.8 312.9C260.1 314.1 285.5 315.2 310.8 316.4C361.6 318.7 412.5 321.1 463.3 323.4C514.1 325.7 565 328.1 615.8 330.4C622.1 330.7 628.3 331 634.6 331.3C635.7 331.4 635 329.4 634.8 329C634.3 328.1 633.4 327.1 632.3 327.1C582.8 324.8 533.3 322.5 483.8 320.3C434.3 318 384.8 315.7 335.3 313.5C310.6 312.4 285.8 311.2 261.1 310.1C248.9 309.5 236.6 309 224.4 308.4C213.6 307.9 202.2 307 192.3 302C190.4 301 187.6 299.8 186.8 297.6C185.9 295.2 187.4 292.3 189.1 290.6C192.7 286.9 198.3 286.7 203.1 286.4C215.6 285.7 228.1 285.1 240.6 284.4C265.3 283 290 281.5 314.6 279.9C363.9 276.7 413.2 272.9 462.5 268.6C468.4 268.1 474.4 267.6 480.3 267C482.1 266.9 479.6 262.6 478 262.8Z" fill="white"/>
</g>
<mask id="mask7_201_734" style="mask-type:luminance" maskUnits="userSpaceOnUse" x="51" y="51" width="398" height="398">
<path d="M250 448.5C359.629 448.5 448.5 359.629 448.5 250C448.5 140.371 359.629 51.5 250 51.5C140.371 51.5 51.5 140.371 51.5 250C51.5 359.629 140.371 448.5 250 448.5Z" fill="white"/>
</mask>
<g mask="url(#mask7_201_734)">
<path d="M44.3999 285.8C64.7999 285.4 85.2999 284.9 105.7 285.6C115.5 285.9 125.4 286.3 135.1 287.4C142 288.2 149.8 289.6 155.2 294.3C157.9 296.7 160 300.1 158.1 303.7C157.2 305.5 155.6 307 154.1 308.4C152.7 309.7 151.1 310.9 149.5 312C143 316.4 135.3 318.7 127.6 320.2C118.8 321.8 109.8 322.3 100.9 322.8C90.6999 323.3 80.5999 323.6 70.3999 323.6C49.8999 323.7 29.4999 323.2 8.99992 323.4C6.39992 323.4 3.89992 323.5 1.29992 323.5C0.099923 323.5 2.19992 327.8 3.69992 327.7C24.9999 327.3 46.2999 327.8 67.5999 327.8C78.1999 327.8 88.7999 327.6 99.3999 327.1C108.9 326.7 118.4 326.2 127.7 324.7C135.7 323.4 143.7 321.3 150.7 317.1C154.1 315 157.4 312.5 159.9 309.3C161.3 307.6 162.2 305.7 162.1 303.4C162 301.1 161 298.8 159.8 296.9C155.6 290 148.5 286.2 140.8 284.4C131.9 282.3 122.6 282.1 113.5 281.6C92.2999 280.5 71.0999 280.8 49.9999 281.3C47.3999 281.4 44.6999 281.4 42.0999 281.5C40.7999 281.6 42.8999 285.8 44.3999 285.8Z" fill="white"/>
</g>
<mask id="mask8_201_734" style="mask-type:luminance" maskUnits="userSpaceOnUse" x="51" y="51" width="398" height="398">
<path d="M250 448.5C359.629 448.5 448.5 359.629 448.5 250C448.5 140.371 359.629 51.5 250 51.5C140.371 51.5 51.5 140.371 51.5 250C51.5 359.629 140.371 448.5 250 448.5Z" fill="white"/>
</mask>
<g mask="url(#mask8_201_734)">
<path d="M77.4002 357.5C116.6 354.4 156.1 353.9 195.4 355.9C215.1 356.9 234.7 358.6 254.3 360.9C263.9 362 273.5 363.1 283 364.8C287.7 365.6 292.4 366.6 296.9 368C300.5 369.1 305.1 370.2 307.9 372.9C310.7 375.4 310.6 379.7 309.5 383C308.2 386.6 305.2 389.4 302.1 391.5C294.8 396.5 285.9 399.5 277.5 402.1C259.4 407.7 240.5 411 221.8 413.6C183.7 419 145.2 420.4 106.8 420.6C68.2002 420.8 29.5001 419.8 -9.09985 420.5C-13.7999 420.6 -18.4999 420.7 -23.1999 420.8C-24.3999 420.8 -25.0999 422 -24.7999 423.1C-24.4999 424.3 -23.0999 425.2 -21.8999 425.1C17.8002 424 57.5002 424.9 97.2001 424.9C136.7 424.9 176.3 424 215.5 418.9C234.7 416.4 254 413.2 272.8 408.2C281.9 405.8 290.9 402.7 299.3 398.5C306.4 394.9 313.8 389.9 314.8 381.4C315.3 377.6 314.2 373.7 311.6 370.8C308.7 367.7 304.4 366.2 300.4 364.8C291.2 361.7 281.6 360.1 272.1 358.8C252.1 356.1 232 354 211.8 352.6C171.7 349.8 131.4 349.6 91.2001 352.1C86.2001 352.4 81.2001 352.8 76.1002 353.2C73.0002 353.4 74.8002 357.7 77.4002 357.5Z" fill="white"/>
</g>
<mask id="mask9_201_734" style="mask-type:luminance" maskUnits="userSpaceOnUse" x="51" y="51" width="398" height="398">
<path d="M250 448.5C359.629 448.5 448.5 359.629 448.5 250C448.5 140.371 359.629 51.5 250 51.5C140.371 51.5 51.5 140.371 51.5 250C51.5 359.629 140.371 448.5 250 448.5Z" fill="white"/>
</mask>
<g mask="url(#mask9_201_734)">
<path d="M437.1 353.8C421.2 353.9 405.2 355.8 389.7 359.6C381.9 361.5 374.2 363.9 366.7 366.7C359.8 369.3 352.4 371.9 346.7 376.8C341.7 381.1 338.2 388.3 340.5 394.9C342.7 401.2 348.8 404.8 354.6 407.3C368.9 413.3 384.4 416.6 399.7 418.7C415.4 420.8 431.2 421.6 447 422.1C449 422.2 451 422.2 453 422.3C454 422.3 455.1 421.6 454.8 420.5C454.5 419.3 453 418.6 451.9 418.6C422.2 417.6 391.7 416.7 363.3 406.9C357.8 405 351.2 403 347.2 398.5C343 393.7 344.5 386.7 348.3 382.1C352.8 376.8 359.7 374.1 366 371.6C373.1 368.8 380.3 366.4 387.6 364.5C404.1 360.1 421.1 357.8 438.1 357.7C439.1 357.7 440.2 357.1 439.9 355.9C439.7 354.6 438.2 353.8 437.1 353.8Z" fill="white"/>
</g>
<mask id="mask10_201_734" style="mask-type:luminance" maskUnits="userSpaceOnUse" x="51" y="51" width="398" height="398">
<path d="M250 448.5C359.629 448.5 448.5 359.629 448.5 250C448.5 140.371 359.629 51.5 250 51.5C140.371 51.5 51.5 140.371 51.5 250C51.5 359.629 140.371 448.5 250 448.5Z" fill="white"/>
</mask>
<g mask="url(#mask10_201_734)">
<path d="M150.1 445.6C179.7 443.3 209.6 441 239.2 444.4C261.1 446.9 289.9 452.6 299 475.8C303.2 486.6 302.6 499.7 294.2 508.3C292.9 509.6 296.6 512.9 298 511.5C305.9 503.4 307.2 491.4 304.4 480.9C301.3 469.1 293 459.8 282.7 453.6C271.7 447 259.1 443.8 246.5 441.8C231.1 439.4 215.5 438.7 199.9 438.9C182.5 439.1 165.1 440.4 147.7 441.7C146.5 441.8 146.7 443 147.1 443.8C147.7 444.7 148.9 445.7 150.1 445.6Z" fill="white"/>
</g>
<mask id="mask11_201_734" style="mask-type:luminance" maskUnits="userSpaceOnUse" x="51" y="51" width="398" height="398">
<path d="M250 448.5C359.629 448.5 448.5 359.629 448.5 250C448.5 140.371 359.629 51.5 250 51.5C140.371 51.5 51.5 140.371 51.5 250C51.5 359.629 140.371 448.5 250 448.5Z" fill="white"/>
</mask>
<g mask="url(#mask11_201_734)">
<path d="M85 127C103.8 125.9 122.6 124.8 141.4 125.1C150.8 125.2 160.3 125.7 169.6 126.6C174.1 127.1 178.6 127.5 183 128.4C186.8 129.2 190.8 130.2 194.1 132.3C196.8 134.1 198.8 137 198.8 140.4C198.7 144.1 196.2 147.5 193.2 149.4C189.8 151.7 185.6 152.6 181.6 153.3C177.1 154.2 172.5 154.9 168 155.6C149.6 158.2 131.1 159.1 112.6 159.6C94 160 75.4 159.9 56.7 160.4C54.4 160.5 52.2 160.5 49.9 160.6C48.8 160.6 49.5 161.7 49.9 162.1C50.6 162.8 51.8 163.8 52.9 163.8C72.2 163.1 91.6 163.2 110.9 162.9C130.1 162.6 149.2 161.7 168.2 159.2C173 158.6 177.8 157.8 182.5 157C186.8 156.2 191.2 155.5 195.1 153.5C198.5 151.8 201.5 148.9 202.5 145.2C203.5 141.6 202.2 138 199.9 135.2C194.3 128.3 185.1 125.9 176.7 124.6C167.1 123.1 157.5 122.4 147.8 122C128.3 121.2 108.7 122.2 89.2 123.3C86.7 123.4 84.3 123.6 81.8 123.7C80.7 123.8 81.4 124.8 81.8 125.2C82.6 126 83.9 127.1 85 127Z" fill="white"/>
</g>
<mask id="mask12_201_734" style="mask-type:luminance" maskUnits="userSpaceOnUse" x="51" y="51" width="398" height="398">
<path d="M250 448.5C359.629 448.5 448.5 359.629 448.5 250C448.5 140.371 359.629 51.5 250 51.5C140.371 51.5 51.5 140.371 51.5 250C51.5 359.629 140.371 448.5 250 448.5Z" fill="white"/>
</mask>
<g mask="url(#mask12_201_734)">
<path d="M60.9001 147.3C84.9001 145.5 108.9 144.6 132.9 144.4C136.2 144.4 139.5 144.4 142.8 144.4C144.3 144.4 145.9 144.3 147.4 144.5C148.4 144.6 149.2 144.8 149.5 145.8C149.6 145.4 149.7 145 149.7 144.6C146.6 148.8 140.4 149.5 135.6 150.2C128.9 151.2 122.1 151.6 115.3 151.9C101.4 152.6 87.4001 153 73.5001 153.1C65.7001 153.1 57.9001 153.1 50.1001 152.9C48.9001 152.9 47.6001 153.3 46.9001 154.4C46.4001 155.2 46.6001 156.3 47.8001 156.3C61.6001 156.6 75.4001 156.5 89.2001 156.2C96.0001 156 102.8 155.8 109.6 155.5C116.4 155.2 123.3 154.9 130 154.1C135.8 153.4 142.2 152.7 147.5 150.1C148.8 149.5 150 148.7 151.1 147.8C152 147 153.7 145.8 154 144.6C154.7 142.2 150.8 141.2 149.2 141.1C145.8 140.9 142.4 141.1 139.1 141.1C135.6 141.1 132.1 141.1 128.7 141.2C121.9 141.3 115.1 141.4 108.3 141.6C92.9001 142.1 77.5001 142.9 62.1001 144C61.0001 144.1 59.5001 144.8 59.2001 145.9C58.9001 147 60.0001 147.4 60.9001 147.3Z" fill="white"/>
</g>
<mask id="mask13_201_734" style="mask-type:luminance" maskUnits="userSpaceOnUse" x="51" y="51" width="398" height="398">
<path d="M250 448.5C359.629 448.5 448.5 359.629 448.5 250C448.5 140.371 359.629 51.5 250 51.5C140.371 51.5 51.5 140.371 51.5 250C51.5 359.629 140.371 448.5 250 448.5Z" fill="white"/>
</mask>
<g mask="url(#mask13_201_734)">
<path d="M415.1 108C397.2 111.4 379.4 115.5 361.7 119.9C344 124.3 326.4 128.8 308.8 133.6C304.4 134.8 300 136 295.7 137.4C293.6 138.1 291.5 138.7 289.4 139.5C288.2 139.9 285.8 140.6 286 142.3C286.2 143.9 288.5 144.4 289.8 144.8C292 145.4 294.3 145.8 296.6 146C301.2 146.5 305.8 146.5 310.4 146.6C328.9 147.1 347.5 147.5 366 147.8C384.5 148 403.1 148.1 421.6 147.8C423.9 147.8 426.3 147.7 428.6 147.7C429.1 147.7 430.2 147.7 429.6 147.1C429 146.5 427 146.5 426.2 146.5C408.2 146.9 390.3 147 372.3 146.8C354.4 146.6 336.5 146.2 318.7 145.8C314.2 145.7 309.7 145.6 305.2 145.5C301.2 145.4 297 145.5 293 144.6C292.3 144.4 291.4 144.3 291 143.6C290.5 142.7 291.1 141.9 291.9 141.5C293.5 140.5 295.7 140 297.5 139.4C301.7 138 305.9 136.8 310.1 135.7C327.1 131 344.2 126.7 361.3 122.4C378.4 118.1 395.5 114.1 412.7 110.7C414.9 110.3 417 109.8 419.2 109.4C420.2 109.2 418.6 108.7 418.4 108.6C417.4 108 416.2 107.8 415.1 108Z" fill="white"/>
</g>
<mask id="mask14_201_734" style="mask-type:luminance" maskUnits="userSpaceOnUse" x="51" y="51" width="398" height="398">
<path d="M250 448.5C359.629 448.5 448.5 359.629 448.5 250C448.5 140.371 359.629 51.5 250 51.5C140.371 51.5 51.5 140.371 51.5 250C51.5 359.629 140.371 448.5 250 448.5Z" fill="white"/>
</mask>
<g mask="url(#mask14_201_734)">
<path d="M416.5 120.8C407.2 122.3 397.8 123.8 388.5 125.3C379.3 126.8 370.1 128.2 360.9 130C356.4 130.9 352 132.1 348.2 134.7C347.5 135.2 350.5 138.5 351.2 138.6C357.1 139.2 363.1 139.2 369 139C375 138.9 380.9 138.7 386.9 138.6C398.9 138.3 410.9 138 423 137.7C429.8 137.5 436.6 137.4 443.4 137.2C444.1 137.2 443 135.6 442.8 135.4C442.4 134.9 441.4 133.2 440.6 133.3C416.6 133.9 392.5 134.5 368.5 135.1C361.8 135.3 355.1 135.4 348.5 134.7C349.5 136 350.5 137.3 351.5 138.6C354.8 136.3 358.7 135.1 362.6 134.2C366.9 133.3 371.3 132.6 375.7 131.9C385.1 130.3 394.5 128.8 403.9 127.3C409.2 126.5 414.5 125.6 419.9 124.8C420.3 124.7 418.9 122.7 418.8 122.5C418.1 121.9 417.2 120.7 416.5 120.8Z" fill="white"/>
</g>
<mask id="mask15_201_734" style="mask-type:luminance" maskUnits="userSpaceOnUse" x="51" y="51" width="398" height="398">
<path d="M250 448.5C359.629 448.5 448.5 359.629 448.5 250C448.5 140.371 359.629 51.5 250 51.5C140.371 51.5 51.5 140.371 51.5 250C51.5 359.629 140.371 448.5 250 448.5Z" fill="white"/>
</mask>
<g mask="url(#mask15_201_734)">
<path d="M306.2 44.3C292.8 46.9 279.5 50 266.5 53.9C260.2 55.7 253.7 57.5 247.6 59.9C245.7 60.6 243.3 61.9 243.1 64.2C243 66.7 245.6 68.2 247.6 69C253.7 71.2 260.6 71.4 267 71.3C274 71.3 281 71.1 288 70.9C302.1 70.5 316.2 69.9 330.4 69.3C346.2 68.7 362 68 377.8 67.4C378.1 67.4 380.3 67.4 380.3 66.9C380.3 66.5 377.9 66.6 377.8 66.6C350.8 67.7 323.8 68.8 296.7 69.8C290 70 283.3 70.3 276.5 70.4C270.2 70.5 263.7 70.9 257.5 69.8C254.8 69.4 251.6 68.8 249.5 67C247.6 65.3 247.7 62.8 249.7 61.3C251.9 59.7 254.8 59.1 257.3 58.2C260.5 57.1 263.7 56.1 267 55.2C281 51 295.3 47.5 309.7 44.7C310.5 44.5 310.5 44.3 309.7 44.1C308.6 44 307.3 44.1 306.2 44.3Z" fill="white"/>
</g>
<mask id="mask16_201_734" style="mask-type:luminance" maskUnits="userSpaceOnUse" x="51" y="51" width="398" height="398">
<path d="M250 448.5C359.629 448.5 448.5 359.629 448.5 250C448.5 140.371 359.629 51.5 250 51.5C140.371 51.5 51.5 140.371 51.5 250C51.5 359.629 140.371 448.5 250 448.5Z" fill="white"/>
</mask>
<g mask="url(#mask16_201_734)">
<path d="M328.4 53.4C308.2 54.4 288.1 56.8 268.3 60.6C268.3 60.6 269.8 62 269.9 62.1C270.6 62.6 271.4 63.2 272.2 63.6C277.6 65.8 283.5 65.9 289.3 65.7C295.8 65.4 302.4 65.1 308.9 64.8C322 64.2 335.2 63.5 348.3 62.9C355.8 62.5 363.3 62.2 370.7 61.8C370.8 61.8 370.1 61.1 370.2 61.2C369.8 60.8 369.3 60.4 368.8 60.1C368.3 59.7 367.3 58.8 366.6 58.8C340.4 60.1 314.3 61.3 288.1 62.6C281.4 62.9 274.6 63.2 268.3 60.6C269.6 61.6 270.9 62.6 272.2 63.6C292.1 59.8 312.1 57.4 332.3 56.4C332.4 56.4 331.7 55.7 331.8 55.8C331.4 55.4 330.9 55 330.4 54.7C330 54.3 329.1 53.4 328.4 53.4Z" fill="white"/>
</g>
<mask id="mask17_201_734" style="mask-type:luminance" maskUnits="userSpaceOnUse" x="51" y="51" width="398" height="398">
<path d="M250 448.5C359.629 448.5 448.5 359.629 448.5 250C448.5 140.371 359.629 51.5 250 51.5C140.371 51.5 51.5 140.371 51.5 250C51.5 359.629 140.371 448.5 250 448.5Z" fill="white"/>
</mask>
<g mask="url(#mask17_201_734)">
<path d="M128.5 66.5C136.4 66 144.4 66 152.3 66.5C156.3 66.7 160.3 67.1 164.2 67.6C167.6 68 171.2 68.3 174.4 69.4C175.7 69.8 177 70.5 178 71.5C179.3 72.9 178 74.1 176.8 75.1C174.6 77 172 78.1 169.3 78.8C166.3 79.6 163.1 80 160 80.3C156.1 80.7 152.2 81 148.4 81.1C139.6 81.5 130.7 81.4 121.8 81.3C120.7 81.3 119.2 81.8 118.7 82.9C118.3 84 119.3 84.6 120.2 84.6C128.9 84.7 137.6 84.8 146.3 84.4C154.2 84.1 162.4 83.7 170 81.7C173.4 80.8 176.7 79.4 179.4 77.2C180.7 76.1 182.2 74.8 183 73.3C183.9 71.6 183.2 69.9 181.8 68.7C179.1 66.4 175.6 65.6 172.1 65.1C167.8 64.4 163.5 63.9 159.1 63.5C149.4 62.6 139.6 62.5 129.9 63.1C128.8 63.2 127.3 63.6 126.8 64.7C126.6 65.9 127.5 66.6 128.5 66.5Z" fill="white"/>
</g>
<mask id="mask18_201_734" style="mask-type:luminance" maskUnits="userSpaceOnUse" x="51" y="51" width="398" height="398">
<path d="M250 448.5C359.629 448.5 448.5 359.629 448.5 250C448.5 140.371 359.629 51.5 250 51.5C140.371 51.5 51.5 140.371 51.5 250C51.5 359.629 140.371 448.5 250 448.5Z" fill="white"/>
</mask>
<g mask="url(#mask18_201_734)">
<path d="M21.4999 217.8C65.9999 216.4 110.6 216.2 155.1 217.2C199.8 218.2 244.5 220.5 289.1 224C301.5 225 314 226 326.4 227.2C338.4 228.3 350.6 229.1 362.2 232.9C361.9 232.3 361.7 231.8 361.4 231.2C358.7 235.3 354 237 349.4 237.9C343.6 239 337.6 239.4 331.7 240C318.3 241.4 304.8 242.7 291.3 243.8C264.5 246.1 237.6 248 210.8 249.5C183.9 251 157 252.2 130.1 253.1C103.2 254 76.2999 254.7 49.2999 255.3C22.3999 255.9 -4.50008 256.3 -31.5001 256.7C-34.8001 256.8 -38.2001 256.8 -41.5001 256.9C-44.1001 256.9 -45.5001 260.1 -42.2001 260C-14.7001 259.6 12.6999 259.2 40.1999 258.6C67.6999 258.1 95.0999 257.4 122.6 256.5C150 255.6 177.5 254.5 204.9 253C232.3 251.5 259.7 249.7 287 247.4C300.6 246.2 314.2 245 327.8 243.6C334.1 242.9 340.5 242.4 346.8 241.5C351.7 240.8 356.7 239.6 360.9 236.9C362.9 235.6 364.6 233.9 366 231.9C366.5 231.2 365.9 230.4 365.2 230.2C355.1 226.9 344.5 225.8 334 224.7C322.8 223.6 311.6 222.6 300.3 221.7C277.8 219.9 255.3 218.3 232.8 217.1C187.9 214.7 142.8 213.5 97.7999 213.5C72.5999 213.5 47.3999 213.9 22.0999 214.7C21.1999 214.7 19.4999 215.3 19.2999 216.4C19.1999 217.5 20.5999 217.8 21.4999 217.8Z" fill="white"/>
</g>
<mask id="mask19_201_734" style="mask-type:luminance" maskUnits="userSpaceOnUse" x="51" y="51" width="398" height="398">
<path d="M250 448.5C359.629 448.5 448.5 359.629 448.5 250C448.5 140.371 359.629 51.5 250 51.5C140.371 51.5 51.5 140.371 51.5 250C51.5 359.629 140.371 448.5 250 448.5Z" fill="white"/>
</mask>
<g mask="url(#mask19_201_734)">
<path d="M27.8002 231.2C61.7002 231.5 95.5002 231.9 129.4 232.4C163.3 232.9 197.1 233.5 231 234.1C250.1 234.5 269.2 234.9 288.3 235.3C287.6 233.8 286.9 232.3 286.3 230.9C268.1 236.9 248.3 236.5 229.4 237.1C209.1 237.7 188.8 238.3 168.4 238.9C127.8 240 87.1002 240.9 46.5002 241.6C23.7002 242 0.900181 242.3 -21.8998 242.6C-23.7998 242.6 -21.6998 247.1 -19.8998 247C20.8002 246.5 61.4002 245.8 102.1 244.9C142.7 244 183.4 242.9 224 241.7C235 241.4 245.9 241.2 256.9 240.5C267.5 239.9 278.2 238.6 288.4 235.2C290.6 234.5 288 230.8 286.4 230.8C252.5 230 218.7 229.3 184.8 228.8C150.9 228.3 117.1 227.7 83.2002 227.3C64.1002 227.1 45.0002 226.9 25.9002 226.7C24.8002 226.7 25.2002 228.5 25.5002 229.1C25.7002 230.1 26.6002 231.2 27.8002 231.2Z" fill="white"/>
</g>
<mask id="mask20_201_734" style="mask-type:luminance" maskUnits="userSpaceOnUse" x="51" y="51" width="398" height="398">
<path d="M250 448.5C359.629 448.5 448.5 359.629 448.5 250C448.5 140.371 359.629 51.5 250 51.5C140.371 51.5 51.5 140.371 51.5 250C51.5 359.629 140.371 448.5 250 448.5Z" fill="white"/>
</mask>
<g mask="url(#mask20_201_734)">
<path d="M474.5 277.1C457.2 276.2 440 276.3 422.7 277C405.4 277.7 388.2 279 370.9 280.2C353.6 281.5 336.3 282.8 319 283.5C301.8 284.3 284.6 284.1 267.4 284.2C258.9 284.3 250.4 284.5 241.9 285.3C237.7 285.7 233.4 286.2 229.2 286.9C225.9 287.4 222.4 287.9 219.5 289.7C218.2 290.5 217.1 291.6 216.3 293C215.5 294.4 217.1 296.2 218.3 296.7C221.8 298.3 225.7 298.6 229.5 298.7C233.7 298.8 237.9 298.7 242.1 298.8C250.5 298.8 259 298.9 267.4 298.9C284.3 299 301.1 299 318 299.1C351.9 299.2 385.8 299.4 419.7 299.5C438.8 299.6 457.9 299.7 477 299.7C479.7 299.7 477.6 295.3 475.6 295.3C441.7 295.2 407.8 295 373.9 294.9C340.2 294.8 306.5 294.6 272.8 294.5C263.3 294.5 253.9 294.4 244.4 294.4C239.8 294.4 235.1 294.4 230.5 294.3C226.2 294.3 221.9 294.2 218 292.5C218.7 293.7 219.3 295 220 296.2C221.5 293.5 224.5 292.5 227.4 291.9C231.4 291 235.5 290.5 239.5 290.1C247.9 289.1 256.4 288.8 264.8 288.7C281.8 288.4 298.8 288.8 315.8 288.1C332.8 287.4 349.8 286.2 366.8 285C383.9 283.7 401 282.4 418.2 281.6C435.3 280.8 452.4 280.4 469.5 281.1C471.6 281.2 473.7 281.3 475.9 281.4C478.5 281.6 476.5 277.2 474.5 277.1Z" fill="white"/>
</g>
<mask id="mask21_201_734" style="mask-type:luminance" maskUnits="userSpaceOnUse" x="51" y="51" width="398" height="398">
<path d="M250 448.5C359.629 448.5 448.5 359.629 448.5 250C448.5 140.371 359.629 51.5 250 51.5C140.371 51.5 51.5 140.371 51.5 250C51.5 359.629 140.371 448.5 250 448.5Z" fill="white"/>
</mask>
<g mask="url(#mask21_201_734)">
<path d="M435.7 365.6C416.5 367.3 397.5 370.8 379.1 376.1C373.9 377.6 368.7 379.3 363.5 381.1C362.6 381.4 362.1 382.4 362.3 383.3C363.2 387.3 366.6 389.4 370.4 390.2C375.1 391.2 380 391.6 384.7 392.3C394.9 393.7 405 395.1 415.2 396.5C416.4 396.7 417.1 395.3 417 394.2C416.8 392.9 415.8 391.9 414.5 391.8C405.3 390.5 396.1 389.2 386.9 388C382.3 387.4 377.7 386.7 373.1 386.1C371.5 385.9 370 385.7 368.5 385.1C367.5 384.7 366.7 384.1 366.6 383.5C366.2 384.2 365.8 385 365.4 385.7C383.3 379.5 401.8 374.9 420.6 372.2C425.9 371.4 431.2 370.8 436.6 370.3C439.4 370.1 438.2 365.4 435.7 365.6Z" fill="white"/>
</g>
<mask id="mask22_201_734" style="mask-type:luminance" maskUnits="userSpaceOnUse" x="51" y="51" width="398" height="398">
<path d="M250 448.5C359.629 448.5 448.5 359.629 448.5 250C448.5 140.371 359.629 51.5 250 51.5C140.371 51.5 51.5 140.371 51.5 250C51.5 359.629 140.371 448.5 250 448.5Z" fill="white"/>
</mask>
<g mask="url(#mask22_201_734)">
<path d="M65.6999 374.4C95.4999 375.6 125.2 376.7 155 377.9C184.6 379.1 214.2 380.2 243.8 381.4C260.2 382 276.6 382.5 292.8 384.9C292 384.2 291.3 383.6 290.5 382.9C290.4 382.6 290.9 382.7 290.4 382.9C290.2 383 290 383.2 289.7 383.3C289.2 383.6 288.6 383.7 288 383.8C286.1 384.3 284.2 384.8 282.4 385.2C278.8 386.1 275.2 386.9 271.5 387.7C264.3 389.1 257.1 390.1 249.8 390.7C235.1 392 220.2 392.3 205.4 393.1C175.4 394.7 145.4 397 115.5 399.9C98.5999 401.5 81.7999 403.3 64.9999 405.3C61.8999 405.7 63.7999 409.9 66.2999 409.6C96.9999 406 127.7 403 158.5 400.7C173.9 399.5 189.3 398.5 204.8 397.6C220.1 396.8 235.4 396.4 250.7 395.1C259.2 394.4 267.6 393.2 275.9 391.5C279.9 390.7 283.9 389.7 287.9 388.7C290.6 388 296.5 387 295.1 382.8C294.8 381.8 293.9 380.9 292.8 380.8C278.1 378.7 263.3 378 248.6 377.5C233.8 376.9 219 376.3 204.2 375.8C174.4 374.6 144.7 373.5 114.9 372.3C98.0999 371.6 81.2999 371 64.4999 370.3C63.2999 370.3 62.5999 371.4 62.8999 372.5C63.1999 373.6 64.4999 374.4 65.6999 374.4Z" fill="white"/>
</g>
<mask id="mask23_201_734" style="mask-type:luminance" maskUnits="userSpaceOnUse" x="51" y="51" width="398" height="398">
<path d="M250 448.5C359.629 448.5 448.5 359.629 448.5 250C448.5 140.371 359.629 51.5 250 51.5C140.371 51.5 51.5 140.371 51.5 250C51.5 359.629 140.371 448.5 250 448.5Z" fill="white"/>
</mask>
<g mask="url(#mask23_201_734)">
<path d="M82.8998 389.5C105.1 388.2 127.3 387.7 149.5 388.1C155.8 388.2 162.1 388.4 168.4 388.6C167.6 387.4 166.9 386.2 166.1 385C160.8 389.3 153.8 390 147.2 390.7C139.3 391.6 131.4 392.2 123.5 392.7C107.6 393.7 91.6998 394.6 75.7998 395.6C66.7998 396.1 57.8998 396.7 48.8998 397.2C47.7998 397.3 46.7998 398.1 47.1998 399.2C47.5998 400.4 48.9998 401.1 50.1998 401C66.4998 400 82.6998 399 98.9998 398C115.1 397 131.3 396.4 147.3 394.6C154.9 393.8 163.3 393.1 169.5 388.2C171.5 386.6 168.9 384.7 167.2 384.6C145 383.7 122.8 383.7 100.6 384.5C94.2998 384.7 87.9998 385 81.6998 385.4C80.5998 385.5 79.5998 386.3 79.9998 387.4C80.2998 388.9 81.6998 389.6 82.8998 389.5Z" fill="white"/>
</g>
<mask id="mask24_201_734" style="mask-type:luminance" maskUnits="userSpaceOnUse" x="51" y="51" width="398" height="398">
<path d="M250 448.5C359.629 448.5 448.5 359.629 448.5 250C448.5 140.371 359.629 51.5 250 51.5C140.371 51.5 51.5 140.371 51.5 250C51.5 359.629 140.371 448.5 250 448.5Z" fill="white"/>
</mask>
<g mask="url(#mask24_201_734)">
<path d="M56.0998 300.7C79.0998 298.1 102.4 297.8 125.5 299.6C132 300.1 138.5 300.8 145 301.7C143.7 300.8 142.3 299.8 141 298.9C141.1 302 137.6 303.6 135.2 304.7C132 306.2 128.7 307.3 125.3 308.2C118.6 309.9 111.7 310.7 104.8 311.5C89.6998 313.1 74.4998 314.4 59.2998 315.4C50.6998 315.9 42.0998 316.4 33.4998 316.6C32.8998 316.6 34.5998 318 34.5998 318C35.2998 318.5 36.3998 319.4 37.3998 319.4C52.7998 318.9 68.0998 317.9 83.4998 316.7C91.1998 316.1 98.9998 315.3 106.7 314.5C113.6 313.8 120.5 313.1 127.2 311.5C130.8 310.7 134.4 309.5 137.9 308.1C140.6 306.9 145.2 305.2 145.1 301.6C145.1 301 144 300.3 143.5 300C142.8 299.5 141.9 298.9 141 298.8C118 295.7 94.7998 294.8 71.6998 296.1C65.1998 296.5 58.6998 297 52.1998 297.8C51.5998 297.9 53.1998 299.2 53.2998 299.2C53.8998 299.7 55.1998 300.8 56.0998 300.7Z" fill="white"/>
</g>
<mask id="mask25_201_734" style="mask-type:luminance" maskUnits="userSpaceOnUse" x="51" y="51" width="398" height="398">
<path d="M250 448.5C359.629 448.5 448.5 359.629 448.5 250C448.5 140.371 359.629 51.5 250 51.5C140.371 51.5 51.5 140.371 51.5 250C51.5 359.629 140.371 448.5 250 448.5Z" fill="white"/>
</mask>
<g mask="url(#mask25_201_734)">
<path d="M120.3 99.0001C147.6 97.8001 175.1 100.6 201.6 107.3C207.7 108.8 213.9 110.5 219.9 112.7C225.2 114.7 230.3 117.4 233.8 122C240.4 130.7 240.2 142.4 243.9 152.3C247.7 162.4 255.9 170.2 265.2 175.2C276.4 181.2 289.1 183.3 301.5 184.8C329.3 188.1 357.5 188.4 385.5 187.2C413.6 185.9 441.6 183.1 469.6 180.1C473.1 179.7 476.7 179.3 480.2 179C481.3 178.9 482.5 178.2 483.3 177.4C483.6 177.1 484.6 175.8 483.4 175.9C455.3 178.9 427.2 182 399 183.6C371 185.2 342.9 185.4 314.9 182.8C291.9 180.7 263.1 177.2 250.5 154.8C245.1 145.3 245.4 133.9 240.8 124.1C235.7 113.2 224.4 109.7 213.7 106.7C187.8 99.3 160.7 95.6001 133.7 95.8001C130.3 95.8001 126.8 95.9 123.4 96.1C122.3 96.1 121.1 96.9 120.3 97.7C120 97.8 119.1 99.0001 120.3 99.0001Z" fill="white"/>
</g>
<mask id="mask26_201_734" style="mask-type:luminance" maskUnits="userSpaceOnUse" x="51" y="51" width="398" height="398">
<path d="M250 448.5C359.629 448.5 448.5 359.629 448.5 250C448.5 140.371 359.629 51.5 250 51.5C140.371 51.5 51.5 140.371 51.5 250C51.5 359.629 140.371 448.5 250 448.5Z" fill="white"/>
</mask>
<g mask="url(#mask26_201_734)">
<path d="M208.2 53.7001C206.9 62.0001 204.3 70.2001 205.1 78.7001C205.8 85.8001 208.9 92.6001 215.2 96.3001C221.9 100.2 230.1 100.3 237.6 100.9C246.6 101.6 255.6 102.1 264.6 102.6C282.5 103.5 300.5 103.9 318.4 103.8C336.5 103.7 354.5 103.1 372.6 101.9C390.6 100.7 408.5 98.9001 426.3 96.4001C428.5 96.1001 430.7 95.8001 432.9 95.5001C433.9 95.3001 435.3 94.6001 435.2 93.4001C435.1 92.2001 433.5 91.8001 432.5 91.9001C415.2 94.4001 397.8 96.4001 380.3 97.7001C362.8 99.1001 345.3 99.8001 327.7 100.1C310.2 100.4 292.6 100.1 275.1 99.4001C266.3 99.0001 257.6 98.6001 248.8 98.0001C244.4 97.7001 240 97.4001 235.6 97.1001C232.1 96.8001 228.5 96.6001 225 95.8001C221.7 95.1001 218.5 93.8001 215.9 91.5001C213.6 89.3001 211.9 86.4001 211.1 83.4001C208.9 75.9001 210.5 68.1001 212 60.6001C212.4 58.5001 212.8 56.4001 213.2 54.2001C213.5 51.4001 208.5 51.4001 208.2 53.7001Z" fill="white"/>
</g>
<mask id="mask27_201_734" style="mask-type:luminance" maskUnits="userSpaceOnUse" x="51" y="51" width="398" height="398">
<path d="M250 448.5C359.629 448.5 448.5 359.629 448.5 250C448.5 140.371 359.629 51.5 250 51.5C140.371 51.5 51.5 140.371 51.5 250C51.5 359.629 140.371 448.5 250 448.5Z" fill="white"/>
</mask>
<g mask="url(#mask27_201_734)">
<path d="M372.5 90.6C345.4 93.2 318.3 97 291.5 101.9C284.8 103.1 278.2 104.4 271.5 105.7C265.8 106.8 260 107.9 254.8 110.4C244.9 115.2 240.9 125.4 239.4 135.7C237.9 146.7 239.1 158.9 233.6 168.9C227.9 179.3 215.8 184.3 204.8 186.9C192.6 189.8 180.1 190 167.6 190.2C153.8 190.4 140 190.6 126.1 190.9C98.2001 191.3 70.4001 191.8 42.5001 192.2C39.1001 192.3 35.7001 192.3 32.3001 192.4C30.1001 192.4 32.1001 197 34.1001 197C61.9001 196.6 89.6001 196.1 117.4 195.7C131.3 195.5 145.3 195.3 159.2 195C172 194.8 184.9 195 197.6 193.2C209 191.6 221.5 188.3 230.3 180.6C239.3 172.7 241.1 161.3 241.9 149.9C242.6 139.7 243 128.2 250 120.1C253.7 115.8 259 113.6 264.3 112.2C270.4 110.6 276.7 109.5 283 108.3C309.9 103.1 337 99.1 364.2 96.2C367.5 95.8 370.8 95.5 374.2 95.2C376.5 94.9 374.5 90.4 372.5 90.6Z" fill="white"/>
</g>
<mask id="mask28_201_734" style="mask-type:luminance" maskUnits="userSpaceOnUse" x="51" y="51" width="398" height="398">
<path d="M250 448.5C359.629 448.5 448.5 359.629 448.5 250C448.5 140.371 359.629 51.5 250 51.5C140.371 51.5 51.5 140.371 51.5 250C51.5 359.629 140.371 448.5 250 448.5Z" fill="white"/>
</mask>
<g mask="url(#mask28_201_734)">
<path d="M51.0001 193.9C85.6001 193.1 120.1 192.3 154.7 191.7C188.4 191.1 222 190.3 255.7 190.7C288.5 191.1 321.5 192.9 353.9 198.4C362 199.8 370.1 201.4 378.2 203.3C385.3 205 392.6 206.6 399.5 209.3C404.9 211.4 410.5 214.6 413.2 220C416.2 226.1 414.7 233.4 411.2 239C407.5 245 401.4 249 395.2 251.9C388.1 255.1 380.5 257.3 373 259.2C357.7 263.1 342.1 265.2 326.4 266.3C294.4 268.7 262.2 267.3 230.1 268.8C222.2 269.2 214.3 269.7 206.4 270.6C199.5 271.4 192.6 272.6 186.1 275.2C180.2 277.6 174.7 281.3 171 286.7C167.8 291.5 166.1 297.4 166.5 303.1C167 309 170.3 314.2 175.2 317.4C180.7 320.9 187.4 321.9 193.7 322.4C210.7 323.8 227.7 324.9 244.7 326.2C279.1 328.7 313.5 331 347.9 332.9C382.2 334.7 416.5 336.1 450.8 336.6C459.3 336.7 467.7 336.8 476.2 336.8C479.5 336.8 478.1 332.7 475.5 332.7C441 332.6 406.6 331.6 372.2 330C337.8 328.4 303.4 326.3 269 323.9C251.8 322.7 234.6 321.4 217.4 320.2C209.1 319.6 200.7 319 192.4 318.3C186.3 317.8 179.1 316.9 174.7 312.1C170.8 307.8 170.5 301.5 172 296.1C173.7 290 177.8 285 183.2 281.7C189.1 278.1 195.9 276.4 202.7 275.3C210.4 274.1 218.2 273.6 225.9 273.1C257.9 271.1 289.9 272.6 321.9 270.7C337.7 269.8 353.6 268 369.1 264.5C376.7 262.8 384.2 260.8 391.5 258.2C398.1 255.8 404.7 252.8 410 248C419.5 239.5 423.4 224.3 414 214.2C409.7 209.6 404 206.9 398.2 204.8C391.1 202.3 383.6 200.6 376.3 198.9C344.3 191.5 311.6 188.4 278.9 187.2C245.6 186 212.3 186.7 179.1 187.2C144.7 187.8 110.2 188.4 75.8001 189.2C67.3001 189.4 58.8001 189.6 50.3001 189.8C47.0001 189.9 48.3001 194 51.0001 193.9Z" fill="white"/>
</g>
<mask id="mask29_201_734" style="mask-type:luminance" maskUnits="userSpaceOnUse" x="51" y="51" width="398" height="398">
<path d="M250 448.5C359.629 448.5 448.5 359.629 448.5 250C448.5 140.371 359.629 51.5 250 51.5C140.371 51.5 51.5 140.371 51.5 250C51.5 359.629 140.371 448.5 250 448.5Z" fill="white"/>
</mask>
<g mask="url(#mask29_201_734)">
<path d="M49.1998 276.4C67.8998 275.8 86.6998 277.4 105.2 280.1C114.5 281.4 123.7 283 132.9 284.6C137.6 285.4 142.3 286.3 146.9 287.2C150.5 287.9 154.3 288.4 157.7 290C164.8 293.5 164 302.2 164.8 308.9C165.3 313 166.3 317.4 165.2 321.5C164.4 324.9 161.9 327.5 159.1 329.5C155.9 331.7 152.2 333.3 148.6 334.7C144.6 336.3 140.5 337.6 136.4 338.7C128.1 340.9 119.5 342.1 110.9 342.8C92.1998 344.3 73.2998 343.2 54.5998 343.5C52.2998 343.5 49.9998 343.6 47.5998 343.7C46.3998 343.7 45.1998 344.8 45.2998 346C45.3998 347.3 46.7998 347.9 47.9998 347.9C67.6998 347.2 87.2998 348.5 107 347.3C116 346.8 125.1 345.6 133.9 343.6C142.5 341.7 151.2 338.9 158.9 334.6C162.3 332.7 165.5 330.3 167.8 327.1C170.3 323.5 170.8 319.2 170.4 315C170.2 312.7 169.8 310.5 169.6 308.2C169.4 306.2 169.3 304.2 169.1 302.3C168.8 298.4 168.1 294.4 165.8 291.1C163.6 287.9 160 286 156.4 284.9C152.2 283.6 147.7 283 143.4 282.2C133.7 280.4 124 278.7 114.3 277.2C94.9998 274.2 75.5998 272.1 55.9998 272.1C53.4998 272.1 51.0998 272.2 48.5998 272.2C47.3998 272.2 46.1998 273.3 46.2998 274.5C46.6998 275.9 47.9998 276.5 49.1998 276.4Z" fill="white"/>
</g>
<mask id="mask30_201_734" style="mask-type:luminance" maskUnits="userSpaceOnUse" x="51" y="51" width="398" height="398">
<path d="M250 448.5C359.629 448.5 448.5 359.629 448.5 250C448.5 140.371 359.629 51.5 250 51.5C140.371 51.5 51.5 140.371 51.5 250C51.5 359.629 140.371 448.5 250 448.5Z" fill="white"/>
</mask>
<g mask="url(#mask30_201_734)">
<path d="M143.4 342.3C162.3 341.2 181.2 340.9 200.2 341.3C219.1 341.7 238.1 342.8 256.9 344.5C275.8 346.1 294.6 348.3 313.4 350.9C317.1 351.4 321.2 351.8 324.4 354C327.4 356 328.9 359.7 329.9 363C332 370.1 331.3 378 328.9 384.9C323.7 399.4 310.7 409.3 296.4 414C294.6 414.6 292.7 415.1 290.9 415.5C288.8 416 291.5 420.2 293.4 419.7C308.6 416.1 323.3 407.2 330.5 393C334.1 386 335.7 378 335 370.1C334.2 362.1 330.7 353.1 323.2 349.4C319.3 347.5 315 347 310.7 346.4C305.9 345.8 301.1 345.1 296.2 344.5C286.4 343.3 276.6 342.2 266.7 341.2C247.2 339.3 227.6 337.9 208 337.2C188.4 336.5 168.8 336.6 149.3 337.5C146.8 337.6 144.4 337.8 141.9 337.9C139.2 338.2 141.5 342.5 143.4 342.3Z" fill="white"/>
</g>
<mask id="mask31_201_734" style="mask-type:luminance" maskUnits="userSpaceOnUse" x="51" y="51" width="398" height="398">
<path d="M250 448.5C359.629 448.5 448.5 359.629 448.5 250C448.5 140.371 359.629 51.5 250 51.5C140.371 51.5 51.5 140.371 51.5 250C51.5 359.629 140.371 448.5 250 448.5Z" fill="white"/>
</mask>
<g mask="url(#mask31_201_734)">
<path d="M292.1 416.8C274.4 422.6 256.2 427.1 237.9 430.2C219.6 433.3 201 435 182.4 435.3C171.9 435.5 161.4 435.2 151 434.5C150.2 434.4 148.5 434.6 148.4 435.7C148.3 436.8 150 437.3 150.8 437.3C169.7 438.6 188.7 438.5 207.6 437C226.5 435.5 245.2 432.5 263.6 428.2C274 425.8 284.3 422.9 294.5 419.5C295.4 419.2 296.3 418.6 295.6 417.6C294.8 416.7 293 416.5 292.1 416.8Z" fill="white"/>
</g>
<mask id="mask32_201_734" style="mask-type:luminance" maskUnits="userSpaceOnUse" x="51" y="51" width="398" height="398">
<path d="M250 448.5C359.629 448.5 448.5 359.629 448.5 250C448.5 140.371 359.629 51.5 250 51.5C140.371 51.5 51.5 140.371 51.5 250C51.5 359.629 140.371 448.5 250 448.5Z" fill="white"/>
</mask>
<g mask="url(#mask32_201_734)">
<path d="M429 341C414.3 342.7 399.8 345.5 385.5 349.3C378.4 351.2 371.3 353.4 364.4 355.8C357.7 358.1 350.8 360.5 344.4 363.7C341.4 365.2 338.6 367.2 336.5 369.8C334.5 372.3 333 375.3 331.7 378.2C328.9 384.4 326.2 391.1 327.5 398.1C329.9 411.5 342.1 421 354.1 425.7C369.3 431.6 385.8 432.6 402 432.1C402.7 432.1 401.5 430.5 401.4 430.3C401 429.8 399.9 428.2 399.1 428.3C385.3 428.7 371.3 428.1 357.9 424.2C346.5 420.8 333.4 414.7 331 401.7C329.7 394.9 332.2 388.4 334.9 382.4C337.5 376.6 340.6 371.5 346.3 368.3C349.2 366.7 352.4 365.5 355.5 364.2C358.7 362.9 361.9 361.7 365.2 360.5C371.8 358.1 378.6 356 385.3 354.1C400.6 349.8 416.3 346.7 432.1 344.8C432.8 344.7 431.6 343.2 431.5 343C431 342.5 429.8 340.9 429 341Z" fill="white"/>
</g>
<mask id="mask33_201_734" style="mask-type:luminance" maskUnits="userSpaceOnUse" x="51" y="51" width="398" height="398">
<path d="M250 448.5C359.629 448.5 448.5 359.629 448.5 250C448.5 140.371 359.629 51.5 250 51.5C140.371 51.5 51.5 140.371 51.5 250C51.5 359.629 140.371 448.5 250 448.5Z" fill="white"/>
</mask>
<g mask="url(#mask33_201_734)">
<path d="M340.5 438.3C320 428.5 296.6 428 274.3 427.6C267.6 427.5 260.8 427.6 254.1 428.8C252.9 429 252.7 430.3 253.2 431.3C253.7 432.4 255 433.2 256.2 433C262 432 267.8 431.8 273.6 431.9C279.1 432 284.7 432.2 290.2 432.4C300.9 432.9 311.7 433.7 322.2 436.1C328 437.5 333.8 439.4 339.2 441.9C340.1 442.3 341.5 442.5 342 441.3C342.5 440.1 341.5 438.8 340.5 438.3Z" fill="white"/>
</g>
</svg>
