<svg width="500" height="500" viewBox="0 0 500 500" fill="none" xmlns="http://www.w3.org/2000/svg">
<mask id="mask0_201_679" style="mask-type:luminance" maskUnits="userSpaceOnUse" x="51" y="51" width="398" height="398">
<path d="M250 448.5C359.629 448.5 448.5 359.629 448.5 250C448.5 140.371 359.629 51.5 250 51.5C140.371 51.5 51.5 140.371 51.5 250C51.5 359.629 140.371 448.5 250 448.5Z" fill="white"/>
</mask>
<g mask="url(#mask0_201_679)">
<path d="M242.3 16.6001C220.8 42.6001 196.2 74.3001 205.5 110.3C209.3 125.1 218 137.9 226.2 150.6C235 164.1 243.2 177.9 246 194C248.9 210.2 246.9 227.2 240.5 242.4C234.2 257.2 222.2 268.4 215.8 283.1C208.8 299.2 213.8 316 222.4 330.4C231.3 345.3 244.1 357.7 251.1 373.8C262.7 400.5 258.1 433.4 240.5 456.4C238.3 459.2 236 461.9 233.4 464.4C232.5 465.2 236 468.9 236.9 468C257.4 447.9 265.5 416.9 259 389.1C255.3 373.2 246.2 360.3 236.6 347.4C226.1 333.3 214.6 317.2 216.3 298.7C217.8 282.4 230.2 270.2 238.4 256.9C246.9 243.1 251.2 227 251 210.8C250.8 194.8 245.9 179.9 238.1 166.1C230.4 152.6 220.7 140.3 214.1 126.3C210.7 119.1 208.2 111.4 207.5 103.5C206.7 94.6001 208 85.6001 210.5 77.1001C215.7 59.7001 226.2 44.7001 237.4 30.7001C240.2 27.2001 243 23.8001 245.8 20.4001C246.6 19.2001 243 15.7001 242.3 16.6001Z" fill="white"/>
</g>
<mask id="mask1_201_679" style="mask-type:luminance" maskUnits="userSpaceOnUse" x="51" y="51" width="398" height="398">
<path d="M250 448.5C359.629 448.5 448.5 359.629 448.5 250C448.5 140.371 359.629 51.5 250 51.5C140.371 51.5 51.5 140.371 51.5 250C51.5 359.629 140.371 448.5 250 448.5Z" fill="white"/>
</mask>
<g mask="url(#mask1_201_679)">
<path d="M244.3 36.3C255.6 66.1 252.3 99.7 239.3 128.4C236 135.6 232 142.6 227.5 149.1C222.8 155.9 217.3 162 211.8 168.2C206.1 174.6 200.5 181.2 196.8 189C192.9 197.1 191 206 190.4 214.9C189.3 229.1 191.7 244.5 199.8 256.6C204 262.9 209.5 267.8 216.2 271.4C223.6 275.4 231.6 278.2 238 283.8C249.2 293.6 255.7 308.3 255.5 323.1C255.3 338.3 247.3 351.7 238.5 363.5C229.4 375.7 219 387.1 212.1 400.7C204.3 416 201.3 433.6 203.4 450.7C203.9 454.8 204.8 458.9 205.9 462.9C206.5 465.1 211.3 464.1 210.6 461.6C206 444.8 207 426.7 213 410.4C218.5 395.5 228.9 383.2 238.5 370.8C247.5 359.2 256.5 346.8 259.5 332.1C262.4 317.6 258.7 302.3 250.1 290.3C245.9 284.4 240.4 279.4 234.1 275.8C226.5 271.4 217.9 268.8 211.3 262.9C200.3 253.1 195.8 238 195.3 223.7C195 215.4 195.9 206.9 198.2 198.9C200.7 190.3 205.3 182.9 211 176C216.4 169.4 222.4 163.4 227.6 156.7C232.5 150.5 236.8 143.8 240.5 136.9C255.1 109.3 260.9 76.3 252.8 45.8C251.8 42.1 250.7 38.5 249.3 35C248.2 32.8 243.4 33.8 244.3 36.3Z" fill="white"/>
</g>
<mask id="mask2_201_679" style="mask-type:luminance" maskUnits="userSpaceOnUse" x="51" y="51" width="398" height="398">
<path d="M250 448.5C359.629 448.5 448.5 359.629 448.5 250C448.5 140.371 359.629 51.5 250 51.5C140.371 51.5 51.5 140.371 51.5 250C51.5 359.629 140.371 448.5 250 448.5Z" fill="white"/>
</mask>
<g mask="url(#mask2_201_679)">
<path d="M306.4 31.6C291.3 62.1 279.5 98 292.1 131.5C298.1 147.5 309.8 160 319.2 173.9C328.2 187.2 335.2 203.2 330.1 219.4C326.1 232.2 316.7 242.5 309.4 253.4C305.7 258.9 302.5 264.6 300.4 270.8C298.1 277.7 297.6 285 298.8 292.1C301.6 308.6 311.9 322.4 320.8 336.2C329.7 350 338.8 367 334.1 383.9C331.9 391.9 326.6 398.6 322.1 405.5C318.1 411.6 314.8 418.1 312.7 425.2C308.7 438.4 308.7 453.4 315.2 465.9C316.7 468.9 318.7 471.7 320.9 474.2C323 476.6 326 473.9 324 471.5C314.8 460.9 313 446.1 315.8 432.7C317.2 425.8 319.8 419.1 323.3 413C327.3 406.1 332.5 399.8 336 392.6C351.8 359.4 317.7 331.6 306.6 303.4C303.7 296 302 287.9 303.2 280C304.2 273.6 306.8 267.6 310.1 262.1C316.8 250.7 325.9 240.9 331.7 229C334.6 223 336.5 216.5 336.7 209.8C336.9 201.8 334.6 193.8 331.4 186.6C324.5 171.3 312.5 159.2 303.7 145.1C294.6 130.5 290.9 113.8 291.7 96.7C292.6 79.2 298.1 62.3 305.1 46.4C306.8 42.5 308.7 38.6 310.6 34.8C311.6 32.2 307.7 29.1 306.4 31.6Z" fill="white"/>
</g>
<mask id="mask3_201_679" style="mask-type:luminance" maskUnits="userSpaceOnUse" x="51" y="51" width="398" height="398">
<path d="M250 448.5C359.629 448.5 448.5 359.629 448.5 250C448.5 140.371 359.629 51.5 250 51.5C140.371 51.5 51.5 140.371 51.5 250C51.5 359.629 140.371 448.5 250 448.5Z" fill="white"/>
</mask>
<g mask="url(#mask3_201_679)">
<path d="M318.4 30.9999C324 47.4999 329.5 64.5999 329.9 82.0999C330.1 90.6999 328.8 99.2999 325.7 107.4C322.9 114.5 318.8 120.8 314.1 126.7C304.9 138.2 293.9 148.3 286.2 160.9C278.3 174 275.4 189.5 278 204.5C279.3 212.1 282 219.5 286 226.1C289.9 232.5 294.9 238.1 300 243.5C310.5 254.4 322.3 265 327.8 279.5C333.5 294.5 332.2 311.8 324.2 325.8C316 340.2 301.8 350.8 297 367.1C294.9 374.4 295.3 382 298.4 389C301.4 395.7 306.5 401.5 311.9 406.4C322.9 416.4 336.8 423.2 346.3 434.7C348.7 437.6 350.7 440.8 352.3 444.2C352.9 445.5 357.6 443.8 357.1 442.7C350.9 429 337.7 420.6 325.9 412C314.2 403.5 301.4 392.2 300.4 376.7C299.3 359.2 313.6 346.1 323.2 333.3C328 326.9 332 319.9 334.1 312.1C336.1 304.6 336.5 296.7 335.4 289C333 273.4 323.6 261.3 312.9 250.3C302.2 239.3 290.9 228.6 285.5 213.8C280.2 199.1 280.5 182.5 286.6 168.1C292.4 154.3 303.4 143.6 313.1 132.5C323.3 120.8 331.8 108.1 333.9 92.2999C336.2 75.1999 332.1 57.9999 327.1 41.7999C325.8 37.5999 324.4 33.4999 323 29.3999C322.7 28.1999 318 29.6999 318.4 30.9999Z" fill="white"/>
</g>
<mask id="mask4_201_679" style="mask-type:luminance" maskUnits="userSpaceOnUse" x="51" y="51" width="398" height="398">
<path d="M250 448.5C359.629 448.5 448.5 359.629 448.5 250C448.5 140.371 359.629 51.5 250 51.5C140.371 51.5 51.5 140.371 51.5 250C51.5 359.629 140.371 448.5 250 448.5Z" fill="white"/>
</mask>
<g mask="url(#mask4_201_679)">
<path d="M372.5 79.2001C356.1 98.9001 350.5 126.9 358.4 151.3C362.7 164.5 370.5 176 377 188.1C380.2 194.1 383.2 200.4 385.2 206.9C387.4 214 388.5 221.9 385.5 229C383.1 234.8 378.4 239.3 374.2 243.8C369.9 248.4 366.1 253.2 363.7 259.1C359.1 270.6 359.8 283.6 363.6 295.2C365.6 301.2 368.5 306.8 372 312.1C375.7 317.6 379.9 322.6 383.4 328.3C386.7 333.8 389.3 339.8 389.2 346.3C389.1 352.9 386.5 359.1 383.6 365C380.6 371 377 376.7 374.6 382.9C372.4 388.6 371.1 394.6 370.7 400.7C370 413.1 373.1 425.7 379.8 436.2C381.4 438.8 383.3 441.2 385.3 443.6C386.5 445 391 442.8 389.6 441.2C381.4 431.9 376.5 419.8 375.6 407.4C375.1 401.2 375.7 394.9 377.2 388.9C378.8 382.6 381.8 376.8 384.8 371.1C387.9 365.4 391 359.7 392.8 353.4C394.5 347.3 394.4 341 392.3 335C388.1 322.9 378.1 314 372.3 302.8C366.6 291.7 363.8 278.7 366.1 266.3C367.3 260.3 369.8 254.6 373.6 249.7C377.4 244.8 382.2 240.7 385.9 235.8C390 230.4 392.2 224.3 392 217.6C391.8 210.6 389.6 203.7 386.9 197.3C381.6 184.8 373.8 173.5 367.9 161.3C362.2 149.5 359 136.9 359.7 123.7C360.3 110.9 364.2 98.3001 370.9 87.5001C372.6 84.8001 374.4 82.3001 376.5 79.9001C377.2 79.1001 376.8 78.2001 375.8 78.0001C374.7 77.7001 373.2 78.4001 372.5 79.2001Z" fill="white"/>
</g>
<mask id="mask5_201_679" style="mask-type:luminance" maskUnits="userSpaceOnUse" x="51" y="51" width="398" height="398">
<path d="M250 448.5C359.629 448.5 448.5 359.629 448.5 250C448.5 140.371 359.629 51.5 250 51.5C140.371 51.5 51.5 140.371 51.5 250C51.5 359.629 140.371 448.5 250 448.5Z" fill="white"/>
</mask>
<g mask="url(#mask5_201_679)">
<path d="M390.8 79.3001C395.1 92.3001 392.5 106.3 386.9 118.5C381.1 130.9 372.4 141.5 364.3 152.4C360.4 157.6 356.7 163.1 354.3 169.2C351.8 175.5 350.6 182.1 350 188.8C348.9 201.8 349.2 216.1 356.4 227.4C362.7 237.4 372.6 244.5 379 254.4C385.1 263.9 387.4 275.4 386.6 286.6C385.8 298.2 381.8 309.5 375.6 319.3C368.7 330.2 357.6 338.8 354.3 351.7C352.8 357.4 353.4 363.4 356.4 368.5C359.2 373.3 363.3 377.1 367.5 380.6C372 384.5 376.5 388.4 380.4 393C384.5 397.9 387.9 403.3 390.6 409C391.9 411.8 393 414.6 394 417.6C394.4 418.8 399.2 417.3 398.8 416.2C394.9 404.4 388.1 393.7 379.1 385.2C371.2 377.7 359.8 370.9 358.4 359C356.8 345.1 368.3 334.4 376 324.4C383.1 315.3 388.1 304.6 390.2 293.2C392.3 282.3 391.9 270.8 387.6 260.5C383.1 249.5 374.1 241.8 366.5 233C362.4 228.3 359 223.2 357 217.2C354.9 210.8 354.3 204 354.3 197.3C354.3 183.4 356.6 169.8 364.2 157.9C367.9 152.2 372.2 147 376.2 141.6C380.2 136.3 384.1 130.8 387.4 125C394 113.6 398.6 100.5 397.4 87.1001C397.1 83.8001 396.4 80.7001 395.4 77.5001C395.3 76.7001 390.5 78.2001 390.8 79.3001Z" fill="white"/>
</g>
<mask id="mask6_201_679" style="mask-type:luminance" maskUnits="userSpaceOnUse" x="51" y="51" width="398" height="398">
<path d="M250 448.5C359.629 448.5 448.5 359.629 448.5 250C448.5 140.371 359.629 51.5 250 51.5C140.371 51.5 51.5 140.371 51.5 250C51.5 359.629 140.371 448.5 250 448.5Z" fill="white"/>
</mask>
<g mask="url(#mask6_201_679)">
<path d="M164.4 17.3001C158.5 33.1001 148.3 46.8001 142.2 62.5001C139.3 69.9001 137.5 77.7001 137.5 85.6001C137.4 93.1001 138.7 100.4 140.7 107.6C144.8 122.7 152 136.7 157.2 151.4C159.8 158.7 161.9 166.2 162.8 174C163.7 182.1 162.9 190.3 160.8 198.2C156.3 214.8 147.1 229.5 138.7 244.3C130.2 259.4 120.8 276.3 123.4 294.3C127.3 321.5 154.7 335.2 167.1 357.7C170.7 364.2 172.5 371.4 172.3 378.9C172 387.9 169.2 396.7 165.4 404.8C161.6 413.1 156.4 420.6 151.9 428.5C147.8 435.6 144 443.5 143.5 451.8C143.3 455.8 143.9 459.8 145.4 463.5C145.8 464.5 146.7 465.8 148 465.6C149.2 465.4 149.4 464 149 463C145.8 454.8 148.1 446.3 151.7 438.7C155.4 430.7 160.6 423.6 164.9 415.9C173.2 400.9 179.3 383.5 174.4 366.4C170.8 353.8 162 343.7 153.2 334.4C144.6 325.3 134.7 316.1 129.8 304.3C123 287.8 129.7 270.7 137.6 255.9C145.5 241 154.9 226.9 161.1 211.2C164.1 203.6 166.2 195.6 166.9 187.4C167.5 179.7 166.6 172 164.9 164.5C161.4 149.4 154.4 135.3 148.9 120.9C143.5 106.7 139.5 91.7001 142.6 76.5001C145.9 60.2001 155.8 46.2001 163.2 31.5001C165 27.8001 166.7 24.0001 168.2 20.2001C168.8 18.2001 165.4 14.7001 164.4 17.3001Z" fill="white"/>
</g>
<mask id="mask7_201_679" style="mask-type:luminance" maskUnits="userSpaceOnUse" x="51" y="51" width="398" height="398">
<path d="M250 448.5C359.629 448.5 448.5 359.629 448.5 250C448.5 140.371 359.629 51.5 250 51.5C140.371 51.5 51.5 140.371 51.5 250C51.5 359.629 140.371 448.5 250 448.5Z" fill="white"/>
</mask>
<g mask="url(#mask7_201_679)">
<path d="M150.9 38.4999C160.8 51.3999 170.8 64.9999 175.8 80.5999C178.2 88.0999 179.3 95.8999 178.5 103.8C177.7 111.6 174.8 119 170.9 125.8C163.1 139.2 151.7 149.9 142 161.8C132.4 173.6 123.6 187.6 123.7 203.4C123.9 228.9 144.8 247.7 155.5 269.2C158.2 274.7 160.4 280.5 161.2 286.5C162.2 293.5 161.3 300.5 159.2 307.2C154.6 322.2 145.2 335.4 142.5 351C139.7 367.2 143.6 383.5 152.3 397.3C161 411.1 174 423.5 176.1 440.4C176.6 444.3 176.4 448.3 175.5 452.2C175.2 453.4 178.7 456.3 178.9 455.6C182.9 439.4 173.1 424.1 164 411.6C159 404.7 153.7 397.9 150.2 390.1C146.7 382.4 145 374 145 365.6C144.9 357.1 146.7 348.9 149.8 341C152.7 333.7 156.3 326.7 159.4 319.4C162.3 312.5 164.7 305.2 165 297.6C165.2 291.6 164.1 285.5 162.1 279.8C157.9 267.9 150.5 257.6 143.6 247.2C136.7 236.8 129.6 225.8 127.7 213.3C122.6 180.1 155.2 158.5 171.5 134.2C175.6 128.1 179 121.5 180.8 114.3C182.8 106.7 182.8 98.7999 181.3 91.0999C178.2 75.3999 169.3 61.2999 160.1 48.3999C157.7 45.0999 155.3 41.8999 152.9 38.6999C152.6 38.2999 151.1 36.3999 150.6 36.5999C149.7 36.9999 150.6 38.0999 150.9 38.4999Z" fill="white"/>
</g>
<mask id="mask8_201_679" style="mask-type:luminance" maskUnits="userSpaceOnUse" x="51" y="51" width="398" height="398">
<path d="M250 448.5C359.629 448.5 448.5 359.629 448.5 250C448.5 140.371 359.629 51.5 250 51.5C140.371 51.5 51.5 140.371 51.5 250C51.5 359.629 140.371 448.5 250 448.5Z" fill="white"/>
</mask>
<g mask="url(#mask8_201_679)">
<path d="M80 109.7C96.7 122.4 106.4 143.7 105 164.6C103.4 189.8 86.9 211.4 85.8 236.7C85.5 242.6 86.2 248.6 88 254.3C89.6 259.1 91.9 263.6 94.4 268C99.4 276.7 105.6 285 109.1 294.4C110.8 299 111.8 303.9 111.7 308.9C111.5 314 110.2 319 108.3 323.7C104.4 333.4 98.3 341.9 93.7 351.3C88.9 361.1 86.5 371.5 87.5 382.4C88.5 393.4 92.4 404.1 98.1 413.5C99.5 415.8 101 418 102.6 420.2C103.4 421.3 107.6 418.5 106.8 417.5C93.6 399.8 86.9 376.1 95.5 354.9C103 336.4 119.9 319.5 115.2 298C113.1 288.2 107.4 279.7 102.2 271.3C96.6 262.2 91.2 252.8 90.2 241.9C87.8 216.2 104.3 193.8 108.5 169.2C112 148.3 104.7 126.2 89.4 111.5C87.6 109.8 85.7 108.2 83.8 106.7C82.8 106 78.8 108.8 80 109.7Z" fill="white"/>
</g>
<mask id="mask9_201_679" style="mask-type:luminance" maskUnits="userSpaceOnUse" x="51" y="51" width="398" height="398">
<path d="M250 448.5C359.629 448.5 448.5 359.629 448.5 250C448.5 140.371 359.629 51.5 250 51.5C140.371 51.5 51.5 140.371 51.5 250C51.5 359.629 140.371 448.5 250 448.5Z" fill="white"/>
</mask>
<g mask="url(#mask9_201_679)">
<path d="M72.9999 116.5C73.2999 128.1 73.5999 139.8 75.5999 151.3C77.4999 161.9 81.2999 171.8 86.6999 181.1C96.0999 197.3 109.9 212.1 113.5 231C117.8 253.7 102.6 272.8 93.8999 292.3C89.2999 302.5 85.8999 313.8 87.3999 325.1C88.7999 335.8 95.2999 344.2 101.2 352.8C104.1 357.1 106.8 361.5 108.5 366.5C110.4 371.9 111.3 377.6 111.9 383.3C112.5 388.5 113 393.9 113 399.1C113 403.9 112.7 408.8 110.9 413.3C110.1 415.4 109 417.3 107.5 418.9C106.8 419.7 106.3 420.9 107.3 421.7C108.2 422.4 109.9 421.8 110.5 421C117.4 413.4 117.9 403 117.4 393.2C116.7 382.1 115.9 370.4 111.2 360.2C106.9 350.7 99.3999 343.1 94.9999 333.7C90.0999 323.3 91.1999 311.7 94.7999 301.1C101.9 279.9 118.9 261.4 118.9 238.1C118.9 218.3 106.1 202.1 95.7999 186.3C90.1999 177.7 85.1999 168.8 82.2999 158.9C79.0999 147.7 78.1999 136 77.6999 124.4C77.5999 121.4 77.4999 118.5 77.4999 115.5C77.4999 112.7 72.8999 114.2 72.9999 116.5Z" fill="white"/>
</g>
<mask id="mask10_201_679" style="mask-type:luminance" maskUnits="userSpaceOnUse" x="51" y="51" width="398" height="398">
<path d="M250 448.5C359.629 448.5 448.5 359.629 448.5 250C448.5 140.371 359.629 51.5 250 51.5C140.371 51.5 51.5 140.371 51.5 250C51.5 359.629 140.371 448.5 250 448.5Z" fill="white"/>
</mask>
<g mask="url(#mask10_201_679)">
<path d="M53.3999 152.8C42.0999 181.7 55.1999 212.2 61.6999 240.5C65.0999 255.4 66.9999 271.1 62.9999 286.1C59.1999 300.1 50.7999 312.2 44.6999 325.2C38.4999 338.6 34.4999 355.4 42.0999 369.1C42.6999 370.2 47.1999 368.3 46.8999 367.6C40.0999 355.3 42.6999 340.4 47.7999 328C53.1999 314.8 61.6999 303.1 66.3999 289.6C76.6999 259.9 62.9999 229.8 56.8999 200.7C53.4999 184.5 52.0999 167.4 58.2999 151.7C58.5999 150.9 56.5999 151.3 56.3999 151.4C55.3999 151.6 53.6999 152 53.3999 152.8Z" fill="white"/>
</g>
<mask id="mask11_201_679" style="mask-type:luminance" maskUnits="userSpaceOnUse" x="51" y="51" width="398" height="398">
<path d="M250 448.5C359.629 448.5 448.5 359.629 448.5 250C448.5 140.371 359.629 51.5 250 51.5C140.371 51.5 51.5 140.371 51.5 250C51.5 359.629 140.371 448.5 250 448.5Z" fill="white"/>
</mask>
<g mask="url(#mask11_201_679)">
<path d="M55.6999 182.7C58.0999 193.4 58.5999 204.5 57.0999 215.3C56.3999 220.8 55.0999 226.2 53.3999 231.4C51.6999 236.6 49.4999 241.5 46.9999 246.4C44.5999 251.2 42.1999 256.1 41.3999 261.4C40.6999 266.4 41.8999 271.2 44.1999 275.7C46.4999 280.2 49.4999 284.2 52.0999 288.6C54.7999 293.2 56.9999 298.1 58.5999 303.1C62.0999 314.4 62.3999 326.7 59.5999 338.2C59.4999 338.6 61.1999 339.6 61.4999 339.8C61.5999 339.9 63.6999 341.1 63.6999 341C66.1999 330.8 66.1999 320 63.6999 309.8C62.4999 304.8 60.6999 299.9 58.3999 295.2C56.0999 290.6 53.0999 286.5 50.3999 282.2C47.7999 277.9 45.4999 273.2 45.2999 268.1C45.0999 262.7 47.0999 257.6 49.2999 252.8C51.5999 247.9 54.1999 243.1 56.0999 238C57.9999 232.9 59.3999 227.6 60.3999 222.3C62.5999 210.1 62.3999 197.6 59.5999 185.5C59.4999 184.9 58.1999 184.2 57.6999 183.9C57.1999 183.6 56.6999 183.2 56.1999 183C56.2999 182.9 55.6999 182.7 55.6999 182.7Z" fill="white"/>
</g>
<mask id="mask12_201_679" style="mask-type:luminance" maskUnits="userSpaceOnUse" x="51" y="51" width="398" height="398">
<path d="M250 448.5C359.629 448.5 448.5 359.629 448.5 250C448.5 140.371 359.629 51.5 250 51.5C140.371 51.5 51.5 140.371 51.5 250C51.5 359.629 140.371 448.5 250 448.5Z" fill="white"/>
</mask>
<g mask="url(#mask12_201_679)">
<path d="M422.9 118.5C413.6 135.3 403.6 153.8 405 173.7C406.4 193.6 419 209.9 424.8 228.4C427.7 237.5 428.9 247.4 425.8 256.6C423 264.9 417.6 271.9 413.9 279.7C412 283.6 410.6 287.8 410.1 292.1C409.6 296.4 409.9 300.8 410.9 305.1C412.9 313.8 417.2 321.9 421.2 329.8C425.5 338.2 429.3 346.7 431 356.1C432.8 365.6 432.8 375.4 430.9 384.8C430.4 387.2 429.8 389.5 429.1 391.8C428.2 394.8 432.8 394.2 433.5 391.9C439.2 373.2 437.6 353.2 429.5 335.5C422.5 320.2 410.3 303.5 415.8 285.9C418.3 277.7 423.6 270.7 427.4 263.1C429.4 259 431 254.7 431.7 250.2C432.5 245.4 432.3 240.5 431.5 235.7C428.4 216.2 415.6 200.2 410.9 181.2C408.6 171.8 409.1 162.2 411.7 152.9C414.3 143.5 418.6 134.6 423.2 126.1C424.4 123.9 425.5 121.8 426.7 119.6C428.3 116.9 424.1 116.3 422.9 118.5Z" fill="white"/>
</g>
<mask id="mask13_201_679" style="mask-type:luminance" maskUnits="userSpaceOnUse" x="51" y="51" width="398" height="398">
<path d="M250 448.5C359.629 448.5 448.5 359.629 448.5 250C448.5 140.371 359.629 51.5 250 51.5C140.371 51.5 51.5 140.371 51.5 250C51.5 359.629 140.371 448.5 250 448.5Z" fill="white"/>
</mask>
<g mask="url(#mask13_201_679)">
<path d="M424.8 125.5C433.1 140.5 435.8 158.2 432.9 175C431.4 183.4 428.5 191.5 424.3 199C420.2 206.2 415.2 212.9 411.3 220.3C407.6 227.4 405 235.1 405.9 243.2C406.7 251.1 410.4 258.4 414.7 265.1C419.1 272 424.2 278.4 428.4 285.5C432.7 292.8 435.8 300.7 437.7 308.9C441.4 325.4 440.3 343 434.1 358.7C433.3 360.6 432.5 362.5 431.6 364.4C431 365.5 435.3 368.1 435.7 367.3C443.1 352.1 445.6 334.6 443.2 317.9C442 309.6 439.6 301.5 436 293.9C432.4 286.3 427.4 279.5 422.6 272.7C418 266.1 413.4 259.2 411.3 251.4C409.1 243.4 410.1 235.3 413.4 227.7C416.7 220 421.7 213.2 426.1 206.1C430.6 198.8 434.2 191.2 436.2 182.8C440.2 166.3 438.8 148.5 431.8 132.9C430.9 131 430 129.1 429 127.2C428.5 126.2 427.4 125.5 426.4 125C425.8 125 424.3 124.6 424.8 125.5Z" fill="white"/>
</g>
<mask id="mask14_201_679" style="mask-type:luminance" maskUnits="userSpaceOnUse" x="51" y="51" width="398" height="398">
<path d="M250 448.5C359.629 448.5 448.5 359.629 448.5 250C448.5 140.371 359.629 51.5 250 51.5C140.371 51.5 51.5 140.371 51.5 250C51.5 359.629 140.371 448.5 250 448.5Z" fill="white"/>
</mask>
<g mask="url(#mask14_201_679)">
<path d="M466.5 184C450.3 195.5 436.8 214.1 437.3 234.7C437.9 256.5 453.3 273.6 458.7 294C462 306.6 460.6 320.2 455.3 332C454.7 333.3 457.6 337.1 458.2 335.9C463 325.4 464.6 313.5 462.9 302.1C461.3 291.3 456.6 281.5 451.8 271.8C447.2 262.6 442.3 253.2 440.8 242.9C439.3 232.9 441.6 222.8 446.2 213.8C451.5 203.5 459.6 194.9 469 188.2C470.2 187.5 467.5 183.3 466.5 184Z" fill="white"/>
</g>
</svg>
