<svg width="500" height="500" viewBox="0 0 500 500" fill="none" xmlns="http://www.w3.org/2000/svg">
<mask id="mask0_201_701" style="mask-type:luminance" maskUnits="userSpaceOnUse" x="51" y="51" width="398" height="398">
<path d="M250 448.5C359.629 448.5 448.5 359.629 448.5 250C448.5 140.371 359.629 51.5 250 51.5C140.371 51.5 51.5 140.371 51.5 250C51.5 359.629 140.371 448.5 250 448.5Z" fill="white"/>
</mask>
<g mask="url(#mask0_201_701)">
<path d="M83.6998 41.8C81.6998 69.4 80.8998 97.1 81.3998 124.8C81.4998 132.6 81.7998 140.4 82.0998 148.3C82.1998 150.9 86.1998 150.9 86.7998 148.5C93.1998 119.9 97.9998 91 101 61.9C101.3 58.9 96.4998 59.7 96.1998 62.3C93.2998 90.3 90.9998 119 98.0998 146.6C98.7998 149.2 102.7 147.9 102.8 145.7C105 110.3 106 74.8 106 39.3C106 29.3 105.9 19.3 105.7 9.30003C105.6 6.30003 100.9 7.00003 100.9 9.70003C100.6 45.4 104.2 81 108.7 116.4C110 126.5 111.3 136.6 112.7 146.7C113.1 149.5 117.2 147.8 117.4 145.8C122.6 106.6 125.3 67.1 125.5 27.6C125.5 16.5 125.4 5.40003 125 -5.69997C124.9 -8.69997 120.5 -7.89997 120.2 -5.29997C116.4 30 115.7 65.5 118 100.9C118.7 111 119.6 121.1 120.7 131.1C120.8 132.3 122.2 132.7 123.2 132.5C124.4 132.3 125.2 131.4 125.5 130.2C130.6 102.1 133.9 73.7 135.4 45.1C135.8 37 136.1 28.9 136.3 20.7C136.4 17.7 131.7 18.5 131.5 21.1C130 49.5 128.6 78 130.6 106.4C131.2 114.5 132.1 122.5 133.3 130.5C133.7 132.9 137.5 132 137.9 130.1C143.7 107.1 147.2 83.6 148.1 59.9C148.2 56.9 143.5 57.7 143.3 60.3C140.9 90.7 140.7 121.3 142.7 151.7C143.3 160.3 144 168.9 145 177.5C145.3 179.9 149.1 178.9 149.6 177.1C159.4 141.8 161.1 105 160.9 68.5C160.8 58 160.6 47.5 160.4 37.1C160.3 34.1 155.8 34.8 155.6 37.5C153.7 71.2 154.3 105 157.6 138.6C158.5 148.2 159.7 157.7 161 167.3C161.4 170.1 165.4 168.4 165.7 166.4C170.6 133 173.3 99.3 173.6 65.6C173.7 56.1 173.6 46.6 173.3 37.1C173.2 34.1 168.8 34.9 168.5 37.5C165.6 65.6 162.8 94.1 166.2 122.4C167.2 130.3 168.7 138.2 170.8 145.9C171.5 148.6 175.1 147 175.5 145C180.6 119.8 184.2 94.3 186.2 68.7C186.8 61.4 187.2 54.1 187.5 46.7C187.6 43.7 182.9 44.5 182.7 47.1C181.1 75.4 179.6 103.9 183.3 132.1C184.3 140.1 185.8 148.1 187.8 155.9C188.4 158.4 191.7 157.2 192.4 155.5C195.5 148.5 196.7 140.9 197.2 133.3C197.8 125.1 197.9 116.8 198.1 108.6C198.6 91.7 198.9 74.8 199.1 57.9C199.2 48.2 199.3 38.5 199.3 28.8C199.3 25.7 194.9 26.6 194.5 29.2C190.7 56.2 190.5 83.7 194 110.7C195 118.4 196.3 126 197.8 133.6C198.4 136.3 202.3 134.8 202.5 132.7C205.5 107.5 207.6 82.1 208.7 56.7C209 49.4 209.3 42.1 209.5 34.8C207.9 34.9 206.3 35.1 204.7 35.2C205.2 61.4 205.8 87.8 210.7 113.7C212.1 121 213.8 128.2 216 135.3C216.8 137.9 220.4 136.5 220.7 134.4C226.7 99.4 231.1 64.2 234 28.9C234.8 18.8 235.5 8.80003 236.1 -1.29997C236.3 -4.29997 231.5 -3.49997 231.3 -0.899971C229.3 25.9 229.9 52.8 233.2 79.4C234.1 86.9 235.3 94.4 236.7 101.9C237.2 104.4 240.7 103.3 241.3 101.5C250.3 77.1 254.9 51.3 258.5 25.6C259.5 18.2 260.5 10.9 261.4 3.50003C259.8 3.60003 258.2 3.80003 256.6 3.90003C254.1 35.9 251.6 67.9 253 100C253.4 109 254 117.9 255 126.8C255.3 129.6 259.4 127.9 259.7 125.9C264.6 94 264.9 61.4 260.7 29.4C259.5 20.3 257.9 11.3 256 2.30003C255.4 -0.399971 251.5 1.10003 251.3 3.20003C248 33.5 249.4 64.3 255.2 94.2C256.9 102.7 258.9 111.2 261.3 119.5C261.8 121.3 264.1 121.3 265.2 120.1C273.6 111.9 276.1 99.2 278.9 88.3C282.1 75.5 284.5 62.5 286 49.3C286.9 41.9 287.5 34.4 287.8 27C287.9 23.9 283.4 24.9 283 27.4C278.6 56.1 275.9 84.9 274.9 113.9C274.6 122.1 274.5 130.2 274.4 138.4C274.4 141.5 278.7 140.5 279.2 138C284.8 107.4 288.2 76.3 289.3 45.2C287.7 45.3 286.1 45.5 284.5 45.6C283.9 75.3 283.3 105.1 285 134.8C285.5 143.1 286.1 151.5 287 159.8C287.2 162.2 291.1 161.2 291.6 159.4C301.4 124.6 305.5 88.6 308.2 52.7C309 42.4 309.6 32.1 310.3 21.9C310.5 18.9 305.8 19.7 305.5 22.3C302.3 51.1 301 80.1 301.5 109.1C301.6 117.3 301.9 125.4 302.4 133.6C302.6 136.7 306.7 135.7 307.2 133.2C313.1 104 315.5 74.3 317.1 44.6C317.6 36.1 318 27.5 318.4 19C316.8 19.1 315.2 19.3 313.6 19.4C312.9 53.4 311.8 87.5 311.5 121.5C311.4 130.1 311.9 138.7 315.5 146.7C316.3 148.6 319.5 147.4 319.9 145.8C327.3 117.6 331.1 88.5 331.1 59.3C331.1 56.3 326.4 57 326.3 59.7C326.1 73.1 325.9 86.6 325.6 100C325.4 113.2 324.8 126.5 325.1 139.7C325.3 147 325.9 154.3 327.5 161.4C328.2 164.2 331.8 162.4 332.2 160.5C338.6 131.3 342 101.4 342.3 71.5C342.3 68.5 337.7 69.3 337.5 71.9C335.8 100.3 338.2 129 344.8 156.7C345.5 159.5 349.1 157.8 349.5 155.8C355 130 358.3 103.8 359.2 77.4C359.5 69.8 359.5 62.3 359.4 54.7C359.3 51.7 354.7 52.4 354.6 55.1C353.5 82.4 352.5 109.8 355 137C355.7 144.8 356.8 152.5 358.1 160.2C358.6 162.9 362.6 161.4 362.8 159.3C366 130.1 368.1 100.8 369 71.4C369.3 63.1 369.4 54.8 369.5 46.5C369.5 43.5 364.8 44.2 364.7 46.9C364.3 75.6 363.9 104.3 366.4 132.9C367.1 141 368 149 369.2 157C369.6 159.8 373.7 158.1 373.9 156.1C378 125.2 380.9 94.1 382.7 63C383.2 54.1 383.6 45.2 384 36.3C382.4 36.4 380.8 36.6 379.2 36.7C379.1 63.9 379.1 91.1 381.3 118.3C381.9 126 382.7 133.8 383.8 141.5C384.1 143.9 387.9 142.9 388.4 141.1C395.5 115.8 399.4 89.8 402.6 63.8C403.5 56.4 404.4 48.9 405.2 41.5C403.6 41.6 402 41.8 400.4 41.9C399.1 67.6 397.9 93.3 399.5 119C400 126.2 400.7 133.5 401.7 140.7C401.9 141.9 403.2 142.3 404.2 142.1C405.4 141.9 406.2 141 406.5 139.8C411.8 113.5 414.9 86.9 415.7 60.1C415.8 57.1 411 57.8 410.9 60.5C409.9 90.2 408.9 120.2 413.6 149.7C414 152.1 417.7 151.1 418.2 149.3C426.4 120.8 431.4 91.4 432.9 61.7C431.3 61.8 429.7 62 428.1 62.1C428.4 91.1 428.7 120.2 429 149.2C429 152 432.9 151.5 433.7 149.4C443.4 122.4 445 93.4 444.5 64.9C444.4 56.8 444.1 48.7 443.8 40.6C443.7 37.6 439.2 38.3 439 41C437.3 71.9 439.2 103 444.7 133.4C445.1 135.7 448.9 134.9 449.3 133C454.6 109.8 458 86.3 459.4 62.5C457.8 62.8 456.2 63.1 454.7 63.4C455.5 71.3 456.2 79.3 457 87.2C457.3 90 462 88.3 461.7 85.7C460.9 77.8 460.2 69.8 459.4 61.9C459.1 59.2 454.8 60.7 454.7 62.8C453.3 86.1 450 109.4 444.8 132.2C446.3 132.1 447.9 131.9 449.4 131.8C444 101.7 442.1 71 443.7 40.5C442.1 40.6 440.5 40.8 438.9 40.9C439.9 69 440.9 97.5 435.5 125.3C433.9 133.2 431.8 141 429.1 148.6C430.7 148.7 432.2 148.7 433.8 148.8C433.5 119.8 433.2 90.7 432.9 61.7C432.9 58.7 428.2 59.5 428.1 62.1C426.6 91.4 421.8 120.4 413.7 148.6C415.2 148.5 416.8 148.3 418.3 148.2C413.6 119.1 414.6 89.5 415.7 60.2C414.1 60.3 412.5 60.5 410.9 60.6C410.1 87.4 407 114 401.7 140.3C403.3 140 404.9 139.7 406.4 139.4C402.9 114.3 403.1 88.9 404.1 63.6C404.4 56.3 404.8 49.1 405.1 41.8C405.3 38.7 400.6 39.6 400.3 42.2C397.4 67.9 394.4 93.7 389 119.1C387.5 126.3 385.7 133.5 383.7 140.6C385.2 140.5 386.8 140.3 388.3 140.2C384.7 113.5 383.9 86.5 383.8 59.5C383.8 51.8 383.8 44.2 383.8 36.5C383.8 33.5 379.1 34.2 379 36.9C377.9 68.1 375.6 99.2 372.2 130.2C371.2 139.1 370.2 147.9 369 156.7C370.6 156.4 372.2 156.1 373.7 155.8C369.5 127.8 368.9 99.4 369 71.1C369 63 369.2 54.9 369.3 46.8C367.7 46.9 366.1 47.1 364.5 47.2C364.2 76.6 362.8 105.9 360.2 135.2C359.5 143.5 358.7 151.7 357.8 160C359.4 159.7 361 159.4 362.5 159.1C357.7 132.4 357.4 105.2 358.2 78.2C358.4 70.5 358.7 62.8 359 55.1C357.4 55.2 355.8 55.4 354.2 55.5C354.6 81.9 352.8 108.3 348.5 134.3C347.3 141.8 345.9 149.2 344.3 156.6C345.9 156.3 347.5 156 349 155.7C342.5 128.3 340.1 100.1 341.8 72C340.2 72.1 338.6 72.3 337 72.4C336.7 102.3 333.3 132.2 326.9 161.4C328.5 161.1 330.1 160.8 331.6 160.5C328.7 148 329.1 135 329.3 122.3C329.5 109.1 329.7 95.9 329.9 82.7C330 75.1 330.1 67.5 330.3 59.9C328.7 60 327.1 60.2 325.5 60.3C325.5 89.1 321.8 117.8 314.5 145.7C316 145.4 317.4 145.1 318.9 144.8C315.8 137.9 315.4 130.2 315.4 122.8C315.4 114.6 315.7 106.5 315.9 98.3C316.2 81.6 316.6 64.9 316.9 48.1C317.1 38.6 317.3 29.1 317.5 19.6C317.6 16.6 312.8 17.4 312.7 20C311.3 49.7 309.9 79.5 305.8 109C304.6 117.4 303.2 125.9 301.5 134.2C303.1 134.1 304.7 133.9 306.3 133.8C304.8 104.9 305 75.8 307.2 46.9C307.8 38.7 308.6 30.6 309.4 22.5C307.8 22.6 306.2 22.8 304.6 22.9C302.3 58.7 300 94.6 293.2 129.9C291.3 139.8 289 149.6 286.2 159.3C287.7 159.2 289.3 159 290.8 158.9C287.8 129.6 287.6 100.2 288 70.8C288.1 62.5 288.3 54.2 288.4 45.9C288.5 42.9 283.7 43.7 283.6 46.3C282.5 77.4 279.1 108.5 273.5 139.1C275.1 139 276.7 138.8 278.3 138.7C278.4 109.7 280.1 80.7 283.6 52C284.6 43.9 285.7 35.8 286.9 27.7C285.3 27.8 283.7 28 282.1 28.1C281 53.2 277 78.4 269.6 102.4C267.8 108.1 265.5 113.9 261.2 118.1C262.5 118.3 263.8 118.5 265.1 118.7C256.8 89.6 252.8 59.3 253.5 29.1C253.7 20.5 254.3 12 255.2 3.50003C253.6 3.80003 252 4.10003 250.5 4.40003C257.2 35.7 259.5 68 257.2 99.9C256.5 108.9 255.5 117.9 254.1 126.9C255.7 126.6 257.3 126.3 258.8 126C255.2 94.4 256.3 62.5 258.5 30.9C259.1 22 259.8 13.1 260.5 4.20003C260.7 1.20003 256 2.00003 255.7 4.60003C252.4 30.1 249.2 55.7 242.5 80.6C240.6 87.6 238.4 94.6 235.9 101.4C237.4 101.3 239 101.1 240.5 101C235.7 75 233.6 48.5 234.1 22C234.2 14.4 234.6 6.90003 235.2 -0.699971C233.6 -0.599971 232 -0.399971 230.4 -0.299971C228.4 35.1 224.8 70.4 219.7 105.5C218.2 115.5 216.7 125.5 215 135.4C216.6 135.1 218.2 134.8 219.7 134.5C212.1 109.6 209.9 83.5 209 57.5C208.7 50.2 208.6 42.9 208.4 35.5C208.3 32.5 203.7 33.2 203.6 35.9C203 61.3 201.4 86.7 198.9 112C198.2 119.3 197.4 126.6 196.5 133.8C198.1 133.5 199.7 133.2 201.2 132.9C195.8 106.4 193.9 79.3 195.7 52.3C196.2 44.7 197 37.1 198 29.6C196.4 29.7 194.8 29.9 193.2 30C193.2 63.5 192.8 97.1 191.3 130.5C190.9 139.1 190 147.7 186.5 155.6C188 155.5 189.6 155.3 191.1 155.2C184.2 127.9 183.8 99.5 184.9 71.5C185.2 63.5 185.7 55.5 186.1 47.5C184.5 47.6 182.9 47.8 181.3 47.9C180.2 73.6 177.5 99.2 173.3 124.5C172.1 131.7 170.8 139 169.3 146.2C170.9 145.9 172.5 145.6 174 145.3C166.6 118.1 167.2 89.7 169.5 61.8C170.2 53.9 171 46 171.8 38.1C170.2 38.2 168.6 38.4 167 38.5C168 72.2 166.7 106 163.1 139.6C162.1 149.1 160.9 158.5 159.5 167.9C161.1 167.6 162.7 167.3 164.2 167C159.5 133.8 157.3 100.3 157.8 66.8C157.9 57.3 158.3 47.8 158.8 38.3C157.2 38.4 155.6 38.6 154 38.7C154.8 75 155.5 111.6 149.9 147.6C148.3 157.7 146.2 167.7 143.5 177.6C145 177.5 146.6 177.3 148.1 177.2C144.8 147.2 143.8 117.1 144.9 87C145.2 78.4 145.7 69.8 146.4 61.2C144.8 61.3 143.2 61.5 141.6 61.6C140.7 84.9 137.4 108 131.7 130.6C133.2 130.5 134.8 130.3 136.3 130.2C132.1 102.3 132.2 74 133.4 45.9C133.7 37.9 134.2 29.9 134.6 22C133 22.1 131.4 22.3 129.8 22.4C129.3 51 127 79.5 122.9 107.8C121.7 115.8 120.4 123.9 119 131.9C120.6 131.6 122.2 131.3 123.7 131C119.7 96 118.7 60.7 120.7 25.6C121.3 15.6 122.1 5.70003 123.2 -4.19997C121.6 -4.09997 120 -3.89997 118.4 -3.79997C119.6 35.7 118.4 75.3 114.6 114.6C113.5 125.7 112.3 136.7 110.8 147.7C112.4 147.4 114 147.1 115.5 146.8C110.8 111.7 106.1 76.5 104.5 41C104 31 103.8 20.9 103.9 10.9C102.3 11 100.7 11.2 99.0998 11.3C99.6998 46.8 99.2998 82.3 97.6998 117.7C97.2998 127.7 96.6998 137.7 96.0998 147.6C97.6998 147.3 99.2998 147 100.8 146.7C93.7998 119.5 96.0998 91.2 98.9998 63.5C97.3998 63.6 95.7998 63.8 94.1998 63.9C91.1998 92.6 86.5998 121.2 80.2998 149.4C81.8998 149.5 83.3998 149.5 84.9998 149.6C83.8998 121.9 83.8998 94.2 85.2998 66.6C85.6998 58.8 86.0998 51 86.6998 43.2C88.6998 38.4 83.8998 39.2 83.6998 41.8Z" fill="white"/>
</g>
<mask id="mask1_201_701" style="mask-type:luminance" maskUnits="userSpaceOnUse" x="51" y="51" width="398" height="398">
<path d="M250 448.5C359.629 448.5 448.5 359.629 448.5 250C448.5 140.371 359.629 51.5 250 51.5C140.371 51.5 51.5 140.371 51.5 250C51.5 359.629 140.371 448.5 250 448.5Z" fill="white"/>
</mask>
<g mask="url(#mask1_201_701)">
<path d="M56.2 156.2C56.3 184.9 56.4 213.6 56.6 242.3C56.6 250.4 56.7 258.5 56.7 266.7C56.7 267.4 60.7 265.5 61 265C69.4 252.1 70.7 236.3 72.9 221.4C75.4 204.4 77.7 187.3 80 170.3C81.3 160.7 82.6 151.1 83.8 141.5C82.3 142.2 80.8 142.8 79.3 143.5C79.8 172.1 80.3 200.8 80.9 229.4C80.9 230 85.2 228.4 85.4 227.4C92.7 200 96.1 171.7 95.6 143.4C95.6 143 91.1 144.2 91.1 145.4C89.9 173.4 88.7 201.4 89.4 229.4C89.6 237.5 90 245.5 90.5 253.5C90.5 254.1 94.8 252.4 95 251.5C101.5 224.5 105.1 196.8 105.7 169C104.2 169.7 102.7 170.4 101.2 171.2C102.3 199.1 103.4 227.1 104.5 255C104.8 263 105.1 270.9 105.5 278.9C105.5 279.5 109.7 277.8 110 276.9C118.3 248 122.6 218.3 125.9 188.5C126.9 179.9 127.7 171.4 128.6 162.8C127.1 163.5 125.6 164.1 124.1 164.8C123.3 195.4 122.7 226.1 122.3 256.7C122.2 265.5 122.1 274.2 122 283C122 283.8 126.2 281.6 126.5 281C133.3 269.9 134.5 256.7 135.8 244.1C137.4 229.3 138.8 214.4 140.2 199.6C141 191.2 141.7 182.9 142.5 174.5C141 175.2 139.5 175.8 138 176.5C138.5 204.9 140.9 233.3 145.1 261.5C145.2 262.3 149.3 260.3 149.6 259.5C158.6 235.2 160.1 209 161.5 183.3C160 184 158.5 184.6 157 185.3C156.3 217.8 156.9 250.4 158.8 282.8C158.8 283.4 163.1 281.7 163.3 280.8C171.5 253.1 174.1 224.1 175.3 195.3C175.7 187 175.9 178.8 176.1 170.5C174.6 171.2 173.1 171.8 171.6 172.5C171.4 201.6 171.8 230.7 172.7 259.7C173 267.9 173.3 276.2 173.6 284.4C173.6 285.2 177.6 283.1 177.9 282.7C185.3 271.7 185.6 257.8 186.7 245C188 229.6 189 214.2 189.9 198.8C190.4 190.1 190.8 181.4 191.1 172.6C191.1 171.8 186.7 173.2 186.6 174.4C184.6 204 185 233.7 187.9 263.2C188 263.9 192.2 262.1 192.4 261.2C199.6 231.6 204.7 201.6 207.5 171.3C208.3 162.6 208.9 153.9 209.4 145.2C207.9 145.9 206.4 146.5 204.9 147.2C205.5 173.1 206.1 198.9 206.6 224.8C206.6 225.6 210.8 223.5 211.1 222.8C223.1 199.8 224.2 173.4 225 148C223.5 148.7 222 149.3 220.5 150C219.9 183.7 219.7 217.4 219.9 251.2C219.9 260.8 220 270.4 220.1 280C220.1 280.6 224.3 279 224.6 278C231.5 254.3 235 229.7 235.1 205C235.1 204.6 230.6 205.8 230.6 207C229.9 228 230.4 249 232 269.9C232 270.5 236.4 268.9 236.5 267.9C240.5 241.1 241.6 214 241.9 187C242 179.2 242 171.3 242.1 163.4C242.1 163.1 237.6 164.2 237.6 165.6C236.9 194.3 237.5 223 239.2 251.7C239.2 252.3 243.5 250.7 243.7 249.7C249.6 222.1 251.7 193.7 249.9 165.5C249.9 165.1 245.4 166.3 245.4 167.7C245.2 194.8 247.2 221.8 251.5 248.5C252.7 256.1 254.1 263.7 255.6 271.2C255.8 272 259.9 270.1 260.1 269.2C266.5 238.9 269.9 208 270.4 177C270.4 176.7 265.9 177.7 265.9 179.2C265.4 209.6 264.9 240.1 269.2 270.3C269.3 271 273.5 269.2 273.7 268.3C281.8 236 288.1 203.2 292.4 170.1C290.9 170.8 289.4 171.4 287.9 172.1C287 202.9 286.1 233.7 285.3 264.5C285.3 265 289.5 263.4 289.8 262.5C298.3 236.7 298.1 209.2 297.7 182.3C297.7 181.9 293.2 183.1 293.2 184.3C292.2 214.4 293.2 244.5 296.2 274.5C296.3 275.2 300.5 273.4 300.7 272.5C308.7 244.5 311.8 215.5 313.7 186.5C314.3 178.2 314.7 169.9 315.2 161.6C315.2 160.8 310.8 162.2 310.7 163.4C308.2 190 307.5 216.9 308.7 243.6C309 251.2 309.5 258.9 310.2 266.5C310.3 267.4 314.2 265.1 314.5 264.8C322.8 256.3 324.1 243.5 326 232.4C328.3 218.5 330.1 204.5 331.7 190.6C332.6 182.6 333.5 174.6 334.4 166.6C332.9 167.2 331.4 167.8 329.9 168.4C328.7 196.1 330.1 223.9 334.1 251.3C334.2 252.1 338.4 250.1 338.6 249.3C348.2 219.6 349.8 188.2 351.3 157.3C349.8 158 348.3 158.6 346.8 159.3C346.6 187.9 346.5 216.5 346.3 245.1C346.3 253.2 346.2 261.3 346.2 269.4C346.2 269.8 350.5 268.5 350.7 267.4C355.5 237.2 360.3 206.9 365.1 176.7C363.6 177.3 362.1 177.9 360.6 178.5C359.9 202.3 360.5 226.2 362.4 250C362.5 250.6 366.7 249 366.9 248C372.6 220.6 373.6 192.6 374.5 164.7C374.5 163.9 370.1 165.3 370 166.5C368.8 194.4 371.5 222.3 378.1 249.5C378.3 250.3 382.4 248.3 382.6 247.5C390.8 217.2 397.4 186.6 402.5 155.6C401 156.3 399.5 156.9 398 157.6C398.6 184.6 397.7 211.5 396.8 238.4C396.8 239.3 401.1 237.7 401.3 236.6C405.5 214.7 408.3 192.6 409.5 170.4C409.5 169.6 405.1 171 405 172.2C403.1 198.2 403.2 224.3 405.1 250.4C405.2 251.1 409.3 249.2 409.6 248.4C419.2 220.3 423.4 190.8 427.6 161.6C426.1 162.2 424.6 162.8 423.1 163.4C421.6 188.9 421.4 214.5 422.5 240.1C422.5 240.7 426.8 239 427 238.1C433.9 213.2 437.2 187.5 436.7 161.7C435.2 162.4 433.7 163.1 432.2 163.9C432.9 190.4 433.6 217.1 439.9 242.9C440.1 243.8 444.2 241.7 444.4 240.9C449 225.5 453.5 210 458.1 194.6C456.6 195.2 455.1 195.8 453.6 196.4C453.1 214.5 453.1 232.6 453.7 250.8C453.7 251.4 458 249.8 458.2 248.8C463.3 228.4 466.5 207.6 467.7 186.7C467.7 185.9 463.3 187.3 463.2 188.5C462 209.5 458.8 230.3 453.7 250.6C455.2 249.9 456.7 249.3 458.2 248.6C457.6 230.6 457.6 212.6 458.1 194.6C458.1 193.7 453.9 195.4 453.6 196.4C449 211.8 444.5 227.3 439.9 242.7C441.4 242 442.9 241.4 444.4 240.7C438 214.9 437.3 188.2 436.7 161.7C436.7 161.4 432.2 162.5 432.2 163.9C432.7 189.6 429.4 215.2 422.5 240C424 239.3 425.5 238.7 427 238C425.9 212.6 426.1 187.1 427.6 161.7C427.6 160.9 423.3 162.3 423.1 163.5C418.9 192.8 414.7 222.2 405.1 250.3C406.6 249.6 408.1 249 409.6 248.3C407.7 222.4 407.6 196.4 409.5 170.5C408 171.1 406.5 171.7 405 172.3C403.8 194.5 401.1 216.6 396.8 238.5C398.3 237.9 399.8 237.3 401.3 236.7C402.2 209.6 403.1 182.5 402.5 155.5C402.5 155 398.2 156.4 398 157.5C392.9 188.4 386.3 219.1 378.1 249.4C379.6 248.7 381.1 248.1 382.6 247.4C376 220.4 373.3 192.6 374.5 164.8C373 165.4 371.5 166 370 166.6C369.1 194.5 368.1 222.5 362.4 249.9C363.9 249.2 365.4 248.6 366.9 247.9C364.9 224.3 364.3 200.5 365 176.8C365 175.9 360.7 177.5 360.5 178.6C355.7 208.8 350.9 239.1 346.1 269.3C347.6 268.6 349.1 268 350.6 267.3C350.8 238.7 350.9 210.1 351.1 181.5C351.1 173.4 351.2 165.3 351.2 157.2C351.2 156.8 346.8 158 346.7 159.2C345.2 190.1 343.6 221.5 334 251.2C335.5 250.5 337 249.9 338.5 249.2C334.5 221.9 333.1 194.2 334.3 166.7C334.3 165.9 329.9 167.3 329.8 168.5C328.3 182.4 326.7 196.2 324.9 210C323.2 223 321.7 236.3 318.6 249.1C317.1 255.4 314.8 261.5 310.2 266.2C311.6 265.6 313.1 265.1 314.5 264.5C311.6 230.3 311.8 196 315 161.8C313.5 162.4 312 163 310.5 163.6C308.9 192.6 307.3 221.7 301.8 250.3C300.2 258.4 298.3 266.5 296.1 274.5C297.6 273.8 299.1 273.2 300.6 272.5C297.6 242.7 296.6 212.7 297.6 182.7C296.1 183.4 294.6 184 293.1 184.7C293.4 211.5 293.6 238.8 285.2 264.5C286.7 263.8 288.2 263.2 289.7 262.5C290.6 231.7 291.5 200.9 292.3 170.1C292.3 169.7 287.9 170.9 287.8 172.1C283.5 205.2 277.2 238 269.1 270.3C270.6 269.6 272.1 269 273.6 268.3C269.3 238.1 269.8 207.6 270.3 177.2C268.8 177.9 267.3 178.6 265.8 179.4C265.4 210.2 261.9 241 255.5 271.2C257 270.5 258.5 269.9 260 269.2C254.5 242.7 251.2 215.8 250.1 188.7C249.8 181 249.7 173.3 249.7 165.6C248.2 166.3 246.7 167 245.2 167.8C247 195.9 244.9 224.1 239 251.6C240.5 250.9 242 250.3 243.5 249.6C241.8 220.9 241.2 192.2 241.9 163.5C240.4 164.2 238.9 164.9 237.4 165.7C237.3 192.8 237.2 219.9 234.7 246.8C234 254.5 233.1 262.1 231.9 269.7C233.4 269 234.9 268.4 236.4 267.7C234.7 246.9 234.2 226 234.9 205.2C233.4 205.9 231.9 206.5 230.4 207.2C230.3 231.8 226.7 256.2 219.9 279.8C221.4 279.1 222.9 278.5 224.4 277.8C224 244.1 224 210.4 224.4 176.6C224.5 167 224.6 157.4 224.8 147.8C224.8 147.5 220.3 148.6 220.3 149.8C219.4 175.2 218.3 201.6 206.4 224.6C207.9 223.9 209.4 223.3 210.9 222.6C210.3 196.7 209.7 170.9 209.2 145C209.2 144.6 204.8 145.8 204.7 147C203.1 177.4 199.4 207.6 193.4 237.5C191.7 246.1 189.8 254.6 187.7 263.1C189.2 262.4 190.7 261.8 192.2 261.1C189.3 231.7 188.9 202.2 190.9 172.7C189.4 173.3 187.9 173.9 186.4 174.5C185.8 189.7 185.1 204.8 184.1 220C183.1 234.5 182.4 249.3 180.5 263.7C179.5 270.9 177.8 278.1 173.7 284.2C175.1 283.6 176.6 283.1 178 282.5C176.7 253.5 176 224.4 175.9 195.3C175.9 187.1 175.9 178.8 175.9 170.6C175.9 170.2 171.4 171.4 171.4 172.6C170.6 201.4 169.7 230.4 164.3 258.9C162.8 267 160.9 275 158.5 282.9C160 282.2 161.5 281.6 163 280.9C161.2 248.4 160.6 215.9 161.2 183.4C161.2 183.1 156.8 184.2 156.7 185.4C155.3 211.1 153.8 237.2 144.8 261.6C146.3 260.9 147.8 260.3 149.3 259.6C145.1 231.5 142.8 203.1 142.2 174.6C142.2 174.2 137.8 175.5 137.7 176.6C136.3 191.4 135 206.3 133.5 221.1C132.8 228.5 132 235.9 131.2 243.3C130.5 249.9 129.9 256.6 128.7 263.1C127.4 270.1 125.3 276.9 121.6 283C123.1 282.3 124.6 281.7 126.1 281C126.3 250.4 126.8 219.7 127.5 189.1C127.7 180.3 127.9 171.6 128.1 162.8C128.1 162.5 123.7 163.6 123.6 164.8C120.5 194.6 117.5 224.5 111.2 253.9C109.4 262.3 107.3 270.7 104.9 278.9C106.4 278.2 107.9 277.6 109.4 276.9C108.3 249 107.2 221 106.1 193.1C105.8 185.1 105.5 177.2 105.1 169.2C105.1 168.8 100.6 170 100.6 171.4C100 199.1 96.4 226.6 89.9 253.5C91.4 252.8 92.9 252.2 94.4 251.5C92.5 223.5 92.9 195.5 93.9 167.5C94.2 159.6 94.5 151.7 94.9 143.7C93.4 144.4 91.9 145 90.4 145.7C90.9 173.9 87.5 202.1 80.2 229.3C81.7 228.6 83.2 228 84.7 227.3C84.2 198.7 83.7 170 83.1 141.4C83.1 140.9 78.7 142.3 78.6 143.4C76.4 160.2 74.2 177 71.8 193.8C69.6 210.1 67.6 226.5 64.6 242.6C63 250.9 60.7 259.2 56 266.4C57.4 265.8 58.9 265.3 60.3 264.7C60.2 236 60.1 207.3 59.9 178.6C59.9 170.5 59.8 162.4 59.8 154.2C60.7 153.7 56.2 154.8 56.2 156.2Z" fill="white"/>
</g>
<mask id="mask2_201_701" style="mask-type:luminance" maskUnits="userSpaceOnUse" x="51" y="51" width="398" height="398">
<path d="M250 448.5C359.629 448.5 448.5 359.629 448.5 250C448.5 140.371 359.629 51.5 250 51.5C140.371 51.5 51.5 140.371 51.5 250C51.5 359.629 140.371 448.5 250 448.5Z" fill="white"/>
</mask>
<g mask="url(#mask2_201_701)">
<path d="M60.2999 370.8C62.7999 344.9 65.2999 319 67.7999 293.1C66.1999 292.9 64.5999 292.8 62.9999 292.6C66.3999 312.7 69.7999 332.8 73.1999 352.9C73.5999 355.2 77.3999 355.8 77.9999 353.4C83.4999 330 85.5999 306 84.4999 282C84.3999 279.6 79.6999 278.2 79.6999 281C79.5999 305.4 81.0999 329.8 84.2999 354.1C84.5999 356.3 88.6999 357.1 89.0999 354.6C92.2999 332.8 93.6999 310.7 93.2999 288.6C93.2999 286.1 88.5999 284.8 88.4999 287.6C86.9999 316.3 89.1999 345.2 95.0999 373.4C95.5999 375.6 99.2999 376.3 99.8999 373.9C106.8 343.9 110.4 313.1 110.5 282.3C110.5 279.8 105.7 278.5 105.7 281.3C105.1 312.1 104.7 343.3 111.9 373.5C112.3 375.1 115.9 376.7 116.6 374.5C122.9 351.7 127 328.3 128.6 304.6C127 304.3 125.4 303.9 123.8 303.6C123.2 333.6 122.7 363.9 127.6 393.6C127.9 395.4 131.5 396.6 132.3 394.6C141.9 369.7 145.3 343 147.2 316.6C147.7 309.1 148.1 301.5 148.5 294C146.9 293.7 145.3 293.3 143.7 293C143.1 321.1 144.2 349.2 147 377.2C147.2 379.1 150.9 380.2 151.7 378.2C161.6 351.6 161.6 322.9 161.5 295C161.5 292.5 156.7 291.3 156.7 294C156.6 310.3 156.8 326.6 157.1 343C157.3 351 157.5 359 157.7 366.9C157.9 373.7 158.4 380.8 162.2 386.7C162.9 387.8 166.1 389.3 166.7 387.1C174.1 358.7 176.7 329.5 179.1 300.4C177.5 300.1 175.9 299.7 174.3 299.4C172.7 332.8 173.5 366.3 176.7 399.6C176.9 401.6 180.5 402.5 181.4 400.6C187.9 386.9 190.2 371.7 191.9 356.8C193.8 340.2 195.3 323.6 196.5 307C197.2 297.4 197.8 287.9 198.3 278.3C196.7 278 195.1 277.6 193.5 277.3C193.8 310.3 194.2 343.2 194.5 376.2C194.5 378.2 198.6 380.2 199.2 377.7C206.8 348 211.8 317.7 213.9 287.1C214.5 278.4 214.9 269.7 215.1 261C215.1 258.5 210.4 257.2 210.3 260C208.9 294.1 207.5 328.2 209.4 362.2C210 371.8 210.8 381.4 211.9 390.9C212.2 393.2 216.2 393.8 216.7 391.4C223.1 360.6 226.2 329.1 226 297.6C226 295.1 221.2 293.8 221.2 296.6C220.6 327.9 220.1 359.4 226.1 390.3C226.4 392 230 393.4 230.8 391.3C240.9 360.8 241.8 328.5 242.6 296.7C242.7 294.2 237.9 292.9 237.8 295.7C236.3 329.9 238.5 364.2 244.4 398C244.7 399.7 248.4 401.1 249.1 399C257.8 370.4 261.4 340.6 263.9 310.9C264.6 302.4 265.2 294 265.8 285.5C264.2 285.2 262.6 284.8 261 284.5C260.8 313.4 263.6 342.4 269.3 370.8C269.8 373.1 273.5 373.7 274.1 371.3C280.6 345.2 284.5 318.6 285.8 291.7C284.2 291.4 282.6 291 281 290.7C281.9 313.9 282.8 337.2 283.6 360.4C283.7 362.4 287.4 364.4 288.3 361.9C296.6 340.3 299.2 317.2 301.7 294.4C300.1 294.1 298.5 293.7 296.9 293.4C298.3 318.3 301.5 343.1 306.6 367.5C307 369.7 310.9 370.5 311.4 368C316.3 343.9 318.7 319.3 318.8 294.7C318.8 292.2 314.1 290.9 314 293.7C313.1 321.6 313.8 349.5 316.1 377.3C316.3 379.6 320.4 380.1 320.9 377.8C326.4 351.7 330.3 325.3 332.7 298.7C331.1 298.4 329.5 298 327.9 297.7C328.9 321.3 330 344.9 331 368.5C331.1 371 335.1 372.3 335.8 369.5C343.3 339.2 347.6 308.1 348.6 276.8C348.7 274.3 343.9 273 343.8 275.8C342.6 307 342.6 338.3 344 369.6C344.1 371.6 347.9 373.6 348.7 371.1C358.6 339.7 362.4 307 366.2 274.5C364.6 274.2 363 273.8 361.4 273.5C361.5 290.3 361.5 307.1 361.6 323.9C361.7 339.6 361 355.8 366 370.8C366.7 372.8 370.3 374 370.8 371.3C376.1 341.8 379.7 312.1 381.6 282.2C382.1 273.8 382.6 265.4 382.8 256.9C381.2 256.6 379.6 256.2 378 255.9C379 286.8 380 317.7 381 348.6C381.1 351.1 385.2 352.4 385.8 349.6C390.7 326.9 395.5 304.3 400.4 281.6C398.8 281.3 397.2 280.9 395.6 280.6C396 305.3 396.4 330.1 396.8 354.8C396.8 357.3 401 358.6 401.6 355.8C406.2 334.1 409.1 312.1 410.3 289.9C408.7 289.6 407.1 289.2 405.5 288.9C404.8 311.8 408 334.7 415 356.5C415.6 358.4 419.4 359.7 419.8 357C423.6 330.9 425.7 304.6 426 278.2C424.4 277.9 422.8 277.5 421.2 277.2C421 299.6 420.9 322.5 427.5 344.2C428.1 346.2 431.8 347.3 432.3 344.7C436.8 321 439.8 297 441.2 272.9C439.6 272.6 438 272.2 436.4 271.9C437.2 291.6 438 311.4 442.4 330.6C442.8 332.2 446.5 333.9 447.1 331.6C452.4 311.4 456.1 290.8 458 270C456.4 269.7 454.8 269.3 453.2 269C452.9 294.6 452.7 320.3 456.2 345.8C456.4 347.5 460.3 348.9 460.9 346.8C467.3 322.1 471.9 297 474.5 271.7C472.9 271.5 471.3 271.4 469.7 271.2C471.7 294 472.9 316.9 473.5 339.8C473.6 342.3 478.4 343.5 478.3 340.8C477.7 317.6 476.4 294.3 474.4 271.2C474.2 269 469.9 268.2 469.6 270.7C467 295.7 462.5 320.5 456.2 344.8C457.8 345.1 459.3 345.4 460.9 345.8C457.4 320.7 457.7 295.4 457.9 270.1C457.9 267.6 453.3 266.3 453.1 269.1C451.2 289.5 447.6 309.8 442.4 329.6C444 329.9 445.5 330.2 447.1 330.6C442.7 311.7 441.9 292.3 441.1 273C441 270.6 436.4 269.2 436.3 272C434.9 296.1 431.9 320.1 427.4 343.8C429 344 430.6 344.1 432.2 344.3C425.7 322.9 425.8 300.5 426 278.4C426 275.9 421.2 274.7 421.2 277.4C420.9 303.8 418.8 330.1 415 356.2C416.6 356.4 418.2 356.5 419.8 356.7C412.9 335.2 409.7 312.7 410.3 290.2C410.4 287.7 405.6 286.4 405.5 289.2C404.4 311.4 401.5 333.4 396.8 355.1C398.4 355.4 400 355.8 401.6 356.1C401.2 331.4 400.8 306.6 400.4 281.9C400.4 279.4 396.2 278.1 395.6 280.9C390.7 303.6 385.9 326.2 381 348.9C382.6 349.2 384.2 349.6 385.8 349.9C384.8 319 383.8 288.1 382.8 257.2C382.7 254.8 378.1 253.4 378 256.2C377 286.1 374.4 316 370 345.6C368.8 353.9 367.4 362.3 365.9 370.6C367.5 370.8 369.1 370.9 370.7 371.1C365.7 356.1 366.4 340 366.4 324.4C366.3 307.9 366.3 291.4 366.2 274.9C366.2 272.4 361.7 271.1 361.4 273.9C357.7 306.1 353.9 338.5 344.1 369.5C345.7 370 347.2 370.5 348.8 371C347.5 339.8 347.4 308.5 348.6 277.2C347 276.9 345.4 276.5 343.8 276.2C342.8 307.4 338.5 338.5 331 368.9C332.6 369.2 334.2 369.6 335.8 369.9C334.8 346.3 333.7 322.7 332.7 299.1C332.6 296.7 328.1 295.2 327.9 298.1C325.5 324.7 321.5 351.1 316.1 377.2C317.7 377.4 319.3 377.5 320.9 377.7C318.6 350.3 318 322.7 318.9 295.2C317.3 294.9 315.7 294.5 314.1 294.2C314.1 318.8 311.6 343.4 306.7 367.5C308.3 367.7 309.9 367.8 311.5 368C306.6 343.9 303.3 319.5 301.9 295C301.8 292.6 297.4 291.1 297.1 294C294.7 316.5 292.2 339.2 284 360.5C285.6 361 287.1 361.5 288.7 362C287.8 338.8 286.9 315.5 286.1 292.3C286 289.9 281.4 288.5 281.3 291.3C280 318.1 276.1 344.8 269.6 370.9C271.2 371.1 272.8 371.2 274.4 371.4C268.7 343.4 266 314.8 266.2 286.2C266.2 283.7 261.6 282.4 261.4 285.2C259.3 314.6 257.2 344.2 251.2 373.2C249.5 381.4 247.4 389.6 245 397.7C246.6 398 248.1 398.3 249.7 398.7C243.8 365.3 241.6 331.4 243.1 297.5C241.5 297.2 239.9 296.8 238.3 296.5C237.5 327.9 236.7 360 226.8 390.1C228.4 390.4 229.9 390.7 231.5 391.1C225.6 360.6 226.2 329.4 226.7 298.5C225.1 298.2 223.5 297.8 221.9 297.5C222.2 329 219.1 360.5 212.6 391.3C214.2 391.5 215.8 391.6 217.4 391.8C213.4 358.2 213.5 324.4 214.7 290.6C215 281 215.4 271.4 215.8 261.8C214.2 261.5 212.6 261.1 211 260.8C210.4 291.1 207.2 321.4 201.2 351.1C199.5 359.6 197.6 368.1 195.4 376.5C197 377 198.5 377.5 200.1 378C199.8 345 199.4 312.1 199.1 279.1C199.1 276.6 194.4 275.3 194.3 278.1C193.4 294.7 192.3 311.2 190.8 327.7C189.4 343.5 188.2 359.5 185.2 375.1C183.6 383.5 181.3 391.7 177.6 399.4C179.2 399.7 180.7 400 182.3 400.4C179.2 367.5 178.5 334.3 180 301.3C180.1 298.8 175.4 297.5 175.2 300.3C172.8 329 170.4 358 163 386C164.5 386.1 166 386.3 167.5 386.4C163.7 380.4 163.6 373.2 163.4 366.3C163.2 358.6 163 350.8 162.8 343.1C162.5 327.3 162.4 311.6 162.4 295.8C160.8 295.5 159.2 295.1 157.6 294.8C157.8 322.4 157.9 350.8 148.1 377C149.7 377.3 151.2 377.6 152.8 378C150 350.4 149 322.6 149.6 294.9C149.7 292.4 144.9 291.1 144.8 293.9C143.4 320 142 346.4 135.7 371.8C133.9 379.2 131.6 386.4 128.9 393.5C130.5 393.8 132 394.1 133.6 394.5C128.8 365.1 129.3 335.2 129.9 305.5C129.9 303 125.3 301.7 125.1 304.5C123.5 327.8 119.6 350.8 113.4 373.3C115 373.6 116.5 373.9 118.1 374.3C110.9 344.5 111.4 313.7 112 283.2C110.4 282.9 108.8 282.5 107.2 282.2C107.1 313 103.5 343.8 96.5999 373.8C98.1999 374 99.7999 374.1 101.4 374.3C95.5999 346.5 93.3999 318 94.8999 289.6C93.2999 289.3 91.6999 288.9 90.0999 288.6C90.4999 310.7 89.0999 332.8 85.8999 354.6C87.4999 354.8 89.0999 354.9 90.6999 355.1C87.5999 331.2 86.0999 307.2 86.1999 283.1C84.5999 282.8 82.9999 282.4 81.3999 282.1C82.4999 306.1 80.3999 330.1 74.8999 353.5C76.4999 353.7 78.0999 353.8 79.6999 354C76.2999 333.9 72.8999 313.8 69.4999 293.7C69.0999 291.6 64.9999 290.7 64.6999 293.2C62.1999 319.1 59.6999 345 57.1999 370.9C55.2999 372.3 60.0999 373.5 60.2999 370.8Z" fill="white"/>
</g>
<mask id="mask3_201_701" style="mask-type:luminance" maskUnits="userSpaceOnUse" x="51" y="51" width="398" height="398">
<path d="M250 448.5C359.629 448.5 448.5 359.629 448.5 250C448.5 140.371 359.629 51.5 250 51.5C140.371 51.5 51.5 140.371 51.5 250C51.5 359.629 140.371 448.5 250 448.5Z" fill="white"/>
</mask>
<g mask="url(#mask3_201_701)">
<path d="M159.7 443.9C158.2 431.6 157.4 419.3 157.3 407C156.2 406.2 155.1 405.3 154 404.5C154.6 420.1 156.3 435.7 159.1 451.1C159.3 452.1 159.8 453.1 160.6 453.7C160.9 454 162.1 454.7 162.3 453.9C167.5 438.9 171 423.3 174.5 407.8C173.4 406.8 172.3 405.8 171.2 404.8C171.2 422 171.3 439.2 171.3 456.3C171.3 457.4 171.8 458.4 172.6 459.2C173 459.6 174.2 460.6 174.6 459.7C181.5 443.7 184.8 426.6 188 409.6C186.9 408.6 185.8 407.6 184.7 406.6C184 421.1 184.8 435.7 187 450C187.2 451 187.7 452 188.5 452.6C188.9 452.9 189.9 453.6 190.2 452.8C197.6 434.5 198.5 414.5 199.2 395.1C199.2 393.9 198.6 392.7 197.7 392C197.2 391.6 195.9 390.9 195.9 392.1C195 411.7 195.7 431.3 197.9 450.8C198.4 455 199.2 460.2 203.4 462.3C203.7 462.5 204.5 462.8 204.7 462.2C209.2 446.4 211.1 430.1 212.9 413.8C211.8 413 210.7 412.1 209.6 411.3C210.4 429.9 212.4 448.5 215.6 466.8C215.8 467.8 216.3 468.8 217.1 469.4C217.5 469.7 218.5 470.4 218.8 469.6C226.5 450.5 229.2 429.9 230.7 409.5C231.1 403.6 231.5 397.7 231.8 391.9C230.7 390.9 229.6 389.9 228.5 388.9C228.6 405.5 228.7 422.2 231.7 438.5C232.5 443.1 233.6 447.7 235 452.2C235.3 453.1 235.9 454 236.6 454.5C236.9 454.7 237.9 455.3 238.1 454.6C244.3 437.4 245.6 419 246.9 400.9C245.8 399.9 244.7 398.9 243.6 397.9C242.4 415.4 243.5 433.1 247.1 450.4C247.3 451.4 247.8 452.4 248.6 453C248.9 453.3 250.1 454 250.3 453.2C256 436.5 259.6 419 260.8 401.4C259.7 400.6 258.6 399.7 257.5 398.9C258.2 412 258.9 425.1 259.6 438.2C259.6 439.1 260.4 440.2 261.1 440.8C261.4 441.1 262.6 441.8 262.8 441C268.7 423.8 270.8 405.7 272 387.7C272.3 382.5 272.6 377.3 272.9 372.1C271.8 371.1 270.7 370.1 269.6 369.1C269.1 386.8 269.4 404.5 270.8 422.2C271.2 427.3 271.6 432.3 272.2 437.4C272.3 438.4 273 439.4 273.7 440C274 440.3 275.2 441 275.4 440.2C280.8 423.2 283.4 405.5 285.3 387.8C285.8 382.8 286.3 377.8 286.8 372.7C285.7 371.7 284.6 370.7 283.5 369.7C283.6 386.6 283.7 403.5 283.9 420.4C283.9 425.2 284 430 284 434.8C284 435.9 284.5 436.9 285.3 437.7C285.6 438 287 439.1 287.3 438.2C293.1 418.9 295 398.7 296.8 378.7C295.7 377.7 294.6 376.7 293.5 375.7C293.5 395.4 293.5 415.1 295.1 434.7C295.6 440.2 296.1 445.8 296.9 451.3C297 452.3 297.6 453.3 298.4 453.9C298.7 454.2 299.9 454.9 300.1 454.1C305.3 436.5 308.6 418.4 309.9 400.1C308.8 399.1 307.7 398.1 306.6 397.1C306.9 413.9 307.3 430.8 311.9 447.1C312.1 447.7 314.3 451 315 449.5C320.2 437.7 322.6 424.8 322.1 411.9C322.1 410.9 321.2 409.7 320.4 409.1C319.9 408.7 318.8 408.3 318.8 409.4C318.6 418.4 319.7 427.2 322.1 435.9C322.3 436.8 324.7 440 325.3 437.9C329.4 422.8 332.2 407.4 333.4 391.9C332.3 390.9 331.2 389.9 330.1 388.9C330 405.4 330 422.3 335.2 438.2C335.5 439.1 336.1 440.2 337 440.6C337.6 441 338.2 440.9 338.4 440.2C342.2 422.8 345 405.3 347 387.6C347.6 382.6 348.1 377.6 348.5 372.5C347.4 371.7 346.3 370.8 345.2 370C346.3 387.4 347.5 405.1 353.5 421.6C353.8 422.4 356.1 425.8 356.7 423.6C360.7 409.2 363.8 394.6 366 379.9C364.9 379.1 363.8 378.2 362.7 377.4C363.6 390.6 364.5 403.8 365.4 417C365.5 418 366.2 419 366.9 419.6C367.2 419.9 368.4 420.6 368.6 419.8C372.8 407.9 373.5 395.3 374 382.9C372.9 381.9 371.8 380.9 370.7 379.9C370.3 390 370.9 400.2 372.5 410.2C372.7 411.2 373.2 412.2 374 412.8C374.3 413.1 375.5 413.8 375.7 413C379.4 399.7 382.1 386.2 383.6 372.5C382.5 371.7 381.4 370.8 380.3 370C381 387.3 381.8 404.5 382.5 421.8C382.5 422.8 383.4 424 384.2 424.6C384.8 425.1 385.6 425.3 385.8 424.3C389.3 409.2 392.9 394.1 396.4 378.9C395.3 378.1 394.2 377.2 393.1 376.4C395.2 388.2 397.3 400 399.5 411.8C399.7 412.9 400.3 414 401.2 414.6C401.8 415.1 402.6 415.3 402.8 414.3C405.2 404 407.5 393.6 409.9 383.3C408.8 382.5 407.7 381.6 406.6 380.8C406.9 389.2 407.1 397.5 407.4 405.9C407.4 407 408.4 408.3 409.3 408.9C410.2 409.4 410.7 409 410.7 408C410.4 399.6 410.2 391.3 409.9 382.9C409.9 381.8 407.1 378.2 406.6 380.4C404.2 390.7 401.9 401.1 399.5 411.4C400.6 412.2 401.7 413.1 402.8 413.9C400.7 402.1 398.6 390.3 396.4 378.5C396.2 377.4 395.6 376.3 394.7 375.7C394.1 375.2 393.3 375 393.1 376C389.6 391.1 386 406.2 382.5 421.4C383.6 422.2 384.7 423.1 385.8 423.9C385.1 406.6 384.3 389.4 383.6 372.1C383.6 371.1 382.7 369.9 381.9 369.3C381.3 368.9 380.4 368.6 380.3 369.6C378.8 383 376.2 396.3 372.6 409.4C373.7 410.4 374.8 411.3 375.8 412.3C374.2 402.6 373.6 392.7 374 382.9C374 381.7 373.4 380.5 372.5 379.8C372 379.4 370.7 378.7 370.7 379.9C370.1 392.1 369.6 404.5 365.5 416.1C366.6 417.1 367.7 418 368.7 419C367.8 405.8 366.9 392.6 366 379.4C365.9 378.4 365.1 377.2 364.3 376.6C363.7 376.2 362.8 375.9 362.7 376.9C360.4 391.6 357.3 406.2 353.4 420.6C354.5 421.3 355.5 421.9 356.6 422.6C350.8 406.4 349.6 389.1 348.5 372C348.4 371 347.6 369.8 346.8 369.2C346.3 368.8 345.3 368.5 345.2 369.5C343.7 387.2 341.3 404.9 338.1 422.3C337.2 427.3 336.2 432.2 335.1 437.1C336.2 437.8 337.2 438.4 338.3 439.1C333.3 423.9 333.3 407.6 333.4 391.8C333.4 390.6 332.8 389.5 331.9 388.7C331.4 388.2 330.2 387.7 330.1 388.8C328.8 404.4 326.1 419.8 322 434.8C323.1 435.5 324.1 436.1 325.2 436.8C323.1 428.8 322 420.5 322.2 412.3C321.1 411.5 320 410.6 318.9 409.8C319.4 422.1 317 434.5 312 445.8C313 446.6 314.1 447.4 315.1 448.2C310.6 432.6 310.3 416.3 310 400.2C310 399 309.4 397.9 308.5 397.1C308 396.6 306.7 396.1 306.7 397.2C305.4 415.2 302.2 433.1 297.1 450.4C298.2 451.4 299.3 452.3 300.3 453.3C297.7 434 297.1 414.5 296.9 395.1C296.9 389.6 296.9 384.1 296.9 378.6C296.9 377.4 296.3 376.3 295.4 375.5C294.9 375 293.7 374.5 293.6 375.6C291.8 395.3 290 415.3 284.3 434.4C285.4 435.5 286.5 436.6 287.5 437.7C287.4 420.8 287.3 403.9 287.1 387C287.1 382.2 287 377.4 287 372.6C287 371.4 286.4 370.3 285.5 369.5C285 369 283.8 368.5 283.7 369.6C282 387.1 280.3 404.7 276.3 421.9C275.2 426.8 273.9 431.6 272.4 436.3C273.5 437.3 274.6 438.2 275.6 439.2C273.8 421.8 272.9 404.3 272.9 386.8C272.9 381.8 273 376.8 273.1 371.8C273.1 370.6 272.5 369.4 271.6 368.7C271.1 368.3 269.8 367.7 269.8 368.8C268.9 386.7 267.9 404.6 264 422.2C262.9 427.2 261.5 432.2 259.9 437C261 438 262.1 438.9 263.1 439.9C262.4 426.8 261.7 413.7 261 400.6C260.9 399.6 260.1 398.4 259.3 397.8C258.8 397.4 257.7 397.1 257.7 398.1C256.5 415.5 253.1 432.7 247.4 449.2C248.5 450.2 249.6 451.1 250.6 452.1C247.2 435.2 246 417.8 247.2 400.6C247.3 399.5 246.5 398.2 245.7 397.5C245.2 397.1 243.9 396.5 243.9 397.6C242.6 415.4 241.4 433.6 235.3 450.5C236.3 451.3 237.4 452.1 238.4 452.9C233.8 437.5 232.7 421.4 232.4 405.4C232.3 400.8 232.3 396.2 232.3 391.6C232.3 390.4 231.7 389.3 230.8 388.5C230.3 388.1 229 387.5 229 388.6C227.9 409 226.7 429.5 221.6 449.3C220.2 454.8 218.4 460.3 216.3 465.6C217.4 466.6 218.5 467.5 219.5 468.5C216.4 450.1 214.4 431.6 213.5 413C213.5 412 212.6 410.8 211.8 410.2C211.2 409.8 210.3 409.5 210.2 410.5C208.4 426.5 206.6 442.6 202.2 458.2C202.6 458.2 203.1 458.1 203.5 458.1C202.6 457.6 202.5 457 202.3 455.8C202 453.9 201.8 452 201.6 450.1C201.1 445.6 200.7 441.1 200.4 436.6C199.8 427.8 199.5 418.9 199.5 410.1C199.5 405 199.6 399.9 199.9 394.8C198.8 393.8 197.7 392.8 196.6 391.8C195.8 411 195 430.7 187.8 448.8C188.9 449.8 190 450.7 191 451.7C188.8 437.6 188.1 423.4 188.8 409.2C188.9 408 188.2 406.8 187.3 406.1C186.7 405.6 185.7 405.1 185.5 406.2C182.3 422.9 179.1 439.8 172.3 455.5C173.4 456.6 174.5 457.7 175.5 458.8C175.5 441.6 175.4 424.4 175.4 407.3C175.4 406.1 174.8 405 173.9 404.2C173.3 403.7 172.3 403.2 172.1 404.3C168.7 419.6 165.3 434.9 160.1 449.7C161.2 450.7 162.3 451.6 163.3 452.6C160.6 437.2 158.9 421.6 158.2 406C158.2 405 157.3 403.8 156.5 403.2C156 402.9 154.9 402.4 154.9 403.5C155.1 416.1 155.9 428.8 157.4 441.3C157.5 442.4 158.3 443.7 159.3 444.3C159.1 445.3 159.8 444.9 159.7 443.9Z" fill="white"/>
</g>
</svg>
