<svg width="500" height="500" viewBox="0 0 500 500" fill="none" xmlns="http://www.w3.org/2000/svg">
<g clip-path="url(#clip0_201_737)">
<mask id="mask0_201_737" style="mask-type:luminance" maskUnits="userSpaceOnUse" x="51" y="51" width="398" height="398">
<path d="M250 448.5C359.629 448.5 448.5 359.629 448.5 250C448.5 140.371 359.629 51.5 250 51.5C140.371 51.5 51.5 140.371 51.5 250C51.5 359.629 140.371 448.5 250 448.5Z" fill="white"/>
</mask>
<g mask="url(#mask0_201_737)">
<path d="M420.4 108.6C415.7 137.1 409.7 165.4 403 193.5C396.4 221.5 389.2 249.4 382 277.2C374.9 304.6 367.5 332 358.4 358.9C349.5 385.3 338.5 411 327.2 436.4C316 461.7 304.6 487 295.4 513.1C294.2 516.4 293.1 519.7 292 523.1C291.7 524.1 296.3 525.9 296.6 525C305.3 498.7 316.3 473.3 327.6 448C338.9 422.6 350.2 397.2 359.5 371C369 344.3 376.7 317 383.9 289.6C391.2 261.8 398.3 234 405 206.1C411.8 178 418.1 149.8 423.1 121.3C423.7 117.7 424.3 114.1 424.9 110.5C425.2 109.3 420.5 108 420.4 108.6Z" fill="white"/>
</g>
<mask id="mask1_201_737" style="mask-type:luminance" maskUnits="userSpaceOnUse" x="51" y="51" width="398" height="398">
<path d="M250 448.5C359.629 448.5 448.5 359.629 448.5 250C448.5 140.371 359.629 51.5 250 51.5C140.371 51.5 51.5 140.371 51.5 250C51.5 359.629 140.371 448.5 250 448.5Z" fill="white"/>
</mask>
<g mask="url(#mask1_201_737)">
<path d="M422.5 134C417.8 156.1 412.9 178.2 407.8 200.2C402.7 222.1 397.5 244 392.1 265.8C386.7 287.7 381.1 309.6 375.3 331.5C369.5 353.4 363.6 375.1 357.4 396.9C351.3 418.5 345 440.1 338.6 461.7C337.8 464.4 337 467.2 336.1 469.9C335.9 470.7 340.7 471.9 341 470.8C347.5 449.2 353.9 427.5 360.1 405.7C366.2 384.1 372.2 362.4 378 340.7C383.8 318.9 389.5 297 395 275.1C400.5 253.2 405.8 231.2 410.9 209.2C416 187.3 420.9 165.4 425.7 143.4C426.3 140.6 426.9 137.8 427.5 135C427.6 133.9 422.7 133 422.5 134Z" fill="white"/>
</g>
<mask id="mask2_201_737" style="mask-type:luminance" maskUnits="userSpaceOnUse" x="51" y="51" width="398" height="398">
<path d="M250 448.5C359.629 448.5 448.5 359.629 448.5 250C448.5 140.371 359.629 51.5 250 51.5C140.371 51.5 51.5 140.371 51.5 250C51.5 359.629 140.371 448.5 250 448.5Z" fill="white"/>
</mask>
<g mask="url(#mask2_201_737)">
<path d="M441 152.1C436 171 431.1 190 426.1 208.9C421.1 227.8 416.2 246.8 411.2 265.7C406.3 284.5 401.3 303.4 396.4 322.2C391.4 341.1 386.5 360.1 381.5 379C376.5 397.9 371.6 416.9 366.6 435.8C366 438.1 365.4 440.5 364.8 442.8C364.5 443.8 369.4 444.8 369.7 443.6C374.7 424.7 379.6 405.7 384.6 386.8C389.6 367.9 394.5 348.9 399.5 330C404.4 311.2 409.4 292.3 414.3 273.5C419.3 254.6 424.2 235.6 429.2 216.7C434.2 197.8 439.1 178.8 444.1 159.9C444.7 157.6 445.3 155.2 445.9 152.9C446.2 151.9 441.3 150.9 441 152.1Z" fill="white"/>
</g>
<mask id="mask3_201_737" style="mask-type:luminance" maskUnits="userSpaceOnUse" x="51" y="51" width="398" height="398">
<path d="M250 448.5C359.629 448.5 448.5 359.629 448.5 250C448.5 140.371 359.629 51.5 250 51.5C140.371 51.5 51.5 140.371 51.5 250C51.5 359.629 140.371 448.5 250 448.5Z" fill="white"/>
</mask>
<g mask="url(#mask3_201_737)">
<path d="M450.7 179C444.3 210 437.5 240.9 430.6 271.8C423.6 302.7 416.4 333.5 408.9 364.3C404.7 381.6 400.4 398.9 396 416.1C395.5 418.2 399.6 420.8 400.3 418C408.1 387.3 415.6 356.6 422.9 325.7C430.2 294.9 437.2 264 443.9 233.1C447.7 215.7 451.4 198.3 455 180.8C455.4 178.7 451.3 176.2 450.7 179Z" fill="white"/>
</g>
<mask id="mask4_201_737" style="mask-type:luminance" maskUnits="userSpaceOnUse" x="51" y="51" width="398" height="398">
<path d="M250 448.5C359.629 448.5 448.5 359.629 448.5 250C448.5 140.371 359.629 51.5 250 51.5C140.371 51.5 51.5 140.371 51.5 250C51.5 359.629 140.371 448.5 250 448.5Z" fill="white"/>
</mask>
<g mask="url(#mask4_201_737)">
<path d="M404.4 198C391.4 175 377.8 152.4 364 129.9C350.3 107.7 336.7 85.4 322.4 63.5C314.5 51.4 306.4 39.5 297.5 28.1C296.3 26.5 292.1 29.2 293.2 30.6C309 51 322.6 72.8 336.2 94.6C350.2 117 364.1 139.4 377.7 162.1C385.3 174.8 392.8 187.6 400.1 200.5C401 202.2 405.3 199.7 404.4 198Z" fill="white"/>
</g>
<mask id="mask5_201_737" style="mask-type:luminance" maskUnits="userSpaceOnUse" x="51" y="51" width="398" height="398">
<path d="M250 448.5C359.629 448.5 448.5 359.629 448.5 250C448.5 140.371 359.629 51.5 250 51.5C140.371 51.5 51.5 140.371 51.5 250C51.5 359.629 140.371 448.5 250 448.5Z" fill="white"/>
</mask>
<g mask="url(#mask5_201_737)">
<path d="M408.8 187.1C396.7 168.2 385 149 373.7 129.6C362.4 110.2 351.5 90.6 341 70.7C335.1 59.6 329.4 48.4 323.7 37.1C323.1 35.9 318.5 37.8 319 38.8C329 58.9 339.5 78.8 350.3 98.4C361.2 118.1 372.4 137.5 384.1 156.7C390.6 167.5 397.3 178.1 404.1 188.7C404.9 190.1 409.3 188 408.8 187.1Z" fill="white"/>
</g>
<mask id="mask6_201_737" style="mask-type:luminance" maskUnits="userSpaceOnUse" x="51" y="51" width="398" height="398">
<path d="M250 448.5C359.629 448.5 448.5 359.629 448.5 250C448.5 140.371 359.629 51.5 250 51.5C140.371 51.5 51.5 140.371 51.5 250C51.5 359.629 140.371 448.5 250 448.5Z" fill="white"/>
</mask>
<g mask="url(#mask6_201_737)">
<path d="M412.4 174.4C403 157.2 394.3 139.6 385.4 122.1C376.5 104.7 367.4 87.3 357 70.8C351.2 61.5 345 52.5 338.3 43.9C337.9 43.4 336.4 43.6 335.8 43.6C335.6 43.6 333.2 44 333.3 44.2C345.3 59.6 355.6 76.3 365 93.3C374.5 110.5 383.1 128 392 145.5C397 155.3 402 165.1 407.3 174.7C407.6 175.3 409.3 175 409.8 175C410.1 175 412.6 174.7 412.4 174.4Z" fill="white"/>
</g>
<mask id="mask7_201_737" style="mask-type:luminance" maskUnits="userSpaceOnUse" x="51" y="51" width="398" height="398">
<path d="M250 448.5C359.629 448.5 448.5 359.629 448.5 250C448.5 140.371 359.629 51.5 250 51.5C140.371 51.5 51.5 140.371 51.5 250C51.5 359.629 140.371 448.5 250 448.5Z" fill="white"/>
</mask>
<g mask="url(#mask7_201_737)">
<path d="M414.7 158.2C405.4 141.6 396.6 124.7 388.3 107.5C386 102.6 383.7 97.8 381.5 92.9C380.3 90.3 375.7 92.2 377 94.9C384.9 112.2 393.4 129.3 402.4 146.1C405 150.8 407.5 155.6 410.2 160.3C411.5 162.7 416.1 160.8 414.7 158.2Z" fill="white"/>
</g>
<mask id="mask8_201_737" style="mask-type:luminance" maskUnits="userSpaceOnUse" x="51" y="51" width="398" height="398">
<path d="M250 448.5C359.629 448.5 448.5 359.629 448.5 250C448.5 140.371 359.629 51.5 250 51.5C140.371 51.5 51.5 140.371 51.5 250C51.5 359.629 140.371 448.5 250 448.5Z" fill="white"/>
</mask>
<g mask="url(#mask8_201_737)">
<path d="M416 146.3C408.8 130.2 400.2 114.8 390.4 100.1C389.8 99.1 388.2 98.8 387.1 99C386.2 99.1 385.2 99.8 385.9 100.8C395.6 115.2 404 130.4 411.1 146.2C411.6 147.3 412.8 147.7 414 147.7C414.6 147.8 416.5 147.4 416 146.3Z" fill="white"/>
</g>
<mask id="mask9_201_737" style="mask-type:luminance" maskUnits="userSpaceOnUse" x="51" y="51" width="398" height="398">
<path d="M250 448.5C359.629 448.5 448.5 359.629 448.5 250C448.5 140.371 359.629 51.5 250 51.5C140.371 51.5 51.5 140.371 51.5 250C51.5 359.629 140.371 448.5 250 448.5Z" fill="white"/>
</mask>
<g mask="url(#mask9_201_737)">
<path d="M424.9 147.5C420.4 167.1 416 186.7 411.7 206.4C407.4 226.2 403.3 245.9 399.2 265.7C395.2 285.4 391.3 305.1 387.6 324.9C383.9 344.7 380.2 364.4 376.7 384.2C373.2 404.1 369.8 424 366.5 444C366.1 446.5 365.7 448.9 365.3 451.4C365.2 452 366.6 453 367 453.3C367.1 453.4 369.1 454.8 369.1 454.7C372.3 434.8 375.6 415 379.1 395.2C382.6 375.3 386.2 355.4 389.9 335.5C393.6 315.7 397.5 296 401.4 276.3C405.4 256.6 409.5 236.9 413.7 217.2C417.9 197.4 422.3 177.7 426.8 158C427.4 155.6 427.9 153.1 428.5 150.7C428.6 150.1 427.2 149.1 426.8 148.8C426.9 148.8 424.9 147.3 424.9 147.5Z" fill="white"/>
</g>
<mask id="mask10_201_737" style="mask-type:luminance" maskUnits="userSpaceOnUse" x="51" y="51" width="398" height="398">
<path d="M250 448.5C359.629 448.5 448.5 359.629 448.5 250C448.5 140.371 359.629 51.5 250 51.5C140.371 51.5 51.5 140.371 51.5 250C51.5 359.629 140.371 448.5 250 448.5Z" fill="white"/>
</mask>
<g mask="url(#mask10_201_737)">
<path d="M400.5 207.6C380.9 188.2 362.2 167.9 344.5 146.8C326.8 125.7 310 103.9 294.3 81.2C285.5 68.5 277 55.6 268.8 42.4C268.3 41.6 267.4 40.2 266.4 39.9C265.5 39.7 266.1 40.6 266.4 41.1C281.2 64.9 297 88 313.9 110.3C330.8 132.7 348.8 154.3 367.7 175.1C378.3 186.8 389.2 198.2 400.5 209.3C400.7 209.5 401.9 210.8 402.1 210.2C402.5 209.6 400.8 207.8 400.5 207.6Z" fill="white"/>
</g>
<mask id="mask11_201_737" style="mask-type:luminance" maskUnits="userSpaceOnUse" x="51" y="51" width="398" height="398">
<path d="M250 448.5C359.629 448.5 448.5 359.629 448.5 250C448.5 140.371 359.629 51.5 250 51.5C140.371 51.5 51.5 140.371 51.5 250C51.5 359.629 140.371 448.5 250 448.5Z" fill="white"/>
</mask>
<g mask="url(#mask11_201_737)">
<path d="M401.9 205.4C389.4 183.4 374.4 163.1 359.1 142.9C344 122.9 328.4 103 315 81.7C307.5 69.8 300.6 57.4 294.8 44.5C294.4 43.6 293.6 42.8 292.9 42.1C292.6 41.8 292.2 41.2 291.8 41.1C291.8 41.1 291.3 40.8 291.4 41.1C301.7 64.1 315.4 85.4 330.2 105.8C345 126.3 360.9 146 375.5 166.6C383.8 178.2 391.7 190.2 398.7 202.6C399.3 203.6 400.1 204.4 400.9 205.2C401.2 205.2 402.4 206.3 401.9 205.4Z" fill="white"/>
</g>
<mask id="mask12_201_737" style="mask-type:luminance" maskUnits="userSpaceOnUse" x="51" y="51" width="398" height="398">
<path d="M250 448.5C359.629 448.5 448.5 359.629 448.5 250C448.5 140.371 359.629 51.5 250 51.5C140.371 51.5 51.5 140.371 51.5 250C51.5 359.629 140.371 448.5 250 448.5Z" fill="white"/>
</mask>
<g mask="url(#mask12_201_737)">
<path d="M404.8 208.3C384.9 186.3 365.5 163.7 346.8 140.7C329.4 119.2 312 97.4 297.7 73.7C289.7 60.5 282.7 46.7 277.3 32.2C277.1 31.6 275.7 31.1 275.1 30.9C274.6 30.7 274 30.4 273.4 30.3C273.3 30.3 272.6 30.1 272.6 30.2C282.1 55.8 296.6 79.1 312.6 101C329.7 124.3 348.2 146.7 366.9 168.7C377.8 181.5 388.9 194.1 400.1 206.5C400.7 207.2 401.9 207.6 402.8 208C403.3 208.1 405 208.5 404.8 208.3Z" fill="white"/>
</g>
<mask id="mask13_201_737" style="mask-type:luminance" maskUnits="userSpaceOnUse" x="51" y="51" width="398" height="398">
<path d="M250 448.5C359.629 448.5 448.5 359.629 448.5 250C448.5 140.371 359.629 51.5 250 51.5C140.371 51.5 51.5 140.371 51.5 250C51.5 359.629 140.371 448.5 250 448.5Z" fill="white"/>
</mask>
<g mask="url(#mask13_201_737)">
<path d="M400.6 216.5C391.4 202.2 381.5 188.4 371.2 174.9C360.9 161.4 350.1 148.2 339.1 135.3C328.1 122.4 316.9 109.6 305.6 96.9C294.3 84.2 283 71.5 271.8 58.7C260.6 45.9 249.5 32.9 238.8 19.6C237.5 18 236.2 16.4 234.9 14.7C234.3 13.9 232.8 13 231.8 13.6C230.7 14.2 231.3 15.5 231.9 16.2C242.5 29.5 253.4 42.5 264.6 55.3C275.7 68.1 286.9 80.7 298.2 93.4C309.5 106.1 320.8 118.8 331.8 131.7C342.8 144.5 353.6 157.5 363.9 170.8C374.3 184.1 384.2 197.7 393.5 211.8C394.6 213.5 395.8 215.3 396.9 217C397.5 217.9 398.7 218.9 399.9 218.7C401.1 218.6 401.2 217.4 400.6 216.5Z" fill="white"/>
</g>
<mask id="mask14_201_737" style="mask-type:luminance" maskUnits="userSpaceOnUse" x="51" y="51" width="398" height="398">
<path d="M250 448.5C359.629 448.5 448.5 359.629 448.5 250C448.5 140.371 359.629 51.5 250 51.5C140.371 51.5 51.5 140.371 51.5 250C51.5 359.629 140.371 448.5 250 448.5Z" fill="white"/>
</mask>
<g mask="url(#mask14_201_737)">
<path d="M399.5 225.7C389.1 212.6 378.3 200 367.1 187.6C355.9 175.2 344.4 163.1 332.8 151.1C321.2 139.1 309.5 127.1 298 115C286.4 103 275 90.8 263.9 78.3C252.7 65.9 242 53.2 231.8 40C230.5 38.3 229.3 36.7 228 35C226.5 33.1 222.4 35.7 224 37.9C234.1 51.2 244.7 64 255.7 76.6C266.7 89.1 278.1 101.3 289.6 113.4C301.1 125.5 312.8 137.5 324.4 149.5C336 161.5 347.5 173.6 358.8 185.9C370.1 198.2 381 210.8 391.5 223.8C392.8 225.4 394.1 227.1 395.4 228.7C397 230.6 401.2 227.9 399.5 225.7Z" fill="white"/>
</g>
<mask id="mask15_201_737" style="mask-type:luminance" maskUnits="userSpaceOnUse" x="51" y="51" width="398" height="398">
<path d="M250 448.5C359.629 448.5 448.5 359.629 448.5 250C448.5 140.371 359.629 51.5 250 51.5C140.371 51.5 51.5 140.371 51.5 250C51.5 359.629 140.371 448.5 250 448.5Z" fill="white"/>
</mask>
<g mask="url(#mask15_201_737)">
<path d="M393.9 240.5C382.8 226 370.5 212.5 357.9 199.4C345.2 186.2 332.3 173.3 319.7 160C307 146.6 294.5 133 282.3 119.2C270.1 105.4 258.1 91.4 246.3 77.2C234.5 63 223 48.6 211.7 34.1C210.3 32.3 208.9 30.5 207.5 28.7C206.9 27.9 205.5 27 204.4 27.2C203.3 27.5 203.5 28.6 204.1 29.3C215.3 43.9 226.8 58.3 238.5 72.6C250.2 86.8 262.1 100.9 274.3 114.7C286.5 128.6 299 142.4 311.7 155.9C324.2 169.2 337.1 182.3 349.9 195.4C362.5 208.4 375 221.6 386.3 235.8C387.7 237.6 389.1 239.3 390.5 241.1C391.1 241.9 392.5 242.8 393.6 242.6C394.8 242.3 394.5 241.2 393.9 240.5Z" fill="white"/>
</g>
<mask id="mask16_201_737" style="mask-type:luminance" maskUnits="userSpaceOnUse" x="51" y="51" width="398" height="398">
<path d="M250 448.5C359.629 448.5 448.5 359.629 448.5 250C448.5 140.371 359.629 51.5 250 51.5C140.371 51.5 51.5 140.371 51.5 250C51.5 359.629 140.371 448.5 250 448.5Z" fill="white"/>
</mask>
<g mask="url(#mask16_201_737)">
<path d="M393 248.8C381.6 235.1 369.1 222.3 356.8 209.4C344.8 196.8 333.1 183.8 321.8 170.5C310.6 157.4 299.8 144.1 288.9 130.8C278 117.4 267 104.1 255.8 90.9C244.6 77.8 233.1 64.9 221.1 52.5C219.6 51 218.1 49.4 216.6 47.9C216 47.3 212.2 50.3 212.3 50.4C224.4 62.7 236 75.5 247.3 88.5C258.6 101.6 269.6 114.9 280.5 128.3C291.4 141.6 302.3 155 313.4 168.1C324.6 181.4 336 194.4 347.9 207C360.1 220 372.7 232.7 384.3 246.2C385.8 247.9 387.2 249.6 388.6 251.3C389.1 251.8 393.1 249 393 248.8Z" fill="white"/>
</g>
<mask id="mask17_201_737" style="mask-type:luminance" maskUnits="userSpaceOnUse" x="51" y="51" width="398" height="398">
<path d="M250 448.5C359.629 448.5 448.5 359.629 448.5 250C448.5 140.371 359.629 51.5 250 51.5C140.371 51.5 51.5 140.371 51.5 250C51.5 359.629 140.371 448.5 250 448.5Z" fill="white"/>
</mask>
<g mask="url(#mask17_201_737)">
<path d="M391.3 257.5C378.9 241.6 366 226 352.9 210.6C339.8 195.2 326.4 180.1 313 164.9C299.3 149.4 285.5 133.9 271.8 118.5C258 103 244.2 87.5 230.4 71.9C216.6 56.4 202.8 40.8 189 25.3C187.3 23.4 185.6 21.4 183.9 19.5C183.5 19.1 181.8 19.7 181.4 19.8C181.2 19.8 178.9 20.6 179.1 20.8C192.9 36.3 206.7 51.9 220.5 67.4C234.3 82.9 248.1 98.5 261.9 114C275.7 129.5 289.5 145.1 303.3 160.6C316.7 175.7 330.1 190.9 343.3 206.2C356.5 221.5 369.4 237 382 252.9C383.6 254.9 385.1 256.8 386.6 258.8C386.9 259.2 388.7 258.6 389.1 258.5C389.2 258.5 391.5 257.7 391.3 257.5Z" fill="white"/>
</g>
<mask id="mask18_201_737" style="mask-type:luminance" maskUnits="userSpaceOnUse" x="51" y="51" width="398" height="398">
<path d="M250 448.5C359.629 448.5 448.5 359.629 448.5 250C448.5 140.371 359.629 51.5 250 51.5C140.371 51.5 51.5 140.371 51.5 250C51.5 359.629 140.371 448.5 250 448.5Z" fill="white"/>
</mask>
<g mask="url(#mask18_201_737)">
<path d="M389.3 267.5C376.7 250.4 363.4 233.7 349.5 217.6C335.6 201.5 321.2 185.8 306.2 170.7C291.2 155.7 275.7 141.2 259.7 127.3C243.9 113.6 227.4 100.6 210.9 87.8C195.3 75.6 179.7 62.8 168.2 46.5C166.8 44.4 165.4 42.3 164.1 40.2C163.6 39.3 162.3 38.9 161.3 38.7C161.1 38.7 158.9 38.4 159.3 39.1C169.6 56.3 184.6 69.9 200.2 82.4C208.1 88.7 216.2 94.8 224.2 101.1C232.6 107.7 240.8 114.4 248.9 121.3C265.2 135.1 280.9 149.6 296.1 164.6C311.2 179.5 325.8 195 339.9 211.1C353.9 227.1 367.3 243.6 380.1 260.6C381.7 262.7 383.3 264.9 384.9 267C385.5 267.8 387.1 268.2 388.1 268.3C388.7 268.3 389.9 268.3 389.3 267.5Z" fill="white"/>
</g>
<mask id="mask19_201_737" style="mask-type:luminance" maskUnits="userSpaceOnUse" x="51" y="51" width="398" height="398">
<path d="M250 448.5C359.629 448.5 448.5 359.629 448.5 250C448.5 140.371 359.629 51.5 250 51.5C140.371 51.5 51.5 140.371 51.5 250C51.5 359.629 140.371 448.5 250 448.5Z" fill="white"/>
</mask>
<g mask="url(#mask19_201_737)">
<path d="M304.5 171.8C284.8 184 265.2 196.3 245.7 208.9C226.2 221.5 207 234.6 188.1 248.2C169.2 261.8 150.7 275.8 132.1 289.8C113.2 304.1 94.2999 318.4 75.3999 332.7C56.4999 347 37.4999 361.4 18.5999 375.7C16.2999 377.5 13.8999 379.2 11.5999 381C10.2999 382 13.7999 385.5 15.2999 384.4C34.1999 370.1 52.9999 355.9 71.8999 341.6C90.7999 327.3 109.6 313.1 128.5 298.8C147.1 284.8 165.6 270.7 184.4 257C203.1 243.4 222.1 230.2 241.5 217.5C260.9 204.8 280.6 192.5 300.3 180.2C302.7 178.7 305.2 177.2 307.6 175.7C309.3 174.5 305.9 170.9 304.5 171.8Z" fill="white"/>
</g>
<mask id="mask20_201_737" style="mask-type:luminance" maskUnits="userSpaceOnUse" x="51" y="51" width="398" height="398">
<path d="M250 448.5C359.629 448.5 448.5 359.629 448.5 250C448.5 140.371 359.629 51.5 250 51.5C140.371 51.5 51.5 140.371 51.5 250C51.5 359.629 140.371 448.5 250 448.5Z" fill="white"/>
</mask>
<g mask="url(#mask20_201_737)">
<path d="M309.6 178.1C290.3 190.3 270.9 202.3 251.4 214.2C232 226 212.6 237.9 193.4 250C174.2 262.2 155.2 274.7 136.6 287.8C118.2 300.8 100.2 314.5 82.8999 329C65.6999 343.6 49.1999 359 33.7999 375.6C31.8999 377.6 29.9999 379.7 28.1999 381.8C27.4999 382.6 27.8999 383.6 28.8999 383.8C30.0999 384.1 31.4999 383.5 32.1999 382.6C47.1999 365.9 63.3999 350.3 80.3999 335.6C97.2999 320.9 115.1 307.2 133.3 294.1C151.6 281 170.3 268.5 189.2 256.4C208.3 244.2 227.7 232.3 247.1 220.4C266.4 208.6 285.7 196.9 304.8 184.8C307.2 183.3 309.5 181.8 311.9 180.3C312.6 179.8 313.7 178.9 312.9 177.9C312.1 177.3 310.3 177.6 309.6 178.1Z" fill="white"/>
</g>
<mask id="mask21_201_737" style="mask-type:luminance" maskUnits="userSpaceOnUse" x="51" y="51" width="398" height="398">
<path d="M250 448.5C359.629 448.5 448.5 359.629 448.5 250C448.5 140.371 359.629 51.5 250 51.5C140.371 51.5 51.5 140.371 51.5 250C51.5 359.629 140.371 448.5 250 448.5Z" fill="white"/>
</mask>
<g mask="url(#mask21_201_737)">
<path d="M316.6 185.1C304.1 200.7 289.4 214.4 273.8 226.7C258 239.2 241.2 250.4 224.4 261.4C206 273.3 187.6 285.2 169.4 297.3C150.2 310.1 131.1 323 112.1 336.1C93.1001 349.2 74.1001 362.3 55.2001 375.5C52.9001 377.1 50.6001 378.7 48.3001 380.3C45.9001 382 48.9001 385.9 51.2001 384.3C70.2001 371.1 89.2001 357.9 108.3 344.8C127.4 331.7 146.5 318.6 165.8 305.8C184.3 293.4 202.9 281.3 221.6 269.3C238.6 258.3 255.5 247.2 271.6 234.9C287.6 222.7 302.7 209.3 315.9 194.1C317.5 192.2 319.1 190.4 320.6 188.5C322.2 186.2 318.4 182.9 316.6 185.1Z" fill="white"/>
</g>
<mask id="mask22_201_737" style="mask-type:luminance" maskUnits="userSpaceOnUse" x="51" y="51" width="398" height="398">
<path d="M250 448.5C359.629 448.5 448.5 359.629 448.5 250C448.5 140.371 359.629 51.5 250 51.5C140.371 51.5 51.5 140.371 51.5 250C51.5 359.629 140.371 448.5 250 448.5Z" fill="white"/>
</mask>
<g mask="url(#mask22_201_737)">
<path d="M324 192.1C311.3 208.8 298.5 225.5 284.8 241.6C271.2 257.6 256.6 272.9 240.5 286.5C223.9 300.6 205.5 312.1 186.4 322.4C166.7 333.1 146.4 342.8 127 354C107.1 365.5 87.8 378.2 68.8 391.3C66.5 392.9 64.1 394.5 61.8 396.1C59.1 397.9 62.1 401.5 64.5 399.8C83.6 386.6 102.8 373.6 122.8 361.8C142.2 350.2 162.5 340.2 182.5 329.6C202 319.3 221.1 308 238.4 294.2C254.9 281 269.8 265.9 283.7 250C297.7 234 310.8 217.2 323.7 200.3C325.3 198.2 326.8 196.2 328.4 194.1C329.2 193.1 328.4 191.6 327.4 191.1C326.1 190.6 324.8 191.1 324 192.1Z" fill="white"/>
</g>
<mask id="mask23_201_737" style="mask-type:luminance" maskUnits="userSpaceOnUse" x="51" y="51" width="398" height="398">
<path d="M250 448.5C359.629 448.5 448.5 359.629 448.5 250C448.5 140.371 359.629 51.5 250 51.5C140.371 51.5 51.5 140.371 51.5 250C51.5 359.629 140.371 448.5 250 448.5Z" fill="white"/>
</mask>
<g mask="url(#mask23_201_737)">
<path d="M331.1 201.3C323.9 210.6 316.7 219.8 309.5 229.1C302.5 238 295.6 247 288.3 255.7C274.7 271.7 259.5 286.2 242.9 299C226.6 311.7 209.3 323 191.7 333.8C173 345.3 154 356.3 135.1 367.4C114.9 379.3 94.6 391.3 74.4 403.2C71.9 404.7 69.4 406.1 66.9 407.6C66.2 408 65.6 409 66.5 409.5C67.5 410 69 409.4 69.9 408.9C90.3 396.9 110.7 384.9 131.1 372.9C150.4 361.6 169.7 350.3 188.8 338.8C206.6 328 224.2 316.8 240.8 304.3C257.6 291.7 273.3 277.8 287.3 262.1C294.8 253.7 301.7 244.8 308.7 236C315.9 226.7 323.1 217.5 330.3 208.2C332.1 205.9 333.8 203.6 335.6 201.4C336.3 200.5 334.9 200 334.2 200C333.1 199.9 331.9 200.4 331.1 201.3Z" fill="white"/>
</g>
<mask id="mask24_201_737" style="mask-type:luminance" maskUnits="userSpaceOnUse" x="51" y="51" width="398" height="398">
<path d="M250 448.5C359.629 448.5 448.5 359.629 448.5 250C448.5 140.371 359.629 51.5 250 51.5C140.371 51.5 51.5 140.371 51.5 250C51.5 359.629 140.371 448.5 250 448.5Z" fill="white"/>
</mask>
<g mask="url(#mask24_201_737)">
<path d="M335.9 206.9C325 224.5 312.6 241.2 299.2 257C285.8 272.8 271.3 287.7 256.1 301.7C240.4 316.2 224 329.9 207.1 342.9C189.2 356.7 170.7 369.8 152 382.5C133.3 395.2 114.3 407.6 95.3 419.8C92.9 421.3 90.5 422.9 88.1 424.4C87.1 425.1 87.3 426.5 88.2 427.2C89.3 428 90.7 427.8 91.7 427.1C110.9 414.7 130 402.4 148.9 389.6C167.7 376.9 186.4 363.9 204.5 350.2C221.8 337.2 238.5 323.5 254.6 309C270.1 295 284.9 280.2 298.7 264.5C312.3 249 325 232.6 336.2 215.2C337.6 213 339 210.8 340.4 208.6C341.8 206.3 337.2 204.8 335.9 206.9Z" fill="white"/>
</g>
<mask id="mask25_201_737" style="mask-type:luminance" maskUnits="userSpaceOnUse" x="51" y="51" width="398" height="398">
<path d="M250 448.5C359.629 448.5 448.5 359.629 448.5 250C448.5 140.371 359.629 51.5 250 51.5C140.371 51.5 51.5 140.371 51.5 250C51.5 359.629 140.371 448.5 250 448.5Z" fill="white"/>
</mask>
<g mask="url(#mask25_201_737)">
<path d="M342.5 213.6C330.3 230.4 315.6 245 301 259.7C293.8 267 286.6 274.4 279.8 282.1C272.6 290.2 266 298.8 259.4 307.4C252.8 316 246.1 324.7 238.8 332.8C232.1 340.3 224.9 347.3 217.5 354C202.6 367.3 186.4 379.1 169.7 390.1C152.8 401.2 135.4 411.3 117.9 421.4C115.7 422.6 113.6 423.9 111.4 425.1C109.4 426.2 112.9 429.7 114.7 428.7C132.2 418.6 149.8 408.5 166.9 397.6C183.9 386.8 200.4 375.1 215.7 362.1C223.3 355.6 230.7 348.8 237.6 341.5C245 333.8 251.7 325.6 258.2 317.2C264.9 308.5 271.5 299.7 278.5 291.3C285.2 283.3 292.4 275.6 299.7 268.1C314.1 253.4 329.1 239.1 341.8 222.8C343.4 220.8 344.9 218.7 346.4 216.7C347.6 214.9 343.7 211.8 342.5 213.6Z" fill="white"/>
</g>
<mask id="mask26_201_737" style="mask-type:luminance" maskUnits="userSpaceOnUse" x="51" y="51" width="398" height="398">
<path d="M250 448.5C359.629 448.5 448.5 359.629 448.5 250C448.5 140.371 359.629 51.5 250 51.5C140.371 51.5 51.5 140.371 51.5 250C51.5 359.629 140.371 448.5 250 448.5Z" fill="white"/>
</mask>
<g mask="url(#mask26_201_737)">
<path d="M350.3 224.2C336 239.4 321.7 254.6 307.4 269.8C293.1 285 278.8 300.2 264.5 315.4C250.4 330.4 236.4 345.6 221.8 360.1C207.7 374.2 192.8 387.4 177.4 399.9C162.1 412.4 146.3 424.3 130.4 436.1C128.4 437.6 126.5 439 124.5 440.5C124 440.9 126 441.3 126.1 441.3C126.8 441.4 128.5 441.9 129.2 441.4C145.1 429.5 161 417.6 176.5 405.2C192 392.8 207.2 379.8 221.4 365.9C236 351.7 249.8 336.7 263.8 321.8C278.1 306.6 292.4 291.4 306.7 276.2C321.1 260.9 335.4 245.7 349.8 230.4C351.6 228.5 353.3 226.6 355.1 224.8C355.3 224.6 352.9 224 352.7 224C352.2 224 350.8 223.7 350.3 224.2Z" fill="white"/>
</g>
<mask id="mask27_201_737" style="mask-type:luminance" maskUnits="userSpaceOnUse" x="51" y="51" width="398" height="398">
<path d="M250 448.5C359.629 448.5 448.5 359.629 448.5 250C448.5 140.371 359.629 51.5 250 51.5C140.371 51.5 51.5 140.371 51.5 250C51.5 359.629 140.371 448.5 250 448.5Z" fill="white"/>
</mask>
<g mask="url(#mask27_201_737)">
<path d="M356.7 230.9C344.4 245.3 332.2 259.7 319.7 273.8C307.2 288 294.5 301.9 281.4 315.5C268.1 329.2 254.2 342.4 239.9 355.2C225.5 368.1 211 380.9 196.4 393.6C181.9 406.2 167.3 418.5 152.2 430.4C150.3 431.9 148.4 433.4 146.5 434.9C145 436.1 149.2 438.6 150.6 437.5C165.8 425.7 180.6 413.4 195.2 400.8C209.8 388.2 224.3 375.4 238.7 362.5C253.1 349.7 267.2 336.7 280.7 323C294 309.6 306.8 295.7 319.3 281.6C331.8 267.5 344 253.2 356.2 238.9C357.7 237.1 359.3 235.3 360.8 233.5C362.1 232 357.7 229.7 356.7 230.9Z" fill="white"/>
</g>
<mask id="mask28_201_737" style="mask-type:luminance" maskUnits="userSpaceOnUse" x="51" y="51" width="398" height="398">
<path d="M250 448.5C359.629 448.5 448.5 359.629 448.5 250C448.5 140.371 359.629 51.5 250 51.5C140.371 51.5 51.5 140.371 51.5 250C51.5 359.629 140.371 448.5 250 448.5Z" fill="white"/>
</mask>
<g mask="url(#mask28_201_737)">
<path d="M363 240.6C352.4 256.7 341.1 272.4 328.8 287.3C316.5 302.1 303.2 316.2 288.8 328.9C273.6 342.4 256.7 353.7 241 366.5C233.2 372.9 226 380 218.5 386.7C214.8 390 211 393.1 206.9 395.9C202.7 398.8 198.2 401.3 193.7 403.7C185.2 408.2 176.7 412.7 168.8 418.3C161.4 423.5 154.4 429.5 148.6 436.5C147.2 438.3 145.8 440.1 144.5 441.9C144.4 442 148.7 444.3 149.2 443.5C159.7 428.2 175.4 417.6 191.6 408.9C200.7 404 209.7 399.3 217.8 392.9C225.5 386.7 232.4 379.5 239.9 373C255.3 359.6 272.5 348.3 288.1 335.1C302.8 322.7 316.4 308.9 328.9 294.3C341.5 279.6 353 264.1 363.8 248.1C365.1 246.1 366.5 244.1 367.8 242.1C367.8 242.1 363.4 239.9 363 240.6Z" fill="white"/>
</g>
<mask id="mask29_201_737" style="mask-type:luminance" maskUnits="userSpaceOnUse" x="51" y="51" width="398" height="398">
<path d="M250 448.5C359.629 448.5 448.5 359.629 448.5 250C448.5 140.371 359.629 51.5 250 51.5C140.371 51.5 51.5 140.371 51.5 250C51.5 359.629 140.371 448.5 250 448.5Z" fill="white"/>
</mask>
<g mask="url(#mask29_201_737)">
<path d="M368.2 247.8C366.6 257.2 361.8 265.6 356.8 273.5C351.9 281.3 346.7 288.8 341.2 296.2C330.2 310.9 317.9 324.6 304.6 337.3C290.4 350.8 274.8 362.7 258.9 374.1C242 386.1 224.9 397.9 207.9 409.7C190.7 421.7 173.5 433.7 156.3 445.7C154.2 447.2 152.1 448.6 150 450.1C149.3 450.6 149.4 450.7 150.2 450.5C151.3 450.1 152.4 449.6 153.4 448.9C170.8 436.8 188.2 424.6 205.6 412.5C222.7 400.5 239.9 388.7 257 376.6C273.3 365.1 289.3 353.3 304 339.9C317.6 327.5 330.3 313.9 341.6 299.4C347.3 292.1 352.7 284.6 357.8 276.9C362.9 269.2 368 261.3 371 252.5C371.8 250.3 372.3 248 372.7 245.6C372.7 245.5 370.5 246.4 370.3 246.5C369.8 246.7 368.3 247.2 368.2 247.8Z" fill="white"/>
</g>
<mask id="mask30_201_737" style="mask-type:luminance" maskUnits="userSpaceOnUse" x="51" y="51" width="398" height="398">
<path d="M250 448.5C359.629 448.5 448.5 359.629 448.5 250C448.5 140.371 359.629 51.5 250 51.5C140.371 51.5 51.5 140.371 51.5 250C51.5 359.629 140.371 448.5 250 448.5Z" fill="white"/>
</mask>
<g mask="url(#mask30_201_737)">
<path d="M375.4 251.7C364.5 267.4 353.4 282.8 341.6 297.9C329.8 313 317.4 327.6 304.3 341.5C291.3 355.2 277.5 368.2 263.2 380.4C248.9 392.7 234 404.3 218.9 415.6C203.8 426.8 188.4 437.6 172.8 448.2C170.9 449.5 168.9 450.9 166.9 452.2C165.8 452.9 168.3 457.2 169 456.7C184.7 446.1 200.3 435.3 215.6 424.1C230.9 412.9 245.9 401.3 260.4 389.1C274.8 377 288.7 364.2 301.9 350.7C315.1 337.1 327.6 322.7 339.4 307.9C351.4 292.9 362.7 277.5 373.7 261.8C375.1 259.8 376.4 257.9 377.8 255.9C378.5 254.9 376 250.9 375.4 251.7Z" fill="white"/>
</g>
<mask id="mask31_201_737" style="mask-type:luminance" maskUnits="userSpaceOnUse" x="51" y="51" width="398" height="398">
<path d="M250 448.5C359.629 448.5 448.5 359.629 448.5 250C448.5 140.371 359.629 51.5 250 51.5C140.371 51.5 51.5 140.371 51.5 250C51.5 359.629 140.371 448.5 250 448.5Z" fill="white"/>
</mask>
<g mask="url(#mask31_201_737)">
<path d="M381.5 259.8C369.6 271.9 358.6 284.8 348 298C337.4 311.2 327.1 324.6 316.8 337.9C306.4 351.3 295.8 364.5 284.5 377.2C278.8 383.7 272.8 389.9 266.7 396C260.4 402.3 254 408.6 248.1 415.3C236.9 428 227.3 442.1 215.7 454.5C214.3 456 212.8 457.5 211.3 459C210.3 460 213.2 464 213.8 463.3C225.9 451.4 235.6 437.4 246.4 424.3C257.7 410.8 270.8 399 282.7 386.1C294.1 373.6 304.8 360.6 315.2 347.3C325.7 334 336 320.4 346.5 307.2C357.1 293.9 367.9 280.9 379.6 268.6C381 267.1 382.5 265.6 384 264.1C385 263.1 382.1 259.2 381.5 259.8Z" fill="white"/>
</g>
<mask id="mask32_201_737" style="mask-type:luminance" maskUnits="userSpaceOnUse" x="51" y="51" width="398" height="398">
<path d="M250 448.5C359.629 448.5 448.5 359.629 448.5 250C448.5 140.371 359.629 51.5 250 51.5C140.371 51.5 51.5 140.371 51.5 250C51.5 359.629 140.371 448.5 250 448.5Z" fill="white"/>
</mask>
<g mask="url(#mask32_201_737)">
<path d="M382.2 274.5C372.3 286.6 363.7 299.7 355.6 313C347.5 326.4 339.8 340.1 331.7 353.5C323.6 366.8 314.9 379.8 304.7 391.6C293.4 404.8 280.2 415.9 267.6 427.8C255 439.7 243.1 452.4 232 465.7C230.6 467.4 229.2 469.1 227.9 470.8C227.6 471.2 229.6 470.5 229.7 470.5C230.6 470.1 231.8 469.7 232.4 468.9C243.4 455.3 255.2 442.4 267.7 430.2C280.2 418.1 293.7 407 305.4 394.1C315.9 382.6 324.8 369.8 333.1 356.6C341.4 343.3 349.1 329.7 357.1 316.2C365.1 302.8 373.4 289.5 383 277.2C384.2 275.7 385.4 274.1 386.7 272.6C387 272.2 385 272.9 384.9 272.9C384 273.3 382.8 273.7 382.2 274.5Z" fill="white"/>
</g>
<mask id="mask33_201_737" style="mask-type:luminance" maskUnits="userSpaceOnUse" x="51" y="51" width="398" height="398">
<path d="M250 448.5C359.629 448.5 448.5 359.629 448.5 250C448.5 140.371 359.629 51.5 250 51.5C140.371 51.5 51.5 140.371 51.5 250C51.5 359.629 140.371 448.5 250 448.5Z" fill="white"/>
</mask>
<g mask="url(#mask33_201_737)">
<path d="M378.3 298.8C364.6 320.8 350.9 342.8 337.2 364.8C330.3 375.8 323.5 386.8 316.6 397.8C310.1 408.3 303.7 418.9 296.5 428.9C288.4 440.1 279 450 269.4 459.9C267.4 461.9 271.8 464 273.4 462.3C282 453.5 290.6 444.6 298.1 434.8C305.6 424.9 312.1 414.3 318.7 403.7C332.4 381.7 346.1 359.7 359.8 337.7C367.5 325.3 375.3 312.9 383 300.5C384.2 298.3 379.5 296.8 378.3 298.8Z" fill="white"/>
</g>
<mask id="mask34_201_737" style="mask-type:luminance" maskUnits="userSpaceOnUse" x="51" y="51" width="398" height="398">
<path d="M250 448.5C359.629 448.5 448.5 359.629 448.5 250C448.5 140.371 359.629 51.5 250 51.5C140.371 51.5 51.5 140.371 51.5 250C51.5 359.629 140.371 448.5 250 448.5Z" fill="white"/>
</mask>
<g mask="url(#mask34_201_737)">
<path d="M359.7 352.8C344.3 379.1 328.4 405.1 311.8 430.6C307.1 437.8 302.4 445 297.6 452.1C296.4 454 301.2 453.8 302.1 452.5C319 427.2 335.3 401.4 351 375.3C355.4 367.9 359.8 360.5 364.1 353.1C365.3 351.2 360.4 351.4 359.7 352.8Z" fill="white"/>
</g>
<mask id="mask35_201_737" style="mask-type:luminance" maskUnits="userSpaceOnUse" x="51" y="51" width="398" height="398">
<path d="M250 448.5C359.629 448.5 448.5 359.629 448.5 250C448.5 140.371 359.629 51.5 250 51.5C140.371 51.5 51.5 140.371 51.5 250C51.5 359.629 140.371 448.5 250 448.5Z" fill="white"/>
</mask>
<g mask="url(#mask35_201_737)">
<path d="M301.3 176.5C279.2 159.9 256.4 144.4 232.9 129.9C209.5 115.5 185.5 102.2 160.9 90C147 83.2 133 76.6 118.8 70.5C117.8 70.1 116.6 70.5 115.7 71C115.4 71.2 113.7 72.5 114.6 72.9C139.9 83.9 164.8 96 189 109.2C213.1 122.4 236.6 136.7 259.3 152C272.1 160.6 284.7 169.6 297.1 178.9C298.3 179.8 302.5 177.4 301.3 176.5Z" fill="white"/>
</g>
<mask id="mask36_201_737" style="mask-type:luminance" maskUnits="userSpaceOnUse" x="51" y="51" width="398" height="398">
<path d="M250 448.5C359.629 448.5 448.5 359.629 448.5 250C448.5 140.371 359.629 51.5 250 51.5C140.371 51.5 51.5 140.371 51.5 250C51.5 359.629 140.371 448.5 250 448.5Z" fill="white"/>
</mask>
<g mask="url(#mask36_201_737)">
<path d="M302.8 172.3C286.9 153.6 268.1 137.4 247.2 124.7C241.9 121.4 236.4 118.5 230.8 115.6C224.9 112.5 219 109.4 213.6 105.5C208.2 101.7 203.2 97.4 198 93.4C192.9 89.5 187.6 85.8 182.3 82.2C170.3 74.1 157.9 66.3 146.8 57C145.9 56.2 144.3 56.5 143.7 57.6C143 58.8 143.6 60.2 144.6 61C154.5 69.3 165.3 76.3 176 83.4C181.4 87 186.7 90.6 191.9 94.4C197.2 98.3 202.2 102.5 207.4 106.5C212.6 110.5 218.2 114 224 117.2C229.7 120.3 235.4 123.2 241 126.4C251.4 132.5 261.4 139.4 270.7 147.1C281.2 155.7 290.9 165.3 299.7 175.6C300.5 176.5 302 176.8 302.9 175.9C303.8 174.8 303.6 173.3 302.8 172.3Z" fill="white"/>
</g>
<mask id="mask37_201_737" style="mask-type:luminance" maskUnits="userSpaceOnUse" x="51" y="51" width="398" height="398">
<path d="M250 448.5C359.629 448.5 448.5 359.629 448.5 250C448.5 140.371 359.629 51.5 250 51.5C140.371 51.5 51.5 140.371 51.5 250C51.5 359.629 140.371 448.5 250 448.5Z" fill="white"/>
</mask>
<g mask="url(#mask37_201_737)">
<path d="M290.7 182.4C267.4 166.3 241.3 155 215 144.8C201.8 139.7 188.6 134.8 175.4 129.6C161.1 123.9 146.9 117.8 132.9 111.5C117.1 104.4 101.4 97 85.6998 89.6C84.8998 89.2 84.6998 89.6 85.1998 90.2C85.8998 91.1 86.9998 91.8 88.0998 92.3C115.7 105.3 143.3 118.3 171.6 129.7C197.6 140.2 224.2 149.2 249.7 160.8C263.7 167.2 277.4 174.4 290.1 183.2C290.4 183.4 292.1 184.7 292.4 184.2C292.8 183.9 290.9 182.5 290.7 182.4Z" fill="white"/>
</g>
<mask id="mask38_201_737" style="mask-type:luminance" maskUnits="userSpaceOnUse" x="51" y="51" width="398" height="398">
<path d="M250 448.5C359.629 448.5 448.5 359.629 448.5 250C448.5 140.371 359.629 51.5 250 51.5C140.371 51.5 51.5 140.371 51.5 250C51.5 359.629 140.371 448.5 250 448.5Z" fill="white"/>
</mask>
<g mask="url(#mask38_201_737)">
<path d="M292.7 179.2C282.7 169.8 270.7 163 258.8 156.4C246.6 149.6 234.1 143.1 221.6 136.9C196.3 124.4 170.4 113 144 102.9C129.2 97.2 114.2 91.9 99.0999 87C98.4999 86.8 96.6999 86.3 96.3999 87.2C96.0999 88.1 97.7999 88.9 98.3999 89.1C124.9 97.7 151 107.5 176.6 118.5C202.1 129.5 227 141.6 251.3 154.9C264.4 162 278 169.1 288.8 179.4C289.6 180.2 291 180.7 292.1 180.6C293.1 180.6 293.5 180 292.7 179.2Z" fill="white"/>
</g>
<mask id="mask39_201_737" style="mask-type:luminance" maskUnits="userSpaceOnUse" x="51" y="51" width="398" height="398">
<path d="M250 448.5C359.629 448.5 448.5 359.629 448.5 250C448.5 140.371 359.629 51.5 250 51.5C140.371 51.5 51.5 140.371 51.5 250C51.5 359.629 140.371 448.5 250 448.5Z" fill="white"/>
</mask>
<g mask="url(#mask39_201_737)">
<path d="M283.2 187.5C257.4 174.1 229.7 165.1 201.9 156.7C174.1 148.3 146.1 140.3 119.5 128.7C104.2 122 89.5001 113.6 73.2001 109.5C72.4001 109.3 71.0001 110.4 70.4001 110.8C70.2001 110.9 68.7001 112.1 69.2001 112.3C83.9001 116 97.2001 123.2 110.9 129.4C124 135.3 137.4 140.3 151 144.9C178.5 154.1 206.7 161.5 234.1 171.1C249.4 176.5 264.5 182.6 279 190.1C279.6 190.4 280.9 189.5 281.4 189.2C281.5 189.2 283.5 187.7 283.2 187.5Z" fill="white"/>
</g>
<mask id="mask40_201_737" style="mask-type:luminance" maskUnits="userSpaceOnUse" x="51" y="51" width="398" height="398">
<path d="M250 448.5C359.629 448.5 448.5 359.629 448.5 250C448.5 140.371 359.629 51.5 250 51.5C140.371 51.5 51.5 140.371 51.5 250C51.5 359.629 140.371 448.5 250 448.5Z" fill="white"/>
</mask>
<g mask="url(#mask40_201_737)">
<path d="M267.5 193.7C239.5 185.2 211.4 176.7 183.4 168.2C155.4 159.7 127.3 151.2 99.3 142.7C83.5 137.9 67.7 133.1 52 128.4C51.3 128.2 52.6 130.1 52.7 130.2C53.3 131 54.1 131.9 55.1 132.2C83.1 140.7 111.2 149.2 139.2 157.7C167.2 166.2 195.3 174.7 223.3 183.2C239.1 188 254.9 192.8 270.6 197.5C271.3 197.7 270 195.8 269.9 195.7C269.3 194.9 268.5 194 267.5 193.7Z" fill="white"/>
</g>
<mask id="mask41_201_737" style="mask-type:luminance" maskUnits="userSpaceOnUse" x="51" y="51" width="398" height="398">
<path d="M250 448.5C359.629 448.5 448.5 359.629 448.5 250C448.5 140.371 359.629 51.5 250 51.5C140.371 51.5 51.5 140.371 51.5 250C51.5 359.629 140.371 448.5 250 448.5Z" fill="white"/>
</mask>
<g mask="url(#mask41_201_737)">
<path d="M263.6 200.1C234.3 191.4 204.9 183.5 175.2 176.2C145.7 168.9 116.1 162.4 86.3002 156.5C69.6002 153.2 52.8002 150.1 36.0002 147.2C35.0002 147 33.9002 147.6 33.0002 148.1C32.8002 148.2 31.1002 149.6 31.9002 149.7C62.0002 154.9 91.9002 160.7 121.7 167.2C151.3 173.7 180.8 180.9 210.2 188.7C226.7 193.1 243.1 197.7 259.4 202.6C260.3 202.9 261.6 202.1 262.4 201.7C262.6 201.6 264.4 200.4 263.6 200.1Z" fill="white"/>
</g>
<mask id="mask42_201_737" style="mask-type:luminance" maskUnits="userSpaceOnUse" x="51" y="51" width="398" height="398">
<path d="M250 448.5C359.629 448.5 448.5 359.629 448.5 250C448.5 140.371 359.629 51.5 250 51.5C140.371 51.5 51.5 140.371 51.5 250C51.5 359.629 140.371 448.5 250 448.5Z" fill="white"/>
</mask>
<g mask="url(#mask42_201_737)">
<path d="M253.3 205.4C227.5 202.8 201.7 199.7 176 196.1C150.3 192.5 124.6 188.3 98.9999 183.7C84.5999 181.1 70.2999 178.3 55.9999 175.4C55.1999 175.2 53.4999 175.2 53.2999 176.3C53.0999 177.4 54.7999 177.9 55.4999 178.1C81.0999 183.3 106.7 188.1 132.5 192.3C158.3 196.5 184.2 200.2 210.2 203.4C224.8 205.2 239.5 206.8 254.1 208.3C254.9 208.4 256.3 208 256.1 207C256 205.8 254.2 205.5 253.3 205.4Z" fill="white"/>
</g>
<mask id="mask43_201_737" style="mask-type:luminance" maskUnits="userSpaceOnUse" x="51" y="51" width="398" height="398">
<path d="M250 448.5C359.629 448.5 448.5 359.629 448.5 250C448.5 140.371 359.629 51.5 250 51.5C140.371 51.5 51.5 140.371 51.5 250C51.5 359.629 140.371 448.5 250 448.5Z" fill="white"/>
</mask>
<g mask="url(#mask43_201_737)">
<path d="M242.9 213C213.5 208.5 184.1 204.3 154.7 200.2C125.4 196.1 96.2 192.2 66.9 188.5C50.4 186.4 34 184.4 17.5 182.4C16.4 182.3 15.1 182.9 14.3 183.7C13.8 184.1 13.1 185.3 14.2 185.4C43.7 188.9 73.2 192.7 102.6 196.6C131.9 200.5 161.1 204.5 190.4 208.8C206.8 211.2 223.2 213.6 239.6 216.1C240.7 216.3 242 215.5 242.8 214.8C243.3 214.2 244 213.1 242.9 213Z" fill="white"/>
</g>
<mask id="mask44_201_737" style="mask-type:luminance" maskUnits="userSpaceOnUse" x="51" y="51" width="398" height="398">
<path d="M250 448.5C359.629 448.5 448.5 359.629 448.5 250C448.5 140.371 359.629 51.5 250 51.5C140.371 51.5 51.5 140.371 51.5 250C51.5 359.629 140.371 448.5 250 448.5Z" fill="white"/>
</mask>
<g mask="url(#mask44_201_737)">
<path d="M231.3 220.5C201 216.4 170.7 212.3 140.4 208.2C110.3 204.2 80.1002 200.3 49.9002 197C32.9002 195.2 15.9002 193.5 -1.19981 192C-2.19981 191.9 -3.79981 191.9 -4.59981 192.6C-5.39981 193.3 -4.19981 193.5 -3.59981 193.6C26.8002 196.3 57.2002 199.5 87.6002 203.3C117.8 207 147.9 211.2 178.1 215.2C195.1 217.5 212 219.8 229 222.1C229.9 222.2 231.6 222.2 232.4 221.5C233.1 220.7 231.8 220.5 231.3 220.5Z" fill="white"/>
</g>
<mask id="mask45_201_737" style="mask-type:luminance" maskUnits="userSpaceOnUse" x="51" y="51" width="398" height="398">
<path d="M250 448.5C359.629 448.5 448.5 359.629 448.5 250C448.5 140.371 359.629 51.5 250 51.5C140.371 51.5 51.5 140.371 51.5 250C51.5 359.629 140.371 448.5 250 448.5Z" fill="white"/>
</mask>
<g mask="url(#mask45_201_737)">
<path d="M217.4 226.1C190.3 224.1 163.1 221.9 136 219.6C108.9 217.3 81.8002 214.7 54.7002 212C39.5002 210.5 24.3002 208.9 9.10018 207.3C8.00018 207.2 7.00018 207.8 7.10018 209C7.30018 210.2 8.70018 211.1 9.80018 211.2C36.9002 214.1 63.9002 216.8 91.0002 219.3C118.1 221.8 145.2 224.2 172.3 226.4C187.5 227.6 202.7 228.8 218 229.9C219.1 230 220.1 229.4 220 228.2C219.9 227.2 218.5 226.2 217.4 226.1Z" fill="white"/>
</g>
<mask id="mask46_201_737" style="mask-type:luminance" maskUnits="userSpaceOnUse" x="51" y="51" width="398" height="398">
<path d="M250 448.5C359.629 448.5 448.5 359.629 448.5 250C448.5 140.371 359.629 51.5 250 51.5C140.371 51.5 51.5 140.371 51.5 250C51.5 359.629 140.371 448.5 250 448.5Z" fill="white"/>
</mask>
<g mask="url(#mask46_201_737)">
<path d="M203.6 235.6C180.1 235.6 156.6 235.1 133.1 234.3C109.7 233.4 86.1999 232.1 62.7999 230.4C49.5999 229.4 36.3999 228.3 23.1999 227C22.2999 226.9 20.5999 227 20.0999 228C19.6999 229 21.1999 229.5 21.8999 229.6C45.4999 231.8 69.0999 233.7 92.6999 235C116.3 236.4 139.9 237.3 163.6 237.8C176.9 238.1 190.3 238.2 203.6 238.2C204.4 238.2 206.1 237.9 206.1 236.8C206.2 235.8 204.3 235.6 203.6 235.6Z" fill="white"/>
</g>
<mask id="mask47_201_737" style="mask-type:luminance" maskUnits="userSpaceOnUse" x="51" y="51" width="398" height="398">
<path d="M250 448.5C359.629 448.5 448.5 359.629 448.5 250C448.5 140.371 359.629 51.5 250 51.5C140.371 51.5 51.5 140.371 51.5 250C51.5 359.629 140.371 448.5 250 448.5Z" fill="white"/>
</mask>
<g mask="url(#mask47_201_737)">
<path d="M193 244.6C169.6 245.3 146.2 245.3 122.9 244.6C99.7 243.8 76.5 242.4 53.4 240.1C40.3 238.8 27.3 237.3 14.3 235.6C13.2 235.4 11.6 235.7 11.1 236.8C10.6 237.8 11.4 238.8 12.4 239C35.7 242.1 59.1 244.5 82.6 246.1C106 247.7 129.5 248.6 152.9 248.7C166.1 248.8 179.2 248.6 192.4 248.2C193.5 248.2 195 247.7 195.2 246.4C195.3 245.2 194 244.5 193 244.6Z" fill="white"/>
</g>
<mask id="mask48_201_737" style="mask-type:luminance" maskUnits="userSpaceOnUse" x="51" y="51" width="398" height="398">
<path d="M250 448.5C359.629 448.5 448.5 359.629 448.5 250C448.5 140.371 359.629 51.5 250 51.5C140.371 51.5 51.5 140.371 51.5 250C51.5 359.629 140.371 448.5 250 448.5Z" fill="white"/>
</mask>
<g mask="url(#mask48_201_737)">
<path d="M185.5 253.5C165.1 253.6 144.7 253.2 124.3 252.4C104 251.6 83.6001 250.3 63.4001 248.5C51.9001 247.5 40.5001 246.3 29.1001 245C28.0001 244.9 26.7001 244.9 25.6001 245.4C24.8001 245.7 24.7001 246.2 25.7001 246.3C46.3001 248.6 66.9001 250.5 87.5001 251.9C108.1 253.3 128.6 254.2 149.3 254.6C161 254.8 172.7 254.9 184.4 254.9C185.1 254.9 187.1 254.8 187.4 254.1C187.6 253.4 185.7 253.5 185.5 253.5Z" fill="white"/>
</g>
<mask id="mask49_201_737" style="mask-type:luminance" maskUnits="userSpaceOnUse" x="51" y="51" width="398" height="398">
<path d="M250 448.5C359.629 448.5 448.5 359.629 448.5 250C448.5 140.371 359.629 51.5 250 51.5C140.371 51.5 51.5 140.371 51.5 250C51.5 359.629 140.371 448.5 250 448.5Z" fill="white"/>
</mask>
<g mask="url(#mask49_201_737)">
<path d="M174.3 261.3C142.9 260.7 111.5 260.4 80.2001 260.5C71.4001 260.5 62.6001 260.6 53.8001 260.7C52.9001 260.7 51.8001 261.7 51.1001 262.2C50.9001 262.3 49.5001 263.5 49.9001 263.5C81.3001 263.2 112.7 263.3 144 263.7C152.8 263.8 161.6 264 170.4 264.2C171.3 264.2 172.4 263.2 173.1 262.7C173.3 262.5 174.7 261.3 174.3 261.3Z" fill="white"/>
</g>
<mask id="mask50_201_737" style="mask-type:luminance" maskUnits="userSpaceOnUse" x="51" y="51" width="398" height="398">
<path d="M250 448.5C359.629 448.5 448.5 359.629 448.5 250C448.5 140.371 359.629 51.5 250 51.5C140.371 51.5 51.5 140.371 51.5 250C51.5 359.629 140.371 448.5 250 448.5Z" fill="white"/>
</mask>
<g mask="url(#mask50_201_737)">
<path d="M161.1 267.9C128.5 271.5 95.7001 273.6 62.9001 274.1C53.6001 274.3 44.4001 274.3 35.1001 274.2C34.1001 274.2 35.7001 274.8 35.9001 274.9C37.0001 275.2 38.1001 275.6 39.3001 275.6C72.4001 275.9 105.4 274.6 138.4 271.9C147.5 271.1 156.7 270.2 165.8 269.2C166.2 269.2 164.3 268.4 164.2 268.4C163.2 268.1 162.1 267.8 161.1 267.9Z" fill="white"/>
</g>
<mask id="mask51_201_737" style="mask-type:luminance" maskUnits="userSpaceOnUse" x="51" y="51" width="398" height="398">
<path d="M250 448.5C359.629 448.5 448.5 359.629 448.5 250C448.5 140.371 359.629 51.5 250 51.5C140.371 51.5 51.5 140.371 51.5 250C51.5 359.629 140.371 448.5 250 448.5Z" fill="white"/>
</mask>
<g mask="url(#mask51_201_737)">
<path d="M149.7 275.4C132.2 277.3 114.8 279.1 97.3002 281C79.7002 282.9 62.2002 284.7 44.6002 286.6C34.7002 287.6 24.9002 288.7 15.0002 289.7C13.8002 289.8 12.6002 290.8 12.7002 292.1C12.8002 293.4 14.2002 294.1 15.4002 293.9C32.9002 292 50.3002 290.2 67.8002 288.3C85.4002 286.4 102.9 284.6 120.5 282.7C130.4 281.7 140.2 280.6 150.1 279.6C151.3 279.5 152.5 278.5 152.4 277.2C152.3 276 150.9 275.3 149.7 275.4Z" fill="white"/>
</g>
<mask id="mask52_201_737" style="mask-type:luminance" maskUnits="userSpaceOnUse" x="51" y="51" width="398" height="398">
<path d="M250 448.5C359.629 448.5 448.5 359.629 448.5 250C448.5 140.371 359.629 51.5 250 51.5C140.371 51.5 51.5 140.371 51.5 250C51.5 359.629 140.371 448.5 250 448.5Z" fill="white"/>
</mask>
<g mask="url(#mask52_201_737)">
<path d="M133.2 287.4C106.3 295 78.7998 300.6 50.9998 304.3C43.1998 305.3 35.2998 306.2 27.4998 306.9C26.3998 307 25.0998 308 25.2998 309.2C25.4998 310.5 26.9998 310.9 28.0998 310.8C56.2998 308.2 84.1998 303.6 111.8 297C119.6 295.1 127.4 293.1 135.1 290.9C136.2 290.6 137 289.3 136.5 288.2C135.9 287.1 134.3 287.1 133.2 287.4Z" fill="white"/>
</g>
<mask id="mask53_201_737" style="mask-type:luminance" maskUnits="userSpaceOnUse" x="51" y="51" width="398" height="398">
<path d="M250 448.5C359.629 448.5 448.5 359.629 448.5 250C448.5 140.371 359.629 51.5 250 51.5C140.371 51.5 51.5 140.371 51.5 250C51.5 359.629 140.371 448.5 250 448.5Z" fill="white"/>
</mask>
<g mask="url(#mask53_201_737)">
<path d="M112.6 304.7C89.7998 309 67.0998 314.2 44.7998 320.5C38.4998 322.3 32.1998 324.1 25.8998 326C24.9998 326.3 26.7998 327.6 26.9998 327.7C27.7998 328.2 28.9998 328.8 29.9998 328.5C52.0998 321.8 74.3998 316 96.9998 311.2C103.3 309.9 109.7 308.6 116.1 307.4C117.1 307.2 116.3 306.3 115.8 305.9C115 305.4 113.6 304.5 112.6 304.7Z" fill="white"/>
</g>
</g>
<defs>
<clipPath id="clip0_201_737">
<rect width="500" height="500" fill="white"/>
</clipPath>
</defs>
</svg>
