<svg width="500" height="500" viewBox="0 0 500 500" fill="none" xmlns="http://www.w3.org/2000/svg">
<mask id="mask0_201_696" style="mask-type:luminance" maskUnits="userSpaceOnUse" x="51" y="51" width="398" height="398">
<path d="M250 448.5C359.629 448.5 448.5 359.629 448.5 250C448.5 140.371 359.629 51.5 250 51.5C140.371 51.5 51.5 140.371 51.5 250C51.5 359.629 140.371 448.5 250 448.5Z" fill="white"/>
</mask>
<g mask="url(#mask0_201_696)">
<path d="M96.3999 77.8C107.3 88.7 117.4 100.3 126.8 112.5C129.5 116 132.1 119.5 134.6 123.1C134.7 122.2 134.9 121.4 135 120.5C118.3 121.3 101.7 122.2 84.9999 123C83.7999 123.1 83.7999 124.3 84.1999 125.1C84.6999 126.1 85.8999 127.1 86.9999 127.1C103.7 126.3 120.3 125.4 137 124.6C138.5 124.5 138 122.8 137.4 122C128.2 109.2 118.2 97 107.5 85.4C104.5 82.1 101.4 78.9 98.1999 75.8C97.5999 75.2 96.1999 74.3 95.3999 75.1C94.7999 75.8 95.7999 77.3 96.3999 77.8Z" fill="white"/>
</g>
<mask id="mask1_201_696" style="mask-type:luminance" maskUnits="userSpaceOnUse" x="51" y="51" width="398" height="398">
<path d="M250 448.5C359.629 448.5 448.5 359.629 448.5 250C448.5 140.371 359.629 51.5 250 51.5C140.371 51.5 51.5 140.371 51.5 250C51.5 359.629 140.371 448.5 250 448.5Z" fill="white"/>
</mask>
<g mask="url(#mask1_201_696)">
<path d="M72.6 148C90.8 148.1 109.1 151.2 126.4 157.1C127 156.2 127.7 155.2 128.3 154.3C110.3 162.4 92.3 170.5 74.3 178.7C73.5 179 72 179.9 72.1 181C72.2 182 73.8 181.6 74.3 181.4C92.3 173.3 110.3 165.2 128.3 157C128.7 156.8 131.7 154.7 130.2 154.2C112.4 148.1 93.7 144.9 74.8 144.8C73.7 144.8 72.3 145.7 71.8 146.6C71.2 147.4 71.6 148 72.6 148Z" fill="white"/>
</g>
<mask id="mask2_201_696" style="mask-type:luminance" maskUnits="userSpaceOnUse" x="51" y="51" width="398" height="398">
<path d="M250 448.5C359.629 448.5 448.5 359.629 448.5 250C448.5 140.371 359.629 51.5 250 51.5C140.371 51.5 51.5 140.371 51.5 250C51.5 359.629 140.371 448.5 250 448.5Z" fill="white"/>
</mask>
<g mask="url(#mask2_201_696)">
<path d="M81.3999 197.9C91.2999 199.9 101.2 202 111 204C110.8 203.6 110.6 203.2 110.4 202.8C107.6 206 104.8 209.1 101.7 212C100.9 212.8 102.2 213.2 102.8 213.3C103.9 213.4 105.3 213.1 106.1 212.3C109.1 209.3 112 206.3 114.8 203.1C115.3 202.5 114.8 202 114.2 201.9C104.3 199.9 94.3999 197.8 84.5999 195.8C83.4999 195.6 82.0999 195.7 81.0999 196.4C80.3999 197 80.3999 197.7 81.3999 197.9Z" fill="white"/>
</g>
<mask id="mask3_201_696" style="mask-type:luminance" maskUnits="userSpaceOnUse" x="51" y="51" width="398" height="398">
<path d="M250 448.5C359.629 448.5 448.5 359.629 448.5 250C448.5 140.371 359.629 51.5 250 51.5C140.371 51.5 51.5 140.371 51.5 250C51.5 359.629 140.371 448.5 250 448.5Z" fill="white"/>
</mask>
<g mask="url(#mask3_201_696)">
<path d="M52.2 261.8C68.9 262 84.3 254.7 100.6 252.6C99.8 251.4 98.9 250.3 98.1 249.1C94.1 259.7 89.9 270.3 85.6 280.9C84.6 283.4 88.7 286 89.9 283.1C94.2 272.6 98.4 262 102.4 251.3C103 249.8 101.5 247.6 99.9 247.8C83.6 249.9 68.1 257.2 51.5 257C48.3 257.1 49.5 261.8 52.2 261.8Z" fill="white"/>
</g>
<mask id="mask4_201_696" style="mask-type:luminance" maskUnits="userSpaceOnUse" x="51" y="51" width="398" height="398">
<path d="M250 448.5C359.629 448.5 448.5 359.629 448.5 250C448.5 140.371 359.629 51.5 250 51.5C140.371 51.5 51.5 140.371 51.5 250C51.5 359.629 140.371 448.5 250 448.5Z" fill="white"/>
</mask>
<g mask="url(#mask4_201_696)">
<path d="M49.8 329.8C67.1 326.4 84.1 321.4 100.5 315C105.1 313.2 109.7 311.2 114.3 309.2C112.8 309 111.2 308.8 109.7 308.5C109.7 315.8 109.6 323.1 109.6 330.4C109.6 331.4 114.6 331.6 114.6 330.8C114.6 323.5 114.7 316.2 114.7 308.9C114.7 307.8 110.7 308 110.1 308.2C94.2 315.4 77.7 321.2 60.8 325.4C56 326.6 51.2 327.7 46.4 328.6C45.5 328.8 45.5 329.2 46.3 329.5C47.3 329.9 48.7 330 49.8 329.8Z" fill="white"/>
</g>
<mask id="mask5_201_696" style="mask-type:luminance" maskUnits="userSpaceOnUse" x="51" y="51" width="398" height="398">
<path d="M250 448.5C359.629 448.5 448.5 359.629 448.5 250C448.5 140.371 359.629 51.5 250 51.5C140.371 51.5 51.5 140.371 51.5 250C51.5 359.629 140.371 448.5 250 448.5Z" fill="white"/>
</mask>
<g mask="url(#mask5_201_696)">
<path d="M102.7 388.9C111.2 388 118.3 381.9 125 377.1C132.6 371.8 140.1 366.3 147.5 360.9C151.7 357.8 155.9 354.7 160.1 351.5C158.7 351 157.2 350.4 155.8 349.9C157 368.4 157.7 386.8 157.9 405.3C157.9 410.6 157.9 415.9 157.9 421.2C157.9 423.5 162.8 424.1 162.8 421.5C163 403 162.6 384.5 161.7 366C161.4 360.7 161.1 355.4 160.8 350.2C160.7 348.4 157.8 347.6 156.5 348.6C142.2 359.3 127.8 370.1 113 380.1C109.4 382.5 105.6 384.8 101.2 385.2C100.1 385.3 99.2 386.3 99.7 387.4C100.1 388.6 101.5 389 102.7 388.9Z" fill="white"/>
</g>
<mask id="mask6_201_696" style="mask-type:luminance" maskUnits="userSpaceOnUse" x="51" y="51" width="398" height="398">
<path d="M250 448.5C359.629 448.5 448.5 359.629 448.5 250C448.5 140.371 359.629 51.5 250 51.5C140.371 51.5 51.5 140.371 51.5 250C51.5 359.629 140.371 448.5 250 448.5Z" fill="white"/>
</mask>
<g mask="url(#mask6_201_696)">
<path d="M197.6 412C202.7 404.3 207.8 396.5 212.9 388.8C211.7 388.3 210.5 387.9 209.3 387.4C213.1 398.2 216.7 409.1 220.1 420.1C220.4 421.1 221.3 422.5 222.6 422.3C223.8 422.2 224.2 420.8 223.9 419.8C220.5 408.9 216.9 398 213.1 387.1C212.6 385.6 210.7 383.8 209.5 385.7C204.4 393.4 199.3 401.2 194.2 408.9C192.8 410.8 196 414.4 197.6 412Z" fill="white"/>
</g>
<mask id="mask7_201_696" style="mask-type:luminance" maskUnits="userSpaceOnUse" x="51" y="51" width="398" height="398">
<path d="M250 448.5C359.629 448.5 448.5 359.629 448.5 250C448.5 140.371 359.629 51.5 250 51.5C140.371 51.5 51.5 140.371 51.5 250C51.5 359.629 140.371 448.5 250 448.5Z" fill="white"/>
</mask>
<g mask="url(#mask7_201_696)">
<path d="M252.1 429.8C255 418.9 258.8 408.3 263.6 398.1C262.2 398.6 260.8 399.1 259.4 399.5C264.1 406 268.7 412.5 273.2 419C274.5 420.9 278.6 418 277.3 416.1C272.8 409.5 268.1 403 263.5 396.6C262.3 395 259.9 396.8 259.3 398C254.5 408.2 250.7 418.8 247.8 429.7C247.1 432.8 251.6 432 252.1 429.8Z" fill="white"/>
</g>
<mask id="mask8_201_696" style="mask-type:luminance" maskUnits="userSpaceOnUse" x="51" y="51" width="398" height="398">
<path d="M250 448.5C359.629 448.5 448.5 359.629 448.5 250C448.5 140.371 359.629 51.5 250 51.5C140.371 51.5 51.5 140.371 51.5 250C51.5 359.629 140.371 448.5 250 448.5Z" fill="white"/>
</mask>
<g mask="url(#mask8_201_696)">
<path d="M319.3 445C320.6 431.8 322.3 418.7 324.4 405.6C323.5 405.8 322.5 406 321.6 406.2C333.7 415 345.1 424.5 355.9 434.9C356.6 435.6 358 436.4 358.9 435.5C359.8 434.7 359.1 433.2 358.4 432.5C347.3 421.8 335.6 412 323.1 403C322.1 402.3 320.5 402.1 320.3 403.6C318.3 416.7 316.6 429.8 315.2 443C314.9 445.2 319 447.8 319.3 445Z" fill="white"/>
</g>
<mask id="mask9_201_696" style="mask-type:luminance" maskUnits="userSpaceOnUse" x="51" y="51" width="398" height="398">
<path d="M250 448.5C359.629 448.5 448.5 359.629 448.5 250C448.5 140.371 359.629 51.5 250 51.5C140.371 51.5 51.5 140.371 51.5 250C51.5 359.629 140.371 448.5 250 448.5Z" fill="white"/>
</mask>
<g mask="url(#mask9_201_696)">
<path d="M382.8 403.2C376.2 388.2 370.9 372.5 367.1 356.5C366 352 365.1 347.4 364.2 342.8C362.7 342.4 361.2 342 359.7 341.6C367.9 346.8 376.2 351.8 384.7 356.5C385.7 357.1 386.9 357.5 388.1 357.6C388.9 357.7 389.1 357.4 388.3 357C380.1 352.4 372 347.5 364 342.5C363.2 342 362.3 341.7 361.4 341.4C361.2 341.4 359.5 341 359.5 341.3C362.5 357.5 366.9 373.4 372.8 388.8C374.5 393.2 376.3 397.6 378.2 402C378.5 402.7 380.3 403.1 381 403.3C381.2 403.3 383.1 403.7 382.8 403.2Z" fill="white"/>
</g>
<mask id="mask10_201_696" style="mask-type:luminance" maskUnits="userSpaceOnUse" x="51" y="51" width="398" height="398">
<path d="M250 448.5C359.629 448.5 448.5 359.629 448.5 250C448.5 140.371 359.629 51.5 250 51.5C140.371 51.5 51.5 140.371 51.5 250C51.5 359.629 140.371 448.5 250 448.5Z" fill="white"/>
</mask>
<g mask="url(#mask10_201_696)">
<path d="M400.3 333.5C397.3 324.4 396.2 314.8 397.1 305.3C396.6 305.5 396.1 305.7 395.5 305.9C403.9 307.8 411.8 311.2 419.1 315.9C419.8 316.3 421.5 317.1 422.2 316.5C423 315.8 421.6 314.9 421.2 314.6C412.9 309.2 403.7 305.4 394 303.2C393.4 303.1 392.5 303.1 392.4 303.8C391.5 313.3 392.6 322.9 395.6 332C395.9 333 397.1 333.7 398.1 334C398.5 334.1 400.6 334.5 400.3 333.5Z" fill="white"/>
</g>
<mask id="mask11_201_696" style="mask-type:luminance" maskUnits="userSpaceOnUse" x="51" y="51" width="398" height="398">
<path d="M250 448.5C359.629 448.5 448.5 359.629 448.5 250C448.5 140.371 359.629 51.5 250 51.5C140.371 51.5 51.5 140.371 51.5 250C51.5 359.629 140.371 448.5 250 448.5Z" fill="white"/>
</mask>
<g mask="url(#mask11_201_696)">
<path d="M424 283.2C420.9 275.8 417.7 268.3 414.6 260.9C414.2 260 413.7 259.1 413.5 258.2C413.2 257.1 413.6 256.8 414.6 256.3C416.4 255.5 418.2 254.7 420 253.9C423.7 252.3 427.3 250.7 431 249.1C431.7 248.8 430.2 247.7 430 247.5C429.5 247.1 427.9 245.9 427.2 246.2C423.5 247.8 419.7 249.5 416 251.1C414.1 251.9 412.2 252.7 410.3 253.6C408.5 254.5 409.5 256.1 410.1 257.6C413.4 265.4 416.6 273.1 419.9 280.9C420.3 281.8 421.4 282.5 422.2 283C422.3 283 424.3 283.9 424 283.2Z" fill="white"/>
</g>
<mask id="mask12_201_696" style="mask-type:luminance" maskUnits="userSpaceOnUse" x="51" y="51" width="398" height="398">
<path d="M250 448.5C359.629 448.5 448.5 359.629 448.5 250C448.5 140.371 359.629 51.5 250 51.5C140.371 51.5 51.5 140.371 51.5 250C51.5 359.629 140.371 448.5 250 448.5Z" fill="white"/>
</mask>
<g mask="url(#mask12_201_696)">
<path d="M420 187.9C409 192.9 398.8 199.5 389.8 207.5C389 208.2 388.5 210.2 390 210.5C400.2 212.2 410.5 213.9 420.7 215.6C421.9 215.8 423.2 215.3 423.9 214.2C424.4 213.4 424.5 211.9 423.3 211.7C413.1 210 402.8 208.3 392.6 206.6C392.7 207.6 392.7 208.6 392.8 209.6C401.2 202.2 410.7 196.1 420.8 191.5C421.8 191.1 422.9 190 422.7 188.8C422.3 187.6 420.9 187.5 420 187.9Z" fill="white"/>
</g>
<mask id="mask13_201_696" style="mask-type:luminance" maskUnits="userSpaceOnUse" x="51" y="51" width="398" height="398">
<path d="M250 448.5C359.629 448.5 448.5 359.629 448.5 250C448.5 140.371 359.629 51.5 250 51.5C140.371 51.5 51.5 140.371 51.5 250C51.5 359.629 140.371 448.5 250 448.5Z" fill="white"/>
</mask>
<g mask="url(#mask13_201_696)">
<path d="M164.3 95.5C171.5 104.6 178.9 113.6 186.6 122.3C187.4 123.2 191.1 123.2 191.5 121.8C195.6 107 199.3 92 202.5 77C202.7 76 197.8 75.7 197.5 77.2C194.3 92.3 190.6 107.2 186.5 122C188.1 121.8 189.8 121.7 191.4 121.5C183.7 112.8 176.3 103.8 169.1 94.7C168.5 93.9 166.8 94.1 166 94.2C165.6 94.3 163.7 94.7 164.3 95.5Z" fill="white"/>
</g>
<mask id="mask14_201_696" style="mask-type:luminance" maskUnits="userSpaceOnUse" x="51" y="51" width="398" height="398">
<path d="M250 448.5C359.629 448.5 448.5 359.629 448.5 250C448.5 140.371 359.629 51.5 250 51.5C140.371 51.5 51.5 140.371 51.5 250C51.5 359.629 140.371 448.5 250 448.5Z" fill="white"/>
</mask>
<g mask="url(#mask14_201_696)">
<path d="M206.1 49.7999C208.7 53.9999 211.3 58.2999 214 62.5C215.3 64.6 216.6 66.7 217.9 68.9C218.5 69.9 219.1 70.9 219.7 71.9C220.2 72.7 220.7 73.7 221.5 74.3C223.4 75.7 226.3 74.7 227.7 73C229.2 71.2999 230.1 69 231.2 67C233.5 62.7999 235.8 58.5 238.1 54.2999C240.7 49.4 243.3 44.4999 245.8 39.5999C246.3 38.5999 245.3 37.9 244.4 37.9C243.3 37.8 241.8 38.3 241.3 39.4C237.3 47.1 233.3 54.6999 229.2 62.2999C228.2 64.1999 227.2 66 226.2 67.9C225.7 68.8 225.2 69.7999 224.7 70.6999C224.5 71.0999 224.3 71.4 224.1 71.8C223.7 72.4 223.4 72.1999 224.7 72.0999C225.9 71.8999 225.7 72.0999 225.3 71.5999C224.1 69.8999 223.1 68.1 222 66.3C220.8 64.4 219.6 62.4999 218.5 60.5999C215.9 56.3999 213.3 52.1 210.6 47.9C209.6 46.1 204.9 47.8999 206.1 49.7999Z" fill="white"/>
</g>
<mask id="mask15_201_696" style="mask-type:luminance" maskUnits="userSpaceOnUse" x="51" y="51" width="398" height="398">
<path d="M250 448.5C359.629 448.5 448.5 359.629 448.5 250C448.5 140.371 359.629 51.5 250 51.5C140.371 51.5 51.5 140.371 51.5 250C51.5 359.629 140.371 448.5 250 448.5Z" fill="white"/>
</mask>
<g mask="url(#mask15_201_696)">
<path d="M269.3 58.5C270.8 68.9 273 79.2 275.7 89.4C276.4 92 277.2 94.7 277.9 97.3C278.3 98.5 278.6 99.7 279.1 100.8C279.5 101.8 280.1 103.4 281 104.1C281.8 104.6 282.4 103.6 282.9 103.1C283.8 102 284.7 100.9 285.6 99.8C287.3 97.8 288.9 95.8 290.5 93.7C294.1 89 297.6 84.3 301 79.4C301.3 79 300.3 77.4 300.1 77C300 76.8 298.8 74.8 298.8 74.9C293.4 82.6 287.7 90 281.7 97.2C281 98 280.2 98.8 279.6 99.6H279.5C278.9 99.7 279.1 100.2 279.9 101C280.9 103.5 280.4 102.3 280.2 101.6C280 101 279.8 100.4 279.6 99.8C278.9 97.5 278.3 95.2 277.6 92.8C276.4 88.2 275.2 83.5 274.2 78.8C273.1 73.5 272.1 68.1 271.3 62.7C271.2 61.7 270.6 60.7 270.1 59.9C269.9 59.5 269.7 58.9 269.3 58.6C269.6 58.6 269.3 58.2 269.3 58.5Z" fill="white"/>
</g>
<mask id="mask16_201_696" style="mask-type:luminance" maskUnits="userSpaceOnUse" x="51" y="51" width="398" height="398">
<path d="M250 448.5C359.629 448.5 448.5 359.629 448.5 250C448.5 140.371 359.629 51.5 250 51.5C140.371 51.5 51.5 140.371 51.5 250C51.5 359.629 140.371 448.5 250 448.5Z" fill="white"/>
</mask>
<g mask="url(#mask16_201_696)">
<path d="M315.4 86.7C314.3 91 313.2 95.3 312.1 99.7C311.6 101.8 311 103.9 310.5 105.9C310 107.8 309 110.1 309.5 112C310.4 115.9 314.9 115.7 318 115.3C322.4 114.6 326.8 114 331.2 113.3C332.4 113.1 333.2 111.9 332.8 110.7C332.4 109.4 330.9 108.9 329.7 109C326 109.5 322.4 110.1 318.7 110.6C317.3 110.8 315.7 111.3 314.3 111.1C314.1 111.1 314 111 313.9 111C313.7 110.9 313.7 111 313.9 111C314 111.1 314.1 111.2 314.2 111.3C314.3 111.3 314.6 109.7 314.6 109.5C316.5 102.3 318.3 95.1 320.2 87.9C320.9 85.3 316.1 84 315.4 86.7Z" fill="white"/>
</g>
<mask id="mask17_201_696" style="mask-type:luminance" maskUnits="userSpaceOnUse" x="51" y="51" width="398" height="398">
<path d="M250 448.5C359.629 448.5 448.5 359.629 448.5 250C448.5 140.371 359.629 51.5 250 51.5C140.371 51.5 51.5 140.371 51.5 250C51.5 359.629 140.371 448.5 250 448.5Z" fill="white"/>
</mask>
<g mask="url(#mask17_201_696)">
<path d="M369 105.5C359.5 120.1 350.8 135.2 343.1 150.9C343 151.1 342.9 151.3 343 151.5C345.3 154.7 350.4 153.6 353.8 153.3C358.8 152.9 363.9 152.4 368.9 152C378.9 151.1 388.9 150.1 398.9 149C404.5 148.4 410.1 147.8 415.7 147.1C416.7 147 418.3 146.5 418.7 145.5C419.2 144.5 418.1 144.3 417.3 144.4C398.4 146.6 379.5 148.5 360.6 150.2C358 150.4 355.3 150.7 352.7 150.9C351 151 348.8 151.3 347.6 149.8C347.6 150 347.5 150.2 347.5 150.4C355.2 134.8 363.8 119.6 373.4 105C374 104.1 372.6 103.9 372 103.9C370.9 104 369.6 104.6 369 105.5Z" fill="white"/>
</g>
<mask id="mask18_201_696" style="mask-type:luminance" maskUnits="userSpaceOnUse" x="51" y="51" width="398" height="398">
<path d="M250 448.5C359.629 448.5 448.5 359.629 448.5 250C448.5 140.371 359.629 51.5 250 51.5C140.371 51.5 51.5 140.371 51.5 250C51.5 359.629 140.371 448.5 250 448.5Z" fill="white"/>
</mask>
<g mask="url(#mask18_201_696)">
<path d="M384.2 167.4C377.4 174 371.2 181.1 365.7 188.7C365.2 189.4 365.7 190 366.4 190.2C371.8 192 377.5 192.8 383.2 192.5C384.1 192.5 385.8 192 386 191C386.2 189.9 384.7 189.7 384 189.7C379.1 189.9 374.2 189.2 369.5 187.6C369.7 188.1 370 188.6 370.2 189.1C375.6 181.7 381.5 174.8 388.1 168.4C388.8 167.7 388.7 166.8 387.7 166.5C386.7 166.4 385 166.6 384.2 167.4Z" fill="white"/>
</g>
<mask id="mask19_201_696" style="mask-type:luminance" maskUnits="userSpaceOnUse" x="51" y="51" width="398" height="398">
<path d="M250 448.5C359.629 448.5 448.5 359.629 448.5 250C448.5 140.371 359.629 51.5 250 51.5C140.371 51.5 51.5 140.371 51.5 250C51.5 359.629 140.371 448.5 250 448.5Z" fill="white"/>
</mask>
<g mask="url(#mask19_201_696)">
<path d="M169.1 156C176.3 162.2 184.3 167.4 192.8 171.7C193.9 172.3 196.5 171.8 196.8 170.3C198.2 162.1 198.9 153.8 198.9 145.5C198.9 144.3 196.9 144.2 196.2 144.3C195.1 144.5 194 145.1 194 146.3C194 154.3 193.3 162.3 191.9 170.3C193.2 169.8 194.6 169.4 195.9 168.9C187.7 164.8 180 159.7 173 153.8C171.6 152.4 167.1 154.3 169.1 156Z" fill="white"/>
</g>
<mask id="mask20_201_696" style="mask-type:luminance" maskUnits="userSpaceOnUse" x="51" y="51" width="398" height="398">
<path d="M250 448.5C359.629 448.5 448.5 359.629 448.5 250C448.5 140.371 359.629 51.5 250 51.5C140.371 51.5 51.5 140.371 51.5 250C51.5 359.629 140.371 448.5 250 448.5Z" fill="white"/>
</mask>
<g mask="url(#mask20_201_696)">
<path d="M227.6 108.2C230.8 119.4 235.3 130.3 240.8 140.6C241 141 242.7 143.3 243.3 142C247.7 132.5 252.1 123 256.6 113.5C257.1 112.5 256.5 111.2 255.9 110.4C255.6 110 254.2 108.6 253.7 109.6C249.3 119.1 244.9 128.6 240.4 138.1C241.2 138.6 242.1 139 242.9 139.5C237.6 129.6 233.3 119.2 230.2 108.4C230 107.6 229 106 228 106.1C227.1 106 227.5 107.5 227.6 108.2Z" fill="white"/>
</g>
<mask id="mask21_201_696" style="mask-type:luminance" maskUnits="userSpaceOnUse" x="51" y="51" width="398" height="398">
<path d="M250 448.5C359.629 448.5 448.5 359.629 448.5 250C448.5 140.371 359.629 51.5 250 51.5C140.371 51.5 51.5 140.371 51.5 250C51.5 359.629 140.371 448.5 250 448.5Z" fill="white"/>
</mask>
<g mask="url(#mask21_201_696)">
<path d="M273.9 133.3C273.9 139.1 274.5 144.8 275.8 150.4C276 151.3 276.8 152.1 277.4 152.7C277.7 153 278.7 154.2 279.2 153.9C284.6 151.2 290.2 148.8 296 147C296.4 146.9 294.8 145 294.7 144.8C294.3 144.4 293.3 143.1 292.6 143.3C286.8 145.2 281.2 147.5 275.8 150.2C276.9 151.4 278.1 152.5 279.2 153.7C277.9 148.1 277.2 142.4 277.3 136.6C277.3 135.7 276 134.6 275.5 134.1C275.4 133.9 273.9 132.6 273.9 133.3Z" fill="white"/>
</g>
<mask id="mask22_201_696" style="mask-type:luminance" maskUnits="userSpaceOnUse" x="51" y="51" width="398" height="398">
<path d="M250 448.5C359.629 448.5 448.5 359.629 448.5 250C448.5 140.371 359.629 51.5 250 51.5C140.371 51.5 51.5 140.371 51.5 250C51.5 359.629 140.371 448.5 250 448.5Z" fill="white"/>
</mask>
<g mask="url(#mask22_201_696)">
<path d="M312.3 168.1C309 173 305.7 178 302.4 182.9C299.6 187.1 296.1 191.5 296 196.8C296 198.1 298.3 198.2 299.1 198.2C312 197.8 324.8 194.8 336.6 189.5C337.6 189.1 337.5 188.2 336.7 187.6C335.7 187 334.2 187 333.2 187.4C322.1 192.4 310.1 195.2 297.9 195.5C298.9 196 300 196.4 301 196.9C301.1 191.7 304.7 187.4 307.4 183.3C310.6 178.5 313.8 173.7 317.1 168.9C318.1 167.4 313.2 166.6 312.3 168.1Z" fill="white"/>
</g>
<mask id="mask23_201_696" style="mask-type:luminance" maskUnits="userSpaceOnUse" x="51" y="51" width="398" height="398">
<path d="M250 448.5C359.629 448.5 448.5 359.629 448.5 250C448.5 140.371 359.629 51.5 250 51.5C140.371 51.5 51.5 140.371 51.5 250C51.5 359.629 140.371 448.5 250 448.5Z" fill="white"/>
</mask>
<g mask="url(#mask23_201_696)">
<path d="M360.4 223.6C350.9 223.7 341.4 223.7 331.9 223.8C331.8 223.8 331.8 223.8 331.8 223.9C338 231.4 344.9 238.2 352.5 244.2C353.4 244.9 354.5 245.6 355.5 246C356.2 246.3 356.4 246.3 355.7 245.7C352.2 242.9 348.8 239.9 345.6 236.7C344.1 235.2 342.6 233.6 341.1 232C340.3 231.1 339.5 230.2 338.7 229.3C338.1 228.6 337.1 227.8 336.7 226.9C336.4 226.7 336.3 226.5 336.5 226.3C336.8 226.3 337.2 226.3 337.5 226.3C338 226.3 338.5 226.3 339 226.3C340.3 226.3 341.6 226.3 342.9 226.3C345.2 226.3 347.5 226.3 349.8 226.3C354.7 226.3 359.6 226.2 364.6 226.2C364.9 226.2 363.4 225.1 363.3 225C362.5 224.6 361.3 223.6 360.4 223.6Z" fill="white"/>
</g>
<mask id="mask24_201_696" style="mask-type:luminance" maskUnits="userSpaceOnUse" x="51" y="51" width="398" height="398">
<path d="M250 448.5C359.629 448.5 448.5 359.629 448.5 250C448.5 140.371 359.629 51.5 250 51.5C140.371 51.5 51.5 140.371 51.5 250C51.5 359.629 140.371 448.5 250 448.5Z" fill="white"/>
</mask>
<g mask="url(#mask24_201_696)">
<path d="M357.6 282.1C347.7 280.2 338.3 276.1 330.1 270.1C329 269.3 325.2 270 325.5 271.9C327.4 283.3 330.3 294.5 334.3 305.4C334.9 307 339.7 305.5 339.1 303.9C335.1 293 332.2 281.8 330.3 270.4C328.8 271 327.2 271.6 325.7 272.2C334.3 278.5 344.2 282.8 354.7 284.8C355.8 285 357.3 284.6 358.1 283.8C358.9 283.1 358.7 282.3 357.6 282.1Z" fill="white"/>
</g>
<mask id="mask25_201_696" style="mask-type:luminance" maskUnits="userSpaceOnUse" x="51" y="51" width="398" height="398">
<path d="M250 448.5C359.629 448.5 448.5 359.629 448.5 250C448.5 140.371 359.629 51.5 250 51.5C140.371 51.5 51.5 140.371 51.5 250C51.5 359.629 140.371 448.5 250 448.5Z" fill="white"/>
</mask>
<g mask="url(#mask25_201_696)">
<path d="M341.1 353.5C332.4 349.6 323.9 345.1 315.8 340C315.6 339.9 314.8 339.5 314.8 340C314.5 352.2 314.4 364.4 314.6 376.6C314.6 377.6 315.4 378.6 316.1 379.3C316.2 379.4 318 380.9 318 380C317.8 367.8 317.9 355.6 318.2 343.4C317.9 343.4 317.5 343.4 317.2 343.4C325.6 348.6 334.2 353.2 343.2 357.3C344.2 357.8 343.7 356.3 343.5 355.9C343 354.9 342.2 353.9 341.1 353.5Z" fill="white"/>
</g>
<mask id="mask26_201_696" style="mask-type:luminance" maskUnits="userSpaceOnUse" x="51" y="51" width="398" height="398">
<path d="M250 448.5C359.629 448.5 448.5 359.629 448.5 250C448.5 140.371 359.629 51.5 250 51.5C140.371 51.5 51.5 140.371 51.5 250C51.5 359.629 140.371 448.5 250 448.5Z" fill="white"/>
</mask>
<g mask="url(#mask26_201_696)">
<path d="M286.6 365.6C286.9 357 286.8 348.4 286.2 339.9C286.1 337.9 286 335.9 285.7 334C285.4 332.1 283.8 331 281.9 331.1C279.8 331.2 278.2 332.4 276.8 333.8C275.3 335.3 273.7 336.8 272.2 338.3C268.7 341.7 265.3 345.1 261.8 348.5C261 349.3 261.4 350.5 262.4 350.9C263.6 351.4 265 350.9 265.8 350C269.1 346.8 272.4 343.5 275.7 340.3C277.3 338.7 279 337 280.6 335.4C280.7 335.3 281.5 334.8 281.5 334.6C281.8 334.4 281.5 334.4 280.6 334.5C280.6 334.6 280.6 334.6 280.7 334.7C280.6 335 280.9 335.9 280.9 336.2C281 336.8 281 337.4 281.1 337.9C281.9 347.2 282.1 356.6 281.7 365.9C281.6 368.5 286.5 367.9 286.6 365.6Z" fill="white"/>
</g>
<mask id="mask27_201_696" style="mask-type:luminance" maskUnits="userSpaceOnUse" x="51" y="51" width="398" height="398">
<path d="M250 448.5C359.629 448.5 448.5 359.629 448.5 250C448.5 140.371 359.629 51.5 250 51.5C140.371 51.5 51.5 140.371 51.5 250C51.5 359.629 140.371 448.5 250 448.5Z" fill="white"/>
</mask>
<g mask="url(#mask27_201_696)">
<path d="M236.2 341.5C235.8 336.6 235.4 331.7 235.1 326.8C234.9 324.3 234.7 321.9 234.5 319.4C234.3 317.3 234.6 314.6 232.4 313.5C230.1 312.3 227.9 313.9 226.1 315.2C224.1 316.6 222.1 318.1 220.1 319.5C216.1 322.4 212.1 325.2 208.1 328.1C207.1 328.8 207.2 330.4 208.1 331.1C209.1 332 210.6 331.9 211.6 331.1C214.9 328.7 218.3 326.3 221.6 323.9C223.3 322.7 225.1 321.4 226.8 320.2C227.6 319.6 228.4 319.1 229.2 318.5C229.6 318.2 230 317.9 230.4 317.6C230.6 317.5 230.7 317.3 230.9 317.3C229.8 316.4 229.3 316.2 229.3 316.8C229.1 317.6 229.5 319 229.5 319.8C229.6 320.8 229.7 321.8 229.7 322.7C229.9 324.7 230 326.8 230.2 328.8C230.5 333 230.8 337.1 231.2 341.3C231.4 344.3 236.4 344.3 236.2 341.5Z" fill="white"/>
</g>
<mask id="mask28_201_696" style="mask-type:luminance" maskUnits="userSpaceOnUse" x="51" y="51" width="398" height="398">
<path d="M250 448.5C359.629 448.5 448.5 359.629 448.5 250C448.5 140.371 359.629 51.5 250 51.5C140.371 51.5 51.5 140.371 51.5 250C51.5 359.629 140.371 448.5 250 448.5Z" fill="white"/>
</mask>
<g mask="url(#mask28_201_696)">
<path d="M191.1 306.7C193 303.2 194.6 299.5 195.8 295.7C196.4 293.9 197.3 291.8 197.2 289.9C197.1 287.8 195.6 286 193.5 286C191.6 285.9 189.5 286.6 187.6 287C185.5 287.4 183.4 287.8 181.3 288.2C177 289 172.8 289.9 168.5 290.7C165.8 291.2 167.6 295.9 170 295.4C174.2 294.6 178.4 293.8 182.6 292.9C184.7 292.5 186.8 292.1 188.9 291.7C189.9 291.5 190.8 291.3 191.8 291.1C192.3 291 192.8 290.9 193.3 290.8C193.6 290.7 193.8 290.7 194.1 290.7C194.5 290.6 194.3 290.4 193.4 290C193.3 289.6 193.1 289.2 193 288.8C193.2 289.7 192.5 291.1 192.3 292.1C191.9 293.5 191.4 294.9 190.9 296.2C189.9 298.9 188.7 301.4 187.4 303.9C185.9 306.2 189.6 309.3 191.1 306.7Z" fill="white"/>
</g>
<mask id="mask29_201_696" style="mask-type:luminance" maskUnits="userSpaceOnUse" x="51" y="51" width="398" height="398">
<path d="M250 448.5C359.629 448.5 448.5 359.629 448.5 250C448.5 140.371 359.629 51.5 250 51.5C140.371 51.5 51.5 140.371 51.5 250C51.5 359.629 140.371 448.5 250 448.5Z" fill="white"/>
</mask>
<g mask="url(#mask29_201_696)">
<path d="M150.3 278.5C159.4 273.6 168.3 268.4 176.9 262.7C179.1 261.3 181.2 259.8 183.4 258.3C185.1 257.1 186.6 255.8 186.5 253.6C186.3 250.8 183.9 249 181.9 247.4C179.8 245.7 177.7 244.1 175.6 242.4C170.9 238.7 166.1 235.1 161.3 231.5C160.4 230.9 159.6 231.6 159.6 232.5C159.6 233.7 160.4 234.9 161.4 235.6C165.2 238.4 168.9 241.2 172.6 244C174.5 245.5 176.4 247 178.3 248.5C179.2 249.2 180.1 249.9 180.9 250.6C181.3 251 181.8 251.3 182.2 251.7C182.4 251.9 182.6 252 182.8 252.2C183.1 252.4 183.6 253.2 183.2 252.3C182.9 251.6 183 252.1 182.6 252.5C182.3 252.8 182 253.1 181.7 253.3C180.8 254 179.9 254.6 178.9 255.2C177 256.5 175.1 257.8 173.2 259C169.3 261.5 165.4 264 161.4 266.4C156.9 269.1 152.4 271.6 147.8 274.1C146.1 275 148.6 279.4 150.3 278.5Z" fill="white"/>
</g>
<mask id="mask30_201_696" style="mask-type:luminance" maskUnits="userSpaceOnUse" x="51" y="51" width="398" height="398">
<path d="M250 448.5C359.629 448.5 448.5 359.629 448.5 250C448.5 140.371 359.629 51.5 250 51.5C140.371 51.5 51.5 140.371 51.5 250C51.5 359.629 140.371 448.5 250 448.5Z" fill="white"/>
</mask>
<g mask="url(#mask30_201_696)">
<path d="M161.9 205.6C167 206.1 172.1 206.5 177.3 207C179.8 207.2 182.3 207.4 184.7 207.7C187 207.9 189.5 208.4 191.8 208.3C197 207.9 192.4 201 191.1 198.7C188.8 194.7 186 191.1 182.8 187.9C182.4 187.5 181.3 186.4 180.8 187.2C180.4 188 181.8 189.6 182.2 190C184.8 192.6 187 195.4 188.8 198.6C189.3 199.4 189.7 200.2 190.1 201.1C190.4 201.8 191.2 202.8 190.7 203.6C189.9 204.9 186.9 204.1 185.8 204C177 203.2 168.1 202.4 159.3 201.6C158.3 201.5 159.3 203.4 159.5 203.7C160 204.4 160.8 205.6 161.9 205.6Z" fill="white"/>
</g>
<mask id="mask31_201_696" style="mask-type:luminance" maskUnits="userSpaceOnUse" x="51" y="51" width="398" height="398">
<path d="M250 448.5C359.629 448.5 448.5 359.629 448.5 250C448.5 140.371 359.629 51.5 250 51.5C140.371 51.5 51.5 140.371 51.5 250C51.5 359.629 140.371 448.5 250 448.5Z" fill="white"/>
</mask>
<g mask="url(#mask31_201_696)">
<path d="M220.5 189C225.7 196.7 231.5 203.9 237.8 210.8C238.5 211.5 239.1 212.4 239.9 212.9C240.8 213.6 242 213.6 243.1 213.7C244.2 213.7 245.6 213.7 246.5 213.1C247.4 212.6 248.1 211.7 248.8 211C251.9 207.8 254.7 204.3 257.3 200.7C260.1 196.7 262.6 192.5 264.8 188.2C265 187.8 262.5 187.7 262.3 187.7C261.7 187.7 260.1 187.6 259.8 188.2C257.5 192.9 254.8 197.3 251.7 201.6C250.2 203.6 248.7 205.6 247.1 207.4C246.2 208.4 245.4 209.4 244.5 210.3C244.1 210.7 243.7 211.1 243.3 211.6C242.9 212 242.3 212.9 241.7 212.9C242.7 212.9 243.7 212.8 244.7 212.8C245 212.8 244.2 212.2 244.1 212C243.6 211.5 243.1 211 242.7 210.5C241.9 209.6 241 208.7 240.2 207.7C238.5 205.7 236.8 203.7 235.1 201.7C231.8 197.6 228.6 193.4 225.6 189C225.2 188.4 223.7 188.5 223.1 188.5C222.8 188.5 220.4 188.8 220.5 189Z" fill="white"/>
</g>
<mask id="mask32_201_696" style="mask-type:luminance" maskUnits="userSpaceOnUse" x="51" y="51" width="398" height="398">
<path d="M250 448.5C359.629 448.5 448.5 359.629 448.5 250C448.5 140.371 359.629 51.5 250 51.5C140.371 51.5 51.5 140.371 51.5 250C51.5 359.629 140.371 448.5 250 448.5Z" fill="white"/>
</mask>
<g mask="url(#mask32_201_696)">
<path d="M277.2 208.6C276 213.2 274.8 217.7 273.6 222.3C273.4 223.2 273.1 224.1 273.5 225C273.9 225.7 274.6 226.1 275.3 226.3C277.3 227 279.6 226.9 281.6 227C291 227.5 300.5 227.7 309.9 227.5C310.5 227.5 312.4 227.3 312.4 226.4C312.4 225.5 310.4 225.5 309.9 225.5C301.6 225.7 293.2 225.6 284.9 225.2C283.9 225.1 282.9 225.1 281.9 225C281 224.9 279.7 225.1 278.8 224.8C277.5 224.4 278.6 221.8 278.9 220.8C280 216.7 281.1 212.6 282.2 208.5C282.5 207.4 277.7 207 277.2 208.6Z" fill="white"/>
</g>
<mask id="mask33_201_696" style="mask-type:luminance" maskUnits="userSpaceOnUse" x="51" y="51" width="398" height="398">
<path d="M250 448.5C359.629 448.5 448.5 359.629 448.5 250C448.5 140.371 359.629 51.5 250 51.5C140.371 51.5 51.5 140.371 51.5 250C51.5 359.629 140.371 448.5 250 448.5Z" fill="white"/>
</mask>
<g mask="url(#mask33_201_696)">
<path d="M304.7 248.5C298.4 248 292 248.7 286 250.5C284.9 250.8 285 252.3 285.5 253.2C289.3 259.8 293.1 266.4 296.8 273C297.3 273.9 298.4 275 299.6 274.7C300.7 274.4 300.6 272.9 300.1 272C296.3 265.4 292.5 258.8 288.8 252.2C288.6 253.1 288.4 254 288.3 254.9C294.1 253.2 300 252.5 306.1 253C307.3 253.1 307.6 251.8 307.4 250.9C306.9 249.7 305.9 248.6 304.7 248.5Z" fill="white"/>
</g>
<mask id="mask34_201_696" style="mask-type:luminance" maskUnits="userSpaceOnUse" x="51" y="51" width="398" height="398">
<path d="M250 448.5C359.629 448.5 448.5 359.629 448.5 250C448.5 140.371 359.629 51.5 250 51.5C140.371 51.5 51.5 140.371 51.5 250C51.5 359.629 140.371 448.5 250 448.5Z" fill="white"/>
</mask>
<g mask="url(#mask34_201_696)">
<path d="M272.5 283.9C271.2 280.2 269.7 276.5 267.9 273C267.1 271.3 266.2 269.6 265.2 267.9C264.3 266.2 263.4 264.4 262 263C260.8 261.7 259.1 260.8 257.3 261.1C255.5 261.3 253.8 262.6 252.2 263.5C248.7 265.5 245.2 267.7 241.9 269.9C240.2 271 243.1 275.1 244.8 274C247.6 272.1 250.4 270.3 253.3 268.6C254.7 267.8 256.1 266.9 257.5 266.2C258.1 265.9 259.1 265.3 259.8 265.5C260.2 265.6 260.3 265.7 260.6 266.2C264.1 271.5 266.7 277.6 268.8 283.5C269.2 284.5 270 285.8 271.2 286C272.5 286 272.8 284.9 272.5 283.9Z" fill="white"/>
</g>
<mask id="mask35_201_696" style="mask-type:luminance" maskUnits="userSpaceOnUse" x="51" y="51" width="398" height="398">
<path d="M250 448.5C359.629 448.5 448.5 359.629 448.5 250C448.5 140.371 359.629 51.5 250 51.5C140.371 51.5 51.5 140.371 51.5 250C51.5 359.629 140.371 448.5 250 448.5Z" fill="white"/>
</mask>
<g mask="url(#mask35_201_696)">
<path d="M231.4 261.6C232.7 257.8 233.8 253.9 234.7 250C235.1 248 235.5 246.1 235.8 244.1C236.1 242.4 236.6 240.5 235.7 238.9C233.9 235.8 229.1 236.4 226.1 236.3C221.9 236.2 217.7 236.1 213.6 236C212.4 236 211 236.7 210.7 237.9C210.3 239.1 211.4 239.8 212.4 239.8C216.1 239.9 219.8 240 223.5 240.1C225.3 240.1 227.1 240.2 228.9 240.2C229.8 240.2 231 240.3 231.3 241.4C231.6 242.8 231 244.6 230.8 246C230.5 247.8 230.1 249.5 229.7 251.3C228.9 254.8 227.9 258.2 226.7 261.6C226.3 262.7 227.4 263.5 228.4 263.5C229.7 263.5 231 262.8 231.4 261.6Z" fill="white"/>
</g>
<mask id="mask36_201_696" style="mask-type:luminance" maskUnits="userSpaceOnUse" x="51" y="51" width="398" height="398">
<path d="M250 448.5C359.629 448.5 448.5 359.629 448.5 250C448.5 140.371 359.629 51.5 250 51.5C140.371 51.5 51.5 140.371 51.5 250C51.5 359.629 140.371 448.5 250 448.5Z" fill="white"/>
</mask>
<g mask="url(#mask36_201_696)">
<path d="M121.9 242.2C127.1 238.3 133.8 237 139.3 233.7C140.5 233 142.6 232 143 230.5C143.5 228.4 141.5 226.8 140.1 225.5C137.2 222.7 134.4 219.9 131.5 217.1C130.7 216.4 129.3 215.8 128.4 216.6C127.5 217.5 128.1 219 128.8 219.7C130.5 221.4 132.3 223.1 134 224.8C134.8 225.6 135.6 226.4 136.4 227.2C136.9 227.6 137.3 228.1 137.8 228.5C138 228.7 138.2 228.9 138.4 229.1C138.5 229.2 138.6 229.3 138.7 229.4C139 229.7 138.9 229.6 138.5 229C138.5 228.7 138.6 228.3 138.6 228C138.4 228.5 137.2 229.1 136.7 229.4C135.8 229.9 135 230.4 134.1 230.8C132.3 231.7 130.5 232.4 128.7 233.1C125 234.6 121.4 236.2 118.2 238.6C117.2 239.3 118 241 118.6 241.7C119.6 242.6 120.9 243 121.9 242.2Z" fill="white"/>
</g>
<mask id="mask37_201_696" style="mask-type:luminance" maskUnits="userSpaceOnUse" x="51" y="51" width="398" height="398">
<path d="M250 448.5C359.629 448.5 448.5 359.629 448.5 250C448.5 140.371 359.629 51.5 250 51.5C140.371 51.5 51.5 140.371 51.5 250C51.5 359.629 140.371 448.5 250 448.5Z" fill="white"/>
</mask>
<g mask="url(#mask37_201_696)">
<path d="M376.7 270.8C374.5 269 372.5 267 370.7 264.8C369.8 263.7 368.9 262.5 368.2 261.3C367.6 260.4 366.3 259 367.7 258.3C372.9 255.7 379 254.3 384.8 254.2C385.5 254.2 386.7 254 386 253.1C385.4 252.3 383.8 251.8 382.8 251.8C379.3 251.9 375.9 252.2 372.5 253C370.8 253.4 369.1 253.9 367.5 254.5C366 255 364.3 255.6 363 256.5C361.5 257.5 362.5 259.1 363.2 260.2C364.1 261.5 365 262.8 366 264.1C368 266.7 370.4 269 372.9 271.1C373.8 271.8 375.2 272.2 376.3 272.1C377.3 272 377.5 271.4 376.7 270.8Z" fill="white"/>
</g>
<mask id="mask38_201_696" style="mask-type:luminance" maskUnits="userSpaceOnUse" x="51" y="51" width="398" height="398">
<path d="M250 448.5C359.629 448.5 448.5 359.629 448.5 250C448.5 140.371 359.629 51.5 250 51.5C140.371 51.5 51.5 140.371 51.5 250C51.5 359.629 140.371 448.5 250 448.5Z" fill="white"/>
</mask>
<g mask="url(#mask38_201_696)">
<path d="M183 360.6C185.7 359 188.4 357.4 191.1 355.8C192.4 355 193.7 354.2 195.1 353.4C196.4 352.6 197.8 351.7 199.2 351C198.6 351.1 198 351.3 197.4 351.4C197.5 351.4 197.6 351.4 197.7 351.4C197 351.1 196.3 350.9 195.6 350.6C195.8 350.8 195.8 351.5 195.9 351.8C196 352.3 196.1 352.8 196.2 353.3C196.4 354.4 196.7 355.5 196.9 356.7C197.4 358.9 197.8 361 198.3 363.2C198.5 364.3 199.7 364.7 200.8 364.7C201.4 364.7 203.5 364.4 203.3 363.3C202.7 360.3 202 357.3 201.4 354.4C201.2 353.7 201.1 352.9 200.9 352.2C200.8 351.5 200.7 350.7 200.4 350.1C199.6 348.2 196.8 348.4 195.3 349.2C192.6 350.6 190 352.4 187.4 353.9C184.8 355.5 182.1 357.1 179.5 358.6C178.6 359.1 178.6 360.1 179.5 360.7C180.4 361.1 182 361.2 183 360.6Z" fill="white"/>
</g>
<mask id="mask39_201_696" style="mask-type:luminance" maskUnits="userSpaceOnUse" x="51" y="51" width="398" height="398">
<path d="M250 448.5C359.629 448.5 448.5 359.629 448.5 250C448.5 140.371 359.629 51.5 250 51.5C140.371 51.5 51.5 140.371 51.5 250C51.5 359.629 140.371 448.5 250 448.5Z" fill="white"/>
</mask>
<g mask="url(#mask39_201_696)">
<path d="M153.3 130.2C155.9 131.6 158.6 132.9 161.2 134.3C162.5 135 163.8 135.7 165.2 136.3C166.7 137.1 168.1 138 169.8 137.9C171.4 137.9 173.4 137.3 173.7 135.4C173.9 134 173.9 132.6 174 131.2C174.1 128.2 174.1 125.2 174 122.2C173.9 120.7 169 121.3 169.1 122.9C169.2 125.3 169.2 127.6 169.2 130C169.2 131.2 169.1 132.3 169.1 133.5C169.1 134.1 169 134.7 169 135.2C169 135.4 169 135.6 168.9 135.9C168.8 136.1 168.6 136.4 168.9 136.1C169.3 136 169.6 135.8 170 135.7C169.9 135.7 169.8 135.7 169.8 135.8C170.2 135.7 170.7 135.7 171.1 135.6C171.8 135.8 171.9 135.8 171.5 135.6C171.4 135.5 171.2 135.5 171.1 135.4C170.8 135.3 170.5 135.1 170.3 135C169.7 134.7 169.1 134.4 168.5 134.1C167.3 133.5 166.1 132.9 165 132.3C162.6 131.1 160.2 129.8 157.8 128.6C156.8 128.1 155.4 128.3 154.4 128.7C153.4 128.9 152.3 129.7 153.3 130.2Z" fill="white"/>
</g>
<mask id="mask40_201_696" style="mask-type:luminance" maskUnits="userSpaceOnUse" x="51" y="51" width="398" height="398">
<path d="M250 448.5C359.629 448.5 448.5 359.629 448.5 250C448.5 140.371 359.629 51.5 250 51.5C140.371 51.5 51.5 140.371 51.5 250C51.5 359.629 140.371 448.5 250 448.5Z" fill="white"/>
</mask>
<g mask="url(#mask40_201_696)">
<path d="M317.3 135.8C315.8 137.8 314.4 139.9 313.1 142C312.5 143.1 311.8 144.2 311.3 145.3C311 145.9 310.7 146.5 310.4 147.1C310.1 147.6 309.8 148.2 310 148.8C310.1 149.4 310.8 149.9 311.2 150.2C312 150.7 312.9 151.1 313.8 151.3C315.1 151.6 316.3 151.6 317.6 151.6C320.3 151.6 323 151.6 325.7 151.6C325.9 151.6 326.5 151.6 326.6 151.3C326.7 151 326.3 150.6 326.1 150.5C325.3 149.8 323.9 149.2 322.8 149.2C320.5 149.2 318.2 149.2 315.9 149.2C314.8 149.2 313.7 149.3 312.5 149.2C312.4 149.2 312.4 149.2 312.3 149.2C312.1 149.2 312.1 149.2 312.3 149.2C313 149.5 313.7 149.9 314.4 150.3C314.5 150.3 314.5 150.3 314.4 150.2C314.6 149.7 314.8 149.2 315 148.7C316.9 144.9 319.2 141.2 321.8 137.8C322.5 137 318.2 134.7 317.3 135.8Z" fill="white"/>
</g>
<mask id="mask41_201_696" style="mask-type:luminance" maskUnits="userSpaceOnUse" x="51" y="51" width="398" height="398">
<path d="M250 448.5C359.629 448.5 448.5 359.629 448.5 250C448.5 140.371 359.629 51.5 250 51.5C140.371 51.5 51.5 140.371 51.5 250C51.5 359.629 140.371 448.5 250 448.5Z" fill="white"/>
</mask>
<g mask="url(#mask41_201_696)">
<path d="M238.5 156.2C239.4 159.6 240.6 162.9 242.1 166.1C243.6 169.3 245.4 172.6 247.8 175.3C249 176.6 250.1 177.4 251.6 176.1C253 174.8 254.4 173.5 255.8 172.2C258.6 169.6 261.4 167 264.3 164.4C265.1 163.7 261.9 159.9 261.3 160.4C259 162.5 256.7 164.6 254.5 166.7C253.4 167.8 252.2 168.8 251.1 169.9C250.6 170.4 250 170.9 249.5 171.4C249.2 171.7 249 171.9 248.7 172.2L247.8 172.8C247.7 173 248.5 174.1 248 173.4C247.8 173.1 247.6 172.8 247.4 172.6C247.1 172.1 246.8 171.6 246.4 171.1C245.7 169.9 245.1 168.7 244.5 167.5C243.3 164.9 242.3 162.2 241.6 159.4C241.3 158.3 240.5 157.3 239.7 156.5C239.5 156.1 238.2 155.1 238.5 156.2Z" fill="white"/>
</g>
<mask id="mask42_201_696" style="mask-type:luminance" maskUnits="userSpaceOnUse" x="51" y="51" width="398" height="398">
<path d="M250 448.5C359.629 448.5 448.5 359.629 448.5 250C448.5 140.371 359.629 51.5 250 51.5C140.371 51.5 51.5 140.371 51.5 250C51.5 359.629 140.371 448.5 250 448.5Z" fill="white"/>
</mask>
<g mask="url(#mask42_201_696)">
<path d="M274.4 318C278.6 312.5 282.8 306.9 287 301.4C287.5 300.7 288 300.1 288.5 299.4C288.7 299.1 289 298.7 289.2 298.4C289.3 298.2 289.4 298.1 289.6 298C290.2 297.5 289.7 297.1 288 296.8C288.2 297.4 289.1 298.2 289.4 298.7C289.9 299.4 290.4 300.1 291 300.8C293 303.5 294.9 306.2 296.8 309C297.4 310 298.4 310.9 299.6 311.2C300.5 311.4 301.1 310.9 300.5 310C298.3 306.7 296.1 303.5 293.7 300.3C292.3 298.4 288.2 291.9 285.4 295.2C282.8 298.3 280.5 301.7 278 304.9C275.5 308.2 273 311.6 270.4 314.9C269.6 316.1 273.5 319.2 274.4 318Z" fill="white"/>
</g>
<mask id="mask43_201_696" style="mask-type:luminance" maskUnits="userSpaceOnUse" x="51" y="51" width="398" height="398">
<path d="M250 448.5C359.629 448.5 448.5 359.629 448.5 250C448.5 140.371 359.629 51.5 250 51.5C140.371 51.5 51.5 140.371 51.5 250C51.5 359.629 140.371 448.5 250 448.5Z" fill="white"/>
</mask>
<g mask="url(#mask43_201_696)">
<path d="M358.4 327.1C356.2 320.6 354.4 313.9 353 307.2C352.9 307.4 352.8 307.5 352.8 307.7C359.8 308.8 366.8 310.6 373.4 313.1C374.1 313.4 373 311.3 373 311.2C372.5 310.4 371.8 309.3 370.8 309C364.1 306.5 357.2 304.7 350.2 303.6C349.9 303.6 349.9 303.9 350 304.1C351.4 310.8 353.3 317.5 355.4 324C355.8 325.1 356.4 326.1 357.3 326.9C357.4 327.1 358.7 328.2 358.4 327.1Z" fill="white"/>
</g>
<mask id="mask44_201_696" style="mask-type:luminance" maskUnits="userSpaceOnUse" x="51" y="51" width="398" height="398">
<path d="M250 448.5C359.629 448.5 448.5 359.629 448.5 250C448.5 140.371 359.629 51.5 250 51.5C140.371 51.5 51.5 140.371 51.5 250C51.5 359.629 140.371 448.5 250 448.5Z" fill="white"/>
</mask>
<g mask="url(#mask44_201_696)">
<path d="M133.4 322.7C143.7 322.7 154 321.5 164.1 319C163 317.8 161.8 316.6 160.7 315.4C159.2 322.6 151.3 326.1 149.5 333.1C149.3 333.8 150.4 334.8 150.8 335.3C150.9 335.4 152.8 337.1 152.8 336.8C154.6 329.6 162.6 326.1 164.1 318.8C164.2 318.2 162.8 316.9 162.5 316.5C162.1 316.1 161.3 315.1 160.7 315.2C150.8 317.6 140.6 318.9 130.3 318.8C129.7 318.8 130.9 320.3 131.1 320.5C131.5 321.1 132.6 322.7 133.4 322.7Z" fill="white"/>
</g>
<mask id="mask45_201_696" style="mask-type:luminance" maskUnits="userSpaceOnUse" x="51" y="51" width="398" height="398">
<path d="M250 448.5C359.629 448.5 448.5 359.629 448.5 250C448.5 140.371 359.629 51.5 250 51.5C140.371 51.5 51.5 140.371 51.5 250C51.5 359.629 140.371 448.5 250 448.5Z" fill="white"/>
</mask>
<g mask="url(#mask45_201_696)">
<path d="M128.8 176.2C137.3 177.7 145.8 178.4 154.4 178.4C155 178.4 158.8 176.4 158.5 175.7C155.5 168.9 152 162.3 148 156C147.7 155.5 143.4 158.1 143.8 158.7C147.8 165 151.3 171.6 154.3 178.4C155.7 177.5 157 176.6 158.4 175.7C149.8 175.7 141.2 175 132.8 173.5C132 173.4 130.7 174.5 130 174.9C129.8 175 128.3 176.2 128.8 176.2Z" fill="white"/>
</g>
<mask id="mask46_201_696" style="mask-type:luminance" maskUnits="userSpaceOnUse" x="51" y="51" width="398" height="398">
<path d="M250 448.5C359.629 448.5 448.5 359.629 448.5 250C448.5 140.371 359.629 51.5 250 51.5C140.371 51.5 51.5 140.371 51.5 250C51.5 359.629 140.371 448.5 250 448.5Z" fill="white"/>
</mask>
<g mask="url(#mask46_201_696)">
<path d="M274.5 434.9C276.8 432.7 279 430.4 281.4 428.3C281.5 428.2 281.6 428.1 281.5 428.2C280.8 428.1 280.1 428.1 279.4 428C279.5 428 279.5 428.1 279.6 428.1C279.6 428.2 280 428.5 280.1 428.7C280.6 429.3 281.2 429.9 281.7 430.6C282.8 431.9 283.9 433.2 285 434.4C285.8 435.3 287.2 435.7 288.3 435.4C289.1 435.2 290.3 434.3 289.5 433.4C288.2 431.9 286.9 430.3 285.6 428.8C284.9 428 284.3 427.2 283.6 426.5C282.7 425.6 281.3 425.1 280 425.2C277.8 425.3 276.4 427.1 275 428.5C273.5 429.9 272 431.3 270.6 432.8C268.5 434.6 273.1 436.3 274.5 434.9Z" fill="white"/>
</g>
</svg>
