<svg width="500" height="500" viewBox="0 0 500 500" fill="none" xmlns="http://www.w3.org/2000/svg">
<mask id="mask0_201_722" style="mask-type:luminance" maskUnits="userSpaceOnUse" x="51" y="51" width="398" height="398">
<path d="M250 448.5C359.629 448.5 448.5 359.629 448.5 250C448.5 140.371 359.629 51.5 250 51.5C140.371 51.5 51.5 140.371 51.5 250C51.5 359.629 140.371 448.5 250 448.5Z" fill="white"/>
</mask>
<g mask="url(#mask0_201_722)">
<path d="M133.3 80.1998C145.3 72.0998 159.7 68.6998 174.1 68.2998C189.7 67.8998 205 70.8998 220.1 74.6998C236.3 78.7998 252.4 83.7998 269 86.0998C277.4 87.2998 285.9 87.6998 294.3 86.4998C301.5 85.4998 308.4 83.2998 315 80.3998C328.6 74.3998 340.6 65.4998 352.1 56.3998C353.5 55.2998 355 54.0998 356.4 52.9998C358.3 51.4998 354.4 48.3998 352.8 49.6998C341.2 58.8998 329.5 68.0998 316.2 74.7998C309.8 77.9998 303 80.5998 296 82.0998C288 83.7998 279.8 83.7998 271.6 82.9998C255 81.1998 238.8 76.0998 222.6 71.9998C207.4 68.0998 191.8 64.6998 176 64.5998C161.6 64.4998 146.9 67.0998 134.2 74.1998C132.6 75.0998 131.1 75.9998 129.6 76.9998C127.8 78.0998 131.6 81.2998 133.3 80.1998Z" fill="white"/>
</g>
<mask id="mask1_201_722" style="mask-type:luminance" maskUnits="userSpaceOnUse" x="51" y="51" width="398" height="398">
<path d="M250 448.5C359.629 448.5 448.5 359.629 448.5 250C448.5 140.371 359.629 51.5 250 51.5C140.371 51.5 51.5 140.371 51.5 250C51.5 359.629 140.371 448.5 250 448.5Z" fill="white"/>
</mask>
<g mask="url(#mask1_201_722)">
<path d="M191.4 48.0001C210.8 46.3001 231.2 44.6001 249.3 53.0001C258 57.0001 266 62.4001 275.5 64.3001C285.6 66.3001 296.2 64.4001 306.2 62.9001C316.3 61.4001 326.5 58.9001 334.7 52.5001C335.6 51.8001 335.5 50.6001 334.6 49.9001C333.6 49.2001 332 49.3001 331.1 50.0001C324.2 55.4001 315.5 57.6001 307 59.0001C302.4 59.8001 297.8 60.4001 293.2 60.9001C288.1 61.4001 283 61.7001 277.9 60.9001C268.7 59.4001 260.8 53.9001 252.5 50.0001C243.7 45.8001 234.2 43.8001 224.5 43.1001C213.4 42.4001 202.3 43.2001 191.3 44.2001C190.3 44.3001 188.8 44.8001 188.9 46.1001C188.8 47.5001 190.4 48.1001 191.4 48.0001Z" fill="white"/>
</g>
<mask id="mask2_201_722" style="mask-type:luminance" maskUnits="userSpaceOnUse" x="51" y="51" width="398" height="398">
<path d="M250 448.5C359.629 448.5 448.5 359.629 448.5 250C448.5 140.371 359.629 51.5 250 51.5C140.371 51.5 51.5 140.371 51.5 250C51.5 359.629 140.371 448.5 250 448.5Z" fill="white"/>
</mask>
<g mask="url(#mask2_201_722)">
<path d="M108.7 100.8C123.6 91.0001 141.2 85.6001 159 85.0001C167.8 84.7001 176.7 85.6001 185.3 87.8001C194.4 90.1001 203 93.8001 211.5 97.8001C220.2 101.9 228.8 106.3 237.8 109.9C247 113.7 256.5 116.3 266.3 117.7C276.4 119.1 286.8 119.6 297 119.2C306.8 118.9 316.7 117.5 325.8 113.7C342.1 106.9 354.3 93.6001 365.4 80.3001C366.8 78.6001 368.2 76.9001 369.6 75.3001C370.3 74.4001 368.9 73.0001 368.2 72.6001C367.2 72.1001 366 71.9001 365.2 72.9001C354.4 86.1001 342.9 100.1 327.4 108.1C318.8 112.5 309.5 114.5 299.9 115.2C289.8 115.9 279.5 115.6 269.4 114.5C259.5 113.4 250 111.1 240.7 107.5C231.9 104.1 223.5 99.8001 215 95.8001C206.4 91.7001 197.6 87.8001 188.5 85.1001C179.8 82.6001 170.9 81.3001 161.9 81.2001C144.1 81.0001 126.3 85.5001 110.7 94.2001C108.8 95.3001 106.9 96.4001 105 97.7001C103 99.0001 106.9 102 108.7 100.8Z" fill="white"/>
</g>
<mask id="mask3_201_722" style="mask-type:luminance" maskUnits="userSpaceOnUse" x="51" y="51" width="398" height="398">
<path d="M250 448.5C359.629 448.5 448.5 359.629 448.5 250C448.5 140.371 359.629 51.5 250 51.5C140.371 51.5 51.5 140.371 51.5 250C51.5 359.629 140.371 448.5 250 448.5Z" fill="white"/>
</mask>
<g mask="url(#mask3_201_722)">
<path d="M75.8 125.6C84 118.1 94.3 114.8 105.2 113.8C117.1 112.7 129.1 113.6 140.9 115.7C165 119.9 187.8 129.1 210.3 138.2C221.4 142.7 232.6 147.4 243.9 151.5C255.7 155.7 267.9 159.1 280.5 159.7C304.8 160.9 328.7 152.8 350.6 143.3C361.3 138.7 372 133.8 382.3 128.3C391.5 123.4 400.5 117.7 407.5 109.9C409.2 108 410.7 106.1 412.1 104C412 104.1 409.9 104.4 409.6 104.4C409 104.6 407.7 104.8 407.3 105.3C401.2 114.2 392.5 120.9 383.2 126.2C373.4 131.9 362.9 136.6 352.6 141.3C330.1 151.5 306.1 160.2 281 157.8C268.5 156.6 256.5 152.9 244.8 148.6C233.1 144.3 221.7 139.4 210.1 134.8C188 125.8 165.5 117.2 141.8 113.6C130.4 111.9 118.7 111.2 107.3 112.5C97 113.7 86.3 116.4 77.4 121.9C75.1 123.3 73 124.9 71.1 126.7C70.9 126.9 72.7 126.6 72.9 126.5C73.7 126.4 75.2 126.2 75.8 125.6Z" fill="white"/>
</g>
<mask id="mask4_201_722" style="mask-type:luminance" maskUnits="userSpaceOnUse" x="51" y="51" width="398" height="398">
<path d="M250 448.5C359.629 448.5 448.5 359.629 448.5 250C448.5 140.371 359.629 51.5 250 51.5C140.371 51.5 51.5 140.371 51.5 250C51.5 359.629 140.371 448.5 250 448.5Z" fill="white"/>
</mask>
<g mask="url(#mask4_201_722)">
<path d="M53.7999 155.6C74.6999 141.9 101 141.2 125 144.8C152.1 148.9 178.3 157.7 202.9 169.8C215.1 175.8 227.2 182.2 240.1 186.5C252.7 190.7 266 192.8 279.3 193C306 193.5 332.4 186.7 356.5 175.5C380.2 164.5 401.8 149.5 422.1 133.3C424.7 131.2 427.3 129.1 429.8 127C431.2 125.8 426.8 123.7 425.5 124.8C405.2 141.6 383.8 157.3 360.3 169.3C336.4 181.4 310.3 189.5 283.4 190.1C270.2 190.4 256.9 188.9 244.2 185.1C231 181.2 218.8 174.8 206.6 168.7C181.9 156.5 155.8 147.4 128.6 142.7C105.1 138.7 79.1999 138.1 57.2999 149C54.5999 150.3 52.0999 151.8 49.5999 153.5C48.6999 154.1 50.2999 155.3 50.6999 155.6C51.4999 156 52.7999 156.2 53.7999 155.6Z" fill="white"/>
</g>
<mask id="mask5_201_722" style="mask-type:luminance" maskUnits="userSpaceOnUse" x="51" y="51" width="398" height="398">
<path d="M250 448.5C359.629 448.5 448.5 359.629 448.5 250C448.5 140.371 359.629 51.5 250 51.5C140.371 51.5 51.5 140.371 51.5 250C51.5 359.629 140.371 448.5 250 448.5Z" fill="white"/>
</mask>
<g mask="url(#mask5_201_722)">
<path d="M55.1 197.3C62.9 187.8 75.4 185 87.2 184.4C101.6 183.6 116.4 185 130.7 187.3C145.8 189.8 160.7 193.7 175.1 199.1C189.4 204.4 202.8 211.4 216.8 217.3C231.1 223.4 245.8 227.5 261.3 229.2C275.8 230.8 290.4 230.5 304.9 229C331.2 226.2 357 218.8 380.8 207.4C404.7 196 426.6 180.6 445.3 161.8C447.6 159.5 449.9 157.1 452.1 154.6C454.3 152.2 450.9 150.3 449 152.4C431.2 171.9 409.9 188.2 386.4 200.4C362.9 212.6 337.4 220.7 311.1 224.2C296.8 226.1 282.3 226.6 267.9 225.5C252.4 224.3 237.4 220.7 222.9 214.8C208.7 209.1 195.2 201.9 180.9 196.4C166.7 190.9 152 186.8 137 184C122.4 181.3 107.4 179.8 92.6 180C80.8 180.2 68.1 182 58.3 189C55.9 190.7 53.7 192.7 51.8 195C50 197.6 53.3 199.5 55.1 197.3Z" fill="white"/>
</g>
<mask id="mask6_201_722" style="mask-type:luminance" maskUnits="userSpaceOnUse" x="51" y="51" width="398" height="398">
<path d="M250 448.5C359.629 448.5 448.5 359.629 448.5 250C448.5 140.371 359.629 51.5 250 51.5C140.371 51.5 51.5 140.371 51.5 250C51.5 359.629 140.371 448.5 250 448.5Z" fill="white"/>
</mask>
<g mask="url(#mask6_201_722)">
<path d="M27.3 230.1C58.9 220.7 92.3 217.6 125.1 221.1C157.4 224.5 187.6 235.7 218.2 245.8C233.2 250.8 248.4 255.4 264 258.3C280.1 261.3 296.3 262.1 312.6 260.8C329.6 259.4 346.4 256.1 363.1 252.6C379.4 249.2 395.7 245.4 411.6 240.2C439.9 231 467.4 217.1 487.9 195.1C490.3 192.5 492.6 189.8 494.8 187C495.8 185.7 492.5 182.1 491.8 183C473.5 206.3 447.5 222 420 232.3C404.3 238.2 388.1 242.4 371.8 246.1C355.1 249.8 338.4 253.3 321.4 255.5C304.9 257.6 288.2 258.1 271.6 255.8C255.9 253.7 240.6 249.5 225.5 244.8C195.2 235.2 165.5 223.3 133.9 218.5C101.5 213.6 68.2 215 36.5 222.8C32.6 223.8 28.7 224.8 24.8 226C23.2 226.3 25.9 230.5 27.3 230.1Z" fill="white"/>
</g>
<mask id="mask7_201_722" style="mask-type:luminance" maskUnits="userSpaceOnUse" x="51" y="51" width="398" height="398">
<path d="M250 448.5C359.629 448.5 448.5 359.629 448.5 250C448.5 140.371 359.629 51.5 250 51.5C140.371 51.5 51.5 140.371 51.5 250C51.5 359.629 140.371 448.5 250 448.5Z" fill="white"/>
</mask>
<g mask="url(#mask7_201_722)">
<path d="M47.1001 272.1C73.2001 263.1 101.4 263.3 128.4 267.3C157.1 271.5 185 279.9 213.4 285.7C241.6 291.5 270.3 294.9 299.1 295.8C313.7 296.3 328.5 296.2 343 294.5C357.2 292.8 371.2 289.2 384.8 284.8C409.4 276.8 433.9 266.7 454.9 251.4C457.5 249.5 460.1 247.5 462.6 245.4C462.7 245.3 459.2 242.1 458.3 242.8C438 259.5 413.9 270.7 389.2 279.3C375.9 283.9 362.4 288 348.5 290.4C334.2 292.9 319.7 293.6 305.2 293.4C276 293.1 246.8 290.1 218.2 284.7C189.8 279.4 162.1 271.1 133.6 266.1C107 261.4 79.2001 259.7 52.8001 266.5C49.5001 267.4 46.2001 268.3 43.0001 269.5C42.4001 269.7 44.0001 270.8 44.2001 270.9C44.9001 271.1 46.5001 272.3 47.1001 272.1Z" fill="white"/>
</g>
<mask id="mask8_201_722" style="mask-type:luminance" maskUnits="userSpaceOnUse" x="51" y="51" width="398" height="398">
<path d="M250 448.5C359.629 448.5 448.5 359.629 448.5 250C448.5 140.371 359.629 51.5 250 51.5C140.371 51.5 51.5 140.371 51.5 250C51.5 359.629 140.371 448.5 250 448.5Z" fill="white"/>
</mask>
<g mask="url(#mask8_201_722)">
<path d="M47.9999 313.7C77.7999 307 108.6 304.3 139.1 306C154.4 306.8 169.7 308.9 184.8 311.6C200 314.3 215.1 317.6 230.4 320C245.8 322.5 261.2 324 276.8 325.3C292.2 326.5 307.6 327.7 323.1 328.4C338.4 329.1 353.7 329 368.9 326.4C382.3 324.1 395.2 320 407.7 314.8C433 304.1 456 288.8 478.4 273.2C481.2 271.3 484 269.3 486.8 267.3C487.6 266.7 488.3 265.5 487.4 264.6C486.5 263.7 484.9 264.3 484.1 264.9C461.8 280.6 439.2 296.3 414.4 308C402.2 313.7 389.5 318.4 376.3 321.3C361.6 324.6 346.6 325.3 331.6 324.9C316.1 324.5 300.5 323.2 285 322C269.6 320.8 254.3 319.5 239 317.2C208.9 312.9 179.4 305.1 148.9 302.7C118.8 300.4 88.4999 302.1 58.8999 307.7C55.1999 308.4 51.4999 309.2 47.7999 310C45.0999 310.7 44.7999 314.4 47.9999 313.7Z" fill="white"/>
</g>
<mask id="mask9_201_722" style="mask-type:luminance" maskUnits="userSpaceOnUse" x="51" y="51" width="398" height="398">
<path d="M250 448.5C359.629 448.5 448.5 359.629 448.5 250C448.5 140.371 359.629 51.5 250 51.5C140.371 51.5 51.5 140.371 51.5 250C51.5 359.629 140.371 448.5 250 448.5Z" fill="white"/>
</mask>
<g mask="url(#mask9_201_722)">
<path d="M63.6001 358.1C89.3001 344.9 117.3 336.6 146 333.8C161.2 332.3 176.7 332.2 191.9 334.6C206.4 336.9 220.4 341.7 234.4 346.3C248.5 351 262.6 355.3 277.3 357.9C292.1 360.5 307.1 361.7 322.1 362.1C348.7 362.8 375.7 361.8 402 357.2C426.9 352.8 451.5 344.6 472.4 330.2C475 328.4 477.5 326.5 480 324.6C480.5 324.2 476.4 322.2 475.4 323C455.2 338.9 431 348.5 406 353.8C380.1 359.3 353.4 360.6 326.9 360.4C311.6 360.3 296.2 359.5 281 357.1C266.1 354.8 251.8 350.6 237.5 345.9C223.7 341.3 209.9 336.7 195.6 333.9C180.9 331.1 165.7 330.5 150.8 331.4C122.5 333.1 94.5001 340.1 68.6001 351.9C65.4001 353.4 62.2001 354.9 59.1001 356.5C58.4001 356.9 60.4001 357.7 60.6001 357.7C61.3001 358.1 62.8001 358.5 63.6001 358.1Z" fill="white"/>
</g>
<mask id="mask10_201_722" style="mask-type:luminance" maskUnits="userSpaceOnUse" x="51" y="51" width="398" height="398">
<path d="M250 448.5C359.629 448.5 448.5 359.629 448.5 250C448.5 140.371 359.629 51.5 250 51.5C140.371 51.5 51.5 140.371 51.5 250C51.5 359.629 140.371 448.5 250 448.5Z" fill="white"/>
</mask>
<g mask="url(#mask10_201_722)">
<path d="M86.4999 397.5C108.5 385.3 132.9 377.6 157.9 374.4C183.4 371.2 209.1 373 234 379.4C247.6 382.9 260.9 387.2 274.6 390.3C288 393.4 301.6 395.6 315.3 397.1C342.7 400.1 370.4 399.9 397.8 397.1C411.5 395.7 425.1 393.7 438.6 391.1C450.9 388.7 463.2 385.8 474.4 380.2C477.2 378.8 480 377.2 482.6 375.4C483.3 374.9 484.6 373.8 484 372.8C483.4 371.8 481.8 372.2 481.1 372.7C470.6 379.8 458.5 383.4 446.3 386.1C432.9 389 419.4 391.2 405.8 392.8C378.3 396 350.5 396.5 322.9 394C309.2 392.7 295.5 390.7 282 387.8C268.2 384.9 254.8 380.7 241.1 377C216.3 370.3 190.9 367.7 165.3 370.1C140.4 372.5 116 379.4 93.5999 390.4C90.6999 391.8 87.8999 393.3 85.0999 394.8C84.2999 395.2 83.1999 396.4 83.6999 397.4C84.1999 398.4 85.7999 397.9 86.4999 397.5Z" fill="white"/>
</g>
<mask id="mask11_201_722" style="mask-type:luminance" maskUnits="userSpaceOnUse" x="51" y="51" width="398" height="398">
<path d="M250 448.5C359.629 448.5 448.5 359.629 448.5 250C448.5 140.371 359.629 51.5 250 51.5C140.371 51.5 51.5 140.371 51.5 250C51.5 359.629 140.371 448.5 250 448.5Z" fill="white"/>
</mask>
<g mask="url(#mask11_201_722)">
<path d="M119.6 432.9C132.3 420.7 148.6 413.2 165.6 409.4C183.2 405.5 201.4 405.2 219.3 407.1C229.8 408.2 240.3 409.9 250.5 412.8C261 415.8 270.6 420.8 280.6 425.1C300.2 433.5 322 434.6 343.1 435.6C360.9 436.4 380.4 436 396 426.2C397.9 425 399.8 423.6 401.6 422.2C403.8 420.4 400.4 416.8 398.1 418.6C383.9 430.3 364.6 431.6 347 431.1C336.9 430.8 326.7 430.2 316.7 429.1C305.9 428 295.2 426.1 285.1 422.1C275 418.1 265.5 412.8 255.1 409.5C244.7 406.1 233.9 404.2 223 402.9C205.1 400.7 186.7 400.6 168.9 403.9C151.6 407.1 134.8 413.8 121.1 425C119.4 426.4 117.7 427.9 116.1 429.4C114 431.3 117.5 434.9 119.6 432.9Z" fill="white"/>
</g>
<mask id="mask12_201_722" style="mask-type:luminance" maskUnits="userSpaceOnUse" x="51" y="51" width="398" height="398">
<path d="M250 448.5C359.629 448.5 448.5 359.629 448.5 250C448.5 140.371 359.629 51.5 250 51.5C140.371 51.5 51.5 140.371 51.5 250C51.5 359.629 140.371 448.5 250 448.5Z" fill="white"/>
</mask>
<g mask="url(#mask12_201_722)">
<path d="M155.1 455.6C166.4 446.5 180.4 440.8 194.8 439.4C209 438 222.9 441.2 236.2 446C249.5 450.8 262.2 457.1 275.5 462C288.9 466.9 302.9 470.2 317.2 469.2C331.7 468.2 345.8 463.4 357.8 455.2C359.3 454.2 360.7 453.1 362.2 452C363.9 450.7 360.7 446.8 359 448.2C347.6 457.1 333.7 462.8 319.4 464.5C305.2 466.3 291.1 463.5 277.7 458.8C264.3 454.1 251.6 447.9 238.4 442.8C225.2 437.8 211.3 434.1 197.1 434.7C182.6 435.4 168.3 440.2 156.3 448.4C154.8 449.4 153.4 450.5 152 451.6C150.3 453.1 153.5 456.9 155.1 455.6Z" fill="white"/>
</g>
<mask id="mask13_201_722" style="mask-type:luminance" maskUnits="userSpaceOnUse" x="51" y="51" width="398" height="398">
<path d="M250 448.5C359.629 448.5 448.5 359.629 448.5 250C448.5 140.371 359.629 51.5 250 51.5C140.371 51.5 51.5 140.371 51.5 250C51.5 359.629 140.371 448.5 250 448.5Z" fill="white"/>
</mask>
<g mask="url(#mask13_201_722)">
<path d="M97.7 50.6999C104.6 62.8999 108.9 76.2999 111.4 90.0999C114 104.3 115.3 119.2 114 133.6C112.6 148.4 107.4 162.2 101.8 175.8C96.2 189.4 90.7 202.9 86.1 216.9C77.6 242.4 72 268.9 71.9 295.8C71.8 319.9 75.8 344 84 366.7C92 389.1 104.3 410 120.5 427.5C122.5 429.7 124.6 431.8 126.7 433.8C127.9 435 132.7 434.1 131 432.5C113.8 415.8 100.6 395.4 91.6 373.2C82.5 350.9 77.7 327 77 303C76.2 276.3 80.8 250 88.7 224.5C93 210.6 98.2 196.9 103.8 183.4C109.2 170.2 114.9 157 117.6 142.9C120.4 128.4 119.7 113.4 117.7 98.8C115.9 85.2 112.7 71.5999 107.1 59.0999C105.7 55.9999 104.2 52.9999 102.5 49.9999C101.6 48.4999 96.7 48.9999 97.7 50.6999Z" fill="white"/>
</g>
<mask id="mask14_201_722" style="mask-type:luminance" maskUnits="userSpaceOnUse" x="51" y="51" width="398" height="398">
<path d="M250 448.5C359.629 448.5 448.5 359.629 448.5 250C448.5 140.371 359.629 51.5 250 51.5C140.371 51.5 51.5 140.371 51.5 250C51.5 359.629 140.371 448.5 250 448.5Z" fill="white"/>
</mask>
<g mask="url(#mask14_201_722)">
<path d="M130.9 58.3999C145.2 81.6999 153.7 108.4 155.4 135.7C157.2 164 150.9 191.5 141.7 218.1C132.4 245.2 120.3 271.3 111.9 298.7C103.7 325.6 98.4999 354.5 103.6 382.6C106 396 110.9 408.7 117.7 420.5C124.5 432.4 133 443.3 141.6 454C143.8 456.6 145.9 459.3 148.1 461.9C148.7 462.6 150.2 462.7 151 462.9C151.2 462.9 153.1 463.1 152.8 462.8C135.3 441.6 117.4 419.7 110.3 392.6C103.1 365 106.7 335.9 114.1 308.8C121.6 281.1 133.5 254.9 143.3 228C153 201.5 160.7 174 160.4 145.6C160.1 118.7 153.2 91.7999 140.5 68.0999C138.9 65.0999 137.2 62.1999 135.4 59.2999C135 58.5999 133.2 58.4999 132.5 58.2999C132.5 58.2999 130.7 57.9999 130.9 58.3999Z" fill="white"/>
</g>
<mask id="mask15_201_722" style="mask-type:luminance" maskUnits="userSpaceOnUse" x="51" y="51" width="398" height="398">
<path d="M250 448.5C359.629 448.5 448.5 359.629 448.5 250C448.5 140.371 359.629 51.5 250 51.5C140.371 51.5 51.5 140.371 51.5 250C51.5 359.629 140.371 448.5 250 448.5Z" fill="white"/>
</mask>
<g mask="url(#mask15_201_722)">
<path d="M172.1 42.5002C186.4 67.6002 195.6 95.4002 199.5 124C203.4 152.7 202 182.1 195.2 210.2C191.8 224.3 187.1 238 181 251.1C174.3 265.7 165.8 279.3 158.9 293.8C145.3 322.6 141.6 354.8 146.9 386.1C152 416.1 165.3 444.4 183 468.9C185.2 471.9 187.5 474.9 189.8 477.9C191.5 480.1 195.1 478.6 193 476C174.1 452.3 159.6 424.8 152.9 395.1C145.9 364 147.9 330.8 160.6 301.4C167 286.6 175.5 273 182.6 258.6C189 245.7 194.1 232.2 197.8 218.3C205.3 190.6 207.6 161.4 204.7 132.8C201.8 104.4 193.9 76.4002 180.9 50.9002C179.3 47.7002 177.6 44.6002 175.8 41.5002C175.2 40.5002 174 39.5002 172.7 39.8002C171.8 40.3002 171.5 41.5002 172.1 42.5002Z" fill="white"/>
</g>
<mask id="mask16_201_722" style="mask-type:luminance" maskUnits="userSpaceOnUse" x="51" y="51" width="398" height="398">
<path d="M250 448.5C359.629 448.5 448.5 359.629 448.5 250C448.5 140.371 359.629 51.5 250 51.5C140.371 51.5 51.5 140.371 51.5 250C51.5 359.629 140.371 448.5 250 448.5Z" fill="white"/>
</mask>
<g mask="url(#mask16_201_722)">
<path d="M215.1 28.4999C231.7 53.6999 242.8 82.2999 248.1 112C253.4 141.7 252.9 172.5 246.2 201.9C238.8 234.7 222.7 264.5 210.3 295.5C203.9 311.5 198.5 328 195.9 345.1C193.7 359.8 193.8 374.7 196.2 389.4C200.9 417.6 214.3 444.3 234.1 465C236.6 467.6 239.2 470.1 241.9 472.5C244.4 474.7 245.9 471.2 243.9 469.4C222.4 450.2 207.6 424.2 201.6 396.1C198.5 381.7 197.7 366.7 199.5 352C201.5 335 206.6 318.5 212.7 302.5C224.7 271.2 241.2 241.5 249.4 208.8C256.6 179.8 257.9 149.5 253.6 120C249.3 90.3999 239.4 61.5999 224.1 35.7999C222.2 32.5999 220.2 29.3999 218.2 26.2999C217.6 25.3999 216.2 24.6999 215.3 25.3999C214 26.1999 214.6 27.6999 215.1 28.4999Z" fill="white"/>
</g>
<mask id="mask17_201_722" style="mask-type:luminance" maskUnits="userSpaceOnUse" x="51" y="51" width="398" height="398">
<path d="M250 448.5C359.629 448.5 448.5 359.629 448.5 250C448.5 140.371 359.629 51.5 250 51.5C140.371 51.5 51.5 140.371 51.5 250C51.5 359.629 140.371 448.5 250 448.5Z" fill="white"/>
</mask>
<g mask="url(#mask17_201_722)">
<path d="M261.7 34.2002C276.9 60.0002 286.4 89.0002 289.2 118.8C292.1 150.2 287.7 181.9 279.3 212.2C271 242.3 257.6 270.7 248.9 300.7C241.1 327.6 239.1 355.7 243.6 383.4C248 410.2 258.2 436.2 273.6 458.6C275.5 461.4 277.5 464.1 279.6 466.8C281.2 468.9 285.5 467.1 283.6 464.6C267 443 255.6 417.5 250.1 390.7C244.5 363.5 245.2 335.4 252.1 308.4C259.8 278.3 273.4 250.1 282.3 220.4C291.2 190.5 296.4 159.4 295 128.2C293.6 98.4002 285.7 69.0002 271.9 42.6002C270.2 39.3002 268.4 36.0002 266.5 32.8002C265 30.8002 260.2 31.7002 261.7 34.2002Z" fill="white"/>
</g>
<mask id="mask18_201_722" style="mask-type:luminance" maskUnits="userSpaceOnUse" x="51" y="51" width="398" height="398">
<path d="M250 448.5C359.629 448.5 448.5 359.629 448.5 250C448.5 140.371 359.629 51.5 250 51.5C140.371 51.5 51.5 140.371 51.5 250C51.5 359.629 140.371 448.5 250 448.5Z" fill="white"/>
</mask>
<g mask="url(#mask18_201_722)">
<path d="M308.3 45.7001C322.8 72.7001 328 103.8 327.2 134.2C326.3 166.6 318.6 198.4 308.3 229C303.1 244.5 297 259.7 291.4 275.1C286.2 289.4 282 304.1 280.4 319.3C277.4 347.6 282.2 376.7 293.9 402.6C305.2 427.7 323.3 451.6 347.9 464.8C350.9 466.4 353.9 467.8 357.1 469.1C358.1 469.5 358 468.2 357.8 467.6C357.5 466.6 356.7 465.3 355.7 464.9C329.6 454.5 310.2 431.6 298.2 406.9C285.8 381.4 280.7 352.5 283.4 324.3C284.8 309 288.9 294.3 294.2 279.8C299.8 264.5 305.8 249.5 311 234.1C321.1 204.2 328.9 173.2 330.3 141.5C331.6 111.9 327.3 81.7001 315 54.6001C313.5 51.3001 311.9 48.0001 310.1 44.8001C309.8 44.3001 308.7 42.7001 307.9 43.2001C307.1 43.5001 308.1 45.2001 308.3 45.7001Z" fill="white"/>
</g>
<mask id="mask19_201_722" style="mask-type:luminance" maskUnits="userSpaceOnUse" x="51" y="51" width="398" height="398">
<path d="M250 448.5C359.629 448.5 448.5 359.629 448.5 250C448.5 140.371 359.629 51.5 250 51.5C140.371 51.5 51.5 140.371 51.5 250C51.5 359.629 140.371 448.5 250 448.5Z" fill="white"/>
</mask>
<g mask="url(#mask19_201_722)">
<path d="M335.7 47.8002C353.2 67.0002 364.4 91.6002 367.9 117.3C369.7 130.6 369.4 144.1 367 157.3C364.3 172.3 359.4 186.9 354.9 201.4C350.3 216 345.4 230.6 338.9 244.6C332.7 258 325.4 270.9 321 285C312.7 311 312 339.4 318.5 365.9C324.6 390.5 337.2 416.4 358.3 431.4C360.9 433.2 363.6 434.9 366.4 436.3C367.2 436.7 368.6 436.5 369.5 436.4C369.7 436.4 371.6 436 371.2 435.7C347.9 423.7 333.6 398.6 326 374.4C317.8 348.4 316.9 320 323.5 293.5C327 279.4 333 266.5 339.5 253.5C346.3 239.8 351.9 225.8 356.7 211.2C361.5 196.7 366.2 182.1 369.8 167.3C373.1 153.8 374.8 140.1 373.9 126.2C372.3 100.4 362.9 75.1002 347 54.8002C345 52.3002 342.9 49.8002 340.8 47.4002C340.3 46.9002 338.9 47.1002 338.3 47.2002C337.9 47.2002 335.6 47.7002 335.7 47.8002Z" fill="white"/>
</g>
<mask id="mask20_201_722" style="mask-type:luminance" maskUnits="userSpaceOnUse" x="51" y="51" width="398" height="398">
<path d="M250 448.5C359.629 448.5 448.5 359.629 448.5 250C448.5 140.371 359.629 51.5 250 51.5C140.371 51.5 51.5 140.371 51.5 250C51.5 359.629 140.371 448.5 250 448.5Z" fill="white"/>
</mask>
<g mask="url(#mask20_201_722)">
<path d="M397.1 84.4002C405.1 108.3 403.5 134.1 397.8 158.4C392 183.2 381.8 206.6 372.6 230.3C368 242.1 363.6 254 360.1 266.1C356.5 278.6 354 291.4 352.5 304.3C351.7 311 351.2 317.7 350.8 324.5C350.4 331 350.3 337.6 351.6 344.1C353.9 355.7 360.4 366.3 366.9 376C379.3 394.3 395.7 409.9 414.5 421.5C416.8 422.9 419.2 424.3 421.7 425.7C424.2 427.1 426.9 423.6 424.1 422C404.9 411.4 388.1 396.7 375 379.1C368.2 370 361.8 360 358.1 349.2C353.9 336.8 355.6 323.2 356.8 310.4C358 297.4 360.2 284.5 363.6 271.8C366.8 259.7 371 247.8 375.5 236.1C384.4 212.7 394.7 189.6 401.1 165.3C407.4 141.5 410.2 116.2 404.4 92.0002C403.7 89.0002 402.8 86.0002 401.8 83.1002C401 80.6002 396.2 81.7002 397.1 84.4002Z" fill="white"/>
</g>
<mask id="mask21_201_722" style="mask-type:luminance" maskUnits="userSpaceOnUse" x="51" y="51" width="398" height="398">
<path d="M250 448.5C359.629 448.5 448.5 359.629 448.5 250C448.5 140.371 359.629 51.5 250 51.5C140.371 51.5 51.5 140.371 51.5 250C51.5 359.629 140.371 448.5 250 448.5Z" fill="white"/>
</mask>
<g mask="url(#mask21_201_722)">
<path d="M428.2 111.6C431.3 131.1 429.9 151 425.8 170.3C421.6 189.9 414.9 208.8 407.2 227.3C399.8 245.3 391 263.1 387.6 282.4C384.4 300.1 386.6 318.1 393.2 334.8C399.7 351.4 409.8 366.4 421.6 379.6C423.1 381.2 424.6 382.9 426.1 384.5C428.1 386.6 431.7 383.9 429.5 381.6C417.5 369.1 407 354.7 400 338.8C393 322.9 389.5 305.4 391.8 288.1C394.4 268.8 402.7 251 410.2 233.3C417.9 215.1 424.8 196.5 429.4 177.3C433.9 158.3 436.2 138.5 434.1 119C433.8 116.6 433.5 114.2 433.1 111.8C432.9 110.5 431.8 109.6 430.5 109.6C429.4 109.5 428 110.3 428.2 111.6Z" fill="white"/>
</g>
<mask id="mask22_201_722" style="mask-type:luminance" maskUnits="userSpaceOnUse" x="51" y="51" width="398" height="398">
<path d="M250 448.5C359.629 448.5 448.5 359.629 448.5 250C448.5 140.371 359.629 51.5 250 51.5C140.371 51.5 51.5 140.371 51.5 250C51.5 359.629 140.371 448.5 250 448.5Z" fill="white"/>
</mask>
<g mask="url(#mask22_201_722)">
<path d="M444.3 147.7C447 163.8 445.7 180.1 442.4 196C439.1 212.1 434 227.8 429 243.4C426.5 251.2 424.1 259 422.5 267C420.9 274.8 420.3 282.7 420.9 290.6C422 306.2 427.4 321.3 434.7 335C442.1 349 451.6 361.8 461.1 374.4C462.3 376 463.5 377.6 464.8 379.2C465.9 380.6 470.5 378.7 469.2 377.1C459.6 364.6 449.9 352 442 338.2C434.2 324.7 428.2 309.9 426.2 294.3C425.2 286.5 425.3 278.6 426.5 270.9C427.8 262.8 430 255 432.5 247.2C437.4 231.6 442.6 216.1 446.3 200.1C449.9 184.4 451.8 168.3 450 152.3C449.8 150.3 449.5 148.2 449.1 146.2C448.8 144.5 444 145.8 444.3 147.7Z" fill="white"/>
</g>
</svg>
