<svg width="500" height="500" viewBox="0 0 500 500" fill="none" xmlns="http://www.w3.org/2000/svg">
<g clip-path="url(#clip0_201_694)">
<path d="M174.4 87.9C149.1 95.2 126 109.2 107.8 128.2C102.7 133.5 98.0002 139.3 93.7002 145.3C93.4002 145.7 93.7002 147.3 93.7002 147.8C93.7002 148.4 93.7002 149 93.7002 149.6C93.7002 149.7 93.8002 150.2 93.7002 150.3C108.9 128.8 129.8 111.5 153.7 100.6C160.4 97.5 167.4 95 174.5 92.9C174.6 92.9 174.5 90.6 174.5 90.4C174.4 90.2 174.3 88 174.4 87.9Z" fill="white"/>
<path d="M81.9001 169C73.6001 187 69.0001 206.1 67.2001 225.8C66.7001 231.4 66.4001 237.1 66.1001 242.8C66.1001 243.8 66.1001 244.9 66.1001 245.9C66.1001 246.4 66.1001 246.9 66.1001 247.4C66.1001 247.4 66.1001 247.9 66.1001 247.7C66.6001 237.5 67.3001 227.2 68.9001 217.1C70.4001 207.6 72.7001 198.2 75.9001 189.1C77.7001 184 79.7001 179 82.0001 174.1C82.3001 173.5 82.0001 172.2 82.0001 171.6C82.0001 171 82.0001 170.4 82.0001 169.8C81.9001 169.6 81.8001 169.2 81.9001 169Z" fill="white"/>
<path d="M67.6 271.1C68.8 291.5 73.3 311.7 80.8 330.8C83 336.2 85.4 341.6 88 346.8C88 346.7 88 346.1 88 346.1C88 345.5 88 344.9 88 344.3C88 343.7 88 343.1 88 342.5C88 342.3 88.1 341.9 88 341.8C78.8 323.6 72.5 304 69.4 283.9C68.5 278.1 67.9 272.2 67.5 266.3C67.5 266 67.5 266.7 67.5 266.6C67.5 267.1 67.5 267.6 67.5 268.1C67.5 269 67.5 270.1 67.6 271.1Z" fill="white"/>
<path d="M100 364.4C106.9 371.8 113.8 379.2 120.7 386.6C124.2 390.3 127.6 394.1 131.1 397.8C134.3 401.2 137.5 404.4 141.3 407.1C145.6 410.1 150.2 412.5 154.9 414.8C154.8 414.7 154.9 412.5 154.9 412.3C154.9 412 155.1 409.9 154.9 409.8C150.8 407.7 146.8 405.7 143 403.2C139.1 400.6 135.6 397.5 132.4 394.2C125.5 387 118.7 379.6 111.9 372.2C107.9 368 104 363.7 100 359.5C100.2 359.8 100 361.6 100 362C100 362.6 100 363.2 100 363.8C100 363.8 99.9 364.3 100 364.4Z" fill="white"/>
<path d="M191.7 431.1C214.6 436.3 237.7 441.5 261.3 441.9C282.7 442.3 303.9 438.2 323.3 429.1C333.6 424.2 343.3 418.1 352.1 410.8C352.4 410.6 352.1 408.7 352.1 408.3C352.1 408 351.8 406 352.1 405.8C336.4 418.8 317.8 428.2 298.1 433.1C275.9 438.5 253 437.6 230.6 434C217.5 431.9 204.6 429 191.8 426.1C192 426.2 191.3 431 191.7 431.1Z" fill="white"/>
<path d="M380 389.1C388.1 379.2 396.3 369.4 404.4 359.5C408.2 354.8 411.8 350 414.6 344.7C417.5 339.3 419.5 333.5 421.5 327.7C423.8 320.9 426.1 314 428.5 307.1C428.7 306.4 428.5 305.3 428.5 304.6C428.5 303.9 428.2 302.8 428.5 302.1C426.4 308.2 424.4 314.3 422.3 320.4C420.3 326.2 418.4 332 415.7 337.6C410.3 348.7 401.7 357.9 393.9 367.3C389.3 372.9 384.7 378.5 380.1 384.1C379.8 384.4 380.1 386.1 380.1 386.6C380.1 387.2 380.1 387.8 380.1 388.4C380 388.5 380.1 389 380 389.1Z" fill="white"/>
<path d="M431.5 274.8C433.9 261.5 434.4 247.9 433.6 234.4C432.7 221.1 430.1 207.9 425.7 195.3C423.2 188.2 420.2 181.3 416.6 174.6C416.6 174.7 416.6 175.3 416.6 175.3C416.6 175.9 416.6 176.5 416.6 177.1C416.6 177.7 416.6 178.3 416.6 178.9C416.6 179.1 416.5 179.5 416.6 179.6C422.3 190.3 426.7 201.8 429.6 213.6C431 219.4 432.1 225.2 432.8 231.1C433.2 234.2 433.5 237.4 433.6 240.5C433.7 241.9 433.7 243.4 433.8 244.8C433.8 245.2 433.8 245.7 433.8 246.1C433.8 247 433.8 244.8 433.8 246.3C433.8 247.2 433.8 248.2 433.7 249.1C433.4 256 432.7 262.9 431.4 269.7C431.2 271.4 431.8 273.2 431.5 274.8Z" fill="white"/>
<path d="M402.4 154C395.8 131.4 378.9 114.1 361.1 99.7C355.7 95.4 350.2 91.2 344.7 87.1C344.9 87.2 344.7 89.3 344.7 89.6C344.7 89.9 344.4 91.9 344.7 92.1C363.5 106.2 383 120.9 395 141.7C398.1 147.2 400.7 152.9 402.5 159C402.3 158.3 402.5 157.2 402.5 156.5C402.4 155.7 402.6 154.7 402.4 154Z" fill="white"/>
<path d="M317 77.7C296.8 69.6 275.7 63.7 254.2 60.3C248.2 59.3 242.1 58.6 236 58C236.1 58 235.8 63 236 63C257.7 65 279.1 69.5 299.7 76.3C305.5 78.2 311.2 80.3 316.9 82.6C316.8 82.6 316.9 80.3 316.9 80.1C317 80 317.2 77.8 317 77.7Z" fill="white"/>
<path d="M198 64.7C187.5 66 177 68.3 166.9 71.7C161.9 73.3 157 75.2 152.2 77.3C148.1 79.1 144.1 81 140.4 83.5C136.4 86.3 132.9 89.8 130.8 94.2C130.5 94.8 130.8 96.1 130.8 96.7C130.8 97.3 130.8 97.9 130.8 98.5C130.8 98.7 130.9 99.1 130.8 99.2C134.6 91.1 142.7 86.5 150.5 83C160 78.7 170 75.3 180.2 72.9C186 71.5 192 70.5 197.9 69.7C198.2 69.6 197.8 64.7 198 64.7Z" fill="white"/>
<path d="M191.1 90.5C208.4 88.9 225.9 88.6 243.3 89.5C243.2 89.5 243.4 84.5 243.3 84.5C225.9 83.5 208.5 83.8 191.1 85.5C191 85.5 191.3 90.5 191.1 90.5Z" fill="white"/>
<path d="M271 91.3C295.9 92.8 320.1 101.4 340.5 115.8C346.2 119.9 351.6 124.4 356.7 129.3C356.5 129.1 356.7 127.2 356.7 126.8C356.7 126.2 356.7 125.6 356.7 125C356.7 124.9 356.8 124.3 356.7 124.3C338.9 106.9 316.2 94.7 291.9 89.3C285 87.8 278.1 86.8 271.1 86.4C271 86.3 270.8 91.2 271 91.3Z" fill="white"/>
<path d="M370.7 142.6C383.6 162.5 396.6 182.7 404.3 205.2C406.4 211.4 408.1 217.8 409.3 224.3C409 222.7 409.6 220.9 409.3 219.3C405.1 195.8 393.9 174.5 381.4 154.4C377.9 148.7 374.3 143.1 370.7 137.5C370.7 137.6 370.7 138.2 370.7 138.2C370.7 138.8 370.7 139.4 370.7 140C370.7 140.6 370.7 141.2 370.7 141.8C370.7 142 370.6 142.4 370.7 142.6Z" fill="white"/>
<path d="M411.5 247.7C412.4 258.1 412.2 267.6 411 278.1C409.9 288 408 297.7 405.4 307.3C405.2 308 405.4 309.1 405.4 309.8C405.4 310.5 405.6 311.6 405.4 312.3C410.3 294.4 412.3 276.2 412.1 257.7C412.1 252.7 411.9 247.7 411.4 242.7C411.7 244.4 411.4 246.1 411.5 247.7Z" fill="white"/>
<path d="M399.4 328.8C391.3 344.6 382.9 360.7 369.6 372.9C369.3 373.1 369.6 375 369.6 375.4C369.6 376 369.6 376.6 369.6 377.2C369.6 377.3 369.7 377.9 369.6 377.9C382.9 365.8 391.3 349.6 399.4 333.8C399.7 333.3 399.4 331.9 399.4 331.3C399.4 330.7 399.4 330.1 399.4 329.5C399.5 329.3 399.4 328.9 399.4 328.8Z" fill="white"/>
<path d="M351.4 388.9C330.9 399.1 309.2 406.8 286.9 411.7C280.6 413.1 274.3 414.3 267.9 415.2C267.6 415.2 268.1 420.2 267.9 420.2C290.5 416.8 312.7 410.6 333.9 401.9C339.9 399.4 345.7 396.7 351.5 393.9C351.7 393.8 351.5 391.7 351.5 391.4C351.4 391.2 351.2 389 351.4 388.9Z" fill="white"/>
<path d="M237.7 413.3C216.9 411.1 196.5 405.4 177.6 396.5C172.2 394 167 391.2 161.9 388.1C162.1 388.2 161.9 390.3 161.9 390.6C161.9 390.9 161.7 393 161.9 393.1C179.9 403.8 199.6 411.4 220.1 415.6C225.9 416.8 231.8 417.7 237.7 418.3C237.5 418.3 237.9 413.4 237.7 413.3Z" fill="white"/>
<path d="M143.6 375.1C124.2 362.6 108.3 345 97.8999 324.5C94.8999 318.7 92.3999 312.6 90.3999 306.4C90.5999 307 90.3999 308.2 90.3999 308.9C90.3999 309.6 90.1999 310.7 90.3999 311.4C97.5999 333.3 110.8 353.1 128 368.3C132.9 372.6 138.1 376.6 143.6 380.1C143.4 380 143.6 377.9 143.6 377.6C143.6 377.3 143.8 375.3 143.6 375.1Z" fill="white"/>
<path d="M86.9001 289.1C85.7001 277.2 85.3001 265.3 85.9001 253.4C86.4001 241.6 87.7001 229.9 89.7001 218.3C90.8001 211.7 92.2001 205.1 93.8001 198.6C94.0001 197.9 93.8001 196.9 93.8001 196.1C93.8001 195.3 93.6001 194.3 93.8001 193.6C87.5001 219.4 85.0001 245.8 85.6001 272.3C85.8001 279.6 86.2001 286.9 86.9001 294.1C86.7001 292.4 87.0001 290.7 86.9001 289.1Z" fill="white"/>
<path d="M102.9 178.3C109 160.2 119.9 143.7 134.1 131C138.1 127.4 142.4 124.1 146.9 121.1C147.1 121 146.9 118.9 146.9 118.6C146.9 118.3 146.7 116.2 146.9 116.1C130.9 126.7 117.9 141.4 109.2 158.4C106.7 163.2 104.7 168.2 102.9 173.3C102.7 174 102.9 175.1 102.9 175.8C102.9 176.5 103.1 177.6 102.9 178.3Z" fill="white"/>
<path d="M178.1 113.6C202.7 107.5 228.3 105.4 253.5 107.6C260.6 108.2 267.7 109.2 274.7 110.5C274.4 110.5 275 105.6 274.7 105.5C249.8 101 224.1 100.6 199 104.4C192 105.5 185 106.9 178 108.6C177.7 108.7 178.5 113.5 178.1 113.6Z" fill="white"/>
<path d="M300.5 118.3C310.7 122.8 320.9 127.4 331.1 131.9C335.7 134 340 136.2 343.6 139.8C347.4 143.5 350.7 147.8 354.2 151.8C358.2 156.6 362.1 161.4 366 166.2C366 166.2 366 165.4 366 165.5C366 164.9 366 164.3 366 163.7C366 163.1 366 162.5 366 161.9C366 161.8 366.1 161.3 366 161.2C359.3 152.8 352.5 144.2 345.2 136.3C341.7 132.6 337.8 129.9 333.2 127.7C328.2 125.4 323 123.2 318 120.9C312.2 118.3 306.4 115.7 300.6 113.2C300.7 113.3 300.6 115.5 300.6 115.7C300.5 116.1 300.3 118.2 300.5 118.3Z" fill="white"/>
<path d="M378 183.7C387.6 200.9 397.3 218.6 400.1 238.3C400.3 239.7 400.5 241.1 400.6 242.5C400.7 243.2 400.7 244 400.8 244.7C400.8 245.1 401.1 246.7 400.9 247C400.9 247 401 244.9 400.9 246C400.9 246.4 400.9 246.8 400.9 247.3C400.9 248.1 400.8 248.9 400.7 249.8C400.6 251.3 400.4 252.7 400.2 254.2C399.9 255.8 400.5 257.6 400.2 259.2C401 253.7 401.1 248.2 401 242.7C400.9 237.2 400.1 231.8 398.9 226.4C396.5 215.5 392.1 205.2 387 195.3C384.1 189.7 381.1 184.2 378 178.7C378 178.8 378 179.4 378 179.4C378 180 378 180.6 378 181.2C378 181.8 378 182.4 378 183C378 183.1 377.9 183.5 378 183.7Z" fill="white"/>
<path d="M402.3 281.4C400.2 299.9 393.2 317.8 382.2 332.8C379.1 337 375.7 341 372 344.8C371.7 345.1 372 346.9 372 347.3C372 347.9 372 348.5 372 349.1C372 349.2 372.1 349.8 372 349.8C385.1 336.5 394.6 319.9 399.4 301.9C400.8 296.8 401.7 291.7 402.3 286.4C402.5 284.7 402.1 283 402.3 281.4Z" fill="white"/>
<path d="M358 360.1C344.4 371.5 328.6 380.2 311.6 385.5C306.8 387 301.9 388.2 297 389.2C296.7 389.3 297.3 394.1 297 394.2C314.4 390.8 331.1 383.9 345.9 374.1C350.1 371.3 354.1 368.3 357.9 365.1C358.2 364.9 357.9 363 357.9 362.6C358 362.2 357.7 360.3 358 360.1Z" fill="white"/>
<path d="M270.6 393C249.7 395.9 227.9 396.1 207.5 389.9C201.7 388.1 196.2 385.9 190.8 383.1C190.9 383.2 190.8 385.4 190.8 385.6C190.8 385.9 190.6 388 190.8 388.1C209.7 398 231.3 400.8 252.4 399.8C258.5 399.5 264.5 398.9 270.6 398.1C270.9 398 270.4 393.1 270.6 393Z" fill="white"/>
<path d="M167.9 373.1C149.7 365.3 133.9 352.4 122.4 336.3C119.2 331.8 116.3 327 113.9 322C113.9 322.1 113.9 322.7 113.9 322.7C113.9 323.3 113.9 323.9 113.9 324.5C113.9 325.1 113.9 325.7 113.9 326.3C113.9 326.5 113.8 326.9 113.9 327C122.7 344.7 136.4 359.8 153.2 370.4C157.9 373.4 162.8 375.9 167.9 378.1C167.8 378.1 167.9 375.8 167.9 375.6C167.9 375.4 168.1 373.2 167.9 373.1Z" fill="white"/>
<path d="M106 293.8C104.1 280.3 103.3 266.8 104.2 253.2C105 239.7 107.1 226.2 110.4 213C112.2 205.6 114.5 198.3 117.1 191.2C117.3 190.5 117.1 189.4 117.1 188.7C117.1 188 116.8 186.9 117.1 186.2C112 200.2 108.3 214.7 106.2 229.5C104 244.2 103.4 259.1 103.9 273.9C104.2 282.2 104.9 290.5 106.1 298.8C105.8 297.2 106.2 295.4 106 293.8Z" fill="white"/>
<path d="M125.7 177.6C139.2 158.4 154.4 137.4 178 130.4C184.9 128.3 192.2 128 199 125.8C199.1 125.8 199 123.5 199 123.3C199 123.1 198.9 120.8 199 120.8C192.9 122.8 186.4 123.2 180.2 124.8C174.7 126.2 169.4 128.5 164.5 131.4C154.3 137.5 145.9 146 138.5 155.3C134 160.9 129.8 166.8 125.7 172.7C125.4 173.1 125.7 174.7 125.7 175.2C125.7 175.8 125.7 176.4 125.7 177C125.7 177 125.8 177.5 125.7 177.6Z" fill="white"/>
<path d="M223.5 125.6C250.3 124.1 278.5 124.8 302.7 137.9C308.8 141.2 314.4 145.2 319.4 150C319.2 149.8 319.4 147.9 319.4 147.5C319.4 146.9 319.4 146.3 319.4 145.7C319.4 145.6 319.5 145 319.4 145C300.3 126.8 273.4 120.8 247.8 120.1C239.7 119.9 231.6 120.2 223.5 120.6C223.3 120.6 223.5 125.6 223.5 125.6Z" fill="white"/>
<path d="M338.1 165.6C354.1 179.4 367.4 196.3 377 215.1C379.7 220.4 382.1 225.8 384.2 231.4C384 230.8 384.2 229.6 384.2 228.9C384.2 228.2 384.4 227.1 384.2 226.4C376.7 206.6 365.4 188.4 350.9 172.9C346.8 168.6 342.6 164.4 338.1 160.6C338.3 160.8 338.1 162.8 338.1 163.1C338.1 163.7 338.1 164.3 338.1 164.9C338 164.9 338 165.5 338.1 165.6Z" fill="white"/>
<path d="M386.3 248.2C386.8 253.1 387.2 258 387.5 263C387.8 268 387.7 272.2 387.1 277.4C386 286.9 382.8 295.7 378 303.9C375.3 308.5 372.2 312.9 369.2 317.3C368.9 317.7 369.2 319.3 369.2 319.8C369.2 320.4 369.2 321 369.2 321.6C369.2 321.7 369.3 322.2 369.2 322.3C375.4 313.4 381.6 304.4 384.8 293.9C387.9 283.5 388.1 272.4 387.7 261.6C387.5 255.5 387 249.3 386.4 243.2C386.4 244.9 386.1 246.6 386.3 248.2Z" fill="white"/>
<path d="M359.8 333.6C354.6 344.6 346.3 354.1 336 360.5C330.2 364.1 323.9 366.6 317.4 368.6C310.3 370.8 303 372.8 295.8 374.5C287.5 376.6 279 378.4 270.6 379.9C270.3 380 270.9 384.9 270.6 384.9C285.6 382.1 300.4 378.6 315 374.3C321.6 372.3 328.2 370 334.2 366.5C339.4 363.5 344.2 359.7 348.3 355.4C353 350.4 356.9 344.7 359.9 338.5C360.2 337.9 359.9 336.6 359.9 336C359.9 335.4 359.9 334.8 359.9 334.2C359.8 334.1 359.7 333.7 359.8 333.6Z" fill="white"/>
<path d="M238.2 379.1C212.6 380.1 185.6 376.7 164.6 360.8C159.3 356.8 154.6 352.1 150.6 346.8C150.6 346.9 150.6 347.6 150.6 347.5C150.6 348.1 150.6 348.7 150.6 349.3C150.6 349.9 150.6 350.5 150.6 351.1C150.6 351.3 150.5 351.7 150.6 351.8C165.5 372.1 190.4 381.4 214.8 383.7C222.6 384.4 230.4 384.5 238.2 384.2C238.3 384.1 238.2 379.1 238.2 379.1Z" fill="white"/>
<path d="M137.5 325.6C131.1 317.1 126.1 307.6 122.7 297.5C121 292.4 119.7 287.1 118.9 281.8C118.5 279.2 118.2 276.6 118 274C117.9 272.6 117.8 271.2 117.8 269.9C117.8 269.6 117.8 269.4 117.8 269.1C117.8 268.9 117.8 268.7 117.8 268.5C117.8 267.7 117.8 268 117.8 269.2C117.9 268.5 117.8 267.7 117.9 267C118.1 260.8 119 254.7 120.4 248.7C120.6 248 120.4 247 120.4 246.2C120.4 245.4 120.2 244.4 120.4 243.7C117.6 255.2 117.1 267.4 118.1 279.1C119.1 290.9 122.2 302.5 127.2 313.2C130.1 319.3 133.6 325.1 137.6 330.4C137.6 330.3 137.6 329.6 137.6 329.7C137.6 329.1 137.6 328.5 137.6 327.9C137.6 327.3 137.6 326.7 137.6 326.1C137.6 326.2 137.6 325.7 137.5 325.6Z" fill="white"/>
<path d="M125.4 223.7C127.2 212.3 131.5 201.5 137 191.4C139.7 186.3 142.7 181.4 145.8 176.5C148.7 172 151.6 167.4 155 163.2C158.6 158.8 162.9 154.9 168.2 152.9C168.4 152.8 168.2 150.6 168.2 150.4C168.2 150.2 168 147.9 168.2 147.9C158.3 151.6 152.4 161.2 147 169.7C140.7 179.4 134.8 189.4 130.5 200.2C128.1 206.2 126.4 212.4 125.4 218.7C125.2 220.4 125.7 222.1 125.4 223.7Z" fill="white"/>
<path d="M193.1 145.5C213.9 138.3 236.5 136.6 258.2 140.6C264.3 141.7 270.4 143.3 276.3 145.4C276.2 145.4 276.3 143.1 276.3 142.9C276.3 142.7 276.5 140.5 276.3 140.4C255.5 133.2 232.8 131.6 211.2 135.7C205.1 136.9 199 138.5 193.2 140.5C193.1 140.6 193.2 142.8 193.2 143C193 143.2 193.2 145.4 193.1 145.5Z" fill="white"/>
<path d="M295.5 151.7C310.9 159.8 325.2 169.9 338 181.7C341.6 185 345.1 188.5 348.5 192.1C348.3 191.8 348.5 190 348.5 189.6C348.5 189 348.5 188.4 348.5 187.8C348.5 187.7 348.6 187.2 348.5 187.1C336.6 174.4 323.1 163.3 308.3 154.1C304.1 151.5 299.8 149 295.5 146.7C295.6 146.8 295.5 149 295.5 149.2C295.5 149.4 295.3 151.5 295.5 151.7Z" fill="white"/>
<path d="M358.1 210.6C361.5 220 364.9 229.5 367.4 239.2C368.7 244 369.7 248.8 370.4 253.7C370.8 256.2 371.1 258.6 371.3 261.1C371.4 262.5 371.5 263.8 371.5 265.2C371.5 266.2 371.5 266.1 371.5 264.8C371.5 265.2 371.5 265.6 371.5 266C371.5 266.6 371.4 267.3 371.4 267.9C371.3 268.9 371.4 270 371.4 271C371.4 271.5 371.4 272 371.4 272.5C371.4 272.5 371.4 273 371.4 272.8C371.9 264 371.5 255.1 370 246.4C368.5 237.5 365.9 228.7 363.1 220.2C361.5 215.3 359.7 210.5 358 205.7C358.2 206.3 358 207.5 358 208.2C358 208.8 357.8 209.9 358.1 210.6Z" fill="white"/>
<path d="M369.6 287.5C361.1 305.3 350.6 322.8 335.6 335.9C331.4 339.6 326.9 342.8 322.1 345.6C321.9 345.7 322.1 347.8 322.1 348.1C322.1 348.4 322.3 350.5 322.1 350.6C339.4 340.6 352 324.5 361.7 307.4C364.5 302.5 367.1 297.5 369.5 292.4C369.8 291.8 369.5 290.5 369.5 289.9C369.5 289.3 369.5 288.7 369.5 288.1C369.6 288.1 369.5 287.7 369.6 287.5Z" fill="white"/>
<path d="M299.3 355.9C288.1 359.7 276.4 361.9 264.8 364C258.8 365.1 252.7 366.2 246.6 366.6C240.7 367 234.8 366.5 228.9 365.5C222.3 364.3 215.9 362.5 209.4 360.7C209.5 360.7 209.4 363 209.4 363.2C209.4 363.4 209.3 365.7 209.4 365.7C220.8 368.9 232.4 372.1 244.3 371.8C250.5 371.6 256.5 370.6 262.6 369.5C268.4 368.5 274.2 367.4 280 366.2C286.5 364.8 293 363.2 299.3 361.1C299.4 361.1 299.3 358.8 299.3 358.6C299.4 358.2 299.2 356 299.3 355.9Z" fill="white"/>
<path d="M183.5 351.5C178.8 348.7 174.1 345.9 169.8 342.5C166 339.5 162.4 336.3 159.1 332.8C152.5 325.7 147 317.6 142.9 308.8C140.6 303.8 138.7 298.7 137.3 293.4C137.5 294.1 137.3 295.2 137.3 295.9C137.3 296.7 137.1 297.6 137.3 298.4C142.2 317.2 153.3 334.2 168.4 346.5C173.1 350.3 178.3 353.5 183.5 356.6C183.3 356.5 183.5 354.4 183.5 354.1C183.5 353.8 183.7 351.7 183.5 351.5Z" fill="white"/>
<path d="M133.8 266.2C133.3 263.9 133 261.6 132.7 259.3C132.6 258.1 132.5 256.9 132.5 255.7C132.5 255.3 132.5 254.9 132.5 254.6C132.5 254.4 132.4 257.6 132.5 256.3C132.5 255.6 132.5 254.8 132.6 254.1C132.9 249.4 133.6 244.7 134.6 240.1C136.7 231 140 222.3 143.8 213.7C146 208.8 148.3 204 150.6 199.2C150.9 198.6 150.6 197.3 150.6 196.7C150.6 196.1 150.6 195.5 150.6 194.9C150.6 194.7 150.5 194.3 150.6 194.2C141.5 213 132.6 232.3 132.4 253.6C132.4 259.5 132.5 265.4 133.8 271.2C133.5 269.6 134.2 267.8 133.8 266.2Z" fill="white"/>
<path d="M162.2 180.1C178.9 166.5 197.9 154.4 219.7 151.8C225.9 151.1 232.1 151.2 238.2 152.2C238 152.2 238.5 147.3 238.2 147.2C216.3 143.5 194.7 152 176.8 164.1C171.8 167.5 166.9 171.2 162.2 175.1C161.9 175.3 162.2 177.3 162.2 177.6C162.1 178 162.4 179.9 162.2 180.1Z" fill="white"/>
<path d="M259.4 155.4C279.5 159.3 300.7 163.5 316.6 177.4C320.6 180.9 324 184.9 326.8 189.4C326.8 189.3 326.8 188.7 326.8 188.7C326.8 188.1 326.8 187.5 326.8 186.9C326.8 186.3 326.8 185.7 326.8 185.1C326.8 184.9 326.9 184.5 326.8 184.4C316.2 167.2 296.7 158.9 277.8 154.3C271.7 152.8 265.6 151.6 259.4 150.5C259.7 150.5 259.1 155.3 259.4 155.4Z" fill="white"/>
<path d="M336.1 200.3C338.9 205 341.7 209.6 344.5 214.3C347.2 218.9 350.1 223.4 352.5 228.2C354.6 232.5 356.2 237 357.3 241.6C357.8 243.8 358.2 246.1 358.5 248.4C358.7 249.7 358.8 250.9 358.8 252.2C358.8 252.8 358.8 253.3 358.9 253.9C359 255.3 358.9 252.8 358.9 252.8C358.8 253.3 358.9 253.8 358.8 254.3C358.5 259.7 357.6 265.1 355.9 270.3C355.7 271 355.9 272.1 355.9 272.8C355.9 273.5 356.1 274.6 355.9 275.3C357.5 270.3 358.4 265.2 358.7 260C359 254.7 359 249.2 358.4 243.9C357.8 238.6 356.5 233.4 354.6 228.5C352.5 223.1 349.6 218.2 346.6 213.3C343 207.4 339.5 201.4 335.9 195.5C335.9 195.6 335.9 196.2 335.9 196.2C335.9 196.8 335.9 197.4 335.9 198C335.9 198.6 335.9 199.2 335.9 199.8C336.1 199.7 336 200.1 336.1 200.3Z" fill="white"/>
<path d="M351 287.7C340.1 308.7 321.9 325.7 300.4 335.5C294.3 338.3 288 340.5 281.5 342.1C281.1 342.2 281.8 347 281.5 347.1C304.5 341.5 325.4 328 340.1 309.5C344.3 304.3 347.9 298.6 351 292.7C351.3 292.2 351 290.8 351 290.2C351 289.6 351 289 351 288.4C351 288.3 350.9 287.8 351 287.7Z" fill="white"/>
<path d="M251.7 343.6C246.5 345.3 241.1 345.5 235.8 345.6C230.3 345.7 224.8 345.7 219.3 345.5C209.5 345.1 199.5 343.5 190.7 338.7C186.2 336.3 182.1 333 178.9 329C178.9 329 178.9 329.8 178.9 329.7C178.9 330.3 178.9 330.9 178.9 331.5C178.9 332.1 178.9 332.7 178.9 333.3C178.9 333.5 178.8 333.9 178.9 334C191.8 350.5 214.6 350.8 233.6 350.6C239.7 350.5 245.8 350.4 251.7 348.6C251.8 348.6 251.7 346.3 251.7 346.1C251.8 345.9 251.6 343.7 251.7 343.6Z" fill="white"/>
<path d="M164.7 313.5C160.1 307 155.5 300.5 151.8 293.5C148 286.2 145.6 278.5 144.8 270.4C144.3 265.4 144.3 260.7 144.4 255.7C144.4 254.6 144.4 253.4 144.4 252.3C144.4 252.1 144.4 250.5 144.4 251.4C144.2 261.1 143.8 270.9 145.5 280.5C147.1 289.6 151.1 298 156 305.7C158.7 310.1 161.7 314.3 164.7 318.5C164.7 318.4 164.7 317.7 164.7 317.8C164.7 317.2 164.7 316.6 164.7 316C164.7 315.4 164.7 314.8 164.7 314.2C164.7 314.1 164.8 313.6 164.7 313.5Z" fill="white"/>
<path d="M151.3 233.1C153 223.9 157.2 215.6 161.9 207.6C166.1 200.5 170.2 193.1 175.8 187C178.9 183.7 182.4 180.9 186.6 179.2C186.8 179.1 186.6 176.9 186.6 176.7C186.6 176.5 186.4 174.3 186.6 174.2C179.2 177.4 173.9 183.7 169.5 190.3C164.6 197.6 160 205.3 156.3 213.2C154.1 217.9 152.3 222.9 151.4 228.1C151 229.7 151.6 231.5 151.3 233.1Z" fill="white"/>
<path d="M205.6 172.8C224.8 167.4 245.3 162.7 265 168.4C270.1 169.9 274.9 172 279.3 174.9C279.1 174.8 279.3 172.7 279.3 172.4C279.3 172.1 279.5 170.1 279.3 169.9C262.6 159 241.7 159.5 222.9 163.5C217.1 164.7 211.3 166.3 205.6 167.9C205.5 167.9 205.6 170.2 205.6 170.4C205.6 170.5 205.7 172.8 205.6 172.8Z" fill="white"/>
<path d="M292.9 182.4C301.4 187 309.5 192.4 317 198.5C320.7 201.5 324.2 204.7 327.6 208.1C330.9 211.4 334.1 214.8 336.8 218.5C339.9 222.8 342.3 227.6 342.5 233C342.5 233.3 342.5 232.6 342.5 232.7C342.5 232.2 342.5 231.7 342.5 231.2C342.5 230.2 342.5 229.1 342.5 228.1C342.1 218.7 335.5 211.2 329.2 204.7C322.4 197.7 314.9 191.4 306.9 185.8C302.4 182.7 297.7 179.8 292.8 177.2C292.9 177.3 292.8 179.5 292.8 179.7C292.9 180.2 292.7 182.3 292.9 182.4Z" fill="white"/>
<path d="M344.5 249.8C344.6 250.9 344.7 252 344.8 253.2C344.8 253.6 344.8 254.1 344.9 254.5C345 255.5 345 252.3 344.9 253.5C344.9 253.8 344.9 254.2 344.9 254.5C344.8 256.6 344.6 258.8 344.3 260.9C343.7 264.9 342.8 268.8 341.5 272.7C338.9 280.4 335 287.7 329.9 294C327 297.6 323.7 300.9 320.2 303.8C319.9 304 320.2 306 320.2 306.3C320.2 306.6 320.5 308.6 320.2 308.8C334.5 297.2 343.5 279.6 344.8 261.2C345.2 255.8 345.2 250.2 344.6 244.8C344.7 246.5 344.3 248.2 344.5 249.8Z" fill="white"/>
<path d="M300.1 317.7C284.8 328.3 266.4 334.1 247.8 334.3C242.5 334.4 237.2 333.9 232 333.1C232.2 333.1 231.7 338 232 338.1C250.3 341.1 269.5 338.5 286.3 330.7C291.1 328.5 295.7 325.8 300.1 322.8C300.3 322.6 300.1 320.6 300.1 320.3C300.1 319.8 299.8 317.8 300.1 317.7Z" fill="white"/>
<path d="M201.7 325.8C197.4 323.7 193.2 321.6 188.9 319.5C185.3 317.7 181.6 316 178.3 313.8C175 311.6 172.2 309 170.1 305.6C167.8 302 166.2 297.9 164.6 294C162.7 289.2 160.9 284.4 159.4 279.5C159.6 280.2 159.4 281.3 159.4 282C159.4 282.7 159.2 283.8 159.4 284.5C160.8 288.8 162.3 293 163.9 297.2C165.5 301.2 167.1 305.3 169.2 309.1C171.2 312.6 173.7 315.5 177 317.8C180.2 320.1 183.7 321.9 187.2 323.6C192 326 196.9 328.4 201.7 330.7C201.6 330.6 201.7 328.4 201.7 328.2C201.8 328.1 202 325.9 201.7 325.8Z" fill="white"/>
<path d="M158.9 263.4C161.4 246.3 166.6 229.7 174.1 214.2C174.4 213.6 174.1 212.3 174.1 211.7C174.1 211.1 174.1 210.5 174.1 209.9C174.1 209.7 174 209.3 174.1 209.2C166.5 224.7 161.4 241.3 158.9 258.4C158.6 260 159.1 261.7 158.9 263.4Z" fill="white"/>
<path d="M183.9 205C188.1 197.2 196.2 192.7 204 189C212.9 184.8 222.2 181.6 231.9 180C237.4 179.1 243 178.7 248.5 178.9C248.5 178.9 248.6 173.9 248.5 173.9C238.7 173.6 228.9 175.1 219.6 177.9C214.9 179.3 210.3 181.1 205.8 183.1C201.7 185 197.6 187 193.8 189.5C189.8 192.2 186.2 195.6 183.8 199.9C183.5 200.4 183.8 201.8 183.8 202.4C183.8 203 183.8 203.6 183.8 204.2C183.9 204.4 184 204.8 183.9 205Z" fill="white"/>
<path d="M261.6 181.5C269.5 182.9 277.5 184.7 284.7 188.3C291.6 191.8 297.4 196.9 302.7 202.5C305.7 205.7 308.6 209.1 311.4 212.5C311.4 212.5 311.4 211.7 311.4 211.8C311.4 211.2 311.4 210.6 311.4 210C311.4 209.4 311.4 208.8 311.4 208.2C311.4 208.1 311.5 207.6 311.4 207.5C306.5 201.6 301.5 195.7 295.7 190.7C289.7 185.5 282.8 181.9 275.2 179.6C270.8 178.3 266.2 177.3 261.6 176.5C261.8 176.5 261.3 181.4 261.6 181.5Z" fill="white"/>
<path d="M320.5 223.7C324.8 230.4 327.8 238 329.3 245.9C329.6 247.8 329.9 249.7 330.1 251.6C330.2 252.7 330.3 253.9 330.3 255C330.4 257.4 330.4 252.9 330.3 254.5C330.3 255.1 330.3 255.6 330.2 256.2C329.9 260.3 329.3 264.4 328.2 268.3C328 269 328.2 270 328.2 270.8C328.2 271.5 328.4 272.6 328.2 273.3C330.2 266 330.5 258.5 330.4 250.9C330.2 243.7 328.9 236.6 326.3 229.9C324.8 226 322.9 222.2 320.6 218.7C320.6 218.8 320.6 219.4 320.6 219.4C320.6 220 320.6 220.6 320.6 221.2C320.6 221.8 320.6 222.4 320.6 223C320.5 223.2 320.4 223.6 320.5 223.7Z" fill="white"/>
<path d="M315.4 287.1C312.9 290.3 310.3 293.4 307.6 296.5C305.1 299.3 302.6 302.1 299.8 304.5C294.3 309.2 287.5 311.5 280.5 312.8C276.5 313.5 272.4 313.9 268.3 314.3C268.1 314.3 268.4 319.3 268.3 319.3C275.3 318.7 282.5 318 289.2 315.6C292.6 314.4 295.8 312.7 298.6 310.5C301.5 308.2 304 305.5 306.5 302.8C309.6 299.4 312.5 295.8 315.4 292.2C315.7 291.8 315.4 290.2 315.4 289.7C315.4 289.1 315.4 288.5 315.4 287.9C315.4 287.7 315.3 287.2 315.4 287.1Z" fill="white"/>
<path d="M244.4 318C228.4 318.8 211.5 319.3 196.7 312C192.9 310.1 189.4 307.8 186.3 305C186.5 305.2 186.3 307.2 186.3 307.5C186.3 308.1 186.3 308.7 186.3 309.3C186.3 309.4 186.2 310 186.3 310C198 320.7 214.2 323.4 229.5 323.4C234.4 323.4 239.4 323.2 244.3 322.9C244.6 323 244.4 318 244.4 318Z" fill="white"/>
<path d="M178.8 293.4C177.2 287.2 175.7 281 174.6 274.8C174 271.7 173.6 268.6 173.3 265.5C173.1 263.8 173 262.1 172.9 260.3C172.9 259.9 172.9 259.5 172.9 259.1C173 261.4 172.9 260.2 172.9 259.6C172.9 258.6 173 257.6 173.1 256.6C173.2 254.9 173 253.3 173.1 251.6C172.5 259.3 172.7 267.2 173.8 274.8C174.9 282.8 176.9 290.6 178.9 298.4C178.7 297.7 178.9 296.6 178.9 295.9C178.8 295.1 179 294.1 178.8 293.4Z" fill="white"/>
<path d="M179.3 233.7C182.1 227.1 184.9 220.3 189.9 215C194.9 209.6 201.5 206.3 208 203.1C208.2 203 208 200.9 208 200.6C208 200.4 207.8 198.2 208 198.1C201.5 201.3 194.9 204.6 189.9 210C185 215.3 182.1 222.1 179.3 228.7C179 229.3 179.3 230.5 179.3 231.2C179.3 231.8 179.3 232.4 179.3 233C179.3 233.1 179.4 233.5 179.3 233.7Z" fill="white"/>
<path d="M229.1 197.9C245.8 195.8 263.7 193.7 279.2 201.6C279.1 201.5 279.2 199.3 279.2 199.1C279.2 198.8 279.4 196.7 279.2 196.6C263.6 188.7 245.7 190.8 229.1 192.9C228.9 192.9 229.3 197.8 229.1 197.9Z" fill="white"/>
<path d="M293.1 213.1C300.9 221.2 307.3 230.6 311.8 240.9C311.8 240.8 311.8 240.2 311.8 240.2C311.8 239.6 311.8 239 311.8 238.4C311.8 237.7 312.1 236.5 311.8 235.9C307.3 225.6 301 216.2 293.1 208.1C293.3 208.3 293.1 210.2 293.1 210.6C293.1 211.2 293.1 211.8 293.1 212.4C293 212.5 293 213 293.1 213.1Z" fill="white"/>
<path d="M312.2 254.4C312.2 254.7 312.2 255.1 312.3 255.4C312.4 257.1 312.3 254.2 312.3 254C312.2 254.8 312.2 255.6 312.1 256.3C312 257.7 311.8 259.1 311.5 260.5C311 263.2 310.2 265.9 309.2 268.4C307.1 273.5 304.1 278.3 300.3 282.3C300 282.6 300.3 284.4 300.3 284.8C300.3 285.4 300.3 286 300.3 286.6C300.3 286.7 300.4 287.3 300.3 287.3C305 282.4 308.4 276.4 310.4 270C312.4 263.4 312.7 256.4 312.2 249.5C312.2 249.2 312.2 249.9 312.2 249.8C312.2 250.3 312.2 250.8 312.2 251.3C312.1 252.4 312.1 253.4 312.2 254.4Z" fill="white"/>
<path d="M283.5 295.9C273.7 301 262.8 303.7 251.7 303.7V308.7C262.8 308.7 273.7 306 283.5 300.9C283.7 300.8 283.5 298.7 283.5 298.4C283.5 298.2 283.3 296 283.5 295.9Z" fill="white"/>
<path d="M220.5 303.4C210 301.3 198.4 298.7 191.1 290.2C191.1 290.2 191.1 291 191.1 290.9C191.1 291.5 191.1 292.1 191.1 292.7C191.1 293.3 191.1 293.9 191.1 294.5C191.1 294.6 191 295.1 191.1 295.2C198.4 303.8 209.9 306.3 220.5 308.4C220.2 308.3 220.9 303.5 220.5 303.4Z" fill="white"/>
<path d="M185.6 271.5C185.6 270.5 185.5 269.4 185.5 268.4C185.5 267.3 185.3 266.1 185.4 265.1C185.2 266.9 185.4 264.7 185.4 264.3C185.4 263.9 185.4 263.4 185.5 263C185.6 261.8 185.7 260.5 185.8 259.3C186.3 255.1 187.3 251 189 247.2C189.3 246.6 189 245.3 189 244.7C189 244.1 189 243.5 189 242.9C189 242.7 188.9 242.3 189 242.2C186.7 247.4 185.7 253 185.4 258.6C185.1 264.5 185.3 270.5 185.5 276.4C185.5 276.7 185.5 276 185.5 276.1C185.5 275.6 185.5 275.1 185.5 274.6C185.6 273.6 185.6 272.5 185.6 271.5Z" fill="white"/>
<path d="M200.1 233.1C207.3 225.4 216.3 219.5 226.2 215.9C226.4 215.8 226.2 213.6 226.2 213.4C226.2 213.2 226 210.9 226.2 210.9C216.3 214.5 207.3 220.4 200.1 228.1C199.8 228.4 200.1 230.2 200.1 230.6C200.1 231.2 200.1 231.8 200.1 232.4C200 232.5 200.1 233.1 200.1 233.1Z" fill="white"/>
<path d="M250.1 215.6C260.4 215.5 270.5 218.7 278.8 224.7C278.6 224.6 278.8 222.5 278.8 222.2C278.8 221.9 279.1 219.9 278.8 219.7C270.4 213.7 260.3 210.5 250.1 210.6V215.6Z" fill="white"/>
<path d="M290.1 236.8C291.5 240.1 292.9 243.4 293.9 246.9C294.4 248.6 294.7 250.3 294.9 252.1C295 252.6 295 253.1 295 253.6C294.5 249.1 295.1 249.7 294.9 251.5C294.8 252.4 294.6 253.4 294.4 254.3C294.2 255.1 294.4 256 294.4 256.8C294.4 257.6 294.6 258.6 294.4 259.3C294.9 257.1 295 254.9 295 252.7C295 250.2 295 247.8 294.6 245.3C293.8 240.6 291.9 236.2 290 231.9C290 232 290 232.6 290 232.6C290 233.2 290 233.8 290 234.4C290 235 290 235.6 290 236.2C290.1 236.3 290 236.6 290.1 236.8Z" fill="white"/>
<path d="M283.5 269.8C277.7 279.4 267.5 286 256.4 287.5C256.1 287.5 256.6 292.5 256.4 292.5C267.5 291 277.7 284.4 283.5 274.8C283.8 274.3 283.5 272.9 283.5 272.3C283.5 271.7 283.5 271.1 283.5 270.5C283.5 270.4 283.4 269.9 283.5 269.8Z" fill="white"/>
<path d="M240.2 290.5C224.9 292.5 210.3 285.7 196.9 279.2C197 279.3 196.9 281.5 196.9 281.7C196.9 282 196.7 284.1 196.9 284.2C210.3 290.7 224.9 297.5 240.2 295.5C240.5 295.4 240 290.5 240.2 290.5Z" fill="white"/>
<path d="M194.8 269.6C196.3 258.3 202.7 248 212.1 241.5C212.3 241.3 212.1 239.3 212.1 239C212.1 238.7 211.8 236.7 212.1 236.5C202.7 242.9 196.3 253.3 194.8 264.6C194.6 266.3 195 268 194.8 269.6Z" fill="white"/>
<path d="M235 233.7C244.6 231.6 255.6 229.4 264.3 235.4C264.1 235.3 264.3 233.2 264.3 232.9C264.3 232.6 264.6 230.6 264.3 230.4C255.6 224.3 244.6 226.5 235 228.7C234.6 228.8 235.3 233.6 235 233.7Z" fill="white"/>
<path d="M271.9 244.1C273 246.7 274 249.4 274.7 252.2C275 253.6 275.2 255 275.4 256.5C274.9 252.3 275.5 252.5 275.3 254.2C275.3 254.5 275.2 254.8 275.2 255.2C275.1 256 274.9 256.7 274.6 257.4C274.5 257.6 274.6 258 274.6 258.1C274.6 258.7 274.6 259.3 274.6 259.9C274.6 260.5 274.6 261.1 274.6 261.7C274.6 261.9 274.7 262.2 274.6 262.4C275.1 260.7 275.4 259 275.4 257.3C275.4 254.9 275.5 252.5 275.2 250.2C274.7 246.4 273.3 242.7 271.9 239.2C271.9 239.3 271.9 239.9 271.9 239.9C271.9 240.5 271.9 241.1 271.9 241.7C271.9 242.3 271.9 242.9 271.9 243.5C271.8 243.5 271.8 243.9 271.9 244.1Z" fill="white"/>
<path d="M263.7 267.9C256.2 272.1 247.7 274 239.1 273.5C239.2 273.5 238.9 278.5 239.1 278.5C247.6 279.1 256.2 277.2 263.7 272.9C263.9 272.8 263.7 270.7 263.7 270.4C263.8 270.1 263.5 268 263.7 267.9Z" fill="white"/>
<path d="M220.2 269.5C216.4 266.2 213.6 262 212 257.3C212 257.4 212 257.9 212 258C212 258.6 212 259.2 212 259.8C212 260.4 212 261 212 261.6C212 261.8 211.9 262.1 212 262.3C213.6 267 216.4 271.2 220.2 274.5C220.2 274.5 220.2 273.7 220.2 273.8C220.2 273.2 220.2 272.6 220.2 272C220.2 271.4 220.2 270.8 220.2 270.2C220.2 270.2 220.3 269.6 220.2 269.5Z" fill="white"/>
<path d="M229 250.4C231.2 245.5 236.5 242.4 241.8 242.9C241.7 242.9 242 237.9 241.8 237.9C236.5 237.5 231.2 240.6 229 245.4C228.9 245.5 229 246 229 246.1C229 246.7 229 247.3 229 247.9C229 248.5 229 249.1 229 249.7C228.9 249.9 229 250.3 229 250.4Z" fill="white"/>
<path d="M253.1 251.5C254.3 252 255.3 252.9 256 254.1C256.3 254.7 256.5 255.3 256.7 256C257 257.6 256 257.5 256.8 253C256.7 253.3 256.7 253.6 256.7 253.9C256 256.7 253.8 258.8 251.2 259.9C248.2 261.1 244.6 261 241.5 260.1C240.1 259.7 238.7 259.1 237.6 258.1C237.1 257.6 236.6 257 236.2 256.4C236.1 256.1 235.9 255.8 235.8 255.5C235.7 255.3 235.7 255.1 235.6 254.9C235.4 253.5 235.3 254.5 235.5 257.9C235.5 258.1 235.5 258.4 235.5 258.6C235.7 255.6 238.6 254.3 241.3 254C242.7 253.8 244.2 253.8 245.5 254.3C246.1 254.6 246.6 255 246.9 255.6C247 255.8 247 255.9 247.1 256.1C247.5 252.1 247.5 250.8 247 252.3C246.8 252.6 246.7 252.8 246.4 253C246.2 253.2 246.4 255.2 246.4 255.5C246.4 256.1 246.4 256.7 246.4 257.3C246.4 257.4 246.5 258 246.4 258C247.1 257.4 247.1 256.7 247.1 255.8C247.1 254.3 247.4 252.5 247 251C246.5 248.8 243.8 248.7 242 248.9C240.2 249 238.1 249.5 236.7 250.8C234.8 252.6 235.4 255.8 235.4 258.2C235.4 260.4 236.2 262.2 238 263.5C239.9 264.8 242.3 265.4 244.5 265.6C249 266 254.1 264.5 256.1 260C256.6 258.9 256.7 257.8 256.7 256.7C256.7 255.1 256.8 253.5 256.7 251.9C256.5 249.6 255.2 247.5 253 246.6C253.1 246.6 253 248.9 253 249.1C253.1 249.3 252.9 251.5 253.1 251.5Z" fill="white"/>
</g>
<defs>
<clipPath id="clip0_201_694">
<rect width="500" height="500" fill="white"/>
</clipPath>
</defs>
</svg>
