<svg width="500" height="500" viewBox="0 0 500 500" fill="none" xmlns="http://www.w3.org/2000/svg">
<mask id="mask0_201_711" style="mask-type:luminance" maskUnits="userSpaceOnUse" x="51" y="51" width="398" height="398">
<path d="M250 448.5C359.629 448.5 448.5 359.629 448.5 250C448.5 140.371 359.629 51.5 250 51.5C140.371 51.5 51.5 140.371 51.5 250C51.5 359.629 140.371 448.5 250 448.5Z" fill="white"/>
</mask>
<g mask="url(#mask0_201_711)">
<path d="M249.3 234.2C242.7 229.4 238.5 221.7 237.8 213.6C237.6 210.8 232.6 211.3 232.8 214.1C233.6 223.4 238.5 232.1 246.1 237.6C248.3 239.1 251.9 236.1 249.3 234.2Z" fill="white"/>
</g>
<mask id="mask1_201_711" style="mask-type:luminance" maskUnits="userSpaceOnUse" x="51" y="51" width="398" height="398">
<path d="M250 448.5C359.629 448.5 448.5 359.629 448.5 250C448.5 140.371 359.629 51.5 250 51.5C140.371 51.5 51.5 140.371 51.5 250C51.5 359.629 140.371 448.5 250 448.5Z" fill="white"/>
</mask>
<g mask="url(#mask1_201_711)">
<path d="M256.6 229.1C258.6 223.5 260.6 217.5 265.2 213.4C269.9 209.3 276.4 210.1 282.1 208.8C283.3 208.5 284.5 207.6 284.6 206.3C284.7 205.1 283.5 204.4 282.4 204.6C278.9 205.4 275.4 205.4 271.9 206.1C268.3 206.8 265.2 208.4 262.4 210.8C257 215.4 254.5 222.3 252.2 228.8C251.8 229.9 252.5 231 253.7 231.1C254.9 231.2 256.2 230.3 256.6 229.1Z" fill="white"/>
</g>
<mask id="mask2_201_711" style="mask-type:luminance" maskUnits="userSpaceOnUse" x="51" y="51" width="398" height="398">
<path d="M250 448.5C359.629 448.5 448.5 359.629 448.5 250C448.5 140.371 359.629 51.5 250 51.5C140.371 51.5 51.5 140.371 51.5 250C51.5 359.629 140.371 448.5 250 448.5Z" fill="white"/>
</mask>
<g mask="url(#mask2_201_711)">
<path d="M258.6 236.7C266.3 235.1 274.1 237.4 280 242.5C282.8 244.9 285.4 247.8 287.7 250.7C290.1 253.7 292.3 257 293.6 260.7C293.9 261.5 298.5 259.6 298.1 258.6C296.7 254.8 294.5 251.4 291.9 248.3C289.4 245.2 286.6 242.2 283.5 239.7C277.2 234.7 269.2 232.8 261.4 234.5C260.3 234.7 259.1 235.2 258.2 236C257.6 236.4 257.6 236.9 258.6 236.7Z" fill="white"/>
</g>
<mask id="mask3_201_711" style="mask-type:luminance" maskUnits="userSpaceOnUse" x="51" y="51" width="398" height="398">
<path d="M250 448.5C359.629 448.5 448.5 359.629 448.5 250C448.5 140.371 359.629 51.5 250 51.5C140.371 51.5 51.5 140.371 51.5 250C51.5 359.629 140.371 448.5 250 448.5Z" fill="white"/>
</mask>
<g mask="url(#mask3_201_711)">
<path d="M255.4 243.5C256.9 253.6 256.5 265.2 248.5 272.7C247.1 274 251.5 276.2 252.8 274.9C261.2 267.1 261.8 255 260.2 244.4C259.9 242.6 255.1 241.5 255.4 243.5Z" fill="white"/>
</g>
<mask id="mask4_201_711" style="mask-type:luminance" maskUnits="userSpaceOnUse" x="51" y="51" width="398" height="398">
<path d="M250 448.5C359.629 448.5 448.5 359.629 448.5 250C448.5 140.371 359.629 51.5 250 51.5C140.371 51.5 51.5 140.371 51.5 250C51.5 359.629 140.371 448.5 250 448.5Z" fill="white"/>
</mask>
<g mask="url(#mask4_201_711)">
<path d="M242.2 243.5C238 249.4 230 250.7 223.3 251.1C215.5 251.6 207 250.8 200.9 245.4C199.4 244.1 195.1 246.5 196.8 248C202.3 252.8 209.6 254.4 216.7 254.6C223.5 254.8 230.9 254.1 237.2 251.3C240.8 249.7 244 247.4 246.3 244.1C246.9 243.2 246.5 242.2 245.4 242C244.3 242 242.9 242.6 242.2 243.5Z" fill="white"/>
</g>
<mask id="mask5_201_711" style="mask-type:luminance" maskUnits="userSpaceOnUse" x="51" y="51" width="398" height="398">
<path d="M250 448.5C359.629 448.5 448.5 359.629 448.5 250C448.5 140.371 359.629 51.5 250 51.5C140.371 51.5 51.5 140.371 51.5 250C51.5 359.629 140.371 448.5 250 448.5Z" fill="white"/>
</mask>
<g mask="url(#mask5_201_711)">
<path d="M249.4 210.8C251.6 198.6 258.9 187.5 269.2 180.6C271.2 179.3 267.3 176.2 265.6 177.3C254.8 184.5 247.2 196.2 244.9 209C244.5 211.1 249 213.2 249.4 210.8Z" fill="white"/>
</g>
<mask id="mask6_201_711" style="mask-type:luminance" maskUnits="userSpaceOnUse" x="51" y="51" width="398" height="398">
<path d="M250 448.5C359.629 448.5 448.5 359.629 448.5 250C448.5 140.371 359.629 51.5 250 51.5C140.371 51.5 51.5 140.371 51.5 250C51.5 359.629 140.371 448.5 250 448.5Z" fill="white"/>
</mask>
<g mask="url(#mask6_201_711)">
<path d="M279.6 223.1C285.5 222.7 291.7 222.5 296.5 226.5C298.9 228.5 300.9 231 302.9 233.4C305.1 236 307.1 238.8 309 241.6C310.5 243.9 314.9 241.8 313.2 239.2C311.1 236.1 308.9 233.2 306.5 230.3C304.3 227.6 301.9 224.9 299.2 222.7C293.5 218.2 286.3 218.3 279.4 218.7C278.2 218.8 276.9 219.6 277 221C277.1 222.3 278.4 223.2 279.6 223.1Z" fill="white"/>
</g>
<mask id="mask7_201_711" style="mask-type:luminance" maskUnits="userSpaceOnUse" x="51" y="51" width="398" height="398">
<path d="M250 448.5C359.629 448.5 448.5 359.629 448.5 250C448.5 140.371 359.629 51.5 250 51.5C140.371 51.5 51.5 140.371 51.5 250C51.5 359.629 140.371 448.5 250 448.5Z" fill="white"/>
</mask>
<g mask="url(#mask7_201_711)">
<path d="M302.6 251C305.1 252.4 306.4 255 307.6 257.5C308.9 260.1 310.2 262.8 311.2 265.5C313.4 271 315.1 276.8 316.3 282.6C316.4 283 318.4 283.2 318.7 283.2C318.9 283.2 321.3 283.4 321.2 283.3C320 277.3 318.2 271.4 315.9 265.7C314.8 262.9 313.5 260.2 312.1 257.5C310.9 255.2 309.6 252.8 307.3 251.4C306.5 250.9 305.2 250.9 304.3 250.8C303.9 250.8 303.2 250.6 302.8 250.7C302.8 250.8 302.3 250.8 302.6 251Z" fill="white"/>
</g>
<mask id="mask8_201_711" style="mask-type:luminance" maskUnits="userSpaceOnUse" x="51" y="51" width="398" height="398">
<path d="M250 448.5C359.629 448.5 448.5 359.629 448.5 250C448.5 140.371 359.629 51.5 250 51.5C140.371 51.5 51.5 140.371 51.5 250C51.5 359.629 140.371 448.5 250 448.5Z" fill="white"/>
</mask>
<g mask="url(#mask8_201_711)">
<path d="M273.2 256.8C275.8 270.7 277.1 286.2 268.8 298.6C268.5 299.1 270.5 298.3 270.6 298.3C271.4 297.9 272.6 297.4 273.2 296.6C281.6 284.2 280.2 268.5 277.7 254.5C277.6 254.3 273 255.8 273.2 256.8Z" fill="white"/>
</g>
<mask id="mask9_201_711" style="mask-type:luminance" maskUnits="userSpaceOnUse" x="51" y="51" width="398" height="398">
<path d="M250 448.5C359.629 448.5 448.5 359.629 448.5 250C448.5 140.371 359.629 51.5 250 51.5C140.371 51.5 51.5 140.371 51.5 250C51.5 359.629 140.371 448.5 250 448.5Z" fill="white"/>
</mask>
<g mask="url(#mask9_201_711)">
<path d="M288.1 286.3C288.4 297.9 286.6 310.8 277.9 319.3C277.2 320 277.3 320.7 278.3 321C279.3 321.3 281 321 281.8 320.2C291.2 311 293.3 297.8 293 285.2C292.9 283.7 288 284.5 288.1 286.3Z" fill="white"/>
</g>
<mask id="mask10_201_711" style="mask-type:luminance" maskUnits="userSpaceOnUse" x="51" y="51" width="398" height="398">
<path d="M250 448.5C359.629 448.5 448.5 359.629 448.5 250C448.5 140.371 359.629 51.5 250 51.5C140.371 51.5 51.5 140.371 51.5 250C51.5 359.629 140.371 448.5 250 448.5Z" fill="white"/>
</mask>
<g mask="url(#mask10_201_711)">
<path d="M249.9 285.8C240.8 296.2 227.9 302.8 214.2 304.2C210.3 304.6 206.5 304.6 202.6 304.1C199.5 303.7 200.1 308.4 202.8 308.7C217.4 310.4 232.3 306.3 244.1 297.7C247.4 295.3 250.5 292.5 253.2 289.4C254 288.4 253.9 287.1 253 286.1C252.4 285.4 250.8 284.8 249.9 285.8Z" fill="white"/>
</g>
<mask id="mask11_201_711" style="mask-type:luminance" maskUnits="userSpaceOnUse" x="51" y="51" width="398" height="398">
<path d="M250 448.5C359.629 448.5 448.5 359.629 448.5 250C448.5 140.371 359.629 51.5 250 51.5C140.371 51.5 51.5 140.371 51.5 250C51.5 359.629 140.371 448.5 250 448.5Z" fill="white"/>
</mask>
<g mask="url(#mask11_201_711)">
<path d="M232.7 265.5C224.4 270.4 215.1 277.4 204.8 275.2C204.1 275 203 275.2 203.5 276.1C204 277.1 205.6 277.5 206.5 277.7C217.9 280.2 227.7 273.3 237 267.8C237.9 267.3 236.2 266.2 235.9 266C235 265.6 233.5 265 232.7 265.5Z" fill="white"/>
</g>
<mask id="mask12_201_711" style="mask-type:luminance" maskUnits="userSpaceOnUse" x="51" y="51" width="398" height="398">
<path d="M250 448.5C359.629 448.5 448.5 359.629 448.5 250C448.5 140.371 359.629 51.5 250 51.5C140.371 51.5 51.5 140.371 51.5 250C51.5 359.629 140.371 448.5 250 448.5Z" fill="white"/>
</mask>
<g mask="url(#mask12_201_711)">
<path d="M197 259.3C189.7 260.5 182.4 258.1 176 254.9C169.3 251.6 162.7 247.4 157.4 242.1C156.7 241.4 155.3 241.4 154.3 241.6C154 241.6 151.9 242.2 152.6 242.8C158.5 248.7 165.8 253.3 173.4 256.8C181.2 260.4 189.8 262.5 198.5 261.1C199 261 200.6 260.7 200.2 259.9C199.7 259 197.6 259.2 197 259.3Z" fill="white"/>
</g>
<mask id="mask13_201_711" style="mask-type:luminance" maskUnits="userSpaceOnUse" x="51" y="51" width="398" height="398">
<path d="M250 448.5C359.629 448.5 448.5 359.629 448.5 250C448.5 140.371 359.629 51.5 250 51.5C140.371 51.5 51.5 140.371 51.5 250C51.5 359.629 140.371 448.5 250 448.5Z" fill="white"/>
</mask>
<g mask="url(#mask13_201_711)">
<path d="M222.7 240.3C212.6 235.9 201.6 230.8 197.1 220C196.8 219.2 194.9 219 194.2 218.8C193.9 218.7 192.1 218.4 192.3 219.1C197.1 230.6 209.3 236 220 240.7C220.8 241.1 222.5 241.7 223.4 241.3C224.3 241 223.2 240.5 222.7 240.3Z" fill="white"/>
</g>
<mask id="mask14_201_711" style="mask-type:luminance" maskUnits="userSpaceOnUse" x="51" y="51" width="398" height="398">
<path d="M250 448.5C359.629 448.5 448.5 359.629 448.5 250C448.5 140.371 359.629 51.5 250 51.5C140.371 51.5 51.5 140.371 51.5 250C51.5 359.629 140.371 448.5 250 448.5Z" fill="white"/>
</mask>
<g mask="url(#mask14_201_711)">
<path d="M220.5 220.9C212.8 207.8 209.1 192.5 210.1 177.3C210.2 175 205.4 176.1 205.3 178.2C204.3 193.6 208 209.3 215.8 222.6C216.4 223.6 217.7 223.6 218.7 223.2C219.4 223 221.1 221.9 220.5 220.9Z" fill="white"/>
</g>
<mask id="mask15_201_711" style="mask-type:luminance" maskUnits="userSpaceOnUse" x="51" y="51" width="398" height="398">
<path d="M250 448.5C359.629 448.5 448.5 359.629 448.5 250C448.5 140.371 359.629 51.5 250 51.5C140.371 51.5 51.5 140.371 51.5 250C51.5 359.629 140.371 448.5 250 448.5Z" fill="white"/>
</mask>
<g mask="url(#mask15_201_711)">
<path d="M233.3 184.3C238 171.8 246.8 160.5 258.7 154.2C259.5 153.8 261 153 261.4 152.1C261.8 151.3 260.7 151.9 260.3 152.1C246.3 159.6 234.7 171.8 229.1 186.8C228.9 187.3 230.7 186.3 230.8 186.2C231.6 185.8 233 185.1 233.3 184.3Z" fill="white"/>
</g>
<mask id="mask16_201_711" style="mask-type:luminance" maskUnits="userSpaceOnUse" x="51" y="51" width="398" height="398">
<path d="M250 448.5C359.629 448.5 448.5 359.629 448.5 250C448.5 140.371 359.629 51.5 250 51.5C140.371 51.5 51.5 140.371 51.5 250C51.5 359.629 140.371 448.5 250 448.5Z" fill="white"/>
</mask>
<g mask="url(#mask16_201_711)">
<path d="M283.2 190.6C286.1 188.9 289 187.1 292.2 186.2C295.3 185.3 298.6 184.9 301.8 184.9C307.4 184.8 313.2 186.1 317.1 190.5C318 191.6 322.5 189.5 321.4 188.2C317.1 183.3 310.1 182 303.8 182.2C299.9 182.3 296 182.8 292.2 183.9C288.2 185.1 284.7 187.1 281.1 189.2C280.6 189.5 279.2 190.4 280 191.1C280.8 191.7 282.6 191 283.2 190.6Z" fill="white"/>
</g>
<mask id="mask17_201_711" style="mask-type:luminance" maskUnits="userSpaceOnUse" x="51" y="51" width="398" height="398">
<path d="M250 448.5C359.629 448.5 448.5 359.629 448.5 250C448.5 140.371 359.629 51.5 250 51.5C140.371 51.5 51.5 140.371 51.5 250C51.5 359.629 140.371 448.5 250 448.5Z" fill="white"/>
</mask>
<g mask="url(#mask17_201_711)">
<path d="M309.3 212C323.1 215.8 331.8 228.2 339.4 239.4C340 240.3 341.2 241.2 342.4 241.3C343.3 241.4 343.9 240.8 343.3 239.9C334.5 226.9 324.2 213.3 308.3 208.9C307.5 208.7 306.4 208.7 306.7 209.8C306.9 210.8 308.3 211.7 309.3 212Z" fill="white"/>
</g>
<mask id="mask18_201_711" style="mask-type:luminance" maskUnits="userSpaceOnUse" x="51" y="51" width="398" height="398">
<path d="M250 448.5C359.629 448.5 448.5 359.629 448.5 250C448.5 140.371 359.629 51.5 250 51.5C140.371 51.5 51.5 140.371 51.5 250C51.5 359.629 140.371 448.5 250 448.5Z" fill="white"/>
</mask>
<g mask="url(#mask18_201_711)">
<path d="M333.9 255.5C335.7 256.9 336.7 259.1 337.4 261.2C338.3 264 338.8 266.9 339.4 269.7C340.8 276.5 342.2 283.3 343 290.1C343.2 291.3 344.3 292.4 345.5 292.6C346.7 292.8 347.5 291.9 347.3 290.7C346.3 283.2 344.8 275.8 343.3 268.4C342 262.3 340.7 255.9 335.3 252C334.5 251.4 332.9 251.3 332.5 252.4C332 253.6 333 254.8 333.9 255.5Z" fill="white"/>
</g>
<mask id="mask19_201_711" style="mask-type:luminance" maskUnits="userSpaceOnUse" x="51" y="51" width="398" height="398">
<path d="M250 448.5C359.629 448.5 448.5 359.629 448.5 250C448.5 140.371 359.629 51.5 250 51.5C140.371 51.5 51.5 140.371 51.5 250C51.5 359.629 140.371 448.5 250 448.5Z" fill="white"/>
</mask>
<g mask="url(#mask19_201_711)">
<path d="M316.8 300.2C317.7 313.4 313.3 326.6 304.5 336.5C303.9 337.2 306.2 337.2 306.4 337.2C307.3 337.2 308.7 337 309.4 336.2C318.2 326.2 322.8 312.8 321.8 299.5C321.6 298.5 316.7 299 316.8 300.2Z" fill="white"/>
</g>
<mask id="mask20_201_711" style="mask-type:luminance" maskUnits="userSpaceOnUse" x="51" y="51" width="398" height="398">
<path d="M250 448.5C359.629 448.5 448.5 359.629 448.5 250C448.5 140.371 359.629 51.5 250 51.5C140.371 51.5 51.5 140.371 51.5 250C51.5 359.629 140.371 448.5 250 448.5Z" fill="white"/>
</mask>
<g mask="url(#mask20_201_711)">
<path d="M257.3 312.4C252.1 317.8 246.7 323.3 241.1 328.3C238.6 330.5 235.9 332.5 232.7 333.3C229.3 334.2 225.8 334 222.3 333.7C221.1 333.6 219.9 334.7 220 335.9C220.1 337.3 221.4 338 222.7 338.1C226.5 338.4 230.4 338.5 234.1 337.6C237.8 336.7 241 334.7 243.9 332.2C250 327.1 255.6 321.2 261.1 315.5C263.1 313.2 259.2 310.4 257.3 312.4Z" fill="white"/>
</g>
<mask id="mask21_201_711" style="mask-type:luminance" maskUnits="userSpaceOnUse" x="51" y="51" width="398" height="398">
<path d="M250 448.5C359.629 448.5 448.5 359.629 448.5 250C448.5 140.371 359.629 51.5 250 51.5C140.371 51.5 51.5 140.371 51.5 250C51.5 359.629 140.371 448.5 250 448.5Z" fill="white"/>
</mask>
<g mask="url(#mask21_201_711)">
<path d="M207.8 288.9C201.8 289.4 196.1 291.4 190 290.3C184.5 289.3 179.4 286.6 174.6 283.9C174.3 283.8 175.5 285.3 175.6 285.4C176.3 286.1 177 287 177.9 287.4C182.9 290.1 188.1 292.9 193.8 293.8C199.8 294.8 205.5 292.8 211.4 292.3C211.4 292.3 210 290.5 209.8 290.3C209.4 290.1 208.5 288.8 207.8 288.9Z" fill="white"/>
</g>
<mask id="mask22_201_711" style="mask-type:luminance" maskUnits="userSpaceOnUse" x="51" y="51" width="398" height="398">
<path d="M250 448.5C359.629 448.5 448.5 359.629 448.5 250C448.5 140.371 359.629 51.5 250 51.5C140.371 51.5 51.5 140.371 51.5 250C51.5 359.629 140.371 448.5 250 448.5Z" fill="white"/>
</mask>
<g mask="url(#mask22_201_711)">
<path d="M175.8 266.8C167.4 265.5 159.2 263.5 151.2 260.8C144.8 258.6 137.1 256.2 132.8 250.6C132.2 249.8 131 248.7 129.9 249.1C128.8 249.5 129.2 251 129.7 251.7C134.8 258.3 142.5 261.6 150.2 264.3C158.8 267.3 167.6 269.5 176.6 270.9C179.6 271.4 177.8 267.2 175.8 266.8Z" fill="white"/>
</g>
<mask id="mask23_201_711" style="mask-type:luminance" maskUnits="userSpaceOnUse" x="51" y="51" width="398" height="398">
<path d="M250 448.5C359.629 448.5 448.5 359.629 448.5 250C448.5 140.371 359.629 51.5 250 51.5C140.371 51.5 51.5 140.371 51.5 250C51.5 359.629 140.371 448.5 250 448.5Z" fill="white"/>
</mask>
<g mask="url(#mask23_201_711)">
<path d="M170.5 233.6C162.4 226.2 154.4 217.7 152.2 206.6C152 205.4 151 204.3 149.8 204C148.8 203.7 148 204.4 148.2 205.5C150.7 218.4 159.9 228.1 169.2 236.7C169.9 237.3 171.3 237.7 171.8 236.7C172.3 235.5 171.2 234.2 170.5 233.6Z" fill="white"/>
</g>
<mask id="mask24_201_711" style="mask-type:luminance" maskUnits="userSpaceOnUse" x="51" y="51" width="398" height="398">
<path d="M250 448.5C359.629 448.5 448.5 359.629 448.5 250C448.5 140.371 359.629 51.5 250 51.5C140.371 51.5 51.5 140.371 51.5 250C51.5 359.629 140.371 448.5 250 448.5Z" fill="white"/>
</mask>
<g mask="url(#mask24_201_711)">
<path d="M184.2 200.6C182.3 195.6 180.9 190.3 180.2 185C179.9 182.4 179.7 179.8 179.6 177.2C179.6 174.5 179.6 171.8 180.7 169.4C180.8 169.1 176.2 167.6 175.8 168.6C174.7 171 174.7 173.6 174.7 176.2C174.7 178.9 174.9 181.6 175.3 184.3C176 189.6 177.4 194.9 179.3 199.9C179.6 200.6 181.1 200.7 181.7 200.8C181.8 200.7 184.3 200.9 184.2 200.6Z" fill="white"/>
</g>
<mask id="mask25_201_711" style="mask-type:luminance" maskUnits="userSpaceOnUse" x="51" y="51" width="398" height="398">
<path d="M250 448.5C359.629 448.5 448.5 359.629 448.5 250C448.5 140.371 359.629 51.5 250 51.5C140.371 51.5 51.5 140.371 51.5 250C51.5 359.629 140.371 448.5 250 448.5Z" fill="white"/>
</mask>
<g mask="url(#mask25_201_711)">
<path d="M229 160.8C232.6 149.9 239.9 140.4 249.5 134.1C250.4 133.5 249.4 132.9 248.7 132.7C247.8 132.4 246.2 132.2 245.3 132.7C235.3 139.2 227.8 149 224.1 160.3C223.7 161.4 228.5 162.3 229 160.8Z" fill="white"/>
</g>
<mask id="mask26_201_711" style="mask-type:luminance" maskUnits="userSpaceOnUse" x="51" y="51" width="398" height="398">
<path d="M250 448.5C359.629 448.5 448.5 359.629 448.5 250C448.5 140.371 359.629 51.5 250 51.5C140.371 51.5 51.5 140.371 51.5 250C51.5 359.629 140.371 448.5 250 448.5Z" fill="white"/>
</mask>
<g mask="url(#mask26_201_711)">
<path d="M284.7 151.5C295.6 147.4 307.8 146.8 319.1 149.9C320.1 150.2 321.7 150.3 322.3 149.2C322.9 148.2 321.9 147 320.9 146.8C307.9 143.3 294.2 143.9 281.6 148.6C280.5 149 280.5 150.3 281.2 151.1C282.1 151.9 283.5 151.9 284.7 151.5Z" fill="white"/>
</g>
<mask id="mask27_201_711" style="mask-type:luminance" maskUnits="userSpaceOnUse" x="51" y="51" width="398" height="398">
<path d="M250 448.5C359.629 448.5 448.5 359.629 448.5 250C448.5 140.371 359.629 51.5 250 51.5C140.371 51.5 51.5 140.371 51.5 250C51.5 359.629 140.371 448.5 250 448.5Z" fill="white"/>
</mask>
<g mask="url(#mask27_201_711)">
<path d="M315.4 170.8C328.9 171.6 341.7 180.3 349 191.5C349.4 192.2 351.3 192.2 352 192.3C352.2 192.3 354.1 192.5 353.8 192C344.8 178.2 329.2 170.6 313 169.7C312.5 169.7 311.4 169.6 312 170.2C312.7 170.7 314.6 170.7 315.4 170.8Z" fill="white"/>
</g>
<mask id="mask28_201_711" style="mask-type:luminance" maskUnits="userSpaceOnUse" x="51" y="51" width="398" height="398">
<path d="M250 448.5C359.629 448.5 448.5 359.629 448.5 250C448.5 140.371 359.629 51.5 250 51.5C140.371 51.5 51.5 140.371 51.5 250C51.5 359.629 140.371 448.5 250 448.5Z" fill="white"/>
</mask>
<g mask="url(#mask28_201_711)">
<path d="M343.9 214.2C346.4 215 347.9 218.1 349.3 220.1C351.1 222.7 352.8 225.5 354.4 228.3C357.6 233.9 360.3 239.7 362.6 245.8C363 247 364.2 247.9 365.5 247.8C366.6 247.7 367.6 246.6 367.2 245.4C364.7 238.7 361.7 232.2 358.1 226C356.3 223 354.4 220 352.4 217.2C350.5 214.5 348.4 211.3 345.1 210.2C344 209.8 342.6 210 342.2 211.3C341.8 212.4 342.8 213.8 343.9 214.2Z" fill="white"/>
</g>
<mask id="mask29_201_711" style="mask-type:luminance" maskUnits="userSpaceOnUse" x="51" y="51" width="398" height="398">
<path d="M250 448.5C359.629 448.5 448.5 359.629 448.5 250C448.5 140.371 359.629 51.5 250 51.5C140.371 51.5 51.5 140.371 51.5 250C51.5 359.629 140.371 448.5 250 448.5Z" fill="white"/>
</mask>
<g mask="url(#mask29_201_711)">
<path d="M361.4 283.5C363.9 296.5 366.4 309.9 363.6 323.1C363.3 324.6 367.6 327.1 368 325.3C370.8 311.9 368.2 298.2 365.7 285C365.4 283.4 361 281.3 361.4 283.5Z" fill="white"/>
</g>
<mask id="mask30_201_711" style="mask-type:luminance" maskUnits="userSpaceOnUse" x="51" y="51" width="398" height="398">
<path d="M250 448.5C359.629 448.5 448.5 359.629 448.5 250C448.5 140.371 359.629 51.5 250 51.5C140.371 51.5 51.5 140.371 51.5 250C51.5 359.629 140.371 448.5 250 448.5Z" fill="white"/>
</mask>
<g mask="url(#mask30_201_711)">
<path d="M340.9 315.6C339.5 318.5 339.3 321.9 338.7 325C338 328.1 337.1 331.2 336 334.2C333.7 340.3 330.6 346 326.8 351.2C325.5 353 328.3 357.1 329.8 355.1C333.8 349.8 337 343.9 339.4 337.7C340.6 334.6 341.6 331.4 342.3 328.1C343 325 343.1 321.5 344.5 318.6C345.4 316.8 342.2 313.2 340.9 315.6Z" fill="white"/>
</g>
<mask id="mask31_201_711" style="mask-type:luminance" maskUnits="userSpaceOnUse" x="51" y="51" width="398" height="398">
<path d="M250 448.5C359.629 448.5 448.5 359.629 448.5 250C448.5 140.371 359.629 51.5 250 51.5C140.371 51.5 51.5 140.371 51.5 250C51.5 359.629 140.371 448.5 250 448.5Z" fill="white"/>
</mask>
<g mask="url(#mask31_201_711)">
<path d="M270.8 337.7C259.8 348.1 247.6 359.7 231.7 360.6C230.7 360.7 229.2 361.4 229 362.5C228.9 363.7 230.4 363.9 231.2 363.8C248.9 362.7 262.6 350.4 274.8 338.8C275.6 338 275.2 337 274.2 336.7C273 336.4 271.7 336.9 270.8 337.7Z" fill="white"/>
</g>
<mask id="mask32_201_711" style="mask-type:luminance" maskUnits="userSpaceOnUse" x="51" y="51" width="398" height="398">
<path d="M250 448.5C359.629 448.5 448.5 359.629 448.5 250C448.5 140.371 359.629 51.5 250 51.5C140.371 51.5 51.5 140.371 51.5 250C51.5 359.629 140.371 448.5 250 448.5Z" fill="white"/>
</mask>
<g mask="url(#mask32_201_711)">
<path d="M214.9 318.7C201.2 322.6 186.5 322.2 173 317.6C171.9 317.2 171.9 318.7 172.1 319.4C172.5 320.5 173.4 321.5 174.5 321.9C188.2 326.5 203.2 327 217.1 323C219.1 322.5 216.5 318.3 214.9 318.7Z" fill="white"/>
</g>
<mask id="mask33_201_711" style="mask-type:luminance" maskUnits="userSpaceOnUse" x="51" y="51" width="398" height="398">
<path d="M250 448.5C359.629 448.5 448.5 359.629 448.5 250C448.5 140.371 359.629 51.5 250 51.5C140.371 51.5 51.5 140.371 51.5 250C51.5 359.629 140.371 448.5 250 448.5Z" fill="white"/>
</mask>
<g mask="url(#mask33_201_711)">
<path d="M157.2 288.8C143.8 282.7 129.3 276.1 120.5 263.8C120.2 263.4 119.5 262.5 119.4 263.4C119.3 264.3 120.4 265.8 120.9 266.5C130.2 279.6 145 286.7 159.2 293.2C159.8 293.5 159 291.4 158.9 291.3C158.7 290.5 158.1 289.2 157.2 288.8Z" fill="white"/>
</g>
<mask id="mask34_201_711" style="mask-type:luminance" maskUnits="userSpaceOnUse" x="51" y="51" width="398" height="398">
<path d="M250 448.5C359.629 448.5 448.5 359.629 448.5 250C448.5 140.371 359.629 51.5 250 51.5C140.371 51.5 51.5 140.371 51.5 250C51.5 359.629 140.371 448.5 250 448.5Z" fill="white"/>
</mask>
<g mask="url(#mask34_201_711)">
<path d="M160.8 193.7C158.4 182.1 151.6 171.1 153.4 158.9C153.7 156.9 148.7 156.3 148.4 158.4C146.5 170.9 153.4 182.2 155.8 194C156.4 195.8 161.3 195.9 160.8 193.7Z" fill="white"/>
</g>
<mask id="mask35_201_711" style="mask-type:luminance" maskUnits="userSpaceOnUse" x="51" y="51" width="398" height="398">
<path d="M250 448.5C359.629 448.5 448.5 359.629 448.5 250C448.5 140.371 359.629 51.5 250 51.5C140.371 51.5 51.5 140.371 51.5 250C51.5 359.629 140.371 448.5 250 448.5Z" fill="white"/>
</mask>
<g mask="url(#mask35_201_711)">
<path d="M205.6 155C209.2 142.2 217.1 130.7 227.9 122.8C229.6 121.6 227.1 117.3 225.5 118.4C214.3 126.7 206 138.5 202.2 151.9C201.9 153 202.5 154.4 203.4 155.1C204.1 155.8 205.3 156.2 205.6 155Z" fill="white"/>
</g>
<mask id="mask36_201_711" style="mask-type:luminance" maskUnits="userSpaceOnUse" x="51" y="51" width="398" height="398">
<path d="M250 448.5C359.629 448.5 448.5 359.629 448.5 250C448.5 140.371 359.629 51.5 250 51.5C140.371 51.5 51.5 140.371 51.5 250C51.5 359.629 140.371 448.5 250 448.5Z" fill="white"/>
</mask>
<g mask="url(#mask36_201_711)">
<path d="M280.1 128.1C294.5 122.5 310.5 125.5 324.9 129.4C326 129.7 327.5 129.6 328.4 128.9C329.2 128.4 329.2 127.6 328.2 127.3C311.7 122.8 293.8 120.1 277.4 126.5C276.7 126.8 275.9 127.6 276.7 128.2C277.5 128.9 279.2 128.5 280.1 128.1Z" fill="white"/>
</g>
<mask id="mask37_201_711" style="mask-type:luminance" maskUnits="userSpaceOnUse" x="51" y="51" width="398" height="398">
<path d="M250 448.5C359.629 448.5 448.5 359.629 448.5 250C448.5 140.371 359.629 51.5 250 51.5C140.371 51.5 51.5 140.371 51.5 250C51.5 359.629 140.371 448.5 250 448.5Z" fill="white"/>
</mask>
<g mask="url(#mask37_201_711)">
<path d="M140.5 226.7C129.5 217 127.8 201.1 126.8 187.4C126.7 185.4 121.7 185.1 121.8 186.8C122.9 201.7 124.9 217.7 136.8 228.2C138.1 229.4 142.7 228.7 140.5 226.7Z" fill="white"/>
</g>
<mask id="mask38_201_711" style="mask-type:luminance" maskUnits="userSpaceOnUse" x="51" y="51" width="398" height="398">
<path d="M250 448.5C359.629 448.5 448.5 359.629 448.5 250C448.5 140.371 359.629 51.5 250 51.5C140.371 51.5 51.5 140.371 51.5 250C51.5 359.629 140.371 448.5 250 448.5Z" fill="white"/>
</mask>
<g mask="url(#mask38_201_711)">
<path d="M350.7 165.5C359.9 172.3 367.3 181.7 371.8 192.3C372.3 193.4 373.3 194.5 374.7 194.2C375.9 193.9 376.6 192.5 376.1 191.3C371.1 179.4 363.1 169.1 352.7 161.4C351.7 160.7 350.2 161 349.7 162.1C349 163.4 349.7 164.8 350.7 165.5Z" fill="white"/>
</g>
<mask id="mask39_201_711" style="mask-type:luminance" maskUnits="userSpaceOnUse" x="51" y="51" width="398" height="398">
<path d="M250 448.5C359.629 448.5 448.5 359.629 448.5 250C448.5 140.371 359.629 51.5 250 51.5C140.371 51.5 51.5 140.371 51.5 250C51.5 359.629 140.371 448.5 250 448.5Z" fill="white"/>
</mask>
<g mask="url(#mask39_201_711)">
<path d="M380 227.4C382.9 239.4 385 251.7 386.2 264C386.3 265.2 387.1 266.5 388.3 266.8C389.3 267.1 390.5 266.5 390.3 265.3C389.1 252.6 387 240 383.9 227.6C383.6 226.5 382.6 225.3 381.4 225.2C380.2 225.2 379.7 226.3 380 227.4Z" fill="white"/>
</g>
<mask id="mask40_201_711" style="mask-type:luminance" maskUnits="userSpaceOnUse" x="51" y="51" width="398" height="398">
<path d="M250 448.5C359.629 448.5 448.5 359.629 448.5 250C448.5 140.371 359.629 51.5 250 51.5C140.371 51.5 51.5 140.371 51.5 250C51.5 359.629 140.371 448.5 250 448.5Z" fill="white"/>
</mask>
<g mask="url(#mask40_201_711)">
<path d="M384.1 312C381 320.8 377.1 329.4 372.7 337.6C372.2 338.6 374 339.6 374.7 339.8C375.7 340.1 377 340.1 377.5 339.1C381.9 330.9 385.7 322.3 388.9 313.5C389.6 311.5 384.8 310 384.1 312Z" fill="white"/>
</g>
<mask id="mask41_201_711" style="mask-type:luminance" maskUnits="userSpaceOnUse" x="51" y="51" width="398" height="398">
<path d="M250 448.5C359.629 448.5 448.5 359.629 448.5 250C448.5 140.371 359.629 51.5 250 51.5C140.371 51.5 51.5 140.371 51.5 250C51.5 359.629 140.371 448.5 250 448.5Z" fill="white"/>
</mask>
<g mask="url(#mask41_201_711)">
<path d="M301 352.3C294.7 363 285 371.6 273.6 376.4C272.5 376.8 271.5 378 272 379.2C272.4 380.4 274 380.7 275.1 380.2C287.7 374.8 298.4 365.5 305.4 353.7C306 352.7 305.5 351.4 304.4 351C303.1 350.6 301.7 351.2 301 352.3Z" fill="white"/>
</g>
<mask id="mask42_201_711" style="mask-type:luminance" maskUnits="userSpaceOnUse" x="51" y="51" width="398" height="398">
<path d="M250 448.5C359.629 448.5 448.5 359.629 448.5 250C448.5 140.371 359.629 51.5 250 51.5C140.371 51.5 51.5 140.371 51.5 250C51.5 359.629 140.371 448.5 250 448.5Z" fill="white"/>
</mask>
<g mask="url(#mask42_201_711)">
<path d="M207.5 355C203.7 355.3 200 356.4 196.2 357.2C192.7 358 189.1 358.3 185.5 357.8C178.4 357 171.7 353.9 165.1 351.5C161.3 350.1 157.5 348.8 153.6 348.1C153 348 153.9 349.7 154 349.9C154.3 350.4 155 352.3 155.7 352.5C169.6 355.1 182.2 364.6 196.8 362C201.2 361.2 205.4 359.8 209.9 359.5C210.2 359.5 209.2 357.3 209.1 357.1C208.8 356.6 208.1 355 207.5 355Z" fill="white"/>
</g>
<mask id="mask43_201_711" style="mask-type:luminance" maskUnits="userSpaceOnUse" x="51" y="51" width="398" height="398">
<path d="M250 448.5C359.629 448.5 448.5 359.629 448.5 250C448.5 140.371 359.629 51.5 250 51.5C140.371 51.5 51.5 140.371 51.5 250C51.5 359.629 140.371 448.5 250 448.5Z" fill="white"/>
</mask>
<g mask="url(#mask43_201_711)">
<path d="M140.1 311.7C127.4 300 114.2 287.7 108 271.2C107.6 270.2 106.3 269.1 105.2 269.2C104 269.3 103.9 270.5 104.3 271.4C109.4 284.8 119 295.8 129.1 305.7C132 308.5 134.9 311.3 137.9 314C138.6 314.6 139.9 315.5 140.8 314.6C141.6 313.8 140.8 312.3 140.1 311.7Z" fill="white"/>
</g>
<mask id="mask44_201_711" style="mask-type:luminance" maskUnits="userSpaceOnUse" x="51" y="51" width="398" height="398">
<path d="M250 448.5C359.629 448.5 448.5 359.629 448.5 250C448.5 140.371 359.629 51.5 250 51.5C140.371 51.5 51.5 140.371 51.5 250C51.5 359.629 140.371 448.5 250 448.5Z" fill="white"/>
</mask>
<g mask="url(#mask44_201_711)">
<path d="M107.9 232.7C105 219.7 105.1 206.1 108.2 193.1C108.4 192.3 107.3 190.9 106.8 190.3C106.7 190.1 105.4 188.6 105.3 189.2C102.1 202.4 102.1 216.2 105 229.4C105.2 230.5 106 231.5 106.7 232.4C106.9 232.6 108.1 233.7 107.9 232.7Z" fill="white"/>
</g>
<mask id="mask45_201_711" style="mask-type:luminance" maskUnits="userSpaceOnUse" x="51" y="51" width="398" height="398">
<path d="M250 448.5C359.629 448.5 448.5 359.629 448.5 250C448.5 140.371 359.629 51.5 250 51.5C140.371 51.5 51.5 140.371 51.5 250C51.5 359.629 140.371 448.5 250 448.5Z" fill="white"/>
</mask>
<g mask="url(#mask45_201_711)">
<path d="M137.3 172C138.4 164.6 136.6 157.1 138 149.8C139.4 142.9 143.7 137.3 148 131.9C148.8 130.9 144.2 129.5 143.3 130.6C139 135.9 134.6 141.6 133.1 148.4C131.5 155.9 133.4 163.6 132.3 171.1C132.2 172.3 137.1 173.2 137.3 172Z" fill="white"/>
</g>
<mask id="mask46_201_711" style="mask-type:luminance" maskUnits="userSpaceOnUse" x="51" y="51" width="398" height="398">
<path d="M250 448.5C359.629 448.5 448.5 359.629 448.5 250C448.5 140.371 359.629 51.5 250 51.5C140.371 51.5 51.5 140.371 51.5 250C51.5 359.629 140.371 448.5 250 448.5Z" fill="white"/>
</mask>
<g mask="url(#mask46_201_711)">
<path d="M175.1 143.7C179.4 130.9 186.7 119.1 196.3 109.5C199.1 106.8 202 104.2 205.1 101.8C207 100.4 202.9 97.5001 201.2 98.8001C190.3 107.1 181.3 118.1 175.2 130.4C173.4 133.9 171.9 137.6 170.7 141.4C170.3 142.5 171.2 143.5 172.2 144C172.9 144.3 174.8 144.8 175.1 143.7Z" fill="white"/>
</g>
<mask id="mask47_201_711" style="mask-type:luminance" maskUnits="userSpaceOnUse" x="51" y="51" width="398" height="398">
<path d="M250 448.5C359.629 448.5 448.5 359.629 448.5 250C448.5 140.371 359.629 51.5 250 51.5C140.371 51.5 51.5 140.371 51.5 250C51.5 359.629 140.371 448.5 250 448.5Z" fill="white"/>
</mask>
<g mask="url(#mask47_201_711)">
<path d="M219.3 110.1C230.5 100.9 244.4 95.4001 258.7 93.7001C259.7 93.6001 260.7 92.8001 261.4 92.3001C261.6 92.2001 263 90.9001 262.6 91.0001C245.8 93.1001 229.8 100.3 216.7 111C216.4 111.3 215.3 111.9 216.2 111.9C217.2 111.8 218.7 110.6 219.3 110.1Z" fill="white"/>
</g>
<mask id="mask48_201_711" style="mask-type:luminance" maskUnits="userSpaceOnUse" x="51" y="51" width="398" height="398">
<path d="M250 448.5C359.629 448.5 448.5 359.629 448.5 250C448.5 140.371 359.629 51.5 250 51.5C140.371 51.5 51.5 140.371 51.5 250C51.5 359.629 140.371 448.5 250 448.5Z" fill="white"/>
</mask>
<g mask="url(#mask48_201_711)">
<path d="M265.3 113.8C281.9 106.7 300.2 103.8 318.2 105.1C319.2 105.2 318.5 103.3 318.3 102.9C317.9 102.1 317 100.9 315.9 100.8C297.7 99.4 279.3 102.5 262.4 109.6C261.3 110.2 263.8 114.4 265.3 113.8Z" fill="white"/>
</g>
<mask id="mask49_201_711" style="mask-type:luminance" maskUnits="userSpaceOnUse" x="51" y="51" width="398" height="398">
<path d="M250 448.5C359.629 448.5 448.5 359.629 448.5 250C448.5 140.371 359.629 51.5 250 51.5C140.371 51.5 51.5 140.371 51.5 250C51.5 359.629 140.371 448.5 250 448.5Z" fill="white"/>
</mask>
<g mask="url(#mask49_201_711)">
<path d="M348.2 132.3C363.7 138.8 377.7 148.4 389.3 160.6C390.4 161.8 395.2 160.8 393.6 159.1C381.8 146.8 367.4 137 351.7 130.3C350.6 129.9 349.2 129.8 348.2 130.5C347.3 130.9 347.2 131.8 348.2 132.3Z" fill="white"/>
</g>
<mask id="mask50_201_711" style="mask-type:luminance" maskUnits="userSpaceOnUse" x="51" y="51" width="398" height="398">
<path d="M250 448.5C359.629 448.5 448.5 359.629 448.5 250C448.5 140.371 359.629 51.5 250 51.5C140.371 51.5 51.5 140.371 51.5 250C51.5 359.629 140.371 448.5 250 448.5Z" fill="white"/>
</mask>
<g mask="url(#mask50_201_711)">
<path d="M388.4 177.3C391.6 183.5 396.1 188.9 399 195.3C401.9 201.8 403.1 208.9 404.4 215.9C404.5 216.4 406.3 216.7 406.7 216.8C406.9 216.8 409.2 217.3 409.2 217.1C408 210.1 406.7 203 403.8 196.5C401 190.1 396.4 184.7 393.2 178.5C392.9 177.9 391.4 177.7 390.9 177.6C390.3 177.5 389.7 177.3 389.2 177.3C389.1 177.2 388.4 177.2 388.4 177.3Z" fill="white"/>
</g>
<mask id="mask51_201_711" style="mask-type:luminance" maskUnits="userSpaceOnUse" x="51" y="51" width="398" height="398">
<path d="M250 448.5C359.629 448.5 448.5 359.629 448.5 250C448.5 140.371 359.629 51.5 250 51.5C140.371 51.5 51.5 140.371 51.5 250C51.5 359.629 140.371 448.5 250 448.5Z" fill="white"/>
</mask>
<g mask="url(#mask51_201_711)">
<path d="M402.4 246.7C403.9 254.6 404.8 262.5 405.1 270.5C405.2 272.3 409.8 274.1 409.7 272C409.3 263.7 408.4 255.5 406.8 247.3C406.6 245.7 402 244.2 402.4 246.7Z" fill="white"/>
</g>
<mask id="mask52_201_711" style="mask-type:luminance" maskUnits="userSpaceOnUse" x="51" y="51" width="398" height="398">
<path d="M250 448.5C359.629 448.5 448.5 359.629 448.5 250C448.5 140.371 359.629 51.5 250 51.5C140.371 51.5 51.5 140.371 51.5 250C51.5 359.629 140.371 448.5 250 448.5Z" fill="white"/>
</mask>
<g mask="url(#mask52_201_711)">
<path d="M399.4 321.4C397.5 330.4 394.7 339.3 391 347.7C389.9 350.1 394.8 350.1 395.5 348.3C399.4 339.6 402.3 330.5 404.3 321.2C404.7 319.1 399.8 319.5 399.4 321.4Z" fill="white"/>
</g>
<mask id="mask53_201_711" style="mask-type:luminance" maskUnits="userSpaceOnUse" x="51" y="51" width="398" height="398">
<path d="M250 448.5C359.629 448.5 448.5 359.629 448.5 250C448.5 140.371 359.629 51.5 250 51.5C140.371 51.5 51.5 140.371 51.5 250C51.5 359.629 140.371 448.5 250 448.5Z" fill="white"/>
</mask>
<g mask="url(#mask53_201_711)">
<path d="M354.7 358.9C348.3 366.8 340.4 373.3 331.4 378.2C330.4 378.7 329.9 380.2 330.7 381.1C331.6 382.1 333 381.8 334.1 381.3C343.4 376.3 351.7 369.4 358.3 361.2C360.4 358.7 356.4 356.8 354.7 358.9Z" fill="white"/>
</g>
<mask id="mask54_201_711" style="mask-type:luminance" maskUnits="userSpaceOnUse" x="51" y="51" width="398" height="398">
<path d="M250 448.5C359.629 448.5 448.5 359.629 448.5 250C448.5 140.371 359.629 51.5 250 51.5C140.371 51.5 51.5 140.371 51.5 250C51.5 359.629 140.371 448.5 250 448.5Z" fill="white"/>
</mask>
<g mask="url(#mask54_201_711)">
<path d="M313.8 375.2C302.9 385.7 290.3 394.3 276.6 400.6C276 400.9 277.7 401.9 277.9 402C278.5 402.3 280.1 403.3 280.8 403C294.7 396.7 307.4 388 318.3 377.4C318.5 377.2 314.6 374.4 313.8 375.2Z" fill="white"/>
</g>
<mask id="mask55_201_711" style="mask-type:luminance" maskUnits="userSpaceOnUse" x="51" y="51" width="398" height="398">
<path d="M250 448.5C359.629 448.5 448.5 359.629 448.5 250C448.5 140.371 359.629 51.5 250 51.5C140.371 51.5 51.5 140.371 51.5 250C51.5 359.629 140.371 448.5 250 448.5Z" fill="white"/>
</mask>
<g mask="url(#mask55_201_711)">
<path d="M251.6 372.2C239.7 379.4 226.4 384.3 212.7 386.3C211.6 386.5 210.4 387.1 210.6 388.4C210.8 389.6 212.3 390.5 213.4 390.3C228 388.1 242 383.1 254.7 375.5C257.3 374 253.8 370.9 251.6 372.2Z" fill="white"/>
</g>
<mask id="mask56_201_711" style="mask-type:luminance" maskUnits="userSpaceOnUse" x="51" y="51" width="398" height="398">
<path d="M250 448.5C359.629 448.5 448.5 359.629 448.5 250C448.5 140.371 359.629 51.5 250 51.5C140.371 51.5 51.5 140.371 51.5 250C51.5 359.629 140.371 448.5 250 448.5Z" fill="white"/>
</mask>
<g mask="url(#mask56_201_711)">
<path d="M180.6 343.4C170.7 342.3 161 340 151.7 336.2C151.3 336 150.2 335.6 150.6 336.3C151 337.1 152.8 337.7 153.6 338C163.4 342 173.7 344.6 184.2 345.7C185.2 345.8 183.9 344.9 183.7 344.8C182.9 344.2 181.7 343.5 180.6 343.4Z" fill="white"/>
</g>
<mask id="mask57_201_711" style="mask-type:luminance" maskUnits="userSpaceOnUse" x="51" y="51" width="398" height="398">
<path d="M250 448.5C359.629 448.5 448.5 359.629 448.5 250C448.5 140.371 359.629 51.5 250 51.5C140.371 51.5 51.5 140.371 51.5 250C51.5 359.629 140.371 448.5 250 448.5Z" fill="white"/>
</mask>
<g mask="url(#mask57_201_711)">
<path d="M123.1 322.5C110.7 311.6 100.3 298.5 92.5998 283.9C92.0998 283 90.4998 282.8 89.5998 282.8C89.1998 282.8 87.1998 282.9 87.6998 283.8C95.4998 298.6 106 311.9 118.6 322.9C119.4 323.6 120.9 323.8 121.9 323.7C122.6 323.6 123.9 323.2 123.1 322.5Z" fill="white"/>
</g>
<mask id="mask58_201_711" style="mask-type:luminance" maskUnits="userSpaceOnUse" x="51" y="51" width="398" height="398">
<path d="M250 448.5C359.629 448.5 448.5 359.629 448.5 250C448.5 140.371 359.629 51.5 250 51.5C140.371 51.5 51.5 140.371 51.5 250C51.5 359.629 140.371 448.5 250 448.5Z" fill="white"/>
</mask>
<g mask="url(#mask58_201_711)">
<path d="M102.7 250.9C96.4001 236.8 93.3001 221.4 93.8001 205.9C93.8001 205.6 89.1001 206.3 89.1001 207.6C88.6001 223.1 91.7001 238.5 98.0001 252.6C98.3001 253.5 103 251.6 102.7 250.9Z" fill="white"/>
</g>
<mask id="mask59_201_711" style="mask-type:luminance" maskUnits="userSpaceOnUse" x="51" y="51" width="398" height="398">
<path d="M250 448.5C359.629 448.5 448.5 359.629 448.5 250C448.5 140.371 359.629 51.5 250 51.5C140.371 51.5 51.5 140.371 51.5 250C51.5 359.629 140.371 448.5 250 448.5Z" fill="white"/>
</mask>
<g mask="url(#mask59_201_711)">
<path d="M114.4 169.6C116.4 152.2 121.9 135.4 130.6 120.2C131.1 119.3 129.7 119.7 129.3 119.8C128.4 120.2 127 120.9 126.5 121.8C117.7 137.1 112.1 154.2 110.1 171.7C110 172.5 111.8 171.7 112 171.5C112.6 171.3 114.3 170.5 114.4 169.6Z" fill="white"/>
</g>
<mask id="mask60_201_711" style="mask-type:luminance" maskUnits="userSpaceOnUse" x="51" y="51" width="398" height="398">
<path d="M250 448.5C359.629 448.5 448.5 359.629 448.5 250C448.5 140.371 359.629 51.5 250 51.5C140.371 51.5 51.5 140.371 51.5 250C51.5 359.629 140.371 448.5 250 448.5Z" fill="white"/>
</mask>
<g mask="url(#mask60_201_711)">
<path d="M157.5 115.2C168 106.1 179.1 97.6999 190.6 89.9999C191.4 89.3999 191.9 88.2999 191 87.5999C190.1 86.8999 188.4 87.0999 187.5 87.6999C175.6 95.5999 164.3 104.3 153.5 113.6C152.6 114.3 153 115.5 154 115.9C155.2 116.4 156.6 116 157.5 115.2Z" fill="white"/>
</g>
<mask id="mask61_201_711" style="mask-type:luminance" maskUnits="userSpaceOnUse" x="51" y="51" width="398" height="398">
<path d="M250 448.5C359.629 448.5 448.5 359.629 448.5 250C448.5 140.371 359.629 51.5 250 51.5C140.371 51.5 51.5 140.371 51.5 250C51.5 359.629 140.371 448.5 250 448.5Z" fill="white"/>
</mask>
<g mask="url(#mask61_201_711)">
<path d="M227.2 90.7001C239.2 83.4001 253.6 82.6001 267.2 82.0001C269.1 81.9001 266.9 77.5001 265.2 77.6001C251.3 78.3001 236.7 79.2001 224.5 86.6001C223 87.4001 225.7 91.6001 227.2 90.7001Z" fill="white"/>
</g>
<mask id="mask62_201_711" style="mask-type:luminance" maskUnits="userSpaceOnUse" x="51" y="51" width="398" height="398">
<path d="M250 448.5C359.629 448.5 448.5 359.629 448.5 250C448.5 140.371 359.629 51.5 250 51.5C140.371 51.5 51.5 140.371 51.5 250C51.5 359.629 140.371 448.5 250 448.5Z" fill="white"/>
</mask>
<g mask="url(#mask62_201_711)">
<path d="M304.6 87.8C319.2 87.4 333.7 89.6 347.5 94.2C348.6 94.6 350 94.6 351 94.2C351.9 93.9 351.9 93.4 351 93.1C336.1 88 320.3 85.7 304.5 86.2C304 86.2 302 86.2 302 87C302.1 87.8 304.2 87.8 304.6 87.8Z" fill="white"/>
</g>
<mask id="mask63_201_711" style="mask-type:luminance" maskUnits="userSpaceOnUse" x="51" y="51" width="398" height="398">
<path d="M250 448.5C359.629 448.5 448.5 359.629 448.5 250C448.5 140.371 359.629 51.5 250 51.5C140.371 51.5 51.5 140.371 51.5 250C51.5 359.629 140.371 448.5 250 448.5Z" fill="white"/>
</mask>
<g mask="url(#mask63_201_711)">
<path d="M356.1 109.9C368.9 116.4 380.6 124.9 390.5 135.2C390.7 135.4 392.2 137 392.6 136.7C392.9 136.4 391.3 134.7 391.2 134.6C380.3 123.2 367.5 113.6 353.5 106.5C352.6 106 353.5 107.4 353.7 107.6C354.3 108.4 355.2 109.4 356.1 109.9Z" fill="white"/>
</g>
<mask id="mask64_201_711" style="mask-type:luminance" maskUnits="userSpaceOnUse" x="51" y="51" width="398" height="398">
<path d="M250 448.5C359.629 448.5 448.5 359.629 448.5 250C448.5 140.371 359.629 51.5 250 51.5C140.371 51.5 51.5 140.371 51.5 250C51.5 359.629 140.371 448.5 250 448.5Z" fill="white"/>
</mask>
<g mask="url(#mask64_201_711)">
<path d="M407.5 168.5C412.7 179.1 418 189.6 423.2 200.2C423.7 201.2 424.6 202.2 425.5 202.8C426.2 203.3 426.5 203.1 426.1 202.3C420.9 191.7 415.6 181.2 410.4 170.6C409.9 169.6 409 168.6 408.1 168C407.4 167.5 407.1 167.7 407.5 168.5Z" fill="white"/>
</g>
<mask id="mask65_201_711" style="mask-type:luminance" maskUnits="userSpaceOnUse" x="51" y="51" width="398" height="398">
<path d="M250 448.5C359.629 448.5 448.5 359.629 448.5 250C448.5 140.371 359.629 51.5 250 51.5C140.371 51.5 51.5 140.371 51.5 250C51.5 359.629 140.371 448.5 250 448.5Z" fill="white"/>
</mask>
<g mask="url(#mask65_201_711)">
<path d="M425.5 223.2C426.6 234.3 427.6 245.4 428.7 256.5C428.9 258.2 433.7 259.1 433.5 257.1C432.4 246 431.4 234.9 430.3 223.8C430.2 222.2 425.3 221.3 425.5 223.2Z" fill="white"/>
</g>
<mask id="mask66_201_711" style="mask-type:luminance" maskUnits="userSpaceOnUse" x="51" y="51" width="398" height="398">
<path d="M250 448.5C359.629 448.5 448.5 359.629 448.5 250C448.5 140.371 359.629 51.5 250 51.5C140.371 51.5 51.5 140.371 51.5 250C51.5 359.629 140.371 448.5 250 448.5Z" fill="white"/>
</mask>
<g mask="url(#mask66_201_711)">
<path d="M426.1 280.3C425 290.7 423.4 301.1 421 311.3C420.7 312.4 425.4 314 425.5 313.5C427.8 303.3 429.5 292.9 430.6 282.5C430.7 281.3 426.1 280 426.1 280.3Z" fill="white"/>
</g>
<mask id="mask67_201_711" style="mask-type:luminance" maskUnits="userSpaceOnUse" x="51" y="51" width="398" height="398">
<path d="M250 448.5C359.629 448.5 448.5 359.629 448.5 250C448.5 140.371 359.629 51.5 250 51.5C140.371 51.5 51.5 140.371 51.5 250C51.5 359.629 140.371 448.5 250 448.5Z" fill="white"/>
</mask>
<g mask="url(#mask67_201_711)">
<path d="M392.9 277.4C392.8 284.3 393 291.2 393.3 298.1C393.4 299.2 398.2 299.6 398.2 299.1C397.8 292.2 397.7 285.3 397.8 278.4C397.8 277.4 392.9 276.9 392.9 277.4Z" fill="white"/>
</g>
<mask id="mask68_201_711" style="mask-type:luminance" maskUnits="userSpaceOnUse" x="51" y="51" width="398" height="398">
<path d="M250 448.5C359.629 448.5 448.5 359.629 448.5 250C448.5 140.371 359.629 51.5 250 51.5C140.371 51.5 51.5 140.371 51.5 250C51.5 359.629 140.371 448.5 250 448.5Z" fill="white"/>
</mask>
<g mask="url(#mask68_201_711)">
<path d="M367 264.5C370.4 269.8 372.9 275.7 374.4 281.8C374.7 283 375.8 284.1 377.1 283.9C378.4 283.7 378.9 282.3 378.7 281.2C377 274.2 374 267.6 370.2 261.5C369.6 260.5 368 260.2 367.1 261.1C365.9 262 366.3 263.5 367 264.5Z" fill="white"/>
</g>
<mask id="mask69_201_711" style="mask-type:luminance" maskUnits="userSpaceOnUse" x="51" y="51" width="398" height="398">
<path d="M250 448.5C359.629 448.5 448.5 359.629 448.5 250C448.5 140.371 359.629 51.5 250 51.5C140.371 51.5 51.5 140.371 51.5 250C51.5 359.629 140.371 448.5 250 448.5Z" fill="white"/>
</mask>
<g mask="url(#mask69_201_711)">
<path d="M375.3 359.8C373.6 369.1 369.8 377.9 364.2 385.6C363.6 386.5 365.5 386.9 366 387C367 387.1 368.4 387 369.1 386.1C374.9 378.3 378.7 369.2 380.4 359.7C380.6 358.3 375.7 358.1 375.3 359.8Z" fill="white"/>
</g>
<mask id="mask70_201_711" style="mask-type:luminance" maskUnits="userSpaceOnUse" x="51" y="51" width="398" height="398">
<path d="M250 448.5C359.629 448.5 448.5 359.629 448.5 250C448.5 140.371 359.629 51.5 250 51.5C140.371 51.5 51.5 140.371 51.5 250C51.5 359.629 140.371 448.5 250 448.5Z" fill="white"/>
</mask>
<g mask="url(#mask70_201_711)">
<path d="M331.6 389.9C322.7 398.3 312.9 405.7 302.4 411.9C301.3 412.6 301.5 414.2 302.3 415C303.2 416 304.7 416.1 305.8 415.4C316.3 409.2 326.1 401.8 335 393.4C337.2 391.2 333.6 388 331.6 389.9Z" fill="white"/>
</g>
<mask id="mask71_201_711" style="mask-type:luminance" maskUnits="userSpaceOnUse" x="51" y="51" width="398" height="398">
<path d="M250 448.5C359.629 448.5 448.5 359.629 448.5 250C448.5 140.371 359.629 51.5 250 51.5C140.371 51.5 51.5 140.371 51.5 250C51.5 359.629 140.371 448.5 250 448.5Z" fill="white"/>
</mask>
<g mask="url(#mask71_201_711)">
<path d="M255.4 393.8C242.9 401.7 228.7 406.4 213.9 406.9C212.8 406.9 211.5 407.2 210.4 407.6C209.7 407.9 209.6 408.1 210.5 408.1C227.9 407.5 245.3 402.4 260.1 393C260.5 392.8 258.4 392.9 258.3 392.9C257.4 393.1 256.2 393.2 255.4 393.8Z" fill="white"/>
</g>
<mask id="mask72_201_711" style="mask-type:luminance" maskUnits="userSpaceOnUse" x="51" y="51" width="398" height="398">
<path d="M250 448.5C359.629 448.5 448.5 359.629 448.5 250C448.5 140.371 359.629 51.5 250 51.5C140.371 51.5 51.5 140.371 51.5 250C51.5 359.629 140.371 448.5 250 448.5Z" fill="white"/>
</mask>
<g mask="url(#mask72_201_711)">
<path d="M194.3 375.9C182 375.1 168.7 377.4 157.4 371.5C155.9 370.7 152 373.6 153.5 374.4C165.2 380.5 178.5 378.2 191.1 379.1C192.3 379.2 193.5 378.6 194.3 377.8C194.8 377.4 195.5 376 194.3 375.9Z" fill="white"/>
</g>
<mask id="mask73_201_711" style="mask-type:luminance" maskUnits="userSpaceOnUse" x="51" y="51" width="398" height="398">
<path d="M250 448.5C359.629 448.5 448.5 359.629 448.5 250C448.5 140.371 359.629 51.5 250 51.5C140.371 51.5 51.5 140.371 51.5 250C51.5 359.629 140.371 448.5 250 448.5Z" fill="white"/>
</mask>
<g mask="url(#mask73_201_711)">
<path d="M139.2 351.2C130 345 121.4 338 113.5 330.3C112.9 329.7 112.5 329.9 112.7 330.7C112.9 331.8 113.7 333 114.4 333.8C122.6 341.7 131.4 348.9 140.8 355.3C141.7 355.9 141.3 354.4 141.1 354.1C140.7 353.1 140.1 351.8 139.2 351.2Z" fill="white"/>
</g>
<mask id="mask74_201_711" style="mask-type:luminance" maskUnits="userSpaceOnUse" x="51" y="51" width="398" height="398">
<path d="M250 448.5C359.629 448.5 448.5 359.629 448.5 250C448.5 140.371 359.629 51.5 250 51.5C140.371 51.5 51.5 140.371 51.5 250C51.5 359.629 140.371 448.5 250 448.5Z" fill="white"/>
</mask>
<g mask="url(#mask74_201_711)">
<path d="M81.9999 288C79.0999 279.2 77.1999 270.1 76.1999 260.9C76.0999 259.9 75.3999 258.9 74.8999 258.1C74.6999 257.7 74.3999 257.1 74.0999 256.9C73.9999 256.9 73.6999 256.5 73.7999 256.8C74.7999 266.2 76.7999 275.5 79.6999 284.4C80.0999 285.5 80.5999 286.5 81.1999 287.5C81.2999 287.6 82.2999 288.9 81.9999 288Z" fill="white"/>
</g>
<mask id="mask75_201_711" style="mask-type:luminance" maskUnits="userSpaceOnUse" x="51" y="51" width="398" height="398">
<path d="M250 448.5C359.629 448.5 448.5 359.629 448.5 250C448.5 140.371 359.629 51.5 250 51.5C140.371 51.5 51.5 140.371 51.5 250C51.5 359.629 140.371 448.5 250 448.5Z" fill="white"/>
</mask>
<g mask="url(#mask75_201_711)">
<path d="M82 199.4C83.8 191.6 86.3 184 89.5 176.7C90.1 175.3 85.7 172.9 85.2 174.1C82 181.4 79.5 189 77.7 196.8C77.3 198.4 81.7 200.5 82 199.4Z" fill="white"/>
</g>
<mask id="mask76_201_711" style="mask-type:luminance" maskUnits="userSpaceOnUse" x="51" y="51" width="398" height="398">
<path d="M250 448.5C359.629 448.5 448.5 359.629 448.5 250C448.5 140.371 359.629 51.5 250 51.5C140.371 51.5 51.5 140.371 51.5 250C51.5 359.629 140.371 448.5 250 448.5Z" fill="white"/>
</mask>
<g mask="url(#mask76_201_711)">
<path d="M273.2 415C257.6 420 241.6 423.7 225.3 426C224.4 426.1 223.5 426.7 224 427.7C224.6 428.6 226.3 429 227.3 428.9C243.9 426.6 260.3 422.8 276.3 417.7C277.3 417.4 277.4 416.5 276.7 415.8C275.9 415 274.3 414.7 273.2 415Z" fill="white"/>
</g>
<mask id="mask77_201_711" style="mask-type:luminance" maskUnits="userSpaceOnUse" x="51" y="51" width="398" height="398">
<path d="M250 448.5C359.629 448.5 448.5 359.629 448.5 250C448.5 140.371 359.629 51.5 250 51.5C140.371 51.5 51.5 140.371 51.5 250C51.5 359.629 140.371 448.5 250 448.5Z" fill="white"/>
</mask>
<g mask="url(#mask77_201_711)">
<path d="M187.7 410.3C177.8 407.3 168.4 402.7 160 396.7C159 396 157.6 395.7 156.5 396.2C155.6 396.6 155.3 397.7 156.2 398.3C165.3 404.8 175.3 409.7 186 413C186.9 413.3 188.6 413.4 189.2 412.4C189.7 411.4 188.5 410.6 187.7 410.3Z" fill="white"/>
</g>
<mask id="mask78_201_711" style="mask-type:luminance" maskUnits="userSpaceOnUse" x="51" y="51" width="398" height="398">
<path d="M250 448.5C359.629 448.5 448.5 359.629 448.5 250C448.5 140.371 359.629 51.5 250 51.5C140.371 51.5 51.5 140.371 51.5 250C51.5 359.629 140.371 448.5 250 448.5Z" fill="white"/>
</mask>
<g mask="url(#mask78_201_711)">
<path d="M178.2 389.9C167.1 387.8 156.4 384 146.4 378.6C145.5 378.1 143.8 378.1 143.1 379C142.4 380 143.4 381 144.3 381.5C154.6 387.1 165.8 391.1 177.3 393.3C178.3 393.5 179.8 393.4 180.1 392.2C180.5 391 179.1 390 178.2 389.9Z" fill="white"/>
</g>
<mask id="mask79_201_711" style="mask-type:luminance" maskUnits="userSpaceOnUse" x="51" y="51" width="398" height="398">
<path d="M250 448.5C359.629 448.5 448.5 359.629 448.5 250C448.5 140.371 359.629 51.5 250 51.5C140.371 51.5 51.5 140.371 51.5 250C51.5 359.629 140.371 448.5 250 448.5Z" fill="white"/>
</mask>
<g mask="url(#mask79_201_711)">
<path d="M122.1 359C115 352.6 108.6 345.5 102.9 337.8C102.2 336.9 101 336.1 99.8999 335.9C98.9999 335.7 98.5998 336.2 99.1998 337C105 345 111.7 352.4 119.1 359C119.9 359.7 121.1 360.6 122.2 360.5C123.2 360.4 122.6 359.4 122.1 359Z" fill="white"/>
</g>
<mask id="mask80_201_711" style="mask-type:luminance" maskUnits="userSpaceOnUse" x="51" y="51" width="398" height="398">
<path d="M250 448.5C359.629 448.5 448.5 359.629 448.5 250C448.5 140.371 359.629 51.5 250 51.5C140.371 51.5 51.5 140.371 51.5 250C51.5 359.629 140.371 448.5 250 448.5Z" fill="white"/>
</mask>
<g mask="url(#mask80_201_711)">
<path d="M103.8 357.8C93.6999 345.4 84.1999 332.6 75.1999 319.4C74.4999 318.4 72.9999 318.1 72.0999 319C71.0999 320 71.4999 321.4 72.1999 322.4C81.1999 335.6 90.7999 348.4 100.8 360.8C101.5 361.7 103 362.1 103.9 361.2C104.8 360.3 104.6 358.7 103.8 357.8Z" fill="white"/>
</g>
<mask id="mask81_201_711" style="mask-type:luminance" maskUnits="userSpaceOnUse" x="51" y="51" width="398" height="398">
<path d="M250 448.5C359.629 448.5 448.5 359.629 448.5 250C448.5 140.371 359.629 51.5 250 51.5C140.371 51.5 51.5 140.371 51.5 250C51.5 359.629 140.371 448.5 250 448.5Z" fill="white"/>
</mask>
<g mask="url(#mask81_201_711)">
<path d="M134.4 391.4C127.5 385.1 121.1 378.3 115.4 370.9C114.6 369.9 113.2 369.5 112 370.1C111 370.6 110.2 371.9 111 372.9C116.9 380.6 123.6 387.8 130.8 394.3C131.7 395.1 133.4 395.2 134.3 394.4C135.3 393.6 135.3 392.2 134.4 391.4Z" fill="white"/>
</g>
<mask id="mask82_201_711" style="mask-type:luminance" maskUnits="userSpaceOnUse" x="51" y="51" width="398" height="398">
<path d="M250 448.5C359.629 448.5 448.5 359.629 448.5 250C448.5 140.371 359.629 51.5 250 51.5C140.371 51.5 51.5 140.371 51.5 250C51.5 359.629 140.371 448.5 250 448.5Z" fill="white"/>
</mask>
<g mask="url(#mask82_201_711)">
<path d="M84.9001 305.7C81.1001 296.4 77.7001 287 74.6001 277.4C74.2001 276.2 73.2001 275.2 71.8001 275.3C70.6001 275.4 69.5001 276.6 69.9001 277.8C73.1001 287.8 76.6001 297.6 80.5001 307.2C81.7001 309.9 86.2001 308.7 84.9001 305.7Z" fill="white"/>
</g>
<mask id="mask83_201_711" style="mask-type:luminance" maskUnits="userSpaceOnUse" x="51" y="51" width="398" height="398">
<path d="M250 448.5C359.629 448.5 448.5 359.629 448.5 250C448.5 140.371 359.629 51.5 250 51.5C140.371 51.5 51.5 140.371 51.5 250C51.5 359.629 140.371 448.5 250 448.5Z" fill="white"/>
</mask>
<g mask="url(#mask83_201_711)">
<path d="M69.3998 251.2C68.5998 240.5 68.1998 229.8 68.1998 219.1C68.1998 218.2 66.8998 217.2 66.1998 216.7C65.9998 216.5 64.2998 215.4 64.2998 216.2C64.2998 226.9 64.6998 237.6 65.4998 248.3C65.5998 249.2 66.7998 250.2 67.4998 250.7C67.6998 250.9 69.3998 252 69.3998 251.2Z" fill="white"/>
</g>
<mask id="mask84_201_711" style="mask-type:luminance" maskUnits="userSpaceOnUse" x="51" y="51" width="398" height="398">
<path d="M250 448.5C359.629 448.5 448.5 359.629 448.5 250C448.5 140.371 359.629 51.5 250 51.5C140.371 51.5 51.5 140.371 51.5 250C51.5 359.629 140.371 448.5 250 448.5Z" fill="white"/>
</mask>
<g mask="url(#mask84_201_711)">
<path d="M98.8002 154.1C103.4 144.2 109.2 134.9 115.9 126.3C117.7 124 113.2 122.2 111.8 124C104.9 132.9 98.9002 142.5 94.1002 152.6C93.0002 155.1 97.8002 156.2 98.8002 154.1Z" fill="white"/>
</g>
<mask id="mask85_201_711" style="mask-type:luminance" maskUnits="userSpaceOnUse" x="51" y="51" width="398" height="398">
<path d="M250 448.5C359.629 448.5 448.5 359.629 448.5 250C448.5 140.371 359.629 51.5 250 51.5C140.371 51.5 51.5 140.371 51.5 250C51.5 359.629 140.371 448.5 250 448.5Z" fill="white"/>
</mask>
<g mask="url(#mask85_201_711)">
<path d="M145.9 97.8C152.3 93.1 159 88.8 165.9 85C167.1 84.4 164.8 79.9 163.7 80.5C156.8 84.3 150.1 88.6 143.7 93.3C142.6 94.1 145.1 98.4 145.9 97.8Z" fill="white"/>
</g>
<mask id="mask86_201_711" style="mask-type:luminance" maskUnits="userSpaceOnUse" x="51" y="51" width="398" height="398">
<path d="M250 448.5C359.629 448.5 448.5 359.629 448.5 250C448.5 140.371 359.629 51.5 250 51.5C140.371 51.5 51.5 140.371 51.5 250C51.5 359.629 140.371 448.5 250 448.5Z" fill="white"/>
</mask>
<g mask="url(#mask86_201_711)">
<path d="M194.9 73.5C203.4 70.8 212.2 69.1 221.1 68.4C222.3 68.3 222.4 66.8 222 66C221.4 64.9 220.2 64.2 219 64.3C210.1 65 201.3 66.7 192.8 69.4C190.1 70.2 192.8 74.2 194.9 73.5Z" fill="white"/>
</g>
<mask id="mask87_201_711" style="mask-type:luminance" maskUnits="userSpaceOnUse" x="51" y="51" width="398" height="398">
<path d="M250 448.5C359.629 448.5 448.5 359.629 448.5 250C448.5 140.371 359.629 51.5 250 51.5C140.371 51.5 51.5 140.371 51.5 250C51.5 359.629 140.371 448.5 250 448.5Z" fill="white"/>
</mask>
<g mask="url(#mask87_201_711)">
<path d="M252.5 66.7001C258.2 66.3001 264 66.4001 269.7 67.1001C270.7 67.2001 271.3 66.7001 271 65.6001C270.7 64.6001 269.5 63.4001 268.4 63.3001C262.4 62.6001 256.3 62.4001 250.3 62.8001C249.2 62.9001 249.3 64.1001 249.7 64.8001C250.1 65.7001 251.4 66.8001 252.5 66.7001Z" fill="white"/>
</g>
<mask id="mask88_201_711" style="mask-type:luminance" maskUnits="userSpaceOnUse" x="51" y="51" width="398" height="398">
<path d="M250 448.5C359.629 448.5 448.5 359.629 448.5 250C448.5 140.371 359.629 51.5 250 51.5C140.371 51.5 51.5 140.371 51.5 250C51.5 359.629 140.371 448.5 250 448.5Z" fill="white"/>
</mask>
<g mask="url(#mask88_201_711)">
<path d="M306.6 73C311.5 73.4 316 75.5 320.4 77.4C325.2 79.5 330.1 81.7 335.3 82.7C335.8 82.8 337.7 83.2 337.9 82.4C338.1 81.6 336.1 81.1 335.6 81C330.5 80 325.9 77.7 321.2 75.7C316.2 73.5 311 71.6 305.5 71.1C305 71.1 303.4 70.9 303.6 71.8C303.9 72.6 306 72.9 306.6 73Z" fill="white"/>
</g>
<mask id="mask89_201_711" style="mask-type:luminance" maskUnits="userSpaceOnUse" x="51" y="51" width="398" height="398">
<path d="M250 448.5C359.629 448.5 448.5 359.629 448.5 250C448.5 140.371 359.629 51.5 250 51.5C140.371 51.5 51.5 140.371 51.5 250C51.5 359.629 140.371 448.5 250 448.5Z" fill="white"/>
</mask>
<g mask="url(#mask89_201_711)">
<path d="M354.5 93.4001C359.7 96.7001 364.6 100.5 369.1 104.8C369.6 105.3 370.7 105.9 371 104.8C371.3 103.8 370.6 102.3 369.8 101.6C365.1 97.0001 360 93.0001 354.4 89.5001C353.6 89.0001 352.8 89.2001 352.9 90.3001C352.9 91.3001 353.5 92.8001 354.5 93.4001Z" fill="white"/>
</g>
<mask id="mask90_201_711" style="mask-type:luminance" maskUnits="userSpaceOnUse" x="51" y="51" width="398" height="398">
<path d="M250 448.5C359.629 448.5 448.5 359.629 448.5 250C448.5 140.371 359.629 51.5 250 51.5C140.371 51.5 51.5 140.371 51.5 250C51.5 359.629 140.371 448.5 250 448.5Z" fill="white"/>
</mask>
<g mask="url(#mask90_201_711)">
<path d="M332 117.3C340.7 118.4 349.3 120.6 357.5 123.8C358.6 124.2 358.9 122.8 358.7 122.1C358.5 120.9 357.7 119.8 356.6 119.4C348.4 116.2 339.9 114 331.1 112.9C328.6 112.6 330.3 117.1 332 117.3Z" fill="white"/>
</g>
<mask id="mask91_201_711" style="mask-type:luminance" maskUnits="userSpaceOnUse" x="51" y="51" width="398" height="398">
<path d="M250 448.5C359.629 448.5 448.5 359.629 448.5 250C448.5 140.371 359.629 51.5 250 51.5C140.371 51.5 51.5 140.371 51.5 250C51.5 359.629 140.371 448.5 250 448.5Z" fill="white"/>
</mask>
<g mask="url(#mask91_201_711)">
<path d="M407.6 148.7C411 154.3 414.8 159.8 418.8 164.9C420.4 166.9 424.7 164.5 423 162.2C418.9 157 415.2 151.6 411.8 146C411.1 144.9 409.3 145.2 408.4 145.7C407.3 146.4 406.9 147.6 407.6 148.7Z" fill="white"/>
</g>
<mask id="mask92_201_711" style="mask-type:luminance" maskUnits="userSpaceOnUse" x="51" y="51" width="398" height="398">
<path d="M250 448.5C359.629 448.5 448.5 359.629 448.5 250C448.5 140.371 359.629 51.5 250 51.5C140.371 51.5 51.5 140.371 51.5 250C51.5 359.629 140.371 448.5 250 448.5Z" fill="white"/>
</mask>
<g mask="url(#mask92_201_711)">
<path d="M416.5 331C413.9 339.7 410.2 348.1 405.6 355.9C404.8 357.3 409.6 358.1 410.4 356.7C415.1 348.7 418.8 340.1 421.5 331.2C421.8 330 417 329.3 416.5 331Z" fill="white"/>
</g>
<mask id="mask93_201_711" style="mask-type:luminance" maskUnits="userSpaceOnUse" x="51" y="51" width="398" height="398">
<path d="M250 448.5C359.629 448.5 448.5 359.629 448.5 250C448.5 140.371 359.629 51.5 250 51.5C140.371 51.5 51.5 140.371 51.5 250C51.5 359.629 140.371 448.5 250 448.5Z" fill="white"/>
</mask>
<g mask="url(#mask93_201_711)">
<path d="M386.4 376C382.5 380.9 378.7 385.7 374.8 390.6C374.1 391.5 375 392.3 375.8 392.5C376.8 392.7 378.4 392.6 379.2 391.7C383.1 386.8 386.9 382 390.8 377.1C391.5 376.2 390.6 375.4 389.8 375.2C388.8 375 387.1 375.1 386.4 376Z" fill="white"/>
</g>
<mask id="mask94_201_711" style="mask-type:luminance" maskUnits="userSpaceOnUse" x="51" y="51" width="398" height="398">
<path d="M250 448.5C359.629 448.5 448.5 359.629 448.5 250C448.5 140.371 359.629 51.5 250 51.5C140.371 51.5 51.5 140.371 51.5 250C51.5 359.629 140.371 448.5 250 448.5Z" fill="white"/>
</mask>
<g mask="url(#mask94_201_711)">
<path d="M350.9 407.4C342.7 412.8 334.4 417.9 325.8 422.6C325.6 422.7 328.4 426.6 329.4 426C338 421.3 346.3 416.2 354.5 410.8C354.9 410.6 351.8 406.9 350.9 407.4Z" fill="white"/>
</g>
<mask id="mask95_201_711" style="mask-type:luminance" maskUnits="userSpaceOnUse" x="51" y="51" width="398" height="398">
<path d="M250 448.5C359.629 448.5 448.5 359.629 448.5 250C448.5 140.371 359.629 51.5 250 51.5C140.371 51.5 51.5 140.371 51.5 250C51.5 359.629 140.371 448.5 250 448.5Z" fill="white"/>
</mask>
<g mask="url(#mask95_201_711)">
<path d="M286.5 429.9C277.5 431.7 268.5 433.6 259.4 435.4C258.3 435.6 257.5 436.8 258 437.9C258.5 439.1 260 439.5 261.2 439.3C270.2 437.5 279.2 435.6 288.3 433.8C289.4 433.6 290.2 432.4 289.7 431.3C289.2 430.2 287.7 429.7 286.5 429.9Z" fill="white"/>
</g>
<mask id="mask96_201_711" style="mask-type:luminance" maskUnits="userSpaceOnUse" x="51" y="51" width="398" height="398">
<path d="M250 448.5C359.629 448.5 448.5 359.629 448.5 250C448.5 140.371 359.629 51.5 250 51.5C140.371 51.5 51.5 140.371 51.5 250C51.5 359.629 140.371 448.5 250 448.5Z" fill="white"/>
</mask>
<g mask="url(#mask96_201_711)">
<path d="M226.3 437C218.6 434.1 210.9 431.2 203.3 428.3C202.2 427.9 200.8 428.2 200.5 429.5C200.2 430.7 201.2 431.9 202.3 432.3C210 435.2 217.7 438.1 225.3 441C226.4 441.4 227.8 441.1 228.1 439.8C228.4 438.6 227.4 437.4 226.3 437Z" fill="white"/>
</g>
<mask id="mask97_201_711" style="mask-type:luminance" maskUnits="userSpaceOnUse" x="51" y="51" width="398" height="398">
<path d="M250 448.5C359.629 448.5 448.5 359.629 448.5 250C448.5 140.371 359.629 51.5 250 51.5C140.371 51.5 51.5 140.371 51.5 250C51.5 359.629 140.371 448.5 250 448.5Z" fill="white"/>
</mask>
<g mask="url(#mask97_201_711)">
<path d="M176.3 421.6C169.2 417.9 162.5 413.5 156.4 408.4C156.2 408.2 155 407.1 154.9 407.5C154.8 407.9 156.8 409.6 157 409.7C163.9 415.5 171.3 420.6 179.3 424.8C180.2 425.3 179 424 178.9 423.9C178.1 423 177.3 422.1 176.3 421.6Z" fill="white"/>
</g>
</svg>
