<svg width="500" height="500" viewBox="0 0 500 500" fill="none" xmlns="http://www.w3.org/2000/svg">
<mask id="mask0_201_700" style="mask-type:luminance" maskUnits="userSpaceOnUse" x="51" y="51" width="398" height="398">
<path d="M250 448.5C359.629 448.5 448.5 359.629 448.5 250C448.5 140.371 359.629 51.5 250 51.5C140.371 51.5 51.5 140.371 51.5 250C51.5 359.629 140.371 448.5 250 448.5Z" fill="white"/>
</mask>
<g mask="url(#mask0_201_700)">
<path d="M147.7 24.0001C146.2 32.0001 145.5 40.1001 145.5 48.3001C145.5 55.8001 146.1 63.4001 148 70.7001C149.9 77.6001 153.2 83.8001 157.8 89.2001C162.3 94.5001 167.6 99.2001 173.2 103.4C195.4 120.1 223.5 129.3 251.3 124.8C266.3 122.4 280.6 116.2 292.4 106.6C292.6 106.4 290.6 105.1 290.4 105C290.1 104.8 288.5 103.7 288.1 104C267.6 120.7 239.9 126.6 214.2 121.4C201.5 118.9 189.3 113.8 178.7 106.4C167.9 98.9001 157.5 89.1001 153.1 76.3001C150.4 68.6001 149.7 60.3001 149.6 52.2001C149.5 43.6001 150.2 34.9001 151.7 26.4001C151.8 25.9001 150.1 25.0001 149.7 24.8001C149.9 25.0001 147.8 23.8001 147.7 24.0001Z" fill="white"/>
</g>
<mask id="mask1_201_700" style="mask-type:luminance" maskUnits="userSpaceOnUse" x="51" y="51" width="398" height="398">
<path d="M250 448.5C359.629 448.5 448.5 359.629 448.5 250C448.5 140.371 359.629 51.5 250 51.5C140.371 51.5 51.5 140.371 51.5 250C51.5 359.629 140.371 448.5 250 448.5Z" fill="white"/>
</mask>
<g mask="url(#mask1_201_700)">
<path d="M240.8 110.5C244.7 103.1 251.4 97.3999 259 93.8999C267.7 89.7999 277.4 88.4999 287 88.3999C291.7 88.2999 296.5 88.4999 301.2 89.6999C304.7 90.5999 307.9 92.1999 310.9 94.2999C316.9 98.3999 321.4 104.4 324.4 111C327.8 118.6 329 127.1 327.8 135.3C327.7 136.2 332.6 136.9 332.8 135.8C335.2 120.4 328.6 103.8 316 94.4999C308.3 88.8999 298.9 87.0999 289.6 86.8999C279.2 86.6999 268.4 87.5999 258.5 91.2999C249.1 94.7999 240.6 101.1 235.9 110.1C235.6 110.5 240.1 111.8 240.8 110.5Z" fill="white"/>
</g>
<mask id="mask2_201_700" style="mask-type:luminance" maskUnits="userSpaceOnUse" x="51" y="51" width="398" height="398">
<path d="M250 448.5C359.629 448.5 448.5 359.629 448.5 250C448.5 140.371 359.629 51.5 250 51.5C140.371 51.5 51.5 140.371 51.5 250C51.5 359.629 140.371 448.5 250 448.5Z" fill="white"/>
</mask>
<g mask="url(#mask2_201_700)">
<path d="M312.5 124.1C308.8 132.9 311.7 142.9 317.5 150C324 158 334 162.3 343.6 165.4C349.1 167.2 354.7 168.9 360.5 169.8C365.9 170.7 371.4 170.7 376.8 169.7C387.5 167.8 397.5 162.5 405.6 155.4C414.5 147.6 421.3 137.7 426.4 127.1C426.9 126.1 425.4 126.3 424.9 126.5C423.9 126.9 422.8 127.7 422.3 128.7C414 146 400.3 162 380.8 166.2C375.9 167.3 370.9 167.5 365.9 166.9C360.4 166.2 355 164.6 349.8 163C340.5 160.1 330.7 156.5 323.7 149.4C316.9 142.5 312.7 131.8 316.7 122.4C317.1 121.4 315.7 121.6 315.2 121.8C314.1 122.3 312.9 123.1 312.5 124.1Z" fill="white"/>
</g>
<mask id="mask3_201_700" style="mask-type:luminance" maskUnits="userSpaceOnUse" x="51" y="51" width="398" height="398">
<path d="M250 448.5C359.629 448.5 448.5 359.629 448.5 250C448.5 140.371 359.629 51.5 250 51.5C140.371 51.5 51.5 140.371 51.5 250C51.5 359.629 140.371 448.5 250 448.5Z" fill="white"/>
</mask>
<g mask="url(#mask3_201_700)">
<path d="M188.1 52.8C191.2 62 200 67.6 208.4 71.5C218.3 76.2 228.8 79.3 239.7 80.6C245.8 81.4 252.1 81.6 258.2 81.2C259.3 81.1 260.2 80.2 259.8 79.1C259.4 77.9 257.9 77.4 256.7 77.4C246.8 78 236.7 77 227.1 74.4C222.3 73.1 217.6 71.5 213.1 69.6C209 67.8 204.8 65.7 201.2 63C197.4 60.2 194.3 56.7 192.7 52.2C192.1 50.3 187.2 50.1 188.1 52.8Z" fill="white"/>
</g>
<mask id="mask4_201_700" style="mask-type:luminance" maskUnits="userSpaceOnUse" x="51" y="51" width="398" height="398">
<path d="M250 448.5C359.629 448.5 448.5 359.629 448.5 250C448.5 140.371 359.629 51.5 250 51.5C140.371 51.5 51.5 140.371 51.5 250C51.5 359.629 140.371 448.5 250 448.5Z" fill="white"/>
</mask>
<g mask="url(#mask4_201_700)">
<path d="M249 73.0001C260.9 61.6001 278.5 57.9001 294.5 59.3001C310.5 60.7001 326.3 67.8001 335.4 81.5001C340.2 88.6001 342.8 97.0001 342.6 105.5C342.6 106.7 343.5 108 344.6 108.4C345.7 108.8 346.6 108.1 346.6 107C347.1 90.0001 337.2 73.8001 323.2 64.7001C308.3 54.9001 289 52.4001 271.7 56.1001C262.2 58.1001 253.1 62.2001 246.1 69.0001C245.2 69.8001 245.4 71.1001 246.1 72.1001C246.6 72.6001 248.1 73.9001 249 73.0001Z" fill="white"/>
</g>
<mask id="mask5_201_700" style="mask-type:luminance" maskUnits="userSpaceOnUse" x="51" y="51" width="398" height="398">
<path d="M250 448.5C359.629 448.5 448.5 359.629 448.5 250C448.5 140.371 359.629 51.5 250 51.5C140.371 51.5 51.5 140.371 51.5 250C51.5 359.629 140.371 448.5 250 448.5Z" fill="white"/>
</mask>
<g mask="url(#mask5_201_700)">
<path d="M329.9 94.6999C331 98.5999 332.4 102.4 334 106.1C335.5 109.5 337.1 113 339.1 116.1C341.1 119 343.6 121.2 346.9 122.4C350.4 123.7 354.1 124 357.8 124.2C373 125 388.7 121.4 401.4 112.6C407.7 108.3 413 102.7 416.9 96.0999C417.3 95.3999 415.1 95.7999 415 95.8999C414.1 96.0999 412.8 96.4999 412.3 97.3999C406 108.3 395.3 116.4 383.2 119.9C376.4 121.8 369.3 122.5 362.2 122.2C358.9 122 355.4 121.8 352.3 120.8C349 119.8 346.4 117.8 344.3 115C342.1 111.9 340.5 108.4 339 105C337.3 101.2 335.9 97.1999 334.7 93.1999C334.3 92.1999 329.6 93.6999 329.9 94.6999Z" fill="white"/>
</g>
<mask id="mask6_201_700" style="mask-type:luminance" maskUnits="userSpaceOnUse" x="51" y="51" width="398" height="398">
<path d="M250 448.5C359.629 448.5 448.5 359.629 448.5 250C448.5 140.371 359.629 51.5 250 51.5C140.371 51.5 51.5 140.371 51.5 250C51.5 359.629 140.371 448.5 250 448.5Z" fill="white"/>
</mask>
<g mask="url(#mask6_201_700)">
<path d="M130.5 97.1C137.1 110 147 120.8 158.9 129.1C171.7 138.1 186.6 143.9 201.9 147.1C211.1 149 220.4 150 229.7 150.2C230.9 150.2 232.3 149.7 232.7 148.5C233.1 147.4 232.1 146.4 231 146.4C215.1 146 199.2 143.5 184.3 137.7C171 132.6 158.6 124.7 148.7 114.4C143.3 108.8 138.7 102.4 135.1 95.5C134.5 94.4 133.3 94.2 132.1 94.6C131.4 94.8 129.9 96 130.5 97.1Z" fill="white"/>
</g>
<mask id="mask7_201_700" style="mask-type:luminance" maskUnits="userSpaceOnUse" x="51" y="51" width="398" height="398">
<path d="M250 448.5C359.629 448.5 448.5 359.629 448.5 250C448.5 140.371 359.629 51.5 250 51.5C140.371 51.5 51.5 140.371 51.5 250C51.5 359.629 140.371 448.5 250 448.5Z" fill="white"/>
</mask>
<g mask="url(#mask7_201_700)">
<path d="M207.6 138.9C216.2 137 224.9 135.4 233.7 134.2C242.3 133 251 132.4 259.6 133.3C273.8 134.8 288 141.1 295.5 153.7C299.5 160.5 301.4 168.6 299.9 176.3C299.6 177.9 304.4 179.3 304.7 177.8C307.7 162.4 298.4 147.5 285.6 139.6C270.6 130.3 252.5 129.1 235.4 131C224.8 132.2 214.2 134.1 203.8 136.4C202.7 136.7 203.7 137.8 204.2 138.1C205.2 138.9 206.4 139.1 207.6 138.9Z" fill="white"/>
</g>
<mask id="mask8_201_700" style="mask-type:luminance" maskUnits="userSpaceOnUse" x="51" y="51" width="398" height="398">
<path d="M250 448.5C359.629 448.5 448.5 359.629 448.5 250C448.5 140.371 359.629 51.5 250 51.5C140.371 51.5 51.5 140.371 51.5 250C51.5 359.629 140.371 448.5 250 448.5Z" fill="white"/>
</mask>
<g mask="url(#mask8_201_700)">
<path d="M272.3 158.4C275.2 166 278.2 173.6 282.6 180.4C287.2 187.5 293.4 192.9 301 196.4C308.8 200 317.5 201.9 326 203.2C334.5 204.5 343.2 205 351.8 204.2C361.3 203.3 370.6 200.6 378.8 195.7C379.7 195.1 379.7 194.1 378.9 193.4C377.9 192.7 376.4 192.7 375.4 193.3C361.8 201.5 345.4 202.5 330 200.4C322 199.3 313.9 197.7 306.4 194.8C299 191.9 292.9 187.2 288.3 180.8C283.3 173.8 280.2 165.6 277.2 157.6C276.4 155.8 271.4 156.2 272.3 158.4Z" fill="white"/>
</g>
<mask id="mask9_201_700" style="mask-type:luminance" maskUnits="userSpaceOnUse" x="51" y="51" width="398" height="398">
<path d="M250 448.5C359.629 448.5 448.5 359.629 448.5 250C448.5 140.371 359.629 51.5 250 51.5C140.371 51.5 51.5 140.371 51.5 250C51.5 359.629 140.371 448.5 250 448.5Z" fill="white"/>
</mask>
<g mask="url(#mask9_201_700)">
<path d="M362 191.5C372.8 184.3 386.8 183.7 399.3 185.1C411.6 186.5 424.3 190.9 432.3 200.8C436.2 205.5 438.5 211.2 438.7 217.3C438.8 218.4 439.6 219.7 440.4 220.4C441.2 221 441.7 220.7 441.6 219.7C441 206.8 432.4 195 421.6 188.4C409.7 181.1 394.7 179.2 381 180.3C373.4 180.9 365.8 182.8 359.4 187.1C358.3 187.9 360.9 192.2 362 191.5Z" fill="white"/>
</g>
<mask id="mask10_201_700" style="mask-type:luminance" maskUnits="userSpaceOnUse" x="51" y="51" width="398" height="398">
<path d="M250 448.5C359.629 448.5 448.5 359.629 448.5 250C448.5 140.371 359.629 51.5 250 51.5C140.371 51.5 51.5 140.371 51.5 250C51.5 359.629 140.371 448.5 250 448.5Z" fill="white"/>
</mask>
<g mask="url(#mask10_201_700)">
<path d="M99.7001 102.3C103.8 114.5 110.7 125.8 119.4 135.2C127.9 144.4 138.3 151.8 149.8 156.8C156.3 159.6 163.2 161.7 170.2 162.8C171.2 163 169.8 158.5 168.5 158.3C144.9 154.6 123.2 140.4 110.2 120.4C106.6 114.9 103.8 109 101.7 102.9C101.5 102.2 100.7 100.4 99.9001 100.4C99.0001 100.2 99.6001 102 99.7001 102.3Z" fill="white"/>
</g>
<mask id="mask11_201_700" style="mask-type:luminance" maskUnits="userSpaceOnUse" x="51" y="51" width="398" height="398">
<path d="M250 448.5C359.629 448.5 448.5 359.629 448.5 250C448.5 140.371 359.629 51.5 250 51.5C140.371 51.5 51.5 140.371 51.5 250C51.5 359.629 140.371 448.5 250 448.5Z" fill="white"/>
</mask>
<g mask="url(#mask11_201_700)">
<path d="M161.5 152.3C176.1 151.3 191.4 150.3 205.5 155.2C211.3 157.2 216.9 160.2 221.5 164.5C226.4 169.2 229.9 175.2 232.2 181.5C234.9 189 236 197.1 234.9 205.1C234.7 206.4 235.4 207.6 236.6 208.1C237.6 208.5 239.3 208.2 239.5 206.9C241.5 191.9 237.2 175.3 226.9 164C217.2 153.2 202.5 148.5 188.4 147.4C179 146.7 169.6 147.3 160.3 147.9C159.1 148 158.3 149.3 158.6 150.4C159 151.6 160.3 152.4 161.5 152.3Z" fill="white"/>
</g>
<mask id="mask12_201_700" style="mask-type:luminance" maskUnits="userSpaceOnUse" x="51" y="51" width="398" height="398">
<path d="M250 448.5C359.629 448.5 448.5 359.629 448.5 250C448.5 140.371 359.629 51.5 250 51.5C140.371 51.5 51.5 140.371 51.5 250C51.5 359.629 140.371 448.5 250 448.5Z" fill="white"/>
</mask>
<g mask="url(#mask12_201_700)">
<path d="M208.9 175C209.2 194.3 217 213.4 229.9 227.8C243.3 242.8 262.1 252.1 282.1 253.9C293.3 254.9 304.7 253.7 315.4 249.9C317.6 249.1 315 244.9 313.1 245.6C295 251.9 274.8 251.1 257.2 243.6C240.3 236.4 227 222.7 219.4 206.1C215.2 196.8 212.9 186.7 212.7 176.5C212.7 175.3 211.6 174.1 210.6 173.7C209.6 173.2 208.9 173.9 208.9 175Z" fill="white"/>
</g>
<mask id="mask13_201_700" style="mask-type:luminance" maskUnits="userSpaceOnUse" x="51" y="51" width="398" height="398">
<path d="M250 448.5C359.629 448.5 448.5 359.629 448.5 250C448.5 140.371 359.629 51.5 250 51.5C140.371 51.5 51.5 140.371 51.5 250C51.5 359.629 140.371 448.5 250 448.5Z" fill="white"/>
</mask>
<g mask="url(#mask13_201_700)">
<path d="M294.2 234.5C312.3 230.2 331.2 227.3 349.7 230.8C365.5 233.7 381.1 241.5 390.1 255.2C394.7 262.2 397.3 270.5 397 279C397 280.1 397.5 281.3 398.2 282.2C398.5 282.6 399.7 283.6 399.8 282.4C400.4 265.2 391 248.7 377.4 238.6C362.7 227.6 343.8 224 325.8 224.8C314.3 225.3 303 227.4 291.9 230C290.9 230.3 292.7 234.9 294.2 234.5Z" fill="white"/>
</g>
<mask id="mask14_201_700" style="mask-type:luminance" maskUnits="userSpaceOnUse" x="51" y="51" width="398" height="398">
<path d="M250 448.5C359.629 448.5 448.5 359.629 448.5 250C448.5 140.371 359.629 51.5 250 51.5C140.371 51.5 51.5 140.371 51.5 250C51.5 359.629 140.371 448.5 250 448.5Z" fill="white"/>
</mask>
<g mask="url(#mask14_201_700)">
<path d="M374.6 255.2C375.7 271.5 385.7 286.2 399.1 295.2C413.6 304.9 432.1 309 449.4 308.2C458.7 307.7 468.1 305.2 475.1 298.9C476 298.1 475.8 296.6 474.8 295.9C473.7 295.1 472.2 295.4 471.3 296.2C465.8 301.1 458.4 303.1 451.1 303.8C443.2 304.5 435.1 303.7 427.4 302.1C411.9 298.9 397.3 291.1 388 277.9C383.2 271.1 380.1 263.1 379.6 254.7C379.4 251.9 374.4 252.4 374.6 255.2Z" fill="white"/>
</g>
<mask id="mask15_201_700" style="mask-type:luminance" maskUnits="userSpaceOnUse" x="51" y="51" width="398" height="398">
<path d="M250 448.5C359.629 448.5 448.5 359.629 448.5 250C448.5 140.371 359.629 51.5 250 51.5C140.371 51.5 51.5 140.371 51.5 250C51.5 359.629 140.371 448.5 250 448.5Z" fill="white"/>
</mask>
<g mask="url(#mask15_201_700)">
<path d="M415.7 206.9C420.8 219.8 426 232.9 434.6 244C442.3 253.9 452.9 262 465.5 264.2C472.6 265.4 480.1 264.6 486.6 261.5C488.7 260.5 486.2 256.2 484.1 257.2C473.3 262.4 460.1 260.3 450.2 253.9C440.3 247.4 433.3 237.6 428 227.1C424.6 220.4 421.9 213.4 419.2 206.4C418.8 205.4 417.8 204.1 416.6 204.3C415.5 204.5 415.4 206 415.7 206.9Z" fill="white"/>
</g>
<mask id="mask16_201_700" style="mask-type:luminance" maskUnits="userSpaceOnUse" x="51" y="51" width="398" height="398">
<path d="M250 448.5C359.629 448.5 448.5 359.629 448.5 250C448.5 140.371 359.629 51.5 250 51.5C140.371 51.5 51.5 140.371 51.5 250C51.5 359.629 140.371 448.5 250 448.5Z" fill="white"/>
</mask>
<g mask="url(#mask16_201_700)">
<path d="M159.6 108.1C152.9 93.3 144.9 77.6 129.6 70C128.6 69.5 127.7 70.2 127.7 71.2C127.7 72.4 128.5 73.6 129.6 74.2C143.3 81 150.3 95.4 156.3 108.6C156.7 109.5 157.7 110.8 158.9 110.6C160.1 110.5 160 109 159.6 108.1Z" fill="white"/>
</g>
<mask id="mask17_201_700" style="mask-type:luminance" maskUnits="userSpaceOnUse" x="51" y="51" width="398" height="398">
<path d="M250 448.5C359.629 448.5 448.5 359.629 448.5 250C448.5 140.371 359.629 51.5 250 51.5C140.371 51.5 51.5 140.371 51.5 250C51.5 359.629 140.371 448.5 250 448.5Z" fill="white"/>
</mask>
<g mask="url(#mask17_201_700)">
<path d="M132 129.8C125.6 113 114.4 97.9 100.3 86.7C96.3002 83.6 92.1002 80.8 87.7002 78.3C86.9002 77.8 86.3002 78.2 86.5002 79.2C86.7002 80.2 87.7002 81.5 88.6002 82C102.9 90 115 101.9 123.1 116.1C125.4 120.2 127.4 124.4 129.1 128.8C129.4 129.7 130.4 131.1 131.4 131.3C132.5 131.6 132.3 130.4 132 129.8Z" fill="white"/>
</g>
<mask id="mask18_201_700" style="mask-type:luminance" maskUnits="userSpaceOnUse" x="51" y="51" width="398" height="398">
<path d="M250 448.5C359.629 448.5 448.5 359.629 448.5 250C448.5 140.371 359.629 51.5 250 51.5C140.371 51.5 51.5 140.371 51.5 250C51.5 359.629 140.371 448.5 250 448.5Z" fill="white"/>
</mask>
<g mask="url(#mask18_201_700)">
<path d="M69.8 117.9C87.8 128.6 107.6 140.3 116 160.5C118.2 165.7 119.3 171.3 119.3 177C119.3 178.9 123.1 181.6 123.1 178.6C123.1 167.6 118.8 157 112.5 148.1C105.8 138.7 96.9 131.2 87.4 124.8C81.9 121.1 76.2 117.7 70.4 114.3C69.6 113.8 68.5 113.6 68.2 114.8C68 115.9 68.9 117.4 69.8 117.9Z" fill="white"/>
</g>
<mask id="mask19_201_700" style="mask-type:luminance" maskUnits="userSpaceOnUse" x="51" y="51" width="398" height="398">
<path d="M250 448.5C359.629 448.5 448.5 359.629 448.5 250C448.5 140.371 359.629 51.5 250 51.5C140.371 51.5 51.5 140.371 51.5 250C51.5 359.629 140.371 448.5 250 448.5Z" fill="white"/>
</mask>
<g mask="url(#mask19_201_700)">
<path d="M94.7001 149.1C96.6001 163.5 101.8 178.2 110.9 189.8C115.1 195.2 120.4 199.7 126.7 202.6C132.7 205.4 139.4 206.8 146 207.4C153.8 208.1 161.6 207.8 169.4 207.4C170.5 207.3 171.8 206.7 172.6 205.9C173.3 205.2 173.1 204.8 172.1 204.8C158.9 205.4 144.8 206 132.3 200.8C126 198.2 120.7 194.1 116.3 188.9C111.8 183.5 108.4 177.3 105.7 170.9C102.5 163.3 100.3 155.3 99.2001 147.1C99.2001 146.2 94.5001 147.6 94.7001 149.1Z" fill="white"/>
</g>
<mask id="mask20_201_700" style="mask-type:luminance" maskUnits="userSpaceOnUse" x="51" y="51" width="398" height="398">
<path d="M250 448.5C359.629 448.5 448.5 359.629 448.5 250C448.5 140.371 359.629 51.5 250 51.5C140.371 51.5 51.5 140.371 51.5 250C51.5 359.629 140.371 448.5 250 448.5Z" fill="white"/>
</mask>
<g mask="url(#mask20_201_700)">
<path d="M157.4 195.5C166.9 193 177.3 194.3 185.8 199.3C190.2 201.8 194 205.1 197 209.2C200.6 214 203 219.7 204.6 225.4C206.4 231.9 207.8 239.3 205.1 245.7C204.6 246.8 206.4 247.7 207.2 247.9C208.3 248.1 209.5 247.9 210 246.8C212.6 240.6 211.5 233.5 210 227.2C208.5 220.9 206.1 214.7 202.4 209.4C195.9 200 185.7 193.7 174.6 191.6C168.3 190.4 161.8 190.5 155.7 192.2C152.4 192.9 155 196.1 157.4 195.5Z" fill="white"/>
</g>
<mask id="mask21_201_700" style="mask-type:luminance" maskUnits="userSpaceOnUse" x="51" y="51" width="398" height="398">
<path d="M250 448.5C359.629 448.5 448.5 359.629 448.5 250C448.5 140.371 359.629 51.5 250 51.5C140.371 51.5 51.5 140.371 51.5 250C51.5 359.629 140.371 448.5 250 448.5Z" fill="white"/>
</mask>
<g mask="url(#mask21_201_700)">
<path d="M189.3 218.9C187 229.1 188.1 239.8 192.5 249.3C196.9 258.7 204.5 266.1 213.1 271.7C222.2 277.7 232.3 282.5 242.6 286.1C253 289.7 264.1 291.6 275 290C286 288.4 296.9 283.8 304.1 275C304.8 274.2 303.6 274 303 274C302.1 274 300.4 274.2 299.7 275C294 282 285.8 286.3 277 287.8C267.1 289.5 256.9 287.7 247.5 284.5C237.6 281.2 227.9 276.6 219.1 271.1C210.9 265.9 203.3 259.2 198.6 250.6C193.3 240.8 191.6 229.2 194.1 218.3C194.4 217 189.6 217.6 189.3 218.9Z" fill="white"/>
</g>
<mask id="mask22_201_700" style="mask-type:luminance" maskUnits="userSpaceOnUse" x="51" y="51" width="398" height="398">
<path d="M250 448.5C359.629 448.5 448.5 359.629 448.5 250C448.5 140.371 359.629 51.5 250 51.5C140.371 51.5 51.5 140.371 51.5 250C51.5 359.629 140.371 448.5 250 448.5Z" fill="white"/>
</mask>
<g mask="url(#mask22_201_700)">
<path d="M279.3 272.9C282.1 270.9 285.4 269.6 288.7 268.6C292.1 267.5 295.6 266.7 299.1 266.2C306.1 265.1 313.3 265.1 320.3 266.3C333 268.5 344.7 275.2 352.4 285.8C356.4 291.3 359 297.7 359.9 304.5C359.9 304.8 362.1 303.6 362.2 303.5C362.6 303.2 364.1 302.4 364 301.8C362.3 289 354.3 277.8 343.5 270.9C331.2 263 315.8 261.2 301.6 263.7C293 265.2 284.8 268.1 277.7 273.1C277.4 273.3 276.1 274.2 276.5 274.5C277.1 274.6 279 273.1 279.3 272.9Z" fill="white"/>
</g>
<mask id="mask23_201_700" style="mask-type:luminance" maskUnits="userSpaceOnUse" x="51" y="51" width="398" height="398">
<path d="M250 448.5C359.629 448.5 448.5 359.629 448.5 250C448.5 140.371 359.629 51.5 250 51.5C140.371 51.5 51.5 140.371 51.5 250C51.5 359.629 140.371 448.5 250 448.5Z" fill="white"/>
</mask>
<g mask="url(#mask23_201_700)">
<path d="M330.5 280C337.6 293.1 341.5 308.1 351.6 319.4C356.4 324.7 362.3 328.4 369 330.7C376.1 333.1 383.6 334.6 391 335.5C399.5 336.5 408.1 335.8 415.8 332.1C416.5 331.7 417.2 330.9 416.3 330.3C415.3 329.7 413.8 330.2 412.9 330.6C406.9 333.5 400.1 333.6 393.6 332.9C386.6 332.2 379.5 330.6 372.9 328.5C366.4 326.4 360.8 322.9 356.2 317.8C351.7 312.9 348.4 307.1 345.5 301.2C341.9 293.6 338.9 285.7 334.9 278.3C334.4 277 329.6 278.3 330.5 280Z" fill="white"/>
</g>
<mask id="mask24_201_700" style="mask-type:luminance" maskUnits="userSpaceOnUse" x="51" y="51" width="398" height="398">
<path d="M250 448.5C359.629 448.5 448.5 359.629 448.5 250C448.5 140.371 359.629 51.5 250 51.5C140.371 51.5 51.5 140.371 51.5 250C51.5 359.629 140.371 448.5 250 448.5Z" fill="white"/>
</mask>
<g mask="url(#mask24_201_700)">
<path d="M396.9 323.8C406.1 319 416.6 317.5 426.9 318.6C436 319.6 445.5 322.3 452.8 328C456.7 331 459.8 335 461.4 339.6C461.8 340.8 463.1 341.4 464.2 341.3C465.1 341.3 466.7 340.6 466.3 339.4C463.1 329.6 454.5 323.2 445.4 319.5C435.1 315.3 423.3 313.7 412.3 315.1C405.9 315.9 399.6 317.7 393.8 320.7C392.8 321.2 392.6 322.4 393.4 323.2C394.3 324.1 395.9 324.4 396.9 323.8Z" fill="white"/>
</g>
<mask id="mask25_201_700" style="mask-type:luminance" maskUnits="userSpaceOnUse" x="51" y="51" width="398" height="398">
<path d="M250 448.5C359.629 448.5 448.5 359.629 448.5 250C448.5 140.371 359.629 51.5 250 51.5C140.371 51.5 51.5 140.371 51.5 250C51.5 359.629 140.371 448.5 250 448.5Z" fill="white"/>
</mask>
<g mask="url(#mask25_201_700)">
<path d="M424.1 285.7C428.8 284.2 433.8 283.5 438.7 283.1C443.6 282.8 448.5 282.5 453.4 282.9C458 283.3 462.3 284.6 466.3 286.9C470.1 289.1 473.6 292 477 294.8C477.8 295.5 479.1 295.4 479.4 294.4C479.8 293.2 479 291.9 478.1 291.2C472.5 286.5 466.6 281.8 459.5 279.6C455.7 278.4 451.8 278.2 447.9 278.2C443.9 278.2 439.8 278.3 435.8 278.7C431.2 279.1 426.7 279.8 422.3 281.2C420 281.9 422.1 286.3 424.1 285.7Z" fill="white"/>
</g>
<mask id="mask26_201_700" style="mask-type:luminance" maskUnits="userSpaceOnUse" x="51" y="51" width="398" height="398">
<path d="M250 448.5C359.629 448.5 448.5 359.629 448.5 250C448.5 140.371 359.629 51.5 250 51.5C140.371 51.5 51.5 140.371 51.5 250C51.5 359.629 140.371 448.5 250 448.5Z" fill="white"/>
</mask>
<g mask="url(#mask26_201_700)">
<path d="M375.7 157.6C379.6 151 383.7 144.1 389.5 138.9C392.4 136.3 395.6 134.1 399.3 132.8C403.7 131.2 408.3 130.6 412.9 129.9C415.7 129.5 418.4 129 421.2 128.6C422.7 128.4 425.4 127.5 426.8 128.5C427.7 129.2 429.2 129.5 430.3 129C431.2 128.6 431.4 127.8 430.6 127.1C426.4 124.1 420.8 125.6 416.2 126.3C411 127.1 405.8 127.7 400.7 129C396.1 130.1 391.8 132 388 134.8C384.6 137.4 381.7 140.5 379.2 143.9C376.2 147.8 373.7 152 371.2 156.2C370 157.9 374.8 159.1 375.7 157.6Z" fill="white"/>
</g>
<mask id="mask27_201_700" style="mask-type:luminance" maskUnits="userSpaceOnUse" x="51" y="51" width="398" height="398">
<path d="M250 448.5C359.629 448.5 448.5 359.629 448.5 250C448.5 140.371 359.629 51.5 250 51.5C140.371 51.5 51.5 140.371 51.5 250C51.5 359.629 140.371 448.5 250 448.5Z" fill="white"/>
</mask>
<g mask="url(#mask27_201_700)">
<path d="M368.1 113.5C369.3 107 373.3 101.4 378.5 97.3001C384.4 92.7001 391.7 90.4001 399 89.4001C403.6 88.8001 408.2 88.6001 412.8 88.7001C413.8 88.7001 412.4 87.9001 412.2 87.8001C411.3 87.3001 410 86.8001 408.9 86.8001C394.1 86.7001 377.5 88.9001 368 101.6C365.7 104.6 364.1 108.1 363.4 111.9C363.3 112.6 368 113.9 368.1 113.5Z" fill="white"/>
</g>
<mask id="mask28_201_700" style="mask-type:luminance" maskUnits="userSpaceOnUse" x="51" y="51" width="398" height="398">
<path d="M250 448.5C359.629 448.5 448.5 359.629 448.5 250C448.5 140.371 359.629 51.5 250 51.5C140.371 51.5 51.5 140.371 51.5 250C51.5 359.629 140.371 448.5 250 448.5Z" fill="white"/>
</mask>
<g mask="url(#mask28_201_700)">
<path d="M192 97.5001C188.3 78.3001 175.5 61.6001 158.4 52.2001C153.6 49.6001 148.4 47.6001 143.1 46.2001C142 45.9001 140.5 46.4001 140.2 47.7001C139.9 49.0001 141.1 50.0001 142.2 50.3001C159.5 54.6001 174.4 67.1001 182.2 83.1001C184.4 87.7001 186.1 92.5001 187.1 97.5001C187.3 98.8001 188.5 99.6001 189.8 99.6001C190.8 99.6001 192.3 98.8001 192 97.5001Z" fill="white"/>
</g>
<mask id="mask29_201_700" style="mask-type:luminance" maskUnits="userSpaceOnUse" x="51" y="51" width="398" height="398">
<path d="M250 448.5C359.629 448.5 448.5 359.629 448.5 250C448.5 140.371 359.629 51.5 250 51.5C140.371 51.5 51.5 140.371 51.5 250C51.5 359.629 140.371 448.5 250 448.5Z" fill="white"/>
</mask>
<g mask="url(#mask29_201_700)">
<path d="M62.7999 162.7C73.9999 168.7 82.6999 178.7 86.9999 190.7C88.1999 194.1 88.9999 197.6 89.4999 201.2C89.5999 202.3 90.2999 203.4 91.0999 204.2C91.3999 204.5 92.5999 205.5 92.4999 204.4C90.6999 189.5 82.7999 175.4 71.4999 165.6C68.3999 162.9 64.9999 160.5 61.2999 158.6C60.2999 158.1 60.6999 159.5 60.8999 159.9C61.0999 160.9 61.8999 162.2 62.7999 162.7Z" fill="white"/>
</g>
<mask id="mask30_201_700" style="mask-type:luminance" maskUnits="userSpaceOnUse" x="51" y="51" width="398" height="398">
<path d="M250 448.5C359.629 448.5 448.5 359.629 448.5 250C448.5 140.371 359.629 51.5 250 51.5C140.371 51.5 51.5 140.371 51.5 250C51.5 359.629 140.371 448.5 250 448.5Z" fill="white"/>
</mask>
<g mask="url(#mask30_201_700)">
<path d="M71.2 185.5C74.5 197.7 78.8 210.1 86.7 220.1C90.6 225 95.3 229.1 100.9 232C107.3 235.3 114.3 236.9 121.5 237.4C129.7 238 138 237.4 146.2 236.7C147.2 236.6 148.8 235.9 149.1 234.8C149.5 233.7 148.4 233.4 147.5 233.5C133.8 234.6 119.2 235.8 106.3 229.9C95 224.7 87.5 214.3 82.6 203.3C79.7 196.9 77.6 190.1 75.8 183.3C75.3 181.8 70.7 183.6 71.2 185.5Z" fill="white"/>
</g>
<mask id="mask31_201_700" style="mask-type:luminance" maskUnits="userSpaceOnUse" x="51" y="51" width="398" height="398">
<path d="M250 448.5C359.629 448.5 448.5 359.629 448.5 250C448.5 140.371 359.629 51.5 250 51.5C140.371 51.5 51.5 140.371 51.5 250C51.5 359.629 140.371 448.5 250 448.5Z" fill="white"/>
</mask>
<g mask="url(#mask31_201_700)">
<path d="M122.4 225.4C128.7 224.1 135.1 223.1 141.5 222.4C147.5 221.7 153.8 220.9 159.8 221.8C170.5 223.5 177 233.3 179.8 243.1C181.7 249.8 182.2 256.7 182.7 263.6C182.8 264.7 184.1 265.2 185.1 265.3C185.8 265.4 187.8 265.1 187.7 264C186.8 251.7 185.7 238.6 177.5 228.8C173.9 224.4 169.1 221.1 163.6 219.7C157.2 218 150.3 218.6 143.8 219.2C135.8 220 127.9 221.2 120 222.7C119 222.9 118.3 223.8 118.9 224.7C119.7 225.6 121.3 225.6 122.4 225.4Z" fill="white"/>
</g>
<mask id="mask32_201_700" style="mask-type:luminance" maskUnits="userSpaceOnUse" x="51" y="51" width="398" height="398">
<path d="M250 448.5C359.629 448.5 448.5 359.629 448.5 250C448.5 140.371 359.629 51.5 250 51.5C140.371 51.5 51.5 140.371 51.5 250C51.5 359.629 140.371 448.5 250 448.5Z" fill="white"/>
</mask>
<g mask="url(#mask32_201_700)">
<path d="M164.7 243.7C164.6 261.6 175.4 277.3 189.2 287.9C196.5 293.5 204.7 297.8 213.1 301.5C222 305.4 231.3 308.8 240.8 311C251.9 313.5 263.3 314.1 274.5 312.3C275.3 312.2 275.3 311.9 274.5 311.9C273.3 311.8 272.1 311.9 271 312.1C261.9 313.6 252.5 312.3 243.7 310.1C234.8 307.9 226.1 304.6 217.7 300.9C202.1 294 186.9 284.4 177.8 269.6C172.9 261.7 169.9 252.7 170 243.4C169.7 243 164.7 243.1 164.7 243.7Z" fill="white"/>
</g>
<mask id="mask33_201_700" style="mask-type:luminance" maskUnits="userSpaceOnUse" x="51" y="51" width="398" height="398">
<path d="M250 448.5C359.629 448.5 448.5 359.629 448.5 250C448.5 140.371 359.629 51.5 250 51.5C140.371 51.5 51.5 140.371 51.5 250C51.5 359.629 140.371 448.5 250 448.5Z" fill="white"/>
</mask>
<g mask="url(#mask33_201_700)">
<path d="M248.9 305.7C261.4 299.4 276.1 297.1 289.9 299.7C302.1 302 313.2 308.8 321.6 317.7C326.5 322.8 330.5 328.8 333.5 335.2C333.8 335.9 335.7 336.3 336.3 336.4C336.5 336.5 338.3 336.9 338.1 336.4C332.4 324.2 323 313.9 311.4 307.1C298.7 299.6 283.5 295.9 268.7 297.1C260.2 297.8 251.9 300.1 244.3 303.9C243.8 304.2 245.7 304.9 245.8 304.9C246.5 305.2 248.1 306 248.9 305.7Z" fill="white"/>
</g>
<mask id="mask34_201_700" style="mask-type:luminance" maskUnits="userSpaceOnUse" x="51" y="51" width="398" height="398">
<path d="M250 448.5C359.629 448.5 448.5 359.629 448.5 250C448.5 140.371 359.629 51.5 250 51.5C140.371 51.5 51.5 140.371 51.5 250C51.5 359.629 140.371 448.5 250 448.5Z" fill="white"/>
</mask>
<g mask="url(#mask34_201_700)">
<path d="M308.9 322.7C316.6 332.5 324.7 342.6 335.1 349.6C340.6 353.3 346.7 356 353.2 357.4C360.4 359 367.9 359.4 375.3 359.8C383.9 360.2 392.5 360.2 401.1 359.1C403.9 358.7 402.5 354 399.9 354.3C392.5 355.2 385.1 355.4 377.7 355.1C370.6 354.8 363.4 354.4 356.4 353.2C350.2 352.1 344.3 350.1 338.9 346.7C333.8 343.5 329.3 339.6 325.1 335.2C320.4 330.3 316.1 324.9 311.9 319.6C311.2 318.7 309.7 318.3 308.8 319.2C307.9 320.3 308.2 321.8 308.9 322.7Z" fill="white"/>
</g>
<mask id="mask35_201_700" style="mask-type:luminance" maskUnits="userSpaceOnUse" x="51" y="51" width="398" height="398">
<path d="M250 448.5C359.629 448.5 448.5 359.629 448.5 250C448.5 140.371 359.629 51.5 250 51.5C140.371 51.5 51.5 140.371 51.5 250C51.5 359.629 140.371 448.5 250 448.5Z" fill="white"/>
</mask>
<g mask="url(#mask35_201_700)">
<path d="M379.1 351C388.9 346.3 400.2 346.3 410.9 346.5C416.3 346.6 421.8 346.9 427 348.6C431.3 350 434.7 352.6 437.6 355.9C441.1 360 443.8 364.6 446 369.5C446.4 370.4 447.6 371 448.4 371.4C448.6 371.5 450.4 372.3 450.2 371.8C445.8 361.8 439.1 353.1 429.2 348.1C423.9 345.3 418 344.2 412.1 343.8C406.2 343.4 400.2 343.5 394.3 343.8C387.6 344.2 381 345.3 374.9 348.2C374.6 348.3 376.6 349.9 376.8 349.9C377.2 350.4 378.4 351.3 379.1 351Z" fill="white"/>
</g>
<mask id="mask36_201_700" style="mask-type:luminance" maskUnits="userSpaceOnUse" x="51" y="51" width="398" height="398">
<path d="M250 448.5C359.629 448.5 448.5 359.629 448.5 250C448.5 140.371 359.629 51.5 250 51.5C140.371 51.5 51.5 140.371 51.5 250C51.5 359.629 140.371 448.5 250 448.5Z" fill="white"/>
</mask>
<g mask="url(#mask36_201_700)">
<path d="M35 209.3C50.5 211 64.9 219.9 73.9 232.5C76.5 236.1 78.6 240.1 80.2 244.2C81.2 246.8 85.9 245.3 84.7 242.5C78.5 226.8 65.1 214.2 49.4 208.3C44.9 206.6 40.2 205.5 35.5 205C32.3 204.6 31.8 209 35 209.3Z" fill="white"/>
</g>
<mask id="mask37_201_700" style="mask-type:luminance" maskUnits="userSpaceOnUse" x="51" y="51" width="398" height="398">
<path d="M250 448.5C359.629 448.5 448.5 359.629 448.5 250C448.5 140.371 359.629 51.5 250 51.5C140.371 51.5 51.5 140.371 51.5 250C51.5 359.629 140.371 448.5 250 448.5Z" fill="white"/>
</mask>
<g mask="url(#mask37_201_700)">
<path d="M43.1001 221.4C46.9001 228 51.1001 234.3 55.7001 240.3C60.1001 246 64.8001 251.6 70.1001 256.5C75.4001 261.3 81.3001 265.2 87.9001 267.8C94.4001 270.3 101.3 271.7 108.2 272.3C116.1 273 124 272.9 132 272.8C133.2 272.8 133.7 271.5 133.3 270.5C132.8 269.3 131.5 268.7 130.3 268.7C117.2 268.9 103.5 269.1 90.9001 264.8C84.7001 262.7 79.2001 259.4 74.3001 255.1C69.2001 250.7 64.8001 245.5 60.6001 240.2C55.6001 233.8 51.0001 227 46.9001 219.9C46.3001 218.9 44.7001 218.3 43.6001 218.7C42.4001 219.2 42.6001 220.4 43.1001 221.4Z" fill="white"/>
</g>
<mask id="mask38_201_700" style="mask-type:luminance" maskUnits="userSpaceOnUse" x="51" y="51" width="398" height="398">
<path d="M250 448.5C359.629 448.5 448.5 359.629 448.5 250C448.5 140.371 359.629 51.5 250 51.5C140.371 51.5 51.5 140.371 51.5 250C51.5 359.629 140.371 448.5 250 448.5Z" fill="white"/>
</mask>
<g mask="url(#mask38_201_700)">
<path d="M99.3002 256.3C121.7 254 144.3 262.9 158.6 280.5C162.4 285.2 165.5 290.3 167.9 295.7C168.4 296.8 169.6 297.8 170.8 297.4C172 297 172.2 295.6 171.8 294.6C162.3 273.1 142.5 257 119.3 252.6C112.4 251.3 105.4 250.9 98.4002 251.7C95.5002 251.9 96.8002 256.5 99.3002 256.3Z" fill="white"/>
</g>
<mask id="mask39_201_700" style="mask-type:luminance" maskUnits="userSpaceOnUse" x="51" y="51" width="398" height="398">
<path d="M250 448.5C359.629 448.5 448.5 359.629 448.5 250C448.5 140.371 359.629 51.5 250 51.5C140.371 51.5 51.5 140.371 51.5 250C51.5 359.629 140.371 448.5 250 448.5Z" fill="white"/>
</mask>
<g mask="url(#mask39_201_700)">
<path d="M142.9 279.5C147.3 293.2 155.7 305.7 166.6 315.1C178.4 325.2 193 331.7 208.5 333.7C217.4 334.9 226.4 334.6 235.2 332.7C236.3 332.5 236.6 331.6 236 330.7C235.4 329.8 233.8 329.1 232.7 329.4C218.2 332.4 202.9 331.1 189.2 325.4C176.5 320.2 165.6 311.2 157.7 300.1C153.3 293.8 149.8 287 147.5 279.7C146.9 277.8 142.1 277 142.9 279.5Z" fill="white"/>
</g>
<mask id="mask40_201_700" style="mask-type:luminance" maskUnits="userSpaceOnUse" x="51" y="51" width="398" height="398">
<path d="M250 448.5C359.629 448.5 448.5 359.629 448.5 250C448.5 140.371 359.629 51.5 250 51.5C140.371 51.5 51.5 140.371 51.5 250C51.5 359.629 140.371 448.5 250 448.5Z" fill="white"/>
</mask>
<g mask="url(#mask40_201_700)">
<path d="M204.1 318.9C220.1 317.7 236.3 318.4 252.2 320.9C260 322.1 267.8 323.7 275.4 325.9C282.4 327.9 289.3 330.6 295.1 335C300.9 339.3 305.5 345.3 307.3 352.3C307.6 353.4 312 351.3 311.6 349.8C308 335.9 294.7 327.9 281.8 323.8C274.3 321.4 266.5 319.8 258.7 318.4C250.6 317 242.3 316.1 234.1 315.6C224.9 315.1 215.7 315.2 206.5 315.9C205.4 316 204.1 316.8 203.5 317.7C202.8 318.4 203.2 318.9 204.1 318.9Z" fill="white"/>
</g>
<mask id="mask41_201_700" style="mask-type:luminance" maskUnits="userSpaceOnUse" x="51" y="51" width="398" height="398">
<path d="M250 448.5C359.629 448.5 448.5 359.629 448.5 250C448.5 140.371 359.629 51.5 250 51.5C140.371 51.5 51.5 140.371 51.5 250C51.5 359.629 140.371 448.5 250 448.5Z" fill="white"/>
</mask>
<g mask="url(#mask41_201_700)">
<path d="M269.9 337C276.9 346.9 284.1 357.1 294.2 364.1C305.5 372 319.5 374.6 332.9 376.6C341 377.8 349.1 378.5 357.3 378.7C358.4 378.7 359.7 378.1 359.6 376.8C359.5 375.6 358.2 374.6 357 374.6C343.3 374.3 329.4 372.6 316.1 369.3C310 367.8 304.1 365.7 298.7 362.3C293.9 359.3 289.7 355.3 286 351C281.7 346.1 277.8 340.7 274.1 335.3C273.4 334.3 271.8 333.9 270.7 334.4C269.6 334.8 269.2 336 269.9 337Z" fill="white"/>
</g>
<mask id="mask42_201_700" style="mask-type:luminance" maskUnits="userSpaceOnUse" x="51" y="51" width="398" height="398">
<path d="M250 448.5C359.629 448.5 448.5 359.629 448.5 250C448.5 140.371 359.629 51.5 250 51.5C140.371 51.5 51.5 140.371 51.5 250C51.5 359.629 140.371 448.5 250 448.5Z" fill="white"/>
</mask>
<g mask="url(#mask42_201_700)">
<path d="M340.4 370C352.4 368 365 367.9 376.7 371.5C386.8 374.6 396.1 380.4 402.7 388.7C406.2 393.1 408.8 398.2 410.2 403.7C410.5 404.9 411.7 406 413 405.7C414.3 405.5 414.9 404.1 414.6 402.9C411.8 391.9 404.8 382.5 395.7 375.8C385.8 368.4 373.6 364.7 361.4 363.9C354 363.4 346.5 363.9 339.2 365.1C336.3 365.6 337.6 370.4 340.4 370Z" fill="white"/>
</g>
<mask id="mask43_201_700" style="mask-type:luminance" maskUnits="userSpaceOnUse" x="51" y="51" width="398" height="398">
<path d="M250 448.5C359.629 448.5 448.5 359.629 448.5 250C448.5 140.371 359.629 51.5 250 51.5C140.371 51.5 51.5 140.371 51.5 250C51.5 359.629 140.371 448.5 250 448.5Z" fill="white"/>
</mask>
<g mask="url(#mask43_201_700)">
<path d="M39.3999 255.3C49.9999 274.8 69.0999 288.9 90.4999 294.2C96.5999 295.7 102.9 296.4 109.2 296.4C110.3 296.4 111.8 295.7 112.1 294.5C112.4 293.3 111.4 292.6 110.3 292.6C89.1999 292.8 68.5999 283.3 54.2999 267.9C50.2999 263.5 46.7999 258.7 43.8999 253.5C43.2999 252.4 41.8999 252.4 40.8999 252.8C40.0999 253.1 38.7999 254.2 39.3999 255.3Z" fill="white"/>
</g>
<mask id="mask44_201_700" style="mask-type:luminance" maskUnits="userSpaceOnUse" x="51" y="51" width="398" height="398">
<path d="M250 448.5C359.629 448.5 448.5 359.629 448.5 250C448.5 140.371 359.629 51.5 250 51.5C140.371 51.5 51.5 140.371 51.5 250C51.5 359.629 140.371 448.5 250 448.5Z" fill="white"/>
</mask>
<g mask="url(#mask44_201_700)">
<path d="M78 278.8C90.1 280 102.5 282.2 113.9 286.6C123.4 290.2 132.3 295.8 137.2 305C140.5 311.1 141.6 318.2 142.8 325C143 326.1 144 326.9 145 327.3C145.4 327.5 147.5 328 147.3 326.9C146.2 320.4 145.1 313.7 142.4 307.6C139.9 302.2 136.2 297.6 131.7 293.8C122.8 286.3 111.4 282.3 100.3 279.6C92.3 277.7 84.2 276.3 76 275.5C75 275.4 74.6 276.2 75.1 277C75.6 278 76.9 278.7 78 278.8Z" fill="white"/>
</g>
<mask id="mask45_201_700" style="mask-type:luminance" maskUnits="userSpaceOnUse" x="51" y="51" width="398" height="398">
<path d="M250 448.5C359.629 448.5 448.5 359.629 448.5 250C448.5 140.371 359.629 51.5 250 51.5C140.371 51.5 51.5 140.371 51.5 250C51.5 359.629 140.371 448.5 250 448.5Z" fill="white"/>
</mask>
<g mask="url(#mask45_201_700)">
<path d="M119.9 311.1C119.1 325.5 127.4 339 138.3 347.7C150.6 357.6 166.2 361.9 181.4 364.8C190.2 366.5 199.7 368.3 208.3 365.1C210.4 364.3 207.1 360.6 205.2 361.3C198 364 190.2 362.7 182.9 361.4C175.7 360.1 168.5 358.6 161.5 356.3C148.7 352.1 136.5 345.1 129.4 333.3C125.6 327.1 123.6 320.1 124 312.8C124.3 310.8 120.1 308.4 119.9 311.1Z" fill="white"/>
</g>
<mask id="mask46_201_700" style="mask-type:luminance" maskUnits="userSpaceOnUse" x="51" y="51" width="398" height="398">
<path d="M250 448.5C359.629 448.5 448.5 359.629 448.5 250C448.5 140.371 359.629 51.5 250 51.5C140.371 51.5 51.5 140.371 51.5 250C51.5 359.629 140.371 448.5 250 448.5Z" fill="white"/>
</mask>
<g mask="url(#mask46_201_700)">
<path d="M185.1 352.3C200.4 349.2 216.4 348.4 231.7 351.9C244.6 354.8 256.7 360.9 266.3 370C271.6 375 276.1 381 279.3 387.5C279.8 388.4 281 388.9 281.9 389.3C282.1 389.4 284.3 389.9 283.9 389.1C277.6 376.5 267.3 366.4 255.2 359.4C241.4 351.4 225.6 347.5 209.7 347.1C200.2 346.9 190.8 347.9 181.5 349.7C180.5 349.9 181.4 350.7 181.9 351.1C182.7 351.7 184.2 352.5 185.1 352.3Z" fill="white"/>
</g>
<mask id="mask47_201_700" style="mask-type:luminance" maskUnits="userSpaceOnUse" x="51" y="51" width="398" height="398">
<path d="M250 448.5C359.629 448.5 448.5 359.629 448.5 250C448.5 140.371 359.629 51.5 250 51.5C140.371 51.5 51.5 140.371 51.5 250C51.5 359.629 140.371 448.5 250 448.5Z" fill="white"/>
</mask>
<g mask="url(#mask47_201_700)">
<path d="M241 368C245.3 373.9 249.7 379.8 255.3 384.7C260.2 389 265.9 392.5 271.8 395.3C284.9 401.3 299.2 403.7 313.6 404.5C322.5 405 331.4 404.9 340.3 404.8C341.4 404.8 342.8 404.1 343.4 403.1C343.9 402.2 343.5 401.4 342.4 401.4C314.6 401.7 283.7 401.7 261 383.3C254.8 378.3 250.1 372 245.4 365.6C244.2 364 239.9 366.5 241 368Z" fill="white"/>
</g>
<mask id="mask48_201_700" style="mask-type:luminance" maskUnits="userSpaceOnUse" x="51" y="51" width="398" height="398">
<path d="M250 448.5C359.629 448.5 448.5 359.629 448.5 250C448.5 140.371 359.629 51.5 250 51.5C140.371 51.5 51.5 140.371 51.5 250C51.5 359.629 140.371 448.5 250 448.5Z" fill="white"/>
</mask>
<g mask="url(#mask48_201_700)">
<path d="M312 390.5C333.2 388.6 355.7 394.1 372.9 407C377.3 410.3 381.3 414.3 383.5 419.5C384.6 422.1 389.2 421.3 388 418.3C383.7 408 373.5 401.4 364 396.5C353.7 391.2 342.5 387.8 331 386.4C324.5 385.6 318 385.5 311.5 386.1C308.2 386.4 309.2 390.7 312 390.5Z" fill="white"/>
</g>
<mask id="mask49_201_700" style="mask-type:luminance" maskUnits="userSpaceOnUse" x="51" y="51" width="398" height="398">
<path d="M250 448.5C359.629 448.5 448.5 359.629 448.5 250C448.5 140.371 359.629 51.5 250 51.5C140.371 51.5 51.5 140.371 51.5 250C51.5 359.629 140.371 448.5 250 448.5Z" fill="white"/>
</mask>
<g mask="url(#mask49_201_700)">
<path d="M65.9998 297.8C78.6998 305.6 89.1998 316.7 96.3998 329.7C98.3998 333.3 100.1 337.2 101.6 341.1C102 342.2 103.3 343.2 104.5 342.9C105.7 342.6 105.9 341.1 105.5 340.1C99.9998 325.3 90.4998 312 78.4998 301.8C74.9998 298.9 71.2998 296.2 67.4998 293.8C66.4998 293.2 65.1998 293.4 64.7998 294.6C64.2998 295.8 64.9998 297.2 65.9998 297.8Z" fill="white"/>
</g>
<mask id="mask50_201_700" style="mask-type:luminance" maskUnits="userSpaceOnUse" x="51" y="51" width="398" height="398">
<path d="M250 448.5C359.629 448.5 448.5 359.629 448.5 250C448.5 140.371 359.629 51.5 250 51.5C140.371 51.5 51.5 140.371 51.5 250C51.5 359.629 140.371 448.5 250 448.5Z" fill="white"/>
</mask>
<g mask="url(#mask50_201_700)">
<path d="M82.9998 326.6C81.4998 337.8 86.5998 348.7 94.1998 356.7C102.8 365.6 114.3 370.6 126.1 373.7C133 375.5 140.1 376.8 147.1 378C148.2 378.2 149.8 377.7 150.3 376.6C150.8 375.5 149.9 374.6 148.8 374.4C137 372.4 125 370.3 114.1 365.3C104.2 360.7 95.5998 353.4 90.7998 343.4C88.2998 338.1 87.1998 332.2 87.9998 326.4C88.1998 323.8 83.2998 324.3 82.9998 326.6Z" fill="white"/>
</g>
<mask id="mask51_201_700" style="mask-type:luminance" maskUnits="userSpaceOnUse" x="51" y="51" width="398" height="398">
<path d="M250 448.5C359.629 448.5 448.5 359.629 448.5 250C448.5 140.371 359.629 51.5 250 51.5C140.371 51.5 51.5 140.371 51.5 250C51.5 359.629 140.371 448.5 250 448.5Z" fill="white"/>
</mask>
<g mask="url(#mask51_201_700)">
<path d="M131 364.7C152.8 365.7 174.2 373.9 191.1 387.6C195.9 391.4 200.3 395.7 204.2 400.4C205 401.3 206.3 402 207.5 401.3C208.5 400.7 208.7 399.1 207.9 398.2C192.9 380.6 172.2 368.1 149.7 362.8C143.3 361.3 136.8 360.4 130.3 360.1C129.1 360 128.1 361.2 128.3 362.4C128.5 363.7 129.7 364.7 131 364.7Z" fill="white"/>
</g>
<mask id="mask52_201_700" style="mask-type:luminance" maskUnits="userSpaceOnUse" x="51" y="51" width="398" height="398">
<path d="M250 448.5C359.629 448.5 448.5 359.629 448.5 250C448.5 140.371 359.629 51.5 250 51.5C140.371 51.5 51.5 140.371 51.5 250C51.5 359.629 140.371 448.5 250 448.5Z" fill="white"/>
</mask>
<g mask="url(#mask52_201_700)">
<path d="M174.3 387.4C182.6 398 192.1 407.6 204.5 413.3C215.7 418.4 228.3 420.5 240.5 419.3C247.5 418.6 254.4 416.9 260.9 414.1C261.8 413.7 263 412.7 262.6 411.7C262.2 410.6 260.5 410.8 259.7 411.2C238.1 420.5 211.8 416.4 193.8 401.3C188 396.5 183 390.7 178.4 384.8C177.1 383.2 172.8 385.6 174.3 387.4Z" fill="white"/>
</g>
<mask id="mask53_201_700" style="mask-type:luminance" maskUnits="userSpaceOnUse" x="51" y="51" width="398" height="398">
<path d="M250 448.5C359.629 448.5 448.5 359.629 448.5 250C448.5 140.371 359.629 51.5 250 51.5C140.371 51.5 51.5 140.371 51.5 250C51.5 359.629 140.371 448.5 250 448.5Z" fill="white"/>
</mask>
<g mask="url(#mask53_201_700)">
<path d="M232.2 408C257.5 401.6 284.8 403.9 308.8 414.1C315.6 417 322.1 420.5 328.2 424.6C328.9 425.1 330.2 425.6 330.7 424.5C331.1 423.5 329.9 422.2 329.1 421.7C306.5 406.5 278.9 399 251.7 400.6C244.1 401.1 236.6 402.2 229.3 404.1C228.2 404.4 229 406 229.4 406.6C230 407.4 231.1 408.2 232.2 408Z" fill="white"/>
</g>
<mask id="mask54_201_700" style="mask-type:luminance" maskUnits="userSpaceOnUse" x="51" y="51" width="398" height="398">
<path d="M250 448.5C359.629 448.5 448.5 359.629 448.5 250C448.5 140.371 359.629 51.5 250 51.5C140.371 51.5 51.5 140.371 51.5 250C51.5 359.629 140.371 448.5 250 448.5Z" fill="white"/>
</mask>
<g mask="url(#mask54_201_700)">
<path d="M288 416.5C302.5 430.4 322.3 438.1 342.3 438.4C348.2 438.5 354.2 438 360 436.9C360.5 436.8 361.6 436.6 360.8 436.1C360.1 435.6 358.2 436 357.4 436.2C339.5 439.6 320.4 435 305.1 425.4C300.7 422.6 296.5 419.4 292.8 415.8C292.2 415.2 290.4 415.6 289.7 415.7C289.4 415.8 287.5 416.1 288 416.5Z" fill="white"/>
</g>
<mask id="mask55_201_700" style="mask-type:luminance" maskUnits="userSpaceOnUse" x="51" y="51" width="398" height="398">
<path d="M250 448.5C359.629 448.5 448.5 359.629 448.5 250C448.5 140.371 359.629 51.5 250 51.5C140.371 51.5 51.5 140.371 51.5 250C51.5 359.629 140.371 448.5 250 448.5Z" fill="white"/>
</mask>
<g mask="url(#mask55_201_700)">
<path d="M100.4 394C113.7 391.4 127.5 391.4 140.9 394.1C144.2 394.8 147.5 395.6 150.7 396.6C153.6 397.5 156.6 398.6 159.1 400.3C164 403.7 167 409.5 169.6 414.6C173.2 421.5 176.2 428.7 178.5 436.1C178.8 437.1 180.2 437.9 181.2 438.3C181.9 438.5 183.1 438.7 182.7 437.6C180.5 430.6 177.7 423.7 174.3 417.1C171.2 411.1 167.9 404.9 162.7 400.4C157.3 395.7 150.1 393.6 143.3 391.8C136.3 390 129.1 389 121.8 388.7C113.6 388.4 105.4 389 97.4 390.6C95.4 391.1 99 394.3 100.4 394Z" fill="white"/>
</g>
<mask id="mask56_201_700" style="mask-type:luminance" maskUnits="userSpaceOnUse" x="51" y="51" width="398" height="398">
<path d="M250 448.5C359.629 448.5 448.5 359.629 448.5 250C448.5 140.371 359.629 51.5 250 51.5C140.371 51.5 51.5 140.371 51.5 250C51.5 359.629 140.371 448.5 250 448.5Z" fill="white"/>
</mask>
<g mask="url(#mask56_201_700)">
<path d="M151.6 411C152.8 424.7 160.3 437.4 171.2 445.6C174.4 448 177.9 450 181.5 451.5C182.2 451.8 184 452.4 184.6 451.8C185.3 451.2 183.6 450.4 183.2 450.3C171.5 445.2 162.5 434.6 158.5 422.7C157.3 419.2 156.6 415.6 156.2 412C156.2 410.8 151.4 409.7 151.6 411Z" fill="white"/>
</g>
<mask id="mask57_201_700" style="mask-type:luminance" maskUnits="userSpaceOnUse" x="51" y="51" width="398" height="398">
<path d="M250 448.5C359.629 448.5 448.5 359.629 448.5 250C448.5 140.371 359.629 51.5 250 51.5C140.371 51.5 51.5 140.371 51.5 250C51.5 359.629 140.371 448.5 250 448.5Z" fill="white"/>
</mask>
<g mask="url(#mask57_201_700)">
<path d="M202.4 449.8C211.8 440.6 225.4 438.3 238.1 437.8C245.3 437.6 252.6 437.7 259.9 438.2C267.5 438.7 275.2 439.9 282.4 442.6C289.3 445.2 295.9 449.3 300.4 455.3C300.7 455.7 301.7 457 302.2 456.3C302.7 455.6 301.5 453.8 301.2 453.3C292.1 441.1 277.6 435.8 262.9 434.2C255.1 433.3 247.2 433.2 239.4 433.3C232.7 433.4 225.9 433.8 219.4 435.4C212.2 437.1 205.3 440.2 200 445.4C198.9 446.4 201.7 450.4 202.4 449.8Z" fill="white"/>
</g>
<mask id="mask58_201_700" style="mask-type:luminance" maskUnits="userSpaceOnUse" x="51" y="51" width="398" height="398">
<path d="M250 448.5C359.629 448.5 448.5 359.629 448.5 250C448.5 140.371 359.629 51.5 250 51.5C140.371 51.5 51.5 140.371 51.5 250C51.5 359.629 140.371 448.5 250 448.5Z" fill="white"/>
</mask>
<g mask="url(#mask58_201_700)">
<path d="M244.5 55.3C241.7 53.6 238.5 52.8 235.3 52C232.4 51.2 229.9 49.9 227.4 48.2C221.9 44.3 216.7 39.8 211.8 35.2C211.1 34.5 209.4 33.9 208.5 34.3C207.4 34.7 208.1 35.7 208.7 36.2C213.7 41 219 45.5 224.7 49.5C227.5 51.4 230.4 53.1 233.6 54.1C236.5 55 239.7 55.4 242.3 57C243 57.4 244.7 58.1 245.5 57.4C246.3 56.6 245.1 55.6 244.5 55.3Z" fill="white"/>
</g>
</svg>
