<svg width="500" height="500" viewBox="0 0 500 500" fill="none" xmlns="http://www.w3.org/2000/svg">
<g clip-path="url(#clip0_201_683)">
<mask id="mask0_201_683" style="mask-type:luminance" maskUnits="userSpaceOnUse" x="51" y="51" width="398" height="398">
<path d="M250 448.5C359.629 448.5 448.5 359.629 448.5 250C448.5 140.371 359.629 51.5 250 51.5C140.371 51.5 51.5 140.371 51.5 250C51.5 359.629 140.371 448.5 250 448.5Z" fill="white"/>
</mask>
<g mask="url(#mask0_201_683)">
<path d="M271.6 37.4C255.9 35.6 239.9 34.1 224.2 36.5C216.7 37.7 209.2 39.9 202.5 43.5C196.7 46.6 187.5 52.2 189.6 60.2C190.6 63.8 193.6 66.2 196.5 68.2C200 70.5 203.7 72.4 207.7 73.8C211.6 75.2 215.7 76.3 219.9 76.8C224.4 77.4 228.8 77.2 233.3 77.3C240.5 77.4 250 78.6 253.2 86.3C256.2 93.7 249.1 100.3 243.4 103.7C229 112.1 212 114 196.8 120.7C190.7 123.4 182.8 127.8 183.3 135.6C183.8 143.3 192.1 148.9 198.1 152.5C205.1 156.7 212.9 159.4 221 160.5C226.8 161.3 233.2 161.7 238.5 164.5C244.1 167.5 244.5 174 240.1 178.4C234.8 183.8 226.8 185.7 220 188.5C212.8 191.4 205.3 194.9 200 200.8C195.5 205.8 192.5 212.5 192.8 219.3C193.1 226.8 197.9 232.3 204.2 235.8C207.9 237.8 211.9 239.3 215.7 241C220.1 242.9 224.5 244.7 228.9 246.6C233 248.4 237.2 250 241.3 251.9C244.5 253.4 248 255.3 249.3 258.8C252.2 266.2 244.9 273 238.7 275.2C230.9 278 222.3 278 214.2 280C206.6 282 199 285.3 193.6 291.1C188.7 296.4 185.4 303.7 186.4 311.1C187.3 317.5 191.2 323 196.4 326.7C208 335.1 222.3 335.4 235.6 339.1C242 340.9 248.4 343.9 252.6 349.4C254.8 352.3 256.4 356.4 255.2 360C254 363.7 249.6 365.9 246.4 367.7C239 372 230.9 374.9 222.5 376.5C215.4 377.8 208.2 377.4 201 378.4C195.4 379.2 189.2 380.9 185.8 385.8C181.4 392 184.3 400.3 189.1 405.3C200.7 417.4 218.4 415 233.4 417.3C241 418.5 248.4 421.3 253.1 427.7C257 433.1 257.2 440.2 253 445.4C249.1 450.3 242.8 452.9 237 454.3C228.9 456.3 220.3 456.4 212 456.2C202.7 456.1 193.4 455.3 184.1 454.5C182.9 454.4 181.7 455.4 181.8 456.6C181.9 458 183.3 458.6 184.5 458.7C194.1 459.5 203.6 460.3 213.2 460.4C221.5 460.5 230 460.4 238.1 458.4C249.6 455.7 263.8 447.3 260.8 433.4C259.3 426.4 254.1 421 248 417.5C240.7 413.3 232 412.6 223.7 412.1C215.9 411.6 208 411.3 200.7 408.1C194.3 405.3 186.9 398.8 188.7 390.9C190.1 385 196.5 383.2 201.8 382.4C208.8 381.3 216 381.7 223 380.6C231.3 379.2 239.4 376.5 246.8 372.5C253.2 369 261.2 364.6 260.3 356.1C259.5 349 254 343.3 248.1 339.8C242.1 336.2 235.2 334.5 228.4 333.1C216.4 330.7 200.3 328.9 193.4 317.2C189.7 310.8 190.9 303.1 194.8 297.1C199.3 290.3 206.7 286.4 214.4 284.3C227.6 280.6 250 282.5 254.3 265.4C256.2 257.8 251.1 252.1 244.7 248.9C240.8 246.9 236.7 245.4 232.7 243.7C228.3 241.8 223.9 240 219.5 238.1C215.5 236.4 211.4 234.8 207.5 232.9C204.2 231.2 200.9 229 199.1 225.6C195.8 219.5 197.8 212 201.4 206.5C205.7 199.9 212.9 196.1 220 193.1C227 190.1 234.7 188.1 240.9 183.6C246 179.9 249.8 173.6 246.9 167.3C244.5 161.9 238.4 159.6 233.1 158.3C226.4 156.7 219.4 156.6 212.7 154.6C205.1 152.4 197.2 148.3 191.6 142.6C189 139.9 186.8 136.2 188.6 132.4C190.1 129.2 193.4 127.2 196.4 125.7C203.9 122 212 119.7 219.9 117.4C227.8 115.1 235.7 112.7 243 108.9C249.3 105.6 256.1 100.9 258 93.6C259.9 86.4 255.3 80 249.2 76.6C241.6 72.3 232.6 73.4 224.2 73.1C215.7 72.8 207.3 70.2 200 65.7C197 63.9 193 61.2 194 57.1C194.9 53.3 198.9 50.7 202 48.8C215.5 40.5 231.6 39.1 247.1 39.6C254.8 39.9 262.6 40.6 270.3 41.5C271.4 41.6 272.9 41.4 273.2 40C273.8 38.7 272.7 37.5 271.6 37.4Z" fill="white"/>
</g>
<mask id="mask1_201_683" style="mask-type:luminance" maskUnits="userSpaceOnUse" x="51" y="51" width="398" height="398">
<path d="M250 448.5C359.629 448.5 448.5 359.629 448.5 250C448.5 140.371 359.629 51.5 250 51.5C140.371 51.5 51.5 140.371 51.5 250C51.5 359.629 140.371 448.5 250 448.5Z" fill="white"/>
</mask>
<g mask="url(#mask1_201_683)">
<path d="M237.5 53.2998C247.9 54.5998 258.7 55.8998 268.4 60.0998C277.3 63.9998 284.6 70.4998 288.5 79.4998C292 87.5998 292.1 96.9998 286.9 104.4C281.1 112.6 271 116.6 261.9 119.9C251.5 123.7 240.6 126.9 232.1 134.4C231.4 135.1 233.8 136 234.1 136.1C243.4 139.4 252.4 143.5 260.9 148.5C269.2 153.3 277.7 158.9 284.7 165.4C287.9 168.3 291 172 291.8 176.4C292.6 181.2 289.6 184.9 285.6 187C277 191.5 266.7 191.2 257.9 195.2C250.8 198.4 244.6 204.6 245.1 212.9C245.6 220.7 251.6 226.9 257.4 231.3C263.8 236.1 271.2 239 278 243.2C284.3 247.1 290.8 252.4 292.4 260C294.1 268 289.4 275.1 283.2 279.6C276.1 284.8 267.6 286.6 259.3 288.8C251.5 290.9 242.2 293.6 237.2 300.5C234.9 303.6 233.9 307.7 236.5 311C239.2 314.4 244.2 316.3 248.1 317.9C264.3 324.6 285.9 327.1 295.3 344C297.5 347.9 299.3 353 297 357.3C295 361 290.9 362.9 287.3 364.6C277.4 369.2 267.5 373.7 257.7 378.2C254.2 379.8 248.7 381.3 247.1 385.4C245.6 389.3 248.6 393.6 251.2 396.3C256.9 402.3 265 405.4 272.6 408.1C280.1 410.8 288.1 413.6 293.3 420C299.2 427.1 298 436.2 293.2 443.6C290.7 447.5 287.5 451 284.3 454.4C283.5 455.2 287.9 457.2 288.7 456.4C294.8 450.1 301.9 442.5 302.1 433.2C302.3 425.1 296.9 418.8 290.4 414.6C283.3 410 275.3 407.8 267.6 404.7C263.7 403.1 259.8 401.2 256.7 398.3C253.7 395.6 249.8 390.8 252 386.6C253 384.7 255 383.6 256.9 382.7C259.4 381.5 262 380.3 264.6 379.2C269.7 376.9 274.7 374.6 279.8 372.2C284.6 370 289.6 367.9 294.4 365.5C297.7 363.8 301.3 361.4 302.5 357.6C303.8 353.3 301.9 348.6 299.8 344.9C297.8 341.4 295.1 338.4 292 335.8C285.2 330 276.8 326.4 268.4 323.5C263.6 321.9 258.8 320.4 254 318.7C251.6 317.8 249.3 316.9 247 315.8C244.7 314.8 242 313.6 240.7 311.5C238.1 307.4 241.4 302.3 244.6 299.6C248 296.7 252 294.8 256.2 293.3C264.4 290.3 273.3 289.2 281.3 285.5C288.1 282.3 295 277.1 297.1 269.5C301.6 253.1 282.5 243.2 270.6 237.3C263.3 233.7 255.6 228.5 251.9 221C248 213.2 250.8 205 257.7 200.1C265.7 194.4 275.9 194.1 285 191.2C289.1 189.9 293.7 188.1 295.9 184.2C298 180.5 297 176.2 294.9 172.7C292.6 168.9 289.3 165.9 285.9 163.2C282.1 160.1 278.1 157.2 274.1 154.5C266 149.1 257.5 144.3 248.7 140.3C244.2 138.3 239.7 136.5 235.1 134.8C235.8 135.4 236.4 135.9 237.1 136.5C245.3 129.4 255.7 126.1 265.7 122.5C275.4 119 286.1 115 292.2 106.3C297.6 98.5998 297.2 88.7998 293.5 80.4998C289.3 71.2998 281.7 64.7998 272.8 60.3998C261.3 54.8998 248.5 53.0998 236 51.4998C235.3 51.3998 234.4 51.2998 234.8 52.1998C234.7 52.5998 236.7 53.1998 237.5 53.2998Z" fill="white"/>
</g>
<mask id="mask2_201_683" style="mask-type:luminance" maskUnits="userSpaceOnUse" x="51" y="51" width="398" height="398">
<path d="M250 448.5C359.629 448.5 448.5 359.629 448.5 250C448.5 140.371 359.629 51.5 250 51.5C140.371 51.5 51.5 140.371 51.5 250C51.5 359.629 140.371 448.5 250 448.5Z" fill="white"/>
</mask>
<g mask="url(#mask2_201_683)">
<path d="M305 52.9C312.6 57.5 318 65 320.3 73.5C322.7 82.3 321.2 91.7 316.9 99.7C314.7 103.9 311.8 107.6 308.3 110.8C304.8 114 300.7 116.1 296.9 118.9C293.3 121.5 290.6 124.8 289.6 129.2C288.7 133.2 289.5 137.4 291 141C294.6 149.3 301.4 155.1 308.9 159.8C315.7 164.1 323.7 168.4 327.9 175.6C332.7 183.8 329.8 193.8 324 200.7C317.6 208.4 307.9 212.4 298.6 215.3C295 216.4 290.1 217.2 288 220.8C285.3 225.3 288.9 230.4 291.9 233.7C298.2 240.8 307.1 244.7 313.9 251.1C320.3 257.1 324.8 265.5 320 273.9C316 281 307.9 285.2 300.9 288.8C297.2 290.7 293.1 292.5 290.7 296.2C288.1 300.2 288.7 305.1 290.8 309.2C295.3 317.9 306 320.6 313 326.6C319.8 332.4 325 340.6 325 349.8C325 354 324 358.1 321.9 361.7C319.8 365.4 316.5 367.9 312.9 370C306.7 373.7 299 377.5 299 385.8C298.9 393.4 305.9 398.2 311.7 401.7C318 405.5 324.3 408.9 327.3 416.1C330 422.7 329.8 430.5 326.8 437C325.3 440.2 323.1 443 320.4 445.1C318.3 446.7 320.8 451 322.9 449.4C335.2 440 336.9 420.9 327.8 408.7C323.1 402.4 315.6 399.5 309.3 395C306.9 393.3 304.1 391 303.5 388C302.8 384.4 305 381.3 307.7 379.2C310.7 376.8 314.3 375.2 317.5 373.1C321 370.8 323.9 368 325.9 364.4C330.3 356.7 330.3 346.9 327 338.8C323.3 330 316.3 322.9 308.2 318C304 315.5 299.1 313.4 295.9 309.6C292.8 306 292.1 301.1 295.8 297.6C298.9 294.6 303.5 293.1 307.2 291C311 288.9 314.6 286.6 317.8 283.8C324.2 278.3 327.8 270.4 325.6 261.9C323.2 252.6 315.1 246.2 307.6 241C303.7 238.3 299.6 235.7 296.1 232.3C294.5 230.7 292.8 229 291.8 226.9C290.5 224.3 291.9 222.8 294.2 221.7C296.2 220.8 298.4 220.3 300.5 219.7C303 218.9 305.5 218 307.9 217.1C312.6 215.2 317.2 212.9 321.2 209.8C328.6 204.1 334.1 195.5 334.4 186C334.6 176.9 329.5 169.5 322.7 164.1C316 158.7 307.6 155.2 301.4 149.2C295.8 143.7 289.9 134.4 295.3 126.8C298.1 122.9 302.8 120.9 306.6 118.1C310.4 115.4 313.8 112.2 316.6 108.4C322.2 100.9 325.4 91.8 325.4 82.5C325.3 73.5 322 64.6 316.4 57.5C313.6 54 310.3 51.1 306.5 48.8C304 47.3 302.6 51.5 305 52.9Z" fill="white"/>
</g>
<mask id="mask3_201_683" style="mask-type:luminance" maskUnits="userSpaceOnUse" x="51" y="51" width="398" height="398">
<path d="M250 448.5C359.629 448.5 448.5 359.629 448.5 250C448.5 140.371 359.629 51.5 250 51.5C140.371 51.5 51.5 140.371 51.5 250C51.5 359.629 140.371 448.5 250 448.5Z" fill="white"/>
</mask>
<g mask="url(#mask3_201_683)">
<path d="M341 67.4002C350.1 79.6002 350 97.9002 340.5 109.9C335.9 115.8 328.9 119.6 325.1 126.1C320.7 133.6 324 142 329.5 147.8C335.5 154.1 343.7 157.7 349.4 164.3C353.6 169.2 356.1 175.2 357.1 181.5C359 194 355.2 207.8 345.9 216.5C343.6 218.6 341.1 220.4 338.3 221.8C334.8 223.6 331 225 328.8 228.5C324 236.1 330.5 244.7 335.3 250.3C338 253.4 340.8 256.6 342.5 260.4C344 263.8 344.6 267.5 344.5 271.1C344.3 278.2 341.3 285.3 335.9 289.9C331 294.2 322.5 296.5 320.8 303.6C319 311 326.5 316.4 331.8 319.9C339 324.7 345.9 329.8 350 337.6C353.7 344.7 354.5 353.9 350 360.9C346.4 366.5 340 369.6 334.5 373C329.5 376.2 324.2 380.2 323.6 386.6C322.9 395 330.2 401.3 336.6 405.3C343.7 409.8 352.4 413.9 354.4 422.8C355.2 426.3 354.8 430.1 352.4 432.9C351.9 433.5 356.3 434.9 357.1 433.9C362.2 427.9 359.1 419.1 354 414.2C347.7 408.1 338.7 405.4 332.9 398.7C330.2 395.7 328.2 391.9 328.4 387.7C328.5 384.5 329.9 381.6 332.1 379.3C336.5 374.6 342.8 372 348 368.3C354.1 364 357.9 358 357.9 350.4C357.9 341.9 353.6 334.4 347.7 328.6C344.7 325.7 341.3 323.1 337.8 320.8C334.5 318.7 331.2 316.5 328.6 313.6C326.2 310.9 324.8 307.6 325.7 304C326.6 300.6 329.5 298.3 332.3 296.4C335.3 294.4 338.6 292.7 341.2 290.2C343.7 287.8 345.7 284.8 347.1 281.7C349.9 275.3 350.1 267.8 347.5 261.3C344.3 253.3 336.3 248.6 333.2 240.6C331.7 236.7 331.4 231.9 334.2 228.5C336.7 225.4 340.8 224.1 344.2 222.2C355.3 216 361.7 203.4 362.4 190.9C362.8 184.7 361.7 178.4 359.2 172.6C356.2 165.8 351.1 161.1 345.2 156.8C338.1 151.6 329.4 145.9 328 136.5C326.8 128.2 333 122.6 338.6 117.6C344.3 112.5 348.9 106.9 351.2 99.4002C353.3 92.2002 353.2 84.4002 350.8 77.3002C349.7 73.9002 348 70.7002 345.8 67.8002C345.2 67.1002 343.7 67.0002 342.8 66.9002C342.6 66.8002 340.5 66.8002 341 67.4002Z" fill="white"/>
</g>
<mask id="mask4_201_683" style="mask-type:luminance" maskUnits="userSpaceOnUse" x="51" y="51" width="398" height="398">
<path d="M250 448.5C359.629 448.5 448.5 359.629 448.5 250C448.5 140.371 359.629 51.5 250 51.5C140.371 51.5 51.5 140.371 51.5 250C51.5 359.629 140.371 448.5 250 448.5Z" fill="white"/>
</mask>
<g mask="url(#mask4_201_683)">
<path d="M364.6 76.1001C368.4 83.1001 372.1 90.5001 373.6 98.4001C375 105.8 373.5 112.8 368.8 118.8C364.8 124 359.5 128.4 357.6 134.9C355.5 142 358.7 149.1 362.9 154.7C367.4 160.8 372.9 166.1 377.1 172.5C381.3 178.8 384.6 185.8 385.7 193.4C386.6 199.7 385.7 206.3 382.9 212C379.9 218 375.3 222.2 369.1 224.6C365.8 225.9 362.5 227.2 360.1 229.9C358 232.3 356.9 235.2 356.7 238.3C356.3 244.8 359.5 251.4 363 256.6C367 262.5 372.3 267.6 375 274.4C376.2 277.4 376.9 280.8 376.1 284C375.2 287.3 372.7 289.6 369.9 291.3C363.9 294.8 356.5 296.7 353.4 303.6C351.9 306.9 352.2 310.5 354.3 313.4C356.5 316.5 359.9 318.5 362.8 320.7C368.9 325.2 375.4 330 379.6 336.5C383.3 342.4 385.3 350.3 382.2 356.8C379.2 363.1 372.5 366.2 366.7 369.5C360.6 373 354.2 377.9 352.4 385C350.7 391.9 354.7 397.8 360.4 401.4C366 404.8 372.9 406.2 377.2 411.5C379.1 413.8 380.3 416.8 378.8 419.6C377.5 422.1 381.7 424.8 383.1 422.2C386.7 415.4 381.7 408.6 376.2 404.6C371.1 400.9 364.2 399.8 359.6 395.3C354 389.7 358 382.3 363 377.9C368.3 373.2 375.3 370.9 380.7 366.3C386.3 361.6 389.1 354.8 388.2 347.5C387.3 339.9 383.5 333.2 378.2 327.8C372.7 322.1 366 318.2 360.1 313.1C357.4 310.8 356.3 307.9 358.2 304.7C360.1 301.5 363.3 299.6 366.6 298C372.8 295.1 379.4 291.8 380.9 284.4C382.3 277.2 378.4 269.9 374.4 264.2C370.4 258.5 365.6 253.6 363 247.1C360.8 241.4 360.3 234.4 366.3 230.9C369.4 229.1 372.9 228.4 375.9 226.6C378.7 225 381.1 222.9 383.2 220.4C387.4 215.3 389.8 208.9 390.5 202.4C392.2 187.1 384 172.9 374.6 161.6C370 156.1 364.1 150.6 362.2 143.4C360.4 136.5 364.7 130.9 369.1 126C371.3 123.5 373.5 121 375.3 118.2C377.3 115 378.5 111.3 378.9 107.6C379.7 99.7001 377.3 91.9001 374.2 84.8001C372.6 81.1001 370.8 77.6001 368.8 74.1001C367.3 71.7001 363 73.3001 364.6 76.1001Z" fill="white"/>
</g>
<mask id="mask5_201_683" style="mask-type:luminance" maskUnits="userSpaceOnUse" x="51" y="51" width="398" height="398">
<path d="M250 448.5C359.629 448.5 448.5 359.629 448.5 250C448.5 140.371 359.629 51.5 250 51.5C140.371 51.5 51.5 140.371 51.5 250C51.5 359.629 140.371 448.5 250 448.5Z" fill="white"/>
</mask>
<g mask="url(#mask5_201_683)">
<path d="M390.6 92.3999C394.9 94.8999 395.3 100.5 394.4 104.9C393.2 110.5 389.5 114.8 386 119.2C382.2 123.9 378.6 129 378.2 135.2C377.8 141.5 380.6 147.6 384.2 152.6C391.5 162.8 403.6 169.5 408.3 181.6C412.4 192.1 410.3 204.7 403.2 213.4C396.3 221.9 383.4 225.8 381.1 237.7C379.9 244.1 382.2 250.7 385.4 256.2C388.8 262.1 393.3 267.2 396.6 273.2C399.4 278.3 401.1 284.2 400 290C399.5 292.7 398.3 295.3 396.3 297.3C394.5 299.1 392.2 300.4 390 301.7C385.3 304.6 380.9 308.3 381.7 314.4C382.6 321.1 387.8 325.4 392.4 329.7C397 334 400.6 339.2 401.5 345.5C402.3 351.7 399.9 357.1 395.8 361.7C392 366 387.2 369.6 384.6 374.8C382.5 378.9 381.4 384.2 383.3 388.7C384.2 390.8 385.8 392.4 387.7 393.5C388.7 394.1 390.2 394.2 391.2 393.6C392.1 393.1 392.2 392.2 391.3 391.7C387 389.3 386.8 383.9 387.9 379.6C389.3 374.1 393.3 370.2 397.2 366.2C401.3 362 405.4 357.4 406.4 351.3C407.4 345.4 405.4 339.2 402.1 334.3C398.4 329 392.5 325.7 389 320.3C387.3 317.7 386.2 314.6 386.7 311.4C387.1 308.7 389 306.7 391.1 305.1C395.4 301.9 400.6 300 403.3 295C405.9 290.1 405.7 284.1 404.1 278.9C400.3 266.2 387.8 257.7 385.9 244.1C385 237.9 387.2 232.4 391.7 228.1C395.8 224.2 400.7 221.3 404.8 217.5C412.9 209.9 416.6 198.1 414.7 187.2C413.6 181.3 411 176.1 407.2 171.5C403.1 166.5 398.2 162.3 393.7 157.7C389.2 153.1 385.2 147.7 383.6 141.5C381.9 135.2 383.8 129.4 387.4 124.2C390.7 119.5 395.2 115.3 397.6 110C399.5 105.6 400.5 100.2 398.5 95.6999C397.6 93.5999 396 91.8999 394 90.6999C393 90.0999 391.5 89.9999 390.5 90.5999C389.7 90.9999 389.6 91.8999 390.6 92.3999Z" fill="white"/>
</g>
<mask id="mask6_201_683" style="mask-type:luminance" maskUnits="userSpaceOnUse" x="51" y="51" width="398" height="398">
<path d="M250 448.5C359.629 448.5 448.5 359.629 448.5 250C448.5 140.371 359.629 51.5 250 51.5C140.371 51.5 51.5 140.371 51.5 250C51.5 359.629 140.371 448.5 250 448.5Z" fill="white"/>
</mask>
<g mask="url(#mask6_201_683)">
<path d="M416.8 125.2C409.1 129.3 407.2 138.8 408.7 146.7C410.6 156.7 418.4 164.3 424.9 171.6C431.3 178.8 438.6 188.6 435.8 198.9C433 209 422.3 213.8 414.6 219.6C410.6 222.6 406.9 226.1 404.9 230.7C403 235 402.6 240 404.4 244.4C406.3 249 410.6 251.7 414.9 253.8C418.5 255.6 422.2 257.5 423.8 261.5C425.3 265.5 424.8 270 423.6 273.9C422.3 278.3 419.9 282.2 417.1 285.9C414.1 289.9 410.8 293.6 407.9 297.7C405.1 301.8 402.5 306.5 402 311.5C401.7 314.3 402.7 317 404.6 319C406.3 320.8 408.5 321.8 410.6 323C414.4 325.4 417.5 328.8 419.5 332.8C424 341.3 423.2 351.8 417.9 359.8C416.5 361.9 414.9 363.7 413.1 365.4C411.5 366.8 415.2 370.2 416.9 368.7C424.4 362 428 351.6 426.5 341.7C425 332 418.6 323.6 410.2 318.9C408.4 317.9 406.6 317 406.4 314.8C406.2 312.3 407.2 309.7 408.1 307.5C410 303 413.1 299 416.2 295.2C419.2 291.4 422.5 287.7 424.9 283.4C427.1 279.4 428.6 275 429 270.5C429.4 266.1 428.4 261.7 425.9 258C423.1 254 418.9 252 414.7 249.9C412.9 249 411 248 409.7 246.4C408.3 244.8 407.7 242.8 407.6 240.8C407.3 236 409.5 231.5 412.6 228C419.4 220.4 429.6 216.9 436 208.9C439.2 204.9 441 200 440.7 194.8C440.4 189.5 438.4 184.5 435.7 180C430.3 171 421.6 164.5 416.2 155.5C412.2 148.7 410.5 139.2 415.6 132.4C416.7 130.9 418.1 129.7 419.8 128.8C422 127.9 418.7 124.2 416.8 125.2Z" fill="white"/>
</g>
<mask id="mask7_201_683" style="mask-type:luminance" maskUnits="userSpaceOnUse" x="51" y="51" width="398" height="398">
<path d="M250 448.5C359.629 448.5 448.5 359.629 448.5 250C448.5 140.371 359.629 51.5 250 51.5C140.371 51.5 51.5 140.371 51.5 250C51.5 359.629 140.371 448.5 250 448.5Z" fill="white"/>
</mask>
<g mask="url(#mask7_201_683)">
<path d="M455.8 190.5C454.9 201.5 449.1 211.1 440.3 217.6C436.5 220.4 432.3 223 429.6 226.9C426.5 231.4 426.8 236.8 429.2 241.5C431.9 246.9 436.7 250.6 440.6 255.1C443.9 259 445.6 263.6 445.6 268.7C445.6 273.5 444.1 278.2 441.2 282C438.2 286 433.6 288.2 430.2 291.7C425.8 296.2 425.7 302.4 428.5 307.7C431.6 313.8 437.8 317.5 443.5 320.8C444.2 321.2 445.7 321.9 446.3 321C446.9 320.1 445.5 318.9 444.9 318.6C440.3 315.9 435.2 313.1 432.6 308.2C431.4 305.9 430.7 303.2 431.1 300.6C431.4 298.2 432.8 296.1 434.5 294.3C437.9 290.9 442.3 288.7 445.3 284.9C448.2 281.2 449.8 276.6 450.1 272C450.4 267.3 449.3 262.4 446.9 258.3C443.9 253.3 439.1 249.8 435.6 245.2C432.4 241.1 430.6 235.7 433.2 230.8C435.4 226.7 439.4 224.1 443.1 221.4C447.8 218 452 214.1 455 209C458.1 203.9 460 198.1 460.5 192.2C460.4 190.8 455.9 188.6 455.8 190.5Z" fill="white"/>
</g>
<mask id="mask8_201_683" style="mask-type:luminance" maskUnits="userSpaceOnUse" x="51" y="51" width="398" height="398">
<path d="M250 448.5C359.629 448.5 448.5 359.629 448.5 250C448.5 140.371 359.629 51.5 250 51.5C140.371 51.5 51.5 140.371 51.5 250C51.5 359.629 140.371 448.5 250 448.5Z" fill="white"/>
</mask>
<g mask="url(#mask8_201_683)">
<path d="M145.9 68.5C152.9 75.3 162.2 78.4 171.6 80.4C176.5 81.5 181.5 82.3 186.4 83.3C191.5 84.4 196.9 85.6 201.1 88.8C205 91.8 207.7 97.2 206 102.2C204.3 107.1 199 109.8 194.8 112.2C189.3 115.4 183.7 118.5 178.2 121.7C173.8 124.2 168.5 126.5 165.1 130.4C157.6 138.9 168 147.1 174.9 151.3C183.9 156.7 193.9 163.2 196.1 174.3C197 179.1 196.3 184.1 193.2 187.9C190.5 191.2 186.7 193.1 182.9 194.9C175.6 198.3 167 201.5 164.4 210C161.9 218.2 166.1 227.4 172 233.1C179.5 240.3 191.5 241.3 197.6 250.1C200.4 254.2 200.9 259.3 198.1 263.5C195.6 267.1 191.6 269.4 187.6 271.1C179.2 274.8 170.3 277.2 163.2 283.4C155.8 289.9 153.3 299.4 156.3 308.7C159.6 319.1 167.6 327.2 175.6 334.2C180.1 338.1 184.8 341.8 189.8 345.1C193.8 347.8 199 350.8 198.9 356.3C198.8 362 194 365.8 189.3 368.1C184.7 370.4 179.8 371.9 175.5 374.8C168 379.8 161.3 387.6 161.5 397.1C161.7 406.1 167.9 413.3 175 418.2C178.8 420.8 183.1 422.9 187.4 424.5C191.9 426.2 196.7 427.3 201 429.4C205.1 431.4 208.8 434.7 209.9 439.3C210.8 443.1 210 447.2 208.1 450.6C206.2 453.9 203.2 456.5 199.4 457.3C198.4 457.5 198.6 458.1 199.3 458.5C200.3 459.1 201.8 458.9 202.8 458.7C210.4 457.2 215.7 449.5 215.2 441.8C214.6 432 204.8 428 196.7 425.4C187.7 422.5 178.7 418.8 172.3 411.5C166 404.3 164.5 394.5 169.6 386.1C172.2 381.9 175.9 378.4 180 375.8C184.4 373 189.2 371.4 193.9 369.1C198.4 366.9 202.6 363.5 203.7 358.3C204.7 353.3 201.5 349.6 197.7 346.9C193.1 343.5 188.3 340.4 183.8 336.8C179.2 333.1 174.7 329.1 170.8 324.6C164 316.8 157.9 306.4 160.6 295.7C163 286.2 171.7 280.6 180.2 276.8C187.9 273.4 198.2 271.5 203.1 264C209.1 254.8 200.5 245.9 192.7 241.8C187.9 239.3 182.6 237.5 178.3 234C174.8 231.2 172.1 227.4 170.4 223.3C168.8 219.4 168.2 214.9 169.3 210.8C170.5 206.5 173.6 203.2 177.3 200.9C184.3 196.6 193.5 194.9 198.5 188C204.5 179.7 200.5 168.6 194.1 161.8C190.3 157.9 185.8 154.8 181.1 152C176.9 149.4 172.3 147 169.4 142.8C166.4 138.5 167.1 133.6 171 130.1C172.9 128.4 175.2 127.1 177.4 125.8C180.2 124.2 182.9 122.6 185.7 121C191.2 117.9 196.7 114.8 202.1 111.6C206 109.3 210 106.3 211.2 101.7C212.3 97.1 210 92.3 206.6 89.3C202.7 85.7 197.4 84.1 192.4 82.8C182.6 80.4 172.4 79.5 162.9 75.9C158.4 74.2 154.1 71.7 150.6 68.3C149.9 67.6 148.6 67.5 147.6 67.5C147.4 67.5 145.2 67.8 145.9 68.5Z" fill="white"/>
</g>
<mask id="mask9_201_683" style="mask-type:luminance" maskUnits="userSpaceOnUse" x="51" y="51" width="398" height="398">
<path d="M250 448.5C359.629 448.5 448.5 359.629 448.5 250C448.5 140.371 359.629 51.5 250 51.5C140.371 51.5 51.5 140.371 51.5 250C51.5 359.629 140.371 448.5 250 448.5Z" fill="white"/>
</mask>
<g mask="url(#mask9_201_683)">
<path d="M120.5 82.1C130.8 84.8 141 87.4 151.3 90.1C155.4 91.2 160.5 91.9 163.2 95.5C165.3 98.2 165.8 101.8 165.3 105.2C164.1 113.5 158 118.7 151.4 123.2C147.8 125.7 144 128 140.7 130.9C137.7 133.5 134.8 137.1 135.5 141.4C137 149.2 145.3 154.7 151.4 158.7C158.3 163.3 165.7 168 169.1 176C170.7 179.8 170.8 184.1 169.2 188C167.6 191.6 164.6 194.5 161.5 196.8C155.3 201.5 147.6 204.8 143.2 211.6C141.2 214.7 140 218.3 140.7 222C141.3 225.6 143.4 228.6 146 231.2C151.7 236.9 159.7 240.1 164.5 246.8C166.8 250 168 253.9 166.9 257.8C165.7 262.1 162.4 265.5 159.2 268.4C152.6 274.4 144.5 278.6 138.2 284.9C132.4 290.7 128.2 298.3 129.7 306.7C131.1 314.9 136.7 321.7 142.5 327.3C148.5 333.2 155.4 338.5 159.7 345.9C161.9 349.5 164.2 354.5 162.6 358.8C161.1 362.8 156.5 365.6 153.3 368.3C146.5 374.1 139.9 380.6 136.7 389.2C133.6 397.6 135 406.2 140.7 413C149.8 424 171.7 432.6 167 450.3C166.1 453.5 164.2 456.4 161.2 458C160.2 458.5 161.5 459 162 459.2C162.9 459.5 164.5 459.8 165.4 459.3C171.6 456.2 173.6 448.8 172.1 442.3C170.3 434.2 163.4 428.4 157.2 423.5C150.4 418.2 142.6 412.3 140.5 403.5C138.3 394.3 142.9 385 148.8 378.2C151.9 374.6 155.5 371.5 159.1 368.4C162.2 365.8 166.3 363.1 167.7 359.1C169.1 355.1 167 350.3 165 346.8C162.9 343.1 160.2 339.9 157.3 336.9C151.2 330.7 144.3 325.4 139.4 318.1C134.5 310.8 132.7 302.1 136.9 294C141 285.9 148.8 280.7 156 275.6C159.6 273 163.3 270.3 166.4 267.1C169.3 264.1 172.1 260.4 172.4 256.1C173 248 165.5 242 159.5 237.9C153.3 233.7 145.3 228.3 145.6 219.8C145.9 211.4 154 205.9 160.4 201.8C166.7 197.8 174 193 175.4 185.1C176.9 176.8 170.9 169.3 164.8 164.3C158.2 159 150.1 155.5 144.6 148.9C141.9 145.7 139.5 141.5 141.2 137.3C142.9 133.2 147.2 130.3 150.7 127.9C157.3 123.3 165.1 119.1 168.6 111.5C171.5 105.3 171.5 97.1 165.2 93C161.5 90.6 157 89.8 152.8 88.7C147.5 87.3 142.3 86 137 84.6C132 83.3 127 82 122 80.7C121.5 80.6 119.2 80.2 118.9 80.9C118.6 81.7 120 81.9 120.5 82.1Z" fill="white"/>
</g>
<mask id="mask10_201_683" style="mask-type:luminance" maskUnits="userSpaceOnUse" x="51" y="51" width="398" height="398">
<path d="M250 448.5C359.629 448.5 448.5 359.629 448.5 250C448.5 140.371 359.629 51.5 250 51.5C140.371 51.5 51.5 140.371 51.5 250C51.5 359.629 140.371 448.5 250 448.5Z" fill="white"/>
</mask>
<g mask="url(#mask10_201_683)">
<path d="M96.7002 96.5001C104.6 94.5001 113.2 95.2001 120.7 98.6001C126 101 132.5 106 130.7 112.7C129.5 117.4 124.8 120.6 121.1 123.3C116.9 126.4 112.5 129.7 110.2 134.6C107 141.3 110 148.4 114.5 153.7C119.3 159.4 125.6 163.5 130.4 169.2C135 174.7 137.6 181.3 135 188.3C132.3 195.4 126.4 200.4 120.7 205.1C114.9 209.9 109 214.9 105.6 221.8C104 225.2 103.1 229.2 104.2 232.9C105.1 236 107.2 238.5 109.7 240.6C114.2 244.5 120.3 246.9 123.1 252.5C125.8 258 125.2 264.6 122.9 270.2C121.7 273.1 120.1 275.8 118.1 278.2C115.8 280.9 113 283 110.2 285.2C104.4 289.8 99.5002 295.3 99.8002 303.2C100.1 310.9 104.7 317.8 109.7 323.4C114.8 329.1 120.8 334 125 340.5C128.8 346.3 130.1 353.3 126.3 359.4C122.9 365 117.4 368.8 113.4 373.9C108.5 379.9 106.8 387.4 108 395C109.3 403.2 113.6 410.4 118.7 416.7C121.3 419.8 124 422.8 126.8 425.8C127.7 426.7 129 427.3 130.2 426.5C131.2 425.8 131.4 424.2 130.5 423.3C124.8 417.2 118.8 410.9 115.3 403.2C112.1 396.2 111 387.6 114.9 380.6C118.1 374.8 123.8 370.8 128 365.7C132.4 360.4 134.7 353.7 132.9 346.8C128.7 331.1 111.9 324.1 106 309.5C104.7 306.3 104.2 302.7 105.1 299.4C106.1 295.9 108.6 293.1 111.3 290.8C114.1 288.4 117.2 286.3 119.9 283.7C122.3 281.4 124.2 278.7 125.8 275.8C128.9 270.1 130.4 263.3 129.3 256.9C128.1 250.2 124 245.4 118.6 241.6C113.7 238.2 107.2 234.6 108.8 227.6C110.4 220.2 117 214.7 122.5 210.1C128.4 205.2 134.4 200.3 138.1 193.4C141.7 186.8 141.7 179.1 138.1 172.5C134.5 165.9 128.7 161.1 123.2 156.2C118.3 151.9 111.8 145.3 114.2 138.1C115.8 133.3 120.3 130.2 124.1 127.3C128.2 124.2 132.9 120.9 134.9 115.9C137.6 109.5 134.4 102.9 129.4 98.6001C123.3 93.4001 114.7 91.0001 106.8 90.6001C102.8 90.4001 98.8002 90.9001 94.9002 91.9001C91.7002 92.8001 93.9002 97.1001 96.7002 96.5001Z" fill="white"/>
</g>
<mask id="mask11_201_683" style="mask-type:luminance" maskUnits="userSpaceOnUse" x="51" y="51" width="398" height="398">
<path d="M250 448.5C359.629 448.5 448.5 359.629 448.5 250C448.5 140.371 359.629 51.5 250 51.5C140.371 51.5 51.5 140.371 51.5 250C51.5 359.629 140.371 448.5 250 448.5Z" fill="white"/>
</mask>
<g mask="url(#mask11_201_683)">
<path d="M91 107.5C95.8 109.2 98.3 115 97.8 119.8C97.2 125.7 92.5 130.1 90 135.2C87.4 140.6 88.4 146.1 91.7 151C95.2 156.1 100.1 159.9 103.4 165.1C106.9 170.5 108.7 177 107.7 183.4C106.9 188.4 104.1 192.8 101 196.7C95 204.1 86.6 210 82.4 218.8C80.4 223.1 79.8 227.7 80.9 232.3C82 236.9 84.7 241.1 87.4 244.9C92.5 251.9 100.6 259.8 99.3 269.2C98.5 274.7 94.5 278.8 90.5 282.4C86.3 286.2 81.7 289.9 79.3 295.2C76.7 300.8 76.3 307.4 78.3 313.2C80.5 319.5 85.2 324.5 89.8 329.1C94.3 333.7 99 338.6 100.6 345C101.9 350.2 100.2 355.1 97.2 359.3C94.5 363.1 91 366.3 87.7 369.7C84.7 372.8 81.6 376.3 80.2 380.5C79.5 382.5 79.2 384.6 79.4 386.7C79.5 387.8 80.6 388.6 81.5 389.1C81.9 389.3 83.8 389.9 83.7 388.9C82.9 379.3 92 372.7 97.8 366.4C100.9 363 103.7 359.3 104.9 354.9C106.5 348.6 103.9 342.3 100.3 337.3C96.3 331.8 91 327.5 86.8 322.2C82.7 317.1 80.8 310.9 81.7 304.3C82.6 298 86.1 293.2 90.6 289C94.7 285.2 99.4 281.8 102 276.7C106.9 267.1 100.6 258 95 250.5C89.3 243 82.5 234.6 85.5 224.5C86.8 220 89.8 216.2 92.8 212.8C96.1 209 99.8 205.6 103.2 201.9C106.4 198.3 109.5 194.3 111.1 189.7C113.3 183.6 112.7 176.9 110.2 171C107.7 165 103.3 160.5 99 155.7C95.2 151.4 91.7 146.5 93.3 140.5C94.9 134.7 99.8 130.5 101.6 124.8C103.3 119.3 101.4 113.4 97.5 109.3C95.4 107.1 92.9 105.5 90 104.5C89.2 104.2 88.2 104.3 88.4 105.3C88.6 106.3 90.1 107.2 91 107.5Z" fill="white"/>
</g>
<mask id="mask12_201_683" style="mask-type:luminance" maskUnits="userSpaceOnUse" x="51" y="51" width="398" height="398">
<path d="M250 448.5C359.629 448.5 448.5 359.629 448.5 250C448.5 140.371 359.629 51.5 250 51.5C140.371 51.5 51.5 140.371 51.5 250C51.5 359.629 140.371 448.5 250 448.5Z" fill="white"/>
</mask>
<g mask="url(#mask12_201_683)">
<path d="M74.5002 137C68.9002 146.6 77.4002 156.7 81.8002 164.8C84.2002 169.2 86.4002 174.5 85.3002 179.6C84.1002 184.8 79.7002 187.6 75.8002 190.7C71.3002 194.2 67.0002 198 63.0002 202C59.7002 205.3 56.6002 209.1 55.7002 213.8C54.4002 220.8 57.8002 227.2 61.5002 232.8C65.5002 238.8 70.3002 244.6 72.7002 251.5C73.8002 254.8 74.3002 258.3 73.6002 261.7C72.8002 265.7 70.6002 269.2 68.0002 272.3C62.6002 278.8 55.5002 284.4 53.2002 292.8C50.6002 302.2 54.3002 312 59.4002 319.9C62.1002 324 65.3002 327.7 68.6002 331.2C71.9002 334.7 75.4002 338.3 77.7002 342.7C79.9002 346.9 80.5002 351.6 78.9002 356.1C77.4002 360.5 74.5002 364.3 72.0002 368.2C70.8002 370.1 69.7002 372.1 68.8002 374.2C68.5002 375 70.5002 374.6 70.7002 374.5C71.4002 374.3 73.1002 373.9 73.5002 373.1C76.9002 364.8 85.2002 357.8 84.5002 348.2C84.0002 338.6 75.0002 332 69.2002 325.1C63.0002 317.8 57.5002 308.6 57.2002 298.7C57.0002 294 58.3002 289.5 60.7002 285.5C62.9002 281.9 65.9002 278.9 68.8002 275.8C74.1002 270.1 79.4002 263.8 78.7002 255.5C78.1002 248.3 73.6002 242.1 69.7002 236.4C65.8002 230.7 61.1002 224.7 60.3002 217.6C59.1002 207.7 67.6002 200.7 74.3002 194.8C76.5002 192.9 78.7002 191 81.0002 189.2C82.9002 187.7 84.9002 186.3 86.5002 184.5C90.0002 180.7 90.9002 176 89.7002 171.1C87.2002 161 77.8002 153.5 77.4002 142.7C77.3002 140.2 77.9002 137.9 79.1002 135.8C79.5002 135.1 77.3002 135.5 77.2002 135.5C76.4002 135.8 75.0002 136.2 74.5002 137Z" fill="white"/>
</g>
<mask id="mask13_201_683" style="mask-type:luminance" maskUnits="userSpaceOnUse" x="51" y="51" width="398" height="398">
<path d="M250 448.5C359.629 448.5 448.5 359.629 448.5 250C448.5 140.371 359.629 51.5 250 51.5C140.371 51.5 51.5 140.371 51.5 250C51.5 359.629 140.371 448.5 250 448.5Z" fill="white"/>
</mask>
<g mask="url(#mask13_201_683)">
<path d="M45.7002 175.6C47.6002 176.3 48.9002 177.2 49.8002 178.6C51.0002 180.5 51.6002 182.8 51.8002 185.1C52.4002 190.4 50.6002 195.5 47.7002 200C44.3002 205.2 39.6002 209.4 35.1002 213.7C30.9002 217.7 26.7002 222.5 28.5002 228.7C30.3002 234.9 35.6002 239.4 40.8002 242.8C43.2002 244.4 45.8002 246 47.9002 248C49.6002 249.7 50.6002 251.9 51.2002 254.2C52.4002 259.3 51.4002 265.1 48.3002 269.4C46.5002 271.9 43.9002 273.8 41.5002 275.7C39.1002 277.7 36.9002 279.8 35.4002 282.5C28.1002 295.7 35.5002 310.6 43.5002 321.5C43.9002 322.1 45.1002 323.6 45.9002 323.5C46.8002 323.3 45.7002 321.8 45.5002 321.5C41.6002 316.1 38.0002 310.2 36.6002 303.6C35.3002 297.8 35.8002 291.2 38.9002 286C42.1002 280.4 48.4002 277.9 52.0002 272.6C55.0002 268.2 55.9002 262.5 54.8002 257.3C53.5002 251.2 49.4002 246.3 44.5002 242.7C40.1002 239.5 33.5002 236.7 32.0002 231C30.3002 224.5 36.2002 219.7 40.3002 215.7C44.9002 211.4 49.5002 206.9 52.6002 201.3C55.4002 196.2 56.4002 190.4 54.9002 184.7C53.3002 179.1 49.3002 173.8 43.7002 171.8C42.7002 171.4 43.2002 172.8 43.5002 173.2C43.7002 174.1 44.6002 175.3 45.7002 175.6Z" fill="white"/>
</g>
</g>
<defs>
<clipPath id="clip0_201_683">
<rect width="500" height="500" fill="white"/>
</clipPath>
</defs>
</svg>
