<svg width="500" height="500" viewBox="0 0 500 500" fill="none" xmlns="http://www.w3.org/2000/svg">
<g clip-path="url(#clip0_201_749)">
<mask id="mask0_201_749" style="mask-type:luminance" maskUnits="userSpaceOnUse" x="51" y="51" width="398" height="398">
<path d="M250 448.5C359.629 448.5 448.5 359.629 448.5 250C448.5 140.371 359.629 51.5 250 51.5C140.371 51.5 51.5 140.371 51.5 250C51.5 359.629 140.371 448.5 250 448.5Z" fill="white"/>
</mask>
<g mask="url(#mask0_201_749)">
<path d="M148.9 29.4001C148.8 36.1001 148.7 42.8001 148.7 49.5001C148.6 56.1001 148.4 62.7001 148.5 69.3001C148.5 71.4001 148.8 73.8001 150.9 74.7001C153.4 75.8001 156.6 73.8001 158.5 72.4001C160.9 70.7001 162.7 68.3001 164.6 66.1001C166.6 63.8001 168.5 61.4001 170.3 59.0001C174.5 53.4001 178.4 47.6001 182 41.6001C180.6 42.2001 179.2 42.9001 177.8 43.5001C178 52.5001 177.8 61.5001 177.3 70.5001C177.2 71.6001 180.6 69.5001 180.8 69.3001C190.1 62.2001 198.3 53.7001 205.2 44.1001C203.8 44.7001 202.4 45.4001 201 46.0001C201.4 54.9001 202.6 63.7001 204.4 72.4001C204.6 73.2001 208 71.0001 208.3 70.6001C216 61.8001 223 52.5001 229.3 42.7001C227.9 43.3001 226.5 44.0001 225.1 44.6001C224.8 55.4001 226.2 66.2001 229.2 76.6001C229.4 77.5001 232.8 75.2001 233.1 74.8001C242.4 64.0001 251 52.6001 258.7 40.6001C257.3 41.2001 255.9 41.9001 254.5 42.5001C255 52.7001 255.5 63.0001 256 73.2001C256.1 74.4001 259.9 71.9001 260.2 71.3001C266.8 60.1001 273.5 48.9001 280.1 37.7001C278.7 38.3001 277.3 39.0001 275.9 39.6001C275.9 51.9001 276.3 64.2001 277 76.5001C277.1 77.7001 280.6 75.3001 280.9 74.9001C289.5 65.3001 297 54.9001 303.3 43.7001C301.9 44.3001 300.5 45.0001 299.1 45.6001C299.2 57.3001 299.8 69.1001 300.9 80.8001C300.9 81.3001 302.7 80.5001 302.8 80.4001C303.7 80.0001 304.5 79.4001 305.1 78.7001C313.3 69.1001 319.7 58.1001 324 46.2001C322.6 46.9001 321.1 47.6001 319.7 48.4001C318.7 58.4001 320.7 68.6001 325.7 77.3001C326.2 78.3001 329.5 75.7001 329.9 75.2001C336.6 65.4001 342.3 55.0001 347 44.2001C345.6 44.9001 344.1 45.6001 342.7 46.4001C343.3 55.1001 343.8 63.8001 344.4 72.4001C344.5 73.3001 348.8 71.4001 348.7 70.2001C348.1 61.5001 347.6 52.8001 347 44.2001C346.9 43.1001 343 45.6001 342.7 46.4001C338.1 57.1001 332.5 67.3001 325.9 76.9001C327.3 76.2001 328.7 75.5001 330.1 74.8001C325.2 66.1001 323.1 56.2001 324.2 46.3001C324.3 45.5001 322.5 46.4001 322.3 46.5001C321.5 46.9001 320.2 47.6001 319.9 48.5001C315.6 60.2001 309.3 71.0001 301.3 80.4001C302.7 79.7001 304.1 79.0001 305.5 78.3001C304.4 66.7001 303.8 55.1001 303.7 43.5001C303.7 42.4001 299.8 44.8001 299.5 45.4001C293.3 56.4001 286 66.7001 277.6 76.0001C278.9 75.5001 280.2 75.0001 281.5 74.4001C280.7 62.1001 280.4 49.8001 280.4 37.5001C280.4 36.4001 276.5 38.8001 276.2 39.4001C269.6 50.6001 262.9 61.8001 256.3 73.0001C257.7 72.4001 259.1 71.7001 260.5 71.1001C260 60.9001 259.5 50.6001 259 40.4001C258.9 39.2001 255.1 41.8001 254.8 42.3001C247.2 54.0001 238.8 65.2001 229.7 75.8001C231 75.2001 232.3 74.6001 233.6 74.0001C230.6 63.7001 229.3 53.1001 229.5 42.4001C229.5 41.3001 225.6 43.8001 225.3 44.3001C219.1 53.9001 212.3 63.0001 204.8 71.6001C206.1 71.0001 207.4 70.4001 208.7 69.8001C206.8 61.2001 205.7 52.5001 205.3 43.8001C205.2 42.6001 201.4 45.2001 201.1 45.7001C194.6 54.7001 186.8 62.8001 178 69.5001C179.2 69.1001 180.4 68.7001 181.5 68.3001C182 59.3001 182.2 50.3001 182 41.3001C182 40.2001 178.1 42.6001 177.8 43.2001C172.2 52.6001 165.9 61.6001 158.6 69.8001C157.9 70.5001 157.2 71.8001 156.2 72.2001C156.6 72.0001 155.9 72.2001 155.7 72.2001C155.1 72.2001 154.5 71.9001 154 71.5001C152.4 70.0001 152.6 67.4001 152.6 65.5001C152.7 59.6001 152.7 53.6001 152.8 47.7001C152.9 40.9001 153 34.2001 153 27.4001C153 26.6001 151.4 27.4001 151.1 27.6001C150.7 27.7001 148.9 28.6001 148.9 29.4001Z" fill="white"/>
</g>
<mask id="mask1_201_749" style="mask-type:luminance" maskUnits="userSpaceOnUse" x="51" y="51" width="398" height="398">
<path d="M250 448.5C359.629 448.5 448.5 359.629 448.5 250C448.5 140.371 359.629 51.5 250 51.5C140.371 51.5 51.5 140.371 51.5 250C51.5 359.629 140.371 448.5 250 448.5Z" fill="white"/>
</mask>
<g mask="url(#mask1_201_749)">
<path d="M150.1 63.5C145.8 75 144.5 87.4 146.1 99.6C146.3 101.2 148.8 102.9 150.2 101.6C161.4 91 171.2 78.9 179.3 65.7C177.8 65 176.3 64.3 174.9 63.6C172.3 78.4 169.6 93.2 167 108C166.8 109 167.5 110 168.3 110.5C169 110.9 170.4 111.3 171.1 110.6C182.1 98.9 191.5 85.9 199.2 71.8C197.7 71.1 196.2 70.4 194.8 69.7C191.1 83.7 189.8 98.3 191 112.7C191.2 114.6 194.2 116 195.5 114.3C205 101.5 213.1 87.6 219.6 73C218.1 72.5 216.6 71.9 215.1 71.4C215.6 80.4 216.2 89.5 216.7 98.5C216.8 100.4 219.9 101.8 221.2 100.1C228.1 90.6 234.7 80.9 241.1 71C239.6 70.5 238.1 69.9 236.6 69.4C236.7 79.8 236.8 90.2 236.9 100.6C236.9 102.5 240.2 103.9 241.4 102.2C248.6 91.5 253.9 79.6 257 67.2C255.4 66.8 253.9 66.4 252.3 66.1C251.8 79.8 251.4 94 256.2 107.1C256.7 108.5 259.6 110 260.5 108.2C266.3 97.6 271.6 86.6 276.2 75.4C274.7 74.9 273.2 74.3 271.7 73.8C271.8 86.9 272.3 99.9 273.1 112.9C273.2 114.9 276.3 116.2 277.6 114.5C284.8 105.4 290.5 95.3 294.6 84.4C293.1 83.8 291.5 83.3 290 82.7C289.3 92.1 290.1 101.4 292.4 110.6C292.8 112.2 295.7 113.3 296.7 111.7C302.9 101.7 309.2 91.8 315.4 81.8C313.9 81.3 312.4 80.7 310.9 80.2C312.4 87.9 314 95.6 315.5 103.3C315.9 105.1 318.7 106.8 320 104.9C327 94.6 334 84.4 341 74.1C339.5 73.6 338 73 336.5 72.5C337.9 81.8 340.2 91 343.3 100C343.9 101.6 346.5 102.6 347.6 101.1C355.3 90.9 362.6 80.4 369.5 69.6C370.9 67.5 366.6 64.8 365.2 67C358.3 77.8 351 88.3 343.3 98.5C344.7 98.9 346.2 99.2 347.6 99.6C344.6 91 342.4 82.2 341.1 73.2C340.8 71.4 337.9 69.7 336.6 71.6C329.6 81.9 322.6 92.1 315.6 102.4C317.1 102.9 318.6 103.5 320.1 104C318.6 96.3 317 88.6 315.5 80.9C315.2 79.2 312.3 77.3 311 79.3C305 89 298.7 99 292.5 109C293.9 109.4 295.4 109.7 296.8 110.1C294.8 101.7 294 92.9 294.6 84.3C294.8 81.9 291 80 290 82.6C286 93.1 280.3 102.9 273.4 111.7C274.9 112.2 276.4 112.8 277.9 113.3C277.1 100.3 276.6 87.2 276.5 74.2C276.5 73.2 275.4 72.3 274.6 72C273.9 71.7 272.4 71.7 272.1 72.6C267.5 83.8 262.2 94.8 256.4 105.4C257.8 105.8 259.3 106.1 260.7 106.5C256 93.8 256.5 79.9 257 66.6C257.1 64.5 252.9 63 252.3 65.5C249.3 77.7 244.1 89.2 237.1 99.6C238.6 100.1 240.1 100.7 241.6 101.2C241.5 90.8 241.4 80.4 241.3 70C241.3 68.1 238 66.6 236.8 68.4C230.5 78.3 223.9 88 216.9 97.5C218.4 98 219.9 98.6 221.4 99.1C220.9 90.1 220.3 81 219.8 72C219.7 71 218.8 70.1 217.9 69.8C217.1 69.5 215.8 69.5 215.4 70.4C208.9 85 200.8 98.8 191.3 111.7C192.8 112.2 194.3 112.8 195.8 113.3C194.7 99.2 196 85 199.6 71.3C200.1 69.2 196.3 67.1 195.2 69.2C187.7 83 178.5 95.8 167.7 107.2C169.1 108 170.4 108.9 171.8 109.7C174.4 94.9 177.1 80.1 179.7 65.3C180.1 63.2 176.5 61.1 175.3 63.2C167.4 76.1 157.9 87.9 146.9 98.3C148.3 99 149.7 99.6 151 100.3C149.4 88.5 150.8 76.5 155 65.3C155.4 64.1 154 62.9 153.1 62.5C151.7 62 150.6 62.3 150.1 63.5Z" fill="white"/>
</g>
<mask id="mask2_201_749" style="mask-type:luminance" maskUnits="userSpaceOnUse" x="51" y="51" width="398" height="398">
<path d="M250 448.5C359.629 448.5 448.5 359.629 448.5 250C448.5 140.371 359.629 51.5 250 51.5C140.371 51.5 51.5 140.371 51.5 250C51.5 359.629 140.371 448.5 250 448.5Z" fill="white"/>
</mask>
<g mask="url(#mask2_201_749)">
<path d="M127.2 97.5C120.6 111.6 117.4 127.1 117.8 142.6C117.8 143.8 119.4 147.2 121 145.6C131 135.8 140.4 125.4 149.1 114.3C148 113.3 147 112.3 145.9 111.3C144.9 121.8 145 132.3 146.1 142.7C146.2 143.5 147.7 146.4 149 145.4C157.1 139.1 164.1 131.6 169.9 123.1C168.8 122.3 167.8 121.4 166.7 120.6C167.5 128.5 168.3 136.5 169.1 144.4C169.2 145.5 171 148.3 172.3 146.9C181.3 137.3 189.3 127 196.4 115.9C195.3 115.1 194.3 114.2 193.2 113.4C194 122.1 194.8 130.9 195.5 139.6C195.6 140.6 197.5 143.7 198.7 142.1C205.2 133.3 210.5 123.6 214.3 113.4C213.2 112.5 212 111.6 210.9 110.7C210.7 123.6 212.2 136.4 215.3 148.9C215.5 149.8 217.3 152.2 218.3 150.8C227.4 138.4 235.9 125.5 244.4 112.7C243.3 111.7 242.3 110.7 241.2 109.7C241.6 123.1 243.8 136.4 247.8 149.2C248.1 150.1 249.8 152.5 250.8 151.1C258.3 141 263.8 129.4 267 117.2C265.9 116.5 264.7 115.8 263.6 115.1C265.2 128.8 269.2 142.2 275.4 154.6C275.7 155.2 277.4 157.2 278.2 155.9C284.4 145.6 289.7 134.8 294.1 123.7C293 123 291.8 122.3 290.7 121.6C291.9 129.1 293.9 136.5 296.7 143.5C297 144.3 298.7 146.8 299.7 145.4C306.8 135.8 311.7 124.8 314.2 113.2C313.1 112.7 312 112.2 311 111.7C314.1 121.1 317.2 130.6 320.3 140C320.5 140.7 322.4 143.4 323.3 141.9C329.4 131.6 334.1 120.4 337.1 108.8C336 107.9 334.8 107 333.7 106.1C334 116.8 335.9 127.4 339.4 137.5C339.8 138.7 341.7 140.9 342.6 139C347.1 129.6 351.6 120.3 356.1 110.9C355 110.2 353.8 109.5 352.7 108.8C354.4 117.5 357.3 126 361.3 134C361.6 134.6 363.4 136.6 364.1 135.3C371.4 122 376.4 107.7 381.3 93.4C380.2 92.9 379.1 92.4 378.1 91.9C380.8 103 384.1 113.9 388.2 124.6C388.5 125.4 389.7 127.5 390.9 126.7C392.4 125.7 394 124.8 395.5 123.8C397.3 122.7 394.9 118.3 393.2 119.4C391.7 120.4 390.1 121.3 388.6 122.3C389.5 123 390.4 123.7 391.3 124.4C387.2 113.7 383.9 102.8 381.2 91.7C380.9 90.6 378.7 88.2 378 90.2C373.2 104.2 368.3 118.3 361.2 131.4C362.1 131.8 363.1 132.2 364 132.7C360.4 125.5 357.8 117.9 356.2 110C356 108.8 353.9 105.7 352.8 107.9C348.3 117.3 343.8 126.6 339.3 136C340.4 136.5 341.5 137 342.5 137.5C339.2 128.2 337.4 118.4 337.1 108.4C337.1 107.3 336.6 106.1 335.7 105.4C335.1 104.9 334 104.7 333.7 105.7C330.7 117 326.2 127.9 320.3 138C321.3 138.6 322.3 139.3 323.3 139.9C320.2 130.5 317.1 121 314 111.6C313.7 110.8 313.1 109.9 312.3 109.5C311.7 109.3 310.9 109.3 310.7 110.1C308.3 121.5 303.5 132.2 296.6 141.5C297.6 142.1 298.6 142.8 299.6 143.4C296.9 136.7 295 129.8 293.9 122.7C293.7 121.7 293.2 120.6 292.3 120.1C291.6 119.7 290.8 119.8 290.5 120.6C286.2 131.5 281 142 275 152C275.9 152.4 276.9 152.8 277.8 153.3C272 141.7 268.3 129.1 266.8 116.3C266.7 115.4 266 114.2 265.2 113.7C264.6 113.3 263.6 113.3 263.4 114.2C260.3 126.2 255 137.4 247.6 147.3C248.6 147.9 249.6 148.6 250.6 149.2C246.8 137.2 244.7 124.6 244.3 112C244.3 111 243.9 109.9 243.1 109.2C242.6 108.8 241.6 108.2 241.1 109C232.6 121.8 224.1 134.7 215 147.1C216 147.7 217 148.4 218 149C215.2 137.3 213.8 125.2 214 113.1C214 112 213.5 110.8 212.6 110.1C211.9 109.6 211 109.4 210.6 110.4C206.9 120.4 201.8 129.8 195.4 138.4C196.5 139.2 197.5 140.1 198.6 140.9C197.8 132.2 197 123.4 196.3 114.7C196.2 113.8 194.2 110.6 193.1 112.2C186 123.2 178 133.6 169 143.2C170.1 144 171.1 144.9 172.2 145.7C171.4 137.8 170.6 129.8 169.8 121.9C169.7 120.9 167.7 117.8 166.6 119.4C161 127.6 154.1 135 146.3 141.1C147.3 142 148.2 142.9 149.2 143.8C148.1 133.7 148.1 123.6 149.1 113.5C149.2 112.4 147.2 108.7 145.9 110.5C137.2 121.5 127.8 132 117.8 141.8C118.9 142.8 119.9 143.8 121 144.8C120.6 129.6 123.8 114.5 130.2 100.7C131.3 98.9 128.3 95.1 127.2 97.5Z" fill="white"/>
</g>
<mask id="mask3_201_749" style="mask-type:luminance" maskUnits="userSpaceOnUse" x="51" y="51" width="398" height="398">
<path d="M250 448.5C359.629 448.5 448.5 359.629 448.5 250C448.5 140.371 359.629 51.5 250 51.5C140.371 51.5 51.5 140.371 51.5 250C51.5 359.629 140.371 448.5 250 448.5Z" fill="white"/>
</mask>
<g mask="url(#mask3_201_749)">
<path d="M87.7 120.8C86 140.6 87.2 160.6 91.1 180.1C91.5 182 94.1 182 95.2 180.8C103.6 171.5 110.8 161.1 116.3 149.9C114.8 149.8 113.3 149.7 111.9 149.7C114.4 160 117 170.4 119.5 180.7C120 182.6 122.4 182.6 123.6 181.4C133.7 171.1 142 159.2 148.2 146.2C146.8 146.3 145.4 146.4 144 146.5C146.8 151.6 145.7 157.8 145.4 163.4C145 169.2 145.4 175.1 149.5 179.6C150.3 180.5 152.2 180.2 152.9 179.3C162.4 167.7 171.9 156.1 181.4 144.4C180 144 178.7 143.5 177.3 143.1C177.9 155.1 178.6 167.1 179.2 179.1C179.3 181.6 182.5 181.9 183.7 179.9C189.6 170.2 195 160.3 200.1 150.1C198.6 150 197.1 149.9 195.7 149.9C197.5 162.9 200.6 175.8 205 188.2C205.7 190.1 208.5 190.2 209.4 188.4C215.8 176.3 221.1 163.6 225.1 150.5C223.5 150.4 221.9 150.3 220.3 150.2C221 160.7 223.2 171 226.8 180.8C227.6 182.9 230.1 182.7 231.2 181C238.3 170.9 243.3 159.3 245.8 147.2C244.2 147.1 242.6 147 241 146.9C242.3 162.9 247.2 178.5 255.4 192.3C256.3 193.9 258.8 193.4 259.6 192C266.6 179.2 272.9 165.9 278.4 152.4C276.8 152.5 275.3 152.6 273.7 152.7C275.4 162 278.3 171.1 282.1 179.7C282.8 181.4 285.6 180.7 286.3 179.4C291.3 169.9 295.7 160.1 299.7 150.2C298.1 150.3 296.6 150.4 295 150.5C297.6 160.7 300.1 170.9 302.7 181.1C303.3 183.7 306.6 182.6 307.4 180.8C311.4 171 315.5 161.1 319.5 151.3C317.9 151.4 316.4 151.5 314.8 151.6C316.5 160.5 319.7 169 324 176.9C324.8 178.3 326.8 178.1 327.8 177.1C335.7 169.1 340.9 158.9 342.7 147.7C341.1 148 339.5 148.3 337.9 148.6C339.3 153.8 340.7 159 342.3 164.1C342.8 165.9 343.6 167.7 345.3 168.7C347.1 169.8 349.3 169.4 350.9 168.1C352.6 166.7 353.8 164.5 355 162.7C356.3 160.7 357.5 158.7 358.7 156.7C361.1 152.4 363.3 148 365.2 143.5C363.6 143.6 362.1 143.7 360.5 143.8C362.7 150.5 364.9 157.2 367 163.9C367.7 166.1 370.3 165.7 371.4 164.1C377.1 156.5 381.3 147.9 383.8 138.7C382.2 138.8 380.7 138.9 379.1 139C380.2 144.6 382.9 149.6 386.7 153.8C388 155.2 390.2 153.9 390.8 152.5C393.1 146.3 395.4 140.2 397.7 134C396.2 134.3 394.7 134.6 393.2 134.9C395.4 139 397.6 143 399.8 147.1C400.4 148.2 402.1 148.4 403.1 147.7C409 143.4 413.4 137.7 415.9 130.9C416.4 129.7 415.4 128.4 414.2 128.2C412.9 127.9 411.6 128.9 411.2 130.1C409.1 135.6 405.5 140.5 400.7 144C401.8 144.2 402.9 144.4 404 144.6C401.8 140.5 399.6 136.5 397.4 132.4C396.3 130.4 393.6 131.6 392.9 133.3C390.6 139.5 388.3 145.6 386 151.8C387.4 151.4 388.7 150.9 390.1 150.5C386.8 146.9 384.7 142.5 383.7 137.7C383.2 135.2 379.6 136 379 138C376.6 146.8 372.5 155 367.1 162.3C368.6 162.4 370.1 162.5 371.5 162.5C369.3 155.8 367.1 149.1 365 142.4C364.2 139.9 361.1 140.8 360.3 142.7C357.3 149.8 353.6 156.6 349.2 163C348.8 163.5 348.5 164.4 347.9 164.7C347.7 164.8 348 165 347.7 164.5C346.7 163.1 346.5 161.1 346 159.6C344.8 155.5 343.7 151.3 342.5 147.2C342.2 146.1 341 145.5 339.9 145.7C338.6 146 337.9 146.9 337.7 148.1C336.1 157.9 331.3 167.1 324.3 174.1C325.6 174.2 326.8 174.2 328.1 174.3C324 166.7 321 158.6 319.4 150.1C319.2 149.1 318.1 148.5 317.1 148.6C316 148.7 315.1 149.5 314.7 150.5C310.7 160.3 306.6 170.2 302.6 180C304.2 179.9 305.7 179.8 307.3 179.7C304.7 169.5 302.2 159.3 299.6 149.1C299 146.5 295.6 147.6 294.9 149.4C291.1 159 286.7 168.4 282 177.5C283.4 177.4 284.8 177.3 286.2 177.2C282.6 168.9 280 160.2 278.3 151.3C277.8 148.6 274.3 149.9 273.6 151.6C268.3 164.8 262.1 177.6 255.3 190.1C256.7 190 258.1 189.9 259.5 189.8C251.7 176.7 246.9 161.9 245.7 146.7C245.5 144.1 241.5 143.8 240.9 146.4C238.5 158.2 233.7 169.2 226.8 179C228.3 179.1 229.8 179.2 231.2 179.2C227.7 169.7 225.5 159.8 224.8 149.8C224.6 147 220.8 147.1 220 149.5C216 162.2 210.9 174.5 204.8 186.3C206.3 186.4 207.8 186.5 209.2 186.5C204.8 174.1 201.7 161.3 199.9 148.2C199.6 146 196.2 146.4 195.5 148C190.5 158.2 185 168.1 179.1 177.8C180.6 178.1 182.1 178.3 183.6 178.6C183 166.6 182.3 154.6 181.7 142.6C181.6 140.6 178.9 139.6 177.6 141.3C168.1 152.9 158.6 164.5 149.1 176.2C150.2 176.1 151.4 176 152.5 175.9C148.8 171.9 149.6 165.7 149.9 160.7C150.3 155 150.7 149 147.8 143.8C146.9 142.3 144.3 142.6 143.6 144.1C137.6 156.7 129.6 168.3 119.8 178.3C121.2 178.5 122.5 178.8 123.9 179C121.4 168.7 118.8 158.3 116.3 148C115.8 146 112.7 146 111.9 147.8C106.6 158.7 99.7 168.7 91.6 177.7C93 177.9 94.3 178.2 95.7 178.4C91.8 159.3 90.7 139.7 92.4 120.3C92.9 117.4 88 118 87.7 120.8Z" fill="white"/>
</g>
<mask id="mask4_201_749" style="mask-type:luminance" maskUnits="userSpaceOnUse" x="51" y="51" width="398" height="398">
<path d="M250 448.5C359.629 448.5 448.5 359.629 448.5 250C448.5 140.371 359.629 51.5 250 51.5C140.371 51.5 51.5 140.371 51.5 250C51.5 359.629 140.371 448.5 250 448.5Z" fill="white"/>
</mask>
<g mask="url(#mask4_201_749)">
<path d="M69.9 159.2C68.7 173.2 68.2 187.3 68.4 201.4C68.4 203.5 71.4 203.9 72.7 202.7C79.6 196.7 85.2 189.4 89.3 181.2C87.7 180.9 86.2 180.6 84.6 180.3C84.9 189.8 85.2 199.3 85.5 208.8C85.6 210.9 88.5 211.3 89.8 210.1C96.2 204.2 101.8 197.6 106.6 190.3C105 190 103.5 189.7 101.9 189.4C102.9 196.3 104.3 203.2 106 210C106.4 211.6 109.2 211.9 110.2 210.8C115.9 204.3 120.4 197.1 123.7 189.2C122.1 189.1 120.4 189 118.8 188.8C118.6 197.4 120.5 206.1 124.5 213.7C125.4 215.4 128 215.8 129.1 214C134.7 205.1 140.3 196.2 145.9 187.2C144.4 187.1 142.8 187 141.3 186.9C142.5 193.1 143.8 199.2 145 205.4C145.5 207.8 145.7 210.7 147.7 212.3C149.7 213.9 152.5 213.5 154.5 212C156.6 210.3 158 207.5 159.4 205.3C161.1 202.7 162.8 200 164.6 197.4C168.1 192 171.6 186.6 175.1 181.3C173.6 181.2 172 181.1 170.5 181C173.4 190.4 176.3 199.9 179.2 209.3C179.7 211.1 182.2 211.1 183.4 210.1C189.9 204.5 195.3 197.8 199.4 190.3C197.8 190 196.3 189.7 194.7 189.4C194.2 200.3 196.5 211.2 201.3 221C202.2 222.9 204.7 222.9 205.9 221.3C212.7 212.8 218.6 203.5 223.4 193.7C221.9 193.6 220.3 193.5 218.8 193.4C221.5 201.3 224.2 209.1 226.9 217C227.6 219 230.4 218.7 231.5 217.3C238.2 208.6 243 198.6 245.8 188C244.2 187.9 242.5 187.8 240.9 187.6C242.4 202 245.4 216.3 249.9 230.2C250.5 232.2 253.5 232 254.5 230.5C262.5 219.1 268.8 206.6 273.5 193.5C271.9 193.6 270.3 193.6 268.7 193.7C270 199.6 271.3 205.6 272.6 211.5C273.1 213.7 276.2 213 277.2 211.8C281.6 206.5 285.7 200.9 289.3 195.1C287.8 195 286.2 194.9 284.7 194.8C286.8 202.7 290.3 210.2 295 216.8C295.9 218.1 298.5 218.1 299.3 216.6C303.1 209.1 306.8 201.6 310.6 194.1C309.2 194.2 307.7 194.2 306.3 194.3C309.3 199.7 312.4 205.1 315.4 210.6C316.1 211.8 318.5 211.8 319.3 210.9C326.7 202.8 333.1 193.8 338.3 184.1C336.8 184 335.2 183.9 333.7 183.8C335.6 191.6 338.8 199 342.9 205.8C343.8 207.2 346.4 207 347.2 205.6C352.6 195.9 356.5 185.4 358.7 174.6C357.1 174.7 355.5 174.7 353.9 174.8C355.2 180.6 357.3 186.1 360.1 191.2C361 192.9 363.5 193.2 364.7 191.5C369.6 184.6 373.7 177.3 377.1 169.6C375.5 169.7 373.9 169.7 372.3 169.8C374.7 176.4 376.9 183.1 378.8 189.9C379.4 192 382.3 191.5 383.4 190.2C388.1 184.5 391.8 178.1 394.4 171.2C392.8 171.3 391.2 171.3 389.6 171.4C392.4 178.4 395.3 185.5 398.1 192.5C399 194.7 402.1 194.2 402.9 192.3C408.1 180.5 410.9 167.9 411.3 155C409.7 155.3 408 155.5 406.4 155.8C409.4 163.2 413.3 170.2 418.2 176.6C419.3 178.1 422.2 177.8 422.7 175.9C425.7 164.8 428.3 153.6 430.7 142.4C431.3 139.5 426.4 138.8 425.8 141.5C423.5 152.8 420.8 163.9 417.8 175C419.3 174.8 420.8 174.5 422.3 174.3C417.7 168.2 413.9 161.6 411.1 154.5C410.2 152.2 406.3 152.7 406.2 155.3C405.8 167.8 402.9 180 397.9 191.5C399.5 191.4 401.1 191.4 402.7 191.3C399.9 184.3 397 177.2 394.2 170.2C393.3 168.1 390.1 168.4 389.4 170.4C386.9 176.9 383.3 183 378.8 188.4C380.3 188.5 381.9 188.6 383.4 188.7C381.5 181.9 379.3 175.2 376.9 168.6C376.1 166.4 372.9 166.9 372.1 168.8C368.9 176.2 364.8 183.2 360.1 189.7C361.6 189.8 363.2 189.9 364.7 190C361.9 184.8 359.8 179.3 358.5 173.6C358 171.5 354.1 171.8 353.7 173.8C351.6 184.3 347.9 194.4 342.7 203.8C344.1 203.7 345.6 203.7 347 203.6C343.1 197.1 340.2 190 338.4 182.6C337.9 180.7 334.7 180.7 333.8 182.3C328.8 191.6 322.7 200.4 315.5 208.2C316.8 208.3 318.1 208.4 319.4 208.5C316.4 203.1 313.3 197.7 310.3 192.2C309.5 190.8 306.7 191 306 192.4C302.2 199.9 298.5 207.4 294.7 214.9C296.1 214.8 297.6 214.8 299 214.7C294.5 208.3 291.2 201.2 289.2 193.7C288.7 191.7 285.5 191.9 284.6 193.4C280.9 199.2 276.9 204.8 272.5 210.1C274 210.2 275.6 210.3 277.1 210.4C275.8 204.5 274.5 198.5 273.2 192.6C272.7 190.3 269 191 268.4 192.8C263.9 205.6 257.6 217.6 249.9 228.8C251.4 228.9 253 229 254.5 229.1C250.2 215.6 247.2 201.8 245.7 187.7C245.4 185.2 241.4 184.9 240.8 187.3C238.1 197.6 233.4 207.2 226.9 215.6C228.4 215.7 230 215.8 231.5 215.9C228.8 208 226.1 200.2 223.4 192.3C222.8 190.6 219.7 190.3 218.8 192C214 201.8 208.1 211.1 201.3 219.6C202.8 219.7 204.4 219.8 205.9 219.9C201.2 210.4 199 200 199.5 189.5C199.6 187.2 195.7 186.9 194.8 188.6C190.9 195.8 185.7 202.2 179.5 207.6C180.9 207.9 182.3 208.1 183.7 208.4C180.8 199 177.9 189.5 175 180.1C174.4 178.2 171.4 178.3 170.4 179.8C164.6 188.7 158.8 197.6 153 206.5C152.4 207.4 151.9 208.4 151.1 209.2C150.9 209.4 150.8 209.5 150.6 209.7C150.3 209.8 150.4 209.9 150.9 209.8C150.8 209.5 150.6 209.3 150.5 209C149.6 206.8 149.4 204.2 149 201.9C147.9 196.6 146.9 191.4 145.8 186.1C145.4 184.1 142.1 184.4 141.2 185.8C135.6 194.7 130 203.6 124.4 212.6C125.9 212.7 127.5 212.8 129 212.9C125.2 205.5 123.3 197.4 123.5 189.1C123.6 186.3 119.4 186.7 118.6 188.7C115.6 195.9 111.4 202.6 106.3 208.4C107.7 208.7 109.1 208.9 110.5 209.2C108.8 202.8 107.5 196.3 106.6 189.7C106.3 187.5 103.1 187 101.9 188.8C97.3 195.8 92 202.1 85.9 207.7C87.3 208.1 88.8 208.6 90.2 209C89.9 199.5 89.6 190 89.3 180.5C89.2 178.3 85.5 177.7 84.6 179.6C80.7 187.4 75.3 194.4 68.7 200.2C70.1 200.6 71.6 201.1 73 201.5C72.8 187.4 73.3 173.3 74.5 159.3C75.2 156.2 70.2 156.4 69.9 159.2Z" fill="white"/>
</g>
<mask id="mask5_201_749" style="mask-type:luminance" maskUnits="userSpaceOnUse" x="51" y="51" width="398" height="398">
<path d="M250 448.5C359.629 448.5 448.5 359.629 448.5 250C448.5 140.371 359.629 51.5 250 51.5C140.371 51.5 51.5 140.371 51.5 250C51.5 359.629 140.371 448.5 250 448.5Z" fill="white"/>
</mask>
<g mask="url(#mask5_201_749)">
<path d="M51.3999 200.7C50.0999 209.2 51.0999 217.6 54.1999 225.6C54.5999 226.7 56.3999 228.5 57.4999 227.2C61.8999 221.9 66.1999 216.6 70.5999 211.3C69.3999 210.6 68.2999 209.9 67.0999 209.2C67.9999 215.6 68.8999 222 69.7999 228.4C69.8999 229.3 71.7999 231.9 72.9999 230.8C79.6999 224.6 85.5999 217.6 90.3999 209.8C89.1999 208.9 87.9999 208 86.8999 207.1C87.4999 216.5 88.2999 226 89.1999 235.4C89.2999 236.7 91.1999 239.8 92.6999 238.1C99.0999 231 105.3 223.7 111.2 216.2C110 215.3 108.8 214.4 107.7 213.5C107.8 221.8 108.4 230 109.5 238.2C109.7 239.4 111.8 241.9 113 240.3C117.8 234.1 121.4 227.1 123.9 219.7C122.7 219.1 121.5 218.5 120.3 218C122 230 125.6 241.8 131 252.7C131.5 253.6 133.2 255.7 134.3 254.3C142.1 243.9 148.2 232.4 152.5 220.1C151.3 219.5 150.1 218.9 148.9 218.4C151.4 228 153.9 237.6 156.5 247.2C156.8 248.2 158.9 251.1 160 249.3C168.4 236.1 173.8 221.1 175.7 205.6C174.5 204.8 173.2 204.1 172 203.3C172.8 214.8 173.5 226.4 174.3 237.9C174.4 238.9 176.1 242.2 177.5 240.9C183.8 235.1 188.4 228.1 191.3 220.1C190.1 219.3 188.8 218.6 187.6 217.8C188.4 225.7 189.3 233.6 190.1 241.5C190.2 242.7 192.2 246 193.6 244.2C198.6 237.7 203.5 231.2 208.5 224.7C207.3 223.8 206.1 222.9 205 222C205 231.4 206.3 240.8 209.1 249.8C209.3 250.6 211.7 253.9 212.6 251.9C216.4 243.3 220.3 234.6 224.1 226C222.9 225.3 221.8 224.6 220.6 223.9C221.9 233.1 224.5 242 228.3 250.5C228.8 251.5 230.5 253.4 231.6 252.1C238.8 243.3 243.9 232.9 246.5 221.9C245.3 221.1 244 220.4 242.8 219.6C242.1 230 243.1 240.5 245.8 250.6C246.1 251.7 248 254.3 249.3 252.7C256.6 243.5 262.8 233.6 267.9 223C266.7 222.1 265.5 221.2 264.4 220.3C264.9 226.8 265.3 233.3 265.8 239.8C265.9 240.8 267.6 244 269 242.8C276.8 236.3 282.7 228 286.4 218.6C285.2 217.8 283.9 217.1 282.7 216.3C283.1 226 285.4 235.6 289.4 244.4C289.8 245.2 291.8 247.5 292.7 246C297.9 236.9 303 227.9 308.2 218.8C307.1 218.3 306 217.8 304.9 217.2C308.2 224.7 311.4 232.2 314.7 239.8C315.1 240.8 316.9 242.7 318 241.4C324 233.8 328.6 225.2 331.7 216C330.6 215.6 329.4 215.2 328.3 214.9C330.6 221.9 332.9 228.9 335.3 235.9C335.6 236.7 337.8 239.1 338.6 237.5C343 228 346.5 218.1 349 208C347.9 207.6 346.7 207.2 345.6 206.9C348.8 214.6 352.5 222 356.6 229.3C357.1 230.1 358.7 231.5 359.6 230.3C365.4 221.9 369.9 212.7 373 203C371.8 202.4 370.6 201.8 369.4 201.3C370.3 207.8 372.1 214 374.8 220C375.2 220.9 377 223 378.1 221.6C384.5 212.5 389.6 202.5 393.3 192C392.1 191.4 390.9 190.8 389.7 190.3C391.3 200 394.9 209.2 400.4 217.3C401 218.3 402.9 219.6 403.5 217.9C406.2 209.8 408.9 201.7 411.6 193.6C410.5 193.2 409.3 192.8 408.2 192.5C409.7 196.4 411.2 200.3 412.7 204.2C413 205.1 415.1 207.3 416 205.8C420.4 198.2 423.8 190.1 426 181.6C424.9 181.2 423.7 180.8 422.6 180.5C424.9 186.9 427.3 193.2 429.6 199.6C429.9 200.5 431.9 202.6 432.9 201.2C438.5 192.5 441.8 182.6 442.8 172.2C443 170.2 439.3 167.4 439 170.4C438.1 180.1 434.8 189.4 429.6 197.6C430.7 198.1 431.8 198.6 432.9 199.2C430.6 192.8 428.2 186.5 425.9 180.1C425.5 179 423 176.9 422.5 179C420.4 187.2 417.1 195.1 412.8 202.4C413.9 202.9 415 203.4 416.1 204C414.6 200.1 413.1 196.2 411.6 192.3C411.1 191.1 408.8 189.1 408.2 191.2C405.5 199.3 402.8 207.4 400.1 215.5C401.1 215.7 402.2 215.9 403.2 216.1C398.2 208.6 395 200.3 393.6 191.4C393.4 190.1 390.8 187.4 390 189.7C386.5 200 381.4 209.6 375.2 218.5C376.3 219 377.4 219.5 378.5 220.1C376 214.5 374.4 208.6 373.5 202.6C373.3 201.3 370.6 198.6 369.9 200.9C366.9 210.4 362.5 219.3 356.8 227.4C357.8 227.7 358.8 228 359.8 228.4C355.9 221.6 352.5 214.5 349.4 207.2C349 206.2 346.5 203.9 346 206.1C343.6 216 340.2 225.6 336 234.8C337.1 235.3 338.2 235.8 339.3 236.4C337 229.4 334.7 222.4 332.3 215.4C331.9 214.2 329.5 212.3 328.9 214.3C325.9 223.2 321.4 231.5 315.6 238.9C316.7 239.4 317.8 239.9 318.9 240.5C315.6 233 312.4 225.5 309.1 217.9C308.7 217.1 306.7 214.8 305.8 216.3C300.6 225.4 295.5 234.4 290.3 243.5C291.4 244 292.5 244.5 293.6 245.1C289.8 236.9 287.7 228.2 287.4 219.2C287.3 217.7 284.7 214.4 283.7 216.9C280.2 225.7 274.5 233.6 267.2 239.7C268.3 240.7 269.4 241.7 270.4 242.7C269.9 236.2 269.5 229.7 269 223.2C268.9 222.2 268.4 221.1 267.6 220.5C267.1 220.1 265.9 219.7 265.5 220.5C260.4 231.1 254.2 241 246.9 250.2C248.1 250.9 249.2 251.6 250.4 252.3C247.8 242.5 246.8 232.5 247.5 222.4C247.6 220.9 244.4 217.6 243.8 220.1C241.2 230.9 236.2 240.9 229.2 249.5C230.3 250 231.4 250.5 232.5 251.1C228.9 243 226.5 234.5 225.2 225.7C225.1 224.7 222.5 221.7 221.7 223.6C217.9 232.2 214 240.9 210.2 249.5C211.4 250.2 212.5 250.9 213.7 251.6C211 242.9 209.7 234 209.7 224.9C209.7 223.6 207.5 220.4 206.2 222.2C201.2 228.7 196.3 235.2 191.3 241.7C192.5 242.6 193.7 243.5 194.8 244.4C194 236.5 193.1 228.6 192.3 220.7C192.2 219.4 189.5 215.8 188.6 218.4C186 225.8 181.5 232.5 175.8 237.8C176.9 238.8 178 239.8 179 240.8C178.2 229.3 177.5 217.7 176.7 206.2C176.6 205.1 176 203.9 175 203.4C174.3 203 173.1 202.9 173 203.9C171.1 219.1 165.9 233.8 157.7 246.7C158.9 247.4 160 248.1 161.2 248.8C158.7 239.2 156.2 229.6 153.6 220C153.3 218.8 150.8 215.9 150 218.3C145.8 230.3 139.7 241.5 132.1 251.6C133.2 252.1 134.3 252.6 135.4 253.2C130.2 242.6 126.8 231.3 125.1 219.6C124.9 218.3 122.2 215.6 121.5 217.9C119.1 225.1 115.5 231.7 111 237.7C112.2 238.4 113.3 239.1 114.5 239.8C113.5 232 113 224.1 112.9 216.2C112.9 214.9 110.8 211.8 109.4 213.5C103.4 221 97.2999 228.3 90.8999 235.4C92.0999 236.3 93.2999 237.2 94.3999 238.1C93.4999 228.7 92.6999 219.3 92.0999 209.8C91.9999 208.7 89.7999 205.1 88.5999 207.1C83.8999 214.6 78.2999 221.5 71.7999 227.5C72.8999 228.3 73.8999 229.1 74.9999 229.9C74.0999 223.5 73.1999 217.1 72.2999 210.7C72.0999 209.4 70.0999 207.1 68.7999 208.6C64.3999 213.9 60.0999 219.2 55.6999 224.5C56.7999 225 57.8999 225.5 58.9999 226.1C56.2999 219.2 55.4999 211.8 56.6999 204.5C56.8999 203.3 56.2999 202 55.2999 201.3C52.9999 199.8 51.5999 199.5 51.3999 200.7Z" fill="white"/>
</g>
<mask id="mask6_201_749" style="mask-type:luminance" maskUnits="userSpaceOnUse" x="51" y="51" width="398" height="398">
<path d="M250 448.5C359.629 448.5 448.5 359.629 448.5 250C448.5 140.371 359.629 51.5 250 51.5C140.371 51.5 51.5 140.371 51.5 250C51.5 359.629 140.371 448.5 250 448.5Z" fill="white"/>
</mask>
<g mask="url(#mask6_201_749)">
<path d="M42.6999 236C43.8999 244 46.6999 251.6 50.8999 258.6C51.1999 259.2 53.9999 261.7 54.6999 260.7C58.4999 255 61.5999 248.9 63.8999 242.4C62.5999 241.6 61.2999 240.8 59.8999 239.9C62.4999 248.5 66.4999 256.7 71.5999 264.1C71.9999 264.7 74.5999 267.2 75.3999 266.2C79.6999 260.7 82.9999 254.7 85.3999 248.2C84.0999 247.4 82.7999 246.6 81.3999 245.7C83.7999 255.1 87.6999 263.9 92.8999 272.1C93.2999 272.7 95.7999 275.2 96.6999 274.2C103.8 265.8 109.4 256.3 113.2 246C111.9 245.2 110.6 244.4 109.2 243.5C110.8 249.5 112.4 255.5 114 261.5C114.2 262.2 117.3 265.1 118 264C120.6 259.5 123.2 255 125.9 250.4C124.6 249.5 123.2 248.5 121.9 247.6C122.1 258.4 123.8 269 127 279.3C127.2 280 130.2 282.9 131 281.8C137.2 272.7 142.6 263.1 147.1 253.1C145.8 252.2 144.4 251.2 143.1 250.3C143.5 259.8 145.4 269.2 148.6 278.2C148.9 279 151.7 281.8 152.6 280.7C158.3 273.2 163.2 265.2 167.3 256.7C166 255.8 164.6 254.8 163.3 253.9C164.2 262.5 166.2 271 169.2 279.1C169.5 279.8 172.5 282.7 173.2 281.6C179.5 271.6 184.6 260.9 188.6 249.7C187.3 248.8 185.9 247.8 184.6 246.9C186.3 257.3 190 267.3 195.4 276.3C195.8 277 198.3 279.4 199.2 278.4C206.5 270 213 260.9 218.6 251.3C217.3 250.5 216 249.7 214.6 248.8C216.4 256.4 218.2 264 220 271.5C220.2 272.2 223.4 275.1 224 274C228.5 265.5 232.9 256.9 237.4 248.4C236.1 247.6 234.8 246.8 233.4 245.9C235.4 254.1 237.4 262.4 239.3 270.6C239.5 271.3 242.7 274.2 243.3 273.1C247.5 265.5 251.2 257.7 254.4 249.6C253.1 248.8 251.8 248 250.4 247.1C252.5 254.1 254.7 261.1 256.8 268.2C257 268.9 260 271.8 260.8 270.7C265.5 263.6 269.1 256 271.5 247.9C270.2 247.1 268.9 246.3 267.5 245.4C269.6 252.2 271.8 259 273.9 265.8C274.1 266.5 277.1 269.4 277.9 268.3C282.2 261.7 285.8 254.6 288.4 247.1C287.1 246.3 285.8 245.5 284.4 244.6C286.7 252.1 289 259.5 291.3 267C291.5 267.8 294.5 270.6 295.3 269.5C300.2 262.7 304.3 255.4 307.8 247.8C306.5 247 305.2 246.2 303.8 245.3C306.6 251.1 309.4 256.9 312.2 262.6C312.5 263.3 315.3 266.2 316.2 265.1C321.3 258.5 325.2 251.1 327.7 243.2C326.4 242.4 325.1 241.6 323.7 240.7C326.2 247.5 329.4 254 333.2 260.1C333.6 260.7 336.2 263.2 337 262.2C340.7 257.1 343.9 251.6 346.6 245.9C345.3 245.1 344 244.3 342.6 243.4C345 248.2 347.5 253.1 349.9 257.9C350.2 258.5 353.2 261.6 353.9 260.4C358.4 251.8 362 242.7 364.6 233.3C363.3 232.6 361.9 231.8 360.6 231.1C363.9 240.3 368.4 249 374.1 257C374.4 257.5 377.6 260.4 377.9 258.9C379.7 250.5 381.6 242.2 383.4 233.8C382.1 233.1 380.7 232.3 379.4 231.6C381.5 237.6 384.4 243.3 387.9 248.6C388.2 249 391.3 251.8 391.7 250.7C394.8 240.8 396.6 230.5 397 220.1C395.7 219.4 394.3 218.6 393 217.9C396.6 226 401 233.8 405.9 241.2C406.2 241.7 409.2 244.4 409.7 243.3C412.8 236.7 414.8 229.7 415.6 222.5C414.3 221.8 412.9 221 411.6 220.3C414.3 226.3 417 232.4 419.8 238.4C420.1 239.1 423.4 242.2 423.8 240.6C426.4 230.7 428 220.7 428.6 210.5C427.3 209.9 426 209.3 424.8 208.6C428 213.4 431.3 218.2 434.5 223.1C434.8 223.5 437.8 226.3 438.3 225.2C441.6 217.7 444.1 209.9 446 201.9C444.7 201.2 443.3 200.4 442 199.7C444.2 205.4 446.5 211 448.7 216.7C449.1 217.7 450.3 218.6 451.2 219C451.7 219.2 453.1 219.6 452.6 218.6C450.4 212.9 448.1 207.3 445.9 201.6C445.6 200.9 442.2 197.8 441.9 199.4C440.1 207.2 437.6 214.9 434.4 222.2C435.7 222.9 436.9 223.6 438.2 224.3C435 219.5 431.7 214.7 428.5 209.8C428.2 209.4 424.8 206.4 424.7 207.9C424 218.1 422.4 228.2 419.9 238C421.2 238.7 422.6 239.5 423.9 240.2C421.2 234.2 418.5 228.1 415.7 222.1C415.4 221.5 411.8 218.3 411.7 219.9C410.9 227 409 233.8 406 240.2C407.3 240.9 408.5 241.6 409.8 242.3C405 235.2 400.8 227.6 397.3 219.8C397 219.2 393.3 216.1 393.3 217.6C392.9 227.8 391.2 237.9 388.1 247.7C389.4 248.4 390.6 249.1 391.9 249.8C388.6 244.7 385.9 239.3 383.9 233.5C383.6 232.8 380.2 229.7 379.9 231.3C378.1 239.7 376.2 248 374.4 256.4C375.7 257 377 257.6 378.2 258.3C372.7 250.6 368.3 242.1 365.1 233.2C364.8 232.4 361.5 229.4 361.1 231C358.6 240.2 355 249.1 350.6 257.6C351.9 258.4 353.2 259.2 354.6 260.1C352.2 255.3 349.7 250.4 347.3 245.6C347 245.1 343.9 241.9 343.3 243.1C340.6 248.8 337.4 254.3 333.7 259.4C335 260.1 336.2 260.8 337.5 261.5C333.8 255.6 330.8 249.3 328.4 242.8C328.2 242.2 324.8 239.2 324.4 240.3C321.9 248.2 318 255.6 312.9 262.2C314.2 263 315.5 263.8 316.9 264.7C314.1 258.9 311.3 253.1 308.5 247.4C308.2 246.9 305.1 243.7 304.5 244.9C301.1 252.5 296.9 259.8 292 266.6C293.3 267.4 294.6 268.2 296 269.1C293.7 261.6 291.4 254.2 289.1 246.7C288.9 246.1 285.5 243.1 285.1 244.2C282.4 251.7 278.9 258.8 274.6 265.4C275.9 266.2 277.2 267 278.6 267.9C276.5 261.1 274.3 254.3 272.2 247.5C272 246.9 268.6 243.9 268.2 245C265.8 253.1 262.2 260.8 257.5 267.8C258.8 268.6 260.1 269.4 261.5 270.3C259.4 263.3 257.2 256.3 255.1 249.2C254.9 248.5 251.6 245.6 251.1 246.7C248 254.8 244.3 262.6 240 270.2C241.3 271 242.6 271.8 244 272.7C242 264.5 240 256.2 238.1 248C237.9 247.3 234.7 244.4 234.1 245.5C229.6 254 225.2 262.6 220.7 271.1C222 271.9 223.3 272.7 224.7 273.6C222.9 266 221.1 258.4 219.3 250.9C219.1 250.2 216 247.3 215.3 248.4C209.7 258 203.2 267.1 195.9 275.5C197.2 276.2 198.4 276.9 199.7 277.6C194.5 269 191 259.5 189.4 249.6C189.3 248.8 185.8 245.6 185.4 246.8C181.4 258 176.3 268.6 170 278.7C171.3 279.5 172.6 280.3 174 281.2C171 273.3 169.1 265.1 168.2 256.7C168.1 255.8 164.7 252.7 164.2 253.9C160.1 262.4 155.1 270.4 149.5 277.9C150.8 278.7 152.1 279.5 153.5 280.4C150.4 271.6 148.6 262.5 148.2 253.2C148.2 252.3 144.7 249.3 144.2 250.4C139.7 260.5 134.3 270.1 128.1 279.1C129.4 279.9 130.7 280.7 132.1 281.6C129 271.5 127.3 261.1 127.1 250.5C127.1 249.6 123.7 246.6 123.1 247.7C120.5 252.2 117.9 256.7 115.2 261.3C116.5 262.1 117.8 262.9 119.2 263.8C117.6 257.8 116 251.8 114.4 245.8C114.2 245.1 110.8 242.2 110.4 243.3C106.6 253.6 101.1 263.2 93.8999 271.5C95.1999 272.2 96.3999 272.9 97.6999 273.6C92.6999 265.7 88.8999 257.1 86.5999 248C86.3999 247.3 82.9999 244.4 82.5999 245.5C80.1999 252 76.8999 258 72.5999 263.5C73.8999 264.2 75.0999 264.9 76.3999 265.6C71.3999 258.4 67.5999 250.5 65.0999 242.1C64.8999 241.5 61.4999 238.5 61.0999 239.6C58.6999 246 55.5999 252.1 51.8999 257.9C53.1999 258.6 54.3999 259.3 55.6999 260C51.7999 253.5 49.2999 246.3 48.0999 238.8C47.8999 237.8 46.8999 236.9 45.9999 236.4C44.5999 236 42.5999 235.1 42.6999 236Z" fill="white"/>
</g>
<mask id="mask7_201_749" style="mask-type:luminance" maskUnits="userSpaceOnUse" x="51" y="51" width="398" height="398">
<path d="M250 448.5C359.629 448.5 448.5 359.629 448.5 250C448.5 140.371 359.629 51.5 250 51.5C140.371 51.5 51.5 140.371 51.5 250C51.5 359.629 140.371 448.5 250 448.5Z" fill="white"/>
</mask>
<g mask="url(#mask7_201_749)">
<path d="M456.5 214.5C455.3 222.9 453.2 231.1 450.3 239.1C451.5 239.5 452.7 239.8 453.9 240.2C451.8 234.1 449.7 228 447.5 221.8C447.1 220.7 444.3 218.5 443.9 220.7C442.2 229.3 440.5 237.9 438.9 246.4C440 246.6 441.1 246.7 442.2 246.9C439.9 242.7 437.6 238.5 435.3 234.2C434.8 233.2 432.4 231.9 432 233.7C430.3 241.9 429.1 250.2 428.4 258.5C429.7 259.1 431 259.6 432.3 260.2C431.9 254.6 430.6 249.1 428 244.1C427.4 242.9 425.2 240.9 424.4 243C421 252.2 417.6 261.4 414.2 270.6C415.4 271 416.6 271.3 417.8 271.7C415.3 265 412.8 258.2 410.3 251.5C409.8 250.2 407.5 248.4 406.7 250.4C403.9 257.8 401.1 265.3 398.3 272.7C399.5 273.1 400.7 273.4 401.9 273.8C398.8 267.4 395.6 261 392.5 254.5C392 253.5 389.5 251.2 388.9 253.4C386.5 262.1 384.2 270.9 381.8 279.6C383 280 384.2 280.3 385.4 280.7C383.3 273.5 381.1 266.3 379 259.2C378.7 258.2 376.5 256.1 375.6 257.7C372.8 262.9 370.1 268.2 367.3 273.4C368.5 274.1 369.7 274.8 370.9 275.5C368.6 267.1 367.7 258.5 368.3 249.7C367 249.1 365.7 248.6 364.4 248C364 262 358.8 275.4 350 286.2C351.1 286.7 352.3 287.2 353.4 287.7C351 281 348.6 274.3 346.2 267.6C345.7 266.3 343.4 264.5 342.6 266.5C340.4 272.3 338.3 278.1 336.1 283.9C337.2 284.1 338.3 284.2 339.4 284.4C336.2 279 333 273.6 329.8 268.2C329.1 267 327.2 266 326.5 267.7C323.2 275.9 319.9 284.1 316.6 292.3C317.7 292.5 318.8 292.6 319.9 292.8C316.4 286.6 312.9 280.3 309.4 274.1C309 273.3 307 271.8 306.3 273.2C302.1 281 297.8 288.7 293.6 296.5C294.7 297 295.9 297.5 297 298C294.4 289.6 291.8 281.1 289.1 272.7C288.8 271.8 286.5 269.5 285.7 271.2C282.8 277.1 279.8 283.1 276.9 289C278.1 289.7 279.3 290.4 280.5 291.1C279.1 284.9 277.1 278.9 274.5 273C274.1 272.1 272.1 269.9 271.1 271.5C267.2 277.6 263.9 284 261.1 290.7C262.3 291.1 263.5 291.4 264.7 291.8C262.1 283.2 258.9 274.8 255 266.7C254.6 265.8 252.7 263.6 251.6 265.2C246.2 273.4 242.1 282.4 239.3 291.9C240.6 292.5 241.8 293 243.1 293.6C241.4 287.2 239.8 280.7 238.1 274.3C237.7 272.9 235.4 270.3 234.3 272.6C230.2 281.7 226.1 290.7 222 299.8C223.2 300.2 224.4 300.5 225.6 300.9C222.9 292.9 220.2 284.9 217.4 276.9C217 275.6 214.5 273.8 213.8 275.8C210.6 285.1 207.4 294.4 204.1 303.7C205.2 303.9 206.3 304 207.4 304.2C203.5 297.7 199.5 291.1 195.6 284.6C195.2 283.9 193.2 282.3 192.5 283.7C189.5 289.7 186.5 295.8 183.5 301.8C184.6 302.3 185.8 302.8 186.9 303.3C184.5 297.1 182.1 291 179.6 284.8C179.1 283.4 176.9 281.8 176 283.7C172.6 291.3 168 298.4 162.5 304.7C163.7 305.4 164.9 306.1 166.1 306.8C163.8 298.1 161.5 289.4 159.1 280.6C158.7 279.2 156.4 276.6 155.3 278.9C151.5 287.2 146.9 295.2 141.6 302.6C142.7 303.1 143.9 303.6 145 304.1C142.3 297 139.7 289.9 137 282.8C136.5 281.4 134.3 279.8 133.4 281.7C129.6 289.7 123.9 296.8 117 302.3C118 302.9 119 303.5 120.1 304.1C117.1 295.4 115 286.4 113.5 277.3C113.3 276.2 111 273.4 109.9 275.2C105 284.1 100.1 292.9 95.1999 301.8C96.2999 302.3 97.4999 302.8 98.5999 303.3C95.8999 297.5 94.1999 291.2 93.7999 284.8C93.6999 283.5 91.6999 280.2 90.1999 282.1C86.8999 286.1 83.5999 290.2 80.3999 294.2C81.4999 294.7 82.6999 295.2 83.7999 295.7C80.7999 289.5 78.4999 283.1 76.8999 276.4C76.6999 275.4 74.2999 272.4 73.2999 274.3C70.7999 279.3 68.2999 284.2 65.7999 289.2C66.9999 289.9 68.1999 290.6 69.3999 291.3C68.3999 285.7 67.4999 280.2 66.4999 274.6C66.2999 273.3 64.7999 271.4 63.2999 272.2C61.0999 273.3 59.2999 274.9 57.8999 276.9C58.9999 277.4 60.1999 277.9 61.2999 278.4C58.2999 270.4 55.3999 262.5 52.3999 254.5C51.4999 252 47.7999 252 48.8999 255.1C51.8999 263.1 54.7999 271 57.7999 279C58.1999 280 60.1999 282 61.1999 280.5C62.3999 278.7 63.9999 277.4 65.9999 276.4C64.8999 275.6 63.7999 274.8 62.7999 274C63.7999 279.6 64.6999 285.1 65.6999 290.7C65.8999 291.7 68.2999 294.7 69.2999 292.8C71.7999 287.8 74.2999 282.9 76.7999 277.9C75.5999 277.2 74.3999 276.5 73.1999 275.8C74.8999 282.9 77.2999 289.7 80.3999 296.3C80.8999 297.4 82.5999 299.3 83.7999 297.8C87.0999 293.8 90.3999 289.7 93.5999 285.7C92.3999 284.8 91.1999 283.9 89.9999 283C90.4999 290.2 92.1999 297.3 95.2999 303.9C95.6999 304.7 97.7999 307.1 98.6999 305.4C103.6 296.5 108.5 287.7 113.4 278.8C112.2 278.1 111 277.4 109.8 276.7C111.3 286.2 113.7 295.6 116.8 304.7C117.1 305.6 118.7 307.4 119.9 306.5C127.4 300.6 133.3 293.1 137.4 284.4C136.2 284 135 283.7 133.8 283.3C136.5 290.4 139.1 297.5 141.8 304.6C142.2 305.7 144.1 307.6 145.2 306.1C150.7 298.4 155.4 290.2 159.3 281.5C158 280.9 156.8 280.4 155.5 279.8C157.8 288.5 160.1 297.2 162.5 306C162.8 307.3 164.7 309.7 166.1 308.1C171.8 301.5 176.4 294.2 180 286.2C178.8 285.8 177.6 285.5 176.4 285.1C178.8 291.3 181.2 297.4 183.7 303.6C184 304.4 186.3 306.8 187.1 305.1C190.1 299.1 193.1 293 196.1 287C195.1 286.7 194 286.4 193 286.1C196.9 292.6 200.9 299.2 204.8 305.7C205.5 306.8 207.5 307.9 208.1 306.2C211.3 296.9 214.5 287.6 217.8 278.3C216.6 277.9 215.4 277.6 214.2 277.2C216.9 285.2 219.6 293.2 222.4 301.2C222.9 302.6 225.1 304.2 226 302.3C230.1 293.2 234.2 284.2 238.3 275.1C237 274.5 235.8 274 234.5 273.4C236.2 279.8 237.8 286.3 239.5 292.7C239.8 293.9 242.5 296.9 243.3 294.4C245.9 285.2 249.9 276.5 255.1 268.5C254 268 252.8 267.5 251.7 267C255.6 275.1 258.8 283.5 261.4 292.1C261.8 293.5 264.2 295.1 265 293.2C267.7 286.8 270.9 280.7 274.6 274.9C273.5 274.4 272.3 273.9 271.2 273.4C273.6 278.9 275.5 284.5 276.8 290.3C277 291.3 279.4 294.3 280.4 292.4C283.3 286.5 286.3 280.5 289.2 274.6C288.1 274.1 286.9 273.6 285.8 273.1C288.4 281.5 291 290 293.7 298.4C294 299.4 296.2 301.5 297.1 299.9C301.3 292.1 305.6 284.4 309.8 276.6C308.8 276.3 307.7 276 306.7 275.7C310.2 281.9 313.7 288.2 317.2 294.4C317.9 295.6 319.8 296.6 320.5 294.9C323.8 286.7 327.1 278.5 330.4 270.3C329.3 270.1 328.2 270 327.1 269.8C330.3 275.2 333.5 280.6 336.7 286C337.4 287.1 339.4 288.2 340 286.5C342.2 280.7 344.3 274.9 346.5 269.1C345.3 268.7 344.1 268.4 342.9 268C345.3 274.7 347.7 281.4 350.1 288.1C350.5 289.3 352.4 291 353.5 289.6C362.8 278.3 368 264.1 368.5 249.6C368.6 247.5 364.8 244.8 364.6 247.9C364 257 364.9 266 367.3 274.8C367.6 275.7 369.8 278.9 370.9 276.9C373.7 271.7 376.4 266.4 379.2 261.2C378.1 260.7 376.9 260.2 375.8 259.7C377.9 266.9 380.1 274.1 382.2 281.2C382.6 282.4 385.2 284.4 385.8 282.3C388.2 273.6 390.5 264.8 392.9 256.1C391.7 255.7 390.5 255.4 389.3 255C392.4 261.4 395.6 267.8 398.7 274.3C399.3 275.5 401.5 277.5 402.3 275.4C405.1 268 407.9 260.5 410.7 253.1C409.5 252.7 408.3 252.4 407.1 252C409.6 258.7 412.1 265.5 414.6 272.2C415.1 273.5 417.4 275.3 418.2 273.3C421.6 264.1 425 254.9 428.4 245.7C427.2 245.3 426 245 424.8 244.6C427 248.9 428.3 253.5 428.6 258.4C428.7 259.6 429.3 260.9 430.5 261.4C431.6 261.8 432.4 261.3 432.5 260.1C433.2 252.1 434.3 244.2 435.9 236.3C434.8 236.1 433.7 236 432.6 235.8C434.9 240 437.2 244.2 439.5 248.5C440 249.5 442.4 250.9 442.8 249C444.5 240.4 446.2 231.8 447.8 223.3C446.6 222.9 445.4 222.6 444.2 222.2C446.3 228.3 448.4 234.4 450.6 240.6C451.1 241.9 453.5 243.7 454.2 241.7C457.2 233.4 459.3 224.8 460.5 216.1C460.7 214 456.9 211.4 456.5 214.5Z" fill="white"/>
</g>
<mask id="mask8_201_749" style="mask-type:luminance" maskUnits="userSpaceOnUse" x="51" y="51" width="398" height="398">
<path d="M250 448.5C359.629 448.5 448.5 359.629 448.5 250C448.5 140.371 359.629 51.5 250 51.5C140.371 51.5 51.5 140.371 51.5 250C51.5 359.629 140.371 448.5 250 448.5Z" fill="white"/>
</mask>
<g mask="url(#mask8_201_749)">
<path d="M42 284C41 293.9 43 303.8 47.8 312.5C48.5 313.7 51.4 312 52 311.3C56.2 306.1 60.4 300.9 64.6 295.7C63.2 296 61.8 296.3 60.4 296.6C61 304.1 62.5 311.5 65.1 318.7C65.6 320 68.8 318 69.3 317.5C73.6 313.3 77.2 308.5 79.9 303.2C78.4 303.6 76.9 304 75.4 304.4C76.1 311 78.1 317.2 81.5 322.9C82.3 324.2 85.5 322.3 85.9 321.4C88.1 317.3 90.3 313.3 92.6 309.2C91.1 309.7 89.6 310.2 88.2 310.7C90.1 316.1 92.6 321.3 95.6 326.3C96.4 327.6 99.6 325.7 100 324.8C103.3 318.7 106.5 312.6 109.8 306.5C108.3 307 106.8 307.5 105.4 308C107.3 315.3 109.1 322.7 111 330C111.4 331.5 115 329 115.4 328.5C120.7 321.3 126 314.1 131.4 306.9C129.9 307.4 128.4 307.9 127 308.4C128.2 314.2 129.3 320.1 130.5 325.9C130.8 327.4 134.6 324.9 134.9 324.4C138.3 319.5 141.7 314.6 145.2 309.6C143.7 310.1 142.2 310.6 140.8 311.1C143.2 316.6 145.1 322.3 146.3 328.1C146.6 329.4 150.1 327.4 150.5 326.9C155.4 320.8 159.1 314.1 161.6 306.7C160.1 307.2 158.5 307.7 157 308.2C157.1 316.7 159.6 324.9 164.5 331.9C165.4 333.2 168.4 331.3 168.9 330.4C173.1 323.5 177.2 316.7 181.4 309.8C179.9 310.2 178.4 310.6 176.9 311C177.5 318.3 179.3 325.4 182.2 332.2C182.8 333.6 186.2 331.5 186.6 330.7C192 320.5 197.3 310.3 202.7 300.2C201.2 300.6 199.7 301 198.2 301.4C198.1 310.8 200.3 319.9 204.7 328.2C205.4 329.6 208.6 327.5 209.1 326.7C213.9 319.3 218.6 311.8 223.4 304.4C221.9 304.9 220.4 305.4 219 305.9C220.1 311.6 221.3 317.2 222.4 322.9C222.7 324.3 226.5 322 226.8 321.4C231.4 313.6 236 305.9 240.5 298.1C239 298.6 237.5 299.1 236.1 299.6C237.9 307.5 239.7 315.4 241.5 323.2C241.8 324.7 245.6 322.3 245.9 321.7C250.2 315.1 253.6 308.1 256 300.6C254.5 301.1 252.9 301.6 251.4 302.1C252.2 310 254.3 317.7 257.8 324.9C258.4 326.2 261.4 324.4 262 323.7C268.7 316.1 274.8 308 280.2 299.4C278.7 299.9 277.2 300.4 275.8 300.9C277.4 306.7 279.1 312.4 280.7 318.2C281.1 319.6 284.8 317.4 285.1 316.7C288.6 310.3 291.4 303.5 293.4 296.4C291.9 297 290.4 297.6 288.8 298.2C289.8 305.7 292 313 295.2 320C295.9 321.4 299.2 319.2 299.6 318.5C305 310.6 309.6 302.3 313.4 293.6C311.9 294.1 310.4 294.6 309 295.1C310.1 303.3 311.9 311.4 314.4 319.4C314.8 320.7 318.1 318.8 318.6 318.2C323.4 312.2 327.6 305.8 331.1 299C329.6 299.5 328.1 300 326.7 300.5C328.3 306.1 329.9 311.7 331.5 317.2C331.9 318.6 335.6 316.4 335.9 315.7C339.1 309.5 341.6 303 343.2 296.2C341.7 296.8 340.2 297.4 338.6 298C342 304.2 345.4 310.4 348.8 316.6C349.5 318 352.7 315.9 353.2 315.1C358.1 307.3 362.3 299.1 365.7 290.5C364.2 291 362.7 291.5 361.3 292C364.3 300 367.3 308 370.3 316C370.8 317.4 374.4 315.3 374.7 314.5C378.1 307 381.5 299.5 384.9 291.9C383.4 292.4 381.9 292.9 380.5 293.4C383.6 300.5 386.6 307.6 389.7 314.8C390.3 316.1 393.8 314.1 394.1 313.3C398.8 302.7 401.9 291.4 403.3 279.9C401.8 280.5 400.3 281.1 398.7 281.7C401.2 287.9 403.7 294.1 406.2 300.3C406.8 301.7 410.2 299.5 410.6 298.8C415.2 290.8 418 281.9 418.6 272.7C417.1 273.3 415.6 273.9 414 274.5C415.3 281.8 418.2 288.7 422.5 294.7C423.5 296.1 426.7 293.9 427.1 292.9C430.8 283.4 433 273.4 433.8 263.3C432.3 263.9 430.8 264.5 429.2 265.1C430.6 271 432.8 276.7 435.8 281.9C436.5 283.2 439.8 281.3 440.2 280.4C445 270.3 448.7 259.7 451.1 248.8C449.6 249.4 448.1 250 446.5 250.6C448.6 258.9 451 267.1 453.6 275.2C454 276.4 458.6 274.6 458.1 273.1C455.5 265 453.1 256.8 451 248.5C450.6 247.1 446.6 249.4 446.4 250.3C444.1 261 440.5 271.4 435.8 281.2C437.3 280.7 438.8 280.2 440.2 279.7C437.2 274.4 434.9 268.8 433.6 262.9C433.3 261.6 429.1 263.6 429 264.7C428.2 274.9 425.9 284.8 422.3 294.3C423.8 293.7 425.3 293.1 426.9 292.5C422.6 286.4 419.7 279.6 418.4 272.3C418.2 271.1 413.9 273 413.8 274.1C413.2 283.1 410.5 291.8 406 299.6C407.5 299.1 409 298.6 410.4 298.1C407.9 291.9 405.4 285.7 402.9 279.5C402.4 278.1 398.5 280.2 398.3 281.3C397 292.6 394 303.7 389.4 314.1C390.9 313.6 392.4 313.1 393.8 312.6C390.7 305.5 387.7 298.4 384.6 291.2C384 289.9 380.5 291.9 380.2 292.7C376.8 300.2 373.4 307.7 370 315.3C371.5 314.8 373 314.3 374.4 313.8C371.4 305.8 368.4 297.8 365.4 289.8C364.9 288.5 361.3 290.5 361 291.3C357.6 299.9 353.4 308.1 348.5 315.9C350 315.4 351.5 314.9 352.9 314.4C349.5 308.2 346.1 302 342.7 295.8C341.9 294.4 338.4 296.6 338.1 297.6C336.5 304.2 334.1 310.5 331 316.5C332.5 316 334 315.5 335.4 315C333.8 309.4 332.2 303.8 330.6 298.3C330.2 296.9 326.5 299.1 326.2 299.8C322.8 306.3 318.8 312.6 314.2 318.3C315.6 317.9 317 317.5 318.4 317.1C315.9 309.2 314.1 301.1 313 292.8C312.8 291.5 308.9 293.6 308.6 294.3C304.8 303 300.2 311.3 294.8 319.2C296.3 318.7 297.8 318.2 299.2 317.7C296 310.8 293.9 303.5 292.8 295.9C292.6 294.5 288.5 296.8 288.2 297.7C286.2 304.5 283.5 311.1 280.1 317.3C281.6 316.8 283.1 316.3 284.5 315.8C282.9 310 281.2 304.3 279.6 298.5C279.2 297 275.5 299.4 275.2 300C269.9 308.3 264 316.2 257.6 323.6C259 323.2 260.4 322.8 261.8 322.4C258.5 315.4 256.3 307.9 255.5 300.1C255.3 298.3 251.3 300.6 250.9 301.6C248.6 308.8 245.3 315.7 241.1 322C242.6 321.5 244.1 321 245.5 320.5C243.7 312.6 241.9 304.7 240.1 296.9C239.8 295.5 236 297.8 235.7 298.4C231.1 306.2 226.5 313.9 222 321.7C223.5 321.2 225 320.7 226.4 320.2C225.3 314.5 224.1 308.9 223 303.2C222.7 301.7 218.9 304.1 218.6 304.7C213.8 312.1 209.1 319.6 204.3 327C205.8 326.5 207.3 326 208.7 325.5C204.4 317.4 202.1 308.5 202.2 299.3C202.2 297.6 198.1 299.8 197.7 300.5C192.3 310.7 187 320.9 181.6 331C183.1 330.5 184.6 330 186 329.5C183.2 322.9 181.4 316 180.8 308.9C180.6 307.1 176.8 309.4 176.3 310.1C172.1 317 168 323.8 163.8 330.7C165.3 330.2 166.8 329.7 168.2 329.2C163.5 322.4 160.9 314.4 160.8 306.1C160.8 304.3 156.6 306.6 156.2 307.6C153.9 314.4 150.4 320.8 145.9 326.4C147.3 326 148.7 325.6 150.1 325.2C148.8 319.3 147 313.6 144.6 308.2C144 306.8 140.6 309 140.2 309.7C136.8 314.6 133.4 319.5 129.9 324.5C131.4 324 132.9 323.5 134.3 323C133.1 317.2 132 311.3 130.8 305.5C130.5 304 126.7 306.5 126.4 307C121.1 314.2 115.8 321.4 110.4 328.6C111.9 328.1 113.4 327.6 114.8 327.1C112.9 319.8 111.1 312.4 109.2 305.1C108.8 303.7 105.1 305.9 104.8 306.6C101.5 312.7 98.3 318.8 95 324.9C96.5 324.4 98 323.9 99.4 323.4C96.4 318.4 94 313.2 92 307.8C91.5 306.4 87.9 308.6 87.6 309.3C85.4 313.4 83.2 317.4 80.9 321.5C82.4 321 83.9 320.5 85.3 320C82 314.5 79.9 308.4 79.2 302C79 300.2 75.2 302.4 74.7 303.2C72.1 308.3 68.7 312.8 64.6 316.8C66 316.4 67.4 316 68.8 315.6C66.3 308.7 64.8 301.5 64.2 294.1C64.1 292.4 60.5 294.4 60 295C55.8 300.2 51.6 305.4 47.4 310.6C48.8 310.2 50.2 309.8 51.6 309.4C46.9 300.9 44.9 291.2 45.9 281.5C46.8 281 42.2 282.5 42 284Z" fill="white"/>
</g>
<mask id="mask9_201_749" style="mask-type:luminance" maskUnits="userSpaceOnUse" x="51" y="51" width="398" height="398">
<path d="M250 448.5C359.629 448.5 448.5 359.629 448.5 250C448.5 140.371 359.629 51.5 250 51.5C140.371 51.5 51.5 140.371 51.5 250C51.5 359.629 140.371 448.5 250 448.5Z" fill="white"/>
</mask>
<g mask="url(#mask9_201_749)">
<path d="M51.7001 320.5C54.3001 327.6 58.1001 334.2 62.9001 340.1C63.6001 340.9 67.0001 338.8 67.4001 338.1C69.7001 333.4 72.1001 328.6 74.4001 323.9C72.9001 324.6 71.4001 325.3 69.9001 325.9C71.9001 333.8 75.2001 341.2 79.5001 348C80.1001 348.9 83.6001 346.5 84.0001 346C87.1001 341.6 89.3001 336.7 90.5001 331.5C89.0001 332.2 87.5001 332.9 86.0001 333.5C87.5001 339.9 90.3001 345.8 94.2001 351.1C94.9001 352 98.3001 349.7 98.7001 349.1C102.6 342.5 105.9 335.6 108.4 328.3C106.9 329 105.4 329.7 103.9 330.3C107.4 341.5 110.9 352.7 114.3 363.9C114.6 364.8 118.5 362.4 118.8 361.9C123.9 353.5 128.1 344.7 131.5 335.6C130 336.3 128.5 337 127 337.6C128.7 346.7 131.6 355.5 135.5 363.9C135.9 364.8 139.7 362.4 140 361.9C145.4 351.9 149.4 341.2 151.9 330C150.4 330.7 148.9 331.4 147.4 332C148.7 343.5 150.9 354.8 154.1 365.9C154.3 366.6 158.3 364.5 158.6 363.9C162 353.4 164.4 342.7 165.8 331.7C164.3 332.4 162.8 333.1 161.3 333.7C163.1 342.8 165.7 351.7 169.1 360.3C169.4 361.1 173.3 358.9 173.6 358.3C177.8 349.2 180.6 339.6 181.9 329.7C180.4 330.4 178.9 331.1 177.4 331.7C177.5 342.9 180.2 353.9 185.5 363.7C186 364.6 189.7 362.3 190 361.7C195.8 350.7 200.4 339.1 203.7 327.1C202.2 327.8 200.7 328.5 199.2 329.1C199.4 339.8 201.2 350.4 204.6 360.6C204.9 361.4 208.8 359.1 209.1 358.6C214.2 347.9 219.3 337.2 224.4 326.5C222.9 327.2 221.4 327.9 219.9 328.5C222.1 338 224.3 347.6 226.5 357.1C226.7 357.9 230.7 355.6 231 355.1C235.2 346.6 238.2 337.7 240 328.4C238.5 329.1 237 329.8 235.5 330.4C238 339.1 240.5 347.9 242.9 356.6C243.1 357.3 247.2 355.2 247.4 354.6C250.3 345.2 253.2 335.8 256.1 326.3C254.6 327 253.1 327.7 251.6 328.3C254.8 340.9 257.9 353.5 261.1 366.1C261.3 366.8 265.4 364.8 265.6 364.1C269.3 350.6 272.9 337 276.6 323.5C275.1 324.2 273.6 324.9 272.1 325.5C274.4 335.8 276.8 346.1 279.1 356.4C279.3 357.2 283.3 354.9 283.6 354.4C287.5 346.1 290.7 337.5 293.1 328.7C291.6 329.4 290.1 330.1 288.6 330.7C291 338.7 293.3 346.6 295.7 354.6C295.9 355.4 299.9 353.2 300.2 352.6C303.9 342 308.2 331.7 313.1 321.5C311.6 322.2 310.1 322.9 308.6 323.5C312.2 332.8 315.8 342.1 319.4 351.5C319.7 352.4 323.6 350 323.9 349.5C328.6 340.1 333.2 330.7 337.9 321.3C336.4 322 334.9 322.7 333.4 323.3C335 330.9 336.7 338.5 338.3 346.1C338.5 346.8 342.5 344.7 342.8 344.1C346.5 335.2 350.3 326.3 354 317.3C352.5 318 351 318.7 349.5 319.3C351.6 325.9 353.7 332.4 355.8 339C356 339.7 360.1 337.7 360.3 337C362.1 330.2 364 323.4 365.8 316.6C364.3 317.3 362.8 318 361.3 318.6C362.7 326.4 365.9 333.7 370.6 340.2C371.2 341.1 374.7 338.8 375.1 338.2C379.6 330.3 384.1 322.4 388.6 314.5C387.1 315.2 385.6 315.9 384.1 316.5C386.6 324.6 389.1 332.8 391.7 340.9C391.9 341.7 395.9 339.5 396.2 338.9C400.3 328.8 404.5 318.7 408.6 308.6C407.1 309.3 405.6 310 404.1 310.6C404.8 317.9 406.3 325 408.6 332C408.9 332.8 412.9 330.6 413.1 330C416.2 320.6 418.5 310.9 420.2 301.1C418.7 301.8 417.2 302.5 415.7 303.1C417.4 308.4 419.1 313.6 420.8 318.9C421.1 319.7 425 317.4 425.3 316.9C429.3 308.8 432.8 300.5 435.8 292C434.3 292.7 432.8 293.4 431.3 294C433.1 299.9 434.9 305.7 436.7 311.6C437 312.4 440.9 310.1 441.2 309.6C445.2 301 449.2 292.4 453.2 283.8C451.7 284.5 450.2 285.2 448.7 285.8C449.7 293.7 449.9 301.6 449.6 309.5C449.6 310 451.9 309 452.1 308.9C452.7 308.6 454.1 308 454.1 307.3C454.5 299.4 454.2 291.5 453.2 283.6C453.1 282.9 449 285 448.7 285.6C444.7 294.2 440.7 302.8 436.7 311.4C438.2 310.7 439.7 310 441.2 309.4C439.4 303.5 437.6 297.7 435.8 291.8C435.6 291 431.6 293.2 431.3 293.8C428.3 302.3 424.8 310.6 420.8 318.7C422.3 318 423.8 317.3 425.3 316.7C423.6 311.4 421.9 306.2 420.2 300.9C420 300.2 415.9 302.2 415.7 302.9C414 312.7 411.6 322.3 408.6 331.8C410.1 331.1 411.6 330.4 413.1 329.8C410.8 322.9 409.3 315.7 408.6 308.4C408.5 307.8 404.4 309.7 404.1 310.4C400 320.5 395.8 330.6 391.7 340.7C393.2 340 394.7 339.3 396.2 338.7C393.7 330.6 391.2 322.4 388.6 314.3C388.3 313.4 384.4 315.8 384.1 316.3C379.6 324.2 375.1 332.1 370.6 340C372.1 339.3 373.6 338.6 375.1 338C370.4 331.6 367.3 324.3 365.8 316.4C365.7 315.8 361.5 317.7 361.3 318.4C359.5 325.2 357.6 332 355.8 338.8C357.3 338.1 358.8 337.4 360.3 336.8C358.2 330.2 356.1 323.7 354 317.1C353.7 316.3 349.8 318.5 349.5 319.1C345.8 328 342 336.9 338.3 345.9C339.8 345.2 341.3 344.5 342.8 343.9C341.2 336.3 339.5 328.7 337.9 321.1C337.7 320.3 333.7 322.6 333.4 323.1C328.7 332.5 324.1 341.9 319.4 351.3C320.9 350.6 322.4 349.9 323.9 349.3C320.3 340 316.7 330.7 313.1 321.3C312.8 320.5 308.9 322.8 308.6 323.3C303.8 333.4 299.5 343.8 295.7 354.4C297.2 353.7 298.7 353 300.2 352.4C297.8 344.4 295.5 336.5 293.1 328.5C292.9 327.8 288.8 329.8 288.6 330.5C286.3 339.4 283.1 348 279.1 356.2C280.6 355.5 282.1 354.8 283.6 354.2C281.3 343.9 278.9 333.6 276.6 323.3C276.5 322.6 272.3 324.6 272.1 325.3C268.4 338.8 264.8 352.4 261.1 365.9C262.6 365.2 264.1 364.5 265.6 363.9C262.4 351.3 259.3 338.7 256.1 326.1C255.9 325.4 251.8 327.4 251.6 328.1C248.7 337.5 245.8 346.9 242.9 356.4C244.4 355.7 245.9 355 247.4 354.4C244.9 345.7 242.4 336.9 240 328.2C239.8 327.5 235.7 329.5 235.5 330.2C233.7 339.5 230.7 348.4 226.5 356.9C228 356.2 229.5 355.5 231 354.9C228.8 345.4 226.6 335.8 224.4 326.3C224.2 325.5 220.2 327.8 219.9 328.3C214.8 339 209.7 349.7 204.6 360.4C206.1 359.7 207.6 359 209.1 358.4C205.7 348.2 203.9 337.6 203.7 326.9C203.7 326.5 199.5 328 199.2 328.9C195.9 340.9 191.4 352.5 185.5 363.5C187 362.8 188.5 362.1 190 361.5C184.7 351.6 181.9 340.6 181.9 329.5C181.9 329.3 177.6 330.5 177.4 331.5C176.1 341.4 173.3 351.1 169.1 360.1C170.6 359.4 172.1 358.7 173.6 358.1C170.2 349.5 167.6 340.6 165.8 331.5C165.7 331 161.4 332.7 161.3 333.5C159.9 344.4 157.5 355.2 154.1 365.7C155.6 365 157.1 364.3 158.6 363.7C155.4 352.6 153.2 341.3 151.9 329.8C151.8 329.3 147.6 331 147.4 331.8C144.9 342.9 140.8 353.6 135.5 363.7C137 363 138.5 362.3 140 361.7C136.1 353.3 133.3 344.5 131.5 335.4C131.4 334.7 127.3 336.8 127 337.4C123.6 346.6 119.4 355.4 114.3 363.7C115.8 363 117.3 362.3 118.8 361.7C115.3 350.5 111.8 339.3 108.4 328.1C108.2 327.3 104.2 329.5 103.9 330.1C101.4 337.4 98.2001 344.3 94.2001 350.9C95.7001 350.2 97.2001 349.5 98.7001 348.9C94.8001 343.7 92.0001 337.7 90.5001 331.3C90.3001 330.7 86.2001 332.6 86.0001 333.3C84.8001 338.5 82.6001 343.4 79.5001 347.8C81.0001 347.1 82.5001 346.4 84.0001 345.8C79.6001 339 76.4001 331.5 74.4001 323.7C74.2001 322.9 70.2001 325.2 69.9001 325.7C67.6001 330.4 65.2001 335.2 62.9001 339.9C64.4001 339.2 65.9001 338.5 67.4001 337.9C62.6001 332 58.8001 325.4 56.2001 318.3C56.0001 317.7 51.4001 319.6 51.7001 320.5Z" fill="white"/>
</g>
<mask id="mask10_201_749" style="mask-type:luminance" maskUnits="userSpaceOnUse" x="51" y="51" width="398" height="398">
<path d="M250 448.5C359.629 448.5 448.5 359.629 448.5 250C448.5 140.371 359.629 51.5 250 51.5C140.371 51.5 51.5 140.371 51.5 250C51.5 359.629 140.371 448.5 250 448.5Z" fill="white"/>
</mask>
<g mask="url(#mask10_201_749)">
<path d="M74.5999 360.3C75.6999 365.6 77.5999 370.7 80.2999 375.5C81.0999 376.9 84.1999 377.2 84.8999 375.6C89.0999 366.3 93.1999 357 97.3999 347.7C95.7999 347.5 94.1999 347.3 92.5999 347.2C95.2999 355.3 97.9999 363.3 100.7 371.4C101.3 373.1 104 373.6 105.2 372.3C108.3 369.2 110.4 365.6 111.5 361.4C109.8 361.2 108.2 361 106.5 360.9C106 374.9 109.2 388.7 115.8 401.1C116.6 402.7 119.5 402.6 120.4 401.2C125.4 393.5 129.2 385.1 131.6 376.2C130 376.2 128.3 376.2 126.7 376.1C127.3 383.1 129 389.9 131.6 396.4C132.3 398 135.5 398.8 136.4 396.9C140.2 388.6 143.9 380.2 147.7 371.9C146.1 371.7 144.5 371.5 142.9 371.4C146.3 380.1 149.7 388.7 153 397.4C153.6 399 157 399.9 157.8 397.9C161.9 387.9 165.9 377.8 170 367.8C168.4 367.6 166.8 367.4 165.2 367.3C167.7 374.7 170.1 382.1 172.6 389.4C173.2 391.1 176.6 391.8 177.4 389.9C180.7 381.5 184.1 373.1 187.4 364.7C185.8 364.5 184.2 364.3 182.6 364.2C185.3 371.5 188 378.9 190.6 386.2C191.3 388 194.4 388.4 195.4 386.7C200.3 378.6 204.5 370.1 208 361.2C206.4 361 204.8 360.8 203.2 360.7C205.5 370.7 207.8 380.7 210.1 390.7C210.5 392.5 214.1 393 214.9 391.2C217.4 385.7 219 379.8 219.8 373.8C218.2 373.8 216.5 373.8 214.9 373.7C216 381.8 219.2 389.6 224.1 396.2C225 397.4 227.9 398 228.7 396.3C234.5 382.7 239.7 368.9 244.4 354.9C242.8 354.7 241.2 354.5 239.6 354.4C241.9 363.7 244.1 373 246.4 382.3C246.9 384.5 250.7 384.4 251.3 382.4C254.5 371.3 257.7 360.3 261 349.2C259.4 349.2 257.7 349.2 256.1 349.1C257.9 362.5 259.6 375.8 261.4 389.2C261.7 391.2 265.4 391.3 266.2 389.7C271.8 379.1 276.1 367.9 279.2 356.4C277.6 356.4 275.9 356.4 274.3 356.3C276.1 367.4 277.8 378.6 279.6 389.7C279.9 391.6 283.6 391.9 284.4 390.2C288.5 381.8 292.6 373.4 296.7 365C295.1 364.8 293.5 364.6 291.9 364.5C295.4 373.8 298.9 383 302.4 392.3C303 393.9 306.4 394.8 307.2 392.8C311.6 381.2 316 369.5 320.4 357.9C318.8 357.7 317.2 357.5 315.6 357.4C317.5 364.1 320.1 370.6 323.3 376.8C324.1 378.3 327.1 378.4 327.9 376.9C331.4 369.7 334.9 362.4 338.4 355.2C336.8 355 335.2 354.8 333.6 354.7C336.1 360.5 338.5 366.2 341 372C341.7 373.6 344.9 374.5 345.8 372.5C348.7 366 351.6 359.6 354.6 353.1C353 352.9 351.4 352.7 349.8 352.6C352.1 358.3 354.4 364 356.8 369.7C357.5 371.4 360.6 372.1 361.6 370.2C366 362.1 369.7 353.6 372.6 344.9C371 344.7 369.4 344.5 367.8 344.4C369.5 354.1 372.2 363.6 375.9 372.7C376.5 374.3 379.9 375.2 380.7 373.2C384.1 365.1 387.4 357 390.8 348.8C389.2 348.6 387.6 348.4 386 348.3C387.9 353.2 389.7 358.1 391.6 363C392.2 364.7 395.5 365.4 396.4 363.5C400.1 355.3 403.3 346.9 405.9 338.4C404.3 338.2 402.7 338 401.1 337.9C402.1 343.9 403 350 404 356C404.3 357.9 408 358.2 408.8 356.5C411.4 351 414 345.4 416.7 339.9C415.1 339.7 413.5 339.5 411.9 339.4C413.6 343.3 415.3 347.2 417 351.1C417.7 352.8 420.8 353.5 421.8 351.6C424.8 346.1 427.7 340.6 430.7 335.1C431.9 332.8 427.1 331.6 426 333.6C423 339.1 420.1 344.6 417.1 350.1C418.7 350.3 420.3 350.5 421.9 350.6C420.2 346.7 418.5 342.8 416.8 338.9C416.1 337.3 412.9 336.4 412 338.4C409.4 343.9 406.8 349.5 404.1 355C405.7 355.2 407.3 355.4 408.9 355.5C407.9 349.5 407 343.4 406 337.4C405.7 335.6 401.8 335.1 401.2 336.9C398.6 345.5 395.4 353.9 391.7 362C393.3 362.2 394.9 362.4 396.5 362.5C394.6 357.6 392.8 352.7 390.9 347.8C390.3 346.2 386.9 345.3 386.1 347.3C382.7 355.4 379.4 363.5 376 371.7C377.6 371.9 379.2 372.1 380.8 372.2C377.1 363.1 374.4 353.6 372.7 343.9C372.4 342.1 368.5 341.6 367.9 343.4C365 352.1 361.3 360.6 356.9 368.7C358.5 368.9 360.1 369.1 361.7 369.2C359.4 363.5 357.1 357.8 354.7 352.1C354 350.5 350.8 349.6 349.9 351.6C347 358.1 344.1 364.5 341.1 371C342.7 371.2 344.3 371.4 345.9 371.5C343.4 365.7 341 360 338.5 354.2C337.8 352.6 334.6 351.8 333.7 353.7C330.2 360.9 326.7 368.2 323.2 375.4C324.7 375.4 326.3 375.4 327.8 375.5C324.7 369.6 322.3 363.4 320.5 357C320 355.3 316.4 354.6 315.7 356.5C311.3 368.1 306.9 379.8 302.5 391.4C304.1 391.6 305.7 391.8 307.3 391.9C303.8 382.6 300.3 373.4 296.8 364.1C296.2 362.4 292.9 361.7 292 363.6C287.9 372 283.8 380.4 279.7 388.8C281.3 389 282.9 389.2 284.5 389.3C282.7 378.2 281 367 279.2 355.9C278.8 353.7 274.8 353.8 274.3 355.8C271.3 367 267 377.9 261.6 388.2C263.2 388.4 264.8 388.6 266.4 388.7C264.6 375.3 262.9 362 261.1 348.6C260.8 346.3 256.7 346.6 256.2 348.5C253 359.6 249.8 370.6 246.5 381.7C248.1 381.7 249.8 381.7 251.4 381.8C249.1 372.5 246.9 363.2 244.6 353.9C244.2 352.2 240.4 351.5 239.8 353.4C235.2 367.4 229.9 381.2 224.1 394.8C225.6 394.8 227.2 394.8 228.7 394.9C224 388.5 221 381.2 219.9 373.3C219.6 371.2 215.2 371.1 215 373.2C214.3 378.9 212.8 384.4 210.4 389.7C212 389.9 213.6 390.1 215.2 390.2C212.9 380.2 210.6 370.2 208.3 360.2C207.9 358.4 204.2 357.9 203.5 359.7C200 368.5 195.8 377 190.9 385.2C192.5 385.4 194.1 385.6 195.7 385.7C193 378.4 190.3 371 187.7 363.7C187.1 362.1 183.7 361.2 182.9 363.2C179.6 371.6 176.2 380 172.9 388.4C174.5 388.6 176.1 388.8 177.7 388.9C175.2 381.5 172.8 374.1 170.3 366.8C169.7 365.1 166.3 364.4 165.5 366.3C161.4 376.3 157.4 386.4 153.3 396.4C154.9 396.6 156.5 396.8 158.1 396.9C154.7 388.2 151.3 379.6 148 370.9C147.4 369.3 144.1 368.5 143.2 370.4C139.4 378.7 135.7 387.1 131.9 395.4C133.5 395.6 135.1 395.8 136.7 395.9C134.1 389.4 132.5 382.6 131.8 375.6C131.6 373.3 127.4 373.6 126.9 375.5C124.6 384 120.8 392.1 116 399.6C117.5 399.6 119.1 399.6 120.6 399.7C114.4 387.9 111.3 374.7 111.8 361.4C111.9 358.9 107.5 358.6 106.8 360.9C105.8 364.4 103.9 367.5 101.3 370C102.8 370.3 104.3 370.6 105.8 370.9C103.1 362.8 100.4 354.8 97.6999 346.7C97.0999 345 93.6999 344.3 92.8999 346.2C88.6999 355.5 84.5999 364.8 80.3999 374.1C81.8999 374.1 83.4999 374.1 84.9999 374.2C82.4999 369.7 80.7999 364.9 79.7999 359.9C78.9999 357.6 73.9999 357.8 74.5999 360.3Z" fill="white"/>
</g>
<mask id="mask11_201_749" style="mask-type:luminance" maskUnits="userSpaceOnUse" x="51" y="51" width="398" height="398">
<path d="M250 448.5C359.629 448.5 448.5 359.629 448.5 250C448.5 140.371 359.629 51.5 250 51.5C140.371 51.5 51.5 140.371 51.5 250C51.5 359.629 140.371 448.5 250 448.5Z" fill="white"/>
</mask>
<g mask="url(#mask11_201_749)">
<path d="M104.3 399.6C107.9 410.8 113.4 421.3 120.7 430.5C121.3 431.2 125.1 431 125.6 430.1C131.6 419.4 136.8 408.4 141.4 397.1C139.7 397.2 138.1 397.2 136.4 397.3C138.6 403.4 140.8 409.6 143 415.7C143.3 416.6 147.6 416.3 148 415.5C150.4 410.9 152.8 406.3 155.2 401.8C153.5 401.9 151.9 401.9 150.2 402C152.7 408.2 155.2 414.4 157.7 420.6C158.1 421.5 162.3 421.2 162.7 420.4C167.4 411.9 171.7 403.3 175.5 394.4C173.8 394.5 172.2 394.5 170.5 394.6C174.6 404.3 178.2 414.3 181.3 424.4C181.6 425.3 185.9 425 186.3 424.2C189.7 416.3 193.1 408.4 196.6 400.6C194.9 400.7 193.3 400.7 191.6 400.8C194.6 409 197.5 417.2 200.5 425.5C200.8 426.4 204.9 426.1 205.4 425.4C210.5 418.3 214.3 410.4 216.5 401.9C214.8 402 213.2 402 211.5 402.1C212.5 410.2 214.2 418.2 216.7 426.1C217 427 221.3 426.7 221.7 425.9C224.9 420 228.1 414.1 231.4 408.2C229.7 408.3 228.1 408.3 226.4 408.4C229.2 415.7 232 423.1 234.8 430.4C235.1 431.3 239.5 431 239.8 430.2C244.1 419 247.7 407.5 250.4 395.9C248.7 396 247.1 396 245.4 396.1C247.9 404.5 250.5 412.8 253 421.2C253.3 422 257.5 421.8 257.9 421.1C264.3 410.6 270.1 399.9 275.3 388.8C273.6 388.9 272 388.9 270.3 389C272.9 399.3 276 409.5 279.4 419.6C279.7 420.5 284 420.2 284.4 419.4C288.4 411.3 292.3 403.3 296.3 395.2C294.6 395.3 293 395.3 291.3 395.4C293.7 405 296.9 414.4 300.8 423.5C301.2 424.4 305.4 424.1 305.8 423.3C309.7 414.3 313.2 405.1 316.3 395.7C314.6 395.8 313 395.8 311.3 395.9C313.1 401.8 314.9 407.8 316.8 413.7C317.1 414.6 321.4 414.3 321.8 413.5C327.4 401.4 332.9 389.2 338.5 377.1C336.8 377.2 335.2 377.2 333.5 377.3C335.8 384.8 338.2 392.3 340.5 399.8C340.8 400.7 345.1 400.4 345.5 399.6C348.7 392.9 352 386.3 355.2 379.6C353.5 379.7 351.9 379.7 350.2 379.8C352.8 388.5 355.5 397.2 358.1 405.9C358.4 406.8 362.9 406.5 363.1 405.7C365.4 397.3 367.7 388.9 370 380.6C368.3 380.7 366.7 380.7 365 380.8C367.9 387.8 370.9 394.7 373.8 401.7C374.2 402.6 378.5 402.3 378.8 401.5C381.5 394.5 384.2 387.5 386.9 380.5C385.2 380.6 383.6 380.6 381.9 380.7C383.6 384.2 385.4 387.6 387.1 391.1C387.5 391.9 391.9 391.8 392.1 390.9C394.2 382.9 396.8 375.1 399.9 367.5C398.2 367.6 396.6 367.6 394.9 367.7C397.8 372.8 399.9 378.2 401.1 383.9C401.3 384.9 406.2 384.2 406.1 383.7C404.9 378 402.8 372.6 399.9 367.5C399.4 366.7 395.3 366.8 394.9 367.7C391.8 375.4 389.2 383.2 387.1 391.1C388.8 391 390.4 391 392.1 390.9C390.4 387.4 388.6 384 386.9 380.5C386.5 379.6 382.2 379.8 381.9 380.7C379.2 387.7 376.5 394.7 373.8 401.7C375.5 401.6 377.1 401.6 378.8 401.5C375.9 394.5 372.9 387.6 370 380.6C369.6 379.8 365.2 379.9 365 380.8C362.7 389.2 360.4 397.6 358.1 405.9C359.8 405.8 361.4 405.8 363.1 405.7C360.5 397 357.8 388.3 355.2 379.6C354.9 378.7 350.6 379 350.2 379.8C347 386.5 343.7 393.1 340.5 399.8C342.2 399.7 343.8 399.7 345.5 399.6C343.2 392.1 340.8 384.6 338.5 377.1C338.2 376.2 333.9 376.5 333.5 377.3C327.9 389.4 322.4 401.6 316.8 413.7C318.5 413.6 320.1 413.6 321.8 413.5C320 407.6 318.2 401.6 316.3 395.7C316 394.8 311.6 395.1 311.3 395.9C308.2 405.2 304.7 414.4 300.8 423.5C302.5 423.4 304.1 423.4 305.8 423.3C301.9 414.2 298.7 404.8 296.3 395.2C296.1 394.3 291.7 394.6 291.3 395.4C287.3 403.5 283.4 411.5 279.4 419.6C281.1 419.5 282.7 419.5 284.4 419.4C281 409.3 277.9 399.1 275.3 388.8C275.1 387.9 270.7 388.2 270.3 389C265.1 400 259.4 410.7 253.1 421C254.7 421 256.4 421 258 420.9C255.5 412.5 252.9 404.2 250.4 395.8C250.1 395 245.6 395.2 245.4 396C242.7 407.7 239.2 419.2 234.8 430.3C236.5 430.2 238.1 430.2 239.8 430.1C237 422.8 234.2 415.4 231.4 408.1C231 407.2 226.8 407.5 226.4 408.3C223.2 414.2 220 420.1 216.7 426C218.4 425.9 220 425.9 221.7 425.8C219.3 418 217.5 410 216.5 401.8C216.4 401 211.7 401.2 211.5 402C209.3 410.4 205.6 418.2 200.5 425.2C202.1 425.2 203.8 425.2 205.4 425.1C202.4 416.9 199.5 408.7 196.5 400.4C196.2 399.5 191.9 399.8 191.5 400.6C188.1 408.5 184.7 416.4 181.2 424.2C182.9 424.1 184.5 424.1 186.2 424C183.1 413.9 179.6 403.9 175.4 394.2C175 393.3 170.8 393.6 170.4 394.4C166.5 403.3 162.3 412 157.6 420.4C159.3 420.3 160.9 420.3 162.6 420.2C160.1 414 157.6 407.8 155.1 401.6C154.7 400.7 150.5 401 150.1 401.8C147.7 406.4 145.3 411 142.9 415.5C144.6 415.4 146.2 415.4 147.9 415.3C145.7 409.2 143.5 403 141.3 396.9C141 396 136.6 396.3 136.3 397.1C131.8 408.4 126.5 419.5 120.5 430.1C122.1 430 123.8 429.9 125.4 429.7C118.2 420.5 112.8 410.1 109.2 399C109 398.3 104.2 399.2 104.3 399.6Z" fill="white"/>
</g>
<mask id="mask12_201_749" style="mask-type:luminance" maskUnits="userSpaceOnUse" x="51" y="51" width="398" height="398">
<path d="M250 448.5C359.629 448.5 448.5 359.629 448.5 250C448.5 140.371 359.629 51.5 250 51.5C140.371 51.5 51.5 140.371 51.5 250C51.5 359.629 140.371 448.5 250 448.5Z" fill="white"/>
</mask>
<g mask="url(#mask12_201_749)">
<path d="M174.3 441.5C177.7 437.4 181.1 433.2 184.6 429.1C183.1 429.2 181.6 429.3 180 429.4C182.9 433.5 185.7 437.7 188.6 441.8C190 443.8 191.2 446.1 192.8 447.8C194.3 449.5 197.3 449.3 198.9 447.8C199.7 447.1 200.2 446.1 200.7 445.2C201.4 444.1 202.1 442.9 202.7 441.8C204 439.6 205.3 437.4 206.7 435.2C207.3 434.3 207.8 433.3 208.4 432.4C208.5 432.2 208.7 432 208.8 431.8C208.8 431.8 208.8 431.7 208.9 431.7C209.4 431.2 208.8 431.2 207.1 431.7C207.2 432 207.6 432.4 207.8 432.8C208.8 434.9 209.6 437.3 210.4 439.5C212.5 444.8 214.5 450.2 216.6 455.5C217.3 457.4 220.7 456.7 221.5 455.2C226.9 444.9 232.3 434.7 237.8 424.4C236.2 424.5 234.5 424.6 232.9 424.7C236.4 434.6 240.4 444.3 244.8 453.8C245.2 454.6 246.7 454.6 247.3 454.5C248.1 454.4 249.2 454 249.5 453.2C252.7 445.1 256 437.1 259.8 429.3C258.2 429.4 256.5 429.5 254.9 429.6C256.9 437.1 259 444.6 261 452.1C261.5 453.8 265 453.4 265.7 452.2C269.8 445 273.5 437.6 276.6 430C275 430.1 273.3 430.2 271.7 430.3C274.1 436.6 276.2 443 278.1 449.4C278.7 451.3 282.3 450.5 283 449.1C287.3 440.6 292 432.4 297.3 424.4C295.8 424.5 294.3 424.6 292.7 424.7C295.9 431.1 299 437.5 301.8 444.1C302.4 445.5 305.7 444.8 306.4 443.8C312 435.1 317.5 426.4 323.1 417.7C321.6 417.8 320.1 417.9 318.5 418C321.6 424.3 324.8 430.6 327.9 436.9C328.7 438.5 333.5 437.4 332.6 435.5C329.5 429.2 326.3 422.9 323.2 416.6C322.5 415.3 319.3 415.8 318.6 416.9C313 425.6 307.5 434.3 301.9 443C303.4 442.9 304.9 442.8 306.5 442.7C303.7 436.1 300.6 429.7 297.4 423.3C296.7 421.9 293.5 422.5 292.8 423.6C287.4 431.8 282.5 440.3 278.1 449C279.7 448.9 281.4 448.8 283 448.7C281.1 442.2 279 435.9 276.6 429.6C275.9 427.8 272.3 428.3 271.7 429.9C268.7 437.3 265.2 444.5 261.2 451.4C262.8 451.4 264.3 451.4 265.9 451.5C263.9 444 261.8 436.5 259.8 429C259.3 427 255.6 427.9 254.9 429.3C251.1 437.1 247.8 445.1 244.6 453.2C246.2 453 247.8 452.8 249.4 452.5C245.1 443.2 241.2 433.8 237.8 424.1C237.1 422.2 233.6 423 232.9 424.4C227.5 434.7 222.1 444.9 216.6 455.2C218.2 455.1 219.9 455 221.5 454.9C219.8 450.5 218.1 446.1 216.4 441.6C215.6 439.5 214.7 437.3 213.9 435.2C213.2 433.5 212.7 431.1 211.2 429.9C209.5 428.5 206.7 428.9 205.1 430.2C203.5 431.5 202.6 433.6 201.6 435.3C200.4 437.3 199.2 439.3 198 441.2C197.4 442.2 196.8 443.2 196.2 444.2C195.9 444.8 195.5 445.3 195.2 445.9C195.1 446.1 195 446.3 194.8 446.4C194.3 447 194.9 446.9 196.5 446.1C196.8 446.2 197.1 446.3 197.5 446.5C196.8 446.1 196.4 445.3 196 444.6C195.4 443.8 194.9 443 194.3 442.2C193.2 440.6 192.1 439.1 191.1 437.5C188.9 434.3 186.7 431.1 184.5 427.9C183.6 426.6 180.8 427.1 179.9 428.2C176.5 432.3 173.1 436.5 169.6 440.6C168.9 441.5 169.9 442.2 170.8 442.4C172 442.7 173.5 442.4 174.3 441.5Z" fill="white"/>
</g>
</g>
<defs>
<clipPath id="clip0_201_749">
<rect width="500" height="500" fill="white"/>
</clipPath>
</defs>
</svg>
