<svg width="500" height="500" viewBox="0 0 500 500" fill="none" xmlns="http://www.w3.org/2000/svg">
<mask id="mask0_201_678" style="mask-type:luminance" maskUnits="userSpaceOnUse" x="51" y="51" width="398" height="398">
<path d="M250 448.5C359.629 448.5 448.5 359.629 448.5 250C448.5 140.371 359.629 51.5 250 51.5C140.371 51.5 51.5 140.371 51.5 250C51.5 359.629 140.371 448.5 250 448.5Z" fill="white"/>
</mask>
<g mask="url(#mask0_201_678)">
<path d="M244.2 143.1C244 165 244.1 187 244.5 208.9C244.9 230.9 245.6 253 246.7 275C247.3 287.4 248 299.7 248.8 312.1C248.9 313.3 249.6 314.4 250.6 315C251.2 315.4 252.6 315.7 252.6 314.5C251.2 292.6 250.1 270.7 249.4 248.7C248.6 226.7 248.2 204.7 248 182.6C247.9 170.2 247.9 157.8 248.1 145.4C248.1 144.2 247.2 143.1 246.3 142.5C245.6 142.2 244.3 141.9 244.2 143.1Z" fill="white"/>
</g>
<mask id="mask1_201_678" style="mask-type:luminance" maskUnits="userSpaceOnUse" x="51" y="51" width="398" height="398">
<path d="M250 448.5C359.629 448.5 448.5 359.629 448.5 250C448.5 140.371 359.629 51.5 250 51.5C140.371 51.5 51.5 140.371 51.5 250C51.5 359.629 140.371 448.5 250 448.5Z" fill="white"/>
</mask>
<g mask="url(#mask1_201_678)">
<path d="M164.2 229.4C187.3 230 210.4 230.4 233.6 230.5C256.7 230.6 279.9 230.5 303 230.2C316 230 328.9 229.7 341.9 229.4C343.1 229.4 344.2 228.7 344.1 227.3C344 226.1 342.8 224.9 341.5 224.9C318.4 225.5 295.3 225.9 272.1 226C249 226.1 225.8 226 202.7 225.7C189.7 225.5 176.7 225.2 163.8 224.9C160.6 224.9 161.3 229.3 164.2 229.4Z" fill="white"/>
</g>
<mask id="mask2_201_678" style="mask-type:luminance" maskUnits="userSpaceOnUse" x="51" y="51" width="398" height="398">
<path d="M250 448.5C359.629 448.5 448.5 359.629 448.5 250C448.5 140.371 359.629 51.5 250 51.5C140.371 51.5 51.5 140.371 51.5 250C51.5 359.629 140.371 448.5 250 448.5Z" fill="white"/>
</mask>
<g mask="url(#mask2_201_678)">
<path d="M300.5 171.6C282.9 191.1 265.3 210.6 247.6 230.2C230.1 249.6 212.6 269 195.1 288.4C185.2 299.4 175.3 310.4 165.3 321.4C164.6 322.2 164.6 323.5 165.7 324C166.9 324.5 168.2 323.8 169 322.9C186.6 303.4 204.2 283.9 221.9 264.3C239.4 244.9 256.9 225.5 274.4 206.1C284.3 195.1 294.2 184.1 304.2 173.1C304.9 172.3 304.9 171 303.8 170.5C302.7 170 301.3 170.8 300.5 171.6Z" fill="white"/>
</g>
<mask id="mask3_201_678" style="mask-type:luminance" maskUnits="userSpaceOnUse" x="51" y="51" width="398" height="398">
<path d="M250 448.5C359.629 448.5 448.5 359.629 448.5 250C448.5 140.371 359.629 51.5 250 51.5C140.371 51.5 51.5 140.371 51.5 250C51.5 359.629 140.371 448.5 250 448.5Z" fill="white"/>
</mask>
<g mask="url(#mask3_201_678)">
<path d="M194.6 178C208.6 190.6 222.3 203.6 235.7 217C249.1 230.3 262.1 244 274.7 258C281.8 265.9 288.9 273.9 295.8 282C296.6 282.9 298 282.9 299 282.5C299.7 282.2 301.1 281.1 300.3 280.2C288 265.7 275.2 251.5 262.2 237.7C249.2 223.9 235.8 210.5 222.1 197.4C214.3 190 206.5 182.7 198.5 175.5C197 174.2 192.6 176.2 194.6 178Z" fill="white"/>
</g>
<mask id="mask4_201_678" style="mask-type:luminance" maskUnits="userSpaceOnUse" x="51" y="51" width="398" height="398">
<path d="M250 448.5C359.629 448.5 448.5 359.629 448.5 250C448.5 140.371 359.629 51.5 250 51.5C140.371 51.5 51.5 140.371 51.5 250C51.5 359.629 140.371 448.5 250 448.5Z" fill="white"/>
</mask>
<g mask="url(#mask4_201_678)">
<path d="M271.5 189C282.7 163.4 293.9 137.7 305.1 112.1C308.3 104.9 311.4 97.6 314.6 90.4C315.1 89.2 311.1 86.5 310.9 87.1C299.7 112.7 288.5 138.4 277.3 164C274.1 171.2 271 178.5 267.8 185.7C267.3 186.9 271.3 189.6 271.5 189Z" fill="white"/>
</g>
<mask id="mask5_201_678" style="mask-type:luminance" maskUnits="userSpaceOnUse" x="51" y="51" width="398" height="398">
<path d="M250 448.5C359.629 448.5 448.5 359.629 448.5 250C448.5 140.371 359.629 51.5 250 51.5C140.371 51.5 51.5 140.371 51.5 250C51.5 359.629 140.371 448.5 250 448.5Z" fill="white"/>
</mask>
<g mask="url(#mask5_201_678)">
<path d="M323.5 163.1C339.9 150.1 356.2 136.8 372.3 123.5C376.8 119.7 381.4 116 385.9 112.2C386.6 111.6 382.4 109.5 381.5 110.3C365.4 123.8 349.2 137.1 332.9 150.2C328.3 153.9 323.7 157.6 319.1 161.2C318.3 161.8 322.5 163.9 323.5 163.1Z" fill="white"/>
</g>
<mask id="mask6_201_678" style="mask-type:luminance" maskUnits="userSpaceOnUse" x="51" y="51" width="398" height="398">
<path d="M250 448.5C359.629 448.5 448.5 359.629 448.5 250C448.5 140.371 359.629 51.5 250 51.5C140.371 51.5 51.5 140.371 51.5 250C51.5 359.629 140.371 448.5 250 448.5Z" fill="white"/>
</mask>
<g mask="url(#mask6_201_678)">
<path d="M249.4 229.8C274.9 223.1 300.1 215 324.6 205.3C331.6 202.6 338.5 199.7 345.3 196.7C347.9 195.6 344.6 192 342.5 192.9C318.3 203.4 293.4 212.4 268.1 219.9C260.9 222 253.7 224 246.5 225.9C245.3 226.2 245.4 227.8 246 228.5C246.8 229.7 248.1 230.1 249.4 229.8Z" fill="white"/>
</g>
<mask id="mask7_201_678" style="mask-type:luminance" maskUnits="userSpaceOnUse" x="51" y="51" width="398" height="398">
<path d="M250 448.5C359.629 448.5 448.5 359.629 448.5 250C448.5 140.371 359.629 51.5 250 51.5C140.371 51.5 51.5 140.371 51.5 250C51.5 359.629 140.371 448.5 250 448.5Z" fill="white"/>
</mask>
<g mask="url(#mask7_201_678)">
<path d="M361.1 216.3C382.1 213.1 403 209.8 424 206.6C429.9 205.7 435.8 204.8 441.7 203.9C441.9 203.9 440.7 201.8 440.6 201.6C440.4 201.3 439.5 199.6 439 199.6C418 202.8 397.1 206.1 376.1 209.3C370.2 210.2 364.3 211.1 358.4 212C358.2 212 359.4 214.1 359.5 214.3C359.7 214.6 360.6 216.3 361.1 216.3Z" fill="white"/>
</g>
<mask id="mask8_201_678" style="mask-type:luminance" maskUnits="userSpaceOnUse" x="51" y="51" width="398" height="398">
<path d="M250 448.5C359.629 448.5 448.5 359.629 448.5 250C448.5 140.371 359.629 51.5 250 51.5C140.371 51.5 51.5 140.371 51.5 250C51.5 359.629 140.371 448.5 250 448.5Z" fill="white"/>
</mask>
<g mask="url(#mask8_201_678)">
<path d="M380.4 189.3C387.3 185.7 395.4 184.6 403 183C411.3 181.2 419.5 179.4 427.8 177.6C432.5 176.6 437.2 175.5 441.9 174.5C444.8 173.9 443.3 169.1 440.5 169.7C423.8 173.3 407.1 176.8 390.5 180.6C386.2 181.6 381.8 182.9 377.9 184.9C375.3 186.3 377.8 190.6 380.4 189.3Z" fill="white"/>
</g>
<mask id="mask9_201_678" style="mask-type:luminance" maskUnits="userSpaceOnUse" x="51" y="51" width="398" height="398">
<path d="M250 448.5C359.629 448.5 448.5 359.629 448.5 250C448.5 140.371 359.629 51.5 250 51.5C140.371 51.5 51.5 140.371 51.5 250C51.5 359.629 140.371 448.5 250 448.5Z" fill="white"/>
</mask>
<g mask="url(#mask9_201_678)">
<path d="M370.1 165.8C388.7 153.6 407.4 141.7 426.3 130C431.7 126.7 437 123.4 442.4 120.1C443.6 119.4 439.7 116.6 438.4 117.3C419.4 128.8 400.6 140.6 382 152.7C376.7 156.1 371.4 159.6 366.1 163C365 163.8 368.9 166.6 370.1 165.8Z" fill="white"/>
</g>
<mask id="mask10_201_678" style="mask-type:luminance" maskUnits="userSpaceOnUse" x="51" y="51" width="398" height="398">
<path d="M250 448.5C359.629 448.5 448.5 359.629 448.5 250C448.5 140.371 359.629 51.5 250 51.5C140.371 51.5 51.5 140.371 51.5 250C51.5 359.629 140.371 448.5 250 448.5Z" fill="white"/>
</mask>
<g mask="url(#mask10_201_678)">
<path d="M297.5 245.8C319.2 253.9 340.9 261.9 362.6 270C384.3 278.1 406 286.1 427.7 294.2C439.9 298.7 452 303.3 464.2 307.8C465.3 308.2 466.6 307.9 467.6 307.5C468.1 307.3 469.3 306.4 468.2 306.1C446.5 298 424.8 290 403.1 281.9C381.4 273.8 359.7 265.8 338 257.7C325.8 253.2 313.7 248.6 301.5 244.1C300.4 243.7 299.1 244 298.1 244.4C297.7 244.6 296.5 245.4 297.5 245.8Z" fill="white"/>
</g>
<mask id="mask11_201_678" style="mask-type:luminance" maskUnits="userSpaceOnUse" x="51" y="51" width="398" height="398">
<path d="M250 448.5C359.629 448.5 448.5 359.629 448.5 250C448.5 140.371 359.629 51.5 250 51.5C140.371 51.5 51.5 140.371 51.5 250C51.5 359.629 140.371 448.5 250 448.5Z" fill="white"/>
</mask>
<g mask="url(#mask11_201_678)">
<path d="M370 241.8C388.5 246.6 406.9 251.7 425.3 256.9C426.4 257.2 428 257 428.5 255.8C429 254.7 428.1 253.5 427 253.2C408.6 248 390.2 242.9 371.7 238.1C370.6 237.8 369 238 368.5 239.2C368 240.3 368.9 241.5 370 241.8Z" fill="white"/>
</g>
<mask id="mask12_201_678" style="mask-type:luminance" maskUnits="userSpaceOnUse" x="51" y="51" width="398" height="398">
<path d="M250 448.5C359.629 448.5 448.5 359.629 448.5 250C448.5 140.371 359.629 51.5 250 51.5C140.371 51.5 51.5 140.371 51.5 250C51.5 359.629 140.371 448.5 250 448.5Z" fill="white"/>
</mask>
<g mask="url(#mask12_201_678)">
<path d="M336 290.9C342.7 294.7 348.7 299.3 354 304.8C354.8 305.6 355.8 306.4 356.8 307C357.5 307.4 357.7 307.3 357.1 306.6C350.2 299.5 342.2 293.3 333.5 288.4C333.5 288.4 332.9 288 332.8 288.1C332.7 288.2 333.2 288.7 333.2 288.7C334 289.6 335 290.4 336 290.9Z" fill="white"/>
</g>
<mask id="mask13_201_678" style="mask-type:luminance" maskUnits="userSpaceOnUse" x="51" y="51" width="398" height="398">
<path d="M250 448.5C359.629 448.5 448.5 359.629 448.5 250C448.5 140.371 359.629 51.5 250 51.5C140.371 51.5 51.5 140.371 51.5 250C51.5 359.629 140.371 448.5 250 448.5Z" fill="white"/>
</mask>
<g mask="url(#mask13_201_678)">
<path d="M270.6 272.6C283.5 287.7 296 303.1 308.2 318.9C320.3 334.6 332.1 350.7 343.5 367C349.9 376.1 356.1 385.4 362.2 394.7C362.8 395.7 363.9 396.6 365.1 396.8C366 396.9 366.7 396.3 366.1 395.4C355.2 378.7 343.8 362.2 332.1 346.1C320.3 329.9 308.1 314 295.5 298.4C288.4 289.7 281.3 281 274 272.5C273.3 271.7 272.1 270.7 271 270.9C269.7 270.9 270.1 272 270.6 272.6Z" fill="white"/>
</g>
<mask id="mask14_201_678" style="mask-type:luminance" maskUnits="userSpaceOnUse" x="51" y="51" width="398" height="398">
<path d="M250 448.5C359.629 448.5 448.5 359.629 448.5 250C448.5 140.371 359.629 51.5 250 51.5C140.371 51.5 51.5 140.371 51.5 250C51.5 359.629 140.371 448.5 250 448.5Z" fill="white"/>
</mask>
<g mask="url(#mask14_201_678)">
<path d="M332.6 318.5C344.5 331.6 356.9 344.3 369.8 356.4C370.6 357.1 372.2 357.6 373.2 357.1C374.3 356.5 373.8 355.4 373.1 354.8C360.5 342.9 348.3 330.5 336.7 317.7C335.9 316.8 334.6 316.2 333.4 316.4C332.4 316.6 331.8 317.6 332.6 318.5Z" fill="white"/>
</g>
<mask id="mask15_201_678" style="mask-type:luminance" maskUnits="userSpaceOnUse" x="51" y="51" width="398" height="398">
<path d="M250 448.5C359.629 448.5 448.5 359.629 448.5 250C448.5 140.371 359.629 51.5 250 51.5C140.371 51.5 51.5 140.371 51.5 250C51.5 359.629 140.371 448.5 250 448.5Z" fill="white"/>
</mask>
<g mask="url(#mask15_201_678)">
<path d="M376.2 314.6C396.2 330.4 416.6 345.8 437.2 360.8C443 365 448.8 369.2 454.6 373.3C455.5 374 457.1 374 457.8 372.9C458.5 371.8 457.8 370.5 456.8 369.8C436 355.1 415.5 339.9 395.3 324.3C389.6 319.9 384 315.5 378.4 311.1C377.5 310.4 375.8 310.4 375.2 311.5C374.5 312.6 375.3 313.9 376.2 314.6Z" fill="white"/>
</g>
<mask id="mask16_201_678" style="mask-type:luminance" maskUnits="userSpaceOnUse" x="51" y="51" width="398" height="398">
<path d="M250 448.5C359.629 448.5 448.5 359.629 448.5 250C448.5 140.371 359.629 51.5 250 51.5C140.371 51.5 51.5 140.371 51.5 250C51.5 359.629 140.371 448.5 250 448.5Z" fill="white"/>
</mask>
<g mask="url(#mask16_201_678)">
<path d="M245.2 229.7C251.1 243.8 255.4 258.5 259.4 273.3C263.3 288.1 266.9 303.1 271.4 317.8C274 326.1 276.8 334.4 280.2 342.4C281.1 344.7 286 344 284.8 341.3C278.9 327.2 274.6 312.5 270.6 297.7C266.7 282.9 263.1 267.9 258.6 253.2C256 244.9 253.2 236.6 249.8 228.6C248.9 226.3 244.1 226.9 245.2 229.7Z" fill="white"/>
</g>
<mask id="mask17_201_678" style="mask-type:luminance" maskUnits="userSpaceOnUse" x="51" y="51" width="398" height="398">
<path d="M250 448.5C359.629 448.5 448.5 359.629 448.5 250C448.5 140.371 359.629 51.5 250 51.5C140.371 51.5 51.5 140.371 51.5 250C51.5 359.629 140.371 448.5 250 448.5Z" fill="white"/>
</mask>
<g mask="url(#mask17_201_678)">
<path d="M289.4 370.3C298.8 396.8 308.1 423.2 317.5 449.7C320.1 457.2 322.8 464.6 325.4 472.1C325.8 473.3 326.9 473.9 328.1 473.9C328.9 473.9 330.7 473.4 330.3 472.3C320.9 445.8 311.6 419.4 302.2 392.9C299.6 385.4 296.9 378 294.3 370.5C293.9 369.3 292.8 368.7 291.6 368.7C290.8 368.7 288.9 369.2 289.4 370.3Z" fill="white"/>
</g>
<mask id="mask18_201_678" style="mask-type:luminance" maskUnits="userSpaceOnUse" x="51" y="51" width="398" height="398">
<path d="M250 448.5C359.629 448.5 448.5 359.629 448.5 250C448.5 140.371 359.629 51.5 250 51.5C140.371 51.5 51.5 140.371 51.5 250C51.5 359.629 140.371 448.5 250 448.5Z" fill="white"/>
</mask>
<g mask="url(#mask18_201_678)">
<path d="M303.6 350.8C316.8 378.5 329.9 406.2 343.1 433.9C346.8 441.7 350.5 449.6 354.2 457.4C354.7 458.5 356 459.1 357.2 459.1C358.1 459.1 359.3 458.4 358.8 457.3C345.6 429.6 332.5 401.9 319.3 374.2C315.6 366.4 311.9 358.5 308.2 350.7C307.7 349.6 306.4 349 305.2 349C304.3 349.1 303.1 349.8 303.6 350.8Z" fill="white"/>
</g>
<mask id="mask19_201_678" style="mask-type:luminance" maskUnits="userSpaceOnUse" x="51" y="51" width="398" height="398">
<path d="M250 448.5C359.629 448.5 448.5 359.629 448.5 250C448.5 140.371 359.629 51.5 250 51.5C140.371 51.5 51.5 140.371 51.5 250C51.5 359.629 140.371 448.5 250 448.5Z" fill="white"/>
</mask>
<g mask="url(#mask19_201_678)">
<path d="M248.5 226.3C242.9 239.2 239 252.7 236.9 266.6C236.7 267.7 237.7 269 238.5 269.7C239.1 270.2 240.2 270.6 240.4 269.5C242.5 255.9 246.3 242.6 251.8 229.9C252.5 228.3 249.2 224.7 248.5 226.3Z" fill="white"/>
</g>
<mask id="mask20_201_678" style="mask-type:luminance" maskUnits="userSpaceOnUse" x="51" y="51" width="398" height="398">
<path d="M250 448.5C359.629 448.5 448.5 359.629 448.5 250C448.5 140.371 359.629 51.5 250 51.5C140.371 51.5 51.5 140.371 51.5 250C51.5 359.629 140.371 448.5 250 448.5Z" fill="white"/>
</mask>
<g mask="url(#mask20_201_678)">
<path d="M226.1 297C215.5 322.3 206.2 348.2 198.1 374.4C195.8 381.8 193.6 389.3 191.5 396.8C190.9 399 195.8 399.7 196.5 397.5C203.8 371.3 212.4 345.4 222.2 320C225 312.8 227.8 305.7 230.8 298.6C231.7 296.2 226.9 295 226.1 297Z" fill="white"/>
</g>
<mask id="mask21_201_678" style="mask-type:luminance" maskUnits="userSpaceOnUse" x="51" y="51" width="398" height="398">
<path d="M250 448.5C359.629 448.5 448.5 359.629 448.5 250C448.5 140.371 359.629 51.5 250 51.5C140.371 51.5 51.5 140.371 51.5 250C51.5 359.629 140.371 448.5 250 448.5Z" fill="white"/>
</mask>
<g mask="url(#mask21_201_678)">
<path d="M249.5 324.7C249.2 342.7 248.9 360.7 248.6 378.7C248.6 381.4 253.1 382.7 253.1 379.6C253.4 361.6 253.7 343.6 254 325.6C254.1 322.8 249.6 321.5 249.5 324.7Z" fill="white"/>
</g>
<mask id="mask22_201_678" style="mask-type:luminance" maskUnits="userSpaceOnUse" x="51" y="51" width="398" height="398">
<path d="M250 448.5C359.629 448.5 448.5 359.629 448.5 250C448.5 140.371 359.629 51.5 250 51.5C140.371 51.5 51.5 140.371 51.5 250C51.5 359.629 140.371 448.5 250 448.5Z" fill="white"/>
</mask>
<g mask="url(#mask22_201_678)">
<path d="M246.5 409.5C246.5 433.1 246.5 456.7 246.5 480.3C246.5 487 246.5 493.6 246.5 500.3C246.5 501.5 247.7 502.6 248.6 503C249.5 503.4 250.6 503.3 250.6 502.1C250.6 478.5 250.6 454.9 250.6 431.3C250.6 424.6 250.6 418 250.6 411.3C250.6 410.1 249.4 409 248.5 408.6C247.7 408.2 246.5 408.3 246.5 409.5Z" fill="white"/>
</g>
<mask id="mask23_201_678" style="mask-type:luminance" maskUnits="userSpaceOnUse" x="51" y="51" width="398" height="398">
<path d="M250 448.5C359.629 448.5 448.5 359.629 448.5 250C448.5 140.371 359.629 51.5 250 51.5C140.371 51.5 51.5 140.371 51.5 250C51.5 359.629 140.371 448.5 250 448.5Z" fill="white"/>
</mask>
<g mask="url(#mask23_201_678)">
<path d="M229 349.4C226.8 366.6 224.6 383.8 222.4 400.9C220.2 418.1 218 435.3 215.8 452.4C214.5 462.1 213.3 471.9 212 481.6C211.8 483 215.7 485.7 215.9 484.5C218.1 467.3 220.3 450.1 222.5 433C224.7 415.8 226.9 398.6 229.1 381.5C230.4 371.8 231.6 362 232.9 352.3C233.1 350.9 229.2 348.2 229 349.4Z" fill="white"/>
</g>
<mask id="mask24_201_678" style="mask-type:luminance" maskUnits="userSpaceOnUse" x="51" y="51" width="398" height="398">
<path d="M250 448.5C359.629 448.5 448.5 359.629 448.5 250C448.5 140.371 359.629 51.5 250 51.5C140.371 51.5 51.5 140.371 51.5 250C51.5 359.629 140.371 448.5 250 448.5Z" fill="white"/>
</mask>
<g mask="url(#mask24_201_678)">
<path d="M175.1 364C157.5 386.5 140.8 409.7 124.9 433.4C120.5 440 116.1 446.7 111.8 453.4C111.3 454.3 112.6 453.7 112.9 453.5C113.8 453.1 115.1 452.4 115.7 451.5C131.1 427.4 147.3 403.9 164.5 381C169.3 374.6 174.1 368.3 179 362C179.6 361.2 178.1 361.8 177.9 361.9C176.9 362.5 175.8 363.1 175.1 364Z" fill="white"/>
</g>
<mask id="mask25_201_678" style="mask-type:luminance" maskUnits="userSpaceOnUse" x="51" y="51" width="398" height="398">
<path d="M250 448.5C359.629 448.5 448.5 359.629 448.5 250C448.5 140.371 359.629 51.5 250 51.5C140.371 51.5 51.5 140.371 51.5 250C51.5 359.629 140.371 448.5 250 448.5Z" fill="white"/>
</mask>
<g mask="url(#mask25_201_678)">
<path d="M216.9 280.2C201.8 297.5 186.6 314.7 171.3 331.8C155.9 348.9 140.3 365.9 124.6 382.7C115.8 392.2 106.9 401.6 98.0002 411C95.9002 413.2 99.7002 416.4 101.7 414.4C117.5 397.8 133.2 381 148.7 364.1C164.3 347.1 179.7 330 195 312.8C203.6 303.1 212.1 293.4 220.6 283.6C222.5 281.3 218.8 278 216.9 280.2Z" fill="white"/>
</g>
<mask id="mask26_201_678" style="mask-type:luminance" maskUnits="userSpaceOnUse" x="51" y="51" width="398" height="398">
<path d="M250 448.5C359.629 448.5 448.5 359.629 448.5 250C448.5 140.371 359.629 51.5 250 51.5C140.371 51.5 51.5 140.371 51.5 250C51.5 359.629 140.371 448.5 250 448.5Z" fill="white"/>
</mask>
<g mask="url(#mask26_201_678)">
<path d="M199.5 263.6C189.2 270.8 179.7 279.2 171.3 288.6C171.2 288.7 175.1 291.8 175.6 291.2C184 281.8 193.5 273.5 203.8 266.2C204 266.1 202 264.7 201.8 264.6C201.5 264.4 200 263.3 199.5 263.6Z" fill="white"/>
</g>
<mask id="mask27_201_678" style="mask-type:luminance" maskUnits="userSpaceOnUse" x="51" y="51" width="398" height="398">
<path d="M250 448.5C359.629 448.5 448.5 359.629 448.5 250C448.5 140.371 359.629 51.5 250 51.5C140.371 51.5 51.5 140.371 51.5 250C51.5 359.629 140.371 448.5 250 448.5Z" fill="white"/>
</mask>
<g mask="url(#mask27_201_678)">
<path d="M221.4 251.1C231.2 246.5 240.2 240.5 248.2 233.2C248.8 232.6 245.4 229 244.7 229.7C236.7 237 227.7 243 217.9 247.6C217.5 247.7 220.3 251.6 221.4 251.1Z" fill="white"/>
</g>
<mask id="mask28_201_678" style="mask-type:luminance" maskUnits="userSpaceOnUse" x="51" y="51" width="398" height="398">
<path d="M250 448.5C359.629 448.5 448.5 359.629 448.5 250C448.5 140.371 359.629 51.5 250 51.5C140.371 51.5 51.5 140.371 51.5 250C51.5 359.629 140.371 448.5 250 448.5Z" fill="white"/>
</mask>
<g mask="url(#mask28_201_678)">
<path d="M244.1 229.1C217.4 237.9 190.2 245.3 162.6 251.1C154.9 252.7 147.2 254.3 139.4 255.7C138.3 255.9 139.6 256.7 140 256.9C140.9 257.4 142.3 257.8 143.4 257.6C171.1 252.5 198.5 246 225.5 238C233.1 235.8 240.6 233.4 248.1 230.9C249.1 230.6 248 229.9 247.5 229.7C246.7 229.4 245.1 228.8 244.1 229.1Z" fill="white"/>
</g>
<mask id="mask29_201_678" style="mask-type:luminance" maskUnits="userSpaceOnUse" x="51" y="51" width="398" height="398">
<path d="M250 448.5C359.629 448.5 448.5 359.629 448.5 250C448.5 140.371 359.629 51.5 250 51.5C140.371 51.5 51.5 140.371 51.5 250C51.5 359.629 140.371 448.5 250 448.5Z" fill="white"/>
</mask>
<g mask="url(#mask29_201_678)">
<path d="M121.3 260.8C90.8 263.7 60.2 265.9 29.5 267.4C20.9 267.8 12.3 268.2 3.59997 268.5C2.39997 268.5 1.09997 269.2 0.599969 270.4C0.199969 271.4 0.699969 272.4 1.89997 272.4C32.7 271.3 63.6 269.5 94.3 267C103.1 266.3 111.9 265.5 120.6 264.6C121.7 264.5 123 263.4 123.2 262.3C123.5 261 122.3 260.7 121.3 260.8Z" fill="white"/>
</g>
<mask id="mask30_201_678" style="mask-type:luminance" maskUnits="userSpaceOnUse" x="51" y="51" width="398" height="398">
<path d="M250 448.5C359.629 448.5 448.5 359.629 448.5 250C448.5 140.371 359.629 51.5 250 51.5C140.371 51.5 51.5 140.371 51.5 250C51.5 359.629 140.371 448.5 250 448.5Z" fill="white"/>
</mask>
<g mask="url(#mask30_201_678)">
<path d="M169.9 264.9C156.9 270.7 144 276.8 131.3 283.3C130.4 283.8 129.6 285 130.3 286C131.1 287 132.6 286.8 133.6 286.3C146.3 279.9 159.2 273.7 172.2 267.9C173.2 267.5 173.9 266.1 173.2 265.2C172.5 264.2 171 264.5 169.9 264.9Z" fill="white"/>
</g>
<mask id="mask31_201_678" style="mask-type:luminance" maskUnits="userSpaceOnUse" x="51" y="51" width="398" height="398">
<path d="M250 448.5C359.629 448.5 448.5 359.629 448.5 250C448.5 140.371 359.629 51.5 250 51.5C140.371 51.5 51.5 140.371 51.5 250C51.5 359.629 140.371 448.5 250 448.5Z" fill="white"/>
</mask>
<g mask="url(#mask31_201_678)">
<path d="M107.9 293.7C79.4001 305.5 50.6001 316.5 21.4001 326.6C13.3001 329.4 5.1001 332.1 -3.0999 334.8C-3.7999 335 -5.2999 335.9 -4.9999 336.9C-4.6999 337.9 -2.8999 337.4 -2.1999 337.2C27.1001 327.6 56.2001 317.2 84.8001 305.8C92.8001 302.6 100.8 299.4 108.7 296.1C109.4 295.8 110.9 295 110.6 294C110.3 293.1 108.5 293.5 107.9 293.7Z" fill="white"/>
</g>
<mask id="mask32_201_678" style="mask-type:luminance" maskUnits="userSpaceOnUse" x="51" y="51" width="398" height="398">
<path d="M250 448.5C359.629 448.5 448.5 359.629 448.5 250C448.5 140.371 359.629 51.5 250 51.5C140.371 51.5 51.5 140.371 51.5 250C51.5 359.629 140.371 448.5 250 448.5Z" fill="white"/>
</mask>
<g mask="url(#mask32_201_678)">
<path d="M134.8 310.7C113.3 323 92.1002 335.7 71.2002 348.8C65.3002 352.5 59.4002 356.3 53.5002 360.1C52.7002 360.6 52.3002 361.8 53.3002 362.3C54.3002 362.9 55.8002 362.3 56.7002 361.8C77.2002 348.6 98.0002 335.8 119 323.4C125 319.9 130.9 316.5 136.9 313C137.7 312.6 138.7 311.6 138 310.7C137.4 309.9 135.6 310.2 134.8 310.7Z" fill="white"/>
</g>
<mask id="mask33_201_678" style="mask-type:luminance" maskUnits="userSpaceOnUse" x="51" y="51" width="398" height="398">
<path d="M250 448.5C359.629 448.5 448.5 359.629 448.5 250C448.5 140.371 359.629 51.5 250 51.5C140.371 51.5 51.5 140.371 51.5 250C51.5 359.629 140.371 448.5 250 448.5Z" fill="white"/>
</mask>
<g mask="url(#mask33_201_678)">
<path d="M287.5 255.2C293 257.6 298.4 260 303.9 262.3C305 262.8 306.3 261.8 306.4 260.7C306.6 259.3 305.7 258.2 304.5 257.7C299 255.3 293.6 252.9 288.1 250.6C287 250.1 285.7 251.1 285.6 252.2C285.4 253.6 286.3 254.7 287.5 255.2Z" fill="white"/>
</g>
<mask id="mask34_201_678" style="mask-type:luminance" maskUnits="userSpaceOnUse" x="51" y="51" width="398" height="398">
<path d="M250 448.5C359.629 448.5 448.5 359.629 448.5 250C448.5 140.371 359.629 51.5 250 51.5C140.371 51.5 51.5 140.371 51.5 250C51.5 359.629 140.371 448.5 250 448.5Z" fill="white"/>
</mask>
<g mask="url(#mask34_201_678)">
<path d="M252.6 230.8C262 235 271.3 239.3 280.7 243.5C281.8 244 283.3 243.9 284.2 243C285 242.2 284.9 240.9 283.8 240.5C274.4 236.3 265.1 232 255.7 227.8C254.6 227.3 253.1 227.4 252.2 228.3C251.5 229 251.6 230.3 252.6 230.8Z" fill="white"/>
</g>
<mask id="mask35_201_678" style="mask-type:luminance" maskUnits="userSpaceOnUse" x="51" y="51" width="398" height="398">
<path d="M250 448.5C359.629 448.5 448.5 359.629 448.5 250C448.5 140.371 359.629 51.5 250 51.5C140.371 51.5 51.5 140.371 51.5 250C51.5 359.629 140.371 448.5 250 448.5Z" fill="white"/>
</mask>
<g mask="url(#mask35_201_678)">
<path d="M251.2 227.6C254.3 218.8 258.3 210.3 263.2 202.3C264.4 200.3 259.9 198.2 258.6 200.2C253.7 208.2 249.7 216.6 246.6 225.5C245.8 227.8 250.4 229.8 251.2 227.6Z" fill="white"/>
</g>
<mask id="mask36_201_678" style="mask-type:luminance" maskUnits="userSpaceOnUse" x="51" y="51" width="398" height="398">
<path d="M250 448.5C359.629 448.5 448.5 359.629 448.5 250C448.5 140.371 359.629 51.5 250 51.5C140.371 51.5 51.5 140.371 51.5 250C51.5 359.629 140.371 448.5 250 448.5Z" fill="white"/>
</mask>
<g mask="url(#mask36_201_678)">
<path d="M246.6 226C238.4 205.3 228.7 185.3 217.6 166.1C214.5 160.7 211.2 155.3 207.8 150.1C207.4 149.4 206.3 147.9 205.4 148.1C204.4 148.3 205.2 149.8 205.5 150.2C217.3 168.7 227.7 188 236.5 208C239 213.6 241.4 219.4 243.7 225.1C244.1 226 245.1 227.4 246.1 227.6C247.2 227.7 246.9 226.6 246.6 226Z" fill="white"/>
</g>
<mask id="mask37_201_678" style="mask-type:luminance" maskUnits="userSpaceOnUse" x="51" y="51" width="398" height="398">
<path d="M250 448.5C359.629 448.5 448.5 359.629 448.5 250C448.5 140.371 359.629 51.5 250 51.5C140.371 51.5 51.5 140.371 51.5 250C51.5 359.629 140.371 448.5 250 448.5Z" fill="white"/>
</mask>
<g mask="url(#mask37_201_678)">
<path d="M201.7 135.2C193.4 120.2 185.2 105.2 176.9 90.1999C168.6 75.1999 160.4 60.1999 152.1 45.1999C147.4 36.7999 142.8 28.2999 138.1 19.8999C137.6 18.8999 133 20.9999 133.4 21.5999C141.7 36.5999 149.9 51.5999 158.2 66.5999C166.5 81.5999 174.7 96.5999 183 111.6C187.7 120 192.3 128.5 197 136.9C197.5 137.8 202 135.8 201.7 135.2Z" fill="white"/>
</g>
<mask id="mask38_201_678" style="mask-type:luminance" maskUnits="userSpaceOnUse" x="51" y="51" width="398" height="398">
<path d="M250 448.5C359.629 448.5 448.5 359.629 448.5 250C448.5 140.371 359.629 51.5 250 51.5C140.371 51.5 51.5 140.371 51.5 250C51.5 359.629 140.371 448.5 250 448.5Z" fill="white"/>
</mask>
<g mask="url(#mask38_201_678)">
<path d="M249.9 109.1C251.4 89.1001 253.2 69.1001 255.4 49.2001C256 43.6001 256.6 38.0001 257.3 32.4001C257.4 31.3001 255.6 31.5001 255 31.7001C254 32.0001 252.8 32.8001 252.7 33.9001C250.4 53.8001 248.3 73.8001 246.7 93.7001C246.2 99.3001 245.8 104.9 245.4 110.5C245.1 112.6 249.8 110.9 249.9 109.1Z" fill="white"/>
</g>
<mask id="mask39_201_678" style="mask-type:luminance" maskUnits="userSpaceOnUse" x="51" y="51" width="398" height="398">
<path d="M250 448.5C359.629 448.5 448.5 359.629 448.5 250C448.5 140.371 359.629 51.5 250 51.5C140.371 51.5 51.5 140.371 51.5 250C51.5 359.629 140.371 448.5 250 448.5Z" fill="white"/>
</mask>
<g mask="url(#mask39_201_678)">
<path d="M261.9 166.6C265.5 152.2 268.2 137.6 270.2 122.9C270.3 122.2 268.6 123.1 268.4 123.2C267.9 123.5 266 124.3 265.9 125C264 139.7 261.2 154.3 257.6 168.7C257.4 169.4 259.3 168.5 259.4 168.4C260 168.1 261.7 167.4 261.9 166.6Z" fill="white"/>
</g>
<mask id="mask40_201_678" style="mask-type:luminance" maskUnits="userSpaceOnUse" x="51" y="51" width="398" height="398">
<path d="M250 448.5C359.629 448.5 448.5 359.629 448.5 250C448.5 140.371 359.629 51.5 250 51.5C140.371 51.5 51.5 140.371 51.5 250C51.5 359.629 140.371 448.5 250 448.5Z" fill="white"/>
</mask>
<g mask="url(#mask40_201_678)">
<path d="M277.2 99.9999C282.6 82.9999 287.6 65.7999 291.9 48.4999C293.1 43.5999 294.3 38.6999 295.4 33.7999C296 31.2999 291.3 29.7999 290.6 32.5999C286.6 49.6999 282.1 66.5999 277.1 83.3999C275.7 88.1999 274.2 92.9999 272.7 97.7999C272.3 98.9999 272.9 100.1 274 100.7C275 101.1 276.8 101.2 277.2 99.9999Z" fill="white"/>
</g>
<mask id="mask41_201_678" style="mask-type:luminance" maskUnits="userSpaceOnUse" x="51" y="51" width="398" height="398">
<path d="M250 448.5C359.629 448.5 448.5 359.629 448.5 250C448.5 140.371 359.629 51.5 250 51.5C140.371 51.5 51.5 140.371 51.5 250C51.5 359.629 140.371 448.5 250 448.5Z" fill="white"/>
</mask>
<g mask="url(#mask41_201_678)">
<path d="M315.7 137.1C321 130.3 326.2 123.6 331.5 116.8C332 116.1 327.9 113.3 327.2 114.2C321.9 121 316.7 127.7 311.4 134.5C310.9 135.2 315 138 315.7 137.1Z" fill="white"/>
</g>
<mask id="mask42_201_678" style="mask-type:luminance" maskUnits="userSpaceOnUse" x="51" y="51" width="398" height="398">
<path d="M250 448.5C359.629 448.5 448.5 359.629 448.5 250C448.5 140.371 359.629 51.5 250 51.5C140.371 51.5 51.5 140.371 51.5 250C51.5 359.629 140.371 448.5 250 448.5Z" fill="white"/>
</mask>
<g mask="url(#mask42_201_678)">
<path d="M341.6 105.3C356.2 91.2 369.8 76 382.4 60C385.9 55.5 389.4 51 392.7 46.4C393.4 45.5 391.8 45.6 391.3 45.7C390.2 46 389.1 46.6 388.4 47.6C376.6 63.8 363.7 79.2 349.8 93.7C345.9 97.8 341.8 101.9 337.8 105.9C337.1 106.6 337.5 107.1 338.4 107.1C339.6 106.9 340.8 106.1 341.6 105.3Z" fill="white"/>
</g>
<mask id="mask43_201_678" style="mask-type:luminance" maskUnits="userSpaceOnUse" x="51" y="51" width="398" height="398">
<path d="M250 448.5C359.629 448.5 448.5 359.629 448.5 250C448.5 140.371 359.629 51.5 250 51.5C140.371 51.5 51.5 140.371 51.5 250C51.5 359.629 140.371 448.5 250 448.5Z" fill="white"/>
</mask>
<g mask="url(#mask43_201_678)">
<path d="M398.8 228.2C421.8 230.4 444.9 232.5 467.9 234.7C474.4 235.3 480.8 235.9 487.3 236.5C488.4 236.6 489.8 235.8 489.8 234.6C489.8 233.3 488.3 232.8 487.3 232.7C464.3 230.5 441.2 228.4 418.2 226.2C411.7 225.6 405.3 225 398.8 224.4C397.7 224.3 396.3 225.1 396.3 226.3C396.3 227.6 397.7 228.1 398.8 228.2Z" fill="white"/>
</g>
<mask id="mask44_201_678" style="mask-type:luminance" maskUnits="userSpaceOnUse" x="51" y="51" width="398" height="398">
<path d="M250 448.5C359.629 448.5 448.5 359.629 448.5 250C448.5 140.371 359.629 51.5 250 51.5C140.371 51.5 51.5 140.371 51.5 250C51.5 359.629 140.371 448.5 250 448.5Z" fill="white"/>
</mask>
<g mask="url(#mask44_201_678)">
<path d="M226.5 128C226.7 103.9 219.3 80.8001 214.6 57.4001C213.3 50.7001 212.2 44.0001 211.5 37.3001C211.4 36.8001 209.7 36.3001 209.3 36.1001C209.1 36.0001 206.8 35.4001 206.8 35.6001C209.2 59.5001 217.1 82.4001 220.4 106.2C221.3 112.9 221.9 119.7 221.8 126.4C221.8 126.9 223.7 127.4 224 127.6C224.2 127.5 226.5 128.2 226.5 128Z" fill="white"/>
</g>
<mask id="mask45_201_678" style="mask-type:luminance" maskUnits="userSpaceOnUse" x="51" y="51" width="398" height="398">
<path d="M250 448.5C359.629 448.5 448.5 359.629 448.5 250C448.5 140.371 359.629 51.5 250 51.5C140.371 51.5 51.5 140.371 51.5 250C51.5 359.629 140.371 448.5 250 448.5Z" fill="white"/>
</mask>
<g mask="url(#mask45_201_678)">
<path d="M225.8 150.2C227.8 160.3 229.8 170.4 231.8 180.4C233.7 190.2 235.5 200.1 237.8 209.9C239.1 215.2 240.6 220.4 242.7 225.5C243.1 226.5 247.8 225.1 247.6 224.7C243.8 215.8 241.9 206.2 240.1 196.7C238.1 186.6 236.1 176.5 234.1 166.5C233 160.8 231.8 155.1 230.7 149.4C230.5 148.5 225.6 149.4 225.8 150.2Z" fill="white"/>
</g>
<mask id="mask46_201_678" style="mask-type:luminance" maskUnits="userSpaceOnUse" x="51" y="51" width="398" height="398">
<path d="M250 448.5C359.629 448.5 448.5 359.629 448.5 250C448.5 140.371 359.629 51.5 250 51.5C140.371 51.5 51.5 140.371 51.5 250C51.5 359.629 140.371 448.5 250 448.5Z" fill="white"/>
</mask>
<g mask="url(#mask46_201_678)">
<path d="M208.9 171.3C196 157.6 182.8 144.2 169.3 131.1C168.6 130.4 167.3 129.4 166.2 129.6C165.2 129.8 165.5 130.9 166.1 131.5C179.6 144.6 192.8 158 205.7 171.7C206.4 172.4 207.7 173.4 208.8 173.2C209.9 173 209.5 171.9 208.9 171.3Z" fill="white"/>
</g>
<mask id="mask47_201_678" style="mask-type:luminance" maskUnits="userSpaceOnUse" x="51" y="51" width="398" height="398">
<path d="M250 448.5C359.629 448.5 448.5 359.629 448.5 250C448.5 140.371 359.629 51.5 250 51.5C140.371 51.5 51.5 140.371 51.5 250C51.5 359.629 140.371 448.5 250 448.5Z" fill="white"/>
</mask>
<g mask="url(#mask47_201_678)">
<path d="M158.4 123.6C145.1 111.1 130.8 99.8001 115.5 89.8001C114.6 89.2001 113.2 88.6001 112.1 89.0001C111.1 89.4001 111.7 90.4001 112.4 90.8001C127.3 100.6 141.4 111.7 154.4 123.9C155.2 124.7 156.6 125.2 157.7 125.1C158.8 125 159.2 124.3 158.4 123.6Z" fill="white"/>
</g>
<mask id="mask48_201_678" style="mask-type:luminance" maskUnits="userSpaceOnUse" x="51" y="51" width="398" height="398">
<path d="M250 448.5C359.629 448.5 448.5 359.629 448.5 250C448.5 140.371 359.629 51.5 250 51.5C140.371 51.5 51.5 140.371 51.5 250C51.5 359.629 140.371 448.5 250 448.5Z" fill="white"/>
</mask>
<g mask="url(#mask48_201_678)">
<path d="M208.7 202.5C189.5 187.1 169.1 173.2 147.8 161.1C141.7 157.6 135.5 154.3 129.3 151.1C128.2 150.6 126.7 150.6 125.9 151.7C125.2 152.8 125.9 154.1 126.9 154.7C148.6 165.7 169.4 178.5 189 192.9C194.5 197 200 201.1 205.3 205.4C206.3 206.2 207.8 206.4 208.8 205.6C209.7 204.7 209.6 203.2 208.7 202.5Z" fill="white"/>
</g>
<mask id="mask49_201_678" style="mask-type:luminance" maskUnits="userSpaceOnUse" x="51" y="51" width="398" height="398">
<path d="M250 448.5C359.629 448.5 448.5 359.629 448.5 250C448.5 140.371 359.629 51.5 250 51.5C140.371 51.5 51.5 140.371 51.5 250C51.5 359.629 140.371 448.5 250 448.5Z" fill="white"/>
</mask>
<g mask="url(#mask49_201_678)">
<path d="M95.3999 136.6C88.6999 129.4 81.6999 122.6 74.2999 116.2C73.5999 115.6 72.1999 115 71.4999 116C70.7999 117 71.3999 118.5 72.1999 119.2C79.5999 125.6 86.5999 132.4 93.2999 139.6C93.9999 140.3 95.3999 140.8 96.0999 139.8C96.7999 138.8 96.0999 137.4 95.3999 136.6Z" fill="white"/>
</g>
<mask id="mask50_201_678" style="mask-type:luminance" maskUnits="userSpaceOnUse" x="51" y="51" width="398" height="398">
<path d="M250 448.5C359.629 448.5 448.5 359.629 448.5 250C448.5 140.371 359.629 51.5 250 51.5C140.371 51.5 51.5 140.371 51.5 250C51.5 359.629 140.371 448.5 250 448.5Z" fill="white"/>
</mask>
<g mask="url(#mask50_201_678)">
<path d="M170.5 148.6C153.1 135.2 135.6 122 117.9 109C112.9 105.3 107.9 101.6 102.8 97.9999C102.1 97.4999 100.4 98.3999 99.8002 98.6999C99.5002 98.7999 97.8002 99.5999 98.4002 99.9999C116.1 112.9 133.8 126 151.2 139.3C156.2 143.1 161.1 146.8 166 150.6C166.6 151.1 168.4 150.2 169 149.9C169.4 149.8 171.1 149 170.5 148.6Z" fill="white"/>
</g>
<mask id="mask51_201_678" style="mask-type:luminance" maskUnits="userSpaceOnUse" x="51" y="51" width="398" height="398">
<path d="M250 448.5C359.629 448.5 448.5 359.629 448.5 250C448.5 140.371 359.629 51.5 250 51.5C140.371 51.5 51.5 140.371 51.5 250C51.5 359.629 140.371 448.5 250 448.5Z" fill="white"/>
</mask>
<g mask="url(#mask51_201_678)">
<path d="M183.5 211C165 207.7 146.5 204.4 128 201.1C109.5 197.8 91.0002 194.5 72.5002 191.2C62.0002 189.3 51.6002 187.5 41.1002 185.6C40.0002 185.4 40.1002 186.7 40.4002 187.4C40.8002 188.4 41.8002 189.5 43.0002 189.7C61.5002 193 80.0002 196.3 98.5002 199.6C117 202.9 135.5 206.2 154 209.5C164.5 211.4 174.9 213.2 185.4 215.1C186.5 215.3 186.4 214 186.1 213.3C185.6 212.4 184.6 211.2 183.5 211Z" fill="white"/>
</g>
<mask id="mask52_201_678" style="mask-type:luminance" maskUnits="userSpaceOnUse" x="51" y="51" width="398" height="398">
<path d="M250 448.5C359.629 448.5 448.5 359.629 448.5 250C448.5 140.371 359.629 51.5 250 51.5C140.371 51.5 51.5 140.371 51.5 250C51.5 359.629 140.371 448.5 250 448.5Z" fill="white"/>
</mask>
<g mask="url(#mask52_201_678)">
<path d="M140.8 227.2C132 225.5 123.1 224.5 114.2 224C113.3 224 111.7 224 111.5 225.3C111.3 226.4 112.9 227.2 113.8 227.2C122.7 227.6 131.6 228.7 140.4 230.4C141.3 230.6 142.9 230.3 143.1 229.1C143.2 228 141.6 227.4 140.8 227.2Z" fill="white"/>
</g>
<mask id="mask53_201_678" style="mask-type:luminance" maskUnits="userSpaceOnUse" x="51" y="51" width="398" height="398">
<path d="M250 448.5C359.629 448.5 448.5 359.629 448.5 250C448.5 140.371 359.629 51.5 250 51.5C140.371 51.5 51.5 140.371 51.5 250C51.5 359.629 140.371 448.5 250 448.5Z" fill="white"/>
</mask>
<g mask="url(#mask53_201_678)">
<path d="M77.1002 221.2C53.7002 218.5 30.3002 216.1 6.80021 214.2C0.200209 213.7 -6.39979 213.2 -12.9998 212.7C-14.2998 212.6 -12.5998 217.1 -11.1998 217.2C12.3002 218.9 35.7002 220.9 59.1002 223.5C65.7002 224.2 72.3002 224.9 78.9002 225.7C80.2002 225.9 78.6002 221.4 77.1002 221.2Z" fill="white"/>
</g>
<mask id="mask54_201_678" style="mask-type:luminance" maskUnits="userSpaceOnUse" x="51" y="51" width="398" height="398">
<path d="M250 448.5C359.629 448.5 448.5 359.629 448.5 250C448.5 140.371 359.629 51.5 250 51.5C140.371 51.5 51.5 140.371 51.5 250C51.5 359.629 140.371 448.5 250 448.5Z" fill="white"/>
</mask>
<g mask="url(#mask54_201_678)">
<path d="M125.9 181.7C108.3 175.3 90.8001 168.2 73.6001 160.6C68.7001 158.4 63.9001 156.2 59.1001 154C58.3001 153.6 56.8001 153.1 56.2001 154.1C55.7001 155.1 56.9001 156.3 57.7001 156.6C75.1001 164.7 92.7001 172.2 110.5 179.1C115.5 181 120.6 182.9 125.7 184.8C126.5 185.1 128 185.1 128.1 184C128.2 182.9 126.7 182 125.9 181.7Z" fill="white"/>
</g>
<mask id="mask55_201_678" style="mask-type:luminance" maskUnits="userSpaceOnUse" x="51" y="51" width="398" height="398">
<path d="M250 448.5C359.629 448.5 448.5 359.629 448.5 250C448.5 140.371 359.629 51.5 250 51.5C140.371 51.5 51.5 140.371 51.5 250C51.5 359.629 140.371 448.5 250 448.5Z" fill="white"/>
</mask>
<g mask="url(#mask55_201_678)">
<path d="M196.3 206.7C212.1 216.1 229.1 223.4 246.8 228.4C248 228.7 249.4 228.7 250.1 227.4C250.6 226.3 249.9 224.9 248.8 224.6C231.5 219.7 214.9 212.6 199.4 203.5C198.3 202.9 196.8 202.7 195.9 203.7C195 204.6 195.3 206.1 196.3 206.7Z" fill="white"/>
</g>
<mask id="mask56_201_678" style="mask-type:luminance" maskUnits="userSpaceOnUse" x="51" y="51" width="398" height="398">
<path d="M250 448.5C359.629 448.5 448.5 359.629 448.5 250C448.5 140.371 359.629 51.5 250 51.5C140.371 51.5 51.5 140.371 51.5 250C51.5 359.629 140.371 448.5 250 448.5Z" fill="white"/>
</mask>
<g mask="url(#mask56_201_678)">
<path d="M390 297.1C411.8 311.2 434.5 324 457.8 335.4C464.4 338.6 471.1 341.8 477.8 344.8C478.8 345.3 478.9 344 478.8 343.3C478.6 342.3 477.9 340.9 476.9 340.5C453.4 330 430.5 318 408.4 304.8C402.1 301.1 396 297.2 389.8 293.3C389 292.8 388.4 293 388.4 294C388.4 295 389.1 296.5 390 297.1Z" fill="white"/>
</g>
</svg>
