<svg width="500" height="500" viewBox="0 0 500 500" fill="none" xmlns="http://www.w3.org/2000/svg">
<g clip-path="url(#clip0_201_728)">
<mask id="mask0_201_728" style="mask-type:luminance" maskUnits="userSpaceOnUse" x="51" y="51" width="398" height="398">
<path d="M250 448.5C359.629 448.5 448.5 359.629 448.5 250C448.5 140.371 359.629 51.5 250 51.5C140.371 51.5 51.5 140.371 51.5 250C51.5 359.629 140.371 448.5 250 448.5Z" fill="white"/>
</mask>
<g mask="url(#mask0_201_728)">
<path d="M229.1 30.2C230.8 60.1 227.3 90.4 232.6 120.1C235 133.7 239.1 148.7 248.4 159.4C252.9 164.6 258.6 168.6 264.2 172.6C269.6 176.5 274.9 180.6 279.7 185.3C289.2 194.5 297.1 205.4 302.1 217.7C307.7 231.6 308.8 246.6 309.4 261.5C310.6 293.9 310.3 326.3 309.2 358.7C308.1 391.3 306.2 423.8 304.2 456.3C304 460.4 303.7 464.4 303.4 468.5C303.4 469 308.4 469.3 308.4 468.7C310.4 436.2 312.4 403.6 313.7 371.1C315 338.7 315.6 306.3 314.8 273.8C314.4 258.4 314.3 242.6 310.4 227.7C307 214.9 300.4 203.2 291.8 193.1C287.7 188.3 283.1 183.8 278.2 179.7C272.9 175.3 267.1 171.6 261.7 167.3C255.9 162.8 251 157.6 247.5 151.2C244.1 145 241.8 138.1 240 131.3C232.2 102.1 235.2 71.6 234.6 41.8C234.5 38 234.4 34.3 234.2 30.5C234.1 29.7 229.1 29.8 229.1 30.2Z" fill="white"/>
</g>
<mask id="mask1_201_728" style="mask-type:luminance" maskUnits="userSpaceOnUse" x="51" y="51" width="398" height="398">
<path d="M250 448.5C359.629 448.5 448.5 359.629 448.5 250C448.5 140.371 359.629 51.5 250 51.5C140.371 51.5 51.5 140.371 51.5 250C51.5 359.629 140.371 448.5 250 448.5Z" fill="white"/>
</mask>
<g mask="url(#mask1_201_728)">
<path d="M260.5 32.2C261.7 50 262.9 67.8 264 85.7C265.1 101.9 266.5 118.2 267 134.5C267.4 148.2 266.8 162.2 262.9 175.5C259.1 188.5 251.6 199.8 240.7 207.8C220.4 222.7 192.7 227 176.2 247.2C167 258.4 163 272.8 160.3 286.8C157.1 303.6 154.7 320.5 152.5 337.4C148 372.4 145 407.5 143.6 442.8C143.4 447.3 143.3 451.7 143.2 456.2C143.2 457.3 148.2 457.3 148.2 456.1C149.2 420.7 151.7 385.4 155.9 350.2C158 332.6 160.5 315.1 163.4 297.6C165.8 283.1 168.4 268 175.9 255.1C189.6 231.4 217.6 225.8 239.4 212.4C250.6 205.5 259.5 196.2 264.8 184.2C270.2 171.8 271.9 158.1 272.1 144.7C272.4 129.4 271 114 269.9 98.7C268.7 81 267.6 63.3 266.4 45.7C266.1 41.2 265.8 36.7 265.5 32.2C265.5 30.9 260.5 31 260.5 32.2Z" fill="white"/>
</g>
<mask id="mask2_201_728" style="mask-type:luminance" maskUnits="userSpaceOnUse" x="51" y="51" width="398" height="398">
<path d="M250 448.5C359.629 448.5 448.5 359.629 448.5 250C448.5 140.371 359.629 51.5 250 51.5C140.371 51.5 51.5 140.371 51.5 250C51.5 359.629 140.371 448.5 250 448.5Z" fill="white"/>
</mask>
<g mask="url(#mask2_201_728)">
<path d="M191.3 52.8C194.4 82.3 196 111.9 196.1 141.5C196.1 155.1 195 168.8 196.1 182.4C196.6 188.6 197.8 194.9 200.3 200.6C202.8 206.4 206.8 211.1 211.1 215.6C215.4 220.1 219.8 224.6 222.7 230.1C225.6 235.6 227.1 241.8 228 247.9C229.9 261.6 229.7 275.8 229.5 289.7C229.1 319 226.3 348.3 223.3 377.5C220.2 406.9 216.8 436.2 214.9 465.7C214.7 469.3 214.5 472.9 214.3 476.5C214.3 476.8 219.3 477 219.3 476.4C220.7 447 223.9 417.8 227.1 388.6C230.2 359.3 233.3 329.9 234.3 300.4C234.8 286 234.8 271.5 234 257.1C233.2 244.5 230.9 232.1 222.5 222.3C218.5 217.5 213.7 213.4 210 208.4C206.3 203.5 203.9 197.7 202.6 191.7C199.8 179 201.1 165.7 201.2 152.8C201.6 123 200.3 93.3 197.6 63.6C197.3 60 196.9 56.4 196.5 52.8C196.3 52.2 191.3 52.5 191.3 52.8Z" fill="white"/>
</g>
<mask id="mask3_201_728" style="mask-type:luminance" maskUnits="userSpaceOnUse" x="51" y="51" width="398" height="398">
<path d="M250 448.5C359.629 448.5 448.5 359.629 448.5 250C448.5 140.371 359.629 51.5 250 51.5C140.371 51.5 51.5 140.371 51.5 250C51.5 359.629 140.371 448.5 250 448.5Z" fill="white"/>
</mask>
<g mask="url(#mask3_201_728)">
<path d="M273 470.7C266.9 438.8 266 405.9 270.3 373.7C272.4 357.9 275.7 342.2 280.4 327C284.5 313.6 290.3 300 301 290.5C318.5 274.8 345.8 272 359.6 251.9C364 245.4 366.5 237.8 368.4 230.3C370.4 222.4 371.6 214.4 372.5 206.3C374.4 189.6 375.6 172.8 376.7 156C379.1 121.8 380.6 87.5 381.2 53.2C381.3 48.9 381.3 44.7 381.4 40.4C381.4 40.1 376.4 40.3 376.4 41C376 75.3 374.7 109.6 372.6 143.8C371.5 160.8 370.3 177.8 368.8 194.7C367.4 210.7 365.8 227.3 359.9 242.4C357.4 248.9 353.7 254.7 348.6 259.4C344.3 263.4 339.3 266.5 334.2 269.3C323.6 275 312.2 279.2 302.3 286.1C291.1 293.8 283.8 305.1 278.9 317.6C273.3 331.9 269.8 347.2 267.2 362.2C261.6 394.2 261.1 427.1 266 459.2C266.6 463.2 267.3 467.2 268.1 471.2C268.2 472 273.1 471.2 273 470.7Z" fill="white"/>
</g>
<mask id="mask4_201_728" style="mask-type:luminance" maskUnits="userSpaceOnUse" x="51" y="51" width="398" height="398">
<path d="M250 448.5C359.629 448.5 448.5 359.629 448.5 250C448.5 140.371 359.629 51.5 250 51.5C140.371 51.5 51.5 140.371 51.5 250C51.5 359.629 140.371 448.5 250 448.5Z" fill="white"/>
</mask>
<g mask="url(#mask4_201_728)">
<path d="M327 53.8001C327.4 83.7001 327.8 113.6 328.2 143.5C328.3 150.5 327.8 157.9 329 164.9C330 171.2 333.2 176.4 337.6 180.9C345.3 188.6 354.9 194.4 363.8 200.5C372.3 206.3 381 212.3 387.2 220.6C390.4 224.8 392.9 229.5 394.4 234.6C396.3 241.3 396.6 248.4 396.7 255.3C397 285 395.5 314.8 393.2 344.5C390.9 374 387.7 403.5 384.5 432.9C384.1 436.6 383.7 440.4 383.3 444.1C383 446.4 387.6 448.5 387.8 446C391.1 416.3 394.4 386.6 396.9 356.8C399.4 327.3 401.1 297.7 401.3 268C401.4 254.7 402.2 240.4 396.3 228C391.8 218.6 384.3 211.3 376.2 204.9C367.7 198.4 358.5 192.9 349.9 186.5C345.3 183.1 340.5 179.5 337.2 174.8C333.2 169.1 333 162.5 332.9 155.7C332.5 125.8 332.1 95.9001 331.7 66.0001C331.6 62.2001 331.6 58.5001 331.5 54.7001C331.6 52.5001 327 51.0001 327 53.8001Z" fill="white"/>
</g>
<mask id="mask5_201_728" style="mask-type:luminance" maskUnits="userSpaceOnUse" x="51" y="51" width="398" height="398">
<path d="M250 448.5C359.629 448.5 448.5 359.629 448.5 250C448.5 140.371 359.629 51.5 250 51.5C140.371 51.5 51.5 140.371 51.5 250C51.5 359.629 140.371 448.5 250 448.5Z" fill="white"/>
</mask>
<g mask="url(#mask5_201_728)">
<path d="M163.7 59.9C164.6 74.6 165.5 89.3 166.2 104C166.9 118.5 167.9 133.1 167.7 147.6C167.6 154 166.6 160.4 163.7 166.1C161.1 171.3 157.4 175.9 153.3 180C144.5 188.8 133.7 195.2 124.2 203.1C114.9 210.8 107.6 220 102.8 231.1C98.2999 241.6 96.0999 253 94.6999 264.3C93.2999 276.1 92.8999 288.1 91.9999 300C90.9999 314.4 89.3999 328.7 87.2999 342.9C83.1999 371.4 77.2999 399.6 71.1999 427.7C70.3999 431.2 69.6999 434.7 68.8999 438.2C68.2999 441.1 73.0999 441 73.5999 438.6C79.6999 410.4 85.7999 382.2 90.2999 353.7C92.5999 339.5 94.4999 325.3 95.7999 311.1C96.9999 298.5 97.3999 285.9 98.3999 273.3C99.3999 261.6 100.9 249.8 104.6 238.6C108.3 227.4 114.3 217.4 123 209.3C140.1 193.4 166.6 182.3 171.3 156.9C172.6 150.2 172.3 143.3 172.1 136.6C171.9 129.2 171.6 121.8 171.3 114.4C170.7 99.7 169.8 85 168.9 70.3C168.7 66.7 168.5 63 168.2 59.4C168.4 56.5 163.5 57.5 163.7 59.9Z" fill="white"/>
</g>
<mask id="mask6_201_728" style="mask-type:luminance" maskUnits="userSpaceOnUse" x="51" y="51" width="398" height="398">
<path d="M250 448.5C359.629 448.5 448.5 359.629 448.5 250C448.5 140.371 359.629 51.5 250 51.5C140.371 51.5 51.5 140.371 51.5 250C51.5 359.629 140.371 448.5 250 448.5Z" fill="white"/>
</mask>
<g mask="url(#mask6_201_728)">
<path d="M128.1 79.1C125.2 107 124.8 135.1 125.1 163.2C125.3 175.9 124.5 189.8 129.2 201.8C133.1 211.7 140.8 219.2 148.6 226.1C156.7 233.2 165.1 240.1 170.7 249.5C176.7 259.5 179.8 271.3 180.8 282.9C181.9 296.4 180.4 309.9 178.4 323.2C176.3 336.9 173.9 350.6 172.1 364.3C168.5 391.8 166.6 419.6 167.1 447.4C167.2 450.9 167.3 454.3 167.4 457.8C167.5 460.4 172.4 459.7 172.3 457.4C171.2 429.6 172.6 401.8 175.8 374.2C177.4 360.3 179.5 346.4 181.8 332.6C184 319 186.2 305.3 186.2 291.4C186.2 279.7 184.5 267.9 180.1 257C175.9 246.5 169.2 238.1 160.9 230.5C153.1 223.4 144.4 217 138.4 208.3C131.2 197.9 130.5 185.4 130.3 173.2C129.7 145.2 129.8 117.1 132.1 89.1C132.4 85.6 132.7 82.1 133.1 78.6C133.3 76.1 128.3 76.7 128.1 79.1Z" fill="white"/>
</g>
<mask id="mask7_201_728" style="mask-type:luminance" maskUnits="userSpaceOnUse" x="51" y="51" width="398" height="398">
<path d="M250 448.5C359.629 448.5 448.5 359.629 448.5 250C448.5 140.371 359.629 51.5 250 51.5C140.371 51.5 51.5 140.371 51.5 250C51.5 359.629 140.371 448.5 250 448.5Z" fill="white"/>
</mask>
<g mask="url(#mask7_201_728)">
<path d="M64.3 128.8C65.3 138.2 64 147.7 64.2 157.1C64.4 166 66.4 174.4 71.7 181.6C76.5 188.2 82.8 193.5 88.6 199.2C94.9 205.3 100.3 212 104.1 219.9C108.2 228.5 110.2 237.8 110.6 247.3C111 257.6 110.3 268 109.7 278.3C108.5 299.3 106.8 320.2 105.9 341.2C104.9 362 104.7 382.9 106.3 403.7C106.5 406.3 106.7 408.9 107 411.5C107.2 413.1 112.1 413.1 112 411.7C109.9 390.9 109.8 370.1 110.6 349.2C111.4 328.2 113 307.3 114.3 286.3C114.9 275.9 115.6 265.5 115.8 255.1C115.9 245.4 115.1 235.7 111.9 226.5C109 218 104.3 210.3 98.4 203.6C92.9 197.5 86.6 192.4 81 186.4C75.1 180 71 172.7 69.8 164C68.5 154.7 69.8 145.2 69.7 135.8C69.7 133.4 69.6 131.1 69.3 128.8C69.1 127.4 64.2 127.5 64.3 128.8Z" fill="white"/>
</g>
<mask id="mask8_201_728" style="mask-type:luminance" maskUnits="userSpaceOnUse" x="51" y="51" width="398" height="398">
<path d="M250 448.5C359.629 448.5 448.5 359.629 448.5 250C448.5 140.371 359.629 51.5 250 51.5C140.371 51.5 51.5 140.371 51.5 250C51.5 359.629 140.371 448.5 250 448.5Z" fill="white"/>
</mask>
<g mask="url(#mask8_201_728)">
<path d="M436.4 136.9C423 145 416.1 160.3 414 175.3C412.7 184.6 412.8 194 413.3 203.3C413.8 213 414.4 222.7 414.9 232.4C415.9 251.9 416.6 271.5 417 291.1C417.4 310.6 417.6 330.2 417.5 349.7C417.4 369.3 417 388.8 416.4 408.4C416.3 410.8 416.2 413.2 416.2 415.6C416.2 416.7 417.1 417.7 417.9 418.3C418.2 418.5 420.1 419.6 420.1 418.5C420.8 399 421.3 379.6 421.4 360.1C421.6 340.7 421.5 321.3 421.1 301.9C420.8 282.5 420.1 263.1 419.3 243.8C418.9 234 418.4 224.3 417.8 214.5C417.2 205 416.6 195.6 417.2 186.1C418.2 170.5 423.1 154 435.7 143.7C437.1 142.5 438.6 141.5 440.2 140.6C441.1 139.7 437.9 136 436.4 136.9Z" fill="white"/>
</g>
<mask id="mask9_201_728" style="mask-type:luminance" maskUnits="userSpaceOnUse" x="51" y="51" width="398" height="398">
<path d="M250 448.5C359.629 448.5 448.5 359.629 448.5 250C448.5 140.371 359.629 51.5 250 51.5C140.371 51.5 51.5 140.371 51.5 250C51.5 359.629 140.371 448.5 250 448.5Z" fill="white"/>
</mask>
<g mask="url(#mask9_201_728)">
<path d="M356 447.1C357.8 422.5 357 397.8 356.9 373.2C356.9 360.9 357 348.5 357.8 336.2C358.6 324.7 359.6 312.9 362.4 301.7C365 291.7 369.6 282.7 377.2 275.7C384.1 269.4 392.4 265 400.7 260.8C409.1 256.5 417.8 252.4 425.4 246.8C429.4 243.8 433.1 240.3 435.7 236C438.6 231.4 439.8 225.9 440.3 220.6C440.9 214.7 440.9 208.7 441.1 202.8C441.3 196.6 441.5 190.4 441.7 184.2C442.1 171.6 442.6 159 443 146.4C443.1 143.3 443.2 140.2 443.3 137.1C443.3 135.9 442.5 134.7 441.4 134.2C440.5 133.8 439.1 133.9 439.1 135.2C438.2 160.3 437.4 185.3 436.5 210.4C436.3 215.9 436.1 221.6 434.4 226.9C432.8 231.9 429.8 236.1 426 239.6C418.9 246.1 410.1 250.4 401.6 254.7C393.2 258.9 384.8 263.1 377.3 268.9C369.4 275 363.6 282.9 360.2 292.3C356.4 302.8 355.1 314.1 354.1 325.2C352.9 337.5 352.5 349.8 352.4 362.2C352.2 386.8 353.3 411.5 352.1 436.1C351.9 439.1 351.8 442.2 351.5 445.2C351.4 446.4 352.4 447.6 353.4 448.1C354.6 448.5 355.9 448.3 356 447.1Z" fill="white"/>
</g>
<mask id="mask10_201_728" style="mask-type:luminance" maskUnits="userSpaceOnUse" x="51" y="51" width="398" height="398">
<path d="M250 448.5C359.629 448.5 448.5 359.629 448.5 250C448.5 140.371 359.629 51.5 250 51.5C140.371 51.5 51.5 140.371 51.5 250C51.5 359.629 140.371 448.5 250 448.5Z" fill="white"/>
</mask>
<g mask="url(#mask10_201_728)">
<path d="M303 49.2C303.2 80.5 303.4 111.8 303.6 143.1C303.7 157.1 304.4 171.5 301 185.2C297.8 198 290.1 207.9 281.3 217.4C272.5 226.9 264 236.2 259.2 248.5C254.1 261.5 252.2 275.8 250.7 289.6C247.2 320.1 247.2 350.9 245.2 381.6C243.1 412.1 239.2 442.5 233.5 472.6C232.8 476.4 232 480.1 231.3 483.8C231 485.3 235.5 487.2 235.6 486.3C241.7 456.6 246.1 426.5 248.6 396.2C251.2 365.6 251.2 334.8 253.8 304.2C255.1 289.3 256.6 274.1 260.6 259.6C262.4 253 264.9 246.5 268.5 240.6C271.7 235.3 275.7 230.5 279.9 225.9C288.3 216.7 297.5 207.9 302.4 196.2C307.7 183.6 308.1 169.7 308 156.3C307.9 125.2 307.6 94 307.4 62.9C307.4 59 307.3 55.1 307.3 51.2C307.4 49.8 303 47.9 303 49.2Z" fill="white"/>
</g>
<mask id="mask11_201_728" style="mask-type:luminance" maskUnits="userSpaceOnUse" x="51" y="51" width="398" height="398">
<path d="M250 448.5C359.629 448.5 448.5 359.629 448.5 250C448.5 140.371 359.629 51.5 250 51.5C140.371 51.5 51.5 140.371 51.5 250C51.5 359.629 140.371 448.5 250 448.5Z" fill="white"/>
</mask>
<g mask="url(#mask11_201_728)">
<path d="M47.4 175.8C52.6 180.4 57.3 185.6 61.4 191.1C65.5 196.6 69.3 202.5 71.7 209C74.4 216.2 74.5 223.9 74.8 231.5C75.1 239.2 75.3 246.8 75.6 254.5C76.5 285.5 77 316.5 75 347.5C73.9 364.9 72.1 382.2 69.1 399.4C68.9 400.6 72.8 403.2 73 402.3C78.3 371.1 80 339.5 80.2 307.9C80.3 292.1 80 276.2 79.5 260.4C79.3 252.4 79 244.4 78.7 236.4C78.4 228.8 78.5 221.1 76.2 213.8C73.9 206.2 69.5 199.3 64.8 192.9C59.9 186.2 54.3 180.2 48.2 174.6C47.9 174.3 46.3 173 45.8 173.5C45.5 174.1 47.2 175.5 47.4 175.8Z" fill="white"/>
</g>
<mask id="mask12_201_728" style="mask-type:luminance" maskUnits="userSpaceOnUse" x="51" y="51" width="398" height="398">
<path d="M250 448.5C359.629 448.5 448.5 359.629 448.5 250C448.5 140.371 359.629 51.5 250 51.5C140.371 51.5 51.5 140.371 51.5 250C51.5 359.629 140.371 448.5 250 448.5Z" fill="white"/>
</mask>
<g mask="url(#mask12_201_728)">
<path d="M37.2998 273.2C47.0998 270.2 56.1998 265.2 63.8998 258.4C71.6998 251.5 77.7998 242.9 82.0998 233.4C91.3998 212.7 92.4998 189.6 92.7998 167.3C92.9998 153.1 92.9998 139 94.7998 125C94.8998 123.9 93.9998 122.6 93.1998 122C92.4998 121.5 91.3998 121.2 91.1998 122.3C88.0998 146.4 90.2998 170.8 87.4998 194.9C85.0998 215.5 78.7998 236.6 63.7998 251.6C55.7998 259.6 45.7998 265.6 34.9998 268.9C32.9998 269.5 35.5998 273.7 37.2998 273.2Z" fill="white"/>
</g>
</g>
<defs>
<clipPath id="clip0_201_728">
<rect width="500" height="500" fill="white"/>
</clipPath>
</defs>
</svg>
