<svg width="500" height="500" viewBox="0 0 500 500" fill="none" xmlns="http://www.w3.org/2000/svg">
<mask id="mask0_201_750" style="mask-type:luminance" maskUnits="userSpaceOnUse" x="51" y="51" width="398" height="398">
<path d="M250 448.5C359.629 448.5 448.5 359.629 448.5 250C448.5 140.371 359.629 51.5 250 51.5C140.371 51.5 51.5 140.371 51.5 250C51.5 359.629 140.371 448.5 250 448.5Z" fill="white"/>
</mask>
<g mask="url(#mask0_201_750)">
<path d="M15.9001 219.7C27.2001 231 38.0001 242.9 47.6001 255.7C57.0001 268.3 65.0001 281.8 71.6001 296C78.2001 310 83.5001 324.6 87.9001 339.5C92.4001 354.5 95.9001 369.8 99.0001 385.2C102.1 400.6 104.7 416 107.2 431.5C107.5 433.4 107.8 435.4 108.1 437.3C108.3 438.3 109.1 439.2 109.9 439.9C110 440 111.8 441.3 111.7 440.7C109.1 424.9 106.6 409.1 103.5 393.3C100.5 377.6 97.0001 362 92.6001 346.7C88.3001 331.5 83.1001 316.6 76.6001 302.2C70.0001 287.5 62.0001 273.4 52.7001 260.4C43.0001 246.9 32.0001 234.3 20.4001 222.4C18.9001 220.9 17.5001 219.4 16.0001 217.9C15.7001 217.6 14.5001 216.5 14.2001 217.1C13.9001 217.8 15.5001 219.4 15.9001 219.7Z" fill="white"/>
</g>
<mask id="mask1_201_750" style="mask-type:luminance" maskUnits="userSpaceOnUse" x="51" y="51" width="398" height="398">
<path d="M250 448.5C359.629 448.5 448.5 359.629 448.5 250C448.5 140.371 359.629 51.5 250 51.5C140.371 51.5 51.5 140.371 51.5 250C51.5 359.629 140.371 448.5 250 448.5Z" fill="white"/>
</mask>
<g mask="url(#mask1_201_750)">
<path d="M36.9001 183.9C50.6001 205.4 61.4001 228.6 71.1001 252C80.9001 275.6 89.7001 299.6 99.7001 323.1C109.6 346.3 120.7 369.1 134.9 390C149.4 411.3 167.3 430.1 187.4 446.2C207.7 462.5 229.9 476.1 253 488C255.9 489.5 258.8 490.9 261.8 492.4C262.9 492.9 264.3 492.5 265.2 491.8C265.9 491.3 266.5 490.1 265.4 489.6C242 478.2 219.4 465.1 198.6 449.3C178.1 433.8 159.5 415.7 144.2 394.9C129.3 374.5 117.7 352 107.6 328.9C97.3001 305.5 88.5001 281.6 78.9001 257.9C69.4001 234.4 59.1001 211.2 46.1001 189.4C44.5001 186.7 42.9001 184.1 41.2001 181.5C40.2001 180.1 35.7001 182 36.9001 183.9Z" fill="white"/>
</g>
<mask id="mask2_201_750" style="mask-type:luminance" maskUnits="userSpaceOnUse" x="51" y="51" width="398" height="398">
<path d="M250 448.5C359.629 448.5 448.5 359.629 448.5 250C448.5 140.371 359.629 51.5 250 51.5C140.371 51.5 51.5 140.371 51.5 250C51.5 359.629 140.371 448.5 250 448.5Z" fill="white"/>
</mask>
<g mask="url(#mask2_201_750)">
<path d="M45.5999 179.7C60.5999 194.8 73.2999 211.9 83.9999 230.2C94.7999 248.8 103.6 268.5 111 288.7C118.6 309.6 124.7 331 130 352.6C135.9 376.4 140.9 400.4 146.3 424.3C151.7 448.3 157.4 472.2 164.6 495.7C165.5 498.6 166.4 501.4 167.3 504.3C167.5 504.9 169 505.3 169.6 505.4C169.8 505.5 172.1 506 172.1 505.9C164.5 482.5 158.5 458.6 153 434.7C147.5 410.7 142.5 386.6 136.8 362.7C131.5 340.6 125.6 318.7 118.2 297.3C111.2 277.2 102.9 257.4 92.5999 238.7C82.3999 220.1 70.2999 202.6 55.8999 187C54.0999 185 52.1999 183.1 50.2999 181.1C49.5999 180.4 48.2999 180.1 47.4999 179.9C47.1999 179.7 45.3999 179.4 45.5999 179.7Z" fill="white"/>
</g>
<mask id="mask3_201_750" style="mask-type:luminance" maskUnits="userSpaceOnUse" x="51" y="51" width="398" height="398">
<path d="M250 448.5C359.629 448.5 448.5 359.629 448.5 250C448.5 140.371 359.629 51.5 250 51.5C140.371 51.5 51.5 140.371 51.5 250C51.5 359.629 140.371 448.5 250 448.5Z" fill="white"/>
</mask>
<g mask="url(#mask3_201_750)">
<path d="M61.8 130.3C78.6 146.8 91.8001 166.6 102.8 187.3C108.4 197.8 113.5 208.6 118.2 219.5C123.4 231.4 128.1 243.5 131.5 256C138.4 281.7 139.6 308.6 140.5 335.1C141.5 361.9 141.2 388.8 140 415.6C138.9 440 137.7 465 144.4 488.8C145.3 491.8 146.2 494.7 147.3 497.6C147.6 498.3 148.4 500.1 149.3 500C150.3 499.9 149.9 498.4 149.7 497.9C140.8 474 141.6 448.1 142.7 423C143.9 396.1 144.4 369.2 143.6 342.3C142.8 315.6 141.8 288.3 135.5 262.2C132.4 249.5 128 237.2 123 225.2C118.2 213.8 113.1 202.6 107.5 191.7C96.7001 170.6 83.9 150.2 67.7 132.8C65.7 130.7 63.6 128.6 61.6 126.5C60.9 125.8 60.3 126.3 60.3 127.2C60.3 128.3 61 129.5 61.8 130.3Z" fill="white"/>
</g>
<mask id="mask4_201_750" style="mask-type:luminance" maskUnits="userSpaceOnUse" x="51" y="51" width="398" height="398">
<path d="M250 448.5C359.629 448.5 448.5 359.629 448.5 250C448.5 140.371 359.629 51.5 250 51.5C140.371 51.5 51.5 140.371 51.5 250C51.5 359.629 140.371 448.5 250 448.5Z" fill="white"/>
</mask>
<g mask="url(#mask4_201_750)">
<path d="M58.2 152.9C73.6 179.7 89.6 206.2 107 231.8C124.3 257.2 143.2 281.7 164.5 304C175.1 315.1 186.3 325.7 198.1 335.6C210.7 346.1 224.1 355.8 237.5 365.2C263.6 383.5 290.4 401.2 313.2 423.6C333.5 443.6 350.9 467.6 358.6 495.4C359.6 498.8 360.4 502.3 361 505.8C361.3 507.5 365.8 509.5 365.3 507.1C360 478.7 344.5 453.3 325.2 432.1C304.1 408.8 278.5 390.5 252.8 372.6C239.3 363.2 225.7 353.8 212.6 343.7C200.1 334.1 188.2 323.7 177 312.7C155 291 135.5 267 117.7 241.8C99.8 216.5 83.6 190.1 68 163.3C66.1 160 64.1 156.6 62.2 153.3C61.6 152.3 60.5 151.4 59.3 151.3C58.3 151.3 57.6 152 58.2 152.9Z" fill="white"/>
</g>
<mask id="mask5_201_750" style="mask-type:luminance" maskUnits="userSpaceOnUse" x="51" y="51" width="398" height="398">
<path d="M250 448.5C359.629 448.5 448.5 359.629 448.5 250C448.5 140.371 359.629 51.5 250 51.5C140.371 51.5 51.5 140.371 51.5 250C51.5 359.629 140.371 448.5 250 448.5Z" fill="white"/>
</mask>
<g mask="url(#mask5_201_750)">
<path d="M67.5999 96.4C87.4999 117 107.4 137.8 124.3 160.9C132.7 172.3 140.3 184.3 146.6 197C153.3 210.3 158.3 224.4 161.9 238.9C169.4 269 171.2 300 174.1 330.7C176.8 358.7 180.5 387 189.9 413.6C194.6 426.7 200.6 439.4 208.5 450.9C216.9 463.1 227.3 473.8 238 483.9C240.8 486.5 243.5 489.1 246.3 491.6C246.9 492.2 248.6 493 249.4 492.4C250.3 491.7 249.2 490.6 248.7 490.2C237.6 479.9 226.4 469.5 217 457.5C208.4 446.4 201.6 433.9 196.5 420.9C186.2 394.7 181.9 366.6 179.1 338.7C176 308.3 174.5 277.6 168 247.7C164.8 233 160.3 218.6 154.1 204.9C148.3 192.2 141.3 180 133.4 168.5C117.3 145 97.8999 124 78.2999 103.5C75.7999 100.9 73.2999 98.3 70.7999 95.7C70.0999 95 68.6999 94 67.5999 94.3C66.6999 94.7 66.8999 95.7 67.5999 96.4Z" fill="white"/>
</g>
<mask id="mask6_201_750" style="mask-type:luminance" maskUnits="userSpaceOnUse" x="51" y="51" width="398" height="398">
<path d="M250 448.5C359.629 448.5 448.5 359.629 448.5 250C448.5 140.371 359.629 51.5 250 51.5C140.371 51.5 51.5 140.371 51.5 250C51.5 359.629 140.371 448.5 250 448.5Z" fill="white"/>
</mask>
<g mask="url(#mask6_201_750)">
<path d="M124.9 85C137.2 111.8 147.6 139.5 155.9 167.8C164.3 196.5 170 225.8 175.2 255.3C180.4 284.7 185.2 314.2 193.1 343.1C200 368.5 209.4 393.6 224.4 415.4C231.9 426.3 240.9 436.1 251.1 444.6C261.7 453.4 273.4 460.9 285.2 468.1C288.1 469.9 291.1 471.6 294 473.4C295 474 294.9 472.5 294.8 472C294.6 471 293.9 469.7 292.9 469.1C269.5 455.2 246.2 440.8 229.4 418.9C213.6 398.2 203.9 373.5 196.9 348.6C188.8 320.2 183.9 291 178.8 261.9C173.7 232.9 168.3 204 160.4 175.7C152.6 147.9 142.8 120.6 131.2 94.1C129.7 90.8 128.2 87.5 126.7 84.2C126.5 83.7 125.4 82 124.7 82.4C123.8 82.7 124.7 84.5 124.9 85Z" fill="white"/>
</g>
<mask id="mask7_201_750" style="mask-type:luminance" maskUnits="userSpaceOnUse" x="51" y="51" width="398" height="398">
<path d="M250 448.5C359.629 448.5 448.5 359.629 448.5 250C448.5 140.371 359.629 51.5 250 51.5C140.371 51.5 51.5 140.371 51.5 250C51.5 359.629 140.371 448.5 250 448.5Z" fill="white"/>
</mask>
<g mask="url(#mask7_201_750)">
<path d="M150.1 65.5C166.3 94.4 182.2 123.5 195.1 154C201.6 169.2 207.3 184.8 211.9 200.7C216.7 217.2 220.1 234.1 222.8 251C228.1 283.7 231.4 316.9 240.6 348.9C248.4 375.9 260.4 402.1 279 423.4C298.5 445.8 325.4 460.7 355 463.9C358.6 464.3 362.3 464.5 366 464.6C366.3 464.6 365 462.4 364.9 462.3C364.6 461.8 363.8 460.5 363.1 460.5C333.1 460.1 304 447.6 283 426.2C263.5 406.4 251.7 380.4 243.9 354.1C234.6 322.8 231.3 290.1 226.2 258C223.6 241.6 220.5 225.4 216.2 209.4C212 194 206.7 178.9 200.7 164.1C188.6 134.3 173.6 105.9 158 77.8C156.1 74.3 154.1 70.8 152.1 67.3C151.7 66.6 150.9 64.9 150 64.6C149.3 64.1 149.8 65 150.1 65.5Z" fill="white"/>
</g>
<mask id="mask8_201_750" style="mask-type:luminance" maskUnits="userSpaceOnUse" x="51" y="51" width="398" height="398">
<path d="M250 448.5C359.629 448.5 448.5 359.629 448.5 250C448.5 140.371 359.629 51.5 250 51.5C140.371 51.5 51.5 140.371 51.5 250C51.5 359.629 140.371 448.5 250 448.5Z" fill="white"/>
</mask>
<g mask="url(#mask8_201_750)">
<path d="M431.9 390.6C414.6 394.2 397.1 390.8 380.7 385.1C364.1 379.4 348.4 371.4 332.7 363.5C317.5 355.8 302.3 347.8 288.7 337.4C276 327.8 264.8 316.3 254.9 303.8C234.6 278.3 219.7 249.1 204.3 220.5C188.8 191.8 172.2 163 149 139.7C128.3 118.9 102 102.4 72.5999 97.9001C68.8999 97.3001 65.2999 97.0001 61.5999 96.8001C61.1999 96.8001 58.5999 96.7 58.4999 97.1C58.3999 97.6 59.8999 97.6 60.2999 97.6C90.6999 99.3 118.7 115.7 140.4 136.2C164.7 159.2 181.8 188.5 197.7 217.6C213.3 246.3 228.1 275.6 248.1 301.5C257.8 314.1 268.8 325.8 281.3 335.7C294.9 346.4 310.1 354.7 325.5 362.5C355.7 377.8 388.1 395 423 392.8C427.2 392.5 431.4 392 435.5 391.1C436.4 390.9 436.3 390.7 435.5 390.5C434.4 390.3 432.9 390.4 431.9 390.6Z" fill="white"/>
</g>
<mask id="mask9_201_750" style="mask-type:luminance" maskUnits="userSpaceOnUse" x="51" y="51" width="398" height="398">
<path d="M250 448.5C359.629 448.5 448.5 359.629 448.5 250C448.5 140.371 359.629 51.5 250 51.5C140.371 51.5 51.5 140.371 51.5 250C51.5 359.629 140.371 448.5 250 448.5Z" fill="white"/>
</mask>
<g mask="url(#mask9_201_750)">
<path d="M68.3 76.6C101.5 85.6 131.9 102.8 158.1 124.9C185.5 147.9 208.1 175.8 226.9 206C246.7 237.7 262.4 271.8 276.6 306.3C290.7 340.8 304.2 376.4 326.8 406.4C346.2 432.1 373.1 454.4 405.1 461.6C408.9 462.5 412.8 463.1 416.6 463.5C417.7 463.6 417.2 461.6 417 461.2C416.5 460.2 415.7 459.2 414.6 459.1C381.7 455.5 353.3 435 332.9 410C309.4 381.3 295.7 346 281.8 312C267.7 277.4 252.4 243.2 233.1 211.2C214.6 180.5 192.5 151.8 165.8 127.9C140.6 105.3 111.3 86.9 79.1 76.1C75.1 74.8 71.2 73.6 67.1 72.5C66 72.2 65.9 73.5 66.1 74.2C66.4 75 67.3 76.3 68.3 76.6Z" fill="white"/>
</g>
<mask id="mask10_201_750" style="mask-type:luminance" maskUnits="userSpaceOnUse" x="51" y="51" width="398" height="398">
<path d="M250 448.5C359.629 448.5 448.5 359.629 448.5 250C448.5 140.371 359.629 51.5 250 51.5C140.371 51.5 51.5 140.371 51.5 250C51.5 359.629 140.371 448.5 250 448.5Z" fill="white"/>
</mask>
<g mask="url(#mask10_201_750)">
<path d="M437.6 423.8C409.4 409.5 382.4 393.1 356.8 374.5C344.5 365.6 331.9 356.5 322.3 344.6C312.8 332.8 307.2 318.5 302.9 304.2C293.4 272.7 287.8 240.3 281.2 208.1C278 192.6 274.7 177.1 269.7 162.1C264.7 147.3 257.7 133.5 248.6 120.7C240 108.6 230.1 97.3 219.6 86.9C209.4 76.7 198.1 67.3 185.4 60.2C182.5 58.6 179.4 57.1 176.4 55.7C175.7 55.4 174.1 56.7 173.6 57.1C173.3 57.3 171.9 58.4 172.5 58.6C185.8 64.6 197.7 73.2 208.4 83C219.3 93 229.3 104 238.4 115.6C247.9 127.6 256 140.6 261.7 154.8C267.6 169.4 271.3 184.8 274.7 200.2C281.6 232.3 286.9 264.7 295.6 296.4C299.6 311.1 304.1 325.9 312.1 339C320 351.8 331.4 361.6 343.3 370.6C368.5 389.6 395.2 406.6 423.1 421.4C426.5 423.2 429.9 425 433.4 426.7C434.1 427 435.3 426.2 435.8 425.8C436 425.5 438 424 437.6 423.8Z" fill="white"/>
</g>
<mask id="mask11_201_750" style="mask-type:luminance" maskUnits="userSpaceOnUse" x="51" y="51" width="398" height="398">
<path d="M250 448.5C359.629 448.5 448.5 359.629 448.5 250C448.5 140.371 359.629 51.5 250 51.5C140.371 51.5 51.5 140.371 51.5 250C51.5 359.629 140.371 448.5 250 448.5Z" fill="white"/>
</mask>
<g mask="url(#mask11_201_750)">
<path d="M122.3 52.0001C145.2 78.7001 173.2 100.4 200.9 121.9C227.4 142.4 255 163.3 287.9 172.2C296.5 174.5 305.2 176 313.8 178.4C321.5 180.5 328.8 183.6 335.5 188.1C347.8 196.4 357.4 208.2 365.1 220.8C381.9 248.5 389.5 280.7 406.8 308.1C415.5 321.9 426.7 333.6 439.7 343.3C452.6 352.9 466.9 360.7 481.4 367.6C485 369.3 488.6 371 492.3 372.7C495.1 374 496.7 370.5 493.9 369.3C464.9 356.1 435.4 340.7 416.1 314.4C396.7 288.1 389.1 255.5 373.6 227.1C366.5 214 357.8 201.7 346.6 191.8C341.1 187 335 182.9 328.5 179.7C320.7 176 312.2 173.8 303.8 171.9C295.3 170 286.8 168.2 278.6 165.2C270.8 162.4 263.3 158.9 256 155C241.2 147 227.5 137.2 214.2 127C186.6 106 158.4 84.8001 134.6 59.4001C131.7 56.3001 128.9 53.2001 126.1 50.0001C124.3 48.1001 120.2 49.5001 122.3 52.0001Z" fill="white"/>
</g>
<mask id="mask12_201_750" style="mask-type:luminance" maskUnits="userSpaceOnUse" x="51" y="51" width="398" height="398">
<path d="M250 448.5C359.629 448.5 448.5 359.629 448.5 250C448.5 140.371 359.629 51.5 250 51.5C140.371 51.5 51.5 140.371 51.5 250C51.5 359.629 140.371 448.5 250 448.5Z" fill="white"/>
</mask>
<g mask="url(#mask12_201_750)">
<path d="M466.3 210.1C457.9 218.3 449.3 226.5 439.5 233C434.8 236.1 429.9 238.7 424.6 240.6C418.6 242.7 412.3 243.5 406 243.5C399.2 243.5 392.3 242.7 385.6 241.7C380 240.8 374.3 239.8 368.8 238.6C357.6 236.2 346.6 233.2 335.9 229.4C314.6 221.9 294.2 211.4 276.7 197C258.2 181.7 242.1 161.8 235.5 138.4C231.8 125.2 230.3 111.3 229 97.7C227.6 83.6 226.9 69.5 226.8 55.4C226.8 52 226.8 48.5 226.8 45.1C226.8 44.5 224.4 45.4 224.2 45.5C223.6 45.8 222.2 46.3 222.2 47.2C222 61.6 222.4 76.1 223.5 90.5C224.6 104.6 226 118.9 228.9 132.7C230.3 139.4 232.2 145.9 234.9 152.2C237.5 158.1 240.7 163.8 244.3 169.2C251 179 259 187.9 267.9 195.8C285.2 211 305.6 222.3 327.1 230.3C338 234.4 349.3 237.7 360.6 240.2C372.7 242.9 385.2 245.3 397.6 245.9C404.4 246.2 411.3 245.8 418 244.2C424 242.7 429.7 240.4 435.1 237.5C445.8 231.7 455.1 223.7 463.9 215.4C466.1 213.3 468.3 211.2 470.4 209.1C471.2 208.3 469.5 208.5 469.2 208.6C468.2 208.8 467.1 209.3 466.3 210.1Z" fill="white"/>
</g>
<mask id="mask13_201_750" style="mask-type:luminance" maskUnits="userSpaceOnUse" x="51" y="51" width="398" height="398">
<path d="M250 448.5C359.629 448.5 448.5 359.629 448.5 250C448.5 140.371 359.629 51.5 250 51.5C140.371 51.5 51.5 140.371 51.5 250C51.5 359.629 140.371 448.5 250 448.5Z" fill="white"/>
</mask>
<g mask="url(#mask13_201_750)">
<path d="M240.5 37.9C251.2 69.8 263.8 101 278.3 131.4C291.5 159.1 306.8 186.2 330.2 206.5C342.1 216.9 355.3 225.7 367.8 235.3C379 243.9 389.7 253.1 400 262.7C420.5 282 439 303.4 454.8 326.8C470.4 349.9 483.1 375 492 401.5C493.1 404.8 494.2 408.1 495.1 411.5C495.5 412.7 496.5 413.7 497.8 413.7C498.8 413.7 500.2 412.8 499.9 411.6C492 384.6 480.2 358.9 465.3 335C450.4 311 432.4 289 412.5 269C402.5 259 392.1 249.5 381.1 240.6C369.3 231 356.9 222.3 344.8 213C332.3 203.4 320.9 192.8 311.4 180.2C302.2 168 294.7 154.6 287.8 140.9C272.9 111.1 260 80.2 248.9 48.7C247.5 44.8 246.2 40.8 244.8 36.9C244.1 34.4 239.5 34.9 240.5 37.9Z" fill="white"/>
</g>
<mask id="mask14_201_750" style="mask-type:luminance" maskUnits="userSpaceOnUse" x="51" y="51" width="398" height="398">
<path d="M250 448.5C359.629 448.5 448.5 359.629 448.5 250C448.5 140.371 359.629 51.5 250 51.5C140.371 51.5 51.5 140.371 51.5 250C51.5 359.629 140.371 448.5 250 448.5Z" fill="white"/>
</mask>
<g mask="url(#mask14_201_750)">
<path d="M312.5 50.6C308.7 56.9 307.3 64 306.6 71.2C305.9 78.3 305.6 85.4 305.4 92.6C305 106.9 305.2 121.3 306 135.6C307.8 164.2 312.2 192.6 319.8 220.2C327.3 247.4 337.9 273.9 351.9 298.4C359 310.8 366.9 322.7 375.7 334C385.4 346.5 395.9 358.3 405.7 370.6C424.6 394.1 442.2 421.4 443.4 452.5C443.5 456.2 443.4 459.9 443.1 463.6C443 465.1 447.9 464.8 448.1 463C451.1 432.6 436.4 403.8 418.8 380.1C409.4 367.4 399 355.6 389 343.4C379.6 332 370.8 320.2 363 307.7C348 283.6 336.4 257.5 328 230.4C319.6 203.2 314.4 175 311.9 146.7C310.6 132.4 310.1 118.1 310.2 103.7C310.2 96.6 310.5 89.5 310.8 82.4C311.2 75.1 311.4 67.7 313.3 60.6C314.2 57.1 315.5 53.8 317.4 50.7C318 49.7 316 49.4 315.5 49.4C314.4 49.4 313.1 49.7 312.5 50.6Z" fill="white"/>
</g>
<mask id="mask15_201_750" style="mask-type:luminance" maskUnits="userSpaceOnUse" x="51" y="51" width="398" height="398">
<path d="M250 448.5C359.629 448.5 448.5 359.629 448.5 250C448.5 140.371 359.629 51.5 250 51.5C140.371 51.5 51.5 140.371 51.5 250C51.5 359.629 140.371 448.5 250 448.5Z" fill="white"/>
</mask>
<g mask="url(#mask15_201_750)">
<path d="M452.8 391.7C428 372.8 403.1 353.9 376.8 336.9C354.3 322.3 330.3 310.2 308.1 295C297.7 287.9 287.8 280.1 279 271C269.6 261.3 262 250.2 256.4 238C250.3 224.6 246.3 210.4 242.8 196.2C239 180.8 235.6 165.3 233.9 149.5C232.2 133.8 232.3 117.9 235.4 102.4C238.4 87.3 243.9 72.8 249.8 58.6C251.2 55.1 252.7 51.6 254.2 48.2C255.1 46.1 250.1 46 249.3 47.9C243.2 62.2 237.2 76.5 233 91.5C228.8 106.7 227.2 122.2 227.9 137.9C228.6 153.8 231.4 169.6 234.9 185.1C238.2 199.8 241.9 214.5 247.1 228.6C252 241.7 258.6 254.1 267.5 264.9C275.6 274.7 285 283.2 295.2 290.8C316.2 306.5 339.7 318.5 362 332.2C388.8 348.7 414.1 367.6 439.2 386.6C442.3 389 445.5 391.4 448.6 393.7C449.6 394.4 451 394.4 452.1 393.9C452.9 393.5 453.8 392.4 452.8 391.7Z" fill="white"/>
</g>
<mask id="mask16_201_750" style="mask-type:luminance" maskUnits="userSpaceOnUse" x="51" y="51" width="398" height="398">
<path d="M250 448.5C359.629 448.5 448.5 359.629 448.5 250C448.5 140.371 359.629 51.5 250 51.5C140.371 51.5 51.5 140.371 51.5 250C51.5 359.629 140.371 448.5 250 448.5Z" fill="white"/>
</mask>
<g mask="url(#mask16_201_750)">
<path d="M287.9 43.8C297.2 67.4 306.4 91.1 316.8 114.3C327.1 137.3 338.4 159.9 351.7 181.4C358.2 192 365.2 202.4 373 212.1C380.9 221.9 389.9 230.6 400.1 237.8C410.3 245 421.4 250.9 431.8 257.9C441.3 264.3 450.4 271.3 459.1 278.9C476.5 294.2 491.8 311.9 504.7 331.1C506.3 333.5 507.8 335.9 509.4 338.3C510 339.2 511.1 340 512 340.5C512.3 340.7 513.6 341.4 513.1 340.6C500.8 320.9 486 302.9 469.3 286.9C460.8 278.8 451.9 271.3 442.5 264.3C432.8 257.1 422.6 250.8 412.3 244.5C406.9 241.2 401.6 237.9 396.6 234.1C391.7 230.4 387.3 226.2 383.2 221.8C374.9 212.8 367.8 202.6 361 192.3C347.1 171 335.3 148.5 324.7 125.4C314.1 102.4 304.7 78.9 295.5 55.3C294.4 52.4 293.2 49.5 292.1 46.6C291.8 45.7 290.6 45 289.8 44.5C289.5 44.3 287.8 43.4 287.9 43.8Z" fill="white"/>
</g>
<mask id="mask17_201_750" style="mask-type:luminance" maskUnits="userSpaceOnUse" x="51" y="51" width="398" height="398">
<path d="M250 448.5C359.629 448.5 448.5 359.629 448.5 250C448.5 140.371 359.629 51.5 250 51.5C140.371 51.5 51.5 140.371 51.5 250C51.5 359.629 140.371 448.5 250 448.5Z" fill="white"/>
</mask>
<g mask="url(#mask17_201_750)">
<path d="M507.7 254.7C488.1 249.5 469.1 242.1 451 232.8C432.9 223.5 415.8 212.2 400.2 199.2C384.6 186.2 370.4 171.5 358 155.4C345.5 139.2 334.7 121.6 326 103C317.2 84.5 310.5 65 306 45C305.5 42.6 304.9 40.1 304.5 37.7C304.4 37.2 299.9 38.8 300.1 40.1C304.1 60.3 310.3 80 318.6 98.9C326.9 117.7 337.2 135.7 349.4 152.3C361.4 168.7 375.2 183.8 390.6 197.2C405.9 210.5 422.6 222.2 440.4 232C458.2 241.8 477.1 249.7 496.7 255.5C499.1 256.2 501.5 256.9 503.9 257.5C504.8 257.7 506.1 256.9 506.8 256.4C506.8 256.2 508.4 254.9 507.7 254.7Z" fill="white"/>
</g>
<mask id="mask18_201_750" style="mask-type:luminance" maskUnits="userSpaceOnUse" x="51" y="51" width="398" height="398">
<path d="M250 448.5C359.629 448.5 448.5 359.629 448.5 250C448.5 140.371 359.629 51.5 250 51.5C140.371 51.5 51.5 140.371 51.5 250C51.5 359.629 140.371 448.5 250 448.5Z" fill="white"/>
</mask>
<g mask="url(#mask18_201_750)">
<path d="M268 45.8C278.8 64.5 292.6 81.4 308.3 96.3C324.1 111.2 341.7 124.2 360.2 135.5C369.3 141.1 378.7 146.3 388.3 151.3C398.9 156.8 409.8 161.7 420.3 167.4C430.4 172.9 440.1 179.1 448.5 187C456.1 194.1 462.7 202.2 468.5 210.8C480.5 228.6 489.2 248.4 497.5 268.2C498.5 270.7 499.5 273.1 500.5 275.6C500.9 276.5 501.9 277.9 502.9 278C504 278.2 503.8 277 503.5 276.4C495.2 256.3 486.8 236.1 475.4 217.5C469.7 208.2 463.3 199.4 456 191.5C448.4 183.2 439.7 176.1 430.2 170.1C420 163.6 409 158.4 398.2 153.1C388.2 148.2 378.4 143.1 368.8 137.6C350.2 126.9 332.3 114.6 316.1 100.4C300.2 86.4 285.9 70.4 274.5 52.4C273.1 50.1 271.7 47.9 270.4 45.6C270 44.9 268.8 43.5 267.9 43.7C267 43.8 267.8 45.3 268 45.8Z" fill="white"/>
</g>
<mask id="mask19_201_750" style="mask-type:luminance" maskUnits="userSpaceOnUse" x="51" y="51" width="398" height="398">
<path d="M250 448.5C359.629 448.5 448.5 359.629 448.5 250C448.5 140.371 359.629 51.5 250 51.5C140.371 51.5 51.5 140.371 51.5 250C51.5 359.629 140.371 448.5 250 448.5Z" fill="white"/>
</mask>
<g mask="url(#mask19_201_750)">
<path d="M504.5 291C488.9 277.8 474.3 263.3 461 247.8C447.8 232.4 435.7 215.9 425.1 198.6C414.4 181.2 405 162.9 397.1 144.1C393.2 134.7 389.6 125.2 386.5 115.5C383.3 105.7 380.8 95.6 377.4 85.8C374 76 369.6 66.4 362.7 58.6C355.7 50.8 346.7 45.2 337.6 40.2C335.4 39 333.1 37.8 330.8 36.5C330 36.1 328.5 36.9 327.8 37.3C327.5 37.4 325.9 38.4 326.6 38.8C335.9 43.8 345.4 48.8 353.4 55.8C361.2 62.7 366.6 71.4 370.4 81C374.3 90.7 376.9 100.9 380 110.9C383 120.6 386.3 130.2 390.1 139.6C397.6 158.5 406.6 176.8 416.9 194.3C427.3 211.8 439 228.6 452 244.3C464.9 260 479.1 274.6 494.4 288C496.3 289.6 498.2 291.3 500.1 292.9C500.7 293.4 502 292.8 502.7 292.5C502.6 292.6 504.9 291.4 504.5 291Z" fill="white"/>
</g>
<mask id="mask20_201_750" style="mask-type:luminance" maskUnits="userSpaceOnUse" x="51" y="51" width="398" height="398">
<path d="M250 448.5C359.629 448.5 448.5 359.629 448.5 250C448.5 140.371 359.629 51.5 250 51.5C140.371 51.5 51.5 140.371 51.5 250C51.5 359.629 140.371 448.5 250 448.5Z" fill="white"/>
</mask>
<g mask="url(#mask20_201_750)">
<path d="M320.3 44.8C329.7 64 339.1 83.2 349.2 102.1C359.3 120.9 370 139.4 381.9 157.1C393 173.6 405.1 189.4 418.5 204C431.3 217.9 445.2 230.8 460.3 242.2C475.4 253.5 491.7 263.2 509.1 270.6C511.2 271.5 513.3 272.4 515.5 273.2C516.5 273.6 517.9 273.4 518.3 272.2C518.6 271 517.5 269.8 516.5 269.4C499.2 262.6 482.9 253.6 467.8 242.8C452.7 232.1 438.8 219.7 426.1 206.3C412.7 192.2 400.7 177 389.6 161C377.6 143.6 366.8 125.5 356.7 107C346.6 88.4 337.2 69.5 327.9 50.5C326.8 48.2 325.6 45.8 324.5 43.5C324 42.4 322.4 41.8 321.3 42.2C319.8 42.5 319.8 43.8 320.3 44.8Z" fill="white"/>
</g>
</svg>
