<svg width="500" height="500" viewBox="0 0 500 500" fill="none" xmlns="http://www.w3.org/2000/svg">
<mask id="mask0_201_725" style="mask-type:luminance" maskUnits="userSpaceOnUse" x="51" y="51" width="398" height="398">
<path d="M250 448.5C359.629 448.5 448.5 359.629 448.5 250C448.5 140.371 359.629 51.5 250 51.5C140.371 51.5 51.5 140.371 51.5 250C51.5 359.629 140.371 448.5 250 448.5Z" fill="white"/>
</mask>
<g mask="url(#mask0_201_725)">
<path d="M237.6 40.7999C204.5 51.4999 173.4 69.0999 148.3 93.3999C122.7 118.3 104.1 150.3 96.8999 185.5C93.2999 203 92.5999 221.1 95.1999 238.7C96.5999 247.9 98.7999 257.1 102.9 265.6C106.5 273 111.4 279.6 117.4 285.3C129 296.2 144 302.8 159.1 307.3C167.5 309.8 176.2 311.7 184.8 313.1C195 314.8 205.3 315.7 215.6 314.6C232.4 312.8 249 305.3 258.2 290.6C263.1 282.8 265.6 273.8 267.4 264.8C269.2 256 269.4 247 262.9 240C260.4 237.3 257.2 235.4 253.4 235.5C254.2 236.9 255.1 238.3 255.9 239.7C268.7 226.4 287.2 220.7 305.3 221.6C324.6 222.6 342.5 230.5 356.6 243.7C371.7 257.8 381.8 276.5 388.3 295.9C395.9 318.6 400 343.3 397.6 367.2C395.4 388.8 387.3 410.2 372.2 426.1C370.4 428 368.5 429.8 366.5 431.5C365.6 432.3 368.5 436.3 369.2 435.7C386 421 396 399.9 399.6 378C403.6 353.3 400.1 327.6 392.9 303.8C386.7 283.2 377 263.2 362.5 247.1C349.1 232.1 331.7 221.4 311.7 218.2C293.2 215.2 273 218.7 258.2 230.7C256.4 232.2 254.7 233.8 253.1 235.4C252.3 236.2 254.6 239.7 255.6 239.6C259.3 239.5 263.1 241.5 264.5 245.1C266.2 249.5 265.5 254.6 264.6 259.1C263 267.7 260.7 276.3 256.5 284C248.5 298.7 233 307.1 216.9 309.6C198.7 312.5 179.6 308.9 161.9 304.2C147.2 300.3 132.4 294.7 120.4 285.1C114.5 280.4 109.4 274.7 105.9 268.1C101.6 260 99.3999 251 98.0999 242C95.5999 225.1 96.0999 207.8 99.3999 191C105.9 157.5 122.7 126.6 146.3 102.1C169.3 78.2999 198 60.3999 228.9 48.7999C232.6 47.3999 236.4 46.0999 240.2 44.7999C241 44.6999 238.9 40.3999 237.6 40.7999Z" fill="white"/>
</g>
<mask id="mask1_201_725" style="mask-type:luminance" maskUnits="userSpaceOnUse" x="51" y="51" width="398" height="398">
<path d="M250 448.5C359.629 448.5 448.5 359.629 448.5 250C448.5 140.371 359.629 51.5 250 51.5C140.371 51.5 51.5 140.371 51.5 250C51.5 359.629 140.371 448.5 250 448.5Z" fill="white"/>
</mask>
<g mask="url(#mask1_201_725)">
<path d="M253.7 235.8C254.2 249.2 244.2 260.6 232.8 266.3C225.8 269.8 218 271.6 210.2 272.6C202.5 273.6 194.6 274.1 186.8 274.1C179.2 274.2 171.3 273.4 164.6 269.4C158.2 265.6 152.9 259.8 148.1 254.1C143.3 248.4 139.3 242.2 136.6 235.2C133.9 228.5 132.4 221.3 131.8 214.1C130.7 199.3 133.5 184.4 138.9 170.6C144.6 156.2 152.9 143.1 162.1 130.8C166.8 124.6 171.7 118.6 176.7 112.6C182 106.4 187.4 100.3 193.4 94.7999C205.1 84.2999 219.2 76.4999 233.7 70.5999C248 64.7999 263 60.8999 278.3 58.8999C293.6 56.8999 309.1 56.8999 324.4 58.9999C328.2 59.4999 331.9 60.0999 335.6 60.8999C336.7 61.0999 336.6 59.6999 336.3 59.0999C335.9 58.0999 334.9 56.9999 333.7 56.7999C318.1 53.6999 302.1 52.6999 286.2 53.7999C270.7 54.9999 255 58.0999 240 63.2999C225 68.4999 210.2 75.5999 197.5 85.1999C190.8 90.1999 184.9 95.9999 179.4 102.2C174 108.3 168.8 114.5 163.7 120.9C153.9 133.3 144.8 146.4 138.2 160.8C131.8 174.8 127.8 190 127.9 205.4C127.9 220.7 132.1 235.9 140.8 248.6C145.4 255.3 150.9 261.4 156.8 266.8C162.8 272.2 169.6 276.1 177.7 277.5C185.6 278.8 193.8 278.2 201.7 277.7C209.7 277.2 217.7 276.4 225.5 274.2C238.9 270.4 251.8 261.6 256.2 247.8C257.2 244.7 257.6 241.5 257.5 238.3C257.5 237.1 256.6 236 255.6 235.4C255 235 253.6 234.7 253.7 235.8Z" fill="white"/>
</g>
<mask id="mask2_201_725" style="mask-type:luminance" maskUnits="userSpaceOnUse" x="51" y="51" width="398" height="398">
<path d="M250 448.5C359.629 448.5 448.5 359.629 448.5 250C448.5 140.371 359.629 51.5 250 51.5C140.371 51.5 51.5 140.371 51.5 250C51.5 359.629 140.371 448.5 250 448.5Z" fill="white"/>
</mask>
<g mask="url(#mask2_201_725)">
<path d="M253.1 234.4C244.7 242.5 233.2 246.8 221.6 246.9C210.1 247 198.8 242.5 189.7 235.6C184.9 231.9 180.4 227.5 176.9 222.5C173.1 216.9 171.3 210.6 170.7 203.9C169.6 190.9 172.2 177.5 177.7 165.7C183 154.3 191.2 144.7 200.4 136.2C209.7 127.6 219.9 119.8 230.2 112.3C235.7 108.3 241.3 104.6 247.4 101.7C253.6 98.7 260.1 96.4 266.6 94.2C279.9 89.8 293.3 85.5 306.9 82.3C320.5 79.1 334.4 77.1 348.5 77.4C361.9 77.7 375.2 80.3 387.8 84.8C390.9 85.9 394 87.2 397 88.6C397.7 88.9 399.4 89.6 400.1 88.9C400.8 88.2 399.3 87.4 398.8 87.2C385.8 81.2 371.9 77.3 357.6 75.7C343.3 74.1 329 75 314.8 77.5C300.3 80.1 286.2 84.2 272.2 88.7C258.7 93 245.1 97.4 233.1 105.1C227.2 108.9 221.7 113.1 216.2 117.4C211.1 121.4 205.9 125.4 201 129.6C191.3 137.9 182.2 147.2 175.8 158.3C169.1 170 165.6 183.4 165.6 196.8C165.6 203.8 166.4 210.9 169.6 217.2C172.5 223 176.8 227.9 181.5 232.2C190.9 240.7 202.8 246.7 215.4 248.7C227.4 250.6 240 248.4 250.3 241.9C252.8 240.3 255.1 238.5 257.3 236.4C258.6 235.4 254.2 233.4 253.1 234.4Z" fill="white"/>
</g>
<mask id="mask3_201_725" style="mask-type:luminance" maskUnits="userSpaceOnUse" x="51" y="51" width="398" height="398">
<path d="M250 448.5C359.629 448.5 448.5 359.629 448.5 250C448.5 140.371 359.629 51.5 250 51.5C140.371 51.5 51.5 140.371 51.5 250C51.5 359.629 140.371 448.5 250 448.5Z" fill="white"/>
</mask>
<g mask="url(#mask3_201_725)">
<path d="M253.8 235.8C242.2 235.8 229.5 235.9 219.6 228.9C210.4 222.4 205.9 211 204.7 200.1C203.3 187.5 205.5 174.5 213.2 164.3C220.4 154.7 230.7 147.9 241 142C262.9 129.4 287.3 121.1 312.4 117.5C324.9 115.7 337.6 115.1 350.3 115.8C356.5 116.1 362.7 116.7 368.8 117.7C375.6 118.7 382.4 120.1 388.8 122.6C400 127 409.5 134.6 417.8 143.1C422.1 147.5 426.2 152.2 430.1 157C434.1 161.9 438.1 166.8 441.1 172.4C442.6 175.2 443.7 178.1 444.4 181.2C444.7 182.6 449.6 182.9 449.3 181.2C447.8 174.6 444.2 168.8 440.1 163.4C436.2 158.3 432.1 153.4 427.9 148.6C419.6 139.2 410.2 130.5 399.1 124.5C386.9 118 372.9 115.6 359.2 114.3C345.8 113 332.4 113 319 114.3C292.8 116.9 267.1 124.4 243.8 136.6C232.7 142.4 221.5 149.1 212.7 158.2C208.4 162.7 204.9 167.8 202.6 173.6C200.1 180 199.2 187 199.3 193.8C199.5 205.2 202.8 217.1 210.7 225.6C219.6 235.1 232.9 237.4 245.3 237.9C248.5 238 251.6 238 254.8 238C255.4 238 257 237.8 256.7 236.9C256.5 236 254.5 235.8 253.8 235.8Z" fill="white"/>
</g>
<mask id="mask4_201_725" style="mask-type:luminance" maskUnits="userSpaceOnUse" x="51" y="51" width="398" height="398">
<path d="M250 448.5C359.629 448.5 448.5 359.629 448.5 250C448.5 140.371 359.629 51.5 250 51.5C140.371 51.5 51.5 140.371 51.5 250C51.5 359.629 140.371 448.5 250 448.5Z" fill="white"/>
</mask>
<g mask="url(#mask4_201_725)">
<path d="M255.7 235.3C250.3 234.9 245.6 231.8 242.2 227.6C238.5 223 236.7 217.3 235.8 211.6C234.8 205.3 234.5 198.8 234.8 192.5C235 186.3 236.1 180 238.9 174.4C243.9 164.5 253.7 157.5 264.1 154.2C270.1 152.3 276.5 151.3 282.8 150.7C289.8 150 296.8 149.6 303.8 149.3C317.1 148.8 330.5 148.3 343.9 148.7C356.4 149.1 369 150.5 380.7 154.9C392.7 159.4 402.8 167.3 412.5 175.5C417.4 179.6 422.3 183.8 426.8 188.3C431.1 192.6 434.9 197.5 438.1 202.7C451.7 224.8 454.3 251.3 455.4 276.7C455.5 280.1 455.7 283.5 455.8 286.9C455.8 287 460.6 286.3 460.6 285.4C459.7 258.7 458.6 230.9 446 206.7C443.2 201.4 439.9 196.3 436.1 191.7C431.8 186.6 426.7 182.2 421.7 177.8C411.9 169.4 402 160.8 390.2 155.4C378.6 150 365.7 148 353 147.3C339.5 146.6 325.9 147.1 312.4 147.6C298.5 148 284.2 148.6 270.7 151.8C259 154.6 247.3 159.4 239.2 168.6C235.3 173 232.7 178.3 231.4 184C229.9 190.4 229.9 197 230.3 203.5C230.9 215.1 233.1 228.6 244.2 234.8C246.4 236 248.8 236.8 251.4 237C252.4 237.1 253.5 236.6 254.4 236.3C254.4 236.1 255.9 235.3 255.7 235.3Z" fill="white"/>
</g>
<mask id="mask5_201_725" style="mask-type:luminance" maskUnits="userSpaceOnUse" x="51" y="51" width="398" height="398">
<path d="M250 448.5C359.629 448.5 448.5 359.629 448.5 250C448.5 140.371 359.629 51.5 250 51.5C140.371 51.5 51.5 140.371 51.5 250C51.5 359.629 140.371 448.5 250 448.5Z" fill="white"/>
</mask>
<g mask="url(#mask5_201_725)">
<path d="M260.4 237.7C266.2 235.6 272.2 234.1 278.3 233.1C284.2 232.2 290.5 231.5 296.3 232.9C301.7 234.3 306.3 237.8 310.6 241.2C315.1 244.7 319.4 248.5 323.5 252.4C331.7 260.3 339.4 269.1 345.4 278.8C348.6 283.9 350.8 289.3 351.8 295.2C352.9 301.3 353.2 307.6 353.5 313.9C354.2 325.7 354.2 337.4 352.2 349C350.4 359.5 347.2 369.7 342.8 379.4C333.9 398.9 320.1 415.8 302.8 428.3C285.4 440.8 264.7 448.8 243.4 451C240.8 451.3 238.3 451.5 235.7 451.6C234.5 451.7 234.4 452.9 234.8 453.8C235.3 454.8 236.4 455.9 237.6 455.8C259.8 454.9 281.6 447.9 300.3 436C319 424.1 334.1 407.4 344.2 387.7C349.2 377.9 353 367.5 355.3 356.7C357.8 345.1 358.5 333.5 358 321.7C357.7 315.1 357.4 308.5 356.7 301.9C356 295.6 354.7 289.5 352 283.8C349.4 278.3 345.8 273.3 342.1 268.5C338.4 263.7 334.4 259.1 330.2 254.7C326.2 250.5 321.9 246.5 317.4 242.7C312.8 238.8 308 234.8 302.7 231.8C297.2 228.7 291.3 227.7 285.1 228C278.8 228.3 272.5 229.4 266.5 230.9C263.5 231.7 260.5 232.6 257.5 233.6C255.4 234.5 258.4 238.4 260.4 237.7Z" fill="white"/>
</g>
<mask id="mask6_201_725" style="mask-type:luminance" maskUnits="userSpaceOnUse" x="51" y="51" width="398" height="398">
<path d="M250 448.5C359.629 448.5 448.5 359.629 448.5 250C448.5 140.371 359.629 51.5 250 51.5C140.371 51.5 51.5 140.371 51.5 250C51.5 359.629 140.371 448.5 250 448.5Z" fill="white"/>
</mask>
<g mask="url(#mask6_201_725)">
<path d="M258.4 238.2C282.1 241 299.9 261 306.1 283.1C310 297.1 309.5 312.3 306.7 326.5C305.2 333.8 303.2 341.1 300.7 348.1C298.2 355.1 295.4 362 292 368.6C288.6 375.2 284.3 381.2 279.1 386.4C274.1 391.4 268.5 395.7 262.7 399.8C250.8 408.2 238.3 416.6 223.7 419.6C216.1 421.1 208.4 421.4 200.7 421.7C192.6 422 184.4 422.2 176.3 421.9C168.4 421.6 160.6 420.4 153 418.4C145.5 416.4 138.2 413.8 131 411C123.9 408.3 116.6 405.7 110.2 401.6C105.3 398.5 101.2 394.2 97.6999 389.6C90.3999 379.9 85.5999 368.4 79.7999 357.8C78.3999 355.2 76.8999 352.6 75.2999 350.1C74.7999 349.3 73.6999 348.2 72.6999 348.7C71.6999 349.2 72.0999 350.9 72.4999 351.7C79.3999 362.4 84.0999 374.3 90.7999 385.1C94.0999 390.5 97.8999 395.6 102.5 400C107.7 404.9 113.9 408.4 120.5 411.1C127.9 414.2 135.4 417 142.9 419.6C150.5 422.2 158.2 424.3 166.1 425.4C174.3 426.5 182.6 426.7 190.9 426.6C199 426.5 207.2 426.3 215.3 425.6C223.1 424.9 230.8 423.3 238.1 420.3C245.1 417.4 251.5 413.5 257.8 409.3C270 401.1 282.4 392.3 290.7 380C295 373.6 298.2 366.5 301.1 359.4C304 352.2 306.6 344.8 308.5 337.3C312.4 322.4 314 306.8 311.5 291.5C309.4 278.7 304.1 266.5 296 256.4C288.4 246.8 278.2 239.1 266.4 235.5C263.6 234.6 260.7 234 257.7 233.7C255 233.3 256.4 237.9 258.4 238.2Z" fill="white"/>
</g>
<mask id="mask7_201_725" style="mask-type:luminance" maskUnits="userSpaceOnUse" x="51" y="51" width="398" height="398">
<path d="M250 448.5C359.629 448.5 448.5 359.629 448.5 250C448.5 140.371 359.629 51.5 250 51.5C140.371 51.5 51.5 140.371 51.5 250C51.5 359.629 140.371 448.5 250 448.5Z" fill="white"/>
</mask>
<g mask="url(#mask7_201_725)">
<path d="M256.9 238C254.8 232.4 252.6 226.6 252 220.5C251.4 214.6 252.8 209.2 255.8 204.1C260.8 195.5 268.2 188.4 276.6 183C294.7 171.4 316.5 168.4 337.5 171.2C349.4 172.8 360.9 176.2 372 180.6C382.6 184.8 393.3 189.7 402.3 197C419.5 210.9 427.6 232.5 432 253.5C434.5 265.5 436.3 277.8 437.6 290C438.9 302.5 439.7 315.2 439.4 327.8C439.3 330.9 439.2 334 439 337.1C438.9 338.2 439.8 339.4 440.5 340.2C440.9 340.6 442 341.4 442.1 340.3C443.7 314.5 441 288.4 436.5 263C432.4 240 424.8 216.6 408.3 199.4C400.2 191 390.1 185.1 379.6 180.3C368.4 175.2 356.7 171.1 344.6 168.5C322.8 163.9 299.7 165.1 279.7 175.5C270.7 180.2 262.7 186.7 256.6 194.9C253.2 199.4 250.3 204.3 249.3 209.9C248.3 215.9 249.4 222.1 251.2 227.9C252.1 230.9 253.2 233.8 254.3 236.8C254.6 237.7 255.4 239.2 256.4 239.5C257.2 239.8 257.1 238.7 256.9 238Z" fill="white"/>
</g>
<mask id="mask8_201_725" style="mask-type:luminance" maskUnits="userSpaceOnUse" x="51" y="51" width="398" height="398">
<path d="M250 448.5C359.629 448.5 448.5 359.629 448.5 250C448.5 140.371 359.629 51.5 250 51.5C140.371 51.5 51.5 140.371 51.5 250C51.5 359.629 140.371 448.5 250 448.5Z" fill="white"/>
</mask>
<g mask="url(#mask8_201_725)">
<path d="M260.9 235.3C266.1 217.4 282.8 205.7 300.3 201.5C310.6 199 321.4 198.8 332 199.7C342.2 200.6 352.5 202.6 360.8 208.8C368.6 214.6 375.5 221.8 381.7 229.3C387.8 236.6 393.2 244.5 397.9 252.8C407.7 270.2 414.3 289.3 417.4 309.1C420.8 330.7 420 352.9 415.5 374.2C414.9 376.8 414.3 379.4 413.7 381.9C413.6 382.4 415.3 383.3 415.7 383.5C415.9 383.6 417.9 384.8 418 384.5C423.6 362.6 425.3 339.7 422.5 317.2C420 296.7 413.8 276.7 404 258.5C394.7 241.2 382.2 225.2 367.1 212.6C362.9 209.1 358.3 205.9 353.3 203.4C348.5 201 343.4 199.4 338.2 198.4C327.6 196.3 316.4 195.9 305.6 197.2C286.7 199.4 267.6 208.6 259 226.5C258 228.5 257.2 230.6 256.6 232.8C256.4 233.5 260.9 235.4 260.9 235.3Z" fill="white"/>
</g>
<mask id="mask9_201_725" style="mask-type:luminance" maskUnits="userSpaceOnUse" x="51" y="51" width="398" height="398">
<path d="M250 448.5C359.629 448.5 448.5 359.629 448.5 250C448.5 140.371 359.629 51.5 250 51.5C140.371 51.5 51.5 140.371 51.5 250C51.5 359.629 140.371 448.5 250 448.5Z" fill="white"/>
</mask>
<g mask="url(#mask9_201_725)">
<path d="M256.9 238.5C275.8 249 284.2 272.4 280.3 293.1C275.9 316 259.1 334.1 238.9 344.5C216.1 356.3 189.9 358.8 164.6 359.3C150.7 359.5 136.8 359.4 122.9 358.9C116.2 358.7 109.4 358.3 102.8 357.1C97.4001 356.1 92.0001 354.4 86.9001 352.3C66.0001 343.4 49.4001 326.8 35.1001 309.6C33.4001 307.5 31.7001 305.4 30.0001 303.2C29.0001 301.9 24.3001 303.5 25.4001 304.9C39.7001 323 56.0001 340.8 76.8001 351.6C87.8001 357.3 99.6001 360.3 112 361.2C119.1 361.7 126.1 361.8 133.2 361.9C140.3 362 147.5 362.1 154.6 362.1C181.5 362 209.1 360.4 234.2 349.7C256.2 340.3 275.6 323.5 283.2 300.2C286.6 289.6 287.2 278.2 284.3 267.4C281.5 257.2 275.7 247.5 267.4 240.9C265.3 239.2 263.2 237.8 260.9 236.5C259.9 236 258.4 236.3 257.5 236.8C256.8 237 255.9 237.9 256.9 238.5Z" fill="white"/>
</g>
<mask id="mask10_201_725" style="mask-type:luminance" maskUnits="userSpaceOnUse" x="51" y="51" width="398" height="398">
<path d="M250 448.5C359.629 448.5 448.5 359.629 448.5 250C448.5 140.371 359.629 51.5 250 51.5C140.371 51.5 51.5 140.371 51.5 250C51.5 359.629 140.371 448.5 250 448.5Z" fill="white"/>
</mask>
<g mask="url(#mask10_201_725)">
<path d="M253.4 233.7C262.1 244.4 267.8 257.6 269.2 271.4C270.5 284.4 267.9 297.5 261.4 308.8C255.2 319.5 245.7 328.3 234.3 333.1C227.2 336 219.6 337.3 212 338C203.9 338.8 195.8 339.3 187.7 339.7C171.7 340.6 155.2 340.8 139.5 337.2C132.3 335.5 125.4 332.9 119.2 328.9C113.4 325.1 108.2 320.4 103.7 315.1C94.2002 304 86.9002 290.8 81.8002 277.2C76.2002 262.3 73.6002 246.6 72.6002 230.7C72.1002 222.6 71.9002 214.4 71.8002 206.3C71.7002 198.6 71.7002 190.8 71.9002 183.1C72.3002 167.9 73.7002 152.5 78.0002 137.8C79.0002 134.3 80.3002 130.8 81.7002 127.3C82.0002 126.6 77.3002 125.1 76.8002 126.1C70.9002 140.6 68.4002 156.2 67.4002 171.8C66.4002 187.8 66.6002 204 67.2002 220C67.8002 236.3 69.4002 252.6 74.2002 268.3C78.7002 282.8 85.5002 296.7 94.6002 308.9C103.4 320.6 114.5 330.2 128.4 335.2C144 340.9 161 342.1 177.5 341.8C185.9 341.7 194.3 341.1 202.7 340.5C210.8 339.9 219 339.5 227 337.9C233.8 336.5 240.5 334.2 246.4 330.5C251.7 327.2 256.4 323.1 260.3 318.3C268.6 308.4 273.6 295.9 274.4 283C275.2 269 271.4 254.9 264.2 242.9C262.4 239.9 260.4 237.1 258.2 234.4C257.6 233.6 256.2 233.4 255.3 233.2C255.1 233.3 252.9 233.1 253.4 233.7Z" fill="white"/>
</g>
<mask id="mask11_201_725" style="mask-type:luminance" maskUnits="userSpaceOnUse" x="51" y="51" width="398" height="398">
<path d="M250 448.5C359.629 448.5 448.5 359.629 448.5 250C448.5 140.371 359.629 51.5 250 51.5C140.371 51.5 51.5 140.371 51.5 250C51.5 359.629 140.371 448.5 250 448.5Z" fill="white"/>
</mask>
<g mask="url(#mask11_201_725)">
<path d="M262.9 241.1C280.8 248.4 291.5 267 295.2 285.2C299.4 305.6 296.1 328.2 284.5 345.6C272.5 363.6 252.6 374.5 232 379.9C219.9 383.1 207.4 384.7 195 385.6C182.2 386.6 169.4 387.2 156.6 387.2C132.5 387.3 107.7 384.8 85.9999 373.7C83.3999 372.4 80.8999 371 78.4999 369.4C77.4999 368.8 75.9999 369 75.4999 370.1C74.9999 371.3 75.7999 372.6 76.7999 373.2C98.0999 386.6 123.6 391 148.4 391.6C161.7 391.9 175 391.3 188.3 390.5C201.2 389.7 214.2 388.6 226.9 385.9C248.8 381.2 270.7 371.3 284.9 353.4C298.7 336 303.6 312.8 300.7 291C298 271 288 250.5 270.2 240C268 238.7 265.7 237.6 263.4 236.7C262.3 236.3 261 237 260.9 238.2C260.7 239.6 261.8 240.6 262.9 241.1Z" fill="white"/>
</g>
<mask id="mask12_201_725" style="mask-type:luminance" maskUnits="userSpaceOnUse" x="51" y="51" width="398" height="398">
<path d="M250 448.5C359.629 448.5 448.5 359.629 448.5 250C448.5 140.371 359.629 51.5 250 51.5C140.371 51.5 51.5 140.371 51.5 250C51.5 359.629 140.371 448.5 250 448.5Z" fill="white"/>
</mask>
<g mask="url(#mask12_201_725)">
<path d="M255 237.5C262 237.5 268.9 237.5 275.9 237.5C279.1 237.5 282.3 237.5 285.4 238.4C288.2 239.3 290.8 240.8 293.2 242.5C298.2 246 303.1 249.9 307.6 254.1C312.1 258.4 315.6 263.3 318.5 268.8C330.3 291.5 334.4 318.8 329.2 343.9C325 364.5 314.1 383.2 299.4 398.1C284.1 413.8 265 425 244.2 431.9C221 439.6 196.1 441.9 171.8 441C168.8 440.9 165.9 440.7 162.9 440.6C161.8 440.5 160.6 441 159.6 441.5C159.3 441.7 158 442.7 159.1 442.8C184.4 444.4 210.2 442.9 234.8 436.3C257.4 430.2 278.9 419.7 296.6 404.1C312.6 390 325.4 371.9 331.7 351.4C339.2 326.6 336.9 299 327 275.2C324.5 269.3 321.7 263.4 317.8 258.3C314 253.4 309.3 249.3 304.4 245.5C299.7 241.8 294.8 237.5 288.9 235.9C285.7 235 282.3 235.1 278.9 235.1C275.4 235.1 271.9 235.1 268.5 235.1C265.1 235.1 261.5 235.1 258.1 235.1C257 235.1 255.6 235.6 254.8 236.3C253.9 237.1 254 237.5 255 237.5Z" fill="white"/>
</g>
</svg>
