<svg width="500" height="500" viewBox="0 0 500 500" fill="none" xmlns="http://www.w3.org/2000/svg">
<g clip-path="url(#clip0_201_686)">
<mask id="mask0_201_686" style="mask-type:luminance" maskUnits="userSpaceOnUse" x="51" y="51" width="398" height="398">
<path d="M250 448.5C359.629 448.5 448.5 359.629 448.5 250C448.5 140.371 359.629 51.5 250 51.5C140.371 51.5 51.5 140.371 51.5 250C51.5 359.629 140.371 448.5 250 448.5Z" fill="white"/>
</mask>
<g mask="url(#mask0_201_686)">
<path d="M247.2 238.4C252.1 240.9 257.8 239.1 260.4 234.3C263.1 229.2 260.7 224 255.7 221.6C250.5 219.1 243.8 219.6 238.9 222.5C232.8 226.2 229.5 232.9 226.9 239.2C226.7 239.8 227 240.2 227.5 240.5C238.2 247.8 255.4 256.9 267.6 247.3C277.7 239.3 274 223.3 264.9 216.2C252.8 206.8 234.2 209.3 221.4 215.9C215.6 218.9 211.2 223.5 210 230.1C208.9 236 210.5 242.3 213.4 247.4C220.9 260.7 236.3 264.6 250.6 264C258.7 263.7 266.9 262.2 274.6 260C281 258.2 287.8 255.1 290 248.3C292.2 241.5 290.2 233.2 287.6 226.8C285.1 220.6 281.1 215 276.4 210.3C266.5 200.5 252.9 194.7 239 195C211 195.6 186.1 223.4 191.4 251.5C192.8 258.9 196.9 265.2 203.4 269.1C209.5 272.8 216.7 274.3 223.7 275.1C241.4 277 259.9 275.1 277 270.2C284.4 268.1 292.9 265.7 297.2 258.8C301 252.7 301.8 244.5 301.5 237.4C301 223.3 295.1 209.5 285.4 199.2C265.4 177.9 230 175.7 206.8 193.2C194.4 202.6 186.5 217 182.9 231.9C179.7 244.9 179.9 260.3 187.5 271.8C196.4 285.3 212.6 287.7 227.4 289.1C237.1 290 246.8 290.7 256.5 291.2C264.8 291.6 273.1 292 281.4 291.6C295.7 290.8 310.7 286.3 317.8 272.7C321.3 265.9 322.7 258.1 323.2 250.5C323.8 242.4 323.5 234.3 322 226.4C318.9 210.5 310.4 197.1 296.9 188.1C284.5 179.9 269.6 175.6 254.8 175.3C225.8 174.6 197 188.3 181.5 213.3C173.9 225.6 169.6 240 169 254.5C168.4 268.9 171.4 284.8 179.5 296.9C189 311.1 207.6 315.5 223.5 317.3C241.4 319.4 259.6 317.3 277.3 314.6C292.8 312.3 310.9 310.7 323.1 299.7C334.6 289.3 339.1 273.1 340.2 258.1C342.6 226.3 328.6 194.5 302 176.4C289.5 167.9 274.7 162.6 259.5 161.7C241.9 160.6 224.2 165.1 207.8 171.2C180.4 181.4 153.6 199.9 145.6 229.5C141 246.6 142.4 265.2 147 282.2C151.3 297.9 158.7 314 171.6 324.4C184.1 334.4 200.2 338.9 215.8 341.1C230.7 343.2 245.8 343.1 260.6 340.8C289.4 336.2 317.6 322.4 335.7 299.1C352.8 277.2 360.5 247.7 355.2 220.4C352.5 206.7 346.4 193.9 337.3 183.3C327.7 172.2 315.1 163.8 301.7 158C274.1 146.1 242.2 144.7 213.2 151.6C184 158.5 156.4 174.5 138.3 198.7C120.7 222.3 112.5 253.3 117.2 282.4C119.6 297.4 125.6 311.4 134.5 323.7C144.2 337.1 156.7 348.5 170.2 357.9C196.1 375.8 227.3 385.3 258.8 381.7C287.6 378.4 315.3 365.4 335.8 344.7C357 323.3 369.1 294.3 371.1 264.4C373 234.2 364.6 203.8 346.6 179.4C329.2 155.8 303.7 138.4 275.8 129.8C243.6 120 209.5 123 178.2 134.7C162.9 140.4 147.4 147.7 136.2 160C130.4 166.4 126.1 173.9 122.4 181.6C118.7 189.4 115.3 197.4 112.2 205.4C99.4 238.1 90.4 274.3 99.6 309C107.3 337.9 127.2 362.3 151.5 379C179.4 398.2 213.3 407.1 246.8 409.6C264.4 410.9 282.9 411.6 300.2 407.4C315.5 403.7 328.9 395.1 340 383.9C351.3 372.4 360.4 358.8 367.8 344.5C375.6 329.5 381.4 313.5 385.2 297C389 280.4 390.7 263.3 390.1 246.2C389.5 228.8 386.5 211.1 379 195.2C371.7 179.6 360.2 166.5 348.1 154.5C336.3 142.7 323.8 131.5 309.6 122.7C294.4 113.4 277.7 108.1 260.1 105.3C241.7 102.4 222.6 100.9 204 103.2C173.9 106.8 146.5 121.8 125.4 143.3C102.8 166.4 88.3 195.8 81.1 227.1C77.2 243.9 75.3 261.2 75 278.5C74.7 296 75.2 314.2 79.9 331.2C84.5 347.7 94.4 361.6 105.9 374C116.8 385.7 129.1 396.1 142.3 405.2C168.7 423.3 199.3 435.6 231.2 439.3C263.3 443 296.7 438 325.9 423.9C353.8 410.4 376.8 388.5 392.4 361.8C408.4 334.5 416.5 303 416.3 271.4C416.1 237 406.6 202.8 390.2 172.6C382.4 158.2 373 144.5 361.5 132.7C350 120.9 336.4 111.7 321.4 104.9C306.2 98.0002 290 93.6002 273.7 90.4002C256.1 86.9002 238.1 84.4002 220.1 83.8002C202 83.1002 183.6 84.5002 166.1 89.6002C151.4 93.9002 137.5 100.6 124.9 109.3C98.3 127.7 78.3 154.2 65.8 183.8C53.4 213.2 47.6 245.6 48.6 277.5C49.5 306.8 56 336.2 68.7 362.7C81.4 389.4 100.6 412.7 125 429.4C152.6 448.2 185.5 458.3 218.6 461.4C255.6 464.8 293.4 459.8 329.2 450.1C345.1 445.7 360.8 440 375 431.6C388.4 423.7 400 413.3 409.1 400.8C426.8 376.6 434.7 346.5 437.9 317.1C441.7 281.7 440 244.9 431.1 210.3C422.9 178.4 407.8 147.8 384.6 124.1C363.2 102.2 335.6 87.3002 306.6 78.0002C276.4 68.3002 244.5 64.2002 212.9 63.8002C178.5 63.4002 143.8 68.4002 114.1 86.6002C87.3 102.9 66.2 127.6 52 155.4C36.2 186.4 28.3 221.2 26 255.8C23.7 290.1 27.3 325.1 38.4 357.8C48.4 387.3 64.8 414.5 87 436.5C108.1 457.3 134.2 473.1 162.9 480.7C198.5 490.1 236.5 487 272.6 482.1C307.3 477.4 342.2 469.1 373.3 452.3C399.9 437.9 423.8 417.3 439 391C456.6 360.7 459.4 325.3 460.7 291.1C462.1 255.2 463.2 217.8 449.7 183.8C443.4 167.9 434.3 153.3 424.1 139.6C414.1 126 403.1 113.1 390.9 101.3C378.8 89.6002 365.4 79.1002 350.8 70.7002C336.3 62.3002 320.6 56.0002 304.5 51.4002C271.2 42.1002 236.1 40.9002 202 46.1002C169.2 51.1002 137.4 61.9002 107.5 76.3002C106.5 76.8002 106.6 77.5002 107.4 78.1002C108.3 78.7002 110 78.8002 110.9 78.3002C142 63.4002 175.1 52.2002 209.3 47.7002C241.9 43.4002 275.5 45.2002 307.1 54.9002C322.6 59.6002 337.5 66.2002 351.3 74.7002C365.1 83.2002 377.6 93.5002 389.1 104.8C400.6 116.2 411 128.6 420.5 141.7C430.2 155 438.9 169.3 445 184.7C457.9 217.4 457 253.2 455.7 287.8C454.5 321 452.4 355.5 436.6 385.4C422.9 411.2 400.9 431.8 375.9 446.6C347 463.7 314.1 472.7 281.1 477.9C263.9 480.6 246.4 482.5 229 483.4C211.3 484.3 193.3 483.9 175.8 480.7C146.9 475.3 120.3 461.4 98.4 441.9C76.4 422.4 59.4 397.8 48.2 370.6C35.9 340.2 30.4 307 30.6 274C30.8 240.8 36.2 207 48.3 176C59.5 147.2 77 120.7 101 100.9C112.4 91.4002 125.2 83.6002 139 78.1002C154.9 71.7002 171.9 68.5002 189 67.2002C205.4 65.9002 221.9 66.3002 238.2 67.6002C253.1 68.8002 267.9 70.9002 282.4 74.2002C311.1 80.6002 339 91.7002 362.6 109.5C387.6 128.2 405.9 154.2 417.5 183.1C430.6 215.5 435.2 250.7 434.9 285.5C434.6 315 431.1 345.2 419.7 372.6C414.3 385.6 407.1 397.9 397.7 408.4C387.4 420 374.5 428.9 360.6 435.6C346.2 442.5 330.9 447.1 315.4 450.7C297.7 454.9 279.8 457.9 261.7 459.2C227.9 461.7 193.6 458.1 162 445.5C134 434.4 109.5 416.2 91.4 392.1C74.7 369.7 63.7 343.2 58.1 316C52.3 287.8 52.2 258.5 57.4 230.1C63.2 198.4 75.6 167.6 95.8 142.4C114.3 119.2 139.6 100.6 168.3 92.2002C201.8 82.4002 238 86.3002 271.7 92.8002C287.4 95.8002 303 100 317.6 106.5C332.2 113 345.6 121.9 356.8 133.3C368 144.6 377.1 157.8 384.8 171.7C392.7 186.1 399.1 201.4 403.6 217.3C412.5 248.3 414.2 281.6 406.8 313.2C400.1 341.7 386.2 368.8 366 390.2C345 412.5 317.4 427.6 287.6 434.2C257.2 440.9 225.4 438.8 196 429C166.8 419.2 140.2 402.4 118.1 381C106.7 370 95.8 357.7 89.2 343.1C82.1 327.4 80.7 309.7 80.2 292.7C79.2 259.7 83.7 226.1 96.6 195.6C108 168.5 126.4 144.4 150.6 127.6C162.2 119.5 175.2 113.1 188.9 109.4C205.7 104.8 223.3 104.5 240.5 106C257.9 107.5 275.6 110.2 291.7 117.2C306.5 123.6 319.6 133.5 331.5 144.3C343.6 155.2 355.5 166.9 364.9 180.2C374.7 194.1 380.7 209.9 383.4 226.6C388.5 259 383.9 293.2 372.2 323.7C366.5 338.7 358.9 353 349.6 366.1C341 378.2 330.7 389.3 318 397C303.4 405.9 286.8 408 270 408.1C253.2 408.2 236.4 406.9 219.9 403.7C189.2 397.7 159.6 384.7 137 362.7C126.8 352.8 118.1 341.2 111.8 328.4C104.9 314.3 101.3 299 100.9 283.4C99.9 249.3 112.1 215.5 126.3 185C129.7 177.7 133.5 170.5 138.6 164.3C143.6 158.1 149.9 153 156.7 148.9C171 140.2 187.5 134.3 203.8 130.6C219.8 127 236.5 125.7 252.8 127.9C266.7 129.7 280.4 133.9 293 140.1C318.3 152.4 339.9 172.5 352.8 197.6C366.2 223.6 369.8 254.2 363.9 282.8C358.1 311.1 342.6 336.7 319.7 354.4C297.7 371.3 269.9 381.1 242.1 380.4C211 379.6 181.8 365.2 158.9 344.8C147 334.2 136.6 321.8 129.9 307.3C124 294.5 121.2 280.4 121.3 266.3C121.5 237.7 133 209.5 153 189.1C173.5 168.3 201.4 155.6 230.1 151.8C258.3 148.1 288.5 152.4 313 167.6C324.9 175 335.3 185 342.1 197.3C348.6 208.9 351.9 222 352.2 235.3C352.9 262.3 342 289.7 322.4 308.4C301.6 328.3 273.3 338.7 244.8 340.3C230.3 341.1 215.4 339.7 201.4 335.9C193.9 333.8 186.5 330.9 180 326.5C173.4 322.1 168 316.2 163.7 309.5C154.8 295.4 149.9 278.5 148.5 262C147.1 245.7 149.2 228.8 157.5 214.5C172.1 189.2 201.2 175.5 228.4 168.4C244.5 164.2 261.3 163 277.3 168.1C291.2 172.5 303.8 180.8 313.6 191.6C334.1 214.3 341.3 249.2 331.7 278.3C329.4 285.3 325.8 292.2 320.5 297.5C314.9 303 307.8 306.2 300.3 308.2C292.5 310.3 284.5 311.4 276.5 312.6C267.8 313.9 259.1 315.1 250.3 315.7C233.4 316.9 215.5 316 199.7 309.2C192.1 305.9 186.3 300.7 182.4 293.4C179 287 176.7 280 175.5 272.9C170.6 245.5 180.3 215.5 201.6 197.3C222.8 179.3 253.8 173.4 279.9 183.4C294.3 188.9 306.8 199.1 313.1 213.5C319.2 227.5 320.1 244 317.5 258.9C316.2 266.3 313.7 273.7 308.5 279.2C303.7 284.3 297.1 287.1 290.4 288.5C283.5 289.9 276.3 290 269.3 289.8C260.2 289.6 251.1 289.1 242 288.4C233.5 287.8 224.9 287.3 216.5 285.8C209.1 284.5 201.8 282 196.3 276.6C186.7 267.1 185 252.1 186.9 239.3C189 224.6 195.7 209.8 206.5 199.5C216.6 189.8 230.5 184.4 244.6 184.6C258.6 184.8 271.8 190.5 281.4 200.7C290.8 210.7 296.5 224.2 296.9 237.9C297.1 244.8 296.4 253 292.4 258.9C287.8 265.7 278 267.6 270.6 269.5C262 271.7 253.2 273 244.4 273.5C236.3 273.9 228 273.9 220.1 272.5C213.4 271.3 206.7 268.9 202.1 263.7C196.9 257.8 195.7 249.4 196.2 241.8C197.2 228.5 204.4 216 214.9 207.7C225.4 199.4 239 195.9 252 199.6C264.9 203.3 276 212.9 281.9 224.8C284.9 230.9 286.9 238.1 286.2 244.9C285.4 252.9 278.8 256.4 271.8 258.3C257.7 262 239.3 265.3 226.5 256.3C217.4 250 211.5 235.8 217.4 225.5C221.1 219.1 228.9 216.2 235.7 214.5C242.9 212.7 250.9 212.3 257.7 215.7C267.2 220.4 272.9 234.2 266.3 243.5C257.6 255.6 240.6 245.5 231.5 239.3C231.7 239.7 231.9 240.2 232.1 240.6C235.1 233.2 240.6 221.8 250.4 223C254.1 223.5 257.3 226.5 257 230.4C256.8 232.2 256.1 233.9 254.9 235.3C254.1 236.2 252.5 237.8 251.2 237.2C250.2 236.7 248.7 236.4 247.7 237C246.6 237.1 246.2 237.9 247.2 238.4Z" fill="white"/>
</g>
</g>
<defs>
<clipPath id="clip0_201_686">
<rect width="500" height="500" fill="white"/>
</clipPath>
</defs>
</svg>
