<svg width="500" height="500" viewBox="0 0 500 500" fill="none" xmlns="http://www.w3.org/2000/svg">
<mask id="mask0_201_731" style="mask-type:luminance" maskUnits="userSpaceOnUse" x="51" y="51" width="398" height="398">
<path d="M250 448.5C359.629 448.5 448.5 359.629 448.5 250C448.5 140.371 359.629 51.5 250 51.5C140.371 51.5 51.5 140.371 51.5 250C51.5 359.629 140.371 448.5 250 448.5Z" fill="white"/>
</mask>
<g mask="url(#mask0_201_731)">
<path d="M142.7 23.4001C151 43.1001 160 63.2001 174.4 79.3001C181.4 87.1001 189.8 93.8001 199.4 98.3001C211.3 103.8 224.5 105.7 237.5 107C265.7 109.8 294.2 109 322.5 108.9C351.2 108.8 379.9 108.5 408.6 108.1C437.2 107.7 465.8 107 494.4 106.2C498 106.1 501.6 106 505.2 105.9C506.2 105.9 505 104.1 504.8 103.9C504.3 103.2 503.2 102.1 502.2 102.1C474.2 102.9 446.2 103.6 418.2 104.1C390.3 104.6 362.5 104.9 334.6 105.1C320.6 105.2 306.6 105.2 292.6 105.2C278.9 105.2 265.1 105.2 251.4 104.5C238 103.8 224.4 102.8 211.3 99.5001C200.3 96.7001 190.3 91.8001 181.8 84.2001C166.4 70.4001 157.1 50.9001 149.1 32.3001C148.1 29.9001 147.1 27.5001 146.1 25.2001C145.7 24.2001 144.7 23.1001 143.7 22.6001C142.8 22.1001 142.3 22.4001 142.7 23.4001Z" fill="white"/>
</g>
<mask id="mask1_201_731" style="mask-type:luminance" maskUnits="userSpaceOnUse" x="51" y="51" width="398" height="398">
<path d="M250 448.5C359.629 448.5 448.5 359.629 448.5 250C448.5 140.371 359.629 51.5 250 51.5C140.371 51.5 51.5 140.371 51.5 250C51.5 359.629 140.371 448.5 250 448.5Z" fill="white"/>
</mask>
<g mask="url(#mask1_201_731)">
<path d="M203.4 45.7001C201.4 57.1001 209.1 68.0001 218.6 73.5001C230.4 80.4001 244.7 80.7001 257.9 80.9001C288.2 81.4001 318.5 81.8001 348.8 82.3001C365.9 82.6001 382.9 82.8001 400 83.1001C400.6 83.1001 402.5 82.8001 402.5 81.9001C402.5 80.9001 400.5 80.9001 400 80.9001C370.4 80.5001 340.7 80.0001 311.1 79.6001C296.4 79.4001 281.6 79.2001 266.9 78.9001C253.9 78.7001 240 79.5001 227.7 74.6001C216.3 70.1001 206.1 58.5001 208.4 45.6001C208.7 44.3001 203.7 44.1001 203.4 45.7001Z" fill="white"/>
</g>
<mask id="mask2_201_731" style="mask-type:luminance" maskUnits="userSpaceOnUse" x="51" y="51" width="398" height="398">
<path d="M250 448.5C359.629 448.5 448.5 359.629 448.5 250C448.5 140.371 359.629 51.5 250 51.5C140.371 51.5 51.5 140.371 51.5 250C51.5 359.629 140.371 448.5 250 448.5Z" fill="white"/>
</mask>
<g mask="url(#mask2_201_731)">
<path d="M237.5 38.8C237.9 43.3 239 47.8 240.7 52C242.3 55.9 244.4 60 247.7 62.7C251.2 65.6 255.9 65.6 260.3 65.9C265.3 66.3 270.2 66.5 275.2 66.8C294.9 67.7 314.6 67.8 334.3 67.5C345.4 67.3 356.5 67.1 367.6 66.8C368.8 66.8 368.5 65 368.2 64.3C367.8 63.3 366.8 62.3 365.6 62.3C346.9 62.8 328.1 63.2 309.4 63.2C300.1 63.2 290.8 63 281.5 62.7C276.9 62.5 272.2 62.3 267.6 62.1C263 61.8 258.3 61.7 253.7 61.1C251.7 60.9 249.7 60.4 248.2 59C246.8 57.6 245.8 55.8 244.9 54C242.8 49.8 241.6 45.3 241.1 40.6C241 39.4 240.3 38.1 239.2 37.6C238.4 37.2 237.4 37.6 237.5 38.8Z" fill="white"/>
</g>
<mask id="mask3_201_731" style="mask-type:luminance" maskUnits="userSpaceOnUse" x="51" y="51" width="398" height="398">
<path d="M250 448.5C359.629 448.5 448.5 359.629 448.5 250C448.5 140.371 359.629 51.5 250 51.5C140.371 51.5 51.5 140.371 51.5 250C51.5 359.629 140.371 448.5 250 448.5Z" fill="white"/>
</mask>
<g mask="url(#mask3_201_731)">
<path d="M110.8 65.2C119.7 73.4 128.8 81.5 138 89.3C147 97 156.2 104.6 165.8 111.6C175.1 118.3 184.9 123.9 195.8 127.6C206.7 131.3 218 133.3 229.4 134.7C254.2 137.7 279.2 138.7 304.1 138.8C329.2 138.9 354.2 138.1 379.3 137.4C404.5 136.6 429.7 135.9 454.9 136.1C458 136.1 461.2 136.2 464.3 136.2C465.1 136.2 463 132.1 461.7 132.1C436.8 131.6 412 132.2 387.1 132.9C362.1 133.6 337.2 134.5 312.2 134.7C287.4 134.8 262.6 134.1 237.9 131.8C226.4 130.7 214.8 129.3 203.5 126.5C192.2 123.7 181.5 119.4 171.7 113.1C162 106.9 153.1 99.6 144.2 92.2C134.9 84.5 125.8 76.6 116.8 68.5C114.6 66.5 112.3 64.4 110.1 62.3C109.6 61.8 108.8 61.2 108.7 62.2C108.8 63.2 110.2 64.6 110.8 65.2Z" fill="white"/>
</g>
<mask id="mask4_201_731" style="mask-type:luminance" maskUnits="userSpaceOnUse" x="51" y="51" width="398" height="398">
<path d="M250 448.5C359.629 448.5 448.5 359.629 448.5 250C448.5 140.371 359.629 51.5 250 51.5C140.371 51.5 51.5 140.371 51.5 250C51.5 359.629 140.371 448.5 250 448.5Z" fill="white"/>
</mask>
<g mask="url(#mask4_201_731)">
<path d="M444.7 165.3C412.7 165.8 380.6 166.2 348.6 166.7C316.4 167.2 284.2 167.6 252.1 168.1C237.4 168.3 222.2 167.7 207.8 171.2C194.1 174.5 182.6 182.5 172.1 191.6C149.6 210.9 129 232.3 109.3 254.4C89.5999 276.6 70.7999 299.6 52.1999 322.7C49.8999 325.6 47.5999 328.4 45.2999 331.3C45.1999 331.4 47.5999 331.9 47.6999 332C48.1999 332.1 49.8999 332.5 50.1999 332C68.5999 309.1 87.0999 286.1 106.4 263.9C125.7 241.8 145.8 220.3 167.6 200.6C178 191.2 188.7 181.4 201.6 175.6C215.4 169.5 230.7 169.4 245.6 169.1C277.4 168.6 309.2 168.2 340.9 167.7C372.6 167.2 404.5 166.8 436.2 166.3C440.2 166.2 444.1 166.2 448.1 166.1C449 166.1 448.9 166 448.2 165.7C447.3 165.3 445.8 165.3 444.7 165.3Z" fill="white"/>
</g>
<mask id="mask5_201_731" style="mask-type:luminance" maskUnits="userSpaceOnUse" x="51" y="51" width="398" height="398">
<path d="M250 448.5C359.629 448.5 448.5 359.629 448.5 250C448.5 140.371 359.629 51.5 250 51.5C140.371 51.5 51.5 140.371 51.5 250C51.5 359.629 140.371 448.5 250 448.5Z" fill="white"/>
</mask>
<g mask="url(#mask5_201_731)">
<path d="M452.1 191.2C422.2 189.5 392.2 189.6 362.2 190.7C332.3 191.8 302.5 193.9 272.7 196.2C258.8 197.3 244.8 197.8 231.1 200.1C218 202.2 205.8 206.7 194.9 214.3C184.1 221.8 174.9 231.3 165.8 240.6C155.6 251.1 145.7 261.8 135.8 272.5C115.8 294.4 95.9001 316.4 75.9001 338.3C73.4001 341.1 70.8001 343.9 68.3001 346.7C67.6001 347.5 69.2001 346.9 69.4001 346.8C70.4001 346.4 71.5001 345.7 72.2001 344.9C91.6001 323.6 111 302.2 130.5 280.9C140.2 270.3 149.9 259.7 159.7 249.3C169 239.5 178.2 229.5 188.4 220.8C193.1 216.8 198.1 213 203.6 210.1C209.5 207 216 205 222.5 203.7C235.9 200.9 249.7 200.4 263.3 199.4C292.2 197.2 321.1 195.1 350.1 193.8C379 192.6 408 192.2 437 193.5C440.7 193.7 444.3 193.8 447.9 194.1C448.8 194.2 450 193.3 450.7 192.8C451 192.5 452.6 191.3 452.1 191.2Z" fill="white"/>
</g>
<mask id="mask6_201_731" style="mask-type:luminance" maskUnits="userSpaceOnUse" x="51" y="51" width="398" height="398">
<path d="M250 448.5C359.629 448.5 448.5 359.629 448.5 250C448.5 140.371 359.629 51.5 250 51.5C140.371 51.5 51.5 140.371 51.5 250C51.5 359.629 140.371 448.5 250 448.5Z" fill="white"/>
</mask>
<g mask="url(#mask6_201_731)">
<path d="M102.7 102.9C110 106.9 117 111.6 124 116.2C131.2 121 138.4 125.8 145.6 130.6C149.2 133 152.7 135.3 156.3 137.7C158.2 138.9 160 140.2 161.9 141.4C163.2 142.3 164.6 143.2 165.8 144.3C171.1 149.7 163 156.8 159.2 160.3C146.3 172 133.3 183.7 120.4 195.4C107.4 207.1 94.5002 218.9 81.5002 230.6C68.5002 242.3 55.6002 254.1 42.6002 265.8C41.0002 267.3 39.4002 268.7 37.8002 270.2C35.9002 271.9 38.9002 275.8 41.0002 273.9C54.3002 261.8 67.7002 249.8 81.0002 237.7C94.3002 225.6 107.7 213.6 121 201.5C134.4 189.4 147.7 177.3 161.1 165.2C166.3 160.5 173.4 154.3 171.4 146.4C170.5 142.7 167.5 140.1 164.4 138C160.7 135.5 157.1 133.1 153.4 130.7C146 125.8 138.6 120.8 131.1 115.9C123.9 111.1 116.7 106.2 109.2 101.7C107.3 100.6 105.4 99.4999 103.5 98.3999C102.4 97.7999 101.2 98.6999 101 99.6999C100.8 101.1 101.6 102.3 102.7 102.9Z" fill="white"/>
</g>
<mask id="mask7_201_731" style="mask-type:luminance" maskUnits="userSpaceOnUse" x="51" y="51" width="398" height="398">
<path d="M250 448.5C359.629 448.5 448.5 359.629 448.5 250C448.5 140.371 359.629 51.5 250 51.5C140.371 51.5 51.5 140.371 51.5 250C51.5 359.629 140.371 448.5 250 448.5Z" fill="white"/>
</mask>
<g mask="url(#mask7_201_731)">
<path d="M79.4002 124.6C86.0002 127.3 92.6002 130 99.2002 132.8C102.4 134.1 105.6 135.5 108.9 136.8C110.4 137.4 112 138.1 113.5 138.7C114.9 139.3 116.4 139.7 117.7 140.6C120.6 142.7 118.1 145.7 116.5 147.7C114.4 150.2 112.2 152.7 110.1 155.1C105.7 160.1 101.3 165 96.9002 169.9C79.1002 189.5 60.6002 208.4 41.5002 226.6C30.8002 236.8 19.8002 246.8 8.70019 256.6C7.90019 257.3 9.40019 257.6 9.90019 257.6C11.0002 257.6 12.3002 257.2 13.1002 256.5C33.4002 238.7 53.0002 220.1 71.9002 200.9C81.3002 191.3 90.5002 181.6 99.6002 171.7C104.1 166.7 108.6 161.8 113 156.7C115.2 154.2 117.4 151.7 119.6 149.1C121.3 147.1 124.1 144.7 124 141.8C123.9 138.6 119.5 137.5 117.1 136.6C113.4 135.1 109.7 133.6 106.1 132C98.6002 128.9 91.1002 125.8 83.5002 122.7C82.5002 122.3 81.0002 122.8 80.1002 123.2C79.5002 123.4 78.4002 124.1 79.4002 124.6Z" fill="white"/>
</g>
<mask id="mask8_201_731" style="mask-type:luminance" maskUnits="userSpaceOnUse" x="51" y="51" width="398" height="398">
<path d="M250 448.5C359.629 448.5 448.5 359.629 448.5 250C448.5 140.371 359.629 51.5 250 51.5C140.371 51.5 51.5 140.371 51.5 250C51.5 359.629 140.371 448.5 250 448.5Z" fill="white"/>
</mask>
<g mask="url(#mask8_201_731)">
<path d="M457.4 211.7C429.1 210.4 400.7 210.5 372.4 212.3C344.2 214 316.1 217.2 288.2 221.9C284.8 222.5 281.4 223.1 278 223.7C274.8 224.3 271.4 224.6 268.3 225.7C265.6 226.7 262.4 228.2 261.1 231C259.8 233.8 259.6 237.3 259.1 240.3C256.8 254.4 255.4 268.6 253.9 282.8C250.8 311.4 247.7 339.9 245.5 368.6C243.2 397.2 241.7 425.9 241.7 454.6C241.7 458.1 241.7 461.6 241.7 465.1C241.7 465.3 243.9 464.3 244.1 464.2C244.5 464 246.2 463.3 246.1 462.7C245.8 434.7 247 406.6 249 378.7C251 350.7 253.8 322.8 256.8 294.9C258.3 281 259.7 267 261.5 253.1C262.3 246.3 263.3 239.5 264.6 232.8C264.9 231.4 265.1 230 265.8 228.7C266 228.4 266.2 228.1 266.4 227.7C266.9 226.8 267.1 228 265.6 227.9C266.2 227.9 267.2 227.5 267.8 227.4C271.2 226.7 274.7 226.1 278.1 225.5C305.3 220.7 332.7 217.3 360.2 215.4C387.7 213.5 415.4 213 443 213.9C446.4 214 449.9 214.2 453.3 214.3C454.2 214.3 455.4 213.5 456.1 213.1C456.3 212.7 457.7 211.7 457.4 211.7Z" fill="white"/>
</g>
<mask id="mask9_201_731" style="mask-type:luminance" maskUnits="userSpaceOnUse" x="51" y="51" width="398" height="398">
<path d="M250 448.5C359.629 448.5 448.5 359.629 448.5 250C448.5 140.371 359.629 51.5 250 51.5C140.371 51.5 51.5 140.371 51.5 250C51.5 359.629 140.371 448.5 250 448.5Z" fill="white"/>
</mask>
<g mask="url(#mask9_201_731)">
<path d="M72.5001 401.5C82.2001 390.7 89.8002 378.3 97.3002 365.8C105 352.9 112.9 340.3 122.3 328.5C131.9 316.6 142.4 305.5 153 294.5C163.6 283.5 174.1 272.5 185.4 262.2C191 257.1 196.8 252.2 202.9 247.6C208.3 243.5 214.4 239.1 221.3 238.4C224.2 238.1 227.4 238.6 229.7 240.6C231.5 242.1 232.1 244.4 232.5 246.6C233.7 253.3 232.7 260.5 232.3 267.3C230.3 299.8 226.9 332.2 222.4 364.5C217.9 396.9 212.4 429.2 206.1 461.4C205.3 465.3 204.6 469.1 203.8 473C203.6 474 204.5 475.2 205.1 475.8C205.3 476 206.8 477.5 206.9 476.6C210.2 460.2 213.3 443.8 216.2 427.4C219.1 411 221.7 394.6 224.1 378.2C226.5 361.7 228.6 345.1 230.4 328.5C232.2 312 233.7 295.4 234.8 278.9C235.1 274.7 235.4 270.6 235.6 266.4C235.8 262.9 236.1 259.3 236 255.8C235.9 249.4 234.4 243 229.7 238.4C218.5 227.3 202.5 241.2 193.6 248.4C181.6 258.2 170.6 269.1 159.8 280.2C148.9 291.5 137.9 302.7 127.6 314.5C117.5 326.1 108.4 338.4 100.4 351.6C92.6002 364.3 85.4002 377.3 76.3002 389.2C74.1002 392.1 71.8002 394.9 69.3002 397.6C68.7002 398.5 71.9001 402.2 72.5001 401.5Z" fill="white"/>
</g>
<mask id="mask10_201_731" style="mask-type:luminance" maskUnits="userSpaceOnUse" x="51" y="51" width="398" height="398">
<path d="M250 448.5C359.629 448.5 448.5 359.629 448.5 250C448.5 140.371 359.629 51.5 250 51.5C140.371 51.5 51.5 140.371 51.5 250C51.5 359.629 140.371 448.5 250 448.5Z" fill="white"/>
</mask>
<g mask="url(#mask10_201_731)">
<path d="M103 407.2C118 390.2 131.7 372.2 145.2 354C158.6 336 171.8 317.8 186 300.3C194 290.4 202.3 280.8 211.1 271.5C209.7 270.7 208.2 269.9 206.8 269.1C208.2 275.6 207.9 282.3 206.9 288.8C206 295.3 204.7 301.8 203.3 308.2C200.7 321.2 197.6 334.2 194.2 347C187.5 372.5 179.6 397.6 171.2 422.6C166.5 436.8 161.6 450.9 156.7 465C156.2 466.5 160.5 468.8 160.9 467.7C169.6 442.5 178.4 417.3 186.3 391.8C194.1 366.6 201.2 341.1 206.7 315.3C208.2 308.1 209.7 300.8 210.9 293.6C212.1 286.2 212.8 278.7 211.2 271.3C210.9 270.2 208.1 267.7 206.9 268.9C191.3 285.3 177.2 303 163.6 321.1C150 339.1 136.9 357.3 123.1 375.1C115.3 385.2 107.2 395 98.7999 404.6C97.9999 405.5 102 408.4 103 407.2Z" fill="white"/>
</g>
<mask id="mask11_201_731" style="mask-type:luminance" maskUnits="userSpaceOnUse" x="51" y="51" width="398" height="398">
<path d="M250 448.5C359.629 448.5 448.5 359.629 448.5 250C448.5 140.371 359.629 51.5 250 51.5C140.371 51.5 51.5 140.371 51.5 250C51.5 359.629 140.371 448.5 250 448.5Z" fill="white"/>
</mask>
<g mask="url(#mask11_201_731)">
<path d="M125.1 425.2C140.4 404.5 154.8 383.2 168.4 361.3C172.3 355.1 176 348.8 179.8 342.5C178.2 342.2 176.6 341.8 175 341.5C174.4 348.6 172.3 355.5 169.9 362.2C167.4 369.3 164.8 376.3 162.2 383.3C157.1 397.4 152 411.4 146.8 425.5C143.9 433.5 141 441.4 138.1 449.4C137.7 450.5 142.5 451.6 143 450.2C153.3 421.9 163.7 393.7 173.9 365.4C176.6 357.9 179.2 350.3 179.9 342.3C180 341 175.7 340.3 175.1 341.3C162 363.5 148.1 385.1 133.3 406.2C129.1 412.2 124.8 418.1 120.5 424C119.6 425.1 124.3 426.4 125.1 425.2Z" fill="white"/>
</g>
<mask id="mask12_201_731" style="mask-type:luminance" maskUnits="userSpaceOnUse" x="51" y="51" width="398" height="398">
<path d="M250 448.5C359.629 448.5 448.5 359.629 448.5 250C448.5 140.371 359.629 51.5 250 51.5C140.371 51.5 51.5 140.371 51.5 250C51.5 359.629 140.371 448.5 250 448.5Z" fill="white"/>
</mask>
<g mask="url(#mask12_201_731)">
<path d="M457 223.8C432.1 227.2 407.2 230.6 382.3 234C358.1 237.3 333.6 240.1 309.7 245.7C303.9 247.1 297.9 248.4 292.2 250.4C289.8 251.2 287.2 252.3 285.6 254.4C284.2 256.2 283.6 258.5 283.3 260.7C282.4 266.7 282 272.8 281.5 278.8C280.9 285.1 280.5 291.3 280 297.6C278.2 322.5 277.3 347.4 276.8 372.4C276.3 397.4 276.2 422.3 276.2 447.3C276.2 450.4 276.2 453.6 276.2 456.7C276.2 457 278.5 456.3 278.7 456.3C279 456.2 281 455.7 281 455.2C281 430.7 281 406.3 281.4 381.8C281.8 357.3 282.5 332.9 284 308.5C284.7 296.4 285.6 284.3 286.8 272.2C287.1 269.2 287.4 266.1 287.7 263.1C288 260.7 288.1 258.1 289 255.8C289.8 253.5 291.5 251.6 293.9 250.7C296.4 249.8 299 249.2 301.5 248.6C324.5 242.6 348.3 239.8 371.8 236.6C396.1 233.3 420.5 229.9 444.8 226.6C447.8 226.2 450.7 225.8 453.7 225.4C454.8 225.2 456 224.9 457.1 224.4C457.8 223.9 457.9 223.6 457 223.8Z" fill="white"/>
</g>
<mask id="mask13_201_731" style="mask-type:luminance" maskUnits="userSpaceOnUse" x="51" y="51" width="398" height="398">
<path d="M250 448.5C359.629 448.5 448.5 359.629 448.5 250C448.5 140.371 359.629 51.5 250 51.5C140.371 51.5 51.5 140.371 51.5 250C51.5 359.629 140.371 448.5 250 448.5Z" fill="white"/>
</mask>
<g mask="url(#mask13_201_731)">
<path d="M469.7 240.9C446.8 244.8 424 248.6 401.2 253C378.5 257.4 355.8 262.2 333.5 268.1C328.5 269.4 323.4 270.5 318.7 272.5C314.2 274.4 309.7 277.1 307.5 281.7C305.5 285.9 305.4 290.8 305.3 295.3C305.1 301.2 304.8 307.1 304.6 313C303.7 336.6 303 360.1 302.5 383.7C302 407.4 301.7 431 301.5 454.7C301.5 457.6 301.5 460.5 301.5 463.4C301.5 463.8 303.8 462.8 304 462.7C304.5 462.4 306 461.8 306 461.1C306.1 438.1 306.4 415.1 306.8 392.1C307.2 369.1 307.9 346.1 308.6 323.1C309 311.9 309.2 300.6 309.9 289.4C310.2 285 310.9 280 314 276.6C316.9 273.5 321.7 272.8 325.6 271.8C347.4 265.9 369.4 261 391.5 256.7C413.6 252.4 435.8 248.5 458 244.8C460.7 244.3 463.5 243.9 466.2 243.4C467.3 243.2 468.4 242.6 469.3 242C469.5 241.8 470.8 240.7 469.7 240.9Z" fill="white"/>
</g>
<mask id="mask14_201_731" style="mask-type:luminance" maskUnits="userSpaceOnUse" x="51" y="51" width="398" height="398">
<path d="M250 448.5C359.629 448.5 448.5 359.629 448.5 250C448.5 140.371 359.629 51.5 250 51.5C140.371 51.5 51.5 140.371 51.5 250C51.5 359.629 140.371 448.5 250 448.5Z" fill="white"/>
</mask>
<g mask="url(#mask14_201_731)">
<path d="M458.9 255.8C440.6 260.9 422.2 265.9 403.9 271C386 275.9 367.9 280.5 350.4 286.8C346.7 288.1 342.5 289.3 339.2 291.6C335.9 293.9 335.2 297.6 334.8 301.4C333.9 310.8 333.1 320.2 332.3 329.6C330.8 348.5 329.8 367.5 329.2 386.4C328.6 405.4 328.3 424.3 328.5 443.3C328.5 445.6 328.6 447.9 328.6 450.3C328.6 451.3 329.9 452.2 330.6 452.7C330.9 452.9 332.7 453.9 332.6 452.9C332.3 434.1 332.4 415.3 333 396.5C333.5 377.7 334.4 358.9 335.8 340.2C336.5 330.8 337.2 321.4 338.1 312C338.3 309.7 338.5 307.4 338.8 305.1C339 303 339.1 300.9 339.8 298.9C341.2 295.1 344.9 293.6 348.4 292.2C365.5 285.5 383.4 281 401.1 276.1C419.3 271.1 437.4 266.1 455.6 261C457.8 260.4 460.1 259.8 462.3 259.1C463.2 258.9 461.9 257.4 461.6 257.2C461.1 256.7 459.8 255.6 458.9 255.8Z" fill="white"/>
</g>
<mask id="mask15_201_731" style="mask-type:luminance" maskUnits="userSpaceOnUse" x="51" y="51" width="398" height="398">
<path d="M250 448.5C359.629 448.5 448.5 359.629 448.5 250C448.5 140.371 359.629 51.5 250 51.5C140.371 51.5 51.5 140.371 51.5 250C51.5 359.629 140.371 448.5 250 448.5Z" fill="white"/>
</mask>
<g mask="url(#mask15_201_731)">
<path d="M462.3 278.6C446.5 280.8 430.9 284.2 415.6 288.9C408 291.3 400.4 293.9 393 296.9C385.8 299.8 378.6 302.7 371.8 306.4C368.7 308 365.8 309.9 363.3 312.4C360.7 315 359 318.2 358 321.8C357 325.5 356.8 329.4 356.4 333.3C356 337.6 355.7 341.9 355.4 346.1C354.1 363.1 353.4 380.1 353.1 397.1C352.8 414.2 353 431.3 353.6 448.4C353.7 450.5 353.8 452.7 353.9 454.8C354 456 355.8 455.9 356.5 455.6C357.6 455.1 358.4 454.1 358.4 452.9C357.7 436.3 357.4 419.7 357.6 403.1C357.8 386.4 358.4 369.7 359.5 353.1C360 344.9 360.7 336.7 361.4 328.5C361.7 325 362.1 321.3 363.7 318.1C365 315.4 367.3 313.3 369.8 311.6C372.5 309.8 375.5 308.4 378.5 307C382.1 305.3 385.7 303.8 389.3 302.2C396.4 299.2 403.6 296.5 411 294.1C425.7 289.3 440.9 285.7 456.2 283.3C458.1 283 460 282.7 461.9 282.5C463 282.3 464.3 281.2 464.4 280.1C464.4 278.8 463.3 278.5 462.3 278.6Z" fill="white"/>
</g>
<mask id="mask16_201_731" style="mask-type:luminance" maskUnits="userSpaceOnUse" x="51" y="51" width="398" height="398">
<path d="M250 448.5C359.629 448.5 448.5 359.629 448.5 250C448.5 140.371 359.629 51.5 250 51.5C140.371 51.5 51.5 140.371 51.5 250C51.5 359.629 140.371 448.5 250 448.5Z" fill="white"/>
</mask>
<g mask="url(#mask16_201_731)">
<path d="M458.6 305.2C446.7 306.7 434.9 308.7 423.3 311.3C417.4 312.6 411.6 314 405.8 315.6C403 316.4 400.1 317.2 397.3 318C394.9 318.7 392.5 319.5 390.4 320.7C385.8 323.3 383.9 327.8 382.9 332.9C381.8 338.8 381 344.7 380.3 350.7C378.9 362.8 378 375.1 377.6 387.3C377.1 401 377 414.7 376.8 428.4C376.8 429.6 381.6 430.4 381.6 429.9C381.8 405.7 382 381.4 384.5 357.3C385.1 351.3 385.9 345.3 386.9 339.4C387.7 334.4 388.3 328.7 391.9 324.9C395.4 321.2 401 320.1 405.8 318.7C411.5 317.1 417.2 315.6 423 314.2C436.1 311.1 449.3 308.7 462.7 307.1C463.7 307 462.4 306.2 462.1 306C461 305.6 459.6 305.1 458.6 305.2Z" fill="white"/>
</g>
<mask id="mask17_201_731" style="mask-type:luminance" maskUnits="userSpaceOnUse" x="51" y="51" width="398" height="398">
<path d="M250 448.5C359.629 448.5 448.5 359.629 448.5 250C448.5 140.371 359.629 51.5 250 51.5C140.371 51.5 51.5 140.371 51.5 250C51.5 359.629 140.371 448.5 250 448.5Z" fill="white"/>
</mask>
<g mask="url(#mask17_201_731)">
<path d="M450.6 333.2C443.3 333.1 436 333.3 428.8 333.8C422.9 334.2 416.1 334.1 411.1 337.7C405.9 341.4 405.3 347.8 404.9 353.8C404.4 361 404.1 368.2 403.9 375.4C403.7 383.6 403.7 391.8 403.8 400C403.9 403 408.8 402.1 408.7 399.3C408.4 385.6 408.7 372 409.5 358.3C409.7 355.3 409.8 352.2 410.2 349.2C410.5 346.8 411 344.2 412.7 342.4C416 338.6 422.4 338.8 427 338.4C434.6 337.9 442.2 337.7 449.8 337.7C451.1 337.7 452.4 337 452.7 335.7C452.8 334.5 451.9 333.2 450.6 333.2Z" fill="white"/>
</g>
</svg>
