<svg width="500" height="500" viewBox="0 0 500 500" fill="none" xmlns="http://www.w3.org/2000/svg">
<mask id="mask0_201_723" style="mask-type:luminance" maskUnits="userSpaceOnUse" x="51" y="51" width="398" height="398">
<path d="M250 448.5C359.629 448.5 448.5 359.629 448.5 250C448.5 140.371 359.629 51.5 250 51.5C140.371 51.5 51.5 140.371 51.5 250C51.5 359.629 140.371 448.5 250 448.5Z" fill="white"/>
</mask>
<g mask="url(#mask0_201_723)">
<path d="M196.8 13.9C176 36 154.8 57.7 133.1 78.9C111.4 100.2 89.4 121 66.9 141.4C54.3 152.8 41.6 164.1 28.8 175.3C28 176 28.2 177.1 29.2 177.6C30.3 178.1 31.8 177.8 32.7 177C55.6 157.1 78.1 136.8 100.2 116C122.3 95.2 144 74 165.3 52.4C177.2 40.3 189 28 200.7 15.7C202.8 13.4 198.3 12.4 196.8 13.9Z" fill="white"/>
</g>
<mask id="mask1_201_723" style="mask-type:luminance" maskUnits="userSpaceOnUse" x="51" y="51" width="398" height="398">
<path d="M250 448.5C359.629 448.5 448.5 359.629 448.5 250C448.5 140.371 359.629 51.5 250 51.5C140.371 51.5 51.5 140.371 51.5 250C51.5 359.629 140.371 448.5 250 448.5Z" fill="white"/>
</mask>
<g mask="url(#mask1_201_723)">
<path d="M244 6.19976C230 21.0998 215.8 35.7998 201.3 50.2998C186.8 64.8998 172.2 79.2998 157.3 93.3998C142.4 107.6 127.4 121.6 112.1 135.4C96.8999 149.1 81.5999 162.7 65.9999 176C50.3999 189.4 34.5999 202.5 18.6999 215.5C16.7999 217.1 14.7999 218.6 12.8999 220.2C12.3999 220.6 14.1999 221.2 14.3999 221.3C14.9999 221.5 16.8999 222.2 17.4999 221.7C33.4999 208.8 49.2999 195.7 64.8999 182.4C80.4999 169.1 95.9999 155.5 111.3 141.8C126.6 128 141.8 114 156.7 99.7998C171.5 85.7998 186.1 71.5998 200.5 57.1998C215.1 42.5998 229.5 27.7998 243.6 12.8998C245.3 11.0998 247 9.29976 248.7 7.39976C249 7.09976 246.6 6.19976 246.4 6.19976C246 6.19976 244.5 5.69976 244 6.19976Z" fill="white"/>
</g>
<mask id="mask2_201_723" style="mask-type:luminance" maskUnits="userSpaceOnUse" x="51" y="51" width="398" height="398">
<path d="M250 448.5C359.629 448.5 448.5 359.629 448.5 250C448.5 140.371 359.629 51.5 250 51.5C140.371 51.5 51.5 140.371 51.5 250C51.5 359.629 140.371 448.5 250 448.5Z" fill="white"/>
</mask>
<g mask="url(#mask2_201_723)">
<path d="M210.6 56.3C195.4 68.7 180.7 81.7 166.3 95C151.9 108.4 137.8 122.1 123.7 135.7C109.7 149.3 95.5999 162.9 81.1999 176.2C66.8999 189.5 52.1999 202.4 36.9999 214.6C21.7999 226.8 5.99994 238.3 -10.5001 248.7C-12.5001 250 -14.6001 251.2 -16.6001 252.5C-18.8001 253.9 -14.9001 256.6 -13.3001 255.6C3.49994 245.4 19.4999 234.2 34.8999 222.1C50.2999 210 65.0999 197.2 79.5999 184C94.0999 170.8 108.2 157.2 122.3 143.5C136.4 129.8 150.5 116.1 164.8 102.7C179.2 89.2 193.8 76 208.9 63.5C210.8 62 212.6 60.4 214.5 58.9C216.4 57.6 212.2 55.1 210.6 56.3Z" fill="white"/>
</g>
<mask id="mask3_201_723" style="mask-type:luminance" maskUnits="userSpaceOnUse" x="51" y="51" width="398" height="398">
<path d="M250 448.5C359.629 448.5 448.5 359.629 448.5 250C448.5 140.371 359.629 51.5 250 51.5C140.371 51.5 51.5 140.371 51.5 250C51.5 359.629 140.371 448.5 250 448.5Z" fill="white"/>
</mask>
<g mask="url(#mask3_201_723)">
<path d="M258.3 28.4C240 44.5 221.6 60.5 203.2 76.5C184.8 92.5 166.3 108.4 147.8 124.3C129.3 140.2 110.7 156 92.0999 171.8C73.4999 187.6 54.8999 203.3 36.1999 218.9C17.4999 234.5 -1.30012 250.1 -20.0001 265.7C-22.3001 267.6 -24.6001 269.5 -26.9001 271.4C-28.4001 272.6 -25.8001 276.8 -23.9001 275.3C-5.10012 259.8 13.5999 244.2 32.2999 228.5C50.9999 212.8 69.6999 197.1 88.2999 181.4C106.9 165.7 125.5 149.8 144 134C162.5 118.2 181 102.2 199.4 86.3C217.8 70.4 236.2 54.3 254.6 38.3C256.9 36.3 259.1 34.3 261.4 32.4C262.8 31 260.1 26.8 258.3 28.4Z" fill="white"/>
</g>
<mask id="mask4_201_723" style="mask-type:luminance" maskUnits="userSpaceOnUse" x="51" y="51" width="398" height="398">
<path d="M250 448.5C359.629 448.5 448.5 359.629 448.5 250C448.5 140.371 359.629 51.5 250 51.5C140.371 51.5 51.5 140.371 51.5 250C51.5 359.629 140.371 448.5 250 448.5Z" fill="white"/>
</mask>
<g mask="url(#mask4_201_723)">
<path d="M271.5 45.7001C253.7 59.0001 236.7 73.5001 220.3 88.6001C203.9 103.7 188.2 119.5 172.6 135.4C157 151.3 141.6 167.4 126 183.2C110.4 199 94.5 214.5 78 229.2C61.5 243.9 44.3 257.9 26.1 270.5C23.9 272 21.7 273.5 19.5 275C19.2 275.2 17.8 276 18.3 276.4C18.8 276.7 20.8 275.4 21.1 275.2C39.7 262.8 57.3 249 74.2 234.4C91 219.9 107.1 204.5 122.8 188.8C138.6 173 154.1 156.9 169.6 140.9C185.2 124.9 200.9 108.9 217.2 93.6001C233.3 78.4001 250 63.7001 267.6 50.1001C269.8 48.4001 271.9 46.8001 274.1 45.1001C274.5 44.8001 275.4 44.2001 274.6 44.1001C273.7 44.0001 272.1 45.2001 271.5 45.7001Z" fill="white"/>
</g>
<mask id="mask5_201_723" style="mask-type:luminance" maskUnits="userSpaceOnUse" x="51" y="51" width="398" height="398">
<path d="M250 448.5C359.629 448.5 448.5 359.629 448.5 250C448.5 140.371 359.629 51.5 250 51.5C140.371 51.5 51.5 140.371 51.5 250C51.5 359.629 140.371 448.5 250 448.5Z" fill="white"/>
</mask>
<g mask="url(#mask5_201_723)">
<path d="M292.5 37.5001C270.3 57.5001 248.9 78.2001 227.7 99.3001C206.5 120.3 185.6 141.6 164.4 162.6C143.4 183.4 122 204 100 223.8C78.2 243.3 55.8 262.2 32.9 280.4C9.89997 298.6 -13.7 316.1 -37.8 332.9C-40.7 335 -43.7 337 -46.7 339C-47.7 339.7 -44.8 343.8 -43.8 343C-19.6 326.4 4.19997 309.1 27.3 291C50.5 272.9 73.1 254.2 95.1 234.7C117.2 215.1 138.7 194.8 159.7 174C180.9 153.1 201.8 131.9 222.8 110.9C243.9 89.8001 265.2 68.9001 287.2 48.8001C289.9 46.3001 292.6 43.9001 295.3 41.4001C296.5 40.6001 293.4 36.7001 292.5 37.5001Z" fill="white"/>
</g>
<mask id="mask6_201_723" style="mask-type:luminance" maskUnits="userSpaceOnUse" x="51" y="51" width="398" height="398">
<path d="M250 448.5C359.629 448.5 448.5 359.629 448.5 250C448.5 140.371 359.629 51.5 250 51.5C140.371 51.5 51.5 140.371 51.5 250C51.5 359.629 140.371 448.5 250 448.5Z" fill="white"/>
</mask>
<g mask="url(#mask6_201_723)">
<path d="M307.8 38.1C290.1 56.7 271.6 74.7 252.6 92.1C233.6 109.5 214.2 126.4 194.5 143C174.7 159.7 154.7 176.1 134.6 192.4C114.6 208.7 94.5 224.9 74.6 241.3C54.7 257.7 34.9 274.2 15.5 291.2C13.1 293.3 10.7 295.4 8.30003 297.5C7.90003 297.9 9.80003 298.2 10 298.2C10.6 298.3 12.5 298.7 13.1 298.2C32.4 281.1 52.1 264.5 72 248.1C91.9 231.7 112 215.4 132 199.2C152.1 182.9 172.2 166.6 192 149.9C211.7 133.4 231.3 116.6 250.3 99.3C269.5 82 288.1 64.2 306 45.8C308.2 43.5 310.4 41.2 312.6 38.9C313 38.5 311.1 38.2 310.9 38.2C310.3 38.1 308.3 37.6 307.8 38.1Z" fill="white"/>
</g>
<mask id="mask7_201_723" style="mask-type:luminance" maskUnits="userSpaceOnUse" x="51" y="51" width="398" height="398">
<path d="M250 448.5C359.629 448.5 448.5 359.629 448.5 250C448.5 140.371 359.629 51.5 250 51.5C140.371 51.5 51.5 140.371 51.5 250C51.5 359.629 140.371 448.5 250 448.5Z" fill="white"/>
</mask>
<g mask="url(#mask7_201_723)">
<path d="M261.6 36.7999C244.8 50.7999 228.9 65.7999 213.3 81.1999C197.7 96.5999 182.4 112.3 166.8 127.5C151 142.8 134.7 157.6 117.8 171.6C100.8 185.7 83.1999 199.2 65.3999 212.3C47.4999 225.5 29.3999 238.3 11.1999 251.1C8.99988 252.7 6.69988 254.2 4.49988 255.8C4.29988 256 6.29988 257.3 6.49988 257.4C6.89988 257.6 8.39988 258.7 8.79988 258.3C26.9999 245.5 45.1999 232.7 63.0999 219.6C80.9999 206.5 98.7999 193.1 116 179.1C133.1 165.2 149.6 150.6 165.5 135.4C181.2 120.3 196.5 104.7 211.9 89.2999C227.4 73.8999 243.1 58.5999 259.7 44.3999C261.7 42.5999 263.8 40.8999 265.9 39.1999C266.1 38.9999 264.1 37.6999 263.9 37.5999C263.5 37.5999 262 36.4999 261.6 36.7999Z" fill="white"/>
</g>
<mask id="mask8_201_723" style="mask-type:luminance" maskUnits="userSpaceOnUse" x="51" y="51" width="398" height="398">
<path d="M250 448.5C359.629 448.5 448.5 359.629 448.5 250C448.5 140.371 359.629 51.5 250 51.5C140.371 51.5 51.5 140.371 51.5 250C51.5 359.629 140.371 448.5 250 448.5Z" fill="white"/>
</mask>
<g mask="url(#mask8_201_723)">
<path d="M184.1 54.6001C172.6 66.0001 160.5 76.8001 148 87.2001C135.5 97.6001 122.6 107.5 109.6 117.2C96.5 127 83.3 136.6 70.2 146.4C57.1 156 44.1 165.8 31.4 176C18.7 186.1 6.29999 196.6 -5.50001 207.7C-7.00001 209.1 -8.50001 210.5 -9.90001 211.9C-10.4 212.4 -8.40001 212.7 -8.20001 212.7C-7.50001 212.8 -5.70001 213.2 -5.10001 212.6C6.59999 201.4 18.9 190.7 31.5 180.5C44 170.2 57 160.4 70 150.7C83.1 140.9 96.3 131.3 109.4 121.5C122.4 111.8 135.4 101.9 148 91.7001C160.6 81.5001 172.8 70.8001 184.5 59.5001C186 58.1001 187.4 56.7001 188.9 55.2001C189.4 54.7001 187.4 54.4001 187.2 54.4001C186.6 54.4001 184.7 54.0001 184.1 54.6001Z" fill="white"/>
</g>
<mask id="mask9_201_723" style="mask-type:luminance" maskUnits="userSpaceOnUse" x="51" y="51" width="398" height="398">
<path d="M250 448.5C359.629 448.5 448.5 359.629 448.5 250C448.5 140.371 359.629 51.5 250 51.5C140.371 51.5 51.5 140.371 51.5 250C51.5 359.629 140.371 448.5 250 448.5Z" fill="white"/>
</mask>
<g mask="url(#mask9_201_723)">
<path d="M312.8 55.1001C291.8 71.2001 270.9 87.5001 250.1 103.9C229.4 120.3 208.9 136.9 188.5 153.6C168.1 170.3 147.8 187.3 127.7 204.3C107.5 221.5 87.4999 238.8 67.5999 256.3C47.7999 273.7 28.0999 291.3 8.59994 309.1C6.19994 311.3 3.69994 313.5 1.29994 315.7C1.19994 315.8 3.39994 316.7 3.59994 316.8C3.99994 316.9 5.69994 317.7 6.09994 317.3C25.6999 299.4 45.3999 281.7 65.1999 264.2C84.9999 246.7 104.9 229.4 125 212.3C145.1 195.2 165.3 178.2 185.7 161.4C206.1 144.6 226.7 127.9 247.5 111.4C268 95.0001 288.8 78.8001 309.7 62.7001C312.3 60.7001 314.9 58.7001 317.5 56.7001C317.6 56.6001 315.4 55.7001 315.2 55.6001C314.8 55.5001 313.3 54.8001 312.8 55.1001Z" fill="white"/>
</g>
<mask id="mask10_201_723" style="mask-type:luminance" maskUnits="userSpaceOnUse" x="51" y="51" width="398" height="398">
<path d="M250 448.5C359.629 448.5 448.5 359.629 448.5 250C448.5 140.371 359.629 51.5 250 51.5C140.371 51.5 51.5 140.371 51.5 250C51.5 359.629 140.371 448.5 250 448.5Z" fill="white"/>
</mask>
<g mask="url(#mask10_201_723)">
<path d="M320.9 59.7001C303.4 77.3001 285.7 94.6001 267.8 111.8C250 128.9 231.9 145.8 213.8 162.5C195.6 179.3 177.2 195.9 158.7 212.5C140.3 229 121.8 245.4 103.2 261.7C84.7001 278 66.1001 294.3 47.5001 310.5C45.2001 312.5 42.9001 314.5 40.6001 316.6C39.7001 317.4 44.0001 319.5 45.0001 318.7C63.7001 302.4 82.3001 286.1 101 269.7C119.6 253.4 138.1 237 156.5 220.6C175 204.1 193.4 187.5 211.7 170.7C229.9 154 248 137.2 265.8 120.1C283.7 103.1 301.4 85.8001 318.8 68.4001C321 66.2001 323.1 64.1001 325.3 61.9001C326.1 60.8001 321.8 58.8001 320.9 59.7001Z" fill="white"/>
</g>
<mask id="mask11_201_723" style="mask-type:luminance" maskUnits="userSpaceOnUse" x="51" y="51" width="398" height="398">
<path d="M250 448.5C359.629 448.5 448.5 359.629 448.5 250C448.5 140.371 359.629 51.5 250 51.5C140.371 51.5 51.5 140.371 51.5 250C51.5 359.629 140.371 448.5 250 448.5Z" fill="white"/>
</mask>
<g mask="url(#mask11_201_723)">
<path d="M337.6 57.7999C317.1 80.7999 297.8 104.8 278.2 128.5C258.7 152 238.8 175 217.3 196.6C196.5 217.4 174.6 237 151.9 255.7C129.2 274.5 105.7 292.3 81.9001 309.7C58.0001 327.1 33.8001 344 9.60006 360.8C6.60006 362.9 3.60006 365 0.60006 367.1C-0.39994 367.8 0.10006 369.3 0.90006 370C1.90006 370.8 3.40006 370.7 4.40006 370C28.6001 353.2 52.9001 336.3 76.8001 319.1C100.7 301.8 124.3 284.1 147.2 265.6C170.1 247.1 192.2 227.8 213.3 207.2C235 186.1 255.2 163.5 274.6 140.3C294.4 116.7 313.6 92.5999 333.9 69.2999C336.4 66.3999 338.9 63.4999 341.5 60.6999C343.4 58.4999 339.3 55.8999 337.6 57.7999Z" fill="white"/>
</g>
<mask id="mask12_201_723" style="mask-type:luminance" maskUnits="userSpaceOnUse" x="51" y="51" width="398" height="398">
<path d="M250 448.5C359.629 448.5 448.5 359.629 448.5 250C448.5 140.371 359.629 51.5 250 51.5C140.371 51.5 51.5 140.371 51.5 250C51.5 359.629 140.371 448.5 250 448.5Z" fill="white"/>
</mask>
<g mask="url(#mask12_201_723)">
<path d="M349.1 57.9C329.7 81.6 310 104.9 289.7 127.9C269.5 150.8 248.8 173.2 227.6 195.1C206.3 217 184.5 238.4 162 259.1C139.6 279.7 116.5 299.6 92.8 318.6C69.1 337.6 44.6 355.7 19.5 372.8C16.4 374.9 13.2 377 10.1 379.1C9.19998 379.7 9.29998 380.7 10.2 381.2C11.2 381.8 12.8 381.7 13.7 381C39.1 364 63.9 346 88 327.1C111.9 308.3 135.2 288.6 157.8 268.1C180.5 247.6 202.5 226.4 223.9 204.6C245.4 182.8 266.2 160.4 286.6 137.6C307 114.8 326.8 91.5 346.3 67.9C348.7 65 351.1 62.1 353.5 59.1C355.1 57.3 350.3 56.5 349.1 57.9Z" fill="white"/>
</g>
<mask id="mask13_201_723" style="mask-type:luminance" maskUnits="userSpaceOnUse" x="51" y="51" width="398" height="398">
<path d="M250 448.5C359.629 448.5 448.5 359.629 448.5 250C448.5 140.371 359.629 51.5 250 51.5C140.371 51.5 51.5 140.371 51.5 250C51.5 359.629 140.371 448.5 250 448.5Z" fill="white"/>
</mask>
<g mask="url(#mask13_201_723)">
<path d="M376.1 54.0001C355.6 78.4001 335.1 102.9 313.6 126.5C292.1 150.2 269.6 173.1 245.5 194.2C221.2 215.5 195.5 235.2 169.7 254.8C143.1 275 116.4 295.2 89.6001 315.2C63.0001 335.2 36.1001 355.1 9.00007 374.8C5.60007 377.3 2.20008 379.8 -1.29993 382.2C-1.79993 382.6 -2.59993 383.2 -1.69993 383.5C-0.799925 383.7 0.800075 382.6 1.50007 382.2C29.0001 362.4 56.2001 342.3 83.3001 322C110.3 301.8 137.1 281.5 164 261.2C189.9 241.6 215.8 222 240.5 201C264.9 180.2 287.7 157.8 309.5 134.3C331.3 110.8 352 86.4001 372.6 61.9001C375.2 58.8001 377.8 55.8001 380.4 52.7001C381.1 51.9001 379.5 52.2001 379.2 52.2001C378 52.5001 376.8 53.1001 376.1 54.0001Z" fill="white"/>
</g>
<mask id="mask14_201_723" style="mask-type:luminance" maskUnits="userSpaceOnUse" x="51" y="51" width="398" height="398">
<path d="M250 448.5C359.629 448.5 448.5 359.629 448.5 250C448.5 140.371 359.629 51.5 250 51.5C140.371 51.5 51.5 140.371 51.5 250C51.5 359.629 140.371 448.5 250 448.5Z" fill="white"/>
</mask>
<g mask="url(#mask14_201_723)">
<path d="M387.6 69.3998C367.7 91.9998 347.1 114 325.9 135.5C304.7 156.9 282.9 177.7 260.5 197.8C238.2 217.9 215.2 237.3 191.8 256C168.2 274.9 144 293.1 119.3 310.5C94.7999 327.8 69.7999 344.5 44.2999 360.4C41.0999 362.4 37.9999 364.3 34.7999 366.3C33.8999 366.8 35.6999 367.9 36.0999 368C36.8999 368.4 38.3999 368.8 39.1999 368.3C64.8999 352.5 90.0999 336 114.8 318.8C139.5 301.6 163.7 283.6 187.4 265C211 246.4 234.1 227.2 256.5 207.3C279.1 187.3 301.2 166.5 322.6 145.2C343.9 124 364.5 102.2 384.6 79.7998C387.1 76.9998 389.6 74.1998 392 71.3998C393.1 70.2998 388.6 68.3998 387.6 69.3998Z" fill="white"/>
</g>
<mask id="mask15_201_723" style="mask-type:luminance" maskUnits="userSpaceOnUse" x="51" y="51" width="398" height="398">
<path d="M250 448.5C359.629 448.5 448.5 359.629 448.5 250C448.5 140.371 359.629 51.5 250 51.5C140.371 51.5 51.5 140.371 51.5 250C51.5 359.629 140.371 448.5 250 448.5Z" fill="white"/>
</mask>
<g mask="url(#mask15_201_723)">
<path d="M403.6 88.0001C380.7 105.9 360 126.3 339.8 147.1C319.5 168 299.8 189.4 278.8 209.5C257.6 229.8 235 248.5 211.4 265.8C187.7 283.2 163.1 299.3 138 314.7C112.9 330.1 87.3 344.8 61.7 359.2C58.6 361 55.4 362.7 52.3 364.5C51.7 364.9 53.9 365.3 54 365.4C54.9 365.5 56.2 365.7 57.1 365.2C82.8 350.8 108.4 336.2 133.6 321C158.8 305.8 183.6 289.9 207.5 272.8C231.4 255.7 254.4 237.4 275.9 217.5C297.2 197.7 317.1 176.5 337.3 155.5C357.4 134.6 377.9 113.9 400.2 95.4001C402.9 93.1001 405.7 90.9001 408.5 88.7001C409.1 88.2001 407 87.9001 406.8 87.8001C405.9 87.6001 404.3 87.4001 403.6 88.0001Z" fill="white"/>
</g>
<mask id="mask16_201_723" style="mask-type:luminance" maskUnits="userSpaceOnUse" x="51" y="51" width="398" height="398">
<path d="M250 448.5C359.629 448.5 448.5 359.629 448.5 250C448.5 140.371 359.629 51.5 250 51.5C140.371 51.5 51.5 140.371 51.5 250C51.5 359.629 140.371 448.5 250 448.5Z" fill="white"/>
</mask>
<g mask="url(#mask16_201_723)">
<path d="M409.9 109.6C389.2 129.2 368.4 148.7 347.3 167.9C326.1 187.2 304.5 206.2 282.5 224.6C260.6 242.8 238.3 260.4 215.2 277.1C192.3 293.7 168.6 309.3 144.2 323.6C119.7 338 94.3999 351 68.3999 362.3C65.1999 363.7 62.0999 365 58.8999 366.3C57.6999 366.8 58.3999 368.5 58.8999 369.1C59.6999 370.1 60.9999 370.4 62.0999 370C88.3999 359.1 114 346.4 138.8 332.3C163.4 318.3 187.2 303 210.3 286.6C233.7 270.1 256.3 252.5 278.5 234.3C300.6 216.2 322.1 197.4 343.3 178.2C364.5 159 385.4 139.5 406.2 119.9C408.8 117.5 411.4 115 413.9 112.6C415.6 111 411.7 107.9 409.9 109.6Z" fill="white"/>
</g>
<mask id="mask17_201_723" style="mask-type:luminance" maskUnits="userSpaceOnUse" x="51" y="51" width="398" height="398">
<path d="M250 448.5C359.629 448.5 448.5 359.629 448.5 250C448.5 140.371 359.629 51.5 250 51.5C140.371 51.5 51.5 140.371 51.5 250C51.5 359.629 140.371 448.5 250 448.5Z" fill="white"/>
</mask>
<g mask="url(#mask17_201_723)">
<path d="M425.4 113.2C405.6 135.9 384.9 157.8 363.4 178.9C342 200 319.8 220.3 296.8 239.7C274 259.1 250.4 277.6 226.2 295.3C202 313 177.2 329.7 151.7 345.6C126.2 361.5 100 376.5 73.4001 390.5C70.1001 392.2 66.8001 393.9 63.5001 395.7C60.9001 397 65.0001 399.2 66.7001 398.3C93.6001 384.5 120 369.7 145.8 354C171.5 338.3 196.5 321.7 221 304.3C245.6 286.7 269.6 268.2 292.8 248.8C316 229.5 338.4 209.3 360.1 188.4C381.7 167.5 402.6 145.8 422.6 123.3C425.1 120.5 427.6 117.7 430 114.9C431.4 113.1 426.7 111.7 425.4 113.2Z" fill="white"/>
</g>
<mask id="mask18_201_723" style="mask-type:luminance" maskUnits="userSpaceOnUse" x="51" y="51" width="398" height="398">
<path d="M250 448.5C359.629 448.5 448.5 359.629 448.5 250C448.5 140.371 359.629 51.5 250 51.5C140.371 51.5 51.5 140.371 51.5 250C51.5 359.629 140.371 448.5 250 448.5Z" fill="white"/>
</mask>
<g mask="url(#mask18_201_723)">
<path d="M425.3 132.2C404.2 150.6 384.2 170.1 364.5 189.9C344.7 209.7 325 229.7 304.5 248.9C284 268 262.6 286.1 239.8 302.4C216.6 319 192.3 333.9 167.9 348.8C143.6 363.6 119.3 378.3 95.9 394.5C93 396.5 90.2 398.5 87.3 400.5C86.6 401 89.7 404.9 90.6 404.3C113.7 387.8 138 372.8 162.2 358C186.5 343.1 211 328.4 234.5 312.2C257.6 296.2 279.5 278.6 300.2 259.6C320.9 240.7 340.7 220.8 360.5 201C380.3 181.2 400.1 161.5 420.9 142.8C423.5 140.5 426 138.2 428.6 136C429.4 135.3 426.1 131.6 425.3 132.2Z" fill="white"/>
</g>
<mask id="mask19_201_723" style="mask-type:luminance" maskUnits="userSpaceOnUse" x="51" y="51" width="398" height="398">
<path d="M250 448.5C359.629 448.5 448.5 359.629 448.5 250C448.5 140.371 359.629 51.5 250 51.5C140.371 51.5 51.5 140.371 51.5 250C51.5 359.629 140.371 448.5 250 448.5Z" fill="white"/>
</mask>
<g mask="url(#mask19_201_723)">
<path d="M450.9 129.3C430.4 148.4 409.9 167.5 389.1 186.2C368.3 205 347.3 223.5 325.7 241.3C304.2 259.1 282.2 276.3 259.5 292.6C237.4 308.4 214.7 323.4 192.3 338.9C170 354.3 147.9 370.3 127.2 387.9C124.7 390.1 122.1 392.2 119.6 394.5C119.4 394.7 121.7 395.5 121.9 395.6C122.4 395.7 123.9 396.3 124.4 395.9C144.7 377.9 166.6 361.6 188.8 346.1C211.1 330.5 233.8 315.5 256.1 299.9C278.9 283.9 301 267 322.6 249.4C344.3 231.7 365.4 213.3 386.2 194.6C407 175.9 427.6 156.9 448.1 137.8C450.6 135.5 453.1 133.1 455.6 130.8C455.8 130.6 453.5 129.8 453.3 129.7C452.9 129.4 451.4 128.8 450.9 129.3Z" fill="white"/>
</g>
<mask id="mask20_201_723" style="mask-type:luminance" maskUnits="userSpaceOnUse" x="51" y="51" width="398" height="398">
<path d="M250 448.5C359.629 448.5 448.5 359.629 448.5 250C448.5 140.371 359.629 51.5 250 51.5C140.371 51.5 51.5 140.371 51.5 250C51.5 359.629 140.371 448.5 250 448.5Z" fill="white"/>
</mask>
<g mask="url(#mask20_201_723)">
<path d="M438.9 164.2C417.4 182.5 397.1 202.1 376.9 221.7C356.7 241.3 336.5 261 315.3 279.5C294.1 297.9 271.7 314.7 248.4 330.3C225.3 345.8 201.5 360.4 178 375.3C154.5 390.2 131.3 405.5 109.2 422.4C106.4 424.5 103.7 426.6 101 428.8C100.4 429.3 104.1 432.3 105.3 431.4C127.3 413.9 150.6 398.3 174.2 383.1C197.7 368 221.6 353.4 244.9 338C268.1 322.7 290.6 306.5 311.8 288.6C333.2 270.5 353.5 251 373.6 231.5C393.8 211.9 414 192.1 435.2 173.5C437.8 171.2 440.5 168.9 443.1 166.6C443.8 166.3 440 163.2 438.9 164.2Z" fill="white"/>
</g>
<mask id="mask21_201_723" style="mask-type:luminance" maskUnits="userSpaceOnUse" x="51" y="51" width="398" height="398">
<path d="M250 448.5C359.629 448.5 448.5 359.629 448.5 250C448.5 140.371 359.629 51.5 250 51.5C140.371 51.5 51.5 140.371 51.5 250C51.5 359.629 140.371 448.5 250 448.5Z" fill="white"/>
</mask>
<g mask="url(#mask21_201_723)">
<path d="M442.7 177.4C423.7 196.4 404.8 215.4 385.6 234.2C366.4 253 347.1 271.7 327.4 290C307.8 308.2 287.9 326 267.5 343.3C247.1 360.6 226.2 377.3 204.6 393.1C183.2 409 161.1 424 138.4 438C135.5 439.8 132.7 441.5 129.8 443.2C128.9 443.7 130.5 443.9 130.8 443.9C131.8 443.9 133.3 443.8 134.2 443.3C157.2 429.5 179.6 414.6 201.3 398.9C222.9 383.3 243.9 366.8 264.4 349.8C285 332.6 305.1 314.9 324.8 296.7C344.6 278.4 364.1 259.8 383.4 240.9C402.5 222.2 421.5 203.3 440.4 184.3C442.8 181.9 445.2 179.5 447.5 177.2C448 176.7 445.8 176.7 445.7 176.7C444.8 176.7 443.3 176.7 442.7 177.4Z" fill="white"/>
</g>
<mask id="mask22_201_723" style="mask-type:luminance" maskUnits="userSpaceOnUse" x="51" y="51" width="398" height="398">
<path d="M250 448.5C359.629 448.5 448.5 359.629 448.5 250C448.5 140.371 359.629 51.5 250 51.5C140.371 51.5 51.5 140.371 51.5 250C51.5 359.629 140.371 448.5 250 448.5Z" fill="white"/>
</mask>
<g mask="url(#mask22_201_723)">
<path d="M474.3 179.2C453.1 194.2 433.7 211.5 414.9 229.3C396.2 247.1 377.8 265.3 358.6 282.5C339.4 299.7 319.7 316.2 299.3 332C279 347.7 258.2 362.7 236.8 376.9C215.5 391.1 193.6 404.7 171.4 417.4C168.6 419 165.9 420.6 163.1 422.1C160.6 423.5 163.6 427.5 165.9 426.2C188.3 413.6 210.4 400.2 231.9 386.1C253.4 372 274.3 357.2 294.8 341.7C315.3 326.1 335.3 309.8 354.6 292.8C374 275.7 392.4 257.8 411.1 239.9C429.7 222 448.7 204.4 469.4 188.9C472 187 474.6 185.1 477.2 183.2C479.5 181.6 476.5 177.7 474.3 179.2Z" fill="white"/>
</g>
<mask id="mask23_201_723" style="mask-type:luminance" maskUnits="userSpaceOnUse" x="51" y="51" width="398" height="398">
<path d="M250 448.5C359.629 448.5 448.5 359.629 448.5 250C448.5 140.371 359.629 51.5 250 51.5C140.371 51.5 51.5 140.371 51.5 250C51.5 359.629 140.371 448.5 250 448.5Z" fill="white"/>
</mask>
<g mask="url(#mask23_201_723)">
<path d="M457 207C440.6 225.6 423.6 243.7 406.1 261.2C388.5 278.7 370.5 295.7 351.9 312.2C333.4 328.7 314.5 344.6 295.3 360.2C276 375.8 256.3 391 236.4 405.8C226.4 413.2 216.3 420.6 206.2 427.8C197 434.4 187.7 441.1 180.4 449.8C178.6 451.9 177 454.2 175.6 456.5C174.2 458.8 178.4 461.5 179.8 459.2C185.8 449.4 194.7 442.1 203.9 435.4C213.7 428.2 223.6 421.2 233.4 414C253.4 399.3 273.1 384.2 292.5 368.7C311.8 353.3 330.8 337.4 349.4 321C368 304.6 386.2 287.7 403.9 270.3C421.6 252.9 438.7 234.9 455.3 216.4C457.3 214.1 459.4 211.8 461.4 209.6C462.2 208.6 461.2 207.1 460.4 206.6C459.1 205.9 457.8 206 457 207Z" fill="white"/>
</g>
<mask id="mask24_201_723" style="mask-type:luminance" maskUnits="userSpaceOnUse" x="51" y="51" width="398" height="398">
<path d="M250 448.5C359.629 448.5 448.5 359.629 448.5 250C448.5 140.371 359.629 51.5 250 51.5C140.371 51.5 51.5 140.371 51.5 250C51.5 359.629 140.371 448.5 250 448.5Z" fill="white"/>
</mask>
<g mask="url(#mask24_201_723)">
<path d="M453.8 238C436.9 255.9 419.9 273.8 402.6 291.3C385.3 308.8 367.6 325.9 349.1 342.1C330.7 358.3 311.5 373.7 291.4 387.7C270.8 402.1 249.3 415.2 227.7 427.9C206.1 440.6 184.3 453 163 466.2C160.3 467.9 157.6 469.5 154.9 471.2C154.2 471.6 156.3 472.3 156.5 472.3C157.4 472.5 158.8 472.8 159.6 472.3C180.9 459 202.7 446.4 224.4 433.7C246.1 421 267.7 408.1 288.5 394C308.9 380.2 328.4 365.1 347 349.1C365.6 333.1 383.5 316.1 400.9 298.8C418.3 281.5 435.2 263.7 452.1 245.9C454.2 243.7 456.4 241.4 458.5 239.2C459.1 238.6 454.7 237.1 453.8 238Z" fill="white"/>
</g>
<mask id="mask25_201_723" style="mask-type:luminance" maskUnits="userSpaceOnUse" x="51" y="51" width="398" height="398">
<path d="M250 448.5C359.629 448.5 448.5 359.629 448.5 250C448.5 140.371 359.629 51.5 250 51.5C140.371 51.5 51.5 140.371 51.5 250C51.5 359.629 140.371 448.5 250 448.5Z" fill="white"/>
</mask>
<g mask="url(#mask25_201_723)">
<path d="M461 245.5C444 260.9 427.8 277.2 411.7 293.4C395.6 309.7 379.4 326 362.5 341.5C345.9 356.7 328.6 370.9 310.8 384.6C293 398.2 274.7 411.3 256.2 423.9C237.7 436.5 219 448.8 200.3 461.1C197.9 462.6 195.6 464.2 193.2 465.7C192.8 466 196.1 469.3 197.3 468.5C216.1 456.2 234.9 443.9 253.5 431.3C272.1 418.7 290.5 405.8 308.4 392.3C326.3 378.8 343.8 364.7 360.5 349.8C377.6 334.6 393.8 318.4 409.9 302.1C426 285.9 442 269.6 458.8 254C460.9 252 463 250.1 465.2 248.2C465.7 247.8 462 244.6 461 245.5Z" fill="white"/>
</g>
<mask id="mask26_201_723" style="mask-type:luminance" maskUnits="userSpaceOnUse" x="51" y="51" width="398" height="398">
<path d="M250 448.5C359.629 448.5 448.5 359.629 448.5 250C448.5 140.371 359.629 51.5 250 51.5C140.371 51.5 51.5 140.371 51.5 250C51.5 359.629 140.371 448.5 250 448.5Z" fill="white"/>
</mask>
<g mask="url(#mask26_201_723)">
<path d="M453.9 273.9C439.1 286.7 424.3 299.4 409.4 312C394.5 324.6 379.5 337.1 364.3 349.4C349.2 361.6 333.9 373.6 318.3 385.3C302.7 396.9 286.9 408.2 270.8 419C254.7 429.8 238.2 440.1 221.3 449.7C219.2 450.9 217.1 452.1 214.9 453.3C214 453.8 215.7 453.9 215.9 453.9C217 453.8 218.2 453.6 219.2 453C236.2 443.5 252.8 433.3 269.1 422.6C285.4 411.9 301.3 400.7 317 389.1C332.7 377.5 348.1 365.5 363.4 353.3C378.6 341.1 393.6 328.6 408.5 316.1C423.4 303.5 438.3 290.8 453.1 278C455 276.4 456.8 274.8 458.7 273.2C459.2 272.8 456.9 272.8 456.8 272.9C455.9 273 454.7 273.2 453.9 273.9Z" fill="white"/>
</g>
<mask id="mask27_201_723" style="mask-type:luminance" maskUnits="userSpaceOnUse" x="51" y="51" width="398" height="398">
<path d="M250 448.5C359.629 448.5 448.5 359.629 448.5 250C448.5 140.371 359.629 51.5 250 51.5C140.371 51.5 51.5 140.371 51.5 250C51.5 359.629 140.371 448.5 250 448.5Z" fill="white"/>
</mask>
<g mask="url(#mask27_201_723)">
<path d="M467.1 287.2C450 297.5 433.8 308.9 417.9 320.9C402 332.9 386.5 345.3 370.8 357.6C355.2 369.8 339.5 381.8 323.1 392.9C306.6 404.1 289.3 413.9 272.2 424C255 434 238 444.4 222.1 456.4C220.1 457.9 218.2 459.4 216.2 461C215.7 461.4 214.9 462.3 215.9 462.6C216.9 462.9 218.4 462.1 219.2 461.5C234.7 449.1 251.5 438.6 268.5 428.5C285.6 418.4 303 408.7 319.6 397.7C336.2 386.8 352.1 374.9 367.8 362.8C383.5 350.7 398.9 338.2 414.6 326.2C430.3 314.2 446.2 302.6 463 292.2C465 290.9 467.1 289.7 469.1 288.4C469.6 288.1 470.9 287.2 470.2 286.6C469.5 286 467.7 286.9 467.1 287.2Z" fill="white"/>
</g>
<mask id="mask28_201_723" style="mask-type:luminance" maskUnits="userSpaceOnUse" x="51" y="51" width="398" height="398">
<path d="M250 448.5C359.629 448.5 448.5 359.629 448.5 250C448.5 140.371 359.629 51.5 250 51.5C140.371 51.5 51.5 140.371 51.5 250C51.5 359.629 140.371 448.5 250 448.5Z" fill="white"/>
</mask>
<g mask="url(#mask28_201_723)">
<path d="M440.6 322.3C427.2 333.4 413.6 344.1 399.7 354.6C385.8 365 371.6 375.1 357.2 384.8C342.8 394.5 328.2 403.9 313.3 412.9C298.5 421.9 283.4 430.6 268.1 438.9C252.8 447.2 237.4 455.1 221.7 462.6C219.7 463.5 217.8 464.5 215.8 465.4C214.9 465.8 216.4 467.1 216.8 467.4C217.6 467.9 218.9 468.5 219.9 468.1C235.6 460.7 251.1 452.8 266.4 444.7C281.7 436.5 296.8 427.9 311.7 419C326.6 410.1 341.3 400.8 355.7 391.1C370.2 381.5 384.4 371.5 398.3 361.1C412.3 350.8 426 340.1 439.4 329.1C441.1 327.7 442.8 326.3 444.5 324.9C445.9 323.8 441.7 321.3 440.6 322.3Z" fill="white"/>
</g>
<mask id="mask29_201_723" style="mask-type:luminance" maskUnits="userSpaceOnUse" x="51" y="51" width="398" height="398">
<path d="M250 448.5C359.629 448.5 448.5 359.629 448.5 250C448.5 140.371 359.629 51.5 250 51.5C140.371 51.5 51.5 140.371 51.5 250C51.5 359.629 140.371 448.5 250 448.5Z" fill="white"/>
</mask>
<g mask="url(#mask29_201_723)">
<path d="M455.6 336.1C440.1 345.9 424.6 355.5 409 365C393.4 374.5 377.6 383.7 361.6 392.6C345.6 401.6 329.4 410.2 313 418.3C296.9 426.3 280.4 433.7 264 441C247.9 448.1 231.9 455.5 217 464.9C215.1 466.1 213.3 467.3 211.5 468.5C210 469.5 214.1 472.2 215.5 471.2C230.1 461.3 246 453.6 262 446.3C278.4 438.9 294.8 431.8 310.9 423.9C327.4 415.9 343.6 407.3 359.7 398.5C375.7 389.7 391.5 380.5 407.2 371.1C422.9 361.7 438.4 352.1 453.9 342.3C455.8 341.1 457.8 339.9 459.7 338.6C461.1 337.9 457.1 335.2 455.6 336.1Z" fill="white"/>
</g>
<mask id="mask30_201_723" style="mask-type:luminance" maskUnits="userSpaceOnUse" x="51" y="51" width="398" height="398">
<path d="M250 448.5C359.629 448.5 448.5 359.629 448.5 250C448.5 140.371 359.629 51.5 250 51.5C140.371 51.5 51.5 140.371 51.5 250C51.5 359.629 140.371 448.5 250 448.5Z" fill="white"/>
</mask>
<g mask="url(#mask30_201_723)">
<path d="M400.2 390C381.2 401.5 361.8 412.4 342 422.7C322.3 432.9 302.2 442.5 281.8 451.4C270.4 456.4 258.8 461.2 247.2 465.7C244.7 466.7 247.3 470.9 249.6 470C270.3 461.9 290.7 453.1 310.9 443.6C331 434.1 350.8 424 370.2 413.1C381.1 407 391.9 400.8 402.6 394.3C403.7 393.7 403.8 392.5 403.2 391.4C402.8 390.6 401.3 389.3 400.2 390Z" fill="white"/>
</g>
</svg>
