<svg width="500" height="500" viewBox="0 0 500 500" fill="none" xmlns="http://www.w3.org/2000/svg">
<mask id="mask0_201_666" style="mask-type:luminance" maskUnits="userSpaceOnUse" x="51" y="51" width="398" height="398">
<path d="M250 448.5C359.629 448.5 448.5 359.629 448.5 250C448.5 140.371 359.629 51.5 250 51.5C140.371 51.5 51.5 140.371 51.5 250C51.5 359.629 140.371 448.5 250 448.5Z" fill="white"/>
</mask>
<g mask="url(#mask0_201_666)">
<path d="M58.3 47.7001C57.3 106.1 56.8 164.4 56.7 222.8C56.6 280.9 57 339 57.8 397.1C58.3 429.9 58.8 462.6 59.6 495.4C59.7 498.2 64.6 498.7 64.6 495.7C63.3 437.3 62.4 379 62 320.6C61.6 262.5 61.6 204.4 62.1 146.4C62.4 113.6 62.8 80.9001 63.3 48.1001C63.3 45.2001 58.4 44.7001 58.3 47.7001Z" fill="white"/>
</g>
<mask id="mask1_201_666" style="mask-type:luminance" maskUnits="userSpaceOnUse" x="51" y="51" width="398" height="398">
<path d="M250 448.5C359.629 448.5 448.5 359.629 448.5 250C448.5 140.371 359.629 51.5 250 51.5C140.371 51.5 51.5 140.371 51.5 250C51.5 359.629 140.371 448.5 250 448.5Z" fill="white"/>
</mask>
<g mask="url(#mask1_201_666)">
<path d="M77.6 93.5C76.3 140.8 76 188.1 76.6 235.4C77.2 282.6 78.9 329.8 81.4 376.9C82.9 403.6 84.6 430.3 86.7 456.9C86.8 458.5 91.7 457.5 91.5 455.7C87.8 408.6 85.1 361.5 83.4 314.3C81.7 267.1 80.9 219.9 81.1 172.7C81.2 146.1 81.6 119.5 82.4 92.9C82.5 91 77.6 91.9 77.6 93.5Z" fill="white"/>
</g>
<mask id="mask2_201_666" style="mask-type:luminance" maskUnits="userSpaceOnUse" x="51" y="51" width="398" height="398">
<path d="M250 448.5C359.629 448.5 448.5 359.629 448.5 250C448.5 140.371 359.629 51.5 250 51.5C140.371 51.5 51.5 140.371 51.5 250C51.5 359.629 140.371 448.5 250 448.5Z" fill="white"/>
</mask>
<g mask="url(#mask2_201_666)">
<path d="M130.9 8.99996C128.2 62.3 126.3 115.7 125.3 169.1C124.3 222.5 124 275.9 124.7 329.3C125.1 359.3 125.7 389.2 126.5 419.2C126.5 420.7 130.8 422.8 130.8 421.5C129.2 368.1 128.5 314.7 128.6 261.3C128.7 207.9 129.7 154.5 131.4 101.1C132.4 71.1 133.7 41.2 135.2 11.3C135.2 9.89996 131 7.59996 130.9 8.99996Z" fill="white"/>
</g>
<mask id="mask3_201_666" style="mask-type:luminance" maskUnits="userSpaceOnUse" x="51" y="51" width="398" height="398">
<path d="M250 448.5C359.629 448.5 448.5 359.629 448.5 250C448.5 140.371 359.629 51.5 250 51.5C140.371 51.5 51.5 140.371 51.5 250C51.5 359.629 140.371 448.5 250 448.5Z" fill="white"/>
</mask>
<g mask="url(#mask3_201_666)">
<path d="M156.3 27.4999C154.6 85.4999 153.2 143.4 151.9 201.4C150.7 259.1 149.6 316.8 148.8 374.4C148.3 406.9 148 439.5 147.6 472C147.6 473.1 148.4 474.1 149.2 474.7C149.4 474.9 151.3 476.1 151.3 475.1C151.9 417.1 152.7 359.1 153.7 301.2C154.7 243.5 155.9 185.8 157.3 128.2C158.1 95.6999 159 63.0999 159.9 30.5999C159.9 29.4999 159.1 28.4999 158.3 27.8999C158.2 27.6999 156.4 26.4999 156.3 27.4999Z" fill="white"/>
</g>
<mask id="mask4_201_666" style="mask-type:luminance" maskUnits="userSpaceOnUse" x="51" y="51" width="398" height="398">
<path d="M250 448.5C359.629 448.5 448.5 359.629 448.5 250C448.5 140.371 359.629 51.5 250 51.5C140.371 51.5 51.5 140.371 51.5 250C51.5 359.629 140.371 448.5 250 448.5Z" fill="white"/>
</mask>
<g mask="url(#mask4_201_666)">
<path d="M175.1 50.4999C174.4 104.6 173.8 158.7 173.1 212.8C172.4 266.6 171.8 320.4 171.1 374.2C170.7 404.6 170.4 434.9 170 465.3C170 467.5 174.9 468.4 174.9 466.4C175.6 412.3 176.2 358.2 176.9 304.1C177.6 250.3 178.2 196.5 178.9 142.7C179.3 112.3 179.6 81.9999 180 51.5999C180 49.2999 175.1 48.4999 175.1 50.4999Z" fill="white"/>
</g>
<mask id="mask5_201_666" style="mask-type:luminance" maskUnits="userSpaceOnUse" x="51" y="51" width="398" height="398">
<path d="M250 448.5C359.629 448.5 448.5 359.629 448.5 250C448.5 140.371 359.629 51.5 250 51.5C140.371 51.5 51.5 140.371 51.5 250C51.5 359.629 140.371 448.5 250 448.5Z" fill="white"/>
</mask>
<g mask="url(#mask5_201_666)">
<path d="M216.1 22.9C215.6 75.8 215.3 128.6 215.3 181.5C215.3 234.1 215.6 286.7 216.1 339.3C216.4 369 216.8 398.6 217.3 428.3C217.3 429.4 218.2 430.6 219 431.3C219.4 431.7 220.6 432.4 220.6 431.3C219.7 378.4 219.2 325.6 218.9 272.7C218.6 220.1 218.6 167.5 218.8 114.9C218.9 85.2 219.2 55.6 219.5 25.9C219.5 24.8 218.6 23.6 217.8 22.9C217.2 22.5 216.1 21.8 216.1 22.9Z" fill="white"/>
</g>
<mask id="mask6_201_666" style="mask-type:luminance" maskUnits="userSpaceOnUse" x="51" y="51" width="398" height="398">
<path d="M250 448.5C359.629 448.5 448.5 359.629 448.5 250C448.5 140.371 359.629 51.5 250 51.5C140.371 51.5 51.5 140.371 51.5 250C51.5 359.629 140.371 448.5 250 448.5Z" fill="white"/>
</mask>
<g mask="url(#mask6_201_666)">
<path d="M253.5 35.7C251.3 100.9 248.7 166.1 245.8 231.3C242.9 296.5 239.7 361.7 236.1 426.8C234.1 463.4 232 499.9 229.7 536.5C229.5 539.3 234.4 538.5 234.6 535.8C238.6 470.7 242.2 405.5 245.5 340.3C248.8 275.1 251.7 209.9 254.3 144.7C255.8 108.1 257.1 71.5 258.4 34.9C258.5 32.2 253.6 33 253.5 35.7Z" fill="white"/>
</g>
<mask id="mask7_201_666" style="mask-type:luminance" maskUnits="userSpaceOnUse" x="51" y="51" width="398" height="398">
<path d="M250 448.5C359.629 448.5 448.5 359.629 448.5 250C448.5 140.371 359.629 51.5 250 51.5C140.371 51.5 51.5 140.371 51.5 250C51.5 359.629 140.371 448.5 250 448.5Z" fill="white"/>
</mask>
<g mask="url(#mask7_201_666)">
<path d="M268.7 51.9001C270 115.4 270.9 178.8 271.4 242.3C272 305.5 272.2 368.6 272.1 431.8C272 467.4 271.9 503.1 271.6 538.7C271.6 539 276.3 538.2 276.3 536.9C276.8 473.4 277 409.9 276.8 346.5C276.6 283.3 276.1 220.2 275.2 157C274.7 121.4 274.1 85.8001 273.4 50.1001C273.3 49.8001 268.6 50.6001 268.7 51.9001Z" fill="white"/>
</g>
<mask id="mask8_201_666" style="mask-type:luminance" maskUnits="userSpaceOnUse" x="51" y="51" width="398" height="398">
<path d="M250 448.5C359.629 448.5 448.5 359.629 448.5 250C448.5 140.371 359.629 51.5 250 51.5C140.371 51.5 51.5 140.371 51.5 250C51.5 359.629 140.371 448.5 250 448.5Z" fill="white"/>
</mask>
<g mask="url(#mask8_201_666)">
<path d="M280.5 35.5001C287.2 96.6001 292.5 157.8 296.6 219C300.6 279.9 303.3 340.8 304.7 401.8C305.5 436 305.9 470.3 305.8 504.5C305.8 507.3 310.6 508.4 310.6 505.3C310.7 444 309.4 382.7 306.8 321.4C304.2 260.3 300.4 199.2 295.2 138.2C292.3 103.8 288.9 69.4001 285.2 35.1001C284.8 32.4001 280.1 32.3001 280.5 35.5001Z" fill="white"/>
</g>
<mask id="mask9_201_666" style="mask-type:luminance" maskUnits="userSpaceOnUse" x="51" y="51" width="398" height="398">
<path d="M250 448.5C359.629 448.5 448.5 359.629 448.5 250C448.5 140.371 359.629 51.5 250 51.5C140.371 51.5 51.5 140.371 51.5 250C51.5 359.629 140.371 448.5 250 448.5Z" fill="white"/>
</mask>
<g mask="url(#mask9_201_666)">
<path d="M324.6 90.9C328.9 151.1 332.9 211.4 336.4 271.6C339.9 331.8 342.9 392.2 345.6 452.5C347.1 486.4 348.4 520.2 349.6 554.1C349.6 555.1 354.5 554.3 354.4 552.8C352.3 492.5 349.7 432.1 346.7 371.8C343.7 311.5 340.3 251.2 336.4 191C334.2 157.2 331.9 123.4 329.5 89.6C329.4 88.4 324.5 89.4 324.6 90.9Z" fill="white"/>
</g>
<mask id="mask10_201_666" style="mask-type:luminance" maskUnits="userSpaceOnUse" x="51" y="51" width="398" height="398">
<path d="M250 448.5C359.629 448.5 448.5 359.629 448.5 250C448.5 140.371 359.629 51.5 250 51.5C140.371 51.5 51.5 140.371 51.5 250C51.5 359.629 140.371 448.5 250 448.5Z" fill="white"/>
</mask>
<g mask="url(#mask10_201_666)">
<path d="M393.1 83C384.9 144.7 378.6 206.7 374.3 268.9C370 331 367.7 393.3 367.4 455.6C367.2 490.5 367.7 525.4 368.7 560.3C368.7 561.1 373.6 560.4 373.5 559C371.6 496.7 371.7 434.4 373.8 372.2C375.9 309.9 379.9 247.8 385.9 185.8C389.3 151 393.3 116.3 397.9 81.7C398 81.1 393.3 81.5 393.1 83Z" fill="white"/>
</g>
<mask id="mask11_201_666" style="mask-type:luminance" maskUnits="userSpaceOnUse" x="51" y="51" width="398" height="398">
<path d="M250 448.5C359.629 448.5 448.5 359.629 448.5 250C448.5 140.371 359.629 51.5 250 51.5C140.371 51.5 51.5 140.371 51.5 250C51.5 359.629 140.371 448.5 250 448.5Z" fill="white"/>
</mask>
<g mask="url(#mask11_201_666)">
<path d="M408.5 119.8C408.5 163.5 408.5 207.3 408.5 251C408.5 294.7 408.5 338.5 408.5 382.2C408.5 406.9 408.5 431.6 408.5 456.2C408.5 457.6 413.5 457.7 413.5 456.3C413.5 412.6 413.5 368.8 413.5 325.1C413.5 281.4 413.5 237.6 413.5 193.9C413.5 169.2 413.5 144.5 413.5 119.9C413.5 118.5 408.5 118.4 408.5 119.8Z" fill="white"/>
</g>
<mask id="mask12_201_666" style="mask-type:luminance" maskUnits="userSpaceOnUse" x="51" y="51" width="398" height="398">
<path d="M250 448.5C359.629 448.5 448.5 359.629 448.5 250C448.5 140.371 359.629 51.5 250 51.5C140.371 51.5 51.5 140.371 51.5 250C51.5 359.629 140.371 448.5 250 448.5Z" fill="white"/>
</mask>
<g mask="url(#mask12_201_666)">
<path d="M436.1 152.4C435.9 194 435.8 235.7 435.6 277.3C435.4 318.7 435.3 360.2 435.1 401.6C435 425 434.9 448.3 434.8 471.7C434.8 474.5 439.6 475.4 439.6 472.3C439.8 430.7 439.9 389 440.1 347.4C440.3 306 440.4 264.5 440.6 223.1C440.7 199.7 440.8 176.4 440.9 153C440.9 150.3 436.1 149.4 436.1 152.4Z" fill="white"/>
</g>
<mask id="mask13_201_666" style="mask-type:luminance" maskUnits="userSpaceOnUse" x="51" y="51" width="398" height="398">
<path d="M250 448.5C359.629 448.5 448.5 359.629 448.5 250C448.5 140.371 359.629 51.5 250 51.5C140.371 51.5 51.5 140.371 51.5 250C51.5 359.629 140.371 448.5 250 448.5Z" fill="white"/>
</mask>
<g mask="url(#mask13_201_666)">
<path d="M101 152.7C93.2 162.6 85.5 172.6 77.9 182.7C77.1 183.7 76.3 184.8 76.4 186.2C76.5 187.7 77.3 189.3 78.5 190.2C80.8 191.9 83.5 189.3 85 187.7C86.9 185.7 88.5 183.4 90.1 181.2C91.8 178.9 93.4 176.5 94.9 174.1C98.3 168.6 101.4 162.9 104 157.1C104.5 156.1 103.9 154.8 103.2 154C102.9 153.6 101.5 152.2 101 153.2C96.8 162.5 91.6 171.3 85.5 179.5C84.1 181.4 82.6 183.5 80.8 185C80.4 185.3 79.9 185.6 79.5 185.9C79.3 186 79 186.1 78.8 186.3C78.7 186.3 78.7 186.3 78.6 186.4C77.7 186.6 78.1 187.3 79.8 188.3C80.1 188.1 80.5 187.3 80.8 186.9C81.3 186.2 81.8 185.6 82.3 184.9C85.6 180.5 89 176.1 92.4 171.7C96.3 166.7 100.2 161.6 104.1 156.6C104.9 155.3 102.1 151.2 101 152.7Z" fill="white"/>
</g>
<mask id="mask14_201_666" style="mask-type:luminance" maskUnits="userSpaceOnUse" x="51" y="51" width="398" height="398">
<path d="M250 448.5C359.629 448.5 448.5 359.629 448.5 250C448.5 140.371 359.629 51.5 250 51.5C140.371 51.5 51.5 140.371 51.5 250C51.5 359.629 140.371 448.5 250 448.5Z" fill="white"/>
</mask>
<g mask="url(#mask14_201_666)">
<path d="M80.1 238.3C76.5 226.2 68.1 216.7 59.7 207.6C58.7 206.5 58.8 207.8 59 208.6C60.7 213.5 64.4 217.6 67.3 221.7C70.4 226 73.5 230.3 76.6 234.6C77.1 235.3 78.1 235.9 77.8 234.5C77 231.2 75.1 228.4 73.1 225.8C71.6 224 69.5 222.1 68.9 219.8C68.6 218.7 68 217.5 67.2 216.7C66.6 216.1 66.1 216.2 66.4 217.2C67.2 220.5 69.1 223.3 71.1 225.9C72.6 227.7 74.7 229.6 75.3 231.9C75.7 231.9 76.1 231.9 76.5 231.8C73.8 228 71 224.3 68.3 220.5C67 218.6 65.6 216.8 64.3 214.9C63.2 213.4 61.9 211.9 61.3 210.2C61.1 210.5 60.9 210.8 60.6 211.2C67.3 218.4 74.7 226 77.6 235.7C77.9 236.8 78.5 238 79.3 238.8C79.9 239.4 80.4 239.3 80.1 238.3Z" fill="white"/>
</g>
<mask id="mask15_201_666" style="mask-type:luminance" maskUnits="userSpaceOnUse" x="51" y="51" width="398" height="398">
<path d="M250 448.5C359.629 448.5 448.5 359.629 448.5 250C448.5 140.371 359.629 51.5 250 51.5C140.371 51.5 51.5 140.371 51.5 250C51.5 359.629 140.371 448.5 250 448.5Z" fill="white"/>
</mask>
<g mask="url(#mask15_201_666)">
<path d="M83.5 305.4C89.3 291.1 96.3 277.4 104.6 264.4C103.1 263.8 101.5 263.2 100 262.6C99.8 266.3 98.4 269.7 96.7 272.9C94.9 276.3 93 279.7 91.2 283.1C87.3 290.1 83.3 297 79.1 303.8C78.5 304.7 79.5 305.5 80.3 305.9C80.9 306.2 83 306.8 83.5 305.9C87.7 299 91.8 292 95.7 285C97.6 281.5 99.6 278.1 101.4 274.6C103.1 271.3 104.6 267.8 104.8 264.1C104.9 263.1 103.9 262.5 103.1 262.2C102.4 262 100.7 261.5 100.2 262.3C91.8 275.5 84.6 289.4 78.7 304C78 305.6 82.8 307.2 83.5 305.4Z" fill="white"/>
</g>
<mask id="mask16_201_666" style="mask-type:luminance" maskUnits="userSpaceOnUse" x="51" y="51" width="398" height="398">
<path d="M250 448.5C359.629 448.5 448.5 359.629 448.5 250C448.5 140.371 359.629 51.5 250 51.5C140.371 51.5 51.5 140.371 51.5 250C51.5 359.629 140.371 448.5 250 448.5Z" fill="white"/>
</mask>
<g mask="url(#mask16_201_666)">
<path d="M129.2 258.5C136.2 242.9 143.6 227.6 151.5 212.5C149.9 212.2 148.3 211.8 146.7 211.5C146.3 229.3 136.5 245.2 125.2 258.4C126.7 259.1 128.2 259.8 129.7 260.4C134 250.9 138.9 241.7 144.3 232.8C145.8 230.4 141.4 228.2 140 230.3C134.4 239.5 129.3 249 124.9 258.8C124.4 259.8 125.5 260.9 126.4 261.3C127.4 261.7 128.7 261.7 129.4 260.8C138.6 250.1 146.7 237.8 150 223.9C150.9 220 151.5 216 151.6 211.9C151.7 209.5 147.8 208.9 146.8 210.9C138.9 226 131.5 241.4 124.5 256.9C123.4 259.3 128.1 260.9 129.2 258.5Z" fill="white"/>
</g>
<mask id="mask17_201_666" style="mask-type:luminance" maskUnits="userSpaceOnUse" x="51" y="51" width="398" height="398">
<path d="M250 448.5C359.629 448.5 448.5 359.629 448.5 250C448.5 140.371 359.629 51.5 250 51.5C140.371 51.5 51.5 140.371 51.5 250C51.5 359.629 140.371 448.5 250 448.5Z" fill="white"/>
</mask>
<g mask="url(#mask17_201_666)">
<path d="M128.8 202.3C125.3 190.7 117.6 180.5 107.3 174.1C106.7 173.7 102.9 175.9 103 176.6C103.2 178.2 104.3 179.6 105.2 181C106.1 182.4 107.1 183.8 108.1 185.2C110 187.9 112.1 190.6 114 193.3C118 198.7 121.8 204.3 124.4 210.5C124.5 210.8 129 208.6 128.7 208C126.1 201.8 122.2 196.2 118.3 190.8C116.3 188.1 114.3 185.4 112.4 182.7C111.4 181.3 110.4 179.9 109.5 178.5C108.6 177.1 107.5 175.7 107.3 174.1C105.9 174.9 104.4 175.8 103 176.6C113.3 183 121 193.1 124.5 204.8C124.5 204.9 129.1 203.1 128.8 202.3Z" fill="white"/>
</g>
<mask id="mask18_201_666" style="mask-type:luminance" maskUnits="userSpaceOnUse" x="51" y="51" width="398" height="398">
<path d="M250 448.5C359.629 448.5 448.5 359.629 448.5 250C448.5 140.371 359.629 51.5 250 51.5C140.371 51.5 51.5 140.371 51.5 250C51.5 359.629 140.371 448.5 250 448.5Z" fill="white"/>
</mask>
<g mask="url(#mask18_201_666)">
<path d="M157.3 147.5C164.4 137.9 167.1 126 173.7 116.1C172.1 115.9 170.4 115.8 168.8 115.6C166.4 126.6 160.9 137 153 145.1C151.3 146.8 156.1 147.8 157.3 146.6C165.5 138 171.2 127.4 173.8 115.7C174 114.8 172.2 114.4 171.7 114.3C170.8 114.2 169.5 114.3 168.9 115.2C162.3 125.1 159.7 137.1 152.5 146.6C151.8 147.5 153.6 148.2 154.2 148.3C155.3 148.5 156.6 148.4 157.3 147.5Z" fill="white"/>
</g>
<mask id="mask19_201_666" style="mask-type:luminance" maskUnits="userSpaceOnUse" x="51" y="51" width="398" height="398">
<path d="M250 448.5C359.629 448.5 448.5 359.629 448.5 250C448.5 140.371 359.629 51.5 250 51.5C140.371 51.5 51.5 140.371 51.5 250C51.5 359.629 140.371 448.5 250 448.5Z" fill="white"/>
</mask>
<g mask="url(#mask19_201_666)">
<path d="M176.6 203.7C172.7 196 168.8 188.4 164.1 181.2C163.8 180.7 160.1 178.2 160.2 179.6C160.3 188.9 164.9 197.5 172.1 203.3C172.7 203.8 173.8 204.6 174.7 204.5C175.4 204.4 175.3 203.9 174.9 203.4C171.3 199.1 165.8 195 166.7 188.7C165.4 188.2 164.1 187.6 162.8 187.1C165.7 190.8 167.9 195 169.3 199.4C169.6 200.4 170.7 201.1 171.6 201.6C171.8 201.7 173.9 202.5 173.6 201.7C172 196.7 169.6 192.2 166.4 188C166 187.5 162.7 184.9 162.5 186.4C161.5 193.1 167.6 197.8 171.4 202.4C172.3 202.4 173.3 202.5 174.2 202.5C168 197.6 164.6 189.6 164.6 181.7C163.3 181.2 162 180.6 160.7 180.1C165.3 187 169 194.5 172.8 201.9C173.3 202.9 174.5 203.6 175.5 204C175.7 204.4 177.1 204.7 176.6 203.7Z" fill="white"/>
</g>
<mask id="mask20_201_666" style="mask-type:luminance" maskUnits="userSpaceOnUse" x="51" y="51" width="398" height="398">
<path d="M250 448.5C359.629 448.5 448.5 359.629 448.5 250C448.5 140.371 359.629 51.5 250 51.5C140.371 51.5 51.5 140.371 51.5 250C51.5 359.629 140.371 448.5 250 448.5Z" fill="white"/>
</mask>
<g mask="url(#mask20_201_666)">
<path d="M176.5 334.7C186.5 319.1 196.5 303.5 206.5 287.9C205.4 286.6 204.4 285.4 203.3 284.1C201.8 300.8 192.2 315.2 181.5 327.6C178.4 331.3 175.1 334.8 171.9 338.3C173 339.6 174 340.8 175.1 342.1C177 335.4 180.7 329.6 185 324.2C189.4 318.8 194.5 314 198.8 308.6C201.1 305.6 203.1 302.3 203.6 298.5C203.7 297.6 202.7 296.4 202.1 295.8C201.9 295.6 200.4 294.2 200.3 295C199.4 302 193.8 307.1 189.2 312C184.5 317.1 179.8 322.3 176.3 328.3C174.4 331.6 172.8 335 171.7 338.7C171.5 339.5 174.2 343.2 174.9 342.5C186.2 330.2 197.7 317.5 203.4 301.5C205 297.1 206 292.5 206.5 287.9C206.6 287.1 203.8 283.4 203.3 284.1C193.3 299.7 183.3 315.3 173.3 330.9C172.7 331.9 176.2 335.2 176.5 334.7Z" fill="white"/>
</g>
<mask id="mask21_201_666" style="mask-type:luminance" maskUnits="userSpaceOnUse" x="51" y="51" width="398" height="398">
<path d="M250 448.5C359.629 448.5 448.5 359.629 448.5 250C448.5 140.371 359.629 51.5 250 51.5C140.371 51.5 51.5 140.371 51.5 250C51.5 359.629 140.371 448.5 250 448.5Z" fill="white"/>
</mask>
<g mask="url(#mask21_201_666)">
<path d="M153.8 310.3C152.9 307.2 151 304.6 149 302.1C146.8 299.4 144.5 296.8 142.2 294.1C140.9 292.6 137.3 293.9 137.8 296C138.6 299.6 141.1 302.4 143.6 305.1C144.2 305.7 144.7 306.3 145.3 307C145.9 307.7 146.1 307.9 146.7 308.8C147.2 309.5 147.5 310.2 147.9 311C148.1 311.4 147.9 310.8 148 311.2C148.1 311.4 148.1 311.5 148.1 311.7C148.2 312.1 148.3 312.6 148.4 313C148.6 314.3 150.2 314.8 151.3 314.5C152.5 314.3 153.5 313.3 153.4 312C153 308.4 150.6 305.5 148.2 302.9C147.6 302.3 147.1 301.7 146.5 301C146.2 300.7 145.9 300.3 145.6 300C145.5 299.8 145.3 299.7 145.2 299.5C145.4 299.8 145 299.3 145 299.3C144.5 298.6 144 297.9 143.6 297.2C143.4 296.9 143.3 296.5 143.1 296.2C143 296.1 143 296.1 143.1 296.2C143.1 296.1 143 296 143 295.9C142.9 295.7 142.9 295.4 142.8 295.2C141.3 295.8 139.9 296.5 138.4 297.1C140.5 299.6 142.7 302.1 144.8 304.7C146.5 306.7 148.2 308.9 148.9 311.5C149.3 312.7 150.5 313.3 151.8 313C152.8 312.6 154.2 311.5 153.8 310.3Z" fill="white"/>
</g>
<mask id="mask22_201_666" style="mask-type:luminance" maskUnits="userSpaceOnUse" x="51" y="51" width="398" height="398">
<path d="M250 448.5C359.629 448.5 448.5 359.629 448.5 250C448.5 140.371 359.629 51.5 250 51.5C140.371 51.5 51.5 140.371 51.5 250C51.5 359.629 140.371 448.5 250 448.5Z" fill="white"/>
</mask>
<g mask="url(#mask22_201_666)">
<path d="M217.4 245.8C217.9 245.7 217.8 245.9 217.4 245.4C217.1 245.1 216.8 244.8 216.6 244.4C216 243.8 215.5 243.1 215 242.4C213.9 241 212.8 239.6 211.7 238.2C209.6 235.4 207.6 232.6 205.6 229.7C201.6 223.9 197.9 217.9 194.2 211.9C193.3 210.5 190.6 211.5 190 212.6C188.1 215.9 189.6 220.2 190.7 223.6C191.9 227.2 193.6 230.5 195.6 233.7C199.6 239.9 205.1 245.1 211.6 248.7C212.6 247.5 213.5 246.4 214.5 245.2C205.6 241.7 202.2 231.4 199.5 223.1C198.7 220.8 194.1 222.5 194.8 224.9C198 234.5 202 244.9 212.1 248.9C213.9 249.6 217.3 246.7 215 245.4C209.1 242.1 204.2 237.5 200.4 232C198.6 229.3 197.1 226.3 195.9 223.2C195.3 221.7 194.8 220.1 194.5 218.5C194.2 217.1 193.5 215.1 194.3 213.7C192.9 213.9 191.5 214.2 190.1 214.4C194.1 220.9 198.2 227.4 202.5 233.7C204.7 236.8 206.9 239.9 209.2 242.8C210.4 244.3 211.5 245.7 212.7 247.1C214 248.6 215.4 249.6 217.5 249.2C218.6 249 219.9 248.1 219.9 246.9C219.9 246.1 218.5 245.6 217.4 245.8Z" fill="white"/>
</g>
<mask id="mask23_201_666" style="mask-type:luminance" maskUnits="userSpaceOnUse" x="51" y="51" width="398" height="398">
<path d="M250 448.5C359.629 448.5 448.5 359.629 448.5 250C448.5 140.371 359.629 51.5 250 51.5C140.371 51.5 51.5 140.371 51.5 250C51.5 359.629 140.371 448.5 250 448.5Z" fill="white"/>
</mask>
<g mask="url(#mask23_201_666)">
<path d="M220.9 155.5C225 142.7 230.6 130.5 237.7 119.2C236.3 118.7 234.8 118.2 233.4 117.7C233.7 121.2 232.5 124.6 231 127.8C229.5 131.3 227.8 134.7 226.1 138.2C222.8 145.3 219.5 152.3 216.2 159.4C215.2 161.6 219.3 164.4 220.4 161.9C223.8 154.5 227.3 147.2 230.7 139.8C232.3 136.3 234.1 132.8 235.6 129.2C237.1 125.6 238.1 121.9 237.7 118C237.5 116 234.5 114.7 233.4 116.5C226.3 127.9 220.7 140.1 216.6 152.8C216.2 154 216.9 155.3 217.9 155.9C218.8 156.6 220.5 156.7 220.9 155.5Z" fill="white"/>
</g>
<mask id="mask24_201_666" style="mask-type:luminance" maskUnits="userSpaceOnUse" x="51" y="51" width="398" height="398">
<path d="M250 448.5C359.629 448.5 448.5 359.629 448.5 250C448.5 140.371 359.629 51.5 250 51.5C140.371 51.5 51.5 140.371 51.5 250C51.5 359.629 140.371 448.5 250 448.5Z" fill="white"/>
</mask>
<g mask="url(#mask24_201_666)">
<path d="M221.6 349.4C223.6 345.3 225.7 341.2 227.9 337.2C229 335.2 230.1 333.3 231.2 331.3C231.8 330.3 232.3 329.4 232.9 328.4C233.2 327.9 233.9 326.2 234.7 326.4C234.2 326.2 233.8 326 233.3 325.7C233.4 325.8 233.5 325.8 233.5 325.9C232.9 325 232.3 324.2 231.7 323.3C229 333.6 222 342 215.3 350.1C214.4 351.2 218.2 354.5 219 353.4C225.9 345.2 232.9 336.7 235.6 326.1C235.8 325.2 234.3 323.9 233.8 323.5C232.9 322.9 232 322.3 231 322.8C230 323.3 229.6 324.3 229.1 325.2C227.8 327.5 226.4 329.8 225.2 332.1C222.7 336.7 220.3 341.3 218 345.9C217.2 347.5 221.1 350.4 221.6 349.4Z" fill="white"/>
</g>
<mask id="mask25_201_666" style="mask-type:luminance" maskUnits="userSpaceOnUse" x="51" y="51" width="398" height="398">
<path d="M250 448.5C359.629 448.5 448.5 359.629 448.5 250C448.5 140.371 359.629 51.5 250 51.5C140.371 51.5 51.5 140.371 51.5 250C51.5 359.629 140.371 448.5 250 448.5Z" fill="white"/>
</mask>
<g mask="url(#mask25_201_666)">
<path d="M249.6 274.7C245.9 263.5 241.5 252.5 236.3 241.9C235.9 241 234.9 240.4 233.9 240.2C233.2 240.1 231.9 240.2 231.6 241.1C230.2 246.9 232.5 252.7 234.8 258C237.1 263.4 240 268.6 243.2 273.6C244.3 275.4 249 275.2 247.3 272.6C244.4 268 241.8 263.3 239.6 258.3C237.5 253.6 235 248.1 236.3 242.8C234.7 242.5 233.2 242.3 231.6 242C236.8 252.6 241.3 263.6 244.9 274.8C245.6 276.8 250.4 277.3 249.6 274.7Z" fill="white"/>
</g>
<mask id="mask26_201_666" style="mask-type:luminance" maskUnits="userSpaceOnUse" x="51" y="51" width="398" height="398">
<path d="M250 448.5C359.629 448.5 448.5 359.629 448.5 250C448.5 140.371 359.629 51.5 250 51.5C140.371 51.5 51.5 140.371 51.5 250C51.5 359.629 140.371 448.5 250 448.5Z" fill="white"/>
</mask>
<g mask="url(#mask26_201_666)">
<path d="M253.1 191.4C258.6 181.7 264.1 172.1 269.6 162.4C268 162.3 266.5 162.1 264.9 162C265.7 162.7 264.7 164.4 264.3 165.1C263.5 166.5 262.7 167.9 261.8 169.3C260.2 172 258.5 174.7 256.7 177.3C253.1 182.7 249.3 187.9 245.3 192.9C244.8 193.5 246.6 193.9 246.9 194C247.5 194.1 249.5 194.7 250 194C254.2 188.7 258.2 183.3 261.9 177.7C263.8 174.9 265.6 172 267.3 169.1C268.1 167.8 269 166.5 269.6 165.1C270.1 163.9 270.2 162.9 269.2 162.1C268.5 161.5 265.1 160.7 264.5 161.7C259 171.4 253.5 181 248 190.7C248 191 252.5 192.6 253.1 191.4Z" fill="white"/>
</g>
<mask id="mask27_201_666" style="mask-type:luminance" maskUnits="userSpaceOnUse" x="51" y="51" width="398" height="398">
<path d="M250 448.5C359.629 448.5 448.5 359.629 448.5 250C448.5 140.371 359.629 51.5 250 51.5C140.371 51.5 51.5 140.371 51.5 250C51.5 359.629 140.371 448.5 250 448.5Z" fill="white"/>
</mask>
<g mask="url(#mask27_201_666)">
<path d="M276.3 357.9C271.6 345.1 261.6 334.5 259.2 320.7C259.2 320.5 254.6 321.5 254.4 322.2C253.9 323.8 254.4 325.4 254.8 327C255.2 328.7 255.7 330.3 256.3 331.9C257.4 335.1 258.8 338.3 260.3 341.3C263.4 347.4 267.1 353.3 270.8 359C271.2 359.7 275.6 357.5 275.6 357.5C271.9 351.7 268.2 345.9 265.1 339.8C263.6 336.8 262.2 333.6 261.1 330.4C260.6 328.9 260.1 327.3 259.7 325.7C259.3 324.1 258.8 322.4 259.2 320.7C257.6 321.2 256 321.7 254.4 322.2C256.8 335.9 266.8 346.5 271.5 359.4C271.6 359.8 276.4 358.2 276.3 357.9Z" fill="white"/>
</g>
<mask id="mask28_201_666" style="mask-type:luminance" maskUnits="userSpaceOnUse" x="51" y="51" width="398" height="398">
<path d="M250 448.5C359.629 448.5 448.5 359.629 448.5 250C448.5 140.371 359.629 51.5 250 51.5C140.371 51.5 51.5 140.371 51.5 250C51.5 359.629 140.371 448.5 250 448.5Z" fill="white"/>
</mask>
<g mask="url(#mask28_201_666)">
<path d="M274.3 123.4C279.8 116.1 282.3 107.1 287.2 99.5C285.8 99.4 284.3 99.1999 282.9 99.0999C279.9 108.2 275.9 117 271.2 125.3C270.6 126.3 271.9 127 272.8 127C274 127 275.2 126.4 275.8 125.3C280.5 117 284.5 108.2 287.5 99.0999C288.3 96.5999 284 97.2999 283.2 98.6999C278.3 106.4 275.8 115.3 270.3 122.6C269.7 123.5 270 124.4 271.1 124.7C272.1 124.9 273.6 124.4 274.3 123.4Z" fill="white"/>
</g>
<mask id="mask29_201_666" style="mask-type:luminance" maskUnits="userSpaceOnUse" x="51" y="51" width="398" height="398">
<path d="M250 448.5C359.629 448.5 448.5 359.629 448.5 250C448.5 140.371 359.629 51.5 250 51.5C140.371 51.5 51.5 140.371 51.5 250C51.5 359.629 140.371 448.5 250 448.5Z" fill="white"/>
</mask>
<g mask="url(#mask29_201_666)">
<path d="M304.9 271.1C297.6 260.8 290.3 250.5 283 240.2C282.4 239.4 281.1 239.3 280.2 239.4C279.6 239.5 277.9 239.8 278.1 240.7C279 247.2 283.2 252.4 287 257.6C291.3 263.5 295.4 269.5 299.4 275.7C300.3 277.1 305.1 276.4 304.2 274.9C300.4 268.9 296.4 262.9 292.1 257.2C288.4 252.2 284 247 283.1 240.6C281.5 240.8 279.8 240.9 278.2 241.1C285.5 251.4 292.8 261.7 300.1 272C300.7 272.9 302.2 272.9 303.2 272.8C303.8 272.5 305.6 272 304.9 271.1Z" fill="white"/>
</g>
<mask id="mask30_201_666" style="mask-type:luminance" maskUnits="userSpaceOnUse" x="51" y="51" width="398" height="398">
<path d="M250 448.5C359.629 448.5 448.5 359.629 448.5 250C448.5 140.371 359.629 51.5 250 51.5C140.371 51.5 51.5 140.371 51.5 250C51.5 359.629 140.371 448.5 250 448.5Z" fill="white"/>
</mask>
<g mask="url(#mask30_201_666)">
<path d="M301.4 225.3C309.5 207.8 316.3 189.7 321.8 171.2C320.9 169.9 320 168.7 319.1 167.4C320.1 176.8 319.9 186.5 315.9 195.2C313.8 199.7 310.9 203.7 308.2 207.8C305.2 212.2 302.3 216.5 299.3 220.9C300.1 222.3 301 223.7 301.8 225.1C308.7 211 320.6 198.6 322.1 182.4C322.2 181.4 321.5 180.3 321 179.5C320.9 179.3 319.7 177.7 319.4 178.4C316.8 185.3 314.2 192.2 311.6 199C311.3 199.8 312.3 201.3 312.7 201.9C312.8 202.1 314 203.7 314.3 203C316.9 196.1 319.5 189.2 322.1 182.4C321.2 181 320.3 179.7 319.5 178.3C318 194.5 306.1 207 299.2 221C298.9 221.7 299.8 223.1 300.1 223.6C300.2 223.8 301.4 225.6 301.7 225.2C306.2 218.5 311 211.9 315.3 205.1C319.4 198.5 321.7 191.4 322.2 183.6C322.5 179.3 322.3 175 321.8 170.7C321.7 169.7 321.1 168.6 320.5 167.8C320.4 167.6 319.3 166.2 319.1 166.9C313.6 185.4 306.8 203.5 298.7 221C298.3 221.8 299.4 223.3 299.8 223.9C300 224.4 301.1 226 301.4 225.3Z" fill="white"/>
</g>
<mask id="mask31_201_666" style="mask-type:luminance" maskUnits="userSpaceOnUse" x="51" y="51" width="398" height="398">
<path d="M250 448.5C359.629 448.5 448.5 359.629 448.5 250C448.5 140.371 359.629 51.5 250 51.5C140.371 51.5 51.5 140.371 51.5 250C51.5 359.629 140.371 448.5 250 448.5Z" fill="white"/>
</mask>
<g mask="url(#mask31_201_666)">
<path d="M309.6 378.3C317.8 367.1 320.8 353.3 325.7 340.5C327.1 336.9 328.6 333.3 330.4 330C328.9 329.5 327.3 329 325.8 328.5C325.6 336 323.4 343.4 319.5 349.7C315.8 355.7 310.8 360.9 307.3 367C305.5 370.1 302.9 374.5 306.7 377.2C307.6 377.8 309.3 377.8 310 376.9C310.8 375.9 310 374.7 309.1 374.1C309.8 374.6 309.4 374.7 309.5 374C309.5 373.6 309.7 373.1 309.9 372.7C310.3 371.7 310.8 370.8 311.3 369.8C312.3 368 313.5 366.3 314.7 364.6C317.2 361.2 319.9 357.9 322.2 354.4C327.3 346.8 330.3 338.1 330.6 328.9C330.7 327 327 325.6 326 327.4C319.4 339.6 316.8 353.3 311 365.8C309.4 369.3 307.5 372.6 305.2 375.7C303.8 378.1 308.2 380.3 309.6 378.3Z" fill="white"/>
</g>
<mask id="mask32_201_666" style="mask-type:luminance" maskUnits="userSpaceOnUse" x="51" y="51" width="398" height="398">
<path d="M250 448.5C359.629 448.5 448.5 359.629 448.5 250C448.5 140.371 359.629 51.5 250 51.5C140.371 51.5 51.5 140.371 51.5 250C51.5 359.629 140.371 448.5 250 448.5Z" fill="white"/>
</mask>
<g mask="url(#mask32_201_666)">
<path d="M342.5 295.4C336.1 283.2 329.2 271.3 321.7 259.7C321.4 259.3 317.6 256.6 317.4 257.3C317 258.9 317.4 260.4 317.9 261.9C318.4 263.5 318.9 265.1 319.5 266.7C320.7 269.8 322.1 272.7 323.8 275.6C327.1 281.4 331.2 286.7 335.7 291.5C336.4 292.3 337.4 292.8 338.3 293.3C338.5 293.4 340 294.1 339.8 293.5C339.3 291.1 338 289 336.6 287C335.1 284.8 333.5 282.7 332.1 280.5C329.3 276 327 271.2 325.2 266.2C324.9 265.4 323.5 264.7 322.7 264.3C322.5 264.2 320.7 263.4 320.9 263.9C322.7 268.9 325 273.7 327.8 278.2C329.1 280.3 330.5 282.3 332 284.3C333.5 286.4 335 288.6 335.5 291.1C336.9 291.8 338.3 292.4 339.6 293.1C335.2 288.4 331.2 283.3 328 277.7C326.4 275 325 272.1 323.9 269.2C323.3 267.8 322.8 266.3 322.4 264.8C321.9 263.2 321.2 261.4 321.7 259.7C320.3 258.9 318.8 258.1 317.4 257.3C324.9 268.9 331.8 280.8 338.2 293C338.6 293.9 339.9 294.4 340.7 294.9C340.9 295.1 342.8 295.9 342.5 295.4Z" fill="white"/>
</g>
<mask id="mask33_201_666" style="mask-type:luminance" maskUnits="userSpaceOnUse" x="51" y="51" width="398" height="398">
<path d="M250 448.5C359.629 448.5 448.5 359.629 448.5 250C448.5 140.371 359.629 51.5 250 51.5C140.371 51.5 51.5 140.371 51.5 250C51.5 359.629 140.371 448.5 250 448.5Z" fill="white"/>
</mask>
<g mask="url(#mask33_201_666)">
<path d="M333.7 144.8C341.8 133.1 349.9 121.3 360.5 111.7C359.2 110.6 358 109.5 356.7 108.4C349.1 121.4 340.5 133.7 330.9 145.2C329.6 146.8 333.4 150 334.7 148.5C344.3 137 353 124.6 360.5 111.7C361.5 110 358.3 107 356.7 108.4C346.1 118 337.9 129.8 329.9 141.5C328.8 143.2 332.6 146.4 333.7 144.8Z" fill="white"/>
</g>
<mask id="mask34_201_666" style="mask-type:luminance" maskUnits="userSpaceOnUse" x="51" y="51" width="398" height="398">
<path d="M250 448.5C359.629 448.5 448.5 359.629 448.5 250C448.5 140.371 359.629 51.5 250 51.5C140.371 51.5 51.5 140.371 51.5 250C51.5 359.629 140.371 448.5 250 448.5Z" fill="white"/>
</mask>
<g mask="url(#mask34_201_666)">
<path d="M345.8 359.2C348.6 356.8 349.6 352.9 351.4 349.8C353.3 346.5 355.7 343.6 358.5 341C357 340.5 355.5 339.9 354 339.4C352.3 347.1 347.4 353.6 342.7 359.8C340.9 362.2 345.2 364.4 346.7 362.3C351.9 355.5 357 348.5 358.9 340C359.1 339 358.1 338.1 357.3 337.9C356.3 337.5 355.2 337.7 354.4 338.5C351.6 341.2 349.1 344.2 347.1 347.5C346.1 349.1 345.3 350.7 344.5 352.4C343.8 354 343 355.5 341.7 356.6C340.7 357.4 341.4 358.9 342.3 359.4C343.5 360.2 344.8 360 345.8 359.2Z" fill="white"/>
</g>
<mask id="mask35_201_666" style="mask-type:luminance" maskUnits="userSpaceOnUse" x="51" y="51" width="398" height="398">
<path d="M250 448.5C359.629 448.5 448.5 359.629 448.5 250C448.5 140.371 359.629 51.5 250 51.5C140.371 51.5 51.5 140.371 51.5 250C51.5 359.629 140.371 448.5 250 448.5Z" fill="white"/>
</mask>
<g mask="url(#mask35_201_666)">
<path d="M380.9 252.7C374.1 237.8 367 223 359.6 208.4C357.5 204.2 355.3 200 353.2 195.8C352.7 194.8 351.8 193.9 350.6 193.9C349.6 193.9 348.8 194.7 349.1 195.7C353.5 212.3 360.5 228.1 369.7 242.6C372.3 246.7 375.1 250.6 378.1 254.5C378.8 255.4 380 256.3 381.2 255.8C382.3 255.3 382.1 253.8 381.5 253C371.3 239.9 363.2 225.4 357.6 209.8C356 205.4 354.6 201 353.4 196.5C352 196.5 350.6 196.4 349.3 196.4C356.9 210.9 364.1 225.6 371.1 240.5C373.1 244.8 375.1 249 377 253.3C377.5 254.3 378.7 255.4 379.9 255.2C381.1 254.9 381.4 253.7 380.9 252.7Z" fill="white"/>
</g>
<mask id="mask36_201_666" style="mask-type:luminance" maskUnits="userSpaceOnUse" x="51" y="51" width="398" height="398">
<path d="M250 448.5C359.629 448.5 448.5 359.629 448.5 250C448.5 140.371 359.629 51.5 250 51.5C140.371 51.5 51.5 140.371 51.5 250C51.5 359.629 140.371 448.5 250 448.5Z" fill="white"/>
</mask>
<g mask="url(#mask36_201_666)">
<path d="M385.3 196.3C390.7 189.1 396 182 401.4 174.8C399.9 175.3 398.3 175.8 396.8 176.3C393.1 184.1 388.4 191.4 382.9 198.1C382.5 198.6 384.7 198.1 384.8 198.1C385.7 197.8 386.9 197.4 387.5 196.6C393.1 190 397.7 182.7 401.4 174.8C401.7 174.2 399.7 174.8 399.5 174.8C398.6 175.1 397.4 175.5 396.8 176.3C391.4 183.5 386.1 190.6 380.7 197.8C380.3 198.3 382.5 197.8 382.6 197.8C383.5 197.5 384.7 197.1 385.3 196.3Z" fill="white"/>
</g>
<mask id="mask37_201_666" style="mask-type:luminance" maskUnits="userSpaceOnUse" x="51" y="51" width="398" height="398">
<path d="M250 448.5C359.629 448.5 448.5 359.629 448.5 250C448.5 140.371 359.629 51.5 250 51.5C140.371 51.5 51.5 140.371 51.5 250C51.5 359.629 140.371 448.5 250 448.5Z" fill="white"/>
</mask>
<g mask="url(#mask37_201_666)">
<path d="M376.2 316.2C383.5 307.3 391.6 299.1 400.2 291.5C399.1 290.3 398 289.1 396.8 287.9C395.3 293.2 392.3 297.9 388.2 301.5C386 303.4 383.5 304.9 381 306.4C378.3 308.1 375.8 310 373.7 312.4C372.5 313.7 375.8 317.4 376.9 316.3C379 313.9 381.5 312 384.2 310.3C386.8 308.7 389.4 307.2 391.6 305.1C395.7 301.4 398.7 296.5 400.3 291.2C400.6 290.3 399.8 289.2 399.2 288.5C398.8 288.1 397.6 287 396.9 287.6C388.2 295.1 380.2 303.4 372.9 312.3C371.9 313.7 375.2 317.3 376.2 316.2Z" fill="white"/>
</g>
<mask id="mask38_201_666" style="mask-type:luminance" maskUnits="userSpaceOnUse" x="51" y="51" width="398" height="398">
<path d="M250 448.5C359.629 448.5 448.5 359.629 448.5 250C448.5 140.371 359.629 51.5 250 51.5C140.371 51.5 51.5 140.371 51.5 250C51.5 359.629 140.371 448.5 250 448.5Z" fill="white"/>
</mask>
<g mask="url(#mask38_201_666)">
<path d="M413.6 251.7C410.2 242.2 405.4 233.3 399.5 225.1C399.1 224.6 397.5 225 397 225.1C396.2 225.3 395.3 225.7 394.8 226.4C393.5 228.6 395.1 232.1 396 234.2C397.2 236.8 398.8 239.2 400.4 241.6C402 244 403.6 246.5 404.9 249.1C406.1 251.8 407.2 254.5 409.3 256.6C410.3 257.6 414.7 255.8 413.8 254.9C411.7 252.8 410.7 250 409.5 247.4C408.3 244.9 406.8 242.5 405.2 240.2C403.7 238 402.2 235.7 401 233.3C400.4 232.1 399.9 230.8 399.6 229.5C399.3 228.2 398.8 226.7 399.5 225.4C397.9 225.8 396.4 226.2 394.8 226.7C400.6 234.7 405.3 243.5 408.6 252.9C409.2 254.3 414 252.8 413.6 251.7Z" fill="white"/>
</g>
<mask id="mask39_201_666" style="mask-type:luminance" maskUnits="userSpaceOnUse" x="51" y="51" width="398" height="398">
<path d="M250 448.5C359.629 448.5 448.5 359.629 448.5 250C448.5 140.371 359.629 51.5 250 51.5C140.371 51.5 51.5 140.371 51.5 250C51.5 359.629 140.371 448.5 250 448.5Z" fill="white"/>
</mask>
<g mask="url(#mask39_201_666)">
<path d="M413.4 208.6C418.9 202.7 424.6 197 430.4 191.5C429.3 190.3 428.2 189 427.1 187.8C423.2 194.3 418.4 200.2 412.7 205.2C411.7 206.1 411.6 207.4 412.4 208.5C413 209.4 414.6 210.2 415.6 209.3C421.6 204 426.7 198 430.8 191.1C431.4 190.1 431.3 188.9 430.5 188C429.9 187.3 428.4 186.6 427.5 187.4C421.3 193.1 415.4 199.1 409.6 205.3C408.7 206.2 409.3 207.9 410.1 208.7C411.2 209.5 412.5 209.5 413.4 208.6Z" fill="white"/>
</g>
<mask id="mask40_201_666" style="mask-type:luminance" maskUnits="userSpaceOnUse" x="51" y="51" width="398" height="398">
<path d="M250 448.5C359.629 448.5 448.5 359.629 448.5 250C448.5 140.371 359.629 51.5 250 51.5C140.371 51.5 51.5 140.371 51.5 250C51.5 359.629 140.371 448.5 250 448.5Z" fill="white"/>
</mask>
<g mask="url(#mask40_201_666)">
<path d="M413.6 323C420.6 313.4 424 301.8 430.3 291.9C428.9 291 427.6 290.1 426.2 289.1C428.5 301.6 416.3 310.1 410.5 319.5C409.8 320.6 413.9 323.5 414.5 322.5C420.4 312.9 432.7 304.3 430.3 291.6C430.1 290.7 429.2 289.9 428.5 289.5C428.1 289.3 426.7 288.3 426.3 288.9C419.9 298.9 416.6 310.5 409.6 320C408.8 321 412.8 324 413.6 323Z" fill="white"/>
</g>
</svg>
