<svg width="500" height="500" viewBox="0 0 500 500" fill="none" xmlns="http://www.w3.org/2000/svg">
<mask id="mask0_201_690" style="mask-type:luminance" maskUnits="userSpaceOnUse" x="51" y="51" width="398" height="398">
<path d="M250 448.5C359.629 448.5 448.5 359.629 448.5 250C448.5 140.371 359.629 51.5 250 51.5C140.371 51.5 51.5 140.371 51.5 250C51.5 359.629 140.371 448.5 250 448.5Z" fill="white"/>
</mask>
<g mask="url(#mask0_201_690)">
<path d="M201.9 70.3998C180.1 77.8998 159.3 88.4998 140.6 102C131.3 108.7 122.3 116.1 114.2 124.3C109.9 128.6 106 133.3 102.6 138.3C99.2001 143.4 96.3001 148.8 93.6001 154.3C87.2001 167 81.3001 180 76.1001 193.3C76.1001 193.4 78.4001 192.8 78.6001 192.8C79.2001 192.6 80.6001 192.3 80.8001 191.7C85.4001 180 90.5001 168.5 96.0001 157.2C101.3 146.5 106.8 135.9 114.8 127C122.3 118.6 131.1 111.1 140.1 104.3C149 97.4998 158.4 91.3998 168.2 85.9998C179.1 79.9998 190.4 74.9998 202.1 70.9998C202.3 70.8998 204.5 70.1998 204.3 69.8998C204.3 69.4998 202 70.3998 201.9 70.3998Z" fill="white"/>
</g>
<mask id="mask1_201_690" style="mask-type:luminance" maskUnits="userSpaceOnUse" x="51" y="51" width="398" height="398">
<path d="M250 448.5C359.629 448.5 448.5 359.629 448.5 250C448.5 140.371 359.629 51.5 250 51.5C140.371 51.5 51.5 140.371 51.5 250C51.5 359.629 140.371 448.5 250 448.5Z" fill="white"/>
</mask>
<g mask="url(#mask1_201_690)">
<path d="M93.9999 179.9C83.2999 191.2 81.8999 207.9 79.9999 222.6C77.6999 239.2 75.9999 256.2 77.9999 273C79.0999 282.3 81.4999 291.4 85.5999 299.8C86.0999 300.8 86.9999 301.9 88.0999 302.3C88.9999 302.6 89.6999 302.1 89.2999 301.1C82.1999 286.2 80.5999 269.7 81.1999 253.4C81.4999 245.1 82.3999 236.8 83.3999 228.5C84.3999 220.8 85.1999 213.1 86.8999 205.5C88.6999 197.4 91.6999 189.4 97.4999 183.3C98.6999 182.1 95.0999 178.7 93.9999 179.9Z" fill="white"/>
</g>
<mask id="mask2_201_690" style="mask-type:luminance" maskUnits="userSpaceOnUse" x="51" y="51" width="398" height="398">
<path d="M250 448.5C359.629 448.5 448.5 359.629 448.5 250C448.5 140.371 359.629 51.5 250 51.5C140.371 51.5 51.5 140.371 51.5 250C51.5 359.629 140.371 448.5 250 448.5Z" fill="white"/>
</mask>
<g mask="url(#mask2_201_690)">
<path d="M91.1 283.3C93.3 293.2 95.5 303.1 98.9 312.7C102 321.5 106.3 329.9 111.8 337.5C121.9 351.7 135.5 362.9 149.8 372.6C158 378.1 166.4 383.2 175 388.1C175.9 388.6 176.6 388.1 176.6 387.1C176.6 386 175.8 384.6 174.8 384.1C160.2 375.8 145.7 367 132.9 356C120 345 109.3 331.8 103.2 316C99.2 305.8 96.9 295 94.5 284.4C94.3 283.4 93.4 282 92.3 281.7C91.1 281.4 90.9 282.5 91.1 283.3Z" fill="white"/>
</g>
<mask id="mask3_201_690" style="mask-type:luminance" maskUnits="userSpaceOnUse" x="51" y="51" width="398" height="398">
<path d="M250 448.5C359.629 448.5 448.5 359.629 448.5 250C448.5 140.371 359.629 51.5 250 51.5C140.371 51.5 51.5 140.371 51.5 250C51.5 359.629 140.371 448.5 250 448.5Z" fill="white"/>
</mask>
<g mask="url(#mask3_201_690)">
<path d="M125.5 373.3C136.4 384.6 149.1 394 162.9 401.4C176.6 408.7 191.5 414 206.8 416.8C215.5 418.4 224.3 419.3 233.1 419.3C234.3 419.3 234.7 418 234.4 417C234.1 415.8 232.9 414.8 231.7 414.8C216.6 414.7 201.6 412.2 187.3 407.5C173.1 402.8 159.5 396 147.4 387.3C140.6 382.4 134.1 376.9 128.3 370.9C127.6 370.1 126.3 369.4 125.3 370.2C124.3 371 124.7 372.6 125.5 373.3Z" fill="white"/>
</g>
<mask id="mask4_201_690" style="mask-type:luminance" maskUnits="userSpaceOnUse" x="51" y="51" width="398" height="398">
<path d="M250 448.5C359.629 448.5 448.5 359.629 448.5 250C448.5 140.371 359.629 51.5 250 51.5C140.371 51.5 51.5 140.371 51.5 250C51.5 359.629 140.371 448.5 250 448.5Z" fill="white"/>
</mask>
<g mask="url(#mask4_201_690)">
<path d="M233.6 403.4C249.7 407.1 266.4 406 282.6 403.9C290.7 402.9 298.7 401.6 306.6 399.5C314.4 397.5 322 394.7 329.4 391.4C336.8 388.1 344.2 384.6 351.4 381C358.1 377.6 364.6 373.9 370.7 369.4C381.5 361.6 390.9 352 398.7 341.3C406.4 330.6 412.4 318.6 416.3 306C416.8 304.4 417.3 302.8 417.7 301.2C417.9 300.6 416.6 299.5 416.2 299.2C416.1 299.1 414.1 297.5 414.1 297.8C410.7 310.6 405.2 322.8 397.9 333.8C390.6 344.8 381.6 354.7 371.3 362.9C359.3 372.4 345.6 378.9 331.8 385.3C324.5 388.7 317.2 391.9 309.5 394.3C301.5 396.8 293.3 398.4 285 399.6C269 402 252.5 403.6 236.4 401.1C234.4 400.8 232.3 400.4 230.3 399.9C229.7 399.8 231.1 401.4 231.2 401.5C231.7 402.2 232.6 403.2 233.6 403.4Z" fill="white"/>
</g>
<mask id="mask5_201_690" style="mask-type:luminance" maskUnits="userSpaceOnUse" x="51" y="51" width="398" height="398">
<path d="M250 448.5C359.629 448.5 448.5 359.629 448.5 250C448.5 140.371 359.629 51.5 250 51.5C140.371 51.5 51.5 140.371 51.5 250C51.5 359.629 140.371 448.5 250 448.5Z" fill="white"/>
</mask>
<g mask="url(#mask5_201_690)">
<path d="M412.5 234.6C413 209.5 409.9 184.2 401 160.6C393.3 140.1 380.9 121.2 364.2 106.9C355.1 99.1001 344.7 92.7001 333.5 88.4001C331.7 87.7001 328 90.9001 330.5 91.8001C350.1 99.4001 366.8 113.5 379.2 130.4C393 149.3 401.2 171.6 405 194.6C407.3 208.3 408.1 222.3 407.9 236.2C407.9 237.4 409.6 237.2 410.3 237C411.3 236.6 412.5 235.8 412.5 234.6Z" fill="white"/>
</g>
<mask id="mask6_201_690" style="mask-type:luminance" maskUnits="userSpaceOnUse" x="51" y="51" width="398" height="398">
<path d="M250 448.5C359.629 448.5 448.5 359.629 448.5 250C448.5 140.371 359.629 51.5 250 51.5C140.371 51.5 51.5 140.371 51.5 250C51.5 359.629 140.371 448.5 250 448.5Z" fill="white"/>
</mask>
<g mask="url(#mask6_201_690)">
<path d="M180.8 96.9C203.6 84.2 230.8 84.5 255.9 87.8C262.6 88.7 269.3 89.8 276 90.9C282.2 91.9 288.3 93 294.4 94.5C300.4 95.9 306.3 97.8 312 100.3C317.7 102.8 323 106.1 328 110C339.4 118.9 349.5 129.7 358.3 141.2C359 142.1 360.4 142.2 361.5 141.9C362.1 141.7 363.8 140.9 363.1 140C354.9 129.4 345.7 119.4 335.4 110.7C330.5 106.6 325.2 102.8 319.4 99.9C313.6 96.9 307.4 94.7 301.1 93C288.2 89.4 274.7 87.5 261.4 85.6C247.4 83.6 233.2 82.4 219 83.4C204.4 84.5 190 88.1 177.1 95.3C176.1 95.8 176.4 96.9 177.3 97.3C178.4 97.7 179.8 97.4 180.8 96.9Z" fill="white"/>
</g>
<mask id="mask7_201_690" style="mask-type:luminance" maskUnits="userSpaceOnUse" x="51" y="51" width="398" height="398">
<path d="M250 448.5C359.629 448.5 448.5 359.629 448.5 250C448.5 140.371 359.629 51.5 250 51.5C140.371 51.5 51.5 140.371 51.5 250C51.5 359.629 140.371 448.5 250 448.5Z" fill="white"/>
</mask>
<g mask="url(#mask7_201_690)">
<path d="M245.4 63.2002C265.6 62.5002 285.4 66.7002 304.7 72.3002C314.4 75.1002 324.1 78.1002 333.7 81.3002C342.6 84.3002 351.2 87.9002 359 93.1002C367.2 98.6002 374.4 105.4 380.2 113.3C380.7 114 382.4 114.1 383.1 114.3C383.3 114.3 385.2 114.6 384.9 114.3C379.4 106.9 372.7 100.4 365.2 95.1002C357.2 89.5002 348.3 85.5002 339.1 82.3002C329 78.8002 318.8 75.7002 308.6 72.7002C298.2 69.6002 287.8 66.9002 277.2 64.9002C265.3 62.7002 253.3 61.4002 241.2 61.9002C240.2 61.9002 241.8 62.5002 242 62.6002C243 62.9002 244.3 63.2002 245.4 63.2002Z" fill="white"/>
</g>
<mask id="mask8_201_690" style="mask-type:luminance" maskUnits="userSpaceOnUse" x="51" y="51" width="398" height="398">
<path d="M250 448.5C359.629 448.5 448.5 359.629 448.5 250C448.5 140.371 359.629 51.5 250 51.5C140.371 51.5 51.5 140.371 51.5 250C51.5 359.629 140.371 448.5 250 448.5Z" fill="white"/>
</mask>
<g mask="url(#mask8_201_690)">
<path d="M409.6 151.4C415.7 163.9 421.8 176.4 426.4 189.5C430.4 201 433.1 212.9 434.5 225.1C437.2 249.1 434.6 273.7 427.2 296.7C423 309.7 417.2 322.1 410 333.6C409.2 334.9 412.8 338.2 413.2 337.4C426.3 316.7 434.6 293.1 437.7 268.7C440.8 244.4 438.7 219.4 431.3 196C426.5 180.9 419.5 166.6 412.5 152.3C412.1 151.4 411.1 150.1 410.1 149.9C408.8 149.7 409.3 150.9 409.6 151.4Z" fill="white"/>
</g>
<mask id="mask9_201_690" style="mask-type:luminance" maskUnits="userSpaceOnUse" x="51" y="51" width="398" height="398">
<path d="M250 448.5C359.629 448.5 448.5 359.629 448.5 250C448.5 140.371 359.629 51.5 250 51.5C140.371 51.5 51.5 140.371 51.5 250C51.5 359.629 140.371 448.5 250 448.5Z" fill="white"/>
</mask>
<g mask="url(#mask9_201_690)">
<path d="M392.1 197C396.7 220 397.4 243.7 394.3 267C392.7 278.6 390.2 290.2 386.6 301.4C384.9 306.7 382.7 311.9 379.6 316.5C376.6 320.9 372.8 324.7 368.7 328.1C358.8 336.5 347.8 343.8 336.6 350.4C336.5 350.5 338.6 351.6 338.8 351.6C339.3 351.8 340.7 352.6 341.2 352.2C351.2 346.3 361 339.8 370.1 332.5C374.3 329.1 378.4 325.5 381.8 321.3C385.3 317.1 387.8 312.3 389.7 307.2C393.8 296.3 396.3 284.7 398.1 273.2C399.9 261.6 400.8 249.9 400.7 238.2C400.6 225 399.2 211.8 396.6 198.9C396.5 198.3 394.9 197.9 394.4 197.7C394.4 197.6 392.1 196.9 392.1 197Z" fill="white"/>
</g>
<mask id="mask10_201_690" style="mask-type:luminance" maskUnits="userSpaceOnUse" x="51" y="51" width="398" height="398">
<path d="M250 448.5C359.629 448.5 448.5 359.629 448.5 250C448.5 140.371 359.629 51.5 250 51.5C140.371 51.5 51.5 140.371 51.5 250C51.5 359.629 140.371 448.5 250 448.5Z" fill="white"/>
</mask>
<g mask="url(#mask10_201_690)">
<path d="M311.1 360.5C304 370.2 290.3 371.5 279.4 373.3C265.3 375.6 251 377.2 236.7 377C222.5 376.9 208.3 375 194.8 370.6C183.2 366.9 172.3 361.1 162.5 353.9C151.5 345.8 142 335.8 134.5 324.3C133.2 322.3 128.5 323.9 129.9 326.1C143.8 347.3 164.6 363.9 188.4 372.6C216.4 382.8 246.9 381.9 275.9 377.5C283.4 376.4 291 375.2 298.3 373C304.7 371.1 311.1 367.8 315.1 362.3C316.8 359.9 312.5 358.5 311.1 360.5Z" fill="white"/>
</g>
<mask id="mask11_201_690" style="mask-type:luminance" maskUnits="userSpaceOnUse" x="51" y="51" width="398" height="398">
<path d="M250 448.5C359.629 448.5 448.5 359.629 448.5 250C448.5 140.371 359.629 51.5 250 51.5C140.371 51.5 51.5 140.371 51.5 250C51.5 359.629 140.371 448.5 250 448.5Z" fill="white"/>
</mask>
<g mask="url(#mask11_201_690)">
<path d="M125.5 301.7C120.8 283.4 116.1 265 115 246.1C114.7 240.8 114.7 235.5 115.1 230.2C115.2 228.7 110.6 226.9 110.5 228.7C109.2 247.6 112.7 266.3 117 284.6C118.2 289.8 119.6 295 120.9 300.1C121.2 301.2 122.4 301.8 123.4 302.1C123.7 302.4 125.7 302.8 125.5 301.7Z" fill="white"/>
</g>
<mask id="mask12_201_690" style="mask-type:luminance" maskUnits="userSpaceOnUse" x="51" y="51" width="398" height="398">
<path d="M250 448.5C359.629 448.5 448.5 359.629 448.5 250C448.5 140.371 359.629 51.5 250 51.5C140.371 51.5 51.5 140.371 51.5 250C51.5 359.629 140.371 448.5 250 448.5Z" fill="white"/>
</mask>
<g mask="url(#mask12_201_690)">
<path d="M118.1 188.9C124 170.8 132 153.3 143.3 137.9C153.9 123.4 167.7 110.9 183.9 103C192.9 98.5999 202.5 95.5999 212.5 94.3999C213.4 94.2999 214.8 93.3999 214.6 92.2999C214.4 91.0999 212.7 91.0999 211.8 91.1999C193.1 93.4999 175.7 101.8 161.1 113.5C146.1 125.5 134.4 141.3 125.7 158.4C120.7 168.2 116.6 178.5 113.2 189C112.8 190.1 114.5 190.6 115.3 190.6C116.4 190.6 117.7 190.1 118.1 188.9Z" fill="white"/>
</g>
<mask id="mask13_201_690" style="mask-type:luminance" maskUnits="userSpaceOnUse" x="51" y="51" width="398" height="398">
<path d="M250 448.5C359.629 448.5 448.5 359.629 448.5 250C448.5 140.371 359.629 51.5 250 51.5C140.371 51.5 51.5 140.371 51.5 250C51.5 359.629 140.371 448.5 250 448.5Z" fill="white"/>
</mask>
<g mask="url(#mask13_201_690)">
<path d="M256.1 101.7C275.9 103.7 296.4 105.8 314.4 114.9C323.3 119.4 330.8 125.8 337.5 133.1C344.3 140.6 350.4 148.8 355.8 157.4C361.9 167.1 366.7 177.6 368.6 188.9C368.8 190 370 191 370.9 191.5C371.5 191.8 372.8 192.1 372.6 191C370.8 180.5 366.6 170.6 361.2 161.5C355.8 152.2 349.3 143.5 342.3 135.3C335.3 127.1 327.3 119.8 318 114.2C309 108.9 299 105.5 288.9 103.2C277.3 100.6 265.4 99.3002 253.6 98.1002C252.5 98.0002 252.9 99.3002 253.3 99.8002C253.9 100.6 255 101.6 256.1 101.7Z" fill="white"/>
</g>
<mask id="mask14_201_690" style="mask-type:luminance" maskUnits="userSpaceOnUse" x="51" y="51" width="398" height="398">
<path d="M250 448.5C359.629 448.5 448.5 359.629 448.5 250C448.5 140.371 359.629 51.5 250 51.5C140.371 51.5 51.5 140.371 51.5 250C51.5 359.629 140.371 448.5 250 448.5Z" fill="white"/>
</mask>
<g mask="url(#mask14_201_690)">
<path d="M362.8 197.9C363.9 217.2 360.7 236.6 353.8 254.7C347 272.7 336.5 289.3 323.2 303.1C315.7 310.9 307.3 317.9 298.1 323.7C297.3 324.2 300.5 327.9 301.8 327C318.2 316.6 332.1 302.7 342.9 286.5C353.6 270.4 361.1 252.1 364.7 233.1C366.7 222.4 367.4 211.5 366.8 200.7C366.7 199.7 365.7 198.7 364.9 198.2C364.6 198 362.7 196.9 362.8 197.9Z" fill="white"/>
</g>
<mask id="mask15_201_690" style="mask-type:luminance" maskUnits="userSpaceOnUse" x="51" y="51" width="398" height="398">
<path d="M250 448.5C359.629 448.5 448.5 359.629 448.5 250C448.5 140.371 359.629 51.5 250 51.5C140.371 51.5 51.5 140.371 51.5 250C51.5 359.629 140.371 448.5 250 448.5Z" fill="white"/>
</mask>
<g mask="url(#mask15_201_690)">
<path d="M357.5 295.7C349.1 311.7 336.5 325.5 321.4 335.5C306.1 345.5 288.6 351.5 270.4 352.7C256.8 353.6 243.1 352.2 229.5 352.4C228.4 352.4 227.2 352.9 226.3 353.6C226 353.9 224.9 355 226 355C238.6 354.8 251.3 355.9 263.9 355.4C274.1 355 284.2 353.4 293.9 350.3C312.3 344.5 329.3 334.1 342.9 320.4C350.4 312.8 356.9 304.1 361.8 294.5C362.3 293.6 361.1 293.7 360.5 293.9C359.6 294.1 358 294.8 357.5 295.7Z" fill="white"/>
</g>
<mask id="mask16_201_690" style="mask-type:luminance" maskUnits="userSpaceOnUse" x="51" y="51" width="398" height="398">
<path d="M250 448.5C359.629 448.5 448.5 359.629 448.5 250C448.5 140.371 359.629 51.5 250 51.5C140.371 51.5 51.5 140.371 51.5 250C51.5 359.629 140.371 448.5 250 448.5Z" fill="white"/>
</mask>
<g mask="url(#mask16_201_690)">
<path d="M266.5 335.6C250.6 334.1 234 338 218.6 332.6C214.9 331.3 211.3 329.4 208.3 326.8C207.7 326.3 206.7 325.7 206.5 326.8C206.2 327.8 207.1 329.4 207.8 330C220.4 340.9 237.4 340.2 253 339.8C258.1 339.7 263.2 339.6 268.3 340.1C269.4 340.2 268.9 338.3 268.7 337.9C268.4 336.9 267.6 335.7 266.5 335.6Z" fill="white"/>
</g>
<mask id="mask17_201_690" style="mask-type:luminance" maskUnits="userSpaceOnUse" x="51" y="51" width="398" height="398">
<path d="M250 448.5C359.629 448.5 448.5 359.629 448.5 250C448.5 140.371 359.629 51.5 250 51.5C140.371 51.5 51.5 140.371 51.5 250C51.5 359.629 140.371 448.5 250 448.5Z" fill="white"/>
</mask>
<g mask="url(#mask17_201_690)">
<path d="M194.2 344C177.8 338.4 163.4 327.4 152.7 313.9C140.8 299 133.5 280.8 130.7 262C129.1 250.9 129 239.6 130.4 228.5C130.5 227.3 125.7 226.4 125.5 227.3C123.1 247.5 125.3 268.4 132.9 287.3C139.7 304.3 151 319.4 165.6 330.5C173.8 336.7 182.9 341.6 192.6 344.9C193.2 345.1 195.1 345.7 195.7 345.1C196.2 344.7 194.4 344.1 194.2 344Z" fill="white"/>
</g>
<mask id="mask18_201_690" style="mask-type:luminance" maskUnits="userSpaceOnUse" x="51" y="51" width="398" height="398">
<path d="M250 448.5C359.629 448.5 448.5 359.629 448.5 250C448.5 140.371 359.629 51.5 250 51.5C140.371 51.5 51.5 140.371 51.5 250C51.5 359.629 140.371 448.5 250 448.5Z" fill="white"/>
</mask>
<g mask="url(#mask18_201_690)">
<path d="M138 198.8C141.2 188.1 145.5 177.7 150.9 167.9C151.5 166.8 150.5 165.3 149.5 164.8C148.3 164.2 147.1 164.6 146.4 165.8C141 175.6 136.7 186 133.5 196.7C133.1 198 133.7 199.3 134.9 199.8C135.9 200.2 137.6 200 138 198.8Z" fill="white"/>
</g>
<mask id="mask19_201_690" style="mask-type:luminance" maskUnits="userSpaceOnUse" x="51" y="51" width="398" height="398">
<path d="M250 448.5C359.629 448.5 448.5 359.629 448.5 250C448.5 140.371 359.629 51.5 250 51.5C140.371 51.5 51.5 140.371 51.5 250C51.5 359.629 140.371 448.5 250 448.5Z" fill="white"/>
</mask>
<g mask="url(#mask19_201_690)">
<path d="M162.8 155.8C170 148.8 177.4 141.8 184.8 135C191.6 128.7 198.7 122.6 207.1 118.6C215.1 114.7 224 112.8 232.8 111.7C241.4 110.7 250.2 110.2 258.8 110.4C266.8 110.6 275.7 111.8 281.2 118.3C282 119.2 283.6 119.3 284.4 118.4C285.3 117.4 285 115.9 284.2 115C278.9 108.8 270.7 106.5 262.8 105.8C258.8 105.5 254.8 105.5 250.7 105.6C245.9 105.7 241.2 106 236.5 106.4C227.2 107.2 217.8 108.8 209.1 112.3C199.9 116 192.2 121.8 184.9 128.3C176.2 136.1 167.8 144.1 159.4 152.3C157.3 154.2 160.6 157.9 162.8 155.8Z" fill="white"/>
</g>
<mask id="mask20_201_690" style="mask-type:luminance" maskUnits="userSpaceOnUse" x="51" y="51" width="398" height="398">
<path d="M250 448.5C359.629 448.5 448.5 359.629 448.5 250C448.5 140.371 359.629 51.5 250 51.5C140.371 51.5 51.5 140.371 51.5 250C51.5 359.629 140.371 448.5 250 448.5Z" fill="white"/>
</mask>
<g mask="url(#mask20_201_690)">
<path d="M346.3 162.3C353.6 181.4 353.9 202.8 347.5 222.2C345.7 227.7 343.4 232.9 340.5 237.9C340.1 238.6 344.6 240.8 345.1 239.8C355.2 222 358.8 200.8 355.4 180.6C354.4 174.9 352.9 169.2 350.9 163.8C350.6 163 349 162.5 348.2 162.2C348 162.1 346.1 161.6 346.3 162.3Z" fill="white"/>
</g>
<mask id="mask21_201_690" style="mask-type:luminance" maskUnits="userSpaceOnUse" x="51" y="51" width="398" height="398">
<path d="M250 448.5C359.629 448.5 448.5 359.629 448.5 250C448.5 140.371 359.629 51.5 250 51.5C140.371 51.5 51.5 140.371 51.5 250C51.5 359.629 140.371 448.5 250 448.5Z" fill="white"/>
</mask>
<g mask="url(#mask21_201_690)">
<path d="M288.5 301.5C281 307.9 272.1 312 262.7 314.5C258 315.8 253.3 316.6 248.4 317.2C243.9 317.8 239.2 318.3 234.6 318.1C230.4 317.9 225.8 317.2 223 313.7C222.3 312.8 221 312.1 219.8 312.2C218.8 312.3 218.3 313.2 219 314.1C225.5 322.3 237.1 321.8 246.5 320.9C257.1 319.9 267.8 317.8 277.5 313.4C282.9 311 288 307.9 292.6 304C294.2 302.8 289.9 300.3 288.5 301.5Z" fill="white"/>
</g>
<mask id="mask22_201_690" style="mask-type:luminance" maskUnits="userSpaceOnUse" x="51" y="51" width="398" height="398">
<path d="M250 448.5C359.629 448.5 448.5 359.629 448.5 250C448.5 140.371 359.629 51.5 250 51.5C140.371 51.5 51.5 140.371 51.5 250C51.5 359.629 140.371 448.5 250 448.5Z" fill="white"/>
</mask>
<g mask="url(#mask22_201_690)">
<path d="M190.9 304.7C181 292.7 171.8 280 165.3 265.8C159 252 155.7 236.8 157.3 221.7C158.2 213.3 160.7 205.1 165 197.9C165.6 196.9 163.7 196.4 163.1 196.4C162 196.3 160.7 196.7 160.1 197.7C152.5 210.8 150.6 226.6 152.8 241.4C155.1 256.9 161.8 271.4 170.2 284.5C175 292 180.5 299.1 186.1 306C186.8 306.9 188.2 306.9 189.3 306.6C189.9 306.4 191.6 305.6 190.9 304.7Z" fill="white"/>
</g>
<mask id="mask23_201_690" style="mask-type:luminance" maskUnits="userSpaceOnUse" x="51" y="51" width="398" height="398">
<path d="M250 448.5C359.629 448.5 448.5 359.629 448.5 250C448.5 140.371 359.629 51.5 250 51.5C140.371 51.5 51.5 140.371 51.5 250C51.5 359.629 140.371 448.5 250 448.5Z" fill="white"/>
</mask>
<g mask="url(#mask23_201_690)">
<path d="M175.3 176C184.3 164.7 195.8 155.6 208.7 149.2C221.6 142.8 235.8 139.1 250.2 138.5C258.3 138.2 266.5 138.9 274.4 140.6C275.1 140.8 274 138.9 273.9 138.8C273.5 138.1 272.6 136.8 271.7 136.6C257.6 133.6 242.9 133.8 228.9 137C214.8 140.2 201.3 146.3 189.8 155C183.2 159.9 177.3 165.6 172.2 172C171.6 172.9 175 176.4 175.3 176Z" fill="white"/>
</g>
<mask id="mask24_201_690" style="mask-type:luminance" maskUnits="userSpaceOnUse" x="51" y="51" width="398" height="398">
<path d="M250 448.5C359.629 448.5 448.5 359.629 448.5 250C448.5 140.371 359.629 51.5 250 51.5C140.371 51.5 51.5 140.371 51.5 250C51.5 359.629 140.371 448.5 250 448.5Z" fill="white"/>
</mask>
<g mask="url(#mask24_201_690)">
<path d="M305.7 155.7C307.5 155 309.2 156.3 310.5 157.5C312.2 159 313.8 160.7 315.3 162.4C318.5 165.9 321.6 169.5 324.3 173.3C329.9 181.3 334.1 190.2 335.5 199.9C336.3 205.3 336.2 210.9 334.9 216.2C334.3 218.9 338.9 220.8 339.5 218C342.1 207.1 340.4 195.8 336.1 185.6C332 175.8 325.5 167.1 318.2 159.3C314.6 155.4 309.3 149 303.2 151.6C300.5 152.6 303.2 156.8 305.7 155.7Z" fill="white"/>
</g>
<mask id="mask25_201_690" style="mask-type:luminance" maskUnits="userSpaceOnUse" x="51" y="51" width="398" height="398">
<path d="M250 448.5C359.629 448.5 448.5 359.629 448.5 250C448.5 140.371 359.629 51.5 250 51.5C140.371 51.5 51.5 140.371 51.5 250C51.5 359.629 140.371 448.5 250 448.5Z" fill="white"/>
</mask>
<g mask="url(#mask25_201_690)">
<path d="M322.5 232.4C317.5 246.2 310.6 259.2 301.8 271C299.3 274.4 296.6 277.6 293.9 280.8C292.8 282.1 296.5 285.5 297.6 284.2C307.4 273.1 315.5 260.6 321.7 247.1C323.5 243.2 325.1 239.3 326.5 235.3C327 233.7 323.2 230.7 322.5 232.4Z" fill="white"/>
</g>
<mask id="mask26_201_690" style="mask-type:luminance" maskUnits="userSpaceOnUse" x="51" y="51" width="398" height="398">
<path d="M250 448.5C359.629 448.5 448.5 359.629 448.5 250C448.5 140.371 359.629 51.5 250 51.5C140.371 51.5 51.5 140.371 51.5 250C51.5 359.629 140.371 448.5 250 448.5Z" fill="white"/>
</mask>
<g mask="url(#mask26_201_690)">
<path d="M286 270.8C278.8 279.9 270.5 290.1 259.1 294C252.7 296.2 246.1 295.6 239.7 293.7C232.8 291.6 226.1 288.6 219.6 285.5C212.1 282 204.8 278.1 197.7 273.9C196.8 273.4 195.4 272.7 194.4 273.1C193.4 273.5 194 274.4 194.7 274.8C201.5 278.9 208.4 282.6 215.5 286.1C222.5 289.5 229.6 292.7 236.9 295.2C244.2 297.7 251.9 299.2 259.5 297.6C265.5 296.3 270.9 293.1 275.6 289.1C281.2 284.4 285.8 278.8 290.3 273.1C291.4 271.6 286.9 269.6 286 270.8Z" fill="white"/>
</g>
<mask id="mask27_201_690" style="mask-type:luminance" maskUnits="userSpaceOnUse" x="51" y="51" width="398" height="398">
<path d="M250 448.5C359.629 448.5 448.5 359.629 448.5 250C448.5 140.371 359.629 51.5 250 51.5C140.371 51.5 51.5 140.371 51.5 250C51.5 359.629 140.371 448.5 250 448.5Z" fill="white"/>
</mask>
<g mask="url(#mask27_201_690)">
<path d="M188.3 250.1C187.9 239.5 188 228.8 188.6 218.2C189.2 208.9 189.8 198.9 195.1 190.9C197.7 187 201.1 183.9 205.4 182.2C206.5 181.8 205.9 180.1 205.4 179.5C204.7 178.6 203.4 178 202.3 178.4C193.8 181.7 188.8 190.1 186.6 198.5C185.3 203.4 184.8 208.4 184.5 213.5C184.1 218.9 183.8 224.4 183.7 229.8C183.6 236.1 183.7 242.3 183.9 248.6C184 249.8 185 250.9 186.1 251.3C187.1 251.6 188.3 251.3 188.3 250.1Z" fill="white"/>
</g>
<mask id="mask28_201_690" style="mask-type:luminance" maskUnits="userSpaceOnUse" x="51" y="51" width="398" height="398">
<path d="M250 448.5C359.629 448.5 448.5 359.629 448.5 250C448.5 140.371 359.629 51.5 250 51.5C140.371 51.5 51.5 140.371 51.5 250C51.5 359.629 140.371 448.5 250 448.5Z" fill="white"/>
</mask>
<g mask="url(#mask28_201_690)">
<path d="M238.8 167.6C249.8 163.2 261.9 163.1 273.5 164.1C284.3 165 296.5 166 305.5 172.8C309.6 175.9 312.9 180.1 313.7 185.2C313.9 186.3 314.6 187.6 315.6 188.2C316.4 188.7 317.3 188.3 317.1 187.3C315.1 175.7 305.4 167.3 294.7 163.7C288.7 161.7 282.3 160.8 276 160.2C269.7 159.6 263.4 159.1 257 159.3C249.9 159.6 242.8 160.8 236.1 163.5C234.7 164 237.1 168.3 238.8 167.6Z" fill="white"/>
</g>
<mask id="mask29_201_690" style="mask-type:luminance" maskUnits="userSpaceOnUse" x="51" y="51" width="398" height="398">
<path d="M250 448.5C359.629 448.5 448.5 359.629 448.5 250C448.5 140.371 359.629 51.5 250 51.5C140.371 51.5 51.5 140.371 51.5 250C51.5 359.629 140.371 448.5 250 448.5Z" fill="white"/>
</mask>
<g mask="url(#mask29_201_690)">
<path d="M295.2 187.7C299.3 190.3 301.4 194.9 302.8 199.4C304.4 204.7 305.2 210.4 305.9 215.9C307.4 227.3 307.1 239.4 300.7 249.4C297.8 253.9 293.8 257.7 288.7 259.7C287.6 260.1 286.7 261.2 287.3 262.4C287.8 263.5 289.4 263.9 290.5 263.4C301 259.3 307.8 249.3 310.3 238.6C311.9 231.9 311.8 224.9 311.2 218.1C310.6 211.8 309.6 205.4 307.9 199.3C306.3 193.5 303.6 187.8 298.4 184.4C296.1 183 292.6 186 295.2 187.7Z" fill="white"/>
</g>
<mask id="mask30_201_690" style="mask-type:luminance" maskUnits="userSpaceOnUse" x="51" y="51" width="398" height="398">
<path d="M250 448.5C359.629 448.5 448.5 359.629 448.5 250C448.5 140.371 359.629 51.5 250 51.5C140.371 51.5 51.5 140.371 51.5 250C51.5 359.629 140.371 448.5 250 448.5Z" fill="white"/>
</mask>
<g mask="url(#mask30_201_690)">
<path d="M271.1 259.1C263.7 267 253.4 271.9 242.7 272.9C232.4 273.9 221.9 270.9 213.6 264.8C209 261.4 205 257.2 202.1 252.3C201.6 251.4 200.5 250.3 199.4 250.9C198.3 251.4 198.5 253.1 199 253.9C204.9 263.8 214.1 271.4 224.9 275.2C235.7 279 247.7 278.5 258.3 274C264.3 271.5 269.8 267.7 274.2 262.9C275.7 261.3 272.9 257.2 271.1 259.1Z" fill="white"/>
</g>
<mask id="mask31_201_690" style="mask-type:luminance" maskUnits="userSpaceOnUse" x="51" y="51" width="398" height="398">
<path d="M250 448.5C359.629 448.5 448.5 359.629 448.5 250C448.5 140.371 359.629 51.5 250 51.5C140.371 51.5 51.5 140.371 51.5 250C51.5 359.629 140.371 448.5 250 448.5Z" fill="white"/>
</mask>
<g mask="url(#mask31_201_690)">
<path d="M206.3 225C207.2 216.2 212.4 208.6 218.6 202.5C225 196.1 232.6 190.4 240.9 186.8C245.7 184.8 250.9 183.5 256.1 183.7C257 183.7 258.1 183.4 257.7 182.3C257.4 181.3 255.8 180.5 254.8 180.4C244.7 180 235.2 184 227 189.5C219.2 194.7 211.8 201.3 206.8 209.2C204 213.6 202.2 218.5 201.6 223.6C201.3 225.6 206 227.2 206.3 225Z" fill="white"/>
</g>
<mask id="mask32_201_690" style="mask-type:luminance" maskUnits="userSpaceOnUse" x="51" y="51" width="398" height="398">
<path d="M250 448.5C359.629 448.5 448.5 359.629 448.5 250C448.5 140.371 359.629 51.5 250 51.5C140.371 51.5 51.5 140.371 51.5 250C51.5 359.629 140.371 448.5 250 448.5Z" fill="white"/>
</mask>
<g mask="url(#mask32_201_690)">
<path d="M274.4 191.1C282.2 195.3 286.1 204 287.3 212.4C288 217.1 288.1 221.9 287.8 226.6C287.5 230.8 286.7 235.1 283.8 238.2C283.5 238.5 285.5 238.3 285.6 238.3C286.3 238.2 288 238.1 288.6 237.5C293.2 232.4 293.1 224.7 292.9 218.2C292.7 210.9 291.3 203.3 287.1 197.2C285 194.2 282.4 191.7 279.2 190C278.5 189.6 276.9 190.2 276.1 190.4C275.7 190.4 274 190.9 274.4 191.1Z" fill="white"/>
</g>
<mask id="mask33_201_690" style="mask-type:luminance" maskUnits="userSpaceOnUse" x="51" y="51" width="398" height="398">
<path d="M250 448.5C359.629 448.5 448.5 359.629 448.5 250C448.5 140.371 359.629 51.5 250 51.5C140.371 51.5 51.5 140.371 51.5 250C51.5 359.629 140.371 448.5 250 448.5Z" fill="white"/>
</mask>
<g mask="url(#mask33_201_690)">
<path d="M269.1 215.9C271.6 228.8 266.3 242.7 256 250.8C252.6 253.5 248.5 255.7 244.1 255.3C243.4 255.2 245.1 256.8 245.2 256.8C246 257.4 247 258.1 248 258.2C255.2 258.8 261.9 253 266.1 247.7C270.3 242.4 272.9 236 273.8 229.4C274.3 225.7 274.2 222 273.5 218.3C273.3 217.5 271.8 216.6 271.2 216.3C270.8 216.2 269 215.2 269.1 215.9Z" fill="white"/>
</g>
<mask id="mask34_201_690" style="mask-type:luminance" maskUnits="userSpaceOnUse" x="51" y="51" width="398" height="398">
<path d="M250 448.5C359.629 448.5 448.5 359.629 448.5 250C448.5 140.371 359.629 51.5 250 51.5C140.371 51.5 51.5 140.371 51.5 250C51.5 359.629 140.371 448.5 250 448.5Z" fill="white"/>
</mask>
<g mask="url(#mask34_201_690)">
<path d="M227.8 245.7C220.7 237.7 219.8 224.9 225.7 215.9C227.5 213.2 223.2 211.6 221.7 214C214.7 224.7 215.8 239.5 224.3 249.1C226 251.1 229.7 247.9 227.8 245.7Z" fill="white"/>
</g>
<mask id="mask35_201_690" style="mask-type:luminance" maskUnits="userSpaceOnUse" x="51" y="51" width="398" height="398">
<path d="M250 448.5C359.629 448.5 448.5 359.629 448.5 250C448.5 140.371 359.629 51.5 250 51.5C140.371 51.5 51.5 140.371 51.5 250C51.5 359.629 140.371 448.5 250 448.5Z" fill="white"/>
</mask>
<g mask="url(#mask35_201_690)">
<path d="M241.1 202.9C243.9 201.1 246.8 200.7 249.8 201.4C253.1 202.1 256.2 204 258.1 206.8C259.2 208.3 264 207.3 262.8 205.6C257.3 197.7 245.3 196 237.4 201.2C236.5 201.8 236.7 202.8 237.6 203.2C238.7 203.7 240.1 203.5 241.1 202.9Z" fill="white"/>
</g>
<mask id="mask36_201_690" style="mask-type:luminance" maskUnits="userSpaceOnUse" x="51" y="51" width="398" height="398">
<path d="M250 448.5C359.629 448.5 448.5 359.629 448.5 250C448.5 140.371 359.629 51.5 250 51.5C140.371 51.5 51.5 140.371 51.5 250C51.5 359.629 140.371 448.5 250 448.5Z" fill="white"/>
</mask>
<g mask="url(#mask36_201_690)">
<path d="M243.2 217.9C239 220 237 225.3 237.3 229.8C237.5 232.5 238.6 235.1 240.7 236.8C242.6 238.3 245.2 238.9 247.5 237.8C248.6 237.3 248.6 235.6 248.1 234.7C247.5 233.7 246.4 232.9 245.2 233.4C245.2 233.4 244.6 233.6 244.9 233.5C244.7 233.5 244.6 233.6 244.4 233.6C244.3 233.6 244.3 233.6 244.4 233.6C244.3 233.6 244.3 233.6 244.2 233.6C244 233.6 243.8 233.5 243.6 233.5C243.9 233.6 243.5 233.5 243.4 233.4C243.2 233.3 243.1 233.3 242.9 233.2C243.2 233.3 242.9 233.2 242.8 233.1C242.7 233 242.5 232.9 242.4 232.8C242.8 233.1 242.3 232.7 242.3 232.6C242 232.3 242.4 232.8 242.2 232.5C242.1 232.3 242 232.1 241.9 232C241.6 231.4 242 232.4 241.8 231.7C241.7 231.5 241.7 231.3 241.6 231.1C241.5 230.9 241.6 231.3 241.6 230.9C241.6 230.4 241.5 230 241.5 229.5C241.5 229.1 241.4 230 241.5 229.2C241.5 229 241.5 228.8 241.6 228.6C241.7 228.2 241.7 227.8 241.9 227.3C242.1 226.6 242.3 226.1 242.7 225.3C243.4 224 244.3 223 245.6 222.3C247.9 221.2 245.6 216.8 243.2 217.9Z" fill="white"/>
</g>
<mask id="mask37_201_690" style="mask-type:luminance" maskUnits="userSpaceOnUse" x="51" y="51" width="398" height="398">
<path d="M250 448.5C359.629 448.5 448.5 359.629 448.5 250C448.5 140.371 359.629 51.5 250 51.5C140.371 51.5 51.5 140.371 51.5 250C51.5 359.629 140.371 448.5 250 448.5Z" fill="white"/>
</mask>
<g mask="url(#mask37_201_690)">
<path d="M255.4 228.4C259.5 222.8 256.4 214.1 250.1 211.7C249 211.3 247.5 211.3 246.8 212.5C246.2 213.6 246.9 214.9 248 215.3C248.3 215.4 248.6 215.6 248.9 215.7C248.5 215.4 249.4 215.9 248.9 215.7C249 215.8 249.2 215.9 249.3 216C249.4 216.1 249.6 216.2 249.7 216.3C249.8 216.3 250.1 216.6 249.9 216.4C249.6 216.2 250 216.5 250.1 216.6C250.2 216.7 250.3 216.8 250.4 216.9C250.6 217.2 250.8 217.4 251 217.7C251.3 218.2 250.8 217.3 251.1 217.8C251.2 217.9 251.3 218.1 251.3 218.2C251.4 218.5 251.6 218.8 251.7 219C251.8 219.2 251.8 219.3 251.9 219.5C251.9 219.6 252.1 220.1 252 219.8C251.9 219.5 252 220 252.1 220C252.1 220.2 252.2 220.3 252.2 220.5C252.3 220.8 252.3 221.2 252.3 221.5C252.3 221.8 252.3 222.2 252.3 222.5C252.3 222.2 252.3 222.3 252.3 222.5C252.3 222.7 252.3 222.8 252.2 223C252.2 223.3 252.1 223.6 252 223.9C252 224.1 251.9 224.2 251.9 224.4C251.9 224.5 251.7 225 251.9 224.5C251.6 225.1 251.3 225.7 250.9 226.2C250.2 227.2 251.1 228.6 252.1 229C253.3 229.7 254.6 229.5 255.4 228.4Z" fill="white"/>
</g>
<mask id="mask38_201_690" style="mask-type:luminance" maskUnits="userSpaceOnUse" x="51" y="51" width="398" height="398">
<path d="M250 448.5C359.629 448.5 448.5 359.629 448.5 250C448.5 140.371 359.629 51.5 250 51.5C140.371 51.5 51.5 140.371 51.5 250C51.5 359.629 140.371 448.5 250 448.5Z" fill="white"/>
</mask>
<g mask="url(#mask38_201_690)">
<path d="M397.8 359.7C379.9 379.9 360.9 400.7 336.5 413.2C323.2 420 308.6 423.5 294.1 426.9C286.3 428.7 278.6 430.3 270.7 431.4C262.8 432.5 254.8 432.9 246.8 433C242.4 433 238 433 233.6 432.9C229.1 432.8 224.6 432.8 220.3 432C213.1 430.7 206.7 427 201.7 421.7C201 420.9 199.4 420.5 198.3 420.6C197.3 420.7 197.2 421.3 197.8 422.1C202.6 427.2 208.8 431 215.4 433.1C223.1 435.6 231.3 435.4 239.3 435.5C247.6 435.6 255.9 435.6 264.1 435C272.3 434.4 280.3 433 288.4 431.4C296.3 429.8 304.1 427.9 311.9 425.9C319.5 423.9 327 421.7 334.2 418.5C347 412.9 358.6 404.9 369.1 395.8C379.8 386.6 389.5 376.2 398.9 365.7C400.1 364.4 401.2 363.1 402.4 361.8C403.3 360.5 398.8 358.6 397.8 359.7Z" fill="white"/>
</g>
<mask id="mask39_201_690" style="mask-type:luminance" maskUnits="userSpaceOnUse" x="51" y="51" width="398" height="398">
<path d="M250 448.5C359.629 448.5 448.5 359.629 448.5 250C448.5 140.371 359.629 51.5 250 51.5C140.371 51.5 51.5 140.371 51.5 250C51.5 359.629 140.371 448.5 250 448.5Z" fill="white"/>
</mask>
<g mask="url(#mask39_201_690)">
<path d="M152 404.5C139.7 397.2 128.4 388.3 118.3 378.2C108.2 368.1 99.3 356.8 91.9 344.6C87.7 337.7 84.1 330.5 80.9 323.1C79.8 320.6 75.1 322.1 76.2 324.8C82 338.2 89.4 350.9 98.2 362.6C107 374.2 117.3 384.8 128.7 394C135.1 399.2 141.8 403.9 148.9 408.1C150 408.8 151.5 408.7 152.4 407.7C153.1 406.7 153.1 405.2 152 404.5Z" fill="white"/>
</g>
<mask id="mask40_201_690" style="mask-type:luminance" maskUnits="userSpaceOnUse" x="51" y="51" width="398" height="398">
<path d="M250 448.5C359.629 448.5 448.5 359.629 448.5 250C448.5 140.371 359.629 51.5 250 51.5C140.371 51.5 51.5 140.371 51.5 250C51.5 359.629 140.371 448.5 250 448.5Z" fill="white"/>
</mask>
<g mask="url(#mask40_201_690)">
<path d="M63.9 259.3C58.7 240.5 59.5 220.3 66 201.9C67.8 196.7 70.2 191.7 72.9 186.9C73.8 185.3 69.8 182.4 69 183.8C59.1 201.1 54.9 221.2 56.7 241C57.2 246.6 58.2 252.2 59.8 257.6C60.1 258.7 61.1 259.7 62.2 260.1C62.7 260.3 64.2 260.5 63.9 259.3Z" fill="white"/>
</g>
<mask id="mask41_201_690" style="mask-type:luminance" maskUnits="userSpaceOnUse" x="51" y="51" width="398" height="398">
<path d="M250 448.5C359.629 448.5 448.5 359.629 448.5 250C448.5 140.371 359.629 51.5 250 51.5C140.371 51.5 51.5 140.371 51.5 250C51.5 359.629 140.371 448.5 250 448.5Z" fill="white"/>
</mask>
<g mask="url(#mask41_201_690)">
<path d="M299.2 79.0001C279.4 76.2001 259.4 74.3001 239.4 73.5001C233.7 73.3001 228.1 73.1001 222.4 73.1001C221.6 73.1001 220.5 73.4001 221.1 74.3001C221.6 75.2001 223.3 75.7001 224.2 75.7001C243.9 75.9001 263.6 77.1001 283.2 79.3001C288.8 79.9001 294.3 80.7001 299.8 81.4001C300.5 81.5001 302 81.6001 301.9 80.6001C301.8 79.7001 299.9 79.1001 299.2 79.0001Z" fill="white"/>
</g>
</svg>
