<svg width="500" height="500" viewBox="0 0 500 500" fill="none" xmlns="http://www.w3.org/2000/svg">
<mask id="mask0_201_667" style="mask-type:luminance" maskUnits="userSpaceOnUse" x="51" y="51" width="398" height="398">
<path d="M250 448.5C359.629 448.5 448.5 359.629 448.5 250C448.5 140.371 359.629 51.5 250 51.5C140.371 51.5 51.5 140.371 51.5 250C51.5 359.629 140.371 448.5 250 448.5Z" fill="white"/>
</mask>
<g mask="url(#mask0_201_667)">
<path d="M190.8 41.1001C208.1 51.8001 226.1 61.3001 244.4 70.1001C262.7 78.9001 281.4 87.1001 300.1 95.1001C319.7 103.5 339.4 111.9 359 120.3C378.9 128.8 398.7 137.3 418.6 145.8C438.4 154.3 458.2 162.7 478 171.2C480.5 172.3 483 173.4 485.6 174.4C486.5 174.8 488.2 174.9 489 174.2C489.9 173.5 489 172.8 488.2 172.5C468.4 164 448.6 155.6 428.8 147.1C409 138.6 389.2 130.2 369.4 121.7C349.7 113.3 330 104.9 310.3 96.4001C291.7 88.4001 273 80.4001 254.7 71.8001C236.3 63.2001 218.2 53.9001 200.7 43.5001C198.6 42.2001 196.4 40.9001 194.3 39.6001C193.4 39.0001 191.8 38.9001 190.8 39.3001C190 39.7001 189.9 40.5001 190.8 41.1001Z" fill="white"/>
</g>
<mask id="mask1_201_667" style="mask-type:luminance" maskUnits="userSpaceOnUse" x="51" y="51" width="398" height="398">
<path d="M250 448.5C359.629 448.5 448.5 359.629 448.5 250C448.5 140.371 359.629 51.5 250 51.5C140.371 51.5 51.5 140.371 51.5 250C51.5 359.629 140.371 448.5 250 448.5Z" fill="white"/>
</mask>
<g mask="url(#mask1_201_667)">
<path d="M192.9 55.9999C210.7 66.6999 228.8 77.0999 246.9 87.2999C265 97.3999 283.2 107.3 301.6 116.9C320 126.5 338.5 135.8 357.1 144.9C375.8 154 394.7 162.8 413.7 171.3C432.6 179.8 451.6 188 470.8 196C473.2 197 475.6 198 478 199C479.2 199.5 480.5 199.3 481.4 198.3C482.1 197.5 482.3 195.9 481.1 195.4C461.9 187.5 442.7 179.3 423.7 170.8C404.8 162.4 386 153.7 367.3 144.7C348.6 135.7 330.1 126.5 311.7 116.9C293.2 107.3 274.9 97.4999 256.7 87.3999C238.6 77.2999 220.6 66.9999 202.8 56.3999C200.6 55.0999 198.3 53.6999 196.1 52.3999C193.8 50.9999 190.3 54.3999 192.9 55.9999Z" fill="white"/>
</g>
<mask id="mask2_201_667" style="mask-type:luminance" maskUnits="userSpaceOnUse" x="51" y="51" width="398" height="398">
<path d="M250 448.5C359.629 448.5 448.5 359.629 448.5 250C448.5 140.371 359.629 51.5 250 51.5C140.371 51.5 51.5 140.371 51.5 250C51.5 359.629 140.371 448.5 250 448.5Z" fill="white"/>
</mask>
<g mask="url(#mask2_201_667)">
<path d="M232.1 42.4002C242.5 53.0002 255.4 60.3002 268.9 66.2002C282.6 72.2002 296.9 76.9002 310.7 82.8002C326.5 89.7002 341.6 98.0002 356.9 106C372.4 114 388.1 121.3 404.4 127.6C420.9 134 437.6 139.7 454.3 145.3C456.3 146 458.4 146.7 460.4 147.3C461.4 147.6 463 147.3 463.3 146.2C463.7 145 462.3 144.1 461.4 143.8C444.9 138.3 428.4 132.9 412.2 126.7C396.1 120.6 380.3 113.8 365 105.9C349.9 98.2002 335 89.9002 319.6 82.7002C305.8 76.3002 291.4 71.4002 277.3 65.6002C264 60.2002 250.9 53.9002 240.1 44.3002C238.8 43.2002 237.5 42.0002 236.3 40.7002C235.4 39.8002 234.1 39.3002 232.9 39.8002C231.8 40.3002 231.2 41.6002 232.1 42.4002Z" fill="white"/>
</g>
<mask id="mask3_201_667" style="mask-type:luminance" maskUnits="userSpaceOnUse" x="51" y="51" width="398" height="398">
<path d="M250 448.5C359.629 448.5 448.5 359.629 448.5 250C448.5 140.371 359.629 51.5 250 51.5C140.371 51.5 51.5 140.371 51.5 250C51.5 359.629 140.371 448.5 250 448.5Z" fill="white"/>
</mask>
<g mask="url(#mask3_201_667)">
<path d="M245.3 28.9998C265.7 43.8998 288.5 54.5998 311.4 64.9998C335.3 75.8998 358.9 87.1998 382.1 99.3998C395.3 106.3 408.4 113.4 421.4 120.7C421.7 120.9 423.5 122 423.8 121.5C424.1 121 422.1 119.9 421.9 119.7C398.9 106.7 375.5 94.2998 351.8 82.6998C340.2 76.9998 328.5 71.4998 316.7 66.0998C305.5 60.9998 294.2 55.8998 283.2 50.2998C271 44.1998 259.1 37.4998 248 29.3998C247.3 28.8998 245.9 27.7998 244.9 27.7998C244 27.9998 244.9 28.6998 245.3 28.9998Z" fill="white"/>
</g>
<mask id="mask4_201_667" style="mask-type:luminance" maskUnits="userSpaceOnUse" x="51" y="51" width="398" height="398">
<path d="M250 448.5C359.629 448.5 448.5 359.629 448.5 250C448.5 140.371 359.629 51.5 250 51.5C140.371 51.5 51.5 140.371 51.5 250C51.5 359.629 140.371 448.5 250 448.5Z" fill="white"/>
</mask>
<g mask="url(#mask4_201_667)">
<path d="M150.3 50.5998C171.8 63.0998 193.3 75.4998 214.9 87.6998C236.5 99.8998 258.2 112 280 123.9C301.8 135.8 323.7 147.6 345.6 159.3C367.5 170.9 389.6 182.4 411.7 193.8C433.8 205.2 456 216.4 478.2 227.4C480.9 228.8 483.7 230.1 486.4 231.5C487 231.8 488.3 230.9 488.8 230.7C489 230.6 491 229.2 490.8 229.2C468.5 218.2 446.4 207 424.2 195.7C402.1 184.4 380 172.9 358.1 161.3C336.1 149.7 314.3 137.9 292.4 126.1C270.7 114 249 102 227.3 89.7998C205.6 77.5998 184.1 65.2998 162.6 52.7998C160 51.2998 157.3 49.6998 154.7 48.1998C154.1 47.8998 152.8 48.7998 152.3 48.9998C152.1 49.1998 150.1 50.4998 150.3 50.5998Z" fill="white"/>
</g>
<mask id="mask5_201_667" style="mask-type:luminance" maskUnits="userSpaceOnUse" x="51" y="51" width="398" height="398">
<path d="M250 448.5C359.629 448.5 448.5 359.629 448.5 250C448.5 140.371 359.629 51.5 250 51.5C140.371 51.5 51.5 140.371 51.5 250C51.5 359.629 140.371 448.5 250 448.5Z" fill="white"/>
</mask>
<g mask="url(#mask5_201_667)">
<path d="M90.0001 385.4C139.7 377.3 189.4 369.1 239.1 360.7C288.5 352.3 337.9 343.8 387.3 335.1C415.2 330.2 443.1 325.2 471 320.2C472.1 320 471.4 319 470.9 318.5C470.2 317.8 468.8 317.1 467.7 317.2C418.1 326.1 368.5 334.9 318.9 343.5C269.5 352 220.1 360.4 170.7 368.7C142.7 373.4 114.8 378 86.8001 382.5C85.7001 382.7 86.4001 383.8 86.9001 384.2C87.6001 384.9 89.0001 385.6 90.0001 385.4Z" fill="white"/>
</g>
<mask id="mask6_201_667" style="mask-type:luminance" maskUnits="userSpaceOnUse" x="51" y="51" width="398" height="398">
<path d="M250 448.5C359.629 448.5 448.5 359.629 448.5 250C448.5 140.371 359.629 51.5 250 51.5C140.371 51.5 51.5 140.371 51.5 250C51.5 359.629 140.371 448.5 250 448.5Z" fill="white"/>
</mask>
<g mask="url(#mask6_201_667)">
<path d="M107 405.5C131.2 398.7 155.5 392.6 180 387.1C204.5 381.7 229.1 376.9 253.9 372.9C278.8 368.8 303.8 365.4 328.9 362.8C353.6 360.2 378.3 358.6 403.1 356.9C427.1 355.3 451.3 352.9 474.5 346.2C477.4 345.4 480.3 344.4 483.2 343.5C483.9 343.3 485.5 342.4 485.1 341.4C484.7 340.4 483 340.8 482.3 341C459.3 348.8 435.1 351.7 411.1 353.4C386.4 355.2 361.8 356.6 337.1 359.1C312.1 361.6 287.1 364.9 262.2 368.8C237.4 372.7 212.8 377.3 188.3 382.6C163.8 387.9 139.4 393.9 115.2 400.5C112.2 401.3 109.2 402.2 106.2 403C105.5 403.2 103.9 404.1 104.3 405.1C104.5 406.1 106.3 405.7 107 405.5Z" fill="white"/>
</g>
<mask id="mask7_201_667" style="mask-type:luminance" maskUnits="userSpaceOnUse" x="51" y="51" width="398" height="398">
<path d="M250 448.5C359.629 448.5 448.5 359.629 448.5 250C448.5 140.371 359.629 51.5 250 51.5C140.371 51.5 51.5 140.371 51.5 250C51.5 359.629 140.371 448.5 250 448.5Z" fill="white"/>
</mask>
<g mask="url(#mask7_201_667)">
<path d="M127.4 417.2C167.8 412.3 208.1 407.1 248.4 401.4C288.7 395.8 329 389.7 369.2 383.3C391.8 379.7 414.5 376 437 372.1C438.1 371.9 436.6 371.1 436.3 371C435.3 370.6 434 370.3 432.9 370.5C392.8 377.3 352.5 383.8 312.3 389.9C272.2 395.9 232.1 401.6 191.9 406.9C169.3 409.9 146.7 412.7 124.1 415.5C123.2 415.6 123.1 416 123.9 416.5C124.8 417 126.4 417.3 127.4 417.2Z" fill="white"/>
</g>
<mask id="mask8_201_667" style="mask-type:luminance" maskUnits="userSpaceOnUse" x="51" y="51" width="398" height="398">
<path d="M250 448.5C359.629 448.5 448.5 359.629 448.5 250C448.5 140.371 359.629 51.5 250 51.5C140.371 51.5 51.5 140.371 51.5 250C51.5 359.629 140.371 448.5 250 448.5Z" fill="white"/>
</mask>
<g mask="url(#mask8_201_667)">
<path d="M146.3 435.5C163.7 430.9 181.4 427.6 199.1 424.9C216.9 422.2 234.9 420.3 252.8 418.4C270.8 416.6 288.8 414.9 306.7 412.9C324.9 410.8 343 408.2 361.1 405C379.4 401.8 397.6 398 415.8 394.2C418.1 393.7 420.4 393.2 422.8 392.7C423.6 392.5 425 392.1 424.5 391C424.1 390 422.2 390 421.4 390.1C403.1 394 384.9 397.8 366.5 401.2C348.3 404.5 330.1 407.4 311.7 409.5C293.7 411.7 275.6 413.4 257.5 415.2C239.5 417 221.4 418.9 203.5 421.4C185.7 423.9 168 427.1 150.5 431.4C148.2 432 146 432.5 143.7 433.1C142.8 433.3 142.1 434.2 142.8 434.9C143.7 435.9 145.3 435.8 146.3 435.5Z" fill="white"/>
</g>
<mask id="mask9_201_667" style="mask-type:luminance" maskUnits="userSpaceOnUse" x="51" y="51" width="398" height="398">
<path d="M250 448.5C359.629 448.5 448.5 359.629 448.5 250C448.5 140.371 359.629 51.5 250 51.5C140.371 51.5 51.5 140.371 51.5 250C51.5 359.629 140.371 448.5 250 448.5Z" fill="white"/>
</mask>
<g mask="url(#mask9_201_667)">
<path d="M176.5 448.5C203.7 443 231 437.7 258.3 432.6C285.6 427.6 313 422.8 340.3 418.3C355.6 415.8 371 413.3 386.3 411C386.9 410.9 388.4 410.6 388 409.7C387.6 408.9 385.5 409.1 384.9 409.2C357.5 413.4 330.1 417.9 302.7 422.7C275.3 427.4 248 432.4 220.8 437.7C205.5 440.6 190.3 443.7 175.1 446.8C174.6 446.9 173 447.2 173.4 448.1C173.8 448.7 175.9 448.6 176.5 448.5Z" fill="white"/>
</g>
<mask id="mask10_201_667" style="mask-type:luminance" maskUnits="userSpaceOnUse" x="51" y="51" width="398" height="398">
<path d="M250 448.5C359.629 448.5 448.5 359.629 448.5 250C448.5 140.371 359.629 51.5 250 51.5C140.371 51.5 51.5 140.371 51.5 250C51.5 359.629 140.371 448.5 250 448.5Z" fill="white"/>
</mask>
<g mask="url(#mask10_201_667)">
<path d="M211.5 456.7C228.7 454.1 245.8 451.5 263 448.9C280.2 446.3 297.3 443.7 314.5 441.1C324.2 439.6 333.9 438.2 343.6 436.7C345.3 436.4 342.6 432.4 340.9 432.6C323.7 435.2 306.6 437.8 289.4 440.4C272.2 443 255.1 445.6 237.9 448.2C228.2 449.7 218.5 451.1 208.8 452.6C207.2 452.9 209.9 457 211.5 456.7Z" fill="white"/>
</g>
<mask id="mask11_201_667" style="mask-type:luminance" maskUnits="userSpaceOnUse" x="51" y="51" width="398" height="398">
<path d="M250 448.5C359.629 448.5 448.5 359.629 448.5 250C448.5 140.371 359.629 51.5 250 51.5C140.371 51.5 51.5 140.371 51.5 250C51.5 359.629 140.371 448.5 250 448.5Z" fill="white"/>
</mask>
<g mask="url(#mask11_201_667)">
<path d="M388.4 183.5C390.2 202.6 391.9 221.6 393.7 240.7C395.5 259.8 397.2 278.8 399 297.9C400 308.7 401 319.4 402 330.2C402 330.7 406.7 329.6 406.6 328.3C404.8 309.2 403.1 290.2 401.3 271.1C399.5 252 397.8 233 396 213.9C395 203.1 394 192.4 393 181.6C393 181.1 388.3 182.2 388.4 183.5Z" fill="white"/>
</g>
<mask id="mask12_201_667" style="mask-type:luminance" maskUnits="userSpaceOnUse" x="51" y="51" width="398" height="398">
<path d="M250 448.5C359.629 448.5 448.5 359.629 448.5 250C448.5 140.371 359.629 51.5 250 51.5C140.371 51.5 51.5 140.371 51.5 250C51.5 359.629 140.371 448.5 250 448.5Z" fill="white"/>
</mask>
<g mask="url(#mask12_201_667)">
<path d="M409.7 190.3C410 208.1 410.6 225.8 411.5 243.6C412.4 261.3 413.5 279.1 414.9 296.8C415.7 306.9 416.6 316.9 417.5 326.9C417.6 328 418.3 329.3 419.2 330C420 330.6 420.5 330.3 420.4 329.4C418.7 311.8 417.3 294.1 416.1 276.5C414.9 258.9 414 241.3 413.4 223.7C413 213.7 412.8 203.7 412.6 193.7C412.6 192.6 412 191.4 411.2 190.5C411 190.1 409.7 189.1 409.7 190.3Z" fill="white"/>
</g>
<mask id="mask13_201_667" style="mask-type:luminance" maskUnits="userSpaceOnUse" x="51" y="51" width="398" height="398">
<path d="M250 448.5C359.629 448.5 448.5 359.629 448.5 250C448.5 140.371 359.629 51.5 250 51.5C140.371 51.5 51.5 140.371 51.5 250C51.5 359.629 140.371 448.5 250 448.5Z" fill="white"/>
</mask>
<g mask="url(#mask13_201_667)">
<path d="M433 203.4C434.7 234.2 435.1 265.1 434.2 295.9C434 304.5 433.6 313.2 433.2 321.8C433.1 324.7 438 324.7 438.1 322C439.6 291 439.9 259.9 438.9 228.9C438.6 220.1 438.2 211.3 437.8 202.5C437.7 201.2 436 200.7 434.9 200.9C433.7 201.1 432.9 202.1 433 203.4Z" fill="white"/>
</g>
<mask id="mask14_201_667" style="mask-type:luminance" maskUnits="userSpaceOnUse" x="51" y="51" width="398" height="398">
<path d="M250 448.5C359.629 448.5 448.5 359.629 448.5 250C448.5 140.371 359.629 51.5 250 51.5C140.371 51.5 51.5 140.371 51.5 250C51.5 359.629 140.371 448.5 250 448.5Z" fill="white"/>
</mask>
<g mask="url(#mask14_201_667)">
<path d="M371.5 171.4C374.7 191.6 377.3 211.9 379.4 232.3C381.5 252.6 383.1 273.1 384.2 293.5C384.8 305 385.3 316.5 385.5 328C385.5 328.9 386.9 329.9 387.6 330.3C387.9 330.5 389.6 331.5 389.6 330.6C389.1 310.1 388.1 289.7 386.5 269.3C385 248.9 382.9 228.5 380.3 208.2C378.9 196.8 377.2 185.4 375.5 174C375.3 173 374.2 172.2 373.4 171.7C373.2 171.5 371.3 170.5 371.5 171.4Z" fill="white"/>
</g>
<mask id="mask15_201_667" style="mask-type:luminance" maskUnits="userSpaceOnUse" x="51" y="51" width="398" height="398">
<path d="M250 448.5C359.629 448.5 448.5 359.629 448.5 250C448.5 140.371 359.629 51.5 250 51.5C140.371 51.5 51.5 140.371 51.5 250C51.5 359.629 140.371 448.5 250 448.5Z" fill="white"/>
</mask>
<g mask="url(#mask15_201_667)">
<path d="M354.3 164.6C358 186.6 360.7 208.7 362.4 231C364.1 253.3 364.8 275.6 364.5 297.9C364.3 310.3 364 322.8 366.7 335C367 336.2 368.2 337.3 369.4 337.2C370.7 337.1 371.4 335.9 371.1 334.7C368.7 324 368.8 313 369 302.2C369.1 291.1 369.1 279.9 368.8 268.8C368.2 246.4 366.6 224.1 364 201.9C362.5 189.3 360.7 176.8 358.7 164.3C358.2 161.4 353.7 161.4 354.3 164.6Z" fill="white"/>
</g>
<mask id="mask16_201_667" style="mask-type:luminance" maskUnits="userSpaceOnUse" x="51" y="51" width="398" height="398">
<path d="M250 448.5C359.629 448.5 448.5 359.629 448.5 250C448.5 140.371 359.629 51.5 250 51.5C140.371 51.5 51.5 140.371 51.5 250C51.5 359.629 140.371 448.5 250 448.5Z" fill="white"/>
</mask>
<g mask="url(#mask16_201_667)">
<path d="M335.5 152C339.4 176.1 340.5 200.6 340.8 225.1C341.1 249.4 340.7 273.8 341.5 298.1C341.9 311.9 342.8 325.6 344.4 339.3C344.5 339.9 346.2 340.3 346.6 340.5C346.8 340.6 349.1 341.2 349.1 340.9C346.3 316.6 345.8 292 345.7 267.6C345.6 243.3 345.9 218.9 344.5 194.6C343.7 180.9 342.4 167.2 340.2 153.6C340.1 153 338.4 152.6 338 152.4C337.8 152.4 335.4 151.8 335.5 152Z" fill="white"/>
</g>
<mask id="mask17_201_667" style="mask-type:luminance" maskUnits="userSpaceOnUse" x="51" y="51" width="398" height="398">
<path d="M250 448.5C359.629 448.5 448.5 359.629 448.5 250C448.5 140.371 359.629 51.5 250 51.5C140.371 51.5 51.5 140.371 51.5 250C51.5 359.629 140.371 448.5 250 448.5Z" fill="white"/>
</mask>
<g mask="url(#mask17_201_667)">
<path d="M274.9 353.4C294.3 335.3 312.8 316.3 330.5 296.5C335.5 290.9 340.4 285.3 345.2 279.6C345.9 278.7 344.4 278.5 343.9 278.6C342.8 278.7 341.6 279.2 340.8 280.1C323.8 300.2 305.8 319.4 287.1 337.9C281.8 343.1 276.5 348.2 271.1 353.3C270.4 354 270.7 354.6 271.6 354.7C272.7 354.7 274.1 354.1 274.9 353.4Z" fill="white"/>
</g>
<mask id="mask18_201_667" style="mask-type:luminance" maskUnits="userSpaceOnUse" x="51" y="51" width="398" height="398">
<path d="M250 448.5C359.629 448.5 448.5 359.629 448.5 250C448.5 140.371 359.629 51.5 250 51.5C140.371 51.5 51.5 140.371 51.5 250C51.5 359.629 140.371 448.5 250 448.5Z" fill="white"/>
</mask>
<g mask="url(#mask18_201_667)">
<path d="M297.9 352.1C313.9 339.4 329.7 326.5 345.3 313.3C347 311.9 343.4 308.4 341.7 309.9C326.1 323 310.3 336 294.3 348.7C293.4 349.4 294.3 351.1 295 351.6C295.7 352.4 297 352.9 297.9 352.1Z" fill="white"/>
</g>
<mask id="mask19_201_667" style="mask-type:luminance" maskUnits="userSpaceOnUse" x="51" y="51" width="398" height="398">
<path d="M250 448.5C359.629 448.5 448.5 359.629 448.5 250C448.5 140.371 359.629 51.5 250 51.5C140.371 51.5 51.5 140.371 51.5 250C51.5 359.629 140.371 448.5 250 448.5Z" fill="white"/>
</mask>
<g mask="url(#mask19_201_667)">
<path d="M247.3 358.7C259.2 345.7 271.3 332.8 283.6 320.1C295.9 307.5 308.3 295.1 321 282.8C328.2 275.9 335.4 269 342.7 262.1C343.5 261.4 342.1 261.2 341.6 261.2C340.6 261.2 339.1 261.5 338.3 262.2C325.4 274.3 312.7 286.5 300.1 299C287.6 311.4 275.3 324 263.3 336.8C256.4 344.1 249.6 351.4 242.9 358.8C242.2 359.6 243.4 359.7 244 359.7C245 359.7 246.6 359.5 247.3 358.7Z" fill="white"/>
</g>
<mask id="mask20_201_667" style="mask-type:luminance" maskUnits="userSpaceOnUse" x="51" y="51" width="398" height="398">
<path d="M250 448.5C359.629 448.5 448.5 359.629 448.5 250C448.5 140.371 359.629 51.5 250 51.5C140.371 51.5 51.5 140.371 51.5 250C51.5 359.629 140.371 448.5 250 448.5Z" fill="white"/>
</mask>
<g mask="url(#mask20_201_667)">
<path d="M226.1 360.6C241.7 345.2 257.3 329.7 272.9 314.2C288.3 298.8 303.7 283.3 319 267.8C327.7 259 336.4 250.2 345 241.3C345.7 240.5 345.2 239.8 344.3 239.7C343.1 239.6 341.9 240.3 341.1 241.1C325.9 256.7 310.5 272.2 295.2 287.6C279.9 303 264.5 318.4 249 333.8C240.3 342.4 231.6 351 222.9 359.6C222.3 360.2 221.7 361.1 222.8 361.5C223.8 362 225.5 361.3 226.1 360.6Z" fill="white"/>
</g>
<mask id="mask21_201_667" style="mask-type:luminance" maskUnits="userSpaceOnUse" x="51" y="51" width="398" height="398">
<path d="M250 448.5C359.629 448.5 448.5 359.629 448.5 250C448.5 140.371 359.629 51.5 250 51.5C140.371 51.5 51.5 140.371 51.5 250C51.5 359.629 140.371 448.5 250 448.5Z" fill="white"/>
</mask>
<g mask="url(#mask21_201_667)">
<path d="M187.9 368C198.9 360.5 208.6 351.1 218.4 342.1C228.6 332.7 238.8 323.3 248.9 313.7C269.1 294.6 289.1 275.3 309 256C320.2 245.1 331.4 234.1 342.6 223.1C343.4 222.3 342.1 222 341.5 222C340.5 222 339 222.2 338.2 222.9C318.4 242.3 298.6 261.7 278.7 280.9C258.8 300.1 238.7 319.2 218.3 338C212.7 343.2 207.1 348.3 201.4 353.4C195.9 358.4 190.2 363.2 184.1 367.4C183.3 367.9 183.4 368.5 184.3 368.7C185.4 368.9 187 368.6 187.9 368Z" fill="white"/>
</g>
<mask id="mask22_201_667" style="mask-type:luminance" maskUnits="userSpaceOnUse" x="51" y="51" width="398" height="398">
<path d="M250 448.5C359.629 448.5 448.5 359.629 448.5 250C448.5 140.371 359.629 51.5 250 51.5C140.371 51.5 51.5 140.371 51.5 250C51.5 359.629 140.371 448.5 250 448.5Z" fill="white"/>
</mask>
<g mask="url(#mask22_201_667)">
<path d="M157.6 373.8C179.6 351 203.9 330.6 228.1 310.1C253.2 288.8 278.3 267.5 303.4 246.2C317.6 234.2 331.8 222.1 346 210.1C346.6 209.6 347 208.6 346 208.3C344.9 208 343.6 209 342.8 209.6C317.6 231 292.3 252.4 267.1 273.8C242.4 294.7 217.5 315.4 193.2 336.7C179.8 348.4 166.7 360.5 154.4 373.2C153.9 373.7 153.3 374.7 154.4 375C155.4 375.4 156.9 374.5 157.6 373.8Z" fill="white"/>
</g>
<mask id="mask23_201_667" style="mask-type:luminance" maskUnits="userSpaceOnUse" x="51" y="51" width="398" height="398">
<path d="M250 448.5C359.629 448.5 448.5 359.629 448.5 250C448.5 140.371 359.629 51.5 250 51.5C140.371 51.5 51.5 140.371 51.5 250C51.5 359.629 140.371 448.5 250 448.5Z" fill="white"/>
</mask>
<g mask="url(#mask23_201_667)">
<path d="M251.9 108.8C258.2 127.2 260.3 146.6 263.3 165.7C266.4 185.5 270.6 205.2 275.1 224.8C277.6 235.8 280.3 246.8 282.9 257.7C283.3 259.5 288.3 259.3 287.7 257.1C283 237.5 278.2 218 274.2 198.3C272.2 188.4 270.3 178.5 268.7 168.5C267.2 158.9 265.9 149.3 264.3 139.7C262.5 129 260.3 118.4 256.8 108.2C256.2 106.4 251.2 106.8 251.9 108.8Z" fill="white"/>
</g>
<mask id="mask24_201_667" style="mask-type:luminance" maskUnits="userSpaceOnUse" x="51" y="51" width="398" height="398">
<path d="M250 448.5C359.629 448.5 448.5 359.629 448.5 250C448.5 140.371 359.629 51.5 250 51.5C140.371 51.5 51.5 140.371 51.5 250C51.5 359.629 140.371 448.5 250 448.5Z" fill="white"/>
</mask>
<g mask="url(#mask24_201_667)">
<path d="M271.9 120.5C281.2 151.5 289.3 182.9 296.3 214.6C298.3 223.5 300.1 232.4 301.9 241.4C302.4 243.9 306.9 241.7 306.4 239.5C300.1 207.7 292.7 176.2 284 144.9C281.6 136.1 279 127.3 276.4 118.6C275.7 116.1 271.2 118.3 271.9 120.5Z" fill="white"/>
</g>
<mask id="mask25_201_667" style="mask-type:luminance" maskUnits="userSpaceOnUse" x="51" y="51" width="398" height="398">
<path d="M250 448.5C359.629 448.5 448.5 359.629 448.5 250C448.5 140.371 359.629 51.5 250 51.5C140.371 51.5 51.5 140.371 51.5 250C51.5 359.629 140.371 448.5 250 448.5Z" fill="white"/>
</mask>
<g mask="url(#mask25_201_667)">
<path d="M293.7 130.5C302.9 154.3 310.7 178.7 317.1 203.4C318.9 210.4 320.5 217.3 322.1 224.4C322.4 225.8 327.3 225.3 327.1 224.3C321.6 199.4 314.6 174.8 306.2 150.7C303.8 143.9 301.3 137.2 298.8 130.5C298.1 129 293.4 129.7 293.7 130.5Z" fill="white"/>
</g>
<mask id="mask26_201_667" style="mask-type:luminance" maskUnits="userSpaceOnUse" x="51" y="51" width="398" height="398">
<path d="M250 448.5C359.629 448.5 448.5 359.629 448.5 250C448.5 140.371 359.629 51.5 250 51.5C140.371 51.5 51.5 140.371 51.5 250C51.5 359.629 140.371 448.5 250 448.5Z" fill="white"/>
</mask>
<g mask="url(#mask26_201_667)">
<path d="M319.7 145.6C324.9 163.3 329.3 181.2 332.9 199.3C333.9 204.5 334.9 209.7 335.8 214.9C336.2 217.4 341.1 216.4 340.7 213.9C337.6 195.7 333.7 177.7 328.9 159.9C327.5 154.8 326.1 149.7 324.6 144.6C323.9 142.2 319 143.2 319.7 145.6Z" fill="white"/>
</g>
<mask id="mask27_201_667" style="mask-type:luminance" maskUnits="userSpaceOnUse" x="51" y="51" width="398" height="398">
<path d="M250 448.5C359.629 448.5 448.5 359.629 448.5 250C448.5 140.371 359.629 51.5 250 51.5C140.371 51.5 51.5 140.371 51.5 250C51.5 359.629 140.371 448.5 250 448.5Z" fill="white"/>
</mask>
<g mask="url(#mask27_201_667)">
<path d="M205.6 79.4002C184.3 99.2002 161.8 117.5 139.4 135.9C117.1 154.2 94.8002 172.5 73.8002 192.3C62.0002 203.4 50.6002 215 39.9002 227.2C39.1002 228.1 39.4002 229.6 40.5002 230.1C41.7002 230.7 43.0002 230 43.8002 229.1C62.8002 207.5 83.9002 188 105.8 169.3C127.6 150.6 150.2 132.8 172.2 114.3C184.6 103.9 196.9 93.3002 208.7 82.3002C209.5 81.5002 210 80.1002 209 79.3002C208 78.3002 206.5 78.6002 205.6 79.4002Z" fill="white"/>
</g>
<mask id="mask28_201_667" style="mask-type:luminance" maskUnits="userSpaceOnUse" x="51" y="51" width="398" height="398">
<path d="M250 448.5C359.629 448.5 448.5 359.629 448.5 250C448.5 140.371 359.629 51.5 250 51.5C140.371 51.5 51.5 140.371 51.5 250C51.5 359.629 140.371 448.5 250 448.5Z" fill="white"/>
</mask>
<g mask="url(#mask28_201_667)">
<path d="M194.9 73.1002C176.5 90.1002 157.5 106.5 137.9 122.1C118.3 137.7 98.1002 152.6 77.3002 166.7C65.7002 174.6 53.9002 182.3 42.0002 189.7C40.9002 190.4 40.7002 191.5 41.3002 192.6C41.8002 193.5 43.3002 194.6 44.4002 194C65.9002 180.7 86.8002 166.6 107.2 151.7C127.5 136.9 147.2 121.4 166.3 105.2C177.1 96.0002 187.8 86.5002 198.2 76.9002C200.2 75.0002 196.8 71.3002 194.9 73.1002Z" fill="white"/>
</g>
<mask id="mask29_201_667" style="mask-type:luminance" maskUnits="userSpaceOnUse" x="51" y="51" width="398" height="398">
<path d="M250 448.5C359.629 448.5 448.5 359.629 448.5 250C448.5 140.371 359.629 51.5 250 51.5C140.371 51.5 51.5 140.371 51.5 250C51.5 359.629 140.371 448.5 250 448.5Z" fill="white"/>
</mask>
<g mask="url(#mask29_201_667)">
<path d="M182 67.9001C164.8 81.7001 147.5 95.2001 130 108.5C112.5 121.8 94.7999 134.9 76.8999 147.7C66.7999 154.9 56.6999 162.1 46.4999 169.2C45.5999 169.8 45.5999 170.9 46.5999 171.5C47.5999 172.1 49.1999 172.1 50.0999 171.4C68.1999 158.8 85.9999 146 103.8 133C121.5 120 139.1 106.7 156.4 93.2001C166.2 85.6001 175.9 77.9001 185.6 70.1001C187.9 68.2001 183.6 66.5001 182 67.9001Z" fill="white"/>
</g>
<mask id="mask30_201_667" style="mask-type:luminance" maskUnits="userSpaceOnUse" x="51" y="51" width="398" height="398">
<path d="M250 448.5C359.629 448.5 448.5 359.629 448.5 250C448.5 140.371 359.629 51.5 250 51.5C140.371 51.5 51.5 140.371 51.5 250C51.5 359.629 140.371 448.5 250 448.5Z" fill="white"/>
</mask>
<g mask="url(#mask30_201_667)">
<path d="M216.4 87.6999C203.9 100.2 191.3 112.5 178.5 124.7C165.8 136.9 153 148.9 140.1 160.9C127.1 172.9 114 184.8 100.8 196.5C87.6 208.2 74.3 219.9 60.9 231.3C47.5 242.7 34.1 254 20.5 265.2C18.8 266.6 17.1 268 15.3 269.4C15 269.6 17.2 270.8 17.4 270.8C17.9 271 19.3 271.8 19.9 271.4C33.6 260.2 47.1 248.9 60.5 237.4C73.9 226 87.2 214.5 100.3 202.8C113.5 191.1 126.6 179.3 139.6 167.3C152.6 155.3 165.5 143.3 178.3 131.1C191 119 203.6 106.7 216.1 94.2999C217.7 92.6999 219.3 91.1999 220.8 89.5999C221 89.5999 217.2 86.8999 216.4 87.6999Z" fill="white"/>
</g>
<mask id="mask31_201_667" style="mask-type:luminance" maskUnits="userSpaceOnUse" x="51" y="51" width="398" height="398">
<path d="M250 448.5C359.629 448.5 448.5 359.629 448.5 250C448.5 140.371 359.629 51.5 250 51.5C140.371 51.5 51.5 140.371 51.5 250C51.5 359.629 140.371 448.5 250 448.5Z" fill="white"/>
</mask>
<g mask="url(#mask31_201_667)">
<path d="M229.3 94.4002C218.1 109.1 206.1 123.2 193.6 136.8C181.1 150.3 168 163.4 154.6 176C141.1 188.7 127.3 201 113.3 213.1C99.2998 225.2 85.0998 237.2 70.8998 249.1C56.5998 261 42.3998 272.9 28.3998 285C26.5998 286.5 24.8998 288.1 23.0998 289.6C22.1998 290.4 22.4998 291.6 23.4998 292.1C24.5998 292.7 26.0998 292.3 26.9998 291.5C41.0998 279.3 55.2998 267.3 69.4998 255.4C83.7998 243.4 97.9998 231.5 112.2 219.3C126.3 207.2 140.2 194.9 153.8 182.2C167.4 169.6 180.6 156.6 193.3 143.1C206 129.6 218.2 115.6 229.6 101C231 99.2002 232.5 97.3002 233.9 95.4002C234.6 94.4002 233.5 93.4002 232.6 93.2002C231.3 92.9002 230 93.4002 229.3 94.4002Z" fill="white"/>
</g>
<mask id="mask32_201_667" style="mask-type:luminance" maskUnits="userSpaceOnUse" x="51" y="51" width="398" height="398">
<path d="M250 448.5C359.629 448.5 448.5 359.629 448.5 250C448.5 140.371 359.629 51.5 250 51.5C140.371 51.5 51.5 140.371 51.5 250C51.5 359.629 140.371 448.5 250 448.5Z" fill="white"/>
</mask>
<g mask="url(#mask32_201_667)">
<path d="M222 107.9C233.8 113.9 245.6 119.9 257.3 125.9C258.2 126.4 259.8 126.8 260.7 126.2C261.7 125.6 260.8 124.9 260.1 124.6C248.3 118.6 236.5 112.6 224.8 106.6C223.9 106.1 222.3 105.7 221.4 106.3C220.5 106.8 221.3 107.5 222 107.9Z" fill="white"/>
</g>
<mask id="mask33_201_667" style="mask-type:luminance" maskUnits="userSpaceOnUse" x="51" y="51" width="398" height="398">
<path d="M250 448.5C359.629 448.5 448.5 359.629 448.5 250C448.5 140.371 359.629 51.5 250 51.5C140.371 51.5 51.5 140.371 51.5 250C51.5 359.629 140.371 448.5 250 448.5Z" fill="white"/>
</mask>
<g mask="url(#mask33_201_667)">
<path d="M210.1 123.9C226.1 128.1 241.7 133.6 256.7 140.6C257.8 141.1 259.2 141 260.1 140.1C260.8 139.4 261.2 137.9 260.1 137.4C244.8 130.3 228.8 124.6 212.5 120.3C211.3 120 209.9 120.4 209.2 121.5C208.6 122.4 208.9 123.6 210.1 123.9Z" fill="white"/>
</g>
<mask id="mask34_201_667" style="mask-type:luminance" maskUnits="userSpaceOnUse" x="51" y="51" width="398" height="398">
<path d="M250 448.5C359.629 448.5 448.5 359.629 448.5 250C448.5 140.371 359.629 51.5 250 51.5C140.371 51.5 51.5 140.371 51.5 250C51.5 359.629 140.371 448.5 250 448.5Z" fill="white"/>
</mask>
<g mask="url(#mask34_201_667)">
<path d="M197.2 136.2C213.1 142.9 230.2 146.3 246.6 151.7C251.2 153.2 255.7 154.9 260.1 156.8C261.2 157.3 262.7 157.2 263.6 156.2C264.3 155.4 264.2 154 263.1 153.5C247.2 146.5 230.2 143.1 213.8 137.9C209.2 136.4 204.7 134.8 200.2 133C199 132.5 197.6 132.6 196.7 133.6C196 134.3 196.1 135.7 197.2 136.2Z" fill="white"/>
</g>
<mask id="mask35_201_667" style="mask-type:luminance" maskUnits="userSpaceOnUse" x="51" y="51" width="398" height="398">
<path d="M250 448.5C359.629 448.5 448.5 359.629 448.5 250C448.5 140.371 359.629 51.5 250 51.5C140.371 51.5 51.5 140.371 51.5 250C51.5 359.629 140.371 448.5 250 448.5Z" fill="white"/>
</mask>
<g mask="url(#mask35_201_667)">
<path d="M189 151.3C208.6 155.5 228.1 160.6 247.2 166.6C252.7 168.3 258.1 170.1 263.5 172C264.4 172.3 264.7 171.7 264.3 170.9C263.7 169.9 262.5 169.2 261.4 168.8C242.4 162.3 223.1 156.6 203.6 151.9C198 150.6 192.4 149.3 186.8 148.1C185.9 147.9 185.5 148.4 186 149.2C186.7 150.1 187.9 151 189 151.3Z" fill="white"/>
</g>
<mask id="mask36_201_667" style="mask-type:luminance" maskUnits="userSpaceOnUse" x="51" y="51" width="398" height="398">
<path d="M250 448.5C359.629 448.5 448.5 359.629 448.5 250C448.5 140.371 359.629 51.5 250 51.5C140.371 51.5 51.5 140.371 51.5 250C51.5 359.629 140.371 448.5 250 448.5Z" fill="white"/>
</mask>
<g mask="url(#mask36_201_667)">
<path d="M172.5 165C197.5 168.3 222.3 173.3 246.6 180C253.5 181.9 260.3 183.9 267.1 186.1C268.1 186.4 269.6 185.8 270.4 185.2C271 184.8 271.8 183.9 270.7 183.5C246.7 175.8 222.1 169.8 197.3 165.5C190.3 164.3 183.2 163.2 176.2 162.3C175 162.1 173.8 162.5 172.9 163.2C172.3 163.6 171.3 164.8 172.5 165Z" fill="white"/>
</g>
<mask id="mask37_201_667" style="mask-type:luminance" maskUnits="userSpaceOnUse" x="51" y="51" width="398" height="398">
<path d="M250 448.5C359.629 448.5 448.5 359.629 448.5 250C448.5 140.371 359.629 51.5 250 51.5C140.371 51.5 51.5 140.371 51.5 250C51.5 359.629 140.371 448.5 250 448.5Z" fill="white"/>
</mask>
<g mask="url(#mask37_201_667)">
<path d="M160.4 173.7C188.3 183.2 217.9 185.4 246.5 192.3C254.5 194.2 262.4 196.5 270 199.4C271 199.8 272.5 199.3 273.4 198.8C273.9 198.5 274.9 197.7 273.9 197.3C246.2 187 216.6 184.6 188 178.2C180 176.4 172 174.3 164.3 171.7C163.3 171.4 161.8 171.8 160.9 172.3C160.4 172.5 159.4 173.4 160.4 173.7Z" fill="white"/>
</g>
<mask id="mask38_201_667" style="mask-type:luminance" maskUnits="userSpaceOnUse" x="51" y="51" width="398" height="398">
<path d="M250 448.5C359.629 448.5 448.5 359.629 448.5 250C448.5 140.371 359.629 51.5 250 51.5C140.371 51.5 51.5 140.371 51.5 250C51.5 359.629 140.371 448.5 250 448.5Z" fill="white"/>
</mask>
<g mask="url(#mask38_201_667)">
<path d="M189.2 183.1C192.3 200.8 195.3 218.6 198.1 236.4C200.9 254.1 203.6 271.8 206.2 289.6C207.7 299.7 209.1 309.7 210.4 319.8C210.5 320.6 215.4 319.8 215.3 318.9C212.9 301.1 210.3 283.2 207.6 265.4C204.9 247.7 202.1 230 199.2 212.3C197.5 202.3 195.8 192.3 194.1 182.3C193.9 181.3 189 182.2 189.2 183.1Z" fill="white"/>
</g>
<mask id="mask39_201_667" style="mask-type:luminance" maskUnits="userSpaceOnUse" x="51" y="51" width="398" height="398">
<path d="M250 448.5C359.629 448.5 448.5 359.629 448.5 250C448.5 140.371 359.629 51.5 250 51.5C140.371 51.5 51.5 140.371 51.5 250C51.5 359.629 140.371 448.5 250 448.5Z" fill="white"/>
</mask>
<g mask="url(#mask39_201_667)">
<path d="M209.6 186.5C217.4 216.2 223.5 246.3 227.7 276.7C228.9 285.2 230 293.8 230.9 302.3C231.1 304 236.1 303.6 235.9 301.9C232.6 271.4 227.5 241.1 220.7 211.2C218.8 202.8 216.7 194.5 214.6 186.1C214.1 184.3 209.2 185 209.6 186.5Z" fill="white"/>
</g>
<mask id="mask40_201_667" style="mask-type:luminance" maskUnits="userSpaceOnUse" x="51" y="51" width="398" height="398">
<path d="M250 448.5C359.629 448.5 448.5 359.629 448.5 250C448.5 140.371 359.629 51.5 250 51.5C140.371 51.5 51.5 140.371 51.5 250C51.5 359.629 140.371 448.5 250 448.5Z" fill="white"/>
</mask>
<g mask="url(#mask40_201_667)">
<path d="M232.9 188.6C237.4 213.8 242 238.9 246.5 264.1C247.8 271.3 249.1 278.5 250.4 285.7C250.7 287.2 255.6 287.1 255.4 286C250.9 260.8 246.3 235.7 241.8 210.5C240.5 203.3 239.2 196.1 237.9 188.9C237.6 187.4 232.7 187.6 232.9 188.6Z" fill="white"/>
</g>
<mask id="mask41_201_667" style="mask-type:luminance" maskUnits="userSpaceOnUse" x="51" y="51" width="398" height="398">
<path d="M250 448.5C359.629 448.5 448.5 359.629 448.5 250C448.5 140.371 359.629 51.5 250 51.5C140.371 51.5 51.5 140.371 51.5 250C51.5 359.629 140.371 448.5 250 448.5Z" fill="white"/>
</mask>
<g mask="url(#mask41_201_667)">
<path d="M251.5 192.5C255 213.7 258.4 234.8 261.9 256C262.9 262 263.9 267.9 264.8 273.9C265 275.1 266 275.9 267.2 276.2C267.9 276.4 269.8 276.2 269.6 275C266.1 253.8 262.7 232.7 259.2 211.5C258.2 205.5 257.2 199.6 256.3 193.6C256.1 192.4 255.1 191.6 253.9 191.3C253.2 191.1 251.3 191.3 251.5 192.5Z" fill="white"/>
</g>
<mask id="mask42_201_667" style="mask-type:luminance" maskUnits="userSpaceOnUse" x="51" y="51" width="398" height="398">
<path d="M250 448.5C359.629 448.5 448.5 359.629 448.5 250C448.5 140.371 359.629 51.5 250 51.5C140.371 51.5 51.5 140.371 51.5 250C51.5 359.629 140.371 448.5 250 448.5Z" fill="white"/>
</mask>
<g mask="url(#mask42_201_667)">
<path d="M126.7 201.8C125.5 224.4 124.4 247.1 123.2 269.7C122 292.3 120.9 315 119.7 337.6C119 350.4 118.4 363.2 117.7 376C117.6 377.3 118.5 378.6 119.7 378.9C120.9 379.2 122 378.5 122.1 377.2C123.3 354.6 124.4 331.9 125.6 309.3C126.8 286.7 127.9 264 129.1 241.4C129.8 228.6 130.4 215.8 131.1 203C131.2 201.7 130.3 200.4 129.1 200.1C127.9 199.8 126.8 200.6 126.7 201.8Z" fill="white"/>
</g>
<mask id="mask43_201_667" style="mask-type:luminance" maskUnits="userSpaceOnUse" x="51" y="51" width="398" height="398">
<path d="M250 448.5C359.629 448.5 448.5 359.629 448.5 250C448.5 140.371 359.629 51.5 250 51.5C140.371 51.5 51.5 140.371 51.5 250C51.5 359.629 140.371 448.5 250 448.5Z" fill="white"/>
</mask>
<g mask="url(#mask43_201_667)">
<path d="M107.5 217.4C106.7 238.4 105.6 259.5 104.3 280.5C103 301.6 101.4 322.7 99.6001 343.7C98.6001 355.5 97.5001 367.3 96.4001 379.1C96.3001 380.5 100.8 381.9 100.8 381.4C102.8 360.4 104.7 339.5 106.2 318.5C107.8 297.4 109.1 276.3 110.2 255.2C110.8 243.4 111.4 231.5 111.8 219.7C112 218.3 107.5 217 107.5 217.4Z" fill="white"/>
</g>
<mask id="mask44_201_667" style="mask-type:luminance" maskUnits="userSpaceOnUse" x="51" y="51" width="398" height="398">
<path d="M250 448.5C359.629 448.5 448.5 359.629 448.5 250C448.5 140.371 359.629 51.5 250 51.5C140.371 51.5 51.5 140.371 51.5 250C51.5 359.629 140.371 448.5 250 448.5Z" fill="white"/>
</mask>
<g mask="url(#mask44_201_667)">
<path d="M87.7 237.3C86.4 254.3 85.1 271.3 83.9 288.3C82.6 305.3 81.3 322.3 80.1 339.3C79.4 348.9 78.7 358.5 77.9 368.2C77.8 369.1 79.1 370.2 79.7 370.7C79.9 370.9 81.5 372.1 81.6 371.3C82.9 354.3 84.2 337.3 85.4 320.3C86.6 303.3 88 286.3 89.2 269.3C89.9 259.7 90.6 250.1 91.4 240.4C91.5 239.5 90.2 238.4 89.6 237.9C89.4 237.8 87.8 236.5 87.7 237.3Z" fill="white"/>
</g>
<mask id="mask45_201_667" style="mask-type:luminance" maskUnits="userSpaceOnUse" x="51" y="51" width="398" height="398">
<path d="M250 448.5C359.629 448.5 448.5 359.629 448.5 250C448.5 140.371 359.629 51.5 250 51.5C140.371 51.5 51.5 140.371 51.5 250C51.5 359.629 140.371 448.5 250 448.5Z" fill="white"/>
</mask>
<g mask="url(#mask45_201_667)">
<path d="M67.2999 253.8C62.4999 277.1 59.6999 300.8 59.1999 324.6C58.9999 331.2 59.0999 337.8 59.1999 344.5C59.1999 345.9 64.0999 344.9 63.9999 343.1C63.3999 319.6 64.8999 296.1 68.4999 272.8C69.4999 266.2 70.6999 259.6 72.0999 253.1C72.4999 251.4 67.6999 252.3 67.2999 253.8Z" fill="white"/>
</g>
<mask id="mask46_201_667" style="mask-type:luminance" maskUnits="userSpaceOnUse" x="51" y="51" width="398" height="398">
<path d="M250 448.5C359.629 448.5 448.5 359.629 448.5 250C448.5 140.371 359.629 51.5 250 51.5C140.371 51.5 51.5 140.371 51.5 250C51.5 359.629 140.371 448.5 250 448.5Z" fill="white"/>
</mask>
<g mask="url(#mask46_201_667)">
<path d="M126.8 221C131.3 220.7 135.7 219.3 139.9 217.9C144.2 216.4 148.4 214.9 152.7 213.4C161.5 210.4 170.2 207.3 179 204.3C183.9 202.6 188.8 200.9 193.8 199.2C193.9 199.2 194.8 198.9 194.9 198.8C195 198.6 194.8 198.7 194.6 198.7C193.8 198.5 192 199.2 191.3 199.5C175.4 205 159.4 210.6 143.5 216.1C139.5 217.5 135.3 219.4 131 219.7C129.9 219.8 128.7 220.1 127.7 220.5C127.3 220.5 125.9 221 126.8 221Z" fill="white"/>
</g>
<mask id="mask47_201_667" style="mask-type:luminance" maskUnits="userSpaceOnUse" x="51" y="51" width="398" height="398">
<path d="M250 448.5C359.629 448.5 448.5 359.629 448.5 250C448.5 140.371 359.629 51.5 250 51.5C140.371 51.5 51.5 140.371 51.5 250C51.5 359.629 140.371 448.5 250 448.5Z" fill="white"/>
</mask>
<g mask="url(#mask47_201_667)">
<path d="M144.7 194C159.8 191.2 175 188.4 190.1 185.7C191.9 185.4 189.3 181.2 187.6 181.5C172.5 184.3 157.3 187.1 142.2 189.8C140.4 190.2 143 194.3 144.7 194Z" fill="white"/>
</g>
<mask id="mask48_201_667" style="mask-type:luminance" maskUnits="userSpaceOnUse" x="51" y="51" width="398" height="398">
<path d="M250 448.5C359.629 448.5 448.5 359.629 448.5 250C448.5 140.371 359.629 51.5 250 51.5C140.371 51.5 51.5 140.371 51.5 250C51.5 359.629 140.371 448.5 250 448.5Z" fill="white"/>
</mask>
<g mask="url(#mask48_201_667)">
<path d="M130.7 241.1C148.2 238.4 165.3 233.8 182.5 229.6C187.5 228.4 192.4 227.2 197.4 226C198.6 225.7 198.7 224.1 198.2 223.2C197.5 222 196.2 221.6 194.9 221.9C177.9 226 161 230.3 144 234C139.1 235 134.3 236 129.4 236.7C126.2 237.2 128.1 241.5 130.7 241.1Z" fill="white"/>
</g>
<mask id="mask49_201_667" style="mask-type:luminance" maskUnits="userSpaceOnUse" x="51" y="51" width="398" height="398">
<path d="M250 448.5C359.629 448.5 448.5 359.629 448.5 250C448.5 140.371 359.629 51.5 250 51.5C140.371 51.5 51.5 140.371 51.5 250C51.5 359.629 140.371 448.5 250 448.5Z" fill="white"/>
</mask>
<g mask="url(#mask49_201_667)">
<path d="M128.9 256.9C138.5 256.5 147.5 252.6 156.7 250.2C166 247.7 175.5 246.1 185 244.7C190.4 243.9 195.9 243.2 201.4 242.6C201.8 242.5 200.1 241.5 200 241.4C199.3 241 198 240.1 197.2 240.2C187.6 241.4 177.9 242.6 168.3 244.3C163.6 245.2 158.9 246.1 154.3 247.3C149.6 248.5 145 250 140.4 251.4C135.2 253 130 254.3 124.6 254.5C124.2 254.5 125.9 255.6 126 255.7C126.8 256.1 128 256.9 128.9 256.9Z" fill="white"/>
</g>
<mask id="mask50_201_667" style="mask-type:luminance" maskUnits="userSpaceOnUse" x="51" y="51" width="398" height="398">
<path d="M250 448.5C359.629 448.5 448.5 359.629 448.5 250C448.5 140.371 359.629 51.5 250 51.5C140.371 51.5 51.5 140.371 51.5 250C51.5 359.629 140.371 448.5 250 448.5Z" fill="white"/>
</mask>
<g mask="url(#mask50_201_667)">
<path d="M128.3 276.7C147.8 272.1 167.4 267.8 187.1 263.9C192.7 262.8 198.3 261.7 203.9 260.7C206.4 260.2 204.4 255.7 202.2 256.1C182.5 259.8 162.9 263.9 143.3 268.3C137.7 269.6 132.2 270.8 126.7 272.2C124.1 272.7 126.1 277.3 128.3 276.7Z" fill="white"/>
</g>
<mask id="mask51_201_667" style="mask-type:luminance" maskUnits="userSpaceOnUse" x="51" y="51" width="398" height="398">
<path d="M250 448.5C359.629 448.5 448.5 359.629 448.5 250C448.5 140.371 359.629 51.5 250 51.5C140.371 51.5 51.5 140.371 51.5 250C51.5 359.629 140.371 448.5 250 448.5Z" fill="white"/>
</mask>
<g mask="url(#mask51_201_667)">
<path d="M127.4 296.1C147.6 292.9 167.8 289.4 188 285.7C193.7 284.7 199.4 283.6 205.1 282.5C208.2 281.9 206.7 277.5 204 278C183.9 281.8 163.7 285.4 143.5 288.8C137.8 289.7 132.1 290.7 126.4 291.6C123.2 292.1 124.7 296.6 127.4 296.1Z" fill="white"/>
</g>
<mask id="mask52_201_667" style="mask-type:luminance" maskUnits="userSpaceOnUse" x="51" y="51" width="398" height="398">
<path d="M250 448.5C359.629 448.5 448.5 359.629 448.5 250C448.5 140.371 359.629 51.5 250 51.5C140.371 51.5 51.5 140.371 51.5 250C51.5 359.629 140.371 448.5 250 448.5Z" fill="white"/>
</mask>
<g mask="url(#mask52_201_667)">
<path d="M125.7 315.6C136.7 315.2 146.9 310.8 157.1 307.2C167.7 303.4 178.5 300.1 189.4 297.3C195.6 295.7 201.8 294.2 208.1 292.9C209.1 292.7 209.2 291.7 208.5 291.1C207.6 290.3 206.2 290.1 205.1 290.3C194.1 292.6 183.3 295.4 172.6 298.6C167.2 300.2 161.9 301.9 156.6 303.8C151.5 305.6 146.5 307.5 141.4 309.2C135.7 311.1 129.8 312.6 123.8 312.9C122.9 312.9 122 313.5 122.5 314.5C123 315.4 124.6 315.7 125.7 315.6Z" fill="white"/>
</g>
<mask id="mask53_201_667" style="mask-type:luminance" maskUnits="userSpaceOnUse" x="51" y="51" width="398" height="398">
<path d="M250 448.5C359.629 448.5 448.5 359.629 448.5 250C448.5 140.371 359.629 51.5 250 51.5C140.371 51.5 51.5 140.371 51.5 250C51.5 359.629 140.371 448.5 250 448.5Z" fill="white"/>
</mask>
<g mask="url(#mask53_201_667)">
<path d="M125.1 339C147.9 333.7 170.7 328.2 193.5 322.6C199.9 321 206.3 319.4 212.7 317.8C213.2 317.7 214.3 317.4 213.5 317C212.7 316.6 210.9 317.1 210.1 317.3C187.4 323 164.6 328.6 141.8 334C135.4 335.5 128.9 337 122.5 338.5C122 338.6 120.9 338.9 121.7 339.3C122.5 339.6 124.3 339.1 125.1 339Z" fill="white"/>
</g>
<mask id="mask54_201_667" style="mask-type:luminance" maskUnits="userSpaceOnUse" x="51" y="51" width="398" height="398">
<path d="M250 448.5C359.629 448.5 448.5 359.629 448.5 250C448.5 140.371 359.629 51.5 250 51.5C140.371 51.5 51.5 140.371 51.5 250C51.5 359.629 140.371 448.5 250 448.5Z" fill="white"/>
</mask>
<g mask="url(#mask54_201_667)">
<path d="M123.8 358.7C142.8 357.1 161.8 354.9 180.7 352.2C181.2 352.1 182.3 351.9 181.6 351.4C180.9 350.9 179 351.2 178.2 351.4C159.7 354 141.1 356.1 122.4 357.7C122.1 357.7 120.4 357.8 120.7 358.4C121 359 123.4 358.7 123.8 358.7Z" fill="white"/>
</g>
</svg>
