<svg width="500" height="500" viewBox="0 0 500 500" fill="none" xmlns="http://www.w3.org/2000/svg">
<g clip-path="url(#clip0_201_687)">
<mask id="mask0_201_687" style="mask-type:luminance" maskUnits="userSpaceOnUse" x="51" y="51" width="398" height="398">
<path d="M250 448.5C359.629 448.5 448.5 359.629 448.5 250C448.5 140.371 359.629 51.5 250 51.5C140.371 51.5 51.5 140.371 51.5 250C51.5 359.629 140.371 448.5 250 448.5Z" fill="white"/>
</mask>
<g mask="url(#mask0_201_687)">
<path d="M10.8 235.6C33.1 233.9 55.3 232.2 77.6 230.5C77.4 229.7 77.2 228.8 76.9 228C72.2 231.3 69.4 236.2 69.2 242C69.2 242.9 70.4 242.9 71 242.9C147.3 234.4 222 215.1 298.2 205.9C319.7 203.3 341.2 201.6 362.9 201.1C363.1 200.1 363.2 199.1 363.4 198.2C351.8 203.8 340.5 209.8 329.4 216.4C326.1 218.4 322 220.9 322 225.3C322 229.9 326 233.3 330.1 234.3C335.5 235.6 341.5 234.1 346.9 233.3C353.5 232.3 360.1 231.4 366.7 230.4C380.1 228.5 393.5 226.5 407 224.6C460.5 216.9 514 209.2 567.4 201.5C597.7 197.1 627.9 192.8 658.2 188.4C660.2 188.1 662.5 184.6 659.3 185.1C609 192.3 558.7 199.6 508.5 206.8C458.4 214 408.4 221.2 358.3 228.4C351.4 229.4 344.2 231.1 337.3 231.2C334.2 231.3 330.9 230.7 328.7 228.4C326.3 225.8 325.9 222.2 328.9 220C334.2 216.1 340.5 213.2 346.2 210.1C352.3 206.8 358.5 203.7 364.7 200.7C365.8 200.2 367.4 197.7 365.2 197.8C288.1 199.5 212.8 217.4 137.1 230.4C115.5 234.1 93.9 237.4 72.2 239.8C72.8 240.1 73.4 240.4 74 240.7C74.1 236.4 76 232.6 79.5 230.1C81 229 80.8 227.4 78.8 227.6C56.5 229.3 34.3 231 12 232.7C9.90001 232.5 7.60001 235.9 10.8 235.6Z" fill="white"/>
</g>
<mask id="mask1_201_687" style="mask-type:luminance" maskUnits="userSpaceOnUse" x="51" y="51" width="398" height="398">
<path d="M250 448.5C359.629 448.5 448.5 359.629 448.5 250C448.5 140.371 359.629 51.5 250 51.5C140.371 51.5 51.5 140.371 51.5 250C51.5 359.629 140.371 448.5 250 448.5Z" fill="white"/>
</mask>
<g mask="url(#mask1_201_687)">
<path d="M18.4 211.3C55.4 205.6 92.3 199.8 129.3 194.1C139.7 192.5 150.1 190.9 160.6 189.3C160.4 188.5 160.2 187.8 160 187C147.7 192.2 136.6 199.7 127.3 209.3C126.4 210.2 127 211 128.3 211C149.3 210.8 169.8 206 190.2 201.3C210.7 196.6 231.3 192.1 252 188.1C294 179.8 336.2 173 378.6 167.6C402.3 164.6 426.1 162 449.9 159.9C449.5 159.2 449.2 158.6 448.8 157.9C434.7 166.5 422 177.3 411.3 189.9C411.1 190.2 411 190.6 411.3 190.9C417.5 196.7 428 193.4 435.3 192.2C445.9 190.5 456.5 188.7 467 187C488.3 183.5 509.6 180 531 176.5C531.8 176.4 533.7 176 533.8 174.9C533.9 173.9 532.5 173.8 531.7 173.9C511.7 177.2 491.7 180.5 471.8 183.8C461.9 185.4 452 187.1 442.1 188.7C437.2 189.5 432.2 190.4 427.3 191.1C423.3 191.7 419 192.1 415.9 189.2C415.9 189.5 415.9 189.8 415.9 190.2C426.2 178.1 438.3 167.7 451.9 159.4C453.7 158.3 452.4 157.3 450.8 157.4C408.7 161.2 366.6 166.3 324.8 172.9C283.1 179.4 241.6 187.4 200.5 196.7C177.4 201.9 154.2 208.3 130.4 208.5C130.7 209.1 131 209.6 131.4 210.2C140.1 201.2 150.5 193.9 162.1 189C164.1 188.2 163.8 186.4 161.5 186.7C124.5 192.4 87.6 198.2 50.6 203.9C40.2 205.5 29.8 207.1 19.3 208.7C18.5 208.8 16.6 209.2 16.5 210.3C16.3 211.3 17.7 211.4 18.4 211.3Z" fill="white"/>
</g>
<mask id="mask2_201_687" style="mask-type:luminance" maskUnits="userSpaceOnUse" x="51" y="51" width="398" height="398">
<path d="M250 448.5C359.629 448.5 448.5 359.629 448.5 250C448.5 140.371 359.629 51.5 250 51.5C140.371 51.5 51.5 140.371 51.5 250C51.5 359.629 140.371 448.5 250 448.5Z" fill="white"/>
</mask>
<g mask="url(#mask2_201_687)">
<path d="M46.5 186.6C90.9 177.9 135.4 169.1 179.8 160.4C192.4 157.9 204.9 155.5 217.5 153C216.8 151.5 216.1 150 215.3 148.5C208.5 153.7 202.8 159.9 198.1 167.1C197.7 167.7 199.6 171.2 200.2 171.6C204 173.9 208.3 174.1 212.6 173.6C217.9 173 223.2 171.8 228.5 170.9C239.6 168.9 250.8 166.9 261.9 165C284.3 161 306.8 157 329.2 153C374.1 145 418.9 137 463.8 129C489 124.5 514.1 120 539.3 115.5C539.3 115.5 538 110.8 537.1 111C492.6 118.9 448 126.9 403.5 134.8C359 142.7 314.4 150.7 269.9 158.6C257.3 160.8 244.7 163.1 232.1 165.3C226 166.4 220 167.5 213.9 168.5C208.6 169.4 203 170.1 198.2 167.2C198.9 168.7 199.6 170.2 200.3 171.7C204.9 164.6 210.7 158.3 217.5 153.1C217.9 152.8 215.8 148.5 215.3 148.6C170.9 157.3 126.4 166.1 82 174.8C69.4 177.3 56.9 179.7 44.3 182.2C44.3 182.1 45.7 186.8 46.5 186.6Z" fill="white"/>
</g>
<mask id="mask3_201_687" style="mask-type:luminance" maskUnits="userSpaceOnUse" x="51" y="51" width="398" height="398">
<path d="M250 448.5C359.629 448.5 448.5 359.629 448.5 250C448.5 140.371 359.629 51.5 250 51.5C140.371 51.5 51.5 140.371 51.5 250C51.5 359.629 140.371 448.5 250 448.5Z" fill="white"/>
</mask>
<g mask="url(#mask3_201_687)">
<path d="M65.7 143.5C94.8 139.2 123.8 134.1 152.7 128.2C152.2 127.2 151.8 126.2 151.3 125.2C144.9 129 139.7 134.2 135.8 140.5C135.2 141.5 135.7 142.5 136.8 142.7C148.7 144.8 160.9 144.2 172.8 142.7C185 141.1 197 139 209.1 137C233.6 133 258 129.1 282.5 125.1C296.4 122.8 310.3 120.6 324.2 118.3C323.9 117.2 323.7 116.1 323.4 115C310.8 121.9 298.9 130 287.9 139.2C286.7 140.2 286.3 141.8 288.1 142.3C295.9 144.4 304 142.7 311.8 141.4C320.5 139.9 329.2 138.5 338 137.1C355.4 134.3 372.9 131.8 390.3 129.5C425.2 124.9 460.2 121.2 495.2 118.3C515.1 116.7 534.9 115.4 554.8 114.3C557.2 114.2 559.1 110.4 555.9 110.6C520.9 112.4 486 115.1 451.2 118.7C416.6 122.3 382.2 126.7 347.8 132C338.1 133.5 328.4 135 318.8 136.7C309.6 138.2 299.6 141.2 290.3 138.7C290.4 139.7 290.4 140.7 290.5 141.8C301.2 132.9 312.6 124.9 324.8 118.2C327 117 326.9 114.4 324 114.9C300 118.8 276 122.7 252.1 126.6C227.9 130.5 203.8 134.7 179.5 138.3C166.1 140.3 152.4 141.5 138.9 139.2C139.2 139.9 139.6 140.7 139.9 141.4C143.4 135.7 148 131.2 153.7 127.8C155.8 126.5 154.4 124.4 152.3 124.8C123.9 130.6 95.3 135.7 66.6 139.9C65.5 140.1 64 140.6 63.8 141.9C63.7 142.9 64.7 143.7 65.7 143.5Z" fill="white"/>
</g>
<mask id="mask4_201_687" style="mask-type:luminance" maskUnits="userSpaceOnUse" x="51" y="51" width="398" height="398">
<path d="M250 448.5C359.629 448.5 448.5 359.629 448.5 250C448.5 140.371 359.629 51.5 250 51.5C140.371 51.5 51.5 140.371 51.5 250C51.5 359.629 140.371 448.5 250 448.5Z" fill="white"/>
</mask>
<g mask="url(#mask4_201_687)">
<path d="M81.4 122.6C111.6 118.5 141.8 114.4 172 110.3C180.5 109.1 189.1 108 197.6 106.8C196.8 105.6 196.1 104.4 195.3 103.1C189.7 107.3 185.1 112.5 181.8 118.7C181.1 120.1 183 121.4 184.1 121.6C197.2 123.5 210.4 120.3 223.2 118.2C236.5 116 249.8 113.9 263.1 111.8C289.8 107.7 316.4 103.9 343.2 100.4C358.2 98.3999 373.3 96.4999 388.3 94.7999C387.5 93.5999 386.8 92.3999 386 91.0999C374.6 98.3999 363.7 106.2 353.1 114.6C351.7 115.7 352.5 117.6 354.1 118.1C359.6 119.9 365.3 119.7 370.9 118.7C376.9 117.7 382.9 116.5 388.9 115.4C401.1 113.1 413.3 110.9 425.5 108.6C432.5 107.3 439.5 106 446.4 104.7C447.6 104.5 447.9 103.1 447.4 102.2C446.7 101.1 445.3 100.7 444.1 100.9C429.1 103.7 414 106.5 399 109.3C391.5 110.7 384.1 112.1 376.6 113.5C369.8 114.8 362.3 116.7 355.4 114.5C355.7 115.7 356.1 116.8 356.4 118C367 109.6 378 101.8 389.3 94.4999C391.4 93.0999 388.8 90.5999 387 90.7999C360.5 93.9999 334 97.3999 307.5 101.1C280.9 104.8 254.4 108.9 227.9 113.2C220.6 114.4 213.3 115.7 206 116.8C198.7 117.9 191.3 118.7 184 117.6C184.8 118.6 185.5 119.5 186.3 120.5C189.3 115 193.5 110.2 198.5 106.5C200.4 105.1 198.1 102.6 196.2 102.8C166 106.9 135.8 111 105.6 115.1C97.1 116.3 88.5 117.4 80 118.6C77 119.1 78.7 123 81.4 122.6Z" fill="white"/>
</g>
<mask id="mask5_201_687" style="mask-type:luminance" maskUnits="userSpaceOnUse" x="51" y="51" width="398" height="398">
<path d="M250 448.5C359.629 448.5 448.5 359.629 448.5 250C448.5 140.371 359.629 51.5 250 51.5C140.371 51.5 51.5 140.371 51.5 250C51.5 359.629 140.371 448.5 250 448.5Z" fill="white"/>
</mask>
<g mask="url(#mask5_201_687)">
<path d="M109.3 96.5001C143.8 95.0001 178.3 93.0001 212.7 90.4001C222.3 89.7001 232 88.9001 241.6 88.1001C240.8 86.7001 240.1 85.4001 239.3 84.0001C231.6 86.4001 224.6 90.9001 219.3 97.0001C218.2 98.2001 220.2 100.6 221.4 100.8C228.8 102.4 236.1 101.4 243.5 100.3C251.1 99.2001 258.8 98.1001 266.4 97.0001C281.8 94.8001 297.2 92.6001 312.6 90.3001C343.2 85.9001 373.8 81.5001 404.3 77.1001C421.6 74.6001 439 72.1001 456.3 69.6001C457.5 69.4001 456.8 67.7001 456.4 67.1001C455.8 66.2001 454.7 65.3001 453.6 65.5001C423.3 69.9001 392.9 74.3001 362.6 78.6001C332.3 83.0001 301.9 87.4001 271.6 91.7001C263.2 92.9001 254.7 94.1001 246.3 95.4001C237.9 96.6001 229 98.6001 220.5 96.8001C221.2 98.1001 221.9 99.4001 222.6 100.6C227.8 94.7001 234.4 90.4001 242 88.0001C244 87.4001 241.2 83.8001 239.7 83.9001C205.3 86.8001 170.8 89.2001 136.3 91.0001C126.6 91.5001 117 91.9001 107.3 92.4001C105 92.5001 107.5 96.6001 109.3 96.5001Z" fill="white"/>
</g>
<mask id="mask6_201_687" style="mask-type:luminance" maskUnits="userSpaceOnUse" x="51" y="51" width="398" height="398">
<path d="M250 448.5C359.629 448.5 448.5 359.629 448.5 250C448.5 140.371 359.629 51.5 250 51.5C140.371 51.5 51.5 140.371 51.5 250C51.5 359.629 140.371 448.5 250 448.5Z" fill="white"/>
</mask>
<g mask="url(#mask6_201_687)">
<path d="M37.5 269.2C88.1 260.7 138.9 253.1 189.8 246.5C204.2 244.6 218.6 242.8 233 241.1C232.8 240.8 232.5 240.6 232.3 240.3C229.2 242 225.9 244.4 224.2 247.7C222.6 250.9 223.7 254.2 227.2 255.4C229.1 256.1 231.3 256.1 233.3 256.2C236 256.3 238.7 256.4 241.4 256.5C246.9 256.7 252.3 256.7 257.8 256.8C279.6 256.9 301.4 256.1 323.2 254.6C366.8 251.6 410.2 245.8 453.4 239C477.9 235.1 502.3 231 526.7 226.8C527.4 226.7 529.6 226.4 529.9 225.7C530.2 225 529.6 225 528.8 225.2C487.2 232.3 445.7 239.4 403.9 245C362.1 250.5 320 254.4 277.8 255.1C265.7 255.3 253.7 255.2 241.6 254.8C237.7 254.7 229.6 255.7 228.3 250.6C227.2 246.2 232.6 242.1 235.9 240.3C237.2 239.6 235.9 239.4 235.2 239.5C184.2 245.6 133.4 252.6 82.7 260.6C68.4 262.9 54 265.2 39.7 267.6C39 267.7 36.8 268 36.5 268.7C36.1 269.3 36.7 269.3 37.5 269.2Z" fill="white"/>
</g>
<mask id="mask7_201_687" style="mask-type:luminance" maskUnits="userSpaceOnUse" x="51" y="51" width="398" height="398">
<path d="M250 448.5C359.629 448.5 448.5 359.629 448.5 250C448.5 140.371 359.629 51.5 250 51.5C140.371 51.5 51.5 140.371 51.5 250C51.5 359.629 140.371 448.5 250 448.5Z" fill="white"/>
</mask>
<g mask="url(#mask7_201_687)">
<path d="M42.6 298.8C81.7 292.2 120.7 285.6 159.8 279C170.9 277.1 182 275.3 193 273.4C191.9 272.2 190.8 270.9 189.8 269.7C183.9 274.2 179.1 279.8 175.4 286.3C174.9 287.2 177.8 289.9 178.6 290C187.3 291.6 196 290.8 204.6 289.5C213.7 288.2 222.7 286.8 231.8 285.4C250.3 282.6 268.8 279.9 287.3 277.1C297.7 275.5 308.2 274 318.6 272.4C317.5 271.2 316.4 269.9 315.4 268.7C313 273.4 310.5 278 308.1 282.7C306.4 286.1 306.7 288.6 309.3 291.3C314.8 297.1 323.7 293.1 330.2 291.6C351.9 286.6 373.6 281.8 395.4 277.4C438.4 268.6 481.6 260.9 525 254.3C549.6 250.6 574.2 247.2 598.8 244.2C599.3 244.1 596.9 240.3 595.7 240.5C554.7 245.5 513.7 251.5 473 258.5C432.5 265.4 392.3 273.4 352.2 282.2C341 284.7 329.9 287.2 318.8 289.8C316.7 290.3 314.6 290.7 312.5 290.6C311.6 290.5 310.8 290.2 309.9 290.1C309.8 290 309.6 290 309.5 289.9C310.2 290.6 310.5 290.6 310.3 289.9C310.6 289.4 310.6 288.1 310.9 287.5C313 282.3 316.2 277.3 318.8 272.3C319.2 271.5 316.4 268.5 315.6 268.6C278.8 274.1 242 279.6 205.2 285.1C195.4 286.6 185.4 287.9 175.5 286.1C176.6 287.3 177.7 288.6 178.7 289.8C182.3 283.3 187.2 277.7 193.1 273.2C193.7 272.7 190.6 269.4 189.9 269.5C150.8 276.1 111.8 282.7 72.7 289.3C61.6 291.2 50.5 293 39.5 294.9C39 295.2 41.4 299 42.6 298.8Z" fill="white"/>
</g>
<mask id="mask8_201_687" style="mask-type:luminance" maskUnits="userSpaceOnUse" x="51" y="51" width="398" height="398">
<path d="M250 448.5C359.629 448.5 448.5 359.629 448.5 250C448.5 140.371 359.629 51.5 250 51.5C140.371 51.5 51.5 140.371 51.5 250C51.5 359.629 140.371 448.5 250 448.5Z" fill="white"/>
</mask>
<g mask="url(#mask8_201_687)">
<path d="M38.3 340.4C73.1 334.8 107.4 326.9 141.1 316.7C150.8 313.8 160.4 310.7 169.9 307.4C168.7 306.2 167.5 305.1 166.4 303.9C162.9 308.7 159.3 313.6 155.8 318.4C155.2 319.2 158.4 322 159.2 322C169.8 322.2 180.2 319 190.4 316.3C201.1 313.5 211.9 310.8 222.6 308C243.9 302.5 265.2 297 286.5 291.5C285.4 290.3 284.3 289.1 283.1 287.9C274.7 299.3 268.3 311.9 264.1 325.4C263.8 326.4 266.5 329 267.5 329C288.2 327.7 308.4 321.6 328.5 316.7C349.2 311.7 369.9 306.6 390.6 301.6C432 291.5 473.3 281.4 514.7 271.3C538 265.6 561.4 259.9 584.7 254.2C585.4 254 582.6 250.3 581.5 250.6C540.1 260.7 498.8 270.8 457.4 280.9C416 291 374.7 301.1 333.3 311.2C321.7 314 310.1 316.9 298.5 319.7C287.3 322.4 275.9 324.8 264.3 325.5C265.4 326.7 266.5 327.9 267.7 329.1C272 315.6 278.4 303 286.7 291.6C287.2 290.9 284.1 287.8 283.3 288C262 293.5 240.7 299 219.4 304.5C208.8 307.2 198.3 309.9 187.7 312.7C177.3 315.4 166.8 318.7 156 318.5C157.1 319.7 158.2 320.9 159.4 322.1C162.9 317.3 166.5 312.4 170 307.6C170.6 306.8 167.3 303.8 166.5 304.1C133.2 315.5 99.1 324.8 64.5 331.7C54.8 333.6 45 335.4 35.2 337C34.5 336.9 37.1 340.6 38.3 340.4Z" fill="white"/>
</g>
<mask id="mask9_201_687" style="mask-type:luminance" maskUnits="userSpaceOnUse" x="51" y="51" width="398" height="398">
<path d="M250 448.5C359.629 448.5 448.5 359.629 448.5 250C448.5 140.371 359.629 51.5 250 51.5C140.371 51.5 51.5 140.371 51.5 250C51.5 359.629 140.371 448.5 250 448.5Z" fill="white"/>
</mask>
<g mask="url(#mask9_201_687)">
<path d="M41.4 369.6C78.4 362.5 115.4 354.9 152.2 346.9C151.9 346.6 151.5 346.3 151.2 346C148.6 348.7 146.7 351.9 145.8 355.5C145.8 355.7 145.8 355.8 146 355.9C151.7 359.8 159.2 356.7 165 354.8C173.2 352.1 181.4 349.4 189.6 346.7C206 341.3 222.4 335.9 238.8 330.5C248 327.5 257.3 324.4 266.5 321.4C266.1 321.2 265.6 321 265.2 320.8C256.8 332.7 248.4 344.7 240 356.6C239.7 357 239.9 357.3 240.4 357.3C258.4 358.1 275.9 352.4 293.1 347.8C311 342.9 329 338.1 346.9 333.2C382.9 323.4 419 313.6 455 303.8C475.4 298.3 495.7 292.7 516.1 287.2C516.9 287 518.8 286.3 519 285.4C519.2 284.5 518.5 284.6 517.7 284.8C482.1 294.5 446.6 304.1 411 313.8C375.4 323.5 339.9 333.1 304.3 342.8C294.4 345.5 284.5 348.3 274.5 350.8C264.5 353.3 254.3 355.1 243.9 354.7C244 354.9 244.1 355.2 244.3 355.4C252.7 343.5 261.1 331.5 269.5 319.6C270.1 318.7 268.6 318.8 268.2 319C234.4 330.1 200.6 341.3 166.7 352.4C162.7 353.7 158.4 355.6 154.1 355C153.3 354.9 151.8 354.6 151.1 354C150.3 353.3 150.8 352.3 151.2 351.3C152.1 349.1 153.4 347.2 155 345.4C156 344.3 154.8 344.3 154 344.5C117.4 352.5 80.8 360 44.1 367C43 367.2 41.6 367.7 40.9 368.6C40.4 369.2 40.4 369.8 41.4 369.6Z" fill="white"/>
</g>
<mask id="mask10_201_687" style="mask-type:luminance" maskUnits="userSpaceOnUse" x="51" y="51" width="398" height="398">
<path d="M250 448.5C359.629 448.5 448.5 359.629 448.5 250C448.5 140.371 359.629 51.5 250 51.5C140.371 51.5 51.5 140.371 51.5 250C51.5 359.629 140.371 448.5 250 448.5Z" fill="white"/>
</mask>
<g mask="url(#mask10_201_687)">
<path d="M93.8 389.5C107.9 387.2 121.8 383.9 135.5 379.7C135 379.3 134.5 378.8 134.1 378.4C133.1 380.2 132.2 382.1 131.2 383.9C130.9 384.6 130.8 385.1 131.6 385.3C136.6 386.5 141.6 384.9 146.4 383.3C152.1 381.4 157.8 379.5 163.4 377.5C174.6 373.7 185.8 369.9 197 366.1C196.5 365.7 196 365.2 195.6 364.8C193.8 367.5 192.1 370.2 190.5 373.1C189.2 375.6 187.2 378.5 186.8 381.3C185.7 387.9 196.1 384.7 199.4 384.2C213.5 382.2 227.5 380.1 241.5 377.9C269.3 373.4 297 368.3 324.5 362C378 349.7 430.4 333.5 483.8 320.9C513.8 313.8 544.1 308 574.7 304.7C575.8 304.6 577.2 303.8 577.7 302.8C578.1 301.9 577.9 301.3 576.8 301.4C523.9 307.1 472.3 320.4 421.1 334.2C395.2 341.2 369.3 348.3 343.3 354.7C316.6 361.2 289.8 366.7 262.7 371.4C247.5 374 232.2 376.4 216.9 378.7C213 379.3 209.1 379.8 205.2 380.4C201.5 380.9 197.7 381.8 193.9 382C188.6 382.3 192.2 376.7 193.5 374.2C195.3 370.8 197.3 367.5 199.4 364.3C200.2 363.1 199 362.7 198 363C187.4 366.6 176.8 370.2 166.2 373.8C161 375.6 155.7 377.3 150.5 379.1C145.4 380.8 140 383.2 134.5 381.9C134.6 382.4 134.8 382.8 134.9 383.3C135.9 381.5 136.8 379.6 137.8 377.8C138.4 376.6 137.5 376.2 136.4 376.5C123.1 380.6 109.5 383.8 95.8 386C94.7 386.2 93.3 386.9 92.8 387.9C92.5 389 92.7 389.7 93.8 389.5Z" fill="white"/>
</g>
<mask id="mask11_201_687" style="mask-type:luminance" maskUnits="userSpaceOnUse" x="51" y="51" width="398" height="398">
<path d="M250 448.5C359.629 448.5 448.5 359.629 448.5 250C448.5 140.371 359.629 51.5 250 51.5C140.371 51.5 51.5 140.371 51.5 250C51.5 359.629 140.371 448.5 250 448.5Z" fill="white"/>
</mask>
<g mask="url(#mask11_201_687)">
<path d="M116.6 413.5C156.2 407.4 196 401.7 235.7 396.5C247.1 395 258.4 393.6 269.8 392.2C269.1 391.6 268.4 391 267.7 390.4C266.3 393.4 264.9 396.3 263.5 399.3C263.1 400.1 263.6 400.8 264.4 401C268.4 402.3 272.6 402.1 276.8 401.3C281.5 400.5 286.1 399.4 290.7 398.5C300.2 396.5 309.6 394.6 319.1 392.6C337.9 388.7 356.7 384.6 375.4 380.5C412.8 372.1 450.2 363.2 487.1 352.9C508 347.1 528.8 340.9 549.5 334.2C550.4 333.9 551.8 333.1 551.5 332C551.2 330.9 549.5 330.9 548.7 331.2C512.7 342.8 476.3 353 439.6 362.1C402.9 371.3 366 379.5 329 387.3C318.6 389.5 308.2 391.7 297.7 393.8C292.6 394.9 287.6 395.9 282.5 396.9C277.5 397.9 272.3 399.4 267.3 397.8C267.6 398.4 267.9 399 268.2 399.5C269.6 396.5 271 393.6 272.4 390.6C273 389.2 271.4 388.6 270.3 388.8C230.5 393.7 190.7 399.1 151 404.9C139.7 406.6 128.3 408.3 117 410C116 410.2 114.4 410.7 114.3 411.9C114.3 413.3 115.7 413.7 116.6 413.5Z" fill="white"/>
</g>
<mask id="mask12_201_687" style="mask-type:luminance" maskUnits="userSpaceOnUse" x="51" y="51" width="398" height="398">
<path d="M250 448.5C359.629 448.5 448.5 359.629 448.5 250C448.5 140.371 359.629 51.5 250 51.5C140.371 51.5 51.5 140.371 51.5 250C51.5 359.629 140.371 448.5 250 448.5Z" fill="white"/>
</mask>
<g mask="url(#mask12_201_687)">
<path d="M151 438.1C180.7 434.1 210.2 429.4 239.6 423.8C248 422.2 256.5 420.5 264.9 418.8C263.8 417.8 262.7 416.8 261.6 415.8C258.1 419.3 255.7 423.8 254.7 428.7C254.4 430.4 256.3 431.3 257.7 431.4C276.7 432.5 295.1 427.3 313.4 422.8C332.2 418.2 351 413.8 369.9 409.6C407.4 401.3 445.1 393.8 482.9 387.2C504.4 383.4 525.9 380 547.5 376.7C548.6 376.5 548.9 375.4 548.3 374.6C547.6 373.6 546.2 373.1 545 373.3C507 379 469.1 385.5 431.4 392.8C393.7 400.1 356.2 408.3 318.8 417.3C298.4 422.2 277.5 429 256.3 427.7C257.3 428.6 258.3 429.5 259.3 430.4C260.2 425.7 262.3 421.6 265.7 418.2C267.3 416.6 263.6 415 262.4 415.2C233.1 421.2 203.6 426.5 174 430.9C165.5 432.2 157 433.4 148.5 434.5C147.4 434.7 147.1 435.8 147.7 436.6C148.3 437.9 149.8 438.3 151 438.1Z" fill="white"/>
</g>
<mask id="mask13_201_687" style="mask-type:luminance" maskUnits="userSpaceOnUse" x="51" y="51" width="398" height="398">
<path d="M250 448.5C359.629 448.5 448.5 359.629 448.5 250C448.5 140.371 359.629 51.5 250 51.5C140.371 51.5 51.5 140.371 51.5 250C51.5 359.629 140.371 448.5 250 448.5Z" fill="white"/>
</mask>
<g mask="url(#mask13_201_687)">
<path d="M154.5 73.6C184.9 73.5 215.3 73.4 245.7 73.3C254.3 73.3 262.9 73.3 271.4 73.2C271 72.1 270.7 71.1 270.3 70C268.1 71.5 266.6 74 266.2 76.6C266.1 77.2 266.4 78 267.1 78.2C275.1 80.5 283.5 77.8 291.4 76.3C299.8 74.7 308.2 73.2 316.6 71.8C333.3 69 350 66.6 366.8 64.7C376.3 63.6 385.9 62.6 395.4 61.8C396.6 61.7 397.9 60.8 398.1 59.6C398.3 58.4 397.2 57.7 396.1 57.8C379.4 59.3 362.8 61.1 346.2 63.4C329.7 65.7 313.3 68.4 296.9 71.4C292.3 72.3 287.8 73.2 283.2 74.1C278.9 74.9 274.3 75.8 270 74.6C270.3 75.1 270.6 75.7 270.9 76.2C271.1 74.6 271.8 73.4 273.2 72.5C273.8 72 274.3 71.1 274 70.3C273.7 69.5 272.9 69.3 272.1 69.3C241.7 69.4 211.3 69.5 180.9 69.6C172.3 69.6 163.7 69.6 155.2 69.7C152.6 69.6 151.2 73.6 154.5 73.6Z" fill="white"/>
</g>
<mask id="mask14_201_687" style="mask-type:luminance" maskUnits="userSpaceOnUse" x="51" y="51" width="398" height="398">
<path d="M250 448.5C359.629 448.5 448.5 359.629 448.5 250C448.5 140.371 359.629 51.5 250 51.5C140.371 51.5 51.5 140.371 51.5 250C51.5 359.629 140.371 448.5 250 448.5Z" fill="white"/>
</mask>
<g mask="url(#mask14_201_687)">
<path d="M211.4 46.8001C214.9 49.5001 219 50.8001 223.3 51.4001C227.9 52.1001 232.5 52.4001 237.1 52.7001C246.9 53.5001 256.6 54.0001 266.4 54.2001C285.9 54.7001 305.4 54.0001 324.8 52.3001C335.7 51.3001 346.6 50.0001 357.5 48.3001C358.6 48.1001 357.5 47.1001 357.1 46.8001C356.2 46.2001 354.9 45.8001 353.8 45.9001C335.3 48.7001 316.7 50.6001 298.1 51.4001C279.5 52.2001 260.9 52.0001 242.4 50.8001C237.2 50.5001 232 50.0001 226.8 49.5001C223 49.1001 218.3 49.1001 215.2 46.6001C214.3 45.9001 213 45.3001 211.9 45.4001C211 45.6001 210.6 46.2001 211.4 46.8001Z" fill="white"/>
</g>
</g>
<defs>
<clipPath id="clip0_201_687">
<rect width="500" height="500" fill="white"/>
</clipPath>
</defs>
</svg>
