<svg width="500" height="500" viewBox="0 0 500 500" fill="none" xmlns="http://www.w3.org/2000/svg">
<g clip-path="url(#clip0_201_677)">
<mask id="mask0_201_677" style="mask-type:luminance" maskUnits="userSpaceOnUse" x="51" y="51" width="398" height="398">
<path d="M250 448.5C359.629 448.5 448.5 359.629 448.5 250C448.5 140.371 359.629 51.5 250 51.5C140.371 51.5 51.5 140.371 51.5 250C51.5 359.629 140.371 448.5 250 448.5Z" fill="white"/>
</mask>
<g mask="url(#mask0_201_677)">
<path d="M112.8 13.1999C112.7 52.2999 112.7 91.4999 112.6 130.6C112.6 140.3 112.5 150 112.6 159.6C112.7 168.6 113.4 177.4 117.5 185.5C121.1 192.7 126.4 198.8 131.8 204.7C136.8 210.3 142.1 215.6 147.5 220.8C168.9 241.5 192.7 260.9 208.1 286.8C216.8 301.3 221.8 317.3 223.7 334.1C224.7 343.1 225 352.1 224.9 361.1C224.8 370.1 224.5 379.1 222.9 388C221.4 396.2 218.6 404.1 214.1 411.1C210.3 417 205.5 422.2 200.1 426.6C188.8 436 175.2 442.3 161.5 447.6C158.1 448.9 154.7 450.1 151.2 451.3C148.6 452.2 153.1 453.9 154.4 453.4C180.8 444.1 210.7 431.7 222.9 404.5C230.2 388.2 230 369.1 229.5 351.6C229 333.8 226.6 316 219.3 299.6C207.1 272.1 184.4 251.3 162.9 231C151.7 220.5 140.5 209.9 130.6 198.1C125 191.4 120.3 184.1 118.4 175.4C116.4 166.1 117.2 156.3 117.2 146.9C117.3 107.5 117.3 67.9999 117.4 28.5999C117.4 23.6999 117.4 18.6999 117.4 13.7999C117.7 12.2999 112.8 11.7999 112.8 13.1999Z" fill="white"/>
</g>
<mask id="mask1_201_677" style="mask-type:luminance" maskUnits="userSpaceOnUse" x="51" y="51" width="398" height="398">
<path d="M250 448.5C359.629 448.5 448.5 359.629 448.5 250C448.5 140.371 359.629 51.5 250 51.5C140.371 51.5 51.5 140.371 51.5 250C51.5 359.629 140.371 448.5 250 448.5Z" fill="white"/>
</mask>
<g mask="url(#mask1_201_677)">
<path d="M150.1 16.1C148.7 55.3 147.2 94.4 145.9 133.6C145.6 142.4 145.4 151.4 147.5 160.1C149.3 167.7 153 174.7 157.7 180.9C167.2 193.5 180.1 203.1 191.4 214C214.4 236.2 234.4 261.9 247.3 291.3C259.4 318.8 264.2 349 258.9 378.8C254.1 406.2 240.8 432.9 219 450.7C216.3 452.9 213.5 454.9 210.7 456.8C209 457.9 212.9 461 214.3 460.1C237.8 444.6 253.4 419.9 260.6 393C268.3 364.6 266.5 334.6 257.1 306.8C246.8 276.5 228.6 249.4 206.9 226C201.5 220.1 195.8 214.4 190 209C184.1 203.5 178 198.3 172.2 192.7C166.6 187.4 161.3 181.6 157.3 174.9C152.7 167.2 150.6 158.6 150.2 149.7C149.7 140.3 150.4 130.8 150.8 121.3C151.1 111.5 151.5 101.7 151.8 91.9C152.5 72.2 153.2 52.4 153.9 32.7C154.1 27.9 154.2 23 154.4 18.2C154.6 16.5 150.2 14.3 150.1 16.1Z" fill="white"/>
</g>
<mask id="mask2_201_677" style="mask-type:luminance" maskUnits="userSpaceOnUse" x="51" y="51" width="398" height="398">
<path d="M250 448.5C359.629 448.5 448.5 359.629 448.5 250C448.5 140.371 359.629 51.5 250 51.5C140.371 51.5 51.5 140.371 51.5 250C51.5 359.629 140.371 448.5 250 448.5Z" fill="white"/>
</mask>
<g mask="url(#mask2_201_677)">
<path d="M177.1 37.9C176.4 55.7 175.9 73.5 175.7 91.2C175.6 100.1 175.6 109 175.6 117.9C175.6 126.5 175.3 135.2 176.1 143.7C176.8 151.2 179.6 157.6 184.7 163.3C189.6 168.7 195.5 173.2 200.9 178.1C212.4 188.4 223.1 199.6 233 211.4C253.2 235.4 270.8 262.5 282.9 291.6C289.5 307.5 293.5 324.2 295.5 341.3C297.5 358.2 298.4 375.4 297.9 392.4C297 422.9 289.6 454.9 267.8 477.5C265.3 480.1 262.7 482.5 259.9 484.7C259.2 485.3 262.5 489 263.4 488.2C287.1 469.2 297.8 439 300.6 409.6C302.3 392.5 301.6 375.1 300.3 358C299 341.3 296.7 324.5 291.6 308.5C286.6 292.9 279.4 278.1 271.3 263.9C263.7 250.5 255.2 237.6 245.9 225.3C236.7 213.1 226.7 201.6 215.9 190.7C210.5 185.3 205 180 199.3 174.9C193.8 170 187.2 165.5 183.3 159.2C178.8 152 179.3 143 179.2 134.9C179.1 125.9 179.1 116.8 179.1 107.8C179.2 90 179.5 72.2 180.1 54.5C180.2 50.1 180.4 45.6 180.6 41.2C180.6 40.3 179.4 39.2 178.8 38.7C178.8 38.3 177.1 37.1 177.1 37.9Z" fill="white"/>
</g>
<mask id="mask3_201_677" style="mask-type:luminance" maskUnits="userSpaceOnUse" x="51" y="51" width="398" height="398">
<path d="M250 448.5C359.629 448.5 448.5 359.629 448.5 250C448.5 140.371 359.629 51.5 250 51.5C140.371 51.5 51.5 140.371 51.5 250C51.5 359.629 140.371 448.5 250 448.5Z" fill="white"/>
</mask>
<g mask="url(#mask3_201_677)">
<path d="M208 39.2C207.9 56.7 207.9 74.3 207.8 91.8C207.8 100.5 207.7 109.2 207.7 117.9C207.7 125.2 207.4 132.8 209.5 139.9C211.6 147 216.4 152.1 222.4 156.2C228.5 160.3 234.6 164.1 240.1 169C251.2 179.1 260 191.3 268.5 203.6C286 229.1 302.2 255.8 313.8 284.6C324.9 312.1 331.7 341.3 331.2 371C330.7 399.1 323.8 427.5 308.6 451.3C306.7 454.3 304.7 457.1 302.6 459.9C300.9 462.1 305.1 464.9 306.8 462.6C323.9 439.9 332.9 412.2 335.3 384.1C337.8 354.8 333.1 325.5 323.6 297.8C313.5 268.3 298.3 240.8 281.4 214.8C273.1 202.1 264.6 189.3 254.7 177.8C249.8 172.1 244.5 166.7 238.6 162C233 157.5 226.4 154.3 220.9 149.6C215.1 144.5 213.1 137.6 212.7 130.2C212.2 121.9 212.6 113.6 212.6 105.3C212.7 87.8 212.7 70.2 212.8 52.7C212.8 48.3 212.8 44 212.9 39.6C212.8 37 208 36.1 208 39.2Z" fill="white"/>
</g>
<mask id="mask4_201_677" style="mask-type:luminance" maskUnits="userSpaceOnUse" x="51" y="51" width="398" height="398">
<path d="M250 448.5C359.629 448.5 448.5 359.629 448.5 250C448.5 140.371 359.629 51.5 250 51.5C140.371 51.5 51.5 140.371 51.5 250C51.5 359.629 140.371 448.5 250 448.5Z" fill="white"/>
</mask>
<g mask="url(#mask4_201_677)">
<path d="M238.3 31.7C238.1 47.9 238 64.1 237.8 80.3C237.7 88.2 237.6 96.2 237.6 104.1C237.6 111 238.3 117.9 241.7 124C244.9 129.6 249.4 134.3 254.3 138.6C259.8 143.4 265.2 148.2 270.3 153.3C280.7 163.7 290.1 175.1 299 186.8C307.8 198.4 316.2 210.3 324.4 222.3C332.6 234.3 340.5 246.6 347.1 259.7C353.5 272.5 358.7 286.1 361.3 300.2C364.2 315.5 364 331.3 363.4 346.8C362.3 375.2 358.9 404.3 346.7 430.4C345.2 433.6 343.6 436.7 341.8 439.8C341.3 440.7 344.9 443.6 344.8 443.8C358.9 419 363.9 390.5 365.8 362.3C366.8 347.2 367.4 331.8 366 316.7C364.7 302.1 360.9 288 355.3 274.6C344.2 248.3 327.2 224.8 310.7 201.7C293.8 178.2 275.7 155.5 253.7 136.5C251 134.2 248.1 131.8 245.8 129C243.3 126.1 242.1 122.3 241.4 118.6C240 111.3 240.6 103.6 240.7 96.2C240.9 80 241 63.8 241.2 47.6C241.2 43.6 241.3 39.5 241.3 35.5C241.3 34.7 240.1 33.5 239.6 32.9C239.5 32.7 238.3 31.4 238.3 31.7Z" fill="white"/>
</g>
<mask id="mask5_201_677" style="mask-type:luminance" maskUnits="userSpaceOnUse" x="51" y="51" width="398" height="398">
<path d="M250 448.5C359.629 448.5 448.5 359.629 448.5 250C448.5 140.371 359.629 51.5 250 51.5C140.371 51.5 51.5 140.371 51.5 250C51.5 359.629 140.371 448.5 250 448.5Z" fill="white"/>
</mask>
<g mask="url(#mask5_201_677)">
<path d="M90.3999 106.2C90.5999 120.5 90.8999 134.7 91.0999 149C91.1999 156.2 91.2999 163.4 91.4999 170.6C91.5999 177.3 91.2999 184.2 92.0999 190.9C92.7999 197 95.4999 201.8 99.5999 206.3C103.6 210.8 108 214.9 112.1 219.4C120.5 228.6 128.3 238.2 135.5 248.3C149.8 268.3 161.8 290 171.1 312.7C176.1 325 180.3 337.8 182 351C183.4 362.3 182.7 373.7 179.5 384.7C173.7 405 160.3 423.2 142.4 434.5C140.2 435.9 137.9 437.2 135.5 438.4C135.2 438.5 138.2 442.1 139.4 441.5C158.4 432 173.2 415.1 180.9 395.3C184.8 385.4 186.8 374.8 186.7 364.1C186.6 350.9 183.4 337.9 179 325.5C170.8 302.2 159.2 280 145.5 259.4C138.7 249.1 131.3 239.3 123.4 229.9C119.4 225.2 115.3 220.6 111.1 216.1C107 211.8 102 207.7 98.8999 202.6C95.5999 197 95.7999 190.3 95.6999 184.1C95.5999 176.9 95.4999 169.7 95.2999 162.5C95.0999 148.2 94.7999 134 94.5999 119.7C94.4999 116.2 94.4999 112.6 94.3999 109.1C94.3999 108.2 92.8999 107.3 92.2999 106.8C91.9999 106.5 90.3999 105.4 90.3999 106.2Z" fill="white"/>
</g>
<mask id="mask6_201_677" style="mask-type:luminance" maskUnits="userSpaceOnUse" x="51" y="51" width="398" height="398">
<path d="M250 448.5C359.629 448.5 448.5 359.629 448.5 250C448.5 140.371 359.629 51.5 250 51.5C140.371 51.5 51.5 140.371 51.5 250C51.5 359.629 140.371 448.5 250 448.5Z" fill="white"/>
</mask>
<g mask="url(#mask6_201_677)">
<path d="M60.9 130.4C63.2 149.9 59.7 169.6 61.6 189.2C62.5 198.6 64.9 207.8 69.8 216C75 224.8 83 231.3 89.8 238.8C103.5 253.8 110.6 273.1 116.4 292.3C119.6 302.9 122.7 313.5 125.1 324.2C127.6 335.4 129.2 346.9 128.1 358.4C126.4 377.3 117.8 395.4 104.2 408.6C102.5 410.2 100.8 411.8 99 413.2C98.1 413.9 98.5 414.9 99.5 415.3C100.6 415.7 102.1 415.3 103 414.5C117.9 402.4 128.2 384.9 131.9 366.1C136.3 343.7 130 321.3 123.8 299.8C118.3 280.5 112.4 260.7 100.4 244.2C94.3 235.8 86.3 229.2 79.6 221.4C73.3 213.9 69.4 205.2 67.5 195.6C63.8 176.2 67.3 156.2 66.3 136.7C66.2 134.2 66 131.8 65.7 129.4C65.6 127.3 60.7 128.3 60.9 130.4Z" fill="white"/>
</g>
<mask id="mask7_201_677" style="mask-type:luminance" maskUnits="userSpaceOnUse" x="51" y="51" width="398" height="398">
<path d="M250 448.5C359.629 448.5 448.5 359.629 448.5 250C448.5 140.371 359.629 51.5 250 51.5C140.371 51.5 51.5 140.371 51.5 250C51.5 359.629 140.371 448.5 250 448.5Z" fill="white"/>
</mask>
<g mask="url(#mask7_201_677)">
<path d="M45.5 173.2C45.7 181.9 46.1 190.6 46.7 199.3C47 203.7 47.4 208.1 47.8 212.4C48.2 216.4 48.4 220.5 49.3 224.4C50.1 228.2 51.8 231.5 54.3 234.4C56.7 237.2 59.7 239.6 62.4 242.1C67.6 246.9 72.5 252.1 76.9 257.6C85.8 268.6 93.1 281 97.9 294.4C102.7 307.8 104.8 322.1 103.7 336.4C102.6 350.5 98.5 364.4 91.1 376.5C90.2 378 89.2 379.5 88.2 380.9C87.1 382.4 91.4 385 92.6 383.3C100.8 371.7 105.9 358 107.8 343.9C109.7 329.7 108.5 315.1 104.5 301.4C100.5 287.7 93.9 274.8 85.5 263.3C81.2 257.4 76.5 251.8 71.5 246.6C69 244 66.4 241.5 63.7 239.1C61.1 236.7 58.2 234.4 56.3 231.4C54.2 228.1 53.6 224.1 53.2 220.3C52.7 216.1 52.4 211.8 52 207.5C51.3 198.7 50.8 190 50.5 181.2C50.4 179 50.4 176.9 50.3 174.7C50.1 173 45.5 171.2 45.5 173.2Z" fill="white"/>
</g>
<mask id="mask8_201_677" style="mask-type:luminance" maskUnits="userSpaceOnUse" x="51" y="51" width="398" height="398">
<path d="M250 448.5C359.629 448.5 448.5 359.629 448.5 250C448.5 140.371 359.629 51.5 250 51.5C140.371 51.5 51.5 140.371 51.5 250C51.5 359.629 140.371 448.5 250 448.5Z" fill="white"/>
</mask>
<g mask="url(#mask8_201_677)">
<path d="M41.4998 221.3C40.7998 232.1 40.1998 243.7 45.2998 253.7C47.7998 258.7 51.5998 263.1 54.9998 267.5C58.3998 271.8 61.6998 276.2 64.7998 280.7C70.9998 289.5 76.5998 299 79.6998 309.3C82.2998 318 82.9998 327.2 81.1998 336.1C79.2998 345.9 74.3998 355 66.1998 360.8C65.1998 361.6 68.5998 365.1 69.9998 364.1C84.8998 353.4 88.4998 332.9 84.7998 315.9C82.4998 305.4 77.4998 295.7 71.7998 286.8C65.7998 277.5 58.5998 269 52.0998 260.1C48.3998 254.9 46.1998 249.3 45.3998 242.9C44.5998 236.6 44.9998 230.3 45.3998 224C45.4998 222.9 44.3998 221.9 43.5998 221.4C43.2998 221.2 41.4998 220.2 41.4998 221.3Z" fill="white"/>
</g>
<mask id="mask9_201_677" style="mask-type:luminance" maskUnits="userSpaceOnUse" x="51" y="51" width="398" height="398">
<path d="M250 448.5C359.629 448.5 448.5 359.629 448.5 250C448.5 140.371 359.629 51.5 250 51.5C140.371 51.5 51.5 140.371 51.5 250C51.5 359.629 140.371 448.5 250 448.5Z" fill="white"/>
</mask>
<g mask="url(#mask9_201_677)">
<path d="M36.8002 277.2C51.9002 285.2 57.3002 303 57.5002 319C57.6002 324.3 57.1002 329.7 56.6002 335C56.5002 335.9 61.5002 336.4 61.6002 335.6C62.4002 326.2 63.1002 316.7 61.4002 307.3C59.9002 299.2 56.7002 291.4 51.3002 285.2C48.5002 281.9 45.1002 279.2 41.2002 277.2C40.2002 276.7 38.9002 276.6 37.8002 276.6C37.4002 276.5 35.8002 276.7 36.8002 277.2Z" fill="white"/>
</g>
<mask id="mask10_201_677" style="mask-type:luminance" maskUnits="userSpaceOnUse" x="51" y="51" width="398" height="398">
<path d="M250 448.5C359.629 448.5 448.5 359.629 448.5 250C448.5 140.371 359.629 51.5 250 51.5C140.371 51.5 51.5 140.371 51.5 250C51.5 359.629 140.371 448.5 250 448.5Z" fill="white"/>
</mask>
<g mask="url(#mask10_201_677)">
<path d="M261.1 29.1999C265.4 58.4999 257.3 90.3999 272.9 117.3C276.7 123.8 281.4 129.7 286.2 135.4C291.3 141.5 296.5 147.7 301.6 153.9C312 166.7 322.2 179.8 332 193.2C350.4 218.4 368.1 244.3 378.4 273.9C387.7 300.7 391.6 329.2 390.2 357.5C388.8 386.1 381.9 414.4 369.6 440.2C368.1 443.3 366.5 446.4 364.9 449.5C364.6 450.1 366.6 449.8 366.8 449.8C367.5 449.7 369.3 449.4 369.7 448.7C383.1 423.8 391.3 396.2 394.2 368.1C397.1 339.7 394.6 310.7 386.7 283.3C382.7 269.5 377.3 256.2 370.6 243.5C363 229.2 353.9 215.7 344.5 202.5C334.9 189 324.9 175.8 314.7 162.8C309.5 156.3 304.3 149.8 298.9 143.4C294 137.5 288.9 131.8 284.3 125.6C279.7 119.5 275.7 113 273.1 105.9C270.6 98.9999 269.2 91.7999 268.5 84.4999C267 69.2999 268.2 54.0999 267.3 38.8999C267.1 35.1999 266.7 31.5999 266.2 27.9999C265.9 27.2999 261 28.1999 261.1 29.1999Z" fill="white"/>
</g>
<mask id="mask11_201_677" style="mask-type:luminance" maskUnits="userSpaceOnUse" x="51" y="51" width="398" height="398">
<path d="M250 448.5C359.629 448.5 448.5 359.629 448.5 250C448.5 140.371 359.629 51.5 250 51.5C140.371 51.5 51.5 140.371 51.5 250C51.5 359.629 140.371 448.5 250 448.5Z" fill="white"/>
</mask>
<g mask="url(#mask11_201_677)">
<path d="M284.6 44.2999C285.9 57.2999 285.6 70.3999 287.3 83.3999C288.1 89.6999 289.5 95.8999 291.7 101.8C294.1 108 297.6 113.6 301.8 118.7C310 128.9 319 138.4 327.4 148.3C335.8 158.3 344 168.4 351.8 178.8C367.1 199.3 380.8 221.2 390.5 244.9C395.4 256.9 399.2 269.2 401.7 281.9C404.5 296.1 405.7 310.5 406.6 324.9C408.2 350.9 407.6 378.2 397.3 402.5C396 405.6 394.5 408.6 392.9 411.5C392 413.2 396.6 412.1 397.3 410.9C410.1 387.6 412.5 360.6 411.7 334.5C410.9 307.1 408.1 279.4 399 253.3C390.5 229 377.5 206.5 362.7 185.5C347.7 164.4 330.9 144.6 313.8 125.2C309.2 119.9 304.4 114.7 300.8 108.7C297.4 103.2 295.2 97.0999 293.7 90.7999C290.7 78.0999 290.8 64.9999 290 51.9999C289.8 48.7999 289.6 45.5999 289.3 42.2999C289.2 41.3999 284.5 42.6999 284.6 44.2999Z" fill="white"/>
</g>
<mask id="mask12_201_677" style="mask-type:luminance" maskUnits="userSpaceOnUse" x="51" y="51" width="398" height="398">
<path d="M250 448.5C359.629 448.5 448.5 359.629 448.5 250C448.5 140.371 359.629 51.5 250 51.5C140.371 51.5 51.5 140.371 51.5 250C51.5 359.629 140.371 448.5 250 448.5Z" fill="white"/>
</mask>
<g mask="url(#mask12_201_677)">
<path d="M312.1 39.1001C312.8 52.5001 313.5 65.8001 314.2 79.2001C314.5 85.3001 314.3 91.8001 315.9 97.7001C317.4 103.1 321.2 107 325.5 110.5C334.1 117.5 342.5 124.6 350.4 132.5C358.2 140.3 365.5 148.5 372.2 157.2C385.8 174.6 397.2 193.8 406.1 214C415.8 236.3 422.4 259.9 425.7 283.9C429 308.4 429 333.4 425.4 357.9C425 361 424.4 364 423.9 367.1C423.6 368.7 428.6 369.4 428.9 367.8C433.3 343.4 434.3 318.5 431.8 293.8C429.4 269.4 423.6 245.4 414.6 222.6C406.5 202.1 395.8 182.7 383 164.8C370.1 146.9 355 130.6 338.1 116.4C333.9 112.9 329.2 109.7 325.5 105.7C321.2 101.1 320.1 95.5001 319.7 89.3001C318.9 76.1001 318.3 62.9001 317.6 49.6001C317.4 46.3001 317.2 42.9001 317.1 39.6001C317 38.0001 312 37.6001 312.1 39.1001Z" fill="white"/>
</g>
<mask id="mask13_201_677" style="mask-type:luminance" maskUnits="userSpaceOnUse" x="51" y="51" width="398" height="398">
<path d="M250 448.5C359.629 448.5 448.5 359.629 448.5 250C448.5 140.371 359.629 51.5 250 51.5C140.371 51.5 51.5 140.371 51.5 250C51.5 359.629 140.371 448.5 250 448.5Z" fill="white"/>
</mask>
<g mask="url(#mask13_201_677)">
<path d="M330.2 38.7C331.7 50.3 333.1 61.9 334.6 73.5C335.3 79.2 335.9 85 336.8 90.7C337.6 96 339.4 100.6 343.2 104.6C346.6 108.2 350.7 111.2 354.4 114.5C358.1 117.8 361.8 121.2 365.3 124.7C372.3 131.6 379 138.7 385.4 146.2C398.1 161.2 409.2 177.5 418.2 195C427.6 213.4 434.5 233 438.2 253.4C441.9 273.9 442.4 295.1 438.9 315.7C438.5 318.2 438 320.6 437.5 323.1C437.2 324.4 437.7 325.7 438.9 326.3C439.9 326.8 441.5 326.5 441.8 325.3C446.3 304.7 446.9 283.5 444.1 262.6C441.3 241.7 435.2 221.3 426.4 202.1C418.1 184 407.4 167 395.1 151.4C382.8 135.7 368.8 121.3 353.7 108.2C350.2 105.1 345.7 102.2 343.5 98C341.1 93.4 341 87.6 340.3 82.5C338.8 70.8 337.3 59.1 335.9 47.4C335.5 44.5 335.2 41.5 334.8 38.6C334.3 35.7 329.8 35.5 330.2 38.7Z" fill="white"/>
</g>
<mask id="mask14_201_677" style="mask-type:luminance" maskUnits="userSpaceOnUse" x="51" y="51" width="398" height="398">
<path d="M250 448.5C359.629 448.5 448.5 359.629 448.5 250C448.5 140.371 359.629 51.5 250 51.5C140.371 51.5 51.5 140.371 51.5 250C51.5 359.629 140.371 448.5 250 448.5Z" fill="white"/>
</mask>
<g mask="url(#mask14_201_677)">
<path d="M356.7 82.1001C369.7 91.2001 381.8 101.7 392.6 113.3C403.5 125 413.1 137.9 421.4 151.6C429.9 165.8 436.9 181 442.1 196.8C447.7 213.9 451.4 231.6 452.9 249.6C454.4 267.5 453.9 285.6 451.2 303.3C450.9 305.5 450.5 307.8 450.1 310C449.8 311.5 454 314 454.3 312.4C457.5 294.4 458.6 276.1 457.5 257.8C456.4 239.6 453.2 221.5 447.9 204.1C443 187.7 436.1 171.9 427.7 157C419.6 142.8 410 129.4 399.2 117.2C388.3 104.9 376.1 93.7001 362.9 83.9001C361.3 82.7001 359.6 81.5001 358 80.4001C357.5 80.0001 355.9 79.0001 355.3 79.8001C354.8 80.5001 356.2 81.7001 356.7 82.1001Z" fill="white"/>
</g>
</g>
<defs>
<clipPath id="clip0_201_677">
<rect width="500" height="500" fill="white"/>
</clipPath>
</defs>
</svg>
