<svg width="500" height="500" viewBox="0 0 500 500" fill="none" xmlns="http://www.w3.org/2000/svg">
<mask id="mask0_201_757" style="mask-type:luminance" maskUnits="userSpaceOnUse" x="51" y="51" width="398" height="398">
<path d="M250 448.5C359.629 448.5 448.5 359.629 448.5 250C448.5 140.371 359.629 51.5 250 51.5C140.371 51.5 51.5 140.371 51.5 250C51.5 359.629 140.371 448.5 250 448.5Z" fill="white"/>
</mask>
<g mask="url(#mask0_201_757)">
<path d="M105.2 16.2C121.1 35.7 140.4 52.3 162.1 65C184.3 78 208.9 86.8 234.4 90.5C259.7 94.2 285.9 92.8 310.4 85.5C331.9 79.1 352.1 68.3 369.2 53.8C386.1 39.6 399.9 21.8 408.9 1.49996C410 -1.00004 411 -3.50004 411.9 -6.00004C412.2 -6.90004 410.2 -6.50004 409.9 -6.50004C409 -6.30004 407.6 -5.80004 407.3 -4.80004C399.8 15.4 387.4 33.5 371.7 48.2C356.1 62.9 337.5 74.2 317.3 81.2C294.1 89.2 269 91.4 244.6 88.8C219.6 86.1 195.2 78.4 173.1 66.5C151.7 55 132.3 39.7 116 21.6C113.9 19.3 111.9 16.9 109.9 14.4C108.9 13.2 104.6 15.4 105.2 16.2Z" fill="white"/>
</g>
<mask id="mask1_201_757" style="mask-type:luminance" maskUnits="userSpaceOnUse" x="51" y="51" width="398" height="398">
<path d="M250 448.5C359.629 448.5 448.5 359.629 448.5 250C448.5 140.371 359.629 51.5 250 51.5C140.371 51.5 51.5 140.371 51.5 250C51.5 359.629 140.371 448.5 250 448.5Z" fill="white"/>
</mask>
<g mask="url(#mask1_201_757)">
<path d="M65 138.5C82.7 121.9 105.7 112.9 128.3 105.3C154 96.6998 179.9 88.1998 206.4 82.4998C219.9 79.5998 233.6 77.5998 247.4 76.8998C261.3 76.1998 275.1 76.9998 288.9 78.8998C303.1 80.8998 317.1 83.7998 331 86.8998C345 89.9998 359 93.0998 373.1 96.1998C385.4 98.9998 398 101.2 410.1 104.9C414.8 106.3 419.4 108.1 423.7 110.3C427.6 112.4 431.9 115.1 434.6 118.7C436 120.6 436.8 122.8 437.5 125C437.8 126 438.5 126.8 439.2 127.6C439.4 127.8 440.6 129 440.6 128.8C438 119.5 430.8 111.9 422.6 107.1C413.3 101.7 402.6 99.2998 392.2 96.9998C363.4 90.4998 334.5 83.4998 305.5 77.9998C291.4 75.2998 277.2 73.1998 262.8 72.5998C248.5 71.9998 234.2 73.0998 220 75.2998C191.6 79.6998 164.1 88.4998 136.8 97.3998C113.2 105 88.8 112.8 69 128.3C66.6 130.2 64.2 132.2 62 134.3C61.5 134.9 64.7 138.7 65 138.5Z" fill="white"/>
</g>
<mask id="mask2_201_757" style="mask-type:luminance" maskUnits="userSpaceOnUse" x="51" y="51" width="398" height="398">
<path d="M250 448.5C359.629 448.5 448.5 359.629 448.5 250C448.5 140.371 359.629 51.5 250 51.5C140.371 51.5 51.5 140.371 51.5 250C51.5 359.629 140.371 448.5 250 448.5Z" fill="white"/>
</mask>
<g mask="url(#mask2_201_757)">
<path d="M112.5 87.5998C132.1 97.3998 151.7 107.2 172 115.5C192.1 123.8 212.8 130.6 234.2 134.4C255.4 138.1 277.2 138.9 298.5 135.2C316.4 132.1 333.6 125.5 348.8 115.5C363.3 106 375.9 93.2998 384.4 78.1998C385.5 76.2998 386.5 74.3998 387.4 72.3998C388.4 70.3998 384.8 66.8998 383.7 69.1998C376.3 84.6998 364.8 97.7998 350.9 108C336.9 118.3 320.8 125.4 303.9 129.3C283.2 134.1 261.7 134.2 240.7 131.2C219.5 128.2 198.8 121.9 178.9 114.1C158.9 106.3 139.7 96.8998 120.5 87.2998C118.1 86.0998 115.8 84.8998 113.4 83.6998C112.4 83.1998 111.3 83.2998 110.9 84.4998C110.6 85.5998 111.5 87.0998 112.5 87.5998Z" fill="white"/>
</g>
<mask id="mask3_201_757" style="mask-type:luminance" maskUnits="userSpaceOnUse" x="51" y="51" width="398" height="398">
<path d="M250 448.5C359.629 448.5 448.5 359.629 448.5 250C448.5 140.371 359.629 51.5 250 51.5C140.371 51.5 51.5 140.371 51.5 250C51.5 359.629 140.371 448.5 250 448.5Z" fill="white"/>
</mask>
<g mask="url(#mask3_201_757)">
<path d="M44.1 157C66.3 144.5 90.3 136.1 114.7 129.2C140.1 121.9 165.9 115.2 192 110.9C205.2 108.7 218.5 107.3 231.9 107C245.4 106.7 258.8 107.6 272.2 109.1C298.7 112.1 325 117.4 351.2 122.6C377 127.6 402.7 133.4 427.5 142.2C430.5 143.3 433.6 144.4 436.6 145.6C438.1 146.2 441.8 143 440.2 142.3C415.6 132.7 389.8 126.4 364 121.1C337.6 115.7 311 110.5 284.3 106.8C270.7 105 257 103.7 243.3 103.5C229.9 103.3 216.6 104.3 203.4 106.1C176.8 109.7 150.6 116.4 124.8 123.5C100.1 130.2 75.5 138.1 52.6 149.7C49.7 151.2 46.8 152.7 44 154.3C43.3 154.7 41.7 155.7 41.9 156.7C42.1 157.8 43.5 157.3 44.1 157Z" fill="white"/>
</g>
<mask id="mask4_201_757" style="mask-type:luminance" maskUnits="userSpaceOnUse" x="51" y="51" width="398" height="398">
<path d="M250 448.5C359.629 448.5 448.5 359.629 448.5 250C448.5 140.371 359.629 51.5 250 51.5C140.371 51.5 51.5 140.371 51.5 250C51.5 359.629 140.371 448.5 250 448.5Z" fill="white"/>
</mask>
<g mask="url(#mask4_201_757)">
<path d="M67.8 119.2C89 130 111 139.1 133.7 146.4C156.3 153.7 179.5 159.1 202.9 162.7C226.5 166.3 250.6 168.4 274.5 167.1C297.1 165.8 319.7 161 339.7 150.1C357.1 140.6 372.4 126.9 381.9 109.3C383.1 107.2 384.1 104.9 385.1 102.7C385.5 101.7 385 101 384 101.1C382.9 101.1 381.5 102.1 381.1 103.1C373.5 120.7 359.7 134.8 343.4 144.7C324.9 156 303.5 161.3 282.1 163.1C258.6 165.1 234.9 163.2 211.6 160C188.7 156.8 166 151.9 143.8 145.1C121.6 138.4 99.9 129.9 79 119.8C76.4 118.6 73.9 117.3 71.3 116C69.7 115 65.9 118.3 67.8 119.2Z" fill="white"/>
</g>
<mask id="mask5_201_757" style="mask-type:luminance" maskUnits="userSpaceOnUse" x="51" y="51" width="398" height="398">
<path d="M250 448.5C359.629 448.5 448.5 359.629 448.5 250C448.5 140.371 359.629 51.5 250 51.5C140.371 51.5 51.5 140.371 51.5 250C51.5 359.629 140.371 448.5 250 448.5Z" fill="white"/>
</mask>
<g mask="url(#mask5_201_757)">
<path d="M53.3 178.7C74.2 164 99.5 158.4 124.2 154C152.3 148.9 180.6 145.3 209.1 143.2C223.6 142.1 238.1 141.4 252.6 141.1C266.6 140.8 280.7 140.9 294.6 142.4C308.5 143.8 322.1 147 335.3 151.6C348.4 156.2 361 161.9 373.6 167.6C399 178.9 424.3 190.3 448.7 203.6C451.8 205.3 454.9 207 458 208.8C458.6 209.1 460.4 210.2 461.1 209.5C461.8 208.8 460.7 207.9 460.1 207.6C435.5 193.5 409.7 181.5 383.8 169.9C358.2 158.4 332.5 145.9 304.6 141.3C276.4 136.6 247.2 137.9 218.8 139.6C189.6 141.3 160.6 144.6 131.8 149.4C106.3 153.6 79.7 158.2 57 171.2C54.3 172.8 51.7 174.5 49.1 176.3C48 177 52.1 179.6 53.3 178.7Z" fill="white"/>
</g>
<mask id="mask6_201_757" style="mask-type:luminance" maskUnits="userSpaceOnUse" x="51" y="51" width="398" height="398">
<path d="M250 448.5C359.629 448.5 448.5 359.629 448.5 250C448.5 140.371 359.629 51.5 250 51.5C140.371 51.5 51.5 140.371 51.5 250C51.5 359.629 140.371 448.5 250 448.5Z" fill="white"/>
</mask>
<g mask="url(#mask6_201_757)">
<path d="M22.4 168.9C49.5 181.2 77.8 190.8 106.8 197.4C135.8 204 165.4 207.8 195.1 208.7C224.9 209.6 254.8 207.7 284.2 202.8C313.6 198 342.6 190.3 370.5 179.7C395.4 170.2 421.3 158.2 438.5 137C440.6 134.4 442.6 131.7 444.3 128.8C444.7 128.1 442.7 128.2 442.4 128.2C441.6 128.3 439.9 128.4 439.4 129.2C425.1 152 400.8 165.5 376.5 175.4C349.8 186.4 321.9 194.4 293.5 199.7C264.9 205 235.8 207.5 206.7 207.2C177.6 206.9 148.5 203.8 120 197.9C91.7 192 63.9 183.5 37.3 172.2C33.9 170.7 30.4 169.2 27 167.7C26.1 167.3 24.9 167.5 23.9 167.7C23.8 167.9 21.7 168.6 22.4 168.9Z" fill="white"/>
</g>
<mask id="mask7_201_757" style="mask-type:luminance" maskUnits="userSpaceOnUse" x="51" y="51" width="398" height="398">
<path d="M250 448.5C359.629 448.5 448.5 359.629 448.5 250C448.5 140.371 359.629 51.5 250 51.5C140.371 51.5 51.5 140.371 51.5 250C51.5 359.629 140.371 448.5 250 448.5Z" fill="white"/>
</mask>
<g mask="url(#mask7_201_757)">
<path d="M31.5 223C52 203.4 79.1 192.3 106.8 187.4C139.4 181.6 172.9 184 205.7 187C238.7 190.1 271.7 194.3 304.5 199.4C335.4 204.2 365.8 211.1 393.5 226.2C419.5 240.4 442.4 259.7 464.4 279.4C467.1 281.8 469.8 284.2 472.5 286.7C473.7 287.8 478.4 287.6 476.3 285.7C453.9 265.5 431.1 245.3 405.1 229.6C391.9 221.7 378 215.1 363.5 210.2C348.2 205.1 332.4 201.6 316.6 198.8C283.3 193 249.6 188.7 215.9 185.3C182.4 181.9 148.2 178.9 114.7 183.2C86.2 186.9 57.8 196.2 35.1 214.3C32.3 216.5 29.7 218.8 27.1 221.3C25.7 222.5 30.2 224.2 31.5 223Z" fill="white"/>
</g>
<mask id="mask8_201_757" style="mask-type:luminance" maskUnits="userSpaceOnUse" x="51" y="51" width="398" height="398">
<path d="M250 448.5C359.629 448.5 448.5 359.629 448.5 250C448.5 140.371 359.629 51.5 250 51.5C140.371 51.5 51.5 140.371 51.5 250C51.5 359.629 140.371 448.5 250 448.5Z" fill="white"/>
</mask>
<g mask="url(#mask8_201_757)">
<path d="M15.3 235.7C43.7 248.5 74.2 255.7 105.1 259.5C136.3 263.3 167.8 263.7 199.2 263C232 262.3 265 261 297.5 255.9C327.4 251.3 356.8 243.3 384 229.8C408.8 217.5 431.5 200.8 449 179.2C451.1 176.6 453.1 173.9 455.1 171.2C455.9 170 451.5 167.8 450.5 169.3C434.6 191.6 413 209.3 389.1 222.5C363.5 236.7 335.4 245.5 306.7 250.9C274.6 256.9 242 258.7 209.4 259.7C178.3 260.6 147.1 260.8 116.1 257.9C85.6 255.1 55.2 249.2 26.7 237.9C23.2 236.5 19.7 235 16.3 233.5C15.7 233.2 13.9 232.7 13.5 233.6C13.1 234.5 14.7 235.4 15.3 235.7Z" fill="white"/>
</g>
<mask id="mask9_201_757" style="mask-type:luminance" maskUnits="userSpaceOnUse" x="51" y="51" width="398" height="398">
<path d="M250 448.5C359.629 448.5 448.5 359.629 448.5 250C448.5 140.371 359.629 51.5 250 51.5C140.371 51.5 51.5 140.371 51.5 250C51.5 359.629 140.371 448.5 250 448.5Z" fill="white"/>
</mask>
<g mask="url(#mask9_201_757)">
<path d="M25.8 251.8C47.7 230.9 78.4 225.4 107.5 223.9C142.3 222.2 177.5 224.1 212 228.6C247.4 233.2 282.5 240.9 316.3 252.3C346.9 262.5 376.5 275.7 404.4 291.9C432.1 308 458.2 327 481.7 348.8C484.6 351.5 487.5 354.3 490.3 357.1C491.2 358 495.5 356.2 494.9 355.6C471.4 332.4 445.1 312.2 416.9 295.1C388.8 278.1 358.9 264.1 327.9 253.2C293.5 241.1 257.9 232.7 221.8 227.7C186.5 222.8 150.5 220.7 114.9 222C85.7 223 54.2 227.4 30 245.1C27 247.3 24.2 249.7 21.5 252.2C20.7 252.9 22.2 252.9 22.6 252.9C23.5 252.8 25.1 252.5 25.8 251.8Z" fill="white"/>
</g>
<mask id="mask10_201_757" style="mask-type:luminance" maskUnits="userSpaceOnUse" x="51" y="51" width="398" height="398">
<path d="M250 448.5C359.629 448.5 448.5 359.629 448.5 250C448.5 140.371 359.629 51.5 250 51.5C140.371 51.5 51.5 140.371 51.5 250C51.5 359.629 140.371 448.5 250 448.5Z" fill="white"/>
</mask>
<g mask="url(#mask10_201_757)">
<path d="M47.7 293.7C76 302.6 105.6 306.5 135.2 307.4C165.2 308.2 195.3 306 225.1 302.7C255.3 299.4 285.5 295.5 315.2 289.1C343.2 283.1 370.8 274.7 396.6 262.2C420.5 250.7 442.8 235.8 461.6 217C464 214.6 466.3 212.2 468.5 209.7C469.3 208.8 469.1 207.3 468.1 206.7C467 206 465.5 206.6 464.7 207.5C447.2 226.9 425.8 242.4 402.6 254.5C377.8 267.4 351.1 276.3 324 282.7C294.9 289.6 265.2 293.6 235.5 297.1C206.1 300.6 176.5 303.2 146.9 303.1C117.7 303 88.4 300.1 60.1 292.5C56.6 291.6 53.1 290.5 49.7 289.4C47.1 288.7 44.7 292.7 47.7 293.7Z" fill="white"/>
</g>
<mask id="mask11_201_757" style="mask-type:luminance" maskUnits="userSpaceOnUse" x="51" y="51" width="398" height="398">
<path d="M250 448.5C359.629 448.5 448.5 359.629 448.5 250C448.5 140.371 359.629 51.5 250 51.5C140.371 51.5 51.5 140.371 51.5 250C51.5 359.629 140.371 448.5 250 448.5Z" fill="white"/>
</mask>
<g mask="url(#mask11_201_757)">
<path d="M-17.3 315.6C9.60004 299.2 40.6 291.8 71.7 288.2C105.1 284.3 139 283.9 172.5 284.6C207.1 285.4 241.7 288 276.1 292.6C310.7 297.2 345.1 303.8 379 312.2C410.2 320 442.2 328.6 469.9 345.6C473.3 347.7 476.5 349.9 479.7 352.2C480.7 352.9 482.3 352.5 482.8 351.4C483.4 350.1 482.5 348.9 481.6 348.2C455.3 329.2 423.8 319.3 392.7 311C358.7 302 324.2 294.9 289.4 289.8C254.5 284.6 219.3 281.4 184 280.2C149.7 279 115.1 279.3 81 282.5C49.9 285.3 18.5 291.2 -9.49996 305.5C-13.1 307.3 -16.5 309.3 -20 311.4C-22.6 313 -19.7 317 -17.3 315.6Z" fill="white"/>
</g>
<mask id="mask12_201_757" style="mask-type:luminance" maskUnits="userSpaceOnUse" x="51" y="51" width="398" height="398">
<path d="M250 448.5C359.629 448.5 448.5 359.629 448.5 250C448.5 140.371 359.629 51.5 250 51.5C140.371 51.5 51.5 140.371 51.5 250C51.5 359.629 140.371 448.5 250 448.5Z" fill="white"/>
</mask>
<g mask="url(#mask12_201_757)">
<path d="M47.5 342.3C76.7 348.5 106.2 352.7 135.9 355C165.5 357.3 195.2 357.7 224.8 356.1C253.4 354.6 282.3 351.8 310.2 345.1C336.8 338.8 361.9 328.4 384.7 313.4C406.8 298.9 426.4 281 444.5 261.8C446.7 259.5 448.9 257.1 451 254.7C451.9 253.7 448.2 250.4 447.3 251.4C429.7 270.7 410.8 289 389.5 304.3C367.4 320.1 343.1 331.7 317 339C289.6 346.6 261.2 349.9 232.9 351.9C203.3 353.9 173.5 354 143.9 352.2C114.3 350.4 84.8 346.6 55.7 340.9C52.1 340.2 48.6 339.5 45 338.7C43.9 338.5 44.5 339.8 44.8 340.3C45.3 341.2 46.4 342.1 47.5 342.3Z" fill="white"/>
</g>
<mask id="mask13_201_757" style="mask-type:luminance" maskUnits="userSpaceOnUse" x="51" y="51" width="398" height="398">
<path d="M250 448.5C359.629 448.5 448.5 359.629 448.5 250C448.5 140.371 359.629 51.5 250 51.5C140.371 51.5 51.5 140.371 51.5 250C51.5 359.629 140.371 448.5 250 448.5Z" fill="white"/>
</mask>
<g mask="url(#mask13_201_757)">
<path d="M63.2 376C79.5 355.8 103.4 343.4 128.2 336.9C158 329 189.2 329 219.8 328.5C251.4 328 283.1 328 314.6 330.5C344 332.8 373.4 337.3 401.8 345.3C428.7 352.9 455 363.7 478.7 378.7C481.6 380.6 484.5 382.5 487.4 384.4C487.8 384.7 489.5 385.8 489.9 385.2C490.3 384.6 488.6 383.4 488.3 383.1C464.9 367 439 354.8 412 346.1C384 337 354.9 331.6 325.7 328.6C293.7 325.3 261.5 324.8 229.3 325.1C198.1 325.4 166.3 325 135.6 331.2C109.9 336.3 84.3 346.9 65.6 365.8C63.3 368.1 61.1 370.6 59 373.1C58.5 374 62.5 377 63.2 376Z" fill="white"/>
</g>
<mask id="mask14_201_757" style="mask-type:luminance" maskUnits="userSpaceOnUse" x="51" y="51" width="398" height="398">
<path d="M250 448.5C359.629 448.5 448.5 359.629 448.5 250C448.5 140.371 359.629 51.5 250 51.5C140.371 51.5 51.5 140.371 51.5 250C51.5 359.629 140.371 448.5 250 448.5Z" fill="white"/>
</mask>
<g mask="url(#mask14_201_757)">
<path d="M86.4 413.1C113.2 414.5 140.1 414.8 166.9 413.9C193.7 413 220.5 411.1 247.2 408C272 405.1 297.1 401.7 320.9 393.9C343.3 386.6 363.5 374.8 381.7 359.9C399.6 345.3 415.4 328.4 430.9 311.4C432.8 309.3 434.7 307.2 436.7 305C438 303.6 434.4 300.1 433.1 301.5C417.7 318.5 402.2 335.6 384.9 350.6C367.4 365.8 348.1 378.7 326.3 386.9C303.1 395.7 278.4 399.8 253.9 402.8C227.4 406.1 200.7 408.3 174 409.5C147.4 410.6 120.8 410.6 94.2 409.5C90.9 409.4 87.5 409.2 84.2 409C83 408.9 83.2 410.2 83.5 410.9C84.1 412 85.2 413 86.4 413.1Z" fill="white"/>
</g>
<mask id="mask15_201_757" style="mask-type:luminance" maskUnits="userSpaceOnUse" x="51" y="51" width="398" height="398">
<path d="M250 448.5C359.629 448.5 448.5 359.629 448.5 250C448.5 140.371 359.629 51.5 250 51.5C140.371 51.5 51.5 140.371 51.5 250C51.5 359.629 140.371 448.5 250 448.5Z" fill="white"/>
</mask>
<g mask="url(#mask15_201_757)">
<path d="M100.8 442.4C114.7 422 138 410.7 160.6 402.7C187.3 393.3 215.4 388.2 243.2 383.7C272.1 379 301.4 375.6 330.7 375.1C358.2 374.6 385.7 376.5 412.7 382C438.6 387.3 463.9 395.8 487.3 408.3C490.2 409.9 493.1 411.5 495.9 413.2C498 414.4 501.6 411.2 499.1 409.7C475.9 396 450.4 386.3 424.2 380.1C397.1 373.7 369.3 371 341.5 370.9C311.6 370.8 281.8 373.8 252.3 378.3C223.6 382.6 194.7 387.7 167 396.5C143.2 404.1 118.5 414.8 101.9 434.3C100 436.5 98.2 438.9 96.6 441.3C95.9 442.3 96.6 443.5 97.7 443.8C98.8 444.2 100.1 443.4 100.8 442.4Z" fill="white"/>
</g>
<mask id="mask16_201_757" style="mask-type:luminance" maskUnits="userSpaceOnUse" x="51" y="51" width="398" height="398">
<path d="M250 448.5C359.629 448.5 448.5 359.629 448.5 250C448.5 140.371 359.629 51.5 250 51.5C140.371 51.5 51.5 140.371 51.5 250C51.5 359.629 140.371 448.5 250 448.5Z" fill="white"/>
</mask>
<g mask="url(#mask16_201_757)">
<path d="M140.2 441.4C161.3 443.8 182.7 443.6 203.8 441.6C225.2 439.5 246.3 435.4 267.2 430.3C287.8 425.2 308.1 419 328.2 412.3C347.5 405.8 366.6 398.8 385.1 390.6C403.5 382.4 421.4 373.1 438.3 362.1C440.4 360.7 442.5 359.3 444.6 357.9C445.4 357.3 445.8 356.3 444.9 355.6C443.9 354.9 442.3 355.5 441.5 356.1C425.1 367.3 407.7 376.8 389.7 385.2C371.6 393.6 352.9 400.7 334 407.2C314.3 413.9 294.5 420.2 274.4 425.4C254 430.7 233.4 435.1 212.5 437.6C191.6 440.1 170.5 440.9 149.5 439.1C146.9 438.9 144.3 438.6 141.8 438.3C140.7 438.2 139.1 438.8 138.7 439.8C138.3 440.8 139.3 441.3 140.2 441.4Z" fill="white"/>
</g>
<mask id="mask17_201_757" style="mask-type:luminance" maskUnits="userSpaceOnUse" x="51" y="51" width="398" height="398">
<path d="M250 448.5C359.629 448.5 448.5 359.629 448.5 250C448.5 140.371 359.629 51.5 250 51.5C140.371 51.5 51.5 140.371 51.5 250C51.5 359.629 140.371 448.5 250 448.5Z" fill="white"/>
</mask>
<g mask="url(#mask17_201_757)">
<path d="M127.5 446.9C142.4 438.4 159.1 433.9 175.9 430.8C193.3 427.6 210.9 425.7 228.6 424.7C246.4 423.7 264.3 423.9 282.1 425C299.9 426.2 317.5 428.5 335 431.8C352.5 435.1 369.9 439.5 386.9 444.9C389 445.6 391.2 446.3 393.3 447C394.5 447.4 395.9 446.5 396.1 445.3C396.3 443.9 395.2 442.9 394 442.5C376.9 436.8 359.5 432.1 341.9 428.5C324.1 424.9 306.1 422.3 288.1 420.9C270.2 419.4 252.1 419.1 234.1 419.8C216 420.5 198 422.4 180.1 425.3C163 428.1 146 432.1 130.4 439.9C128.5 440.9 126.6 441.9 124.7 442.9C121.9 444.5 125 448.3 127.5 446.9Z" fill="white"/>
</g>
<mask id="mask18_201_757" style="mask-type:luminance" maskUnits="userSpaceOnUse" x="51" y="51" width="398" height="398">
<path d="M250 448.5C359.629 448.5 448.5 359.629 448.5 250C448.5 140.371 359.629 51.5 250 51.5C140.371 51.5 51.5 140.371 51.5 250C51.5 359.629 140.371 448.5 250 448.5Z" fill="white"/>
</mask>
<g mask="url(#mask18_201_757)">
<path d="M155.1 465.4C184.9 466.9 215.1 468.3 244.6 463.2C272.2 458.4 298.2 447.1 322.7 433.8C336.4 426.3 349.8 418.2 363.1 410.1C364.6 409.2 361.8 405.1 360.2 406C336.7 420.3 313 434.8 287.5 445.4C274.8 450.7 261.6 455 248.1 457.8C233.6 460.8 218.8 462 204.1 462.4C187.3 462.8 170.5 462 153.7 461.2C151.2 461 153.4 465.3 155.1 465.4Z" fill="white"/>
</g>
</svg>
