<svg width="500" height="500" viewBox="0 0 500 500" fill="none" xmlns="http://www.w3.org/2000/svg">
<mask id="mask0_201_739" style="mask-type:luminance" maskUnits="userSpaceOnUse" x="51" y="51" width="398" height="398">
<path d="M250 448.5C359.629 448.5 448.5 359.629 448.5 250C448.5 140.371 359.629 51.5 250 51.5C140.371 51.5 51.5 140.371 51.5 250C51.5 359.629 140.371 448.5 250 448.5Z" fill="white"/>
</mask>
<g mask="url(#mask0_201_739)">
<path d="M270.4 20.7C265.9 38.1 261.2 56.3 265.2 74.2C266.2 78.8 267.9 83.3 270.1 87.5C270.6 88.5 272 89.1 273 89.3C273.6 89.4 274.9 89.5 274.4 88.5C266.1 73 267.5 54.8 271.1 38.2C272.2 33.1 273.5 28 274.9 22.9C275.3 21.4 270.7 19.5 270.4 20.7Z" fill="white"/>
</g>
<mask id="mask1_201_739" style="mask-type:luminance" maskUnits="userSpaceOnUse" x="51" y="51" width="398" height="398">
<path d="M250 448.5C359.629 448.5 448.5 359.629 448.5 250C448.5 140.371 359.629 51.5 250 51.5C140.371 51.5 51.5 140.371 51.5 250C51.5 359.629 140.371 448.5 250 448.5Z" fill="white"/>
</mask>
<g mask="url(#mask1_201_739)">
<path d="M282.7 98.9C288.3 103.4 294.3 107.6 300.5 111.3C301.4 111.8 300.5 110.5 300.3 110.3C299.7 109.4 298.9 108.3 298 107.8C292 104.2 286.3 100.3 280.8 95.9C280.8 95.9 280.3 95.4 280.1 95.5C280 95.6 280.3 96.2 280.4 96.2C280.9 97.1 281.8 98.2 282.7 98.9Z" fill="white"/>
</g>
<mask id="mask2_201_739" style="mask-type:luminance" maskUnits="userSpaceOnUse" x="51" y="51" width="398" height="398">
<path d="M250 448.5C359.629 448.5 448.5 359.629 448.5 250C448.5 140.371 359.629 51.5 250 51.5C140.371 51.5 51.5 140.371 51.5 250C51.5 359.629 140.371 448.5 250 448.5Z" fill="white"/>
</mask>
<g mask="url(#mask2_201_739)">
<path d="M316.7 118C324.8 118.7 332.8 119.3 340.9 120C341.8 120.1 343.1 119.6 342.9 118.5C342.7 117.4 340.9 117.1 340 117C331.9 116.3 323.9 115.7 315.8 115C314.9 114.9 313.6 115.4 313.8 116.5C314.1 117.6 315.8 117.9 316.7 118Z" fill="white"/>
</g>
<mask id="mask3_201_739" style="mask-type:luminance" maskUnits="userSpaceOnUse" x="51" y="51" width="398" height="398">
<path d="M250 448.5C359.629 448.5 448.5 359.629 448.5 250C448.5 140.371 359.629 51.5 250 51.5C140.371 51.5 51.5 140.371 51.5 250C51.5 359.629 140.371 448.5 250 448.5Z" fill="white"/>
</mask>
<g mask="url(#mask3_201_739)">
<path d="M363.4 120.7C380.8 116.7 397.3 109.5 412.2 99.7001C413.1 99.1001 412.8 98.0001 411.9 97.6001C410.8 97.1001 409.4 97.4001 408.4 98.1001C394.2 107.5 378.3 114.2 361.7 118C360.8 118.2 359.7 119.1 360.2 120.1C360.8 121.1 362.5 120.9 363.4 120.7Z" fill="white"/>
</g>
<mask id="mask4_201_739" style="mask-type:luminance" maskUnits="userSpaceOnUse" x="51" y="51" width="398" height="398">
<path d="M250 448.5C359.629 448.5 448.5 359.629 448.5 250C448.5 140.371 359.629 51.5 250 51.5C140.371 51.5 51.5 140.371 51.5 250C51.5 359.629 140.371 448.5 250 448.5Z" fill="white"/>
</mask>
<g mask="url(#mask4_201_739)">
<path d="M294.1 36.7C288.5 51 290.9 67.8 300.1 80.1C300.7 81 302.1 81.5 303.1 81.8C303.5 81.9 304.9 82.2 304.3 81.4C295.3 69.4 293.2 52.8 298.7 38.9C299 38 294.4 35.9 294.1 36.7Z" fill="white"/>
</g>
<mask id="mask5_201_739" style="mask-type:luminance" maskUnits="userSpaceOnUse" x="51" y="51" width="398" height="398">
<path d="M250 448.5C359.629 448.5 448.5 359.629 448.5 250C448.5 140.371 359.629 51.5 250 51.5C140.371 51.5 51.5 140.371 51.5 250C51.5 359.629 140.371 448.5 250 448.5Z" fill="white"/>
</mask>
<g mask="url(#mask5_201_739)">
<path d="M319.1 89C324.6 91.2 330.2 92.9 335.9 94.1C336.5 94.2 335.2 92.5001 335.1 92.4001C334.5 91.7001 333.7 90.6001 332.7 90.4001C327.1 89.2001 321.7 87.6 316.4 85.5C315.5 85.1 316.3 86.4 316.5 86.6C317.2 87.5 318.1 88.6 319.1 89Z" fill="white"/>
</g>
<mask id="mask6_201_739" style="mask-type:luminance" maskUnits="userSpaceOnUse" x="51" y="51" width="398" height="398">
<path d="M250 448.5C359.629 448.5 448.5 359.629 448.5 250C448.5 140.371 359.629 51.5 250 51.5C140.371 51.5 51.5 140.371 51.5 250C51.5 359.629 140.371 448.5 250 448.5Z" fill="white"/>
</mask>
<g mask="url(#mask6_201_739)">
<path d="M353.5 96.2001C372 95.0001 390.1 89.1001 405.5 78.7001C406.1 78.3001 403.9 77.9001 403.8 77.9001C403 77.8001 401.5 77.5001 400.7 78.1001C386 88.0001 368.7 94.0001 351 95.1001C350.4 95.1001 349.4 95.2001 350.1 95.8001C350.8 96.3001 352.7 96.2001 353.5 96.2001Z" fill="white"/>
</g>
<mask id="mask7_201_739" style="mask-type:luminance" maskUnits="userSpaceOnUse" x="51" y="51" width="398" height="398">
<path d="M250 448.5C359.629 448.5 448.5 359.629 448.5 250C448.5 140.371 359.629 51.5 250 51.5C140.371 51.5 51.5 140.371 51.5 250C51.5 359.629 140.371 448.5 250 448.5Z" fill="white"/>
</mask>
<g mask="url(#mask7_201_739)">
<path d="M318.2 60.5001C315.6 63.6001 316.8 68.1001 319.1 71.0001C321.9 74.5001 326.4 76.3001 329.9 79.1001C330.3 79.5001 331.9 78.7001 332.4 78.5001C332.6 78.4001 334.7 77.4001 334.6 77.3001C331.2 74.5001 326.9 72.8001 324 69.4001C321.6 66.6001 320.2 62.0001 322.8 58.9001C323.1 58.6001 321.1 59.1001 321 59.1001C320.2 59.5001 318.8 59.8001 318.2 60.5001Z" fill="white"/>
</g>
<mask id="mask8_201_739" style="mask-type:luminance" maskUnits="userSpaceOnUse" x="51" y="51" width="398" height="398">
<path d="M250 448.5C359.629 448.5 448.5 359.629 448.5 250C448.5 140.371 359.629 51.5 250 51.5C140.371 51.5 51.5 140.371 51.5 250C51.5 359.629 140.371 448.5 250 448.5Z" fill="white"/>
</mask>
<g mask="url(#mask8_201_739)">
<path d="M343 80.6999C354.6 81.5999 366.3 79.2999 376.4 73.4999C377.3 72.9999 376 72.4999 375.5 72.3999C374.5 72.1999 373 72.0999 372.1 72.5999C363.8 77.3999 354 79.9999 344.4 79.2999C343.7 79.1999 341.8 78.9999 341.3 79.7999C340.8 80.4 342.7 80.5999 343 80.6999Z" fill="white"/>
</g>
<mask id="mask9_201_739" style="mask-type:luminance" maskUnits="userSpaceOnUse" x="51" y="51" width="398" height="398">
<path d="M250 448.5C359.629 448.5 448.5 359.629 448.5 250C448.5 140.371 359.629 51.5 250 51.5C140.371 51.5 51.5 140.371 51.5 250C51.5 359.629 140.371 448.5 250 448.5Z" fill="white"/>
</mask>
<g mask="url(#mask9_201_739)">
<path d="M238.6 41.1001C237.1 50.4001 236.3 59.8001 236.1 69.1001C235.9 76.4001 236.3 83.9001 239 90.7001C240.4 94.4001 242.6 97.9001 245.5 100.6C246.6 101.6 251.1 100 250.1 99.0001C244.9 94.1001 242.5 87.2001 241.6 80.3001C240.5 72.4001 241 64.2001 241.6 56.3001C242 51.0001 242.7 45.7001 243.5 40.5001C243.7 39.0001 238.8 39.7001 238.6 41.1001Z" fill="white"/>
</g>
<mask id="mask10_201_739" style="mask-type:luminance" maskUnits="userSpaceOnUse" x="51" y="51" width="398" height="398">
<path d="M250 448.5C359.629 448.5 448.5 359.629 448.5 250C448.5 140.371 359.629 51.5 250 51.5C140.371 51.5 51.5 140.371 51.5 250C51.5 359.629 140.371 448.5 250 448.5Z" fill="white"/>
</mask>
<g mask="url(#mask10_201_739)">
<path d="M258.5 114.3C268.5 123.7 280 131.1 292.6 136.4C293.3 136.7 295.1 137.3 295.7 136.6C296.4 135.9 294.8 135.1 294.4 135C282.8 130.2 272.1 123.2 262.9 114.6C262.1 113.8 260.9 113.4 259.7 113.3C259.3 113.2 257.7 113.5 258.5 114.3Z" fill="white"/>
</g>
<mask id="mask11_201_739" style="mask-type:luminance" maskUnits="userSpaceOnUse" x="51" y="51" width="398" height="398">
<path d="M250 448.5C359.629 448.5 448.5 359.629 448.5 250C448.5 140.371 359.629 51.5 250 51.5C140.371 51.5 51.5 140.371 51.5 250C51.5 359.629 140.371 448.5 250 448.5Z" fill="white"/>
</mask>
<g mask="url(#mask11_201_739)">
<path d="M307.4 144.2C322 146.6 336.8 147.9 351.6 147.8C352.7 147.8 354.1 147.4 354.9 146.7C355.6 146.1 355.5 145.4 354.5 145.4C340 145.5 325.5 144.3 311.2 141.9C310.1 141.7 308.8 142.1 307.9 142.7C307.4 142.9 306.3 144 307.4 144.2Z" fill="white"/>
</g>
<mask id="mask12_201_739" style="mask-type:luminance" maskUnits="userSpaceOnUse" x="51" y="51" width="398" height="398">
<path d="M250 448.5C359.629 448.5 448.5 359.629 448.5 250C448.5 140.371 359.629 51.5 250 51.5C140.371 51.5 51.5 140.371 51.5 250C51.5 359.629 140.371 448.5 250 448.5Z" fill="white"/>
</mask>
<g mask="url(#mask12_201_739)">
<path d="M379.2 150C398.6 139.5 421.8 139.3 440.6 127.3C445.4 124.2 449.8 120.3 453.2 115.7C453.9 114.8 452.4 113.9 451.7 113.7C450.7 113.4 449.2 113.5 448.5 114.4C435.9 131.7 412.8 134.6 393.8 140.4C387.7 142.3 381.6 144.5 376 147.5C375.1 148 374.9 148.9 375.8 149.6C376.6 150.3 378.2 150.5 379.2 150Z" fill="white"/>
</g>
<mask id="mask13_201_739" style="mask-type:luminance" maskUnits="userSpaceOnUse" x="51" y="51" width="398" height="398">
<path d="M250 448.5C359.629 448.5 448.5 359.629 448.5 250C448.5 140.371 359.629 51.5 250 51.5C140.371 51.5 51.5 140.371 51.5 250C51.5 359.629 140.371 448.5 250 448.5Z" fill="white"/>
</mask>
<g mask="url(#mask13_201_739)">
<path d="M211.1 40.4999C204.8 68.4999 203 99.3999 217.9 125.2C221.6 131.5 226.2 137.3 231.6 142.1C232.4 142.8 236.1 139.6 235.8 139.4C226.1 130.8 219.3 119.4 215.3 107.1C210.8 93.2999 209.9 78.5999 211.1 64.2999C211.9 55.4999 213.4 46.7999 215.3 38.0999C215.4 37.4999 213.6 38.4999 213.5 38.4999C212.9 38.7999 211.3 39.5999 211.1 40.4999Z" fill="white"/>
</g>
<mask id="mask14_201_739" style="mask-type:luminance" maskUnits="userSpaceOnUse" x="51" y="51" width="398" height="398">
<path d="M250 448.5C359.629 448.5 448.5 359.629 448.5 250C448.5 140.371 359.629 51.5 250 51.5C140.371 51.5 51.5 140.371 51.5 250C51.5 359.629 140.371 448.5 250 448.5Z" fill="white"/>
</mask>
<g mask="url(#mask14_201_739)">
<path d="M244.1 150.5C250.5 156.9 257 163.2 265.5 166.7C270 168.5 274.8 169.5 279.6 170.4C284.7 171.4 289.8 172.5 294.9 173.5C296 173.7 297 172.9 296.9 171.8C296.7 170.5 295.3 169.8 294.2 169.6C289.3 168.6 284.5 167.6 279.6 166.6C275.2 165.7 270.7 164.8 266.5 163.1C258.8 160 252.7 153.8 247 148C246.2 147.2 244.6 146.9 243.7 147.6C242.6 148.6 243.4 149.8 244.1 150.5Z" fill="white"/>
</g>
<mask id="mask15_201_739" style="mask-type:luminance" maskUnits="userSpaceOnUse" x="51" y="51" width="398" height="398">
<path d="M250 448.5C359.629 448.5 448.5 359.629 448.5 250C448.5 140.371 359.629 51.5 250 51.5C140.371 51.5 51.5 140.371 51.5 250C51.5 359.629 140.371 448.5 250 448.5Z" fill="white"/>
</mask>
<g mask="url(#mask15_201_739)">
<path d="M320.6 178.6C338.3 180.8 356.3 181.1 374.1 179.7C374.7 179.7 372.8 178.5 372.7 178.4C371.8 178 370.7 177.5 369.7 177.6C352.1 179 334.3 178.6 316.8 176.4C315.7 176.3 317.2 177.3 317.4 177.4C318.3 178 319.4 178.4 320.6 178.6Z" fill="white"/>
</g>
<mask id="mask16_201_739" style="mask-type:luminance" maskUnits="userSpaceOnUse" x="51" y="51" width="398" height="398">
<path d="M250 448.5C359.629 448.5 448.5 359.629 448.5 250C448.5 140.371 359.629 51.5 250 51.5C140.371 51.5 51.5 140.371 51.5 250C51.5 359.629 140.371 448.5 250 448.5Z" fill="white"/>
</mask>
<g mask="url(#mask16_201_739)">
<path d="M391.5 176.2C418.4 170.8 445.6 161.9 466.2 143C471.5 138.1 476.2 132.7 480.2 126.6C480.6 125.9 478.8 125.7 478.5 125.7C477.9 125.6 475.9 125.4 475.4 126.1C460.7 148.4 436.4 161.8 411.4 169.3C403.7 171.6 395.9 173.5 388 175.1C387.1 175.3 387.2 175.8 388 176.1C389 176.5 390.3 176.5 391.5 176.2Z" fill="white"/>
</g>
<mask id="mask17_201_739" style="mask-type:luminance" maskUnits="userSpaceOnUse" x="51" y="51" width="398" height="398">
<path d="M250 448.5C359.629 448.5 448.5 359.629 448.5 250C448.5 140.371 359.629 51.5 250 51.5C140.371 51.5 51.5 140.371 51.5 250C51.5 359.629 140.371 448.5 250 448.5Z" fill="white"/>
</mask>
<g mask="url(#mask17_201_739)">
<path d="M183.8 38.0999C179.8 57.3999 175.7 77.6999 180.9 97.1999C181.2 98.2999 182.3 98.8999 183.2 99.2999C183.5 99.3999 185.6 99.9999 185.4 98.9999C180.3 79.6999 184.2 59.5999 188.2 40.4999C188.6 38.7999 184.1 36.8999 183.8 38.0999Z" fill="white"/>
</g>
<mask id="mask18_201_739" style="mask-type:luminance" maskUnits="userSpaceOnUse" x="51" y="51" width="398" height="398">
<path d="M250 448.5C359.629 448.5 448.5 359.629 448.5 250C448.5 140.371 359.629 51.5 250 51.5C140.371 51.5 51.5 140.371 51.5 250C51.5 359.629 140.371 448.5 250 448.5Z" fill="white"/>
</mask>
<g mask="url(#mask18_201_739)">
<path d="M183 119.7C189.5 137.2 199.4 153.4 212 167.1C215.6 171 219.3 174.6 223.3 178.1C224.5 179.2 229 177.1 227.7 175.9C213.8 163.8 202.3 149 194.1 132.5C191.7 127.8 189.7 123 187.8 118C187.2 116.5 182.4 118.1 183 119.7Z" fill="white"/>
</g>
<mask id="mask19_201_739" style="mask-type:luminance" maskUnits="userSpaceOnUse" x="51" y="51" width="398" height="398">
<path d="M250 448.5C359.629 448.5 448.5 359.629 448.5 250C448.5 140.371 359.629 51.5 250 51.5C140.371 51.5 51.5 140.371 51.5 250C51.5 359.629 140.371 448.5 250 448.5Z" fill="white"/>
</mask>
<g mask="url(#mask19_201_739)">
<path d="M248.1 190.4C266.6 198.4 286.1 203.8 306 206.4C311.6 207.1 317.2 207.6 322.9 207.9C324 208 325.5 207.5 325.8 206.3C326.1 205.1 324.8 204.4 323.8 204.3C304.4 203.4 285.2 199.7 266.8 193.5C261.6 191.7 256.4 189.7 251.3 187.5C250.2 187 248.7 187 247.8 187.9C247 188.6 247 189.9 248.1 190.4Z" fill="white"/>
</g>
<mask id="mask20_201_739" style="mask-type:luminance" maskUnits="userSpaceOnUse" x="51" y="51" width="398" height="398">
<path d="M250 448.5C359.629 448.5 448.5 359.629 448.5 250C448.5 140.371 359.629 51.5 250 51.5C140.371 51.5 51.5 140.371 51.5 250C51.5 359.629 140.371 448.5 250 448.5Z" fill="white"/>
</mask>
<g mask="url(#mask20_201_739)">
<path d="M354.9 211.2C374.9 210.3 394.8 207.6 414.2 203C419.7 201.7 425.2 200.3 430.7 198.7C431.8 198.4 433.1 197.6 433 196.3C432.9 195.1 431.5 194.7 430.5 195C411.6 200.5 392.2 204.2 372.7 206.2C367.1 206.7 361.5 207.1 355.9 207.4C354.7 207.5 353.3 208.1 353 209.3C352.8 210.4 353.8 211.2 354.9 211.2Z" fill="white"/>
</g>
<mask id="mask21_201_739" style="mask-type:luminance" maskUnits="userSpaceOnUse" x="51" y="51" width="398" height="398">
<path d="M250 448.5C359.629 448.5 448.5 359.629 448.5 250C448.5 140.371 359.629 51.5 250 51.5C140.371 51.5 51.5 140.371 51.5 250C51.5 359.629 140.371 448.5 250 448.5Z" fill="white"/>
</mask>
<g mask="url(#mask21_201_739)">
<path d="M147.3 66.4C147.3 86.1 147.5 106.1 152.9 125.2C154.4 130.5 156.4 135.8 158.8 140.8C159.3 141.9 160.4 142.6 161.5 142.9C162.1 143.1 163.7 143 163.1 141.9C154.5 124.2 152.5 104.4 152 85C151.9 79.4 151.8 73.9 151.8 68.3C151.8 66.7 147.3 64.6 147.3 66.4Z" fill="white"/>
</g>
<mask id="mask22_201_739" style="mask-type:luminance" maskUnits="userSpaceOnUse" x="51" y="51" width="398" height="398">
<path d="M250 448.5C359.629 448.5 448.5 359.629 448.5 250C448.5 140.371 359.629 51.5 250 51.5C140.371 51.5 51.5 140.371 51.5 250C51.5 359.629 140.371 448.5 250 448.5Z" fill="white"/>
</mask>
<g mask="url(#mask22_201_739)">
<path d="M170.2 158.3C174.9 165.5 179.9 172.5 185.1 179.3C190 185.6 195 192.2 201.1 197.5C204.4 200.4 208.1 202.7 212.2 204.2C212.9 204.5 214.4 204.7 214.5 203.6C214.6 202.5 213 201.6 212.2 201.3C205.7 198.9 200.9 193.7 196.5 188.6C191.4 182.5 186.5 176.2 181.9 169.8C179.2 166 176.6 162.2 174.1 158.4C173.5 157.4 172.1 156.7 171 156.7C170 156.7 169.6 157.4 170.2 158.3Z" fill="white"/>
</g>
<mask id="mask23_201_739" style="mask-type:luminance" maskUnits="userSpaceOnUse" x="51" y="51" width="398" height="398">
<path d="M250 448.5C359.629 448.5 448.5 359.629 448.5 250C448.5 140.371 359.629 51.5 250 51.5C140.371 51.5 51.5 140.371 51.5 250C51.5 359.629 140.371 448.5 250 448.5Z" fill="white"/>
</mask>
<g mask="url(#mask23_201_739)">
<path d="M235.8 217.6C255.5 226.2 276.6 231.6 298.1 233.5C304.1 234 310.1 234.2 316.1 234.2C317.1 234.2 318.2 233.7 317.9 232.5C317.6 231.4 316.1 230.5 315.1 230.5C294.3 230.6 273.5 227.4 253.7 220.9C248.1 219.1 242.7 217 237.3 214.6C236.4 214.2 234.9 214 234.3 215C233.7 216.1 234.9 217.2 235.8 217.6Z" fill="white"/>
</g>
<mask id="mask24_201_739" style="mask-type:luminance" maskUnits="userSpaceOnUse" x="51" y="51" width="398" height="398">
<path d="M250 448.5C359.629 448.5 448.5 359.629 448.5 250C448.5 140.371 359.629 51.5 250 51.5C140.371 51.5 51.5 140.371 51.5 250C51.5 359.629 140.371 448.5 250 448.5Z" fill="white"/>
</mask>
<g mask="url(#mask24_201_739)">
<path d="M331.7 237.9C343.9 239 356.1 238.9 368.2 237.6C369.4 237.5 369.6 235.9 369.1 235.1C368.5 233.9 367.3 233.3 366 233.4C354.2 234.6 342.3 234.7 330.6 233.6C329.4 233.5 328.7 234.5 328.9 235.6C329.3 236.9 330.5 237.8 331.7 237.9Z" fill="white"/>
</g>
<mask id="mask25_201_739" style="mask-type:luminance" maskUnits="userSpaceOnUse" x="51" y="51" width="398" height="398">
<path d="M250 448.5C359.629 448.5 448.5 359.629 448.5 250C448.5 140.371 359.629 51.5 250 51.5C140.371 51.5 51.5 140.371 51.5 250C51.5 359.629 140.371 448.5 250 448.5Z" fill="white"/>
</mask>
<g mask="url(#mask25_201_739)">
<path d="M388.1 237.3C411.9 234.7 437.3 231.7 457 216.7C462 212.9 466.4 208.6 470 203.5C470.7 202.5 470.4 201.1 469.7 200.2C469.1 199.5 467.6 198.7 466.9 199.7C453.4 218.6 430.2 226.3 408.2 229.9C401.1 231 393.9 231.8 386.7 232.6C384.1 232.9 385.8 237.6 388.1 237.3Z" fill="white"/>
</g>
<mask id="mask26_201_739" style="mask-type:luminance" maskUnits="userSpaceOnUse" x="51" y="51" width="398" height="398">
<path d="M250 448.5C359.629 448.5 448.5 359.629 448.5 250C448.5 140.371 359.629 51.5 250 51.5C140.371 51.5 51.5 140.371 51.5 250C51.5 359.629 140.371 448.5 250 448.5Z" fill="white"/>
</mask>
<g mask="url(#mask26_201_739)">
<path d="M125.2 73.3C126.1 86.2 124.7 99.2 125 112.2C125.2 118.6 125.7 124.9 127.2 131.1C128.6 137.1 130.7 142.8 133.2 148.4C136 154.7 139.2 160.7 142.5 166.8C143.3 168.4 148.2 167.3 147.2 165.4C141.5 154.7 135.6 143.8 132.6 131.9C129.4 119.6 129.9 106.9 130.3 94.3C130.5 87.1 130.7 79.8 130.3 72.6C130 70.7 125.1 71.3 125.2 73.3Z" fill="white"/>
</g>
<mask id="mask27_201_739" style="mask-type:luminance" maskUnits="userSpaceOnUse" x="51" y="51" width="398" height="398">
<path d="M250 448.5C359.629 448.5 448.5 359.629 448.5 250C448.5 140.371 359.629 51.5 250 51.5C140.371 51.5 51.5 140.371 51.5 250C51.5 359.629 140.371 448.5 250 448.5Z" fill="white"/>
</mask>
<g mask="url(#mask27_201_739)">
<path d="M159.3 186.4C165.4 194.3 172.7 201.4 180.8 207.2C181.8 207.9 183.3 208.2 184.3 207.4C185.2 206.7 185 205.4 184.1 204.7C176.3 199.1 169.3 192.4 163.4 184.7C162.7 183.7 161.1 183.3 160 183.8C158.9 184.4 158.6 185.5 159.3 186.4Z" fill="white"/>
</g>
<mask id="mask28_201_739" style="mask-type:luminance" maskUnits="userSpaceOnUse" x="51" y="51" width="398" height="398">
<path d="M250 448.5C359.629 448.5 448.5 359.629 448.5 250C448.5 140.371 359.629 51.5 250 51.5C140.371 51.5 51.5 140.371 51.5 250C51.5 359.629 140.371 448.5 250 448.5Z" fill="white"/>
</mask>
<g mask="url(#mask28_201_739)">
<path d="M195.8 219C209 229.8 224.3 237.9 240.7 242.5C245.3 243.8 249.9 244.8 254.6 245.5C255.4 245.6 256.9 245.7 256.9 244.5C256.9 243.4 255.3 242.5 254.5 242.4C238.7 239.9 223.6 234.2 210.1 225.6C206.3 223.2 202.6 220.5 199.1 217.6C198.3 216.9 196.8 216.3 195.7 216.8C194.7 217.3 195.1 218.4 195.8 219Z" fill="white"/>
</g>
<mask id="mask29_201_739" style="mask-type:luminance" maskUnits="userSpaceOnUse" x="51" y="51" width="398" height="398">
<path d="M250 448.5C359.629 448.5 448.5 359.629 448.5 250C448.5 140.371 359.629 51.5 250 51.5C140.371 51.5 51.5 140.371 51.5 250C51.5 359.629 140.371 448.5 250 448.5Z" fill="white"/>
</mask>
<g mask="url(#mask29_201_739)">
<path d="M280.2 254C298.8 259.9 318.1 263.1 337.6 263.5C343.2 263.6 348.8 263.5 354.3 263.2C355.4 263.1 356.6 262.2 356.3 261C356 259.7 354.5 259.2 353.4 259.3C334.7 260.4 315.7 258.9 297.4 254.6C292.2 253.4 287 252 281.9 250.4C280.8 250.1 279.2 250.2 278.7 251.4C278.2 252.6 279.1 253.7 280.2 254Z" fill="white"/>
</g>
<mask id="mask30_201_739" style="mask-type:luminance" maskUnits="userSpaceOnUse" x="51" y="51" width="398" height="398">
<path d="M250 448.5C359.629 448.5 448.5 359.629 448.5 250C448.5 140.371 359.629 51.5 250 51.5C140.371 51.5 51.5 140.371 51.5 250C51.5 359.629 140.371 448.5 250 448.5Z" fill="white"/>
</mask>
<g mask="url(#mask30_201_739)">
<path d="M379.3 264.5C403.8 265.7 430.2 266.6 452.3 254.4C458.8 250.8 464.6 246.1 471.1 242.5C472 242 472.6 240.9 471.7 240.1C470.8 239.3 469.2 239.4 468.2 239.9C462.5 243 457.4 247 451.9 250.4C446.8 253.5 441.4 255.8 435.7 257.5C424.4 260.9 412.5 261.7 400.8 261.7C393.9 261.7 387 261.4 380.2 261.1C379.1 261.1 377.6 261.5 377.3 262.7C377 263.7 378.3 264.4 379.3 264.5Z" fill="white"/>
</g>
<mask id="mask31_201_739" style="mask-type:luminance" maskUnits="userSpaceOnUse" x="51" y="51" width="398" height="398">
<path d="M250 448.5C359.629 448.5 448.5 359.629 448.5 250C448.5 140.371 359.629 51.5 250 51.5C140.371 51.5 51.5 140.371 51.5 250C51.5 359.629 140.371 448.5 250 448.5Z" fill="white"/>
</mask>
<g mask="url(#mask31_201_739)">
<path d="M101.1 90.3001C99.9 108.7 100.1 127.3 101.8 145.7C102.3 150.9 102.9 156.1 103.6 161.3C103.8 162.4 104.6 163.7 105.6 164.2C106.5 164.6 107.3 164.2 107.2 163.1C104.7 145 103.6 126.8 104 108.5C104.1 103.4 104.3 98.2 104.7 93.1C104.8 91.9 104.1 90.7 103.1 90C102.6 89.5 101.2 89.2001 101.1 90.3001Z" fill="white"/>
</g>
<mask id="mask32_201_739" style="mask-type:luminance" maskUnits="userSpaceOnUse" x="51" y="51" width="398" height="398">
<path d="M250 448.5C359.629 448.5 448.5 359.629 448.5 250C448.5 140.371 359.629 51.5 250 51.5C140.371 51.5 51.5 140.371 51.5 250C51.5 359.629 140.371 448.5 250 448.5Z" fill="white"/>
</mask>
<g mask="url(#mask32_201_739)">
<path d="M108.9 177.2C114.9 192.9 124.8 207 137.5 218C138.4 218.8 140 218.9 141 218.4C142 217.9 142.1 216.8 141.3 216.1C129.1 205.5 119.6 192 113.8 176.9C113 174.8 108 174.9 108.9 177.2Z" fill="white"/>
</g>
<mask id="mask33_201_739" style="mask-type:luminance" maskUnits="userSpaceOnUse" x="51" y="51" width="398" height="398">
<path d="M250 448.5C359.629 448.5 448.5 359.629 448.5 250C448.5 140.371 359.629 51.5 250 51.5C140.371 51.5 51.5 140.371 51.5 250C51.5 359.629 140.371 448.5 250 448.5Z" fill="white"/>
</mask>
<g mask="url(#mask33_201_739)">
<path d="M163.9 231.8C172.4 239.8 182.6 245.8 193.7 249.4C194.6 249.7 196.2 250.1 197.1 249.6C198 249.1 197 248.4 196.4 248.2C185.9 244.8 176.4 239 168.3 231.5C167.5 230.8 166 230.6 165 230.7C164.4 230.8 163.1 231.1 163.9 231.8Z" fill="white"/>
</g>
<mask id="mask34_201_739" style="mask-type:luminance" maskUnits="userSpaceOnUse" x="51" y="51" width="398" height="398">
<path d="M250 448.5C359.629 448.5 448.5 359.629 448.5 250C448.5 140.371 359.629 51.5 250 51.5C140.371 51.5 51.5 140.371 51.5 250C51.5 359.629 140.371 448.5 250 448.5Z" fill="white"/>
</mask>
<g mask="url(#mask34_201_739)">
<path d="M241.4 268.9C258.3 273.6 275.6 276.6 293 277.8C293.9 277.9 295.1 277.1 295.9 276.7C296.1 276.6 297.6 275.7 297.3 275.6C279.8 274.3 262.5 271.4 245.7 266.7C245 266.5 243.5 267.5 242.8 267.8C242.6 268 241 268.8 241.4 268.9Z" fill="white"/>
</g>
<mask id="mask35_201_739" style="mask-type:luminance" maskUnits="userSpaceOnUse" x="51" y="51" width="398" height="398">
<path d="M250 448.5C359.629 448.5 448.5 359.629 448.5 250C448.5 140.371 359.629 51.5 250 51.5C140.371 51.5 51.5 140.371 51.5 250C51.5 359.629 140.371 448.5 250 448.5Z" fill="white"/>
</mask>
<g mask="url(#mask35_201_739)">
<path d="M314.9 283.9C333.7 287.2 352.8 288.6 371.9 288C377.3 287.8 382.7 287.5 388 287C388.6 287 389.7 286.7 389 286C388.2 285.4 386.5 285.4 385.6 285.5C367.7 287.1 349.6 286.8 331.7 284.7C326.5 284.1 321.4 283.3 316.3 282.4C315.6 282.3 313.7 282 313.2 282.7C312.7 283.5 314.6 283.8 314.9 283.9Z" fill="white"/>
</g>
<mask id="mask36_201_739" style="mask-type:luminance" maskUnits="userSpaceOnUse" x="51" y="51" width="398" height="398">
<path d="M250 448.5C359.629 448.5 448.5 359.629 448.5 250C448.5 140.371 359.629 51.5 250 51.5C140.371 51.5 51.5 140.371 51.5 250C51.5 359.629 140.371 448.5 250 448.5Z" fill="white"/>
</mask>
<g mask="url(#mask36_201_739)">
<path d="M415.6 288C433.1 287.1 450.4 282.5 466.1 274.7C470.6 272.5 474.9 269.9 479.1 267.2C479.7 266.8 476.7 262.9 475.7 263.5C461.1 273.2 444.6 279.7 427.3 282.7C422.4 283.5 417.5 284.1 412.6 284.3C411.8 284.3 413 286 413.2 286.1C413.7 286.6 414.8 288 415.6 288Z" fill="white"/>
</g>
<mask id="mask37_201_739" style="mask-type:luminance" maskUnits="userSpaceOnUse" x="51" y="51" width="398" height="398">
<path d="M250 448.5C359.629 448.5 448.5 359.629 448.5 250C448.5 140.371 359.629 51.5 250 51.5C140.371 51.5 51.5 140.371 51.5 250C51.5 359.629 140.371 448.5 250 448.5Z" fill="white"/>
</mask>
<g mask="url(#mask37_201_739)">
<path d="M81.3 119.4C78 139.4 79.8 160.1 86.6 179.1C88.5 184.5 90.8 189.7 93.4 194.7C94.2 196.2 98.9 194.6 98.2 193.4C88.9 175.7 84.2 155.7 84.5 135.8C84.6 130.1 85.1 124.4 86.1 118.7C86.4 117.1 81.6 117.9 81.3 119.4Z" fill="white"/>
</g>
<mask id="mask38_201_739" style="mask-type:luminance" maskUnits="userSpaceOnUse" x="51" y="51" width="398" height="398">
<path d="M250 448.5C359.629 448.5 448.5 359.629 448.5 250C448.5 140.371 359.629 51.5 250 51.5C140.371 51.5 51.5 140.371 51.5 250C51.5 359.629 140.371 448.5 250 448.5Z" fill="white"/>
</mask>
<g mask="url(#mask38_201_739)">
<path d="M114.4 217C121.7 224.8 129 232.7 136.2 240.5C137.4 241.8 142.2 240.9 140.5 239.1C133.2 231.3 125.9 223.4 118.7 215.6C117.5 214.3 112.7 215.2 114.4 217Z" fill="white"/>
</g>
<mask id="mask39_201_739" style="mask-type:luminance" maskUnits="userSpaceOnUse" x="51" y="51" width="398" height="398">
<path d="M250 448.5C359.629 448.5 448.5 359.629 448.5 250C448.5 140.371 359.629 51.5 250 51.5C140.371 51.5 51.5 140.371 51.5 250C51.5 359.629 140.371 448.5 250 448.5Z" fill="white"/>
</mask>
<g mask="url(#mask39_201_739)">
<path d="M157.1 257C171.4 268.1 187.9 276.3 205.4 281C210.4 282.3 215.4 283.4 220.5 284.2C221 284.3 222.6 284.5 222.5 283.6C222.4 282.7 220.4 282.2 219.7 282.1C203.1 279.6 187.1 273.8 172.7 265C168.6 262.5 164.6 259.7 160.8 256.8C159.9 256.1 158.5 255.7 157.4 255.8C156.6 255.8 156.3 256.4 157.1 257Z" fill="white"/>
</g>
<mask id="mask40_201_739" style="mask-type:luminance" maskUnits="userSpaceOnUse" x="51" y="51" width="398" height="398">
<path d="M250 448.5C359.629 448.5 448.5 359.629 448.5 250C448.5 140.371 359.629 51.5 250 51.5C140.371 51.5 51.5 140.371 51.5 250C51.5 359.629 140.371 448.5 250 448.5Z" fill="white"/>
</mask>
<g mask="url(#mask40_201_739)">
<path d="M240.3 291.8C259.2 296.8 278.4 300.4 297.9 302.7C303.4 303.3 308.8 303.9 314.3 304.3C315.4 304.4 316.9 303.8 317.5 302.9C318.1 302.1 317.8 301.3 316.8 301.2C297.6 299.7 278.6 296.9 259.8 292.8C254.4 291.6 249.1 290.3 243.8 288.9C242.7 288.6 241.3 289.1 240.5 289.8C239.8 290.3 239.1 291.5 240.3 291.8Z" fill="white"/>
</g>
<mask id="mask41_201_739" style="mask-type:luminance" maskUnits="userSpaceOnUse" x="51" y="51" width="398" height="398">
<path d="M250 448.5C359.629 448.5 448.5 359.629 448.5 250C448.5 140.371 359.629 51.5 250 51.5C140.371 51.5 51.5 140.371 51.5 250C51.5 359.629 140.371 448.5 250 448.5Z" fill="white"/>
</mask>
<g mask="url(#mask41_201_739)">
<path d="M349.3 309C363.6 310.5 378 310.9 392.4 310.2C395.4 310 392.5 306.4 390.6 306.5C376.2 307.2 361.8 306.8 347.5 305.3C346.4 305.2 346 306.2 346.4 307.1C346.8 308.2 348.1 308.9 349.3 309Z" fill="white"/>
</g>
<mask id="mask42_201_739" style="mask-type:luminance" maskUnits="userSpaceOnUse" x="51" y="51" width="398" height="398">
<path d="M250 448.5C359.629 448.5 448.5 359.629 448.5 250C448.5 140.371 359.629 51.5 250 51.5C140.371 51.5 51.5 140.371 51.5 250C51.5 359.629 140.371 448.5 250 448.5Z" fill="white"/>
</mask>
<g mask="url(#mask42_201_739)">
<path d="M423.2 312.2C441.9 310.5 460.3 305.6 477.4 297.9C482.3 295.7 487.1 293.3 491.7 290.6C492.4 290.2 493 289.2 492.1 288.7C491.1 288.2 489.6 288.8 488.7 289.3C473.3 298 456.4 304.2 438.9 307.4C433.9 308.3 428.9 309 423.8 309.5C422.9 309.6 421.2 310.2 421.1 311.2C421 312.3 422.6 312.2 423.2 312.2Z" fill="white"/>
</g>
<mask id="mask43_201_739" style="mask-type:luminance" maskUnits="userSpaceOnUse" x="51" y="51" width="398" height="398">
<path d="M250 448.5C359.629 448.5 448.5 359.629 448.5 250C448.5 140.371 359.629 51.5 250 51.5C140.371 51.5 51.5 140.371 51.5 250C51.5 359.629 140.371 448.5 250 448.5Z" fill="white"/>
</mask>
<g mask="url(#mask43_201_739)">
<path d="M61.6 146.5C61.5 163.6 63.6 180.7 67.7 197.3C68.9 202 70.2 206.7 71.7 211.3C72 212.3 76.8 211 76.6 210.3C71.4 194 68.1 177.1 67 160C66.7 155.2 66.5 150.3 66.5 145.5C66.5 144.9 61.6 145.3 61.6 146.5Z" fill="white"/>
</g>
<mask id="mask44_201_739" style="mask-type:luminance" maskUnits="userSpaceOnUse" x="51" y="51" width="398" height="398">
<path d="M250 448.5C359.629 448.5 448.5 359.629 448.5 250C448.5 140.371 359.629 51.5 250 51.5C140.371 51.5 51.5 140.371 51.5 250C51.5 359.629 140.371 448.5 250 448.5Z" fill="white"/>
</mask>
<g mask="url(#mask44_201_739)">
<path d="M83.5 233.7C89.7 245 97 255.7 105.4 265.5C106.1 266.4 107.5 267 108.6 266.9C109.6 266.8 110 266.1 109.3 265.3C101.1 255.7 93.9 245.4 87.9 234.3C87.3 233.3 86.1 232.6 85 232.5C84.3 232.4 82.9 232.6 83.5 233.7Z" fill="white"/>
</g>
<mask id="mask45_201_739" style="mask-type:luminance" maskUnits="userSpaceOnUse" x="51" y="51" width="398" height="398">
<path d="M250 448.5C359.629 448.5 448.5 359.629 448.5 250C448.5 140.371 359.629 51.5 250 51.5C140.371 51.5 51.5 140.371 51.5 250C51.5 359.629 140.371 448.5 250 448.5Z" fill="white"/>
</mask>
<g mask="url(#mask45_201_739)">
<path d="M122.2 276.5C132.2 285.8 143.9 293.2 156.7 298.1C157.5 298.4 159 297.8 159.7 297.5C159.9 297.4 161.7 296.7 161.3 296.6C148.6 291.7 137 284.5 127.1 275.2C126.6 274.8 125.1 275.3 124.6 275.5C124.4 275.5 122.1 276.3 122.2 276.5Z" fill="white"/>
</g>
<mask id="mask46_201_739" style="mask-type:luminance" maskUnits="userSpaceOnUse" x="51" y="51" width="398" height="398">
<path d="M250 448.5C359.629 448.5 448.5 359.629 448.5 250C448.5 140.371 359.629 51.5 250 51.5C140.371 51.5 51.5 140.371 51.5 250C51.5 359.629 140.371 448.5 250 448.5Z" fill="white"/>
</mask>
<g mask="url(#mask46_201_739)">
<path d="M186.3 308.1C205.2 314.7 225.1 318.5 245.1 319.3C245.8 319.3 247.3 319 247 318C246.7 317 244.8 316.9 244 316.8C225.3 316 206.7 312.4 189 306.3C188 306 186.5 305.7 185.6 306.4C184.7 307 185.5 307.8 186.3 308.1Z" fill="white"/>
</g>
<mask id="mask47_201_739" style="mask-type:luminance" maskUnits="userSpaceOnUse" x="51" y="51" width="398" height="398">
<path d="M250 448.5C359.629 448.5 448.5 359.629 448.5 250C448.5 140.371 359.629 51.5 250 51.5C140.371 51.5 51.5 140.371 51.5 250C51.5 359.629 140.371 448.5 250 448.5Z" fill="white"/>
</mask>
<g mask="url(#mask47_201_739)">
<path d="M272.7 326.6C289.5 328.3 306.4 329.4 323.3 330C328.2 330.2 333 330.3 337.9 330.4C338.8 330.4 338.9 329.9 338.1 329.5C337.1 328.9 335.8 328.6 334.7 328.6C318 328.3 301.4 327.5 284.8 326.1C280 325.7 275.3 325.3 270.5 324.8C269.9 324.7 268.9 324.7 269.4 325.5C270 326.2 272 326.5 272.7 326.6Z" fill="white"/>
</g>
<mask id="mask48_201_739" style="mask-type:luminance" maskUnits="userSpaceOnUse" x="51" y="51" width="398" height="398">
<path d="M250 448.5C359.629 448.5 448.5 359.629 448.5 250C448.5 140.371 359.629 51.5 250 51.5C140.371 51.5 51.5 140.371 51.5 250C51.5 359.629 140.371 448.5 250 448.5Z" fill="white"/>
</mask>
<g mask="url(#mask48_201_739)">
<path d="M359.2 335.4C372 336.5 384.9 336.7 397.8 336.2C398.9 336.2 398.4 335 398 334.5C397.3 333.7 396.1 332.8 395 332.8C382.1 333.3 369.2 333 356.4 332C355.2 331.9 355.9 333.3 356.2 333.7C356.9 334.6 358.1 335.3 359.2 335.4Z" fill="white"/>
</g>
<mask id="mask49_201_739" style="mask-type:luminance" maskUnits="userSpaceOnUse" x="51" y="51" width="398" height="398">
<path d="M250 448.5C359.629 448.5 448.5 359.629 448.5 250C448.5 140.371 359.629 51.5 250 51.5C140.371 51.5 51.5 140.371 51.5 250C51.5 359.629 140.371 448.5 250 448.5Z" fill="white"/>
</mask>
<g mask="url(#mask49_201_739)">
<path d="M420.2 335.5C435 333.8 449.4 328.6 461.9 320.5C465.4 318.2 468.8 315.6 472 312.8C473 312 468.7 309.8 467.7 310.6C456.5 320.3 443.1 327.3 428.8 330.9C424.8 331.9 420.6 332.6 416.5 333.1C415.4 333.2 416.5 334.3 416.9 334.6C417.8 335.2 419 335.7 420.2 335.5Z" fill="white"/>
</g>
<mask id="mask50_201_739" style="mask-type:luminance" maskUnits="userSpaceOnUse" x="51" y="51" width="398" height="398">
<path d="M250 448.5C359.629 448.5 448.5 359.629 448.5 250C448.5 140.371 359.629 51.5 250 51.5C140.371 51.5 51.5 140.371 51.5 250C51.5 359.629 140.371 448.5 250 448.5Z" fill="white"/>
</mask>
<g mask="url(#mask50_201_739)">
<path d="M347.1 360.7C375.2 362.8 403.1 358.6 430.5 352.9C438.3 351.3 446.2 349.5 454 347.8C455.1 347.6 453.9 346.7 453.5 346.4C452.6 345.9 451.2 345.4 450.2 345.6C423.3 351.6 396.2 357.8 368.6 358.9C360.8 359.2 353 359.1 345.2 358.6C344.6 358.6 343.4 358.5 344 359.4C344.5 360.2 346.2 360.6 347.1 360.7Z" fill="white"/>
</g>
<mask id="mask51_201_739" style="mask-type:luminance" maskUnits="userSpaceOnUse" x="51" y="51" width="398" height="398">
<path d="M250 448.5C359.629 448.5 448.5 359.629 448.5 250C448.5 140.371 359.629 51.5 250 51.5C140.371 51.5 51.5 140.371 51.5 250C51.5 359.629 140.371 448.5 250 448.5Z" fill="white"/>
</mask>
<g mask="url(#mask51_201_739)">
<path d="M52.5 188.5C52.7 206.2 56.6 223.8 63.6 240.1C63.8 240.6 64.6 242.7 65.3 242.7C66 242.7 65.3 241.1 65.2 240.8C58.5 225.4 55.1 208.8 54.9 192.1C54.9 191 54.2 189.8 53.6 188.9C53.4 188.6 52.5 187.5 52.5 188.5Z" fill="white"/>
</g>
<mask id="mask52_201_739" style="mask-type:luminance" maskUnits="userSpaceOnUse" x="51" y="51" width="398" height="398">
<path d="M250 448.5C359.629 448.5 448.5 359.629 448.5 250C448.5 140.371 359.629 51.5 250 51.5C140.371 51.5 51.5 140.371 51.5 250C51.5 359.629 140.371 448.5 250 448.5Z" fill="white"/>
</mask>
<g mask="url(#mask52_201_739)">
<path d="M71.9 257.2C80.6 271.9 90.9 285.7 102.5 298.2C105.8 301.8 109.2 305.2 112.7 308.6C113.8 309.7 117.8 306.8 117.1 306.1C104.7 294.3 93.6 281.1 84 267C81.3 263 78.7 258.9 76.2 254.7C75.6 253.6 71.2 256.1 71.9 257.2Z" fill="white"/>
</g>
<mask id="mask53_201_739" style="mask-type:luminance" maskUnits="userSpaceOnUse" x="51" y="51" width="398" height="398">
<path d="M250 448.5C359.629 448.5 448.5 359.629 448.5 250C448.5 140.371 359.629 51.5 250 51.5C140.371 51.5 51.5 140.371 51.5 250C51.5 359.629 140.371 448.5 250 448.5Z" fill="white"/>
</mask>
<g mask="url(#mask53_201_739)">
<path d="M129.1 314.8C144.7 323.5 160.8 331.2 177.4 337.9C178.3 338.3 179.9 338.6 180.8 338C181.7 337.4 180.8 336.7 180.1 336.4C163.8 329.9 148 322.4 132.8 313.8C131.8 313.2 130.4 313 129.3 313.3C128.4 313.6 128.2 314.3 129.1 314.8Z" fill="white"/>
</g>
<mask id="mask54_201_739" style="mask-type:luminance" maskUnits="userSpaceOnUse" x="51" y="51" width="398" height="398">
<path d="M250 448.5C359.629 448.5 448.5 359.629 448.5 250C448.5 140.371 359.629 51.5 250 51.5C140.371 51.5 51.5 140.371 51.5 250C51.5 359.629 140.371 448.5 250 448.5Z" fill="white"/>
</mask>
<g mask="url(#mask54_201_739)">
<path d="M220.9 346.9C238.9 350.6 257.2 352.4 275.6 352.4C276.7 352.4 277.9 351.8 278.8 351.3C279.1 351.1 280.4 350.1 279.3 350.1C261.1 350.2 243 348.4 225.2 344.7C224.2 344.5 223 345.1 222.2 345.5C222 345.6 220.2 346.8 220.9 346.9Z" fill="white"/>
</g>
<mask id="mask55_201_739" style="mask-type:luminance" maskUnits="userSpaceOnUse" x="51" y="51" width="398" height="398">
<path d="M250 448.5C359.629 448.5 448.5 359.629 448.5 250C448.5 140.371 359.629 51.5 250 51.5C140.371 51.5 51.5 140.371 51.5 250C51.5 359.629 140.371 448.5 250 448.5Z" fill="white"/>
</mask>
<g mask="url(#mask55_201_739)">
<path d="M300.6 357.9C308.8 359 316.9 360.2 325.1 361.3C326.3 361.5 327.5 360.8 328.3 359.9C328.8 359.2 329.1 357.8 327.9 357.6C319.7 356.5 311.6 355.3 303.4 354.2C302.2 354 301 354.7 300.2 355.6C299.7 356.4 299.4 357.8 300.6 357.9Z" fill="white"/>
</g>
<mask id="mask56_201_739" style="mask-type:luminance" maskUnits="userSpaceOnUse" x="51" y="51" width="398" height="398">
<path d="M250 448.5C359.629 448.5 448.5 359.629 448.5 250C448.5 140.371 359.629 51.5 250 51.5C140.371 51.5 51.5 140.371 51.5 250C51.5 359.629 140.371 448.5 250 448.5Z" fill="white"/>
</mask>
<g mask="url(#mask56_201_739)">
<path d="M48.1 247.3C55.7 263 65.3 277.7 76.6 291C78.1 292.8 82.7 291.1 80.8 288.9C69.7 275.9 60.3 261.5 52.9 246.1C51.9 243.9 47 244.9 48.1 247.3Z" fill="white"/>
</g>
<mask id="mask57_201_739" style="mask-type:luminance" maskUnits="userSpaceOnUse" x="51" y="51" width="398" height="398">
<path d="M250 448.5C359.629 448.5 448.5 359.629 448.5 250C448.5 140.371 359.629 51.5 250 51.5C140.371 51.5 51.5 140.371 51.5 250C51.5 359.629 140.371 448.5 250 448.5Z" fill="white"/>
</mask>
<g mask="url(#mask57_201_739)">
<path d="M87.6 305.7C92.8 311.6 98.1 317.5 103.3 323.4C103.7 323.8 105.3 323.3 105.8 323.2C106 323.2 108.3 322.4 108.1 322.2C102.9 316.3 97.6 310.4 92.4 304.5C92 304.1 90.4 304.6 89.9 304.7C89.8 304.8 87.5 305.6 87.6 305.7Z" fill="white"/>
</g>
<mask id="mask58_201_739" style="mask-type:luminance" maskUnits="userSpaceOnUse" x="51" y="51" width="398" height="398">
<path d="M250 448.5C359.629 448.5 448.5 359.629 448.5 250C448.5 140.371 359.629 51.5 250 51.5C140.371 51.5 51.5 140.371 51.5 250C51.5 359.629 140.371 448.5 250 448.5Z" fill="white"/>
</mask>
<g mask="url(#mask58_201_739)">
<path d="M133.1 344.5C147.5 354.1 162.9 363.7 180.5 365C181.7 365.1 181.5 363.7 181.1 363C180.5 362 179.4 361.1 178.3 361C161.8 359.8 147.3 350.6 133.9 341.6C133.2 341.2 131.9 340.6 131.5 341.6C131.1 342.7 132.4 344 133.1 344.5Z" fill="white"/>
</g>
<mask id="mask59_201_739" style="mask-type:luminance" maskUnits="userSpaceOnUse" x="51" y="51" width="398" height="398">
<path d="M250 448.5C359.629 448.5 448.5 359.629 448.5 250C448.5 140.371 359.629 51.5 250 51.5C140.371 51.5 51.5 140.371 51.5 250C51.5 359.629 140.371 448.5 250 448.5Z" fill="white"/>
</mask>
<g mask="url(#mask59_201_739)">
<path d="M200.5 366.2C212.5 370.1 225.1 372.1 237.8 372.2C238.5 372.2 240.3 372 240.3 371C240.3 370 238.5 369.7 237.8 369.7C226 369.6 214.3 367.7 203 364C202 363.7 200.4 363.7 199.6 364.4C198.8 365.3 199.7 365.9 200.5 366.2Z" fill="white"/>
</g>
<mask id="mask60_201_739" style="mask-type:luminance" maskUnits="userSpaceOnUse" x="51" y="51" width="398" height="398">
<path d="M250 448.5C359.629 448.5 448.5 359.629 448.5 250C448.5 140.371 359.629 51.5 250 51.5C140.371 51.5 51.5 140.371 51.5 250C51.5 359.629 140.371 448.5 250 448.5Z" fill="white"/>
</mask>
<g mask="url(#mask60_201_739)">
<path d="M258.9 375.4C275.8 377.8 293 378.5 310 377.4C311.1 377.3 312.6 376.9 313.1 375.8C313.5 374.8 312.5 374.2 311.6 374.3C294.9 375.4 278.1 374.7 261.6 372.4C260.5 372.2 259 372.6 258.3 373.6C257.6 374.3 257.8 375.3 258.9 375.4Z" fill="white"/>
</g>
<mask id="mask61_201_739" style="mask-type:luminance" maskUnits="userSpaceOnUse" x="51" y="51" width="398" height="398">
<path d="M250 448.5C359.629 448.5 448.5 359.629 448.5 250C448.5 140.371 359.629 51.5 250 51.5C140.371 51.5 51.5 140.371 51.5 250C51.5 359.629 140.371 448.5 250 448.5Z" fill="white"/>
</mask>
<g mask="url(#mask61_201_739)">
<path d="M330 379.9C343.1 379 356.1 377.6 369.1 375.6C370.5 375.4 367.8 371.4 366.3 371.6C353.3 373.5 340.3 375 327.2 375.9C326.2 376 327.2 377.7 327.4 378C327.9 378.8 329 380 330 379.9Z" fill="white"/>
</g>
<mask id="mask62_201_739" style="mask-type:luminance" maskUnits="userSpaceOnUse" x="51" y="51" width="398" height="398">
<path d="M250 448.5C359.629 448.5 448.5 359.629 448.5 250C448.5 140.371 359.629 51.5 250 51.5C140.371 51.5 51.5 140.371 51.5 250C51.5 359.629 140.371 448.5 250 448.5Z" fill="white"/>
</mask>
<g mask="url(#mask62_201_739)">
<path d="M404 374.3C414.2 371.4 424.1 367.8 433.8 363.6C434.5 363.3 435.8 362.6 435.1 361.6C434.5 360.8 432.6 361.1 431.9 361.4C422.6 365.5 413.1 369 403.4 371.7C402.6 371.9 401 372.5 401.3 373.5C401.5 374.6 403.4 374.5 404 374.3Z" fill="white"/>
</g>
<mask id="mask63_201_739" style="mask-type:luminance" maskUnits="userSpaceOnUse" x="51" y="51" width="398" height="398">
<path d="M250 448.5C359.629 448.5 448.5 359.629 448.5 250C448.5 140.371 359.629 51.5 250 51.5C140.371 51.5 51.5 140.371 51.5 250C51.5 359.629 140.371 448.5 250 448.5Z" fill="white"/>
</mask>
<g mask="url(#mask63_201_739)">
<path d="M42.4 276.1C55.3 296.2 70 315.2 86.4 332.6C91.1 337.6 95.9 342.4 100.8 347.2C101.5 347.9 103 348.5 103.7 347.7C104.5 346.8 103.5 345.5 102.9 344.8C86.1 328.6 70.7 310.9 57.1 292C53.3 286.7 49.6 281.3 46.1 275.8C45.5 274.9 44.4 273.8 43.2 274C42.1 274 41.9 275.2 42.4 276.1Z" fill="white"/>
</g>
<mask id="mask64_201_739" style="mask-type:luminance" maskUnits="userSpaceOnUse" x="51" y="51" width="398" height="398">
<path d="M250 448.5C359.629 448.5 448.5 359.629 448.5 250C448.5 140.371 359.629 51.5 250 51.5C140.371 51.5 51.5 140.371 51.5 250C51.5 359.629 140.371 448.5 250 448.5Z" fill="white"/>
</mask>
<g mask="url(#mask64_201_739)">
<path d="M128.3 363.5C138.4 369.6 148.9 374.9 159.9 379.5C160.8 379.9 162.3 380.2 162.9 379.1C163.4 378.1 162.3 376.8 161.4 376.4C150.5 371.9 139.9 366.6 129.8 360.4C129 359.9 127.3 359.8 126.8 360.8C126.3 361.9 127.5 363 128.3 363.5Z" fill="white"/>
</g>
<mask id="mask65_201_739" style="mask-type:luminance" maskUnits="userSpaceOnUse" x="51" y="51" width="398" height="398">
<path d="M250 448.5C359.629 448.5 448.5 359.629 448.5 250C448.5 140.371 359.629 51.5 250 51.5C140.371 51.5 51.5 140.371 51.5 250C51.5 359.629 140.371 448.5 250 448.5Z" fill="white"/>
</mask>
<g mask="url(#mask65_201_739)">
<path d="M213.8 392.1C228.2 394.4 242.7 395.6 257.2 395.8C258.3 395.8 256.8 394.9 256.6 394.8C255.6 394.3 254.4 393.9 253.3 393.8C239 393.6 224.8 392.4 210.7 390.1C209.8 390 209.8 390.4 210.4 390.8C211.4 391.6 212.7 391.9 213.8 392.1Z" fill="white"/>
</g>
<mask id="mask66_201_739" style="mask-type:luminance" maskUnits="userSpaceOnUse" x="51" y="51" width="398" height="398">
<path d="M250 448.5C359.629 448.5 448.5 359.629 448.5 250C448.5 140.371 359.629 51.5 250 51.5C140.371 51.5 51.5 140.371 51.5 250C51.5 359.629 140.371 448.5 250 448.5Z" fill="white"/>
</mask>
<g mask="url(#mask66_201_739)">
<path d="M285.2 397.4C301.9 397.4 318.6 397.4 335.3 397.4C336 397.4 337.1 397.1 336.6 396.2C336 395.3 334.4 394.9 333.4 394.9C316.7 394.9 300 394.9 283.3 394.9C282.6 394.9 281.5 395.2 282 396.1C282.5 397 284.2 397.4 285.2 397.4Z" fill="white"/>
</g>
<mask id="mask67_201_739" style="mask-type:luminance" maskUnits="userSpaceOnUse" x="51" y="51" width="398" height="398">
<path d="M250 448.5C359.629 448.5 448.5 359.629 448.5 250C448.5 140.371 359.629 51.5 250 51.5C140.371 51.5 51.5 140.371 51.5 250C51.5 359.629 140.371 448.5 250 448.5Z" fill="white"/>
</mask>
<g mask="url(#mask67_201_739)">
<path d="M353.8 396.7C373.3 394.7 392.5 390.1 410.8 383C413.7 381.9 410.4 378.7 408.2 379.5C390.3 386.5 371.5 391 352.4 393C351.3 393.1 350.4 393.9 350.8 395.1C351.1 396.2 352.6 396.8 353.8 396.7Z" fill="white"/>
</g>
<mask id="mask68_201_739" style="mask-type:luminance" maskUnits="userSpaceOnUse" x="51" y="51" width="398" height="398">
<path d="M250 448.5C359.629 448.5 448.5 359.629 448.5 250C448.5 140.371 359.629 51.5 250 51.5C140.371 51.5 51.5 140.371 51.5 250C51.5 359.629 140.371 448.5 250 448.5Z" fill="white"/>
</mask>
<g mask="url(#mask68_201_739)">
<path d="M95.4 366.3C111 378.8 130 385.7 149 391C154.5 392.5 160 394 165.5 395.4C166.3 395.6 168.1 395.7 168.6 394.9C169.1 394 167.5 393.5 167 393.4C148.6 388.7 129.9 383.9 113.2 374.6C108.5 372 104 369 99.8 365.6C98.9 364.9 97.5 364.7 96.4 364.9C95.8 365 94.4 365.6 95.4 366.3Z" fill="white"/>
</g>
<mask id="mask69_201_739" style="mask-type:luminance" maskUnits="userSpaceOnUse" x="51" y="51" width="398" height="398">
<path d="M250 448.5C359.629 448.5 448.5 359.629 448.5 250C448.5 140.371 359.629 51.5 250 51.5C140.371 51.5 51.5 140.371 51.5 250C51.5 359.629 140.371 448.5 250 448.5Z" fill="white"/>
</mask>
<g mask="url(#mask69_201_739)">
<path d="M188.1 401.7C202.3 406.4 217.1 408.7 232 408.8C232.4 408.8 234.1 408.8 233.8 408.1C233.5 407.4 231.2 407.5 230.8 407.5C217.5 407.4 204.3 405.1 191.7 401C190.6 400.6 189.3 400.5 188.2 400.8C187.3 400.9 187.2 401.4 188.1 401.7Z" fill="white"/>
</g>
<mask id="mask70_201_739" style="mask-type:luminance" maskUnits="userSpaceOnUse" x="51" y="51" width="398" height="398">
<path d="M250 448.5C359.629 448.5 448.5 359.629 448.5 250C448.5 140.371 359.629 51.5 250 51.5C140.371 51.5 51.5 140.371 51.5 250C51.5 359.629 140.371 448.5 250 448.5Z" fill="white"/>
</mask>
<g mask="url(#mask70_201_739)">
<path d="M258.1 412C264.5 412 270.9 412 277.3 412C278.3 412 276.7 411.5 276.5 411.4C275.5 411.1 274.3 410.7 273.2 410.7C266.8 410.7 260.4 410.7 254 410.7C253 410.7 254.6 411.2 254.8 411.3C255.8 411.7 257 412 258.1 412Z" fill="white"/>
</g>
<mask id="mask71_201_739" style="mask-type:luminance" maskUnits="userSpaceOnUse" x="51" y="51" width="398" height="398">
<path d="M250 448.5C359.629 448.5 448.5 359.629 448.5 250C448.5 140.371 359.629 51.5 250 51.5C140.371 51.5 51.5 140.371 51.5 250C51.5 359.629 140.371 448.5 250 448.5Z" fill="white"/>
</mask>
<g mask="url(#mask71_201_739)">
<path d="M297 415.7C306.1 415.4 315.2 414.7 324.2 413.6C324.9 413.5 325.9 413.1 325.1 412.4C324.3 411.7 322.6 411.8 321.7 412C313.1 413.1 304.4 413.7 295.7 414C295.2 414 293.6 414.2 293.9 415C294.3 415.8 296.4 415.8 297 415.7Z" fill="white"/>
</g>
<mask id="mask72_201_739" style="mask-type:luminance" maskUnits="userSpaceOnUse" x="51" y="51" width="398" height="398">
<path d="M250 448.5C359.629 448.5 448.5 359.629 448.5 250C448.5 140.371 359.629 51.5 250 51.5C140.371 51.5 51.5 140.371 51.5 250C51.5 359.629 140.371 448.5 250 448.5Z" fill="white"/>
</mask>
<g mask="url(#mask72_201_739)">
<path d="M341.9 413.5C356 410.6 370.3 408.5 384.7 407.2C385.8 407.1 387.2 406.3 387.3 405.1C387.4 403.9 386 403.4 385 403.5C370.2 404.9 355.5 407.1 340.9 410.1C339.9 410.3 338.7 411.5 339 412.6C339.3 413.7 340.9 413.7 341.9 413.5Z" fill="white"/>
</g>
<mask id="mask73_201_739" style="mask-type:luminance" maskUnits="userSpaceOnUse" x="51" y="51" width="398" height="398">
<path d="M250 448.5C359.629 448.5 448.5 359.629 448.5 250C448.5 140.371 359.629 51.5 250 51.5C140.371 51.5 51.5 140.371 51.5 250C51.5 359.629 140.371 448.5 250 448.5Z" fill="white"/>
</mask>
<g mask="url(#mask73_201_739)">
<path d="M111.9 403.4C134.6 413 158.7 419.2 183.2 421.9C190.1 422.6 197.1 423.1 204 423.3C206.9 423.4 205.7 418.7 203.3 418.6C179 418 154.8 413.9 131.6 406.3C125.1 404.1 118.6 401.7 112.3 399C111.2 398.5 110.1 399.4 110 400.5C109.8 401.7 110.8 402.9 111.9 403.4Z" fill="white"/>
</g>
<mask id="mask74_201_739" style="mask-type:luminance" maskUnits="userSpaceOnUse" x="51" y="51" width="398" height="398">
<path d="M250 448.5C359.629 448.5 448.5 359.629 448.5 250C448.5 140.371 359.629 51.5 250 51.5C140.371 51.5 51.5 140.371 51.5 250C51.5 359.629 140.371 448.5 250 448.5Z" fill="white"/>
</mask>
<g mask="url(#mask74_201_739)">
<path d="M226.1 426.7C236 427 245.9 427.4 255.8 427.7C256.8 427.7 255.7 425.9 255.6 425.6C255 424.8 254.1 423.8 253.1 423.7C243.2 423.4 233.3 423 223.4 422.7C222.4 422.7 223.5 424.5 223.6 424.8C224.1 425.7 225.1 426.7 226.1 426.7Z" fill="white"/>
</g>
<mask id="mask75_201_739" style="mask-type:luminance" maskUnits="userSpaceOnUse" x="51" y="51" width="398" height="398">
<path d="M250 448.5C359.629 448.5 448.5 359.629 448.5 250C448.5 140.371 359.629 51.5 250 51.5C140.371 51.5 51.5 140.371 51.5 250C51.5 359.629 140.371 448.5 250 448.5Z" fill="white"/>
</mask>
<g mask="url(#mask75_201_739)">
<path d="M282.2 431.9C288.8 432.4 295.4 432.3 302 431.4C303.1 431.2 303.7 430.2 303.3 429.1C302.8 428 301.4 427.2 300.2 427.4C294 428.2 287.8 428.4 281.6 427.9C280.5 427.8 279.4 428.5 279.6 429.7C279.7 430.9 281 431.8 282.2 431.9Z" fill="white"/>
</g>
<mask id="mask76_201_739" style="mask-type:luminance" maskUnits="userSpaceOnUse" x="51" y="51" width="398" height="398">
<path d="M250 448.5C359.629 448.5 448.5 359.629 448.5 250C448.5 140.371 359.629 51.5 250 51.5C140.371 51.5 51.5 140.371 51.5 250C51.5 359.629 140.371 448.5 250 448.5Z" fill="white"/>
</mask>
<g mask="url(#mask76_201_739)">
<path d="M316.2 431.7C333.7 429.3 351.1 425.7 368.2 421.1C373 419.8 377.8 418.4 382.6 416.9C385.1 416.1 381.7 412.7 379.9 413.2C363 418.4 345.7 422.6 328.3 425.6C323.4 426.5 318.5 427.2 313.5 427.9C312.3 428.1 312.6 429.4 313.1 430.1C313.7 431.2 315 431.8 316.2 431.7Z" fill="white"/>
</g>
<mask id="mask77_201_739" style="mask-type:luminance" maskUnits="userSpaceOnUse" x="51" y="51" width="398" height="398">
<path d="M250 448.5C359.629 448.5 448.5 359.629 448.5 250C448.5 140.371 359.629 51.5 250 51.5C140.371 51.5 51.5 140.371 51.5 250C51.5 359.629 140.371 448.5 250 448.5Z" fill="white"/>
</mask>
<g mask="url(#mask77_201_739)">
<path d="M155.4 430.1C171.1 437.2 188.1 441.7 205.2 443.2C210.2 443.6 215.2 443.8 220.1 443.8C221.1 443.8 222.5 443.1 222.5 441.9C222.5 440.6 220.9 440.3 219.9 440.3C203.3 440.4 186.6 437.6 170.9 432.2C166.4 430.6 162 428.9 157.6 426.9C155.4 425.9 152.4 428.7 155.4 430.1Z" fill="white"/>
</g>
<mask id="mask78_201_739" style="mask-type:luminance" maskUnits="userSpaceOnUse" x="51" y="51" width="398" height="398">
<path d="M250 448.5C359.629 448.5 448.5 359.629 448.5 250C448.5 140.371 359.629 51.5 250 51.5C140.371 51.5 51.5 140.371 51.5 250C51.5 359.629 140.371 448.5 250 448.5Z" fill="white"/>
</mask>
<g mask="url(#mask78_201_739)">
<path d="M242 445.8C254.3 447.4 266.9 448.9 279.2 446.9C280.3 446.7 279.5 445.7 279 445.3C278.2 444.6 276.9 443.9 275.8 444C263.7 445.9 251.5 444.4 239.4 442.9C238.4 442.8 238.2 443.5 238.7 444.2C239.6 445.1 240.9 445.7 242 445.8Z" fill="white"/>
</g>
<mask id="mask79_201_739" style="mask-type:luminance" maskUnits="userSpaceOnUse" x="51" y="51" width="398" height="398">
<path d="M250 448.5C359.629 448.5 448.5 359.629 448.5 250C448.5 140.371 359.629 51.5 250 51.5C140.371 51.5 51.5 140.371 51.5 250C51.5 359.629 140.371 448.5 250 448.5Z" fill="white"/>
</mask>
<g mask="url(#mask79_201_739)">
<path d="M293.7 447.1C310.6 445.2 327.5 442.6 344.2 439.4C345.2 439.2 346.6 438.3 346.9 437.3C347.2 436.2 346.1 436.2 345.3 436.4C328.9 439.5 312.4 442 295.8 443.9C294.7 444 293.4 444.7 292.8 445.7C292.4 446.5 292.7 447.2 293.7 447.1Z" fill="white"/>
</g>
</svg>
