<svg width="500" height="500" viewBox="0 0 500 500" fill="none" xmlns="http://www.w3.org/2000/svg">
<mask id="mask0_201_669" style="mask-type:luminance" maskUnits="userSpaceOnUse" x="51" y="51" width="398" height="398">
<path d="M250 448.5C359.629 448.5 448.5 359.629 448.5 250C448.5 140.371 359.629 51.5 250 51.5C140.371 51.5 51.5 140.371 51.5 250C51.5 359.629 140.371 448.5 250 448.5Z" fill="white"/>
</mask>
<g mask="url(#mask0_201_669)">
<path d="M102.4 421.6C110 398.8 117.5 375.9 125.1 353.1C132.6 330.4 140.1 307.6 147.7 284.9C154.7 263.6 161.5 242 172.8 222.6C182.5 205.9 195.4 190.9 211.2 179.8C227.9 168.1 247.9 161 268.3 160.8C288 160.6 306.7 167.7 322.2 179.6C338 191.7 350.2 207.9 359.8 225.2C370.5 244.5 378.2 265.2 386.1 285.7C394.7 308 403.4 330.3 412 352.7C420.7 375.1 429.3 397.6 438 420C440.1 425.5 442.2 430.9 444.4 436.4C444.8 437.5 446 438.3 447.2 438.4C448.1 438.5 449.4 438 449 436.9C440.2 414.1 431.4 391.4 422.6 368.6C413.8 345.7 404.9 322.9 396.1 300C387.9 278.8 380.1 257.2 370.2 236.7C361.1 218 349.8 200.1 334.6 185.8C320.4 172.4 303.1 162.2 283.7 158.6C263.2 154.8 241.5 158.5 222.9 167.6C205 176.3 189.9 189.8 178 205.7C164.9 223.2 156.6 243.3 149.5 263.8C141.6 286.7 134.2 309.8 126.6 332.9C118.9 356.1 111.3 379.2 103.6 402.4C101.7 408.1 99.8 413.8 98 419.5C97.2 421.5 101.7 423.6 102.4 421.6Z" fill="white"/>
</g>
<mask id="mask1_201_669" style="mask-type:luminance" maskUnits="userSpaceOnUse" x="51" y="51" width="398" height="398">
<path d="M250 448.5C359.629 448.5 448.5 359.629 448.5 250C448.5 140.371 359.629 51.5 250 51.5C140.371 51.5 51.5 140.371 51.5 250C51.5 359.629 140.371 448.5 250 448.5Z" fill="white"/>
</mask>
<g mask="url(#mask1_201_669)">
<path d="M132.6 424.7C140.1 406.1 147.7 387.5 155.2 368.8C162.5 350.8 169.3 332.6 174.4 313.8C179.3 295.8 183.2 277.6 189.2 259.9C194.4 244.5 201.5 229.8 211.7 217C221 205.4 233 195.6 247.1 190.7C255.4 187.8 264.5 186.3 273.1 188.9C281.4 191.4 288.3 197.1 294.8 202.4C308.5 213.5 321.3 225.9 331.4 240.4C336.7 248 341.1 256.3 345.3 264.6C349.5 273.2 353.6 281.9 357.5 290.7C365.6 308.4 373.2 326.3 380.5 344.3C387.8 362.4 394.7 380.7 401.3 399.1C402.9 403.5 404.4 408 405.9 412.4C406.3 413.6 407.2 414.7 408.6 414.6C409.8 414.5 410.6 413.3 410.2 412.2C403.8 393.4 396.9 374.8 389.7 356.3C382.5 337.9 374.8 319.6 366.8 301.5C362.8 292.4 358.6 283.3 354.4 274.2C350.3 265.5 346.2 256.9 341.4 248.6C332.1 232.6 319.9 218.9 306.2 206.7C299.5 200.8 292.6 194.8 285.1 190C281.4 187.6 277.5 185.7 273.4 184.4C268.9 183 264 182.6 259.3 183.1C243.4 184.5 228.6 192.8 217.3 203.6C206 214.4 197.4 227.8 191.1 242C183.4 259.3 178.9 277.8 174.2 296.2C171.9 305.4 169.5 314.6 166.7 323.7C163.7 333.3 160.3 342.7 156.7 352.1C149.4 371 141.6 389.8 134 408.6C132.1 413.2 130.2 417.9 128.4 422.5C127.3 425 131.4 427.5 132.6 424.7Z" fill="white"/>
</g>
<mask id="mask2_201_669" style="mask-type:luminance" maskUnits="userSpaceOnUse" x="51" y="51" width="398" height="398">
<path d="M250 448.5C359.629 448.5 448.5 359.629 448.5 250C448.5 140.371 359.629 51.5 250 51.5C140.371 51.5 51.5 140.371 51.5 250C51.5 359.629 140.371 448.5 250 448.5Z" fill="white"/>
</mask>
<g mask="url(#mask2_201_669)">
<path d="M156.2 444.6C161.4 427.8 167 411.1 172.8 394.4C178.6 377.9 184.7 361.4 191 345.1C197.4 328.7 204 312.4 211 296.2C217.1 281.9 223.2 267.6 231.2 254.2C235 247.9 239.2 241.8 244 236.2C246.4 233.4 249 230.7 251.7 228.2C254.4 225.7 257.4 222.9 260.9 221.4C268.5 218.2 275.8 224.7 281.3 229.3C286.8 233.9 292 239.1 296.7 244.6C306.4 256 314.4 268.7 321.6 281.9C329.3 296 336.2 310.6 342.9 325.2C350.2 341 357 357.1 363.5 373.3C369.9 389.4 376 405.7 381.6 422.1C383 426.2 384.4 430.2 385.7 434.3C386 435.3 387.2 436.4 388.2 436.8C389.1 437.2 389.5 436.8 389.2 435.9C383.7 419 377.7 402.3 371.3 385.8C364.9 369.3 358.2 353 351 336.8C344.1 321.3 336.9 305.9 329.1 290.9C322 277.2 314.3 263.9 305 251.6C300.3 245.5 295.3 239.6 289.8 234.2C287.1 231.5 284.2 228.9 281.3 226.5C278.2 224 275 221.4 271.5 219.4C268.2 217.5 264.2 216.1 260.4 216.9C256.6 217.7 253.4 220.4 250.5 222.9C244.8 227.8 239.8 233.4 235.4 239.5C226.4 251.8 219.7 265.6 213.6 279.4C206.5 295.4 199.8 311.6 193.3 327.9C186.6 344.6 180.3 361.3 174.2 378.2C168.1 395.1 162.4 412.1 156.9 429.1C155.6 433.2 154.3 437.4 153 441.5C152.1 442.9 155.8 446 156.2 444.6Z" fill="white"/>
</g>
<mask id="mask3_201_669" style="mask-type:luminance" maskUnits="userSpaceOnUse" x="51" y="51" width="398" height="398">
<path d="M250 448.5C359.629 448.5 448.5 359.629 448.5 250C448.5 140.371 359.629 51.5 250 51.5C140.371 51.5 51.5 140.371 51.5 250C51.5 359.629 140.371 448.5 250 448.5Z" fill="white"/>
</mask>
<g mask="url(#mask3_201_669)">
<path d="M183.5 450.6C194.3 423.2 205 395.8 215.8 368.4C221.2 354.6 226.6 340.8 232.1 327.1C234.8 320.3 237.5 313.5 240.1 306.7C242.6 300.4 245 294.1 247.8 287.9C250.6 281.7 253.7 275.7 257.6 270.2C260.7 265.8 265.4 261.2 270.9 260.3C273.5 259.9 275.3 260.6 277 262.5C279.2 264.9 281.1 267.6 283 270.1C287 275.4 290.7 280.9 294.3 286.5C308.7 309 320.4 333.1 331.7 357.3C344.1 383.7 356.5 410.2 368.9 436.7C370.5 440 372 443.3 373.6 446.6C374.1 447.6 375.5 448.3 376.5 448.5C377.1 448.7 378.4 448.7 377.9 447.7C365.1 420.4 352.3 393.2 339.5 365.9C327.9 341.1 316.3 316.3 301.9 293C298.4 287.2 294.6 281.6 290.7 276.1C288.7 273.3 286.7 270.5 284.5 267.7C282.5 265 280.5 262.2 277.7 260.2C275.2 258.4 272.2 257.2 269.2 257.3C266.4 257.3 263.7 258.3 261.4 259.8C256.1 263.1 252.5 268.3 249.4 273.6C242.3 285.7 237.7 299.1 232.6 312.1C227.1 326.1 221.6 340.1 216.1 354.1C205.1 382.1 194.1 410.2 183 438.2C181.7 441.6 180.3 445 179 448.4C178.5 449.6 183 451.8 183.5 450.6Z" fill="white"/>
</g>
<mask id="mask4_201_669" style="mask-type:luminance" maskUnits="userSpaceOnUse" x="51" y="51" width="398" height="398">
<path d="M250 448.5C359.629 448.5 448.5 359.629 448.5 250C448.5 140.371 359.629 51.5 250 51.5C140.371 51.5 51.5 140.371 51.5 250C51.5 359.629 140.371 448.5 250 448.5Z" fill="white"/>
</mask>
<g mask="url(#mask4_201_669)">
<path d="M205.7 457.6C215 435 224.3 412.5 233.6 389.9C238.3 378.6 242.9 367.3 247.6 356C252.1 345.2 256.4 334.4 261.2 323.7C263.5 318.5 266 313.4 268.7 308.3C270.1 305.8 271.5 303.2 272.9 300.8C273.5 299.8 274.1 298.8 274.9 298C275.1 297.8 275.4 297.6 275.6 297.4C275.7 297.4 275.7 297.3 275.8 297.3C276.3 297 276 297 274.7 297.3C274.7 297.4 275.2 297.6 275.2 297.7C275.5 297.9 275.7 298.3 275.9 298.6C277.4 300.9 278.8 303.5 280.2 305.9C281.6 308.4 283.1 310.9 284.5 313.4C287.3 318.2 290.1 323.1 292.9 328C304.2 347.8 315.3 367.7 325.5 388.1C335.7 408.5 345 429.3 352.8 450.7C353.8 453.3 354.7 456 355.6 458.6C356.1 460.1 361 459.1 360.5 457.9C352.9 435.8 343.5 414.2 333.2 393.2C322.9 372.2 311.7 351.8 300.2 331.5C294.4 321.3 288.5 311.1 282.6 301C281.3 298.8 280.3 296.1 277.6 295.5C274.9 294.9 272.1 296.1 270.3 298C268.5 299.9 267.3 302.4 266 304.7C264.5 307.3 263.2 309.9 261.8 312.5C256.5 323 252 334 247.5 344.9C242.7 356.5 237.9 368.1 233.1 379.8C223.5 403 214 426.1 204.4 449.3C203.2 452.1 202 455 200.9 457.8C200.3 459.1 205.1 459 205.7 457.6Z" fill="white"/>
</g>
<mask id="mask5_201_669" style="mask-type:luminance" maskUnits="userSpaceOnUse" x="51" y="51" width="398" height="398">
<path d="M250 448.5C359.629 448.5 448.5 359.629 448.5 250C448.5 140.371 359.629 51.5 250 51.5C140.371 51.5 51.5 140.371 51.5 250C51.5 359.629 140.371 448.5 250 448.5Z" fill="white"/>
</mask>
<g mask="url(#mask5_201_669)">
<path d="M230.5 465.1C239.3 447.7 246.4 429.4 251.9 410.7C254.4 401.9 256.5 393 258.5 384.1C260.3 376.2 262.2 368.3 265.6 360.9C267.2 357.4 269.1 353.9 271.6 350.9C272.8 349.4 274.1 347.9 275.5 346.6C276.2 345.9 276.9 345.3 277.7 344.8C278.1 344.6 278.5 344.3 279 344.3C279.2 344.3 279.1 344.2 279.4 344.5C280.9 345.9 281.9 347.9 282.9 349.6C284.2 351.7 285.4 353.8 286.7 355.9C289.1 360 291.4 364.1 293.7 368.3C302.9 385.2 311 402.8 318.4 420.6C325.8 438.4 332.6 456.4 339.3 474.5C340.1 476.7 341 479 341.8 481.2C342.2 482.4 343.6 482.9 344.7 482.8C345.6 482.7 347.1 481.9 346.7 480.7C339.8 462 332.8 443.3 325.2 424.8C317.7 406.5 309.6 388.4 300.3 371C295.6 362.2 290.7 353.6 285.4 345.2C284.2 343.4 282.8 341.6 280.6 341.1C278.1 340.4 275.6 341.2 273.6 342.7C270.2 345.2 267.5 348.6 265.2 352C260.6 358.9 257.9 366.8 255.8 374.7C253.5 383.3 251.9 392.1 249.6 400.7C244.6 420.1 237.7 439.1 229.1 457.2C228 459.4 226.9 461.7 225.8 463.9C224.7 465.9 229.5 467.2 230.5 465.1Z" fill="white"/>
</g>
<mask id="mask6_201_669" style="mask-type:luminance" maskUnits="userSpaceOnUse" x="51" y="51" width="398" height="398">
<path d="M250 448.5C359.629 448.5 448.5 359.629 448.5 250C448.5 140.371 359.629 51.5 250 51.5C140.371 51.5 51.5 140.371 51.5 250C51.5 359.629 140.371 448.5 250 448.5Z" fill="white"/>
</mask>
<g mask="url(#mask6_201_669)">
<path d="M262.3 465.2C266.6 455.6 267.3 445 269.1 434.8C270.9 424.5 273.7 414.3 277.4 404.5C279.3 399.5 281.5 394.7 283.9 389.9C284.3 389 284.7 388.1 285.4 387.3C285.6 387 285.8 387 286 386.8C285.9 386.9 285.7 386.5 286 386.9C287.3 388.8 288.1 391 289.1 393.1C293.7 403.3 298.1 413.5 302.3 423.8C307 435.4 311.5 447.2 315.8 459C316.2 460.2 317.3 461.2 318.7 461.1C319.8 461 320.9 459.9 320.4 458.7C312.4 436.4 303.6 414.5 293.9 392.9C292.2 389.1 289.7 380.7 284 382.4C281.5 383.1 280.5 385.7 279.4 387.9C278.2 390.3 277 392.8 275.9 395.3C271.4 405.5 268 416.1 265.7 427C263.2 439 262.9 451.9 257.8 463.2C256.6 465.7 261.1 467.8 262.3 465.2Z" fill="white"/>
</g>
<mask id="mask7_201_669" style="mask-type:luminance" maskUnits="userSpaceOnUse" x="51" y="51" width="398" height="398">
<path d="M250 448.5C359.629 448.5 448.5 359.629 448.5 250C448.5 140.371 359.629 51.5 250 51.5C140.371 51.5 51.5 140.371 51.5 250C51.5 359.629 140.371 448.5 250 448.5Z" fill="white"/>
</mask>
<g mask="url(#mask7_201_669)">
<path d="M284.4 464.7C283.2 451.4 285.4 437.8 290.8 425.5C289.5 425.2 288.2 424.9 286.8 424.6C293.4 436.2 299 448.3 303.8 460.8C304.2 461.9 305.5 462.8 306.7 462.8C307.8 462.8 308.5 461.8 308.1 460.8C303.2 448 297.3 435.5 290.5 423.6C290 422.7 287.2 421.2 286.5 422.7C280.8 435.6 278.5 449.7 279.7 463.7C280 465.9 284.6 467.4 284.4 464.7Z" fill="white"/>
</g>
<mask id="mask8_201_669" style="mask-type:luminance" maskUnits="userSpaceOnUse" x="51" y="51" width="398" height="398">
<path d="M250 448.5C359.629 448.5 448.5 359.629 448.5 250C448.5 140.371 359.629 51.5 250 51.5C140.371 51.5 51.5 140.371 51.5 250C51.5 359.629 140.371 448.5 250 448.5Z" fill="white"/>
</mask>
<g mask="url(#mask8_201_669)">
<path d="M77.4 395.6C82.6 374 88.7 352.7 95.8 331.7C103 310.7 111.2 290.1 120.8 270.1C130.4 250.1 141.3 230.8 153.8 212.5C166 194.6 179.4 177 195.5 162.3C203.5 155 212.2 148.5 221.9 143.6C232.4 138.3 243.7 135 255.2 133C261.1 132 267 131.2 272.9 130.6C279 130 285.3 129.7 291.3 131.2C302.3 133.8 311.8 141.6 320.2 148.8C336.9 163.1 351.8 179.9 365.5 197.1C378.8 213.8 391 231.5 401.8 250C412.6 268.5 422.1 287.7 430.2 307.5C438.3 327.3 444.9 347.7 450.1 368.5C451.4 373.6 452.5 378.8 453.6 383.9C453.8 385 454.4 386.4 455.6 386.8C456.6 387.1 457.1 386.1 457 385.1C452.5 363.7 446.5 342.7 439 322.2C431.5 301.7 422.5 281.7 412.2 262.5C401.8 243.3 390.1 224.8 377.1 207.2C364 189.5 349.6 172.6 334 157.1C325.7 148.9 316.9 141 307.2 134.5C302.5 131.4 297.5 128.6 292.1 127C286.2 125.3 280.1 125.3 274 125.7C250.7 127.5 227.3 132.8 207.8 146.2C189.7 158.6 175.2 175.7 162 193.1C148.5 211 136.7 230 126.2 249.8C115.7 269.7 106.6 290.3 98.7 311.4C90.8 332.6 84 354.3 78.3 376.1C76.9 381.5 75.5 386.9 74.2 392.3C73.9 393.4 74.4 394.8 75.2 395.6C75.8 396.1 77.1 396.7 77.4 395.6Z" fill="white"/>
</g>
<mask id="mask9_201_669" style="mask-type:luminance" maskUnits="userSpaceOnUse" x="51" y="51" width="398" height="398">
<path d="M250 448.5C359.629 448.5 448.5 359.629 448.5 250C448.5 140.371 359.629 51.5 250 51.5C140.371 51.5 51.5 140.371 51.5 250C51.5 359.629 140.371 448.5 250 448.5Z" fill="white"/>
</mask>
<g mask="url(#mask9_201_669)">
<path d="M62.4 365.1C76.2 323.9 93.7 284 114.6 245.9C125.1 226.7 136.4 207.9 148.8 189.9C160.9 172.2 175 156.4 191.9 143.2C224 118.1 268.4 96.5002 309.3 112.4C328.4 119.8 342.3 136.6 354.9 152.1C368 168.3 380.5 184.8 392.3 202C416.1 236.5 436.8 273.3 451.6 312.5C453.4 317.3 455.1 322.1 456.8 327C457 327.6 458.3 328.2 458.8 328.5C459.1 328.6 461.1 329.4 461.1 329.5C447.5 289 427.5 250.9 404 215.3C392.2 197.4 379.4 180 366.1 163.1C353.6 147.3 340.9 131.1 324 119.7C315.8 114.2 306.7 109.8 297.1 107.3C286.8 104.6 276.1 104.1 265.5 105.1C244 107.3 223.9 116.3 205.9 127.7C187.6 139.3 170.8 153.4 157.1 170.2C143 187.5 131.2 206.9 119.9 226.2C97.4 264.6 78.5 305.1 63.4 347C61.6 352.1 59.8 357.3 58 362.5C57.9 363.3 62.4 365.2 62.4 365.1Z" fill="white"/>
</g>
<mask id="mask10_201_669" style="mask-type:luminance" maskUnits="userSpaceOnUse" x="51" y="51" width="398" height="398">
<path d="M250 448.5C359.629 448.5 448.5 359.629 448.5 250C448.5 140.371 359.629 51.5 250 51.5C140.371 51.5 51.5 140.371 51.5 250C51.5 359.629 140.371 448.5 250 448.5Z" fill="white"/>
</mask>
<g mask="url(#mask10_201_669)">
<path d="M50.6 338.7C66 296.3 82.9 254.1 105.3 214.8C116.3 195.5 128.4 176.6 142.7 159.7C156.6 143.2 173.1 129.2 191.8 118.5C209.9 108.1 229.9 100.3 250.4 95.8C270.3 91.5 291.6 90.3 311.2 96.6C331.7 103.1 347 118.7 361.6 133.8C376.1 148.8 389.5 164.9 401.8 181.8C426.1 215.1 445.9 251.8 460.5 290.4C462.3 295.2 464.1 300.1 465.7 305C466 305.8 467 307.3 468 307.2C469.1 307 468.8 305.6 468.5 304.9C454.9 264.8 435.8 226.8 412 191.8C400.1 174.4 387.1 157.7 373 142.1C365.9 134.2 358.5 126.5 350.9 119.2C343 111.6 334.8 104.2 325.1 98.8C306.9 88.7 285.6 86.5 265.2 88.7C244.3 91 223.7 97.4 204.7 106.3C185.4 115.3 167.5 127.3 152.4 142.2C136.3 158.1 123.1 176.8 111.2 196.1C87.2 235 69.2 277.3 53.1 320.1C51.1 325.3 49.2 330.6 47.3 335.9C46.7 337.2 49.8 341 50.6 338.7Z" fill="white"/>
</g>
<mask id="mask11_201_669" style="mask-type:luminance" maskUnits="userSpaceOnUse" x="51" y="51" width="398" height="398">
<path d="M250 448.5C359.629 448.5 448.5 359.629 448.5 250C448.5 140.371 359.629 51.5 250 51.5C140.371 51.5 51.5 140.371 51.5 250C51.5 359.629 140.371 448.5 250 448.5Z" fill="white"/>
</mask>
<g mask="url(#mask11_201_669)">
<path d="M34.7 313.5C46.7 272.9 69.3 236.6 93.4 202.2C105.7 184.6 118 166.8 131.5 150.1C144.2 134.4 158.8 120.7 176 110C208.7 89.6999 247.7 80.2999 286 80.0999C297.3 79.9999 308.7 80.5999 319.7 83.1999C329.2 85.3999 338.2 88.9999 346.7 93.5999C364.5 103.3 379.5 117.4 392.3 133.1C405.8 149.7 417.1 168.1 428.2 186.4C439.5 205 450.4 224.1 458.1 244.5C460 249.4 461.6 254.3 463.1 259.4C463.4 260.4 464.5 261.7 465.6 261.9C466.6 262.1 467.2 261.7 466.9 260.7C460.7 239.4 450.7 219.5 439.6 200.3C428.7 181.4 417.2 162.6 404.4 144.8C380.3 111.4 347.6 81.8999 305.1 77.1999C284.8 74.8999 263.7 76.1999 243.6 79.7999C224.4 83.1999 205.7 89.0999 188.2 97.6999C170.5 106.5 154.2 118.1 140.5 132.3C125.3 148.1 112.8 166.4 100.1 184.1C75.2 218.9 50.7 254.8 35.9 295.2C34.1 300.2 32.4 305.3 30.9 310.4C30.3 312.1 34.1 315.3 34.7 313.5Z" fill="white"/>
</g>
<mask id="mask12_201_669" style="mask-type:luminance" maskUnits="userSpaceOnUse" x="51" y="51" width="398" height="398">
<path d="M250 448.5C359.629 448.5 448.5 359.629 448.5 250C448.5 140.371 359.629 51.5 250 51.5C140.371 51.5 51.5 140.371 51.5 250C51.5 359.629 140.371 448.5 250 448.5Z" fill="white"/>
</mask>
<g mask="url(#mask12_201_669)">
<path d="M30.8 259.9C44.1 225.8 63.6 194.5 85.8 165.5C96.9 150.9 108.6 136.7 120.9 123.1C133.2 109.6 146.9 97.9 163.3 89.6C178.9 81.7 195.7 76.7 212.7 73.1C230.6 69.3 248.8 66.4 266.9 64.3C285.6 62.1 304.2 62.5 322.7 66.5C340.4 70.4 357.4 77.2 372.8 86.7C401.1 104.1 423.8 130.5 436.9 161C438.5 164.8 440 168.7 441.4 172.6C441.9 174 446.6 173.3 446.4 172.6C435.4 140.6 414.5 112.3 387 92.5C357.4 71.1 320.5 60.2 284.1 61.4C273.6 61.7 263.2 63.1 252.8 64.6C243.6 65.9 234.5 67.3 225.3 68.9C207.8 72 190.4 75.9 173.8 82.4C157.2 88.9 141.8 97.9 128.7 110C114.7 122.9 102.5 138 90.6 152.8C67.2 182 46 213.4 30.9 247.7C29.1 251.8 27.4 255.9 25.8 260C25.6 260.5 30.2 261.3 30.8 259.9Z" fill="white"/>
</g>
<mask id="mask13_201_669" style="mask-type:luminance" maskUnits="userSpaceOnUse" x="51" y="51" width="398" height="398">
<path d="M250 448.5C359.629 448.5 448.5 359.629 448.5 250C448.5 140.371 359.629 51.5 250 51.5C140.371 51.5 51.5 140.371 51.5 250C51.5 359.629 140.371 448.5 250 448.5Z" fill="white"/>
</mask>
<g mask="url(#mask13_201_669)">
<path d="M46.7 182.3C57.7 162.7 70.4 144 85.1 127C99.7 110.2 116.4 95.1 135.2 83.2C155.4 70.3 177.7 61.6 201.2 56.9C227 51.7 253.5 50.9 279.8 51.4C286.4 51.5 293.1 51.7 299.7 52C306.3 52.3 312.9 52.6 319.4 53.8C330.2 55.7 342 60.1 348.8 69.2C350.2 71.2 351.4 73.4 352.2 75.7C352.6 76.8 353.3 77.8 354.1 78.5C354.3 78.7 355.7 79.7 355.3 78.7C351.6 68.2 343.1 59.7 333.1 54.9C321.2 49.1 307.7 48.4 294.7 47.9C267.8 46.9 240.6 46.7 213.9 50.3C188.9 53.7 164.6 60.9 142.4 73.2C122.4 84.3 104.5 99 88.8 115.6C73 132.4 59.4 151.2 47.8 171.1C46.4 173.5 45 176 43.6 178.4C43 179.5 46.6 182.6 46.7 182.3Z" fill="white"/>
</g>
</svg>
