<svg width="500" height="500" viewBox="0 0 500 500" fill="none" xmlns="http://www.w3.org/2000/svg">
<g clip-path="url(#clip0_201_708)">
<mask id="mask0_201_708" style="mask-type:luminance" maskUnits="userSpaceOnUse" x="51" y="51" width="398" height="398">
<path d="M250 448.5C359.629 448.5 448.5 359.629 448.5 250C448.5 140.371 359.629 51.5 250 51.5C140.371 51.5 51.5 140.371 51.5 250C51.5 359.629 140.371 448.5 250 448.5Z" fill="white"/>
</mask>
<g mask="url(#mask0_201_708)">
<path d="M163.3 -1.60004C158.6 39.4 145.6 79.3 125.4 115.2C115.4 133 103.6 149.9 90.2002 165.3C77.3002 180 62.5002 193.5 45.3002 203C37.0002 207.6 28.1002 211.4 18.9002 213.6C16.9002 214.1 14.1002 214.8 12.2002 213.7C10.1002 212.5 9.90022 208.1 9.50022 205.9C8.50022 200.6 7.70022 195.3 7.90022 189.9C8.20022 180.6 12.1002 172.4 19.5002 166.8C25.9002 161.9 33.8002 159.3 41.6002 157.5C50.3002 155.4 59.3002 154.4 68.1002 152.9C78.7002 151.1 89.2002 148.7 99.6002 145.9C120.5 140.3 141 132.7 160.5 123.3C195.9 106.3 237.1 82.1 245.6 40.4C246.6 35.5 247 30.5 246.8 25.5C246.8 24.1 245.1 21.7 243.4 22.4C231.1 27.8 221.1 36.8 212.2 46.6C204.4 55 197.4 64.1 190.7 73.4C177.2 92.5 165.7 112.9 154.3 133.4C132.2 173.3 110 215.2 74.2002 244.7C50.0002 264.8 20.5002 276.1 -9.39978 285.3C-8.29978 286.1 -7.09978 287 -5.99978 287.8C-8.29978 260.6 16.0002 241.6 38.0002 231.3C50.0002 225.7 62.4002 221.1 74.6002 216.1C86.4002 211.3 98.2002 206.4 109.9 201.4C157.2 181.1 203.8 158.2 246.1 128.5C267.1 113.7 287.4 97.2 305.2 78.6C309 74.6 313 69.7 313 63.9C313 59.2 310.6 54.2 306.3 52C301 49.3 294.8 52.2 290.2 54.9C284.9 58 280.4 62 276.2 66.4C257 86.6 242.4 110.7 228 134.3C213.4 158.3 198.7 182.2 182.6 205.3C152.1 248.8 115.7 289.5 69.5002 316.6C58.6002 323 47.2002 328.6 35.4002 333.1C30.0002 335.2 23.4002 338.4 17.4002 337.2C11.0002 336 11.0002 328 11.7002 322.8C13.2002 311.9 20.9002 303 29.1002 296.3C38.7002 288.5 49.8002 283 60.8002 277.5C111.8 251.9 165.6 232 215.1 203.4C237.4 190.5 258.8 176 278 158.8C287.7 150.2 296.9 140.9 305.1 130.9C306.7 128.9 308.3 126.8 308.2 124.1C308.1 121.5 306.7 119.2 304.9 117.4C300.5 113.2 294.3 113.6 289.2 116.3C268.5 127.2 260 152.2 251.1 172.2C240.9 195.2 228.3 217.2 213.5 237.5C198.8 257.7 181.9 276.5 163.3 293.2C144.1 310.5 122.9 326.6 99.3002 337.5C87.6002 342.9 75.2002 346.8 62.3002 348.4C63.3002 349.3 64.3002 350.2 65.2002 351C62.1002 338.2 69.6002 325.6 79.5002 317.9C90.7002 309.2 105 305.8 118.4 301.8C144.2 293.9 169.1 283 192.8 270.1C240.8 243.9 283.8 209.4 323.8 172.3C334 162.9 344 153.3 353.8 143.6C358.7 138.8 363.6 133.9 368.5 129C373.2 124.3 378.1 119.7 381.9 114.2C388.1 105.3 389.8 92.7 381.4 84.5C377.3 80.5 371.7 79.2 366.2 80.8C359.7 82.7 354.6 87.9 350 92.6C330.8 112.4 316.9 136.4 303.6 160.3C289.4 185.8 274.9 210.9 258.1 234.9C241.2 259.1 222.7 282.1 202.7 303.8C184.3 323.7 164 343 139.3 354.9C133.5 357.7 127.5 360.1 121.3 362C122.4 362.8 123.6 363.7 124.7 364.5C123.6 353 132 344 140.7 337.7C151.4 329.9 163.9 324.7 175.6 318.6C202.2 304.7 228.1 289.6 253.4 273.5C278.5 257.5 303.2 240.5 326.6 222.1C338.2 213 349.5 203.5 360.3 193.4C370.4 184.1 380.6 174.5 388.6 163.3C392.2 158.2 395.4 152.8 397.6 147C399.5 141.8 401.4 135.7 400.1 130.1C399.1 125.5 395.6 121.2 390.5 121.5C387.5 121.7 384.6 123.4 382.1 124.7C379.4 126.1 376.8 127.6 374.3 129.3C354.5 142.4 341.4 163.3 330.2 183.7C324.2 194.7 318.6 205.8 312.6 216.8C305.9 229.1 298.8 241.1 291.3 252.9C276.1 276.9 259.5 300 241.5 322C223.7 343.7 204.7 364.4 184.3 383.6C164.7 402.1 143.1 419.2 118.4 430.4C112.4 433.1 106.3 435.4 100 437.4C100.8 437.7 101.7 438 102.5 438.3C93.7002 429.6 96.9002 414.6 104 405.9C112.8 395.1 126.8 390.3 139.4 385.7C169.9 374.5 199.8 362 229.2 348.1C257.5 334.7 285.5 320.4 312.3 304.3C337.3 289.3 361.4 272.5 382.4 252.1C404.6 230.5 426.9 203 427.9 170.5C427.9 169.1 426.5 167.2 424.9 167.4C385.2 172.1 365 210.9 347.7 242.1C329.3 275.5 308.9 308.1 284.8 337.7C273 352.2 260.3 366 246.6 378.7C239.6 385.2 232.4 391.4 225 397.2C221.7 399.8 218.4 402.2 214.5 403.8C211.4 405.1 207.1 406.3 204 404.6C200 402.5 201.1 397 203 393.9C205.4 389.9 209.8 387.8 214 386.2C223.6 382.5 233.6 379.6 243.4 376.5C263.7 370 284.2 363.6 304.3 356.4C342.8 342.6 379.5 324.8 413.5 302.1C429.6 291.4 445.3 279.7 459.7 266.8C473.1 254.9 485.5 241.6 494.7 226.1C499.2 218.6 502.9 210.6 505.5 202.2C506.8 198 508.3 193.5 507.2 189.1C506.3 185.1 503.2 182.2 499.7 180.3C483.5 171.7 463.3 178.7 449.9 189.3C442.4 195.3 436.1 202.6 430.2 210.2C424.1 218 418.4 226.1 412.7 234.2C400.9 251.1 389.6 268.4 378.4 285.6C356.3 319.4 334.1 353.4 307.1 383.6C283.1 410.5 255.2 434.8 223 451.5C207.3 459.7 190 466.6 172.5 469.8C168.2 470.6 164 470.2 162 465.9C160.6 462.8 160.5 459 161.6 455.8C164.6 447.2 174 442.5 181.4 438.5C217.4 418.9 256.6 406 295.6 393.7C332.6 382.1 369.9 370.8 405.4 354.7C422.2 347 438.6 338.3 454 328.1C461.8 322.9 469.2 317.4 476.4 311.4C483.4 305.6 490.4 299.4 496.3 292.5C500.8 287.2 504.9 280.1 504.7 272.9C504.5 265.6 498.8 260.1 491.6 259.6C487.2 259.3 482.7 260.6 478.6 262C474.3 263.5 470 265.4 466 267.6C458.1 271.9 450.8 277.2 444 283.1C429.1 296.2 416.2 311.7 403.6 326.9C390.2 343.1 377.3 359.8 364.1 376.2C339.5 406.7 313.6 436.6 282.3 460.4C267.6 471.6 251.7 481.4 234.7 488.9C230.3 490.8 225.8 492.9 221.1 494.2C218.7 494.8 217 494.6 216.3 492.2C215.8 490.3 216 488.3 216.3 486.4C217.6 479 221.4 472.4 226.5 466.9C237.1 455.5 252 448.9 266.3 443.3C285.5 435.8 304.7 428.4 323.6 420.5C362.7 404.1 401.3 386.1 439 366.7C457.2 357.3 475.3 347.6 493.1 337.5C495.2 336.3 492.3 332.4 490.4 333.4C453.1 354.4 415 373.9 376.2 392C356.7 401 337.1 409.7 317.3 418C298.5 425.8 279.4 432.9 260.6 440.5C246.6 446.2 231.8 453.2 221.7 464.9C217 470.4 213.6 476.8 212.2 483.9C210.9 490.7 213.5 500.5 222.4 498.8C226.9 498 231.5 495.7 235.7 493.9C239.9 492.1 244 490.2 248 488.1C256.3 483.9 264.4 479.1 272.1 473.9C287.7 463.5 302.2 451.3 315.6 438.2C345.3 409.4 370.1 376.3 395.9 344.1C408.7 328.1 421.8 312.1 436.1 297.4C449.1 284.1 463.9 271.9 481.8 265.9C486.2 264.4 491.8 262.7 496.2 264.7C499.4 266.2 500.5 269.4 500.2 272.8C499.6 280.9 494 287.7 488.5 293.2C475.4 306.5 460.6 318 444.8 328C412.7 348.3 377 362.3 341.1 374.3C302.1 387.3 262.3 398.1 224.1 413.3C214.6 417.1 205.2 421.1 195.9 425.6C187 429.8 178 434.2 169.7 439.6C163.2 443.8 156.7 449.9 156.4 458.1C156.2 464.6 159.5 471.8 166.1 474C170.6 475.5 175.3 474.1 179.7 473C184.1 471.9 188.4 470.7 192.7 469.4C201.4 466.7 209.8 463.3 218 459.4C234.1 451.8 249.3 442.2 263.5 431.3C293.2 408.4 318.2 380.1 340.3 349.9C364.9 316.4 386.4 280.9 409.9 246.6C415.9 237.8 422.1 229 428.5 220.4C434.3 212.7 440.2 205 447.1 198.3C454 191.7 462 186.2 471.1 183.2C479.8 180.4 490.2 179.8 498.6 184.1C500.7 185.2 502.5 186.7 502.9 189.2C503.3 191.8 502.6 194.7 501.9 197.2C500.7 201.5 499.2 205.7 497.5 209.8C493.9 218.1 489.3 226 484 233.2C473.3 247.9 459.9 260.5 445.9 271.9C414.5 297.6 379.6 319.1 342.7 335.8C303.5 353.6 262.1 365.2 221.3 378.7C213.4 381.3 202.9 383.5 198.5 391.5C194.9 398.1 197.4 406.8 204.9 409.3C211.7 411.5 219.5 407.5 224.9 403.6C232.5 398 239.7 391.8 246.6 385.5C274.8 359.9 298.7 329.8 319.6 298.1C330.2 282 340.1 265.5 349.4 248.6C359.1 231.1 368.1 212.8 381.4 197.7C393 184.6 408.5 173.9 426.2 171.8C425.2 170.8 424.2 169.7 423.2 168.7C422.3 198.6 402.6 224.1 382.5 244.6C361.5 265.9 337 283.5 311.4 299C284.3 315.4 256 330 227.3 343.6C197.5 357.7 167.1 370.4 136.2 381.8C123.6 386.4 109.8 391.3 100.7 401.7C93.3002 410.2 89.8002 423.4 94.7002 434C95.9002 436.5 97.5002 438.8 99.5002 440.8C100.2 441.4 101.1 442 102 441.7C127.3 433.8 150 419.3 170.2 402.4C191 385.1 209.9 365.4 227.8 345.1C264.5 303.6 296.1 257.6 321.8 208.6C332.7 187.8 343.2 166.2 359.1 148.6C366.8 140.1 375.8 132.8 386.2 127.8C388.4 126.8 392.4 124.5 394.3 127C395.8 128.9 395.6 132.2 395.4 134.5C394.6 140.8 392.1 146.9 389.1 152.4C382.7 164 373.1 173.6 363.7 182.8C353.2 193 342.2 202.6 330.9 211.8C308.2 230.3 284.2 247.2 259.7 263.2C234.9 279.5 209.3 294.7 183.2 308.8C171 315.4 158.3 321.2 146.3 328.1C137.1 333.3 127.5 339.8 122.5 349.4C120.2 353.9 119.3 358.8 119.8 363.8C119.9 365.2 121.7 366.8 123.2 366.3C148.6 358.5 170.3 342.4 189.3 324.2C209.7 304.6 228 282.7 245.1 260.2C262.6 237.2 278.6 213.1 293 188C306.7 164.2 319 139.4 335.3 117.1C339.2 111.7 343.4 106.5 347.8 101.6C352.4 96.4 357.4 90.7 363.4 87.2C368.4 84.2 375.4 83.1 379.3 88.4C382.7 92.9 382.8 99.2 381 104.3C378.7 110.5 374.2 115.6 369.7 120.2C364.9 125.1 360 130 355.1 134.8C345.5 144.3 335.8 153.8 325.9 163C286.7 199.8 244.9 234.3 198.2 261.2C175.1 274.5 150.8 285.9 125.5 294.5C102.4 302.4 70.4002 307 61.2002 333.6C59.3002 339 58.9002 344.7 60.3002 350.3C60.6002 351.5 61.8002 353.1 63.2002 352.9C89.2002 349.6 112.8 337.4 134 322.5C154.5 308.1 173.3 291.3 190.2 272.9C206.9 254.6 221.8 234.7 234.5 213.4C240.8 202.8 246.5 191.9 251.7 180.7C256.7 169.9 260.9 158.7 266.5 148.2C271.8 138.2 278.5 128.8 288 122.3C290.7 120.5 294 118.6 297.4 118.6C300.5 118.6 304 120.7 302.8 124.2C301.8 127.1 298.8 129.7 296.8 132C294.6 134.5 292.4 137 290.1 139.4C272.5 158 252.3 173.8 230.8 187.7C183.7 218.1 131.2 238.6 80.6002 262.3C67.9002 268.3 55.2002 274.3 42.8002 281.1C33.1002 286.4 23.5002 292.7 16.2002 301.1C9.60022 308.8 5.20022 318.5 6.50022 328.8C7.20022 334.2 10.1002 339.3 15.3002 341.3C20.6002 343.3 26.4002 341.6 31.5002 339.8C79.5002 322.8 120 289.3 152.9 251.1C171 230 187 207.3 202.1 184.1C217.3 160.7 231.2 136.4 246.4 113C255 101 263 89.5 272 78.9C276.2 73.9 280.6 68.9 285.5 64.6C290.1 60.6 296.5 55.7 302.7 55.3C309.3 54.9 309.6 62.8 307.6 67.2C305 72.9 299.5 77.4 295.1 81.7C285.9 90.7 276.2 99.3 266.1 107.3C226.2 139.4 180.9 164 134.4 185.3C111 196 87.1002 205.9 63.2002 215.6C40.0002 224.9 14.0002 233.7 -0.899779 255.1C-7.39978 264.4 -11.0998 275.4 -10.0998 286.8C-9.99978 288.2 -8.19978 289.8 -6.69978 289.3C20.1002 281.1 46.8002 271.2 69.7002 254.6C88.1002 241.2 103.4 224.2 116.6 205.8C143.7 167.9 162.5 124.9 188.1 86.1C195.3 75.1 203.2 64.5 211.8 54.6C221.6 43.4 232.4 32.6 246.2 26.5C245.1 25.5 243.9 24.5 242.8 23.4C244.4 69.4 199.9 98 163.8 116.2C143.7 126.3 122.7 134.5 101.1 140.5C90.0002 143.6 78.7002 146.2 67.4002 148.2C58.4002 149.8 49.3002 150.8 40.4002 152.8C24.0002 156.5 7.20022 164.5 4.20022 182.8C3.40022 188 3.70022 193.3 4.40022 198.4C5.00022 203.2 5.40022 209.1 7.80022 213.4C12.8002 222.2 25.4002 216.7 32.5002 214C70.4002 199.8 98.8002 166.3 120.1 133.1C142.9 97.5 158.4 57.3 165.3 15.6C166.2 10.4 166.9 5.29996 167.5 0.0999629C167.7 -1.60004 163.6 -4.30004 163.3 -1.60004Z" fill="white"/>
</g>
</g>
<defs>
<clipPath id="clip0_201_708">
<rect width="500" height="500" fill="white"/>
</clipPath>
</defs>
</svg>
