<svg width="500" height="500" viewBox="0 0 500 500" fill="none" xmlns="http://www.w3.org/2000/svg">
<mask id="mask0_201_754" style="mask-type:luminance" maskUnits="userSpaceOnUse" x="51" y="51" width="398" height="398">
<path d="M250 448.5C359.629 448.5 448.5 359.629 448.5 250C448.5 140.371 359.629 51.5 250 51.5C140.371 51.5 51.5 140.371 51.5 250C51.5 359.629 140.371 448.5 250 448.5Z" fill="white"/>
</mask>
<g mask="url(#mask0_201_754)">
<path d="M241.5 186.8C210.7 138.7 175.1 87.3 118.1 68.8C111.6 66.7 105 65.1 98.2 64.1C92 63.2 84.2 61.5 78.8 65.6C67.8 73.9 73.4 90.3 80.1 99.3C84.2999 105 89.4 109.8 94.6 114.6C100.2 119.9 105.9 125.1 111.7 130.3C123.2 140.6 135 150.7 147 160.4C173.9 182.3 202 202.8 231.1 221.8C231.3 220.4 231.5 219 231.7 217.6C196.4 216.1 161.1 217.6 126.1 222.3C96.6 226.2 65.5 231.1 39.4 246.4C33.2 250 27.4 254.2 22.1 259C17 263.7 11.8 269.3 10.5 276.3C9.29995 282.8 12.1 289.1 16.8 293.5C21.9 298.3 28.7 300.5 35.6 300.8C43.7 301.2 51.8 299.7 59.8 298.5C68.3 297.2 76.7 295.8 85.1 294.2C101.8 291.1 118.3 287.4 134.7 283.2C167.2 274.8 199.3 264.4 230.4 251.9C234.4 250.3 238.3 248.7 242.3 247C241.2 245.7 240.2 244.5 239.1 243.2C216 264.6 192.8 286.1 173 310.6C163.2 322.6 154.3 335.3 146.7 348.9C138.9 362.9 130.9 378.7 130.7 395.1C130.5 408.2 136.5 422.4 148.6 428.7C163.2 436.2 178.6 427.7 190.9 419.6C214.7 403.9 235.4 383.6 251.8 360.2C268.1 336.9 280.2 310.7 287 283.1C287.8 279.7 288.6 276.3 289.3 272.8C287.8 272.3 286.3 271.8 284.7 271.3C277.7 309.7 273.8 348.7 273 387.8C272.7 404.7 271.8 422.4 275.2 439C278.1 453.5 285.4 467.1 299.2 473.8C313.9 480.9 330.7 479.5 345.5 473.6C360.5 467.7 375.1 458 386.4 446.4C397.1 435.4 404.6 421.5 404 405.8C403.3 388.1 393.6 371.3 385 356.3C366.9 324.6 344 296 320.8 267.9C318 264.5 315.1 261 312.3 257.6C311.4 258.6 310.5 259.5 309.5 260.5C340.1 278 373.3 291 407.7 298.8C424.8 302.7 442.1 305.3 459.5 306.7C477.4 308.1 495.9 308.4 513.5 304.3C521 302.5 530.3 300.3 535.8 294.3C540.8 288.8 542.4 280.5 542.9 273.3C543.9 259.2 539.6 244.8 531.2 233.4C521.8 220.6 507.9 213.1 492.8 209.4C475.5 205.1 457.3 204.4 439.6 203.7C421.1 203 402.4 202.5 383.9 202.9C368.2 203.2 352 204.8 337.5 211.4C333.9 213 330.5 215 327.2 217.3C325.2 218.7 327.1 222.4 329.4 221.6C352 214 375.1 206.2 395 192.6C413 180.3 428.1 162.8 434 141.5C435.5 136.3 436.3 130.9 436.4 125.4C436.5 120.4 436.5 114.4 433.9 109.9C431.1 105.1 425.7 104 420.7 103.1C415.1 102.1 409.4 101.7 403.8 101.8C380.7 102.3 358.4 111.5 340.1 125.2C319.1 140.9 303 162 288.9 184C290.3 184.8 291.7 185.7 293.1 186.5C302.4 158.9 309.4 130.6 314.1 101.9C318.1 77.1 320.7 50.1 310.7 26.4C306.4 16.3 299.4 5.39995 288.3 1.99995C277.9 -1.20005 268.9 4.79995 263.8 13.7C261.2 18.3 259.5 23.3 258 28.4C256 35.5 254.2 42.6 252.5 49.7C249.1 63.9 246.3 78.1 243.9 92.5C238.6 124.8 236 157.4 236 190.1C236 192.8 240.6 193.6 240.6 190.4C240.6 162.8 242.6 135.3 246.4 108C250.1 81.3 255.3 54.3 263 28.4C265.6 19.9 270 8.59995 279.6 6.09995C291 3.09995 300.1 14.1 304.6 23.1C315.6 45.1 314 71.1 310.5 94.7C306 125 298.7 154.9 289 183.9C288.2 186.4 291.7 188.9 293.2 186.4C316.3 150.1 347.8 114.6 392.4 107.3C403 105.6 414.2 105.5 424.6 108.1C427.4 108.8 429.6 109.7 430.8 112.5C431.7 114.8 431.8 117.6 432 120.1C432.3 125.2 431.8 130.3 430.7 135.4C426.5 155.6 412.9 173.1 396.7 185.2C376.3 200.4 351.8 208.8 327.9 216.8C328.6 218.2 329.4 219.7 330.1 221.1C342.7 212.3 357.8 208.9 372.9 207.7C389.5 206.4 406.4 207.1 423.1 207.4C441 207.8 459 208.3 476.8 210.6C492.1 212.5 508.3 216.3 520.2 226.8C530.5 235.9 537 248.9 538.4 262.5C539.1 269.4 538.6 276.8 536.4 283.4C535.1 287.2 533 290.7 529.6 292.9C526.2 295.2 522.1 296.6 518.2 297.8C501.6 302.8 484.1 303.2 466.9 302.3C450.1 301.4 433.4 299.3 417 295.9C384.1 289.2 352.1 277.9 322.4 262.2C318.8 260.3 315.2 258.3 311.7 256.3C309.8 255.2 307.3 257.2 308.9 259.2C331 285.8 353.1 312.5 371.7 341.6C380.9 356 390.2 371.2 396 387.3C398.9 395.4 400.6 403.9 399.4 412.5C398.4 419.6 395.5 426.4 391.5 432.3C383 445.1 370.1 454.7 357 462.2C343 470.3 326.7 476.1 310.4 472.5C303.1 470.9 296.4 467.5 291.2 462.1C286.4 457 283.3 450.6 281.4 443.9C277.1 429 277.8 412.7 277.9 397.4C278.2 360.1 281.3 322.7 287.3 285.9C288 281.3 288.8 276.8 289.7 272.2C290.2 269.6 285.7 267.7 285.1 270.7C279.9 297.4 269.6 323 255.2 346.1C240.8 369.2 222.3 389.7 200.7 406.2C195.2 410.4 189.6 414.3 183.7 417.9C177 422.1 169.4 426.1 161.4 426.4C147.5 426.9 137.7 414.4 136.1 401.5C134 385.5 141.5 369.6 148.7 355.8C155.6 342.5 164 330.1 173.2 318.3C191.6 294.7 213.2 273.9 235 253.6C237.7 251.1 240.4 248.6 243.2 246C245.1 244.2 242 241.4 240 242.2C180.4 267.6 118 285 54.4 294.5C46.7 295.6 38.8 297.1 31 295.7C24.6 294.6 17.9 290.7 15.7 284.2C13.3 277.2 17.9 270.4 22.6 265.6C27.3 260.7 32.7 256.4 38.4 252.8C62.6 237.3 91.8 232 119.8 227.9C157.1 222.4 194.8 220.5 232.5 222.1C235.2 222.2 234.8 219 233.1 217.9C184.1 186 138 149.7 95.5 109.5C86.7 101.2 74.7 89.7 77.9 76.3C78.5 73.6 80 70.7999 82.3 69.1C85.3 66.9 89.3 67.4 92.9 67.8C99.6 68.5 106.2 69.7 112.7 71.5C138.2 78.7 160.8 93.7 179.6 112C202.7 134.5 220.6 161.6 237.9 188.7C239.3 191.3 243.2 189.5 241.5 186.8Z" fill="white"/>
</g>
<mask id="mask1_201_754" style="mask-type:luminance" maskUnits="userSpaceOnUse" x="51" y="51" width="398" height="398">
<path d="M250 448.5C359.629 448.5 448.5 359.629 448.5 250C448.5 140.371 359.629 51.5 250 51.5C140.371 51.5 51.5 140.371 51.5 250C51.5 359.629 140.371 448.5 250 448.5Z" fill="white"/>
</mask>
<g mask="url(#mask1_201_754)">
<path d="M263.1 197.5C255.7 180.7 245.4 165.3 232.9 151.8C220.4 138.4 205.8 126.9 189.6 118.3C182 114.2 173 108.9 164 110.5C159.6 111.3 156 114.1 154.4 118.2C152.8 122.2 153.3 126.7 154.3 130.7C158.8 148.9 174.1 162.3 188.2 173.6C206.2 188 224.5 202.1 242.6 216.3C244.9 218.1 247.2 219.9 249.5 221.7C250.5 220.7 251.4 219.6 252.4 218.6C232.3 208.5 211.2 200.7 189.4 195.1C178.5 192.3 167.5 190.1 156.4 188.5C145.2 186.9 133.4 185.2 122.1 186.6C113.3 187.7 102.7 191.3 99.7 200.6C97 209.1 102.3 218.3 109.4 222.8C118.5 228.7 129.8 228.9 140.3 229.4C152.5 230 164.7 230.4 176.9 230.7C201.3 231.1 225.7 230.8 250.1 229.7C253.1 229.6 256.1 229.4 259.2 229.2C261.7 229.1 262.6 225.8 259.7 225.4C246.1 224 232.6 226.3 219.6 230C206.8 233.6 194.2 238.1 181.8 242.8C159 251.4 136.4 262.3 119.4 280.1C111.7 288.2 105.2 297.5 101 308C98.8 313.4 97 319.3 100.6 324.5C103.8 329.1 109.5 331.2 114.9 331.3C121.4 331.5 127.8 329.2 133.9 327.3C139.7 325.5 145.5 323.4 151.2 321.2C162.4 316.9 173.4 312 184 306.4C205.4 295.2 225.5 281.4 243.7 265.5C245.9 263.6 248.1 261.6 250.3 259.6C248.9 259.1 247.5 258.5 246 258C235.6 280.6 230.8 305.2 228.8 329.9C227.8 342.3 227.4 354.8 227.3 367.2C227.3 373.4 227.3 379.6 227.3 385.9C227.3 391.4 226.5 398.1 229.4 403C234.7 412.2 247.6 409.9 255.5 406C264.5 401.6 272 394.8 278 386.9C290.6 370.2 296.9 349.2 301.3 329.1C306.4 305.9 308.8 280.8 300.6 257.9C299.6 255.1 298.4 252.4 297.1 249.7C295.6 250.3 294.1 250.8 292.6 251.4C306.2 271.3 322.2 289.5 340.2 305.4C349.3 313.4 358.8 320.9 368.8 327.8C379.1 334.9 390 341.6 402.3 344.5C408.3 345.9 414.6 345.8 419.9 342.5C424.5 339.6 427.7 335.1 430 330.3C434.3 321.5 435.2 311.4 433.5 301.8C431.7 292.1 427.4 282.8 420.9 275.3C413.2 266.4 402.6 260.9 391.7 256.7C379.1 251.8 366.3 247.5 353.5 243.3C340.4 239 327.2 235 314 231.2C310.7 230.3 307.5 229.3 304.2 228.4C304.1 229.6 303.9 230.7 303.8 231.9C321.4 228 339.1 224 356.3 218.1C364.8 215.2 373.2 211.9 381.2 207.9C388.9 204.1 396.8 199.7 403.5 194.3C409.4 189.5 414.9 182.4 412.8 174.4C410.8 166.9 402.8 162.3 395.4 161.7C385.6 160.9 376.1 164.9 367.1 168.2C358.2 171.5 349.4 175 340.7 178.8C321.1 187.4 302 197.5 283.9 208.9C285 209.8 286 210.8 287.1 211.7C311.2 189.9 326.7 159.2 330 126.8C330.7 120.1 331.7 110.3 323.5 107.8C319.5 106.6 314.9 107.3 311.1 108.6C307.4 109.8 303.9 111.8 300.8 114.1C294.3 118.9 289.1 125.2 284.2 131.5C278.8 138.3 273.9 145.5 269.5 153.1C260 169.5 253.6 187.8 253.7 206.9C253.7 209.4 258.7 209.2 258.7 206.6C258.6 190.7 263.3 175.1 270.5 161C274.2 153.8 278.6 146.8 283.3 140.2C287.8 134 292.5 127.7 297.9 122.3C303 117.1 309.2 112.3 316.5 111.2C319.8 110.7 323.3 110.9 324.7 114.4C326 117.5 325.5 121.2 325.3 124.4C324.1 139.5 320 154.4 313.6 168.1C306.4 183.6 296.1 197.7 283.5 209.1C281.4 211 284.8 213.1 286.7 211.9C302.1 202.3 318.1 193.6 334.5 185.9C342.6 182.1 350.9 178.6 359.3 175.3C367.7 172 376.2 168.5 384.9 166.3C392.4 164.5 401.1 164.7 406.2 171.4C411.1 177.9 406.9 185.5 401.7 190.2C395.7 195.6 388.3 199.7 381.2 203.4C373.8 207.2 366 210.5 358.1 213.3C340 219.8 321.2 224 302.5 228.2C300.7 228.6 300 231.1 302.1 231.7C327.7 238.8 352.9 246.8 377.9 255.7C389.1 259.7 400.8 263.7 410.3 271C417.8 276.8 423.3 284.9 426.5 293.7C429.7 302.4 430.6 312.2 428.3 321.2C426.1 330.2 420.2 341.6 409.6 341.5C403.6 341.5 397.5 339.1 392.2 336.6C386.7 334.1 381.6 330.9 376.5 327.6C366.8 321.2 357.5 314.2 348.7 306.7C331.1 291.8 315.4 274.7 301.9 256.1C300.2 253.8 298.6 251.4 297 249.1C295.9 247.4 291.4 248.5 292.5 250.8C302.7 271.8 302.5 295.9 298.5 318.4C296.6 329.1 294 339.8 290.7 350.2C287.7 359.5 284 368.7 279 377.1C274.2 385.2 268.1 392.6 260.5 398.2C256.8 400.9 252.7 403.3 248.3 404.6C244.6 405.7 240 406.3 236.6 404C232.1 401 232.5 394.9 232.5 390.2C232.4 384.2 232.4 378.2 232.4 372.1C232.4 360.1 232.7 348.1 233.4 336.2C234.9 312.5 238.8 288.7 247.6 266.6C248.7 263.9 249.8 261.3 251 258.6C252 256.4 247.9 255.9 246.7 257C229.9 272.6 211.3 286.3 191.3 297.7C171.4 309.1 150.2 318.3 128.2 324.9C122.7 326.5 116.3 328.7 110.6 326.6C105.5 324.7 102.5 320.2 103.8 314.8C105 309.5 107.6 304.4 110.2 299.7C112.8 295.1 115.9 290.8 119.3 286.7C134.2 269 154.9 257.6 176.1 249.1C187.7 244.4 199.6 240.3 211.6 236.4C223.8 232.5 236.3 229 249.1 228.6C252.3 228.5 255.4 228.6 258.6 229C258.8 227.7 258.9 226.5 259.1 225.2C235.9 226.4 212.7 227 189.5 226.8C177.8 226.7 166.2 226.5 154.5 226C148.8 225.8 143.1 225.5 137.4 225.2C132.4 224.9 127.4 224.6 122.5 223.5C114.1 221.6 105.7 216 104.4 206.9C103.8 202.9 105 199 107.8 196.2C110.8 193.2 114.8 191.6 118.8 190.7C129.4 188.3 140.7 189.9 151.3 191.3C161.8 192.7 172.3 194.6 182.6 197C203.4 201.9 223.6 209 242.9 218.1C245.3 219.2 247.7 220.4 250.1 221.6C252 222.6 255.2 220.2 253 218.5C235.4 204.7 217.8 190.9 200.3 177.1C186.4 166.2 170.9 155 162.8 138.7C161 135 159.3 130.9 158.8 126.8C158.3 123.1 158.5 118.6 161.3 115.8C164.2 113 168.5 113.4 172.1 114.4C176.3 115.6 180.2 117.6 184 119.5C199.4 127.3 213.5 137.8 225.6 150.1C237.8 162.5 248.1 176.8 255.8 192.4C256.8 194.4 257.7 196.3 258.6 198.3C259.3 201 264.2 200 263.1 197.5Z" fill="white"/>
</g>
<mask id="mask2_201_754" style="mask-type:luminance" maskUnits="userSpaceOnUse" x="51" y="51" width="398" height="398">
<path d="M250 448.5C359.629 448.5 448.5 359.629 448.5 250C448.5 140.371 359.629 51.5 250 51.5C140.371 51.5 51.5 140.371 51.5 250C51.5 359.629 140.371 448.5 250 448.5Z" fill="white"/>
</mask>
<g mask="url(#mask2_201_754)">
<path d="M253 200.8C213.9 178 169.7 164.3 124.6 160.9C119.1 160.5 113.5 160.2 107.9 160.1C103 160 98 159.7 93.2 160.9C89.7 161.8 85.7 163.5 83.7 166.7C81.4 170.4 83.7 174.2 86.7 176.5C95 183 106.2 185.3 116.3 186.9C128.5 188.8 140.7 190.5 152.9 192.3C181.2 196.5 209.5 200.6 237.8 204.8C238.1 203.8 238.4 202.7 238.6 201.7C197.3 201.5 155.1 201.5 115.1 213.1C110.3 214.5 105.6 216.1 100.9 217.8C96.4001 219.5 91.3 221.1 87.2 223.7C84 225.8 81.9 229.1 83.1 233C84.3 236.9 88.0001 239.8 91.3001 241.6C95.4001 243.9 100.3 245.1 104.8 246.2C110.1 247.5 115.4 248.3 120.8 249C131.6 250.3 142.6 250.6 153.5 250.8C179.1 251.4 204.7 250.6 230.2 248.5C233.1 248.3 232.1 245.5 229.7 245.3C185 242.3 139.8 247.2 96.8001 259.8C87.7001 262.5 77.9001 265.3 72.4001 273.6C67.5001 281 66.7 290.7 66.2 299.3C66 303.7 66.7 308.1 70.7 310.6C74.5 313 79.3 312.8 83.6 312.6C94.4 312.1 105.2 310.9 115.9 309C139.8 304.8 163 297.3 184.9 286.7C183.8 285.9 182.6 285.1 181.5 284.2C146 302.7 109.2 322.9 83.6 354.5C80.4 358.4 77.4 362.5 74.7 366.7C72.1 370.7 69.3 375 67.5 379.4C65.9 383.3 64.9 388.5 68.5 391.7C72.4 395.3 79.2 394.6 84 393.9C95.7001 392.3 106.6 386.7 117.2 381.7C127.7 376.7 138 371.4 148.2 365.8C171.4 352.9 193.6 338.2 214.6 321.9C213.2 321.3 211.8 320.7 210.4 320C195.5 336.9 183.5 356.3 175 377.2C166.5 398.1 161.5 420.4 160.3 442.9C160.1 447.2 159.3 452.9 162.5 456.3C166.4 460.4 172.8 458.1 177.3 456.4C187.1 452.8 195.7 446.7 203.1 439.4C210.7 431.9 217.1 423.3 223.1 414.4C230.1 404 236.5 393.1 242.5 382.1C254.5 360 264.9 337 275.1 314C276.4 311.1 277.7 308.1 279 305.2C277.4 305 275.7 304.7 274.1 304.5C274.2 328.9 276.2 353.2 280.2 377.2C282.1 389 284.6 400.8 287.5 412.4C289 418.3 290.6 424.2 292.3 430.1C293.2 433 294 436 295 438.9C295.7 441.2 296.6 443.5 298.2 445.3C305.4 452.8 316 445 320.3 438.4C325.7 430.2 329 420.8 330.8 411.2C334.5 390.7 331.3 369.6 327.4 349.4C322.1 322.3 316.3 295.2 310.7 268.1C309.1 268.3 307.5 268.5 305.8 268.7C312.3 292 321.9 314.4 334.3 335.2C346.6 355.9 361.7 375.3 379.3 391.7C387.7 399.5 398.3 406.3 410.3 404C415.8 403 420.5 400.1 423.5 395.3C426.7 390.4 427.9 384.2 428.7 378.4C432.2 353.1 424.3 327.5 412.4 305.4C399.8 282 382.6 261.6 367.1 240.2C365.2 237.5 363.3 234.9 361.4 232.2C360.1 232.8 358.7 233.4 357.4 233.9C385 254.1 423.4 257.7 454.5 243.6C456.4 242.8 458.2 241.9 460 240.9C461.8 239.9 463.8 239 465.2 237.4C468.4 233.8 465.4 229.7 462.6 227C456.5 221.2 448.7 217.7 440.6 215.7C431.7 213.5 422.4 212.9 413.3 212.4C402.4 211.8 391.6 211.5 380.7 211.5C355.8 211.3 330.8 212.1 305.9 211.9C306.6 212.7 307.3 213.6 307.9 214.4C324.9 201.2 340.4 186 353.7 169.1C360.3 160.8 366.4 152.1 371.9 143.1C374.7 138.6 377.3 133.9 379.9 129.2C382.2 124.9 384.6 120.5 386.3 115.9C389 108.6 390.8 98.5001 384.1 92.8001C376.3 86.0001 364.5 90.3001 356.4 94.3001C338.2 103.4 325.5 120.3 313.6 136.2C297.1 158.3 280.7 180.4 266.5 204C268.1 204.2 269.8 204.5 271.4 204.7C279.1 164.3 282 122.9 280 81.8001C279.6 73.3001 278.8 64.5001 274 57.2001C272.7 55.2001 271 55.1001 268.7 55.2001C266.8 55.3001 264.9 55.8001 263.1 56.5001C259.5 57.9001 256.3 60.3001 253.7 63.3001C248 69.9001 246.3 78.8001 245.5 87.2001C244.5 97.4001 244.1 107.6 244.1 117.9C244 140.9 246 163.8 250.1 186.4C251.7 186.2 253.3 186 255 185.8C247.7 152.4 236.5 119.9 221.8 89.1001C217.6 80.4001 213.1 71.8001 208.4 63.3001C207.6 61.9001 205.6 61.7001 204.3 62.4001C194.9 67.2001 189.7 77.5001 188.8 87.8001C187.6 101.1 193.3 113.9 198.9 125.5C210.7 150.2 224.1 174.2 238.9 197.3C247.3 210.4 256.2 223.3 265.4 235.8C266.6 237.4 271.4 236.5 269.8 234.4C253.9 212.9 239.2 190.5 226 167.3C219.4 155.8 213.2 144.1 207.3 132.2C201.5 120.4 194.8 108 193.8 94.7001C192.9 83.3001 197 70.4001 207.7 64.8001C206.3 64.5001 204.9 64.2001 203.6 63.9001C220.4 93.7001 233.7 125.3 243.1 158.2C245.8 167.5 248.2 176.9 250.2 186.4C250.6 188.4 255.5 188.2 255.1 185.8C251.7 166.9 249.8 147.8 249.3 128.6C249.1 119.1 249.2 109.7 249.7 100.2C250.2 91.5001 250.3 82.2001 253.2 73.9001C255.8 66.3001 262.2 58.1001 271 58.4001C270.3 58.1001 269.6 57.8001 268.9 57.5001C274 64.7001 274.6 73.7001 275 82.2001C275.5 92.1001 275.7 101.9 275.6 111.8C275.4 131.7 274.1 151.5 271.6 171.3C270.2 182.4 268.5 193.4 266.4 204.4C266 206.6 270.5 206.5 271.3 205.1C283.4 185 297.1 166 311.1 147.2C322.8 131.4 334.3 114.2 350.4 102.5C354.3 99.7001 358.4 97.3001 362.8 95.4001C367 93.6001 372 91.7001 376.6 92.8001C385.7 94.9001 384.5 106.6 382.2 113.3C380.8 117.6 378.7 121.6 376.6 125.5C374.3 129.9 371.9 134.3 369.3 138.6C364 147.4 358.3 156 352 164.1C338.1 182.3 321.8 198.6 303.7 212.6C302.2 213.8 304.8 215.1 305.7 215.1C326.4 215.3 347.1 214.8 367.8 214.7C387.4 214.6 407.3 214.5 426.9 216.7C434.8 217.6 442.8 219.1 450 222.7C453.4 224.4 456.7 226.7 459.3 229.5C460.6 230.9 462.3 233 461.3 235C460.4 236.7 457.9 237.7 456.3 238.5C442.4 245.9 426.4 249.3 410.6 248.7C392.8 248 375.4 242.2 361 231.7C359.8 230.8 355.4 231.2 357 233.4C371.5 254.1 388 273.5 401.3 295C414.2 315.8 424.2 339.6 424.5 364.5C424.6 370.5 424.1 376.5 422.9 382.5C421.8 387.9 420.1 393.7 415.7 397.5C406.6 405.3 394 399 386.3 392.5C377.5 385.1 369.7 376.1 362.4 367.3C355 358.3 348.2 348.9 342 339C329.7 319.4 320 298.3 313.1 276.2C312.2 273.5 311.4 270.7 310.7 267.9C310.2 265.9 305.4 266.1 305.8 268.5C310.7 292.1 315.5 315.6 320.4 339.2C324.4 358.6 328.3 378.3 327.2 398.2C326.7 407.7 325 417.1 321.4 425.9C319.6 430.3 317.4 434.8 314.5 438.6C312.5 441.2 308.5 445.2 304.8 444.8C302.6 444.5 301.4 442.3 300.7 440.4C299.6 437.7 298.9 434.9 298.1 432.2C296.5 426.8 295 421.4 293.6 416C290.7 404.9 288.3 393.7 286.3 382.4C281.7 356.7 279.4 330.6 279.3 304.5C279.3 302.4 275.2 302.1 274.4 303.8C264.7 325.7 255.1 347.6 244.1 368.9C238.6 379.6 232.7 390.2 226.4 400.5C220.7 409.8 214.8 419 207.9 427.4C201.5 435.3 194.2 442.6 185.5 448C181.3 450.6 176.9 452.7 172.2 454.1C169.9 454.8 167.4 455.8 166.1 453.1C165.2 451.1 165.2 448.8 165.3 446.7C165.9 425.1 170.2 403.7 177.7 383.5C186.2 360.8 198.7 339.6 214.8 321.4C215.6 320.5 214.9 319.6 214 319.1C212.9 318.6 211.5 318.8 210.6 319.5C192.8 333.3 174 346 154.5 357.4C144.9 363 135.1 368.3 125.1 373.3C115.1 378.3 105 383.4 94.4001 387.2C89.1001 389.1 83.6 390.6 77.9001 390.6C75.7001 390.6 73.1001 390.5 71.8001 388.3C70.7001 386.3 71.2001 383.7 71.8001 381.7C73.2001 377.3 76 373.1 78.5 369.1C81.1 365 83.9001 361 86.9001 357.2C98.7001 342.3 113.2 329.8 128.7 319C146.6 306.5 165.8 296.1 185.1 286.1C186.1 285.6 186 284.5 185.2 283.8C184.2 283 182.7 283.1 181.7 283.6C163.5 292.5 144.1 299.2 124.3 303.4C114.3 305.5 104.2 307.1 94 308C89.2001 308.4 84.2001 309 79.4001 308.8C75 308.7 71.8001 306.8 71.4001 302.1C71.0001 297.8 71.7001 293.2 72.3001 289C72.9001 284.7 73.9001 280.4 75.8001 276.6C80.1001 268.1 88.9 265.1 97.5 262.6C117.6 256.6 138.2 252.3 159 249.8C182.4 246.9 206.1 246.3 229.7 247.9C229.5 246.8 229.4 245.8 229.2 244.7C207.8 246.4 186.4 247.3 165 247.1C154.4 247 143.7 246.8 133.1 246.1C123.1 245.5 113 244.3 103.3 241.6C99.0001 240.4 94.6 239.1 91.2 236.1C88.5 233.7 86.4001 229.8 89.3001 226.6C90.7001 225 92.9001 224.2 94.8001 223.4C97.0001 222.4 99.2001 221.5 101.4 220.7C106 218.9 110.6 217.4 115.2 215.9C133.9 210.2 153.2 207.3 172.7 205.7C194.6 203.9 216.6 204 238.6 204.1C239.5 204.1 240.9 203.9 241.1 202.8C241.3 201.8 240.3 201.1 239.4 200.9C215.6 197.4 191.7 193.9 167.9 190.4C156 188.7 144.2 186.9 132.3 185.2C121.9 183.7 111 182.8 101.1 179.2C98.9 178.4 96.8 177.5 94.7 176.4C92.6 175.3 90 173.9 88.6 171.9C86.3 168.6 89 165.6 92 164.2C95.9 162.4 100 162.5 104.2 162.5C109.6 162.5 115.1 162.7 120.5 163.1C141.8 164.4 162.9 168.1 183.4 174C206.4 180.6 228.7 190.1 249.4 202.1C250.4 202.7 251.9 202.9 252.9 202.3C253.7 202.5 254 201.3 253 200.8Z" fill="white"/>
</g>
<mask id="mask3_201_754" style="mask-type:luminance" maskUnits="userSpaceOnUse" x="51" y="51" width="398" height="398">
<path d="M250 448.5C359.629 448.5 448.5 359.629 448.5 250C448.5 140.371 359.629 51.5 250 51.5C140.371 51.5 51.5 140.371 51.5 250C51.5 359.629 140.371 448.5 250 448.5Z" fill="white"/>
</mask>
<g mask="url(#mask3_201_754)">
<path d="M258 242.6C244.2 261.6 227 277.6 211.8 295.4C197.6 312 184.9 330.9 179.8 352.4C178.6 357.6 177.8 363 177.7 368.4C177.6 373.7 178.3 379.3 183.2 382.4C187.5 385.1 193.1 384.7 197.4 382.4C202.2 379.8 205.7 375.3 209.1 371.2C223.4 353.8 234.9 334.2 243.2 313.2C251.8 291.4 256.1 268 265.5 246.5C266.6 243.9 267.8 241.3 269.1 238.8C267.6 238.4 266 238 264.5 237.7C264.8 259.6 265.2 281.6 267.2 303.4C268.2 314.2 269.6 325 271.6 335.6C273.4 345.2 275.3 355.2 280.8 363.5C286 371.5 294.6 376.4 303.3 379.9C305.6 380.8 308.2 381.8 310.7 381.1C312.7 380.5 314.2 379 315.3 377.2C316.3 375.4 316.8 373.3 317.2 371.3C317.8 368.7 318.2 366 318.5 363.3C320.8 341.9 315.1 320.6 308.8 300.3C302.3 279.4 295 258.7 286.8 238.4C285.8 235.9 284.8 233.4 283.7 230.9C282.7 231.7 281.6 232.5 280.6 233.3C298.5 244.4 316.5 255.6 335.1 265.6C344.4 270.6 353.8 275.3 363.4 279.6C373 283.9 382.9 288.3 393.2 290.4C401.9 292.1 413.9 292.6 417.7 282.5C420.8 274.2 419.5 264.3 415.6 256.5C411.5 248.3 404.4 242.3 396.1 238.7C387.7 235 378.5 233.5 369.5 232.1C347.2 228.5 324.9 224.9 302.6 221.4C299.9 221 297.1 220.5 294.4 220.1C294.6 221.5 294.8 222.9 295.1 224.3C318 220.8 340.3 213.9 361.3 204.2C382.3 194.4 401.8 181.6 419.2 166.4C428.9 157.8 438.3 148.3 443.6 136.3C444.4 134.5 442.6 133.2 441 133C428.8 131.9 416.5 130.9 404.3 132.7C392.4 134.4 381.8 139.5 372.2 146.6C362.2 154 352.9 162.5 343.5 170.6C333.4 179.3 323.3 187.9 313.2 196.6C301.8 206.4 290.4 216.2 279 225.9C276.9 227.7 280.8 230.7 282.8 229C302.8 211.9 322.8 194.7 342.8 177.6C352.3 169.5 361.6 161.1 371.3 153.4C380.3 146.2 390.2 140.3 401.5 137.8C414.7 135 428.4 136.2 441.7 137.4C440.8 136.3 440 135.2 439.1 134.1C434.5 144.6 426.6 153.1 418.3 160.7C409.9 168.3 401 175.3 391.6 181.7C372.8 194.4 352.2 204.5 330.6 211.4C318.4 215.3 305.9 218.3 293.2 220.2C290.6 220.6 291.9 224.1 293.9 224.4C315.3 227.8 336.8 231.3 358.2 234.7C367.5 236.2 377.1 237.3 386.2 239.8C394.1 241.9 402 245.5 407.4 251.9C412.7 258.2 415.3 266.7 414.5 274.9C414.1 278.8 413.1 283.4 409.5 285.6C405.9 287.8 401.2 287.6 397.2 287.1C387.3 285.9 377.9 281.7 368.9 277.8C359.6 273.8 350.5 269.4 341.5 264.6C323.5 255.1 306.2 244.5 288.9 233.8C286.8 232.5 284.6 231.1 282.5 229.8C280.8 228.8 278.6 230.3 279.4 232.2C287.4 251.7 294.7 271.4 301.2 291.4C307.5 310.9 314 331 314.3 351.6C314.4 356.6 314 361.7 313.2 366.6C312.8 368.8 312.5 371.2 311.7 373.3C311.2 374.7 310.5 376.4 309 377C307.3 377.7 304.8 376.2 303.2 375.5C301.2 374.6 299.2 373.7 297.2 372.6C293.5 370.6 290 368.1 287.2 364.8C281.1 357.8 279.1 348.3 277.2 339.4C275.1 329.2 273.6 318.8 272.5 308.5C270.3 287.6 269.8 266.6 269.4 245.6C269.4 243 269.3 240.4 269.3 237.8C269.3 235.7 265.6 234.8 264.7 236.7C254.4 257 249.8 279.5 242.5 300.9C235.5 321.6 225.4 341.2 212.5 358.8C209.3 363.2 205.9 367.5 202.4 371.6C199.4 375.1 195.8 379.2 190.9 379.9C189.2 380.2 187.2 380 185.7 379.1C183.9 378 183.1 375.8 182.8 373.8C182.1 368.8 182.9 363.4 183.7 358.5C187.3 337.7 198.9 319 212.1 302.9C226.4 285.5 242.9 270.1 256.8 252.5C258.6 250.3 260.3 248 261.9 245.7C262.6 244.7 262.5 243.5 261.5 242.6C260.6 242 258.7 241.5 258 242.6Z" fill="white"/>
</g>
<mask id="mask4_201_754" style="mask-type:luminance" maskUnits="userSpaceOnUse" x="51" y="51" width="398" height="398">
<path d="M250 448.5C359.629 448.5 448.5 359.629 448.5 250C448.5 140.371 359.629 51.5 250 51.5C140.371 51.5 51.5 140.371 51.5 250C51.5 359.629 140.371 448.5 250 448.5Z" fill="white"/>
</mask>
<g mask="url(#mask4_201_754)">
<path d="M268.1 206.2C248.1 191.5 225.6 180.6 202.7 171.1C179 161.2 154.6 151.5 129.1 147.7C116.7 145.8 103.8 145.5 92 150.2C87 152.2 82.3 155.1 78.5 159C76.6 160.9 74.4 163.2 73.8 165.9C73.2 168.8 75.1 171.1 77.3 172.7C86.8 179.9 98.4 183.7 109.8 186.4C122.4 189.4 135.1 191.7 147.8 194.3C174.5 199.8 201.3 205.2 228 210.7C231.3 211.4 234.5 212 237.8 212.7C237.6 211.6 237.3 210.4 237.1 209.3C210.6 209.8 184 210.3 157.5 210.9C133.1 211.4 107.8 211.7 85 221.5C80 223.7 75.2 226.3 70.6 229.4C66.3 232.4 61.7 235.8 58.6 240.1C55.6 244.1 53.8 249.6 57.5 253.8C61 257.8 66.7 258.2 71.6 258.2C97.5 258.3 123.4 257 149.2 254.6C175.1 252.2 200.8 248.5 226.4 243.6C229.5 243 232.7 242.4 235.8 241.7C234.8 240.6 233.8 239.5 232.9 238.5C206.3 247.7 179.7 257 153.1 266.2C129.1 274.5 104.8 282.9 83.5 297.1C74.1 303.3 65.4 310.6 57.9 319.1C54.2 323.3 50.9 327.8 47.9 332.6C46.4 335 45.1 337.4 43.8 339.9C42.7 342.1 41.4 344.5 41.8 347C42.3 350.2 45.5 351.6 48.4 351.8C51.3 352 54.3 351.7 57.3 351.5C63.3 351.1 69.3 350.1 75.2 348.6C87.1 345.7 98.5 341 109.3 335.4C120.3 329.7 130.7 323.1 141 316.2C152.1 308.7 163 300.9 173.7 292.7C176.4 290.6 179.1 288.6 181.8 286.5C180.4 285.6 179 284.8 177.6 283.9C159.1 302.3 142.3 322.3 127.3 343.6C120 354 112.8 364.6 107.3 376.1C104.6 381.7 102.4 387.5 100.9 393.5C99.5 398.9 97.7 405.7 101.7 410.4C104.9 414.2 110.3 415.6 115.2 415.5C120.8 415.3 126.3 413.3 131.3 410.9C136.8 408.2 141.9 404.6 146.8 400.8C151.9 396.9 156.8 392.7 161.6 388.4C181 370.8 198.2 350.6 214.7 330.3C231.4 309.7 247.2 288.3 261.9 266.2C263.7 263.5 265.5 260.7 267.3 257.9C267.9 256.9 266.3 255.8 265.6 255.5C264.6 255.1 263.3 255 262.7 256C248.6 277.7 233.5 298.7 217.5 319C201.7 338.9 185.3 358.5 167.2 376.5C158.3 385.3 148.9 393.8 138.8 401.1C134 404.6 128.9 407.7 123.3 409.9C118.9 411.6 114 412.9 109.3 411.7C107.7 411.3 106.3 410.6 105.3 409.2C103.6 406.8 103.9 403.7 104.4 401C105.4 395.1 107.2 389.2 109.5 383.7C114.2 372.4 120.8 362 127.6 352C141.8 331.1 157.7 311.4 175.3 293.3C177.4 291.1 179.6 288.9 181.7 286.8C183.4 285.1 179 283 177.5 284.2C167.1 292.3 156.6 300.2 145.8 307.7C135.8 314.7 125.6 321.5 115.1 327.6C94.9 339.2 72.3 348.6 48.6 348.6C48.1 348.6 47.3 348.7 46.9 348.5C46.7 348.4 46.8 348.6 46.7 348.3C46.4 347.2 46.8 346 47.2 344.9C48.2 342.4 49.5 340 50.8 337.7C53.4 333 56.5 328.6 59.9 324.4C66.8 316 75 308.8 83.8 302.5C103.9 288.3 127.4 279.7 150.5 271.6C175.9 262.7 201.4 253.9 226.8 245.1C230 244 233.1 242.9 236.3 241.8C237.3 241.5 237 240.3 236.5 239.7C235.8 238.9 234.5 238.4 233.4 238.6C208.8 243.6 183.9 247.5 158.9 250.2C133.9 252.9 108.8 254.5 83.7 254.8C80.6 254.8 77.5 254.9 74.4 254.9C71.7 254.9 69.1 255 66.4 254.8C64.7 254.6 62.6 254.3 61.4 253C59.9 251.4 59.9 249 60.5 247C62.1 242.1 66.5 238.5 70.3 235.4C74.4 232.1 79 229.3 83.7 226.9C104.8 216.4 128.8 215.2 152 214.7C177.6 214.1 203.2 213.7 228.8 213.2C232 213.1 235.1 213.1 238.3 213C239.2 213 240.2 212.6 240 211.6C239.8 210.6 238.5 209.8 237.6 209.7C211.8 204.4 186 199.2 160.2 193.9C147.3 191.3 134.4 188.6 121.5 186C110.6 183.8 99.5 181.5 89.4 176.7C86.9 175.5 84.5 174.2 82.2 172.6C80.2 171.2 77.5 169.8 78.6 167C79.5 164.6 81.7 162.5 83.6 160.8C85.5 159 87.6 157.5 89.9 156.2C100.1 150.3 112.1 149.4 123.7 150.6C136.1 151.8 148.3 154.9 160.1 158.7C172 162.5 183.6 167 195.1 171.7C217 180.6 238.8 190.5 258.5 203.8C260.9 205.4 263.3 207.1 265.7 208.9C266.5 209.5 268.2 209.8 269 209C269.9 207.7 268.8 206.7 268.1 206.2Z" fill="white"/>
</g>
<mask id="mask5_201_754" style="mask-type:luminance" maskUnits="userSpaceOnUse" x="51" y="51" width="398" height="398">
<path d="M250 448.5C359.629 448.5 448.5 359.629 448.5 250C448.5 140.371 359.629 51.5 250 51.5C140.371 51.5 51.5 140.371 51.5 250C51.5 359.629 140.371 448.5 250 448.5Z" fill="white"/>
</mask>
<g mask="url(#mask5_201_754)">
<path d="M262.3 241.4C271.3 256.9 278 273.5 284.7 290C291.2 306.2 297.8 322.3 305.5 337.9C313 353.3 321.3 368.3 330.4 382.9C339.4 397.3 349 411.3 359.4 424.8C364.6 431.6 370 438.3 375.6 444.8C378.4 448.1 381.2 451.3 384.1 454.6C386.9 457.7 389.7 460.7 392.9 463.3C394.6 464.6 396.3 465.9 398.2 466.9C399.2 467.4 400.9 467.3 401.3 466C409.5 439.5 397.4 412.2 387 388.2C375.9 362.3 363.6 336.9 350.3 312C343.2 298.7 335.7 285.6 326.1 274C324.8 274.8 323.6 275.5 322.3 276.3C333.3 289.2 345.5 301.1 358.6 311.9C371.7 322.6 385.8 332.2 400.6 340.5C404.8 342.8 409 345.1 413.3 347.2C417.6 349.3 422.6 352.5 427.5 350.4C428 350.2 428.4 349.5 428.4 349C429.1 343 427.1 337.3 424.3 332.1C421.7 327.2 418.5 322.6 415.2 318.3C408.6 309.7 401 301.9 392.9 294.8C375.4 279.5 355.3 267.5 335.3 255.8C323.4 248.8 311.4 241.9 299.8 234.3C298.8 233.6 297.2 234.1 296.7 235.2C296.1 236.5 296.9 237.7 298 238.4C318.1 251.5 339.4 262.7 359.6 275.6C377.4 287 394.5 300 408.1 316.3C411.8 320.8 415.3 325.6 418.4 330.5C421.6 335.6 424.6 341.5 423.9 347.8C424.2 347.3 424.5 346.8 424.8 346.4C423.2 347.1 421.1 346 419.6 345.3C417.8 344.4 415.9 343.5 414.1 342.6C410.4 340.8 406.8 338.9 403.3 336.9C396.2 333 389.3 328.8 382.6 324.2C369.2 315.2 356.6 305 344.9 293.8C338.4 287.5 332.1 280.9 326.2 274.1C325.4 273.2 324.1 272.5 322.9 273.2C321.9 273.8 321.6 275.4 322.4 276.4C330.8 286.6 337.7 298 344 309.6C350.5 321.5 356.7 333.6 362.7 345.8C368.7 358.2 374.5 370.6 380.1 383.2C385.5 395.6 391.1 408.1 395.1 421.1C399.3 434.8 401.5 449.7 397.1 463.7C398.1 463.4 399.2 463.1 400.2 462.8C393.1 458.8 387.8 452 382.6 446C377.1 439.6 371.7 433.1 366.5 426.5C356.1 413.2 346.3 399.4 337.2 385.1C328.2 370.9 319.8 356.2 312.3 341.1C304.6 325.7 297.8 309.8 291.4 293.8C284.8 277.3 278.2 260.7 269.7 244.9C268.6 242.9 267.6 241 266.4 239.1C265.8 238 264.1 237.6 263.1 238.2C261.6 239 261.7 240.4 262.3 241.4Z" fill="white"/>
</g>
<mask id="mask6_201_754" style="mask-type:luminance" maskUnits="userSpaceOnUse" x="51" y="51" width="398" height="398">
<path d="M250 448.5C359.629 448.5 448.5 359.629 448.5 250C448.5 140.371 359.629 51.5 250 51.5C140.371 51.5 51.5 140.371 51.5 250C51.5 359.629 140.371 448.5 250 448.5Z" fill="white"/>
</mask>
<g mask="url(#mask6_201_754)">
<path d="M254.8 216.2C246.1 198.9 234.3 183.4 221.1 169.4C207.7 155.2 192.7 142.6 177.3 130.7C169.5 124.7 161.5 118.7 153.4 113C149.1 110 144.7 107.3 139.7 105.5C134.6 103.7 129.2 103.3 123.9 103.8C118.6 104.3 113.4 105.7 108.5 107.9C104.3 109.8 100.6 113.1 100.7 118C100.7 122.7 104 127 107 130.4C110.6 134.4 114.5 138 118.6 141.3C127.2 148.4 136.3 154.9 145.3 161.4C154.6 168.1 164 174.7 173.4 181.3C175.7 182.9 178.1 184.6 180.4 186.2C181.4 186.9 182.8 187 183.9 186.4C184.7 186 185.5 184.7 184.5 184C168.6 172.8 151.3 163.8 133.1 157.2C114.7 150.5 94.7 145.8 75.2 150.5C66.7 152.6 58.2 156.6 51.8 162.8C48.7 165.8 46.3 169.5 46.5 174C46.7 177.8 49 181.2 51.7 183.8C54.7 186.7 58.4 188.8 62.1 190.6C66.3 192.7 70.7 194.5 75.1 196.1C83.8 199.2 92.9 201.3 102 202.7C120.7 205.6 139.6 205.7 158.5 205.4C160.8 205.4 163.1 205.3 165.5 205.3C165.8 204.2 166.1 203 166.4 201.9C142.9 202.7 119.6 205.6 96.4 209.4C86 211.1 75.4 212.7 65.2 215.3C56 217.6 47 221 39.6 226.9C36.4 229.4 31.1 233.8 32.2 238.4C32.7 240.7 34.7 242.1 36.7 243C39.2 244 41.8 244.7 44.4 245.3C50 246.5 55.8 246.9 61.5 247.2C67.4 247.6 73.4 247.9 79.3 248C102.9 248.7 126.4 247.8 149.9 246C173.5 244.2 197 241.6 220.5 238.9C223.4 238.6 226.2 238.2 229.1 237.9C230.1 237.8 231.5 237.1 231.4 235.9C231.3 234.7 229.6 234.4 228.7 234.5C206 237.1 183.4 239.7 160.6 241.7C138 243.6 115.3 244.9 92.5 244.7C81.2 244.6 69.9 244.2 58.7 243.4C53.4 243 48 242.5 42.9 241C41.2 240.5 38.6 240 37.5 238.4C36.1 236.4 38 234 39.3 232.6C45.3 226.2 53.4 222.4 61.7 219.8C70.9 217 80.5 215.5 90 213.9C112.3 210.1 134.7 206.9 157.3 205.7C160 205.5 162.7 205.4 165.5 205.3C166.6 205.3 168.1 204.9 168.4 203.7C168.7 202.6 167.4 201.8 166.4 201.8C148.5 202.1 130.5 202.4 112.6 200.5C95.3 198.6 77.6 194.6 62.2 186.1C56.4 182.9 48.9 176.6 52.3 169.2C54 165.6 57.5 162.8 60.7 160.7C64.1 158.4 67.8 156.6 71.6 155.3C89.1 149.2 108 152.9 125.2 158.6C142.7 164.4 159.5 172.6 174.9 182.7C176.8 183.9 178.6 185.2 180.4 186.5C181.8 185.7 183.1 185 184.5 184.2C166.4 171.5 148.2 158.9 130.6 145.6C126.5 142.5 122.5 139.4 118.7 136C115.1 132.8 111.2 129.3 108.5 125.2C106.3 121.9 104.1 117 107.2 113.5C108.5 112 110.5 111.1 112.3 110.4C114.6 109.5 116.9 108.8 119.3 108.2C124 107.2 129 106.9 133.8 107.9C138.7 108.9 143.1 111.3 147.2 114C151.2 116.6 155.1 119.6 158.9 122.4C162.7 125.2 166.5 128 170.2 130.9C185.2 142.3 199.7 154.3 213 167.7C226.1 180.9 237.8 195.5 246.9 211.7C248 213.7 249.1 215.8 250.2 217.9C251.1 219.7 255.9 218.4 254.8 216.2Z" fill="white"/>
</g>
<mask id="mask7_201_754" style="mask-type:luminance" maskUnits="userSpaceOnUse" x="51" y="51" width="398" height="398">
<path d="M250 448.5C359.629 448.5 448.5 359.629 448.5 250C448.5 140.371 359.629 51.5 250 51.5C140.371 51.5 51.5 140.371 51.5 250C51.5 359.629 140.371 448.5 250 448.5Z" fill="white"/>
</mask>
<g mask="url(#mask7_201_754)">
<path d="M276.2 213.9C281.9 194.9 287 175.8 291.5 156.4C293.7 146.7 295.8 137 297.7 127.2C299.5 118.1 301 109 302.7 99.9001C304.1 92.4001 305.7 84.8001 308.8 77.8001C310.2 74.4001 312 71.2001 314.2 68.3001C315.3 66.8001 316.6 65.4001 317.9 64.1001C319.1 62.9001 320.7 61.2001 322.3 60.6001C322.5 60.5001 322.8 60.6001 322.9 60.5001C323.2 60.4001 323.6 61.1001 323 60.2001C322.4 59.3001 322.8 60.2001 322.9 60.6001C323.2 61.8001 323.5 62.9001 323.7 64.1001C324.1 66.4001 324.5 68.8001 324.6 71.1001C324.9 75.7001 324.8 80.4001 324.4 85.0001C323.4 94.4001 321 103.6 317.9 112.5C311.6 130.4 302.6 147.2 297 165.3C296.3 167.5 295.7 169.7 295.1 172C294.9 172.9 295.5 174 295.9 174.7C296 174.9 297.2 176.7 297.6 176.2C310.2 162.7 321.2 147.9 333.1 133.8C343.9 120.9 355.5 108.5 369.3 98.7001C376.8 93.4001 384.9 88.9001 393.6 85.7001C392.8 84.7001 392 83.7001 391.2 82.7001C392.9 88.2001 391.4 94.2001 389.5 99.4001C387.7 104.5 385.4 109.4 382.8 114.2C377.6 123.6 371.2 132.4 364.2 140.4C349.4 157 332 171 315.2 185.7C305.4 194.3 295.8 203.1 287 212.8C286 213.9 288.9 217.7 289.4 217.2C305.3 199.6 324 185 341.7 169.2C358 154.7 373.6 138.9 384.4 119.8C387.4 114.5 390.1 109 392.1 103.2C394.3 97.0001 395.5 90.4001 393.5 84.0001C393.3 83.3001 392.2 80.6001 391.1 81.0001C375.7 86.7001 362.2 96.5001 350.4 107.7C337.6 119.9 326.7 133.8 315.6 147.6C309 155.8 302.3 163.9 295.1 171.6C295.9 173 296.8 174.4 297.6 175.8C302.6 156.7 311.8 139.2 318.8 120.9C325.6 103 330.2 83.2001 325.8 64.1001C325.3 61.8001 324.7 59.4001 323.1 57.5001C322.6 56.9001 321.9 56.2001 321.1 56.0001C320.1 55.8001 319.2 56.5001 318.4 57.0001C315.4 59.3001 312.9 62.0001 310.8 65.1001C306.3 71.5001 303.8 79.1001 301.9 86.7001C299.8 95.2001 298.6 103.9 297 112.5C295.1 122.6 293.1 132.7 290.9 142.7C286.5 162.8 281.4 182.7 275.6 202.4C274.9 204.9 274.1 207.4 273.4 209.8C273.1 210.7 273.9 212 274.4 212.8C274.7 213 276 214.7 276.2 213.9Z" fill="white"/>
</g>
<mask id="mask8_201_754" style="mask-type:luminance" maskUnits="userSpaceOnUse" x="51" y="51" width="398" height="398">
<path d="M250 448.5C359.629 448.5 448.5 359.629 448.5 250C448.5 140.371 359.629 51.5 250 51.5C140.371 51.5 51.5 140.371 51.5 250C51.5 359.629 140.371 448.5 250 448.5Z" fill="white"/>
</mask>
<g mask="url(#mask8_201_754)">
<path d="M283.5 222.2C310.6 216.6 338.2 213.5 365.8 211.8C393.6 210.2 421.4 210.1 449.2 210.6C463.1 210.8 476.9 211.2 490.8 211.6C492.4 211.6 494 211.7 495.6 211.7C496.4 211.7 497.1 211.7 497.9 211.8C498.3 211.8 498.6 211.9 499 211.9C499.2 211.9 499.5 212.2 499.3 211.9C500.4 213.3 495.4 215.7 494.6 216.2C489.1 219.4 483.3 222.1 477.4 224.3C465.2 228.9 452.4 231.9 439.5 234C426 236.2 412.3 237.4 398.6 237.8C371 238.6 343.5 236.5 316.1 234C312.7 233.7 309.4 233.4 306 233.1C304.8 233 303.4 233.5 303.1 234.8C302.8 236 303.9 237.1 305.1 237.2C324.9 239.2 344.8 241.1 364.3 245.6C381.4 249.5 398.3 255.5 413.3 264.7C421.5 269.7 429 275.7 435.6 282.6C436 281.5 436.4 280.5 436.8 279.4C420.7 283.6 403.8 279.1 388.3 274.1C371.9 268.8 355.8 262.4 340 255.5C331.1 251.7 322.2 247.7 313.3 243.7C310.7 242.6 308.1 246.2 311.1 247.5C327.2 254.7 343.2 261.9 359.6 268.3C367.8 271.5 376.1 274.6 384.5 277.3C392.7 280 401 282.5 409.5 283.9C419.1 285.5 429 285.6 438.4 283.1C439.7 282.8 440.7 281.1 439.6 279.9C427.5 267 412.2 257.6 396 250.8C378.2 243.4 359.2 239.4 340.1 236.7C328.7 235.1 317.3 234 305.9 232.8C305.6 234.2 305.3 235.5 304.9 236.9C333.3 239.5 361.8 242 390.4 241.8C404.5 241.7 418.6 240.8 432.6 238.9C446.3 237 460 234.3 473.2 229.9C479.5 227.8 485.6 225.3 491.6 222.3C494.5 220.8 497.4 219.3 500.2 217.5C502.4 216 505.1 213.4 504.1 210.5C502.9 207.2 498.7 207.4 495.8 207.4C492.2 207.3 488.5 207.2 484.9 207.1C477.8 206.9 470.7 206.7 463.5 206.5C434.8 205.8 406.1 205.6 377.4 206.8C348.9 208 320.4 210.7 292.4 215.9C288.8 216.6 285.3 217.3 281.8 218C280.7 218.2 279.8 219.6 280.3 220.7C280.8 222.3 282.3 222.4 283.5 222.2Z" fill="white"/>
</g>
<mask id="mask9_201_754" style="mask-type:luminance" maskUnits="userSpaceOnUse" x="51" y="51" width="398" height="398">
<path d="M250 448.5C359.629 448.5 448.5 359.629 448.5 250C448.5 140.371 359.629 51.5 250 51.5C140.371 51.5 51.5 140.371 51.5 250C51.5 359.629 140.371 448.5 250 448.5Z" fill="white"/>
</mask>
<g mask="url(#mask9_201_754)">
<path d="M269.5 216.2C269.4 248.9 269.2 281.6 267.8 314.3C267.1 330.5 266.2 346.6 264.9 362.7C263.6 378.6 262.2 394.7 259.6 410.5C258.2 419 256.3 427.5 253.5 435.7C251.1 442.6 247.9 449.6 241.9 454C242.7 454.2 243.4 454.3 244.2 454.5C240 450.8 239.6 444.4 239.1 439.2C238.4 431.8 238.1 424.4 238.1 417C238 402.2 238.4 387.4 238.9 372.6C240 343 242.1 313.3 245.1 283.8C246.9 267.1 248.9 250.4 251.3 233.8C251.5 232.6 250.6 231.4 249.6 230.8C248.8 230.3 247.6 230.2 247.4 231.4C243 261.6 239.7 291.9 237.5 322.3C235.3 352.5 234 382.8 234.1 413.1C234.1 421.6 234.3 430.1 235.2 438.5C235.9 445.4 237.2 452.6 242.7 457.4C243.3 457.9 244.3 458.4 245 457.9C250.3 453.9 253.7 448 256.1 441.9C258.9 434.8 260.8 427.3 262.3 419.9C265.4 404.3 266.8 388.4 268.2 372.6C271.1 339.9 272.4 307 273 274.2C273.3 255.7 273.4 237.2 273.5 218.7C273.5 217.5 272.9 216.3 271.8 215.7C271 215.2 269.5 215 269.5 216.2Z" fill="white"/>
</g>
</svg>
