<svg width="500" height="500" viewBox="0 0 500 500" fill="none" xmlns="http://www.w3.org/2000/svg">
<mask id="mask0_201_684" style="mask-type:luminance" maskUnits="userSpaceOnUse" x="51" y="51" width="398" height="398">
<path d="M250 448.5C359.629 448.5 448.5 359.629 448.5 250C448.5 140.371 359.629 51.5 250 51.5C140.371 51.5 51.5 140.371 51.5 250C51.5 359.629 140.371 448.5 250 448.5Z" fill="white"/>
</mask>
<g mask="url(#mask0_201_684)">
<path d="M248.3 247.2C246.3 243.8 244.1 240.4 241.9 237.1C239.8 234 237.3 230.4 233.5 229.3C232.7 229.1 231.9 228.9 231.1 228.8C230.4 228.7 229.4 228.4 228.7 228.6C227 229.1 227.5 231.3 228 232.4C229.5 236 232.1 239.4 234.8 242.1C237.9 245.1 241.7 247.4 245.2 249.9C246 250.5 245.1 249.1 245 248.9C244.4 248 243.7 246.9 242.8 246.3C240.3 244.6 237.8 242.9 235.3 241.1C234.3 240.4 233.4 239.6 232.6 238.7C232.4 238.5 232.4 238.5 232.2 238.2C231.8 237.6 231.5 237.1 231.3 236.5C230.8 235.4 230.2 233.9 231.2 233C232.1 232.2 234 232.8 235 233C236.3 233.3 237.7 233.7 238.8 234.5C238.9 234.6 239.6 235.2 239.3 234.9C239.5 235.1 239.9 235.8 240.2 236.2C242.1 239.1 243.9 242 245.7 244.9C246.3 245.9 247 246.9 247.9 247.7C248 247.8 248.4 248.2 248.5 248.1C248.7 247.8 248.3 247.2 248.3 247.2Z" fill="white"/>
</g>
<mask id="mask1_201_684" style="mask-type:luminance" maskUnits="userSpaceOnUse" x="51" y="51" width="398" height="398">
<path d="M250 448.5C359.629 448.5 448.5 359.629 448.5 250C448.5 140.371 359.629 51.5 250 51.5C140.371 51.5 51.5 140.371 51.5 250C51.5 359.629 140.371 448.5 250 448.5Z" fill="white"/>
</mask>
<g mask="url(#mask1_201_684)">
<path d="M244.6 253.8C240.2 253.7 235.8 254.3 231.6 255.4C227.6 256.5 223.4 258 220 260.4C218.6 261.4 217.4 262.9 217.7 264.8C218 266.9 219.9 268.9 221.7 269.9C225.2 272 229.5 271.7 233.2 270.5C238 269 242.1 266 246.8 264.5C247.4 264.3 245.8 262.3 245.6 262.2C245.2 261.7 244.2 260.6 243.4 260.8C238.8 262.2 234.9 265 230.4 266.6C228.2 267.4 225.9 267.8 223.6 267.6C222.4 267.5 221.4 267 220.3 266.8C219.5 266.4 219.8 266.8 221.2 268.1C221.1 267.8 221.1 267.6 221.2 267.3C221.2 266.8 221.4 266.3 221.7 265.9C222.7 264.2 225 263.2 226.7 262.4C228.8 261.3 231.1 260.4 233.3 259.7C237.9 258.2 242.8 257.6 247.7 257.7C248.5 257.7 247.3 256 247.2 255.8C246.5 255.1 245.5 253.8 244.6 253.8Z" fill="white"/>
</g>
<mask id="mask2_201_684" style="mask-type:luminance" maskUnits="userSpaceOnUse" x="51" y="51" width="398" height="398">
<path d="M250 448.5C359.629 448.5 448.5 359.629 448.5 250C448.5 140.371 359.629 51.5 250 51.5C140.371 51.5 51.5 140.371 51.5 250C51.5 359.629 140.371 448.5 250 448.5Z" fill="white"/>
</mask>
<g mask="url(#mask2_201_684)">
<path d="M252.3 265.4C258.6 271 265.2 276.4 272.9 280.1C275 281.1 277.3 282.1 279.7 281.5C281.5 281 282.9 279.6 282.8 277.7C282.7 275.6 280.9 274.1 279.4 272.9C277.7 271.6 276 270.3 274.2 269C270.1 265.9 265.8 263 261.3 260.5C260.4 260 258.9 259.8 258.3 260.8C257.7 261.9 258.8 263.1 259.6 263.5C263.7 265.8 267.6 268.5 271.4 271.3C273.3 272.7 275.1 274.1 276.9 275.5C277.3 275.8 278.1 276.3 278.1 276.8C278.1 277.6 277.2 277.9 276.6 277.8C275.6 277.7 274.5 277 273.6 276.6C272.7 276.1 271.8 275.7 270.9 275.2C269.1 274.2 267.3 273 265.6 271.8C261.9 269.2 258.5 266.2 255.1 263.2C254.3 262.5 252.7 262 251.8 262.8C250.8 263.5 251.5 264.7 252.3 265.4Z" fill="white"/>
</g>
<mask id="mask3_201_684" style="mask-type:luminance" maskUnits="userSpaceOnUse" x="51" y="51" width="398" height="398">
<path d="M250 448.5C359.629 448.5 448.5 359.629 448.5 250C448.5 140.371 359.629 51.5 250 51.5C140.371 51.5 51.5 140.371 51.5 250C51.5 359.629 140.371 448.5 250 448.5Z" fill="white"/>
</mask>
<g mask="url(#mask3_201_684)">
<path d="M259.4 255.2C262.4 254.5 265.2 253.2 267.9 251.8C270.2 250.7 272.5 249.5 274.8 248.1C279.2 245.4 283.2 242 285.6 237.4C286.1 236.4 285.9 235.4 285.1 234.7C283 232.8 280 232.4 277.3 233.2C274.4 234.1 272.2 236.2 269.7 237.8C264.8 240.9 259.4 243.3 255 247.1C252.7 249.1 256.5 252.2 258.7 250.3C262.4 247.1 266.8 245.1 271 242.6C273.1 241.3 275 239.8 277.1 238.5C278.4 237.7 280.5 236.6 281.9 237.9C281.7 237 281.5 236.1 281.4 235.2C279.3 239.3 275.9 242.2 272 244.5C270 245.7 267.9 246.8 265.8 247.8C263.3 249 260.8 250.3 258.1 250.9C256.9 251.2 256.1 252.5 256.5 253.7C256.7 254.9 258.1 255.5 259.4 255.2Z" fill="white"/>
</g>
<mask id="mask4_201_684" style="mask-type:luminance" maskUnits="userSpaceOnUse" x="51" y="51" width="398" height="398">
<path d="M250 448.5C359.629 448.5 448.5 359.629 448.5 250C448.5 140.371 359.629 51.5 250 51.5C140.371 51.5 51.5 140.371 51.5 250C51.5 359.629 140.371 448.5 250 448.5Z" fill="white"/>
</mask>
<g mask="url(#mask4_201_684)">
<path d="M251.9 241.4C252.3 233 252.6 224.6 253.9 216.3C254.2 214.6 254.2 212.4 255 210.8C255.3 210.1 255.6 210.1 256.1 209.7C256.4 209.5 256.8 210.1 256 209.3C255.3 208.5 255.7 208.9 255.7 209.3C255.7 209.6 255.8 209.9 255.8 210.2C256.3 214.3 256.5 218.5 256.2 222.7C256 227.4 255.2 232 254.1 236.5C253.5 238.9 257.6 241.6 258.3 238.7C259.5 233.9 260.3 229 260.6 224.1C260.7 221.6 260.7 219 260.6 216.5C260.5 214.1 260.4 211.5 259.8 209.1C259.3 206.9 257.4 205 254.9 205.2C252.8 205.4 251.4 206.9 250.7 208.9C250 211 249.8 213.4 249.5 215.7C249.2 218.2 248.9 220.7 248.6 223.3C248.1 229 247.8 234.8 247.5 240.5C247.5 242.8 251.8 244.5 251.9 241.4Z" fill="white"/>
</g>
<mask id="mask5_201_684" style="mask-type:luminance" maskUnits="userSpaceOnUse" x="51" y="51" width="398" height="398">
<path d="M250 448.5C359.629 448.5 448.5 359.629 448.5 250C448.5 140.371 359.629 51.5 250 51.5C140.371 51.5 51.5 140.371 51.5 250C51.5 359.629 140.371 448.5 250 448.5Z" fill="white"/>
</mask>
<g mask="url(#mask5_201_684)">
<path d="M274.4 257C283 257.6 291.8 254.8 300.3 256.6C302.2 257 303.9 257.6 305.6 258.5C306.3 258.9 306.8 259.4 307.4 259.8L307.5 260V260.1C307.7 260 307.9 259.9 308.1 259.7C308 259.6 306.6 259.8 306.5 259.8C302 260 297.5 259.8 293 259.6C287.9 259.4 282.8 259 277.8 257.8C276.7 257.5 275.1 257.8 274.6 259C274.1 260.1 275.1 261.3 276.2 261.5C281.5 262.8 287 263.3 292.5 263.5C297.9 263.7 303.4 264.2 308.7 263.6C311 263.4 313.1 261.6 312.4 259.1C311.8 256.9 309.1 255.5 307.2 254.6C302.8 252.6 297.9 252 293.2 252.1C287.1 252.3 281 253.5 274.8 253.1C273.7 253 272.3 253.6 272.2 254.9C271.9 256.1 273.3 256.9 274.4 257Z" fill="white"/>
</g>
<mask id="mask6_201_684" style="mask-type:luminance" maskUnits="userSpaceOnUse" x="51" y="51" width="398" height="398">
<path d="M250 448.5C359.629 448.5 448.5 359.629 448.5 250C448.5 140.371 359.629 51.5 250 51.5C140.371 51.5 51.5 140.371 51.5 250C51.5 359.629 140.371 448.5 250 448.5Z" fill="white"/>
</mask>
<g mask="url(#mask6_201_684)">
<path d="M242.4 271.8C239.4 276.2 238.4 282 237.1 287C236.3 289.9 235.5 292.7 234.8 295.6C234.1 298 233.1 300.8 233.6 303.3C234.6 308.1 240.6 310.3 244.9 309.8C247.2 309.5 249.3 308.3 250.3 306.1C251.3 303.9 251.3 301.3 251.4 298.9C251.9 292.2 252.4 285.5 253 278.9C253.1 277.5 248.5 275.7 248.4 277.4C248 282.5 247.6 287.6 247.2 292.7C247 295.1 246.8 297.6 246.6 300C246.4 301.9 246.1 304.2 244.6 305.6C243.4 306.7 241.2 307.4 239.6 306.9C238.1 306.4 237.9 304.2 238 302.9C238.2 300.5 239.1 298.1 239.7 295.7C240.4 293.3 241 290.9 241.7 288.6C243.1 283.7 244 278.1 246.9 273.8C247.7 272.8 243.3 270.5 242.4 271.8Z" fill="white"/>
</g>
<mask id="mask7_201_684" style="mask-type:luminance" maskUnits="userSpaceOnUse" x="51" y="51" width="398" height="398">
<path d="M250 448.5C359.629 448.5 448.5 359.629 448.5 250C448.5 140.371 359.629 51.5 250 51.5C140.371 51.5 51.5 140.371 51.5 250C51.5 359.629 140.371 448.5 250 448.5Z" fill="white"/>
</mask>
<g mask="url(#mask7_201_684)">
<path d="M233.9 245C222.9 241.2 211.6 238.6 200 237.5C197.2 237.2 194 236.9 192 239.2C190.7 240.7 190.6 242.9 191.7 244.5C193 246.5 195.6 247.3 197.8 247.9C200.5 248.6 203.3 248.9 206.1 249.1C212.3 249.5 218.5 249.3 224.5 251.1C225.6 251.4 227.1 250.9 227.9 250.1C228.7 249.3 228.3 248.6 227.4 248.3C222.8 246.9 218.1 246.6 213.3 246.4C208.7 246.2 203.9 246.2 199.4 244.7C197.8 244.2 195.8 243.1 195.7 241.1C195.7 240.7 195.9 240.4 195.9 240.1C195.9 240 196.1 239.9 196.1 239.8C196.2 240.2 194.8 239.9 195.5 240.1C195.9 240.3 196.6 240.2 197.1 240.2C197.8 240.3 198.5 240.3 199.2 240.4C204.1 240.9 209 241.7 213.8 242.8C219.3 244 224.8 245.5 230.1 247.4C231.2 247.8 232.5 247.6 233.5 246.9C234.2 246.6 235.1 245.4 233.9 245Z" fill="white"/>
</g>
<mask id="mask8_201_684" style="mask-type:luminance" maskUnits="userSpaceOnUse" x="51" y="51" width="398" height="398">
<path d="M250 448.5C359.629 448.5 448.5 359.629 448.5 250C448.5 140.371 359.629 51.5 250 51.5C140.371 51.5 51.5 140.371 51.5 250C51.5 359.629 140.371 448.5 250 448.5Z" fill="white"/>
</mask>
<g mask="url(#mask8_201_684)">
<path d="M272.9 221.7C274.9 216.2 277.4 210.9 280.6 206C282.1 203.7 283.7 201.4 285.5 199.3C286.3 198.4 287.2 197.4 288.2 196.7C288.9 196.2 290.2 195.2 291.1 195.2C290.7 195.1 290.3 195 289.9 194.8C290 194.8 290.1 194.9 290.1 194.9C289.8 194.6 289.4 194.3 289.1 194C289.1 194.1 289.2 194.2 289.2 194.2C289 193.8 288.9 193.5 288.7 193.1C289.1 194.9 287.7 196.8 286.8 198.2C285.5 200.2 284.3 202.1 283.1 204.2C280.8 208.2 278.7 212.3 276.9 216.6C275.9 219 280.1 221.6 281.2 219C283.1 214.6 285.2 210.4 287.6 206.2C288.8 204.2 290.1 202.2 291.3 200.2C292.5 198.3 293.4 196.3 293.3 194C293.2 192.7 292.6 191.6 291.5 191C290.3 190.4 289.2 190.6 288.1 191C286.1 191.7 284.4 192.9 282.9 194.4C279.7 197.4 277.3 201.4 275 205.1C272.3 209.6 270.1 214.3 268.3 219.2C267.7 221.7 272 224.3 272.9 221.7Z" fill="white"/>
</g>
<mask id="mask9_201_684" style="mask-type:luminance" maskUnits="userSpaceOnUse" x="51" y="51" width="398" height="398">
<path d="M250 448.5C359.629 448.5 448.5 359.629 448.5 250C448.5 140.371 359.629 51.5 250 51.5C140.371 51.5 51.5 140.371 51.5 250C51.5 359.629 140.371 448.5 250 448.5Z" fill="white"/>
</mask>
<g mask="url(#mask9_201_684)">
<path d="M298.7 240.8C309.1 240.7 319.7 240.4 330.1 242.1C332.3 242.5 334.5 243.3 335.8 245.2C336.3 246 336.7 246.9 336.7 247.9C336.7 248.3 336.7 248.7 336.5 249.1C336.4 249.3 336.4 249.5 336.2 249.7C336.1 249.9 336 250.1 335.8 250.2C336.2 250.2 336.6 250.2 337 250.2C336.5 250.4 335.5 250.1 335 250C334.3 249.9 333.7 249.9 333 249.8C331.7 249.7 330.3 249.5 329 249.4C326.3 249.1 323.6 248.8 321 248.5C315 247.8 309.1 246.8 303.2 245.8C302.3 245.6 300.6 245.3 299.8 245.7C299 246.1 300.2 246.3 300.7 246.3C307 247.4 313.4 248.4 319.7 249.2C322.8 249.6 325.9 249.9 329 250.2C332.2 250.5 335.4 251 338.6 251C339.7 251 340.8 250.9 341.3 249.9C341.9 248.9 341.8 247.6 341.4 246.5C340.6 244.2 338.4 242.9 336.2 242.2C333.5 241.3 330.6 241.1 327.8 240.7C324.7 240.3 321.5 240.1 318.3 239.9C311 239.5 303.7 239.6 296.4 239.7C295.9 239.7 294.8 239.7 295.5 240.2C296 240.9 297.8 240.8 298.7 240.8Z" fill="white"/>
</g>
<mask id="mask10_201_684" style="mask-type:luminance" maskUnits="userSpaceOnUse" x="51" y="51" width="398" height="398">
<path d="M250 448.5C359.629 448.5 448.5 359.629 448.5 250C448.5 140.371 359.629 51.5 250 51.5C140.371 51.5 51.5 140.371 51.5 250C51.5 359.629 140.371 448.5 250 448.5Z" fill="white"/>
</mask>
<g mask="url(#mask10_201_684)">
<path d="M294.2 271.6C301.8 271.6 309.4 272.2 316.9 273.4C320.6 274 324.3 274.7 327.9 275.5C329.1 275.8 330.7 276 331.6 276.9C332.7 277.9 333.2 279.4 333.2 280.9C333.3 280.8 333.3 280.7 333.4 280.6C330.7 282.4 327.4 282.2 324.2 281.9C320.7 281.5 317.3 280.7 313.9 279.7C307.1 277.9 300.4 275.6 293.5 274.7C292.4 274.5 293.6 275.8 293.8 276C294.7 276.7 295.8 277.3 296.9 277.4C303.1 278.3 309.1 280.3 315.2 281.9C320.8 283.4 326.9 285.2 332.7 284.7C334 284.6 335.3 284.4 336.4 283.8C336.8 283.6 337.5 283.3 337.6 282.9C337.8 282.3 337.5 281.5 337.3 281C336.4 278.3 333.9 276.5 331.5 275.2C328.7 273.7 325.6 273 322.5 272.4C319.4 271.7 316.2 271.2 313 270.7C305.6 269.6 298.2 269 290.8 269C289.7 269 290.8 270 291.1 270.3C291.9 270.8 293.1 271.6 294.2 271.6Z" fill="white"/>
</g>
<mask id="mask11_201_684" style="mask-type:luminance" maskUnits="userSpaceOnUse" x="51" y="51" width="398" height="398">
<path d="M250 448.5C359.629 448.5 448.5 359.629 448.5 250C448.5 140.371 359.629 51.5 250 51.5C140.371 51.5 51.5 140.371 51.5 250C51.5 359.629 140.371 448.5 250 448.5Z" fill="white"/>
</mask>
<g mask="url(#mask11_201_684)">
<path d="M268.6 287.1C272.5 295.8 276.4 304.6 279 313.8C280.3 318.4 281.3 323 281.8 327.7C282.2 331.6 282.8 336.4 280.1 339.6C281.5 339.9 282.8 340.2 284.2 340.6C279.1 335.2 277.7 327.4 276.3 320.4C274.4 311.6 272.3 302.9 269.9 294.2C269.5 292.7 264.8 291.7 265.2 293.1C267.7 302 269.8 311 271.7 320.1C273.3 327.5 275 335.1 280.4 340.8C281 341.5 283.7 342.7 284.5 341.8C287.3 338.5 287.1 334.2 286.8 330.2C286.4 325.3 285.4 320.5 284.1 315.8C281.4 306.3 277.4 297.2 273.4 288.2C273 287.2 271.8 286.7 270.8 286.4C270.4 286.3 268.2 286.1 268.6 287.1Z" fill="white"/>
</g>
<mask id="mask12_201_684" style="mask-type:luminance" maskUnits="userSpaceOnUse" x="51" y="51" width="398" height="398">
<path d="M250 448.5C359.629 448.5 448.5 359.629 448.5 250C448.5 140.371 359.629 51.5 250 51.5C140.371 51.5 51.5 140.371 51.5 250C51.5 359.629 140.371 448.5 250 448.5Z" fill="white"/>
</mask>
<g mask="url(#mask12_201_684)">
<path d="M227.7 282.2C220.9 294.6 214 307.2 204 317.3C202.8 318.5 201.6 319.7 200.3 320.8C199 321.9 198.4 322.4 196.9 322.3C193.3 322 191.9 318.5 191.8 315.4C191.6 308.2 197.3 302.8 202.7 298.9C210 293.6 217.5 288.5 224.9 283.3C225.6 282.8 225.4 282.4 224.6 282.5C223.5 282.7 222.3 283.3 221.4 283.9C214.1 289 206.7 294 199.5 299.2C193.7 303.4 187.4 308.9 187.3 316.7C187.2 320.2 188.7 324 192.6 324.4C196.5 324.9 200.6 322.7 203.5 320.4C209.5 315.7 214.4 309.5 218.8 303.3C223.9 296 228.2 288.2 232.4 280.4C232.8 279.8 230.6 280.4 230.5 280.4C229.5 280.8 228.2 281.3 227.7 282.2Z" fill="white"/>
</g>
<mask id="mask13_201_684" style="mask-type:luminance" maskUnits="userSpaceOnUse" x="51" y="51" width="398" height="398">
<path d="M250 448.5C359.629 448.5 448.5 359.629 448.5 250C448.5 140.371 359.629 51.5 250 51.5C140.371 51.5 51.5 140.371 51.5 250C51.5 359.629 140.371 448.5 250 448.5Z" fill="white"/>
</mask>
<g mask="url(#mask13_201_684)">
<path d="M209.2 253.5C202.3 252.8 195.4 252.3 188.5 252.1C181.9 251.9 175 251.5 168.5 252.7C165.6 253.2 162.2 253.9 159.9 255.8C157.9 257.5 157.5 260.3 159.8 261.9C162.2 263.6 165.8 263.5 168.6 263.7C172 263.9 175.5 264 179 264.1C186.9 264.2 194.7 263.7 202.6 262.8C203.6 262.7 205 262 204.9 260.8C204.8 259.6 203.1 259.3 202.2 259.4C190.2 260.8 178 261 165.9 260C164.8 259.9 161.9 259.3 163.8 257.8C164.5 257.2 165.5 257 166.4 256.8C167.7 256.4 169.1 256.1 170.5 255.9C176.2 255.1 182.1 255.3 187.8 255.5C194.7 255.7 201.6 256.2 208.5 256.9C209.5 257 211.1 256.5 211.4 255.3C211.5 254.1 210.2 253.6 209.2 253.5Z" fill="white"/>
</g>
<mask id="mask14_201_684" style="mask-type:luminance" maskUnits="userSpaceOnUse" x="51" y="51" width="398" height="398">
<path d="M250 448.5C359.629 448.5 448.5 359.629 448.5 250C448.5 140.371 359.629 51.5 250 51.5C140.371 51.5 51.5 140.371 51.5 250C51.5 359.629 140.371 448.5 250 448.5Z" fill="white"/>
</mask>
<g mask="url(#mask14_201_684)">
<path d="M220.1 232.8C208.2 228.7 196.5 223.9 185.5 217.7C184.2 217 183 216.2 181.8 215.5C180.5 214.7 179.1 213.8 178.2 212.5C177.8 212 177.5 211.3 177.4 210.6C177.3 209.9 177.5 209.4 177.6 208.7C177.7 208.6 177.7 208.6 177.8 208.5C177.7 208.6 177.6 208.7 177.4 208.8C177.5 209.1 176.8 208.8 177.7 208.9C178.5 209 179.2 209.1 179.9 209.4C182.7 210.5 185.4 212.1 188 213.6C190.7 215.1 193.3 216.7 195.9 218.3C201.8 222.1 207.4 226.2 212.7 230.7C213.8 231.6 218 229 216.7 227.9C211.4 223.5 205.9 219.4 200.1 215.6C197.2 213.7 194.2 212 191.2 210.3C188.3 208.7 185.3 206.7 182 205.9C179 205.2 175.1 206.6 173.4 209.3C171.7 212.1 173.6 215.1 175.9 216.8C178.5 218.7 181.5 220.3 184.4 221.8C187.5 223.5 190.6 225 193.8 226.5C201 229.8 208.4 232.7 216 235.3C217 235.7 218.2 235.1 219.1 234.5C219.4 234.5 221.1 233.1 220.1 232.8Z" fill="white"/>
</g>
<mask id="mask15_201_684" style="mask-type:luminance" maskUnits="userSpaceOnUse" x="51" y="51" width="398" height="398">
<path d="M250 448.5C359.629 448.5 448.5 359.629 448.5 250C448.5 140.371 359.629 51.5 250 51.5C140.371 51.5 51.5 140.371 51.5 250C51.5 359.629 140.371 448.5 250 448.5Z" fill="white"/>
</mask>
<g mask="url(#mask15_201_684)">
<path d="M238.8 222.4C237.9 217.6 237.3 212.8 236.8 207.9C236.4 203.5 235.8 198.9 236.2 194.5C236.3 192.9 236.6 191.3 237.6 190C238.1 189.3 238.6 188.8 239.3 188.4C239.6 188.3 240.2 188.3 240.4 188.1C240.6 187.9 240.4 188.2 240.3 187.9C240.1 187 240.2 188 240.2 187.9C240.2 189 240.4 190.2 240.5 191.3C240.6 192.5 240.7 193.8 240.8 195C241 197.5 241.1 200.1 241.2 202.6C241.5 208.2 241.5 213.9 241.5 219.5C241.5 220.7 242.2 222 243.3 222.5C244.3 222.9 245.3 222.4 245.4 221.3C245.5 215.4 245.4 209.5 245.1 203.7C245 200.8 244.8 197.9 244.6 195C244.4 192.4 244.5 189.4 243.6 187C242.6 184.5 240.1 182.9 237.4 183.8C235.4 184.5 234 186.3 233.2 188.3C231.5 192.6 232.2 197.9 232.5 202.4C232.9 208.9 233.7 215.3 234.9 221.7C235.1 222.8 236 224.1 237.2 224.3C238.5 224.5 239 223.4 238.8 222.4Z" fill="white"/>
</g>
<mask id="mask16_201_684" style="mask-type:luminance" maskUnits="userSpaceOnUse" x="51" y="51" width="398" height="398">
<path d="M250 448.5C359.629 448.5 448.5 359.629 448.5 250C448.5 140.371 359.629 51.5 250 51.5C140.371 51.5 51.5 140.371 51.5 250C51.5 359.629 140.371 448.5 250 448.5Z" fill="white"/>
</mask>
<g mask="url(#mask16_201_684)">
<path d="M216.5 320.8C212.9 334.4 204.6 346.8 204.1 361.1C204.1 362.7 204.1 364.3 204.3 365.9C204.4 367.2 204.5 369 205.7 369.7C206.8 370.3 208.1 369.8 209.1 369.3C210.7 368.6 212.5 367.7 213.6 366.3C214.5 365.1 215 363.5 215.6 362.1C216.3 360.5 216.9 358.9 217.5 357.3C218.7 354.1 219.8 350.8 220.8 347.5C223.1 339.9 224.8 332.2 226 324.3C226 324.2 223.8 325.1 223.6 325.2C223.1 325.4 221.6 326 221.5 326.6C219.6 339.5 216.1 352.1 211.1 364.1C210.6 365.4 210.1 366.8 209.3 368C209.2 368.2 209 368.4 208.8 368.6C210.1 366.2 212 367.8 210.4 367.5C209.7 367.4 209.3 366.9 209 366.3C208.5 365.1 208.5 363.7 208.4 362.4C208.3 360.7 208.3 359.1 208.4 357.4C208.8 351 210.8 344.8 213.2 338.8C215.8 332.1 218.9 325.5 220.7 318.5C220.7 318.4 218.5 319.3 218.3 319.4C218 319.6 216.7 320.1 216.5 320.8Z" fill="white"/>
</g>
<mask id="mask17_201_684" style="mask-type:luminance" maskUnits="userSpaceOnUse" x="51" y="51" width="398" height="398">
<path d="M250 448.5C359.629 448.5 448.5 359.629 448.5 250C448.5 140.371 359.629 51.5 250 51.5C140.371 51.5 51.5 140.371 51.5 250C51.5 359.629 140.371 448.5 250 448.5Z" fill="white"/>
</mask>
<g mask="url(#mask17_201_684)">
<path d="M250.6 320.8C250.1 327.5 249.9 334.3 249.8 341.1C249.8 344.6 249.7 348 249.8 351.5C249.8 354.6 249.7 357.7 250.2 360.7C250.6 363.6 252 366 254.4 367.8C256.3 369.2 259.3 370.4 261.5 369C263.5 367.7 263.9 365.2 264.1 363C264.4 359.6 264.6 356.2 264.7 352.7C264.9 345.2 264.4 337.7 263.3 330.2C263.1 329.1 262.1 328.3 261.2 327.8C260.9 327.6 258.9 326.8 259 327.8C259.8 333.7 260.3 339.7 260.4 345.6C260.4 348.5 260.4 351.5 260.2 354.4C260.1 357.1 260 359.8 259.5 362.4C259.3 363.4 259 364.3 258.3 365.1C257.5 366.1 256.6 366 255.5 366C255.4 366 255.4 365.9 255.3 365.9C255.6 366 255.6 366.3 255.3 365.9C255.1 365.5 254.9 365.2 254.8 364.8C254.3 363.6 254.2 362.2 254.1 360.9C253.8 355.1 253.9 349.2 253.9 343.3C254 336.5 254.3 329.8 254.7 323C254.9 321.7 250.7 319.3 250.6 320.8Z" fill="white"/>
</g>
<mask id="mask18_201_684" style="mask-type:luminance" maskUnits="userSpaceOnUse" x="51" y="51" width="398" height="398">
<path d="M250 448.5C359.629 448.5 448.5 359.629 448.5 250C448.5 140.371 359.629 51.5 250 51.5C140.371 51.5 51.5 140.371 51.5 250C51.5 359.629 140.371 448.5 250 448.5Z" fill="white"/>
</mask>
<g mask="url(#mask18_201_684)">
<path d="M284.9 304.2C298.8 317.8 307.2 336.2 322 349C325.5 352 329.2 354.7 333.3 356.7C335.4 357.7 337.7 359 340 359.1C342.6 359.2 344.6 357.6 345.3 355.1C346.8 350 344 344.9 340.4 341.4C338.6 339.7 336.6 338.2 334.7 336.7C332.7 335.1 330.8 333.5 328.9 331.8C320.4 324.4 312.6 316.1 305.7 307.2C305 306.2 303.6 305.6 302.5 306.3C301.5 307 301.3 308.6 302.1 309.6C308 317.1 314.4 324.3 321.4 330.8C324.8 334 328.4 337.1 332 340.1C335.3 342.8 339.6 345.4 340.9 349.7C341.2 350.8 341.7 353.7 340.2 354.2C339.5 354.5 338.5 354 337.8 353.8C336.8 353.4 335.8 352.9 334.9 352.4C331.2 350.5 327.8 348.1 324.6 345.4C318 339.7 312.7 332.7 307.6 325.7C301.4 317.1 295.3 308.2 287.7 300.7C286.8 299.9 285.3 299.7 284.5 300.7C283.6 301.9 284 303.4 284.9 304.2Z" fill="white"/>
</g>
<mask id="mask19_201_684" style="mask-type:luminance" maskUnits="userSpaceOnUse" x="51" y="51" width="398" height="398">
<path d="M250 448.5C359.629 448.5 448.5 359.629 448.5 250C448.5 140.371 359.629 51.5 250 51.5C140.371 51.5 51.5 140.371 51.5 250C51.5 359.629 140.371 448.5 250 448.5Z" fill="white"/>
</mask>
<g mask="url(#mask19_201_684)">
<path d="M305.4 297.3C320.9 302.9 337.4 304.7 353.8 305.7C357.8 305.9 361.9 306.3 365.9 306.3C367.1 306.3 368.7 306.1 369.6 305.3C370.7 304.2 370.2 302.7 369.6 301.5C367.7 297.8 364 296 360.2 294.8C356.3 293.6 352.3 292.8 348.4 292C338.9 290.1 329.3 288.6 319.6 287.5C318.8 287.4 319.7 289.2 319.8 289.4C320.1 290 321 291.7 321.8 291.7C329.7 292.5 337.5 293.7 345.3 295.1C349.3 295.8 353.2 296.7 357.2 297.6C360.5 298.4 363.9 299.1 366.9 300.8C367.2 301 367.6 301.3 367.9 301.5C368 301.6 368.1 301.7 368.2 301.7C367.7 300 367.3 299.6 367.2 300.4C366.8 300.9 366.6 301.2 366 301.5C364.5 302.2 362.9 302 361.3 301.9C357.6 301.7 353.9 301.5 350.2 301.3C342.6 300.8 335.1 300.2 327.6 299C319.2 297.7 311 295.8 303 293C302.2 292.7 303.2 294.8 303.2 294.9C303.8 295.8 304.5 297 305.4 297.3Z" fill="white"/>
</g>
<mask id="mask20_201_684" style="mask-type:luminance" maskUnits="userSpaceOnUse" x="51" y="51" width="398" height="398">
<path d="M250 448.5C359.629 448.5 448.5 359.629 448.5 250C448.5 140.371 359.629 51.5 250 51.5C140.371 51.5 51.5 140.371 51.5 250C51.5 359.629 140.371 448.5 250 448.5Z" fill="white"/>
</mask>
<g mask="url(#mask20_201_684)">
<path d="M325.9 264.1C340.4 270.8 356.4 273.1 372.1 273.6C375.9 273.7 379.9 274 383.6 273.4C385.3 273.1 387.5 272.7 388.7 271.4C390.1 269.9 389.7 267.9 388.5 266.5C387.2 265 385.1 264.4 383.3 263.7C381.4 263 379.6 262.4 377.7 261.8C373.8 260.6 369.8 259.7 365.8 259C356.8 257.5 347.7 257.3 338.7 258.4C337.5 258.5 338 260.3 338.3 260.9C338.8 261.9 339.9 262.8 341 262.7C355.4 261 370.2 262.7 383.8 267.7C384.6 268 385.5 268.6 386.4 268.7C386.5 268.7 386.6 268.8 386.7 268.8C386.4 267.1 386 266.6 385.7 267.2C385.6 267.3 385.2 267.7 385.1 267.8C383.6 268.8 381.5 269 379.8 269.2C376.4 269.5 372.9 269.3 369.5 269.2C362.3 268.9 355.1 268.3 348 267C340.2 265.6 332.6 263.3 325.4 260C324.4 259.5 323.6 260.3 323.7 261.3C323.9 262.6 324.9 263.6 325.9 264.1Z" fill="white"/>
</g>
<mask id="mask21_201_684" style="mask-type:luminance" maskUnits="userSpaceOnUse" x="51" y="51" width="398" height="398">
<path d="M250 448.5C359.629 448.5 448.5 359.629 448.5 250C448.5 140.371 359.629 51.5 250 51.5C140.371 51.5 51.5 140.371 51.5 250C51.5 359.629 140.371 448.5 250 448.5Z" fill="white"/>
</mask>
<g mask="url(#mask21_201_684)">
<path d="M295.3 232.5C313.8 231 332.7 229.4 350.2 222.6C354.2 221 359.7 219.3 361.8 215.1C362.3 214 361.8 212.7 360.7 212.1C353.4 208.2 345.3 208.9 337.6 210.8C328.9 212.9 320.4 215.8 311.9 218.4C306.9 219.9 301.9 221.4 296.9 222.9C295.7 223.3 295.6 224.8 296.2 225.7C296.9 226.8 298.2 227.3 299.5 226.9C307.8 224.4 316.2 221.9 324.5 219.4C332 217.2 339.5 214.3 347.3 213.6C351.1 213.3 355.1 213.6 358.5 215.4C358.1 214.4 357.8 213.4 357.4 212.4C355.7 215.8 351.1 217.1 347.9 218.4C343.8 220 339.6 221.4 335.3 222.4C326.7 224.6 317.8 225.9 309 226.8C303.9 227.3 298.8 227.7 293.7 228.2C292.5 228.3 291.8 229.5 292.2 230.6C292.7 231.8 294.1 232.6 295.3 232.5Z" fill="white"/>
</g>
<mask id="mask22_201_684" style="mask-type:luminance" maskUnits="userSpaceOnUse" x="51" y="51" width="398" height="398">
<path d="M250 448.5C359.629 448.5 448.5 359.629 448.5 250C448.5 140.371 359.629 51.5 250 51.5C140.371 51.5 51.5 140.371 51.5 250C51.5 359.629 140.371 448.5 250 448.5Z" fill="white"/>
</mask>
<g mask="url(#mask22_201_684)">
<path d="M274.1 198C276 188.7 277.7 179.4 279.2 170.1C279.9 165.4 280.6 160.7 281.3 156C281.9 151.4 282.7 146.8 283 142.1C283.1 140.4 283 138.7 282 137.2C280.9 135.4 278.8 134.7 276.7 135C273.1 135.6 269.9 138.6 267.9 141.5C263.5 147.8 262.5 155.8 261.6 163.3C260.3 174 259.9 184.7 259.4 195.4C259.4 196.7 260.9 197.4 262 197.2C263.3 197 264.2 196 264.3 194.6C264.6 186 265 177.3 265.8 168.7C266.2 164.5 266.7 160.3 267.5 156.2C268 153.2 268.7 150.2 269.9 147.3C271 144.6 272.6 142.1 275 140.4C275.6 140 277 138.8 277.7 139.5C278.4 140.3 278.2 142.1 278.1 143C277.1 151.6 276 160.2 274.6 168.7C273.1 178.3 271.3 187.9 269.3 197.4C268.7 200.6 273.6 200.7 274.1 198Z" fill="white"/>
</g>
<mask id="mask23_201_684" style="mask-type:luminance" maskUnits="userSpaceOnUse" x="51" y="51" width="398" height="398">
<path d="M250 448.5C359.629 448.5 448.5 359.629 448.5 250C448.5 140.371 359.629 51.5 250 51.5C140.371 51.5 51.5 140.371 51.5 250C51.5 359.629 140.371 448.5 250 448.5Z" fill="white"/>
</mask>
<g mask="url(#mask23_201_684)">
<path d="M227 194.7C224 185.9 220.4 177.3 216.4 169C214.4 164.9 212.3 160.8 210 156.8C208.9 154.8 207.7 152.8 206.5 150.8C205.5 149.1 204.5 147.4 203.2 145.9C202.1 144.6 200.8 143.6 199.1 143.1C198 142.8 196.8 142.7 195.6 142.8C194.5 142.8 193.2 142.8 192.3 143.4C190.7 144.4 190.5 147 190.4 148.7C190.3 150.9 190.7 153 191.2 155.1C192.4 159.5 194.6 163.5 196.2 167.8C197.9 172.2 199.2 176.8 200.7 181.3C203.6 189.9 207.6 198.8 215.4 204C216.1 204.5 217.6 204.3 218.5 204.2C218.7 204.2 220.6 203.9 220.2 203.7C213.8 199.5 209.9 192.7 207.2 185.7C205.6 181.6 204.4 177.3 203 173.1C201.7 169 200 165 198.3 161C196.7 157.2 195.2 153.2 195.3 149.1C195.3 148.2 195.4 147.2 195.6 146.3C195.7 145.9 195.8 145.4 196 145C196.1 144.7 196.9 143.8 196.9 143.7C197 144 194 143.3 194.8 143.7C195 143.8 195.2 143.8 195.4 143.9C195.8 144.1 196.1 144.3 196.5 144.5C197.3 145.1 198 145.8 198.6 146.5C201.1 149.6 203 153.3 204.9 156.8C207 160.5 209 164.3 210.9 168.2C215.2 176.9 218.9 185.8 222 195C222.3 195.8 227.1 194.8 227 194.7Z" fill="white"/>
</g>
<mask id="mask24_201_684" style="mask-type:luminance" maskUnits="userSpaceOnUse" x="51" y="51" width="398" height="398">
<path d="M250 448.5C359.629 448.5 448.5 359.629 448.5 250C448.5 140.371 359.629 51.5 250 51.5C140.371 51.5 51.5 140.371 51.5 250C51.5 359.629 140.371 448.5 250 448.5Z" fill="white"/>
</mask>
<g mask="url(#mask24_201_684)">
<path d="M180.9 229.6C171.9 229.3 162.8 229.1 153.8 228.8C149.3 228.7 144.9 228.5 140.4 228.4C136 228.3 131.6 228 127.2 228.1C123.4 228.2 118.8 228.3 115.4 230.1C111.2 232.2 114.1 237.4 116.9 239.3C119.8 241.3 123.5 241.3 126.9 241.4C131.4 241.5 135.9 241.6 140.4 241.7C150.6 242 160.9 242.2 171.1 242.5C173.9 242.6 172.2 238 170 238C161.7 237.8 153.4 237.6 145 237.4C140.8 237.3 136.7 237.2 132.5 237.1C128.8 237 125 237.2 121.3 236.7C120.1 236.5 118.8 236.3 117.8 235.5C117.6 235.4 117.2 235 117.3 234.9C117.3 234.4 118.5 234.1 118.8 234C122.3 232.9 126 232.7 129.7 232.6C137.8 232.6 146 233 154.2 233.3C163.5 233.6 172.8 233.8 182 234.1C184.8 234.2 183.1 229.7 180.9 229.6Z" fill="white"/>
</g>
<mask id="mask25_201_684" style="mask-type:luminance" maskUnits="userSpaceOnUse" x="51" y="51" width="398" height="398">
<path d="M250 448.5C359.629 448.5 448.5 359.629 448.5 250C448.5 140.371 359.629 51.5 250 51.5C140.371 51.5 51.5 140.371 51.5 250C51.5 359.629 140.371 448.5 250 448.5Z" fill="white"/>
</mask>
<g mask="url(#mask25_201_684)">
<path d="M192.8 272.2C182.4 274.1 172.4 277.3 162.4 280.7C153 283.9 143.5 286.9 134.9 292C131.6 293.9 126.1 297 126.7 301.6C127.4 306.8 133.7 307.7 137.9 307C140.4 306.5 142.8 305.6 145.2 304.9C147.7 304.1 150.2 303.3 152.6 302.5C157.6 300.9 162.6 299.2 167.5 297.4C178.5 293.4 189.4 289 199.9 283.8C200.8 283.4 201.5 282.4 200.7 281.5C199.9 280.6 198.2 280.6 197.2 281.1C180 289.6 161.9 296 143.6 301.7C141.3 302.4 139 303.3 136.7 303.7C135.1 304 133.4 304 132.2 302.6C129.5 299.2 135.5 295.9 137.7 294.6C145.3 289.9 154 287.2 162.4 284.3C172.8 280.7 183.3 277.3 194.2 275.3C195.2 275.1 196.3 274.2 195.8 273.2C195.4 272.1 193.7 272.1 192.8 272.2Z" fill="white"/>
</g>
<mask id="mask26_201_684" style="mask-type:luminance" maskUnits="userSpaceOnUse" x="51" y="51" width="398" height="398">
<path d="M250 448.5C359.629 448.5 448.5 359.629 448.5 250C448.5 140.371 359.629 51.5 250 51.5C140.371 51.5 51.5 140.371 51.5 250C51.5 359.629 140.371 448.5 250 448.5Z" fill="white"/>
</mask>
<g mask="url(#mask26_201_684)">
<path d="M170.2 303.6C161.6 309.8 153 316 144.3 322.3C140 325.4 135.7 328.5 131.4 331.6C127.3 334.5 123.2 337.4 119.3 340.5C117.4 342 115.5 343.6 113.8 345.4C112.3 347 110.9 348.9 110.9 351.2C111 355.8 115.9 358.6 120 357.7C122.1 357.2 123.9 355.9 125.6 354.7C127.8 353.2 129.9 351.6 132.1 350.1C136.4 347 140.8 343.9 145.1 340.8C154.9 333.8 164.6 326.9 174.4 319.9C176.3 318.5 173.2 314.6 171.3 316C155.3 327.4 139.3 338.8 123.3 350.2C121.6 351.4 119.9 352.8 117.9 353.3C117.2 353.5 116.5 353.5 115.8 353.3C115.6 353.2 115.3 353.2 115.1 353C114.3 352.3 115 352.9 114.9 352.8C114.4 351.3 116.7 349.3 117.6 348.4C119.2 346.9 120.9 345.4 122.7 344C130.3 338 138.3 332.6 146.2 326.9C155.2 320.4 164.1 314 173.1 307.5C175.2 306.1 172.1 302.2 170.2 303.6Z" fill="white"/>
</g>
<mask id="mask27_201_684" style="mask-type:luminance" maskUnits="userSpaceOnUse" x="51" y="51" width="398" height="398">
<path d="M250 448.5C359.629 448.5 448.5 359.629 448.5 250C448.5 140.371 359.629 51.5 250 51.5C140.371 51.5 51.5 140.371 51.5 250C51.5 359.629 140.371 448.5 250 448.5Z" fill="white"/>
</mask>
<g mask="url(#mask27_201_684)">
<path d="M179.7 340.7C174.6 348.6 169.6 356.6 164.6 364.5C160.1 371.6 155.7 378.9 152.7 386.8C152 388.6 151.1 390.6 150.9 392.6C150.7 395 152.4 397.2 154.5 398C157.9 399.4 161.6 397.6 164.2 395.3C167.2 392.6 169.5 389.2 171.9 386C174.4 382.5 176.9 379 179.2 375.4C184.5 367.3 189.2 358.8 193.3 350C194.1 348.3 190.4 345 189.5 347C182.8 361.3 174.5 374.9 164.7 387.4C162.7 389.9 160.4 392.8 157.3 393.9C156.6 394.2 155.8 394.3 155.1 394.3C155 394.3 154.1 394.1 154.1 394.2C154.5 393.9 154.6 395.8 155 395.2C155.1 395.1 155 394.7 155.1 394.5C155.5 392.6 156.3 390.7 157 388.9C159.9 381.7 163.9 375 168.1 368.4C173.3 360.2 178.5 352 183.7 343.8C184.5 342.1 180.9 338.7 179.7 340.7Z" fill="white"/>
</g>
<mask id="mask28_201_684" style="mask-type:luminance" maskUnits="userSpaceOnUse" x="51" y="51" width="398" height="398">
<path d="M250 448.5C359.629 448.5 448.5 359.629 448.5 250C448.5 140.371 359.629 51.5 250 51.5C140.371 51.5 51.5 140.371 51.5 250C51.5 359.629 140.371 448.5 250 448.5Z" fill="white"/>
</mask>
<g mask="url(#mask28_201_684)">
<path d="M230.6 351.4C224.2 367.4 220.4 384.5 219.3 401.7C219.2 403.8 219.1 405.9 219 408C219 409.8 218.7 411.8 219.2 413.6C220.5 417.6 225.9 417.7 228.7 415.3C231.5 412.9 233.4 409.1 234.9 405.8C236.5 402.3 237.7 398.5 238.6 394.7C240.7 385 240.6 375.1 240.4 365.2C240.4 364.1 239.2 363.5 238.2 363.3C237.6 363.2 235.4 363.1 235.5 364.2C235.8 379.3 236 395.6 227.7 408.9C226.8 410.3 225.9 411.9 224.7 413C224.4 413.2 224.1 413.5 223.8 413.7C223.7 413.8 223.5 413.8 223.4 413.9C223.1 414.1 223 413.8 223.3 414C223.3 414 224.2 414.2 224.2 414.3C224.2 414.3 224 414 224 413.9C223.9 413.5 223.8 413.2 223.8 412.8C223.6 411 223.8 409 223.9 407.1C224 405.2 224.1 403.2 224.2 401.3C224.8 393.4 225.9 385.6 227.6 377.9C229.5 369.2 232.1 360.7 235.4 352.4C236.2 350.6 231.4 349.5 230.6 351.4Z" fill="white"/>
</g>
<mask id="mask29_201_684" style="mask-type:luminance" maskUnits="userSpaceOnUse" x="51" y="51" width="398" height="398">
<path d="M250 448.5C359.629 448.5 448.5 359.629 448.5 250C448.5 140.371 359.629 51.5 250 51.5C140.371 51.5 51.5 140.371 51.5 250C51.5 359.629 140.371 448.5 250 448.5Z" fill="white"/>
</mask>
<g mask="url(#mask29_201_684)">
<path d="M271.9 356.8C272.7 373.9 275.5 390.8 280.3 407.2C280.9 409.1 281.4 411.1 282.1 413C282.6 414.5 283.4 415.9 285 416.4C288.9 417.8 292.7 414.4 294.7 411.4C298.9 405.3 299.2 397.7 297.8 390.6C296.9 385.9 295.4 381.4 294.1 376.9C292.7 372.2 291.3 367.4 289.9 362.7C289.4 360.9 284.5 361.8 284.9 363.4C287.2 371 289.5 378.5 291.6 386.1C293.5 392.9 294.7 400.1 292.2 406.9C291.7 408.3 291 409.7 290.1 410.9C289.7 411.5 289.2 412.1 288.7 412.6C288.5 412.8 288.2 413.1 288 413.3C287.7 413.5 287 413.9 286.8 414.2C287.3 414.2 287.7 414.1 288.2 414.1C288.1 414 288 414 287.9 413.9C287.8 413.7 287.6 413.4 287.4 413.2C287 412.5 286.8 411.8 286.6 411.1C286 409.1 285.4 407.1 284.8 405.1C282.7 397.6 280.9 390 279.6 382.2C278.1 373.6 277.2 364.8 276.8 356.1C276.8 354.3 271.8 354.9 271.9 356.8Z" fill="white"/>
</g>
<mask id="mask30_201_684" style="mask-type:luminance" maskUnits="userSpaceOnUse" x="51" y="51" width="398" height="398">
<path d="M250 448.5C359.629 448.5 448.5 359.629 448.5 250C448.5 140.371 359.629 51.5 250 51.5C140.371 51.5 51.5 140.371 51.5 250C51.5 359.629 140.371 448.5 250 448.5Z" fill="white"/>
</mask>
<g mask="url(#mask30_201_684)">
<path d="M303.4 359.6C308.9 367.7 314.4 375.8 319.8 383.9C322.3 387.6 324.8 391.4 327.4 395.1C329.6 398.1 332 401.1 334.9 403.4C338 405.8 341.6 407.7 345.5 408.1C348.7 408.4 352.6 407.4 354.3 404.4C356.3 400.9 354.2 396.8 352.1 393.9C349.4 390.2 346.1 386.7 343.1 383.2C339.6 379.1 336.2 375.1 332.7 371C329.4 367.2 326.1 363.4 322.2 360.1C321.5 359.5 320.1 358.6 319.1 358.7C318.1 358.8 319 359.7 319.4 360C322.4 362.5 325.1 365.5 327.6 368.5C330.4 371.7 333.1 375 335.9 378.3C338.8 381.7 341.7 385.1 344.5 388.4C346.9 391.2 349.9 394.2 350.5 398C351.1 401.6 348.5 404.3 345.2 405.1C342.5 405.8 339.7 405.1 337.6 403.4C335 401.4 332.9 398.7 331.1 396C328.7 392.6 326.4 389.1 324.1 385.7C318.5 377.5 313 369.2 307.4 361C306.8 360.1 305.5 359.5 304.5 359.1C304.3 359 302.8 358.7 303.4 359.6Z" fill="white"/>
</g>
<mask id="mask31_201_684" style="mask-type:luminance" maskUnits="userSpaceOnUse" x="51" y="51" width="398" height="398">
<path d="M250 448.5C359.629 448.5 448.5 359.629 448.5 250C448.5 140.371 359.629 51.5 250 51.5C140.371 51.5 51.5 140.371 51.5 250C51.5 359.629 140.371 448.5 250 448.5Z" fill="white"/>
</mask>
<g mask="url(#mask31_201_684)">
<path d="M338.6 326.7C355.6 333.9 370.9 345.5 389.3 349.2C391.5 349.7 393.8 350 396 350.2C398.1 350.4 400.6 350.7 402.6 350.2C407 349.1 402.4 342.8 401 341.1C395.9 334.9 388.6 331.3 381.2 328.4C371.3 324.6 361.2 321.1 351.2 317.5C350.2 317.1 350.6 318.4 350.9 318.9C351.3 319.8 352.2 321.1 353.2 321.5C361.7 324.6 370.1 327.6 378.6 330.7C385.3 333.1 392.3 335.6 397.8 340.3C399 341.3 400.2 342.4 401 343.7C400.7 343.2 401 343.9 401.1 344.1C401.2 344.4 401.2 344.8 401.1 345.1C400.8 346.1 399.8 346.2 398.9 346.3C394.8 346.5 390.5 346 386.5 345.2C378.2 343.5 370.3 340 362.8 336.2C354.1 331.8 345.7 326.8 336.6 322.9C335.6 322.5 336.1 323.8 336.3 324.3C336.7 325.1 337.6 326.3 338.6 326.7Z" fill="white"/>
</g>
<mask id="mask32_201_684" style="mask-type:luminance" maskUnits="userSpaceOnUse" x="51" y="51" width="398" height="398">
<path d="M250 448.5C359.629 448.5 448.5 359.629 448.5 250C448.5 140.371 359.629 51.5 250 51.5C140.371 51.5 51.5 140.371 51.5 250C51.5 359.629 140.371 448.5 250 448.5Z" fill="white"/>
</mask>
<g mask="url(#mask32_201_684)">
<path d="M364.7 287.2C382.7 291.8 401.2 294.3 419.8 294.7C424.5 294.8 429.2 294.8 434 294.6C435.7 294.5 437.9 294.8 439.5 293.9C441.2 293 440.3 291.3 439.2 290.3C435.9 287.2 431.4 286 427.1 285.1C422.6 284.1 418 283.3 413.5 282.6C402.9 281 392.3 280 381.6 279.8C380.9 279.8 382.6 281.3 382.7 281.3C383.4 281.9 384.5 282.8 385.4 282.8C394.1 283 402.7 283.6 411.3 284.7C415.7 285.3 420.1 286 424.4 286.8C428.4 287.6 432.7 288.2 436.5 289.7C437 289.9 438.3 290.7 436.9 289.6C435.6 288.6 436.5 289.2 436.3 289.9C436.1 290.7 435.3 291 434.7 291.2C432.8 291.7 430.7 291.5 428.8 291.5C424.5 291.6 420.2 291.7 415.8 291.6C407.2 291.4 398.7 290.8 390.2 289.7C380.5 288.5 371 286.6 361.5 284.2C360.5 283.9 361.6 285.1 361.8 285.3C362.6 286.1 363.6 286.9 364.7 287.2Z" fill="white"/>
</g>
<mask id="mask33_201_684" style="mask-type:luminance" maskUnits="userSpaceOnUse" x="51" y="51" width="398" height="398">
<path d="M250 448.5C359.629 448.5 448.5 359.629 448.5 250C448.5 140.371 359.629 51.5 250 51.5C140.371 51.5 51.5 140.371 51.5 250C51.5 359.629 140.371 448.5 250 448.5Z" fill="white"/>
</mask>
<g mask="url(#mask33_201_684)">
<path d="M366.7 247.7C383.5 250 400.4 251.3 417.4 251.6C419.2 251.6 421.2 251.7 422.8 250.7C424.1 249.9 424.8 248.4 424.4 246.9C423.5 243.5 418.6 242.1 415.7 241.1C408.6 238.8 401 238.5 393.6 238.6C385.1 238.7 376.6 239.3 368.2 237.9C367.3 237.7 366.3 238.2 366.6 239.2C366.9 240.3 368.5 240.9 369.5 241.1C383 243.3 396.7 240.5 410.2 242.7C411.8 243 413.4 243.3 415 243.8C416.4 244.2 418.2 244.7 419.5 245.5C420.3 246 420 247 419.3 247.6C418.1 248.7 415.9 248.3 414.4 248.3C406.8 248.2 399.3 247.8 391.7 247.2C383 246.6 374.3 245.6 365.6 244.4C364.7 244.3 363.7 244.7 364 245.7C364.2 246.8 365.7 247.5 366.7 247.7Z" fill="white"/>
</g>
<mask id="mask34_201_684" style="mask-type:luminance" maskUnits="userSpaceOnUse" x="51" y="51" width="398" height="398">
<path d="M250 448.5C359.629 448.5 448.5 359.629 448.5 250C448.5 140.371 359.629 51.5 250 51.5C140.371 51.5 51.5 140.371 51.5 250C51.5 359.629 140.371 448.5 250 448.5Z" fill="white"/>
</mask>
<g mask="url(#mask34_201_684)">
<path d="M366.9 229.2C382.5 226.2 397.9 221.9 412.8 216.3C416 215.1 419.2 213.8 421.9 211.7C423 210.8 425 209.4 424.7 207.7C424.4 206 422.1 205.4 420.7 205.2C416.7 204.6 412.9 205.9 409.2 207.2C405.4 208.4 401.6 209.6 397.8 210.7C389.1 213.2 380.4 215.2 371.5 216.9C370.8 217 369.7 217.4 370.4 218.2C371.1 219 372.8 219.2 373.7 219C380.9 217.7 388.1 216.1 395.3 214.2C402.4 212.3 409.3 210 416.3 207.9C417 207.7 417.7 207.5 418.4 207.4C418.8 207.3 419.2 207.3 419.6 207.3C420.9 207.3 419.6 207.2 419.7 207.1C419.9 206.9 419.6 208.2 419.6 208.3C419.5 208.5 419.3 208.8 419.1 209C418.5 209.7 417.7 210.3 416.9 210.9C414.3 212.7 411.2 213.9 408.2 215C401.5 217.5 394.7 219.7 387.8 221.6C379.8 223.9 371.8 225.8 363.7 227.4C362.7 227.6 362.8 228.4 363.5 228.9C364.4 229.4 365.8 229.4 366.9 229.2Z" fill="white"/>
</g>
<mask id="mask35_201_684" style="mask-type:luminance" maskUnits="userSpaceOnUse" x="51" y="51" width="398" height="398">
<path d="M250 448.5C359.629 448.5 448.5 359.629 448.5 250C448.5 140.371 359.629 51.5 250 51.5C140.371 51.5 51.5 140.371 51.5 250C51.5 359.629 140.371 448.5 250 448.5Z" fill="white"/>
</mask>
<g mask="url(#mask35_201_684)">
<path d="M325.5 204.6C334.5 200.7 343.5 196.7 352.5 192.8C356.9 190.9 361.3 188.9 365.8 187C369.1 185.5 372.5 184 375.4 181.8C378.2 179.6 380.8 176.7 381.6 173.1C382.2 170.4 380 169.1 377.7 168.9C375.5 168.7 373.2 168.6 370.9 168.6C366.3 168.7 361.9 169.9 357.9 172.1C353.8 174.3 349.8 177 345.8 179.5C336.6 185.3 327.3 191 318.1 196.8C315.4 198.5 318.7 201.9 321.1 200.4C328.6 195.7 336.1 191.1 343.6 186.4C347.3 184.1 351 181.8 354.7 179.5C358.1 177.4 361.4 175 365.3 173.9C367.4 173.3 369.6 173.1 371.8 173C372.9 173 373.9 173 375 173.1C375.6 173.1 376.2 173.2 376.8 173.2C377 173.2 377.2 173.2 377.5 173.3C377.6 173.3 377.7 173.3 377.9 173.3C378.2 173.3 378.1 173.3 377.6 173.2C377.3 172.9 377.1 172.6 376.8 172.3C376.8 172.4 376.2 173.6 376.1 173.8C375.8 174.4 375.4 175.1 375 175.6C374 176.8 372.9 177.9 371.6 178.7C368.9 180.6 365.9 181.9 362.8 183.3C354.5 186.9 346.2 190.6 337.9 194.2C333.2 196.3 328.4 198.3 323.7 200.4C322.6 200.9 321.8 202 322.3 203.2C322.7 204.4 324.4 205.1 325.5 204.6Z" fill="white"/>
</g>
<mask id="mask36_201_684" style="mask-type:luminance" maskUnits="userSpaceOnUse" x="51" y="51" width="398" height="398">
<path d="M250 448.5C359.629 448.5 448.5 359.629 448.5 250C448.5 140.371 359.629 51.5 250 51.5C140.371 51.5 51.5 140.371 51.5 250C51.5 359.629 140.371 448.5 250 448.5Z" fill="white"/>
</mask>
<g mask="url(#mask36_201_684)">
<path d="M305.5 183.3C308.9 176.1 312 168.9 314.8 161.5C317.5 154.3 320.3 146.9 322 139.4C322.4 137.5 322.8 135.6 322.9 133.6C323 131.7 323.2 129.5 322.5 127.7C321.1 124 316.3 124.3 313.9 126.7C312.7 127.9 312 129.5 311.3 131.1C310.4 133.1 309.6 135 308.7 137C307.1 140.6 305.5 144.3 303.9 147.9C300.1 156.4 296.4 164.9 292.6 173.4C291.3 176.3 295.8 177.6 296.9 175C302.9 161.4 308.9 147.8 314.9 134.2C315.5 132.8 316.1 131.2 316.9 129.9C317.1 129.5 317.4 129.2 317.7 129C318.1 128.7 317.8 129 317.9 129C317.5 128.9 317.9 129.2 318 129.5C318.4 130.9 318.2 132.7 318.1 134.1C317.9 135.9 317.6 137.7 317.1 139.4C315.4 146.3 312.9 153 310.4 159.7C307.6 167 304.5 174.3 301.2 181.4C299.8 184.5 304.3 185.8 305.5 183.3Z" fill="white"/>
</g>
<mask id="mask37_201_684" style="mask-type:luminance" maskUnits="userSpaceOnUse" x="51" y="51" width="398" height="398">
<path d="M250 448.5C359.629 448.5 448.5 359.629 448.5 250C448.5 140.371 359.629 51.5 250 51.5C140.371 51.5 51.5 140.371 51.5 250C51.5 359.629 140.371 448.5 250 448.5Z" fill="white"/>
</mask>
<g mask="url(#mask37_201_684)">
<path d="M256.3 162C253.2 143.9 261.6 126.1 259.3 107.9C258.7 103.1 256.9 98.7001 253.2 95.6001C252.9 95.3001 252 94.8001 251.6 95.2001C248.8 98.0001 247.3 101.5 246.8 105.5C246.3 109.8 246.2 114.2 246 118.5C245.6 127.3 245.4 136.2 246.1 145C246.5 149.9 247.1 154.9 248.1 159.7C248.3 160.8 249.2 162 250.3 162.5C251.2 162.9 251.8 162.5 251.6 161.5C248.3 145 249.1 127.9 250.1 111.2C250.4 106.7 251.3 102.6 254.6 99.3001C254.1 99.2001 253.6 99.1001 253 98.9001C255.3 100.9 255.6 105.1 255.8 107.9C256.1 112.1 255.9 116.4 255.5 120.6C254.6 129.1 252.7 137.4 252.1 145.9C251.7 150.7 251.9 155.5 252.7 160.3C252.9 161.4 253.9 162.6 254.9 163.1C255.9 163.5 256.5 163 256.3 162Z" fill="white"/>
</g>
<mask id="mask38_201_684" style="mask-type:luminance" maskUnits="userSpaceOnUse" x="51" y="51" width="398" height="398">
<path d="M250 448.5C359.629 448.5 448.5 359.629 448.5 250C448.5 140.371 359.629 51.5 250 51.5C140.371 51.5 51.5 140.371 51.5 250C51.5 359.629 140.371 448.5 250 448.5Z" fill="white"/>
</mask>
<g mask="url(#mask38_201_684)">
<path d="M230.6 148.1C222.7 132.5 217.9 115.3 207.6 101C206.3 99.1999 205 97.4999 203.5 95.8999C202 94.2999 200.2 92.5999 198 91.9999C195.7 91.3999 193.4 92.4999 192.3 94.4999C191.1 96.5999 191.3 98.9999 192 101.2C192.7 103.5 194 105.6 195.1 107.6C196.3 109.8 197.4 112 198.6 114.2C200.9 118.5 203.3 122.7 205.8 127C211.4 136.7 217.2 146.3 223.3 155.7C224.8 158 229.2 156.3 227.5 153.7C217.5 138.3 208.2 122.5 199.6 106.4C198.6 104.6 197.5 102.7 196.8 100.8C196.4 99.6999 195.7 96.9999 197.2 96.2999C196.9 96.3999 197 96.1999 197.3 96.4999C197.5 96.6999 197.9 96.8999 198.1 97.0999C198.9 97.7999 199.7 98.4999 200.4 99.2999C201.7 100.8 202.9 102.4 204 104C208.6 110.5 212.1 117.7 215.2 125C218.9 133.4 222.2 142 226.4 150.2C227.6 152.6 232 150.9 230.6 148.1Z" fill="white"/>
</g>
<mask id="mask39_201_684" style="mask-type:luminance" maskUnits="userSpaceOnUse" x="51" y="51" width="398" height="398">
<path d="M250 448.5C359.629 448.5 448.5 359.629 448.5 250C448.5 140.371 359.629 51.5 250 51.5C140.371 51.5 51.5 140.371 51.5 250C51.5 359.629 140.371 448.5 250 448.5Z" fill="white"/>
</mask>
<g mask="url(#mask39_201_684)">
<path d="M193.9 176.7C189.3 167 183.5 157.9 177.3 149C174.2 144.6 171.1 140.2 167.9 135.8C164.7 131.4 161.5 127 157.9 122.9C156.6 121.4 155 119 152.9 118.8C150.3 118.6 147.3 119.2 145.7 121.5C142.8 125.5 144.5 130.6 146.5 134.6C150.9 143.4 156.2 151.8 162.2 159.7C169 168.5 176.7 176.6 185.1 183.9C185.7 184.4 187.5 184 188.2 183.8C188.4 183.8 190.3 183.4 189.9 183C174.2 169.6 161.1 153 151.8 134.6C150.5 132 149.2 129.2 149.1 126.3C149.1 125 149.3 123.7 149.8 122.5C150.1 121.9 150.4 121.3 150.9 120.8C151.1 120.6 151.2 120.4 151.4 120.3C151.8 119.9 153 119.5 151.6 119.8C150.8 119.9 150 119.9 149.2 120C150.1 120 151 121.4 151.5 121.9C152.3 122.8 153.2 123.8 154 124.7C155.5 126.4 156.9 128.2 158.2 130C161 133.6 163.6 137.4 166.3 141.1C171.6 148.5 176.9 156 181.7 163.9C184.4 168.3 186.8 172.8 189.1 177.5C189.4 178.3 194 176.9 193.9 176.7Z" fill="white"/>
</g>
<mask id="mask40_201_684" style="mask-type:luminance" maskUnits="userSpaceOnUse" x="51" y="51" width="398" height="398">
<path d="M250 448.5C359.629 448.5 448.5 359.629 448.5 250C448.5 140.371 359.629 51.5 250 51.5C140.371 51.5 51.5 140.371 51.5 250C51.5 359.629 140.371 448.5 250 448.5Z" fill="white"/>
</mask>
<g mask="url(#mask40_201_684)">
<path d="M172.4 197.9C150.4 195.8 128.3 192.6 106.1 194.9C100.3 195.5 94.0001 196.1 88.7001 198.8C88.7001 198.8 88.7001 198.9 88.6001 198.9C89.5001 200.7 90.5001 202.5 92.0001 203.8C93.6001 205.3 95.6001 205.8 97.7001 206.1C102.8 206.9 107.9 207.5 113.1 208C123.5 209 134 209.4 144.5 209.2C150.4 209.1 156.2 208.8 162.1 208.3C163.3 208.2 164.5 208 165.6 207.7C166.3 207.5 166.5 207.2 165.5 207.3C145.5 208.9 125.3 208.3 105.4 205.6C103.2 205.3 100.6 205.2 98.5001 204.1C96.8001 203.2 95.6001 201.5 94.6001 199.9C94.4001 199.6 93.9001 199 93.9001 198.6C93.8001 198 94.4001 197.8 94.9001 197.6C95.8001 197.2 96.8001 197 97.8001 196.8C100 196.4 102.3 196.2 104.5 195.9C114.4 194.9 124.5 195.2 134.4 195.9C145.7 196.7 156.9 198 168.2 199.1C169.3 199.2 170.5 198.9 171.6 198.6C171.9 198.4 173.4 198 172.4 197.9Z" fill="white"/>
</g>
<mask id="mask41_201_684" style="mask-type:luminance" maskUnits="userSpaceOnUse" x="51" y="51" width="398" height="398">
<path d="M250 448.5C359.629 448.5 448.5 359.629 448.5 250C448.5 140.371 359.629 51.5 250 51.5C140.371 51.5 51.5 140.371 51.5 250C51.5 359.629 140.371 448.5 250 448.5Z" fill="white"/>
</mask>
<g mask="url(#mask41_201_684)">
<path d="M153.6 248.2C135.4 249.3 116.9 247.5 99.0001 251.6C95.0001 252.5 90.9001 253.7 87.5001 256.1C86.2001 257 84.5001 258.5 84.9001 260.3C85.4001 262.2 88.1001 262.7 89.6001 263.1C93.9001 264.2 98.6001 264.1 103 264.3C107.7 264.5 112.4 264.6 117 264.7C127.5 264.8 138 264.3 148.3 262.3C149 262.2 150.4 261.7 150 260.7C149.6 259.8 147.6 259.9 146.9 260C138.7 261.6 130.4 262.2 122 262.3C113.7 262.4 105.3 262.2 97.1001 261.7C95.2001 261.6 93.2001 261.4 91.4001 260.8C90.8001 260.6 89.8001 260.4 89.8001 259.6C89.8001 258.8 90.6001 258.1 91.2001 257.6C94.0001 255.3 97.7001 254.4 101.1 253.7C109.1 252 117.3 251.4 125.5 251.2C134.9 251 144.3 251.2 153.7 250.6C154.4 250.6 156.2 250.3 156.1 249.3C156.2 248.3 154.3 248.2 153.6 248.2Z" fill="white"/>
</g>
<mask id="mask42_201_684" style="mask-type:luminance" maskUnits="userSpaceOnUse" x="51" y="51" width="398" height="398">
<path d="M250 448.5C359.629 448.5 448.5 359.629 448.5 250C448.5 140.371 359.629 51.5 250 51.5C140.371 51.5 51.5 140.371 51.5 250C51.5 359.629 140.371 448.5 250 448.5Z" fill="white"/>
</mask>
<g mask="url(#mask42_201_684)">
<path d="M143.9 271C123.6 277.4 103.4 284.1 83.4001 291.3C80.9001 292.2 78.4001 293 75.9001 294C74.1001 294.7 72.4001 296.1 72.5001 298.2C72.8001 303.6 79.7001 303.3 83.5001 302.9C88.7001 302.4 93.8001 301.2 98.8001 300C103.8 298.8 108.9 297.7 113.9 296.4C125.1 293.6 136.3 290.4 147.1 286.3C149.5 285.4 146.6 281.3 144.4 282.2C135.5 285.6 126.4 288.4 117.2 290.8C108 293.2 98.7001 295.5 89.3001 297.4C86.9001 297.9 84.6 298.3 82.2001 298.5C81.0001 298.6 79.8001 298.7 78.6001 298.7C78.4001 298.7 76.3001 298.5 76.3001 298.5L76.8001 299.4C76.7001 299.4 77.3001 298.8 77.3001 298.8C78.0001 298.3 79.0001 298 79.8001 297.7C82.1001 296.9 84.4001 296 86.8001 295.2C96.1001 291.9 105.4 288.7 114.8 285.6C125.4 282 136 278.6 146.7 275.2C147.9 274.8 147.6 273.1 147.1 272.4C146.3 271.2 145.1 270.6 143.9 271Z" fill="white"/>
</g>
<mask id="mask43_201_684" style="mask-type:luminance" maskUnits="userSpaceOnUse" x="51" y="51" width="398" height="398">
<path d="M250 448.5C359.629 448.5 448.5 359.629 448.5 250C448.5 140.371 359.629 51.5 250 51.5C140.371 51.5 51.5 140.371 51.5 250C51.5 359.629 140.371 448.5 250 448.5Z" fill="white"/>
</mask>
<g mask="url(#mask43_201_684)">
<path d="M144.4 352.4C129.8 364.1 116.1 376.9 103.6 390.7C102 392.4 100.4 394.2 98.8999 396C97.5999 397.5 96.0999 399 95.2999 400.8C94.4999 402.6 94.6999 404.5 96.3999 405.6C97.8999 406.5 99.7999 406.3 101.4 405.9C106.1 404.7 109.6 401.7 113.4 398.8C117.2 395.8 121 392.8 124.8 389.7C133.3 382.8 141.6 375.6 149.8 368.2C150.1 367.9 148.1 368.3 148 368.3C147.1 368.5 145.9 368.8 145.1 369.5C138.4 375.6 131.5 381.5 124.6 387.3C121.1 390.2 117.6 393.1 114 395.9C110.5 398.7 107 401.6 103.3 404.2C102.9 404.5 102.5 404.7 102.1 405C101.5 405.5 103.4 404.4 103.5 404.6C103.5 404.6 102.7 404.6 102.8 404.6C102 404.5 101.2 404.2 100.6 403.6C99.0999 402.2 99.5999 400.1 100.5 398.5C101.5 396.8 103 395.3 104.3 393.8C105.8 392.1 107.2 390.5 108.7 388.9C114.6 382.5 120.7 376.3 127 370.3C134.1 363.6 141.5 357.2 149.1 351.1C149.4 350.8 147.4 351.2 147.3 351.2C146.3 351.5 145.2 351.8 144.4 352.4Z" fill="white"/>
</g>
<mask id="mask44_201_684" style="mask-type:luminance" maskUnits="userSpaceOnUse" x="51" y="51" width="398" height="398">
<path d="M250 448.5C359.629 448.5 448.5 359.629 448.5 250C448.5 140.371 359.629 51.5 250 51.5C140.371 51.5 51.5 140.371 51.5 250C51.5 359.629 140.371 448.5 250 448.5Z" fill="white"/>
</mask>
<g mask="url(#mask44_201_684)">
<path d="M119.2 307C109.1 310 99.0999 313 89.0999 316.3C79.5999 319.3 69.6999 322.1 60.8999 326.9C58.9999 327.9 56.6999 329.1 55.3999 330.9C53.9999 332.8 54.4999 335.2 55.5999 337.1C57.5999 340.6 61.8999 342.3 65.7999 342.6C70.7999 343 75.4999 340.9 79.9999 339.2C84.6999 337.4 89.4999 335.6 94.2999 334C105.2 330.3 116.2 327.2 127.4 324.6C128.3 324.4 129.6 323.8 129.2 322.6C128.9 321.5 127.1 321.1 126.2 321.3C116.9 323.5 107.6 326 98.4999 328.9C93.9999 330.3 89.3999 331.9 84.9999 333.5C80.5999 335.1 76.2999 337 71.7999 338.4C68.4999 339.5 64.6999 340 61.7999 337.7C60.5999 336.8 59.3999 335.1 59.5999 333.5C59.7999 331.6 62.4999 330.5 63.9999 329.7C71.9999 325.2 81.1999 322.7 89.8999 319.9C100.4 316.5 111 313.2 121.6 310.1C122.6 309.8 123.3 308.8 122.6 307.8C121.8 306.7 120.3 306.7 119.2 307Z" fill="white"/>
</g>
<mask id="mask45_201_684" style="mask-type:luminance" maskUnits="userSpaceOnUse" x="51" y="51" width="398" height="398">
<path d="M250 448.5C359.629 448.5 448.5 359.629 448.5 250C448.5 140.371 359.629 51.5 250 51.5C140.371 51.5 51.5 140.371 51.5 250C51.5 359.629 140.371 448.5 250 448.5Z" fill="white"/>
</mask>
<g mask="url(#mask45_201_684)">
<path d="M96.8 349.8C91.1 353.5 85.4 357.3 79.7 361C75.1 364 70.2 366.9 66.8 371.3C65.6 372.9 63.4 375.8 64.5 377.9C65.2 379.3 66.7 380.6 68 381.4C69.3 382.2 70.5 382.3 72 382C77.6 380.8 82.9 378.2 87.9 375.6C93.7 372.6 99.4 369.4 105.6 367.1C106 367 104.3 365.1 104.1 365C103.7 364.6 102.6 363.4 101.9 363.7C92 367.2 83.4 373.4 73.5 377C72.4 377.4 71.2 377.8 70.1 378.1C69.4 378.3 68.6 378.5 67.9 378.6C67.5 378.7 67.1 378.6 66.7 378.7C66.5 378.7 66.4 378.7 66.2 378.6C67.4 380.3 67.9 380.7 67.8 379.6C68.5 377.3 69.8 375.3 71.4 373.4C74.7 369.7 79 367.1 83.1 364.4C88.9 360.6 94.7 356.8 100.4 353.1C100.9 353 97.8 349.3 96.8 349.8Z" fill="white"/>
</g>
<mask id="mask46_201_684" style="mask-type:luminance" maskUnits="userSpaceOnUse" x="51" y="51" width="398" height="398">
<path d="M250 448.5C359.629 448.5 448.5 359.629 448.5 250C448.5 140.371 359.629 51.5 250 51.5C140.371 51.5 51.5 140.371 51.5 250C51.5 359.629 140.371 448.5 250 448.5Z" fill="white"/>
</mask>
<g mask="url(#mask46_201_684)">
<path d="M186.3 373.1C178.7 387.6 172.5 402.8 167.7 418.5C166.7 421.7 165.1 425.4 166.2 428.8C166.8 430.5 168.1 432 169.9 432.6C171.6 433.1 173.4 432.5 174.8 431.4C176.3 430.3 177.4 428.8 178.5 427.4C179.7 425.9 180.8 424.4 181.9 422.8C184.1 419.6 186.2 416.3 188.1 412.9C192.4 405.3 195.9 397.3 198.5 389C198.9 387.8 198.4 386.4 197.2 385.7C196.2 385.1 194.7 385.3 194.3 386.5C190.1 399.9 183.6 412.4 175.1 423.6C174.1 424.9 173.2 426.3 171.9 427.2C171.4 427.6 171 427.7 170.4 428C170.3 428 170.2 428 170.1 428C170.3 428 170.1 428.6 170.1 427.9C170 425.2 171.3 422.1 172.1 419.4C174.3 412.3 176.8 405.3 179.6 398.4C182.8 390.6 186.3 383 190.2 375.6C191.6 373.2 187.7 370.4 186.3 373.1Z" fill="white"/>
</g>
<mask id="mask47_201_684" style="mask-type:luminance" maskUnits="userSpaceOnUse" x="51" y="51" width="398" height="398">
<path d="M250 448.5C359.629 448.5 448.5 359.629 448.5 250C448.5 140.371 359.629 51.5 250 51.5C140.371 51.5 51.5 140.371 51.5 250C51.5 359.629 140.371 448.5 250 448.5Z" fill="white"/>
</mask>
<g mask="url(#mask47_201_684)">
<path d="M202.7 398.7C200.3 409.7 198.6 420.8 197.4 432C197.1 434.8 196.9 437.5 196.7 440.3C196.5 442.3 195.8 445.2 197.7 446.6C198.8 447.4 200.2 447.9 201.5 448.2C202.5 448.5 203.5 448.7 204.3 447.9C205 447.2 205.5 446 206 445.1C206.6 443.9 207.2 442.7 207.7 441.5C209.9 436.1 211 430.4 211 424.6C211 424.1 209.2 423.5 208.8 423.4C208.6 423.3 206.3 422.6 206.3 422.8C206.3 427.4 205.6 431.9 204.2 436.3C203.5 438.4 202.7 440.5 201.7 442.5C201.2 443.5 200.7 444.5 200.1 445.4C199.9 445.7 199.7 446.1 199.4 446.3C199.2 446.4 199.1 446.4 198.9 446.5C199.9 446.9 200.9 447.2 201.9 447.6C201.9 447.3 201.4 446.9 201.3 446.6C201 445.6 201.2 444.5 201.3 443.4C201.4 442.1 201.5 440.8 201.6 439.5C201.8 437 202.1 434.5 202.3 432C202.8 427.1 203.5 422.1 204.3 417.2C205.2 411.6 206.2 406 207.4 400.4C207.6 399.7 202.8 398.4 202.7 398.7Z" fill="white"/>
</g>
<mask id="mask48_201_684" style="mask-type:luminance" maskUnits="userSpaceOnUse" x="51" y="51" width="398" height="398">
<path d="M250 448.5C359.629 448.5 448.5 359.629 448.5 250C448.5 140.371 359.629 51.5 250 51.5C140.371 51.5 51.5 140.371 51.5 250C51.5 359.629 140.371 448.5 250 448.5Z" fill="white"/>
</mask>
<g mask="url(#mask48_201_684)">
<path d="M245.7 386.9C244.1 402.8 243.2 418.8 243.2 434.9C243.2 436.9 243.2 438.9 243.2 440.8C243.2 442.2 242.8 444.1 244.5 444.7C246.2 445.3 248.5 444.8 250 443.9C251.3 443.1 252.4 442 253.4 440.9C257.6 435.7 258.5 428 258.9 421.6C259.5 412.9 258.8 404.2 260 395.5C260.1 394.6 255.3 394.8 255.1 396.3C254.1 403.2 254.3 410.2 254.2 417.2C254 423.8 253.7 430.8 251.1 436.9C250.5 438.2 249.9 439.5 249 440.6C248.6 441.1 248.2 441.6 247.7 442.1C247.4 442.4 247.1 442.6 246.8 442.9C246.7 443 246.5 443.1 246.4 443.2C245.7 443.7 246.4 443.6 248.4 443.1C248.4 442.9 248.2 442.3 248.2 442.1C248.2 441.6 248.2 441.1 248.2 440.6C248.2 439.8 248.2 438.9 248.2 438.1C248.2 436.3 248.2 434.5 248.2 432.7C248.2 425.4 248.4 418.2 248.8 410.9C249.2 402.7 249.9 394.4 250.7 386.2C250.7 385.2 245.8 385.4 245.7 386.9Z" fill="white"/>
</g>
<mask id="mask49_201_684" style="mask-type:luminance" maskUnits="userSpaceOnUse" x="51" y="51" width="398" height="398">
<path d="M250 448.5C359.629 448.5 448.5 359.629 448.5 250C448.5 140.371 359.629 51.5 250 51.5C140.371 51.5 51.5 140.371 51.5 250C51.5 359.629 140.371 448.5 250 448.5Z" fill="white"/>
</mask>
<g mask="url(#mask49_201_684)">
<path d="M267.5 414.3C268.5 423.6 271 432.6 274.9 441.1C275.9 443.2 276.9 445.3 278.1 447.3C279.1 449 279.9 450.3 282 449.9C283.9 449.5 286.5 449.1 287.3 447.1C288.2 445.1 288.4 442.6 288.7 440.5C289.3 435 288.9 429.5 287.6 424.2C287.5 423.9 282.7 425.2 282.8 425.6C283.9 429.7 284.4 434 284.2 438.2C284.1 440.3 283.9 442.4 283.5 444.4C283.2 445.8 283.1 448.9 281.6 449.7C282.5 449.4 283.4 449.1 284.3 448.8C284.2 448.8 284.1 448.9 284 448.9C284.6 448.8 285.2 448.7 285.7 448.6C284.2 448.6 283.5 447.1 282.9 446C282.1 444.6 281.3 443.1 280.6 441.7C279.1 438.7 277.8 435.6 276.7 432.4C274.5 426.1 273.1 419.6 272.4 413C272.3 412.8 267.4 413.6 267.5 414.3Z" fill="white"/>
</g>
<mask id="mask50_201_684" style="mask-type:luminance" maskUnits="userSpaceOnUse" x="51" y="51" width="398" height="398">
<path d="M250 448.5C359.629 448.5 448.5 359.629 448.5 250C448.5 140.371 359.629 51.5 250 51.5C140.371 51.5 51.5 140.371 51.5 250C51.5 359.629 140.371 448.5 250 448.5Z" fill="white"/>
</mask>
<g mask="url(#mask50_201_684)">
<path d="M305.3 397.7C307.2 406.8 309.9 415.7 313.5 424.2C316.5 431.4 320 439.8 327.4 443.6C328.3 444.1 330.9 444.6 331.6 443.5C335.5 437.5 334.8 430.2 332.8 423.8C331.7 420.2 330.2 416.7 328.8 413.3C327.3 409.5 325.8 405.8 324.2 402C323.6 400.6 318.7 400.6 319.3 402.2C322.1 409.2 325.2 416.1 327.6 423.2C329.7 429.5 330.6 436.8 326.8 442.6C328.2 442.6 329.6 442.5 331 442.5C324.1 439 320.9 430.5 318.1 423.8C314.7 415.6 312.1 407 310.2 398.3C309.9 396.4 305.1 396.5 305.3 397.7Z" fill="white"/>
</g>
<mask id="mask51_201_684" style="mask-type:luminance" maskUnits="userSpaceOnUse" x="51" y="51" width="398" height="398">
<path d="M250 448.5C359.629 448.5 448.5 359.629 448.5 250C448.5 140.371 359.629 51.5 250 51.5C140.371 51.5 51.5 140.371 51.5 250C51.5 359.629 140.371 448.5 250 448.5Z" fill="white"/>
</mask>
<g mask="url(#mask51_201_684)">
<path d="M350.6 367C361.3 377.9 373.9 387 387.7 393.7C389.4 394.5 391.2 395.3 392.9 396.1C394.6 396.8 396.5 397.9 398.4 398.1C402.3 398.6 404.2 394.1 404 390.9C403.8 387.2 401.9 383.8 399.1 381.4C396.3 378.9 392.8 377.3 389.5 375.6C381.4 371.3 373.8 366.2 366.7 360.5C365.9 359.9 364.7 359.9 364.4 361C364 362.2 364.9 363.5 365.8 364.2C371.6 368.9 377.8 373.1 384.2 376.9C387.2 378.7 390.4 380.3 393.5 381.9C395.9 383.2 398.6 384.7 399.7 387.3C400.2 388.4 400.4 389.7 400.1 390.9C399.8 392.3 398.7 394 397.1 393.6C395.6 393.3 394.2 392.4 392.8 391.8C391.1 391.1 389.4 390.3 387.8 389.5C381.7 386.5 375.9 383.1 370.3 379.2C364 374.7 358 369.7 352.6 364.2C351.9 363.5 350.7 362.9 350 363.8C349.1 364.7 349.9 366.3 350.6 367Z" fill="white"/>
</g>
<mask id="mask52_201_684" style="mask-type:luminance" maskUnits="userSpaceOnUse" x="51" y="51" width="398" height="398">
<path d="M250 448.5C359.629 448.5 448.5 359.629 448.5 250C448.5 140.371 359.629 51.5 250 51.5C140.371 51.5 51.5 140.371 51.5 250C51.5 359.629 140.371 448.5 250 448.5Z" fill="white"/>
</mask>
<g mask="url(#mask52_201_684)">
<path d="M371.4 314.2C386.1 322.1 402.8 326.1 419.4 325.6C423.6 325.5 427.8 325 432 324.4C433.8 324.1 435.9 323.9 437.6 323.2C439.8 322.3 440.4 320 439.4 318C438.4 316.1 436.5 315 434.7 314C433 313 431.2 312.1 429.4 311.4C425.8 309.9 422 308.7 418.1 307.8C409.3 305.8 400.3 305 391.4 303.2C388.3 302.6 388.5 307.2 391.1 307.8C405 310.7 420.3 310.8 432.9 318C433.6 318.4 434.3 318.8 435 319.3C435.1 319.3 435.7 319.9 435.7 319.9C435.6 319.9 435.8 318.8 435.7 318.7L435.4 318.9C434.6 318.9 433.7 319.3 432.9 319.5C432 319.7 431.1 319.8 430.1 320C426.4 320.6 422.6 320.9 418.8 321.1C411.3 321.3 403.8 320.7 396.4 319.1C388.1 317.3 380.2 314.4 372.8 310.3C371.8 309.7 370.4 310 370 311.2C369.5 312.2 370.3 313.7 371.4 314.2Z" fill="white"/>
</g>
<mask id="mask53_201_684" style="mask-type:luminance" maskUnits="userSpaceOnUse" x="51" y="51" width="398" height="398">
<path d="M250 448.5C359.629 448.5 448.5 359.629 448.5 250C448.5 140.371 359.629 51.5 250 51.5C140.371 51.5 51.5 140.371 51.5 250C51.5 359.629 140.371 448.5 250 448.5Z" fill="white"/>
</mask>
<g mask="url(#mask53_201_684)">
<path d="M403.4 272.3C411.6 272.5 419.7 272.6 427.9 272.3C432 272.2 436.1 271.9 440.1 271.5C443.2 271.2 446.3 270.8 449.3 269.9C452.2 269.1 455 267.8 457.3 265.7C458.2 264.8 459.4 263.8 459.2 262.5C459 260.9 457.9 258.6 456.3 257.9C454.8 257.3 452.9 257.2 451.4 256.9C449.6 256.6 447.9 256.2 446.1 255.9C442.5 255.3 438.9 254.8 435.2 254.5C427 253.9 418.6 254.4 410.9 257.6C410.2 257.9 412.2 262.5 413.1 262.1C420.3 259.2 428.1 258.5 435.8 258.9C439.8 259.1 443.7 259.7 447.7 260.3C449.6 260.6 451.5 261 453.5 261.4C454.5 261.6 455.4 261.8 456.4 262C457.1 262.1 458.2 262.2 458.7 262.7C458.4 262.3 458.1 261.9 457.8 261.5C457.8 261.6 457.9 261.6 457.9 261.7C457.6 260.9 457.3 260.2 457 259.4C456.9 259.1 456.6 259.8 456.5 259.9C456.3 260.2 456 260.5 455.8 260.7C455.2 261.3 454.6 261.8 453.9 262.3C452.7 263.2 451.3 263.9 449.9 264.5C446.9 265.7 443.7 266.3 440.5 266.7C432.3 267.7 424.1 267.9 415.9 267.9C411.1 267.9 406.3 267.8 401.4 267.7C400.9 267.7 401.9 270 402 270.2C402.1 270.8 402.6 272.2 403.4 272.3Z" fill="white"/>
</g>
<mask id="mask54_201_684" style="mask-type:luminance" maskUnits="userSpaceOnUse" x="51" y="51" width="398" height="398">
<path d="M250 448.5C359.629 448.5 448.5 359.629 448.5 250C448.5 140.371 359.629 51.5 250 51.5C140.371 51.5 51.5 140.371 51.5 250C51.5 359.629 140.371 448.5 250 448.5Z" fill="white"/>
</mask>
<g mask="url(#mask54_201_684)">
<path d="M412.1 231.8C426.7 231.2 441.1 227.6 454.2 221C454.7 220.7 451.7 217.3 451.1 217.2C439.6 213.8 427.2 213.7 415.6 217.1C415.3 217.2 416.8 219.2 416.9 219.3C417.2 219.7 418.2 221.1 418.8 220.9C430.3 217.5 442.5 217.6 454 221C453 219.7 452 218.4 450.9 217.2C437.9 223.7 423.6 227.4 409.1 228C408.5 228 409.7 229.5 409.8 229.7C410.3 230.1 411.4 231.9 412.1 231.8Z" fill="white"/>
</g>
<mask id="mask55_201_684" style="mask-type:luminance" maskUnits="userSpaceOnUse" x="51" y="51" width="398" height="398">
<path d="M250 448.5C359.629 448.5 448.5 359.629 448.5 250C448.5 140.371 359.629 51.5 250 51.5C140.371 51.5 51.5 140.371 51.5 250C51.5 359.629 140.371 448.5 250 448.5Z" fill="white"/>
</mask>
<g mask="url(#mask55_201_684)">
<path d="M382.9 203.2C398.1 200.3 412.8 195.6 426.9 189.2C429.2 188.1 434.4 186.6 433.6 183.1C433.2 181.5 431.4 181.1 430 180.7C428.1 180.2 426.2 179.9 424.3 179.9C417.6 179.8 411.2 181.9 405 184.3C397.8 187.1 390.7 190.4 383.1 191.6C382.8 191.6 384.6 192.3 384.7 192.3C385.6 192.5 386.8 193 387.7 192.9C400.3 190.9 411.1 183.3 423.7 181.5C425.1 181.3 426.6 181.2 428.1 181.2C428.8 181.2 429.6 181.3 430.3 181.3C427 181.5 427.8 179.9 428.6 181.3C428.8 181.7 428.9 182.1 428.9 182.5C428.8 185.6 424.4 186.9 422.1 187.9C415.5 190.9 408.7 193.5 401.8 195.8C394.1 198.3 386.3 200.3 378.3 201.8C378 201.9 379.8 202.5 379.9 202.5C380.7 202.9 382 203.4 382.9 203.2Z" fill="white"/>
</g>
<mask id="mask56_201_684" style="mask-type:luminance" maskUnits="userSpaceOnUse" x="51" y="51" width="398" height="398">
<path d="M250 448.5C359.629 448.5 448.5 359.629 448.5 250C448.5 140.371 359.629 51.5 250 51.5C140.371 51.5 51.5 140.371 51.5 250C51.5 359.629 140.371 448.5 250 448.5Z" fill="white"/>
</mask>
<g mask="url(#mask56_201_684)">
<path d="M340.4 167.5C348.8 163.4 357.2 159.3 365.4 154.7C369.4 152.4 373.4 150 377.2 147.4C381 144.8 384.7 142.1 388 139C390.2 136.9 395.3 131.9 390.6 129.5C388.6 128.5 386.2 128.2 384 128.1C381.7 128 379.5 128.1 377.2 128.5C367.9 130.1 359.2 134.7 351 139.3C341.8 144.5 333 150.5 324.3 156.4C323.6 156.9 323 157.8 323.9 158.4C324.8 159 326.5 158.5 327.3 157.9C334.4 153 341.6 148.1 349 143.7C356.1 139.4 363.6 135.2 371.5 132.6C375.3 131.4 379.3 130.5 383.3 131.1C384.7 131.3 387.8 131.5 387.5 133.5C387.2 135.2 385.3 136.8 384.1 138C378.2 143.8 370.9 148.2 363.8 152.3C355.5 157.1 346.9 161.2 338.3 165.4C337.6 165.7 336.4 166.6 337.1 167.4C337.8 168.3 339.7 167.9 340.4 167.5Z" fill="white"/>
</g>
<mask id="mask57_201_684" style="mask-type:luminance" maskUnits="userSpaceOnUse" x="51" y="51" width="398" height="398">
<path d="M250 448.5C359.629 448.5 448.5 359.629 448.5 250C448.5 140.371 359.629 51.5 250 51.5C140.371 51.5 51.5 140.371 51.5 250C51.5 359.629 140.371 448.5 250 448.5Z" fill="white"/>
</mask>
<g mask="url(#mask57_201_684)">
<path d="M386.1 163.5C396.1 156.6 406.9 149.8 419 147.4C420.4 147.1 421.8 146.9 423.2 146.8C424.5 146.7 426.6 146.2 427.6 147.3C429.8 149.8 425.9 152.9 424.2 154.3C419.9 158 414.9 160.8 409.7 163.1C403.6 165.8 397.2 167.7 390.8 169.5C390.2 169.7 388.3 170.3 388.1 171.1C388 171.9 389.8 171.3 390 171.2C403.1 167.4 416.8 163 427.5 154.1C429.6 152.4 433.3 149.8 432.7 146.6C432.1 143.1 426.8 144.4 424.4 144.7C417.2 145.7 410.2 148.1 403.7 151.2C396.2 154.7 389.3 159.2 382.5 163.9C381.7 164.4 382 164.9 382.9 164.8C383.9 164.7 385.1 164.1 386.1 163.5Z" fill="white"/>
</g>
<mask id="mask58_201_684" style="mask-type:luminance" maskUnits="userSpaceOnUse" x="51" y="51" width="398" height="398">
<path d="M250 448.5C359.629 448.5 448.5 359.629 448.5 250C448.5 140.371 359.629 51.5 250 51.5C140.371 51.5 51.5 140.371 51.5 250C51.5 359.629 140.371 448.5 250 448.5Z" fill="white"/>
</mask>
<g mask="url(#mask58_201_684)">
<path d="M305.4 135.2C311.7 120.8 315.4 105.3 316 89.5C316.2 85.6 316.5 81.1 314.5 77.6C314.1 76.9 313.2 76.5 312.5 76.2C312 76 310.7 75.3 310.1 75.6C304 79.2 299.8 85.9 297 92.2C293.9 99.2 292.4 106.9 291.7 114.5C291.3 119.1 291.1 123.7 291 128.4C291 129.8 295.5 130.9 295.5 130.5C295.8 115.5 297.1 99.5 305.7 86.7C308 83.3 310.7 80.1 314.3 78C312.8 77.3 311.4 76.7 309.9 76C311.8 79.2 311.6 83 311.5 86.5C311.4 90.4 311.1 94.2001 310.6 98C309.6 105.7 307.9 113.4 305.6 120.8C304.3 125 302.7 129.1 300.9 133.1C300.5 134 305 136 305.4 135.2Z" fill="white"/>
</g>
<mask id="mask59_201_684" style="mask-type:luminance" maskUnits="userSpaceOnUse" x="51" y="51" width="398" height="398">
<path d="M250 448.5C359.629 448.5 448.5 359.629 448.5 250C448.5 140.371 359.629 51.5 250 51.5C140.371 51.5 51.5 140.371 51.5 250C51.5 359.629 140.371 448.5 250 448.5Z" fill="white"/>
</mask>
<g mask="url(#mask59_201_684)">
<path d="M275 122.7C279.2 106.6 282.1 90.0999 283.8 73.5999C283.9 72.0999 284.4 70.4999 283.7 69.0999C283 67.5999 281 65.8999 279.4 65.4999C278 65.1999 276.3 66.3999 275.1 67.0999C273.8 67.8999 272.7 68.8999 271.6 69.9999C267.3 74.3999 265 80.4999 264 86.3999C262.5 95.6999 263.8 105.1 262.9 114.5C262.8 115.3 264.5 116.4 265 116.8C265.3 117 266.8 118 266.8 117.3C268.1 103.8 264.7 88.8999 272.6 76.7999C274.1 74.3999 276 72.2999 278.4 70.6999C278.9 70.3999 279.4 70.0999 279.9 69.7999C280.2 69.5999 280.5 69.4999 280.8 69.2999C281.1 69.0999 281.9 68.9999 282.2 68.7999C281.5 68.1999 280.7 67.4999 280 66.8999C280.1 67.0999 280.1 67.2999 280.1 67.4999C280.1 67.7999 280.1 68.0999 280.1 68.3999C280.1 69.2999 279.9 70.1999 279.8 71.0999C279 78.8999 277.9 86.6999 276.5 94.4999C275 103 273.2 111.3 271 119.7C270.8 120.4 272.1 121.4 272.6 121.7C272.8 121.8 274.9 123.2 275 122.7Z" fill="white"/>
</g>
<mask id="mask60_201_684" style="mask-type:luminance" maskUnits="userSpaceOnUse" x="51" y="51" width="398" height="398">
<path d="M250 448.5C359.629 448.5 448.5 359.629 448.5 250C448.5 140.371 359.629 51.5 250 51.5C140.371 51.5 51.5 140.371 51.5 250C51.5 359.629 140.371 448.5 250 448.5Z" fill="white"/>
</mask>
<g mask="url(#mask60_201_684)">
<path d="M241.4 106.2C242.6 98.4998 243.1 90.7998 243 82.9998C243 79.0998 242.8 75.2998 242.4 71.3998C242.1 68.4998 241.9 65.5998 240.7 62.8998C239.6 60.3998 237.3 58.5998 234.5 58.7998C231 58.9998 228 61.4998 226.4 64.4998C224.8 67.5998 224.5 71.2998 224.1 74.6998C223.7 78.3998 223.6 82.0998 223.7 85.8998C223.9 94.6998 225.1 103.5 226.4 112.2C226.7 114.5 231.2 112.3 230.9 110.2C229 96.5998 226.9 82.5998 229.2 68.8998C229.5 66.8998 230 63.6998 232.2 62.7998C234.3 61.9998 235.9 64.1998 236.6 65.8998C237.6 68.3998 237.7 71.2998 237.9 73.8998C238.2 77.2998 238.4 80.6998 238.4 84.0998C238.5 91.8998 238 99.5998 236.8 107.3C236.6 108.5 237.9 108.8 238.8 108.6C240 108.4 241.2 107.4 241.4 106.2Z" fill="white"/>
</g>
<mask id="mask61_201_684" style="mask-type:luminance" maskUnits="userSpaceOnUse" x="51" y="51" width="398" height="398">
<path d="M250 448.5C359.629 448.5 448.5 359.629 448.5 250C448.5 140.371 359.629 51.5 250 51.5C140.371 51.5 51.5 140.371 51.5 250C51.5 359.629 140.371 448.5 250 448.5Z" fill="white"/>
</mask>
<g mask="url(#mask61_201_684)">
<path d="M194.5 114.7C191.1 107.8 187 101.2 182.3 95.1002C179.9 92.0002 177.4 89.1002 174.6 86.3002C172.2 83.8002 169.6 81.1002 166.4 79.6002C163.2 78.1002 159.8 78.3002 156.5 79.6002C153.7 80.7002 150.6 82.7002 150.4 86.0002C150.1 89.7002 153 92.4002 155.6 94.5002C158.7 96.8002 161.6 99.2002 164.2 102.1C169.9 108.4 174.2 115.7 178.5 123C179.1 124.1 183.6 122 183.2 121.3C179.7 115.4 176.2 109.4 172 104C169.9 101.3 167.6 98.8002 165.1 96.5002C162.6 94.2002 159.5 92.5002 157.3 90.0002C155.3 87.7002 154.1 84.1002 156.4 81.6002C158 79.9002 160.6 80.9002 162.5 81.8002C165.5 83.3002 167.9 85.8002 170.2 88.2002C172.7 90.8002 175.1 93.5002 177.3 96.4002C182.2 102.6 186.4 109.4 189.9 116.5C190.3 117.4 194.9 115.5 194.5 114.7Z" fill="white"/>
</g>
<mask id="mask62_201_684" style="mask-type:luminance" maskUnits="userSpaceOnUse" x="51" y="51" width="398" height="398">
<path d="M250 448.5C359.629 448.5 448.5 359.629 448.5 250C448.5 140.371 359.629 51.5 250 51.5C140.371 51.5 51.5 140.371 51.5 250C51.5 359.629 140.371 448.5 250 448.5Z" fill="white"/>
</mask>
<g mask="url(#mask62_201_684)">
<path d="M190 92.6998C188.1 85.5998 185.4 78.6998 183 71.7998C181.8 68.3998 180.7 64.8998 179.9 61.3998C179.5 59.6998 179.1 57.9998 178.9 56.1998C178.8 55.3998 178.7 54.4998 178.6 53.6998C178.6 53.3998 178.2 51.1998 178.4 51.0998C178.1 51.2998 177.8 51.3998 177.5 51.5998C176.8 51.3998 176.7 51.2998 177.1 51.5998C177.2 51.6998 177.3 51.7998 177.5 51.8998C177.8 52.0998 178.1 52.3998 178.3 52.5998C178.9 53.0998 179.3 53.7998 179.8 54.3998C180.7 55.6998 181.4 57.0998 182.1 58.4998C183.8 61.8998 185.5 65.3998 187.4 68.6998C191.4 75.5998 196.2 81.9998 201.6 87.8998C202.4 88.6998 203.7 89.4998 204.8 88.7998C205.8 88.1998 205.7 86.6998 204.9 85.8998C200.6 81.1998 196.6 76.1998 193.2 70.7998C191.5 68.0998 189.9 65.2998 188.4 62.3998C187.1 59.7998 185.9 57.0998 184.4 54.4998C182.9 51.9998 180.9 49.2998 178.3 47.8998C177.1 47.2998 175.5 46.7998 174.4 47.8998C173.2 49.0998 173.8 51.3998 173.9 52.8998C174.5 59.2998 176.3 65.4998 178.4 71.5998C180.8 78.5998 183.6 85.3998 185.4 92.4998C185.7 93.6998 186.9 94.6998 188.1 94.6998C189.5 94.7998 190.3 93.7998 190 92.6998Z" fill="white"/>
</g>
<mask id="mask63_201_684" style="mask-type:luminance" maskUnits="userSpaceOnUse" x="51" y="51" width="398" height="398">
<path d="M250 448.5C359.629 448.5 448.5 359.629 448.5 250C448.5 140.371 359.629 51.5 250 51.5C140.371 51.5 51.5 140.371 51.5 250C51.5 359.629 140.371 448.5 250 448.5Z" fill="white"/>
</mask>
<g mask="url(#mask63_201_684)">
<path d="M214 72.2001C214 63.1001 213.8 54.0001 214.1 44.9001C214.1 44.7001 214.4 43.4001 214.3 43.2001C214 43.4001 213.7 43.4001 213.4 43.2001C212.9 42.9001 212.7 42.9001 212.9 43.2001C212.8 43.4001 213.2 44.5001 213.2 44.7001C213.7 46.8001 214.1 49.0001 214.4 51.2001C215.1 55.7001 215.5 60.2001 215.6 64.8001C215.6 66.1001 217.4 66.6001 218.4 66.4001C219.6 66.2001 220.6 65.3001 220.6 64.1001C220.5 59.9001 220.2 55.7001 219.6 51.5001C219.3 49.4001 218.9 47.3001 218.5 45.3001C218.1 43.5001 218 41.1001 216.3 40.1001C214.7 39.1001 212.6 39.4001 211.1 40.5001C209.5 41.7001 209.2 43.5001 209.2 45.4001C209.1 49.7001 209.2 54.1001 209.1 58.4001C209.1 63.3001 209.1 68.2001 209 73.0001C209 74.3001 210.8 74.8001 211.8 74.6001C213.1 74.4001 214 73.5001 214 72.2001Z" fill="white"/>
</g>
<mask id="mask64_201_684" style="mask-type:luminance" maskUnits="userSpaceOnUse" x="51" y="51" width="398" height="398">
<path d="M250 448.5C359.629 448.5 448.5 359.629 448.5 250C448.5 140.371 359.629 51.5 250 51.5C140.371 51.5 51.5 140.371 51.5 250C51.5 359.629 140.371 448.5 250 448.5Z" fill="white"/>
</mask>
<g mask="url(#mask64_201_684)">
<path d="M253.3 79.8999C256.2 67.5999 259.3 55.2999 262.6 43.0999C263.3 40.5999 263.8 37.8999 264.9 35.4999C265.5 34.2999 267.2 32.0999 268.8 33.2999C269.6 33.8999 269.8 35.2999 269.9 36.1999C270.1 37.6999 270.1 39.1999 270 40.6999C269.9 43.6999 269.5 46.6999 268.9 49.5999C267.6 56.3999 265.3 62.8999 263 69.3999C262.3 71.2999 266.4 74.0999 267.2 71.8999C269.5 65.4999 271.7 58.9999 273.1 52.3999C273.8 48.9999 274.2 45.5999 274.3 42.0999C274.4 38.9999 274.3 35.6999 272.7 32.9999C271.1 30.3999 267.8 28.1999 264.6 29.0999C262.3 29.7999 261 31.9999 260.3 34.0999C259.2 37.1999 258.4 40.5999 257.6 43.7999C256.7 47.0999 255.8 50.4999 255 53.7999C253 61.5999 251.1 69.3999 249.2 77.2999C248.7 79.3999 252.8 82.0999 253.3 79.8999Z" fill="white"/>
</g>
<mask id="mask65_201_684" style="mask-type:luminance" maskUnits="userSpaceOnUse" x="51" y="51" width="398" height="398">
<path d="M250 448.5C359.629 448.5 448.5 359.629 448.5 250C448.5 140.371 359.629 51.5 250 51.5C140.371 51.5 51.5 140.371 51.5 250C51.5 359.629 140.371 448.5 250 448.5Z" fill="white"/>
</mask>
<g mask="url(#mask65_201_684)">
<path d="M294.2 78.8998C298.5 72.1998 303.3 65.7998 308.5 59.6998C309.8 58.1998 311 56.6998 312.4 55.1998C312.5 55.0998 313.2 54.3998 313.2 54.4998C313.2 54.4998 312.9 54.4998 312.9 54.5998C312.9 54.5998 313.2 54.8998 313.2 54.9998C313.4 55.2998 313.5 55.6998 313.6 55.9998C314.5 59.0998 313.4 62.3998 311.2 64.5998C310.4 65.3998 310.5 66.8998 311.5 67.4998C312.7 68.1998 314.1 67.5998 314.9 66.6998C317.3 64.1998 318.6 60.8998 318.7 57.4998C318.7 54.2998 317.4 50.2998 313.5 50.3998C311.5 50.4998 309.9 51.7998 308.6 53.1998C307.3 54.5998 306 56.1998 304.7 57.6998C302.2 60.6998 299.8 63.6998 297.4 66.8998C294.7 70.4998 292.2 74.1998 289.7 77.8998C289 78.8998 289.8 80.1998 290.9 80.4998C292.3 80.6998 293.5 79.8998 294.2 78.8998Z" fill="white"/>
</g>
<mask id="mask66_201_684" style="mask-type:luminance" maskUnits="userSpaceOnUse" x="51" y="51" width="398" height="398">
<path d="M250 448.5C359.629 448.5 448.5 359.629 448.5 250C448.5 140.371 359.629 51.5 250 51.5C140.371 51.5 51.5 140.371 51.5 250C51.5 359.629 140.371 448.5 250 448.5Z" fill="white"/>
</mask>
<g mask="url(#mask66_201_684)">
<path d="M329.5 119.1C335 112.4 340.6 105.7 346.1 98.8998C350.8 93.0998 355.4 87.0998 361.1 82.0998C364.1 79.4998 367.4 77.2998 371.1 75.8998C369.8 75.9998 368.6 76.0998 367.3 76.1998C368.9 80.0998 368.2 84.4998 367.7 88.5998C367.2 92.8998 366 96.5998 363 99.8998C360.4 102.8 357.2 105.3 354 107.7C350.9 110.1 347.7 112.5 344.6 114.9C341.1 117.7 337.8 120.7 334.9 124C334.4 124.6 336.7 124.4 336.8 124.4C337.7 124.2 339 124 339.7 123.2C345 117.1 351.7 112.5 358.1 107.5C361.2 105.1 364.2 102.7 367 99.8998C369.9 96.8998 371.6 93.4998 372.3 89.3998C373.1 84.7998 373.9 79.3998 372.2 74.9998C371.8 74.0998 368.9 75.0998 368.4 75.2998C361.4 77.8998 355.8 82.7998 350.9 88.2998C345.2 94.5998 340 101.3 334.6 107.8C331.3 111.8 328.1 115.7 324.8 119.7C324.3 120.3 326.6 120.1 326.7 120.1C327.6 120.1 328.9 119.8 329.5 119.1Z" fill="white"/>
</g>
<mask id="mask67_201_684" style="mask-type:luminance" maskUnits="userSpaceOnUse" x="51" y="51" width="398" height="398">
<path d="M250 448.5C359.629 448.5 448.5 359.629 448.5 250C448.5 140.371 359.629 51.5 250 51.5C140.371 51.5 51.5 140.371 51.5 250C51.5 359.629 140.371 448.5 250 448.5Z" fill="white"/>
</mask>
<g mask="url(#mask67_201_684)">
<path d="M163 171C149.3 160.5 133.1 152.1 115.5 151.1C113.3 151 111.1 150.9 108.9 151.1C107 151.2 104.9 151.5 103.5 153C100.3 156.5 104 160.7 106.7 163C112.8 168.2 120.6 170.7 128 173.3C137.9 176.8 147.6 180.7 157.3 184.6C158.4 185 159.9 184.8 160.4 183.6C160.9 182.4 159.9 181.2 158.8 180.7C150.9 177.5 143 174.3 135 171.4C128.2 168.9 120.9 167 114.5 163.4C113 162.5 111.5 161.5 110.1 160.4C109.1 159.6 107.6 158.5 107.2 157.2C106.8 155.8 108.1 155.7 109.1 155.6C111 155.5 113 155.5 114.9 155.5C122.9 155.9 130.6 157.9 137.9 161C145.9 164.4 153.2 169.1 160.1 174.4C161.1 175.1 162.7 175.1 163.5 174.2C164.6 173.1 164 171.7 163 171Z" fill="white"/>
</g>
<mask id="mask68_201_684" style="mask-type:luminance" maskUnits="userSpaceOnUse" x="51" y="51" width="398" height="398">
<path d="M250 448.5C359.629 448.5 448.5 359.629 448.5 250C448.5 140.371 359.629 51.5 250 51.5C140.371 51.5 51.5 140.371 51.5 250C51.5 359.629 140.371 448.5 250 448.5Z" fill="white"/>
</mask>
<g mask="url(#mask68_201_684)">
<path d="M142.4 149C133.7 138.3 121.4 131.4 111.8 121.6C109.2 119 106.8 116.2 104.4 113.4C103.2 112 102 110.6 100.9 109.2C100.1 108.2 98.4999 106.6 100.1 105.6C101 105 102.7 104.3 103.5 104.9C104.9 105.8 106 107.4 107.1 108.6C109.8 111.5 112.5 114.5 115.2 117.4C121.3 124 127.3 130.7 133.4 137.3C134.1 138.1 135.8 138.4 136.8 138.2C137.9 137.9 137.9 137.2 137.2 136.5C131.3 130.1 125.4 123.6 119.5 117.2C116.6 114 113.7 110.8 110.7 107.6C109.4 106.2 108.1 104.6 106.5 103.5C104.8 102.4 102.7 101.8 100.7 101.9C97.7999 102.1 92.8999 103.8 94.8999 107.5C95.7999 109.1 97.2999 110.6 98.4999 112C99.7999 113.6 101.2 115.2 102.6 116.7C107.7 122.5 113.3 127.7 119.4 132.5C125.9 137.6 132.6 142.6 137.9 149.1C138.6 150 139.9 150.4 141.1 150.4C141.8 150.4 143.1 149.9 142.4 149Z" fill="white"/>
</g>
<mask id="mask69_201_684" style="mask-type:luminance" maskUnits="userSpaceOnUse" x="51" y="51" width="398" height="398">
<path d="M250 448.5C359.629 448.5 448.5 359.629 448.5 250C448.5 140.371 359.629 51.5 250 51.5C140.371 51.5 51.5 140.371 51.5 250C51.5 359.629 140.371 448.5 250 448.5Z" fill="white"/>
</mask>
<g mask="url(#mask69_201_684)">
<path d="M145.5 112C139.3 106.6 133 101.2 126.8 95.8C123.7 93.1 120.7 90.5 117.7 87.7C115.1 85.4 112.2 83 110.7 79.8C110.5 80.2 110.4 80.6 110.2 81C113.5 79.9 116.9 81.1 119.9 82.7C123.2 84.4 126.3 86.5 129.4 88.6C135.7 92.9 141.6 97.7 147.3 102.7C148.1 103.4 149.7 104 150.7 103.5C151.8 103 151.1 102.1 150.5 101.5C144.1 95.9 137.4 90.5 130.2 85.7C123.6 81.3 115.1 75.4 106.7 78.1C106.1 78.3 106 78.8 106.2 79.3C107.8 82.7 110.6 85.1 113.3 87.6C116.5 90.5 119.7 93.3 122.9 96.2C129.4 101.8 135.8 107.4 142.3 113C143.1 113.7 144.7 114.3 145.7 113.8C146.7 113.5 146.1 112.6 145.5 112Z" fill="white"/>
</g>
<mask id="mask70_201_684" style="mask-type:luminance" maskUnits="userSpaceOnUse" x="51" y="51" width="398" height="398">
<path d="M250 448.5C359.629 448.5 448.5 359.629 448.5 250C448.5 140.371 359.629 51.5 250 51.5C140.371 51.5 51.5 140.371 51.5 250C51.5 359.629 140.371 448.5 250 448.5Z" fill="white"/>
</mask>
<g mask="url(#mask70_201_684)">
<path d="M108.1 176.8C93.4999 171.9 77.9999 169.6 62.5999 170.1C60.3999 170.2 55.3999 170.5 55.6999 173.9C55.7999 175.4 57.2999 176.8 58.2999 177.7C59.4999 178.7 60.8999 179.5 62.3999 180.1C69.2999 183 76.9999 183.2 84.4999 183.5C93.1999 183.9 101.8 185.1 110.2 187.2C111.2 187.5 112.8 187.5 113.6 186.7C114.4 185.9 113.5 185.1 112.7 184.9C105.8 183.2 98.7999 181.9 91.7999 181.3C85.0999 180.7 78.1999 180.9 71.4999 179.7C68.6999 179.2 65.6999 178.4 63.2999 176.7C62.4999 176.1 60.3999 174.5 60.6999 173.3C60.8999 172.5 61.9999 172.7 62.5999 172.6C69.4999 172.4 76.3999 172.7 83.1999 173.7C90.7999 174.8 98.2999 176.5 105.6 179C106.6 179.3 108.3 179.3 109 178.5C109.8 177.8 108.9 177.1 108.1 176.8Z" fill="white"/>
</g>
<mask id="mask71_201_684" style="mask-type:luminance" maskUnits="userSpaceOnUse" x="51" y="51" width="398" height="398">
<path d="M250 448.5C359.629 448.5 448.5 359.629 448.5 250C448.5 140.371 359.629 51.5 250 51.5C140.371 51.5 51.5 140.371 51.5 250C51.5 359.629 140.371 448.5 250 448.5Z" fill="white"/>
</mask>
<g mask="url(#mask71_201_684)">
<path d="M103.5 138.1C102.7 136.1 100.4 135 98.5 134.3C96.1 133.4 93.5 132.8 91 132.2C86 131.1 80.7999 130.5 75.6999 130.5C74.4999 130.5 73.2999 130.5 72.1999 130.6C71.0999 130.6 69.8 130.6 68.8 130.9C66.4 131.8 68.4999 134.5 69.6999 135.5C73.1999 138.8 78.4999 140 82.9999 141.3C88.6999 143 94.3999 144.7 100.1 146.4C100.7 146.6 102.2 146.9 102.3 145.9C102.3 144.9 100.6 144.1 99.9 143.9C95.9 142.7 91.9 141.5 87.9 140.3C84 139.1 79.9999 138.1 76.1999 136.7C74.9999 136.2 73.4999 135.7 72.6999 134.7C71.9999 133.8 72.5 133.7 73.4 133.6C74.4 133.5 75.3999 133.5 76.4999 133.5C80.4999 133.4 84.5 133.7 88.4 134.3C90.6 134.7 92.7999 135.1 95 135.7C96.1 136 97.3 136.3 98.4 136.7C98.7 136.8 98.9999 136.9 99.1999 137C98.8999 136.8 99.1 137 99.3 137.3C99.7 138.3 101.2 139 102.2 139.1C102.8 139.2 103.9 139.1 103.5 138.1Z" fill="white"/>
</g>
<mask id="mask72_201_684" style="mask-type:luminance" maskUnits="userSpaceOnUse" x="51" y="51" width="398" height="398">
<path d="M250 448.5C359.629 448.5 448.5 359.629 448.5 250C448.5 140.371 359.629 51.5 250 51.5C140.371 51.5 51.5 140.371 51.5 250C51.5 359.629 140.371 448.5 250 448.5Z" fill="white"/>
</mask>
<g mask="url(#mask72_201_684)">
<path d="M109.5 209.8C90.4 210.1 71.2 210.4 52.4 214.1C49.7 214.6 47.1 215.2 44.5 215.9C42.5 216.4 40.4 216.8 39.3 218.7C38.8 219.5 40.2 221.1 40.8 221.5C46.7 226.2 54.1 226.7 61.4 226.7C70.4 226.7 79.3 226.6 88.3 226.6C93.5 226.6 98.6 226.6 103.8 226.5C104.9 226.5 103.9 224.6 103.7 224.3C103.1 223.4 102.2 222.5 101.1 222.5C92.6 222.5 84.1 222.6 75.6 222.6C71.4 222.6 67.1 222.6 62.9 222.7C59.2 222.7 55.6 222.8 51.9 222.5C48.4 222.2 44.6 221.4 41.7 219.1C42.2 220 42.7 221 43.2 221.9C44.1 220.3 46.6 220.1 48.2 219.7C50.4 219.1 52.7 218.6 54.9 218.2C59.5 217.3 64.1 216.6 68.8 216C78.1 214.9 87.4 214.4 96.7 214.1C102 213.9 107.2 213.9 112.5 213.8C113.6 213.8 112.6 211.9 112.4 211.6C111.6 210.7 110.6 209.8 109.5 209.8Z" fill="white"/>
</g>
<mask id="mask73_201_684" style="mask-type:luminance" maskUnits="userSpaceOnUse" x="51" y="51" width="398" height="398">
<path d="M250 448.5C359.629 448.5 448.5 359.629 448.5 250C448.5 140.371 359.629 51.5 250 51.5C140.371 51.5 51.5 140.371 51.5 250C51.5 359.629 140.371 448.5 250 448.5Z" fill="white"/>
</mask>
<g mask="url(#mask73_201_684)">
<path d="M90.8999 240.5C76.0999 241.3 61.0999 243.4 46.7999 247.4C43.5999 248.3 40.3999 249.4 37.6999 251.4C35.7999 252.8 31.8999 255.8 33.6999 258.5C34.5999 259.9 36.0999 261.1 37.6999 261.7C39.1999 262.3 40.7999 262.2 42.2999 262.2C46.0999 262.2 49.8999 261.8 53.5999 261.3C61.9999 260.2 70.3999 258.8 78.8999 257.6C79.6999 257.5 78.2999 256 78.0999 255.8C77.5999 255.3 76.2999 254 75.4999 254.2C68.6999 255.2 61.8999 256.2 55.0999 257.2C51.6999 257.7 48.2999 258.2 44.7999 258.5C43.0999 258.7 41.3999 258.8 39.5999 258.8C38.7999 258.8 37.9999 258.8 37.0999 258.8C36.3999 258.8 35.6999 258.6 35.0999 258.6C35.6999 259.2 36.3999 259.8 36.9999 260.3C36.8999 260 36.9999 259.7 37.0999 259.4C37.1999 259.1 37.3999 258.8 37.5999 258.6C37.9999 258 38.4999 257.5 38.9999 257C39.9999 255.9 41.1999 254.9 42.4999 254.1C45.1999 252.4 48.2999 251.4 51.3999 250.6C57.9999 248.9 64.6999 247.5 71.3999 246.4C78.9999 245.2 86.5999 244.4 94.1999 244C94.9999 244 93.4999 242.4 93.3999 242.2C92.9999 241.5 91.8999 240.4 90.8999 240.5Z" fill="white"/>
</g>
<mask id="mask74_201_684" style="mask-type:luminance" maskUnits="userSpaceOnUse" x="51" y="51" width="398" height="398">
<path d="M250 448.5C359.629 448.5 448.5 359.629 448.5 250C448.5 140.371 359.629 51.5 250 51.5C140.371 51.5 51.5 140.371 51.5 250C51.5 359.629 140.371 448.5 250 448.5Z" fill="white"/>
</mask>
<g mask="url(#mask74_201_684)">
<path d="M78.1999 269.9C69.0999 272.7 60.1 275.5 51.2 278.9C46.8 280.6 42.3999 282.4 38.0999 284.4C34.2999 286.2 30.4 288 27.7 291.3C27.7 291.4 27.7 291.6 27.9 291.7C29.3 293.3 31.1 294.7 33 295.5C34.5 296.2 36.1999 296.3 37.7999 296.4C41.9999 296.6 46.1999 296.5 50.2999 296C58.5999 295.1 66.8 293 74.4 289.6C74.6 289.5 72.7999 287.9 72.5999 287.8C72.1999 287.5 70.9 286.4 70.4 286.6C63.8 289.5 56.8 291.5 49.7 292.5C46.2 293 42.7 293.3 39.2 293.3C37.4 293.3 35.7 293.3 33.9 293.2C33.2 293.2 32.4 293.1 31.7 293C31.4 293 31.0999 292.9 30.7999 292.8C29.3999 292.5 29.8 291.9 31.4 293.7C31.4999 293.8 31.5 293.9 31.6 294.1C34.3 290.8 38.2 288.9 42 287.2C46.2999 285.2 50.6999 283.4 55.0999 281.7C63.9999 278.3 72.9999 275.5 82.0999 272.7C82.2999 272.6 80.5 271 80.3 270.9C80 270.8 78.8999 269.7 78.1999 269.9Z" fill="white"/>
</g>
<mask id="mask75_201_684" style="mask-type:luminance" maskUnits="userSpaceOnUse" x="51" y="51" width="398" height="398">
<path d="M250 448.5C359.629 448.5 448.5 359.629 448.5 250C448.5 140.371 359.629 51.5 250 51.5C140.371 51.5 51.5 140.371 51.5 250C51.5 359.629 140.371 448.5 250 448.5Z" fill="white"/>
</mask>
<g mask="url(#mask75_201_684)">
<path d="M136.9 395.4C126.9 406.2 116.8 417.2 110.5 430.6C109.9 431.9 108.6 433.9 109 435.3C109.4 436.8 111.8 438 113 438.6C115.7 440 118.7 438.5 121.1 437.2C127.3 434.1 132.2 428.9 136.7 423.8C141.9 417.8 147 411.4 153.9 407.2C154 407.1 152.1 405.7 152 405.6C151.7 405.4 150.2 404.2 149.8 404.4C142.1 409.1 136.7 416.4 130.8 423C127.9 426.2 124.8 429.3 121.3 431.8C119.6 433 117.7 434.1 115.8 435C114.5 435.6 111.8 437.1 110.4 436.3C111.2 436.9 112.1 437.4 112.9 438C113.3 438.4 113.4 438.3 113.1 437.7C113.1 437.4 113.1 437.2 113.2 436.9C113.3 436.4 113.5 436 113.7 435.6C114.1 434.6 114.6 433.6 115.1 432.7C116 430.9 116.9 429.1 117.9 427.4C120 423.9 122.3 420.5 124.8 417.2C129.8 410.6 135.5 404.4 141.2 398.3C141.1 398.1 137.3 394.9 136.9 395.4Z" fill="white"/>
</g>
</svg>
