<svg width="500" height="500" viewBox="0 0 500 500" fill="none" xmlns="http://www.w3.org/2000/svg">
<mask id="mask0_201_705" style="mask-type:luminance" maskUnits="userSpaceOnUse" x="51" y="51" width="398" height="398">
<path d="M250 448.5C359.629 448.5 448.5 359.629 448.5 250C448.5 140.371 359.629 51.5 250 51.5C140.371 51.5 51.5 140.371 51.5 250C51.5 359.629 140.371 448.5 250 448.5Z" fill="white"/>
</mask>
<g mask="url(#mask0_201_705)">
<path d="M60.5 55.8C75.7 75.7 88.8 97.2 99.5 119.9C104.8 131.2 109.6 142.8 113.6 154.6C117.8 166.8 121 179.3 122.2 192.1C123.4 204.5 122.5 217.1 118.4 229C115.5 237.3 106.7 251.3 96.2 244.7C91.6 241.8 88.8 236.3 87.3 231.2C85.6 225.6 85.5 219.6 86.7 213.9C89.1 203.3 97.1 194.4 107.4 190.9C112.4 189.2 119.2 188 123.5 191.9C125.6 193.8 127 196.4 128.3 198.9C129.7 201.5 130.9 204.2 131.9 206.9C136.1 218 137.7 230 137.6 241.9C137.4 267.7 129.2 292.3 122.3 316.9C118.8 329.6 115.3 342.4 113.9 355.5C112.6 367.2 113.1 379.8 119.3 390.1C124.5 398.7 133.5 405.6 143.9 406C155.1 406.3 166.3 399.5 171.8 389.8C176.9 380.9 176.3 368.8 168.1 361.9C160.3 355.3 148.8 357.1 140.8 362.3C131.4 368.4 126.9 379.2 125.1 389.8C123 402 123.1 415 125.1 427.2C126.1 433.3 127.8 439.3 130 445.1C130.8 447.1 135.2 444.8 134.4 442.7C129.7 430.6 128 417.6 128.3 404.7C128.5 393.3 129.6 380.3 136.6 370.8C142.1 363.2 153.4 358.2 162.2 363.5C171.8 369.3 172.3 382.7 166.4 391.2C160 400.4 148 405 137.4 400.4C127.2 396 120.8 385.6 118.8 375C116.4 362.4 118.8 349.4 121.5 337C124.4 324 128.3 311.2 131.9 298.4C138.6 274.7 144.4 250.1 141.2 225.4C139.8 214 136.5 201.9 130 192.3C126.6 187.3 121.8 185.5 115.9 185.8C110.6 186.1 105.3 187.8 100.7 190.3C91.1 195.5 83.9 204.7 81.7 215.5C79.6 225.9 82 238.8 90.1 246.2C98.8 254.1 110.3 248.5 116.5 240.5C123.6 231.3 126.2 218.9 127 207.6C128.8 182.4 120.5 157.4 111.1 134.5C101.6 111.3 89.7 89.1 75.5 68.4C72 63.3 68.4 58.4 64.7 53.5C63.5 51.6 59.2 54.1 60.5 55.8Z" fill="white"/>
</g>
<mask id="mask1_201_705" style="mask-type:luminance" maskUnits="userSpaceOnUse" x="51" y="51" width="398" height="398">
<path d="M250 448.5C359.629 448.5 448.5 359.629 448.5 250C448.5 140.371 359.629 51.5 250 51.5C140.371 51.5 51.5 140.371 51.5 250C51.5 359.629 140.371 448.5 250 448.5Z" fill="white"/>
</mask>
<g mask="url(#mask1_201_705)">
<path d="M35.7002 148.1C51.8002 169 60.3002 194.5 65.9002 220.1C69.0002 234.3 71.2002 248.6 73.6002 262.9C74.8002 269.9 76.0002 277 77.4002 283.9C78.4002 288.7 79.8002 293.9 83.2002 297.5C87.0002 301.7 93.2002 302.7 98.5002 301.4C104.4 300 108.6 295.5 111.4 290.3C112.8 287.7 114.4 284.7 115.1 281.8C115.8 278.8 114 276.9 111.4 275.7C106.5 273.6 100.2 272.7 95.0002 273.6C92.6002 274 90.2002 275 88.4002 276.8C86.4002 278.9 85.7002 281.8 85.4002 284.6C84.5002 291.5 84.5002 298.6 84.8002 305.5C85.3002 319.9 87.4002 334.2 88.6002 348.6C89.8002 362.9 89.8002 377.1 87.8002 391.3C85.8002 405.2 82.3002 418.9 78.1002 432.3C77.0002 435.7 75.9002 439 74.8002 442.4C74.6002 443.1 79.3002 444 79.8002 442.6C88.3002 417.4 95.0002 391.2 94.4002 364.4C94.1002 350.8 92.3002 337.3 91.0002 323.8C90.3002 317.1 89.8002 310.4 89.6002 303.7C89.4002 297.1 89.4002 290.3 90.4002 283.8C90.8002 281.1 91.7002 278.3 93.9002 276.5C95.6002 275.1 97.7002 274.6 99.8002 274.7C102.1 274.8 104.5 275.3 106.6 276.1C107.7 276.5 108.7 277 109.4 278C110.4 279.3 110 281 109.5 282.5C107.6 287.9 104.7 293.9 100.1 297.4C98.2002 298.9 95.5002 300.4 93.0002 300.2C90.8002 300.1 88.8002 298.4 87.5002 296.9C84.3002 293.3 83.0002 288.4 82.1002 283.8C80.8002 277.3 79.6002 270.7 78.5002 264.1C76.2002 250.7 74.1002 237.2 71.4002 223.8C66.4002 199.8 59.2002 175.7 45.5002 155C43.9002 152.5 42.1002 150.1 40.3002 147.8C39.7002 147.1 38.1002 147.1 37.3002 147.1C37.2002 147.3 35.2002 147.4 35.7002 148.1Z" fill="white"/>
</g>
<mask id="mask2_201_705" style="mask-type:luminance" maskUnits="userSpaceOnUse" x="51" y="51" width="398" height="398">
<path d="M250 448.5C359.629 448.5 448.5 359.629 448.5 250C448.5 140.371 359.629 51.5 250 51.5C140.371 51.5 51.5 140.371 51.5 250C51.5 359.629 140.371 448.5 250 448.5Z" fill="white"/>
</mask>
<g mask="url(#mask2_201_705)">
<path d="M136.5 50.2C142.4 62.9 148.4 75.7 153.3 88.9C158.2 102.2 161.8 115.8 163.7 129.9C167.6 158.5 165.6 187.5 164.3 216.3C164 223.5 163.7 230.6 163.5 237.8C163.4 243.8 163.2 249.8 164 255.8C165.3 266.3 170.7 276.3 181.7 278.8C192 281.1 203.2 276.8 209.9 268.9C217.5 259.9 220 247.5 220.4 236C220.7 226.6 218.8 215.2 210.5 209.5C200.4 202.6 187.4 207.3 178.8 214.3C162.2 228 157.2 251.7 160.6 272.2C165 298.7 181 321.1 194.5 343.6C201.4 355.2 207.9 367.2 212 380.2C215.7 392 218.7 406.8 212 418.2C206.9 427 193.4 432.8 186.8 422.4C184.4 418.7 183.7 413.5 186.6 409.8C189.7 405.8 195.4 405.4 199.9 407.1C205.5 409.2 209.2 414.6 211.7 419.7C214.6 425.5 216.6 431.9 218.5 438.1C222.5 451.6 225 465.5 225.7 479.6C226.1 486.4 226 493.3 225.6 500.1C225.5 502.5 230.4 502.8 230.6 500.4C231.4 486.6 230.6 472.7 228.3 459C226.1 445.7 222.6 431.9 216.8 419.6C212.2 409.8 203.8 401.2 192.1 402.6C187.4 403.2 182.7 405.8 180.7 410.3C178.9 414.4 179.7 419.1 181.8 422.9C187 432.4 199 433.7 207.8 428.5C218.7 422.1 221.7 409.1 220.6 397.2C218.1 370.6 202.3 347.4 188.7 325.2C175.7 303.8 162.7 280 164.8 254.2C165.7 243.5 169 232.7 175.5 224.1C181.7 215.9 194 205.9 204.9 210.7C214.6 215 215.8 228.3 215.3 237.5C214.7 249 211.8 262.2 202.5 270C194.7 276.6 181.6 278.6 174.5 270C167 261 168.3 247.2 168.6 236.3C169.3 207.5 172 178.8 170.5 150C169.8 136 168 121.9 164.5 108.3C161 94.6 155.7 81.3 150 68.3C147.2 62 144.3 55.7 141.4 49.5C140.4 47.4 135.5 47.9 136.5 50.2Z" fill="white"/>
</g>
<mask id="mask3_201_705" style="mask-type:luminance" maskUnits="userSpaceOnUse" x="51" y="51" width="398" height="398">
<path d="M250 448.5C359.629 448.5 448.5 359.629 448.5 250C448.5 140.371 359.629 51.5 250 51.5C140.371 51.5 51.5 140.371 51.5 250C51.5 359.629 140.371 448.5 250 448.5Z" fill="white"/>
</mask>
<g mask="url(#mask3_201_705)">
<path d="M192.9 43.3C209.6 65.1 218.5 93.3 216.7 120.7C216 131.9 212.8 144.5 203.6 151.9C201.3 153.7 196.7 157 193.6 155.4C192.5 154.8 191.7 153.2 191 152.2C190.1 150.8 189.4 149.3 188.7 147.9C185.5 141.4 182.2 134.5 182 127C181.8 121.2 183.7 114.9 188.1 111C192.8 106.8 199.5 106.3 205.3 108.5C217.3 112.9 224.4 126.5 228.3 137.9C232.7 150.7 234.2 164.4 235.3 177.9C236.6 193.8 237 209.8 236.3 225.8C235.7 241.8 233.9 257.8 231.4 273.6C228.9 289.1 226 304.7 226.8 320.4C227.1 326.8 227.6 333.8 230.9 339.4C234 344.7 239.5 348 245.4 349.2C256.8 351.5 269 348.7 278.8 342.8C288.5 336.9 296.5 327.9 300.3 317.1C303.6 307.8 303.4 296.3 297.1 288.2C290.8 280.1 279.6 277.3 271.1 283.6C261 291.1 257.8 304.5 256.3 316.3C252.6 346.5 260.6 376.7 257.4 407C255.9 420.6 252.1 434.4 243.8 445.5C236.6 455.3 226.2 463.2 214.2 466.3C208.5 467.8 202.5 468 196.7 466.7C195.8 466.5 195.7 466.9 196.1 467.6C196.7 468.4 198.1 469.2 199.1 469.5C224.2 475.1 247.2 455.9 255.9 433.6C266.9 405.5 260.9 374.8 259.7 345.7C259.4 337.9 259.4 330.1 260.1 322.3C260.8 315.2 261.8 307.9 264.5 301.3C268.2 292.2 277.8 279.1 289.4 284C293.7 285.8 295.9 291.2 297 295.3C298.3 300.5 298.3 306 297 311.2C294 322.6 286.3 332.5 276.6 339C266.8 345.5 253.9 349.2 242.2 346.5C238.6 345.7 236.3 343.9 234.6 340.7C233.1 337.9 232.4 334.7 231.9 331.6C230.7 323.8 230.8 315.9 231.3 308.1C232.5 292.2 235.9 276.5 237.9 260.7C239.9 244.7 240.9 228.6 240.9 212.5C240.9 196.9 240.1 181.3 238.1 165.9C236.4 153 233.7 139.9 227.4 128.4C221.6 117.7 212.1 107.8 199.8 105.1C194.4 103.9 188.7 104.6 184.3 108.3C179.9 112 177.9 117.8 177.7 123.4C177.4 130.5 180.1 137.3 183.1 143.6C185.7 149.1 188.3 155 194.1 157.9C199.9 160.8 205.6 157.3 209.8 153.2C214 149.1 216.7 143.8 218.4 138.3C222.1 126.3 221.8 112.9 220.1 100.6C218.2 87 213.8 73.7 207.4 61.5C204.3 55.6 200.6 50 196.6 44.7C196 43.9 194.6 43 193.6 42.8C192.6 42.2 192.3 42.5 192.9 43.3Z" fill="white"/>
</g>
<mask id="mask4_201_705" style="mask-type:luminance" maskUnits="userSpaceOnUse" x="51" y="51" width="398" height="398">
<path d="M250 448.5C359.629 448.5 448.5 359.629 448.5 250C448.5 140.371 359.629 51.5 250 51.5C140.371 51.5 51.5 140.371 51.5 250C51.5 359.629 140.371 448.5 250 448.5Z" fill="white"/>
</mask>
<g mask="url(#mask4_201_705)">
<path d="M225 46.1C230 59.2 230.4 73.3 232.2 87C233.9 99.9 237 114.4 247 123.6C251.6 127.8 258 130.4 264.2 130.5C271.1 130.6 277.6 127.2 282.6 122.7C287.4 118.4 291.5 112.2 291 105.5C290.5 99.9 286.9 95 281.7 92.9C276.1 90.7 270.4 90.7 265.8 95.1C261 99.6 258.8 106.2 257.7 112.5C255.3 126.4 258.7 140.9 267 152.3C275.1 163.4 287.1 171.6 293.2 184.2C298.1 194.2 297.9 206.1 293.9 216.5C289.9 226.9 282 236.1 271.5 240.2C270.7 240.5 269.9 240.8 269 241C268.9 241 267.9 241.3 267.6 241.2C268.4 241.5 267.5 240.8 267.5 240.7C266.7 239.3 265.3 238 264.5 236.6C262.8 233.8 261.4 230.8 260.6 227.7C259.1 222.1 259.1 215.8 262.6 210.9C266.4 205.7 274.3 203.2 280.5 205.3C285.9 207.1 290.4 211.5 293.7 216C301 226.2 303.7 239 305.2 251.2C308.9 281.9 305.9 313.4 296.5 342.8C294.2 350.2 291.4 357.4 288.3 364.5C285.1 371.7 281.2 378.5 278.7 386C276.6 392.6 275.8 399.9 279.2 406.3C281.8 411.3 286.4 414.9 291.6 417C296.8 419.1 302.7 420.5 308.3 419.4C314.1 418.3 319.3 414.7 322.8 409.9C329.3 401 331 384.8 320 378.4C314.6 375.3 308.2 374.9 303.1 378.8C297.8 382.9 295.2 389.4 293.8 395.7C292.2 402.9 291.6 410.4 291.2 417.8C290.8 425.5 291.2 433.5 294.3 440.6C296.7 446.2 300.6 451 305.9 454.1C306.9 454.7 308.1 455 309.1 455.2C309.4 455.2 310.9 455.5 310.1 455C297 447.6 295.1 431.2 296 417.7C296.5 410.7 297.1 403.5 298.7 396.6C300.1 390.6 302.7 384.5 307.6 380.5C309 379.4 310.6 378.4 312.4 377.9C314.3 377.3 315.4 377.2 316.8 378.3C319.2 380.2 320.9 382.9 321.9 385.7C323.9 391.1 323.3 397.3 321.2 402.6C319 408.1 314.9 413 309.7 415.8C304.9 418.3 298.6 419.3 293.6 416.9C288.4 414.4 284.1 409.7 282.5 404.2C280.4 397.1 282.4 389.6 285.2 383C288.1 376 291.7 369.3 294.7 362.3C297.5 355.5 300 348.6 302.2 341.5C310.8 313.1 313.6 282.9 310.1 253.4C308.7 241.8 306.4 230 300.2 219.9C294.4 210.4 284.5 203.9 273.1 203.2C267.2 202.9 261.1 204.8 257.7 209.8C254.4 214.4 254.4 220.5 255.7 225.8C256.4 228.6 257.5 231.3 258.9 233.8C260.2 236.2 261.8 239.1 264.2 240.7C266.5 242.3 270 243.2 272.7 242.8C275.5 242.4 278.4 240.9 280.9 239.5C299.2 229 307.5 203.4 297.5 184.5C291.3 172.7 280.2 164.8 272.3 154.3C263.9 143.2 260.2 129 262.3 115.3C263.2 109.1 265.2 102.6 269.4 97.8C271.3 95.6 273.7 93.8 276.6 93.2C277.4 93 278.3 92.9 279.1 93C279.1 93 280 93.2 279.7 93.1C279.2 92.9 280.4 93.6 280.4 93.6C281.6 94.4 282.7 95.5 283.5 96.7C292.2 108.6 279.7 122.8 268.8 127.4C265.6 128.7 261.4 129.9 258 129C254.8 128.2 252 125.4 249.8 123C245.4 118.1 242.5 112 240.5 105.8C236.5 93.1 236.3 79.6 234.4 66.5C233.5 60.1 232.1 53.7 229.8 47.7C229.6 47.1 228 46.8 227.5 46.7C227.3 46.5 224.9 46.1 225 46.1Z" fill="white"/>
</g>
<mask id="mask5_201_705" style="mask-type:luminance" maskUnits="userSpaceOnUse" x="51" y="51" width="398" height="398">
<path d="M250 448.5C359.629 448.5 448.5 359.629 448.5 250C448.5 140.371 359.629 51.5 250 51.5C140.371 51.5 51.5 140.371 51.5 250C51.5 359.629 140.371 448.5 250 448.5Z" fill="white"/>
</mask>
<g mask="url(#mask5_201_705)">
<path d="M263.4 45.3C267.3 68.6 292.5 77.1 308.5 90.5C317.2 97.7 322.9 107.5 323.6 118.9C324.2 128.8 321.2 141.5 311.4 146.3C307.4 148.3 302.7 147.7 299.8 144.1C297.2 140.8 296.5 136.1 298.3 132.3C300.2 128.3 304.5 125.7 308.8 125.1C313.8 124.5 318.3 126.6 321.7 130.2C325.6 134.3 328.2 139.5 330.4 144.6C332.9 150.3 334.6 156.3 335.8 162.4C338.2 175.2 337.1 188.1 334.4 200.7C331.6 213.6 327.9 226.3 325.6 239.3C323.4 251.8 321.7 264.6 321.7 277.3C321.7 287.7 323.5 298.8 331.2 306.4C338.3 313.4 349.6 315.9 358.9 312.3C368.1 308.8 374.4 299.7 375 289.9C375.3 284.7 374 279.4 371 275.2C367.9 270.9 363 268.6 357.7 268.4C348 268 338.8 273.8 332.5 280.9C326.5 287.7 322.8 296.2 321.3 305C319.8 313.9 320.8 323.2 324.4 331.4C328.8 341.6 337.5 348.4 344.6 356.7C352.3 365.7 355.7 376.7 355.2 388.4C354.6 400.3 350.1 411.7 344 421.8C341 426.8 337.5 431.6 333.9 436.3C332.2 438.4 336.2 441.6 337.8 439.4C352 421.1 364.1 398.3 358.5 374.4C357.2 368.8 354.8 363.4 351.5 358.7C348.2 354 344 349.9 340.1 345.8C336.4 341.9 332.6 337.9 330.1 333.1C328 329.2 326.6 325 325.9 320.6C323.1 303.1 331.6 282.3 348.5 274.9C352.9 273 358.5 271.8 363.1 273.8C368 276 370.2 281.6 370.3 286.6C370.6 296.5 364.1 306.2 354.4 308.7C344.5 311.2 334.2 306.4 329.8 297.2C325 287.1 326.3 275 327.2 264.2C328.4 250.7 330.5 237.3 333.7 224.1C336.8 211.3 340.5 198.6 341.6 185.5C342.7 173 341 160.5 336.9 148.7C333.4 138.7 327.9 126.6 317.6 121.9C309.1 118.1 297.7 121.2 293.8 130.1C290.2 138.4 295.7 149.4 304.6 151.3C315.1 153.5 323.5 143.8 326.4 134.8C329.8 124.3 328.8 112.5 324 102.5C313.7 81.5 288.4 76.3 274.4 58.6C271.2 54.5 268.9 49.9 268 44.7C267.5 42.6 262.9 42.2 263.4 45.3Z" fill="white"/>
</g>
<mask id="mask6_201_705" style="mask-type:luminance" maskUnits="userSpaceOnUse" x="51" y="51" width="398" height="398">
<path d="M250 448.5C359.629 448.5 448.5 359.629 448.5 250C448.5 140.371 359.629 51.5 250 51.5C140.371 51.5 51.5 140.371 51.5 250C51.5 359.629 140.371 448.5 250 448.5Z" fill="white"/>
</mask>
<g mask="url(#mask6_201_705)">
<path d="M325.7 57.6001C343.4 75.7001 345.4 102.9 347.2 126.8C348.2 139.5 348.7 152.9 352.8 165.1C356.3 175.4 363.6 184.7 374.8 186.5C379.4 187.2 384.5 186.4 388.2 183.4C392.8 179.7 394.9 173.4 396.6 168C400.1 156.6 400.2 143.5 391.4 134.5C384.5 127.3 373 124.4 365.2 131.8C361.6 135.2 359.4 139.9 357.9 144.6C356.2 149.7 355.2 155.1 354.4 160.5C352.8 171.4 352.8 182.6 355.5 193.2C358.2 203.7 363.8 213.1 372 220.2C379.7 226.9 388.8 231.7 396.5 238.4C400.1 241.6 403.4 245.2 405.5 249.5C408.3 255.1 409.2 261.6 409.9 267.8C410.9 276 411.4 288.1 403.1 292.9C398.1 295.8 392.2 294.1 387.6 291.3C382.6 288.2 378.4 283.5 375.1 278.7C371.7 273.7 368.7 267.7 368.2 261.5C367.8 256.1 370.2 249.8 375.5 247.6C380.9 245.3 386.7 248.2 390.1 252.4C393.7 256.9 396.1 262.6 398.1 267.9C402.3 278.8 404.7 290.7 403.1 302.4C402.3 308.1 400.6 313.5 397.8 318.5C394.7 324.1 390.3 328.7 386.6 333.8C379.6 343.5 376.1 355.4 376.8 367.3C377.4 378.5 381.9 389.4 389.1 398.1C392.6 402.3 396.7 406 401.3 409C402.1 409.5 403.3 409.5 403.5 408.4C403.7 407.2 402.7 406 401.8 405.4C392.6 399.4 385.7 390.2 382.5 379.7C379.1 368.4 380.3 355.9 385.3 345.3C388 339.7 391.8 335 395.7 330.1C399.5 325.3 402.7 320.3 404.7 314.5C408.4 303.6 408 291.8 405.5 280.7C404.2 274.9 402.3 269.2 399.9 263.7C397.5 258.3 394.9 252.8 390.7 248.5C386.9 244.6 381.4 241.8 375.9 242.6C370.7 243.3 366.7 247.5 365.1 252.4C363.2 258.3 364.5 264.6 366.9 270.2C369.3 275.9 372.6 281.2 376.7 285.8C383.4 293.4 395.1 302.8 405.7 297.2C414.1 292.7 414.8 281.2 414.2 272.8C413.4 261.4 411.1 249.8 403.4 241C396.7 233.2 387.7 228.1 379.4 222.1C375.4 219.2 371.5 216.1 368.3 212.3C364.9 208.3 362.3 203.6 360.6 198.7C356.9 188.3 356.6 176.9 357.8 166C358.4 160.6 359.4 155.2 360.8 150C362.1 145.2 364 140.2 367.5 136.5C370.9 132.9 375.7 131.1 380.6 132.1C385.3 133.1 389.5 136.3 391.9 140.3C395 145.6 395.2 152.1 394.3 158C393.4 164 391.4 170.5 388.2 175.8C385.4 180.4 380.7 182.8 375.3 182.5C370.5 182.3 365.7 180.1 362.4 176.6C354.4 167.9 353.3 154.2 352.1 143C349.5 117.9 350.1 91.2001 337.2 68.6001C334.4 63.6001 330.9 59.0001 326.9 54.9001C326.3 54.3001 324.9 53.8001 324.3 54.7001C324 55.5001 325 56.9001 325.7 57.6001Z" fill="white"/>
</g>
<mask id="mask7_201_705" style="mask-type:luminance" maskUnits="userSpaceOnUse" x="51" y="51" width="398" height="398">
<path d="M250 448.5C359.629 448.5 448.5 359.629 448.5 250C448.5 140.371 359.629 51.5 250 51.5C140.371 51.5 51.5 140.371 51.5 250C51.5 359.629 140.371 448.5 250 448.5Z" fill="white"/>
</mask>
<g mask="url(#mask7_201_705)">
<path d="M410.5 113.4C413.5 128 409.8 142.7 406.2 156.8C403 169.2 399.8 181.8 400.5 194.8C400.8 200.7 402 206.5 404.3 211.9C406.6 217.1 410.2 222.2 415.1 225.3C417.7 226.9 420.6 227.8 423.6 228.2C426.6 228.6 429.8 228.6 432.5 226.9C435.1 225.3 436.8 222.7 438.2 220.1C439.9 217.1 441.2 213.7 441.3 210.2C441.4 207.3 440.6 204.5 438.8 202.3C436.9 200 434.3 198.9 431.4 198.4C428.4 197.9 425.3 197.8 422.8 199.8C420.4 201.7 419 204.6 417.9 207.4C412.9 220.3 416.1 234.6 420.1 247.3C423.9 259.4 428.9 271.2 430.2 284C430.8 289.9 430.6 295.9 429 301.6C428.2 304.4 427 307.2 425.5 309.7C424.8 310.9 424 312.1 423.1 313.1C422.8 313.4 422.5 313.8 422.1 314C421.8 314.2 421.4 314.3 421.2 314.5C421.9 314.6 422.7 314.7 423.4 314.8C423.3 314.7 423.1 314.6 423 314.5C422.8 314.2 422.4 314 422.2 313.7C420.5 311.6 419.5 308.5 418.7 306C418 303.6 417.5 301 417.9 298.5C418.3 296 419.8 293.7 422.2 292.7C422.7 292.5 423.3 292.3 423.8 292.2C423.9 292.2 424 292.2 424.1 292.2C424.6 292.2 424.5 292.2 423.6 292.1C423.5 292.2 424 292.2 424.1 292.3C425.4 292.8 426.7 293.6 427.7 294.6C432.5 299.2 433.1 307.1 433.8 313.3C434.7 320.9 435.1 328.5 434.9 336.2C434.8 339.9 434.6 343.7 434.2 347.4C434.1 348 439.1 348.6 439.2 348C440 340.4 440.2 332.7 439.8 325.1C439.6 321.2 439.3 317.3 438.8 313.4C438.4 310 437.9 306.6 437 303.4C436.2 300.5 435 297.7 433 295.5C431 293.3 428.2 292.1 425.4 291.6C422.6 291.1 419.4 290.8 416.8 292.2C414.6 293.4 413.3 295.5 412.9 297.9C412.5 300.4 413 303 413.7 305.4C414.4 307.9 415.4 310.5 416.9 312.7C417.6 313.8 418.5 314.6 419.8 315.1C421.5 315.7 423.6 316 425.4 315.6C428 315.1 429.7 311.9 431 309.8C437.1 299.3 436.3 286.4 433.8 275C430.9 262.2 425.3 250.1 422.4 237.3C420.9 230.7 420.1 223.9 420.9 217.2C421.3 214 422.1 210.8 423.3 207.8C424.5 204.9 426 201.7 428.8 200.1C429.3 199.8 429.9 199.5 430.5 199.4C430.8 199.3 431.2 199.3 431.5 199.2C430.6 199.5 429.8 198.8 430.8 199.3C432.1 199.8 433.2 200.8 434.2 201.8C436.4 204.2 437.1 207.4 436.8 210.6C436.5 213.9 435.1 217.1 433.5 220C432 222.7 430.1 225.4 427.2 226.7C426.5 227 425.8 227.2 425.1 227.4C424.8 227.5 424.4 227.4 424.1 227.5C423.7 227.6 424.1 227.5 424.3 227.6C422.9 227.2 421.5 226.6 420.3 225.8C417.8 224.3 415.7 222.2 413.9 219.9C410.3 215.2 408 209.6 406.8 203.8C401.2 176.7 417.2 151.5 416.9 124.7C416.9 121.1 416.5 117.6 415.8 114.1C415.2 113.1 410.4 113.4 410.5 113.4Z" fill="white"/>
</g>
</svg>
