<svg width="96" height="96" viewBox="0 0 96 96" fill="none" xmlns="http://www.w3.org/2000/svg">
<rect x="18" y="18" width="68" height="68" fill="black" stroke="black" stroke-width="4" stroke-linejoin="round"/>
<rect x="10" y="10" width="68" height="68" fill="#39DBFF" stroke="black" stroke-width="4" stroke-linejoin="round"/>
<path d="M44 42C52.3865 42 53 37.9706 53 33C53 28.0294 52.3865 24 44 24C35.6135 24 35 28.0294 35 33C35 37.9706 35.6135 42 44 42Z" stroke="black" stroke-width="8"/>
<path d="M44 64C54.2502 64 55 59.0751 55 53C55 46.9249 54.2502 42 44 42C33.7498 42 33 46.9249 33 53C33 59.0751 33.7498 64 44 64Z" stroke="black" stroke-width="8"/>
</svg>
