<svg width="397" height="402" viewBox="0 0 397 402" fill="none" xmlns="http://www.w3.org/2000/svg">
<path d="M397 401.2H0V0H396.9V401.2H397ZM1 400.2H395.9V1H1V400.2Z" fill="white"/>
<path d="M321.9 28.2999C309.4 28.2999 296.8 28.0999 284.4 27.6999C271.9 27.1999 259.4 25.5999 247.2 24.0999C232.7 22.2999 217.8 20.3999 202.8 20.3999C202.8 20.3999 202.8 20.3999 202.7 20.3999C186 20.3999 169.2 22.2999 152.9 24.0999C137.8 25.7999 122.2 27.4999 106.7 27.7999C83.2999 28.1999 59.5999 27.9999 36.5999 27.8999C24.6999 27.7999 12.4999 27.7999 0.399902 27.7999V26.7999C12.4999 26.7999 24.6999 26.8999 36.5999 26.8999C59.5999 26.9999 83.3999 27.1999 106.7 26.7999C122.2 26.5999 137.7 24.7999 152.8 23.0999C169.1 21.2999 185.9 19.3999 202.7 19.3999H202.8C217.8 19.3999 232.8 21.2999 247.3 23.0999C259.4 24.5999 271.9 26.1999 284.4 26.6999C309.2 27.5999 334.6 27.2999 359.1 26.9999C371.3 26.7999 384 26.6999 396.3 26.6999V27.6999C383.9 27.6999 371.3 27.8999 359.1 27.9999C347 28.0999 334.5 28.2999 321.9 28.2999Z" fill="white"/>
<path d="M327.1 56.3C312.7 56.3 298.5 55.6 285.1 53.2C274.1 51.3 263.6 46.9 253.5 42.7C240.3 37.2 226.7 31.5 211.8 31.4C192.2 31.2 173 37.1 154.3 42.8C139 47.5 123.2 52.3 107.2 53.8C83 56 57.8 55.4 33.5 54.9C22.6 54.7 11.4 54.4 0.5 54.4V53.4C11.4 53.4 22.6 53.7 33.5 53.9C57.8 54.5 82.9 55 107.1 52.8C123 51.3 138.7 46.5 154 41.8C172.7 36.1 192.1 30.2 211.8 30.4C226.9 30.6 240.7 36.3 253.9 41.8C263.9 46 274.3 50.3 285.2 52.2C309.6 56.4 336.5 55.3 362.6 54.3C374.4 53.8 385.5 53.4 396.4 53.4V54.4C385.5 54.4 374.4 54.9 362.6 55.3C350.9 55.8 339 56.3 327.1 56.3Z" fill="white"/>
<path d="M66.3 82.6002C55.1 82.6002 43.9 82.2002 32.9 81.8002C22.2 81.4002 11.1 81.0002 0.5 81.0002V80.0002C11.1 80.0002 22.2 80.4002 32.9 80.8002C57.7 81.7002 83.4 82.5002 107.3 79.0002C124 76.5002 140.5 68.9002 156.5 61.5002C176.9 52.1002 197.9 42.5002 219.7 43.0002C235.3 43.4002 247 52.5002 258.3 61.4002C266.8 68.0002 275.5 74.8002 285.8 78.0002C297.5 81.6002 310.8 81.0002 323.7 80.4002C328.4 80.2002 332.9 80.0002 337.3 80.0002H396.3V81.0002H337.3C332.9 81.0002 328.5 81.2002 323.7 81.4002C310.8 82.0002 297.4 82.6002 285.5 78.9002C275 75.7002 266.2 68.8002 257.6 62.2002C246.4 53.5002 234.8 44.5002 219.6 44.1002C198.1 43.5002 177.1 53.1002 156.8 62.5002C140.7 69.9002 124.1 77.5002 107.3 80.0002C94.2 81.9002 80.3 82.6002 66.3 82.6002Z" fill="white"/>
<path d="M59.8 109.1C48.6 109.1 37.2 108.7 26 108.4C17.2 108.1 8.8 107.9 0.5 107.8V106.8C8.8 106.9 17.2 107.2 26 107.4C53.1 108.2 81.1 109.1 106.6 104.9C123.7 102.1 140.5 93.6998 156.9 85.5998C177.7 75.2998 199.2 64.6998 221.5 65.0998C237.8 65.3998 248.6 75.7998 259 85.8998C266.8 93.3998 274.8 101.3 285.2 104.9C296.8 109 310.6 108.2 323.9 107.5C328.6 107.2 333 107 337.2 107H338.3C357.4 106.8 377.1 106.7 396.5 106.9V107.9C377.1 107.7 357.4 107.9 338.4 108H337.3C333.1 108 328.7 108.3 324 108.5C310.6 109.2 296.8 110 285 105.9C274.4 102.2 266.3 94.2999 258.4 86.6999C247.7 76.2999 237.5 66.4998 221.6 66.1998C199.5 65.7998 178.1 76.3998 157.4 86.5998C141 94.6998 124.1 103.1 106.9 106C91.8 108.3 75.9 109.1 59.8 109.1Z" fill="white"/>
<path d="M295.8 141C288.7 141 281.7 140.3 275.4 138.1C265.3 134.7 257.7 127.5 250.4 120.6C240.5 111.3 231.2 102.6 216.1 102C193.1 101.1 169.2 107 146.2 112.6C130.2 116.5 113.6 120.6 97.6 122.3C85.2 123.6 72.6 125.6 60.4 127.6C40.7999 130.7 20.6 133.9 0.699951 134.4V133.4C20.5 132.9 40.7 129.7 60.3 126.6C72.5 124.7 85.2 122.7 97.5 121.3C113.4 119.6 130 115.6 146 111.7C169.2 106.1 193.1 100.2 216.2 101.1C231.6 101.7 241.5 111 251.1 120C258.4 126.8 265.9 133.9 275.8 137.2C289.1 141.7 305.4 139.9 319.8 138.2C324 137.7 328.1 137.3 331.9 137L336.7 136.6C356.3 135.1 376.5 133.5 396.6 133.4V134.4C376.6 134.5 356.4 136.1 336.8 137.6L332 138C328.1 138.3 324.1 138.8 319.9 139.2C312.1 140.1 303.8 141 295.8 141Z" fill="white"/>
<path d="M277.5 176.8C271.6 176.8 265.8 176.1 260.4 174.5C250.7 171.5 243.8 165.5 237.2 159.7C228.7 152.3 220.6 145.4 207.2 144C201.5 143.4 195.7 142.8 189.9 142.2C154.6 138.5 118.2 134.6 82.9001 133.9C65.6001 133.5 52.0001 140.4 37.6001 147.6C26.2001 153.3 14.4001 159.2 0.7001 161.2L0.600098 160.2C14.1001 158.3 25.9001 152.4 37.2001 146.7C51.1001 139.7 65.4001 132.5 82.9001 132.9C118.2 133.6 154.7 137.5 190 141.2C195.8 141.8 201.6 142.4 207.3 143C221 144.4 229.6 151.8 237.9 159C244.5 164.7 251.3 170.6 260.8 173.6C275.8 178.3 294.2 174.8 310.4 171.7C314.8 170.8 319 170 323.1 169.4C325.8 169 328.5 168.6 331.2 168.1C352.5 164.7 374.5 161.3 396.6 160.2V161.2C374.6 162.3 352.6 165.7 331.3 169.1C328.6 169.5 325.9 170 323.2 170.4C319.2 171 315 171.8 310.6 172.7C299.9 174.6 288.4 176.8 277.5 176.8Z" fill="white"/>
<path d="M262.8 212.5C257.6 212.5 252.5 211.9 247.7 210.5C238.8 207.9 232.4 203 226.2 198.2C218.6 192.3 211.3 186.7 199.6 185C178 181.9 157.1 174.3 136.8 167C115.5 159.3 93.5 151.3 70.8 148.7C52.4 146.5 42.1 156.7 31.2 167.5C22.6 176 13.8 184.7 0.50005 187.7L0.300049 186.7C13.3 183.8 22.1 175.2 30.6 166.8C41.7001 155.9 52.1 145.5 71 147.7C93.8 150.4 115.8 158.3 137.2 166.1C157.4 173.4 178.3 181 199.8 184C211.8 185.7 219.4 191.7 226.8 197.4C232.9 202.1 239.2 207.1 248 209.6C264.6 214.4 284.6 209.3 302.3 204.7C306.9 203.5 311.3 202.4 315.5 201.5C319.2 200.7 322.9 199.9 326.5 199.1C349.2 194.1 372.6 188.9 396.3 186.8L396.4 187.8C372.7 189.9 349.3 195.1 326.7 200.1C323 200.9 319.4 201.7 315.7 202.5C311.5 203.4 307.1 204.5 302.5 205.7C289.8 209 275.9 212.5 262.8 212.5Z" fill="white"/>
<path d="M262.7 239.4C257.7 239.4 252.7 238.9 247.9 237.7C239.1 235.5 231.8 231.3 224.6 227.3C216.2 222.5 207.5 217.5 196.4 216C174.8 213 154.4 204.4 134.7 196.1C114.4 187.5 93.3 178.7 71.2 176.1C52.8 174 42.5 184 31.5 194.6C22.9 203 13.9 211.6 0.50005 214.4L0.300049 213.4C13.4 210.7 22.2001 202.1 30.8001 193.9C41.9001 183.2 52.4 173 71.3 175.2C93.6001 177.7 114.7 186.6 135.1 195.2C154.8 203.5 175.1 212.1 196.6 215C207.9 216.5 216.7 221.6 225.2 226.4C232.3 230.4 239.6 234.6 248.2 236.7C265.6 241 285.6 236 303.2 231.6C307.5 230.5 311.5 229.5 315.5 228.6C319.2 227.8 322.8 226.9 326.5 226.1C349.2 221 372.6 215.6 396.4 213.4L396.5 214.4C372.8 216.7 349.4 222 326.7 227.1C323 227.9 319.4 228.8 315.7 229.6C311.7 230.5 307.7 231.5 303.4 232.6C290.5 235.9 276.3 239.4 262.7 239.4Z" fill="white"/>
<path d="M269.7 258.1C266.2 258.1 262.7 258 259.2 257.8C246 257 232.7 255.5 219.7 254C208.2 252.7 196.3 251.3 184.5 250.5C165.4 249.2 148 241.3 131.3 233.6C115.9 226.6 99.9999 219.4 82.8999 217.3C65.7999 215.2 51.5999 221.9 36.4999 229C25.1999 234.3 13.4999 239.8 0.499901 241.2L0.399902 240.2C13.1999 238.8 24.8999 233.4 36.0999 228.1C50.5999 221.3 65.5999 214.2 82.9999 216.3C100.3 218.4 116.2 225.7 131.7 232.7C148.4 240.3 165.7 248.2 184.6 249.5C196.4 250.3 208.3 251.7 219.8 253C232.7 254.5 246.1 256 259.2 256.8C286.3 258.4 313.8 253.3 340.4 248.4C358.7 245 377.7 241.5 396.3 240.2L396.4 241.2C377.8 242.5 358.9 246 340.6 249.4C317.4 253.6 293.5 258.1 269.7 258.1Z" fill="white"/>
<path d="M176 284.9C174.1 284.9 172.2 284.9 170.3 284.8C155.3 284.4 142.6 277.8 130.2 271.5C119.6 266.1 108.7 260.4 96.4001 258.7C78.1001 256.1 59.3001 259.5 41.1001 262.8C27.8001 265.2 14.0001 267.6 0.600098 267.8V266.8C14.0001 266.7 27.7001 264.2 41.0001 261.8C59.3001 258.5 78.2001 255.1 96.6001 257.7C109 259.4 120 265.1 130.7 270.6C143 276.9 155.7 283.4 170.4 283.8C191.2 284.4 212.6 281.6 233.4 278.9C246.4 277.2 259.8 275.5 272.8 274.6C284.7 273.8 296.9 272.8 308.6 271.9C337.5 269.6 367.3 267.3 396.5 266.8V267.8C367.3 268.3 337.5 270.6 308.6 272.9C296.8 273.8 284.7 274.8 272.8 275.6C259.8 276.5 246.4 278.2 233.5 279.9C214.5 282.4 195 284.9 176 284.9Z" fill="white"/>
<path d="M164.2 316.3C163.2 316.3 162.2 316.3 161.3 316.3C149.1 316.1 139.7 310.6 130.6 305.3C122.9 300.8 114.9 296.2 105.3 294.7C83.7001 291.5 60.5001 292.5 38.1001 293.6C25.7001 294.2 12.8001 294.8 0.600098 294.6V293.6C12.8001 293.8 25.6001 293.2 38.0001 292.6C60.5001 291.6 83.7001 290.5 105.4 293.7C115.2 295.2 123.3 299.9 131.1 304.4C140.1 309.6 149.4 315 161.3 315.3C185.3 315.8 209.8 310.1 233.5 304.6C249.4 300.9 265.9 297.1 281.9 295.2C310.3 291.9 340.3 292.5 369.2 293.1C378.2 293.3 387.4 293.5 396.4 293.5V294.5C387.4 294.4 378.2 294.2 369.2 294.1C340.3 293.5 310.4 292.9 282 296.2C266 298.1 249.6 301.9 233.7 305.6C211 310.8 187.4 316.3 164.2 316.3Z" fill="white"/>
<path d="M168.5 341.4C167.3 341.4 166 341.4 164.8 341.4C152.7 341.1 142.4 336.2 132.5 331.4C124.2 327.4 115.5 323.2 105.8 321.9C82.5999 318.6 57.5999 319.5 33.3999 320.4C22.4999 320.8 11.1999 321.2 0.399902 321.2V320.2C11.1999 320.2 22.3999 319.8 33.2999 319.4C57.4999 318.5 82.4999 317.6 105.9 320.9C115.8 322.3 124.5 326.5 132.9 330.5C142.7 335.2 152.9 340.1 164.8 340.4C188.3 341 212.3 335.6 235.6 330.3C251.1 326.8 267.1 323.2 282.7 321.4C309 318.4 336.5 319.1 363.1 319.7C374.1 320 385.4 320.2 396.4 320.2V321.2C385.4 321.2 374.1 320.9 363.1 320.7C336.5 320.1 309 319.4 282.8 322.4C267.3 324.2 251.3 327.8 235.8 331.3C213.8 336.2 191 341.4 168.5 341.4Z" fill="white"/>
<path d="M179.3 360.3C178.8 360.3 178.3 360.3 177.8 360.3C164.4 360.2 151.4 357.1 138.9 354.1C128.4 351.6 117.5 349 106.4 348.2C82.5 346.5 57.8 346.9 33.9 347.4C22.9 347.6 11.6 347.8 0.5 347.8V346.8C11.5 346.8 22.9 346.6 33.8 346.4C57.7 345.9 82.4 345.4 106.4 347.2C117.5 348 128.5 350.6 139 353.1C151.5 356.1 164.4 359.2 177.7 359.3C198.4 359.5 219.3 356.2 239.5 353.1C253.9 350.9 268.7 348.6 283.4 347.5C309.5 345.6 336.4 346 362.4 346.5C373.6 346.7 385.1 346.9 396.3 346.9V347.9C385 347.9 373.5 347.7 362.3 347.5C336.3 347.1 309.5 346.6 283.4 348.5C268.8 349.6 253.9 351.9 239.6 354.1C220 357.1 199.6 360.3 179.3 360.3Z" fill="white"/>
<path d="M190.2 378.6C158.6 378.6 126.5 377.6 95.4 376.5C64.3 375.5 32.1 374.4 0.5 374.4V373.4C32.2 373.4 64.3 374.4 95.5 375.5C127.1 376.5 159.7 377.6 191.8 377.6C225.5 377.6 259.9 376.5 293 375.5C326.9 374.5 361.9 373.4 396.4 373.4V374.4C361.9 374.4 326.9 375.4 293 376.5C259.8 377.5 225.5 378.5 191.7 378.6C191.3 378.6 190.7 378.6 190.2 378.6Z" fill="white"/>
<path d="M370.6 400.7H369.6C369.6 385 369.6 369.3 369.7 353.6C369.7 334.7 369.8 315.1 369.7 295.9C369.7 280.8 368.1 265.5 366.6 250.7C365.1 235.8 363.5 220.3 363.5 205C363.5 188.7 365.1 172.3 366.6 156.4C368.1 141.4 369.6 126 369.7 110.7C370 87.8 369.8 64.5 369.7 42C369.6 28.4 369.5 14.3 369.5 0.5H370.5C370.5 14.3 370.6 28.4 370.7 42C370.8 64.5 371 87.8 370.7 110.7C370.5 126 369 141.5 367.6 156.5C366.1 172.4 364.5 188.8 364.5 205C364.5 220.3 366.1 235.7 367.6 250.6C369.1 265.4 370.7 280.7 370.7 295.9C370.7 315.1 370.7 334.7 370.7 353.6C370.6 369.3 370.6 385 370.6 400.7Z" fill="white"/>
<path d="M344.2 400.7H343.2C343.2 389.5 343.4 378.1 343.7 367C344.2 343.7 344.7 319.5 343 296.2C342.1 282.7 337.7 270 333.5 257.6C328.8 243.8 323.9 229.4 323.8 214.1C323.7 194.7 328.7 175.6 333.5 157.2C337.4 142.2 341.5 126.6 342.8 111C344.8 86.0999 344.3 60.2999 343.7 35.3999C343.4 23.8999 343.2 11.9999 343.2 0.399902H344.2C344.2 11.9999 344.5 23.7999 344.7 35.2999C345.3 60.2999 345.8 86.0999 343.8 111C342.5 126.7 338.4 142.3 334.5 157.4C329.7 175.8 324.7 194.7 324.8 214C324.9 229.2 329.7 243.4 334.4 257.2C338.6 269.6 343 282.5 343.9 296.1C345.5 319.5 345 343.7 344.6 367C344.4 378.1 344.2 389.6 344.2 400.7Z" fill="white"/>
<path d="M317.8 400.7H316.8C316.8 389.9 317.2 378.7 317.6 367.7C318.5 343.9 319.4 319.3 316.3 296.4C314.5 283.5 307.5 272.7 300.6 262.4C292.8 250.6 284.7 238.3 284.6 222.8C284.5 201 292.8 180.1 300.8 160C307 144.2 313.5 127.9 315.9 111.4C319.5 86.6001 318.5 60.2001 317.6 34.6001C317.2 23.3001 316.8 11.7001 316.8 0.600098H317.8C317.8 11.7001 318.2 23.4001 318.6 34.6001C319.5 60.2001 320.4 86.8001 316.9 111.6C314.5 128.3 308 144.7 301.7 160.5C293.7 180.6 285.5 201.4 285.6 223C285.7 238.3 293.7 250.4 301.4 262.1C308.3 272.6 315.5 283.4 317.3 296.5C320.4 319.4 319.5 344.1 318.6 367.9C318.2 378.7 317.8 390 317.8 400.7Z" fill="white"/>
<path d="M291.4 400.7H290.4C290.5 391.8 290.9 382.7 291.3 373C292.4 347.1 293.6 320.4 289.3 296.9C286.9 284 278.4 274 270.2 264.4C260.7 253.3 250.9 241.9 250.7 225.9C250.3 202.9 260.8 181 270.9 159.8C278.5 143.8 286.4 127.3 289.5 110.6C293.8 86.9 292.6 61.1 291.5 36.2C290.9 24.3 290.4 12.1 290.4 0.5H291.4C291.3 12.1 291.9 24.3 292.5 36.2C293.7 61.2 294.9 87.1 290.5 110.9C287.4 127.7 279.5 144.3 271.8 160.3C261.7 181.4 251.3 203.2 251.7 225.9C252 241.5 261.2 252.3 271 263.8C279.3 273.5 287.9 283.6 290.3 296.8C294.6 320.4 293.5 347.2 292.4 373.2C291.9 382.7 291.5 391.9 291.4 400.7Z" fill="white"/>
<path d="M264 400.7C263.8 376 260.6 350.2 257.5 325.4C256.5 317.7 255.6 309.7 254.7 302C253.3 289.4 248.9 277.2 244.7 265.3C239.5 250.6 234.1 235.3 234.2 219.4C234.4 196 243.6 173.5 252.4 151.8C259.2 135.2 266.2 117.9 269.1 100.5C272.5 80.2001 269.8 58.9001 267.3 38.4001C265.8 25.9001 264.2 13.0001 263.9 0.600098H264.9C265.1 13.0001 266.7 25.9001 268.2 38.3001C270.8 58.9001 273.4 80.3001 270 100.7C267.1 118.3 260 135.5 253.2 152.2C244.4 173.8 235.3 196.2 235 219.4C234.8 235.2 240.2 250.3 245.4 265C249.6 276.9 254 289.2 255.4 301.9C256.3 309.6 257.3 317.6 258.2 325.3C261.3 350.2 264.5 375.9 264.7 400.7H264Z" fill="white"/>
<path d="M237.6 400.8C236.3 386.1 231.4 372.3 226.7 359C221.2 343.4 215.4 327.2 215.5 309.7C215.5 288.1 217.8 266 220 244.6C221.2 233 222.4 221 223.2 209.3C224.9 186.4 231.7 164.1 238.2 142.7C243.9 123.9 249.9 104.5 252.4 84.6999C254.6 67.2999 249.8 50.9999 245.3 35.2999C242.1 24.0999 238.7 12.5999 237.7 0.499905L238.7 0.399902C239.7 12.3999 243 23.7999 246.2 34.9999C250.8 50.7999 255.6 67.1999 253.4 84.7999C250.9 104.7 245 124.1 239.2 142.9C232.6 164.3 225.9 186.5 224.2 209.3C223.4 221 222.1 233 221 244.6C218.8 266 216.6 288.1 216.5 309.6C216.5 327 222.2 343 227.7 358.6C232.5 372 237.4 385.8 238.7 400.6L237.6 400.8Z" fill="white"/>
<path d="M211.2 400.8C208.9 387 201.3 375.1 194 363.7C184.9 349.4 175.5 334.7 176.7 316.4C178 295.8 185.6 276 193 256.8C199.8 239.1 206.9 220.7 208.9 201.8C211.2 180.5 216.1 159.2 220.8 138.6C225.8 116.9 230.9 94.5001 233 72.0001C234.6 55.5001 228.6 43.9001 222.4 31.6001C217.7 22.3001 212.8 12.7001 211.3 0.700096L212.3 0.600098C213.8 12.5001 218.6 22.0001 223.3 31.2001C229.6 43.6001 235.6 55.3001 234 72.2001C231.9 94.7001 226.7 117.2 221.8 139C217.1 159.5 212.3 180.8 209.9 202.1C207.8 221.2 200.7 239.6 193.9 257.4C186.5 276.5 178.9 296.2 177.7 316.7C176.6 334.7 185.5 348.7 194.9 363.4C202.3 374.9 209.9 386.9 212.2 400.9L211.2 400.8Z" fill="white"/>
<path d="M184.8 400.8C182.4 387 174.8 375.2 167.5 363.8C158.3 349.6 148.9 334.9 150 316.6C151.2 295.4 158.9 274.8 166.2 254.9C173 236.5 180 217.6 182.1 198.1C184.3 177.2 189.2 156.5 193.9 136.4C198.8 115.5 203.9 93.9999 205.9 72.2999C207.5 55.7999 201.7 44.0999 195.7 31.6999C191.1 22.2999 186.3 12.5999 184.9 0.499905L185.9 0.399902C187.3 12.2999 192 21.8999 196.6 31.2999C202.7 43.7999 208.5 55.5999 206.9 72.3999C204.8 94.0999 199.8 115.7 194.9 136.6C190.2 156.6 185.3 177.4 183.1 198.2C181 217.8 174 236.9 167.2 255.3C159.9 275.1 152.3 295.7 151 316.7C149.9 334.7 158.9 348.6 168.4 363.3C175.8 374.8 183.5 386.7 185.9 400.7L184.8 400.8Z" fill="white"/>
<path d="M158.4 400.8C156.8 386.2 151.7 372.6 146.7 359.5C140.8 343.9 134.7 327.9 134.6 310.2C134.4 280.8 137 250.4 139.5 220.9C140.5 209 141.6 196.7 142.4 184.8C143.7 165.7 150.5 147.9 157.1 130.8C162.8 116 168.6 100.7 170.9 84.6C173.4 67.5 169.1 51.2 165 35.4C162.1 24.2 159.1 12.5 158.4 0.599998L159.4 0.5C160.1 12.4 163.1 23.9 166 35.1C170.1 51 174.4 67.4 171.9 84.7C169.6 100.9 163.7 116.3 158 131.1C151.5 148.2 144.7 165.9 143.4 184.9C142.6 196.8 141.5 209.1 140.5 221C138 250.4 135.4 280.8 135.6 310.2C135.7 327.7 141.8 343.7 147.7 359.1C152.7 372.3 157.9 386 159.5 400.7L158.4 400.8Z" fill="white"/>
<path d="M132 400.7C131.6 381 129 361.1 126.5 341.8C124.8 328.6 123 314.9 121.9 301.4C120.5 283.2 116.4 264.3 112.5 246C107.1 220.7 101.5 194.6 102.5 169.4C103.2 153.5 111.6 141.4 119.8 129.6C126.4 120.2 133.1 110.5 135.9 98.8C140.6 79.5 137.8 57.7 135.1 36.6C133.5 24 132 12 131.9 0.5H132.9C133 12 134.5 23.9 136.1 36.5C138.8 57.7 141.6 79.5 136.9 99.1C134 110.9 127.2 120.8 120.6 130.2C112.5 141.8 104.1 153.9 103.5 169.5C102.5 194.6 108 220.7 113.4 245.9C117.3 264.2 121.4 283.1 122.8 301.4C123.9 314.8 125.7 328.5 127.4 341.7C129.9 361 132.6 381 132.9 400.7H132Z" fill="white"/>
<path d="M106.6 400.7H105.6C105.7 393.2 105.9 385.5 106 378C106.6 350.7 107.2 322.5 104.4 295.8C102.3 275.4 94.2 254.8 86.3 234.8C76.6 210.3 66.6 184.9 67.6 159.4C68.2 144.5 77.5 137.1 86.5 129.9C93.7 124.1 101.2 118.2 104.5 108.3C107.6 98.9 106.9 86.6 106.3 75.8C106.1 71.6 105.8 67.7 105.8 64.1C105.8 60 105.7 55.9 105.7 51.9C105.6 35 105.4 17.6 105.6 0.5H106.6C106.5 17.6 106.6 35.1 106.7 51.9C106.7 56 106.8 60.1 106.8 64.1C106.8 67.7 107.1 71.6 107.3 75.8C107.9 86.7 108.7 99.2 105.5 108.7C102.1 118.9 94.5 124.9 87.2 130.7C78 138.1 69.3 145 68.7 159.5C67.7 184.7 77.6 210 87.3 234.5C95.2 254.5 103.4 275.2 105.5 295.7C108.2 322.5 107.6 350.7 107.1 378C106.9 385.5 106.7 393.2 106.6 400.7Z" fill="white"/>
<path d="M80.2001 400.7H79.2001C79.2001 390.1 79.5001 379.1 79.7001 368.5C80.3001 344.3 80.9001 319.4 78.5001 295.5C76.5001 275.9 68.9001 256.1 61.6001 236.9C52.5001 213.1 43.1001 188.4 44.2001 163.8C44.8001 149.4 53.3001 140.9 61.5001 132.6C68.0001 126 74.8001 119.1 77.8001 109.3C80.8001 99.6 80.2001 88.1 79.6001 77C79.4001 72.7 79.2001 68.6 79.2001 64.8V0.5H80.2001V64.7C80.2001 68.6 80.4001 72.6 80.6001 76.9C81.2001 88.1 81.8001 99.7 78.7001 109.6C75.6001 119.7 68.8001 126.6 62.1001 133.3C53.7001 141.8 45.7001 149.9 45.1001 163.9C44.0001 188.3 53.4001 212.9 62.5001 236.6C69.9001 255.8 77.5001 275.7 79.5001 295.5C81.9001 319.4 81.3001 344.5 80.7001 368.6C80.5001 379.1 80.2001 390.1 80.2001 400.7Z" fill="white"/>
<path d="M53.8 400.7H52.8C52.8 389.8 53 378.7 53.1 368C53.5 344.2 53.9 319.7 52.4 295.8C51.3 277.6 46.5 259.4 41.9 241.8C36.5 221 30.9 199.6 31.2 178C31.4 164 36.8 151.8 42 140C46.1 130.5 50.4 120.8 52.1 110.1C55.8 86.1001 54.8 60.0001 53.8 34.8001C53.3 23.5001 52.9 11.7001 52.9 0.600098H53.9C53.9 11.7001 54.4 23.4001 54.8 34.8001C55.8 60.0001 56.9 86.1001 53.1 110.3C51.4 121.1 47.1 130.9 42.9 140.4C37.8 152.1 32.4 164.3 32.2 178.1C31.9 199.6 37.5 221 42.9 241.7C47.5 259.3 52.3 277.6 53.4 295.9C54.9 319.8 54.5 344.4 54.1 368.2C54 378.7 53.8 389.9 53.8 400.7Z" fill="white"/>
<path d="M27.4001 400.7H26.4001C26.4001 388.9 26.4001 377 26.5001 365.2C26.6001 342.5 26.7001 319.1 26.4001 296.1C26.2001 279.3 24.5001 262.3 22.8001 245.9C21.0001 228.7 19.1001 210.8 19.1001 193.2C19.1001 178.5 21.0001 163.7 22.8001 149.4C24.4001 136.8 26.1001 123.8 26.4001 110.9C27.1001 86.5 26.8001 61.7 26.6001 37.6C26.5001 25.4 26.4001 12.9 26.4001 0.5H27.4001C27.4001 12.8 27.5001 25.4 27.6001 37.6C27.8001 61.7 28.1001 86.5 27.4001 110.9C27.0001 123.9 25.4001 136.9 23.8001 149.5C22.0001 163.7 20.1001 178.5 20.1001 193.1C20.1001 210.7 22.0001 228.5 23.8001 245.7C25.5001 262.2 27.3001 279.2 27.4001 296C27.6001 319 27.5001 342.5 27.5001 365.1C27.5001 377 27.4001 388.9 27.4001 400.7Z" fill="white"/>
</svg>
