<svg width="485" height="340" viewBox="0 0 485 340" fill="none" xmlns="http://www.w3.org/2000/svg">
<path d="M249.6 152.7C190.9 152.7 130.4 152.6 67.3 152.5V151.5C195.1 151.8 312.3 151.8 425.6 151.5V152.5C368.2 152.6 309.8 152.7 249.6 152.7Z" fill="white"/>
<path d="M396.8 160.5C371.4 160.5 345.8 159 320.9 157.6C296.5 156.2 271.2 154.8 246.4 154.7C246 154.7 245.6 154.7 245.2 154.7C219.6 154.7 193.6 156.2 168.4 157.6C134.4 159.5 99.2 161.5 64.7 159.9V158.9C99.1 160.5 134.3 158.5 168.2 156.6C193.4 155.2 219.5 153.7 245.1 153.7C245.5 153.7 245.9 153.7 246.3 153.7C271.1 153.7 296.4 155.2 320.9 156.6C356 158.6 392.4 160.7 427.9 158.6L428 159.6C417.6 160.2 407.2 160.5 396.8 160.5Z" fill="white"/>
<path d="M69.5001 167.4C67.0001 167.4 64.6001 167.4 62.1001 167.3V166.3C94.0001 167.3 125.9 161.5 156.8 155.9C186 150.6 216 145.1 246.3 145.4C275.1 145.6 303.9 150.8 331.8 155.9C363.9 161.7 397.1 167.8 430.2 166.1L430.3 167.1C397.1 168.8 363.8 162.8 331.6 156.9C303.7 151.8 274.9 146.6 246.2 146.4C216.2 146.2 186 151.6 156.9 156.9C128.5 162.1 99.0001 167.4 69.5001 167.4Z" fill="white"/>
<path d="M59.5 174.8V173.8C90.8 172.9 120.9 161.8 150 151C180.9 139.6 212.9 127.7 246.3 128.1C278.5 128.5 309.2 139.9 338.9 150.9C369 162.1 400.2 173.6 432.8 173.6V174.6C400 174.5 368.7 163 338.5 151.8C308.9 140.8 278.3 129.5 246.2 129.1C213 128.6 181.1 140.5 150.3 151.9C121.1 162.7 90.9 173.9 59.5 174.8Z" fill="white"/>
<path d="M56.7999 182.5L56.7 181.5C86.5 179.3 111.6 166.6 138.3 153.2C143.6 150.5 149.1 147.8 154.6 145.1C158.9 143 163.3 140.8 167.9 138.5C192.1 126.4 219.5 112.6 246.1 113.3C280.5 114.2 311.6 131 341.6 147.4C371.1 163.4 401.5 180 435.3 181.5V182.5C401.3 181 370.8 164.4 341.2 148.3C311.3 132 280.4 115.2 246.2 114.4C219.8 113.7 192.5 127.4 168.4 139.5C163.8 141.8 159.5 144 155.1 146.1C149.6 148.7 144.1 151.5 138.8 154.2C112 167.5 86.6999 180.2 56.7999 182.5Z" fill="white"/>
<path d="M54.1 189.9L54 188.9C85.5 185.3 111.8 168 137.2 151.4C142.4 148 147.7 144.5 153.1 141.1C157.2 138.5 161.4 135.7 165.9 132.8C190.5 116.6 218.3 98.2999 246.1 99.1999C272.9 99.9999 298.9 116.9 321.9 131.8C325.9 134.4 329.7 136.8 333.4 139.2C339.4 143 345.4 146.9 351.2 150.8C377.6 168.3 405 186.3 437.8 189L437.7 190C404.6 187.3 377.2 169.2 350.6 151.6C344.8 147.8 338.8 143.8 332.8 140C329.1 137.7 325.3 135.2 321.3 132.6C298.5 117.8 272.6 101 246.1 100.2C218.6 99.2999 191 117.6 166.5 133.7C162 136.6 157.8 139.4 153.7 142C148.4 145.4 143 148.9 137.8 152.3C112.2 168.9 85.9 186.2 54.1 189.9Z" fill="white"/>
<path d="M440 197.3C404.7 193.3 376.9 170.5 350 148.4C343.9 143.4 337.7 138.3 331.5 133.5C328.2 131 324.8 128.2 321.2 125.4C299.6 108.2 272.8 86.6999 245.9 86.0999C217.6 85.4999 189.2 108.4 166.4 126.9C162.3 130.2 158.5 133.3 154.8 136.1C149.1 140.5 143.3 145.2 137.7 149.8C112 170.7 85.4 192.4 51.6 197.4L51.5 196.4C85.1 191.5 111.6 169.9 137.2 149.1C142.8 144.6 148.6 139.8 154.3 135.4C158 132.6 161.8 129.5 165.9 126.2C188.9 107.7 217.5 84.5999 246.1 85.1999C273.4 85.7999 300.3 107.4 322 124.7C325.6 127.6 329 130.3 332.3 132.8C338.5 137.6 344.8 142.7 350.8 147.7C377.6 169.7 405.3 192.5 440.3 196.4L440 197.3Z" fill="white"/>
<path d="M442.3 204.8C405.2 199.2 377.5 172 350.7 145.7C344.5 139.6 338.6 133.8 332.6 128.3C329.5 125.4 326.2 122.3 322.7 118.9C301 98.1002 273.9 72.2002 245.7 71.6002C216.1 71.0002 187.4 98.7002 164.4 121C160.5 124.8 156.7 128.4 153.2 131.6C147.7 136.7 142.1 142.2 136.6 147.5C111 172.4 84.6001 198.2 48.8001 204.8L48.6001 203.8C84.1001 197.3 110.4 171.6 135.9 146.8C141.3 141.5 146.9 136 152.5 130.9C156 127.7 159.7 124.1 163.7 120.3C186.6 98.2002 215 70.7002 244.7 70.7002C245 70.7002 245.4 70.7002 245.7 70.7002C274.4 71.3002 301.6 97.3002 323.4 118.3C326.9 121.6 330.2 124.8 333.3 127.7C339.3 133.3 345.2 139 351.4 145.1C378 171.3 405.6 198.4 442.4 203.9L442.3 204.8Z" fill="white"/>
<path d="M444.7 212.2C406.2 205.2 379.2 174.3 353.2 144.4C347.5 137.8 342.1 131.6 336.5 125.7C333.3 122.3 329.9 118.5 326.4 114.5C304.3 89.5999 276.7 58.6999 245.6 57.4999C214.1 56.2999 183.1 91.4999 160.5 117.2C156.5 121.7 152.7 126 149.3 129.7C144.4 135 139.5 140.5 134.4 146.3C109.2 174.8 83.2 204.3 46.2 212.1L46 211.1C82.7 203.3 108.6 173.9 133.6 145.6C138.7 139.8 143.5 134.3 148.5 129C151.9 125.3 155.7 121 159.7 116.5C182.4 90.6999 213.5 55.2999 245.6 56.4999C277.1 57.6999 304.9 88.7999 327.1 113.8C330.7 117.8 334 121.6 337.2 125C342.7 131 348.1 137.2 353.9 143.7C379.8 173.4 406.7 204.2 444.9 211.2L444.7 212.2Z" fill="white"/>
<path d="M447 219.6C406.6 210.9 378.7 174.2 354 141.9C348.4 134.5 343.1 127.6 337.7 121C334.6 117.2 331.4 113 327.9 108.6C306.9 81.7001 278.2 44.8001 245.4 43.6001C244.9 43.6001 244.4 43.6001 243.9 43.6001C211.3 43.6001 180.9 83.2001 158.6 112.2C154.7 117.2 151.1 122 147.8 126C143 131.9 138.3 137.9 133.4 144.3C109.5 175.2 82.4999 210.2 43.5999 219.6L43.3999 218.6C81.8999 209.3 108.8 174.4 132.6 143.7C137.6 137.3 142.3 131.2 147 125.3C150.3 121.3 153.9 116.6 157.7 111.6C180.1 82.4001 210.8 42.6001 243.8 42.6001C244.3 42.6001 244.8 42.6001 245.4 42.6001C278.7 43.9001 307.6 80.9001 328.7 108C332.2 112.5 335.4 116.7 338.5 120.4C343.9 127 349.2 134 354.8 141.4C379.3 173.6 407.2 210.1 447.2 218.7L447 219.6Z" fill="white"/>
<path d="M449.4 227C407 216.3 378.7 174.1 353.7 136.8C347.8 128 342.3 119.7 336.7 112.1C333.8 108.1 330.5 103.3 327.1 98.4001C306.6 68.5001 278.4 27.5001 245.2 27.1001C245 27.1001 244.8 27.1001 244.7 27.1001C210.3 27.1001 179.4 72.8001 158.9 103.1C155.3 108.5 151.8 113.5 148.8 117.8C144 124.5 139.1 131.6 134 139.2C109.7 175.1 82.1001 215.8 40.9001 227.1L40.6001 226.1C81.4001 214.9 108.9 174.4 133.1 138.6C138.2 131.1 143 123.9 147.9 117.2C150.9 113 154.4 107.9 158 102.5C178.6 72.0001 209.7 26.1001 244.7 26.1001C244.9 26.1001 245.1 26.1001 245.2 26.1001C278.9 26.6001 307.2 67.8001 327.9 97.8001C331.3 102.8 334.6 107.5 337.5 111.5C343.1 119.2 348.7 127.5 354.6 136.3C379.5 173.4 407.7 215.4 449.7 226.1L449.4 227Z" fill="white"/>
<path d="M451.8 234.5C407.5 221.6 379.4 174.8 354.7 133.5C348.9 123.9 343.5 114.8 338 106.5C335.2 102.2 332.1 97.1002 328.7 91.7002C309.3 60.1002 280 12.4002 245.1 12.1002C245 12.1002 244.9 12.1002 244.8 12.1002C208.6 12.1002 177.6 63.3002 157.1 97.3002C153.6 103.2 150.2 108.7 147.3 113.2C142.6 120.4 137.9 128.2 132.9 136.4C108.7 176.3 81.3 221.5 38.3 234.6L38 233.6C80.7 220.6 108 175.6 132.1 135.9C137.1 127.7 141.8 120 146.5 112.7C149.4 108.2 152.8 102.7 156.3 96.8002C176.9 62.7002 208.1 11.2002 244.8 11.2002C244.9 11.2002 245 11.2002 245.1 11.2002C280.6 11.5002 310.1 59.5002 329.6 91.3002C332.9 96.7002 336.1 101.8 338.8 106.1C344.3 114.5 349.7 123.5 355.5 133.2C380.2 174.3 408.2 221 452.1 233.7L451.8 234.5Z" fill="white"/>
<path d="M454.1 242C408.1 227.7 380.2 176.9 355.5 132C349.8 121.7 344.5 111.9 339.1 103.1C336.4 98.6 333.4 93.3 330.2 87.6C310.8 53.2 281.5 1.1 244.8 1H244.7C221.6 1 202.4 26.1 189.7 42.8L188.8 44C173.7 63.8 160.7 85.6 148.1 106.7L145.7 110.8C141.1 118.4 136.6 126.7 131.7 135.4C107.6 178.8 80.2999 228 35.5 242.1L35.2 241.1C79.6 227.1 106.8 178.1 130.8 134.9C135.6 126.2 140.2 117.9 144.8 110.3L147.2 106.2C159.8 85.1 172.8 63.2 188 43.4L188.9 42.2C201.7 25.4 221.1 0 244.7 0H244.8C282.1 0.1 311.6 52.5 331.1 87.1C334.3 92.8 337.3 98.2 340 102.6C345.4 111.5 350.7 121.2 356.4 131.6C380.9 176.3 408.8 227 454.4 241.1L454.1 242Z" fill="white"/>
<path d="M32.8 249.6L32.5 248.6C76.7 236.6 103.7 189.7 127.5 148.4C132.2 140.2 136.7 132.5 141.2 125.2C144.3 120.2 147.8 114.1 151.5 107.5C172.9 70.1 205.2 13.7 244.6 14.6C283.6 15.5 314 67.4 334.1 101.7C337.4 107.4 340.6 112.8 343.5 117.4C348.5 125.5 353.6 134.4 359 143.8C383.7 187.1 411.8 236.1 456.8 248.6L456.5 249.6C411.1 237 382.9 187.8 358.1 144.4C352.7 135 347.7 126.2 342.6 118.1C339.7 113.5 336.6 108.1 333.2 102.4C313.2 68.3 283 16.6 244.6 15.8C205.7 15 173.6 71.1 152.4 108.2C148.7 114.7 145.1 120.9 142.1 125.9C137.6 133.1 133.2 140.9 128.5 149C104.5 190.4 77.4 237.4 32.8 249.6Z" fill="white"/>
<path d="M30.0999 257L29.8999 256C72.9999 245.8 101 203.1 125.7 165.4C130.7 157.8 135.4 150.6 140.1 143.8C143.5 139 147.2 133.2 151.2 127C173.1 93.3998 206 42.7998 243.8 42.7998C244 42.7998 244.2 42.7998 244.4 42.7998C282.1 43.3998 312.3 88.5998 334.3 121.7C337.8 127 341.1 131.9 344.2 136.3C349.6 144 355 152.3 360.7 161.1C386.3 200.4 415.2 245 459.1 256L458.9 257C414.6 245.9 385.6 201.2 359.9 161.7C354.2 152.9 348.8 144.6 343.4 137C340.3 132.6 337 127.6 333.5 122.4C311.6 89.4998 281.7 44.4998 244.4 43.9998C206.9 43.3998 173.9 94.1998 152 127.8C148 134 144.2 139.8 140.8 144.6C136.1 151.4 131.4 158.6 126.4 166.2C101.7 203.8 73.5999 246.7 30.0999 257Z" fill="white"/>
<path d="M27.4 264.6L27.2 263.6C69.7999 254.3 99.1 214.4 125 179.1C130.7 171.4 136 164.1 141.4 157.2C144.8 152.8 148.6 147.7 152.7 142.2C176.2 110.5 208.3 67 244.3 66.5C244.5 66.5 244.7 66.5 244.8 66.5C279.6 66.5 311.8 109.3 333.2 137.7C336.5 142.1 339.7 146.3 342.6 150C348.8 157.8 354.8 166.2 361.3 175C387.9 211.6 418.1 253.1 461.5 263.4L461.3 264.4C417.5 254 387.2 212.4 360.5 175.6C354.1 166.8 348 158.4 341.8 150.6C338.9 146.9 335.8 142.7 332.4 138.3C311.1 110.1 279.1 67.5 244.8 67.5C244.6 67.5 244.5 67.5 244.3 67.5C208.8 68 176.8 111.2 153.5 142.8C149.5 148.3 145.7 153.4 142.2 157.8C136.8 164.7 131.5 172 125.8 179.7C99.7999 215.1 70.3 255.2 27.4 264.6Z" fill="white"/>
<path d="M24.7 272L24.5 271C66 263.2 96.3 227.3 123 195.7C129 188.7 134.6 182 140.3 175.6C144.1 171.4 148.1 166.6 152.5 161.5C176.5 133.3 209.3 94.5999 244.1 93.9999C277.9 93.3999 309.9 130.4 333.2 157.4C336.8 161.5 340.1 165.4 343.2 168.9C349.7 176.2 356.2 183.8 363 192C390.5 224.8 421.6 262 463.8 271L463.6 272C421.1 262.9 389.8 225.6 362.2 192.7C355.4 184.6 349 176.9 342.4 169.6C339.3 166.1 335.9 162.2 332.3 158.1C309.3 131.5 277.8 95.0999 244.7 95.0999C244.5 95.0999 244.2 95.0999 244 95.0999C209.7 95.6999 177.1 134.1 153.2 162.2C148.9 167.3 144.8 172.1 141 176.3C135.3 182.7 129.7 189.3 123.7 196.4C96.9 228 66.5 264 24.7 272Z" fill="white"/>
<path d="M21.9 279.5L21.7 278.5C62.6 272.2 93.1 241.3 122.5 211.3C129.1 204.6 135.3 198.3 141.6 192.3C145.4 188.7 149.5 184.6 153.8 180.3C179.1 154.9 210.7 123.4 243.8 123.3H243.9C277.9 123.3 309.6 154.7 335 180C339 183.9 342.7 187.7 346.3 191.1C352.8 197.3 359.2 203.8 365.9 210.6C395.2 240.4 425.5 271.2 466 278.5L465.8 279.5C425 272.1 394.6 241.2 365.1 211.3C358.4 204.5 352 198 345.5 191.8C341.9 188.4 338.2 184.6 334.2 180.7C308.9 155.6 277.4 124.3 243.8 124.3H243.7C211 124.4 179.6 155.8 154.4 181C150.1 185.3 146 189.4 142.2 193C135.9 199 129.7 205.3 123.1 212C93.6999 242.1 63.2 273.2 21.9 279.5Z" fill="white"/>
<path d="M19.2001 287L19.1001 286C59.0001 280.8 90.4001 253.7 120.7 227.5C127.3 221.8 134 216 140.7 210.5C144.9 207.1 149.3 203.3 154 199.3C179.7 177.3 211.7 150 243.7 149.8C243.8 149.8 243.9 149.8 244.1 149.8C277 149.8 309.2 177 335.1 198.9C339.4 202.5 343.4 205.9 347.2 209C354.1 214.6 361.1 220.7 367.9 226.5C398 252.5 429.2 279.5 468.6 285.8L468.4 286.8C428.7 280.4 397.4 253.4 367.2 227.3C360.4 221.5 353.4 215.4 346.6 209.8C342.7 206.6 338.7 203.2 334.4 199.6C308.6 177.8 276.6 150.7 244.1 150.7C244 150.7 243.9 150.7 243.7 150.7C212.1 150.9 180.2 178.1 154.6 199.9C149.9 203.9 145.5 207.7 141.3 211.1C134.6 216.5 127.9 222.4 121.3 228C90.9001 254.6 59.4001 281.8 19.2001 287Z" fill="white"/>
<path d="M16.4999 294.4L16.3999 293.4C55.2999 289.7 87.4999 266.9 118.7 244.9C125.5 240.1 132.6 235.1 139.6 230.4C144.2 227.3 148.9 224 153.9 220.5C181.2 201.4 212.2 179.8 243.4 179.5C243.6 179.5 243.8 179.5 244 179.5C275.9 179.5 307.2 201.1 334.8 220.1C339.3 223.2 343.5 226.1 347.7 228.9C355 233.8 362.4 239 369.5 244C400.5 265.9 432.5 288.5 470.8 293.3L470.7 294.3C432.2 289.5 400.1 266.8 369 244.9C361.9 239.9 354.5 234.7 347.2 229.8C343 227 338.8 224.1 334.3 221C306.7 201.9 275.3 180.3 243.5 180.5C212.7 180.8 181.8 202.3 154.6 221.3C149.6 224.8 144.8 228.1 140.2 231.2C133.2 235.9 126.1 240.9 119.3 245.7C87.9999 267.8 55.5999 290.6 16.4999 294.4Z" fill="white"/>
<path d="M472.9 301.6C435.6 299 402.4 281.3 370.3 264.1C362.1 259.7 353.7 255.2 345.3 251C341 248.8 336.6 246.6 332.1 244.2C304.8 230.1 273.9 214.2 243.3 214.6C212.1 215.1 180.4 231.8 152.4 246.5C146.9 249.4 141.7 252.1 136.5 254.8C129.5 258.3 122.5 262 115.7 265.7C83.9999 282.5 51.1999 300 13.8999 301.5V300.5C50.9999 299 83.6999 281.6 115.3 264.8C122.1 261.2 129.1 257.5 136.1 253.9C141.3 251.3 146.5 248.5 152 245.6C180.1 230.8 211.9 214 243.4 213.6C274.3 213.1 305.3 229.1 332.7 243.3C337.3 245.7 341.6 247.9 345.9 250.1C354.3 254.3 362.7 258.8 370.9 263.2C402.9 280.3 436 298 473.1 300.6L472.9 301.6Z" fill="white"/>
<path d="M475.2 309C435.4 308.3 397.6 293.2 361 278.6C323.3 263.5 284.3 248 243.1 248.3C203.2 248.7 165.3 263.8 128.7 278.5C91.5 293.4 53.2 308.8 12.5 308.8C12.1 308.8 11.6 308.8 11.2 308.8V307.8C52.2 308.1 90.8999 292.6 128.3 277.6C165 262.9 202.9 247.7 243.1 247.3C284.5 247 323.6 262.6 361.4 277.7C397.9 292.3 435.6 307.3 475.2 308V309Z" fill="white"/>
<path d="M472.2 316.6C433.5 316.6 395.3 307.1 358.3 297.9C321.3 288.7 283 279.1 244.3 279.1C243.8 279.1 243.4 279.1 242.9 279.1C205 279.3 167.5 288.7 131.3 297.8C91.3999 307.8 50.1999 318.1 8.3999 316.2V315.2C49.9999 317.1 91.1999 306.7 130.9 296.8C167.2 287.7 204.8 278.3 242.8 278.1C282.1 277.8 321 287.5 358.5 296.9C397.1 306.5 437.1 316.5 477.4 315.5V316.5C475.8 316.5 474 316.6 472.2 316.6Z" fill="white"/>
<path d="M462.8 324.5C426 324.5 389 319.7 353 315.1C317.1 310.5 279.9 305.7 243.2 305.7C243 305.7 242.9 305.7 242.7 305.7C206.9 305.7 170.5 310.5 135.4 315.1C92.9001 320.6 49.0001 326.4 5.6001 323.8L5.7001 322.8C49.0001 325.4 92.9001 319.6 135.3 314.1C170.5 309.5 206.8 304.8 242.7 304.7C242.9 304.7 243 304.7 243.2 304.7C280 304.7 317.2 309.5 353.1 314.1C394.6 319.4 437.5 324.9 479.9 323.1V324.1C474.2 324.3 468.5 324.5 462.8 324.5Z" fill="white"/>
<path d="M443.8 332.5C409.2 332.5 374.5 331 340.6 329.5C308.4 328.1 275.2 326.7 242.5 326.5C208.8 326.4 174.5 327.9 141.3 329.4C95.9 331.5 48.9 333.6 2.80005 331.4V330.4C48.8 332.6 95.8001 330.4 141.2 328.4C174.4 326.9 208.7 325.3 242.4 325.5C275 325.6 308.3 327.1 340.5 328.5C387 330.5 435.1 332.6 482.2 330.8V331.8C469.6 332.3 456.7 332.5 443.8 332.5Z" fill="white"/>
<path d="M237.3 339.6C155.9 339.6 77.2 339.5 0 339.4V338.4C152.8 338.7 311.4 338.7 484.8 338.4V339.4C399 339.6 316.9 339.6 237.3 339.6Z" fill="white"/>
</svg>
