<svg width="405" height="357" viewBox="0 0 405 357" fill="none" xmlns="http://www.w3.org/2000/svg">
<path d="M130.1 356.712C119.4 356.712 109 354.812 99.4 349.712C82.2 340.512 70.3 322.312 59.8 306.312C57.4 302.712 55.2 299.312 52.9 296.012C48.3 289.312 43.1 282.512 38.1 275.912C19.4 251.312 0 225.912 0 193.612C0 160.212 16.6 134.412 53.7 110.012C76.9 94.7118 99.9 82.7118 122 74.3118C148.5 64.2118 163.2 52.0118 180.3 26.0118C197.6 -0.48818 210.7 -3.08818 241.1 2.31182C245.5 3.11182 249.9 3.81182 254.1 4.51182C286.3 9.91182 316.6 15.0118 341.1 38.7118C365.3 62.2118 375.3 94.3118 385 125.412C385.9 128.412 386.9 131.512 387.8 134.512C389.7 140.512 391.9 146.312 394.1 151.812C399.4 165.412 404.4 178.212 404.5 193.512C404.6 231.012 379.7 274.612 345.2 297.212C325.8 309.912 303.9 314.412 283.3 317.912C257.6 322.312 232.7 330.312 208.6 338.112C202.4 340.112 195.9 342.212 189.6 344.212L187.9 344.712C170.1 350.312 149.6 356.712 130.1 356.712ZM219.7 1.01182C203.5 1.01182 193.6 7.51182 181.1 26.6118C163.9 52.8118 149.1 65.1118 122.4 75.3118C100.4 83.7118 77.5 95.6118 54.3 110.912C17.5 135.112 1.1 160.712 1.1 193.712C1.1 225.612 20.4 250.912 39 275.412C44 282.012 49.2 288.812 53.8 295.512C56.1 298.812 58.3 302.212 60.7 305.812C71.6 322.512 83 339.812 100 348.912C126.5 363.012 160.4 352.412 187.6 343.912L189.3 343.412C195.6 341.412 202.1 339.312 208.3 337.312C232.4 329.512 257.3 321.512 283.1 317.112C303.7 313.612 325.4 309.212 344.6 296.512C378.9 274.112 403.6 230.812 403.5 193.712C403.4 178.612 398.5 165.812 393.2 152.312C391 146.712 388.7 140.912 386.8 134.912C385.8 131.912 384.9 128.912 384 125.812C374.4 94.9118 364.4 62.9118 340.4 39.6118C316.1 16.1118 285.9 11.0118 253.9 5.61182C249.6 4.91182 245.2 4.11182 240.8 3.41182C232.6 1.91182 225.7 1.01182 219.7 1.01182Z" fill="white"/>
<path d="M137.4 343.812C126.2 343.812 115.3 341.812 105.5 336.412C89.2999 327.412 78.4999 311.212 68.0999 295.612C66.5999 293.412 65.1999 291.212 63.7999 289.112C59.7999 283.212 55.5999 277.512 51.0999 271.512C33.8999 248.212 16.0999 224.112 14.8999 194.912C13.4999 160.212 36.1999 140.412 60.8999 124.212C79.8999 111.712 99.5999 100.812 119.4 91.7118C148.1 78.5118 163 63.0118 180.5 38.9118C196.7 16.6118 211.1 11.3118 235.4 18.5118L240.7 20.1118C271.5 29.2118 303.4 38.6118 327.4 62.2118C347.2 81.7118 357.1 104.912 367.7 129.512C369.6 134.012 371.7 138.712 373.7 143.412C374.4 145.012 375.1 146.512 375.8 148.012C382.5 163.012 388.9 177.212 389 194.912C389.1 213.212 383.6 233.712 373.6 252.412C363.6 271.212 349.6 287.112 334.3 297.112C316.1 309.012 296.6 311.512 276.1 314.212L272.6 314.612C252.1 317.212 231.9 323.012 212.3 328.612C205 330.712 197.5 332.812 190.1 334.712L188.7 335.112C172.8 339.112 154.7 343.812 137.4 343.812ZM217.4 16.4118C203.3 16.4118 192.8 23.5118 181.2 39.4118C163.6 63.6118 148.6 79.3118 119.7 92.5118C99.8999 101.612 80.2999 112.512 61.3999 124.912C19.9999 152.012 15.0999 174.512 15.8999 194.712C17.0999 223.712 34.7999 247.612 51.8999 270.812C56.1999 276.612 60.5999 282.612 64.5999 288.512C65.9999 290.612 67.4999 292.812 68.9999 295.012C79.3999 310.612 90.0999 326.712 106.1 335.512C130.6 349.112 162.7 340.712 188.5 333.912L189.9 333.512C197.3 331.612 204.8 329.412 212 327.412C231.6 321.812 251.9 316.012 272.4 313.412L275.9 313.012C296.3 310.412 315.6 307.912 333.7 296.112C364.8 275.712 388.1 232.212 388 194.812C387.9 177.312 381.9 163.912 374.9 148.312C374.2 146.812 373.5 145.212 372.8 143.712C370.7 139.112 368.7 134.412 366.8 129.812C356.3 105.312 346.4 82.1118 326.8 62.8118C303 39.4118 271.2 30.0118 240.5 20.9118L235.2 19.3118C228.5 17.4118 222.7 16.4118 217.4 16.4118Z" fill="white"/>
<path d="M150.3 330.312C137.2 330.312 124 328.212 112.5 321.712C98 313.512 87.4 298.512 78.2 285.312C77.2 283.912 76.3 282.512 75.3 281.212C71.9 276.412 68.3 271.712 64.5 266.612C49.2 246.212 31.8 223.212 28.8 197.812C25.5 169.612 44.3 154.712 67.3 139.612C82.2 129.812 98 121.312 113.4 113.112C117.9 110.712 122.5 108.312 127 105.812C148.7 94.0118 163.5 76.4118 179.2 57.7119L181.1 55.4118C198.6 34.5118 215 30.0118 239.5 39.1118C272.7 51.5118 297.6 66.0118 315.6 83.4118C330.2 97.5118 344.5 116.412 354.9 135.512C367.1 157.912 373.5 179.412 373.5 197.812C373.4 237.512 352.8 278.812 323.3 298.112C307 308.812 290 310.912 271.1 312.412C251.7 313.912 232.3 317.712 213.6 321.412C206.3 322.812 198.8 324.312 191.4 325.612C179.2 327.712 164.7 330.312 150.3 330.312ZM217.9 35.7119C204.5 35.7119 193.4 42.2118 181.7 56.1118L179.8 58.4118C164 77.2118 149.2 94.9118 127.3 106.812C122.8 109.312 118.2 111.712 113.7 114.112C98.4 122.312 82.6 130.712 67.7 140.512C45 155.512 26.4 170.112 29.7 197.712C32.7 222.812 50 245.812 65.2 266.012C69 271.012 72.6 275.812 76 280.612C77 282.012 77.9 283.312 78.9 284.712C88.6 298.512 98.6 312.712 112.9 320.812C136.8 334.212 168.1 328.612 191 324.612C198.4 323.312 205.9 321.812 213.2 320.412C232 316.712 251.4 312.912 270.8 311.412C289.5 309.912 306.4 307.812 322.5 297.312C351.8 278.212 372.2 237.312 372.3 197.812C372.3 169.912 354.3 122.412 314.7 84.2118C296.7 66.9118 272 52.5119 238.9 40.2119C231.3 37.2119 224.3 35.7119 217.9 35.7119Z" fill="white"/>
<path d="M178.8 317.512C137.9 317.512 111.5 304.212 87.2999 272.412C84.0999 268.112 80.5999 263.812 76.8999 259.212C62.9999 242.012 47.1999 222.412 41.8999 202.012C36.1999 179.912 54.3999 168.012 70.5999 157.512C71.4999 156.912 72.3999 156.412 73.1999 155.812C82.4999 149.712 92.1999 144.212 101.7 138.812C109.3 134.412 117.2 129.912 124.8 125.212C143.6 113.412 158.3 98.5118 173.8 82.7118C176.4 80.0118 179 77.4118 181.7 74.7118C212 44.3118 253.6 53.6118 305.1 102.212C329.2 124.912 357.8 160.612 357.8 201.812C357.7 235.812 343.6 279.212 312.1 299.812C295.6 310.612 279.2 311.212 260.1 311.912C246.6 312.412 232.8 313.612 219.5 314.812C210.8 315.612 201.7 316.412 193 316.912C188.1 317.312 183.3 317.512 178.8 317.512ZM221.6 58.3118C207 58.3118 193.9 64.0118 182.5 75.5118C179.9 78.2118 177.2 80.8118 174.6 83.5118C159 99.3118 144.3 114.312 125.4 126.112C117.8 130.912 109.9 135.412 102.3 139.712C92.8999 145.112 83.0999 150.612 73.8999 156.712C72.9999 157.312 72.1999 157.812 71.2999 158.412C55.3999 168.712 37.4999 180.412 42.9999 201.812C48.2999 222.012 63.8999 241.512 77.7999 258.612C81.4999 263.212 84.9999 267.512 88.1999 271.812C112.1 303.312 138.3 316.512 178.9 316.512C183.4 316.512 188.1 316.312 193 316.012C201.8 315.412 210.8 314.612 219.5 313.912C232.8 312.712 246.6 311.512 260.2 311.012C279.1 310.312 295.5 309.712 311.7 299.112C342.9 278.712 356.9 235.612 356.9 201.912C357 161.012 328.5 125.612 304.6 103.012C272.9 73.2118 245.2 58.3118 221.6 58.3118Z" fill="white"/>
<path d="M252.5 313.012C239.2 313.012 225.6 311.612 213.3 310.312C206.8 309.612 200.7 309.012 195.1 308.612C153.9 305.712 124.5 291.712 99.8 263.112C96 258.712 92 254.312 87.7 249.612C75.2 236.112 62.3 222.012 54.8 207.012C47.3 191.812 62.9 182.212 74.3 175.212C76 174.112 77.7 173.112 79.2 172.112C118.5 146.312 151.4 122.012 182.6 95.6118C200.8 80.2118 220.2 76.0118 241.8 82.9118C262.8 89.6118 282.8 106.412 296 118.412C320.1 140.312 342.4 166.212 342.3 206.712C342.3 238.212 331.4 282.012 301.1 301.812C287.8 310.512 270.4 313.012 252.5 313.012ZM222.3 80.8118C208.5 80.8118 195.6 86.0118 183.3 96.4118C152 122.812 119.1 147.212 79.8 173.012C78.3 174.012 76.6 175.012 74.9 176.112C63.2 183.312 48.6 192.212 55.8 206.612C63.2 221.512 76.1 235.512 88.5 249.012C92.8 253.712 96.9 258.112 100.7 262.512C125.2 290.912 154.3 304.912 195.3 307.712C200.9 308.112 207 308.712 213.5 309.412C242.1 312.312 277.8 316.012 300.8 301.012C330.8 281.412 341.5 238.012 341.5 206.812C341.6 166.712 319.4 141.012 295.5 119.312C282.4 107.412 262.5 90.7118 241.7 84.1118C234.9 81.9118 228.5 80.8118 222.3 80.8118Z" fill="white"/>
<path d="M258.1 310.812C241.2 310.812 223.1 306.512 208.3 303.012C204.4 302.112 200.7 301.212 197.2 300.412C164.9 293.412 137.1 278.112 112.4 253.712C105.2 246.612 97.3999 239.612 89.6999 232.712C82.1999 225.912 74.3999 219.012 67.5999 212.212C65.3999 210.012 64.3999 207.712 64.7999 205.312C65.6999 198.812 75.3999 193.312 81.8999 189.612C83.3999 188.712 84.7999 188.012 85.6999 187.312C111.4 170.512 136.1 152.112 159.9 134.312C167.6 128.612 175.6 122.612 183.5 116.812C206.9 99.6118 235 97.8118 262.6 111.812C299.3 130.412 326.9 173.312 326.8 211.712C326.8 229.112 324 246.912 318.9 261.912C312.5 280.912 302.8 294.612 290.2 302.812C281.1 308.712 269.9 310.812 258.1 310.812ZM197.4 299.512C200.9 300.312 204.6 301.112 208.5 302.112C235 308.412 267.9 316.112 289.7 302.012C302.1 294.012 311.6 280.412 318 261.712C323 246.812 325.8 229.212 325.9 211.912C326 173.912 298.6 131.412 262.2 112.912C235 99.1118 207.3 100.912 184.2 117.812C176.3 123.612 168.3 129.612 160.6 135.312C136.7 153.112 112 171.512 86.2999 188.312C85.2999 188.912 83.9999 189.712 82.3999 190.612C76.0999 194.212 66.5999 199.612 65.7999 205.512C65.4999 207.612 66.3999 209.612 68.2999 211.612C75.0999 218.312 82.4999 225.012 90.3999 232.112C97.9999 238.912 105.9 246.012 113.1 253.112C137.7 277.312 165.3 292.512 197.4 299.512Z" fill="white"/>
<path d="M256.8 307.112C239.1 307.112 219.3 299.612 204.6 294.112C202.7 293.412 200.9 292.712 199.1 292.112C171.9 282.112 147.6 264.212 124.1 247.012C110 236.612 95.3999 225.912 80.4999 217.112C78.0999 215.712 76.8999 214.212 76.9999 212.512C77.0999 208.812 83.1999 205.712 88.6999 203.012C90.5999 202.112 92.2999 201.212 93.4999 200.412C107.5 191.412 121.3 181.312 134.7 171.512C150.9 159.712 167.6 147.512 184.3 137.512C217.3 117.712 249 119.312 278.4 142.312C300.8 159.812 311.9 184.812 311.2 216.612C310.7 241.012 305.9 284.512 279.2 301.412C272.7 305.512 265 307.112 256.8 307.112ZM229.3 124.612C214.9 124.612 200.1 129.112 185 138.212C168.3 148.212 151.6 160.412 135.5 172.212C122.1 182.012 108.2 192.112 94.1999 201.112C92.8999 201.912 91.1999 202.812 89.2999 203.812C84.3999 206.312 78.2999 209.412 78.1999 212.512C78.1999 213.712 79.1999 215.012 81.1999 216.212C96.1999 225.012 110.8 235.712 124.9 246.112C148.3 263.312 172.5 281.112 199.6 291.112C201.3 291.712 203.2 292.412 205.1 293.112C226.4 301.112 258.6 313.212 278.9 300.412C305.2 283.712 310 240.612 310.5 216.412C311.1 184.912 300.2 160.212 278.1 142.912C262.3 130.712 246 124.612 229.3 124.612Z" fill="white"/>
<path d="M250.9 300.312C233.4 300.312 213.8 290.112 200.8 283.312C186.6 275.912 173.6 266.212 161.1 256.912C140 241.112 120 226.312 94.2999 221.012C92.3999 220.612 90.8999 220.112 89.4999 219.512L88.8999 219.212L89.3999 218.712C93.2999 214.812 99.1999 211.312 104.9 208.012C107.7 206.412 110.4 204.912 112.7 203.312C120.4 198.212 128.2 192.812 135.8 187.512C151.9 176.312 168.5 164.812 185.2 155.812C194.7 150.712 209.5 144.112 225.9 141.912C242.5 139.712 256.8 142.512 268.4 150.212C289.7 164.412 296.5 196.812 295.9 220.212C294.8 260.112 285.5 285.612 268.4 295.812C263 299.012 257.1 300.312 250.9 300.312ZM90.4999 218.812C91.5999 219.212 92.8999 219.612 94.3999 219.912C120.4 225.212 140.4 240.212 161.6 256.012C174.1 265.312 187 275.012 201.2 282.312C218.7 291.412 248 306.712 267.8 294.912C284.6 284.812 293.7 259.712 294.8 220.112C295.4 196.912 288.7 164.912 267.8 150.912C256.4 143.312 242.4 140.612 226 142.812C209.7 145.012 195 151.512 185.6 156.612C168.9 165.612 152.3 177.112 136.3 188.312C128.7 193.512 120.9 199.012 113.2 204.112C110.8 205.712 108.2 207.212 105.4 208.812C99.8999 212.012 94.2999 215.212 90.4999 218.812Z" fill="white"/>
<path d="M241.9 289.812C226.6 289.812 210.6 279.612 201.7 274.012C193 268.512 184.6 261.912 176.4 255.612C155 239.012 134.9 223.312 108.4 223.312C107.1 223.312 105.3 223.212 103.7 222.812L102.7 222.512L103.5 221.912C126.3 204.112 155.4 186.012 185.4 171.012C207.5 160.012 235.5 148.812 256.2 160.812C279.5 174.312 280.5 211.412 280.2 222.512C279.7 243.412 276.8 272.712 257.4 285.312C252.6 288.612 247.3 289.812 241.9 289.812ZM105.1 222.012C106.3 222.212 107.5 222.212 108.5 222.212C135.3 222.212 156.5 238.712 177.1 254.712C185.2 261.012 193.6 267.512 202.3 273.012C211.1 278.612 227 288.612 242 288.612C247.2 288.612 252.3 287.412 257 284.312C276 271.912 278.9 243.012 279.3 222.312C279.6 211.412 278.6 174.712 255.8 161.512C235.6 149.812 207.9 160.812 186 171.712C156.4 186.712 127.7 204.512 105.1 222.012Z" fill="white"/>
<path d="M229.9 274.312C221.4 274.312 211.9 270.912 201.9 264.112C196.9 260.712 191.6 256.812 186.1 252.712C166 237.712 143.2 220.812 124 223.912C122.9 224.112 120.6 224.412 120.1 222.312L120 222.012L120.2 221.812C139.4 205.112 165.3 192.012 185.7 182.412C199.2 176.112 224.3 164.312 243.6 174.512C259.9 183.112 265.1 206.112 264.7 223.312C264.1 246.712 255.8 264.712 242.6 271.512C238.7 273.312 234.4 274.312 229.9 274.312ZM128.6 222.412C147.1 222.412 168 237.912 186.6 251.812C192.1 255.912 197.4 259.812 202.4 263.212C217.6 273.512 231.3 275.912 242.1 270.412C255 263.812 263 246.112 263.6 223.012C264.1 206.212 259 183.512 243.1 175.112C225.7 165.912 204.5 174.412 186.1 183.112C165.8 192.612 140.1 205.712 121 222.212C121.3 222.912 122.1 223.012 123.7 222.812C125.4 222.512 127 222.412 128.6 222.412Z" fill="white"/>
<path d="M220.4 259.612C214.3 259.612 207.7 257.712 200.9 253.912C192 249.012 181.5 244.212 171.3 239.612C158.7 233.912 146.8 228.512 140 223.712C139.5 223.412 139.3 222.912 139.4 222.312C140.2 216.112 181.7 194.412 186.7 192.412C204.5 185.212 222.7 185.512 234.2 193.212C243.3 199.312 248 209.312 248.2 223.112C248.4 238.412 243 250.412 233.4 256.212C229.5 258.412 225.1 259.612 220.4 259.612ZM211.9 188.212C204.1 188.212 195.5 189.912 187 193.312C180.9 195.712 141 217.012 140.3 222.412C140.3 222.612 140.3 222.812 140.5 222.912C147.2 227.712 159 233.112 171.6 238.712C181.8 243.312 192.4 248.112 201.3 253.112C213 259.612 224.2 260.412 232.8 255.312C242.1 249.812 247.3 238.012 247.1 223.112C246.9 209.712 242.4 199.912 233.6 194.012C227.9 190.112 220.3 188.212 211.9 188.212Z" fill="white"/>
<path d="M209.4 245.812C205.9 245.812 202.4 245.112 199 243.812C196.3 242.712 193.2 241.612 190 240.412C176.9 235.512 162.1 230.012 157.2 223.512C156.7 222.812 156.6 222.112 156.8 221.212C158.7 214.712 183.9 204.112 188.4 202.412C199.1 198.512 210.9 199.312 219.3 204.512C225.8 208.612 229.8 215.012 230.6 223.012C231.4 230.712 228.8 237.212 223.4 241.412C219.7 244.312 214.7 245.812 209.4 245.812ZM202.4 201.012C197.9 201.012 193.4 201.812 189 203.412C182.6 205.812 159.6 215.812 158 221.512C157.8 222.012 157.9 222.512 158.2 222.912C162.9 229.112 178.2 234.912 190.5 239.512C193.7 240.712 196.8 241.812 199.5 242.912C207.6 246.212 216.9 245.212 223 240.612C228.2 236.712 230.6 230.512 229.8 223.112C229 215.412 225.2 209.212 219 205.412C214.3 202.512 208.4 201.012 202.4 201.012Z" fill="white"/>
<path d="M200.7 234.112C199.4 234.112 198.1 234.012 196.7 233.712C186.8 232.012 177.4 227.412 175.3 223.412C174.7 222.312 174.8 221.212 175.3 220.112C176.9 216.812 183.2 213.912 191.2 212.612C197.6 211.612 204 212.812 208.2 215.812C210.8 217.712 212.5 220.212 212.9 223.112C213.4 226.112 212.5 228.812 210.4 230.812C208.1 233.012 204.7 234.112 200.7 234.112ZM195.7 213.212C194.3 213.212 192.8 213.312 191.3 213.612C183.7 214.812 177.6 217.612 176.2 220.612C175.8 221.412 175.8 222.312 176.2 223.012C178.2 226.812 187.5 231.212 196.9 232.812C202.2 233.712 207 232.712 209.7 230.112C211.5 228.312 212.3 225.912 211.9 223.212C211.5 220.612 210 218.412 207.6 216.612C204.5 214.412 200.3 213.212 195.7 213.212Z" fill="white"/>
<path d="M189.8 343.812L188.8 343.712C189.7 331.212 192.5 319.212 195.2 307.612C196.8 300.912 198.4 294.012 199.6 287.012C203.7 264.112 199 243.812 193.5 223.212L194.5 222.912C200.1 243.612 204.8 264.112 200.7 287.212C199.4 294.212 197.8 301.112 196.3 307.812C193.5 319.512 190.7 331.412 189.8 343.812Z" fill="white"/>
<path d="M298.6 256.812C298.4 256.812 298.3 256.812 298.1 256.812C277 256.712 256.6 247.812 236.8 239.212C222.8 233.112 208.4 226.812 193.9 223.712L194.1 222.712C208.7 225.812 223.2 232.112 237.2 238.212C256.9 246.812 277.3 255.712 298.1 255.812C298.3 255.812 298.4 255.812 298.6 255.812C316.2 255.812 333.3 250.512 349.7 245.312C364 240.812 378.8 236.212 394 235.012L394.1 236.012C379 237.212 364.3 241.812 350.1 246.212C333.5 251.412 316.4 256.812 298.6 256.812Z" fill="white"/>
<path d="M194.4 223.512L193.7 222.812C204.2 212.612 212.9 200.512 221.3 188.712C223.1 186.212 224.8 183.812 226.6 181.312C230.6 175.812 235.1 170.312 239.4 165.012C246.4 156.512 253.6 147.812 259.1 138.412C265.9 126.812 269.3 113.612 272.6 100.912C273.2 98.6119 273.8 96.3119 274.4 94.1119C282 65.7119 291.1 40.0119 302.1 15.4119L303 15.8119C292 40.3119 282.9 66.0119 275.3 94.4119C274.7 96.7119 274.1 98.9119 273.5 101.212C270.2 114.012 266.8 127.212 259.9 138.912C254.3 148.412 247.1 157.212 240.1 165.712C235.8 171.012 231.3 176.412 227.3 181.912C225.5 184.312 223.8 186.812 222 189.312C213.6 201.112 204.9 213.312 194.4 223.512Z" fill="white"/>
<path d="M193.8 223.612C176.8 215.012 162.3 212.112 145.7 210.412L144 210.212C131.1 208.912 121 207.812 111.5 197.512C102.3 187.512 98.9 172.412 95.9 159.012C95.4 156.912 95 154.912 94.5 153.012C90 134.112 85.4 114.612 78.5 95.6119L79.4 95.3119C86.3 114.412 90.9 133.912 95.4 152.812C95.9 154.712 96.3 156.812 96.8 158.812C99.8 172.112 103.1 187.112 112.2 196.912C121.5 206.912 131.4 207.912 144.1 209.212L145.8 209.412C162.5 211.212 177.2 214.112 194.3 222.712L193.8 223.612Z" fill="white"/>
<path d="M10.5 234.712L10.3 233.712C42.6 226.612 71.4001 223.312 100.8 223.312C110.5 223.312 120.3 223.712 129.8 224.012C150.8 224.812 172.5 225.612 193.9 222.612L194 223.612C172.5 226.612 150.8 225.812 129.7 225.012C120.2 224.612 110.4 224.312 100.7 224.312C100.5 224.312 100.4 224.312 100.2 224.312C71.2001 224.412 42.6 227.712 10.5 234.712Z" fill="white"/>
</svg>
