<svg width="494" height="460" viewBox="0 0 494 460" fill="none" xmlns="http://www.w3.org/2000/svg">
<mask id="mask0_201_599" style="mask-type:luminance" maskUnits="userSpaceOnUse" x="104" y="286" width="141" height="122">
<path d="M238.091 386.613C253.68 361.189 237.653 323.003 202.294 301.323C166.936 279.643 125.635 282.679 110.046 308.103C94.4572 333.528 110.484 371.713 145.843 393.393C181.202 415.073 222.503 412.037 238.091 386.613Z" fill="white"/>
</mask>
<g mask="url(#mask0_201_599)">
<path d="M194.16 408.4C172.46 408.4 148.16 399 129.36 381.7C112.16 365.7 102.76 346.1 103.56 327.8C104.16 315.1 109.66 304.4 119.56 296.9C144.16 278.1 188.66 285.3 218.66 313.1C235.86 329.1 245.26 348.7 244.46 367C243.86 379.7 238.36 390.4 228.46 397.9C219.26 405 207.16 408.4 194.16 408.4ZM130.06 380.9C159.76 408.4 203.66 415.6 227.86 397.1C237.46 389.7 242.86 379.3 243.46 366.9C244.26 348.9 235.06 329.6 218.06 313.8C188.36 286.3 144.46 279.1 120.26 297.6C110.66 305 105.26 315.4 104.66 327.8C103.76 345.8 113.06 365.2 130.06 380.9Z" fill="white"/>
</g>
<mask id="mask1_201_599" style="mask-type:luminance" maskUnits="userSpaceOnUse" x="23" y="110" width="385" height="350">
<path d="M89.8599 399.2C94.4599 403.5 108.16 397.8 129.66 381.3C159.56 409 203.66 416.2 228.16 397.5C252.66 378.8 248.26 341.1 218.36 313.5C188.46 285.9 144.36 278.6 119.86 297.3C95.3599 316 99.7599 353.7 129.66 381.3C108.26 397.7 94.4599 403.4 89.8599 399.2C84.8599 394.4 78.4599 387.8 73.7599 382.7C71.0599 379.8 67.7599 375.5 65.2599 372.4C65.1599 372.3 57.2599 362.4 49.8599 349.5C44.4599 340.1 39.9599 330.8 36.1599 321C34.7599 317.4 33.0599 312.5 31.9599 308.8C30.4599 303.7 28.4599 296.8 27.5599 291.5C26.8599 287.7 25.8599 282.6 25.3599 278.8C24.6599 273 23.9599 265.2 23.8599 259.3C23.7599 255.4 23.7599 250.3 24.0599 246.4C24.5599 240.1 25.3599 231.6 26.4599 225.3C27.1599 221.5 28.1599 216.4 29.2599 212.6C31.1599 206.1 33.9599 197.5 36.3599 191.2C39.1599 183.8 44.4599 174.6 48.2599 167.7C54.9599 156.8 63.7599 147 74.7599 138.5C140.26 88.4002 258.26 107.8 338.36 181.9C404.96 243.6 424.36 323.7 391.16 377.7C387.06 383.9 381.36 392.1 376.66 397.8C372.26 403.1 365.86 409.7 360.66 414.3C357.66 417 353.56 420.5 350.36 422.9C345.16 426.7 337.96 431.5 332.46 434.9C323.46 440.4 309.16 446.6 303.16 448.5C298.26 450 291.86 452.3 286.96 453.4C283.16 454.2 278.06 455.5 274.16 456.2C269.66 457 263.56 458 258.96 458.3C251.26 458.8 240.86 459.1 233.16 459.1C228.86 459.1 223.16 458.7 218.96 458.1C215.16 457.6 210.06 457 206.26 456.4C202.26 455.7 196.96 454.7 193.06 453.8C180.66 451 171.26 447.6 168.26 446.5C159.86 443.5 151.96 440.1 144.56 436.5C136.16 432.4 136.16 432.4 121.86 423.7C118.46 421.6 114.06 418.5 110.86 416.2C107.56 413.8 103.46 410.5 100.26 408C96.8599 405.6 92.9599 401.8 89.8599 399.2Z" fill="white"/>
</mask>
<g mask="url(#mask1_201_599)">
<path d="M311.56 435.8C306.06 435.8 300.36 435.2 294.66 434.1C241.06 440.1 178.26 422.6 125.96 384.7C107.16 398.6 94.2597 403.8 89.5597 399.6C84.8597 395.4 88.7597 382.9 100.66 363.4L100.96 362.9L101.36 363.3C109.16 370.6 117.46 377.3 125.96 383.5C127.06 382.7 128.16 381.8 129.36 380.9L129.66 380.6L129.96 380.9C159.66 408.4 203.56 415.6 227.76 397.1L228.06 396.8L228.36 397.1C249.06 416.2 272.46 428.8 294.66 433.1C320.96 430.1 344.96 421.4 364.26 406.6L366.36 405L364.96 407.3C355.36 422.9 340.36 432.6 321.66 435.1C318.46 435.6 315.06 435.8 311.56 435.8ZM298.06 433.7C306.16 435 314.16 435.2 321.66 434.1C339.16 431.7 353.26 423 362.76 409C344.46 422.4 322.26 430.5 298.06 433.7ZM126.86 384.1C177.86 421 239.06 438.5 291.56 433.5C270.26 428.7 247.96 416.4 228.16 398.2C218.96 405.1 207.06 408.4 194.16 408.4C172.66 408.4 148.36 399.1 129.66 382C128.76 382.7 127.76 383.4 126.86 384.1ZM101.26 364.4C90.1597 382.6 86.1597 395.1 90.2597 398.8C92.3597 400.7 99.7597 402.7 125.16 384.1C116.86 378 108.86 371.5 101.26 364.4Z" fill="white"/>
<path d="M217.46 449.4C177.56 449.4 132.66 432.2 98.1597 400.2L98.8597 399.5C153.86 450.4 235.06 463.8 280.06 429.4L280.66 430.2C263.56 443.2 241.36 449.4 217.46 449.4Z" fill="white"/>
<path d="M245.96 459.1C193.16 459.1 133.66 436.2 87.8596 393.9L88.5596 393.2C161.46 460.7 269.36 478.5 328.96 432.9L329.56 433.7C307.06 450.8 277.66 459.1 245.96 459.1Z" fill="white"/>
<path d="M165.76 446C165.16 446 164.56 445.9 163.96 445.7C157.86 443.3 157.36 427.8 162.56 401.9L163.56 402.1C156.46 437.5 161.76 443.7 164.36 444.8C169.36 446.8 178.66 437.3 190.06 418.8L190.96 419.3C180.06 436.8 171.46 446 165.76 446Z" fill="white"/>
<path d="M249.96 459.5C249.16 459.5 248.26 459.5 247.46 459.4C228.56 457.8 210.46 439.1 197.96 408L198.86 407.6C211.26 438.4 229.06 456.9 247.56 458.4C261.36 459.6 274.16 451.2 284.56 434.3L285.46 434.8C275.66 450.8 263.16 459.5 249.96 459.5Z" fill="white"/>
<path d="M311.56 435.8C284.56 435.8 253.96 422.1 227.76 397.9L227.36 397.5L227.86 397.1C237.46 389.7 242.86 379.3 243.46 366.9C244.26 348.9 235.06 329.6 218.06 313.8L217.66 313.4L218.16 313C259.06 281.7 312.86 222.8 338.06 181.7L338.36 181.2L338.76 181.6C361.96 203 379.76 226.8 391.66 252.3C403.06 276.6 408.56 301.8 407.46 325.1C405.86 358.8 391.26 387.2 365.16 407.2C355.56 422.8 340.66 432.4 321.86 435C318.46 435.6 315.06 435.8 311.56 435.8ZM228.96 397.5C258.16 424.4 292.86 438.1 321.66 434.1C340.06 431.6 354.86 422.1 364.26 406.7L364.36 406.6C390.26 386.8 404.86 358.6 406.36 325.2C407.46 302.1 402.06 277 390.66 252.8C378.86 227.6 361.26 204 338.46 182.8C313.16 223.8 259.86 282.1 219.06 313.5C236.06 329.4 245.26 348.8 244.36 367C243.86 379.5 238.56 390 228.96 397.5Z" fill="white"/>
<path d="M280.56 430.2L279.96 429.4C297.76 415.7 307.86 396.4 308.86 373.3C310.46 340 293.26 304.1 261.76 274.9L262.46 274.2C294.16 303.6 311.46 339.7 309.86 373.4C308.76 396.7 298.66 416.3 280.56 430.2Z" fill="white"/>
<path d="M329.56 433.6L328.96 432.8C352.66 414.7 365.96 388.9 367.36 358.4C369.46 314.1 346.66 266.6 304.86 227.9L305.56 227.2C347.56 266.1 370.46 314 368.36 358.5C366.86 389.2 353.46 415.2 329.56 433.6Z" fill="white"/>
<path d="M308.06 386C286.76 386 264.46 382.1 242.96 374L243.36 373.1C307.06 397.2 379.26 383.6 404.36 342.6L405.26 343.1C388.36 370.6 350.46 386 308.06 386Z" fill="white"/>
<path d="M239.66 343.9L239.56 342.9C300.06 339.2 369.76 302.9 394.86 261.9L395.76 262.4C370.46 303.7 300.46 340.2 239.66 343.9Z" fill="white"/>
<path d="M218.36 314.1L218.06 313.8C188.36 286.3 144.46 279.1 120.26 297.6L119.96 297.9L119.66 297.6C69.3597 251.1 49.0597 179.7 74.3597 138.4L74.4597 138.3C140.06 88.1002 258.56 107.6 338.66 181.7L338.96 182L338.76 182.3C313.56 223.4 259.66 282.5 218.56 313.9L218.36 314.1ZM153.96 286.4C175.46 286.4 199.76 295.7 218.46 312.8C259.26 281.5 312.66 223.1 337.86 182.1C258.06 108.5 140.36 89.2002 75.1597 139C50.1597 179.8 70.2597 250.4 119.96 296.6C129.16 289.7 141.06 286.4 153.96 286.4Z" fill="white"/>
<path d="M261.76 274.9C206.76 224 125.56 210.6 80.5597 245L79.9597 244.2C125.26 209.5 207.16 223 262.46 274.2L261.76 274.9Z" fill="white"/>
<path d="M304.86 227.8C231.96 160.3 124.06 142.5 64.4596 188.1L63.8596 187.3C123.86 141.4 232.26 159.2 305.56 227L304.86 227.8Z" fill="white"/>
<path d="M185.46 292.9L184.46 292.7C194.56 242.2 223.36 167.6 248.56 126.5L249.46 127C224.26 168 195.56 242.5 185.46 292.9Z" fill="white"/>
<path d="M149.16 287.2C126.56 231.2 128.76 152.1 154.06 110.9L154.96 111.4C129.86 152.4 127.66 231.1 150.16 286.8L149.16 287.2Z" fill="white"/>
<path d="M93.9598 401C92.0598 401 90.5598 400.5 89.5598 399.6C84.9598 395.4 88.6598 383 100.46 363.7C77.4598 342.3 59.7598 318.6 47.8598 293.2C36.4598 268.9 30.9598 243.7 32.0598 220.4C33.6598 186.7 48.3598 158.2 74.4598 138.2L76.5598 136.6L75.1598 138.9C50.0598 179.8 70.2598 250.7 120.16 296.9L120.56 297.3L120.06 297.7C110.46 305.1 105.06 315.5 104.46 327.9C103.66 345.9 112.86 365.2 129.86 381L130.26 381.4L129.76 381.8C113.46 394.4 100.96 401 93.9598 401ZM73.0598 140.6C48.4598 160.3 34.6598 187.9 33.0598 220.4C31.9598 243.5 37.3598 268.6 48.7598 292.8C60.6598 318.2 78.3598 341.9 101.46 363.2L101.76 363.5L101.56 363.8C90.2598 382.3 86.1598 395 90.2598 398.7C92.4598 400.6 100.46 402.8 128.96 381.1C111.96 365.2 102.76 345.8 103.66 327.6C104.26 315.1 109.56 304.5 119.16 297C70.0598 251.5 49.8598 182.1 73.0598 140.6Z" fill="white"/>
<path d="M98.0598 400.2C66.3598 370.8 49.0598 334.7 50.6598 301C51.7598 277.7 61.8598 258 79.9598 244.2L80.5598 245C62.7598 258.7 52.6598 278 51.6598 301.1C50.0598 334.4 67.2598 370.3 98.7598 399.5L98.0598 400.2Z" fill="white"/>
<path d="M87.8597 393.8C45.8597 354.9 22.9597 307 25.0597 262.5C26.4597 231.6 39.9597 205.6 63.8597 187.3L64.4597 188.1C40.7597 206.2 27.4597 232 26.0597 262.5C23.9597 306.8 46.7597 354.3 88.5597 393L87.8597 393.8Z" fill="white"/>
<path d="M104.76 321.7C66.9598 307.4 38.6598 282.1 29.0598 253.9C22.9598 235.9 24.7598 218.2 34.2598 202.6L35.1598 203.1C25.7598 218.4 23.9598 235.9 30.0598 253.6C39.5598 281.5 67.6598 306.6 105.16 320.8L104.76 321.7Z" fill="white"/>
<path d="M98.6598 352.2C69.6598 352.2 48.2598 343.8 39.1598 328.6C31.6598 316.1 33.2598 300.4 43.7598 283.2L44.6598 283.7C34.3598 300.5 32.7598 315.9 40.0598 328C49.9598 344.5 74.9598 352.8 108.46 350.8L108.56 351.8C105.16 352.1 101.86 352.2 98.6598 352.2Z" fill="white"/>
</g>
<mask id="mask2_201_599" style="mask-type:luminance" maskUnits="userSpaceOnUse" x="23" y="110" width="385" height="350">
<path d="M89.8599 399.2C94.4599 403.5 108.16 397.8 129.66 381.3C159.56 409 203.66 416.2 228.16 397.5C252.66 378.8 248.26 341.1 218.36 313.5C188.46 285.9 144.36 278.6 119.86 297.3C95.3599 316 99.7599 353.7 129.66 381.3C108.26 397.7 94.4599 403.4 89.8599 399.2C84.8599 394.4 78.4599 387.8 73.7599 382.7C71.0599 379.8 67.7599 375.5 65.2599 372.4C65.1599 372.3 57.2599 362.4 49.8599 349.5C44.4599 340.1 39.9599 330.8 36.1599 321C34.7599 317.4 33.0599 312.5 31.9599 308.8C30.4599 303.7 28.4599 296.8 27.5599 291.5C26.8599 287.7 25.8599 282.6 25.3599 278.8C24.6599 273 23.9599 265.2 23.8599 259.3C23.7599 255.4 23.7599 250.3 24.0599 246.4C24.5599 240.1 25.3599 231.6 26.4599 225.3C27.1599 221.5 28.1599 216.4 29.2599 212.6C31.1599 206.1 33.9599 197.5 36.3599 191.2C39.1599 183.8 44.4599 174.6 48.2599 167.7C54.9599 156.8 63.7599 147 74.7599 138.5C140.26 88.4002 258.26 107.8 338.36 181.9C404.96 243.6 424.36 323.7 391.16 377.7C387.06 383.9 381.36 392.1 376.66 397.8C372.26 403.1 365.86 409.7 360.66 414.3C357.66 417 353.56 420.5 350.36 422.9C345.16 426.7 337.96 431.5 332.46 434.9C323.46 440.4 309.16 446.6 303.16 448.5C298.26 450 291.86 452.3 286.96 453.4C283.16 454.2 278.06 455.5 274.16 456.2C269.66 457 263.56 458 258.96 458.3C251.26 458.8 240.86 459.1 233.16 459.1C228.86 459.1 223.16 458.7 218.96 458.1C215.16 457.6 210.06 457 206.26 456.4C202.26 455.7 196.96 454.7 193.06 453.8C180.66 451 171.26 447.6 168.26 446.5C159.86 443.5 151.96 440.1 144.56 436.5C136.16 432.4 136.16 432.4 121.86 423.7C118.46 421.6 114.06 418.5 110.86 416.2C107.56 413.8 103.46 410.5 100.26 408C96.8599 405.6 92.9599 401.8 89.8599 399.2Z" fill="white"/>
</mask>
<g mask="url(#mask2_201_599)">
<path d="M234.36 459.7C233.96 459.7 233.56 459.7 233.16 459.7C229.06 459.7 223.26 459.3 218.96 458.7C217.96 458.6 216.86 458.4 215.76 458.3C212.66 457.9 209.06 457.5 206.26 457C202.26 456.3 196.96 455.3 192.96 454.4C180.56 451.6 171.16 448.2 168.06 447.1C159.96 444.2 151.96 440.8 144.26 437.1C135.86 433 135.86 433 121.56 424.3C118.86 422.7 115.26 420.2 110.46 416.7C108.26 415.1 105.66 413 103.06 411C101.96 410.1 100.86 409.2 99.86 408.5C97.66 406.8 95.16 404.5 92.7599 402.4C91.7599 401.5 90.66 400.5 89.7599 399.7C89.66 399.7 89.66 399.6 89.56 399.6C84.56 394.8 78.16 388.2 73.46 383.1C71.26 380.8 68.76 377.6 66.56 374.9C65.96 374.2 65.46 373.5 64.96 372.8C64.86 372.7 56.96 362.9 49.46 349.9C44.06 340.5 39.56 331.2 35.76 321.3C34.46 317.9 32.66 312.9 31.56 309.1C30.36 305 28.16 297.4 27.06 291.7C26.86 290.8 26.76 289.8 26.56 288.8C25.96 285.6 25.26 281.9 24.96 278.9C24.36 273.3 23.56 265.3 23.46 259.4C23.36 255.4 23.36 250.3 23.66 246.5C24.36 237.2 25.16 230.3 26.06 225.4C26.86 220.9 27.86 216.2 28.86 212.7C30.76 206 33.66 197.4 36.06 191.3C38.66 184.5 43.36 176.1 47.06 169.4L47.96 167.7C54.76 156.5 63.76 146.7 74.56 138.4C140.16 88.2001 258.66 107.7 338.76 181.8C371.16 211.8 393.26 246.7 402.76 282.8C411.96 317.8 407.96 351.7 391.66 378.2C387.66 384.2 381.96 392.6 377.06 398.4C372.86 403.5 366.36 410.1 361.06 414.9C358.76 417 354.36 420.8 350.66 423.5C345.16 427.5 337.96 432.3 332.76 435.5C323.76 441 309.36 447.2 303.36 449.1C302.16 449.5 300.86 449.9 299.56 450.3C295.46 451.6 290.86 453.2 287.06 454C286.06 454.2 284.96 454.5 283.76 454.7C280.66 455.4 277.06 456.2 274.26 456.7C269.96 457.4 263.76 458.5 258.96 458.8C252.06 459.4 242.36 459.7 234.36 459.7ZM92.56 400.9C92.86 401.1 93.06 401.4 93.36 401.6C95.76 403.8 98.26 406 100.36 407.7C101.36 408.5 102.46 409.3 103.56 410.2C106.06 412.2 108.66 414.2 110.86 415.8C115.56 419.2 119.16 421.7 121.86 423.3C136.16 432 136.16 432 144.46 436.1C152.16 439.9 160.06 443.2 168.16 446.1C171.26 447.2 180.56 450.5 192.96 453.3C196.96 454.2 202.26 455.2 206.16 455.9C208.96 456.4 212.56 456.8 215.66 457.2C216.76 457.3 217.86 457.5 218.86 457.6C223.16 458.2 228.86 458.6 232.96 458.6C241.16 458.6 251.46 458.3 258.76 457.8C263.46 457.5 269.66 456.4 273.96 455.7C276.76 455.2 280.36 454.4 283.46 453.7C284.56 453.4 285.76 453.2 286.76 453C290.46 452.2 295.06 450.7 299.16 449.3C300.46 448.9 301.76 448.4 302.96 448.1C308.86 446.2 323.26 440 332.16 434.6C337.36 431.4 344.56 426.6 350.06 422.6C353.66 420 358.06 416.1 360.36 414.1C365.66 409.3 372.06 402.7 376.26 397.7C381.06 391.9 386.76 383.6 390.76 377.6C424.46 322.6 402.76 242.4 338.06 182.4C258.26 108.6 140.36 89.1001 75.06 139C64.36 147.2 55.46 157 48.66 168L47.76 169.7C44.0599 176.4 39.36 184.7 36.76 191.4C34.46 197.6 31.56 206.1 29.66 212.8C28.56 216.7 27.46 222.4 26.86 225.4C25.96 230.3 25.16 237.2 24.46 246.4C24.16 250.2 24.16 255.2 24.26 259.2C24.36 265.1 25.16 273 25.76 278.6C26.06 281.5 26.76 285.2 27.36 288.4C27.56 289.4 27.76 290.4 27.86 291.3C28.86 296.9 31.06 304.5 32.26 308.6C33.36 312.5 35.16 317.4 36.46 320.8C40.26 330.6 44.66 339.9 50.16 349.3C57.56 362.1 65.46 372 65.56 372.1C66.06 372.7 66.66 373.4 67.2599 374.2C69.4599 377 71.96 380.1 74.06 382.4C78.76 387.5 85.16 394.1 90.16 398.9C90.2599 398.9 90.26 399 90.36 399C92.76 400.9 101.06 402.6 128.96 381.3C111.96 365.4 102.76 346 103.66 327.8C104.26 315.1 109.76 304.4 119.66 296.9C144.26 278.1 188.76 285.3 218.76 313.1C235.96 329.1 245.36 348.7 244.56 367C243.96 379.7 238.46 390.4 228.56 397.9C219.36 405 207.26 408.4 194.26 408.4C172.76 408.4 148.46 399.1 129.76 382C112.06 395.4 99.16 401.9 92.56 400.9ZM130.06 380.9C159.76 408.4 203.66 415.6 227.86 397.1C237.46 389.7 242.86 379.3 243.46 366.9C244.26 348.9 235.06 329.6 218.06 313.8C188.36 286.3 144.46 279.1 120.26 297.6C110.66 305 105.26 315.4 104.66 327.8C103.76 345.8 113.06 365.2 130.06 380.9Z" fill="white"/>
</g>
<mask id="mask3_201_599" style="mask-type:luminance" maskUnits="userSpaceOnUse" x="88" y="363" width="304" height="97">
<path d="M350.36 423C347.16 425.4 342.76 428.7 339.36 430.8C333.96 434.1 326.56 438.4 320.86 441.2C317.26 443 312.46 445.1 308.66 446.5C303.36 448.5 296.16 451 290.76 452.5C286.96 453.5 281.86 454.8 277.96 455.5C272.96 456.4 266.36 457.7 261.36 458.1C253.66 458.7 243.26 459.2 235.56 459.2C230.96 459.2 224.86 458.7 220.36 458.3C210.86 457.4 201.36 455.7 193.76 454C189.86 453.1 184.56 451.9 180.66 450.6C176.96 449.4 172.06 447.9 168.46 446.7C164.76 445.4 159.86 443.5 156.26 442C149.16 438.9 139.96 434.2 133.06 430.6C129.56 428.8 125.16 426 121.76 423.8C117.06 420.8 104.56 412.7 89.8597 399.1C85.6597 395.2 89.0596 383.2 101.06 363.6C181.16 437.7 299.16 457.2 364.66 407C375.66 398.6 384.46 388.7 391.16 377.8C391.16 377.8 385.26 387.7 376.66 397.9C374.06 401 370.56 405 367.66 407.7C362.66 412.6 355.86 418.9 350.36 423Z" fill="white"/>
</mask>
<g mask="url(#mask3_201_599)">
<path d="M311.56 435.8C306.06 435.8 300.36 435.2 294.66 434.1C241.06 440.1 178.26 422.6 125.96 384.7C107.16 398.6 94.2597 403.8 89.5597 399.6C84.8597 395.4 88.7597 382.9 100.66 363.4L100.96 362.9L101.36 363.3C109.16 370.6 117.46 377.3 125.96 383.5C127.06 382.7 128.16 381.8 129.36 380.9L129.66 380.6L129.96 380.9C159.66 408.4 203.56 415.6 227.76 397.1L228.06 396.8L228.36 397.1C249.06 416.2 272.46 428.8 294.66 433.1C320.96 430.1 344.96 421.4 364.26 406.6L366.36 405L364.96 407.3C355.36 422.9 340.36 432.6 321.66 435.1C318.46 435.6 315.06 435.8 311.56 435.8ZM298.06 433.7C306.16 435 314.16 435.2 321.66 434.1C339.16 431.7 353.26 423 362.76 409C344.46 422.4 322.26 430.5 298.06 433.7ZM126.86 384.1C177.86 421 239.06 438.5 291.56 433.5C270.26 428.7 247.96 416.4 228.16 398.2C218.96 405.1 207.06 408.4 194.16 408.4C172.66 408.4 148.36 399.1 129.66 382C128.76 382.7 127.76 383.4 126.86 384.1ZM101.26 364.4C90.1597 382.6 86.1597 395.1 90.2597 398.8C92.3597 400.7 99.7597 402.7 125.16 384.1C116.86 378 108.86 371.5 101.26 364.4Z" fill="white"/>
<path d="M245.96 459.1C193.16 459.1 133.66 436.2 87.8596 393.9L88.5596 393.2C161.46 460.7 269.36 478.5 328.96 432.9L329.56 433.7C307.06 450.8 277.66 459.1 245.96 459.1Z" fill="white"/>
<path d="M165.76 446C165.16 446 164.56 445.9 163.96 445.7C157.86 443.3 157.36 427.8 162.56 401.9L163.56 402.1C156.46 437.5 161.76 443.7 164.36 444.8C169.36 446.8 178.66 437.3 190.06 418.8L190.96 419.3C180.06 436.8 171.46 446 165.76 446Z" fill="white"/>
<path d="M249.96 459.5C249.16 459.5 248.26 459.5 247.46 459.4C228.56 457.8 210.46 439.1 197.96 408L198.86 407.6C211.26 438.4 229.06 456.9 247.56 458.4C261.36 459.6 274.16 451.2 284.56 434.3L285.46 434.8C275.66 450.8 263.16 459.5 249.96 459.5Z" fill="white"/>
<path d="M311.56 435.8C284.56 435.8 253.96 422.1 227.76 397.9L227.36 397.5L227.86 397.1C237.46 389.7 242.86 379.3 243.46 366.9C244.26 348.9 235.06 329.6 218.06 313.8L217.66 313.4L218.16 313C259.06 281.7 312.86 222.8 338.06 181.7L338.36 181.2L338.76 181.6C361.96 203 379.76 226.8 391.66 252.3C403.06 276.6 408.56 301.8 407.46 325.1C405.86 358.8 391.26 387.2 365.16 407.2C355.56 422.8 340.66 432.4 321.86 435C318.46 435.6 315.06 435.8 311.56 435.8ZM228.96 397.5C258.16 424.4 292.86 438.1 321.66 434.1C340.06 431.6 354.86 422.1 364.26 406.7L364.36 406.6C390.26 386.8 404.86 358.6 406.36 325.2C407.46 302.1 402.06 277 390.66 252.8C378.86 227.6 361.26 204 338.46 182.8C313.16 223.8 259.86 282.1 219.06 313.5C236.06 329.4 245.26 348.8 244.36 367C243.86 379.5 238.56 390 228.96 397.5Z" fill="white"/>
<path d="M329.56 433.6L328.96 432.8C352.66 414.7 365.96 388.9 367.36 358.4C369.46 314.1 346.66 266.6 304.86 227.9L305.56 227.2C347.56 266.1 370.46 314 368.36 358.5C366.86 389.2 353.46 415.2 329.56 433.6Z" fill="white"/>
</g>
<mask id="mask4_201_599" style="mask-type:luminance" maskUnits="userSpaceOnUse" x="88" y="363" width="304" height="97">
<path d="M350.36 423C347.16 425.4 342.76 428.7 339.36 430.8C333.96 434.1 326.56 438.4 320.86 441.2C317.26 443 312.46 445.1 308.66 446.5C303.36 448.5 296.16 451 290.76 452.5C286.96 453.5 281.86 454.8 277.96 455.5C272.96 456.4 266.36 457.7 261.36 458.1C253.66 458.7 243.26 459.2 235.56 459.2C230.96 459.2 224.86 458.7 220.36 458.3C210.86 457.4 201.36 455.7 193.76 454C189.86 453.1 184.56 451.9 180.66 450.6C176.96 449.4 172.06 447.9 168.46 446.7C164.76 445.4 159.86 443.5 156.26 442C149.16 438.9 139.96 434.2 133.06 430.6C129.56 428.8 125.16 426 121.76 423.8C117.06 420.8 104.56 412.7 89.8597 399.1C85.6597 395.2 89.0596 383.2 101.06 363.6C181.16 437.7 299.16 457.2 364.66 407C375.66 398.6 384.46 388.7 391.16 377.8C391.16 377.8 385.26 387.7 376.66 397.9C374.06 401 370.56 405 367.66 407.7C362.66 412.6 355.86 418.9 350.36 423Z" fill="white"/>
</mask>
<g mask="url(#mask4_201_599)">
<path d="M235.26 459.8C230.76 459.8 224.96 459.3 220.26 458.9C209.66 457.9 199.86 456 193.56 454.6C187.76 453.3 183.46 452.2 180.46 451.2C179.36 450.8 178.06 450.4 176.76 450C173.76 449.1 170.76 448.1 168.26 447.2C166.06 446.4 160.36 444.3 155.96 442.4C149.96 439.8 141.36 435.5 132.76 431C129.96 429.5 126.16 427.2 121.46 424.2C116.76 421.1 104.16 413 89.4596 399.5C84.8596 395.2 88.7596 382.7 100.66 363.3L100.96 362.8L101.36 363.2C181.16 437 299.06 456.5 364.36 406.6C375.06 398.4 383.96 388.6 390.76 377.6L391.66 376.1V377.9C391.66 377.9 391.66 378 391.56 378.1C391.46 378.3 391.26 378.6 391.16 378.8C389.46 381.6 383.96 390.1 377.06 398.3C373.36 402.7 370.26 406 368.06 408.2C360.76 415.1 355.06 420.1 350.76 423.4C346.16 426.9 342.36 429.5 339.66 431.2C334.66 434.3 327.06 438.7 321.06 441.6C317.16 443.5 312.36 445.6 308.86 446.9C305.66 448.1 297.46 451.1 290.86 452.9C289.06 453.4 282.96 455 278.06 455.9C272.86 456.9 266.26 458.1 261.36 458.5C253.76 459.1 243.36 459.6 235.46 459.6C235.46 459.8 235.36 459.8 235.26 459.8ZM101.26 364.4C90.2596 382.5 86.1596 395 90.2596 398.8C104.86 412.3 117.36 420.4 122.06 423.4C126.76 426.4 130.56 428.7 133.26 430.2C141.86 434.7 150.46 439 156.46 441.6C160.76 443.5 166.46 445.5 168.66 446.3C171.16 447.2 174.26 448.1 177.16 449.1C178.46 449.5 179.66 449.9 180.86 450.3C183.86 451.3 188.06 452.4 193.86 453.7C200.16 455.1 209.86 457 220.46 458C225.16 458.4 231.16 458.9 235.66 458.9C243.56 458.9 253.96 458.4 261.46 457.8C266.36 457.4 272.86 456.2 278.06 455.2C282.96 454.3 289.06 452.6 290.76 452.2C297.26 450.4 305.46 447.4 308.66 446.2C312.06 444.9 316.96 442.8 320.76 440.9C326.76 437.9 334.26 433.6 339.26 430.5C341.96 428.8 345.66 426.2 350.26 422.8C354.56 419.5 360.26 414.6 367.46 407.6C369.76 405.4 372.76 402.1 376.46 397.8C376.66 397.5 376.96 397.3 377.16 397C373.46 400.8 369.46 404.3 365.16 407.6C299.56 457.5 181.36 438.2 101.26 364.4Z" fill="white"/>
</g>
<mask id="mask5_201_599" style="mask-type:luminance" maskUnits="userSpaceOnUse" x="23" y="167" width="79" height="233">
<path d="M89.8597 399.2C86.9597 396.3 82.9597 392.7 80.1597 389.7C75.5597 384.7 69.5597 377.8 65.2597 372.5C62.7597 369.4 59.7597 365.1 57.5597 361.8C55.1597 358.2 51.9597 353.4 49.8597 349.6C46.0597 342.8 41.4597 333.5 38.2597 326.4C36.3597 322.3 34.5597 316.5 32.9597 312.2C31.2597 307.6 29.6597 301.2 28.5597 296.4C27.6597 292.7 26.7597 287.6 26.0597 283.8C25.1597 278.5 24.4597 271.4 24.0597 266C23.7597 262.2 23.6597 257 23.7597 253.1C24.0597 238.5 25.5597 229.9 27.2597 220.8C28.4597 214.5 30.9597 206.3 32.9597 200.2C34.1597 196.5 36.2597 191.7 37.6597 188C40.1597 181.6 44.8597 173.7 48.2597 167.8C15.1597 221.8 34.4597 301.9 101.06 363.6C89.0597 383.2 85.6597 395.3 89.8597 399.2Z" fill="white"/>
</mask>
<g mask="url(#mask5_201_599)">
<path d="M93.9598 401C92.0598 401 90.5598 400.5 89.5598 399.6C84.9598 395.4 88.6598 383 100.46 363.7C77.4598 342.3 59.7598 318.6 47.8598 293.2C36.4598 268.9 30.9598 243.7 32.0598 220.4C33.6598 186.7 48.3598 158.2 74.4598 138.2L76.5598 136.6L75.1598 138.9C50.0598 179.8 70.2598 250.7 120.16 296.9L120.56 297.3L120.06 297.7C110.46 305.1 105.06 315.5 104.46 327.9C103.66 345.9 112.86 365.2 129.86 381L130.26 381.4L129.76 381.8C113.46 394.4 100.96 401 93.9598 401ZM73.0598 140.6C48.4598 160.3 34.6598 187.9 33.0598 220.4C31.9598 243.5 37.3598 268.6 48.7598 292.8C60.6598 318.2 78.3598 341.9 101.46 363.2L101.76 363.5L101.56 363.8C90.2598 382.3 86.1598 395 90.2598 398.7C92.4598 400.6 100.46 402.8 128.96 381.1C111.96 365.2 102.76 345.8 103.66 327.6C104.26 315.1 109.56 304.5 119.16 297C70.0598 251.5 49.8598 182.1 73.0598 140.6Z" fill="white"/>
<path d="M87.8597 393.8C45.8597 354.9 22.9597 307 25.0597 262.5C26.4597 231.6 39.9597 205.6 63.8597 187.3L64.4597 188.1C40.7597 206.2 27.4597 232 26.0597 262.5C23.9597 306.8 46.7597 354.3 88.5597 393L87.8597 393.8Z" fill="white"/>
<path d="M104.76 321.7C66.9598 307.4 38.6598 282.1 29.0598 253.9C22.9598 235.9 24.7598 218.2 34.2598 202.6L35.1598 203.1C25.7598 218.4 23.9598 235.9 30.0598 253.6C39.5598 281.5 67.6598 306.6 105.16 320.8L104.76 321.7Z" fill="white"/>
<path d="M98.6598 352.2C69.6598 352.2 48.2598 343.8 39.1598 328.6C31.6598 316.1 33.2598 300.4 43.7598 283.2L44.6598 283.7C34.3598 300.5 32.7598 315.9 40.0598 328C49.9598 344.5 74.9598 352.8 108.46 350.8L108.56 351.8C105.16 352.1 101.86 352.2 98.6598 352.2Z" fill="white"/>
</g>
<mask id="mask6_201_599" style="mask-type:luminance" maskUnits="userSpaceOnUse" x="23" y="167" width="79" height="233">
<path d="M89.8597 399.2C86.9597 396.3 82.9597 392.7 80.1597 389.7C75.5597 384.7 69.5597 377.8 65.2597 372.5C62.7597 369.4 59.7597 365.1 57.5597 361.8C55.1597 358.2 51.9597 353.4 49.8597 349.6C46.0597 342.8 41.4597 333.5 38.2597 326.4C36.3597 322.3 34.5597 316.5 32.9597 312.2C31.2597 307.6 29.6597 301.2 28.5597 296.4C27.6597 292.7 26.7597 287.6 26.0597 283.8C25.1597 278.5 24.4597 271.4 24.0597 266C23.7597 262.2 23.6597 257 23.7597 253.1C24.0597 238.5 25.5597 229.9 27.2597 220.8C28.4597 214.5 30.9597 206.3 32.9597 200.2C34.1597 196.5 36.2597 191.7 37.6597 188C40.1597 181.6 44.8597 173.7 48.2597 167.8C15.1597 221.8 34.4597 301.9 101.06 363.6C89.0597 383.2 85.6597 395.3 89.8597 399.2Z" fill="white"/>
</mask>
<g mask="url(#mask6_201_599)">
<path d="M89.5598 399.5C89.4598 399.4 89.4598 399.4 89.3598 399.3C88.4598 398.4 87.4598 397.5 86.4598 396.5C84.1598 394.3 81.6598 392 79.8598 389.9C75.0598 384.6 69.0598 377.7 64.9598 372.7C61.8598 368.8 58.2598 363.5 57.1598 362C55.6598 359.8 51.9598 354.2 49.4598 349.8C45.3598 342.5 40.7598 333 37.8598 326.5C36.4598 323.4 35.0598 319.3 33.7598 315.8C33.3598 314.6 32.9598 313.4 32.5598 312.3C30.9598 307.9 29.4598 302.1 28.1598 296.5C27.2598 293 26.4598 288.3 25.7598 284.5L25.6598 283.8C24.9598 279.6 24.2598 273.8 23.6598 266C23.3598 262.4 23.2598 257.3 23.3598 253.1C23.6598 238.6 25.0598 230.2 26.8598 220.7C28.0598 214.5 30.5598 206.4 32.5598 200C33.3598 197.3 34.7598 194.1 35.9598 191.2C36.4598 190 36.9598 188.8 37.3598 187.8C39.1598 183.2 42.0598 177.8 44.8598 172.9C45.8598 171.1 46.8598 169.3 47.9598 167.5L48.8598 168L48.1598 169.1C47.3598 170.5 46.5598 172 45.6598 173.5C16.5598 228.2 38.8598 305.2 101.56 363.2L101.86 363.5L101.66 363.8C90.5598 381.9 86.3598 394.6 90.1598 398.5C90.2598 398.6 90.2598 398.6 90.3598 398.7L89.5598 399.5ZM37.9598 188.9C37.6598 189.8 37.2598 190.7 36.8598 191.6C35.6598 194.4 34.3598 197.7 33.5598 200.3C31.5598 206.6 29.0598 214.7 27.9598 220.8C26.1598 230.2 24.7598 238.6 24.4598 253C24.3598 257.2 24.4598 262.2 24.7598 265.8C25.3598 273.6 25.9598 279.4 26.7598 283.5L26.8598 284.2C27.5598 287.9 28.3598 292.6 29.2598 296.1C30.6598 301.7 32.0598 307.5 33.6598 311.8C34.0598 312.9 34.4598 314.1 34.8598 315.3C36.0598 318.9 37.5598 322.9 38.8598 326C41.7598 332.5 46.3598 342 50.4598 349.2C52.9598 353.6 56.6598 359.2 58.1598 361.4C59.1598 362.9 62.7598 368.2 65.8598 372C69.9598 377 75.8598 384 80.6598 389.2C82.5598 391.2 84.9598 393.5 87.2598 395.7C87.5598 395.9 87.7598 396.2 88.0598 396.4C86.6598 390.6 90.9598 379.4 100.66 363.6C68.2598 333.8 46.2598 298.9 36.7598 263C29.9598 236.8 30.4598 211.2 37.9598 188.9Z" fill="white"/>
</g>
<mask id="mask7_201_599" style="mask-type:luminance" maskUnits="userSpaceOnUse" x="48" y="66" width="387" height="312">
<path d="M391.16 377.9C424.26 323.9 404.96 243.7 338.36 182.1C258.26 108 140.26 88.5002 74.7598 138.7C63.7598 147.1 54.9598 157 48.2598 167.9L75.5598 123.5C82.2598 112.6 91.0598 102.8 102.06 94.3002C167.56 44.2002 285.56 63.6002 365.66 137.7C432.26 199.4 451.66 279.5 418.46 333.5C410.26 346.8 399.36 364.5 391.16 377.9Z" fill="white"/>
</mask>
<g mask="url(#mask7_201_599)">
<path d="M362.86 409.1L391.66 362.2C395.16 359.5 398.56 356.6 401.66 353.6C404.36 344.6 406.06 335.1 406.46 325.2C407.56 302.1 402.16 277 390.76 252.8C378.86 227.4 361.16 203.7 338.06 182.4L337.76 182.1L337.96 181.8L365.56 136.8L365.96 137.2C389.16 158.6 406.96 182.4 418.86 207.9C430.26 232.2 435.76 257.4 434.66 280.7C433.26 309.8 422.26 334.9 402.46 354.1C395.96 375.3 383.26 393.4 364.96 407.4L362.86 409.1ZM392.36 362.9L366.56 404.9C383.06 391.7 394.66 374.9 400.96 355.6C398.26 358.1 395.36 360.6 392.36 362.9ZM339.06 181.9C362.06 203.3 379.76 227 391.66 252.4C403.06 276.7 408.56 301.9 407.46 325.2C407.06 334.6 405.56 343.6 403.16 352.1C421.96 333.2 432.46 308.8 433.76 280.7C434.86 257.6 429.46 232.5 418.06 208.3C406.26 183.1 388.66 159.5 365.86 138.3L339.06 181.9Z" fill="white"/>
<path d="M405.26 343.1L404.36 342.6L431.66 298.2L432.46 298.7L405.26 343.1Z" fill="white"/>
<path d="M395.76 262.4L394.96 261.9L422.16 217.5L423.06 218L395.76 262.4Z" fill="white"/>
<path d="M338.46 182.8L338.06 182.4C258.26 108.6 140.36 89.1002 75.06 139L72.96 140.6L101.76 93.8002C167.36 43.6002 285.86 63.1002 365.96 137.2L366.26 137.5L366.06 137.8L338.46 182.8ZM165.96 110.4C223.56 110.4 288.36 135.2 338.36 181.3L365.06 137.7C285.36 64.1002 167.66 44.8002 102.46 94.5002L76.66 136.6C100.96 118.9 132.16 110.4 165.96 110.4Z" fill="white"/>
<path d="M249.46 127L248.56 126.4L275.86 82.0002L276.66 82.5002L249.46 127Z" fill="white"/>
<path d="M154.86 111.4L154.06 110.9L181.26 66.4001L182.16 66.9001L154.86 111.4Z" fill="white"/>
<path d="M101.26 364.4L100.86 364C77.6599 342.6 59.8599 318.8 47.9599 293.3C36.5599 269 31.0599 243.8 32.1599 220.5C33.5599 191.5 44.5599 166.3 64.3599 147.1C70.8599 125.9 83.5599 107.8 101.86 93.8002L103.96 92.2002L75.0599 139C71.5599 141.7 68.1599 144.6 65.0599 147.6C62.3599 156.6 60.6599 166.1 60.2599 176C59.1599 199.1 64.5599 224.2 75.9599 248.4C87.8599 273.8 105.56 297.5 128.66 318.8L128.96 319.1L128.76 319.4L101.26 364.4ZM63.6599 149C44.8599 167.9 34.3599 192.3 33.0599 220.4C31.9599 243.5 37.3599 268.6 48.7599 292.8C60.5599 318 78.1599 341.6 100.96 362.8L127.66 319.2C104.66 297.8 86.9599 274.1 75.0599 248.7C63.6599 224.4 58.1599 199.2 59.2599 175.9C59.7599 166.6 61.2599 157.6 63.6599 149ZM100.16 96.3002C83.6599 109.5 72.0599 126.3 65.7599 145.6C68.4599 143 71.3599 140.6 74.4599 138.3L100.16 96.3002Z" fill="white"/>
</g>
<mask id="mask8_201_599" style="mask-type:luminance" maskUnits="userSpaceOnUse" x="48" y="66" width="387" height="312">
<path d="M391.16 377.9C424.26 323.9 404.96 243.7 338.36 182.1C258.26 108 140.26 88.5002 74.7598 138.7C63.7598 147.1 54.9598 157 48.2598 167.9L75.5598 123.5C82.2598 112.6 91.0598 102.8 102.06 94.3002C167.56 44.2002 285.56 63.6002 365.66 137.7C432.26 199.4 451.66 279.5 418.46 333.5C410.26 346.8 399.36 364.5 391.16 377.9Z" fill="white"/>
</mask>
<g mask="url(#mask8_201_599)">
<path d="M391.66 378.1L390.76 377.6C424.46 322.6 402.76 242.4 338.06 182.4C258.26 108.6 140.36 89.1002 75.0598 139C64.3598 147.2 55.4598 157 48.6598 168L47.7598 167.5L75.0598 123.1C81.8598 111.9 90.8598 102.1 101.66 93.8002C167.26 43.6002 285.76 63.1002 365.86 137.2C398.26 167.2 420.36 202.1 429.86 238.2C439.06 273.2 435.06 307.1 418.76 333.6L391.66 378.1ZM165.96 110.4C223.76 110.4 288.76 135.4 338.76 181.7C371.16 211.7 393.26 246.6 402.76 282.7C410.56 312.3 408.86 341.2 398.26 365.5L418.06 333.2C451.76 278.2 430.06 198 365.36 138C285.56 64.2002 167.66 44.7002 102.36 94.6002C91.6598 102.8 82.7598 112.6 75.9598 123.6L56.2598 155.8C61.5598 149.4 67.6598 143.5 74.5598 138.2C99.1598 119.4 131.16 110.4 165.96 110.4Z" fill="white"/>
</g>
<mask id="mask9_201_599" style="mask-type:luminance" maskUnits="userSpaceOnUse" x="101" y="319" width="318" height="116">
<path d="M418.46 333.4L391.16 377.8C384.46 388.7 375.66 398.5 364.66 407C299.16 457.1 181.16 437.7 101.06 363.6L128.36 319.2C208.46 393.3 326.46 412.8 391.96 362.6C402.96 354.2 411.76 344.3 418.46 333.4Z" fill="white"/>
</mask>
<g mask="url(#mask9_201_599)">
<path d="M273.56 435.3C215.76 435.3 150.76 410.3 100.76 364L100.46 363.7L100.66 363.4L128.26 318.4L128.66 318.8C208.46 392.6 326.36 412.1 391.66 362.2L393.76 360.6L365.06 407.4C340.36 426.3 308.26 435.3 273.56 435.3ZM101.76 363.5C181.46 437.1 299.16 456.4 364.36 406.7L390.16 364.6C324.26 412.7 207.66 393 128.46 320L101.76 363.5Z" fill="white"/>
<path d="M190.86 419.2L190.06 418.7L217.26 374.2L218.16 374.8L190.86 419.2Z" fill="white"/>
<path d="M285.46 434.8L284.66 434.3L311.86 389.8L312.76 390.3L285.46 434.8Z" fill="white"/>
<path d="M362.86 409.1L391.66 362.2C395.16 359.5 398.56 356.6 401.66 353.6C404.36 344.6 406.06 335.1 406.46 325.2C407.56 302.1 402.16 277 390.76 252.8C378.86 227.4 361.16 203.7 338.06 182.4L337.76 182.1L337.96 181.8L365.56 136.8L365.96 137.2C389.16 158.6 406.96 182.4 418.86 207.9C430.26 232.2 435.76 257.4 434.66 280.7C433.26 309.8 422.26 334.9 402.46 354.1C395.96 375.3 383.26 393.4 364.96 407.4L362.86 409.1ZM392.36 362.9L366.56 404.9C383.06 391.7 394.66 374.9 400.96 355.6C398.26 358.1 395.36 360.6 392.36 362.9ZM339.06 181.9C362.06 203.3 379.76 227 391.66 252.4C403.06 276.7 408.56 301.9 407.46 325.2C407.06 334.6 405.56 343.6 403.16 352.1C421.96 333.2 432.46 308.8 433.76 280.7C434.86 257.6 429.46 232.5 418.06 208.3C406.26 183.1 388.66 159.5 365.86 138.3L339.06 181.9Z" fill="white"/>
</g>
<mask id="mask10_201_599" style="mask-type:luminance" maskUnits="userSpaceOnUse" x="101" y="319" width="318" height="116">
<path d="M418.46 333.4L391.16 377.8C384.46 388.7 375.66 398.5 364.66 407C299.16 457.1 181.16 437.7 101.06 363.6L128.36 319.2C208.46 393.3 326.46 412.8 391.96 362.6C402.96 354.2 411.76 344.3 418.46 333.4Z" fill="white"/>
</mask>
<g mask="url(#mask10_201_599)">
<path d="M273.56 435.3C215.76 435.3 150.76 410.3 100.76 364L100.46 363.7L100.66 363.4L128.26 318.4L128.66 318.8C208.46 392.6 326.36 412.1 391.66 362.2C402.36 354 411.26 344.2 418.06 333.2L418.96 333.7L391.66 378.1C384.86 389.3 375.86 399.1 365.06 407.4C340.36 426.3 308.26 435.3 273.56 435.3ZM101.76 363.5C181.56 437.1 299.26 456.5 364.46 406.6C375.16 398.4 384.06 388.6 390.86 377.6L410.56 345.4C405.26 351.8 399.16 357.7 392.26 363C326.76 413.1 208.56 393.8 128.46 320L101.76 363.5Z" fill="white"/>
</g>
<mask id="mask11_201_599" style="mask-type:luminance" maskUnits="userSpaceOnUse" x="32" y="123" width="97" height="241">
<path d="M48.2598 167.8L75.5598 123.4C42.4598 177.4 61.7598 257.6 128.36 319.2L101.06 363.6C34.4598 301.9 15.1598 221.8 48.2598 167.8Z" fill="white"/>
</mask>
<g mask="url(#mask11_201_599)">
<path d="M101.26 364.4L100.86 364C77.6599 342.6 59.8599 318.8 47.9599 293.3C36.5599 269 31.0599 243.8 32.1599 220.5C33.5599 191.5 44.5599 166.3 64.3599 147.1C70.8599 125.9 83.5599 107.8 101.86 93.8002L103.96 92.2002L75.0599 139C71.5599 141.7 68.1599 144.6 65.0599 147.6C62.3599 156.6 60.6599 166.1 60.2599 176C59.1599 199.1 64.5599 224.2 75.9599 248.4C87.8599 273.8 105.56 297.5 128.66 318.8L128.96 319.1L128.76 319.4L101.26 364.4ZM63.6599 149C44.8599 167.9 34.3599 192.3 33.0599 220.4C31.9599 243.5 37.3599 268.6 48.7599 292.8C60.5599 318 78.1599 341.6 100.96 362.8L127.66 319.2C104.66 297.8 86.9599 274.1 75.0599 248.7C63.6599 224.4 58.1599 199.2 59.2599 175.9C59.7599 166.6 61.2599 157.6 63.6599 149ZM100.16 96.3002C83.6599 109.5 72.0599 126.3 65.7599 145.6C68.4599 143 71.3599 140.6 74.4599 138.3L100.16 96.3002Z" fill="white"/>
<path d="M35.1598 203L34.2598 202.5L61.5598 158.1L62.3598 158.6L35.1598 203Z" fill="white"/>
<path d="M44.5598 283.7L43.7598 283.2L70.9598 238.8L71.8598 239.3L44.5598 283.7Z" fill="white"/>
</g>
<mask id="mask12_201_599" style="mask-type:luminance" maskUnits="userSpaceOnUse" x="32" y="123" width="97" height="241">
<path d="M48.2598 167.8L75.5598 123.4C42.4598 177.4 61.7598 257.6 128.36 319.2L101.06 363.6C34.4598 301.9 15.1598 221.8 48.2598 167.8Z" fill="white"/>
</mask>
<g mask="url(#mask12_201_599)">
<path d="M101.26 364.4L100.86 364C68.4598 334 46.3598 299.1 36.8598 263C27.6598 228 31.6598 194.1 47.9598 167.6L75.2598 123.2L76.1598 123.7C42.4598 178.7 64.1598 258.9 128.86 318.9L129.16 319.2L128.96 319.5L101.26 364.4ZM68.5598 135.8L48.7598 168.1C15.0598 222.9 36.5598 302.9 100.96 362.8L127.66 319.2C95.4598 289.3 73.3598 254.4 63.9598 218.5C56.2598 188.9 57.9598 160 68.5598 135.8Z" fill="white"/>
</g>
<mask id="mask13_201_599" style="mask-type:luminance" maskUnits="userSpaceOnUse" x="59" y="66" width="376" height="325">
<path d="M418.34 333.482C460.112 265.354 417.257 163.087 322.622 105.063C227.987 47.0383 117.407 55.2288 75.6347 123.357C33.8628 191.485 76.7171 293.752 171.353 351.776C265.988 409.801 376.568 401.61 418.34 333.482Z" fill="white"/>
</mask>
<g mask="url(#mask13_201_599)">
<path d="M300.86 390.9C243.06 390.9 178.06 365.9 128.06 319.6C104.86 298.2 87.0598 274.4 75.1598 248.9C63.7598 224.6 58.2598 199.4 59.3598 176.1C60.9598 142.4 75.6598 113.9 101.76 93.9001C167.36 43.7001 285.86 63.2001 365.96 137.3C389.16 158.7 406.96 182.5 418.86 208C430.26 232.3 435.76 257.5 434.66 280.8C433.06 314.5 418.36 343 392.26 363C367.66 381.8 335.56 390.9 300.86 390.9ZM193.16 66.9001C158.66 66.9001 126.76 75.9001 102.36 94.6001C76.4598 114.4 61.8598 142.6 60.3598 176C59.2598 199.1 64.6598 224.2 76.0598 248.4C87.9598 273.8 105.66 297.5 128.76 318.8C178.56 365 243.36 389.9 300.86 389.9C335.36 389.9 367.26 380.9 391.66 362.2C417.56 342.4 432.16 314.2 433.66 280.8C434.76 257.7 429.36 232.6 417.96 208.4C406.06 183 388.36 159.3 365.26 138C315.46 91.8001 250.66 66.9001 193.16 66.9001Z" fill="white"/>
</g>
</svg>
