<svg width="440" height="440" viewBox="0 0 440 440" fill="none" xmlns="http://www.w3.org/2000/svg">
<path d="M239.803 439.103C235.203 439.103 230.303 436.503 228.903 430.302L201.903 309.203C201.103 305.603 198.503 302.703 194.903 301.703C191.303 300.603 187.603 301.503 184.903 304.003L94.8025 389.203C89.8025 393.903 83.8025 392.803 79.9025 389.703C76.1025 386.603 73.9025 380.802 77.6025 375.003L144.103 270.302C146.103 267.202 146.203 263.302 144.503 260.003C142.703 256.702 139.503 254.703 135.803 254.603L11.8025 251.203C4.90252 251.003 1.40252 246.003 0.902521 241.103C0.402521 236.203 2.90252 230.603 9.60252 229.103L130.703 202.103C134.303 201.303 137.203 198.703 138.203 195.103C139.303 191.503 138.403 187.803 135.903 185.103L50.7025 95.0025C46.0025 90.0025 47.1025 84.0025 50.2025 80.1025C53.3025 76.3025 59.1025 74.1025 64.9025 77.8025L169.603 144.303C172.703 146.303 176.603 146.402 179.903 144.702C183.203 143.003 185.203 139.702 185.303 136.003L188.703 12.0025C188.903 5.0025 193.903 1.5025 198.803 1.0025C203.703 0.502496 209.303 3.0025 210.803 9.7025L237.803 130.803C238.603 134.403 241.203 137.303 244.803 138.303C248.403 139.403 252.103 138.503 254.803 136.003L344.903 50.8025C349.903 46.1025 355.903 47.2025 359.803 50.3025C363.603 53.4025 365.803 59.2025 362.103 65.0025L295.603 169.702C293.603 172.803 293.503 176.702 295.203 180.003C297.003 183.303 300.203 185.302 303.903 185.402L427.903 188.803C434.703 189.003 438.303 194.003 438.803 198.902C439.303 203.802 436.803 209.402 430.103 210.902L309.003 237.902C305.403 238.702 302.503 241.302 301.503 244.902C300.403 248.503 301.303 252.202 303.903 254.902L389.103 345.003C393.803 350.003 392.703 356.003 389.603 359.902C386.503 363.802 380.703 365.903 374.903 362.203L270.203 295.703C267.103 293.703 263.203 293.602 259.903 295.302C256.603 297.003 254.603 300.302 254.503 304.003L251.103 428.003C250.903 434.802 245.903 438.402 241.003 438.902C240.603 439.103 240.203 439.103 239.803 439.103ZM191.903 300.203C193.003 300.203 194.103 300.403 195.203 300.703C199.103 301.903 202.003 305.003 202.903 309.003L229.903 430.103C231.303 436.203 236.403 438.503 240.903 438.003C245.403 437.603 250.003 434.303 250.103 428.103L253.503 304.103C253.603 300.003 255.803 296.402 259.503 294.503C263.103 292.603 267.303 292.702 270.803 294.902L375.503 361.402C380.803 364.702 386.003 362.702 388.903 359.302C391.803 355.802 392.703 350.302 388.403 345.802L303.203 255.703C300.403 252.703 299.403 248.603 300.603 244.703C301.803 240.803 304.903 237.902 308.903 237.003L430.003 210.003C436.103 208.603 438.403 203.503 437.903 199.003C437.403 194.503 434.203 189.903 428.003 189.803L304.003 186.402C299.903 186.302 296.303 184.102 294.403 180.402C292.503 176.702 292.603 172.603 294.803 169.103L361.303 64.4025C364.603 59.1025 362.603 53.9025 359.203 51.0025C355.703 48.1025 350.203 47.2025 345.703 51.5025L255.603 136.702C252.603 139.503 248.503 140.503 244.603 139.303C240.703 138.103 237.803 135.003 236.903 131.003L209.903 9.9025C208.503 3.8025 203.403 1.5025 198.903 2.0025C194.403 2.4025 189.803 5.7025 189.703 11.9025L186.303 135.902C186.203 140.003 184.003 143.603 180.303 145.503C176.703 147.402 172.503 147.303 169.003 145.103L64.3025 78.5025C59.0025 75.2025 53.8025 77.2025 50.9025 80.6025C48.0025 84.1025 47.1025 89.6025 51.4025 94.1025L136.603 184.202C139.403 187.202 140.403 191.303 139.203 195.202C138.003 199.102 134.903 202.003 130.903 202.902L9.80252 230.003C3.70252 231.402 1.40252 236.503 1.90252 241.003C2.40252 245.503 5.60252 250.103 11.8025 250.203L135.803 253.603C139.903 253.703 143.503 255.903 145.403 259.603C147.303 263.203 147.203 267.402 145.003 270.902L78.5025 375.603C75.2025 380.902 77.2025 386.103 80.6025 389.003C84.1025 391.902 89.6025 392.802 94.1025 388.503L184.203 303.302C186.403 301.302 189.103 300.203 191.903 300.203Z" fill="white"/>
<path d="M225.302 440.003C220.502 440.003 215.202 437.103 214.202 430.503L195.702 307.802C195.102 304.102 192.702 301.102 189.302 299.802C185.802 298.503 182.002 299.103 179.102 301.402L83.3025 380.203C78.0025 384.503 72.0025 383.103 68.4025 379.703C64.8025 376.303 63.0025 370.402 67.1025 364.902L140.702 265.103C142.902 262.103 143.302 258.302 141.802 254.902C140.302 251.503 137.202 249.202 133.503 248.902L10.1025 236.603C3.3025 235.903 0.102496 230.702 0.00249631 225.702C-0.0975037 220.803 2.8025 215.303 9.50249 214.303L132.202 195.803C135.902 195.202 138.902 192.802 140.202 189.402C141.503 185.902 140.902 182.102 138.602 179.202L59.8025 83.4025C55.5025 78.1025 56.9025 72.1025 60.3025 68.5025C63.7025 64.9025 69.6025 63.1025 75.1025 67.2025L174.902 140.803C177.902 143.003 181.702 143.402 185.102 141.902C188.502 140.402 190.802 137.303 191.102 133.603L203.202 10.1025C203.902 3.3025 209.102 0.102496 214.102 0.00249631C219.002 -0.0975037 224.503 2.8025 225.503 9.5025L244.003 132.202C244.603 135.902 247.003 138.902 250.402 140.202C253.902 141.503 257.703 140.903 260.603 138.603L356.402 59.8025C361.702 55.5025 367.702 56.9025 371.302 60.3025C374.902 63.7025 376.703 69.6025 372.603 75.1025L299.003 175.003C296.802 178.003 296.402 181.803 297.902 185.202C299.402 188.602 302.502 190.902 306.202 191.202L429.702 203.303C436.502 204.003 439.702 209.202 439.802 214.202C439.902 219.102 437.003 224.603 430.302 225.603L307.603 244.103C303.902 244.703 300.902 247.103 299.603 250.503C298.303 253.902 298.902 257.803 301.202 260.703L380.003 356.503C384.302 361.802 382.902 367.802 379.503 371.402C376.103 375.003 370.202 376.803 364.702 372.703L264.902 299.103C261.902 296.902 258.102 296.503 254.702 298.003C251.302 299.503 249.002 302.602 248.702 306.302L236.603 429.802C235.903 436.602 230.702 439.802 225.702 439.902C225.602 440.003 225.402 440.003 225.302 440.003ZM185.602 298.003C187.002 298.003 188.303 298.202 189.702 298.802C193.503 300.302 196.202 303.603 196.802 307.603L215.302 430.302C216.202 436.302 221.003 439.003 225.402 439.003C225.503 439.003 225.602 439.003 225.702 439.003C230.202 438.902 235.003 436.003 235.603 429.802L247.702 306.302C248.102 302.202 250.602 298.803 254.302 297.103C258.003 295.402 262.203 295.902 265.503 298.302L365.302 371.902C370.302 375.603 375.702 374.003 378.802 370.703C381.902 367.403 383.202 362.003 379.302 357.203L300.503 261.402C297.902 258.202 297.202 254.102 298.702 250.302C300.202 246.502 303.503 243.803 307.503 243.203L430.202 224.702C436.402 223.803 439.003 218.803 438.902 214.303C438.802 209.803 435.902 205.003 429.702 204.402L306.202 192.303C302.102 191.903 298.703 189.402 297.003 185.702C295.302 182.003 295.802 177.803 298.202 174.503L371.802 74.7025C375.503 69.7025 373.902 64.3025 370.603 61.2025C367.303 58.1025 361.902 56.8025 357.103 60.7025L261.302 139.503C258.102 142.103 254.002 142.803 250.202 141.303C246.402 139.803 243.703 136.503 243.103 132.503L224.503 9.7025C223.603 3.5025 218.602 0.902496 214.102 1.0025C209.602 1.1025 204.803 4.0025 204.202 10.2025L192.102 133.702C191.702 137.803 189.202 141.202 185.503 142.902C181.803 144.602 177.602 144.102 174.302 141.702L74.5025 68.0025C69.5025 64.3025 64.1025 65.9025 61.0025 69.2025C57.9025 72.5025 56.6025 77.9025 60.5025 82.7025L139.302 178.503C141.902 181.702 142.602 185.803 141.102 189.603C139.602 193.403 136.302 196.102 132.302 196.702L9.6025 215.402C3.4025 216.302 0.802496 221.303 0.902496 225.803C1.0025 230.303 3.9025 235.103 10.1025 235.703L133.602 247.802C137.702 248.202 141.102 250.702 142.802 254.402C144.502 258.103 144.002 262.303 141.602 265.603L67.9025 365.402C64.2025 370.402 65.8025 375.802 69.1025 378.902C72.4025 382.003 77.8025 383.302 82.6025 379.402L178.402 300.603C180.602 298.902 183.002 298.003 185.602 298.003Z" fill="white"/>
<path d="M210.802 439.802C210.602 439.802 210.402 439.802 210.302 439.802C205.402 439.602 200.102 436.302 199.602 429.502L189.702 305.802C189.402 302.102 187.202 298.902 183.802 297.402C180.402 295.802 176.602 296.202 173.602 298.302L72.5025 370.202C66.9025 374.202 61.1025 372.302 57.7025 368.602C54.4025 365.002 53.0025 359.002 57.4025 353.702L137.802 259.202C140.202 256.402 140.902 252.602 139.602 249.102C138.302 245.602 135.402 243.102 131.702 242.502L9.40248 222.002C2.60248 220.902 -0.197516 215.402 0.102484 210.402C0.302484 205.502 3.60248 200.202 10.4025 199.702L134.102 189.802C137.802 189.502 141.002 187.302 142.502 183.902C144.102 180.502 143.702 176.702 141.602 173.702L69.7025 72.6024C65.7025 67.0024 67.6025 61.2024 71.3025 57.8024C74.9025 54.5024 80.9025 53.1024 86.2025 57.5024L180.702 137.902C183.502 140.302 187.302 141.002 190.802 139.702C194.302 138.402 196.802 135.502 197.402 131.802L217.902 9.50243C219.002 2.70243 224.502 0.00243482 229.502 0.202435C234.402 0.402435 239.702 3.70243 240.202 10.5024L250.102 134.202C250.402 137.902 252.602 141.102 256.002 142.602C259.402 144.202 263.202 143.802 266.202 141.702L367.302 69.8024C372.902 65.8024 378.703 67.7024 382.103 71.4024C385.402 75.0024 386.802 81.0024 382.402 86.3024L302.003 180.802C299.603 183.602 298.902 187.402 300.202 190.902C301.502 194.402 304.402 196.902 308.103 197.502L430.402 218.002C437.202 219.102 440.002 224.602 439.702 229.602C439.502 234.502 436.202 239.802 429.402 240.302L305.702 250.202C302.002 250.502 298.802 252.702 297.302 256.102C295.702 259.502 296.102 263.302 298.202 266.302L370.103 367.402C374.103 373.002 372.203 378.802 368.503 382.202C364.902 385.502 358.902 386.902 353.603 382.502L259.103 302.102C256.303 299.702 252.502 299.002 249.002 300.302C245.502 301.602 243.002 304.502 242.402 308.202L221.902 430.502C220.802 437.002 215.602 439.802 210.802 439.802ZM179.502 295.402C181.102 295.402 182.702 295.802 184.302 296.502C188.002 298.202 190.402 301.702 190.702 305.802L200.602 429.502C201.102 435.702 205.902 438.702 210.302 438.902C214.802 439.102 219.802 436.502 220.802 430.402L241.502 308.002C242.202 304.002 244.902 300.702 248.702 299.302C252.502 297.902 256.702 298.602 259.802 301.302L354.302 381.702C359.003 385.702 364.503 384.502 367.802 381.502C371.102 378.502 372.802 373.102 369.202 368.002L297.302 266.902C294.902 263.602 294.503 259.402 296.302 255.702C298.003 252.002 301.503 249.602 305.603 249.302L429.302 239.402C435.503 238.902 438.502 234.102 438.702 229.702C438.902 225.202 436.302 220.202 430.202 219.202L307.902 198.402C303.902 197.702 300.602 195.002 299.202 191.202C297.802 187.402 298.502 183.202 301.202 180.102L381.603 85.6024C385.603 80.8024 384.402 75.4024 381.402 72.1024C378.402 68.8024 373.003 67.1024 367.902 70.7024L266.802 142.602C263.503 145.002 259.302 145.402 255.602 143.602C251.902 141.902 249.502 138.402 249.202 134.302L239.302 10.6024C238.802 4.40243 234.002 1.40243 229.602 1.20243C225.102 1.00243 220.102 3.60243 219.102 9.70243L198.302 132.002C197.602 136.002 194.902 139.302 191.102 140.702C187.302 142.102 183.102 141.402 180.002 138.702L85.5025 58.3024C80.7025 54.3024 75.3025 55.5024 72.0025 58.5024C68.7025 61.5024 67.0025 66.9024 70.6025 72.0024L142.502 173.102C144.902 176.402 145.302 180.602 143.502 184.302C141.802 188.002 138.302 190.402 134.202 190.702L10.5025 200.602C4.30248 201.102 1.30248 205.902 1.10248 210.302C0.902484 214.802 3.50248 219.802 9.60248 220.802L131.902 241.602C135.902 242.302 139.202 245.002 140.602 248.802C142.002 252.602 141.302 256.802 138.602 259.902L58.2025 354.402C54.2025 359.202 55.4025 364.602 58.4025 367.902C61.4025 371.202 66.8025 372.902 71.9025 369.302L173.002 297.402C174.902 296.102 177.202 295.402 179.502 295.402Z" fill="white"/>
<path d="M196.402 438.702C195.902 438.702 195.502 438.702 195.002 438.602C190.102 438.002 185.102 434.402 185.002 427.602L183.702 303.602C183.702 299.902 181.702 296.602 178.402 294.802C175.102 293.002 171.302 293.102 168.102 295.002L62.3025 359.602C56.5025 363.202 50.7025 360.902 47.7025 357.002C44.6025 353.102 43.7025 347.102 48.5025 342.202L135.302 253.602C137.902 250.902 138.902 247.202 137.802 243.602C136.802 240.002 134.002 237.402 130.402 236.502L9.80249 207.302C3.10249 205.702 0.702486 200.002 1.30249 195.102C1.90249 190.202 5.50249 185.202 12.3025 185.102L136.302 183.802C140.002 183.802 143.302 181.802 145.102 178.502C146.902 175.202 146.802 171.402 144.902 168.202L80.3025 62.4025C76.7025 56.6025 79.0025 50.8025 82.9025 47.8025C86.8025 44.7025 92.8025 43.8025 97.7025 48.6025L186.302 135.402C189.002 138.002 192.702 139.002 196.302 137.902C199.902 136.902 202.502 134.102 203.402 130.502L232.602 9.90246C234.202 3.20246 239.902 0.802461 244.802 1.40246C249.702 2.00246 254.702 5.60246 254.802 12.4025L256.102 136.402C256.102 140.102 258.103 143.402 261.402 145.202C264.702 147.002 268.502 146.902 271.702 145.002L377.603 80.4025C383.402 76.8025 389.202 79.1025 392.202 83.0025C395.302 86.9025 396.202 92.9025 391.402 97.8025L304.603 186.402C302.003 189.102 301.003 192.802 302.103 196.402C303.103 200.002 305.902 202.602 309.503 203.502L430.103 232.702C436.803 234.302 439.203 240.002 438.603 244.902C438.003 249.802 434.402 254.802 427.603 254.902L303.603 256.202C299.902 256.202 296.602 258.202 294.802 261.502C293.003 264.802 293.103 268.602 295.003 271.802L359.603 377.702C363.203 383.502 360.902 389.302 357.003 392.302C353.103 395.402 347.102 396.302 342.202 391.502L253.602 304.702C250.902 302.102 247.202 301.102 243.602 302.202C240.002 303.202 237.402 306.002 236.502 309.602L207.302 430.202C205.702 436.102 200.902 438.702 196.402 438.702ZM173.502 292.402C175.402 292.402 177.202 292.902 178.902 293.802C182.502 295.802 184.602 299.402 184.702 303.502L186.002 427.502C186.102 433.702 190.602 437.002 195.102 437.602C199.602 438.102 204.702 435.902 206.202 429.802L235.402 309.202C236.402 305.202 239.302 302.202 243.202 301.002C247.102 299.902 251.202 300.902 254.102 303.802L342.702 390.602C347.202 395.002 352.702 394.102 356.202 391.302C359.702 388.502 361.803 383.302 358.603 378.002L294.003 272.102C291.902 268.602 291.802 264.402 293.802 260.802C295.802 257.202 299.402 255.102 303.503 255.002L427.503 253.702C433.703 253.602 437.003 249.102 437.603 244.602C438.103 240.102 435.902 235.002 429.802 233.502L309.202 204.302C305.202 203.302 302.203 200.402 301.003 196.502C299.802 192.602 300.902 188.502 303.802 185.602L390.603 97.0025C395.003 92.5025 394.102 87.0025 391.302 83.5025C388.503 80.0025 383.302 77.9025 378.003 81.1025L272.103 145.702C268.603 147.802 264.402 147.902 260.802 145.902C257.202 143.902 255.102 140.302 255.002 136.202L253.702 12.2025C253.602 6.00246 249.102 2.70246 244.602 2.10246C240.102 1.60246 235.002 3.80246 233.502 9.90246L204.302 130.502C203.302 134.502 200.402 137.502 196.502 138.702C192.602 139.802 188.502 138.802 185.602 135.902L97.0025 49.1025C92.5025 44.7025 87.0025 45.6025 83.5025 48.4025C80.0025 51.2025 77.9025 56.4025 81.1025 61.7025L145.702 167.602C147.802 171.102 147.902 175.302 145.902 178.902C143.902 182.502 140.302 184.602 136.202 184.702L12.2025 186.002C6.00249 186.102 2.70249 190.602 2.10249 195.102C1.60249 199.602 3.80249 204.702 9.90249 206.202L130.502 235.402C134.502 236.402 137.502 239.302 138.702 243.202C139.902 247.102 138.802 251.202 135.902 254.102L49.1025 342.702C44.7025 347.202 45.6025 352.702 48.4025 356.202C51.2025 359.702 56.4025 361.802 61.7025 358.602L167.602 294.002C169.502 293.002 171.502 292.402 173.502 292.402Z" fill="white"/>
<path d="M182.003 436.603C181.303 436.603 180.503 436.503 179.803 436.402C174.903 435.503 170.203 431.503 170.603 424.703L178.003 300.902C178.203 297.202 176.503 293.703 173.403 291.703C170.303 289.703 166.403 289.503 163.103 291.203L53.0025 348.203C46.9025 351.403 41.4025 348.703 38.6025 344.603C35.8025 340.503 35.3025 334.402 40.4025 329.802L133.203 247.502C136.003 245.002 137.203 241.402 136.403 237.702C135.603 234.102 133.003 231.202 129.503 230.102L11.2025 192.602C4.70254 190.502 2.70254 184.702 3.60254 179.902C4.50254 175.002 8.50254 170.302 15.3025 170.702L139.103 178.102C142.803 178.302 146.303 176.602 148.303 173.502C150.303 170.402 150.503 166.502 148.803 163.202L91.7025 53.1025C88.5025 47.0025 91.2025 41.5025 95.3025 38.7025C99.4025 35.9025 105.503 35.4025 110.103 40.5025L192.403 133.302C194.903 136.102 198.503 137.302 202.203 136.502C205.803 135.702 208.703 133.103 209.803 129.603L247.303 11.4025C249.403 4.90249 255.203 2.90249 260.003 3.80249C264.903 4.70249 269.603 8.70249 269.203 15.5025L261.803 139.302C261.603 143.002 263.303 146.502 266.403 148.502C269.503 150.502 273.403 150.702 276.703 149.002L386.803 91.9025C392.903 88.8025 398.403 91.4025 401.203 95.5025C404.003 99.6025 404.503 105.702 399.403 110.302L306.603 192.602C303.803 195.102 302.603 198.702 303.403 202.402C304.203 206.002 306.803 208.902 310.303 210.002L428.503 247.502C435.003 249.602 437.003 255.403 436.103 260.203C435.203 265.003 431.203 269.802 424.403 269.402L300.603 262.003C296.903 261.802 293.403 263.503 291.403 266.603C289.403 269.703 289.203 273.603 290.903 276.902L348.003 387.003C351.203 393.103 348.503 398.603 344.403 401.402C340.303 404.202 334.203 404.703 329.603 399.603L247.303 306.802C244.803 304.003 241.203 302.803 237.503 303.603C233.903 304.402 231.003 307.003 229.903 310.503L192.403 428.703C190.803 434.303 186.303 436.603 182.003 436.603ZM167.803 289.003C169.903 289.003 172.003 289.602 173.903 290.802C177.303 293.003 179.203 296.802 179.003 300.902L171.603 424.703C171.203 430.903 175.503 434.503 179.903 435.402C184.303 436.202 189.603 434.402 191.503 428.402L229.003 310.203C230.203 306.303 233.403 303.503 237.403 302.603C241.403 301.703 245.403 303.103 248.103 306.103L330.403 398.902C334.503 403.603 340.103 403.103 343.803 400.503C347.503 398.003 350.003 392.902 347.103 387.402L290.003 277.302C288.103 273.702 288.303 269.503 290.603 266.003C292.803 262.603 296.603 260.702 300.703 260.902L424.503 268.302C430.703 268.702 434.303 264.402 435.203 260.003C436.103 255.603 434.203 250.302 428.203 248.402L310.003 210.902C306.103 209.702 303.303 206.502 302.403 202.502C301.503 198.502 302.903 194.502 305.903 191.802L398.703 109.502C403.403 105.402 402.903 99.8025 400.303 96.1025C397.803 92.4025 392.703 89.9025 387.203 92.8025L277.103 149.902C273.503 151.802 269.303 151.602 265.803 149.302C262.403 147.102 260.503 143.302 260.703 139.202L268.103 15.4025C268.503 9.20249 264.203 5.60249 259.803 4.70249C255.403 3.90249 250.103 5.70249 248.203 11.7025L210.703 129.902C209.503 133.802 206.303 136.602 202.303 137.502C198.303 138.402 194.303 137.002 191.603 134.002L109.303 41.2025C105.203 36.5025 99.6025 37.0025 95.9025 39.6025C92.2025 42.1025 89.7025 47.2025 92.6025 52.7025L149.703 162.802C151.603 166.402 151.403 170.602 149.103 174.102C146.903 177.502 143.103 179.402 139.003 179.202L15.2025 171.802C8.90254 171.402 5.40254 175.702 4.50254 180.102C3.70254 184.502 5.50254 189.802 11.5025 191.702L129.703 229.202C133.603 230.402 136.403 233.602 137.303 237.602C138.203 241.602 136.803 245.602 133.803 248.302L41.0025 330.603C36.3025 334.703 36.8025 340.302 39.4025 344.003C41.9025 347.703 47.0025 350.202 52.5025 347.302L162.603 290.203C164.303 289.403 166.103 289.003 167.803 289.003Z" fill="white"/>
<path d="M167.802 433.402C166.802 433.402 165.702 433.302 164.802 433.002C160.002 431.802 155.602 427.502 156.502 420.702L172.502 297.702C173.002 294.002 171.502 290.502 168.502 288.202C165.502 286.002 161.702 285.502 158.302 287.002L44.4025 336.302C38.1025 339.002 32.8025 335.902 30.3025 331.702C27.8025 327.402 27.7025 321.302 33.1025 317.102L131.402 241.402C134.402 239.102 135.802 235.602 135.302 231.902C134.802 228.202 132.402 225.202 128.902 223.802L13.6025 178.202C7.20248 175.702 5.60248 169.702 6.90248 165.002C8.10248 160.202 12.4025 155.802 19.2025 156.702L142.202 172.702C145.902 173.202 149.402 171.702 151.702 168.702C153.902 165.702 154.402 161.902 152.902 158.502L103.602 44.5025C100.902 38.2025 104.002 32.9025 108.202 30.4025C112.502 27.9025 118.602 27.8025 122.802 33.2025L198.502 131.502C200.802 134.502 204.302 135.902 208.002 135.402C211.702 134.902 214.702 132.502 216.102 129.002L261.702 13.7025C264.202 7.30245 270.202 5.70245 274.902 7.00245C279.702 8.20245 284.102 12.5025 283.202 19.3025L267.202 142.302C266.702 146.002 268.202 149.502 271.202 151.802C274.202 154.002 278.002 154.502 281.402 153.002L395.202 103.702C401.502 101.002 406.802 104.102 409.302 108.302C411.802 112.602 411.902 118.702 406.502 122.902L308.202 198.602C305.202 200.902 303.802 204.402 304.302 208.102C304.802 211.802 307.202 214.802 310.702 216.202L426.002 261.802C432.402 264.302 434.002 270.302 432.702 275.002C431.502 279.802 427.202 284.202 420.402 283.302L297.402 267.302C293.702 266.802 290.202 268.302 287.902 271.302C285.702 274.302 285.202 278.102 286.702 281.502L336.002 395.302C338.702 401.602 335.602 406.902 331.402 409.402C327.102 411.902 321.002 412.002 316.802 406.602L241.102 308.302C238.802 305.302 235.302 303.902 231.602 304.402C227.902 304.902 224.902 307.302 223.502 310.802L177.902 426.102C176.002 431.402 171.902 433.402 167.802 433.402ZM162.402 285.102C164.802 285.102 167.102 285.902 169.102 287.402C172.402 289.902 174.002 293.802 173.502 297.802L157.502 420.802C156.702 427.002 160.702 430.902 165.102 432.002C169.502 433.102 174.902 431.702 177.202 425.902L222.802 310.602C224.302 306.802 227.602 304.202 231.702 303.602C235.702 303.002 239.702 304.602 242.202 307.902L317.902 406.202C321.702 411.102 327.302 411.102 331.202 408.802C335.102 406.502 337.902 401.702 335.402 395.902L286.002 282.002C284.402 278.202 284.902 274.102 287.302 270.802C289.802 267.502 293.602 265.902 297.702 266.402L420.702 282.402C426.902 283.202 430.802 279.202 431.902 274.802C433.002 270.402 431.602 265.002 425.802 262.702L310.502 217.102C306.702 215.602 304.102 212.302 303.502 208.202C302.902 204.102 304.502 200.202 307.802 197.702L406.102 122.002C411.002 118.202 411.002 112.602 408.702 108.702C406.402 104.802 401.602 102.002 395.802 104.502L281.902 153.902C278.102 155.502 274.002 155.002 270.702 152.602C267.402 150.102 265.802 146.202 266.302 142.202L282.302 19.2025C283.102 13.0025 279.102 9.10245 274.702 8.00245C270.402 6.90245 264.902 8.30245 262.602 14.1024L217.002 129.402C215.502 133.202 212.202 135.802 208.102 136.402C204.002 137.002 200.102 135.402 197.602 132.102L121.902 33.8025C118.102 28.9025 112.502 28.9025 108.602 31.2025C104.702 33.5025 101.902 38.3025 104.402 44.1025L153.802 158.002C155.402 161.802 154.902 165.902 152.502 169.202C150.002 172.502 146.102 174.102 142.102 173.602L19.1025 157.602C12.9025 156.802 9.00248 160.802 7.90248 165.202C6.80248 169.602 8.20247 175.002 14.0025 177.302L129.302 222.902C133.102 224.402 135.702 227.702 136.302 231.802C136.902 235.902 135.302 239.802 132.002 242.302L33.7025 318.002C28.8025 321.802 28.8025 327.402 31.1025 331.302C33.4025 335.202 38.2025 338.002 44.0025 335.502L157.902 286.102C159.302 285.402 160.902 285.102 162.402 285.102Z" fill="white"/>
<path d="M153.903 429.303C152.603 429.303 151.303 429.103 150.103 428.703C145.403 427.103 141.303 422.503 142.703 415.803L167.203 294.203C167.903 290.503 166.703 286.903 163.903 284.503C161.103 282.103 157.303 281.303 153.803 282.603L36.8025 323.803C30.3025 326.103 25.2025 322.603 23.0025 318.203C20.8025 313.803 21.1025 307.603 26.8025 303.803L130.103 235.203C133.203 233.103 134.903 229.703 134.603 226.003C134.303 222.303 132.203 219.103 128.803 217.503L17.0025 163.903C10.8025 160.903 9.60253 154.903 11.2025 150.203C12.8025 145.503 17.4025 141.403 24.1025 142.803L145.703 167.303C149.403 168.003 153.003 166.803 155.403 164.003C157.803 161.203 158.603 157.403 157.303 153.903L116.103 36.9025C113.803 30.4025 117.303 25.3025 121.703 23.1025C126.103 20.9025 132.303 21.2025 136.103 26.9025L204.703 130.203C206.803 133.303 210.203 135.003 213.903 134.703C217.603 134.403 220.803 132.303 222.403 128.903L276.003 17.0025C279.003 10.8025 285.003 9.60253 289.703 11.2025C294.403 12.8025 298.503 17.4025 297.103 24.1025L272.603 145.703C271.903 149.403 273.103 153.003 275.903 155.403C278.703 157.803 282.503 158.603 286.003 157.303L403.003 116.103C409.503 113.803 414.603 117.303 416.803 121.703C419.003 126.103 418.703 132.303 413.003 136.103L309.703 204.703C306.603 206.803 304.903 210.203 305.203 213.903C305.503 217.603 307.603 220.803 311.003 222.403L422.903 276.003C429.103 279.003 430.303 285.003 428.703 289.703C427.103 294.403 422.503 298.503 415.803 297.103L294.203 272.603C290.503 271.903 286.903 273.103 284.503 275.903C282.103 278.703 281.303 282.503 282.603 286.003L323.803 403.003C326.103 409.503 322.603 414.603 318.203 416.803C313.803 419.003 307.603 418.703 303.803 413.003L235.203 309.703C233.103 306.603 229.703 304.903 226.003 305.203C222.303 305.503 219.103 307.603 217.503 311.003L163.903 422.903C161.603 427.503 157.703 429.303 153.903 429.303ZM157.203 280.903C159.803 280.903 162.403 281.803 164.503 283.703C167.603 286.403 168.903 290.403 168.103 294.403L143.603 416.003C142.403 422.103 146.103 426.303 150.403 427.703C154.703 429.103 160.203 428.003 162.903 422.403L216.503 310.503C218.303 306.803 221.803 304.403 225.803 304.203C229.903 303.903 233.703 305.803 235.903 309.203L304.503 412.503C308.003 417.703 313.603 418.003 317.603 416.003C321.603 414.003 324.803 409.303 322.703 403.503L281.503 286.503C280.103 282.603 280.903 278.503 283.603 275.403C286.303 272.303 290.303 271.003 294.303 271.803L415.903 296.303C422.003 297.503 426.203 293.803 427.603 289.503C429.003 285.203 427.903 279.703 422.303 277.003L310.403 223.403C306.703 221.603 304.303 218.103 304.103 214.103C303.803 210.003 305.703 206.203 309.103 204.003L412.403 135.403C417.603 131.903 417.903 126.303 415.903 122.303C413.903 118.303 409.203 115.103 403.403 117.203L286.403 158.403C282.503 159.803 278.403 159.003 275.303 156.303C272.203 153.603 270.903 149.603 271.703 145.603L296.203 24.0025C297.403 17.9025 293.703 13.7025 289.403 12.3025C285.103 10.9025 279.603 12.0025 276.903 17.6025L223.303 129.503C221.503 133.203 218.003 135.603 214.003 135.803C209.903 136.103 206.103 134.203 203.903 130.803L135.203 27.5025C131.803 22.3025 126.103 22.0025 122.103 24.0025C118.103 26.0025 114.903 30.7025 117.003 36.5025L158.203 153.503C159.603 157.403 158.803 161.503 156.103 164.603C153.403 167.703 149.403 169.103 145.403 168.203L23.9025 143.703C17.8025 142.503 13.6025 146.203 12.2025 150.503C10.8025 154.803 11.9025 160.303 17.5025 163.003L129.403 216.603C133.103 218.403 135.503 221.903 135.703 225.903C136.003 230.003 134.103 233.803 130.703 236.003L27.4025 304.703C22.2025 308.203 21.9025 313.803 23.9025 317.803C25.9025 321.803 30.6025 325.003 36.4025 322.903L153.403 281.703C154.703 281.203 155.903 280.903 157.203 280.903Z" fill="white"/>
<path d="M299.503 424.202C296.003 424.202 292.303 422.602 290.003 418.502L228.703 310.602C226.903 307.402 223.503 305.402 219.803 305.402C216.103 305.402 212.803 307.302 210.903 310.602L149.603 418.502C146.203 424.502 140.103 425.202 135.503 423.302C130.903 421.402 127.203 416.502 129.003 409.902L162.003 290.302C163.003 286.702 162.003 283.002 159.403 280.402C156.803 277.802 153.003 276.802 149.503 277.802L29.9025 310.802C23.3025 312.602 18.4025 308.802 16.5025 304.302C14.6025 299.802 15.4025 293.602 21.3025 290.202L129.203 228.902C132.403 227.102 134.403 223.702 134.403 220.002C134.403 216.302 132.503 212.902 129.203 211.102L21.4025 149.902C15.4025 146.502 14.7025 140.402 16.6025 135.802C18.5025 131.202 23.4025 127.502 30.0025 129.302L149.603 162.302C153.203 163.302 156.903 162.302 159.503 159.702C162.103 157.102 163.103 153.302 162.103 149.802L129.103 30.2024C127.303 23.6024 131.103 18.7024 135.603 16.8024C140.203 14.9024 146.303 15.7024 149.703 21.6024L211.003 129.502C212.803 132.702 216.203 134.702 219.903 134.702C223.603 134.702 227.003 132.802 228.803 129.502L290.103 21.6024C293.503 15.6024 299.603 14.9024 304.203 16.8024C308.803 18.7024 312.503 23.5024 310.703 30.2024L277.703 149.802C276.703 153.402 277.703 157.102 280.303 159.702C282.903 162.302 286.703 163.302 290.203 162.302L409.803 129.302C416.403 127.502 421.303 131.302 423.203 135.802C425.103 140.402 424.303 146.502 418.403 149.902L310.503 211.202C307.303 213.002 305.303 216.402 305.303 220.102C305.303 223.802 307.203 227.102 310.503 229.002L418.403 290.302C424.403 293.702 425.103 299.802 423.203 304.402C421.303 309.002 416.503 312.702 409.803 310.902L290.203 277.902C286.603 276.902 282.903 277.902 280.303 280.502C277.703 283.102 276.703 286.902 277.703 290.402L310.703 410.002C312.503 416.602 308.703 421.502 304.203 423.402C302.703 423.902 301.103 424.202 299.503 424.202ZM219.903 304.402C224.003 304.402 227.603 306.502 229.703 310.102L290.903 418.002C294.003 423.402 299.503 424.102 303.703 422.402C307.903 420.702 311.303 416.302 309.603 410.202L276.603 290.602C275.503 286.702 276.603 282.602 279.503 279.702C282.403 276.802 286.503 275.702 290.403 276.802L410.003 309.802C416.003 311.502 420.403 308.002 422.203 303.902C423.903 299.702 423.203 294.202 417.803 291.102L309.903 229.802C306.303 227.802 304.203 224.102 304.203 220.002C304.203 215.902 306.303 212.302 309.903 210.202L417.903 149.002C423.303 145.902 424.003 140.302 422.303 136.202C420.603 132.002 416.203 128.602 410.103 130.302L290.503 163.302C286.603 164.402 282.503 163.302 279.603 160.402C276.703 157.502 275.603 153.402 276.703 149.502L309.703 29.9024C311.403 23.9024 307.903 19.5024 303.803 17.7024C299.603 16.0024 294.103 16.7024 291.003 22.1024L229.703 130.002C227.703 133.602 224.003 135.702 219.903 135.702C215.803 135.702 212.203 133.602 210.103 130.002L148.903 22.0024C145.803 16.6024 140.203 15.9024 136.103 17.6024C131.903 19.3024 128.503 23.7024 130.203 29.8024L163.203 149.402C164.303 153.302 163.203 157.402 160.303 160.302C157.403 163.202 153.303 164.302 149.403 163.202L29.8025 130.202C23.8025 128.502 19.4025 132.002 17.6025 136.102C15.9025 140.302 16.6025 145.802 22.0025 148.902L129.903 210.202C133.503 212.202 135.603 215.902 135.603 220.002C135.603 224.102 133.503 227.702 129.903 229.802L21.9025 291.002C16.5025 294.102 15.8025 299.702 17.5025 303.802C19.2025 308.002 23.7025 311.402 29.7025 309.702L149.303 276.702C153.203 275.602 157.303 276.702 160.203 279.602C163.103 282.502 164.203 286.602 163.103 290.502L130.103 410.102C128.403 416.102 131.903 420.502 136.003 422.302C140.203 424.002 145.703 423.302 148.803 417.902L210.103 310.002C212.203 306.502 215.803 304.402 219.903 304.402Z" fill="white"/>
</svg>
