<svg width="362" height="363" viewBox="0 0 362 363" fill="none" xmlns="http://www.w3.org/2000/svg">
<path d="M264.958 362.451C263.158 362.451 261.358 362.351 259.558 362.051C248.258 360.251 238.458 353.151 228.858 346.351C218.558 339.051 208.958 332.051 197.858 331.451C184.858 330.651 171.258 337.451 156.958 344.651C140.758 352.751 124.058 361.151 107.058 358.851C88.9575 356.351 77.3575 340.151 66.0575 324.351C60.8575 317.151 56.0575 310.351 50.6575 305.051C45.3575 299.751 38.9575 295.151 32.7575 290.651C19.0575 280.751 4.95754 270.451 1.85754 252.151C-2.04246 229.251 3.25754 205.051 8.35754 181.651C11.7575 166.251 14.8575 151.651 15.6575 137.351C16.1575 128.851 11.8575 122.651 7.65754 116.751C3.65754 110.951 -0.542466 105.051 0.0575344 97.051C1.55753 77.051 24.2575 54.351 37.7575 40.851L38.5575 40.051C69.4575 9.15099 88.8575 2.95099 100.758 0.950994C117.558 -1.84901 135.058 2.05099 151.958 5.95099C164.358 8.75099 176.058 11.451 187.058 11.451C187.058 11.451 187.058 11.451 187.158 11.451C196.958 11.451 207.258 8.75099 218.258 5.95099C231.558 2.45099 245.258 -1.04901 258.558 0.350988C284.458 3.05099 307.458 23.051 324.558 40.151C342.458 58.051 361.558 79.151 361.058 103.051C360.758 119.351 352.558 135.151 344.758 150.351C337.258 164.851 330.258 178.551 330.358 191.551C330.558 202.451 337.358 213.651 344.658 225.551C352.458 238.351 360.558 251.551 360.958 265.451C361.558 289.151 336.558 314.151 324.558 326.151C310.458 339.851 287.758 362.451 264.958 362.451ZM195.758 330.351C196.458 330.351 197.258 330.351 197.958 330.451C209.358 331.151 219.158 338.151 229.558 345.551C238.958 352.251 248.758 359.251 259.758 361.051C283.858 364.951 308.758 340.051 323.658 325.151C335.558 313.251 360.358 288.451 359.758 265.151C359.458 251.551 351.458 238.451 343.658 225.751C336.258 213.751 329.358 202.351 329.158 191.251C328.958 178.051 336.058 164.251 343.658 149.651C351.458 134.451 359.558 118.851 359.858 102.751C360.358 79.251 341.458 58.351 323.658 40.551C306.658 23.551 283.858 3.75099 258.258 1.05099C245.158 -0.349008 231.558 3.25099 218.358 6.65099C207.358 9.55099 196.958 12.251 187.058 12.251C187.058 12.251 187.058 12.251 186.958 12.251C175.858 12.251 164.058 9.55099 151.558 6.75099C134.758 2.95099 117.358 -1.04901 100.758 1.75099C76.1575 5.85099 53.7575 25.851 39.1575 40.551L38.3575 41.351C24.8575 54.751 2.35754 77.351 0.957536 96.951C0.357536 104.551 4.25754 110.051 8.45754 115.951C12.7575 122.051 17.1575 128.351 16.6575 137.151C15.8575 151.551 12.5575 166.851 9.35754 181.551C4.25754 204.851 -0.942464 228.951 2.95754 251.651C5.95754 269.451 19.3575 279.251 33.4575 289.451C39.6575 293.951 46.0575 298.551 51.4575 303.951C56.8575 309.351 61.7575 316.151 66.9575 323.351C78.1575 338.951 89.6575 355.051 107.358 357.451C124.058 359.751 140.658 351.351 156.658 343.351C170.158 336.851 183.158 330.351 195.758 330.351Z" fill="white"/>
<path d="M261.258 346.851C260.458 346.851 259.658 346.851 258.858 346.751C247.158 345.851 236.258 338.951 225.658 332.251C215.558 325.851 206.058 319.851 196.658 319.451C187.758 319.051 176.758 323.351 165.158 327.851C148.858 334.151 130.458 341.251 114.958 336.051C100.758 331.251 91.8577 317.451 83.2577 303.951C78.2577 296.151 73.5577 288.751 67.8577 283.151C62.4577 277.751 55.7577 273.451 49.2577 269.351C37.9577 262.051 26.1577 254.551 21.3577 240.851C14.3577 220.951 19.0577 196.651 23.6577 173.251C25.9577 161.351 28.1577 150.151 28.5577 140.351C28.8577 133.051 25.2577 127.151 21.7577 121.451C18.5577 116.251 15.3577 110.951 14.9577 104.551C13.9577 86.251 36.3577 63.951 48.3577 51.951L49.3577 50.951C63.4577 36.851 82.9577 19.951 107.958 15.451C124.158 12.451 141.258 15.751 157.758 18.851C168.858 20.951 179.258 22.851 188.858 22.951C196.858 22.951 205.858 20.951 215.458 18.751C229.858 15.551 244.658 12.151 258.258 15.251C280.258 20.151 299.258 36.951 313.358 51.051C329.158 66.851 345.958 85.651 345.158 109.251C344.658 123.951 337.558 138.851 330.658 153.251C324.158 166.851 318.058 179.651 318.158 190.851C318.258 200.251 324.258 210.851 330.658 222.151C337.558 234.451 344.758 247.051 345.158 259.551C345.858 280.651 329.058 299.251 313.258 315.051C301.358 326.951 281.458 346.851 261.258 346.851ZM195.658 318.451C196.058 318.451 196.458 318.451 196.858 318.451C206.458 318.851 216.158 324.951 226.358 331.351C236.858 337.951 247.658 344.751 259.058 345.651C279.558 347.251 300.358 326.551 312.758 314.151C328.358 298.551 344.958 280.151 344.358 259.451C343.958 247.251 336.858 234.651 329.958 222.551C323.558 211.151 317.458 200.451 317.358 190.851C317.158 179.351 323.358 166.451 329.958 152.751C336.858 138.451 343.958 123.651 344.358 109.151C345.058 85.951 328.458 67.351 312.858 51.751C298.858 37.751 280.058 21.051 258.258 16.251C244.858 13.251 230.158 16.551 215.858 19.751C206.258 21.951 197.258 23.951 189.158 23.951H189.058C179.358 23.951 168.958 21.951 157.858 19.851C141.458 16.751 124.458 13.551 108.458 16.451C83.7577 20.951 64.4577 37.651 50.4577 51.751L49.4577 52.751C37.5577 64.651 15.3577 86.751 16.3577 104.651C16.6577 110.851 19.7577 115.851 23.0577 121.151C26.6577 126.951 30.3577 132.951 29.9577 140.651C29.5577 150.551 27.3577 161.851 25.0577 173.751C20.5577 197.051 15.8577 221.151 22.7577 240.851C27.4577 254.251 38.4577 261.351 50.1577 268.851C56.6577 273.051 63.3577 277.351 68.8577 282.851C74.5577 288.551 79.3577 295.951 84.4577 303.851C92.9577 317.151 101.758 330.851 115.658 335.551C130.858 340.651 148.358 333.851 165.258 327.351C176.158 322.551 186.758 318.451 195.658 318.451Z" fill="white"/>
<path d="M253.757 331.951C252.657 331.951 251.557 331.951 250.457 331.851C240.557 331.051 230.757 326.351 221.257 321.951C211.657 317.451 202.657 313.151 194.057 312.851C187.557 312.651 179.757 314.251 171.557 316.051C156.757 319.151 139.957 322.751 126.757 315.951C114.657 309.751 107.757 297.251 101.057 285.251C96.3574 276.851 91.5574 268.051 85.0574 261.651C79.5574 256.251 72.3574 252.451 65.3574 248.751C54.8574 243.251 44.0574 237.551 38.8574 226.251C31.3574 209.751 33.8574 188.351 36.1574 169.451C37.0574 161.751 37.9574 154.451 38.1574 147.951C38.3574 141.851 35.9574 135.751 33.7574 129.751C31.3574 123.551 28.9574 117.051 29.2574 110.551C30.1574 92.151 49.0574 73.251 60.3574 61.951C95.7574 26.551 135.157 27.451 176.957 28.451C182.357 28.551 187.857 28.751 193.457 28.751C199.957 28.851 206.757 27.851 214.157 26.851C226.357 25.151 239.057 23.451 250.657 26.351C269.857 31.151 287.557 47.051 302.457 61.851C316.257 75.651 330.957 92.251 330.557 115.151C330.357 128.251 325.257 141.651 320.457 154.651C315.857 167.051 311.457 178.751 311.557 189.251C311.657 198.151 315.957 208.151 320.557 218.751C325.857 230.951 331.257 243.551 330.857 255.751C330.257 273.751 316.857 289.551 302.557 303.851C288.857 317.551 272.857 331.951 253.757 331.951ZM192.857 311.751C193.257 311.751 193.657 311.751 194.057 311.751C202.857 312.051 211.957 316.351 221.657 320.951C231.057 325.351 240.757 329.951 250.557 330.751C270.757 332.451 287.557 317.451 301.757 303.251C315.957 289.051 329.157 273.451 329.757 255.751C330.157 243.751 324.757 231.251 319.557 219.151C314.957 208.451 310.557 198.351 310.457 189.351C310.357 178.751 314.757 166.851 319.457 154.351C324.257 141.451 329.257 128.051 329.457 115.151C329.857 92.651 315.257 76.151 301.657 62.551C286.857 47.751 269.257 32.051 250.357 27.251C238.957 24.351 226.357 26.051 214.257 27.751C206.857 28.751 199.957 29.651 193.457 29.651C187.857 29.551 182.357 29.451 176.957 29.351C133.657 28.351 96.1574 27.451 61.0574 62.551C49.8574 73.751 31.1574 92.451 30.2574 110.451C29.9574 116.751 32.3574 123.151 34.6574 129.251C36.9574 135.251 39.2574 141.451 39.1574 147.751C38.9574 154.351 38.0574 161.651 37.1574 169.351C34.8574 188.151 32.3574 209.351 39.7574 225.551C44.7574 236.551 54.9574 241.951 65.7574 247.651C72.7574 251.351 80.0574 255.151 85.6574 260.651C92.3574 267.151 97.1574 275.951 101.857 284.451C108.457 296.351 115.257 308.751 127.057 314.751C139.957 321.351 156.557 317.851 171.157 314.751C179.157 313.351 186.557 311.751 192.857 311.751Z" fill="white"/>
<path d="M242.458 319.351C242.158 319.351 241.958 319.351 241.658 319.351C232.758 319.151 223.558 316.551 214.758 313.951C206.258 311.451 198.258 309.151 190.458 308.851C187.358 308.751 184.258 308.751 180.958 308.751C163.458 308.651 145.458 308.551 132.058 294.851C124.858 287.451 120.658 278.051 116.658 268.851C112.458 259.451 108.158 249.851 100.658 242.551C94.6577 236.751 86.8577 233.751 79.3577 230.951C70.5577 227.651 61.5577 224.251 55.3577 216.251C44.8577 202.751 45.3577 181.951 45.7577 165.351C45.8577 162.751 45.8577 160.151 45.8577 157.751C45.8577 152.251 44.9577 146.551 43.9577 141.051C42.5577 132.951 41.1577 124.551 42.7577 116.451C45.9577 100.351 58.3577 85.9511 71.3577 72.8511C109.058 34.7511 155.458 31.5511 199.658 31.5511C202.458 31.5511 205.258 31.4511 208.158 31.4511C222.558 31.1511 237.458 30.8511 250.458 37.2511C263.558 43.6511 275.058 55.7511 285.258 66.4511C287.458 68.7511 289.458 70.8511 291.558 72.9511C306.858 88.5511 317.258 103.051 317.958 123.651C318.358 134.751 315.458 146.051 312.658 156.951C309.858 167.651 307.258 177.751 307.658 187.651C307.958 195.751 310.158 204.351 312.558 213.451C315.458 224.551 318.458 236.051 317.658 247.051C316.258 266.651 303.458 281.051 291.558 293.051C278.458 306.051 262.458 319.351 242.458 319.351ZM217.258 32.2511C214.158 32.2511 211.158 32.3511 208.058 32.3511C205.058 32.4511 202.358 32.4511 199.558 32.4511C155.558 32.4511 109.458 35.6511 71.9577 73.4511C59.0577 86.4511 46.7577 100.651 43.5577 116.551C42.0577 124.451 43.4577 132.751 44.7577 140.751C45.7577 146.351 46.6577 152.051 46.6577 157.651C46.6577 160.051 46.5577 162.651 46.5577 165.251C46.1577 181.751 45.7577 202.351 55.9577 215.551C61.9577 223.351 70.4577 226.551 79.5577 229.951C87.1577 232.851 95.1577 235.851 101.258 241.751C108.858 249.151 113.258 258.951 117.458 268.451C121.458 277.551 125.658 286.851 132.658 294.151C145.758 307.551 163.558 307.651 180.858 307.751C184.058 307.751 187.258 307.751 190.458 307.851C198.358 308.151 206.458 310.451 215.058 312.951C223.758 315.451 232.858 318.151 241.658 318.251C261.658 318.551 277.658 305.251 290.658 292.151C302.458 280.251 315.158 266.051 316.558 246.751C317.358 235.951 314.358 224.451 311.458 213.451C309.058 204.351 306.858 195.751 306.558 187.451C306.258 177.451 308.858 167.251 311.658 156.451C314.458 145.651 317.358 134.451 316.958 123.451C316.258 103.151 305.958 88.7511 290.858 73.3511C288.758 71.2511 286.758 69.0511 284.558 66.8511C274.458 56.2511 262.958 44.2511 249.958 37.8511C239.858 33.0511 228.658 32.2511 217.258 32.2511Z" fill="white"/>
<path d="M225.958 308.651C219.058 308.651 212.058 307.851 205.258 307.051C198.858 306.351 192.758 305.651 186.758 305.551C167.658 305.351 151.158 296.851 140.458 281.651C135.658 274.851 132.458 266.651 129.258 258.751C125.058 248.251 120.758 237.351 112.758 229.651C106.358 223.551 98.1575 221.251 90.1575 219.051C83.5575 217.151 76.6575 215.251 70.6575 211.151C56.0575 200.951 52.9575 182.151 52.9575 168.051C52.9575 135.051 54.9575 111.351 82.2575 83.751C113.658 51.951 157.558 34.151 205.858 33.651C239.058 33.351 253.858 51.351 272.558 74.151C275.158 77.251 277.758 80.551 280.558 83.751C281.658 85.051 282.658 86.251 283.758 87.551C293.258 98.651 302.258 109.051 305.458 124.451C308.158 137.351 306.858 150.851 305.558 163.851C304.858 171.051 304.058 178.551 304.058 185.651C304.058 192.251 304.758 199.151 305.458 205.751C306.658 217.151 307.857 228.851 305.658 240.251C302.258 258.151 290.958 271.351 280.358 281.951C269.458 292.851 254.458 305.651 234.858 308.051C231.958 308.451 228.958 308.651 225.958 308.651ZM206.858 34.651C206.558 34.651 206.258 34.651 205.958 34.651C157.858 35.151 114.258 52.851 83.0575 84.451C56.0575 111.851 54.0575 135.351 54.0575 168.051C54.0575 181.851 57.0575 200.451 71.2575 210.351C77.0575 214.351 83.8575 216.251 90.4575 218.151C98.4575 220.351 106.858 222.751 113.458 229.051C121.658 236.851 126.058 247.851 130.258 258.451C133.358 266.251 136.558 274.451 141.358 281.151C151.858 296.051 168.058 304.451 186.858 304.651C192.858 304.751 199.258 305.451 205.458 306.151C215.158 307.251 225.258 308.351 234.958 307.151C254.258 304.751 269.058 292.051 279.858 281.351C290.358 270.851 301.558 257.751 304.858 240.151C306.958 228.951 305.758 217.251 304.658 205.951C303.958 199.251 303.258 192.351 303.258 185.751C303.258 178.551 304.058 171.051 304.758 163.851C306.058 150.951 307.357 137.551 304.658 124.751C301.458 109.651 292.557 99.351 283.158 88.351C282.057 87.151 281.058 85.851 279.958 84.551C277.158 81.251 274.558 78.051 271.958 74.951C253.458 52.351 238.958 34.651 206.858 34.651Z" fill="white"/>
<path d="M190.958 300.551C188.458 300.551 185.958 300.551 183.558 300.451C159.458 299.751 150.058 278.351 141.058 257.651C135.558 245.051 129.858 232.151 120.958 223.451C113.858 216.651 103.858 213.251 94.1576 210.051C77.3576 204.451 61.4576 199.151 61.5576 176.851C61.6576 141.751 71.9576 115.951 94.9576 93.251C128.858 59.851 173.458 38.551 211.358 37.751C238.158 37.151 251.158 59.251 263.658 80.651C266.158 84.851 268.758 89.251 271.358 93.351C273.358 96.551 275.558 99.651 277.658 102.651C283.558 111.251 289.758 120.051 293.258 130.151C298.958 146.351 298.958 164.751 298.958 180.951V184.051C298.958 220.551 294.158 246.451 269.558 271.051C244.658 295.951 216.358 300.551 190.958 300.551ZM183.558 299.451C210.458 300.251 241.658 297.451 268.758 270.351C293.158 245.951 297.858 220.251 297.858 184.051V180.951C297.858 164.851 297.858 146.551 292.258 130.551C288.758 120.651 282.658 111.851 276.758 103.351C274.658 100.251 272.458 97.151 270.458 93.951C267.858 89.851 265.258 85.451 262.758 81.251C250.358 60.151 237.558 38.351 211.358 38.851C173.758 39.651 129.458 60.751 95.6576 94.051C72.8576 116.551 62.6576 142.051 62.4576 176.951C62.3576 198.551 77.9576 203.751 94.3576 209.251C104.158 212.551 114.258 215.851 121.458 222.851C130.558 231.651 136.258 244.651 141.758 257.351C151.258 278.551 160.058 298.751 183.558 299.451Z" fill="white"/>
<path d="M181.658 291.151C162.158 291.151 152.658 270.651 143.558 250.951C138.258 239.451 133.258 228.551 126.458 222.051C120.558 216.351 111.558 212.951 102.758 209.751C88.2575 204.351 73.2575 198.851 72.8575 182.251C72.2575 152.951 84.7575 125.251 108.858 102.051C122.358 89.051 169.958 46.551 214.758 46.551C238.458 46.551 248.958 70.251 258.258 91.151C259.958 95.051 261.558 98.651 263.258 102.151C264.558 104.851 265.958 107.551 267.258 110.251C278.858 133.751 289.758 155.851 289.758 183.051C289.758 242.551 241.258 291.151 181.658 291.151ZM214.658 47.451C170.258 47.451 122.958 89.751 109.458 102.651C85.5576 125.651 73.2575 153.151 73.7575 182.151C74.0575 198.051 88.1575 203.251 102.958 208.751C111.858 212.051 120.958 215.451 126.958 221.251C133.858 227.951 138.958 238.951 144.258 250.451C153.258 269.951 162.558 290.151 181.458 290.151C240.558 290.051 288.558 242.051 288.458 183.051C288.458 156.051 277.558 134.051 266.058 110.651C264.758 107.951 263.458 105.251 262.058 102.551C260.358 99.051 258.758 95.451 257.058 91.551C248.158 70.851 237.758 47.451 214.658 47.451Z" fill="white"/>
<path d="M183.557 276.551C182.857 276.551 182.157 276.551 181.357 276.551C164.857 276.051 155.157 259.551 145.857 243.551C140.957 235.151 136.357 227.251 130.957 222.051C126.757 217.951 120.557 214.651 114.057 211.051C101.157 204.051 87.8574 196.851 87.7574 182.951C87.2574 125.651 161.757 62.751 214.457 61.651C235.957 61.151 245.157 85.951 251.857 103.951C252.757 106.451 253.657 108.851 254.557 111.051C255.557 113.651 256.657 116.251 257.757 118.951C266.057 139.451 274.657 160.751 274.957 182.951C275.257 207.351 264.857 231.651 246.357 249.751C229.057 266.851 206.257 276.551 183.557 276.551ZM181.457 275.551C204.557 276.151 228.057 266.551 245.757 249.051C263.957 231.151 274.257 207.051 274.057 182.951C273.857 160.851 265.257 139.751 256.957 119.351C255.857 116.751 254.857 114.151 253.757 111.451C252.857 109.251 251.957 106.851 251.057 104.251C244.457 86.451 235.357 62.151 214.557 62.551C162.257 63.651 88.3574 126.051 88.8574 182.851C88.9574 196.151 102.057 203.251 114.657 210.051C121.257 213.651 127.457 217.051 131.757 221.151C137.257 226.451 141.857 234.451 146.757 242.851C155.957 258.751 165.457 275.051 181.457 275.551Z" fill="white"/>
<path d="M183.857 261.051C183.057 261.051 182.157 261.051 181.357 261.051C166.957 260.451 156.357 246.751 146.857 234.651C143.057 229.751 139.457 225.151 135.857 221.551C132.757 218.551 128.957 215.651 124.957 212.651C114.357 204.651 103.357 196.351 103.257 183.051C103.057 162.651 114.457 139.151 134.557 118.751C157.557 95.351 186.657 80.751 210.357 80.551C210.457 80.551 210.457 80.551 210.557 80.551C245.857 80.551 259.057 161.251 259.357 182.951C259.657 203.151 250.957 223.551 235.257 238.951C220.857 253.051 202.257 261.051 183.857 261.051ZM210.657 81.451C210.557 81.451 210.557 81.451 210.457 81.451C187.257 81.651 157.857 96.451 135.357 119.351C115.457 139.551 104.157 162.751 104.257 182.951C104.357 195.851 115.157 203.951 125.557 211.751C129.557 214.751 133.457 217.651 136.557 220.751C140.257 224.451 143.857 229.051 147.657 233.951C156.957 245.851 167.457 259.451 181.357 259.951C200.257 260.751 219.657 252.751 234.657 238.151C250.157 223.051 258.757 202.851 258.457 182.951C258.257 171.651 255.057 146.251 246.857 122.751C240.357 103.851 228.657 81.451 210.657 81.451Z" fill="white"/>
<path d="M183.458 245.551C182.758 245.551 182.158 245.551 181.458 245.551C171.958 245.151 156.658 235.951 142.458 222.051C130.958 210.851 118.758 194.651 118.858 182.951C119.058 165.351 129.658 145.551 147.858 128.651C165.358 112.451 186.258 102.351 203.958 101.551C210.358 101.251 216.258 103.551 221.458 108.451C239.458 125.451 243.958 169.051 244.058 182.951C244.258 199.351 237.058 215.851 224.458 228.151C212.758 239.351 198.358 245.551 183.458 245.551ZM181.458 244.451C196.758 245.051 211.858 238.951 223.758 227.351C236.158 215.251 243.158 199.051 242.958 182.951C242.858 169.151 238.458 125.951 220.658 109.151C215.758 104.451 210.058 102.251 203.958 102.551C186.558 103.351 165.858 113.351 148.558 129.351C130.558 146.051 120.058 165.551 119.858 182.951C119.558 204.351 162.158 243.751 181.458 244.451Z" fill="white"/>
<path d="M181.657 229.951C181.557 229.951 181.457 229.951 181.357 229.951C171.157 229.851 158.657 223.551 148.757 213.351C139.457 203.751 134.057 192.351 134.257 182.851C134.557 170.051 142.357 155.051 154.957 142.951C167.657 130.751 183.057 123.451 196.157 123.351H196.257C202.657 123.351 208.157 125.751 212.857 130.351C224.357 141.751 228.357 165.751 228.357 182.851C228.357 195.351 223.257 207.151 214.157 216.251C205.357 225.151 193.857 229.951 181.657 229.951ZM196.357 124.451H196.257C169.057 124.551 136.057 156.351 135.357 182.951C135.157 192.151 140.457 203.251 149.557 212.651C159.257 222.651 171.457 228.851 181.457 228.951C193.457 229.051 204.857 224.251 213.657 215.551C222.557 206.751 227.457 195.151 227.557 182.851C227.557 165.951 223.657 142.251 212.357 131.051C207.857 126.651 202.457 124.451 196.357 124.451Z" fill="white"/>
<path d="M181.558 214.451C181.458 214.451 181.458 214.451 181.358 214.451C173.358 214.351 164.358 210.151 158.058 203.351C152.358 197.251 149.458 189.951 149.858 182.851C150.958 164.751 170.358 145.951 188.958 145.051C193.858 144.751 198.258 146.451 201.858 150.051C207.358 155.351 213.158 167.851 212.858 182.951C212.658 199.451 197.758 214.451 181.558 214.451ZM181.458 213.451C181.558 213.451 181.558 213.451 181.658 213.451C197.358 213.451 211.758 198.951 212.058 182.951C212.158 174.251 209.458 158.551 201.358 150.751C197.858 147.451 193.758 145.851 189.158 146.051C171.358 146.951 152.058 165.651 151.058 182.951C150.658 189.751 153.458 196.751 158.958 202.651C164.958 209.251 173.658 213.351 181.458 213.451Z" fill="white"/>
<path d="M181.057 198.951C176.757 198.951 172.857 197.351 169.857 194.351C166.857 191.351 165.257 187.251 165.357 182.951C165.557 174.151 174.757 165.151 183.457 165.151C186.857 165.151 189.857 166.451 192.257 168.851C195.557 172.151 197.457 177.451 197.357 182.951C197.257 191.551 190.057 198.751 181.357 198.951C181.257 198.951 181.157 198.951 181.057 198.951ZM183.557 166.151C175.457 166.151 166.657 174.751 166.457 182.951C166.357 187.051 167.857 190.851 170.657 193.651C173.457 196.551 177.357 198.051 181.457 197.951C189.657 197.751 196.357 191.051 196.457 182.951C196.557 177.751 194.757 172.751 191.657 169.551C189.457 167.251 186.657 166.151 183.557 166.151Z" fill="white"/>
<path d="M197.457 330.951C196.457 321.451 192.757 314.651 189.257 307.951C185.557 300.951 181.657 293.651 181.057 283.451C179.557 261.151 180.057 238.051 180.557 215.651C180.757 204.851 180.957 193.751 180.957 182.851H181.957C181.957 193.751 181.757 204.851 181.557 215.651C181.157 237.951 180.657 261.051 182.057 283.351C182.757 293.451 186.357 300.251 190.157 307.451C193.757 314.151 197.357 321.051 198.457 330.751L197.457 330.951Z" fill="white"/>
<path d="M355.857 248.451C340.657 243.951 326.657 237.051 313.157 230.451C301.657 224.751 289.757 218.951 277.157 214.551C255.957 207.251 234.257 200.351 213.257 193.651C202.757 190.351 191.857 186.851 181.257 183.351L181.557 182.351C192.157 185.851 203.057 189.251 213.557 192.651C234.557 199.351 256.257 206.251 277.457 213.551C290.057 217.951 302.057 223.751 313.557 229.451C327.057 236.051 340.957 242.951 356.057 247.451L355.857 248.451Z" fill="white"/>
<path d="M181.758 183.251L180.958 182.651C189.258 171.851 198.058 161.151 206.558 150.851C222.158 131.951 238.358 112.451 251.658 91.451L253.058 89.2511C268.458 65.0511 282.958 42.251 299.458 19.451L300.258 20.051C283.658 42.851 269.158 65.6511 253.858 89.7511L252.458 91.951C239.058 112.951 222.958 132.551 207.258 151.451C198.858 161.751 190.058 172.451 181.758 183.251Z" fill="white"/>
<path d="M180.958 183.151C174.658 172.051 170.058 160.051 165.658 148.551C157.658 127.651 150.158 107.951 133.158 92.151C127.458 86.851 121.158 82.151 115.158 77.551C108.758 72.751 102.258 67.751 96.3575 62.151C84.9575 51.351 75.6575 38.451 66.7575 26.051C65.3575 24.051 63.9575 22.051 62.4575 20.151L63.2575 19.551C64.6575 21.551 66.1575 23.451 67.5575 25.451C76.4575 37.851 85.7575 50.751 97.0575 61.451C102.958 67.051 109.458 71.951 115.858 76.751C121.958 81.351 128.258 86.151 133.958 91.451C151.158 107.451 159.058 128.151 166.658 148.251C171.058 159.751 175.558 171.651 181.858 182.751L180.958 183.151Z" fill="white"/>
<path d="M2.25732 229.751L1.75732 228.851C4.55732 227.351 7.45732 225.751 10.2573 224.251C24.2573 216.551 38.8573 208.651 54.3573 204.751C62.9573 202.651 71.8573 202.351 80.4573 202.151C84.3573 202.051 88.4573 201.951 92.4573 201.651C120.357 199.651 147.757 193.651 181.257 182.451L181.557 183.351C147.957 194.551 120.457 200.551 92.4573 202.551C88.4573 202.851 84.3573 202.951 80.4573 203.051C71.9573 203.251 63.1573 203.551 54.5573 205.651C39.1573 209.451 24.7573 217.351 10.7573 225.051C7.95732 226.651 5.05732 228.151 2.25732 229.751Z" fill="white"/>
</svg>
