<svg width="336" height="416" viewBox="0 0 336 416" fill="none" xmlns="http://www.w3.org/2000/svg">
<mask id="mask0_201_623" style="mask-type:luminance" maskUnits="userSpaceOnUse" x="0" y="134" width="255" height="281">
<path d="M1.8 414.544C1.9 414.444 1.9 414.344 1.7 414.144C1.5 413.844 1.1 413.544 0.800003 413.444C0.700003 413.444 0.6 413.444 0.5 413.544C27.2 324.644 53.9 235.844 80.6 146.944C83.9 136.144 95.8 131.544 115.6 135.744C154.5 144.044 209.1 183.444 237.4 223.644C257 251.444 258.9 272.444 245.3 279.944C164.2 324.844 83 369.644 1.8 414.544Z" fill="white"/>
</mask>
<g mask="url(#mask0_201_623)">
<path d="M1.69981 414.645H1.59981L1.2998 414.545L1.7998 414.245C1.7998 414.245 1.79981 414.145 1.69981 414.145L1.59981 414.045L1.69981 413.945L237.6 223.445L237.7 223.545C253.3 245.645 258.3 264.345 251.4 274.745C248.9 278.645 244.8 281.145 239.3 282.345C233.6 283.545 226.6 283.245 218.4 281.545L1.9998 414.445V414.545C1.8998 414.645 1.79981 414.645 1.69981 414.645ZM1.8998 414.145L218.3 281.345C226.5 283.145 233.5 283.345 239.1 282.145C244.5 280.945 248.5 278.445 251.1 274.645C257.9 264.345 252.9 245.845 237.5 223.845L1.8998 414.145Z" fill="white"/>
<path d="M246.7 278.882L1.72803 414.486L1.87333 414.748L246.845 279.144L246.7 278.882Z" fill="white"/>
<path d="M253.735 258.241L1.8208 414.243L1.97876 414.498L253.893 258.497L253.735 258.241Z" fill="white"/>
<path d="M1.69971 414.344L1.59971 414.244C1.39971 413.944 0.999705 413.744 0.799706 413.644H0.699707L0.799706 413.544L115.7 135.744H115.8C154.7 144.044 209.4 183.544 237.7 223.744L237.8 223.844L237.7 223.944L1.69971 414.344ZM0.999702 413.344C1.2997 413.444 1.59971 413.644 1.79971 413.944L237.4 223.644C209.1 183.544 154.7 144.244 115.8 135.944L0.999702 413.344Z" fill="white"/>
<path d="M1.59991 413.944L1.3999 413.744L201.9 184.744L202.1 184.944L1.59991 413.944Z" fill="white"/>
<path d="M158.072 153.21L1.14697 413.586L1.31828 413.689L158.243 153.313L158.072 153.21Z" fill="white"/>
<path d="M0.69977 414.144L0.599771 413.944C0.399771 413.644 0.399765 413.544 0.499765 413.444C0.499765 413.444 0.599768 413.344 0.799768 413.344L93.4998 189.344C80.2998 169.144 76.2998 152.244 82.6998 142.444C85.1998 138.544 89.2998 136.044 94.7998 134.844C100.5 133.644 107.5 133.944 115.8 135.644H115.9L115.8 135.844L93.6998 189.244C94.5998 190.644 95.5998 192.044 96.5998 193.444V193.544V193.644L0.69977 414.144ZM93.5998 189.544L5.39977 402.644L96.2998 193.544C95.3998 192.244 94.4998 190.844 93.5998 189.544ZM102.4 134.344C99.6998 134.344 97.0998 134.544 94.7998 135.044C89.3998 136.244 85.3998 138.744 82.7998 142.544C76.4998 152.144 80.3998 168.944 93.4998 188.944L115.5 135.844C110.7 134.844 106.3 134.344 102.4 134.344Z" fill="white"/>
<path d="M0.700005 413.544L0.5 413.444L87 138.044L87.2 138.144L0.700005 413.544Z" fill="white"/>
</g>
<mask id="mask1_201_623" style="mask-type:luminance" maskUnits="userSpaceOnUse" x="0" y="134" width="255" height="281">
<path d="M1.8 414.544C1.9 414.444 1.9 414.344 1.7 414.144C1.5 413.844 1.1 413.544 0.800003 413.444C0.700003 413.444 0.6 413.444 0.5 413.544C27.2 324.644 53.9 235.844 80.6 146.944C83.9 136.144 95.8 131.544 115.6 135.744C154.5 144.044 209.1 183.444 237.4 223.644C257 251.444 258.9 272.444 245.3 279.944C164.2 324.844 83 369.644 1.8 414.544Z" fill="white"/>
</mask>
<g mask="url(#mask1_201_623)">
<path d="M1.8 414.644L1.7 414.444C1.7 414.444 1.70001 414.344 1.60001 414.244C1.40001 413.944 1 413.744 0.800003 413.644C0.700003 413.644 0.700005 413.644 0.700005 413.644L0.5 413.544L80.6 146.944C82.3 141.444 86.1 137.644 92 135.644C98.1 133.644 106.1 133.644 115.8 135.644C154.7 143.944 209.4 183.444 237.7 223.644C250.6 241.944 256.3 258.144 253.8 269.044C252.7 274.044 249.9 277.744 245.6 280.144L1.8 414.644ZM0.800003 413.344C1.2 413.444 1.6 413.744 1.9 414.044C2 414.144 2 414.244 2 414.344L245.4 279.844C249.7 277.444 252.4 273.844 253.5 268.944C256 258.044 250.3 242.044 237.4 223.744C209.1 183.644 154.5 144.244 115.7 135.844C106 133.744 98.1 133.744 92.1 135.744C86.3 137.744 82.5 141.444 80.9 146.944L0.800003 413.344Z" fill="white"/>
</g>
<mask id="mask2_201_623" style="mask-type:luminance" maskUnits="userSpaceOnUse" x="0" y="193" width="246" height="222">
<path d="M245.4 279.945C164.2 324.845 83.0002 369.645 1.80019 414.545C1.80019 414.545 1.7002 414.545 1.6002 414.545C1.3002 414.445 0.900195 414.145 0.700195 413.845L96.5002 193.445C124.8 233.645 179.4 273.045 218.3 281.345C230.3 284.045 239.4 283.345 245.4 279.945Z" fill="white"/>
</mask>
<g mask="url(#mask2_201_623)">
<path d="M1.6001 414.645C1.2001 414.545 0.800098 414.245 0.600098 413.945V413.845V413.745L96.5001 193.145L96.6001 193.345C124.9 233.445 179.5 272.845 218.3 281.245L218.6 281.345L218.3 281.545L1.6001 414.645ZM0.800095 413.845C1.00009 414.045 1.30009 414.345 1.50009 414.345L217.9 281.445C179.1 273.045 124.7 233.745 96.5001 193.745L0.800095 413.845Z" fill="white"/>
<path d="M131.892 232.309L0.81543 414.076L1.05877 414.252L132.135 232.484L131.892 232.309Z" fill="white"/>
<path d="M1.30019 414.545L1.2002 414.345L175.6 263.745L175.8 263.945L1.30019 414.545Z" fill="white"/>
<path d="M1.70029 414.645H1.6003L1.30029 414.545L1.80029 414.245C1.80029 414.245 1.80029 414.145 1.70029 414.145L1.6003 414.045L1.70029 413.945L237.6 223.445L237.7 223.545C253.3 245.645 258.3 264.345 251.4 274.745C248.9 278.645 244.8 281.145 239.3 282.345C233.6 283.545 226.6 283.245 218.4 281.545L2.00029 414.445V414.545C1.90029 414.645 1.80029 414.645 1.70029 414.645ZM1.90029 414.145L218.3 281.345C226.5 283.145 233.5 283.345 239.1 282.145C244.5 280.945 248.5 278.445 251.1 274.645C257.9 264.345 252.9 245.845 237.5 223.845L1.90029 414.145Z" fill="white"/>
</g>
<mask id="mask3_201_623" style="mask-type:luminance" maskUnits="userSpaceOnUse" x="0" y="193" width="246" height="222">
<path d="M245.4 279.945C164.2 324.845 83.0002 369.645 1.80019 414.545C1.80019 414.545 1.7002 414.545 1.6002 414.545C1.3002 414.445 0.900195 414.145 0.700195 413.845L96.5002 193.445C124.8 233.645 179.4 273.045 218.3 281.345C230.3 284.045 239.4 283.345 245.4 279.945Z" fill="white"/>
</mask>
<g mask="url(#mask3_201_623)">
<path d="M1.7001 414.645H1.6001C1.3001 414.545 0.800098 414.245 0.600098 413.945V413.845V413.745L96.5001 193.145L96.6001 193.345C124.9 233.445 179.5 272.845 218.3 281.245C229.8 283.745 239.2 283.245 245.4 279.845L245.5 280.045L1.80009 414.645H1.7001ZM0.800095 413.845C1.00009 414.145 1.3001 414.345 1.6001 414.345C1.7001 414.345 1.7001 414.345 1.7001 414.345L242.6 281.345C236.5 283.545 228.2 283.645 218.2 281.545C179.4 273.245 124.8 233.845 96.4001 193.745L0.800095 413.845Z" fill="white"/>
</g>
<mask id="mask4_201_623" style="mask-type:luminance" maskUnits="userSpaceOnUse" x="0" y="146" width="97" height="268">
<path d="M0.600015 413.545C27.3 324.645 54 235.845 80.7 146.945C77.6 157.445 82.5 173.745 96.5 193.545L0.700014 413.945C0.600014 413.745 0.500015 413.645 0.600015 413.545Z" fill="white"/>
</mask>
<g mask="url(#mask4_201_623)">
<path d="M0.69977 414.144L0.599771 413.944C0.399771 413.644 0.399765 413.544 0.499765 413.444C0.499765 413.444 0.599768 413.344 0.799768 413.344L93.4998 189.344C80.2998 169.144 76.2998 152.244 82.6998 142.444C85.1998 138.544 89.2998 136.044 94.7998 134.844C100.5 133.644 107.5 133.944 115.8 135.644H115.9L115.8 135.844L93.6998 189.244C94.5998 190.644 95.5998 192.044 96.5998 193.444V193.544V193.644L0.69977 414.144ZM93.5998 189.544L5.39977 402.644L96.2998 193.544C95.3998 192.244 94.4998 190.844 93.5998 189.544ZM102.4 134.344C99.6998 134.344 97.0998 134.544 94.7998 135.044C89.3998 136.244 85.3998 138.744 82.7998 142.544C76.4998 152.144 80.3998 168.944 93.4998 188.944L115.5 135.844C110.7 134.844 106.3 134.344 102.4 134.344Z" fill="white"/>
<path d="M0.699905 413.644H0.399902L80.0999 158.844H80.2999L0.699905 413.644Z" fill="white"/>
</g>
<mask id="mask5_201_623" style="mask-type:luminance" maskUnits="userSpaceOnUse" x="0" y="146" width="97" height="268">
<path d="M0.600015 413.545C27.3 324.645 54 235.845 80.7 146.945C77.6 157.445 82.5 173.745 96.5 193.545L0.700014 413.945C0.600014 413.745 0.500015 413.645 0.600015 413.545Z" fill="white"/>
</mask>
<g mask="url(#mask5_201_623)">
<path d="M0.699921 414.144L0.599922 413.944C0.499922 413.744 0.399916 413.645 0.499916 413.444L80.5999 146.844L80.7999 146.944C77.4999 157.844 83.0999 174.344 96.5999 193.344V193.444V193.544L0.699921 414.144ZM79.8999 150.044L0.699921 413.544L96.2999 193.544C84.0999 176.144 78.3999 160.944 79.8999 150.044Z" fill="white"/>
</g>
<mask id="mask6_201_623" style="mask-type:luminance" maskUnits="userSpaceOnUse" x="88" y="2" width="246" height="269">
<path d="M253.3 270.244C256.4 259.744 251.5 243.444 237.5 223.644C209.2 183.444 154.6 144.044 115.7 135.744C103.7 133.144 94.6 133.844 88.5 137.244C95.8 133.244 105.6 127.844 112.9 123.744C116.6 121.744 121.4 119.044 125.1 117.044C132.4 113.044 142.2 107.644 149.5 103.544C156.8 99.4443 166.6 94.1443 173.9 90.0443C177.6 88.0443 182.4 85.3443 186.1 83.3443C193.4 79.3443 203.2 73.9443 210.5 69.8443C217.8 65.8443 227.6 60.4443 234.9 56.3443C238.6 54.3443 243.4 51.6443 247.1 49.6443C254.4 45.6443 264.2 40.2443 271.5 36.1443C278.8 32.1443 288.6 26.7443 295.9 22.6443C299.6 20.6443 304.4 17.9443 308.1 15.9443C315.4 11.9443 325.2 6.54434 332.5 2.44434C332.5 2.44434 332.6 2.44434 332.7 2.44434C333 2.54434 333.4 2.84434 333.6 3.14434C333.7 3.24434 333.7 3.44434 333.7 3.44434C306.7 92.5443 280 181.344 253.3 270.244Z" fill="white"/>
</mask>
<g mask="url(#mask6_201_623)">
<path d="M231.6 283.144C227.6 283.144 223.1 282.644 218.3 281.544H218.2L218.3 281.444L240.4 228.044C239.5 226.644 238.5 225.244 237.5 223.844V223.744V223.644L333.4 3.04443L333.5 3.24443C333.7 3.54443 333.7 3.64443 333.6 3.74443C333.6 3.74443 333.5 3.84443 333.3 3.84443L240.6 227.844C253.8 248.044 257.8 264.944 251.4 274.744C248.9 278.644 244.8 281.144 239.3 282.344C236.9 282.844 234.3 283.144 231.6 283.144ZM218.4 281.344C226.5 283.044 233.5 283.344 239.1 282.144C244.5 280.944 248.5 278.444 251.1 274.644C257.4 265.044 253.5 248.244 240.4 228.244L218.4 281.344ZM237.6 223.644C238.6 225.044 239.5 226.344 240.3 227.644L328.4 14.5444L237.6 223.644Z" fill="white"/>
<path d="M253.9 258.444L253.6 258.344L333.3 3.54443L333.5 3.64443L253.9 258.444Z" fill="white"/>
<path d="M237.5 223.944L237.4 223.744C209.1 183.644 154.5 144.244 115.7 135.844L115.4 135.744L115.7 135.544L332.4 2.54443C332.7 2.64443 333.2 2.94443 333.4 3.24443V3.34443V3.44443L237.5 223.944ZM116 135.744C154.8 144.144 209.2 183.444 237.4 223.444L333.1 3.34443C332.9 3.14443 332.6 2.84443 332.4 2.84443L116 135.744Z" fill="white"/>
<path d="M332.911 3.04083L201.835 184.808L202.078 184.984L333.154 3.21631L332.911 3.04083Z" fill="white"/>
<path d="M158.4 153.444L158.2 153.244L332.6 2.74438L332.8 2.94438L158.4 153.444Z" fill="white"/>
<path d="M96.4002 193.744L96.3002 193.644C80.8002 171.444 75.8002 152.844 82.7002 142.444C85.2002 138.544 89.3002 136.044 94.8002 134.844C100.5 133.644 107.5 133.944 115.7 135.644L332 2.74435V2.64435C332 2.54435 332.1 2.44435 332.4 2.54435L332.7 2.64435L332.2 2.94435C332.2 2.94435 332.2 3.04435 332.3 3.04435L332.4 3.14435L332.3 3.24435L96.4002 193.744ZM102.4 134.344C99.7002 134.344 97.1002 134.544 94.8002 135.044C89.4002 136.244 85.4002 138.744 82.8002 142.544C76.0002 152.844 81.0002 171.344 96.4002 193.344L332.1 3.04435L115.7 135.944C110.8 134.844 106.4 134.344 102.4 134.344Z" fill="white"/>
</g>
<mask id="mask7_201_623" style="mask-type:luminance" maskUnits="userSpaceOnUse" x="88" y="2" width="246" height="269">
<path d="M253.3 270.244C256.4 259.744 251.5 243.444 237.5 223.644C209.2 183.444 154.6 144.044 115.7 135.744C103.7 133.144 94.6 133.844 88.5 137.244C95.8 133.244 105.6 127.844 112.9 123.744C116.6 121.744 121.4 119.044 125.1 117.044C132.4 113.044 142.2 107.644 149.5 103.544C156.8 99.4443 166.6 94.1443 173.9 90.0443C177.6 88.0443 182.4 85.3443 186.1 83.3443C193.4 79.3443 203.2 73.9443 210.5 69.8443C217.8 65.8443 227.6 60.4443 234.9 56.3443C238.6 54.3443 243.4 51.6443 247.1 49.6443C254.4 45.6443 264.2 40.2443 271.5 36.1443C278.8 32.1443 288.6 26.7443 295.9 22.6443C299.6 20.6443 304.4 17.9443 308.1 15.9443C315.4 11.9443 325.2 6.54434 332.5 2.44434C332.5 2.44434 332.6 2.44434 332.7 2.44434C333 2.54434 333.4 2.84434 333.6 3.14434C333.7 3.24434 333.7 3.44434 333.7 3.44434C306.7 92.5443 280 181.344 253.3 270.244Z" fill="white"/>
</mask>
<g mask="url(#mask7_201_623)">
<path d="M253.4 270.244L253.2 270.144C256.5 259.244 250.9 242.744 237.4 223.744C209.1 183.644 154.5 144.244 115.7 135.844C104.2 133.344 94.8001 133.844 88.7001 137.244L88.6001 137.044L125.1 116.844C132.4 112.844 142.2 107.444 149.5 103.344L332.1 2.54443C332.2 2.54443 332.3 2.54443 332.4 2.54443C332.7 2.64443 333.2 2.94443 333.4 3.24443C333.5 3.44443 333.6 3.54443 333.5 3.74443L253.4 270.244ZM102.4 134.144C106.4 134.144 110.9 134.644 115.7 135.644C154.6 143.944 209.3 183.444 237.6 223.644C249.9 241.044 255.6 256.344 254.1 267.144L333.3 3.64443C333.3 3.64443 333.3 3.54443 333.2 3.44443C333 3.14443 332.6 2.94443 332.4 2.84443C332.3 2.84443 332.3 2.84443 332.3 2.84443L149.5 103.744C142.2 107.744 132.4 113.144 125.1 117.244L91.3001 135.844C94.5001 134.644 98.2001 134.144 102.4 134.144Z" fill="white"/>
</g>
<mask id="mask8_201_623" style="mask-type:luminance" maskUnits="userSpaceOnUse" x="96" y="3" width="238" height="280">
<path d="M333.4 3.64453C306.7 92.5445 280 181.345 253.3 270.245C250 281.045 238.1 285.645 218.3 281.445C179.4 273.145 124.8 233.745 96.5 193.545L332.2 3.14453C332.4 3.44453 332.8 3.74453 333.1 3.84453C333.3 3.74453 333.4 3.74453 333.4 3.64453Z" fill="white"/>
</mask>
<g mask="url(#mask8_201_623)">
<path d="M218.3 281.545H218.2C179.3 273.245 124.6 233.745 96.3002 193.545L96.2002 193.445L96.3002 193.345L332.3 2.94458L332.4 3.04458C332.6 3.34458 333 3.54458 333.2 3.64458H333.3L333.2 3.74458L218.3 281.545ZM96.6002 193.545C124.9 233.645 179.3 272.945 218.2 281.245L333 3.84458C332.7 3.74458 332.4 3.54458 332.2 3.24458L96.6002 193.545Z" fill="white"/>
<path d="M132.1 232.444L131.9 232.244L332.4 3.34448L332.6 3.44448L132.1 232.444Z" fill="white"/>
<path d="M332.589 3.53317L175.664 263.909L175.835 264.012L332.76 3.63641L332.589 3.53317Z" fill="white"/>
<path d="M231.6 283.145C227.6 283.145 223.1 282.645 218.3 281.545H218.2L218.3 281.445L240.4 228.045C239.5 226.645 238.5 225.245 237.5 223.845V223.745V223.645L333.4 3.04468L333.5 3.24468C333.7 3.54468 333.7 3.64468 333.6 3.74468C333.6 3.74468 333.5 3.84468 333.3 3.84468L240.6 227.845C253.8 248.045 257.8 264.945 251.4 274.745C248.9 278.645 244.8 281.145 239.3 282.345C236.9 282.845 234.3 283.145 231.6 283.145ZM218.4 281.345C226.5 283.045 233.5 283.345 239.1 282.145C244.5 280.945 248.5 278.445 251.1 274.645C257.4 265.045 253.5 248.245 240.4 228.245L218.4 281.345ZM237.6 223.645C238.6 225.045 239.5 226.345 240.3 227.645L328.4 14.5447L237.6 223.645Z" fill="white"/>
<path d="M247 279.145L246.7 279.045L333.2 3.74463H333.5L247 279.145Z" fill="white"/>
</g>
<mask id="mask9_201_623" style="mask-type:luminance" maskUnits="userSpaceOnUse" x="96" y="3" width="238" height="280">
<path d="M333.4 3.64453C306.7 92.5445 280 181.345 253.3 270.245C250 281.045 238.1 285.645 218.3 281.445C179.4 273.145 124.8 233.745 96.5 193.545L332.2 3.14453C332.4 3.44453 332.8 3.74453 333.1 3.84453C333.3 3.74453 333.4 3.74453 333.4 3.64453Z" fill="white"/>
</mask>
<g mask="url(#mask9_201_623)">
<path d="M231.6 283.145C227.6 283.145 223.2 282.645 218.3 281.545C179.4 273.245 124.7 233.745 96.3998 193.545L96.2998 193.445L96.3998 193.345L332.3 2.94458L332.4 3.04458C332.6 3.34458 333 3.54458 333.2 3.64458C333.3 3.64458 333.3 3.64458 333.3 3.64458L333.5 3.74458L253.4 270.345C251.7 275.845 247.9 279.645 242 281.645C239 282.645 235.5 283.145 231.6 283.145ZM96.5998 193.545C124.9 233.645 179.4 273.045 218.3 281.345C228 283.445 235.9 283.445 241.9 281.445C247.7 279.445 251.5 275.745 253.1 270.245L333.1 3.94458H333C332.7 3.84458 332.3 3.64458 332.1 3.34458L96.5998 193.545Z" fill="white"/>
</g>
<mask id="mask10_201_623" style="mask-type:luminance" maskUnits="userSpaceOnUse" x="79" y="2" width="254" height="192">
<path d="M88.4998 137.244C95.7998 133.244 105.6 127.844 112.9 123.744C116.6 121.744 121.4 119.044 125.1 117.044C132.4 113.044 142.2 107.644 149.5 103.544C156.8 99.4443 166.6 94.1443 173.9 90.0443C177.6 88.0443 182.4 85.3443 186.1 83.3443C193.4 79.3443 203.2 73.9443 210.5 69.8443C217.8 65.8443 227.6 60.4443 234.9 56.3443C238.6 54.3443 243.4 51.6443 247.1 49.6443C254.4 45.6443 264.2 40.2443 271.5 36.1443C278.8 32.1443 288.6 26.7443 295.9 22.6443C299.6 20.6443 304.4 17.9443 308.1 15.9443C315.4 11.9443 325.2 6.54434 332.5 2.44434C332.4 2.54434 332.4 2.64434 332.6 2.84434L96.4998 193.544C76.8998 165.744 74.8998 144.744 88.4998 137.244Z" fill="white"/>
</mask>
<g mask="url(#mask10_201_623)">
<path d="M96.3997 193.744L96.2997 193.644C80.7997 171.444 75.7997 152.844 82.6997 142.444C85.1997 138.544 89.2997 136.044 94.7997 134.844C100.5 133.644 107.5 133.944 115.7 135.644L332 2.74435V2.64435C332 2.54435 332.1 2.44435 332.4 2.54435L332.7 2.64435L332.2 2.94435C332.2 2.94435 332.2 3.04435 332.3 3.04435L332.4 3.14435L332.3 3.24435L96.3997 193.744ZM102.4 134.344C99.6997 134.344 97.0997 134.544 94.7997 135.044C89.3997 136.244 85.3997 138.744 82.7997 142.544C75.9997 152.844 80.9997 171.344 96.3997 193.344L332.1 3.04435L115.7 135.944C110.8 134.844 106.4 134.344 102.4 134.344Z" fill="white"/>
<path d="M332.011 2.48341L87.0391 138.087L87.1844 138.35L332.156 2.74587L332.011 2.48341Z" fill="white"/>
<path d="M332.063 2.76076L80.1484 158.763L80.3064 159.018L332.221 3.01581L332.063 2.76076Z" fill="white"/>
</g>
<mask id="mask11_201_623" style="mask-type:luminance" maskUnits="userSpaceOnUse" x="79" y="2" width="254" height="192">
<path d="M88.4998 137.244C95.7998 133.244 105.6 127.844 112.9 123.744C116.6 121.744 121.4 119.044 125.1 117.044C132.4 113.044 142.2 107.644 149.5 103.544C156.8 99.4443 166.6 94.1443 173.9 90.0443C177.6 88.0443 182.4 85.3443 186.1 83.3443C193.4 79.3443 203.2 73.9443 210.5 69.8443C217.8 65.8443 227.6 60.4443 234.9 56.3443C238.6 54.3443 243.4 51.6443 247.1 49.6443C254.4 45.6443 264.2 40.2443 271.5 36.1443C278.8 32.1443 288.6 26.7443 295.9 22.6443C299.6 20.6443 304.4 17.9443 308.1 15.9443C315.4 11.9443 325.2 6.54434 332.5 2.44434C332.4 2.54434 332.4 2.64434 332.6 2.84434L96.4998 193.544C76.8998 165.744 74.8998 144.744 88.4998 137.244Z" fill="white"/>
</mask>
<g mask="url(#mask11_201_623)">
<path d="M96.3998 193.744L96.2998 193.644C83.3998 175.344 77.6998 159.144 80.1998 148.244C81.2998 143.244 84.0998 139.544 88.3998 137.144L124.9 116.944C132.2 112.944 142 107.544 149.3 103.444L332.1 2.54443L332.2 2.74443C332.2 2.74443 332.2 2.84443 332.3 2.94443L332.4 3.04443L332.3 3.14443L96.3998 193.744ZM88.5998 137.344C84.2998 139.744 81.5998 143.344 80.4998 148.244C77.9998 159.044 83.6998 175.144 96.4998 193.344L332.1 3.04443C332.1 2.94443 332 2.94443 332 2.84443L149.5 103.744C142.2 107.744 132.4 113.144 125.1 117.244L88.5998 137.344Z" fill="white"/>
</g>
<mask id="mask12_201_623" style="mask-type:luminance" maskUnits="userSpaceOnUse" x="0" y="2" width="334" height="413">
<path d="M333.4 3.7444L1.80009 414.544C1.90009 414.444 1.8001 414.344 1.7001 414.144C1.5001 413.844 1.10009 413.544 0.800095 413.444C0.700095 413.444 0.600098 413.444 0.600098 413.444L332.1 2.7444C332.1 2.7444 332.2 2.6444 332.3 2.7444C332.6 2.8444 333 3.14439 333.2 3.44439C333.4 3.54439 333.4 3.6444 333.4 3.7444Z" fill="white"/>
</mask>
<g mask="url(#mask12_201_623)">
<path d="M1.70039 414.644H1.6004H1.40039L1.70039 414.244C1.70039 414.244 1.70039 414.244 1.70039 414.144L1.6004 414.044L1.70039 413.944L333.3 3.14429L333.4 3.24429C333.6 3.54429 333.6 3.64429 333.5 3.74429C333.5 3.84429 333.4 3.84429 333.2 3.84429L2.00039 414.244C2.00039 414.344 2.00039 414.444 2.00039 414.544C1.90039 414.644 1.80039 414.644 1.70039 414.644ZM333.2 3.64429C333.3 3.64429 333.3 3.64429 333.2 3.64429V3.64429Z" fill="white"/>
<path d="M1.90019 414.444L1.7002 414.344L333.3 3.54419L333.5 3.64419L1.90019 414.444Z" fill="white"/>
<path d="M1.7001 414.344L1.6001 414.244C1.4001 413.944 1.00009 413.744 0.800095 413.644H0.600098L0.700096 413.444L332.3 2.54443H332.4C332.7 2.64443 333.2 2.94443 333.4 3.24443L333.5 3.34443L333.4 3.44443L1.7001 414.344ZM1.00009 413.444C1.20009 413.544 1.5001 413.744 1.7001 413.944L333.1 3.34443C332.9 3.14443 332.6 2.94443 332.4 2.84443L1.00009 413.444Z" fill="white"/>
<path d="M1.59991 413.944L1.3999 413.744L332.9 2.94434L333.1 3.14434L1.59991 413.944Z" fill="white"/>
<path d="M1.2 413.644L1 413.544L332.6 2.74438L332.8 2.84438L1.2 413.644Z" fill="white"/>
<path d="M0.700258 414.144L0.60026 414.044C0.40026 413.744 0.400253 413.644 0.500253 413.544C0.500253 413.444 0.600257 413.444 0.800257 413.444L332 2.94435C332 2.84435 332 2.74435 332 2.64435C332 2.54435 332.1 2.44435 332.4 2.54435H332.6L332.3 2.94435C332.3 2.94435 332.3 2.94435 332.3 3.04435L332.4 3.14435L332.3 3.24435L0.700258 414.144Z" fill="white"/>
<path d="M0.700493 413.544L0.500488 413.444L332.1 2.64429L332.3 2.74429L0.700493 413.544Z" fill="white"/>
</g>
<mask id="mask13_201_623" style="mask-type:luminance" maskUnits="userSpaceOnUse" x="0" y="2" width="334" height="413">
<path d="M333.4 3.7444L1.80009 414.544C1.90009 414.444 1.8001 414.344 1.7001 414.144C1.5001 413.844 1.10009 413.544 0.800095 413.444C0.700095 413.444 0.600098 413.444 0.600098 413.444L332.1 2.7444C332.1 2.7444 332.2 2.6444 332.3 2.7444C332.6 2.8444 333 3.14439 333.2 3.44439C333.4 3.54439 333.4 3.6444 333.4 3.7444Z" fill="white"/>
</mask>
<g mask="url(#mask13_201_623)">
<path d="M1.9 414.544L1.7 414.344C1.7 414.344 1.70001 414.244 1.60001 414.144C1.40001 413.844 1 413.644 0.800003 413.544C0.700003 413.544 0.700005 413.544 0.700005 413.544L0.5 413.344L332 2.64443C332.1 2.54443 332.2 2.54443 332.4 2.54443C332.7 2.64443 333.2 2.94443 333.4 3.24443C333.6 3.54443 333.5 3.74443 333.5 3.74443L1.9 414.544ZM0.900002 413.344C1.2 413.444 1.6 413.744 1.9 414.044C1.9 414.144 2 414.144 2 414.144L333.3 3.64443C333.3 3.64443 333.3 3.54443 333.2 3.44443C333 3.14443 332.6 2.94443 332.4 2.84443C332.3 2.84443 332.3 2.84443 332.3 2.84443L0.900002 413.344Z" fill="white"/>
</g>
<mask id="mask14_201_623" style="mask-type:luminance" maskUnits="userSpaceOnUse" x="0" y="3" width="334" height="412">
<path d="M1.80019 414.545C1.80019 414.545 1.7002 414.645 1.6002 414.545C1.3002 414.445 0.900195 414.145 0.700195 413.845L332.2 3.14453C332.4 3.44453 332.8 3.74453 333.1 3.84453C333.2 3.84453 333.3 3.84453 333.3 3.84453C233.9 126.945 101.3 291.245 1.80019 414.545Z" fill="white"/>
</mask>
<g mask="url(#mask14_201_623)">
<path d="M1.6004 414.645C1.2004 414.545 0.800389 414.245 0.500389 413.945L0.400391 413.845L0.500389 413.745L332.2 2.94458L332.3 3.04458C332.5 3.34458 332.9 3.54458 333.1 3.64458H333.3L333.2 3.84458L1.6004 414.645ZM0.800392 413.945C1.00039 414.145 1.30039 414.345 1.50039 414.445L332.9 3.84458C332.7 3.74458 332.4 3.54458 332.2 3.34458L0.800392 413.945Z" fill="white"/>
<path d="M1.00029 414.244L0.800293 414.144L332.4 3.34448L332.6 3.44448L1.00029 414.244Z" fill="white"/>
<path d="M1.40019 414.545L1.2002 414.345L332.7 3.54468L332.9 3.74468L1.40019 414.545Z" fill="white"/>
<path d="M1.70039 414.645H1.6004H1.40039L1.70039 414.245C1.70039 414.245 1.70039 414.245 1.70039 414.145L1.6004 414.045L1.70039 413.945L333.3 3.14453L333.4 3.24453C333.6 3.54453 333.6 3.64453 333.5 3.74453C333.5 3.84453 333.4 3.84453 333.2 3.84453L2.00039 414.245C2.00039 414.345 2.00039 414.445 2.00039 414.545C1.90039 414.645 1.80039 414.645 1.70039 414.645ZM333.2 3.64453C333.3 3.64453 333.3 3.64453 333.2 3.64453V3.64453Z" fill="white"/>
<path d="M1.90019 414.645L1.7002 414.445L333.3 3.64453L333.4 3.84453L1.90019 414.645Z" fill="white"/>
</g>
<mask id="mask15_201_623" style="mask-type:luminance" maskUnits="userSpaceOnUse" x="0" y="3" width="334" height="412">
<path d="M1.80019 414.545C1.80019 414.545 1.7002 414.645 1.6002 414.545C1.3002 414.445 0.900195 414.145 0.700195 413.845L332.2 3.14453C332.4 3.44453 332.8 3.74453 333.1 3.84453C333.2 3.84453 333.3 3.84453 333.3 3.84453C233.9 126.945 101.3 291.245 1.80019 414.545Z" fill="white"/>
</mask>
<g mask="url(#mask15_201_623)">
<path d="M1.7 414.645H1.60001C1.30001 414.545 0.800006 414.245 0.600006 413.945L0.5 413.845L0.600006 413.745L332.2 2.94458L332.3 3.04458C332.5 3.34458 332.9 3.54458 333.1 3.64458C333.2 3.64458 333.2 3.64458 333.2 3.64458L333.4 3.84458L1.9 414.545C1.9 414.645 1.8 414.645 1.7 414.645ZM0.800003 413.945C1 414.145 1.30001 414.445 1.60001 414.445C1.70001 414.445 1.7 414.445 1.7 414.445L333.1 3.84458C332.8 3.74458 332.5 3.54458 332.2 3.24458L0.800003 413.945Z" fill="white"/>
</g>
<mask id="mask16_201_623" style="mask-type:luminance" maskUnits="userSpaceOnUse" x="0" y="2" width="333" height="412">
<path d="M332.1 2.74438C332 2.84438 332.1 2.94438 332.2 3.14438L0.700014 413.944C0.600014 413.744 0.500015 413.644 0.600015 413.544C100 290.244 232.7 125.944 332.1 2.74438Z" fill="white"/>
</mask>
<g mask="url(#mask16_201_623)">
<path d="M0.700258 414.144L0.60026 414.044C0.40026 413.744 0.400253 413.644 0.500253 413.544C0.500253 413.444 0.600257 413.444 0.800257 413.444L332 2.94435C332 2.84435 332 2.74435 332 2.64435C332 2.54435 332.1 2.44435 332.4 2.54435H332.6L332.3 2.94435C332.3 2.94435 332.3 2.94435 332.3 3.04435L332.4 3.14435L332.3 3.24435L0.700258 414.144Z" fill="white"/>
<path d="M0.700493 413.744L0.500488 413.544L332 2.74438L332.201 2.94438L0.700493 413.744Z" fill="white"/>
</g>
<mask id="mask17_201_623" style="mask-type:luminance" maskUnits="userSpaceOnUse" x="0" y="2" width="333" height="412">
<path d="M332.1 2.74438C332 2.84438 332.1 2.94438 332.2 3.14438L0.700014 413.944C0.600014 413.744 0.500015 413.644 0.600015 413.544C100 290.244 232.7 125.944 332.1 2.74438Z" fill="white"/>
</mask>
<g mask="url(#mask17_201_623)">
<path d="M0.700099 414.144L0.600101 414.044C0.400101 413.744 0.500095 413.544 0.500095 413.544L332 2.64429L332.2 2.84429C332.2 2.84429 332.2 2.94429 332.3 3.04429L332.4 3.14429L332.3 3.24429L0.700099 414.144ZM332 3.04429L0.700099 413.544C0.700099 413.544 0.700099 413.544 0.700099 413.644L332 3.04429C332.1 3.04429 332.1 3.04429 332 3.04429Z" fill="white"/>
</g>
<mask id="mask18_201_623" style="mask-type:luminance" maskUnits="userSpaceOnUse" x="332" y="0" width="4" height="4">
<path d="M335.5 2.34455C334.8 2.84455 334 3.34455 333.3 3.74455C333.4 3.64455 333.4 3.54455 333.2 3.34455C333 3.04455 332.6 2.74454 332.3 2.64454C332.2 2.64454 332.1 2.64455 332 2.74455C332.3 1.94455 332.6 1.14455 333 0.344545C333.1 0.244545 333.2 0.144547 333.5 0.244547C334.1 0.344547 334.9 0.944546 335.3 1.54455C335.7 1.84455 335.7 2.14455 335.5 2.34455Z" fill="white"/>
</mask>
<g mask="url(#mask18_201_623)">
<path d="M333.2 3.94448H333.1L332.8 3.84448L333.2 3.54448C333.2 3.54448 333.2 3.44448 333.1 3.44448L333 3.34448L335.3 1.34448L335.4 1.44448C335.7 1.84448 335.7 2.14448 335.6 2.34448C335.5 2.44448 335.4 2.54448 335 2.54448L333.4 3.74448C333.4 3.84448 333.4 3.84448 333.4 3.84448C333.5 3.84448 333.4 3.94448 333.2 3.94448ZM333.4 3.34448L335 2.14448H335.1C335.3 2.14448 335.4 2.14448 335.5 2.14448C335.5 2.04448 335.5 1.94448 335.4 1.64448L333.4 3.34448Z" fill="white"/>
<path d="M333.4 3.84453L333.3 3.64453L335.5 2.14453L335.6 2.44453L333.4 3.84453Z" fill="white"/>
<path d="M335.457 1.94316L333.262 3.51538L333.379 3.67796L335.574 2.10574L335.457 1.94316Z" fill="white"/>
<path d="M333.3 3.54453L333.2 3.44453C333 3.14453 332.6 2.94453 332.4 2.84453H332.2L333.5 0.144531H333.6C334.2 0.244531 335 0.844533 335.5 1.54453L335.6 1.64453L333.3 3.54453ZM332.6 2.64453C332.9 2.74453 333.1 2.94453 333.3 3.14453L335.2 1.44453C334.8 0.94453 334.1 0.444532 333.6 0.344532L332.6 2.64453Z" fill="white"/>
<path d="M333.1 3.14448L332.9 2.94448L334.8 0.844482L335 0.944481L333.1 3.14448Z" fill="white"/>
<path d="M332.8 2.84448L332.6 2.74448L334.1 0.344482L334.3 0.444481L332.8 2.84448Z" fill="white"/>
<path d="M332.2 3.34443L332.1 3.14443C331.9 2.84443 331.9 2.74443 332 2.64443C332 2.54443 332.1 2.54443 332.3 2.54443L333.1 0.944431C332.9 0.644431 332.9 0.344434 333 0.244434C333.1 0.144434 333.2 0.0444336 333.6 0.0444336H333.8L333.4 0.844433V0.944431L332.2 3.34443ZM332.3 2.74443C332.2 2.74443 332.2 2.84443 332.3 2.74443C332.2 2.84443 332.2 2.84443 332.3 2.74443ZM333.4 0.244434C333.3 0.244434 333.2 0.244433 333.2 0.344433C333.2 0.344433 333.2 0.444432 333.2 0.644432L333.4 0.244434Z" fill="white"/>
<path d="M332.3 2.74453L332 2.64453L333 0.144531L333.3 0.244534L332.3 2.74453Z" fill="white"/>
</g>
<mask id="mask19_201_623" style="mask-type:luminance" maskUnits="userSpaceOnUse" x="332" y="0" width="4" height="4">
<path d="M335.5 2.34455C334.8 2.84455 334 3.34455 333.3 3.74455C333.4 3.64455 333.4 3.54455 333.2 3.34455C333 3.04455 332.6 2.74454 332.3 2.64454C332.2 2.64454 332.1 2.64455 332 2.74455C332.3 1.94455 332.6 1.14455 333 0.344545C333.1 0.244545 333.2 0.144547 333.5 0.244547C334.1 0.344547 334.9 0.944546 335.3 1.54455C335.7 1.84455 335.7 2.14455 335.5 2.34455Z" fill="white"/>
</mask>
<g mask="url(#mask19_201_623)">
<path d="M333.4 3.84444L333.3 3.64444C333.3 3.64444 333.3 3.54444 333.2 3.44444C333 3.14444 332.6 2.94444 332.4 2.84444C332.3 2.84444 332.3 2.84444 332.3 2.84444L332.1 2.74444C332.3 2.14444 332.5 1.64444 332.7 1.14444C332.8 0.844442 332.9 0.644442 333 0.344442C333 0.244442 333.2 0.0444417 333.7 0.144442C334.3 0.244442 335.1 0.844443 335.6 1.54444C335.8 1.84444 335.9 2.14444 335.9 2.34444C335.9 2.44444 335.8 2.54444 335.7 2.54444L333.4 3.84444ZM332.3 2.54444C332.7 2.64444 333.1 2.94444 333.4 3.24444C333.5 3.34444 333.5 3.44444 333.5 3.44444L335.5 2.14444C335.5 2.14444 335.5 2.14444 335.6 2.04444C335.6 1.94444 335.6 1.84444 335.4 1.44444C335 0.844441 334.2 0.344442 333.7 0.144442C333.6 0.144442 333.4 0.044444 333.3 0.244444C333.2 0.544444 333.1 0.744443 333 1.04444C332.7 1.64444 332.5 2.04444 332.3 2.54444Z" fill="white"/>
</g>
<mask id="mask20_201_623" style="mask-type:luminance" maskUnits="userSpaceOnUse" x="332" y="0" width="4" height="4">
<path d="M333.3 3.74434C333.3 3.74434 333.2 3.74434 333.1 3.74434C332.8 3.64434 332.4 3.34434 332.2 3.04434L333.3 0.944336C333.7 1.54434 334.5 2.14434 335.1 2.24434C335.3 2.24434 335.4 2.24434 335.5 2.24434C334.8 2.74434 334.1 3.24434 333.3 3.74434Z" fill="white"/>
</mask>
<g mask="url(#mask20_201_623)">
<path d="M333.2 3.84438C332.8 3.74438 332.4 3.44438 332.2 3.14438V3.04438L333.4 0.744385L333.5 0.944382C333.9 1.54438 334.7 2.04438 335.2 2.24438L335.5 2.34438L333.2 3.84438ZM332.4 3.04438C332.6 3.24438 332.9 3.54438 333.1 3.54438L334.8 2.34438C334.3 2.14438 333.7 1.74438 333.3 1.24438L332.4 3.04438Z" fill="white"/>
<path d="M332.6 3.44443L332.4 3.34443L333.7 1.54443L333.9 1.64443L332.6 3.44443Z" fill="white"/>
<path d="M332.9 3.74434L332.7 3.54434L334.4 1.94434L334.6 2.14434L332.9 3.74434Z" fill="white"/>
<path d="M333.2 3.94448H333.1L332.8 3.84448L333.2 3.54448C333.2 3.54448 333.2 3.44448 333.1 3.44448L333 3.34448L335.3 1.34448L335.4 1.44448C335.7 1.84448 335.7 2.14448 335.6 2.34448C335.5 2.44448 335.4 2.54448 335 2.54448L333.4 3.74448C333.4 3.84448 333.4 3.84448 333.4 3.84448C333.5 3.84448 333.4 3.94448 333.2 3.94448ZM333.4 3.34448L335 2.14448H335.1C335.3 2.14448 335.4 2.14448 335.5 2.14448C335.5 2.04448 335.5 1.94448 335.4 1.64448L333.4 3.34448Z" fill="white"/>
</g>
<mask id="mask21_201_623" style="mask-type:luminance" maskUnits="userSpaceOnUse" x="332" y="0" width="4" height="4">
<path d="M333.3 3.74434C333.3 3.74434 333.2 3.74434 333.1 3.74434C332.8 3.64434 332.4 3.34434 332.2 3.04434L333.3 0.944336C333.7 1.54434 334.5 2.14434 335.1 2.24434C335.3 2.24434 335.4 2.24434 335.5 2.24434C334.8 2.74434 334.1 3.24434 333.3 3.74434Z" fill="white"/>
</mask>
<g mask="url(#mask21_201_623)">
<path d="M333.2 3.94424H333.1C332.8 3.84424 332.3 3.54424 332.1 3.24424V3.14424L333.3 0.844238L333.4 1.04424C333.8 1.64424 334.6 2.14424 335.1 2.34424C335.3 2.34424 335.4 2.34424 335.4 2.34424L335.5 2.54424L333.3 3.94424C333.4 3.84424 333.3 3.94424 333.2 3.94424ZM332.4 3.04424C332.6 3.34424 332.9 3.54424 333.2 3.54424C333.3 3.54424 333.3 3.54424 333.3 3.54424L335.1 2.34424C334.5 2.24424 333.8 1.74424 333.3 1.14424L332.4 3.04424Z" fill="white"/>
</g>
<mask id="mask22_201_623" style="mask-type:luminance" maskUnits="userSpaceOnUse" x="332" y="0" width="2" height="4">
<path d="M333.1 0.344482C333 0.544482 333.1 0.744483 333.3 1.04448L332.2 3.14448C332.1 2.94448 332.1 2.84448 332.1 2.74448C332.4 1.94448 332.8 1.14448 333.1 0.344482Z" fill="white"/>
</mask>
<g mask="url(#mask22_201_623)">
<path d="M332.2 3.34443L332.1 3.14443C331.9 2.84443 331.9 2.74443 332 2.64443C332 2.54443 332.1 2.54443 332.3 2.54443L333.1 0.944431C332.9 0.644431 332.9 0.344434 333 0.244434C333.1 0.144434 333.2 0.0444336 333.6 0.0444336H333.8L333.4 0.844433V0.944431L332.2 3.34443ZM332.3 2.74443C332.2 2.74443 332.2 2.84443 332.3 2.74443C332.2 2.84443 332.2 2.84443 332.3 2.74443ZM333.4 0.244434C333.3 0.244434 333.2 0.244433 333.2 0.344433C333.2 0.344433 333.2 0.444432 333.2 0.644432L333.4 0.244434Z" fill="white"/>
<path d="M332.2 2.94434L332 2.84434L332.9 0.444336L333.2 0.544338L332.2 2.94434Z" fill="white"/>
</g>
<mask id="mask23_201_623" style="mask-type:luminance" maskUnits="userSpaceOnUse" x="332" y="0" width="2" height="4">
<path d="M333.1 0.344482C333 0.544482 333.1 0.744483 333.3 1.04448L332.2 3.14448C332.1 2.94448 332.1 2.84448 332.1 2.74448C332.4 1.94448 332.8 1.14448 333.1 0.344482Z" fill="white"/>
</mask>
<g mask="url(#mask23_201_623)">
<path d="M332.2 3.34438L332.1 3.14438C332 2.94438 331.9 2.74438 332 2.64438L333 0.244385L333.2 0.344383C333.2 0.444383 333.2 0.644382 333.4 0.944382V1.04438L332.2 3.34438ZM333 0.744385L332.2 2.74438L333.1 0.944382C333.1 0.944382 333.1 0.844385 333 0.744385Z" fill="white"/>
</g>
<mask id="mask24_201_623" style="mask-type:luminance" maskUnits="userSpaceOnUse" x="88" y="2" width="246" height="269">
<path d="M333.4 3.64434C306.7 92.5443 280 181.344 253.3 270.244C256.4 259.744 251.5 243.444 237.5 223.644C209.2 183.444 154.6 144.044 115.7 135.744C103.7 133.144 94.6 133.844 88.5 137.244C95.8 133.244 105.6 127.844 112.9 123.744C116.6 121.744 121.4 119.044 125.1 117.044C132.4 113.044 142.2 107.644 149.5 103.544C156.8 99.5443 166.6 94.1443 173.9 90.0443C177.6 88.0443 182.4 85.3443 186.1 83.3443C193.4 79.3443 203.2 73.9443 210.5 69.8443C217.8 65.8443 227.6 60.4443 234.9 56.3443C238.6 54.3443 243.4 51.6443 247.1 49.6443C254.4 45.6443 264.2 40.2443 271.5 36.1443C278.8 32.1443 288.6 26.7443 295.9 22.6443C299.6 20.6443 304.4 17.9443 308.1 15.9443C315.4 11.9443 325.2 6.54434 332.5 2.44434C332.5 2.44434 332.6 2.44434 332.7 2.44434C333 2.54434 333.4 2.84434 333.6 3.14434C333.4 3.44434 333.4 3.64434 333.4 3.64434Z" fill="white"/>
</mask>
<g mask="url(#mask24_201_623)">
<path d="M231.6 283.144C227.6 283.144 223.1 282.644 218.3 281.544H218.2L218.3 281.444L240.4 228.044C239.5 226.644 238.5 225.244 237.5 223.844V223.744V223.644L333.4 3.04443L333.5 3.24443C333.7 3.54443 333.7 3.64443 333.6 3.74443C333.6 3.74443 333.5 3.84443 333.3 3.84443L240.6 227.844C253.8 248.044 257.8 264.944 251.4 274.744C248.9 278.644 244.8 281.144 239.3 282.344C236.9 282.844 234.3 283.144 231.6 283.144ZM218.4 281.344C226.5 283.044 233.5 283.344 239.1 282.144C244.5 280.944 248.5 278.444 251.1 274.644C257.4 265.044 253.5 248.244 240.4 228.244L218.4 281.344ZM237.6 223.644C238.6 225.044 239.5 226.344 240.3 227.644L328.4 14.5444L237.6 223.644Z" fill="white"/>
<path d="M253.9 258.444L253.6 258.344L333.3 3.54443L333.5 3.64443L253.9 258.444Z" fill="white"/>
<path d="M237.5 223.944L237.4 223.744C209.1 183.644 154.5 144.244 115.7 135.844L115.4 135.744L115.7 135.544L332.4 2.54443C332.7 2.64443 333.2 2.94443 333.4 3.24443V3.34443V3.44443L237.5 223.944ZM116 135.744C154.8 144.144 209.2 183.444 237.4 223.444L333.1 3.34443C332.9 3.14443 332.6 2.84443 332.4 2.84443L116 135.744Z" fill="white"/>
<path d="M332.911 3.04083L201.835 184.808L202.078 184.984L333.154 3.21631L332.911 3.04083Z" fill="white"/>
<path d="M158.4 153.444L158.2 153.244L332.6 2.74438L332.8 2.94438L158.4 153.444Z" fill="white"/>
<path d="M96.4002 193.744L96.3002 193.644C80.8002 171.444 75.8002 152.844 82.7002 142.444C85.2002 138.544 89.3002 136.044 94.8002 134.844C100.5 133.644 107.5 133.944 115.7 135.644L332 2.74435V2.64435C332 2.54435 332.1 2.44435 332.4 2.54435L332.7 2.64435L332.2 2.94435C332.2 2.94435 332.2 3.04435 332.3 3.04435L332.4 3.14435L332.3 3.24435L96.4002 193.744ZM102.4 134.344C99.7002 134.344 97.1002 134.544 94.8002 135.044C89.4002 136.244 85.4002 138.744 82.8002 142.544C76.0002 152.844 81.0002 171.344 96.4002 193.344L332.1 3.04435L115.7 135.944C110.8 134.844 106.4 134.344 102.4 134.344Z" fill="white"/>
</g>
<mask id="mask25_201_623" style="mask-type:luminance" maskUnits="userSpaceOnUse" x="88" y="2" width="246" height="269">
<path d="M333.4 3.64434C306.7 92.5443 280 181.344 253.3 270.244C256.4 259.744 251.5 243.444 237.5 223.644C209.2 183.444 154.6 144.044 115.7 135.744C103.7 133.144 94.6 133.844 88.5 137.244C95.8 133.244 105.6 127.844 112.9 123.744C116.6 121.744 121.4 119.044 125.1 117.044C132.4 113.044 142.2 107.644 149.5 103.544C156.8 99.5443 166.6 94.1443 173.9 90.0443C177.6 88.0443 182.4 85.3443 186.1 83.3443C193.4 79.3443 203.2 73.9443 210.5 69.8443C217.8 65.8443 227.6 60.4443 234.9 56.3443C238.6 54.3443 243.4 51.6443 247.1 49.6443C254.4 45.6443 264.2 40.2443 271.5 36.1443C278.8 32.1443 288.6 26.7443 295.9 22.6443C299.6 20.6443 304.4 17.9443 308.1 15.9443C315.4 11.9443 325.2 6.54434 332.5 2.44434C332.5 2.44434 332.6 2.44434 332.7 2.44434C333 2.54434 333.4 2.84434 333.6 3.14434C333.4 3.44434 333.4 3.64434 333.4 3.64434Z" fill="white"/>
</mask>
<g mask="url(#mask25_201_623)">
<path d="M253.4 270.244L253.2 270.144C256.5 259.244 250.9 242.744 237.4 223.744C209.1 183.644 154.5 144.244 115.7 135.844C104.2 133.344 94.8001 133.844 88.7001 137.244L88.6001 137.044L332.1 2.54443C332.2 2.54443 332.3 2.54443 332.4 2.54443C332.7 2.64443 333.2 2.94443 333.4 3.24443C333.5 3.44443 333.6 3.54443 333.5 3.74443L253.4 270.244ZM102.4 134.144C106.4 134.144 110.9 134.644 115.7 135.644C154.6 143.944 209.3 183.444 237.6 223.644C249.9 241.044 255.6 256.344 254.1 267.144L333.3 3.64443C333.3 3.64443 333.3 3.54443 333.2 3.44443C333 3.14443 332.6 2.94443 332.4 2.84443C332.3 2.84443 332.3 2.84443 332.3 2.84443L91.3001 135.844C94.5001 134.644 98.2001 134.144 102.4 134.144Z" fill="white"/>
</g>
<mask id="mask26_201_623" style="mask-type:luminance" maskUnits="userSpaceOnUse" x="96" y="3" width="238" height="280">
<path d="M253.3 270.245C250 281.045 238.1 285.645 218.3 281.445C179.4 273.145 124.8 233.745 96.5 193.545L332.2 3.14453C332.4 3.44453 332.8 3.74453 333.1 3.84453C333.2 3.84453 333.3 3.84453 333.4 3.74453C306.7 92.5445 280 181.345 253.3 270.245Z" fill="white"/>
</mask>
<g mask="url(#mask26_201_623)">
<path d="M218.3 281.545H218.2C179.3 273.245 124.6 233.745 96.3002 193.545L96.2002 193.445L96.3002 193.345L332.3 2.94458L332.4 3.04458C332.6 3.34458 333 3.54458 333.2 3.64458H333.3L333.2 3.74458L218.3 281.545ZM96.6002 193.545C124.9 233.645 179.3 272.945 218.2 281.245L333 3.84458C332.7 3.74458 332.4 3.54458 332.2 3.24458L96.6002 193.545Z" fill="white"/>
<path d="M132.1 232.444L131.9 232.244L332.4 3.34448L332.6 3.44448L132.1 232.444Z" fill="white"/>
<path d="M332.589 3.53293L175.664 263.909L175.835 264.012L332.76 3.63616L332.589 3.53293Z" fill="white"/>
<path d="M231.6 283.145C227.6 283.145 223.1 282.645 218.3 281.545H218.2L218.3 281.445L240.4 228.045C239.5 226.645 238.5 225.245 237.5 223.845V223.745V223.645L333.4 3.04468L333.5 3.24468C333.7 3.54468 333.7 3.64468 333.6 3.74468C333.6 3.74468 333.5 3.84468 333.3 3.84468L240.6 227.845C253.8 248.045 257.8 264.945 251.4 274.745C248.9 278.645 244.8 281.145 239.3 282.345C236.9 282.845 234.3 283.145 231.6 283.145ZM218.4 281.345C226.5 283.045 233.5 283.345 239.1 282.145C244.5 280.945 248.5 278.445 251.1 274.645C257.4 265.045 253.5 248.245 240.4 228.245L218.4 281.345ZM237.6 223.645C238.6 225.045 239.5 226.345 240.3 227.645L328.4 14.5447L237.6 223.645Z" fill="white"/>
<path d="M247 279.145L246.7 279.045L333.2 3.74463H333.5L247 279.145Z" fill="white"/>
</g>
<mask id="mask27_201_623" style="mask-type:luminance" maskUnits="userSpaceOnUse" x="96" y="3" width="238" height="280">
<path d="M253.3 270.245C250 281.045 238.1 285.645 218.3 281.445C179.4 273.145 124.8 233.745 96.5 193.545L332.2 3.14453C332.4 3.44453 332.8 3.74453 333.1 3.84453C333.2 3.84453 333.3 3.84453 333.4 3.74453C306.7 92.5445 280 181.345 253.3 270.245Z" fill="white"/>
</mask>
<g mask="url(#mask27_201_623)">
<path d="M231.6 283.145C227.6 283.145 223.2 282.645 218.3 281.545C179.4 273.245 124.7 233.745 96.3998 193.545L96.2998 193.445L96.3998 193.345L332.3 2.94458L332.4 3.04458C332.6 3.34458 333 3.54458 333.2 3.64458C333.3 3.64458 333.3 3.64458 333.3 3.64458L333.5 3.74458L253.4 270.345C251.7 275.845 247.9 279.645 242 281.645C239 282.645 235.5 283.145 231.6 283.145ZM96.5998 193.545C124.9 233.645 179.4 273.045 218.3 281.345C228 283.445 235.9 283.445 241.9 281.445C247.7 279.445 251.5 275.745 253.1 270.245L333.1 3.94458H333C332.7 3.84458 332.3 3.64458 332.1 3.34458L96.5998 193.545Z" fill="white"/>
</g>
<mask id="mask28_201_623" style="mask-type:luminance" maskUnits="userSpaceOnUse" x="79" y="2" width="254" height="192">
<path d="M332.2 2.64453C332.1 2.74453 332.1 2.84453 332.3 3.04453L96.5002 193.545C76.9002 165.745 75.0002 144.745 88.6002 137.245C95.9002 133.245 105.7 127.845 113 123.745C116.7 121.745 121.5 119.045 125.2 117.045C132.5 113.045 142.3 107.645 149.6 103.545C156.9 99.5445 166.7 94.1445 174 90.0445C177.7 88.0445 182.5 85.3445 186.2 83.3445C193.5 79.3445 203.3 73.9445 210.6 69.8445C217.9 65.8445 227.7 60.4445 235 56.3445C238.7 54.3445 243.5 51.6445 247.2 49.6445C254.5 45.6445 264.3 40.2445 271.6 36.1445C278.9 32.1445 288.7 26.7445 296 22.6445C299.7 20.6445 304.5 17.9445 308.2 15.9445C315.1 12.1445 324.9 6.74453 332.2 2.64453Z" fill="white"/>
</mask>
<g mask="url(#mask28_201_623)">
<path d="M96.4002 193.745L96.3002 193.645C80.8002 171.445 75.8002 152.845 82.7002 142.445C85.2002 138.545 89.3002 136.045 94.8002 134.845C100.5 133.645 107.5 133.945 115.7 135.645L332 2.7446V2.64459C332 2.54459 332.1 2.4446 332.4 2.5446L332.7 2.64459L332.2 2.94459C332.2 2.94459 332.2 3.0446 332.3 3.0446L332.4 3.14459L332.3 3.2446L96.4002 193.745ZM102.4 134.345C99.7002 134.345 97.1002 134.545 94.8002 135.045C89.4002 136.245 85.4002 138.745 82.8002 142.545C76.0002 152.845 81.0002 171.345 96.4002 193.345L332.1 3.0446L115.7 135.945C110.8 134.845 106.4 134.345 102.4 134.345Z" fill="white"/>
<path d="M332.012 2.48365L87.0396 138.088L87.1848 138.35L332.157 2.74612L332.012 2.48365Z" fill="white"/>
<path d="M332.063 2.76124L80.1484 158.763L80.3064 159.018L332.221 3.0163L332.063 2.76124Z" fill="white"/>
</g>
<mask id="mask29_201_623" style="mask-type:luminance" maskUnits="userSpaceOnUse" x="79" y="2" width="254" height="192">
<path d="M332.2 2.64453C332.1 2.74453 332.1 2.84453 332.3 3.04453L96.5002 193.545C76.9002 165.745 75.0002 144.745 88.6002 137.245C95.9002 133.245 105.7 127.845 113 123.745C116.7 121.745 121.5 119.045 125.2 117.045C132.5 113.045 142.3 107.645 149.6 103.545C156.9 99.5445 166.7 94.1445 174 90.0445C177.7 88.0445 182.5 85.3445 186.2 83.3445C193.5 79.3445 203.3 73.9445 210.6 69.8445C217.9 65.8445 227.7 60.4445 235 56.3445C238.7 54.3445 243.5 51.6445 247.2 49.6445C254.5 45.6445 264.3 40.2445 271.6 36.1445C278.9 32.1445 288.7 26.7445 296 22.6445C299.7 20.6445 304.5 17.9445 308.2 15.9445C315.1 12.1445 324.9 6.74453 332.2 2.64453Z" fill="white"/>
</mask>
<g mask="url(#mask29_201_623)">
<path d="M96.4003 193.744L96.3002 193.644C83.4002 175.344 77.7002 159.144 80.2002 148.244C81.3002 143.244 84.1003 139.544 88.4003 137.144L332.1 2.54443L332.2 2.74443C332.2 2.74443 332.2 2.84443 332.3 2.94443L332.4 3.04443L332.3 3.14443L96.4003 193.744ZM332 2.94443L88.6002 137.344C84.3002 139.744 81.6002 143.344 80.5002 148.244C78.0002 159.044 83.7002 175.144 96.5002 193.344L332.1 3.04443C332 3.04443 332 2.94443 332 2.94443Z" fill="white"/>
</g>
<mask id="mask30_201_623" style="mask-type:luminance" maskUnits="userSpaceOnUse" x="0" y="134" width="255" height="281">
<path d="M245.4 279.944C164.2 324.844 83 369.644 1.8 414.544C1.9 414.444 1.9 414.344 1.7 414.144C1.5 413.844 1.1 413.544 0.800003 413.444C0.700003 413.444 0.6 413.444 0.5 413.544C27.2 324.644 53.9 235.844 80.6 146.944C83.9 136.144 95.8 131.544 115.6 135.744C154.5 144.044 209.1 183.444 237.4 223.644C257.1 251.544 259 272.444 245.4 279.944Z" fill="white"/>
</mask>
<g mask="url(#mask30_201_623)">
<path d="M1.69981 414.645H1.59981L1.2998 414.545L1.7998 414.245C1.7998 414.245 1.79981 414.145 1.69981 414.145L1.59981 414.045L1.69981 413.945L237.6 223.445L237.7 223.545C253.3 245.645 258.3 264.345 251.4 274.745C248.9 278.645 244.8 281.145 239.3 282.345C233.6 283.545 226.6 283.245 218.4 281.545L1.9998 414.445V414.545C1.8998 414.645 1.79981 414.645 1.69981 414.645ZM1.8998 414.145L218.3 281.345C226.5 283.145 233.5 283.345 239.1 282.145C244.5 280.945 248.5 278.445 251.1 274.645C257.9 264.345 252.9 245.845 237.5 223.845L1.8998 414.145Z" fill="white"/>
<path d="M246.7 278.882L1.72803 414.486L1.87333 414.748L246.845 279.144L246.7 278.882Z" fill="white"/>
<path d="M253.735 258.242L1.82031 414.244L1.97827 414.499L253.893 258.497L253.735 258.242Z" fill="white"/>
<path d="M1.69971 414.344L1.59971 414.244C1.39971 413.944 0.999705 413.744 0.799706 413.644H0.699707L0.799706 413.544L115.7 135.744H115.8C154.7 144.044 209.4 183.544 237.7 223.744L237.8 223.844L237.7 223.944L1.69971 414.344ZM0.999702 413.344C1.2997 413.444 1.59971 413.644 1.79971 413.944L237.4 223.644C209.1 183.544 154.7 144.244 115.8 135.944L0.999702 413.344Z" fill="white"/>
<path d="M1.59991 413.944L1.3999 413.744L201.9 184.744L202.1 184.944L1.59991 413.944Z" fill="white"/>
<path d="M158.072 153.21L1.14697 413.586L1.31828 413.689L158.243 153.313L158.072 153.21Z" fill="white"/>
<path d="M0.69977 414.144L0.599771 413.944C0.399771 413.644 0.399765 413.544 0.499765 413.444C0.499765 413.444 0.599768 413.344 0.799768 413.344L93.4998 189.344C80.1998 169.144 76.2998 152.244 82.6998 142.444C85.1998 138.544 89.2998 136.044 94.7998 134.844C100.5 133.644 107.5 133.944 115.8 135.644H115.9L115.8 135.844L93.6998 189.244C94.5998 190.644 95.5998 192.044 96.5998 193.444V193.544V193.644L0.69977 414.144ZM93.5998 189.544L5.39977 402.644L96.2998 193.544C95.3998 192.244 94.4998 190.844 93.5998 189.544ZM102.4 134.344C99.6998 134.344 97.0998 134.544 94.7998 135.044C89.3998 136.244 85.3998 138.744 82.7998 142.544C76.4998 152.144 80.3998 168.944 93.4998 188.944L115.5 135.844C110.7 134.844 106.3 134.344 102.4 134.344Z" fill="white"/>
<path d="M0.700005 413.544L0.5 413.444L87 138.044L87.2 138.144L0.700005 413.544Z" fill="white"/>
</g>
<mask id="mask31_201_623" style="mask-type:luminance" maskUnits="userSpaceOnUse" x="0" y="134" width="255" height="281">
<path d="M245.4 279.944C164.2 324.844 83 369.644 1.8 414.544C1.9 414.444 1.9 414.344 1.7 414.144C1.5 413.844 1.1 413.544 0.800003 413.444C0.700003 413.444 0.6 413.444 0.5 413.544C27.2 324.644 53.9 235.844 80.6 146.944C83.9 136.144 95.8 131.544 115.6 135.744C154.5 144.044 209.1 183.444 237.4 223.644C257.1 251.544 259 272.444 245.4 279.944Z" fill="white"/>
</mask>
<g mask="url(#mask31_201_623)">
<path d="M1.8 414.644L1.7 414.444C1.7 414.444 1.70001 414.344 1.60001 414.244C1.40001 413.944 1 413.744 0.800003 413.644C0.700003 413.644 0.700005 413.644 0.700005 413.644L0.5 413.544L80.6 146.944C82.3 141.444 86.1 137.644 92 135.644C98.1 133.644 106.1 133.644 115.8 135.644C154.7 143.944 209.4 183.444 237.7 223.644C250.6 241.944 256.3 258.144 253.8 269.044C252.7 274.044 249.9 277.744 245.6 280.144L1.8 414.644ZM0.800003 413.344C1.2 413.444 1.6 413.744 1.9 414.044C2 414.144 2 414.244 2 414.344L245.4 279.844C249.7 277.444 252.4 273.844 253.5 268.944C256 258.044 250.3 242.044 237.4 223.744C209.1 183.644 154.5 144.244 115.7 135.844C106 133.744 98.1 133.744 92.1 135.744C86.3 137.744 82.5 141.444 80.9 146.944L0.800003 413.344Z" fill="white"/>
</g>
<mask id="mask32_201_623" style="mask-type:luminance" maskUnits="userSpaceOnUse" x="0" y="193" width="246" height="222">
<path d="M1.80019 414.545C1.80019 414.545 1.7002 414.545 1.6002 414.545C1.3002 414.445 0.900195 414.145 0.700195 413.845L96.5002 193.445C124.8 233.645 179.4 273.045 218.3 281.345C230.3 283.945 239.4 283.245 245.5 279.845C164.2 324.845 83.0002 369.645 1.80019 414.545Z" fill="white"/>
</mask>
<g mask="url(#mask32_201_623)">
<path d="M1.6001 414.645C1.2001 414.545 0.800098 414.245 0.600098 413.945V413.845V413.745L96.5001 193.145L96.6001 193.345C124.9 233.445 179.5 272.845 218.3 281.245L218.6 281.345L218.3 281.545L1.6001 414.645ZM0.800095 413.845C1.00009 414.045 1.30009 414.345 1.50009 414.345L217.9 281.445C179.1 273.045 124.7 233.745 96.5001 193.745L0.800095 413.845Z" fill="white"/>
<path d="M131.891 232.309L0.814941 414.076L1.05829 414.252L132.134 232.484L131.891 232.309Z" fill="white"/>
<path d="M1.30019 414.545L1.2002 414.345L175.6 263.745L175.8 263.945L1.30019 414.545Z" fill="white"/>
<path d="M1.70029 414.645H1.6003L1.30029 414.545L1.80029 414.245C1.80029 414.245 1.80029 414.145 1.70029 414.145L1.6003 414.045L1.70029 413.945L237.6 223.445L237.7 223.545C253.3 245.645 258.3 264.345 251.4 274.745C248.9 278.645 244.8 281.145 239.3 282.345C233.6 283.545 226.6 283.245 218.4 281.545L2.00029 414.445V414.545C1.90029 414.645 1.80029 414.645 1.70029 414.645ZM1.90029 414.145L218.3 281.345C226.5 283.145 233.5 283.345 239.1 282.145C244.5 280.945 248.5 278.445 251.1 274.645C257.9 264.345 252.9 245.845 237.5 223.845L1.90029 414.145Z" fill="white"/>
</g>
<mask id="mask33_201_623" style="mask-type:luminance" maskUnits="userSpaceOnUse" x="0" y="193" width="246" height="222">
<path d="M1.80019 414.545C1.80019 414.545 1.7002 414.545 1.6002 414.545C1.3002 414.445 0.900195 414.145 0.700195 413.845L96.5002 193.445C124.8 233.645 179.4 273.045 218.3 281.345C230.3 283.945 239.4 283.245 245.5 279.845C164.2 324.845 83.0002 369.645 1.80019 414.545Z" fill="white"/>
</mask>
<g mask="url(#mask33_201_623)">
<path d="M1.7001 414.645H1.6001C1.3001 414.545 0.800098 414.245 0.600098 413.945V413.845V413.745L96.5001 193.145L96.6001 193.345C124.9 233.445 179.5 272.845 218.3 281.245C229.8 283.745 239.2 283.245 245.4 279.845L245.5 280.045L1.80009 414.645H1.7001ZM0.800095 413.845C1.00009 414.145 1.3001 414.345 1.6001 414.345C1.7001 414.345 1.7001 414.345 1.7001 414.345L242.6 281.345C236.5 283.545 228.2 283.645 218.2 281.545C179.3 273.245 124.8 233.845 96.4001 193.745L0.800095 413.845Z" fill="white"/>
</g>
<mask id="mask34_201_623" style="mask-type:luminance" maskUnits="userSpaceOnUse" x="0" y="146" width="97" height="268">
<path d="M80.7001 146.945C77.6001 157.445 82.5001 173.745 96.5001 193.545L0.700096 413.945C0.600096 413.845 0.600098 413.645 0.600098 413.645C27.3001 324.645 54.0001 235.845 80.7001 146.945Z" fill="white"/>
</mask>
<g mask="url(#mask34_201_623)">
<path d="M0.69977 414.144L0.599771 413.944C0.399771 413.644 0.399765 413.544 0.499765 413.444C0.499765 413.444 0.599768 413.344 0.799768 413.344L93.4998 189.344C80.1998 169.144 76.2998 152.244 82.6998 142.444C85.1998 138.544 89.2998 136.044 94.7998 134.844C100.5 133.644 107.5 133.944 115.8 135.644H115.9L115.8 135.844L93.6998 189.244C94.5998 190.644 95.5998 192.044 96.5998 193.444V193.544V193.644L0.69977 414.144ZM93.5998 189.544L5.39977 402.644L96.2998 193.544C95.3998 192.244 94.4998 190.844 93.5998 189.544ZM102.4 134.344C99.6998 134.344 97.0998 134.544 94.7998 135.044C89.3998 136.244 85.3998 138.744 82.7998 142.544C76.4998 152.144 80.3998 168.944 93.4998 188.944L115.5 135.844C110.7 134.844 106.3 134.344 102.4 134.344Z" fill="white"/>
<path d="M0.699905 413.644H0.399902L80.0999 158.844H80.2999L0.699905 413.644Z" fill="white"/>
</g>
<mask id="mask35_201_623" style="mask-type:luminance" maskUnits="userSpaceOnUse" x="0" y="146" width="97" height="268">
<path d="M80.7001 146.945C77.6001 157.445 82.5001 173.745 96.5001 193.545L0.700096 413.945C0.600096 413.845 0.600098 413.645 0.600098 413.645C27.3001 324.645 54.0001 235.845 80.7001 146.945Z" fill="white"/>
</mask>
<g mask="url(#mask35_201_623)">
<path d="M0.699921 414.144L0.599922 413.944C0.499922 413.744 0.399916 413.645 0.499916 413.444L80.5999 146.844L80.7999 146.944C77.4999 157.844 83.0999 174.344 96.5999 193.344V193.444V193.544L0.699921 414.144ZM79.8999 150.044L0.699921 413.544L96.2999 193.544C84.0999 176.144 78.3999 160.944 79.8999 150.044Z" fill="white"/>
</g>
<mask id="mask36_201_623" style="mask-type:luminance" maskUnits="userSpaceOnUse" x="0" y="413" width="2" height="3">
<path d="M1.8 414.545C1.2 414.845 0.6 415.245 0 415.545C0.1 415.245 0.200003 414.845 0.300003 414.545C0.400003 414.245 0.500006 413.845 0.600006 413.545C0.600006 413.445 0.700002 413.445 0.900002 413.445C1.2 413.545 1.6 413.845 1.8 414.145C1.9 414.345 1.9 414.445 1.8 414.545Z" fill="white"/>
</mask>
<g mask="url(#mask36_201_623)">
<path d="M0.000389099 415.645L-0.0996094 415.445L1.80039 413.945L1.90039 414.045C2.10039 414.345 2.10039 414.445 2.00039 414.545C2.00039 414.645 1.90039 414.645 1.70039 414.645L0.000389099 415.645ZM1.6004 414.445C1.7004 414.445 1.80039 414.445 1.80039 414.445C1.80039 414.445 1.80039 414.445 1.80039 414.345L1.6004 414.445Z" fill="white"/>
<path d="M1.71961 414.465L-0.117676 415.482L0.0276083 415.744L1.8649 414.727L1.71961 414.465Z" fill="white"/>
<path d="M1.78059 414.291L-0.0898438 415.449L0.0680998 415.704L1.93854 414.546L1.78059 414.291Z" fill="white"/>
<path d="M-0.299805 415.944L0.800194 413.344H0.900192C1.20019 413.444 1.70019 413.744 1.90019 414.044L2.00019 414.144L-0.299805 415.944ZM0.900192 413.644L0.300194 415.144L1.6002 414.144C1.4002 413.844 1.10019 413.744 0.900192 413.644Z" fill="white"/>
<path d="M0.100395 415.644L-0.0996094 415.444L1.40039 413.744L1.6004 413.944L0.100395 415.644Z" fill="white"/>
<path d="M1.05152 413.505L-0.135742 415.475L0.0355421 415.578L1.2228 413.608L1.05152 413.505Z" fill="white"/>
<path d="M0.100395 415.644L-0.0996094 415.545L0.600395 413.944C0.500395 413.744 0.500395 413.545 0.600395 413.545C0.600395 413.445 0.700389 413.344 1.00039 413.444H1.1004L0.800392 413.844L0.100395 415.644Z" fill="white"/>
<path d="M0.100296 415.545H-0.199707L0.50029 413.445L0.700294 413.545L0.100296 415.545Z" fill="white"/>
</g>
<mask id="mask37_201_623" style="mask-type:luminance" maskUnits="userSpaceOnUse" x="0" y="413" width="2" height="3">
<path d="M1.8 414.545C1.2 414.845 0.6 415.245 0 415.545C0.1 415.245 0.200003 414.845 0.300003 414.545C0.400003 414.245 0.500006 413.845 0.600006 413.545C0.600006 413.445 0.700002 413.445 0.900002 413.445C1.2 413.545 1.6 413.845 1.8 414.145C1.9 414.345 1.9 414.445 1.8 414.545Z" fill="white"/>
</mask>
<g mask="url(#mask37_201_623)">
<path d="M-0.299805 415.844L-0.199806 415.544C-0.0998062 415.344 -0.0998093 415.144 0.000190735 414.844C0.000190735 414.744 0.100197 414.644 0.100197 414.544L0.400192 413.544C0.400192 413.444 0.500194 413.344 0.800194 413.344C1.10019 413.444 1.60019 413.744 1.80019 414.044C1.90019 414.244 2.00019 414.344 1.90019 414.444C1.90019 414.544 1.80019 414.544 1.80019 414.644L-0.299805 415.844ZM0.700195 413.544L0.400192 414.544C0.400192 414.644 0.300194 414.744 0.300194 414.844C0.300194 414.944 0.200195 415.044 0.200195 415.244L1.7002 414.344C1.7002 414.344 1.7002 414.244 1.6002 414.144C1.4002 413.944 1.0002 413.644 0.700195 413.544Z" fill="white"/>
</g>
<mask id="mask38_201_623" style="mask-type:luminance" maskUnits="userSpaceOnUse" x="0" y="413" width="2" height="3">
<path d="M0 415.544L0.700005 413.844C0.900005 414.144 1.30001 414.444 1.60001 414.544C1.70001 414.544 1.8 414.544 1.8 414.544C1.2 414.844 0.6 415.244 0 415.544Z" fill="white"/>
</mask>
<g mask="url(#mask38_201_623)">
<path d="M-0.299805 415.845L0.700195 413.645L0.800194 413.845C1.00019 414.145 1.4002 414.345 1.6002 414.445L1.90019 414.545L-0.299805 415.845ZM0.700195 414.145L0.200195 415.245L1.30019 414.545C1.10019 414.445 0.900195 414.345 0.700195 414.145Z" fill="white"/>
<path d="M0.851262 414.094L-0.143066 415.472L0.100278 415.648L1.09461 414.269L0.851262 414.094Z" fill="white"/>
<path d="M0.000389099 415.644L-0.0996094 415.444L1.20039 414.344L1.30039 414.544L0.000389099 415.644Z" fill="white"/>
<path d="M0.000389099 415.645L-0.0996094 415.445L1.80039 413.945L1.90039 414.045C2.10039 414.345 2.10039 414.445 2.00039 414.545C2.00039 414.645 1.90039 414.645 1.70039 414.645L0.000389099 415.645ZM1.6004 414.445C1.7004 414.445 1.80039 414.445 1.80039 414.445C1.80039 414.445 1.80039 414.445 1.80039 414.345L1.6004 414.445Z" fill="white"/>
</g>
<mask id="mask39_201_623" style="mask-type:luminance" maskUnits="userSpaceOnUse" x="0" y="413" width="2" height="3">
<path d="M0 415.544L0.700005 413.844C0.900005 414.144 1.30001 414.444 1.60001 414.544C1.70001 414.544 1.8 414.544 1.8 414.544C1.2 414.844 0.6 415.244 0 415.544Z" fill="white"/>
</mask>
<g mask="url(#mask39_201_623)">
<path d="M-0.299805 415.845L0.700195 413.645L0.800194 413.845C1.00019 414.145 1.4002 414.345 1.6002 414.445C1.7002 414.445 1.7002 414.445 1.7002 414.445L1.80019 414.645L-0.299805 415.845ZM0.700195 414.145L0.200195 415.245L1.40019 414.645C1.20019 414.545 0.900195 414.345 0.700195 414.145Z" fill="white"/>
</g>
<mask id="mask40_201_623" style="mask-type:luminance" maskUnits="userSpaceOnUse" x="0" y="413" width="1" height="3">
<path d="M0.600006 413.544C0.600006 413.644 0.600005 413.744 0.700005 413.844L0 415.544C0.2 414.844 0.400006 414.244 0.600006 413.544Z" fill="white"/>
</mask>
<g mask="url(#mask40_201_623)">
<path d="M0.0999069 415.644L-0.100098 415.545L0.599907 413.944C0.499907 413.744 0.499907 413.545 0.599907 413.545C0.599907 413.445 0.699901 413.344 0.999901 413.444H1.09991L0.799904 413.844L0.0999069 415.644Z" fill="white"/>
<path d="M0.445874 413.555L-0.148926 415.465L0.0420167 415.524L0.636817 413.614L0.445874 413.555Z" fill="white"/>
</g>
<mask id="mask41_201_623" style="mask-type:luminance" maskUnits="userSpaceOnUse" x="0" y="413" width="1" height="3">
<path d="M0.600006 413.544C0.600006 413.644 0.600005 413.744 0.700005 413.844L0 415.544C0.2 414.844 0.400006 414.244 0.600006 413.544Z" fill="white"/>
</mask>
<g mask="url(#mask41_201_623)">
<path d="M0.0999069 415.644L-0.100098 415.544L0.499901 413.544L0.699905 413.644C0.699905 413.644 0.699904 413.744 0.799904 413.844V413.944L0.0999069 415.644Z" fill="white"/>
</g>
<mask id="mask42_201_623" style="mask-type:luminance" maskUnits="userSpaceOnUse" x="0" y="132" width="256" height="284">
<path d="M0 415.544L79.2 146.044C82.5 134.944 94.6 130.244 114.8 134.544C154.4 143.044 209.9 183.044 238.7 223.944C258.7 252.344 260.6 273.644 246.7 281.244C172.6 321.544 74 375.244 0 415.544Z" fill="white"/>
</mask>
<g mask="url(#mask42_201_623)">
<path d="M0.000389099 415.644L-0.0996094 415.444L238.7 223.744L238.8 223.844C254.6 246.344 259.7 265.344 252.7 275.844C250.1 279.744 246 282.344 240.4 283.544C234.6 284.744 227.5 284.544 219.1 282.744L0.000389099 415.644ZM238.7 224.144L1.50039 414.444L219.1 282.544C227.4 284.344 234.6 284.644 240.3 283.344C245.8 282.144 249.9 279.644 252.5 275.744C259.4 265.344 254.4 246.444 238.7 224.144Z" fill="white"/>
<path d="M0.000389099 415.644L-0.0996094 415.444L248.1 280.144L248.3 280.444L0.000389099 415.644Z" fill="white"/>
<path d="M0.000389099 415.644L-0.0996094 415.444L255.2 259.144L255.3 259.344L0.000389099 415.644Z" fill="white"/>
<path d="M-0.299805 415.944L-0.0998077 415.544L114.8 134.444H114.9C154.5 142.944 210.1 183.044 238.8 223.844L238.9 223.944L238.8 224.044L-0.299805 415.944ZM114.9 134.744L0.300194 415.144L238.6 223.944C209.8 183.144 154.4 143.144 114.9 134.744Z" fill="white"/>
<path d="M0.100395 415.644L-0.0996094 415.444L202.5 184.344L202.7 184.544L0.100395 415.644Z" fill="white"/>
<path d="M0.100395 415.644L-0.0996094 415.444L158 152.344L158.2 152.444L0.100395 415.644Z" fill="white"/>
<path d="M0.100395 415.644L-0.0996094 415.544L92.4004 189.244C78.8004 168.544 74.7004 151.244 81.3004 141.344C83.9004 137.444 88.0004 134.844 93.6004 133.644C99.4004 132.444 106.5 132.644 114.9 134.444H115L114.9 134.544L92.6004 189.144C93.5004 190.444 94.4004 191.844 95.3004 193.144V193.244V193.344L0.100395 415.644ZM92.5004 189.444L5.6004 402.044L95.1004 193.344C94.2004 192.044 93.3004 190.744 92.5004 189.444ZM101.3 133.144C98.5004 133.144 95.9004 133.444 93.6004 133.944C88.1004 135.144 84.0004 137.644 81.4004 141.544C74.9004 151.344 78.9004 168.544 92.4004 189.044L114.6 134.744C109.8 133.644 105.3 133.144 101.3 133.144Z" fill="white"/>
<path d="M0.100296 415.544H-0.199707L85.6003 136.844L85.9003 136.944L0.100296 415.544Z" fill="white"/>
</g>
<mask id="mask43_201_623" style="mask-type:luminance" maskUnits="userSpaceOnUse" x="0" y="132" width="256" height="284">
<path d="M0 415.544L79.2 146.044C82.5 134.944 94.6 130.244 114.8 134.544C154.4 143.044 209.9 183.044 238.7 223.944C258.7 252.344 260.6 273.644 246.7 281.244C172.6 321.544 74 375.244 0 415.544Z" fill="white"/>
</mask>
<g mask="url(#mask43_201_623)">
<path d="M-0.200195 415.844L-0.100197 415.544L79.0998 146.044C80.7998 140.344 84.6998 136.444 90.5998 134.444C96.7998 132.344 104.9 132.344 114.8 134.444C154.4 142.944 210 183.044 238.7 223.844C251.9 242.544 257.7 258.944 255.1 270.044C253.9 275.044 251.1 278.844 246.6 281.244L-0.200195 415.844ZM101.3 133.044C97.2998 133.044 93.7998 133.544 90.6998 134.644C84.7998 136.644 80.9998 140.544 79.2998 146.044L0.199806 415.244L246.6 281.044C251 278.644 253.8 274.944 254.9 269.944C257.5 258.844 251.7 242.544 238.6 223.944C209.9 183.144 154.3 143.044 114.8 134.644C109.8 133.644 105.3 133.044 101.3 133.044Z" fill="white"/>
</g>
<mask id="mask44_201_623" style="mask-type:luminance" maskUnits="userSpaceOnUse" x="0" y="193" width="247" height="223">
<path d="M246.6 281.244L0 415.544L95.3 193.244C124.1 234.144 179.6 274.144 219.2 282.644C231.3 285.244 240.5 284.544 246.6 281.244Z" fill="white"/>
</mask>
<g mask="url(#mask44_201_623)">
<path d="M-0.299805 415.844L-0.0998077 415.444L95.3002 192.944L95.4002 193.144C124.1 233.944 179.7 274.044 219.2 282.444L219.5 282.544L219.2 282.744L-0.299805 415.844ZM95.3002 193.544L0.200195 415.244L218.8 282.744C179.3 274.144 124 234.244 95.3002 193.544Z" fill="white"/>
<path d="M0.100395 415.644L-0.0996094 415.444L131.3 232.644L131.5 232.844L0.100395 415.644Z" fill="white"/>
<path d="M0.000389099 415.644L-0.0996094 415.444L175.7 264.744L175.9 264.944L0.000389099 415.644Z" fill="white"/>
<path d="M0.000389099 415.644L-0.0996094 415.444L238.7 223.744L238.8 223.844C254.6 246.344 259.7 265.344 252.7 275.844C250.1 279.744 246 282.344 240.4 283.544C234.6 284.744 227.5 284.544 219.1 282.744L0.000389099 415.644ZM238.7 224.144L1.50039 414.444L219.1 282.544C227.4 284.344 234.6 284.644 240.3 283.344C245.8 282.144 249.9 279.644 252.5 275.744C259.4 265.344 254.4 246.444 238.7 224.144Z" fill="white"/>
</g>
<mask id="mask45_201_623" style="mask-type:luminance" maskUnits="userSpaceOnUse" x="0" y="193" width="247" height="223">
<path d="M246.6 281.244L0 415.544L95.3 193.244C124.1 234.144 179.6 274.144 219.2 282.644C231.3 285.244 240.5 284.544 246.6 281.244Z" fill="white"/>
</mask>
<g mask="url(#mask45_201_623)">
<path d="M-0.299805 415.844L-0.199806 415.544L95.2002 193.044L95.3002 193.244C124 234.044 179.6 274.144 219.1 282.544C230.8 285.044 240.2 284.544 246.5 281.144L246.6 281.344L-0.299805 415.844ZM95.3002 193.544L0.200195 415.244L243.8 282.644C237.6 284.844 229.2 284.944 219.1 282.744C179.6 274.344 124.1 234.344 95.3002 193.544Z" fill="white"/>
</g>
<mask id="mask46_201_623" style="mask-type:luminance" maskUnits="userSpaceOnUse" x="0" y="146" width="96" height="270">
<path d="M0 415.544L79.2 146.044C76.1 156.744 81.2 173.244 95.3 193.244L0 415.544Z" fill="white"/>
</mask>
<g mask="url(#mask46_201_623)">
<path d="M0.0999069 415.645L-0.100098 415.545L92.3999 189.245C78.7999 168.545 74.6999 151.245 81.2999 141.345C83.8999 137.445 87.9999 134.845 93.5999 133.645C99.3999 132.445 106.5 132.645 114.9 134.445H115L114.9 134.545L92.5999 189.145C93.4999 190.445 94.3999 191.845 95.2999 193.145V193.245V193.345L0.0999069 415.645ZM92.4999 189.445L5.59991 402.045L95.0999 193.345C94.1999 192.045 93.2999 190.745 92.4999 189.445ZM101.3 133.145C98.4999 133.145 95.8999 133.445 93.5999 133.945C88.0999 135.145 83.9999 137.645 81.3999 141.545C74.8999 151.345 78.8999 168.545 92.3999 189.045L114.6 134.745C109.8 133.645 105.3 133.145 101.3 133.145Z" fill="white"/>
<path d="M0.0998077 415.545H-0.200195L78.5998 157.945L78.8998 158.045L0.0998077 415.545Z" fill="white"/>
</g>
<mask id="mask47_201_623" style="mask-type:luminance" maskUnits="userSpaceOnUse" x="0" y="146" width="96" height="270">
<path d="M0 415.544L79.2 146.044C76.1 156.744 81.2 173.244 95.3 193.244L0 415.544Z" fill="white"/>
</mask>
<g mask="url(#mask47_201_623)">
<path d="M0.0999069 415.644L-0.100098 415.544L79.0999 146.044L79.2999 146.144C75.9999 157.244 81.7999 173.944 95.3999 193.244V193.344V193.444L0.0999069 415.644ZM78.3999 149.144L0.699905 413.544L95.1999 193.244C82.6999 175.644 76.8999 160.244 78.3999 149.144Z" fill="white"/>
</g>
<mask id="mask48_201_623" style="mask-type:luminance" maskUnits="userSpaceOnUse" x="87" y="0" width="249" height="272">
<path d="M254.7 271.244C257.9 260.544 252.8 244.044 238.7 223.944C209.9 183.044 154.4 143.044 114.8 134.544C102.6 131.944 93.3002 132.644 87.2002 136.044C99.5002 129.244 111.8 122.444 124.1 115.644C131.5 111.544 141.3 106.144 148.7 102.044C156.1 97.9444 165.9 92.5444 173.3 88.4445C177 86.4445 181.9 83.6444 185.6 81.6444C193 77.5444 202.8 72.1444 210.2 68.0444C217.6 63.9444 227.4 58.5444 234.8 54.4444C238.5 52.4444 243.4 49.6444 247.1 47.6444C254.5 43.5444 264.3 38.1444 271.7 34.0444C279.1 29.9444 288.9 24.5444 296.3 20.4444C300 18.4444 304.9 15.6444 308.6 13.6444C316 9.54444 325.8 4.14444 333.2 0.0444444C333.3 0.0444444 333.4 -0.0555556 333.6 0.0444444C334.2 0.144444 335 0.744444 335.4 1.34444C335.6 1.64444 335.7 1.84444 335.6 2.04444C308.7 91.8444 281.7 181.544 254.7 271.244Z" fill="white"/>
</mask>
<g mask="url(#mask48_201_623)">
<path d="M232.7 284.345C228.6 284.345 224.1 283.845 219.1 282.745H219L219.1 282.645L241.6 228.345C240.7 226.945 239.7 225.545 238.7 224.045V223.945V223.845L335.5 1.14453L335.6 1.34453C335.9 1.74453 335.9 2.04453 335.8 2.24453C335.7 2.34453 335.6 2.44453 335.3 2.44453L241.8 228.245C255.3 248.845 259.3 266.045 252.8 275.845C250.2 279.745 246.1 282.345 240.5 283.545C238.1 284.145 235.5 284.345 232.7 284.345ZM219.3 282.545C227.6 284.345 234.7 284.545 240.4 283.345C245.9 282.145 250 279.645 252.6 275.745C259.1 265.945 255.1 248.945 241.7 228.545L219.3 282.545ZM238.8 223.945C239.8 225.345 240.7 226.645 241.6 228.045L331.3 11.1445L238.8 223.945ZM335.2 2.24453C335.3 2.24453 335.5 2.24453 335.5 2.14453C335.5 2.04453 335.5 1.94453 335.4 1.74453L335.2 2.24453Z" fill="white"/>
<path d="M255.301 259.245L255.101 259.145L335.501 1.94458L335.801 2.04458L255.301 259.245Z" fill="white"/>
<path d="M238.7 224.244L238.6 224.044C209.9 183.244 154.3 143.144 114.8 134.744L114.5 134.644L114.8 134.444L333.6 0.0444336C334.2 0.144434 335.001 0.744431 335.501 1.44443V1.54443V1.64443L238.7 224.244ZM115.2 134.544C154.7 143.144 210 183.044 238.7 223.744L335.3 1.54443C334.9 1.04443 334.2 0.444433 333.7 0.344433L115.2 134.544Z" fill="white"/>
<path d="M334.8 0.795234L202.437 184.347L202.68 184.523L335.043 0.970706L334.8 0.795234Z" fill="white"/>
<path d="M158.201 152.544L158.101 152.344L334.101 0.344482L334.301 0.544483L158.201 152.544Z" fill="white"/>
<path d="M95.2004 193.444L95.1004 193.344C79.3004 170.844 74.2004 151.844 81.2004 141.344C83.8004 137.444 87.9004 134.844 93.5004 133.644C99.3004 132.444 106.4 132.644 114.8 134.444L332.9 0.444431C332.9 0.344431 332.9 0.244434 333 0.244434C333.1 0.144434 333.2 0.0444336 333.6 0.0444336L333.9 0.144432L333.2 0.544434C333.2 0.644434 333.3 0.744431 333.4 0.944431L333.5 1.04443L333.4 1.14443L95.2004 193.444ZM101.3 133.144C98.5004 133.144 95.9004 133.444 93.6004 133.944C88.1004 135.144 84.0004 137.644 81.4004 141.544C74.5004 152.044 79.5004 170.844 95.3004 193.144L333.1 1.04443C333 0.944434 333 0.844434 332.9 0.744434L114.8 134.644C109.9 133.644 105.3 133.144 101.3 133.144Z" fill="white"/>
</g>
<mask id="mask49_201_623" style="mask-type:luminance" maskUnits="userSpaceOnUse" x="87" y="0" width="249" height="272">
<path d="M254.7 271.244C257.9 260.544 252.8 244.044 238.7 223.944C209.9 183.044 154.4 143.044 114.8 134.544C102.6 131.944 93.3002 132.644 87.2002 136.044C99.5002 129.244 111.8 122.444 124.1 115.644C131.5 111.544 141.3 106.144 148.7 102.044C156.1 97.9444 165.9 92.5444 173.3 88.4445C177 86.4445 181.9 83.6444 185.6 81.6444C193 77.5444 202.8 72.1444 210.2 68.0444C217.6 63.9444 227.4 58.5444 234.8 54.4444C238.5 52.4444 243.4 49.6444 247.1 47.6444C254.5 43.5444 264.3 38.1444 271.7 34.0444C279.1 29.9444 288.9 24.5444 296.3 20.4444C300 18.4444 304.9 15.6444 308.6 13.6444C316 9.54444 325.8 4.14444 333.2 0.0444444C333.3 0.0444444 333.4 -0.0555556 333.6 0.0444444C334.2 0.144444 335 0.744444 335.4 1.34444C335.6 1.64444 335.7 1.84444 335.6 2.04444C308.7 91.8444 281.7 181.544 254.7 271.244Z" fill="white"/>
</mask>
<g mask="url(#mask49_201_623)">
<path d="M254.8 271.344L254.6 271.244C257.9 260.144 252.2 243.444 238.6 224.044C209.9 183.244 154.3 143.144 114.8 134.744C103.1 132.244 93.5002 132.744 87.3002 136.244L87.2002 136.044L333.2 0.244434C333.3 0.144434 333.5 0.144434 333.7 0.244434C334.3 0.344434 335.1 0.944431 335.6 1.64443C335.8 1.94443 335.9 2.24443 335.9 2.44443L254.8 271.344ZM101.3 132.844C105.4 132.844 109.9 133.344 114.8 134.444C154.4 142.944 210 183.044 238.7 223.844C251.2 241.544 257 257.144 255.4 268.144L335.4 2.14443C335.4 2.04443 335.4 1.84443 335.2 1.54443C334.8 0.944433 334 0.444434 333.5 0.244434C333.4 0.244434 333.2 0.244434 333.2 0.244434L90.0002 134.644C93.2002 133.444 97.0002 132.844 101.3 132.844Z" fill="white"/>
</g>
<mask id="mask50_201_623" style="mask-type:luminance" maskUnits="userSpaceOnUse" x="95" y="0" width="241" height="285">
<path d="M335.6 2.14434C308.6 91.8443 281.7 181.544 254.7 271.244C251.4 282.244 239.2 286.944 219.1 282.644C179.5 274.144 124 234.144 95.2002 193.244L333.2 0.944336C333.6 1.54434 334.4 2.14434 335 2.24434C335.4 2.44434 335.6 2.34434 335.6 2.14434Z" fill="white"/>
</mask>
<g mask="url(#mask50_201_623)">
<path d="M219.2 282.844H219.1C179.5 274.344 123.9 234.244 95.2001 193.444L95.1001 193.344L95.2001 193.244L333.3 0.844238L333.4 0.944237C333.8 1.54424 334.6 2.04424 335.1 2.24424H335.2L335.1 2.34424L219.2 282.844ZM95.4001 193.344C124.1 234.044 179.5 274.044 219 282.544L334.9 2.44424C334.3 2.24424 333.7 1.74424 333.2 1.24424L95.4001 193.344Z" fill="white"/>
<path d="M131.5 232.844L131.3 232.644L333.7 1.54419L333.9 1.64419L131.5 232.844Z" fill="white"/>
<path d="M334.274 1.94215L175.852 264.802L176.023 264.905L334.445 2.04539L334.274 1.94215Z" fill="white"/>
<path d="M232.7 284.344C228.6 284.344 224.1 283.844 219.1 282.744H219L219.1 282.644L241.6 228.344C240.7 226.944 239.7 225.544 238.7 224.044V223.944V223.844L335.5 1.14429L335.6 1.34429C335.9 1.74429 335.9 2.04429 335.8 2.24429C335.7 2.34429 335.6 2.44429 335.3 2.44429L241.8 228.244C255.3 248.844 259.3 266.044 252.8 275.844C250.2 279.744 246.1 282.344 240.5 283.544C238.1 284.144 235.5 284.344 232.7 284.344ZM219.3 282.544C227.6 284.344 234.7 284.544 240.4 283.344C245.9 282.144 250 279.644 252.6 275.744C259.1 265.944 255.1 248.944 241.7 228.544L219.3 282.544ZM238.8 223.944C239.8 225.344 240.7 226.644 241.6 228.044L331.3 11.1443L238.8 223.944ZM335.2 2.24429C335.3 2.24429 335.5 2.24429 335.5 2.14429C335.5 2.04429 335.5 1.94429 335.4 1.74429L335.2 2.24429Z" fill="white"/>
<path d="M248.3 280.344L248.1 280.244L335.4 2.24438L335.7 2.34438L248.3 280.344Z" fill="white"/>
</g>
<mask id="mask51_201_623" style="mask-type:luminance" maskUnits="userSpaceOnUse" x="95" y="0" width="241" height="285">
<path d="M335.6 2.14434C308.6 91.8443 281.7 181.544 254.7 271.244C251.4 282.244 239.2 286.944 219.1 282.644C179.5 274.144 124 234.144 95.2002 193.244L333.2 0.944336C333.6 1.54434 334.4 2.14434 335 2.24434C335.4 2.44434 335.6 2.34434 335.6 2.14434Z" fill="white"/>
</mask>
<g mask="url(#mask51_201_623)">
<path d="M232.7 284.344C228.6 284.344 224.1 283.844 219.1 282.744C179.5 274.244 123.9 234.144 95.2001 193.344L95.1001 193.244L95.2001 193.144L333.3 0.844238L333.4 0.944237C333.8 1.54424 334.6 2.04424 335.1 2.24424C335.2 2.24424 335.4 2.34424 335.5 2.14424L335.7 2.24424L254.8 271.344C253.1 276.944 249.2 280.844 243.2 282.844C240.2 283.844 236.7 284.344 232.7 284.344ZM95.4001 193.344C124.2 234.144 179.6 274.144 219.1 282.544C228.9 284.644 237 284.644 243.1 282.644C249 280.644 252.8 276.844 254.5 271.244L335.3 2.44424C335.2 2.44424 335.1 2.44424 335 2.44424C334.4 2.34424 333.6 1.74424 333.2 1.14424L95.4001 193.344Z" fill="white"/>
</g>
<mask id="mask52_201_623" style="mask-type:luminance" maskUnits="userSpaceOnUse" x="78" y="0" width="256" height="194">
<path d="M87.2002 136.044C99.5002 129.244 111.8 122.444 124.1 115.644C131.5 111.544 141.3 106.144 148.7 102.044C156.1 97.9444 165.9 92.5444 173.3 88.4444C177 86.4444 181.9 83.6444 185.6 81.6444C193 77.5444 202.8 72.1444 210.2 68.0444C217.6 63.9444 227.4 58.5444 234.8 54.4444C238.5 52.4444 243.4 49.6444 247.1 47.6444C254.5 43.5444 264.3 38.1444 271.7 34.0444C279.1 29.9444 288.9 24.5444 296.3 20.4444C300 18.4444 304.9 15.6444 308.6 13.6444C316 9.54443 325.8 4.14443 333.2 0.0444336C333 0.144434 333 0.444433 333.3 0.844433L95.3002 193.144C75.3002 164.944 73.4002 143.644 87.2002 136.044Z" fill="white"/>
</mask>
<g mask="url(#mask52_201_623)">
<path d="M95.2004 193.444L95.1004 193.344C79.3004 170.844 74.2004 151.844 81.2004 141.344C83.8004 137.444 87.9004 134.844 93.5004 133.644C99.3004 132.444 106.4 132.644 114.8 134.444L332.9 0.444431C332.9 0.344431 332.9 0.244434 333 0.244434C333.1 0.144434 333.2 0.0444336 333.6 0.0444336L333.9 0.144432L333.2 0.544434C333.2 0.644434 333.3 0.744431 333.4 0.944431L333.5 1.04443L333.4 1.14443L95.2004 193.444ZM101.3 133.144C98.5004 133.144 95.9004 133.444 93.6004 133.944C88.1004 135.144 84.0004 137.644 81.4004 141.544C74.5004 152.044 79.5004 170.844 95.3004 193.144L333.1 1.04443C333 0.944434 333 0.844434 332.9 0.744434L114.8 134.644C109.9 133.644 105.3 133.144 101.3 133.144Z" fill="white"/>
<path d="M333.06 0.0114833L85.7256 136.923L85.8709 137.186L333.205 0.273956L333.06 0.0114833Z" fill="white"/>
<path d="M332.954 0.44597L78.6592 157.922L78.8171 158.177L333.112 0.701026L332.954 0.44597Z" fill="white"/>
</g>
<mask id="mask53_201_623" style="mask-type:luminance" maskUnits="userSpaceOnUse" x="78" y="0" width="256" height="194">
<path d="M87.2002 136.044C99.5002 129.244 111.8 122.444 124.1 115.644C131.5 111.544 141.3 106.144 148.7 102.044C156.1 97.9444 165.9 92.5444 173.3 88.4444C177 86.4444 181.9 83.6444 185.6 81.6444C193 77.5444 202.8 72.1444 210.2 68.0444C217.6 63.9444 227.4 58.5444 234.8 54.4444C238.5 52.4444 243.4 49.6444 247.1 47.6444C254.5 43.5444 264.3 38.1444 271.7 34.0444C279.1 29.9444 288.9 24.5444 296.3 20.4444C300 18.4444 304.9 15.6444 308.6 13.6444C316 9.54443 325.8 4.14443 333.2 0.0444336C333 0.144434 333 0.444433 333.3 0.844433L95.3002 193.144C75.3002 164.944 73.4002 143.644 87.2002 136.044Z" fill="white"/>
</mask>
<g mask="url(#mask53_201_623)">
<path d="M95.2003 193.444L95.1003 193.344C82.0003 174.644 76.1003 158.244 78.7003 147.144C79.9003 142.144 82.7003 138.344 87.1003 135.844L333.1 0.0444336L333.2 0.244434C333.2 0.244434 333.1 0.244433 333.1 0.344433C333.1 0.444433 333.2 0.644431 333.3 0.944431L333.4 1.04443L333.3 1.14443L95.2003 193.444ZM332.9 0.444431L87.3003 136.144C83.0003 138.544 80.2003 142.244 79.0003 147.244C76.5003 158.244 82.2003 174.544 95.3003 193.144L333.1 1.04443C333 0.844434 332.9 0.644431 332.9 0.444431Z" fill="white"/>
</g>
</svg>
