<svg width="405" height="404" viewBox="0 0 405 404" fill="none" xmlns="http://www.w3.org/2000/svg">
<path d="M155.3 403.657C145.1 403.657 135 400.657 125.6 392.757C114 383.057 103.8 371.257 94 359.957C87.4 352.357 80.6 344.557 73.5 337.357C66.9 330.757 59.5 324.457 52.3 318.457C40.3 308.357 27.9 297.857 18.5 285.257C6.2 268.657 0 244.257 0 212.757C0 185.557 5.4 159.157 16.2 134.057C18.4 129.057 20.6 123.957 22.8 119.157C30.3 102.457 38.1 85.2568 41.9 66.7568C42.8 62.2568 43.3 57.3568 43.8 52.1568C45.1 38.9568 46.4 25.3568 55.2 16.1568C75.6 -5.14319 123.5 -0.343189 155.2 2.75681C159.4 3.15681 163.5 3.55681 166.9 3.85681C191.4 5.85681 216.4 9.95681 240.5 13.8568C255.9 16.3568 271.8 18.9568 287.6 21.0568C311.7 24.1568 341.7 28.0568 362.2 48.5568C383 69.2568 388.1 99.4568 392.7 126.157C393.8 132.457 395 138.957 396.1 145.157C400.2 167.157 404.4 189.957 404.4 212.757C404.3 242.857 394.4 324.457 350.3 339.757C340.9 342.957 331.3 341.057 322.1 339.157C316.5 338.057 310.8 336.857 305.2 336.857C305.1 336.857 305.1 336.857 305 336.857C280.3 336.857 255.4 353.757 233.4 368.657C226.4 373.457 219.7 377.957 213.4 381.657C197.4 391.057 176.2 403.657 155.3 403.657ZM112.1 1.05681C89.7 1.05681 67.9 4.35681 55.9 16.9568C47.3 25.9568 46 39.3568 44.8 52.3568C44.3 57.5568 43.8 62.4568 42.9 67.0568C39.2 85.6568 31.3 102.957 23.8 119.657C21.6 124.557 19.3 129.557 17.2 134.557C6.5 159.457 1.1 185.857 1.1 212.857C1.1 244.157 7.3 268.357 19.4 284.757C28.6 297.257 41 307.757 53 317.857C60.2 323.957 67.6 330.157 74.3 336.857C81.5 344.057 88.3 351.957 94.9 359.557C104.7 370.857 114.8 382.557 126.3 392.257C138.5 402.457 152.7 405.357 169.9 401.057C184.4 397.457 198.5 389.557 212.8 381.057C219.1 377.357 225.7 372.857 232.8 368.057C254.9 353.057 280 336.057 305 336.057C305.1 336.057 305.1 336.057 305.2 336.057C310.9 336.057 316.7 337.257 322.3 338.357C331.4 340.157 340.9 342.057 350 338.957C393.5 323.857 403.4 242.857 403.5 212.957C403.6 190.257 399.3 167.557 395.3 145.557C394.1 139.357 392.9 132.857 391.9 126.457C387.4 99.9568 382.3 69.9568 361.7 49.3568C341.5 29.1568 311.6 25.2568 287.7 22.1568C272 20.1568 256 17.4568 240.6 14.9568C216.5 11.0568 191.6 6.95681 167.1 4.95681C163.6 4.65681 159.6 4.25681 155.3 3.85681C142.5 2.55681 127.2 1.05681 112.1 1.05681Z" fill="white"/>
<path d="M167.7 380.857C157.5 380.857 147.7 377.457 139.2 368.457C131.5 360.357 124.7 351.257 118 342.557C110.6 332.757 103 322.757 94.0999 313.857C85.8999 305.757 76.3999 298.757 67.1999 292.057C57.7999 285.257 48.0999 278.157 39.8999 269.857C26.8999 256.657 18.4999 235.157 16.8999 210.657C14.8999 180.857 25.3999 154.557 35.3999 129.057C41.8999 112.657 48.5999 95.6569 52.0999 77.6569C52.7999 74.0569 53.2999 70.2569 53.7999 66.1569C55.4999 52.8569 57.1999 39.0569 67.1999 30.3569C86.7999 13.3569 128.9 15.3569 156.8 16.6569C161.6 16.8569 166.1 17.0569 170 17.1569C189 17.6569 208.4 19.0568 227.2 20.5568C246.3 21.9568 266.1 23.4568 285.5 23.9568L289.2 24.0568C315.6 24.6568 342.8 25.2568 362.6 44.9568C381.8 64.1568 385.4 92.9568 387.3 120.757C387.7 126.557 388.2 132.457 388.6 138.257C390.5 161.957 392.4 186.457 390.5 210.357C385.1 277.857 367.3 318.657 339.1 328.357C330.5 331.357 321.5 329.957 312.8 328.657C306.3 327.657 299.6 326.657 293.1 327.557C273 330.157 253.7 341.857 235 353.257C227.8 357.657 220.9 361.857 214.2 365.357C199.3 373.357 183 380.857 167.7 380.857ZM129.5 16.8569C106.4 16.8569 81.6999 19.3569 68.0999 31.1569C58.3999 39.5569 56.6999 53.1568 54.9999 66.3568C54.4999 70.4568 53.9999 74.2569 53.2999 77.8568C49.6999 95.9568 42.9999 112.957 36.4999 129.457C25.9999 156.057 16.0999 181.057 17.9999 210.657C19.5999 234.857 27.8999 256.157 40.6999 269.157C48.8999 277.457 58.4999 284.457 67.7999 291.257C76.9999 297.957 86.6 304.957 94.7999 313.157C103.7 322.057 111.3 332.157 118.7 341.957C125.3 350.657 132.1 359.757 139.8 367.757C160.5 389.657 188.9 377.557 213.8 364.457C220.5 360.957 227.3 356.857 234.5 352.457C253.3 341.057 272.7 329.257 293 326.657C299.6 325.857 306.4 326.857 313 327.757C321.6 329.057 330.4 330.357 338.8 327.457C366.6 317.857 384.2 277.357 389.6 210.257C391.5 186.457 389.6 161.957 387.7 138.357C387.2 132.657 386.8 126.657 386.4 120.857C384.5 93.1568 381 64.6569 362 45.6569C342.5 26.1569 315.4 25.5568 289.3 24.9568L285.6 24.8569C266.2 24.3569 246.4 22.8568 227.3 21.4568C208.5 20.0568 189.1 18.5569 170.2 18.1569C166.3 18.0569 161.8 17.8569 157 17.6569C148.8 17.2569 139.3 16.8569 129.5 16.8569Z" fill="white"/>
<path d="M187.2 354.857C175.2 354.857 165.3 350.657 157.3 342.257C149.8 334.457 143.9 325.057 138.1 315.957C131.9 306.157 125.5 296.057 117.1 287.757C107.9 278.557 96.8 271.157 86.2 263.957C63.9 248.957 42.8 234.757 36.9 205.457C31.5 178.157 41.6 152.757 51.4 128.257C56.5 115.457 61.8 102.257 64.8 88.9569C65.4 86.2569 65.9 83.4569 66.5 80.4569C68.7 68.7569 71.1 55.5569 80.5 47.2569C99.5 30.3569 137.1 28.8569 164.6 27.7569C169.7 27.5569 174.5 27.3569 178.7 27.0569C199.2 25.7569 220.3 25.0569 240.7 24.3569C257.5 23.7569 275 23.2569 292 22.3569L295.3 22.1569C319.5 20.8569 346.9 19.3569 366 38.2569C385.5 57.6569 385.8 87.1569 386.1 110.957C386.5 148.057 384.7 177.657 380.3 204.057L379.7 207.757C374.2 241.757 363.9 304.857 328 318.657C319.9 321.757 311.2 321.457 302.7 321.057C296.7 320.857 290.4 320.557 284.5 321.657C268 324.557 251.9 332.057 236.4 339.257C230.2 342.157 223.8 345.157 217.6 347.657C206.2 352.457 196.1 354.857 187.2 354.857ZM314.9 22.5569C308.3 22.5569 301.8 22.9569 295.4 23.2569L292.1 23.4569C275 24.3569 257.6 24.9569 240.7 25.4569C220.3 26.1569 199.2 26.8569 178.7 28.1569C174.4 28.4569 169.6 28.6569 164.5 28.8569C137.2 29.9569 99.8 31.4569 81 48.0569C71.9 56.0569 69.6 68.5569 67.4 80.6569C66.8 83.6569 66.3 86.4569 65.7 89.1569C62.7 102.557 57.3 115.757 52.2 128.557C42.4 152.957 32.3 178.157 37.7 205.157C43.5 234.157 64.4 248.157 86.6 263.057C97.3 270.257 108.4 277.657 117.7 286.957C126.2 295.357 132.6 305.557 138.9 315.357C144.6 324.357 150.6 333.757 158 341.457C171.7 355.857 191.1 357.557 217.1 346.857C223.3 344.257 229.4 341.457 235.9 338.457C251.5 331.157 267.7 323.657 284.3 320.757C290.3 319.757 296.6 319.957 302.7 320.157C311.1 320.457 319.8 320.857 327.7 317.757C363.1 304.157 373.3 241.357 378.8 207.557L379.4 203.857C383.7 177.457 385.6 147.957 385.1 110.857C384.8 87.3569 384.5 57.9569 365.3 38.8569C351.6 25.3569 333.2 22.5569 314.9 22.5569Z" fill="white"/>
<path d="M211.8 330.357C186.7 330.357 174.7 310.357 162.1 289.257C155.8 278.857 149.4 268.057 141.2 259.957C131.5 250.357 118.4 243.657 105.7 237.057C86.8001 227.357 67.3001 217.257 58.5001 197.757C48.0001 174.357 58.6001 149.857 68.9001 126.157C72.8001 117.157 76.5001 108.757 78.9001 100.457C79.3001 99.1568 79.7001 97.8568 80.0001 96.6568C83.8001 83.6568 87.4001 71.4568 98.7001 62.5568C119.5 46.1568 152.3 40.9568 178.7 36.7568C182.9 36.0568 186.9 35.4568 190.8 34.7568C222.8 29.2568 257.4 24.1568 303 18.1568C323.8 15.4568 352.3 11.6568 370.6 29.8568C386.8 45.9568 388 71.0568 386.9 95.8568C385.5 127.157 380.4 160.657 371.8 195.357C371 198.457 370.2 201.957 369.3 205.657C361.3 239.357 348 295.757 316 310.657C307.7 314.557 298.1 315.157 288.9 315.857C284.4 316.157 279.7 316.557 275.3 317.257C265.5 318.857 255.8 321.357 246.3 323.657C238.3 325.657 229.9 327.757 221.7 329.357C218.3 330.057 214.9 330.357 211.8 330.357ZM329.9 16.8568C320.5 16.8568 311.3 18.0568 303.1 19.1568C257.5 25.1568 222.9 30.2568 190.9 35.7568C187.1 36.4568 183.1 37.0568 178.8 37.7568C152.5 41.9568 119.8 47.0568 99.2001 63.3568C88.1001 72.1568 84.6001 84.1568 80.8001 96.9568C80.4001 98.2568 80.1001 99.5568 79.7001 100.757C77.2001 109.057 73.5001 117.557 69.6001 126.557C59.4001 150.057 48.8001 174.357 59.2001 197.357C67.8001 216.557 87.2001 226.457 105.9 236.157C118.7 242.757 131.9 249.557 141.6 259.157C149.9 267.357 156.4 278.157 162.7 288.657C176.8 312.057 190 334.157 221.5 328.257C229.7 326.757 238 324.657 246.1 322.557C255.6 320.157 265.3 317.657 275.1 316.157C279.5 315.457 284.2 315.057 288.8 314.757C298 314.057 307.4 313.457 315.6 309.657C347.2 294.957 360.4 238.857 368.4 205.357C369.3 201.657 370.1 198.157 370.9 195.057C379.5 160.457 384.5 127.057 385.9 95.7568C387 71.2568 385.8 46.3568 369.9 30.5568C359.1 19.7568 344.4 16.8568 329.9 16.8568Z" fill="white"/>
<path d="M258.8 313.157C244.8 313.157 232.6 311.357 226.9 310.357C204.7 306.357 194.8 285.457 185.2 265.257C179.5 253.157 173.5 240.657 165.1 232.257C153.1 220.357 137.6 215.257 122.6 210.357C107.8 205.557 92.6 200.557 81.1 188.957C64 171.657 77.1 146.057 87.6 125.557C90 120.757 92.4 116.257 94.1 112.157C113.2 67.1568 158.2 54.3568 201.7 41.9568L205.1 40.9568C240.2 30.9568 276 21.9568 311.4 14.2568C332.2 9.75677 358 4.15677 375.4 21.3568C392.3 38.0568 390.2 65.1568 387 89.2568C383 119.057 375.7 150.257 364.9 184.957C354.9 216.957 344.1 244.157 331.7 268.057C324.8 281.557 317.6 295.457 304 303.457C291 311.057 273.9 313.157 258.8 313.157ZM343.3 10.7568C332.5 10.7568 321.4 13.1568 311.5 15.3568C276.1 23.0568 240.3 31.9568 205.3 42.0568L201.9 43.0568C158.6 55.4568 113.9 68.1568 94.9 112.757C93.2 116.857 90.8 121.357 88.4 126.157C78.1 146.457 65.2 171.657 81.8 188.457C93.1 199.857 107.6 204.557 122.9 209.557C138 214.457 153.7 219.657 165.8 231.757C174.4 240.357 180.4 252.857 186.1 265.057C195.6 285.057 205.4 305.657 227.1 309.557C238.8 311.657 278.8 317.257 303.4 302.757C316.7 294.857 323.8 281.157 330.7 267.757C343 243.857 353.8 216.757 363.8 184.857C374.6 150.257 381.8 119.057 385.9 89.3568C389.1 65.5568 391.2 38.7568 374.6 22.3568C365.8 13.4568 354.8 10.7568 343.3 10.7568Z" fill="white"/>
<path d="M265.2 304.557C254.4 304.557 243.3 300.057 232.1 291.057C218.3 280.057 213.1 263.357 208 247.257C203.4 232.657 198.7 217.457 187.6 206.457C173.5 192.557 156.5 190.257 138.5 187.757C127 186.157 115.1 184.557 103.9 179.757C97.7 177.057 93.8 173.157 92.2 168.157C88.7 156.757 98.3 141.457 105.3 130.257C106.7 127.957 108.1 125.857 109.2 123.957C132.6 84.0568 173 65.4568 219.5 46.9568C256.2 32.3568 289.2 20.9568 320.4 12.2568L323.1 11.5568C340.8 6.55681 362.8 0.356815 378 15.2568C393.8 30.7568 389.1 56.7568 385.7 75.7568L385.5 76.9568C380.3 106.157 371.2 137.957 357.8 174.257C356.8 176.857 355.8 179.857 354.6 183.057C340.9 221.157 315.3 291.957 275.7 303.157C272.3 304.157 268.8 304.557 265.2 304.557ZM353.3 6.85681C343.5 6.85681 333.1 9.75681 323.4 12.5568L320.7 13.2568C289.5 21.9568 256.6 33.2568 220 47.8568C173.7 66.2568 133.4 84.7568 110.2 124.457C109.1 126.357 107.7 128.557 106.3 130.857C99.4 141.857 89.9 156.957 93.3 167.957C94.7 172.657 98.5 176.357 104.4 178.957C115.4 183.757 127.3 185.357 138.7 186.957C156.9 189.457 174.1 191.757 188.4 205.957C199.7 217.157 204.5 232.457 209.1 247.157C214.1 263.157 219.2 279.657 232.8 290.457C247.5 302.157 261.9 306.157 275.6 302.257C314.7 291.257 340.1 220.657 353.8 182.757C355 179.557 356 176.557 357 173.957C370.4 137.757 379.4 105.957 384.6 76.8568L384.8 75.6568C388.2 56.8568 392.8 31.1568 377.3 16.0568C370.4 9.15681 362.1 6.85681 353.3 6.85681Z" fill="white"/>
<path d="M263.3 295.757C262.1 295.757 260.9 295.657 259.7 295.357C251.4 293.557 244 285.957 236.9 272.057C231.4 261.157 228.9 247.957 226.5 235.257C223 216.757 219.4 197.657 206.6 185.057C192.3 170.957 170.5 171.357 149.5 171.657C141.2 171.757 133.4 171.957 126.3 171.157C117.9 170.257 112.9 167.857 111.1 163.657C107.8 155.957 117 144.057 123.7 135.457C154.4 95.9567 196.2 71.8567 233.1 53.4567C265.1 37.5567 293.8 25.2567 321 16.0567C322.3 15.6567 323.7 15.1567 325.1 14.6567C340.5 9.2567 363.7 1.15669 376.8 13.9567C390.5 27.3567 384.6 53.2567 380.6 70.4567C380.3 71.8567 380 73.2567 379.7 74.5567C373.7 101.557 364.3 130.057 350.3 164.257C348.6 168.457 346.8 172.857 344.9 177.457C329.4 215.857 310.1 263.657 279.6 288.857C274 293.457 268.5 295.757 263.3 295.757ZM159.4 170.557C177.4 170.557 195.1 172.157 207.4 184.357C220.4 197.157 224 216.457 227.5 235.157C229.9 247.857 232.4 260.957 237.8 271.757C244.6 285.257 252 292.857 259.9 294.557C265.9 295.857 272.3 293.657 279 288.157C309.4 263.157 328.6 215.457 344.1 177.157C345.9 172.557 347.7 168.157 349.5 163.957C363.6 129.757 372.9 101.357 378.9 74.4567C379.2 73.1567 379.5 71.8567 379.8 70.3567C383.7 53.4567 389.6 27.8567 376.2 14.8567C363.5 2.4567 340.7 10.4567 325.5 15.7567C324.1 16.2567 322.7 16.7567 321.4 17.1567C294.3 26.3567 265.6 38.5567 233.7 54.4567C196.9 72.7567 155.3 96.8567 124.7 136.157C118.1 144.557 109.1 156.157 112.2 163.357C113.8 167.057 118.6 169.357 126.5 170.257C133.6 170.957 141.4 170.857 149.6 170.757C152.8 170.657 156.1 170.557 159.4 170.557Z" fill="white"/>
<path d="M258.1 283.457C257.1 283.457 256.1 283.257 255.1 282.957C246.6 279.957 243.1 264.157 240.9 253.757C239.4 246.657 238.6 238.257 237.7 229.357C235.6 208.057 233.3 183.957 220.1 171.057C206 157.357 181.1 160.357 161.1 162.857C156.2 163.457 151.6 164.057 147.3 164.357C136.1 165.157 130.4 164.157 128.9 161.057C127.5 158.157 129.8 153.457 136.3 146.457C165.6 114.757 200.8 87.1568 244.1 62.0568C272.1 45.8568 295.4 34.3568 317.4 25.8568C318.3 25.4568 319.3 25.1568 320.4 24.6568C334 19.3568 356.9 10.3568 368.8 21.5568C380 32.1568 374.7 55.3568 371.5 69.2568C371.3 70.2568 371.1 71.1568 370.9 72.0568C363.9 103.557 351.4 133.657 341.4 156.457C327.7 187.457 313.7 214.257 298.5 238.457C297 240.857 295.5 243.357 293.9 245.957C286.9 257.557 278.9 270.757 268.6 279.057C264.7 281.957 261.2 283.457 258.1 283.457ZM187.2 159.657C200 159.657 212.3 161.957 220.8 170.257C234.3 183.457 236.7 207.757 238.7 229.257C239.6 238.157 240.4 246.557 241.9 253.557C244.1 263.757 247.4 279.257 255.5 282.057C259 283.257 263.1 281.957 267.9 278.157C278.1 269.957 286 256.857 293 245.257C294.6 242.657 296.1 240.157 297.6 237.657C312.7 213.557 326.8 186.757 340.4 155.757C350.4 133.057 362.9 102.957 369.9 71.5568C370.1 70.6568 370.3 69.7568 370.5 68.7568C373.6 55.0568 378.9 32.1568 368.1 21.9568C356.7 11.1568 334.2 19.9568 320.8 25.2568C319.8 25.6568 318.8 26.0568 317.8 26.4568C295.8 34.9568 272.6 46.3568 244.6 62.6568C201.4 87.7568 166.2 115.257 137 146.957C130.9 153.557 128.6 157.957 129.8 160.457C131.1 163.157 136.6 163.957 147.2 163.257C151.4 162.957 156 162.357 160.9 161.757C169.2 160.757 178.3 159.657 187.2 159.657Z" fill="white"/>
<path d="M253.1 266.257C252.3 266.257 251.6 266.157 250.9 265.857C245.2 263.457 244.5 251.957 243.8 241.757C243.7 239.957 243.6 238.157 243.4 236.557C243 232.157 242.8 227.557 242.6 222.657C241.7 202.657 240.7 179.957 226.5 165.857C211.8 151.257 190 155.457 170.7 159.157C169.2 159.457 167.7 159.757 166.2 160.057C164.4 160.357 162.6 160.757 160.8 161.157C153.5 162.657 147.8 163.857 146.4 161.557C145.4 159.757 147.2 156.457 152.4 150.957C183.1 117.957 223.3 90.7567 250.8 73.1567C252.9 71.8567 255.4 70.1567 258.4 68.1567C282.1 52.2567 331.5 19.1567 352.4 39.3567C373.9 60.2567 346.8 116.257 333.7 143.157C332.1 146.457 330.8 149.257 329.7 151.557C328.1 154.957 326.5 158.557 324.9 162.157C309.6 195.857 290.5 237.757 262.7 261.657C258.9 264.657 255.7 266.257 253.1 266.257ZM198 154.657C208.7 154.657 219.1 157.157 227.2 165.157C241.6 179.457 242.6 202.357 243.6 222.657C243.8 227.557 244 232.157 244.4 236.557C244.5 238.157 244.7 239.957 244.8 241.757C245.4 251.157 246.2 262.857 251.3 265.057C253.9 266.157 257.5 264.657 262 260.757C289.7 236.957 308.7 195.157 324 161.557C325.7 157.957 327.3 154.357 328.8 150.957C329.9 148.657 331.2 145.857 332.8 142.557C345.7 115.857 372.7 60.3567 351.7 39.9567C331.4 20.3567 282.5 53.1567 259 68.8567C256 70.8567 253.5 72.5567 251.4 73.8567C223.9 91.4567 183.8 118.557 153.2 151.557C147.4 157.757 146.8 160.157 147.3 161.057C148.3 162.757 154.5 161.457 160.6 160.157C162.4 159.757 164.2 159.357 166.1 159.057C167.6 158.757 169.1 158.457 170.6 158.157C179.1 156.457 188.7 154.657 198 154.657Z" fill="white"/>
<path d="M252.3 242.257C251.5 242.257 250.8 242.157 250.2 241.857C245.4 239.757 244.7 230.557 244 220.857V220.557C241.9 191.657 235.2 173.857 222.8 164.557C212.9 157.157 199.8 155.257 182.6 158.957C173.7 160.857 169.2 161.357 168 159.357C167 157.657 168.7 154.557 173.6 148.957C194.7 125.057 224.7 105.457 251.2 88.2568L252.2 87.5568C253.5 86.7568 254.9 85.7568 256.6 84.6568C274.9 72.3568 313 46.8568 330.4 63.7568C348.2 80.9568 327.6 123.957 317.6 144.557C316.6 146.657 315.7 148.557 314.9 150.157C313.3 153.657 311.6 157.357 309.9 161.157C298.1 187.457 283.3 220.157 261.7 237.557C257.9 240.757 254.8 242.257 252.3 242.257ZM198.1 156.257C208.2 156.257 216.6 158.757 223.4 163.857C236 173.357 242.9 191.357 245 220.557V220.857C245.6 229.857 246.3 239.157 250.6 240.957C253 241.957 256.5 240.657 261.2 236.957C282.7 219.757 297.4 187.157 309.2 160.957C310.9 157.157 312.6 153.457 314.2 149.957C315 148.357 315.9 146.457 316.9 144.257C326.7 123.857 347.1 81.2568 329.9 64.5568C313 48.1568 275.4 73.4568 257.3 85.5568C255.6 86.6568 254.1 87.6568 252.9 88.4568L251.9 89.1568C225.5 106.357 195.5 125.857 174.5 149.657C170.1 154.557 168.3 157.657 169 158.857C170 160.457 176.2 159.357 182.5 158.057C187.9 156.857 193.2 156.257 198.1 156.257Z" fill="white"/>
<path d="M251.9 215.257C251.7 215.257 251.5 215.257 251.3 215.257C247.9 214.857 245.6 211.357 244.4 204.757C241.9 190.257 232.3 156.857 198.4 158.657C194.2 158.857 191.7 158.157 190.8 156.457C189.5 153.857 192.6 149.557 195.7 145.757C209.1 129.157 231.2 115.957 248.9 105.357L251.7 103.657C252.4 103.257 253.1 102.857 253.8 102.357C266.6 94.6567 293.1 78.5567 306.4 90.9567C319.7 103.457 306.5 133.657 300.1 148.157C299.7 149.157 299.3 150.057 298.9 150.857C298.7 151.457 267.6 215.257 251.9 215.257ZM200.8 157.457C223.9 157.457 240.1 174.457 245.4 204.457C246.5 210.557 248.5 213.857 251.4 214.157C265.3 215.757 295.7 155.957 298.1 150.357C298.4 149.557 298.8 148.657 299.3 147.657C305.6 133.357 318.6 103.657 305.8 91.6567C293.1 79.7567 267 95.5567 254.4 103.157C253.6 103.657 252.9 104.057 252.3 104.457L249.5 106.157C231.8 116.757 209.8 129.857 196.5 146.257C194.4 148.857 190.6 153.557 191.7 155.857C192.4 157.157 194.6 157.657 198.3 157.457C199.2 157.457 200 157.457 200.8 157.457Z" fill="white"/>
<path d="M252.4 193.057C249.7 193.057 247.4 191.457 245.4 188.357C237.3 175.657 227.5 165.857 214.5 157.457C212.7 156.257 211.8 154.757 212 152.857C212.6 142.057 246.3 122.357 250.8 120.057L251.5 119.757C259.7 115.657 275 107.957 283.9 116.257C292.8 124.557 286.1 142.457 282.9 151.057L282.6 151.857C282.5 152.257 266.6 191.657 253.2 193.057C252.9 193.057 252.7 193.057 252.4 193.057ZM246.3 187.857C248.2 190.857 250.5 192.357 253.1 192.057C264.6 190.857 279.4 157.557 281.7 151.457L282 150.657C285.1 142.257 291.6 124.757 283.3 116.957C275 109.157 260.1 116.657 252.1 120.657L251.4 120.957C247.6 122.857 213.7 142.557 213.1 152.857C213 154.357 213.7 155.557 215.2 156.557C228.2 165.057 238.1 174.957 246.3 187.857Z" fill="white"/>
<path d="M249 171.957C248.3 171.957 247.6 171.857 247 171.757C240.5 170.157 233 161.757 231.1 155.857C229 149.257 238.9 141.257 249.7 136.857C254.8 134.757 259.7 135.357 263 138.357C266.6 141.657 267.7 147.257 265.9 152.957C261.3 167.157 254.3 171.957 249 171.957ZM255.6 136.657C253.8 136.657 252 137.057 250.1 137.857C238.2 142.757 230.5 150.357 232.1 155.657C233.9 161.257 241.2 169.357 247.3 170.857C256 172.957 262.5 160.457 265 152.757C266.7 147.457 265.7 142.257 262.4 139.157C260.5 137.457 258.1 136.657 255.6 136.657Z" fill="white"/>
</svg>
