<svg width="457" height="332" viewBox="0 0 457 332" fill="none" xmlns="http://www.w3.org/2000/svg">
<mask id="mask0_201_603" style="mask-type:luminance" maskUnits="userSpaceOnUse" x="243" y="26" width="82" height="203">
<path d="M260.591 228.6C259.191 227.5 257.391 226 255.991 225C225.791 202.4 253.691 113.7 318.491 26.8999C320.591 28.4999 322.691 30.0999 324.691 31.8999C256.091 113.3 227.891 200.5 260.591 228.6Z" fill="white"/>
</mask>
<g mask="url(#mask0_201_603)">
<path d="M261.891 230.3C260.991 229.6 260.191 228.9 259.391 228.2C231.491 205.6 191.791 195.1 158.891 199.8C150.391 204.3 140.991 207.3 130.891 208.6L128.191 208.9L130.591 207.6C138.891 203.2 148.391 200.2 158.591 198.8C171.191 192 181.791 181.8 190.091 168.4C213.591 130.1 214.591 71 192.891 10.2L192.791 9.79995L193.191 9.59995C229.391 -9.80005 288.591 -4.57764e-05 325.191 31.4L325.591 31.7L325.291 32.0999C273.791 93.2999 243.491 159.4 248.191 200.6C249.491 212.2 253.591 221.1 260.291 227.3C261.091 228 261.991 228.7 262.791 229.4L261.891 230.3ZM174.791 197.7C202.291 197.7 232.391 206.9 255.491 223.9C250.891 217.9 248.091 210.2 246.991 200.8C242.291 159.4 272.591 93.2 323.991 31.9C287.791 1.09995 229.691 -8.60005 193.891 10.3C215.491 71.2 214.391 130.5 190.791 169C182.991 181.8 172.991 191.7 161.191 198.5C165.591 198 170.191 197.7 174.791 197.7ZM155.591 200.3C147.791 201.7 140.391 204 133.691 207.2C141.491 205.9 148.791 203.6 155.591 200.3Z" fill="white"/>
<path d="M269.391 114.5C252.591 100.1 225.391 95.4999 208.891 104.4L208.391 103.5C225.291 94.3999 252.991 98.9999 270.091 113.7L269.391 114.5Z" fill="white"/>
<path d="M246.891 185.5C230.091 171.1 202.891 166.5 186.391 175.4L185.891 174.5C202.791 165.4 230.491 170 247.591 184.7L246.891 185.5Z" fill="white"/>
</g>
<mask id="mask1_201_603" style="mask-type:luminance" maskUnits="userSpaceOnUse" x="243" y="26" width="82" height="203">
<path d="M260.591 228.6C259.191 227.5 257.391 226 255.991 225C225.791 202.4 253.691 113.7 318.491 26.8999C320.591 28.4999 322.691 30.0999 324.691 31.8999C256.091 113.3 227.891 200.5 260.591 228.6Z" fill="white"/>
</mask>
<g mask="url(#mask1_201_603)">
<path d="M260.291 229L259.191 228.1C258.091 227.2 256.791 226.2 255.791 225.4C240.991 214.3 239.391 187.5 251.191 149.9C262.991 112.4 286.791 68.6999 318.091 26.5999L318.391 26.2L318.791 26.4999C320.991 28.0999 322.991 29.7999 324.991 31.4999L325.391 31.7999L325.091 32.2C291.991 71.5 267.191 113.5 255.191 150.4C243.291 187.1 245.291 214.8 260.991 228.2L260.291 229ZM318.591 27.4999C254.991 112.9 226.991 200.3 255.391 223.8C243.991 208.8 243.491 183 254.191 150.1C266.191 113.2 290.991 71.1999 323.991 31.8999C322.291 30.3999 320.491 28.8999 318.591 27.4999Z" fill="white"/>
</g>
<mask id="mask2_201_603" style="mask-type:luminance" maskUnits="userSpaceOnUse" x="255" y="224" width="8" height="6">
<path d="M255.991 224.9C258.091 226.5 260.191 228.1 262.191 229.9C261.591 229.5 261.091 229 260.591 228.6C259.191 227.4 257.391 226 255.991 224.9Z" fill="white"/>
</mask>
<g mask="url(#mask2_201_603)">
<path d="M261.891 230.3C260.991 229.6 260.191 228.9 259.391 228.2C231.491 205.6 191.791 195.1 158.891 199.8C150.391 204.3 140.991 207.3 130.891 208.6L128.191 208.9L130.591 207.6C138.891 203.2 148.391 200.2 158.591 198.8C171.191 192 181.791 181.8 190.091 168.4C213.591 130.1 214.591 71 192.891 10.2L192.791 9.79995L193.191 9.59995C229.391 -9.80005 288.591 -4.57764e-05 325.191 31.4L325.591 31.7L325.291 32.0999C273.791 93.2999 243.491 159.4 248.191 200.6C249.491 212.2 253.591 221.1 260.291 227.3C261.091 228 261.991 228.7 262.791 229.4L261.891 230.3ZM174.791 197.7C202.291 197.7 232.391 206.9 255.491 223.9C250.891 217.9 248.091 210.2 246.991 200.8C242.291 159.4 272.591 93.2 323.991 31.9C287.791 1.09995 229.691 -8.60005 193.891 10.3C215.491 71.2 214.391 130.5 190.791 169C182.991 181.8 172.991 191.7 161.191 198.5C165.591 198 170.191 197.7 174.791 197.7ZM155.591 200.3C147.791 201.7 140.391 204 133.691 207.2C141.491 205.9 148.791 203.6 155.591 200.3Z" fill="white"/>
</g>
<mask id="mask3_201_603" style="mask-type:luminance" maskUnits="userSpaceOnUse" x="255" y="224" width="8" height="6">
<path d="M255.991 224.9C258.091 226.5 260.191 228.1 262.191 229.9C261.591 229.5 261.091 229 260.591 228.6C259.191 227.4 257.391 226 255.991 224.9Z" fill="white"/>
</mask>
<g mask="url(#mask3_201_603)">
<path d="M261.891 230.3C261.291 229.9 260.791 229.4 260.191 229C259.191 228.2 257.991 227.2 256.791 226.3L255.591 225.4L256.191 224.6C258.291 226.2 260.391 227.9 262.391 229.6L261.891 230.3Z" fill="white"/>
</g>
<mask id="mask4_201_603" style="mask-type:luminance" maskUnits="userSpaceOnUse" x="171" y="0" width="148" height="225">
<path d="M318.491 26.7999C253.791 113.6 225.791 202.3 255.991 224.9C231.791 206.8 199.891 197.3 171.191 198.2C209.091 197.1 236.991 108.4 233.691 0.0999305C262.391 -0.700069 294.291 8.79993 318.491 26.7999Z" fill="white"/>
</mask>
<g mask="url(#mask4_201_603)">
<path d="M261.891 230.3C260.991 229.6 260.191 228.9 259.391 228.2C231.491 205.6 191.791 195.1 158.891 199.8C150.391 204.3 140.991 207.3 130.891 208.6L128.191 208.9L130.591 207.6C138.891 203.2 148.391 200.2 158.591 198.8C171.191 192 181.791 181.8 190.091 168.4C213.591 130.1 214.591 71 192.891 10.2L192.791 9.79995L193.191 9.59995C229.391 -9.80005 288.591 -4.57764e-05 325.191 31.4L325.591 31.7L325.291 32.0999C273.791 93.2999 243.491 159.4 248.191 200.6C249.491 212.2 253.591 221.1 260.291 227.3C261.091 228 261.991 228.7 262.791 229.4L261.891 230.3ZM174.791 197.7C202.291 197.7 232.391 206.9 255.491 223.9C250.891 217.9 248.091 210.2 246.991 200.8C242.291 159.4 272.591 93.2 323.991 31.9C287.791 1.09995 229.691 -8.60005 193.891 10.3C215.491 71.2 214.391 130.5 190.791 169C182.991 181.8 172.991 191.7 161.191 198.5C165.591 198 170.191 197.7 174.791 197.7ZM155.591 200.3C147.791 201.7 140.391 204 133.691 207.2C141.491 205.9 148.791 203.6 155.591 200.3Z" fill="white"/>
<path d="M269.391 114.5C252.591 100.1 225.391 95.4999 208.891 104.4L208.391 103.5C225.291 94.3999 252.991 98.9999 270.091 113.7L269.391 114.5Z" fill="white"/>
<path d="M246.891 185.5C230.091 171.1 202.891 166.5 186.391 175.4L185.891 174.5C202.791 165.4 230.491 170 247.591 184.7L246.891 185.5Z" fill="white"/>
<path d="M219.391 206.1C218.091 198.7 246.191 109.7 281.891 7.80005L282.791 8.10004C247.191 109.9 219.191 198.6 220.391 205.9L219.391 206.1Z" fill="white"/>
<path d="M172.791 198.7V197.7C208.991 196.6 236.891 108 234.791 0.0998535H235.791C236.791 52.4999 230.791 102 218.991 139.5C207.091 177.1 190.691 198.1 172.791 198.7Z" fill="white"/>
</g>
<mask id="mask5_201_603" style="mask-type:luminance" maskUnits="userSpaceOnUse" x="171" y="0" width="148" height="225">
<path d="M318.491 26.7999C253.791 113.6 225.791 202.3 255.991 224.9C231.791 206.8 199.891 197.3 171.191 198.2C209.091 197.1 236.991 108.4 233.691 0.0999305C262.391 -0.700069 294.291 8.79993 318.491 26.7999Z" fill="white"/>
</mask>
<g mask="url(#mask5_201_603)">
<path d="M255.691 225.3C232.191 207.8 200.591 197.8 171.191 198.7V197.7C189.291 197.2 205.691 176.4 217.391 139.2C229.191 101.8 234.791 52.5 233.191 0.200004V-0.299996H233.691C263.291 -1.2 295.191 8.8 318.791 26.5L319.191 26.8L318.891 27.2C254.391 113.7 226.291 202.2 256.291 224.6L255.691 225.3ZM177.591 197.7C203.191 198.3 229.791 206.7 251.091 220.8C240.691 207.8 240.691 183 251.191 149.8C262.991 112.5 286.591 68.8 317.791 26.9C294.491 9.6 263.291 -0.200002 234.191 0.599998C235.791 52.8 230.091 102.1 218.391 139.5C207.891 172.7 193.591 193 177.591 197.7Z" fill="white"/>
</g>
<mask id="mask6_201_603" style="mask-type:luminance" maskUnits="userSpaceOnUse" x="157" y="0" width="77" height="200">
<path d="M171.191 198.2C168.591 198.3 164.991 198.6 162.391 198.9C162.391 198.9 159.791 199.2 157.291 200C157.391 199.8 157.691 199.8 157.891 199.7C161.991 197.7 165.791 194.5 165.791 194.4C166.991 193.4 168.591 192.1 169.691 191C171.791 188.9 174.591 186.1 176.391 183.7C177.591 182.1 179.291 180.1 180.291 178.4C182.391 175 185.091 170.4 186.891 166.9C188.891 163.1 190.791 157.7 192.091 153.6C194.091 147.2 195.091 140.7 195.191 139.6C195.391 137.6 195.791 134.9 195.891 132.8C195.991 129.1 196.091 124.1 195.791 120.4C194.891 109.3 191.891 101 189.291 96.9C189.891 97.6 190.191 98.1 192.391 100.3C193.191 101.1 194.291 102 195.091 102.8C195.291 103 197.191 104.6 200.091 106.8C197.991 105.2 195.891 103.5 193.891 101.8C157.391 70.4 157.091 29.3 193.191 9.9C204.791 3.7 218.791 0.5 233.591 0C236.991 108.4 209.091 197.1 171.191 198.2Z" fill="white"/>
</mask>
<g mask="url(#mask6_201_603)">
<path d="M261.891 230.3C260.991 229.6 260.191 228.9 259.391 228.2C231.491 205.6 191.791 195.1 158.891 199.8C150.391 204.3 140.991 207.3 130.891 208.6L128.191 208.9L130.591 207.6C138.891 203.2 148.391 200.2 158.591 198.8C171.191 192 181.791 181.8 190.091 168.4C213.591 130.1 214.591 71 192.891 10.2L192.791 9.79995L193.191 9.59995C229.391 -9.80005 288.591 -4.57764e-05 325.191 31.4L325.591 31.7L325.291 32.0999C273.791 93.2999 243.491 159.4 248.191 200.6C249.491 212.2 253.591 221.1 260.291 227.3C261.091 228 261.991 228.7 262.791 229.4L261.891 230.3ZM174.791 197.7C202.291 197.7 232.391 206.9 255.491 223.9C250.891 217.9 248.091 210.2 246.991 200.8C242.291 159.4 272.591 93.2 323.991 31.9C287.791 1.09995 229.691 -8.60005 193.891 10.3C215.491 71.2 214.391 130.5 190.791 169C182.991 181.8 172.991 191.7 161.191 198.5C165.591 198 170.191 197.7 174.791 197.7ZM155.591 200.3C147.791 201.7 140.391 204 133.691 207.2C141.491 205.9 148.791 203.6 155.591 200.3Z" fill="white"/>
<path d="M269.391 114.5C252.591 100.1 225.391 95.4999 208.891 104.4L208.391 103.5C225.291 94.3999 252.991 98.9999 270.091 113.7L269.391 114.5Z" fill="white"/>
<path d="M246.891 185.5C230.091 171.1 202.891 166.5 186.391 175.4L185.891 174.5C202.791 165.4 230.491 170 247.591 184.7L246.891 185.5Z" fill="white"/>
<path d="M131.591 300.7L131.191 300.4C111.691 283.6 101.591 263.2 103.691 244.3C105.391 229.1 114.891 216.1 130.591 207.7L130.791 207.6C155.791 204.4 176.291 190.8 190.091 168.4C198.291 155 203.791 139.1 206.491 121.4C204.091 113.2 199.891 106.8 193.791 102.2C174.191 85.3999 164.191 64.8999 166.291 46.0999C167.991 30.8999 177.491 17.8999 193.191 9.49995L193.691 9.19995L193.891 9.69995C207.991 49.2999 212.491 88.2 207.491 121.2C208.391 124.2 208.991 127.4 209.391 130.8C214.091 172.3 183.691 238.7 131.991 300.1L131.591 300.7ZM130.891 208.6C115.591 216.8 106.291 229.5 104.591 244.4C102.591 262.8 112.291 282.8 131.391 299.3C182.691 238.2 212.791 172.2 208.191 131.1C207.891 128.5 207.491 126.1 206.891 123.8C204.091 140.7 198.691 156 190.691 168.9C176.891 191.6 156.191 205.3 130.891 208.6ZM192.991 10.7C177.891 18.9 168.791 31.5999 167.191 46.2999C165.191 64.7999 175.091 84.9 194.391 101.5C200.091 105.8 204.191 111.7 206.791 119.2C211.191 87 206.591 49.2 192.991 10.7Z" fill="white"/>
<path d="M208.591 147C199.491 139.1 194.791 129.5 195.691 120.7C196.491 113.5 200.991 107.4 208.291 103.5L208.791 104.4C201.691 108.2 197.391 114 196.691 120.9C195.791 129.4 200.291 138.7 209.191 146.3L208.591 147Z" fill="white"/>
<path d="M186.191 218.1C177.091 210.2 172.391 200.6 173.291 191.8C174.091 184.6 178.591 178.5 185.891 174.6L186.391 175.5C179.291 179.3 174.991 185.1 174.291 192C173.391 200.5 177.891 209.8 186.791 217.4L186.191 218.1Z" fill="white"/>
<path d="M106.991 234L106.691 233.1C148.991 219.2 178.991 191.5 191.191 155.3C203.891 117.5 195.991 75.0999 168.891 35.7999L169.691 35.2C196.891 74.7 204.891 117.5 192.091 155.6C179.791 192.1 149.591 220 106.991 234Z" fill="white"/>
<path d="M107.291 266.9L106.791 266.1C158.291 233.8 191.791 188.4 196.491 144.5C199.591 115.5 190.091 89.2999 169.191 68.7999L169.891 68.0999C191.091 88.7999 200.691 115.2 197.491 144.6C192.791 188.8 159.091 234.5 107.291 266.9Z" fill="white"/>
<path d="M218.891 332.2C188.491 332.2 154.991 320.9 131.091 300.4L130.691 300.1L130.991 299.7C182.491 238.5 212.791 172.3 208.091 131.2C206.791 119.6 202.691 110.7 195.991 104.5C195.091 103.8 194.291 103.1 193.491 102.4L194.091 101.6C194.991 102.3 195.791 103 196.691 103.7C224.591 126.3 264.291 136.8 297.191 132.1C305.691 127.6 315.091 124.6 325.191 123.3L327.891 123L325.491 124.3C317.191 128.8 307.691 131.7 297.491 133.1C284.891 139.9 274.291 150.1 265.991 163.5C242.491 201.8 241.491 260.9 263.191 321.7L263.291 322.1L262.891 322.3C250.591 329 235.191 332.2 218.891 332.2ZM132.191 299.9C168.391 330.7 226.491 340.4 262.291 321.5C240.691 260.6 241.791 201.3 265.391 162.8C273.191 150 283.191 140.1 294.991 133.3C264.091 137 227.691 127.7 200.691 107.9C205.291 113.9 208.091 121.6 209.191 131C213.891 172.4 183.691 238.6 132.191 299.9ZM322.491 124.6C314.691 125.9 307.391 128.2 300.591 131.5C308.391 130.1 315.791 127.8 322.491 124.6Z" fill="white"/>
<path d="M249.591 161.9C235.391 161.9 219.791 156.6 208.591 147L209.291 146.2C226.091 160.6 253.291 165.2 269.791 156.3L270.291 157.2C264.391 160.4 257.191 161.9 249.591 161.9Z" fill="white"/>
</g>
<mask id="mask7_201_603" style="mask-type:luminance" maskUnits="userSpaceOnUse" x="157" y="0" width="77" height="200">
<path d="M171.191 198.2C168.591 198.3 164.991 198.6 162.391 198.9C162.391 198.9 159.791 199.2 157.291 200C157.391 199.8 157.691 199.8 157.891 199.7C161.991 197.7 165.791 194.5 165.791 194.4C166.991 193.4 168.591 192.1 169.691 191C171.791 188.9 174.591 186.1 176.391 183.7C177.591 182.1 179.291 180.1 180.291 178.4C182.391 175 185.091 170.4 186.891 166.9C188.891 163.1 190.791 157.7 192.091 153.6C194.091 147.2 195.091 140.7 195.191 139.6C195.391 137.6 195.791 134.9 195.891 132.8C195.991 129.1 196.091 124.1 195.791 120.4C194.891 109.3 191.891 101 189.291 96.9C189.891 97.6 190.191 98.1 192.391 100.3C193.191 101.1 194.291 102 195.091 102.8C195.291 103 197.191 104.6 200.091 106.8C197.991 105.2 195.891 103.5 193.891 101.8C157.391 70.4 157.091 29.3 193.191 9.9C204.791 3.7 218.791 0.5 233.591 0C236.991 108.4 209.091 197.1 171.191 198.2Z" fill="white"/>
</mask>
<g mask="url(#mask7_201_603)">
<path d="M155.891 201L156.991 199.7C157.191 199.5 157.391 199.4 157.591 199.3C157.591 199.3 157.691 199.3 157.691 199.2C161.691 197.2 165.491 194 165.491 194C165.791 193.7 166.091 193.4 166.491 193.1C167.491 192.3 168.591 191.4 169.291 190.6L169.791 190.1C171.791 188 174.391 185.5 175.991 183.3C176.291 182.8 176.691 182.3 177.091 181.8C177.991 180.6 179.091 179.2 179.891 178C182.091 174.5 184.791 169.9 186.491 166.5C188.791 162 190.891 155.8 191.691 153.3C193.691 147 194.691 140.5 194.791 139.4C194.891 138.8 194.891 138.2 194.991 137.6C195.191 136 195.391 134.1 195.491 132.6C195.591 129.1 195.691 124.1 195.391 120.3C194.591 110.7 192.191 103.2 189.991 98.7999C172.891 82.6999 164.191 63.5999 166.191 45.9999C167.891 30.7999 177.391 17.7999 193.091 9.3999C204.391 3.3999 218.391 -0.100098 233.691 -0.600098H234.191V-0.100098C235.791 52.2999 230.191 101.8 218.391 139.3C206.491 176.9 189.791 198 171.291 198.5C169.291 198.6 165.391 198.9 162.591 199.2C162.591 199.2 159.991 199.5 157.591 200.2L155.891 201ZM191.891 100.7C193.891 105.3 195.691 112.1 196.391 120.4C196.691 124.2 196.591 129.3 196.491 132.8C196.391 134.3 196.191 136.2 195.991 137.9C195.891 138.5 195.791 139.1 195.791 139.7C195.691 140.7 194.691 147.4 192.691 153.8C191.891 156.3 189.791 162.7 187.491 167.2C185.691 170.6 183.091 175.2 180.791 178.8C179.991 180 178.991 181.4 177.991 182.6C177.591 183.1 177.191 183.6 176.891 184.1C175.191 186.3 172.691 188.9 170.591 191L170.091 191.5C169.291 192.3 168.191 193.3 167.191 194.1C166.791 194.4 166.491 194.7 166.191 194.9C166.191 194.9 163.791 196.9 160.691 198.8C161.691 198.6 162.291 198.5 162.291 198.5C165.191 198.1 169.091 197.9 171.091 197.8C189.191 197.3 205.591 176.5 217.291 139.3C228.991 102.1 234.591 52.8999 233.091 0.799904C218.091 1.2999 204.391 4.6999 193.391 10.5999C177.991 18.7999 168.691 31.5999 167.091 46.3999C165.291 63.2999 173.291 81.4999 189.291 97.0999L189.791 96.7999C190.391 97.4999 190.691 97.9999 192.791 100.1C193.291 100.6 193.991 101.2 194.691 101.8C194.991 102.1 195.291 102.3 195.491 102.5C195.791 102.8 197.691 104.4 200.491 106.5L199.891 107.3C197.691 105.7 195.591 104 193.691 102.3C193.091 101.8 192.491 101.3 191.891 100.7Z" fill="white"/>
</g>
<mask id="mask8_201_603" style="mask-type:luminance" maskUnits="userSpaceOnUse" x="103" y="96" width="110" height="209">
<path d="M158.691 199.3C159.991 198.6 161.591 197.6 162.791 196.7C164.691 195.3 167.091 193.4 168.791 191.8C171.191 189.5 174.191 186.2 176.391 183.6C177.591 182.2 178.991 180.1 180.091 178.6C180.091 178.6 183.691 173.6 186.991 166.7C188.791 162.8 190.891 157.5 192.191 153.4C193.391 149.4 194.691 144.1 195.191 139.9C196.191 131.9 196.391 129.5 195.991 121.7C195.891 120 195.691 117.7 195.391 115.9C194.991 113.5 194.491 110.4 193.791 108C193.191 105.7 192.191 102.8 191.291 100.6C190.991 99.8001 190.491 98.8001 190.091 98.0001C189.891 97.6001 189.591 97.2 189.391 96.8C190.391 98.2 192.791 100.5 192.791 100.5C193.791 101.4 195.091 102.6 196.091 103.5C197.291 104.5 198.891 105.7 200.091 106.7C230.291 129.3 202.391 218 137.591 304.8C135.491 303.2 133.391 301.5 131.391 299.8C94.8907 268.4 94.5907 227.3 130.691 207.9C142.291 201.7 156.291 198.5 171.091 198C167.091 198.1 165.591 198.3 161.991 198.8C161.091 198.9 159.991 199.2 159.091 199.3C158.491 199.4 157.791 199.6 157.291 199.8C157.791 199.8 158.291 199.5 158.691 199.3Z" fill="white"/>
</mask>
<g mask="url(#mask8_201_603)">
<path d="M261.891 230.3C260.991 229.6 260.191 228.9 259.391 228.2C231.491 205.6 191.791 195.1 158.891 199.8C150.391 204.3 140.991 207.3 130.891 208.6L128.191 208.9L130.591 207.6C138.891 203.2 148.391 200.2 158.591 198.8C171.191 192 181.791 181.8 190.091 168.4C213.591 130.1 214.591 71 192.891 10.2L192.791 9.79995L193.191 9.59995C229.391 -9.80005 288.591 -4.57764e-05 325.191 31.4L325.591 31.7L325.291 32.0999C273.791 93.2999 243.491 159.4 248.191 200.6C249.491 212.2 253.591 221.1 260.291 227.3C261.091 228 261.991 228.7 262.791 229.4L261.891 230.3ZM174.791 197.7C202.291 197.7 232.391 206.9 255.491 223.9C250.891 217.9 248.091 210.2 246.991 200.8C242.291 159.4 272.591 93.2 323.991 31.9C287.791 1.09995 229.691 -8.60005 193.891 10.3C215.491 71.2 214.391 130.5 190.791 169C182.991 181.8 172.991 191.7 161.191 198.5C165.591 198 170.191 197.7 174.791 197.7ZM155.591 200.3C147.791 201.7 140.391 204 133.691 207.2C141.491 205.9 148.791 203.6 155.591 200.3Z" fill="white"/>
<path d="M269.391 114.5C252.591 100.1 225.391 95.4999 208.891 104.4L208.391 103.5C225.291 94.3999 252.991 98.9999 270.091 113.7L269.391 114.5Z" fill="white"/>
<path d="M246.891 185.5C230.091 171.1 202.891 166.5 186.391 175.4L185.891 174.5C202.791 165.4 230.491 170 247.591 184.7L246.891 185.5Z" fill="white"/>
<path d="M131.591 300.7L131.191 300.4C111.691 283.6 101.591 263.2 103.691 244.3C105.391 229.1 114.891 216.1 130.591 207.7L130.791 207.6C155.791 204.4 176.291 190.8 190.091 168.4C198.291 155 203.791 139.1 206.491 121.4C204.091 113.2 199.891 106.8 193.791 102.2C174.191 85.3999 164.191 64.8999 166.291 46.0999C167.991 30.8999 177.491 17.8999 193.191 9.49995L193.691 9.19995L193.891 9.69995C207.991 49.2999 212.491 88.2 207.491 121.2C208.391 124.2 208.991 127.4 209.391 130.8C214.091 172.3 183.691 238.7 131.991 300.1L131.591 300.7ZM130.891 208.6C115.591 216.8 106.291 229.5 104.591 244.4C102.591 262.8 112.291 282.8 131.391 299.3C182.691 238.2 212.791 172.2 208.191 131.1C207.891 128.5 207.491 126.1 206.891 123.8C204.091 140.7 198.691 156 190.691 168.9C176.891 191.6 156.191 205.3 130.891 208.6ZM192.991 10.7C177.891 18.9 168.791 31.5999 167.191 46.2999C165.191 64.7999 175.091 84.9 194.391 101.5C200.091 105.8 204.191 111.7 206.791 119.2C211.191 87 206.591 49.2 192.991 10.7Z" fill="white"/>
<path d="M208.591 147C199.491 139.1 194.791 129.5 195.691 120.7C196.491 113.5 200.991 107.4 208.291 103.5L208.791 104.4C201.691 108.2 197.391 114 196.691 120.9C195.791 129.4 200.291 138.7 209.191 146.3L208.591 147Z" fill="white"/>
<path d="M186.191 218.1C177.091 210.2 172.391 200.6 173.291 191.8C174.091 184.6 178.591 178.5 185.891 174.6L186.391 175.5C179.291 179.3 174.991 185.1 174.291 192C173.391 200.5 177.891 209.8 186.791 217.4L186.191 218.1Z" fill="white"/>
<path d="M106.991 234L106.691 233.1C148.991 219.2 178.991 191.5 191.191 155.3C203.891 117.5 195.991 75.0999 168.891 35.7999L169.691 35.2C196.891 74.7 204.891 117.5 192.091 155.6C179.791 192.1 149.591 220 106.991 234Z" fill="white"/>
<path d="M107.291 266.9L106.791 266.1C158.291 233.8 191.791 188.4 196.491 144.5C199.591 115.5 190.091 89.2999 169.191 68.7999L169.891 68.0999C191.091 88.7999 200.691 115.2 197.491 144.6C192.791 188.8 159.091 234.5 107.291 266.9Z" fill="white"/>
<path d="M218.891 332.2C188.491 332.2 154.991 320.9 131.091 300.4L130.691 300.1L130.991 299.7C182.491 238.5 212.791 172.3 208.091 131.2C206.791 119.6 202.691 110.7 195.991 104.5C195.091 103.8 194.291 103.1 193.491 102.4L194.091 101.6C194.991 102.3 195.791 103 196.691 103.7C224.591 126.3 264.291 136.8 297.191 132.1C305.691 127.6 315.091 124.6 325.191 123.3L327.891 123L325.491 124.3C317.191 128.8 307.691 131.7 297.491 133.1C284.891 139.9 274.291 150.1 265.991 163.5C242.491 201.8 241.491 260.9 263.191 321.7L263.291 322.1L262.891 322.3C250.591 329 235.191 332.2 218.891 332.2ZM132.191 299.9C168.391 330.7 226.491 340.4 262.291 321.5C240.691 260.6 241.791 201.3 265.391 162.8C273.191 150 283.191 140.1 294.991 133.3C264.091 137 227.691 127.7 200.691 107.9C205.291 113.9 208.091 121.6 209.191 131C213.891 172.4 183.691 238.6 132.191 299.9ZM322.491 124.6C314.691 125.9 307.391 128.2 300.591 131.5C308.391 130.1 315.791 127.8 322.491 124.6Z" fill="white"/>
<path d="M249.591 161.9C235.391 161.9 219.791 156.6 208.591 147L209.291 146.2C226.091 160.6 253.291 165.2 269.791 156.3L270.291 157.2C264.391 160.4 257.191 161.9 249.591 161.9Z" fill="white"/>
<path d="M227.191 233C212.991 233 197.391 227.7 186.191 218.2L186.891 217.4C203.691 231.8 230.891 236.4 247.391 227.5L247.891 228.4C241.991 231.4 234.791 233 227.191 233Z" fill="white"/>
</g>
<mask id="mask9_201_603" style="mask-type:luminance" maskUnits="userSpaceOnUse" x="103" y="96" width="110" height="209">
<path d="M158.691 199.3C159.991 198.6 161.591 197.6 162.791 196.7C164.691 195.3 167.091 193.4 168.791 191.8C171.191 189.5 174.191 186.2 176.391 183.6C177.591 182.2 178.991 180.1 180.091 178.6C180.091 178.6 183.691 173.6 186.991 166.7C188.791 162.8 190.891 157.5 192.191 153.4C193.391 149.4 194.691 144.1 195.191 139.9C196.191 131.9 196.391 129.5 195.991 121.7C195.891 120 195.691 117.7 195.391 115.9C194.991 113.5 194.491 110.4 193.791 108C193.191 105.7 192.191 102.8 191.291 100.6C190.991 99.8001 190.491 98.8001 190.091 98.0001C189.891 97.6001 189.591 97.2 189.391 96.8C190.391 98.2 192.791 100.5 192.791 100.5C193.791 101.4 195.091 102.6 196.091 103.5C197.291 104.5 198.891 105.7 200.091 106.7C230.291 129.3 202.391 218 137.591 304.8C135.491 303.2 133.391 301.5 131.391 299.8C94.8907 268.4 94.5907 227.3 130.691 207.9C142.291 201.7 156.291 198.5 171.091 198C167.091 198.1 165.591 198.3 161.991 198.8C161.091 198.9 159.991 199.2 159.091 199.3C158.491 199.4 157.791 199.6 157.291 199.8C157.791 199.8 158.291 199.5 158.691 199.3Z" fill="white"/>
</mask>
<g mask="url(#mask9_201_603)">
<path d="M137.791 305.7L137.391 305.4C135.291 303.8 133.191 302.1 131.191 300.4C111.691 283.6 101.591 263.2 103.691 244.3C105.391 229.1 114.891 216.1 130.591 207.7C138.691 203.4 148.191 200.4 158.591 198.8C159.991 198 161.591 197.1 162.591 196.3C165.191 194.4 167.191 192.8 168.491 191.5C170.991 189.1 173.991 185.7 176.091 183.4C176.991 182.4 177.991 181 178.891 179.7C179.191 179.2 179.591 178.8 179.891 178.4C179.891 178.4 183.391 173.5 186.691 166.5C188.591 162.6 190.591 157.2 191.791 153.2C192.891 149.5 194.291 144 194.791 139.8C195.691 132 195.991 129.6 195.591 121.7C195.491 119.9 195.291 117.7 194.991 116C194.691 114.2 194.091 110.8 193.491 108.2C192.891 105.8 191.791 102.8 190.991 100.9C190.691 100.2 190.191 99.2 189.891 98.5L189.791 98.3999C189.691 98.1999 189.491 97.8999 189.291 97.5999L189.091 97.2L189.891 96.7C190.891 98 193.191 100.3 193.191 100.3L193.591 100.6C194.491 101.4 195.591 102.5 196.491 103.2C197.291 103.9 198.291 104.7 199.191 105.4C199.691 105.8 200.091 106.1 200.491 106.4C215.291 117.4 216.891 144.3 204.991 181.9C193.191 219.4 169.391 263.1 138.091 305.2L137.791 305.7ZM156.791 200.1C147.291 201.7 138.491 204.5 130.991 208.6C115.591 216.8 106.291 229.6 104.691 244.4C102.691 262.9 112.591 283 131.891 299.6C133.791 301.2 135.691 302.8 137.691 304.3C201.991 218 229.891 129.6 199.991 107.3C199.591 107 199.191 106.6 198.691 106.3C197.791 105.6 196.691 104.8 195.891 104.1C194.991 103.3 193.891 102.3 192.991 101.5L192.591 101.1C192.591 101.1 192.291 100.8 191.791 100.3C191.791 100.4 191.891 100.5 191.891 100.6C192.691 102.6 193.791 105.6 194.391 108C195.091 110.6 195.691 114.1 195.991 115.9C196.291 117.6 196.491 119.9 196.591 121.7C196.991 129.7 196.791 132.1 195.791 139.9C195.291 144.1 193.891 149.7 192.791 153.4C191.591 157.4 189.491 162.8 187.591 166.8C184.291 173.8 180.691 178.8 180.691 178.8C180.391 179.2 180.091 179.7 179.691 180.1C178.791 181.4 177.791 182.8 176.891 183.8C174.891 186.2 171.791 189.6 169.291 192C167.891 193.3 165.891 195 163.291 196.9C162.691 197.4 161.991 197.8 161.291 198.2C164.591 197.8 167.891 197.6 171.391 197.4V198.4C167.391 198.5 165.891 198.7 162.291 199.2C161.491 199.3 160.391 199.5 159.391 199.7C158.991 199.8 158.591 199.9 158.191 200L157.291 200.2L156.791 200.1Z" fill="white"/>
</g>
<mask id="mask10_201_603" style="mask-type:luminance" maskUnits="userSpaceOnUse" x="137" y="106" width="148" height="226">
<path d="M200.191 106.9C224.391 125 256.291 134.5 284.991 133.6C247.191 134.7 219.191 223.4 222.491 331.7C193.791 332.6 161.891 323.1 137.691 305C202.391 218.1 230.391 129.5 200.191 106.9Z" fill="white"/>
</mask>
<g mask="url(#mask10_201_603)">
<path d="M218.891 332.2C188.491 332.2 154.991 320.9 131.091 300.4L130.691 300.1L130.991 299.7C182.491 238.5 212.791 172.3 208.091 131.2C206.791 119.6 202.691 110.7 195.991 104.5C195.091 103.8 194.291 103.1 193.491 102.4L194.091 101.6C194.991 102.3 195.791 103 196.691 103.7C224.591 126.3 264.291 136.8 297.191 132.1C305.691 127.6 315.091 124.6 325.191 123.3L327.891 123L325.491 124.3C317.191 128.8 307.691 131.7 297.491 133.1C284.891 139.9 274.291 150.1 265.991 163.5C242.491 201.8 241.491 260.9 263.191 321.7L263.291 322.1L262.891 322.3C250.591 329 235.191 332.2 218.891 332.2ZM132.191 299.9C168.391 330.7 226.491 340.4 262.291 321.5C240.691 260.6 241.791 201.3 265.391 162.8C273.191 150 283.191 140.1 294.991 133.3C264.091 137 227.691 127.7 200.691 107.9C205.291 113.9 208.091 121.6 209.191 131C213.891 172.4 183.691 238.6 132.191 299.9ZM322.491 124.6C314.691 125.9 307.391 128.2 300.591 131.5C308.391 130.1 315.791 127.8 322.491 124.6Z" fill="white"/>
<path d="M249.591 161.9C235.391 161.9 219.791 156.6 208.591 147L209.291 146.2C226.091 160.6 253.291 165.2 269.791 156.3L270.291 157.2C264.391 160.4 257.191 161.9 249.591 161.9Z" fill="white"/>
<path d="M227.191 233C212.991 233 197.391 227.7 186.191 218.2L186.891 217.4C203.691 231.8 230.891 236.4 247.391 227.5L247.891 228.4C241.991 231.4 234.791 233 227.191 233Z" fill="white"/>
<path d="M174.191 324.1L173.291 323.8C208.991 221.9 236.991 133.2 235.791 125.9L236.791 125.7C237.991 133.2 209.991 222.1 174.191 324.1Z" fill="white"/>
<path d="M220.391 331.7C219.391 279.3 225.391 229.8 237.191 192.3C249.091 154.7 265.491 133.6 283.391 133.1V134.1C247.191 135.2 219.291 223.8 221.391 331.7H220.391Z" fill="white"/>
</g>
<mask id="mask11_201_603" style="mask-type:luminance" maskUnits="userSpaceOnUse" x="137" y="106" width="148" height="226">
<path d="M200.191 106.9C224.391 125 256.291 134.5 284.991 133.6C247.191 134.7 219.191 223.4 222.491 331.7C193.791 332.6 161.891 323.1 137.691 305C202.391 218.1 230.391 129.5 200.191 106.9Z" fill="white"/>
</mask>
<g mask="url(#mask11_201_603)">
<path d="M218.791 332.2C190.191 332.2 160.091 322.3 137.391 305.3L136.991 305L137.291 304.6C201.791 218.1 229.791 129.6 199.891 107.2L200.491 106.4C223.991 123.9 255.591 133.9 284.991 133V134C266.891 134.5 250.491 155.3 238.791 192.5C226.991 229.9 221.391 279.2 222.991 331.5V332H222.491C221.291 332.2 220.091 332.2 218.791 332.2ZM138.391 304.9C161.691 322.2 192.891 332 221.991 331.2C220.391 279 226.091 229.7 237.791 192.3C248.291 159.1 262.591 138.8 278.491 134.1C252.891 133.5 226.291 125.1 205.091 111C215.491 124 215.491 148.8 204.991 182C193.291 219.3 169.591 262.9 138.391 304.9Z" fill="white"/>
</g>
<mask id="mask12_201_603" style="mask-type:luminance" maskUnits="userSpaceOnUse" x="247" y="31" width="106" height="204">
<path d="M284.991 133.6C287.591 133.5 291.191 133.2 293.791 132.9C293.791 132.9 296.491 132.6 298.891 131.8C298.791 132 298.491 132 298.291 132.1C294.191 134.1 290.391 137.3 290.391 137.4C289.191 138.4 287.591 139.7 286.491 140.8C284.391 142.9 281.591 145.7 279.791 148.1C278.591 149.7 276.891 151.7 275.891 153.4C273.791 156.8 271.091 161.4 269.291 164.9C267.291 168.7 265.391 174.1 264.091 178.2C262.091 184.6 261.091 191.1 260.991 192.2C260.791 194.2 260.391 196.9 260.291 199C260.191 202.7 260.091 207.7 260.391 211.4C261.291 222.5 264.291 230.8 266.891 234.9C265.491 233.2 263.491 231.1 260.691 228.7C227.991 200.6 256.191 113.4 324.791 31.8999C361.291 63.2999 361.591 104.4 325.491 123.8C313.791 129.9 299.791 133.1 284.991 133.6Z" fill="white"/>
</mask>
<g mask="url(#mask12_201_603)">
<path d="M218.89 332.2C188.49 332.2 154.99 320.9 131.09 300.4L130.69 300.1L130.99 299.7C182.49 238.5 212.79 172.3 208.09 131.2C206.79 119.6 202.69 110.7 195.99 104.5C195.09 103.8 194.29 103.1 193.49 102.4L194.09 101.6C194.99 102.3 195.79 103 196.69 103.7C224.59 126.3 264.29 136.8 297.19 132.1C305.69 127.6 315.09 124.6 325.19 123.3L327.89 123L325.49 124.3C317.19 128.8 307.69 131.7 297.49 133.1C284.89 139.9 274.29 150.1 265.99 163.5C242.49 201.8 241.49 260.9 263.19 321.7L263.29 322.1L262.89 322.3C250.59 329 235.19 332.2 218.89 332.2ZM132.19 299.9C168.39 330.7 226.49 340.4 262.29 321.5C240.69 260.6 241.79 201.3 265.39 162.8C273.19 150 283.19 140.1 294.99 133.3C264.09 137 227.69 127.7 200.69 107.9C205.29 113.9 208.09 121.6 209.19 131C213.89 172.4 183.69 238.6 132.19 299.9ZM322.49 124.6C314.69 125.9 307.39 128.2 300.59 131.5C308.39 130.1 315.79 127.8 322.49 124.6Z" fill="white"/>
<path d="M249.59 161.9C235.39 161.9 219.79 156.6 208.59 147L209.29 146.2C226.09 160.6 253.29 165.2 269.79 156.3L270.29 157.2C264.39 160.4 257.19 161.9 249.59 161.9Z" fill="white"/>
<path d="M227.19 233C212.99 233 197.39 227.7 186.19 218.2L186.89 217.4C203.69 231.8 230.89 236.4 247.39 227.5L247.89 228.4C241.99 231.4 234.79 233 227.19 233Z" fill="white"/>
<path d="M262.69 322.5L262.49 322C248.39 282.4 243.89 243.5 248.89 210.5C247.99 207.5 247.39 204.3 246.99 200.9C242.29 159.4 272.69 92.9999 324.39 31.5999L324.69 31.2L325.09 31.4999C344.59 48.2999 354.69 68.6999 352.59 87.5999C350.89 102.8 341.39 115.8 325.69 124.2L325.49 124.3C300.49 127.5 279.99 141.1 266.19 163.5C257.99 176.9 252.49 192.8 249.79 210.5C252.19 218.7 256.39 225.1 262.49 229.7C282.09 246.5 292.09 267 289.99 285.8C288.29 301 278.79 314 263.09 322.4L262.69 322.5ZM249.49 212.6C244.99 244.8 249.59 282.6 263.19 321C278.29 312.8 287.39 300.1 288.99 285.4C290.99 266.9 281.09 246.8 261.79 230.2C256.19 226 252.09 220.1 249.49 212.6ZM324.79 32.4999C273.49 93.5999 243.39 159.5 247.99 200.7C248.29 203.3 248.69 205.7 249.29 208C252.09 191.1 257.49 175.8 265.49 162.9C279.39 140.3 300.09 126.6 325.39 123.3C340.69 115.1 349.99 102.4 351.69 87.5C353.49 69 343.79 48.9999 324.79 32.4999Z" fill="white"/>
<path d="M270.291 157.2L269.791 156.3C276.891 152.5 281.191 146.7 281.891 139.8C282.791 131.3 278.291 122 269.391 114.4L270.091 113.6C279.191 121.5 283.891 131.1 282.991 139.9C282.091 147.2 277.591 153.3 270.291 157.2Z" fill="white"/>
<path d="M247.791 228.3L247.291 227.4C254.391 223.6 258.691 217.8 259.391 210.9C260.291 202.4 255.791 193.1 246.891 185.5L247.591 184.7C256.691 192.6 261.391 202.2 260.491 211C259.691 218.2 255.191 224.3 247.791 228.3Z" fill="white"/>
<path d="M286.49 296.6C259.29 257 251.29 214.3 264.09 176.2C276.39 139.6 306.59 111.8 349.19 97.7L349.49 98.5999C307.19 112.5 277.19 140.2 264.99 176.4C252.29 214.2 260.19 256.6 287.29 295.9L286.49 296.6Z" fill="white"/>
<path d="M286.29 263.7C265.09 243 255.49 216.6 258.69 187.2C263.39 143 297.09 97.2001 348.89 64.8L349.39 65.6001C297.89 97.9001 264.39 143.3 259.69 187.2C256.59 216.2 265.99 242.4 286.99 262.9L286.29 263.7Z" fill="white"/>
</g>
<mask id="mask13_201_603" style="mask-type:luminance" maskUnits="userSpaceOnUse" x="247" y="31" width="106" height="204">
<path d="M284.991 133.6C287.591 133.5 291.191 133.2 293.791 132.9C293.791 132.9 296.491 132.6 298.891 131.8C298.791 132 298.491 132 298.291 132.1C294.191 134.1 290.391 137.3 290.391 137.4C289.191 138.4 287.591 139.7 286.491 140.8C284.391 142.9 281.591 145.7 279.791 148.1C278.591 149.7 276.891 151.7 275.891 153.4C273.791 156.8 271.091 161.4 269.291 164.9C267.291 168.7 265.391 174.1 264.091 178.2C262.091 184.6 261.091 191.1 260.991 192.2C260.791 194.2 260.391 196.9 260.291 199C260.191 202.7 260.091 207.7 260.391 211.4C261.291 222.5 264.291 230.8 266.891 234.9C265.491 233.2 263.491 231.1 260.691 228.7C227.991 200.6 256.191 113.4 324.791 31.8999C361.291 63.2999 361.591 104.4 325.491 123.8C313.791 129.9 299.791 133.1 284.991 133.6Z" fill="white"/>
</mask>
<g mask="url(#mask13_201_603)">
<path d="M266.391 235.1C265.091 233.4 262.991 231.3 260.291 229C244.291 215.3 242.191 187.2 254.191 150.1C266.191 113.1 291.191 70.8999 324.291 31.4999L324.591 31.0999L324.991 31.3999C344.491 48.1999 354.591 68.5999 352.491 87.4999C350.791 102.7 341.291 115.7 325.591 124.1C317.491 128.4 307.991 131.4 297.591 133C293.891 135 290.691 137.7 290.591 137.7C290.291 138 289.991 138.3 289.591 138.6C288.591 139.4 287.591 140.3 286.791 141.1L286.291 141.6C284.291 143.7 281.791 146.2 280.091 148.4C279.791 148.9 279.391 149.3 278.991 149.9C278.091 151.1 276.991 152.5 276.191 153.7C273.991 157.2 271.291 161.8 269.591 165.2C267.291 169.7 265.191 175.9 264.391 178.4C262.391 184.7 261.391 191.3 261.291 192.3C261.191 192.9 261.191 193.5 261.091 194.1C260.891 195.7 260.691 197.6 260.591 199.1C260.491 202.6 260.391 207.6 260.691 211.4C261.591 222.4 264.591 230.6 267.091 234.6L266.391 235.1ZM324.791 32.4999C291.891 71.6999 267.091 113.5 255.191 150.4C243.291 187.1 245.291 214.8 260.991 228.2C262.391 229.4 263.591 230.5 264.591 231.5C262.591 226.9 260.591 219.9 259.891 211.3C259.591 207.5 259.691 202.4 259.791 198.9C259.891 197.4 260.091 195.5 260.291 193.8C260.391 193.2 260.491 192.6 260.491 192C260.591 191 261.591 184.4 263.591 177.9C264.391 175.4 266.491 169 268.791 164.5C270.591 161.1 273.191 156.5 275.491 152.9C276.291 151.7 277.391 150.3 278.291 149C278.691 148.5 279.091 148 279.391 147.6C281.091 145.4 283.591 142.8 285.691 140.7L286.191 140.2C286.991 139.4 288.091 138.4 289.091 137.6C289.491 137.3 289.791 137 290.091 136.8C290.091 136.8 292.291 134.9 295.191 133.1C291.891 133.5 288.591 133.8 285.091 133.9V132.9C287.091 132.8 290.991 132.5 293.891 132.2C294.191 132.2 296.591 131.8 298.891 131.2L300.391 130.7L299.691 131.5C309.191 129.9 317.891 127.1 325.291 123.1C340.691 114.9 349.991 102.1 351.591 87.2999C353.491 68.9999 343.791 48.9999 324.791 32.4999Z" fill="white"/>
</g>
<mask id="mask14_201_603" style="mask-type:luminance" maskUnits="userSpaceOnUse" x="222" y="132" width="77" height="200">
<path d="M297.491 132.5C296.191 133.2 294.591 134.2 293.391 135.1C291.491 136.5 289.091 138.4 287.391 140C284.991 142.3 281.991 145.6 279.791 148.2C278.591 149.6 277.191 151.7 276.091 153.2C276.091 153.2 272.491 158.2 269.191 165.1C267.391 169 265.291 174.3 263.991 178.4C262.791 182.4 261.491 187.7 260.991 191.9C259.991 199.9 259.791 202.3 260.191 210.1C260.291 211.8 260.491 214.1 260.791 215.9C261.191 218.3 261.691 221.4 262.391 223.8C262.991 226.1 263.991 229 264.891 231.2C265.191 232 265.691 233 266.091 233.8C266.291 234.2 266.591 234.6 266.791 235C266.391 234.5 265.491 233.5 265.491 233.5C264.891 232.8 263.991 232 263.391 231.3C262.591 230.5 261.491 229.5 260.591 228.8C261.091 229.3 261.691 229.7 262.191 230.1C298.691 261.5 298.991 302.6 262.891 322C251.291 328.2 237.291 331.4 222.491 331.9C219.191 223.6 247.091 135 284.991 133.8C288.991 133.7 290.491 133.5 294.091 133C294.991 132.9 296.091 132.6 296.991 132.5C297.591 132.4 298.291 132.2 298.791 132C298.391 132 297.891 132.3 297.491 132.5Z" fill="white"/>
</mask>
<g mask="url(#mask14_201_603)">
<path d="M218.89 332.2C188.49 332.2 154.99 320.9 131.09 300.4L130.69 300.1L130.99 299.7C182.49 238.5 212.79 172.3 208.09 131.2C206.79 119.6 202.69 110.7 195.99 104.5C195.09 103.8 194.29 103.1 193.49 102.4L194.09 101.6C194.99 102.3 195.79 103 196.69 103.7C224.59 126.3 264.29 136.8 297.19 132.1C305.69 127.6 315.09 124.6 325.19 123.3L327.89 123L325.49 124.3C317.19 128.8 307.69 131.7 297.49 133.1C284.89 139.9 274.29 150.1 265.99 163.5C242.49 201.8 241.49 260.9 263.19 321.7L263.29 322.1L262.89 322.3C250.59 329 235.19 332.2 218.89 332.2ZM132.19 299.9C168.39 330.7 226.49 340.4 262.29 321.5C240.69 260.6 241.79 201.3 265.39 162.8C273.19 150 283.19 140.1 294.99 133.3C264.09 137 227.69 127.7 200.69 107.9C205.29 113.9 208.09 121.6 209.19 131C213.89 172.4 183.69 238.6 132.19 299.9ZM322.49 124.6C314.69 125.9 307.39 128.2 300.59 131.5C308.39 130.1 315.79 127.8 322.49 124.6Z" fill="white"/>
<path d="M249.59 161.9C235.39 161.9 219.79 156.6 208.59 147L209.29 146.2C226.09 160.6 253.29 165.2 269.79 156.3L270.29 157.2C264.39 160.4 257.19 161.9 249.59 161.9Z" fill="white"/>
<path d="M227.19 233C212.99 233 197.39 227.7 186.19 218.2L186.89 217.4C203.69 231.8 230.89 236.4 247.39 227.5L247.89 228.4C241.99 231.4 234.79 233 227.19 233Z" fill="white"/>
<path d="M262.69 322.5L262.49 322C248.39 282.4 243.89 243.5 248.89 210.5C247.99 207.5 247.39 204.3 246.99 200.9C242.29 159.4 272.69 92.9999 324.39 31.5999L324.69 31.2L325.09 31.4999C344.59 48.2999 354.69 68.6999 352.59 87.5999C350.89 102.8 341.39 115.8 325.69 124.2L325.49 124.3C300.49 127.5 279.99 141.1 266.19 163.5C257.99 176.9 252.49 192.8 249.79 210.5C252.19 218.7 256.39 225.1 262.49 229.7C282.09 246.5 292.09 267 289.99 285.8C288.29 301 278.79 314 263.09 322.4L262.69 322.5ZM249.49 212.6C244.99 244.8 249.59 282.6 263.19 321C278.29 312.8 287.39 300.1 288.99 285.4C290.99 266.9 281.09 246.8 261.79 230.2C256.19 226 252.09 220.1 249.49 212.6ZM324.79 32.4999C273.49 93.5999 243.39 159.5 247.99 200.7C248.29 203.3 248.69 205.7 249.29 208C252.09 191.1 257.49 175.8 265.49 162.9C279.39 140.3 300.09 126.6 325.39 123.3C340.69 115.1 349.99 102.4 351.69 87.5C353.49 69 343.79 48.9999 324.79 32.4999Z" fill="white"/>
<path d="M270.291 157.2L269.791 156.3C276.891 152.5 281.191 146.7 281.891 139.8C282.791 131.3 278.291 122 269.391 114.4L270.091 113.6C279.191 121.5 283.891 131.1 282.991 139.9C282.091 147.2 277.591 153.3 270.291 157.2Z" fill="white"/>
<path d="M247.791 228.3L247.291 227.4C254.391 223.6 258.691 217.8 259.391 210.9C260.291 202.4 255.791 193.1 246.891 185.5L247.591 184.7C256.691 192.6 261.391 202.2 260.491 211C259.691 218.2 255.191 224.3 247.791 228.3Z" fill="white"/>
<path d="M286.49 296.6C259.29 257 251.29 214.3 264.09 176.2C276.39 139.6 306.59 111.8 349.19 97.7L349.49 98.5999C307.19 112.5 277.19 140.2 264.99 176.4C252.29 214.2 260.19 256.6 287.29 295.9L286.49 296.6Z" fill="white"/>
<path d="M286.29 263.7C265.09 243 255.49 216.6 258.69 187.2C263.39 143 297.09 97.2001 348.89 64.8L349.39 65.6001C297.89 97.9001 264.39 143.3 259.69 187.2C256.59 216.2 265.99 242.4 286.99 262.9L286.29 263.7Z" fill="white"/>
</g>
<mask id="mask15_201_603" style="mask-type:luminance" maskUnits="userSpaceOnUse" x="222" y="132" width="77" height="200">
<path d="M297.491 132.5C296.191 133.2 294.591 134.2 293.391 135.1C291.491 136.5 289.091 138.4 287.391 140C284.991 142.3 281.991 145.6 279.791 148.2C278.591 149.6 277.191 151.7 276.091 153.2C276.091 153.2 272.491 158.2 269.191 165.1C267.391 169 265.291 174.3 263.991 178.4C262.791 182.4 261.491 187.7 260.991 191.9C259.991 199.9 259.791 202.3 260.191 210.1C260.291 211.8 260.491 214.1 260.791 215.9C261.191 218.3 261.691 221.4 262.391 223.8C262.991 226.1 263.991 229 264.891 231.2C265.191 232 265.691 233 266.091 233.8C266.291 234.2 266.591 234.6 266.791 235C266.391 234.5 265.491 233.5 265.491 233.5C264.891 232.8 263.991 232 263.391 231.3C262.591 230.5 261.491 229.5 260.591 228.8C261.091 229.3 261.691 229.7 262.191 230.1C298.691 261.5 298.991 302.6 262.891 322C251.291 328.2 237.291 331.4 222.491 331.9C219.191 223.6 247.091 135 284.991 133.8C288.991 133.7 290.491 133.5 294.091 133C294.991 132.9 296.091 132.6 296.991 132.5C297.591 132.4 298.291 132.2 298.791 132C298.391 132 297.891 132.3 297.491 132.5Z" fill="white"/>
</mask>
<g mask="url(#mask15_201_603)">
<path d="M221.991 332.2V331.7C220.391 279.3 225.991 229.8 237.791 192.3C249.691 154.7 266.391 133.6 284.891 133.1C288.891 133 290.391 132.8 293.991 132.3C294.891 132.2 295.991 132 296.891 131.8C297.291 131.7 297.691 131.6 298.091 131.5L298.991 131.3L299.191 131.5L299.591 132L299.091 132.3C298.691 132.5 298.091 132.8 297.691 133C296.291 133.8 294.691 134.8 293.691 135.5C291.091 137.4 289.091 139 287.791 140.3C285.291 142.7 282.291 146.1 280.191 148.4C279.291 149.4 278.291 150.8 277.391 152.1C277.091 152.6 276.691 153 276.391 153.4C276.391 153.4 272.791 158.4 269.591 165.3C267.691 169.2 265.691 174.6 264.491 178.6C263.391 182.3 261.991 187.8 261.491 192C260.591 199.8 260.291 202.2 260.691 210.1C260.791 211.9 260.991 214.2 261.291 215.8C261.491 217.3 262.091 220.9 262.791 223.6C263.391 226 264.491 229 265.291 230.9C265.491 231.5 265.891 232.2 266.191 232.9C283.291 249 291.891 268 289.991 285.7C288.291 300.9 278.791 313.9 263.091 322.3C251.791 328.4 237.791 331.8 222.391 332.3L221.991 332.2ZM295.491 133.1C294.991 133.2 294.591 133.3 294.191 133.3C290.591 133.8 289.091 134 284.991 134.1C266.891 134.6 250.491 155.4 238.791 192.6C227.091 229.8 221.391 279 222.991 331.1C237.991 330.6 251.691 327.2 262.691 321.3C278.091 313.1 287.391 300.3 288.991 285.5C290.791 268.6 282.791 250.4 266.791 234.8L266.291 235.1C265.991 234.7 265.291 233.9 264.991 233.6C264.491 233 263.691 232.3 263.091 231.7L262.891 231.5C262.391 231 261.691 230.4 260.991 229.8C260.691 229.5 260.391 229.3 260.091 229L260.791 228.3C261.291 228.7 261.891 229.2 262.391 229.6C262.991 230.1 263.591 230.6 264.191 231.2C263.391 229.2 262.391 226.3 261.691 223.9C260.991 221.3 260.391 217.8 260.091 216C259.791 214.3 259.591 212 259.491 210.2C259.091 202.2 259.291 199.8 260.291 192C260.791 187.8 262.191 182.2 263.291 178.5C264.491 174.5 266.591 169.1 268.491 165.1C271.791 158.2 275.391 153.1 275.391 153.1C275.691 152.7 275.991 152.2 276.391 151.8C277.291 150.5 278.291 149.1 279.191 148.1C281.191 145.7 284.291 142.3 286.791 139.9C288.191 138.6 290.191 136.9 292.791 135C293.791 134.1 294.691 133.6 295.491 133.1Z" fill="white"/>
</g>
<mask id="mask16_201_603" style="mask-type:luminance" maskUnits="userSpaceOnUse" x="82" y="264" width="209" height="68">
<path d="M137.691 305C119.491 291.4 101.191 277.8 82.9907 264.1C142.291 308.4 220.591 331.7 290.991 329.6C268.191 330.3 245.291 331 222.491 331.7C193.791 332.5 161.891 323 137.691 305Z" fill="white"/>
</mask>
<g mask="url(#mask16_201_603)">
<path d="M218.891 332.2C188.491 332.2 154.991 320.9 131.091 300.4L96.3906 274.2C86.1906 267.5 76.4906 260.2 67.3906 252.3L67.9906 251.5L96.9906 273.4C141.791 303.1 195.491 321.6 247.991 327.3C253.191 325.8 258.191 323.8 262.691 321.3L262.891 321.2L392.891 304.4L390.491 305.7C350.991 326.9 300.191 333.9 248.091 328.2C238.991 330.9 229.191 332.2 218.891 332.2ZM106.791 280.7L131.791 299.6C162.691 326.2 209.891 337.2 245.391 328C197.591 322.4 148.791 306.2 106.791 280.7ZM250.491 327.5C300.491 332.6 349.091 325.9 387.491 306.1L263.091 322.3C259.191 324.4 254.891 326.1 250.491 327.5Z" fill="white"/>
<path d="M171.936 310.397L170.951 310.567L173.264 323.968L174.249 323.798L171.936 310.397Z" fill="white"/>
<path d="M287.147 329.18L220.88 331.186L220.911 332.185L287.177 330.179L287.147 329.18Z" fill="white"/>
</g>
<mask id="mask17_201_603" style="mask-type:luminance" maskUnits="userSpaceOnUse" x="82" y="264" width="209" height="68">
<path d="M137.691 305C119.491 291.4 101.191 277.8 82.9907 264.1C142.291 308.4 220.591 331.7 290.991 329.6C268.191 330.3 245.291 331 222.491 331.7C193.791 332.5 161.891 323 137.691 305Z" fill="white"/>
</mask>
<g mask="url(#mask17_201_603)">
<path d="M218.791 332.2C190.191 332.2 160.091 322.3 137.391 305.3L82.6909 264.4L83.2909 263.6C141.091 306.7 218.691 331.2 290.991 329V330L222.491 332.1C221.291 332.2 220.091 332.2 218.791 332.2ZM137.991 304.6C161.491 322.1 193.091 332.1 222.491 331.2L266.491 329.9C209.491 327 150.991 308.6 102.891 278.4L137.991 304.6Z" fill="white"/>
</g>
<mask id="mask18_201_603" style="mask-type:luminance" maskUnits="userSpaceOnUse" x="0" y="2" width="389" height="303">
<path d="M82.9906 264.1C77.7906 260.2 72.6906 256.1 67.7906 251.9C-21.8094 174.9 -22.6094 74.0001 65.9906 26.5001C154.591 -20.9999 298.891 2.90012 388.491 79.9001L262.191 229.9C225.691 198.5 166.891 188.8 130.791 208.1C94.6906 227.4 94.9906 268.6 131.491 300C133.491 301.7 135.591 303.4 137.691 305C119.491 291.3 101.191 277.7 82.9906 264.1Z" fill="white"/>
</mask>
<g mask="url(#mask18_201_603)">
<path d="M262.291 230.6L261.891 230.3C225.591 199.1 166.891 189.3 130.991 208.6L130.491 208.9L130.291 208.4L65.2905 26.4L65.6905 26.2C154.291 -21.3 299.191 2.7 388.791 79.7L389.191 80L262.291 230.6ZM174.791 197.7C205.091 197.7 238.391 208.9 262.191 229.2L387.791 80C298.591 3.6 154.791 -20.2 66.5905 26.7L131.091 207.4C143.591 200.8 158.691 197.7 174.791 197.7Z" fill="white"/>
<path d="M284.188 20.9949L219.515 205.811L220.459 206.141L285.132 21.3252L284.188 20.9949Z" fill="white"/>
<path d="M169.512 2.10685L168.513 2.12598L172.262 198.187L173.262 198.168L169.512 2.10685Z" fill="white"/>
<path d="M131.19 300.4L67.3905 252.3C19.5905 211.2 -4.90953 161.3 0.190465 115.3C4.29047 78.1999 27.4905 46.4999 65.6905 25.9999L66.1905 25.7L66.3905 26.2L131.39 208.2L130.99 208.4C115.59 216.6 106.29 229.4 104.69 244.2C102.69 262.7 112.59 282.8 131.89 299.4L131.19 300.4ZM65.6905 27.2C28.0905 47.5 5.19046 78.7999 1.19047 115.4C-3.80953 161 20.5905 210.7 68.0905 251.5L124.39 294C109.39 278.6 101.89 260.8 103.69 244.3C105.39 229.2 114.79 216.3 130.19 207.9L65.6905 27.2Z" fill="white"/>
<path d="M7.56959 88.6075L6.74609 89.1748L106.421 233.864L107.244 233.296L7.56959 88.6075Z" fill="white"/>
<path d="M8.06802 169.408L7.37012 170.125L106.622 266.853L107.319 266.137L8.06802 169.408Z" fill="white"/>
<path d="M218.891 332.2C188.491 332.2 154.991 320.9 131.091 300.4L96.3906 274.2C86.1906 267.5 76.4906 260.2 67.3906 252.3L67.9906 251.5L96.9906 273.4C141.791 303.1 195.491 321.6 247.991 327.3C253.191 325.8 258.191 323.8 262.691 321.3L262.891 321.2L392.891 304.4L390.491 305.7C350.991 326.9 300.191 333.9 248.091 328.2C238.991 330.9 229.191 332.2 218.891 332.2ZM106.791 280.7L131.791 299.6C162.691 326.2 209.891 337.2 245.391 328C197.591 322.4 148.791 306.2 106.791 280.7ZM250.491 327.5C300.491 332.6 349.091 325.9 387.491 306.1L263.091 322.3C259.191 324.4 254.891 326.1 250.491 327.5Z" fill="white"/>
</g>
<mask id="mask19_201_603" style="mask-type:luminance" maskUnits="userSpaceOnUse" x="0" y="2" width="389" height="303">
<path d="M82.9906 264.1C77.7906 260.2 72.6906 256.1 67.7906 251.9C-21.8094 174.9 -22.6094 74.0001 65.9906 26.5001C154.591 -20.9999 298.891 2.90012 388.491 79.9001L262.191 229.9C225.691 198.5 166.891 188.8 130.791 208.1C94.6906 227.4 94.9906 268.6 131.491 300C133.491 301.7 135.591 303.4 137.691 305C119.491 291.3 101.191 277.7 82.9906 264.1Z" fill="white"/>
</mask>
<g mask="url(#mask19_201_603)">
<path d="M137.391 305.4L82.6908 264.5C77.3907 260.6 72.2908 256.5 67.3908 252.3C19.6908 211.2 -4.80925 161.3 0.19075 115.3C4.29075 78.2 27.4907 46.5 65.6908 26C154.291 -21.5 299.191 2.50005 388.791 79.5L389.191 79.8L262.291 230.6L261.891 230.3C225.591 199.1 166.891 189.3 130.991 208.6C115.591 216.8 106.291 229.6 104.691 244.4C102.691 262.9 112.591 283 131.891 299.6C133.891 301.3 135.991 303 138.091 304.6L137.391 305.4ZM173.891 2.60004C134.291 2.60004 96.7907 10.4 66.1908 26.9C28.2907 47.2 5.19075 78.7 1.19075 115.4C-3.80925 161 20.5908 210.7 68.0908 251.5C72.9908 255.7 78.0908 259.8 83.2907 263.7L125.891 295.5C109.791 279.7 101.791 261.3 103.691 244.3C105.391 229.1 114.891 216.1 130.591 207.7C166.691 188.4 225.591 198 262.191 229.2L387.791 80C329.591 30.1 247.991 2.60004 173.891 2.60004Z" fill="white"/>
</g>
<mask id="mask20_201_603" style="mask-type:luminance" maskUnits="userSpaceOnUse" x="222" y="79" width="235" height="253">
<path d="M222.491 331.7C237.291 331.3 251.291 328 262.891 321.8C298.991 302.4 298.691 261.3 262.191 229.9L388.391 79.8999C477.891 156.9 478.691 257.8 390.191 305.3C361.691 320.6 327.391 328.5 290.991 329.6C268.191 330.3 245.291 331 222.491 331.7Z" fill="white"/>
</mask>
<g mask="url(#mask20_201_603)">
<path d="M218.891 332.2C188.491 332.2 154.991 320.9 131.091 300.4L96.3906 274.2C86.1906 267.5 76.4906 260.2 67.3906 252.3L67.9906 251.5L96.9906 273.4C141.791 303.1 195.491 321.6 247.991 327.3C253.191 325.8 258.191 323.8 262.691 321.3L262.891 321.2L392.891 304.4L390.491 305.7C350.991 326.9 300.191 333.9 248.091 328.2C238.991 330.9 229.191 332.2 218.891 332.2ZM106.791 280.7L131.791 299.6C162.691 326.2 209.891 337.2 245.391 328C197.591 322.4 148.791 306.2 106.791 280.7ZM250.491 327.5C300.491 332.6 349.091 325.9 387.491 306.1L263.091 322.3C259.191 324.4 254.891 326.1 250.491 327.5Z" fill="white"/>
<path d="M260.291 322.6L262.691 321.3C278.091 313.1 287.391 300.3 288.991 285.5C290.991 267 281.091 246.9 261.791 230.3L261.391 230L388.291 79.2L388.691 79.5C436.391 120.6 460.891 170.5 455.891 216.5C451.79 253.6 428.59 285.3 390.391 305.8L390.191 305.9L260.291 322.6ZM262.891 229.8C282.191 246.5 292.091 266.8 289.991 285.6C288.391 300.1 279.691 312.5 265.391 320.9L390.091 304.8C427.891 284.5 450.991 253.1 454.991 216.3C459.991 170.8 435.791 121.3 388.491 80.5L262.891 229.8Z" fill="white"/>
<path d="M448.852 242.377L286.755 295.908L287.068 296.858L449.165 243.326L448.852 242.377Z" fill="white"/>
<path d="M448.15 161.536L286.4 262.923L286.931 263.77L448.681 162.383L448.15 161.536Z" fill="white"/>
</g>
<mask id="mask21_201_603" style="mask-type:luminance" maskUnits="userSpaceOnUse" x="222" y="79" width="235" height="253">
<path d="M222.491 331.7C237.291 331.3 251.291 328 262.891 321.8C298.991 302.4 298.691 261.3 262.191 229.9L388.391 79.8999C477.891 156.9 478.691 257.8 390.191 305.3C361.691 320.6 327.391 328.5 290.991 329.6C268.191 330.3 245.291 331 222.491 331.7Z" fill="white"/>
</mask>
<g mask="url(#mask21_201_603)">
<path d="M222.491 332.2V331.2C237.691 330.7 251.591 327.3 262.691 321.4C278.091 313.2 287.391 300.4 288.991 285.6C290.991 267.1 281.091 247 261.791 230.4L261.391 230.1L388.291 79.2998L388.691 79.5998C436.391 120.7 460.891 170.6 455.891 216.6C451.791 253.7 428.591 285.4 390.391 305.9C362.791 320.7 328.391 329.1 290.991 330.2L222.491 332.2ZM262.891 229.8C282.191 246.5 292.091 266.8 289.991 285.6C288.291 300.8 278.791 313.8 263.091 322.2C255.591 326.2 246.891 329.1 237.291 330.7L290.891 329.1C328.191 328 362.391 319.6 389.891 304.9C427.791 284.6 450.891 253.1 454.891 216.4C459.891 170.9 435.691 121.4 388.391 80.5998L262.891 229.8Z" fill="white"/>
</g>
<mask id="mask22_201_603" style="mask-type:luminance" maskUnits="userSpaceOnUse" x="165" y="0" width="209" height="68">
<path d="M373.191 67.7001C313.891 23.4001 235.591 0.10007 165.191 2.20007C187.991 1.50007 210.891 0.800064 233.691 0.100064C262.391 -0.799936 294.291 8.70007 318.491 26.8001C336.691 40.5001 354.991 54.1001 373.191 67.7001Z" fill="white"/>
</mask>
<g mask="url(#mask22_201_603)">
<path d="M388.191 80.3002L359.191 58.4002C314.391 28.7002 260.691 10.2002 208.291 4.50024C203.091 6.00024 198.091 8.00024 193.591 10.5002L193.391 10.6002L63.3911 27.4002L65.7911 26.1002C105.291 4.80024 155.991 -2.09976 208.091 3.50024C244.091 -6.89976 293.191 4.00024 324.991 31.4002L359.691 57.6002C369.891 64.3002 379.591 71.6002 388.691 79.5002L388.191 80.3002ZM210.791 3.80024C258.591 9.40024 307.391 25.5002 349.391 51.0002L324.391 32.2002C293.491 5.60024 246.191 -5.39976 210.791 3.80024ZM173.891 2.60024C135.391 2.60024 98.7911 10.0002 68.5911 25.6002L193.091 9.50024C196.991 7.40024 201.291 5.60024 205.691 4.20024C194.991 3.20024 184.391 2.60024 173.891 2.60024Z" fill="white"/>
<path d="M282.919 7.80964L281.934 7.97974L284.247 21.3812L285.232 21.2111L282.919 7.80964Z" fill="white"/>
<path d="M235.25 -0.406357L168.983 1.59985L169.013 2.59935L235.28 0.593143L235.25 -0.406357Z" fill="white"/>
</g>
<mask id="mask23_201_603" style="mask-type:luminance" maskUnits="userSpaceOnUse" x="165" y="0" width="209" height="68">
<path d="M373.191 67.7001C313.891 23.4001 235.591 0.10007 165.191 2.20007C187.991 1.50007 210.891 0.800064 233.691 0.100064C262.391 -0.799936 294.291 8.70007 318.491 26.8001C336.691 40.5001 354.991 54.1001 373.191 67.7001Z" fill="white"/>
</mask>
<g mask="url(#mask23_201_603)">
<path d="M372.891 68.1002C315.091 25.0002 237.491 0.500157 165.191 2.70016V1.70016L233.691 -0.399849C263.291 -1.29985 295.091 8.70015 318.791 26.4002L373.491 67.3001L372.891 68.1002ZM189.691 2.00015C246.691 4.90015 305.191 23.3002 353.291 53.5002L318.091 27.2002C294.591 9.70016 262.991 -0.299849 233.591 0.600151L189.691 2.00015Z" fill="white"/>
</g>
<mask id="mask24_201_603" style="mask-type:luminance" maskUnits="userSpaceOnUse" x="318" y="26" width="71" height="54">
<path d="M318.491 26.8C336.691 40.4 354.991 54 373.191 67.7001C378.391 71.6001 383.491 75.7 388.391 79.9L324.591 31.8C322.691 30.1 320.591 28.4 318.491 26.8Z" fill="white"/>
</mask>
<g mask="url(#mask24_201_603)">
<path d="M388.191 80.3L359.191 58.4C314.391 28.7 260.691 10.2 208.291 4.5C203.091 6 198.091 8 193.591 10.5L193.391 10.6L63.3906 27.4L65.7906 26.1C105.291 4.79999 155.991 -2.1 208.091 3.5C244.091 -6.9 293.191 4 324.991 31.4L359.691 57.6C369.891 64.3 379.591 71.6 388.691 79.5L388.191 80.3ZM210.791 3.8C258.591 9.4 307.391 25.5 349.391 51L324.391 32.2C293.491 5.6 246.191 -5.4 210.791 3.8ZM173.891 2.59999C135.391 2.59999 98.7906 9.99999 68.5906 25.6L193.091 9.5C196.991 7.4 201.291 5.6 205.691 4.2C194.991 3.2 184.391 2.59999 173.891 2.59999Z" fill="white"/>
</g>
<mask id="mask25_201_603" style="mask-type:luminance" maskUnits="userSpaceOnUse" x="318" y="26" width="71" height="54">
<path d="M318.491 26.8C336.691 40.4 354.991 54 373.191 67.7001C378.391 71.6001 383.491 75.7 388.391 79.9L324.591 31.8C322.691 30.1 320.591 28.4 318.491 26.8Z" fill="white"/>
</mask>
<g mask="url(#mask25_201_603)">
<path d="M388.191 80.3001L324.391 32.2001C322.391 30.5001 320.291 28.8001 318.191 27.2001L318.791 26.4001L373.491 67.3001C378.791 71.2001 383.891 75.3002 388.791 79.5002L388.191 80.3001Z" fill="white"/>
</g>
<mask id="mask26_201_603" style="mask-type:luminance" maskUnits="userSpaceOnUse" x="0" y="0" width="457" height="330">
<path d="M165.191 2.2001C187.991 1.5001 210.891 0.800098 233.691 0.100098C218.891 0.500098 204.891 3.8001 193.291 10.0001C157.191 29.4001 157.491 70.5001 193.991 101.9C230.491 133.3 289.291 143 325.391 123.7C361.491 104.4 361.191 63.2001 324.691 31.8001L388.491 79.9001C477.991 156.9 478.791 257.8 390.291 305.3C301.791 352.8 157.291 328.9 67.6908 251.9C-21.9092 174.9 -22.6092 74.0001 65.8908 26.5001C94.4908 11.2001 128.791 3.3001 165.191 2.2001Z" fill="white"/>
</mask>
<g mask="url(#mask26_201_603)">
<path d="M388.191 80.3L359.191 58.4C314.391 28.7 260.691 10.2 208.291 4.5C203.091 6 198.091 8 193.591 10.5L193.391 10.6L63.3906 27.4L65.7906 26.1C105.291 4.79999 155.991 -2.1 208.091 3.5C244.091 -6.9 293.191 4 324.991 31.4L359.691 57.6C369.891 64.3 379.591 71.6 388.691 79.5L388.191 80.3ZM210.791 3.8C258.591 9.4 307.391 25.5 349.391 51L324.391 32.2C293.491 5.6 246.191 -5.4 210.791 3.8ZM173.891 2.59999C135.391 2.59999 98.7906 9.99999 68.5906 25.6L193.091 9.5C196.991 7.4 201.291 5.6 205.691 4.2C194.991 3.2 184.391 2.59999 173.891 2.59999Z" fill="white"/>
<path d="M67.7907 252.6L67.3908 252.3C19.6908 211.2 -4.80925 161.3 0.19075 115.3C4.29075 78.2001 27.4907 46.5001 65.6908 26.0001L65.8908 25.9001L195.891 9.1001L193.491 10.4001C178.091 18.6001 168.791 31.4001 167.191 46.2001C165.191 64.7001 175.091 84.8001 194.391 101.4L194.791 101.7L67.7907 252.6ZM66.0908 27.0001C28.2908 47.3001 5.19075 78.7001 1.19075 115.5C-3.80925 161 20.3908 210.5 67.6908 251.3L193.291 102.1C173.991 85.4001 164.091 65.1001 166.191 46.3001C167.791 31.8001 176.491 19.4001 190.791 11.0001L66.0908 27.0001Z" fill="white"/>
<path d="M169.139 34.9572L7.04199 88.4888L7.35559 89.4384L169.452 35.9068L169.139 34.9572Z" fill="white"/>
<path d="M169.254 67.9856L7.50488 169.373L8.03598 170.22L169.786 68.8329L169.254 67.9856Z" fill="white"/>
<path d="M282.291 330.2C207.791 330.2 125.791 302.5 67.3907 252.3L66.9907 252L193.891 101.2L194.291 101.5C230.591 132.7 289.291 142.5 325.191 123.2L325.691 122.9L325.891 123.4L390.891 305.4L390.491 305.6C359.691 322.3 321.991 330.2 282.291 330.2ZM68.3907 251.8C157.591 328.2 301.391 352 389.591 305.1L325.091 124.4C312.591 131 297.391 134.1 281.391 134.1C251.091 134.1 217.791 122.9 193.991 102.6L68.3907 251.8Z" fill="white"/>
<path d="M235.779 125.577L171.106 310.393L172.05 310.723L236.723 125.908L235.779 125.577Z" fill="white"/>
<path d="M283.91 133.604L282.911 133.623L286.66 329.684L287.66 329.665L283.91 133.604Z" fill="white"/>
<path d="M389.991 306L389.791 305.5L324.791 123.5L325.191 123.3C340.591 115.1 349.891 102.3 351.491 87.5C353.491 69 343.591 48.9 324.291 32.3L324.891 31.5L388.691 79.6C436.491 120.7 460.991 170.6 455.891 216.6C451.791 253.7 428.591 285.4 390.391 305.9L389.991 306ZM325.991 123.9L390.491 304.6C428.091 284.3 450.991 253 454.991 216.4C459.991 170.8 435.591 121.1 388.091 80.3L331.791 37.8C346.791 53.2 354.291 71 352.491 87.5C350.891 102.6 341.491 115.5 325.991 123.9Z" fill="white"/>
<path d="M349.756 97.9246L348.933 98.4919L448.607 243.181L449.431 242.614L349.756 97.9246Z" fill="white"/>
<path d="M349.44 64.8774L348.742 65.5935L447.994 162.322L448.692 161.606L349.44 64.8774Z" fill="white"/>
</g>
<mask id="mask27_201_603" style="mask-type:luminance" maskUnits="userSpaceOnUse" x="0" y="0" width="457" height="330">
<path d="M165.191 2.2001C187.991 1.5001 210.891 0.800098 233.691 0.100098C218.891 0.500098 204.891 3.8001 193.291 10.0001C157.191 29.4001 157.491 70.5001 193.991 101.9C230.491 133.3 289.291 143 325.391 123.7C361.491 104.4 361.191 63.2001 324.691 31.8001L388.491 79.9001C477.991 156.9 478.791 257.8 390.291 305.3C301.791 352.8 157.291 328.9 67.6908 251.9C-21.9092 174.9 -22.6092 74.0001 65.8908 26.5001C94.4908 11.2001 128.791 3.3001 165.191 2.2001Z" fill="white"/>
</mask>
<g mask="url(#mask27_201_603)">
<path d="M282.291 330.2C207.791 330.2 125.791 302.5 67.3908 252.3C19.6908 211.2 -4.80925 161.3 0.19075 115.3C4.29075 78.2001 27.4907 46.5001 65.6908 26.0001C93.2907 11.2001 127.691 2.8001 165.091 1.7001L233.591 -0.399902V0.600098C218.391 1.1001 204.491 4.5001 193.391 10.4001C177.991 18.6001 168.691 31.4001 167.091 46.2001C165.091 64.7001 174.991 84.8001 194.291 101.4C230.591 132.6 289.291 142.4 325.191 123.1C340.591 114.9 349.891 102.1 351.491 87.3001C353.491 68.8001 343.591 48.7001 324.291 32.1001L324.891 31.3001L388.691 79.4001C436.491 120.5 460.991 170.4 455.891 216.4C451.791 253.5 428.591 285.2 390.391 305.7C359.691 322.3 321.991 330.2 282.291 330.2ZM165.191 2.7001C127.891 3.8001 93.6908 12.2001 66.1908 26.9001C28.2907 47.2001 5.19075 78.7001 1.19075 115.4C-3.80925 161 20.5908 210.7 68.0908 251.5C126.291 301.6 207.991 329.2 282.291 329.2C321.891 329.2 359.391 321.4 389.991 304.9C427.891 284.6 450.991 253.1 454.991 216.4C459.991 170.8 435.591 121.1 388.091 80.3001L331.791 37.8001C346.791 53.2001 354.291 71.0001 352.491 87.5001C350.791 102.7 341.291 115.7 325.591 124.1C312.991 130.9 297.591 134.1 281.391 134.1C250.991 134.1 217.491 122.8 193.591 102.3C174.091 85.5001 163.991 65.1001 166.091 46.2001C167.791 31.0001 177.291 18.0001 192.991 9.6001C200.491 5.6001 209.191 2.7001 218.791 1.1001L165.191 2.7001Z" fill="white"/>
</g>
</svg>
