<svg width="399" height="403" viewBox="0 0 399 403" fill="none" xmlns="http://www.w3.org/2000/svg">
<path d="M71.0095 402.694C59.5095 402.694 48.0095 402.594 36.3095 402.394C24.9095 402.294 13.1095 402.094 1.40953 402.094H0.909528V401.594C1.90953 377.294 5.90953 353.094 9.90953 329.694C12.3095 315.494 14.7095 300.894 16.5095 286.294C19.8095 258.694 17.8095 231.494 9.80953 195.594C-1.39047 145.594 -0.390474 93.2939 0.509526 42.5939C0.709526 28.9939 1.00953 14.9939 1.00953 1.29389V0.793894H1.50953C14.6095 0.793894 28.0095 0.593893 41.0095 0.393893C92.6095 -0.406107 145.91 -1.20611 197.01 11.1939C224.51 17.8939 251.51 23.6939 280.51 20.3939C297.71 18.3939 314.81 14.7939 331.31 11.1939C352.71 6.59389 374.81 1.89389 397.41 0.793894H397.91V1.29389C397.31 20.6939 394.01 39.9939 390.91 58.5939C388.61 72.2939 386.21 86.4939 384.91 100.694C382.01 131.294 386.31 162.294 390.41 192.194L390.81 195.394C398.71 252.794 398.41 311.394 398.01 367.994C397.91 378.994 397.91 390.394 397.91 401.594V402.094H397.41C377.11 400.694 358.51 393.994 340.51 387.494C326.21 382.394 311.51 377.094 296.01 374.394C266.51 369.294 237.41 377.894 209.21 386.194L205.31 387.294C160.71 400.494 116.61 402.694 71.0095 402.694ZM1.90953 401.094C13.4095 401.094 25.1095 401.194 36.3095 401.394C94.4095 402.094 149.31 402.794 204.81 386.494L208.71 385.394C237.01 377.094 266.21 368.494 295.91 373.594C311.51 376.294 326.31 381.594 340.61 386.694C358.41 393.094 376.81 399.694 396.71 401.194C396.71 390.194 396.81 378.994 396.81 368.194C397.109 311.594 397.51 253.094 389.61 195.694L389.21 192.494C385.11 162.494 380.81 131.594 383.71 100.794C385.01 86.5939 387.41 72.3939 389.71 58.5939C392.81 40.1939 396.01 21.1939 396.71 1.99389C374.41 3.09389 352.51 7.79389 331.31 12.3939C314.71 15.8939 297.61 19.5939 280.41 21.5939C251.31 24.8939 224.11 19.1939 196.61 12.3939C145.61 -0.106107 92.3095 0.793894 40.8095 1.59389C28.0095 1.79389 14.8095 1.99389 1.80953 1.99389C1.80953 15.4939 1.50953 29.3939 1.30953 42.7939C0.409525 93.3939 -0.490476 145.694 10.6095 195.594C18.7095 231.694 20.7095 258.894 17.3095 286.594C15.5095 301.194 13.1095 315.794 10.7095 329.994C6.90953 353.094 2.90953 377.094 1.90953 401.094Z" fill="white"/>
<path d="M263.91 46.8939C240.71 46.8939 218.81 41.9939 198.21 36.7939C150.31 24.7939 101.01 26.2939 53.4097 27.6939C36.4097 28.1939 18.8097 28.6939 1.40967 28.5939V27.5939C18.8097 27.6939 36.4097 27.1939 53.4097 26.6939C101.11 25.2939 150.41 23.7939 198.41 35.8939C224.01 42.2939 251.51 48.2939 281.01 44.9939C297.91 43.0939 314.71 39.5939 331.01 36.2939C352.01 31.9939 373.71 27.4939 395.81 26.3939V27.3939C373.81 28.4939 352.11 32.9939 331.21 37.2939C314.91 40.6939 298.11 44.0939 281.11 45.9939C275.31 46.5939 269.61 46.8939 263.91 46.8939Z" fill="white"/>
<path d="M266.41 68.3939C243.51 68.3939 221.81 63.6939 201.61 58.3939C154.51 46.0939 108.91 49.1939 60.7097 52.3939C41.3097 53.6939 21.3097 55.0939 1.40967 55.2939V54.2939C21.3097 54.0939 41.3097 52.6939 60.7097 51.3939C109.01 48.0939 154.61 45.0939 201.91 57.3939C226.51 63.7939 253.31 69.3939 281.91 66.5939C298.31 64.9939 314.71 61.7939 330.61 58.7939C350.61 54.8939 371.31 50.9939 392.21 49.9939V50.9939C371.31 51.8939 350.71 55.8939 330.71 59.6939C314.81 62.7939 298.41 65.8939 281.91 67.4939C276.71 68.0939 271.51 68.3939 266.41 68.3939Z" fill="white"/>
<path d="M269.01 88.9939C245.41 88.9939 224.01 84.0939 205.71 79.0939C158.41 66.0939 113.31 71.1939 65.6097 76.4939C44.7097 78.7939 23.1097 81.2939 1.40967 81.9939V80.9939C23.1097 80.2939 44.6097 77.7939 65.5097 75.4939C113.41 70.0939 158.61 65.0939 206.01 78.0939C227.81 84.0939 254.01 89.8939 282.91 87.3939C298.51 86.0939 314.21 83.2939 329.31 80.6939C348.41 77.3939 368.11 73.8939 388.11 73.1939V74.1939C368.21 74.8939 348.51 78.2939 329.51 81.5939C314.31 84.1939 298.71 86.9939 283.01 88.2939C278.31 88.7939 273.61 88.9939 269.01 88.9939Z" fill="white"/>
<path d="M271.11 110.494C251.81 110.494 232.11 107.294 209.21 100.694C161.91 86.8939 116.91 93.6939 69.3097 100.794C47.3097 104.094 24.5097 107.494 1.50967 108.694L1.40967 107.694C24.3097 106.494 47.1097 103.094 69.1097 99.7939C116.81 92.5939 161.91 85.8939 209.51 99.6939C238.31 108.094 262.11 110.894 286.41 108.794C300.41 107.594 314.51 105.394 328.11 103.294C346.51 100.394 365.51 97.4939 384.71 96.8939V97.8939C365.61 98.3939 346.61 101.394 328.21 104.294C314.61 106.394 300.51 108.594 286.41 109.794C281.31 110.194 276.21 110.494 271.11 110.494Z" fill="white"/>
<path d="M1.40967 135.294V134.294C25.6097 133.194 49.5097 129.194 72.7097 125.294C119.51 117.494 163.81 110.094 210.91 124.194C251.31 136.294 288.51 131.894 327.91 127.194C345.71 125.094 364.21 122.894 383.11 122.294V123.294C364.21 123.894 345.81 126.094 327.91 128.194C288.41 132.894 251.01 137.294 210.41 125.194C163.51 111.194 119.41 118.494 72.6097 126.294C49.6097 130.194 25.7097 134.194 1.40967 135.294Z" fill="white"/>
<path d="M3.30947 160.794L3.20947 159.794C28.1095 158.494 53.2095 154.794 77.4095 151.294C92.2095 149.194 107.509 146.894 122.609 145.294C151.709 142.094 179.909 144.994 208.509 148.494C265.209 155.494 321.809 153.494 384.609 150.394V151.394C321.809 154.494 265.109 156.594 208.309 149.494C179.709 145.994 151.609 142.994 122.609 146.294C107.509 147.994 92.2095 150.194 77.4095 152.294C53.3095 155.794 28.3095 159.394 3.30947 160.794Z" fill="white"/>
<path d="M7.60938 184.494V183.494C30.6094 182.794 53.8094 180.894 76.3094 178.994C90.1094 177.894 104.309 176.694 118.409 175.794C126.509 175.294 134.609 174.894 142.409 174.594C163.109 173.694 182.709 172.894 203.009 169.294C232.609 164.194 257.209 162.794 280.509 164.994C295.909 166.394 311.209 169.294 326.009 171.994C346.209 175.694 367.009 179.494 388.109 179.894V180.894C366.909 180.494 346.009 176.694 325.809 172.994C311.009 170.294 295.709 167.494 280.409 165.994C257.209 163.794 232.609 165.194 203.109 170.294C182.709 173.794 162.209 174.694 142.309 175.594C134.509 175.894 126.409 176.294 118.309 176.794C104.309 177.694 90.0094 178.894 76.3094 179.994C53.9094 181.894 30.6094 183.894 7.60938 184.494Z" fill="white"/>
<path d="M392.31 211.094C368.31 208.394 346.01 199.894 324.41 191.694C308.71 185.694 292.41 179.494 275.61 175.494C247.21 168.894 224.51 176.194 197.11 190.094C152.21 212.894 100.11 210.794 49.7098 208.794C37.6098 208.294 25.0098 207.794 13.0098 207.694V206.694C25.1098 206.794 37.6098 207.294 49.7098 207.794C100.01 209.794 152.01 211.894 196.71 189.194C224.31 175.194 247.21 167.894 275.91 174.594C292.81 178.494 309.11 184.794 324.81 190.794C346.31 198.994 368.61 207.494 392.51 210.194L392.31 211.094Z" fill="white"/>
<path d="M395.709 240.794C369.009 236.294 345.509 223.694 322.809 211.494C306.409 202.694 289.409 193.594 271.209 187.594C238.509 176.694 216.709 191.094 191.709 210.994C166.009 231.394 146.209 241.294 109.109 238.694C97.1094 237.894 85.0094 236.694 73.3094 235.694C54.9094 233.994 35.9094 232.294 17.1094 231.494V230.494C35.9094 231.194 54.9094 232.994 73.3094 234.694C85.0094 235.794 97.1094 236.894 109.109 237.694C145.809 240.294 165.509 230.494 191.009 210.194C216.309 190.094 238.309 175.594 271.509 186.694C289.709 192.794 306.809 201.894 323.209 210.694C345.809 222.794 369.309 235.294 395.809 239.894L395.709 240.794Z" fill="white"/>
<path d="M397.21 268.694C368.81 264.294 344.91 249.494 321.81 235.094C305.11 224.694 287.91 213.994 269.11 207.194C235.01 194.894 213.71 211.794 189.51 235.094C163.71 259.894 144.81 271.094 106.91 267.294C95.4098 266.094 83.9098 264.394 72.7098 262.694C55.2098 260.094 37.2098 257.394 19.0098 256.794V255.794C37.2098 256.294 55.3098 259.094 72.8098 261.694C83.9098 263.394 95.4098 265.094 106.91 266.294C144.41 270.094 163.21 258.994 188.71 234.394C213.21 210.794 234.71 193.694 269.31 206.294C288.21 213.094 305.51 223.894 322.21 234.194C345.31 248.494 369.11 263.294 397.21 267.694V268.694Z" fill="white"/>
<path d="M397.209 295.394C369.809 290.994 346.509 277.194 323.909 263.794C307.609 254.194 290.709 244.194 272.309 237.694C239.309 226.094 217.809 241.194 191.009 263.694C163.509 286.794 143.809 297.294 106.709 293.994C95.0094 292.994 83.2094 291.394 71.8094 289.994C53.9094 287.694 35.5094 285.394 17.1094 284.694V283.694C35.6094 284.294 54.1094 286.694 71.9094 288.994C83.3094 290.494 95.1094 291.994 106.709 292.994C143.509 296.294 162.909 285.894 190.209 262.994C217.209 240.294 239.009 225.094 272.409 236.794C290.809 243.294 307.809 253.294 324.109 262.894C346.609 276.194 369.909 289.894 397.009 294.294L397.209 295.394Z" fill="white"/>
<path d="M397.21 322.094C371.71 318.694 349.61 306.794 328.21 295.194C312.71 286.794 296.71 278.194 279.41 272.794C247.61 262.794 224.41 275.794 194.91 295.094C166.51 313.794 143.91 323.494 106.21 321.094C94.0096 320.294 81.7096 319.194 69.8096 318.194C51.2096 316.494 31.9096 314.794 12.8096 314.394V313.394C31.9096 313.794 51.2096 315.594 69.9096 317.194C81.8096 318.294 94.1096 319.394 106.21 320.094C143.71 322.394 166.11 312.794 194.31 294.294C224.01 274.794 247.41 261.794 279.61 271.894C297.01 277.394 313.11 285.994 328.61 294.394C349.91 305.894 371.91 317.694 397.21 321.194V322.094Z" fill="white"/>
<path d="M397.309 348.794C373.909 346.594 353.309 336.894 333.409 327.394C318.109 320.094 302.209 312.594 285.109 308.494C253.609 300.994 224.909 314.994 199.609 327.394C166.709 343.494 141.109 349.394 108.309 348.394C94.7095 347.994 80.9095 347.294 67.5095 346.694C47.9095 345.694 27.6095 344.694 7.70947 344.594V343.594C27.7095 343.694 48.0095 344.694 67.6095 345.694C81.0095 346.394 94.8095 346.994 108.409 347.394C141.009 348.394 166.409 342.494 199.209 326.494C224.609 314.094 253.509 299.994 285.309 307.494C302.509 311.594 318.409 319.194 333.809 326.494C353.609 335.894 374.109 345.694 397.309 347.794V348.794Z" fill="white"/>
<path d="M397.309 375.494C375.909 374.194 356.809 366.394 338.209 358.794C323.609 352.894 308.509 346.694 292.309 343.694C261.009 337.894 230.409 348.994 203.409 358.694C170.209 370.694 141.509 375.694 107.709 375.394C93.8095 375.294 79.6095 374.994 66.0095 374.794C45.4095 374.394 24.2095 374.094 3.20947 374.094V373.094C24.1095 372.994 45.4095 373.394 66.0095 373.794C79.7095 373.994 93.8095 374.294 107.709 374.394C141.409 374.694 169.909 369.694 203.009 357.794C230.109 347.994 260.809 336.994 292.409 342.794C308.609 345.794 323.809 351.994 338.509 357.894C357.009 365.394 376.109 373.194 397.309 374.494V375.494Z" fill="white"/>
<path d="M372.61 398.494H371.61C372.21 324.094 369.31 254.794 363.01 192.694C362.71 190.094 362.51 187.494 362.21 184.894C359.51 158.694 356.71 131.494 358.71 104.694C359.81 89.5939 361.91 74.3939 364.01 59.6939C366.51 41.3939 369.21 22.4939 369.91 3.59387H370.91C370.21 22.4939 367.51 41.3939 365.01 59.7939C363.01 74.4939 360.81 89.6939 359.71 104.694C357.71 131.394 360.51 158.494 363.21 184.694C363.51 187.294 363.71 189.894 364.01 192.494C370.31 254.694 373.21 323.994 372.61 398.494Z" fill="white"/>
<path d="M348.109 391.194C347.609 366.894 345.009 342.494 342.409 318.794C340.809 304.394 339.209 289.394 338.009 274.694C336.409 253.794 336.309 232.494 336.109 211.794C336.009 203.294 336.009 194.394 335.809 185.794C335.109 149.994 337.109 114.094 339.009 79.3939C340.309 56.2939 341.609 32.4939 342.109 8.89392H343.109C342.609 32.4939 341.209 56.3939 340.009 79.3939C338.109 114.094 336.109 149.994 336.809 185.794C337.009 194.494 337.009 203.294 337.109 211.794C337.209 232.394 337.409 253.794 339.009 274.594C340.109 289.294 341.809 304.294 343.309 318.694C345.909 342.394 348.609 366.894 349.109 391.194H348.109Z" fill="white"/>
<path d="M325.009 382.494C323.609 356.894 319.609 331.394 315.709 306.894C309.109 265.094 302.209 221.794 308.609 177.594C315.009 132.694 314.809 85.7939 314.509 40.3939C314.409 31.8939 314.409 23.3939 314.409 14.9939H315.409C315.409 23.3939 315.509 31.8939 315.509 40.3939C315.809 85.7939 316.109 132.794 309.609 177.794C303.309 221.894 310.109 264.994 316.709 306.794C320.609 331.394 324.609 356.894 326.009 382.494H325.009Z" fill="white"/>
<path d="M301.41 375.294C299.21 347.494 293.11 319.894 287.11 293.294C282.81 273.894 278.31 253.894 275.41 233.794C271.71 208.294 273.41 189.994 281.41 170.594C295.01 137.694 291.91 97.8939 288.91 59.3939C287.81 45.5939 286.81 32.5939 286.61 19.9939H287.61C287.81 32.4939 288.81 45.4939 289.91 59.2939C292.91 97.8939 295.91 137.894 282.31 170.994C274.41 190.194 272.71 208.394 276.31 233.594C279.21 253.594 283.71 273.594 288.01 292.994C294.01 319.694 300.11 347.194 302.31 375.094L301.41 375.294Z" fill="white"/>
<path d="M276.21 372.294C274.11 343.494 267.01 315.294 260.21 287.894C255.21 268.094 250.11 247.594 246.91 226.994C243.31 203.594 243.41 187.294 254.71 167.894C271.21 139.494 266.81 99.0939 262.91 63.2939C261.31 48.6939 259.81 34.8939 259.71 22.2939H260.71C260.91 34.8939 262.41 48.5939 263.91 63.1939C267.81 99.0939 272.21 139.694 255.51 168.394C244.31 187.594 244.21 203.794 247.81 226.894C251.01 247.494 256.11 267.894 261.11 287.794C267.91 315.194 275.01 343.494 277.11 372.294H276.21Z" fill="white"/>
<path d="M248.609 375.394C246.409 347.594 240.309 320.094 234.409 293.494C230.109 274.094 225.609 254.094 222.709 234.094C219.309 210.694 219.409 191.894 230.609 170.394C246.609 139.494 242.109 101.994 237.809 65.7939C235.909 49.7939 234.109 34.6939 233.909 20.1939H234.909C235.009 34.5939 236.809 49.6939 238.809 65.6939C243.209 102.094 247.709 139.794 231.509 170.894C220.409 192.194 220.309 210.894 223.709 233.994C226.609 253.994 231.109 273.994 235.409 293.394C241.309 319.994 247.509 347.594 249.709 375.494L248.609 375.394Z" fill="white"/>
<path d="M219.41 382.594C218.21 360.094 214.01 336.994 209.91 314.694C201.51 268.794 192.91 221.394 209.51 176.194C223.11 139.194 218.51 104.194 213.71 67.0939C211.51 50.1939 209.21 32.6939 208.81 14.9939H209.81C210.21 32.6939 212.51 50.0939 214.71 66.9939C219.61 104.194 224.21 139.394 210.51 176.594C194.01 221.594 202.61 268.894 210.91 314.594C215.01 336.994 219.21 360.094 220.41 382.694L219.41 382.594Z" fill="white"/>
<path d="M189.609 391.294C189.209 368.894 187.109 346.794 185.009 325.294C180.409 276.994 176.009 231.294 189.409 183.094C196.409 157.694 202.409 130.094 198.909 100.594C197.309 87.3939 194.609 74.2939 191.909 61.6939C188.309 44.5939 184.609 26.9939 183.809 8.89392H184.809C185.609 26.8939 189.309 44.4939 192.909 61.5939C195.609 74.2939 198.309 87.3939 199.909 100.594C203.409 130.294 197.409 157.994 190.409 183.494C177.109 231.494 181.509 277.094 186.109 325.394C188.109 346.894 190.309 369.094 190.709 391.494L189.609 391.294Z" fill="white"/>
<path d="M161.509 398.594H160.509C160.709 378.994 160.109 359.394 159.609 340.494C158.209 288.794 156.809 239.994 168.409 188.894L168.709 187.394C175.309 158.294 182.209 128.094 178.209 97.8939C176.309 83.6939 172.609 69.7939 169.009 56.3939C164.509 39.4939 159.809 21.9939 158.709 3.5939L159.709 3.4939C160.809 21.6939 165.409 39.1939 169.909 56.0939C173.509 69.5939 177.209 83.4939 179.109 97.7939C183.209 128.194 176.309 158.394 169.609 187.594L169.309 189.094C157.709 240.094 159.009 288.794 160.509 340.394C161.109 359.394 161.609 378.994 161.509 398.594Z" fill="white"/>
<path d="M133.91 401.594H132.91C132.91 391.094 132.81 380.394 132.81 370.094C132.41 308.694 132.11 250.794 144.31 191.294C144.91 188.194 145.61 185.094 146.21 181.994C152.31 152.894 158.61 122.794 153.81 93.1939C151.61 79.8939 147.81 66.8939 144.11 54.4939C139.11 37.5939 133.91 20.0939 132.91 1.39388L133.91 1.29388C134.91 19.7939 140.11 37.2939 145.11 54.0939C148.81 66.5939 152.71 79.5939 154.81 92.9939C159.61 122.794 153.31 152.994 147.11 182.194C146.41 185.294 145.81 188.394 145.21 191.494C133.01 250.894 133.41 308.794 133.71 370.094C133.81 380.494 133.91 391.094 133.91 401.594Z" fill="white"/>
<path d="M106.51 401.594C106.11 326.294 106.71 258.594 117.61 191.694C118.21 187.694 118.91 183.694 119.61 179.694C124.31 151.894 129.21 123.194 125.11 95.1939C123.11 81.6939 119.81 68.3939 116.61 55.4939C112.21 38.0939 107.71 19.9939 106.51 1.29391L107.51 1.19391C108.61 19.7939 113.21 37.7939 117.51 55.1939C120.71 68.0939 124.11 81.3939 126.11 94.9939C130.21 123.194 125.31 151.994 120.61 179.794C119.91 183.794 119.21 187.794 118.61 191.694C107.71 258.394 107.11 326.094 107.51 401.394L106.51 401.594Z" fill="white"/>
<path d="M81.1094 401.594H80.1094C80.7094 340.694 84.0094 274.394 90.6094 192.794C91.0094 188.294 91.3094 183.794 91.7094 179.294C94.0094 153.094 96.3094 126.094 93.6094 99.6939C92.2094 85.6939 89.7094 71.5939 87.4094 57.9939C84.2094 39.5939 80.9094 20.4939 80.1094 1.29388H81.1094C81.9094 20.4939 85.2094 39.4939 88.4094 57.8939C90.8094 71.4939 93.2094 85.5939 94.6094 99.5939C97.3094 126.094 94.9094 153.194 92.7094 179.394C92.3094 183.894 91.9094 188.394 91.6094 192.894C85.0094 274.394 81.6094 340.794 81.1094 401.594Z" fill="white"/>
<path d="M54.7094 401.694H53.7094C54.4094 378.394 57.0094 354.994 59.4094 332.294C60.9094 318.494 62.5094 304.294 63.6094 290.294C65.7094 263.594 64.8094 236.394 63.9094 210.094C63.7094 204.794 63.5094 199.494 63.4094 194.194C62.5094 165.094 60.6094 135.494 58.7094 106.894C56.4094 72.2939 54.1094 36.5939 53.6094 1.39392H54.6094C55.1094 36.4939 57.4094 72.1939 59.7094 106.794C61.6094 135.394 63.5094 164.994 64.4094 194.094C64.6094 199.394 64.7094 204.694 64.9094 209.994C65.8094 236.294 66.7094 263.594 64.6094 290.294C63.5094 304.394 61.9094 318.594 60.4094 332.294C57.9094 354.994 55.4094 378.394 54.7094 401.694Z" fill="white"/>
<path d="M28.3096 401.694H27.3096C28.3096 377.794 31.9096 353.794 35.3096 330.694C37.4096 316.694 39.5096 302.094 41.1096 287.794C44.6096 255.794 40.9096 225.794 36.5096 195.394C27.4096 132.694 27.0096 67.9939 27.4096 1.59387H28.4096C28.0096 67.8939 28.4096 132.594 37.5096 195.294C41.9096 225.794 45.6096 255.794 42.1096 287.994C40.5096 302.394 38.4096 316.894 36.3096 330.994C32.8096 353.894 29.3096 377.794 28.3096 401.694Z" fill="white"/>
</svg>
