<svg width="457" height="377" viewBox="0 0 457 377" fill="none" xmlns="http://www.w3.org/2000/svg">
<path d="M132.1 44.3586C124.8 44.3586 117.5 44.1586 110.3 44.0586C103.1 43.8586 95.7001 43.7586 88.6001 43.7586V42.7586C95.7001 42.7586 103.2 42.9586 110.4 43.0586C129 43.4586 148.3 43.8586 166.6 41.5586C188.2 38.7586 209 30.7586 229.2 23.0586C232 21.9586 234.8 20.9586 237.6 19.8586L241.3 18.4586C261.2 10.9586 281.8 3.15856 303.2 0.658563C331.7 -2.74144 356.7 7.55857 381.9 19.2586L381.5 20.1586C356.4 8.45856 331.6 -1.74144 303.3 1.55856C282.1 4.05856 261.5 11.8586 241.7 19.3586L238 20.7586C235.2 21.8586 232.4 22.8586 229.6 23.9586C209.4 31.6586 188.5 39.6586 166.8 42.4586C155.3 43.9586 143.7 44.3586 132.1 44.3586Z" fill="white"/>
<path d="M126.8 51.4586C121.9 51.4586 117 51.4586 112.1 51.3586C103.6 51.2586 94.9 51.1586 86.5 51.3586V50.3586C94.9 50.1586 103.7 50.2586 112.2 50.3586C130.1 50.5586 148.5 50.7586 166 48.4586C187.4 45.6586 208.3 38.3586 228.5 31.2586C231.5 30.1586 234.6 29.1586 237.6 28.0586L241.3 26.7586C261.5 19.7586 282.3 12.5586 303.7 9.85858C332.2 6.15858 356.5 16.4586 383.1 29.1586L382.7 30.0586C356.3 17.3586 332.1 7.15858 303.9 10.8586C282.6 13.5586 261.8 20.7586 241.7 27.7586L238 29.0586C235 30.0586 232 31.1586 228.9 32.2586C208.6 39.3586 187.7 46.6586 166.2 49.4586C153.3 51.0586 140 51.4586 126.8 51.4586Z" fill="white"/>
<path d="M84.9999 58.3585L84.8999 57.3585C95.0999 56.7585 105.7 56.6585 116 56.6585C133.7 56.4585 152 56.3585 169.4 53.7585C189.7 50.7585 209.8 44.7585 229.2 38.9585C232.1 38.0585 235.1 37.2585 238 36.3585C240.3 35.6585 242.7 34.9585 245 34.2585C265.2 28.2585 286 22.0585 307.1 20.0585C334 17.4585 357.6 27.8585 383.4 40.7585L383 41.6585C357.4 28.8585 334 18.4585 307.3 21.0585C286.3 23.0585 265.5 29.2585 245.4 35.2585C243.1 35.9585 240.7 36.6585 238.4 37.3585C235.5 38.2585 232.5 39.0585 229.6 39.9585C210.1 45.7585 190 51.7585 169.7 54.7585C152.3 57.3585 133.9 57.4585 116.2 57.6585C105.8 57.6585 95.1999 57.7585 84.9999 58.3585Z" fill="white"/>
<path d="M83.9 64.8586L83.8 63.8586C96 62.6586 108.2 61.5586 120 60.5586C160.5 57.0586 198.8 53.6586 238.8 44.6586C242.1 43.9586 245.4 43.1586 248.7 42.3586C267.8 37.9586 287.6 33.4586 307.3 31.8586C334.4 29.7586 356.7 40.0586 382.9 53.8586L382.4 54.7586C356.3 41.0586 334.2 30.7586 307.3 32.8586C287.7 34.4586 267.9 38.9586 248.8 43.3586C245.5 44.1586 242.2 44.8586 238.9 45.6586C198.9 54.6586 160.5 58.0586 120 61.5586C108.3 62.5586 96.1 63.6586 83.9 64.8586Z" fill="white"/>
<path d="M83.1 71.1586L83 70.1586C110.9 65.9586 139.5 63.3586 167.1 60.8586C191 58.6586 215.8 56.3586 240 53.1586C245.3 52.4586 250.7 51.6586 255.9 50.9586C272.8 48.5586 290.2 45.9586 307.4 45.0586C334.7 43.5586 356.3 54.3586 381.7 68.4586L381.2 69.3586C355.9 55.2586 334.5 44.6586 307.4 46.0586C290.3 46.9586 272.8 49.4586 256 51.9586C250.8 52.7586 245.4 53.4586 240.1 54.1586C215.8 57.4586 191 59.7586 167.1 61.9586C139.5 64.3586 111 67.0586 83.1 71.1586Z" fill="white"/>
<path d="M379.1 85.0586C354.9 70.6586 334.3 59.6586 307.1 60.1586C295.9 60.3586 284.5 60.9586 273.5 61.4586C262.9 61.9586 252 62.4586 241.3 62.6586C182.9 64.0586 133.5 67.0586 82.3001 77.4586L82.1001 76.4586C133.3 66.0586 182.8 62.9586 241.3 61.6586C252 61.4586 262.9 60.8586 273.5 60.4586C284.5 59.9586 295.9 59.4586 307.1 59.1586C334.6 58.5586 355.3 69.6586 379.6 84.1586L379.1 85.0586Z" fill="white"/>
<path d="M376.5 101.759C354.6 87.5586 335.5 76.6586 306.7 75.2586C301.2 74.9586 295.6 74.7586 290.2 74.5586C274.7 73.9586 258.7 73.2586 242.7 71.4586C188 65.2586 139.8 69.0586 81.5 84.1586L81.3 83.1586C139.7 68.0586 188.1 64.2586 242.8 70.4586C258.7 72.2586 274.7 72.8586 290.2 73.5586C295.6 73.7586 301.2 73.9586 306.7 74.2586C335.7 75.6586 354.9 86.6586 377 100.859L376.5 101.759Z" fill="white"/>
<path d="M373.6 119.059C349.8 102.259 332.9 93.3585 306.3 90.9585C281.4 88.7585 262.8 85.5585 244.2 80.5585C223 74.7585 203.8 69.9585 183.3 69.0585C153.6 67.8585 124.1 77.3585 95.5 86.6585C90.6 88.2585 85.5 89.8585 80.5 91.4585L80.2 90.4585C85.1 88.9585 90.2 87.2585 95.2 85.6585C123.9 76.3585 153.5 66.8585 183.4 68.0585C204 68.8585 223.3 73.7585 244.5 79.5585C263 84.6585 281.5 87.7585 306.4 89.9585C333.2 92.3585 350.3 101.359 374.2 118.259L373.6 119.059Z" fill="white"/>
<path d="M370.8 135.959C347.1 118.059 332.1 109.459 305.9 106.259C283.4 103.459 266.1 98.6586 246.2 89.7586C228 81.5586 209.1 73.1586 188 71.7586C158.4 69.8586 126.8 81.8586 98.8 92.4586C92.1 94.9586 85.8 97.3586 79.5 99.6586L79.2 98.7586C85.4 96.5586 91.8 94.1586 98.4 91.6586C126.4 81.0586 158.2 68.9586 188 70.8586C209.3 72.1586 228.2 80.6586 246.6 88.8586C266.4 97.7586 283.6 102.459 306 105.259C332.4 108.559 347.5 117.159 371.3 135.159L370.8 135.959Z" fill="white"/>
<path d="M368.2 152.459C349.1 137.259 334.1 125.159 308.4 121.359C283.5 117.659 267.7 111.959 247.8 99.6586L245.6 98.2586C228.3 87.5586 210.5 76.4586 188.9 75.8586C159.2 75.0586 127.7 88.4586 99.8 100.259C92.1 103.559 84.9 106.559 77.7 109.359L77.3 108.459C84.4 105.659 91.7 102.659 99.4 99.3586C127.3 87.5586 159 74.1586 188.9 74.8586C210.7 75.4586 228.7 86.6586 246.1 97.4586L248.3 98.8586C268.1 111.159 283.8 116.759 308.5 120.459C334.4 124.359 349.6 136.459 368.8 151.759L368.2 152.459Z" fill="white"/>
<path d="M365.7 171.759L362.5 168.959C345.4 154.259 331.9 142.559 308.4 138.459C282.9 133.959 268.4 127.359 248.6 111.359L245.9 109.159C229.7 95.9586 213 82.3586 190.7 81.7586C160.3 80.9586 127.8 96.0586 99.1 109.459C90.6 113.359 82.6 117.059 74.9 120.359L74.5 119.459C82.2 116.259 90.2 112.559 98.7 108.559C127.5 95.1586 160.2 80.0586 190.8 80.7586C213.5 81.3586 230.3 95.0586 246.6 108.359L249.3 110.559C268.9 126.459 283.3 133.059 308.6 137.459C332.4 141.659 346 153.359 363.2 168.159L366.4 170.959L365.7 171.759Z" fill="white"/>
<path d="M365.3 188.759C362.6 186.459 360.1 184.159 357.6 181.859C341.9 167.659 329.5 156.459 306.3 153.559C280.6 150.359 266.2 140.559 248.8 123.559C231.7 106.959 214.1 89.7585 187.1 91.1585C156.2 92.7585 125.6 107.359 96.0999 121.459C87.2999 125.659 78.9999 129.659 70.7999 133.259L70.3999 132.359C78.5999 128.759 86.8999 124.859 95.6999 120.659C125.4 106.459 156 91.7585 187.1 90.2585C214.5 88.8585 232.3 106.259 249.5 122.959C266.8 139.859 281 149.559 306.4 152.659C329.9 155.559 342.4 166.859 358.3 181.159C360.8 183.359 363.3 185.659 366 188.059L365.3 188.759Z" fill="white"/>
<path d="M368.1 200.659C364.1 197.659 360.4 194.559 356.7 191.659C341.6 179.459 328.6 168.859 307.3 165.959C283.6 162.759 268 155.459 247.9 138.159C227.3 120.359 209.4 106.859 183.5 108.659C153.1 110.759 122.8 122.559 93.6 133.959C84.1 137.659 75.1 141.159 66.1 144.359L65.8 143.459C74.8 140.259 83.8 136.759 93.3 133.059C122.6 121.559 153 109.759 183.5 107.659C211.9 105.759 231.4 122.559 248.6 137.459C268.8 154.859 283.7 161.859 307.5 165.059C329.1 167.959 342.2 178.559 357.4 190.959C361 193.859 364.8 196.959 368.7 199.959L368.1 200.659Z" fill="white"/>
<path d="M373.1 210.859C367.7 207.659 362.7 204.259 357.8 200.959C342.7 190.759 328.4 181.259 308.4 178.659C283 175.459 266.6 169.059 245.7 154.359C224.5 139.359 204.6 127.159 177.1 129.059C147.6 131.059 118 139.059 89.4 146.859C79.9 149.459 70 152.159 60.4 154.559L60.2 153.559C69.8 151.159 79.7 148.459 89.2 145.859C117.9 138.059 147.5 129.959 177.1 127.959C204.9 126.059 224.9 138.359 246.3 153.459C267 168.059 283.3 174.359 308.5 177.559C328.7 180.159 343.1 189.759 358.3 199.959C363.2 203.259 368.2 206.559 373.5 209.859L373.1 210.859Z" fill="white"/>
<path d="M380.8 220.059C373.9 216.959 367.3 213.659 360.9 210.359C344.5 201.959 329.1 194.059 309.8 191.859C283.5 188.959 264.9 183.059 243.3 170.759C217.2 155.959 196.8 147.659 170.1 148.959C141.7 150.359 112.9 154.559 85 158.559C75.1 159.959 64.9 161.459 54.8 162.759L54.7 161.759C64.7 160.459 75 158.959 84.9 157.559C112.8 153.559 141.6 149.459 170.1 147.959C199.8 146.459 221.9 157.459 243.8 169.859C265.3 182.059 283.8 187.959 310 190.859C329.4 193.059 345 200.959 361.4 209.459C367.8 212.759 374.4 216.159 381.2 219.159L380.8 220.059Z" fill="white"/>
<path d="M390.3 227.959C382.9 225.559 375.5 222.959 368.4 220.359C348.6 213.159 329.9 206.359 308.7 205.159C285.1 203.759 265.2 198.959 240.2 188.359C191.1 167.659 140.5 168.659 87 169.759C74.5 169.959 61.7 170.259 49 170.159V169.159C61.7 169.259 74.6 168.959 87 168.759C138.3 167.759 191.3 166.759 240.6 187.459C265.6 197.959 285.3 202.859 308.8 204.159C330.1 205.359 349.7 212.559 368.7 219.459C375.8 222.059 383.2 224.759 390.6 227.059L390.3 227.959Z" fill="white"/>
<path d="M401.2 235.359C391.8 233.559 382.2 231.359 373.1 229.259C354.6 224.959 335.5 220.559 316.1 219.359C292.2 217.959 266.1 215.359 237 206.759C211.6 199.259 186.9 195.059 157.1 193.059C130.7 191.359 104.2 185.759 78.5999 180.359C67.0999 177.959 55.0999 175.459 43.3999 173.359L43.5999 172.359C55.2999 174.459 67.2999 176.959 78.7999 179.459C104.4 184.859 130.8 190.359 157.2 192.159C187.1 194.159 211.9 198.359 237.3 205.859C266.3 214.459 292.3 216.959 316.2 218.359C335.7 219.559 354.8 223.959 373.4 228.259C382.6 230.359 392.1 232.559 401.5 234.359L401.2 235.359Z" fill="white"/>
<path d="M412.3 243.259C400.9 242.159 389.4 240.759 378.3 239.359C357.7 236.759 336.4 234.159 315.3 233.759C287.3 233.359 260.7 230.659 233.8 225.559C217.7 222.559 201.3 221.059 185.5 219.759C172.4 218.659 158.8 217.459 145.5 215.359C121.1 211.559 97.3999 202.159 74.4999 193.059C62.4999 188.359 50.0999 183.359 37.8999 179.359L38.1999 178.359C50.4999 182.359 62.8999 187.259 74.7999 192.059C97.5999 201.159 121.3 210.459 145.5 214.259C158.8 216.359 172.3 217.559 185.4 218.659C201.3 220.059 217.7 221.459 233.8 224.459C260.6 229.459 287.2 232.159 315.1 232.559C336.3 232.859 357.6 235.559 378.2 238.159C389.3 239.559 400.9 240.959 412.2 242.059L412.3 243.259Z" fill="white"/>
<path d="M421.9 252.759C407.5 252.359 392.8 251.959 378.5 251.659C330 250.559 279.8 249.359 230.9 244.659C220.1 243.659 208.6 243.259 197.4 242.959C177.3 242.359 156.5 241.759 137.9 237.159C114.2 231.359 92.3999 218.359 71.3999 205.959C58.8999 198.459 45.9999 190.759 32.8999 184.759L33.2999 183.859C46.3999 189.859 59.3999 197.559 71.8999 204.959C92.8999 217.459 114.6 230.259 138.2 236.059C156.7 240.659 177.4 241.259 197.5 241.759C208.7 242.059 220.3 242.459 231.1 243.459C280 248.159 330.1 249.359 378.6 250.459C392.8 250.759 407.5 251.159 422 251.559L421.9 252.759Z" fill="white"/>
<path d="M174.5 266.759C160.8 266.759 147.4 265.759 135.4 262.159C111 254.859 89.9999 237.859 69.5999 221.459C56.3999 210.859 42.8 199.859 28.7 191.859L29.2 190.959C43.4 198.959 57.1 209.959 70.3 220.659C90.6 237.059 111.6 253.959 135.8 261.259C155.9 267.259 179.8 266.059 203 264.859C212.3 264.359 221 263.959 229.4 263.959C280.7 264.059 332.9 264.059 383.3 264.059H428.9V265.059H383.3C332.9 265.059 280.7 265.059 229.4 264.959C221.1 264.959 212.3 265.359 203.1 265.859C193.4 266.259 183.9 266.759 174.5 266.759Z" fill="white"/>
<path d="M172.2 283.259C158.7 283.259 145.5 282.059 133.3 278.259C110.6 271.259 90.5 257.159 71 243.459C56.2 233.059 40.8 222.259 24.5 214.859L24.9 213.959C41.3 221.459 56.6 232.259 71.5 242.659C90.9 256.259 111 270.359 133.5 277.259C156.6 284.359 183.2 282.259 208.9 280.259C215 279.759 220.8 279.359 226.5 278.959C273 276.259 320.2 277.759 365.8 279.259C387.8 279.959 410.6 280.659 433 280.959V281.959C410.6 281.759 387.8 280.959 365.8 280.259C320.2 278.759 273.1 277.259 226.6 279.959C220.9 280.259 215.1 280.759 209 281.259C196.7 282.359 184.3 283.259 172.2 283.259Z" fill="white"/>
<path d="M161.2 299.459C150 299.459 138.9 298.259 128.2 294.959C108.7 288.959 90.6001 278.959 73.1001 269.359C56.2001 260.059 38.8001 250.459 20.1001 244.359L20.4001 243.359C39.2001 249.459 56.7001 259.059 73.6001 268.359C91.1001 277.959 109.1 287.959 128.5 293.859C158.6 303.059 192.4 296.159 219.6 290.559C271.4 279.959 320.6 285.559 372.7 291.659C393.6 294.059 415.2 296.559 436.7 297.859L436.6 298.859C415 297.559 393.4 295.059 372.5 292.659C320.5 286.659 271.4 280.959 219.7 291.559C202.1 295.259 181.6 299.459 161.2 299.459Z" fill="white"/>
<path d="M151 316.759C142.6 316.759 134.3 315.759 126 313.759C108.3 309.459 91.1999 302.759 74.5999 296.159C55.5999 288.659 35.9999 280.859 15.3999 276.859L15.5999 275.859C36.2999 279.859 55.9999 287.659 74.9999 295.259C91.4999 301.859 108.6 308.559 126.2 312.859C152.8 319.259 179 315.459 211.2 300.459C263.6 276.159 319.1 289.259 372.9 301.959C395.2 307.259 418.3 312.659 440.7 315.359L440.6 316.359C418.1 313.759 395 308.259 372.7 302.959C319.2 290.259 263.8 277.159 211.7 301.359C189.3 311.659 169.8 316.759 151 316.759Z" fill="white"/>
<path d="M143.3 335.659C138.1 335.659 132.7 335.259 126.9 334.559C109.3 332.459 91.8001 328.459 74.9001 324.559C54.1001 319.759 32.6 314.859 10.8 313.459L10.9001 312.459C32.8001 313.859 54.4 318.759 75.2 323.559C92.1 327.459 109.6 331.459 127.1 333.559C158.8 337.359 179.4 331.159 203.3 310.659C228.1 289.359 248.8 283.759 279.7 289.859C305.7 294.959 331.4 303.059 356.2 310.859C385.1 319.959 415 329.359 445.5 334.159L445.3 335.159C414.7 330.359 384.8 320.959 355.9 311.859C331.1 304.059 305.4 296.059 279.5 290.859C249 284.859 228.5 290.459 203.9 311.459C184.1 328.359 166.5 335.659 143.3 335.659Z" fill="white"/>
<path d="M134.9 355.959C132.5 355.959 130 355.959 127.5 355.859C110.7 355.259 93.6 353.859 77.2 352.459C53.8 350.459 29.5 348.459 5.5 348.859V347.859C29.6 347.459 53.8 349.559 77.3 351.459C93.8 352.859 110.8 354.259 127.6 354.859C158.7 355.959 176.9 351.459 196.6 323.359C217.2 293.959 237.1 287.559 275.8 298.059C300.1 304.659 324.1 313.859 347.3 322.659C380.5 335.359 414.9 348.459 450.8 354.259L450.6 355.259C414.6 349.459 380.2 336.259 346.9 323.559C323.7 314.759 299.8 305.559 275.5 298.959C237.4 288.559 217.7 294.859 197.4 323.859C179.2 349.859 161.5 355.959 134.9 355.959Z" fill="white"/>
<path d="M144.4 376.959C140.5 376.959 136.7 376.759 132.9 376.659C128.9 376.459 125.2 376.359 121.6 376.359C107.1 376.359 92.7 376.359 78.2 376.359C52.6 376.359 26.1 376.359 0 376.359V375.359C26.1 375.359 52.6 375.359 78.2 375.359C93 375.359 107.7 375.359 122.5 375.359C125.8 375.359 129.3 375.459 133 375.659C145.5 376.159 159.6 376.759 170.5 371.059C181.2 365.459 186.7 354.459 192 343.859C192.6 342.759 193.1 341.659 193.7 340.559C212.6 303.359 234.4 301.559 270.4 311.659C295.6 318.659 320.2 329.359 344.1 339.759C379.9 355.259 416.8 371.259 456.1 375.359L456 376.359C416.6 372.359 379.5 356.259 343.7 340.659C319.9 330.359 295.2 319.659 270.1 312.559C224.9 299.959 209.2 312.159 194.6 340.959C194 342.059 193.5 343.159 192.9 344.259C187.5 355.059 181.9 366.159 171 371.959C163.1 376.059 153.7 376.959 144.4 376.959Z" fill="white"/>
</svg>
