<svg width="333" height="352" viewBox="0 0 333 352" fill="none" xmlns="http://www.w3.org/2000/svg">
<mask id="mask0_201_585" style="mask-type:luminance" maskUnits="userSpaceOnUse" x="0" y="158" width="240" height="194">
<path d="M47.9797 351.9L1.17969 181.9C-3.72031 164 7.57969 154.8 35.0797 159.5C81.8797 167.4 157.78 212 204.68 259.1C244.28 298.9 250.48 327.8 223.18 331.1C170.58 337.3 100.58 345.6 47.9797 351.9Z" fill="white"/>
</mask>
<g mask="url(#mask0_201_585)">
<path d="M45.5796 352.7L204.78 258.4L205.08 258.7C232.58 286.4 245.18 310.3 238.68 322.8C234.48 330.9 222.78 333.7 204.78 330.6L45.5796 352.7ZM204.58 259.7L50.3796 351.1L204.78 329.7H204.88C222.38 332.6 233.78 330.1 237.78 322.4C243.98 310.3 231.58 286.9 204.58 259.7Z" fill="white"/>
<path d="M235.889 325.123L47.9297 351.448L48.0684 352.439L236.027 326.114L235.889 325.123Z" fill="white"/>
<path d="M235.721 299.657L47.818 351.384L48.0834 352.348L235.986 300.621L235.721 299.657Z" fill="white"/>
<path d="M47.5796 352.7L47.4796 351.9L34.5796 158.9L35.1796 159C81.9796 166.9 158.18 211.6 205.08 258.7L205.58 259.2L204.98 259.5L47.5796 352.7ZM35.6796 160.1L48.4796 351.1L203.88 259C157.28 212.3 82.1796 168.2 35.6796 160.1Z" fill="white"/>
<path d="M149.896 213.749L47.5802 351.625L48.3832 352.22L150.699 214.345L149.896 213.749Z" fill="white"/>
<path d="M88.9389 178.261L47.4788 351.773L48.4514 352.005L89.9115 178.494L88.9389 178.261Z" fill="white"/>
<path d="M47.4796 351.9L34.6796 230.8C7.27963 203.2 -5.32037 179.3 1.17963 166.8C5.37963 158.6 17.1796 155.9 35.1796 159L35.5796 159.1L48.4796 351.9H47.4796ZM22.1796 158.8C11.8796 158.8 5.07963 161.7 2.17963 167.3C-4.02037 179.4 8.47963 202.9 35.6796 230.2L35.7796 230.3L45.8796 325.7L34.7796 159.9C29.9796 159.2 25.8796 158.8 22.1796 158.8Z" fill="white"/>
<path d="M4.42428 163.834L3.45068 164.062L47.5126 351.967L48.4862 351.739L4.42428 163.834Z" fill="white"/>
</g>
<mask id="mask1_201_585" style="mask-type:luminance" maskUnits="userSpaceOnUse" x="0" y="158" width="240" height="194">
<path d="M47.9797 351.9L1.17969 181.9C-3.72031 164 7.57969 154.8 35.0797 159.5C81.8797 167.4 157.78 212 204.68 259.1C244.28 298.9 250.48 327.8 223.18 331.1C170.58 337.3 100.58 345.6 47.9797 351.9Z" fill="white"/>
</mask>
<g mask="url(#mask1_201_585)">
<path d="M47.5796 352.4L47.4796 352L0.679638 182C-1.42036 174.2 -0.620362 168.2 3.17964 163.9C8.47964 158 19.5796 156.3 35.1796 158.9C81.9796 166.8 158.18 211.5 205.08 258.6C231.48 285.2 244.08 307.9 239.48 320.9C237.38 326.9 231.98 330.4 223.28 331.5L47.5796 352.4ZM22.1796 158.8C13.5796 158.8 7.37963 160.8 3.87963 164.7C0.279635 168.6 -0.420361 174.4 1.57964 181.8L48.2796 351.4L222.98 330.6C231.28 329.6 236.48 326.3 238.38 320.7C242.78 308.1 230.28 285.7 204.18 259.5C157.48 212.5 81.4796 167.9 34.8796 160.1C30.2796 159.2 26.0796 158.8 22.1796 158.8Z" fill="white"/>
</g>
<mask id="mask2_201_585" style="mask-type:luminance" maskUnits="userSpaceOnUse" x="35" y="230" width="189" height="122">
<path d="M223.18 331L47.9797 351.8L35.1797 230.6C82.0797 277.7 157.98 322.3 204.78 330.2C211.98 331.4 218.18 331.6 223.18 331Z" fill="white"/>
</mask>
<g mask="url(#mask2_201_585)">
<path d="M47.5797 352.5L47.4797 352L34.5797 229.3L35.5797 230.3C82.2797 277.3 158.28 321.9 204.88 329.7L208.08 330.2L47.5797 352.5ZM35.8797 231.9L48.4797 351.3L201.68 330.1C154.98 320.9 81.7797 277.7 35.8797 231.9Z" fill="white"/>
<path d="M89.1305 275.29L47.575 351.614L48.4533 352.092L90.0088 275.768L89.1305 275.29Z" fill="white"/>
<path d="M150.191 310.813L47.7708 351.477L48.1398 352.406L150.56 311.742L150.191 310.813Z" fill="white"/>
<path d="M45.5797 352.7L204.78 258.4L205.08 258.7C232.58 286.4 245.18 310.3 238.68 322.8C234.48 330.9 222.78 333.7 204.78 330.6L45.5797 352.7ZM204.58 259.7L50.3797 351.1L204.78 329.7H204.88C222.38 332.6 233.78 330.1 237.78 322.4C243.98 310.3 231.58 286.9 204.58 259.7Z" fill="white"/>
</g>
<mask id="mask3_201_585" style="mask-type:luminance" maskUnits="userSpaceOnUse" x="35" y="230" width="189" height="122">
<path d="M223.18 331L47.9797 351.8L35.1797 230.6C82.0797 277.7 157.98 322.3 204.78 330.2C211.98 331.4 218.18 331.6 223.18 331Z" fill="white"/>
</mask>
<g mask="url(#mask3_201_585)">
<path d="M47.5797 352.4L47.4797 351.9L34.5797 229.2L35.5797 230.2C82.2797 277.2 158.28 321.8 204.88 329.6C211.98 330.8 218.08 331.1 223.08 330.5L223.18 331.5L47.5797 352.4ZM35.8797 231.9L48.4797 351.3L213.48 331.7C210.78 331.5 207.88 331.2 204.78 330.6C158.18 322.8 82.7797 278.7 35.8797 231.9Z" fill="white"/>
</g>
<mask id="mask4_201_585" style="mask-type:luminance" maskUnits="userSpaceOnUse" x="1" y="181" width="47" height="171">
<path d="M47.9797 351.9L1.17969 181.9C4.57969 194.4 15.9797 211.2 35.1797 230.6L47.9797 351.9Z" fill="white"/>
</mask>
<g mask="url(#mask4_201_585)">
<path d="M47.4796 351.9L34.6796 230.8C7.27963 203.2 -5.32037 179.3 1.17963 166.8C5.37963 158.6 17.1796 155.9 35.1796 159L35.5796 159.1L48.4796 351.9H47.4796ZM22.1796 158.8C11.8796 158.8 5.07963 161.7 2.17963 167.3C-4.02037 179.4 8.47963 202.9 35.6796 230.2L35.7796 230.3L45.8796 325.7L34.7796 159.9C29.9796 159.2 25.8796 158.8 22.1796 158.8Z" fill="white"/>
<path d="M4.45409 189.303L3.48889 189.565L47.533 352.008L48.4982 351.747L4.45409 189.303Z" fill="white"/>
</g>
<mask id="mask5_201_585" style="mask-type:luminance" maskUnits="userSpaceOnUse" x="1" y="181" width="47" height="171">
<path d="M47.9797 351.9L1.17969 181.9C4.57969 194.4 15.9797 211.2 35.1797 230.6L47.9797 351.9Z" fill="white"/>
</mask>
<g mask="url(#mask5_201_585)">
<path d="M47.4797 352L0.679688 182L1.67969 181.7C5.27969 194.7 16.9797 211.4 35.5797 230.1L35.6797 230.2V230.4L48.4797 351.7L47.4797 352ZM4.27969 191.3L46.8797 345.9L34.7797 230.8C20.1797 216.2 9.77969 202.7 4.27969 191.3Z" fill="white"/>
</g>
<mask id="mask6_201_585" style="mask-type:luminance" maskUnits="userSpaceOnUse" x="2" y="89" width="285" height="235">
<path d="M237.48 323.8C245.18 312.4 234.18 288.7 204.68 259C157.78 211.9 81.8796 167.3 35.0796 159.4C17.7796 156.5 6.87964 159 2.37964 165.7L48.5796 96.9001C53.0796 90.2001 63.9796 87.7001 81.2796 90.6001C128.08 98.5001 203.98 143.1 250.88 190.2C280.38 219.9 291.38 243.6 283.68 255C269.88 275.7 251.38 303.2 237.48 323.8Z" fill="white"/>
</mask>
<g mask="url(#mask6_201_585)">
<path d="M217.68 331.9C213.78 331.9 209.48 331.5 204.68 330.7L203.88 330.6L230.38 291.2C224.48 281.7 215.68 270.9 204.28 259.5L203.98 259.2L204.18 258.9L250.78 189.6L251.18 190C278.68 217.7 291.28 241.6 284.78 254.1C280.58 262.2 268.98 264.9 251.18 262L231.48 291.3C239.68 304.7 242.28 315.7 238.58 322.9C235.58 328.8 228.38 331.9 217.68 331.9ZM205.68 329.8C222.78 332.5 233.88 330 237.78 322.4C241.28 315.5 238.78 305 230.98 292.1L205.68 329.8ZM205.28 259C216.38 270.2 225.08 280.8 230.98 290.2L250.78 260.7L251.08 260.8C268.58 263.7 279.98 261.2 283.98 253.5C290.18 241.5 277.88 218.2 250.98 191L205.28 259Z" fill="white"/>
<path d="M281.769 231.156L235.486 299.93L236.315 300.488L282.599 231.714L281.769 231.156Z" fill="white"/>
<path d="M204.78 259.8L204.38 259.4C157.68 212.4 81.6797 167.8 35.0797 160L34.2797 159.9L81.1797 90.2002L81.4797 90.3002C128.28 98.2002 204.48 142.9 251.38 190L251.68 190.3L204.78 259.8ZM35.9797 159.1C82.6797 167.3 157.98 211.6 204.68 258.3L250.38 190.3C203.78 143.5 128.28 99.2002 81.6797 91.2002L35.9797 159.1Z" fill="white"/>
<path d="M196.081 144.899L149.855 213.715L150.686 214.272L196.911 145.457L196.081 144.899Z" fill="white"/>
<path d="M135.231 109.241L89.0057 178.057L89.8358 178.614L136.061 109.799L135.231 109.241Z" fill="white"/>
<path d="M35.2797 231.4L34.8797 231C7.37969 203.3 -5.22031 179.4 1.27969 166.9C5.47969 158.8 17.0797 156.1 34.8797 159L54.5797 129.7C46.3797 116.3 43.7797 105.3 47.4797 98.1002C51.6797 89.9002 63.4797 87.2002 81.4797 90.3002L82.2797 90.4002L55.7797 129.8C61.6797 139.3 70.4797 150.1 81.8797 161.5L82.1797 161.8L35.2797 231.4ZM22.1797 158.8C11.8797 158.8 5.07969 161.7 2.17969 167.3C-4.02031 179.3 8.2797 202.6 35.1797 229.8L80.8797 161.8C69.7797 150.6 61.0797 140 55.1797 130.6L35.2797 160L34.9797 159.9C30.2797 159.2 25.9797 158.8 22.1797 158.8ZM68.3797 90.0002C58.0797 90.0002 51.2797 92.9002 48.3797 98.5002C44.8797 105.4 47.3797 115.9 55.1797 128.8L80.5797 91.1002C76.0797 90.3002 71.9797 90.0002 68.3797 90.0002Z" fill="white"/>
<path d="M49.6993 94.8224L3.47424 163.638L4.30434 164.195L50.5294 95.38L49.6993 94.8224Z" fill="white"/>
</g>
<mask id="mask7_201_585" style="mask-type:luminance" maskUnits="userSpaceOnUse" x="2" y="89" width="285" height="235">
<path d="M237.48 323.8C245.18 312.4 234.18 288.7 204.68 259C157.78 211.9 81.8796 167.3 35.0796 159.4C17.7796 156.5 6.87964 159 2.37964 165.7L48.5796 96.9001C53.0796 90.2001 63.9796 87.7001 81.2796 90.6001C128.08 98.5001 203.98 143.1 250.88 190.2C280.38 219.9 291.38 243.6 283.68 255C269.88 275.7 251.38 303.2 237.48 323.8Z" fill="white"/>
</mask>
<g mask="url(#mask7_201_585)">
<path d="M237.88 324.1L237.08 323.5C244.88 311.8 232.68 287.8 204.38 259.3C157.68 212.3 81.6796 167.7 35.0796 159.9C18.5796 157.1 7.47959 159.2 2.87959 166L2.07959 165.4L48.2796 96.6002C53.0796 89.5002 64.5796 87.2002 81.4796 90.1002C128.28 98.0002 204.48 142.7 251.38 189.8C280.08 218.7 292.38 243.1 284.28 255.2L237.88 324.1ZM22.1796 157.8C26.0796 157.8 30.3796 158.2 35.0796 159C81.8796 166.9 158.08 211.6 204.98 258.7C230.28 284.1 242.78 306.1 239.88 319.3L283.28 254.8C291.08 243.1 278.88 219.1 250.58 190.6C203.88 143.6 127.88 99.0002 81.2796 91.2002C64.7796 88.4002 53.6796 90.5002 49.0796 97.3002L5.67959 161.9C9.47959 159.1 15.0796 157.8 22.1796 157.8Z" fill="white"/>
</g>
<mask id="mask8_201_585" style="mask-type:luminance" maskUnits="userSpaceOnUse" x="35" y="161" width="249" height="171">
<path d="M283.68 255L237.48 323.8C232.98 330.5 222.08 333 204.78 330.1C157.98 322.2 82.0797 277.6 35.1797 230.5L81.3797 161.7C128.28 208.8 204.18 253.4 250.98 261.3C268.28 264.2 279.18 261.7 283.68 255Z" fill="white"/>
</mask>
<g mask="url(#mask8_201_585)">
<path d="M204.98 330.7L204.68 330.6C157.88 322.7 81.6797 278 34.7797 230.9L34.4797 230.6L81.2797 160.9L81.6797 161.3C128.38 208.3 204.38 252.9 250.98 260.7L251.78 260.8L204.98 330.7ZM35.8797 230.5C82.4797 277.3 157.98 321.6 204.58 329.6L250.18 261.7C203.48 253.5 128.18 209.2 81.4797 162.5L35.8797 230.5Z" fill="white"/>
<path d="M135.453 206.522L89.1704 275.296L90 275.854L136.283 207.08L135.453 206.522Z" fill="white"/>
<path d="M196.248 242.267L149.965 311.041L150.795 311.599L197.078 242.825L196.248 242.267Z" fill="white"/>
<path d="M217.68 331.9C213.78 331.9 209.48 331.5 204.68 330.7L203.88 330.6L230.38 291.2C224.48 281.7 215.68 270.9 204.28 259.5L203.98 259.2L204.18 258.9L250.78 189.6L251.18 190C278.68 217.7 291.28 241.6 284.78 254.1C280.58 262.2 268.98 264.9 251.18 262L231.48 291.3C239.68 304.7 242.28 315.7 238.58 322.9C235.58 328.8 228.38 331.9 217.68 331.9ZM205.68 329.8C222.78 332.5 233.88 330 237.78 322.4C241.28 315.5 238.78 305 230.98 292.1L205.68 329.8ZM205.28 259C216.38 270.2 225.08 280.8 230.98 290.2L250.78 260.7L251.08 260.8C268.58 263.7 279.98 261.2 283.98 253.5C290.18 241.5 277.88 218.2 250.98 191L205.28 259Z" fill="white"/>
<path d="M281.837 256.608L235.554 325.381L236.383 325.94L282.666 257.166L281.837 256.608Z" fill="white"/>
</g>
<mask id="mask9_201_585" style="mask-type:luminance" maskUnits="userSpaceOnUse" x="35" y="161" width="249" height="171">
<path d="M283.68 255L237.48 323.8C232.98 330.5 222.08 333 204.78 330.1C157.98 322.2 82.0797 277.6 35.1797 230.5L81.3797 161.7C128.28 208.8 204.18 253.4 250.98 261.3C268.28 264.2 279.18 261.7 283.68 255Z" fill="white"/>
</mask>
<g mask="url(#mask9_201_585)">
<path d="M217.68 331.8C213.78 331.8 209.48 331.4 204.78 330.6C157.98 322.7 81.7797 278 34.8797 230.9L34.5797 230.6L81.3797 160.9L81.7797 161.3C128.48 208.3 204.48 252.9 251.08 260.7C267.58 263.5 278.68 261.4 283.28 254.6L284.08 255.2L237.88 324C234.48 329.2 227.58 331.8 217.68 331.8ZM35.8797 230.5C82.5797 277.4 158.38 321.8 204.88 329.7C221.38 332.5 232.48 330.4 237.08 323.6L280.48 259C274.58 263.1 264.48 264.1 250.98 261.8C204.28 254 128.48 209.5 81.5797 162.5L35.8797 230.5Z" fill="white"/>
</g>
<mask id="mask10_201_585" style="mask-type:luminance" maskUnits="userSpaceOnUse" x="0" y="97" width="82" height="134">
<path d="M2.37969 165.8L48.5797 97C40.8797 108.4 51.8797 132.1 81.3797 161.8L35.1797 230.6C5.67969 200.9 -5.32031 177.2 2.37969 165.8Z" fill="white"/>
</mask>
<g mask="url(#mask10_201_585)">
<path d="M35.2797 231.4L34.8797 231C7.37969 203.3 -5.22031 179.4 1.27969 166.9C5.47969 158.8 17.0797 156.1 34.8797 159L54.5797 129.7C46.3797 116.3 43.7797 105.3 47.4797 98.1C51.6797 89.9 63.4797 87.2 81.4797 90.3L82.2797 90.4L55.7797 129.8C61.6797 139.3 70.4797 150.1 81.8797 161.5L82.1797 161.8L35.2797 231.4ZM22.1797 158.8C11.8797 158.8 5.07969 161.7 2.17969 167.3C-4.02031 179.3 8.2797 202.6 35.1797 229.8L80.8797 161.8C69.7797 150.6 61.0797 140 55.1797 130.6L35.2797 160L34.9797 159.9C30.2797 159.2 25.9797 158.8 22.1797 158.8ZM68.3797 90C58.0797 90 51.2797 92.9 48.3797 98.5C44.8797 105.4 47.3797 115.9 55.1797 128.8L80.5797 91.1C76.0797 90.3 71.9797 90 68.3797 90Z" fill="white"/>
<path d="M49.7126 120.356L3.48755 189.171L4.31765 189.729L50.5427 120.914L49.7126 120.356Z" fill="white"/>
</g>
<mask id="mask11_201_585" style="mask-type:luminance" maskUnits="userSpaceOnUse" x="0" y="97" width="82" height="134">
<path d="M2.37969 165.8L48.5797 97C40.8797 108.4 51.8797 132.1 81.3797 161.8L35.1797 230.6C5.67969 200.9 -5.32031 177.2 2.37969 165.8Z" fill="white"/>
</mask>
<g mask="url(#mask11_201_585)">
<path d="M35.2797 231.4L34.8797 231C6.17965 202.1 -6.12034 177.7 1.97966 165.6L48.1797 96.8L48.9797 97.4C41.1797 109.1 53.3797 133.1 81.6797 161.6L81.9797 161.9L35.2797 231.4ZM2.77966 166.1C-5.02034 177.7 7.07966 201.5 35.0797 229.8L80.7797 161.8C55.6797 136.5 43.2797 114.6 46.1797 101.5L2.77966 166.1Z" fill="white"/>
</g>
<mask id="mask12_201_585" style="mask-type:luminance" maskUnits="userSpaceOnUse" x="48" y="20" width="285" height="235">
<path d="M283.68 255C291.38 243.6 280.38 219.9 250.88 190.2C203.98 143.1 128.08 98.5001 81.2797 90.6001C63.9797 87.7001 53.0797 90.2001 48.5797 96.9001L94.7797 28.1001C99.2797 21.4001 110.18 18.9001 127.48 21.8001C174.28 29.7001 250.18 74.3001 297.08 121.4C326.58 151.1 337.58 174.8 329.88 186.2C316.08 206.9 297.58 234.4 283.68 255Z" fill="white"/>
</mask>
<g mask="url(#mask12_201_585)">
<path d="M263.98 263C260.08 263 255.78 262.6 250.98 261.8L250.18 261.7L276.68 222.3C270.78 212.8 261.98 202 250.58 190.6L250.28 190.3L297.08 120.6L297.48 121C324.98 148.7 337.58 172.6 331.08 185.1C326.88 193.2 315.28 195.9 297.48 193L277.78 222.3C285.98 235.7 288.58 246.7 284.88 253.9C281.78 260 274.68 263 263.98 263ZM251.88 261C268.98 263.7 280.08 261.2 283.98 253.6C287.48 246.7 284.98 236.2 277.18 223.3L251.88 261ZM251.58 190.2C262.68 201.4 271.38 212 277.28 221.5L297.08 192.1L297.38 192.2C314.88 195.1 326.28 192.6 330.28 184.9C336.48 172.9 324.18 149.6 297.28 122.4L251.58 190.2Z" fill="white"/>
<path d="M328.03 162.258L281.805 231.073L282.635 231.631L328.86 162.816L328.03 162.258Z" fill="white"/>
<path d="M250.98 191L250.58 190.6C203.88 143.6 127.88 99.0001 81.2797 91.2001L80.4797 91.1002L127.38 21.4001L127.68 21.5001C174.48 29.4001 250.68 74.1001 297.58 121.2L297.88 121.5L250.98 191ZM82.1797 90.3001C128.88 98.5001 204.18 142.8 250.88 189.5L296.58 121.5C249.98 74.7001 174.48 30.4001 127.88 22.4001L82.1797 90.3001Z" fill="white"/>
<path d="M242.308 76.131L196.083 144.946L196.913 145.504L243.138 76.6886L242.308 76.131Z" fill="white"/>
<path d="M181.514 40.39L135.289 109.205L136.119 109.763L182.344 40.9476L181.514 40.39Z" fill="white"/>
<path d="M81.4798 162.5L81.0798 162.1C53.5798 134.4 40.9798 110.5 47.4798 98.0001C51.6798 89.9001 63.2798 87.2001 81.0798 90.1001L100.78 60.8001C92.5798 47.4001 89.9798 36.4001 93.6798 29.2001C97.8798 21.0001 109.68 18.3001 127.68 21.4001L128.48 21.5001L101.98 60.9001C107.88 70.4001 116.68 81.2001 128.08 92.6001L128.38 92.9001L81.4798 162.5ZM68.3798 90.0001C58.0798 90.0001 51.2798 92.9001 48.3798 98.5001C42.1798 110.5 54.4798 133.8 81.3798 161L127.08 93.0001C115.98 81.8001 107.28 71.2001 101.38 61.7001L81.5798 91.1001L81.2798 91.0001C76.4798 90.4001 72.1798 90.0001 68.3798 90.0001ZM114.58 21.2001C104.28 21.2001 97.4798 24.1001 94.5798 29.7001C91.0798 36.6001 93.5798 47.1001 101.38 60.0001L126.78 22.3001C122.28 21.5001 118.28 21.2001 114.58 21.2001Z" fill="white"/>
<path d="M95.9269 26.0541L49.7019 94.8694L50.532 95.427L96.757 26.6117L95.9269 26.0541Z" fill="white"/>
</g>
<mask id="mask13_201_585" style="mask-type:luminance" maskUnits="userSpaceOnUse" x="48" y="20" width="285" height="235">
<path d="M283.68 255C291.38 243.6 280.38 219.9 250.88 190.2C203.98 143.1 128.08 98.5001 81.2797 90.6001C63.9797 87.7001 53.0797 90.2001 48.5797 96.9001L94.7797 28.1001C99.2797 21.4001 110.18 18.9001 127.48 21.8001C174.28 29.7001 250.18 74.3001 297.08 121.4C326.58 151.1 337.58 174.8 329.88 186.2C316.08 206.9 297.58 234.4 283.68 255Z" fill="white"/>
</mask>
<g mask="url(#mask13_201_585)">
<path d="M284.18 255.3L283.38 254.7C291.18 243 278.98 219 250.68 190.5C203.98 143.5 127.98 98.9002 81.3798 91.1002C64.8798 88.3002 53.7798 90.4002 49.1798 97.2002L48.3798 96.6002L94.5798 27.8002C99.3798 20.7002 110.88 18.4002 127.78 21.3002C174.58 29.2002 250.78 73.9002 297.68 121C326.38 149.9 338.68 174.3 330.58 186.4L284.18 255.3ZM68.4798 89.0002C72.3798 89.0002 76.6798 89.4002 81.3798 90.2002C128.18 98.1002 204.38 142.8 251.28 189.9C276.58 215.3 289.08 237.3 286.18 250.5L329.58 186C337.38 174.3 325.18 150.3 296.88 121.8C250.18 74.8002 174.18 30.2002 127.58 22.4002C111.08 19.6002 99.9798 21.7002 95.3798 28.5002L51.9798 93.0002C55.7798 90.3002 61.3798 89.0002 68.4798 89.0002Z" fill="white"/>
</g>
<mask id="mask14_201_585" style="mask-type:luminance" maskUnits="userSpaceOnUse" x="81" y="92" width="249" height="171">
<path d="M329.98 186.2L283.68 255C279.18 261.7 268.28 264.2 250.98 261.3C204.18 253.4 128.28 208.8 81.3796 161.7L127.58 92.8999C174.48 140 250.38 184.6 297.18 192.5C314.58 195.4 325.48 192.9 329.98 186.2Z" fill="white"/>
</mask>
<g mask="url(#mask14_201_585)">
<path d="M251.28 261.9L250.98 261.8C204.18 253.9 127.98 209.2 81.0797 162.1L80.7797 161.8L127.58 92.0999L127.98 92.4998C174.68 139.5 250.68 184.1 297.28 191.9L298.08 192L251.28 261.9ZM82.0797 161.7C128.68 208.5 204.18 252.8 250.78 260.8L296.38 192.9C249.68 184.7 174.38 140.4 127.68 93.6998L82.0797 161.7Z" fill="white"/>
<path d="M181.662 137.715L135.437 206.531L136.267 207.088L182.492 138.273L181.662 137.715Z" fill="white"/>
<path d="M242.512 173.373L196.287 242.188L197.117 242.746L243.342 173.931L242.512 173.373Z" fill="white"/>
<path d="M263.98 263C260.08 263 255.78 262.6 250.98 261.8L250.18 261.7L276.68 222.3C270.78 212.8 261.98 202 250.58 190.6L250.28 190.3L297.08 120.6L297.48 121C324.98 148.7 337.58 172.6 331.08 185.1C326.88 193.2 315.28 195.9 297.48 193L277.78 222.3C285.98 235.7 288.58 246.7 284.88 253.9C281.78 260 274.68 263 263.98 263ZM251.88 261C268.98 263.7 280.08 261.2 283.98 253.6C287.48 246.7 284.98 236.2 277.18 223.3L251.88 261ZM251.58 190.2C262.68 201.4 271.38 212 277.28 221.5L297.08 192.1L297.38 192.2C314.88 195.1 326.28 192.6 330.28 184.9C336.48 172.9 324.18 149.6 297.28 122.4L251.58 190.2Z" fill="white"/>
<path d="M328.069 187.84L281.786 256.614L282.616 257.172L328.899 188.398L328.069 187.84Z" fill="white"/>
</g>
<mask id="mask15_201_585" style="mask-type:luminance" maskUnits="userSpaceOnUse" x="81" y="92" width="249" height="171">
<path d="M329.98 186.2L283.68 255C279.18 261.7 268.28 264.2 250.98 261.3C204.18 253.4 128.28 208.8 81.3796 161.7L127.58 92.8999C174.48 140 250.38 184.6 297.18 192.5C314.58 195.4 325.48 192.9 329.98 186.2Z" fill="white"/>
</mask>
<g mask="url(#mask15_201_585)">
<path d="M263.88 263C259.98 263 255.68 262.6 250.98 261.8C204.18 253.9 127.98 209.2 81.0797 162.1L80.7797 161.8L127.58 92.0999L127.98 92.4998C174.68 139.5 250.68 184.1 297.28 191.9C313.78 194.7 324.88 192.6 329.48 185.8L330.28 186.4L284.18 255.3C280.68 260.4 273.78 263 263.88 263ZM82.0797 161.7C128.78 208.6 204.58 253 251.08 260.9C267.58 263.7 278.68 261.6 283.28 254.8L326.68 190.3C320.78 194.4 310.68 195.4 297.18 193.1C250.48 185.3 174.68 140.8 127.78 93.7999L82.0797 161.7Z" fill="white"/>
</g>
<mask id="mask16_201_585" style="mask-type:luminance" maskUnits="userSpaceOnUse" x="46" y="28" width="82" height="134">
<path d="M48.6796 97L94.8796 28.2C87.1796 39.6 98.1796 63.3 127.68 93L81.4796 161.8C51.8796 132 40.9796 108.4 48.6796 97Z" fill="white"/>
</mask>
<g mask="url(#mask16_201_585)">
<path d="M81.4796 162.5L81.0796 162.1C53.5796 134.4 40.9796 110.5 47.4796 98.0001C51.6796 89.9001 63.2796 87.2001 81.0796 90.1001L100.78 60.8001C92.5796 47.4001 89.9796 36.4001 93.6796 29.2001C97.8796 21.0001 109.68 18.3001 127.68 21.4001L128.48 21.5001L101.98 60.9001C107.88 70.4001 116.68 81.2001 128.08 92.6001L128.38 92.9001L81.4796 162.5ZM68.3796 90.0001C58.0796 90.0001 51.2796 92.9001 48.3796 98.5001C42.1796 110.5 54.4796 133.8 81.3796 161L127.08 93.0001C115.98 81.8001 107.28 71.2001 101.38 61.7001L81.5796 91.1001L81.2796 91.0001C76.4796 90.4001 72.1796 90.0001 68.3796 90.0001ZM114.58 21.2001C104.28 21.2001 97.4796 24.1001 94.5796 29.7001C91.0796 36.6001 93.5796 47.1001 101.38 60.0001L126.78 22.3001C122.28 21.5001 118.28 21.2001 114.58 21.2001Z" fill="white"/>
<path d="M95.996 51.505L49.771 120.32L50.6011 120.878L96.8261 52.0626L95.996 51.505Z" fill="white"/>
</g>
<mask id="mask17_201_585" style="mask-type:luminance" maskUnits="userSpaceOnUse" x="46" y="28" width="82" height="134">
<path d="M48.6796 97L94.8796 28.2C87.1796 39.6 98.1796 63.3 127.68 93L81.4796 161.8C51.8796 132 40.9796 108.4 48.6796 97Z" fill="white"/>
</mask>
<g mask="url(#mask17_201_585)">
<path d="M81.4796 162.5L81.0796 162.1C52.3796 133.2 40.0796 108.8 48.1796 96.6999L94.3796 27.8999L95.1796 28.4999C87.3796 40.1999 99.5796 64.0999 127.88 92.5999L128.18 92.8999L81.4796 162.5ZM48.6796 96.9999L49.0796 97.2999C41.2796 108.9 53.3796 132.7 81.3796 161L127.08 92.9999C101.98 67.6999 89.5796 45.7999 92.4796 32.6999L49.0796 97.1999L48.6796 96.9999Z" fill="white"/>
</g>
<mask id="mask18_201_585" style="mask-type:luminance" maskUnits="userSpaceOnUse" x="109" y="0" width="223" height="171">
<path d="M331.18 170.1C327.78 157.6 316.38 140.8 297.18 121.4C250.28 74.3 174.38 29.7 127.58 21.8C120.38 20.6 114.18 20.3 109.18 20.9C167.58 14 225.98 7 284.38 0C299.98 56.8 315.58 113.4 331.18 170.1Z" fill="white"/>
</mask>
<g mask="url(#mask18_201_585)">
<path d="M310.18 194.2C306.28 194.2 301.98 193.8 297.18 193L296.78 192.9L283.88 0.0999985L284.88 0L297.68 121.1C325.08 148.7 337.68 172.6 331.18 185.1C328.08 191.2 320.88 194.2 310.18 194.2ZM297.78 192.1C315.08 194.9 326.38 192.4 330.28 184.7C336.48 172.6 323.98 149.1 296.78 121.8L296.68 121.7L286.68 26.3L297.78 192.1Z" fill="white"/>
<path d="M284.861 0.0113492L283.896 0.272949L327.923 162.716L328.888 162.455L284.861 0.0113492Z" fill="white"/>
<path d="M297.78 122.8L296.78 121.8C250.08 74.8001 174.08 30.2001 127.48 22.4001L124.28 21.9001L284.78 -0.399902L284.88 0.100098L297.78 122.8ZM130.78 21.9001C177.48 31.1001 250.68 74.3001 296.58 120.1L283.98 0.700096L130.78 21.9001Z" fill="white"/>
<path d="M283.957 -0.0496124L242.332 76.2312L243.209 76.7102L284.834 0.429388L283.957 -0.0496124Z" fill="white"/>
<path d="M284.194 -0.396469L181.774 40.2673L182.143 41.1967L284.563 0.532931L284.194 -0.396469Z" fill="white"/>
<path d="M127.58 93.6001L127.28 93.3C99.7797 65.6001 87.1797 41.7 93.6797 29.2C97.8797 21.1 109.58 18.3 127.58 21.4L286.78 -0.699951L127.58 93.6001ZM114.58 21.2C104.28 21.2 97.4797 24.1 94.5797 29.7C88.3797 41.7 100.78 65.1 127.78 92.4L281.98 1.00005L127.58 22.4H127.48C122.78 21.5 118.48 21.2 114.58 21.2Z" fill="white"/>
</g>
<mask id="mask19_201_585" style="mask-type:luminance" maskUnits="userSpaceOnUse" x="109" y="0" width="223" height="171">
<path d="M331.18 170.1C327.78 157.6 316.38 140.8 297.18 121.4C250.28 74.3 174.38 29.7 127.58 21.8C120.38 20.6 114.18 20.3 109.18 20.9C167.58 14 225.98 7 284.38 0C299.98 56.8 315.58 113.4 331.18 170.1Z" fill="white"/>
</mask>
<g mask="url(#mask19_201_585)">
<path d="M330.68 170.2C327.08 157.2 315.38 140.5 296.78 121.8C250.08 74.8001 174.08 30.2001 127.48 22.4001C120.38 21.2001 114.28 20.9001 109.28 21.5001L109.18 20.5001L284.78 -0.399902L331.68 170L330.68 170.2ZM118.98 20.3001C121.68 20.5001 124.58 20.8001 127.68 21.4001C174.48 29.3001 250.68 74.0001 297.58 121.1C312.18 135.8 322.58 149.3 328.18 160.8L283.98 0.700096L118.98 20.3001Z" fill="white"/>
</g>
<mask id="mask20_201_585" style="mask-type:luminance" maskUnits="userSpaceOnUse" x="127" y="0" width="206" height="194">
<path d="M284.38 0.100098C299.98 56.8001 315.58 113.4 331.18 170.1C336.08 188 324.78 197.2 297.28 192.5C250.48 184.6 174.58 140 127.68 92.9001L284.38 0.100098Z" fill="white"/>
</mask>
<g mask="url(#mask20_201_585)">
<path d="M297.78 193.1L297.18 193C250.38 185.1 174.18 140.4 127.28 93.3L126.78 92.8L127.38 92.5L284.78 -0.699951L284.88 0.100044L297.78 193.1ZM128.48 93.1001C174.98 139.7 250.18 183.9 296.68 192L283.98 1.00005L128.48 93.1001Z" fill="white"/>
<path d="M283.94 -0.211275L181.624 137.664L182.427 138.26L284.743 0.384625L283.94 -0.211275Z" fill="white"/>
<path d="M283.89 0.00345182L242.407 173.613L243.38 173.845L284.863 0.235852L283.89 0.00345182Z" fill="white"/>
<path d="M310.18 194.2C306.28 194.2 301.98 193.8 297.18 193L296.78 192.9L283.88 0.0999985L284.88 0L297.68 121.1C325.08 148.7 337.68 172.6 331.18 185.1C328.08 191.2 320.88 194.2 310.18 194.2ZM297.78 192.1C315.08 194.9 326.38 192.4 330.28 184.7C336.48 172.6 323.98 149.1 296.78 121.8L296.68 121.7L286.68 26.3L297.78 192.1Z" fill="white"/>
<path d="M284.843 0.0378133L283.869 0.266113L327.954 188.268L328.928 188.04L284.843 0.0378133Z" fill="white"/>
</g>
<mask id="mask21_201_585" style="mask-type:luminance" maskUnits="userSpaceOnUse" x="127" y="0" width="206" height="194">
<path d="M284.38 0.100098C299.98 56.8001 315.58 113.4 331.18 170.1C336.08 188 324.78 197.2 297.28 192.5C250.48 184.6 174.58 140 127.68 92.9001L284.38 0.100098Z" fill="white"/>
</mask>
<g mask="url(#mask21_201_585)">
<path d="M310.08 194.2C306.18 194.2 301.88 193.8 297.18 193C250.38 185.1 174.18 140.4 127.28 93.3L126.78 92.8L127.38 92.5L284.68 -0.699951L331.68 169.9C333.78 177.7 332.98 183.7 329.18 187.9C325.48 192.1 318.98 194.2 310.08 194.2ZM128.48 93.1001C175.28 139.9 250.88 184.3 297.38 192.1C312.68 194.7 323.38 193 328.48 187.4C332.08 183.5 332.78 177.7 330.78 170.3L284.08 0.900047L128.48 93.1001Z" fill="white"/>
</g>
<mask id="mask22_201_585" style="mask-type:luminance" maskUnits="userSpaceOnUse" x="92" y="0" width="193" height="93">
<path d="M109.18 21.0001C167.58 14.1001 225.98 7.1001 284.38 0.100098L127.68 92.9001C88.0797 53.1001 81.8797 24.2001 109.18 21.0001Z" fill="white"/>
</mask>
<g mask="url(#mask22_201_585)">
<path d="M127.58 93.6001L127.28 93.3C99.7797 65.6001 87.1797 41.7 93.6797 29.2C97.8797 21.1 109.58 18.3 127.58 21.4L286.78 -0.699951L127.58 93.6001ZM114.58 21.2C104.28 21.2 97.4797 24.1 94.5797 29.7C88.3797 41.7 100.78 65.1 127.78 92.4L281.98 1.00005L127.58 22.4H127.48C122.78 21.5 118.48 21.2 114.58 21.2Z" fill="white"/>
<path d="M284.279 -0.463687L96.3201 25.8616L96.4588 26.8519L284.418 0.526613L284.279 -0.463687Z" fill="white"/>
<path d="M284.269 -0.383812L96.3657 51.4011L96.6314 52.3652L284.535 0.580288L284.269 -0.383812Z" fill="white"/>
</g>
<mask id="mask23_201_585" style="mask-type:luminance" maskUnits="userSpaceOnUse" x="92" y="0" width="193" height="93">
<path d="M109.18 21.0001C167.58 14.1001 225.98 7.1001 284.38 0.100098L127.68 92.9001C88.0797 53.1001 81.8797 24.2001 109.18 21.0001Z" fill="white"/>
</mask>
<g mask="url(#mask23_201_585)">
<path d="M127.58 93.6001L127.28 93.3C100.88 66.7001 88.2797 44 92.8797 31C94.9797 25 100.38 21.5 109.08 20.4L286.58 -0.699951L127.58 93.6001ZM109.28 21.5C100.98 22.5 95.7797 25.8 93.8797 31.4C91.7797 37.4 90.9797 55.2 127.78 92.4L282.08 1.00005L109.28 21.5Z" fill="white"/>
</g>
</svg>
