<svg width="403" height="445" viewBox="0 0 403 445" fill="none" xmlns="http://www.w3.org/2000/svg">
<path d="M201.495 385.375C163.695 385.375 125.795 385.375 88.1946 385.275C80.6946 385.275 73.3946 379.975 70.8946 372.775C66.5946 360.875 61.8946 348.975 57.2946 337.375C50.0946 318.775 42.4946 299.675 36.3946 280.275C29.5946 258.875 23.4946 236.775 17.5946 215.475C12.2946 196.375 6.79461 176.675 0.894611 157.375C-1.60539 149.375 1.29461 141.175 7.59461 138.375C18.5946 134.475 29.6946 131.875 40.3946 129.275C61.6946 124.275 81.7946 119.475 100.195 105.575C121.595 89.375 138.395 67.675 154.695 46.775C165.995 32.275 177.595 17.275 190.695 4.275C197.095 -1.425 205.695 -1.425 212.195 4.275C225.495 17.375 237.495 32.275 249.095 46.775C265.895 67.675 283.295 89.275 304.895 105.675C322.995 119.375 342.495 124.175 363.195 129.275C373.695 131.875 384.495 134.575 395.295 138.475C401.595 141.375 404.495 149.475 401.995 157.475C396.195 176.675 390.895 196.475 385.795 215.575C380.095 236.875 374.195 258.875 367.495 280.275C361.395 299.775 353.595 318.875 345.995 337.375C341.295 348.875 336.395 360.875 331.995 372.775C329.395 380.175 322.295 385.275 314.695 385.275C277.195 385.275 239.295 385.375 201.495 385.375ZM191.495 4.975C178.495 17.975 166.895 32.975 155.595 47.375C139.295 68.375 122.395 90.075 100.895 106.375C82.2946 120.475 62.0946 125.275 40.6946 130.275C29.9946 132.775 18.8946 135.375 7.99461 139.275C2.19461 141.875 -0.505392 149.575 1.79461 157.075C7.69461 176.375 13.1946 196.075 18.4946 215.175C24.3946 236.475 30.4946 258.475 37.2946 279.875C43.3946 299.275 50.8946 318.375 58.1946 336.875C62.6946 348.475 67.4946 360.375 71.7946 372.275C74.1946 379.175 80.9946 384.175 88.1946 384.175C163.395 384.275 239.595 384.275 314.695 384.175C321.895 384.175 328.595 379.275 331.095 372.275C335.495 360.375 340.395 348.375 345.095 336.875C352.695 318.375 360.495 299.275 366.595 279.775C373.295 258.375 379.195 236.375 384.895 215.075C389.995 195.975 395.295 176.175 401.095 156.975C403.395 149.475 400.795 141.775 394.995 139.175C384.395 135.275 373.495 132.575 363.095 129.975C342.295 124.875 322.695 119.975 304.395 106.175C282.595 89.775 265.195 68.075 248.395 47.075C236.795 32.675 224.795 17.775 211.595 4.775C205.495 -0.325 197.395 -0.325 191.495 4.975Z" fill="white"/>
<path d="M201.695 375.475C167.294 375.475 132.795 374.175 98.5945 371.675C90.9945 371.075 83.8945 366.775 81.3945 360.975C78.5945 354.575 75.6945 348.175 72.8945 341.975C64.8945 324.275 56.5945 305.975 50.3945 286.875C42.1945 261.375 35.3945 234.975 28.8945 209.375C25.3945 195.575 21.6945 181.275 17.8945 167.375C16.3945 161.975 16.7945 157.075 18.8945 153.775C20.2945 151.675 22.2945 150.475 24.7945 150.175C30.1945 149.675 35.4945 149.275 40.5945 148.875C64.6945 147.175 87.4945 145.575 109.095 129.375C134.895 110.075 153.695 81.9748 171.895 54.8748C178.094 45.6748 184.395 36.1748 190.895 27.3748C193.995 23.3748 197.595 21.2748 201.495 21.1748C205.495 21.1748 209.195 23.2748 212.495 27.3748C219.295 36.2748 225.995 45.7748 232.495 55.0748C251.495 82.0748 271.095 109.975 297.095 129.475C317.995 145.075 338.294 146.675 361.794 148.675C367.294 149.175 372.995 149.575 378.895 150.275C381.294 150.575 383.195 151.775 384.495 153.775C386.695 156.975 387.095 161.975 385.595 167.475C381.895 181.375 378.495 195.675 375.195 209.575C369.095 235.175 362.695 261.675 354.495 287.075C347.995 307.275 339.194 325.375 329.794 344.575C327.194 349.975 324.395 355.575 321.794 361.175C319.194 366.875 312.095 371.275 304.495 371.775C270.495 374.175 236.095 375.475 201.695 375.475ZM191.795 27.9748C185.395 36.7748 178.995 46.2748 172.795 55.4748C154.495 82.6748 135.695 110.875 109.695 130.275C87.7945 146.675 64.8945 148.275 40.5945 149.975C35.4945 150.375 30.1945 150.675 24.7945 151.275C22.5945 151.575 20.7945 152.675 19.5945 154.475C17.5945 157.475 17.2945 162.075 18.6945 167.175C22.4945 181.175 26.1945 195.475 29.6945 209.275C36.1945 234.875 42.9945 261.275 51.1945 286.775C57.3945 305.775 65.6945 324.075 73.6945 341.775C76.4945 347.975 79.3945 354.375 82.1945 360.775C84.4945 366.075 91.3945 370.275 98.4945 370.875C166.995 375.875 236.195 375.875 304.395 370.875C311.595 370.375 318.395 366.175 320.895 360.775C323.495 355.175 326.294 349.575 328.895 344.175C338.194 325.075 346.995 306.975 353.495 286.875C361.695 261.475 367.995 235.075 374.195 209.475C377.495 195.675 380.895 181.375 384.595 167.375C385.995 162.175 385.595 157.475 383.595 154.475C382.395 152.775 380.695 151.675 378.695 151.375C372.895 150.675 367.195 150.275 361.695 149.775C337.995 147.775 317.595 146.175 296.495 130.375C270.295 110.775 250.595 82.7748 231.595 55.7748C225.095 46.5748 218.395 36.9748 211.695 28.1748C208.695 24.3748 205.095 22.3748 201.495 22.3748C197.995 22.2748 194.595 24.2748 191.795 27.9748Z" fill="white"/>
<path d="M202.094 372.175C171.094 372.175 139.994 369.375 109.094 363.875C101.494 362.475 94.4944 358.675 91.9944 354.575C64.9944 309.975 53.4944 261.775 41.2944 210.775C39.1944 202.075 37.0944 193.075 34.8944 184.275C33.2944 177.975 33.7944 172.775 36.1944 170.075C37.5944 168.475 39.5944 167.775 41.9944 168.075C68.1944 171.675 93.7944 173.475 117.994 155.775C145.294 135.775 163.594 104.775 181.194 74.7752C184.694 68.8752 187.994 63.2752 191.394 57.6752C194.394 52.7752 198.094 50.1752 201.994 50.0752H202.094C205.994 50.0752 209.794 52.6752 212.994 57.6752C216.694 63.3752 220.294 69.0752 224.094 75.1752C242.594 104.875 261.794 135.675 289.394 155.675C311.394 171.675 334.594 172.175 362.594 167.975C364.794 167.675 366.694 168.275 367.994 169.775C370.394 172.475 370.894 177.675 369.394 184.175C367.394 192.775 365.494 201.475 363.594 209.975C352.194 261.575 341.394 310.375 311.794 354.575C309.094 358.675 301.994 362.475 294.494 363.875C263.994 369.475 233.094 372.175 202.094 372.175ZM40.8944 168.975C39.2944 168.975 37.8944 169.575 36.8944 170.675C34.6944 173.175 34.2944 177.975 35.7944 183.975C37.9944 192.875 40.1944 201.775 42.1944 210.475C54.3944 261.475 65.8944 309.575 92.7944 353.975C95.0944 357.775 101.894 361.575 109.194 362.875C170.994 373.875 233.294 373.875 294.394 362.875C301.494 361.575 308.494 357.775 310.994 353.975C340.494 309.975 351.194 261.275 362.594 209.675C364.494 201.275 366.394 192.475 368.394 183.875C369.794 177.775 369.394 172.775 367.194 170.375C366.094 169.175 364.594 168.675 362.694 168.875C334.394 173.075 310.994 172.575 288.794 156.375C261.094 136.175 241.894 105.375 223.294 75.5752C219.494 69.4752 215.894 63.7752 212.294 58.0752C209.294 53.3752 205.794 50.9752 202.194 50.9752H202.094C198.594 50.9752 195.194 53.4752 192.394 58.0752C188.994 63.5752 185.694 69.1752 182.194 75.1752C164.494 105.275 146.194 136.375 118.694 156.475C94.1944 174.375 68.3944 172.575 41.9944 168.975C41.4944 168.975 41.1944 168.975 40.8944 168.975Z" fill="white"/>
<path d="M202.695 374.975C175.495 374.975 148.195 370.675 119.795 362.175C112.195 359.775 105.295 356.275 102.895 353.675C75.2948 323.875 66.1948 277.275 58.1948 236.175C56.1948 225.875 54.2948 216.175 52.1948 206.975C50.5948 199.775 51.0948 194.475 53.5948 192.075C54.9948 190.775 56.9948 190.375 59.3948 191.075C89.5948 200.375 115.595 194.275 138.995 172.375C159.495 153.175 175.295 124.375 189.295 98.975L192.095 93.875C195.095 88.375 198.695 85.375 202.695 85.375C206.695 85.275 210.495 88.275 213.795 93.875C215.495 96.775 217.295 99.875 219.095 102.875C247.495 151.575 282.895 212.175 346.495 191.075C348.595 190.375 350.495 190.675 351.795 191.875C354.395 194.175 354.895 199.575 353.395 206.975C351.595 215.575 349.995 224.775 348.295 234.475C340.895 276.875 332.595 324.975 301.995 353.775C299.295 356.375 292.195 359.875 284.895 362.275C256.995 370.675 229.895 374.975 202.695 374.975ZM57.0948 191.675C55.9948 191.675 54.9948 192.075 54.2948 192.775C51.9948 194.875 51.5948 199.975 53.1948 206.775C55.2948 215.975 57.1948 225.675 59.1948 235.975C67.1948 276.975 76.1948 323.375 103.595 353.075C105.795 355.575 112.795 359.075 120.095 361.275C176.795 378.275 228.995 378.275 284.595 361.275C291.695 358.975 298.795 355.575 301.395 352.975C331.795 324.375 340.095 276.475 347.395 234.275C349.095 224.575 350.695 215.375 352.495 206.775C353.895 199.875 353.395 194.675 351.195 192.675C350.095 191.675 348.695 191.475 346.895 192.075C337.795 195.075 329.295 196.475 321.295 196.475C272.595 196.475 242.895 145.575 218.295 103.475C216.495 100.375 214.695 97.375 212.995 94.475C209.895 89.275 206.395 86.475 202.895 86.475H202.795C199.295 86.575 195.895 89.275 193.095 94.475L190.295 99.575C176.295 125.075 160.395 153.975 139.795 173.175C116.095 195.375 89.7948 201.575 59.1948 192.075C58.3948 191.775 57.6948 191.675 57.0948 191.675Z" fill="white"/>
<path d="M203.495 382.175C179.895 382.175 155.995 376.875 130.695 366.175C123.395 362.875 116.295 359.475 113.895 358.075C102.095 351.075 96.5947 336.575 92.5947 326.075C83.6947 302.375 78.3947 276.975 73.2947 252.375C72.0947 246.475 70.7947 240.275 69.4947 234.275C67.7947 226.375 68.3947 220.775 70.9947 218.475C71.9947 217.675 73.7947 216.875 76.6947 218.075C135.695 242.275 168.095 180.875 191.695 136.075L192.695 134.275C194.495 127.975 199.295 125.675 203.195 125.675C203.295 125.675 203.295 125.675 203.395 125.675C208.495 125.675 212.795 129.075 214.395 134.275C215.395 136.075 216.495 137.975 217.595 139.975C240.695 180.775 275.495 242.575 330.295 218.175C332.895 217.075 334.595 217.675 335.495 218.475C338.095 220.575 338.795 226.275 337.295 234.375C336.195 240.375 335.095 247.775 333.995 255.675C328.795 292.475 321.695 342.875 291.995 358.275C289.295 359.675 282.495 362.975 274.995 366.375C250.595 376.775 227.195 382.175 203.495 382.175ZM74.0947 218.375C73.1947 218.375 72.3947 218.675 71.7947 219.175C69.4947 221.175 68.9947 226.575 70.5947 233.975C71.8947 239.975 73.1947 246.175 74.3947 252.075C79.4947 276.675 84.6947 301.975 93.5947 325.575C97.4947 335.975 102.895 350.275 114.395 357.075C116.395 358.275 122.795 361.475 130.995 365.175C181.395 386.375 225.795 386.375 274.795 365.175C282.195 361.775 289.095 358.475 291.695 357.075C320.895 341.875 327.995 291.775 333.095 255.275C334.195 247.375 335.295 239.975 336.395 233.975C337.795 226.375 337.295 220.875 334.995 218.975C333.995 218.175 332.495 218.075 330.795 218.875C275.195 243.575 239.995 181.375 216.795 140.275C215.695 138.275 214.595 136.375 213.595 134.575V134.475C212.095 129.575 208.095 126.475 203.395 126.575C199.795 126.575 195.395 128.775 193.795 134.475V134.575L192.795 136.475C181.295 158.275 166.995 185.375 148.395 203.475C126.495 224.775 102.995 229.875 76.4947 218.975C75.5947 218.575 74.7947 218.375 74.0947 218.375Z" fill="white"/>
<path d="M204.394 392.975C184.394 392.975 164.194 387.075 141.794 375.275C134.194 370.975 127.394 367.675 125.194 367.175C101.594 359.075 94.0944 309.775 89.6944 280.375C88.7944 274.175 87.8944 268.775 87.1944 264.975C85.4944 256.475 86.0944 250.475 88.7944 248.275C89.7944 247.475 91.5944 246.775 94.3944 247.975C116.394 257.775 136.294 253.375 155.494 234.575C171.894 218.475 184.594 194.575 193.794 177.175C195.594 170.875 200.394 168.575 204.294 168.575C204.394 168.575 204.394 168.575 204.494 168.575C209.594 168.575 213.894 171.975 215.494 177.175L217.394 180.575C236.494 214.175 268.494 270.375 314.694 247.975C317.294 246.775 318.894 247.375 319.794 248.075C322.494 250.175 323.194 256.175 321.694 264.875C321.094 268.375 320.394 273.175 319.694 278.875C315.994 307.675 308.994 361.175 282.594 367.175C279.994 367.675 273.094 370.975 265.794 375.275C244.194 387.075 224.394 392.975 204.394 392.975ZM91.4944 248.275C90.6944 248.275 89.9944 248.475 89.3944 248.975C86.9944 250.975 86.4944 256.675 88.0944 264.675C88.8944 268.475 89.6944 273.875 90.6944 280.175C95.0944 309.375 102.494 358.275 125.494 366.175C127.694 366.675 134.494 369.975 142.294 374.375C186.794 397.775 222.494 397.775 265.394 374.375C272.894 369.975 279.794 366.675 282.494 366.175C308.194 360.375 315.094 307.275 318.794 278.775C319.494 273.175 320.194 268.275 320.794 264.775C322.194 256.575 321.694 250.775 319.294 248.875C318.294 248.075 316.894 248.075 315.194 248.875C268.194 271.675 235.894 214.975 216.594 181.075L214.594 177.575C213.094 172.775 209.194 169.575 204.494 169.575H204.394C200.794 169.575 196.394 171.775 194.794 177.475V177.575C176.194 212.775 145.094 271.575 94.0944 248.775C93.0944 248.475 92.2944 248.275 91.4944 248.275Z" fill="white"/>
<path d="M205.395 405.675C188.995 405.675 172.295 399.875 153.095 388.375C144.595 382.875 138.395 379.975 136.595 379.875H136.495C116.595 374.975 110.395 333.775 106.695 309.175C105.995 304.475 105.395 300.375 104.795 297.575C102.995 288.575 103.595 282.375 106.495 279.975C107.495 279.175 109.195 278.475 111.995 279.575C153.395 295.575 178.295 251.075 194.695 221.475C196.295 216.475 200.295 213.275 205.195 213.175H205.295C210.295 213.175 214.595 216.375 216.295 221.475L217.495 223.475C232.995 249.475 261.695 297.875 298.895 279.575C301.395 278.475 302.995 279.175 303.895 279.875C306.695 282.075 307.495 288.375 305.895 297.575C305.395 300.275 304.895 303.975 304.395 308.375C301.295 332.175 295.495 376.375 273.195 379.975C270.595 380.075 263.695 383.475 256.495 388.475C238.095 399.875 221.795 405.675 205.395 405.675ZM136.695 378.875C139.095 378.975 145.795 382.475 153.595 387.475C191.695 410.275 219.495 410.275 255.995 387.475C263.495 382.375 270.395 378.875 273.195 378.875C294.795 375.375 300.495 331.675 303.495 308.175C304.095 303.875 304.595 300.075 304.995 297.375C306.395 288.875 305.795 282.575 303.295 280.675C302.295 279.875 300.895 279.875 299.295 280.475C293.495 283.375 287.795 284.575 282.395 284.575C252.695 284.575 229.795 246.175 216.595 223.975L215.295 221.875C213.695 217.175 209.695 214.175 205.095 214.275C201.595 214.275 197.195 216.375 195.495 221.875V221.975C187.595 236.075 176.895 255.475 162.895 268.575C146.795 283.775 129.995 287.675 111.495 280.575C109.595 279.875 108.095 279.875 106.995 280.875C104.495 282.975 103.995 288.975 105.595 297.475C106.195 300.275 106.795 304.375 107.495 309.175C111.095 331.775 117.495 374.175 136.695 378.875Z" fill="white"/>
<path d="M206.295 418.575C193.295 418.575 180.195 413.675 164.395 403.775C155.995 397.875 149.695 394.775 147.895 394.675H147.795C131.995 389.375 126.995 358.175 124.095 339.475C123.495 335.875 122.995 332.775 122.495 330.475C120.695 321.475 121.395 314.775 124.295 312.175C125.695 310.975 127.495 310.675 129.595 311.275C161.495 321.375 182.095 287.675 195.695 265.375C198.695 259.975 202.395 257.175 206.295 257.075C210.295 257.075 214.095 259.875 217.395 265.375L218.495 267.075C232.395 288.675 253.495 321.275 283.395 311.275C285.295 310.675 286.995 310.875 288.295 311.975C291.195 314.475 291.995 321.175 290.495 330.375C290.095 332.475 289.695 335.375 289.195 338.575C286.495 357.875 281.895 390.275 264.095 394.575H263.995C261.795 394.675 255.395 397.775 247.395 403.575C232.095 413.675 219.295 418.575 206.295 418.575ZM147.995 393.775C150.395 393.975 157.295 397.675 164.895 402.975C196.095 422.375 216.795 422.375 246.695 402.975C254.095 397.575 260.995 393.875 263.795 393.775C280.895 389.575 285.595 356.475 288.095 338.575C288.595 335.275 288.995 332.475 289.395 330.375C290.795 321.675 290.195 315.175 287.595 312.875C286.595 311.975 285.295 311.775 283.695 312.275C253.095 322.575 231.795 289.575 217.695 267.675L216.595 265.975C213.495 260.775 209.895 258.175 206.395 258.175C202.895 258.275 199.495 260.875 196.695 265.975C182.895 288.575 162.095 322.675 129.395 312.375C127.595 311.875 126.095 312.075 124.995 313.075C122.395 315.475 121.895 321.775 123.495 330.375C123.995 332.675 124.495 335.775 125.095 339.475C127.895 357.775 132.795 388.575 147.995 393.775Z" fill="white"/>
<path d="M207.194 430.575C197.694 430.575 188.194 426.975 175.694 419.675C167.394 414.075 160.994 410.475 159.094 409.875L158.994 409.775C147.694 402.775 144.394 385.075 141.794 370.975C141.194 367.775 140.694 364.875 140.094 362.275C138.294 353.475 138.994 346.775 141.894 343.675C143.194 342.275 144.994 341.675 147.094 341.975C169.694 346.175 185.894 323.075 196.694 307.775C199.694 302.975 203.394 300.375 207.294 300.375H207.394C211.294 300.375 215.094 302.975 218.294 307.775L219.194 308.975C230.394 324.275 245.694 345.175 267.694 341.975C269.594 341.675 271.294 342.175 272.494 343.475C275.394 346.475 276.194 353.275 274.694 362.175C274.294 364.075 273.894 366.175 273.494 368.775C270.994 382.775 267.294 403.975 254.994 409.775C252.594 410.375 246.094 413.975 238.194 419.575C226.094 426.975 216.694 430.575 207.194 430.575ZM159.494 408.975C161.894 409.775 168.994 413.875 176.294 418.875C200.794 433.175 213.994 433.175 237.494 418.875C244.694 413.775 251.694 409.675 254.494 408.975C266.294 403.375 269.994 382.475 272.394 368.675C272.794 366.275 273.194 363.975 273.594 362.075C275.094 353.575 274.394 346.975 271.694 344.275C270.594 343.175 269.294 342.775 267.694 343.075C266.094 343.275 264.594 343.375 262.994 343.375C242.894 343.375 228.694 324.075 218.194 309.675L217.294 308.375C214.194 303.775 210.694 301.275 207.094 301.375C203.594 301.375 200.194 303.875 197.394 308.375C186.494 323.875 169.994 347.375 146.894 343.075C145.194 342.775 143.694 343.275 142.594 344.475C139.894 347.275 139.394 353.775 141.094 362.175C141.694 364.775 142.294 367.775 142.794 370.875C145.394 384.775 148.594 402.075 159.494 408.975Z" fill="white"/>
<path d="M208.095 439.475C201.995 439.475 195.895 437.475 187.095 433.375C178.595 428.475 172.295 424.375 170.195 422.575C163.895 415.775 161.295 405.375 158.995 396.175C158.495 394.275 158.095 392.475 157.595 390.775C155.895 382.875 156.495 376.175 159.195 372.575C160.495 370.775 162.295 369.775 164.495 369.575C179.095 368.075 187.895 357.975 197.095 347.175L197.495 346.675C200.595 342.575 204.195 340.375 208.095 340.375H208.195C212.095 340.375 215.895 342.575 219.095 346.675L219.995 347.775C228.795 357.775 237.795 368.075 251.995 369.575C253.995 369.775 255.695 370.675 256.995 372.375C259.795 375.975 260.495 382.675 258.895 390.675C258.495 392.275 258.095 393.875 257.695 395.575C255.495 405.075 252.995 415.775 245.695 422.475C242.795 424.675 234.895 429.475 228.695 433.175C220.195 437.475 214.195 439.475 208.095 439.475ZM208.095 341.475C204.395 341.475 201.095 343.575 198.195 347.375L197.695 347.875C188.695 358.275 179.495 369.075 164.395 370.575C162.495 370.675 160.995 371.575 159.895 373.175C157.395 376.575 156.795 382.975 158.495 390.575C158.995 392.275 159.395 394.075 159.895 395.975C162.195 405.075 164.795 415.375 170.895 421.975C172.895 423.675 179.095 427.675 187.595 432.575C204.795 440.575 211.595 440.575 228.295 432.575C237.095 427.275 242.895 423.575 245.095 421.975C252.095 415.475 254.595 404.975 256.695 395.575C257.095 393.875 257.495 392.275 257.895 390.675C259.395 382.975 258.695 376.575 256.195 373.175C255.095 371.675 253.595 370.875 251.895 370.775C237.295 369.175 228.095 358.675 219.195 348.575L218.195 347.475C215.195 343.475 211.695 341.475 208.095 341.475Z" fill="white"/>
<path d="M208.795 444.575C205.595 444.575 202.495 443.775 198.195 442.075C190.295 438.975 183.395 434.275 181.095 430.375C178.595 426.075 177.395 422.775 174.795 413.875C172.495 405.775 174.695 395.075 181.495 392.575C188.195 390.075 191.495 387.775 197.995 380.975C201.095 377.775 204.795 375.975 208.595 375.975C208.595 375.975 208.595 375.975 208.695 375.975C212.595 375.975 216.295 377.675 219.495 380.975C226.195 387.875 229.395 390.075 235.995 392.575C242.095 394.875 245.295 404.875 242.795 413.875C240.295 422.775 238.995 426.075 236.295 430.375C233.795 434.275 226.895 438.975 219.195 442.075C215.095 443.675 211.895 444.575 208.795 444.575ZM198.795 381.675C192.195 388.575 188.795 391.075 181.895 393.575C176.195 395.675 173.295 405.075 175.795 413.675C178.295 422.475 179.495 425.675 181.995 429.875C184.195 433.575 190.795 438.175 198.495 441.175C206.695 444.375 210.695 444.375 218.695 441.175C226.195 438.175 232.895 433.675 235.295 429.875C237.995 425.675 239.295 422.475 241.695 413.675C244.095 405.075 241.195 395.675 235.495 393.575C228.795 391.075 225.395 388.675 218.695 381.675C215.695 378.575 212.195 376.975 208.595 376.975C208.595 376.975 208.595 376.975 208.495 376.975C205.095 376.975 201.695 378.575 198.795 381.675Z" fill="white"/>
<path d="M209.295 442.275C201.295 441.675 194.395 436.575 191.995 429.775C189.495 422.575 192.395 413.475 198.595 408.875C204.995 404.175 213.595 404.175 219.995 408.875C226.195 413.375 229.095 422.675 226.595 429.775C224.095 436.675 217.095 441.675 209.295 442.275ZM209.195 406.375C205.695 406.375 202.095 407.475 199.095 409.675C193.295 413.875 190.495 422.775 192.895 429.375C195.195 435.875 201.795 440.675 209.295 441.275C216.695 440.675 223.295 435.875 225.595 429.375C227.995 422.775 225.195 413.875 219.295 409.675C216.295 407.475 212.795 406.375 209.195 406.375Z" fill="white"/>
</svg>
