<svg width="426" height="426" viewBox="0 0 426 426" fill="none" xmlns="http://www.w3.org/2000/svg">
<path d="M156.4 416.8C149.4 416.8 143.2 413.4 138.6 407C134 400.5 124.5 381 136.6 339.6C145.7 308.6 164.8 273.5 192.3 237C161.7 271 130.9 296.5 102.3 311.3C64.0001 331.1 43.0001 325.5 35.8001 322.2C25.7001 317.6 20.9001 308.7 22.8001 297.7C24.1001 289.8 31.3001 269.3 69.0001 248.7C97.3001 233.2 135.7 221.9 180.9 215.6C135.2 218 95.4001 214.3 64.7001 204.5C23.7001 191.4 12.7001 172.6 10.0001 165.2C6.10009 154.8 9.10009 145.1 18.1001 138.7C24.6001 134.1 44.1001 124.6 85.5001 136.7C116.5 145.8 151.6 164.9 188.1 192.4C154.1 161.8 128.6 131 113.8 102.4C94.0001 64.0999 99.6001 43.0999 102.9 35.8999C107.5 25.7999 116.4 20.9999 127.4 22.8999C135.3 24.1999 155.8 31.3999 176.4 69.0999C191.9 97.3999 203.2 135.8 209.5 181C207.1 135.3 210.8 95.4999 220.6 64.7999C233.7 23.7999 252.5 12.7999 259.9 10.0999C270.3 6.19994 280 9.19994 286.4 18.1999C291 24.6999 300.5 44.1999 288.4 85.5999C279.3 116.6 260.2 151.7 232.7 188.2C263.3 154.2 294.1 128.7 322.7 113.9C361 94.0999 382 99.6999 389.2 103C399.3 107.6 404.1 116.5 402.2 127.5C400.9 135.4 393.7 155.9 356 176.5C327.7 192 289.3 203.3 244.1 209.6C289.8 207.2 329.6 210.9 360.3 220.7C401.3 233.8 412.3 252.6 415 260C418.9 270.4 415.9 280.1 406.9 286.5C400.4 291.1 380.9 300.6 339.5 288.5C308.5 279.4 273.4 260.3 236.9 232.8C270.9 263.4 296.4 294.2 311.2 322.8C331 361.1 325.4 382.1 322.1 389.3C317.5 399.4 308.6 404.2 297.6 402.3C289.7 401 269.2 393.8 248.6 356.1C233.1 327.8 221.8 289.4 215.5 244.2C217.9 289.9 214.2 329.7 204.4 360.4C191.3 401.4 172.5 412.4 165.1 415.1C162.2 416.3 159.2 416.8 156.4 416.8ZM208 218.9C172.5 262 148.2 303.8 137.6 339.9C125.6 380.8 134.9 400 139.4 406.4C145.6 415.1 154.8 417.9 164.8 414.2C172.1 411.5 190.6 400.7 203.5 360.1C214.9 324.2 218.2 275.9 212.8 220.4L213.8 220.3C219.1 275.8 231.5 322.7 249.6 355.7C270.1 393.1 290.2 400.1 297.9 401.4C308.4 403.2 316.9 398.6 321.3 388.9C324.5 381.8 330 361.1 310.4 323.3C293.1 289.9 261.2 253.4 218.2 217.9L218.8 217.1C261.9 252.6 303.7 276.9 339.8 287.5C380.7 299.5 399.9 290.2 406.3 285.7C415 279.5 417.8 270.3 414.1 260.3C411.4 253 400.6 234.5 360 221.6C324.1 210.2 275.8 206.9 220.3 212.3L220.2 211.3C275.7 206 322.6 193.6 355.6 175.5C393 155 400 134.9 401.3 127.2C403.1 116.7 398.5 108.2 388.8 103.8C381.7 100.6 361 95.0999 323.2 114.7C289.8 132 253.3 163.9 217.8 206.9L217 206.3C252.5 163.2 276.8 121.4 287.4 85.2999C299.4 44.3999 290.1 25.1999 285.6 18.7999C279.4 10.0999 270.2 7.29994 260.2 10.9999C252.9 13.6999 234.4 24.4999 221.5 65.0999C210.1 101 206.8 149.3 212.2 204.8L211.2 204.9C205.9 149.4 193.5 102.5 175.4 69.4999C154.9 32.0999 134.8 25.0999 127.1 23.7999C116.6 21.9999 108.1 26.5999 103.7 36.2999C100.5 43.3999 95.0001 64.0999 114.6 101.9C131.9 135.3 163.8 171.8 206.8 207.3L206.2 208.1C163.1 172.6 121.3 148.3 85.2001 137.7C44.3001 125.7 25.1001 135 18.7001 139.5C10.0001 145.7 7.20008 154.9 10.9001 164.9C13.6001 172.2 24.4001 190.7 65.0001 203.6C100.9 215 149.2 218.3 204.7 212.9L204.8 213.9C149.3 219.2 102.4 231.6 69.4001 249.7C32.0001 270.2 25.0001 290.3 23.7001 298C21.9001 308.5 26.5001 317 36.2001 321.4C43.3001 324.6 64.0001 330.1 101.8 310.5C135.2 293.2 171.7 261.3 207.2 218.3L208 218.9Z" fill="white"/>
<path d="M143.8 412.5C136.2 412.5 129.7 408.7 125.2 401.4C121 394.6 113 374.5 127.9 334.1C139.1 303.9 160.6 270.1 190.7 235.7C157.8 267.5 125.3 290.8 95.7001 303.5C56.1001 320.5 35.6001 313.5 28.6001 309.7C18.8001 304.4 14.7001 295.2 17.3001 284.3C19.2001 276.6 27.7001 256.6 66.8001 238.6C96.1001 225.1 135.2 216.5 180.8 213.4C135.1 212.7 95.6001 206.1 65.7001 194.2C25.7001 178.3 16.1001 158.8 13.8001 151.2C10.6001 140.5 14.3001 131.1 23.7001 125.3C30.5001 121.1 50.6001 113.1 91.0001 128C121.2 139.2 155 160.7 189.4 190.8C157.6 157.9 134.3 125.4 121.6 95.8C104.6 56.2 111.6 35.7 115.4 28.7C120.7 18.9 129.9 14.8 140.8 17.4C148.5 19.3 168.5 27.8 186.5 66.9C200 96.2 208.6 135.3 211.7 180.9C212.4 135.2 219 95.7 230.9 65.8C246.8 25.8 266.3 16.2 273.9 13.9C284.6 10.7 294 14.4 299.8 23.8C304 30.6 312 50.7 297.1 91.1C285.9 121.3 264.4 155.1 234.3 189.5C267.2 157.7 299.7 134.4 329.3 121.7C368.9 104.7 389.4 111.7 396.4 115.5C406.2 120.8 410.3 130 407.7 140.9C405.8 148.6 397.3 168.6 358.2 186.6C328.9 200.1 289.8 208.7 244.2 211.8C289.9 212.5 329.4 219.1 359.3 231C399.3 246.9 408.9 266.4 411.2 274C414.4 284.7 410.7 294.1 401.3 299.9C394.5 304.1 374.4 312.1 334 297.2C303.8 286 270 264.5 235.6 234.4C267.4 267.3 290.7 299.8 303.4 329.4C320.4 369 313.4 389.5 309.6 396.5C304.3 406.3 295.1 410.4 284.2 407.8C276.5 405.9 256.5 397.4 238.5 358.3C225 329 216.4 289.9 213.3 244.3C212.6 290 206 329.5 194.1 359.4C178.2 399.4 158.7 409 151.1 411.3C148.6 412.1 146.2 412.5 143.8 412.5ZM207.6 218.6C169.2 259.1 142 299.1 128.9 334.4C114.1 374.4 122 394.2 126.1 400.9C131.7 410 140.7 413.4 150.9 410.4C158.4 408.2 177.5 398.7 193.3 359.1C207.2 324.1 213.8 276.2 212.3 220.4H213.3C214.8 276.2 223.8 323.7 239.6 357.9C257.4 396.6 277 405.1 284.6 406.9C294.9 409.4 303.8 405.4 308.8 396.1C312.5 389.2 319.4 369 302.5 329.9C287.6 295.3 258.3 256.8 217.9 218.4L218.6 217.7C259.1 256.1 299.1 283.3 334.4 296.4C374.4 311.2 394.2 303.3 400.9 299.2C410 293.6 413.4 284.6 410.4 274.4C408.2 266.9 398.7 247.8 359.1 232C324.1 218.1 276.2 211.5 220.4 213V212C276.2 210.5 323.7 201.5 357.9 185.7C396.6 167.9 405.1 148.3 406.9 140.7C409.4 130.4 405.4 121.5 396.1 116.5C389.2 112.8 369 105.9 329.9 122.8C295.3 137.7 256.8 167 218.4 207.4L217.6 206.6C256 166.1 283.2 126.1 296.3 90.8C311.1 50.8 303.2 31 299.1 24.3C293.5 15.2 284.5 11.8 274.3 14.8C266.8 17 247.7 26.5 231.9 66.1C218 101.1 211.4 149 212.9 204.8H211.9C210.4 149 201.4 101.5 185.6 67.3C167.8 28.6 148.2 20.1 140.6 18.3C130.3 15.8 121.4 19.8 116.4 29.1C112.7 36 105.8 56.2 122.7 95.3C137.6 129.9 166.9 168.4 207.3 206.8L206.6 207.6C166.1 169.2 126.1 142 90.8001 128.9C50.8001 114.1 31.0001 122 24.3001 126.1C15.2001 131.7 11.8001 140.7 14.8001 150.9C17.0001 158.4 26.5001 177.5 66.1001 193.3C101.1 207.2 149 213.8 204.8 212.3V213.3C149 214.8 101.5 223.8 67.3001 239.6C28.6001 257.4 20.1001 277 18.3001 284.6C15.8001 294.9 19.8001 303.8 29.1001 308.8C36.0001 312.5 56.2001 319.4 95.3001 302.5C129.9 287.6 168.4 258.3 206.8 217.9L207.6 218.6Z" fill="white"/>
<path d="M278.3 413.6C275.8 413.6 273.2 413.2 270.6 412.4C263 410 243.7 400.1 228.5 359.8C217.1 329.6 211.2 290.1 211.3 244.3C207.4 289.8 198.1 328.8 184.1 357.8C165.4 396.6 145.3 404.8 137.6 406.5C126.7 408.9 117.6 404.6 112.4 394.8C108.7 387.7 102.1 367.1 119.8 327.8C133.1 298.4 156.9 266.3 189.3 234C154.3 263.4 120.2 284.4 89.8001 295C49.2001 309.2 29.1001 300.8 22.4001 296.5C13.0001 290.5 9.6001 281 12.9001 270.4C15.3001 262.8 25.2001 243.5 65.5001 228.3C95.7001 216.9 135.3 211 181 211.1C135.5 207.2 96.5001 197.9 67.5001 183.9C28.7001 165.2 20.5001 145.1 18.8001 137.4C16.4001 126.5 20.7001 117.4 30.5001 112.2C37.6001 108.5 58.2001 101.9 97.5001 119.6C126.9 132.9 159 156.7 191.3 189.1C161.9 154.1 140.9 120 130.3 89.5999C116.1 48.9999 124.5 28.8999 128.8 22.1999C134.8 12.7999 144.3 9.39991 154.9 12.6999C162.5 15.0999 181.8 24.9999 197 65.2999C208.4 95.4999 214.3 135 214.2 180.8C218.1 135.3 227.4 96.2999 241.4 67.2999C260.1 28.4999 280.2 20.2999 287.9 18.5999C298.8 16.1999 307.9 20.4999 313.1 30.2999C316.8 37.3999 323.4 57.9999 305.7 97.2999C292.4 126.7 268.6 158.8 236.2 191.1C271.2 161.7 305.3 140.7 335.7 130.1C376.4 115.9 396.4 124.3 403.1 128.6C412.5 134.6 415.9 144.1 412.6 154.7C410.2 162.3 400.3 181.6 360 196.8C330 208.1 290.6 214 245.1 214C244.9 214 244.7 214 244.5 214C290 217.9 329 227.2 358 241.2C396.8 259.9 405 280 406.7 287.7C409.1 298.6 404.8 307.7 395 312.9C387.9 316.6 367.3 323.2 328 305.5C298.6 292.2 266.5 268.4 234.2 236C263.6 271 284.6 305.1 295.2 335.5C309.4 376.2 301 396.2 296.7 402.9C292.2 409.9 285.7 413.6 278.3 413.6ZM212.8 220.4C210.4 276.2 216.1 324.2 229.4 359.4C244.5 399.3 263.4 409.1 270.9 411.4C281 414.6 290.1 411.3 295.8 402.3C300 395.7 308.2 376 294.2 335.8C281.8 300.3 255.3 259.8 217.5 218.6L218.2 217.9C255.9 259 294 289 328.3 304.5C367.2 322.1 387.5 315.6 394.4 311.9C403.8 307 407.9 298.2 405.6 287.8C403.9 280.2 395.8 260.4 357.4 241.9C323.5 225.6 276.1 215.7 220.3 213.2V212.2C276.1 214.6 324.1 208.9 359.3 195.6C399.2 180.5 409 161.6 411.3 154.1C414.5 144 411.2 134.9 402.2 129.2C395.6 125 375.9 116.8 335.7 130.8C300.2 143.2 259.7 169.7 218.5 207.5L217.8 206.8C258.9 169.1 288.9 131 304.4 96.6999C322 57.7999 315.4 37.4999 311.8 30.5999C306.9 21.1999 298.1 17.0999 287.7 19.3999C280.1 21.0999 260.3 29.1999 241.8 67.5999C225.5 101.5 215.6 148.9 213.1 204.7H212.1C214.5 148.9 208.8 100.9 195.5 65.6999C180.4 25.7999 161.5 15.9999 154 13.6999C143.9 10.4999 134.8 13.7999 129.1 22.7999C124.9 29.3999 116.7 49.0999 130.7 89.2999C143.1 124.8 169.6 165.3 207.4 206.5L206.7 207.2C169 166.1 130.9 136.1 96.6001 120.6C57.7001 103 37.4001 109.6 30.5001 113.2C21.1001 118.1 17.0001 126.9 19.3001 137.3C21.0001 144.9 29.1001 164.7 67.5001 183.2C101.4 199.5 148.8 209.4 204.6 211.9V212.9C148.8 210.5 100.8 216.2 65.6001 229.5C25.7001 244.6 15.9001 263.5 13.6001 271C10.4001 281.1 13.7001 290.2 22.7001 295.9C29.3001 300.1 49.0001 308.3 89.2001 294.3C124.7 281.9 165.2 255.4 206.4 217.6L207.1 218.3C166 256 136 294.1 120.5 328.4C102.9 367.3 109.5 387.6 113.1 394.5C118 403.9 126.8 408 137.2 405.7C144.8 404 164.6 395.9 183.1 357.5C199.4 323.6 209.3 276.2 211.8 220.4H212.8Z" fill="white"/>
<path d="M265.6 417.8C262.7 417.8 259.6 417.2 256.5 416C249.1 413.1 230.5 401.8 218.1 360.6C208.8 329.7 205.7 289.8 209 244.2C201.9 289.4 189.9 327.5 173.9 355.5C152.6 392.9 131.9 399.7 124.1 400.9C113.1 402.5 104.3 397.6 99.7999 387.4C96.5999 380.1 91.3999 359 111.9 321.1C127.2 292.7 153.2 262.3 187.7 232.4C150.7 259.3 115.3 277.8 84.1999 286.3C42.6999 297.7 23.2999 287.9 16.8999 283.1C7.99993 276.5 5.19992 266.8 9.19992 256.4C12.0999 249 23.3999 230.4 64.5999 218C95.4999 208.7 135.4 205.6 181 208.9C135.8 201.8 97.6999 189.8 69.6999 173.8C32.2999 152.5 25.4999 131.8 24.2999 124C22.6999 113 27.5999 104.2 37.7999 99.6998C45.0999 96.4998 66.1999 91.2998 104.1 111.8C132.5 127.1 162.9 153.1 192.8 187.6C165.9 150.6 147.4 115.2 138.9 84.0998C127.5 42.5998 137.3 23.1998 142.1 16.7998C148.7 7.89983 158.4 5.09983 168.8 9.09983C176.2 11.9998 194.8 23.2998 207.2 64.4998C216.5 95.3998 219.6 135.3 216.3 180.9C223.4 135.7 235.4 97.5998 251.4 69.5998C272.7 32.1998 293.4 25.3998 301.2 24.1998C312.2 22.5998 321 27.4998 325.5 37.6998C328.7 44.9998 333.9 66.0998 313.4 104C298.1 132.4 272.1 162.8 237.6 192.7C274.6 165.8 310 147.3 341.1 138.8C382.6 127.4 402 137.2 408.4 142C417.3 148.6 420.1 158.3 416.1 168.7C413.2 176.1 401.9 194.7 360.7 207.1C329.8 216.4 289.9 219.5 244.3 216.2C289.5 223.3 327.6 235.3 355.6 251.3C393 272.6 399.8 293.3 401 301.1C402.6 312.1 397.7 320.9 387.5 325.4C380.2 328.6 359.1 333.8 321.2 313.3C292.8 298 262.4 272 232.5 237.5C259.4 274.5 277.9 309.9 286.4 341C297.8 382.5 288 401.9 283.2 408.3C278.5 414.5 272.4 417.8 265.6 417.8ZM212.2 220.4C205.9 275.8 208.3 324.2 219.1 360.3C231.3 401.1 249.6 412.2 256.9 415.1C266.8 419 276.1 416.3 282.4 407.8C287.1 401.5 296.7 382.5 285.4 341.3C275.5 305 251.8 262.7 217.1 219.1L217.9 218.5C252.6 262.2 288.5 294.7 321.6 312.5C359.1 332.7 379.9 327.7 387 324.5C396.7 320.3 401.4 311.8 399.9 301.3C398.7 293.6 392.1 273.3 355 252.2C322.3 233.6 275.7 220.4 220.3 214.1L220.4 213.1C275.8 219.4 324.2 217 360.3 206.2C401.1 194 412.2 175.7 415.1 168.4C419 158.5 416.3 149.2 407.8 142.9C401.5 138.2 382.5 128.6 341.3 139.9C305 149.8 262.7 173.5 219.1 208.2L218.5 207.4C262.2 172.7 294.7 136.8 312.5 103.7C332.7 66.1998 327.7 45.3998 324.5 38.2998C320.3 28.5998 311.8 23.8998 301.3 25.3998C293.6 26.5998 273.3 33.1998 252.2 70.2998C233.6 103 220.4 149.6 214.1 205L213.1 204.9C219.4 149.5 217 101.1 206.2 64.9998C194 24.1998 175.7 13.0998 168.4 10.1998C158.5 6.29983 149.2 8.99983 142.9 17.4998C138.2 23.7998 128.6 42.7998 139.9 83.9998C149.8 120.3 173.5 162.6 208.2 206.2L207.4 206.8C172.7 163.1 136.8 130.6 103.7 112.8C66.1999 92.5998 45.3999 97.6998 38.2999 100.8C28.5999 105 23.8999 113.5 25.3999 124C26.5999 131.7 33.1999 152 70.2999 173.1C103 191.7 149.6 204.9 205 211.2L204.9 212.2C149.5 205.9 101.1 208.3 64.9999 219.1C24.1999 231.3 13.0999 249.6 10.1999 256.9C6.29992 266.8 8.99993 276.1 17.4999 282.4C23.7999 287.1 42.7999 296.7 83.9999 285.4C120.3 275.5 162.6 251.8 206.2 217.1L206.8 217.9C163.1 252.6 130.6 288.5 112.8 321.6C92.5999 359.1 97.5999 379.9 100.8 387C105 396.7 113.5 401.4 124 399.9C131.7 398.7 152 392.1 173.1 355C191.7 322.3 204.9 275.7 211.2 220.3L212.2 220.4Z" fill="white"/>
<path d="M252.6 421C249.2 421 245.7 420.2 242.2 418.5C235 415.1 217.3 402.6 207.8 360.5C200.7 329 200.4 289 206.8 243.8C196.6 288.4 181.9 325.6 164.1 352.4C140.2 388.2 119.2 393.6 111.2 394.2C100.1 395.1 91.6 389.6 87.9 379.1C85.2 371.6 81.5 350.2 104.6 313.8C121.8 286.5 149.9 258 186.5 230.6C147.8 254.9 111.1 270.9 79.5 277.2C37.3 285.6 18.6 274.5 12.6 269.4C4.09997 262.2 1.99997 252.3 6.79997 242.2C10.2 235 22.7 217.3 64.8 207.8C96.3 200.7 136.3 200.4 181.5 206.8C136.9 196.6 99.7 181.9 72.9 164.1C37.1 140.2 31.7 119.2 31.1 111.2C30.2 100.1 35.7 91.6002 46.2 87.9002C53.7 85.2002 75.1 81.5002 111.5 104.6C138.8 121.8 167.3 149.9 194.7 186.5C170.4 147.8 154.4 111.1 148.1 79.5002C139.7 37.3002 150.8 18.6002 155.9 12.6002C163.1 4.10021 173 2.00021 183.1 6.80021C190.3 10.2002 208 22.7002 217.5 64.8002C224.6 96.3002 224.9 136.3 218.5 181.5C228.7 136.9 243.4 99.7002 261.2 72.9002C285.1 37.1002 306.1 31.7002 314.1 31.1002C325.2 30.2002 333.7 35.7002 337.4 46.2002C340.1 53.7002 343.8 75.1002 320.7 111.5C303.5 138.8 275.4 167.3 238.8 194.7C277.5 170.4 314.2 154.4 345.8 148.1C388 139.7 406.7 150.8 412.7 155.9C421.2 163.1 423.3 173 418.5 183.1C415.1 190.3 402.6 208 360.5 217.5C329 224.6 289 224.9 243.8 218.5C288.4 228.7 325.6 243.4 352.4 261.2C388.2 285.1 393.6 306.1 394.2 314.1C395.1 325.2 389.6 333.7 379.1 337.4C371.6 340.1 350.2 343.8 313.8 320.7C286.5 303.5 258 275.4 230.6 238.8C254.9 277.5 270.9 314.2 277.2 345.8C285.6 388 274.5 406.7 269.4 412.7C264.7 418.2 258.9 421 252.6 421ZM211.7 220.3C201.5 275.2 200.5 323.6 208.8 360.3C218.2 401.9 235.6 414.2 242.6 417.6C252.2 422.2 261.7 420.2 268.6 412.1C273.7 406.2 284.6 387.8 276.2 346C268.8 309.1 248.2 265.3 216.6 219.3L217.4 218.7C249 264.7 282.5 299.6 314.3 319.7C350.3 342.5 371.4 338.9 378.7 336.3C388.7 332.8 394 324.6 393.2 314C392.6 306.2 387.3 285.5 351.9 261.9C320.6 241 275 224.6 220.2 214.4L220.4 213.4C275.3 223.6 323.7 224.6 360.4 216.3C402 206.9 414.3 189.5 417.7 182.5C422.3 172.9 420.3 163.4 412.2 156.5C406.3 151.4 387.9 140.5 346.1 148.9C309.2 156.3 265.4 176.9 219.4 208.5L218.8 207.7C264.8 176.1 299.7 142.6 319.8 110.8C342.6 74.8002 339 53.7002 336.4 46.4002C332.9 36.4002 324.7 31.1002 314.1 31.9002C306.3 32.5002 285.6 37.8002 262 73.2002C241.1 104.5 224.7 150.1 214.5 204.9L213.5 204.7C223.7 149.8 224.7 101.4 216.4 64.7002C207.1 23.3002 189.6 11.0002 182.6 7.60021C173 3.00021 163.5 5.00021 156.6 13.1002C151.5 19.0002 140.6 37.4002 149 79.2002C156.4 116.1 177 159.9 208.6 205.9L207.8 206.5C176.2 160.5 142.7 125.6 110.9 105.5C74.9 82.7002 53.8 86.3002 46.5 88.9002C36.5 92.4002 31.2 100.6 32 111.2C32.6 119 37.9 139.7 73.3 163.3C104.6 184.2 150.2 200.6 205 210.8L204.8 211.8C149.9 201.6 101.5 200.6 64.8 208.9C23.3 218.1 11 235.6 7.59997 242.6C2.99997 252.2 4.99997 261.7 13.1 268.6C19 273.7 37.4 284.6 79.2 276.2C116.1 268.8 159.9 248.2 205.9 216.6L206.5 217.4C160.5 249 125.6 282.5 105.5 314.3C82.7 350.3 86.3 371.4 88.9 378.7C92.4 388.7 100.6 394 111.2 393.2C119 392.6 139.7 387.3 163.3 351.9C184.2 320.6 200.6 275 210.8 220.2L211.7 220.3Z" fill="white"/>
<path d="M239.4 423.4C235.6 423.4 231.6 422.3 227.7 420.1C220.8 416.2 203.9 402.5 197.4 359.9C192.5 328 195 288.1 204.6 243.4C191.3 287.1 174.1 323.3 154.4 348.8C128.1 382.9 106.7 386.7 98.7 386.8C98.6 386.8 98.5 386.8 98.4 386.8C87.4 386.8 79.4 380.7 76.5 370.1C74.4 362.4 72.2 340.8 97.7 306.1C116.8 280.1 146.8 253.6 185.2 228.8C144.9 250.3 107.2 263.7 75.2 267.8C32.5 273.3 14.7 260.9 8.99995 255.3C1.09995 247.5 -0.300047 237.5 5.09995 227.8C8.99995 220.9 22.7 204 65.2999 197.5C97.2 192.6 137.1 195.1 181.8 204.7C138.1 191.4 101.9 174.2 76.4 154.5C42.3 128.2 38.5 106.8 38.4 98.8C38.3 87.7001 44.4 79.6001 55.1 76.6001C62.8 74.5001 84.3999 72.3 119.1 97.8C145.1 116.9 171.6 146.9 196.4 185.3C174.9 145 161.5 107.3 157.4 75.3C151.9 32.6 164.3 14.8001 169.9 9.10005C177.7 1.20005 187.7 -0.19995 197.4 5.20005C204.3 9.10005 221.2 22.8001 227.7 65.4001C232.6 97.3001 230.1 137.2 220.5 181.9C233.8 138.2 251 102 270.7 76.5001C297 42.4001 318.4 38.6001 326.4 38.5001C337.6 38.4001 345.6 44.5 348.6 55.2001C350.7 62.9001 352.9 84.5001 327.4 119.2C308.3 145.2 278.3 171.7 239.9 196.5C280.2 175 317.9 161.6 349.9 157.5C392.6 152 410.4 164.4 416.1 170C424 177.8 425.4 187.8 420 197.5C416.1 204.4 402.4 221.3 359.8 227.8C327.9 232.7 288 230.2 243.3 220.6C287 233.9 323.2 251.1 348.7 270.8C382.8 297.1 386.6 318.5 386.7 326.5C386.8 337.6 380.7 345.7 370 348.7C362.3 350.8 340.7 353 306 327.5C280 308.4 253.5 278.4 228.7 240C250.2 280.3 263.6 318 267.7 350C273.2 392.7 260.8 410.5 255.2 416.2C250.6 421 245.1 423.4 239.4 423.4ZM211.1 220.3C197.1 274.3 192.7 322.5 198.4 359.7C204.8 401.8 221.4 415.3 228.2 419.2C237.5 424.4 247 423.1 254.5 415.5C260 409.9 272.1 392.4 266.7 350.1C261.9 312.8 244.4 267.6 216.1 219.5L217 219C245.3 267.1 276.3 304.3 306.6 326.6C341 351.8 362.2 349.7 369.7 347.6C379.9 344.8 385.8 337 385.7 326.4C385.6 318.6 381.8 297.6 348.1 271.5C318.3 248.5 274 228.9 220 215L220.2 214C274.2 228 322.5 232.4 359.6 226.7C401.7 220.3 415.3 203.7 419.1 196.9C424.3 187.6 423 178.1 415.4 170.6C409.8 165.1 392.3 153 350 158.4C312.7 163.2 267.5 180.7 219.4 209L218.9 208.1C267 179.8 304.2 148.8 326.5 118.5C351.7 84.1 349.6 62.9001 347.5 55.4001C344.7 45.2001 337.1 39.4001 326.6 39.4001C326.5 39.4001 326.4 39.4001 326.4 39.4001C318.6 39.5001 297.6 43.3001 271.5 77.0001C248.5 106.8 228.9 151.1 215 205.1L214 204.9C228 150.9 232.4 102.7 226.7 65.5001C220.3 23.4001 203.7 9.90005 196.9 6.00005C187.6 0.800054 178.1 2.10005 170.6 9.70005C165.1 15.3001 153 32.8001 158.4 75.1001C163.2 112.4 180.7 157.6 209 205.7L208.1 206.2C179.8 158.1 148.8 120.9 118.5 98.6001C84.0999 73.4001 62.9 75.5001 55.4 77.6001C45.2 80.4001 39.3 88.2001 39.4 98.8C39.5 106.6 43.3 127.6 77 153.7C106.8 176.7 151.1 196.3 205.1 210.2L204.9 211.2C150.9 197.2 102.7 192.8 65.5 198.5C23.4 204.9 9.89995 221.5 5.99995 228.3C0.799954 237.6 2.09995 247.1 9.69995 254.6C15.3 260.1 32.8 272.2 75.1 266.8C112.4 262 157.6 244.5 205.7 216.2L206.2 217.1C158.1 245.4 120.9 276.4 98.6 306.7C73.3999 341.1 75.5 362.3 77.6 369.8C80.4 380 87.9999 385.8 98.4999 385.8C98.5999 385.8 98.7 385.8 98.7 385.8C106.5 385.7 127.5 381.9 153.6 348.2C176.6 318.4 196.2 274.1 210.1 220.1L211.1 220.3Z" fill="white"/>
<path d="M226 424.8C221.7 424.8 217.4 423.4 213.2 420.7C206.6 416.3 190.7 401.4 187.2 358.5C184.6 326.4 189.8 286.7 202.5 242.8C186.2 285.5 166.5 320.3 145.1 344.4C116.5 376.6 94.8999 378.9 86.8999 378.4C75.7999 377.7 68.1999 371.1 65.9999 360.2C64.3999 352.4 63.6999 330.7 91.5999 297.9C112.5 273.3 144.2 249 184.2 226.9C142.5 245.5 103.9 256.3 71.6999 258.1C68.1999 258.3 64.7999 258.4 61.5999 258.4C25.9999 258.4 11.2999 246.5 6.4999 241C-0.900102 232.7 -1.6001 222.6 4.5999 213.3C8.9999 206.7 23.8999 190.8 66.7999 187.3C98.8999 184.7 138.6 189.9 182.5 202.6C139.8 186.3 105 166.6 80.8999 145.2C48.6999 116.6 46.3999 95 46.8999 87C47.5999 75.9 54.1999 68.3 65.0999 66.1C72.8999 64.5 94.5999 63.8 127.4 91.7C152 112.6 176.3 144.3 198.4 184.3C179.8 142.6 169 104 167.2 71.8C164.7 28.8 178.3 11.9 184.3 6.6C192.6 -0.800004 202.7 -1.50001 212 4.69999C218.6 9.09999 234.5 24 238 66.9C240.6 99 235.4 138.7 222.7 182.6C239 139.9 258.7 105.1 280.1 81C308.7 48.8 330.3 46.5 338.3 47C349.4 47.7 357 54.3 359.2 65.2C360.8 73 361.5 94.7 333.6 127.5C312.7 152.1 281 176.4 241 198.5C282.7 179.9 321.3 169.1 353.5 167.3C396.5 164.8 413.4 178.4 418.7 184.4C426.1 192.7 426.8 202.8 420.6 212.1C416.2 218.7 401.3 234.6 358.4 238.1C326.3 240.7 286.6 235.5 242.7 222.8C285.4 239.1 320.2 258.8 344.3 280.2C376.5 308.8 378.8 330.4 378.3 338.4C377.6 349.5 371 357.1 360.1 359.3C352.3 360.9 330.6 361.6 297.8 333.7C273.2 312.8 248.9 281.1 226.8 241.1C245.4 282.8 256.2 321.4 258 353.6C260.5 396.6 246.9 413.5 240.9 418.8C236.4 422.7 231.3 424.8 226 424.8ZM210.6 220.1C192.9 273 185.2 320.8 188.2 358.3C191.7 400.8 207.2 415.4 213.7 419.7C222.6 425.6 232.2 424.9 240.2 417.8C246.1 412.6 259.4 396 256.9 353.4C254.7 315.8 240.4 269.6 215.5 219.6L216.4 219.2C241.3 269.1 269.6 308.4 298.3 332.8C330.8 360.4 352.1 359.7 359.8 358.2C370.2 356.1 376.6 348.8 377.2 338.2C377.7 330.4 375.4 309.2 343.5 280.8C315.4 255.8 272.6 233.2 219.7 215.5L220 214.6C272.9 232.3 320.7 240 358.2 237C400.7 233.5 415.3 218 419.6 211.5C425.5 202.6 424.8 193 417.7 185C412.5 179.1 395.9 165.8 353.3 168.3C315.7 170.5 269.5 184.8 219.5 209.7L219.1 208.8C269 183.9 308.3 155.6 332.7 126.9C360.3 94.4 359.6 73.1 358.1 65.4C356 55 348.7 48.6 338.1 48C330.3 47.5 309.1 49.9 280.7 81.7C255.7 109.8 233.1 152.6 215.4 205.5L214.5 205.2C232.2 152.3 239.9 104.5 236.9 67C233.4 24.5 217.9 9.9 211.4 5.6C202.5 -0.300004 192.9 0.399998 184.9 7.5C179 12.7 165.7 29.3 168.2 71.9C170.4 109.5 184.7 155.7 209.6 205.7L208.7 206.1C183.8 156.2 155.5 116.9 126.8 92.5C94.2999 64.9 72.9999 65.6 65.2999 67.1C54.8999 69.2 48.4999 76.5 47.8999 87.1C47.3999 94.9 49.6999 116.1 81.5999 144.5C109.7 169.5 152.5 192.1 205.4 209.8L205.1 210.7C152.2 193 104.4 185.3 66.8999 188.3C24.3999 191.8 9.7999 207.3 5.4999 213.8C-0.400102 222.7 0.299896 232.3 7.3999 240.3C12.5999 246.2 29.1999 259.5 71.7999 257C109.4 254.8 155.6 240.5 205.6 215.6L206 216.5C156.1 241.4 116.8 269.7 92.3999 298.4C64.7999 330.9 65.4999 352.2 66.9999 359.9C69.0999 370.3 76.3999 376.7 86.9999 377.3C94.7999 377.8 116 375.5 144.4 343.6C169.4 315.5 192 272.7 209.7 219.8L210.6 220.1Z" fill="white"/>
<path d="M212.6 425.2C207.9 425.2 203.1 423.5 198.7 420.1C192.4 415.3 177.6 399.3 177.1 356.3C176.7 324.1 184.7 284.9 200.4 241.9C181.1 283.4 159.1 316.7 136 339.3C105.2 369.4 83.5 370.2 75.6 369.2C64.6 367.7 57.4 360.6 56 349.6C55 341.7 55.8 320 85.9 289.2C108.4 266.1 141.8 244.1 183.3 224.8C140.4 240.5 101.1 248.5 68.9 248.1C25.8 247.6 9.9 232.8 5.1 226.5C-1.7 217.7 -1.7 207.6 5.1 198.7C9.9 192.4 25.9 177.6 68.9 177.1C69.6 177.1 70.4 177.1 71.1 177.1C102.9 177.1 141.3 185.1 183.2 200.4C141.7 181.1 108.4 159.1 85.8 136C55.7 105.2 54.9 83.5 55.9 75.6C57.4 64.6 64.5 57.4 75.5 56C83.4 55 105.1 55.8 135.9 85.9C159 108.4 181 141.8 200.3 183.3C184.6 140.4 176.6 101.2 177 68.9C177.5 25.8 192.3 9.9 198.6 5.1C207.4 -1.7 217.5 -1.7 226.4 5.1C232.7 9.9 247.5 25.9 248 68.9C248.4 101.1 240.4 140.3 224.7 183.3C244 141.8 266 108.5 289.1 85.9C319.9 55.8 341.6 55 349.5 56C360.5 57.5 367.7 64.6 369.1 75.6C370.1 83.5 369.3 105.2 339.2 136C316.7 159.1 283.3 181.1 241.8 200.4C284.7 184.7 323.9 176.7 356.2 177.1C399.3 177.6 415.2 192.4 420 198.7C426.8 207.5 426.8 217.6 420 226.5C415.2 232.8 399.2 247.6 356.2 248.1C323.9 248.5 284.8 240.5 241.8 224.8C283.3 244.1 316.6 266.1 339.2 289.2C369.3 320 370.1 341.7 369.1 349.6C367.6 360.6 360.5 367.8 349.5 369.2C341.6 370.2 319.9 369.4 289.1 339.3C266 316.8 244 283.4 224.7 241.9C240.4 284.8 248.4 324 248 356.3C247.5 399.4 232.7 415.3 226.4 420.1C222.1 423.6 217.3 425.2 212.6 425.2ZM210.1 220C188.7 271.6 177.7 318.7 178.1 356.3C178.6 398.9 193.1 414.6 199.3 419.4C207.7 425.9 217.4 425.9 225.8 419.4C232 414.6 246.5 399 247 356.3C247.5 318.7 236.4 271.5 215 220L215.9 219.6C237.3 271.2 262.8 312.3 289.7 338.6C320.2 368.4 341.5 369.2 349.3 368.2C359.8 366.8 366.7 360 368.1 349.4C369.1 341.6 368.3 320.3 338.5 289.8C312.2 262.9 271.1 237.3 219.5 216L219.9 215.1C271.5 236.5 318.6 247.5 356.2 247.1C398.8 246.6 414.5 232.1 419.3 225.9C425.8 217.5 425.8 207.8 419.3 199.4C414.5 193.2 398.9 178.7 356.2 178.2C318.6 177.7 271.4 188.8 219.9 210.2L219.5 209.3C271.1 187.9 312.2 162.4 338.5 135.5C368.3 105 369.1 83.7 368.1 75.9C366.7 65.4 359.9 58.5 349.3 57.1C341.6 56.1 320.2 56.9 289.7 86.7C262.8 113 237.2 154.1 215.9 205.7L215 205.3C236.4 153.7 247.4 106.6 247 69C246.5 26.4 232 10.7 225.8 5.9C217.4 -0.6 207.7 -0.6 199.3 5.9C193.1 10.7 178.6 26.3 178.1 69C177.6 106.6 188.7 153.8 210.1 205.3L209.2 205.7C187.8 154.1 162.3 113 135.4 86.7C104.9 56.9 83.6 56.1 75.8 57.1C65.3 58.5 58.4 65.3 57 75.9C56 83.7 56.8 105 86.6 135.5C112.9 162.4 154 188 205.6 209.3L205.2 210.2C153.6 188.8 106.5 177.8 68.9 178.2C26.3 178.7 10.6 193.2 5.8 199.4C-0.699999 207.8 -0.699999 217.5 5.8 225.9C10.6 232.1 26.2 246.6 68.9 247.1C106.5 247.6 153.7 236.5 205.2 215.1L205.6 216C154 237.4 112.9 262.9 86.6 289.8C56.8 320.3 56 341.6 57 349.4C58.4 359.9 65.2 366.8 75.8 368.2C83.6 369.2 104.9 368.4 135.4 338.6C162.3 312.3 187.9 271.2 209.2 219.6L210.1 220Z" fill="white"/>
</svg>
