<svg width="404" height="440" viewBox="0 0 404 440" fill="none" xmlns="http://www.w3.org/2000/svg">
<path d="M291.569 439.679C286.569 439.679 281.469 439.179 276.169 438.179C257.269 434.579 238.469 425.279 220.269 416.379C217.969 415.279 215.669 414.079 213.369 412.979C210.369 411.479 207.369 409.979 204.269 408.479C186.869 399.779 168.769 390.779 149.869 386.979C127.369 382.479 104.169 387.979 81.6692 393.279C78.8691 393.979 76.1692 394.579 73.3691 395.179C72.6692 395.279 71.9692 395.379 71.1692 395.479C62.9692 396.479 51.6692 397.779 46.7691 388.979C37.9692 364.879 37.9691 340.379 38.0691 316.679C38.0691 299.879 38.0691 282.479 35.0691 265.279C30.7691 241.179 21.9691 216.779 13.3691 193.179C9.06915 181.279 4.56915 168.979 0.869149 157.079C-1.53085 149.479 1.16915 141.179 7.36915 137.179C18.4691 130.579 30.1691 125.079 41.4691 119.679C58.5691 111.579 76.2692 103.279 91.9692 90.9787C109.169 77.5787 125.369 62.3788 140.969 47.6788C156.869 32.6788 173.269 17.2787 190.869 3.57875C196.969 -1.02125 205.469 -1.22125 212.369 3.17875C229.469 12.6787 248.469 15.1788 266.769 17.5788C284.469 19.8787 302.769 22.2788 319.069 31.0788C343.669 44.3787 357.069 69.5788 369.969 93.8787C377.769 108.479 385.769 123.579 396.069 135.679C402.069 141.779 404.469 149.879 402.269 156.879C397.769 170.779 393.169 184.779 388.569 198.379C381.369 219.979 373.969 242.379 367.169 264.579C356.569 298.979 352.569 335.179 348.769 370.279C347.669 380.679 346.469 391.479 345.069 402.079C343.769 411.679 338.769 421.179 332.769 425.579C320.169 434.979 306.669 439.679 291.569 439.679ZM131.969 384.279C137.969 384.279 143.969 384.779 149.869 385.979C168.969 389.779 187.069 398.779 204.569 407.579C207.569 409.079 210.669 410.579 213.669 412.079C215.969 413.179 218.269 414.379 220.569 415.479C257.469 433.679 295.569 452.479 331.869 424.779C337.669 420.479 342.469 411.279 343.769 401.979C345.069 391.479 346.269 380.679 347.469 370.279C351.369 335.179 355.269 298.879 365.969 264.479C372.769 242.279 380.269 219.979 387.469 198.279C391.969 184.679 396.669 170.679 401.169 156.779C403.269 150.179 400.969 142.479 395.169 136.579C384.769 124.379 376.769 109.279 368.969 94.5787C356.069 70.3787 342.769 45.2787 318.469 32.1787C302.369 23.4787 284.069 21.0788 266.469 18.7788C248.069 16.3788 228.969 13.8788 211.669 4.27875C205.069 0.0787506 197.069 0.17875 191.269 4.57875C173.769 18.1787 157.369 33.5787 141.469 48.5787C125.869 63.2787 109.669 78.5787 92.4692 91.9787C76.6692 104.279 58.9692 112.679 41.7691 120.779C30.4692 126.079 18.8692 131.579 7.76915 138.179C2.06915 141.879 -0.53085 149.779 1.76915 156.879C5.46915 168.779 9.96915 181.079 14.2691 192.979C22.7691 216.579 31.6691 240.979 35.9691 265.179C39.0691 282.479 39.0691 299.879 39.0691 316.779C39.0691 340.379 39.0692 364.679 47.6692 388.579C52.2691 396.679 63.1691 395.379 71.0691 394.479C71.7691 394.379 72.4692 394.279 73.1692 394.279C75.8691 393.679 78.5691 392.979 81.3691 392.379C97.9691 388.279 115.069 384.279 131.969 384.279Z" fill="white"/>
<path d="M290.569 421.579C267.269 421.579 243.669 410.479 222.169 400.279C218.969 398.779 215.869 397.279 212.769 395.879C210.669 394.879 208.569 393.979 206.469 392.979C189.969 385.279 172.969 377.379 155.169 372.879C133.069 367.179 112.269 371.279 90.3689 375.579L88.969 375.879C77.069 378.379 66.969 375.179 64.669 368.079C59.369 349.479 57.869 330.179 56.369 311.479C54.969 294.179 53.569 276.179 49.169 258.979C44.369 240.579 37.669 222.179 31.169 204.479C26.169 190.979 21.069 176.979 16.869 163.079C14.569 155.179 17.069 147.379 22.869 144.579C31.069 140.679 39.1689 137.279 47.0689 134.079C65.0689 126.679 81.9689 119.679 98.169 106.879C116.369 92.5788 132.969 75.7788 149.069 59.4788C162.369 45.9788 176.169 32.0788 190.769 19.6788C196.769 14.8788 205.269 13.7788 213.069 16.8788C227.669 21.4788 243.569 21.4788 258.969 21.4788C278.069 21.4788 297.769 21.3788 314.769 30.2788C341.369 44.1788 354.369 73.7788 367.069 102.379C371.969 113.479 376.569 123.879 381.869 133.179C387.169 141.679 389.069 150.279 386.969 156.779C382.169 171.979 376.969 187.279 372.069 202.179C365.869 220.679 359.469 239.879 353.569 258.779C342.469 294.379 339.769 332.179 337.069 368.779C336.569 375.279 336.069 381.879 335.569 388.479C334.669 399.379 329.769 409.179 323.569 412.779C312.769 419.079 301.669 421.579 290.569 421.579ZM132.169 368.979C139.869 368.979 147.569 369.779 155.469 371.779C173.269 376.379 190.369 384.279 206.869 391.979C208.969 392.979 211.069 393.979 213.169 394.879C216.269 396.279 219.369 397.779 222.569 399.279C254.169 414.179 290.069 431.179 322.969 411.779C328.969 408.379 333.569 398.879 334.469 388.279C334.969 381.779 335.469 375.079 335.969 368.579C338.669 331.979 341.369 294.079 352.469 258.379C358.369 239.379 364.769 220.279 370.969 201.779C375.969 186.879 381.069 171.579 385.869 156.379C387.869 150.279 385.969 141.679 380.869 133.579C375.569 124.179 370.969 113.779 366.069 102.679C353.569 74.1788 340.569 44.7788 314.269 31.0788C297.469 22.2788 277.869 22.3788 258.869 22.3788C243.369 22.3788 227.369 22.4788 212.569 17.7788C205.069 14.7788 196.969 15.7788 191.269 20.3788C176.669 32.7788 162.969 46.6788 149.669 60.1788C133.569 76.4788 116.969 93.2788 98.669 107.579C82.369 120.279 65.3689 127.379 47.369 134.779C39.469 138.079 31.369 141.379 23.169 145.279C17.769 147.879 15.469 155.179 17.669 162.579C21.869 176.479 27.069 190.379 31.969 203.879C38.469 221.679 45.269 239.979 50.069 258.479C54.569 275.779 55.969 293.779 57.269 311.079C58.769 329.679 60.269 348.979 65.469 367.479C67.669 374.079 77.269 377.079 88.669 374.679L90.0689 374.379C104.369 371.679 118.169 368.979 132.169 368.979Z" fill="white"/>
<path d="M288.069 400.079C265.969 400.079 243.069 390.279 222.269 381.379C218.469 379.779 214.969 378.279 211.369 376.779C173.769 361.279 144.169 350.779 103.869 356.579C92.9689 358.379 83.8689 354.479 81.7689 347.279C78.1689 333.479 75.9689 319.179 73.7689 305.379C71.0689 287.879 68.1689 269.779 62.6689 252.679C58.1689 238.679 52.5689 224.779 47.1689 211.279C41.8689 198.079 36.3689 184.479 31.8689 170.779C29.4689 163.079 31.8689 155.779 37.3689 153.879L42.2689 152.179C65.0689 144.479 84.7689 137.779 104.269 122.179C123.569 106.879 140.469 88.2789 156.869 70.2789C167.769 58.3789 178.969 46.0789 190.769 34.7789C196.869 29.2789 205.669 26.8789 214.369 28.3789C226.069 29.4789 238.969 27.6789 251.369 26.0789C271.669 23.2789 292.569 20.4789 310.269 29.2789C337.569 42.8789 349.869 75.8789 360.669 104.979C363.469 112.579 366.169 119.679 368.969 126.279C373.669 136.479 375.069 146.079 372.869 152.879C367.869 168.279 362.669 183.779 357.569 198.779C351.569 216.379 345.469 234.579 339.769 252.579C328.469 288.179 326.669 326.079 324.769 362.679C324.669 365.579 324.469 368.379 324.369 371.279C323.769 383.179 318.869 392.979 312.269 395.479C304.469 398.679 296.269 400.079 288.069 400.079ZM125.769 354.079C155.869 354.079 181.169 363.379 211.769 375.979C215.269 377.479 218.869 378.979 222.669 380.579C251.069 392.779 283.269 406.479 312.169 394.579C318.369 392.179 323.069 382.679 323.669 371.279C323.769 368.379 323.969 365.579 324.069 362.679C325.869 325.979 327.769 288.079 339.069 252.379C344.769 234.379 350.969 216.179 356.869 198.579C361.969 183.579 367.269 167.979 372.169 152.679C374.269 146.179 372.869 136.779 368.269 126.779C365.469 120.179 362.769 112.979 359.969 105.479C349.169 76.4789 337.069 43.6789 310.069 30.2789C292.669 21.5789 271.869 24.4789 251.769 27.1789C239.269 28.8789 226.269 30.6789 214.469 29.4789C206.069 27.9789 197.569 30.3789 191.669 35.6789C179.869 46.8789 168.669 59.1789 157.769 71.0789C141.369 89.0789 124.369 107.679 104.969 123.079C85.2689 138.679 65.4689 145.479 42.6689 153.179L37.7689 154.879C32.7689 156.679 30.6689 163.379 32.8689 170.579C37.3689 184.279 42.7689 197.879 48.0689 211.079C53.4689 224.579 59.0689 238.479 63.6689 252.579C69.1689 269.779 72.0689 287.879 74.7689 305.379C76.9689 319.179 79.1689 333.479 82.6689 347.179C84.6689 353.979 93.2689 357.479 103.669 355.779C111.469 354.579 118.769 354.079 125.769 354.079Z" fill="white"/>
<path d="M283.469 375.879C262.669 375.879 240.869 367.879 221.069 360.679C217.069 359.179 213.169 357.779 209.469 356.479C180.469 346.379 150.569 335.979 117.469 338.479C107.669 339.479 99.469 335.079 97.369 327.779C94.969 318.779 92.869 309.479 90.869 300.479C86.869 282.679 82.769 264.379 76.069 247.079C71.869 236.079 66.869 225.179 62.069 214.679C56.869 203.279 51.369 191.479 46.969 179.379C45.469 175.079 45.569 170.979 47.169 167.979C48.269 165.979 49.869 164.679 51.969 164.079C102.769 151.579 133.069 116.479 165.169 79.3789C173.669 69.5789 182.469 59.3789 191.669 49.5789C198.169 42.9789 207.269 38.9789 216.769 38.6789C225.769 37.8789 235.569 35.2789 245.869 32.4789C266.769 26.9789 288.269 21.2789 305.969 29.0789C332.569 40.6789 343.469 74.4789 352.269 101.579C354.069 107.179 355.769 112.379 357.469 117.179C360.869 125.279 362.969 137.579 360.169 146.779C354.469 163.979 348.569 181.279 342.769 198.079C337.569 213.479 332.069 229.279 326.869 244.979C315.869 277.979 313.769 310.779 312.269 350.379C311.869 362.879 306.769 372.279 299.669 373.679C294.369 375.379 288.969 375.879 283.469 375.879ZM127.469 337.179C156.869 337.179 183.769 346.579 209.869 355.579C213.669 356.879 217.469 358.279 221.569 359.779C246.369 368.879 274.469 379.079 299.569 373.079C306.169 371.779 310.969 362.579 311.469 350.679C313.069 311.079 315.069 278.079 326.169 244.979C331.369 229.279 336.769 213.479 342.069 198.079C347.769 181.279 353.769 163.879 359.369 146.779C362.169 137.779 359.969 125.779 356.669 117.779C354.869 112.879 353.169 107.679 351.369 102.079C342.669 75.1789 331.769 41.5789 305.669 30.1789C288.269 22.5789 266.869 28.1789 246.169 33.6789C235.769 36.3789 225.869 38.9789 216.869 39.8789C207.569 40.1789 198.669 43.9789 192.369 50.3789C183.169 60.1789 174.369 70.2789 165.869 80.0789C133.669 117.279 103.269 152.479 52.169 165.079C50.369 165.579 48.869 166.679 47.969 168.479C46.469 171.279 46.469 175.079 47.869 179.079C52.369 191.079 57.769 202.879 62.969 214.279C67.769 224.779 72.769 235.679 77.069 246.679C83.769 263.979 87.869 282.479 91.869 300.179C93.869 309.179 95.969 318.379 98.369 327.379C100.269 334.179 108.169 338.279 117.469 337.379C120.769 337.379 124.069 337.179 127.469 337.179Z" fill="white"/>
<path d="M285.569 349.679C258.569 349.379 232.369 342.479 206.969 335.679C181.869 328.979 155.869 322.079 129.069 321.779C120.469 321.979 112.869 317.179 110.669 309.879C109.269 304.979 107.869 299.879 106.569 294.979C101.769 277.379 96.7692 259.079 89.0692 242.279C84.9692 233.379 80.3692 224.679 75.7692 216.279C70.9692 207.279 65.9692 197.979 61.6692 188.479C60.0692 184.679 59.9692 180.979 61.3692 178.279C62.3692 176.379 63.9692 175.179 66.1692 174.779C112.769 165.679 141.669 128.579 169.569 92.5787C176.869 83.1787 184.369 73.4787 192.069 64.5787C200.369 57.1787 208.069 50.9787 218.869 48.9787C225.069 47.4787 232.469 44.6787 240.269 41.7787C260.369 34.2787 283.169 25.8787 300.169 32.0787C324.669 41.0787 334.169 71.9787 341.769 96.7787C343.069 100.979 344.269 105.079 345.569 108.679C348.269 116.879 350.769 129.179 347.069 141.279C343.769 150.979 340.369 160.779 337.069 170.179C318.769 222.479 301.469 271.879 298.769 327.979C298.569 340.579 293.169 349.279 285.569 349.679ZM129.169 320.779C156.069 321.079 182.069 328.079 207.269 334.779C232.569 341.479 258.669 348.479 285.569 348.679C292.469 348.379 297.569 339.879 297.969 327.979C300.669 271.779 317.969 222.279 336.269 169.879C339.569 160.479 342.969 150.779 346.269 141.079C349.869 129.279 347.469 117.179 344.769 109.079C343.569 105.379 342.269 101.379 340.969 97.0787C333.469 72.4787 324.069 41.7787 299.969 32.9787C283.369 26.8787 260.669 35.2787 240.769 42.6787C232.969 45.5787 225.469 48.3787 219.269 49.8787C208.669 51.7787 201.069 57.9787 192.869 65.1787C185.169 74.0787 177.669 83.7787 170.369 93.1787C142.369 129.279 113.369 166.579 66.3692 175.679C64.5692 176.079 63.1692 177.079 62.2692 178.679C60.9692 181.079 61.1692 184.479 62.5692 187.979C66.7692 197.479 71.7692 206.679 76.6692 215.679C81.1692 224.179 85.8692 232.879 89.9692 241.779C97.6692 258.679 102.769 276.879 107.569 294.579C108.869 299.479 110.269 304.479 111.669 309.379C113.769 316.379 120.969 320.979 129.169 320.779Z" fill="white"/>
<path d="M271.069 323.779H270.969C248.769 322.679 226.569 318.679 205.169 314.779C183.769 310.879 161.669 306.879 139.569 305.779C131.669 305.679 124.669 300.579 122.369 293.179C111.769 259.179 97.169 232.979 80.169 202.679L76.869 196.779C75.169 193.479 74.869 190.379 75.969 187.979C76.869 186.079 78.569 184.879 80.769 184.379C122.269 176.179 149.669 138.179 173.869 104.679C180.369 95.6787 186.469 87.2787 192.769 79.3787C200.469 69.9787 210.569 62.7787 221.369 59.0787C226.169 57.3787 231.669 54.9787 237.369 52.5787C255.569 44.7787 276.169 35.8787 292.869 39.6787C314.769 44.7787 323.969 72.8787 330.569 93.3787C331.569 96.2787 332.369 99.0787 333.269 101.579C337.069 113.479 337.269 125.879 333.769 136.779C329.569 148.979 324.969 161.379 320.469 173.379C304.869 215.479 288.669 258.979 285.069 304.179C284.469 315.879 278.769 323.779 271.069 323.779ZM193.569 79.9787C187.269 87.7787 181.169 96.2787 174.769 105.279C150.469 138.979 122.969 177.079 81.069 185.379C79.169 185.779 77.669 186.779 76.969 188.379C75.969 190.479 76.269 193.379 77.769 196.279L81.069 202.179C98.069 232.579 112.669 258.779 123.369 292.879C125.569 299.879 132.069 304.679 139.569 304.779C161.769 305.879 183.969 309.879 205.369 313.779C226.769 317.679 248.869 321.679 270.969 322.779H271.069C278.069 322.779 283.469 315.079 284.269 304.079C287.869 258.779 304.069 215.179 319.669 172.979C324.069 160.979 328.669 148.579 332.869 136.479C336.269 125.879 336.069 113.579 332.369 101.979C331.469 99.4787 330.569 96.6787 329.669 93.7787C323.069 73.4787 313.969 45.6787 292.669 40.7787C276.269 36.9787 255.869 45.7787 237.769 53.5787C231.969 56.0787 226.569 58.3787 221.669 60.1787C211.169 63.6787 201.169 70.7787 193.569 79.9787Z" fill="white"/>
<path d="M257.069 299.079C256.969 299.079 256.869 299.079 256.769 299.079C238.869 298.279 220.769 296.379 203.269 294.479C185.769 292.579 167.669 290.679 149.869 289.879C141.769 289.679 134.969 284.779 132.669 277.379C124.169 250.779 111.669 232.279 97.2691 210.879C95.7691 208.579 94.1691 206.279 92.5691 203.879C90.8691 201.179 90.3691 198.579 91.1691 196.379C91.8691 194.479 93.6691 193.079 96.1691 192.379C131.769 183.279 156.169 147.979 177.669 116.679C183.169 108.779 188.269 101.179 193.469 94.3788C201.969 83.2788 212.369 74.8788 223.569 69.9788C227.169 68.4788 230.969 66.6788 234.969 64.7788C250.569 57.3788 268.169 49.0788 283.869 51.6788C303.269 54.9788 311.469 75.6788 317.969 92.3788C318.669 94.0788 319.269 95.7788 319.969 97.3788C323.969 108.979 323.969 122.179 319.769 134.479C315.169 147.579 309.969 160.779 304.469 174.679C290.669 209.579 276.469 245.679 272.069 281.179C270.469 291.979 264.569 299.079 257.069 299.079ZM194.069 94.9788C188.869 101.779 183.769 109.279 178.269 117.179C156.669 148.579 132.169 184.079 96.2691 193.279C94.0691 193.879 92.5691 194.979 91.9691 196.579C91.2691 198.379 91.7691 200.779 93.2691 203.179C94.8691 205.579 96.4691 207.879 97.9691 210.179C112.469 231.679 124.969 250.279 133.569 276.979C135.769 283.979 142.169 288.579 149.869 288.779C167.769 289.579 185.869 291.479 203.369 293.379C220.869 295.279 238.969 297.179 256.769 297.979C256.869 297.979 256.969 297.979 257.069 297.979C263.869 297.979 269.469 290.979 270.869 280.979C275.369 245.279 289.569 209.179 303.369 174.179C308.869 160.279 314.069 147.179 318.669 134.079C322.769 121.979 322.769 109.079 318.869 97.6788C318.269 96.0788 317.569 94.4788 316.869 92.6788C310.469 76.2788 302.469 55.7788 283.569 52.5788C268.269 49.9788 250.769 58.2788 235.269 65.5788C231.269 67.4788 227.369 69.2788 223.769 70.7788C212.769 75.7788 202.469 84.0788 194.069 94.9788Z" fill="white"/>
<path d="M243.969 276.979C243.869 276.979 243.869 276.979 243.769 276.979C229.769 276.679 215.569 276.079 201.869 275.479C188.169 274.879 173.969 274.279 160.069 273.979C152.169 273.879 145.169 268.879 142.869 261.479C134.669 239.479 123.769 226.779 108.669 209.079C106.869 206.979 106.269 204.779 106.769 202.779C107.369 200.679 109.169 199.079 111.969 198.079C140.469 188.179 162.969 154.779 181.069 127.979C185.469 121.479 189.569 115.379 193.569 109.979C202.169 99.5788 211.569 88.8788 224.769 82.3788C256.669 68.1788 284.669 59.5788 304.469 97.4788C310.469 112.179 306.669 127.579 303.969 135.479C299.469 148.079 294.769 160.879 290.069 173.179C279.269 202.079 268.069 231.879 259.969 261.779C257.369 272.279 250.169 276.979 243.969 276.979ZM194.369 110.479C190.469 115.879 186.269 121.979 181.969 128.479C163.769 155.379 141.069 188.979 112.369 198.979C109.869 199.879 108.269 201.279 107.769 202.979C107.369 204.579 107.869 206.479 109.469 208.279C124.069 225.379 135.569 238.879 143.869 260.979C146.069 267.879 152.669 272.679 160.169 272.779C174.169 273.079 188.269 273.679 201.969 274.279C215.669 274.879 229.869 275.479 243.869 275.779C250.769 275.879 256.969 269.979 259.069 261.379C267.269 231.379 278.369 201.579 289.169 172.679C293.769 160.279 298.569 147.479 303.069 134.979C305.769 127.179 309.469 111.979 303.669 97.6788C294.769 80.6788 284.069 72.2788 269.969 71.1788C257.269 70.1788 242.969 75.1788 225.369 82.9788C212.269 89.5788 202.869 100.179 194.369 110.479Z" fill="white"/>
<path d="M232.269 258.379C221.769 258.379 211.169 258.379 200.669 258.379C190.569 258.379 180.469 258.379 170.369 258.379C162.969 258.379 155.669 253.879 152.569 247.379C144.369 232.379 136.269 221.879 125.469 212.279C123.869 210.679 123.069 209.079 123.169 207.479C123.369 205.179 125.269 202.679 129.069 200.079C151.769 183.679 168.969 159.779 185.669 136.679C188.269 133.079 190.769 129.579 193.369 126.079C201.869 115.479 211.569 103.579 225.169 97.0788C247.369 89.4788 265.869 85.1788 286.569 103.879L286.669 103.979C293.769 114.779 290.569 129.879 286.669 140.679L280.669 157.379C270.569 185.579 260.169 214.679 250.269 243.579C247.269 252.879 240.569 258.379 232.269 258.379ZM194.369 126.479C191.869 129.979 189.269 133.479 186.669 137.079C169.869 160.279 152.569 184.279 129.769 200.779C126.269 203.279 124.469 205.379 124.269 207.479C124.169 208.879 124.769 210.179 126.169 211.479C136.969 221.179 145.169 231.779 153.469 246.879C156.369 252.979 163.369 257.279 170.369 257.279C180.469 257.279 190.569 257.279 200.669 257.279C211.169 257.279 221.669 257.279 232.269 257.279C240.169 257.279 246.369 252.079 249.469 242.979C259.269 214.179 269.769 184.979 279.869 156.779L285.869 140.079C289.669 129.479 292.769 114.779 285.969 104.279C265.669 85.9788 248.169 89.9788 225.669 97.6788C212.369 104.179 202.769 115.979 194.369 126.479Z" fill="white"/>
<path d="M179.069 243.479C171.969 243.479 165.169 239.879 162.069 234.279C157.669 225.879 151.069 217.379 144.069 210.879C142.669 209.579 141.969 207.979 141.969 206.279C141.969 203.079 144.269 199.279 149.169 194.579C165.069 179.379 178.569 161.379 191.669 144.079L193.569 141.479L194.369 140.479C202.869 130.179 211.669 119.479 224.569 114.679C240.169 111.479 252.969 109.679 266.069 117.579C275.169 125.679 270.969 141.779 267.669 150.579L266.269 154.379C258.469 176.179 250.469 198.679 242.669 220.979C240.469 229.579 231.969 239.179 222.969 239.879C215.869 240.479 208.769 240.979 201.669 241.579C194.569 242.179 187.569 242.779 180.469 243.279C179.969 243.479 179.469 243.479 179.069 243.479ZM194.269 142.279L192.369 144.879C179.269 162.279 165.769 180.279 149.769 195.579C145.269 199.979 142.969 203.579 142.969 206.479C142.969 207.979 143.569 209.179 144.669 210.279C151.769 216.779 158.369 225.379 162.869 233.879C165.969 239.479 173.169 242.979 180.369 242.479C187.469 241.979 194.469 241.379 201.569 240.779C208.669 240.179 215.769 239.579 222.869 239.079C231.369 238.479 239.569 229.079 241.669 220.879C249.469 198.579 257.469 176.079 265.269 154.279L266.669 150.479C269.869 141.879 273.969 126.179 265.369 118.579C252.669 110.979 239.969 112.679 224.769 115.879C212.269 120.479 203.469 131.079 195.069 141.379L194.269 142.279Z" fill="white"/>
<path d="M186.669 226.879C180.369 226.879 174.769 224.079 172.169 219.379C169.069 213.679 167.369 211.079 163.669 206.379C160.169 201.779 162.469 194.579 170.569 185.579C177.669 177.579 185.069 168.579 193.169 158.079C199.769 149.479 210.069 137.779 222.969 134.779C231.669 133.779 235.869 133.779 243.769 135.979H243.869C253.169 140.779 249.969 153.379 247.869 161.679C247.569 162.679 247.369 163.679 247.169 164.479C243.069 175.979 238.969 187.479 234.969 198.879C230.969 210.579 223.169 218.979 213.969 221.279C209.469 222.279 206.069 223.079 202.669 223.779C199.269 224.579 195.869 225.279 191.469 226.279C189.869 226.679 188.269 226.879 186.669 226.879ZM231.569 135.079C229.069 135.079 226.369 135.279 223.069 135.679C210.569 138.579 200.469 150.179 193.969 158.579C185.869 169.079 178.469 178.179 171.369 186.179C163.669 194.779 161.369 201.579 164.569 205.679C168.269 210.479 169.969 213.079 173.169 218.879C176.169 224.379 183.669 227.079 191.369 225.379C195.869 224.379 199.269 223.679 202.569 222.879C205.969 222.079 209.369 221.379 213.769 220.379C222.569 218.179 230.169 209.979 234.069 198.579C238.069 187.079 242.169 175.679 246.269 164.179C246.469 163.379 246.669 162.379 246.969 161.379C248.969 153.379 252.069 141.279 243.469 136.879C238.769 135.579 235.369 135.079 231.569 135.079Z" fill="white"/>
<path d="M195.769 206.679C190.369 206.679 185.969 204.379 183.969 200.179C181.069 194.179 184.169 185.179 192.669 174.679C202.669 162.379 211.869 156.179 220.869 155.679C223.369 155.879 225.269 157.079 226.569 159.079C229.369 163.379 229.169 170.979 226.169 179.579C221.869 191.679 213.869 200.979 204.069 204.979C201.169 206.179 198.369 206.679 195.769 206.679ZM220.869 156.779C212.269 157.279 203.269 163.379 193.469 175.379C185.169 185.579 182.069 194.179 184.869 199.779C187.669 205.479 195.469 207.279 203.769 204.079C213.269 200.179 221.169 191.079 225.269 179.279C228.169 171.079 228.369 163.579 225.769 159.679C224.569 157.879 222.969 156.879 220.869 156.779Z" fill="white"/>
</svg>
