<svg width="395" height="395" viewBox="0 0 395 395" fill="none" xmlns="http://www.w3.org/2000/svg">
<path d="M242.875 384.2C235.675 384.2 228.675 383.3 222.075 381.2C201.075 374.8 186.475 358.4 180.075 333.9C173.575 308.9 175.375 276.2 185.475 236.4C174.475 267 161.575 291.1 147.075 308.3C131.675 326.5 114.775 336.6 96.7749 338.4C69.0749 341.1 40.1749 322.2 23.1749 290.2C6.17495 258.3 6.67494 223.7 24.3749 202.2C35.8749 188.3 53.675 179.9 77.475 177.3C99.875 174.9 127.075 177.7 158.575 185.6C119.975 171.7 91.7749 154.9 74.6749 135.5C57.9749 116.5 52.4749 95.3 58.9749 74.3C71.8749 32 130.375 0.899974 172.675 13.8C193.675 20.2 208.275 36.6 214.675 61.1C221.175 86.1 219.375 118.8 209.275 158.6C223.175 120 239.975 91.8 259.375 74.8C278.375 58.1 299.575 52.6 320.575 59.1C362.875 72 393.975 130.5 381.075 172.8C374.675 193.8 358.275 208.4 333.775 214.8C308.775 221.3 276.075 219.5 236.275 209.4C274.875 223.3 303.075 240.1 320.075 259.5C336.775 278.5 342.275 299.7 335.775 320.7C324.875 356.5 281.575 384.2 242.875 384.2ZM192.275 216C177.275 265.1 173.475 304.6 181.075 333.6C187.375 357.8 201.675 373.9 222.375 380.2C228.875 382.2 235.875 383.1 242.875 383.1C281.175 383.1 324.075 355.7 334.875 320.4C341.175 299.7 335.875 278.9 319.375 260.1C299.575 237.6 264.675 218.6 215.575 203.6L215.875 202.6C264.975 217.6 304.475 221.4 333.475 213.8C357.675 207.5 373.775 193.2 380.075 172.5C392.875 130.6 362.175 72.8 320.275 60C299.575 53.7 278.775 59 259.975 75.5C237.475 95.3 218.475 130.2 203.475 179.3L202.475 179C217.475 129.9 221.275 90.4 213.675 61.4C207.375 37.2 193.075 21.1 172.375 14.8C152.375 8.69997 127.975 12.1 105.175 24.2C82.4749 36.3 65.9749 54.7 59.8749 74.6C53.5749 95.3 58.8749 116.1 75.3749 134.9C95.1749 157.4 130.075 176.4 179.175 191.4L178.875 192.4C138.575 180.1 104.575 175.4 77.5749 178.3C54.0749 180.9 36.4749 189.1 25.1749 202.8C7.67495 224 7.27494 258.1 24.0749 289.7C40.8749 321.3 69.375 340 96.6749 337.4C114.375 335.7 131.075 325.7 146.275 307.7C163.775 287 178.975 256.1 191.275 215.8L192.275 216Z" fill="white"/>
<path d="M235.575 387.1C226.375 387.1 217.375 385.6 209.175 382.5C188.675 374.6 175.275 357.3 170.575 332.4C165.775 307 169.875 274.5 182.675 235.5C166.175 273.1 147.375 300 126.875 315.6C106.775 331 85.1751 334.9 64.6751 327C23.4751 311.2 -3.42488 250.7 12.3751 209.4C20.2751 188.9 37.5751 175.5 62.4751 170.8C87.8751 166 120.375 170.1 159.375 183C129.675 169.9 106.475 155.4 90.3751 139.7C73.2751 123 64.3751 105.5 63.8751 87.3998C63.1751 59.4998 84.0751 31.9998 117.075 17.2998C150.175 2.59979 184.575 5.49979 204.775 24.5998C217.875 36.9998 224.975 55.3998 225.875 79.2998C226.775 101.8 222.075 128.7 211.875 159.6C224.975 129.8 239.475 106.7 255.175 90.4998C271.875 73.3998 289.375 64.4998 307.475 63.9998C335.275 63.1998 362.875 84.1998 377.575 117.2C392.275 150.3 389.375 184.7 370.275 204.9C357.875 218 339.475 225.1 315.575 226C293.075 226.9 266.175 222.2 235.275 212C272.875 228.5 299.775 247.3 315.475 267.8C330.875 287.9 334.775 309.5 326.875 330C314.175 363.2 272.775 387.1 235.575 387.1ZM190.975 215.6C172.575 263.5 166.075 302.7 171.675 332.2C176.275 356.7 189.375 373.8 209.675 381.6C217.775 384.7 226.675 386.2 235.775 386.2C272.575 386.2 313.475 362.6 326.075 329.8C333.875 309.6 329.975 288.4 314.775 268.6C296.575 244.8 263.075 223.4 215.175 205L215.575 204.1C254.875 219.2 288.575 226.3 315.675 225.2C339.275 224.3 357.475 217.3 369.675 204.4C388.575 184.5 391.375 150.5 376.875 117.8C362.275 85.0998 335.175 64.4998 307.775 65.1998C289.975 65.6998 272.675 74.4998 256.175 91.3998C237.275 110.8 219.975 140.6 204.875 179.9L203.975 179.5C219.075 140.2 226.175 106.5 225.075 79.3998C224.175 55.7998 217.175 37.5998 204.275 25.3998C184.375 6.49979 150.375 3.69979 117.675 18.1998C84.9751 32.7998 64.3751 59.8998 65.0751 87.2998C65.5751 105.1 74.3751 122.4 91.2751 138.9C110.675 157.8 140.475 175.1 179.775 190.2L179.375 191.1C131.475 172.7 92.2751 166.2 62.7751 171.8C38.2751 176.4 21.1751 189.5 13.3751 209.8C-2.32488 250.7 24.2751 310.5 65.1751 326.2C85.3751 334 106.575 330.1 126.375 314.9C150.175 296.7 171.575 263.2 189.975 215.3L190.975 215.6Z" fill="white"/>
<path d="M228.675 389.6C216.975 389.6 205.875 387.4 196.275 382.9C176.375 373.6 164.275 355.4 161.275 330.2C158.275 304.6 164.575 272.4 180.175 234.4C161.075 270.7 140.475 296.2 118.975 310.4C97.7749 324.3 76.0749 326.8 56.1749 317.5C15.9749 298.8 -6.62509 236.6 12.0749 196.4C21.3749 176.5 39.5749 164.4 64.7749 161.4C90.3749 158.4 122.575 164.7 160.575 180.3C124.275 161.2 98.7749 140.6 84.5749 119.1C70.6749 97.9002 68.1749 76.2001 77.4749 56.3002C86.3749 37.1002 105.575 21.1001 129.975 12.2001C154.375 3.30015 179.375 3.30015 198.575 12.3002C218.475 21.6002 230.575 39.8001 233.575 65.0001C236.575 90.7001 230.275 122.8 214.675 160.8C229.775 132 245.975 110 262.675 95.0002C280.475 79.1002 298.675 71.4001 316.675 72.2001C344.475 73.4001 370.475 96.2001 382.875 130.2C395.275 164.2 389.975 198.3 369.475 217.2C356.175 229.4 337.375 235.2 313.475 234.5C290.975 233.8 264.475 227.2 234.375 214.9C270.675 234 296.275 254.6 310.475 276.2C324.375 297.4 326.875 319.1 317.575 339C308.675 358.2 289.475 374.2 265.075 383.1C252.675 387.4 240.375 389.6 228.675 389.6ZM189.675 215.1C167.975 261.6 158.775 300.3 162.275 330C165.175 354.8 177.075 372.7 196.675 381.9C206.375 386.4 217.275 388.5 228.575 388.5C263.775 388.5 302.375 368.4 316.375 338.3C325.475 318.7 323.075 297.3 309.375 276.4C292.875 251.4 260.975 227.7 214.475 206L214.875 205.1C252.975 222.9 286.075 232.3 313.275 233.2C336.875 233.9 355.475 228.2 368.575 216.2C388.775 197.7 393.975 163.9 381.775 130.3C369.575 96.7002 343.875 74.2001 316.475 73.0002C298.675 72.2001 280.775 79.8002 263.175 95.5002C242.975 113.6 223.675 142.1 205.875 180.2L204.975 179.8C226.675 133.3 235.875 94.6002 232.375 64.9002C229.475 40.1002 217.575 22.2001 197.975 13.0001C158.275 -5.49985 96.7749 16.9001 78.2749 56.6001C69.1749 76.2001 71.5749 97.6002 85.2749 118.5C101.775 143.5 133.675 167.2 180.175 188.9L179.775 189.8C133.275 168.1 94.5749 158.9 64.8749 162.4C40.0749 165.3 22.1749 177.2 12.9749 196.8C-5.52508 236.5 16.8749 298 56.5749 316.5C76.1749 325.6 97.5749 323.2 118.475 309.5C143.475 293 167.175 261.1 188.875 214.6L189.675 215.1Z" fill="white"/>
<path d="M221.875 391.5C207.675 391.5 194.375 388.4 183.375 382.3C164.175 371.6 153.375 352.6 152.175 327.3C150.975 301.5 159.575 269.9 177.675 233.1C156.075 268 133.775 292 111.275 304.7C89.1749 317.1 67.3749 318 48.0749 307.4C9.37489 285.9 -8.92511 222.2 12.5749 183.5C23.2749 164.3 42.2749 153.5 67.5749 152.3C93.3749 151.1 124.975 159.7 161.875 177.8C134.275 160.7 113.375 143.1 99.5749 125.3C84.9749 106.4 78.5749 87.8002 80.5749 69.8002C83.7749 42.1002 108.275 17.8002 142.975 7.80018C177.775 -2.19982 211.475 5.50018 228.775 27.3002C239.975 41.4002 244.475 60.6002 242.075 84.4002C239.775 106.8 231.375 132.8 217.075 162C238.675 127.1 260.975 103 283.475 90.4002C305.575 78.0002 327.375 77.1002 346.675 87.7002C385.375 109.2 403.675 172.8 382.175 211.5C371.475 230.7 352.475 241.5 327.175 242.7C301.375 243.9 269.775 235.3 232.975 217.2C267.875 238.8 291.875 261.1 304.575 283.6C316.975 305.7 317.875 327.5 307.275 346.8C297.075 365.3 276.775 380 251.875 387.2C241.675 390.1 231.575 391.5 221.875 391.5ZM188.475 214.6C163.575 259.5 151.675 297.4 153.075 327.3C154.275 352.2 164.875 371 183.775 381.5C202.075 391.6 226.675 393.4 251.375 386.3C276.075 379.2 296.075 364.7 306.175 346.4C316.675 327.5 315.775 306 303.475 284.2C288.775 258.1 258.575 232.2 213.775 207.3L214.275 206.4C259.175 231.3 297.075 243.2 326.975 241.8C351.875 240.6 370.675 230 381.175 211.1C402.375 172.8 384.375 109.9 346.075 88.6002C327.175 78.1002 305.675 79.0002 283.875 91.3002C257.775 106 231.875 136.2 206.975 181L206.075 180.5C226.475 143.7 238.175 111.3 240.975 84.3002C243.375 60.8002 238.975 41.9002 227.875 27.9002C210.775 6.40018 177.475 -1.09982 143.175 8.80018C108.775 18.7002 84.5749 42.7002 81.4749 69.9002C79.4749 87.6002 85.7749 106 100.275 124.6C116.875 146.1 143.975 167.3 180.775 187.7L180.275 188.6C135.375 163.7 97.4749 151.8 67.5749 153.2C42.6749 154.4 23.8749 165 13.3749 183.9C-7.82511 222.2 10.1749 285.1 48.4749 306.4C67.3749 316.9 88.8749 316 110.675 303.7C136.775 289 162.675 258.8 187.575 214L188.475 214.6Z" fill="white"/>
<path d="M215.375 392.9C198.975 392.9 183.175 389.1 170.575 380.9C152.075 368.9 142.675 349.2 143.275 323.9C143.875 298.1 154.675 267.1 175.275 231.7C151.275 265 127.375 287.4 104.075 298.5C81.175 309.3 59.275 308.7 40.875 296.7C23.175 285.2 9.87497 264 4.47497 238.6C-0.925028 213.2 2.57497 188.4 14.075 170.7C26.075 152.2 45.775 142.8 71.075 143.4C96.875 144 127.875 154.8 163.275 175.4C129.975 151.4 107.575 127.5 96.475 104.2C85.675 81.3001 86.275 59.4001 98.275 41.0001C122.375 3.90012 187.175 -9.89989 224.275 14.2001C242.775 26.2001 252.175 45.9001 251.575 71.2001C250.975 97.0001 240.175 128 219.575 163.5C238.575 137.1 257.575 117.5 276.275 105C296.075 91.7001 315.175 86.7001 332.875 90.0001C360.275 95.1001 382.875 121.2 390.375 156.6C397.875 192 387.875 225.1 364.975 240.8C350.075 251 330.675 254.1 307.075 250.1C284.875 246.3 259.575 236.1 231.475 219.7C264.775 243.7 287.275 267.6 298.275 291C309.075 313.9 308.475 335.8 296.475 354.2C280.575 378.6 246.975 392.9 215.375 392.9ZM187.375 213.9C159.475 256.9 144.875 293.9 144.275 323.9C143.675 348.9 152.975 368.3 171.175 380.1C207.875 403.9 271.975 390.3 295.775 353.6C307.575 335.5 308.175 313.9 297.475 291.4C284.675 264.3 256.375 236.4 213.275 208.5L213.775 207.7C249.075 230.6 280.575 244.6 307.275 249.2C330.575 253.2 349.775 250.1 364.375 240.1C386.975 224.5 396.775 191.9 389.375 156.9C381.975 121.9 359.675 96.1001 332.675 91.1001C315.175 87.9001 296.375 92.9001 276.775 106C254.175 121.1 231.175 146.6 208.175 181.9L207.375 181.4C235.275 138.4 249.875 101.4 250.475 71.4001C251.075 46.4001 241.775 27.0001 223.575 15.2001C206.075 3.80011 181.575 0.400115 156.475 5.70012C131.275 11.0001 110.375 24.2001 98.975 41.7001C87.175 59.8001 86.575 81.4001 97.275 103.9C110.075 131 138.375 158.9 181.475 186.8L180.975 187.6C137.975 159.7 100.975 145.1 70.975 144.5C45.975 143.9 26.575 153.2 14.775 171.4C3.37498 188.9 -0.0250251 213.4 5.27498 238.5C10.575 263.7 23.775 284.6 41.275 296C59.375 307.8 80.975 308.4 103.475 297.7C130.575 284.9 158.475 256.6 186.375 213.5L187.375 213.9Z" fill="white"/>
<path d="M209.075 394C179.775 394 154.575 382.1 142.575 361.7C133.375 346.2 131.675 326.5 137.375 303.3C142.775 281.4 154.675 256.8 172.975 230C146.675 261.6 121.275 282.3 97.2749 291.7C73.6749 300.9 51.8749 298.8 34.3749 285.5C-1.02506 258.9 -10.2251 193.3 16.4749 157.9C29.6749 140.3 50.0749 132.3 75.2749 134.6C100.975 137 131.175 149.9 165.075 173C140.075 152.2 121.875 131.9 110.675 112.3C98.7749 91.5999 95.0749 72.1999 99.5749 54.6999C106.575 27.6999 134.175 6.99987 170.075 1.99987C205.875 -3.00013 238.175 9.19987 252.375 33.1999C261.575 48.6999 263.275 68.3999 257.575 91.5999C252.175 113.5 240.275 138.1 221.975 164.9C248.275 133.3 273.675 112.6 297.675 103.2C321.275 93.9999 343.075 96.0999 360.575 109.4C395.975 136 405.175 201.6 378.475 237C365.275 254.6 344.875 262.6 319.675 260.3C293.975 257.9 263.775 245 229.875 221.9C254.875 242.7 273.075 263 284.275 282.6C296.175 303.3 299.875 322.7 295.375 340.2C288.375 367.2 260.775 387.9 224.875 392.9C219.475 393.7 214.275 394 209.075 394ZM186.175 213.2C160.875 246.8 144.675 277.2 138.275 303.6C132.675 326.5 134.375 345.9 143.375 361.2C157.275 384.9 189.175 396.9 224.675 391.9C260.075 386.9 287.475 366.5 294.275 339.9C298.675 322.7 295.075 303.6 283.275 283.1C269.775 259.5 245.875 234.7 212.275 209.4L212.875 208.6C253.875 239.5 289.775 256.5 319.575 259.3C344.475 261.6 364.475 253.7 377.475 236.4C403.775 201.4 394.675 136.6 359.775 110.2C342.475 97.1999 321.075 95.0999 297.775 104.2C269.975 115.2 240.175 141.5 209.375 182.5L208.575 181.9C233.875 148.3 250.075 117.9 256.475 91.4999C262.075 68.5999 260.375 49.1999 251.375 33.8999C237.475 10.1999 205.575 -1.80013 170.075 3.19987C134.675 8.19987 107.275 28.5999 100.475 55.1999C96.075 72.3999 99.6749 91.4999 111.475 112C124.975 135.6 148.875 160.4 182.475 185.7L181.875 186.5C140.875 155.6 104.975 138.6 75.1749 135.8C50.2749 133.5 30.2749 141.4 17.2749 158.7C-9.02505 193.7 0.0749397 258.5 34.9749 284.9C52.2749 297.9 73.675 300 96.975 290.9C124.875 280 154.675 253.7 185.575 212.7L186.175 213.2Z" fill="white"/>
<path d="M203.075 394.6C170.475 394.6 142.775 380.5 131.275 357.4C123.275 341.3 122.875 321.5 130.075 298.8C136.975 277.4 150.575 253.6 170.675 228.1C148.175 251.6 126.575 268.4 106.275 278.2C84.7749 288.6 65.1749 290.9 48.0749 285.2C21.6749 276.4 2.97495 247.3 0.47495 211.2C-2.02505 175.1 12.475 143.8 37.375 131.3C53.475 123.3 73.275 122.9 95.975 130.1C117.375 137 141.075 150.6 166.675 170.7C136.975 142.3 118.175 115.5 110.475 90.7998C102.975 66.5998 106.575 44.9998 120.975 28.3998C149.975 -5.00023 216.075 -9.60023 249.475 19.3998C266.075 33.7998 272.675 54.6998 268.575 79.6998C264.375 105.2 249.475 134.3 224.075 166.6C252.475 137 279.275 118.1 303.875 110.4C328.075 102.9 349.675 106.5 366.275 120.9C399.675 149.9 404.275 216 375.275 249.4C360.875 266 339.975 272.6 314.975 268.5C289.475 264.3 260.275 249.3 228.075 223.9C251.575 246.4 268.375 268 278.075 288.2C288.475 309.7 290.775 329.3 285.075 346.4C276.275 372.8 247.175 391.5 211.075 394C208.375 394.5 205.775 394.6 203.075 394.6ZM185.175 212.3C157.575 244.1 139.375 273.3 131.075 299.1C123.875 321.6 124.275 341 132.175 356.9C144.475 381.5 175.375 395.7 211.075 393.2C246.775 390.7 275.475 372.3 284.175 346.2C289.775 329.3 287.475 310 277.175 288.8C265.375 264.5 243.275 238.1 211.575 210.5L212.275 209.7C250.975 243.4 285.575 262.9 315.175 267.7C339.775 271.7 360.375 265.3 374.575 248.9C403.275 215.9 398.775 150.5 365.675 121.8C349.375 107.6 328.075 104 304.275 111.5C275.675 120.4 244.075 144.6 210.475 183.3L209.675 182.6C243.375 143.9 262.875 109.3 267.675 79.6998C271.675 55.0998 265.275 34.4998 248.875 20.2998C215.875 -8.40023 150.475 -3.90023 121.775 29.1998C107.575 45.4998 103.975 66.7998 111.475 90.5998C120.375 119.2 144.575 150.8 183.275 184.4L182.575 185.2C150.775 157.6 121.575 139.4 95.7749 131.1C73.2749 123.9 53.8749 124.3 37.9749 132.2C13.3749 144.4 -0.825049 175.4 1.67495 211.1C4.17495 246.8 22.575 275.5 48.675 284.2C65.575 289.8 84.875 287.5 106.075 277.2C130.475 265.4 156.875 243.3 184.575 211.5L185.175 212.3Z" fill="white"/>
<path d="M197.375 394.8C172.975 394.8 148.575 387 132.975 371.3C117.375 355.7 112.275 334.5 118.075 309.8C124.075 284.7 140.975 256.6 168.575 226.2C138.175 253.8 110.175 270.7 84.975 276.7C60.275 282.5 39.075 277.4 23.475 261.8C-7.825 230.5 -7.825 164.3 23.475 133C39.075 117.4 60.275 112.3 84.975 118.1C110.075 124.1 138.175 141 168.575 168.6C146.775 144.5 131.475 121.8 123.175 100.9C114.275 78.7 113.375 59 120.275 42.4C130.975 16.7 161.175 0 197.375 0C233.575 0 263.775 16.6 274.475 42.4C281.375 59.1 280.375 78.8 271.575 100.9C263.275 121.8 247.975 144.5 226.175 168.6C256.575 141 284.675 124 309.775 118.1C334.475 112.3 355.675 117.4 371.275 133C402.575 164.3 402.575 230.5 371.275 261.8C355.675 277.4 334.475 282.5 309.775 276.7C284.675 270.7 256.575 253.8 226.175 226.2C253.775 256.6 270.675 284.6 276.675 309.8C282.475 334.5 277.375 355.7 261.775 371.3C246.175 387 221.775 394.8 197.375 394.8ZM184.175 211.4C147.875 247.7 125.975 280.9 119.075 310C113.275 334.3 118.375 355.2 133.675 370.5C164.675 401.5 230.075 401.5 261.075 370.5C276.375 355.2 281.375 334.3 275.675 310C268.775 280.8 246.875 247.6 210.575 211.4L211.275 210.7C247.575 247 280.775 268.9 309.875 275.8C334.175 281.6 355.075 276.5 370.375 261.2C401.375 230.2 401.375 164.8 370.375 133.8C355.075 118.5 334.175 113.5 309.875 119.2C280.675 126.1 247.475 148 211.275 184.3L210.575 183.6C240.375 153.8 260.575 126 270.575 100.8C279.375 78.9 280.275 59.4 273.475 43C262.975 17.6 233.075 1.2 197.275 1.2C161.475 1.2 131.575 17.6 121.075 43C114.275 59.4 115.275 78.9 123.975 100.8C134.075 126 154.275 153.9 183.975 183.6L183.275 184.3C146.975 148 113.775 126.1 84.675 119.2C60.375 113.4 39.475 118.5 24.175 133.8C-6.825 164.8 -6.825 230.2 24.175 261.2C39.475 276.5 60.375 281.5 84.675 275.8C113.875 268.9 147.075 247 183.275 210.7L184.175 211.4Z" fill="white"/>
</svg>
