<svg width="409" height="385" viewBox="0 0 409 385" fill="none" xmlns="http://www.w3.org/2000/svg">
<path d="M314.681 384.84H88.1814C80.2814 384.84 73.2814 379.74 70.8814 372.24L0.881349 156.74C-1.51865 149.24 1.08135 141.04 7.48135 136.44C27.8814 121.64 48.2813 106.74 68.6814 91.9403C108.681 62.8403 149.981 32.7403 190.781 3.34026C196.781 -0.959742 205.081 -1.15974 212.481 3.04025C236.481 13.4403 259.881 14.9403 289.881 13.8403C294.981 13.6403 300.281 13.2403 305.881 12.8403C325.581 11.3403 345.981 9.84025 363.281 17.6403C390.881 30.2403 390.981 59.5402 390.981 87.8402C390.981 104.74 391.081 122.14 397.181 135.24C400.081 139.54 404.781 148.14 402.281 156.54C388.581 204.64 372.181 252.94 356.381 299.64C348.381 323.44 339.981 347.94 332.181 372.14C329.581 379.84 322.581 384.84 314.681 384.84ZM201.381 1.04025C197.781 1.04025 194.281 2.14026 191.381 4.24026C150.681 33.7403 109.281 63.8402 69.2813 92.8402C48.8813 107.64 28.4813 122.54 8.08135 137.34C2.08135 141.74 -0.518651 149.44 1.88135 156.54L71.8814 372.04C74.1814 379.14 80.7814 383.94 88.1814 383.94H314.681C322.181 383.94 328.681 379.14 330.981 372.04C338.881 347.84 347.181 323.24 355.181 299.54C370.981 252.84 387.381 204.54 401.081 156.54C403.481 148.54 398.981 140.24 396.081 135.94C389.781 122.54 389.781 105.04 389.781 88.0403C389.681 60.0403 389.581 31.0403 362.581 18.7403C345.581 10.9403 325.281 12.5403 305.681 13.9403C300.081 14.3403 294.781 14.7403 289.681 14.9403C259.581 15.9403 235.981 14.5403 211.881 4.04026C208.481 1.94026 204.881 1.04025 201.381 1.04025Z" fill="white"/>
<path d="M304.381 369.04H98.4814C90.5814 369.04 83.5814 363.94 81.1814 356.44L17.4814 160.64C15.0814 153.14 17.6814 144.94 24.0814 140.34C46.4814 124.14 69.0814 107.54 90.9814 91.4404C124.481 66.9404 159.081 41.5404 193.281 16.9404C199.981 12.1404 209.981 12.9404 217.181 14.5404C245.581 18.5404 273.081 15.8404 301.181 12.5404C304.681 12.1404 308.381 11.6404 312.181 11.0404C331.681 8.24042 353.881 5.14042 371.381 12.9404C401.981 26.4404 397.081 64.8404 392.781 98.6404C391.281 110.54 389.881 121.84 390.281 130.64C390.381 131.64 390.581 132.74 390.681 133.74C391.681 141.74 392.681 149.34 391.381 155.14C386.081 176.14 377.781 196.34 369.681 215.84C363.981 229.74 358.081 244.04 353.281 258.64C346.381 279.54 339.481 300.94 332.781 321.54C328.981 333.24 325.281 344.84 321.481 356.54C319.281 363.94 312.281 369.04 304.381 369.04ZM193.981 17.7404C159.781 42.3404 125.081 67.7404 91.6814 92.2404C69.7814 108.34 47.0814 124.94 24.7814 141.14C18.7814 145.54 16.1814 153.24 18.5814 160.34L82.0814 356.14C84.3814 363.24 90.9814 368.04 98.3814 368.04H304.281C311.781 368.04 318.281 363.24 320.581 356.14C324.381 344.54 328.081 332.84 331.881 321.14C338.581 300.54 345.481 279.14 352.381 258.24C357.181 243.64 363.081 229.34 368.781 215.44C376.781 195.94 385.081 175.84 390.381 154.94C391.681 149.34 390.681 141.84 389.681 133.84C389.581 132.74 389.381 131.74 389.281 130.64C388.881 121.64 390.281 110.34 391.781 98.4404C395.981 64.9404 400.881 26.9404 370.981 13.7404C353.681 6.14043 331.681 9.24042 312.281 11.9404C308.381 12.4404 304.781 13.0404 301.181 13.4404C273.081 16.7404 245.481 19.4404 216.881 15.4404C210.081 13.9404 200.381 13.1404 193.981 17.7404Z" fill="white"/>
<path d="M294.081 353.14H108.781C100.881 353.14 93.8814 348.04 91.4814 340.54L34.1814 164.34C31.7814 156.84 34.3814 148.64 40.7814 144.04C69.2814 123.34 98.0814 102.14 125.881 81.5402C149.881 63.8402 174.781 45.4402 199.381 27.5402C206.681 22.6402 218.281 21.4402 226.781 21.9402C255.881 20.8402 283.481 16.0402 312.781 10.8402H312.981C315.981 10.3402 319.081 9.74017 322.381 9.04017C341.081 5.44017 362.381 1.24017 379.581 8.34017C412.281 21.7402 401.881 66.8402 394.181 99.8402C392.381 107.44 390.781 114.64 389.881 120.34C389.681 122.34 389.581 124.34 389.381 126.34C388.781 133.84 388.181 141.54 386.481 148.84C380.081 168.84 370.581 187.74 361.481 206.04C353.981 221.04 346.181 236.54 340.181 252.54C332.881 271.94 326.581 292.34 320.481 311.94C317.581 321.44 314.481 331.24 311.381 340.74C308.981 348.14 301.981 353.14 294.081 353.14ZM199.981 28.3402C175.481 46.2402 150.581 64.6402 126.581 82.3402C98.7814 102.94 69.9814 124.14 41.4814 144.84C35.4814 149.24 32.8814 156.94 35.2814 164.04L92.5814 340.34C94.8814 347.44 101.481 352.24 108.881 352.24H294.081C301.581 352.24 308.081 347.44 310.381 340.34C313.481 330.84 316.481 321.04 319.481 311.54C325.581 291.84 331.881 271.54 339.181 252.04C345.181 236.04 352.981 220.44 360.481 205.44C369.581 187.24 379.081 168.34 385.481 148.44C387.181 141.34 387.781 133.64 388.381 126.14C388.581 124.14 388.681 122.14 388.881 120.14C389.681 114.34 391.381 107.14 393.181 99.5402C400.681 66.9402 411.081 22.2402 379.181 9.24017C362.281 2.34017 341.181 6.44017 322.581 10.0402C319.281 10.6402 316.181 11.2402 313.181 11.8402H312.981C283.681 16.9402 256.081 21.8402 226.781 22.9402C218.381 22.3402 206.981 23.5402 199.981 28.3402Z" fill="white"/>
<path d="M283.781 337.34H119.081C111.181 337.34 104.181 332.24 101.781 324.74L50.8813 168.04C48.4813 160.54 51.0813 152.34 57.4813 147.74C97.2813 118.84 137.281 88.8403 175.981 59.8403C186.481 51.9403 196.981 44.0403 207.581 36.1403C216.781 29.9403 228.181 27.9403 239.181 26.7403C262.081 23.4403 284.981 18.5403 307.081 13.7403C312.481 12.5403 317.881 11.4403 323.381 10.2403C326.381 9.64026 329.481 8.94025 332.781 8.14025C350.081 4.14025 369.681 -0.459742 385.681 5.34026C418.781 17.3403 405.381 62.7402 396.381 92.8402C394.781 98.3402 393.281 103.14 392.381 107.24C391.881 109.54 391.381 111.84 390.881 114.14C389.081 122.74 387.181 131.54 384.181 139.84C375.781 159.34 364.981 177.94 354.581 195.94C345.481 211.74 335.981 228.14 328.181 244.94C319.781 263.04 313.881 282.84 308.081 301.94C305.781 309.44 303.481 317.24 301.081 324.64C298.681 332.24 291.681 337.34 283.781 337.34ZM208.081 36.9403C197.581 44.8403 186.981 52.7403 176.481 60.5403C137.781 89.5403 97.7813 119.54 57.9813 148.44C51.9813 152.84 49.3813 160.54 51.7813 167.64L102.681 324.44C104.981 331.54 111.581 336.34 118.981 336.34H283.781C291.281 336.34 297.781 331.54 300.081 324.44C302.481 316.94 304.881 309.24 307.081 301.74C312.881 282.54 318.781 262.74 327.181 244.64C334.981 227.74 344.481 211.34 353.581 195.54C363.981 177.54 374.681 159.04 383.081 139.54C386.081 131.34 387.981 122.54 389.681 113.94C390.181 111.64 390.681 109.34 391.181 107.04C392.181 102.94 393.581 98.1403 395.281 92.6403C404.081 62.9403 417.381 18.0403 385.181 6.34026C369.481 0.640258 350.081 5.24026 332.881 9.24026C329.581 10.0403 326.481 10.7403 323.481 11.3403C318.081 12.4403 312.681 13.6403 307.181 14.8403C284.981 19.5403 262.081 24.5403 239.181 27.8403C228.381 28.9403 217.081 30.8403 208.081 36.9403Z" fill="white"/>
<path d="M273.481 321.54H129.381C121.481 321.54 114.481 316.44 112.081 308.94L67.5813 171.84C65.1813 164.34 67.7813 156.14 74.1813 151.54C121.981 116.84 169.481 80.3403 215.481 45.0403L216.681 44.1403C227.881 36.1403 241.981 32.7403 252.981 30.6403C267.981 27.4403 283.081 23.7403 297.781 20.2403C307.481 17.9403 317.481 15.4403 327.381 13.2403C330.181 12.6403 333.181 11.8403 336.381 11.0403C352.681 6.94026 372.881 1.84026 387.881 6.14026C395.581 8.34026 401.081 12.5403 404.481 18.7403C413.581 35.6403 404.781 63.2403 398.381 83.4403C397.081 87.4403 395.881 91.2403 394.981 94.4403C391.481 107.24 387.881 119.64 382.281 131.04C371.981 150.04 360.181 168.54 348.781 186.34C338.481 202.54 327.781 219.24 318.181 236.24C308.081 254.44 301.781 274.64 295.681 294.14C294.181 299.04 292.581 304.14 290.981 309.04C288.381 316.44 281.381 321.54 273.481 321.54ZM217.181 44.8403L215.981 45.7403C169.981 81.0403 122.481 117.54 74.6813 152.24C68.6813 156.64 66.0813 164.34 68.4813 171.44L112.981 308.54C115.281 315.64 121.881 320.44 129.281 320.44H273.481C280.981 320.44 287.481 315.64 289.781 308.54C291.381 303.64 292.981 298.54 294.481 293.64C300.581 274.04 306.881 253.74 317.081 235.54C326.581 218.44 337.281 201.74 347.681 185.54C359.081 167.74 370.881 149.24 381.181 130.34C386.681 119.04 390.381 106.64 393.881 93.8403C394.781 90.6403 395.981 86.8403 397.281 82.8403C403.681 62.8403 412.381 35.4403 403.481 18.9403C400.281 12.9403 394.881 8.94026 387.581 6.84026C372.881 2.64026 352.781 7.64026 336.581 11.7403C333.381 12.5403 330.381 13.3403 327.581 13.9403C317.681 16.2403 307.681 18.6403 297.981 20.9403C283.281 24.4403 268.181 28.1403 253.181 31.3403C242.181 33.5403 228.181 37.0403 217.181 44.8403Z" fill="white"/>
<path d="M263.181 305.64H139.681C131.781 305.64 124.781 300.54 122.381 293.04L84.1814 175.54C81.7814 168.04 84.3814 159.84 90.7814 155.24C135.381 122.84 179.481 88.2402 221.981 54.8402L225.481 52.1402C236.081 44.3402 249.881 38.3402 266.481 34.5402C275.181 32.3402 284.681 29.4402 294.681 26.3402C323.781 17.3402 356.781 7.04023 383.981 11.8402C391.281 13.1402 396.681 16.4402 399.981 21.7402C408.581 35.5402 401.581 60.0402 396.881 76.3402C396.181 78.8402 395.481 81.2402 394.881 83.3402C390.081 100.14 384.781 112.84 378.181 123.44C366.981 141.14 354.981 158.54 343.281 175.44C331.981 191.74 320.381 208.64 309.481 225.64C295.981 246.74 288.681 267.74 280.481 293.04C278.081 300.64 271.081 305.64 263.181 305.64ZM226.081 52.9402L222.581 55.6402C179.981 89.0402 135.981 123.64 91.2814 156.04C85.2814 160.44 82.6814 168.14 85.0814 175.24L123.281 292.74C125.581 299.84 132.181 304.64 139.581 304.64H263.181C270.681 304.64 277.181 299.84 279.481 292.74C287.681 267.44 295.081 246.34 308.581 225.14C319.381 208.14 331.081 191.24 342.381 174.84C354.081 157.94 366.081 140.44 377.281 122.84C383.781 112.34 388.981 99.6402 393.781 82.9402C394.381 80.8402 394.981 78.4402 395.781 75.9402C400.381 59.8402 407.381 35.5402 398.981 22.1402C395.881 17.1402 390.681 13.9402 383.681 12.6402C356.681 7.84022 323.881 18.0402 294.881 27.0402C284.881 30.1402 275.381 33.1402 266.681 35.3402C250.281 39.2402 236.581 45.1402 226.081 52.9402Z" fill="white"/>
<path d="M252.881 289.84H149.881C141.981 289.84 134.981 284.74 132.581 277.24L100.781 179.34C98.3813 171.84 100.981 163.64 107.381 159.04C145.381 131.44 182.581 101.74 218.581 72.9402C223.381 69.1402 228.081 65.3402 232.881 61.5402C245.581 51.9402 261.181 44.5402 277.981 40.3402C284.081 38.7402 290.881 36.6402 298.081 34.3402C322.081 26.8402 351.981 17.4402 374.281 22.8402C399.681 29.0402 394.681 54.0402 390.681 74.2402L390.181 76.5403C386.381 91.4403 379.481 106.64 370.681 119.24C361.581 132.24 351.581 145.34 341.981 157.94C313.781 194.94 284.581 233.14 270.181 277.34C267.781 284.74 260.781 289.84 252.881 289.84ZM233.581 62.2402C228.781 66.0402 224.081 69.8402 219.281 73.6402C183.281 102.44 146.081 132.14 108.081 159.74C102.081 164.14 99.4813 171.84 101.881 178.94L133.681 276.84C135.981 283.94 142.581 288.74 149.981 288.74H252.981C260.481 288.74 266.981 283.94 269.281 276.84C283.681 232.54 312.881 194.24 341.181 157.14C350.781 144.54 360.781 131.44 369.881 118.44C378.681 105.94 385.481 90.9402 389.281 76.1402L389.781 73.8402C393.681 54.1402 398.581 29.5402 374.081 23.6402C352.081 18.2402 322.281 27.6402 298.381 35.1402C291.181 37.4402 284.381 39.5402 278.281 41.1402C261.581 45.3402 246.081 52.6402 233.581 62.2402Z" fill="white"/>
<path d="M242.581 273.94H160.181C152.281 273.94 145.281 268.84 142.881 261.34C136.881 244.04 131.281 226.34 125.781 209.14C123.081 200.54 120.281 191.74 117.381 183.04C114.981 175.54 117.581 167.34 123.981 162.74C155.181 140.14 185.681 115.34 215.081 91.3403C222.581 85.2403 230.081 79.1403 237.581 73.0403C252.381 61.5403 269.481 53.0403 285.781 49.0403C288.181 48.4403 290.681 47.8403 293.281 47.1403C317.981 40.9403 351.781 32.5403 368.681 46.3403C375.981 52.3403 379.481 62.0403 378.881 75.2403C376.081 92.6403 365.881 108.74 357.881 119.24C349.481 130.34 340.981 141.64 332.581 152.44C320.081 168.74 307.181 185.64 294.781 202.54C293.081 204.84 291.281 207.24 289.481 209.64C277.381 225.84 264.981 242.54 259.581 261.34C257.481 268.94 250.481 273.94 242.581 273.94ZM238.381 73.8403C230.881 79.9403 223.381 86.0403 215.881 92.1403C186.381 116.14 155.981 140.94 124.681 163.54C118.681 167.94 116.081 175.64 118.481 182.74C121.281 191.44 124.081 200.34 126.881 208.84C132.381 226.04 137.981 243.74 143.981 261.04C146.281 268.14 152.881 272.94 160.381 272.94H242.781C250.281 272.94 256.781 268.14 259.081 261.04C264.481 242.04 276.981 225.34 289.181 209.04C290.981 206.64 292.781 204.24 294.481 201.94C306.881 185.04 319.781 168.14 332.281 151.84C340.581 140.94 349.181 129.74 357.581 118.64C365.481 108.24 375.581 92.2403 378.381 75.1403C378.881 62.3403 375.581 52.9403 368.481 47.1403C351.881 33.6403 318.381 42.0403 293.881 48.1403C291.281 48.8403 288.681 49.4403 286.381 50.0403C269.981 53.9403 252.981 62.4403 238.381 73.8403Z" fill="white"/>
<path d="M232.281 258.14H170.481C162.281 258.14 155.081 253.34 152.581 246.04C149.681 237.24 146.981 228.24 144.281 219.44C140.981 208.74 137.581 197.54 133.981 186.74C131.281 178.84 134.081 171.24 141.781 165.34C169.081 144.64 196.081 122.64 222.181 101.34C227.681 96.8401 233.281 92.3401 238.781 87.8401C254.581 74.8401 272.181 65.8401 288.481 62.6401C289.581 62.4401 290.681 62.3401 291.881 62.1401C313.981 58.9401 350.881 53.7401 358.981 81.7401C360.681 95.6401 349.881 110.34 342.081 121.14C341.181 122.34 340.381 123.54 339.581 124.64C333.481 132.44 327.081 140.34 320.981 148.04C296.881 178.14 272.081 209.24 252.781 242.74C246.981 253.14 240.281 258.14 232.281 258.14ZM319.781 60.5401C309.981 60.5401 299.981 61.9401 292.081 63.1401C290.881 63.3401 289.781 63.4401 288.781 63.6401C272.781 66.8401 255.281 75.7401 239.581 88.6401C234.081 93.1401 228.481 97.6401 222.981 102.14C196.881 123.44 169.881 145.44 142.581 166.24C135.281 171.74 132.681 178.94 135.181 186.44C138.781 197.34 142.181 208.44 145.481 219.14C148.181 227.84 150.881 236.84 153.681 245.64C156.081 252.44 162.881 257.04 170.581 257.04H232.381C240.081 257.04 246.281 252.34 251.981 242.24C271.281 208.64 296.181 177.54 320.281 147.44C326.381 139.74 332.781 131.84 338.881 124.04C339.681 122.94 340.481 121.74 341.381 120.54C349.581 109.34 359.781 95.3401 358.181 81.9401C353.081 64.8401 336.681 60.5401 319.781 60.5401Z" fill="white"/>
<path d="M180.281 241.74C172.281 241.74 165.881 236.74 164.181 229.04L163.681 226.94C160.881 214.04 157.881 200.74 153.781 187.94C150.681 178.04 158.281 170.34 164.481 164.24C164.881 163.74 165.381 163.34 165.781 162.94C189.381 144.24 213.081 124.94 235.981 106.34L236.681 105.74C249.881 95.9404 266.281 83.7404 284.181 82.4404H285.381C300.781 82.5404 319.881 82.5404 330.381 95.9404L330.481 96.0404C335.781 107.24 324.081 123.04 317.081 132.54C316.181 133.74 315.381 134.84 314.581 135.94L310.981 140.54C291.481 165.54 271.181 191.34 252.981 217.94C244.581 230.74 235.581 237.74 226.181 238.84C218.681 239.34 211.181 239.84 203.781 240.34C196.381 240.84 188.981 241.34 181.581 241.84C181.081 241.74 180.681 241.74 180.281 241.74ZM237.281 106.44L236.581 106.94C213.681 125.64 189.981 144.94 166.381 163.54C165.981 163.94 165.581 164.34 165.081 164.84C159.181 170.84 151.781 178.24 154.681 187.54C158.881 200.34 161.781 213.74 164.581 226.64L165.081 228.74C166.781 236.34 173.281 241.04 181.381 240.64C188.781 240.14 196.181 239.64 203.581 239.14C211.081 238.64 218.481 238.14 225.981 237.64C235.081 236.54 243.881 229.64 252.081 217.14C270.381 190.54 290.581 164.64 310.081 139.64L313.681 135.04C314.381 134.04 315.281 132.94 316.181 131.64C323.081 122.44 334.581 106.94 329.481 96.2404C319.181 83.3404 300.381 83.2404 285.281 83.1404H284.181C266.681 84.6404 250.381 96.7404 237.281 106.44Z" fill="white"/>
<path d="M194.181 221.04C190.681 221.04 187.681 220.14 185.181 218.24C182.181 215.94 180.381 212.54 179.981 208.34C178.981 198.84 178.481 194.44 176.781 186.04C175.281 173.94 184.281 165.44 192.281 158.04L193.581 156.84C205.281 147.44 217.481 137.54 230.881 126.64L232.781 125.24C244.181 116.84 259.781 105.24 274.981 106.44C285.981 107.94 290.281 109.34 297.381 113.84L297.481 113.94C305.581 123.04 294.981 137.74 288.581 146.44C287.581 147.84 286.681 149.04 285.981 150.14C276.081 163.14 265.481 177.04 255.281 191.04C249.681 199.04 238.181 213.14 223.281 216.54C218.181 217.44 214.281 218.04 210.481 218.74C206.681 219.44 202.781 220.04 197.681 220.94C196.481 220.94 195.281 221.04 194.181 221.04ZM231.581 127.34C218.181 138.24 205.981 148.14 194.281 157.54L192.981 158.74C185.181 166.04 176.281 174.34 177.781 185.84C179.381 194.24 179.981 198.64 180.981 208.24C181.381 212.14 183.081 215.34 185.781 217.44C188.781 219.74 192.881 220.54 197.481 219.74C202.581 218.84 206.381 218.24 210.281 217.54C214.181 216.84 217.981 216.24 223.081 215.34C237.581 212.04 248.981 198.24 254.481 190.24C264.681 176.14 275.281 162.24 285.181 149.34C285.881 148.34 286.781 147.04 287.781 145.64C293.981 137.14 304.281 122.94 296.781 114.44C289.881 110.14 285.581 108.74 274.881 107.24C260.081 106.14 244.681 117.54 233.381 125.84L231.581 127.34Z" fill="white"/>
<path d="M213.881 195.04C210.681 195.04 207.881 194.24 205.781 192.64C202.881 190.54 201.381 187.14 201.281 182.84C201.881 168.94 212.381 159.24 221.681 150.64L223.081 149.34C235.081 139.84 249.281 130.34 262.981 132.84L263.181 132.94C265.581 134.44 266.981 136.44 267.581 138.94C269.181 146.24 262.281 156.44 258.181 162.44C257.481 163.54 256.881 164.44 256.381 165.24C246.181 179.54 233.081 190.14 220.481 194.14C217.981 194.74 215.781 195.04 213.881 195.04ZM223.581 150.14L222.181 151.44C213.081 159.84 202.781 169.44 202.181 182.94C202.281 186.84 203.681 190.04 206.281 191.94C209.481 194.34 214.281 194.74 219.981 193.24C232.381 189.24 245.281 178.84 255.381 164.74C255.881 163.94 256.481 163.04 257.181 161.94C261.181 156.04 267.881 146.14 266.381 139.24C265.881 137.04 264.581 135.24 262.581 133.94C249.281 131.54 235.481 140.74 223.581 150.14Z" fill="white"/>
</svg>
