<svg width="486" height="350" viewBox="0 0 486 350" fill="none" xmlns="http://www.w3.org/2000/svg">
<path d="M171.3 163.064C165.9 163.064 160.3 161.664 154.8 158.864C139.7 151.364 128.1 139.464 116.9 128.064C102.9 113.764 88.3 98.864 67 93.064L67.3 92.064C88.9 97.964 103.5 112.964 117.6 127.364C128.7 138.764 140.3 150.564 155.2 157.964C164.2 162.464 173 163.264 181.4 160.364C205 152.164 221.4 117.364 233.4 91.964C235.9 86.764 238.2 81.764 240.3 77.764C242.1 74.264 244.1 70.264 246.2 65.964C258.4 40.964 275.1 6.764 299 0.864001C308.8 -1.536 319.1 1.064 329.6 8.664C342.9 18.364 353.9 31.564 364.5 44.264C381.4 64.564 398.8 85.564 425.8 91.864L425.6 92.864C398.2 86.464 380.7 65.364 363.7 44.864C353.1 32.164 342.2 18.964 329 9.364C318.8 1.964 308.7 -0.636006 299.2 1.76399C275.8 7.56399 259.2 41.564 247.1 66.364C245 70.564 243.1 74.664 241.2 78.164C239.1 82.164 236.8 87.064 234.3 92.364C222.2 117.964 205.7 152.964 181.7 161.364C178.4 162.464 174.9 163.064 171.3 163.064Z" fill="white"/>
<path d="M170.4 168.664C164 168.664 157.5 166.764 150.9 163.064C137.4 155.464 126.6 144.564 116.1 134.064C101 118.864 86.8 104.564 65 98.8638L65.3 97.8638C87.4 103.664 102.4 118.764 116.9 133.364C127.3 143.864 138.1 154.664 151.5 162.164C161.3 167.664 170.9 169.064 180 166.164C204.4 158.464 221.3 123.064 233.7 97.1638C236 92.2638 238.3 87.6638 240.3 83.7638C242 80.4638 243.8 76.9638 245.6 73.1638C258.3 47.5638 275.8 12.4638 300.4 6.8638C311 4.4638 322.2 7.8638 333.7 16.8638C345.4 26.0638 355.6 38.0638 365.3 49.7638C382.6 70.2638 400.5 91.4638 427.7 97.7638L427.5 98.7638C400 92.4638 382 71.0638 364.6 50.4638C354.8 38.8638 344.8 26.9638 333.1 17.7638C321.9 8.96379 311 5.66379 300.7 7.96379C276.5 13.3638 259.2 48.2638 246.6 73.6638C244.7 77.4638 242.9 81.0638 241.3 84.2638C239.3 88.1638 237.1 92.7638 234.7 97.6638C222.2 123.664 205.2 159.364 180.4 167.164C177 168.164 173.7 168.664 170.4 168.664Z" fill="white"/>
<path d="M169.7 174.564C163.2 174.564 156.6 172.664 149.9 168.864C136.3 161.264 125.4 150.364 114.8 139.964C99.4999 124.764 84.9999 110.364 62.8999 104.764L63.0999 103.764C85.3999 109.464 100.7 124.664 115.5 139.264C126 149.664 136.9 160.464 150.4 168.064C160.4 173.664 170.1 175.064 179.4 172.064C203.9 164.364 221 129.064 233.5 103.364C235.9 98.4638 238.1 93.8638 240.1 89.9638C241.8 86.6638 243.6 83.0638 245.6 79.2638C258.5 53.6638 276.1 18.4638 300.9 12.8638C311.6 10.4638 322.9 13.7638 334.4 22.6638C346.4 31.9638 356.7 44.0638 366.7 55.7638C384.1 76.1638 402.2 97.3638 429.5 103.664L429.3 104.664C401.7 98.2638 383.5 76.9638 366 56.4638C356 44.7638 345.8 32.7638 333.8 23.4638C322.5 14.7638 311.5 11.4638 301.1 13.8638C276.7 19.3638 259.2 54.2638 246.4 79.7638C244.5 83.5638 242.7 87.1638 240.9 90.4638C238.9 94.3638 236.6 98.9638 234.3 103.864C221.7 129.764 204.5 165.364 179.6 173.164C176.4 174.064 173 174.564 169.7 174.564Z" fill="white"/>
<path d="M168.9 180.564C162.3 180.564 155.6 178.664 148.8 174.864C135.1 167.264 124.1 156.464 113.4 145.964C97.8002 130.764 83.1002 116.364 60.7002 110.664L60.9002 109.664C83.5002 115.364 99.0002 130.464 114 145.164C124.6 155.564 135.6 166.264 149.2 173.864C159.3 179.464 169.2 180.864 178.6 177.964C203.2 170.264 220.5 135.064 233.1 109.464C235.5 104.664 237.7 100.064 239.8 96.164C241.6 92.864 243.4 89.164 245.4 85.364C258.4 59.664 276.3 24.564 301.3 18.864C312.1 16.364 323.4 19.664 335 28.464C347.3 37.864 357.8 49.9639 368 61.7639C385.6 82.1639 403.8 103.164 431.3 109.564L431.1 110.564C403.3 104.064 385 82.864 367.3 62.364C357.1 50.664 346.6 38.4639 334.4 29.1639C323 20.4639 312 17.3639 301.5 19.7639C277 25.3639 259.2 60.2639 246.3 85.7639C244.3 89.6639 242.5 93.2639 240.7 96.5639C238.6 100.464 236.4 105.064 234 109.864C221.3 135.664 203.9 171.064 178.9 178.864C175.7 180.064 172.3 180.564 168.9 180.564Z" fill="white"/>
<path d="M167.7 186.464C160.3 186.464 152.7 184.064 145 179.364C132.8 171.864 122.5 161.964 112.5 152.464C96.4 137.064 81.2 122.464 58.5 116.964L58.7 115.964C81.7 121.464 97.7 136.864 113.1 151.664C123 161.164 133.3 171.064 145.4 178.464C156.2 185.064 166.8 186.964 176.8 184.164C202.1 176.964 220.1 141.464 233.2 115.564C235.5 110.964 237.7 106.564 239.8 102.764C241.7 99.264 243.7 95.364 245.8 91.264C258.7 66.164 276.3 31.864 300.9 25.464C311.1 22.864 321.8 25.264 332.7 32.564C347 42.164 358.9 55.664 370.3 68.764C387.9 88.864 406.1 109.564 433.3 115.864L433.1 116.864C405.5 110.564 387.2 89.664 369.5 69.464C358.1 56.464 346.3 42.964 332.1 33.464C321.4 26.264 311 23.964 301.1 26.464C276.9 32.664 259.4 66.864 246.6 91.764C244.5 95.864 242.5 99.764 240.6 103.264C238.5 107.064 236.3 111.464 234 116.064C220.8 142.164 202.7 177.964 177 185.164C174 185.964 170.9 186.464 167.7 186.464Z" fill="white"/>
<path d="M166.9 192.664C159.4 192.664 151.7 190.264 143.8 185.564C131.5 178.064 121.1 168.264 111 158.764C94.7002 143.264 79.2002 128.664 56.2002 123.264L56.4002 122.264C79.7002 127.664 95.2002 142.464 111.6 157.964C121.6 167.464 132 177.264 144.2 184.664C155.2 191.364 165.9 193.264 176.1 190.364C201.5 183.164 219.7 147.764 233 121.964C235.3 117.364 237.6 113.064 239.6 109.264C241.5 105.764 243.5 101.864 245.7 97.6642C258.7 72.5642 276.6 38.1642 301.3 31.7642C311.6 29.0642 322.3 31.4642 333.3 38.6642C347.9 48.3642 360 61.9642 371.7 75.0642C389.4 95.0642 407.8 115.764 435.2 122.064L435 123.064C407.3 116.664 388.8 95.8642 371 75.6642C359.4 62.5642 347.4 48.9642 332.8 39.4642C322 32.3642 311.5 30.0642 301.6 32.6642C277.2 38.9642 259.5 73.1642 246.6 98.0642C244.5 102.164 242.4 106.064 240.5 109.664C238.4 113.464 236.2 117.764 233.9 122.364C220.5 148.364 202.2 183.964 176.4 191.364C173.3 192.264 170.1 192.664 166.9 192.664Z" fill="white"/>
<path d="M166.1 198.764C158.5 198.764 150.7 196.364 142.7 191.564C130.3 184.064 119.8 174.264 109.6 164.764C93 149.264 77.3 134.564 54 129.264L54.2 128.264C77.7 133.664 93.5 148.364 110.2 163.964C120.3 173.464 130.8 183.164 143.1 190.564C154.3 197.264 165.2 199.164 175.5 196.264C201 189.064 219.4 153.764 232.8 127.964C235.2 123.464 237.4 119.164 239.5 115.364C241.5 111.764 243.5 107.864 245.7 103.664C258.9 78.5642 276.9 44.1642 301.9 37.5642C312.2 34.8642 323.1 37.1642 334.2 44.3642C349.1 54.0642 361.4 67.7642 373.3 80.9642C391.2 100.864 409.7 121.564 437.2 127.964L437 128.964C409.2 122.464 390.6 101.764 372.6 81.6642C360.8 68.4642 348.5 54.8642 333.7 45.2642C322.9 38.2642 312.3 35.9642 302.2 38.6642C277.7 45.0642 259.7 79.2642 246.7 104.264C244.5 108.464 242.5 112.364 240.5 115.964C238.4 119.764 236.2 124.064 233.8 128.564C220.3 154.464 201.8 189.964 175.9 197.364C172.7 198.264 169.4 198.764 166.1 198.764Z" fill="white"/>
<path d="M165.8 204.664C158.9 204.664 151.8 202.764 144.6 198.864C130.6 191.364 119 180.664 107.8 170.364C91.0999 154.864 75.1999 140.364 51.8999 135.264L52.0999 134.264C75.6999 139.364 92.2999 154.764 108.4 169.664C119.6 179.964 131.1 190.564 144.9 197.964C155.7 203.764 166.3 205.164 176.2 202.064C201.4 194.264 219.5 159.664 232.7 134.364C235 129.864 237.3 125.664 239.4 121.764C241.2 118.464 243.2 114.564 245.4 110.564C258.7 85.164 276.9 50.364 302.1 43.164C311.7 40.364 321.7 42.064 331.8 47.964C348.5 57.764 361.8 72.564 374.7 86.964C392.7 107.064 411.4 127.764 439.1 134.164L438.9 135.164C410.8 128.764 392.1 107.864 373.9 87.664C361.1 73.364 347.8 58.564 331.3 48.864C321.5 43.064 311.7 41.464 302.4 44.164C277.6 51.264 259.5 85.764 246.3 111.064C244.2 115.064 242.2 118.964 240.3 122.264C238.2 126.064 236 130.264 233.6 134.764C220.3 160.264 202.1 195.064 176.5 202.964C173.1 204.064 169.4 204.664 165.8 204.664Z" fill="white"/>
<path d="M165 210.764C158 210.764 150.8 208.864 143.5 204.964C129.4 197.464 117.7 186.864 106.4 176.564C89.3998 161.064 73.2998 146.464 49.7998 141.464L49.9998 140.464C73.7998 145.564 90.6998 160.964 107.1 175.864C118.4 186.164 130 196.764 144 204.164C155 209.964 165.7 211.364 175.8 208.264C201.1 200.464 219.4 165.964 232.7 140.664C235 136.264 237.3 132.064 239.4 128.264C241.3 124.864 243.3 121.064 245.5 116.964C258.9 91.564 277.4 56.764 302.7 49.464C312.4 46.664 322.5 48.264 332.6 54.064C349.6 63.864 363.2 78.764 376.3 93.264C394.5 113.264 413.3 133.964 441.1 140.364L440.9 141.364C412.7 134.864 393.8 114.064 375.5 93.964C362.4 79.564 348.9 64.764 332.1 54.964C322.2 49.264 312.4 47.764 302.9 50.464C277.9 57.664 259.6 92.264 246.3 117.464C244.1 121.564 242.1 125.364 240.2 128.764C238.1 132.564 235.9 136.764 233.5 141.164C220.1 166.564 201.7 201.364 176 209.264C172.4 210.164 168.7 210.764 165 210.764Z" fill="white"/>
<path d="M164.1 217.664C157 217.664 149.7 215.664 142.2 211.764C128 204.264 116.2 193.664 104.7 183.364C87.4002 167.864 71.0002 153.164 47.2002 148.164L47.4002 147.164C71.5002 152.164 88.7002 167.564 105.4 182.564C116.8 192.764 128.6 203.364 142.6 210.764C186.2 233.664 212.9 183.864 232.4 147.464C234.7 143.064 237 138.964 239.1 135.164C241 131.764 243.1 127.864 245.3 123.764C258.9 98.3638 277.5 63.5638 303.1 56.1638C312.9 53.3638 323.1 54.8638 333.3 60.6638C350.6 70.4638 364.5 85.4638 377.8 100.064C396.2 119.964 415.1 140.664 443.2 147.164L443 148.164C414.7 141.564 395.6 120.864 377.1 100.764C363.8 86.2638 350 71.3638 332.8 61.5638C322.8 55.8638 312.9 54.4638 303.4 57.1638C278.2 64.4638 259.7 99.0638 246.2 124.264C244 128.364 241.9 132.264 240 135.664C237.9 139.464 235.7 143.564 233.3 147.964C223.8 165.664 212 187.664 197.3 201.964C186.6 212.464 175.6 217.664 164.1 217.664Z" fill="white"/>
<path d="M163.1 224.864C155.1 224.864 146.7 222.364 138.2 217.464C125.5 210.164 114.5 200.464 103.9 191.064C86.0001 175.264 69.1001 160.364 44.6001 155.464L44.8001 154.464C69.5001 159.364 87.3001 175.064 104.6 190.264C115.2 199.564 126.2 209.264 138.8 216.564C150.8 223.464 162.4 225.464 173.4 222.364C199.4 215.064 217.6 181.764 232.3 155.064C234.7 150.664 237 146.564 239.1 142.764C241.1 139.264 243.2 135.364 245.5 131.264C259.6 105.564 278.9 70.4638 305 63.5638C315.6 60.7638 326.6 62.8638 337.7 69.8638C353.4 79.6638 366.4 93.5638 379 106.964C397.8 127.064 417.3 147.864 445.6 154.264L445.4 155.264C416.8 148.664 397.2 127.864 378.3 107.664C365.7 94.2638 352.7 80.3638 337.2 70.6638C326.3 63.8638 315.6 61.7638 305.3 64.4638C279.5 71.1638 260.4 106.164 246.4 131.664C244.1 135.764 242 139.664 240 143.164C237.8 146.964 235.6 151.064 233.2 155.464C218.4 182.364 200.1 215.864 173.7 223.264C170.1 224.364 166.6 224.864 163.1 224.864Z" fill="white"/>
<path d="M162.2 232.064C154 232.064 145.6 229.564 137 224.664C124.2 217.364 113.1 207.664 102.3 198.364C84.1001 182.464 66.8001 167.564 42.1001 162.764L42.3001 161.764C67.3001 166.564 85.5001 182.364 103 197.564C113.7 206.864 124.8 216.564 137.5 223.764C149.7 230.764 161.5 232.664 172.7 229.564C198.9 222.264 217.3 189.064 232.2 162.364C234.6 158.064 236.8 154.064 239 150.264C241.1 146.764 243.2 142.864 245.5 138.664C259.8 112.964 279.3 77.7641 305.7 70.8641C316.4 68.0641 327.5 70.0641 338.7 76.9641C354.7 86.7641 368 100.764 380.9 114.264C399.9 134.264 419.6 154.964 448 161.564L447.8 162.564C419.1 155.964 399.3 135.164 380.2 114.964C367.4 101.464 354.1 87.5641 338.2 77.7641C327.2 71.0641 316.4 69.0641 306 71.7641C280 78.5641 260.6 113.564 246.5 139.064C244.2 143.164 242 147.164 240 150.664C237.8 154.464 235.6 158.464 233.2 162.764C218.3 189.664 199.7 223.064 173.1 230.464C169.4 231.564 165.8 232.064 162.2 232.064Z" fill="white"/>
<path d="M161 239.864C153.6 239.864 146.1 237.864 138.3 233.764C124 226.264 111.9 215.764 100.2 205.664C81.7998 189.764 64.3998 174.664 39.2998 170.164L39.4998 169.164C64.8998 173.764 83.1998 189.664 100.8 204.964C112.5 215.064 124.6 225.564 138.7 232.964C183.4 256.364 211.6 206.064 232.2 169.364C234.5 165.364 236.6 161.564 238.7 157.964C240.9 154.264 243.1 150.164 245.5 145.864C255.2 128.564 267.2 106.964 282 92.7642C299.4 76.1642 317.2 72.8642 336.4 82.7642C355 92.3642 369.6 107.764 383.8 122.564C402.6 142.164 421.9 162.564 450.2 168.964L450 169.964C421.5 163.464 402 143.064 383.1 123.264C369 108.464 354.3 93.1642 335.9 83.6642C293.5 61.7642 266.2 110.564 246.4 146.264C244 150.564 241.7 154.664 239.6 158.364C237.5 161.864 235.4 165.664 233.2 169.764C223.2 187.564 210.8 209.764 195.4 224.164C184.2 234.664 172.8 239.864 161 239.864Z" fill="white"/>
<path d="M160.1 247.164C152.6 247.164 145 245.164 137.1 241.064C122.7 233.564 110.4 223.164 98.5998 213.064C79.8998 197.064 62.1998 182.064 36.7998 177.564L36.9998 176.564C62.6998 181.164 81.2998 196.964 99.2998 212.364C111.1 222.464 123.3 232.864 137.6 240.264C182.8 263.664 211.4 213.464 232.2 176.864C234.5 172.864 236.6 169.164 238.6 165.664C240.8 161.964 243.1 157.864 245.6 153.464C255.4 136.064 267.6 114.464 282.5 100.264C300.1 83.6637 318 80.2638 337.3 90.0638C356.2 99.6638 371.2 115.064 385.6 130.064C404.6 149.664 424.2 169.864 452.5 176.364L452.3 177.364C423.6 170.864 403.9 150.464 384.9 130.764C370.5 115.864 355.6 100.464 336.8 90.9637C294 69.2637 266.5 118.164 246.4 153.864C244 158.164 241.6 162.264 239.4 166.064C237.3 169.564 235.2 173.264 233 177.264C222.8 195.064 210.2 217.264 194.6 231.664C183.4 241.964 172 247.164 160.1 247.164Z" fill="white"/>
<path d="M159 254.164C151 254.164 142.4 251.864 133.1 246.764C119.9 239.464 108.4 229.764 97.3002 220.364C78.2002 204.264 60.1002 189.064 34.2002 184.664L34.4002 183.664C60.5002 188.064 78.7002 203.364 98.0002 219.564C109.1 228.864 120.6 238.564 133.6 245.764C180.9 272.064 210.4 221.164 232 184.064C234.3 180.164 236.4 176.464 238.5 172.964C240.8 169.064 243.2 164.864 245.8 160.464C261.2 133.564 280.3 100.164 307 93.0641C318.1 90.0641 329.8 92.0641 341.6 98.9641C358.3 108.664 372.3 122.864 385.9 136.464C405.7 156.364 426.1 177.064 455 183.564L454.8 184.564C425.7 177.964 405.1 157.264 385.2 137.264C371.7 123.664 357.7 109.564 341.1 99.8641C329.5 93.0641 318.1 91.1641 307.2 94.0641C281 101.064 261.9 134.264 246.7 160.964C244.1 165.464 241.7 169.664 239.4 173.464C237.3 176.964 235.2 180.664 232.9 184.564C215.2 214.964 192.4 254.164 159 254.164Z" fill="white"/>
<path d="M158 261.564C149.9 261.564 141.2 259.264 131.7 254.064C118.4 246.764 106.8 237.064 95.4999 227.764C75.9999 211.664 57.5999 196.364 31.3999 192.064L31.5999 191.064C58.0999 195.364 76.5999 210.764 96.0999 226.964C107.3 236.264 118.9 245.864 132.1 253.164C153.3 264.864 172.7 262.664 191.4 246.464C207.6 232.464 220.4 210.664 231.8 191.464C234 187.664 236.2 184.064 238.3 180.564C240.7 176.664 243.1 172.464 245.7 167.964C267.2 130.864 296.7 80.0641 342.4 106.164C359.5 115.864 373.8 130.164 387.6 143.864C407.6 163.764 428.2 184.264 457.2 190.864L457 191.864C427.7 185.264 407 164.564 386.9 144.564C373.1 130.864 358.9 116.664 341.9 106.964C297 81.3641 267.8 131.664 246.5 168.364C243.9 172.864 241.4 177.064 239.1 180.964C237 184.364 234.9 187.964 232.6 191.764C214.9 222.364 191.8 261.564 158 261.564Z" fill="white"/>
<path d="M157.1 268.864C148.5 268.864 139.6 266.364 130.4 261.264C117 253.964 105.3 244.364 93.8999 235.064C74.0999 218.864 55.3999 203.564 28.8999 199.364L29.0999 198.364C55.8999 202.564 74.6999 217.964 94.5999 234.264C105.9 243.564 117.7 253.164 131 260.364C152.4 272.064 172 269.964 191 253.864C207.4 239.964 220.4 218.064 232 198.764C234.2 195.064 236.3 191.564 238.4 188.164C240.8 184.264 243.3 179.964 246 175.464C267.8 138.364 297.6 87.5641 343.6 113.364C361 123.164 375.6 137.464 389.6 151.264C409.8 171.064 430.6 191.564 459.8 198.164L459.6 199.164C430.2 192.464 409.2 171.864 389 151.964C375 138.164 360.4 123.864 343.2 114.264C298 88.9641 268.5 139.264 246.9 175.964C244.2 180.464 241.7 184.764 239.3 188.664C237.2 192.064 235.1 195.564 232.9 199.264C221.3 218.564 208.2 240.564 191.7 254.564C180.3 264.164 169 268.864 157.1 268.864Z" fill="white"/>
<path d="M156.7 276.664C148.7 276.664 140.5 274.564 131.9 270.464C116.8 263.164 103.8 252.664 91.2001 242.464C71.3001 226.464 52.6001 211.264 26.1001 207.264L26.2001 206.264C53.0001 210.264 72.7001 226.264 91.8001 241.664C104.3 251.764 117.3 262.264 132.3 269.564C180.2 292.764 208.6 245.464 231.4 207.364C233.7 203.564 235.9 199.864 238 196.364C240.3 192.664 242.7 188.664 245.2 184.364C265.8 149.564 296.8 96.9639 341.3 119.164C360.7 128.864 376.5 144.364 391.7 159.264C411.9 179.064 432.8 199.564 462.1 206.164L461.9 207.164C432.3 200.464 411.3 179.964 391.1 160.064C375.9 145.164 360.2 129.764 340.9 120.064C321.6 110.464 303.4 113.964 285.1 130.964C269.4 145.464 256.5 167.364 246.2 184.864C243.7 189.164 241.3 193.264 239 196.864C236.8 200.364 234.7 203.964 232.4 207.864C221.1 226.764 208.2 248.164 192.1 262.064C180.5 271.864 168.9 276.664 156.7 276.664Z" fill="white"/>
<path d="M155.6 285.764C147.8 285.764 139.4 283.864 130.2 279.464C114.9 272.164 101.7 261.664 89.0002 251.564C68.8002 235.464 49.6002 220.264 22.7002 216.364L22.8002 215.364C50.0002 219.364 70.1002 235.264 89.6002 250.764C102.3 260.864 115.5 271.264 130.6 278.564C179.1 301.764 207.9 254.464 231.1 216.464C233.4 212.764 235.5 209.164 237.7 205.764C240 202.064 242.5 197.964 245.1 193.664C255.7 176.064 268.8 154.064 284.8 139.464C303.6 122.164 322.5 118.464 342.3 128.164C362.1 137.864 378.2 153.464 393.8 168.464C414.3 188.164 435.4 208.664 464.9 215.264L464.7 216.264C435 209.564 413.7 189.064 393.2 169.164C377.7 154.164 361.6 138.664 341.9 129.064C322.5 119.564 304 123.164 285.5 140.164C269.6 154.764 256.5 176.564 246 194.164C243.4 198.464 241 202.564 238.6 206.264C236.5 209.664 234.3 213.164 232 216.964C213 248.264 190.1 285.764 155.6 285.764Z" fill="white"/>
<path d="M154.4 295.364C147 295.364 139.3 293.564 131.5 290.064C115.2 282.664 101.1 271.664 87.5 261.064C66.6 244.664 46.9 229.264 19.5 225.464L19.6 224.464C47.3 228.264 68 244.564 88.1 260.264C101.6 270.864 115.7 281.864 131.9 289.164C152.7 298.564 171.8 295.264 190.4 279.264C206.5 265.364 219.4 244.564 230.8 226.064C233.2 222.164 235.5 218.564 237.7 215.064C240.2 211.164 242.8 206.964 245.5 202.464C268.4 164.964 299.8 113.664 346.8 138.764C365.1 148.564 380.5 163.164 395.4 177.264C416.4 197.164 438 217.664 467.8 224.264L467.6 225.264C437.5 218.564 415.7 197.964 394.7 177.964C379.9 163.864 364.5 149.364 346.3 139.664C300 114.964 269 165.864 246.3 202.964C243.6 207.464 241 211.664 238.5 215.564C236.3 219.064 234 222.664 231.6 226.564C220.2 245.064 207.2 265.964 191 279.964C179.1 290.264 167 295.364 154.4 295.364Z" fill="white"/>
<path d="M153.2 304.364C145.6 304.364 137.9 302.564 129.9 298.964C113.4 291.564 99.2002 280.664 85.4002 269.964C64.1002 253.564 44.0002 238.064 16.2002 234.364L16.3002 233.364C44.4002 237.064 65.5002 253.364 85.9002 269.164C99.6002 279.764 113.8 290.664 130.2 297.964C151.2 307.364 170.6 304.164 189.4 288.264C205.7 274.464 218.9 253.464 230.5 235.064C232.9 231.264 235.1 227.764 237.3 224.364C239.8 220.464 242.5 216.164 245.3 211.664C268.5 174.164 300.3 122.864 347.8 147.664C366.5 157.464 382.2 172.164 397.4 186.264C418.6 206.064 440.5 226.564 470.5 233.264L470.3 234.264C440 227.464 418 206.964 396.7 187.064C381.6 172.964 365.9 158.264 347.3 148.564C300.6 124.164 269.1 175.064 246.1 212.164C243.3 216.664 240.7 220.964 238.1 224.864C235.9 228.264 233.7 231.864 231.3 235.564C219.6 254.064 206.4 275.164 190 289.064C178.2 299.264 166 304.364 153.2 304.364Z" fill="white"/>
<path d="M152 312.764C143.8 312.764 135 310.764 125.5 306.164C110.2 298.864 96.8002 288.564 83.7002 278.664C62.0002 262.164 41.5002 246.564 13.2002 243.064L13.3002 242.064C41.8002 245.664 63.5002 262.064 84.4002 277.964C97.4002 287.864 110.8 298.064 126 305.364C175.9 329.364 206.6 281.264 231.2 242.764C233.3 239.564 235.3 236.364 237.3 233.364C239.9 229.364 242.6 224.964 245.5 220.364C268.2 183.964 299.2 134.164 346 155.064C367.2 164.464 384.3 180.464 400.9 195.764C421.9 215.264 443.6 235.364 473.4 241.964L473.2 242.964C443.1 236.364 421.3 216.064 400.2 196.464C383.7 181.164 366.6 165.264 345.6 155.864C299.6 135.364 268.8 184.764 246.4 220.764C243.5 225.364 240.8 229.764 238.2 233.764C236.2 236.764 234.2 239.964 232.1 243.164C211.9 274.864 187.6 312.764 152 312.764Z" fill="white"/>
<path d="M150.8 321.564C142.5 321.564 133.6 319.564 124 314.964C108.6 307.664 94.9999 297.464 81.6999 287.564C59.4999 270.964 38.5999 255.364 9.8999 251.864L9.9999 250.864C38.8999 254.364 60.9999 270.864 82.2999 286.764C95.4999 296.564 109.1 306.764 124.4 314.064C174.9 338.064 206.1 289.964 231.1 251.364C233.1 248.264 235.1 245.264 237 242.364C239.7 238.264 242.4 233.964 245.4 229.264C268.4 192.864 299.8 143.064 347 163.664C368.6 173.064 386.1 189.064 403 204.564C424.3 223.964 446.2 244.064 476.2 250.764L476 251.764C445.8 245.064 423.7 224.864 402.3 205.364C385.4 189.964 368 173.964 346.6 164.664C326.1 155.664 306.8 159.364 287.8 175.864C271.4 190.064 258 211.264 246.2 229.964C243.3 234.564 240.5 238.964 237.8 243.064C235.9 245.964 233.9 249.064 231.9 252.064C211.5 283.564 186.9 321.564 150.8 321.564Z" fill="white"/>
<path d="M149.4 330.364C139.8 330.364 129.9 327.764 119.6 322.564C105.4 315.364 92.4002 305.864 80.0002 296.764C57.3002 280.064 35.8002 264.264 6.7002 260.964L6.8002 259.964C36.2002 263.364 57.7002 279.164 80.6002 295.964C93.0002 305.164 105.9 314.564 120.1 321.664C143.6 333.464 165 331.664 185.4 315.964C203.3 302.264 218.2 279.864 231.3 260.064C233.2 257.164 235.1 254.364 236.9 251.564C239.6 247.564 242.4 243.164 245.3 238.664C269.4 201.164 302.5 149.864 351.4 174.164C371 183.864 387.6 198.664 403.6 212.964C425.7 232.664 448.5 253.064 479 259.764L478.8 260.764C448 254.064 425.1 233.564 402.9 213.764C386.9 199.464 370.4 184.764 350.9 175.064C329.6 164.464 309.6 167.364 289.7 183.964C272.5 198.264 258.5 220.064 246.1 239.264C243.1 243.864 240.4 248.164 237.6 252.164C235.7 254.964 233.9 257.764 232 260.664C218.9 280.464 204 302.964 185.9 316.764C174.2 325.864 162.1 330.364 149.4 330.364Z" fill="white"/>
<path d="M148.6 339.664C139.6 339.664 130.4 337.464 120.8 333.064C105 325.864 90.8998 315.564 77.1998 305.664C54.2998 289.064 32.6998 273.364 3.2998 270.264L3.3998 269.264C32.9998 272.464 55.7998 288.964 77.6998 304.864C91.2998 314.764 105.3 324.864 121.1 332.164C144.3 342.764 165.4 340.364 185.6 324.764C203.3 311.064 218 289.064 230.9 269.664C232.8 266.764 234.7 263.964 236.6 261.164C239.3 257.264 242 252.964 245 248.364C269 211.264 302 160.564 349.5 181.564C371.1 191.164 389 206.964 406.3 222.364C428.4 242.064 451.3 262.364 482 269.064L481.8 270.064C450.9 263.364 427.9 242.964 405.6 223.164C388.4 207.864 370.6 192.064 349.1 182.564C302.4 161.864 269.7 212.264 245.9 248.964C243 253.464 240.2 257.764 237.5 261.764C235.6 264.564 233.7 267.364 231.8 270.264C218.8 289.764 204.1 311.764 186.3 325.564C174.2 334.964 161.7 339.664 148.6 339.664Z" fill="white"/>
<path d="M147.4 349.164C138.3 349.164 128.9 346.964 119.2 342.564C103.2 335.364 88.9 325.164 75.1 315.264C51.8 298.664 29.8 282.864 0 279.864L0.0999999 278.864C30.1 281.964 53.3 298.464 75.7 314.464C89.5 324.264 103.7 334.464 119.6 341.664C143.1 352.364 164.5 349.964 185 334.364C202.9 320.664 217.9 298.564 231.2 279.064C233 276.364 234.9 273.664 236.7 271.064C239.4 267.064 242.3 262.764 245.3 258.164C269.7 221.064 303.1 170.364 350.9 191.064C372.9 200.564 391.2 216.564 408.8 231.964C431.2 251.564 454.4 271.864 485.2 278.564L485 279.564C453.9 272.764 430.6 252.464 408.1 232.764C390.5 217.364 372.4 201.464 350.5 191.964C303.4 171.564 270.3 221.864 246.1 258.664C243.1 263.264 240.2 267.564 237.5 271.564C235.7 274.164 233.9 276.864 232 279.564C218.7 299.164 203.7 321.364 185.6 335.064C173.2 344.464 160.6 349.164 147.4 349.164Z" fill="white"/>
</svg>
