<svg width="398" height="402" viewBox="0 0 398 402" fill="none" xmlns="http://www.w3.org/2000/svg">
<path d="M0.0999985 401.976V401.476C0.0999985 379.576 0.0999985 357.676 0.0999985 335.776C0.0999985 322.776 0.0999985 309.676 0.0999985 296.676C0.0999985 259.976 6.1 234.076 22.2 201.076C35.8 173.276 49.8 144.476 40.8 111.676C36.4 95.676 29.2 80.676 22.2 66.176C12.6 45.976 2.5 25.076 0.0999985 1.27598L0 0.77598H0.599998C12.5 0.77598 24.4 0.575982 36 0.375982C93.6 -0.524018 148.1 -1.32402 202.7 17.176L204.8 17.876C232.8 27.376 261.8 37.276 291.9 31.576C308 28.576 323.1 22.676 337.8 16.976C356.3 9.77598 375.5 2.37598 396.5 0.675982H397V1.17598C397 22.176 397 43.176 397 64.176V111.476C397 143.876 390.7 167.376 373.9 198.076C357 228.876 345 255.276 356.5 290.476C361.1 304.776 367.5 318.476 373.7 331.776C383.9 353.576 394.4 376.076 397 401.376L397.1 401.976H396.6C381 401.976 365.4 401.976 349.8 401.976C328 401.976 306.3 401.976 284.5 401.976C254.8 401.976 233.5 396.576 206.1 382.076C176.1 366.276 152.6 358.576 121.1 366.276C104.7 370.276 88.7 376.276 73.3 381.976C50.2 390.676 26.3 399.576 0.699997 401.876L0.0999985 401.976ZM144.9 362.276C165.8 362.276 184.4 369.576 206.5 381.176C233.7 395.576 254.9 400.876 284.4 400.976C306.2 400.976 327.9 400.976 349.7 400.976C365.1 400.976 380.5 400.976 395.9 400.976C393.2 376.076 382.8 353.776 372.8 332.276C366.6 318.976 360.2 305.276 355.5 290.876C344 255.276 356 228.676 373 197.676C389.7 167.076 395.9 143.776 395.9 111.576V64.276C395.9 43.476 395.9 22.576 395.9 1.77598C375.2 3.47598 356.3 10.876 338 17.976C323.3 23.676 308.1 29.576 291.9 32.676C261.6 38.376 232.5 28.476 204.3 18.876L202.2 18.176C148 -0.324022 93.6 0.475982 36.1 1.37598C24.7 1.57598 12.9 1.67598 1.2 1.77598C3.6 25.176 13.6 45.876 23.2 65.876C30.2 80.376 37.4 95.376 41.8 111.476C50.9 144.676 36.8 173.576 23.1 201.576C7.1 234.476 1.1 260.276 1.1 296.776C1.1 309.776 1.1 322.876 1.1 335.876C1.1 357.576 1.1 379.276 1.1 400.976C26.4 398.576 50 389.776 72.9 381.176C88.4 375.376 104.3 369.376 120.8 365.376C129.4 363.176 137.3 362.276 144.9 362.276Z" fill="white"/>
<path d="M273 57.176C250.3 57.176 228.2 50.576 206.7 44.176L205.9 43.976C148.9 26.976 87.8998 27.576 28.8998 28.176C20.9998 28.276 13.0998 28.376 5.2998 28.376V27.376C13.0998 27.376 20.9998 27.276 28.8998 27.176C87.9998 26.576 149 25.976 206.2 43.076L207 43.276C234.1 51.376 262.1 59.676 291 54.676C307.1 51.876 322.6 46.776 337.6 41.776C356.4 35.576 375.8 29.076 396.5 27.276L396.6 28.276C376.1 30.076 356.7 36.476 337.9 42.676C322.8 47.676 307.3 52.776 291.1 55.576C285.1 56.776 279 57.176 273 57.176Z" fill="white"/>
<path d="M270.6 75.876C251.1 75.876 232.2 72.576 214.3 68.876C187.6 63.276 162 62.176 134.9 60.976L129.5 60.776C115.2 60.176 100.7 59.276 86.5999 58.376C63.5999 56.876 39.8999 55.376 16.3999 55.176V54.176C39.8999 54.476 63.5999 55.976 86.5999 57.376C100.6 58.276 115.1 59.176 129.4 59.776L134.8 59.976C162 61.176 187.6 62.276 214.4 67.876C238.7 72.976 265 77.176 291.8 73.476C306.8 71.376 321.6 67.976 335.9 64.576C355.5 60.076 375.7 55.276 396.4 54.076L396.5 55.076C375.8 56.276 355.6 60.976 336.1 65.576C321.7 68.876 306.9 72.376 291.9 74.476C284.8 75.376 277.7 75.876 270.6 75.876Z" fill="white"/>
<path d="M230.4 93.276C228.3 93.276 226.2 93.276 224.1 93.276C188.9 92.776 153.5 89.976 119.1 87.376C89.6998 85.076 59.2998 82.776 29.2998 81.776V80.776C59.3998 81.676 89.7998 84.076 119.2 86.376C153.5 89.076 189 91.776 224.1 92.276C255.8 92.776 287.6 89.576 318.2 86.476C343.7 83.876 370.2 81.276 396.5 80.776V81.776C370.2 82.276 343.8 84.976 318.3 87.476C289.7 90.376 260.1 93.276 230.4 93.276Z" fill="white"/>
<path d="M182.9 124.776C157 124.776 130.2 120.476 104 116.276C81.7002 112.676 60.7002 109.276 40.2002 108.376V107.376C60.8002 108.276 81.8002 111.676 104.1 115.276C147.4 122.176 192.1 129.376 232.1 117.076C250.3 111.476 266.9 111.176 286 110.876H287.8C303.2 110.576 318.8 109.876 333.9 109.176C354.4 108.276 375.6 107.276 396.5 107.376V108.376C375.6 108.176 354.5 109.176 334 110.176C318.9 110.876 303.2 111.576 287.8 111.876H286C267 112.176 250.5 112.476 232.4 118.076C216.5 122.976 199.9 124.776 182.9 124.776Z" fill="white"/>
<path d="M203.2 152.876C196.6 152.876 189.8 152.276 182.7 151.576L182 151.476C162.6 149.676 143.1 146.776 124.2 143.976C98.3002 140.176 71.4002 136.176 44.7002 135.076V134.076C71.5002 135.176 98.3002 139.176 124.3 142.976C143.2 145.776 162.7 148.676 182 150.476L182.7 150.576C203 152.476 219.1 153.876 235.3 143.076C249.4 133.676 263.3 133.876 279.5 134.076C281.9 134.076 284.4 134.176 286.9 134.176H396.4V135.176H286.9C284.4 135.176 281.9 135.176 279.5 135.076C263.5 134.876 249.7 134.676 235.9 143.876C225.4 150.876 214.7 152.876 203.2 152.876Z" fill="white"/>
<path d="M191.8 173.876C185.8 173.876 179.7 173.576 173.4 173.076C154.6 171.676 135.6 169.876 117.2 168.076C92.0001 165.676 65.9001 163.076 40.1001 161.776L40.2001 160.776C66.0001 162.076 92.1001 164.676 117.3 167.076C135.7 168.876 154.7 170.676 173.5 172.076C194 173.576 211.6 173.276 231.3 167.176C249.7 161.376 266.8 160.876 287.1 160.776C301.9 160.676 317 160.576 331.6 160.376C351.3 160.176 371.7 159.976 391.7 159.976V160.976C371.7 160.976 351.3 161.176 331.6 161.376C317 161.476 301.9 161.676 287.1 161.776C266.8 161.876 249.9 162.376 231.5 168.076C217.9 172.376 205.2 173.876 191.8 173.876Z" fill="white"/>
<path d="M92.3002 188.876C71.2002 188.876 50.2002 188.776 29.2002 188.476V187.476C103.3 188.476 178.5 187.376 251.2 186.476C293.5 185.876 337.2 185.276 380.3 185.076V186.076C337.3 186.276 293.5 186.876 251.2 187.476C199.1 188.176 145.7 188.876 92.3002 188.876Z" fill="white"/>
<path d="M16.2002 215.176V214.176C37.2002 213.276 58.0002 210.976 78.1002 208.676C122.5 203.776 164.5 199.176 209.2 207.476C247.9 214.676 284.9 212.976 324 211.276C338 210.676 352.4 209.976 366.8 209.776V210.776C352.4 210.976 338 211.676 324 212.276C284.8 214.076 247.8 215.776 209 208.476C164.4 200.176 122.5 204.776 78.1002 209.676C58.0002 211.876 37.2002 214.176 16.2002 215.176Z" fill="white"/>
<path d="M5.3002 241.776L5.2002 240.776C26.2002 238.876 46.6002 233.476 66.4002 228.276C81.0002 224.376 96.1002 220.476 111.3 217.876C142.3 212.676 171.1 220.576 199 228.176C223.6 234.876 252.5 241.976 283.5 240.276C293.9 239.676 304.3 238.676 314.4 237.676C327.8 236.376 341.6 234.976 355.3 234.676V235.676C341.6 235.976 327.8 237.376 314.4 238.676C304.3 239.676 293.8 240.676 283.4 241.276C252.3 242.976 223.4 235.876 198.6 229.176C170.8 221.576 142.1 213.676 111.3 218.876C96.1002 221.476 81.0002 225.376 66.4002 229.276C46.8002 234.476 26.4002 239.876 5.3002 241.776Z" fill="white"/>
<path d="M0.700096 268.476L0.600098 267.476C21.3001 265.776 40.5001 258.976 59.1001 252.476C74.1001 247.176 89.6001 241.676 105.9 238.876C135.4 233.776 164.1 242.776 191.9 251.476L194.8 252.376C222.8 261.076 250.5 268.776 281.2 267.076C291.6 266.476 302 265.276 312.1 263.976C324.6 262.476 337.6 260.876 350.6 260.576V261.576C337.6 261.876 324.7 263.376 312.2 264.976C302.1 266.176 291.7 267.476 281.2 268.076C250.4 269.776 222.6 262.076 194.5 253.276L191.6 252.376C163.9 243.776 135.3 234.776 106 239.876C89.8001 242.676 74.3001 248.176 59.4001 253.376C40.7001 259.976 21.5001 266.876 0.700096 268.476Z" fill="white"/>
<path d="M0.700096 295.176L0.600098 294.176C22.0001 292.576 41.8001 285.476 60.9001 278.576C75.1001 273.476 89.8001 268.276 105.1 265.176C136.6 258.876 166.6 268.776 195.6 278.376L196 278.476C227.8 289.076 253.6 295.276 283.5 293.576C293.7 292.976 304.1 291.976 314 290.976C327.5 289.676 341.4 288.276 355.2 287.976V288.976C341.4 289.276 327.5 290.676 314.1 291.976C304.1 292.976 293.8 293.976 283.5 294.576C253.4 296.276 227.6 290.076 195.6 279.476L195.2 279.376C166.3 269.776 136.5 259.876 105.3 266.176C90.0001 269.276 75.4001 274.476 61.3001 279.576C42.1001 286.476 22.2001 293.576 0.700096 295.176Z" fill="white"/>
<path d="M0.700096 321.876L0.600098 320.876C23.3001 319.076 44.2001 311.476 64.5001 304.076C78.2001 299.076 92.5001 293.976 107.2 290.576C139.4 283.176 167.8 292.376 198.9 304.176C232.3 316.876 257.8 321.576 287 320.476C297.9 320.076 308.9 319.376 319.5 318.676C334.9 317.676 350.8 316.676 366.6 316.476V317.476C350.9 317.676 335 318.676 319.6 319.676C309 320.376 297.9 321.076 287.1 321.476C257.7 322.676 232.1 317.876 198.6 305.176C167.7 293.376 139.5 284.276 107.5 291.576C92.8001 294.976 78.6001 300.076 64.9001 305.076C44.5001 312.376 23.5001 320.076 0.700096 321.876Z" fill="white"/>
<path d="M0.700096 348.576L0.600098 347.576C24.7001 345.476 47.1001 337.276 68.8001 329.276C82.2001 324.376 96.0001 319.276 110.2 315.576C145.2 306.576 173.8 316.976 202.4 329.476C232.8 342.676 257.1 347.876 286.2 347.376C299.6 347.176 313.1 346.776 326.2 346.276C343.9 345.676 362.2 345.176 380.2 345.076V346.076C362.2 346.176 343.9 346.776 326.2 347.276C313.1 347.676 299.5 348.076 286.1 348.376C256.9 348.876 232.5 343.676 201.9 330.376C173.4 317.976 145 307.676 110.4 316.576C96.2001 320.276 82.4001 325.276 69.1001 330.176C47.4001 338.176 24.9001 346.476 0.700096 348.576Z" fill="white"/>
<path d="M284.1 375.276C255.5 375.276 233.3 369.876 204.9 355.876C178.9 343.076 152.7 332.376 118.6 340.576C102.5 344.476 86.8001 350.276 71.7001 355.876C49.1001 364.276 25.7001 372.976 0.700096 375.276L0.600098 374.276C25.5001 371.976 48.8001 363.376 71.4001 354.976C86.6001 349.376 102.2 343.476 118.4 339.576C152.8 331.276 179.1 342.176 205.3 354.976C233.6 368.876 255.7 374.276 284.1 374.276C284.3 374.276 284.4 374.276 284.6 374.276C300.7 374.276 317.1 374.076 333 373.876C352.2 373.676 372.1 373.476 391.6 373.476V374.476C372.1 374.476 352.2 374.676 333 374.876C317.1 375.076 300.7 375.176 284.6 375.276C284.4 375.276 284.3 375.276 284.1 375.276Z" fill="white"/>
<path d="M369.7 401.476C366.9 377.076 357.8 354.576 349 332.776C343.6 319.476 338.1 305.676 333.9 291.576C323.8 256.876 334.3 229.876 349.1 198.076C363.7 166.776 369.5 142.576 369.6 111.576C369.7 96.476 369.8 81.076 370 66.276C370.2 46.176 370.5 25.276 370.4 4.87598H371.4C371.4 25.376 371.2 46.176 371 66.276C370.8 81.176 370.6 96.476 370.6 111.576C370.5 142.776 364.7 167.076 350 198.576C335.3 230.076 324.8 256.976 334.8 291.376C338.9 305.476 344.5 319.276 349.8 332.576C358.6 354.476 367.7 376.976 370.5 401.576L369.7 401.476Z" fill="white"/>
<path d="M343.3 401.476C341.5 378.376 334.9 356.176 328.5 334.776C324.2 320.276 319.8 305.376 316.8 290.076C310.4 257.476 318.3 229.576 328.5 198.976C346.1 145.976 346.1 88.976 346.1 33.776C346.1 26.776 346.1 19.876 346.1 12.976H347.1C347.1 19.876 347.1 26.876 347.1 33.776C347.1 88.976 347.1 146.076 329.5 199.276C319.4 229.676 311.5 257.576 317.9 289.876C320.9 305.076 325.3 319.976 329.6 334.476C336 355.976 342.6 378.176 344.4 401.376L343.3 401.476Z" fill="white"/>
<path d="M316.9 401.476C316.3 379.076 312.5 356.876 308.8 335.376C306.5 322.176 304.2 308.476 302.6 294.876C298.7 261.576 303.4 229.676 309 200.176C319.5 144.576 321.2 86.876 322.2 22.776H323.2C322.2 86.976 320.6 144.676 310 200.376C304.4 229.876 299.8 261.676 303.7 294.776C305.3 308.376 307.7 322.076 309.9 335.276C313.6 356.776 317.5 379.076 318.1 401.576L316.9 401.476Z" fill="white"/>
<path d="M291.5 401.476H290.5C290.8 374.076 289.7 346.376 288.6 319.676C287.1 280.876 285.5 240.876 288.1 200.976C289.1 185.776 289.4 170.376 289.7 155.376C290 141.076 290.3 126.376 291.2 111.876C291.9 100.776 293 89.476 294.1 78.676C295.6 62.976 297.2 46.876 297.6 30.776H298.6C298.2 46.876 296.6 63.076 295.1 78.776C294 89.676 292.9 100.876 292.2 111.976C291.3 126.476 291 141.176 290.7 155.376C290.4 170.276 290.1 185.776 289.1 200.976C286.5 240.776 288.1 280.776 289.6 319.576C290.7 346.376 291.8 373.976 291.5 401.476Z" fill="white"/>
<path d="M265.1 401.376H264.1C264.1 372.776 264.1 344.076 264.1 315.476C264.1 277.376 264.1 239.376 264.1 201.276C264.1 192.876 264 184.376 263.9 176.076C263.6 154.976 263.4 133.176 264.9 111.876C265.7 101.176 266.9 90.476 268.1 80.176C269.9 65.176 271.7 49.576 272 34.076H273C272.7 49.676 270.8 65.176 269.1 80.276C267.9 90.576 266.6 101.276 265.9 111.976C264.4 133.176 264.7 154.976 264.9 176.076C265 184.376 265.1 192.876 265.1 201.276C265.1 239.376 265.1 277.376 265.1 315.476C265.1 344.176 265.1 372.776 265.1 401.376Z" fill="white"/>
<path d="M240.3 397.276H239.3C239.4 376.076 238.8 354.676 238.1 333.876C236.8 290.176 235.4 244.976 241.1 200.576C245.6 165.776 245 130.676 244.5 96.676C244.2 75.076 243.8 52.776 244.7 30.576H245.7C244.8 52.676 245.1 74.976 245.5 96.576C246 130.576 246.6 165.776 242.1 200.576C236.4 244.876 237.8 290.076 239.1 333.676C239.8 354.576 240.4 376.076 240.3 397.276Z" fill="white"/>
<path d="M216.8 387.476C216.5 369.076 214.9 350.576 213.3 332.776C209.2 286.676 205.3 243.176 223.1 198.876C232.6 175.276 240.7 148.976 235.9 116.776C233.9 103.476 230.4 90.476 227 77.976C222.2 60.276 217.2 41.976 216.6 22.476H217.6C218.2 41.776 223.2 60.076 228 77.6759C231.4 90.1759 234.9 103.176 237 116.576C241.9 148.976 233.7 175.476 224.1 199.276C206.4 243.376 210.3 286.776 214.4 332.676C216 350.576 217.7 368.976 217.9 387.476H216.8Z" fill="white"/>
<path d="M194.9 375.776C194 355.176 190.6 334.676 187.3 314.876C185.1 301.476 182.8 287.576 181.3 273.676C177.5 238.776 186.8 220.476 206.4 196.976C228 171.176 237.8 151.276 228.2 120.276C223.6 105.276 216.8 91.276 210.3 77.676C200.7 57.576 190.7 36.676 187.7 12.976L188.7 12.876C191.7 36.476 201.7 57.176 211.3 77.276C217.8 90.876 224.6 104.976 229.2 120.076C239 151.576 229 171.676 207.2 197.776C187.7 221.076 178.5 239.276 182.3 273.776C183.8 287.576 186.1 301.476 188.3 314.876C191.6 334.776 195 355.276 195.9 375.976L194.9 375.776Z" fill="white"/>
<path d="M172.4 365.976C171.1 345.676 166.5 325.876 162 306.676C158.7 292.476 155.3 277.776 153.2 262.876C148.5 229.476 160.8 214.476 188.4 195.176C213.9 177.376 232.3 160.976 219.3 126.476C212.4 108.276 202.2 91.876 192.3 75.976C178.6 54.176 164.6 31.676 159.4 4.77599L160.4 4.57599C165.6 31.276 179.6 53.776 193.1 75.476C203.1 91.476 213.3 107.976 220.2 126.176C226.3 142.276 226 155.276 219.4 167.076C213.4 177.676 202.9 186.276 189 196.076C161.2 215.476 149.6 229.776 154.2 262.776C156.3 277.576 159.7 292.276 163 306.476C167.5 325.676 172.1 345.576 173.4 365.976H172.4Z" fill="white"/>
<path d="M147.6 361.876C146.4 341.476 141.1 321.976 135.9 303.176C132.1 289.176 128.2 274.676 125.9 259.876C120.5 224.776 133.7 211.376 165.5 194.676C193.4 179.976 215.4 164.876 200.7 128.576C193 109.476 181.1 92.576 169.6 76.176C153.7 53.576 137.3 30.276 132.1 1.37597L133.1 1.17596C138.2 29.876 154.6 53.176 170.4 75.576C182 91.976 193.9 108.976 201.6 128.176C208.3 144.876 207.9 158.376 200.2 169.676C192.9 180.476 179.4 188.476 165.9 195.576C134.6 212.076 121.5 225.176 126.9 259.776C129.2 274.576 133.1 288.976 136.9 302.976C142 321.876 147.4 341.476 148.6 361.876H147.6Z" fill="white"/>
<path d="M119.6 365.876C118.3 345.376 113.6 325.476 109.1 306.176C106 293.076 102.9 279.476 100.8 265.876C95.1 229.176 108.2 213.876 137.9 195.276C169.3 175.576 184.6 157.476 169.7 123.176C162.3 106.176 151.8 90.576 141.7 75.576C126.5 53.076 110.8 29.676 105.7 1.27599L106.7 1.07599C111.8 29.376 127.4 52.576 142.6 74.976C152.7 90.076 163.2 105.576 170.7 122.676C185.8 157.576 170.4 175.976 138.5 195.976C101.7 219.076 97.4 236.776 101.8 265.576C103.9 279.176 107.1 292.776 110.1 305.876C114.6 325.176 119.3 345.176 120.6 365.776L119.6 365.876Z" fill="white"/>
<path d="M89.4001 375.676C88.5001 354.876 85.1002 334.176 81.7002 314.276C79.6002 301.976 77.5001 289.176 76.0001 276.476C73.8001 257.676 75.1001 243.976 80.3001 231.876C85.1001 220.676 93.6002 210.276 108.7 196.876C131.9 176.376 150.1 156.576 137.7 122.376C131.2 104.476 121 88.176 111.2 72.476C97.6002 50.776 83.5001 28.276 79.3001 1.27599L80.3001 1.07599C84.4001 27.876 98.5001 50.276 112.1 71.876C122 87.676 132.2 103.976 138.7 121.976C151.2 156.776 132.9 176.776 109.4 197.476C83.3001 220.576 72.4001 237.476 77.0001 276.176C78.5001 288.876 80.6002 301.576 82.7002 313.976C86.0002 333.976 89.5001 354.676 90.4001 375.576L89.4001 375.676Z" fill="white"/>
<path d="M58.4999 387.376C58.1999 366.376 56.1999 345.176 54.2999 324.676C52.9999 310.976 51.6999 296.876 50.8999 282.876C48.8999 248.776 55.7999 228.276 79.0999 198.776C98.3999 174.376 113.7 151.576 104.7 120.676C99.3999 102.276 89.7999 85.676 80.5999 69.576C68.5999 48.576 56.0999 26.876 53.0999 1.27596L54.0999 1.17596C57.0999 26.576 69.4999 48.176 81.4999 69.076C90.7999 85.176 100.3 101.876 105.7 120.376C114.8 151.776 99.3999 174.776 79.9999 199.376C56.7999 228.676 49.9999 248.976 51.9999 282.776C52.7999 296.676 54.0999 310.876 55.3999 324.476C57.2999 344.976 59.2999 366.276 59.5999 387.276L58.4999 387.376Z" fill="white"/>
<path d="M29.1999 397.176H28.1999C28.2999 375.976 27.5999 354.376 26.8999 333.576C26.3999 319.476 25.8999 304.976 25.6999 290.676C25.1999 255.476 31.6999 230.976 49.7999 200.476C65.5999 173.876 79.0999 147.376 71.1999 116.676C66.6999 98.976 58.2999 82.776 50.1999 67.176C39.6999 46.676 28.8999 25.676 26.4999 1.27596L27.4999 1.17596C29.7999 25.376 40.6999 46.376 51.1999 66.576C59.2999 82.276 67.6999 98.476 72.2999 116.276C80.2999 147.476 66.5999 174.076 50.6999 200.876C32.6999 231.276 26.1999 255.576 26.6999 290.576C26.8999 304.876 27.3999 319.476 27.8999 333.476C28.5999 354.376 29.2999 375.976 29.1999 397.176Z" fill="white"/>
</svg>
