<svg width="398" height="441" viewBox="0 0 398 441" fill="none" xmlns="http://www.w3.org/2000/svg">
<path d="M0.075 440.3V439.7C-0.025 321.2 -0.025 200.8 0.075 84.3V0H0.575C35.575 1.4 69.675 10.7 102.575 19.7C133.575 28.1 165.675 36.9 198.575 39.1C235.175 41.5 267.175 58.8 298.175 75.4C328.775 91.9 360.475 108.9 396.575 111.6H397.075V166.1C397.075 255.8 396.975 348.6 397.075 439.8V440.3H396.575C353.075 436.6 312.275 418 272.775 400C264.575 396.3 256.075 392.4 247.875 388.8C243.475 386.9 239.075 384.9 234.375 382.8C204.875 369.5 171.375 354.5 139.375 354.5C138.875 354.5 138.275 354.5 137.775 354.5C106.475 355 87.775 375.2 68.075 396.7C49.775 416.6 30.775 437.3 0.675002 440.2L0.075 440.3ZM139.275 353.5C171.575 353.5 205.075 368.5 234.675 381.9C239.375 384 243.775 386 248.075 387.9C256.375 391.5 264.875 395.4 273.075 399.1C312.275 417 352.875 435.4 395.975 439.2C395.875 348.1 395.975 255.6 395.975 166.1V112.5C359.875 109.7 328.275 92.7 297.675 76.2C266.775 59.6 234.875 42.4 198.475 40C165.475 37.8 133.375 29.1 102.275 20.6C69.575 11.7 35.775 2.5 1.075 1V84.3C1.075 200.6 0.975 320.9 1.075 439.2C30.475 436.1 49.175 415.7 67.275 396.1C86.275 375.4 105.975 354.1 137.675 353.6C138.175 353.5 138.675 353.5 139.275 353.5Z" fill="white"/>
<path d="M396.475 135.5C359.875 133 328.075 115.6 297.375 98.8C267.075 82.2 235.875 65.1 199.975 62.2C166.475 59.5 133.075 52.6 100.875 45.9C68.1751 39.2 34.3751 32.3 0.475098 29.6L0.575096 28.6C34.5751 31.2 68.2751 38.2 100.975 45C133.175 51.7 166.475 58.5 199.975 61.3C236.075 64.2 267.475 81.4 297.775 98C328.375 114.8 360.075 132.1 396.475 134.6V135.5Z" fill="white"/>
<path d="M396.475 153C360.375 150.4 329.475 132.6 299.675 115.3C270.075 98.1 239.375 80.3 203.575 77.7C174.375 75.5 144.675 73 115.975 70.5C78.0751 67.1 38.9751 63.7 0.475098 61.3L0.575096 60.3C39.0751 62.7 78.1751 66.2 115.975 69.5C144.675 72 174.375 74.6 203.575 76.7C239.675 79.4 270.375 97.2 300.175 114.4C329.875 131.6 360.675 149.4 396.575 152L396.475 153Z" fill="white"/>
<path d="M396.475 166.9C361.375 164.1 331.975 145.6 303.575 127.8C274.575 109.6 244.575 90.7 208.575 88.9C170.975 87 132.675 89.4 95.6749 91.6C64.4749 93.5 32.275 95.5 0.574951 94.9V93.9C32.175 94.5 64.475 92.5 95.575 90.6C132.675 88.3 170.975 86 208.575 87.9C244.775 89.7 274.875 108.7 303.975 127C332.275 144.8 361.575 163.2 396.475 166V166.9Z" fill="white"/>
<path d="M396.475 179.2C362.375 176.2 334.375 157 307.375 138.5C279.075 119.1 249.875 99.1 214.175 98.2C175.475 97.2 136.575 105.6 98.975 113.7C66.875 120.6 33.6749 127.8 0.574951 129.2V128.2C33.575 126.9 66.675 119.7 98.775 112.8C136.375 104.7 175.275 96.2 214.175 97.2C250.175 98.1 279.575 118.2 307.975 137.7C334.975 156.2 362.775 175.3 396.575 178.2L396.475 179.2Z" fill="white"/>
<path d="M396.475 192.1C363.375 188.9 336.575 169 310.675 149.8C283.275 129.4 254.875 108.3 219.475 108.2C189.175 108.1 158.475 118.8 128.875 129.1C124.375 130.7 119.975 132.2 115.675 133.7L111.275 135.2C75.775 147.3 39.075 159.7 0.674953 163.3L0.574951 162.3C38.875 158.7 75.475 146.3 110.975 134.2L115.375 132.7C119.775 131.2 124.175 129.7 128.575 128.1C158.175 117.8 188.675 107.2 218.975 107.2C219.175 107.2 219.275 107.2 219.475 107.2C255.175 107.3 283.675 128.5 311.275 149C337.075 168.2 363.675 188 396.575 191.1L396.475 192.1Z" fill="white"/>
<path d="M396.475 207.6C363.875 204.3 338.075 183.7 313.075 163.9C286.575 142.8 259.175 121.1 224.175 121.1C224.075 121.1 223.975 121.1 223.975 121.1C193.775 121.2 162.075 135.8 134.175 148.6C129.675 150.7 125.475 152.6 121.275 154.5C117.775 156 114.375 157.6 110.875 159.2C75.9751 175 39.7751 191.3 0.575096 196.1L0.475098 195.1C39.4751 190.3 75.5751 174 110.475 158.2C113.975 156.6 117.375 155.1 120.875 153.5C125.075 151.6 129.275 149.7 133.775 147.6C161.775 134.7 193.575 120.1 223.975 120C224.075 120 224.175 120 224.275 120C259.575 120 287.075 141.9 313.775 163.1C338.675 182.9 364.375 203.3 396.675 206.6L396.475 207.6Z" fill="white"/>
<path d="M396.375 227.7C363.675 224.4 338.475 203.5 313.975 183.2C288.175 161.8 261.375 139.7 226.475 139.7C226.475 139.7 226.475 139.7 226.375 139.7C194.575 139.7 162.375 156.9 133.975 172.1C130.075 174.2 126.375 176.2 122.675 178.1C118.475 180.3 114.175 182.5 109.975 184.8C75.6751 202.9 40.1751 221.7 0.575096 226.3L0.475098 225.3C39.9751 220.7 75.3751 202 109.575 183.9C113.775 181.7 118.075 179.4 122.275 177.2C125.975 175.3 129.775 173.3 133.575 171.2C162.075 156 194.475 138.7 226.475 138.7C226.475 138.7 226.475 138.7 226.575 138.7C261.875 138.7 288.675 160.9 314.675 182.4C338.975 202.5 364.175 223.4 396.475 226.7L396.375 227.7Z" fill="white"/>
<path d="M0.575096 253.4L0.475098 252.4C40.3751 248.8 75.4751 229.2 109.375 210.2C113.475 207.9 117.675 205.6 121.775 203.3C124.675 201.7 127.675 200 130.775 198.3C159.675 182.1 192.475 163.8 225.775 164.2C261.075 164.6 287.975 186.7 313.975 208.1C338.475 228.3 363.875 249.1 396.575 252.4L396.475 253.4C363.475 250.1 338.075 229.2 313.375 208.9C287.475 187.6 260.775 165.6 225.775 165.2C192.675 164.8 160.075 183.1 131.275 199.2C128.275 200.9 125.275 202.6 122.275 204.2C118.175 206.5 113.975 208.8 109.875 211.1C75.8751 230.1 40.6751 249.8 0.575096 253.4Z" fill="white"/>
<path d="M0.575096 280.1L0.475098 279.1C40.1751 275.5 74.1751 255.4 107.175 236C110.475 234 113.775 232.1 117.175 230.1C119.275 228.9 121.475 227.6 123.675 226.3C152.075 209.6 184.175 190.7 217.675 191.1C253.875 191.5 282.575 213.6 310.275 234.9C336.275 254.9 363.175 275.6 396.575 279L396.475 280C362.875 276.6 335.775 255.8 309.675 235.7C282.075 214.5 253.575 192.5 217.675 192.1C217.375 192.1 216.975 192.1 216.675 192.1C183.875 192.1 152.175 210.7 124.275 227.2C122.075 228.5 119.975 229.7 117.775 231C114.475 232.9 111.075 234.9 107.775 236.9C74.6751 256.4 40.4751 276.5 0.575096 280.1Z" fill="white"/>
<path d="M0.575096 306.8L0.475098 305.8C36.6751 302.5 67.6751 281.9 97.7751 261.9C130.175 240.4 163.575 218.2 203.075 218.2C203.275 218.2 203.575 218.2 203.775 218.2C241.775 218.5 273.375 240.5 303.875 261.9C332.275 281.8 361.675 302.4 396.475 305.8L396.375 306.8C361.275 303.4 331.775 282.7 303.275 262.8C272.875 241.5 241.475 219.5 203.775 219.3C164.275 219.1 130.775 241.3 98.2751 262.8C68.1751 282.8 36.9751 303.5 0.575096 306.8Z" fill="white"/>
<path d="M396.475 333.5C357.775 329.9 324.675 309.8 292.575 290.4C287.475 287.3 282.275 284.2 277.175 281.1L274.675 279.6C248.275 264 218.375 246.3 187.075 246.3C186.975 246.3 186.975 246.3 186.975 246.3C149.975 246.4 119.875 268.3 90.8749 289.5C63.5749 309.5 35.275 330.1 0.674953 333.4L0.574951 332.4C34.875 329.2 62.975 308.6 90.275 288.7C119.475 267.4 149.575 245.4 186.975 245.3C186.975 245.3 187.075 245.3 187.175 245.3C218.775 245.3 248.775 263.1 275.275 278.7L277.775 280.2C282.975 283.2 288.175 286.4 293.175 289.5C325.075 308.8 358.175 328.8 396.675 332.4L396.475 333.5Z" fill="white"/>
<path d="M396.375 360.2C355.675 356.6 319.575 336.9 284.675 317.9C278.775 314.7 272.775 311.4 266.775 308.2C264.875 307.2 263.075 306.2 261.175 305.2C233.175 290.2 201.375 273.3 169.275 273.6C134.675 274 108.275 295.6 82.775 316.5C58.475 336.4 33.275 357 0.674953 360.2L0.574951 359.2C32.875 356.1 57.9749 335.6 82.1749 315.7C107.875 294.7 134.375 273 169.275 272.6C201.675 272.2 233.475 289.3 261.675 304.3C263.575 305.3 265.475 306.3 267.275 307.3C273.275 310.5 279.375 313.8 285.175 317C319.975 336 355.975 355.6 396.475 359.2L396.375 360.2Z" fill="white"/>
<path d="M396.375 386.8C353.875 383.2 315.275 363.9 277.875 345.2C271.175 341.8 264.275 338.4 257.375 335.1C254.575 333.7 251.675 332.3 248.775 330.9C219.475 316.5 186.175 300.1 153.475 300.7C120.875 301.3 97.7751 322.6 75.3751 343.3C53.8751 363.2 31.5751 383.8 0.575096 386.9L0.475098 385.9C31.1751 382.8 53.3751 362.4 74.7751 342.6C97.2751 321.8 120.575 300.3 153.475 299.7C186.475 299.1 219.775 315.5 249.275 330C252.175 331.4 255.075 332.8 257.875 334.2C264.675 337.5 271.675 341 278.375 344.3C315.675 363 354.175 382.2 396.475 385.8L396.375 386.8Z" fill="white"/>
<path d="M396.375 413.5C352.775 409.9 312.475 390.9 273.475 372.6C265.975 369.1 258.175 365.4 250.575 362C246.875 360.3 243.175 358.6 239.275 356.8C209.775 343.1 176.275 327.7 143.875 327.7C143.275 327.7 142.675 327.7 141.975 327.7C110.575 328.3 90.7749 348.6 69.8749 370C50.4749 389.9 30.4749 410.5 0.374905 413.5L0.274902 412.5C29.9749 409.5 49.8749 389.1 69.1749 369.3C89.2749 348.6 110.075 327.2 141.975 326.7C175.275 326.1 209.475 341.9 239.675 355.9C243.475 357.7 247.275 359.4 250.975 361.1C258.575 364.6 266.375 368.2 273.875 371.7C312.775 390 353.075 408.9 396.475 412.6L396.375 413.5Z" fill="white"/>
<path d="M366.475 435.4C365.675 399.7 367.175 363.4 368.675 328.3C369.975 297.8 371.275 266.3 371.075 235.2C370.975 218.3 370.575 201.1 370.275 184.5C369.775 159.5 369.275 133.7 369.475 108.3H370.475C370.275 133.7 370.775 159.5 371.275 184.5C371.575 201.1 371.975 218.3 372.075 235.2C372.275 266.3 370.975 297.8 369.675 328.4C368.175 363.5 366.675 399.7 367.475 435.4H366.475Z" fill="white"/>
<path d="M332.375 424.5C331.975 390.5 336.275 356.3 340.275 323.3C344.275 290.9 348.375 257.3 348.175 224C348.075 204 346.875 183.7 345.675 164.1C344.375 142.9 343.075 120.9 343.175 99.2H344.175C344.075 120.9 345.375 142.8 346.675 164C347.875 183.6 349.075 203.9 349.175 224C349.375 257.4 345.275 291 341.275 323.4C337.175 356.4 332.975 390.5 333.375 424.5H332.375Z" fill="white"/>
<path d="M296.175 409.4H295.175C295.975 375.9 303.575 343 310.975 311.1C318.675 277.8 326.675 243.4 326.775 208.4C326.875 187.3 324.275 166.3 321.775 145.9C319.375 126.5 316.875 106.4 316.775 86.3H317.775C317.975 106.4 320.375 126.4 322.775 145.8C325.275 166.2 327.875 187.3 327.775 208.4C327.675 243.5 319.675 278 311.975 311.3C304.675 343.1 296.975 375.9 296.175 409.4Z" fill="white"/>
<path d="M257.775 392.4L256.775 392.3C259.075 358.7 270.375 326.7 281.275 295.7C293.175 262.1 305.375 227.4 305.975 190.9C306.275 169.5 302.175 148.7 298.175 128.5C294.575 110.2 290.775 91.3 290.375 71.9H291.375C291.875 91.2 295.575 110 299.175 128.3C303.175 148.5 307.375 169.4 306.975 190.9C306.375 227.5 294.075 262.4 282.275 296C271.375 327 260.075 359 257.775 392.4Z" fill="white"/>
<path d="M219.875 376.2L218.875 376.1C222.475 342.1 237.375 310.6 251.775 280.2C267.675 246.6 284.075 211.9 284.975 174.2C285.575 152.8 279.975 132.5 274.475 112.9C269.675 95.4 264.675 77.3 263.875 58.2H264.875C265.575 77.1 270.575 95.2 275.375 112.6C280.775 132.3 286.475 152.6 285.875 174.2C284.875 212.1 268.475 247 252.575 280.6C238.375 311 223.475 342.4 219.875 376.2Z" fill="white"/>
<path d="M184.075 362.9L183.075 362.8C187.675 328.1 205.575 297 222.875 266.9C241.975 233.7 261.775 199.3 262.975 160.6C263.575 141.8 259.775 123.6 251.775 106.6C242.775 87.7 238.675 70.5 237.575 47.1H238.575C239.675 70.3 243.775 87.4 252.675 106.2C260.775 123.4 264.575 141.7 263.975 160.7C262.775 199.7 242.875 234.2 223.675 267.5C206.475 297.4 188.575 328.4 184.075 362.9Z" fill="white"/>
<path d="M152.075 355.1L151.075 355C155.675 319.1 175.775 288.1 195.175 258.1C216.275 225.5 238.075 191.8 239.175 152.5C239.775 132.8 235.675 115.4 226.875 99.1C216.675 80.5 212.275 64.1 211.275 40.4H212.275C213.375 63.9 217.675 80.2 227.775 98.7C236.775 115.1 240.775 132.7 240.275 152.6C239.075 192.3 217.275 226.1 196.075 258.7C176.675 288.6 156.675 319.5 152.075 355.1Z" fill="white"/>
<path d="M125.775 355.1L124.775 355C129.375 319.2 149.475 288.2 168.875 258.2C189.975 225.6 211.775 191.9 212.875 152.5C213.375 133.5 209.375 115.8 200.575 98.6C190.375 78.8 186.075 62.1 184.975 39H185.975C187.075 62 191.375 78.6 201.475 98.2C210.375 115.6 214.475 133.4 213.975 152.6C212.875 192.3 190.975 226.1 169.775 258.8C150.275 288.6 130.275 319.5 125.775 355.1Z" fill="white"/>
<path d="M104.875 362.9L103.875 362.8C108.375 327.9 126.275 296.6 143.575 266.4C162.475 233.4 181.975 199.3 183.475 160.8C184.375 137.5 177.575 115.2 170.975 93.7C165.275 75 159.275 55.6 158.375 35.4H159.375C160.375 55.5 166.275 74.8 171.975 93.4C178.575 115 185.375 137.3 184.475 160.8C182.975 199.6 163.375 233.8 144.375 266.9C127.175 297 109.375 328.2 104.875 362.9Z" fill="white"/>
<path d="M87.875 376.2L86.875 376.1C90.375 341.7 105.275 310.1 119.775 279.5C135.475 246.3 151.675 211.9 152.875 174.4C153.775 147.9 147.975 121.7 142.475 96.3C137.775 74.6 132.875 52.1 132.075 29.5H133.075C133.875 52.1 138.775 74.5 143.475 96.2C148.975 121.6 154.775 148 153.875 174.6C152.675 212.3 136.375 246.8 120.675 280.1C106.275 310.4 91.375 342 87.875 376.2Z" fill="white"/>
<path d="M73.075 392.4L72.075 392.3C74.175 358.4 85.5749 326.1 96.6749 294.9C108.475 261.6 120.675 227.1 121.375 190.9C121.875 160.6 117.675 130.1 113.575 100.6C109.975 74.9 106.275 48.3 105.775 21.9H106.775C107.275 48.2 110.975 74.8 114.575 100.5C118.675 130 122.975 160.6 122.375 190.9C121.675 227.3 109.475 261.9 97.6749 295.3C86.4749 326.5 75.075 358.7 73.075 392.4Z" fill="white"/>
<path d="M58.675 409.4H57.675C58.275 375.4 65.9751 342.1 73.4751 309.8C81.0751 276.9 88.9751 243 89.2751 208.4C89.5751 174.6 86.8751 140.4 84.2751 107.4C81.8751 77 79.3751 45.5 79.2751 14.4H80.2751C80.4751 45.5 82.8751 76.9 85.2751 107.3C87.8751 140.4 90.5751 174.6 90.2751 208.4C89.9751 243.1 82.0751 277.1 74.4751 310C66.9751 342.2 59.275 375.5 58.675 409.4Z" fill="white"/>
<path d="M41.975 424.5C41.375 390 45.675 355.4 49.875 321.9C53.875 289.9 57.975 256.8 57.875 223.9C57.775 190.2 56.475 155.9 55.375 122.7C54.075 84.9 52.675 45.8 52.875 7.40002H53.875C53.675 45.9 55.075 84.9 56.375 122.7C57.575 155.9 58.775 190.2 58.875 223.9C58.975 256.9 54.875 290 50.875 322C46.675 355.4 42.375 390 42.975 424.4L41.975 424.5Z" fill="white"/>
<path d="M23.375 435.4C22.475 399.6 23.975 363.2 25.475 328C26.775 297.6 28.075 266.1 27.875 235.1C27.675 215.8 27.475 196.5 27.275 177.2C26.675 120 25.975 60.7 26.475 2.40002H27.475C26.975 60.6 27.675 119.9 28.275 177.2C28.475 196.5 28.675 215.8 28.875 235.1C29.175 266.1 27.775 297.6 26.475 328C24.975 363.2 23.375 399.5 24.375 435.3L23.375 435.4Z" fill="white"/>
</svg>
