<svg width="405" height="312" viewBox="0 0 405 312" fill="none" xmlns="http://www.w3.org/2000/svg">
<path d="M202.2 311.2C155.5 311.2 105.4 296.5 68 271.8C37 251.3 0 214.5 0 155.6C0 96.7 37 59.9 68 39.4C105.4 14.7 155.5 0 202.2 0C248.9 0 299 14.7 336.4 39.4C367.4 59.9 404.4 96.7 404.4 155.6C404.4 214.5 367.4 251.3 336.4 271.8C299 296.4 248.9 311.2 202.2 311.2ZM202.2 0.800003C155.7 0.800003 105.8 15.5 68.6 40C37.7 60.5 1 97 1 155.5C1 214 37.7 250.5 68.6 270.9C105.8 295.5 155.7 310.1 202.2 310.1C248.7 310.1 298.6 295.4 335.8 270.9C366.6 250.5 403.4 214 403.4 155.5C403.4 97 366.7 60.5 335.8 40.1C298.6 15.5 248.7 0.800003 202.2 0.800003Z" fill="white"/>
<path d="M202.2 299.2C159.1 299.2 112.8 285.6 78.3 262.8C49.7 243.9 15.5 209.9 15.5 155.5C15.5 101.1 49.6 67.1 78.3 48.2C112.8 25.4 159.1 11.8 202.2 11.8C245.3 11.8 291.6 25.4 326.1 48.2C354.7 67.1 388.9 101.1 388.9 155.5C388.9 209.9 354.8 243.9 326.1 262.8C291.6 285.6 245.3 299.2 202.2 299.2ZM202.2 12.8C159.3 12.8 113.2 26.4001 78.8 49.1001C50.4 67.8001 16.5 101.6 16.5 155.5C16.5 209.4 50.4 243.2 78.8 262C113.1 284.7 159.2 298.3 202.2 298.3C245.1 298.3 291.2 284.7 325.6 262.1C354 243.3 387.9 209.6 387.9 155.6C387.9 101.6 354 67.9001 325.6 49.1001C291.2 26.3001 245.1 12.8 202.2 12.8Z" fill="white"/>
<path d="M202.2 287.3C162.7 287.3 120.2 274.8 88.6 253.9C62.3 236.5 31 205.3 31 155.5C31 105.7 62.3 74.5 88.6 57.1C120.2 36.2 162.7 23.7 202.2 23.7C241.7 23.7 284.2 36.2 315.8 57.1C342.1 74.5 373.4 105.6 373.4 155.5C373.4 205.4 342.1 236.5 315.8 253.9C284.2 274.8 241.7 287.3 202.2 287.3ZM202.2 24.7C162.9 24.7 120.6 37.0999 89.1 57.8999C63 75.0999 32 106 32 155.4C32 204.8 63.1 235.7 89.1 252.9C120.6 273.7 162.8 286.1 202.2 286.1C241.5 286.1 283.8 273.7 315.3 252.9C341.4 235.7 372.4 204.8 372.4 155.3C372.4 105.8 341.3 75 315.3 57.7C283.8 37.1 241.5 24.7 202.2 24.7Z" fill="white"/>
<path d="M202.2 275.4C166.3 275.4 127.7 264 98.9 245C75 229.2 46.5 200.9 46.5 155.5C46.5 110.2 75 81.8 98.9 66C127.7 47 166.3 35.6 202.2 35.6C238.1 35.6 276.7 47 305.5 66C329.4 81.8 357.9 110.1 357.9 155.5C357.9 200.9 329.4 229.2 305.5 245C276.7 264 238.1 275.4 202.2 275.4ZM202.2 36.6C166.5 36.6 128.1 47.9 99.4 66.8C75.8 82.5 47.5 110.6 47.5 155.5C47.5 200.4 75.7 228.5 99.4 244.1C128 263 166.4 274.3 202.2 274.3C237.9 274.3 276.4 263 305 244.1C328.7 228.4 356.9 200.3 356.9 155.5C356.9 110.7 328.7 82.5 305 66.9C276.4 47.9 237.9 36.6 202.2 36.6Z" fill="white"/>
<path d="M202.9 263.4C202.6 263.4 202.4 263.4 202.2 263.4C170.4 263.2 135.8 252.8 109.7 235.5C88.0001 221.1 62.1001 195.6 62.1001 155.5C62.1001 115.4 88.0001 89.9 109.7 75.5C135.9 58.2 170.5 47.8 202.2 47.6C202.4 47.6 202.7 47.6 202.9 47.6C244.3 47.6 288 64.4 314.3 90.6C332.6 108.8 342.3 131.3 342.3 155.5C342.3 179.7 332.6 202.2 314.3 220.4C288 246.6 244.4 263.4 202.9 263.4ZM202.9 48.6C202.6 48.6 202.4 48.6 202.2 48.6C170.6 48.8 136.2 59.1 110.2 76.3C88.7001 90.5 63.0001 115.8 63.0001 155.5C63.0001 195.2 88.6001 220.4 110.2 234.7C136.2 251.9 170.6 262.3 202.2 262.4C202.4 262.4 202.7 262.4 202.9 262.4C244.1 262.4 287.5 245.7 313.6 219.7C332 201.4 341.3 179.8 341.3 155.5C341.3 131.2 332 109.6 313.6 91.3C287.5 65.3 244.1 48.6 202.9 48.6Z" fill="white"/>
<path d="M200.9 251.5C164.5 251.5 126.1 236.7 102.8 213.6C86.3001 197.2 77.6001 177.2 77.6001 155.5C77.6001 134 86.3001 114 102.9 97.7C126.6 74.2 165.6 59.2 202.3 59.5C230.6 59.8 261.3 69.1 284.6 84.4C303.9 97.2 327 119.9 327 155.5C327 191.4 304 214 284.8 226.7C261.7 241.9 230.9 251.2 202.4 251.4C201.8 251.5 201.4 251.5 200.9 251.5ZM202.2 250.5C230.5 250.2 261.1 241 284 225.9C303.1 213.3 325.8 190.9 325.8 155.5C325.8 120.3 303 97.9 283.9 85.3C260.8 70.1 230.3 60.8 202.2 60.6C165.8 60.3 127.1 75.1 103.5 98.5C87.2001 114.7 78.5001 134.4 78.5001 155.6C78.5001 177 87.1001 196.8 103.4 213C126.9 236.1 165.7 250.8 202.2 250.5Z" fill="white"/>
<path d="M201.2 239.6C169.8 239.6 136.1 226.3 115.3 205.7C100.8 191.4 93.2002 174 93.2002 155.6C93.2002 136.3 100.8 118.6 115.2 104.3C135.6 84.1 169.7 71.3 202.3 71.6C227.5 71.8 254.5 79.9 274.6 93.1C291.4 104.1 311.4 124 311.4 155.7C311.4 172.6 304.9 197.1 274 217.6C253.4 231.3 226.6 239.5 202.3 239.8C201.9 239.6 201.5 239.6 201.2 239.6ZM201.1 72.4C169.2 72.4 135.8 85.1 115.9 104.9C101.7 119 94.1002 136.5 94.1002 155.5C94.1002 173.7 101.7 190.8 115.9 204.9C136.6 225.4 169.9 238.5 201.1 238.5C201.4 238.5 201.8 238.5 202.1 238.5C226.2 238.3 252.9 230 273.3 216.5C303.8 196.3 310.2 172.1 310.2 155.5C310.2 124.2 290.4 104.7 273.9 93.7C254.1 80.6 227.2 72.7 202.2 72.5C201.8 72.4 201.4 72.4 201.1 72.4Z" fill="white"/>
<path d="M202.2 225.8C181.7 225.8 148.3 214.2 126.8 192.6C114.9 180.6 108.6 167.2 108.6 153.7C108.7 129.9 119.2 110.6 139.2 97.9C155.7 87.4 178.1 81.6 202.2 81.6C226.3 81.6 248.7 87.4 265.2 97.9C285.1 110.6 295.7 129.9 295.8 153.7C295.8 167.2 289.5 180.6 277.6 192.6C256.1 214.2 222.7 225.8 202.2 225.8ZM202.2 82.6C134 82.6 109.7 120.9 109.6 153.7C109.6 166.9 115.8 180.1 127.5 191.9C148.8 213.3 181.9 224.8 202.2 224.8C222.5 224.8 255.6 213.3 276.9 191.9C288.7 180.1 294.9 166.9 294.8 153.7C294.7 120.9 270.4 82.6 202.2 82.6Z" fill="white"/>
<path d="M202.6 201.9C202.5 201.9 202.4 201.9 202.2 201.9C187.8 201.8 168.6 195.1 153.3 184.9C134.9 172.7 124.5 157.4 124.1 141.8C123.8 127.2 128.5 114.7 138.2 104.7C152.1 90.4 176 81.8 202.1 81.6C227.1 81.4 250.5 89.6 264.6 103.6C274.9 113.8 280.1 126.7 280.2 141.8C280.2 152.8 274.9 163.9 264.7 174C247.1 191.5 219.4 201.9 202.6 201.9ZM203 82.5C202.7 82.5 202.4 82.5 202.2 82.5C176.3 82.7 152.7 91.2 139 105.3C129.5 115.1 124.8 127.3 125.1 141.7C125.9 176 175.6 200.6 202.2 200.8C218.8 201 246.5 190.7 264.1 173.2C274 163.3 279.3 152.5 279.3 141.7C279.3 126.8 274.1 114.2 264 104.2C250.2 90.6 227.5 82.5 203 82.5Z" fill="white"/>
<path d="M201.4 170.4C185.3 170.4 165 161.8 152.6 149.7C144.1 141.4 139.6 131.9 139.6 122.2C139.6 110.7 144 100.3 152.4 92C164.1 80.5 183.2 73.5 202.2 73.8C218.4 74.1 240.4 79.3 253.7 93.2C261.3 101.2 265 110.9 264.8 122.1C264 151.2 227.8 169.8 202.2 170.3C201.9 170.4 201.7 170.4 201.4 170.4ZM202.2 169.4C227.4 168.9 263 150.7 263.8 122.2C264.1 111.3 260.5 101.8 253 94C239.9 80.3 218.2 75.2 202.2 74.9C183.5 74.6 164.7 81.4 153.2 92.8C144.9 101 140.7 110.9 140.7 122.2C140.7 131.6 145.1 140.8 153.4 148.9C165.7 161.1 186.3 169.7 202.2 169.4Z" fill="white"/>
<path d="M202.2 135.7C188.1 135.7 173.3 129.9 164.3 120.9C158.2 114.8 155.1 107.4 155.1 99.5C155.2 75.8 182.5 63.1 202.1 63.1C221.7 63.1 249 75.7 249.1 99.5C249.1 107.4 246 114.8 239.9 120.9C231.1 129.9 216.3 135.7 202.2 135.7ZM202.2 64.1C183 64.1 156.3 76.4 156.2 99.5C156.2 107.3 159.1 114.2 165.1 120.2C175.1 130.2 191 134.7 202.3 134.7C213.6 134.7 229.5 130.2 239.5 120.2C245.4 114.2 248.4 107.2 248.4 99.5C248.1 76.4 221.4 64.1 202.2 64.1Z" fill="white"/>
<path d="M201.1 102.1C192.7 102.1 183.2 98.3001 177.2 92.4001C172.8 88.1001 170.5 83.0001 170.6 77.7001C170.7 72.8001 173.2 67.9001 177.8 63.5001C184.4 57.3001 194.4 53.1001 202.2 53.3001C214.4 53.7001 232.6 62.6001 233.7 77.7001C234.1 82.6001 232.5 87.1001 229 91.0001C222.6 98.2001 210.9 101.8 202.1 102.1C201.9 102.1 201.5 102.1 201.1 102.1ZM201.6 54.4001C194.2 54.4001 184.8 58.4001 178.6 64.3001C175.5 67.2001 171.9 71.9001 171.7 77.8001C171.6 82.8001 173.8 87.6001 178 91.7001C184.1 97.7001 193.8 101.4 202.3 101.1C210.8 100.8 222.2 97.3001 228.5 90.3001C231.8 86.7001 233.2 82.4001 232.9 77.8001C231.9 63.3001 214.2 54.7001 202.4 54.4001C202 54.4001 201.8 54.4001 201.6 54.4001Z" fill="white"/>
<path d="M202.2 74C194.3 74 186.2 69.4 186.2 61.6C186.2 55.4 194.3 49.2 202.2 49.2C210.1 49.2 218.2 55.5 218.2 61.6C218.2 69.4 210.1 74 202.2 74ZM202.2 50.2C194.8 50.2 187.2 56 187.2 61.6C187.2 68.8 194.8 73 202.2 73C209.6 73 217.2 68.7 217.2 61.6C217.2 55.9 209.6 50.2 202.2 50.2Z" fill="white"/>
<path d="M202.7 55.2H201.7V310.6H202.7V55.2Z" fill="white"/>
<path d="M393.9 203.9C384.8 201.6 374.9 199.8 364.4 197.8C340.8 193.4 316.4 188.9 297.8 178.9C273.7 166 260.9 140.8 248.6 116.5C236.7 93 224.4 68.7 201.9 55.6L202.4 54.7C225.2 67.9 237.5 92.4 249.5 116C261.8 140.2 274.5 165.2 298.3 178C316.8 187.9 341.1 192.4 364.6 196.8C375.1 198.8 385 200.6 394.1 202.9L393.9 203.9Z" fill="white"/>
<path d="M256.4 90.6C246.5 90.6 240 83.4 233.7 76.4C231.1 73.5 228.9 70.7 227 68.2C220.3 59.5 215.9 53.8 202.3 55.7L202.2 54.7C216.4 52.7 221.2 59 227.9 67.6C229.8 70.1 232 72.8 234.5 75.7C242 84 249 91.8 261.4 88.9C269.1 87.1 276.7 77.6 282.9 70C285 67.4 286.9 65 288.6 63.2L320.5 29.5L321.2 30.2L289.3 63.9C287.6 65.7 285.7 68.1 283.7 70.6C277.5 78.3 269.7 88 261.7 89.8C259.8 90.4 258 90.6 256.4 90.6Z" fill="white"/>
<path d="M148.1 90.7C146.4 90.7 144.7 90.5 142.8 90C135.4 88 126.6 77.6 120.3 70C118.3 67.6 116.6 65.6 115.2 64.1L83.2998 30.4L83.9998 29.7L115.9 63.3999C117.4 64.8999 119.1 66.9999 121.1 69.3999C127.4 76.8999 136 87.1 143.1 89.1C155.2 92.4 163 83.6 170 75.8C172.3 73.2 174.2 70.7 176.1 68.3C182.8 59.7 188 52.8 202.3 54.8L202.2 55.8C188.5 53.9 183.6 60.1999 176.9 68.8999C175 71.2999 173.1 73.9 170.7 76.5C164.9 82.9 157.9 90.7 148.1 90.7Z" fill="white"/>
<path d="M10.4998 203.9L10.2998 202.9C19.5998 200.6 29.4998 198.7 39.9998 196.7C63.0998 192.3 87.0998 187.7 106.1 178C130.3 165.8 143 140.4 155.4 115.9C167.3 92.3 179.6 67.8 202 54.8L202.5 55.7C180.3 68.6 168.1 92.9 156.2 116.4C143.8 141.1 131 166.6 106.5 179C87.2998 188.7 63.2998 193.3 40.0998 197.7C29.6998 199.7 19.7998 201.6 10.4998 203.9Z" fill="white"/>
</svg>
