<svg width="310" height="377" viewBox="0 0 310 377" fill="none" xmlns="http://www.w3.org/2000/svg">
<mask id="mask0_201_644" style="mask-type:luminance" maskUnits="userSpaceOnUse" x="0" y="0" width="310" height="377">
<path d="M306.455 0C330.955 191.3 195.055 360 2.85497 376.8C-21.245 207.7 114.755 39 306.455 0Z" fill="white"/>
</mask>
<g mask="url(#mask0_201_644)">
<path d="M2.45503 377.5L2.35502 376.9C-9.34498 295 15.955 210.6 73.355 139.3C130.755 68 213.555 18.4 306.355 -0.499954L307.255 -0.699951L306.955 0.100048C249.155 169.5 112.755 338.7 3.05503 377.3L2.45503 377.5ZM305.755 0.700047C213.455 19.6 131.255 69.1001 74.155 139.9C17.055 210.8 -8.14498 294.6 3.25502 376.1C112.455 337.3 247.955 169.2 305.755 0.700047Z" fill="white"/>
<path d="M117.255 300.1C77.5549 276.1 37.3549 237 27.7549 212.8L28.6549 212.4C38.1549 236.4 78.1549 275.3 117.655 299.2L117.255 300.1Z" fill="white"/>
<path d="M226.155 164.9C186.455 140.9 146.255 101.8 136.655 77.5999L137.555 77.2C147.055 101.2 187.055 140.1 226.555 164L226.155 164.9Z" fill="white"/>
<path d="M3.35498 376.8H2.35498C4.15498 315.2 36.855 242 94.255 170.7C151.655 99.5 226.955 38.7 306.255 -0.5L306.655 0.400002C143.155 81.1 7.15498 250 3.35498 376.8Z" fill="white"/>
<path d="M3.25507 377.1L2.45508 376.6C54.1551 296.3 190.455 127.3 306.155 -0.300049L306.855 0.399952C191.155 127.8 54.9551 296.8 3.25507 377.1Z" fill="white"/>
<path d="M2.95479 377.3L2.65479 376.3C112.155 337.8 248.255 168.9 305.955 -0.199951L306.655 -2.19995L306.955 -0.0999527C318.655 81.8 293.355 166.2 235.955 237.5C178.555 308.8 95.7548 358.4 2.95479 377.3ZM306.255 2.20005C249.155 167.6 117.555 332.4 9.35478 374.9C99.2548 355.1 179.255 306.3 235.155 236.9C291.955 166.4 317.155 83.2 306.255 2.20005Z" fill="white"/>
<path d="M163.255 318C152.955 318 136.555 311.7 117.255 300.1L117.755 299.2C143.655 314.8 164.055 320.8 171.155 314.8C174.355 312.1 174.555 306.8 171.655 299.6L172.555 299.2C175.555 306.9 175.355 312.5 171.755 315.5C169.855 317.2 166.955 318 163.255 318Z" fill="white"/>
<path d="M272.155 182.8C261.855 182.8 245.455 176.5 226.155 164.9L226.655 164C252.555 179.6 272.955 185.6 280.055 179.6C283.255 176.9 283.455 171.6 280.555 164.4L281.455 164C284.455 171.7 284.255 177.3 280.655 180.3C278.755 182 275.855 182.8 272.155 182.8Z" fill="white"/>
<path d="M2.85488 377.3L2.75488 376.3C80.3549 369.2 154.655 326.2 211.855 255.1C269.155 184 302.555 93.4 305.855 0H306.855C303.455 93.7 270.055 184.5 212.655 255.7C155.255 327 80.7549 370.2 2.85488 377.3Z" fill="white"/>
<path d="M2.85488 377.3L2.75488 376.3C93.2549 369.2 174.555 327.1 231.755 257.7C260.355 223 281.355 183.4 294.255 139.9C307.555 94.9 311.555 47.9 305.955 0.100002L306.955 0C312.555 47.9 308.555 95.1 295.155 140.2C282.255 183.8 261.155 223.5 232.555 258.3C175.255 328 93.6549 370.2 2.85488 377.3Z" fill="white"/>
</g>
<mask id="mask1_201_644" style="mask-type:luminance" maskUnits="userSpaceOnUse" x="0" y="0" width="310" height="377">
<path d="M306.455 0C330.955 191.3 195.055 360 2.85497 376.8C-21.245 207.7 114.755 39 306.455 0Z" fill="white"/>
</mask>
<g mask="url(#mask1_201_644)">
<path d="M2.45503 377.3L2.35502 376.8C-9.34498 294.9 15.955 210.5 73.355 139.2C130.755 67.9 213.555 18.3 306.355 -0.599953L306.855 -0.699951L306.955 -0.199951C312.955 46.6 309.555 92.9 296.855 137.2C284.555 180 264.255 219.3 236.355 254C208.455 288.7 174.355 316.9 135.055 338C94.355 359.8 49.955 373 2.85502 377.1L2.45503 377.3ZM306.055 0.600048C213.655 19.5 131.255 69.0001 74.155 139.9C17.055 210.8 -8.14498 294.7 3.35502 376.3C95.955 368.1 178.455 324.5 235.655 253.5C292.655 182.6 317.655 92.8 306.055 0.600048Z" fill="white"/>
</g>
<mask id="mask2_201_644" style="mask-type:luminance" maskUnits="userSpaceOnUse" x="0" y="0" width="310" height="377">
<path d="M2.85484 376.8C-21.6452 185.5 114.255 16.8 306.455 0C330.955 191.3 195.055 360 2.85484 376.8Z" fill="white"/>
</mask>
<g mask="url(#mask2_201_644)">
<path d="M2.95479 377.3L2.65479 376.3C112.155 337.8 248.255 168.9 305.955 -0.199951L306.655 -2.19995L306.955 -0.0999527C318.655 81.8 293.355 166.2 235.955 237.5C178.555 308.8 95.7548 358.4 2.95479 377.3ZM306.255 2.20005C249.155 167.6 117.555 332.4 9.35478 374.9C99.2548 355.1 179.255 306.3 235.155 236.9C291.955 166.4 317.155 83.2 306.255 2.20005Z" fill="white"/>
<path d="M163.255 318C152.955 318 136.555 311.7 117.255 300.1L117.755 299.2C143.655 314.8 164.055 320.8 171.155 314.8C174.355 312.1 174.555 306.8 171.655 299.6L172.555 299.2C175.555 306.9 175.355 312.5 171.755 315.5C169.855 317.2 166.955 318 163.255 318Z" fill="white"/>
<path d="M272.155 182.8C261.855 182.8 245.455 176.5 226.155 164.9L226.655 164C252.555 179.6 272.955 185.6 280.055 179.6C283.255 176.9 283.455 171.6 280.555 164.4L281.455 164C284.455 171.7 284.255 177.3 280.655 180.3C278.755 182 275.855 182.8 272.155 182.8Z" fill="white"/>
<path d="M2.05518 377.5L2.35517 376.7C60.1552 207.3 196.555 38.1 306.255 -0.499954L306.855 -0.699951L306.955 -0.0999527C318.655 81.8 293.355 166.2 235.955 237.5C178.555 308.8 95.7552 358.4 2.95518 377.3L2.05518 377.5ZM306.055 0.700047C196.855 39.5 61.3552 207.6 3.55518 376.1C95.8552 357.1 178.055 307.7 235.155 236.9C292.355 166 317.455 82.2 306.055 0.700047Z" fill="white"/>
<path d="M171.655 299.6C162.155 275.6 122.155 236.7 82.6553 212.8L83.1553 211.9C122.855 235.9 163.055 275 172.655 299.2L171.655 299.6Z" fill="white"/>
<path d="M280.555 164.4C271.055 140.4 231.055 101.5 191.555 77.5999L192.055 76.7C231.755 100.7 271.955 139.8 281.555 164L280.555 164.4Z" fill="white"/>
<path d="M3.05527 377.2L2.65527 376.3C166.155 295.6 302.255 126.8 305.955 -0.0998535H306.955C305.155 61.5001 272.455 134.7 215.055 206C157.655 277.3 82.3553 338.1 3.05527 377.2Z" fill="white"/>
<path d="M3.25517 377.1L2.55518 376.4C118.155 248.9 254.355 80 306.055 -0.300049L306.855 0.199951C255.155 80.5 118.955 249.6 3.25517 377.1Z" fill="white"/>
<path d="M2.65502 378.9L2.35502 376.8C-9.34498 294.9 15.955 210.5 73.355 139.2C130.755 67.9001 213.555 18.3001 306.355 -0.599854L306.655 0.400146C197.155 38.9001 61.055 207.8 3.35502 377L2.65502 378.9ZM299.955 1.90015C210.055 21.7001 130.055 70.5001 74.155 139.9C17.355 210.4 -7.84497 293.6 3.05503 374.7C60.155 209.2 191.755 44.4001 299.955 1.90015Z" fill="white"/>
<path d="M27.7552 212.8C24.7552 205.1 24.9552 199.5 28.5552 196.5C35.9552 190.2 56.8552 196.1 83.0552 212L82.5552 212.9C56.6552 197.3 36.2552 191.3 29.1552 197.3C25.9552 200 25.7552 205.3 28.6552 212.5L27.7552 212.8Z" fill="white"/>
<path d="M136.755 77.6003C133.755 69.9003 133.955 64.3003 137.555 61.3003C144.955 55.0003 165.855 61.0003 192.055 76.8003L191.555 77.7003C165.655 62.1003 145.255 56.1003 138.155 62.1003C134.955 64.8003 134.755 70.1003 137.655 77.3003L136.755 77.6003Z" fill="white"/>
<path d="M3.35498 376.8H2.35498C5.75498 283.1 39.155 192.3 96.655 121.1C154.055 49.8001 228.555 6.7001 306.455 -0.399902L306.555 0.600098C228.955 7.7001 154.655 50.7001 97.455 121.8C40.055 192.8 6.75498 283.4 3.35498 376.8Z" fill="white"/>
<path d="M2.35489 376.9C-3.24511 329 0.75489 281.8 14.1549 236.6C27.0549 193 48.1549 153.3 76.7549 118.5C134.055 48.8003 215.655 6.60024 306.455 -0.499756L306.555 0.500244C216.055 7.50024 134.755 49.7002 77.5549 119.1C48.9549 153.8 27.9549 193.4 15.0549 236.9C1.75489 281.9 -2.24511 328.9 3.35489 376.8L2.35489 376.9Z" fill="white"/>
</g>
<mask id="mask3_201_644" style="mask-type:luminance" maskUnits="userSpaceOnUse" x="0" y="0" width="310" height="377">
<path d="M2.85484 376.8C-21.6452 185.5 114.255 16.8 306.455 0C330.955 191.3 195.055 360 2.85484 376.8Z" fill="white"/>
</mask>
<g mask="url(#mask3_201_644)">
<path d="M2.45461 377.3L2.3546 376.8C-3.6454 330 -0.245392 283.7 12.4546 239.4C24.7546 196.6 45.0546 157.3 73.0546 122.6C100.955 87.9 135.055 59.7 174.355 38.6C215.055 16.8 259.455 3.6 306.555 -0.5H307.055L307.155 0C313.155 46.8 309.755 93.1 297.055 137.4C284.755 180.2 264.455 219.5 236.555 254.2C208.655 288.9 174.555 317.1 135.255 338.2C94.5546 360 50.1546 373.2 3.05461 377.3H2.45461ZM306.055 0.5C213.455 8.7 130.955 52.3 73.7546 123.2C16.6546 194.1 -8.4454 284 3.2546 376.2C95.8546 368 178.355 324.4 235.555 253.4C292.655 182.6 317.755 92.8 306.055 0.5Z" fill="white"/>
</g>
<mask id="mask4_201_644" style="mask-type:luminance" maskUnits="userSpaceOnUse" x="0" y="0" width="307" height="377">
<path d="M2.85484 376.8C-21.6452 185.5 114.255 16.8 306.455 0C114.755 39 -21.2452 207.7 2.85484 376.8Z" fill="white"/>
</mask>
<g mask="url(#mask4_201_644)">
<path d="M2.65502 378.9L2.35502 376.8C-9.34498 294.9 15.955 210.5 73.355 139.2C130.755 67.8999 213.555 18.2999 306.355 -0.600098L306.655 0.399902C197.155 38.8999 61.055 207.8 3.35502 377L2.65502 378.9ZM299.955 1.8999C210.055 21.6999 130.055 70.4999 74.155 139.9C17.355 210.4 -7.84497 293.6 3.05503 374.7C60.155 209.2 191.755 44.3999 299.955 1.8999Z" fill="white"/>
<path d="M27.7552 212.8C24.7552 205.1 24.9552 199.5 28.5552 196.5C35.9552 190.2 56.8552 196.1 83.0552 212L82.5552 212.9C56.6552 197.3 36.2552 191.3 29.1552 197.3C25.9552 200 25.7552 205.3 28.6552 212.5L27.7552 212.8Z" fill="white"/>
<path d="M136.755 77.5998C133.755 69.8998 133.955 64.2998 137.555 61.2998C144.955 54.9998 165.855 60.9998 192.055 76.7998L191.555 77.6998C165.655 62.0998 145.255 56.0998 138.155 62.0998C134.955 64.7998 134.755 70.0998 137.655 77.2998L136.755 77.5998Z" fill="white"/>
</g>
<mask id="mask5_201_644" style="mask-type:luminance" maskUnits="userSpaceOnUse" x="0" y="0" width="307" height="377">
<path d="M2.85484 376.8C-21.6452 185.5 114.255 16.8 306.455 0C114.755 39 -21.2452 207.7 2.85484 376.8Z" fill="white"/>
</mask>
<g mask="url(#mask5_201_644)">
<path d="M2.35488 376.9C0.654876 365.1 -0.24512 353.1 -0.44512 341.2C-1.34512 306.6 2.95488 272.5 12.3549 239.4C24.6549 196.6 44.9549 157.3 72.9549 122.6C100.855 87.9 134.955 59.7 174.255 38.6C214.955 16.8 259.355 3.6 306.455 -0.5L306.555 0.5C213.955 19.3 131.355 68.8 74.1549 139.9C25.1549 200.7 -0.245121 271 0.654879 341.2C0.954879 353 1.85488 364.9 3.35488 376.8L2.35488 376.9ZM297.655 1.4C208.455 11.4 129.255 54.5 73.8549 123.3C32.1549 175 7.55488 236.8 1.85488 302.3C8.95488 245.1 33.3549 189 73.4549 139.3C128.955 70.3 208.355 21.5 297.655 1.4Z" fill="white"/>
</g>
</svg>
