<svg width="479" height="479" viewBox="0 0 479 479" fill="none" xmlns="http://www.w3.org/2000/svg">
<path d="M166.6 478.4L165.6 478.1C175.2 446.7 178.2 413.9 174.5 380.6C170.9 348.6 161.3 317.7 145.9 288.8C130.5 259.9 110.3 234.7 85.8 213.8C60.3 192.1 31.5 176.3 0 166.6L0.3 165.6C31.7 175.2 64.5 178.2 97.8 174.5C129.8 170.9 160.7 161.3 189.6 145.9C218.5 130.5 243.7 110.3 264.6 85.8C286.3 60.3 302.1 31.5 311.8 0L312.8 0.3C303.2 31.7 300.2 64.5 303.9 97.8C307.5 129.8 317.1 160.7 332.5 189.6C347.9 218.5 368.1 243.7 392.6 264.6C418.1 286.3 446.9 302.1 478.4 311.8L478.1 312.8C446.7 303.2 413.9 300.2 380.6 303.9C348.6 307.5 317.7 317.1 288.8 332.5C259.9 347.9 234.7 368.1 213.8 392.6C192.1 418.1 176.2 447 166.6 478.4ZM15 170.8C40.9 180.6 64.9 194.8 86.4 213.1C111 234.1 131.3 259.4 146.8 288.4C162.2 317.4 171.9 348.4 175.5 380.6C178.7 408.7 177 436.5 170.7 463.5C180.5 437.6 194.7 413.6 213 392.1C234 367.5 259.3 347.2 288.3 331.7C317.3 316.3 348.3 306.6 380.5 303C408.6 299.8 436.4 301.5 463.4 307.8C437.5 298 413.5 283.8 392 265.5C367.4 244.5 347.1 219.2 331.6 190.2C316.2 161.2 306.5 130.2 302.9 98C299.7 69.9 301.4 42.1 307.7 15.1C297.9 41 283.7 65 265.4 86.5C244.4 111.1 219.1 131.4 190.1 146.9C161.1 162.3 130.1 172 97.9 175.6C69.8 178.8 42 177.1 15 170.8Z" fill="white"/>
<path d="M150.1 472.8L149.2 472.4C161 441.7 166.2 409.2 164.8 375.8C163.4 343.6 156 312.1 142.7 282.2C129.4 252.3 111 225.7 88 203.2C64.1 179.8 36.4 162 5.69995 150.2L6.09995 149.3C36.8 161.1 69.2999 166.3 102.7 164.9C134.9 163.5 166.4 156.1 196.3 142.8C226.2 129.5 252.8 111.1 275.3 88.1001C298.7 64.2001 316.5 36.5 328.3 5.80005L329.2 6.20005C317.4 36.9 312.2 69.4 313.6 102.8C315 135 322.4 166.5 335.7 196.4C349 226.3 367.4 252.9 390.4 275.4C414.3 298.8 442 316.6 472.7 328.4L472.3 329.3C441.6 317.5 409.1 312.3 375.7 313.7C343.5 315.1 312 322.5 282.1 335.8C252.2 349.1 225.6 367.5 203.1 390.5C179.7 414.4 161.9 442.1 150.1 472.8ZM20.4 155.3C45.6 166.9 68.5 182.7 88.7 202.5C111.8 225.1 130.3 251.8 143.7 281.8C157.1 311.8 164.5 343.4 165.9 375.7C167.1 404 163.5 431.6 155.3 458.1C166.9 432.9 182.7 410 202.5 389.8C225.1 366.7 251.8 348.2 281.8 334.8C311.8 321.4 343.4 314 375.7 312.6C404 311.4 431.6 315 458.1 323.2C432.9 311.6 410 295.8 389.8 276C366.7 253.4 348.2 226.7 334.8 196.7C321.4 166.7 314 135.1 312.6 102.8C311.4 74.5 315 46.9 323.2 20.4C311.6 45.6001 295.8 68.5 276 88.7001C253.4 111.8 226.7 130.3 196.7 143.7C166.7 157.1 135.1 164.5 102.8 165.9C74.3999 167.1 46.7999 163.5 20.4 155.3Z" fill="white"/>
<path d="M134 466L133.1 465.6C147 435.8 154.5 403.7 155.4 370.3C156.3 338.1 151.1 306.2 139.9 275.4C128.7 244.6 112.2 216.8 90.7999 192.7C68.5999 167.7 42.1999 148 12.3999 134.1L12.7999 133.2C42.5999 147.1 74.6999 154.6 108.1 155.5C140.3 156.4 172.2 151.2 203 140C233.8 128.8 261.6 112.3 285.7 90.9C310.7 68.7 330.4 42.3 344.3 12.5L345.2 12.9C331.3 42.7 323.8 74.8 322.9 108.2C322 140.4 327.2 172.3 338.4 203.1C349.6 233.9 366.1 261.7 387.5 285.8C409.7 310.8 436.1 330.5 465.9 344.4L465.5 345.3C435.7 331.4 403.6 323.9 370.2 323C338 322.1 306.1 327.3 275.3 338.5C244.5 349.7 216.7 366.2 192.6 387.6C167.7 409.9 147.9 436.2 134 466ZM26.6999 140.2C50.9999 153.5 72.7999 170.9 91.4999 192.1C113 216.3 129.5 244.2 140.8 275.1C152 306 157.3 338 156.4 370.3C155.6 398.6 150.1 425.9 140.1 451.7C153.4 427.4 170.8 405.6 192 386.9C216.2 365.4 244.1 348.9 275 337.6C305.9 326.4 337.9 321.1 370.2 322C398.5 322.8 425.8 328.3 451.6 338.3C427.3 325 405.5 307.6 386.8 286.4C365.3 262.2 348.8 234.3 337.5 203.4C326.3 172.5 321 140.5 321.9 108.2C322.7 79.9 328.2 52.6 338.2 26.8C324.9 51.1 307.5 72.9 286.3 91.6C262.1 113.1 234.2 129.6 203.3 140.9C172.4 152.2 140.4 157.4 108.1 156.5C79.8999 155.8 52.5999 150.3 26.6999 140.2Z" fill="white"/>
<path d="M118.5 458.1L117.6 457.6C133.5 428.8 143.3 397.4 146.5 364.1C149.6 332 146.7 299.8 137.6 268.4C128.6 236.9 114 208 94.4 182.5C74 156 49.1 134.5 20.3 118.5L20.8 117.6C49.6 133.5 81 143.3 114.3 146.5C146.4 149.6 178.6 146.7 210 137.6C241.5 128.6 270.4 114 295.9 94.4C322.4 74 343.9 49.1 359.9 20.3L360.8 20.8C344.9 49.6 335.1 81 331.9 114.3C328.8 146.4 331.7 178.6 340.8 210C349.8 241.5 364.4 270.4 384 295.9C404.4 322.4 429.3 343.9 458.1 359.9L457.6 360.8C428.8 344.9 397.4 335.1 364.1 331.9C332 328.8 299.8 331.7 268.4 340.8C236.9 349.8 208 364.4 182.5 384C155.9 404.4 134.4 429.4 118.5 458.1ZM34.2 125.7C57.5 140.7 78 159.5 95.3 182C115 207.6 129.6 236.6 138.7 268.2C147.8 299.8 150.8 332.1 147.6 364.3C144.8 392.5 137.5 419.3 125.6 444.4C140.6 421.1 159.4 400.6 181.9 383.3C207.5 363.6 236.5 349 268.1 339.9C299.7 330.8 332 327.8 364.2 331C392.4 333.8 419.2 341.1 444.3 353C421 338 400.5 319.2 383.2 296.7C363.5 271.1 348.9 242.1 339.8 210.5C330.7 178.9 327.7 146.6 330.9 114.4C333.7 86.2 341 59.4 352.9 34.3C337.9 57.6 319.1 78.1 296.6 95.4C271 115.1 242 129.7 210.4 138.8C178.8 147.9 146.5 150.9 114.3 147.7C86.1001 144.9 59.2001 137.5 34.2 125.7Z" fill="white"/>
<path d="M103.5 449.2L102.7 448.7C120.6 421.1 132.5 390.4 138.1 357.4C143.5 325.6 142.7 293.3 135.9 261.3C129.1 229.3 116.6 199.4 98.7999 172.6C80.2999 144.7 56.8999 121.5 29.3999 103.6L29.8999 102.8C57.4999 120.7 88.1999 132.6 121.2 138.2C153 143.6 185.3 142.8 217.3 136C249.3 129.2 279.2 116.7 306 98.9002C333.9 80.4002 357.1 57.0002 375 29.5002L375.8 30.0002C357.9 57.6002 346 88.3002 340.4 121.3C335 153.1 335.8 185.4 342.6 217.4C349.4 249.4 361.9 279.3 379.7 306.1C398.2 334 421.6 357.2 449.1 375.1L448.6 375.9C421 358 390.3 346.1 357.3 340.5C325.5 335.1 293.2 335.9 261.2 342.7C229.2 349.5 199.3 362 172.5 379.8C144.6 398.2 121.4 421.6 103.5 449.2ZM42.5999 111.6C64.7999 128.2 83.8999 148.4 99.5999 172C117.5 198.9 130 228.9 136.9 261C143.8 293.1 144.5 325.6 139.1 357.5C134.4 385.4 125.2 411.7 111.6 435.9C128.2 413.7 148.4 394.6 172 378.9C198.9 361 228.9 348.5 261 341.6C293.1 334.8 325.6 334 357.5 339.4C385.4 344.1 411.7 353.3 435.9 366.9C413.7 350.3 394.6 330.1 378.9 306.5C361 279.6 348.5 249.6 341.6 217.5C334.7 185.4 334 152.9 339.4 121C344.1 93.1002 353.3 66.8002 366.9 42.6002C350.3 64.8002 330.1 83.9002 306.5 99.6003C279.6 117.5 249.6 130 217.5 136.9C185.4 143.7 152.9 144.5 121 139.1C92.9999 134.4 66.7999 125.2 42.5999 111.6Z" fill="white"/>
<path d="M89.2001 439.2L88.4 438.6C108.2 412.3 122.2 382.5 130.1 350C137.7 318.7 139.2 286.4 134.6 254C130 221.6 119.7 191 103.8 162.9C87.2001 133.9 65.6 109.1 39.3 89.3001L39.9001 88.5001C66.2001 108.3 96.0001 122.3 128.5 130.2C159.8 137.8 192.1 139.3 224.5 134.7C256.9 130.1 287.5 119.8 315.6 103.9C344.7 87.4001 369.5 65.7001 389.2 39.4001L390 40.0001C370.2 66.3001 356.2 96.1002 348.3 128.6C340.7 159.9 339.2 192.2 343.8 224.6C348.4 257 358.7 287.6 374.6 315.7C391.1 344.8 412.8 369.6 439.1 389.3L438.5 390.1C412.2 370.3 382.4 356.3 349.9 348.4C318.6 340.8 286.3 339.3 253.9 343.9C221.5 348.5 190.9 358.8 162.8 374.7C133.8 391.3 109 412.9 89.2001 439.2ZM52 98.2001C73 116.3 90.7001 137.8 104.6 162.4C120.6 190.5 131 221.3 135.6 253.8C140.2 286.3 138.6 318.8 131 350.2C124.3 377.7 113.3 403.3 98.1001 426.4C116.2 405.4 137.7 387.7 162.3 373.8C190.4 357.8 221.2 347.4 253.7 342.8C286.2 338.2 318.7 339.8 350.1 347.4C377.6 354.1 403.2 365.1 426.3 380.3C405.3 362.2 387.6 340.7 373.7 316.1C357.7 288 347.3 257.2 342.7 224.7C338.1 192.2 339.7 159.7 347.3 128.3C354 100.8 365 75.2001 380.2 52.1001C362.1 73.1001 340.6 90.8001 316 104.7C287.9 120.7 257.1 131.1 224.6 135.7C192.1 140.3 159.6 138.7 128.2 131.1C100.7 124.5 75.1001 113.4 52 98.2001Z" fill="white"/>
<path d="M75.6001 428.2L74.8001 427.5C96.4001 402.7 112.4 373.9 122.5 342.1C132.2 311.4 136 279.3 133.7 246.6C131.4 213.9 123.2 182.7 109.3 153.6C94.9001 123.4 74.9001 97.1999 50.1001 75.5999L50.8001 74.7999C75.6001 96.3999 104.4 112.4 136.2 122.5C166.9 132.2 199 136 231.7 133.7C264.4 131.4 295.6 123.2 324.7 109.3C354.9 94.8999 381.1 74.8999 402.7 50.0999L403.5 50.7999C381.9 75.5999 365.9 104.4 355.8 136.2C346.1 166.9 342.3 199 344.6 231.7C346.9 264.4 355.1 295.6 369 324.7C383.4 354.9 403.4 381.1 428.2 402.7L427.5 403.5C402.7 381.9 373.9 365.9 342.1 355.8C311.4 346.1 279.3 342.3 246.6 344.6C213.9 346.9 182.7 355.1 153.6 369C123.4 383.5 97.2001 403.4 75.6001 428.2ZM62.3001 85.4999C82.0001 105 98.1001 127.7 110.3 153.2C124.3 182.4 132.5 213.8 134.8 246.5C137.1 279.3 133.3 311.5 123.5 342.4C114.9 369.4 102.1 394.1 85.4001 416.2C104.9 396.5 127.6 380.4 153.1 368.2C182.3 354.2 213.7 346 246.4 343.7C279.2 341.4 311.4 345.2 342.3 355C369.3 363.6 394 376.4 416.1 393.1C396.4 373.6 380.3 350.9 368.1 325.4C354.1 296.2 345.9 264.8 343.6 232.1C341.3 199.3 345.1 167.1 354.9 136.2C363.5 109.2 376.3 84.4999 393 62.3999C373.5 82.0999 350.8 98.1999 325.3 110.4C296.1 124.4 264.7 132.6 232 134.9C199.2 137.2 167 133.4 136.1 123.6C109.1 115.1 84.3001 102.3 62.3001 85.4999Z" fill="white"/>
<path d="M415.6 416.4C392.4 393.2 364.8 375.1 333.7 362.8C303.7 350.9 272 344.9 239.2 344.9C206.5 344.9 174.7 350.9 144.7 362.8C113.6 375.1 86.0001 393.1 62.8001 416.4L62.1001 415.7C85.3001 392.5 103.4 364.9 115.7 333.8C127.6 303.8 133.6 272.1 133.6 239.3C133.6 206.6 127.6 174.8 115.7 144.8C103.4 113.7 85.4001 86.0999 62.1001 62.8999L62.8001 62.2C86.0001 85.4 113.6 103.5 144.7 115.8C174.7 127.7 206.4 133.7 239.2 133.7C271.9 133.7 303.7 127.7 333.7 115.8C364.8 103.5 392.4 85.5 415.6 62.2L416.3 62.8999C393.1 86.0999 375 113.7 362.7 144.8C350.8 174.8 344.8 206.5 344.8 239.3C344.8 272 350.8 303.8 362.7 333.8C375 364.9 393 392.5 416.3 415.7L415.6 416.4ZM239.2 343.9C272.1 343.9 304 349.9 334 361.8C360.3 372.2 384.1 386.7 404.9 405C386.6 384.2 372.1 360.4 361.7 334.1C349.8 304 343.8 272.1 343.8 239.3C343.8 206.4 349.8 174.5 361.7 144.5C372.1 118.2 386.6 94.4 404.9 73.6C384.1 91.9 360.3 106.4 334 116.8C303.9 128.7 272 134.7 239.2 134.7C206.3 134.7 174.4 128.7 144.4 116.8C118.1 106.4 94.3001 91.9 73.5001 73.6C91.8001 94.4 106.3 118.2 116.7 144.5C128.6 174.6 134.6 206.5 134.6 239.3C134.6 272.2 128.6 304.1 116.7 334.1C106.3 360.4 91.8001 384.2 73.5001 405C94.3001 386.7 118.1 372.2 144.4 361.8C174.4 350 206.3 343.9 239.2 343.9Z" fill="white"/>
</svg>
