<svg width="456" height="398" viewBox="0 0 456 398" fill="none" xmlns="http://www.w3.org/2000/svg">
<path d="M35.2 64.4304C24.9 64.4304 14.6 64.4304 4.30005 64.4304V63.4304C27.9 63.4304 51.9 63.4304 75.1 63.4304C92.9 63.4304 110.7 63.4304 128.5 63.4304H128.6C168.8 63.4304 194 51.6304 226.5 29.9304C259.5 7.93044 289.9 -9.16957 328.3 5.43044C345.6 12.0304 361.6 21.6304 377.1 30.8304C401.2 45.2304 426.2 60.2304 455.9 63.3304L455.8 64.3304C425.9 61.1304 400.9 46.1304 376.6 31.6304C361.1 22.4304 345.2 12.8304 328 6.23043C290 -8.16957 259.8 8.73043 227.1 30.6304C194.4 52.4304 169 64.3304 128.6 64.3304H128.5C110.7 64.3304 92.9 64.3304 75.1 64.3304C62 64.4304 48.6 64.4304 35.2 64.4304Z" fill="white"/>
<path d="M16.9001 77.9305C12.6001 77.9305 8.4001 77.9305 4.1001 77.8305V76.8305C27.9001 77.2305 52.0001 76.3305 75.4001 75.5305C92.6001 74.9305 110.3 74.2305 127.8 74.1305C166.8 73.8305 192.6 63.1305 226.3 43.4305C257.2 25.4305 289.2 6.73046 328.1 21.1305C345.4 27.5305 361.6 36.5305 377.3 45.3305C401.6 58.9305 426.6 72.9305 455.7 76.7305L455.6 77.7305C426.3 73.8305 401.2 59.8305 376.8 46.2305C361.2 37.5305 345 28.4305 327.8 22.1305C289.3 7.93046 257.6 26.4305 226.9 44.4305C193.8 63.7305 166.9 75.0305 127.9 75.3305C110.4 75.4305 92.7001 76.1305 75.5001 76.7305C56.3001 77.2305 36.5001 77.9305 16.9001 77.9305Z" fill="white"/>
<path d="M5.3999 91.1304C4.8999 91.1304 4.3999 91.1304 3.8999 91.1304V90.1304C27.5999 90.2304 51.5999 87.7304 74.6999 85.3304C91.6999 83.5304 109.3 81.7304 126.7 80.9304C161.9 79.3304 189.8 72.5304 226.1 56.6304L227.1 56.2304C260.4 41.6304 291.9 27.8304 328.2 39.9304C345.4 45.7304 361.7 53.7304 377.5 61.6304C401.9 73.7304 427.1 86.2304 455.5 89.9304L455.4 90.9304C426.9 87.2304 401.6 74.6304 377.1 62.5304C361.3 54.7304 345 46.6304 327.9 40.9304C292 28.9304 260.7 42.6304 227.5 57.1304L226.5 57.5304C190 73.5304 162 80.3304 126.7 81.9304C109.3 82.7304 91.6999 84.5304 74.7999 86.3304C52.1999 88.7304 28.7999 91.1304 5.3999 91.1304Z" fill="white"/>
<path d="M3.80005 104.43V103.43C27.7 102.73 51.2 98.2304 74 93.8304C90.8 90.6304 108.1 87.2304 125.5 85.4304C159.6 81.9304 191.8 78.6304 226.1 69.8304C228.1 69.3304 230 68.8304 232 68.3304C263.4 60.2304 296 51.9304 328.6 61.2304C345.6 66.0304 362 72.8304 377.9 79.4304C402.4 89.6304 427.8 100.23 455.4 103.23L455.3 104.23C427.6 101.13 402.1 90.5304 377.5 80.3304C361.7 73.7304 345.3 66.9304 328.3 62.1304C295.9 52.9304 263.5 61.2304 232.2 69.2304C230.2 69.7304 228.3 70.2304 226.3 70.7304C191.9 79.4304 159.7 82.8304 125.5 86.3304C108.1 88.1304 90.8 91.4304 74.1 94.7304C51.3 99.1304 27.7 103.73 3.80005 104.43Z" fill="white"/>
<path d="M455.1 117.63C428.1 115.43 402.6 107.03 377.8 98.9304C361.9 93.7304 345.5 88.3304 328.8 84.6304C301.9 78.6304 273.3 80.7304 245.6 82.7304C239.2 83.2304 232.5 83.7304 226 84.0304C214.7 84.6304 203 84.8304 191.7 85.0304C169.3 85.4304 146.1 85.8304 124.3 89.5304C106.9 92.5304 89.9 97.5304 73.4 102.33C51 108.93 27.8 115.73 3.6 117.43L3.5 116.43C27.6 114.73 50.7 107.93 73.1 101.33C89.6 96.4304 106.7 91.4304 124.1 88.4304C146 84.7304 169.2 84.3304 191.7 83.9304C203 83.7304 214.7 83.5304 226 82.9304C232.5 82.5304 239.1 82.1304 245.6 81.6304C273.4 79.6304 302.1 77.5304 329.1 83.5304C345.8 87.2304 362.3 92.6304 378.2 97.8304C402.9 105.93 428.4 114.23 455.2 116.43L455.1 117.63Z" fill="white"/>
<path d="M455 130.93C428.7 129.63 403 123.53 378.2 117.73C362.3 113.93 345.9 110.13 329.5 107.43C311 104.53 291.9 103.23 273.4 101.93C257.7 100.83 241.5 99.8304 225.8 97.7304C220.5 97.0304 215 96.2304 209.7 95.4304C180.8 91.2304 150.8 86.8304 122.9 93.4304C105.5 97.5304 88.8999 104.13 72.6999 110.53C50.7999 119.23 28.0999 128.23 3.4999 130.83L3.3999 129.83C27.7999 127.23 50.3999 118.23 72.2999 109.63C88.4999 103.23 105.2 96.6304 122.6 92.5304C150.7 85.9304 180.7 90.3304 209.8 94.5304C215.1 95.3304 220.6 96.1304 225.9 96.8304C241.6 98.9304 257.8 100.03 273.5 101.03C292 102.23 311.2 103.53 329.7 106.53C346.2 109.13 362.6 113.03 378.5 116.83C403.3 122.73 428.9 128.73 455.1 130.03L455 130.93Z" fill="white"/>
<path d="M454.8 144.23C429 143.43 403.2 139.23 378.4 135.23C362.5 132.63 346.2 130.03 329.9 128.23L322.9 127.53C289.8 123.93 258.5 120.63 225.4 111.23C222.4 110.43 219.5 109.53 216.4 108.63C185.2 99.5304 152.9 90.2304 121.5 99.1304C104.1 104.03 87.8001 112.03 72.0001 119.63C50.5001 130.03 28.3001 140.83 3.2001 144.13L3.1001 143.13C28.0001 139.93 50.2001 129.13 71.6001 118.73C87.4001 111.03 103.8 103.13 121.3 98.1304C153 89.1304 185.4 98.5304 216.8 107.63C219.8 108.53 222.8 109.33 225.7 110.23C258.7 119.63 289.9 122.93 323 126.53L329.9 127.23C346.2 129.03 362.6 131.63 378.5 134.23C403.3 138.23 429 142.43 454.8 143.23V144.23Z" fill="white"/>
<path d="M454.6 157.53C429.1 157.33 403.4 155.23 378.4 153.13C362.6 151.83 346.2 150.43 330.1 149.63C290.9 147.53 260.5 140.43 225.3 125.03C223.2 124.13 221.1 123.13 218.9 122.23C187.3 108.23 154.6 93.8305 120.7 105.03C103.2 110.83 87.1999 120.03 71.6999 128.93C50.5999 141.03 28.6999 153.63 2.9999 157.43L2.8999 156.43C28.3999 152.63 50.1999 140.13 71.1999 128.03C86.6999 119.13 102.8 109.93 120.4 104.03C154.6 92.7304 187.5 107.23 219.3 121.33C221.4 122.23 223.6 123.23 225.7 124.13C260.8 139.53 291.1 146.63 330.2 148.63C346.3 149.43 362.7 150.83 378.5 152.13C403.4 154.23 429.1 156.33 454.6 156.53V157.53Z" fill="white"/>
<path d="M444.2 170.93C422.4 170.93 400.4 170.63 379.1 170.33C363.1 170.13 346.5 169.93 330.3 169.83C287.4 169.63 259.3 158.43 225.3 139.23C223.6 138.23 221.8 137.23 220.1 136.23C188.6 118.33 156 99.8304 120.2 112.83C102.6 119.23 86.8001 129.43 71.6001 139.33C50.8001 152.83 29.2001 166.83 2.8001 170.83L2.6001 169.83C28.8001 165.83 50.2001 151.93 71.0001 138.43C86.3001 128.53 102 118.33 119.8 111.83C156 98.6304 190.3 118.13 220.5 135.33C222.3 136.33 224 137.33 225.7 138.33C259.6 157.43 287.5 168.63 330.2 168.83C346.5 168.93 363 169.13 379.1 169.33C403.8 169.63 429.3 170.03 454.4 169.93V170.93C451.1 170.83 447.7 170.93 444.2 170.93Z" fill="white"/>
<path d="M454.3 184.13C429.1 184.13 403.4 183.03 378.6 182.13C362.7 181.53 346.3 180.83 330.1 180.43C291.9 179.53 263.5 171.83 225.2 152.03C223.5 151.13 221.8 150.23 220.1 149.43C188.3 132.93 155.5 115.83 120.2 128.33C102.7 134.53 87 144.23 71.7 153.73C50.7 166.73 28.9 180.23 2.6 184.13L2.5 183.13C28.6 179.33 50.2 165.83 71.2 152.93C86.5 143.43 102.3 133.63 119.9 127.43C155.6 114.83 188.7 132.03 220.6 148.53C222.3 149.43 224 150.33 225.7 151.13C263.9 170.83 292.2 178.53 330.2 179.43C346.4 179.83 362.8 180.43 378.7 181.13C403.5 182.13 429.1 183.13 454.3 183.13V184.13Z" fill="white"/>
<path d="M454.1 197.43C428.8 197.03 403.4 194.33 378.9 191.63C362.9 189.93 346.3 188.13 330 187.03C288.5 184.23 258.2 178.03 225.4 165.83C223.5 165.13 221.6 164.43 219.7 163.73C187.6 151.73 154.5 139.33 120.9 149.53C103.7 154.83 87.6999 163.13 72.1999 171.23C50.5999 182.53 28.2999 194.23 2.4999 197.33L2.3999 196.33C27.9999 193.23 50.1999 181.63 71.6999 170.33C87.1999 162.23 103.2 153.83 120.5 148.53C154.4 138.23 187.7 150.63 219.9 162.73C221.8 163.43 223.7 164.13 225.6 164.83C258.3 177.03 288.5 183.13 329.9 185.93C346.3 187.03 362.8 188.83 378.8 190.63C403.4 193.33 428.7 196.03 453.9 196.43L454.1 197.43Z" fill="white"/>
<path d="M454 210.73C428.6 209.73 403.4 205.03 379.1 200.43C363 197.43 346.3 194.23 329.7 192.23C320 191.03 310.2 190.03 300.8 189.03C275.1 186.33 250.9 183.83 225.5 178.03C222.3 177.33 219 176.53 215.7 175.73C184.6 168.53 152.5 161.03 121.6 169.33C104.5 173.83 88.4 181.03 72.7001 188.03C50.6001 197.83 27.8 207.93 2.40005 210.63L2.30005 209.63C27.6 206.93 50.3 196.83 72.3 187.13C88 180.13 104.2 173.03 121.3 168.43C152.4 160.13 184.6 167.63 215.9 174.83C219.2 175.63 222.5 176.33 225.7 177.13C251 182.83 275.2 185.43 300.9 188.03C310.3 189.03 320.1 190.03 329.8 191.23C346.5 193.23 363.1 196.43 379.3 199.43C403.6 204.03 428.7 208.73 454 209.73V210.73Z" fill="white"/>
<path d="M453.8 224.03C427.9 222.73 402.8 216.33 378.6 210.23C362.3 206.13 345.4 201.83 328.4 199.13C307.4 195.73 285.4 194.93 264.1 194.13C251.3 193.63 238 193.13 225.2 192.13C218.7 191.63 212 190.93 205.5 190.33C177.8 187.53 149.2 184.73 122.5 190.53C105.6 194.23 89.3 200.03 73.5 205.63C50.9 213.73 27.5 222.03 2.40005 224.03L2.30005 223.03C27.3 221.03 50.6001 212.63 73.2001 204.63C89.0001 199.03 105.4 193.13 122.4 189.43C149.2 183.63 177.9 186.43 205.7 189.23C212.2 189.83 218.9 190.53 225.4 191.03C238.2 192.03 251.5 192.53 264.3 193.03C285.6 193.83 307.7 194.63 328.7 198.03C345.8 200.73 362.7 205.03 379 209.13C403.2 215.23 428.3 221.63 454 222.93L453.8 224.03Z" fill="white"/>
<path d="M1.9999 237.33L1.8999 236.33C26.6999 234.93 50.5999 228.53 73.6999 222.33C89.6999 218.03 106.2 213.63 123 210.83C142.9 207.53 163.7 206.83 183.8 206.03C197.2 205.53 211 205.03 224.4 203.83C229.3 203.33 234.4 202.83 239.3 202.33C268.4 199.33 298.5 196.23 326.9 202.33C344.5 206.13 361.6 211.93 378.2 217.53C402.3 225.63 427.3 234.13 453.6 236.33L453.5 237.33C427 235.13 402 226.63 377.8 218.53C361.2 212.93 344.1 207.13 326.6 203.43C298.3 197.33 268.4 200.43 239.4 203.43C234.5 203.93 229.4 204.43 224.5 204.93C211.1 206.13 197.3 206.731 183.9 207.231C163.8 207.931 143 208.73 123.2 212.03C106.5 214.83 89.9999 219.23 73.9999 223.53C50.8999 229.53 26.8999 235.93 1.9999 237.33Z" fill="white"/>
<path d="M1.8999 250.73V249.73C26.5999 248.93 50.9999 244.33 74.6999 239.93C90.7999 236.93 107.4 233.83 124 231.93C132.4 230.93 140.8 230.13 148.9 229.33C174.4 226.83 198.6 224.33 224 218.03L226.1 217.53C258.6 209.43 292.2 201.03 325.7 209.33C343.7 213.83 361 220.73 377.7 227.53C401.7 237.23 426.5 247.13 453.5 249.73L453.4 250.73C426.3 248.13 401.4 238.13 377.3 228.43C360.6 221.73 343.3 214.73 325.4 210.33C292.1 202.03 258.7 210.43 226.3 218.53L224.2 219.03C198.7 225.43 174.6 227.83 149 230.33C140.9 231.13 132.5 231.93 124.1 232.93C107.5 234.83 90.8999 237.93 74.7999 240.93C51.0999 245.23 26.5999 249.83 1.8999 250.73Z" fill="white"/>
<path d="M1.69995 264.03V263.03C26.4 262.53 51.2999 259.53 75.3999 256.73C91.4999 254.83 108.2 252.93 124.7 251.63C160.7 248.93 189.8 244.53 223.9 230.43C255.8 217.23 288.8 203.63 325.3 214.43C343.7 219.83 361 228.23 377.7 236.33C401.4 247.73 425.9 259.63 453.3 262.93L453.2 263.93C425.6 260.53 401.1 248.63 377.3 237.23C360.6 229.13 343.3 220.83 325 215.43C288.8 204.73 256 218.33 224.2 231.43C190 245.53 160.8 250.03 124.7 252.73C108.2 253.93 91.4999 255.93 75.3999 257.83C51.3999 260.53 26.5 263.43 1.69995 264.03Z" fill="white"/>
<path d="M1.5 277.33V276.33C26.4 276.33 51.7 275.33 76.2 274.43C92.3 273.83 109 273.13 125.4 272.83C163.6 272.03 189.4 264.63 224 244.63C254.9 226.73 286.8 208.23 325.2 220.93C343.9 227.13 361.2 236.73 377.9 246.03C401.2 259.03 425.4 272.33 453.2 276.33L453.1 277.33C425 273.33 400.8 259.93 377.4 246.93C360.7 237.63 343.5 228.13 324.9 221.93C287 209.33 255.2 227.73 224.5 245.53C189.8 265.63 163.9 273.03 125.5 273.93C109.1 274.33 92.4 274.93 76.3 275.53C51.7 276.33 26.4 277.33 1.5 277.33Z" fill="white"/>
<path d="M6.70005 290.63C4.90005 290.63 3.10005 290.63 1.30005 290.63V289.63C26.1 289.73 51.3 289.33 75.7001 288.93C92 288.63 108.8 288.43 125.4 288.33C127.8 288.33 130.1 288.33 132.4 288.33C147.2 288.33 161.1 288.33 175.1 283.83C191 278.73 205.5 269.43 219.5 260.53C220.9 259.63 222.4 258.73 223.8 257.83C254.4 238.33 286.1 218.13 325 231.53C343.9 238.03 361.2 248.13 377.9 257.93C401.1 271.43 425 285.43 453 289.63L452.9 290.63C424.7 286.43 400.7 272.33 377.5 258.83C360.8 249.13 343.5 239.03 324.8 232.53C286.4 219.33 254.9 239.33 224.5 258.73C223.1 259.63 221.6 260.53 220.2 261.43C206.2 270.43 191.6 279.73 175.6 284.83C161.4 289.33 147.4 289.33 132.6 289.33C130.3 289.33 127.9 289.33 125.6 289.33C109 289.43 92.2 289.73 76 289.93C53.1 290.23 29.8 290.63 6.70005 290.63Z" fill="white"/>
<path d="M1.19995 303.93V302.93C26.2 302.93 51.5999 301.03 76.0999 299.13C92.0999 297.93 108.6 296.73 124.9 295.93C164.3 294.23 191.2 287.63 224 271.63C255.7 256.23 288.4 240.23 325.2 251.43C343.9 257.13 361.3 266.03 378.2 274.73C401.5 286.63 425.6 298.93 452.9 302.73L452.8 303.73C425.3 300.03 401.2 287.63 377.8 275.63C361 267.03 343.5 258.13 324.9 252.43C288.5 241.33 255.9 257.13 224.4 272.53C191.5 288.53 164.5 295.13 124.9 296.93C108.6 297.63 92.0999 298.93 76.0999 300.13C51.5999 302.03 26.2 303.93 1.19995 303.93Z" fill="white"/>
<path d="M1 317.23V316.23C26.2 315.83 51.2 312.03 75.5 308.33C91.4 305.93 107.7 303.43 124 301.93L127.2 301.63C161.5 298.43 191 295.63 224 285.33L225.7 284.83C258 274.73 291.3 264.23 325.5 273.03C343.9 277.83 361.5 285.33 378.4 292.63C401.9 302.73 426.1 313.13 452.7 316.13L452.6 317.13C425.9 314.13 401.6 303.73 378 293.53C361.1 286.23 343.5 278.73 325.2 273.93C291.3 265.23 258.1 275.63 226 285.73L224.3 286.23C191.3 296.63 161.6 299.33 127.3 302.53L124.1 302.83C107.8 304.33 91.4 306.83 75.6 309.23C51.3 313.03 26.2 316.83 1 317.23Z" fill="white"/>
<path d="M0.800049 330.53V329.53C26.1 328.63 50.8 322.93 74.7001 317.43C90.3 313.83 106.5 310.131 122.8 307.731C139.5 305.331 156.6 304.231 173.1 303.131C189.8 302.031 207 300.93 223.9 298.53C227.4 298.03 230.9 297.43 234.5 296.93C264.7 292.33 296 287.63 325.9 294.03C344.1 297.93 361.7 304.131 378.7 310.231C402.3 318.531 426.6 327.23 452.5 329.53L452.4 330.53C426.4 328.13 402 319.531 378.3 311.131C361.3 305.131 343.7 298.83 325.6 295.03C295.9 288.73 264.7 293.43 234.6 298.03C231 298.53 227.5 299.131 224 299.631C207.1 302.131 189.9 303.231 173.2 304.231C156.7 305.331 139.6 306.33 123 308.83C106.8 311.23 90.6 314.93 75 318.53C51 323.931 26.3 329.63 0.800049 330.53Z" fill="white"/>
<path d="M452.2 343.83C426.8 342.53 402.3 336.03 378.6 329.73C361.6 325.23 344 320.63 326.2 317.93C303.4 314.43 279.3 314.03 256 313.63C245.3 313.43 234.2 313.23 223.5 312.73C215.7 312.33 207.7 311.83 199.9 311.23C173.7 309.33 146.6 307.43 121.3 312.73C105.1 316.23 89.1999 321.43 73.8999 326.43C50.4999 334.13 26.2999 342.03 0.499903 343.83L0.399902 342.83C25.9999 341.13 50.1999 333.23 73.4999 325.53C88.7999 320.53 104.7 315.23 121 311.83C146.4 306.43 173.6 308.33 199.8 310.23C207.6 310.83 215.6 311.33 223.4 311.73C234.1 312.23 245.2 312.43 255.9 312.63C279.2 313.03 303.3 313.43 326.2 316.93C344.1 319.63 361.7 324.33 378.7 328.83C402.4 335.03 426.8 341.53 452.1 342.83L452.2 343.83Z" fill="white"/>
<path d="M452.1 357.23C427.3 356.83 402.7 352.53 378.9 348.33C361.9 345.33 344.3 342.33 326.8 340.63C287.5 336.93 256.5 333.13 223.2 325.23C219.4 324.33 215.7 323.43 211.9 322.53C181.7 315.13 150.4 307.53 120.1 316.13C103.9 320.73 88.2999 327.53 73.2999 334.03C50.3999 344.03 26.7999 354.33 0.499903 357.03L0.399902 356.03C26.4999 353.33 50.0999 343.03 72.8999 333.13C87.8999 326.53 103.5 319.83 119.8 315.13C150.4 306.43 181.8 314.03 212.1 321.53C215.9 322.43 219.7 323.33 223.4 324.23C256.6 332.03 287.6 335.93 326.8 339.53C344.4 341.13 362 344.23 379 347.23C402.7 351.43 427.3 355.73 452 356.13L452.1 357.23Z" fill="white"/>
<path d="M448.6 370.63C425.2 370.63 401.8 368.33 379.1 366.23C362.1 364.63 344.6 362.93 327.3 362.13C287 360.43 256.4 351.13 223 337.83C220.6 336.93 218.2 335.93 215.9 334.93C184.6 322.33 152.3 309.23 119 320.83C102.8 326.53 87.5999 334.63 72.8999 342.53C50.4999 354.53 27.3999 366.93 0.499903 370.43L0.399902 369.43C27.0999 365.93 50.0999 353.63 72.3999 341.63C87.0999 333.73 102.3 325.53 118.7 319.83C152.4 308.13 184.9 321.23 216.3 333.93C218.7 334.93 221.1 335.83 223.4 336.83C256.8 350.13 287.2 359.43 327.4 361.13C344.8 361.83 362.3 363.53 379.3 365.23C403.1 367.53 427.6 369.93 452 369.63V370.63C450.8 370.63 449.7 370.63 448.6 370.63Z" fill="white"/>
<path d="M438.3 383.93C418.5 383.93 398.6 383.23 379.2 382.53C362.2 381.93 344.7 381.33 327.4 381.13C288.2 380.83 260.3 370.03 222.5 350.33C220.9 349.53 219.3 348.63 217.8 347.83C186.1 331.13 153.3 313.93 117.8 327.83C101.6 334.23 86.7 343.43 72.3 352.33C50.4 365.93 27.7 379.93 0.1 383.63L0 382.63C27.3 378.93 49.9 364.93 71.8 351.43C86.2 342.53 101.1 333.33 117.5 326.93C153.5 312.83 186.5 330.13 218.3 346.93C219.9 347.73 221.5 348.63 223 349.43C260.6 369.13 288.4 379.83 327.4 380.13C344.7 380.23 362.2 380.93 379.2 381.53C402.9 382.33 427.5 383.23 451.7 382.83V383.83C447.3 383.93 442.8 383.93 438.3 383.93Z" fill="white"/>
<path d="M422.8 397.03C408.3 397.03 393.8 397.03 379.7 397.03C362.3 397.03 344.8 397.03 327.4 397.03C327.4 397.03 327.4 397.03 327.3 397.03C286.8 397.03 259.2 385.23 222.4 363.43L221.2 362.73C188.7 343.43 155 323.53 117.2 338.83C101 345.43 86.4 355.13 72.3 364.63C50.6 379.13 28.2 394.03 0.1 397.13L0 396.13C27.9 393.13 49.2 378.83 71.8 363.83C86 354.33 100.6 344.63 116.9 338.03C155.1 322.53 189 342.63 221.8 362.03L223 362.73C259.7 384.43 287.2 396.23 327.4 396.23C327.4 396.23 327.4 396.23 327.5 396.23C344.9 396.23 362.4 396.23 379.8 396.23C403.3 396.23 427.7 396.23 451.6 396.23V397.23C442 397.03 432.4 397.03 422.8 397.03Z" fill="white"/>
</svg>
