<svg width="405" height="397" viewBox="0 0 405 397" fill="none" xmlns="http://www.w3.org/2000/svg">
<path d="M163.704 396.643C161.704 396.643 159.604 396.443 157.504 396.143C151.304 395.143 145.204 393.443 139.304 391.743C132.904 389.943 126.204 388.143 119.504 387.143C112.904 386.143 105.604 386.343 98.504 386.443C82.804 386.743 66.504 387.043 54.604 375.643C36.304 358.043 28.504 328.143 21.504 301.643C19.504 293.943 17.604 286.643 15.504 279.943C7.20396 253.443 -0.196037 227.243 0.00396277 198.943C0.303963 141.443 19.104 96.0426 59.204 55.9426C78.104 37.0426 128.604 -1.45741 164.104 0.0425888C174.504 0.442589 182.804 4.34259 188.804 11.5426C207.104 33.3426 230.404 30.7426 255.104 28.0426C259.904 27.5426 264.904 26.9426 269.904 26.5426C324.404 22.4426 361.904 31.5426 381.504 53.5426C392.404 65.8426 391.604 81.6426 390.804 96.9426C390.404 104.643 390.004 112.643 391.104 120.143C392.604 130.143 394.804 139.943 397.004 149.343C400.604 165.143 404.404 181.543 404.404 198.943C404.404 212.543 401.104 226.043 398.004 239.143C394.704 252.743 391.304 266.843 391.804 280.643C392.004 286.943 394.204 292.543 396.204 297.943C399.904 307.543 403.404 316.643 394.204 327.043C375.204 348.743 329.504 371.043 298.304 358.043C293.404 355.943 288.904 352.343 284.604 348.943C278.504 343.943 272.204 338.843 264.304 338.243C250.504 337.043 233.504 352.443 221.004 363.643C217.604 366.743 214.604 369.343 212.104 371.443C210.804 372.443 209.604 373.443 208.304 374.443C195.404 384.943 180.904 396.643 163.704 396.643ZM106.104 385.343C110.704 385.343 115.204 385.543 119.604 386.143C126.404 387.143 133.104 388.943 139.604 390.743C145.504 392.343 151.604 394.043 157.704 395.043C177.304 398.243 192.804 385.743 207.804 373.643C209.104 372.643 210.304 371.643 211.604 370.643C214.104 368.643 217.104 365.943 220.504 362.943C233.104 351.643 250.304 336.043 264.504 337.343C272.604 338.043 279.104 343.243 285.304 348.343C289.504 351.743 293.904 355.343 298.704 357.343C312.204 363.043 330.304 362.243 349.704 355.143C367.004 348.843 383.304 338.143 393.404 326.643C402.204 316.643 399.004 308.243 395.204 298.543C393.104 293.043 390.904 287.343 390.704 280.843C390.204 266.843 393.604 252.743 396.904 239.043C400.004 226.043 403.304 212.543 403.304 199.143C403.304 181.843 399.504 165.543 395.904 149.843C393.704 140.343 391.504 130.543 390.004 120.543C388.904 112.943 389.304 104.943 389.704 97.1426C390.504 81.4426 391.304 66.5426 380.604 54.5426C361.204 32.7426 324.004 23.7426 269.804 27.8426C264.804 28.2426 259.904 28.7426 255.104 29.3426C230.204 32.1426 206.604 34.7426 187.904 12.5426C182.004 5.54259 174.004 1.84259 163.904 1.34259C128.704 -0.157412 78.604 38.1426 59.804 56.9426C19.904 96.8426 1.20396 142.043 0.90396 199.243C0.80396 227.443 8.20397 253.543 16.404 279.943C18.504 286.643 20.404 293.943 22.404 301.643C29.304 327.943 37.204 357.843 55.204 375.143C66.804 386.243 82.904 385.943 98.404 385.643C101.004 385.443 103.604 385.343 106.104 385.343Z" fill="white"/>
<path d="M84.704 383.043C77.204 383.043 70.204 381.243 64.104 375.843C45.604 359.143 39.004 325.043 33.604 297.643C32.004 289.243 30.404 281.343 28.704 274.443L28.604 273.843C21.804 247.143 15.404 222.043 14.504 195.143C13.704 170.643 12.504 133.643 27.004 108.343C33.304 97.3426 43.904 88.9426 54.204 80.7426C59.704 76.3426 65.404 71.7426 70.204 66.9426C90.704 46.4426 156.704 -5.05737 190.204 25.5426C210.204 43.8426 233.404 42.0426 257.904 40.2426C264.204 39.7426 270.604 39.2426 277.104 39.1426C306.504 38.4426 361.204 37.0426 382.804 63.9426C392.504 76.0426 388.504 89.9426 384.604 103.343C382.804 109.343 381.004 115.643 380.504 121.643C379.204 135.843 381.904 150.043 384.604 163.843C386.804 175.343 389.004 187.143 389.004 199.043C389.004 207.943 386.904 217.843 384.904 227.343C381.904 241.643 378.804 256.343 382.204 269.043C383.904 275.243 388.704 280.343 393.304 285.243C400.804 293.143 407.904 300.643 399.804 311.343C379.604 338.043 322.104 351.143 291.004 342.743C287.204 341.743 283.204 339.843 279.004 337.943C272.904 335.143 266.604 332.243 260.904 331.843C247.204 330.943 232.004 342.943 219.904 352.543C216.804 355.043 213.904 357.343 211.304 359.143C210.304 359.843 209.204 360.643 208.104 361.443C194.604 371.143 179.404 382.243 161.804 381.443C156.504 381.243 151.204 380.143 146.204 379.143C140.104 377.943 133.704 376.643 127.204 376.743C120.904 376.943 114.304 378.343 107.304 379.943C99.504 381.343 91.904 383.043 84.704 383.043ZM164.004 17.0426C130.104 17.0426 86.604 51.8426 70.804 67.6426C66.004 72.4426 60.204 77.0426 54.704 81.4426C44.504 89.5426 34.004 97.9426 27.804 108.743C13.404 133.843 14.604 170.643 15.404 195.043C16.304 221.843 22.704 246.943 29.504 273.543L29.604 274.143C31.404 281.043 32.904 288.943 34.504 297.343C39.804 324.643 46.504 358.543 64.704 375.043C76.204 385.443 91.704 382.043 106.804 378.743C113.604 377.243 120.504 375.743 126.904 375.543C133.504 375.343 139.904 376.643 146.104 377.943C151.104 378.943 156.404 380.043 161.604 380.243C178.904 380.943 194.004 370.043 207.304 360.343C208.404 359.543 209.404 358.843 210.504 358.043C213.104 356.143 216.004 353.843 219.104 351.443C231.404 341.743 246.604 329.643 260.804 330.543C266.704 330.943 273.104 333.843 279.304 336.743C283.504 338.643 287.504 340.543 291.204 341.543C322.004 349.843 378.904 336.943 398.904 310.543C406.504 300.543 400.004 293.743 392.504 285.743C387.804 280.743 382.904 275.643 381.104 269.143C377.604 256.243 380.704 241.443 383.804 227.043C385.804 217.543 387.904 207.743 387.904 198.943C387.904 187.143 385.704 175.343 383.504 163.843C380.904 150.043 378.204 135.743 379.404 121.443C379.904 115.343 381.804 109.043 383.504 102.943C387.504 89.1426 391.304 76.1426 381.904 64.4426C360.704 38.0426 306.304 39.3426 277.004 40.0426C270.604 40.2426 264.104 40.6426 257.904 41.1426C233.204 43.0426 209.804 44.8426 189.404 26.2426C182.204 19.7426 173.504 17.0426 164.004 17.0426Z" fill="white"/>
<path d="M89.704 375.043C84.104 375.043 78.904 373.643 74.404 369.843C57.304 355.243 51.604 320.943 47.104 293.343C45.904 285.743 44.704 278.643 43.404 272.843C42.704 269.743 42.004 266.543 41.304 263.443C35.704 238.343 29.804 212.243 27.604 186.343C27.404 183.743 27.104 180.943 26.804 178.043C24.404 152.943 20.704 115.043 38.004 96.5426C44.304 89.7426 53.104 87.5426 61.704 85.3426C68.404 83.6426 75.404 81.8426 81.104 77.8426C86.004 74.4426 91.304 70.4426 96.804 66.2426C124.704 45.0426 159.504 18.6426 193.204 37.5426C214.904 49.6426 235.504 49.7426 259.504 49.9426C262.104 49.9426 264.804 49.9426 267.504 50.0426C269.104 50.0426 270.904 50.0426 272.804 50.0426C301.104 50.2426 360.004 50.6426 376.704 74.5426C385.204 86.6426 379.404 100.243 373.904 113.443C371.104 119.943 368.504 126.143 367.604 132.043C365.504 144.843 367.804 157.943 370.004 170.643C371.604 179.843 373.304 189.443 373.304 198.843C373.304 205.743 371.904 213.243 370.404 221.143C367.404 236.743 364.404 252.943 372.404 265.243C375.104 269.343 379.904 272.543 384.504 275.643C393.004 281.343 401.704 287.243 395.504 297.943C389.004 309.143 367.904 316.643 354.004 321.643C352.204 322.243 350.504 322.843 349.004 323.443C326.904 331.543 306.104 335.143 285.404 334.443C280.704 334.243 276.004 333.643 271.404 332.943C264.504 331.943 257.304 330.943 250.304 331.643C238.004 332.943 226.804 339.643 216.004 346.043C213.504 347.543 211.204 348.943 208.804 350.243L207.304 351.043C194.404 358.343 181.104 365.943 165.904 365.443C161.804 365.343 157.904 364.943 154.104 364.543C146.304 363.743 139.004 362.943 130.904 364.343C126.204 365.143 120.904 366.943 115.204 368.943C106.904 371.943 98.004 375.043 89.704 375.043ZM168.804 32.1426C143.504 32.1426 118.504 51.1426 97.404 67.0426C91.904 71.2426 86.604 75.2426 81.704 78.6426C75.804 82.7426 68.704 84.5426 61.904 86.3426C53.104 88.6426 44.904 90.7426 38.704 97.2426C21.704 115.343 25.404 153.043 27.804 177.943C28.104 180.943 28.404 183.743 28.604 186.343C30.804 212.143 36.604 238.143 42.304 263.243C43.004 266.343 43.704 269.543 44.404 272.643C45.704 278.443 46.904 285.643 48.104 293.143C52.604 320.543 58.204 354.643 75.104 369.043C85.804 378.143 101.304 372.843 115.004 368.143C120.704 366.243 126.004 364.343 130.804 363.543C139.004 362.143 146.404 362.943 154.304 363.743C158.104 364.143 162.004 364.543 166.104 364.643C181.004 365.143 194.204 357.643 207.004 350.343L208.504 349.543C210.904 348.243 213.204 346.843 215.704 345.343C226.604 338.843 237.904 332.143 250.404 330.843C257.504 330.143 264.704 331.143 271.704 332.143C276.304 332.743 281.004 333.443 285.604 333.643C306.204 334.343 326.904 330.843 348.804 322.743C350.304 322.143 352.004 321.543 353.804 320.943C367.604 316.043 388.504 308.543 394.804 297.643C400.504 287.743 392.504 282.343 384.104 276.743C379.404 273.543 374.504 270.243 371.704 266.043C363.404 253.443 366.504 237.043 369.504 221.243C371.004 213.343 372.404 205.943 372.404 199.143C372.404 189.743 370.704 180.243 369.104 171.043C366.904 158.243 364.604 145.043 366.704 132.043C367.704 125.943 370.404 119.443 373.104 113.143C378.604 100.243 384.204 86.8426 376.004 75.2426C359.504 51.8426 301.004 51.3426 272.904 51.1426C271.004 51.1426 269.204 51.1426 267.604 51.1426C264.904 51.1426 262.204 51.1426 259.604 51.0426C235.504 50.9426 214.704 50.8426 192.804 38.5426C184.804 34.0426 176.804 32.1426 168.804 32.1426Z" fill="white"/>
<path d="M102.404 358.943C96.804 358.943 91.304 357.343 86.204 352.843C70.204 338.743 65.304 309.343 61.404 285.843C60.404 279.843 59.404 274.143 58.404 269.243C57.004 262.643 55.504 255.943 54.104 249.443C48.804 225.343 43.304 200.543 40.404 175.843C40.004 172.643 39.404 168.843 38.704 164.343C35.004 140.643 28.904 101.043 45.304 86.6426C52.704 80.1426 62.504 81.8426 72.004 83.5426C78.504 84.6426 85.204 85.8426 91.004 84.3426C101.004 81.7426 110.304 75.2426 119.404 68.9426C126.504 64.0426 133.804 58.9426 141.504 55.6426C156.304 49.3426 176.004 42.9426 197.004 48.9426C220.404 55.6426 243.404 57.7426 265.604 59.7426C268.604 60.0426 271.904 60.2426 275.404 60.5426C302.404 62.6426 343.304 65.7426 359.604 86.0426C368.904 97.5426 364.104 108.543 359.004 120.143C357.104 124.543 355.104 129.143 353.904 133.743C350.504 147.043 352.704 159.843 354.904 173.343C356.304 181.643 357.704 190.243 357.704 198.943C357.704 204.743 356.404 211.443 355.104 218.543C352.404 232.843 349.704 247.543 356.504 257.643C359.704 262.343 364.304 265.543 368.304 268.343C375.904 273.543 382.404 278.143 375.504 289.743C368.204 301.943 344.204 310.543 329.804 315.743C328.004 316.443 326.304 317.043 324.704 317.543C307.104 324.043 289.204 328.443 271.504 330.543C268.104 330.943 264.804 331.343 261.604 331.643C242.104 333.843 225.304 335.743 205.904 343.243C191.704 348.743 179.404 348.443 166.404 348.143C157.704 347.943 148.604 347.643 138.904 349.343C133.904 350.243 128.704 352.043 123.704 353.743C116.704 356.443 109.404 358.943 102.404 358.943ZM59.004 82.9426C54.204 82.9426 49.804 84.0426 45.904 87.3426C29.904 101.343 36.004 140.643 39.604 164.143C40.304 168.643 40.904 172.543 41.304 175.743C44.204 200.343 49.704 225.143 55.004 249.243C56.404 255.743 57.904 262.443 59.304 269.043C60.404 274.043 61.304 279.743 62.304 285.743C66.204 309.143 71.104 338.243 86.804 352.143C97.904 361.943 110.304 357.643 123.404 353.043C128.404 351.243 133.704 349.443 138.704 348.543C148.504 346.843 157.604 347.043 166.404 347.243C179.304 347.543 191.504 347.843 205.604 342.443C225.204 334.843 242.004 332.943 261.604 330.743C264.804 330.343 268.104 330.043 271.504 329.643C289.204 327.543 307.004 323.143 324.504 316.643C326.004 316.043 327.704 315.443 329.604 314.843C343.804 309.743 367.704 301.143 374.804 289.343C381.304 278.543 375.704 274.643 367.904 269.243C363.804 266.343 359.104 263.143 355.804 258.243C348.804 247.843 351.604 232.843 354.304 218.443C355.604 211.443 356.904 204.743 356.904 199.043C356.904 190.443 355.504 181.843 354.104 173.643C351.904 160.643 349.704 147.143 353.104 133.643C354.304 128.943 356.304 124.343 358.204 119.843C363.104 108.543 367.804 97.8426 358.904 86.7426C342.904 66.8426 302.304 63.6426 275.404 61.6426C271.904 61.3426 268.504 61.1426 265.604 60.8426C243.404 58.8426 220.404 56.6426 196.804 49.9426C176.104 44.0426 156.604 50.3426 141.904 56.5426C134.304 59.7426 127.104 64.8426 120.004 69.7426C110.904 76.0426 101.504 82.6426 91.304 85.3426C85.304 86.9426 78.404 85.7426 71.804 84.5426C67.404 83.6426 63.104 82.9426 59.004 82.9426Z" fill="white"/>
<path d="M116.504 337.143C110.504 337.143 104.604 335.443 98.704 330.143C84.004 316.743 79.304 292.643 75.204 271.443C74.104 265.643 73.004 260.043 71.804 255.043C64.804 226.643 57.704 196.443 53.504 166.443C53.204 164.243 52.604 161.143 51.904 157.243C47.704 134.043 38.804 85.6426 56.804 76.5426C64.304 72.7426 74.204 77.2426 83.604 81.6426C89.604 84.4426 95.304 87.0426 100.104 87.4426C112.604 88.4426 122.504 82.9426 133.104 77.0426C137.104 74.8426 141.304 72.5426 145.604 70.6426C164.604 62.2426 183.004 58.9426 200.304 60.7426C221.004 62.9426 242.104 66.8426 260.204 70.3426C263.604 71.0426 267.304 71.6426 271.204 72.3426C293.704 76.2426 321.804 81.0426 335.804 96.8426C345.304 107.643 342.204 118.143 339.004 129.343C337.604 134.243 336.104 139.243 335.704 144.343C334.904 154.043 336.904 163.943 338.804 173.643C340.504 181.943 342.204 190.443 342.204 199.043C342.204 205.043 340.804 212.043 339.204 219.343C336.704 231.443 334.104 243.943 338.004 253.043C340.104 257.843 343.204 261.043 346.004 263.843C351.204 269.143 355.404 273.243 347.504 284.043C333.304 303.543 291.504 316.143 269.004 322.943L266.804 323.643C252.904 327.843 238.404 329.943 224.404 332.043C217.504 333.043 210.304 334.143 203.304 335.343C191.704 337.443 180.904 335.943 170.404 334.443C162.304 333.343 153.904 332.143 145.204 332.643C140.404 332.943 135.704 333.943 131.204 334.943C126.304 336.043 121.304 337.143 116.504 337.143ZM63.204 76.1426C61.104 76.1426 59.104 76.5426 57.304 77.4426C40.004 86.2426 48.704 134.043 52.904 157.043C53.604 161.043 54.204 164.143 54.504 166.343C58.704 196.243 65.804 226.443 72.804 254.843C74.004 259.843 75.104 265.443 76.304 271.243C80.404 292.343 85.004 316.243 99.504 329.443C109.704 338.743 120.204 336.443 131.204 334.043C135.704 333.043 140.504 332.043 145.304 331.743C154.104 331.143 162.604 332.343 170.704 333.543C181.104 335.043 191.804 336.543 203.204 334.443C210.204 333.143 217.404 332.143 224.404 331.143C238.404 329.143 252.804 327.043 266.704 322.843L268.904 322.143C291.304 315.343 332.904 302.843 346.804 283.543C354.104 273.443 350.704 269.943 345.404 264.643C342.504 261.743 339.304 258.543 337.204 253.543C333.204 244.243 335.804 231.543 338.304 219.243C339.804 211.943 341.304 205.043 341.304 199.143C341.304 190.743 339.604 182.243 338.004 173.943C336.104 164.243 334.104 154.243 334.804 144.443C335.204 139.243 336.704 134.143 338.104 129.243C341.304 118.343 344.204 108.043 335.104 97.6426C321.404 82.0426 293.504 77.2426 271.104 73.4426C267.204 72.7426 263.504 72.1426 260.104 71.4426C242.004 67.9426 220.904 64.0426 200.304 61.8426C183.204 60.0426 165.004 63.3426 146.104 71.6426C141.804 73.5426 137.704 75.8426 133.704 78.0426C123.504 83.6426 112.904 89.5426 100.204 88.5426C95.204 88.1426 89.404 85.5426 83.304 82.6426C76.304 79.3426 69.304 76.1426 63.204 76.1426Z" fill="white"/>
<path d="M201.204 323.543C191.304 323.543 181.904 321.343 172.804 319.343C165.404 317.643 157.704 315.843 149.904 315.343C146.604 315.143 143.304 315.043 140.204 315.043C130.004 315.043 120.304 314.943 111.304 306.643C99.104 295.443 94.204 276.643 89.904 260.043C88.904 256.243 88.004 252.643 87.004 249.243C78.504 220.343 72.004 190.943 67.704 161.843C67.504 160.343 67.104 158.043 66.504 155.143C62.804 135.143 54.204 88.1426 67.804 79.8426C75.004 75.4426 86.704 81.7426 97.104 87.2426C102.004 89.8426 106.504 92.2426 109.704 93.0426C126.604 97.0426 143.004 90.9426 160.404 84.5426C173.904 79.5426 187.904 74.4426 202.004 74.5426C216.804 74.6426 230.404 78.0426 244.804 81.6426C246.304 82.0426 247.804 82.3426 249.204 82.7426C253.204 83.7426 257.404 84.6426 261.904 85.5426C279.004 89.0426 298.504 93.0426 310.304 105.643C319.104 114.943 318.804 125.243 318.504 136.143C318.404 139.843 318.304 143.743 318.604 147.643C319.104 155.543 320.904 163.243 322.504 170.743C324.504 179.843 326.704 189.243 326.704 199.243C326.704 206.843 324.904 214.743 323.104 222.343C321.104 231.143 319.004 240.143 319.704 248.443C320.104 252.443 321.004 255.743 321.904 258.643C323.904 265.243 325.404 270.543 318.104 278.843C303.604 295.343 276.704 304.943 255.204 312.643C253.304 313.343 251.504 313.943 249.704 314.543C233.104 320.543 217.604 323.543 202.104 323.743C201.804 323.543 201.504 323.543 201.204 323.543ZM73.604 79.3426C71.704 79.3426 69.904 79.7426 68.404 80.6426C55.404 88.5426 64.204 136.743 67.604 154.843C68.104 157.743 68.604 160.043 68.804 161.543C73.204 190.643 79.704 219.943 88.104 248.843C89.104 252.243 90.004 255.843 91.004 259.643C95.304 276.143 100.104 294.843 112.104 305.843C120.804 313.843 129.904 313.943 140.304 313.943C143.404 313.943 146.704 313.943 150.104 314.243C158.004 314.843 165.704 316.543 173.204 318.243C182.504 320.343 192.204 322.543 202.304 322.443C217.704 322.243 233.104 319.243 249.604 313.343C251.404 312.743 253.204 312.043 255.104 311.343C276.604 303.743 303.304 294.143 317.604 277.843C324.604 269.943 323.204 265.143 321.204 258.543C320.304 255.643 319.304 252.243 319.004 248.143C318.204 239.743 320.304 230.543 322.404 221.743C324.204 214.143 326.004 206.243 326.004 198.843C326.004 189.043 323.904 179.643 321.904 170.643C320.204 163.143 318.504 155.343 317.904 147.343C317.604 143.343 317.704 139.543 317.804 135.743C318.104 125.043 318.304 115.043 309.804 105.943C298.204 93.6426 279.004 89.6426 262.004 86.1426C257.504 85.2426 253.304 84.3426 249.304 83.3426C247.804 82.9426 246.304 82.6426 244.904 82.2426C230.604 78.6426 217.004 75.2426 202.304 75.1426C202.204 75.1426 202.204 75.1426 202.104 75.1426C188.204 75.1426 174.504 80.2426 161.104 85.1426C144.304 91.3426 127.004 97.6426 109.804 93.6426C106.504 92.8426 101.804 90.4426 96.904 87.8426C89.204 84.0426 80.304 79.3426 73.604 79.3426Z" fill="white"/>
<path d="M201.604 308.143C179.104 308.143 140.504 301.043 123.804 285.043C97.2039 259.443 89.8039 206.543 84.9039 171.543C84.5039 168.943 84.2039 166.543 83.9039 164.143C83.6039 162.143 83.1039 159.343 82.5039 156.143C79.3039 138.343 73.3039 105.143 84.5039 95.2426C90.5039 89.9426 102.304 95.2426 111.704 99.6426C115.304 101.243 118.404 102.743 120.604 103.243C136.804 107.443 152.804 102.043 168.304 96.8426C179.204 93.2426 190.504 89.4426 201.904 88.8426C216.804 88.1426 233.204 89.3426 247.104 92.3426C265.204 96.1426 278.804 102.543 287.304 111.343C295.304 119.543 297.304 129.443 299.504 139.943C300.104 142.843 300.704 145.943 301.504 148.943C302.304 151.943 303.104 154.943 303.904 157.943C307.504 171.443 311.004 184.143 311.104 198.043C311.204 209.643 308.504 219.943 305.604 230.743C304.504 234.843 303.404 238.943 302.504 243.243C301.904 245.943 301.504 248.343 301.104 250.743C299.704 258.843 298.704 265.143 292.004 272.243C270.504 295.343 229.604 307.943 202.104 308.143C201.904 308.143 201.704 308.143 201.604 308.143ZM91.2039 94.0426C88.8039 94.0426 86.7039 94.6426 85.1039 96.0426C74.4039 105.543 80.3039 138.343 83.5039 156.043C84.1039 159.243 84.6039 162.043 84.9039 164.043C85.2039 166.443 85.6039 168.943 85.9039 171.443C90.8039 206.343 98.1039 259.043 124.504 284.343C134.504 293.943 165.204 307.443 202.104 307.243C229.404 307.143 269.904 294.643 291.304 271.643C297.704 264.743 298.804 258.543 300.104 250.643C300.504 248.243 300.904 245.843 301.504 243.143C302.504 238.843 303.604 234.643 304.604 230.543C307.504 219.743 310.204 209.543 310.104 198.043C310.004 184.243 306.604 171.643 303.004 158.243C302.204 155.243 301.404 152.243 300.604 149.243C299.804 146.243 299.204 143.143 298.604 140.243C296.504 129.943 294.504 120.143 286.704 112.143C275.404 100.543 246.504 87.7426 202.104 89.9426C190.804 90.5426 179.604 94.2426 168.704 97.8426C153.104 103.043 136.904 108.443 120.404 104.243C118.104 103.643 114.904 102.243 111.304 100.543C104.704 97.5426 97.1039 94.0426 91.2039 94.0426Z" fill="white"/>
<path d="M200.804 292.543C144.904 292.543 111.504 252.043 101.504 172.043C101.304 170.443 101.004 168.443 100.704 166.143C98.6039 152.343 95.1039 129.143 103.604 119.843C109.504 113.443 118.104 115.443 125.704 117.143C128.204 117.743 130.504 118.243 132.704 118.543C147.504 120.343 160.404 115.243 174.204 109.743C182.904 106.243 192.004 102.643 201.504 101.043C239.004 94.8426 258.604 105.243 268.404 115.043C276.704 123.343 283.604 136.243 288.504 152.443C292.504 165.743 294.904 181.043 295.204 194.543C295.804 221.243 286.304 246.043 268.604 264.343C251.404 282.143 227.804 292.143 202.204 292.343C201.704 292.543 201.204 292.543 200.804 292.543ZM202.104 291.543C227.404 291.243 250.804 281.443 267.804 263.843C285.404 245.643 294.704 221.143 294.104 194.743C293.504 168.943 285.004 133.243 267.604 115.843C257.904 106.143 238.604 95.9426 201.604 102.043C192.204 103.643 183.204 107.143 174.504 110.643C161.304 115.943 147.604 121.343 132.604 119.543C130.304 119.243 128.004 118.743 125.504 118.143C117.804 116.343 109.804 114.543 104.304 120.543C96.1039 129.443 99.6039 152.343 101.604 165.943C101.904 168.243 102.204 170.243 102.504 171.843C106.804 206.543 115.704 234.043 128.704 253.543C145.704 279.143 170.404 291.943 202.104 291.543Z" fill="white"/>
<path d="M202.104 277.043C176.804 277.043 156.504 266.843 141.804 246.843C126.704 226.143 121.404 200.443 119.704 182.543C119.604 181.643 119.504 180.743 119.404 179.743C118.204 168.043 116.404 150.243 126.204 142.243C129.804 139.243 135.204 138.643 139.904 138.043C141.904 137.843 143.704 137.543 145.404 137.243C156.404 134.743 166.304 129.343 175.904 124.143C183.804 119.843 191.904 115.443 200.704 112.543C219.504 106.343 235.604 107.843 248.604 116.943C266.504 129.543 277.904 157.043 278.904 190.643C279.704 215.443 271.104 239.043 255.304 255.343C241.604 269.443 223.104 277.043 202.104 277.043ZM222.204 109.643C215.604 109.643 208.604 110.843 201.104 113.343C192.404 116.243 184.304 120.643 176.404 124.943C166.804 130.243 156.804 135.643 145.604 138.143C143.904 138.543 142.004 138.743 140.004 139.043C135.204 139.643 130.204 140.243 126.804 143.043C117.304 150.843 119.204 168.943 120.304 179.743C120.404 180.743 120.504 181.643 120.604 182.543C128.904 269.343 185.004 276.143 202.004 276.143C222.704 276.143 240.904 268.643 254.604 254.543C270.204 238.443 278.704 215.143 277.904 190.643C276.904 157.443 265.704 130.143 248.004 117.743C240.504 112.343 231.904 109.643 222.204 109.643Z" fill="white"/>
<path d="M202.904 261.543C202.604 261.543 202.404 261.543 202.104 261.543C162.604 261.143 138.404 226.043 137.804 192.343C137.504 172.743 142.004 166.243 157.804 154.043C161.004 151.643 164.104 149.143 167.104 146.643C177.404 138.443 188.004 129.943 200.104 123.843C213.904 117.043 226.004 116.543 236.004 122.443C254.304 133.343 261.904 163.643 262.804 186.243C263.704 209.243 256.304 231.143 243.004 244.943C232.604 256.043 219.004 261.543 202.904 261.543ZM202.104 260.543C218.304 260.743 231.904 255.343 242.404 244.443C255.604 230.843 262.904 209.243 261.904 186.543C261.004 164.143 253.504 134.143 235.604 123.543C225.904 117.743 214.104 118.243 200.604 124.943C188.504 130.943 178.404 139.043 167.704 147.543C164.704 149.943 161.504 152.543 158.404 154.943C142.904 166.843 138.504 173.243 138.804 192.443C139.404 225.543 163.204 260.143 202.104 260.543Z" fill="white"/>
<path d="M201.704 246.043C189.704 246.043 178.304 241.343 169.504 232.643C160.304 223.643 155.004 211.143 154.904 198.343C154.704 174.343 178.104 149.743 199.804 137.043C209.704 131.243 218.504 130.343 225.904 134.343C241.104 142.543 246.404 169.443 247.104 183.943C248.104 204.343 242.704 222.343 232.304 233.443C224.604 241.643 214.404 245.843 202.104 245.943C202.004 246.043 201.804 246.043 201.704 246.043ZM216.104 132.943C211.304 132.943 206.004 134.643 200.304 137.943C178.804 150.543 155.704 174.843 155.904 198.343C156.004 210.843 161.204 223.043 170.204 231.943C178.804 240.343 190.004 245.043 201.704 245.043C201.804 245.043 202.004 245.043 202.104 245.043C214.204 244.943 224.104 240.843 231.604 232.843C241.804 221.943 247.204 204.243 246.104 184.043C245.404 169.743 240.204 143.243 225.404 135.243C222.504 133.743 219.404 132.943 216.104 132.943Z" fill="white"/>
<path d="M201.204 229.943C193.804 229.943 186.204 226.743 180.404 221.043C174.104 214.843 170.404 206.643 170.504 198.443C170.604 181.343 185.304 162.643 199.904 152.943C205.404 149.243 210.604 148.543 215.204 150.743C225.404 155.643 230.704 173.943 231.704 184.343C232.704 195.443 229.904 210.943 221.204 220.843C216.104 226.643 209.604 229.743 202.004 229.943C201.804 229.943 201.504 229.943 201.204 229.943ZM209.704 150.543C206.804 150.543 203.604 151.643 200.404 153.843C181.504 166.443 171.604 185.843 171.504 198.443C171.504 206.343 175.004 214.343 181.104 220.343C187.004 226.043 194.604 229.143 202.004 228.943C209.304 228.743 215.504 225.743 220.404 220.143C228.904 210.543 231.604 195.243 230.604 184.443C230.204 180.143 228.804 173.143 226.104 166.443C224.004 161.143 220.204 154.343 214.604 151.643C213.104 150.843 211.504 150.543 209.704 150.543Z" fill="white"/>
<path d="M199.604 211.743C196.704 211.743 193.804 210.643 191.404 208.643C187.704 205.543 185.604 200.843 185.604 195.543C185.604 185.543 191.704 175.343 200.304 171.243C203.404 169.743 206.504 169.843 209.204 171.543C213.504 174.043 216.204 179.943 216.504 187.243C217.004 197.743 211.904 209.843 201.704 211.543C201.004 211.643 200.304 211.743 199.604 211.743ZM204.604 171.243C203.304 171.243 202.004 171.543 200.704 172.143C192.504 176.043 186.604 185.943 186.604 195.543C186.604 200.543 188.604 205.043 192.004 207.843C194.804 210.143 198.104 211.143 201.504 210.543C211.204 208.843 215.904 197.243 215.504 187.243C215.204 180.343 212.604 174.743 208.704 172.343C207.404 171.643 206.004 171.243 204.604 171.243Z" fill="white"/>
<path d="M211.304 371.043C210.504 360.343 208.504 350.143 206.604 340.343C204.104 327.543 201.604 314.343 201.604 299.843V298.743C201.604 263.543 201.604 227.243 200.604 191.443H201.604C202.604 227.243 202.604 263.643 202.604 298.743V299.843C202.604 314.243 205.104 327.443 207.604 340.143C209.504 350.043 211.504 360.243 212.304 371.043H211.304Z" fill="white"/>
<path d="M393.804 261.743C377.104 255.343 359.804 250.143 343.104 245.143C328.204 240.643 312.804 236.043 297.804 230.543C285.404 225.943 273.404 220.243 261.804 214.643C242.604 205.443 222.704 195.843 200.904 191.843L201.104 190.843C223.004 194.843 243.004 204.443 262.204 213.643C273.804 219.243 285.704 224.943 298.104 229.443C313.004 234.943 328.404 239.543 343.304 244.043C360.104 249.043 377.404 254.243 394.104 260.743L393.804 261.743Z" fill="white"/>
<path d="M201.504 191.643L200.604 191.243C203.204 185.143 205.604 178.943 207.904 173.043C219.204 143.743 229.904 115.943 263.304 104.043C264.704 103.543 266.304 102.943 267.904 102.443C297.904 91.8425 353.704 72.0425 345.404 34.5425L346.404 34.3425C354.904 72.7425 298.504 92.7425 268.304 103.443C266.704 104.043 265.104 104.543 263.704 105.043C230.704 116.843 220.604 143.143 208.904 173.543C206.504 179.343 204.104 185.443 201.504 191.643Z" fill="white"/>
<path d="M200.704 191.742C192.404 180.342 183.604 169.142 175.204 158.242C163.804 143.642 152.004 128.642 141.204 112.842C130.904 97.8425 119.404 83.1425 108.304 68.9425C99.9041 58.2425 91.3041 47.2425 83.2041 36.1425L84.0041 35.5425C92.1041 46.6425 100.704 57.6425 109.104 68.3425C120.204 82.5425 131.804 97.2425 142.104 112.342C152.904 128.142 164.704 143.142 176.004 157.742C184.504 168.542 193.204 179.742 201.604 191.242L200.704 191.742Z" fill="white"/>
<path d="M10.404 261.843L10.104 260.843C42.704 252.143 72.504 240.243 104.204 227.543L105.304 227.043C117.204 222.243 129.204 218.843 140.704 215.643C161.604 209.743 181.404 204.143 200.804 190.943L201.404 191.743C181.904 205.043 162.104 210.643 141.104 216.543C129.604 219.843 117.704 223.143 105.804 227.943L104.704 228.443C72.904 241.143 43.004 253.143 10.404 261.843Z" fill="white"/>
</svg>
