<svg width="305" height="444" viewBox="0 0 305 444" fill="none" xmlns="http://www.w3.org/2000/svg">
<mask id="mask0_201_619" style="mask-type:luminance" maskUnits="userSpaceOnUse" x="148" y="0" width="153" height="222">
<path d="M293.709 87.1273C267.809 111.827 241.809 136.427 215.909 161.127C211.709 165.127 206.009 170.527 201.809 174.527C199.709 176.527 196.809 179.227 194.709 181.227C190.509 185.227 184.809 190.627 180.609 194.627C178.509 196.627 175.609 199.327 173.509 201.327C171.409 203.327 168.509 206.027 166.409 208.027C162.209 212.027 154.909 216.227 152.309 221.427C151.009 156.427 149.709 91.3273 148.409 26.3273C148.109 13.3273 158.209 3.42733 177.809 0.727332C211.009 -3.87267 258.709 13.8273 284.509 40.2273C302.309 58.7273 304.909 76.5273 293.709 87.1273Z" fill="white"/>
</mask>
<g mask="url(#mask0_201_619)">
<path d="M152.609 221.927L151.809 221.327L284.309 39.6274L284.709 40.0274C298.009 53.6274 303.409 67.7274 299.709 78.7274C296.409 88.4274 286.309 94.9274 271.209 97.0274L152.609 221.927ZM284.409 41.1274L157.109 215.727L270.709 96.1274H270.909C285.709 94.1274 295.509 87.8274 298.709 78.4274C302.409 67.9274 297.109 54.3274 284.409 41.1274Z" fill="white"/>
<path d="M294.631 85.4608L151.904 221.253L152.594 221.977L295.32 86.1853L294.631 85.4608Z" fill="white"/>
<path d="M299.37 65.3146L151.807 221.273L152.533 221.96L300.096 66.0019L299.37 65.3146Z" fill="white"/>
<path d="M151.509 223.427L177.209 0.427448L177.609 0.32745C210.809 -4.27255 258.909 13.5275 284.709 39.9275L285.009 40.2274L284.809 40.5275L151.509 223.427ZM178.109 1.32745L152.909 219.727L283.709 40.4275C258.109 14.4275 211.009 -3.07255 178.109 1.32745Z" fill="white"/>
<path d="M252.186 17.2088L151.747 221.434L152.644 221.876L253.084 17.6501L252.186 17.2088Z" fill="white"/>
<path d="M213.836 3.09059L151.747 221.538L152.708 221.811L214.798 3.36399L213.836 3.09059Z" fill="white"/>
<path d="M152.709 221.727L151.709 221.627L163.809 57.3275C150.609 43.7275 145.209 29.7275 149.009 18.8275C152.309 9.12749 162.509 2.62749 177.609 0.527491L178.209 0.42749L152.709 221.727ZM177.109 1.52749C162.709 3.62749 153.109 9.92749 149.909 19.1275C146.309 29.7275 151.609 43.4275 164.609 56.8275L164.809 57.0275L154.509 197.627L177.109 1.52749Z" fill="white"/>
<path d="M153.301 11.6018L151.66 221.602L152.66 221.61L154.301 11.6096L153.301 11.6018Z" fill="white"/>
</g>
<mask id="mask1_201_619" style="mask-type:luminance" maskUnits="userSpaceOnUse" x="148" y="0" width="153" height="222">
<path d="M293.709 87.1273C267.809 111.827 241.809 136.427 215.909 161.127C211.709 165.127 206.009 170.527 201.809 174.527C199.709 176.527 196.809 179.227 194.709 181.227C190.509 185.227 184.809 190.627 180.609 194.627C178.509 196.627 175.609 199.327 173.509 201.327C171.409 203.327 168.509 206.027 166.409 208.027C162.209 212.027 154.909 216.227 152.309 221.427C151.009 156.427 149.709 91.3273 148.409 26.3273C148.109 13.3273 158.209 3.42733 177.809 0.727332C211.009 -3.87267 258.709 13.8273 284.509 40.2273C302.309 58.7273 304.909 76.5273 293.709 87.1273Z" fill="white"/>
</mask>
<g mask="url(#mask1_201_619)">
<path d="M151.709 223.627L147.809 26.4274C147.509 12.5274 158.409 3.02745 177.609 0.32745C210.809 -4.27255 258.909 13.5275 284.709 39.9275C295.409 50.9275 301.009 61.9274 300.809 71.8274C300.709 77.8274 298.309 83.2275 293.909 87.4275L166.609 208.427C165.209 209.727 163.509 211.027 161.809 212.427C158.109 215.327 154.309 218.327 152.609 221.727L151.709 223.627ZM188.709 0.727449C184.909 0.727449 181.209 0.927448 177.709 1.42745C159.009 4.02745 148.509 13.1275 148.809 26.5275L152.709 219.927C154.709 216.927 158.109 214.327 161.309 211.827C163.009 210.427 164.709 209.127 166.009 207.927L293.309 86.9275C297.609 82.9275 299.809 77.8275 299.909 72.0275C300.109 62.4275 294.609 51.7274 284.009 40.8274C261.109 17.3274 220.609 0.727449 188.709 0.727449Z" fill="white"/>
</g>
<mask id="mask2_201_619" style="mask-type:luminance" maskUnits="userSpaceOnUse" x="152" y="57" width="142" height="165">
<path d="M152.209 221.627L164.309 57.1274C190.109 83.5274 237.809 101.227 271.009 96.6274C281.109 95.2274 288.709 91.9274 293.609 87.2274C246.509 132.027 199.409 176.827 152.209 221.627Z" fill="white"/>
</mask>
<g mask="url(#mask2_201_619)">
<path d="M151.609 223.027L163.909 56.0273L164.709 56.8273C187.609 80.3273 228.109 96.9273 260.009 96.9273C263.809 96.9273 267.509 96.7273 271.009 96.2273L272.409 96.0273L151.609 223.027ZM164.709 58.2273L152.809 220.327L269.709 97.3273C236.809 101.127 190.409 83.9273 164.709 58.2273Z" fill="white"/>
<path d="M195.61 79.9667L151.624 221.483L152.579 221.78L196.565 80.2635L195.61 79.9667Z" fill="white"/>
<path d="M233.892 93.8721L151.861 221.368L152.702 221.909L234.733 94.4132L233.892 93.8721Z" fill="white"/>
<path d="M152.609 221.927L151.809 221.327L284.309 39.6274L284.709 40.0274C298.009 53.6274 303.409 67.7274 299.709 78.7274C296.409 88.4274 286.309 94.9274 271.209 97.0274L152.609 221.927ZM284.409 41.1274L157.109 215.727L270.709 96.1274H270.909C285.709 94.1274 295.509 87.8274 298.709 78.4274C302.409 67.9274 297.109 54.3274 284.409 41.1274Z" fill="white"/>
</g>
<mask id="mask3_201_619" style="mask-type:luminance" maskUnits="userSpaceOnUse" x="152" y="57" width="142" height="165">
<path d="M152.209 221.627L164.309 57.1274C190.109 83.5274 237.809 101.227 271.009 96.6274C281.109 95.2274 288.709 91.9274 293.609 87.2274C246.509 132.027 199.409 176.827 152.209 221.627Z" fill="white"/>
</mask>
<g mask="url(#mask3_201_619)">
<path d="M151.609 222.827L163.909 55.9275L164.709 56.7275C190.309 83.0275 238.009 100.627 271.009 96.0275C280.709 94.7275 288.409 91.5275 293.409 86.7275L294.109 87.4275L151.609 222.827ZM164.709 58.2275L152.809 220.427L288.009 91.9275C283.409 94.4275 277.709 96.2275 271.109 97.1275C238.209 101.627 190.709 84.2275 164.709 58.2275Z" fill="white"/>
</g>
<mask id="mask4_201_619" style="mask-type:luminance" maskUnits="userSpaceOnUse" x="148" y="26" width="17" height="196">
<path d="M148.309 26.5273C148.509 35.6273 153.709 46.2273 164.309 57.1273L152.209 221.627C150.909 156.527 149.609 91.5273 148.309 26.5273Z" fill="white"/>
</mask>
<g mask="url(#mask4_201_619)">
<path d="M152.709 221.727L151.709 221.627L163.809 57.3272C150.609 43.7272 145.209 29.7272 149.009 18.8272C152.309 9.12725 162.509 2.62725 177.609 0.527246L178.209 0.427246L152.709 221.727ZM177.109 1.52725C162.709 3.62725 153.109 9.92725 149.909 19.1272C146.309 29.7272 151.609 43.4272 164.609 56.8272L164.809 57.0272L154.509 197.627L177.109 1.52725Z" fill="white"/>
<path d="M149.498 31.835L148.499 31.8521L151.745 221.733L152.745 221.716L149.498 31.835Z" fill="white"/>
</g>
<mask id="mask5_201_619" style="mask-type:luminance" maskUnits="userSpaceOnUse" x="148" y="26" width="17" height="196">
<path d="M148.309 26.5273C148.509 35.6273 153.709 46.2273 164.309 57.1273L152.209 221.627C150.909 156.527 149.609 91.5273 148.309 26.5273Z" fill="white"/>
</mask>
<g mask="url(#mask5_201_619)">
<path d="M152.709 221.627H151.709L147.809 26.5273H148.809C149.009 35.8273 154.509 46.3273 164.709 56.7273L164.909 56.9273V57.1273L152.709 221.627ZM149.009 33.9273L152.509 210.927L163.809 57.2273C156.109 49.3273 151.109 41.4273 149.009 33.9273Z" fill="white"/>
</g>
<mask id="mask6_201_619" style="mask-type:luminance" maskUnits="userSpaceOnUse" x="10" y="221" width="147" height="196">
<path d="M152.209 221.627L156.109 416.727C155.909 407.627 150.709 397.027 140.109 386.127C114.309 359.727 66.6091 342.027 33.4091 346.627C23.3091 348.027 15.7091 351.327 10.8091 356.027C10.7091 356.127 152.209 221.627 152.209 221.627Z" fill="white"/>
</mask>
<g mask="url(#mask6_201_619)">
<path d="M126.109 442.927L151.709 221.527L152.709 221.627L140.609 385.927C153.809 399.527 159.209 413.527 155.409 424.427C152.109 434.127 141.909 440.627 126.809 442.727L126.109 442.927ZM149.909 245.627L127.209 441.727C141.609 439.627 151.209 433.327 154.409 424.127C158.009 413.527 152.709 399.827 139.709 386.427L139.509 386.227L149.909 245.627Z" fill="white"/>
<path d="M152.7 221.645L151.7 221.662L154.943 411.543L155.943 411.526L152.7 221.645Z" fill="white"/>
<path d="M140.509 387.327L139.709 386.527C114.109 360.227 66.4088 342.627 33.4088 347.227L32.0088 347.427L152.809 220.327L140.509 387.327ZM44.4088 345.427C76.2088 345.427 116.509 361.727 139.709 385.027L151.609 222.927L34.7088 345.927C37.8088 345.627 41.1088 345.427 44.4088 345.427Z" fill="white"/>
<path d="M151.812 221.47L107.826 362.986L108.781 363.283L152.767 221.767L151.812 221.47Z" fill="white"/>
<path d="M151.739 221.318L69.708 348.814L70.549 349.355L152.58 221.859L151.739 221.318Z" fill="white"/>
<path d="M20.1089 403.627L19.7089 403.227C6.4089 389.627 1.0089 375.527 4.7089 364.527C8.0089 354.827 18.1089 348.327 33.2089 346.227L151.909 221.327L152.709 221.927L20.1089 403.627ZM147.309 227.527L33.6089 347.127H33.4089C18.6089 349.127 8.8089 355.427 5.6089 364.827C2.0089 375.327 7.2089 388.827 19.9089 402.027L147.309 227.527Z" fill="white"/>
</g>
<mask id="mask7_201_619" style="mask-type:luminance" maskUnits="userSpaceOnUse" x="10" y="221" width="147" height="196">
<path d="M152.209 221.627L156.109 416.727C155.909 407.627 150.709 397.027 140.109 386.127C114.309 359.727 66.6091 342.027 33.4091 346.627C23.3091 348.027 15.7091 351.327 10.8091 356.027C10.7091 356.127 152.209 221.627 152.209 221.627Z" fill="white"/>
</mask>
<g mask="url(#mask7_201_619)">
<path d="M155.609 416.727C155.409 407.327 149.909 396.927 139.709 386.527C114.109 360.227 66.4091 342.627 33.4091 347.227C23.7091 348.527 16.0091 351.727 11.0091 356.527L10.3091 355.827L152.609 220.527L156.509 416.827L155.609 416.727ZM44.4091 345.427C76.5091 345.427 117.409 362.127 140.409 385.827C148.209 393.827 153.309 401.827 155.409 409.327L151.709 222.727L16.4091 351.427C21.0091 348.927 26.7091 347.127 33.3091 346.227C36.9091 345.727 40.6091 345.427 44.4091 345.427Z" fill="white"/>
</g>
<mask id="mask8_201_619" style="mask-type:luminance" maskUnits="userSpaceOnUse" x="20" y="221" width="137" height="223">
<path d="M156.109 416.727C156.409 429.727 146.309 439.627 126.709 442.327C93.5093 446.927 45.8093 429.227 20.0093 402.827L152.209 221.627C153.409 280.127 154.909 358.227 156.109 416.727Z" fill="white"/>
</mask>
<g mask="url(#mask8_201_619)">
<path d="M115.709 443.528C83.6092 443.528 42.7092 426.828 19.7092 403.128L19.4092 402.828L19.6092 402.528L152.909 219.728L127.109 442.728L126.709 442.828C123.209 443.328 119.509 443.528 115.709 443.528ZM20.7092 402.828C46.3092 428.828 93.5092 446.328 126.309 441.928L151.509 223.528L20.7092 402.828Z" fill="white"/>
<path d="M151.736 221.371L51.2964 425.596L52.1937 426.037L152.634 221.812L151.736 221.371Z" fill="white"/>
<path d="M151.701 221.418L89.6123 439.865L90.5742 440.139L152.663 221.691L151.701 221.418Z" fill="white"/>
<path d="M126.109 442.928L151.709 221.528L152.709 221.628L140.609 385.928C153.809 399.528 159.209 413.528 155.409 424.428C152.109 434.128 141.909 440.628 126.809 442.728L126.109 442.928ZM149.909 245.628L127.209 441.728C141.609 439.628 151.209 433.328 154.409 424.128C158.009 413.528 152.709 399.828 139.709 386.428L139.509 386.228L149.909 245.628Z" fill="white"/>
<path d="M151.776 221.623L150.135 431.623L151.135 431.631L152.776 221.631L151.776 221.623Z" fill="white"/>
</g>
<mask id="mask9_201_619" style="mask-type:luminance" maskUnits="userSpaceOnUse" x="20" y="221" width="137" height="223">
<path d="M156.109 416.727C156.409 429.727 146.309 439.627 126.709 442.327C93.5093 446.927 45.8093 429.227 20.0093 402.827L152.209 221.627C153.409 280.127 154.909 358.227 156.109 416.727Z" fill="white"/>
</mask>
<g mask="url(#mask9_201_619)">
<path d="M115.709 443.527C83.6092 443.527 42.7092 426.827 19.7092 403.127L19.4092 402.827L19.6092 402.527L152.709 220.127L156.609 416.727C156.909 430.627 146.009 440.127 126.809 442.827C123.209 443.327 119.509 443.527 115.709 443.527ZM20.7092 402.827C43.7092 426.127 84.0092 442.627 115.709 442.627C119.509 442.627 123.209 442.427 126.709 441.927C145.409 439.327 155.909 430.227 155.609 416.827L151.709 223.127L20.7092 402.827Z" fill="white"/>
</g>
<mask id="mask10_201_619" style="mask-type:luminance" maskUnits="userSpaceOnUse" x="3" y="221" width="150" height="182">
<path d="M152.209 221.627L20.0091 402.827C2.1091 384.427 -0.490898 366.727 10.7091 356.027C53.2091 315.727 109.809 261.927 152.209 221.627Z" fill="white"/>
</mask>
<g mask="url(#mask10_201_619)">
<path d="M20.1089 403.627L19.7089 403.227C6.4089 389.627 1.0089 375.527 4.7089 364.527C8.0089 354.827 18.1089 348.327 33.2089 346.227L151.909 221.327L152.709 221.927L20.1089 403.627ZM147.309 227.527L33.6089 347.127H33.4089C18.6089 349.127 8.8089 355.427 5.6089 364.827C2.0089 375.327 7.2089 388.827 19.9089 402.027L147.309 227.527Z" fill="white"/>
<path d="M151.838 221.3L9.11182 357.092L9.80112 357.817L152.528 222.024L151.838 221.3Z" fill="white"/>
<path d="M151.9 221.267L4.33691 377.226L5.06331 377.913L152.627 221.955L151.9 221.267Z" fill="white"/>
</g>
<mask id="mask11_201_619" style="mask-type:luminance" maskUnits="userSpaceOnUse" x="3" y="221" width="150" height="182">
<path d="M152.209 221.627L20.0091 402.827C2.1091 384.427 -0.490898 366.727 10.7091 356.027C53.2091 315.727 109.809 261.927 152.209 221.627Z" fill="white"/>
</mask>
<g mask="url(#mask11_201_619)">
<path d="M20.1092 403.628L19.7092 403.228C9.00918 392.228 3.40918 381.228 3.60918 371.328C3.70918 365.328 6.10918 359.928 10.5092 355.728L152.009 221.228L152.709 221.928L20.1092 403.628ZM148.509 225.828L11.1092 356.428C6.80918 360.428 4.60918 365.528 4.50918 371.328C4.30918 380.628 9.80918 391.528 19.9092 402.028L148.509 225.828Z" fill="white"/>
</g>
<mask id="mask12_201_619" style="mask-type:luminance" maskUnits="userSpaceOnUse" x="0" y="124" width="305" height="309">
<path d="M149.309 432.927C160.509 422.227 157.909 404.527 140.009 386.127C114.209 359.727 66.5091 342.027 33.3091 346.627C13.8091 349.327 3.70905 359.227 3.90905 372.227C2.60906 307.227 1.30906 242.127 0.00906114 177.127C-0.490939 151.027 19.7091 131.427 58.8091 125.927C125.109 116.727 220.709 152.127 272.209 204.927C308.009 241.627 313.209 277.127 290.709 298.427C243.709 343.327 196.509 388.127 149.309 432.927Z" fill="white"/>
</mask>
<g mask="url(#mask12_201_619)">
<path d="M125.409 443.027L155.009 411.827C153.309 403.827 148.109 395.127 139.709 386.527L139.409 386.227L139.609 385.927L272.209 204.127L272.609 204.527C299.009 231.627 309.909 259.627 302.409 281.427C295.809 300.627 275.709 313.527 245.709 317.727L156.009 412.127C156.809 416.527 156.609 420.727 155.309 424.427C152.009 434.127 141.809 440.627 126.709 442.727L125.409 443.027ZM155.209 413.027L128.109 441.627C142.109 439.427 151.409 433.227 154.509 424.227C155.609 420.727 155.909 417.027 155.209 413.027ZM140.709 386.127C148.809 394.527 153.909 403.127 155.809 410.927L245.309 316.727H245.509C275.209 312.627 295.109 299.927 301.609 281.027C308.909 259.727 298.309 232.327 272.409 205.627L140.709 386.127Z" fill="white"/>
<path d="M293.056 295.497L150.33 431.29L151.019 432.014L293.745 296.222L293.056 295.497Z" fill="white"/>
<path d="M302.713 255.154L155.15 411.112L155.876 411.799L303.44 255.841L302.713 255.154Z" fill="white"/>
<path d="M140.109 386.927L139.709 386.527C114.109 360.227 66.4091 342.627 33.4091 347.227L32.8091 347.327L58.4091 125.527L58.8091 125.427C125.209 116.227 221.109 151.727 272.709 204.527L273.009 204.827L272.809 205.127L140.109 386.927ZM44.4091 345.427C76.4091 345.427 116.909 361.927 140.009 385.327L271.609 204.927C220.309 152.527 125.209 117.327 59.3091 126.327L33.9091 346.027C37.3091 345.627 40.8091 345.427 44.4091 345.427Z" fill="white"/>
<path d="M208.308 158.677L107.868 362.902L108.765 363.343L209.205 159.118L208.308 158.677Z" fill="white"/>
<path d="M131.729 130.435L69.6396 348.882L70.6015 349.155L132.691 130.708L131.729 130.435Z" fill="white"/>
<path d="M20.4091 404.027L19.6091 403.227C6.30911 389.627 0.909108 375.527 4.60911 364.527C7.10911 357.127 13.7091 351.527 23.4091 348.427L31.5091 238.527C5.20911 211.527 -5.5909 183.527 1.8091 161.827C8.4091 142.627 28.6091 129.727 58.7091 125.527L59.3091 125.427L33.7091 347.227L33.3091 347.327C30.1091 347.827 27.1091 348.427 24.3091 349.227L20.4091 404.027ZM23.4091 349.427C14.2091 352.527 8.00911 357.827 5.60911 364.827C2.00911 375.227 7.10911 388.627 19.6091 401.727L23.4091 349.427ZM58.3091 126.527C29.0091 130.727 9.3091 143.327 2.9091 162.127C-4.3909 183.527 6.40911 211.127 32.5091 237.927L32.7091 238.127L24.6091 348.127C27.2091 347.327 30.0091 346.727 33.0091 346.327L58.3091 126.527Z" fill="white"/>
<path d="M10.5546 147.45L8.91406 357.45L9.91406 357.458L11.5546 147.458L10.5546 147.45Z" fill="white"/>
</g>
<mask id="mask13_201_619" style="mask-type:luminance" maskUnits="userSpaceOnUse" x="0" y="124" width="305" height="309">
<path d="M149.309 432.927C160.509 422.227 157.909 404.527 140.009 386.127C114.209 359.727 66.5091 342.027 33.3091 346.627C13.8091 349.327 3.70905 359.227 3.90905 372.227C2.60906 307.227 1.30906 242.127 0.00906114 177.127C-0.490939 151.027 19.7091 131.427 58.8091 125.927C125.109 116.727 220.709 152.127 272.209 204.927C308.009 241.627 313.209 277.127 290.709 298.427C243.709 343.327 196.509 388.127 149.309 432.927Z" fill="white"/>
</mask>
<g mask="url(#mask13_201_619)">
<path d="M149.709 433.327L149.009 432.627C153.209 428.627 155.409 423.627 155.609 417.827C155.809 408.227 150.309 397.427 139.709 386.627C114.109 360.327 66.4092 342.727 33.4092 347.327C14.7092 349.927 4.20919 359.027 4.50919 372.427H3.50919L-0.390807 177.327C-0.690807 164.127 4.40919 152.527 14.3092 143.627C24.6092 134.327 39.6092 128.327 58.8092 125.627C125.209 116.427 221.109 151.927 272.709 204.727C294.109 226.627 305.209 248.627 304.809 268.127C304.609 280.027 299.909 290.627 291.209 298.927L149.709 433.327ZM44.4092 345.427C76.5092 345.427 117.409 362.127 140.409 385.827C151.109 396.827 156.709 407.827 156.509 417.727C156.409 421.427 155.509 424.827 153.809 427.927L290.409 298.127C299.009 289.927 303.509 279.827 303.709 268.027C304.109 248.727 293.009 227.027 271.809 205.327C220.409 152.727 124.909 117.327 58.8092 126.527C21.2092 131.727 -0.0908059 150.227 0.509194 177.227L4.30919 365.527C7.20919 355.427 17.4092 348.527 33.2092 346.327C36.9092 345.727 40.6092 345.427 44.4092 345.427Z" fill="white"/>
</g>
<mask id="mask14_201_619" style="mask-type:luminance" maskUnits="userSpaceOnUse" x="20" y="238" width="271" height="206">
<path d="M290.809 298.427C243.609 343.227 196.509 388.027 149.309 432.927C144.409 437.627 136.809 440.927 126.709 442.327C93.5093 446.927 45.8093 429.227 20.0093 402.827L32.1093 238.227C83.6093 291.027 179.209 326.427 245.509 317.227C265.809 314.427 281.009 307.827 290.809 298.427Z" fill="white"/>
</mask>
<g mask="url(#mask14_201_619)">
<path d="M115.709 443.527C83.6093 443.527 42.7093 426.827 19.7093 403.127L19.5093 402.927V402.727L31.7093 237.027L32.5093 237.827C83.9093 290.427 179.409 325.827 245.509 316.627L246.909 316.427L127.009 442.827H126.809C123.209 443.327 119.509 443.527 115.709 443.527ZM20.5093 402.627C46.1093 428.727 93.5093 446.327 126.409 441.827L244.209 317.927C178.209 326.427 83.9093 291.427 32.5093 239.427L20.5093 402.627Z" fill="white"/>
<path d="M95.2431 284.163L51.2573 425.679L52.2122 425.976L96.198 284.46L95.2431 284.163Z" fill="white"/>
<path d="M90.5094 440.327L89.6094 439.727L171.809 312.327L172.609 312.927L90.5094 440.327Z" fill="white"/>
<path d="M125.409 443.027L155.009 411.827C153.309 403.827 148.109 395.127 139.709 386.527L139.409 386.227L139.609 385.927L272.209 204.127L272.609 204.527C299.009 231.627 309.909 259.627 302.409 281.427C295.809 300.627 275.709 313.527 245.709 317.727L156.009 412.127C156.809 416.527 156.609 420.727 155.309 424.427C152.009 434.127 141.809 440.627 126.709 442.727L125.409 443.027ZM155.209 413.027L128.109 441.627C142.109 439.427 151.409 433.227 154.509 424.227C155.609 420.727 155.909 417.027 155.209 413.027ZM140.709 386.127C148.809 394.527 153.909 403.127 155.809 410.927L245.309 316.727H245.509C275.209 312.627 295.109 299.927 301.609 281.027C308.909 259.727 298.309 232.327 272.409 205.627L140.709 386.127Z" fill="white"/>
</g>
<mask id="mask15_201_619" style="mask-type:luminance" maskUnits="userSpaceOnUse" x="20" y="238" width="271" height="206">
<path d="M290.809 298.427C243.609 343.227 196.509 388.027 149.309 432.927C144.409 437.627 136.809 440.927 126.709 442.327C93.5093 446.927 45.8093 429.227 20.0093 402.827L32.1093 238.227C83.6093 291.027 179.209 326.427 245.509 317.227C265.809 314.427 281.009 307.827 290.809 298.427Z" fill="white"/>
</mask>
<g mask="url(#mask15_201_619)">
<path d="M115.709 443.527C83.6093 443.527 42.7093 426.827 19.7093 403.127L19.5093 402.927V402.727L31.7093 237.027L32.5093 237.827C83.9093 290.427 179.409 325.827 245.509 316.627C264.909 313.927 280.509 307.427 290.509 297.927L291.209 298.627L149.709 433.327C144.609 438.227 136.709 441.527 126.809 442.827C123.209 443.327 119.509 443.527 115.709 443.527ZM20.5093 402.627C46.2093 428.827 93.7093 446.327 126.609 441.827C136.309 440.527 144.009 437.327 149.009 432.527L283.109 305.027C273.409 311.327 260.609 315.627 245.609 317.727C179.609 326.927 84.3093 291.827 32.5093 239.427L20.5093 402.627Z" fill="white"/>
</g>
<mask id="mask16_201_619" style="mask-type:luminance" maskUnits="userSpaceOnUse" x="0" y="177" width="33" height="226">
<path d="M4.00889 372.227C2.70889 307.227 1.40889 242.127 0.108887 177.127C0.508887 195.327 10.9089 216.627 32.1089 238.327L20.0089 402.927C9.40889 392.027 4.20889 381.327 4.00889 372.227Z" fill="white"/>
</mask>
<g mask="url(#mask16_201_619)">
<path d="M20.4091 404.027L19.6091 403.227C6.30911 389.627 0.909108 375.527 4.60911 364.527C7.10911 357.127 13.7091 351.527 23.4091 348.427L31.5091 238.527C5.20911 211.527 -5.5909 183.527 1.8091 161.827C8.4091 142.627 28.6091 129.727 58.7091 125.527L59.3091 125.427L33.7091 347.227L33.3091 347.327C30.1091 347.827 27.1091 348.427 24.3091 349.227L20.4091 404.027ZM23.4091 349.427C14.2091 352.527 8.00911 357.827 5.60911 364.827C2.00911 375.227 7.10911 388.627 19.6091 401.727L23.4091 349.427ZM58.3091 126.527C29.0091 130.727 9.3091 143.327 2.9091 162.127C-4.3909 183.527 6.40911 211.127 32.5091 237.927L32.7091 238.127L24.6091 348.127C27.2091 347.327 30.0091 346.727 33.0091 346.327L58.3091 126.527Z" fill="white"/>
<path d="M1.88711 187.743L0.887207 187.76L4.14126 377.641L5.14116 377.624L1.88711 187.743Z" fill="white"/>
</g>
<mask id="mask17_201_619" style="mask-type:luminance" maskUnits="userSpaceOnUse" x="0" y="177" width="33" height="226">
<path d="M4.00889 372.227C2.70889 307.227 1.40889 242.127 0.108887 177.127C0.508887 195.327 10.9089 216.627 32.1089 238.327L20.0089 402.927C9.40889 392.027 4.20889 381.327 4.00889 372.227Z" fill="white"/>
</mask>
<g mask="url(#mask17_201_619)">
<path d="M20.4089 404.028L19.6089 403.228C9.20889 392.628 3.70889 381.928 3.50889 372.328L-0.391113 177.228H0.608887C1.00889 196.028 12.0089 217.128 32.5089 238.028L32.7089 238.228V238.428L20.4089 404.028ZM4.50889 372.228C4.70889 381.328 9.90889 391.528 19.6089 401.628L31.6089 238.428C14.7089 221.028 4.20888 203.628 0.808884 187.428L4.50889 372.228Z" fill="white"/>
</g>
<mask id="mask18_201_619" style="mask-type:luminance" maskUnits="userSpaceOnUse" x="13" y="0" width="292" height="267">
<path d="M304.309 266.127C303.909 247.927 293.509 226.627 272.309 204.927C220.809 152.127 125.209 116.727 58.9089 125.927C38.7089 128.727 23.5089 135.327 13.6089 144.727C17.8089 140.727 23.5089 135.327 27.7089 131.327C29.8089 129.327 32.7089 126.627 34.8089 124.627C39.0089 120.627 44.7089 115.227 48.9089 111.227C60.7089 100.027 72.5089 88.8273 84.3089 77.6273C88.5089 73.6273 94.2089 68.2273 98.4089 64.2273C100.509 62.2273 103.409 59.5273 105.509 57.5273C109.709 53.5273 115.409 48.1273 119.609 44.1273C123.809 40.1273 129.509 34.7273 133.709 30.7273C135.809 28.7273 138.709 26.0273 140.809 24.0273C145.009 20.0273 150.709 14.6273 154.909 10.6273C159.809 5.92733 167.409 2.62733 177.509 1.22733C210.709 -3.37267 258.409 14.3273 284.209 40.7273C294.809 51.6273 300.009 62.2273 300.209 71.3273C301.709 136.027 303.009 201.027 304.309 266.127Z" fill="white"/>
</mask>
<g mask="url(#mask18_201_619)">
<path d="M245.009 317.827L245.109 317.227L270.609 96.1273L271.009 96.0273C274.209 95.5273 277.209 94.9273 280.009 94.1273L284.009 39.2273L284.809 40.0273C298.109 53.6273 303.509 67.7273 299.809 78.7273C297.309 86.1273 290.709 91.7273 281.009 94.8273L272.909 204.727C299.209 231.727 310.009 259.727 302.609 281.427C296.009 300.627 275.809 313.527 245.709 317.727L245.009 317.827ZM271.509 97.0273L246.109 316.727C275.409 312.527 295.109 299.927 301.509 281.127C308.809 259.727 298.009 232.127 271.909 205.327L271.709 205.127L279.809 95.2273C277.309 95.9273 274.509 96.5273 271.509 97.0273ZM284.809 41.5273L281.009 93.7273C290.209 90.6273 296.409 85.3273 298.809 78.3273C302.309 68.0273 297.209 54.6273 284.809 41.5273Z" fill="white"/>
<path d="M300.298 65.6367L299.298 65.6538L302.556 255.535L303.556 255.518L300.298 65.6367Z" fill="white"/>
<path d="M272.709 206.127L271.909 205.327C220.509 152.727 125.009 117.327 58.9088 126.527L57.5088 126.727L177.409 0.427303H177.609C210.809 -4.1727 258.909 13.6273 284.709 40.0273L284.909 40.2273V40.4273L272.709 206.127ZM80.9088 124.027C144.709 124.027 225.709 157.027 271.909 203.827L283.909 40.6273C258.309 14.5273 210.909 -3.0727 178.009 1.4273L60.2088 125.327C66.8088 124.427 73.8088 124.027 80.9088 124.027Z" fill="white"/>
<path d="M252.179 17.2738L208.193 158.79L209.148 159.087L253.134 17.5706L252.179 17.2738Z" fill="white"/>
<path d="M132.609 130.927L131.809 130.327L213.909 2.92725L214.809 3.52725L132.609 130.927Z" fill="white"/>
<path d="M32.2089 239.027L31.8089 238.627C5.40888 211.527 -5.49112 183.527 2.00888 161.727C8.60888 142.527 28.7089 129.627 58.7089 125.427L148.409 31.0273C147.609 26.6273 147.809 22.4273 149.109 18.7273C152.409 9.02729 162.609 2.52729 177.709 0.427294L179.109 0.227295L149.509 31.4273C151.209 39.4273 156.409 48.1273 164.809 56.7273L165.109 57.0273L164.909 57.3273L32.2089 239.027ZM148.609 32.2273L59.1089 126.427H58.9089C29.2089 130.527 9.30887 143.227 2.80887 162.127C-4.49113 183.427 6.10888 210.827 32.0089 237.527L163.709 57.1273C155.509 48.7273 150.409 40.1273 148.609 32.2273ZM176.309 1.62729C162.309 3.82729 153.009 10.0273 149.909 19.0273C148.709 22.4273 148.509 26.2273 149.209 30.1273L176.309 1.62729Z" fill="white"/>
</g>
<mask id="mask19_201_619" style="mask-type:luminance" maskUnits="userSpaceOnUse" x="13" y="0" width="292" height="267">
<path d="M304.309 266.127C303.909 247.927 293.509 226.627 272.309 204.927C220.809 152.127 125.209 116.727 58.9089 125.927C38.7089 128.727 23.5089 135.327 13.6089 144.727C17.8089 140.727 23.5089 135.327 27.7089 131.327C29.8089 129.327 32.7089 126.627 34.8089 124.627C39.0089 120.627 44.7089 115.227 48.9089 111.227C60.7089 100.027 72.5089 88.8273 84.3089 77.6273C88.5089 73.6273 94.2089 68.2273 98.4089 64.2273C100.509 62.2273 103.409 59.5273 105.509 57.5273C109.709 53.5273 115.409 48.1273 119.609 44.1273C123.809 40.1273 129.509 34.7273 133.709 30.7273C135.809 28.7273 138.709 26.0273 140.809 24.0273C145.009 20.0273 150.709 14.6273 154.909 10.6273C159.809 5.92733 167.409 2.62733 177.509 1.22733C210.709 -3.37267 258.409 14.3273 284.209 40.7273C294.809 51.6273 300.009 62.2273 300.209 71.3273C301.709 136.027 303.009 201.027 304.309 266.127Z" fill="white"/>
</mask>
<g mask="url(#mask19_201_619)">
<path d="M303.809 266.127C303.409 247.327 292.409 226.227 271.909 205.327C220.509 152.727 125.009 117.327 58.909 126.527C39.509 129.227 23.909 135.727 13.909 145.227L13.209 144.527L154.709 9.9273C159.809 5.0273 167.709 1.7273 177.609 0.427303C210.809 -4.1727 258.909 13.6273 284.709 40.0273C295.109 50.6273 300.609 61.3273 300.809 70.9273L304.709 266.027L303.809 266.127ZM80.909 124.027C145.109 124.027 226.609 157.427 272.609 204.627C289.609 222.027 300.109 239.527 303.509 255.827L299.809 71.0273C299.609 61.7273 294.109 51.2273 283.909 40.8273C258.309 14.5273 210.609 -3.0727 177.609 1.5273C167.909 2.8273 160.209 6.0273 155.209 10.8273L21.309 138.127C31.009 131.827 43.809 127.527 58.809 125.427C65.909 124.527 73.309 124.027 80.909 124.027Z" fill="white"/>
</g>
<mask id="mask20_201_619" style="mask-type:luminance" maskUnits="userSpaceOnUse" x="32" y="57" width="273" height="262">
<path d="M300.409 71.0273C301.709 136.027 303.009 201.127 304.309 266.127C304.809 292.227 284.609 311.827 245.509 317.327C179.209 326.527 83.6089 291.127 32.1089 238.327L164.309 57.0273C190.109 83.4273 237.809 101.127 271.009 96.5273C290.509 93.8273 300.709 84.0273 300.409 71.0273Z" fill="white"/>
</mask>
<g mask="url(#mask20_201_619)">
<path d="M223.509 319.227C159.309 319.227 77.8088 285.827 31.8088 238.627L31.5088 238.327L31.7088 238.027L164.309 56.3274L164.709 56.7274C190.309 83.0274 238.009 100.627 271.009 96.0274L271.609 95.9274L271.509 96.5274L246.009 317.627L245.609 317.727C238.509 318.727 231.109 319.227 223.509 319.227ZM32.8088 238.227C84.1088 290.627 179.209 325.827 245.109 316.827L270.509 97.1274C237.509 101.427 190.209 83.9274 164.409 57.8274L32.8088 238.227Z" fill="white"/>
<path d="M195.614 79.9029L95.1743 284.128L96.0716 284.57L196.511 80.3442L195.614 79.9029Z" fill="white"/>
<path d="M233.808 94.0747L171.719 312.522L172.681 312.796L234.77 94.3481L233.808 94.0747Z" fill="white"/>
<path d="M245.009 317.827L245.109 317.227L270.609 96.1273L271.009 96.0273C274.209 95.5273 277.209 94.9273 280.009 94.1273L284.009 39.2273L284.809 40.0273C298.109 53.6273 303.509 67.7273 299.809 78.7273C297.309 86.1273 290.709 91.7273 281.009 94.8273L272.909 204.727C299.209 231.727 310.009 259.727 302.609 281.427C296.009 300.627 275.809 313.527 245.709 317.727L245.009 317.827ZM271.509 97.0273L246.109 316.727C275.409 312.527 295.109 299.927 301.509 281.127C308.809 259.727 298.009 232.127 271.909 205.327L271.709 205.127L279.809 95.2273C277.309 95.9273 274.509 96.5273 271.509 97.0273ZM284.809 41.5273L281.009 93.7273C290.209 90.6273 296.409 85.3273 298.809 78.3273C302.309 68.0273 297.209 54.6273 284.809 41.5273Z" fill="white"/>
<path d="M294.521 85.7751L292.881 295.775L293.881 295.783L295.521 85.783L294.521 85.7751Z" fill="white"/>
</g>
<mask id="mask21_201_619" style="mask-type:luminance" maskUnits="userSpaceOnUse" x="32" y="57" width="273" height="262">
<path d="M300.409 71.0273C301.709 136.027 303.009 201.127 304.309 266.127C304.809 292.227 284.609 311.827 245.509 317.327C179.209 326.527 83.6089 291.127 32.1089 238.327L164.309 57.0273C190.109 83.4273 237.809 101.127 271.009 96.5273C290.509 93.8273 300.709 84.0273 300.409 71.0273Z" fill="white"/>
</mask>
<g mask="url(#mask21_201_619)">
<path d="M223.509 319.227C159.309 319.227 77.8088 285.827 31.8088 238.627L31.5088 238.327L31.7088 238.027L164.309 56.3274L164.709 56.7274C187.609 80.2274 228.109 96.8274 260.009 96.8274C263.809 96.8274 267.509 96.6274 271.009 96.1274C289.709 93.5274 300.209 84.4274 299.909 71.0274H300.909L304.809 266.127C305.109 279.327 300.009 290.927 290.109 299.827C279.809 309.127 264.809 315.127 245.609 317.827C238.509 318.727 231.109 319.227 223.509 319.227ZM32.8088 238.227C78.7088 285.127 159.709 318.227 223.509 318.227C231.109 318.227 238.509 317.727 245.509 316.827C283.109 311.627 304.409 293.127 303.809 266.127L300.009 77.8274C297.109 87.9274 286.909 94.8274 271.109 97.0274C238.009 101.627 190.309 84.0274 164.409 57.8274L32.8088 238.227Z" fill="white"/>
</g>
<mask id="mask22_201_619" style="mask-type:luminance" maskUnits="userSpaceOnUse" x="0" y="10" width="165" height="229">
<path d="M13.6091 144.827C17.8091 140.827 23.5091 135.427 27.7091 131.427C29.8091 129.427 32.7091 126.727 34.8091 124.727C39.0091 120.727 44.7091 115.327 48.9091 111.327C60.7091 100.127 72.5091 88.9273 84.3091 77.7273C88.5091 73.7273 94.2091 68.3273 98.4091 64.3273C100.509 62.3273 103.409 59.6273 105.509 57.6273C109.709 53.6273 115.409 48.2273 119.609 44.2273C123.809 40.2273 129.509 34.8273 133.709 30.8273C135.809 28.8273 138.709 26.1273 140.809 24.1273C145.009 20.1273 150.709 14.7273 154.909 10.7273C143.709 21.4273 146.309 39.1273 164.209 57.5273L32.1091 238.327C-3.69087 201.627 -8.89087 166.127 13.6091 144.827Z" fill="white"/>
</mask>
<g mask="url(#mask22_201_619)">
<path d="M32.2094 239.027L31.8094 238.627C5.40937 211.527 -5.49063 183.527 2.00937 161.727C8.60937 142.527 28.7094 129.627 58.7094 125.427L148.409 31.0273C147.609 26.6273 147.809 22.4273 149.109 18.7273C152.409 9.02729 162.609 2.52729 177.709 0.427294L179.109 0.227295L149.509 31.4273C151.209 39.4273 156.409 48.1273 164.809 56.7273L165.109 57.0273L164.909 57.3273L32.2094 239.027ZM148.609 32.2273L59.1094 126.427H58.9094C29.2094 130.527 9.30936 143.227 2.80936 162.127C-4.49064 183.427 6.10937 210.827 32.0094 237.527L163.709 57.1273C155.509 48.7273 150.409 40.1273 148.609 32.2273ZM176.309 1.62729C162.309 3.82729 153.009 10.0273 149.909 19.0273C148.709 22.4273 148.509 26.2273 149.209 30.1273L176.309 1.62729Z" fill="white"/>
<path d="M153.414 11.2636L10.687 147.056L11.3763 147.78L154.103 11.9881L153.414 11.2636Z" fill="white"/>
<path d="M148.558 31.4284L0.994629 187.386L1.72103 188.074L149.284 32.1157L148.558 31.4284Z" fill="white"/>
</g>
<mask id="mask23_201_619" style="mask-type:luminance" maskUnits="userSpaceOnUse" x="0" y="10" width="165" height="229">
<path d="M13.6091 144.827C17.8091 140.827 23.5091 135.427 27.7091 131.427C29.8091 129.427 32.7091 126.727 34.8091 124.727C39.0091 120.727 44.7091 115.327 48.9091 111.327C60.7091 100.127 72.5091 88.9273 84.3091 77.7273C88.5091 73.7273 94.2091 68.3273 98.4091 64.3273C100.509 62.3273 103.409 59.6273 105.509 57.6273C109.709 53.6273 115.409 48.2273 119.609 44.2273C123.809 40.2273 129.509 34.8273 133.709 30.8273C135.809 28.8273 138.709 26.1273 140.809 24.1273C145.009 20.1273 150.709 14.7273 154.909 10.7273C143.709 21.4273 146.309 39.1273 164.209 57.5273L32.1091 238.327C-3.69087 201.627 -8.89087 166.127 13.6091 144.827Z" fill="white"/>
</mask>
<g mask="url(#mask23_201_619)">
<path d="M32.2092 239.027L31.8092 238.627C10.4092 216.727 -0.690828 194.727 -0.290828 175.227C-0.0908284 163.327 4.60917 152.727 13.3092 144.427L154.709 9.92725L155.409 10.6272C151.109 14.6272 148.909 19.7272 148.809 25.5272C148.609 34.9272 154.309 46.0272 164.709 56.7272L165.009 57.0272L164.809 57.3272L32.2092 239.027ZM150.509 15.3272L13.9092 145.127C5.30917 153.327 0.809173 163.427 0.609173 175.227C0.209173 194.427 11.1092 215.927 32.0092 237.527L163.709 57.1272C153.109 46.2272 147.709 35.3272 147.909 25.5272C147.909 21.8272 148.809 18.4272 150.509 15.3272Z" fill="white"/>
</g>
</svg>
