<svg width="422" height="422" viewBox="0 0 422 422" fill="none" xmlns="http://www.w3.org/2000/svg">
<path d="M216.3 421.032C198.1 421.032 177.6 410.432 171.5 386.132L166.3 365.232C163.2 352.832 155 342.332 143.7 336.332C132.4 330.332 119.1 329.432 107.1 333.732L86.9 341.032C81.2 343.132 75.7 344.032 70.5 344.032C53.5 344.032 39.5 334.232 32 322.132C22.2 306.332 20.5 282.432 39 264.532L54.5 249.532C63.7 240.632 68.7 228.232 68.2 215.532C67.8 202.832 61.9 190.732 52.1 182.532L35.6 168.632C15.9 152.032 15.8 128.032 24.6 111.632C33.3 95.2324 53.2 81.8324 78 88.9324L98.7 94.8324C111 98.3324 124.2 96.4324 135 89.7324C145.8 82.9324 153.3 71.9324 155.5 59.3324L159.3 38.1324C163.8 12.7324 184.6 0.732431 203.1 0.0324306C221.7 -0.667569 243.2 9.93243 249.5 34.9324L254.7 55.8324C257.8 68.2324 266 78.7324 277.3 84.7324C288.6 90.7324 301.9 91.6324 313.9 87.3324L334.1 80.0324C358.3 71.2324 379.1 83.2324 389 98.9324C398.8 114.732 400.5 138.632 382 156.532L366.5 171.532C357.3 180.432 352.3 192.832 352.8 205.532C353.3 218.232 359.1 230.332 368.9 238.532L385.4 252.432C405.1 269.032 405.2 293.032 396.4 309.432C387.7 325.832 367.8 339.232 343 332.132L322.3 326.232C310 322.732 296.8 324.632 286 331.332C275.2 338.032 267.7 349.132 265.5 361.732L261.7 382.932C257.2 408.332 236.4 420.332 217.9 421.032C217.4 421.032 216.9 421.032 216.3 421.032ZM122.5 330.032C130 330.032 137.5 331.832 144.2 335.432C155.7 341.532 164.1 352.332 167.3 364.932L172.5 385.832C178.6 410.332 199.7 420.632 217.9 419.932C236.1 419.332 256.4 407.532 260.8 382.732L264.6 361.532C266.9 348.732 274.5 337.332 285.6 330.432C296.7 323.532 310.2 321.632 322.7 325.232L343.4 331.132C367.7 338.032 387.1 324.932 395.7 308.932C404.2 292.932 404.2 269.432 384.9 253.132L368.4 239.232C358.4 230.832 352.4 218.532 352 205.532C351.6 192.532 356.7 179.832 366 170.732L381.5 155.732C399.6 138.132 398 114.732 388.4 99.3324C378.8 83.9324 358.4 72.2324 334.7 80.8324L314.5 88.1324C302.2 92.5324 288.6 91.6324 277.1 85.5324C265.6 79.4324 257.2 68.6324 254 56.0324L248.8 35.1324C242.7 10.6324 221.6 0.332431 203.4 1.03243C185.2 1.63243 164.9 13.4324 160.5 38.2324L156.6 59.4324C154.3 72.2324 146.7 83.6324 135.6 90.5324C124.5 97.4324 111 99.3324 98.5 95.7324L77.8 89.8324C53.5 82.9324 34.1 96.0324 25.5 112.032C17 128.132 17 151.532 36.3 167.832L52.8 181.732C62.8 190.132 68.8 202.432 69.2 215.432C69.7 228.432 64.5 241.132 55.2 250.232L39.7 265.232C21.6 282.832 23.2 306.232 32.8 321.632C42.4 337.032 62.8 348.732 86.5 340.132L106.7 332.832C111.9 330.932 117.2 330.032 122.5 330.032Z" fill="white"/>
<path d="M204.9 421.032C204.4 421.032 203.8 421.032 203.3 421.032C184.7 420.432 164 408.332 159.5 382.932L155.7 361.732C153.5 349.132 146 338.132 135.2 331.332C124.4 324.532 111.1 322.732 98.9 326.232L78.2 332.132C53.4 339.232 33.5 325.832 24.8 309.432C16.1 293.032 16.1 269.032 35.8 252.432L52.1 238.532C61.9 230.332 67.7 218.332 68.2 205.532C68.6 192.832 63.6 180.432 54.5 171.532L39 156.532C20.5 138.632 22.1 114.632 32 98.9324C41.8 83.1324 62.6 71.2324 86.9 80.0324L107.1 87.3324C119.1 91.6324 132.4 90.7324 143.7 84.7324C155 78.7324 163.2 68.2324 166.3 55.8324L171.5 34.9324C177.8 9.93243 199.3 -0.667569 217.9 0.0324306C236.5 0.632431 257.2 12.7324 261.7 38.1324L265.5 59.3324C267.7 71.9324 275.2 82.9324 286 89.7324C296.8 96.5324 310.1 98.3324 322.3 94.8324L343 88.9324C367.8 81.8324 387.7 95.2324 396.4 111.632C405.1 128.032 405.1 152.032 385.4 168.632L369.1 182.532C359.3 190.732 353.5 202.732 353 215.532C352.5 228.332 357.6 240.632 366.7 249.532L382.2 264.532C400.7 282.432 399.1 306.432 389.2 322.132C379.4 337.932 358.6 349.832 334.3 341.032L314.1 333.732C302.1 329.432 288.8 330.332 277.5 336.332C266.2 342.332 258 352.832 254.9 365.232L249.7 386.132C243.5 410.432 223 421.032 204.9 421.032ZM111.1 323.532C119.7 323.532 128.2 325.932 135.6 330.532C146.7 337.432 154.3 348.732 156.6 361.632L160.4 382.832C164.8 407.632 185.1 419.432 203.3 420.032C221.5 420.732 242.5 410.332 248.7 385.932L253.9 365.032C257.1 352.432 265.5 341.632 277 335.532C288.5 329.432 302.1 328.432 314.4 332.932L334.6 340.232C358.3 348.832 378.7 337.132 388.3 321.732C397.9 306.332 399.5 282.932 381.4 265.332L365.9 250.332C356.5 241.232 351.4 228.632 351.9 215.532C352.4 202.432 358.3 190.232 368.3 181.832L384.8 167.932C404.1 151.732 404.1 128.232 395.6 112.132C387.1 96.1324 367.6 83.0324 343.3 89.9324L322.6 95.8324C310.1 99.4324 296.5 97.5324 285.5 90.6324C274.4 83.7324 266.8 72.4324 264.5 59.5324L260.7 38.3324C256.3 13.5324 236 1.73243 217.8 1.13243C199.6 0.432429 178.6 10.8324 172.4 35.2324L167.2 56.1324C164 68.7324 155.6 79.5324 144.1 85.6324C132.6 91.7324 119 92.7324 106.7 88.2324L86.5 80.9324C62.8 72.3324 42.4 84.0324 32.8 99.4324C23.2 114.832 21.6 138.232 39.7 155.832L55.2 170.832C64.6 179.932 69.7 192.532 69.2 205.632C68.7 218.632 62.8 230.932 52.8 239.332L36.3 253.232C17 269.432 17 292.932 25.5 309.032C34 325.032 53.5 338.132 77.8 331.232L98.5 325.332C102.6 324.132 106.9 323.532 111.1 323.532Z" fill="white"/>
<path d="M193.5 420.232C191.8 420.232 190.2 420.132 188.6 419.932C170.1 418.032 150.3 404.532 147.5 378.932L145.2 357.532C143.8 344.832 137.2 333.232 126.8 325.732C116.5 318.232 103.4 315.432 90.9 318.032L69.8 322.432C44.6 327.732 25.6 313.032 18.1 296.032C10.5 279.032 12.2 255.132 33.1 239.932L50.6 227.432C60.9 219.932 67.6 208.332 68.9 195.632C70.2 182.932 66.1 170.232 57.6 160.732L43.2 144.732C26 125.532 29.3 101.832 40.2 86.7323C51.1 71.7323 72.7 61.2323 96.3 71.6323L116 80.3323C127.7 85.5323 141 85.5323 152.7 80.3323C164.4 75.1323 173.3 65.2323 177.3 53.1323L184 32.6323C192 8.13229 214.2 -0.867705 232.7 1.0323C251.2 2.9323 271 16.4323 273.8 42.0323L276.1 63.4323C277.5 76.1323 284.1 87.7323 294.5 95.2323C304.8 102.732 317.9 105.532 330.4 102.932L351.5 98.5323C376.7 93.2323 395.7 107.932 403.2 124.932C410.7 141.932 409.1 165.832 388.2 181.032L370.6 193.632C360.3 201.132 353.6 212.732 352.3 225.432C351 238.132 355.1 250.832 363.6 260.332L378 276.332C395.2 295.532 391.9 319.232 381 334.332C370.1 349.332 348.5 359.832 324.9 349.432L305.2 340.732C293.5 335.532 280.2 335.532 268.5 340.732C256.8 345.932 247.9 355.832 243.9 367.932L237.2 388.432C230 410.832 210.8 420.232 193.5 420.232ZM100.3 316.232C110 316.232 119.5 319.232 127.5 325.032C138 332.732 144.9 344.532 146.3 357.532L148.6 378.932C151.3 404.032 170.7 417.132 188.8 419.032C206.9 420.932 228.6 412.132 236.5 388.132L243.2 367.632C247.2 355.232 256.4 345.132 268.3 339.832C280.2 334.532 293.9 334.532 305.8 339.832L325.5 348.532C348.6 358.732 369.7 348.532 380.4 333.832C391.1 319.132 394.3 295.932 377.5 277.132L363.1 261.132C354.4 251.432 350.2 238.432 351.5 225.432C352.9 212.432 359.7 200.632 370.2 192.932L387.6 180.232C408 165.332 409.7 141.932 402.3 125.332C394.9 108.732 376.4 94.3323 351.7 99.5323L330.6 103.932C317.8 106.632 304.5 103.732 293.9 96.1323C283.4 88.4323 276.5 76.6323 275.1 63.6323L272.8 42.2323C270.1 17.1323 250.7 4.03229 232.6 2.13229C214.5 0.232294 192.8 9.0323 184.9 33.0323L178.2 53.5323C174.2 65.9323 165 76.0323 153.1 81.3323C141.2 86.6323 127.5 86.6323 115.6 81.3323L95.9 72.6323C72.8 62.4323 51.7 72.6323 41 87.3323C30.3 102.032 27.1 125.232 43.9 144.032L58.3 160.032C67 169.732 71.2 182.732 69.9 195.732C68.5 208.732 61.7 220.532 51.2 228.232L33.8 240.932C13.4 255.832 11.7 279.232 19.1 295.832C26.5 312.432 45 326.832 69.7 321.632L90.8 317.232C93.9 316.532 97.1 316.232 100.3 316.232Z" fill="white"/>
<path d="M182.2 418.633C179.4 418.633 176.6 418.433 174 417.933C155.7 414.733 136.8 399.933 135.9 374.133L135.1 352.633C134.6 339.933 128.8 327.833 119 319.633C109.2 311.433 96.4 307.733 83.7 309.533L62.4 312.533C60 312.833 57.6 313.033 55.3 313.033C33.5 313.033 18.4 298.433 12.6 282.633C6.19997 265.133 9.59997 241.433 31.5 227.733L49.7 216.333C60.5 209.533 68 198.433 70.2 185.933C72.4 173.433 69.2 160.433 61.4 150.333L48.2 133.333C32.4 113.033 37.3 89.5325 49.3 75.3325C61.2 61.1325 83.5 52.1325 106.3 64.2325L125.3 74.3325C136.6 80.3325 149.9 81.2325 161.9 76.8325C173.9 72.4325 183.5 63.2325 188.3 51.3325L196.4 31.3325C206.1 7.43252 228.9 0.0325179 247.2 3.23252C265.5 6.43252 284.4 21.2325 285.3 47.0325L286.1 68.5325C286.6 81.2325 292.4 93.3325 302.2 101.533C312 109.733 324.8 113.433 337.5 111.633L358.8 108.633C384.3 105.133 402.2 121.133 408.5 138.533C414.9 156.033 411.5 179.733 389.6 193.433L371.4 204.833C360.6 211.633 353.1 222.733 350.9 235.233C348.7 247.833 351.9 260.733 359.7 270.833L372.9 287.833C388.7 308.133 383.8 331.633 371.8 345.833C359.9 360.033 337.6 369.033 314.8 356.933L295.8 346.833C284.5 340.833 271.2 339.933 259.2 344.333C247.2 348.733 237.6 357.933 232.8 369.833L224.7 389.833C216.5 410.233 198.7 418.633 182.2 418.633ZM90 308.133C100.8 308.133 111.3 311.933 119.7 318.933C129.7 327.333 135.7 339.633 136.2 352.633L137 374.133C137.9 399.333 156.4 413.833 174.3 416.933C192.2 420.133 214.5 412.833 224 389.433L232.1 369.433C237 357.333 246.8 347.833 259.1 343.433C271.4 338.933 285 339.933 296.5 346.033L315.5 356.133C337.8 367.933 359.6 359.133 371.2 345.233C382.8 331.333 387.7 308.333 372.2 288.433L359 271.433C351 261.133 347.7 247.933 350 235.033C352.3 222.133 359.9 210.833 370.9 203.933L389.1 192.533C410.5 179.133 413.8 155.933 407.5 138.833C401.3 121.733 383.8 106.033 358.8 109.533L337.5 112.533C324.6 114.333 311.5 110.533 301.5 102.133C291.5 93.7325 285.5 81.4325 285 68.4325L284.2 46.9325C283.3 21.7325 264.8 7.23252 246.9 4.13252C229 0.932516 206.7 8.23252 197.2 31.6325L189.1 51.6325C184.2 63.7325 174.4 73.2325 162.1 77.6325C149.9 82.1325 136.2 81.1325 124.7 75.0325L105.7 64.9325C83.4 53.1325 61.6 61.9325 50 75.8325C38.3 89.7325 33.5 112.733 49 132.633L62.2 149.633C70.2 159.933 73.5 173.133 71.2 186.033C68.9 198.933 61.3 210.233 50.3 217.133L32.1 228.533C10.7 241.933 7.39996 265.133 13.7 282.233C19.9 299.333 37.4 315.033 62.4 311.533L83.7 308.533C85.7 308.233 87.8 308.133 90 308.133Z" fill="white"/>
<path d="M171.2 416.332C167.2 416.332 163.4 415.832 159.7 414.932C141.7 410.432 123.9 394.332 124.7 368.632L125.4 347.132C125.8 334.432 120.8 322.032 111.6 313.132C102.4 304.232 89.9 299.632 77.1 300.532L55.6 302.032C29.9 303.732 13.2 286.532 8.09995 268.732C2.99996 250.832 7.99995 227.432 30.7 215.232L49.7 205.132C61 199.132 69.2 188.632 72.2999 176.232C75.3999 163.832 73.1 150.732 66 140.132L54 122.232C39.6 100.832 46.2 77.7325 59.1 64.4324C72 51.0324 94.8 43.6325 116.7 57.3325L135 68.7324C145.8 75.4324 159.1 77.3325 171.3 73.8325C183.6 70.3325 193.8 61.7324 199.4 50.2324L208.9 30.9324C220.2 7.73245 243.5 1.93245 261.5 6.43245C279.5 10.9324 297.3 27.0324 296.5 52.7324L295.8 74.2324C295.4 86.9324 300.4 99.3324 309.6 108.232C318.8 117.132 331.3 121.632 344.1 120.832L365.6 119.332C391.3 117.632 408 134.832 413.1 152.632C418.2 170.532 413.2 193.932 390.5 206.132L371.5 216.232C360.2 222.232 352 232.732 348.9 245.132C345.8 257.532 348.1 270.632 355.2 281.232L367.2 299.132C381.6 320.532 375 343.632 362.1 356.932C349.2 370.332 326.4 377.732 304.5 364.032L286.2 352.532C275.4 345.832 262.1 343.932 249.9 347.432C237.6 350.932 227.4 359.532 221.8 371.032L212.3 390.332C203.3 408.832 186.7 416.332 171.2 416.332ZM80.2 299.332C92.1 299.332 103.7 303.932 112.3 312.332C121.7 321.432 126.8 334.032 126.4 347.132L125.7 368.632C124.9 393.832 142.3 409.532 159.9 413.932C177.5 418.332 200.3 412.632 211.4 389.932L220.9 370.632C226.6 358.932 237.1 350.132 249.6 346.532C262.1 342.932 275.7 344.832 286.7 351.732L305 363.132C326.4 376.432 348.7 369.232 361.4 356.132C374 343.032 380.5 320.532 366.4 299.532L354.4 281.632C347.1 270.832 344.8 257.332 347.9 244.732C351.1 232.132 359.5 221.332 371 215.132L390 205.032C412.3 193.132 417.2 170.232 412.2 152.732C407.2 135.232 390.9 118.432 365.7 120.132L344.2 121.632C331.2 122.532 318.4 117.832 309 108.732C299.6 99.6324 294.5 87.0324 294.9 73.9324L295.6 52.4324C296.4 27.2324 279 11.5324 261.4 7.13244C243.8 2.73244 221 8.43244 209.9 31.1324L200.4 50.4324C194.7 62.1325 184.2 70.9324 171.7 74.5324C159.2 78.1324 145.6 76.2325 134.6 69.3325L116.3 57.9324C94.8999 44.6325 72.6 51.8325 59.9 64.9324C47.2 78.0324 40.8 100.532 54.9 121.532L66.9 139.432C74.2 150.232 76.5 163.732 73.4 176.332C70.2 188.932 61.8 199.732 50.3 205.932L31.3 216.032C8.99995 227.932 4.09995 250.832 9.09995 268.332C14.1 285.832 30.4 302.632 55.6 300.932L77.1 299.432C78.1 299.432 79.2 299.332 80.2 299.332Z" fill="white"/>
<path d="M160.3 413.132C155.2 413.132 150.2 412.332 145.5 410.832C127.8 405.132 111.2 387.832 113.8 362.132L116 340.732C117.3 328.032 113.2 315.332 104.6 305.832C96.1 296.332 83.9 290.932 71.1 290.932H49.6C23.8 290.932 8.39999 272.532 4.49999 254.332C0.599992 236.132 7.29999 213.132 30.8 202.632L50.5 193.832C62.1 188.632 71.1 178.732 75 166.532C78.9 154.332 77.6 141.132 71.2 130.032L60.5 111.332C47.6 88.9324 55.8 66.4324 69.6 54.0324C83.4 41.6324 106.7 35.8324 127.6 50.9324L145 63.5324C155.3 71.0324 168.4 73.8324 180.9 71.1324C193.4 68.4324 204.2 60.6324 210.6 49.6324L221.4 31.0324C234.3 8.73239 257.9 4.53239 275.6 10.2324C293.3 15.9324 309.9 33.2324 307.3 58.9324L305.1 80.3324C303.8 93.0324 307.9 105.732 316.5 115.232C325 124.732 337.2 130.132 350 130.132H371.5C397.3 130.132 412.7 148.532 416.6 166.732C420.5 184.932 413.8 207.932 390.3 218.432L370.6 227.232C359 232.432 350 242.332 346.1 254.532C342.2 266.632 343.5 279.932 349.9 291.032L360.6 309.732C373.5 332.132 365.3 354.632 351.5 367.032C337.7 379.432 314.4 385.232 293.5 370.132L276.1 357.532C265.8 350.032 252.7 347.332 240.2 349.932C227.7 352.632 216.9 360.432 210.5 371.432L199.7 390.032C190.2 406.532 174.8 413.132 160.3 413.132ZM100.8 42.9324C89.1 42.9324 78.2 47.8324 70.4 54.8324C56.9 67.0324 48.9 89.0324 61.5 110.932L72.2 129.632C78.7 140.932 80.1 154.532 76.1 166.932C72.1 179.332 62.9 189.532 51 194.832L31.3 203.532C8.29999 213.832 1.79999 236.332 5.59999 254.132C9.39999 271.932 24.5 289.832 49.7 289.932H71.2C84.2 289.932 96.7 295.532 105.4 305.232C114.1 314.932 118.4 327.932 117 340.832L114.8 362.232C112.2 387.332 128.5 404.232 145.8 409.832C163.1 415.432 186.2 411.332 198.8 389.532L209.6 370.932C216.1 359.632 227.2 351.632 239.9 348.932C252.6 346.232 266 349.032 276.6 356.732L294 369.332C314.4 384.132 337.2 378.432 350.7 366.332C364.2 354.132 372.2 332.132 359.6 310.232L349 291.532C342.5 280.232 341.1 266.632 345.1 254.232C349.1 241.832 358.3 231.632 370.2 226.332L389.9 217.532C412.9 207.232 419.4 184.732 415.6 166.932C411.8 149.132 396.7 131.232 371.5 131.132H350C337 131.132 324.5 125.532 315.8 115.832C307.1 106.132 302.8 93.1324 304.2 80.2324L306.4 58.8324C309 33.7324 292.7 16.8324 275.4 11.2324C258.1 5.63239 235 9.73239 222.4 31.5324L211.6 50.1324C205.1 61.4324 194 69.4324 181.3 72.1324C168.5 74.8324 155.2 72.0324 144.6 64.3324L127.2 51.7324C118.4 45.5324 109.4 42.9324 100.8 42.9324Z" fill="white"/>
<path d="M149.6 409.232C143.3 409.232 137.2 407.932 131.7 405.732C114.5 398.732 99.1 380.332 103.5 354.932L107.2 333.732C109.4 321.132 106.1 308.232 98.3 298.132C90.4 288.132 78.6 281.832 65.9 280.932L44.4 279.432C18.7 277.632 4.60002 258.232 2.00002 239.832C-0.599983 221.432 7.60002 198.932 31.9 190.032L52.1 182.632C64.1 178.232 73.7 168.932 78.5 157.132C83.3 145.332 82.8 131.932 77.2 120.432L67.8 101.032C56.6 77.9323 66.3 56.0323 80.9 44.5323C95.5 33.1323 119.2 28.9323 138.9 45.5323L155.4 59.3323C165.2 67.5323 178 71.2323 190.7 69.4323C203.3 67.6323 214.7 60.5323 221.8 50.0323L233.9 32.2323C248.4 10.8323 272.2 8.33231 289.4 15.3323C306.6 22.3323 322 40.7323 317.6 66.1323L313.9 87.3323C311.7 99.9323 315 112.832 322.8 122.932C330.7 132.932 342.5 139.232 355.2 140.132L376.7 141.632C402.4 143.432 416.5 162.832 419.1 181.232C421.7 199.632 413.5 222.132 389.2 231.032L369 238.432C357 242.832 347.4 252.132 342.6 263.932C337.8 275.732 338.3 289.132 343.9 300.632L353.3 320.032C364.6 343.232 354.8 365.132 340.2 376.632C325.6 388.032 301.9 392.232 282.2 375.632L265.7 361.832C255.9 353.632 243.1 349.932 230.4 351.732C217.8 353.532 206.4 360.632 199.3 371.132L187.2 388.932C177.4 403.432 163.1 409.232 149.6 409.232ZM109.7 35.5323C99.1 35.5323 89.1 39.4323 81.5 45.3323C67.2 56.5323 57.7 77.9323 68.7 100.632L78.1 120.032C83.8 131.732 84.3 145.432 79.4 157.532C74.5 169.632 64.7 179.132 52.5 183.632L32.3 191.032C8.60001 199.732 0.600015 221.732 3.10001 239.732C5.60001 257.732 19.4 276.732 44.6 278.532L66.1 280.032C79.1 280.932 91.2 287.432 99.2 297.632C107.2 307.932 110.5 321.132 108.3 334.032L104.6 355.232C100.3 380.132 115.3 398.032 132.2 404.932C149.1 411.732 172.4 409.232 186.5 388.332L198.6 370.532C205.9 359.732 217.5 352.532 230.4 350.732C243.3 348.932 256.4 352.632 266.4 361.032L282.9 374.832C302.3 391.032 325.4 386.932 339.7 375.732C354 364.532 363.5 343.132 352.5 320.432L343.1 301.032C337.4 289.332 336.9 275.632 341.8 263.532C346.7 251.432 356.5 241.932 368.7 237.432L388.9 230.032C412.6 221.332 420.6 199.332 418.1 181.332C415.6 163.332 401.8 144.332 376.6 142.532L355.1 141.032C342.1 140.132 330 133.632 322 123.432C314 113.132 310.7 99.9323 312.9 87.0323L316.6 65.8323C320.9 40.9323 305.9 23.0323 289 16.1323C272.1 9.33231 248.8 11.8323 234.7 32.7323L222.6 50.5323C215.3 61.3323 203.7 68.5323 190.8 70.3323C177.9 72.1323 164.8 68.4323 154.8 60.0323L138.3 46.2323C129.2 38.6323 119.2 35.5323 109.7 35.5323Z" fill="white"/>
<path d="M139.1 404.632C131.7 404.632 124.4 402.832 118.2 399.832C101.5 391.732 87.4 372.232 93.6 347.232L98.8 326.332C101.9 313.932 99.5 300.832 92.4 290.232C85.3 279.632 73.9 272.532 61.3 270.732L40 267.732C14.5 264.132 1.70004 243.732 0.400039 225.232C-0.899961 206.732 8.90004 184.832 33.7 177.632L54.4 171.632C66.7 168.132 76.9 159.532 82.5 148.032C88.1 136.532 88.6 123.232 83.8 111.332L75.8 91.3324C66.2 67.4324 77.4 46.2324 92.8 35.8324C108.2 25.4324 132.1 22.9324 150.6 40.8324L166.1 55.7324C175.3 64.5324 187.8 69.1324 200.6 68.2324C213.3 67.3324 225.1 61.0324 233 51.0324L246.3 34.1324C262.2 13.8324 286.2 12.9324 302.9 21.1324C319.6 29.2324 333.7 48.7324 327.5 73.7324L322.3 94.6324C319.2 107.032 321.6 120.132 328.7 130.732C335.8 141.332 347.2 148.432 359.8 150.232L381.1 153.232C406.6 156.832 419.4 177.232 420.7 195.732C422 214.232 412.2 236.132 387.4 243.332L366.7 249.332C354.4 252.832 344.2 261.432 338.6 272.932C333 284.432 332.5 297.732 337.3 309.632L345.3 329.632C354.9 353.532 343.7 374.732 328.3 385.132C312.9 395.532 289 398.032 270.5 380.132L255 365.232C245.8 356.432 233.2 351.832 220.5 352.732C207.8 353.632 196 359.932 188.1 369.932L174.8 386.832C164.9 399.532 151.7 404.632 139.1 404.632ZM119.2 28.8324C109.7 28.8324 100.6 31.9324 93.4 36.7324C78.3 46.9324 67.3 67.6324 76.8 91.0324L84.8 111.032C89.7 123.132 89.2 136.832 83.5 148.532C77.8 160.232 67.3 169.032 54.8 172.632L34.1 178.632C9.90004 185.632 0.30004 207.032 1.60004 225.232C2.90004 243.332 15.3 263.232 40.3 266.832L61.6 269.832C74.5 271.632 86.1 278.932 93.4 289.732C100.7 300.532 103.1 314.032 99.9 326.632L94.7 347.532C88.6 372.032 102.4 391.032 118.7 399.032C135 407.032 158.5 406.132 174.1 386.332L187.4 369.432C195.4 359.132 207.5 352.732 220.5 351.832C233.5 350.932 246.3 355.632 255.7 364.632L271.2 379.532C289.4 397.032 312.7 394.632 327.8 384.432C342.9 374.232 353.9 353.532 344.5 330.132L336.5 310.132C331.6 298.032 332.1 284.332 337.8 272.632C343.5 260.932 354 252.132 366.5 248.532L387.2 242.532C411.4 235.532 421 214.132 419.7 195.932C418.4 177.732 406 157.932 381 154.332L359.7 151.332C346.8 149.532 335.2 142.232 327.9 131.432C320.6 120.632 318.2 107.132 321.4 94.5324L326.6 73.6324C332.7 49.1324 318.9 30.1324 302.6 22.1324C286.3 14.1324 262.8 15.0324 247.2 34.8324L233.9 51.7324C225.9 62.0324 213.8 68.4324 200.8 69.3324C187.8 70.2324 175 65.5324 165.6 56.5324L150.1 41.6324C140.5 32.5324 129.6 28.8324 119.2 28.8324Z" fill="white"/>
<path d="M292.2 399.333C280.6 399.333 268.5 394.933 258.5 383.933L244.1 367.933C235.6 358.433 223.3 353.033 210.6 353.033C197.8 353.033 185.6 358.433 177.1 367.933L162.7 383.933C145.4 403.033 121.4 402.233 105.4 392.933C89.3 383.633 76.6 363.333 84.6 338.733L91.2 318.233C95.1 306.133 93.7 292.833 87.3 281.733C80.9 270.733 70.1 262.833 57.6 260.133L36.5 255.633C11.3 250.233 0 229.033 0 210.533C0 191.933 11.3 170.833 36.5 165.433L57.6 160.933C70.1 158.233 80.9 150.433 87.3 139.333C93.7 128.233 95.1 115.033 91.2 102.833L84.6 82.3326C76.7 57.8326 89.4 37.4326 105.4 28.1326C121.5 18.8326 145.5 18.0326 162.7 37.1326L177.1 53.1326C185.6 62.6326 197.9 68.0326 210.6 68.0326C223.4 68.0326 235.6 62.6326 244.1 53.1326L258.5 37.1326C275.8 18.0326 299.8 18.8326 315.8 28.1326C331.9 37.4326 344.6 57.7326 336.6 82.3326L330 102.833C326.1 114.933 327.5 128.233 333.9 139.333C340.3 150.333 351.1 158.233 363.6 160.933L384.7 165.433C409.9 170.833 421.2 192.033 421.2 210.533C421.2 229.133 409.9 250.233 384.7 255.633L363.6 260.133C351.1 262.833 340.3 270.633 333.9 281.733C327.5 292.733 326.1 306.033 330 318.233L336.6 338.733C344.5 363.233 331.8 383.633 315.8 392.933C309.1 396.833 300.8 399.333 292.2 399.333ZM210.6 352.033C223.6 352.033 236.1 357.533 244.9 367.233L259.3 383.233C276.2 401.933 299.7 401.133 315.4 392.033C331.1 382.933 343.6 363.033 335.8 339.033L329.2 318.533C325.2 306.133 326.6 292.533 333.1 281.233C339.6 269.933 350.7 261.933 363.4 259.133L384.5 254.633C409.2 249.333 420.2 228.633 420.2 210.433C420.2 192.233 409.2 171.533 384.5 166.233L363.4 161.733C350.7 159.033 339.6 150.933 333.1 139.633C326.6 128.333 325.1 114.733 329.2 102.333L335.8 81.8326C343.6 57.8326 331.1 37.9326 315.4 28.8326C299.7 19.7326 276.2 18.9326 259.3 37.6326L244.9 53.6326C236.2 63.3326 223.7 68.8326 210.6 68.8326C197.6 68.8326 185.1 63.3326 176.3 53.6326L161.9 37.6326C145 18.9326 121.5 19.7326 105.8 28.8326C90.1 37.9326 77.6 57.8326 85.4 81.8326L92 102.333C96 114.733 94.6 128.333 88.1 139.633C81.6 150.933 70.5 158.933 57.8 161.733L36.7 166.233C12 171.533 1 192.233 1 210.433C1 228.633 12 249.333 36.7 254.633L57.8 259.133C70.5 261.833 81.6 269.933 88.1 281.233C94.6 292.533 96.1 306.133 92 318.533L85.4 339.033C77.6 363.033 90.1 382.933 105.8 392.033C121.5 401.133 145 401.933 161.9 383.233L176.3 367.233C185.1 357.533 197.6 352.033 210.6 352.033Z" fill="white"/>
</svg>
