<svg width="485" height="262" viewBox="0 0 485 262" fill="none" xmlns="http://www.w3.org/2000/svg">
<path d="M67.2 74.6L67 73.6C87 69.6 103.1 58.7 118.6 48.1C130.2 40.1 142.3 31.9 156 26.5C185.8 14.8 213.6 31.3 238.1 45.9C239.8 46.9 241.5 48 243.3 49L245.3 50.2C272.8 66.5 301.3 83.3 331.8 64.4C343.8 56.9 354.4 47.1 364.6 37.6C382 21.4 400.1 4.7 425.4 0L425.6 1C400.5 5.6 383.4 21.5 365.3 38.3C355 47.8 344.4 57.7 332.3 65.2C322.5 71.3 312.9 73.7 303.6 73.7C283.3 73.7 263.8 62.2 244.8 51L242.8 49.8C241.1 48.8 239.4 47.8 237.6 46.7C212.1 31.5 185.7 15.8 156.4 27.4C142.7 32.8 130.7 41 119.2 48.9C103.6 59.5 87.5 70.6 67.2 74.6Z" fill="white"/>
<path d="M65.0999 80.2998L64.8999 79.2998C84.7999 75.1998 101.4 64.7998 117.4 54.6998C129.3 47.1998 141.6 39.4998 155.4 34.2998C184.8 22.9998 211.4 37.7998 237.1 52.0998C239.1 53.1998 241.2 54.3998 243.2 55.4998L246.7 57.3998C273.9 72.3998 302 87.7998 332.1 69.9998C344.3 62.7998 355.3 53.4998 365.8 44.4998C383.7 29.2998 402.2 13.5998 427.1 8.2998L427.3 9.2998C402.7 14.5998 385.1 29.4998 366.5 45.2998C355.9 54.2998 344.9 63.5998 332.6 70.8998C302 88.9998 273.7 73.3998 246.2 58.2998L242.7 56.3998C240.7 55.2998 238.6 54.1998 236.6 52.9998C211.1 38.7998 184.7 24.1998 155.7 35.2998C142.1 40.4998 129.8 48.1998 117.9 55.6998C101.9 65.5998 85.1999 76.0998 65.0999 80.2998Z" fill="white"/>
<path d="M63 86.2001L62.8 85.2001C82.6 81.4001 99.9 72.1001 116.5 63.0001C128.7 56.4001 141.4 49.5001 155.1 44.8001C184.4 34.7001 211.3 47.9001 237.3 60.6001C239.3 61.6001 241.4 62.6001 243.4 63.6001L247.5 65.6001C275.9 79.4001 302.7 92.5001 332.5 76.7001C344.9 70.2001 356.2 61.8001 367.1 53.8001C385.6 40.2001 404.6 26.1001 428.9 21.1001L429.1 22.1001C405.1 27.1001 386.9 40.5001 367.7 54.7001C356.8 62.8001 345.4 71.1001 333 77.7001C302.7 93.7001 274.4 79.9001 247.1 66.6001L243 64.6001C241 63.6001 238.9 62.6001 236.9 61.6001C211.1 48.9001 184.4 35.8001 155.5 45.8001C141.9 50.5001 129.2 57.3001 117 64.0001C100.3 73.0001 83 82.4001 63 86.2001Z" fill="white"/>
<path d="M60.8001 92.3002L60.6001 91.3002C80.6001 88.2002 98.7001 80.2002 116.3 72.4002C127.9 67.3002 139.8 62.0002 152.3 58.1002C183.1 48.5002 210.3 59.5002 239.2 71.2002L243.7 73.0002C245.4 73.7002 247.1 74.4002 248.8 75.1002C275 85.7002 302 96.7002 330.2 85.3002C344 79.7002 356.7 72.0002 369.1 64.5002C388 53.1002 407.5 41.3002 430.8 37.2002L431 38.2002C407.9 42.2002 388.4 54.0002 369.6 65.4002C357.2 72.9002 344.5 80.6002 330.6 86.2002C302.1 97.8002 274.8 86.7002 248.5 76.0002C246.8 75.3002 245.1 74.6002 243.4 73.9002L238.9 72.1002C210.3 60.5002 183.2 49.5002 152.7 59.1002C140.3 63.0002 128.3 68.3002 116.8 73.4002C99.2001 81.1002 80.9001 89.2002 60.8001 92.3002Z" fill="white"/>
<path d="M58.6 98.6001L58.5 97.6001C78.5 95.4001 97.5 89.0001 115.8 82.8001C127.7 78.8001 139.9 74.7001 152.5 71.7001C183.7 64.2001 212 73.1001 241.9 82.6001L248.7 84.7001C275.3 93.1001 302.8 101.9 330.9 93.1001C344.7 88.8001 357.7 82.7001 370.4 76.9001C389.9 67.8001 410.2 58.5001 432.9 55.6001L433 56.6001C410.5 59.4001 390.3 68.8001 370.8 77.8001C358.1 83.7001 345 89.8001 331.2 94.1001C302.8 103 275.2 94.2001 248.4 85.7001L241.6 83.6001C211.8 74.2001 183.7 65.3001 152.8 72.8001C140.3 75.8001 128.1 79.9001 116.2 83.9001C97.8 89.9001 78.8 96.3001 58.6 98.6001Z" fill="white"/>
<path d="M56.4 104.9L56.3 103.9C76.5 102.6 96.3 98.0002 115.4 93.5002C127.5 90.7002 140 87.8002 152.6 85.7002C184.6 80.4002 215.1 87.3002 244.7 93.9002L247.7 94.6002C275 100.7 303.2 107.1 331.4 101C345.1 98.0002 358.5 93.7002 371.5 89.5002C391.7 83.0002 412.6 76.2002 434.8 74.7002L434.9 75.7002C412.8 77.3002 392 84.0002 371.8 90.5002C358.8 94.7002 345.4 99.0002 331.6 102C303.1 108.2 274.8 101.8 247.5 95.6002L244.5 94.9002C215.1 88.3002 184.6 81.5002 152.8 86.7002C140.3 88.8002 127.7 91.7002 115.7 94.5002C96.4001 99.0002 76.6 103.6 56.4 104.9Z" fill="white"/>
<path d="M54.2 111V110C74.7 109.1 95.1 105.9 114.9 102.8C127.2 100.9 139.9 98.8999 152.6 97.3999C185 93.7999 216.9 98.6999 245 103L248 103.5C275.4 107.7 303.7 112.1 331.8 108C345.5 106 359.1 103 372.3 100.1C393 95.5999 414.4 90.8999 436.2 89.8999V90.8999C414.4 91.8999 393.1 96.5999 372.4 101.1C359.2 104 345.5 107 331.8 109C303.5 113.2 275.1 108.8 247.7 104.5L244.7 104C216.6 99.6999 184.8 94.6999 152.5 98.3999C139.9 99.7999 127.1 101.8 114.8 103.8C95.2 106.9 74.7 110.1 54.2 111Z" fill="white"/>
<path d="M309 117C288.7 117 268.4 115.4 248.6 113.9L245.2 113.6C202.9 110.4 160.7 112.4 119.8 114.4C97.7 115.5 74.8 116.6 52 116.9V115.9C74.8 115.6 97.6 114.5 119.8 113.4C160.7 111.4 202.9 109.3 245.3 112.6L248.7 112.9C275.2 114.9 302.7 117 329.7 115.4C344.6 114.5 359.6 112.9 374.1 111.3C395.1 109 416.7 106.7 438.3 106.4V107.4C416.8 107.6 395.1 110 374.2 112.3C359.7 113.9 344.6 115.5 329.7 116.4C322.8 116.8 315.9 117 309 117Z" fill="white"/>
<path d="M85.5 123.1C73.6 123.1 61.6 123.1 49.7 123V122C110.3 122.2 171.8 121.8 231.4 121.4C300 120.9 370.9 120.5 440.6 121V122C370.9 121.5 300 122 231.5 122.4C183.6 122.8 134.4 123.1 85.5 123.1Z" fill="white"/>
<path d="M397.8 130.4C371.8 130.4 345.8 130.1 320.4 129.7C295.9 129.4 270.6 129 245.8 129C219.3 129 192.3 129.3 166.2 129.7C127.2 130.2 86.7999 130.7 47.2 130V129C86.7999 129.7 127.1 129.2 166.1 128.7C192.2 128.4 219.2 128 245.7 128C270.6 128 295.9 128.4 320.4 128.7C360.6 129.2 402.1 129.8 442.9 129V130C428 130.3 412.9 130.4 397.8 130.4Z" fill="white"/>
<path d="M49.0001 137.4C47.5001 137.4 46.1001 137.4 44.6001 137.4V136.4C67.7001 136.7 91.0001 134.7 113.5 132.7C126 131.6 139 130.5 151.8 129.8C174.3 128.5 197.4 128.8 219.7 129.1C229.1 129.2 238.9 129.3 248.4 129.3C258.3 129.3 268.4 129.2 278.2 129C298 128.7 318.5 128.5 338.6 129.3C353.6 129.9 368.7 131.3 383.3 132.7C403.6 134.6 424.5 136.6 445.4 136.3V137.3C424.5 137.6 403.5 135.6 383.2 133.7C368.6 132.3 353.5 130.9 338.6 130.3C318.6 129.5 298.1 129.8 278.3 130C268.5 130.1 258.4 130.3 248.5 130.3C238.9 130.3 229.2 130.2 219.8 130.1C197.5 129.8 174.5 129.6 152 130.8C139.2 131.5 126.3 132.6 113.7 133.7C92.5001 135.6 70.7001 137.4 49.0001 137.4Z" fill="white"/>
<path d="M42 144.6V143.6C66.2 143.2 90.2 139.1 113.5 135.2C126.5 133 140 130.8 153.4 129.1C177.5 126.2 202.5 126.6 226.7 127C234.9 127.1 243.4 127.3 251.7 127.3C251.8 127.3 252 127.3 252.1 127.3C260.9 127.3 269.9 127.1 278.6 126.9C299.9 126.5 321.9 126 343.1 128.1C358 129.6 372.8 132.5 387.1 135.3C406.7 139.2 427 143.2 447.6 143.5V144.5C426.8 144.2 406.5 140.2 386.9 136.3C372.6 133.5 357.8 130.6 342.9 129.1C321.7 127 299.8 127.4 278.5 127.9C269.8 128.1 260.8 128.3 252 128.3C243.6 128.3 235 128.2 226.6 128C202.4 127.6 177.5 127.2 153.4 130.1C140 131.7 126.6 134 113.5 136.2C90.4 140.1 66.3 144.2 42 144.6Z" fill="white"/>
<path d="M450 151.9C429.2 150.6 409.7 144.3 390.9 138.3C376.3 133.6 361.2 128.7 345.5 126.2C324.7 122.9 302.6 123.5 281.2 124C273.1 124.2 264.7 124.4 256.6 124.4H256.5C248.5 124.4 240.3 124.2 232.4 124C208 123.5 182.9 122.9 159 127.3C143.8 130.1 128.7 134 114 137.8C89.9 144 65 150.4 39.4 151.9L39.3 150.9C64.8 149.4 89.7001 143 113.7 136.8C128.4 133 143.5 129.1 158.8 126.3C182.8 121.9 208 122.5 232.4 123C240.3 123.2 248.5 123.4 256.5 123.4H256.6C264.7 123.4 273.1 123.2 281.2 123C302.6 122.4 324.7 121.8 345.6 125.2C361.3 127.7 376.5 132.6 391.1 137.4C409.9 143.5 429.3 149.7 449.9 151L450 151.9Z" fill="white"/>
<path d="M36.8 159.2L36.7 158.2C63.6 155.6 89.2 146.8 114 138.4C129.3 133.2 145 127.8 161 123.9C185.8 117.8 212.3 118.4 237.9 119C245.4 119.2 253.2 119.4 260.8 119.4C260.9 119.4 260.9 119.4 261 119.4C268.8 119.4 276.9 119.1 284.8 118.8C306.9 118 329.7 117.2 350.6 122.1C366.4 125.8 381 132.5 395.1 139.1C412.9 147.4 431.4 155.9 452.3 158.2L452.2 159.2C431.2 156.9 412.6 148.3 394.7 140.1C380.6 133.6 366.1 126.9 350.4 123.2C329.6 118.3 306.9 119.1 284.8 119.9C276.9 120.2 268.7 120.5 260.9 120.5C260.8 120.5 260.8 120.5 260.7 120.5C253.1 120.5 245.4 120.3 237.8 120.1C212.2 119.5 185.8 118.8 161.1 124.9C145.1 128.8 129.4 134.2 114.2 139.4C89.6 147.8 63.9 156.5 36.8 159.2Z" fill="white"/>
<path d="M34.2001 166.4L34.1001 165.4C62.6001 161.7 89.1001 150.7 114.8 140.1C129.3 134.1 144.4 127.8 159.7 123C186.7 114.4 215.7 115 243.7 115.6C250.7 115.8 257.9 115.9 265 115.9C265.1 115.9 265.1 115.9 265.2 115.9C272.7 115.9 280.4 115.6 288.5 115.2C312.3 114.2 337 113.2 358.3 120.4C373.1 125.4 386.2 133.4 398.9 141.1C415.8 151.4 433.3 162.1 454.8 165.4L454.6 166.4C432.9 163.1 415.3 152.4 398.3 142C385.7 134.3 372.7 126.3 357.9 121.4C336.8 114.2 312.2 115.3 288.5 116.3C280.3 116.6 272.6 117 264.9 117C257.8 117 250.6 116.8 243.6 116.7C215.7 116.1 186.8 115.5 159.9 124.1C144.6 129 129.6 135.2 115.1 141.2C89.4001 151.7 62.8001 162.7 34.2001 166.4Z" fill="white"/>
<path d="M31.5999 173.9L31.3999 172.9C61.1999 168.4 88.3999 155.4 114.8 142.8C129.8 135.7 145.2 128.3 161.1 122.5C188.8 112.4 218.7 113 247.6 113.6C254.5 113.7 261.6 113.9 268.5 113.9C268.5 113.9 268.5 113.9 268.6 113.9C276 113.9 283.7 113.5 291.9 113.1C316.4 111.9 341.8 110.7 362.8 119.2C377.8 125.3 390.4 134.8 402.6 143.9C418.7 156 435.3 168.6 457.4 172.7L457.2 173.7C434.9 169.6 418.2 156.9 402 144.7C389.9 135.6 377.4 126.1 362.5 120.1C341.8 111.7 316.5 112.9 292.1 114.1C283.9 114.5 276.2 114.9 268.8 114.9C268.8 114.9 268.8 114.9 268.7 114.9C261.8 114.9 254.7 114.7 247.8 114.6C219 114 189.2 113.3 161.7 123.4C145.9 129.2 130.5 136.5 115.5 143.7C88.7999 156.3 61.4999 169.3 31.5999 173.9Z" fill="white"/>
<path d="M28.9 181.2L28.7 180.2C59.7 175.5 87.4999 161 114.4 147.1C129.6 139.2 145.4 131 161.6 124.6C189.7 113.5 220.2 114.2 249.8 114.9C256.8 115.1 264.1 115.2 271.1 115.2C278.5 115.2 286.4 114.8 294.7 114.4C318.6 113.1 345.8 111.7 366.4 120.8C381.6 127.5 393.8 138.1 405.5 148.4C421.6 162.5 436.7 175.8 459.4 180.2L459.2 181.2C436.3 176.7 420.3 162.7 404.9 149.2C393.2 139 381.2 128.4 366 121.8C345.6 112.8 318.6 114.2 294.7 115.5C286.4 115.9 278.5 116.3 271 116.4C270.9 116.4 270.9 116.4 270.8 116.4C263.8 116.4 256.6 116.2 249.7 116.1C220.2 115.4 189.8 114.8 161.9 125.8C145.7 132.2 130 140.3 114.8 148.2C87.9 161.9 60 176.4 28.9 181.2Z" fill="white"/>
<path d="M25.9999 189.1L25.8999 188.1C56.9999 184 84.7999 169.5 111.6 155.5C128.5 146.7 145.9 137.6 164.1 131.1C190.5 121.7 219.5 122.1 247.6 122.5C255.5 122.6 263.7 122.7 271.5 122.6C278.8 122.5 286.7 122 295 121.5C318.7 120 345.6 118.3 366 126C382.8 132.4 395.6 144.2 407.9 155.6C423.1 169.6 438.8 184.1 461.8 188L461.6 189C438.3 185 422.4 170.4 407.2 156.3C394.9 145 382.2 133.3 365.6 126.9C345.4 119.2 318.6 120.9 295 122.4C286.7 122.9 278.8 123.4 271.4 123.5C263.5 123.6 255.3 123.5 247.4 123.4C219.4 123 190.5 122.6 164.3 132C146.2 138.5 128.8 147.6 112 156.3C85.1999 170.4 57.2999 185 25.9999 189.1Z" fill="white"/>
<path d="M22.8 198.1L22.7 197.1C53.3 193.8 81.2999 181.1 108.4 168.8C125.1 161.2 142.4 153.4 160.3 147.7C184.4 140.1 211 139 236.8 137.9C247.7 137.4 259 137 269.8 136C276.3 135.4 283.1 134.5 290.4 133.6C315.9 130.3 344.8 126.6 367.2 134.9C384.3 141.2 397.4 153.1 410.1 164.5C425.6 178.5 441.6 192.9 464.8 196.9L464.6 197.9C441.1 193.8 425 179.3 409.4 165.2C396.8 153.8 383.7 142.1 366.8 135.8C344.6 127.6 315.8 131.3 290.4 134.5C283.1 135.4 276.3 136.3 269.8 136.9C259 137.9 247.7 138.4 236.7 138.8C211 139.9 184.4 141 160.5 148.6C142.7 154.2 125.4 162 108.7 169.6C81.6 182.1 53.6 194.8 22.8 198.1Z" fill="white"/>
<path d="M19.4999 207.3L19.3999 206.3C49.6999 203.7 78.0999 192.6 105.6 181.8C122.9 175 140.9 168 159.2 163.2C180 157.7 202.5 155.9 224.2 154.1C238.6 152.9 253.5 151.7 267.6 149.5C273.4 148.6 279.4 147.4 285.7 146.2C313.8 140.9 345.5 134.9 370.8 145.1C387.1 151.7 399.9 163 412.2 173.9C428.6 188.4 444.1 202.2 467.6 206.2L467.4 207.2C443.6 203.1 427.3 188.7 411.5 174.7C399.3 163.8 386.6 152.6 370.4 146.1C345.4 136 313.7 142 285.8 147.3C279.5 148.5 273.5 149.6 267.7 150.6C253.5 152.9 238.6 154.1 224.2 155.2C202.5 157 180.1 158.8 159.4 164.2C141.1 169.1 123.2 176 105.9 182.8C78.4999 193.5 49.9999 204.6 19.4999 207.3Z" fill="white"/>
<path d="M16.3 216.3L16.2 215.3C45.9 213.4 74.3999 204.3 101.9 195.4C119 189.9 136.6 184.2 154.4 180.3C172.3 176.4 190.7 174.2 208.6 172C227.3 169.8 246.6 167.4 265.4 163.1C270.7 161.9 276.1 160.5 281.8 159.1C311.3 151.6 344.7 143.2 372.1 154C388.7 160.6 401.8 171.9 414.4 182.9C430.4 196.8 446.9 211.1 470.5 215.2L470.3 216.2C446.4 212.1 429.8 197.7 413.7 183.7C401.1 172.8 388.2 161.5 371.7 155C344.6 144.3 311.4 152.7 282 160.1C276.3 161.6 270.8 162.9 265.6 164.1C246.8 168.4 227.4 170.7 208.7 173C190.9 175.1 172.4 177.4 154.6 181.3C136.8 185.2 119.2 190.9 102.2 196.4C74.7 205.2 46.2 214.4 16.3 216.3Z" fill="white"/>
<path d="M13.2 224.9V223.9C42.4 223 70.9999 216.1 98.5999 209.4C114.1 205.6 130.1 201.7 146.1 198.9C155.7 197.2 165.5 196.5 175 195.9C185.2 195.2 195.8 194.5 206.2 192.5C224.5 188.9 242.7 183.5 260.3 178.1L263 177.3C268 175.8 273.1 174.1 278.5 172.4C308.4 162.7 342.2 151.7 370.9 161.9C388.7 168.2 402.7 180.1 416.2 191.5C432.6 205.4 449.7 219.8 473.5 223.9L473.3 224.9C449.2 220.8 432.1 206.3 415.6 192.3C402.2 180.9 388.3 169.1 370.6 162.9C342.3 152.8 308.6 163.8 278.9 173.4C273.5 175.2 268.3 176.8 263.3 178.3L260.6 179.1C243 184.4 224.8 189.9 206.4 193.5C196 195.5 185.4 196.2 175.1 196.9C165.6 197.5 155.9 198.2 146.3 199.9C130.3 202.7 114.4 206.6 98.8999 210.4C71.0999 217 42.5 224 13.2 224.9Z" fill="white"/>
<path d="M10.2999 233.7C10.1999 233.7 10.0999 233.7 9.8999 233.7V232.7C9.9999 232.7 10.0999 232.7 10.2999 232.7C38.7999 232.7 67.2999 228 94.6999 223.5C109.8 221 125.4 218.5 140.9 216.7C148.4 215.8 156 215.5 163.4 215.1C175.9 214.5 188.8 213.8 201.4 210.8C220.1 206.3 238.5 199.5 256.3 193L260.2 191.5C265.1 189.7 270.1 187.8 275.4 185.7C306.3 173.6 341.3 159.9 371.8 170.5C389.9 176.8 404.2 188.7 418 200.2C434.7 214.1 452 228.5 476 232.6L475.8 233.6C451.6 229.5 434.2 215 417.3 201C403.5 189.6 389.3 177.7 371.4 171.5C341.3 161 306.4 174.7 275.7 186.7C270.4 188.8 265.4 190.7 260.5 192.5L256.6 194C238.8 200.6 220.3 207.4 201.5 211.8C188.8 214.8 175.8 215.5 163.3 216.1C156 216.5 148.4 216.9 140.9 217.7C125.4 219.5 109.9 222 94.7999 224.5C67.3999 229.1 38.9999 233.7 10.2999 233.7Z" fill="white"/>
<path d="M15.8 242.9C12.8 242.9 9.69995 242.9 6.69995 242.8V241.8C35.1 242.4 63.6999 239.9 91.3999 237.4C105.1 236.2 119.3 234.9 133.3 234C139.4 233.6 145.7 233.5 151.7 233.4C165.1 233.2 178.9 232.9 192.3 229.6C212.6 224.6 232.4 216.3 251.5 208.2C253.7 207.3 255.9 206.4 258 205.4C262.8 203.4 267.7 201.2 272.9 198.9C305.6 184.4 342.7 167.9 375.6 180.5C392.8 187.1 406.7 198.4 420.1 209.3C437.1 223.2 454.7 237.5 479 241.6L478.8 242.6C454.3 238.5 436.6 224 419.5 210.1C406.2 199.2 392.4 188 375.3 181.5C342.7 169.1 305.9 185.4 273.3 199.9C268.1 202.2 263.2 204.4 258.4 206.4C256.2 207.3 254.1 208.2 251.9 209.2C232.8 217.3 213 225.7 192.6 230.6C179.1 233.9 165.2 234.1 151.8 234.4C145.8 234.5 139.6 234.6 133.5 235C119.5 235.9 105.3 237.2 91.5999 238.4C66.7999 240.6 41.2 242.9 15.8 242.9Z" fill="white"/>
<path d="M24 252.3C17.1 252.3 10.2 252.2 3.30005 252.1V251.1C31.2 251.8 59.5 250.9 86.9 250C101.8 249.5 117.3 249 132.5 248.8C136.1 248.7 139.8 248.7 143.3 248.7C159.6 248.6 174.9 248.6 190.7 244.5C211.2 239.2 230.8 230 249.8 221.2C252 220.2 254.1 219.2 256.3 218.2C260.9 216.1 265.7 213.8 270.7 211.3C301.9 196.2 340.8 177.4 374.4 188.7C393 195 407.8 206.9 422.1 218.5C439.4 232.5 457.4 246.9 481.8 251L481.6 252C456.9 247.9 438.9 233.4 421.5 219.3C407.2 207.8 392.5 195.9 374.1 189.7C340.8 178.5 302.2 197.2 271.1 212.2C266.1 214.6 261.3 216.9 256.7 219.1C254.6 220.1 252.4 221.1 250.2 222.1C231.1 230.9 211.4 240.1 190.9 245.5C175 249.7 159.6 249.7 143.3 249.8C139.8 249.8 136.1 249.8 132.5 249.9C117.3 250.1 101.8 250.6 86.9 251.1C66.3 251.6 45.2001 252.3 24 252.3Z" fill="white"/>
<path d="M145.6 261.7C143 261.7 140.5 261.7 137.9 261.7C135.3 261.7 132.8 261.7 130.2 261.7C115 261.7 99.8 261.7 84.6 261.7C56.9 261.7 28.2 261.7 0 261.7V260.7C28.2 260.7 56.9 260.7 84.6 260.7C99.8 260.7 115 260.7 130.2 260.7C132.8 260.7 135.3 260.7 137.9 260.7C155.5 260.8 172.1 260.9 188.9 256.6C209.8 251.3 229.7 241.6 248.9 232.3C251.1 231.2 253.4 230.1 255.6 229.1C260 227 264.4 224.8 269.1 222.4C300.9 206.5 340.5 186.7 375.7 198.3C394.6 204.5 409.8 216.5 424.5 228.1C442.2 242 460.4 256.5 485 260.6L484.8 261.6C460 257.5 441.6 243 423.9 228.9C409.3 217.3 394.2 205.4 375.4 199.2C340.5 187.7 301.2 207.4 269.5 223.3C264.8 225.7 260.3 227.9 256 230C253.8 231.1 251.6 232.1 249.3 233.2C230 242.6 210.1 252.2 189.1 257.6C174.6 261.2 160.4 261.7 145.6 261.7Z" fill="white"/>
</svg>
