<svg width="485" height="363" viewBox="0 0 485 363" fill="none" xmlns="http://www.w3.org/2000/svg">
<path d="M359.8 175.903C348.7 175.903 337.7 175.903 326.6 175.903C302.7 175.903 291.7 173.703 278.9 151.803C269.9 136.403 263.6 119.203 257.5 102.503C256 98.5028 254.5 94.3028 253 90.3028C251.3 85.7028 249.5 81.0028 247.9 76.4028C241.9 59.9028 235.6 42.9028 227.3 27.2028C218.4 10.5028 210.1 2.30279 201.2 1.30279C193.2 0.402794 184.5 5.30279 174.9 16.3028C158.1 35.5028 146.2 60.3028 134.6 84.3028C117.8 119.303 100.4 155.403 67.6001 175.403L67.1001 174.503C99.7001 154.703 117 118.703 133.7 83.8028C145.3 59.7028 157.2 34.8028 174.1 15.5028C184 4.20279 192.9 -0.797211 201.3 0.102789C210.6 1.20279 219.2 9.60279 228.2 26.6028C236.6 42.3028 242.8 59.4028 248.8 75.9028C250.5 80.5028 252.2 85.2028 253.9 89.8028C255.4 93.8028 257 98.0028 258.4 102.003C264.5 118.603 270.8 135.803 279.7 151.103C292.3 172.703 302.6 174.703 326.5 174.703C348.5 174.703 370.5 174.703 392.6 174.703H425.6V175.703H392.6C381.7 175.903 370.7 175.903 359.8 175.903Z" fill="white"/>
<path d="M322.7 181.703C305.3 181.703 294.3 180.603 282.1 162.503C271.2 146.303 264.3 127.103 257.5 108.503C256 104.303 254.4 99.903 252.8 95.803C251.1 91.203 249.3 86.503 247.7 81.903C240.9 63.403 234 44.203 223.8 27.403C215.8 14.203 207.9 7.50298 199.6 7.00298C190.6 6.50298 180.8 13.203 169.5 27.703C155.9 45.103 145.1 67.103 134.7 88.403C117 124.503 98.6998 161.903 65.2998 181.403L64.7998 180.503C97.8998 161.203 116.1 124.003 133.8 88.003C144.2 66.703 155 44.703 168.7 27.203C180.2 12.503 190.3 5.60297 199.6 6.20297C208.3 6.70297 216.5 13.503 224.6 27.103C234.8 44.003 241.8 63.203 248.6 81.803C250.3 86.403 252 91.103 253.7 95.703C255.3 99.903 256.9 104.203 258.4 108.403C265.1 126.903 272.1 146.103 282.9 162.203C295.6 181.003 307.1 181.003 326.2 180.903C327.5 180.903 328.8 180.903 330.1 180.903H427.4V181.903H330.1C328.8 181.903 327.5 181.903 326.2 181.903C325.1 181.703 323.9 181.703 322.7 181.703Z" fill="white"/>
<path d="M323.7 187.603C306 187.603 294.8 186.603 282.5 168.303C271.5 152.103 264.4 132.803 257.6 114.203C256 110.003 254.4 105.603 252.8 101.403C251 96.8026 249.3 92.1026 247.6 87.5026C240.7 68.9026 233.6 49.7027 223.3 32.9027C215.3 19.8027 207.3 13.2026 198.9 12.7026C189.8 12.2026 179.8 19.0026 168.4 33.6026C154.8 50.9026 144 72.8026 133.5 94.0026C115.5 130.303 96.9002 167.803 63.2002 187.103L62.7002 186.203C96.1002 167.103 114.6 129.703 132.6 93.6027C143.1 72.4027 154 50.4026 167.6 33.0026C179.4 18.1026 189.4 11.3027 199 11.9027C207.7 12.4027 216 19.2026 224.2 32.6026C234.6 49.5026 241.7 68.7027 248.6 87.3027C250.3 91.9026 252 96.6026 253.8 101.203C255.4 105.403 257 109.703 258.6 114.003C265.4 132.603 272.5 151.803 283.4 167.903C296.2 186.803 307.9 186.803 327.2 186.703C328.4 186.703 329.7 186.703 331 186.703H429.4V187.703H331C329.7 187.703 328.4 187.703 327.2 187.703C326 187.603 324.9 187.603 323.7 187.603Z" fill="white"/>
<path d="M324.7 193.703C306.7 193.703 295.3 192.703 282.8 174.303C271.7 158.103 264.5 138.803 257.5 120.103C255.9 115.903 254.3 111.503 252.7 107.303C250.9 102.803 249.2 98.0026 247.5 93.5026C240.5 74.9026 233.3 55.6026 222.8 38.9026C214.7 25.9026 206.6 19.4026 198.2 18.9026C188.9 18.4026 179 25.1026 167.3 40.0026C153.7 57.2026 142.8 79.0026 132.2 100.103C114 136.603 95.1001 174.303 61.1001 193.303L60.6001 192.403C94.4001 173.603 113.2 136.003 131.3 99.7026C141.9 78.6026 152.8 56.7026 166.5 39.4026C178.5 24.2026 188.6 17.4026 198.3 17.9026C207.1 18.4026 215.4 25.1026 223.7 38.3026C234.2 55.2026 241.5 74.5026 248.5 93.1026C250.2 97.6026 252 102.303 253.7 106.903C255.3 111.103 257 115.503 258.5 119.703C265.5 138.303 272.7 157.603 283.7 173.703C296.7 192.703 308.5 192.703 328.1 192.603C329.3 192.603 330.5 192.603 331.8 192.603H431.3V193.603H331.8C330.5 193.603 329.3 193.603 328.1 193.603C327 193.703 325.8 193.703 324.7 193.703Z" fill="white"/>
<path d="M433.3 199.903H329.9C308.5 199.903 296.7 199.003 283 179.503C271.9 163.703 264.7 144.803 257.7 126.503C256 122.103 254.3 117.603 252.6 113.303C250.6 108.103 248.6 102.903 246.5 97.4027C239 77.3027 231.2 56.4027 218.9 39.8027C211.7 30.1027 204.5 25.4027 196.8 25.3027C196.8 25.3027 196.8 25.3027 196.7 25.3027C183.6 25.3027 171.5 39.3027 162.3 51.5027C150.3 67.4027 140.6 86.6027 130.4 106.903C111.9 143.503 92.7998 181.403 58.7998 199.603L58.2998 198.703C91.9998 180.603 111.1 142.903 129.5 106.403C139.8 86.1027 149.5 66.9027 161.5 50.9027C170.8 38.5027 183.2 24.3027 196.7 24.3027H196.8C204.8 24.3027 212.3 29.2027 219.7 39.2027C232.1 55.9027 239.9 76.8027 247.4 97.0027C249.5 102.503 251.4 107.803 253.5 112.903C255.2 117.203 256.9 121.703 258.6 126.103C265.5 144.303 272.7 163.203 283.8 178.903C297.3 198.003 308.9 198.903 329.9 198.903H433.3V199.903Z" fill="white"/>
<path d="M435.3 206.103H330.7C309.1 206.103 297.2 205.203 283.3 185.503C272.1 169.703 264.8 150.703 257.7 132.403C256 128.003 254.3 123.503 252.5 119.203C250.4 114.103 248.5 108.903 246.4 103.303C238.7 83.0028 230.8 62.1028 218.3 45.6028C211.1 36.1028 203.8 31.4028 196.1 31.4028C182.9 31.4028 170.5 45.5028 161.2 57.7028C149.2 73.6028 139.4 92.7028 129.1 112.903C110.3 149.703 90.9001 187.703 56.6001 205.703L56.1001 204.803C90.2001 187.003 109.5 149.103 128.2 112.503C138.5 92.2028 148.3 73.1028 160.4 57.1028C169.8 44.6028 182.4 30.4028 196.1 30.4028C204.1 30.4028 211.8 35.3028 219.1 45.0028C231.7 61.6028 239.6 82.7028 247.3 103.003C249.4 108.503 251.4 113.703 253.4 118.803C255.1 123.103 256.9 127.603 258.6 132.003C265.6 150.303 272.9 169.203 284.1 184.903C297.8 204.103 309.5 205.003 330.7 205.003H435.3V206.103Z" fill="white"/>
<path d="M437.2 212.203H331.5C309.8 212.203 297.8 211.303 283.6 191.503C272.3 175.603 264.8 156.703 257.7 138.303C256 133.903 254.2 129.403 252.5 125.103C250.4 120.003 248.4 114.803 246.3 109.303C238.5 88.9028 230.4 67.9028 217.7 51.4028C210.5 42.1028 203.2 37.5028 195.5 37.5028C195.5 37.5028 195.5 37.5028 195.4 37.5028C182 37.5028 169.5 51.7028 160.1 64.0028C148 79.8028 138.2 98.8028 127.8 119.003C108.8 155.903 89.0999 194.103 54.3999 211.803L53.8999 210.903C88.2999 193.303 107.9 155.303 126.9 118.503C137.3 98.3028 147.2 79.2028 159.3 63.3028C168.9 50.8028 181.6 36.4028 195.4 36.4028C203.3 36.4028 211.1 41.2028 218.5 50.6028C231.3 67.2028 239.4 88.3028 247.3 108.703C249.4 114.203 251.4 119.403 253.5 124.503C255.3 128.803 257 133.403 258.7 137.703C265.9 156.003 273.2 174.903 284.5 190.703C298.4 210.103 310.2 211.003 331.6 211.003H437.3V212.203H437.2Z" fill="white"/>
<path d="M366.1 218.203C353.9 218.203 341.7 218.203 329.5 218.103C307 218.003 294.9 214.703 282.2 195.203C271.6 178.903 264.1 160.203 256.9 142.203C255.4 138.303 253.8 134.503 252.3 130.703C250.4 126.003 248.5 121.203 246.6 116.203C238.7 95.903 230.5 74.803 217.5 58.403C209.6 48.503 201.9 43.603 194 43.603C184.5 43.603 174.8 50.403 163.4 64.903C147.7 84.803 135 107.303 122.6 129.003C117.3 138.403 111.8 148.003 106.1 157.403L104.6 159.903C90.9998 182.503 76.8998 205.803 52.1998 217.903L51.7998 217.003C76.1998 205.103 90.1998 181.803 103.8 159.403L105.3 156.903C110.9 147.603 116.4 137.903 121.7 128.503C134.1 106.703 146.8 84.203 162.5 64.303C174.1 49.503 184.1 42.703 193.9 42.603C202.2 42.603 210.2 47.503 218.2 57.803C231.3 74.403 239.5 95.503 247.5 115.903C249.5 120.903 251.3 125.703 253.2 130.403C254.8 134.203 256.3 138.003 257.8 141.903C265 159.903 272.4 178.603 283 194.803C295.5 214.003 306.9 217.103 329.5 217.203C353.8 217.303 378.6 217.303 402.5 217.203C414.7 217.203 426.8 217.203 439 217.203V218.203C426.8 218.203 414.7 218.203 402.5 218.203C390.6 218.203 378.4 218.203 366.1 218.203Z" fill="white"/>
<path d="M367.3 224.303C355 224.303 342.6 224.303 330.3 224.303C307.7 224.203 295.4 220.903 282.5 201.303C271.8 185.003 264.2 166.303 256.9 148.203C255.3 144.303 253.8 140.503 252.2 136.703C250.3 132.003 248.4 127.303 246.4 122.303C238.4 101.903 230 80.8028 216.8 64.4028C208.9 54.6028 201.2 49.8028 193.2 49.8028H193.1C183.5 49.8028 173.7 56.7028 162.1 71.3028C146.4 91.2028 133.5 113.603 121.1 135.303C115.7 144.703 110.1 154.503 104.4 163.903L103 166.203C89.2001 188.803 74.9001 212.203 50.0001 224.103L49.6001 223.203C74.2001 211.403 88.4001 188.203 102.2 165.703L103.6 163.403C109.3 154.003 114.9 144.303 120.3 134.803C132.7 113.103 145.6 90.6028 161.4 70.7028C173.1 55.8028 183.2 48.9028 193.2 48.9028H193.3C201.6 48.9028 209.6 53.8028 217.7 63.8028C231 80.3028 239.4 101.503 247.4 122.003C249.4 127.003 251.2 131.703 253.2 136.403C254.8 140.203 256.3 144.103 257.9 147.903C265.2 166.003 272.8 184.603 283.4 200.903C296.1 220.203 307.6 223.403 330.3 223.403C354.9 223.503 379.9 223.403 404.1 223.403C416.4 223.403 428.7 223.403 441 223.403V224.403C428.7 224.403 416.4 224.403 404.1 224.403C392 224.303 379.7 224.303 367.3 224.303Z" fill="white"/>
<path d="M368.6 231.203C356.1 231.203 343.6 231.203 331.2 231.203C308.4 231.103 296 227.803 282.9 208.103C272.1 191.803 264.4 173.003 256.9 154.903C255.3 151.003 253.7 147.203 252.1 143.303C250.1 138.703 248.3 134.003 246.3 129.003C238.1 108.503 229.6 87.3026 216.2 71.0026C208.3 61.4026 200.5 56.7026 192.5 56.7026C192.4 56.7026 192.4 56.7026 192.3 56.7026C182.6 56.8026 172.6 63.7026 160.9 78.3026C145.1 98.1026 132.1 120.503 119.6 142.203C114.1 151.703 108.4 161.503 102.6 171.003L101.3 173.203C87.3002 195.903 72.8002 219.303 47.6002 231.103L47.2002 230.203C72.1002 218.603 86.5002 195.303 100.4 172.703L101.7 170.503C107.5 161.003 113.2 151.203 118.7 141.703C131.3 120.003 144.2 97.6026 160.1 77.7026C172 62.8026 182.2 55.8026 192.3 55.7026C192.4 55.7026 192.4 55.7026 192.5 55.7026C200.8 55.7026 208.8 60.5026 217 70.4026C230.6 86.9026 239.1 108.103 247.3 128.703C249.3 133.703 251.2 138.403 253.1 143.003C254.7 146.803 256.3 150.703 257.9 154.603C265.3 172.703 273 191.403 283.8 207.703C296.6 227.003 308.8 230.303 331.2 230.303C356.1 230.403 381.4 230.303 405.9 230.303C418.3 230.303 430.8 230.303 443.2 230.303V231.303C430.8 231.303 418.3 231.303 405.9 231.303C393.6 231.203 381.1 231.203 368.6 231.203Z" fill="white"/>
<path d="M445.5 238.503H335C310.1 238.503 296.6 234.903 282.4 213.503C271.9 197.803 264.4 179.703 257.1 162.303C255.4 158.303 253.7 154.303 252 150.303C250 145.703 248 140.903 246.1 136.303C238.1 117.003 229.9 97.0027 217.8 80.6027C209.6 69.5027 201.4 64.0027 192.7 63.8027C192.6 63.8027 192.5 63.8027 192.3 63.8027C181.5 63.8027 170.3 71.9027 156 90.0027C141.6 108.203 129.7 128.803 118.1 148.703C114 155.703 109.8 163.003 105.5 170.003C104.3 172.003 103.1 174.003 101.8 176.103C86.9998 200.803 71.6998 226.303 44.6998 238.303L44.2998 237.403C70.8998 225.503 86.1998 200.103 100.9 175.603C102.1 173.603 103.3 171.503 104.6 169.503C108.9 162.503 113.1 155.203 117.2 148.203C128.8 128.303 140.8 107.703 155.2 89.4027C169.8 70.8027 181.4 62.7027 192.6 62.8027C201.6 62.9027 210 68.6027 218.4 80.0027C230.6 96.5027 238.9 116.603 246.8 136.003C248.7 140.603 250.7 145.403 252.7 150.003C254.4 154.003 256.1 158.003 257.8 162.003C265.1 179.403 272.6 197.403 283 213.003C297 234.003 310.3 237.503 334.8 237.503H445.3V238.503H445.5Z" fill="white"/>
<path d="M447.8 245.703H336C310.9 245.703 297.3 242.103 282.8 220.603C272.2 204.803 264.5 186.803 257.1 169.303C255.4 165.303 253.7 161.203 251.9 157.303C249.9 152.703 247.9 148.003 246 143.303C237.9 123.903 229.5 103.903 217.2 87.5029C208.9 76.5029 200.6 71.1029 191.9 71.0029C191.8 71.0029 191.7 71.0029 191.6 71.0029C180.6 71.0029 169.2 79.2029 154.8 97.4029C140.3 115.603 128.2 136.203 116.5 156.003C112.3 163.103 108 170.403 103.7 177.503C102.5 179.503 101.3 181.403 100.1 183.403C85.0999 208.203 69.4999 233.803 42.2999 245.603L41.8999 244.703C68.7999 233.003 84.2999 207.603 99.2999 182.903C100.5 180.903 101.7 178.903 102.9 177.003C107.2 169.903 111.5 162.603 115.7 155.603C127.4 135.703 139.5 115.103 154 96.8029C168.7 78.3029 180.3 70.0029 191.6 70.0029C191.7 70.0029 191.8 70.0029 191.9 70.0029C200.9 70.1029 209.5 75.7029 218 86.9029C230.4 103.403 238.8 123.503 246.9 142.903C248.8 147.503 250.8 152.303 252.8 156.803C254.5 160.803 256.3 164.903 258 168.903C265.4 186.303 273 204.303 283.6 220.003C297.8 241.103 311.3 244.603 336 244.603H447.8V245.703Z" fill="white"/>
<path d="M450.2 253.103H334.3C309.5 253.103 296.8 249.403 282.2 226.703C271.8 210.503 263.9 192.203 256.3 174.603C254.8 171.203 253.3 167.703 251.8 164.303C250 160.303 248.3 156.103 246.6 152.103C238.2 132.503 229.6 112.203 216.8 95.4028C208.1 84.0028 199.6 78.4028 190.9 78.1028C190.7 78.1028 190.5 78.1028 190.3 78.1028C180.1 78.1028 169.5 85.2028 156 101.003C140.2 119.503 127.5 141.303 115.2 162.403C110.3 170.803 105.2 179.403 100.1 187.703C99.0998 189.303 98.0998 190.903 97.0998 192.503C82.0998 216.603 66.6998 241.603 39.6998 252.803L39.2998 251.903C65.9998 240.903 81.3998 216.003 96.1998 192.003C97.1998 190.403 98.1998 188.803 99.1998 187.203C104.3 179.003 109.4 170.303 114.3 161.903C126.6 140.803 139.4 119.003 155.2 100.403C169.1 84.0028 180.1 76.8028 190.8 77.2028C199.9 77.4028 208.6 83.2028 217.5 94.9028C230.3 111.703 239 132.103 247.4 151.803C249.1 155.803 250.9 160.003 252.6 164.003C254.1 167.403 255.6 170.803 257.1 174.303C264.7 191.903 272.5 210.003 282.9 226.203C297.2 248.503 309.7 252.103 334.2 252.103H450.1V253.103H450.2Z" fill="white"/>
<path d="M452.5 260.403H335.2C310.2 260.403 297.3 256.703 282.5 233.903C271.9 217.603 264 199.403 256.2 181.803C254.7 178.303 253.2 174.903 251.6 171.503C249.8 167.503 248 163.403 246.3 159.403C237.8 139.703 228.9 119.303 216 102.603C207.3 91.4028 198.7 85.8028 189.9 85.6028C189.7 85.6028 189.5 85.6028 189.4 85.6028C179.1 85.6028 168.3 92.8028 154.6 108.703C138.7 127.203 125.9 148.903 113.4 170.003C108.4 178.403 103.3 187.103 98.0001 195.403C97.0001 196.903 96.0001 198.503 95.1001 200.103C79.9001 224.303 64.2001 249.403 37.0001 260.303L36.6001 259.403C63.6001 248.503 79.2001 223.603 94.3001 199.603C95.3001 198.003 96.3001 196.503 97.2001 194.903C102.4 186.603 107.6 177.903 112.5 169.503C125 148.403 137.8 126.603 153.8 108.103C167.9 91.6028 179.1 84.4028 189.9 84.7028C199.1 84.9028 207.9 90.6028 216.8 102.103C229.9 118.903 238.7 139.303 247.3 159.103C249 163.103 250.8 167.203 252.6 171.203C254.1 174.603 255.6 178.103 257.2 181.503C264.9 199.103 272.9 217.303 283.4 233.503C297.9 255.903 310.6 259.503 335.2 259.503H452.4V260.403H452.5Z" fill="white"/>
<path d="M454.8 267.703H339C315.3 267.703 301.1 266.703 286 245.803C274 229.303 265.5 209.903 257.2 191.103C255.4 186.903 253.5 182.603 251.6 178.503C249.8 174.503 247.9 170.303 246.1 166.203C237.8 147.403 229.2 128.003 217.2 111.703C208.2 99.4026 199.1 93.3026 189.4 93.1026C189.2 93.1026 189.1 93.1026 188.9 93.1026C177.1 93.1026 164.7 101.803 149.9 120.303C135.3 138.603 122.9 159.103 110.8 179.003C105.5 187.803 100 196.903 94.4 205.603L92.2 209.003C77.1 232.703 61.4 257.303 34.4 267.603L34 266.703C60.7 256.503 76.3 232.003 91.4 208.403L93.6 205.003C99.2 196.303 104.7 187.203 110 178.403C122.1 158.503 134.5 138.003 149.2 119.603C164.4 100.603 177.1 91.8026 189.5 92.1026C199.5 92.3026 208.9 98.5026 218.1 111.103C230.2 127.603 238.8 147.003 247.1 165.803C248.9 169.903 250.7 174.103 252.6 178.103C254.5 182.303 256.4 186.603 258.2 190.703C266.5 209.403 275 228.703 286.9 245.203C301.7 265.703 315.7 266.703 339.1 266.703H454.8V267.703Z" fill="white"/>
<path d="M457.1 275.203H340C316.1 275.203 301.8 274.203 286.4 253.203C274.3 236.603 265.6 217.203 257.2 198.403C255.3 194.203 253.4 189.903 251.5 185.703C249.6 181.703 247.8 177.503 246 173.503C237.6 154.703 228.9 135.203 216.7 118.903C207.6 106.703 198.4 100.703 188.7 100.503C176.6 100.303 163.9 109.003 148.7 127.803C134 146.103 121.4 166.603 109.3 186.403C103.9 195.203 98.3 204.403 92.6 213.203L90.5 216.403C75.1 240.203 59.2 264.903 31.8 275.103L31.5 274.203C58.5 264.103 74.3 239.603 89.7 215.903L91.8 212.703C97.5 203.903 103.1 194.803 108.5 186.003C120.7 166.103 133.3 145.603 148 127.303C163.2 108.403 176 99.603 188.3 99.603C188.5 99.603 188.6 99.603 188.8 99.603C198.9 99.803 208.3 105.903 217.6 118.403C229.9 134.803 238.6 154.303 247.1 173.203C248.9 177.203 250.8 181.403 252.6 185.403C254.5 189.603 256.5 193.903 258.3 198.103C266.7 216.803 275.4 236.203 287.4 252.703C302.5 273.303 316.6 274.303 340.2 274.303H457.3V275.203H457.1Z" fill="white"/>
<path d="M459.4 282.403H340.9C316.8 282.403 302.3 281.403 286.8 260.303C274.6 243.703 265.7 224.303 257.2 205.403C255.3 201.203 253.3 196.903 251.4 192.703C249.5 188.703 247.7 184.603 245.8 180.603C237.2 161.703 228.4 142.203 216 125.903C206.8 113.803 197.6 107.903 187.7 107.703C175.4 107.603 162.6 116.203 147.2 135.203C132.4 153.403 119.7 173.903 107.5 193.703C102 202.603 96.2998 211.803 90.4998 220.603L88.4998 223.603C72.8998 247.503 56.6998 272.203 29.0998 282.203L28.7998 281.303C56.0998 271.403 72.1998 246.803 87.6998 223.103L89.6998 220.103C95.4998 211.303 101.2 202.103 106.7 193.203C119 173.403 131.7 152.903 146.5 134.603C162.1 115.403 175.1 106.503 187.8 106.703C198 106.903 207.5 112.903 216.8 125.303C229.3 141.703 238.2 161.303 246.7 180.203C248.5 184.203 250.4 188.303 252.3 192.303C254.3 196.503 256.2 200.803 258.1 205.003C266.6 223.803 275.4 243.203 287.6 259.703C302.9 280.403 317.1 281.403 340.9 281.403H459.4V282.403Z" fill="white"/>
<path d="M380.1 290.303C366.5 290.303 352.8 290.303 339.2 290.303C315.3 290.303 301.3 286.703 286.3 266.503C274 250.003 265.2 230.703 256.6 212.103C254.8 208.103 253 204.203 251.1 200.303C249.1 196.103 247.2 191.803 245.1 187.303C235.6 166.503 225.9 144.903 211.2 128.603C203.3 119.703 195.3 115.403 186.9 115.403C186.9 115.403 186.9 115.403 186.8 115.403C175.7 115.403 164.3 122.603 149.7 138.703C133.3 156.803 120 178.403 107.1 199.203C102.6 206.503 97.8999 214.003 93.2999 221.203C91.9999 223.103 90.7999 225.103 89.4999 227.103C73.4999 252.003 55.2999 280.103 26.1999 290.203L25.8999 289.303C54.7999 279.403 72.7999 251.303 88.6999 226.603C89.9999 224.603 91.1999 222.703 92.4999 220.703C97.1999 213.503 101.8 206.003 106.3 198.703C119.2 177.803 132.6 156.203 149 138.003C159 127.003 172.3 114.303 186.9 114.303C186.9 114.303 186.9 114.303 187 114.303C195.8 114.303 204 118.803 212.1 127.803C226.8 144.303 236.7 165.903 246.1 186.803C248.1 191.303 250.1 195.603 252.1 199.803C253.9 203.703 255.8 207.703 257.6 211.603C266.1 230.203 275 249.403 287.2 265.803C301.9 285.703 315.7 289.103 339.3 289.203C366.6 289.203 393.8 289.203 421.1 289.203H462V290.203H421.1C407.4 290.303 393.8 290.303 380.1 290.303Z" fill="white"/>
<path d="M381.7 299.403C367.9 299.403 354.1 299.403 340.3 299.403C316.7 299.403 301.9 295.703 286.8 275.503C274.4 259.003 265.4 239.703 256.6 221.003C254.7 217.003 252.9 213.103 251 209.103C249 204.903 247 200.703 245 196.203C235.3 175.303 225.3 153.603 210.4 137.303C202.4 128.603 194.4 124.403 185.9 124.403C171.5 124.403 158.2 137.003 148.2 147.903C131.7 166.003 118.2 187.603 105.1 208.403C100.5 215.703 95.8002 223.303 91.0002 230.503C89.8002 232.403 88.5002 234.203 87.3002 236.103C71.0002 261.103 52.6002 289.303 23.0002 299.203L22.7002 298.303C51.9002 288.503 70.3002 260.403 86.5002 235.603C87.7002 233.703 89.0002 231.803 90.2002 230.003C95.0002 222.803 99.7002 215.203 104.3 207.903C117.4 187.003 130.9 165.403 147.5 147.203C157.6 136.103 171.2 123.403 186 123.403C194.8 123.403 203 127.703 211.2 136.603C226.3 153.003 236.3 174.703 246 195.803C248.1 200.303 250 204.503 252 208.703C253.9 212.603 255.7 216.603 257.6 220.603C266.3 239.203 275.3 258.503 287.7 274.903C302.7 294.903 316.7 298.403 340.4 298.403C368 298.403 395.7 298.403 423.3 298.403H464.8V299.403H423.3C409.5 299.403 395.6 299.403 381.7 299.403Z" fill="white"/>
<path d="M467.7 308.503H344.5C316.6 308.503 302.7 306.103 286.3 283.303C274.4 266.803 265.4 248.003 256.7 229.803C254.8 225.903 252.9 221.903 251 218.003C248.9 213.803 246.9 209.403 244.7 204.903C235.1 184.403 225.1 163.203 210.3 147.703C201.4 138.403 192.6 133.803 183.6 133.903C173.1 133.903 161.9 140.403 149.5 153.503C131.7 172.403 117.4 195.003 103.5 217.003C98.1 225.503 92.5 234.303 86.9 242.703C85.6 244.603 84.3 246.603 83 248.503C66.3 273.503 49 299.303 19.8 308.603L19.5 307.603C48.4 298.503 65.6 272.803 82.2 247.903C83.5 245.903 84.8 244.003 86.1 242.103C91.7 233.803 97.3 225.003 102.7 216.503C116.6 194.503 131 171.803 148.8 152.903C161.4 139.503 172.8 133.003 183.6 133.003H183.7C193 133.003 201.9 137.603 211 147.103C226 162.803 236 184.003 245.6 204.603C247.7 209.203 249.8 213.503 251.8 217.703C253.7 221.603 255.6 225.503 257.5 229.503C266.2 247.703 275.2 266.403 287 282.903C303.2 305.303 316.9 307.703 344.4 307.703H467.6V308.503H467.7Z" fill="white"/>
<path d="M470.5 317.503H345.7C318.2 317.503 303.4 315.003 286.8 292.203C274.7 275.703 265.6 256.803 256.7 238.603C254.8 234.603 252.8 230.703 250.9 226.803C248.8 222.603 246.8 218.303 244.6 213.803C234.8 193.203 224.6 171.903 209.5 156.403C200.6 147.303 191.8 142.803 182.8 142.803C182.7 142.803 182.7 142.803 182.6 142.803C171.9 142.903 160.6 149.403 148 162.603C130.1 181.503 115.6 204.103 101.5 226.003C95.9999 234.503 90.2999 243.403 84.5999 251.803C83.2999 253.703 81.9999 255.503 80.7999 257.403C63.7999 282.503 46.1999 308.403 16.6999 317.403L16.3999 316.403C45.5999 307.503 63.0999 281.703 79.9999 256.803C81.2999 254.903 82.5999 253.003 83.7999 251.203C89.4999 242.803 95.1999 234.003 100.7 225.403C114.8 203.503 129.3 180.803 147.3 161.903C160.1 148.403 171.6 141.803 182.6 141.803C192 141.703 201.1 146.303 210.3 155.703C225.5 171.303 235.8 192.703 245.6 213.303C247.8 217.803 249.8 222.103 251.9 226.303C253.9 230.203 255.8 234.203 257.7 238.103C266.6 256.303 275.7 275.103 287.7 291.603C304.1 314.103 318 316.503 345.8 316.503H470.7V317.503H470.5Z" fill="white"/>
<path d="M473.3 326.103H344.1C322 326.103 306.2 324.603 290.4 305.003C276.6 287.903 266.6 267.403 256.9 247.703C254.9 243.603 252.8 239.303 250.7 235.103C248.9 231.403 247 227.703 245.2 223.903C235.4 203.903 225.2 183.203 210.9 166.703C201.7 156.103 192.4 151.003 182.6 150.903C182.5 150.903 182.5 150.903 182.4 150.903C170.2 150.903 157.5 158.803 142.4 175.703C126 194.103 112.1 215.303 98.8001 235.703C92.9001 244.703 86.8001 254.103 80.6001 263.003C79.5001 264.503 78.5001 266.003 77.4001 267.603C60.4001 292.203 42.8001 317.503 13.4001 326.003L13.1001 325.003C42.1001 316.603 59.6001 291.403 76.5001 267.003C77.6001 265.503 78.6001 263.903 79.7001 262.403C85.9001 253.503 92.0001 244.103 97.9001 235.103C111.3 214.603 125.1 193.403 141.6 175.003C156.9 157.903 169.9 149.903 182.4 149.903C182.5 149.903 182.5 149.903 182.6 149.903C192.7 150.003 202.2 155.203 211.6 166.003C226.1 182.503 236.2 203.303 246.1 223.403C247.9 227.203 249.8 230.903 251.6 234.503C253.7 238.603 255.8 242.903 257.8 247.103C267.4 266.803 277.4 287.203 291.2 304.203C306.8 323.503 322.3 325.003 344.2 325.003H473.4V326.103H473.3Z" fill="white"/>
<path d="M476 334.903H345.2C323.5 334.903 307 333.403 290.9 313.703C276.9 296.603 266.7 276.103 256.9 256.303C254.8 252.103 252.7 247.803 250.6 243.703C248.7 240.103 246.9 236.403 245 232.603C235 212.503 224.6 191.703 210 175.303C200.7 164.903 191.4 159.903 181.6 159.903C181.6 159.903 181.6 159.903 181.5 159.903C169.1 159.903 156.2 167.803 140.8 184.903C124.3 203.203 110.3 224.403 96.8001 244.803C90.8001 253.903 84.6001 263.303 78.3001 272.303C77.3001 273.703 76.3001 275.203 75.2001 276.703C57.9001 301.303 40.1001 326.803 10.4001 335.103L10.1001 334.103C39.5001 325.903 57.2001 300.603 74.4001 276.103C75.4001 274.603 76.4001 273.203 77.5001 271.703C83.8001 262.703 90.0001 253.303 96.0001 244.203C109.5 223.703 123.5 202.603 140.1 184.203C155.7 166.903 168.8 158.903 181.5 158.903C181.5 158.903 181.5 158.903 181.6 158.903C191.8 158.903 201.3 164.103 210.8 174.703C225.6 191.203 235.9 212.003 246 232.203C247.9 235.903 249.7 239.603 251.6 243.303C253.7 247.503 255.9 251.803 257.9 255.903C267.7 275.703 277.9 296.103 291.8 313.103C307.7 332.503 323.3 334.003 345.4 334.003H476.2V334.903H476Z" fill="white"/>
<path d="M478.9 344.003H349.3C322.3 344.003 307.7 341.803 290.6 321.303C276.9 305.003 267 285.203 257.4 266.103C255.1 261.603 252.8 256.903 250.5 252.403C248.3 248.203 246.1 243.903 243.9 239.303C233 217.403 221.7 194.803 204.5 179.003C196.5 171.603 188 168.103 179.3 168.603C162.3 169.503 146.6 185.403 136.2 197.303C120.7 215.103 107.3 235.103 94.2998 254.403C87.7998 264.103 81.0998 274.103 74.1998 283.703L71.7998 287.003C54.4998 311.103 36.6998 336.103 7.0998 343.903L6.7998 342.903C35.9998 335.203 53.7998 310.403 70.9998 286.403L73.3998 283.103C80.2998 273.503 86.9998 263.503 93.4998 253.803C106.5 234.403 120 214.403 135.5 196.603C145.9 184.603 161.8 168.503 179.3 167.603C188.3 167.103 197 170.703 205.3 178.303C222.6 194.203 233.9 216.903 244.9 238.903C247.2 243.403 249.3 247.703 251.5 252.003C253.8 256.503 256.2 261.203 258.5 265.703C268.1 284.803 278 304.503 291.6 320.703C308.5 340.803 322.9 343.003 349.6 343.003H479.2V344.003H478.9Z" fill="white"/>
<path d="M481.8 353.303H347.8C320.8 353.303 306.1 349.803 289.8 329.203C276.4 312.103 266.1 292.303 256.2 273.103C254.2 269.203 252.2 265.303 250.2 261.503C248.1 257.503 246 253.403 243.8 249.103C232.9 227.703 221.7 205.503 204.7 190.103C180.5 168.103 160.6 179.303 138.2 202.903C120.4 221.603 105.7 243.503 91.3999 264.703C84.3999 274.803 77.2999 285.503 69.8999 295.503L68.3999 297.603C50.9999 321.403 32.9999 345.903 3.5999 353.303L3.3999 352.303C32.4999 345.003 50.3999 320.603 67.5999 297.003L69.0999 294.903C76.4999 284.903 83.5999 274.303 90.4999 264.003C104.8 242.803 119.6 220.803 137.4 202.003C160.2 178.003 180.5 166.703 205.3 189.203C222.5 204.803 233.7 227.003 244.6 248.503C246.8 252.803 248.8 256.903 251 260.903C253 264.703 255 268.603 257 272.503C266.9 291.703 277.1 311.503 290.5 328.503C306.5 348.803 321 352.203 347.7 352.203H481.8V353.303Z" fill="white"/>
<path d="M484.9 362.803H349C321.8 362.803 306.8 359.303 290.3 338.603C276.7 321.503 266.3 301.603 256.2 282.403C254.1 278.503 252.1 274.603 250 270.703C247.9 266.703 245.8 262.703 243.6 258.403C232.5 236.903 221 214.603 203.7 199.303C179.2 177.603 159.1 188.903 136.4 212.503C118.5 231.103 103.6 253.003 89.1 274.203C82.1 284.503 74.8 295.203 67.3 305.303L66 307.103C48.3 331.003 30 355.703 0.2 362.803L0 361.803C29.5 354.703 47.7 330.203 65.2 306.503L66.5 304.703C74 294.603 81.3 283.903 88.3 273.603C102.8 252.403 117.7 230.503 135.7 211.803C158.8 187.803 179.3 176.303 204.4 198.603C221.9 214.103 233.4 236.403 244.5 258.003C246.7 262.303 248.8 266.303 250.9 270.303C253 274.203 255 278.103 257.1 282.003C267.2 301.203 277.6 321.103 291.1 338.103C307.3 358.503 322.1 361.903 349 361.903H484.9V362.803Z" fill="white"/>
</svg>
