<svg width="457" height="351" viewBox="0 0 457 351" fill="none" xmlns="http://www.w3.org/2000/svg">
<path d="M246.4 74.9C208.5 74.9 174.6 56 142 37.6C113.4 21.6 83.9 5 51.5 1L51.6 0C84.2 4.1 113.8 20.7 142.5 36.8C175.1 55.1 208.8 73.9 246.5 73.9C279.7 73.9 311.1 61.9 341.6 50.2C369.9 39.4 399.2 28.2 430.1 26.5L430.2 27.5C399.5 29.2 370.3 40.4 342 51.2C311.3 62.8 279.8 74.9 246.4 74.9Z" fill="white"/>
<path d="M247.2 80.2998C208.8 80.2998 173.1 62.2998 138.6 44.8998C109.8 30.3998 80.1 15.3998 48.9 10.7998L49 9.7998C80.4 14.4998 110.2 29.4998 139 43.9998C173.4 61.2998 209 79.2998 247.1 79.2998C281 79.2998 314.1 67.9998 346.1 57.0998C374 47.5998 402.8 37.7998 432.3 35.2998L432.4 36.2998C403.1 38.7998 374.3 48.5998 346.5 57.9998C314.5 68.9998 281.3 80.2998 247.2 80.2998Z" fill="white"/>
<path d="M249.6 83.5002C220.4 83.5002 190.2 71.4002 163.7 60.7002C160.8 59.6002 158 58.4002 155.2 57.3002L151.7 55.9002C118.2 42.6002 83.6 28.8002 47 23.7002L47.1 22.7002C83.9 27.8002 118.6 41.6002 152.1 54.9002L155.6 56.3002C158.4 57.4002 161.2 58.5002 164.1 59.7002C190.6 70.4002 220.6 82.4002 249.6 82.4002C249.6 82.4002 249.6 82.4002 249.7 82.4002C283.8 82.4002 317.9 73.0002 350.9 63.9002C378.3 56.3002 406.6 48.5002 434.8 46.1002L434.9 47.1002C406.8 49.5002 378.5 57.3002 351.2 64.9002C318.1 74.1002 283.9 83.5002 249.6 83.5002Z" fill="white"/>
<path d="M253.1 84.1999C213.9 84.1999 175.2 72.4999 137.7 61.1999C107.6 52.0999 76.5 42.6999 45.4 39.3999L45.5 38.3999C76.7 41.6999 107.9 51.0999 138 60.1999C175.4 71.4999 214.1 83.1999 253.1 83.1999C253.2 83.1999 253.3 83.1999 253.3 83.1999C287.6 83.1999 322.3 76.7999 355.9 70.5999C382.5 65.6999 409.9 60.6999 437 58.7999L437.1 59.7999C410.1 61.6999 382.6 66.6999 356.1 71.5999C322.5 77.7999 287.7 84.1999 253.3 84.1999C253.3 84.1999 253.2 84.1999 253.1 84.1999Z" fill="white"/>
<path d="M258.4 82.8998C258.3 82.8998 258.2 82.8998 258.1 82.8998C218.2 82.8998 178.1 75.3998 139.3 68.1998C108.3 62.3998 76.2 56.3998 44.4 54.2998L44.5 53.2998C76.3 55.3998 108.4 61.3998 139.5 67.1998C178.3 74.3998 218.3 81.8998 258.1 81.8998C258.2 81.8998 258.3 81.8998 258.4 81.8998C294.2 81.8998 330.7 78.9998 366 76.1998C390 74.2998 414.8 72.3998 439.1 71.2998V72.2998C414.8 73.2998 390 75.2998 366 77.1998C330.7 80.0998 294.2 82.8998 258.4 82.8998Z" fill="white"/>
<path d="M412.5 83.9998C338.3 83.9998 263.7 79.5998 191.3 75.2998C142.9 72.3998 92.9 69.4998 43.7 67.7998V66.7998C93 68.3998 143 71.3998 191.4 74.2998C273.1 79.0998 357.5 84.1998 440.8 82.7998V83.7998C431.4 83.8998 422 83.9998 412.5 83.9998Z" fill="white"/>
<path d="M442.4 94.9999C413.2 94.6999 384 90.4999 355.7 86.4999C326.9 82.3999 297.1 78.1999 267.3 77.9999C228 77.7999 188.1 78.6999 149.5 79.4999C114.8 80.2999 79 80.9999 43.8 80.9999C43.5 80.9999 43.3 80.9999 43 80.9999V79.9999C43.3 79.9999 43.5 79.9999 43.8 79.9999C79 79.9999 114.9 79.1999 149.5 78.4999C188.1 77.6999 228.1 76.7999 267.3 76.9999C297.1 77.1999 327 81.3999 355.8 85.4999C384 89.4999 413.2 93.5999 442.3 93.9999L442.4 94.9999Z" fill="white"/>
<path d="M444 106.6C415.4 105.4 387.7 98.1002 360.9 91.1002C332.2 83.6002 302.6 75.8002 272.1 75.5002C230.1 75.2002 187.6 80.3002 146.4 85.3002C112.3 89.4002 77.1 93.7002 42.4 94.8002V93.8002C77.1 92.7002 112.3 88.4002 146.3 84.3002C187.5 79.3002 230.1 74.1002 272.1 74.5002C302.8 74.7002 332.5 82.6002 361.2 90.1002C388 97.1002 415.6 104.4 444.1 105.6L444 106.6Z" fill="white"/>
<path d="M445.6 117.9C417 115.9 390.4 105.5 364.7 95.4C336.8 84.5 307.9 73.2 276.8 72.9C233.4 72.5 189.8 81.8 147.6 90.9C112.9 98.4 77.1 106.1 41.6 108.3L41.5 107.3C76.9 105.1 112.7 97.4 147.4 89.9C189.7 80.8 233.3 71.4 276.8 71.9C308.1 72.2 337 83.5 365 94.5C390.7 104.5 417.2 114.9 445.6 116.9V117.9Z" fill="white"/>
<path d="M447.4 129.4C418.5 126.5 393 113 368.3 100C341.4 85.8002 313.5 71.1002 281.8 70.7002C250.2 70.3002 217.6 79.7002 186.1 88.9002C179.5 90.8002 173.3 92.6002 167.1 94.3002C163.4 95.3002 159.6 96.4002 155.9 97.4002C118.7 107.7 80.2001 118.4 40.9001 122L40.8 121C80 117.4 118.4 106.8 155.6 96.4002C159.3 95.4002 163.1 94.3002 166.8 93.3002C173 91.6002 179.3 89.8002 185.8 87.9002C217.4 78.8002 250 69.3002 281.8 69.7002C313.8 70.1002 341.8 84.8002 368.8 99.1002C393.4 112.1 418.8 125.5 447.5 128.4L447.4 129.4Z" fill="white"/>
<path d="M449.3 140.9C419.9 137.3 395.5 120.9 371.9 105C346.3 87.6998 319.7 69.8998 287.5 69.3998C255.5 68.8998 221.2 81.3998 190.9 92.4998C184.6 94.7998 178.7 96.9998 172.8 98.9998C168.2 100.6 163.5 102.2 158.9 103.9C120.6 117.4 81 131.3 39.9001 135.9L39.8 134.9C80.9 130.4 120.4 116.4 158.6 102.9C163.2 101.3 167.9 99.5998 172.5 97.9998C178.4 95.8998 184.3 93.7998 190.6 91.4998C220.4 80.5998 254.1 68.2998 285.8 68.2998C286.4 68.2998 287 68.2998 287.6 68.2998C320.2 68.7998 346.8 86.6998 372.6 104.1C396.1 119.9 420.5 136.3 449.6 139.9L449.3 140.9Z" fill="white"/>
<path d="M451.3 151.8C421 148 397.2 129.2 374.3 111.1C349.7 91.6 324.2 71.5 291.1 71C257.7 70.4 222.2 85.4 190.9 98.6C185 101.1 179.4 103.4 173.9 105.7C169 107.7 164.1 109.7 159.2 111.7C120.5 127.6 80.6 143.9 38.2 148.8L38.1 147.8C80.3 143 120.2 126.6 158.8 110.8C163.7 108.8 168.6 106.8 173.5 104.8C179 102.6 184.6 100.2 190.5 97.7C221.9 84.5 257.4 69.5 291.1 70C324.6 70.5 350.1 90.7 374.9 110.3C397.7 128.4 421.4 147 451.4 150.8L451.3 151.8Z" fill="white"/>
<path d="M454 163.4C422.2 159.6 398.8 138.9 376.1 118.9C350.9 96.6999 327.1 75.7999 292.8 75.2999C257.8 74.8999 221.4 91.8999 189.3 107C183.9 109.5 178.8 111.9 173.7 114.2C168.5 116.6 163.2 119 158 121.4C119.2 139.3 79 157.8 35.7 162.6L35.6 161.6C78.7 156.8 118.8 138.3 157.6 120.5C162.8 118.1 168.1 115.7 173.3 113.3C178.4 111 183.5 108.6 188.9 106.1C221.1 90.9999 257.6 73.8999 292.8 74.2999C327.5 74.6999 352.5 96.7999 376.7 118.1C399.3 138 422.6 158.6 454.1 162.3L454 163.4Z" fill="white"/>
<path d="M456.4 172.3C424.3 169 400.2 149.2 376.9 130C352.1 109.7 326.5 88.7001 291.8 88.6001C291.7 88.6001 291.5 88.6001 291.4 88.6001C255 88.6001 217.5 105.4 184.5 120.2C179 122.7 173.9 125 168.7 127.2C164 129.2 159.4 131.3 154.7 133.3C115.9 150.4 75.8 168.1 32.7 172.1L32.6 171.1C75.5 167.1 115.5 149.4 154.3 132.4C159 130.3 163.6 128.3 168.3 126.3C173.5 124 178.7 121.7 184.1 119.3C217.2 104.4 254.8 87.6001 291.4 87.6001C291.5 87.6001 291.7 87.6001 291.8 87.6001C326.9 87.7001 352.6 108.8 377.5 129.3C400.7 148.3 424.7 168 456.5 171.3L456.4 172.3Z" fill="white"/>
<path d="M456.2 180.1C425.3 177.4 400.1 161.2 375.6 145.5C349.5 128.7 322.5 111.4 289 111.3C288.9 111.3 288.7 111.3 288.6 111.3C252.5 111.3 216.5 124.4 181.7 137.2C176.4 139.1 171 141.1 165.8 143C161.2 144.6 156.7 146.3 152.1 147.9C112.9 162 72.4 176.6 30 179.7L29.9 178.7C72.2 175.7 112.6 161.1 151.8 147C156.4 145.4 160.9 143.7 165.5 142.1C170.8 140.2 176.2 138.2 181.4 136.3C216.3 123.6 252.3 110.4 288.6 110.4C288.7 110.4 288.9 110.4 289 110.4C322.8 110.5 349.9 127.9 376.1 144.8C400.4 160.4 425.6 176.6 456.2 179.2V180.1Z" fill="white"/>
<path d="M453.8 187.5C424.6 184.9 399 171.6 374.2 158.7C347.2 144.7 319.3 130.2 287 130C286.8 130 286.5 130 286.3 130C251.3 130 216 140.7 181.8 151C175.7 152.8 169.5 154.7 163.4 156.5C159 157.8 154.5 159.1 150.1 160.4C110.4 172.1 69.3999 184.2 27.2999 187.1L27.2 186.1C69.2 183.2 110.2 171.1 149.8 159.5C154.2 158.2 158.7 156.9 163.1 155.6C169.2 153.8 175.4 151.9 181.5 150.1C215.7 139.7 251.1 129 286.3 129C286.5 129 286.8 129 287 129C319.5 129.1 347.5 143.7 374.6 157.8C399.3 170.6 424.8 183.9 453.8 186.4V187.5Z" fill="white"/>
<path d="M24.6 194.6V193.6C65.6 191.6 106.7 182 146.4 172.8C191.5 162.3 238.2 151.5 285 151.7C315.8 151.8 344.3 162.4 371.8 172.6C396.7 181.9 422.5 191.4 450 193.3L449.9 194.3C422.3 192.4 396.4 182.8 371.4 173.5C343.9 163.3 315.5 152.7 284.9 152.6C238.2 152.4 191.6 163.3 146.6 173.7C106.8 183 65.7 192.5 24.6 194.6Z" fill="white"/>
<path d="M21.8 202.1V201.1C63 200 104.6 194 144.9 188.2C190.1 181.7 236.8 174.9 283.1 175.1C312.1 175.2 340.6 181.5 368.2 187.7C393.1 193.2 418.8 199 444.9 200.1V201.1C418.7 200 393 194.3 368 188.7C340.5 182.6 312.1 176.3 283.1 176.2C236.9 176 190.2 182.8 145.1 189.3C104.7 195 63.1 201 21.8 202.1Z" fill="white"/>
<path d="M19.1 209.6V208.6C60 208.1 101.5 205.3 141.7 202.7C186.7 199.7 233.2 196.7 279.1 196.7C279.9 196.7 280.7 196.7 281.5 196.7C309.8 196.8 338.5 199.2 366.3 201.5C390.3 203.5 415.1 205.6 439.6 206.1V207.1C415.1 206.5 390.3 204.5 366.3 202.5C338.6 200.2 309.9 197.8 281.6 197.7C280.8 197.7 280 197.7 279.2 197.7C233.4 197.7 186.9 200.8 141.9 203.7C101.6 206.3 60 209.1 19.1 209.6Z" fill="white"/>
<path d="M280.9 222.4C280.7 222.4 280.5 222.4 280.2 222.4C229.8 222.3 178.6 220.9 129 219.6C92.1001 218.6 53.9 217.5 16.3 217V216C53.9 216.5 92.1001 217.5 129 218.6C178.5 220 229.8 221.4 280.1 221.4C280.3 221.4 280.5 221.4 280.8 221.4C307.7 221.4 334.7 219 360.9 216.7C384.8 214.6 409.5 212.4 434.1 212V213C409.6 213.4 384.9 215.6 361 217.7C334.9 220 307.9 222.4 280.9 222.4Z" fill="white"/>
<path d="M278.1 250.8C278 250.8 278 250.8 277.9 250.8C228.3 250.7 178 243.7 129.4 237C91.4999 231.7 52.2999 226.3 13.7 224.1L13.7999 223.1C52.3999 225.2 91.6999 230.7 129.6 236C178.2 242.8 228.4 249.8 278 249.8C278.1 249.8 278.1 249.8 278.2 249.8C306.5 249.8 333 241.6 358.7 233.7C381.2 226.8 404.5 219.6 429.1 217.8L429.2 218.8C404.7 220.6 381.5 227.7 359 234.7C333.2 242.6 306.5 250.8 278.1 250.8Z" fill="white"/>
<path d="M275.7 277.6C275.6 277.6 275.6 277.6 275.5 277.6C240.9 277.5 205.6 269.1 171.5 261C165.3 259.5 158.8 258 152.6 256.6C105.2 245.7 58.7999 235.6 11.2 231.4L11.2999 230.4C59 234.6 105.5 244.7 152.9 255.6C159.1 257 165.6 258.6 171.8 260C205.9 268.1 241.1 276.5 275.6 276.6C275.7 276.6 275.7 276.6 275.8 276.6C299.4 276.6 323.1 269.4 344.4 255.7C371.3 238.4 393 227.7 424.4 223.9L424.5 224.9C393.3 228.7 371.7 239.4 345 256.6C323.4 270.3 299.5 277.6 275.7 277.6Z" fill="white"/>
<path d="M273.3 301.8C273.2 301.8 273.1 301.8 273 301.8C238.2 301.7 202.6 290.1 168.2 279C161.9 276.9 155.9 275 149.9 273.1C106.8 259.6 58 244.3 8.40002 238.8L8.50002 237.8C58.3 243.3 107.1 258.6 150.2 272.1C156.2 274 162.2 275.9 168.5 278C202.8 289.2 238.3 300.7 273 300.8C273.1 300.8 273.2 300.8 273.3 300.8C296.6 300.8 320.7 290.9 341.3 272.8C366.8 250.4 386.1 235.4 420.2 230L420.4 231C386.6 236.3 367.4 251.3 342 273.5C321.3 291.8 296.9 301.8 273.3 301.8Z" fill="white"/>
<path d="M271.4 322.6C271.2 322.6 271.1 322.6 270.9 322.6C235.1 322.4 197.4 307.5 164.2 294.3C158.4 292 152.9 289.9 147.5 287.8L144.6 286.7C100.1 269.7 54.1 252 5.69995 246.4L5.79995 245.4C54.3999 251.1 100.5 268.7 145 285.8L147.9 286.9C153.4 289 158.8 291.2 164.6 293.4C197.8 306.5 235.4 321.4 271 321.6C301.7 321.8 325.1 303.6 339.3 288.2L340 287.5C364 261.6 381.4 242.9 417.7 236.6L417.9 237.6C382 243.8 364.7 262.4 340.8 288.2L340.1 288.9C325.6 304.3 302.2 322.6 271.4 322.6Z" fill="white"/>
<path d="M270 339C269.8 339 269.6 339 269.3 339C232.1 338.7 193.6 321.6 159.7 306.6C154.8 304.4 150 302.3 145.2 300.2L138 297.1C95 278.4 50.6 259.1 2.69995 254.1L2.79995 253.1C50.7999 258.1 95.2999 277.4 138.4 296.2L145.6 299.3C150.3 301.4 155.2 303.5 160.1 305.7C193.9 320.7 232.2 337.7 269.3 338C269.5 338 269.7 338 270 338C295.4 338 318.3 325.6 338.1 301.3C339.4 299.7 340.7 298.1 342 296.5C363.2 270.3 379.9 249.6 416.5 243.6L416.7 244.6C380.5 250.6 363.9 271.1 342.8 297.2C341.5 298.8 340.2 300.4 338.9 302C318.8 326.5 295.7 339 270 339Z" fill="white"/>
<path d="M270.1 350.2C269.6 350.2 269.1 350.2 268.6 350.2C219.2 349.3 174.1 327.3 130.4 306.1C89.1 286 46.4 265.2 0 262L0.1 261C46.7 264.2 89.5 285 130.9 305.2C174.5 326.4 219.6 348.4 268.7 349.2C296.1 349.7 318.9 337.3 338.5 311.5C340.4 309 342.2 306.5 344 304.1C364.3 277 380.3 255.6 417.7 250.8L417.8 251.8C380.8 256.6 364.9 277.8 344.8 304.8C343 307.2 341.2 309.7 339.3 312.2C319.7 337.7 297.1 350.2 270.1 350.2Z" fill="white"/>
</svg>
