<svg width="468" height="275" viewBox="0 0 468 275" fill="none" xmlns="http://www.w3.org/2000/svg">
<path d="M0 274.8L0.6 273.9C15.6 252.4 23.7 227.7 31.5 203.7C34.2 195.4 37 186.7 40.1 178.3C46.3 161.5 54.5 142.6 74 132.6C78.8 130.1 83.3 128.4 87.3 126.9C98.2 122.8 106.8 119.6 112.3 104.5C118 89 119 72.4 120 56.3C121.1 37.5 122.3 18 131 0.300003L131.2 0H131.5C162.7 3 192 14.6 220.4 25.8C248.7 37 278 48.5 309 51.5H309.2L309.3 51.6C316.3 57.3 324.5 61.5 332.4 65.5C341.2 70 350.3 74.6 357.8 81.4C370.1 92.5 376.9 108.7 383.4 124.3C385.6 129.5 387.7 134.5 389.9 139.2C396.8 153.8 405.9 170.4 420.2 183.4C426.7 189.3 433.6 194.4 440.4 199.4C449.2 205.9 458.2 212.6 466.3 220.9L467.2 221.8H466C443.2 221 420.7 217 398.9 213.1C383.2 210.3 366.9 207.3 350.6 205.7C313 201.8 278.4 210.2 240.4 220.6C238.2 221.2 235.9 221.8 233.7 222.4C215.5 227.4 196.7 232.6 177.7 235.2C170.6 236.2 163.3 236.6 156.3 237.1C145.5 237.8 134.3 238.5 123.4 241.1C107.5 244.9 91.9 250.3 76.9 255.6C52.8 264 27.9 272.8 1.2 274.6L0 274.8ZM131.8 1.1C123.4 18.5 122.2 37.7 121.1 56.4C120.1 72.6 119.1 89.3 113.4 104.9C107.7 120.4 98.9 123.7 87.8 127.9C83.6 129.5 79.3 131.1 74.6 133.5C55.4 143.4 47.3 162 41.2 178.7C38.1 187.1 35.3 195.7 32.6 204C24.9 227.7 16.9 252.2 2.1 273.6C28.3 271.6 52.8 263.1 76.5 254.7C91.6 249.4 107.1 244 123.1 240.2C134.1 237.6 145.3 236.9 156.2 236.2C163.2 235.7 170.4 235.3 177.5 234.3C196.4 231.7 215.2 226.5 233.4 221.5C235.6 220.9 237.9 220.3 240.1 219.7C278.2 209.2 312.9 200.9 350.7 204.8C367 206.5 383.3 209.4 399 212.2C420.4 216 442.4 220 464.8 220.9C457 213 448.3 206.6 439.9 200.4C433.1 195.4 426.2 190.2 419.6 184.3C405.2 171.2 396.1 154.5 389.1 139.8C386.8 135 384.7 130.1 382.5 124.8C376 109.3 369.3 93.3 357.1 82.3C349.7 75.6 340.7 71 331.9 66.5C324 62.5 315.9 58.3 308.8 52.6C277.7 49.6 248.4 38 220 26.8C191.9 15.7 162.7 4.2 131.8 1.1Z" fill="white"/>
<path d="M312.7 56.2C281.5 53.8 251.8 42.3 223.1 31.2C192.7 19.4 161.4 7.2 128.3 6V5C161.5 6.2 193 18.4 223.5 30.3C252.1 41.4 281.7 52.9 312.8 55.3L312.7 56.2Z" fill="white"/>
<path d="M313.8 59.5C281.9 59.5 251.3 47.7 221.7 36.3C190.9 24.4 159 12.1 125.8 13.3V12.3C159.2 11.2 191.2 23.5 222.1 35.4C252.6 47.2 284.2 59.4 317.1 58.5V59.5C316 59.5 314.9 59.5 313.8 59.5Z" fill="white"/>
<path d="M322 62.4C290.2 62 259.3 53 229.4 44.3C227.1 43.6 224.8 43 222.5 42.3C216.9 40.7 211.3 38.9 205.3 37C179.4 28.9 150 19.7 123.7 22.9L123.6 21.9C150.1 18.6 179.6 27.9 205.6 36C211.6 37.9 217.2 39.6 222.8 41.2C225.1 41.9 227.4 42.5 229.7 43.2C259.5 51.9 290.3 60.9 322 61.3V62.4Z" fill="white"/>
<path d="M327.6 65.3C296.8 64.8 265.6 57.2 235.5 49.8C198.3 40.7 159.8 31.3 122.2 35.4L122.1 34.4C159.9 30.3 198.5 39.8 235.8 48.9C265.9 56.3 297.1 63.9 327.7 64.4L327.6 65.3Z" fill="white"/>
<path d="M334 68.1C297.2 66.3 262.2 63 227 57.9C222 57.2 217.1 56.4 212.1 55.7C182.1 51.1 151.1 46.4 120.9 50.1L120.8 49.1C151.2 45.4 182.2 50.2 212.3 54.7C217.3 55.5 222.3 56.2 227.2 56.9C262.4 62 297.3 65.3 334.1 67.1L334 68.1Z" fill="white"/>
<path d="M341.1 71.5C318.1 69.4 294.5 69 271.6 68.6C257.9 68.4 243.8 68.1 230 67.5C223.6 67.2 217 66.9 210.7 66.6C180.6 65.1 149.6 63.5 119.4 66.9L119.3 65.9C149.5 62.5 180.7 64.1 210.8 65.6C217.1 65.9 223.7 66.3 230.1 66.5C243.9 67.1 258.1 67.3 271.7 67.6C294.6 68 318.2 68.4 341.2 70.5L341.1 71.5Z" fill="white"/>
<path d="M117.3 84.9L117.2 83.9C137.4 82.3 157.9 81.3 177.8 80.4C196 79.5 214.8 78.6 233.2 77.3C239.9 76.8 246.6 76.2 253.2 75.7C284.7 73.1 317.3 70.4 349.1 75L349 76C317.3 71.4 284.8 74.1 253.3 76.7C246.7 77.2 239.9 77.8 233.3 78.3C214.8 79.7 196.1 80.5 177.9 81.4C158 82.4 137.5 83.4 117.3 84.9Z" fill="white"/>
<path d="M113.7 102.7V101.7C161.1 100 198.9 96 236.2 88.9L240.7 88C280.3 80.4 317.6 73.2 357.8 81.5L357.6 82.5C317.6 74.2 280.3 81.4 240.9 89L236.4 89.9C199 97 161.1 101 113.7 102.7Z" fill="white"/>
<path d="M107 117.7V116.7C159.3 116.6 197.2 111.9 237.7 100.5C280.6 88.4 319.9 79.4 366.8 91.8L366.5 92.8C319.9 80.5 280.7 89.4 238 101.5C197.3 112.9 159.4 117.6 107 117.7Z" fill="white"/>
<path d="M95.2999 125.8L95.2 124.8C99.1 124.6 102.9 124.4 106.8 124.2C150.9 121.8 192.6 119.5 236.5 111.1C285.8 101.6 327.3 95.4 375.9 108.4L375.6 109.4C327.2 96.4 285.8 102.6 236.7 112.1C192.8 120.5 151.1 122.8 106.9 125.2C103.1 125.4 99.1999 125.6 95.2999 125.8Z" fill="white"/>
<path d="M385.6 131.7C343.6 123.4 302.9 123 259.9 122.6C250.9 122.5 241.6 122.4 232.4 122.3L224.9 122.2C175.2 121.3 128.3 120.4 80.1 131.2L79.9 130.2C128.2 119.3 175.2 120.2 224.9 121.2L232.4 121.3C241.6 121.5 250.9 121.6 259.9 121.6C303 122 343.7 122.4 385.8 130.7L385.6 131.7Z" fill="white"/>
<path d="M398.1 156.7C383.2 155.5 367.9 154.9 353.1 154.3C337.5 153.7 321.5 153.1 305.7 151.7C281.8 149.6 258.1 142.8 235.2 136.1C232.2 135.2 229.2 134.3 226.2 133.5C222.1 132.3 217.9 131.1 213.8 129.9C192 123.5 169.5 116.8 146.9 115.4C118 113.6 92.1 126.3 67 138.6L62.9 140.6L62.5 139.7L66.6 137.7C91.8 125.3 117.8 112.5 147 114.4C169.7 115.8 192.2 122.5 214.1 129C218.3 130.2 222.4 131.5 226.5 132.6C229.5 133.5 232.5 134.3 235.6 135.2C258.4 141.8 282.1 148.7 305.9 150.7C321.6 152.1 337.7 152.7 353.2 153.3C368 153.9 383.2 154.4 398.2 155.7L398.1 156.7Z" fill="white"/>
<path d="M349.7 180.4C338.1 180.4 326.5 180.3 314.9 179.9C284 178.8 255.7 165.9 228.3 153.4C226.5 152.6 224.6 151.7 222.8 150.9C219 149.2 215.2 147.4 211.1 145.5C184.7 133.1 154.8 119 126 122.5C102.9 125.3 83 139.4 63.8 153.1C57.9 157.3 52.3 161.3 46.6 164.9L46.1 164.1C51.8 160.4 57.4 156.5 63.3 152.3C82.6 138.5 102.6 124.3 125.9 121.4C154.9 117.9 185 132 211.5 144.4C215.5 146.3 219.4 148.1 223.2 149.8C225 150.6 226.9 151.5 228.7 152.3C256 164.8 284.2 177.6 314.9 178.7C336.9 179.5 359.4 179.2 381.2 179C392.3 178.9 403.8 178.8 415.1 178.8V179.8C403.8 179.8 392.3 179.9 381.2 180C370.8 180.3 360.3 180.4 349.7 180.4Z" fill="white"/>
<path d="M28.5 216.3L28.2 215.4C41.4 210.5 54.3 203.6 66.9 196.9C86.1 186.6 106 176 127.5 172.2C154.6 167.4 183.6 172.4 211.7 177.2C218.2 178.3 224.3 179.4 230.4 180.3C288.7 189.2 348.8 192.2 406.9 195.2C417.3 195.7 427.7 196.3 438 196.8L437.9 197.8C427.5 197.2 417.2 196.7 406.8 196.2C348.7 193.2 288.6 190.2 230.2 181.3C224.1 180.4 217.9 179.3 211.4 178.2C183.4 173.4 154.4 168.5 127.5 173.2C106.2 176.9 86.4 187.5 67.2 197.8C54.8 204.5 41.7 211.4 28.5 216.3Z" fill="white"/>
<path d="M436 219.7C428.8 210.1 420.5 204 411.7 197.6C406.7 194 401.5 190.2 396.5 185.7C382.7 173.3 376.3 155.6 370 138.4L369.3 136.5C367.8 132.4 366.4 128.1 365 123.7C359.5 106.6 353.9 89 340.1 78C334.1 73.2 327.5 69.8 321.1 66.5C313.2 62.4 305.1 58.2 298.1 51.5L298.8 50.8C305.7 57.4 313.8 61.6 321.6 65.6C328 68.9 334.7 72.4 340.7 77.2C354.8 88.4 360.5 106.2 366 123.4C367.4 127.9 368.8 132.1 370.3 136.2L371 138.1C377.2 155.2 383.6 172.8 397.2 185C402.2 189.5 407.4 193.3 412.3 196.9C421.1 203.3 429.5 209.4 436.8 219.2L436 219.7Z" fill="white"/>
<path d="M408.4 215.3C402.2 206.3 394.9 201.7 387.2 196.8C381.4 193.1 375.4 189.4 369.9 183.6C359.2 172.4 355 155.4 351.2 140.3C350.7 138.1 350.1 136 349.6 133.9C348.7 130.5 347.9 126.9 347 123.1C343.3 106.9 339.2 88.6 326.9 77.8C321.4 72.9 315.3 69.4 309.4 66C301.7 61.5 293.8 56.9 287.1 49.4L287.8 48.7C294.5 56.1 302.3 60.7 309.9 65.1C315.8 68.6 322 72.1 327.6 77.1C340.1 88.1 344.3 106.6 348 122.9C348.9 126.7 349.7 130.3 350.5 133.7C351 135.8 351.6 137.9 352.1 140.1C355.8 155 360 171.9 370.5 182.9C375.9 188.6 381.9 192.3 387.6 196C395.4 200.9 402.8 205.6 409.1 214.8L408.4 215.3Z" fill="white"/>
<path d="M381.3 210.2C375.5 202 369 198.5 362.1 194.8C357.1 192.1 351.9 189.3 346.9 184.6C336.2 174.5 333.5 157.1 331.1 141.8C330.6 138.5 330.1 135.3 329.5 132.3C328.9 129.1 328.4 125.8 327.8 122.3C325.1 105.4 322.3 87.9 309.7 76.4C305.3 72.4 300.8 69.1 296.5 65.9C289 60.3 281.8 55.1 275.4 46.6L276.2 46C282.6 54.4 289.6 59.6 297.1 65.1C301.4 68.3 305.9 71.6 310.4 75.6C323.3 87.3 326.1 105 328.8 122C329.3 125.5 329.9 128.7 330.5 132C331.1 135 331.5 138.2 332.1 141.5C334.4 156.7 337.1 173.9 347.6 183.8C352.5 188.5 357.7 191.2 362.6 193.9C369.6 197.7 376.2 201.2 382.2 209.7L381.3 210.2Z" fill="white"/>
<path d="M353.6 205.9C348.2 198.5 342.7 196.2 336.9 193.9C332.5 192.1 328 190.3 323.3 186.2C312.4 176.8 311.1 157.5 310 142C309.7 138.3 309.5 134.8 309.1 131.7C308.8 129.2 308.5 126.6 308.3 124.1C306.7 108.5 305 92.3 295.4 79.3C291.1 73.5 286.1 68.5 281.3 63.7C275.1 57.5 268.7 51.1 263.6 42.8L264.5 42.3C269.5 50.5 275.9 56.9 282.1 63C287 67.8 292 72.9 296.3 78.7C306.1 91.9 307.7 108.2 309.4 123.9C309.7 126.5 309.9 129 310.2 131.5C310.6 134.6 310.8 138.1 311.1 141.9C312.2 157.2 313.5 176.3 324.1 185.4C328.7 189.4 333.2 191.2 337.5 192.9C343.5 195.3 349.1 197.6 354.7 205.2L353.6 205.9Z" fill="white"/>
<path d="M323.9 203.9C321.3 196.3 315.5 194 309.5 191.6C305.2 189.9 300.8 188.1 297.3 184.4C287.9 174.5 287.8 155.6 287.7 140.5C287.7 137 287.7 133.7 287.5 130.8C287.4 129.1 287.3 127.3 287.3 125.6C286.6 110.2 286 95.6 278.7 81.7C275 74.7 270.4 68.2 265.9 61.9C260.7 54.6 255.3 47.1 251.3 38.5L252.2 38.1C256.2 46.6 261.5 54.1 266.7 61.3C271.2 67.6 275.9 74.1 279.6 81.2C287 95.3 287.6 110 288.3 125.6C288.4 127.3 288.4 129 288.5 130.8C288.6 133.7 288.7 137.1 288.7 140.6C288.8 155.6 288.9 174.2 298 183.9C301.4 187.4 305.7 189.2 309.9 190.9C315.9 193.3 322.2 195.8 324.9 203.8L323.9 203.9Z" fill="white"/>
<path d="M291.5 207.4C289.2 200.4 284.5 195.6 279.5 190.5C275.6 186.5 271.6 182.4 268.9 177.2C262.1 164.1 263.3 148 264.4 133.9C264.5 132.2 264.7 130.5 264.8 128.9L265 126.1C266 111.8 266.9 98.3 261.6 84.6C258.6 76.9 254.8 69.4 251.2 62.2C246.7 53.2 242 43.9 238.7 33.9L239.6 33.6C242.9 43.5 247.6 52.8 252.1 61.7C255.7 68.9 259.5 76.4 262.5 84.2C267.9 98.1 267 111.8 266 126.2L265.8 129C265.7 130.7 265.6 132.3 265.4 134C264.3 148 263.1 163.9 269.8 176.8C272.4 181.9 276.4 185.9 280.2 189.8C285 194.8 290.1 199.9 292.4 207.1L291.5 207.4Z" fill="white"/>
<path d="M257.2 215.5C254.9 205.3 251.6 196.4 248.4 187.7C241.4 168.7 234.8 150.7 241.7 126.5C248.7 101.7 242 81.2 234.9 59.5C231.7 49.8 228.4 39.7 226.2 28.9L227.2 28.7C229.4 39.4 232.7 49.5 235.8 59.1C243 81 249.8 101.6 242.7 126.7C235.9 150.6 242.2 167.6 249.4 187.3C252.6 196 255.9 205 258.3 215.2L257.2 215.5Z" fill="white"/>
<path d="M222.2 225C221.4 215.1 218.6 204.6 215.7 193.5C209.2 168.8 202.5 143.3 218.3 123.8C233.7 104.7 226.9 79.8 220.3 55.7C217.2 44.5 214.3 34 213.5 24L214.5 23.9C215.3 33.8 218.2 44.3 221.3 55.4C228 79.7 234.9 104.9 219.2 124.4C203.8 143.5 210.4 168.8 216.8 193.3C219.7 204.4 222.5 215 223.3 225H222.2Z" fill="white"/>
<path d="M188.9 233H187.9C188 216.5 185.8 200 183.6 184.1C182.1 172.8 180.5 161.1 179.7 149.4C178.3 127.8 178.8 127 195.2 121.2C207.8 116.7 210.6 112.3 210 97.6C209.5 85.7 207.4 73.9 205.4 62.5C202.9 48.4 200.4 33.8 200.8 19H201.8C201.4 33.7 204 48.3 206.4 62.3C208.4 73.8 210.5 85.6 211 97.5C211.6 112.6 208.6 117.5 195.6 122.1C179.7 127.8 179.4 128.3 180.7 149.3C181.4 161 183 172.6 184.6 183.9C186.8 199.9 189 216.4 188.9 233Z" fill="white"/>
<path d="M156.5 236.6L155.5 236.5C156.9 218.1 155.2 199.5 153.6 181.6C152.3 167.4 150.9 152.7 151.1 138C151.3 127.3 152.4 122.4 155.4 119.9C158.7 117.1 164.3 117.8 173 119.3C180.2 120.5 184.4 120.2 187.2 118.1C190.1 115.9 191.7 111.7 192.6 103.5C194.3 88.9 192.4 74 190.5 59.6C188.5 44.7 186.5 29.4 188.5 14.1L189.5 14.2C187.5 29.4 189.6 44.7 191.5 59.5C193.4 73.9 195.4 88.9 193.6 103.6C192.6 112.1 190.9 116.5 187.8 118.9C184.8 121.1 180.3 121.5 172.9 120.3C164.5 118.8 159.1 118.1 156.1 120.6C153.4 122.8 152.3 127.7 152.2 137.9C152 152.5 153.4 167.2 154.7 181.4C156.2 199.5 157.9 218.1 156.5 236.6Z" fill="white"/>
<path d="M125.5 240.4L124.5 240.2C127.7 219.5 126.8 198.5 126.1 178.1C125.6 166 125.2 153.6 125.5 141.2C125.9 128.5 127.1 119.9 132.1 116.6C136 114 142 114.6 151.4 118.4C160.2 121.9 165.4 122.5 168.9 120.4C172.5 118.2 174.6 112.9 175.7 102.5C177.2 88.7 176.1 74.9 175 61.5C173.6 44.7 172.2 27.3 176.1 9.90002L177.1 10.1C173.2 27.3 174.7 44.6 176.1 61.4C177.2 74.8 178.4 88.7 176.8 102.6C175.6 113.5 173.5 118.9 169.5 121.2C165.7 123.5 160.2 122.9 151.1 119.2C142.1 115.6 136.2 115 132.7 117.3C128 120.4 126.9 128.7 126.5 141.1C126.2 153.4 126.6 165.9 127.1 177.9C127.8 198.5 128.7 219.6 125.5 240.4Z" fill="white"/>
<path d="M94.5 249.7L93.5 249.5C98.8 228.4 99.5 206.7 100.2 185.8C100.6 172.3 101.1 158.4 102.7 144.7C104.3 131.6 106.2 123.8 111.5 120.1C115.6 117.2 121.7 117 131 119.2C132.4 119.5 133.8 119.9 135.1 120.2C148.3 123.5 154.9 125.2 159.3 108.1C163.3 92.3 162.2 75.7 161.1 59.7C159.9 42.1 158.7 23.9 164.1 6.40002L165.1 6.70003C159.8 24 161 42.1 162.1 59.6C163.2 75.7 164.3 92.4 160.2 108.3C155.6 126.4 148.2 124.5 134.8 121.1C133.5 120.8 132.1 120.4 130.7 120.1C121.6 117.9 115.9 118.1 112 120.8C107 124.3 105.2 131.9 103.6 144.7C101.9 158.4 101.5 172.3 101.1 185.7C100.5 206.7 99.8 228.5 94.5 249.7Z" fill="white"/>
<path d="M63.5 260.8L62.6 260.4C71.4 237.1 74.2 212.4 76.9 188.4C78.1 177.6 79.4 166.5 81.2 155.6C84.2 137.2 88.5 122 110.5 122C110.9 122 111.2 122 111.6 122C113.6 122 115.5 122.1 117.3 122.2C133.7 122.8 141.1 123.1 144.3 101.1C146.1 88.4 145.9 75.3 145.7 62.7C145.4 43 145.1 22.6 152.6 3.20001L153.5 3.60001C146 22.7 146.3 43 146.6 62.7C146.8 75.4 147 88.5 145.2 101.3C141.9 124.2 133.6 123.9 117.2 123.2C115.4 123.1 113.5 123.1 111.5 123C111.1 123 110.8 123 110.5 123C89.3 123 85.1 137.8 82.2 155.7C80.4 166.6 79.2 177.7 77.9 188.5C75.2 212.6 72.4 237.4 63.5 260.8Z" fill="white"/>
<path d="M32.5 270.3L31.6 269.8C43.5 247.1 48.7 222.3 53.8 198.2C55.8 188.7 57.8 178.9 60.3 169.3C65.7 148.2 71.5 131.7 92.6 126.8C95.9 126 99 125.5 102 125C113.7 123.1 122.1 121.7 127.2 107C132.7 91.2 132.8 74.2 132.9 57.8C133 38.9 133.1 19.3 141.5 1.20001L142.4 1.60001C134.1 19.5 134 38.9 133.9 57.8C133.8 74.3 133.7 91.3 128.2 107.3C122.9 122.6 113.8 124.1 102.2 126C99.2 126.5 96.1 127 92.8 127.8C72.1 132.6 66.7 148.2 61.2 169.6C58.8 179.2 56.7 189 54.7 198.4C49.7 222.6 44.5 247.5 32.5 270.3Z" fill="white"/>
</svg>
