<svg width="400" height="403" viewBox="0 0 400 403" fill="none" xmlns="http://www.w3.org/2000/svg">
<path d="M397 402.087L396.4 401.987C374.4 398.687 360.1 385.287 346.2 372.287C335.2 361.987 323.9 351.387 308.7 345.587C280.4 334.787 248.4 352.187 222.6 366.087C218.8 368.087 215.3 370.087 211.8 371.887C174.4 391.387 146.6 401.887 107 401.887C105.8 401.887 104.5 401.887 103.3 401.887C90.2 401.887 77.2 401.887 64.1 401.887C42.9 401.887 21.8 401.887 0.599998 401.887H0.0999985V401.387C0.0999985 379.587 0.0999985 357.687 0.0999985 335.887C0.0999985 322.787 0.0999985 309.687 0.0999985 296.587C0.0999985 254.787 9.2 223.987 23.8 187.787C25.3 184.087 26.9 180.287 28.6 176.387C40.5 148.187 53.9 116.287 43.8 87.1865C39.1 73.6865 31.2 62.3865 23.5 51.5865C13.1 37.0865 2.4 21.8865 0.0999985 1.28654L0 0.68654H0.599998C25.3 2.08654 49.6 7.38654 73.1 12.3865C91.9 16.3865 111.2 20.5865 130.7 22.7865C157.6 25.8865 180.9 20.8865 207.5 12.3865C209.6 11.6865 211.8 10.9865 214.1 10.2865C234.9 3.48654 260.7 -4.91346 281 3.58654C293.7 8.88654 301.1 18.1865 308.4 27.0865C317.7 38.4865 326.4 49.2865 345.2 52.2865L345.6 52.3865L345.7 52.7865C348.6 71.8865 359.2 80.5865 370.5 89.8865C378.9 96.7865 387.6 103.887 393.2 115.687C401.3 132.587 399.7 157.287 398.2 179.187C397.7 187.187 397.2 194.787 397.2 201.387C397.2 259.487 397.2 323.087 397.2 401.487L397 402.087ZM1.1 400.987C22.1 400.987 43.1 400.987 64.1 400.987C78.4 400.987 92.7 400.987 107 400.987C146.4 400.987 174.1 390.487 211.4 371.087C214.9 369.287 218.4 367.387 222.2 365.287C248.2 351.187 280.5 333.687 309.2 344.687C324.6 350.587 336 361.287 347 371.587C361.3 384.887 374.7 397.487 396.1 400.987C396.1 322.787 396.1 259.387 396.1 201.487C396.1 194.787 396.6 187.187 397.1 179.187C398.5 157.487 400.2 132.887 392.2 116.187C386.7 104.587 378.1 97.5865 369.8 90.7865C358.5 81.4865 347.7 72.6865 344.7 53.4865C325.8 50.3865 316.6 38.9865 307.7 27.9865C300.5 19.1865 293.2 9.98654 280.7 4.78654C260.8 -3.61346 235.1 4.78654 214.5 11.4865C212.2 12.1865 210 12.9865 207.9 13.5865C168.6 26.0865 147.6 25.9865 130.6 23.9865C111.1 21.7865 91.7 17.5865 72.9 13.4865C49.6 8.48654 25.6 3.28654 1.2 1.78654C3.6 21.7865 13.6 36.0865 24.2 51.0865C31.9 61.9865 39.8 73.2865 44.6 86.9865C54.8 116.387 41.3 148.487 29.4 176.887C27.7 180.887 26.2 184.587 24.7 188.287C10.1 224.387 1 255.087 1 296.687C1 309.787 1 322.887 1 335.987C1.1 357.687 1.1 379.287 1.1 400.987Z" fill="white"/>
<path d="M350.5 74.4865C333.2 71.3866 320.5 62.0865 308.3 53.0865C298.3 45.6865 287.9 38.0866 275 33.8866C254.6 27.1866 231.4 33.1866 210.9 38.3866C208.6 38.9866 206.4 39.5865 204.1 40.0865C180.7 45.8865 155.6 51.2865 128.5 48.0865C110 45.8865 91.6001 41.5866 73.9001 37.3866C51.8001 32.2866 28.9001 26.8865 5.6001 25.5865L5.7001 24.5865C29.1001 25.8865 52.0001 31.2865 74.1001 36.4865C91.8001 40.5865 110.1 44.8865 128.6 47.0865C155.5 50.2865 180.6 44.8865 203.9 39.0865C206.1 38.4865 208.4 37.9866 210.7 37.3866C231.3 32.0866 254.7 26.0866 275.4 32.8866C288.4 37.0866 298.9 44.7865 309 52.2865C321.2 61.2865 333.7 70.5865 350.8 73.5865L350.5 74.4865Z" fill="white"/>
<path d="M363.3 88.3866C344.1 86.6866 325.9 81.1865 308.2 75.7865C294 71.4865 279.3 67.0865 264.3 64.5865C243.5 61.2865 222.1 63.5866 201.3 65.8866C199.4 66.0866 197.4 66.2865 195.5 66.4865L191 66.9865C169.4 69.2865 147 71.7865 125.2 68.7865C108.8 66.5865 92.7 62.0865 77.2 57.7865C58 52.4865 38.2 46.8865 17.5 45.5865L17.6 44.5865C38.4 45.8865 58.3 51.4865 77.6 56.7865C93.1 61.0865 109.1 65.5865 125.4 67.7865C147.1 70.7865 169.4 68.2865 191 65.9865L195.5 65.4865C197.4 65.2865 199.4 65.0866 201.3 64.8866C222.2 62.5866 243.7 60.1865 264.6 63.5865C279.7 65.9865 294.4 70.4865 308.7 74.7865C326.3 80.0865 344.5 85.5865 363.6 87.2865L363.3 88.3866Z" fill="white"/>
<path d="M348.4 99.9865C297.1 99.9865 240.2 98.6865 185.1 93.0865C176.3 92.1865 167.1 91.7865 158.3 91.4865C146.1 90.9865 133.4 90.5865 121.2 88.5865C107.1 86.2865 93.8002 81.5865 81.0002 77.0865C65.2002 71.5865 48.9002 65.7865 31.2002 64.5865L31.3002 63.5865C49.2002 64.8865 65.5002 70.5865 81.4002 76.1865C94.2002 80.6865 107.5 85.2865 121.4 87.5865C133.5 89.5865 146.1 89.9865 158.3 90.4865C167.1 90.7865 176.3 91.1865 185.2 92.0865C251.2 98.8865 319.9 99.2866 378.4 98.8866V99.8866C368.8 99.8866 358.7 99.9865 348.4 99.9865Z" fill="white"/>
<path d="M225.3 127.387C209.4 127.387 194 125.387 176.6 119.587C164.8 115.587 152.9 114.187 141.4 112.887C133 111.887 124.3 110.887 115.5 108.887C104.3 106.287 94.3999 101.887 84.6999 97.5865C71.2999 91.5865 58.6999 85.9865 42.8999 84.6865L42.9999 83.6865C58.8999 84.9865 72.1999 90.8865 85.0999 96.5865C94.6999 100.887 104.6 105.287 115.7 107.887C124.4 109.887 133 110.887 141.4 111.887C153 113.187 164.9 114.587 176.8 118.587C201.3 126.887 221.9 127.287 245.3 125.487C265.8 123.887 286.5 121.887 306.6 119.987C334.2 117.287 362.8 114.587 391 112.787L391.1 113.787C362.9 115.587 334.4 118.287 306.8 120.987C286.7 122.887 265.9 124.887 245.4 126.487C238.6 126.987 231.9 127.387 225.3 127.387Z" fill="white"/>
<path d="M217.6 156.887C202 156.887 188.2 154.187 172.9 146.087C160.2 139.387 148.3 137.987 135.8 136.587C129.4 135.887 122.8 135.087 115.8 133.587C104.5 131.187 95.0002 126.287 85.8002 121.587C74.4002 115.787 62.7002 109.787 47.7002 108.587L47.8002 107.587C63.0002 108.787 74.8002 114.887 86.3002 120.687C95.4002 125.387 104.9 130.187 116 132.587C122.9 134.087 129.5 134.787 135.9 135.587C148.5 136.987 160.4 138.387 173.3 145.187C194.1 156.187 211.9 157.087 235.7 154.887C259.5 152.687 283.4 148.887 306.6 145.187C335.9 140.487 366.1 135.687 396.3 134.087L396.4 135.087C366.3 136.587 336 141.487 306.8 146.187C283.6 149.887 259.6 153.687 235.8 155.887C229.5 156.487 223.4 156.887 217.6 156.887Z" fill="white"/>
<path d="M225.8 180.986C208.6 180.986 192.8 177.887 173.9 168.687C157.5 160.687 143.4 158.687 127.1 156.387C121.7 155.587 116 154.786 110.1 153.786C100.2 151.986 90.6998 149.287 81.3998 146.687C69.0998 143.187 56.2998 139.586 42.7998 138.286L42.8998 137.286C56.4998 138.586 69.2998 142.286 81.6998 145.786C90.8998 148.386 100.4 151.087 110.3 152.887C116.3 153.987 121.9 154.786 127.3 155.486C143.7 157.786 157.9 159.787 174.4 167.887C200.1 180.487 219.9 181.487 245.5 179.087C266.7 177.087 288.1 173.986 308.8 170.986C337.4 166.886 367 162.587 396.4 161.087L396.5 162.087C367.1 163.687 337.6 167.886 309 171.986C288.3 174.986 266.8 178.087 245.6 180.087C238.6 180.487 232.1 180.986 225.8 180.986Z" fill="white"/>
<path d="M243.8 201.987C219.5 201.987 199.8 196.987 176 185.287C148.6 171.787 127.1 166.987 99.3001 167.887C90.1001 168.187 80.8001 168.887 71.8001 169.587C58.5001 170.587 44.8001 171.587 31.1001 171.387V170.387C44.8001 170.587 58.5001 169.587 71.7001 168.587C80.7001 167.887 90.0001 167.287 99.2001 166.887C127.2 165.987 148.8 170.887 176.3 184.387C205.1 198.587 228 202.887 260.5 200.287C278.6 198.887 296.9 196.787 314.6 194.687C341.3 191.687 368.9 188.487 396.3 187.487V188.487C369 189.487 341.4 192.687 314.7 195.687C297 197.687 278.6 199.787 260.5 201.287C254.8 201.787 249.2 201.987 243.8 201.987Z" fill="white"/>
<path d="M263 222.587C231.2 222.587 206.8 213.887 178.6 200.187L178.1 199.987C149.3 185.987 119.5 171.387 87.0002 181.287C77.4002 184.187 68.7002 188.187 60.3002 192.087C46.7002 198.387 33.8002 204.287 17.3002 205.987L17.2002 204.987C33.5002 203.387 46.3002 197.487 59.9002 191.187C68.3002 187.287 77.1002 183.287 86.8002 180.287C119.7 170.387 149.6 184.987 178.6 199.087L179.1 199.287C209.4 214.087 235.3 222.887 270.6 221.487C288.3 220.787 306.2 219.387 323.5 218.187C347.4 216.387 372.1 214.587 396.5 214.287V215.287C372.1 215.587 347.4 217.387 323.5 219.187C306.2 220.487 288.2 221.787 270.6 222.487C268 222.587 265.5 222.587 263 222.587Z" fill="white"/>
<path d="M277.6 244.287C240.6 244.287 211.8 231.887 180.7 216.887C177.5 215.387 174.3 213.787 170.9 212.087C142.4 197.987 110.1 181.887 80.5998 195.387C69.0998 200.587 59.8998 207.987 50.8998 215.087C37.4998 225.787 24.8998 235.787 5.49981 239.087L5.2998 238.087C24.3998 234.787 36.8998 224.787 50.1998 214.287C59.1998 207.087 68.4998 199.687 80.0998 194.487C110.1 180.887 144 197.687 171.3 211.287C174.7 212.987 177.9 214.587 181.1 216.087C212.5 231.187 241.5 243.687 279 243.287C296.1 243.187 313.4 242.587 330.2 242.087C351.9 241.487 374.4 240.787 396.5 240.887V241.887C374.4 241.787 351.9 242.387 330.2 243.087C313.4 243.587 296.1 244.087 279 244.287C278.5 244.287 278 244.287 277.6 244.287Z" fill="white"/>
<path d="M315.6 268.587C305.2 268.587 294.8 268.587 284.4 268.587C245.9 268.587 216.3 255.887 181.6 239.387C177.7 237.487 173.6 235.487 169.3 233.287C141 219.087 105.8 201.387 77.2001 216.087C65.1001 222.287 56.1001 231.287 47.4001 240.087C34.4001 253.087 22.1001 265.487 0.700096 268.587L0.600098 267.587C21.6001 264.487 33.8001 252.287 46.7001 239.287C55.5001 230.487 64.6001 221.387 76.8001 215.187C105.9 200.187 141.4 218.087 169.9 232.387C174.2 234.587 178.3 236.587 182.2 238.487C216.8 254.987 246.3 267.587 284.6 267.587C306.9 267.587 329.3 267.587 351.6 267.587C366.6 267.587 381.6 267.587 396.7 267.587V268.587C381.7 268.587 366.7 268.587 351.6 268.587C339.5 268.587 327.6 268.587 315.6 268.587Z" fill="white"/>
<path d="M391.5 295.287C372.3 295.287 352.9 293.687 334.2 292.087C318.8 290.787 302.9 289.387 287.1 288.987C250.2 287.987 218.9 277.987 184.7 265.987C179.6 264.187 174.3 262.187 168.7 259.987C139.9 248.887 107.3 236.387 80.5 248.587C68.5 254.087 58.6 261.887 49 269.487C34.6 280.987 20.9 291.787 0.699997 295.187L0.5 294.187C20.5 290.887 34 280.087 48.4 268.787C58 261.187 68 253.287 80.1 247.687C107.3 235.287 140.1 247.887 169.1 259.087C174.7 261.287 180 263.287 185.1 265.087C219.2 276.987 250.5 286.987 287.2 287.987C303 288.387 318.9 289.787 334.3 291.087C354.6 292.787 375.6 294.587 396.5 294.287V295.287C394.8 295.287 393.2 295.287 391.5 295.287Z" fill="white"/>
<path d="M396.5 321.986C376.3 321.286 357 316.286 338.3 311.486C323.7 307.686 308.5 303.786 293 301.986C277.1 300.086 260.9 298.786 245.3 297.586C227.9 296.186 209.8 294.686 192.1 292.486C185.2 291.586 178.1 290.487 170.6 289.287C142.4 284.787 113.2 280.186 87.5999 287.986C75.0999 291.786 63.6999 297.587 52.6999 303.187C36.6999 311.287 20.1999 319.686 0.499905 321.886L0.399902 320.886C19.8999 318.686 35.5999 310.787 52.1999 302.287C63.1999 296.687 74.6999 290.886 87.1999 286.986C113 279.086 143.6 283.887 170.6 288.187C178.1 289.387 185.2 290.486 192.1 291.386C209.8 293.586 227.8 295.086 245.2 296.486C260.9 297.786 277.1 299.086 293 300.886C308.5 302.686 323.7 306.586 338.4 310.386C357 315.186 376.3 320.087 396.4 320.787L396.5 321.986Z" fill="white"/>
<path d="M0.600098 348.587V347.587C20.3001 346.887 39.2001 341.987 57.4001 337.287C69.9001 334.087 82.9001 330.687 96.1001 328.687C114.5 325.887 133.4 324.387 151.7 322.887C167.9 321.587 184.6 320.187 200.9 317.987C207.6 317.087 214.4 315.887 221.7 314.687C248.2 310.287 275.6 305.687 300.2 311.587C315.5 315.287 329.3 322.087 342.6 328.687C359.3 336.887 376.5 345.487 396.5 347.687L396.4 348.687C376.2 346.487 358.9 337.887 342.2 329.587C328.9 322.987 315.1 316.187 300 312.587C275.5 306.687 248.3 311.287 221.9 315.687C214.7 316.887 207.8 318.087 201.1 318.987C184.8 321.187 168 322.587 151.8 323.887C133.5 325.387 114.6 326.887 96.2001 329.687C83.0001 331.687 70.1001 335.087 57.6001 338.287C39.3001 342.987 20.4001 347.887 0.600098 348.587Z" fill="white"/>
<path d="M5.1 375.387C3.6 375.387 2.1 375.387 0.5 375.387V374.387C21 374.687 41.7 372.887 61.6 371.187C75.2 369.987 89.3 368.787 103.3 368.287C141.9 366.787 173.1 357.687 208.1 344.587C212.8 342.787 217.7 340.787 222.9 338.687C249.6 327.787 279.9 315.487 306.2 324.587C321.4 329.887 333.8 339.187 345.7 348.187C360.6 359.387 375.9 370.887 396.5 374.387L396.3 375.387C375.5 371.887 360 360.287 345.1 348.987C333.2 339.987 320.9 330.787 305.8 325.487C279.9 316.487 249.8 328.687 223.2 339.587C218 341.687 213.1 343.687 208.4 345.487C173.3 358.687 142 367.787 103.3 369.287C89.4 369.787 75.3 371.087 61.7 372.187C43.3 373.687 24.2 375.387 5.1 375.387Z" fill="white"/>
<path d="M373.4 394.987H372.4C372.7 341.487 372.3 271.287 366.9 202.587C366.2 193.887 366.2 184.787 366.3 175.087C366.3 155.487 366.4 135.187 360.3 118.487C356.2 107.087 349.7 97.6866 343.5 88.5866C335.3 76.5866 326.8 64.2866 323.8 47.4866L324.8 47.2866C327.7 63.8866 335.8 75.5866 344.3 88.0866C350.6 97.1866 357.1 106.687 361.3 118.187C367.5 135.087 367.4 155.487 367.4 175.187C367.4 184.887 367.4 193.987 368 202.587C373.3 271.287 373.7 341.487 373.4 394.987Z" fill="white"/>
<path d="M352.5 380.087C352.2 362.687 350 345.287 347.9 328.487C346.2 314.787 344.4 300.587 343.6 286.487C342 256.687 340.3 231.787 334.2 205.387C329.6 185.087 327.8 165.987 325.9 145.687C325.3 138.887 324.6 131.887 323.9 124.887C322.4 111.287 319.9 97.5866 317.4 84.4866C314.4 68.2866 311.2 51.4866 310.1 34.5866L311.1 34.4866C312.2 51.3866 315.4 68.0866 318.4 84.2866C320.9 97.4866 323.4 111.087 324.9 124.787C325.7 131.787 326.3 138.787 326.9 145.587C328.8 165.787 330.5 184.987 335.1 205.187C341.2 231.687 342.9 256.687 344.5 286.487C345.3 300.587 347 314.687 348.8 328.387C350.9 345.187 353.1 362.687 353.4 380.087H352.5Z" fill="white"/>
<path d="M333.8 362.487C332.9 347.487 329.1 333.187 325.5 319.487C322.5 308.387 319.5 296.987 317.9 285.087C314.2 256.487 310.8 234.287 300.4 208.787C288.7 180.187 282.5 157.987 285.2 129.487C286.7 112.987 289.2 96.3866 291.6 80.2866C294.6 60.3866 297.6 39.7866 298.9 19.2866L299.9 19.3866C298.6 39.9866 295.5 60.5866 292.6 80.4866C290.2 96.5866 287.7 113.187 286.2 129.587C283.6 157.887 289.8 179.887 301.4 208.387C311.8 233.987 315.3 256.287 319 284.987C320.5 296.787 323.6 308.187 326.5 319.187C330.2 332.987 334 347.287 334.9 362.387L333.8 362.487Z" fill="white"/>
<path d="M313.8 347.687C312.6 333.887 307.4 322.687 302.3 311.887C298.3 303.287 294.1 294.287 291.9 283.987C290.8 278.987 290.5 273.887 290.1 268.987C289.7 263.087 289.3 257.087 287.6 251.087C284.1 238.687 277.5 227.687 271 216.987C269.9 215.187 268.8 213.287 267.7 211.487C251.5 184.287 241.4 164.087 248 133.487C252.2 114.087 258.8 95.2866 265.2 77.1866C273.2 54.4866 281.5 31.0866 285 6.48657L286 6.58657C282.5 31.2866 274.2 54.7866 266.2 77.4866C259.8 95.5866 253.1 114.387 249 133.687C242.5 163.987 252.5 183.987 268.6 210.987C269.7 212.787 270.8 214.687 271.9 216.487C278.4 227.187 285.1 238.287 288.6 250.787C290.3 256.787 290.7 262.987 291.1 268.887C291.4 273.787 291.8 278.787 292.9 283.787C295.1 293.987 299.2 302.887 303.2 311.487C308.3 322.387 313.5 333.587 314.7 347.587L313.8 347.687Z" fill="white"/>
<path d="M290.1 341.487C288.9 326.786 287 318.387 279 307.387C278 305.987 277 304.687 276.1 303.487C271.6 297.587 267.7 292.487 265.6 284.087C264.3 278.787 264 273.487 263.8 268.287C263.5 262.587 263.3 256.687 261.5 250.987C257.4 237.487 248.9 225.987 240.6 214.787L238.9 212.587C222.6 190.687 208.6 168.287 216.3 135.887C221.3 114.987 230.2 95.3865 238.8 76.4865C249.6 52.7865 260.7 28.1865 264.1 1.18652L265.1 1.28653C261.6 28.4865 250.4 53.0865 239.6 76.8865C231 95.7865 222.1 115.387 217.2 136.087C209.6 168.087 223.4 190.287 239.6 211.987L241.3 214.187C249.7 225.387 258.3 236.987 262.4 250.687C264.2 256.587 264.4 262.487 264.7 268.287C264.9 273.387 265.2 278.686 266.5 283.887C268.6 291.987 272.4 297.087 276.9 302.887C277.9 304.186 278.8 305.387 279.9 306.787C288.1 317.987 290 326.487 291.2 341.387L290.1 341.487Z" fill="white"/>
<path d="M260.9 347.887C259.7 332.787 253.6 320.487 247.7 308.587C243 299.087 238.1 289.187 235.6 277.787C234.5 272.687 234.1 267.487 233.8 262.487C233.4 256.687 233 250.687 231.3 244.787C228.1 232.987 222.1 222.987 215.8 212.487C215 211.087 214.2 209.787 213.3 208.387C199.3 184.887 188.4 163.087 195.2 133.487C199.9 113.387 208.1 94.3866 216 76.0865C225.9 53.1865 236.2 29.4865 239.5 3.58655L240.5 3.68655C237.2 29.6865 226.9 53.4865 216.9 76.3866C209 94.6866 200.8 113.587 196.1 133.587C189.3 162.787 199.7 183.587 214 207.787C214.8 209.187 215.6 210.487 216.5 211.887C222.9 222.487 228.9 232.487 232.1 244.487C233.7 250.487 234.2 256.487 234.6 262.387C235 267.387 235.3 272.487 236.4 277.487C238.9 288.787 243.7 298.587 248.5 307.987C254.5 319.987 260.6 332.287 261.8 347.687L260.9 347.887Z" fill="white"/>
<path d="M228.1 362.687C226.6 343.287 220.2 325.587 213.9 308.387C209.2 295.587 204.4 282.387 201.6 268.387C199.8 259.387 198.7 250.587 197.7 241.987C195.9 227.087 194.2 213.087 189 198.287C181.7 177.687 175.2 152.987 181.6 125.387C185.6 108.387 192 92.1865 198.1 76.4865C206.5 55.2865 215.2 33.2865 217.7 9.38654L218.7 9.48654C216.2 33.4865 207.5 55.5865 199.1 76.8865C192.9 92.4865 186.5 108.687 182.6 125.587C176.2 152.987 182.8 177.487 190 197.987C195.2 212.787 197 226.887 198.8 241.887C199.8 250.387 200.9 259.287 202.7 268.187C205.5 282.087 210.3 295.287 215 307.987C221.3 325.187 227.8 342.987 229.3 362.587L228.1 362.687Z" fill="white"/>
<path d="M194 380.387C192.2 355.087 185.2 330.787 178.5 307.187C174 291.387 169.3 274.987 166.2 258.387C162.2 237.087 163.4 215.287 164.6 194.187C164.7 191.587 164.9 188.987 165 186.287C165.4 179.587 165.5 172.587 165.6 165.887C165.9 149.787 166.2 133.087 169.6 117.387C172.6 103.387 177.2 89.8865 181.7 76.7865C188.3 57.5865 195.1 37.7865 196.5 16.3865L197.5 16.4865C196.1 38.0865 189.2 57.8865 182.6 77.1865C178.1 90.1865 173.5 103.687 170.5 117.687C167.2 133.287 166.8 149.987 166.5 165.987C166.4 172.687 166.2 179.687 165.9 186.487C165.8 189.087 165.6 191.787 165.5 194.387C164.3 215.387 163.1 237.087 167 258.287C170.1 274.887 174.8 291.187 179.3 306.987C186 330.587 193 354.987 194.8 380.387H194Z" fill="white"/>
<path d="M161.2 395.187C159 364.787 151.7 334.987 144.7 306.187C140 286.987 135.2 267.187 131.8 247.387C126.9 218.187 129.4 198.887 140.9 176.287C149 160.387 150.7 146.387 152.7 130.187C153.4 124.787 154 119.287 155 113.387C157.1 100.387 160.7 87.8865 164.2 75.7865C169.1 58.7865 174.2 41.0865 174.9 22.3865H175.9C175.1 41.2865 170.1 58.9865 165.1 76.0865C161.6 88.1865 158 100.687 156 113.587C155.1 119.487 154.4 124.987 153.7 130.387C151.7 146.687 150 160.787 141.8 176.887C130.4 199.287 127.9 218.387 132.8 247.387C136.1 267.187 141 286.987 145.6 306.187C152.7 335.087 160 364.887 162.1 395.387L161.2 395.187Z" fill="white"/>
<path d="M132 401.487C129.7 368.387 122.1 335.587 114.8 303.787C110.4 284.787 105.9 265.087 102.5 245.487C97.4001 215.587 95.3001 192.787 115.4 171.787C129.2 157.387 130.4 143.987 132 127.087C132.4 122.787 132.8 118.287 133.4 113.487C135.1 100.587 138.2 87.8865 141.2 75.6865C145.2 59.2865 149.4 42.2865 150.2 24.5865H151.2C150.4 42.3865 146.2 59.3865 142.2 75.7865C139.2 87.9865 136.1 100.587 134.4 113.487C133.8 118.287 133.4 122.687 133 126.987C131.4 144.187 130.2 157.687 116.2 172.287C96.4001 192.887 98.5001 215.487 103.6 245.087C107 264.587 111.5 284.287 115.9 303.287C123.2 335.087 130.8 367.887 133.1 401.087L132 401.487Z" fill="white"/>
<path d="M105.6 401.487C103.2 369.787 96.5999 338.187 90.2999 307.687C86.4999 289.287 82.4999 270.287 79.4999 251.387C74.8999 222.287 73.0999 199.687 93.1999 173.587C108 154.287 109.4 138.787 111.6 115.487C111.7 113.987 111.9 112.487 112 110.987C113.2 98.3866 114.9 85.5866 116.5 73.2866C118.7 56.6866 121 39.4866 122 22.4866L123 22.5866C121.9 39.6866 119.6 56.8866 117.4 73.4866C115.8 85.7866 114.1 98.5866 112.9 111.187C112.8 112.687 112.6 114.187 112.5 115.687C110.4 138.387 108.9 154.787 93.8999 174.387C74.0999 200.187 75.7999 222.587 80.3999 251.387C83.3999 270.287 87.3999 289.287 91.1999 307.687C97.4999 338.287 104.1 369.887 106.5 401.587L105.6 401.487Z" fill="white"/>
<path d="M79.2001 401.487C77.7001 372.887 72.9 344.187 68.3 316.387C65.2 297.987 62.1 278.987 59.8 260.087C55.9 226.387 60.3 204.787 76.7 177.487C99 140.387 96.2001 101.787 93.2001 60.8866C92.1001 46.3866 91.1001 31.4865 91.1001 16.5865H92.1001C92.0001 31.4865 93.1001 46.3866 94.1001 60.8866C97.1001 101.887 99.9001 140.687 77.5001 178.087C61.3001 205.187 56.9 226.587 60.8 260.087C63 278.887 66.2 297.987 69.2 316.387C73.8 344.187 78.6001 372.887 80.2001 401.587L79.2001 401.487Z" fill="white"/>
<path d="M52.8999 401.487C52.3999 376.087 49.5999 350.387 46.8999 325.587C45.0999 309.087 43.1999 291.987 42.0999 275.087C39.4999 237.587 47.8999 211.787 62.2999 182.287C76.2999 153.587 86.5999 129.187 81.6999 99.0866C79.4999 85.4866 75.2999 72.3866 71.1999 59.6866C66.0999 43.7866 60.7999 27.2866 59.4999 9.58657L60.4999 9.48657C61.7999 27.0866 67.0999 43.4866 72.1999 59.2866C76.2999 71.9866 80.4999 85.0866 82.6999 98.7866C87.5999 129.187 77.2999 153.687 63.1999 182.587C43.8999 222.187 41.1999 247.287 43.0999 274.887C44.2999 291.787 46.0999 308.887 47.8999 325.387C50.5999 350.187 53.3999 375.887 53.8999 401.387L52.8999 401.487Z" fill="white"/>
<path d="M27.5 401.487H26.5C26.7 378.487 25.7 355.087 24.6 332.487C24 318.786 23.4 304.687 23 290.687C22 250.287 31.4 219.687 45.8 186.187C46.8 183.887 47.8 181.687 48.8 179.387C60.8 151.887 74.4 120.687 65 90.0865C61 76.9865 54.5 65.2865 48.2 54.0865C39.7 38.7865 31 23.0865 28.4 3.78653L29.4 3.68652C31.9 22.6865 40.6 38.3865 49 53.5865C55.3 64.8865 61.8 76.5865 65.8 89.7865C75.3 120.687 61.6 152.087 49.6 179.687C48.6 181.987 47.6 184.287 46.6 186.487C32.2 219.887 22.9 250.287 23.9 290.587C24.3 304.487 24.9 318.686 25.5 332.387C26.6 355.087 27.7 378.487 27.5 401.487Z" fill="white"/>
</svg>
