<svg width="397" height="402" viewBox="0 0 397 402" fill="none" xmlns="http://www.w3.org/2000/svg">
<path d="M0.544444 401.3H0.0444444V400.8C0.0444444 356.2 0.0444444 311.7 0.0444444 267.1C0.0444444 179.7 -0.0555556 89.4 0.0444444 0.5V0H0.544444C146.144 0.1 288.544 0.1 396.444 0H396.944V0.5C396.944 49.4 396.944 98.4 396.944 147.3C396.944 230.4 397.044 316.2 396.944 400.7V401.2H396.444C308.544 401.1 219.244 401.1 132.744 401.2C88.7444 401.3 44.6444 401.3 0.544444 401.3ZM1.04444 1.1C0.944444 89.8 0.944444 180 1.04444 267.2C1.04444 311.6 1.04444 356 1.04444 400.4C44.9444 400.4 88.8445 400.4 132.844 400.4C219.144 400.4 308.244 400.3 396.044 400.4C396.144 316.1 396.144 230.4 396.044 147.5C396.044 98.7 396.044 50 396.044 1.2C288.344 1.1 146.244 1.2 1.04444 1.1Z" fill="white"/>
<path d="M231.845 41.3C220.645 41.3 209.145 39.5 196.145 35.4C147.945 20.2 96.0445 23.1 45.8445 25.8C30.9445 26.6 15.5445 27.5 0.644531 27.8V26.8C15.5445 26.5 30.9445 25.6 45.8445 24.8C96.1445 22 148.145 19.2 196.445 34.4C228.245 44.4 250.645 40.8 283.245 30C310.145 21.1 338.245 23.1 365.345 25.1C375.545 25.8 386.145 26.6 396.545 26.8V27.8C386.145 27.6 375.545 26.9 365.245 26.1C338.245 24.1 310.245 22.1 283.545 30.9C264.045 37.4 248.145 41.3 231.845 41.3Z" fill="white"/>
<path d="M226.244 96.8C213.044 96.8 202.444 86.2 193.844 77.7C193.144 77 192.444 76.3 191.744 75.6C176.844 60.9 160.044 55.6 142.244 49.9C136.544 48.1 130.644 46.2 124.544 44C99.6443 34.7 69.4443 41.2 40.2443 47.5C26.2443 50.5 12.9443 53.4 0.544334 54.4L0.444336 53.4C12.7443 52.3 25.9443 49.5 39.9443 46.5C69.2443 40.2 99.6443 33.7 124.844 43C130.844 45.2 136.744 47.1 142.444 48.9C160.344 54.6 177.244 60 192.344 74.8C193.044 75.5 193.744 76.2 194.444 76.9C203.744 86.2 214.244 96.7 227.844 95.7C242.144 94.7 256.744 82.7 269.644 72.1C273.644 68.8 277.344 65.8 280.844 63.2C301.044 48.7 316.344 41.4 339.744 44.7C346.844 45.7 353.944 47 360.844 48.3C372.444 50.4 384.444 52.6 396.544 53.5L396.444 54.5C384.244 53.6 372.244 51.4 360.644 49.3C353.744 48.1 346.644 46.8 339.644 45.8C316.644 42.5 301.444 49.7 281.544 64.2C278.144 66.7 274.344 69.8 270.444 73C257.444 83.7 242.744 95.8 228.044 96.8C227.444 96.8 226.844 96.8 226.244 96.8Z" fill="white"/>
<path d="M221.944 138C207.644 138 198.844 124.1 191.744 112.8C190.944 111.6 190.244 110.5 189.544 109.4C177.344 90.6 171.744 86.3 152.144 80.3C145.844 78.4 141.944 75.3 137.944 72.1C135.744 70.4 133.544 68.6 130.744 66.9C116.944 58.2 99.5444 61.9 84.3444 65.2C82.4444 65.6 80.5444 66 78.6444 66.4C71.7444 67.8 64.6444 69.3 57.9444 70.8C39.3444 74.9 20.1444 79.1 0.644432 81L0.544434 80C19.9444 78 39.1444 73.8 57.6444 69.8C64.4444 68.3 71.4444 66.8 78.4444 65.4C80.3444 65 82.2444 64.6 84.1444 64.2C99.6444 60.9 117.144 57.1 131.344 66.1C134.144 67.9 136.444 69.7 138.644 71.4C142.744 74.7 146.344 77.5 152.544 79.4C172.244 85.4 178.244 90.1 190.444 108.9C191.144 110 191.844 111.2 192.644 112.4C199.944 123.9 208.944 138.1 223.644 137C239.344 135.9 255.744 118.4 268.844 104.4C272.844 100.1 276.644 96.1 279.944 93.1C299.644 74.9 314.544 63.3 340.644 68.4C347.744 69.8 354.744 71.6 361.444 73.3C372.744 76.2 384.444 79.1 396.644 80.2L396.544 81.2C384.244 80.1 372.544 77.1 361.244 74.2C354.544 72.5 347.544 70.7 340.444 69.3C314.744 64.3 300.044 75.7 280.644 93.8C277.344 96.8 273.644 100.8 269.644 105.1C256.344 119.2 239.844 136.9 223.744 138C223.044 138 222.544 138 221.944 138Z" fill="white"/>
<path d="M226.344 149.6C213.244 149.6 203.044 139.6 193.944 130.7C193.244 130 192.544 129.3 191.844 128.7C176.844 114.1 159.944 108.9 142.044 103.3C136.344 101.5 130.444 99.7001 124.344 97.5001C99.3443 88.4001 69.3443 94.8001 40.2443 101C26.2443 104 12.9443 106.8 0.544334 107.8L0.444336 106.8C12.7443 105.8 26.0443 102.9 40.0443 100C69.2443 93.8001 99.3443 87.4001 124.644 96.6001C130.644 98.8001 136.544 100.6 142.244 102.4C160.244 108 177.244 113.3 192.444 128C193.144 128.7 193.844 129.3 194.544 130C203.844 139.2 214.444 149.5 228.044 148.6C242.344 147.6 256.844 135.7 269.744 125.3C273.744 122.1 277.444 119 280.944 116.5C301.044 102.1 316.344 94.9001 339.744 98.2001C346.844 99.2001 353.944 100.5 360.844 101.7C372.444 103.8 384.444 105.9 396.544 106.8L396.444 107.8C384.244 106.9 372.244 104.8 360.544 102.7C353.644 101.5 346.544 100.2 339.444 99.2001C316.444 95.9001 301.244 103.1 281.444 117.3C278.044 119.8 274.244 122.8 270.344 126C257.344 136.5 242.744 148.5 228.144 149.5C227.544 149.6 226.944 149.6 226.344 149.6Z" fill="white"/>
<path d="M231.944 147.5C220.744 147.5 209.244 145.7 196.144 141.7C147.944 127 96.2443 129.8 46.1443 132.5C31.1443 133.3 15.5443 134.1 0.444336 134.4V133.4C15.4443 133.1 31.0443 132.3 46.0443 131.5C96.1443 128.8 147.944 126.1 196.344 140.8C228.244 150.5 250.644 147 283.144 136.5C309.944 127.9 337.944 129.9 365.044 131.8C375.344 132.5 385.944 133.3 396.344 133.4V134.4C385.844 134.2 375.244 133.5 364.944 132.8C337.944 130.9 310.044 128.9 283.444 137.5C264.144 143.8 248.344 147.5 231.944 147.5Z" fill="white"/>
<path d="M257.845 161.2C211.145 161.2 164.545 161.2 117.945 161.2H0.644531V160.2H117.945C210.845 160.2 303.645 160.2 396.545 160.2V161.2C350.245 161.2 304.045 161.2 257.845 161.2Z" fill="white"/>
<path d="M396.444 187.9C374.944 187.2 352.244 184.5 330.344 181.8C284.444 176.2 236.944 170.4 193.444 182.2C169.944 188.5 147.144 188.1 123.044 187.6C119.444 187.5 115.844 187.5 112.144 187.4C88.3444 187.1 64.2444 187.3 40.8444 187.6C27.6444 187.7 13.9444 187.9 0.544434 187.9V186.9C13.9444 186.9 27.6444 186.7 40.8444 186.6C64.2444 186.4 88.3444 186.1 112.144 186.4C115.844 186.4 119.444 186.5 123.044 186.6C147.144 187.1 169.844 187.5 193.244 181.2C236.944 169.4 284.544 175.2 330.544 180.8C352.444 183.5 375.144 186.2 396.544 186.9L396.444 187.9Z" fill="white"/>
<path d="M0.644531 214.5V213.5C13.9445 213.4 27.5445 213 40.7445 212.6C67.2445 211.9 94.5445 211.1 121.445 212.2C124.645 212.3 127.645 212.5 130.645 212.7C151.445 213.9 167.945 214.9 183.545 197.4C203.145 175.6 230.445 180.6 256.945 185.5C262.745 186.6 268.845 187.7 274.645 188.5C282.245 189.5 290.045 190.2 297.645 190.8C311.545 191.9 325.845 193.1 339.345 196.7C346.745 198.7 353.845 201.2 360.745 203.6C372.645 207.8 383.945 211.7 396.645 213.5L396.545 214.5C383.745 212.7 371.845 208.6 360.445 204.6C353.545 202.2 346.445 199.7 339.145 197.7C325.745 194.1 311.445 192.9 297.645 191.8C290.045 191.2 282.145 190.6 274.545 189.5C268.745 188.7 262.645 187.6 256.845 186.5C230.645 181.7 203.545 176.7 184.345 198.1C168.345 215.9 151.745 214.9 130.645 213.7C127.645 213.5 124.645 213.3 121.445 213.2C94.6445 212.1 67.2445 212.9 40.8445 213.6C27.5445 214 13.9445 214.4 0.644531 214.5Z" fill="white"/>
<path d="M0.644531 241.2V240.2C14.7445 240 29.1445 239.4 43.0445 238.9C70.5445 237.8 98.9445 236.6 126.645 238.5C129.445 238.7 132.245 238.9 134.945 239.2C140.545 239.7 146.345 240.3 152.045 240.2C169.245 239.9 172.345 233.8 178.245 218.6L178.845 217.1C183.545 205.1 186.345 197.8 201.145 196.4C216.845 194.9 234.445 198.8 251.445 202.5C258.445 204 264.945 205.5 271.245 206.6C279.045 207.9 287.245 208.7 295.245 209.4C310.345 210.8 326.045 212.2 339.945 217.4C347.445 220.2 354.445 223.6 361.145 227C372.545 232.7 383.345 238 396.645 240.3L396.445 241.3C383.045 239 372.145 233.6 360.745 227.9C354.045 224.6 347.145 221.1 339.645 218.4C325.845 213.3 310.245 211.8 295.145 210.5C287.145 209.8 278.945 209 271.145 207.7C264.845 206.6 258.245 205.2 251.245 203.6C234.345 199.8 216.745 196 201.245 197.5C187.045 198.9 184.545 205.5 179.845 217.6L179.245 219.1C173.145 234.7 169.945 241 152.145 241.3C146.345 241.4 140.545 240.8 134.845 240.3C132.145 240 129.345 239.8 126.545 239.6C98.8445 237.7 70.4445 238.9 43.0445 240C29.0445 240.4 14.6445 241 0.644531 241.2Z" fill="white"/>
<path d="M156.944 274.5C149.544 274.5 141.444 272.7 132.544 270.7C129.344 270 126.044 269.2 122.644 268.5C95.3444 263 65.6444 264.7 36.8444 266.3C24.8444 267 12.3444 267.7 0.544434 267.8V266.8C12.3444 266.7 24.7444 266 36.8444 265.3C65.6444 263.7 95.5444 261.9 122.844 267.5C126.244 268.2 129.544 268.9 132.744 269.7C154.844 274.7 172.344 278.7 185.944 254.5L186.344 253.8C192.644 242.6 196.844 235.2 211.344 234.2C225.244 233.2 240.244 237.8 254.744 242.2C259.844 243.7 264.644 245.2 269.244 246.4C310.544 256.9 356.744 262.6 396.544 266.9L396.444 267.9C356.644 263.7 310.444 258 269.044 247.4C264.444 246.2 259.644 244.8 254.544 243.2C240.144 238.8 225.244 234.3 211.444 235.3C197.444 236.3 193.644 243.1 187.244 254.4L186.844 255.1C178.344 270.1 168.444 274.5 156.944 274.5Z" fill="white"/>
<path d="M168.945 314.5C156.845 314.5 144.345 310 131.545 305.4C126.645 303.7 121.645 301.9 116.545 300.3C88.8445 291.6 58.3445 292.8 28.8445 293.9C19.5445 294.3 9.84453 294.6 0.644531 294.6V293.6C9.94453 293.6 19.5445 293.2 28.8445 292.9C58.4445 291.8 88.9445 290.6 116.845 299.4C121.945 301 127.045 302.8 131.845 304.6C157.445 313.8 179.545 321.7 200.645 298.8C222.645 274.9 239.545 283.7 264.945 297L266.645 297.9C294.445 312.4 328.045 305.9 360.645 299.6C373.245 297.2 385.145 294.9 396.545 293.8L396.645 294.8C385.245 295.9 373.345 298.2 360.845 300.6C328.145 306.9 294.345 313.5 266.245 298.8L264.545 297.9C239.545 284.8 222.945 276.2 201.445 299.5C190.945 310.6 180.145 314.5 168.945 314.5Z" fill="white"/>
<path d="M287.645 348.9C279.345 348.9 271.445 346.4 263.945 338.8C244.145 318.6 231.345 317.9 209.245 335.8C182.645 357.3 157.245 347.1 130.345 336.3C124.645 334 118.645 331.6 112.645 329.5C84.3445 319.5 53.4445 320.2 23.6445 320.9C16.0445 321.1 8.24453 321.3 0.644531 321.3V320.3C8.24453 320.3 16.0445 320.1 23.6445 319.9C53.5445 319.2 84.4445 318.5 113.045 328.5C119.145 330.6 125.045 333 130.845 335.3C158.545 346.4 182.545 356.1 208.745 334.9C231.445 316.6 244.545 317.3 264.845 338C278.545 352 294.045 348.1 310.445 343.9C321.445 341.1 332.445 337.6 342.945 334.2C360.145 328.7 378.045 322.9 396.545 320.2L396.645 321.2C378.145 323.9 360.345 329.6 343.145 335.2C332.545 338.6 321.645 342.1 310.545 344.9C302.645 347 295.045 348.9 287.645 348.9Z" fill="white"/>
<path d="M300.344 368.7C289.244 368.7 278.744 366.6 269.244 361C245.044 346.9 230.944 346.4 206.544 358.8C177.144 373.7 153.244 366.5 125.444 358.3C120.844 356.9 116.144 355.5 111.244 354.2C83.0444 346.4 53.0444 347 23.9444 347.6C16.2444 347.8 8.34443 347.9 0.544434 347.9V346.9C8.24443 346.9 16.2444 346.7 23.9444 346.6C53.0444 346 83.2444 345.4 111.544 353.2C116.444 354.6 121.144 356 125.744 357.3C154.444 365.8 177.044 372.5 206.044 357.8C230.944 345.2 245.144 345.7 269.744 360C294.544 374.5 326.644 365.2 357.544 356.1C371.444 352.1 384.444 348.3 396.344 346.8L396.444 347.8C384.644 349.3 371.544 353.1 357.744 357.1C338.444 362.9 318.644 368.7 300.344 368.7Z" fill="white"/>
<path d="M307.345 381.6C297.945 381.6 288.445 381 278.845 379.5C249.545 374.7 226.345 374.5 201.345 378.6C168.145 384.1 137.745 380.3 108.345 376.8C81.9445 373.6 54.5445 374 28.1445 374.5C19.1445 374.6 9.74453 374.8 0.644531 374.8V373.8C9.74453 373.8 19.1445 373.6 28.1445 373.5C54.6445 373.1 82.0445 372.6 108.545 375.9C137.945 379.5 168.245 383.2 201.245 377.7C226.445 373.6 249.645 373.8 279.045 378.6C304.845 382.8 330.645 380 355.545 377.2C368.945 375.7 382.745 374.2 396.545 373.8V374.8C382.745 375.2 368.945 376.8 355.645 378.2C339.845 379.8 323.645 381.6 307.345 381.6Z" fill="white"/>
<path d="M369.645 400.8C369.145 387.7 367.445 375 365.845 362.7C363.045 341.8 360.445 322.2 363.045 300.4C367.245 264.8 370.645 232.4 370.045 197.1C369.345 156.3 369.545 114.8 369.645 74.6001C369.745 50.4001 369.845 25.3001 369.745 0.600098H370.745C370.845 25.2001 370.745 50.3001 370.645 74.6001C370.545 114.8 370.345 156.3 371.045 197.1C371.645 232.5 368.245 264.9 364.045 300.6C361.545 322.2 364.145 341.9 366.845 362.7C368.445 375 370.145 387.8 370.645 400.9L369.645 400.8Z" fill="white"/>
<path d="M343.245 400.9C341.245 390.3 336.645 382.5 331.645 374.3C328.945 369.8 326.245 365.2 323.845 360C316.445 344.1 320.545 327.6 324.345 311.6C324.745 310.1 325.045 308.5 325.445 307C327.145 300 328.845 293 330.545 286.3C338.545 254.5 346.045 224.5 344.345 190.4C342.845 161.9 343.945 133 345.045 105.1L345.145 103.7C346.045 80.2999 345.145 56.6999 344.345 33.7999C343.945 22.8999 343.545 11.5999 343.345 0.399902H344.345C344.545 11.4999 344.945 22.7999 345.345 33.6999C346.145 56.5999 347.045 80.1999 346.145 103.7L346.045 105.1C344.945 133 343.945 161.8 345.345 190.3C347.045 224.5 339.545 254.6 331.545 286.5C329.845 293.2 328.145 300.2 326.445 307.2C326.045 308.7 325.745 310.3 325.345 311.8C321.545 327.6 317.545 344 324.745 359.5C327.145 364.7 329.845 369.2 332.545 373.7C337.545 382 342.245 389.9 344.245 400.7L343.245 400.9Z" fill="white"/>
<path d="M316.845 400.9C314.245 389.7 308.545 384.4 301.845 378.2C298.045 374.7 294.145 371.1 290.545 366.1C280.345 351.9 285.845 334 290.645 318.2C291.445 315.7 292.145 313.4 292.745 311.1C295.445 301.6 298.445 292.2 301.245 283.2C311.345 251.3 320.945 221.2 318.145 187C316.145 161.4 317.445 135.6 318.745 110.5C318.945 107.5 319.045 104.4 319.245 101.4C320.345 78.8001 319.245 56.2001 318.245 34.3001C317.745 23.3001 317.145 11.9001 316.845 0.600098H317.845C318.145 11.9001 318.645 23.3001 319.245 34.3001C320.345 56.2001 321.445 78.8001 320.245 101.5C320.145 104.6 319.945 107.6 319.745 110.6C318.445 135.6 317.145 161.4 319.145 186.9C321.845 221.3 312.345 251.5 302.145 283.5C299.245 292.6 296.345 301.9 293.645 311.4C292.945 313.7 292.245 316 291.545 318.5C286.745 334.1 281.445 351.7 291.345 365.5C294.945 370.4 298.745 374 302.445 377.5C308.945 383.5 315.045 389.2 317.745 400.7L316.845 400.9Z" fill="white"/>
<path d="M290.444 400.9C288.544 390.3 283.844 382.4 279.044 374.1C276.444 369.6 273.644 365 271.344 359.8C264.744 345.4 267.144 329.4 269.344 314C269.844 310.8 270.244 307.6 270.644 304.4C272.044 292.6 273.044 280.5 274.044 267.6C276.244 239.4 278.544 210.2 286.344 184.6C292.044 165.9 290.944 146.1 289.844 127C289.644 122.8 289.344 118.5 289.144 114.3C288.244 91.1001 288.944 67.5001 289.644 44.8001C290.044 30.3001 290.544 15.3001 290.544 0.600098H291.544C291.544 15.4001 291.044 30.4001 290.644 44.9001C289.944 67.7001 289.244 91.2001 290.144 114.4C290.344 118.6 290.544 123 290.844 127.1C291.944 146.3 293.044 166.1 287.344 185C279.544 210.5 277.344 239.6 275.144 267.8C274.144 280.7 273.244 292.8 271.744 304.6C271.344 307.8 270.844 311.1 270.444 314.2C268.244 329.5 265.844 345.2 272.344 359.4C274.644 364.6 277.444 369.2 280.044 373.7C284.944 382.1 289.644 390 291.644 400.8L290.444 400.9Z" fill="white"/>
<path d="M264.044 400.8C262.744 364.9 256.244 326.4 250.444 292.4C248.844 283.2 246.844 273.6 244.844 264.4C240.844 246 236.744 226.9 235.944 208.5C235.244 192.8 238.144 188.9 249.844 180.5C267.844 167.4 264.144 156.1 256.144 137.1C251.144 125.2 252.244 113.1 253.344 100.4L253.444 99.3002C254.744 85.3002 256.444 71.2002 258.144 57.5002C260.444 38.9002 262.744 19.7002 264.044 0.700195L265.044 0.800194C263.844 19.8002 261.444 39.0002 259.144 57.6002C257.444 71.3002 255.744 85.4002 254.444 99.4002L254.344 100.5C253.144 113.1 252.144 125 257.044 136.7C265.244 156.2 269.044 167.8 250.444 181.3C239.144 189.5 236.344 193.3 236.944 208.5C237.744 226.9 241.844 245.9 245.844 264.3C247.844 273.6 249.944 283.1 251.444 292.3C257.244 326.3 263.744 364.8 265.044 400.8H264.044Z" fill="white"/>
<path d="M237.645 400.8C237.645 393.6 237.745 386.4 237.945 379.3C238.545 346.8 239.045 316.2 228.345 285.8C225.345 277.3 221.345 268.5 217.145 259.2C208.945 241.1 200.445 222.4 198.745 204.2C197.245 187.7 202.545 183 218.145 178.2L218.445 178.1C228.845 174.9 237.845 172.1 237.345 159.6C237.145 155.4 236.645 153 235.545 152C234.745 151.3 233.745 151.4 232.445 151.4C230.645 151.5 228.445 151.6 226.245 149.7C218.445 143 220.045 131.5 221.445 121.4C221.745 119.5 221.945 117.8 222.145 116.1C223.945 99.6 226.545 83 229.045 67C232.445 45.3 235.945 22.9 237.645 0.5L238.645 0.600002C236.945 23 233.445 45.4 230.045 67.1C227.545 83.2 224.945 99.8 223.145 116.2C222.945 117.9 222.645 119.8 222.445 121.6C221.045 132 219.545 142.7 226.845 149C228.745 150.7 230.645 150.6 232.345 150.5C233.745 150.4 235.145 150.3 236.145 151.3C237.445 152.5 238.045 155 238.245 159.6C238.745 172.8 228.945 175.9 218.645 179.1L218.345 179.2C203.045 184 198.145 188.3 199.645 204.2C201.245 222.2 209.745 240.9 217.945 258.9C222.145 268.2 226.145 277 229.145 285.6C239.945 316.1 239.345 348.3 238.845 379.4C238.745 386.4 238.545 393.7 238.545 400.8H237.645Z" fill="white"/>
<path d="M212.244 400.8H211.244C211.444 390.4 212.244 380.4 213.044 370.8C215.044 345.3 216.944 321.2 208.344 294.3C205.644 285.9 202.144 277.4 198.544 268.4C191.544 251.1 184.244 233.3 182.644 215.8C181.244 200.1 186.244 194.5 196.744 184.2C213.044 168.3 212.544 159.1 202.844 139.5C197.444 128.6 198.544 117.2 199.644 105.2L199.944 102.5C201.344 88.0002 203.144 73.4002 205.044 59.3002C207.544 40.1002 210.044 20.3002 211.344 0.700195L212.344 0.800194C211.044 20.5002 208.544 40.3002 206.044 59.5002C204.244 73.6002 202.344 88.2002 200.944 102.7L200.644 105.4C199.444 117.3 198.344 128.5 203.744 139.2C213.744 159.2 214.144 168.7 197.444 185C186.844 195.4 182.244 200.6 183.644 215.8C185.244 233.2 192.444 250.9 199.444 268.1C203.144 277.1 206.644 285.7 209.344 294.1C217.944 321.2 216.044 345.4 214.044 371C213.244 380.5 212.444 390.4 212.244 400.8Z" fill="white"/>
<path d="M185.844 400.9L184.844 400.8C186.044 390.9 189.144 382.6 192.444 373.7C194.044 369.3 195.744 364.7 197.244 360C202.544 342.5 198.144 325.3 194.244 310.1C192.244 302.4 190.144 294.8 188.044 287.5C179.344 257.1 171.144 228.4 179.744 194.8C186.144 169.5 184.444 146.5 181.844 121.2C179.044 95.2001 180.944 68.7001 182.744 43.1001C183.744 29.1001 184.744 14.7001 184.944 0.600098H185.944C185.744 14.8001 184.644 29.2001 183.744 43.2001C181.944 68.8001 180.144 95.3001 182.844 121.2C185.544 146.6 187.244 169.8 180.744 195.2C172.244 228.5 180.444 257.1 189.044 287.3C191.144 294.6 193.244 302.1 195.244 309.9C199.144 325.2 203.544 342.5 198.144 360.3C196.744 365.1 195.044 369.7 193.344 374.1C190.144 382.8 187.044 391.1 185.844 400.9Z" fill="white"/>
<path d="M159.444 400.9L158.444 400.8C159.944 390.8 164.044 384.5 168.444 377.8C170.744 374.3 173.144 370.7 175.244 366.3C181.844 353.1 178.344 337.2 175.244 323.2C174.844 321.6 174.544 320 174.244 318.5C172.544 310.4 170.344 302.1 168.244 294.2C164.344 279.2 160.244 263.6 158.844 248C157.844 237 158.044 225.6 158.244 214.6C158.344 210.1 158.444 205.4 158.444 200.8C158.444 134.1 158.444 67.4002 158.444 0.700195H159.444C159.444 67.4002 159.444 134.1 159.444 200.8C159.444 205.4 159.344 210.1 159.244 214.6C159.044 225.6 158.844 237 159.844 247.9C161.244 263.4 165.344 278.9 169.244 293.9C171.344 301.9 173.544 310.2 175.244 318.3C175.544 319.8 175.944 321.4 176.244 323C179.344 337.1 182.944 353.2 176.144 366.7C173.944 371.1 171.544 374.8 169.244 378.3C165.044 384.9 160.944 391.1 159.444 400.9Z" fill="white"/>
<path d="M133.044 400.9L132.044 400.8C133.244 390.9 136.344 382.6 139.644 373.8C141.244 369.4 142.944 364.9 144.444 360.1C148.444 346.7 147.144 332.7 145.844 319.1C145.644 316.9 145.444 314.7 145.244 312.5C144.144 299.9 143.244 286.9 142.344 274.4C140.644 250.1 138.944 224.9 135.544 200.5C130.844 165.9 133.944 135.3 137.944 107.4C141.344 84.0001 138.644 62.5001 135.744 39.8001C134.144 27.1001 132.444 14.0001 131.944 0.600098H132.944C133.444 14.0001 135.044 27.0001 136.744 39.7001C139.644 62.5001 142.344 84.0001 138.944 107.6C134.844 135.4 131.744 166 136.544 200.4C139.844 224.8 141.644 250 143.344 274.3C144.244 286.8 145.144 299.7 146.244 312.4C146.444 314.6 146.644 316.8 146.844 319C148.144 332.7 149.544 346.9 145.444 360.4C143.944 365.2 142.244 369.8 140.644 374.2C137.344 382.9 134.244 391.1 133.044 400.9Z" fill="white"/>
<path d="M106.645 400.8H105.645C106.545 363.7 109.645 330.3 114.845 301.6C115.545 297.7 116.245 294 116.945 290.3C122.945 258.5 127.745 233.4 115.745 200C115.245 198.7 114.845 197.4 114.345 196.1C110.045 184.3 105.645 172 106.045 159.1C106.645 143.9 112.045 129.1 117.245 114.9C118.945 110.4 120.645 105.7 122.145 101.1C127.145 86 132.845 68.9 127.645 52C125.145 43.8 121.245 36.7 117.445 29.8C112.645 21 107.645 11.9 105.645 0.700001L106.645 0.5C108.645 11.5 113.545 20.6 118.345 29.3C122.145 36.3 126.145 43.5 128.645 51.7C133.945 68.9 128.145 86.2 123.145 101.4C121.645 106 119.945 110.7 118.245 115.2C113.045 129.4 107.645 144 107.045 159.1C106.545 171.9 110.945 184 115.245 195.7C115.745 197 116.145 198.3 116.645 199.6C128.645 233.2 123.945 258.5 117.845 290.5C117.145 294.2 116.445 297.9 115.745 301.8C110.645 330.4 107.545 363.7 106.645 400.8Z" fill="white"/>
<path d="M79.2446 400.8C79.2446 392.8 78.9446 384.5 78.5446 375.8C77.4446 348.2 76.2446 319.7 85.7446 295.3C87.9446 289.6 90.8446 283.9 93.6446 278.3C99.0446 267.6 104.645 256.5 106.045 244.8C107.845 228.9 101.145 215.8 94.0446 201.8L92.9446 199.6C92.3446 198.4 91.7446 197.3 91.1446 196.1C85.2446 184.5 79.0446 172.6 79.6446 159C80.3446 142.6 87.8446 127.1 95.0446 112.1C97.3446 107.3 99.8446 102.3 101.845 97.3998L102.445 95.8998C109.045 80.5998 116.545 63.1998 109.445 47.0998C105.845 38.9998 100.545 33.1998 95.4446 27.4998C88.8446 20.1998 81.9446 12.6998 79.2446 0.499805L80.2446 0.299805C82.9446 12.1998 89.4446 19.2998 96.2446 26.7998C101.445 32.4998 106.845 38.3998 110.445 46.6998C117.745 63.0998 110.145 80.6998 103.445 96.2998L102.845 97.7998C100.745 102.7 98.3446 107.7 95.9446 112.5C88.7446 127.4 81.3446 142.8 80.6446 159C80.0446 172.3 86.1446 184.2 92.0446 195.6C92.6446 196.8 93.2446 197.9 93.8446 199.1L94.9446 201.3C102.145 215.4 108.845 228.7 107.045 244.9C105.645 256.7 100.045 267.9 94.5446 278.7C91.7446 284.2 88.8446 290 86.6446 295.6C77.2446 319.8 78.4446 348.2 79.5446 375.7C79.9446 384.4 80.2446 392.7 80.2446 400.7H79.2446V400.8Z" fill="white"/>
<path d="M53.8444 400.8H52.8444C52.8444 392.5 52.5444 383.8 52.3444 375.4C51.4444 348.5 50.5444 320.7 57.8444 295.5C59.4444 289.8 61.6444 284.1 63.6444 278.5C67.6444 267.8 71.6444 256.8 72.7444 245.5C74.1444 230.2 69.1444 216.6 63.9444 202.2L63.1444 199.9C62.6444 198.6 62.2444 197.3 61.7444 196C57.4444 184.2 52.9444 172 53.3444 159C53.9444 143.7 59.4444 129 64.7444 114.7C66.4444 110.2 68.1444 105.5 69.7444 100.9C74.8444 85.7999 80.5444 68.5999 75.3444 51.7999C72.8444 43.5999 68.8444 36.4999 65.0444 29.5999C60.1444 20.7999 55.1444 11.7999 53.0444 0.599903L54.0444 0.399902C56.0444 11.3999 61.0444 20.3999 65.9444 29.0999C69.8444 35.9999 73.8444 43.1999 76.3444 51.3999C81.6444 68.5999 75.8444 85.8999 70.7444 101.1C69.2444 105.7 67.4444 110.4 65.7444 114.9C60.4444 129.1 54.9444 143.8 54.4444 158.9C53.9444 171.7 58.4444 183.8 62.7444 195.5C63.2444 196.8 63.7444 198.1 64.1444 199.4L64.9444 201.7C70.2444 216.2 75.2444 229.9 73.8444 245.4C72.8444 256.8 68.7444 267.9 64.7444 278.6C62.6444 284.2 60.5444 289.9 58.9444 295.5C51.7444 320.6 52.5444 348.3 53.4444 375.1C53.6444 383.8 53.8444 392.5 53.8444 400.8Z" fill="white"/>
<path d="M27.4444 400.8H26.4444C26.4444 391.4 26.2444 381.8 26.1444 372.5C25.7444 347.2 25.2444 321.1 28.0444 295.9C31.5444 264.3 34.9444 234.4 30.1444 200.5C25.5444 167.9 27.8444 139.7 32.6444 107.3C36.1444 83.8001 33.3444 62.3001 30.3444 39.6001C28.6444 27.0001 26.9444 14.0001 26.4444 0.600098H27.4444C27.9444 13.9001 29.6444 26.9001 31.3444 39.5001C34.3444 62.3001 37.1444 83.8001 33.6444 107.4C28.8444 139.7 26.5444 167.8 31.1444 200.3C35.9444 234.3 32.6444 264.3 29.0444 296C26.2444 321.2 26.7444 347.3 27.1444 372.5C27.3444 381.8 27.4444 391.4 27.4444 400.8Z" fill="white"/>
</svg>
