<svg width="380" height="380" viewBox="0 0 380 380" fill="none" xmlns="http://www.w3.org/2000/svg">
<mask id="mask0_201_608" style="mask-type:luminance" maskUnits="userSpaceOnUse" x="0" y="0" width="380" height="380">
<path d="M0.0260804 186.752C-0.47392 219.652 34.7261 252.152 97.6261 270.052C34.7261 252.152 -0.57392 219.752 0.0260804 186.752C0.22608 180.652 0.726078 172.552 1.42608 166.452C1.82608 162.252 2.82608 156.652 3.62608 152.452C4.82608 146.352 7.02608 138.352 8.72608 132.452C9.92608 128.352 12.1261 122.952 13.6261 118.852C15.9261 112.652 20.0261 104.752 23.0261 98.852C25.0261 94.952 28.3261 90.0519 30.5261 86.2519C34.0261 80.3519 39.7261 73.0519 44.2261 67.852C50.0261 61.052 58.4261 52.452 65.2261 46.552C69.7261 42.652 76.1261 37.852 80.8261 34.352C82.7261 32.952 85.3261 31.252 87.3261 29.952C91.1261 27.552 96.1261 24.452 100.126 22.452C105.926 19.452 113.726 15.752 119.726 13.352C123.726 11.752 129.226 9.75195 133.426 8.45195C139.126 6.75195 146.926 4.65195 152.726 3.55195C161.026 1.95195 172.326 0.451953 180.726 0.151953C186.126 -0.0480469 193.326 -0.0480469 198.726 0.151953C202.826 0.351953 208.326 0.851954 212.426 1.35195C217.326 1.95195 223.726 3.05195 228.526 4.05195C232.526 4.85195 237.726 6.25196 241.626 7.25196C252.826 10.352 261.626 14.152 267.526 16.652C271.126 18.252 275.926 20.452 279.326 22.452C282.426 24.252 286.726 26.552 289.826 28.452C292.926 30.352 296.926 33.052 299.826 35.152C302.726 37.152 306.426 39.952 309.126 42.152C311.726 44.352 315.226 47.252 317.726 49.552C320.226 51.852 323.526 54.952 325.826 57.352C330.426 62.252 336.226 69.0519 340.426 74.2519C342.526 76.8519 345.026 80.652 347.026 83.352C347.126 83.452 352.926 91.752 358.726 103.152C360.426 106.452 362.626 110.852 364.026 114.252C366.726 120.952 370.026 129.952 372.226 136.852C373.526 140.852 374.726 146.352 375.626 150.452C376.426 154.252 377.226 159.352 377.826 163.152C378.526 167.952 379.126 174.352 379.426 179.152C379.726 183.252 379.626 188.752 379.726 192.952C379.826 199.052 379.026 207.152 378.326 213.252C377.826 217.452 377.026 223.052 376.126 227.252C374.826 233.352 372.726 241.352 371.026 247.252C368.526 255.552 363.826 266.152 360.226 274.052C357.526 280.152 352.826 287.752 349.226 293.352C345.426 299.152 340.126 306.652 335.526 311.752C329.526 318.452 321.326 327.152 314.526 333.052C310.026 336.952 303.626 341.752 298.926 345.252C297.026 346.652 294.426 348.352 292.426 349.652C284.926 354.352 274.626 360.152 266.426 363.652C260.526 366.152 252.526 369.152 246.426 371.152C242.326 372.552 236.726 373.852 232.526 374.952C226.726 376.352 218.926 377.852 213.026 378.352C208.826 378.752 203.226 379.352 199.026 379.552C193.626 379.752 186.426 379.852 181.026 379.552C176.926 379.352 171.426 378.952 167.326 378.352C162.426 377.752 155.926 376.852 151.226 375.652C146.826 374.552 140.826 373.352 136.526 371.952C129.126 369.552 119.326 366.052 112.226 362.952C108.626 361.352 103.826 359.152 100.426 357.152C97.3261 355.352 93.0261 353.052 89.9261 351.152C86.8261 349.252 82.8261 346.552 79.9261 344.452C77.0261 342.452 73.3261 339.652 70.6261 337.452C65.5261 333.052 58.6261 327.152 53.9261 322.252C51.6261 319.852 48.5261 316.552 46.3261 314.052C44.1261 311.552 41.4261 307.952 39.2261 305.352C37.1261 302.752 34.5261 299.052 32.6261 296.252C30.7261 293.352 28.2261 289.452 26.4261 286.452C24.6261 283.452 22.5261 279.452 20.9261 276.452C19.2261 273.452 17.4261 269.152 15.9261 265.952C14.3261 262.552 12.5261 257.752 11.2261 254.252C10.0261 250.852 8.62608 246.152 7.42608 242.752C6.12608 238.752 4.82608 233.252 4.02608 229.152C3.12608 224.552 1.92608 218.452 1.42608 213.852C0.726078 205.752 0.12608 194.952 0.0260804 186.752Z" fill="white"/>
</mask>
<g mask="url(#mask0_201_608)">
<path d="M147.326 374.252C142.226 374.252 137.326 373.152 132.726 371.052C121.426 365.852 112.226 354.052 106.126 337.052C102.726 327.652 100.226 316.852 98.7263 304.852C83.0263 290.252 69.1263 273.552 57.6263 255.552C26.0263 240.152 5.42628 219.752 0.526283 197.752C-3.77372 178.252 4.12628 159.152 23.5263 142.252L24.3263 141.552V142.652C23.8263 181.152 36.5263 220.452 58.3263 254.852C70.0263 260.552 83.2263 265.452 97.6263 269.552L98.0263 269.652V270.052C97.8263 282.352 98.4263 293.952 99.7263 304.452C125.026 327.752 155.026 345.552 187.326 354.752L188.226 355.052L187.526 355.652C173.426 368.052 159.726 374.252 147.326 374.252ZM100.026 305.952C104.426 339.052 116.126 362.152 133.226 370.152C148.426 377.252 166.826 372.152 186.226 355.552C154.426 346.352 124.926 328.752 100.026 305.952ZM59.4263 256.452C70.4263 273.552 83.6263 289.452 98.6263 303.352C97.4263 293.252 96.9263 282.252 97.1263 270.452C83.2263 266.452 70.6263 261.752 59.4263 256.452ZM23.4263 143.752C4.92628 160.152 -2.57372 178.752 1.62628 197.552C6.42628 218.952 26.2263 238.852 56.7263 254.052C35.5263 220.052 23.1263 181.552 23.4263 143.752Z" fill="white"/>
<path d="M108.726 343.052C62.3262 329.852 25.2262 281.452 25.9262 235.252H26.9262C26.2262 281.052 63.0262 329.052 109.026 342.052L108.726 343.052Z" fill="white"/>
<path d="M140.927 373.652C61.7265 351.152 -1.67348 268.552 -0.473477 189.552H0.526523C-0.673477 268.152 62.4265 350.252 141.127 372.652L140.927 373.652Z" fill="white"/>
<path d="M40.5263 281.252C29.1263 281.252 21.7263 278.752 19.0263 273.852C14.4263 265.452 23.4263 251.052 45.0263 232.252L45.7263 233.052C24.8263 251.252 15.7263 265.552 20.0263 273.352C25.8263 283.852 54.0263 282.452 97.5263 269.652L97.8263 270.652C73.6263 277.652 54.2263 281.252 40.5263 281.252Z" fill="white"/>
<path d="M66.9262 333.852C65.9262 333.852 65.0262 333.552 64.4262 333.052C57.6262 326.852 82.0261 290.752 97.2261 269.752L98.0261 270.352C60.9262 321.752 63.4262 330.752 65.1262 332.252C66.7262 333.752 73.7262 334.352 103.626 308.452L104.326 309.252C90.7262 320.952 74.2262 333.852 66.9262 333.852Z" fill="white"/>
<path d="M147.327 374.252C142.227 374.252 137.327 373.152 132.727 371.052C121.427 365.852 112.227 354.052 106.127 337.052C99.7265 319.352 96.6265 296.752 97.0265 270.052V269.352L97.6265 269.552C188.927 295.552 304.527 280.752 355.327 236.652L356.126 235.952V237.052C355.426 280.152 338.327 316.252 307.927 338.852C275.727 362.752 232.927 368.752 187.227 355.852C173.227 368.052 159.627 374.252 147.327 374.252ZM98.0265 270.752C97.3265 322.452 110.427 359.652 133.127 370.152C148.527 377.352 167.127 372.052 186.827 354.852L187.027 354.652L187.327 354.752C232.827 367.652 275.427 361.752 307.427 337.952C337.327 315.752 354.227 280.352 355.126 238.052C321.026 267.152 258.727 283.252 194.027 283.352C161.527 283.352 128.527 279.352 98.0265 270.752Z" fill="white"/>
<path d="M132.027 346.452C124.527 346.452 116.727 345.352 108.727 343.052L109.027 342.052C131.927 348.552 153.327 345.552 169.427 333.652C184.527 322.352 193.127 304.352 193.427 282.852H194.427C194.127 304.652 185.427 322.952 170.027 334.452C159.327 342.452 146.227 346.452 132.027 346.452Z" fill="white"/>
<path d="M180.727 379.452C167.927 379.452 154.527 377.552 140.927 373.652L141.227 372.652C180.427 383.852 217.227 378.652 244.827 358.152C270.827 338.852 285.427 307.852 286.027 270.952H287.027C286.427 308.152 271.627 339.352 245.427 358.852C227.127 372.552 204.927 379.452 180.727 379.452Z" fill="white"/>
<path d="M223.326 375.352C218.026 375.352 212.626 374.752 207.126 373.652C165.826 365.252 124.626 326.652 97.1265 270.252L98.0265 269.852C125.426 325.952 166.326 364.352 207.326 372.752C231.026 377.552 253.026 371.852 271.026 356.152L271.726 356.952C257.626 369.152 241.126 375.352 223.326 375.352Z" fill="white"/>
<path d="M259.227 338.152C208.327 338.152 147.327 314.252 97.2266 270.452L97.9266 269.652C176.027 338.052 280.727 357.752 331.427 313.652L332.127 314.452C313.627 330.552 288.027 338.152 259.227 338.152Z" fill="white"/>
<path d="M194.026 283.352C161.326 283.352 128.026 279.252 97.4264 270.552L97.0264 270.452V270.052C98.4264 178.652 141.026 68.352 192.026 24.052L192.226 23.8521L192.526 23.952C284.226 50.052 357.626 145.652 356.226 237.052V237.252L356.026 237.352C322.126 266.952 259.326 283.352 194.026 283.352ZM98.0264 269.652C189.226 295.452 304.426 280.752 355.126 236.752C356.426 145.852 283.526 50.9521 192.426 24.8521C141.926 69.1521 99.6264 178.752 98.0264 269.652Z" fill="white"/>
<path d="M194.426 282.952H193.426C194.126 237.152 157.326 189.152 111.326 176.152L111.626 175.152C157.926 188.352 195.126 236.652 194.426 282.952Z" fill="white"/>
<path d="M287.026 271.052H286.026C287.226 192.452 224.126 110.352 145.426 87.9521L145.726 86.9521C224.826 109.552 288.226 192.152 287.026 271.052Z" fill="white"/>
<path d="M97.7263 270.552L97.4263 269.552C177.026 245.952 283.226 190.852 334.026 146.652L334.726 147.452C283.726 191.752 177.426 246.952 97.7263 270.552Z" fill="white"/>
<path d="M97.9265 270.352L97.1265 269.752C144.526 204.052 224.526 114.652 275.426 70.3521L276.126 71.1521C225.226 115.352 145.326 204.752 97.9265 270.352Z" fill="white"/>
<path d="M98.0265 270.752L97.4265 270.552C43.5265 255.252 7.32652 228.052 0.626518 197.752C-3.67348 178.352 4.22652 159.252 23.4265 142.452C24.1265 99.4521 41.2265 63.4521 71.6265 40.8521C103.827 16.9521 146.827 10.8521 192.527 23.9521L193.427 24.2521L192.727 24.8521C141.927 69.0521 99.5265 179.052 98.0265 270.152V270.752ZM146.427 18.1521C118.527 18.1521 93.1265 26.0521 72.1265 41.6521C42.0265 64.0521 25.0265 99.9521 24.3265 142.652V142.852L24.1265 142.952C5.02652 159.552 -2.77348 178.352 1.42652 197.452C8.02652 227.252 43.7265 254.052 96.9265 269.352C98.5265 178.552 140.727 69.1521 191.227 24.5521C175.927 20.3521 160.927 18.1521 146.427 18.1521Z" fill="white"/>
<path d="M26.9268 235.352H25.9268C26.2268 213.552 34.9268 195.252 50.3268 183.752C66.6268 171.652 88.4268 168.552 111.627 175.152L111.327 176.152C88.4268 169.652 67.0268 172.652 50.9268 184.552C35.8268 195.752 27.2268 213.852 26.9268 235.352Z" fill="white"/>
<path d="M0.526367 189.552H-0.473633C0.126367 152.352 14.9264 121.152 41.1264 101.652C68.9264 80.9522 106.126 75.7522 145.626 87.0522L145.326 88.0522C106.126 76.8522 69.3264 82.0522 41.7264 102.552C15.7264 121.752 1.12637 152.752 0.526367 189.552Z" fill="white"/>
<path d="M97.1266 270.252C52.1266 178.152 56.9266 67.152 108.027 22.752L108.727 23.5519C58.0265 67.6519 53.2266 178.152 98.1266 269.852L97.1266 270.252Z" fill="white"/>
<path d="M97.2266 270.452C48.8266 228.052 19.9266 175.252 20.0266 129.052C20.0266 102.952 29.6266 80.8521 47.5266 65.1521L48.2266 65.9521C30.5266 81.3521 21.0266 103.252 21.0266 129.052C20.9266 174.852 49.7266 227.452 97.9266 269.652L97.2266 270.452Z" fill="white"/>
<path d="M187.326 355.852L187.026 355.752C95.4264 329.652 22.0264 234.052 23.4264 142.652V142.452L23.6264 142.352C74.6264 98.0519 190.626 83.1519 282.226 109.252L282.626 109.352V109.752C281.226 201.152 238.626 311.452 187.626 355.752L187.326 355.852ZM24.4264 142.852C23.1264 233.752 96.0264 328.652 187.126 354.752C237.726 310.552 280.026 200.952 281.626 110.052C190.426 84.1519 75.2264 98.9519 24.4264 142.852Z" fill="white"/>
<path d="M234.027 292.652C154.827 270.152 91.4266 187.552 92.6266 108.552H93.6266C92.4266 187.152 155.527 269.252 234.227 291.652L234.027 292.652Z" fill="white"/>
<path d="M45.6263 232.952L44.9263 232.152C95.8263 187.852 202.126 132.652 281.926 109.052L282.226 110.052C202.626 133.652 96.4263 188.752 45.6263 232.952Z" fill="white"/>
<path d="M104.226 309.252L103.526 308.452C154.326 264.252 234.326 174.852 281.626 109.252L282.426 109.852C235.026 175.552 155.126 265.052 104.226 309.252Z" fill="white"/>
<path d="M233.226 362.452C218.426 362.452 202.926 360.252 187.126 355.752L186.226 355.452L186.926 354.852C237.726 310.652 280.126 200.652 281.626 109.552V108.852L282.226 109.052C336.126 124.352 372.326 151.552 379.026 181.852C383.326 201.252 375.426 220.352 356.226 237.152C355.526 280.152 338.426 316.152 308.026 338.752C286.926 354.452 261.226 362.452 233.226 362.452ZM188.226 355.052C233.326 367.652 275.626 361.652 307.426 338.052C337.526 315.652 354.526 279.752 355.226 237.052V236.852L355.426 236.752C374.526 220.152 382.326 201.352 378.126 182.252C371.526 152.452 335.826 125.652 282.626 110.352C280.926 201.052 238.826 310.452 188.226 355.052Z" fill="white"/>
<path d="M273.826 298.452C261.026 298.452 247.626 296.552 234.026 292.652L234.326 291.652C273.526 302.852 310.326 297.652 337.926 277.152C363.926 257.852 378.526 226.852 379.126 189.952H380.126C379.526 227.152 364.726 258.352 338.526 277.852C320.326 291.552 298.126 298.452 273.826 298.452Z" fill="white"/>
<path d="M271.626 356.852L270.926 356.052C321.626 311.952 326.426 201.452 281.526 109.752L282.426 109.352C327.526 201.452 322.726 312.552 271.626 356.852Z" fill="white"/>
<path d="M332.126 314.452L331.426 313.652C349.126 298.252 358.626 276.352 358.626 250.552C358.726 204.752 329.926 152.152 281.726 109.952L282.426 109.152C330.826 151.552 359.726 204.352 359.626 250.552C359.626 276.752 350.026 298.852 332.126 314.452Z" fill="white"/>
<path d="M355.226 238.152V237.052C355.826 198.552 343.126 159.352 321.326 124.852C309.626 119.152 296.426 114.252 282.026 110.152L281.626 110.052V109.652C281.826 97.352 281.226 85.752 279.926 75.252C254.626 51.952 224.626 34.152 192.326 24.952L191.426 24.652L192.126 24.052C212.126 6.65201 231.126 1.25201 246.926 8.65201C258.226 13.852 267.426 25.652 273.526 42.652C276.926 52.052 279.426 62.852 280.926 74.852C296.626 89.452 310.526 106.152 322.026 124.152C353.626 139.552 374.226 159.952 379.126 181.952C383.426 201.452 375.526 220.552 356.126 237.452L355.226 238.152ZM322.926 125.652C344.126 159.552 356.526 198.052 356.226 235.852C374.726 219.452 382.226 200.852 378.026 182.052C373.326 160.752 353.526 140.852 322.926 125.652ZM282.626 109.252C296.426 113.152 309.026 117.952 320.326 123.252C309.326 106.152 296.126 90.252 281.126 76.352C282.226 86.452 282.726 97.452 282.626 109.252ZM193.426 24.152C225.226 33.352 254.726 50.852 279.626 73.652C275.226 40.552 263.526 17.452 246.426 9.45201C231.226 2.45201 212.926 7.45201 193.426 24.152Z" fill="white"/>
<path d="M380.126 190.152H379.126C380.326 111.552 317.226 29.452 238.526 7.052L238.826 6.052C317.926 28.552 381.326 111.152 380.126 190.152Z" fill="white"/>
<path d="M334.726 147.452L334.026 146.652C354.926 128.452 364.026 114.152 359.726 106.352C353.926 95.852 325.726 97.252 282.226 110.052L281.926 109.052C325.926 96.052 354.626 94.852 360.626 105.752C365.226 114.252 356.326 128.652 334.726 147.452Z" fill="white"/>
<path d="M282.526 109.952L281.726 109.352C318.826 57.9519 316.326 48.9519 314.626 47.4519C313.026 45.9519 306.026 45.3519 276.126 71.2519L275.426 70.4519C290.826 57.0519 310.226 42.0519 315.226 46.6519C322.026 52.8519 297.626 88.9519 282.526 109.952Z" fill="white"/>
<path d="M23.4263 143.752V142.652C24.1263 99.552 41.2263 63.452 71.6263 40.852C103.826 16.952 146.626 10.952 192.326 23.852C212.326 6.55201 231.126 1.25202 246.926 8.65202C258.226 13.852 267.426 25.652 273.526 42.652C279.926 60.352 283.026 82.952 282.626 109.652V110.352L282.026 110.152C190.726 84.152 75.1263 98.952 24.3263 143.052L23.4263 143.752ZM146.426 18.152C118.526 18.152 93.1263 26.052 72.1263 41.652C42.2263 63.852 25.3263 99.252 24.4263 141.552C75.7263 97.852 190.526 83.252 281.526 108.952C282.226 57.252 269.126 20.052 246.426 9.55201C231.026 2.35201 212.426 7.65201 192.726 24.852L192.526 25.052L192.226 24.952C176.526 20.452 161.126 18.152 146.426 18.152Z" fill="white"/>
<path d="M93.6265 108.652H92.6265C93.2265 71.452 108.026 40.252 134.226 20.752C162.026 0.0520077 199.226 -5.14799 238.726 6.15201L238.426 7.15201C199.226 -4.04799 162.426 1.15201 134.826 21.652C108.826 40.752 94.2265 71.752 93.6265 108.652Z" fill="white"/>
<path d="M281.626 109.852C254.226 53.7519 213.326 15.3519 172.326 6.95194C148.626 2.15194 126.626 7.85193 108.626 23.5519L107.926 22.7519C126.126 6.85194 148.426 1.05194 172.426 5.95194C213.726 14.3519 254.926 52.9519 282.426 109.352L281.626 109.852Z" fill="white"/>
<path d="M281.726 109.952C203.626 41.5521 98.9264 21.8521 48.2264 65.9521L47.5264 65.1521C98.6264 20.7521 203.926 40.5521 282.326 109.152L281.726 109.952Z" fill="white"/>
</g>
<mask id="mask1_201_608" style="mask-type:luminance" maskUnits="userSpaceOnUse" x="0" y="0" width="380" height="380">
<path d="M0.0260804 186.752C-0.47392 219.652 34.7261 252.152 97.6261 270.052C34.7261 252.152 -0.57392 219.752 0.0260804 186.752C0.22608 180.652 0.726078 172.552 1.42608 166.452C1.82608 162.252 2.82608 156.652 3.62608 152.452C4.82608 146.352 7.02608 138.352 8.72608 132.452C9.92608 128.352 12.1261 122.952 13.6261 118.852C15.9261 112.652 20.0261 104.752 23.0261 98.852C25.0261 94.952 28.3261 90.0519 30.5261 86.2519C34.0261 80.3519 39.7261 73.0519 44.2261 67.852C50.0261 61.052 58.4261 52.452 65.2261 46.552C69.7261 42.652 76.1261 37.852 80.8261 34.352C82.7261 32.952 85.3261 31.252 87.3261 29.952C91.1261 27.552 96.1261 24.452 100.126 22.452C105.926 19.452 113.726 15.752 119.726 13.352C123.726 11.752 129.226 9.75195 133.426 8.45195C139.126 6.75195 146.926 4.65195 152.726 3.55195C161.026 1.95195 172.326 0.451953 180.726 0.151953C186.126 -0.0480469 193.326 -0.0480469 198.726 0.151953C202.826 0.351953 208.326 0.851954 212.426 1.35195C217.326 1.95195 223.726 3.05195 228.526 4.05195C232.526 4.85195 237.726 6.25196 241.626 7.25196C252.826 10.352 261.626 14.152 267.526 16.652C271.126 18.252 275.926 20.452 279.326 22.452C282.426 24.252 286.726 26.552 289.826 28.452C292.926 30.352 296.926 33.052 299.826 35.152C302.726 37.152 306.426 39.952 309.126 42.152C311.726 44.352 315.226 47.252 317.726 49.552C320.226 51.852 323.526 54.952 325.826 57.352C330.426 62.252 336.226 69.0519 340.426 74.2519C342.526 76.8519 345.026 80.652 347.026 83.352C347.126 83.452 352.926 91.752 358.726 103.152C360.426 106.452 362.626 110.852 364.026 114.252C366.726 120.952 370.026 129.952 372.226 136.852C373.526 140.852 374.726 146.352 375.626 150.452C376.426 154.252 377.226 159.352 377.826 163.152C378.526 167.952 379.126 174.352 379.426 179.152C379.726 183.252 379.626 188.752 379.726 192.952C379.826 199.052 379.026 207.152 378.326 213.252C377.826 217.452 377.026 223.052 376.126 227.252C374.826 233.352 372.726 241.352 371.026 247.252C368.526 255.552 363.826 266.152 360.226 274.052C357.526 280.152 352.826 287.752 349.226 293.352C345.426 299.152 340.126 306.652 335.526 311.752C329.526 318.452 321.326 327.152 314.526 333.052C310.026 336.952 303.626 341.752 298.926 345.252C297.026 346.652 294.426 348.352 292.426 349.652C284.926 354.352 274.626 360.152 266.426 363.652C260.526 366.152 252.526 369.152 246.426 371.152C242.326 372.552 236.726 373.852 232.526 374.952C226.726 376.352 218.926 377.852 213.026 378.352C208.826 378.752 203.226 379.352 199.026 379.552C193.626 379.752 186.426 379.852 181.026 379.552C176.926 379.352 171.426 378.952 167.326 378.352C162.426 377.752 155.926 376.852 151.226 375.652C146.826 374.552 140.826 373.352 136.526 371.952C129.126 369.552 119.326 366.052 112.226 362.952C108.626 361.352 103.826 359.152 100.426 357.152C97.3261 355.352 93.0261 353.052 89.9261 351.152C86.8261 349.252 82.8261 346.552 79.9261 344.452C77.0261 342.452 73.3261 339.652 70.6261 337.452C65.5261 333.052 58.6261 327.152 53.9261 322.252C51.6261 319.852 48.5261 316.552 46.3261 314.052C44.1261 311.552 41.4261 307.952 39.2261 305.352C37.1261 302.752 34.5261 299.052 32.6261 296.252C30.7261 293.352 28.2261 289.452 26.4261 286.452C24.6261 283.452 22.5261 279.452 20.9261 276.452C19.2261 273.452 17.4261 269.152 15.9261 265.952C14.3261 262.552 12.5261 257.752 11.2261 254.252C10.0261 250.852 8.62608 246.152 7.42608 242.752C6.12608 238.752 4.82608 233.252 4.02608 229.152C3.12608 224.552 1.92608 218.452 1.42608 213.852C0.726078 205.752 0.12608 194.952 0.0260804 186.752Z" fill="white"/>
</mask>
<g mask="url(#mask1_201_608)">
<path d="M189.426 380.252C186.526 380.252 183.526 380.252 180.926 380.052C176.426 379.852 171.026 379.352 167.126 378.852C162.526 378.252 155.826 377.352 150.926 376.152C149.826 375.852 148.626 375.652 147.426 375.352C143.726 374.452 139.426 373.552 136.226 372.452C129.426 370.252 119.426 366.752 111.826 363.452C108.726 362.152 103.726 359.752 100.026 357.652C99.1259 357.152 98.1259 356.552 97.1259 356.052C94.6259 354.652 91.7259 353.052 89.5259 351.652C86.3259 349.652 82.2259 346.852 79.5259 344.952C77.8259 343.752 73.4259 340.652 70.2259 337.852L69.4259 337.252C64.3259 332.852 57.9259 327.352 53.4259 322.652L52.9259 322.052C50.7259 319.652 47.9259 316.752 45.9259 314.352C44.4259 312.652 42.7259 310.452 41.0259 308.352C40.2259 307.452 39.5259 306.452 38.8259 305.652C37.1259 303.552 34.9259 300.452 32.2259 296.452C30.2259 293.452 27.7259 289.552 26.0259 286.652C24.8259 284.652 23.5259 282.152 22.2259 279.752C21.6259 278.652 21.0259 277.552 20.5259 276.652C19.1259 274.152 17.6259 270.852 16.3259 267.952L15.5259 266.152C14.2259 263.252 12.4259 258.852 10.8259 254.352C9.92588 251.852 8.92587 248.652 8.02588 245.852C7.72587 244.752 7.32588 243.752 7.02588 242.752C5.72587 238.652 4.42588 232.952 3.62588 229.052C2.72588 224.552 1.52588 218.452 1.02588 213.752C0.425879 207.252 -0.174123 198.452 -0.374123 190.452C-0.474123 189.452 -0.474121 188.352 -0.474121 187.352C-0.474121 187.152 -0.474121 186.852 -0.474121 186.652C-0.274121 180.552 0.325877 172.352 0.925877 166.352C1.42588 161.952 2.42588 156.152 3.22588 152.352C4.52588 146.052 6.72588 137.852 8.32588 132.252C9.32588 128.952 10.8259 124.952 12.2259 121.352C12.6259 120.352 12.9259 119.452 13.2259 118.652C15.5259 112.652 19.3259 105.152 22.7259 98.652C24.1259 95.952 26.1259 92.752 27.9259 89.752C28.7259 88.452 29.5259 87.152 30.2259 86.052C33.9259 79.952 39.7259 72.552 43.9259 67.552C49.9259 60.552 58.3259 52.052 64.9259 46.152C69.0259 42.552 74.6259 38.352 79.2259 34.952L80.6259 33.852C82.5259 32.452 85.2259 30.652 87.2259 29.452C90.7259 27.252 95.9259 24.052 100.026 21.952C105.326 19.252 113.326 15.352 119.626 12.852C124.126 11.052 129.526 9.152 133.326 7.952C138.826 6.352 146.626 4.152 152.726 2.952C160.426 1.552 171.826 -0.147998 180.826 -0.547998C186.026 -0.747998 193.326 -0.747998 198.826 -0.547998C203.326 -0.347998 209.426 0.252003 212.526 0.652003C218.726 1.352 226.426 2.852 228.726 3.352C233.726 4.352 240.026 6.052 241.926 6.552C253.126 9.652 262.026 13.452 267.926 15.952C271.026 17.252 276.026 19.652 279.726 21.752C280.626 22.252 281.626 22.852 282.626 23.352C285.126 24.752 288.026 26.352 290.226 27.752C293.426 29.752 297.526 32.552 300.226 34.452C301.926 35.652 306.326 38.752 309.526 41.552C310.326 42.252 311.226 42.952 312.126 43.752C314.226 45.552 316.426 47.352 318.126 48.952C321.226 51.752 324.326 54.752 326.226 56.852C330.126 60.952 335.626 67.252 340.826 73.752C342.326 75.552 343.926 77.852 345.526 80.152C346.226 81.152 346.826 82.052 347.526 82.952C347.626 83.052 353.426 91.352 359.326 102.852C361.026 106.252 363.226 110.552 364.626 114.052C367.526 121.452 370.726 130.352 372.826 136.652C373.826 139.852 374.926 144.352 376.226 150.252C376.826 153.252 377.626 157.552 378.426 162.952C379.326 168.552 379.826 176.052 380.026 178.952C380.226 182.352 380.226 186.652 380.326 190.352V192.752C380.426 200.452 379.226 210.252 378.926 213.052C378.326 218.352 377.426 223.552 376.626 227.052C375.326 233.252 373.226 241.352 371.526 247.052C369.026 255.452 364.226 266.152 360.726 273.952C357.526 281.052 351.926 289.852 349.626 293.352C347.326 296.852 341.326 305.752 335.926 311.852C332.226 315.952 322.826 326.252 314.926 333.252C310.826 336.852 305.226 341.052 300.626 344.452L299.226 345.552C297.326 346.952 294.626 348.752 292.626 349.952C285.626 354.352 275.026 360.352 266.626 363.952C260.826 366.352 252.726 369.452 246.526 371.452C242.726 372.752 237.526 374.052 232.626 375.252C227.326 376.552 219.426 378.152 213.126 378.652C211.926 378.752 210.626 378.852 209.326 379.052C205.926 379.352 202.126 379.752 199.126 379.852C196.326 380.152 192.926 380.252 189.426 380.252ZM0.925877 199.152C1.22588 204.452 1.52588 209.652 1.92588 213.852C2.32588 218.552 3.62587 224.652 4.52588 229.052C5.32588 232.952 6.62588 238.452 7.92588 242.552C8.22588 243.552 8.52588 244.552 8.92588 245.652C9.82588 248.452 10.8259 251.652 11.7259 254.052C13.3259 258.452 15.1259 262.852 16.4259 265.752L17.2259 267.552C18.5259 270.452 20.0259 273.752 21.4259 276.152C21.9259 277.152 22.5259 278.152 23.1259 279.252C24.4259 281.652 25.7259 284.152 26.9259 286.152C28.6259 288.952 31.1259 292.952 33.1259 295.852C35.8259 299.852 38.0259 302.952 39.7259 304.952C40.4259 305.752 41.1259 306.652 41.9259 307.652C43.6259 309.752 45.3259 311.852 46.8259 313.552C48.8259 315.852 51.6259 318.852 53.8259 321.252L54.3259 321.852C58.7259 326.552 65.1259 331.952 70.2259 336.352L71.0259 336.952C74.1259 339.652 78.5259 342.752 80.2259 343.952C82.9259 345.852 87.0259 348.652 90.2259 350.552C92.4259 351.952 95.2259 353.552 97.7259 354.952C98.7259 355.552 99.7259 356.052 100.626 356.552C104.326 358.652 109.226 360.952 112.326 362.352C119.926 365.552 129.826 369.152 136.626 371.352C139.826 372.352 144.026 373.352 147.726 374.252C148.926 374.552 150.126 374.852 151.226 375.052C156.026 376.152 162.726 377.152 167.326 377.752C171.126 378.252 176.526 378.652 181.026 378.952C186.826 379.252 194.326 379.152 198.926 378.952C201.926 378.852 205.726 378.452 209.126 378.152C210.426 378.052 211.726 377.852 212.926 377.752C219.126 377.152 227.026 375.652 232.326 374.352C237.226 373.152 242.326 371.852 246.226 370.552C252.426 368.452 260.426 365.452 266.226 363.052C274.626 359.452 285.126 353.552 292.126 349.152C294.926 347.452 297.126 345.952 298.626 344.752L300.026 343.652C304.526 340.252 310.226 336.052 314.226 332.452C322.126 325.552 331.526 315.252 335.126 311.152C340.526 305.152 346.426 296.352 348.726 292.752C350.926 289.352 356.526 280.552 359.726 273.552C363.226 265.752 368.026 255.052 370.526 246.752C372.226 240.952 374.326 232.952 375.626 226.752C376.426 223.252 377.226 218.052 377.826 212.752C378.126 209.952 379.326 200.252 379.226 192.552V190.152C379.226 186.352 379.126 182.152 378.926 178.752C378.726 175.852 378.226 168.452 377.326 162.852C376.526 157.452 375.726 153.152 375.126 150.252C373.826 144.252 372.726 139.852 371.726 136.652C369.726 130.252 366.526 121.452 363.526 114.052C362.126 110.652 360.026 106.352 358.226 102.952C352.326 91.552 346.526 83.252 346.526 83.252C345.926 82.352 345.226 81.452 344.526 80.452C342.926 78.252 341.326 75.952 339.926 74.152C334.626 67.652 329.226 61.352 325.326 57.252C323.426 55.152 320.326 52.252 317.226 49.452C315.526 47.852 313.326 46.052 311.226 44.252C310.326 43.452 309.426 42.752 308.626 42.052C305.526 39.352 301.126 36.252 299.426 35.052C296.726 33.152 292.626 30.352 289.426 28.452C287.226 27.052 284.426 25.452 281.926 24.052C280.926 23.452 279.926 22.952 279.026 22.452C275.326 20.352 270.426 18.052 267.326 16.652C261.526 14.152 252.626 10.352 241.526 7.25201C236.726 5.95201 231.826 4.652 228.426 4.052C226.226 3.652 218.526 2.052 212.326 1.352C209.126 0.952004 203.126 0.352003 198.626 0.152003C193.126 -0.0479973 185.926 -0.0479973 180.626 0.152003C171.726 0.452003 160.326 2.152 152.626 3.552C146.626 4.652 138.826 6.852 133.326 8.452C129.526 9.552 124.226 11.452 119.726 13.252C113.426 15.752 105.526 19.652 100.226 22.352C96.2259 24.452 91.0259 27.652 87.5259 29.852C84.7259 31.552 82.5259 33.052 81.0259 34.252L79.6259 35.352C75.1259 38.752 69.4259 42.952 65.4259 46.552C58.8259 52.352 50.4259 60.852 44.5259 67.852C40.3259 72.752 34.5259 80.152 30.9259 86.252C30.2259 87.452 29.4259 88.652 28.6259 90.052C26.7259 93.052 24.8259 96.152 23.4259 98.852C20.0259 105.352 16.2259 112.752 14.0259 118.752C13.7259 119.652 13.3259 120.552 13.0259 121.452C11.7259 124.952 10.1259 129.052 9.22588 132.252C7.52588 137.752 5.32588 145.952 4.12588 152.252C3.32588 156.152 2.32588 161.752 1.92588 166.252C1.32588 172.252 0.725879 180.352 0.525879 186.452C0.525879 187.652 0.625877 188.952 0.625877 190.252C2.82588 222.652 39.5259 252.652 97.7259 269.252L97.4259 270.252C43.8259 255.352 8.32588 228.652 0.925877 199.152Z" fill="white"/>
</g>
<mask id="mask2_201_608" style="mask-type:luminance" maskUnits="userSpaceOnUse" x="0" y="0" width="380" height="380">
<path d="M137.926 372.452C134.126 371.352 129.126 369.752 125.326 368.452C121.226 366.952 115.926 364.952 112.026 363.052C105.426 359.852 96.826 355.252 90.426 351.652C87.226 349.752 83.126 346.852 80.026 344.752C74.826 341.252 65.526 333.652 62.026 330.252C59.626 327.852 56.226 324.852 53.926 322.352C49.426 317.452 43.326 310.852 39.326 305.452C37.326 302.752 34.626 299.152 32.726 296.352C30.826 293.552 28.526 289.652 26.626 286.852C24.726 283.952 22.726 279.852 21.026 276.752C21.026 276.652 16.026 267.552 11.426 254.952C10.126 251.352 8.32601 246.452 7.42601 242.752C5.52601 235.352 3.22601 225.452 2.02601 217.952C1.32601 213.552 0.726011 207.652 0.426011 203.152C0.126011 198.252 -0.0739869 191.652 0.0260132 186.652C0.226013 171.552 8.02601 156.452 24.026 142.552C74.926 98.252 190.526 83.452 282.126 109.552C190.526 83.452 74.926 98.252 24.026 142.552C8.02601 156.452 0.326013 171.652 0.0260132 186.652C0.426013 178.252 1.02601 166.852 2.52601 158.552C3.62601 152.452 5.42601 144.452 6.92601 138.552C8.02601 134.352 9.82601 128.952 11.326 124.852C13.426 118.952 16.626 111.152 19.626 105.552C23.726 97.752 29.626 87.552 34.626 80.352C38.426 74.752 44.226 67.852 48.726 62.752C51.626 59.352 56.026 55.252 59.126 52.052C64.026 47.052 71.326 41.352 76.926 37.152C81.626 33.552 88.326 29.352 93.326 26.252C97.126 23.952 102.426 21.352 106.326 19.252C112.226 16.152 120.626 12.852 126.926 10.652C132.926 8.45203 141.126 6.05203 147.326 4.75203C151.526 3.85203 157.126 2.65203 161.326 2.05203C167.126 1.25203 174.926 0.352026 180.826 0.152026C189.126 -0.147974 200.226 -0.0479735 208.526 0.852027C213.826 1.45203 220.826 2.45202 226.026 3.45202C230.026 4.15202 235.326 5.45202 239.226 6.55202C252.426 10.052 262.926 14.552 266.326 16.052C272.226 18.652 281.626 23.252 289.926 28.452C301.926 35.952 308.826 41.852 309.126 42.052C311.726 44.252 315.326 47.052 317.726 49.452C320.126 51.752 323.426 54.852 325.826 57.252C328.226 59.652 331.226 62.952 333.426 65.552C335.626 68.052 338.426 71.552 340.526 74.252C342.526 76.952 345.126 80.652 347.126 83.352C349.126 86.052 351.326 90.052 353.226 92.852C355.126 95.752 357.226 99.852 358.826 102.952C360.426 106.052 362.426 110.252 363.826 113.452C365.826 117.752 369.726 127.552 372.426 136.952C373.426 140.552 374.726 145.452 375.526 149.052C376.426 153.252 377.526 158.952 378.026 163.152C378.926 170.152 380.026 178.852 379.926 192.852C379.826 201.352 378.726 212.552 377.426 220.952C376.426 227.052 374.526 235.052 373.026 240.952C371.926 245.152 369.926 250.552 368.626 254.652C366.726 260.652 363.226 268.352 360.326 273.952C356.326 281.752 350.226 291.852 345.326 299.152C341.526 304.752 335.826 311.752 331.226 316.752C318.226 331.152 303.226 343.452 286.526 353.252C280.726 356.652 272.826 361.052 266.526 363.552C262.426 365.152 257.126 367.552 253.026 368.952C247.026 370.952 238.826 373.452 232.626 374.852C224.326 376.652 213.126 378.552 204.626 379.152C198.826 379.552 191.026 379.752 185.226 379.652C181.126 379.652 175.626 379.152 171.426 378.752C166.126 378.252 159.126 377.152 153.926 376.152C149.026 375.352 142.626 373.852 137.926 372.452Z" fill="white"/>
</mask>
<g mask="url(#mask2_201_608)">
<path d="M147.326 374.252C142.226 374.252 137.326 373.152 132.726 371.052C121.426 365.852 112.226 354.052 106.126 337.052C102.726 327.652 100.226 316.852 98.7258 304.852C83.0258 290.252 69.1258 273.552 57.6258 255.552C26.0258 240.152 5.4258 219.752 0.525795 197.752C-3.77421 178.252 4.12579 159.152 23.5258 142.252L24.3258 141.552V142.652C23.8258 181.152 36.5258 220.452 58.3258 254.852C70.0258 260.552 83.2258 265.452 97.6258 269.552L98.0258 269.652V270.052C97.8258 282.352 98.4258 293.952 99.7258 304.452C125.026 327.752 155.026 345.552 187.326 354.752L188.226 355.052L187.526 355.652C173.426 368.052 159.726 374.252 147.326 374.252ZM100.026 305.952C104.426 339.052 116.126 362.152 133.226 370.152C148.426 377.252 166.826 372.152 186.226 355.552C154.426 346.352 124.926 328.752 100.026 305.952ZM59.4258 256.452C70.4258 273.552 83.6258 289.452 98.6258 303.352C97.4258 293.252 96.9258 282.252 97.1258 270.452C83.2258 266.452 70.6258 261.752 59.4258 256.452ZM23.4258 143.752C4.92579 160.152 -2.57421 178.752 1.62579 197.552C6.42579 218.952 26.2258 238.852 56.7258 254.052C35.5258 220.052 23.1258 181.552 23.4258 143.752Z" fill="white"/>
<path d="M140.926 373.652C61.726 351.152 -1.67397 268.552 -0.473965 189.552H0.526035C-0.673965 268.152 62.426 350.252 141.126 372.652L140.926 373.652Z" fill="white"/>
<path d="M40.5258 281.252C29.1258 281.252 21.7258 278.752 19.0258 273.852C14.4258 265.452 23.4258 251.052 45.0258 232.252L45.7258 233.052C24.8258 251.252 15.7258 265.552 20.0258 273.352C25.8258 283.852 54.0258 282.452 97.5258 269.652L97.8258 270.652C73.6258 277.652 54.2258 281.252 40.5258 281.252Z" fill="white"/>
<path d="M66.9257 333.852C65.9257 333.852 65.0257 333.552 64.4257 333.052C57.6257 326.852 82.0257 290.752 97.2257 269.752L98.0257 270.352C60.9257 321.752 63.4257 330.752 65.1257 332.252C66.7257 333.752 73.7257 334.352 103.626 308.452L104.326 309.252C90.7257 320.952 74.2257 333.852 66.9257 333.852Z" fill="white"/>
<path d="M147.326 374.252C142.226 374.252 137.326 373.152 132.726 371.052C121.426 365.852 112.226 354.052 106.126 337.052C99.726 319.352 96.626 296.752 97.026 270.052V269.352L97.626 269.552C188.926 295.552 304.526 280.752 355.326 236.652L356.126 235.952V237.052C355.426 280.152 338.326 316.252 307.926 338.852C275.726 362.752 232.926 368.752 187.226 355.852C173.226 368.052 159.626 374.252 147.326 374.252ZM98.026 270.752C97.326 322.452 110.426 359.652 133.126 370.152C148.526 377.352 167.126 372.052 186.826 354.852L187.026 354.652L187.326 354.752C232.826 367.652 275.426 361.752 307.426 337.952C337.326 315.752 354.226 280.352 355.126 238.052C321.026 267.152 258.726 283.252 194.026 283.352C161.526 283.352 128.526 279.352 98.026 270.752Z" fill="white"/>
<path d="M180.726 379.452C167.926 379.452 154.526 377.552 140.926 373.652L141.226 372.652C180.426 383.852 217.226 378.652 244.826 358.152C270.826 338.852 285.426 307.852 286.026 270.952H287.026C286.426 308.152 271.626 339.352 245.426 358.852C227.126 372.552 204.926 379.452 180.726 379.452Z" fill="white"/>
<path d="M223.326 375.352C218.026 375.352 212.626 374.752 207.126 373.652C165.826 365.252 124.626 326.652 97.126 270.252L98.026 269.852C125.426 325.952 166.326 364.352 207.326 372.752C231.026 377.552 253.026 371.852 271.026 356.152L271.726 356.952C257.626 369.152 241.126 375.352 223.326 375.352Z" fill="white"/>
<path d="M259.226 338.152C208.326 338.152 147.326 314.252 97.2261 270.452L97.9261 269.652C176.026 338.052 280.726 357.752 331.426 313.652L332.126 314.452C313.626 330.552 288.026 338.152 259.226 338.152Z" fill="white"/>
<path d="M194.026 283.352C161.326 283.352 128.026 279.252 97.4259 270.552L97.0259 270.452V270.052C98.4259 178.652 141.026 68.352 192.026 24.052L192.226 23.8521L192.526 23.952C284.226 50.052 357.626 145.652 356.226 237.052V237.252L356.026 237.352C322.126 266.952 259.326 283.352 194.026 283.352ZM98.0259 269.652C189.226 295.452 304.426 280.752 355.126 236.752C356.426 145.852 283.526 50.9521 192.426 24.8521C141.926 69.1521 99.6259 178.752 98.0259 269.652Z" fill="white"/>
<path d="M287.026 271.052H286.026C287.226 192.452 224.126 110.352 145.426 87.9521L145.726 86.9521C224.826 109.552 288.226 192.152 287.026 271.052Z" fill="white"/>
<path d="M97.7258 270.552L97.4258 269.552C177.026 245.952 283.226 190.852 334.026 146.652L334.726 147.452C283.726 191.752 177.426 246.952 97.7258 270.552Z" fill="white"/>
<path d="M97.926 270.352L97.126 269.752C144.526 204.052 224.526 114.652 275.426 70.3521L276.126 71.1521C225.226 115.352 145.326 204.752 97.926 270.352Z" fill="white"/>
<path d="M98.026 270.752L97.426 270.552C43.526 255.252 7.32603 228.052 0.62603 197.752C-3.67397 178.352 4.22603 159.252 23.426 142.452C24.126 99.4521 41.226 63.4521 71.626 40.8521C103.826 16.9521 146.826 10.8521 192.526 23.9521L193.426 24.2521L192.726 24.8521C141.926 69.0521 99.526 179.052 98.026 270.152V270.752ZM146.426 18.1521C118.526 18.1521 93.126 26.0521 72.126 41.6521C42.026 64.0521 25.026 99.9521 24.326 142.652V142.852L24.126 142.952C5.02603 159.552 -2.77397 178.352 1.42603 197.452C8.02603 227.252 43.726 254.052 96.926 269.352C98.526 178.552 140.726 69.1521 191.226 24.5521C175.926 20.3521 160.926 18.1521 146.426 18.1521Z" fill="white"/>
<path d="M0.525879 189.552H-0.474121C0.125879 152.352 14.9259 121.152 41.1259 101.652C68.9259 80.9522 106.126 75.7522 145.626 87.0522L145.326 88.0522C106.126 76.8522 69.3259 82.0522 41.7259 102.552C15.7259 121.752 1.12588 152.752 0.525879 189.552Z" fill="white"/>
<path d="M97.1261 270.252C52.1261 178.152 56.9261 67.152 108.026 22.752L108.726 23.5519C58.0261 67.6519 53.2261 178.152 98.1261 269.852L97.1261 270.252Z" fill="white"/>
<path d="M97.2261 270.452C48.8261 228.052 19.9261 175.252 20.0261 129.052C20.0261 102.952 29.6261 80.8521 47.5261 65.1521L48.2261 65.9521C30.5261 81.3521 21.0261 103.252 21.0261 129.052C20.9261 174.852 49.7261 227.452 97.9261 269.652L97.2261 270.452Z" fill="white"/>
<path d="M187.326 355.852L187.026 355.752C95.4259 329.652 22.0259 234.052 23.4259 142.652V142.452L23.626 142.352C74.626 98.0519 190.626 83.1519 282.226 109.252L282.626 109.352V109.752C281.226 201.152 238.626 311.452 187.626 355.752L187.326 355.852ZM24.4259 142.852C23.1259 233.752 96.0259 328.652 187.126 354.752C237.726 310.552 280.026 200.952 281.626 110.052C190.426 84.1519 75.2259 98.9519 24.4259 142.852Z" fill="white"/>
<path d="M234.026 292.652C154.826 270.152 91.4261 187.552 92.6261 108.552H93.6261C92.4261 187.152 155.526 269.252 234.226 291.652L234.026 292.652Z" fill="white"/>
<path d="M268.026 204.552C221.626 191.352 184.526 142.952 185.226 96.752H186.226C185.526 142.552 222.326 190.552 268.326 203.552L268.026 204.552Z" fill="white"/>
<path d="M45.6258 232.952L44.9258 232.152C95.8258 187.852 202.126 132.652 281.926 109.052L282.226 110.052C202.626 133.652 96.4258 188.752 45.6258 232.952Z" fill="white"/>
<path d="M104.226 309.252L103.526 308.452C154.326 264.252 234.326 174.852 281.626 109.252L282.426 109.852C235.026 175.552 155.126 265.052 104.226 309.252Z" fill="white"/>
<path d="M233.226 362.452C218.426 362.452 202.926 360.252 187.126 355.752L186.226 355.452L186.926 354.852C237.726 310.652 280.126 200.652 281.626 109.552V108.852L282.226 109.052C336.126 124.352 372.326 151.552 379.026 181.852C383.326 201.252 375.426 220.352 356.226 237.152C355.526 280.152 338.426 316.152 308.026 338.752C286.926 354.452 261.226 362.452 233.226 362.452ZM188.226 355.052C233.326 367.652 275.626 361.652 307.426 338.052C337.526 315.652 354.526 279.752 355.226 237.052V236.852L355.426 236.752C374.526 220.152 382.326 201.352 378.126 182.252C371.526 152.452 335.826 125.652 282.626 110.352C280.926 201.052 238.826 310.452 188.226 355.052Z" fill="white"/>
<path d="M273.825 298.452C261.025 298.452 247.625 296.552 234.025 292.652L234.325 291.652C273.525 302.852 310.325 297.652 337.925 277.152C363.925 257.852 378.525 226.852 379.125 189.952H380.125C379.525 227.152 364.725 258.352 338.525 277.852C320.325 291.552 298.125 298.452 273.825 298.452Z" fill="white"/>
<path d="M291.325 207.952C283.825 207.952 276.025 206.852 268.025 204.552L268.325 203.552C291.225 210.052 312.625 207.052 328.725 195.152C343.825 183.852 352.425 165.852 352.725 144.352H353.725C353.425 166.152 344.725 184.452 329.325 195.952C318.625 203.952 305.625 207.952 291.325 207.952Z" fill="white"/>
<path d="M271.626 356.852L270.926 356.052C321.626 311.952 326.426 201.452 281.526 109.752L282.426 109.352C327.526 201.452 322.726 312.552 271.626 356.852Z" fill="white"/>
<path d="M332.126 314.452L331.426 313.652C349.126 298.252 358.626 276.352 358.626 250.552C358.726 204.752 329.926 152.152 281.726 109.952L282.426 109.152C330.826 151.552 359.726 204.352 359.626 250.552C359.626 276.752 350.026 298.852 332.126 314.452Z" fill="white"/>
<path d="M355.226 238.152V237.052C355.826 198.552 343.126 159.352 321.326 124.852C309.626 119.152 296.426 114.252 282.026 110.152L281.626 110.052V109.652C281.826 97.352 281.226 85.752 279.926 75.252C254.626 51.952 224.626 34.152 192.326 24.952L191.426 24.652L192.126 24.052C212.126 6.65201 231.126 1.25201 246.926 8.65201C258.226 13.852 267.426 25.652 273.526 42.652C276.926 52.052 279.426 62.852 280.926 74.852C296.626 89.452 310.526 106.152 322.026 124.152C353.626 139.552 374.226 159.952 379.126 181.952C383.426 201.452 375.526 220.552 356.126 237.452L355.226 238.152ZM322.926 125.652C344.126 159.552 356.526 198.052 356.226 235.852C374.726 219.452 382.226 200.852 378.026 182.052C373.326 160.752 353.526 140.852 322.926 125.652ZM282.626 109.252C296.426 113.152 309.026 117.952 320.326 123.252C309.326 106.152 296.126 90.252 281.126 76.352C282.226 86.452 282.726 97.452 282.626 109.252ZM193.426 24.152C225.226 33.352 254.726 50.852 279.626 73.652C275.226 40.552 263.526 17.452 246.426 9.45201C231.226 2.45201 212.926 7.45201 193.426 24.152Z" fill="white"/>
<path d="M380.126 190.152H379.126C380.326 111.552 317.226 29.452 238.526 7.052L238.826 6.052C317.926 28.552 381.326 111.152 380.126 190.152Z" fill="white"/>
<path d="M353.726 144.352H352.726C353.426 98.552 316.626 50.552 270.626 37.552L270.926 36.552C317.326 49.752 354.426 98.152 353.726 144.352Z" fill="white"/>
<path d="M334.726 147.452L334.026 146.652C354.926 128.452 364.026 114.152 359.726 106.352C353.926 95.852 325.726 97.252 282.226 110.052L281.926 109.052C325.926 96.052 354.626 94.852 360.626 105.752C365.226 114.252 356.326 128.652 334.726 147.452Z" fill="white"/>
<path d="M282.526 109.952L281.726 109.352C318.826 57.9519 316.326 48.9519 314.626 47.4519C313.026 45.9519 306.026 45.3519 276.126 71.2519L275.426 70.4519C290.826 57.0519 310.226 42.0519 315.226 46.6519C322.026 52.8519 297.626 88.9519 282.526 109.952Z" fill="white"/>
<path d="M23.4258 143.752V142.652C24.1258 99.552 41.2258 63.452 71.6258 40.852C103.826 16.952 146.626 10.952 192.326 23.852C212.326 6.55201 231.126 1.25202 246.926 8.65202C258.226 13.852 267.426 25.652 273.526 42.652C279.926 60.352 283.026 82.952 282.626 109.652V110.352L282.026 110.152C190.726 84.152 75.1258 98.952 24.3258 143.052L23.4258 143.752ZM146.426 18.152C118.526 18.152 93.1258 26.052 72.1258 41.652C42.2258 63.852 25.3258 99.252 24.4258 141.552C75.7258 97.852 190.526 83.252 281.526 108.952C282.226 57.252 269.126 20.052 246.426 9.55201C231.026 2.35201 212.426 7.65201 192.726 24.852L192.526 25.052L192.226 24.952C176.526 20.452 161.126 18.152 146.426 18.152Z" fill="white"/>
<path d="M93.626 108.652H92.626C93.226 71.452 108.026 40.252 134.226 20.752C162.026 0.0520077 199.226 -5.14799 238.726 6.15201L238.426 7.15201C199.226 -4.04799 162.426 1.15201 134.826 21.652C108.826 40.752 94.226 71.752 93.626 108.652Z" fill="white"/>
<path d="M186.226 96.7519H185.226C185.526 74.9519 194.226 56.6519 209.626 45.1519C225.926 33.0519 247.726 29.9519 270.926 36.5519L270.626 37.5519C247.726 31.0519 226.326 34.0519 210.226 45.9519C195.126 57.2519 186.626 75.2519 186.226 96.7519Z" fill="white"/>
<path d="M281.626 109.852C254.226 53.7519 213.326 15.3519 172.326 6.95194C148.626 2.15194 126.626 7.85193 108.626 23.5519L107.926 22.7519C126.126 6.85194 148.426 1.05194 172.426 5.95194C213.726 14.3519 254.926 52.9519 282.426 109.352L281.626 109.852Z" fill="white"/>
<path d="M281.726 109.952C203.626 41.5521 98.9259 21.8521 48.2259 65.9521L47.5259 65.1521C98.6259 20.7521 203.926 40.5521 282.326 109.152L281.726 109.952Z" fill="white"/>
</g>
<mask id="mask3_201_608" style="mask-type:luminance" maskUnits="userSpaceOnUse" x="0" y="0" width="380" height="380">
<path d="M137.926 372.452C134.126 371.352 129.126 369.752 125.326 368.452C121.226 366.952 115.926 364.952 112.026 363.052C105.426 359.852 96.826 355.252 90.426 351.652C87.226 349.752 83.126 346.852 80.026 344.752C74.826 341.252 65.526 333.652 62.026 330.252C59.626 327.852 56.226 324.852 53.926 322.352C49.426 317.452 43.326 310.852 39.326 305.452C37.326 302.752 34.626 299.152 32.726 296.352C30.826 293.552 28.526 289.652 26.626 286.852C24.726 283.952 22.726 279.852 21.026 276.752C21.026 276.652 16.026 267.552 11.426 254.952C10.126 251.352 8.32601 246.452 7.42601 242.752C5.52601 235.352 3.22601 225.452 2.02601 217.952C1.32601 213.552 0.726011 207.652 0.426011 203.152C0.126011 198.252 -0.0739869 191.652 0.0260132 186.652C0.226013 171.552 8.02601 156.452 24.026 142.552C74.926 98.252 190.526 83.452 282.126 109.552C190.526 83.452 74.926 98.252 24.026 142.552C8.02601 156.452 0.326013 171.652 0.0260132 186.652C0.426013 178.252 1.02601 166.852 2.52601 158.552C3.62601 152.452 5.42601 144.452 6.92601 138.552C8.02601 134.352 9.82601 128.952 11.326 124.852C13.426 118.952 16.626 111.152 19.626 105.552C23.726 97.752 29.626 87.552 34.626 80.352C38.426 74.752 44.226 67.852 48.726 62.752C51.626 59.352 56.026 55.252 59.126 52.052C64.026 47.052 71.326 41.352 76.926 37.152C81.626 33.552 88.326 29.352 93.326 26.252C97.126 23.952 102.426 21.352 106.326 19.252C112.226 16.152 120.626 12.852 126.926 10.652C132.926 8.45203 141.126 6.05203 147.326 4.75203C151.526 3.85203 157.126 2.65203 161.326 2.05203C167.126 1.25203 174.926 0.352026 180.826 0.152026C189.126 -0.147974 200.226 -0.0479735 208.526 0.852027C213.826 1.45203 220.826 2.45202 226.026 3.45202C230.026 4.15202 235.326 5.45202 239.226 6.55202C252.426 10.052 262.926 14.552 266.326 16.052C272.226 18.652 281.626 23.252 289.926 28.452C301.926 35.952 308.826 41.852 309.126 42.052C311.726 44.252 315.326 47.052 317.726 49.452C320.126 51.752 323.426 54.852 325.826 57.252C328.226 59.652 331.226 62.952 333.426 65.552C335.626 68.052 338.426 71.552 340.526 74.252C342.526 76.952 345.126 80.652 347.126 83.352C349.126 86.052 351.326 90.052 353.226 92.852C355.126 95.752 357.226 99.852 358.826 102.952C360.426 106.052 362.426 110.252 363.826 113.452C365.826 117.752 369.726 127.552 372.426 136.952C373.426 140.552 374.726 145.452 375.526 149.052C376.426 153.252 377.526 158.952 378.026 163.152C378.926 170.152 380.026 178.852 379.926 192.852C379.826 201.352 378.726 212.552 377.426 220.952C376.426 227.052 374.526 235.052 373.026 240.952C371.926 245.152 369.926 250.552 368.626 254.652C366.726 260.652 363.226 268.352 360.326 273.952C356.326 281.752 350.226 291.852 345.326 299.152C341.526 304.752 335.826 311.752 331.226 316.752C318.226 331.152 303.226 343.452 286.526 353.252C280.726 356.652 272.826 361.052 266.526 363.552C262.426 365.152 257.126 367.552 253.026 368.952C247.026 370.952 238.826 373.452 232.626 374.852C224.326 376.652 213.126 378.552 204.626 379.152C198.826 379.552 191.026 379.752 185.226 379.652C181.126 379.652 175.626 379.152 171.426 378.752C166.126 378.252 159.126 377.152 153.926 376.152C149.026 375.352 142.626 373.852 137.926 372.452Z" fill="white"/>
</mask>
<g mask="url(#mask3_201_608)">
<path d="M187.526 380.252C186.626 380.252 185.826 380.252 185.026 380.252C181.026 380.252 175.826 379.752 171.226 379.352C165.826 378.852 158.626 377.752 153.726 376.752C148.426 375.752 142.126 374.252 137.826 372.952C132.426 371.352 128.126 369.952 125.226 368.852C119.326 366.752 114.926 364.952 111.826 363.452C105.726 360.552 97.2262 356.052 90.2262 352.052C87.7262 350.652 84.7262 348.552 82.0262 346.752C81.2262 346.252 80.4262 345.652 79.7262 345.152C74.5262 341.652 65.1262 333.952 61.6262 330.552C60.9262 329.852 60.0262 329.052 59.1262 328.252C57.1262 326.352 55.0262 324.452 53.4262 322.652L52.8262 322.052C48.2262 317.052 42.6262 310.952 38.7262 305.752C36.5262 302.752 33.9262 299.352 32.1262 296.652C30.8262 294.752 29.3262 292.352 27.8262 290.052C27.2262 289.052 26.6262 288.052 26.0262 287.152C24.7262 285.052 23.2262 282.352 22.0262 279.952C21.4262 278.952 20.9262 277.952 20.4262 277.052C20.4262 276.952 15.4262 267.752 10.8262 255.252C9.42617 251.452 7.72617 246.652 6.82617 242.952C5.92617 239.552 3.02617 227.752 1.42617 218.152C0.62617 213.552 0.0261719 207.452 -0.173828 203.352C-0.473828 198.652 -0.673828 192.052 -0.673828 186.852C-0.673828 185.752 -0.573827 184.652 -0.473827 183.552C-0.0738274 175.452 0.526172 166.052 1.82617 158.652C2.92617 152.452 4.72617 144.352 6.22617 138.552C7.62617 133.152 9.92618 126.652 10.6262 124.852C12.6262 119.252 15.9262 111.252 18.9262 105.452C23.5262 96.7521 29.4262 86.7521 34.0262 80.1521C37.1262 75.6521 41.9262 69.7521 48.1262 62.5521C50.1262 60.2521 52.8262 57.5521 55.4262 55.0521C56.5262 53.9521 57.6262 52.8521 58.6262 51.8521C63.6262 46.7521 71.2262 40.8521 76.4262 36.8521C81.9262 32.6521 89.8262 27.8521 92.9262 25.9521C95.7262 24.2521 99.4262 22.3521 102.626 20.6521C103.826 20.0521 104.926 19.4521 105.926 18.9521C110.626 16.4521 117.326 13.6521 126.526 10.2521C132.526 8.05212 140.726 5.65212 146.926 4.35212C153.026 3.05212 157.626 2.15212 160.926 1.65212C165.426 1.05212 174.026 -0.0478757 180.426 -0.247876C187.626 -0.547876 199.226 -0.447879 208.126 0.452121C213.226 1.05212 220.226 2.05212 225.626 3.05212C230.726 3.95212 237.026 5.65213 238.826 6.15213C252.026 9.65213 262.626 14.2521 266.026 15.7521C272.026 18.3521 281.326 22.9521 289.726 28.2521C301.826 35.8521 308.726 41.6521 309.026 41.9521C309.826 42.6521 310.626 43.3521 311.526 44.0521C313.626 45.8521 315.926 47.6521 317.626 49.3521C318.426 50.0521 319.226 50.9521 320.126 51.7521C322.026 53.6521 324.126 55.5521 325.726 57.1521C328.126 59.5521 331.126 62.9521 333.326 65.4521C335.526 67.9521 338.326 71.4521 340.426 74.1521C341.826 75.9521 343.426 78.2521 345.026 80.4521C345.726 81.4521 346.426 82.4521 347.026 83.2521C348.426 85.1521 349.926 87.5521 351.326 89.9521C351.926 90.9521 352.526 91.9521 353.126 92.8521C355.026 95.8521 357.226 100.052 358.726 102.952C360.326 106.152 362.326 110.452 363.726 113.452C365.726 117.752 369.626 127.552 372.326 137.052C373.326 140.352 374.626 145.352 375.426 149.252C376.026 151.852 377.326 158.352 378.026 163.452C378.926 170.452 380.026 179.152 379.926 193.252C379.826 201.252 378.826 212.552 377.426 221.452C376.226 228.652 373.926 237.852 373.026 241.552C372.226 244.452 371.126 247.852 370.026 251.152C369.526 252.652 369.026 254.052 368.626 255.352C366.526 261.952 362.826 269.852 360.326 274.752C356.326 282.552 350.226 292.652 345.226 300.052C341.126 306.052 335.226 313.052 331.126 317.652C318.126 332.052 303.026 344.452 286.326 354.252C282.726 356.352 273.526 361.652 266.226 364.552C265.026 365.052 263.726 365.552 262.326 366.152C259.126 367.452 255.626 368.952 252.626 369.952C246.826 371.852 238.626 374.452 232.226 375.852C224.526 377.552 213.126 379.552 204.126 380.152C199.526 380.052 193.026 380.252 187.526 380.252ZM0.526173 186.852C0.526173 191.952 0.62617 198.552 0.92617 203.252C1.22617 207.352 1.72617 213.352 2.52617 217.952C4.12617 227.552 7.12617 239.252 7.92617 242.652C8.82617 246.352 10.5262 251.052 11.9262 254.852C16.4262 267.252 21.4262 276.452 21.4262 276.552C21.9262 277.452 22.4262 278.452 23.0262 279.452C24.3262 281.852 25.7262 284.552 27.0262 286.552C27.6262 287.452 28.2262 288.452 28.8262 289.452C30.2262 291.752 31.7262 294.152 33.0262 296.052C34.8262 298.752 37.3262 302.152 39.6262 305.152C43.4262 310.252 49.1262 316.452 53.6262 321.352L54.2262 321.952C55.8262 323.652 57.8262 325.552 59.8262 327.452C60.7262 328.252 61.5262 329.052 62.3262 329.752C65.8262 333.152 75.1262 340.752 80.3262 344.252C81.0262 344.752 81.8262 345.252 82.6262 345.852C85.2262 347.652 88.2262 349.752 90.7262 351.152C97.7262 355.152 106.226 359.652 112.326 362.552C115.326 364.052 119.826 365.852 125.626 367.952C128.526 369.052 132.726 370.352 138.126 371.952C142.426 373.252 148.626 374.752 153.926 375.752C158.826 376.652 165.926 377.852 171.326 378.352C175.826 378.752 181.026 379.152 185.026 379.252C190.926 379.352 198.726 379.152 204.326 378.752C213.326 378.152 224.626 376.152 232.226 374.452C238.626 373.052 246.826 370.452 252.526 368.552C255.426 367.552 259.026 366.152 262.126 364.752C263.526 364.152 264.826 363.652 266.026 363.152C273.326 360.252 282.426 355.052 285.926 352.852C302.526 343.052 317.526 330.752 330.526 316.352C334.426 311.952 340.526 304.752 344.526 298.852C349.526 291.552 355.526 281.452 359.526 273.652C362.026 268.852 365.626 260.952 367.726 254.452C368.126 253.152 368.626 251.752 369.126 250.252C370.226 246.952 371.326 243.552 372.126 240.752C373.026 237.152 375.426 227.952 376.526 220.752C377.926 211.952 378.926 200.652 379.026 192.752C379.226 178.752 378.026 170.052 377.226 163.152C376.626 158.052 375.226 151.652 374.726 149.052C373.926 145.152 372.626 140.252 371.626 136.952C368.926 127.552 365.026 117.752 363.126 113.452C361.726 110.452 359.726 106.152 358.126 103.052C356.626 100.152 354.426 96.0521 352.526 93.0521C351.926 92.1521 351.326 91.1521 350.726 90.1521C349.326 87.8521 347.826 85.4521 346.426 83.5521C345.826 82.6521 345.126 81.7521 344.426 80.7521C342.926 78.5521 341.326 76.3521 339.926 74.5521C337.926 71.9521 335.126 68.4521 332.926 65.9521C330.726 63.4521 327.726 60.0521 325.326 57.6521C323.726 56.0521 321.726 54.0521 319.726 52.2521C318.826 51.4521 317.926 50.5521 317.226 49.8521C315.526 48.2521 313.326 46.3521 311.226 44.6521C310.326 43.9521 309.426 43.1521 308.626 42.5521C308.326 42.3521 301.526 36.4521 289.426 28.9521C281.126 23.7521 271.826 19.1521 265.826 16.5521C262.426 15.0521 251.926 10.5521 238.726 7.05212C236.926 6.55212 230.626 4.95212 225.626 4.05212C220.326 3.05212 213.326 2.05212 208.226 1.45212C199.426 0.452121 187.826 0.452124 180.626 0.752124C174.226 0.952124 165.726 2.05212 161.126 2.65212C157.826 3.15212 153.226 3.95212 147.226 5.35212C141.026 6.75212 132.826 9.05212 126.926 11.2521C117.726 14.5521 111.026 17.3521 106.426 19.8521C105.426 20.4521 104.226 20.9521 103.126 21.6521C99.9262 23.3521 96.3262 25.2521 93.5262 26.9521C90.4262 28.8521 82.6262 33.6521 77.1262 37.8521C71.9262 41.8521 64.3262 47.6521 59.4262 52.7521C58.4262 53.7521 57.3262 54.8521 56.2262 55.9521C53.6262 58.4521 51.0262 61.0521 49.0262 63.4521C42.8262 70.6521 38.1262 76.5521 35.0262 80.9521C30.4262 87.5521 24.6262 97.4521 20.0262 106.152C17.0262 111.852 13.8262 119.852 11.8262 125.352C11.1262 127.252 8.82617 133.652 7.42617 139.052C5.92617 144.852 4.12617 152.852 3.02617 159.052C2.12617 163.952 1.62617 169.752 1.22617 175.452C3.02617 169.052 6.12617 162.652 10.6262 156.552C14.1262 151.652 18.5262 146.952 23.7262 142.452C63.5262 107.852 143.026 91.1521 219.626 97.9521C240.326 99.7521 260.726 103.352 280.126 108.652C280.226 108.652 280.426 108.752 280.526 108.752C280.626 108.752 280.726 108.852 280.826 108.852C280.826 108.852 280.826 108.852 280.926 108.852C281.026 108.852 281.226 108.952 281.326 108.952C281.426 108.952 281.526 109.052 281.626 109.052C281.826 109.152 282.126 109.152 282.326 109.252L282.026 110.252C281.926 110.252 281.726 110.152 281.626 110.152C281.526 110.152 281.426 110.052 281.326 110.052C281.226 110.052 281.226 110.052 281.126 109.952C281.126 109.952 281.126 109.952 281.026 109.952C260.526 104.152 238.726 100.452 216.826 98.6521H216.726C141.226 92.5521 63.5262 109.052 24.3262 143.152C16.6262 149.852 10.8262 156.952 6.82617 164.252C3.42617 170.552 1.32617 177.052 0.726173 183.652C0.726173 184.452 0.626171 185.152 0.626171 185.952L0.526173 186.852Z" fill="white"/>
</g>
</svg>
