<svg width="456" height="354" viewBox="0 0 456 354" fill="none" xmlns="http://www.w3.org/2000/svg">
<path d="M88.5999 46.2751C81.9999 46.2751 75.1999 45.2751 68.1999 43.1751C59.2999 40.3751 50.6999 36.8751 42.4999 33.3751C30.4999 28.3751 17.9999 23.1751 4.3999 20.5751L4.5999 19.5751C18.2999 22.1751 30.7999 27.3751 42.8999 32.4751C51.0999 35.8751 59.5999 39.4751 68.4999 42.1751C89.0999 48.5751 106.9 44.3751 127.3 36.1751C130.3 34.9751 133.3 33.7751 136.2 32.4751C149.4 26.9751 163 21.2751 177.6 19.7751C189.6 18.4751 202.1 18.7751 214.3 19.0751C219.5 19.1751 224.9 19.2751 230.2 19.2751C235.3 19.2751 240.6 19.3751 245.6 19.4751C256.1 19.6751 266.9 19.9751 277.3 19.0751C291.9 17.8751 305.8 13.2751 319.3 8.67512C323.7 7.17512 328.3 5.67512 332.8 4.27512C362.2 -4.72488 386.2 2.17512 411.6 9.47512C425.6 13.4751 440.1 17.6751 456 19.1751L455.9 20.1751C439.9 18.6751 425.4 14.4751 411.3 10.4751C386.1 3.27512 362.2 -3.62488 333.1 5.27512C328.6 6.67512 324 8.17512 319.6 9.67512C306 14.1751 292 18.8751 277.4 20.0751C266.9 20.9751 256.1 20.6751 245.6 20.4751C240.5 20.3751 235.3 20.2751 230.2 20.2751C225 20.2751 219.5 20.1751 214.3 20.0751C202.2 19.7751 189.6 19.4751 177.7 20.7751C163.2 22.2751 149.6 27.9751 136.5 33.3751C133.6 34.5751 130.6 35.8751 127.6 37.0751C114 42.5751 101.5 46.2751 88.5999 46.2751Z" fill="white"/>
<path d="M88.7002 56.3751C82.0002 56.3751 75.3002 55.4751 68.2002 53.5751C59.4002 51.1751 50.9002 48.0751 42.6002 45.1751C30.3002 40.7751 17.6002 36.1751 4.2002 33.8751L4.40019 32.8751C17.9002 35.2751 30.7002 39.7751 43.0002 44.1751C51.2002 47.1751 59.8002 50.1751 68.5002 52.5751C89.0002 58.1751 106.8 54.5751 127.3 47.4751C130.5 46.3751 133.7 45.1751 136.8 44.0751C149.9 39.3751 163.4 34.4751 177.5 33.0751C186.7 32.1751 196.2 31.8751 205.4 31.4751C213.5 31.1751 221.9 30.8751 230 30.1751C234 29.8751 238 29.4751 242 29.1751C272.9 26.6751 302 24.1751 332.6 18.3751C354.4 14.1751 371.9 12.5751 391.7 17.4751C398.5 19.0751 405.2 20.9751 411.6 22.8751C426.4 27.0751 440.4 30.9751 455.8 32.5751L455.7 33.5751C440.3 32.0751 425.6 27.8751 411.3 23.8751C404.8 22.0751 398.1 20.1751 391.4 18.4751C371.7 13.6751 354.3 15.2751 332.7 19.4751C302 25.3751 272.9 27.7751 242 30.2751C238 30.5751 234.1 30.9751 230 31.2751C221.8 31.9751 213.4 32.2751 205.3 32.5751C196.1 32.8751 186.6 33.1751 177.4 34.1751C163.4 35.5751 149.9 40.4751 136.9 45.1751C133.8 46.2751 130.6 47.4751 127.4 48.5751C114 53.2751 101.5 56.3751 88.7002 56.3751Z" fill="white"/>
<path d="M96.3 61.5751C77.8 61.5751 60.4 57.8751 42.3 53.9751C30.1 51.3751 17.4 48.6751 4 47.0751L4.1 46.0751C17.5 47.6751 30.2 50.3751 42.5 52.9751C70.3 58.8751 96.6 64.4751 127.4 56.6751C145.7 52.0751 164.4 49.3751 182.5 46.6751C198.1 44.3751 214.1 42.0751 230 38.5751C262.1 31.3751 293.1 31.7751 325.9 32.2751L332.4 32.3751C337.1 32.4751 341.8 32.4751 346.4 32.3751C361.1 32.3751 376.3 32.2751 391.3 34.8751C398.1 36.0751 404.9 37.4751 411.5 38.7751C425.8 41.6751 440.6 44.6751 455.7 45.7751L455.6 46.7751C440.5 45.6751 425.6 42.6751 411.2 39.7751C404.6 38.4751 397.8 37.0751 391 35.8751C376.1 33.2751 360.9 33.2751 346.3 33.3751C341.7 33.3751 337 33.3751 332.3 33.3751L325.8 33.2751C293.1 32.7751 262.2 32.2751 230.2 39.4751C214.3 43.0751 198.2 45.3751 182.7 47.6751C164.7 50.2751 146 52.9751 127.7 57.5751C116.7 60.4751 106.3 61.5751 96.3 61.5751Z" fill="white"/>
<path d="M98.1998 68.1751C80.0998 68.1751 62.2998 66.1751 43.8998 63.9751C30.8998 62.4751 17.3998 60.9751 3.7998 60.1751L3.89981 59.1751C17.4998 59.9751 30.9998 61.4751 43.9998 62.9751C72.1998 66.1751 98.7998 69.2751 127.5 65.0751C136.2 63.7751 145 62.7751 153.4 61.7751C179.7 58.6751 204.5 55.6751 229.7 45.9751C268 31.1751 293.5 36.4751 331.9 46.2751C370.4 56.0751 415.8 58.0751 455.4 59.1751V60.1751C415.8 59.0751 370.3 57.0751 331.7 47.1751C293.5 37.4751 268.1 32.2751 230.1 46.8751C204.7 56.6751 179.9 59.5751 153.5 62.7751C145.1 63.7751 136.4 64.7751 127.7 66.0751C117.7 67.6751 107.9 68.1751 98.1998 68.1751Z" fill="white"/>
<path d="M117 77.7751C96.9998 77.7751 76.6998 76.6751 56.5998 75.5751C38.1998 74.5751 20.7998 73.5751 3.7998 73.4751V72.4751C20.7998 72.5751 38.1998 73.5751 56.6998 74.5751C116.7 77.8751 178.7 81.2751 229.8 54.5751C231.3 53.7751 232.7 53.0751 234.2 52.2751C247.9 44.9751 262.1 37.4751 277.6 38.3751C291.8 39.1751 305.4 46.4751 318.6 53.4751C323.2 55.8751 327.5 58.1751 331.8 60.1751C362.1 74.2751 401 73.5751 435.3 72.8751C442.3 72.7751 448.9 72.5751 455.4 72.5751V73.5751C448.9 73.5751 442.3 73.6751 435.3 73.8751C400.9 74.5751 361.9 75.2751 331.4 61.0751C327.1 59.0751 322.8 56.7751 318.2 54.3751C305.1 47.3751 291.6 40.2751 277.6 39.3751C262.3 38.4751 248.3 45.9751 234.7 53.1751C233.2 53.9751 231.8 54.7751 230.3 55.4751C196 73.3751 157 77.7751 117 77.7751Z" fill="white"/>
<path d="M396.9 88.6751C373.2 88.6751 350.3 86.0751 331 74.8751C326.9 72.4751 322.9 69.7751 318.6 66.9751C305.7 58.4751 292.3 49.5751 277.5 48.6751C261.7 47.6751 247.7 56.1751 234.2 64.3751C232.8 65.1751 231.5 65.9751 230.2 66.7751C212.3 77.4751 198.2 85.8751 177 86.7751C166.2 87.2751 155.1 87.0751 144.4 86.9751C139 86.8751 133.4 86.8751 127.9 86.8751C101.2 86.8751 74.5002 86.8751 47.8002 86.8751C33.1002 86.8751 18.4002 86.8751 3.7002 86.8751V85.8751C18.4002 85.8751 33.1002 85.8751 47.8002 85.8751C74.5002 85.8751 101.2 85.8751 127.9 85.8751C133.4 85.8751 139 85.9751 144.4 85.9751C155.1 86.0751 166.2 86.2751 177 85.7751C198 84.8751 212 76.4751 229.7 65.8751C231 65.0751 232.4 64.2751 233.7 63.4751C246.7 55.5751 261.5 46.6751 277.6 47.6751C292.7 48.5751 306.2 57.4751 319.2 66.0751C323.5 68.8751 327.5 71.5751 331.6 73.9751C358.9 89.8751 393.9 88.2751 427.6 86.6751C437.3 86.2751 446.4 85.7751 455.2 85.7751V86.7751C446.4 86.7751 437.3 87.1751 427.6 87.6751C417.4 88.1751 407.1 88.6751 396.9 88.6751Z" fill="white"/>
<path d="M96.1999 101.775C80.0999 101.775 63.9999 101.375 47.9999 100.975C32.4999 100.575 17.8999 100.175 3.3999 100.175V99.1751C17.8999 99.1751 32.4999 99.5751 47.9999 99.9751C110.5 101.575 175 103.275 229.5 79.5751C231.6 78.6751 233.7 77.7751 235.8 76.7751C248.6 70.9751 263 64.4751 277.2 65.2751C291.8 66.0751 305.4 73.8751 318.6 81.3751C323 83.8751 327.1 86.2751 331.2 88.3751C359.7 102.775 394.1 101.375 427.4 99.9751C437 99.5751 446 99.1751 454.9 99.1751V100.175C446 100.175 437 100.575 427.4 100.975C394 102.375 359.5 103.775 330.7 89.2751C326.6 87.1751 322.4 84.7751 318 82.2751C304.9 74.7751 291.3 66.9751 277 66.2751C263 65.5751 248.7 72.0751 236 77.7751C233.9 78.7751 231.8 79.6751 229.7 80.5751C189.2 98.1751 142.9 101.775 96.1999 101.775Z" fill="white"/>
<path d="M396.1 114.875C373.5 114.875 351.1 113.075 330.6 105.575C326.5 104.075 322.2 102.375 318.2 100.675C304.9 95.3751 291.2 89.7751 276.7 88.9751C264.4 88.2751 251.6 90.4751 239.3 92.5751C236.1 93.1751 232.7 93.6751 229.5 94.1751C216.5 96.1751 203.3 97.7751 190.6 99.2751C170 101.675 148.6 104.275 127.6 108.775C97.0002 115.375 64.5002 114.675 33.0002 113.875C23.2002 113.675 13.0002 113.375 3.2002 113.375V112.375C13.1002 112.375 23.2002 112.575 33.1002 112.875C64.5002 113.575 96.9002 114.375 127.4 107.775C148.4 103.175 169.8 100.675 190.5 98.1751C203.2 96.6751 216.4 95.0751 229.4 93.0751C232.6 92.5751 236 91.9751 239.2 91.4751C251.6 89.3751 264.4 87.1751 276.8 87.8751C291.4 88.7751 305.2 94.2751 318.6 99.6751C322.7 101.275 326.9 102.975 331 104.475C360.4 115.275 393.9 114.175 426.2 112.975C436.1 112.675 445.5 112.275 454.8 112.275V113.275C445.5 113.275 436.1 113.575 426.2 113.975C416.2 114.475 406.1 114.875 396.1 114.875Z" fill="white"/>
<path d="M58.9 127.875C49.4 127.875 39.9 127.575 30.5 127.275C21.4 126.975 12 126.675 3 126.675V125.675C12 125.675 21.4 125.975 30.5 126.275C63.2 127.275 97 128.275 127.2 117.075C130.9 115.675 134.6 114.175 138.2 112.775C150.5 107.875 163.3 102.775 176.8 101.375C191.2 99.9752 206.2 102.575 220.6 105.175C223.5 105.675 226.4 106.175 229.3 106.675C243.3 108.975 257.4 110.775 271.1 112.475C290.6 114.875 310.7 117.375 330.6 121.575C360.6 127.875 392.6 127.075 423.6 126.275C433.8 125.975 444.4 125.775 454.5 125.775V126.775C444.3 126.775 433.8 127.075 423.6 127.275C392.5 128.075 360.4 128.875 330.3 122.575C310.5 118.375 290.4 115.875 270.9 113.475C257.2 111.775 243.1 109.975 229.1 107.675C226.2 107.175 223.3 106.675 220.4 106.175C206 103.575 191.1 100.975 176.8 102.375C163.5 103.675 150.8 108.775 138.5 113.675C134.9 115.175 131.1 116.675 127.4 117.975C105.9 126.175 82.5 127.875 58.9 127.875Z" fill="white"/>
<path d="M57.0999 141.375C47.8999 141.375 38.5999 141.075 29.3999 140.675C20.5999 140.375 11.4999 140.075 2.8999 140.075V139.075C11.5999 139.075 20.6999 139.375 29.4999 139.675C62.9999 140.875 97.5999 142.075 127.2 127.175C131 125.275 135 123.075 138.8 120.875C150.9 114.175 163.4 107.175 177 105.575C193.6 103.575 209.1 110.775 224.1 117.775C225.9 118.575 227.6 119.375 229.4 120.175C258.3 133.275 284.9 134.975 315.7 136.975C320.5 137.275 325.4 137.575 330.4 137.975C359.9 140.175 390.1 139.775 419.4 139.375C430.9 139.175 442.8 139.075 454.5 139.075V140.075C442.8 140.075 430.9 140.275 419.4 140.375C390.1 140.775 359.8 141.175 330.3 138.975C325.3 138.575 320.4 138.275 315.6 137.975C286 136.075 258 134.275 229 121.075C227.2 120.275 225.5 119.475 223.7 118.675C208.8 111.775 193.4 104.675 177.1 106.575C163.7 108.175 151.3 115.075 139.3 121.775C135.5 123.875 131.5 126.075 127.6 128.075C105.9 139.075 81.5999 141.375 57.0999 141.375Z" fill="white"/>
<path d="M58.2001 154.875C48.7001 154.875 39.0001 154.475 29.5001 154.075C20.2001 153.675 11.3001 153.375 2.6001 153.375V152.375C11.3001 152.375 20.2001 152.775 29.5001 153.075C63.3001 154.475 98.3001 155.875 126.8 139.475C130.5 137.275 134.3 134.975 138 132.575C150 124.975 162.4 117.175 176.7 114.975C194.8 112.175 210.2 121.775 225 130.975C226.4 131.875 227.7 132.675 229.1 133.575C245.5 143.675 258.4 150.975 275.6 152.375C287.5 153.375 300 152.975 312 152.675C317.9 152.475 324.1 152.375 330 152.375C349.8 152.375 369.6 152.375 389.4 152.375C411 152.375 432.6 152.375 454.2 152.375V153.375C432.6 153.375 411 153.375 389.4 153.375C369.6 153.375 349.8 153.375 330 153.375C324.1 153.375 318 153.575 312 153.675C299.9 153.975 287.4 154.375 275.5 153.375C258.1 151.975 245.1 144.575 228.6 134.475C227.2 133.675 225.9 132.775 224.5 131.875C209.8 122.675 194.7 113.175 176.9 115.975C162.9 118.175 150.5 125.975 138.6 133.475C134.9 135.775 131.1 138.175 127.4 140.375C106.7 152.275 82.7001 154.875 58.2001 154.875Z" fill="white"/>
<path d="M57.3001 167.975C48.0001 167.975 38.6001 167.675 29.3001 167.275C20.4001 166.975 11.3001 166.575 2.6001 166.575V165.575C11.3001 165.575 20.5001 165.875 29.4001 166.275C62.8001 167.475 97.4001 168.775 126.9 153.975C130.8 151.975 134.8 149.775 138.7 147.675C150.7 141.075 163.1 134.175 176.7 132.375C194.5 130.075 210.1 138.475 225.2 146.575C226.5 147.275 227.8 147.975 229.1 148.675C243.5 156.375 258.3 164.275 275.7 165.675C288.8 166.775 302.5 165.375 315.7 164.075C320.4 163.575 325.4 163.075 330.1 162.775C355.5 160.875 381 162.375 405.7 163.775C421.6 164.675 438 165.675 454.3 165.775V166.775C438 166.775 421.6 165.775 405.7 164.775C381.1 163.275 355.6 161.775 330.3 163.775C325.6 164.175 320.7 164.675 315.9 165.075C302.6 166.375 288.9 167.775 275.7 166.675C258.1 165.275 243.2 157.275 228.7 149.575C227.4 148.875 226.1 148.175 224.7 147.475C209.8 139.475 194.4 131.075 176.8 133.375C163.4 135.075 151.1 141.975 139.2 148.575C135.3 150.775 131.3 152.975 127.3 154.975C105.7 165.675 81.7001 167.975 57.3001 167.975Z" fill="white"/>
<path d="M59.2999 181.175C49.5999 181.175 39.8999 180.875 30.2999 180.575C21.0999 180.275 11.4999 179.975 2.3999 179.975V178.975C11.5999 178.975 21.0999 179.275 30.3999 179.575C62.9999 180.575 96.5999 181.675 126.6 170.675C130.5 169.275 134.5 167.675 138.4 166.075C150.5 161.175 163.1 156.175 176.2 154.875C193.9 153.175 209.4 159.175 225.8 165.475L228.7 166.575C267.1 181.375 293.7 177.475 329.9 169.775C358.6 163.675 384.1 168.175 411 172.975C424.8 175.375 439.1 177.975 454 178.975L453.9 179.975C439 178.975 424.7 176.475 410.8 173.975C383.9 169.275 358.6 164.775 330.1 170.775C294.8 178.275 266.8 182.375 228.3 167.575L225.4 166.475C209.1 160.175 193.8 154.175 176.3 155.875C163.3 157.175 150.8 162.175 138.8 166.975C134.9 168.575 130.9 170.175 127 171.575C105.6 179.475 82.4999 181.175 59.2999 181.175Z" fill="white"/>
<path d="M63.8002 194.275C53.4002 194.275 43.0002 193.975 32.7002 193.775C22.7002 193.575 12.3002 193.275 2.2002 193.275V192.275C12.3002 192.275 22.7002 192.575 32.7002 192.775C63.9002 193.575 96.1002 194.375 126.4 187.975C162.1 180.375 191.5 177.375 228.3 185.575C230 185.975 231.8 186.375 233.5 186.775C247.1 189.875 261.2 193.075 275.2 192.275C290.3 191.475 304.6 185.775 318.4 180.375C322.2 178.875 326.1 177.375 329.9 175.975C346.9 169.675 365.9 164.875 389.1 171.875C397.1 174.275 404.8 177.175 412.3 179.975C425.5 184.875 439.2 190.075 453.9 192.275L453.7 193.275C438.9 190.975 425.2 185.875 411.9 180.875C404.4 178.075 396.7 175.175 388.7 172.775C365.8 165.875 347 170.675 330.1 176.875C326.3 178.275 322.4 179.775 318.6 181.275C304.7 186.775 290.4 192.375 275.1 193.275C261 194.075 246.8 190.875 233.2 187.775C231.5 187.375 229.7 186.975 228 186.575C191.4 178.375 162.1 181.475 126.5 188.975C106.2 193.275 85.0002 194.275 63.8002 194.275Z" fill="white"/>
<path d="M71.8999 207.275C60.0999 207.275 48.3999 207.075 36.8999 206.975C25.3999 206.775 13.5999 206.675 1.8999 206.675V205.675C13.4999 205.675 25.3999 205.875 36.8999 205.975C66.1999 206.375 96.5999 206.775 126.1 204.575C166.4 201.475 197.7 201.175 227.8 203.675C231.1 203.975 234.5 204.275 237.8 204.575C250.1 205.775 262.8 206.975 274.8 205.575C290.8 203.775 304.9 196.175 318.6 188.875C322.2 186.975 325.9 184.975 329.6 183.175C350 172.875 367.1 168.375 388.9 177.375C397 180.775 404.8 184.775 412.3 188.575C425.8 195.575 438.5 202.075 453.6 205.475L453.4 206.475C438.2 203.075 424.8 196.175 411.9 189.475C404.4 185.575 396.7 181.575 388.6 178.275C367.1 169.375 350.3 173.875 330.1 183.975C326.4 185.775 322.7 187.775 319.1 189.675C305.3 197.075 291.1 204.675 274.9 206.475C262.7 207.875 250 206.675 237.6 205.475C234.3 205.175 230.9 204.875 227.6 204.575C197.6 202.175 166.3 202.375 126 205.475C108.3 206.875 90.0999 207.275 71.8999 207.275Z" fill="white"/>
<path d="M259 220.675C253.7 220.675 248.3 220.475 243.1 220.275C238 220.075 232.7 219.875 227.6 219.875C177.6 219.875 127.6 219.875 77.6999 219.875H1.8999V218.875H77.6999C127.7 218.875 177.7 218.875 227.6 218.875C232.7 218.875 238 219.075 243.1 219.275C253.6 219.675 264.5 220.075 274.7 218.875C291.4 216.975 304.8 208.775 318.9 199.975C322.4 197.875 325.9 195.675 329.5 193.575C349.3 182.175 367 176.575 388.9 186.775C397.2 190.675 405 195.275 412.4 199.775C425.5 207.675 437.9 215.175 453.4 218.775L453.2 219.775C437.5 216.175 425.1 208.675 411.9 200.675C404.5 196.175 396.8 191.575 388.5 187.675C367 177.675 349.5 183.175 330 194.475C326.4 196.575 322.9 198.775 319.4 200.875C305.7 209.275 291.6 217.975 274.7 219.875C269.6 220.475 264.3 220.675 259 220.675Z" fill="white"/>
<path d="M258.6 233.975C253.3 233.975 248 233.775 242.8 233.575C237.7 233.375 232.4 233.175 227.4 233.175H1.6001V232.175H227.4C232.5 232.175 237.8 232.375 242.9 232.575C253.4 232.975 264.3 233.275 274.6 232.175C290.7 230.375 305 222.775 318.8 215.375C322.3 213.575 325.8 211.575 329.4 209.775C341.3 203.775 350 200.675 358.5 199.475C368.6 198.075 378.2 199.375 388.7 203.675C397 207.075 404.9 211.175 412.5 215.175C425.8 222.075 438.4 228.675 453.3 232.075L453.1 233.075C438.1 229.675 424.8 222.775 412.1 216.075C404.5 212.075 396.6 208.075 388.3 204.675C366.9 195.875 350.6 200.275 329.8 210.775C326.3 212.575 322.7 214.475 319.2 216.275C305.3 223.675 290.9 231.375 274.6 233.175C269.4 233.775 264 233.975 258.6 233.975Z" fill="white"/>
<path d="M258.5 247.075C253.2 247.075 248 246.975 242.8 246.775C237.7 246.675 232.4 246.475 227.2 246.475H1.5V245.475H227.3C232.5 245.475 237.8 245.575 242.9 245.775C253.3 246.075 264.1 246.275 274.5 245.475C290.4 244.275 304.5 238.775 319.5 232.975C322.7 231.775 325.9 230.475 329.2 229.275C349.1 221.875 366.8 218.275 388.4 224.675C396.7 227.175 404.8 230.175 412.6 233.175C425.5 238.075 438.9 243.075 453.2 245.475L453 246.475C438.6 244.075 425.2 239.075 412.2 234.175C404.4 231.275 396.3 228.175 388.1 225.775C366.8 219.475 349.3 222.975 329.5 230.375C326.3 231.575 323 232.875 319.8 234.075C304.8 239.875 290.6 245.375 274.5 246.675C269.2 246.875 263.9 247.075 258.5 247.075Z" fill="white"/>
<path d="M452.8 259.875C438.4 258.775 424.5 256.275 411.2 253.875C383.9 249.075 358.2 244.475 329 250.775C294.5 258.275 263.3 259.775 227.1 259.775H1.2998V258.775H227.1C263.3 258.775 294.4 257.275 328.8 249.775C358.2 243.375 384 247.975 411.4 252.875C424.8 255.275 438.6 257.675 452.9 258.775L452.8 259.875Z" fill="white"/>
<path d="M452.7 273.275C437.1 273.175 421.4 272.175 406.2 271.275C380.9 269.775 354.7 268.175 328.6 270.275C295.4 272.875 262.9 273.175 226.9 273.175H1.1001V272.175H226.9C262.9 272.175 295.4 271.975 328.5 269.275C354.6 267.175 380.9 268.775 406.2 270.275C421.4 271.175 437.1 272.075 452.6 272.275L452.7 273.275Z" fill="white"/>
<path d="M306.7 286.475C255.3 286.475 204.2 286.475 153.9 286.475C102.9 286.475 51.8998 286.475 0.799805 286.475V285.475C51.7998 285.475 102.8 285.475 153.9 285.475C251.7 285.475 352.9 285.575 452.4 285.475V286.475C404.1 286.475 355.3 286.475 306.7 286.475Z" fill="white"/>
<path d="M452.3 299.775C436.8 299.675 421.1 299.075 405.9 298.475C380.4 297.475 354.1 296.475 328 297.875C295.3 299.575 264 299.675 226.5 299.675C194.4 299.675 159.8 299.275 124.9 296.375C100.2 294.275 75.3998 295.975 51.3998 297.575C34.8998 298.675 17.7998 299.775 0.799805 299.775V298.775C17.6998 298.875 34.7998 297.675 51.2998 296.575C75.3998 294.975 100.2 293.375 125 295.375C159.9 298.275 194.4 298.675 226.6 298.675C264.1 298.675 295.4 298.575 328 296.875C354.1 295.475 380.5 296.575 406 297.475C421.2 298.075 436.9 298.675 452.4 298.775L452.3 299.775Z" fill="white"/>
<path d="M0.6 313.075L0.5 312.075C16.2 311.175 31.2 308.075 45.7 305.075C72 299.675 96.8 294.575 124.8 301.275C156.5 308.775 186.8 311.975 226.3 311.975C258 311.975 292.1 311.275 327.3 305.975C356.3 301.575 383.2 304.775 411.6 308.075C424.7 309.575 438.3 311.175 452 311.975L451.9 312.975C438.1 312.175 424.5 310.575 411.4 309.075C383 305.775 356.2 302.575 327.3 306.975C292 312.275 257.8 312.975 226.1 312.975C186.6 312.975 156.1 309.775 124.4 302.175C96.5 295.575 71.8 300.575 45.7 305.975C31.4 309.075 16.4 312.075 0.6 313.075Z" fill="white"/>
<path d="M197.4 326.875C189.3 326.875 181.3 326.575 173.6 325.275C160.8 323.175 148.8 317.675 137.3 312.375C133.1 310.475 128.7 308.475 124.4 306.575C102.3 297.375 85.2999 296.475 65.9999 303.375C58.7999 305.975 51.8999 308.875 45.1999 311.775C30.5999 317.975 16.7999 323.875 0.499903 326.275L0.399902 325.275C16.5999 322.875 30.2999 317.075 44.7999 310.875C51.4999 307.975 58.3999 305.075 65.6999 302.475C85.2999 295.375 102.4 296.375 124.8 305.675C129.2 307.475 133.5 309.475 137.8 311.475C149.3 316.775 161.1 322.175 173.8 324.275C186.1 326.275 199.3 325.975 212.1 325.575C216.8 325.475 221.6 325.375 226.3 325.375C262.1 325.375 292.9 323.475 326.9 314.475C358.1 306.175 384.9 311.975 413.2 318.075C425.7 320.775 438.5 323.575 452.1 325.275L452 326.275C438.4 324.675 425.5 321.775 413 319.075C384.8 312.975 358.1 307.175 327.2 315.375C293.1 324.475 262.3 326.375 226.4 326.375C221.8 326.375 216.9 326.475 212.3 326.575C207.2 326.675 202.3 326.875 197.4 326.875Z" fill="white"/>
<path d="M197.4 340.375C189.1 340.375 180.9 339.875 173.4 337.975C160.1 334.675 148.4 327.275 137.1 320.175C132.9 317.475 128.5 314.675 124.1 312.175C104.9 301.175 88.5001 296.675 65.8001 307.975C58.5001 311.575 51.8001 315.675 45.2001 319.575C31.0001 328.075 17.5001 336.075 0.300097 339.575L0.100098 338.575C17.2001 335.075 30.5001 327.075 44.7001 318.675C51.3001 314.775 58.1001 310.675 65.4001 307.075C88.5001 295.575 105.2 300.175 124.6 311.275C129 313.775 133.4 316.575 137.6 319.275C148.8 326.375 160.4 333.775 173.6 336.975C185.5 339.875 199.1 339.375 212.2 338.975C217 338.775 221.5 338.675 226 338.675C231.2 338.675 236.5 338.775 241.7 338.875C252.1 339.075 262.8 339.375 273.2 338.675C289.5 337.575 303.8 332.075 318.9 326.275C321.3 325.375 323.8 324.475 326.2 323.475C345.8 316.175 363.3 312.575 384.9 318.275C394 320.675 403 323.775 411.7 326.775C424.6 331.275 438 335.875 451.9 338.275L451.7 339.275C437.6 336.875 424.3 332.175 411.3 327.675C402.6 324.675 393.7 321.575 384.6 319.175C363.3 313.475 346 317.075 326.6 324.375C324.1 325.275 321.7 326.175 319.3 327.175C304.1 332.975 289.7 338.475 273.3 339.575C262.9 340.275 252.1 340.075 241.8 339.775C236.7 339.675 231.3 339.575 226.1 339.575C221.7 339.575 217.2 339.775 212.4 339.875C207.4 340.175 202.4 340.375 197.4 340.375Z" fill="white"/>
<path d="M196.5 353.775C188.4 353.775 180.4 353.275 173.2 351.375C159.6 347.775 148.1 339.275 137 331.075C132.8 327.975 128.4 324.675 124 321.775C105.5 309.675 88.6 304.175 65.7 317.175C58.4 321.375 51.7 325.975 45.3 330.475C31.4 340.175 18.3 349.375 0.200001 352.975L0 351.975C17.9 348.375 30.9 339.275 44.7 329.675C51.2 325.175 57.9 320.475 65.2 316.275C85.1 304.975 102.3 306.275 124.5 320.875C128.9 323.775 133.3 327.075 137.6 330.175C148.6 338.375 160 346.775 173.5 350.375C185.1 353.475 198.7 352.875 211.9 352.375C216.8 352.175 221.4 351.975 225.9 351.975C231.1 351.975 236.4 352.075 241.6 352.175C252 352.375 262.7 352.675 273.1 351.975C290.1 350.775 304.3 344.475 319.4 337.775C321.6 336.775 323.7 335.875 325.9 334.875C342.6 327.575 361.3 321.875 384.5 328.775C393.8 331.575 402.9 335.175 411.6 338.675C424.4 343.775 437.6 349.075 451.7 351.675L451.5 352.675C437.2 350.075 424 344.675 411.2 339.575C402.5 336.075 393.5 332.475 384.2 329.675C365.7 324.175 348.9 325.875 326.3 335.775C324.1 336.775 321.9 337.675 319.8 338.675C304.6 345.375 290.3 351.675 273.1 352.875C262.7 353.575 251.9 353.375 241.6 353.075C236.5 352.975 231.1 352.875 225.9 352.875C221.5 352.875 216.9 353.075 212 353.275C206.8 353.575 201.6 353.775 196.5 353.775Z" fill="white"/>
</svg>
