<svg width="456" height="364" viewBox="0 0 456 364" fill="none" xmlns="http://www.w3.org/2000/svg">
<path d="M236.1 30.7176C162 30.7176 85.0998 30.6176 4.2998 30.5176V29.5176C167.9 29.7176 315.6 29.7176 455.9 29.5176V30.5176C384.9 30.6176 312 30.7176 236.1 30.7176Z" fill="white"/>
<path d="M421.9 45.4176C390 45.4176 358.1 43.8176 326.9 42.3176C295.3 40.8176 262.7 39.2176 230.6 39.2176C198.3 39.3176 165.4 40.8176 133.6 42.3176C91.5002 44.3176 48.0002 46.3176 5.2002 44.9176V43.9176C47.9002 45.3176 91.4002 43.2176 133.5 41.3176C165.3 39.8176 198.2 38.3176 230.6 38.2176C262.8 38.1176 295.4 39.7176 327 41.3176C368.9 43.3176 412.3 45.5176 454.9 43.8176V44.8176C444 45.2176 433 45.4176 421.9 45.4176Z" fill="white"/>
<path d="M433.9 60.6176C400 60.6176 366 56.2176 332.9 52.0176C299.9 47.8176 265.8 43.4176 232 43.4176H231.9C196.9 43.4176 161.6 47.7176 127.4 52.0176C88.2002 56.8176 47.8002 61.8176 7.7002 60.2176V59.2176C47.7002 60.7176 88.1002 55.8176 127.3 51.0176C161.5 46.8176 196.9 42.4176 231.9 42.4176H232C265.8 42.4176 300 46.8176 333 51.0176C372.1 56.0176 412.6 61.2176 452.7 59.1176L452.8 60.1176C446.5 60.4176 440.2 60.6176 433.9 60.6176Z" fill="white"/>
<path d="M440.5 76.6176C405.3 76.6176 370.9 68.3176 337.4 60.3176C304 52.3176 269.4 44.0176 234.3 44.0176C197.4 44.0176 161 52.2176 125.8 60.2176C88.7998 68.6176 50.5998 77.2176 11.7998 76.3176V75.3176C50.4998 76.2176 88.6998 67.6176 125.6 59.2176C160.9 51.2176 197.3 43.0176 234.3 43.0176C269.6 43.0176 304.2 51.3176 337.6 59.3176C373.9 68.0176 411.3 77.0176 449.6 75.3176V76.3176C446.6 76.5176 443.6 76.6176 440.5 76.6176Z" fill="white"/>
<path d="M443.5 93.3176C406.7 93.3176 372.6 80.0176 339.6 67.2176C307 54.5176 273.4 41.5176 237.3 41.1176C198.3 40.8176 161.4 54.1176 125.8 67.0176C90.9002 79.6176 54.9002 92.6176 16.7002 92.9176V91.9176C54.7002 91.6176 90.6002 78.6176 125.4 66.1176C161.1 53.2176 198 39.8176 237.2 40.2176C273.5 40.5176 307.2 53.6176 339.9 66.3176C373.5 79.4176 408.3 92.9176 445.7 92.3176V93.3176C445.1 93.3176 444.3 93.3176 443.5 93.3176Z" fill="white"/>
<path d="M441.5 110.418C404.1 109.518 372.1 91.0176 341.2 73.1176C310.1 55.2176 278 36.6176 240.7 36.2176C199.8 35.7176 163.4 54.6176 128.2 72.8176C94.9999 90.0176 60.6999 107.718 22.3999 109.618V108.618C60.3999 106.718 94.6999 89.0176 127.8 71.9176C163.1 53.6176 199.7 34.7176 240.8 35.2176C278.3 35.6176 310.6 54.2176 341.8 72.2176C372.7 90.0176 404.6 108.418 441.7 109.418L441.5 110.418Z" fill="white"/>
<path d="M437.4 126.118C399.7 123.618 370.3 100.118 341.9 77.4176C312.9 54.2176 282.9 30.2176 244.4 29.6176C201.8 29.0176 166.1 53.4176 131.5 77.0176C99.6002 98.8176 66.6002 121.418 27.8002 124.918L27.7002 123.918C66.2002 120.418 99.1002 97.9176 130.9 76.1176C165.1 52.7176 200.5 28.5176 242.7 28.5176C243.3 28.5176 243.8 28.5176 244.4 28.5176C283.2 29.1176 313.3 53.2176 342.5 76.5176C370.8 99.1176 400 122.518 437.4 125.018V126.118Z" fill="white"/>
<path d="M433.1 142.018C394.5 137.518 367.9 109.018 342.1 81.5176C314.4 51.9176 288.2 23.9176 248.2 22.6176C211.8 21.4176 178 49.4176 150.7 71.8176C148.5 73.6176 146.4 75.3176 144.3 77.0176C141.2 79.5176 138.2 82.0176 135.2 84.5176C103.9 110.318 74.3002 134.718 33.3002 140.418L33.2002 139.418C74.0002 133.818 103.4 109.518 134.6 83.8176C137.6 81.3176 140.7 78.8176 143.7 76.3176C145.8 74.6176 147.9 72.8176 150.1 71.1176C177.5 48.5176 211.6 20.5176 248.2 21.6176C288.6 22.9176 316.1 52.3176 342.8 80.8176C368.4 108.218 395 136.518 433.2 141.018L433.1 142.018Z" fill="white"/>
<path d="M429 157.718C388.1 150.718 364.8 119.218 342.2 88.7177C338.9 84.2177 335.5 79.6177 332 75.1177L330.8 73.5177C312 48.9177 286.3 15.3177 252.3 14.5177C251.9 14.5177 251.4 14.5177 251 14.5177C214.7 14.5177 181.4 47.7177 157 72.1177C155.1 74.0177 153.2 75.9177 151.4 77.6177C147.8 81.2177 144.1 84.9177 140.6 88.4177C111.6 117.618 81.6 147.718 38.7 155.718L38.5 154.718C81.1 146.818 111 116.818 139.9 87.7177C143.4 84.1177 147.1 80.5177 150.7 76.9177C152.5 75.1177 154.4 73.3177 156.3 71.4177C181.1 46.7177 215.1 12.8177 252.3 13.6177C286.8 14.3177 312.7 48.2177 331.6 73.0177L332.8 74.6177C336.2 79.1177 339.7 83.7177 343 88.2177C366.5 119.918 388.7 149.918 429.1 156.818L429 157.718Z" fill="white"/>
<path d="M425.2 173.618C383.8 164.318 363.2 129.118 343.3 95.0176C340.6 90.3176 337.7 85.4176 334.9 80.8176C334 79.4176 333.1 77.9176 332.2 76.4176C315.3 48.4176 292.2 10.0176 256.1 8.51763C217.7 6.81763 184.1 47.0176 159.6 76.3176C157.3 79.0176 155.1 81.7176 153 84.1176C150.4 87.2176 147.8 90.3176 145.2 93.4176C117.2 126.718 88.3 161.118 43.7 171.418L43.5 170.418C87.7 160.218 116.6 125.918 144.4 92.8176C147 89.7176 149.6 86.6176 152.2 83.5176C154.3 81.0176 156.5 78.4176 158.8 75.7176C183.5 46.2176 217.2 5.81763 256.1 7.51763C292.8 9.11763 316 47.7176 333 75.9176C333.9 77.4176 334.8 78.9176 335.7 80.3176C338.5 85.0176 341.4 89.8176 344.1 94.5176C363.9 128.418 384.4 163.418 425.3 172.618L425.2 173.618Z" fill="white"/>
<path d="M421.8 189.418C379.8 177.718 361.8 138.418 344.4 100.418C341.9 94.9176 339.3 89.2176 336.7 83.8176C335.8 81.9176 334.9 80.0176 333.9 78.0176C319 46.6176 298.5 3.71764 261.2 1.91764C221.4 0.0176399 187 47.5176 164.3 78.9176C162 82.1176 159.8 85.1176 157.7 88.0176C155.1 91.5176 152.6 95.0176 150 98.6176C122.8 135.918 94.6 174.518 48.3 187.018L48 186.018C94 173.718 122.1 135.218 149.2 98.0176C151.8 94.5176 154.4 90.9176 156.9 87.4176C159 84.6176 161.2 81.5176 163.5 78.3176C186.4 46.7176 220.9 -1.08236 261.3 0.817641C299.2 2.61764 319.8 45.9176 334.8 77.5176C335.7 79.5176 336.7 81.4176 337.6 83.3176C340.2 88.7176 342.8 94.4176 345.3 99.9176C362.6 137.718 380.5 176.818 422.1 188.318L421.8 189.418Z" fill="white"/>
<path d="M418.9 206.118C376.2 193.018 359.8 149.218 345.3 110.618C343.2 105.118 341.3 99.9176 339.3 94.8176C338.3 92.3176 337.3 89.5176 336.1 86.6176C323.2 52.9176 303.7 1.9176 264.8 1.0176C223.8 0.0176028 190.9 50.3176 169.2 83.7176C167.2 86.7176 165.4 89.5176 163.6 92.2176C160.4 97.1176 157.1 102.218 153.9 107.118C127.5 147.818 100.2 189.918 51.9001 203.718L51.6001 202.718C99.5001 189.018 126.8 147.018 153.1 106.518C156.3 101.618 159.6 96.5176 162.8 91.6176C164.6 89.0176 166.4 86.1176 168.4 83.1176C190.3 49.6176 223.3 -1.0824 264.9 0.0176028C304.4 1.0176 324.1 52.3176 337.1 86.3176C338.2 89.2176 339.3 91.9176 340.3 94.5176C342.3 99.7176 344.3 104.918 346.3 110.418C360.7 148.818 377 192.318 419.2 205.318L418.9 206.118Z" fill="white"/>
<path d="M417.1 222.118C373.3 209.318 358.4 163.218 345.3 122.518C343.4 116.618 341.6 111.018 339.7 105.618C338.8 103.118 337.9 100.318 337 97.5176C331.1 79.9176 323.8 58.0176 312.6 40.0176C299.5 18.7176 284.3 8.31763 266.4 7.91763C223.3 7.11763 191.4 60.0176 170.3 95.0176C168.5 97.9176 166.8 100.718 165.2 103.318C162 108.518 158.8 113.918 155.7 119.118C130 162.118 103.4 206.518 53.9001 219.718L53.6001 218.718C102.7 205.618 129.2 161.318 154.8 118.518C157.9 113.318 161.2 107.918 164.3 102.718C165.9 100.118 167.6 97.3176 169.4 94.4176C190.7 59.2176 222.8 6.11763 266.4 6.91763C284.7 7.21763 300.1 17.9176 313.5 39.4176C324.7 57.5176 332.1 79.5176 338 97.1176C339 100.018 339.9 102.718 340.7 105.218C342.6 110.718 344.4 116.218 346.3 122.118C359.4 162.518 374.2 208.418 417.4 221.018L417.1 222.118Z" fill="white"/>
<path d="M416.9 235.718C373.2 223.518 358.4 177.718 345.3 137.218C343.4 131.318 341.6 125.618 339.7 120.218C338.9 117.818 338 115.218 337.1 112.518C325.3 77.4176 307.4 24.3176 266.3 23.8176C266.1 23.8176 265.9 23.8176 265.7 23.8176C222.7 23.8176 191.1 75.8176 170.2 110.318C168.5 113.118 166.8 115.918 165.2 118.418C162.1 123.518 158.9 128.818 155.8 134.018C131.3 174.918 103.4 221.318 53.9002 233.618L53.7002 232.618C102.9 220.318 130.6 174.218 155 133.418C158.1 128.218 161.3 122.918 164.5 117.818C166.1 115.218 167.7 112.518 169.5 109.718C190.7 74.9176 222.7 22.2176 266.5 22.7176C308.4 23.2176 326.4 76.7177 338.3 112.118C339.2 114.818 340.1 117.418 340.9 119.818C342.8 125.318 344.6 130.918 346.5 136.918C359.5 177.118 374.2 222.718 417.4 234.818L416.9 235.718Z" fill="white"/>
<path d="M417.9 247.018C375.3 235.518 359.4 192.418 345.4 154.418C343.3 148.718 341.3 143.418 339.3 138.118C338.4 135.918 337.5 133.618 336.6 131.118C323.9 98.0176 304.7 47.9176 264.9 47.7176C264.8 47.7176 264.7 47.7176 264.6 47.7176C222.9 47.7176 190.6 96.6176 169.1 129.018C167.3 131.818 165.5 134.418 163.8 136.918C160.6 141.618 157.4 146.518 154.3 151.318C127.8 191.818 100.3 233.718 51.8001 245.218L51.6001 244.218C99.7001 232.818 127 191.118 153.5 150.718C156.6 145.918 159.8 141.018 163 136.318C164.7 133.818 166.4 131.118 168.3 128.418C189.8 95.8176 222.4 46.6176 264.6 46.6176C264.7 46.6176 264.8 46.6176 264.9 46.6176C305.4 46.8176 324.7 97.3176 337.5 130.618C338.4 133.018 339.3 135.318 340.2 137.518C342.3 142.818 344.2 148.118 346.3 153.818C360.3 191.618 376.1 234.518 418.1 245.818L417.9 247.018Z" fill="white"/>
<path d="M419.8 257.618C378.3 247.418 361.8 209.118 345.8 172.118C343.6 167.118 341.4 161.918 339.2 156.918C338.4 155.018 337.5 153.118 336.6 151.118C322.9 120.418 302.1 73.9176 263.5 73.9176C222.8 73.9176 190.8 117.418 167.4 149.118C165.5 151.718 163.7 154.118 161.9 156.518C158.7 160.818 155.5 165.218 152.3 169.518C124.7 207.318 96.0999 246.418 48.5999 256.418L48.3999 255.418C95.4999 245.418 124 206.518 151.5 168.918C154.6 164.618 157.9 160.118 161.1 155.818C162.9 153.418 164.7 151.018 166.6 148.418C190.1 116.518 222.3 72.8176 263.5 72.8176C302.8 72.8176 323.7 119.618 337.5 150.618C338.4 152.618 339.3 154.518 340.1 156.418C342.3 161.418 344.6 166.518 346.7 171.618C362.6 208.418 379 246.518 420 256.518L419.8 257.618Z" fill="white"/>
<path d="M422.7 268.318C382.1 259.218 364 222.918 346.4 187.918C343.7 182.418 340.8 176.818 338 171.418L336.5 168.618C321 139.218 299.8 99.0176 262.2 98.5176C222.1 97.9176 188.3 139.418 163.5 169.618C161.1 172.518 158.8 175.418 156.5 178.118C154 181.118 151.6 184.118 149.1 187.118C120.1 222.318 90.2001 258.718 43.8001 267.518L43.6001 266.518C89.7001 257.818 119.5 221.518 148.4 186.518C150.9 183.518 153.4 180.518 155.8 177.518C158 174.818 160.4 172.018 162.8 169.018C187.5 138.818 221.3 97.5176 261.4 97.5176C261.7 97.5176 262 97.5176 262.3 97.5176C300.5 98.1176 321.8 138.618 337.4 168.118L338.9 170.918C341.7 176.318 344.6 182.018 347.3 187.418C364.7 222.218 382.7 258.218 422.9 267.318L422.7 268.318Z" fill="white"/>
<path d="M426.5 278.718C386.4 270.518 366.7 236.518 347.6 203.618C344.3 197.918 340.9 192.018 337.4 186.418C320.7 159.218 297.8 122.018 262.2 122.018C262.1 122.018 261.9 122.018 261.8 122.018C222.9 122.318 188.4 159.118 163.1 186.018C160.9 188.318 158.8 190.618 156.7 192.818C153.3 196.418 149.8 200.118 146.4 203.818C115.8 236.518 84.2 270.418 38.2 277.918L38 276.918C83.7 269.418 115.1 235.718 145.6 203.118C149 199.418 152.5 195.718 155.9 192.118C158 189.918 160.1 187.618 162.3 185.318C187.7 158.318 222.4 121.318 261.7 121.018C261.8 121.018 262 121.018 262.1 121.018C298.3 121.018 321.3 158.518 338.1 185.918C341.6 191.518 345 197.418 348.3 203.118C367.3 235.818 386.9 269.718 426.6 277.818L426.5 278.718Z" fill="white"/>
<path d="M430.8 289.018C391.7 281.918 370.5 250.718 349.9 220.618C346.9 216.218 343.8 211.618 340.6 207.218C321.5 180.118 297.6 146.518 261.2 146.318C261.1 146.318 261 146.318 260.9 146.318C222.5 146.318 187.5 179.018 159.4 205.318C156.5 208.018 153.7 210.718 150.9 213.218C148.1 215.818 145.3 218.418 142.5 221.018C110.4 250.818 77.2002 281.718 31.8002 288.118L31.7002 287.118C76.7002 280.818 109.8 250.018 141.8 220.318C144.6 217.718 147.4 215.118 150.2 212.518C152.9 210.018 155.8 207.318 158.7 204.618C186.9 178.218 222.1 145.318 260.9 145.318C261 145.318 261.1 145.318 261.2 145.318C298.2 145.518 322.2 179.418 341.5 206.618C344.6 211.018 347.8 215.618 350.8 220.018C371.2 249.918 392.4 280.918 431 288.018L430.8 289.018Z" fill="white"/>
<path d="M435.3 299.118C397.1 293.018 375.3 265.918 352.2 237.318C348.4 232.518 344.4 227.618 340.4 222.818C320.6 199.318 295.9 170.018 261.8 170.018C261.6 170.018 261.4 170.018 261.1 170.018C222.9 170.418 187 199.318 158.1 222.418C155.6 224.418 153.2 226.418 150.7 228.318C147.2 231.118 143.7 233.918 140.2 236.818C106 264.318 70.7001 292.818 25.2001 298.118L25.1001 297.118C70.3001 291.818 105.5 263.418 139.6 236.018C143.1 233.218 146.6 230.318 150.1 227.518C152.5 225.618 155 223.618 157.4 221.618C186.4 198.318 222.4 169.418 261 168.918C261.2 168.918 261.4 168.918 261.6 168.918C296.2 168.918 322.1 199.618 341 222.118C345 226.918 349 231.818 352.8 236.618C375.8 265.118 397.5 292.018 435.3 298.118V299.118Z" fill="white"/>
<path d="M439.8 309.318C403.7 304.218 378.4 277.218 354 251.118C326.6 221.818 300.7 194.218 260.8 194.218H260.7C222.6 194.318 186.7 219.218 155 241.218C151.6 243.518 148.3 245.818 145 248.118C142.1 250.118 139.2 252.118 136.3 254.118C100.7 278.518 63.9002 303.818 18.8002 308.218L18.7002 307.218C63.5002 302.918 100.2 277.618 135.7 253.218C138.6 251.218 141.5 249.218 144.4 247.218C147.7 245.018 151 242.718 154.4 240.318C186.2 218.218 222.3 193.218 260.7 193.218H260.8C301.1 193.218 328.4 222.318 354.7 250.418C379 276.418 404.2 303.318 439.9 308.318L439.8 309.318Z" fill="white"/>
<path d="M443.5 318.818C408 315.118 381.2 292.118 355.2 269.818C327.4 246.018 298.7 221.318 260 221.518C221.7 221.718 184.5 242.918 151.7 261.618C148.4 263.518 145.2 265.318 142 267.118C139.1 268.818 136.2 270.418 133.2 272.118C95.9998 293.218 57.5998 315.118 12.8998 317.918L12.7998 316.918C57.1998 314.118 95.5998 292.318 132.6 271.218C135.5 269.518 138.4 267.918 141.4 266.218C144.6 264.418 147.8 262.618 151.1 260.718C184 241.918 221.3 220.618 259.9 220.418C299 220.218 327.9 245.018 355.8 268.918C381.7 291.118 408.4 314.018 443.6 317.718L443.5 318.818Z" fill="white"/>
<path d="M446.8 328.818C411.8 326.518 383.2 307.318 355.6 288.818C326.6 269.318 296.5 249.118 259.2 249.118C259.1 249.118 259.1 249.118 259 249.118C213.5 249.218 172 269.218 131.9 288.518C92.7999 307.318 52.2999 326.818 7.8999 328.218V327.218C52.0999 325.818 92.4999 306.418 131.5 287.618C171.7 268.218 213.3 248.218 259 248.118C259.1 248.118 259.1 248.118 259.2 248.118C296.8 248.118 327 268.418 356.2 288.018C383.7 306.518 412.1 325.618 446.9 327.818L446.8 328.818Z" fill="white"/>
<path d="M449.4 339.418C414.9 338.018 385 322.218 356 306.918C325.6 290.818 294 274.218 257.5 274.618C213.2 275.118 171.4 291.218 131 306.718C90.3999 322.418 48.4999 338.518 3.8999 339.018V338.018C48.3999 337.518 90.1999 321.418 130.7 305.818C171.2 290.218 213 274.118 257.6 273.618C294.4 273.218 326 289.918 356.6 306.018C385.5 321.218 415.3 337.018 449.6 338.418L449.4 339.418Z" fill="white"/>
<path d="M451 350.818C417.1 349.618 386.3 336.418 356.6 323.718C325.1 310.218 292.5 296.418 256.4 296.718C212.4 297.218 170 310.618 129.1 323.618C88.0002 336.618 45.4002 350.118 1.2002 350.618V349.618C45.3002 349.118 87.7002 335.718 128.8 322.718C169.9 309.718 212.3 296.218 256.4 295.818C292.8 295.518 325.4 309.418 357 322.918C386.7 335.618 417.4 348.718 451.1 349.918L451 350.818Z" fill="white"/>
<path d="M0 363.118V362.118C42.7 360.618 84.4 348.918 124.8 337.618C167.2 325.718 211 313.518 255.8 313.018C292.4 312.618 326.4 325.318 359.2 337.718C388.7 348.818 419.2 360.218 451.7 362.218L451.6 363.218C419 361.218 388.4 349.818 358.8 338.718C326.1 326.418 292.2 313.718 255.8 314.118C211.1 314.618 167.4 326.918 125.1 338.718C84.6 349.818 42.8 361.518 0 363.118Z" fill="white"/>
</svg>
