<svg width="436" height="436" viewBox="0 0 436 436" fill="none" xmlns="http://www.w3.org/2000/svg">
<path d="M303.301 415.701C298.201 415.701 293.201 414.201 288.801 411.201L181.001 338.601L51.1013 338.501C41.4013 338.501 32.8013 333.301 28.0013 324.701C23.0013 315.501 23.5013 304.301 29.2013 295.401L101.801 182.301L104.801 47.9012C105.001 37.3012 110.901 27.7012 120.201 22.9012C129.001 18.4012 139.001 18.9012 147.001 24.3012L254.801 96.9012L384.701 97.0012C394.401 97.0012 403.001 102.201 407.801 110.801C412.801 120.001 412.301 131.201 406.601 140.101L334.001 253.201L331.001 387.601C330.801 398.201 324.901 407.801 315.601 412.601C311.601 414.701 307.401 415.701 303.301 415.701ZM132.501 20.9012C128.501 20.9012 124.401 21.9012 120.601 23.8012C111.701 28.4012 106.001 37.7012 105.701 47.9012L102.701 182.601L102.601 182.701L30.0013 295.901C24.5013 304.501 24.0013 315.401 28.8013 324.201C33.3013 332.501 41.6013 337.501 51.0013 337.501L181.201 337.601L181.301 337.701L289.201 410.401C297.001 415.601 306.601 416.101 315.001 411.801C323.901 407.201 329.601 397.901 329.901 387.701L332.901 253.001L333.001 252.901L405.701 139.701C411.201 131.101 411.701 120.201 406.901 111.401C402.401 103.101 394.101 98.1012 384.701 98.1012L254.501 98.0012L254.401 97.9012L146.501 25.2012C142.301 22.3012 137.401 20.9012 132.501 20.9012Z" fill="white"/>
<path d="M291.001 421.201C285.301 421.201 279.701 419.301 275.001 415.701L172.601 335.801L43.0013 326.601C33.3013 325.901 25.1013 320.201 21.0013 311.201C16.7013 301.701 17.9013 290.501 24.2013 282.001L104.601 174.201L116.901 40.4015C117.901 29.8015 124.401 20.7015 134.001 16.6015C143.001 12.7015 153.001 13.9015 160.701 19.9015L263.201 99.8015L392.801 109.001C402.501 109.701 410.701 115.401 414.801 124.401C419.101 133.901 417.901 145.101 411.601 153.601L331.201 261.401L318.901 395.201C317.901 405.801 311.401 414.901 301.801 419.001C298.301 420.501 294.601 421.201 291.001 421.201ZM144.801 15.4015C141.401 15.4015 137.901 16.1015 134.501 17.6015C125.301 21.6015 118.901 30.4015 118.001 40.6015L105.601 174.701L105.501 174.801L25.0013 282.601C18.9013 290.801 17.7013 301.601 21.9013 310.701C25.9014 319.301 33.8013 324.901 43.1013 325.501L173.001 334.701L275.701 414.801C283.101 420.501 292.701 421.702 301.401 418.001C310.601 414.001 317.001 405.202 317.901 395.001L330.301 260.901L330.401 260.801L410.801 152.901C416.901 144.701 418.101 133.901 413.901 124.801C409.901 116.201 402.001 110.601 392.701 110.001L262.801 100.801L160.101 20.7015C155.601 17.2015 150.201 15.4015 144.801 15.4015Z" fill="white"/>
<path d="M278.501 425.901C272.201 425.901 266.001 423.601 261.101 419.201L164.501 332.301L35.8012 314.101C26.2012 312.701 18.4012 306.401 14.9012 297.201C11.2012 287.401 13.2012 276.401 20.2012 268.301L107.901 166.501L129.601 33.8013C131.301 23.3013 138.501 14.7013 148.301 11.2013C157.601 7.90132 167.501 9.90132 174.701 16.4013L271.301 103.301L400.001 121.501C409.601 122.901 417.401 129.201 420.901 138.401C424.601 148.201 422.601 159.201 415.601 167.301L327.901 269.101L306.201 401.801C304.501 412.301 297.301 420.901 287.501 424.401C284.501 425.401 281.501 425.901 278.501 425.901ZM157.301 10.7013C154.401 10.7013 151.501 11.2013 148.601 12.2013C139.101 15.5013 132.201 23.9013 130.501 34.0013L108.801 166.901L108.701 167.001L20.9012 269.001C14.2012 276.801 12.3012 287.401 15.8012 296.901C19.1012 305.801 26.7012 311.901 35.9012 313.201L164.901 331.401L165.001 331.501L261.701 418.501C268.601 424.701 278.101 426.601 287.101 423.501C296.601 420.201 303.501 411.801 305.201 401.701L326.901 268.801L327.001 268.701L414.801 166.701C421.501 158.901 423.401 148.301 419.901 138.801C416.601 129.901 409.001 123.801 399.801 122.501L270.801 104.301L270.701 104.201L174.001 17.2013C169.301 12.9013 163.401 10.7013 157.301 10.7013Z" fill="white"/>
<path d="M265.701 429.701C258.701 429.701 252.001 426.901 247.001 421.701L156.701 328.301L29.6013 301.201C20.1013 299.201 12.7013 292.301 9.90133 282.901C6.90133 272.901 9.70133 262.001 17.2013 254.501L111.801 159.001L142.701 28.2013C145.101 17.9013 152.901 9.8013 163.001 7.0013C172.501 4.4013 182.201 7.0013 189.001 14.0013L279.301 107.401L406.401 134.501C415.901 136.501 423.301 143.401 426.101 152.801C429.101 162.801 426.301 173.701 418.801 181.201L324.201 276.701L293.301 407.501C290.901 417.801 283.101 425.901 273.001 428.701C270.501 429.401 268.101 429.701 265.701 429.701ZM170.101 6.9013C167.801 6.9013 165.401 7.2013 163.101 7.9013C153.401 10.6013 145.901 18.4013 143.601 28.4013L112.601 159.501L17.9013 255.201C10.7013 262.501 8.00133 273.001 10.9013 282.601C13.6013 291.701 20.7013 298.301 29.8013 300.201L157.201 327.401L157.301 327.501L247.701 421.001C254.201 427.701 263.501 430.201 272.701 427.701C282.401 425.001 289.901 417.201 292.201 407.201L323.201 276.101L418.001 180.401C425.201 173.101 427.901 162.601 425.001 153.001C422.301 143.901 415.201 137.301 406.101 135.401L278.701 108.201L278.601 108.101L188.201 14.6013C183.301 9.6013 176.901 6.9013 170.101 6.9013Z" fill="white"/>
<path d="M252.602 432.601C244.902 432.601 237.702 429.301 232.602 423.301L149.102 323.801L24.2015 287.901C14.9015 285.201 8.0015 277.901 5.8015 268.301C3.5015 258.101 7.1015 247.501 15.0015 240.501L116.002 151.801L155.902 23.5012C159.102 13.4012 167.402 5.80121 177.602 3.70121C187.301 1.80121 196.802 5.00121 203.002 12.5012L286.602 112.001L411.501 147.901C420.801 150.601 427.701 157.901 429.901 167.501C432.201 177.701 428.601 188.301 420.701 195.301L319.701 284.001L279.801 412.301C276.601 422.401 268.302 430.001 258.102 432.101C256.302 432.401 254.402 432.601 252.602 432.601ZM183.202 4.00121C181.502 4.00121 179.702 4.20121 177.902 4.50121C168.002 6.50121 160.002 13.8012 157.002 23.6012L117.002 152.201L116.901 152.301L15.7015 241.101C8.0015 247.901 4.6015 258.201 6.8015 268.001C8.9015 277.301 15.5015 284.301 24.5015 286.901L149.702 322.901L149.801 323.001L233.502 422.601C239.502 429.801 248.702 432.901 258.002 431.001C267.902 429.001 275.901 421.701 278.901 411.901L318.901 283.301L319.001 283.201L420.102 194.401C427.802 187.601 431.202 177.301 429.001 167.501C426.901 158.201 420.301 151.201 411.301 148.601L286.102 112.601L286.001 112.501L202.301 12.9012C197.501 7.20121 190.602 4.00121 183.202 4.00121Z" fill="white"/>
<path d="M239.501 434.501C231.101 434.501 223.401 430.601 218.401 423.701L141.901 318.701L19.8013 274.201C10.7013 270.901 4.30135 263.101 2.90135 253.301C1.30135 243.001 5.60134 232.601 14.0013 226.201L120.901 144.701L169.701 19.4012C173.501 9.50122 182.401 2.60122 192.701 1.20122C202.501 -0.098779 211.701 3.90122 217.401 11.7012L293.901 116.901L416.001 161.401C425.101 164.701 431.501 172.501 432.901 182.301C434.501 192.601 430.201 203.001 421.801 209.401L314.901 290.901L266.101 416.101C262.301 426.001 253.401 433.001 243.101 434.301C241.801 434.501 240.601 434.501 239.501 434.501ZM196.301 2.10122C195.201 2.10122 194.001 2.20122 192.801 2.30122C182.801 3.60122 174.301 10.3012 170.601 19.9012L121.701 145.401L121.601 145.501L14.6013 227.001C6.50135 233.201 2.30135 243.201 3.80135 253.201C5.20135 262.601 11.3013 270.101 20.1013 273.301L142.401 317.901L142.501 318.001L219.001 423.201C224.501 430.801 233.401 434.501 242.801 433.301C252.801 432.001 261.301 425.301 265.001 415.701L313.901 290.201L314.001 290.101L421.101 208.601C429.201 202.401 433.401 192.401 431.901 182.401C430.501 173.001 424.401 165.501 415.601 162.301L293.301 117.701L293.201 117.601L216.701 12.4012C211.901 5.80122 204.401 2.10122 196.301 2.10122Z" fill="white"/>
<path d="M226.201 435.601C217.001 435.601 208.801 431.101 203.901 423.301L135.001 313.201L16.3012 260.201C7.40122 256.201 1.70121 248.001 0.901214 238.201C0.101214 227.801 5.00121 217.701 13.9012 211.901L126.301 138.101L183.701 16.6013C188.201 7.00131 197.501 0.701307 207.901 0.101307C217.701 -0.498693 226.701 4.10131 231.801 12.3013L300.701 122.401L419.401 175.301C428.301 179.301 434.001 187.501 434.801 197.301C435.601 207.701 430.701 217.801 421.801 223.601L309.401 297.401L252.001 418.901C247.501 428.501 238.201 434.801 227.801 435.401C227.301 435.601 226.801 435.601 226.201 435.601ZM209.601 1.00131C209.101 1.00131 208.501 1.00131 208.001 1.00131C198.001 1.60131 189.001 7.70131 184.601 17.0013L127.101 138.801L127.001 138.901L14.5012 212.801C5.90121 218.401 1.10121 228.101 1.90121 238.201C2.70121 247.701 8.20121 255.601 16.7012 259.401L135.601 312.501L135.701 312.601L204.701 422.901C209.701 430.801 218.301 435.201 227.701 434.701C237.701 434.101 246.701 428.001 251.101 418.701L308.701 296.801L308.801 296.701L421.301 222.801C429.901 217.201 434.701 207.501 433.901 197.401C433.101 187.901 427.601 180.001 419.101 176.201L300.201 123.101L300.101 123.001L231.001 12.8013C226.301 5.40131 218.401 1.00131 209.601 1.00131Z" fill="white"/>
<path d="M213.001 435.701C212.901 435.701 212.801 435.701 212.701 435.701C202.801 435.601 194.201 430.401 189.701 421.801L128.601 307.101L13.9013 246.101C5.3013 241.501 0.101295 232.901 0.00129458 223.101C-0.0987054 212.701 5.6013 203.001 14.8013 197.801L132.001 132.001L197.801 14.8013C203.001 5.60129 212.701 -0.0987054 223.101 0.00129458C233.001 0.101295 241.601 5.30129 246.101 13.9013L307.201 128.601L421.901 189.501C430.501 194.101 435.701 202.701 435.801 212.501C435.901 222.901 430.201 232.601 421.001 237.801L303.801 303.601L238.001 420.801C232.901 430.001 223.301 435.701 213.001 435.701ZM222.801 0.901292C212.801 0.901292 203.601 6.40129 198.701 15.2013L132.801 132.701L132.701 132.801L15.3013 198.601C6.4013 203.601 0.901295 213.001 1.00129 223.001C1.10129 232.501 6.1013 240.801 14.3013 245.201L129.201 306.401L129.301 306.501L190.501 421.301C194.901 429.501 203.201 434.501 212.701 434.601C212.801 434.601 212.901 434.601 213.001 434.601C223.001 434.601 232.201 429.101 237.101 420.301L303.001 302.801L303.101 302.701L420.501 236.901C429.401 231.901 434.901 222.501 434.801 212.501C434.701 203.001 429.701 194.701 421.501 190.301L306.601 129.101L245.301 14.2013C240.901 6.0013 232.601 1.00129 223.101 0.901292C223.001 0.901292 222.901 0.901292 222.801 0.901292Z" fill="white"/>
</svg>
