<svg width="445" height="397" viewBox="0 0 445 397" fill="none" xmlns="http://www.w3.org/2000/svg">
<path d="M249.126 396.822C165.426 396.822 75.226 387.422 31.926 316.222C8.926 278.622 8.226 239.222 7.526 197.422C7.326 183.022 7.026 168.022 5.726 153.322C5.626 151.822 4.826 148.922 3.926 145.622C1.326 136.022 -2.274 122.922 1.926 117.822C3.226 116.222 5.126 115.522 7.626 115.722C23.026 116.922 28.526 103.122 33.426 91.0218C34.326 88.7218 35.226 86.6218 36.126 84.5218C46.026 62.5218 59.626 38.4218 86.126 25.9218C120.426 9.7218 161.126 16.4218 200.626 22.9218C220.326 26.1218 238.926 29.2218 256.226 29.4218C256.426 29.4218 256.626 29.4218 256.826 29.4218C273.226 29.4218 290.526 21.8218 307.326 14.4218C323.726 7.2218 339.126 0.521795 353.926 0.021795C370.526 -0.478205 383.826 7.62179 394.526 24.6218C411.526 51.8218 419.826 84.4218 427.926 116.022C429.626 122.722 431.426 129.622 433.226 136.222C434.026 139.222 435.426 143.122 436.926 147.122C442.726 162.722 450.526 184.022 438.226 194.422C425.226 205.422 418.626 218.722 411.626 232.722C409.926 236.122 408.226 239.622 406.326 243.222C403.926 247.722 401.426 252.322 398.926 256.822C389.626 273.622 380.026 291.022 376.026 310.322C374.126 319.322 375.026 330.622 375.726 341.522C377.026 359.122 378.326 377.422 368.826 387.522C363.526 393.122 355.526 395.722 344.426 395.522C329.226 395.322 312.726 395.622 295.326 396.022C280.226 396.522 264.726 396.822 249.126 396.822ZM6.826 116.722C5.026 116.722 3.626 117.322 2.726 118.422C-1.174 123.122 2.526 136.522 4.926 145.322C5.926 148.822 6.626 151.622 6.826 153.222C8.126 168.022 8.326 182.922 8.626 197.422C9.326 239.022 10.026 278.422 32.826 315.722C84.026 399.622 201.126 397.122 295.226 395.122C312.726 394.722 329.126 394.422 344.326 394.622C355.226 394.822 363.026 392.222 368.026 386.922C377.226 377.122 375.926 359.122 374.726 341.722C373.926 330.722 373.126 319.322 375.026 310.222C379.026 290.822 388.726 273.322 398.026 256.422C400.426 252.022 403.026 247.422 405.426 242.822C407.326 239.322 409.026 235.722 410.726 232.322C417.726 218.122 424.426 204.722 437.626 193.622C449.426 183.622 441.726 162.722 436.126 147.422C434.626 143.322 433.226 139.522 432.326 136.422C430.526 129.822 428.726 122.922 427.026 116.222C419.026 84.7218 410.726 52.2218 393.726 25.1218C370.426 -12.1782 340.026 1.1218 307.826 15.2218C290.726 22.7218 273.026 30.4218 256.326 30.2218C238.926 30.0218 220.326 27.0218 200.626 23.7218C161.326 17.2218 120.726 10.6218 86.726 26.6218C60.326 39.2218 46.826 63.1218 37.026 84.9218C36.126 86.9218 35.226 89.1218 34.326 91.3218C29.326 103.722 23.626 117.922 7.526 116.622C7.326 116.722 7.126 116.722 6.826 116.722Z" fill="white"/>
<path d="M308.826 380.122C220.626 380.122 101.226 374.722 50.3259 292.822C29.1259 258.622 26.0259 222.722 22.8259 184.622C21.9259 174.122 21.0259 163.222 19.7259 152.422C19.5259 150.722 18.8259 148.222 18.0259 145.222C15.7259 136.922 12.5259 125.522 16.5259 119.922C17.9259 117.922 20.1259 116.822 23.0259 116.622C39.0259 115.522 44.7259 103.422 50.8259 90.6219C51.7259 88.7219 52.6259 86.7219 53.6259 84.8219C69.7259 52.5219 86.2259 41.9219 98.7259 36.2219C130.026 22.1219 166.926 28.7219 202.626 35.1219C221.726 38.5219 239.726 41.7219 255.826 41.5219C269.626 41.3219 284.426 35.9219 298.826 30.7219C328.826 19.7219 359.926 8.42186 382.726 44.8219C397.226 68.0219 405.026 95.0219 412.626 121.122C415.226 130.122 417.926 139.322 420.726 148.222C421.426 150.322 422.226 152.522 423.126 154.922C427.826 167.622 433.526 183.422 422.226 193.922C392.526 221.622 367.326 265.822 361.026 301.422C359.726 308.822 360.626 318.322 361.526 328.522C363.126 345.622 364.726 363.422 356.026 373.022C351.826 377.622 345.626 379.922 337.126 380.022H329.326C322.526 380.022 315.726 380.122 308.826 380.122ZM142.126 28.9219C127.026 28.9219 112.426 31.1219 98.9259 37.2219C75.5259 47.7219 63.3259 67.4219 54.3259 85.3219C53.3259 87.2219 52.4259 89.2219 51.5259 91.1219C45.3259 104.222 39.5259 116.522 22.9259 117.722C20.3259 117.922 18.4259 118.822 17.2259 120.522C13.5259 125.722 16.6259 136.822 18.9259 145.022C19.7259 148.022 20.5259 150.622 20.7259 152.322C22.0259 163.122 23.0259 174.022 23.8259 184.522C27.0259 222.422 30.0259 258.322 51.1259 292.322C105.726 380.222 240.126 379.522 329.026 379.122H336.826C345.026 379.122 350.926 376.922 355.026 372.522C363.426 363.222 361.826 345.722 360.226 328.822C359.326 318.622 358.426 308.922 359.726 301.422C366.126 265.622 391.426 221.122 421.226 193.422C432.126 183.322 426.726 168.522 421.926 155.422C421.026 153.022 420.226 150.822 419.526 148.722C416.626 139.822 413.926 130.622 411.426 121.622C403.926 95.6219 396.126 68.6219 381.726 45.5219C359.326 9.72186 330.026 20.5219 299.026 31.8219C284.626 37.1219 269.726 42.5219 255.726 42.7219C239.526 42.9219 221.426 39.7219 202.326 36.2219C182.226 32.5219 161.726 28.9219 142.126 28.9219Z" fill="white"/>
<path d="M318.226 364.122C318.126 364.122 318.026 364.122 317.826 364.122C186.226 362.822 103.526 332.822 65.026 272.322C46.326 242.922 41.526 212.122 36.526 179.622C35.226 171.022 33.826 162.022 32.126 153.122C31.826 151.422 31.326 149.522 30.826 147.522C28.226 137.122 24.726 122.822 37.626 119.222C52.626 114.922 60.426 105.022 66.726 94.9219C68.726 91.6219 70.626 88.4219 72.426 85.3219C82.126 68.8219 90.426 54.6219 110.626 45.5219C139.326 32.5219 173.426 38.1219 206.326 43.5219C223.526 46.3219 239.726 49.0219 254.026 48.8219C265.826 48.6219 278.126 45.5219 290.026 42.5219C318.626 35.2219 348.326 27.7219 370.126 62.0219C382.426 81.3219 389.726 103.422 396.826 124.822C398.926 131.222 401.126 137.722 403.426 144.122C404.026 145.722 404.626 147.422 405.226 149.022C410.626 163.622 416.826 180.122 404.426 192.822C369.426 228.522 349.226 261.122 342.726 292.722C341.526 298.822 341.726 307.022 342.026 315.722C342.526 331.522 343.126 349.322 334.326 358.322C330.626 362.122 325.126 364.122 318.226 364.122ZM152.526 38.5219C138.026 38.5219 124.126 40.5219 111.226 46.4219C91.326 55.4219 83.026 69.5219 73.426 85.8219C71.626 88.9219 69.726 92.1219 67.726 95.4219C61.426 105.722 53.426 115.822 38.026 120.122C26.026 123.522 29.226 136.722 31.926 147.222C32.426 149.222 32.926 151.222 33.226 152.922C34.926 161.822 36.226 170.822 37.626 179.422C42.626 211.922 47.426 242.522 66.026 271.822C104.326 332.022 186.726 361.822 317.926 363.122C324.826 363.222 330.026 361.322 333.826 357.522C342.326 348.822 341.726 331.222 341.226 315.622C340.926 306.922 340.726 298.622 341.926 292.422C348.426 260.722 368.726 227.822 403.926 192.022C415.926 179.822 409.826 163.622 404.526 149.222C403.926 147.522 403.326 145.922 402.726 144.222C400.426 137.822 398.226 131.222 396.126 124.922C389.026 103.622 381.726 81.5219 369.526 62.3219C348.126 28.7219 320.126 35.8219 290.526 43.3219C278.526 46.3219 266.126 49.5219 254.326 49.7219C239.826 50.0219 223.626 47.3219 206.426 44.4219C188.326 41.5219 170.026 38.5219 152.526 38.5219Z" fill="white"/>
<path d="M291.426 348.022C291.226 348.022 291.126 348.022 290.926 348.022C250.326 347.522 208.326 339.922 172.726 326.722C128.526 310.322 95.9261 286.322 76.0261 255.522C57.1261 226.322 50.2261 193.822 43.6261 157.322C41.4261 145.222 38.7261 130.222 52.4261 122.922C67.7261 114.822 77.4261 101.522 86.8261 88.6217C96.6261 75.2217 106.626 61.4217 123.026 53.5217C149.626 40.7217 181.326 44.8217 211.926 48.7217C226.326 50.6217 239.826 52.3217 252.226 52.2217C261.426 52.1217 270.726 51.0217 279.726 49.9217C309.126 46.3217 336.926 42.9217 358.126 75.2217C372.626 97.4217 382.826 125.022 390.826 149.122C395.026 161.622 398.226 177.622 386.326 190.922C382.926 194.722 379.426 198.522 376.026 202.222C354.026 226.322 331.226 251.222 322.326 283.922C320.726 289.822 320.126 296.922 319.526 304.422C318.026 324.922 316.126 348.022 291.426 348.022ZM290.926 347.022C291.126 347.022 291.226 347.022 291.426 347.022C315.226 347.022 316.926 325.322 318.626 304.322C319.226 296.722 319.826 289.522 321.426 283.622C330.326 250.722 353.226 225.722 375.326 201.522C378.726 197.822 382.226 193.922 385.626 190.222C397.226 177.322 394.026 161.622 389.926 149.422C381.926 125.422 371.826 97.9217 357.326 75.8217C336.526 44.0217 309.026 47.4217 279.926 51.0217C270.926 52.1217 261.526 53.3217 252.326 53.4217C239.926 53.5217 226.326 51.8217 211.926 49.9217C181.426 46.0217 149.926 41.9217 123.526 54.6217C107.426 62.4217 97.4261 76.1217 87.7261 89.4217C78.2261 102.422 68.5261 115.722 52.9261 124.022C39.8261 130.922 42.5261 145.622 44.6261 157.322C51.1261 193.722 58.1261 226.122 76.9261 255.222C96.7261 285.822 129.126 309.722 173.126 326.122C208.526 339.022 250.426 346.522 290.926 347.022Z" fill="white"/>
<path d="M260.526 331.922C260.126 331.922 259.726 331.922 259.426 331.922C227.226 331.122 192.426 322.422 161.426 307.522C127.626 291.222 100.726 268.822 83.626 242.722C69.026 220.522 34.7259 151.722 66.9259 127.722C68.7259 126.422 70.5259 125.022 72.3259 123.722C82.1259 116.622 91.326 109.822 98.9259 100.322C101.926 96.5219 104.726 92.6219 107.326 88.9219C115.026 78.1219 122.326 67.8219 135.026 60.8219C159.826 47.2219 189.726 49.6219 218.626 52.0219C229.626 52.9219 240.126 53.8219 250.026 53.7219C254.226 53.7219 258.426 53.6219 262.426 53.5219C295.226 52.9219 323.526 52.4219 345.926 85.1219C378.126 132.222 385.426 166.922 367.526 188.422C360.726 196.522 353.426 204.322 346.326 211.822C328.726 230.522 310.626 249.822 300.426 275.022C298.226 280.422 296.626 286.722 295.026 292.722C290.026 312.022 284.826 331.922 260.526 331.922ZM184.726 51.2219C167.326 51.2219 150.426 53.5219 135.526 61.7219C123.026 68.6219 115.826 78.7219 108.126 89.5219C105.426 93.3219 102.726 97.1219 99.626 101.022C91.926 110.722 82.6259 117.422 72.8259 124.622C71.0259 125.922 69.2259 127.222 67.4259 128.622C35.8259 152.222 69.9259 220.222 84.3259 242.222C101.326 268.122 128.126 290.422 161.726 306.622C192.626 321.522 227.326 330.222 259.326 331.022C259.726 331.022 260.026 331.022 260.426 331.022C284.026 331.022 289.126 311.522 294.026 292.622C295.626 286.622 297.226 280.322 299.426 274.822C309.626 249.422 327.826 230.122 345.526 211.322C352.626 203.822 359.926 196.022 366.626 187.922C384.226 166.822 376.926 132.522 344.926 85.8219C322.826 53.5219 296.126 54.0219 262.226 54.6219C258.226 54.7219 254.026 54.7219 249.826 54.8219C239.926 54.9219 229.426 54.0219 218.426 53.1219C207.226 52.1219 195.826 51.2219 184.726 51.2219Z" fill="white"/>
<path d="M229.226 315.822C228.426 315.822 227.526 315.822 226.726 315.722C174.226 313.122 117.326 279.522 88.3261 233.922C68.4261 202.622 54.6261 157.422 81.1261 133.222C85.1261 129.622 89.3261 126.122 93.4261 122.722C99.7261 117.522 106.126 112.222 111.826 106.222C116.126 101.722 119.926 96.8218 123.526 92.1218C130.226 83.4218 137.226 74.4218 147.026 68.1218C171.526 52.5218 203.326 53.5218 231.426 54.4218C237.026 54.6218 242.226 54.7218 247.426 54.8218C283.726 55.1218 312.226 61.6218 333.526 92.1218C361.426 132.022 366.126 162.722 347.826 185.822C338.826 197.222 328.526 207.622 318.526 217.722C303.826 232.522 288.526 247.822 277.526 266.422C274.826 270.922 272.426 275.822 270.126 280.522C261.326 298.722 252.826 315.822 229.226 315.822ZM226.726 314.822C251.526 316.022 260.226 298.622 269.326 280.222C271.626 275.522 274.026 270.622 276.826 266.022C287.926 247.322 303.126 232.022 317.926 217.122C327.926 207.022 338.226 196.622 347.226 185.322C365.226 162.522 360.526 132.322 332.826 92.7218C311.726 62.6218 283.526 56.2218 247.526 55.8218C242.326 55.8218 237.126 55.6218 231.526 55.4218C203.626 54.5218 172.026 53.5218 147.726 68.9218C138.026 75.1218 131.426 83.6218 124.426 92.6218C120.726 97.4218 116.926 102.322 112.626 106.822C106.826 112.822 100.326 118.222 94.1261 123.422C90.0261 126.822 85.8261 130.222 81.9261 133.822C55.9261 157.622 69.6261 202.322 89.3261 233.322C118.026 278.722 174.526 312.222 226.726 314.822Z" fill="white"/>
<path d="M199.726 299.822C198.626 299.822 197.626 299.822 196.426 299.722C177.026 298.422 153.426 288.022 131.626 271.222C109.326 254.022 91.7259 231.922 83.4259 210.722C75.9259 191.722 71.9259 163.922 95.3259 139.122C100.826 133.322 106.926 127.822 112.826 122.622C116.926 118.922 121.226 115.122 125.226 111.222C129.726 106.822 134.126 101.822 138.326 96.9218C144.726 89.5218 151.426 81.8218 159.126 75.8218C182.426 57.8218 215.726 56.2218 245.226 57.0218C276.726 57.8218 303.226 71.6218 321.626 96.9218C343.826 127.422 346.226 159.622 328.126 183.022C316.626 197.922 302.526 211.322 288.926 224.222C277.726 234.922 266.126 245.922 255.926 257.722C253.326 260.822 250.626 264.022 248.126 267.222C234.826 283.922 222.026 299.822 199.726 299.822ZM234.526 57.8218C208.126 57.8218 180.026 60.9218 159.826 76.5218C152.226 82.4218 145.626 90.0218 139.226 97.4218C135.026 102.322 130.726 107.322 126.126 111.722C122.126 115.622 117.826 119.522 113.626 123.222C107.726 128.522 101.626 133.922 96.2259 139.722C73.2259 164.222 77.2259 191.622 84.5259 210.322C92.8259 231.322 110.226 253.222 132.426 270.322C154.026 287.022 177.426 297.322 196.726 298.622C220.626 300.222 233.726 283.822 247.626 266.522C250.126 263.422 252.726 260.122 255.426 257.022C265.626 245.122 277.226 234.122 288.426 223.422C302.026 210.522 316.126 197.122 327.526 182.322C345.326 159.222 342.926 127.522 320.926 97.4218C302.726 72.4218 276.526 58.7218 245.326 57.9218C241.726 57.9218 238.126 57.8218 234.526 57.8218Z" fill="white"/>
<path d="M174.226 283.722C173.526 283.722 172.826 283.722 172.126 283.722C143.226 282.522 115.526 261.222 101.626 229.522C88.0259 198.622 91.0259 167.122 109.626 145.222C124.526 127.522 144.726 107.722 171.226 84.7218C189.126 69.2218 215.426 60.8218 243.526 61.7218C271.226 62.6218 300.026 82.8218 313.526 110.722C325.126 134.622 323.226 159.922 308.326 180.122C291.126 203.422 267.426 223.522 244.526 242.922C242.226 244.922 239.926 246.822 237.626 248.722C235.726 250.422 233.726 252.022 231.826 253.722C214.726 268.422 197.026 283.722 174.226 283.722ZM239.126 62.6218C212.926 62.6218 188.526 70.8218 171.726 85.4218C145.226 108.422 125.126 128.122 110.226 145.822C91.9259 167.522 89.0259 198.622 102.426 229.122C116.226 260.522 143.526 281.522 172.126 282.722C172.826 282.722 173.526 282.722 174.226 282.722C196.726 282.722 214.226 267.622 231.126 252.922C233.026 251.222 235.026 249.522 236.926 247.922C239.226 246.022 241.526 244.022 243.826 242.122C266.726 222.722 290.326 202.722 307.426 179.522C322.326 159.322 324.126 135.022 312.526 111.222C299.126 83.6218 270.726 63.7218 243.326 62.8218C242.026 62.6218 240.526 62.6218 239.126 62.6218Z" fill="white"/>
<path d="M158.726 267.922C158.226 267.922 157.626 267.922 157.126 267.922C133.026 267.222 120.826 251.922 114.826 239.122C102.426 212.522 106.426 173.022 123.726 151.022C147.526 120.822 194.326 70.5217 241.026 70.5217C241.426 70.5217 241.826 70.5217 242.226 70.5217C264.126 70.9217 282.626 83.0217 293.026 103.522C305.026 127.222 303.226 156.122 288.426 177.122C261.826 215.122 204.226 267.922 158.726 267.922ZM241.126 71.5217C194.826 71.5217 148.326 121.622 124.626 151.622C107.526 173.322 103.526 212.422 115.826 238.622C121.726 251.122 133.626 266.222 157.226 266.822C202.526 268.122 260.926 214.822 287.826 176.622C302.426 155.922 304.226 127.422 292.426 104.022C282.126 83.8217 263.926 71.9217 242.426 71.5217C241.926 71.5217 241.526 71.5217 241.126 71.5217Z" fill="white"/>
<path d="M154.426 252.122C141.626 252.122 132.526 246.722 127.226 236.122C115.926 213.522 125.926 172.822 138.226 156.422C162.526 123.822 204.226 85.6219 241.726 84.9219C241.926 84.9219 242.126 84.9219 242.326 84.9219C250.526 84.9219 258.626 88.2219 265.726 94.4219C272.126 100.122 277.326 107.822 280.326 116.122C286.626 133.822 282.926 153.422 269.226 174.422C257.726 192.022 239.226 211.222 219.726 225.622C203.226 237.722 178.726 252.022 154.426 252.122ZM242.226 85.9219C242.026 85.9219 241.926 85.9219 241.726 85.9219C204.526 86.6219 163.126 124.722 138.926 157.022C126.826 173.222 116.926 213.422 128.026 235.722C133.126 245.922 142.026 251.122 154.326 251.122C178.326 251.122 202.626 236.822 218.826 224.922C238.226 210.622 256.726 191.522 268.126 174.022C281.626 153.222 285.326 133.922 279.126 116.522C271.726 95.4219 254.926 85.9219 242.226 85.9219Z" fill="white"/>
<path d="M160.026 234.022C159.926 234.022 159.826 234.022 159.726 234.022C151.526 233.922 145.726 230.622 142.326 224.022C138.426 216.522 137.926 204.822 140.926 191.022C143.326 179.622 147.926 167.922 152.626 161.122C162.326 147.122 175.926 133.122 189.726 122.522C201.526 113.522 219.126 102.822 236.426 102.922C245.926 103.022 252.826 106.822 256.926 114.222C265.526 130.022 258.726 158.622 250.126 172.122C241.126 186.322 226.326 201.722 210.426 213.322C192.426 226.722 174.526 234.022 160.026 234.022ZM236.226 103.922C205.326 103.922 169.126 139.322 153.526 161.722C145.226 173.622 134.726 207.022 143.226 223.522C146.426 229.722 152.026 232.922 159.726 233.022C159.826 233.022 159.926 233.022 160.026 233.022C174.326 233.022 192.026 225.822 209.826 212.622C225.526 201.022 240.226 185.722 249.226 171.622C257.726 158.222 264.426 130.122 256.026 114.722C252.126 107.622 245.526 104.022 236.426 103.922C236.326 103.922 236.226 103.922 236.226 103.922Z" fill="white"/>
<path d="M169.426 213.622C164.526 213.622 160.926 211.822 158.926 208.222C152.626 196.922 163.126 171.422 167.326 164.922C180.026 145.122 205.026 123.822 226.326 123.322C232.126 123.222 236.326 125.222 238.626 129.322C242.026 135.322 240.926 144.422 239.426 151.022C237.526 159.022 234.326 166.522 231.926 170.322C219.326 190.822 191.426 213.122 169.826 213.622C169.726 213.622 169.526 213.622 169.426 213.622ZM226.826 124.322C226.626 124.322 226.526 124.322 226.326 124.322C210.726 124.622 185.026 139.122 168.126 165.422C164.026 171.822 153.626 196.822 159.726 207.722C161.626 211.122 164.926 212.722 169.726 212.622C190.926 212.122 218.526 190.122 231.026 169.822C235.426 162.722 243.826 140.422 237.726 129.822C235.726 126.222 232.026 124.322 226.826 124.322Z" fill="white"/>
<path d="M184.226 191.722C183.826 191.722 183.426 191.722 183.126 191.622C180.826 191.322 179.126 190.122 178.126 187.922C175.826 182.622 178.426 172.622 182.426 167.222C188.226 159.222 202.126 144.222 213.126 145.222C215.526 145.422 217.426 146.722 218.426 148.922C220.926 154.222 218.426 163.822 214.726 169.222C211.126 174.422 205.526 180.222 200.126 184.522C195.626 187.822 189.526 191.722 184.226 191.722ZM212.226 146.222C205.626 146.222 194.126 152.822 183.126 167.922C179.326 173.122 176.826 182.622 179.026 187.622C179.826 189.422 181.226 190.522 183.226 190.722C183.526 190.722 183.926 190.822 184.226 190.822C193.426 190.822 207.326 178.022 213.826 168.722C217.426 163.622 219.726 154.222 217.426 149.422C216.526 147.522 215.026 146.522 212.926 146.322C212.726 146.222 212.526 146.222 212.226 146.222Z" fill="white"/>
</svg>
