<svg width="456" height="449" viewBox="0 0 456 449" fill="none" xmlns="http://www.w3.org/2000/svg">
<path d="M110.9 116.186C104.3 116.186 97.7001 115.186 91.2001 112.986C76.0001 107.886 64.2001 98.1865 52.7001 88.8865C38.8001 77.5864 24.4001 65.7864 4.1001 62.5864L4.3001 61.5864C24.9001 64.8865 39.4001 76.6864 53.4001 88.0864C64.8001 97.3865 76.5001 106.986 91.5001 111.986C130.6 125.186 173.8 93.5864 208.4 68.0864C214.8 63.3864 220.8 58.9865 226.4 55.1865C231.3 51.7865 236.5 48.0864 241.9 44.0864C276.7 18.9864 320 -12.3135 360.5 4.98645C375.5 11.3865 387.3 21.3865 398.7 31.0865C415.5 45.3865 431.3 58.7865 456 61.3865L455.9 62.3865C430.9 59.6865 415 46.1865 398.1 31.9865C386.8 22.3865 375 12.3865 360.2 6.08645C320.2 -11.1135 277.2 19.9865 242.6 44.9865C237.1 48.9865 232 52.6864 227 56.0864C221.4 59.8864 215.4 64.2865 209.1 68.9865C179.9 90.3865 144.8 116.186 110.9 116.186Z" fill="white"/>
<path d="M110.9 129.486C104.2 129.486 97.6001 128.486 91.1001 126.286C76.0001 121.086 64.2001 111.486 52.8001 102.186C38.9001 90.7865 24.5001 79.0864 4.1001 75.8864L4.3001 74.8864C25.0001 78.0864 39.5001 89.9865 53.5001 101.386C64.8001 110.586 76.6001 120.186 91.5001 125.286C130.7 138.586 173.8 106.986 208.4 81.5864C214.7 76.9865 220.7 72.5864 226.3 68.7864C231.2 65.3864 236.4 61.6865 241.9 57.6865C276.6 32.3865 319.9 1.08645 360.4 18.3864C375.4 24.7864 387.3 34.7864 398.7 44.4864C415.4 58.5864 431.2 71.9865 455.8 74.6865L455.7 75.6865C430.8 72.8865 414.9 59.4865 398.1 45.2865C386.7 35.5865 374.9 25.6865 360 19.2865C320.1 2.28645 277 33.3864 242.4 58.3864C236.9 62.3864 231.7 66.0864 226.7 69.4864C221.2 73.2864 215.2 77.6865 208.9 82.2865C179.8 103.786 144.7 129.486 110.9 129.486Z" fill="white"/>
<path d="M110.9 142.786C104.2 142.786 97.4999 141.786 90.9999 139.486C75.8999 134.286 64.1999 124.686 52.7999 115.486C38.7999 104.086 24.3999 92.2865 3.8999 89.1865L4.0999 88.1865C24.8999 91.3865 39.3999 103.286 53.4999 114.686C64.7999 123.886 76.4999 133.486 91.3999 138.586C130.6 151.986 173.6 120.386 208.3 94.9865C214.6 90.3865 220.5 85.9865 226.1 82.1865C231.1 78.7865 236.3 74.9865 241.8 70.9865C276.6 45.7865 320 14.3865 360.4 31.5865C375.5 37.9865 387.4 48.0865 398.9 57.7865C415.6 71.8865 431.3 85.1865 455.8 87.9865L455.7 88.9865C430.9 86.1865 415 72.7865 398.2 58.5865C386.8 48.8865 374.9 38.8865 360 32.5865C320 15.6865 277 46.7865 242.3 71.8865C236.8 75.8865 231.5 79.6865 226.5 83.0865C221 86.8865 215 91.1865 208.8 95.8865C179.7 117.086 144.7 142.786 110.9 142.786Z" fill="white"/>
<path d="M110.9 156.086C104.2 156.086 97.5001 155.086 90.9001 152.786C75.9001 147.586 64.1001 137.986 52.8001 128.786C38.8001 117.386 24.4 105.586 3.80005 102.486L4.00005 101.486C24.9 104.686 39.4 116.586 53.5 127.986C64.8 137.186 76.4 146.686 91.3 151.786C130.3 165.386 173.4 133.786 208 108.386C214.3 103.786 220.2 99.4865 225.7 95.6865C230.7 92.2864 236 88.4864 241.5 84.3864C276.3 59.1864 319.7 27.7865 360.2 44.7865C375.3 51.1865 387.3 61.2864 398.8 71.0864C415.4 85.1864 431.1 98.4865 455.6 101.286L455.5 102.286C430.8 99.3864 415 85.9865 398.2 71.7865C386.7 62.0865 374.9 51.9865 359.8 45.6865C319.9 28.8865 276.8 60.0865 242.1 85.1865C236.5 89.1865 231.2 93.0864 226.2 96.4864C220.7 100.286 214.8 104.586 208.5 109.186C179.6 130.486 144.6 156.086 110.9 156.086Z" fill="white"/>
<path d="M110.8 169.386C104 169.386 97.2999 168.386 90.5999 166.086C75.5999 160.886 63.8999 151.386 52.5999 142.086C38.5999 130.686 24.0999 118.886 3.3999 115.786L3.4999 114.786C24.4999 117.886 39.0999 129.786 53.1999 141.286C64.3999 150.486 75.9999 159.886 90.8999 165.086C130.1 178.686 173.1 147.186 207.7 121.786C213.9 117.186 219.8 112.886 225.3 109.186C230.3 105.786 235.6 101.886 241.2 97.7865C276.1 72.4865 319.4 41.0865 359.9 58.0865C375.1 64.4865 387.1 74.5865 398.7 84.3865C415.3 98.4865 431 111.686 455.3 114.586L455.2 115.586C430.6 112.686 414.8 99.2865 398.1 85.0865C386.6 75.2865 374.7 65.2865 359.6 58.8865C319.7 42.1865 276.6 73.3865 241.9 98.4865C236.3 102.586 231 106.386 225.9 109.886C220.4 113.586 214.6 117.886 208.3 122.486C179.4 143.786 144.6 169.386 110.8 169.386Z" fill="white"/>
<path d="M110.8 182.686C104 182.686 97.2 181.686 90.5 179.286C75.5 174.086 63.9 164.586 52.6 155.386C37.9 143.386 24 132.086 3.30005 129.086L3.40005 128.086C24.4 131.186 39.1 143.086 53.2 154.686C64.4 163.786 76 173.286 90.8 178.386C130 192.086 173 160.586 207.6 135.286C213.8 130.786 219.6 126.486 225.1 122.786C230.2 119.286 235.5 115.486 241.1 111.386C276 86.0864 319.4 54.5864 359.8 71.4864C375.1 77.8864 387.1 87.9864 398.7 97.8864C415.3 111.886 430.9 125.186 455.1 128.086L455 129.086C430.5 126.086 414.7 112.786 398 98.5864C386.4 88.7864 374.5 78.6864 359.4 72.3864C319.5 55.7864 276.3 87.0864 241.7 112.186C236 116.286 230.7 120.186 225.6 123.586C220.2 127.286 214.3 131.586 208.1 136.086C179.3 157.186 144.5 182.686 110.8 182.686Z" fill="white"/>
<path d="M110.8 195.986C103.9 195.986 97.0999 194.886 90.3999 192.586C75.4999 187.286 63.8999 177.886 52.6999 168.686C37.9999 156.686 24.1 145.386 3.19995 142.386L3.29995 141.386C24.4 144.386 39.1 156.386 53.3 167.986C64.5 177.086 76 186.486 90.7 191.686C129.9 205.486 172.9 173.986 207.4 148.686C213.6 144.186 219.4 139.886 224.8 136.186C229.9 132.686 235.2 128.786 240.9 124.686C275.8 99.3865 319.2 67.8865 359.6 84.5865C374.9 90.8865 387 101.186 398.6 110.986C415.1 124.986 430.8 138.186 454.9 141.186L454.8 142.186C430.4 139.186 414.7 125.786 398 111.686C386.4 101.886 374.4 91.6865 359.2 85.3865C319.3 68.8865 276.1 100.186 241.5 125.386C235.8 129.486 230.4 133.386 225.4 136.886C220 140.586 214.2 144.886 208 149.386C179.2 170.586 144.5 195.986 110.8 195.986Z" fill="white"/>
<path d="M110.8 209.286C103.9 209.286 97 208.186 90.2 205.786C75.3 200.486 63.8 191.086 52.6 181.986C37.9 169.986 23.9 158.586 3 155.686L3.1 154.686C24.3 157.686 39 169.686 53.2 181.286C64.3 190.386 75.8 199.686 90.5 204.986C129.7 218.886 172.7 187.486 207.2 162.186C213.3 157.686 219.1 153.486 224.5 149.786C229.6 146.286 235 142.386 240.7 138.186C275.6 112.886 319 81.2864 359.4 97.8864C374.8 104.186 386.9 114.486 398.6 124.386C415.1 138.386 430.7 151.586 454.7 154.586L454.6 155.586C430.3 152.486 414.6 139.186 398 125.086C386.4 115.186 374.3 104.986 359.1 98.7864C319.2 82.3864 276 113.686 241.3 138.886C235.6 143.086 230.2 146.986 225.1 150.486C219.7 154.186 213.9 158.386 207.8 162.886C179.1 183.886 144.4 209.286 110.8 209.286Z" fill="white"/>
<path d="M110.8 222.586C103.8 222.586 96.9001 221.486 90.1001 219.086C75.3 213.786 63.8 204.386 52.6 195.286C37.8 183.286 23.9 171.886 2.80005 168.986L2.90005 167.986C24.2 170.986 38.9 182.986 53.2 194.586C64.3 203.586 75.7001 212.986 90.4001 218.186C129.6 232.186 172.5 200.786 207.1 175.486C213.2 171.086 218.9 166.886 224.3 163.186C229.4 159.686 234.9 155.686 240.6 151.586C275.5 126.186 319 94.6865 359.4 111.186C374.8 117.486 387 127.786 398.7 137.686C415.2 151.686 430.7 164.786 454.6 167.986L454.5 168.986C430.3 165.886 413.9 151.986 398 138.486C386.3 128.586 374.3 118.386 359 112.086C319.1 95.7865 275.9 127.186 241.2 152.386C235.4 156.586 230 160.486 224.9 164.086C219.5 167.786 213.8 171.986 207.7 176.386C179 197.286 144.4 222.586 110.8 222.586Z" fill="white"/>
<path d="M110.8 235.886C103.8 235.886 96.8 234.786 90 232.286C75.2 226.986 63.7 217.586 52.5999 208.586C37.7999 196.486 23.8 185.086 2.69995 182.286L2.79995 181.286C24.1999 184.186 38.9999 196.186 53.1999 207.886C64.1999 216.886 75.7 226.186 90.3 231.486C129.5 245.586 172.4 214.186 206.9 188.986C212.9 184.586 218.7 180.386 224 176.786C229.2 173.286 234.6 169.286 240.4 165.086C275.3 139.686 318.8 108.086 359.2 124.486C374.7 130.786 386.9 141.086 398.6 151.086C415 164.986 430.6 178.186 454.4 181.386L454.3 182.386C430.2 179.186 413.8 165.286 398 151.886C386.3 141.986 374.2 131.686 358.8 125.486C318.9 109.286 275.7 140.686 241 165.986C235.2 170.186 229.7 174.186 224.6 177.686C219.3 181.386 213.6 185.486 207.5 189.886C178.9 210.686 144.3 235.886 110.8 235.886Z" fill="white"/>
<path d="M110.8 249.186C103.8 249.186 96.8 248.086 89.9 245.586C75.2 240.286 63.7 230.886 52.6 221.886C37.8 209.786 23.8 198.386 2.5 195.586L2.6 194.586C24.2 197.386 39 209.386 53.2 221.086C64.2 230.086 75.6 239.386 90.2 244.586C129.4 258.786 172.3 227.486 206.8 202.286C212.8 197.886 218.5 193.786 223.8 190.086C229 186.486 234.5 182.486 240.3 178.286C275.2 152.886 318.7 121.186 359.1 137.486C374.7 143.786 386.9 154.086 398.7 164.186C415.1 178.086 430.6 191.186 454.3 194.486L454.2 195.486C430.2 192.186 413.9 178.386 398.1 164.986C386.3 154.986 374.2 144.686 358.8 138.486C318.9 122.386 275.7 153.886 241 179.086C235.2 183.286 229.7 187.286 224.5 190.886C219.2 194.486 213.5 198.686 207.5 203.086C178.7 223.986 144.3 249.186 110.8 249.186Z" fill="white"/>
<path d="M110.8 262.486C103.7 262.486 96.6999 261.386 89.6999 258.786C74.9999 253.386 63.5999 244.086 52.5999 235.086C37.6999 222.986 23.6999 211.586 2.3999 208.786L2.4999 207.786C24.0999 210.586 38.8999 222.686 53.1999 234.386C64.1999 243.286 75.4999 252.586 90.0999 257.886C129.3 272.186 172.2 240.886 206.7 215.686C212.7 211.286 218.3 207.186 223.6 203.586C228.8 199.986 234.3 195.986 240.2 191.686C275.2 166.186 318.7 134.586 359 150.786C374.6 157.086 386.9 167.486 398.7 177.486C415.1 191.386 430.5 204.486 454.2 207.786L454.1 208.786C430.2 205.486 413.9 191.686 398.1 178.286C386.3 168.286 374.1 157.986 358.6 151.786C318.8 135.786 275.5 167.286 240.7 192.586C234.8 196.886 229.3 200.886 224.1 204.486C218.8 208.086 213.2 212.186 207.2 216.586C178.6 237.386 144.2 262.486 110.8 262.486Z" fill="white"/>
<path d="M110.8 275.786C103.7 275.786 96.5999 274.686 89.5999 272.086C74.9999 266.686 63.5999 257.486 52.5999 248.486C37.7 236.386 23.7 224.886 2.19995 222.186L2.29995 221.186C24 223.986 38.8999 236.086 53.1999 247.686C64.0999 256.586 75.4999 265.786 89.8999 271.186C129.1 285.586 172 254.286 206.4 229.186C212.3 224.886 217.9 220.786 223.2 217.186C228.4 213.586 234 209.586 239.9 205.286C274.9 179.786 318.4 148.086 358.7 164.186C374.4 170.486 386.7 180.886 398.6 190.986C414.9 204.886 430.4 217.886 453.9 221.286L453.8 222.286C430 218.886 413.7 205.086 398 191.786C386.2 181.786 373.9 171.386 358.4 165.186C318.6 149.286 275.3 180.786 240.5 206.186C234.6 210.486 229 214.586 223.8 218.186C218.6 221.786 213 225.886 207 230.186C178.5 250.686 144.2 275.786 110.8 275.786Z" fill="white"/>
<path d="M110.8 289.086C103.6 289.086 96.5001 287.886 89.5001 285.286C74.9001 279.886 63.6001 270.686 52.6001 261.686C37.7001 249.586 23.6001 238.086 2.1001 235.386L2.2001 234.386C24.0001 237.186 38.9001 249.286 53.2001 260.886C64.1001 269.786 75.4001 278.986 89.8001 284.286C129 298.786 171.9 267.486 206.3 242.386C212.2 238.086 217.8 233.986 223 230.486C228.3 226.886 233.9 222.786 239.8 218.486C274.8 192.986 318.3 161.186 358.7 177.186C374.4 183.386 386.8 193.886 398.7 203.986C415 217.786 430.4 230.886 453.8 234.286L453.7 235.286C430 231.886 413.8 218.086 398.1 204.786C386.2 194.686 373.9 184.286 358.4 178.186C318.6 162.386 275.3 193.986 240.5 219.386C234.6 223.686 229 227.786 223.7 231.386C218.5 234.986 212.9 238.986 207 243.286C178.4 264.086 144.1 289.086 110.8 289.086Z" fill="white"/>
<path d="M110.8 302.386C103.6 302.386 96.4 301.186 89.3 298.586C74.8 293.186 63.5 283.986 52.5 275.086C37.6001 262.886 23.5 251.486 1.80005 248.786L1.90005 247.786C23.8 250.486 38.7001 262.586 53.1 274.286C64 283.186 75.2001 292.286 89.6001 297.686C128.8 312.286 171.6 281.086 206.1 255.986C212 251.686 217.5 247.686 222.7 244.086C228 240.486 233.6 236.386 239.6 231.986C274.6 206.486 318.2 174.686 358.5 190.586C374.3 196.786 386.7 207.286 398.6 217.486C414.9 231.286 430.3 244.286 453.6 247.786L453.5 248.786C429.9 245.286 413.7 231.586 398 218.286C386.1 208.186 373.8 197.786 358.1 191.586C318.3 175.886 275 207.486 240.2 232.886C234.2 237.286 228.6 241.386 223.3 244.986C218.1 248.586 212.6 252.586 206.7 256.886C178.3 277.486 144.1 302.386 110.8 302.386Z" fill="white"/>
<path d="M110.8 315.686C103.5 315.686 96.2999 314.486 89.2 311.886C74.7 306.486 63.3999 297.286 52.5 288.386C37.5 276.186 23.4 264.686 1.69995 262.086L1.79995 261.086C23.7999 263.786 38.7 275.886 53.0999 287.586C63.8999 296.386 75.2 305.586 89.5 310.886C128.7 325.586 171.5 294.386 205.9 269.286C211.7 265.086 217.2 260.986 222.4 257.486C227.7 253.886 233.4 249.686 239.4 245.286C274.4 219.686 318 187.886 358.3 203.686C374.1 209.886 386.6 220.386 398.6 230.586C414.9 244.386 430.2 257.386 453.4 260.886L453.3 261.886C429.8 258.386 413.6 244.686 398 231.386C386 221.286 373.7 210.786 358 204.586C318.2 188.986 274.9 220.686 240 246.086C234 250.486 228.3 254.586 223 258.286C217.8 261.786 212.3 265.786 206.5 270.086C178.2 290.786 144 315.686 110.8 315.686Z" fill="white"/>
<path d="M110.8 328.986C103.5 328.986 96.2 327.786 89.1 325.086C74.7 319.586 63.4 310.486 52.5 301.686C37.5 289.486 23.4 277.986 1.5 275.386L1.6 274.386C23.7 276.986 38.7 289.186 53.1 300.886C63.9 309.686 75.1 318.786 89.4 324.186C128.6 338.986 171.4 307.786 205.8 282.786C211.6 278.586 217.1 274.586 222.2 271.086C227.5 267.386 233.2 263.286 239.3 258.886C274.3 233.286 317.9 201.486 358.2 217.086C374.1 223.286 386.6 233.886 398.6 244.086C414.8 257.886 430.1 270.786 453.3 274.386L453.1 275.386C429.7 271.786 413.6 258.086 397.9 244.886C385.9 234.686 373.5 224.186 357.8 218.086C318 202.586 274.7 234.286 239.8 259.786C233.8 264.186 228.1 268.386 222.7 271.986C217.6 275.486 212.1 279.486 206.3 283.686C178 304.186 144 328.986 110.8 328.986Z" fill="white"/>
<path d="M110.8 342.286C103.5 342.286 96.2 341.086 89 338.386C74.6 332.886 63.4 323.786 52.6 314.986C37.6 302.786 23.4 291.186 1.5 288.686L1.6 287.686C23.8 290.286 38.1 301.886 53.2 314.186C64 322.986 75.1 331.986 89.4 337.386C128.6 352.286 171.4 321.186 205.8 296.186C211.6 291.986 217 288.086 222.1 284.486C227.5 280.786 233.2 276.586 239.3 272.186C274.4 246.586 318 214.686 358.3 230.286C374.3 236.486 386.8 247.086 398.9 257.286C415.1 270.986 430.4 283.987 453.4 287.587L453.2 288.587C429.9 284.987 413.8 271.287 398.2 258.087C386.2 247.887 373.7 237.286 357.9 231.186C318.1 215.786 274.8 247.486 239.9 272.986C233.8 277.387 228.1 281.586 222.7 285.286C217.6 288.786 212.2 292.786 206.4 296.886C177.9 317.586 143.9 342.286 110.8 342.286Z" fill="white"/>
<path d="M110.7 355.587C103.3 355.587 96.0001 354.387 88.7001 351.587C74.3001 346.087 63.2001 336.986 52.4001 328.186C37.4001 315.986 23.1001 304.386 1.1001 301.886L1.2001 300.886C23.5001 303.386 37.8001 315.086 53.0001 327.386C63.7001 336.086 74.8001 345.187 89.0001 350.587C128.2 365.587 171 334.487 205.3 309.487C211 305.287 216.4 301.386 221.5 297.886C226.9 294.186 232.7 289.986 238.8 285.486C273.9 259.886 317.5 227.886 357.8 243.386C373.8 249.486 386.4 260.187 398.5 270.487C414.7 284.187 429.9 297.086 452.8 300.786L452.6 301.786C429.4 298.086 413.3 284.486 397.8 271.286C385.7 261.086 373.2 250.486 357.4 244.386C317.6 229.086 274.2 260.886 239.4 286.386C233.3 290.886 227.5 295.086 222.1 298.786C217 302.286 211.6 306.187 205.9 310.386C177.8 330.886 143.9 355.587 110.7 355.587Z" fill="white"/>
<path d="M110.7 368.886C103.3 368.886 95.9 367.687 88.6 364.886C74.3 359.386 63.2 350.287 52.4 341.587C37.3 329.287 23.1 317.786 1 315.286L1.1 314.286C23.5 316.786 37.9 328.486 53.1 340.786C63.8 349.486 74.9 358.487 89 363.987C128.2 379.087 171 347.987 205.3 323.087C211 318.987 216.4 315.087 221.4 311.587C226.8 307.887 232.6 303.586 238.7 299.186C273.8 273.486 317.5 241.586 357.7 256.886C373.8 262.986 386.4 273.687 398.6 283.987C414.7 297.687 430 310.586 452.8 314.286L452.6 315.286C429.5 311.586 413.5 297.986 397.9 284.786C385.8 274.486 373.3 263.886 357.3 257.786C317.6 242.686 274.1 274.387 239.3 299.987C233.2 304.487 227.4 308.687 221.9 312.487C216.9 315.987 211.5 319.887 205.8 323.987C177.7 344.286 143.8 368.886 110.7 368.886Z" fill="white"/>
<path d="M110.7 382.186C103.2 382.186 95.8 380.886 88.5 378.086C74.2 372.586 63.1001 363.586 52.4001 354.786C37.3 342.486 23 330.886 0.800049 328.486L0.900049 327.486C23.4 329.886 37.8 341.586 53 353.986C63.7001 362.686 74.7001 371.686 88.8 377.086C128 392.286 170.7 361.286 205.1 336.286C210.8 332.186 216.1 328.286 221.1 324.886C226.5 321.186 232.4 316.886 238.5 312.386C273.6 286.686 317.3 254.686 357.5 269.886C373.6 275.986 386.3 286.686 398.5 297.086C413.9 310.086 429.8 323.586 452.5 327.386L452.3 328.386C429.3 324.586 413.3 311.086 397.8 297.886C385.6 287.586 373.1 276.886 357.1 270.886C317.4 255.886 273.9 287.686 239 313.186C232.8 317.686 227 321.986 221.5 325.686C216.5 329.086 211.2 332.986 205.5 337.086C177.6 357.586 143.8 382.186 110.7 382.186Z" fill="white"/>
<path d="M110.7 395.486C103.2 395.486 95.7 394.186 88.3999 391.386C74.2 385.886 63.1 376.886 52.4 368.186C37.2999 355.886 23 344.286 0.699951 341.886L0.79995 340.886C23.4 343.286 37.7999 354.986 53.0999 367.386C63.7 375.986 74.7 384.986 88.8 390.486C128 405.786 170.7 374.786 205 349.886C210.6 345.786 215.9 341.986 220.9 338.486C226.4 334.686 232.2 330.486 238.4 325.886C273.5 300.186 317.2 268.186 357.4 283.286C373.6 289.386 386.3 300.086 398.5 310.486C413.9 323.486 429.7 336.986 452.4 340.786L452.2 341.786C429.3 337.986 413.3 324.386 397.9 311.286C385.7 300.986 373.1 290.286 357.1 284.186C317.4 269.286 273.9 301.086 239 326.686C232.8 331.186 226.9 335.486 221.4 339.286C216.4 342.686 211.1 346.586 205.5 350.586C177.5 370.986 143.7 395.486 110.7 395.486Z" fill="white"/>
<path d="M110.7 408.786C103.2 408.786 95.5999 407.486 88.1999 404.586C73.9999 398.986 62.9999 390.086 52.2999 381.386C37.0999 369.086 22.7999 357.386 0.399902 355.086L0.499903 354.086C23.1999 356.386 37.5999 368.186 52.8999 380.586C63.4999 389.186 74.4999 398.086 88.4999 403.586C127.7 418.986 170.4 387.986 204.7 363.086C210.3 359.086 215.5 355.186 220.5 351.786C226 347.986 231.9 343.686 238.1 339.086C273.2 313.286 317 281.286 357.2 296.286C373.5 302.386 386.2 313.186 398.5 323.586C413.8 336.586 429.7 349.986 452.2 353.786L452 354.786C429.2 350.886 413.2 337.386 397.8 324.286C385.6 313.886 372.9 303.186 356.8 297.186C317.1 282.386 273.6 314.186 238.7 339.886C232.5 344.486 226.6 348.786 221 352.586C216 355.986 210.8 359.786 205.2 363.886C177.3 384.386 143.7 408.786 110.7 408.786Z" fill="white"/>
<path d="M110.7 422.086C103.1 422.086 95.5999 420.786 88.0999 417.886C73.9999 412.286 62.9999 403.286 52.3999 394.686C37.1999 382.386 22.8999 370.686 0.399902 368.386L0.499903 367.386C23.2999 369.686 37.7999 381.386 53.0999 393.886C63.6999 402.486 74.5999 411.386 88.5999 416.886C127.8 432.386 170.5 401.386 204.8 376.586C210.3 372.586 215.6 368.786 220.5 365.386C226 361.586 232 357.286 238.2 352.686C273.3 326.886 317.1 294.786 357.3 309.686C373.6 315.786 386.4 326.586 398.7 337.086C414 350.086 429.8 363.486 452.2 367.286L452 368.286C429.3 364.386 413.4 350.886 398 337.786C385.7 327.386 373 316.586 356.9 310.586C317.2 295.886 273.7 327.786 238.8 353.386C232.5 357.986 226.6 362.386 221.1 366.186C216.2 369.586 210.9 373.386 205.4 377.386C177.2 397.686 143.6 422.086 110.7 422.086Z" fill="white"/>
<path d="M110.7 435.386C103.1 435.386 95.5 434.086 88 431.086C73.9 425.486 63 416.586 52.4 407.986C37.2 395.586 22.8 383.986 0.199951 381.686L0.29995 380.686C23.1999 382.986 37.7 394.686 53 407.186C63.5 415.786 74.3999 424.586 88.3999 430.086C127.6 445.686 170.3 414.786 204.5 389.986C210 385.986 215.2 382.186 220.1 378.886C225.7 375.086 231.6 370.686 237.9 366.086C273.1 340.286 316.8 308.186 357 322.986C373.4 328.986 386.2 339.886 398.6 350.386C413.9 363.286 429.7 376.686 452 380.586L451.8 381.586C429.2 377.686 413.3 364.186 397.9 351.086C385.6 340.586 372.8 329.786 356.6 323.886C316.9 309.286 273.4 341.186 238.4 366.886C232.1 371.486 226.1 375.886 220.6 379.686C215.7 383.086 210.5 386.786 205 390.786C177.1 411.086 143.6 435.386 110.7 435.386Z" fill="white"/>
<path d="M110.7 448.686C103 448.686 95.4 447.386 87.9 444.386C73.9 438.786 62.9 429.886 52.4 421.286C37.2 408.886 22.8 397.186 0 395.086L0.1 394.086C23.1 396.286 37.6 408.086 53 420.586C63.5 429.086 74.4 437.986 88.3 443.486C127.5 459.186 170.1 428.286 204.4 403.486C209.9 399.486 215 395.786 219.9 392.486C225.5 388.686 231.5 384.286 237.8 379.586C273 353.786 316.8 321.586 356.9 336.286C373.3 342.286 386.2 353.186 398.6 363.786C413.8 376.686 429.6 390.086 451.8 393.986L451.6 394.986C429.1 390.986 413.2 377.586 397.9 364.486C385.5 353.986 372.7 343.186 356.5 337.186C316.8 322.686 273.3 354.686 238.3 380.386C232 385.086 226 389.486 220.4 393.286C215.5 396.586 210.4 400.386 204.9 404.286C177 424.486 143.5 448.686 110.7 448.686Z" fill="white"/>
</svg>
