<svg width="411" height="447" viewBox="0 0 411 447" fill="none" xmlns="http://www.w3.org/2000/svg">
<path d="M160.862 446.8C147.662 446.8 107.562 445.5 68.4617 431C31.4617 417.3 8.66173 396.2 2.36173 369.9C-7.13827 329.9 13.7617 293.9 34.0617 259C50.2617 231.1 67.0617 202.2 67.3617 172.1C67.4617 159 63.8617 147.9 60.0617 136.1C58.0617 129.9 55.9617 123.4 54.4617 116.6C49.9617 96.5 62.5617 85.8 76.9617 75.8C107.662 54.4 144.962 40.1 177.462 28.3C217.062 14 259.162 0 299.762 0C299.762 0 299.762 0 299.862 0C339.562 0 344.062 39.7 348.062 74.8C349.262 85.4 350.362 95.5 352.462 103.9C358.762 130 367.862 156.9 376.562 182.8C392.962 231.7 409.962 282.2 410.962 332.6C411.762 372 378.962 381.7 347.362 391.1C340.962 393 334.362 395 328.262 397.1C314.362 402.1 300.062 407.9 286.362 413.5C246.562 429.8 205.362 446.6 162.062 446.9C161.662 446.8 161.262 446.8 160.862 446.8ZM299.862 1C259.362 1 217.362 15 177.762 29.3C145.262 41 108.062 55.3 77.4617 76.6C63.3617 86.5 50.9617 96.9 55.3617 116.4C56.8617 123.1 58.9617 129.6 60.9617 135.8C64.8617 147.7 68.4617 158.9 68.3617 172.2C68.0617 202.6 51.1617 231.6 34.9617 259.6C14.8617 294.3 -6.03827 330.2 3.36173 369.8C9.56173 395.7 32.1617 416.6 68.7617 430.2C108.962 445.1 150.362 446 162.062 445.9C205.162 445.6 246.262 428.8 285.962 412.6C299.762 407 313.962 401.2 327.962 396.2C334.062 394 340.662 392.1 347.062 390.2C378.362 380.9 410.662 371.3 409.962 332.7C408.962 282.5 392.062 232 375.562 183.2C366.862 157.2 357.762 130.4 351.462 104.2C349.362 95.7 348.262 85.6 347.062 74.9C343.062 40.2 338.662 1 299.862 1Z" fill="white"/>
<path d="M157.062 433.1C107.062 433.1 34.0617 414.6 23.9617 361.5C16.8617 324.3 35.1617 289.6 52.8617 256.1C67.4617 228.3 81.3617 202.1 81.3617 175.1C81.3617 166.5 78.5617 157.4 75.7617 148.7C73.2617 140.8 70.6617 132.6 70.0617 124.4C68.8617 107 80.8617 97.1999 94.4617 87.9999C122.762 68.6999 156.662 55.7999 188.962 44.1999C226.362 30.7999 262.862 18.6999 297.762 17.8999C334.562 16.9999 339.062 60.6999 342.662 95.8999C343.662 105.3 344.562 114.3 346.062 121.5C351.362 147.4 359.362 173.8 367.062 199.4C380.262 243 393.862 288.1 395.062 332.8C396.162 372.1 363.162 381.3 331.262 390.2C326.662 391.5 321.862 392.8 317.262 394.3C306.562 397.6 295.462 401.3 284.762 404.9C244.862 418.2 203.562 432 162.462 433.1C160.662 433.1 158.862 433.1 157.062 433.1ZM162.462 432C203.362 430.9 244.562 417.1 284.462 403.8C295.162 400.2 306.162 396.5 316.962 393.2C321.562 391.8 326.362 390.4 330.962 389.1C362.462 380.3 395.062 371.1 393.962 332.6C392.762 288 379.162 243 366.062 199.5C358.362 173.9 350.362 147.5 345.062 121.5C343.562 114.3 342.662 105.3 341.662 95.8999C338.062 61.1999 333.562 17.8999 297.762 18.7999C262.962 19.6999 226.562 31.6999 189.262 45.0999C157.062 56.5999 123.162 69.4999 94.9617 88.7999C81.6617 97.8999 69.8617 107.5 70.9617 124.3C71.5617 132.3 74.1617 140.5 76.6617 148.4C79.4617 157.2 82.3617 166.3 82.3617 175.1C82.2617 202.3 68.4617 228.7 53.7617 256.5C36.1617 289.9 17.9617 324.4 24.9617 361.3C35.2617 415.7 112.862 433.4 162.462 432Z" fill="white"/>
<path d="M157.862 422.1C134.262 422.1 110.062 417.3 90.8616 408.6C64.3616 396.7 48.4617 378.1 44.7617 354.9C39.3617 321.1 54.6616 289 69.3616 257.8C81.6616 231.9 93.1616 207.4 92.9616 183.1C92.8616 174.4 91.5616 166.5 90.2617 158.9C86.8616 138.1 83.8616 120.1 110.662 102.5C163.962 67.5001 237.062 42.4001 292.362 40.0001C327.062 38.5001 332.162 84.9001 335.862 118.8C336.762 126.6 337.562 134.1 338.662 140C343.062 164.1 349.562 188.8 355.762 212.7C366.162 252.3 376.962 293.2 378.462 333C379.962 371.8 344.962 381.3 314.162 389.7C311.562 390.4 308.962 391.1 306.362 391.8C300.862 393.3 295.362 394.9 289.862 396.5C248.362 408.4 205.362 420.6 163.662 422C161.662 422.1 159.762 422.1 157.862 422.1ZM293.862 40.9001C293.362 40.9001 292.862 40.9001 292.362 40.9001C237.162 43.3001 164.362 68.3001 111.162 103.2C84.9616 120.4 87.7617 137.3 91.2617 158.6C92.5616 166.3 93.8616 174.2 93.9616 183C94.2616 207.6 82.5616 232.2 70.2617 258.2C55.5617 289.2 40.4617 321.2 45.7617 354.7C49.4617 377.6 65.1616 395.9 91.2617 407.7C111.662 416.9 138.662 421.8 163.562 421C205.162 419.6 248.062 407.4 289.562 395.5C295.062 393.9 300.562 392.4 306.062 390.8C308.662 390.1 311.262 389.4 313.862 388.7C345.862 380 378.862 371 377.462 333.1C375.962 293.3 365.262 252.5 354.862 213C348.562 189.1 342.062 164.4 337.662 140.3C336.562 134.3 335.762 126.9 334.862 119C331.162 85.9001 326.262 40.9001 293.862 40.9001Z" fill="white"/>
<path d="M160.562 413.4C139.762 413.4 118.762 408.6 102.162 399.9C80.5617 388.6 67.3617 371.5 64.2617 350.3C59.7617 320.3 71.9617 290.9 83.7617 262.4C93.5617 238.9 102.762 216.6 102.462 195.1C102.362 189 101.962 183.2 101.462 177.7C99.6617 154.6 98.1617 136.4 124.562 119.4C171.862 88.8001 234.462 67.6001 284.162 65.4001C318.562 63.9001 323.762 109.2 327.462 142.2C328.162 148.5 328.862 154.4 329.662 159.2C333.162 180.1 338.062 201.6 342.762 222.3C351.062 259 359.662 296.9 361.262 333.5C362.862 371.8 327.362 381.2 296.062 389.5L295.362 389.7C255.462 400.3 209.162 411.7 165.362 413.3C163.662 413.4 162.062 413.4 160.562 413.4ZM285.762 66.3001C285.262 66.3001 284.662 66.3001 284.162 66.3001C234.662 68.5001 172.262 89.6001 125.062 120.1C99.1617 136.9 100.562 154.8 102.362 177.5C102.762 183.1 103.262 188.9 103.362 195C103.662 216.8 94.3617 239.1 84.6617 262.7C72.9617 291 60.7617 320.3 65.2617 350.1C68.3617 370.9 81.3617 387.8 102.662 399C120.362 408.2 143.162 413.1 165.362 412.3C209.062 410.7 255.262 399.3 295.162 388.7L295.862 388.5C326.762 380.3 361.862 371 360.262 333.5C358.762 297 350.162 259.1 341.762 222.5C337.062 201.8 332.162 180.3 328.662 159.4C327.862 154.5 327.162 148.6 326.462 142.3C322.762 110.2 317.762 66.3001 285.762 66.3001Z" fill="white"/>
<path d="M164.462 406.5C145.962 406.5 127.362 401.6 113.062 392.9C95.6618 382.3 85.0618 366.6 82.3618 347.7C78.6618 321.3 87.6618 295.3 96.3618 270.1C103.562 249.3 110.362 229.6 110.162 210.4C110.162 208.1 110.062 205.9 110.062 203.6C109.562 177.1 109.162 156.2 135.862 138.7C175.162 113 229.262 95.1999 273.562 93.3999C307.262 91.9999 313.262 136.9 317.162 166.5C317.762 171.1 318.362 175.4 318.962 179.1C321.562 194.9 324.762 211.1 327.862 226.7C334.862 262.2 342.062 298.8 343.462 334.2C344.762 369 313.562 380.1 284.162 387.8C240.262 399.3 200.962 405.6 167.262 406.5C166.462 406.4 165.462 406.5 164.462 406.5ZM275.162 94.2999C274.662 94.2999 274.262 94.2999 273.762 94.2999C229.562 96.0999 175.762 113.8 136.562 139.4C110.262 156.6 110.662 177.3 111.162 203.5C111.162 205.7 111.262 208 111.262 210.3C111.462 229.7 104.662 249.4 97.4618 270.3C88.7618 295.4 79.8618 321.3 83.4618 347.4C86.0618 366 96.4618 381.4 113.662 391.9C128.562 401 148.062 405.9 167.462 405.3C201.062 404.4 240.262 398.1 284.062 386.6C314.362 378.7 343.862 368.1 342.562 334C341.262 298.8 333.962 262.1 327.062 226.7C323.962 211 320.762 194.8 318.162 179C317.562 175.3 316.962 170.9 316.362 166.3C312.462 137.7 306.762 94.2999 275.162 94.2999Z" fill="white"/>
<path d="M168.262 400.8C151.862 400.8 136.062 396 123.662 387.2C109.862 377.4 101.162 363.4 98.6617 346.7C95.2617 324 101.562 301.3 107.562 279.4C112.562 261.5 117.162 244.6 116.962 227.7C116.562 202.1 118.462 177.7 145.262 160.1C177.462 138.8 223.262 124.4 261.762 123.2C262.162 123.2 262.562 123.2 262.962 123.2C294.862 123.2 301.262 163.9 305.562 191C306.062 193.9 306.462 196.7 306.862 199.2C308.062 206.3 309.362 213.5 310.662 220.7C317.462 258.3 324.462 297.2 325.462 334.9C326.362 366.8 299.562 378.4 273.162 385.6C239.262 394.8 202.562 400.2 169.662 400.8C169.262 400.8 168.762 400.8 168.262 400.8ZM169.862 399.8C202.562 399.2 239.262 393.8 273.062 384.6C299.062 377.5 325.562 366.1 324.662 334.9C323.562 297.3 316.562 258.4 309.862 220.9C308.562 213.7 307.262 206.5 306.062 199.4C305.662 196.8 305.162 194.1 304.662 191.1C300.462 164.4 294.062 124.2 262.962 124.2C262.562 124.2 262.262 124.2 261.862 124.2C223.462 125.4 177.962 139.8 145.862 161C119.462 178.4 117.662 202.5 117.962 227.8C118.162 244.8 113.562 261.8 108.562 279.7C102.562 301.5 96.2617 324.1 99.6617 346.6C102.062 363 110.562 376.7 124.262 386.4C136.862 395.4 153.062 400.1 169.862 399.8Z" fill="white"/>
<path d="M170.362 396C152.462 396 138.762 391 129.862 381C109.962 358.8 115.462 315.7 119.862 281.1C121.462 268.3 123.062 256.1 123.162 246.6C123.262 231.9 125.162 220.6 129.262 211C133.962 199.9 141.562 190.9 152.662 183.6C179.962 165.5 216.862 154.3 249.062 154.2H249.162C280.862 154.2 288.062 191.5 292.762 216.2L293.362 219.5C301.762 262.4 306.462 301.5 307.562 335.7C307.862 346.9 304.162 356.7 296.462 364.9C271.862 390.9 213.962 395.1 172.562 396C171.762 396 171.062 396 170.362 396ZM249.062 155.1C216.962 155.2 180.162 166.4 153.062 184.4C127.762 201.2 124.162 225.2 124.062 246.6C123.962 256.2 122.462 268.3 120.762 281.2C116.362 315.6 110.862 358.5 130.462 380.3C139.562 390.4 153.662 395.4 172.362 395C190.962 394.6 212.862 393.7 234.962 389.8C263.762 384.8 284.162 376.2 295.462 364.2C303.062 356.2 306.662 346.7 306.362 335.7C305.362 301.6 300.562 262.5 292.162 219.6L291.562 216.3C286.762 190.5 279.962 155.1 249.062 155.1Z" fill="white"/>
<path d="M177.062 391.4C176.362 391.4 175.762 391.4 175.162 391.4C159.962 391.3 148.162 386.8 140.162 378.1C122.162 358.5 125.162 321 127.562 290.8C128.262 281.7 128.962 273.1 128.962 265.9C129.062 246.4 136.162 229.5 150.062 215.8C169.362 196.8 200.762 185.5 234.262 185.5C234.762 185.5 235.362 185.5 235.862 185.5C263.862 185.8 272.462 213.6 278.362 239.7C285.562 271.7 289.362 305.2 289.362 336.5C289.362 347.8 285.362 357.5 277.362 365.4C254.862 387.8 205.662 391.4 177.062 391.4ZM175.162 390.3C203.262 390.5 253.862 387.3 276.662 364.7C284.462 357 288.362 347.5 288.362 336.5C288.362 305.2 284.562 271.8 277.362 239.9C271.562 214.2 263.162 186.7 235.862 186.5C202.062 186.1 170.162 197.4 150.762 216.5C137.062 230 130.062 246.6 129.962 265.8C129.962 273 129.262 281.6 128.562 290.8C126.162 320.8 123.262 358.1 140.962 377.4C148.662 385.9 160.262 390.3 175.162 390.3Z" fill="white"/>
<path d="M181.562 386.5C180.262 386.5 178.962 386.5 177.762 386.5C166.262 386.3 157.062 382.5 150.162 375.4C132.962 357.4 133.962 321.8 134.762 295.8C134.862 291.8 134.962 288 134.962 284.6C135.062 268.7 141.462 254.1 153.462 242.3C169.862 226.3 195.862 216.4 221.662 216.4C222.062 216.4 222.562 216.4 222.962 216.4C242.762 216.7 256.662 233.3 264.462 265.8C268.962 284.9 271.262 309.7 271.162 337.3C271.062 347.8 267.262 356.9 259.662 364.2C242.762 380.7 208.962 386.5 181.562 386.5ZM221.762 217.4C196.262 217.4 170.462 227.2 154.262 243C142.462 254.6 136.162 269 136.062 284.6C136.062 288 135.962 291.8 135.862 295.8C135.162 321.6 134.162 356.9 151.062 374.7C157.662 381.7 166.762 385.3 177.962 385.5C205.762 386.1 241.662 380.6 259.162 363.6C266.562 356.4 270.262 347.6 270.362 337.4C270.562 309.8 268.262 285.2 263.762 266.1C256.162 234.1 242.462 217.7 223.262 217.4C222.562 217.4 222.162 217.4 221.762 217.4Z" fill="white"/>
<path d="M184.062 380.9C182.762 380.9 181.462 380.9 180.162 380.8C142.162 379.4 141.862 325.1 141.762 301.9C141.662 289.6 146.862 277.9 156.662 268.1C170.062 254.7 191.262 246.1 210.862 246.1C210.962 246.1 211.062 246.1 211.162 246.1C218.862 246.1 225.662 249.2 231.462 255.1C249.362 273.4 253.562 315.8 253.262 338C253.062 347.5 249.462 355.7 242.362 362.4C228.762 375.4 203.962 380.9 184.062 380.9ZM180.262 379.8C200.562 380.6 227.362 375.3 241.662 361.7C248.562 355.2 252.162 347.2 252.262 338C252.362 333.2 252.262 315.9 248.562 296.8C244.862 277.8 238.862 264.1 230.862 255.8C225.262 250.1 218.662 247.2 211.262 247.1C191.862 247 170.762 255.5 157.462 268.8C147.862 278.4 142.862 289.8 142.862 301.9C142.962 324.8 143.162 378.4 180.262 379.8Z" fill="white"/>
<path d="M184.762 373.9C183.962 373.9 183.162 373.9 182.362 373.8C156.262 372.7 149.662 336.2 149.762 317C149.862 306.7 154.662 296.5 163.262 288.4C173.562 278.7 187.562 273.4 200.862 274C227.662 275.4 236.362 313.4 235.662 338.6C235.462 346.7 232.162 353.8 225.862 359.6C215.162 369.7 197.962 373.9 184.762 373.9ZM198.662 275C186.262 275 173.462 280.2 163.962 289.2C155.562 297.2 150.862 307.1 150.762 317.1C150.662 335.9 157.062 371.8 182.362 372.9C195.662 373.5 214.062 369.4 225.162 359C231.262 353.4 234.362 346.5 234.662 338.7C235.362 313.9 226.962 276.4 200.862 275.1C200.062 275 199.362 275 198.662 275Z" fill="white"/>
<path d="M185.862 365.2C185.162 365.2 184.562 365.2 183.962 365.1C174.462 364.5 168.562 357.6 165.362 351.8C161.562 345.1 159.362 336.6 159.262 329C159.262 322.3 162.262 315.6 167.862 310C174.562 303.3 184.062 299.3 192.662 299.4C197.962 299.5 202.762 301.6 206.762 305.9C214.662 314.1 218.562 328.9 218.362 339.3C218.262 345.6 215.462 351.3 210.462 356C204.262 361.6 194.762 365.2 185.862 365.2ZM192.462 300.4C184.162 300.4 175.062 304.4 168.662 310.8C163.262 316.1 160.262 322.6 160.362 329.1C160.362 336.5 162.662 345 166.262 351.4C169.362 356.9 175.062 363.6 184.062 364.2C193.262 364.8 203.362 361.2 209.962 355.2C214.762 350.8 217.362 345.3 217.562 339.3C217.762 329.1 213.962 314.7 206.262 306.7C202.362 302.7 197.862 300.6 192.862 300.6C192.662 300.4 192.562 300.4 192.462 300.4Z" fill="white"/>
<path d="M185.562 354C185.362 354 185.262 354 185.062 354C176.662 353.8 170.862 344.7 170.862 336.8C170.862 332.8 172.562 329 175.662 326.1C178.862 323 183.262 321.2 187.462 321.3C194.562 321.5 202.162 328.5 201.962 339.5C201.862 343.3 200.362 346.7 197.562 349.4C194.362 352.4 190.062 354 185.562 354ZM187.062 322.3C183.262 322.3 179.262 324 176.362 326.8C173.562 329.6 171.962 333.1 171.862 336.8C171.762 346.2 178.762 352.9 185.062 353C189.462 353.1 193.762 351.5 196.762 348.6C199.362 346.1 200.762 342.9 200.862 339.4C201.062 331.3 195.662 322.4 187.362 322.2C187.262 322.3 187.162 322.3 187.062 322.3Z" fill="white"/>
</svg>
