<svg width="446" height="345" viewBox="0 0 446 345" fill="none" xmlns="http://www.w3.org/2000/svg">
<path d="M280.953 344.431C262.453 344.431 243.953 340.131 229.853 336.731C198.553 329.331 168.153 321.731 141.353 309.531C137.253 307.631 133.253 305.731 129.353 303.931C115.153 297.131 101.653 290.731 86.3527 286.931C79.3527 285.131 71.6527 284.031 63.5527 282.831C46.3527 280.331 28.5527 277.731 15.4527 268.331C-7.44733 252.031 0.552665 216.131 5.35266 194.731C17.5527 139.731 39.6527 99.8313 74.8527 69.3313C110.653 38.3313 156.053 24.1314 200.053 10.4314C204.053 9.23135 207.953 7.93135 211.953 6.73135C237.553 -1.36865 258.253 -0.668651 286.953 1.23135C292.153 1.53135 297.353 1.73135 302.453 1.93135C325.953 2.63135 348.053 3.33135 366.453 21.7313C384.853 40.1313 391.853 65.6313 398.653 90.4314C400.453 97.1313 402.353 103.931 404.453 110.531C408.953 124.831 415.353 138.731 421.553 152.131C427.053 164.031 432.753 176.431 437.053 189.031C445.153 212.431 452.053 241.531 433.353 259.531C423.753 268.731 410.953 274.931 398.553 280.931C390.553 284.831 382.253 288.831 375.053 293.531C366.753 299.031 358.953 305.731 351.453 312.231C340.553 321.631 329.253 331.431 316.253 337.631C305.153 342.531 293.053 344.431 280.953 344.431ZM257.953 0.831347C242.453 0.831347 228.253 2.43135 212.053 7.53135C208.053 8.73135 204.153 10.0313 200.153 11.2313C156.353 24.9313 110.953 39.0313 75.3527 69.9314C40.2527 100.331 18.3527 140.031 6.15266 194.831C1.45266 216.031 -6.44733 251.531 15.9527 267.431C28.8527 276.631 46.5527 279.231 63.6527 281.731C71.7527 282.931 79.4527 284.031 86.5527 285.831C101.953 289.731 115.453 296.131 129.753 302.931C133.653 304.831 137.753 306.731 141.753 308.531C168.553 320.731 198.853 328.331 230.153 335.731C260.853 342.931 290.553 348.431 315.753 336.331C328.653 330.131 339.853 320.431 350.753 311.131C358.353 304.631 366.153 297.831 374.453 292.331C381.653 287.531 389.953 283.531 398.053 279.631C410.353 273.631 423.153 267.531 432.653 258.331C450.953 240.731 444.053 212.031 436.053 188.931C431.753 176.431 426.053 164.131 420.553 152.131C414.353 138.631 407.953 124.731 403.453 110.431C401.353 103.931 399.453 97.0313 397.653 90.3313C390.853 65.7313 383.853 40.3314 365.753 22.1313C347.553 4.13135 325.553 3.43135 302.353 2.73135C297.253 2.53135 292.053 2.43135 286.853 2.03135C276.353 1.43135 266.953 0.831347 257.953 0.831347Z" fill="white"/>
<path d="M275.952 331.231C261.152 331.231 245.952 328.231 231.152 324.631C201.152 317.231 177.052 308.631 157.352 298.331L155.252 297.231C139.752 289.131 125.052 281.431 107.652 277.031C100.852 275.331 93.5525 274.231 85.7524 273.031C70.1525 270.631 54.0525 268.231 41.3525 260.531C23.2525 249.631 17.0524 227.131 22.8524 193.531C31.3524 144.431 51.9525 106.331 85.5525 77.1313C116.052 50.6313 154.852 37.0313 192.452 23.8313C198.652 21.6313 205.152 19.3313 211.452 17.1313C233.252 9.23133 259.152 5.13133 282.452 5.93133C302.352 6.63133 329.952 11.3313 348.252 29.7313C364.652 46.2313 372.452 68.3313 380.052 89.8313C382.252 96.0313 384.452 102.331 386.852 108.431C391.052 119.131 396.052 129.731 400.752 140.031C407.652 155.031 414.852 170.531 420.052 186.531C427.452 209.231 432.852 234.631 417.752 251.631C408.952 261.431 395.952 268.131 383.452 274.631C376.452 278.231 369.952 281.631 364.052 285.531C356.952 290.231 350.152 295.831 343.452 301.231C333.052 309.731 322.252 318.531 310.252 324.231C299.552 329.231 287.852 331.231 275.952 331.231ZM231.452 323.631C257.952 330.131 285.852 334.631 309.952 323.231C321.952 317.631 332.652 308.831 342.952 300.431C349.652 295.031 356.552 289.331 363.652 284.631C369.552 280.731 376.152 277.331 383.152 273.731C395.552 267.331 408.452 260.731 417.152 251.031C431.952 234.531 426.552 209.331 419.252 186.931C414.052 170.931 406.852 155.431 399.952 140.531C395.152 130.231 390.252 119.631 386.052 108.831C383.652 102.731 381.352 96.3313 379.252 90.2313C371.752 68.9313 363.952 46.8313 347.652 30.5313C329.552 12.3313 302.252 7.63133 282.552 6.93133C259.352 6.13133 233.652 10.1313 211.952 18.0313C205.652 20.3313 199.252 22.5313 192.952 24.7313C155.452 37.9313 116.752 51.5313 86.3525 77.8313C52.8525 106.931 32.4525 144.831 23.9525 193.631C18.1525 226.731 24.2524 248.931 41.9524 259.631C54.4524 267.131 70.4525 269.631 85.9525 271.931C93.7525 273.131 101.052 274.231 107.952 275.931C125.552 280.331 140.252 288.031 155.752 296.131L157.852 297.231C177.452 307.631 201.552 316.231 231.452 323.631Z" fill="white"/>
<path d="M271.153 316.531C260.253 316.531 248.153 314.731 234.753 311.031C216.153 305.931 199.353 297.031 183.153 288.331C167.053 279.731 150.353 270.731 132.053 265.831C125.453 264.031 118.653 262.831 111.353 261.531C97.1528 258.931 82.5528 256.331 70.2528 249.531C45.9528 236.131 43.5528 207.031 44.2528 190.931C46.1528 149.531 62.9528 116.131 95.7528 88.8313C124.753 64.6313 162.453 47.9313 198.953 31.8313C202.953 30.0313 206.953 28.2313 210.953 26.5313C248.053 9.93126 299.053 3.43126 330.953 34.7313C345.553 49.0313 353.853 68.2313 361.853 86.8313C363.853 91.4313 365.953 96.3313 368.053 100.931C370.353 105.931 372.753 110.931 375.053 115.931C385.053 137.131 395.353 159.031 401.953 181.331C408.353 202.831 413.853 227.331 398.553 245.431C390.753 254.731 378.853 261.231 367.353 267.631C361.953 270.631 356.853 273.431 352.153 276.531C346.453 280.331 340.653 284.731 335.153 288.931C323.953 297.531 312.453 306.331 299.653 311.531C291.153 314.831 281.753 316.531 271.153 316.531ZM271.853 13.6313C250.953 13.6313 229.553 19.3313 211.353 27.4313C207.353 29.2313 203.353 31.0313 199.353 32.7313C125.553 65.4313 49.3528 99.1312 45.2528 190.931C44.5528 206.831 46.9528 235.531 70.8528 248.631C82.9528 255.331 97.5528 257.931 111.653 260.531C118.553 261.831 125.753 263.131 132.353 264.831C150.753 269.731 167.453 278.731 183.653 287.431C199.853 296.131 216.553 305.031 235.053 310.031C261.253 317.131 282.353 317.231 299.353 310.431C312.053 305.331 323.553 296.531 334.653 288.031C340.253 283.731 345.953 279.331 351.753 275.531C356.453 272.431 361.553 269.631 366.953 266.631C378.353 260.331 390.153 253.831 397.853 244.631C412.853 226.931 407.353 202.731 401.053 181.431C394.453 159.131 384.153 137.331 374.253 116.131C371.953 111.131 369.553 106.131 367.253 101.131C365.153 96.5313 363.053 91.7313 361.053 87.0313C353.153 68.5313 344.853 49.4313 330.353 35.2313C314.253 19.6313 293.353 13.6313 271.853 13.6313Z" fill="white"/>
<path d="M263.353 300.431C255.953 300.431 248.153 299.231 239.753 296.631C224.353 291.831 211.353 283.231 198.753 274.931C186.353 266.731 173.453 258.231 158.353 253.531C152.853 251.831 147.253 250.231 141.753 248.731C108.153 239.431 73.4529 229.731 68.0529 187.131C63.8529 154.231 74.4529 126.231 100.453 101.631C123.153 80.1313 153.453 64.5313 182.853 49.4313C192.553 44.4313 201.653 39.7313 210.353 34.9313C253.253 11.0313 288.353 11.6313 314.553 36.7313C351.453 72.0313 373.053 137.531 382.653 173.431C388.953 197.031 392.853 221.231 378.553 238.231C371.453 246.631 361.053 252.831 350.853 258.831C346.653 261.331 342.753 263.631 339.053 266.031C336.153 267.931 333.353 269.831 330.553 271.731C308.253 286.931 288.453 300.431 263.353 300.431ZM267.253 18.5313C250.353 18.5313 231.453 24.3313 210.653 35.8313C201.953 40.6313 192.853 45.3313 183.153 50.3313C125.253 80.1313 59.5529 113.831 68.9529 186.931C74.3529 228.931 107.153 238.031 141.953 247.731C147.453 249.231 153.153 250.831 158.653 252.531C173.853 257.231 186.753 265.831 199.253 274.031C211.753 282.331 224.753 290.931 240.053 295.631C276.953 307.031 301.553 290.331 329.953 270.931C332.753 269.031 335.553 267.131 338.453 265.231C342.153 262.731 346.053 260.431 350.253 257.931C360.353 252.031 370.653 245.831 377.653 237.531C391.653 220.831 387.753 196.931 381.553 173.631C371.953 137.831 350.453 72.5313 313.753 37.4313C300.453 24.8313 284.953 18.5313 267.253 18.5313Z" fill="white"/>
<path d="M262.853 284.831C257.253 284.831 251.553 283.831 245.553 281.631C233.353 277.131 224.053 269.031 215.053 261.031C206.153 253.231 196.953 245.031 184.753 240.531C178.453 238.231 171.753 236.031 165.253 233.931C135.353 224.331 104.553 214.331 93.0529 182.531C82.2529 152.631 91.1529 125.531 119.353 102.131C127.953 94.9312 137.153 89.9312 146.853 84.6312C150.353 82.7312 153.953 80.7312 157.553 78.7312C169.453 71.8312 180.853 63.4312 191.853 55.4312C197.553 51.2312 203.453 46.9312 209.253 42.9312C227.153 30.5312 240.953 24.1312 253.853 22.1312C270.453 19.5312 285.153 24.4312 298.853 37.1312C335.753 71.3312 354.453 131.531 362.353 164.331C367.553 185.931 371.253 210.231 360.053 227.131C353.753 236.631 343.253 243.231 332.953 249.731C330.153 251.531 327.453 253.231 324.953 254.931C322.053 256.931 319.053 259.031 316.153 261.031C299.453 272.831 282.453 284.831 262.853 284.831ZM262.153 22.3312C244.353 22.3312 226.653 32.1312 209.753 43.7312C203.853 47.7312 198.053 52.0312 192.353 56.2312C181.353 64.3312 169.953 72.6312 157.953 79.6312C154.353 81.7312 150.753 83.6312 147.253 85.6312C137.553 90.9312 128.453 95.9312 119.853 103.031C92.0529 126.131 83.3529 152.831 93.8529 182.331C105.153 213.731 135.753 223.631 165.353 233.131C171.853 235.231 178.653 237.431 184.953 239.731C197.253 244.331 206.553 252.531 215.553 260.431C224.453 268.231 233.653 276.431 245.753 280.831C272.553 290.631 294.353 275.231 315.353 260.431C318.253 258.431 321.253 256.231 324.153 254.231C326.653 252.531 329.353 250.831 332.153 249.031C342.253 242.631 352.753 236.031 358.953 226.731C369.953 210.131 366.253 186.031 361.153 164.731C353.353 132.031 334.653 72.0312 297.953 38.0312C286.153 26.7312 274.053 22.3312 262.153 22.3312Z" fill="white"/>
<path d="M263.253 269.431C259.353 269.431 255.353 268.631 251.453 266.631C242.553 262.131 236.753 254.731 231.153 247.631C225.353 240.231 219.353 232.531 209.753 227.931C200.153 223.331 189.853 219.831 179.953 216.431C155.953 208.231 133.353 200.531 118.453 178.031C101.953 153.031 106.053 130.431 130.653 110.731C141.453 102.131 152.653 93.8313 163.453 85.7313C178.253 74.7313 193.653 63.2313 208.253 50.9313C230.853 31.7313 257.153 13.3313 284.453 37.1313C302.553 52.8313 327.153 86.0313 341.853 155.131C349.653 191.531 345.353 206.831 340.153 216.931C334.753 227.431 324.753 234.231 315.053 240.731C313.553 241.731 312.053 242.731 310.553 243.831C307.753 245.731 304.853 248.031 301.753 250.431C290.453 259.031 276.953 269.431 263.253 269.431ZM257.253 26.8313C240.053 26.8313 223.653 39.0313 208.853 51.6313C194.253 64.0313 178.953 75.4313 164.053 86.5313C153.253 94.5313 142.053 102.931 131.253 111.531C106.853 131.031 102.953 152.631 119.253 177.431C133.953 199.731 156.353 207.331 180.253 215.431C190.253 218.831 200.553 222.331 210.153 227.031C219.953 231.731 226.053 239.531 231.853 247.031C237.653 254.431 243.053 261.331 251.753 265.731C268.753 274.331 286.653 260.631 301.053 249.531C304.153 247.131 307.153 244.831 309.953 242.931C311.453 241.931 312.953 240.931 314.453 239.831C324.053 233.331 333.953 226.631 339.253 216.331C348.353 198.531 345.153 175.431 340.853 155.231C332.753 117.231 316.253 66.0313 283.753 37.7313C274.853 29.9313 265.953 26.8313 257.253 26.8313Z" fill="white"/>
<path d="M263.853 254.131C261.353 254.131 259.053 253.431 256.953 251.731C251.253 247.231 248.253 241.131 245.253 235.231C241.853 228.331 238.253 221.231 230.553 216.331C218.553 208.831 205.353 204.131 192.653 199.531C175.353 193.331 157.553 186.931 143.353 173.731C132.653 163.731 127.153 153.131 127.653 143.131C128.053 134.331 132.853 126.231 142.053 119.231C165.153 101.331 184.553 82.2312 207.453 59.1312C221.253 45.2312 246.853 19.4312 271.653 38.6312C294.353 56.2312 311.753 93.5312 322.053 146.531C328.853 182.031 327.253 210.331 297.253 233.331C295.753 234.531 293.853 236.131 291.653 238.031C283.753 244.631 272.953 254.131 263.853 254.131ZM252.753 32.7312C234.953 32.7312 218.253 49.5312 208.053 59.7312C185.153 82.8312 165.753 101.931 142.553 119.831C133.653 126.731 128.953 134.531 128.553 143.031C128.153 152.831 133.453 163.131 143.953 172.931C158.053 186.031 175.053 192.131 192.953 198.531C205.753 203.131 219.053 207.931 231.053 215.431C239.053 220.431 242.653 227.731 246.153 234.731C249.153 240.831 252.053 246.531 257.553 250.931C266.753 258.231 281.253 245.531 290.853 237.131C293.053 235.231 294.953 233.531 296.553 232.331C326.153 209.631 327.753 181.631 320.953 146.531C310.753 93.8312 293.453 56.7312 270.953 39.2312C264.853 34.6312 258.753 32.7312 252.753 32.7312Z" fill="white"/>
<path d="M264.152 238.731C264.052 238.731 263.952 238.731 263.852 238.731C262.752 238.631 261.952 238.231 261.352 237.531C258.752 234.331 257.352 230.131 255.852 225.831C253.652 219.231 251.252 212.431 244.452 207.131C232.752 198.231 217.852 192.631 203.452 187.331C190.552 182.531 177.252 177.531 166.252 170.231C153.652 161.731 146.952 153.631 145.952 145.331C145.252 139.331 147.552 133.231 152.952 127.231C158.252 121.331 163.652 115.531 168.952 109.731C181.452 96.1315 194.352 82.0314 206.652 67.9314C218.752 54.1314 238.952 30.9314 260.052 44.7314C279.452 57.4314 293.852 89.3315 302.752 139.431C305.952 157.231 306.552 171.431 304.752 184.031C302.452 200.431 296.052 213.531 285.352 224.131C279.752 229.631 269.652 238.731 264.152 238.731ZM246.552 41.4314C230.952 41.4314 216.652 57.7314 207.352 68.4314C195.052 82.5314 182.152 96.6314 169.652 110.331C164.352 116.131 158.952 122.031 153.652 127.831C148.452 133.531 146.152 139.331 146.852 145.131C147.852 153.031 154.552 161.231 166.752 169.331C177.652 176.631 190.952 181.531 203.752 186.331C218.252 191.731 233.252 197.331 245.052 206.331C252.152 211.731 254.652 219.031 256.852 225.431C258.352 229.731 259.652 233.731 262.252 236.831C262.652 237.331 263.252 237.631 264.052 237.631C267.652 237.831 275.452 232.431 284.752 223.331C308.952 199.431 306.652 165.931 301.952 139.431C293.052 89.5314 278.852 57.9314 259.652 45.4314C255.152 42.6314 250.752 41.4314 246.552 41.4314Z" fill="white"/>
<path d="M264.953 224.931C264.553 224.931 264.253 224.731 264.053 224.531C255.553 211.831 209.553 180.431 186.253 168.131C171.653 160.431 157.653 150.131 165.553 132.631C171.953 118.431 184.253 103.831 195.153 90.9314C199.053 86.2314 202.753 81.9314 206.053 77.6314C216.153 64.7314 231.453 45.3314 249.853 57.0314C271.953 71.1314 280.453 108.331 284.853 135.031C290.353 168.031 287.453 193.531 276.153 212.831C273.853 216.931 267.453 224.831 264.953 224.931ZM238.553 54.4314C225.653 54.4314 214.753 68.3314 206.953 78.2314C203.653 82.4314 199.953 86.8314 195.953 91.5314C185.153 104.431 172.853 118.931 166.553 133.031C158.953 149.731 172.553 159.731 186.753 167.231C210.153 179.531 256.353 211.231 264.853 224.031C265.853 224.431 271.953 218.231 275.353 212.531C286.553 193.431 289.353 168.231 283.953 135.431C279.553 108.831 271.153 71.9314 249.353 58.0314C245.653 55.4314 242.053 54.4314 238.553 54.4314Z" fill="white"/>
<path d="M264.853 212.931L264.553 212.731C263.653 212.231 260.453 209.631 255.653 205.831C241.453 194.631 214.953 173.931 202.553 167.431C191.053 161.331 184.353 154.031 182.253 145.131C178.153 127.631 193.053 107.031 206.253 88.9313L206.353 88.7313C215.753 75.8313 225.153 70.3313 234.153 72.4313C252.653 76.7313 265.553 112.631 269.253 134.331C270.253 140.331 269.053 163.731 268.153 177.131C268.153 177.431 265.953 212.131 265.053 212.731L264.853 212.931ZM230.353 73.0313C222.853 73.0313 215.053 78.5313 207.153 89.4313L207.053 89.6313C194.053 107.531 179.253 127.931 183.253 145.031C185.253 153.631 191.753 160.731 202.953 166.731C215.353 173.231 241.953 194.131 256.153 205.231C260.053 208.331 263.053 210.631 264.453 211.631C265.453 204.631 269.953 144.431 268.253 134.631C264.553 113.231 251.953 77.7313 233.853 73.5313C232.753 73.1313 231.553 73.0313 230.353 73.0313Z" fill="white"/>
<path d="M261.153 199.531L260.953 199.431C260.653 199.231 228.753 174.331 214.453 165.431C204.453 159.131 198.453 151.131 196.753 141.431C194.653 129.531 199.253 115.531 209.853 102.031C216.453 93.6313 223.053 90.0313 229.553 91.5313C235.953 92.9313 242.153 99.3313 247.753 109.931C253.653 121.231 256.553 132.931 257.253 136.231C261.353 154.431 262.753 197.531 261.753 199.231L261.653 199.431L261.153 199.531ZM226.753 92.2313C221.453 92.2313 216.053 95.7313 210.653 102.631C200.253 115.931 195.753 129.631 197.753 141.231C199.453 150.631 205.253 158.431 214.953 164.531C228.153 172.831 256.353 194.531 260.853 198.031C261.353 192.431 260.353 154.731 256.153 136.331C252.553 120.331 242.453 95.3313 229.253 92.4313C228.553 92.3313 227.653 92.2313 226.753 92.2313Z" fill="white"/>
<path d="M254.353 184.431C252.053 184.431 244.653 178.831 230.053 167.031C227.553 165.031 225.253 163.131 223.253 161.631C208.853 150.331 205.953 130.731 216.653 117.131C220.253 112.531 224.053 110.631 228.053 111.331C238.253 113.231 246.353 132.631 248.553 139.931C250.153 145.131 252.053 154.931 253.653 166.031C256.153 183.631 255.153 184.131 254.853 184.231C254.653 184.431 254.553 184.431 254.353 184.431ZM226.353 112.231C223.253 112.231 220.253 114.131 217.353 117.831C207.053 131.031 209.853 149.931 223.853 160.931C225.853 162.531 228.153 164.331 230.653 166.331C238.653 172.831 251.953 183.531 254.253 183.531C254.753 180.731 251.153 151.831 247.553 140.331C245.353 133.131 237.453 114.131 227.753 112.431C227.253 112.231 226.853 112.231 226.353 112.231Z" fill="white"/>
<path d="M244.653 168.431C244.553 168.431 244.453 168.431 244.353 168.431C241.253 168.131 235.353 163.431 229.753 156.631C223.053 148.531 221.153 138.431 225.453 133.531C226.753 132.031 228.253 131.431 230.053 131.731C234.053 132.331 238.553 137.431 241.753 145.031C245.853 154.631 248.553 165.931 245.953 168.131C245.653 168.331 245.253 168.431 244.653 168.431ZM229.253 132.631C228.053 132.631 227.053 133.131 226.153 134.131C222.353 138.631 224.253 148.431 230.553 155.931C235.853 162.331 241.653 167.131 244.453 167.431C244.853 167.431 245.153 167.431 245.353 167.231C246.853 166.031 245.853 157.031 240.853 145.331C237.853 138.231 233.553 133.231 229.953 132.631C229.753 132.631 229.453 132.631 229.253 132.631Z" fill="white"/>
</svg>
