<svg width="385" height="368" viewBox="0 0 385 368" fill="none" xmlns="http://www.w3.org/2000/svg">
<path d="M374.368 218.578C372.368 210.978 370.468 203.678 368.968 196.778C366.868 187.178 365.068 177.378 363.168 166.878C354.868 121.278 345.368 69.5782 309.268 38.8782C309.168 38.7782 309.068 38.6782 308.968 38.5782C274.568 9.57823 227.368 8.27823 181.668 7.07823C169.568 6.77823 158.068 6.47823 146.868 5.57823C139.768 5.07823 132.668 4.07823 125.068 3.07823C94.1679 -1.02177 62.1679 -5.32177 40.4679 20.8782C24.8679 39.6782 12.4679 65.6782 5.66786 94.1782C-1.23214 122.978 -1.83214 151.678 3.86786 175.178C9.26786 196.978 21.4679 214.378 36.6679 229.678C36.6679 233.978 37.0679 238.378 37.8679 242.678C37.2679 246.678 37.1679 250.878 37.5679 255.278C37.6679 256.778 37.8679 258.278 38.0679 259.778C38.1679 263.478 38.2679 267.278 38.5679 270.978C38.4679 275.778 39.0679 280.978 40.3679 286.478C40.4679 287.378 40.6679 288.278 40.8679 289.078C40.1679 297.278 42.4679 306.178 45.9679 314.178C47.4679 323.078 52.2679 332.078 57.5679 336.578C57.6679 336.678 57.7679 336.778 57.8679 336.878C63.1679 341.178 72.9679 345.478 82.2679 345.778C90.5679 348.378 99.6679 349.678 107.568 347.978C108.368 348.078 109.168 348.078 109.868 348.178C115.168 348.978 120.968 349.178 126.668 348.278C129.768 348.178 132.868 347.978 135.968 347.678C138.868 347.878 141.768 347.878 144.568 347.578C148.068 347.278 151.468 346.678 154.568 345.778C160.968 346.278 167.668 346.178 174.268 344.778C189.868 355.178 206.768 363.078 225.868 366.178C271.568 373.578 337.968 358.378 369.968 320.278C393.768 292.178 383.468 253.078 374.368 218.578ZM308.368 39.4782C308.468 39.5782 308.568 39.6782 308.668 39.6782C343.568 69.2782 353.368 118.678 361.568 163.078L361.468 162.878C356.468 164.478 351.468 166.178 346.568 168.078C338.668 124.878 329.468 76.7782 299.168 51.1782L299.068 51.0782C269.668 26.3782 222.268 24.8782 180.568 23.5782C179.468 23.5782 178.468 23.4782 177.468 23.4782C178.368 18.3782 179.068 13.1782 179.668 7.97823C180.368 7.97823 181.068 7.97823 181.768 8.07823C227.168 9.37823 274.268 10.6782 308.368 39.4782ZM346.068 170.978C347.968 181.378 349.768 191.178 351.768 200.578C353.168 206.878 354.968 213.578 356.868 220.778C364.968 250.878 375.068 288.278 354.668 312.278C344.068 324.778 328.968 335.578 311.168 343.478C306.868 341.278 302.368 339.478 297.768 337.978C313.168 330.778 326.668 321.078 336.468 309.478C355.168 287.278 345.968 251.578 338.468 222.878C336.868 216.878 335.468 211.178 334.368 206.078C332.668 198.278 331.068 190.078 329.468 181.378C329.168 179.878 328.868 178.378 328.568 176.878C334.268 174.278 339.968 171.778 345.768 169.478C345.868 169.978 345.968 170.578 346.068 170.978ZM110.768 347.378C110.668 347.378 110.668 347.378 110.568 347.378C112.668 346.678 114.668 345.678 116.568 344.478C120.468 345.578 124.368 346.478 128.268 347.078C127.368 347.278 126.468 347.378 125.568 347.578C120.568 347.578 115.568 347.578 110.768 347.378ZM82.3679 344.878C77.9679 343.478 73.8679 341.778 70.2679 339.978C71.0679 339.978 71.7679 340.078 72.5679 339.978C73.7679 339.878 74.8679 339.678 75.8679 339.278C79.5679 341.478 83.5679 343.278 87.8679 344.578C86.0679 344.878 84.1679 344.978 82.3679 344.878ZM46.4679 308.478C48.2679 312.478 50.3679 316.178 52.9679 319.378C52.5679 321.078 52.6679 322.978 53.0679 324.978C50.8679 321.678 48.7679 318.078 47.0679 314.278C46.5679 312.278 46.4679 310.378 46.4679 308.478ZM37.8679 223.678C38.1679 225.078 38.3679 226.478 38.7679 227.878C38.7679 228.678 38.6679 229.578 38.6679 230.378C38.3679 230.078 37.9679 229.678 37.6679 229.378C37.6679 227.478 37.7679 225.578 37.8679 223.678ZM328.468 181.578C330.168 190.278 331.668 198.478 333.368 206.378C334.468 211.578 335.968 217.278 337.468 223.278C344.868 251.778 354.068 287.178 335.668 308.978C325.768 320.778 311.968 330.478 296.268 337.678C291.168 336.178 285.968 335.178 280.568 334.478C293.668 328.178 305.268 319.678 313.768 309.578C331.568 288.378 323.368 254.478 316.768 227.278C315.668 222.678 314.568 218.378 313.768 214.278C312.568 208.978 311.468 203.478 310.368 197.678C309.668 194.278 308.968 190.778 308.268 187.278C314.668 183.778 321.168 180.478 327.768 177.478C327.868 178.778 328.168 180.178 328.468 181.578ZM41.6679 234.678C44.8679 237.678 48.0679 240.578 51.4679 243.378C49.7679 244.778 48.1679 246.278 46.7679 247.978C44.7679 243.678 43.0679 239.178 41.6679 234.678ZM153.468 325.978C153.968 324.678 154.368 323.278 154.668 321.878C156.068 322.978 157.568 324.078 158.968 325.078C159.168 325.178 159.268 325.378 159.468 325.478C163.368 328.778 167.268 331.878 171.368 334.878C171.168 335.078 170.968 335.278 170.868 335.378C164.768 332.878 159.068 329.578 153.468 325.978ZM140.668 316.878C136.168 312.778 131.668 308.678 127.268 304.578C126.568 303.878 125.768 303.278 125.068 302.578C126.568 301.678 127.968 300.778 129.368 299.878C135.068 305.278 140.968 310.678 147.168 315.878C149.368 317.678 151.568 319.478 153.768 321.278C153.468 322.678 153.068 324.078 152.568 325.478C148.568 322.778 144.568 319.878 140.668 316.878ZM152.268 326.378C152.168 326.478 152.168 326.678 152.068 326.778C151.068 325.878 150.068 325.078 149.068 324.178C150.168 324.978 151.168 325.678 152.268 326.378ZM56.5679 247.678C61.1679 251.478 65.8679 255.078 70.5679 258.778C72.4679 260.578 74.4679 262.278 76.4679 263.978C73.6679 263.578 70.8679 263.478 68.0679 263.678C63.7679 258.378 59.9679 253.078 56.5679 247.678ZM53.6679 242.978C53.9679 242.778 54.1679 242.578 54.4679 242.478C57.1679 245.578 59.9679 248.678 62.9679 251.578C60.2679 249.478 57.5679 247.278 54.9679 245.078C54.5679 244.378 54.0679 243.678 53.6679 242.978ZM37.3679 205.078C37.8679 207.378 38.4679 209.578 39.0679 211.878C38.8679 212.478 38.7679 212.978 38.5679 213.578C38.1679 212.878 37.7679 212.178 37.3679 211.378C37.2679 209.278 37.2679 207.178 37.3679 205.078ZM172.868 334.878C172.968 334.778 173.068 334.578 173.268 334.478C176.068 336.078 178.868 337.478 181.768 338.778C181.968 338.878 182.268 339.078 182.468 339.178C180.768 338.778 178.968 338.378 177.268 337.878C175.768 336.878 174.268 335.878 172.868 334.878ZM55.3679 241.878C56.3679 241.278 57.3679 240.678 58.4679 240.178C59.2679 240.878 60.0679 241.478 60.8679 242.078C67.9679 248.678 75.5679 254.878 83.1679 260.678C82.5679 262.078 81.9679 263.378 81.3679 264.778C80.7679 264.678 80.2679 264.478 79.6679 264.378C79.4679 264.178 79.1679 263.978 78.9679 263.778C76.4679 261.878 73.8679 259.878 71.3679 257.978C65.6679 252.878 60.2679 247.578 55.3679 241.878ZM41.3679 186.778C41.3679 185.478 41.4679 184.178 41.4679 182.778C44.3679 174.878 48.6679 167.378 54.4679 160.478C63.7679 149.378 79.1679 142.678 98.7679 141.078C110.368 140.178 122.368 140.978 134.068 143.078C131.668 148.378 129.268 153.878 126.968 159.178C124.868 163.978 122.768 168.778 120.668 173.678C110.568 171.578 100.068 170.678 90.1679 171.478C73.0679 172.978 59.7679 179.278 50.6679 190.178C46.3679 195.278 43.2679 200.678 40.9679 206.278C41.0679 203.478 41.1679 200.878 41.1679 198.478C41.2679 194.878 41.3679 190.878 41.3679 186.778ZM182.168 337.878C179.468 336.378 176.868 334.778 174.368 333.078C188.668 315.678 187.568 290.878 179.168 268.678C187.868 263.178 196.468 257.578 204.868 252.078C205.668 251.578 206.468 251.078 207.168 250.578C208.268 253.678 209.268 256.678 210.168 259.778C218.068 287.778 215.068 311.778 201.868 327.378C197.168 332.978 191.868 336.978 186.268 339.678C184.968 339.178 183.568 338.578 182.168 337.878ZM81.8679 265.978C88.5679 267.678 94.9679 270.578 100.468 274.078C102.468 275.678 104.468 277.278 106.368 278.778L102.968 282.778C96.2679 277.178 89.0679 271.578 81.8679 266.078C81.8679 266.078 81.8679 266.078 81.8679 265.978ZM59.5679 239.578C59.8679 239.478 60.1679 239.278 60.3679 239.178C68.0679 245.778 76.2679 251.878 84.2679 257.778C84.1679 257.978 84.0679 258.178 83.9679 258.378C83.9679 258.378 83.8679 258.378 83.8679 258.278C76.4679 252.878 68.7679 247.278 61.3679 241.278C60.8679 240.778 60.2679 240.178 59.5679 239.578ZM132.368 296.878C132.268 296.778 132.168 296.678 132.068 296.578C124.468 289.178 117.268 282.078 110.068 276.078C109.868 275.978 109.768 275.778 109.568 275.678C103.168 270.278 95.8679 264.978 88.0679 259.278C87.2679 258.678 86.3679 258.078 85.5679 257.378C85.6679 257.178 85.6679 257.078 85.7679 256.878C87.7679 252.378 89.5679 248.078 91.3679 243.878C92.2679 241.778 93.0679 239.678 93.9679 237.678C107.268 240.778 119.568 247.378 127.468 254.078C127.568 254.178 127.568 254.178 127.668 254.278C135.768 261.178 144.268 272.978 149.568 286.178C147.668 287.378 145.668 288.578 143.768 289.778C140.068 291.978 136.368 294.378 132.368 296.878ZM108.568 276.078L108.068 276.578C100.968 270.678 93.1679 264.878 84.8679 258.878C84.9679 258.678 85.0679 258.478 85.1679 258.278C85.9679 258.878 86.7679 259.478 87.5679 259.978C95.0679 265.578 102.268 270.878 108.568 276.078ZM128.268 253.578C128.168 253.478 128.168 253.478 128.068 253.378C120.168 246.678 107.768 240.078 94.3679 236.778C98.5679 226.778 102.968 216.678 107.268 206.678C123.068 210.278 138.868 217.778 150.068 227.178C150.168 227.178 150.168 227.278 150.268 227.378C161.268 236.778 171.668 251.678 178.068 268.178C168.868 274.078 159.668 279.878 150.468 285.578C145.068 272.278 136.468 260.478 128.268 253.578ZM93.3679 236.578C86.8679 235.078 80.1679 234.478 73.5679 235.078C68.8679 235.478 64.5679 236.478 60.6679 238.078C55.5679 233.678 50.6679 229.078 46.1679 224.178C46.9679 223.078 47.8679 221.978 48.7679 220.878C59.9679 207.878 78.0679 202.378 99.7679 205.478C101.968 205.778 104.168 206.178 106.368 206.678C101.868 216.478 97.5679 226.578 93.3679 236.578ZM73.6679 235.978C80.0679 235.378 86.6679 236.078 92.9679 237.478C92.0679 239.478 91.2679 241.478 90.4679 243.578C88.7679 247.778 86.8679 252.078 84.8679 256.578C84.8679 256.678 84.7679 256.778 84.7679 256.878C76.9679 251.178 69.0679 245.278 61.4679 238.878C65.1679 237.378 69.2679 236.378 73.6679 235.978ZM83.3679 259.078C83.4679 259.178 83.5679 259.178 83.6679 259.278C83.5679 259.378 83.5679 259.578 83.4679 259.678C80.2679 257.278 77.1679 254.778 73.9679 252.178C77.1679 254.578 80.2679 256.878 83.3679 259.078ZM84.4679 259.878C92.6679 265.878 100.468 271.578 107.468 277.378L107.168 277.678C105.368 276.178 103.268 274.578 100.868 273.078C97.5679 270.478 94.0679 267.778 90.4679 265.078C88.3679 263.478 86.3679 261.878 84.2679 260.278C84.3679 260.178 84.4679 260.078 84.4679 259.878ZM89.9679 265.878C91.6679 267.178 93.3679 268.478 94.9679 269.678C91.0679 267.678 86.7679 266.078 82.3679 264.878C82.8679 263.678 83.4679 262.378 83.9679 261.178C85.8679 262.878 87.9679 264.378 89.9679 265.878ZM107.068 279.478C108.568 280.778 110.068 282.078 111.568 283.378C115.968 288.078 120.068 294.178 123.068 300.778C116.668 294.878 110.168 288.978 103.668 283.478L107.068 279.478ZM109.268 276.778C116.368 282.778 123.668 289.778 131.268 297.278C131.368 297.378 131.368 297.378 131.468 297.478C131.268 297.578 131.168 297.678 130.968 297.778C123.368 290.478 116.168 283.478 108.868 277.378L109.268 276.778ZM132.168 298.178C139.168 305.078 146.468 312.078 154.268 318.778C154.268 319.078 154.168 319.378 154.168 319.678C146.868 313.178 139.868 306.378 133.168 299.878C132.668 299.378 132.268 298.978 131.768 298.478C131.868 298.378 132.068 298.278 132.168 298.178ZM133.068 297.578C136.968 295.078 140.568 292.778 144.268 290.578C146.168 289.378 148.068 288.278 149.868 287.078C152.368 293.678 154.168 300.578 154.668 307.378C154.968 310.978 154.868 314.378 154.368 317.578C146.968 311.078 139.868 304.278 133.068 297.578ZM155.668 307.378C155.168 300.378 153.368 293.278 150.768 286.578C159.968 280.878 169.268 274.978 178.368 269.178C186.668 291.078 187.668 315.478 173.568 332.478C167.268 328.178 161.168 323.378 155.368 318.378C155.868 314.978 155.968 311.278 155.668 307.378ZM204.368 251.178C195.968 256.578 187.468 262.178 178.768 267.678C172.368 251.178 161.868 236.078 150.768 226.678C150.668 226.578 150.668 226.578 150.568 226.478C139.468 217.078 123.768 209.378 107.568 205.678C110.468 198.978 113.468 192.278 116.368 185.678C117.968 182.078 119.568 178.378 121.168 174.778C142.268 179.278 162.068 189.078 173.968 199.078C173.968 199.078 174.068 199.078 174.068 199.178C187.168 210.278 199.468 229.278 206.968 249.578C206.068 250.078 205.268 250.678 204.368 251.178ZM174.768 198.478C174.668 198.378 174.668 198.378 174.768 198.478C162.768 188.378 142.868 178.578 121.668 173.978C123.768 169.178 125.868 164.478 127.968 159.678C130.268 154.278 132.768 148.778 135.168 143.378C160.768 148.078 184.468 158.678 197.868 169.978C198.068 170.178 198.268 170.278 198.468 170.478C212.968 182.978 226.868 206.078 235.468 231.178C230.568 234.378 225.568 237.678 220.668 240.778C216.368 243.478 212.168 246.278 207.868 249.078C200.268 228.678 187.868 209.578 174.768 198.478ZM51.3679 190.878C60.3679 180.178 73.3679 173.978 90.1679 172.478C99.9679 171.678 110.168 172.478 120.168 174.578C118.568 178.178 117.068 181.678 115.468 185.278C112.568 191.978 109.568 198.678 106.568 205.478C84.6679 200.778 61.8679 203.678 47.7679 220.078C46.8679 221.078 46.0679 222.178 45.2679 223.278C44.5679 222.478 43.8679 221.778 43.2679 220.978C43.0679 220.678 42.8679 220.478 42.7679 220.178C41.9679 217.878 41.1679 215.678 40.4679 213.378C40.5679 212.078 40.5679 210.778 40.6679 209.578C42.9679 203.178 46.4679 196.778 51.3679 190.878ZM40.5679 216.878C40.4679 216.778 40.4679 216.678 40.3679 216.578C40.3679 216.478 40.3679 216.378 40.3679 216.378C40.4679 216.478 40.5679 216.678 40.5679 216.878ZM39.4679 215.078C39.3679 214.978 39.3679 214.878 39.2679 214.778C39.3679 214.478 39.4679 214.178 39.4679 213.778C39.5679 214.278 39.4679 214.678 39.4679 215.078ZM59.5679 238.478C59.2679 238.578 59.0679 238.678 58.7679 238.878C55.9679 236.178 53.2679 233.378 50.7679 230.478C53.6679 233.178 56.5679 235.878 59.5679 238.478ZM102.268 283.578L102.068 283.778C98.8679 281.078 95.5679 278.378 92.0679 275.578C89.8679 273.778 87.6679 272.078 85.4679 270.178C91.2679 274.678 96.8679 279.078 102.268 283.578ZM103.068 284.178C109.868 289.978 116.768 296.278 123.468 302.378C120.968 300.178 118.468 297.978 115.968 295.778C111.468 291.778 107.168 287.878 102.868 284.378L103.068 284.178ZM116.668 287.978C119.568 290.678 122.568 293.478 125.568 296.278C126.568 297.278 127.668 298.178 128.668 299.178C127.268 300.078 125.968 300.878 124.568 301.778C122.468 296.778 119.768 292.078 116.668 287.978ZM126.268 295.578C121.468 291.078 116.768 286.678 112.268 282.678C110.868 281.078 109.368 279.678 107.968 278.378L108.268 278.078C115.468 284.178 122.668 291.078 130.168 298.278C129.968 298.378 129.768 298.478 129.668 298.578C128.468 297.578 127.368 296.578 126.268 295.578ZM130.868 298.978C131.368 299.478 131.968 299.978 132.468 300.478C136.768 304.678 141.268 308.978 145.868 313.278C140.568 308.678 135.368 303.978 130.368 299.278C130.468 299.278 130.668 299.078 130.868 298.978ZM154.968 320.478C155.068 320.178 155.068 319.878 155.168 319.578C155.768 320.078 156.368 320.678 157.068 321.178C161.668 325.078 166.468 328.778 171.468 332.278C167.468 329.878 163.468 327.278 159.668 324.478C158.068 323.078 156.568 321.778 154.968 320.478ZM172.268 333.878C172.168 333.978 172.068 334.078 171.968 334.178C170.868 333.378 169.768 332.578 168.768 331.778C169.968 332.578 171.168 333.278 172.268 333.878ZM202.768 327.978C216.168 312.078 219.268 287.778 211.268 259.478C210.368 256.278 209.368 253.078 208.168 249.978C212.468 247.178 216.768 244.378 221.168 241.578C225.968 238.478 230.868 235.278 235.768 232.078C236.868 235.378 237.868 238.578 238.768 241.878C251.268 287.378 239.368 311.278 231.168 321.378C225.968 327.778 220.068 332.778 213.368 336.478C211.568 336.678 209.768 336.878 207.968 337.178C203.868 337.678 199.968 338.178 196.168 338.578C193.868 338.878 191.468 339.178 188.868 339.478C193.768 336.778 198.468 332.978 202.768 327.978ZM231.868 322.078C240.168 311.778 252.268 287.678 239.668 241.678C238.768 238.278 237.668 234.878 236.568 231.578C238.368 230.378 240.068 229.278 241.768 228.178C247.868 224.178 253.968 220.178 260.168 216.178C261.868 222.978 263.468 229.878 264.968 236.778L265.068 237.078C270.368 261.578 277.568 295.078 259.868 315.978C253.268 323.778 245.968 329.778 237.768 334.078C230.268 334.678 222.968 335.478 215.768 336.278C221.768 332.678 227.168 327.978 231.868 322.078ZM241.268 227.278C239.568 228.378 237.968 229.478 236.268 230.578C227.568 205.478 213.568 182.278 198.968 169.678C198.768 169.478 198.568 169.378 198.368 169.178C184.968 157.878 161.068 147.178 135.468 142.378C135.768 141.678 136.068 141.078 136.368 140.378C139.868 132.478 143.468 124.478 146.868 116.478C174.868 119.778 203.068 126.278 222.268 142.178C222.468 142.278 222.568 142.478 222.768 142.578C241.768 158.578 252.368 185.778 259.968 215.078C253.668 219.078 247.468 223.178 241.268 227.278ZM135.368 140.078C135.068 140.778 134.768 141.478 134.368 142.278C122.568 140.178 110.368 139.278 98.5679 140.178C78.6679 141.778 63.1679 148.578 53.5679 159.878C48.3679 166.078 44.2679 172.778 41.3679 179.878C41.4679 172.278 41.5679 164.278 41.3679 156.178C44.8679 147.178 50.1679 138.678 57.0679 130.678C74.3679 110.678 104.268 112.978 126.168 114.678C132.568 115.178 139.068 115.778 145.668 116.478C142.368 124.278 138.868 132.178 135.368 140.078ZM40.4679 182.578C38.7679 187.278 37.5679 192.178 36.9679 197.178C36.7679 195.378 36.5679 193.678 36.3679 191.878C35.4679 180.178 36.8679 169.078 40.5679 158.578C40.7679 166.978 40.6679 174.978 40.4679 182.578ZM40.4679 185.978C40.4679 186.278 40.4679 186.478 40.4679 186.778C40.3679 190.878 40.2679 194.878 40.2679 198.678C40.2679 201.878 40.0679 205.578 39.8679 209.578C39.7679 209.778 39.7679 209.978 39.6679 210.178C38.8679 207.178 38.1679 204.078 37.6679 201.078C37.9679 195.878 38.9679 190.778 40.4679 185.978ZM44.6679 224.478C44.6679 224.578 44.5679 224.578 44.5679 224.678C44.4679 224.478 44.3679 224.278 44.2679 224.078C44.3679 224.178 44.5679 224.278 44.6679 224.478ZM45.2679 225.278C47.5679 228.278 50.0679 231.178 52.6679 233.978C50.3679 231.878 48.0679 229.778 45.7679 227.678C45.4679 226.978 45.1679 226.378 44.8679 225.678C45.0679 225.578 45.1679 225.478 45.2679 225.278ZM46.9679 230.178C50.3679 233.378 53.9679 236.478 57.5679 239.478C56.5679 239.978 55.6679 240.478 54.6679 241.078C52.3679 238.278 50.1679 235.478 48.0679 232.478C47.7679 231.678 47.3679 230.978 46.9679 230.178ZM53.8679 241.678C53.6679 241.778 53.4679 241.978 53.2679 242.078C52.4679 240.778 51.7679 239.378 51.0679 238.078C51.8679 239.278 52.8679 240.478 53.8679 241.678ZM77.8679 265.178C78.6679 265.878 79.4679 266.578 80.2679 267.178C79.2679 269.578 78.2679 271.978 77.2679 274.378C74.2679 271.178 71.4679 267.878 68.7679 264.578C71.7679 264.478 74.8679 264.678 77.8679 265.178ZM81.0679 267.878C84.5679 270.778 88.0679 273.578 91.4679 276.378C94.9679 279.178 98.2679 281.878 101.468 284.578L95.3679 291.778C89.1679 286.478 83.3679 280.978 77.9679 275.278C79.0679 272.778 80.0679 270.278 81.0679 267.878ZM94.7679 292.478L89.2679 298.978C86.2679 296.278 82.3679 294.078 78.2679 292.478C76.6679 290.878 74.9679 289.178 73.3679 287.378C74.6679 283.578 76.0679 279.878 77.5679 276.178C82.9679 281.878 88.6679 287.278 94.7679 292.478ZM87.5679 300.978C85.1679 298.978 82.6679 296.678 80.1679 294.378C83.0679 295.678 85.6679 297.278 87.9679 299.178C88.1679 299.378 88.3679 299.578 88.5679 299.778L87.5679 300.978ZM89.3679 300.378C91.2679 302.178 93.1679 304.378 94.8679 306.778C92.6679 305.078 90.5679 303.378 88.3679 301.578L89.3679 300.378ZM76.1679 291.778C74.8679 291.378 73.5679 291.078 72.2679 290.778C72.5679 289.978 72.7679 289.278 73.0679 288.478C74.0679 289.578 75.0679 290.678 76.1679 291.778ZM77.7679 293.378C80.7679 296.278 83.7679 299.078 86.6679 301.578C86.7679 301.678 86.8679 301.778 86.9679 301.878L79.4679 310.778C76.0679 307.878 72.5679 304.578 69.2679 300.878C70.0679 297.878 70.9679 294.778 71.9679 291.778C73.8679 292.078 75.8679 292.678 77.7679 293.378ZM78.7679 311.478L74.8679 316.178C72.3679 314.178 69.5679 312.878 66.7679 312.178C67.3679 308.778 68.0679 305.378 68.9679 301.978C72.1679 305.378 75.4679 308.578 78.7679 311.478ZM79.5679 312.078C82.7679 314.778 86.4679 317.578 90.5679 320.378C87.3679 321.778 84.0679 323.078 80.8679 324.178C79.7679 321.378 77.9679 318.778 75.6679 316.678L79.5679 312.078ZM80.1679 311.278L87.6679 302.378C89.9679 304.278 92.9679 306.678 96.4679 309.278C97.7679 311.378 98.9679 313.578 99.9679 315.878C97.1679 317.278 94.3679 318.678 91.5679 319.878C87.3679 316.978 83.4679 314.078 80.1679 311.278ZM98.5679 310.778C100.068 311.878 101.668 312.978 103.368 314.178C102.568 314.578 101.768 315.078 100.868 315.478C100.168 313.878 99.4679 312.278 98.5679 310.778ZM97.2679 308.678C95.0679 305.178 92.4679 302.078 89.9679 299.678L95.4679 293.178C100.368 297.278 106.868 302.478 114.568 307.878C111.168 309.878 107.668 311.878 104.168 313.778C101.968 312.078 99.6679 310.478 97.2679 308.678ZM96.1679 292.378L102.268 285.178C106.468 288.678 110.768 292.578 115.268 296.578C117.668 298.678 120.068 300.878 122.568 302.978C120.268 304.378 117.968 305.778 115.568 307.178C107.768 301.778 101.168 296.578 96.1679 292.378ZM123.268 303.678C123.768 304.078 124.268 304.478 124.768 304.978C125.968 308.278 126.768 311.578 127.168 314.978C123.368 312.578 119.768 310.178 116.468 307.878C118.768 306.578 121.068 305.178 123.268 303.678ZM172.168 335.578C172.768 335.978 173.368 336.378 173.868 336.778C173.168 336.478 172.468 336.178 171.768 335.878C171.868 335.778 172.068 335.678 172.168 335.578ZM196.268 339.578C200.068 339.178 203.968 338.678 208.068 338.178C208.968 338.078 209.868 337.978 210.768 337.878C207.368 339.478 203.768 340.778 200.068 341.678C196.568 341.478 192.868 341.078 189.168 340.478C191.668 340.178 194.068 339.778 196.268 339.578ZM213.668 337.478C220.668 336.678 228.068 335.778 235.468 335.178C225.768 339.778 215.068 341.978 203.368 341.778C206.968 340.678 210.368 339.278 213.668 337.478ZM238.068 334.978C244.068 334.478 250.068 334.178 256.068 334.078C238.868 341.678 218.668 344.978 199.068 342.878C199.468 342.778 199.768 342.678 200.168 342.678C214.168 343.378 226.868 340.878 238.068 334.978ZM240.268 333.778C247.768 329.478 254.568 323.778 260.668 316.478C278.668 295.178 271.368 261.378 266.068 236.778L265.968 236.478C264.468 229.478 262.868 222.378 261.068 215.478C268.868 210.478 276.668 205.478 284.668 200.678C286.168 207.078 287.468 213.478 288.868 219.578L289.968 224.678C290.468 227.078 291.068 229.578 291.568 232.078C297.468 258.278 304.768 290.978 287.468 311.478C279.968 320.378 269.868 327.678 258.368 333.078C252.268 333.078 246.268 333.378 240.268 333.778ZM260.768 214.478C253.168 185.078 242.468 157.978 223.368 141.778C223.168 141.678 223.068 141.478 222.868 141.378C211.668 132.178 196.968 125.378 177.768 120.778C167.668 118.378 157.168 116.678 147.268 115.578C150.968 107.078 154.468 98.4782 157.868 89.8782C190.168 92.6782 223.768 97.5782 244.968 115.278L245.068 115.378C266.568 133.578 276.968 167.678 284.368 199.678C276.468 204.478 268.568 209.478 260.768 214.478ZM146.268 115.378C139.168 114.578 132.468 113.978 126.468 113.578C104.368 111.878 74.1679 109.578 56.5679 129.978C50.0679 137.478 45.0679 145.378 41.5679 153.678C41.3679 147.378 40.9679 141.078 40.2679 134.778C44.7679 122.478 51.0679 111.278 59.0679 102.078C75.6679 82.9782 103.168 85.2782 127.568 87.3782C129.868 87.5782 132.168 87.7782 134.368 87.9782C136.568 88.1782 138.868 88.2782 141.168 88.4782C146.368 88.8782 151.668 89.2782 156.968 89.6782C153.468 98.3782 149.868 106.878 146.268 115.378ZM40.5679 155.978C36.1679 167.278 34.4679 179.378 35.3679 192.078C35.5679 195.078 35.9679 198.078 36.5679 201.078C36.3679 203.478 36.2679 205.978 36.3679 208.478C36.0679 207.378 35.7679 206.278 35.4679 205.178C30.0679 183.478 31.8679 158.778 39.4679 136.978C40.0679 143.278 40.3679 149.678 40.5679 155.978ZM39.2679 219.178C39.2679 219.778 39.1679 220.278 39.1679 220.878C38.8679 220.578 38.5679 220.278 38.3679 219.978C38.4679 219.278 38.5679 218.578 38.7679 217.878C38.8679 218.278 39.0679 218.678 39.2679 219.178ZM40.1679 220.978C40.4679 221.678 40.8679 222.278 41.1679 222.978C40.8679 222.578 40.4679 222.278 40.1679 221.878C40.0679 221.578 40.1679 221.278 40.1679 220.978ZM40.2679 218.978C40.2679 218.878 40.2679 218.878 40.2679 218.978C40.8679 219.678 41.4679 220.378 42.0679 221.078C42.6679 222.578 43.2679 224.078 43.8679 225.678C43.8679 225.678 43.8679 225.778 43.7679 225.778L43.6679 225.678C42.4679 223.478 41.3679 221.278 40.2679 218.978ZM47.2679 233.078C48.8679 236.278 50.5679 239.478 52.3679 242.678L52.2679 242.778C48.5679 239.578 44.8679 236.378 41.3679 232.978C42.0679 231.178 42.8679 229.378 43.7679 227.678C44.8679 229.578 46.0679 231.278 47.2679 233.078ZM52.2679 244.078C52.3679 244.178 52.4679 244.278 52.5679 244.378C53.0679 244.878 53.6679 245.278 54.1679 245.678C57.8679 251.778 62.0679 257.878 66.7679 263.778C63.1679 264.178 59.8679 264.978 56.8679 266.378C53.2679 260.878 49.9679 255.078 47.1679 248.978C48.7679 247.178 50.4679 245.478 52.2679 244.078ZM67.4679 264.678C70.4679 268.278 73.5679 271.878 76.8679 275.478C75.3679 279.178 73.9679 282.878 72.6679 286.678C67.3679 280.778 62.1679 274.278 57.4679 267.278C60.4679 265.878 63.8679 264.978 67.4679 264.678ZM72.2679 287.678C71.9679 288.678 71.5679 289.578 71.2679 290.578C68.5679 290.078 65.9679 289.978 63.3679 290.178C62.4679 290.278 61.5679 290.378 60.6679 290.578C56.5679 285.078 52.6679 279.078 49.3679 272.778C51.4679 270.678 53.8679 268.978 56.4679 267.678C61.3679 274.878 66.7679 281.678 72.2679 287.678ZM63.4679 291.178C65.8679 290.978 68.3679 291.178 70.9679 291.578C70.0679 294.378 69.1679 297.178 68.4679 299.978C66.0679 297.278 63.6679 294.478 61.3679 291.478C62.0679 291.278 62.7679 291.178 63.4679 291.178ZM68.1679 301.078C67.1679 304.678 66.3679 308.278 65.7679 311.978C65.0679 311.878 64.3679 311.778 63.6679 311.778C59.6679 307.078 55.6679 301.478 52.1679 295.478C54.3679 293.578 57.1679 292.378 60.3679 291.678C62.7679 294.978 65.4679 298.078 68.1679 301.078ZM65.5679 312.878C65.5679 313.178 65.4679 313.478 65.4679 313.678C65.1679 313.378 64.8679 313.078 64.5679 312.678C64.8679 312.878 65.2679 312.878 65.5679 312.878ZM66.5679 313.078C69.2679 313.678 71.8679 314.978 74.1679 316.778L71.5679 319.778C69.7679 318.278 68.0679 316.478 66.2679 314.578C66.3679 314.178 66.4679 313.678 66.5679 313.078ZM70.9679 320.678L65.2679 327.378C65.2679 323.578 65.5679 319.778 66.0679 315.978C67.7679 317.678 69.3679 319.278 70.9679 320.678ZM71.7679 321.278C73.4679 322.678 75.1679 324.078 77.0679 325.378C73.4679 326.478 69.7679 327.378 66.0679 327.978L71.7679 321.278ZM72.3679 320.578L74.9679 317.578C77.0679 319.478 78.8679 321.978 79.8679 324.578C79.3679 324.778 78.7679 324.978 78.2679 325.078C76.1679 323.578 74.1679 322.078 72.3679 320.578ZM80.2679 325.478C80.3679 325.878 80.5679 326.278 80.6679 326.678C80.2679 326.378 79.7679 326.078 79.3679 325.778C79.5679 325.678 79.8679 325.578 80.2679 325.478ZM81.1679 325.178C84.6679 323.978 88.0679 322.578 91.5679 321.078C94.9679 323.378 98.6679 325.678 102.568 327.978C102.468 331.478 101.468 334.578 99.6679 337.278C93.1679 334.378 87.1679 331.078 81.7679 327.478C81.5679 326.678 81.3679 325.878 81.1679 325.178ZM92.5679 320.578C95.1679 319.378 97.7679 318.178 100.368 316.878C101.668 320.178 102.468 323.578 102.568 326.878C99.0679 324.778 95.7679 322.678 92.5679 320.578ZM101.268 316.378C102.268 315.878 103.268 315.378 104.268 314.778C110.668 319.078 118.068 323.778 126.468 328.078C125.668 331.178 124.368 333.978 122.668 336.678C115.968 333.978 109.568 330.778 103.668 327.378C103.668 327.178 103.668 327.078 103.668 326.878C103.468 323.478 102.668 319.878 101.268 316.378ZM105.168 314.378C108.668 312.478 112.068 310.478 115.468 308.478C119.168 311.078 123.068 313.678 127.268 316.278C127.268 316.478 127.268 316.678 127.368 316.878C127.668 320.578 127.368 324.078 126.668 327.278C119.668 323.678 112.468 319.378 105.168 314.378ZM128.368 316.978C135.368 321.278 142.968 325.478 151.068 329.278C149.868 331.678 148.468 333.978 146.668 336.178C140.568 333.978 134.168 331.178 127.568 327.778C128.368 324.378 128.668 320.778 128.368 316.978ZM128.268 315.678C127.968 312.478 127.268 309.378 126.268 306.278C127.568 307.478 128.968 308.578 130.368 309.778C133.568 312.478 136.768 315.078 140.168 317.678C143.968 321.078 147.868 324.478 151.768 327.778C151.668 327.978 151.568 328.078 151.568 328.278C143.168 324.478 135.368 320.178 128.268 315.678ZM152.468 328.478C152.768 328.678 153.068 328.978 153.368 329.178C153.068 328.978 152.668 328.878 152.368 328.678C152.468 328.678 152.468 328.578 152.468 328.478ZM152.868 327.478C152.968 327.278 152.968 327.078 153.068 326.978C157.268 329.678 161.468 332.178 165.868 334.378C162.768 333.278 159.668 332.078 156.668 330.778C155.468 329.678 154.168 328.578 152.868 327.478ZM193.068 342.078C194.268 342.278 195.468 342.378 196.668 342.478C196.468 342.478 196.168 342.578 195.968 342.578C195.268 342.478 194.468 342.378 193.768 342.278C193.468 342.178 193.268 342.078 193.068 342.078ZM258.568 334.078C264.768 334.078 270.968 334.378 276.968 334.978C254.468 345.078 227.668 348.978 203.068 344.478C202.468 344.378 201.768 344.178 201.168 344.078C221.068 345.778 241.368 342.078 258.568 334.078ZM260.668 333.078C271.568 327.678 281.068 320.678 288.268 312.078C305.868 291.178 298.468 258.278 292.568 231.778C291.968 229.278 291.468 226.778 290.968 224.378L289.868 219.278C288.568 213.078 287.168 206.578 285.668 200.078C292.768 195.778 300.068 191.578 307.368 187.578C308.068 190.978 308.768 194.378 309.468 197.678C310.668 203.478 311.768 208.978 312.868 214.378C313.768 218.478 314.768 222.778 315.868 227.378C322.468 254.378 330.568 287.978 313.068 308.778C304.268 319.178 292.368 327.778 278.868 334.078C272.868 333.478 266.768 333.078 260.668 333.078ZM285.268 199.078C277.868 167.078 267.368 132.878 245.668 114.578L245.568 114.478C224.268 96.5782 190.668 91.5782 158.268 88.8782C161.268 81.1782 164.068 73.3782 166.668 65.4782C202.768 67.6782 242.368 71.0782 265.768 90.5782C265.868 90.5782 265.868 90.6782 265.968 90.6782C289.668 110.678 299.468 149.778 307.068 186.578C299.668 190.578 292.468 194.778 285.268 199.078ZM157.168 88.7782C151.768 88.2782 146.368 87.8782 141.068 87.4782C138.768 87.2782 136.568 87.1782 134.268 86.9782C132.068 86.7782 129.768 86.5782 127.468 86.3782C102.868 84.2782 75.0679 81.8782 58.1679 101.378C50.5679 110.178 44.3679 120.878 39.8679 132.578C39.1679 126.578 38.1679 120.778 36.7679 115.078C42.1679 100.578 49.5679 87.0782 58.8679 75.9782C74.9679 56.7782 102.968 59.7782 127.668 62.4782C132.068 62.9782 136.268 63.3782 140.268 63.6782C146.768 64.1782 153.368 64.5782 160.368 64.9782C162.068 65.0782 163.768 65.1782 165.468 65.2782C162.968 73.1782 160.168 80.9782 157.168 88.7782ZM39.1679 134.678C30.9679 156.978 28.9679 182.578 34.3679 204.978C32.8679 201.378 31.5679 197.678 30.5679 193.878C24.6679 170.478 27.0679 142.278 36.1679 116.778C37.4679 122.678 38.4679 128.678 39.1679 134.678ZM29.5679 194.178C31.0679 200.078 33.2679 205.678 35.9679 210.978C36.0679 211.378 36.2679 211.678 36.3679 212.078C30.7679 203.978 26.3679 195.078 23.8679 185.178C17.3679 159.278 20.2679 127.878 30.4679 99.4782C32.5679 104.478 34.2679 109.678 35.6679 115.178C26.1679 141.078 23.4679 170.078 29.5679 194.178ZM37.7679 215.578C37.8679 215.778 37.9679 215.978 37.9679 216.178C37.9679 216.378 37.8679 216.578 37.8679 216.778C37.7679 216.378 37.7679 215.978 37.7679 215.578ZM39.0679 222.278C39.0679 222.878 38.9679 223.478 38.9679 224.078C38.7679 223.278 38.6679 222.478 38.5679 221.678C38.6679 221.878 38.8679 222.078 39.0679 222.278ZM40.0679 223.278C41.0679 224.278 41.9679 225.278 42.9679 226.278C43.0679 226.478 43.1679 226.578 43.2679 226.778C42.3679 228.378 41.5679 229.978 40.8679 231.778C40.4679 230.478 40.1679 229.178 39.8679 227.778C39.8679 226.278 39.9679 224.778 40.0679 223.278ZM39.6679 231.378C39.5679 231.278 39.5679 231.178 39.5679 231.178C39.5679 231.178 39.6679 231.278 39.6679 231.378ZM46.0679 248.778C44.4679 250.778 43.1679 252.878 42.0679 255.278C40.8679 251.578 39.8679 247.778 39.1679 244.078C39.1679 242.978 39.2679 241.878 39.2679 240.878C39.6679 238.878 40.1679 236.878 40.7679 234.978C42.1679 239.678 43.9679 244.278 46.0679 248.778ZM46.4679 249.878C49.2679 255.778 52.4679 261.478 55.9679 266.778C53.3679 268.078 51.0679 269.678 48.8679 271.778C46.3679 266.878 44.1679 261.878 42.3679 256.678C43.5679 254.178 44.8679 251.878 46.4679 249.878ZM48.1679 272.478C47.5679 273.178 46.8679 273.778 46.2679 274.578C45.2679 275.778 44.4679 276.978 43.7679 278.278C42.1679 274.078 40.8679 269.678 39.8679 265.378C40.2679 262.778 40.8679 260.378 41.7679 258.078C43.6679 262.978 45.7679 267.778 48.1679 272.478ZM47.1679 275.178C47.6679 274.578 48.1679 273.978 48.7679 273.378C51.9679 279.478 55.6679 285.278 59.6679 290.678C56.5679 291.378 53.8679 292.678 51.6679 294.478C48.9679 289.678 46.4679 284.678 44.4679 279.478C45.1679 277.978 46.0679 276.478 47.1679 275.178ZM50.8679 295.178C50.1679 295.778 49.5679 296.478 48.9679 297.178C47.8679 298.478 47.0679 300.078 46.5679 301.678C45.0679 298.378 43.7679 294.878 42.6679 291.478C42.3679 290.478 42.0679 289.578 41.8679 288.678C42.1679 285.778 42.8679 283.178 43.8679 280.778C45.7679 285.778 48.1679 290.578 50.8679 295.178ZM49.7679 297.778C50.2679 297.178 50.8679 296.578 51.3679 296.078C54.7679 301.878 58.5679 307.178 62.3679 311.778C62.2679 311.778 62.2679 311.778 62.1679 311.778C59.1679 312.078 56.5679 313.278 54.7679 315.478C54.6679 315.578 54.5679 315.678 54.4679 315.878C51.7679 311.978 49.2679 307.678 47.1679 303.178C47.6679 301.078 48.5679 299.378 49.7679 297.778ZM55.4679 316.078C57.0679 314.078 59.4679 312.978 62.2679 312.778C62.5679 312.778 62.8679 312.778 63.1679 312.778C63.8679 313.578 64.5679 314.278 65.1679 315.078C64.5679 319.178 64.2679 323.178 64.2679 327.178C61.0679 324.378 57.9679 320.778 55.0679 316.678C55.2679 316.478 55.3679 316.278 55.4679 316.078ZM62.3679 326.778C59.1679 324.678 56.3679 322.178 53.9679 319.178C54.0679 318.678 54.2679 318.178 54.4679 317.678C57.0679 321.078 59.6679 324.178 62.3679 326.778ZM66.4679 328.978C70.3679 328.278 74.1679 327.378 78.0679 326.178C78.9679 326.778 79.8679 327.478 80.8679 328.078C81.2679 330.978 80.7679 333.878 78.8679 336.178C78.7679 336.378 78.5679 336.478 78.4679 336.678C73.8679 334.178 69.7679 331.578 66.4679 328.978ZM77.5679 337.278C77.0679 337.578 76.5679 337.878 75.9679 338.178C72.6679 336.078 69.5679 333.678 66.9679 330.678C69.9679 332.778 73.4679 335.078 77.5679 337.278ZM79.5679 336.778C81.4679 334.478 82.1679 331.678 81.8679 328.778C87.0679 332.178 92.8679 335.278 99.0679 338.078C98.6679 338.578 98.1679 339.178 97.6679 339.678C96.1679 341.178 94.5679 342.278 92.8679 343.078C88.0679 341.378 83.4679 339.378 79.1679 337.178C79.3679 336.978 79.4679 336.878 79.5679 336.778ZM98.4679 340.378C99.0679 339.778 99.5679 339.178 100.068 338.478C104.968 340.678 110.168 342.578 115.268 344.078C113.368 345.278 110.968 346.278 108.168 346.978C103.468 346.178 98.7679 344.978 94.2679 343.478C95.7679 342.678 97.1679 341.578 98.4679 340.378ZM100.568 337.678C102.368 334.978 103.268 331.978 103.468 328.578C109.268 331.878 115.468 334.978 121.968 337.578C121.468 338.378 120.868 339.078 120.268 339.778C119.268 340.978 117.968 342.178 116.368 343.278C110.968 341.778 105.668 339.878 100.568 337.678ZM121.068 340.478C121.768 339.678 122.368 338.878 122.968 337.978C128.068 339.978 133.268 341.778 138.568 343.178C136.168 344.578 133.568 345.678 130.868 346.378C126.468 345.878 121.968 344.978 117.568 343.678C118.768 342.778 119.968 341.678 121.068 340.478ZM139.668 342.378C134.168 340.978 128.768 339.178 123.568 337.078C125.268 334.478 126.568 331.578 127.368 328.578C129.768 329.778 132.168 330.978 134.768 332.178C138.568 333.978 142.368 335.478 146.068 336.878C145.968 336.978 145.868 337.078 145.768 337.178C143.968 339.278 141.968 340.978 139.668 342.378ZM146.468 337.978C146.668 337.778 146.768 337.578 146.968 337.378C152.068 339.278 157.168 340.778 161.968 341.978C159.968 343.078 157.768 343.978 155.568 344.678C154.868 344.778 154.268 344.878 153.568 344.978C149.168 344.578 144.968 343.778 141.068 342.878C143.068 341.378 144.868 339.778 146.468 337.978ZM147.668 336.478C149.368 334.378 150.768 332.078 151.968 329.678C153.368 330.278 154.768 330.978 156.268 331.578C159.568 334.278 162.868 336.878 166.268 339.378C165.368 339.978 164.468 340.578 163.568 341.078C158.468 339.978 153.268 338.478 147.668 336.478ZM159.568 332.978C162.868 334.278 166.168 335.578 169.568 336.678C168.768 337.378 167.968 338.078 167.068 338.778C164.568 336.878 162.068 334.878 159.568 332.978ZM170.668 336.978C172.068 337.378 173.368 337.778 174.768 338.178C175.668 338.478 176.468 338.878 177.368 339.178C178.168 339.778 179.068 340.278 179.968 340.878C178.568 341.078 177.168 341.278 175.668 341.578C174.468 341.778 173.168 341.978 171.868 342.178C170.568 341.278 169.168 340.278 167.868 339.378C168.868 338.578 169.768 337.778 170.668 336.978ZM181.068 340.478C181.268 340.578 181.468 340.578 181.668 340.678C181.568 340.678 181.468 340.678 181.468 340.678C181.368 340.578 181.168 340.478 181.068 340.478ZM192.368 343.078H192.468C192.468 343.078 192.468 343.078 192.368 343.078ZM195.068 343.678C197.568 344.378 200.168 344.978 202.868 345.478C228.168 349.978 255.868 345.778 278.968 335.178C284.468 335.878 289.768 336.878 294.868 338.278C269.568 349.578 239.568 354.078 212.868 349.378C206.368 348.278 200.268 346.278 194.268 343.878C194.568 343.778 194.768 343.778 195.068 343.678ZM307.868 186.178C300.168 149.278 290.368 110.178 266.468 89.9782C266.368 89.9782 266.368 89.8782 266.268 89.8782C242.668 70.1782 203.068 66.7782 166.868 64.4782C169.068 57.5782 171.168 50.6782 172.968 43.6782C173.168 43.6782 173.268 43.6782 173.468 43.6782C212.868 45.3782 257.568 47.2782 283.668 69.1782C283.768 69.1782 283.768 69.2782 283.868 69.2782C310.268 91.5782 319.668 135.878 327.368 176.278C320.868 179.378 314.368 182.678 307.868 186.178ZM165.868 64.3782C164.068 64.2782 162.268 64.1782 160.468 64.0782C153.468 63.6782 146.868 63.2782 140.368 62.7782C136.368 62.4782 132.268 61.9782 127.768 61.5782C104.068 58.9782 74.4679 55.7782 58.0679 75.3782C48.9679 86.2782 41.5679 99.3782 36.2679 113.478C34.8679 108.178 33.1679 102.978 30.9679 98.0782C37.0679 81.4782 45.6679 65.9782 56.2679 53.2782C72.9679 33.2782 102.168 36.9782 127.768 40.2782C133.668 41.0782 139.168 41.7782 144.368 42.1782C153.068 42.8782 162.168 43.2782 171.768 43.6782C170.168 50.5782 168.168 57.4782 165.868 64.3782ZM144.668 41.1782C139.468 40.7782 133.968 40.0782 128.068 39.2782C102.168 35.9782 72.7679 32.1782 55.6679 52.5782C45.1679 65.1782 36.6679 80.3782 30.5679 96.7782C28.4679 92.3782 26.0679 88.1782 23.2679 84.2782C29.9679 65.8782 39.2679 48.6782 50.8679 34.7782C69.2679 12.6782 99.8679 16.9782 126.968 20.7782C133.968 21.7782 140.568 22.6782 146.868 23.1782C156.268 23.8782 166.068 24.2782 176.268 24.5782C175.168 30.5782 173.868 36.6782 172.368 42.6782C162.568 42.2782 153.468 41.8782 144.668 41.1782ZM29.9679 98.0782C19.3679 126.878 16.3679 158.878 22.8679 185.278C25.5679 195.878 30.3679 205.378 36.4679 213.978C36.4679 214.178 36.4679 214.378 36.4679 214.578C36.5679 215.878 36.7679 217.178 36.8679 218.378C26.8679 206.978 18.9679 193.978 15.1679 178.778C8.26786 150.978 11.5679 116.478 22.6679 85.2782C25.5679 89.3782 27.9679 93.5782 29.9679 98.0782ZM40.1679 233.278C39.8679 234.078 39.5679 234.878 39.3679 235.778C39.3679 234.678 39.4679 233.678 39.4679 232.678C39.7679 232.878 39.9679 233.078 40.1679 233.278ZM38.9679 248.278C39.6679 251.078 40.4679 253.878 41.3679 256.578C40.5679 258.478 39.8679 260.578 39.4679 262.678C39.2679 261.678 39.1679 260.678 38.9679 259.678C38.9679 255.978 38.9679 252.078 38.9679 248.278ZM39.6679 268.178C40.6679 271.978 41.8679 275.678 43.2679 279.378C42.2679 281.478 41.5679 283.678 41.1679 285.978C40.3679 281.178 39.8679 276.178 39.4679 271.178C39.5679 270.178 39.5679 269.178 39.6679 268.178ZM46.0679 303.178C45.9679 303.578 45.8679 303.978 45.7679 304.378C44.8679 302.078 44.1679 299.778 43.4679 297.278C44.2679 299.178 45.1679 301.178 46.0679 303.178ZM46.7679 304.678C48.8679 308.978 51.2679 313.078 53.8679 316.778C53.5679 317.278 53.3679 317.778 53.2679 318.278C50.5679 314.778 48.3679 310.778 46.5679 306.378C46.6679 305.778 46.6679 305.178 46.7679 304.678ZM53.7679 320.478C55.1679 322.078 56.6679 323.678 58.2679 324.978C60.0679 326.478 61.9679 327.778 64.0679 328.878L60.2679 333.378C58.3679 331.778 56.5679 329.678 54.7679 327.378C53.8679 324.978 53.5679 322.578 53.7679 320.478ZM59.5679 334.178L59.3679 334.478C58.3679 333.578 57.4679 332.478 56.6679 331.378C57.6679 332.378 58.6679 333.278 59.5679 334.178ZM60.3679 334.778C61.3679 335.578 62.4679 336.378 63.6679 337.178C62.3679 336.578 61.2679 335.878 60.1679 334.978L60.3679 334.778ZM60.9679 334.078L64.7679 329.578C66.4679 331.678 68.2679 333.578 70.3679 335.378C71.7679 336.578 73.2679 337.578 74.7679 338.578C74.0679 338.778 73.2679 338.878 72.4679 338.978C70.9679 339.078 69.3679 338.978 67.7679 338.678C65.0679 337.078 62.7679 335.478 60.9679 334.078ZM76.9679 338.778C77.5679 338.478 78.0679 338.178 78.4679 337.778C82.4679 339.878 86.8679 341.878 91.5679 343.578C90.9679 343.778 90.4679 343.978 89.8679 344.078C85.2679 342.778 80.8679 340.978 76.9679 338.778ZM92.9679 344.078C95.3679 344.878 97.7679 345.678 100.268 346.278C97.2679 345.878 94.4679 345.278 91.6679 344.578C92.1679 344.378 92.5679 344.278 92.9679 344.078ZM133.568 346.578C135.768 345.778 137.968 344.778 139.968 343.478C142.968 344.178 146.268 344.878 149.568 345.378C145.068 345.978 140.468 346.378 135.868 346.778C135.168 346.778 134.368 346.678 133.568 346.578ZM163.468 342.278C164.568 342.578 165.768 342.778 166.868 342.978C164.668 343.278 162.368 343.678 160.068 343.978C161.268 343.478 162.368 342.878 163.468 342.278ZM164.968 341.378C165.668 340.878 166.368 340.478 167.068 339.978C168.168 340.778 169.368 341.578 170.468 342.378H170.368C168.668 342.078 166.768 341.778 164.968 341.378ZM173.768 342.878C174.468 342.778 175.168 342.678 175.868 342.578C177.668 342.278 179.468 341.978 181.268 341.678C181.368 341.678 181.468 341.778 181.468 341.778C180.068 342.278 178.568 342.778 177.068 343.178C175.968 343.078 174.868 342.978 173.768 342.878ZM182.568 342.478C183.168 342.878 183.768 343.178 184.368 343.578C182.968 343.578 181.468 343.478 179.968 343.478C180.768 343.178 181.668 342.878 182.568 342.478ZM183.668 342.078C184.068 341.878 184.468 341.678 184.868 341.578C186.068 341.878 187.268 342.178 188.468 342.378C189.168 342.678 189.768 342.978 190.468 343.378C189.068 343.478 187.668 343.578 186.268 343.578C185.368 343.078 184.568 342.578 183.668 342.078ZM190.968 344.278C191.368 344.278 191.868 344.178 192.268 344.078C198.768 346.878 205.468 349.078 212.568 350.378C239.868 355.178 270.568 350.378 296.268 338.678C301.068 340.078 305.568 341.878 309.968 344.078C304.668 346.378 299.168 348.478 293.368 350.278C268.768 357.978 242.868 360.178 220.468 356.278C208.868 354.278 198.068 350.078 187.968 344.478C188.968 344.478 189.968 344.378 190.968 344.278ZM328.368 175.878C320.568 135.378 311.168 90.9782 284.568 68.5782C284.468 68.5782 284.468 68.4782 284.368 68.4782C257.968 46.2782 213.068 44.3782 173.568 42.7782C173.468 42.7782 173.368 42.7782 173.268 42.7782C174.768 36.7782 176.068 30.7782 177.168 24.6782C178.268 24.6782 179.368 24.7782 180.468 24.7782C224.068 26.0782 269.168 27.4782 298.368 51.9782L298.468 52.0782C328.568 77.4782 337.768 125.578 345.568 168.578C339.768 170.778 334.068 173.278 328.368 175.878ZM4.76786 175.078C-0.932142 151.778 -0.332139 123.178 6.56786 94.5782C13.3679 66.2782 25.6679 40.3782 41.1679 21.6782C62.5679 -4.02177 94.2679 0.178228 124.968 4.27823C132.568 5.27823 139.768 6.27823 146.868 6.77823C157.068 7.57823 167.568 7.87823 178.568 8.17823C178.068 13.3782 177.268 18.4782 176.368 23.6782C166.068 23.3782 156.268 22.9782 146.868 22.2782C140.668 21.7782 134.068 20.8782 127.068 19.8782C99.7679 16.0782 68.8679 11.7782 50.0679 34.2782C38.5679 48.0782 29.2679 65.1782 22.5679 83.4782C19.9679 80.1782 17.1679 77.0782 13.8679 74.2782L13.2679 75.0782C16.6679 77.9782 19.5679 81.1782 22.1679 84.6782C10.8679 116.178 7.46785 151.178 14.4679 179.278C18.4679 195.178 26.8679 208.678 37.3679 220.478C36.9679 223.178 36.7679 225.878 36.7679 228.578C21.8679 213.378 10.0679 196.378 4.76786 175.078ZM38.5679 231.678C38.4679 234.078 38.3679 236.478 38.2679 238.878C37.9679 236.178 37.6679 233.478 37.6679 230.778C37.9679 231.078 38.2679 231.378 38.5679 231.678ZM44.0679 306.878C42.5679 302.278 41.7679 297.878 41.6679 293.778C42.6679 298.178 43.9679 302.478 45.5679 306.378C45.4679 307.778 45.3679 309.278 45.4679 310.778C44.9679 309.378 44.4679 308.078 44.0679 306.878ZM47.9679 318.678C49.7679 322.078 51.7679 325.178 53.7679 327.878C54.7679 330.578 56.4679 333.278 58.6679 335.278L58.0679 335.978C53.8679 332.278 49.9679 325.678 47.9679 318.678ZM77.6679 344.378C70.9679 343.278 63.6679 340.178 58.8679 336.478L59.4679 335.778C61.7679 337.578 64.5679 338.878 67.4679 339.478C70.5679 341.278 74.2679 342.978 78.0679 344.378C77.9679 344.478 77.8679 344.478 77.6679 344.378ZM89.5679 346.778C88.2679 346.478 86.9679 346.178 85.6679 345.878C87.1679 345.778 88.5679 345.578 89.9679 345.178C94.2679 346.378 98.7679 347.178 103.568 347.778C99.5679 348.078 94.9679 347.878 89.5679 346.778ZM158.568 345.178C162.468 344.578 166.268 344.078 169.968 343.478C170.868 343.578 171.768 343.778 172.668 343.878C172.768 343.978 172.968 344.078 173.068 344.178C168.168 345.078 163.268 345.378 158.568 345.178ZM369.268 319.878C337.468 357.678 271.468 372.778 226.068 365.378C207.368 362.378 190.868 354.678 175.668 344.678C176.068 344.578 176.568 344.478 176.968 344.378C180.068 344.678 183.168 344.678 186.068 344.678C196.668 350.778 207.968 355.278 220.368 357.478C242.868 361.378 268.968 359.178 293.768 351.378C299.768 349.478 305.568 347.278 311.168 344.778C314.968 346.778 318.668 349.178 322.068 351.978L322.668 351.178C319.368 348.478 315.968 346.178 312.268 344.178C329.968 336.178 344.968 325.378 355.468 312.978C376.168 288.578 365.968 250.878 357.868 220.578C355.968 213.378 354.168 206.678 352.768 200.378C350.768 191.078 348.968 181.278 347.068 170.878C346.968 170.278 346.868 169.778 346.768 169.178C351.668 167.278 356.668 165.478 361.668 163.978C361.868 165.078 362.068 166.078 362.268 167.178C364.168 177.578 365.968 187.478 368.068 197.078C369.568 204.078 371.468 211.278 373.468 218.878C382.468 253.078 392.668 291.978 369.268 319.878Z" fill="white"/>
</svg>
