<svg width="398" height="421" viewBox="0 0 398 421" fill="none" xmlns="http://www.w3.org/2000/svg">
<path d="M221.2 89.0082C206.1 89.0082 190.9 85.0082 179.1 81.3082C152.6 73.0082 127.9 59.8082 104 47.1082C72.9 30.6082 40.8 13.5082 4.40002 6.90823L4.60003 5.90823C41.2 12.6082 73.3 29.7082 104.5 46.2082C128.3 58.9082 153 72.0082 179.5 80.3082C198.5 86.3082 226.2 93.0082 247.8 82.5082C263.8 74.7082 269 60.1082 274.5 44.7082L275 43.2082C281 26.3082 296.9 6.50822 315.5 1.30822C326.7 -1.79177 337.4 0.608224 347.2 8.60822C358.1 17.5082 361.4 29.3082 364.7 40.7082C369.1 56.4082 373.3 71.2082 397.4 74.8082L397.3 75.8082C372.7 72.1082 368.4 57.0082 363.8 41.0082C360.6 29.7082 357.3 18.1082 346.7 9.40823C337.2 1.60823 326.8 -0.791774 315.9 2.20823C297.6 7.30823 282.1 26.8082 276.1 43.4082L275.6 44.9082C270 60.5082 264.8 75.3082 248.4 83.3082C239.8 87.5082 230.5 89.0082 221.2 89.0082Z" fill="white"/>
<path d="M221.2 102.308C206 102.308 190.7 98.2082 178.8 94.5082C152.4 86.1082 127.8 73.1082 104 60.5082C72.9 44.0082 40.7 26.8082 4.09998 20.3082L4.29998 19.3082C41 25.9082 73.2 43.1082 104.5 59.6082C128.2 72.2082 152.8 85.2082 179.1 93.6082C198.1 99.6082 225.8 106.408 247.5 96.0082C263.7 88.2082 268.9 73.5082 274.4 58.0082L274.8 56.8082C280.8 39.9082 296.7 20.0082 315.2 14.8082C326.4 11.7082 337.1 14.1082 346.9 22.1082C357.8 31.0082 361.2 42.8082 364.4 54.3082C368.8 70.0082 373 84.7082 396.9 88.4082L396.7 89.4082C372.2 85.6082 367.9 70.5082 363.4 54.6082C360.2 43.3082 356.9 31.6082 346.2 22.9082C336.7 15.2082 326.3 12.8082 315.4 15.8082C297.2 20.9082 281.6 40.5082 275.7 57.2082L275.3 58.4082C269.7 74.2082 264.4 89.0082 247.9 97.0082C239.6 100.808 230.4 102.308 221.2 102.308Z" fill="white"/>
<path d="M221.2 115.608C205.9 115.608 190.5 111.508 178.6 107.708C152.3 99.3083 127.9 86.3083 104.2 73.8083C73 57.2083 40.7 40.0083 4 33.5083L4.2 32.5083C41 39.1083 73.4 56.3083 104.6 72.9083C128.2 85.5083 152.6 98.4083 178.8 106.808C197.8 112.808 225.6 119.708 247.3 109.308C263.6 101.508 268.8 86.7083 274.4 71.1083L274.7 70.2083C280.8 53.2083 296.6 33.3083 315.1 28.0083C326.3 24.8083 336.9 27.3083 346.8 35.2083C357.8 44.0083 361.1 55.9083 364.4 67.4083C368.8 83.0083 373 97.8083 396.8 101.608L396.6 102.608C372.2 98.7083 367.9 83.7083 363.4 67.7083C360.2 56.4083 356.9 44.6083 346.1 36.0083C336.5 28.3083 326.2 25.9083 315.3 29.0083C297.1 34.1083 281.6 53.8083 275.6 70.5083L275.3 71.4083C269.7 87.3083 264.3 102.308 247.7 110.208C239.5 114.108 230.4 115.608 221.2 115.608Z" fill="white"/>
<path d="M221.1 128.908C205.8 128.908 190.3 124.708 178.3 120.908C152.2 112.508 127.8 99.6082 104.3 87.1082C73 70.5082 40.6 53.2082 3.80005 46.8082L4.00005 45.8082C40.9001 52.3082 73.4001 69.5082 104.7 86.2082C128.2 98.7082 152.5 111.608 178.5 119.908C197.5 126.008 225.3 132.908 247.2 122.608C263.6 114.808 268.7 100.608 274.5 84.2082L274.7 83.6082C280.8 66.5082 296.6 46.5082 315 41.3082C326.2 38.1082 336.8 40.5082 346.7 48.4082C357.7 57.2082 361.1 69.1082 364.4 80.6082C368.8 96.2082 373 111.008 396.7 114.808L396.5 115.808C372.3 111.908 368 96.8082 363.4 80.9082C360.2 69.5082 356.8 57.8082 346.1 49.2082C336.5 41.5082 326.2 39.2082 315.3 42.3082C297.2 47.5082 281.6 67.2082 275.6 84.0082L275.4 84.6082C269.7 100.608 264.3 115.708 247.6 123.608C239.4 127.408 230.3 128.908 221.1 128.908Z" fill="white"/>
<path d="M221.1 142.208C205.7 142.208 190.1 138.008 178 134.108C152 125.708 127.8 112.908 104.4 100.408C73 83.7082 40.6 66.5082 3.69995 60.1082L3.89995 59.1082C40.9 65.5082 73.5 82.8082 104.9 99.6082C128.3 112.008 152.5 124.908 178.4 133.208C197.4 139.308 225.3 146.308 247.2 136.008C263.8 128.308 268.8 113.908 274.7 97.3082L274.8 97.0082C280.9 79.9082 296.7 59.8082 315.1 54.5082C326.2 51.3082 336.9 53.7082 346.8 61.5082C357.9 70.3082 361.3 82.2082 364.5 93.8082C368.9 109.408 373.1 124.208 396.6 128.108L396.4 129.108C372.3 125.108 368 110.008 363.5 94.1082C360.3 82.7082 356.9 70.9082 346.1 62.4082C336.5 54.8082 326.1 52.5082 315.3 55.6082C297.2 60.8082 281.7 80.6082 275.7 97.5082L275.6 97.8082C269.9 113.908 264.5 129.108 247.5 137.008C239.3 140.808 230.2 142.208 221.1 142.208Z" fill="white"/>
<path d="M221.1 155.508C205.6 155.508 189.9 151.208 177.8 147.308C152 138.908 127.9 126.108 104.5 113.708C73 97.0082 40.5 79.7082 3.5 73.3082L3.7 72.3082C40.9 78.7082 73.5 96.0082 105 112.808C128.3 125.208 152.3 138.008 178.1 146.308C197.1 152.508 225 159.508 247 149.308C263.7 141.608 268.8 127.108 274.7 110.508C280.8 93.3082 296.6 73.2082 315 67.9082C326.1 64.7082 336.7 67.0082 346.6 74.8082C357.7 83.6082 361.1 95.5082 364.4 107.108C368.8 122.708 373 137.508 396.4 141.408L396.2 142.408C372.2 138.308 367.9 123.308 363.4 107.408C360.2 96.0082 356.8 84.2082 345.9 75.6082C336.3 68.0082 325.9 65.7082 315.1 68.9082C297.1 74.1082 281.5 94.0082 275.5 110.908C269.7 127.108 264.3 142.408 247.2 150.308C239.1 154.108 230.1 155.508 221.1 155.508Z" fill="white"/>
<path d="M221.1 168.908C205.5 168.908 189.7 164.608 177.5 160.608C151.8 152.208 127.8 139.508 104.6 127.108C73.1001 110.308 40.5 93.0083 3.30005 86.7083L3.50005 85.7083C40.8 92.0083 73.5001 109.408 105.1 126.208C128.3 138.508 152.2 151.308 177.8 159.608C196.9 165.808 224.8 172.908 246.8 162.708C263.6 155.008 269 139.908 274.6 124.008C277.8 115.008 283.3 105.808 290 98.2083C297.6 89.6083 306.2 83.7083 314.8 81.2083C325.9 78.0083 336.5 80.3083 346.4 88.0083C357.6 96.7083 361 108.708 364.3 120.308C368.7 135.908 372.9 150.608 396.1 154.708L395.9 155.708C372.1 151.608 367.8 136.508 363.3 120.608C360.1 109.208 356.7 97.3083 345.8 88.8083C336.1 81.3083 325.8 79.0083 315.1 82.1083C297.1 87.3083 281.6 107.308 275.5 124.308C269.8 140.408 264.4 155.708 247.1 163.608C239 167.408 230.1 168.908 221.1 168.908Z" fill="white"/>
<path d="M221 182.208C205.3 182.208 189.4 177.808 177.2 173.808C151.6 165.408 127.8 152.708 104.7 140.408C73.1 123.608 40.4 106.208 3.09998 99.9082L3.29998 98.9082C40.7 105.208 73.5 122.608 105.2 139.508C128.2 151.808 152.1 164.508 177.5 172.808C196.6 179.008 224.5 186.208 246.6 176.108C263.6 168.408 268.9 153.308 274.5 137.408C277.7 128.408 283.2 119.208 289.9 111.508C297.5 102.908 306.1 97.0082 314.7 94.4082C325.7 91.2082 336.4 93.4082 346.3 101.208C357.5 109.908 361 121.908 364.3 133.508C368.7 149.108 372.9 163.808 396 167.908L395.8 168.908C372.1 164.708 367.8 149.708 363.3 133.808C360 122.308 356.7 110.508 345.7 102.008C336 94.5082 325.7 92.3082 315 95.4082C297 100.708 281.5 120.708 275.5 137.708C269.8 153.808 264.4 169.008 247 176.908C238.9 180.708 230 182.208 221 182.208Z" fill="white"/>
<path d="M218.4 194.808C206.4 194.808 192.6 192.208 176.9 187.008C151.5 178.608 127.7 166.008 104.8 153.808C73.1 136.908 40.3 119.508 3 113.308L3.2 112.308C40.7 118.508 73.6 136.008 105.3 152.908C128.2 165.108 151.9 177.708 177.3 186.108C229.1 203.208 260.1 192.008 274.6 151.008C277.8 141.908 283.3 132.708 290 125.108C297.6 116.408 306.2 110.508 314.8 107.908C325.8 104.608 336.4 106.908 346.4 114.608C357.7 123.308 361.1 135.308 364.4 147.008C368.8 162.608 373 177.308 396 181.508L395.8 182.508C372.2 178.208 368 163.208 363.4 147.308C360.1 135.808 356.8 123.908 345.7 115.408C336 107.908 325.6 105.708 315 108.908C301.9 112.808 283.9 127.708 275.5 151.408C265.1 180.508 246.6 194.808 218.4 194.808Z" fill="white"/>
<path d="M218.5 208.108C206.4 208.108 192.5 205.508 176.6 200.208C151.3 191.808 127.7 179.308 104.9 167.108C73.1001 150.208 40.3 132.708 2.80005 126.508L3.00005 125.508C40.7001 131.608 73.6001 149.208 105.4 166.208C128.2 178.408 151.8 190.908 177 199.308C229 216.508 260 205.408 274.5 164.408C280.5 147.508 295.6 126.808 314.6 121.208C325.6 117.908 336.2 120.108 346.2 127.808C357.5 136.408 361 148.508 364.3 160.208C368.7 175.808 372.9 190.508 395.7 194.708L395.5 195.708C372.1 191.308 367.8 176.308 363.3 160.508C360 149.008 356.6 137.108 345.6 128.608C335.9 121.208 325.5 119.008 314.9 122.208C301.8 126.108 283.9 141.108 275.5 164.808C265.1 193.808 246.6 208.108 218.5 208.108Z" fill="white"/>
<path d="M218.3 221.408C206.2 221.408 192.3 218.808 176.3 213.408C151.2 205.008 127.7 192.508 104.9 180.408C73 163.408 40.1 145.908 2.5 139.808L2.7 138.808C40.5 144.908 73.6 162.508 105.5 179.508C128.2 191.608 151.6 204.108 176.7 212.408C228.9 229.708 259.9 218.708 274.5 177.808C280.5 160.908 295.6 140.108 314.5 134.408C325.4 131.108 336.1 133.308 346.1 140.908C357.5 149.508 360.9 161.608 364.3 173.308C368.7 188.908 372.9 203.608 395.6 207.908L395.4 208.908C372.1 204.508 367.8 189.508 363.3 173.608C360 162.108 356.6 150.108 345.5 141.708C335.7 134.308 325.4 132.208 314.8 135.408C301.7 139.308 283.8 154.408 275.4 178.208C267.5 200.608 254.7 214.008 236.4 219.108C230.9 220.608 224.9 221.408 218.3 221.408Z" fill="white"/>
<path d="M218.3 234.708C206.2 234.708 192.2 232.008 176.1 226.608C151.1 218.208 127.7 205.808 105.1 193.708C73.2 176.708 40.2 159.108 2.40002 153.108L2.60003 152.108C40.5 158.108 73.6 175.808 105.6 192.808C128.2 204.808 151.5 217.308 176.4 225.608C228.7 243.108 259.9 232.208 274.4 191.208C280.4 174.208 295.5 153.408 314.4 147.708C325.3 144.408 335.9 146.608 346 154.108C357.5 162.708 360.9 174.808 364.3 186.608C368.7 202.108 372.9 216.808 395.5 221.208L395.3 222.208C372.1 217.708 367.9 202.708 363.3 186.908C360 175.308 356.6 163.408 345.4 155.008C335.6 147.708 325.3 145.508 314.7 148.708C296.1 154.308 281.3 174.908 275.3 191.608C267.4 214.008 254.6 227.308 236.2 232.408C230.7 233.908 224.8 234.708 218.3 234.708Z" fill="white"/>
<path d="M218.3 248.008C206.1 248.008 192 245.308 175.8 239.808C151 231.408 127.7 219.008 105.2 207.008C73.2 189.908 40.1 172.308 2.19995 166.308L2.39995 165.308C40.4 171.208 73.6 189.008 105.7 206.108C128.2 218.108 151.4 230.508 176.1 238.808C200.6 247.008 220.1 249.008 235.7 244.708C253.9 239.808 266.5 226.708 274.3 204.608C280.3 187.608 295.4 166.708 314.3 160.908C325.2 157.608 335.8 159.708 345.9 167.208C357.4 175.808 360.9 187.908 364.2 199.708C368.6 215.208 372.8 229.908 395.3 234.408L395.1 235.408C372.1 230.808 367.8 215.908 363.3 200.008C360 188.408 356.6 176.408 345.3 168.008C335.5 160.708 325.1 158.608 314.6 161.808C296.1 167.408 281.2 188.108 275.3 204.908C267.5 226.908 254.3 240.608 236 245.608C230.6 247.308 224.7 248.008 218.3 248.008Z" fill="white"/>
<path d="M218.3 261.308C206 261.308 191.9 258.608 175.6 253.108C150.9 244.808 127.8 232.408 105.4 220.508C73.3 203.408 40.1 185.608 2.19995 179.808L2.39995 178.808C40.5 184.708 73.7999 202.408 106 219.608C128.3 231.508 151.4 243.908 176.1 252.208C200.6 260.508 220.1 262.508 235.8 258.308C254.1 253.408 266.8 240.308 274.6 218.308C280.7 201.208 295.7 180.208 314.5 174.508C325.3 171.208 336 173.308 346.1 180.708C357.7 189.208 361.1 201.408 364.5 213.208C368.9 228.708 373.1 243.408 395.4 247.908L395.2 248.908C372.3 244.308 368 229.308 363.5 213.508C360.2 201.908 356.8 189.908 345.5 181.508C335.7 174.208 325.3 172.208 314.8 175.408C296.3 181.108 281.5 201.808 275.5 218.608C267.7 240.608 254.4 254.308 236.1 259.208C230.4 260.608 224.6 261.308 218.3 261.308Z" fill="white"/>
<path d="M218.1 274.508C205.7 274.508 191.4 271.708 175.2 266.308C150.6 258.008 127.6 245.708 105.4 233.808C73.2 216.608 40 198.808 1.90002 193.108L2.10003 192.108C40.4 197.908 73.7 215.708 105.9 232.908C128.1 244.808 151.1 257.008 175.6 265.408C200.1 273.708 219.6 275.708 235.3 271.608C253.7 266.808 266.4 253.708 274.2 231.708C280.3 214.608 295.3 193.508 314.1 187.708C324.9 184.408 335.5 186.408 345.7 193.908C357.3 202.408 360.8 214.608 364.2 226.408C368.6 241.908 372.8 256.608 395 261.108L394.8 262.108C372 257.408 367.8 242.508 363.3 226.708C360 215.008 356.5 203.008 345.2 194.708C335.3 187.508 325 185.508 314.5 188.708C296.1 194.408 281.3 215.208 275.3 232.108C265.1 260.408 246.3 274.508 218.1 274.508Z" fill="white"/>
<path d="M218.2 287.908C205.7 287.908 191.3 285.108 175 279.508C150.6 271.208 127.7 258.908 105.6 247.108C73.3 229.908 40 212.008 1.80005 206.308L1.90005 205.308C40.3 211.008 73.7 228.908 106 246.208C128.1 258.008 151 270.208 175.3 278.508C199.8 286.908 219.3 288.908 235.1 284.908C253.3 280.208 266.5 266.808 274.2 245.108C280.3 227.908 295.4 206.808 314 201.008C324.8 197.708 335.4 199.708 345.6 207.108C357.3 215.608 360.8 227.808 364.2 239.708C368.6 255.208 372.8 269.808 394.9 274.508L394.7 275.508C372.1 270.708 367.8 255.808 363.3 240.008C360 228.308 356.5 216.208 345.1 208.008C335.2 200.808 324.9 198.808 314.4 202.108C296 207.808 281.2 228.608 275.2 245.608C265.1 273.808 246.3 287.908 218.2 287.908Z" fill="white"/>
<path d="M218.3 301.208C205.7 301.208 191.2 298.408 174.7 292.708C150.4 284.408 127.7 272.208 105.6 260.408C73.3 243.108 39.8 225.208 1.5 219.608L1.6 218.608C40.1 224.308 73.6 242.208 106 259.508C128 271.308 150.7 283.408 174.9 291.708C227.3 309.708 259.7 298.808 274 258.508C280.1 241.308 295.2 220.008 313.8 214.208C324.6 210.808 335.2 212.908 345.4 220.208C357.1 228.608 360.6 240.908 364 252.808C368.4 268.308 372.6 282.908 394.5 287.608L394.3 288.608C371.8 283.808 367.5 268.908 363 253.108C359.7 241.408 356.2 229.308 344.8 221.008C334.9 213.908 324.6 211.908 314.1 215.208C295.8 220.908 281 241.808 274.9 258.908C265.1 287.208 246.3 301.208 218.3 301.208Z" fill="white"/>
<path d="M218.3 314.508C205.6 314.508 191 311.608 174.4 305.908C150.3 297.608 127.6 285.508 105.7 273.708C73.3001 256.408 39.8 238.408 1.30005 232.908L1.40005 231.908C40 237.508 73.6001 255.508 106.1 272.908C128 284.608 150.6 296.708 174.6 305.008C227.1 323.108 259.6 312.408 273.9 272.108C280 254.808 295.1 233.508 313.7 227.708C324.4 224.308 335 226.308 345.2 233.608C357 242.008 360.5 254.308 363.9 266.208C368.3 281.708 372.5 296.308 394.3 301.108L394.1 302.108C371.7 297.208 367.5 282.308 363 266.508C359.6 254.808 356.2 242.608 344.7 234.408C334.8 227.308 324.4 225.408 314 228.608C295.8 234.308 280.9 255.308 274.9 272.408C265 300.608 246.3 314.508 218.3 314.508Z" fill="white"/>
<path d="M218.4 327.908C205.6 327.908 190.9 325.008 174.1 319.208C150.1 310.908 127.6 298.808 105.8 287.208C73.2999 269.808 39.7 251.808 1.19995 246.308L1.29995 245.308C40 250.808 73.7 268.908 106.3 286.308C128.1 297.908 150.6 310.008 174.5 318.308C227.2 336.608 259.8 325.908 274.1 285.608C277.4 276.208 282.8 266.808 289.3 259.008C296.8 249.908 305.3 243.708 313.9 241.008C324.6 237.608 335.2 239.608 345.4 246.808C357.2 255.208 360.8 267.508 364.2 279.408C368.6 294.908 372.8 309.508 394.5 314.308L394.3 315.308C372.1 310.308 367.8 295.508 363.3 279.708C359.9 267.908 356.4 255.808 344.9 247.608C334.9 240.508 324.6 238.608 314.2 241.908C296 247.708 281.2 268.708 275.1 285.808C265 313.908 246.4 327.908 218.4 327.908Z" fill="white"/>
<path d="M218.2 341.208C205.4 341.208 190.8 338.308 173.9 332.408C150.1 324.108 127.7 312.108 106 300.508C73.4 283.108 39.7 265.008 1.09998 259.608L1.19997 258.608C40 264.108 73.8 282.108 106.5 299.608C128.1 311.208 150.5 323.208 174.3 331.508C227.1 349.908 259.8 339.308 274.1 299.108C283 274.108 300.4 258.608 313.8 254.408C324.5 251.008 335.1 252.908 345.3 260.108C357.2 268.408 360.7 280.808 364.2 292.808C368.6 308.308 372.8 322.808 394.3 327.708L394.1 328.708C372 323.708 367.7 308.808 363.2 293.108C359.8 281.308 356.3 269.108 344.7 261.008C334.7 254.008 324.4 252.108 314.1 255.408C295.9 261.208 281.4 281.708 275.1 299.508C267.3 321.508 253.7 335.008 234.7 339.508C229.4 340.608 224 341.208 218.2 341.208Z" fill="white"/>
<path d="M218.1 354.508C205.3 354.508 190.5 351.508 173.5 345.608C149.8 337.308 127.5 325.408 106 313.808C73.3 296.308 39.6 278.208 0.800049 272.908L0.900047 271.908C39.9 277.308 73.7001 295.408 106.4 313.008C127.9 324.508 150.2 336.508 173.8 344.708C226.8 363.308 259.5 352.808 273.8 312.508C280.2 294.408 295 273.608 313.4 267.608C324 264.208 334.6 266.108 344.9 273.308C356.8 281.608 360.4 294.008 363.8 306.008C368.2 321.408 372.4 336.008 393.8 341.008L393.6 342.008C371.6 336.908 367.4 322.108 362.9 306.308C359.5 294.508 356 282.308 344.3 274.108C334.3 267.108 324 265.308 313.7 268.608C295.5 274.408 281 295.008 274.7 312.808C266.9 334.808 253.2 348.208 234.1 352.708C229.2 353.908 223.9 354.508 218.1 354.508Z" fill="white"/>
<path d="M218.4 367.708C205.4 367.708 190.3 364.708 173.4 358.708C149.9 350.408 127.7 338.508 106.3 327.008C73.6001 309.408 39.7001 291.308 0.800049 286.008L0.900047 285.008C40 290.308 73.9001 308.508 106.7 326.108C128.1 337.608 150.2 349.408 173.7 357.708C197.8 366.208 218 368.608 233.9 365.008C252.8 360.608 266.3 347.508 274 325.808C280.4 307.708 295.2 286.708 313.6 280.808C324.2 277.408 334.8 279.308 345.1 286.408C357.1 294.708 360.7 307.108 364.1 319.108C368.5 334.508 372.7 349.108 394 354.108L393.8 355.108C372 350.008 367.7 335.108 363.2 319.408C359.8 307.608 356.3 295.308 344.6 287.208C334.6 280.308 324.3 278.408 314 281.808C295.9 287.608 281.4 308.308 275 326.208C267.2 348.208 253.5 361.608 234.2 366.008C229.2 367.208 224 367.708 218.4 367.708Z" fill="white"/>
<path d="M218.4 381.008C205.3 381.008 190.1 378.008 173.1 371.908C149.7 363.608 127.7 351.808 106.3 340.408C73.5 322.808 39.5 304.608 0.5 299.408L0.599998 298.408C39.8 303.608 73.8 321.908 106.7 339.508C128 350.908 150 362.708 173.3 371.008C197.4 379.508 217.6 382.008 233.5 378.408C252.5 374.108 266 361.008 273.7 339.308C280.2 321.108 294.9 300.108 313.3 294.208C323.9 290.808 334.5 292.608 344.8 299.708C356.8 308.008 360.4 320.408 363.9 332.508C368.3 347.908 372.5 362.508 393.7 367.508L393.5 368.508C371.8 363.308 367.5 348.508 363 332.808C359.6 320.908 356 308.608 344.3 300.608C334.2 293.708 323.9 291.908 313.7 295.208C295.7 301.108 281.2 321.808 274.8 339.708C267 361.708 253.2 375.008 233.9 379.408C229.1 380.508 223.9 381.008 218.4 381.008Z" fill="white"/>
<path d="M218.3 394.408C205.1 394.408 189.9 391.308 172.7 385.208C149.5 376.908 127.5 365.208 106.3 353.808C73.4 336.108 39.4 317.908 0.300049 312.808L0.400047 311.808C39.7 316.908 73.8 335.208 106.8 352.908C128 364.308 149.9 376.008 173 384.308C197.1 392.908 217.3 395.408 233.3 391.908C252.4 387.708 266 374.508 273.7 352.908C280.2 334.708 294.9 313.608 313.2 307.608C323.7 304.208 334.3 306.008 344.7 313.008C356.8 321.208 360.4 333.708 363.9 345.808C368.3 361.208 372.6 375.708 393.5 380.908L393.3 381.908C371.8 376.608 367.5 361.808 362.9 346.108C359.5 334.208 355.9 321.908 344.1 313.908C334 307.108 323.7 305.308 313.5 308.608C295.5 314.508 281 335.308 274.6 353.308C266.8 375.308 253 388.608 233.5 392.908C228.9 393.808 223.8 394.408 218.3 394.408Z" fill="white"/>
<path d="M218.3 407.608C205 407.608 189.7 404.508 172.5 398.408C149.4 390.108 127.6 378.408 106.5 367.108C73.4999 349.408 39.4 331.108 0.199951 326.008L0.299953 325.008C39.7 330.108 73.8999 348.408 107 366.208C128.1 377.508 149.8 389.208 172.8 397.408C203 408.208 227.3 409.508 244.8 401.208C257.9 395.008 267.7 383.208 273.7 366.308C280.2 348.008 295 326.908 313.2 320.908C323.7 317.408 334.3 319.208 344.7 326.208C356.8 334.408 360.5 346.908 364 359.008C368.5 374.408 372.7 388.908 393.5 394.108L393.3 395.108C371.9 389.808 367.6 375.008 363.1 359.308C359.6 347.408 356.1 335.008 344.2 327.008C334.1 320.208 323.8 318.408 313.6 321.808C295.7 327.708 281.2 348.608 274.8 366.608C268.7 383.808 258.8 395.808 245.4 402.108C237.5 405.808 228.5 407.608 218.3 407.608Z" fill="white"/>
<path d="M218.3 421.008C205 421.008 189.6 417.908 172.2 411.608C149.3 403.408 127.6 391.708 106.6 380.408C73.5 362.608 39.3 344.308 0 339.308L0.0999985 338.308C39.6 343.308 73.9 361.708 107 379.508C127.9 390.808 149.6 402.408 172.5 410.608C202.8 421.508 227.2 422.808 244.8 414.508C257.9 408.308 267.6 396.608 273.7 379.708C277.1 370.108 282.5 360.508 288.7 352.708C296.1 343.408 304.6 337.008 313.1 334.208C323.6 330.708 334.2 332.508 344.6 339.408C356.8 347.508 360.4 360.108 363.9 372.208C368.4 387.608 372.6 402.108 393.3 407.308L393.1 408.308C371.8 402.908 367.3 387.408 363 372.508C359.5 360.508 356 348.208 344.1 340.208C334 333.408 323.7 331.708 313.5 335.108C295.7 341.008 281.2 361.908 274.7 380.108C268.6 397.208 258.7 409.108 245.3 415.508C237.5 419.108 228.5 421.008 218.3 421.008Z" fill="white"/>
</svg>
