<svg width="410" height="411" viewBox="0 0 410 411" fill="none" xmlns="http://www.w3.org/2000/svg">
<path d="M149.572 402.618C144.772 402.618 139.872 401.818 135.072 400.118C118.272 394.218 107.372 379.418 106.672 361.518L104.572 304.418L47.472 302.018C29.672 301.318 14.872 290.318 9.07195 273.418C3.27195 256.518 7.97196 238.818 21.572 227.218L64.872 190.018L31.172 143.918C20.672 129.518 19.972 111.218 29.572 96.1183C39.072 81.0183 55.972 73.7183 73.472 77.0183L129.572 87.6183L144.572 32.5183C149.272 15.3183 163.172 3.41826 180.972 1.41826C198.672 -0.581735 214.972 8.01826 223.272 23.8183L249.972 74.3183L302.372 51.7183C318.772 44.6183 336.772 48.1183 349.372 60.8183C361.972 73.5183 365.372 91.5183 358.172 107.818L335.272 160.118L385.672 187.018C401.372 195.418 409.972 211.718 407.872 229.418C405.872 247.118 393.872 261.018 376.572 265.618L321.372 280.418L331.772 336.618C334.972 354.218 327.572 370.918 312.472 380.418C297.372 389.918 278.972 389.218 264.672 378.518L218.772 344.718L181.372 387.818C172.972 397.518 161.572 402.618 149.572 402.618ZM65.172 77.3183C51.072 77.3183 38.272 84.3183 30.472 96.7183C21.172 111.418 21.772 129.318 32.072 143.418L66.272 190.218L22.272 228.018C9.07195 239.418 4.37195 256.718 10.072 273.118C15.772 289.618 30.172 300.318 47.572 301.018L105.572 303.418L107.672 361.418C108.272 378.818 118.972 393.218 135.372 399.018C151.772 404.818 169.172 400.218 180.572 387.118L218.572 343.318L265.272 377.818C279.272 388.218 297.172 388.918 311.972 379.618C326.772 370.418 333.972 354.018 330.772 336.818L320.272 279.718L320.672 279.618L376.272 264.718C393.072 260.218 404.772 246.618 406.772 229.318C408.772 212.018 400.472 196.118 385.072 187.918L333.872 160.618L357.072 107.418C364.072 91.4183 360.772 73.8183 348.472 61.5183C336.172 49.2183 318.772 45.9183 302.772 52.8183L249.472 75.8183L222.372 24.5183C214.272 9.11827 198.372 0.718265 181.072 2.61827C163.772 4.51827 150.172 16.1183 145.572 33.0183L130.272 89.0183L73.272 78.2183C70.572 77.5183 67.872 77.3183 65.172 77.3183Z" fill="white"/>
<path d="M139.372 398.218C133.672 398.218 127.772 397.018 122.172 394.618C105.772 387.518 95.9721 372.018 96.5721 354.218L98.4721 297.118L41.7721 290.718C24.0721 288.718 10.0721 276.818 5.47207 259.518C0.772074 242.318 6.77207 224.918 21.1721 214.318L66.9721 180.218L36.5721 131.918C27.0721 116.818 27.7721 98.5181 38.2721 84.1181C48.8721 69.7181 66.1721 63.6181 83.3721 68.1181L138.572 82.6181L157.372 28.7181C163.272 11.8181 177.972 0.9181 195.872 0.2181C213.672 -0.4819 229.272 9.2181 236.472 25.5181L259.572 77.7181L313.472 58.8181C330.272 52.9181 348.072 57.6181 359.772 71.1181C371.472 84.6181 373.572 102.818 365.272 118.618L338.772 169.218L387.172 199.618C402.272 209.118 409.672 225.918 406.372 243.418C403.072 260.918 390.172 274.018 372.672 277.418L316.572 288.318L322.972 345.018C324.972 362.718 316.472 379.018 300.672 387.418C284.872 395.818 266.672 393.818 253.072 382.218L209.572 345.218L169.172 385.618C160.972 393.918 150.372 398.218 139.372 398.218ZM72.0721 67.5181C59.1721 67.5181 47.0721 73.5181 38.9721 84.5181C28.6721 98.6181 27.9721 116.518 37.2721 131.218L68.1721 180.318L21.6721 215.018C7.67207 225.418 1.87207 242.318 6.37207 259.218C10.8721 276.118 24.4721 287.718 41.8721 289.618L99.5721 296.118V296.618L97.6721 354.118C97.0721 371.518 106.672 386.718 122.672 393.618C138.672 400.518 156.272 397.218 168.572 384.818L209.572 343.818L253.772 381.518C267.072 392.818 284.872 394.818 300.272 386.618C315.672 378.418 323.972 362.618 322.072 345.218L315.572 287.518L372.572 276.518C389.672 273.218 402.272 260.518 405.472 243.318C408.672 226.218 401.472 209.818 386.672 200.518L337.572 169.718L364.472 118.318C372.572 102.818 370.472 85.1181 359.072 71.9181C347.672 58.7181 330.372 54.1181 313.872 59.9181L259.072 79.1181L235.672 26.0181C228.672 10.1181 213.372 0.618098 195.972 1.3181C178.572 2.0181 164.172 12.7181 158.372 29.1181L139.272 83.9181L138.872 83.8181L83.1721 69.2181C79.3721 68.0181 75.6721 67.5181 72.0721 67.5181Z" fill="white"/>
<path d="M270.572 397.318C259.772 397.318 249.272 393.118 241.072 385.018L200.272 345.018L157.172 382.518C143.672 394.218 125.472 396.418 109.672 388.218C93.872 380.018 85.072 363.818 86.972 346.118L92.872 289.318L36.672 279.018C19.072 275.818 6.07199 262.918 2.57199 245.418C-0.928011 227.918 6.27199 211.018 21.372 201.418L69.472 170.618L42.472 120.318C34.072 104.618 35.972 86.3183 47.572 72.7183C59.072 59.1183 76.772 54.2183 93.672 59.9183L147.772 78.2183L170.272 25.7183C177.372 9.31826 192.772 -0.481743 210.672 0.0182571C228.472 0.518257 243.372 11.3183 249.472 28.1183L268.872 81.8183L323.972 66.7183C341.172 62.0183 358.572 67.9183 369.272 82.2183C379.972 96.5183 380.872 114.818 371.472 130.018L341.572 178.618L387.672 212.318C402.072 222.818 408.272 240.118 403.772 257.418C399.272 274.718 385.472 286.818 367.772 288.918L311.072 295.818L313.472 352.818C314.272 370.618 304.572 386.218 288.272 393.518C282.472 396.018 276.472 397.318 270.572 397.318ZM200.372 343.618L200.672 343.918L241.772 384.218C254.172 396.418 271.872 399.618 287.772 392.518C303.672 385.418 313.172 370.218 312.372 352.818L309.872 294.818L310.372 294.718L367.472 287.718C384.772 285.618 398.272 273.818 402.672 256.918C407.072 240.018 401.072 223.218 386.972 212.918L340.072 178.718L370.472 129.318C379.572 114.418 378.772 96.6183 368.372 82.6183C357.872 68.7183 340.972 62.8183 324.172 67.4183L268.172 82.7183L248.472 28.1183C242.572 11.7183 228.072 1.21826 210.672 0.718258C193.272 0.218258 178.172 9.81826 171.272 25.8183L148.372 79.1183L93.472 60.5183C76.972 54.9183 59.672 59.7183 48.472 73.0183C37.272 86.3183 35.272 104.118 43.572 119.518L70.972 170.718L70.572 170.918L22.172 202.018C7.47199 211.418 0.471988 227.918 3.87199 245.018C7.27199 262.118 19.972 274.718 37.172 277.818L94.272 288.318L88.372 346.018C86.572 363.318 95.072 379.118 110.572 387.118C126.072 395.118 143.872 393.018 156.972 381.618L200.372 343.618Z" fill="white"/>
<path d="M260.472 401.318C248.672 401.318 237.372 396.318 228.972 386.918L191.072 344.218L145.472 378.618C131.172 389.418 112.872 390.218 97.6718 380.918C82.4718 371.618 74.8718 354.918 77.9718 337.318L87.7718 281.018L32.4718 266.818C15.1718 262.418 3.07182 248.618 0.871825 230.918C-1.32818 213.218 6.97183 196.918 22.6718 188.318L72.7718 160.918L49.3718 108.818C42.0718 92.5184 45.2718 74.5184 57.7718 61.7184C70.2718 48.9184 88.1718 45.3184 104.672 52.2184L157.372 74.3184L183.572 23.5184C191.772 7.6184 207.872 -1.0816 225.672 0.618397C243.472 2.4184 257.472 14.2184 262.372 31.3184L277.772 86.2184L333.772 75.0184C351.272 71.5184 368.172 78.6184 377.872 93.6184C387.572 108.618 387.072 126.918 376.772 141.518L343.572 187.918L387.272 224.718C400.972 236.218 405.872 253.918 400.172 270.818C394.472 287.718 379.872 298.818 362.072 299.718L305.072 302.718L303.572 359.818C303.072 377.618 292.372 392.518 275.572 398.618C270.472 400.418 265.372 401.318 260.472 401.318ZM191.272 342.818L229.772 386.218C241.372 399.218 258.672 403.718 275.072 397.718C291.472 391.718 301.972 377.218 302.372 359.818L303.972 301.818H304.472L361.972 298.818C379.372 297.918 393.672 287.118 399.172 270.518C404.672 253.918 399.872 236.718 386.572 225.518L342.172 188.118L342.472 187.718L375.972 140.918C386.072 126.718 386.572 108.818 377.072 94.2184C367.572 79.6184 351.072 72.6184 333.972 76.0184L277.072 87.4184L261.272 31.6184C256.472 14.8184 242.772 3.3184 225.472 1.6184C208.172 -0.0816026 192.372 8.41839 184.372 23.9184L157.772 75.5184L104.272 53.1184C88.1718 46.4184 70.6718 49.9184 58.4718 62.4184C46.2718 74.9184 43.1718 92.5184 50.2718 108.418L74.0718 161.318L23.1718 189.218C7.87183 197.618 -0.328175 213.518 1.87182 230.818C4.07182 248.118 15.8718 261.518 32.7718 265.918L88.9718 280.318L78.9718 337.518C75.9718 354.718 83.3718 371.018 98.2718 380.118C113.172 389.218 131.072 388.318 144.972 377.818L191.272 342.818Z" fill="white"/>
<path d="M250.172 404.618C237.272 404.618 225.172 398.718 216.872 387.918L182.072 342.618L134.172 373.718C119.172 383.418 100.872 383.018 86.2718 372.718C71.7718 362.318 65.3718 345.218 69.6718 327.818L83.3718 272.418L29.1718 254.418C12.2718 248.818 1.07184 234.218 0.0718443 216.418C-0.928156 198.618 8.57184 182.918 24.7718 175.418L76.6718 151.618L56.9718 98.0181C50.7718 81.2181 55.2718 63.4181 68.5718 51.6181C81.8718 39.7181 100.072 37.3181 116.072 45.4181L167.072 71.1181L196.772 22.2181C206.072 6.91811 222.772 -0.68189 240.372 2.31811C257.972 5.31811 271.172 18.0181 274.872 35.5181L286.572 91.4181L343.172 84.1181C360.872 81.8181 377.272 90.1181 385.872 105.818C394.472 121.418 392.772 139.718 381.372 153.518L344.972 197.518L385.972 237.218C398.772 249.618 402.472 267.618 395.672 284.118C388.972 300.318 373.972 310.318 356.472 310.318C356.172 310.318 355.872 310.318 355.672 310.318L298.572 309.318L293.072 366.118C291.372 383.918 279.572 398.018 262.472 402.918C258.172 404.118 254.172 404.618 250.172 404.618ZM182.272 341.318L217.672 387.318C228.272 401.118 245.272 406.718 262.072 401.918C278.872 397.118 290.272 383.318 291.972 366.018L297.572 308.218H298.072L355.672 309.218C373.172 309.518 388.072 299.718 394.772 283.618C401.472 267.518 397.872 250.018 385.372 237.818L343.672 197.418L380.672 152.718C391.772 139.318 393.472 121.418 385.072 106.218C376.672 90.9181 360.672 82.8181 343.372 85.0181L285.772 92.4181L273.772 35.7181C270.172 18.6181 257.272 6.21811 240.072 3.31811C222.872 0.41811 206.572 7.81811 197.572 22.7181L167.472 72.3181L115.672 46.2181C100.072 38.4181 82.3718 40.7181 69.3718 52.3181C56.3718 63.9181 51.9718 81.3181 57.9718 97.6181L77.9718 152.118L25.2718 176.318C9.47184 183.618 0.171847 198.918 1.17185 216.318C2.17185 233.718 12.9718 247.918 29.5718 253.418L84.6718 271.718L70.7718 328.018C66.5718 344.918 72.7718 361.718 86.9718 371.818C101.172 381.918 119.072 382.318 133.672 372.818L182.272 341.318Z" fill="white"/>
<path d="M239.672 407.218C225.672 407.218 212.772 400.318 204.572 388.118L172.972 340.518L123.072 368.218C107.472 376.918 89.1716 375.218 75.3716 363.918C61.5716 352.618 56.3716 335.018 61.8716 318.018L79.3716 263.718L26.5716 241.918C10.0716 235.118 -0.0283608 219.818 0.271639 201.918C0.571639 184.018 11.0716 169.018 27.7716 162.718L81.1716 142.518L65.2716 87.718C60.2716 70.618 65.9716 53.118 80.0716 42.218C94.1716 31.318 112.472 30.218 127.872 39.318L176.972 68.518L209.972 21.918C220.272 7.31801 237.472 0.918019 254.772 5.11802C272.072 9.31802 284.372 23.018 286.872 40.618L294.772 97.218L351.772 93.918C369.572 92.918 385.372 102.318 392.872 118.518C400.372 134.718 397.372 152.818 385.072 165.718L345.672 207.118L383.772 249.618C395.672 262.918 398.172 281.118 390.172 297.018C382.172 313.018 366.172 321.918 348.372 320.418L291.472 315.418L281.972 371.718C278.972 389.318 266.372 402.618 248.872 406.318C245.772 406.918 242.672 407.218 239.672 407.218ZM173.372 339.218L205.472 387.618C215.072 402.118 231.672 408.918 248.772 405.318C265.872 401.718 278.172 388.718 281.072 371.518L290.672 314.318H291.172L348.472 319.318C365.872 320.818 381.472 312.118 389.272 296.518C397.072 280.918 394.672 263.218 383.072 250.218L344.372 207.018L344.672 206.718L384.372 165.018C396.372 152.418 399.272 134.718 391.972 118.918C384.672 103.118 369.272 93.918 351.872 94.918L293.972 98.318L286.072 40.818C283.672 23.518 271.672 10.218 254.772 6.11802C237.872 2.01802 221.072 8.21802 210.972 22.518L177.472 69.918L127.472 40.218C112.472 31.318 94.5716 32.418 80.7716 43.018C66.9716 53.718 61.4716 70.718 66.2716 87.418L82.4716 143.118L28.1716 163.618C11.8716 169.818 1.57164 184.418 1.27164 201.818C0.971639 219.218 10.8716 234.218 26.9716 240.818L80.5716 262.918L62.7716 318.118C57.3716 334.718 62.4716 351.918 75.9716 363.018C89.4716 374.118 107.272 375.718 122.472 367.218L173.372 339.218Z" fill="white"/>
<path d="M228.972 409.118C213.772 409.118 200.072 401.218 192.272 387.518L164.072 337.818L112.372 362.018C96.1717 369.618 78.0717 366.618 65.1717 354.318C52.1717 342.018 48.2717 324.118 54.9717 307.518L76.2717 254.518L25.0717 229.218C9.07169 221.318 0.071681 205.318 1.57168 187.518C3.07168 169.718 14.6717 155.518 31.7717 150.318L86.4717 133.918L74.4717 78.1182C70.6717 60.6182 77.5717 43.6182 92.4717 33.7182C107.372 23.8182 125.672 24.0182 140.372 34.1182L187.272 66.6182L223.372 22.4182C234.672 8.61821 252.272 3.41822 269.272 8.81822C286.272 14.2182 297.572 28.7182 298.772 46.5182L302.572 103.518L359.672 104.218C377.572 104.418 392.572 114.918 398.872 131.618C405.272 148.318 400.972 166.118 387.772 178.218L345.572 216.718L380.672 261.818C391.672 275.918 392.772 294.218 383.772 309.618C374.672 325.018 358.072 332.818 340.472 330.018L284.072 321.018L270.772 376.518C266.572 393.918 252.972 406.218 235.372 408.718C233.172 408.918 231.072 409.118 228.972 409.118ZM164.572 336.518L193.172 387.018C201.772 402.218 217.872 410.118 235.072 407.718C252.372 405.218 265.672 393.218 269.772 376.218L283.372 319.818L340.672 328.918C357.872 331.618 374.072 324.018 382.972 309.018C391.872 294.018 390.672 276.118 379.972 262.418L344.372 216.618L387.172 177.518C400.072 165.718 404.172 148.318 397.972 132.018C391.772 115.718 377.072 105.518 359.672 105.218L301.672 104.518L297.772 46.7182C296.572 29.3182 285.572 15.2182 268.972 9.91822C252.372 4.61822 235.172 9.71822 224.172 23.2182L187.472 68.1182L187.072 67.8182L139.772 35.0182C125.472 25.1182 107.572 24.9182 93.0717 34.6182C78.5717 44.3182 71.8717 60.9182 75.4717 77.9182L87.6717 134.618L87.2717 134.718L32.1717 151.218C15.4717 156.218 4.17168 170.118 2.67168 187.518C1.17168 204.918 9.97169 220.518 25.5717 228.218L77.5717 254.018L55.9717 307.818C49.4717 324.018 53.2717 341.518 65.9717 353.518C78.6717 365.518 96.2717 368.318 112.072 361.018L164.572 336.518Z" fill="white"/>
<path d="M218.372 410.218C201.872 410.218 187.472 401.118 180.172 386.018L155.572 334.518L102.272 355.018C85.572 361.418 67.772 357.218 55.672 344.118C43.572 331.018 40.972 312.818 48.772 296.718L73.672 245.318L24.472 216.418C9.07195 207.418 1.17196 190.818 3.97196 173.218C6.67196 155.618 19.272 142.218 36.672 138.218L92.372 125.718L84.272 69.2181C81.772 51.5181 89.772 35.0181 105.272 26.2181C120.772 17.4181 139.072 18.8181 152.972 30.0181L197.472 65.7181L236.572 24.1181C248.772 11.1181 266.672 7.11808 283.272 13.7181C299.872 20.3181 310.172 35.5181 310.072 53.4181L309.872 110.518L366.772 115.218C384.572 116.718 398.872 128.218 403.972 145.318C409.072 162.418 403.672 179.918 389.672 191.018L344.972 226.518L376.772 273.918C386.772 288.718 386.572 307.118 376.472 321.818C366.372 336.518 349.272 343.118 331.872 339.118L276.272 326.218L259.072 380.618C253.672 397.618 239.272 409.018 221.472 410.218C220.472 410.218 219.472 410.218 218.372 410.218ZM156.072 333.218L181.072 385.618C188.572 401.318 204.072 410.418 221.472 409.118C238.872 407.918 252.972 396.818 258.172 380.218L275.672 324.918L276.172 325.018L332.272 338.018C349.272 341.918 365.972 335.518 375.872 321.118C385.772 306.718 385.872 288.818 376.172 274.418L343.772 226.118L389.272 190.118C402.972 179.318 408.272 162.218 403.272 145.518C398.272 128.818 384.272 117.618 366.872 116.118L309.072 111.418L309.272 53.4181C309.372 36.0181 299.272 21.1181 283.072 14.7181C266.872 8.31808 249.372 12.1181 237.472 24.8181L197.672 67.1181L152.372 30.8181C138.772 19.9181 120.872 18.5181 105.772 27.1181C90.672 35.7181 82.772 51.8181 85.272 69.1181L93.472 126.518L36.872 139.218C19.872 143.018 7.67196 156.118 4.97196 173.318C2.27196 190.518 9.97195 206.718 24.972 215.518L74.972 244.918L49.672 297.118C42.072 312.818 44.672 330.518 56.472 343.318C68.272 356.118 85.672 360.218 101.972 354.018L156.072 333.218Z" fill="white"/>
<path d="M207.772 410.618C189.872 410.618 174.772 400.318 168.172 383.718L147.172 330.618L92.5716 347.318C75.4716 352.518 57.9716 347.118 46.8716 333.118C35.7716 319.118 34.3716 300.918 43.2716 285.418L71.7716 235.918L24.6716 203.618C9.97162 193.518 3.27162 176.418 7.27162 159.018C11.2716 141.618 24.6716 129.118 42.3716 126.418L98.7716 117.818L94.5716 60.9183C93.2716 43.1183 102.472 27.2183 118.572 19.5183C134.672 11.8183 152.772 14.5183 165.872 26.6183L207.772 65.4183L249.672 26.6183C262.772 14.5183 280.972 11.8183 296.972 19.5183C313.072 27.2183 322.272 43.1183 320.972 60.9183L316.772 117.818L373.172 126.418C390.772 129.118 404.272 141.618 408.272 159.018C412.272 176.418 405.572 193.518 390.872 203.618L343.772 235.918L372.272 285.418C381.172 300.918 379.772 319.218 368.672 333.118C357.572 347.118 339.972 352.518 322.972 347.318L268.372 330.618L247.372 383.718C240.772 400.318 225.672 410.618 207.772 410.618ZM147.772 329.318L169.072 383.318C175.472 399.518 190.272 409.618 207.672 409.618C225.072 409.618 239.872 399.518 246.272 383.318L267.572 329.318L267.972 329.418L322.972 346.318C339.672 351.418 356.772 346.118 367.672 332.518C378.572 318.918 379.872 301.018 371.172 285.918L342.272 235.618L390.172 202.818C404.572 192.918 411.072 176.318 407.172 159.318C403.272 142.318 390.172 130.118 372.972 127.518L315.572 118.718L319.772 60.8183C321.072 43.4183 312.072 27.9183 296.372 20.3183C280.672 12.7183 262.972 15.4183 250.172 27.2183L207.772 66.6183L165.172 27.2183C152.372 15.4183 134.672 12.7183 118.972 20.3183C103.272 27.9183 94.2716 43.4183 95.5716 60.8183L99.7716 118.718L99.2716 118.818L42.3716 127.518C25.1716 130.118 11.9716 142.318 8.17162 159.318C4.27162 176.318 10.7716 193.018 25.1716 202.818L73.0716 235.618L44.1716 285.918C35.4716 301.018 36.8716 318.918 47.6716 332.518C58.5716 346.118 75.6716 351.418 92.3716 346.318L147.772 329.318Z" fill="white"/>
</svg>
