<svg width="398" height="402" viewBox="0 0 398 402" fill="none" xmlns="http://www.w3.org/2000/svg">
<path d="M397.066 401.2H0.165684V400.7C0.165684 356.1 0.165686 311.6 0.065686 267C-0.034314 179.6 -0.0343155 89.3 0.165684 0.5V0H0.665684C87.9657 0 175.166 0 262.466 0H397.066V401.2ZM1.16568 400.2H396.066V1H262.466C175.366 1 88.2657 1 1.16568 1C0.965684 89.7 1.06569 179.8 1.06569 267C1.16569 311.4 1.16568 355.8 1.16568 400.2Z" fill="white"/>
<path d="M105.466 28.9C86.5655 28.9 67.7655 28.6 49.1655 28.3C33.2655 28 16.7655 27.8 0.665527 27.7V26.7C16.7655 26.8 33.2655 27 49.1655 27.3C99.8655 28.1 152.266 29 203.266 23.5C233.966 20.1 260.066 20.4 288.066 24.4C314.566 28.1 342.165 27.6 368.866 27.1C377.966 26.9 387.366 26.8 396.566 26.8V27.8C387.366 27.8 377.966 28 368.866 28.1C342.066 28.6 314.466 29.1 287.866 25.4C259.966 21.5 233.866 21.2 203.366 24.5C171.066 28 138.166 28.9 105.466 28.9Z" fill="white"/>
<path d="M343.466 56.3002C325.666 56.3002 308.165 54.5002 294.366 47.3002C266.665 33.0002 245.166 37.8002 215.366 44.4002L211.866 45.2002C153.466 58.1002 97.2655 56.6002 37.6655 55.1002C25.5655 54.8002 13.0655 54.5002 0.665527 54.3002V53.3002C13.0655 53.5002 25.5655 53.8002 37.6655 54.1002C97.1655 55.6002 153.366 57.1002 211.666 44.2002L215.166 43.4002C245.166 36.7002 266.866 31.9002 294.866 46.4002C315.966 57.3002 345.766 55.7002 372.066 54.2002C380.766 53.7002 389.066 53.3002 396.666 53.3002V54.3002C389.066 54.3002 380.866 54.8002 372.166 55.2002C362.766 55.8002 353.066 56.3002 343.466 56.3002Z" fill="white"/>
<path d="M129.466 85.3001C122.866 85.3001 116.066 84.9001 109.466 84.5001C105.266 84.3001 100.866 84.0001 96.6659 83.9001C88.3659 83.6001 80.1659 83.4001 71.8659 83.1001C48.4659 82.3001 24.3659 81.5001 0.565918 81.1001V80.1001C24.3659 80.5001 48.4659 81.3001 71.8659 82.1001C80.1659 82.4001 88.3659 82.7001 96.6659 82.9001C100.866 83.0001 105.166 83.3001 109.466 83.5001C122.666 84.3001 136.266 85.0001 148.366 82.8001C164.666 79.7001 197.466 73.0001 215.966 67.9001C219.966 66.8001 224.266 65.5001 228.766 64.1001C243.866 59.4001 261.066 54.0001 275.766 55.8001C284.966 56.9001 288.566 60.9001 293.266 66.0001C294.766 67.6001 296.266 69.2001 298.066 71.0001C313.366 85.5001 347.366 83.1001 374.666 81.2001C382.766 80.6001 390.366 80.1001 396.466 80.1001V81.1001C390.366 81.1001 382.766 81.6001 374.766 82.2001C347.266 84.1001 312.966 86.6001 297.366 71.8001C295.566 70.0001 293.966 68.4001 292.566 66.8001C288.066 61.9001 284.566 58.0001 275.666 56.9001C261.166 55.1001 244.066 60.4001 229.066 65.1001C224.566 66.5001 220.266 67.8001 216.266 69.0001C197.666 74.1001 164.866 80.8001 148.566 83.9001C142.466 84.9001 136.066 85.3001 129.466 85.3001Z" fill="white"/>
<path d="M165.666 116.3C157.466 116.3 148.866 115.1 139.166 112.5C126.966 109.2 113.566 109.5 100.666 109.7C95.4655 109.8 90.1655 109.9 84.9655 109.8C77.4655 109.6 69.9655 109.4 62.5655 109.2C42.2655 108.6 21.2655 108 0.665527 107.7V106.7C21.2655 107 42.2655 107.6 62.5655 108.2C70.0655 108.4 77.5655 108.6 84.9655 108.8C90.0655 108.9 95.3655 108.8 100.566 108.7C113.566 108.4 126.966 108.2 139.366 111.5C167.466 119 186.166 114.7 215.066 103C244.666 91.0001 264.766 84.8001 294.566 99.9001C315.866 110.6 345.566 109 371.866 107.6C380.665 107.1 388.866 106.7 396.566 106.7V107.7C388.966 107.7 380.666 108.1 371.966 108.6C345.566 110 315.766 111.6 294.166 100.8C265.666 86.4001 247.466 91.0001 215.466 104C196.366 111.8 181.666 116.3 165.666 116.3Z" fill="white"/>
<path d="M178.166 163.5C176.066 163.5 173.866 163.3 171.566 162.9C159.766 161 148.866 155.6 138.266 150.4C133.566 148.1 128.766 145.7 123.866 143.7C95.3655 131.7 61.2655 132.8 28.3655 133.9C18.6655 134.2 9.56553 134.5 0.665527 134.5V133.5C9.56553 133.5 18.6655 133.2 28.3655 132.9C61.4655 131.8 95.6655 130.8 124.366 142.8C129.166 144.8 134.066 147.2 138.766 149.5C149.266 154.7 160.166 160 171.766 161.9C188.566 164.7 198.666 156.8 211.366 146.9L215.266 143.9C226.066 135.5 235.366 128.3 249.966 127.1C259.266 126.3 268.866 128 278.066 129.5C281.366 130.1 284.766 130.6 287.966 131.1C314.466 134.7 342.165 134.2 368.866 133.7C377.966 133.5 387.466 133.4 396.666 133.4V134.4C387.466 134.4 378.066 134.6 368.866 134.7C342.066 135.2 314.366 135.7 287.866 132.1C284.566 131.7 281.165 131.1 277.866 130.5C268.665 128.9 259.166 127.3 249.966 128.1C235.666 129.3 226.466 136.4 215.866 144.7L211.966 147.7C201.166 156.1 191.666 163.5 178.166 163.5Z" fill="white"/>
<path d="M185.866 200.4C183.566 200.4 181.066 200.2 178.366 199.7C163.066 197 148.466 189.4 134.366 182C127.966 178.7 121.366 175.2 114.866 172.4C85.4655 159.4 53.3655 160.1 22.2655 160.8C15.1655 161 7.86553 161.1 0.665527 161.1V160.1C7.86553 160.1 15.1655 159.9 22.2655 159.8C53.4655 159.1 85.6655 158.4 115.266 171.5C121.766 174.4 128.366 177.8 134.766 181.2C148.866 188.5 163.366 196.1 178.566 198.8C196.366 201.9 202.366 194.7 212.466 180.5C220.866 168.7 225.466 162.2 240.766 160.2C250.166 159 260.366 159.4 270.166 159.8C274.966 160 279.866 160.2 284.466 160.2C300.766 160.2 317.066 160.2 333.366 160.2C354.466 160.2 375.466 160.2 396.566 160.2V161.2C375.466 161.2 354.466 161.2 333.366 161.2C317.066 161.2 300.766 161.2 284.466 161.2C279.766 161.2 274.866 161 270.066 160.8C260.266 160.4 250.166 160 240.766 161.2C225.866 163.2 221.366 169.5 213.166 181.1C204.766 192.9 198.766 200.4 185.866 200.4Z" fill="white"/>
<path d="M177.666 216.6C175.566 216.6 173.366 216.4 171.066 216.1C157.266 214.1 143.866 208.6 130.866 203.3C124.966 200.9 118.866 198.4 112.866 196.3C83.9655 186.2 52.8655 186.8 22.8655 187.5C15.5655 187.7 7.96553 187.8 0.665527 187.8V186.8C8.06553 186.8 15.5655 186.6 22.8655 186.5C53.0655 185.9 84.2655 185.2 113.266 195.4C119.266 197.5 125.366 200 131.266 202.4C144.166 207.7 157.566 213.2 171.266 215.2C188.566 217.7 198.366 210.4 211.966 200.4L213.066 199.6C225.766 190.2 234.566 184.4 249.266 182.5C256.066 181.6 263.066 181 269.866 180.5C276.266 180 282.866 179.4 289.366 178.6C312.866 175.7 333.866 178.8 355.966 182.2C369.066 184.2 382.566 186.2 396.566 186.8V187.8C382.466 187.2 368.966 185.1 355.866 183.2C333.766 179.9 312.866 176.8 289.466 179.6C282.966 180.4 276.366 181 269.966 181.5C263.166 182.1 256.266 182.6 249.466 183.5C235.066 185.4 226.366 191.1 213.766 200.4L212.666 201.2C201.066 209.7 191.566 216.6 177.666 216.6Z" fill="white"/>
<path d="M160.966 222.5C144.466 222.5 127.966 220.2 108.866 217.2C82.3659 213 54.6659 213.6 27.8659 214.1C18.8659 214.3 9.66592 214.5 0.565918 214.5V213.5C9.56592 213.5 18.8659 213.3 27.8659 213.1C54.6659 212.6 82.4659 212 108.966 216.2C147.566 222.3 175.766 225.4 214.166 212.6C226.966 208.3 239.966 205.6 252.566 202.9C267.666 199.7 283.266 196.4 298.366 190.5C324.566 180.2 342.566 189.5 361.666 199.4C372.366 204.9 383.366 210.7 396.566 213.5L396.366 214.5C382.966 211.6 371.866 205.9 361.166 200.3C342.266 190.5 324.466 181.3 298.666 191.4C283.566 197.4 267.866 200.7 252.766 203.9C240.266 206.6 227.266 209.3 214.466 213.5C194.966 220.1 178.066 222.5 160.966 222.5Z" fill="white"/>
<path d="M93.4655 242.1C77.9655 242.1 62.4655 241.9 47.0655 241.6C31.8655 241.4 16.0655 241.1 0.665527 241.1V240.1C16.0655 240.1 31.8655 240.3 47.0655 240.6C102.566 241.5 159.866 242.3 214.866 231.9C227.566 229.5 240.566 227.8 252.966 226.3C259.666 225.5 266.566 224.6 273.366 223.6C283.566 222.1 290.166 217.7 297.766 212.6C299.466 211.5 301.266 210.3 303.166 209.1C328.666 192.8 345.566 206.2 363.366 220.5C373.466 228.6 383.966 236.9 396.666 240.3L396.366 241.3C383.566 237.9 372.966 229.5 362.766 221.3C345.166 207.3 328.566 194.1 303.666 210C301.766 211.2 300.066 212.4 298.266 213.5C290.566 218.7 283.866 223.1 273.466 224.6C266.666 225.6 259.766 226.5 253.066 227.3C240.566 228.9 227.666 230.5 214.966 232.9C175.266 240.4 134.166 242.1 93.4655 242.1Z" fill="white"/>
<path d="M57.5655 268.6C47.9655 268.6 38.3655 268.4 28.9655 268.2C19.6655 268 10.0655 267.8 0.665527 267.8V266.8C10.0655 266.8 19.6655 267 28.9655 267.2C54.3655 267.7 80.5655 268.3 105.566 264.9C140.166 260.1 174.666 258.5 208.166 257C211.666 256.8 215.066 256.7 218.466 256.6C247.066 255.4 271.766 254.4 298.566 243.8C324.766 233.4 342.766 242.8 361.866 252.7C372.566 258.3 383.566 264 396.766 266.9L396.566 267.9C383.266 265 372.165 259.2 361.366 253.6C342.566 243.8 324.666 234.5 298.966 244.7C272.066 255.4 247.266 256.4 218.566 257.6C215.166 257.7 211.766 257.9 208.266 258C174.866 259.5 140.366 261.1 105.766 265.9C89.9655 268 73.7655 268.6 57.5655 268.6Z" fill="white"/>
<path d="M54.2655 296.3C44.8655 296.3 35.2655 295.8 25.8655 295.3C16.9655 294.9 8.66553 294.4 0.665527 294.4V293.4C8.66553 293.4 16.9655 293.8 25.8655 294.3C52.6655 295.6 80.3655 297 102.366 287.4C105.866 285.9 109.366 284.1 112.666 282.4C120.066 278.6 127.666 274.7 136.266 273.3C151.366 270.9 168.566 274.8 183.666 278.2C187.666 279.1 191.566 280 195.266 280.7C230.666 287.8 257.966 289.1 289.266 285.2C312.766 282.3 333.766 285.4 355.966 288.8C369.066 290.8 382.466 292.8 396.566 293.5V294.5C382.466 293.8 368.966 291.8 355.866 289.8C333.766 286.4 312.866 283.3 289.466 286.2C257.966 290.2 230.666 288.9 195.066 281.7C191.266 280.9 187.466 280.1 183.366 279.2C167.566 275.6 151.266 271.9 136.366 274.3C127.866 275.6 120.666 279.4 113.066 283.3C109.766 285 106.266 286.8 102.766 288.4C88.3655 294.7 71.5655 296.3 54.2655 296.3Z" fill="white"/>
<path d="M54.1655 323.5C44.2655 323.5 34.0655 322.8 24.3655 322.2C15.7655 321.6 7.76553 321.1 0.665527 321.1V320.1C7.76553 320.1 15.8655 320.6 24.4655 321.2C51.5655 323 82.1655 325 100.866 312.1C104.066 309.9 106.966 307.4 109.766 305C116.166 299.6 122.166 294.5 130.866 292.5C146.666 288.9 164.366 296.1 180.066 302.5C182.966 303.7 185.666 304.8 188.366 305.8C238.466 324.9 295.066 323 349.866 321.2C365.266 320.7 381.266 320.1 396.566 320.1V321.1C381.266 321.1 365.366 321.6 349.866 322.2C294.966 324 238.266 325.9 187.966 306.7C185.266 305.7 182.566 304.6 179.666 303.4C164.166 297.1 146.666 290 131.066 293.5C122.566 295.4 116.666 300.5 110.366 305.8C107.466 308.2 104.566 310.7 101.366 312.9C89.2655 321.4 72.0655 323.5 54.1655 323.5Z" fill="white"/>
<path d="M298.366 349.8C261.665 349.8 225.066 347.4 190.666 337.1C188.166 336.4 185.666 335.6 183.066 334.8C168.366 330.2 151.666 324.9 136.266 327.4C127.766 328.8 120.666 332.5 113.066 336.5C109.766 338.3 106.266 340.1 102.766 341.6C80.5655 351.5 51.4655 350 25.7655 348.7C16.9655 348.3 8.56553 347.8 0.665527 347.8V346.8C8.56553 346.8 16.9655 347.2 25.8655 347.7C52.6655 349.1 80.3655 350.5 102.366 340.7C105.866 339.1 109.266 337.3 112.566 335.6C119.866 331.7 127.466 327.7 136.066 326.4C151.666 323.9 168.466 329.2 183.366 333.8C185.966 334.6 188.466 335.4 190.966 336.1C240.666 351 295.366 349.4 348.266 347.8C364.266 347.3 380.766 346.8 396.566 346.8V347.8C380.766 347.8 364.266 348.3 348.266 348.8C331.766 349.3 315.066 349.8 298.366 349.8Z" fill="white"/>
<path d="M288.866 376C257.566 376 226.266 374.9 195.766 370.7C161.066 365.9 131.966 368.7 105.666 372.5C80.5655 376.1 54.2655 375.5 28.8655 374.9C19.5655 374.7 9.96553 374.5 0.665527 374.5V373.5C9.96553 373.5 19.5655 373.7 28.8655 373.9C54.2655 374.5 80.4655 375 105.466 371.5C131.866 367.7 161.066 364.9 195.866 369.7C244.066 376.3 294.366 375.3 342.966 374.3C360.566 373.9 378.766 373.5 396.466 373.5V374.5C378.766 374.5 360.566 374.9 342.966 375.3C325.166 375.7 307.066 376 288.866 376Z" fill="white"/>
<path d="M370.666 400.7H369.666C369.666 376.1 370.466 350.9 371.266 326.5C372.666 283.3 374.066 238.7 371.066 195.3C367.966 149.3 368.566 102.1 369.166 56.5C369.366 38.1 369.666 19.1 369.666 0.5H370.666C370.666 19.1 370.366 38.1 370.166 56.5C369.566 102.1 368.966 149.3 372.066 195.2C375.066 238.7 373.566 283.3 372.266 326.5C371.466 350.9 370.666 376.1 370.666 400.7Z" fill="white"/>
<path d="M344.266 400.7H343.266C343.266 393 343.266 385.3 343.166 377.6C342.966 348.4 342.866 318.2 345.166 288.6C345.766 280.8 346.666 272.9 347.466 265.2C350.366 238.9 353.266 211.7 347.166 185.7C342.466 165.9 342.766 145.3 343.066 125.4C343.166 120.6 343.166 115.7 343.166 110.8V0.5H344.166V110.8C344.166 115.7 344.066 120.6 344.066 125.4C343.766 145.2 343.466 165.7 348.166 185.4C354.266 211.6 351.366 238.8 348.466 265.2C347.666 272.9 346.766 280.8 346.166 288.6C343.866 318.1 343.966 348.3 344.166 377.5C344.266 385.3 344.266 393 344.266 400.7Z" fill="white"/>
<path d="M317.866 400.7H316.866C316.866 393.2 316.866 385.5 316.766 378.1C316.566 348 316.366 316.9 319.366 286.4C320.166 278.1 321.466 269.6 322.866 260.6C326.966 233.2 331.266 204.8 322.266 180.7C315.666 163.3 316.266 144.1 316.666 125.6C316.766 120.8 316.966 115.7 316.966 110.8C316.966 93.3 316.966 75.7 316.966 58.2C316.966 39 316.966 19.7 316.966 0.5H317.966C317.966 19.7 317.966 39 317.966 58.2C317.966 75.7 317.966 93.3 317.966 110.8C317.966 115.7 317.866 120.7 317.666 125.6C317.166 144 316.666 163.1 323.166 180.3C332.366 204.7 328.066 233.2 323.866 260.7C322.466 269.7 321.266 278.2 320.366 286.5C317.366 316.9 317.566 348 317.766 378C317.866 385.5 317.866 393.2 317.866 400.7Z" fill="white"/>
<path d="M291.466 400.7H290.466C290.466 392.6 290.366 384.3 290.266 376.3C289.866 347.1 289.466 316.9 294.266 287.8C295.466 280.2 297.366 272.2 299.366 263.8C305.866 236 312.566 207.3 298.866 183.9C286.866 163.5 290.766 142.1 294.766 119.3C295.566 115.1 296.266 110.7 296.966 106.3C300.566 82.9 297.666 61.7 294.566 39.3C292.866 26.8 291.066 13.8 290.566 0.5H291.566C292.066 13.8 293.866 26.7 295.566 39.2C298.666 61.7 301.566 82.9 297.966 106.5C297.266 110.8 296.566 115.2 295.766 119.5C291.766 142.1 287.966 163.4 299.766 183.4C313.666 207.1 306.966 236 300.466 264C298.466 272.4 296.666 280.3 295.466 287.9C290.666 317 291.066 347.1 291.466 376.3C291.366 384.3 291.466 392.6 291.466 400.7Z" fill="white"/>
<path d="M265.166 400.7H264.166C264.166 392.9 263.966 384.9 263.766 377.2C263.166 348.3 262.466 318.5 270.666 290.6C272.766 283.4 275.466 276.1 278.066 269C288.366 241.1 297.966 214.8 277.766 189.6C257.566 164.5 266.866 139.3 276.566 112.7C278.266 108.1 279.966 103.3 281.566 98.5999L282.066 96.9999C287.366 81.0999 292.866 64.7999 287.366 48.6999C284.666 40.8999 280.566 34.3999 276.566 28.0999C271.566 19.9999 266.366 11.5999 264.166 0.599903L265.166 0.399902C267.266 11.1999 272.266 19.1999 277.566 27.5999C281.566 33.9999 285.666 40.4999 288.466 48.3999C294.066 64.6999 288.566 81.2999 283.166 97.2999L282.666 98.8999C281.066 103.7 279.366 108.5 277.666 113.1C267.966 139.5 258.866 164.4 278.666 189C299.266 214.7 289.466 241.2 279.166 269.4C276.566 276.5 273.866 283.7 271.766 291C263.566 318.7 264.266 348.5 264.866 377.3C264.966 384.9 265.166 392.9 265.166 400.7Z" fill="white"/>
<path d="M238.766 400.7H237.766C237.766 392.8 237.466 384.5 237.266 376.5C236.366 347.8 235.366 318.2 245.566 291.9C248.166 285.2 251.466 278.6 254.966 271.6C261.566 258.5 268.366 244.9 269.966 231C271.766 215.2 264.966 205.6 254.266 192.7L253.666 192C245.166 181.7 237.866 172.9 238.166 158.9C238.566 142.1 246.466 125.8 254.066 110.1C256.766 104.6 259.266 99.3998 261.466 94.1998C261.966 93.0998 262.466 91.9998 262.866 90.7998C269.166 76.1998 276.966 57.9998 269.366 42.8998C265.466 35.1998 259.966 30.1998 254.666 25.3998C247.466 18.8998 240.666 12.6998 237.666 0.499805L238.666 0.299805C241.566 12.1998 248.266 18.1998 255.366 24.6998C260.766 29.5998 266.366 34.5998 270.266 42.4998C278.066 57.9998 270.166 76.3998 263.766 91.1998C263.266 92.2998 262.766 93.4998 262.366 94.5998C260.166 99.7998 257.666 105 254.966 110.5C247.366 126.1 239.566 142.3 239.166 158.9C238.866 172.5 246.066 181.2 254.466 191.3L255.066 192C265.866 205.1 272.866 214.9 270.966 231.1C269.366 245.2 262.466 258.8 255.866 272C252.366 279 249.066 285.6 246.466 292.2C236.366 318.3 237.266 347.9 238.266 376.4C238.466 384.5 238.766 392.8 238.766 400.7Z" fill="white"/>
<path d="M211.366 400.7C211.166 389.8 209.866 378.3 208.666 367.1C205.766 340 202.666 312 213.066 286.9C215.466 281 217.966 275.5 220.366 270.2C231.066 246.8 239.466 228.3 227.266 199.8C215.466 172.3 221.366 146.2 227.466 118.5C228.666 113.1 229.966 107.5 231.066 101.9C231.566 99.2999 232.166 96.6999 232.766 93.8999C236.066 78.6999 239.466 62.9999 234.566 48.7999C231.866 40.9999 227.766 34.4999 223.866 28.1999C218.766 19.9999 213.566 11.5999 211.366 0.599903L212.366 0.399902C214.466 11.1999 219.466 19.1999 224.766 27.5999C228.766 33.9999 232.866 40.4999 235.566 48.3999C240.566 62.8999 236.966 79.3999 233.766 94.0999C233.166 96.8999 232.566 99.4999 232.066 102.1C230.966 107.7 229.666 113.3 228.466 118.7C222.266 146.2 216.466 172.3 228.166 199.4C240.566 228.3 232.066 247 221.266 270.6C218.866 275.9 216.366 281.3 213.966 287.2C203.766 312.1 206.766 340 209.666 367C210.866 378.1 212.066 389.7 212.366 400.6L211.366 400.7Z" fill="white"/>
<path d="M184.966 400.7C183.966 389.3 180.966 376.6 177.766 363.1C170.766 333.5 163.566 302.8 175.166 278.7C177.266 274.2 179.766 270.1 182.266 266.1C186.866 258.5 191.266 251.3 193.166 242.3C193.866 239.1 194.366 236.1 194.866 233.1C195.966 226.5 196.966 220.2 199.866 213.1C209.366 189.5 205.266 163.1 201.366 137.6C200.266 130.6 199.166 123.3 198.366 116.3C197.266 106.4 196.566 96.2 195.866 86.4C195.266 77.3 194.566 68 193.566 58.8C192.666 50.5 191.166 42.3 189.666 34.3C187.666 23.4 185.566 12.1 185.066 0.5H186.066C186.466 12 188.566 23.3 190.666 34.2C192.166 42.2 193.666 50.4 194.566 58.8C195.566 68 196.166 77.4 196.866 86.5C197.566 96.3 198.266 106.4 199.366 116.3C200.166 123.3 201.266 130.5 202.366 137.6C206.366 163.2 210.466 189.8 200.866 213.6C198.066 220.6 196.966 226.9 195.866 233.4C195.366 236.3 194.866 239.4 194.166 242.6C192.266 251.8 187.866 259.1 183.166 266.7C180.766 270.7 178.266 274.8 176.166 279.2C164.766 303 171.966 333.5 178.866 363C182.066 376.5 185.066 389.2 186.066 400.7H184.966Z" fill="white"/>
<path d="M158.566 400.8C156.666 382.9 152.366 365.2 148.166 348.1C145.866 338.7 143.566 329.1 141.566 319.4L141.166 317.4C138.166 302.8 135.066 287.6 142.666 273.8C144.666 270.1 146.866 267.1 149.066 264.1C152.866 258.9 156.466 254 158.166 246.6C158.766 244.1 159.166 242 159.566 240.1C161.466 230.9 162.066 227.8 172.966 220.3C196.866 203.8 184.466 170.2 174.466 143.2C171.866 136.3 169.466 129.8 167.866 124C157.866 89.2 158.166 55.1 158.466 19.1C158.566 13 158.566 6.7 158.566 0.5H159.566C159.566 6.7 159.466 13 159.466 19.1C159.166 55.1 158.866 89.1 168.866 123.7C170.566 129.4 172.966 135.9 175.466 142.8C185.566 170.1 198.166 204.1 173.666 221C163.166 228.3 162.566 231 160.666 240.2C160.266 242.1 159.866 244.2 159.266 246.8C157.466 254.3 153.866 259.3 149.966 264.7C147.866 267.6 145.666 270.7 143.666 274.3C136.266 287.8 139.366 302.7 142.266 317.2L142.666 319.2C144.566 328.8 146.966 338.5 149.266 347.8C153.466 364.9 157.766 382.6 159.666 400.6L158.566 400.8Z" fill="white"/>
<path d="M132.166 400.7C131.066 388.3 128.066 375.1 124.866 361.2C118.566 333.4 111.966 304.6 120.466 279.6C122.766 272.8 124.666 265.4 126.566 258.3C130.466 243.2 134.566 227.6 142.866 215.2C156.966 194.3 154.066 168.1 151.366 142.7C150.566 135.6 149.766 128.3 149.466 121.4C149.166 116 148.966 110.3 148.866 104.9C148.466 91.8998 148.066 78.3998 146.066 65.5998C144.566 56.1998 142.166 47.0998 139.766 38.1998C136.466 26.0998 133.066 13.6998 132.266 0.399803L133.266 0.299805C134.066 13.3998 137.466 25.8998 140.666 37.8998C143.066 46.7998 145.566 55.8998 147.066 65.3998C149.066 78.2998 149.466 91.6998 149.866 104.8C150.066 110.2 150.166 115.8 150.466 121.3C150.866 128.2 151.666 135.5 152.366 142.6C155.166 168.1 157.966 194.5 143.666 215.8C135.466 228.1 131.366 243.6 127.466 258.6C125.566 265.7 123.666 273.1 121.366 280C112.966 304.8 119.466 333.4 125.766 361.1C128.966 375 131.966 388.2 133.066 400.7H132.166Z" fill="white"/>
<path d="M105.765 400.7C105.465 387 104.265 373.2 103.165 359.8C101.165 337 99.1655 313.3 101.465 289.9C102.365 280.3 103.065 270.4 103.765 260.9C104.965 242.7 106.265 223.8 109.565 205.7C110.765 199.1 111.365 192.3 112.065 185.8C112.565 180.5 113.065 175 113.865 169.7C116.165 154.5 123.465 140.7 130.565 127.5C132.565 123.7 134.765 119.7 136.665 115.8C143.765 101.5 151.865 85.1998 143.865 67.3998C139.265 57.1998 132.965 48.1998 126.865 39.5998C118.665 27.8998 110.165 15.7998 105.865 0.599804L106.865 0.299805C111.065 15.2998 119.065 26.7998 127.665 38.9998C133.765 47.6998 140.065 56.5998 144.765 66.9998C152.965 85.1998 144.865 101.7 137.565 116.2C135.565 120.1 133.465 124.1 131.465 127.9C124.465 141.1 117.165 154.7 114.865 169.8C114.065 175.2 113.565 180.6 113.065 185.9C112.465 192.5 111.765 199.2 110.565 205.9C107.265 224 106.065 242.8 104.765 261C104.165 270.5 103.465 280.4 102.465 290C100.165 313.3 102.165 336.9 104.165 359.7C105.265 373.1 106.465 387 106.765 400.7H105.765Z" fill="white"/>
<path d="M80.3656 400.7H79.3656C79.3656 368.2 79.3656 335.6 79.3656 303.1C79.3656 268.9 79.3656 234.7 79.3656 200.6C79.3656 196.6 79.1656 192.5 78.9656 188.2C78.5656 178.4 78.0656 168.2 79.8656 159.1C83.1656 143.1 95.6656 132.5 107.766 122.3C111.366 119.3 115.066 116.2 118.366 113C133.466 98.5998 141.466 85.5998 131.366 68.2998C124.966 57.3998 116.266 48.6998 107.966 40.3998C96.6656 29.1998 85.0656 17.4998 79.3656 0.599804L80.2656 0.299805C85.9656 16.9998 96.9656 28.0998 108.666 39.6998C117.066 48.0998 125.766 56.7998 132.266 67.7998C142.666 85.5998 134.566 98.9998 119.066 113.7C115.666 116.9 111.966 120 108.466 123C96.4656 133.1 84.0656 143.6 80.8656 159.2C79.0656 168.2 79.4656 178.3 79.9656 188C80.1656 192.3 80.3656 196.4 80.3656 200.4C80.3656 234.6 80.3656 268.8 80.3656 302.9C80.3656 335.7 80.3656 368.2 80.3656 400.7Z" fill="white"/>
<path d="M53.9659 400.7H52.9659V200.6C52.9659 196.6 52.7659 192.4 52.6659 188.3C52.2659 178.5 51.9659 168.4 53.5659 159.1C56.0659 144.3 65.3659 132.9 74.3659 121.9C76.8659 118.8 79.4659 115.6 81.9659 112.4C93.2659 97.3998 99.1659 84.0998 91.5659 67.3998C86.8659 57.1998 80.4659 48.1998 74.3659 39.5998C66.0659 27.8998 57.3659 15.7998 53.1659 0.599804L54.1659 0.299805C58.3659 15.3998 66.5659 26.7998 75.2659 38.9998C81.4659 47.6998 87.8659 56.5998 92.5659 66.9998C100.466 84.0998 94.3659 97.7998 82.8659 113C80.4659 116.2 77.7659 119.4 75.2659 122.5C66.3659 133.4 57.0659 144.7 54.6659 159.2C53.0659 168.4 53.4659 178.5 53.8659 188.2C53.9659 192.3 54.1659 196.5 54.1659 200.5V400.7H53.9659Z" fill="white"/>
<path d="M27.5658 400.7H26.5658V200.6C26.5658 168.3 28.3658 142.1 37.1658 111.4C44.4658 86.2999 39.1658 64.2999 33.6658 40.9999C30.5658 27.9999 27.3658 14.5999 26.4658 0.499905L27.4658 0.399902C28.3658 14.4999 31.5658 27.7999 34.5658 40.6999C40.1658 64.0999 45.3658 86.1999 38.0658 111.6C29.3658 142.2 27.5658 168.4 27.5658 200.6V400.7Z" fill="white"/>
</svg>
