<svg width="382" height="442" viewBox="0 0 382 442" fill="none" xmlns="http://www.w3.org/2000/svg">
<path d="M128.333 441.966C112.533 441.966 97.1328 438.866 85.4328 429.066C72.9328 418.666 65.7328 402.666 58.8328 387.166C56.0328 381.066 53.5328 375.266 50.6328 369.866C44.1328 357.666 36.2328 345.966 28.6328 334.666C20.7328 322.966 12.6328 310.766 5.93281 298.066C-9.16719 269.266 7.23281 250.766 25.2328 236.466C26.5328 235.466 27.9328 234.366 29.2328 233.366C50.1328 216.966 71.7328 199.966 72.9328 171.866C73.4328 158.966 71.0328 146.066 68.6328 133.466C65.7328 118.066 62.6328 102.166 65.1328 86.1662C68.5328 64.4662 82.7328 47.8662 107.333 36.6662C146.233 19.0662 192.833 11.9662 230.233 6.36621C249.433 3.46621 274.733 0.166209 300.333 0.0662085C301.533 0.0662085 302.733 0.0662085 304.133 0.0662085C315.633 -0.133791 333.133 -0.333793 342.233 6.76621C352.333 14.5662 351.433 29.9662 350.733 43.4662C350.433 48.8662 350.133 53.9662 350.533 58.2662C352.833 82.5662 362.133 105.466 371.033 127.666C372.233 130.666 373.433 133.666 374.633 136.666C385.033 162.866 386.433 181.366 362.433 198.066C328.933 221.366 321.633 239.366 320.533 261.066C320.033 272.366 320.633 283.966 321.233 295.266C322.233 314.166 323.333 333.766 318.833 352.666C312.833 377.966 295.033 397.066 264.633 411.166C238.733 423.166 207.933 429.366 183.133 434.266C180.533 434.766 178.033 435.266 175.633 435.766C162.233 438.466 145.033 441.966 128.333 441.966ZM309.933 0.966208C307.933 0.966208 305.933 0.966208 304.233 0.966208C302.833 0.966208 301.633 0.966208 300.433 0.966208C274.833 1.06621 249.633 4.36621 230.433 7.26621C193.033 12.8662 146.533 19.9662 107.733 37.4662C83.4328 48.4662 69.4328 64.8662 66.1328 86.1662C63.6328 101.966 66.7328 117.766 69.6328 133.066C72.0328 145.666 74.5328 158.666 73.9328 171.666C72.7328 200.266 50.9328 217.366 29.8328 233.966C28.5328 234.966 27.1328 236.066 25.8328 237.066C0.332808 257.166 -5.16719 274.666 6.83281 297.366C13.5328 310.066 21.6328 322.166 29.5328 333.866C37.1328 345.166 45.0328 356.966 51.5328 369.166C54.4328 374.566 57.0328 380.366 59.8328 386.566C66.7328 401.966 73.8328 417.866 86.1328 428.066C109.833 447.866 149.433 439.766 175.633 434.466C178.133 433.966 180.633 433.466 183.133 432.966C207.833 427.966 238.533 421.866 264.433 409.966C294.633 396.066 312.133 377.166 318.133 352.166C322.633 333.366 321.533 313.866 320.533 295.066C319.933 283.766 319.233 272.166 319.833 260.766C321.233 231.166 337.033 214.466 362.133 197.066C385.733 180.666 384.533 163.266 374.033 136.866C372.833 133.866 371.633 130.866 370.433 127.866C361.433 105.566 352.133 82.5662 349.833 58.1662C349.433 53.7662 349.733 48.6662 350.033 43.2662C350.733 29.9662 351.533 14.8662 341.933 7.36621C334.233 1.66621 320.833 0.966208 309.933 0.966208Z" fill="white"/>
<path d="M137.933 424.666C123.733 424.666 109.633 421.866 99.2328 412.766C88.5328 403.366 82.2328 388.966 76.1328 375.066C73.6328 369.266 71.2328 363.866 68.5328 358.866C62.2328 346.966 54.3328 335.666 46.6328 324.866C39.2328 314.266 31.5328 303.366 25.3328 291.866C11.8328 266.866 26.3328 248.866 40.3328 235.866C41.5328 234.766 42.7328 233.666 43.9328 232.566C60.1328 217.766 78.5328 200.866 81.5328 177.866C83.2328 164.766 81.0328 151.466 78.9328 138.566C76.7328 125.166 74.5328 111.266 76.5328 97.4663C79.6328 75.9663 92.7328 60.0663 115.433 50.2663C151.233 34.6663 194.033 27.0663 228.333 20.8663C244.833 17.8663 266.733 14.2663 288.933 12.8663C290.533 12.7663 292.333 12.5663 294.233 12.4663C305.533 11.5663 321.133 10.2663 329.833 16.2663C339.133 22.6663 338.633 35.9662 338.333 47.6662C338.233 51.8662 338.033 55.8663 338.433 59.2663C339.733 73.5663 345.433 89.4662 351.033 104.866C363.033 138.066 375.333 172.366 348.033 197.266C329.333 214.266 314.833 229.166 311.133 253.066C309.133 266.366 309.633 279.966 310.233 293.166C310.933 308.966 311.633 325.366 307.833 341.366C302.033 365.766 285.333 384.166 256.733 397.466C232.433 408.866 203.433 414.566 180.133 419.166L177.633 419.666C166.733 421.866 152.333 424.666 137.933 424.666ZM309.233 12.5663C304.133 12.5663 298.933 12.9663 294.433 13.3663C292.533 13.5663 290.733 13.6663 289.133 13.7663C267.033 15.1663 245.233 18.7663 228.633 21.6663C194.333 27.8663 151.733 35.4663 115.933 50.9663C93.6328 60.6663 80.7328 76.2663 77.6328 97.3663C75.6328 110.966 77.9328 124.866 80.0328 138.166C82.1328 151.166 84.3328 164.566 82.6328 177.766C79.6328 201.166 61.1328 218.066 44.7328 233.066C43.5328 234.166 42.3328 235.266 41.1328 236.366C14.9328 260.566 19.4328 278.366 26.3328 291.166C32.5328 302.666 40.1328 313.566 47.5328 324.066C55.1328 334.966 63.1328 346.266 69.4328 358.166C72.1328 363.166 74.5328 368.666 77.0328 374.466C83.1328 388.266 89.4328 402.666 99.9328 411.866C120.433 429.866 156.033 422.766 177.333 418.566L179.833 418.066C227.933 408.566 293.833 395.466 306.833 340.966C310.633 325.166 309.933 308.866 309.233 293.066C308.633 279.766 308.133 266.066 310.133 252.766C313.833 228.566 328.533 213.566 347.333 196.466C374.233 171.966 361.933 137.966 350.133 105.066C344.533 89.5663 338.833 73.6662 337.533 59.1662C337.233 55.6662 337.333 51.6663 337.433 47.3663C337.833 35.8663 338.233 22.8663 329.433 16.7663C324.333 13.5663 316.833 12.5663 309.233 12.5663Z" fill="white"/>
<path d="M151.733 406.366C138.533 406.366 126.333 403.566 116.833 395.266C107.333 386.966 101.533 374.166 95.9328 361.766C93.5328 356.566 91.3328 351.666 88.8328 347.166C83.9328 338.266 77.2328 329.166 70.7328 320.466C50.6328 293.366 29.9328 265.466 55.3328 234.366L56.0328 233.566C70.5328 215.766 85.6328 197.366 87.4328 173.166C88.1328 163.566 87.2328 153.866 86.2328 144.366C85.0328 132.366 83.7328 119.966 86.0328 107.666C89.5328 88.3663 100.233 74.9663 119.633 65.3663C150.333 50.2663 187.033 41.8663 219.433 34.3663L223.833 33.3663C240.633 29.4663 260.533 25.1663 280.033 22.9663C281.433 22.7663 283.133 22.5663 284.833 22.2663C294.033 20.9663 306.733 19.1663 313.833 23.2663C322.733 28.4663 323.133 40.0663 323.533 50.2663C323.633 53.3663 323.733 56.3663 324.033 58.9663C325.833 73.2663 330.733 87.9663 335.533 102.266C346.033 133.566 356.833 166.066 334.933 195.266L334.733 195.466C320.733 214.166 307.533 231.766 303.933 255.366C302.233 266.166 302.133 277.366 301.933 288.166C301.733 302.366 301.533 316.966 297.933 331.166C284.733 383.266 218.033 395.966 182.133 402.766C171.833 404.866 161.433 406.366 151.733 406.366ZM301.233 21.7663C295.733 21.7663 289.833 22.5663 284.933 23.2663C283.133 23.5663 281.533 23.7663 280.033 23.9663C260.533 26.2663 240.733 30.4663 223.933 34.3663L219.533 35.3663C187.233 42.8663 150.533 51.2663 119.933 66.2663C100.933 75.6663 90.4328 88.8663 86.9328 107.766C84.7328 119.866 85.9328 132.266 87.1328 144.166C88.1328 153.666 89.0328 163.466 88.3328 173.166C86.4328 197.666 71.3328 216.166 56.6328 234.066L55.9328 234.866C31.0328 265.366 51.5328 293.066 71.3328 319.766C77.8328 328.566 84.6328 337.666 89.5328 346.666C92.0328 351.166 94.2328 356.166 96.6328 361.366C102.233 373.666 108.033 386.366 117.333 394.566C133.533 408.766 157.833 406.466 181.733 401.966C203.633 397.766 228.833 392.466 250.633 381.966C276.133 369.666 291.133 353.066 296.733 331.066C300.233 316.966 300.533 302.466 300.733 288.366C300.933 277.566 301.033 266.366 302.733 255.466C306.333 231.666 319.633 213.866 333.733 195.066L333.933 194.866C355.533 165.966 344.733 133.866 334.333 102.766C329.533 88.4663 324.633 73.5663 322.833 59.2663C322.533 56.5663 322.433 53.5663 322.333 50.4663C322.033 40.4663 321.633 29.1663 313.133 24.2663C310.133 22.3663 305.833 21.7663 301.233 21.7663Z" fill="white"/>
<path d="M168.533 387.566C150.933 387.566 142.033 381.866 136.533 376.966C128.333 369.666 122.733 358.466 117.333 347.666C115.033 343.066 112.933 338.766 110.633 334.866C105.933 326.766 99.7328 318.866 93.1328 310.466C74.4328 286.466 55.0328 261.666 69.9328 232.066L71.0328 229.966C79.4328 213.266 87.3328 197.566 90.0328 179.066C91.3328 170.166 91.2328 160.866 91.2328 151.966C91.1328 140.566 91.0328 128.666 93.8328 117.366C103.933 76.7661 159.833 61.0661 200.633 49.5661C206.533 47.8661 212.133 46.3661 217.033 44.8661C221.133 43.6661 225.933 41.8661 231.033 40.0661C250.733 33.0661 275.233 24.2661 291.933 28.8661C303.333 31.9661 304.733 41.5661 306.233 51.6661C306.533 53.7661 306.833 56.0661 307.333 58.1661C309.933 71.1661 314.033 83.9661 318.033 96.3661C328.433 128.666 338.333 159.166 322.633 192.866C321.533 195.166 320.533 197.466 319.433 199.766C310.633 218.566 302.233 236.266 298.633 256.666C297.033 265.366 296.333 274.466 295.633 283.166C294.533 296.266 293.533 309.766 289.533 322.566C276.633 364.866 225.733 378.866 188.633 385.766C180.833 386.966 174.233 387.566 168.533 387.566ZM281.533 28.4661C266.133 28.4661 247.233 35.2661 231.333 40.8661C226.233 42.6661 221.333 44.4661 217.233 45.6661C212.333 47.1661 206.733 48.7661 200.833 50.3661C160.233 61.7661 104.733 77.3661 94.7328 117.466C91.9328 128.666 92.0328 140.466 92.1328 151.766C92.2328 160.766 92.3328 170.066 90.9328 179.066C88.1328 197.766 80.2328 213.566 71.8328 230.266L70.7328 232.366C56.1328 261.366 75.3328 285.966 93.8328 309.666C100.433 318.066 106.633 326.066 111.433 334.166C113.733 338.066 115.833 342.366 118.133 346.966C123.433 357.666 128.933 368.766 137.033 375.966C151.933 389.166 173.433 387.066 188.233 384.266C225.133 377.466 275.633 363.466 288.333 321.766C292.233 308.966 293.333 295.566 294.333 282.566C295.033 273.866 295.733 264.766 297.333 255.966C301.033 235.366 309.433 217.666 318.233 198.866C319.333 196.566 320.333 194.266 321.433 191.966C337.033 158.566 327.233 128.266 316.833 96.1661C312.833 83.7661 308.633 70.9661 306.133 57.8661C305.733 55.6661 305.333 53.4661 305.033 51.2661C303.533 41.4661 302.233 32.1661 291.433 29.2661C288.533 28.8661 285.133 28.4661 281.533 28.4661Z" fill="white"/>
<path d="M185.733 368.766C161.633 368.766 151.333 351.866 139.633 332.766C137.533 329.366 135.333 325.766 133.033 322.266C128.033 314.566 121.733 307.166 115.033 299.266C97.3328 278.366 79.0327 256.766 84.4327 229.466C85.2327 225.366 86.1328 221.166 87.0328 217.166C89.4328 205.766 91.9327 194.066 93.1327 182.166C93.6327 177.366 93.9328 172.366 94.2328 167.566C95.1328 153.866 96.0327 139.666 100.633 126.466C112.233 92.8661 159.933 74.5661 194.633 61.1661C199.833 59.1661 204.733 57.2661 209.133 55.4661C212.633 53.9661 216.733 52.1661 221.033 50.2661C236.133 43.4661 255.033 34.8661 269.333 35.2661C282.533 35.5661 284.833 42.8661 288.333 53.8661C288.733 55.0661 289.133 56.2661 289.533 57.5661C291.833 64.6661 294.333 71.6661 296.733 78.4661C309.633 115.066 321.733 149.666 310.933 189.566C309.433 195.266 307.733 200.966 306.133 206.566C301.733 222.066 297.133 238.166 294.133 254.366C293.133 260.066 292.333 265.966 291.533 271.666C289.533 285.966 287.533 300.766 282.033 314.166C266.633 351.966 216.833 364.266 196.133 367.766C192.433 368.466 188.933 368.766 185.733 368.766ZM268.533 36.1661C254.533 36.1661 236.233 44.4661 221.533 51.0661C217.233 52.9661 213.233 54.8661 209.633 56.2661C205.233 58.0661 200.333 59.9661 195.133 61.9661C160.533 75.2661 113.133 93.5661 101.733 126.666C97.2327 139.666 96.3327 153.766 95.4327 167.466C95.1327 172.266 94.8327 177.266 94.3327 182.166C93.1327 194.066 90.6328 205.866 88.2328 217.266C87.3328 221.266 86.4327 225.466 85.6327 229.566C80.3327 256.366 98.4327 277.766 115.933 298.466C122.633 306.366 128.933 313.866 133.933 321.566C136.233 325.166 138.433 328.666 140.533 332.066C152.533 351.666 162.333 367.666 185.633 367.666C188.833 367.666 192.333 367.366 196.133 366.766C216.633 363.266 266.033 351.066 281.233 313.766C286.633 300.466 288.733 285.766 290.633 271.466C291.433 265.766 292.233 259.766 293.233 254.066C296.133 237.766 300.733 221.666 305.233 206.166C306.833 200.566 308.433 194.866 310.033 189.166C320.833 149.566 308.733 115.066 295.933 78.5661C293.533 71.7661 291.033 64.6661 288.733 57.5661C288.333 56.2661 287.933 55.0661 287.533 53.8661C284.133 42.8661 282.033 36.2661 269.433 35.9661C269.033 36.1661 268.833 36.1661 268.533 36.1661Z" fill="white"/>
<path d="M198.233 350.566C180.133 350.566 171.533 336.666 162.433 322.066C159.833 317.866 157.133 313.566 154.233 309.566C148.233 301.466 141.133 293.866 134.233 286.566C118.233 269.566 101.733 252.066 99.0328 226.866C96.0328 200.166 93.7328 161.666 107.033 135.466C121.033 107.866 160.233 87.4663 188.833 72.4663C193.233 70.1663 197.333 68.0663 201.033 65.9663C204.333 64.1663 207.933 61.9663 211.833 59.6663C224.733 51.8663 239.333 43.0663 252.133 42.4663C263.233 41.9663 266.233 47.9663 270.933 56.9663L271.733 58.4663C295.533 104.466 304.333 145.066 299.333 186.366C298.533 192.966 297.833 199.866 297.133 207.166C293.733 240.666 289.833 278.766 274.733 306.266C268.633 317.466 258.033 327.666 244.233 335.766C231.733 343.066 217.433 348.166 204.033 350.166C201.933 350.366 200.033 350.566 198.233 350.566ZM203.833 349.166C238.333 344.166 264.333 323.166 273.833 305.866C288.833 278.466 292.733 240.566 296.033 207.166C296.733 199.866 297.433 192.966 298.233 186.366C303.233 145.266 294.433 104.866 270.733 59.0663L269.933 57.5663C265.333 48.5663 262.533 43.1663 252.133 43.6663C239.633 44.2663 225.133 52.9663 212.333 60.6663C208.433 62.9663 204.833 65.1663 201.533 66.9663C197.733 69.0663 193.633 71.1663 189.233 73.4663C160.733 88.3663 121.733 108.766 107.833 135.966C94.5328 161.966 96.9328 200.266 99.9328 226.866C102.733 251.666 118.333 268.366 134.933 285.966C141.833 293.366 148.933 300.966 155.033 309.066C158.033 313.066 160.733 317.466 163.333 321.666C173.133 337.266 182.333 352.266 203.833 349.166Z" fill="white"/>
<path d="M208.533 332.666C195.233 332.666 187.633 320.266 180.833 309.266C178.133 304.766 175.533 300.566 172.633 297.266C166.233 289.766 159.133 282.866 152.233 276.266C136.333 260.866 121.333 246.266 113.533 224.366C107.933 208.566 96.9327 169.066 114.333 144.766C132.033 120.166 161.133 99.6662 186.833 81.5662C189.133 79.9662 191.333 78.3662 193.533 76.8662C195.933 75.1662 198.433 73.2662 201.033 71.2662C218.133 58.3662 239.433 42.1662 255.333 62.5662C283.733 98.9662 288.433 148.366 287.333 183.466C286.533 209.266 285.533 244.566 275.433 274.566C263.633 309.766 242.633 328.766 211.133 332.566C210.333 332.666 209.333 332.666 208.533 332.666ZM237.533 53.9662C225.633 53.9662 212.833 63.6662 201.733 72.0662C199.133 74.0662 196.633 75.9662 194.133 77.6662C191.933 79.1662 189.733 80.7662 187.433 82.3662C161.833 100.466 132.733 120.866 115.133 145.366C109.433 153.366 97.8327 176.966 114.433 223.966C122.033 245.666 137.033 260.166 152.833 275.466C159.733 282.166 166.833 288.966 173.233 296.566C176.133 299.966 178.733 304.166 181.533 308.766C188.933 320.866 196.533 333.266 210.933 331.566C242.033 327.766 262.733 309.066 274.433 274.266C284.433 244.466 285.433 209.166 286.233 183.466C287.233 148.566 282.633 99.3662 254.433 63.1662C249.433 56.4662 243.633 53.9662 237.533 53.9662Z" fill="white"/>
<path d="M216.233 315.366C206.733 315.366 199.633 304.966 193.333 295.666C190.733 291.866 188.333 288.266 185.933 285.766C179.933 279.466 173.533 273.566 167.333 267.766C152.933 254.466 138.133 240.666 128.433 222.266C113.533 193.866 112.133 171.266 124.333 155.066C140.533 133.666 161.133 111.866 187.533 88.5662C188.833 87.4662 190.133 86.2662 191.433 85.0662C205.533 72.2662 224.933 54.7662 242.533 71.3662C262.633 90.2662 273.133 126.166 274.733 180.966L274.833 185.066C275.833 217.266 277.233 261.466 256.533 287.166C248.433 297.166 232.633 314.266 216.933 315.266C216.733 315.366 216.433 315.366 216.233 315.366ZM217.033 314.366C222.333 314.066 236.633 310.666 255.933 286.666C276.333 261.266 275.033 217.266 274.033 185.166L273.933 181.066C272.333 126.466 261.833 90.8662 242.033 72.1662C225.033 56.1662 206.833 72.6662 192.233 85.8662C190.933 87.0662 189.533 88.2662 188.333 89.3662C162.033 112.666 141.433 134.366 125.233 155.666C113.233 171.566 114.633 193.766 129.433 221.766C139.033 240.066 153.233 253.166 168.133 267.066C174.333 272.866 180.733 278.766 186.733 285.066C189.133 287.666 191.633 291.266 194.233 295.166C200.333 304.166 207.333 314.366 216.333 314.366C216.433 314.366 216.733 314.366 217.033 314.366Z" fill="white"/>
<path d="M220.933 298.866C220.833 298.866 220.733 298.866 220.533 298.866C213.533 298.666 206.433 290.066 200.133 282.466C197.933 279.766 195.733 277.266 193.833 275.366C190.033 271.566 186.133 267.766 182.333 264.066C168.533 250.666 154.333 236.866 143.433 221.066C129.033 200.366 126.833 182.166 136.533 163.766C146.433 144.966 161.933 124.666 183.733 101.866C196.433 88.6661 213.733 70.4661 232.033 86.4661C256.233 107.766 259.533 156.266 261.033 179.566C263.033 209.866 263.033 244.766 247.033 273.866C241.933 283.266 231.733 298.866 220.933 298.866ZM217.133 81.2661C204.933 81.2661 193.533 93.1661 184.533 102.566C162.733 125.266 147.333 145.466 137.533 164.266C128.033 182.266 130.233 200.166 144.333 220.466C155.233 236.166 169.433 249.966 183.133 263.266C186.933 266.966 190.833 270.766 194.633 274.566C196.533 276.466 198.733 279.066 200.933 281.766C207.133 289.166 214.133 297.566 220.633 297.766C220.733 297.766 220.833 297.766 220.933 297.766C231.133 297.766 241.033 282.466 246.133 273.366C262.033 244.566 262.033 209.866 260.033 179.666C258.433 156.466 255.233 108.266 231.333 87.2661C226.533 83.0661 221.733 81.2661 217.133 81.2661Z" fill="white"/>
<path d="M221.133 282.866C215.233 282.866 208.433 275.466 202.333 268.966C200.733 267.266 199.333 265.666 197.933 264.366C183.733 250.166 170.033 236.166 158.633 220.566C138.533 192.966 146.733 158.066 183.133 117.066C194.033 104.766 204.233 99.9662 213.333 102.966C235.533 110.266 244.533 160.566 246.133 179.366C247.633 197.266 245.733 261.166 230.033 278.366C227.333 281.366 224.333 282.866 221.133 282.866ZM207.933 103.166C200.533 103.166 192.533 108.066 183.933 117.766C147.933 158.366 139.733 192.766 159.533 219.966C170.833 235.466 184.533 249.466 198.733 263.666C200.133 265.066 201.533 266.666 203.133 268.266C208.733 274.266 215.733 281.866 221.133 281.866C224.033 281.866 226.733 280.466 229.133 277.766C237.533 268.566 241.533 246.066 243.433 228.766C245.833 207.166 245.633 187.066 245.033 179.466C242.833 153.666 232.233 110.266 212.933 103.966C211.333 103.466 209.633 103.166 207.933 103.166Z" fill="white"/>
<path d="M217.633 265.066C201.733 265.066 173.133 220.166 171.933 218.166C156.633 193.966 162.233 159.866 185.433 135.166C193.233 126.866 200.533 123.866 207.133 126.066C214.233 128.466 220.433 136.666 225.433 150.466C229.433 161.566 231.933 174.066 232.833 181.966C234.833 199.366 236.333 261.966 218.933 264.966C218.533 264.966 218.133 265.066 217.633 265.066ZM202.933 126.266C197.733 126.266 192.133 129.466 186.133 135.766C167.433 155.666 155.233 189.766 172.733 217.566C177.733 225.466 186.033 237.266 194.233 246.766C204.833 258.966 213.333 264.866 218.833 263.966C225.733 262.766 230.333 250.466 232.133 228.366C233.633 209.866 232.733 190.166 231.833 182.066C230.333 168.566 222.833 132.266 206.833 126.966C205.633 126.466 204.333 126.266 202.933 126.266Z" fill="white"/>
<path d="M212.633 245.066C202.533 245.066 186.933 220.566 183.033 213.466C173.033 195.166 175.933 170.166 189.733 155.466C194.133 150.766 198.533 148.966 202.633 150.266C213.833 153.666 220.233 178.366 221.633 186.766C223.833 200.066 226.233 240.166 214.633 244.766C214.133 244.866 213.433 245.066 212.633 245.066ZM214.333 243.666C224.733 239.466 223.133 201.766 220.633 186.766C219.533 180.066 213.233 154.366 202.333 151.066C198.533 149.966 194.533 151.566 190.433 155.966C176.833 170.466 174.033 194.866 183.833 212.866C186.833 218.366 192.333 226.766 197.933 233.366C205.133 241.566 210.733 245.166 214.333 243.666Z" fill="white"/>
<path d="M207.033 223.566C206.633 223.566 206.233 223.466 205.833 223.366C201.533 222.266 196.033 215.366 192.733 207.066C188.933 197.366 188.333 184.266 195.433 177.066C197.033 175.366 199.033 174.866 201.033 175.466C205.533 176.766 209.833 183.666 211.733 192.866C213.233 199.966 216.033 216.966 208.933 222.866C208.533 223.266 207.833 223.566 207.033 223.566ZM199.633 176.166C198.433 176.166 197.333 176.666 196.333 177.766C191.433 182.766 188.733 193.666 193.833 206.766C197.333 215.766 202.833 221.566 206.233 222.466C207.233 222.666 208.033 222.566 208.633 222.066C215.233 216.566 212.533 199.966 211.133 193.066C209.233 184.166 205.333 177.666 201.133 176.466C200.433 176.266 200.033 176.166 199.633 176.166Z" fill="white"/>
</svg>
