<svg width="456" height="366" viewBox="0 0 456 366" fill="none" xmlns="http://www.w3.org/2000/svg">
<path d="M161.6 32.1119C155.9 32.1119 150.2 32.0119 144.5 31.9119C139.3 31.8119 133.9 31.712 128.6 31.712C124.4 31.712 120.1 31.712 115.9 31.812C100.7 32.012 84.8998 32.2119 69.6998 29.5119C60.7998 28.0119 51.8998 25.9119 43.2998 24.0119C30.6998 21.1119 17.5998 18.112 4.2998 16.712L4.3998 15.712C17.6998 17.112 30.7998 20.1119 43.4998 23.0119C52.0998 25.0119 60.8998 27.0119 69.7998 28.5119C84.8998 31.1119 100.6 30.912 115.8 30.712C120 30.712 124.3 30.6119 128.5 30.6119C133.8 30.6119 139.2 30.712 144.4 30.812C155.3 31.012 166.6 31.112 177.6 30.712C197.9 29.912 212.7 22.6119 229.9 14.312L232.1 13.212C246.3 6.21195 261.1 -0.988054 277.3 0.111946C291.8 1.01195 305.3 8.01195 318.3 14.812C323 17.212 327.4 19.5119 331.9 21.6119C360.3 34.6119 386.4 28.112 414 21.212C427.5 17.812 441.4 14.412 455.8 13.212L455.9 14.212C441.6 15.312 427.7 18.8119 414.3 22.1119C386.5 29.0119 360.3 35.5119 331.5 22.4119C327 20.3119 322.4 17.9119 317.9 15.6119C305 8.91195 291.6 1.91195 277.3 1.01195C261.3 0.0119473 246.7 7.11195 232.6 14.0119L230.4 15.1119C213.1 23.5119 198.2 30.8119 177.7 31.6119C172.4 32.0119 167 32.1119 161.6 32.1119Z" fill="white"/>
<path d="M165.8 43.612C154.1 43.612 141.9 42.612 128.3 41.012C102.5 38.012 75.9002 36.412 50.1002 34.912C35.0002 34.012 19.5002 33.112 4.2002 31.912L4.3002 30.912C19.5002 32.112 35.1002 33.012 50.1002 33.912C75.9002 35.412 102.5 37.012 128.3 40.012C167.1 44.612 194.8 44.212 229.8 29.612C230.9 29.112 232 28.712 233.1 28.212C247.2 22.212 261.7 16.112 277.2 17.012C291.3 17.812 304.9 23.912 318 29.812C322.7 31.912 327.2 34.012 331.7 35.712C360.6 47.112 387.2 41.412 415.3 35.412C428.3 32.612 441.8 29.712 455.6 28.612L455.7 29.612C441.9 30.712 428.5 33.612 415.5 36.412C387.2 42.512 360.4 48.212 331.3 36.712C326.8 34.912 322.3 32.912 317.5 30.712C304.4 24.812 290.9 18.712 277 18.012C261.8 17.212 247.3 23.312 233.4 29.212C232.3 29.712 231.2 30.112 230.1 30.612C207.4 40.112 187.6 43.612 165.8 43.612Z" fill="white"/>
<path d="M181 58.212C179.8 58.212 178.6 58.212 177.4 58.112C163.5 57.412 150.3 53.012 137.4 48.812C134.3 47.812 131 46.712 127.8 45.712C98.5 36.512 71.3 40.412 42.5 44.512C30.1 46.312 17.2 48.112 4.1 48.812L4 47.812C17.1 47.112 29.9 45.312 42.3 43.512C71.2 39.412 98.5 35.512 128 44.812C131.2 45.812 134.5 46.912 137.6 47.912C150.4 52.112 163.6 56.512 177.3 57.212C194 58.012 210 53.112 225.5 48.312C226.9 47.912 228.3 47.512 229.6 47.012L232.3 46.212C246.7 41.812 261.6 37.312 277 37.912C291 38.412 304.6 42.912 317.9 47.212C322.4 48.712 327 50.212 331.6 51.512C360.2 59.712 387.1 55.612 415.6 51.212C428.6 49.212 442 47.112 455.6 46.412L455.7 47.412C442.2 48.212 428.7 50.212 415.8 52.212C387.2 56.612 360.2 60.812 331.4 52.512C326.9 51.212 322.2 49.712 317.7 48.212C304.5 43.912 290.9 39.512 277.1 39.012C261.9 38.412 247.1 42.912 232.8 47.312L230.1 47.912C228.7 48.312 227.3 48.712 226 49.212C211.5 53.612 196.6 58.212 181 58.212Z" fill="white"/>
<path d="M188.2 71.612C184.5 71.612 180.8 71.412 177.1 70.812C162.6 68.712 149.8 61.412 137.3 54.312C134 52.412 130.6 50.512 127.2 48.712C107.1 38.012 90.2999 32.912 68.5999 40.612C59.7999 43.712 51.4999 47.612 43.3999 51.312C31.0999 57.112 18.2999 63.012 4.0999 66.112L3.8999 65.112C17.9999 62.012 30.7999 56.112 43.0999 50.412C51.1999 46.712 59.5999 42.812 68.3999 39.712C90.3999 31.912 107.5 37.012 127.8 47.812C131.2 49.612 134.6 51.512 137.9 53.412C150.3 60.412 163.1 67.712 177.4 69.812C192 71.912 207.3 69.112 222 66.412C224.6 65.912 227.2 65.412 229.7 65.012C264.8 58.912 294.7 61.412 331.5 67.412C359.2 72.012 387 69.512 414 67.212C427.6 66.012 441.6 64.812 455.6 64.512V65.512C441.7 65.812 427.6 67.012 414.1 68.212C387.1 70.512 359.1 72.912 331.4 68.412C294.7 62.412 264.9 59.812 230 66.012C227.5 66.412 224.9 66.912 222.3 67.412C210.9 69.512 199.5 71.612 188.2 71.612Z" fill="white"/>
<path d="M195.1 85.6119C188.8 85.6119 182.7 85.1119 176.9 83.8119C161.7 80.2119 149.1 70.6119 137 61.2119C133.7 58.6119 130.2 55.9119 126.8 53.5119C108.6 40.4119 91.6001 30.6119 68.3001 43.6119C59.4001 48.5119 51.4001 54.4119 43.6001 60.0119C31.1001 69.1119 19.2001 77.8119 3.9001 83.0119L3.6001 82.1119C18.7001 76.9119 30.5001 68.3119 43.0001 59.2119C50.8001 53.5119 58.8001 47.7119 67.8001 42.7119C91.7001 29.5119 108.9 39.4119 127.4 52.7119C130.8 55.2119 134.3 57.9119 137.7 60.5119C149.8 69.8119 162.2 79.4119 177.2 82.9119C189.8 85.8119 204.2 84.6119 218.1 83.3119C222.1 82.9119 225.9 82.6119 229.6 82.4119C265.9 80.1119 301.4 81.6119 331.3 83.3119C357.1 84.8119 383.3 84.0119 408.7 83.2119C424 82.7119 439.9 82.3119 455.5 82.3119V83.3119C439.9 83.3119 424.1 83.7119 408.7 84.2119C383.3 85.0119 357.1 85.7119 331.3 84.3119C301.4 82.6119 266 81.2119 229.8 83.4119C226.1 83.6119 222.3 84.0119 218.4 84.3119C210.5 84.9119 202.7 85.6119 195.1 85.6119Z" fill="white"/>
<path d="M198.1 99.212C190.6 99.212 183.3 98.712 176.7 97.212C161 93.512 148.7 82.512 136.8 71.912C133.4 68.912 129.9 65.812 126.4 62.912C109.6 49.112 91.2999 37.012 67.8999 52.012C58.8999 57.812 51.1999 64.612 43.6999 71.312C31.4999 82.112 20.0999 92.312 3.6999 98.112L3.3999 97.212C19.5999 91.412 30.9999 81.312 43.0999 70.612C50.5999 63.912 58.3999 57.012 67.3999 51.212C91.2999 35.812 110 48.212 127.1 62.212C130.6 65.112 134.1 68.212 137.5 71.212C149.3 81.712 161.5 92.612 177 96.312C188.3 99.012 201.7 98.412 214.6 97.812C219.8 97.612 224.7 97.412 229.4 97.412C254.7 97.412 279.9 97.412 305.2 97.412C354.4 97.412 405.2 97.512 455.2 97.412V98.412C405.2 98.512 354.4 98.412 305.2 98.412C279.9 98.412 254.7 98.412 229.4 98.412C224.7 98.412 219.8 98.612 214.6 98.812C209.1 99.012 203.6 99.212 198.1 99.212Z" fill="white"/>
<path d="M198.6 112.412C190.9 112.412 183.4 111.912 176.5 110.312C161.5 106.812 149 97.2119 136.9 88.0119C133.4 85.4119 129.9 82.6119 126.3 80.1119C108.1 67.1119 91.0998 57.5119 67.7998 70.8119C59.0998 75.8119 51.1998 81.7119 43.5998 87.5119C31.1998 96.9119 19.2998 105.912 3.5998 111.212L3.2998 110.312C18.7998 105.012 30.6998 96.1119 43.1998 86.7119C50.7998 81.0119 58.6998 75.0119 67.4998 70.0119C91.1998 56.4119 109.2 66.7119 127.1 79.4119C130.7 81.9119 134.2 84.7119 137.7 87.3119C149.7 96.5119 162.1 106.012 176.9 109.512C188.4 112.212 201.8 111.612 214.7 111.112C219.8 110.912 224.6 110.712 229.3 110.712C266.6 110.712 298.1 109.912 330.8 106.212C356.1 103.312 381.2 105.612 405.4 107.812C421.5 109.312 438.2 110.812 454.8 110.812C454.9 110.812 455 110.812 455.1 110.812V111.812C455 111.812 454.9 111.812 454.8 111.812C438.1 111.812 421.4 110.312 405.3 108.812C381.1 106.612 356 104.312 330.9 107.212C298.2 111.012 266.6 111.712 229.3 111.712C224.7 111.712 219.8 111.912 214.7 112.112C209.3 112.212 203.9 112.412 198.6 112.412Z" fill="white"/>
<path d="M198.5 125.512C191 125.512 183.5 125.212 176.4 124.012C162.1 121.712 149.4 114.612 137.1 107.812C133.6 105.912 130.1 103.912 126.5 102.112C106.1 91.5119 89.2002 86.712 68.0002 95.512C59.5002 99.112 51.5002 103.412 43.8002 107.512C30.7002 114.512 18.4002 121.212 3.40019 124.712L3.2002 123.712C18.1002 120.212 30.4002 113.612 43.4002 106.612C51.1002 102.412 59.1002 98.112 67.7002 94.512C89.3002 85.512 106.4 90.4119 127.1 101.112C130.6 102.912 134.2 104.912 137.7 106.912C149.9 113.712 162.6 120.712 176.7 123.012C188.6 124.912 201.6 124.512 214.2 124.112C219.1 124.012 224.3 123.812 229.1 123.812C234.3 123.812 239.7 123.912 244.9 124.012C255.2 124.212 265.9 124.512 276.2 123.812C291.4 122.812 304.9 118.212 319.3 113.412C322.9 112.212 326.5 110.912 330.2 109.812C359.7 100.412 384.2 107.212 410.2 114.412C424.4 118.312 439 122.412 454.9 123.812L454.8 124.812C438.8 123.412 424.2 119.312 410 115.312C384.2 108.112 359.8 101.312 330.6 110.712C326.9 111.912 323.2 113.112 319.7 114.312C305.3 119.212 291.7 123.812 276.3 124.812C265.9 125.512 255.2 125.212 244.9 125.012C239.7 124.912 234.4 124.812 229.1 124.812C224.2 124.812 219.1 125.012 214.2 125.112C209 125.312 203.7 125.512 198.5 125.512Z" fill="white"/>
<path d="M259.7 139.012C254.5 139.012 249.2 138.812 244.1 138.612C239.1 138.412 233.9 138.212 228.9 138.212C191.7 138.212 161.7 136.112 126.8 125.612C96.9 116.612 72 123.012 45.6 129.712C32.1 133.112 18.2 136.712 3.1 138.312L3 137.312C18 135.712 31.9 132.212 45.3 128.812C71.8 122.112 96.8 115.712 127 124.712C161.8 135.212 191.7 137.312 228.8 137.312C233.8 137.312 239 137.512 244 137.712C254.6 138.112 265.6 138.512 275.9 137.212C291.4 135.112 304.9 127.012 317.9 119.212C321.7 116.912 325.7 114.512 329.7 112.312C349.3 101.412 366 96.712 388.8 107.112C396.6 110.612 404 114.812 411.2 118.712C425.2 126.512 438.5 133.912 454.7 137.312L454.5 138.312C438.1 134.812 424.8 127.412 410.7 119.612C403.6 115.612 396.2 111.512 388.4 108.012C366 97.812 349.5 102.512 330.2 113.212C326.3 115.412 322.3 117.812 318.5 120.112C305.4 128.012 291.9 136.212 276.1 138.312C270.7 138.712 265.2 139.012 259.7 139.012Z" fill="white"/>
<path d="M259.5 152.512C254.2 152.512 248.9 152.212 243.7 152.012C238.5 151.712 233.6 151.512 228.7 151.512C193 151.512 160.6 151.212 126.9 147.612C101.1 144.812 75.2999 146.912 50.3999 149.012C34.8999 150.312 18.8999 151.612 2.8999 151.712V150.712C18.8999 150.612 34.8999 149.312 50.3999 148.012C75.2999 146.012 101.1 143.912 127 146.712C160.7 150.312 193 150.612 228.7 150.612C233.5 150.612 238.5 150.812 243.7 151.112C254.5 151.612 265.7 152.212 275.8 150.412C292 147.512 305.1 136.412 317.7 125.812C321.5 122.612 325.4 119.312 329.3 116.312C340.9 107.412 349.5 103.012 357.9 101.512C367.7 99.8119 377.4 102.112 388.5 108.912C396.5 113.812 403.9 119.512 411 125.012C424.6 135.512 437.5 145.312 454.6 150.512L454.3 151.512C437 146.212 424.1 136.312 410.4 125.812C403.3 120.312 395.9 114.712 387.9 109.812C365.3 95.9119 350.1 101.712 329.8 117.212C325.9 120.112 322.2 123.312 318.2 126.712C305.5 137.412 292.3 148.612 275.8 151.512C270.7 152.212 265.1 152.512 259.5 152.512Z" fill="white"/>
<path d="M259.9 165.912C254.5 165.912 249.1 165.612 243.7 165.312C238.4 165.012 233.4 164.712 228.5 164.712C178.3 164.712 128.2 164.712 78.0002 164.712H2.7002V163.712H78.0002C128.2 163.712 178.3 163.712 228.5 163.712C233.4 163.712 238.4 164.012 243.7 164.312C254.5 164.912 265.6 165.512 275.6 163.712C292.7 160.612 305.4 148.112 317.8 136.012C321.5 132.412 325.2 128.712 329 125.412C340 115.712 348.8 110.612 357.3 108.812C367.3 106.712 377.4 109.312 388.2 116.712C396.5 122.412 403.8 128.912 410.9 135.212C424.1 147.012 436.6 158.212 454.5 163.712L454.2 164.712C436.1 159.112 423.6 147.812 410.3 135.912C403.2 129.612 395.9 123.112 387.7 117.412C365.2 102.012 348.8 109.312 329.7 126.112C325.9 129.412 322.3 132.912 318.5 136.712C306 148.912 293.2 161.512 275.8 164.712C270.7 165.612 265.3 165.912 259.9 165.912Z" fill="white"/>
<path d="M262.9 178.912C255.1 178.912 247.1 178.012 239.3 177.112C235.5 176.712 232 176.312 228.4 176.012C197.9 173.412 166.6 173.612 126.8 176.912C97.1 179.312 66.7 178.912 37.2 178.512C25.8 178.312 14 178.212 2.5 178.212V177.212C14 177.212 25.8 177.412 37.2 177.512C66.6 177.912 97.1 178.412 126.7 175.912C166.5 172.612 197.9 172.412 228.4 175.012C231.9 175.312 235.5 175.712 239.3 176.112C251.4 177.512 263.9 178.912 275.3 176.912C291.7 174.012 304.8 163.012 317.5 152.312C321.2 149.212 325 146.012 328.8 143.112C340.5 134.212 349 129.712 357.4 128.112C367.2 126.212 377 128.512 388 135.212C396.2 140.212 403.7 145.912 411 151.512C424.5 161.812 437.3 171.612 454.1 176.912L453.8 177.912C436.8 172.612 423.9 162.812 410.4 152.412C403.2 146.912 395.7 141.112 387.5 136.212C365.1 122.612 349.8 128.512 329.4 144.012C325.6 146.912 321.8 150.112 318.1 153.212C305.3 163.912 292.1 175.112 275.4 178.012C271.5 178.612 267.2 178.912 262.9 178.912Z" fill="white"/>
<path d="M63.5998 192.412C53.1998 192.412 42.8998 192.112 32.5998 191.912C22.5998 191.612 12.2998 191.412 2.2998 191.412V190.412C12.2998 190.412 22.5998 190.712 32.5998 190.912C63.8998 191.712 96.2998 192.512 126.6 185.712C163.3 177.412 191.7 174.412 228.6 183.212C230.8 183.712 233.1 184.312 235.3 184.912C248.4 188.212 262 191.612 275.2 190.312C290.7 188.812 304.4 180.512 317.6 172.612C321.3 170.312 325.2 168.012 329 165.912C348.8 154.912 365.6 150.012 388.1 160.012C396.3 163.612 404 167.912 411.4 172.012C425.2 179.612 438.2 186.812 454 190.312L453.8 191.312C437.9 187.712 424.8 180.512 410.9 172.812C403.5 168.712 395.8 164.412 387.6 160.812C365.5 151.012 348.9 155.812 329.4 166.712C325.6 168.812 321.8 171.112 318.1 173.412C304.8 181.412 291.1 189.812 275.3 191.312C261.9 192.612 248.2 189.212 235 185.912C232.7 185.312 230.5 184.812 228.3 184.212C191.6 175.412 163.3 178.512 126.8 186.712C106.4 191.312 84.9998 192.412 63.5998 192.412Z" fill="white"/>
<path d="M59.0002 205.912C49.3002 205.912 39.6002 205.612 30.0002 205.312C20.8002 205.012 11.3002 204.712 2.2002 204.712V203.712C11.3002 203.712 20.8002 204.012 30.0002 204.312C62.7002 205.412 96.6002 206.512 126.6 194.912C130.6 193.312 134.7 191.612 138.7 189.912C150.8 184.812 163.4 179.412 176.7 178.012C194.6 176.112 209.9 182.512 226.2 189.312L228.8 190.412C266 205.912 288.8 203.012 329.1 190.112C359.1 180.512 384 187.312 410.3 194.412C424.1 198.212 438.3 202.012 453.8 203.612L453.7 204.612C438.2 203.012 423.9 199.112 410.1 195.312C383.9 188.212 359.2 181.412 329.5 191.012C289 204.012 266 206.912 228.5 191.312L225.9 190.212C209.8 183.512 194.5 177.112 176.9 178.912C163.8 180.312 151.3 185.612 139.2 190.712C135.2 192.412 131.1 194.112 127.1 195.712C105.7 204.112 82.4002 205.912 59.0002 205.912Z" fill="white"/>
<path d="M57 219.412C47.6 219.412 38.2 219.012 28.8 218.712C19.9 218.412 10.7 218.012 2 218.012V217.012C10.7 217.012 19.9 217.312 28.8 217.712C62.4 219.012 97.2 220.312 126.5 204.912C130.6 202.812 134.7 200.412 138.7 198.112C150.7 191.212 163.1 184.012 176.9 181.712C194.6 178.712 210.1 187.712 225 196.512C226.3 197.312 227.6 198.012 228.9 198.812C264.2 219.212 290 217.412 329.2 212.912C355.1 209.912 380.8 212.212 405.6 214.412C421.2 215.812 437.4 217.212 453.5 217.312V218.312C437.3 218.212 421.2 216.812 405.5 215.412C380.7 213.212 355.1 211.012 329.3 213.912C289.9 218.512 263.9 220.212 228.4 199.712C227.1 199.012 225.8 198.212 224.5 197.412C209.7 188.812 194.4 179.812 177 182.812C163.4 185.112 151.1 192.212 139.1 199.112C135.1 201.412 131 203.812 126.9 205.912C105.7 217.012 81.5 219.412 57 219.412Z" fill="white"/>
<path d="M57.9999 232.912C48.2999 232.912 38.5999 232.512 28.8999 232.112C19.4999 231.712 10.5999 231.312 1.8999 231.312V230.312C10.6999 230.312 19.5999 230.712 28.9999 231.112C62.9999 232.612 98.2999 234.112 126.5 217.112C130.6 214.712 134.7 211.912 138.6 209.312C150.5 201.412 162.8 193.212 177 190.612C195.6 187.212 210.9 197.512 225.6 207.412C226.7 208.212 227.8 208.912 228.9 209.612L229.1 209.712C243.5 219.312 257 228.412 274.8 230.212C286.6 231.412 299.2 231.012 311.3 230.612C317.2 230.412 323.3 230.212 329.2 230.212C349.4 230.212 369.7 230.212 389.9 230.212C411 230.212 432.2 230.212 453.3 230.212V231.212C432.2 231.212 411 231.212 389.9 231.212C369.7 231.212 349.4 231.212 329.2 231.212C323.3 231.212 317.2 231.412 311.3 231.612C299.2 232.012 286.6 232.412 274.7 231.212C256.7 229.412 243 220.312 228.5 210.612L228.3 210.512C227.2 209.812 226.1 209.012 225 208.312C210.4 198.412 195.4 188.312 177.1 191.612C163.1 194.212 150.9 202.312 139 210.212C135 212.812 130.9 215.612 126.8 218.012C106.5 230.212 82.5999 232.912 57.9999 232.912Z" fill="white"/>
<path d="M453.3 244.712C437.3 244.612 421.3 243.412 405.7 242.312C380.7 240.512 354.9 238.712 329.2 241.112C289.4 244.912 263.3 246.212 228.2 225.812C227 225.112 225.8 224.412 224.6 223.712C209.7 215.012 194.4 206.012 176.8 209.112C163.3 211.512 151 218.612 139.2 225.412C135.1 227.812 130.9 230.212 126.7 232.412C98.2002 247.312 67.4002 244.612 37.6002 242.012C25.8002 241.012 13.7002 239.912 1.7002 239.912V238.912C13.7002 238.912 25.9002 240.012 37.7002 241.012C68.7002 243.712 98.0002 246.312 126.2 231.512C130.4 229.312 134.6 226.912 138.6 224.512C150.5 217.612 162.9 210.412 176.6 208.012C194.5 204.812 210 213.912 225 222.712C226.2 223.412 227.4 224.112 228.6 224.812C263.5 245.012 289.5 243.712 329 239.912C354.9 237.412 380.7 239.312 405.7 241.112C421.2 242.212 437.2 243.412 453.2 243.512L453.3 244.712Z" fill="white"/>
<path d="M453 257.912C438.1 256.512 424.1 253.412 410.6 250.412C383.9 244.512 358.7 238.912 329.1 246.812C288.9 257.512 264.7 259.712 227.7 244.212L225.8 243.412C209.4 236.512 194 230.012 176 232.112C163.1 233.612 150.8 238.912 138.9 243.912C134.8 245.712 130.5 247.512 126.2 249.112C96.6999 260.512 70.5999 254.912 42.9999 249.012C29.6999 246.112 15.8999 243.212 1.3999 242.212L1.4999 241.212C16.0999 242.212 29.8999 245.212 43.2999 248.012C70.6999 253.912 96.5999 259.412 125.9 248.112C130.1 246.512 134.4 244.612 138.5 242.912C150.5 237.812 162.8 232.512 175.9 231.012C194.1 228.912 209.7 235.412 226.2 242.312L228.1 243.112C264.8 258.512 288.8 256.312 328.8 245.612C358.6 237.612 384 243.312 410.8 249.212C424.3 252.212 438.2 255.312 453.1 256.712L453 257.912Z" fill="white"/>
<path d="M270.1 271.312C257.9 271.312 245.7 268.212 233.9 265.312C231.7 264.812 229.5 264.212 227.4 263.712C191.7 255.112 164.2 258.112 125.9 266.712C107.8 270.812 88.0998 273.512 66.5998 265.912C58.9998 263.212 51.5998 260.012 44.5998 257.012C30.3998 250.912 16.9998 245.212 1.2998 242.612L1.4998 241.612C17.2998 244.112 30.7998 249.912 44.9998 256.012C52.0998 259.012 59.3998 262.212 66.9998 264.912C88.1998 272.412 107.8 269.712 125.7 265.712C164.2 257.112 191.8 254.012 227.7 262.712C229.9 263.212 232 263.812 234.2 264.312C247.3 267.612 260.9 271.012 274.3 270.212C290 269.212 304.3 262.112 318.2 255.312C321.7 253.612 325.2 251.812 328.8 250.212C356.3 237.512 372.3 238.612 388 244.412C396.5 247.512 404.6 251.312 412.5 255.012C425.3 261.012 438.5 267.112 453.1 270.112L452.9 271.112C438.1 268.112 424.9 261.912 412.1 255.912C404.2 252.212 396.1 248.412 387.7 245.412C366.3 237.612 349.5 241.812 329.3 251.212C325.8 252.812 322.2 254.612 318.8 256.312C304.9 263.212 290.5 270.312 274.6 271.312C272.9 271.312 271.5 271.312 270.1 271.312Z" fill="white"/>
<path d="M262.9 285.212C254.5 285.212 246 284.312 237.7 283.312C234.2 282.912 230.5 282.512 227 282.212C190 278.912 154.9 280.912 125.4 283.412C107 284.912 86.1001 286.612 66.3001 276.912C58.6001 273.112 51.4001 268.812 44.5001 264.712C30.7001 256.512 17.6001 248.612 1.1001 244.912L1.3001 243.912C18.0001 247.712 31.1001 255.612 45.1001 263.912C52.0001 268.012 59.2001 272.312 66.8001 276.112C86.3001 285.712 107.1 284.012 125.4 282.512C154.9 280.112 190.1 278.112 227.1 281.312C230.6 281.612 234.2 282.012 237.8 282.412C249.9 283.712 262.3 285.112 274.1 283.612C290.8 281.412 304.8 272.012 318.4 262.812C321.7 260.512 325.2 258.212 328.6 256.012C349.7 242.512 366.2 236.912 387.9 247.712C396.6 252.112 404.7 257.312 412.5 262.412C425.5 270.812 437.7 278.812 452.9 283.312L452.6 284.312C437.2 279.812 424.4 271.412 411.9 263.312C404.1 258.212 396.1 253.012 387.4 248.712C366.1 238.012 349.9 243.612 329 256.912C325.6 259.112 322.1 261.412 318.8 263.712C305.2 272.912 291.1 282.512 274.1 284.712C270.5 285.012 266.7 285.212 262.9 285.212Z" fill="white"/>
<path d="M258.3 298.712C252.9 298.712 247.5 298.512 242.2 298.312C237.1 298.112 231.8 297.912 226.8 297.912C194.8 297.912 163.1 297.912 125.2 297.912C122.2 297.912 119.3 297.912 116.4 298.012C98.7999 298.312 82.0999 298.512 66.1999 289.712C58.3999 285.412 51.3999 280.512 44.5999 275.712C31.0999 266.212 18.2999 257.312 0.899902 253.412L1.0999 252.412C18.5999 256.312 31.4999 265.312 45.0999 274.812C51.8999 279.512 58.8999 284.412 66.5999 288.712C82.2999 297.412 98.7999 297.212 116.3 296.912C119.2 296.912 122.2 296.812 125.1 296.812C163 296.812 194.8 296.812 226.7 296.812C231.7 296.812 237 297.012 242.2 297.212C252.8 297.612 263.7 298.112 273.9 296.812C291.5 294.512 305.2 283.712 318.5 273.412C321.7 270.912 325 268.312 328.4 265.812C348.9 250.712 365.9 243.912 387.8 256.112C396.8 261.112 404.8 267.212 412.5 273.112C425.1 282.712 437 291.712 452.7 296.712L452.4 297.712C436.5 292.712 424 283.212 411.9 274.012C404.2 268.112 396.2 262.112 387.3 257.112C365.9 245.112 349.1 251.912 329 266.712C325.7 269.212 322.4 271.812 319.1 274.312C305.7 284.812 291.9 295.612 274 297.912C268.9 298.512 263.6 298.712 258.3 298.712Z" fill="white"/>
<path d="M261.2 311.912C253.9 311.912 246.6 311.312 239.4 310.812C235.2 310.512 230.9 310.112 226.8 309.912C190.3 308.112 154.9 309.212 125.2 310.612L122.9 310.712C103.2 311.612 84.4999 312.512 66.1999 303.312C58.6999 299.512 51.5999 295.312 44.7999 291.212C30.7999 282.812 17.6999 274.812 0.899902 271.112L1.0999 270.112C18.0999 273.912 31.2999 281.812 45.2999 290.312C52.0999 294.412 59.0999 298.612 66.5999 302.412C84.6999 311.412 103.2 310.612 122.8 309.712L125.1 309.612C154.9 308.212 190.3 307.112 226.8 308.912C230.9 309.112 235.3 309.512 239.5 309.812C250.9 310.712 262.7 311.612 273.8 310.212C290.8 308.012 304.8 298.412 318.4 289.212C321.6 287.012 324.9 284.712 328.2 282.612C349.6 268.812 365.4 263.312 387.5 273.712C396.3 277.812 404.6 282.812 412.6 287.712C425 295.212 437.8 302.912 452.5 307.312L452.2 308.312C437.4 303.812 424.5 296.112 412.1 288.612C404.1 283.812 395.9 278.812 387.1 274.712C365.4 264.512 349.8 269.912 328.7 283.512C325.4 285.612 322.1 287.912 318.9 290.112C305.2 299.412 291 309.112 273.8 311.312C269.7 311.712 265.4 311.912 261.2 311.912Z" fill="white"/>
<path d="M267.5 324.612C257.1 324.612 246.4 322.912 236.1 321.312C233 320.812 229.8 320.312 226.7 319.912C192.2 315.012 161.1 317.112 125.1 321.912C106.2 324.412 86.1001 326.212 65.9001 318.712C58.6001 316.012 51.6001 312.912 44.8001 310.012C30.4001 303.712 16.7001 297.712 0.600098 295.212L0.800098 294.212C17.1001 296.712 30.8001 302.712 45.3001 309.012C52.1001 312.012 59.0001 315.012 66.3001 317.712C86.3001 325.112 106.3 323.312 125 320.812C161.1 316.112 192.3 313.912 226.9 318.812C230 319.212 233.2 319.712 236.3 320.212C248.6 322.112 261.3 324.112 273.6 323.312C289.9 322.212 304.4 314.912 318.5 307.912C321.6 306.412 324.8 304.712 328 303.212C346.9 294.212 364.2 289.412 387.2 295.512C395.9 297.812 404.4 300.612 412.7 303.412C425.4 307.612 438.6 312.012 452.3 314.312L452.1 315.312C438.3 313.012 425.1 308.612 412.3 304.312C404 301.512 395.5 298.712 386.8 296.412C364.1 290.412 347.6 294.912 328.3 304.112C325.1 305.612 321.9 307.212 318.8 308.812C304.6 315.912 290 323.212 273.5 324.312C271.6 324.612 269.5 324.612 267.5 324.612Z" fill="white"/>
<path d="M97.6999 335.912C79.9999 335.912 63.2999 332.412 45.8999 328.812C31.2999 325.812 16.2999 322.712 0.399902 321.712L0.499903 320.712C16.4999 321.712 31.5999 324.812 46.1999 327.912C72.1999 333.312 96.6999 338.412 124.9 332.012C159.3 324.212 188.7 319.012 227 328.512C262.3 337.312 288.7 336.612 327.8 325.712C357 317.612 387.8 318.712 417.6 319.912C428.9 320.312 440.6 320.812 452 320.712V321.712C440.6 321.812 428.8 321.312 417.5 320.912C387.8 319.812 357.1 318.612 328 326.712C288.7 337.612 262.2 338.412 226.7 329.512C188.6 320.012 159.3 325.212 125 333.012C115.6 335.012 106.6 335.912 97.6999 335.912Z" fill="white"/>
<path d="M79.5999 350.412C66.5999 350.412 53.6999 349.312 40.9999 348.312C27.6999 347.212 13.9999 346.112 0.399902 346.112V345.112C14.0999 345.012 27.7999 346.212 41.0999 347.312C68.5999 349.612 97.0999 352.012 125 343.312C129.6 341.912 134.3 340.312 138.8 338.712C150.6 334.612 162.8 330.412 175.4 329.012C194 326.912 210.2 332.512 227.4 338.412C285.4 358.412 345.7 347.112 404.1 336.112C419.9 333.112 436.2 330.112 452.1 327.712L452.2 328.712C436.3 331.112 420 334.112 404.3 337.112C345.8 348.112 285.4 359.412 227.1 339.312C210.1 333.412 194 327.912 175.6 329.912C163.1 331.312 151 335.512 139.3 339.612C134.8 341.212 130.1 342.812 125.5 344.212C110 348.912 94.7999 350.412 79.5999 350.412Z" fill="white"/>
<path d="M61 365.812C50.7 365.812 40.4 365.412 30.1 365.112C19.7 364.712 9.8 364.412 0 364.412V363.412C9.8 363.412 19.7 363.712 30.1 364.112C62.2 365.312 95.4 366.412 124.6 356.012C129.2 354.412 133.9 352.512 138.4 350.712C150.2 346.012 162.3 341.112 175.1 339.512C194.5 337.112 211 343.712 227 350.112C260.1 363.412 289.9 363.412 324.4 363.312H327.4C331.5 363.312 335.6 363.412 339.6 363.412C355.1 363.712 371.1 364.012 386 359.712C395 357.112 403.8 353.712 412.2 350.412C424.7 345.512 437.6 340.512 451.4 338.012L451.6 339.012C437.9 341.512 425 346.512 412.6 351.312C404.1 354.612 395.3 358.012 386.3 360.712C371.2 365.112 355.1 364.812 339.6 364.512C335.6 364.412 331.4 364.312 327.4 364.412H324.4C289.8 364.512 260 364.512 226.6 351.112C210.7 344.712 194.3 338.112 175.2 340.512C162.5 342.112 150.4 346.912 138.7 351.612C134.2 353.412 129.5 355.312 124.9 356.912C105 364.112 83.1 365.812 61 365.812Z" fill="white"/>
</svg>
