<svg width="444" height="320" viewBox="0 0 444 320" fill="none" xmlns="http://www.w3.org/2000/svg">
<path d="M392.135 319.876C389.935 319.876 387.635 319.476 385.335 318.676C369.535 313.076 353.635 305.976 338.135 298.976C302.635 283.076 266.035 266.576 227.135 266.776C187.535 266.976 148.935 282.476 111.635 297.476C93.9345 304.576 75.6345 311.976 57.8345 317.376C51.7345 319.076 46.0345 318.576 41.8345 315.776C38.4345 313.576 36.2345 309.976 35.6345 305.676C34.7345 298.876 33.8345 291.976 32.9345 285.176C23.9345 216.076 14.5345 144.576 0.434535 74.576C-1.36546 65.776 2.53453 56.676 10.1345 51.876C45.7345 30.476 80.3345 17.676 115.835 12.576C128.435 10.776 141.135 9.97598 153.535 9.17598C173.235 7.97598 193.635 6.67599 213.335 1.37599C219.235 -0.524013 226.835 -0.424014 232.835 1.47599C253.035 7.07599 274.035 9.67599 294.335 12.276C310.735 14.376 327.735 16.476 344.235 20.176C381.135 28.376 410.535 46.576 434.535 63.276C441.335 68.076 444.935 76.676 443.335 84.276C430.835 142.976 421.735 203.476 412.935 262.076C410.635 277.076 408.335 292.576 406.035 307.776C405.435 312.276 403.235 315.876 399.835 317.876C397.635 319.176 395.035 319.876 392.135 319.876ZM227.635 265.776C266.535 265.776 303.135 282.176 338.535 298.076C353.935 304.976 369.935 312.176 385.635 317.776C390.835 319.476 395.735 319.176 399.235 316.976C402.335 315.076 404.335 311.776 404.935 307.576C407.235 292.376 409.635 276.876 411.835 261.876C420.635 203.376 429.735 142.776 442.135 84.176C443.735 76.976 440.235 68.776 433.735 64.176C409.835 47.476 380.535 29.376 343.835 21.176C327.435 17.476 310.435 15.376 294.035 13.276C273.635 10.676 252.635 8.07598 232.335 2.47599C226.535 0.575986 219.135 0.475987 213.435 2.37599C193.635 7.67599 173.235 8.97599 153.435 10.276C141.135 11.076 128.335 11.876 115.835 13.676C80.4345 18.676 46.0345 31.476 10.5345 52.776C3.33454 57.376 -0.365466 66.076 1.23453 74.476C15.5345 144.576 24.8345 216.076 33.9345 285.176C34.8345 291.976 35.7345 298.876 36.6345 305.676C37.2345 309.676 39.2345 312.976 42.4345 315.076C46.3345 317.676 51.7345 318.176 57.6345 316.476C75.4345 311.076 93.7345 303.676 111.335 296.576C148.735 281.576 187.335 265.976 227.135 265.776C227.335 265.776 227.435 265.776 227.635 265.776Z" fill="white"/>
<path d="M376.035 293.176C373.535 293.176 370.835 292.576 368.135 291.476C358.435 287.376 348.435 282.776 338.835 278.376C304.735 262.676 269.435 246.376 231.535 246.376H231.435C192.335 246.376 153.735 261.476 116.335 276.076C103.035 281.276 90.4346 286.176 77.7346 290.476C71.0346 292.676 65.1346 292.376 61.0346 289.776C58.1346 287.876 56.4346 284.976 56.0346 281.276C49.5346 216.476 37.9346 152.076 19.4346 78.4759C17.3346 69.9759 21.5346 60.8759 29.7346 56.1759C64.7346 37.1759 96.1346 25.8759 128.435 20.5759C140.035 18.6759 151.835 17.5759 163.335 16.5759C180.135 15.0759 197.535 13.4759 214.435 9.27591C220.035 7.57591 227.835 7.67591 234.335 9.37591C251.235 13.2759 268.635 15.7759 285.535 18.0759C302.835 20.4759 320.735 22.9759 338.035 27.0759C365.935 33.6759 391.035 45.8759 419.335 66.5759C425.635 71.2759 428.935 79.8759 427.435 87.3759C422.835 110.576 418.635 134.176 414.635 156.876C407.335 198.176 399.835 240.976 389.235 282.876C388.235 286.876 385.935 289.976 382.635 291.676C380.635 292.676 378.435 293.176 376.035 293.176ZM231.535 245.476C269.735 245.476 305.135 261.776 339.335 277.576C348.935 281.976 358.835 286.576 368.535 290.676C373.635 292.676 378.435 292.776 382.035 290.876C385.135 289.276 387.235 286.476 388.135 282.776C398.735 240.976 406.235 198.176 413.435 156.876C417.435 134.076 421.535 110.576 426.235 87.3759C427.735 80.2759 424.535 72.0759 418.535 67.5759C390.335 46.9759 365.335 34.8759 337.535 28.2759C320.235 24.1759 302.435 21.6759 285.135 19.2759C268.235 16.8759 250.835 14.4759 233.835 10.5759C227.435 8.8759 219.935 8.7759 214.535 10.4759C197.635 14.6759 180.235 16.2759 163.335 17.8759C151.935 18.8759 140.135 19.9759 128.535 21.8759C96.3346 27.1759 65.0346 38.4759 30.1346 57.3759C22.3346 61.7759 18.3346 70.5759 20.3346 78.5759C38.7346 151.976 50.3346 216.476 56.9346 281.276C57.3346 284.676 58.8346 287.376 61.5346 289.076C65.3346 291.576 71.0346 291.776 77.4346 289.676C90.0346 285.376 102.635 280.476 115.935 275.276C153.435 260.676 192.135 245.476 231.435 245.476C231.435 245.476 231.435 245.476 231.535 245.476Z" fill="white"/>
<path d="M363.535 267.276C360.935 267.276 358.135 266.576 355.335 265.276C351.435 263.476 347.535 261.576 343.635 259.676C311.335 244.076 277.935 227.976 241.135 227.976C241.035 227.976 240.835 227.976 240.735 227.976C202.235 228.076 164.035 241.776 127.035 255.076C118.135 258.276 108.935 261.576 100.035 264.576C92.5345 267.076 86.1346 266.976 82.2346 264.276C79.8346 262.676 78.5346 260.176 78.3346 257.076C74.9346 194.676 58.4346 138.676 40.4346 82.0759C37.8346 73.8759 42.1346 64.9758 50.8346 60.3759C83.8346 43.8759 112.635 33.6759 141.335 28.2759C151.435 26.3759 161.835 25.1759 171.935 24.0759C186.635 22.4759 201.935 20.7759 216.335 16.6759C221.535 15.1759 229.635 15.2759 236.535 16.7759C249.035 19.3759 261.435 21.4759 273.535 23.5759C320.135 31.5759 364.235 39.0759 404.735 69.4759C410.635 74.0759 413.935 82.4759 412.635 89.7759C410.935 99.6759 409.335 109.576 407.835 119.076C400.135 166.976 392.735 212.176 375.935 258.276C374.535 261.976 372.035 264.676 368.735 266.076C367.235 266.876 365.435 267.276 363.535 267.276ZM241.135 227.076C278.235 227.076 311.635 243.176 344.035 258.876C347.935 260.776 351.835 262.676 355.735 264.476C360.235 266.576 364.835 266.876 368.435 265.376C371.535 264.076 373.835 261.576 375.135 258.176C391.935 212.176 399.235 166.976 406.935 119.176C408.435 109.576 410.135 99.6759 411.735 89.8759C412.935 82.8759 409.835 74.9759 404.235 70.5759C363.835 40.3759 319.935 32.7759 273.435 24.8759C261.335 22.7759 248.935 20.6759 236.435 18.0759C229.735 16.4759 221.735 16.4759 216.735 17.8759C202.135 21.8759 186.935 23.5759 172.135 25.2759C162.035 26.3759 151.635 27.5759 141.635 29.4759C113.035 34.8759 84.3346 45.0759 51.3346 61.4759C43.0346 65.8759 39.0346 74.2759 41.4346 81.9759C59.4346 138.676 75.9346 194.676 79.3346 257.176C79.5346 259.976 80.7346 262.176 82.8346 263.576C86.4346 266.076 92.6346 266.076 99.7346 263.776C108.635 260.776 117.835 257.476 126.735 254.276C163.735 240.976 202.035 227.276 240.735 227.076C240.935 227.076 241.035 227.076 241.135 227.076Z" fill="white"/>
<path d="M354.835 242.476C352.235 242.476 349.535 241.776 346.835 240.376C316.435 224.776 286.435 210.676 252.735 210.676C216.035 210.676 179.535 222.476 144.135 233.876C137.935 235.876 131.435 237.976 125.235 239.876C116.935 242.476 110.035 242.376 106.235 239.676C104.235 238.276 103.135 236.076 103.135 233.476C102.435 180.976 83.9347 135.276 64.3347 86.9762L63.6347 85.1761C60.5347 77.4761 64.8347 68.7761 73.7347 64.3761C104.135 50.0761 130.035 40.9761 155.035 35.5761C164.135 33.6761 173.635 32.2762 182.735 30.8762C195.035 29.0762 207.735 27.1762 219.835 23.8762C224.835 22.4762 233.135 22.5761 240.335 24.0761C248.635 25.5761 257.035 27.0762 265.135 28.3762C310.435 36.0762 353.135 43.2762 391.635 72.0762C397.335 76.5762 400.635 84.6761 399.635 91.6761C399.235 95.0761 398.735 98.3762 398.335 101.776C392.535 147.776 387.035 191.276 366.835 234.676C365.135 238.176 362.435 240.676 359.035 241.876C357.835 242.276 356.335 242.476 354.835 242.476ZM252.735 209.676C286.735 209.676 316.835 223.776 347.335 239.476C351.235 241.476 355.335 241.976 358.835 240.776C362.035 239.676 364.535 237.376 366.035 234.176C386.235 190.876 391.735 147.476 397.535 101.576C397.935 98.2762 398.335 94.8762 398.835 91.4762C399.735 84.7761 396.635 77.0762 391.235 72.7762C352.935 44.1762 310.335 36.9762 265.235 29.2762C257.135 27.8762 248.735 26.4762 240.335 24.8762C233.135 23.3762 225.135 23.3761 220.235 24.6761C208.035 27.9761 195.235 29.8761 182.935 31.6761C173.835 32.9761 164.435 34.3762 155.335 36.3762C130.335 41.6762 104.535 50.8762 74.2347 65.0762C65.6347 69.2762 61.6347 77.3761 64.6347 84.6761L65.3347 86.4762C84.9347 134.976 103.535 180.676 104.235 233.376C104.235 235.676 105.135 237.476 106.935 238.776C110.435 241.276 117.035 241.376 125.035 238.876C131.235 236.976 137.735 234.876 143.935 232.876C179.235 221.476 215.935 209.676 252.735 209.676Z" fill="white"/>
<path d="M349.535 219.076C347.135 219.076 344.635 218.476 342.135 217.076C279.135 181.676 217.635 198.676 152.535 216.676C143.535 219.176 136.235 219.076 132.535 216.276C130.735 214.976 129.935 213.076 129.835 210.776C129.835 167.776 110.435 130.076 91.6347 93.5761L88.5347 87.476C87.0347 84.476 86.7347 81.176 87.8347 77.976C89.3347 73.676 92.9347 70.076 98.0347 67.676C128.435 54.076 158.135 46.976 189.535 39.476C200.935 36.776 212.735 33.876 224.535 30.776C229.335 29.476 237.735 29.476 245.435 30.976C251.335 32.076 257.435 33.076 263.335 33.976C304.035 40.776 346.135 47.776 379.735 74.176C385.235 78.476 388.735 86.176 388.235 92.876C385.335 133.876 382.535 172.676 361.435 211.976C358.635 216.576 354.335 219.076 349.535 219.076ZM261.835 195.376C288.735 195.376 315.535 200.976 342.635 216.176C349.435 219.876 356.735 217.876 360.435 211.376C381.435 172.276 384.235 133.576 387.135 92.676C387.635 86.276 384.335 78.876 379.035 74.7761C345.635 48.576 303.735 41.576 263.135 34.776C257.235 33.776 251.135 32.776 245.235 31.776C237.735 30.376 229.435 30.276 224.835 31.576C213.035 34.776 201.235 37.576 189.735 40.376C158.335 47.876 128.735 55.0761 98.4347 68.5761C93.5347 70.8761 90.1347 74.2761 88.7347 78.2761C87.7347 81.1761 87.9347 84.276 89.3347 86.976L92.4347 93.0761C111.335 129.676 130.835 167.576 130.835 210.776C130.835 212.776 131.635 214.276 133.135 215.476C136.535 218.076 143.535 218.176 152.235 215.676C189.635 205.376 225.835 195.376 261.835 195.376Z" fill="white"/>
<path d="M346.635 197.076C344.435 197.076 342.235 196.476 340.035 195.276C291.335 168.376 237.935 181.276 186.335 193.676L181.035 194.976C171.535 197.276 163.935 197.076 160.235 194.276C158.635 193.076 157.735 191.376 157.735 189.376C157.235 154.276 138.035 124.776 119.535 96.1759C118.035 93.7759 116.435 91.4759 114.935 89.1759C113.135 86.4759 112.735 83.3759 113.635 80.3759C114.835 76.2759 118.335 72.776 123.535 70.476C150.835 58.776 177.635 51.5759 206.035 43.8759C213.935 41.7759 222.135 39.4759 230.335 37.1759C235.035 35.8759 243.535 35.876 251.535 37.376C254.835 37.976 258.135 38.576 261.535 39.076C298.835 45.576 337.435 52.276 368.435 75.476C373.935 79.576 377.735 86.8759 377.635 93.1759C377.535 128.576 376.035 158.176 358.135 190.276C355.435 194.676 351.135 197.076 346.635 197.076ZM274.735 178.476C297.235 178.476 319.335 182.676 340.535 194.476C346.635 197.776 353.535 195.876 357.235 189.776C374.935 157.876 376.435 128.476 376.635 93.1759C376.635 87.1759 373.035 80.176 367.835 76.276C337.035 53.176 298.535 46.576 261.335 40.076C258.035 39.476 254.635 38.8759 251.335 38.3759C243.435 36.9759 235.135 36.8759 230.635 38.1759C222.435 40.4759 214.235 42.6759 206.335 44.8759C177.935 52.5759 151.135 59.776 123.935 71.476C119.035 73.676 115.635 77.076 114.535 80.776C113.735 83.476 114.135 86.1759 115.735 88.6759C117.235 90.9759 118.735 93.3759 120.335 95.6759C138.935 124.376 158.235 153.976 158.735 189.376C158.835 191.076 159.535 192.476 160.935 193.576C164.435 196.176 171.735 196.376 180.935 194.176L186.235 192.876C215.435 185.676 245.335 178.476 274.735 178.476Z" fill="white"/>
<path d="M344.935 176.576C343.035 176.576 341.035 176.076 339.135 175.176C301.335 156.076 256.335 165.276 216.635 173.376C214.235 173.876 211.735 174.376 209.335 174.876C199.635 176.876 191.835 176.476 187.935 173.676C186.335 172.476 185.335 170.976 185.135 169.076C182.035 139.776 163.835 117.176 146.235 95.2758C144.835 93.5758 143.435 91.8758 142.135 90.0758C140.135 87.5758 139.435 84.7758 140.135 81.9758C141.035 78.1758 144.535 74.7758 149.535 72.5758C175.935 61.5758 202.035 53.7758 229.635 45.5758L236.835 43.4758C241.435 42.0758 250.035 42.1758 258.335 43.6758L263.235 44.5758C296.135 50.5758 330.135 56.8758 357.535 76.3758C363.135 80.2758 367.335 87.0758 367.735 92.9758C369.735 120.676 370.035 142.376 355.835 169.876C353.435 174.176 349.235 176.576 344.935 176.576ZM286.635 162.976C304.935 162.976 322.935 165.976 339.635 174.376C345.335 177.276 351.735 175.176 355.235 169.476C369.235 142.276 368.935 120.676 366.935 93.1758C366.535 87.5758 362.535 81.0758 357.135 77.2758C329.935 57.8758 296.035 51.6758 263.235 45.6758L258.335 44.7758C250.235 43.2758 241.735 43.1758 237.335 44.5758L230.135 46.6758C202.535 54.8758 176.435 62.5758 150.135 73.5758C145.335 75.6758 142.135 78.8758 141.335 82.2758C140.735 84.7758 141.335 87.2758 143.135 89.4758C144.535 91.1758 145.935 92.8758 147.235 94.6758C164.935 116.676 183.135 139.376 186.335 168.976C186.535 170.576 187.335 171.876 188.735 172.876C192.435 175.576 199.935 175.876 209.335 173.876C211.735 173.376 214.135 172.876 216.635 172.376C238.835 167.876 263.035 162.976 286.635 162.976Z" fill="white"/>
<path d="M343.034 157.476C341.434 157.476 339.734 157.176 338.034 156.476C309.034 143.976 274.534 149.776 244.034 154.876C241.434 155.276 238.834 155.776 236.334 156.176C222.534 158.576 212.934 156.176 211.534 149.876C206.134 127.176 190.034 110.576 174.334 94.676C172.934 93.276 171.634 91.876 170.234 90.476C168.034 88.176 167.034 85.576 167.634 82.976C168.334 79.576 171.434 76.376 176.334 74.276C199.034 64.876 222.134 57.276 244.534 49.876C249.134 48.376 257.834 48.376 266.334 49.976C292.534 55.176 322.134 61.176 347.334 76.876C353.134 80.476 357.834 86.876 358.634 92.276C362.234 112.876 362.634 129.776 353.834 150.476C351.434 155.076 347.434 157.476 343.034 157.476ZM297.034 147.976C311.334 147.976 325.434 149.976 338.334 155.476C344.134 157.876 349.934 155.676 352.834 150.076C361.634 129.576 361.134 112.876 357.634 92.476C356.834 87.276 352.334 81.176 346.734 77.676C321.734 62.076 292.134 56.176 266.134 50.976C257.834 49.376 249.234 49.276 244.834 50.776C222.434 58.176 199.334 65.776 176.734 75.176C172.234 77.076 169.234 79.976 168.634 83.176C168.134 85.476 169.034 87.776 171.034 89.776C172.334 91.176 173.734 92.576 175.134 93.976C190.834 110.076 207.134 126.676 212.534 149.676C213.834 155.376 223.134 157.476 236.234 155.176C238.834 154.776 241.334 154.276 243.934 153.876C260.834 151.076 279.134 147.976 297.034 147.976Z" fill="white"/>
<path d="M339.235 139.676C337.935 139.676 336.535 139.476 335.035 139.076C311.935 132.276 287.235 135.376 263.335 138.476L260.235 138.876C247.235 140.676 237.335 137.976 234.935 131.876C229.435 117.076 215.835 105.376 203.735 95.0759C201.835 93.4759 200.035 91.9758 198.335 90.3758C195.835 88.2758 194.735 85.7759 195.035 83.2759C195.535 80.1759 198.235 77.3758 202.735 75.3758C219.935 68.1758 237.435 61.6759 252.435 56.1759C257.035 54.4759 265.935 54.4759 274.535 56.2759C296.235 61.1759 317.335 66.3759 336.635 76.9759C342.835 80.3759 347.935 86.2759 349.135 91.2759C352.935 105.976 353.135 117.776 349.735 132.176C348.135 136.976 344.135 139.676 339.235 139.676ZM303.835 133.976C314.535 133.976 325.035 135.076 335.335 138.076C341.535 139.876 346.835 137.476 348.935 131.976C352.235 117.776 352.135 106.076 348.335 91.5759C347.435 87.6759 343.235 81.7758 336.235 77.8758C317.035 67.3758 296.035 62.1759 274.335 57.2759C265.935 55.4759 257.235 55.4759 252.735 57.0759C237.735 62.5759 220.235 69.0759 203.135 76.2759C199.035 78.0759 196.435 80.6758 196.035 83.3758C195.735 85.5758 196.735 87.6759 198.935 89.5759C200.735 91.0759 202.535 92.6759 204.335 94.2759C216.535 104.676 230.335 116.376 235.835 131.476C238.035 137.076 247.635 139.576 260.135 137.776L263.235 137.376C276.635 135.676 290.335 133.976 303.835 133.976Z" fill="white"/>
<path d="M332.335 122.976C331.335 122.976 330.235 122.876 329.135 122.676C313.235 119.676 296.735 121.076 280.835 122.476L280.235 122.576C268.735 123.776 258.435 120.976 254.035 115.376C245.635 104.976 235.135 96.7758 226.035 90.0758C223.235 87.9758 221.935 85.6758 222.235 83.1758C222.535 80.3758 224.935 77.9758 228.935 76.1758C239.135 71.7758 249.935 67.2758 260.935 62.7758C265.735 60.7758 274.835 60.7758 283.435 62.8758C297.335 66.4758 311.935 70.4758 325.935 76.9758C332.635 80.1758 338.335 85.5758 339.635 90.1758C342.635 100.076 343.735 104.476 342.635 115.276C342.435 117.576 341.335 119.476 339.535 120.776C337.635 122.276 335.135 122.976 332.335 122.976ZM308.035 119.876C315.135 119.876 322.235 120.376 329.335 121.676C333.135 122.376 336.635 121.776 338.935 120.076C340.535 118.876 341.435 117.276 341.635 115.276C342.735 104.776 341.535 100.376 338.635 90.5758C337.335 86.1758 331.935 80.9758 325.435 77.9758C311.635 71.4758 296.935 67.4758 283.135 63.8758C274.735 61.8758 265.935 61.7758 261.235 63.7758C250.235 68.2758 239.435 72.7758 229.235 77.0758C225.635 78.6758 223.435 80.8758 223.135 83.2758C222.935 85.3758 224.135 87.3758 226.535 89.2758C235.735 95.9758 246.235 104.276 254.735 114.676C258.835 119.876 269.035 122.676 280.035 121.476L280.635 121.376C289.735 120.676 298.935 119.876 308.035 119.876Z" fill="white"/>
<path d="M321.035 108.076C320.135 108.076 319.235 108.076 318.335 107.976C310.235 107.176 305.535 107.176 294.435 107.976C283.835 108.776 273.235 106.076 267.935 101.376C262.335 96.3762 259.135 94.0762 252.735 89.6762C249.735 87.6762 248.235 85.1762 248.435 82.8762C248.635 80.4762 250.635 78.2762 253.935 76.7762C257.335 75.2762 259.735 74.1762 262.035 73.0762C264.335 71.9762 266.535 71.0762 269.335 69.7762C274.435 67.4762 283.635 67.4762 292.235 69.8762C301.935 72.5762 306.135 73.9762 314.035 77.0762C321.435 79.9762 327.535 85.0762 328.835 89.4762C330.235 94.0762 330.735 96.3762 331.035 101.076C331.135 102.876 330.535 104.476 329.335 105.576C327.635 107.276 324.735 108.076 321.035 108.076ZM307.335 106.376C311.035 106.376 314.235 106.576 318.435 106.976C323.135 107.476 326.735 106.676 328.635 104.876C329.635 103.876 330.135 102.676 330.035 101.176C329.735 96.4762 329.235 94.2762 327.835 89.7762C326.635 85.6762 320.735 80.8762 313.635 78.0762C305.835 74.9762 301.535 73.5762 291.935 70.8762C283.635 68.5762 274.635 68.4762 269.735 70.7762C266.935 72.0762 264.835 72.9762 262.435 74.0762C260.135 75.0762 257.735 76.1762 254.335 77.7762C251.335 79.1762 249.535 80.9762 249.335 83.0762C249.135 85.0762 250.535 87.1762 253.235 88.9762C259.735 93.3762 262.935 95.6762 268.535 100.676C273.535 105.176 284.135 107.776 294.335 107.076C299.835 106.576 303.735 106.376 307.335 106.376Z" fill="white"/>
<path d="M301.835 95.9762C292.935 95.9762 283.235 93.4762 277.735 89.6762C274.535 87.4762 272.935 84.9762 273.035 82.6762C273.235 80.5762 274.735 78.7762 277.335 77.4762C282.835 74.7762 292.235 74.7762 300.535 77.4762C308.935 80.2762 315.235 84.9762 316.235 89.2762C316.535 90.6762 316.335 91.7762 315.635 92.7762C314.135 94.7762 310.435 95.7762 303.535 95.9762C303.035 95.8762 302.435 95.9762 301.835 95.9762ZM287.835 76.3762C283.935 76.3762 280.435 76.9762 277.735 78.2762C275.335 79.4762 274.035 80.9762 273.935 82.6762C273.835 84.6762 275.335 86.8762 278.135 88.8762C283.835 92.7762 294.335 95.2762 303.435 94.9762C309.835 94.6762 313.435 93.7762 314.735 92.1762C315.235 91.4762 315.435 90.5762 315.135 89.5762C314.235 85.6762 308.135 81.0762 300.135 78.4762C296.235 76.9762 291.835 76.3762 287.835 76.3762Z" fill="white"/>
</svg>
