<svg width="456" height="397" viewBox="0 0 456 397" fill="none" xmlns="http://www.w3.org/2000/svg">
<path d="M23.1 64.3792C16.9 64.3792 10.6 64.3792 4.40002 64.3792V63.3792C27.5 63.3792 51 63.3792 73.7 63.3792C92 63.3792 110.2 63.3792 128.5 63.3792C176.5 63.3792 217.4 47.5792 260.6 30.8792C266.2 28.6792 272.5 25.9792 279.1 23.1792C311.8 9.17921 356.5 -10.0208 386 6.17921C398.8 13.1792 406.2 23.5792 413.3 33.5792C423.3 47.5792 432.7 60.8792 455.9 63.4792L455.8 64.4792C432.2 61.7792 422.7 48.3792 412.5 34.1792C405.4 24.2792 398.1 13.9792 385.5 7.07921C356.4 -8.92079 311.9 10.1792 279.5 24.0792C272.8 26.9792 266.5 29.6792 260.9 31.7792C217.5 48.5792 176.6 64.3792 128.4 64.3792C110.1 64.3792 91.9 64.3792 73.6 64.3792C57.1 64.2792 40.1 64.3792 23.1 64.3792Z" fill="white"/>
<path d="M11.5 77.7792C9.10005 77.7792 6.70005 77.7792 4.30005 77.7792V76.7792C27.2 77.0792 50.4001 75.9792 72.9001 74.8792C90.0001 74.0792 107.7 73.1792 125.1 72.9792C172.1 72.3792 213.4 58.1792 257.1 43.2792L259.1 42.5792C265.4 40.3792 272.7 37.4792 280.5 34.4792C313.1 21.5792 357.7 3.87921 386 19.3792C398.8 26.3792 406.2 36.7792 413.4 46.7792C423.4 60.7792 432.8 73.9792 455.8 76.6792L455.7 77.6792C432.3 74.9792 422.7 61.5792 412.6 47.3792C405.5 37.4792 398.2 27.1792 385.6 20.2792C357.7 4.97921 313.3 22.5792 281 35.3792C273.3 38.4792 265.9 41.3792 259.6 43.5792L257.6 44.2792C213.8 59.2792 172.5 73.4792 125.3 74.0792C107.9 74.2792 90.2001 75.1792 73.1001 75.9792C52.9001 76.7792 32.1 77.7792 11.5 77.7792Z" fill="white"/>
<path d="M4.19995 91.0792V90.0792C26 90.0792 47.7 87.1792 68.7 84.4792C84.8999 82.3792 101.6 80.1792 118.2 79.2792C164.8 76.7792 206.2 66.0792 255.5 52.3792C260.6 50.9792 265.7 49.4792 270.9 48.0792C288.2 43.1792 306.1 38.1792 323.9 33.8792C325.2 33.5792 326.5 33.2792 327.9 32.8792C346 28.4792 368.5 22.9792 385.9 32.4792C398.8 39.4792 406.2 49.8792 413.4 59.9792C423.4 73.9792 432.8 87.1792 455.7 89.9792L455.6 90.9792C432.3 88.1792 422.7 74.7792 412.6 60.5792C405.5 50.5792 398.1 40.2792 385.5 33.3792C368.4 24.0792 346.1 29.4792 328.2 33.8792C326.9 34.1792 325.5 34.5792 324.2 34.8792C306.4 39.0792 288.5 44.1792 271.2 49.0792C266.1 50.4792 261 51.9792 255.8 53.3792C206.4 67.0792 164.9 77.8792 118.3 80.3792C101.7 81.2792 84.9999 83.4792 68.8999 85.5792C47.7999 88.1792 26 90.9792 4.19995 91.0792Z" fill="white"/>
<path d="M4 104.279V103.279C24.6 102.579 44.4 97.5792 63.4 92.7792C78 89.0792 93.2 85.2792 108.7 83.3792C162.2 76.8792 207.3 69.6792 250.4 60.8792C257.7 59.3792 264.9 57.8792 272.2 56.3792C288.6 52.9792 305.5 49.4792 322.2 46.2792C324.5 45.8792 326.8 45.3792 329.2 44.8792C347.9 41.0792 369.1 36.7792 385.8 45.8792C398.7 52.8792 406.1 63.2792 413.3 73.3792C423.3 87.3792 432.7 100.579 455.5 103.379L455.4 104.379C432.2 101.479 422.7 88.1792 412.6 73.9792C405.5 63.9792 398.1 53.6792 385.4 46.7792C369 37.8792 348 42.1792 329.4 45.8792C327 46.3792 324.7 46.8792 322.4 47.2792C305.7 50.4792 288.8 53.9792 272.4 57.3792C265.1 58.8792 257.9 60.3792 250.6 61.8792C207.4 70.7792 162.4 77.8792 108.8 84.4792C93.3 86.3792 78.2 90.1792 63.6 93.8792C44.5 98.5792 24.7 103.579 4 104.279Z" fill="white"/>
<path d="M455.2 117.579C432.1 114.679 422.6 101.279 412.5 87.1792C405.3 77.1792 397.9 66.7792 385.2 59.9792C369.4 51.4792 348.6 54.7792 330.2 57.7792C326.7 58.3792 323.4 58.8792 320.2 59.2792C312 60.3792 303.9 61.4792 295.7 62.5792C278.9 64.8792 261.5 67.2792 244.4 69.4792C231.4 71.1792 218.1 72.9792 205.3 74.7792C190.2 76.8792 174.7 78.9792 159.3 80.9792C151.1 82.0792 142.6 82.5792 134.3 83.0792C122.1 83.7792 109.6 84.5792 97.7 87.0792C83.4 90.1791 70.2 95.8791 57.4 101.279C40.7 108.479 23.5 115.879 3.50002 117.479L3.40002 116.479C23.1 114.879 40.3 107.479 56.9 100.379C69.7 94.8792 82.9 89.1791 97.4 86.0792C109.4 83.4792 122 82.7792 134.2 81.9792C142.4 81.4792 150.9 80.9792 159.1 79.8792C174.4 77.8792 190 75.7792 205.1 73.6792C217.9 71.8792 231.1 70.0792 244.2 68.3792C261.3 66.0792 278.7 63.7792 295.5 61.4792C303.7 60.3792 311.8 59.2792 320 58.1792C323.2 57.7792 326.5 57.1792 330 56.6792C348.5 53.6792 369.5 50.3792 385.6 58.9792C398.5 65.8792 406 76.3792 413.2 86.4792C423.2 100.479 432.6 113.579 455.2 116.479V117.579Z" fill="white"/>
<path d="M455 130.879C432 127.879 422.5 114.579 412.4 100.379C405.2 90.2793 397.8 79.8793 385 73.0793C369.7 64.8793 349 67.3793 330.7 69.5793C326.2 70.0793 321.9 70.6793 317.8 70.9793C290.2 73.2793 262.1 75.0793 237.9 76.6793C205 78.7793 175.7 80.8793 148.3 83.1793C142.2 83.6793 135.7 83.8793 129.4 83.9793C114.8 84.3793 99.7 84.7793 86.3 89.1793C72.9 93.5793 61.9 101.179 51.3 108.479C37.4 118.079 23 127.879 3.29995 130.579L3.19995 129.579C22.6 126.979 36.2999 117.579 50.6999 107.679C61.3999 100.379 72.4 92.7793 86 88.2793C99.6 83.7793 114.8 83.3793 129.4 82.9793C135.7 82.7793 142.1 82.6793 148.2 82.1793C175.5 79.9793 204.8 77.8793 237.8 75.6793C262 74.0793 290.2 72.2793 317.7 69.9793C321.7 69.6793 326 69.0793 330.5 68.5793C348.9 66.3793 369.8 63.7793 385.4 72.1793C398.4 79.0793 405.9 89.5793 413.1 99.7793C423.1 113.679 432.5 126.879 455 129.779V130.879Z" fill="white"/>
<path d="M454.9 144.179C432.1 141.179 422.5 127.779 412.5 113.679C405.3 103.579 397.9 93.1792 385.1 86.3792C370.1 78.4792 349.4 80.2792 331.2 81.9792C325.7 82.4792 320.5 82.9792 315.7 83.1792C289 84.1792 261.8 84.3792 235.6 84.5792H231.5C200.8 84.7792 169.1 84.9792 137.2 86.2792C132.1 86.4792 126.8 86.4792 121.2 86.3792C105.1 86.1792 88.5 85.9792 74.8 92.3792C62 98.0792 53.4 107.379 45.1 116.379C34.3 128.079 23.1 140.179 3.2 143.979L3 142.979C22.6 139.279 33.2 127.779 44.4 115.679C52.8 106.679 61.4 97.2792 74.2 91.3792C88.1 84.8792 104.9 85.0792 121.1 85.2792C126.7 85.3792 132 85.3792 137.1 85.1792C169 83.8792 200.7 83.6792 231.4 83.4792H235.5C261.8 83.2792 288.9 83.1792 315.6 82.0792C320.4 81.8792 325.6 81.3792 331.1 80.8792C349.5 79.1792 370.3 77.3792 385.5 85.3792C398.5 92.2792 406 102.779 413.3 112.979C423.2 126.879 432.6 140.079 455.1 143.079L454.9 144.179Z" fill="white"/>
<path d="M454.7 157.479C432 154.379 422.5 141.079 412.4 126.979C405.2 116.879 397.7 106.379 384.9 99.6791C370.1 91.8791 349.5 93.3791 331.3 94.7791C325 95.2791 319 95.6791 313.6 95.6791C286.8 95.8791 259.6 94.8791 233.2 93.8791L218.6 93.3791C188.6 92.2791 157.6 91.1791 127 91.5791C122.4 91.6791 117.5 91.4791 112.3 91.2791C96 90.6791 77.5 89.9791 64.2 97.7791C53.8 103.879 47.5 114.879 41.5 125.479C32.9 140.579 23.9 156.279 3 157.279V156.279C23.4 155.279 31.8 140.579 40.7 124.979C46.8 114.179 53.2 103.079 63.8 96.8791C77.4 88.9791 96 89.6791 112.5 90.2791C117.7 90.4791 122.5 90.6791 127.1 90.5791C157.7 90.0791 188.7 91.2791 218.7 92.3791L233.3 92.8791C259.6 93.8791 286.9 94.8791 313.6 94.6791C319 94.6791 325 94.1791 331.3 93.7791C349.6 92.4791 370.4 90.8791 385.4 98.7791C398.5 105.679 406 116.179 413.3 126.379C423.2 140.279 432.6 153.479 454.9 156.479L454.7 157.479Z" fill="white"/>
<path d="M454.5 170.779C431.9 167.679 422.4 154.379 412.3 140.279C405.1 130.179 397.6 119.679 384.7 112.979C370 105.279 349.6 106.879 331.6 108.179C324.7 108.679 318.2 109.179 312.4 109.179C285 109.079 257.2 107.379 230.3 105.779L213.3 104.779C183.1 102.979 152 100.979 121.2 101.279C116.8 101.279 112 101.079 107 100.879C90.1 100.079 71 99.2792 58.1 107.479C48.3 113.779 43.3 125.579 38.5 137.079C31.6 153.579 24.4 170.679 2.80005 170.779V169.779C23.8 169.679 30.5 153.679 37.6 136.679C42.5 125.079 47.5 113.079 57.6 106.579C70.8 98.1792 90.1001 98.9792 107.1 99.7792C112.2 99.9792 116.9 100.179 121.3 100.179C152 99.8792 183.3 101.779 213.4 103.679L230.4 104.679C257.3 106.279 285.1 107.979 312.5 108.079C312.6 108.079 312.7 108.079 312.8 108.079C318.6 108.079 324.9 107.579 331.7 107.079C349.9 105.679 370.5 104.179 385.4 111.979C398.5 118.779 406 129.379 413.4 139.679C423.3 153.579 432.7 166.679 454.9 169.779L454.5 170.779Z" fill="white"/>
<path d="M454.4 184.079C432.7 181.079 422.4 168.579 411.5 155.479C403.7 145.979 395.6 136.279 382.8 130.079C368.2 122.979 348.4 124.279 330.9 125.479C323.6 125.979 316.8 126.379 310.5 126.279C283.2 125.779 255.5 123.579 228.7 121.479L211.1 120.079C181.3 117.679 150.6 115.179 120.3 115.079C116.1 115.079 111.5 114.779 106.7 114.579C89.6 113.679 70.3 112.679 57.3 120.879C47.6 127.079 42.8 139.079 38.2 150.579C31.5 167.279 24.6 184.579 2.59998 184.079V183.079C2.89998 183.079 3.19998 183.079 3.49998 183.079C24.1 183.079 30.4 167.079 37.2 150.179C41.9 138.479 46.7 126.379 56.7 119.979C69.9 111.579 89.4 112.579 106.7 113.479C111.5 113.779 116.1 113.979 120.3 113.979C150.7 114.079 181.4 116.579 211.2 118.979L228.8 120.379C255.6 122.479 283.2 124.779 310.5 125.179C316.7 125.279 323.6 124.879 330.8 124.379C348.4 123.179 368.4 121.879 383.2 129.079C396.2 135.379 404.4 145.279 412.2 154.779C423 167.779 433.1 180.079 454.4 183.079V184.079Z" fill="white"/>
<path d="M454.2 197.379C433.4 194.979 421.2 184.179 408.3 172.779C399.1 164.579 389.5 156.179 376.5 151.079C361.9 145.379 344.2 145.979 327.1 146.479C319.1 146.779 311.6 146.979 304.5 146.579C278.2 145.179 251.7 142.179 226 139.179L216.8 138.079C213.1 137.679 209.4 137.279 205.7 136.779C177.4 133.479 148.1 130.179 119.1 129.079C115.3 128.979 111.2 128.579 106.8 128.279C89.7 126.979 70.3 125.379 57.2 133.879C47.6 140.079 42.8 151.979 38.2 163.579C31.5 180.379 24.5 197.679 2.5 197.079V196.079C23.9 196.679 30.4 180.379 37.3 163.179C42 151.479 46.8 139.379 56.7 133.079C70.1 124.479 89.6 125.979 106.9 127.379C111.3 127.679 115.4 128.079 119.2 128.179C148.2 129.179 177.5 132.579 205.8 135.879C209.5 136.279 213.2 136.779 216.9 137.179L226.1 138.279C251.8 141.179 278.3 144.279 304.6 145.679C311.6 146.079 319.2 145.779 327.1 145.579C344.3 144.979 362.1 144.379 376.9 150.179C390.1 155.379 399.7 163.879 409 172.079C421.8 183.379 433.9 194.079 454.4 196.379L454.2 197.379Z" fill="white"/>
<path d="M3.50005 210.679C3.10005 210.679 2.70005 210.679 2.30005 210.679V209.679C23.8 210.379 30.3001 194.079 37.2001 176.779C41.9001 165.179 46.7001 153.079 56.5 146.679C70 137.879 89.5 139.779 106.8 141.479C110.7 141.879 114.4 142.179 117.8 142.379C145.6 144.079 173.7 148.179 200.8 152.079C204.8 152.679 208.7 153.179 212.7 153.779L222.2 155.179C246.9 158.779 272.5 162.479 297.8 164.479C305.7 165.179 313.9 165.079 322.6 164.979C338.6 164.879 355.2 164.779 369.8 169.479C383.4 173.879 394.5 181.179 405.2 188.279C420.1 198.179 434.2 207.479 454.3 209.579L454.2 210.579C433.9 208.479 419 198.679 404.7 189.179C394 182.079 383 174.779 369.6 170.479C355.2 165.879 338.7 165.979 322.7 166.079C314 166.179 305.8 166.179 297.9 165.579C272.6 163.479 247 159.779 222.3 156.279L212.8 154.879C208.8 154.279 204.9 153.779 200.9 153.179C173.8 149.279 145.7 145.179 118 143.479C114.6 143.279 110.9 142.879 107 142.479C89.9 140.779 70.6001 138.979 57.4001 147.479C47.8 153.679 43.1 165.579 38.5 177.079C31.6 193.579 24.8 210.679 3.50005 210.679Z" fill="white"/>
<path d="M453.9 223.979C433.6 222.279 416.6 214.179 400.2 206.379C388 200.579 375.3 194.579 361.3 191.079C347.6 187.679 332.8 187.379 318.5 186.979C309 186.779 299.3 186.479 289.9 185.379C265.7 182.479 241.4 178.079 217.8 173.779C214.4 173.179 211.1 172.579 207.7 171.979C203.5 171.179 199.2 170.479 195 169.679C169.3 164.979 142.6 160.079 116.2 157.579C113.2 157.279 110 156.879 106.6 156.479C90.4 154.479 70.3 151.979 56.9 160.779C45.3 168.379 40.7 179.779 36.3 190.779C30.3 205.779 24.5 220.079 2.10003 223.879L1.90002 222.879C23.8 219.079 29.4 205.179 35.3 190.379C39.8 179.279 44.4 167.679 56.3 159.979C70 150.979 90.3 153.479 106.6 155.579C110 155.979 113.2 156.379 116.2 156.679C142.7 159.179 169.3 164.079 195.1 168.779C199.3 169.579 203.6 170.279 207.8 171.079C211.2 171.679 214.5 172.279 217.9 172.879C241.4 177.179 265.8 181.579 289.9 184.479C299.2 185.579 308.9 185.779 318.4 186.079C332.8 186.379 347.6 186.779 361.4 190.179C375.5 193.679 388.2 199.679 400.5 205.479C416.9 213.279 433.8 221.279 453.9 222.979V223.979Z" fill="white"/>
<path d="M453.7 237.279C433 236.079 413.9 229.779 395.5 223.779C381.8 219.279 367.5 214.579 352.7 212.079C340.7 209.979 328.4 209.379 316.4 208.779C305 208.179 293.2 207.579 281.7 205.779C258.7 202.079 235.6 196.879 213.3 191.879C209.8 191.079 206.2 190.279 202.7 189.479C198.3 188.479 193.9 187.479 189.5 186.479C165.1 180.979 139.9 175.279 114.7 171.979C112.1 171.679 109.5 171.279 106.6 170.779C90.5 168.279 70.4 165.279 56.9 174.179C45.3 181.779 40.8 193.179 36.4 204.179C30.4 219.279 24.6 233.479 2.10003 237.279L1.90002 236.279C23.9 232.579 29.5 218.579 35.4 203.779C39.9 192.679 44.5 181.179 56.3 173.379C70.2 164.179 90.4 167.279 106.7 169.779C109.5 170.179 112.2 170.579 114.7 170.979C139.9 174.279 165.1 179.979 189.5 185.479C193.9 186.479 198.3 187.479 202.7 188.479C206.2 189.279 209.8 190.079 213.3 190.879C235.6 195.879 258.7 201.079 281.7 204.779C293.1 206.579 304.9 207.179 316.3 207.779C328.3 208.379 340.7 208.979 352.7 211.079C367.6 213.679 381.9 218.379 395.7 222.879C414.1 228.879 433.1 235.079 453.7 236.379V237.279Z" fill="white"/>
<path d="M453.5 250.579C432 249.779 411.1 245.279 390.9 240.979C375.8 237.779 360.2 234.379 344.4 232.579C335.5 231.579 326.5 230.979 317.8 230.379C303.4 229.479 288.6 228.479 273.8 225.479C251.9 221.079 229.9 215.179 208.7 209.379C205.1 208.379 201.5 207.479 197.8 206.479C193.3 205.279 188.9 204.079 184.4 202.879C161.2 196.579 137.1 190.079 113.1 186.079C111 185.679 108.8 185.279 106.5 184.879C90.4 181.979 70.5 178.279 56.7 187.479C45.2 195.179 40.6 206.479 36.2 217.379C30.1 232.479 24.4 246.679 1.79997 250.379L1.59998 249.379C23.7 245.779 29.3 231.779 35.3 216.979C39.8 205.879 44.4 194.379 56.1 186.579C70.2 177.179 90.4 180.879 106.7 183.879C109 184.279 111.2 184.679 113.3 185.079C137.4 189.079 161.4 195.679 184.7 201.979C189.2 203.179 193.6 204.379 198.1 205.579C201.7 206.579 205.3 207.479 209 208.479C230.2 214.179 252.2 220.079 274.1 224.479C288.8 227.479 303.6 228.379 317.9 229.279C326.6 229.879 335.6 230.379 344.5 231.479C360.3 233.279 376 236.579 391.1 239.879C411.3 244.179 432.1 248.679 453.5 249.479V250.579Z" fill="white"/>
<path d="M453.3 263.879C431 263.279 408.6 260.379 387 257.579C370.7 255.479 353.9 253.279 337.2 252.079C292 248.879 249.1 240.179 193.7 223.079C189.3 221.779 185 220.379 180.6 218.979C158.2 211.979 135.1 204.779 111.9 200.079C110.2 199.779 108.5 199.379 106.7 198.979C90.6 195.579 70.7 191.379 56.6 200.879C45.1 208.579 40.6 219.879 36.2 230.779C30.1 245.879 24.4 260.079 1.60003 263.779L1.40002 262.779C23.6 259.179 29.3 245.179 35.2 230.379C39.6 219.279 44.2 207.879 56 199.979C70.4 190.279 90.6 194.579 106.8 197.979C108.6 198.379 110.3 198.679 111.9 199.079C135.2 203.779 158.3 210.979 180.7 217.979C185.1 219.379 189.4 220.679 193.8 222.079C249.1 239.179 291.9 247.779 337 250.979C353.7 252.179 370.6 254.379 386.8 256.479C408.4 259.279 430.7 262.179 453 262.779L453.3 263.879Z" fill="white"/>
<path d="M453.1 277.179C430 277.079 406.6 276.079 384 275.179C366.6 274.479 348.5 273.679 330.8 273.379C281.9 272.379 239.9 258.579 190.1 240.679C185.8 239.179 181.5 237.579 177.2 235.979C155.6 228.079 133.3 219.979 110.8 214.479C109.6 214.179 108.3 213.879 107 213.579C90.9 209.579 70.9 204.679 56.5 214.379C45.1001 222.079 40.6001 233.379 36.2001 244.279C30.1 259.379 24.4 273.679 1.50005 277.279L1.30005 276.279C23.7 272.779 29.3001 258.779 35.2001 243.979C39.6001 232.979 44.2001 221.579 55.9001 213.679C70.7001 203.679 90.9 208.679 107.2 212.779C108.5 213.079 109.7 213.379 111 213.679C133.6 219.179 155.9 227.279 177.5 235.179C181.8 236.779 186.1 238.279 190.4 239.879C240.1 257.779 282.1 271.579 330.8 272.579C348.6 272.879 366.6 273.679 384 274.379C406.6 275.379 430 276.279 453 276.379L453.1 277.179Z" fill="white"/>
<path d="M432.1 290.579C415.8 290.579 399.5 290.479 383.5 290.279C365.7 290.179 347.3 289.979 329.1 290.079C328.9 290.079 328.8 290.079 328.6 290.079C279 290.079 236 273.879 190.5 256.779L189.3 256.279C185.3 254.779 181.2 253.179 177.1 251.679C155.6 243.479 133.4 234.979 110.9 229.279C109.8 228.979 108.7 228.679 107.5 228.379C91.6 224.179 71.7 219.079 57.2 228.779C48 234.979 43 246.379 38.2 257.579C31 274.379 23.5 291.679 1.09998 290.479L1.19998 289.479C22.9 290.679 29.9 274.379 37.3 257.179C42.1 245.879 47.1 234.279 56.6 227.979C71.5 217.979 91.6 223.279 107.8 227.479C109 227.779 110.1 228.079 111.2 228.379C133.8 234.179 156 242.679 177.5 250.879C181.6 252.379 185.6 253.979 189.7 255.479L190.9 255.979C236.4 273.179 279.4 289.379 329.1 289.279C347.2 289.279 365.7 289.379 383.5 289.479C406.3 289.679 429.8 289.879 452.9 289.679V290.679C446 290.579 439.1 290.579 432.1 290.579Z" fill="white"/>
<path d="M445.2 303.979C425 303.979 404.7 302.879 384.9 301.879C367.6 300.979 349.7 299.979 332.1 299.779C284.1 299.179 241.9 286.279 195.6 270.779C192.1 269.579 188.5 268.379 185 267.179C163.7 259.979 141.7 252.479 119.5 247.479L116.6 246.779C100 242.979 81.2 238.679 66 247.179C56.1 252.779 49.4 263.379 43 273.679C33.2 289.379 23.1 305.579 1.09998 303.879L1.19998 302.879C22.6 304.479 32.1 289.279 42.2 273.179C48.7 262.779 55.4 252.079 65.6 246.379C81.1 237.679 100.1 241.979 116.9 245.879L119.8 246.579C142 251.579 164.1 259.079 185.4 266.279C188.9 267.479 192.5 268.679 196 269.879C242.2 285.379 284.3 298.279 332.2 298.879C349.9 299.079 367.7 300.079 385.1 300.979C407.3 302.179 430.2 303.379 452.9 303.079V304.079C450.2 303.979 447.7 303.979 445.2 303.979Z" fill="white"/>
<path d="M452.6 317.179C430.9 317.179 409.1 314.379 388.2 311.779C371.7 309.679 354.7 307.579 337.8 306.679C287.8 304.179 245.4 293.279 207.1 281.879C200.6 279.979 193.5 277.479 185.9 274.979C152.1 263.479 110 249.179 80.6 262.879C67.5 268.979 58.3 278.779 49.4 288.279C36.4 302.079 24.1 315.179 1.00002 317.179L0.900024 316.179C23.6 314.179 35.8 301.279 48.6 287.579C57.6 278.079 66.8 268.179 80.1 261.979C109.8 248.079 152.1 262.479 186.1 274.079C193.6 276.679 200.8 279.079 207.2 280.979C245.5 292.379 287.8 303.279 337.7 305.779C354.7 306.579 371.7 308.779 388.2 310.879C409.2 313.579 430.8 316.279 452.5 316.279L452.6 317.179Z" fill="white"/>
<path d="M452.5 330.479C431.9 329.779 411.9 325.179 392.6 320.679C377.4 317.179 361.7 313.479 345.7 311.779C295.5 306.479 258.3 300.079 221.4 290.379C215 288.679 208.3 286.779 201.2 284.679C167.1 274.679 128.5 263.379 97.7 275.979C82.9 281.979 71.0001 291.679 59.4001 301.079C42.1001 315.079 25.8 328.279 0.900049 330.479L0.800049 329.479C25.5 327.279 41.7001 314.179 58.8001 300.279C70.4001 290.879 82.4 281.179 97.3 275.079C128.4 262.379 167.2 273.779 201.5 283.779C208.6 285.879 215.3 287.779 221.7 289.479C258.5 299.079 295.7 305.479 345.8 310.879C361.8 312.579 377.6 316.279 392.8 319.779C412 324.279 431.9 328.879 452.5 329.579V330.479Z" fill="white"/>
<path d="M0.79995 343.779L0.699951 342.779C28.1 340.379 48.5999 327.279 70.3999 313.279C84.5999 304.179 99.4 294.679 116.1 288.679C148.1 277.179 185.6 285.879 218.7 293.479C225 294.979 230.9 296.279 236.7 297.579L240.7 298.479C258.2 302.179 276.2 305.979 294.2 308.979C303.6 310.479 313.2 311.079 322.5 311.679C332.6 312.279 343 312.879 353.2 314.779C368.5 317.579 383 322.879 397 328.079C414.5 334.579 432.7 341.279 452.5 342.879L452.4 343.879C432.4 342.279 414.3 335.579 396.7 329.079C382.7 323.879 368.3 318.579 353.1 315.879C343 314.079 332.6 313.479 322.6 312.779C313.3 312.179 303.6 311.679 294.2 310.079C276.2 307.179 258.2 303.279 240.7 299.579L236.7 298.679C230.8 297.479 224.9 296.079 218.7 294.579C185.8 286.979 148.4 278.279 116.7 289.679C100.1 295.679 85.3999 305.079 71.2 314.179C50 327.479 28.4 341.379 0.79995 343.779Z" fill="white"/>
<path d="M0.6 357.079L0.5 356.079C30.8 353.579 56.6 339.879 81.6 326.579C98.2 317.779 115.3 308.679 133.8 302.679C166.2 292.279 201.3 297.979 235.3 303.579C240.5 304.479 245.8 305.279 251 306.079L253.1 306.379C269.9 308.979 287.3 311.579 304.5 313.579C311.2 314.379 318.3 314.579 325.1 314.879C336.8 315.279 349 315.779 360.3 318.679C375.1 322.479 388.2 329.479 400.9 336.279C416.7 344.679 433 353.379 452.4 355.879L452.3 356.879C432.7 354.379 416.3 345.679 400.5 337.179C387.9 330.479 374.8 323.479 360.1 319.679C348.9 316.779 336.8 316.279 325.1 315.879C318.3 315.579 311.2 315.379 304.4 314.579C287.2 312.679 269.8 309.979 252.9 307.379L250.8 307.079C245.6 306.279 240.3 305.379 235.1 304.579C201.3 298.979 166.3 293.279 134.1 303.579C115.7 309.479 98.6 318.579 82.1 327.379C57 340.779 31.1 354.579 0.6 357.079Z" fill="white"/>
<path d="M0.400049 370.379L0.300049 369.379C33.2001 366.779 62.8 353.179 91.5 339.879C109.9 331.379 128.9 322.579 148.8 316.779C180.7 307.379 214.9 310.779 248 313.979C253 314.479 258.1 314.979 263 315.379C278.5 316.779 296.1 318.379 313.3 319.379C318.4 319.679 323.8 319.679 329 319.779C341.6 319.879 354.6 319.979 366.5 323.879C381 328.679 392.8 337.079 404.2 345.279C418.3 355.379 432.9 365.779 452.3 369.079L452.1 370.079C432.5 366.779 417.8 356.279 403.6 346.179C392.2 337.979 380.4 329.579 366.1 324.879C354.4 320.979 341.4 320.979 328.9 320.879C323.7 320.879 318.3 320.779 313.2 320.479C296 319.479 278.4 317.879 262.9 316.479C257.9 316.079 252.8 315.479 247.8 315.079C214.8 311.779 180.7 308.379 149 317.779C129.2 323.679 110.2 332.379 91.9001 340.879C63.3001 354.079 33.6001 367.779 0.400049 370.379Z" fill="white"/>
<path d="M0.29995 383.679L0.199951 382.679C35.2 379.879 67.6 366.279 99 353.179C118.5 344.979 138.7 336.579 159.4 330.679C189.7 322.179 222.1 323.679 253.4 325.079C259.3 325.379 265.4 325.679 271.4 325.879C280.4 326.179 290.3 325.879 300.7 325.479C325.4 324.579 351 323.679 371 331.179C385.4 336.579 396.2 346.279 406.6 355.579C419.4 366.979 432.6 378.779 452.2 382.379L452 383.379C432.1 379.679 418.8 367.779 405.9 356.279C395.5 346.979 384.8 337.479 370.6 332.079C350.8 324.579 325.3 325.479 300.7 326.379C290.3 326.779 280.4 327.079 271.3 326.779C265.3 326.579 259.2 326.279 253.3 325.979C222.1 324.579 189.7 323.079 159.6 331.479C139 337.279 118.8 345.779 99.3 353.879C67.9 367.279 35.3999 380.879 0.29995 383.679Z" fill="white"/>
<path d="M0.1 396.979L0 395.979C35.9 392.879 69.9 379.279 102.7 366.179C122.6 358.279 143.1 350.079 163.9 344.179C192.2 336.279 222.5 336.879 251.7 337.479C259.2 337.679 267 337.779 274.5 337.779H274.6C282.7 337.779 291.5 337.279 300.9 336.679C325.1 335.179 352.6 333.579 372.9 341.479C387.5 347.179 397.6 357.479 407.4 367.579C419.9 380.279 431.6 392.379 451.8 395.879L451.6 396.879C431.1 393.279 418.7 380.579 406.6 368.279C396.9 358.279 386.8 348.079 372.4 342.479C352.3 334.679 325 336.279 300.8 337.779C291.4 338.379 282.6 338.879 274.5 338.879H274.4C266.8 338.879 259.1 338.679 251.5 338.579C222.3 337.979 192.1 337.379 164 345.279C143.3 351.079 122.8 359.279 102.9 367.179C70.2 380.179 36.1 393.779 0.1 396.979Z" fill="white"/>
</svg>
