<svg width="344" height="418" viewBox="0 0 344 418" fill="none" xmlns="http://www.w3.org/2000/svg">
<path d="M343.8 418L343 417.2C295.5 372.6 234.8 348 171.9 348C109 348 48.3 372.6 0.800003 417.2L0 418V70.2001L0.200005 70.1001C47.8 25.3001 108.8 0.600098 171.9 0.600098C235 0.600098 296 25.3001 343.6 70.1001L343.8 70.2001V418ZM1 70.7001V415.7C48.5 371.4 109.1 347 171.9 347C234.7 347 295.3 371.4 342.8 415.7V70.7001C295.4 26.1001 234.7 1.6001 171.9 1.6001C109.1 1.6001 48.4 26.1001 1 70.7001Z" fill="white"/>
<path d="M343 93.9002C295.5 49.3002 234.8 24.7002 171.9 24.7002C109 24.7002 48.3001 49.3002 0.800102 93.9002L0.100098 93.2002C47.8001 48.4002 108.8 23.7002 171.9 23.7002C235 23.7002 296 48.4002 343.6 93.2002L343 93.9002Z" fill="white"/>
<path d="M343 117C295.5 72.3998 234.8 47.7998 171.9 47.7998C109 47.7998 48.3001 72.3998 0.800102 117L0.100098 116.3C47.7001 71.4998 108.7 46.7998 171.8 46.7998C234.9 46.7998 295.9 71.4998 343.5 116.3L343 117Z" fill="white"/>
<path d="M343 140.1C295.6 95.4999 234.8 70.8999 171.9 70.8999C109 70.8999 48.3001 95.4999 0.800102 140.1L0.100098 139.4C47.7001 94.5999 108.7 69.8999 171.8 69.8999C234.9 69.8999 295.9 94.5999 343.5 139.4L343 140.1Z" fill="white"/>
<path d="M343 163.2C295.5 118.6 234.8 94 171.9 94C109 94 48.3001 118.6 0.800102 163.2L0.100098 162.5C47.8001 117.7 108.8 93 171.9 93C235 93 296 117.7 343.6 162.5L343 163.2Z" fill="white"/>
<path d="M343 186.3C295.6 141.7 234.8 117.1 171.9 117.1C109 117.1 48.3001 141.7 0.800102 186.3L0.100098 185.6C47.7001 140.8 108.7 116.1 171.8 116.1C234.9 116.1 295.9 140.8 343.5 185.6L343 186.3Z" fill="white"/>
<path d="M343 209.4C295.6 164.8 234.8 140.2 171.9 140.2C109 140.2 48.3001 164.8 0.800102 209.4L0.100098 208.7C47.7001 163.9 108.7 139.2 171.8 139.2C234.9 139.2 295.9 163.9 343.5 208.7L343 209.4Z" fill="white"/>
<path d="M343 232.5C295.6 187.9 234.8 163.3 171.9 163.3C109 163.3 48.3001 187.9 0.800102 232.5L0.100098 231.8C47.7001 187 108.7 162.3 171.8 162.3C234.9 162.3 295.9 187 343.5 231.8L343 232.5Z" fill="white"/>
<path d="M343 255.6C295.6 211 234.8 186.4 171.9 186.4C109 186.4 48.3001 211 0.800102 255.6L0.100098 254.9C47.7001 210.1 108.7 185.4 171.8 185.4C234.9 185.4 295.9 210.1 343.5 254.9L343 255.6Z" fill="white"/>
<path d="M343 278.6C295.5 234 234.8 209.4 171.9 209.4C109 209.4 48.3001 234 0.800102 278.6L0.100098 277.9C47.7001 233.1 108.7 208.4 171.8 208.4C234.9 208.4 295.9 233.1 343.5 277.9L343 278.6Z" fill="white"/>
<path d="M0.800102 301.7L0.100098 301C47.7001 256.2 108.7 231.5 171.8 231.5C234.9 231.5 295.9 256.2 343.5 301L342.8 301.7C295.4 257.1 234.6 232.5 171.7 232.5C109 232.5 48.3001 257.1 0.800102 301.7Z" fill="white"/>
<path d="M343 324.8C295.6 280.2 234.8 255.6 171.9 255.6C109 255.6 48.3001 280.2 0.800102 324.8L0.100098 324.1C47.7001 279.3 108.7 254.6 171.8 254.6C234.9 254.6 295.9 279.3 343.5 324.1L343 324.8Z" fill="white"/>
<path d="M343 347.9C295.6 303.3 234.8 278.7 171.9 278.7C109 278.7 48.3001 303.3 0.800102 347.9L0.100098 347.2C47.7001 302.4 108.7 277.7 171.8 277.7C234.9 277.7 295.9 302.4 343.5 347.2L343 347.9Z" fill="white"/>
<path d="M343 371C295.6 326.4 234.8 301.8 171.9 301.8C109 301.8 48.3001 326.4 0.800102 371L0.100098 370.3C47.7001 325.5 108.7 300.8 171.8 300.8C234.9 300.8 295.9 325.5 343.5 370.3L343 371Z" fill="white"/>
<path d="M343 394.1C295.6 349.5 234.8 324.9 171.9 324.9C109 324.9 48.3001 349.5 0.800102 394.1L0.100098 393.4C47.7001 348.6 108.7 323.9 171.8 323.9C234.9 323.9 295.9 348.6 343.5 393.4L343 394.1Z" fill="white"/>
<path d="M324.1 52.8999H323.1V399.3H324.1V52.8999Z" fill="white"/>
<path d="M303 37.7998H302V384.2H303V37.7998Z" fill="white"/>
<path d="M280.9 25.2002H279.9V371.6H280.9V25.2002Z" fill="white"/>
<path d="M257.7 15.1001H256.7V361.5H257.7V15.1001Z" fill="white"/>
<path d="M233.9 7.6001H232.9V354H233.9V7.6001Z" fill="white"/>
<path d="M209.5 2.5H208.5V348.9H209.5V2.5Z" fill="white"/>
<path d="M184.8 0H183.8V346.4H184.8V0Z" fill="white"/>
<path d="M160 0H159V346.4H160V0Z" fill="white"/>
<path d="M135.3 2.5H134.3V348.9H135.3V2.5Z" fill="white"/>
<path d="M110.9 7.6001H109.9V354H110.9V7.6001Z" fill="white"/>
<path d="M87.1001 15.1001H86.1001V361.5H87.1001V15.1001Z" fill="white"/>
<path d="M63.8999 25.2002H62.8999V371.6H63.8999V25.2002Z" fill="white"/>
<path d="M41.8 37.7998H40.8V384.2H41.8V37.7998Z" fill="white"/>
<path d="M20.7 52.8999H19.7V399.3H20.7V52.8999Z" fill="white"/>
</svg>
