<svg width="442" height="443" viewBox="0 0 442 443" fill="none" xmlns="http://www.w3.org/2000/svg">
<path d="M151.128 432.807C149.128 432.807 147.128 432.507 145.128 431.807C138.228 429.407 133.728 423.307 133.428 415.907L130.128 326.707C129.828 318.107 122.828 311.107 114.328 310.807L25.2281 307.107C17.8281 306.807 11.8281 302.307 9.42813 295.307C7.02813 288.307 9.02813 281.007 14.5281 276.207L82.2281 218.007C88.7281 212.407 89.8281 202.607 84.8281 195.707L32.1281 123.707C27.8281 117.807 27.5281 110.207 31.4281 104.007C35.3281 97.8071 42.3281 94.8071 49.5281 96.1071L137.228 112.707C145.628 114.307 154.028 109.107 156.228 100.807L179.728 14.7071C181.628 7.60713 187.428 2.70713 194.728 1.90713C202.028 1.10713 208.728 4.60713 212.128 11.1071L253.828 90.0071C257.828 97.6071 267.128 100.907 275.028 97.5071L356.928 62.2071C363.728 59.3071 371.128 60.7071 376.328 65.9071C381.528 71.1071 382.928 78.5071 379.928 85.3071L344.228 167.107C340.828 175.007 344.028 184.307 351.628 188.307L430.328 230.307C436.828 233.807 440.328 240.507 439.528 247.807C438.728 255.107 433.728 260.807 426.628 262.707L340.428 285.707C332.128 287.907 326.928 296.307 328.428 304.707L344.628 392.407C345.928 399.607 342.928 406.607 336.628 410.507C330.428 414.407 322.828 414.107 316.928 409.707L245.128 356.707C238.228 351.607 228.428 352.707 222.828 359.207L164.328 426.607C160.828 430.707 156.128 432.807 151.128 432.807ZM46.0281 96.9071C40.4281 96.9071 35.3281 99.7071 32.2281 104.607C28.5281 110.507 28.7281 117.607 32.8281 123.207L85.5281 195.207C90.9281 202.507 89.7281 212.907 82.8281 218.907L15.1281 277.107C9.82813 281.607 8.02813 288.507 10.3281 295.107C12.6281 301.707 18.3281 305.907 25.2281 306.207L114.328 309.907C123.428 310.307 130.828 317.707 131.128 326.807L134.428 416.007C134.728 422.907 138.928 428.707 145.428 431.007C151.928 433.307 158.828 431.507 163.428 426.207L221.928 358.807C227.928 351.907 238.328 350.807 245.628 356.207L317.428 409.207C323.028 413.307 330.128 413.607 336.028 409.907C341.928 406.207 344.828 399.707 343.528 392.907L327.328 305.207C325.728 296.307 331.228 287.407 340.028 285.107L426.228 262.107C432.928 260.307 437.628 254.907 438.428 248.007C439.228 241.107 435.928 234.807 429.828 231.507L351.128 189.507C343.128 185.207 339.728 175.307 343.328 167.007L379.028 85.2071C381.828 78.8071 380.528 71.8071 375.628 66.9071C370.728 62.0071 363.728 60.6071 357.328 63.4071L275.428 98.7071C267.128 102.307 257.228 98.8071 252.928 90.8071L211.228 11.9071C208.028 5.80713 201.728 2.40713 194.828 3.20713C187.928 4.00713 182.528 8.60713 180.728 15.3071L157.228 101.407C154.828 110.207 145.928 115.707 137.028 114.007L49.3281 97.4071C48.2281 97.0071 47.1281 96.9071 46.0281 96.9071Z" fill="white"/>
<path d="M138.428 427.307C136.028 427.307 133.628 426.807 131.328 425.807C124.528 422.907 120.528 416.507 120.728 409.107L123.628 319.907C123.928 311.307 117.428 303.907 108.928 302.907L20.2282 293.007C12.9282 292.207 7.12823 287.307 5.22823 280.207C3.32823 273.107 5.72823 266.007 11.7282 261.607L83.2282 208.307C90.1282 203.207 91.9282 193.507 87.3282 186.207L39.8282 110.707C35.9282 104.507 36.2282 96.9072 40.5282 91.0072C44.9282 85.1072 52.0282 82.5072 59.1282 84.4072L145.428 107.107C153.728 109.307 162.428 104.707 165.228 96.6072L194.628 12.4072C197.028 5.50717 203.128 1.00717 210.528 0.707173C217.928 0.407173 224.328 4.40717 227.228 11.1072L263.228 92.7072C266.728 100.507 275.728 104.507 283.828 101.607L368.028 72.1072C374.928 69.7072 382.328 71.6072 387.128 77.2072C391.928 82.8072 392.828 90.3072 389.428 96.8072L348.128 175.907C344.128 183.507 346.728 193.007 354.028 197.607L429.628 245.007C435.828 248.907 438.928 255.807 437.528 263.107C436.128 270.307 430.828 275.707 423.628 277.107L336.028 294.107C327.628 295.707 321.728 303.707 322.728 312.207L332.728 400.907C333.528 408.207 330.028 414.907 323.528 418.407C317.028 421.907 309.528 421.007 303.928 416.307L236.028 358.407C229.528 352.807 219.628 353.207 213.628 359.307L150.528 422.407C147.328 425.507 142.928 427.307 138.428 427.307ZM54.7282 84.7072C49.5282 84.7072 44.7282 87.1072 41.5282 91.5072C37.4282 97.1072 37.1282 104.207 40.8282 110.107L88.3282 185.607C93.1282 193.307 91.2282 203.607 83.9282 209.007L12.4282 262.307C6.82823 266.407 4.52823 273.207 6.32823 279.907C8.12823 286.607 13.5282 291.207 20.4282 292.007L109.128 301.907C118.128 302.907 125.028 310.807 124.728 319.907L121.828 409.107C121.628 416.007 125.428 422.107 131.828 424.807C138.228 427.607 145.228 426.207 150.128 421.307L213.228 358.207C219.628 351.807 230.128 351.407 237.028 357.207L304.928 415.107C310.228 419.607 317.328 420.407 323.428 417.107C329.528 413.807 332.928 407.507 332.128 400.607L322.128 311.907C321.128 302.907 327.328 294.407 336.228 292.707L423.828 275.707C430.628 274.407 435.628 269.307 436.928 262.507C438.228 255.707 435.328 249.107 429.428 245.507L353.828 198.107C346.128 193.307 343.428 183.207 347.628 175.107L388.928 96.0072C392.128 89.8072 391.328 82.8072 386.828 77.5072C382.328 72.3072 375.428 70.4072 368.828 72.7072L284.628 102.207C276.028 105.207 266.428 101.007 262.828 92.7072L226.828 11.1072C224.028 4.80717 217.928 1.00717 211.028 1.30717C204.128 1.60717 198.328 5.80717 196.028 12.4072L166.628 96.6072C163.628 105.207 154.428 110.107 145.628 107.807L59.3282 85.1072C57.6282 84.9072 56.1282 84.7072 54.7282 84.7072Z" fill="white"/>
<path d="M303.228 426.207C298.828 426.207 294.428 424.507 291.028 421.107L227.328 358.607C221.228 352.607 211.328 352.307 204.928 357.907L137.628 416.507C132.028 421.307 124.528 422.207 118.028 418.807C111.528 415.407 107.928 408.807 108.628 401.407L117.728 312.607C118.628 304.107 112.728 296.207 104.228 294.607L16.5279 278.607C9.32794 277.307 3.92794 272.007 2.52794 264.707C1.12794 257.507 4.02794 250.507 10.2279 246.507L85.3279 198.307C92.5279 193.707 95.0279 184.107 90.9279 176.607L48.8279 97.9072C45.3279 91.4072 46.1279 83.9072 50.9279 78.3072C55.7279 72.7072 62.9279 70.7072 69.9279 73.0072L154.428 101.707C162.528 104.507 171.528 100.407 174.928 92.6072L210.128 10.6072C213.028 3.80716 219.428 -0.192838 226.728 0.00716187C234.128 0.207162 240.228 4.70716 242.728 11.6072L273.028 95.5072C275.928 103.607 284.728 108.107 292.928 105.807L379.028 82.2072C386.128 80.3072 393.328 82.7072 397.728 88.6072C402.128 94.5072 402.528 102.007 398.628 108.307L351.828 184.307C347.328 191.607 349.228 201.307 356.128 206.307L428.228 258.907C434.128 263.207 436.728 270.407 434.828 277.507C432.928 284.607 427.328 289.607 420.028 290.507L331.528 301.507C323.028 302.507 316.628 310.107 317.028 318.607L320.828 407.707C321.128 415.107 317.128 421.507 310.428 424.507C308.128 425.607 305.628 426.207 303.228 426.207ZM215.728 352.907C220.228 352.907 224.628 354.607 228.028 357.907L291.728 420.407C296.728 425.307 303.728 426.507 310.028 423.707C316.328 420.907 320.128 414.807 319.828 407.907L316.028 318.807C315.628 309.707 322.428 301.707 331.428 300.607L420.028 289.807C426.928 289.007 432.328 284.307 434.028 277.507C435.728 270.807 433.328 264.107 427.728 260.007L355.628 207.407C348.328 202.007 346.228 191.807 351.028 184.007L397.828 108.007C401.428 102.107 401.128 95.0072 396.928 89.4072C392.728 83.8072 386.028 81.5072 379.328 83.4072L293.228 107.007C284.428 109.407 275.228 104.607 272.128 96.0072L241.828 12.1072C239.428 5.60716 233.728 1.40716 226.728 1.20716C219.828 1.00716 213.828 4.80716 211.028 11.2072L175.828 93.2072C172.228 101.607 162.728 105.807 154.028 102.907L69.5279 74.2072C62.9279 72.0072 56.1279 73.9072 51.6279 79.2072C47.1279 84.5072 46.4279 91.6072 49.6279 97.7072L91.7279 176.407C96.0279 184.407 93.4279 194.507 85.7279 199.407L10.8279 247.507C5.02794 251.207 2.22794 257.807 3.52794 264.607C4.82794 271.407 9.92794 276.407 16.7279 277.707L104.528 293.807C113.428 295.407 119.728 303.807 118.828 312.807L109.728 401.607C109.028 408.507 112.428 414.807 118.528 418.007C124.728 421.207 131.728 420.407 137.028 415.807L204.328 357.207C207.528 354.307 211.628 352.907 215.728 352.907Z" fill="white"/>
<path d="M290.628 431.207C285.728 431.207 281.128 429.107 277.628 425.207L218.428 358.507C212.728 352.107 202.928 351.107 196.128 356.307L124.928 410.007C119.028 414.407 111.528 414.807 105.228 411.007C98.9282 407.207 95.8282 400.307 97.1282 393.007L112.428 305.107C113.928 296.707 108.528 288.407 100.228 286.207L13.8282 264.007C6.72823 262.207 1.72823 256.507 0.828232 249.207C-0.0717677 241.907 3.32823 235.207 9.82823 231.607L88.1282 188.807C95.6282 184.707 98.8282 175.307 95.3282 167.507L58.8282 86.1073C55.8282 79.4073 57.1282 71.9073 62.2282 66.7073C67.3282 61.4073 74.7282 59.9073 81.5282 62.8073L163.828 97.3073C171.728 100.607 181.028 97.2073 184.928 89.6073L225.828 10.3073C229.228 3.80728 235.828 0.20728 243.128 0.90728C250.428 1.60728 256.228 6.50728 258.228 13.6073L282.528 99.4073C284.828 107.607 293.228 112.807 301.728 111.107L389.228 93.6073C396.428 92.2073 403.428 95.1073 407.428 101.307C411.428 107.507 411.228 115.007 406.928 121.007L354.828 193.507C349.828 200.507 351.028 210.307 357.628 215.807L425.828 273.307C431.428 278.007 433.528 285.307 431.128 292.307C428.828 299.307 422.728 303.807 415.428 304.207L326.328 308.807C317.728 309.207 310.928 316.307 310.628 324.907L308.228 414.107C308.028 421.507 303.628 427.607 296.728 430.107C294.728 430.907 292.628 431.207 290.628 431.207ZM206.028 351.907C210.928 351.907 215.728 353.907 219.228 357.807L278.428 424.607C283.028 429.807 289.928 431.507 296.428 429.207C302.928 426.807 307.128 421.007 307.328 414.107L309.728 324.907C309.928 315.807 317.228 308.307 326.328 307.907L415.428 303.307C422.328 302.907 428.028 298.607 430.228 292.107C432.428 285.507 430.528 278.707 425.228 274.207L357.028 216.707C350.028 210.807 348.728 200.507 354.028 193.107L405.928 120.607C409.928 115.007 410.128 107.807 406.328 102.007C402.528 96.2073 396.028 93.4073 389.228 94.8073L301.728 112.307C292.828 114.107 283.928 108.607 281.428 99.9073L257.128 14.1073C255.228 7.40728 249.728 2.80728 242.828 2.20728C235.928 1.50728 229.628 4.90728 226.428 11.1073L185.528 90.4073C181.328 98.5073 171.528 102.107 163.128 98.5073L80.8282 64.0073C74.4282 61.3073 67.4282 62.7073 62.6282 67.7073C57.8282 72.7073 56.5282 79.7073 59.4282 86.0073L95.9282 167.407C99.6282 175.707 96.3282 185.607 88.3282 190.007L10.2282 232.507C4.12823 235.807 0.928234 242.207 1.72823 249.107C2.62823 256.007 7.32823 261.307 14.0282 263.107L100.428 285.307C109.228 287.607 114.928 296.307 113.328 305.307L98.0282 393.207C96.8282 400.007 99.7282 406.507 105.728 410.207C111.628 413.807 118.728 413.507 124.328 409.307L195.528 355.507C198.628 353.107 202.328 351.907 206.028 351.907Z" fill="white"/>
<path d="M277.728 435.407C272.428 435.407 267.428 433.007 264.028 428.507L209.628 357.807C204.428 351.007 194.728 349.307 187.528 354.007L112.728 402.607C106.528 406.607 99.0281 406.507 93.0281 402.207C87.0281 397.907 84.4281 390.807 86.1281 383.707L107.528 297.107C109.628 288.807 104.828 280.107 96.7281 277.407L12.0281 249.207C5.02806 246.907 0.42806 240.907 0.0280598 233.507C-0.37194 226.207 3.52806 219.707 10.2281 216.607L91.3281 179.307C99.1281 175.707 102.928 166.607 99.9281 158.607L69.1281 74.9073C66.6281 68.0073 68.4281 60.7073 73.9281 55.8073C79.4281 50.9073 86.9281 49.9073 93.5281 53.2073L173.228 93.3073C180.928 97.2073 190.328 94.4073 194.828 87.1073L241.128 10.8073C244.928 4.50726 251.828 1.40726 259.128 2.60726C266.428 3.80726 271.828 9.10726 273.328 16.3073L291.628 103.607C293.428 112.007 301.428 117.707 309.928 116.607L398.428 105.207C405.728 104.307 412.428 107.707 416.028 114.107C419.628 120.507 418.828 128.107 414.228 133.707L357.328 202.407C351.828 209.007 352.428 218.907 358.528 224.807L422.628 286.907C427.928 292.007 429.428 299.407 426.628 306.207C423.828 313.007 417.428 317.107 410.128 317.007L320.928 315.407C320.828 315.407 320.728 315.407 320.628 315.407C312.228 315.407 305.028 321.907 304.128 330.307L295.528 419.107C294.828 426.407 290.028 432.207 282.928 434.307C281.028 435.207 279.328 435.407 277.728 435.407ZM196.428 350.307C201.728 350.307 206.928 352.707 210.428 357.107L264.828 427.807C269.028 433.307 275.828 435.507 282.528 433.607C289.228 431.707 293.728 426.207 294.428 419.307L303.028 330.507C303.928 321.507 311.728 314.507 320.828 314.707L410.028 316.307C410.128 316.307 410.228 316.307 410.328 316.307C417.128 316.307 422.928 312.407 425.528 306.107C428.228 299.707 426.728 292.707 421.728 287.907L357.628 225.807C351.128 219.507 350.528 209.007 356.328 202.007L413.228 133.307C417.628 128.007 418.328 120.907 414.928 114.807C411.628 108.707 405.228 105.507 398.328 106.407L309.828 117.807C300.828 119.007 292.328 112.907 290.428 104.007L272.128 16.7073C270.728 9.90726 265.528 5.00726 258.728 3.80726C251.928 2.60726 245.428 5.60726 241.828 11.5073L195.528 87.7073C190.828 95.5073 180.728 98.4073 172.628 94.3073L92.9281 54.2073C86.7281 51.1073 79.6281 52.0073 74.5281 56.6073C69.4281 61.2073 67.6281 68.1073 70.0281 74.6073L100.828 158.307C103.928 166.807 99.9281 176.507 91.7281 180.307L10.6281 217.607C4.32806 220.507 0.62806 226.607 1.02806 233.507C1.42806 240.407 5.72806 246.107 12.3281 248.307L97.0281 276.507C105.628 279.407 110.728 288.507 108.528 297.407L87.1281 384.007C85.4281 390.707 87.9281 397.407 93.6281 401.407C99.3281 405.407 106.428 405.607 112.228 401.807L187.028 353.207C189.828 351.207 193.128 350.307 196.428 350.307Z" fill="white"/>
<path d="M264.528 438.707C258.728 438.707 253.428 435.907 250.128 430.807L200.828 356.407C196.128 349.307 186.528 346.907 179.028 351.107L101.028 394.407C94.6279 398.007 87.0279 397.307 81.3279 392.607C75.6279 387.907 73.5279 380.707 75.7279 373.707L103.128 288.807C105.728 280.607 101.628 271.707 93.7279 268.407L11.2279 234.407C4.42792 231.607 0.227919 225.307 0.327919 217.907C0.427919 210.507 4.82792 204.407 11.6279 201.807L95.1279 170.307C103.128 167.307 107.528 158.507 105.128 150.207L80.3279 64.5071C78.2279 57.4071 80.6279 50.2071 86.4279 45.7071C92.2279 41.2071 99.8279 40.7071 106.128 44.5071L182.828 90.1071C190.228 94.5071 199.828 92.4071 204.828 85.4071L256.328 12.5071C260.528 6.50714 267.628 3.80713 274.828 5.60713C282.028 7.30713 287.028 13.0071 288.028 20.3071L300.228 108.707C301.428 117.207 309.028 123.507 317.528 123.007L406.628 117.807C413.928 117.407 420.428 121.307 423.528 127.907C426.628 134.607 425.428 142.007 420.328 147.407L358.828 212.007C352.928 218.207 352.728 228.107 358.528 234.407L418.128 300.807C423.028 306.307 424.028 313.807 420.728 320.407C417.428 327.007 410.828 330.707 403.528 330.007L314.628 322.207C306.128 321.507 298.328 327.507 296.828 335.907L282.028 423.907C280.828 431.207 275.528 436.607 268.328 438.107C267.028 438.507 265.828 438.707 264.528 438.707ZM186.928 348.107C192.628 348.107 198.228 350.907 201.628 355.907L250.928 430.307C254.728 436.107 261.328 438.807 268.128 437.307C274.928 435.907 279.828 430.707 281.028 423.907L295.828 335.907C297.328 326.907 305.628 320.507 314.628 321.307L403.528 329.107C410.428 329.707 416.628 326.207 419.728 320.007C422.828 313.807 421.928 306.707 417.228 301.607L357.628 235.207C351.528 228.407 351.728 218.007 358.028 211.407L419.528 146.807C424.328 141.807 425.428 134.707 422.528 128.407C419.628 122.107 413.528 118.407 406.528 118.807L317.428 124.007C308.328 124.507 300.228 117.907 299.028 108.907L287.028 20.5071C286.128 13.6071 281.328 8.30714 274.528 6.70714C267.828 5.10714 261.128 7.60714 257.128 13.2071L205.628 86.1071C200.428 93.5071 190.128 95.7071 182.328 91.0071L105.628 45.4071C99.6279 41.9071 92.5279 42.3071 87.0279 46.5071C81.5279 50.7071 79.3279 57.5071 81.2279 64.2071L106.028 149.907C108.528 158.607 103.928 168.007 95.4279 171.207L11.9279 202.707C5.42792 205.207 1.32792 211.007 1.22792 217.907C1.12792 224.807 5.02792 230.807 11.4279 233.407L93.9279 267.407C102.328 270.907 106.728 280.407 103.928 289.007L76.5279 373.907C74.4279 380.507 76.4279 387.307 81.7279 391.807C87.1279 396.207 94.2279 396.907 100.228 393.507L178.228 350.207C181.128 348.807 184.028 348.107 186.928 348.107Z" fill="white"/>
<path d="M251.228 441.007C244.928 441.007 239.328 437.707 236.128 432.107L192.128 354.507C187.928 347.007 178.528 344.007 170.728 347.707L89.9279 385.407C83.2279 388.507 75.8279 387.307 70.4279 382.207C65.1279 377.107 63.4279 369.807 66.2279 362.907L99.5279 280.107C102.728 272.107 99.2279 262.907 91.5279 259.107L11.5279 219.507C4.92792 216.207 1.22792 209.607 1.82792 202.307C2.42792 195.007 7.22792 189.107 14.2279 187.007L99.7279 161.407C107.928 158.907 112.928 150.407 111.128 142.107L92.3279 54.9072C90.7279 47.7072 93.6279 40.7072 99.7279 36.6072C105.828 32.5072 113.428 32.6072 119.428 36.8072L192.728 87.6072C199.728 92.5072 209.528 91.1072 214.928 84.5072L271.528 15.4072C276.228 9.70722 283.428 7.60721 290.428 9.80721C297.428 12.0072 302.128 18.0072 302.628 25.3072L308.628 114.307C309.228 122.907 316.328 129.607 324.928 129.707L414.128 130.807C421.528 130.907 427.728 135.207 430.328 142.107C432.928 149.007 431.228 156.307 425.728 161.307L359.828 221.507C353.528 227.307 352.628 237.107 357.928 243.907L412.728 314.307C417.228 320.107 417.728 327.707 414.028 334.007C410.328 340.307 403.428 343.607 396.128 342.407L308.028 328.407C299.528 327.107 291.328 332.507 289.328 340.907L268.428 427.607C266.728 434.807 261.128 439.807 253.828 440.907C252.928 441.007 252.028 441.007 251.228 441.007ZM177.628 345.107C183.828 345.107 189.728 348.307 192.928 354.007L236.928 431.607C240.328 437.607 246.728 440.807 253.628 439.807C260.528 438.807 265.828 434.007 267.428 427.307L288.328 340.607C290.428 331.807 299.128 326.007 308.128 327.407L396.228 341.407C403.128 342.507 409.528 339.507 413.028 333.507C416.528 327.507 416.128 320.407 411.828 314.907L357.128 244.507C351.528 237.307 352.428 226.907 359.128 220.807L425.028 160.607C430.128 155.907 431.828 149.007 429.328 142.507C426.828 136.007 421.028 131.907 414.028 131.807L324.828 130.707C315.728 130.607 308.128 123.407 307.528 114.307L301.528 25.3072C301.028 18.4072 296.628 12.8072 290.028 10.6072C283.428 8.50721 276.628 10.5072 272.228 15.9072L215.728 85.0072C209.928 92.0072 199.628 93.5072 192.128 88.3072L118.828 37.5072C113.128 33.5072 106.028 33.5072 100.228 37.3072C94.4279 41.2072 91.7279 47.8072 93.2279 54.5072L112.028 141.707C113.928 150.607 108.628 159.607 99.9279 162.207L14.5279 188.007C7.92792 190.007 3.42792 195.507 2.82792 202.407C2.22792 209.307 5.72793 215.507 11.9279 218.607L91.8279 258.307C99.9279 262.307 103.728 272.107 100.328 280.507L67.0279 363.307C64.4279 369.707 65.9279 376.707 71.0279 381.507C76.0279 386.307 83.1279 387.407 89.4279 384.507L170.228 346.807C172.628 345.607 175.128 345.107 177.628 345.107Z" fill="white"/>
<path d="M237.728 442.407C230.928 442.407 224.928 438.707 222.028 432.407L183.528 351.907C179.828 344.207 170.628 340.507 162.628 343.607L79.3281 375.607C72.4281 378.207 65.1281 376.507 60.1281 371.107C55.1281 365.707 54.0281 358.207 57.2281 351.607L96.2281 271.307C99.9281 263.607 97.1281 254.207 89.7281 249.807L12.7281 204.607C6.42811 200.907 3.12811 194.007 4.22811 186.807C5.32811 179.507 10.5281 174.007 17.7281 172.407L104.728 152.807C113.128 150.907 118.728 142.807 117.428 134.307L104.728 46.0072C103.728 38.7072 107.028 31.9072 113.428 28.3072C119.828 24.7072 127.328 25.2072 133.128 29.9072L202.728 85.7072C209.428 91.1072 219.228 90.4072 225.128 84.1072L286.228 19.1072C291.228 13.7072 298.628 12.1072 305.528 14.8072C312.328 17.5072 316.628 23.8072 316.528 31.1072V120.507C316.528 129.107 323.128 136.307 331.728 137.007L420.628 144.307C427.928 144.907 433.828 149.707 436.028 156.707C438.128 163.707 435.928 171.007 430.128 175.507L360.228 230.907C353.528 236.207 352.028 246.007 356.728 253.107L406.428 327.207C410.528 333.307 410.528 340.907 406.328 346.907C402.128 352.907 395.128 355.707 387.928 354.007L301.028 333.907C292.628 332.007 284.128 336.907 281.528 345.007L254.628 430.107C252.428 437.107 246.428 441.807 239.128 442.307C238.628 442.407 238.228 442.407 237.728 442.407ZM168.528 341.507C175.128 341.507 181.428 345.207 184.428 351.507L222.928 432.007C225.928 438.307 232.128 441.907 239.028 441.407C245.928 440.907 251.528 436.507 253.628 429.907L280.528 344.807C283.228 336.107 292.328 330.907 301.228 333.007L388.128 353.107C394.928 354.707 401.528 352.107 405.428 346.407C409.328 340.707 409.428 333.607 405.528 327.807L355.828 253.707C350.728 246.207 352.328 235.807 359.528 230.207L429.428 174.807C434.828 170.507 437.028 163.707 435.028 157.007C433.028 150.307 427.428 145.907 420.528 145.307L331.628 138.007C322.528 137.307 315.528 129.607 315.528 120.507L315.828 31.3072C315.828 24.4072 311.828 18.5072 305.428 15.9072C299.028 13.3072 292.028 14.9072 287.228 19.9072L226.128 84.9072C219.928 91.5072 209.428 92.3072 202.328 86.6072L132.728 30.8072C127.328 26.5072 120.228 25.9072 114.228 29.3072C108.228 32.7072 105.028 39.1072 106.028 46.0072L118.728 134.307C120.028 143.307 114.128 151.907 105.228 153.907L18.2281 173.507C11.4281 175.007 6.62811 180.207 5.52811 187.107C4.42811 194.007 7.52811 200.407 13.5281 203.907L90.5281 249.107C98.3281 253.707 101.428 263.707 97.4281 271.907L58.4281 352.207C55.4281 358.407 56.4281 365.507 61.1281 370.607C65.8281 375.707 72.7281 377.307 79.2281 374.807L162.528 342.807C164.428 341.907 166.528 341.507 168.528 341.507Z" fill="white"/>
<path d="M224.328 442.907C216.928 442.907 210.728 438.607 208.028 431.807L175.228 348.807C172.128 340.807 163.228 336.507 155.028 339.107L69.7282 365.207C62.7282 367.407 55.4282 365.107 50.8282 359.407C46.2282 353.607 45.6282 346.107 49.3282 339.707L93.8282 262.307C98.1282 254.907 95.9282 245.307 88.8282 240.407L15.2282 190.007C9.12817 185.807 6.42817 178.807 8.02817 171.607C9.62817 164.407 15.2282 159.307 22.5282 158.207L110.728 144.707C119.228 143.407 125.328 135.707 124.728 127.107L118.228 38.1072C117.728 30.8072 121.528 24.2072 128.128 21.0072C134.728 17.8072 142.228 18.9072 147.628 23.9072L213.128 84.5072C219.428 90.3072 229.328 90.3072 235.628 84.5072L301.128 23.9072C306.528 18.9072 314.028 17.8072 320.628 21.0072C327.228 24.2072 331.028 30.7072 330.528 38.1072L324.028 127.107C323.428 135.607 329.528 143.407 338.028 144.707L426.228 158.207C433.528 159.307 439.028 164.507 440.728 171.607C442.328 178.807 439.628 185.807 433.528 190.007L359.928 240.407C352.828 245.207 350.628 254.907 354.928 262.307L399.428 339.707C403.128 346.107 402.528 353.607 397.928 359.407C393.328 365.207 386.128 367.407 379.128 365.207L293.828 339.107C285.628 336.607 276.728 340.907 273.628 348.807L240.828 431.807C237.928 438.607 231.628 442.907 224.328 442.907ZM159.828 337.307C166.828 337.307 173.528 341.607 176.228 348.407L209.028 431.407C211.528 437.907 217.428 441.907 224.428 441.907C231.328 441.907 237.228 437.907 239.828 431.407L272.628 348.407C275.928 339.907 285.428 335.407 294.128 338.107L379.428 364.207C386.028 366.207 392.828 364.107 397.228 358.707C401.528 353.307 402.128 346.207 398.628 340.107L354.128 262.707C349.628 254.807 351.928 244.607 359.428 239.507L433.028 189.107C438.728 185.207 441.328 178.507 439.828 171.807C438.328 165.107 433.028 160.207 426.228 159.107L338.028 145.607C329.028 144.207 322.528 136.107 323.228 127.007L329.728 38.0072C330.228 31.1072 326.628 24.9072 320.428 21.9072C314.128 18.9072 307.128 19.9072 302.028 24.7072L236.528 85.3072C229.828 91.5072 219.428 91.5072 212.728 85.3072L147.228 24.7072C142.128 20.0072 135.128 18.9072 128.828 21.9072C122.528 24.9072 119.028 31.1072 119.528 38.0072L126.028 127.007C126.728 136.107 120.128 144.207 111.228 145.607L23.0282 159.107C16.1282 160.107 10.9282 165.007 9.42817 171.807C7.92817 178.607 10.5282 185.207 16.2282 189.107L89.8282 239.507C97.3282 244.607 99.6282 254.807 95.1282 262.707L50.6282 340.107C47.1282 346.107 47.7282 353.207 52.0282 358.707C56.3282 364.107 63.1282 366.207 69.8282 364.207L155.128 338.107C156.428 337.607 158.128 337.307 159.828 337.307Z" fill="white"/>
</svg>
