<svg width="371" height="482" viewBox="0 0 371 482" fill="none" xmlns="http://www.w3.org/2000/svg">
<path d="M0 482V107L0.400002 106.9C36.2 102.2 62.6 78.5 88.1 55.6C91.2 52.8 94.2 50.1 97.3 47.4C98.8 46.1 100.3 44.8 101.8 43.4C123.6 24.1 150.6 0.1 181.5 0H181.6C212.5 0 240.6 23.5 263.2 42.4C265.2 44.1 267.2 45.7 269.1 47.3C272.6 50.2 276 53.1 279.5 56C306.4 78.7 334.2 102.1 370.5 106.8L370.9 106.9V481.9L370.3 481.8C333.7 477.1 305.7 453.5 278.7 430.8C275.2 427.9 271.8 425 268.3 422.1C266.4 420.5 264.4 418.8 262.4 417.2C239.9 398.4 212 375 181.4 375H181.3C150.8 375.1 123.9 398.9 102.4 418.1C100.9 419.5 99.4 420.8 97.9 422.1C94.8 424.8 91.8 427.6 88.7 430.3C63.1 453.3 36.5 477.1 0.5 481.8L0 482ZM181.6 374C212.5 374 240.6 397.5 263.2 416.4C265.2 418.1 267.2 419.7 269.1 421.3C272.6 424.2 276 427.1 279.5 430C306.2 452.6 333.9 475.9 370 480.7V107.7C333.6 102.8 305.8 79.4 278.9 56.7C275.4 53.8 272 50.9 268.5 48C266.6 46.4 264.6 44.7 262.6 43.1C240.1 24.3 212.2 0.9 181.6 0.9H181.5C150.9 1.1 124.1 25 102.5 44.1C101 45.5 99.5 46.8 98 48.1C94.9 50.8 91.9 53.6 88.8 56.3C63.3 79.2 36.9 102.9 1 107.8V480.8C36.5 476 62.8 452.4 88.1 429.6C91.2 426.8 94.2 424.1 97.3 421.4C98.8 420.1 100.3 418.8 101.8 417.4C123.5 398.1 150.5 374.1 181.4 374C181.5 374 181.6 374 181.6 374Z" fill="white"/>
<path d="M370.4 132.8C333.8 128.1 305.8 104.5 278.8 81.8C275.3 78.9 271.9 76 268.4 73.1C266.5 71.5 264.5 69.8 262.5 68.2C240.1 49.3 212.2 26 181.6 26H181.5C150.9 26 124.1 49.9 102.5 69.1C101 70.5 99.5 71.8 98 73.1C94.9 75.8 91.9 78.6 88.8 81.3C63.2 104.3 36.6 128.1 0.599998 132.8L0.5 131.8C36.3 127.1 62.7 103.4 88.2 80.5C91.3 77.7 94.3 75 97.4 72.3C98.9 71 100.4 69.7 101.9 68.3C123.6 49 150.6 25 181.5 25H181.6C212.5 25 240.6 48.5 263.2 67.4C265.2 69.1 267.2 70.7 269.1 72.3C272.6 75.2 276 78.1 279.5 81C306.4 103.7 334.2 127.1 370.5 131.8L370.4 132.8Z" fill="white"/>
<path d="M370.4 157.8C333.8 153.1 305.8 129.5 278.8 106.8C275.3 103.9 271.9 101 268.4 98.1C266.5 96.5 264.5 94.8 262.5 93.2C240 74.4 212.1 51 181.5 51H181.4C150.9 51 124.1 74.8 102.5 94C101 95.4 99.5 96.7 98 98C94.9 100.7 91.9 103.5 88.8 106.2C63.2 129.2 36.6 153 0.599998 157.7L0.5 156.7C36.3 152 62.7 128.3 88.2 105.4C91.3 102.6 94.3 99.9 97.4 97.2C98.9 95.9 100.4 94.6 101.9 93.2C123.6 74 150.6 50 181.5 49.9H181.6C212.5 49.9 240.6 73.4 263.2 92.3C265.2 94 267.2 95.6 269.1 97.2C272.6 100.1 276 103 279.5 105.9C306.4 128.6 334.2 152 370.5 156.7L370.4 157.8Z" fill="white"/>
<path d="M370.4 182.7C333.8 178 305.8 154.4 278.8 131.7C275.3 128.8 271.9 125.9 268.4 123C266.5 121.4 264.5 119.7 262.5 118.1C240 99.3 212.1 75.9 181.5 75.9H181.4C150.9 76 124 99.8 102.5 119C101 120.4 99.5 121.7 98 123C94.9 125.7 91.9 128.5 88.8 131.2C63.2 154.2 36.6 178 0.599998 182.7L0.5 181.7C36.3 177 62.7 153.3 88.2 130.4C91.3 127.6 94.3 124.9 97.4 122.2C98.9 120.9 100.4 119.6 101.9 118.2C123.6 98.9 150.6 74.9 181.5 74.8H181.6C212.5 74.8 240.6 98.3 263.2 117.2C265.2 118.9 267.2 120.5 269.1 122.1C272.6 125 276 127.9 279.5 130.8C306.4 153.5 334.2 176.9 370.5 181.6L370.4 182.7Z" fill="white"/>
<path d="M370.4 207.6C333.8 202.9 305.8 179.3 278.8 156.6C275.3 153.7 271.9 150.8 268.4 147.9C266.5 146.3 264.5 144.6 262.5 143C240 124.2 212.1 100.8 181.5 100.8H181.4C150.9 100.9 124 124.7 102.5 143.9C101 145.3 99.5 146.6 98 147.9C94.9 150.6 91.9 153.4 88.8 156.1C63.2 179.1 36.6 202.9 0.599998 207.6L0.5 206.6C36.3 201.9 62.7 178.2 88.2 155.3C91.3 152.5 94.3 149.8 97.4 147.1C98.9 145.8 100.4 144.5 101.9 143.1C123.6 123.8 150.6 99.8 181.5 99.7H181.6C212.5 99.7 240.6 123.2 263.2 142.1C265.2 143.8 267.2 145.4 269.1 147C272.6 149.9 276 152.8 279.5 155.7C306.4 178.4 334.2 201.8 370.5 206.5L370.4 207.6Z" fill="white"/>
<path d="M370.4 232.6C333.8 227.9 305.8 204.3 278.8 181.6C275.3 178.7 271.9 175.8 268.4 172.9C266.5 171.3 264.5 169.6 262.5 168C240 149.2 212.1 125.8 181.5 125.8H181.4C150.9 125.9 124 149.7 102.5 168.9C101 170.3 99.5 171.6 98 172.9C94.9 175.6 91.9 178.4 88.8 181.1C63.2 204.1 36.6 227.9 0.599998 232.6L0.5 231.6C36.3 226.9 62.7 203.2 88.2 180.3C91.3 177.5 94.3 174.8 97.4 172.1C98.9 170.8 100.4 169.5 101.9 168.1C123.6 148.8 150.6 124.8 181.5 124.7H181.6C212.5 124.7 240.6 148.2 263.2 167.1C265.2 168.8 267.2 170.4 269.1 172C272.6 174.9 276 177.8 279.5 180.7C306.4 203.4 334.2 226.8 370.5 231.5L370.4 232.6Z" fill="white"/>
<path d="M370.4 257.5C333.8 252.8 305.8 229.2 278.8 206.5C275.3 203.6 271.9 200.7 268.4 197.8C266.5 196.2 264.5 194.5 262.5 192.9C240 174.1 212.1 150.7 181.6 150.7H181.5C151 150.8 124.1 174.6 102.6 193.8C101.1 195.2 99.6001 196.5 98.1001 197.8C95.0001 200.5 92.0001 203.3 88.9001 206C63.3001 229 36.7001 252.8 0.700096 257.5L0.600098 256.5C36.4001 251.8 62.8001 228.1 88.3001 205.2C91.4001 202.4 94.4001 199.7 97.5001 197C99.0001 195.7 100.5 194.4 102 193C123.7 173.7 150.7 149.7 181.6 149.6H181.7C212.6 149.6 240.7 173.1 263.3 192C265.3 193.7 267.3 195.3 269.2 196.9C272.7 199.8 276.1 202.7 279.6 205.6C306.5 228.3 334.3 251.7 370.6 256.4L370.4 257.5Z" fill="white"/>
<path d="M370.4 282.4C333.8 277.7 305.8 254.1 278.8 231.4C275.3 228.5 271.9 225.6 268.4 222.7C266.5 221.1 264.5 219.4 262.5 217.8C240 199 212.1 175.6 181.5 175.6H181.4C150.9 175.7 124 199.5 102.5 218.7C101 220.1 99.5 221.4 98 222.7C94.9 225.4 91.9 228.2 88.8 230.9C63.2 253.9 36.6 277.7 0.599998 282.4L0.5 281.4C36.3 276.7 62.7 253 88.2 230.1C91.3 227.3 94.3 224.6 97.4 221.9C98.9 220.6 100.4 219.3 101.9 217.9C123.6 198.6 150.6 174.6 181.5 174.5H181.6C212.5 174.5 240.6 198 263.2 216.9C265.2 218.6 267.2 220.2 269.1 221.8C272.6 224.7 276 227.6 279.5 230.5C306.4 253.2 334.2 276.6 370.5 281.3L370.4 282.4Z" fill="white"/>
<path d="M370.4 307.4C333.8 302.7 305.8 279.1 278.8 256.4C275.3 253.5 271.9 250.6 268.4 247.7C266.5 246.1 264.5 244.4 262.5 242.8C240 224 212.1 200.6 181.5 200.6H181.4C150.9 200.7 124 224.5 102.5 243.7C101 245.1 99.5 246.4 98 247.7C94.9 250.4 91.9 253.2 88.8 255.9C63.2 278.9 36.6 302.7 0.599998 307.4L0.5 306.4C36.3 301.7 62.7 278 88.2 255.1C91.3 252.3 94.3 249.6 97.4 246.9C98.9 245.6 100.4 244.3 101.9 242.9C123.6 223.6 150.6 199.6 181.5 199.5H181.6C212.5 199.5 240.6 223 263.2 241.9C265.2 243.6 267.2 245.2 269.1 246.8C272.6 249.7 276 252.6 279.5 255.5C306.4 278.2 334.2 301.6 370.5 306.3L370.4 307.4Z" fill="white"/>
<path d="M370.4 332.3C333.8 327.6 305.8 304 278.8 281.3C275.3 278.4 271.9 275.5 268.4 272.6C266.5 271 264.5 269.3 262.5 267.7C240 248.9 212.1 225.5 181.5 225.5H181.4C150.9 225.6 124 249.4 102.5 268.6C101 270 99.5 271.3 98 272.6C94.9 275.3 91.9 278.1 88.8 280.8C63.2 303.8 36.6 327.6 0.599998 332.3L0.5 331.3C36.3 326.6 62.7 302.9 88.2 280C91.3 277.2 94.3 274.5 97.4 271.8C98.9 270.5 100.4 269.2 101.9 267.8C123.6 248.5 150.6 224.5 181.5 224.4H181.6C212.5 224.4 240.6 247.9 263.2 266.8C265.2 268.5 267.2 270.1 269.1 271.7C272.6 274.6 276 277.5 279.5 280.4C306.4 303.1 334.2 326.5 370.5 331.2L370.4 332.3Z" fill="white"/>
<path d="M370.4 357.2C333.8 352.5 305.8 328.9 278.8 306.2C275.3 303.3 271.9 300.4 268.4 297.5C266.5 295.9 264.5 294.2 262.5 292.6C240 273.8 212.1 250.4 181.5 250.4H181.4C150.9 250.5 124 274.3 102.5 293.5C101 294.9 99.5 296.2 98 297.5C94.9 300.2 91.9 303 88.8 305.7C63.2 328.7 36.6 352.5 0.599998 357.2L0.5 356.2C36.3 351.5 62.7 327.8 88.2 304.9C91.3 302.1 94.3 299.4 97.4 296.7C98.9 295.4 100.4 294.1 101.9 292.7C123.6 273.4 150.6 249.4 181.5 249.3H181.6C212.5 249.3 240.6 272.8 263.2 291.7C265.2 293.4 267.2 295 269.1 296.6C272.6 299.5 276 302.4 279.5 305.3C306.4 328 334.2 351.4 370.5 356.1L370.4 357.2Z" fill="white"/>
<path d="M370.4 382.2C333.8 377.5 305.8 353.9 278.8 331.2C275.3 328.3 271.9 325.4 268.4 322.5C266.5 320.9 264.5 319.2 262.5 317.6C240 298.8 212.1 275.4 181.5 275.4H181.4C150.9 275.5 124 299.3 102.5 318.5C101 319.9 99.5 321.2 98 322.5C94.9 325.2 91.9 328 88.8 330.7C63.2 353.7 36.6 377.5 0.599998 382.2L0.5 381.2C36.3 376.5 62.7 352.8 88.2 329.9C91.3 327.1 94.3 324.4 97.4 321.7C98.9 320.4 100.4 319.1 101.9 317.7C123.6 298.4 150.6 274.4 181.5 274.3H181.6C212.5 274.3 240.6 297.8 263.2 316.7C265.2 318.4 267.2 320 269.1 321.6C272.6 324.5 276 327.4 279.5 330.3C306.4 353 334.2 376.4 370.5 381.1L370.4 382.2Z" fill="white"/>
<path d="M370.4 407.1C333.8 402.4 305.8 378.8 278.8 356.1C275.3 353.2 271.9 350.3 268.4 347.4C266.5 345.8 264.5 344.1 262.5 342.5C240 323.7 212.1 300.3 181.5 300.3H181.4C150.9 300.4 124 324.2 102.5 343.4C101 344.8 99.5 346.1 98 347.4C94.9 350.1 91.9 352.9 88.8 355.6C63.2 378.6 36.6 402.4 0.599998 407.1L0.5 406.1C36.3 401.4 62.7 377.7 88.2 354.8C91.3 352 94.3 349.3 97.4 346.6C98.9 345.3 100.4 344 101.9 342.6C123.6 323.3 150.6 299.3 181.5 299.2H181.6C212.5 299.2 240.6 322.7 263.2 341.6C265.2 343.3 267.2 344.9 269.1 346.5C272.6 349.4 276 352.3 279.5 355.2C306.4 377.9 334.2 401.3 370.5 406L370.4 407.1Z" fill="white"/>
<path d="M370.4 432C333.8 427.3 305.8 403.7 278.8 381C275.3 378.1 271.9 375.2 268.4 372.3C266.5 370.7 264.5 369 262.5 367.4C240 348.6 212.1 325.2 181.6 325.2H181.5C151 325.3 124.1 349.1 102.6 368.3C101.1 369.7 99.6001 371 98.1001 372.3C95.0001 375 92.0001 377.8 88.9001 380.5C63.3001 403.5 36.7001 427.3 0.700096 432L0.600098 431C36.4001 426.3 62.8001 402.6 88.3001 379.7C91.4001 376.9 94.4001 374.2 97.5001 371.5C99.0001 370.2 100.5 368.9 102 367.5C123.7 348.2 150.7 324.2 181.6 324.1H181.7C212.6 324.1 240.7 347.6 263.3 366.5C265.3 368.2 267.3 369.8 269.2 371.4C272.7 374.3 276.1 377.2 279.6 380.1C306.5 402.8 334.3 426.2 370.6 430.9L370.4 432Z" fill="white"/>
<path d="M370.4 457C333.8 452.3 305.8 428.7 278.8 406C275.3 403.1 271.9 400.2 268.4 397.3C266.5 395.7 264.5 394 262.5 392.4C240 373.6 212.1 350.2 181.5 350.2H181.4C150.9 350.3 124 374.1 102.5 393.3C101 394.7 99.5 396 98 397.3C94.9 400 91.9 402.8 88.8 405.5C63.2 428.5 36.6 452.3 0.599998 457L0.5 456C36.3 451.3 62.7 427.6 88.2 404.7C91.3 401.9 94.3 399.2 97.4 396.5C98.9 395.2 100.4 393.9 101.9 392.5C123.6 373.2 150.6 349.2 181.5 349.1H181.6C212.5 349.1 240.6 372.6 263.2 391.5C265.2 393.2 267.2 394.8 269.1 396.4C272.6 399.3 276 402.2 279.5 405.1C306.4 427.8 334.2 451.2 370.5 455.9L370.4 457Z" fill="white"/>
<path d="M346.1 102H345.1V476H346.1V102Z" fill="white"/>
<path d="M320.9 88.4H319.9V462.4H320.9V88.4Z" fill="white"/>
<path d="M295.6 69.5H294.6V443.5H295.6V69.5Z" fill="white"/>
<path d="M270.1 48.4H269.1V422.4H270.1V48.4Z" fill="white"/>
<path d="M244.7 28.1H243.7V402.1H244.7V28.1Z" fill="white"/>
<path d="M219.4 11.6H218.4V385.6H219.4V11.6Z" fill="white"/>
<path d="M194.4 1.90002H193.4V375.9H194.4V1.90002Z" fill="white"/>
<path d="M169.7 1.90002H168.7V375.9H169.7V1.90002Z" fill="white"/>
<path d="M145.4 11.6H144.4V385.6H145.4V11.6Z" fill="white"/>
<path d="M121.4 28.1H120.4V402.1H121.4V28.1Z" fill="white"/>
<path d="M97.5 48.4H96.5V422.4H97.5V48.4Z" fill="white"/>
<path d="M73.6001 69.5H72.6001V443.5H73.6001V69.5Z" fill="white"/>
<path d="M49.6001 88.4H48.6001V462.4H49.6001V88.4Z" fill="white"/>
<path d="M25.5 102H24.5V476H25.5V102Z" fill="white"/>
</svg>
