<svg width="445" height="390" viewBox="0 0 445 390" fill="none" xmlns="http://www.w3.org/2000/svg">
<path d="M153.201 322.5C124.101 322.5 95.7011 318.8 71.5011 301.2C51.9011 287 33.9011 264.6 20.6011 238.2C7.5011 212 0.2011 184.1 0.00110029 159.7C-0.1989 125.7 26.9011 108.3 53.2011 91.5C59.7011 87.4 65.8011 83.5 71.5011 79.3C80.6011 72.7 89.5011 65.6 99.0011 58C134.701 29.5 171.701 0 216.601 0C216.701 0 216.901 0 217.001 0C264.501 0.2 305.001 33.6 340.801 63.1C349.001 69.8 356.701 76.2 364.501 82.2C370.101 86.5 376.201 90.8 382.701 95.4C411.901 115.9 445.001 139.2 445.001 176.1C445.101 225.9 404.101 280.3 364.401 304.1C329.501 325 288.701 323.2 249.201 321.5C238.601 321 227.601 320.5 217.101 320.5C207.001 320.5 196.801 321 186.001 321.5C175.101 322 164.101 322.5 153.201 322.5ZM216.701 1C172.101 1 135.301 30.4 99.7011 58.8C90.2011 66.4 81.2011 73.5 72.2011 80.1C66.4011 84.3 60.3011 88.2 53.9011 92.3C27.9011 108.9 0.901101 126.1 1.1011 159.6C1.3011 183.9 8.6011 211.6 21.6011 237.7C34.8011 264 52.8011 286.3 72.2011 300.4C105.201 324.4 146.301 322.4 186.001 320.5C196.301 320 207.001 319.5 217.101 319.5C227.601 319.5 238.601 320 249.301 320.5C288.701 322.2 329.401 324 364.001 303.3C403.401 279.6 444.201 225.6 444.101 176.2C444.001 139.7 411.201 116.6 382.201 96.3C375.701 91.8 369.601 87.5 364.001 83.1C356.201 77.1 348.501 70.7 340.301 64C304.501 34.5 264.201 1.2 217.001 1C216.901 1 216.801 1 216.701 1Z" fill="white"/>
<path d="M287.301 315.7C274.801 315.7 262.401 314.8 250.501 314C238.901 313.2 227.901 312.4 217.501 312.4C217.301 312.4 217.201 312.4 217.001 312.4C207.301 312.4 197.101 313.1 186.301 313.9C151.501 316.4 112.201 319.2 81.9011 297.3C44.5011 270.2 16.1011 212.7 15.8011 163.6C15.6011 134.3 42.1011 117.7 65.4011 103C71.4011 99.2 77.0011 95.7 82.1011 92C90.801 85.7 99.5011 78.8 108.801 71.4C141.501 45.5 178.601 16.1 217.001 16C217.101 16 217.101 16 217.201 16C257.701 16 296.601 48.1 330.901 76.5C339.001 83.2 346.701 89.6 354.301 95.4C359.401 99.3 365.101 103.3 371.201 107.5C397.001 125.4 429.101 147.7 429.001 179.7C428.901 201.4 420.901 226 406.501 248.8C392.601 270.7 374.001 289.2 354.301 300.8C334.001 312.7 310.601 315.7 287.301 315.7ZM217.501 311.4C228.001 311.4 239.001 312.2 250.601 313C284.401 315.4 322.801 318.1 353.801 299.9C373.401 288.4 391.801 270.1 405.601 248.3C420.001 225.7 427.901 201.3 428.001 179.8C428.101 148.4 396.201 126.2 370.601 108.4C364.501 104.2 358.701 100.2 353.701 96.2C346.101 90.3 338.401 84 330.301 77.3C296.101 49 257.301 17 217.201 17C217.101 17 217.101 17 217.001 17C178.901 17.1 143.501 45.1 109.301 72.2C100.001 79.6 91.3011 86.5 82.5011 92.8C77.4011 96.5 71.8011 100 65.8011 103.8C42.7011 118.3 16.5011 134.8 16.7011 163.6C17.0011 212.4 45.3011 269.6 82.5011 296.5C112.401 318.2 151.601 315.4 186.201 312.9C197.001 312.1 207.201 311.4 217.001 311.4C217.201 311.4 217.401 311.4 217.501 311.4Z" fill="white"/>
<path d="M282.601 313.9C270.701 313.9 258.801 313 247.501 312.2C236.701 311.4 226.501 310.7 217.001 310.7C208.601 310.7 199.601 311.4 190.101 312C157.501 314.2 120.601 316.8 92.6012 296.5C57.7012 271.3 32.2012 219.8 32.0012 174C31.9012 147.3 56.8012 131.3 78.8012 117.1C83.8012 113.9 88.5012 110.9 92.7012 107.8C100.201 102.4 107.801 96.5 115.801 90.3C147.101 66.1 182.601 38.6 217.101 38.5C217.201 38.5 217.201 38.5 217.301 38.5C253.701 38.5 291.201 69 324.301 95.9C331.201 101.5 337.701 106.7 344.001 111.6C348.201 114.8 353.001 118.2 358.001 121.8C382.201 138.9 412.301 160.3 412.301 189.3C412.301 230 382.901 277.8 344.001 300.3C325.401 311.1 304.001 313.9 282.601 313.9ZM217.601 309.7C226.901 309.7 237.001 310.4 247.601 311.2C279.101 313.5 314.801 316.1 343.501 299.5C382.101 277.1 411.301 229.8 411.301 189.3C411.301 160.8 381.501 139.7 357.501 122.6C352.401 119 347.701 115.6 343.401 112.4C337.001 107.5 330.601 102.2 323.701 96.6C290.701 69.8 253.301 39.5 217.301 39.5C217.201 39.5 217.201 39.5 217.101 39.5C182.901 39.6 147.601 67 116.401 91.1C108.401 97.3 100.801 103.2 93.3012 108.6C89.1012 111.6 84.4012 114.7 79.4012 117.9C57.6012 131.9 33.0012 147.8 33.1012 173.9C33.3012 219.4 58.6012 270.6 93.3012 295.6C121.101 315.7 157.801 313.1 190.201 310.9C199.801 310.2 208.801 309.6 217.201 309.6C217.201 309.7 217.401 309.7 217.601 309.7Z" fill="white"/>
<path d="M271.801 316.2C261.901 316.2 252.101 315.7 242.601 315.1C233.601 314.6 225.001 314.1 217.101 314.2C210.401 314.2 203.301 314.6 195.801 314.9C165.001 316.4 130.101 318.1 103.401 299C71.8011 276.4 48.8011 230.4 48.6011 189.8C48.5011 164.2 73.2011 147.6 93.0011 134.3C96.7011 131.8 100.201 129.5 103.401 127.1C108.601 123.3 114.001 119.4 119.601 115.2C150.001 92.5 184.501 66.8 217.101 66.7C217.201 66.7 217.201 66.7 217.301 66.7C251.801 66.7 288.101 95.4 320.101 120.8C324.701 124.5 329.101 128 333.501 131.3C336.801 133.8 340.401 136.5 344.201 139.3C366.801 155.9 395.001 176.5 395.001 204.1C395.001 240.9 369.101 282.5 333.401 303.1C314.801 313.7 293.101 316.2 271.801 316.2ZM217.701 313.2C225.501 313.2 233.801 313.7 242.601 314.1C272.301 315.7 305.901 317.6 332.801 302.1C368.201 281.7 393.901 240.4 393.901 203.9C393.901 176.7 366.001 156.3 343.501 139.9C339.701 137.1 336.101 134.5 332.801 131.9C328.501 128.6 324.101 125.1 319.401 121.4C287.501 96.1999 251.401 67.6 217.201 67.6C217.101 67.6 217.101 67.6 217.001 67.6C184.701 67.7 150.401 93.2999 120.101 115.9C114.501 120.1 109.101 124.1 103.901 127.9C100.701 130.2 97.2011 132.6 93.5011 135.1C72.9011 149 49.5011 164.7 49.6011 189.8C49.8011 230.2 72.6011 275.7 103.901 298.2C130.301 317.1 165.001 315.4 195.601 314C203.101 313.6 210.301 313.3 217.001 313.3C217.301 313.2 217.501 313.2 217.701 313.2Z" fill="white"/>
<path d="M254.901 322.4C248.101 322.4 241.401 322.2 234.901 322C228.601 321.8 222.701 321.7 217.101 321.7C212.801 321.7 208.401 321.8 203.701 321.9C173.901 322.5 140.101 323.1 114.401 304.5C85.2011 283.3 65.1011 244.3 65.5011 209.7C65.8011 183.9 88.6011 167.8 108.801 153.5C110.701 152.2 112.601 150.8 114.401 149.5C116.201 148.2 118.001 146.9 119.901 145.5C150.101 123.6 184.401 98.9 217.201 98.8C217.301 98.8 217.301 98.8 217.401 98.8C251.901 98.8 288.901 127.4 318.601 150.5L322.701 153.7C324.601 155.2 326.601 156.7 328.701 158.3C350.301 174.7 377.201 195.1 377.201 222.4C377.201 254.6 354.801 290.1 322.601 308.7C302.201 320.3 278.101 322.4 254.901 322.4ZM217.501 320.8C223.001 320.8 228.801 321 234.901 321.1C263.601 321.9 296.101 322.7 321.901 307.8C353.801 289.4 376.001 254.3 376.001 222.4C376.001 195.5 349.301 175.3 327.901 159.1C325.801 157.5 323.801 156 321.901 154.5L317.801 151.3C288.201 128.4 251.301 99.8 217.201 99.8C217.101 99.8 217.101 99.8 217.001 99.8C184.501 99.9 150.401 124.6 120.301 146.3C118.401 147.6 116.601 149 114.801 150.3C113.001 151.6 111.101 152.9 109.201 154.3C89.3011 168.4 66.7011 184.4 66.4011 209.7C66.0011 244 85.9011 282.6 114.901 303.7C140.301 322.1 173.901 321.5 203.601 320.9C208.301 320.8 212.701 320.7 217.001 320.7C217.201 320.8 217.301 320.8 217.501 320.8Z" fill="white"/>
<path d="M217.101 332.2C171.501 332.2 130.201 317.8 106.401 293.7C90.201 277.3 82.2011 256.7 82.5011 232.6C82.9011 205.7 107.401 187.9 125.401 175C137.301 166.4 153.001 155.5 169.301 147.4C187.001 138.6 202.601 134.2 217.101 134.1C217.301 134.1 217.501 134.1 217.801 134.1C249.001 134.1 281.201 155.7 311.401 179L311.701 179.2C331.701 194.6 359.001 215.8 359.001 243.6C359.001 275.8 341.901 299.9 308.201 315.2C275.501 329.9 237.201 332.1 217.101 332.2ZM217.701 135.1C217.501 135.1 217.301 135.1 217.001 135.1C186.001 135.4 153.601 155.8 125.901 175.8C108.101 188.6 83.8011 206.2 83.4011 232.6C83.1011 256.4 91.0011 276.7 107.001 293C130.601 316.9 171.701 331.2 216.901 331.2C216.901 331.2 216.901 331.2 217.001 331.2C237.001 331.2 275.201 329 307.601 314.3C340.901 299.2 357.801 275.4 357.801 243.6C357.801 216.2 330.701 195.3 310.901 180L310.601 179.8C280.701 156.5 248.601 135.1 217.701 135.1Z" fill="white"/>
<path d="M216.101 344.3C187.001 344.3 147.301 335.4 121.901 310.2C107.201 295.6 99.701 277.8 99.701 257.3C99.701 242.5 107.201 227.3 121.301 213.2C148.101 186.7 190.301 171.1 216.201 171.1C216.501 171.1 216.701 171.1 217.001 171.1C239.101 171.4 269.501 182.7 294.501 199.9C333.801 226.9 340.101 253.1 340.401 266.4C340.801 283.2 335.001 297.8 323.401 309.7C311.801 321.6 294.801 330.7 272.601 336.8C249.401 343.2 227.801 344.2 216.901 344.3C216.701 344.3 216.401 344.3 216.101 344.3ZM216.201 172.1C190.501 172.1 148.601 187.6 122.001 213.9C108.001 227.7 100.601 242.7 100.601 257.2C100.601 277.4 108.001 295 122.501 309.4C147.901 334.6 188.001 343.4 216.901 343.2C270.601 342.9 306.701 325.3 322.601 308.9C334.001 297.2 339.601 282.8 339.301 266.3C339.001 253.3 332.801 227.4 293.801 200.6C268.901 183.5 238.701 172.3 216.801 172C216.801 172.1 216.501 172.1 216.201 172.1Z" fill="white"/>
<path d="M217.101 356.9C176.801 356.9 117.101 333.2 116.901 282.4C116.801 268.1 122.901 254.8 135.001 242.6C157.001 220.5 193.601 208.6 216.901 208.6H217.001C237.201 208.6 263.601 217.7 284.301 231.8C308.601 248.3 322.001 268.8 322.001 289.7C322.001 317.6 301.101 333.7 283.501 342.2C261.301 353.1 234.701 356.9 217.101 356.9ZM217.001 355.9C217.101 355.9 217.101 355.9 217.001 355.9C234.501 355.9 261.001 352.1 283.001 341.3C300.301 332.9 320.901 317.1 320.901 289.7C320.901 269.2 307.701 249 283.701 232.7C263.201 218.8 237.001 209.7 217.001 209.7H216.901C193.801 209.7 157.501 221.5 135.701 243.4C123.801 255.3 117.801 268.5 117.901 282.5C118.201 332.5 177.201 355.9 217.001 355.9Z" fill="white"/>
<path d="M217.701 369C217.501 369 217.301 369 217.101 369C197.401 368.8 166.801 358.9 148.901 340.7C139.001 330.6 134.001 319.3 134.101 307C134.401 268.9 182.401 245.6 216.801 245.6C216.901 245.6 217.001 245.6 217.001 245.6C251.501 245.7 303.601 272.4 303.501 312.4C303.501 323.4 299.001 333.5 290.201 342.2C272.601 359.7 239.901 369 217.701 369ZM216.801 246.6C199.801 246.6 179.601 252.6 164.101 262.3C145.501 273.9 135.201 289.8 135.101 307C135.001 319 139.901 330.1 149.601 340C167.301 358 197.501 367.8 217.101 368C239.101 368.2 272.001 359 289.601 341.5C298.201 333 302.601 323.2 302.601 312.4C302.701 273 251.201 246.7 217.101 246.6C217.001 246.6 216.901 246.6 216.801 246.6Z" fill="white"/>
<path d="M216.601 379.3C204.401 379.3 188.301 374 175.501 365.9C159.901 355.9 151.201 343.1 151.101 329.9C151.001 319.6 155.101 310.1 163.301 301.9C177.801 287.4 201.101 280.8 216.801 280.8C216.901 280.8 217.001 280.8 217.101 280.8C233.501 280.9 257.901 289 272.801 304.3C281.401 313.1 285.701 323 285.501 333.6C285.201 350.6 271.101 361.7 259.301 367.9C244.701 375.7 227.601 379.2 217.101 379.3C216.901 379.3 216.801 379.3 216.601 379.3ZM216.801 281.8C201.301 281.8 178.301 288.3 164.001 302.6C156.001 310.6 152.001 319.8 152.101 329.8C152.201 342.7 160.701 355.2 176.001 365C188.701 373.1 204.501 378.3 216.601 378.3C216.701 378.3 216.901 378.3 217.001 378.3C240.201 378.1 283.801 362.5 284.401 333.5C284.601 323.2 280.401 313.5 272.001 304.9C257.301 289.8 233.201 281.8 217.001 281.7C217.001 281.8 216.901 281.8 216.801 281.8Z" fill="white"/>
<path d="M217.201 386.7H217.101C200.401 386.6 168.401 372.1 168.101 349.7C168.001 341.3 171.001 334 177.101 327.8C188.201 316.7 205.601 312.8 217.101 312.9C229.601 313 247.001 318 257.901 329.1C264.401 335.7 267.601 343.3 267.601 351.9C267.401 374.9 232.301 386.7 217.201 386.7ZM216.801 313.8C204.601 313.8 187.901 318.3 177.801 328.4C171.901 334.4 168.901 341.5 169.001 349.6C169.101 359.2 175.501 368.5 187.101 375.8C196.401 381.7 208.501 385.7 217.101 385.7H217.201C224.201 385.7 236.701 383 247.601 377C263.201 368.4 266.501 358.6 266.601 351.9C266.701 343.6 263.501 336.2 257.201 329.8C246.501 318.9 229.301 314 217.101 313.9C216.901 313.8 216.801 313.8 216.801 313.8Z" fill="white"/>
<path d="M216.601 390C204.601 390 184.901 378.7 184.501 365.3C184.401 360 186.601 354.9 191.001 350.6C197.501 344.2 207.901 340.3 217.001 340.7C225.901 341.1 238.601 345.1 245.401 352.8C248.901 356.8 250.501 361.4 250.101 366.4C248.901 381.7 228.201 389.8 216.901 390C216.901 390 216.801 390 216.601 390ZM215.701 341.6C207.201 341.6 197.801 345.4 191.801 351.3C187.601 355.4 185.401 360.2 185.601 365.3C185.901 377.8 205.001 389 216.701 389C216.801 389 217.001 389 217.101 389C223.201 388.9 231.101 386.4 237.101 382.9C242.301 379.8 248.701 374.4 249.301 366.3C249.701 361.6 248.201 357.3 244.801 353.5C238.201 346 225.801 342.1 217.101 341.7C216.601 341.6 216.101 341.6 215.701 341.6Z" fill="white"/>
<path d="M217.101 388C208.801 388 200.801 381.8 200.801 375.5C200.801 372.7 201.901 370 204.101 367.9C207.201 364.8 212.001 363 217.001 363C217.001 363 217.001 363 217.101 363C225.001 363 233.501 368.2 233.501 375.8C233.501 378.1 232.301 380.6 230.201 382.7C226.901 386 221.901 388 217.101 388ZM217.001 364C212.201 364 207.701 365.7 204.801 368.6C202.801 370.6 201.801 373 201.801 375.5C201.801 381.2 209.501 387 217.101 387C221.601 387 226.401 385.1 229.501 382C231.401 380.1 232.501 377.9 232.501 375.8C232.501 368.8 224.501 364 217.001 364Z" fill="white"/>
<path d="M217.501 310.4H216.501V389.2H217.501V310.4Z" fill="white"/>
<path d="M225.501 380.6C222.601 380.6 219.801 380.3 216.901 379.7L217.101 378.7C250.601 386.1 284.901 346.4 310.001 317.5C315.001 311.8 319.701 306.3 323.701 302C326.301 299.2 329.001 296.3 331.801 293.3C357.801 265.3 390.201 230.5 428.501 230V231C390.601 231.5 358.401 266.1 332.501 294C329.701 297 327.001 299.9 324.401 302.7C320.401 307 315.701 312.4 310.701 318.1C287.701 344.8 256.801 380.6 225.501 380.6Z" fill="white"/>
<path d="M217.401 379.5L216.601 378.8C232.401 360.8 240.701 334.4 248.101 311.1C249.501 306.7 250.801 302.5 252.201 298.4C259.701 275.7 266.901 252.4 273.701 229.8C275.601 223.7 277.401 217.5 279.301 211.4C281.701 203.6 284.101 195.5 286.401 187.7C299.301 144.1 312.701 98.9 336.801 61.1L337.601 61.6C313.601 99.4 300.301 144.4 287.301 188C285.001 195.8 282.601 203.9 280.201 211.7C278.301 217.8 276.401 224 274.601 230.1C267.701 252.6 260.601 275.9 253.101 298.7C251.701 302.8 250.401 307 249.001 311.4C241.701 334.8 233.301 361.3 217.401 379.5Z" fill="white"/>
<path d="M216.701 379.5C200.901 361.3 192.901 334.6 185.801 311C184.401 306.3 183.101 301.9 181.701 297.5C175.301 277.3 169.201 256.7 163.301 236.8C160.601 227.7 157.901 218.6 155.201 209.5C153.201 202.9 151.201 196 149.301 189.4C136.201 144.6 122.701 98.3 97.1011 60.7L97.9011 60.1C123.701 97.9 137.201 144.3 150.301 189.1C152.201 195.7 154.201 202.6 156.201 209.2C158.901 218.3 161.601 227.4 164.301 236.5C170.201 256.4 176.301 277.1 182.701 297.2C184.101 301.5 185.401 306 186.801 310.7C193.801 334.2 201.801 360.8 217.501 378.8L216.701 379.5Z" fill="white"/>
<path d="M209.601 380.5C178.201 380.5 147.401 339.4 126.501 311.4C121.801 305.2 117.801 299.8 114.301 295.5C111.901 292.6 109.401 289.5 106.801 286.3C83.7011 257.7 52.1011 218.5 13.9011 218.4V217.4C52.6011 217.5 84.4011 256.9 107.601 285.6C110.201 288.8 112.701 291.9 115.101 294.8C118.601 299.1 122.701 304.5 127.301 310.7C149.701 340.6 183.601 385.9 216.901 378.6L217.101 379.6C214.601 380.2 212.101 380.5 209.601 380.5Z" fill="white"/>
</svg>
