<svg width="405" height="405" viewBox="0 0 405 405" fill="none" xmlns="http://www.w3.org/2000/svg">
<path d="M200.9 404.403C146.8 404.403 96.5 384.003 59.1 346.803C21 308.903 0 257.603 0 202.203C0 146.303 20.8 94.8033 58.7 57.2033C96.1 20.0033 147.1 -0.296722 202.2 0.00327813C308 0.603278 404.4 97.0033 404.4 202.203C404.4 252.103 381.8 303.203 342.4 342.403C303.1 381.503 252 404.103 202.2 404.403C201.8 404.403 201.4 404.403 200.9 404.403ZM200.9 1.00328C146.5 1.00328 96.3 21.2033 59.4 57.9033C21.7 95.3033 1 146.603 1 202.203C1 257.303 21.9 308.403 59.9 346.103C97.1 383.103 147.1 403.403 201 403.403C201.4 403.403 201.8 403.403 202.3 403.403C251.8 403.103 302.7 380.603 341.8 341.703C381 302.603 403.5 251.803 403.5 202.203C403.5 97.5033 307.6 1.60328 202.3 1.00328C201.8 1.00328 201.4 1.00328 200.9 1.00328Z" fill="white"/>
<path d="M199.7 388.603C149 388.603 101.8 369.203 66.8 334.003C32.1 299.003 13 252.103 13 201.903C13 151.103 31.9 104.003 66.2 69.4032C100.8 34.4032 148.2 15.2032 199.7 15.2032C199.7 15.2032 199.7 15.2032 199.8 15.2032C245.5 15.2032 292.8 36.7032 329.5 74.2032C365.7 111.103 386.4 157.703 386.4 201.903C386.4 245.503 365.4 291.903 328.8 329.203C291.7 366.903 244.7 388.603 199.7 388.603ZM199.8 16.2032C199.7 16.2032 199.7 16.2032 199.8 16.2032C148.5 16.2032 101.4 35.3032 67 70.1032C32.9 104.503 14.1 151.403 14.1 201.903C14.1 251.803 33.1 298.503 67.6 333.303C102.4 368.303 149.3 387.603 199.7 387.603C244.4 387.603 291.2 366.003 328.1 328.503C364.5 291.503 385.4 245.303 385.4 201.903C385.4 157.903 364.8 111.603 328.8 74.9032C292.2 37.6032 245.2 16.2032 199.8 16.2032Z" fill="white"/>
<path d="M193 372.203C146.8 372.203 103.6 354.303 71.3998 321.803C39.3998 289.503 21.7998 246.603 21.8998 201.003C21.8998 154.803 39.2998 111.803 70.7998 79.9033C102.6 47.7033 146.1 29.9033 193.1 29.9033H193.2C233.7 29.9033 276.3 49.2033 309.9 82.8033C344 116.903 364.3 161.103 364.3 201.103C364.3 239.503 344.5 282.803 311.4 316.803C277 352.003 233.9 372.203 193 372.203ZM193.1 30.9033C146.3 30.9033 103.1 48.6033 71.3998 80.6033C40.1998 112.303 22.8998 155.103 22.8998 201.003C22.8998 246.303 40.3998 289.003 72.0998 321.103C104.1 353.403 147 371.203 193 371.203C193 371.203 193 371.203 193.1 371.203C233.6 371.203 276.5 351.103 310.6 316.003C343.6 282.203 363.2 239.203 363.3 201.003C363.3 161.303 343.1 117.303 309.2 83.4033C275.7 50.0033 233.4 30.9033 193.1 30.9033Z" fill="white"/>
<path d="M183 355.403C141.2 355.403 102 339.103 72.5999 309.403C43.3999 280.003 27.3999 241.003 27.3999 199.703C27.3999 112.503 95.7999 44.1033 183.1 44.0033H183.2C220.1 44.0033 258.8 61.5033 289.3 92.1033C320.3 123.103 338.8 163.303 338.8 199.703C338.8 234.703 320.8 274.003 290.8 304.903C259.5 337.003 220.2 355.403 183 355.403ZM183 354.403C219.9 354.403 258.9 336.103 289.9 304.203C319.8 273.503 337.6 234.403 337.6 199.703C337.6 163.603 319.2 123.603 288.4 92.8033C258 62.4033 219.6 45.0033 183 45.0033H182.9C96.1999 45.1033 28.2999 113.003 28.1999 199.703C28.1999 240.703 44.0999 279.403 73.0999 308.703C102.5 338.203 141.4 354.403 183 354.403Z" fill="white"/>
<path d="M170.3 338.303C132.8 338.303 97.5002 323.603 71.0002 296.903C44.7002 270.303 30.2002 235.303 30.2002 198.203C30.2002 160.703 44.6002 125.603 70.6002 99.3033C96.9002 72.8033 132.3 58.1033 170.3 58.1033C170.3 58.1033 170.3 58.1033 170.4 58.1033C204.8 58.1033 240.4 74.3033 268 102.703C295 130.403 310.5 165.303 310.5 198.303C310.5 230.403 294.4 266.103 267.6 293.603C239.7 322.003 204.3 338.303 170.3 338.303ZM170.4 59.0033C132.6 59.0033 97.4002 73.5033 71.3002 99.9033C45.5002 126.003 31.2002 160.903 31.2002 198.203C31.2002 235.003 45.6002 269.803 71.7002 296.203C98.0002 322.703 133 337.303 170.3 337.303C204 337.303 239.2 321.103 266.8 292.703C293.5 265.303 309.4 230.003 309.5 198.103C309.5 165.403 294.1 130.803 267.3 103.203C239.9 75.2033 204.6 59.0033 170.4 59.0033Z" fill="white"/>
<path d="M156.4 321.003C156.2 321.003 156 321.003 155.8 321.003C122.8 320.803 91.5002 307.503 67.8002 283.703C44.2002 260.003 31.2002 228.903 31.2002 196.303C31.2002 163.503 44.2002 132.403 67.8002 108.803C91.4002 85.1032 122.7 71.9032 155.8 71.7032C186 71.5032 217.2 85.1032 241.3 109.103C266.2 133.803 280.4 165.603 280.4 196.303C280.4 226.903 266.1 258.703 241.2 283.403C217.1 307.303 186.3 321.003 156.4 321.003ZM156.5 72.7032C156.3 72.7032 156.1 72.7032 155.8 72.7032C122.9 72.9032 91.9002 86.0032 68.5002 109.503C45.1002 133.003 32.2002 163.803 32.2002 196.303C32.2002 228.603 45.1002 259.403 68.5002 282.903C92.0002 306.503 123 319.703 155.8 319.903C185.6 320.103 216.5 306.503 240.5 282.703C265.2 258.103 279.4 226.603 279.4 196.303C279.4 165.803 265.3 134.303 240.6 109.803C216.8 86.2032 186.2 72.7032 156.5 72.7032Z" fill="white"/>
<path d="M138.8 303.503C110.6 303.503 83.9 292.503 63.7 272.503C42.6 251.703 31 223.903 31 194.403C31 164.803 42.6 137.003 63.6 116.203C84.1 95.9032 111.3 84.9032 140.1 85.2032C167.8 85.5032 195.6 97.5032 216.3 118.003C237.5 139.003 249.2 166.103 249.2 194.303C249.2 222.403 237.5 249.403 216.3 270.503C195.5 291.103 167.8 303.103 140.1 303.403C139.7 303.503 139.2 303.503 138.8 303.503ZM138.8 86.2032C110.7 86.2032 84.3 97.1032 64.3 116.903C43.5 137.503 32 165.003 32 194.303C32 223.603 43.5 251.103 64.4 271.703C84.8 291.903 111.7 302.803 140.1 302.403C167.5 302.103 195 290.203 215.6 269.803C236.6 248.903 248.2 222.103 248.2 194.303C248.2 166.403 236.6 139.603 215.6 118.703C195.1 98.3032 167.5 86.5032 140.1 86.2032C139.6 86.2032 139.2 86.2032 138.8 86.2032Z" fill="white"/>
<path d="M124.1 285.903C124 285.903 124 285.903 124.1 285.903C73.3 285.903 30.5 243.003 30.5 192.303C30.5 141.603 73.4 98.7032 124.1 98.7032C148.6 98.7032 171.9 108.603 189.9 126.603C207.8 144.603 217.7 167.903 217.7 192.303C217.7 216.403 207.6 240.303 189.9 258.003C171.9 276.003 148.5 285.903 124.1 285.903ZM124.1 99.7032C124 99.7032 124 99.7032 124.1 99.7032C73.9 99.7032 31.5 142.103 31.5 192.303C31.5 242.503 73.9 284.903 124.1 284.903C148.3 284.903 171.4 275.103 189.2 257.303C206.7 239.803 216.7 216.103 216.7 192.303C216.7 168.103 206.9 145.003 189.2 127.303C171.4 109.503 148.3 99.7032 124.1 99.7032Z" fill="white"/>
<path d="M108.4 268.403C88.4998 268.403 68.4998 259.603 53.4998 244.303C38.7998 229.203 30.2998 209.603 30.2998 190.303C30.2998 149.503 67.4998 112.303 108.4 112.203C108.4 112.203 108.4 112.203 108.5 112.203C128.9 112.203 148.4 120.503 163.4 135.503C178.1 150.303 186.6 170.203 186.6 190.303C186.6 210.403 178.2 230.403 163.5 245.103C148.5 260.103 128.9 268.403 108.4 268.403ZM108.4 113.303C67.9998 113.303 31.2998 150.103 31.2998 190.403C31.2998 230.703 67.9998 267.503 108.4 267.503C128.7 267.503 147.9 259.303 162.7 244.503C177.2 230.003 185.5 210.203 185.5 190.403C185.5 170.603 177.2 150.903 162.6 136.303C147.8 121.403 128.6 113.303 108.4 113.303Z" fill="white"/>
<path d="M94.5002 251.103C94.3002 251.103 94.0002 251.103 93.8002 251.103C61.6002 250.703 31.2002 220.303 31.2002 188.503C31.2002 156.803 61.6002 126.303 93.8002 125.903C109.8 125.703 125.1 132.103 137.1 144.003C149.3 156.103 156.3 172.303 156.3 188.503C156.3 204.703 149.3 220.903 137.1 232.903C125.3 244.703 110.2 251.103 94.5002 251.103ZM94.6002 126.903C94.4002 126.903 94.1002 126.903 93.9002 126.903C62.3002 127.303 32.3002 157.203 32.3002 188.503C32.3002 219.803 62.2002 249.703 93.9002 250.103C109.6 250.303 124.7 244.003 136.5 232.303C148.5 220.403 155.4 204.503 155.4 188.603C155.4 172.703 148.5 156.703 136.5 144.803C124.8 133.203 110 126.903 94.6002 126.903Z" fill="white"/>
<path d="M81.3001 234.003H81.2001C69.4001 234.003 57.4001 228.503 48.2001 219.003C39.3001 209.703 34.1001 198.103 34.1001 187.003C34.1001 163.303 57.4001 140.003 81.1001 140.003C81.2001 140.003 81.2001 140.003 81.3001 140.003C93.4001 140.003 105.1 144.903 114 153.903C123 162.903 128.2 174.903 128.1 187.103C128.1 199.303 123 211.403 114 220.303C105.3 229.103 93.6001 234.003 81.3001 234.003ZM81.4001 140.903C81.3001 140.903 81.3001 140.903 81.2001 140.903C58.0001 141.003 35.2001 163.803 35.1001 186.903C35.1001 197.703 40.1001 209.103 48.9001 218.203C57.9001 227.503 69.7001 232.903 81.2001 232.903H81.3001C93.3001 232.903 104.7 228.103 113.5 219.403C122.2 210.703 127.3 198.803 127.3 186.903C127.3 175.103 122.3 163.203 113.4 154.503C104.6 145.703 93.2001 140.903 81.4001 140.903Z" fill="white"/>
<path d="M71.9998 217.203C71.7998 217.203 71.4998 217.203 71.2998 217.203C55.0998 216.803 39.7998 201.503 39.7998 185.703C39.7998 169.903 55.0998 154.603 71.2998 154.203C79.0998 154.003 86.7998 157.203 92.8998 163.103C99.1998 169.303 102.9 177.503 102.9 185.803C102.9 194.003 99.2998 202.203 92.8998 208.403C86.8998 214.003 79.4998 217.203 71.9998 217.203ZM71.9998 155.103C71.7998 155.103 71.4998 155.103 71.2998 155.103C55.5998 155.503 40.7998 170.303 40.7998 185.603C40.7998 200.903 55.5998 215.703 71.2998 216.103C78.8998 216.303 86.2998 213.203 92.0998 207.503C98.1998 201.503 101.8 193.503 101.8 185.603C101.8 177.703 98.2998 169.703 92.0998 163.703C86.3998 158.103 79.2998 155.103 71.9998 155.103Z" fill="white"/>
<path d="M64.7998 200.803C60.7998 200.803 56.6998 199.003 53.5998 196.003C50.4998 192.903 48.7998 188.803 48.7998 184.803C48.7998 176.303 56.2998 168.803 64.7998 168.803C69.1998 168.803 73.1998 170.503 76.1998 173.603C79.0998 176.603 80.7998 180.703 80.7998 184.803C80.7998 193.703 73.5998 200.803 64.7998 200.803ZM64.7998 169.803C56.8998 169.803 49.7998 177.003 49.7998 184.803C49.7998 188.603 51.4998 192.403 54.2998 195.303C57.1998 198.203 60.9998 199.803 64.7998 199.803C73.0998 199.803 79.7998 193.103 79.7998 184.803C79.7998 180.903 78.1998 177.103 75.4998 174.303C72.6998 171.403 68.7998 169.803 64.7998 169.803Z" fill="white"/>
<path d="M202.7 403.903H201.7C201.7 368.103 169.7 334.503 143.9 307.503C139.5 302.903 135.4 298.603 131.7 294.503C128 290.403 124 286.203 119.8 281.803C94.2999 254.903 62.5999 221.503 61.8999 184.503H62.8999C63.4999 221.103 95.0999 254.403 120.5 281.103C124.7 285.503 128.7 289.703 132.4 293.803C136.2 297.903 140.3 302.203 144.6 306.803C170.5 334.003 202.7 367.803 202.7 403.903Z" fill="white"/>
<path d="M392.6 264.803C342.4 250.203 290.2 239.203 239.7 228.603C181 216.303 120.2 203.503 62.1997 184.903L62.4997 183.903C120.4 202.403 181.1 215.203 239.9 227.503C290.4 238.103 342.6 249.103 392.8 263.703L392.6 264.803Z" fill="white"/>
<path d="M62.8 184.803L62 184.203C84.5 154.703 125.8 137.903 162.3 123.103C172.3 119.003 181.8 115.203 190.6 111.203C232.2 92.4033 279.4 71.0033 315.9 38.1033L316.6 38.8033C280 71.8033 232.7 93.2033 191 112.103C182.2 116.103 172.7 119.903 162.7 124.003C126.3 138.803 85.1 155.603 62.8 184.803Z" fill="white"/>
<path d="M61.9999 184.803C48.4999 158.603 57.3999 140.603 68.6999 117.903C69.6999 115.803 70.7999 113.703 71.7999 111.503C84.9999 84.4032 86.8999 63.9032 78.6999 38.6032L79.6999 38.3032C88.0999 63.9032 86.0999 84.5032 72.7999 111.903C71.6999 114.103 70.6999 116.203 69.6999 118.303C58.4999 140.803 49.6999 158.603 62.9999 184.303L61.9999 184.803Z" fill="white"/>
<path d="M9.2998 264.803L8.7998 263.903C27.6998 253.203 35.4998 245.403 35.4998 224.503C35.3998 201.203 39.6998 194.703 62.1998 184.103L62.5998 185.003C40.2998 195.503 36.3998 201.403 36.4998 224.503C36.4998 245.803 28.0998 254.103 9.2998 264.803Z" fill="white"/>
</svg>
