<svg width="398" height="402" viewBox="0 0 398 402" fill="none" xmlns="http://www.w3.org/2000/svg">
<path d="M198.5 401.3C132.4 401.3 66.2 401.3 0.5 401.2H0V400.7C0.2 268.1 0.2 133.4 0 0.5V0H0.5C132.2 0.1 265.4 0.1 396.4 0H396.9V0.5C397.1 133.4 397.1 268.1 396.9 400.7V401.2H396.4C330.8 401.3 264.7 401.3 198.5 401.3ZM1.1 400.3C132.1 400.4 265 400.4 396 400.3C396.2 268 396.2 133.7 396 1.1C265.3 1.2 132.5 1.2 1.1 1.1C1.3 133.6 1.3 268 1.1 400.3Z" fill="white"/>
<path d="M382.9 27.8C350.4 27.8 317.5 26.8 285.6 25.8C253.7 24.8 220.8 23.8 188.4 23.8C158.9 23.8 128.9 24.8 99.9001 25.7C67.4001 26.9 33.7001 28 0.600098 27.7V26.7C33.7001 27 67.4001 25.9 100 24.8C129 23.8 159 22.9 188.6 22.9C221 22.9 254 23.9 285.8 24.9C322.1 26 359.7 27.1 396.6 26.8V27.8C392 27.8 387.5 27.8 382.9 27.8Z" fill="white"/>
<path d="M396.5 54.4C369.1 53.8 341.5 50.8 314.8 47.9C294.5 45.7 273.5 43.4 252.8 42.2C231.8 41 210.4 41.2 189.7 41.4C181.7 41.5 173.4 41.6 165.3 41.6C157 41.6 148.4 41.4 140.1 41.2C119.1 40.7 97.5001 40.3 76.7001 42.7C66.2001 43.9 55.8001 46 45.8001 48C31.3001 50.9 16.2001 54 0.600098 54.3V53.3C16.2001 53 31.1001 49.9 45.6001 47C55.6001 45 66.0001 42.9 76.5001 41.7C97.3001 39.3 119.1 39.8 140 40.2C148.3 40.4 156.8 40.6 165.2 40.6C173.3 40.6 181.6 40.5 189.5 40.4C210.3 40.2 231.7 40 252.7 41.2C273.5 42.4 294.5 44.7 314.8 46.9C341.5 49.8 369.1 52.8 396.4 53.3L396.5 54.4Z" fill="white"/>
<path d="M396.4 81.1C364 79.3 331.5 74.2 300.1 69.3C276.4 65.6 251.9 61.7 227.6 59.4C205 57.2 181.8 57.4 159.4 57.7C152.3 57.8 144.9 57.9 137.7 57.9C130.3 57.9 122.4 57.5 114.1 57C92.9 55.9 70.9 54.7 52.7 60.3C44.7 62.8 38.3 66.4 32.2 69.9C22.9 75.2 14.1 80.1 0.599998 81.2L0.5 80.2C13.8 79.2 22.5 74.3 31.7 69.1C37.9 65.6 44.3 62 52.4 59.5C70.8 53.8 92.8 55 114.1 56.1C122.4 56.5 130.2 57 137.6 57C144.8 57 152.2 56.9 159.3 56.8C181.8 56.6 205 56.3 227.6 58.5C251.9 60.9 276.5 64.7 300.2 68.5C331.6 73.4 364.1 78.5 396.4 80.3V81.1Z" fill="white"/>
<path d="M0.5 107.8V106.8C15.8 106.4 18.4 100.2 21.4 92.9C23.4 88.1 25.7 82.6 32 78.3C39.2 73.4 50.7 74 59.9 74.4C62.5 74.5 64.9 74.6 67.1 74.6H114.6C121.4 74.6 128.4 74.5 135.1 74.4C158.6 74.1 182.8 73.9 206.4 76.8C233.7 80.2 261.2 85.4 287.8 90.4C323.2 97.1 359.9 104 396.5 106.7L396.4 107.7C359.8 104.9 323.1 98.1 287.6 91.4C261 86.4 233.6 81.2 206.3 77.8C182.8 74.9 158.6 75.2 135.1 75.4C128.4 75.5 121.4 75.6 114.6 75.6H67.1C64.9 75.6 62.4 75.5 59.8 75.4C50.3 74.9 39.4 74.4 32.5 79.1C26.4 83.2 24.3 88.3 22.2 93.3C19.2 100.9 16.5 107.4 0.5 107.8Z" fill="white"/>
<path d="M1.6 134.5C1.2 134.5 0.9 134.5 0.5 134.5V133.5C8.1 133.6 13 132.5 15.4 129.9C18 127.2 17.8 123.3 17.5 118.8C17.2 113.1 16.8 106.6 22.4 101.4C28.3 95.9 40.5 96.7 50.3 97.4C52.9 97.6 55.4 97.7 57.4 97.7H104.9C112.1 97.7 119.4 97.6 126.5 97.5C149.6 97.2 173.4 96.9 196.5 99.9C225.1 103.6 253.8 109.5 281.6 115.2C319 122.9 357.6 130.8 396.3 133.5L396.2 134.5C357.4 131.8 318.8 123.9 281.4 116.2C253.6 110.5 224.9 104.6 196.3 100.9C173.3 97.9 149.5 98.2 126.4 98.6C119.3 98.7 112 98.8 104.8 98.8H57.3C55.3 98.8 52.8 98.6 50.1 98.5C41 97.9 28.5 97.1 22.9 102.3C17.7 107.2 18 113.1 18.3 118.9C18.5 123.5 18.8 127.8 15.9 130.8C13.6 133.2 9 134.5 1.6 134.5Z" fill="white"/>
<path d="M1.6 161.2C1.2 161.2 0.9 161.2 0.5 161.2V160.2C8.1 160.3 13 159.2 15.4 156.6C18 153.9 17.8 150 17.5 145.5C17.2 139.8 16.8 133.3 22.4 128.1C28.3 122.6 40.5 123.4 50.3 124.1C52.9 124.3 55.4 124.4 57.4 124.4H104.9C112.1 124.4 119.4 124.3 126.5 124.2C149.6 123.9 173.4 123.6 196.5 126.6C225.1 130.3 253.8 136.2 281.6 141.9C319 149.6 357.6 157.5 396.3 160.2L396.2 161.2C357.4 158.5 318.8 150.6 281.4 142.9C253.6 137.2 224.9 131.3 196.3 127.6C173.3 124.6 149.5 124.9 126.4 125.3C119.3 125.4 112 125.5 104.8 125.5H57.3C55.3 125.5 52.8 125.3 50.1 125.2C41 124.6 28.5 123.8 22.9 129C17.7 133.9 18 139.8 18.3 145.6C18.5 150.2 18.8 154.5 15.9 157.5C13.6 159.9 9 161.2 1.6 161.2Z" fill="white"/>
<path d="M1.6 187.8C1.2 187.8 0.9 187.8 0.5 187.8V186.8C8.1 186.9 13 185.8 15.4 183.2C18 180.5 17.8 176.6 17.5 172.1C17.2 166.4 16.8 159.9 22.4 154.7C28.3 149.2 40.5 150 50.3 150.7C52.9 150.9 55.4 151 57.4 151H104.9C112.1 151 119.4 150.9 126.5 150.8C149.6 150.5 173.4 150.2 196.5 153.2C225.1 156.9 253.8 162.8 281.6 168.5C319 176.2 357.6 184.1 396.3 186.8L396.2 187.8C357.4 185.1 318.8 177.2 281.4 169.5C253.6 163.8 224.9 157.9 196.3 154.2C173.3 151.2 149.5 151.5 126.4 151.9C119.3 152 112 152.1 104.8 152.1H57.3C55.3 152.1 52.8 151.9 50.1 151.8C41 151.2 28.5 150.4 22.9 155.6C17.7 160.5 18 166.4 18.3 172.2C18.5 176.8 18.8 181.1 15.9 184.1C13.6 186.6 9 187.8 1.6 187.8Z" fill="white"/>
<path d="M1.6 214.5C1.2 214.5 0.9 214.5 0.5 214.5V213.5C8.1 213.6 13 212.5 15.4 209.9C18 207.2 17.8 203.3 17.5 198.8C17.2 193.1 16.8 186.6 22.4 181.4C28.3 175.9 40.5 176.7 50.3 177.4C52.9 177.6 55.4 177.7 57.4 177.7H104.9C112.1 177.7 119.4 177.6 126.5 177.5C149.6 177.2 173.4 176.9 196.5 179.9C225.1 183.6 253.8 189.5 281.6 195.2C319 202.9 357.6 210.8 396.3 213.5L396.2 214.5C357.4 211.8 318.8 203.9 281.4 196.2C253.6 190.5 224.9 184.6 196.3 180.9C173.3 177.9 149.5 178.2 126.4 178.6C119.3 178.7 112 178.8 104.8 178.8H57.3C55.3 178.8 52.8 178.6 50.1 178.5C41 177.9 28.5 177.1 22.9 182.3C17.7 187.2 18 193.1 18.3 198.9C18.5 203.5 18.8 207.8 15.9 210.8C13.6 213.3 9 214.5 1.6 214.5Z" fill="white"/>
<path d="M1.6 241.2C1.2 241.2 0.9 241.2 0.5 241.2V240.2C8.1 240.3 13 239.2 15.4 236.6C18 233.9 17.8 230 17.5 225.5C17.2 219.8 16.8 213.3 22.4 208.1C28.3 202.6 40.5 203.4 50.3 204.1C52.9 204.3 55.4 204.4 57.4 204.4H104.9C112.1 204.4 119.4 204.3 126.5 204.2C149.6 203.9 173.4 203.6 196.5 206.6C225.1 210.3 253.8 216.2 281.6 221.9C319 229.6 357.6 237.5 396.3 240.2L396.2 241.2C357.4 238.5 318.8 230.6 281.4 222.9C253.6 217.2 224.9 211.3 196.3 207.6C173.3 204.6 149.5 204.9 126.4 205.3C119.3 205.4 112 205.5 104.8 205.5H57.3C55.3 205.5 52.8 205.3 50.1 205.2C41 204.6 28.5 203.8 22.9 209C17.7 213.9 18 219.8 18.3 225.6C18.5 230.2 18.8 234.5 15.9 237.5C13.6 240 9 241.2 1.6 241.2Z" fill="white"/>
<path d="M1.6 267.9C1.2 267.9 0.9 267.9 0.5 267.9V266.9C8.1 267 13 265.9 15.4 263.3C18 260.6 17.8 256.7 17.5 252.2C17.2 246.5 16.8 240 22.4 234.8C28.3 229.3 40.5 230.1 50.3 230.8C52.9 231 55.4 231.1 57.4 231.1H104.9C112.1 231.1 119.4 231 126.5 230.9C149.6 230.6 173.4 230.3 196.5 233.3C225.1 237 253.8 242.9 281.6 248.6C319 256.3 357.6 264.2 396.3 266.9L396.2 267.9C357.4 265.2 318.8 257.3 281.4 249.6C253.6 243.9 224.9 238 196.3 234.3C173.3 231.3 149.5 231.6 126.4 232C119.3 232.1 112 232.2 104.8 232.2H57.3C55.3 232.2 52.8 232 50.1 231.9C41 231.3 28.5 230.5 22.9 235.7C17.7 240.6 18 246.5 18.3 252.3C18.5 256.9 18.8 261.2 15.9 264.2C13.6 266.6 9 267.9 1.6 267.9Z" fill="white"/>
<path d="M0.5 294.5V293.5C15.8 293.1 18.4 286.9 21.4 279.6C23.4 274.8 25.7 269.3 32 265C39.2 260.1 50.7 260.7 59.9 261.1C62.5 261.2 64.9 261.3 67.1 261.3H114.6C121.4 261.3 128.4 261.2 135.1 261.1C158.6 260.8 182.8 260.6 206.4 263.5C233.7 266.9 261.2 272.1 287.8 277.1C323.2 283.8 359.9 290.7 396.5 293.4L396.4 294.4C359.8 291.6 323.1 284.8 287.6 278.1C261 273.1 233.6 267.9 206.3 264.5C182.8 261.6 158.6 261.9 135.1 262.1C128.4 262.2 121.4 262.3 114.6 262.3H67.1C64.9 262.3 62.4 262.2 59.8 262.1C50.3 261.6 39.4 261.1 32.5 265.8C26.4 269.9 24.3 275 22.2 280C19.2 287.6 16.5 294.2 0.5 294.5Z" fill="white"/>
<path d="M396.4 321.2C364 319.4 331.5 314.3 300.1 309.4C276.4 305.7 251.9 301.8 227.6 299.5C205 297.3 181.8 297.5 159.4 297.8C152.3 297.9 144.9 298 137.7 298C130.3 298 122.4 297.6 114.1 297.1C92.9 296 70.9 294.8 52.7 300.4C44.7 302.9 38.3 306.5 32.2 310C22.9 315.3 14.1 320.2 0.599998 321.3L0.5 320.3C13.8 319.3 22.5 314.4 31.7 309.2C37.9 305.7 44.3 302.1 52.4 299.6C70.8 293.9 92.8 295.1 114.1 296.2C122.4 296.6 130.2 297.1 137.6 297.1C144.8 297.1 152.2 297 159.3 296.9C181.8 296.7 205 296.4 227.6 298.6C251.9 301 276.5 304.8 300.2 308.6C331.6 313.5 364.1 318.6 396.4 320.4V321.2Z" fill="white"/>
<path d="M396.5 347.9C369.1 347.3 341.5 344.3 314.8 341.4C294.5 339.2 273.5 336.9 252.8 335.7C231.8 334.5 210.4 334.7 189.7 334.9C181.7 335 173.4 335.1 165.3 335.1C157 335.1 148.4 334.9 140.1 334.7C119.1 334.2 97.5001 333.8 76.7001 336.2C66.2001 337.4 55.8001 339.5 45.8001 341.5C31.3001 344.4 16.2001 347.5 0.600098 347.8V346.8C16.2001 346.5 31.1001 343.4 45.6001 340.5C55.6001 338.5 66.0001 336.4 76.5001 335.2C97.3001 332.8 119.1 333.3 140 333.7C148.3 333.9 156.8 334.1 165.2 334.1C173.3 334.1 181.6 334 189.5 333.9C210.3 333.7 231.7 333.5 252.7 334.7C273.5 335.9 294.5 338.2 314.8 340.4C341.5 343.3 369.1 346.3 396.4 346.8L396.5 347.9Z" fill="white"/>
<path d="M382.9 374.7C350.4 374.7 317.5 373.7 285.6 372.7C253.7 371.7 220.8 370.7 188.4 370.7C158.9 370.7 128.9 371.7 99.9 372.6C67.3 373.7 33.6 374.8 0.5 374.5V373.5C33.6 373.8 67.3 372.7 99.9 371.6C128.9 370.6 158.9 369.7 188.5 369.7C220.9 369.7 253.9 370.7 285.7 371.7C322 372.8 359.6 373.9 396.5 373.6V374.6C392 374.6 387.5 374.7 382.9 374.7Z" fill="white"/>
<path d="M370.6 400.8H369.6C370.2 378 367.2 355.3 364.4 333.4C362.7 320 360.9 306.2 359.9 292.4C358.3 270.7 358.8 248.3 359.2 226.7C359.4 216.9 359.6 206.8 359.6 196.9C359.6 186.9 359.4 176.6 359.2 166.6C358.9 147 358.5 126.8 359.5 107C360.3 91.8 362.4 76.5 364.4 61.8C367.2 41.9 370.1 21.3 369.6 0.599976H370.6C371.1 21.4 368.2 42 365.4 62C363.3 76.7 361.2 91.9 360.5 107.1C359.5 126.8 359.9 147 360.2 166.6C360.4 176.5 360.6 186.8 360.6 196.9C360.6 206.8 360.4 216.9 360.2 226.7C359.8 248.3 359.4 270.7 360.9 292.3C361.9 306 363.7 319.8 365.4 333.2C368.2 355.2 371.2 378 370.6 400.8Z" fill="white"/>
<path d="M343.2 400.8C341.9 375.5 334 351.5 326.3 328.3C321.6 314.2 316.8 299.6 313.5 284.7C308.2 261.2 308.9 235.9 309.5 211.4C309.7 203.6 309.9 195.6 309.9 187.9C309.9 179.9 309.6 171.5 309.3 163.4C308.5 141.7 307.7 119.3 312.1 98.8C315.2 84.1 321.1 70.4 326.7 57.3C334.3 39.6 342.1 21.3 343.2 0.5L344.2 0.600002C343.1 21.6 335.2 40 327.6 57.8C322 70.9 316.2 84.5 313.1 99.2C308.8 119.5 309.6 141.9 310.3 163.5C310.6 171.6 310.9 180 310.9 188C310.9 195.7 310.7 203.8 310.5 211.6C309.9 236 309.2 261.3 314.5 284.7C317.8 299.5 322.6 314.1 327.3 328.2C335 351.4 342.9 375.5 344.2 400.9L343.2 400.8Z" fill="white"/>
<path d="M316.8 400.8C312.5 372.3 299 346.8 285.9 322.2C278 307.3 269.8 291.9 263.7 275.8C254.2 251.1 254.9 223.8 255.6 197.4C255.8 190.8 255.9 183.9 255.9 177.3C255.9 170.5 255.5 163.3 255.2 155.6C254.1 133.4 252.8 108.3 261.2 89.3C267.5 74.9 277.4 63.5 287 52.4C300.4 36.9 313.1 22.3 316.8 0.400024L317.8 0.600025C314 22.8 300.6 38.2 287.7 53.1C278.1 64.1 268.3 75.5 262.1 89.8C253.9 108.7 255.1 133.6 256.2 155.7C256.6 163.3 256.9 170.6 256.9 177.4C256.9 184 256.7 190.9 256.6 197.5C255.9 223.8 255.3 251 264.6 275.5C270.7 291.5 278.9 306.9 286.8 321.8C299.9 346.5 313.4 372 317.8 400.7L316.8 400.8Z" fill="white"/>
<path d="M290.4 400.9C283.6 369.5 265.3 342.8 247.6 317C237 301.4 225.9 285.4 217.5 268.4C204.9 243 205.6 214.8 206.2 187.5C206.4 181.3 206.5 174.9 206.5 168.7C206.5 162.5 206.1 155.7 205.7 148.5C204.4 125.3 202.8 98.9 214 81.5C223 67.4 236.3 57.9 249.3 48.8C267.3 36.1 284.3 24 290.4 0.599976L291.4 0.899975C285.2 24.7 267.3 37.4 249.9 49.7C237 58.8 223.7 68.2 214.9 82.1C204 99.3 205.5 125.5 206.8 148.6C207.2 155.8 207.6 162.6 207.6 168.8C207.6 175.1 207.4 181.5 207.3 187.7C206.6 214.9 205.9 243 218.5 268.2C226.9 285.1 237.9 301.2 248.5 316.7C266.2 342.6 284.6 369.4 291.5 401L290.4 400.9Z" fill="white"/>
<path d="M264 400.9C257.5 367.8 236.4 340.5 215.9 314.1C203.7 298.4 191.1 282.1 181.8 264.8C168.5 240.2 169.4 211.8 170.2 184.5C170.4 178.1 170.6 171.4 170.6 164.9C170.6 158.9 170.2 152 169.7 144.7C168.2 120.9 166.4 93.9 178 77.6C188 63.5 203.2 55.3 218 47.3C238.7 36.1 258.3 25.6 264.1 0.400024L265.1 0.600025C259.2 26.2 238.5 37.4 218.5 48.2C203.8 56.1 188.7 64.3 178.8 78.2C167.5 94.2 169.2 121 170.7 144.6C171.2 151.9 171.6 158.8 171.6 164.8C171.6 171.3 171.4 177.9 171.2 184.4C170.4 211.7 169.6 239.8 182.7 264.2C192 281.4 204.6 297.7 216.7 313.4C237.2 339.9 258.4 367.3 264.9 400.6L264 400.9Z" fill="white"/>
<path d="M237.6 400.9C231.1 367.8 210 340.5 189.5 314.1C177.3 298.4 164.7 282.1 155.4 264.8C142.1 240.2 143 211.8 143.8 184.5C144 178.1 144.2 171.4 144.2 164.9C144.2 158.9 143.8 152 143.3 144.7C141.8 120.9 140 93.9 151.6 77.6C161.6 63.5 176.8 55.3 191.6 47.3C212.3 36.1 231.8 25.6 237.7 0.400024L238.7 0.600025C232.8 26.2 212.1 37.4 192.1 48.2C177.4 56.1 162.3 64.3 152.4 78.2C141.1 94.2 142.8 121 144.3 144.6C144.8 151.9 145.2 158.8 145.2 164.8C145.2 171.3 145 177.9 144.8 184.4C144 211.7 143.2 239.8 156.3 264.2C165.6 281.4 178.2 297.7 190.3 313.4C210.8 339.9 232 367.3 238.5 400.6L237.6 400.9Z" fill="white"/>
<path d="M211.2 400.9C204.7 367.8 183.6 340.5 163.1 314.1C150.9 298.4 138.3 282.1 129 264.8C115.7 240.2 116.6 211.8 117.4 184.5C117.6 178.1 117.8 171.4 117.8 164.9C117.8 158.9 117.4 152 116.9 144.7C115.4 120.9 113.6 93.9 125.2 77.6C135.2 63.5 150.4 55.3 165.2 47.3C185.9 36.1 205.5 25.6 211.3 0.400024L212.3 0.600025C206.3 26.3 185.6 37.5 165.6 48.2C150.9 56.1 135.8 64.3 125.9 78.2C114.6 94.2 116.3 121 117.8 144.6C118.3 151.9 118.7 158.8 118.7 164.8C118.7 171.3 118.5 177.9 118.3 184.4C117.5 211.7 116.7 239.8 129.8 264.2C139.1 281.4 151.7 297.7 163.8 313.4C184.3 339.9 205.5 367.3 212 400.6L211.2 400.9Z" fill="white"/>
<path d="M184.8 400.9C178.3 367.8 157.2 340.5 136.7 314.1C124.5 298.4 111.9 282.1 102.6 264.8C89.2999 240.2 90.1999 211.8 90.9999 184.5C91.1999 178.1 91.3999 171.4 91.3999 164.9C91.3999 158.9 90.9999 152 90.4999 144.7C88.9999 120.9 87.1999 93.9 98.7999 77.6C108.8 63.5 124 55.3 138.8 47.3C159.5 36.1 179 25.6 184.9 0.400024L185.9 0.600025C180 26.2 159.3 37.4 139.3 48.2C124.6 56.1 109.5 64.3 99.5999 78.2C88.2999 94.2 89.9999 121 91.4999 144.6C91.9999 151.9 92.3999 158.8 92.3999 164.8C92.3999 171.3 92.1999 177.9 91.9999 184.4C91.1999 211.7 90.3999 239.8 103.5 264.2C112.8 281.4 125.4 297.7 137.5 313.4C158 339.9 179.2 367.3 185.7 400.6L184.8 400.9Z" fill="white"/>
<path d="M158.4 400.9C151.9 367.8 130.8 340.5 110.3 314.1C98.1 298.4 85.5 282.1 76.2 264.8C62.9 240.2 63.8 211.8 64.6 184.5C64.8 178.1 65 171.4 65 164.9C65 158.9 64.6 152 64.1 144.7C62.6 120.9 60.8 93.9 72.4 77.6C82.4 63.5 97.6 55.3 112.4 47.3C133.1 36.1 152.7 25.6 158.5 0.400024L159.5 0.600025C153.6 26.2 132.9 37.4 112.9 48.2C98.2 56.1 83.1 64.3 73.2 78.2C61.9 94.2 63.6 121 65.1 144.6C65.6 151.9 66 158.8 66 164.8C66 171.3 65.8 177.9 65.6 184.4C64.8 211.7 64 239.8 77.1 264.2C86.4 281.4 99 297.7 111.1 313.4C131.6 339.9 152.8 367.3 159.3 400.6L158.4 400.9Z" fill="white"/>
<path d="M132 400.9C125.5 367.8 104.4 340.5 83.9001 314.1C71.7001 298.4 59.1001 282.1 49.8001 264.8C36.5001 240.2 37.4001 211.8 38.2001 184.5C38.4001 178.1 38.6001 171.4 38.6001 164.9C38.6001 158.9 38.2001 152 37.7001 144.7C36.2001 120.9 34.4001 93.9 46.0001 77.6C56.0001 63.5 71.2001 55.3 86.0001 47.3C106.7 36.1 126.2 25.6 132.1 0.400024L133.1 0.600025C127.2 26.2 106.5 37.4 86.5001 48.2C71.8001 56.1 56.7001 64.3 46.8001 78.2C35.5001 94.2 37.2001 121 38.7001 144.6C39.2001 151.9 39.6001 158.8 39.6001 164.8C39.6001 171.3 39.4001 177.9 39.2001 184.4C38.4001 211.7 37.6001 239.8 50.7001 264.2C60.0001 281.4 72.6001 297.7 84.7001 313.4C105.2 339.9 126.4 367.3 132.9 400.6L132 400.9Z" fill="white"/>
<path d="M105.6 400.9C98.8 369.5 80.5 342.8 62.8 317C52.2 301.4 41.1 285.4 32.7 268.4C20.1 243 20.8 214.8 21.4 187.5C21.6 181.3 21.7 174.9 21.7 168.7C21.7 162.5 21.3 155.7 20.9 148.5C19.6 125.3 18 98.9 29.2 81.5C38.2 67.4 51.5 57.9 64.5 48.8C82.5 36.1 99.5 24 105.6 0.599976L106.6 0.899975C100.4 24.7 82.5 37.4 65.1 49.7C52.2 58.8 38.9 68.2 30.1 82.1C19.2 99.3 20.7 125.5 22 148.6C22.4 155.8 22.8 162.6 22.8 168.8C22.8 175.1 22.6 181.5 22.5 187.7C21.8 214.9 21.1 243 33.7 268.2C42.1 285.1 53.1 301.2 63.7 316.7C81.4 342.6 99.8 369.4 106.7 401L105.6 400.9Z" fill="white"/>
<path d="M79.2001 400.8C74.9001 372.3 61.4001 346.8 48.3001 322.2C40.4001 307.3 32.2001 291.9 26.1001 275.8C16.7001 251.1 17.3001 223.8 18.0001 197.4C18.2001 190.8 18.3001 183.9 18.3001 177.3C18.3001 170.5 17.9001 163.3 17.6001 155.6C16.5001 133.4 15.2001 108.3 23.6001 89.3C29.9001 74.9 39.8001 63.5 49.4001 52.4C62.8001 36.9 75.5001 22.3 79.2001 0.400024L80.2001 0.600025C76.4001 22.8 63.0001 38.2 50.1001 53.1C40.5001 64.1 30.7001 75.5 24.5001 89.8C16.3001 108.7 17.5001 133.6 18.6001 155.7C19.0001 163.3 19.3001 170.6 19.3001 177.4C19.3001 184 19.1001 190.9 19.0001 197.5C18.3001 223.8 17.7001 251 27.0001 275.5C33.1001 291.5 41.3001 306.9 49.2001 321.8C62.3001 346.5 75.8001 372 80.2001 400.7L79.2001 400.8Z" fill="white"/>
<path d="M52.9001 400.8C51.6001 375.5 43.7001 351.5 36.0001 328.3C31.3001 314.2 26.5001 299.6 23.2001 284.7C17.9001 261.2 18.6001 235.9 19.2001 211.4C19.4001 203.7 19.6001 195.7 19.6001 187.9C19.6001 179.9 19.3001 171.5 19.0001 163.4C18.2001 141.7 17.4001 119.3 21.8001 98.8C24.9001 84.1 30.8001 70.4 36.4001 57.3C44.0001 39.6 51.8001 21.3 52.9001 0.5L53.9001 0.600002C52.8001 21.6 44.9001 40 37.3001 57.8C31.7001 70.9 25.9001 84.5 22.8001 99.2C18.5001 119.5 19.3001 141.9 20.0001 163.5C20.3001 171.6 20.6001 180 20.6001 188C20.6001 195.7 20.4001 203.8 20.2001 211.6C19.6001 236 18.9001 261.3 24.2001 284.7C27.5001 299.5 32.3001 314.1 37.0001 328.2C44.7001 351.4 52.6001 375.5 53.9001 400.9L52.9001 400.8Z" fill="white"/>
<path d="M27.5002 400.8H26.5002C27.1002 378 24.1002 355.3 21.3002 333.4C19.6002 320 17.8002 306.2 16.8002 292.4C15.2002 270.7 15.7002 248.3 16.1002 226.7C16.3002 216.9 16.5002 206.8 16.5002 196.9C16.5002 186.9 16.3002 176.6 16.1002 166.6C15.8002 147 15.4002 126.8 16.4002 107C17.2002 91.8 19.3002 76.5 21.3002 61.8C24.1002 41.9 27.0002 21.3 26.5002 0.599976H27.5002C28.0002 21.4 25.1002 42 22.3002 62C20.2002 76.7 18.1002 91.9 17.4002 107.1C16.4002 126.8 16.8002 147 17.1002 166.6C17.3002 176.5 17.5002 186.8 17.5002 196.9C17.5002 206.8 17.3002 216.9 17.1002 226.7C16.7002 248.3 16.3002 270.7 17.8002 292.3C18.8002 306 20.6002 319.8 22.3002 333.2C25.1002 355.2 28.0002 378 27.5002 400.8Z" fill="white"/>
</svg>
