<svg width="398" height="402" viewBox="0 0 398 402" fill="none" xmlns="http://www.w3.org/2000/svg">
<path d="M396.658 401.3H0.158446V400.8C-0.141554 334.1 0.0584459 266.2 0.158446 200.6C0.258446 135 0.458446 67.2 0.158446 0.5V0H397.058V0.5C397.358 67.3 397.158 135.1 397.058 200.8C396.958 266.3 396.758 334.1 397.058 400.7V401.2H396.658V401.3ZM1.15845 400.3H396.058C395.758 333.8 395.958 266.2 396.058 200.9C396.158 135.4 396.358 67.7 396.058 1.1H1.15845C1.45845 67.6 1.25845 135.2 1.15845 200.7C1.05845 266.1 0.958446 333.8 1.15845 400.3Z" fill="white"/>
<path d="M396.658 26.7998H0.758423V27.7998H396.658V26.7998Z" fill="white"/>
<path d="M132.858 54.5H0.858398V53.5H396.758V54.5H132.858Z" fill="white"/>
<path d="M396.859 80.1001H0.958496V81.1001H396.859V80.1001Z" fill="white"/>
<path d="M396.859 106.8H0.958496V107.8H396.859V106.8Z" fill="white"/>
<path d="M241.258 134.5C183.158 134.5 124.958 134.5 66.8584 134.5H0.858398V133.5H66.8584C176.858 133.5 286.858 133.5 396.758 133.5V134.5C344.958 134.5 293.158 134.5 241.258 134.5Z" fill="white"/>
<path d="M132.858 161.2H0.858398V160.2H396.758V161.2H132.858Z" fill="white"/>
<path d="M396.658 186.9H0.758423V187.9H396.658V186.9Z" fill="white"/>
<path d="M396.558 213.5H0.658447V214.5H396.558V213.5Z" fill="white"/>
<path d="M396.458 240.2H0.558472V241.2H396.458V240.2Z" fill="white"/>
<path d="M396.359 267.9C264.359 267.9 132.458 267.9 0.458496 267.9V266.9C132.458 266.9 264.359 266.9 396.359 266.9V267.9Z" fill="white"/>
<path d="M396.359 293.6H0.458496V294.6H396.359V293.6Z" fill="white"/>
<path d="M396.359 320.3H0.458496V321.3H396.359V320.3Z" fill="white"/>
<path d="M396.458 346.9H0.558472V347.9H396.458V346.9Z" fill="white"/>
<path d="M396.458 373.6H0.558472V374.6H396.458V373.6Z" fill="white"/>
<path d="M369.658 400.9C356.158 339 356.158 277.3 369.758 200.6C383.358 124.1 383.358 62.4 369.858 0.700001L370.858 0.5C384.358 62.4 384.358 124.1 370.758 200.8C357.158 277.3 357.158 339 370.658 400.7L369.658 400.9Z" fill="white"/>
<path d="M343.158 401C328.558 366.4 321.558 331.2 321.858 293.2C322.058 264.6 331.058 237.5 339.758 211.4C340.958 207.8 342.158 204.2 343.358 200.5C344.858 196 346.358 191.4 347.858 186.9C355.858 163.3 364.158 138.8 364.658 113.4C365.458 73.1998 358.558 36.2998 343.558 0.699806L344.458 0.299805C359.558 36.0998 366.458 73.0998 365.658 113.4C365.158 138.9 356.858 163.5 348.758 187.2C347.258 191.6 345.658 196.2 344.258 200.7C343.058 204.3 341.858 208 340.658 211.6C331.558 238.9 322.958 264.6 322.758 293.1C322.558 330.9 329.458 366 343.958 400.5L343.158 401Z" fill="white"/>
<path d="M316.658 401.1C295.858 367.3 286.058 332.9 286.558 295.9C287.058 265.1 299.158 239 311.958 211.3C313.658 207.7 315.258 204.1 316.958 200.5C318.858 196.3 320.858 192 322.858 187.9C334.258 163.6 346.058 138.4 347.058 110.8C348.458 71.6999 338.758 35.7999 317.358 0.899902L318.258 0.399902C339.758 35.3999 349.558 71.5999 348.158 110.9C347.158 138.7 335.258 164 323.858 188.4C321.958 192.5 319.958 196.8 317.958 201C316.358 204.6 314.658 208.2 312.958 211.8C300.158 239.4 288.058 265.4 287.658 296C287.158 332.8 296.858 367 317.558 400.6L316.658 401.1Z" fill="white"/>
<path d="M290.258 401.1C262.458 366.3 250.658 332 252.858 293.2C254.658 263.3 269.458 237.5 283.758 212.5C286.058 208.5 288.358 204.5 290.658 200.4C293.158 196 295.758 191.4 298.358 187C311.858 163.8 325.758 139.8 327.958 113.2C331.358 72.9998 319.358 36.2998 291.158 0.899807L291.958 0.299805C320.358 35.8998 332.458 72.8998 328.958 113.3C326.658 140.1 312.658 164.2 299.158 187.5C296.558 191.9 293.958 196.5 291.458 200.9C289.158 204.9 286.858 209 284.558 213C270.258 237.9 255.558 263.6 253.758 293.3C251.458 331.8 263.258 365.9 290.858 400.5L290.258 401.1Z" fill="white"/>
<path d="M263.758 401.2C230.058 366.5 216.258 332.2 220.158 293.2C223.158 263 240.058 237.4 256.258 212.6C258.858 208.6 261.558 204.5 264.158 200.4C266.858 196.1 269.758 191.8 272.558 187.6C287.858 164.4 303.758 140.4 307.458 112.9C312.958 72.2002 299.358 36.6002 264.758 0.900196L265.458 0.200195C300.258 36.1002 313.958 71.9002 308.358 113C304.658 140.7 288.658 164.8 273.358 188.1C270.558 192.3 267.758 196.7 264.958 200.9C262.358 205 259.658 209.1 257.058 213.1C240.858 237.8 224.058 263.3 221.058 293.2C217.158 331.9 230.958 365.9 264.358 400.4L263.758 401.2Z" fill="white"/>
<path d="M237.258 401.2C198.758 367.1 183.158 333.6 188.358 295.6C192.658 263.9 211.658 237.2 229.958 211.5C232.558 207.9 235.258 204.1 237.758 200.4C240.358 196.6 243.158 192.8 245.758 189C263.058 164.8 280.958 139.7 286.158 110.4C293.158 70.7001 278.058 35.9001 238.458 0.900097L239.158 0.100098C279.058 35.3001 294.258 70.4001 287.158 110.5C281.958 140 263.958 165.2 246.658 189.6C243.958 193.3 241.258 197.2 238.658 200.9C236.058 204.6 233.458 208.3 230.858 212C212.658 237.6 193.758 264.1 189.458 295.6C184.358 333.2 199.758 366.5 237.958 400.3L237.258 401.2Z" fill="white"/>
<path d="M210.858 401.2C190.158 385.1 175.958 369.5 167.258 353.5C156.558 333.8 153.958 313.3 159.258 290.9C166.458 261.1 185.458 235.5 203.858 210.7C206.458 207.3 208.958 203.8 211.458 200.4C213.858 197.1 216.258 193.9 218.658 190.6C237.058 165.8 256.058 140.1 263.458 110.3C268.958 88.2002 266.358 68.0002 255.658 48.4002C246.958 32.5002 232.758 17.0002 212.258 1.00019L212.858 0.200195C233.558 16.3002 247.858 31.9002 256.558 47.9002C267.358 67.7002 269.958 88.2002 264.458 110.5C257.058 140.5 237.958 166.3 219.458 191.2C217.058 194.5 214.558 197.7 212.258 201C209.758 204.4 207.258 207.8 204.658 211.3C186.258 236 167.358 261.5 160.158 291.1C154.858 313.2 157.358 333.5 168.058 353C176.658 368.9 190.858 384.4 211.458 400.4L210.858 401.2Z" fill="white"/>
<path d="M184.458 401.2C163.758 385.1 149.558 369.5 140.858 353.5C130.158 333.8 127.558 313.3 132.858 290.9C140.058 261.1 159.058 235.5 177.458 210.7C180.058 207.3 182.558 203.8 185.058 200.4C187.458 197.2 189.858 193.9 192.258 190.6C210.659 165.8 229.658 140.1 237.058 110.3C242.558 88.2002 239.958 68.0002 229.258 48.4002C220.559 32.5002 206.358 17.0002 185.858 1.00019L186.458 0.200195C207.158 16.3002 221.458 31.9002 230.158 47.9002C240.958 67.7002 243.558 88.2002 238.058 110.5C230.658 140.5 211.558 166.3 193.058 191.2C190.658 194.5 188.158 197.7 185.858 201C183.358 204.4 180.858 207.8 178.258 211.3C159.858 236 140.958 261.5 133.758 291.1C128.458 313.2 130.958 333.5 141.658 353C150.258 368.9 164.458 384.4 185.058 400.4L184.458 401.2Z" fill="white"/>
<path d="M158.158 401.2C119.658 367.1 104.058 333.6 109.258 295.6C113.558 263.9 132.558 237.2 150.858 211.5C153.458 207.9 156.158 204.1 158.658 200.4C161.258 196.6 164.058 192.8 166.658 189C183.958 164.8 201.858 139.7 207.058 110.4C214.058 70.7001 198.958 35.9001 159.358 0.900097L160.058 0.100098C199.958 35.3001 215.158 70.4001 208.058 110.5C202.858 140 184.858 165.2 167.558 189.6C164.858 193.3 162.158 197.2 159.558 200.9C156.958 204.6 154.358 208.3 151.758 212C133.558 237.6 114.658 264.1 110.358 295.6C105.258 333.2 120.658 366.5 158.858 400.3L158.158 401.2Z" fill="white"/>
<path d="M131.758 401.2C98.0584 366.5 84.2584 332.2 88.1584 293.2C91.1584 263 108.058 237.4 124.258 212.6C126.858 208.6 129.558 204.5 132.158 200.4C134.858 196.1 137.758 191.8 140.558 187.6C155.858 164.4 171.758 140.4 175.458 112.9C180.958 72.2002 167.358 36.6002 132.758 0.900196L133.458 0.200195C168.258 36.1002 181.958 71.9002 176.358 113C172.658 140.7 156.758 164.8 141.358 188.1C138.558 192.3 135.758 196.7 132.958 200.9C130.358 205 127.658 209.1 125.058 213.1C108.858 237.8 92.0584 263.3 89.0584 293.2C85.1584 331.9 98.9584 365.9 132.358 400.4L131.758 401.2Z" fill="white"/>
<path d="M105.458 401.1C77.6585 366.3 65.8585 332 68.0585 293.2C69.8585 263.3 84.6585 237.5 98.9585 212.5C101.258 208.5 103.558 204.5 105.858 200.4C108.358 196 110.958 191.4 113.558 187C127.058 163.8 140.958 139.8 143.158 113.2C146.558 72.9998 134.558 36.2998 106.358 0.899807L107.158 0.299805C135.558 35.8998 147.658 72.8998 144.158 113.3C141.858 140.1 127.858 164.2 114.358 187.5C111.758 191.9 109.158 196.5 106.658 200.9C104.358 204.9 102.058 209 99.7585 213C85.4585 237.9 70.7585 263.7 68.9585 293.3C66.6585 331.8 78.4585 365.9 106.058 400.5L105.458 401.1Z" fill="white"/>
<path d="M79.1585 401.1C58.3585 367.3 48.5585 332.9 49.0585 295.9C49.5585 265.1 61.6585 239 74.4585 211.3C76.1585 207.7 77.7585 204.1 79.4585 200.5C81.3585 196.3 83.3585 192 85.3585 187.9C96.7585 163.6 108.558 138.4 109.558 110.8C110.958 71.6999 101.258 35.7999 79.8585 0.899902L80.7585 0.399902C102.258 35.3999 112.058 71.5999 110.658 110.9C109.658 138.7 97.7585 164 86.3585 188.4C84.4585 192.5 82.4585 196.8 80.4585 201C78.8585 204.6 77.1585 208.2 75.4585 211.8C62.6585 239.4 50.5585 265.4 50.1585 296C49.6585 332.8 59.3585 367 80.0585 400.6L79.1585 401.1Z" fill="white"/>
<path d="M52.7585 401C38.1585 366.4 31.1585 331.2 31.4585 293.2C31.6585 264.6 40.6585 237.5 49.3585 211.4C50.5585 207.8 51.7585 204.2 52.9585 200.5C54.4585 196 55.9585 191.4 57.4585 186.9C65.4585 163.3 73.7585 138.8 74.2585 113.4C75.0585 73.1998 68.1585 36.2998 53.1585 0.699806L54.0585 0.299805C69.1585 36.0998 76.0585 73.0998 75.2585 113.4C74.7585 138.9 66.4585 163.5 58.3585 187.2C56.8585 191.6 55.2585 196.2 53.8585 200.7C52.6585 204.3 51.4585 208 50.2585 211.6C41.1585 238.9 32.5585 264.6 32.3585 293.1C32.1585 330.9 39.0585 366 53.5585 400.5L52.7585 401Z" fill="white"/>
<path d="M26.4585 400.9C12.9585 339 12.9585 277.3 26.5585 200.6C40.1585 124.1 40.1585 62.4 26.7585 0.700001L27.7585 0.5C41.2585 62.4 41.2585 124.1 27.6585 200.8C14.0585 277.3 13.9585 339 27.4585 400.7L26.4585 400.9Z" fill="white"/>
</svg>
