<svg width="470" height="334" viewBox="0 0 470 334" fill="none" xmlns="http://www.w3.org/2000/svg">
<path d="M127.8 64.6283C117.1 64.6283 106.4 64.6283 95.9 64.6283C81.3 64.6283 66.7 64.6283 52 64.6283V63.6283C66.6 63.6283 81.2 63.6283 95.9 63.6283C114 63.6283 132.7 63.6283 151.1 63.6283C185.7 63.5284 205.1 50.3283 230.8 30.1283L232.4 28.8283C256.8 9.82835 281.9 -9.87166 313.6 5.52834C327.5 12.3283 339.5 21.9283 351.1 31.2283C369.3 45.8283 386.4 59.6283 410.4 63.5283L410.2 64.5283C385.9 60.5283 367.9 46.0283 350.4 32.0283C338.8 22.7283 326.9 13.1283 313.1 6.42835C281.9 -8.77165 257.1 10.7283 233.1 29.6283L231.5 30.9283C205.6 51.2283 186.1 64.5284 151.2 64.6283C143.4 64.6283 135.6 64.6283 127.8 64.6283Z" fill="white"/>
<path d="M149.8 72.5283C149.2 72.5283 148.6 72.5283 148 72.5283C134.8 72.3283 121.4 71.8283 108.5 71.4283C89.3 70.7283 69.5 70.0283 50 70.3283V69.3283C69.6 69.0283 89.4 69.7283 108.6 70.4283C121.5 70.9283 134.9 71.4283 148.1 71.5283C182.5 71.9283 202.3 61.1283 231.3 38.1283C256.5 18.1283 282.5 -2.47168 317.3 15.3283C329.8 21.7283 341.1 30.0283 352.1 38.0283C370.9 51.8283 388.7 64.9283 412.5 69.4283L412.3 70.4283C388.3 65.9283 369.6 52.1283 351.5 38.8283C340.6 30.8283 329.3 22.5283 316.9 16.1283C282.7 -1.37169 256.9 19.1283 232 38.8283C220.1 48.2283 207.2 57.8283 193.2 63.9283C179.9 69.8283 166.1 72.5283 149.8 72.5283Z" fill="white"/>
<path d="M155.4 83.4282C153.2 83.4282 151 83.3282 148.6 83.2282C135.2 82.5282 121.6 81.2282 108.5 79.9282C88.6998 78.0282 68.1998 76.0282 47.7998 76.1282V75.1282C68.1998 75.0282 88.6998 77.0282 108.6 78.9282C121.7 80.2282 135.3 81.5282 148.7 82.2282C182.5 83.9282 203.3 72.6282 232.1 49.7282C245.3 39.2282 258.2 29.4282 271.9 24.3282C287.3 18.6282 301.8 19.2282 317.7 26.5282C330.3 32.3282 342 39.7282 353.2 46.9282C372.6 59.3282 390.9 71.0282 414.2 75.3282L414 76.3282C390.5 72.0282 371.3 59.7282 352.6 47.8282C341.4 40.6282 329.8 33.2282 317.2 27.5282C284.5 12.5282 261.5 27.6282 232.7 50.6282C205.7 72.1282 185.6 83.4282 155.4 83.4282Z" fill="white"/>
<path d="M161.5 96.8285C157.8 96.8285 154 96.6285 150 96.2285C136 94.7285 122 92.3285 108.4 90.0285C88.0002 86.5285 66.9002 82.9285 45.7002 82.4285V81.4285C67.0002 81.9285 88.2002 85.5285 108.6 89.0285C122.2 91.3285 136.2 93.7285 150.1 95.2285C186.8 99.1285 208.7 84.2285 233.5 64.2285C260.4 42.6285 283.8 27.0285 318.2 40.2285C330.9 45.0285 342.8 51.3285 354.4 57.4285C374.4 67.9285 393.4 77.9285 416.2 81.4285L416 82.4285C393 78.9285 373.2 68.4285 353.9 58.3285C342.4 52.2285 330.4 46.0285 317.8 41.1285C283.9 28.1285 260.8 43.5285 234.1 65.0285C211.8 82.9285 191.9 96.8285 161.5 96.8285Z" fill="white"/>
<path d="M167.9 111.728C161.9 111.728 155.6 111.128 148.7 109.828C135.3 107.428 122 104.028 109.2 100.828C88 95.5282 66 89.9282 43.5 88.6282L43.6 87.6282C66.2 89.0282 88.2 94.5282 109.5 99.9282C122.3 103.128 135.6 106.528 149 108.928C184.4 115.328 205 104.828 235.3 80.5282C260.3 60.4282 282.2 45.7282 315.9 54.8282C329.9 58.6282 343.3 64.0282 356.3 69.2282C375.9 77.1282 396.1 85.2282 418.2 87.7282L418.1 88.7282C395.9 86.3282 375.6 78.1282 355.9 70.2282C342.9 65.0282 329.5 59.6282 315.6 55.8282C282.3 46.8282 260.7 61.4282 235.9 81.3282C211.1 101.028 192.8 111.728 167.9 111.728Z" fill="white"/>
<path d="M173.2 127.328C166.2 127.328 158.7 126.328 150.4 124.328C136.4 120.928 122.6 116.328 109.3 111.928C87.4001 104.728 64.8001 97.2281 41.1001 94.8281L41.2001 93.8281C65.0001 96.2281 87.7001 103.728 109.6 110.928C122.9 115.328 136.7 119.928 150.6 123.228C186 131.828 206.6 121.628 236.8 97.1281C263.5 75.3281 284.1 64.7281 316.1 70.6281C330.1 73.2281 343.8 77.0281 357.1 80.8281C377.3 86.5281 398.1 92.3281 419.9 93.7281L419.8 94.7281C397.9 93.3281 377 87.5281 356.8 81.8281C343.5 78.1281 329.8 74.2281 315.9 71.6281C284.2 65.7281 263.9 76.3281 237.4 97.9281C214.7 116.728 196.6 127.328 173.2 127.328Z" fill="white"/>
<path d="M177 140.328C169.3 140.328 161 139.028 151.7 136.428C137.2 132.328 123.1 126.828 109.4 121.528C87 112.828 63.8 103.928 39 100.928L39.1 99.9284C64 102.928 87.3 111.928 109.7 120.528C123.4 125.828 137.5 131.228 151.9 135.328C187.4 145.428 208.9 134.928 238.2 110.728C252.6 98.9284 263.4 92.0284 274.3 87.9284C287 83.1284 300.4 81.8284 316.6 83.8284C330.6 85.6284 344.7 88.2284 358.2 90.8284C378.9 94.7284 400.2 98.8284 421.9 99.7284V100.728C400.2 99.8284 378.8 95.7284 358.1 91.8284C344.5 89.2284 330.5 86.6284 316.5 84.8284C283.6 80.6284 263.8 91.0284 238.9 111.528C216.9 129.828 199.3 140.328 177 140.328Z" fill="white"/>
<path d="M180.8 154.228C173.4 154.228 165.3 153.028 156.4 150.328C139.9 145.328 124 138.228 108.6 131.328C85.8999 121.128 62.3999 110.628 36.8999 107.028L36.9999 106.028C62.6999 109.728 86.1999 120.228 109 130.428C124.4 137.328 140.2 144.428 156.7 149.428C193.6 160.628 215.3 146.028 239.8 125.728C263.1 106.428 281.9 96.3284 314.5 98.0284C329.8 98.8284 345.2 100.328 360.1 101.728C380.9 103.728 402.5 105.728 423.9 106.028V107.028C402.5 106.828 380.9 104.728 360.1 102.728C345.2 101.328 329.8 99.8284 314.5 99.0284C282.1 97.3284 264.1 106.928 240.5 126.528C221.5 142.028 204.4 154.228 180.8 154.228Z" fill="white"/>
<path d="M183 166.928C175 166.928 166.3 165.428 156.7 162.128C139.8 156.428 123.6 148.428 108 140.628C84.9001 129.128 61.1001 117.228 34.6001 113.028L34.8001 112.028C61.4001 116.228 85.4001 128.128 108.5 139.728C124.1 147.528 140.2 155.528 157 161.228C191 172.628 211.8 162.628 240.6 138.828C266.1 117.828 284.1 110.928 314.3 110.928C314.6 110.928 314.8 110.928 315.1 110.928C330.5 111.028 346.2 111.228 361.4 111.428C382.5 111.728 404.3 112.028 425.8 111.928V112.928C404.3 113.028 382.5 112.728 361.4 112.428C346.2 112.228 330.6 112.028 315.1 111.928C284.7 111.828 266.8 118.528 241.3 139.528C220.3 156.928 203.5 166.928 183 166.928Z" fill="white"/>
<path d="M182.9 173.428C174.3 173.428 165.2 171.928 155.3 168.628C138.4 162.928 122.1 155.028 106.4 147.428C83.0002 136.028 58.8002 124.328 32.2002 120.028L32.4002 119.028C59.2002 123.328 83.5002 135.128 106.9 146.528C122.6 154.128 138.8 162.028 155.7 167.628C188.5 178.528 211.8 169.828 240.8 150.928C267 133.928 286.9 129.728 316.8 127.628C330.6 126.628 344.5 125.228 358 123.828C380.9 121.428 404.6 119.028 428.1 118.828V119.828C404.6 120.028 381 122.428 358.1 124.828C344.6 126.228 330.7 127.628 316.9 128.628C287.2 130.728 267.4 134.828 241.4 151.728C220.7 165.128 203 173.428 182.9 173.428Z" fill="white"/>
<path d="M185.6 176.428C173.9 176.428 162 174.628 149.3 170.428C134.1 165.428 119.3 158.928 105 152.628C81.1001 142.128 56.3001 131.328 29.6001 127.228L29.7001 126.228C56.6001 130.328 81.4001 141.128 105.4 151.628C119.7 157.928 134.5 164.328 149.6 169.328C181.7 179.928 208.9 175.128 240 164.528C256.6 158.928 273.2 156.928 289.3 154.928C299.8 153.628 310.6 152.328 321.5 150.028C334.4 147.328 347.3 143.628 359.7 140.128C382.4 133.728 405.8 127.028 430.3 125.928V126.928C405.9 128.028 382.6 134.728 360 141.128C347.6 144.628 334.7 148.328 321.7 151.028C310.7 153.328 299.9 154.628 289.4 155.928C272.7 157.928 256.9 159.828 240.3 165.428C221.3 172.128 203.7 176.428 185.6 176.428Z" fill="white"/>
<path d="M285.2 179.228C277.8 179.228 270.4 178.928 263.1 178.528C255 178.128 246.5 177.828 238.6 177.928C236.3 177.928 234.1 178.028 231.8 178.028C203.1 178.528 173.4 179.028 145.6 171.028C130.8 166.828 116.2 161.328 102 156.028C77.9999 147.028 53.1999 137.728 26.8999 134.428L26.9999 133.428C53.3999 136.728 78.2999 146.028 102.3 155.128C116.4 160.428 131 165.828 145.8 170.128C173.5 178.028 203.1 177.528 231.7 177.028C234 177.028 236.2 176.928 238.5 176.928C246.5 176.828 254.9 177.228 263.1 177.528C283.5 178.428 304.5 179.428 323.2 173.128C336.7 168.628 349.7 162.528 362.3 156.528C384.2 146.228 406.9 135.528 432.6 133.328L432.7 134.328C407.3 136.528 384.6 147.128 362.8 157.428C350.2 163.328 337.2 169.428 323.6 174.028C311.4 178.228 298.4 179.228 285.2 179.228Z" fill="white"/>
<path d="M297.4 205.628C280.2 205.628 263.1 199.828 246.3 194.128C243 193.028 239.7 191.928 236.4 190.828C223.6 186.628 210.4 182.328 197.1 179.028C187.9 176.728 178.4 175.728 169.2 174.728C161.1 173.828 152.7 173.028 144.5 171.228C128.9 167.828 113.5 163.228 98.5998 158.728C74.6998 151.528 49.9998 144.128 24.2998 141.928L24.3998 140.928C50.1998 143.128 74.8998 150.628 98.8998 157.828C113.8 162.328 129.2 166.928 144.8 170.228C153 172.028 161.3 172.828 169.4 173.728C178.6 174.728 188.2 175.728 197.5 178.028C210.8 181.328 224.1 185.628 236.9 189.828C240.2 190.928 243.5 192.028 246.8 193.128C271.5 201.528 297.1 210.228 322.2 199.828C338.3 193.128 352.8 183.228 366.7 173.528C387.2 159.328 408.4 144.728 435 140.828L435.1 141.828C408.8 145.728 387.7 160.228 367.3 174.328C353.3 184.028 338.8 194.028 322.6 200.728C314.1 204.228 305.8 205.628 297.4 205.628Z" fill="white"/>
<path d="M300.2 232.129C279.6 232.129 260.3 219.629 241.4 207.429C239 205.929 236.7 204.329 234.3 202.929L230.6 200.529C218.7 192.929 206.5 185.129 193.4 179.429C181.1 174.029 169.2 172.929 156.5 171.729C151.2 171.229 145.7 170.729 140.1 169.829C125 167.529 109.9 164.229 95.4001 161.029C71.5001 155.829 46.8001 150.329 21.6001 149.229V148.229C46.8001 149.429 71.6001 154.829 95.5001 160.129C110.1 163.329 125.1 166.629 140.2 168.929C145.8 169.829 151.2 170.329 156.5 170.829C169.2 172.029 181.2 173.229 193.7 178.629C206.9 184.329 219.2 192.229 231.1 199.829L234.8 202.229C237.1 203.729 239.5 205.229 241.9 206.829C267.6 223.429 294.3 240.729 323.6 225.429C340.5 216.629 354.7 203.629 368.5 191.029C388.3 172.929 408.8 154.229 437.1 148.429L437.3 149.429C409.3 155.229 388.9 173.829 369.2 191.829C355.4 204.429 341.1 217.529 324.1 226.329C316 230.329 308 232.129 300.2 232.129Z" fill="white"/>
<path d="M301.8 257.928C278.7 257.928 258.1 238.728 239.3 221.128C237 219.028 234.7 216.828 232.5 214.828L229.6 212.128C217.8 201.328 205.6 190.128 191.9 181.328C176.8 171.628 162.8 170.728 146.7 169.728C142.3 169.428 137.8 169.128 133.1 168.728C119.6 167.328 106.1 165.428 92.9001 163.628C68.8001 160.228 44.0001 156.728 19.1001 156.528V155.528C44.0001 155.828 69.0001 159.328 93.1001 162.628C106.2 164.428 119.8 166.328 133.2 167.728C137.9 168.228 142.4 168.528 146.7 168.728C163 169.728 177 170.628 192.4 180.528C206.2 189.328 218.4 200.628 230.3 211.428L233.2 214.128C235.4 216.228 237.7 218.328 240 220.428C265.7 244.428 294.8 271.528 328.7 247.628C343.6 237.128 356.4 222.828 368.7 208.928C388.7 186.528 409.4 163.328 439.6 155.628L439.8 156.628C409.9 164.228 389.3 187.328 369.4 209.628C357 223.528 344.2 237.828 329.2 248.428C319.7 255.128 310.5 257.928 301.8 257.928Z" fill="white"/>
<path d="M302.9 282.028C277.9 282.028 256.4 256.628 238.1 235.128C235.5 232.128 233.1 229.328 230.8 226.528C229.2 224.628 227.6 222.828 225.9 220.928C214.5 207.728 202.7 194.128 188.9 183.428C172.5 170.628 158 170.228 139.6 169.828C136.3 169.728 132.9 169.628 129.4 169.528C116.3 168.928 102.9 168.028 90.0998 167.128C65.9998 165.428 40.9998 163.728 16.2998 164.028V163.028C40.9998 162.728 65.9998 164.428 90.0998 166.128C103 167.028 116.3 167.928 129.4 168.528C132.9 168.728 136.3 168.828 139.6 168.828C158.2 169.328 172.8 169.728 189.5 182.628C203.4 193.428 215.2 207.128 226.6 220.228C228.2 222.128 229.8 224.028 231.5 225.828C233.9 228.528 236.3 231.428 238.9 234.428C263.4 263.328 293.9 299.228 330.3 270.228C345.6 258.028 358.2 241.228 370.4 225.028C389.9 199.128 410.1 172.228 441.8 163.028L442.1 164.028C410.8 173.228 390.7 199.828 371.2 225.728C358.9 242.028 346.3 258.828 330.9 271.128C321.2 278.828 311.8 282.028 302.9 282.028Z" fill="white"/>
<path d="M304.1 309.228C302.8 309.228 301.6 309.128 300.3 309.028C275.4 306.128 254.5 276.228 237.7 252.228C235 248.328 232.4 244.628 229.9 241.228C227.8 238.428 225.8 235.528 223.7 232.628C212.6 217.128 201.1 201.128 187.1 188.328C169.8 172.528 154.6 172.428 133.7 172.428C131.4 172.428 129.1 172.428 126.7 172.428C113.7 172.328 100.6 172.028 87.8001 171.828C63.5001 171.328 38.4001 170.828 13.6001 171.228V170.228C38.3001 169.828 63.5001 170.328 87.8001 170.828C100.5 171.028 113.7 171.328 126.7 171.428C129.1 171.428 131.4 171.428 133.7 171.428C154.1 171.428 170.2 171.528 187.8 187.628C201.9 200.528 213.4 216.528 224.5 232.128C226.6 235.028 228.6 237.928 230.7 240.728C233.2 244.128 235.8 247.828 238.5 251.728C255.2 275.628 275.9 305.328 300.4 308.128C311.1 309.328 321.8 305.228 332.2 295.828C348 281.628 360.4 261.928 372.5 243.028C391.4 213.228 411 182.428 444.1 170.628L444.4 171.528C411.7 183.228 392.2 213.928 373.3 243.528C361.2 262.528 348.7 282.228 332.8 296.628C323.5 304.928 313.8 309.228 304.1 309.228Z" fill="white"/>
<path d="M306.2 326.129C304.7 326.129 303.2 326.029 301.7 325.829C275.6 322.129 253.4 288.229 237.1 263.429C234.5 259.429 232.1 255.729 229.8 252.529C227.5 249.129 225.1 245.529 222.8 242.129C210.6 223.929 198 205.129 181.6 191.529C166.2 178.629 150 178.829 131.2 179.029H127.8C113 179.129 98.0002 179.429 83.5002 179.629C59.7002 180.029 35.0002 180.429 10.7002 180.329V179.329C35.0002 179.429 59.6002 179.029 83.4002 178.629C97.9002 178.329 112.9 178.129 127.7 178.029H131.1C150.1 177.829 166.5 177.629 182.1 190.729C198.6 204.429 211.2 223.329 223.5 241.529C225.8 244.929 228.2 248.529 230.5 251.929C232.7 255.229 235.2 258.929 237.8 262.929C253.9 287.529 276.1 321.329 301.7 324.929C311.6 326.329 321.3 322.929 330.6 314.929C348.9 299.229 362.2 276.629 375 254.829C393.4 223.629 412.4 191.429 446.4 178.329L446.8 179.229C413.2 192.229 394.2 224.229 375.9 255.329C363 277.229 349.7 299.829 331.3 315.629C323.3 322.629 314.9 326.129 306.2 326.129Z" fill="white"/>
<path d="M307.7 316.628C280.2 316.628 255.4 284.828 237.6 262.028C234.8 258.528 232.2 255.128 229.8 252.128C227.7 249.528 225.5 246.828 223.4 244.128C210.3 227.728 196.8 210.828 180.1 198.828C163.1 186.528 145 187.928 125.9 189.328C110.9 190.528 95.7001 192.228 81.1001 193.928C57.3001 196.628 32.6001 199.428 8.1001 199.928V198.928C32.6001 198.528 57.2001 195.728 81.0001 192.928C95.7001 191.228 110.8 189.528 125.8 188.328C145.1 186.828 163.3 185.428 180.6 197.928C197.4 210.028 211 227.028 224.1 243.428C226.2 246.128 228.4 248.728 230.5 251.428C232.9 254.428 235.6 257.828 238.3 261.328C249.8 276.128 264.1 294.528 280.1 305.628C298.6 318.528 315.4 318.928 331.4 306.828C349.6 293.028 363.6 273.228 377.1 254.128C396.5 226.728 416.6 198.328 449.4 187.328L449.7 188.228C417.2 199.128 397.2 227.328 377.9 254.628C364.3 273.828 350.3 293.628 332 307.528C323.9 313.928 315.7 316.628 307.7 316.628Z" fill="white"/>
<path d="M308.1 302.228C281.6 302.228 257.8 278.028 237.6 257.528C234.8 254.628 232.1 251.928 229.4 249.328C227.4 247.328 225.4 245.428 223.5 243.428C210 229.928 196.1 216.028 179.8 206.528C162.9 196.728 146.6 196.528 127.2 199.228C111.4 201.428 95.6 204.828 80.3 208.028C56.6 213.128 32.1 218.328 7 219.328V218.328C32 217.328 56.4 212.128 80.1 207.128C95.4 203.828 111.2 200.528 127.1 198.228C146.7 195.528 163.2 195.728 180.3 205.728C196.7 215.328 210.7 229.228 224.2 242.728C226.2 244.728 228.2 246.728 230.1 248.628C232.7 251.228 235.4 253.928 238.3 256.828C264.9 283.928 298.1 317.628 335 292.228C350.9 281.228 364.6 266.128 377.8 251.528C398.9 228.228 420.7 204.028 452.3 196.328L452.5 197.328C421.1 205.028 399.4 229.028 378.5 252.228C365.3 266.928 351.6 282.028 335.5 293.028C326.2 299.528 317 302.228 308.1 302.228Z" fill="white"/>
<path d="M308.8 288.828C282.6 288.828 258.5 269.928 236.6 252.828C234 250.828 231.5 248.828 229 246.928C196.5 221.928 168.4 200.328 125.7 209.428C109.8 212.828 94.2002 217.828 79.2002 222.728C56.0002 230.228 31.9002 238.028 6.3002 239.728L6.2002 238.728C31.6002 237.028 55.6002 229.328 78.8002 221.828C93.9002 216.928 109.5 211.928 125.4 208.528C168.5 199.428 198.1 222.128 229.5 246.228C232 248.128 234.5 250.128 237.1 252.128C266.1 274.828 298.9 300.428 335 281.028C351 272.428 365.3 260.328 379.2 248.628C401.5 229.828 424.6 210.328 455.1 205.328L455.3 206.328C425.1 211.328 402.1 230.728 379.8 249.428C365.9 261.128 351.6 273.228 335.4 281.928C326.5 286.728 317.5 288.828 308.8 288.828Z" fill="white"/>
<path d="M309.3 274.628C282.9 274.628 258.2 260.728 234.2 247.228C232.4 246.228 230.5 245.128 228.7 244.128C196.4 226.028 163 207.328 121.6 220.428C106.8 225.128 92.5999 231.528 78.7999 237.728C55.9999 248.028 32.4999 258.628 5.9999 261.328L5.8999 260.328C32.1999 257.628 55.6999 247.028 78.3999 236.828C92.1999 230.628 106.4 224.228 121.3 219.428C163.1 206.128 196.7 224.928 229.2 243.128C231 244.128 232.8 245.128 234.7 246.228C265.5 263.628 297.3 281.528 332.4 269.728C350.5 263.628 367 253.728 382.9 244.128C405.8 230.328 429.4 216.028 458.2 213.528L458.3 214.528C429.8 217.028 406.3 231.228 383.5 245.028C367.6 254.628 351.1 264.628 332.8 270.728C324.7 273.428 316.9 274.628 309.3 274.628Z" fill="white"/>
<path d="M5.39981 283.228L5.2998 282.228C32.4998 278.428 54.2998 265.728 77.3998 252.228C90.8998 244.328 104.8 236.228 119.7 230.128C156.5 215.228 192.3 228.128 226.9 240.628L231.6 242.328C264 254.028 297.4 266.128 332.5 258.828C350.5 255.028 367.6 248.428 384.1 242.028C408.3 232.628 433.2 222.928 460.8 222.428V223.428C433.4 223.928 408.5 233.628 384.4 243.028C367.8 249.428 350.7 256.128 332.6 259.928C297.3 267.328 263.7 255.128 231.2 243.428L226.5 241.728C192.1 229.328 156.4 216.428 120 231.228C105.1 237.328 91.1998 245.428 77.7998 253.228C55.7998 266.028 32.8998 279.428 5.39981 283.228Z" fill="white"/>
<path d="M4.49981 303.528L4.2998 302.528C32.5998 298.028 53.9998 282.828 76.6998 266.828C88.8998 258.128 101.6 249.228 115.4 242.128C148.7 225.128 185.1 232.528 220.3 239.628C222.9 240.128 225.5 240.628 228.1 241.228C261.1 247.728 298.4 255.228 335.8 250.428C351.7 248.428 367.5 245.028 382.8 241.828C408.9 236.328 436 230.728 463.7 231.328V232.328C436.1 231.628 409.1 237.328 383 242.728C367.7 245.928 351.8 249.228 335.9 251.328C298.4 256.128 261 248.728 227.9 242.128C225.3 241.628 222.7 241.128 220.1 240.528C185.1 233.428 148.8 226.128 115.9 242.928C102.2 249.928 89.4998 258.928 77.2998 267.528C54.4998 283.728 32.9998 298.928 4.49981 303.528Z" fill="white"/>
<path d="M2.8001 320.628L2.6001 319.628C32.0001 315.028 53.0001 298.028 75.3001 280.028C87.3001 270.328 99.8001 260.328 113.6 252.428C142.4 236.028 178.6 239.428 210.6 242.428C216.5 242.928 222 243.528 227.6 243.928C260.2 246.328 298.2 248.828 336 247.328C352 246.628 368.1 245.428 383.7 244.128C410.8 241.928 438.8 239.728 466.5 240.728V241.728C438.8 240.728 410.8 242.928 383.8 245.128C368.2 246.328 352 247.628 336 248.328C298.1 249.928 260.1 247.428 227.4 244.928C221.9 244.528 216.3 244.028 210.4 243.428C177 240.328 142.5 237.128 114 253.328C100.2 261.128 87.8001 271.128 75.8001 280.828C53.6001 298.928 32.5001 316.028 2.8001 320.628Z" fill="white"/>
<path d="M0.1 333.028L0 332.028C30.3 328.428 51 310.428 72.9 291.528C85.8 280.428 99.1 268.828 114.5 260.528C139.6 246.928 172.9 248.428 202.3 249.828C211.1 250.228 219.3 250.628 227.3 250.628C265.8 250.728 305 250.628 342.8 250.628C384.4 250.628 427.4 250.528 469.7 250.628V251.628C427.4 251.528 384.4 251.628 342.8 251.628C304.9 251.628 265.8 251.728 227.3 251.628C219.3 251.628 211 251.228 202.3 250.828C173.1 249.528 139.9 248.028 115.1 261.428C99.8 269.728 86.5 281.128 73.7 292.228C51.5 311.328 30.7 329.328 0.1 333.028Z" fill="white"/>
</svg>
