<svg width="485" height="233" viewBox="0 0 485 233" fill="none" xmlns="http://www.w3.org/2000/svg">
<path d="M425.6 1.21546C385.2 1.21546 344.8 1.21547 304.3 1.11547C226.6 1.01547 146.3 1.01547 67.2998 1.11547V0.11547C146.3 -0.0845299 226.6 0.0154701 304.3 0.11547C344.7 0.11547 385.1 0.215461 425.6 0.215461V1.21546Z" fill="white"/>
<path d="M209.3 10.1153C188.6 10.1153 168 9.11526 147.8 8.21526C120.8 7.01526 92.8002 5.71526 65.2002 6.71526V5.71526C92.9002 4.71526 120.9 6.01526 147.9 7.21526C180.1 8.71526 213.4 10.2153 246.5 7.91527C290.8 4.71527 336.1 5.21526 379.9 5.71526C395.5 5.91526 411.6 6.01526 427.5 6.01526V7.01526C411.7 7.01526 395.5 6.81526 379.9 6.71526C336.1 6.21526 290.8 5.81527 246.6 8.91527C234.2 9.81527 221.7 10.1153 209.3 10.1153Z" fill="white"/>
<path d="M182.5 28.4155C175.6 28.4155 168.7 28.0155 161.8 27.1155C149.6 25.5155 137.4 23.1155 125.6 20.7155C105.4 16.6155 84.5 12.3155 63 12.7155V11.7155C84.6 11.3155 105.5 15.6155 125.8 19.7155C137.5 22.1155 149.7 24.6155 161.9 26.1155C190.5 29.8155 218.4 24.9155 246.8 19.2155C293.2 9.81551 341.7 10.7155 388.6 11.5155C402 11.7155 415.8 12.0155 429.4 12.0155V13.0155C415.9 13.0155 402 12.8155 388.6 12.5155C341.8 11.7155 293.4 10.8155 247.1 20.2155C225.4 24.5155 204.1 28.4155 182.5 28.4155Z" fill="white"/>
<path d="M183.6 49.8155C176.4 49.8155 169.1 49.0155 161.5 47.1155C148.7 43.9155 136.3 39.3155 124.3 34.9155C104.2 27.5155 83.3998 19.8155 60.7998 18.8155V17.8155C83.5998 18.8155 104.4 26.5155 124.6 34.0155C136.6 38.4155 148.9 43.0155 161.7 46.2155C192.6 54.0155 220.4 43.3155 247.3 33.1155C294.3 15.1155 345.1 16.3155 394.1 17.5155C406.3 17.8155 418.8 18.1155 431.1 18.1155V19.1155C418.8 19.1155 406.2 18.8155 394 18.5155C345 17.3155 294.4 16.1155 247.5 34.0155C227.2 41.8155 206.2 49.8155 183.6 49.8155Z" fill="white"/>
<path d="M185.3 74.1152C176.8 74.1152 167.8 72.4152 158.2 68.4152C146.3 63.4152 134.9 57.1152 123.8 50.9152C103.6 39.7152 82.7 28.0152 58.5 25.1152L58.6 24.1152C83 27.1152 104 38.8152 124.3 50.1152C135.3 56.2152 146.7 62.6152 158.6 67.5152C193.2 82.0152 219.9 65.8152 248.1 48.6152C277.7 30.6152 299.1 24.2152 329.9 24.2152H433.3V25.2152H329.8C299.3 25.2152 278 31.6152 248.6 49.5152C227.9 62.0152 208.1 74.1152 185.3 74.1152Z" fill="white"/>
<path d="M186.6 100.016C177.7 100.016 168.3 97.6156 158.1 91.8156C145.7 84.8156 134.2 76.2156 123 67.8156C102.9 52.7156 82.0998 37.1156 56.2998 31.6156L56.4998 30.6156C82.5998 36.1156 103.4 51.8156 123.6 67.0156C134.7 75.4156 146.2 84.0156 158.5 90.9156C194.6 111.216 220.3 89.4156 247.5 66.2156L248.8 65.1156C276.3 41.7156 295.5 30.5156 330.6 30.5156H435.2V31.5156H330.7C296 31.5156 276.9 42.6156 249.6 65.8156L248.3 66.9156C228.4 83.8156 209.4 100.016 186.6 100.016Z" fill="white"/>
<path d="M187.7 120.616C178.5 120.616 168.6 117.516 157.6 110.316C145 101.916 133.4 91.5157 122.2 81.4157C102.1 63.3157 81.3 44.6157 54 37.7157L54.2 36.7157C81.8 43.7157 102.6 62.5157 122.8 80.7157C134 90.8157 145.5 101.216 158.1 109.516C196 134.616 221 108.316 247.5 80.5157L249.4 78.5157C250.8 77.0157 252.2 75.5157 253.6 74.0157C263.4 63.6157 273.5 52.9157 285.7 45.2157C299.7 36.4157 313.1 36.5157 328.6 36.5157H331.3H437V37.5157H328.6C313.2 37.5157 300 37.4157 286.3 46.1157C274.2 53.7157 264.1 64.4157 254.4 74.7157C253 76.2157 251.6 77.7157 250.2 79.2157L248.3 81.2157C229.2 101.216 210.8 120.616 187.7 120.616Z" fill="white"/>
<path d="M188.8 142.516C180.3 142.516 171.1 139.516 161 132.516C146.1 122.116 133.2 108.316 120.7 95.0155C100.9 73.9155 80.4999 52.2155 51.8999 43.6155L52.1999 42.6155C80.9999 51.2155 101.6 73.1155 121.4 94.3155C133.9 107.616 146.7 121.316 161.5 131.616C178.4 143.416 194.1 144.616 209.6 135.316C223.4 127.016 235.2 111.816 246.6 97.0155C247.7 95.5155 248.9 94.1155 250 92.6155C274.2 61.5155 291.1 42.5155 329.4 42.4155C353.7 42.3155 378.5 42.4155 402.4 42.4155C414.6 42.4155 426.7 42.4155 438.9 42.4155V43.4155C426.7 43.4155 414.6 43.4155 402.4 43.4155C378.5 43.4155 353.7 43.4155 329.4 43.4155C291.5 43.5155 274.8 62.4155 250.8 93.2155C249.7 94.6155 248.5 96.1155 247.4 97.6155C230.9 119.016 212.7 142.516 188.8 142.516Z" fill="white"/>
<path d="M189.9 164.115C179.8 164.115 170.3 158.815 160.2 150.915C145 139.115 132.2 123.515 119.7 108.415C100 84.5152 79.6001 59.7152 49.6001 49.7152L49.9001 48.8152C80.1001 58.9152 100.6 83.7152 120.4 107.815C132.8 122.915 145.6 138.415 160.7 150.115C177.6 163.215 192.7 169.015 211.5 154.615C225.1 144.215 235.2 128.915 244.9 114.115C246.7 111.315 248.5 108.615 250.3 105.915C251.8 103.715 253.3 101.415 254.8 99.1152C263.4 86.1152 272.4 72.6152 283.8 62.1152C298.4 48.6152 313.1 48.6152 330.1 48.6152C354.7 48.6152 379.7 48.6152 403.9 48.6152C416.2 48.6152 428.5 48.6152 440.8 48.6152V49.6152C428.5 49.6152 416.2 49.6152 403.9 49.6152C379.7 49.6152 354.7 49.6152 330.1 49.6152C312.6 49.6152 298.8 49.7152 284.5 62.9152C273.2 73.4152 264.3 86.8152 255.6 99.7152C254.1 102.015 252.6 104.315 251.1 106.515C249.3 109.215 247.5 111.915 245.7 114.715C236 129.515 225.9 144.915 212.1 155.415C204.3 161.515 197 164.115 189.9 164.115Z" fill="white"/>
<path d="M189.1 172.516C178 172.516 168.1 166.416 158.8 159.216C143.6 147.316 130.7 131.516 118.3 116.116C98.4002 91.6155 77.8002 66.2155 47.2002 56.5155L47.5002 55.5155C78.4002 65.2155 99.1002 90.7155 119.1 115.416C131.5 130.716 144.4 146.516 159.5 158.316C184.6 177.916 199.2 172.216 211.2 163.116C225.1 152.616 235.2 137.016 245 122.016C246.8 119.216 248.6 116.416 250.4 113.716C252 111.416 253.5 109.016 255.1 106.616C263.8 93.4155 272.7 79.7155 284.3 69.0155C299 55.5155 313.2 55.4155 331.2 55.4155C356.1 55.4155 381.4 55.4155 405.9 55.4155C418.3 55.4155 430.8 55.4155 443.2 55.4155V56.4155C430.8 56.4155 418.3 56.4155 405.9 56.4155C381.4 56.4155 356.1 56.4155 331.2 56.4155C313.4 56.4155 299.3 56.4155 284.9 69.7155C273.4 80.3155 264.5 93.9155 255.9 107.116C254.3 109.516 252.8 111.916 251.2 114.216C249.4 116.916 247.6 119.716 245.8 122.516C236 137.616 225.8 153.316 211.8 163.916C203.6 170.116 196.1 172.516 189.1 172.516Z" fill="white"/>
<path d="M188.8 180.116C176 180.116 164.5 172.416 154.3 163.816C141 152.616 129.1 138.216 117.6 124.216C96.9001 99.1155 75.6001 73.2155 44.6001 63.9155L44.9001 62.9155C76.1001 72.3155 97.6001 98.4155 118.4 123.516C129.9 137.416 141.7 151.816 155 163.016C171 176.416 190.3 187.716 212.4 169.616C225.3 159.016 235.1 144.216 244.5 130.016C246.4 127.116 248.4 124.216 250.3 121.316C251.9 118.916 253.5 116.516 255.2 114.116C263.8 101.316 272.6 88.0155 284 77.5155C299.9 62.9155 316.2 62.9155 335.1 62.9155H445.6V63.9155H335C316.3 63.9155 300.2 63.9155 284.6 78.3155C273.3 88.7155 264.5 101.916 255.9 114.716C254.3 117.116 252.7 119.516 251 121.916C249.1 124.716 247.2 127.616 245.2 130.616C235.7 145.016 225.9 159.816 212.9 170.516C204.4 177.316 196.4 180.116 188.8 180.116Z" fill="white"/>
<path d="M187.9 187.316C174.9 187.316 163.2 179.516 152.9 170.916C139.5 159.716 127.5 145.316 115.9 131.416C94.8999 106.316 73.1999 80.3155 41.8999 71.1155L42.1999 70.1155C73.7999 79.4155 95.5999 105.516 116.6 130.716C128.2 144.616 140.1 158.916 153.5 170.116C169.6 183.616 189.1 194.916 211.5 177.016C224.6 166.516 234.6 151.616 244.3 137.216C246.3 134.316 248.2 131.416 250.1 128.616C251.8 126.216 253.4 123.816 255 121.316C263.7 108.416 272.7 95.1155 284.2 84.6155C300.3 69.9155 316.8 69.9155 335.9 69.9155H447.7V70.9155H335.9C317.1 70.9155 300.8 70.9155 284.9 85.4155C273.5 95.8155 264.5 109.116 255.8 121.916C254.1 124.316 252.5 126.816 250.8 129.216C248.9 132.016 246.9 134.916 245 137.816C235.3 152.216 225.3 167.216 212 177.816C203.7 184.616 195.6 187.316 187.9 187.316Z" fill="white"/>
<path d="M185.2 193.516C175.2 193.516 165.2 189.416 154.6 181.116C139.8 169.516 126.9 154.016 114.4 139.116C93.0999 113.716 71.0999 87.5155 39.3999 78.5155L39.6999 77.5155C71.7999 86.5155 93.8999 112.916 115.2 138.416C127.7 153.316 140.6 168.816 155.3 180.316C167.6 189.916 179.1 193.816 190.6 192.016C213.9 188.516 231.9 162.416 247.8 139.416L250 136.216C251.5 134.116 252.9 131.916 254.4 129.816C263.1 117.116 272.2 103.916 283.4 93.2155C298.7 78.5155 312.9 77.4155 334.3 77.4155H450.2V78.4155H334.2C313.1 78.4155 299.4 79.1155 284 93.9155C272.9 104.616 263.9 117.716 255.2 130.416C253.7 132.616 252.3 134.716 250.8 136.816L248.6 140.016C232.6 163.216 214.4 189.416 190.7 193.016C188.8 193.316 187 193.516 185.2 193.516Z" fill="white"/>
<path d="M184.3 200.715C174.2 200.715 164 196.615 153.3 188.215C138.4 176.715 125.4 161.315 112.7 146.315C91.1002 120.815 68.8002 94.5152 36.7002 85.7152L37.0002 84.7152C69.4002 93.5152 91.8002 120.015 113.5 145.615C126.1 160.515 139.2 175.915 153.9 187.415C166.4 197.115 178.1 201.015 189.8 199.215C213.3 195.715 231.7 169.515 248 146.415L249.9 143.615C251.4 141.515 252.9 139.315 254.4 137.115C263.3 124.315 272.4 111.215 283.8 100.415C299.4 85.6152 313.6 84.6152 335.2 84.6152H452.4V85.6152H335.2C313.9 85.6152 300.1 86.4152 284.5 101.215C273.3 111.915 264.1 125.015 255.3 137.715C253.8 139.915 252.3 142.015 250.8 144.215L248.9 147.015C232.4 170.315 213.9 196.715 189.9 200.315C188 200.615 186.2 200.715 184.3 200.715Z" fill="white"/>
<path d="M185.4 209.316C174 209.316 161.9 203.716 148.4 192.516C135.2 181.516 123.1 167.516 111.5 153.916C89.5001 128.216 66.7001 101.616 34.1001 93.1157L34.4001 92.1157C67.3001 100.616 90.1001 127.416 112.3 153.216C123.9 166.816 135.9 180.816 149.1 191.716C173.3 211.816 192.8 213.516 212.2 197.216C224.9 186.616 234.8 172.416 244.5 158.716C246.3 156.216 248.1 153.616 249.9 151.116C251.7 148.516 253.6 145.916 255.4 143.316C265 129.616 274.9 115.516 287.6 104.816C302.8 91.9157 317.5 92.0156 336.1 92.0156H339.1H454.8V93.0156H336C317.6 93.0156 303.1 92.9157 288.2 105.616C275.6 116.316 265.7 130.316 256.1 144.016C254.2 146.616 252.4 149.316 250.5 151.816C248.7 154.316 246.9 156.816 245.2 159.316C235.5 173.016 225.5 187.316 212.7 198.016C203.8 205.516 194.8 209.316 185.4 209.316Z" fill="white"/>
<path d="M184.6 216.715C173 216.715 160.7 211.115 147 199.815C133.7 188.915 121.5 174.815 109.8 161.315C87.3999 135.515 64.2999 108.815 31.3999 100.515L31.5999 99.5154C64.7999 107.915 87.9999 134.715 110.5 160.615C122.2 174.115 134.4 188.215 147.6 199.015C172.1 219.115 191.7 220.915 211.4 204.815C224.3 194.215 234.4 180.015 244.3 166.215C246.1 163.715 247.9 161.215 249.7 158.715C251.6 156.115 253.5 153.515 255.4 150.815C265.2 137.115 275.2 123.015 288.1 112.215C303.5 99.3154 318.4 99.3154 337.2 99.3154H340.1H457.2V100.315H337.2C318.6 100.315 303.9 100.215 288.7 112.915C276 123.615 265.9 137.715 256.2 151.315C254.3 154.015 252.4 156.615 250.5 159.215C248.7 161.615 246.9 164.115 245.1 166.715C235.2 180.515 225.1 194.815 212.1 205.515C203 213.015 194 216.715 184.6 216.715Z" fill="white"/>
<path d="M183.8 224.016C172 224.016 159.6 218.416 145.6 207.016C132.2 196.116 120 182.116 108.1 168.516C85.3998 142.616 61.9998 115.916 28.7998 107.716L28.9998 106.716C62.4998 114.916 86.0998 141.816 108.8 167.816C120.6 181.316 132.9 195.316 146.2 206.116C170.9 226.216 190.8 228.116 210.6 212.216C223.7 201.616 234.1 187.416 244.1 173.516C245.9 171.016 247.7 168.516 249.5 166.116C251.4 163.516 253.3 160.816 255.3 158.216C265.2 144.516 275.4 130.316 288.4 119.516C304 106.516 319.1 106.516 338.1 106.616H340.9H459.4V107.616H338.1C319.2 107.616 304.3 107.516 289 120.316C276.1 131.016 265.9 145.116 256.1 158.816C254.2 161.516 252.3 164.116 250.3 166.716C248.5 169.116 246.7 171.616 244.9 174.116C234.9 188.016 224.5 202.316 211.3 213.016C202.2 220.416 193.2 224.016 183.8 224.016Z" fill="white"/>
<path d="M182.8 232.516C169.9 232.516 158.2 225.616 147.8 218.016C132 206.416 118.1 190.816 104.7 175.716C82.1999 150.516 58.9999 124.416 25.8999 115.716L26.1999 114.716C59.5999 123.416 82.8999 149.616 105.5 175.016C118.9 190.016 132.7 205.616 148.5 217.216C176.8 238.016 193 232.416 205.1 224.116C220.5 213.616 232.3 197.616 243.7 182.116C245.5 179.616 247.4 177.116 249.2 174.716C250.9 172.416 252.6 170.216 254.3 167.916C264.5 154.216 275.1 140.016 288.3 128.916C304.2 115.616 319.5 114.616 339.3 114.516C366.6 114.516 393.8 114.516 421.1 114.516H462V115.516H421.1C393.8 115.516 366.6 115.516 339.3 115.516C319.7 115.516 304.6 116.516 288.9 129.616C275.8 140.616 265.2 154.716 255.1 168.416C253.4 170.716 251.7 173.016 250 175.216C248.2 177.616 246.4 180.116 244.5 182.616C233 198.116 221.2 214.216 205.6 224.816C197.6 230.316 190 232.516 182.8 232.516Z" fill="white"/>
<path d="M179.2 228.215C166.6 228.215 155.2 222.215 144.6 215.215C129 204.815 115 191.115 101.4 177.915C78.5002 155.515 54.8002 132.315 22.7002 124.815L22.9002 123.815C55.3002 131.315 79.1002 154.615 102.1 177.215C115.6 190.415 129.6 204.115 145.1 214.415C161.5 225.315 179.7 233.615 201.3 220.815C217.2 211.415 230.1 196.915 242.5 182.915C244.2 181.015 245.9 179.115 247.6 177.215C249.2 175.415 250.8 173.715 252.3 171.915C263.4 159.415 274.9 146.615 288.6 136.715C305.2 124.715 321.1 123.815 340.2 123.815C367.8 123.815 395.5 123.815 423.1 123.815H464.6V124.815H423.1C395.5 124.815 367.8 124.815 340.2 124.815C321.3 124.815 305.5 125.815 289.2 137.515C275.6 147.315 264.1 160.215 253 172.615C251.4 174.415 249.8 176.115 248.3 177.915C246.6 179.815 244.9 181.615 243.3 183.515C230.8 197.615 217.8 212.115 201.8 221.615C193.9 226.315 186.4 228.215 179.2 228.215Z" fill="white"/>
<path d="M174.2 217.415C165 217.415 155.3 215.115 145 209.515C128.8 200.915 114 189.115 99.7 177.615C75.7 158.515 51 138.715 19.5 133.815L19.7 132.815C51.4 137.815 76.3 157.715 100.3 176.915C114.6 188.315 129.4 200.115 145.4 208.715C185.1 229.915 215.6 203.315 245.1 177.715L246.5 176.515C248 175.215 249.5 173.915 251 172.615C262.6 162.415 274.6 152.015 288 143.915C306.3 132.915 322.8 132.915 343.5 132.915H467.6V133.915H343.5C322.8 133.915 306.6 133.915 288.5 144.715C275.1 152.715 263.2 163.215 251.6 173.315C250.1 174.615 248.6 175.915 247.1 177.215L245.7 178.415C223.6 197.615 200.9 217.415 174.2 217.415Z" fill="white"/>
<path d="M171.6 208.415C162.4 208.415 152.8 206.615 142.7 202.315C126.8 195.515 111.8 186.215 97.3002 177.215C72.5002 161.815 46.8002 145.815 16.2002 142.815L16.3002 141.815C47.1002 144.815 72.9002 160.915 97.8002 176.415C112.3 185.415 127.2 194.715 143 201.415C182.3 218.115 214.5 196.815 245.5 176.115C278.9 153.915 304.7 141.915 345.4 141.915H470.3V142.915H345.6C305.1 142.915 279.4 154.915 246.2 177.015C222.8 192.415 198.8 208.415 171.6 208.415Z" fill="white"/>
<path d="M168.6 198.815C158.5 198.815 148.1 197.215 137.3 193.615C123 188.815 109.1 182.515 95.6002 176.415C69.7002 164.615 42.9002 152.515 13.2002 151.315V150.315C43.1002 151.515 70.0002 163.715 96.0002 175.515C109.4 181.615 123.3 187.915 137.6 192.715C175.8 205.515 208.7 192.415 244.8 175.315C277.2 159.915 305.1 150.415 344 150.415H473.2V151.415H344C305.2 151.415 277.5 160.915 245.2 176.215C219.1 188.515 194.6 198.815 168.6 198.815Z" fill="white"/>
<path d="M166.1 190.915C156 190.915 145.7 189.915 135.2 187.615C121.2 184.515 107.3 180.315 93.8001 176.315C67.0001 168.315 39.3001 159.915 10.1001 160.215V159.215C39.4001 159.015 67.2001 167.315 94.1001 175.415C107.5 179.415 121.4 183.615 135.4 186.715C173.7 195.115 210 185.715 244 175.315C280.5 164.115 310.7 159.315 345.2 159.315H476V160.315H345.1C310.8 160.315 280.6 165.115 244.2 176.215C219.4 183.815 193.3 190.915 166.1 190.915Z" fill="white"/>
<path d="M164.5 185.515C153.2 185.515 141.8 184.915 130.3 183.415C117.5 181.815 104.7 179.615 92.2998 177.615C64.4998 173.015 35.7998 168.115 6.7998 169.215V168.215C35.8998 167.115 64.6998 171.915 92.4998 176.615C104.9 178.715 117.7 180.815 130.5 182.415C170 187.415 208.1 182.515 243.3 176.615C304.6 166.215 367.8 167.015 429 167.815C445.4 168.015 462.3 168.215 478.9 168.215V169.215C462.3 169.215 445.4 169.015 429 168.815C367.9 168.015 304.7 167.215 243.5 177.615C218.4 181.915 191.9 185.515 164.5 185.515Z" fill="white"/>
<path d="M195.5 182.816C168.1 182.816 140.9 181.616 114.2 180.416C77.8999 178.816 40.3999 177.216 3.3999 178.616V177.616C40.4999 176.216 77.9999 177.816 114.3 179.416C156.3 181.216 199.7 183.116 242.7 180.316C303.1 176.416 364.8 176.816 424.4 177.316C443.2 177.416 462.7 177.616 481.8 177.616V178.616C462.7 178.616 443.2 178.516 424.4 178.316C364.8 177.916 303.2 177.416 242.8 181.316C227 182.416 211.3 182.816 195.5 182.816Z" fill="white"/>
<path d="M484.8 188.215C430.9 188.215 377.1 188.215 323.2 188.115C217.3 188.015 107.7 188.015 0 188.215V187.215C107.7 187.015 217.3 187.115 323.2 187.115C377.1 187.115 430.9 187.215 484.8 187.215V188.215Z" fill="white"/>
</svg>
