<svg width="454" height="434" viewBox="0 0 454 434" fill="none" xmlns="http://www.w3.org/2000/svg">
<mask id="mask0_201_598" style="mask-type:luminance" maskUnits="userSpaceOnUse" x="31" y="44" width="370" height="238">
<path d="M250.973 263.654C351.011 228.825 416.475 155.687 397.19 100.295C377.905 44.9038 281.174 28.2347 181.136 63.0639C81.0973 97.8931 15.6336 171.031 34.9185 226.423C54.2035 281.814 150.934 298.484 250.973 263.654Z" fill="white"/>
</mask>
<g mask="url(#mask0_201_598)">
<path d="M149.366 282.471C139.866 282.471 130.566 281.971 121.566 280.771C77.2658 275.271 46.6658 256.971 35.5658 229.271C25.3658 203.871 33.0658 173.371 57.3658 143.271C109.466 78.7709 223.166 35.1709 310.666 46.0709C354.966 51.5709 385.566 69.8709 396.666 97.5709C406.866 122.971 399.166 153.471 374.866 183.571C328.066 241.371 231.766 282.471 149.366 282.471ZM282.766 45.3709C200.566 45.3709 104.666 86.2709 58.0658 143.971C33.9658 173.671 26.3658 203.871 36.3658 228.871C47.3658 256.171 77.6658 274.271 121.566 279.671C208.766 290.571 322.066 247.071 374.066 182.771C398.166 153.071 405.766 122.871 395.766 97.8709C384.766 70.5709 354.466 52.4709 310.566 47.0709C301.466 45.9709 292.266 45.3709 282.766 45.3709Z" fill="white"/>
</g>
<mask id="mask1_201_598" style="mask-type:luminance" maskUnits="userSpaceOnUse" x="225" y="210" width="57" height="71">
<path d="M232.366 210.271C234.866 217.371 240.266 230.471 252.266 242.971C254.766 245.571 258.366 248.671 261.166 250.871C263.266 252.571 266.366 254.371 268.666 255.871C270.466 256.971 273.066 258.271 275.066 259.071C276.266 259.571 277.866 260.171 279.066 260.571C279.766 260.771 280.566 260.971 281.266 261.071C278.366 260.771 272.966 261.071 269.366 261.671C266.466 262.171 264.666 262.471 261.466 263.271C257.366 264.271 254.366 265.271 252.966 265.771C250.266 266.671 248.266 267.371 244.566 268.971C240.966 270.571 238.566 271.771 236.966 272.671C236.966 272.671 233.666 274.471 230.866 276.371C229.966 276.971 227.566 278.571 225.866 280.271L225.766 280.371C227.466 278.271 228.566 276.371 229.066 275.471C230.066 273.771 231.266 271.371 231.966 269.471C232.966 266.771 234.266 263.071 235.066 260.171C235.766 257.471 236.566 253.771 236.866 250.871C237.166 248.071 237.566 244.271 237.566 241.471C237.566 237.371 237.166 231.871 236.666 227.771C236.366 224.971 235.566 221.271 234.866 218.571C234.166 215.871 233.066 212.671 232.366 210.271Z" fill="white"/>
</mask>
<g mask="url(#mask1_201_598)">
<path d="M203.566 395.371H203.266C172.666 391.571 151.566 378.871 143.866 359.771C136.766 342.171 142.166 321.071 158.966 300.371L159.166 300.171H159.466C188.466 303.771 211.966 296.471 225.666 279.571C239.366 262.671 241.566 238.071 231.966 210.471L232.866 210.171C252.866 267.671 239.866 350.671 203.766 395.271L203.566 395.371ZM159.566 301.171C143.166 321.571 137.866 342.271 144.866 359.371C152.366 378.071 173.166 390.471 203.266 394.271C233.566 356.471 247.466 291.071 238.566 237.171C239.666 253.971 235.566 268.671 226.366 280.071C212.466 297.271 188.766 304.771 159.566 301.171Z" fill="white"/>
<path d="M241.666 274.171C237.366 273.671 234.366 271.771 233.166 269.071C232.166 266.571 232.866 263.471 235.266 260.571L236.066 261.171C233.866 263.871 233.166 266.471 234.066 268.671C235.066 271.071 237.866 272.671 241.766 273.171L241.666 274.171Z" fill="white"/>
<path d="M141.466 343.671L141.266 342.671C178.666 334.171 209.366 312.771 225.366 283.871C238.066 260.871 240.466 234.771 231.966 210.371L232.866 210.071C241.466 234.771 239.066 261.071 226.166 284.371C210.066 313.471 179.166 335.071 141.466 343.671Z" fill="white"/>
<path d="M173.366 301.971C168.766 301.971 164.066 301.671 159.166 301.071L158.266 300.971L158.866 300.271C176.966 277.871 205.766 259.171 237.566 247.071C238.266 235.871 236.366 223.471 231.866 210.371L232.766 210.071C237.366 223.371 243.366 234.271 250.466 242.571C278.366 233.671 307.766 229.971 333.766 233.171L334.666 233.271L334.066 233.971C317.266 254.771 297.766 264.371 279.066 261.071C268.266 259.171 258.466 253.171 250.066 243.671C246.166 244.971 242.266 246.271 238.466 247.771C237.566 260.171 233.466 271.171 226.266 280.171C214.766 294.471 196.266 301.971 173.366 301.971ZM160.266 300.271C188.866 303.671 211.966 296.271 225.566 279.571C232.566 270.871 236.566 260.271 237.566 248.271C206.366 260.071 178.166 278.371 160.266 300.271ZM251.266 243.371C259.366 252.571 268.866 258.371 279.366 260.171C297.466 263.371 316.366 254.071 332.866 234.071C307.266 230.971 278.566 234.671 251.266 243.371ZM236.066 220.871C238.266 229.971 239.166 238.571 238.666 246.671C242.266 245.271 245.866 244.071 249.566 242.871C244.366 236.871 239.866 229.471 236.066 220.871Z" fill="white"/>
<path d="M236.066 261.171L235.266 260.571C240.266 254.371 251.166 250.171 259.566 251.271L259.466 252.271C251.366 251.171 240.866 255.271 236.066 261.171Z" fill="white"/>
<path d="M230.866 274.771C224.766 274.771 216.566 270.471 206.766 262.171L207.366 261.371C220.366 272.471 230.266 276.171 236.066 272.271C244.766 266.271 243.166 243.171 231.766 210.371L232.666 210.071C244.366 243.771 245.866 266.771 236.566 273.071C235.066 274.271 233.066 274.771 230.866 274.771Z" fill="white"/>
<path d="M262.066 263.371C254.666 263.371 243.666 244.171 231.966 210.371L232.866 210.071C241.766 235.571 253.966 262.371 261.966 262.371C262.166 262.371 262.366 262.371 262.566 262.371C266.666 261.671 268.966 252.971 269.266 237.771H270.266C270.066 253.971 267.466 262.571 262.766 263.271C262.466 263.371 262.266 263.371 262.066 263.371Z" fill="white"/>
<path d="M378.066 328.371H377.766C322.566 321.471 263.066 276.671 237.966 225.071C235.766 220.571 233.666 215.671 231.866 210.471L232.766 210.171C234.466 214.971 236.466 219.771 238.766 224.571C248.866 244.871 262.866 257.371 279.266 260.271C297.566 263.471 316.766 253.971 333.266 233.471L333.466 233.271H333.766C364.366 237.071 385.466 249.771 393.166 268.871C400.266 286.471 394.866 307.571 378.066 328.271V328.371ZM248.866 242.171C277.366 285.671 329.066 321.171 377.566 327.371C393.966 306.971 399.166 286.271 392.266 269.171C384.766 250.471 363.966 238.071 333.866 234.271C317.166 254.871 297.666 264.471 279.066 261.171C267.766 259.071 257.466 252.571 248.866 242.171Z" fill="white"/>
<path d="M265.966 264.871L265.166 264.271C267.366 261.571 268.066 258.971 267.166 256.771C266.166 254.371 263.366 252.771 259.466 252.271L259.566 251.271C263.866 251.771 266.866 253.671 268.066 256.371C269.066 258.871 268.366 261.971 265.966 264.871Z" fill="white"/>
<path d="M317.266 269.471C305.266 269.471 293.566 267.471 282.766 263.371C258.666 254.271 240.566 235.471 231.866 210.371L232.766 210.071C241.366 234.871 259.266 253.471 283.066 262.471C312.166 273.471 347.366 269.371 379.666 251.171L380.166 252.071C359.666 263.571 337.866 269.471 317.266 269.471Z" fill="white"/>
</g>
<mask id="mask2_201_598" style="mask-type:luminance" maskUnits="userSpaceOnUse" x="225" y="210" width="57" height="71">
<path d="M232.366 210.271C234.866 217.371 240.266 230.471 252.266 242.971C254.766 245.571 258.366 248.671 261.166 250.871C263.266 252.571 266.366 254.371 268.666 255.871C270.466 256.971 273.066 258.271 275.066 259.071C276.266 259.571 277.866 260.171 279.066 260.571C279.766 260.771 280.566 260.971 281.266 261.071C278.366 260.771 272.966 261.071 269.366 261.671C266.466 262.171 264.666 262.471 261.466 263.271C257.366 264.271 254.366 265.271 252.966 265.771C250.266 266.671 248.266 267.371 244.566 268.971C240.966 270.571 238.566 271.771 236.966 272.671C236.966 272.671 233.666 274.471 230.866 276.371C229.966 276.971 227.566 278.571 225.866 280.271L225.766 280.371C227.466 278.271 228.566 276.371 229.066 275.471C230.066 273.771 231.266 271.371 231.966 269.471C232.966 266.771 234.266 263.071 235.066 260.171C235.766 257.471 236.566 253.771 236.866 250.871C237.166 248.071 237.566 244.271 237.566 241.471C237.566 237.371 237.166 231.871 236.666 227.771C236.366 224.971 235.566 221.271 234.866 218.571C234.166 215.871 233.066 212.671 232.366 210.271Z" fill="white"/>
</mask>
<g mask="url(#mask2_201_598)">
<path d="M222.866 282.771L225.266 279.771C226.966 277.671 227.966 275.871 228.466 274.971C229.366 273.371 230.666 270.871 231.366 269.071C232.166 266.971 233.566 262.971 234.466 259.871C235.166 257.271 235.966 253.571 236.266 250.671L236.366 249.171C236.666 246.571 236.966 243.571 236.866 241.271C236.866 237.571 236.466 232.171 235.966 227.671C235.766 225.471 235.166 222.371 234.166 218.571C233.766 216.871 233.166 214.871 232.566 212.971C232.266 212.071 231.966 211.171 231.766 210.471L232.766 210.171C237.266 222.871 243.766 233.471 252.566 242.671C255.266 245.471 258.966 248.571 261.366 250.471C263.266 251.971 266.066 253.671 268.266 255.071L268.766 255.371C270.666 256.571 273.266 257.771 275.066 258.471C276.266 258.971 277.866 259.571 279.066 259.871C279.766 260.071 280.766 260.271 281.266 260.371L281.066 261.371C278.166 261.071 272.866 261.371 269.366 261.971C266.466 262.471 264.766 262.771 261.466 263.571C257.366 264.571 254.366 265.571 252.966 266.071C250.266 266.971 248.266 267.671 244.666 269.271C241.066 270.871 238.666 272.071 237.166 272.871C237.166 272.871 233.866 274.671 231.166 276.471C230.266 277.071 227.966 278.671 226.266 280.271C226.266 280.271 226.166 280.371 226.066 280.371L222.866 282.771ZM235.466 219.271C236.266 222.671 236.766 225.471 237.066 227.471C237.566 232.071 237.866 237.371 237.966 241.171C237.966 243.571 237.666 246.571 237.466 249.171L237.366 250.671C237.066 253.571 236.266 257.371 235.566 259.971C234.766 263.071 233.266 267.171 232.466 269.271C231.766 271.271 230.466 273.671 229.466 275.371C229.266 275.771 228.866 276.471 228.366 277.171C229.266 276.471 230.166 275.871 230.566 275.571C233.366 273.671 236.666 271.871 236.666 271.871C238.266 271.071 240.566 269.771 244.266 268.171C247.966 266.571 249.966 265.871 252.666 264.971C254.066 264.471 257.066 263.471 261.266 262.471C264.566 261.671 266.366 261.371 269.266 260.871C271.566 260.471 274.566 260.171 277.166 260.171C276.366 259.871 275.466 259.571 274.766 259.271C272.966 258.471 270.266 257.271 268.366 256.071L267.866 255.771C265.666 254.371 262.866 252.671 260.866 251.071C258.466 249.171 254.666 245.971 251.966 243.171C245.166 236.171 239.766 228.271 235.466 219.271Z" fill="white"/>
</g>
<mask id="mask3_201_598" style="mask-type:luminance" maskUnits="userSpaceOnUse" x="141" y="210" width="252" height="144">
<path d="M225.966 279.771C227.066 278.271 228.466 276.471 230.466 272.471C231.666 269.971 232.966 266.471 233.866 263.871C234.466 262.071 236.366 255.471 237.066 248.171C237.366 245.071 237.566 240.871 237.466 237.771C237.366 234.671 236.966 230.571 236.666 227.571C236.366 225.171 235.366 218.771 232.466 210.271C252.466 267.671 212.266 332.071 142.666 353.871C138.866 338.271 144.066 319.671 159.466 300.571C195.466 256.071 273.566 226.071 333.866 233.571C364.166 237.371 384.166 249.871 392.066 266.971C323.866 292.971 252.466 267.571 232.466 210.071C233.366 212.471 234.566 215.671 235.666 217.971C236.866 220.571 238.466 223.871 239.966 226.271C242.166 229.771 245.266 234.271 247.766 237.471C249.466 239.671 252.166 242.371 254.166 244.471C256.166 246.471 259.066 248.971 261.366 250.671C263.666 252.471 266.966 254.471 269.466 255.971C271.166 256.971 273.466 258.071 275.266 258.771C276.466 259.271 278.066 259.871 279.266 260.171C279.866 260.371 280.766 260.571 281.466 260.671C280.466 260.571 279.066 260.471 276.366 260.571C272.766 260.771 269.866 261.271 269.766 261.271C266.566 261.771 264.966 262.071 261.766 262.871C257.266 263.971 253.866 265.171 253.166 265.371C250.166 266.471 244.466 268.371 237.266 272.171C237.266 272.171 233.866 273.971 231.266 275.771C230.566 276.271 229.566 276.971 228.866 277.471C227.466 278.571 227.466 278.571 225.966 279.871C225.766 279.971 225.866 279.871 225.966 279.771Z" fill="white"/>
</mask>
<g mask="url(#mask3_201_598)">
<path d="M203.566 395.371H203.266C172.666 391.571 151.566 378.871 143.866 359.771C136.766 342.171 142.166 321.071 158.966 300.371L159.166 300.171H159.466C188.466 303.771 211.966 296.471 225.666 279.571C239.366 262.671 241.566 238.071 231.966 210.471L232.866 210.171C252.866 267.671 239.866 350.671 203.766 395.271L203.566 395.371ZM159.566 301.171C143.166 321.571 137.866 342.271 144.866 359.371C152.366 378.071 173.166 390.471 203.266 394.271C233.566 356.471 247.466 291.071 238.566 237.171C239.666 253.971 235.566 268.671 226.366 280.071C212.466 297.271 188.766 304.771 159.566 301.171Z" fill="white"/>
<path d="M241.666 274.171C237.366 273.671 234.366 271.771 233.166 269.071C232.166 266.571 232.866 263.471 235.266 260.571L236.066 261.171C233.866 263.871 233.166 266.471 234.066 268.671C235.066 271.071 237.866 272.671 241.766 273.171L241.666 274.171Z" fill="white"/>
<path d="M231.266 340.471C215.966 338.571 205.466 332.271 201.666 322.671C198.166 313.871 200.766 303.371 209.166 292.971L209.966 293.571C201.866 303.671 199.266 313.771 202.666 322.271C206.366 331.371 216.866 337.571 231.466 339.471L231.266 340.471Z" fill="white"/>
<path d="M141.466 343.671L141.266 342.671C178.666 334.171 209.366 312.771 225.366 283.871C238.066 260.871 240.466 234.771 231.966 210.371L232.866 210.071C241.466 234.771 239.066 261.071 226.166 284.371C210.066 313.471 179.166 335.071 141.466 343.671Z" fill="white"/>
<path d="M173.366 301.971C168.766 301.971 164.066 301.671 159.166 301.071L158.266 300.971L158.866 300.271C176.966 277.871 205.766 259.171 237.566 247.071C238.266 235.871 236.366 223.471 231.866 210.371L232.766 210.071C237.366 223.371 243.366 234.271 250.466 242.571C278.366 233.671 307.766 229.971 333.766 233.171L334.666 233.271L334.066 233.971C317.266 254.771 297.766 264.371 279.066 261.071C268.266 259.171 258.466 253.171 250.066 243.671C246.166 244.971 242.266 246.271 238.466 247.771C237.566 260.171 233.466 271.171 226.266 280.171C214.766 294.471 196.266 301.971 173.366 301.971ZM160.266 300.271C188.866 303.671 211.966 296.271 225.566 279.571C232.566 270.871 236.566 260.271 237.566 248.271C206.366 260.071 178.166 278.371 160.266 300.271ZM251.266 243.371C259.366 252.571 268.866 258.371 279.366 260.171C297.466 263.371 316.366 254.071 332.866 234.071C307.266 230.971 278.566 234.671 251.266 243.371ZM236.066 220.871C238.266 229.971 239.166 238.571 238.666 246.671C242.266 245.271 245.866 244.071 249.566 242.871C244.366 236.871 239.866 229.471 236.066 220.871Z" fill="white"/>
<path d="M236.066 261.171L235.266 260.571C240.266 254.371 251.166 250.171 259.566 251.271L259.466 252.271C251.366 251.171 240.866 255.271 236.066 261.171Z" fill="white"/>
<path d="M209.866 293.571L209.066 292.971C226.966 270.871 265.966 255.871 295.866 259.671L295.766 260.671C266.166 256.971 227.566 271.671 209.866 293.571Z" fill="white"/>
<path d="M230.866 274.771C224.766 274.771 216.566 270.471 206.766 262.171L207.366 261.371C220.366 272.471 230.266 276.171 236.066 272.271C244.766 266.271 243.166 243.171 231.766 210.371L232.666 210.071C244.366 243.771 245.866 266.771 236.566 273.071C235.066 274.271 233.066 274.771 230.866 274.771Z" fill="white"/>
<path d="M262.066 263.371C254.666 263.371 243.666 244.171 231.966 210.371L232.866 210.071C241.766 235.571 253.966 262.371 261.966 262.371C262.166 262.371 262.366 262.371 262.566 262.371C266.666 261.671 268.966 252.971 269.266 237.771H270.266C270.066 253.971 267.466 262.571 262.766 263.271C262.466 263.371 262.266 263.371 262.066 263.371Z" fill="white"/>
<path d="M378.066 328.371H377.766C322.566 321.471 263.066 276.671 237.966 225.071C235.766 220.571 233.666 215.671 231.866 210.471L232.766 210.171C234.466 214.971 236.466 219.771 238.766 224.571C248.866 244.871 262.866 257.371 279.266 260.271C297.566 263.471 316.766 253.971 333.266 233.471L333.466 233.271H333.766C364.366 237.071 385.466 249.771 393.166 268.871C400.266 286.471 394.866 307.571 378.066 328.271V328.371ZM248.866 242.171C277.366 285.671 329.066 321.171 377.566 327.371C393.966 306.971 399.166 286.271 392.266 269.171C384.766 250.471 363.966 238.071 333.866 234.271C317.166 254.871 297.666 264.471 279.066 261.171C267.766 259.071 257.466 252.571 248.866 242.171Z" fill="white"/>
<path d="M265.966 264.871L265.166 264.271C267.366 261.571 268.066 258.971 267.166 256.771C266.166 254.371 263.366 252.771 259.466 252.271L259.566 251.271C263.866 251.771 266.866 253.671 268.066 256.371C269.066 258.871 268.366 261.971 265.966 264.871Z" fill="white"/>
<path d="M318.066 307.071L317.266 306.471C325.366 296.371 327.966 286.271 324.566 277.771C320.866 268.671 310.366 262.471 295.766 260.571L295.866 259.571C311.166 261.471 321.666 267.771 325.466 277.371C329.166 286.171 326.466 296.771 318.066 307.071Z" fill="white"/>
<path d="M317.266 269.471C305.266 269.471 293.566 267.471 282.766 263.371C258.666 254.271 240.566 235.471 231.866 210.371L232.766 210.071C241.366 234.871 259.266 253.471 283.066 262.471C312.166 273.471 347.366 269.371 379.666 251.171L380.166 252.071C359.666 263.571 337.866 269.471 317.266 269.471Z" fill="white"/>
</g>
<mask id="mask4_201_598" style="mask-type:luminance" maskUnits="userSpaceOnUse" x="141" y="210" width="252" height="144">
<path d="M225.966 279.771C227.066 278.271 228.466 276.471 230.466 272.471C231.666 269.971 232.966 266.471 233.866 263.871C234.466 262.071 236.366 255.471 237.066 248.171C237.366 245.071 237.566 240.871 237.466 237.771C237.366 234.671 236.966 230.571 236.666 227.571C236.366 225.171 235.366 218.771 232.466 210.271C252.466 267.671 212.266 332.071 142.666 353.871C138.866 338.271 144.066 319.671 159.466 300.571C195.466 256.071 273.566 226.071 333.866 233.571C364.166 237.371 384.166 249.871 392.066 266.971C323.866 292.971 252.466 267.571 232.466 210.071C233.366 212.471 234.566 215.671 235.666 217.971C236.866 220.571 238.466 223.871 239.966 226.271C242.166 229.771 245.266 234.271 247.766 237.471C249.466 239.671 252.166 242.371 254.166 244.471C256.166 246.471 259.066 248.971 261.366 250.671C263.666 252.471 266.966 254.471 269.466 255.971C271.166 256.971 273.466 258.071 275.266 258.771C276.466 259.271 278.066 259.871 279.266 260.171C279.866 260.371 280.766 260.571 281.466 260.671C280.466 260.571 279.066 260.471 276.366 260.571C272.766 260.771 269.866 261.271 269.766 261.271C266.566 261.771 264.966 262.071 261.766 262.871C257.266 263.971 253.866 265.171 253.166 265.371C250.166 266.471 244.466 268.371 237.266 272.171C237.266 272.171 233.866 273.971 231.266 275.771C230.566 276.271 229.566 276.971 228.866 277.471C227.466 278.571 227.466 278.571 225.966 279.871C225.766 279.971 225.866 279.871 225.966 279.771Z" fill="white"/>
</mask>
<g mask="url(#mask4_201_598)">
<path d="M142.166 354.471L142.066 353.971C138.066 337.471 143.866 318.871 158.966 300.271C176.866 278.171 205.266 259.571 236.666 247.371C236.866 244.671 236.966 241.471 236.966 238.871C236.966 237.471 236.866 236.171 236.766 234.771C236.666 233.171 236.466 231.271 236.266 229.371C235.766 225.371 235.066 221.271 233.966 217.371C233.366 215.271 232.666 212.971 231.866 210.371L232.766 210.071C233.066 210.871 233.366 211.671 233.766 212.571C234.266 213.971 234.866 215.471 235.466 216.771C236.966 220.271 238.766 223.571 240.666 226.871C242.966 230.571 245.866 234.571 247.966 237.371C249.066 238.871 250.666 240.471 252.166 242.071C279.566 233.571 308.266 230.071 333.766 233.171C363.266 236.871 384.066 248.771 392.366 266.871L392.566 267.371L392.066 267.571C355.166 281.671 315.766 281.171 283.766 266.371C280.566 264.871 277.466 263.271 274.466 261.471C271.566 261.671 269.466 262.071 269.366 262.071C266.166 262.571 264.666 262.871 261.366 263.671C256.866 264.771 253.466 265.971 252.866 266.171C249.866 267.171 244.166 269.171 237.066 272.971C237.066 272.971 233.666 274.771 231.066 276.571C230.966 276.571 230.966 276.671 230.866 276.671C229.666 279.871 228.166 283.071 226.566 286.271C210.766 317.771 180.066 342.571 142.466 354.471H142.166ZM236.466 248.571C205.366 260.671 177.366 279.071 159.666 300.971C144.966 319.171 139.166 337.171 142.866 353.271C180.066 341.471 210.266 316.871 225.866 285.771C227.166 283.071 228.466 280.371 229.566 277.671C229.266 277.871 229.066 278.071 228.866 278.171C227.466 279.271 227.466 279.271 226.066 280.471L225.366 279.771L225.566 279.471C226.666 278.071 228.066 276.171 229.966 272.271C231.166 269.871 232.466 266.471 233.366 263.771C233.966 261.971 235.766 255.671 236.466 248.571ZM233.066 267.471C232.366 269.271 231.666 271.171 230.866 272.671C229.866 274.671 229.066 276.071 228.366 277.271C228.966 276.871 229.666 276.371 230.266 275.971C231.266 273.171 232.266 270.271 233.066 267.471ZM276.366 261.371C278.966 262.871 281.566 264.171 284.266 265.471C315.866 280.171 354.766 280.671 391.266 266.871C382.966 249.371 362.466 237.771 333.666 234.171C308.466 231.071 280.066 234.471 252.966 242.871C253.166 243.071 253.366 243.271 253.566 243.471L254.366 244.271C256.366 246.371 259.366 248.771 261.466 250.371C264.166 252.471 268.066 254.771 269.566 255.671C271.066 256.571 273.366 257.671 275.266 258.471C276.566 258.971 278.066 259.571 279.266 259.871C279.966 260.071 280.966 260.271 281.366 260.371L281.266 261.371C280.266 261.371 278.866 261.171 276.366 261.371ZM237.666 248.071C236.966 257.071 234.966 266.171 231.666 274.971C234.166 273.371 236.766 271.971 236.766 271.971C243.966 268.071 249.666 266.171 252.666 265.071C253.266 264.871 256.666 263.671 261.266 262.571C264.566 261.771 266.166 261.471 269.266 260.971C269.266 260.971 270.866 260.671 273.066 260.471C265.066 255.571 257.866 249.771 251.666 243.071C246.966 244.671 242.266 246.271 237.666 248.071ZM267.366 255.571C269.766 257.271 272.266 258.971 274.866 260.471C275.266 260.471 275.666 260.371 276.066 260.371C276.466 260.371 276.866 260.371 277.266 260.371C276.466 260.071 275.666 259.771 274.866 259.471C272.866 258.671 270.566 257.571 269.066 256.571C268.566 256.271 267.966 255.971 267.366 255.571ZM237.966 238.871C237.966 241.571 237.966 244.271 237.766 247.071C242.166 245.371 246.566 243.871 251.066 242.471C246.866 237.771 243.066 232.771 239.866 227.371C239.766 227.171 239.566 226.971 239.466 226.771C238.366 225.071 237.066 222.571 235.566 219.371C236.466 223.271 236.966 226.071 237.066 227.571C237.166 228.171 237.166 228.771 237.266 229.271C237.466 231.171 237.666 232.971 237.766 234.871C237.866 235.971 237.866 236.971 237.866 237.871C237.966 238.171 237.966 238.471 237.966 238.871Z" fill="white"/>
</g>
<mask id="mask5_201_598" style="mask-type:luminance" maskUnits="userSpaceOnUse" x="142" y="210" width="236" height="187">
<path d="M142.466 353.871C212.066 331.971 252.266 267.671 232.266 210.271C252.266 267.671 317.366 320.371 377.766 327.871C341.766 372.371 263.666 402.371 203.366 394.871C168.866 390.471 147.566 374.871 142.466 353.871Z" fill="white"/>
</mask>
<g mask="url(#mask5_201_598)">
<path d="M222.566 396.471C215.966 396.471 209.566 396.071 203.366 395.271L202.466 395.171L203.066 394.471C238.866 350.171 251.866 267.571 231.966 210.371L232.866 210.071C252.766 267.271 317.866 319.871 377.866 327.371L378.766 327.471L378.166 328.171C345.866 368.071 279.466 396.471 222.566 396.471ZM204.366 394.471C264.066 401.471 340.966 371.971 376.866 328.271C320.566 320.871 260.066 274.171 236.266 221.371C250.966 277.571 237.666 352.571 204.366 394.471Z" fill="white"/>
<path d="M244.366 274.371C243.466 274.371 242.566 274.271 241.666 274.171L241.766 273.171C249.866 274.171 260.366 270.171 265.166 264.171L265.966 264.771C261.466 270.471 252.266 274.371 244.366 274.371Z" fill="white"/>
<path d="M240.766 340.971C237.466 340.971 234.366 340.771 231.266 340.371L231.366 339.371C261.066 343.071 299.566 328.271 317.266 306.371L318.066 306.971C302.066 326.971 269.066 340.971 240.766 340.971Z" fill="white"/>
<path d="M329.666 367.071C295.766 338.071 251.866 267.871 231.866 210.371L232.766 210.071C252.666 267.371 296.466 337.471 330.266 366.271L329.666 367.071Z" fill="white"/>
<path d="M267.866 390.671H266.866C267.466 348.571 251.766 267.671 231.866 210.371L232.766 210.071C252.766 267.471 268.566 348.471 267.866 390.671Z" fill="white"/>
<path d="M203.566 395.371H203.266C172.666 391.571 151.566 378.871 143.866 359.771C136.766 342.171 142.166 321.071 158.966 300.371L159.166 300.171H159.466C188.466 303.771 211.966 296.471 225.666 279.571C239.366 262.671 241.566 238.071 231.966 210.471L232.866 210.171C252.866 267.671 239.866 350.671 203.766 395.271L203.566 395.371ZM159.566 301.171C143.166 321.571 137.866 342.271 144.866 359.371C152.366 378.071 173.166 390.471 203.266 394.271C233.566 356.471 247.466 291.071 238.566 237.171C239.666 253.971 235.566 268.671 226.366 280.071C212.466 297.271 188.766 304.771 159.566 301.171Z" fill="white"/>
<path d="M241.666 274.171C237.366 273.671 234.366 271.771 233.166 269.071C232.166 266.571 232.866 263.471 235.266 260.571L236.066 261.171C233.866 263.871 233.166 266.471 234.066 268.671C235.066 271.071 237.866 272.671 241.766 273.171L241.666 274.171Z" fill="white"/>
<path d="M231.266 340.471C215.966 338.571 205.466 332.271 201.666 322.671C198.166 313.871 200.766 303.371 209.166 292.971L209.966 293.571C201.866 303.671 199.266 313.771 202.666 322.271C206.366 331.371 216.866 337.571 231.466 339.471L231.266 340.471Z" fill="white"/>
<path d="M157.366 377.371L156.866 376.471C218.066 341.971 251.766 267.471 231.866 210.371L232.766 210.071C252.866 267.671 219.066 342.671 157.366 377.371Z" fill="white"/>
</g>
<mask id="mask6_201_598" style="mask-type:luminance" maskUnits="userSpaceOnUse" x="142" y="210" width="236" height="187">
<path d="M142.466 353.871C212.066 331.971 252.266 267.671 232.266 210.271C252.266 267.671 317.366 320.371 377.766 327.871C341.766 372.371 263.666 402.371 203.366 394.871C168.866 390.471 147.566 374.871 142.466 353.871Z" fill="white"/>
</mask>
<g mask="url(#mask6_201_598)">
<path d="M222.566 396.471C215.966 396.471 209.566 396.071 203.366 395.271C169.766 391.071 147.466 375.971 142.066 353.971L141.966 353.471L142.366 353.371C179.766 341.571 210.166 316.971 225.866 285.671C238.166 261.271 240.266 234.471 231.866 210.371L232.766 210.071C252.666 267.271 317.766 319.871 377.766 327.371L378.666 327.471L378.066 328.171C345.866 368.071 279.466 396.471 222.566 396.471ZM143.066 354.171C148.466 375.571 170.466 390.171 203.366 394.271C263.166 401.771 340.666 372.071 376.766 328.171C319.966 320.671 259.066 273.371 235.566 219.971C240.466 241.671 237.366 264.771 226.666 286.071C211.066 317.571 180.566 342.271 143.066 354.171Z" fill="white"/>
</g>
<mask id="mask7_201_598" style="mask-type:luminance" maskUnits="userSpaceOnUse" x="232" y="210" width="164" height="118">
<path d="M232.366 210.271C252.366 267.671 323.866 293.171 391.966 267.171C399.866 284.171 395.666 305.771 377.766 327.971C317.466 320.371 252.366 267.671 232.366 210.271Z" fill="white"/>
</mask>
<g mask="url(#mask7_201_598)">
<path d="M378.066 328.371H377.766C322.566 321.471 263.066 276.671 237.966 225.071C235.766 220.571 233.666 215.671 231.866 210.471L232.766 210.171C234.466 214.971 236.466 219.771 238.766 224.571C248.866 244.871 262.866 257.371 279.266 260.271C297.566 263.471 316.766 253.971 333.266 233.471L333.466 233.271H333.766C364.366 237.071 385.466 249.771 393.166 268.871C400.266 286.471 394.866 307.571 378.066 328.271V328.371ZM248.866 242.171C277.366 285.671 329.066 321.171 377.566 327.371C393.966 306.971 399.166 286.271 392.266 269.171C384.766 250.471 363.966 238.071 333.866 234.271C317.166 254.871 297.666 264.471 279.066 261.171C267.766 259.071 257.466 252.571 248.866 242.171Z" fill="white"/>
<path d="M265.966 264.871L265.166 264.271C267.366 261.571 268.066 258.971 267.166 256.771C266.166 254.371 263.366 252.771 259.466 252.271L259.566 251.271C263.866 251.771 266.866 253.671 268.066 256.371C269.066 258.871 268.366 261.971 265.966 264.871Z" fill="white"/>
<path d="M318.066 307.071L317.266 306.471C325.366 296.371 327.966 286.271 324.566 277.771C320.866 268.671 310.366 262.471 295.766 260.571L295.866 259.571C311.166 261.471 321.666 267.771 325.466 277.371C329.166 286.171 326.466 296.771 318.066 307.071Z" fill="white"/>
<path d="M360.466 289.771C302.366 289.771 248.566 258.271 231.866 210.371L232.766 210.071C252.666 267.171 325.666 300.771 395.666 284.871L395.866 285.871C384.066 288.471 372.166 289.771 360.466 289.771Z" fill="white"/>
</g>
<mask id="mask8_201_598" style="mask-type:luminance" maskUnits="userSpaceOnUse" x="232" y="210" width="164" height="118">
<path d="M232.366 210.271C252.366 267.671 323.866 293.171 391.966 267.171C399.866 284.171 395.666 305.771 377.766 327.971C317.466 320.371 252.366 267.671 232.366 210.271Z" fill="white"/>
</mask>
<g mask="url(#mask8_201_598)">
<path d="M378.066 328.371H377.766C317.366 320.871 251.966 267.971 231.866 210.371L232.766 210.071C241.166 234.271 259.466 253.871 284.266 265.371C315.966 280.171 355.166 280.571 391.766 266.571L392.166 266.371L392.366 266.771C400.666 284.671 395.566 306.471 378.166 328.071L378.066 328.371ZM242.566 231.771C269.266 279.971 325.266 320.771 377.566 327.371C394.466 306.371 399.466 285.171 391.666 267.771C354.966 281.671 315.666 281.171 283.766 266.371C266.666 258.271 252.466 246.371 242.566 231.771Z" fill="white"/>
</g>
<path d="M201.866 433.271C192.366 433.271 183.066 432.771 173.966 431.571C129.666 426.071 99.0657 407.771 87.9657 380.071C77.7657 354.671 85.4657 324.171 109.766 294.071C161.966 229.471 275.666 185.871 363.166 196.771C407.466 202.271 438.066 220.571 449.166 248.271C459.366 273.671 451.666 304.171 427.366 334.271C380.566 392.171 284.266 433.271 201.866 433.271ZM335.266 196.171C253.066 196.171 157.166 237.071 110.566 294.771C86.4657 324.471 78.8657 354.671 88.8657 379.671C99.8657 406.971 130.166 425.071 174.066 430.471C183.066 431.571 192.366 432.171 201.866 432.171C284.066 432.171 379.966 391.271 426.566 333.571C450.666 303.871 458.266 273.671 448.266 248.671C437.266 221.371 406.966 203.271 363.066 197.871C353.966 196.771 344.766 196.171 335.266 196.171ZM222.566 396.471C215.966 396.471 209.566 396.071 203.366 395.271C172.766 391.471 151.666 378.771 143.966 359.671C136.866 342.071 142.266 320.971 159.066 300.271C195.066 255.671 273.566 225.571 333.966 233.171C364.566 236.971 385.666 249.671 393.366 268.771C400.466 286.371 395.066 307.471 378.266 328.171C345.866 368.071 279.466 396.471 222.566 396.471ZM314.566 232.971C257.966 232.971 191.866 261.171 159.666 300.871C143.066 321.371 137.866 342.071 144.766 359.271C152.366 378.071 173.166 390.471 203.366 394.271C263.466 401.771 341.466 371.771 377.366 327.471C393.966 306.971 399.166 286.271 392.266 269.071C384.666 250.271 363.866 237.871 333.666 234.071C327.466 233.371 321.066 232.971 314.566 232.971Z" fill="white"/>
<mask id="mask9_201_598" style="mask-type:luminance" maskUnits="userSpaceOnUse" x="31" y="44" width="419" height="334">
<path d="M87.3658 377.271L34.8658 226.471C26.5658 202.671 33.4658 173.571 57.5658 143.671C109.766 79.171 222.966 35.6709 310.466 46.5709C357.466 52.4709 387.466 72.7709 397.066 100.371L449.566 251.171C439.966 223.571 409.966 203.171 362.966 197.371C275.466 186.471 162.266 229.971 110.066 294.471C85.9658 324.371 79.1658 353.471 87.3658 377.271Z" fill="white"/>
</mask>
<g mask="url(#mask9_201_598)">
<path d="M174.766 431.671L173.966 431.571C129.666 426.071 99.0657 407.771 87.9657 380.071C77.7657 354.771 85.4657 324.271 109.566 294.371L103.766 277.671C68.9657 269.871 45.0657 253.071 35.4657 229.271C25.2657 203.871 32.9657 173.371 57.2657 143.271L57.8657 142.571L104.566 276.871C109.966 278.071 115.666 279.071 121.666 279.771H121.966L122.066 280.071L174.766 431.671ZM104.966 277.971L110.766 294.571L110.566 294.771C86.4657 324.471 78.8657 354.671 88.8657 379.671C99.7657 406.771 129.766 424.771 173.266 430.371L121.166 280.571C115.566 279.971 110.066 279.071 104.966 277.971ZM57.4657 144.671C33.8657 174.171 26.3657 204.071 36.3657 228.871C45.7657 252.271 69.2657 268.771 103.366 276.571L57.4657 144.671Z" fill="white"/>
<path d="M31.9888 205.157L31.0444 205.485L83.5538 356.306L84.4982 355.977L31.9888 205.157Z" fill="white"/>
<path d="M109.966 295.471L57.0657 143.571L57.2657 143.371C109.466 78.771 223.166 35.171 310.666 46.071H310.966L311.066 46.371L363.866 197.971L363.066 197.871C275.866 186.971 162.566 230.471 110.566 294.771L109.966 295.471ZM58.1657 143.771L110.266 293.471C162.566 229.471 275.166 186.271 362.266 196.771L310.166 47.071C223.166 36.271 110.266 79.671 58.1657 143.771Z" fill="white"/>
<path d="M127.495 87.2232L126.55 87.552L179.06 238.373L180.004 238.044L127.495 87.2232Z" fill="white"/>
<path d="M218.173 52.3372L217.229 52.666L269.738 203.487L270.682 203.158L218.173 52.3372Z" fill="white"/>
<path d="M426.766 334.971L380.066 200.771C374.666 199.571 368.966 198.571 362.966 197.871H362.666L362.566 197.571L309.866 45.9709L310.666 46.0709C354.966 51.5709 385.566 69.8709 396.666 97.5709C406.866 122.871 399.166 153.371 375.066 183.271L380.866 199.971C415.666 207.771 439.566 224.571 449.166 248.371C459.366 273.771 451.666 304.271 427.366 334.371L426.766 334.971ZM381.266 201.071L427.166 332.971C450.766 303.471 458.266 273.571 448.266 248.771C438.866 225.371 415.366 208.771 381.266 201.071ZM363.466 196.971C369.066 197.671 374.566 198.571 379.666 199.771L373.866 183.171L374.066 182.971C398.166 153.271 405.766 123.071 395.766 98.0709C384.866 70.9709 354.866 52.9709 311.366 47.3709L363.466 196.971Z" fill="white"/>
<path d="M378.094 72.3294L377.149 72.6582L429.659 223.479L430.603 223.15L378.094 72.3294Z" fill="white"/>
</g>
<mask id="mask10_201_598" style="mask-type:luminance" maskUnits="userSpaceOnUse" x="31" y="44" width="419" height="334">
<path d="M87.3658 377.271L34.8658 226.471C26.5658 202.671 33.4658 173.571 57.5658 143.671C109.766 79.171 222.966 35.6709 310.466 46.5709C357.466 52.4709 387.466 72.7709 397.066 100.371L449.566 251.171C439.966 223.571 409.966 203.171 362.966 197.371C275.466 186.471 162.266 229.971 110.066 294.471C85.9658 324.371 79.1658 353.471 87.3658 377.271Z" fill="white"/>
</mask>
<g mask="url(#mask10_201_598)">
<path d="M86.9658 377.371L34.4658 226.571C25.8658 201.771 33.9658 172.171 57.2658 143.371C109.466 78.771 223.166 35.171 310.666 46.071C355.966 51.671 387.666 71.471 397.666 100.271L450.166 250.971C450.166 250.971 450.166 250.971 450.166 251.071L449.266 251.371C439.366 222.971 407.966 203.471 363.066 197.871C275.866 186.971 162.566 230.471 110.566 294.771C87.4658 323.371 79.3658 352.571 87.9658 377.071L86.9658 377.371ZM282.766 45.371C200.566 45.371 104.666 86.271 58.0658 143.971C34.9658 172.571 26.8658 201.771 35.4658 226.271L84.3658 366.771C80.8658 344.371 89.7658 318.971 109.866 294.171C162.066 229.571 275.766 185.971 363.266 196.871C403.166 201.871 432.466 217.771 445.766 241.071L396.866 100.571C386.866 72.171 355.466 52.671 310.566 47.071C301.466 45.971 292.266 45.371 282.766 45.371Z" fill="white"/>
</g>
<mask id="mask11_201_598" style="mask-type:luminance" maskUnits="userSpaceOnUse" x="34" y="183" width="393" height="250">
<path d="M34.8657 226.471C44.5657 254.071 74.5657 274.371 121.566 280.271C209.066 291.171 322.266 247.671 374.466 183.171L426.966 333.971C374.766 398.471 261.566 441.971 174.066 431.071C127.066 425.171 97.0657 404.871 87.4657 377.271C71.6657 331.971 50.6657 271.671 34.8657 226.471Z" fill="white"/>
</mask>
<g mask="url(#mask11_201_598)">
<path d="M201.866 433.271C192.366 433.271 183.066 432.771 173.966 431.571H173.666L173.566 431.271L120.766 279.671L121.566 279.771C208.766 290.671 322.066 247.171 374.066 182.871L374.666 182.171L427.566 334.071L427.366 334.271C380.566 392.171 284.266 433.271 201.866 433.271ZM174.366 430.671C261.466 441.371 374.366 398.071 426.366 333.971L374.266 184.271C321.966 248.271 209.366 291.471 122.266 280.971L174.366 430.671Z" fill="white"/>
<path d="M305.583 239.236L304.639 239.565L357.148 390.385L358.093 390.057L305.583 239.236Z" fill="white"/>
<path d="M214.905 274.123L213.96 274.451L266.47 425.272L267.414 424.943L214.905 274.123Z" fill="white"/>
<path d="M174.766 431.671L173.966 431.571C129.666 426.071 99.0657 407.771 87.9657 380.071C77.7657 354.771 85.4657 324.271 109.566 294.371L103.766 277.671C68.9657 269.871 45.0657 253.071 35.4657 229.271C25.2657 203.871 32.9657 173.371 57.2657 143.271L57.8657 142.571L104.566 276.871C109.966 278.071 115.666 279.071 121.666 279.771H121.966L122.066 280.071L174.766 431.671ZM104.966 277.971L110.766 294.571L110.566 294.771C86.4657 324.471 78.8657 354.671 88.8657 379.671C99.7657 406.771 129.766 424.771 173.266 430.371L121.166 280.571C115.566 279.971 110.066 279.071 104.966 277.971ZM57.4657 144.671C33.8657 174.171 26.3657 204.071 36.3657 228.871C45.7657 252.271 69.2657 268.771 103.366 276.571L57.4657 144.671Z" fill="white"/>
<path d="M54.9857 254.129L54.0413 254.458L106.551 405.278L107.495 404.949L54.9857 254.129Z" fill="white"/>
</g>
<mask id="mask12_201_598" style="mask-type:luminance" maskUnits="userSpaceOnUse" x="34" y="183" width="393" height="250">
<path d="M34.8657 226.471C44.5657 254.071 74.5657 274.371 121.566 280.271C209.066 291.171 322.266 247.671 374.466 183.171L426.966 333.971C374.766 398.471 261.566 441.971 174.066 431.071C127.066 425.171 97.0657 404.871 87.4657 377.271C71.6657 331.971 50.6657 271.671 34.8657 226.471Z" fill="white"/>
</mask>
<g mask="url(#mask12_201_598)">
<path d="M201.866 433.271C192.366 433.271 183.066 432.771 173.966 431.571C128.666 425.971 96.9657 406.171 86.9657 377.371L34.4657 226.571L35.3657 226.271C45.2657 254.671 76.6657 274.171 121.566 279.771C208.766 290.671 322.066 247.171 374.066 182.871L374.666 182.171L427.566 334.071L427.366 334.271C380.566 392.171 284.266 433.271 201.866 433.271ZM38.9657 236.571L87.8657 377.071C97.7657 405.471 129.166 424.971 174.066 430.571C261.166 441.471 374.266 398.071 426.366 333.871L374.266 184.171C321.766 248.371 208.666 291.671 121.466 280.771C81.5657 275.771 52.2657 259.871 38.9657 236.571Z" fill="white"/>
</g>
<mask id="mask13_201_598" style="mask-type:luminance" maskUnits="userSpaceOnUse" x="374" y="100" width="80" height="234">
<path d="M449.666 251.171C457.966 274.971 451.066 304.071 426.966 333.971L374.466 183.171C398.666 153.271 405.466 124.171 397.166 100.371C412.966 145.671 433.966 205.971 449.666 251.171Z" fill="white"/>
</mask>
<g mask="url(#mask13_201_598)">
<path d="M426.766 334.971L380.066 200.771C374.666 199.571 368.966 198.571 362.966 197.871H362.666L362.566 197.571L309.866 45.9709L310.666 46.0709C354.966 51.5709 385.566 69.8709 396.666 97.5709C406.866 122.871 399.166 153.371 375.066 183.271L380.866 199.971C415.666 207.771 439.566 224.571 449.166 248.371C459.366 273.771 451.666 304.271 427.366 334.371L426.766 334.971ZM381.266 201.071L427.166 332.971C450.766 303.471 458.266 273.571 448.266 248.771C438.866 225.371 415.366 208.771 381.266 201.071ZM363.466 196.971C369.066 197.671 374.566 198.571 379.666 199.771L373.866 183.171L374.066 182.971C398.166 153.271 405.766 123.071 395.766 98.0709C384.866 70.9709 354.866 52.9709 311.366 47.3709L363.466 196.971Z" fill="white"/>
<path d="M400.995 121.335L400.051 121.664L452.56 272.485L453.505 272.156L400.995 121.335Z" fill="white"/>
</g>
<mask id="mask14_201_598" style="mask-type:luminance" maskUnits="userSpaceOnUse" x="374" y="100" width="80" height="234">
<path d="M449.666 251.171C457.966 274.971 451.066 304.071 426.966 333.971L374.466 183.171C398.666 153.271 405.466 124.171 397.166 100.371C412.966 145.671 433.966 205.971 449.666 251.171Z" fill="white"/>
</mask>
<g mask="url(#mask14_201_598)">
<path d="M426.766 334.971L373.866 183.071L374.066 182.871C397.166 154.271 405.266 125.071 396.666 100.571L397.566 100.271L450.166 251.071C458.766 275.871 450.666 305.471 427.366 334.271L426.766 334.971ZM375.066 183.271L427.166 332.971C449.866 304.571 457.666 275.671 449.266 251.371L400.366 110.871C403.766 133.171 395.066 158.471 375.066 183.271Z" fill="white"/>
</g>
</svg>
