<svg width="467" height="432" viewBox="0 0 467 432" fill="none" xmlns="http://www.w3.org/2000/svg">
<path d="M138.808 432C95.4077 432 76.6077 393.1 60.0077 358.8C58.0077 354.6 56.0077 350.6 54.1077 346.7C51.2077 341 48.2077 335.1 45.3077 329.4C23.3077 286.5 0.507743 242.1 0.00774322 193.7C-0.392257 152.1 14.7077 115.6 44.7077 85.2C72.1077 57.5 112.608 34.8 161.708 19.8C203.108 7.1 249.508 0.1 292.308 0C310.008 0 330.008 1.9 343.508 16.1C355.408 28.6 363.108 46 370.608 62.7C372.908 67.8 375.008 72.6 377.308 77.2C397.508 118.9 414.208 153.6 429.808 190.4L431.808 195.1C447.608 232.3 465.608 274.5 466.008 315.8C466.308 338.5 455.208 350.6 430.108 355C420.408 356.7 410.508 358 400.908 359.2C384.308 361.4 367.208 363.6 350.508 368C324.908 374.8 298.808 385.4 273.708 395.6C230.308 413.2 185.508 431.4 139.608 432C139.408 432 139.108 432 138.808 432ZM292.608 1C292.508 1 292.408 1 292.308 1C249.608 1.1 203.308 8.1 162.008 20.7C113.108 35.7 72.8077 58.3 45.4077 85.9C15.6077 116.1 0.607743 152.4 1.00774 193.7C1.40774 241.9 24.2077 286.2 46.2077 329C49.1077 334.7 52.1077 340.5 55.0077 346.3C57.0077 350.2 58.9077 354.2 61.0077 358.4C77.5077 392.5 96.2077 431 138.908 431.1C139.208 431.1 139.508 431.1 139.708 431.1C185.408 430.6 230.208 412.4 273.408 394.8C298.608 384.6 324.608 374 350.308 367.2C367.108 362.8 384.208 360.5 400.808 358.3C410.308 357.1 420.208 355.8 429.908 354.1C454.408 349.8 465.208 338 465.008 315.9C464.508 274.8 446.608 232.7 430.808 195.6L428.808 190.9C413.208 154.2 396.508 119.4 376.308 77.7C374.108 73.1 371.908 68.2 369.608 63.1C362.108 46.4 354.408 29.2 342.708 16.8C329.608 2.9 310.008 1 292.608 1Z" fill="white"/>
<path d="M136.208 413.2C93.9078 413.2 73.0078 368.2 56.1078 332L55.0078 329.7C35.2078 287.1 14.0078 237.8 12.7078 191C11.7078 155.9 24.1078 124.6 49.6078 97.9001C75.3078 70.9001 114.808 48.6001 164.008 33.3001C203.408 21.0001 248.608 13.5001 288.008 12.7001C330.308 11.8001 345.108 44.4001 360.808 78.9001C361.808 81.1001 362.808 83.3001 363.808 85.5001C370.408 100 377.808 114.8 385.508 130.5C413.808 187.9 445.808 253 446.808 310.9C447.108 329.8 434.408 340.9 407.808 344.6C399.308 345.8 390.708 346.7 382.308 347.7C365.708 349.5 348.608 351.4 331.908 355.2C305.308 361.3 278.308 371.8 252.308 382C214.608 396.8 175.608 412 138.208 413.2C137.408 413.2 136.808 413.2 136.208 413.2ZM137.908 412.2C175.108 411.1 214.008 395.8 251.708 381.1C277.808 370.9 304.808 360.3 331.508 354.2C348.308 350.4 365.508 348.5 382.108 346.6C390.408 345.7 399.008 344.7 407.508 343.5C433.408 339.9 445.908 329.2 445.608 310.8C444.608 253.1 412.608 188.1 384.408 130.8C376.708 115.1 369.408 100.3 362.708 85.7001C361.708 83.5001 360.708 81.3001 359.708 79.1001C344.208 44.9001 329.508 12.6001 287.908 13.4001C248.608 14.2001 203.508 21.7001 164.208 34.0001C115.208 49.3001 75.8078 71.5001 50.3078 98.4001C25.0078 125.1 12.7078 156.2 13.7078 191C15.0078 237.6 36.2078 286.8 56.0078 329.3L57.1078 331.6C74.0078 368 95.2078 413.4 137.908 412.2Z" fill="white"/>
<path d="M131.308 388.8C94.2076 388.8 71.6076 349.3 54.4076 310.4C33.3076 262.6 21.6076 218.8 20.6076 183.9C19.8076 155.9 28.6076 130.5 46.7076 108.3C62.4076 89.0999 85.0076 72.3999 113.908 58.4999C167.608 32.7999 232.808 22.0999 275.908 20.6999C315.108 19.3999 330.208 53.8999 344.808 87.1999L346.308 90.4999C352.308 104.1 358.808 118 365.808 132.6C392.208 188.4 419.508 246.2 420.508 298C420.908 319.4 397.908 326.5 384.108 328.8C373.308 330.6 362.308 331.9 351.708 333.1C338.208 334.6 324.208 336.2 310.508 339C285.208 344.2 259.208 353.5 234.208 362.6C198.708 375.4 165.208 387.5 133.308 388.8C132.708 388.8 132.008 388.8 131.308 388.8ZM278.108 21.5999C277.408 21.5999 276.708 21.5999 276.008 21.5999C233.008 22.9999 168.008 33.6999 114.408 59.2999C85.6076 73.0999 63.1076 89.7999 47.5076 108.8C29.5076 130.8 20.8076 156 21.6076 183.7C22.6076 218.5 34.2076 262.2 55.3076 309.9C72.4076 348.5 94.7076 387.7 131.308 387.7C132.008 387.7 132.708 387.7 133.408 387.7C165.208 386.4 198.608 374.4 234.008 361.6C259.108 352.5 285.108 343.2 310.508 338C324.208 335.2 338.208 333.6 351.808 332.1C362.408 330.9 373.408 329.6 384.108 327.8C397.608 325.5 420.108 318.6 419.608 298C418.508 246.4 391.308 188.8 365.008 133.1C358.108 118.4 351.508 104.6 345.508 90.8999L344.008 87.5999C329.808 55.0999 315.008 21.5999 278.108 21.5999Z" fill="white"/>
<path d="M124.408 359.9C96.5078 359.9 72.9078 336.6 52.4078 288.8C35.8078 250.2 25.7078 208.1 24.7078 173.1C24.0078 147.9 32.1078 125 48.8078 104.9C63.2078 87.4999 84.1078 72.2999 110.708 59.5999C160.308 35.9999 219.408 26.0999 258.108 24.7999C295.908 23.4999 312.408 61.6999 325.608 92.2999C330.208 102.9 335.108 113.7 340.208 125.1C362.508 174.4 387.808 230.3 389.208 278.4C390.108 307.8 341.008 313 308.608 316.5C300.208 317.4 293.008 318.2 287.608 319.2C265.008 323.5 241.608 331 219.008 338.3C186.308 348.8 155.308 358.7 126.408 359.9C125.808 359.9 125.108 359.9 124.408 359.9ZM260.008 25.6999C259.408 25.6999 258.808 25.6999 258.208 25.6999C219.508 26.9999 160.608 36.8999 111.208 60.3999C84.7078 72.9999 64.0078 88.1999 49.7078 105.4C33.1078 125.3 25.1078 148 25.8078 173C26.8078 207.8 36.9078 249.9 53.4078 288.4C73.8078 335.8 97.1078 358.9 124.508 358.9C125.208 358.9 125.808 358.9 126.508 358.9C155.308 357.7 186.108 347.8 218.808 337.3C241.408 330 264.808 322.5 287.508 318.2C292.908 317.2 300.208 316.4 308.608 315.5C340.708 312.1 389.208 306.9 388.308 278.4C386.908 230.5 361.608 174.7 339.408 125.5C334.208 114.1 329.408 103.3 324.808 92.6999C311.808 62.7999 295.808 25.6999 260.008 25.6999Z" fill="white"/>
<path d="M116.108 327.5C103.208 327.5 91.0078 322.2 79.8078 311.6C59.7078 292.6 46.9078 260.8 39.7078 237.4C30.1078 206.2 26.3078 176.6 25.8078 159.4C24.6078 107 67.5078 75.3001 103.708 57.9001C148.608 36.3001 201.208 27.2001 235.508 25.8001C272.608 24.3001 290.508 65.8001 301.108 90.6001C303.508 96.2001 306.008 102 308.608 107.8C329.008 154.5 352.208 207.5 353.708 253.7C354.608 283 308.608 289.3 278.108 293.5C272.108 294.3 266.808 295 262.608 295.8C244.008 299.3 224.708 304.6 206.108 309.8C176.308 318 145.408 326.5 117.708 327.5C117.208 327.5 116.708 327.5 116.108 327.5ZM237.508 26.8001C236.908 26.8001 236.208 26.8001 235.608 26.8001C203.008 28.1001 149.108 37.2001 104.208 58.8001C68.2078 76.1001 25.6078 107.6 26.9078 159.4C27.3078 176.5 31.1078 205.9 40.7078 237.1C47.8078 260.3 60.5078 292 80.5078 310.8C92.0078 321.6 104.508 326.9 117.708 326.4C145.308 325.4 176.108 317 205.908 308.7C224.608 303.5 243.908 298.2 262.508 294.7C266.708 293.9 272.008 293.2 278.008 292.4C308.108 288.3 353.608 282.1 352.708 253.7C351.208 207.7 328.108 154.9 307.708 108.2C305.208 102.4 302.708 96.7001 300.208 91.0001C286.808 59.9001 269.808 26.8001 237.508 26.8001Z" fill="white"/>
<path d="M106.508 292.5C93.1075 292.5 80.7075 287.2 69.8075 276.7C38.1075 246.2 25.4075 179 24.8075 143.8C24.1075 97.8001 61.6075 69.4001 93.1075 53.7001C133.608 33.6001 181.108 25.6001 209.608 24.8001C224.908 24.4001 238.107 30.9001 249.908 44.8001C260.008 56.7001 267.508 72.3001 273.508 86.0001C290.608 125.3 314.107 179 315.307 225.3C316.107 255.3 274.408 262.4 246.807 267.1C243.007 267.8 239.408 268.4 236.308 269C223.608 271.5 210.508 274.6 197.808 277.5C167.708 284.5 136.608 291.8 107.808 292.5C107.308 292.5 106.908 292.5 106.508 292.5ZM210.908 25.8001C210.508 25.8001 210.008 25.8001 209.608 25.8001C181.308 26.5001 133.908 34.5001 93.6075 54.6001C62.3075 70.2001 25.1075 98.3001 25.8075 143.7C26.3075 178.7 38.9075 245.6 70.5075 275.9C81.6075 286.5 94.1075 291.8 107.708 291.4C136.308 290.7 167.408 283.4 197.508 276.4C210.208 273.4 223.308 270.4 236.008 267.9C239.108 267.3 242.708 266.7 246.608 266C273.908 261.4 315.107 254.3 314.307 225.2C313.008 179.1 289.708 125.5 272.608 86.3001C258.808 54.9001 241.807 25.8001 210.908 25.8001Z" fill="white"/>
<path d="M95.6077 256.1C82.0077 256.1 69.9077 251.1 59.6077 241.2C47.2077 229.3 37.5077 210.6 30.8077 185.7C23.8077 159.7 22.7077 135.9 22.5077 126.8C22.1077 107.3 29.7077 89.4 45.1077 73.7C77.4077 40.6 139.608 22.6 181.608 22.5C181.708 22.5 181.708 22.5 181.808 22.5C213.108 22.5 229.608 49.6 242.808 78.9C270.908 141.4 274.608 174.9 274.908 194.7C275.408 225.2 238.108 233 213.508 238.2C211.808 238.6 210.208 238.9 208.608 239.2C174.208 246.6 135.208 255.1 96.9077 256C96.5077 256.1 96.1077 256.1 95.6077 256.1ZM181.908 23.5C181.808 23.5 181.808 23.5 181.708 23.5C139.808 23.6 78.0077 41.5 45.9077 74.4C30.7077 90 23.2077 107.6 23.6077 126.8C23.8077 135.8 25.0077 159.5 31.9077 185.4C38.5077 210.1 48.1077 228.6 60.4077 240.4C70.8077 250.4 83.1077 255.3 97.0077 255C135.208 254.1 174.208 245.7 208.508 238.3C210.108 238 211.708 237.6 213.408 237.3C237.808 232.2 274.608 224.4 274.008 194.8C273.308 153.7 255.408 109.2 241.908 79.4C228.908 50.4 212.608 23.5 181.908 23.5Z" fill="white"/>
<path d="M85.6079 219.2C72.2079 219.2 60.4079 214.1 50.4079 203.9C40.1079 193.5 31.8079 177.7 26.4079 158.2C22.0079 142.4 19.6079 124.8 19.9079 109.7C20.3079 84.4999 37.8079 60.8999 69.1079 43.0999C94.8079 28.5999 127.808 19.3999 153.208 19.7999C183.608 20.2999 203.108 50.5999 214.208 75.9999C227.608 106.8 233.908 142.1 234.208 163.5C234.308 172.3 231.008 180.2 224.308 187C195.408 216.5 111.108 219.1 85.9079 219.2C85.8079 219.2 85.7079 219.2 85.6079 219.2ZM151.408 20.7999C126.408 20.7999 94.4079 29.7999 69.4079 43.9999C38.4079 61.4999 21.1079 84.8999 20.7079 109.7C20.0079 152.2 35.9079 188 51.0079 203.2C60.8079 213.1 72.4079 218.2 85.5079 218.2C85.6079 218.2 85.7079 218.2 85.7079 218.2C110.808 218.1 194.808 215.5 223.408 186.3C229.908 179.7 233.108 172 233.008 163.5C232.708 142.2 226.408 107.1 213.008 76.3999C202.108 51.2999 182.808 21.2999 152.908 20.7999C152.508 20.7999 152.008 20.7999 151.408 20.7999Z" fill="white"/>
<path d="M76.8078 182.8C76.2078 182.8 75.6078 182.8 75.1078 182.8C63.3078 182.7 52.8078 178 43.7078 168.7C25.8078 150.2 17.0078 116.6 17.6078 92.9C18.1078 73.2 32.5078 53.9 58.0078 38.5C79.4078 25.7 105.708 17.4 125.208 17.6C136.908 17.7 147.808 22.9 157.708 33C182.908 58.7 194.208 107.9 193.908 133C193.708 153 177.308 167.3 145.408 175.5C120.808 181.7 92.5078 182.8 76.8078 182.8ZM124.708 18.5C105.508 18.5 79.5078 26.6 58.5078 39.3C43.9078 48.1 19.2078 66.7 18.5078 92.8C17.9078 116.3 26.6078 149.6 44.4078 167.9C53.3078 177 63.6078 181.7 75.1078 181.7C90.4078 181.8 119.808 180.9 145.308 174.4C176.708 166.4 192.808 152.4 193.008 132.9C193.308 107.9 182.108 59.1 157.108 33.6C147.408 23.7 136.708 18.6 125.308 18.5C125.008 18.5 124.908 18.5 124.708 18.5Z" fill="white"/>
<path d="M67.4076 147.9C66.5076 147.9 65.7076 147.9 65.0076 147.9C55.0076 147.7 45.8076 143.4 37.8076 135C23.1076 119.6 16.0076 94.3001 16.5076 77.2001C17.5076 43.6001 71.9076 16.3001 99.3076 16.6001C109.208 16.7001 118.608 21.3001 127.308 30.3001C145.608 49.3001 156.008 83.1001 155.408 104.7C155.008 121.2 142.808 133.4 119.208 140.8C98.9076 147.2 76.6076 147.9 67.4076 147.9ZM98.9076 17.6001C71.7076 17.6001 18.5076 44.3001 17.5076 77.3001C17.0076 94.2001 24.0076 119.2 38.5076 134.4C46.3076 142.6 55.2076 146.8 65.0076 147C97.8076 147.5 153.608 139.2 154.508 104.8C155.108 83.9001 144.608 49.7001 126.608 31.1001C118.108 22.3001 108.908 17.8001 99.3076 17.7001C99.2076 17.6001 99.1076 17.6001 98.9076 17.6001Z" fill="white"/>
<path d="M56.9079 115.6C56.7079 115.6 56.5079 115.6 56.3079 115.6C47.9079 115.5 39.9079 111.7 33.1079 104.4C22.1079 92.5999 17.0079 74.9999 17.7079 63.6999C18.3079 53.1999 26.4079 41.5999 39.8079 31.8999C52.2079 22.8999 66.4079 17.4999 76.9079 17.8999C101.108 18.6999 120.708 56.7999 120.108 80.1999C119.808 92.2999 111.208 102 95.3079 108.5C82.1079 113.7 66.5079 115.6 56.9079 115.6ZM75.9079 18.6999C54.0079 18.6999 20.0079 42.2999 18.7079 63.6999C18.0079 74.7999 23.0079 92.0999 33.9079 103.7C40.5079 110.8 48.3079 114.5 56.4079 114.6C76.6079 114.8 118.508 106.5 119.208 80.0999C119.508 68.6999 114.808 53.4999 107.208 41.1999C102.208 32.9999 91.5079 19.2999 77.0079 18.7999C76.6079 18.6999 76.3079 18.6999 75.9079 18.6999Z" fill="white"/>
<path d="M50.7076 86.7999C50.3076 86.7999 49.9076 86.7999 49.5077 86.7999C43.2076 86.5999 36.9077 83.3999 31.7077 77.7999C25.3077 70.8999 21.5077 61.0999 21.9077 52.8999C22.7077 36.6999 45.7077 22.0999 59.1077 21.8999C64.9076 21.8999 70.7077 24.5999 75.9077 29.8999C83.8077 37.8999 89.1077 50.5999 88.9077 60.6999C88.7077 66.3999 86.3077 71.4999 81.8077 75.7999C73.7077 83.3999 60.3076 86.7999 50.7076 86.7999ZM59.4077 22.9999C59.3077 22.9999 59.3076 22.9999 59.2076 22.9999C46.1076 23.0999 23.8077 37.2999 23.0077 52.9999C22.6077 60.8999 26.3077 70.3999 32.5077 77.0999C37.5077 82.4999 43.5076 85.5999 49.6076 85.7999C59.0076 86.0999 73.0076 82.8999 81.2076 75.0999C85.5076 70.9999 87.8077 66.1999 88.0077 60.6999C88.3077 50.9999 83.0077 38.3999 75.3077 30.6999C70.3077 25.5999 64.8077 22.9999 59.4077 22.9999Z" fill="white"/>
<path d="M44.4077 62.6001C41.0077 62.6001 37.7077 61.2001 35.1077 58.7001C31.8077 55.5001 29.9077 50.7001 30.0077 45.9001C30.2077 38.9001 37.9077 30.5001 47.5077 30.0001C50.7077 29.9001 54.0077 31.3001 56.9077 34.2001C60.7077 38.0001 63.2077 43.5001 63.1077 48.0001C62.9077 57.0001 53.8077 62.1001 45.0077 62.6001C44.8077 62.6001 44.6077 62.6001 44.4077 62.6001ZM48.0077 31.1001C47.9077 31.1001 47.7077 31.1001 47.6077 31.1001C40.3077 31.4001 31.2077 38.2001 31.1077 46.0001C31.0077 50.5001 32.8077 55.0001 35.9077 58.0001C38.5077 60.5001 41.7077 61.8001 45.1077 61.6001C53.4077 61.2001 62.0077 56.4001 62.2077 48.0001C62.3077 43.8001 60.0077 38.6001 56.3077 35.0001C53.7077 32.4001 50.8077 31.1001 48.0077 31.1001Z" fill="white"/>
</svg>
