<svg width="485" height="333" viewBox="0 0 485 333" fill="none" xmlns="http://www.w3.org/2000/svg">
<path d="M425.6 145.971C407.7 143.771 397.4 134.471 386.6 124.571C378.9 117.571 370.9 110.271 359.7 105.671C353 102.971 346.2 102.071 339.6 101.271C330.6 100.171 321.4 98.9714 312.5 93.0714C300 84.6713 290.7 72.1713 281.7 60.1713C279.9 57.7713 278.2 55.4713 276.4 53.1713C275.5 51.9713 274.6 50.7713 273.7 49.5713C258.1 29.0713 238.6 3.47134 215.7 1.17134C205 0.0713383 194.3 4.27134 183.8 13.4713C165.6 29.3713 151.6 50.6713 138 71.2713C118.9 100.271 99.2 130.171 67.4 145.671L67 144.771C98.5 129.371 118.2 99.5713 137.2 70.6713C150.8 50.0713 164.9 28.6713 183.2 12.6713C193.9 3.27134 204.9 -0.928662 215.9 0.171338C239.3 2.57134 258.9 28.2713 274.6 48.9713C275.5 50.1713 276.4 51.3713 277.3 52.5713C279.1 54.8713 280.8 57.2713 282.6 59.6713C291.5 71.6713 300.8 84.0713 313.1 92.3713C321.8 98.1713 330.5 99.2713 339.8 100.471C346.5 101.271 353.3 102.171 360.1 104.971C371.4 109.571 379.5 116.871 387.3 123.971C398 133.671 408.1 142.871 425.8 145.071L425.6 145.971Z" fill="white"/>
<path d="M427.5 151.772C409.3 149.572 399 140.372 388.1 130.572C380.7 123.972 373 117.072 362.6 112.372C355.7 109.272 348.5 108.472 341.5 107.672C333.5 106.772 325.2 105.872 317.3 101.572C302.1 93.2715 290.7 77.8715 280.6 64.2715C279.2 62.3715 277.8 60.5715 276.5 58.7715C259.8 36.7715 239.1 9.27153 214.4 7.47153C202.3 6.57153 190.6 11.7715 178.6 23.5715C163.4 38.4715 150.7 57.3715 138.3 75.7715C118.3 105.572 97.7 136.372 65.4 151.572L65 150.672C97 135.572 117.6 104.972 137.5 75.2715C149.8 56.8715 162.6 37.8715 177.9 22.8715C189.9 11.0715 202.2 5.57153 214.5 6.57153C239.6 8.47153 260.5 36.0715 277.3 58.2715C278.7 60.0715 280 61.8715 281.4 63.7715C291.4 77.2715 302.8 92.5715 317.8 100.772C325.5 104.972 333.7 105.872 341.6 106.772C348.7 107.572 356 108.372 363 111.572C373.6 116.372 381.3 123.272 388.8 129.872C399.6 139.572 409.8 148.672 427.7 150.872L427.5 151.772Z" fill="white"/>
<path d="M429.3 157.771C411.1 155.571 400.5 146.271 389.4 136.571C381.8 129.871 373.9 123.071 363.3 118.371C356.4 115.371 349.1 114.471 342.1 113.771C333.9 112.871 325.5 111.971 317.5 107.571C302.2 99.1714 290.7 83.7714 280.5 70.2714C279.1 68.3714 277.7 66.5714 276.3 64.7714C260.3 43.7714 238.5 15.2714 213.6 13.4714C201.4 12.5714 189.5 17.8714 177.4 29.6714C162.2 44.4714 149.4 63.3714 137 81.6714C116.8 111.471 95.8999 142.471 63.2999 157.471L62.8999 156.571C95.1999 141.671 116.1 110.871 136.2 81.0714C148.6 62.7714 161.4 43.7714 176.7 28.8714C188.9 17.0714 201.3 11.4714 213.7 12.3714C239 14.2714 261 42.9714 277 63.8714C278.4 65.6714 279.8 67.5714 281.2 69.4714C291.4 82.9714 302.9 98.2714 317.9 106.471C325.7 110.771 334 111.671 342.1 112.571C349.2 113.371 356.6 114.171 363.6 117.271C374.4 121.971 382.3 128.971 389.9 135.671C401 145.371 411.4 154.471 429.3 156.671V157.771Z" fill="white"/>
<path d="M431.3 163.771C413 161.471 402.2 152.271 390.8 142.471C383 135.771 374.9 128.871 364.2 124.271C357.2 121.271 349.9 120.471 342.8 119.671C334.5 118.771 325.9 117.771 317.8 113.371C302.4 104.971 290.7 89.5715 280.4 75.9715C279 74.0715 277.5 72.1715 276.1 70.3715C260.1 49.6715 238.1 21.2715 212.9 19.4715C200.5 18.5715 188.5 23.8715 176.2 35.7715C160.9 50.4715 148.1 69.3715 135.6 87.5715C115.1 117.571 93.9001 148.671 61.0001 163.471L60.6001 162.571C93.3001 147.871 114.4 116.971 134.8 87.0715C147.3 68.7715 160.2 49.9715 175.5 35.0715C187.8 23.1715 200.4 17.5715 213 18.4715C238.6 20.2715 260.7 48.8715 276.9 69.7715C278.3 71.5715 279.7 73.4715 281.2 75.3715C292 89.4715 303.1 104.171 318.3 112.471C326.2 116.871 334.7 117.771 342.9 118.671C350.1 119.471 357.4 120.271 364.6 123.371C375.5 128.071 383.6 135.071 391.5 141.771C402.8 151.471 413.4 160.571 431.4 162.771L431.3 163.771Z" fill="white"/>
<path d="M433.2 169.971C414.9 167.771 403.7 158.471 391.8 148.571C383.3 141.471 374.5 134.271 362.9 129.771C356.3 127.271 349.6 126.371 343 125.471C334.6 124.371 325.8 123.171 317.6 118.571C302.4 110.171 291.3 95.9712 280.6 82.1712C279.1 80.1712 277.5 78.2712 276 76.2712C273.9 73.6712 271.9 71.0712 269.8 68.1712C258.7 53.6712 246.1 37.2712 229.8 29.2712C204.5 16.7712 185.9 30.8712 171 46.2712C158 59.7712 146.3 76.6712 135 92.9712C113.9 123.571 92 155.171 58.9 169.471L58.5 168.571C91.4 154.371 113.1 122.871 134.2 92.3712C145.5 75.9712 157.2 59.0713 170.3 45.5712C185.4 29.8712 204.4 15.5712 230.3 28.2712C246.9 36.4712 259.5 52.9712 270.7 67.4712C272.9 70.2712 274.9 72.9712 276.9 75.4712C278.4 77.3712 280 79.3712 281.5 81.3712C292.1 95.0712 303.1 109.171 318.2 117.471C326.3 121.971 334.9 123.071 343.3 124.171C349.9 125.071 356.8 125.971 363.4 128.471C375.2 132.971 384 140.371 392.6 147.471C404.4 157.271 415.5 166.471 433.5 168.671L433.2 169.971Z" fill="white"/>
<path d="M435.2 176.271C416.9 173.971 405.4 164.671 393.3 154.871C384.6 147.771 375.6 140.471 363.8 136.071C357.2 133.571 350.4 132.671 343.8 131.871C335.2 130.771 326.4 129.571 317.9 124.971C302.6 116.471 291.4 102.271 280.6 88.5714C279 86.5714 277.5 84.5714 275.9 82.6714C273.9 80.1714 271.8 77.4714 269.7 74.7714C258.4 60.2714 245.6 43.7714 229 35.7714C203.5 23.4714 184.7 37.6714 169.7 53.0714C156.6 66.5714 144.9 83.3714 133.5 99.6714C112.1 130.371 90.0001 162.071 56.5001 176.271L56.1001 175.371C89.3001 161.371 111.3 129.671 132.7 99.1714C144.1 82.8714 155.8 65.9714 169 52.4714C184.2 36.7714 203.3 22.3714 229.4 34.9714C246.2 43.0714 259.1 59.6714 270.4 74.2714C272.5 77.0714 274.6 79.6714 276.6 82.1714C278.2 84.0714 279.7 86.0714 281.3 88.0714C292.1 101.771 303.2 115.871 318.3 124.271C326.6 128.871 335.3 129.971 343.8 131.071C350.4 131.971 357.3 132.871 364 135.371C376 139.871 385 147.271 393.8 154.371C405.8 164.171 417.2 173.371 435.2 175.571V176.271Z" fill="white"/>
<path d="M437.2 182.271C418.8 179.971 406.6 170.271 394.8 160.871C385.9 153.771 376.6 146.371 364.6 141.971C358 139.571 351.1 138.671 344.5 137.771C335.8 136.671 326.8 135.471 318.2 130.771C302.8 122.271 291.5 108.071 280.5 94.2712C278.9 92.2712 277.3 90.2712 275.7 88.2712C273.7 85.7712 271.7 83.1712 269.5 80.4712C258 65.8712 245 49.3712 228.2 41.3712C202.6 29.2712 183.6 43.4712 168.5 58.9712C155.5 72.4712 143.7 89.2712 132.3 105.471C110.6 136.271 88.2001 168.071 54.5001 182.071L54.1001 181.171C87.6001 167.371 109.9 135.571 131.5 104.871C142.9 88.5712 154.8 71.7712 167.9 58.3712C183.3 42.6712 202.5 28.2712 228.7 40.5712C245.8 48.6712 258.8 65.2712 270.4 79.9712C272.5 82.6712 274.5 85.2712 276.6 87.7712C278.2 89.7712 279.8 91.7712 281.4 93.7712C292.3 107.471 303.6 121.571 318.8 129.971C327.2 134.571 336.1 135.771 344.7 136.871C351.4 137.771 358.2 138.671 365 141.071C377.2 145.571 386.4 152.971 395.4 160.071C407.6 169.871 419.2 179.071 437.3 181.271L437.2 182.271Z" fill="white"/>
<path d="M439 188.271C420.6 186.071 408.1 176.171 396.1 166.671C386.5 159.071 376.5 151.171 363.5 147.071C357.2 145.071 350.8 144.371 344.6 143.671C335.2 142.571 325.5 141.471 316.3 135.871C301.9 127.071 290.7 113.171 280 99.6713C278.5 97.7713 277.1 95.9713 275.6 94.1713C256.1 70.0713 235 46.3713 210.8 44.5713C197.8 43.5713 185.1 48.9713 172 60.9713C156.4 75.3713 143 94.2713 130 112.671C108.5 143.171 86.1998 174.671 52.1998 188.171L51.7998 187.271C85.4998 173.871 107.7 142.471 129.2 112.171C142.2 93.7713 155.6 74.7713 171.3 60.3713C184.5 48.1713 197.5 42.7713 210.8 43.7713C235.4 45.5713 256.6 69.4713 276.3 93.7713C277.8 95.5713 279.2 97.3713 280.7 99.2713C291.4 112.671 302.5 126.571 316.8 135.271C325.8 140.771 335 141.771 344.7 142.871C350.9 143.571 357.4 144.371 363.8 146.371C377 150.571 387 158.471 396.7 166.171C409.2 176.071 421 185.371 439.1 187.571L439 188.271Z" fill="white"/>
<path d="M441 194.371C422.5 192.071 409.8 182.271 397.5 172.771C387.6 165.171 377.5 157.271 364.2 153.171C357.9 151.171 351.5 150.471 345.3 149.771C335.8 148.671 326 147.571 316.6 141.971C302 133.171 290.8 119.271 279.9 105.671C278.4 103.771 276.9 101.971 275.4 100.171C255.7 76.1714 234.5 52.4714 210.1 50.7714C196.9 49.8714 184.1 55.1714 170.9 67.2714C155.2 81.5714 141.7 100.471 128.7 118.771C106.9 149.371 84.3001 180.971 50.0001 194.271L49.6001 193.371C83.6001 180.171 106.1 148.671 127.8 118.171C140.9 99.8714 154.4 80.8714 170.1 66.4714C183.5 54.1714 196.6 48.6714 210.1 49.6714C234.9 51.4714 256.3 75.2714 276.1 99.4714C277.6 101.271 279.1 103.171 280.6 105.071C291.4 118.471 302.6 132.371 317 141.071C326.1 146.571 335.4 147.671 345.3 148.771C351.5 149.471 358 150.171 364.4 152.171C377.8 156.371 388 164.271 398 171.971C410.7 181.871 422.8 191.171 441 193.371V194.371Z" fill="white"/>
<path d="M443.2 201.271C424.6 198.971 411.7 189.171 399.1 179.671C389 171.971 378.6 164.071 365.1 159.971C358.8 158.071 352.3 157.271 346.1 156.571C336.5 155.471 326.5 154.371 317 148.671C302.3 139.871 290.9 125.871 279.9 112.371C278.4 110.471 276.8 108.571 275.3 106.771C273.7 104.871 272.2 102.971 270.6 101.071C258 85.6713 245 69.6713 227.2 61.2713C203.5 50.0713 187 58.3713 169.6 74.1713C153.9 88.4713 140.3 107.271 127.2 125.471C105.1 156.171 82.2001 187.971 47.5001 201.071L47.1001 200.171C81.5001 187.171 104.3 155.571 126.3 124.971C139.5 106.671 153.1 87.7713 168.9 73.4713C186.6 57.3713 203.4 48.9713 227.6 60.3713C245.5 68.8713 258.6 84.8713 271.3 100.371C272.9 102.271 274.4 104.271 276 106.071C277.5 107.871 279.1 109.771 280.6 111.671C291.6 125.071 302.9 138.971 317.4 147.771C326.7 153.371 336.1 154.471 346.1 155.571C352.4 156.271 358.8 156.971 365.3 158.971C378.9 163.071 389.4 171.071 399.6 178.771C412.6 188.571 424.9 197.971 443.2 200.171V201.271Z" fill="white"/>
<path d="M445.5 208.671C426.8 206.371 413.6 196.571 400.9 187.171C391.1 179.871 381 172.371 368.3 168.071C361.3 165.671 354.1 164.771 347.2 163.871C337 162.571 326.4 161.171 316.5 155.071C302.1 146.271 291 132.871 280.2 119.971C278.5 117.971 276.9 115.971 275.2 114.071C273.3 111.771 271.3 109.371 269.3 107.071C257.4 92.6712 245 77.7712 229 69.4712C201.5 55.1712 181.8 68.5712 164.7 85.2712C151 98.5712 139.1 114.871 126.5 132.171C103.6 163.571 79.8001 196.071 44.9001 208.671L44.6001 207.771C79.2001 195.271 102.9 162.871 125.7 131.571C138.4 114.271 150.3 97.8712 164 84.5712C181.4 67.6712 201.3 54.0712 229.4 68.6712C245.6 77.0712 258.6 92.7712 270 106.571C272 108.971 273.9 111.371 275.9 113.571C277.6 115.571 279.2 117.471 280.9 119.471C291.6 132.371 302.7 145.671 317 154.371C326.8 160.371 336.7 161.671 347.3 163.071C354.3 163.971 361.5 164.871 368.6 167.271C381.4 171.571 391.6 179.171 401.4 186.471C414.6 196.271 427.1 205.571 445.6 207.771L445.5 208.671Z" fill="white"/>
<path d="M447.8 215.871C429 213.571 415.5 203.771 402.5 194.371C392.5 187.071 382.1 179.571 369.2 175.271C362.2 172.971 355 171.971 348.1 171.071C337.7 169.771 327 168.371 316.9 162.171C302.4 153.371 291.1 139.971 280.2 127.071C278.5 125.071 276.8 123.071 275.1 121.071C273.2 118.871 271.2 116.471 269.3 114.171C257.1 99.6714 244.6 84.7714 228.3 76.4714C200.5 62.3714 180.7 75.8714 163.5 92.4714C149.8 105.771 137.7 121.971 125 139.271C101.7 170.771 77.7001 203.371 42.4001 215.771L42.1001 214.871C77.1001 202.571 101 170.071 124.2 138.671C136.9 121.371 149 105.071 162.8 91.7715C180.3 74.8715 200.4 61.1715 228.8 75.5715C245.3 83.9715 258.5 99.6715 270.1 113.571C272.1 115.871 274 118.171 275.9 120.471C277.6 122.471 279.3 124.471 281 126.471C291.9 139.371 303.1 152.671 317.5 161.371C327.4 167.471 337.6 168.771 348.3 170.171C355.3 171.071 362.5 171.971 369.6 174.371C382.6 178.671 393.1 186.271 403.2 193.571C416.7 203.371 429.4 212.671 448 214.971L447.8 215.871Z" fill="white"/>
<path d="M450.1 223.271C431.2 220.971 417.4 211.171 404 201.671C393.2 193.971 381.9 186.071 368.1 182.071C361.5 180.171 354.9 179.371 348.6 178.571C337.3 177.171 326.7 175.871 315.8 168.871C301.7 159.771 290.4 146.371 279.4 133.471C277.9 131.671 276.4 129.971 274.9 128.171C255.3 105.371 232.2 80.8714 205.9 79.2714C191.9 78.4714 178.6 84.0714 165 96.5714C150.1 110.271 137.2 127.571 123.6 145.971C99.8998 177.971 75.3998 210.971 39.5998 223.071L39.2998 222.171C74.7998 210.271 99.1998 177.271 122.8 145.471C136.5 127.071 149.4 109.671 164.3 95.8714C178.1 83.2714 191.7 77.4714 205.9 78.3714C232.5 79.9714 255.8 104.571 275.6 127.571C277.1 129.271 278.6 131.071 280.1 132.871C291 145.671 302.3 158.971 316.3 168.071C327 174.971 337.5 176.271 348.7 177.671C355.1 178.471 361.6 179.271 368.4 181.171C382.4 185.171 393.7 193.171 404.6 200.871C417.9 210.271 431.6 219.971 450.2 222.271L450.1 223.271Z" fill="white"/>
<path d="M452.5 230.471C433.5 228.171 419.4 218.371 405.8 208.871C394.7 201.171 383.2 193.171 369.1 189.271C362.4 187.371 355.9 186.571 349.6 185.871C338.2 184.471 327.3 183.171 316.3 176.071C302.1 166.971 290.6 153.571 279.5 140.671C278 138.871 276.4 137.071 274.9 135.371C255.1 112.671 231.8 88.2713 205.3 86.6713C191.1 85.8713 177.6 91.5713 163.9 104.071C149 117.671 136 134.971 122.3 153.371C98.3 185.471 73.5 218.571 37.3 230.471L37 229.471C72.8 217.771 97.6 184.671 121.5 152.771C135.3 134.371 148.3 117.071 163.3 103.371C177.2 90.6713 191 84.8713 205.5 85.6713C232.4 87.2713 255.9 111.771 275.8 134.671C277.3 136.471 278.9 138.171 280.4 139.971C291.4 152.771 302.9 166.071 317 175.171C327.9 182.171 338.6 183.471 349.9 184.871C356.3 185.671 362.8 186.471 369.6 188.371C383.9 192.371 395.4 200.371 406.6 208.171C420.1 217.571 434.1 227.271 452.9 229.571L452.5 230.471Z" fill="white"/>
<path d="M454.8 237.871C435.5 235.571 421.2 225.771 407.5 216.371C396.8 209.071 385.8 201.471 372.3 197.271C365.3 195.071 358.1 194.271 351.1 193.571C341 192.471 330.5 191.271 320.6 185.871C304.8 177.071 292.4 162.871 280.4 149.171C278.5 146.971 276.6 144.771 274.6 142.571C272.8 140.571 271 138.471 269.2 136.471C257.1 122.671 244.7 108.471 228.9 99.8713C204.9 86.7713 183.2 91.5713 158.5 115.371C145.2 128.171 133.3 143.971 120.6 160.771C96.2001 193.071 71.0001 226.571 34.4001 238.071L34.1001 237.071C70.4001 225.671 95.5001 192.371 119.8 160.171C132.4 143.371 144.4 127.571 157.8 114.671C182.9 90.5713 204.9 85.6713 229.4 99.0713C245.3 107.771 257.8 122.071 269.9 135.971C271.7 138.071 273.5 140.071 275.3 142.071C277.2 144.271 279.1 146.371 281.1 148.671C293 162.371 305.4 176.471 321 185.171C330.7 190.571 340.6 191.671 351.1 192.771C358.1 193.571 365.4 194.371 372.5 196.571C386.1 200.771 397.3 208.471 408 215.771C422.3 225.571 435.8 234.771 454.9 237.071L454.8 237.871Z" fill="white"/>
<path d="M457.1 245.271C437.7 242.971 423.2 233.172 409.2 223.772C398.3 216.372 386.9 208.772 373.2 204.672C366.1 202.572 358.9 201.772 351.9 200.972C341.6 199.872 331 198.672 320.9 193.172C305 184.372 292.4 170.172 280.3 156.372C278.3 154.172 276.4 151.872 274.4 149.772C272.6 147.772 270.8 145.772 269 143.772C256.7 129.972 244.1 115.672 228.1 107.072C203.9 94.0715 182 98.9715 157 122.772C143.6 135.572 131.6 151.372 118.9 168.072C94.1998 200.572 68.5998 234.072 31.5998 245.372L31.2998 244.372C67.9998 233.271 93.3998 199.772 118.1 167.472C130.8 150.772 142.9 134.972 156.3 122.072C181.6 97.8715 203.9 93.0715 228.5 106.272C244.6 114.872 257.4 129.272 269.7 143.172C271.5 145.172 273.3 147.172 275 149.172C277 151.372 278.9 153.572 280.9 155.772C293 169.472 305.5 183.572 321.3 192.272C331.2 197.772 341.3 198.872 351.9 199.972C358.9 200.772 366.2 201.572 373.3 203.672C387.2 207.872 398.6 215.572 409.6 222.972C423.5 232.272 437.9 241.971 457.1 244.271V245.271Z" fill="white"/>
<path d="M459.4 252.571C439.8 250.171 425.1 240.471 410.9 231.071C399.7 223.671 388.1 216.071 374.2 211.871C367.1 209.771 359.9 208.971 352.9 208.171C342.5 207.071 331.7 205.871 321.4 200.271C305.4 191.471 292.6 177.271 280.3 163.471C278.3 161.171 276.3 158.971 274.3 156.771C272.5 154.871 270.8 152.871 269 150.871C256.5 136.971 243.7 122.671 227.5 114.071C214.2 107.071 201.7 105.371 189.3 108.771C178.5 111.771 167.9 118.471 155.8 129.871C142.3 142.671 130.2 158.371 117.4 175.071C92.3998 207.671 66.4998 241.271 29.0998 252.371L28.7998 251.371C65.7998 240.471 91.5998 206.871 116.5 174.471C129.3 157.771 141.5 141.971 155 129.171C167.2 117.571 178 110.771 188.9 107.771C201.6 104.271 214.3 105.971 227.8 113.171C244.1 121.771 257.1 136.171 269.6 150.171C271.4 152.171 273.1 154.071 274.9 156.071C276.9 158.271 278.9 160.471 280.9 162.771C293.1 176.471 305.8 190.671 321.7 199.371C331.8 204.871 342 205.971 352.8 207.171C359.8 207.971 367.1 208.671 374.3 210.871C388.4 215.071 400 222.771 411.3 230.171C425.5 239.471 440.1 249.171 459.4 251.471V252.571Z" fill="white"/>
<path d="M26.3 260.371L26 259.371C63.2 248.871 88.7 215.871 113.5 183.971C127.5 165.971 141.9 147.371 158 133.571C204.3 94.0714 241.1 126.871 274.9 163.771C276.5 165.571 278.1 167.271 279.7 169.071C292.2 182.871 305.1 197.171 321.4 206.271C331.9 212.171 342.5 213.371 353.8 214.671C360.2 215.371 366.9 216.171 373.5 217.871C388.6 221.771 401.1 229.871 413.3 237.771C427.8 247.171 442.8 256.871 462.1 259.271L462 260.271C442.4 257.971 427.3 248.171 412.7 238.671C400.6 230.871 388.2 222.771 373.2 218.871C366.6 217.171 360 216.371 353.6 215.671C342.3 214.371 331.6 213.171 320.9 207.171C304.5 197.971 291.5 183.671 278.9 169.771C277.3 167.971 275.7 166.171 274.1 164.471C240.7 127.871 204.2 95.3713 158.6 134.371C142.6 148.071 128.2 166.671 114.2 184.671C89.4 216.671 63.7 249.871 26.3 260.371Z" fill="white"/>
<path d="M23.0002 269.471L22.7002 268.471C60.3002 258.271 86.3002 225.071 111.4 193.071C125.5 175.071 140.1 156.471 156.3 142.771C203.2 103.171 240.4 135.771 274.6 172.671C276.2 174.471 277.9 176.271 279.6 178.071C292.3 191.871 305.4 206.271 321.9 215.371C332.6 221.371 343.4 222.571 354.9 223.871C361.3 224.571 368 225.371 374.7 227.071C390.1 230.971 402.9 239.071 415.4 246.971C430.2 256.371 445.5 266.071 465 268.471L464.9 269.471C445.1 267.071 429.7 257.371 414.9 247.871C402.5 239.971 389.7 231.871 374.5 228.071C367.9 226.371 361.3 225.671 354.9 224.871C343.4 223.571 332.5 222.271 321.5 216.271C304.9 207.071 291.7 192.671 279 178.771C277.3 176.971 275.7 175.171 274 173.371C240.2 136.871 203.2 104.471 157.1 143.571C141 157.171 126.4 175.771 112.3 193.671C87.0002 225.871 60.9002 259.071 23.0002 269.471Z" fill="white"/>
<path d="M19.8 278.571L19.5 277.571C57.9 267.671 84.7 233.771 110.6 200.971C125.5 182.171 140.9 162.771 158 148.671C178.3 132.071 199 128.771 221.1 138.471C241 147.271 259.1 165.271 274.4 181.471C276.4 183.671 278.5 185.771 280.5 187.971C292.7 201.071 305.3 214.571 320.7 223.571C332.2 230.371 343.6 231.571 355.6 232.871C362.9 233.671 370.4 234.471 378 236.571C392.8 240.671 405.3 248.471 417.4 256.071C432.4 265.471 447.9 275.071 467.7 277.471L467.6 278.471C447.5 276.071 431.9 266.371 416.9 256.971C404.9 249.471 392.5 241.671 377.8 237.671C370.2 235.571 362.8 234.771 355.6 233.971C343.5 232.671 332 231.471 320.3 224.571C304.8 215.471 292.1 201.871 279.9 188.771C277.9 186.571 275.8 184.371 273.8 182.271C258.5 166.171 240.5 148.171 220.8 139.471C199 129.871 178.7 133.171 158.7 149.471C141.6 163.471 127 181.971 111.5 201.571C85.4 234.571 58.5 268.571 19.8 278.571Z" fill="white"/>
<path d="M16.4998 287.571L16.2998 286.571C55.0998 276.871 82.2998 242.871 108.6 209.971C123.6 191.171 139.1 171.771 156.4 157.871C176.9 141.271 197.8 137.871 220.1 147.471C240.4 156.271 258.7 174.171 274.2 190.371C276.3 192.571 278.4 194.771 280.5 196.971C292.9 210.071 305.6 223.571 321.2 232.571C333 239.371 344.5 240.671 356.7 241.971C364 242.771 371.5 243.571 379.2 245.671C394.3 249.771 407.1 257.571 419.5 265.171C434.8 274.471 450.6 284.171 470.6 286.571L470.5 287.571C450.3 285.171 434.4 275.471 419 266.071C406.7 258.571 393.9 250.771 379 246.671C371.4 244.571 363.9 243.771 356.7 243.071C344.4 241.771 332.7 240.571 320.8 233.571C305.1 224.471 292.3 210.871 279.9 197.771C277.8 195.571 275.7 193.371 273.6 191.171C258.1 175.071 239.9 157.171 219.8 148.471C197.8 138.971 177.3 142.271 157.1 158.671C139.9 172.571 125.1 191.071 109.5 210.671C82.9998 243.671 55.6998 277.771 16.4998 287.571Z" fill="white"/>
<path d="M13.4002 296.171L13.2002 295.171C52.2002 285.871 80.2002 251.371 107.3 218.071C121.8 200.171 135.6 183.171 150.8 170.071C199 128.671 239.7 163.171 274.1 198.771C276.1 200.771 278 202.871 280 204.971C293.8 219.471 308 234.371 325.7 243.371C336.2 248.671 346.9 249.771 358.2 250.871C364.7 251.471 371.5 252.171 378.2 253.771C394.4 257.571 408.1 265.771 421.4 273.671C437.1 283.071 453.3 292.671 473.4 295.071L473.3 296.071C452.9 293.671 436.6 283.971 420.9 274.571C407.7 266.671 394 258.571 378 254.771C371.4 253.171 364.6 252.571 358.1 251.871C347.2 250.771 336 249.671 325.3 244.271C307.5 235.271 293.2 220.171 279.3 205.671C277.3 203.571 275.4 201.571 273.4 199.471C239.3 164.171 199 129.971 151.5 170.771C136.3 183.771 122.6 200.771 108.1 218.671C80.9002 252.171 52.8002 286.871 13.4002 296.171Z" fill="white"/>
<path d="M10.2 304.971L10 303.971C49.4 294.971 77.8 260.371 105.2 226.871C119.9 208.971 133.7 192.071 149.1 178.971C197.8 137.471 239 171.871 273.8 207.371C275.8 209.371 277.8 211.471 279.8 213.571C293.8 228.071 308.2 242.971 326.1 251.971C336.8 257.371 347.7 258.471 359.2 259.571C365.8 260.171 372.5 260.871 379.3 262.471C395.7 266.271 409.8 274.471 423.4 282.471C439.4 291.771 455.9 301.471 476.2 303.871L476.1 304.871C455.6 302.471 439 292.771 422.9 283.371C409.4 275.471 395.4 267.271 379.1 263.471C372.4 261.971 365.7 261.271 359.2 260.671C348.1 259.571 336.7 258.471 325.8 252.971C307.8 243.871 293.3 228.871 279.3 214.371C277.3 212.271 275.3 210.171 273.3 208.171C238.8 172.971 198 138.871 149.9 179.771C134.6 192.771 120.8 209.671 106.1 227.471C78.5 261.171 50 295.871 10.2 304.971Z" fill="white"/>
<path d="M6.9998 314.072L6.7998 313.072C46.5998 304.472 75.3998 269.672 103.2 236.072C116.9 219.472 129.9 203.772 144 191.272C161.9 175.472 184.2 160.672 214.4 171.072C236.2 178.672 253.1 195.672 269.4 212.072C270.8 213.472 272.2 214.872 273.6 216.372C275.9 218.672 278.1 220.972 280.4 223.272C294.1 237.272 308.3 251.672 325.8 260.372C337.2 266.072 348.5 267.272 360.5 268.572C367.8 269.372 375.3 270.172 382.8 272.172C398.6 276.172 412.3 284.072 425.5 291.672C441.7 300.972 458.4 310.572 479 312.972L478.9 313.972C458.1 311.572 441.3 301.872 425 292.572C411.8 284.972 398.2 277.172 382.5 273.172C375.1 271.272 367.6 270.472 360.3 269.672C348.8 268.372 336.8 267.072 325.3 261.372C307.7 252.572 293.4 238.072 279.7 224.072C277.4 221.772 275.2 219.472 272.9 217.172C271.5 215.772 270.1 214.372 268.7 212.872C252.5 196.472 235.7 179.572 214 172.072C184.3 161.772 162.3 176.372 144.6 192.072C130.6 204.472 117.6 220.172 103.9 236.772C75.9998 270.472 47.1998 305.372 6.9998 314.072Z" fill="white"/>
<path d="M3.5999 323.371L3.3999 322.371C43.3999 314.171 72.3999 279.571 100.4 246.071C115.7 227.771 130.2 210.471 146.3 197.371C167.1 180.471 186.8 171.271 215.1 181.271C236.9 189.071 253.9 205.971 270.3 222.271L273.4 225.371C275.4 227.371 277.4 229.371 279.4 231.371C293.2 245.271 307.5 259.571 324.6 268.871C336.6 275.371 348.4 276.471 360.9 277.771C367.7 278.471 374.8 279.171 381.9 280.771C398.7 284.571 413.3 292.871 427.4 300.771C444 310.171 461.2 319.871 482 322.271L481.9 323.271C460.9 320.871 443.6 311.071 426.9 301.671C412.9 293.771 398.4 285.571 381.7 281.771C374.7 280.171 367.6 279.471 360.9 278.771C348.3 277.471 336.3 276.371 324.2 269.771C306.9 260.471 292.6 246.071 278.8 232.071C276.8 230.071 274.8 228.071 272.8 226.071L269.7 222.971C253.4 206.671 236.5 189.871 214.9 182.171C187 172.271 167.6 181.371 147.1 198.071C131.1 211.071 116.6 228.371 101.3 246.671C73.0999 280.371 43.8999 315.171 3.5999 323.371Z" fill="white"/>
<path d="M0.2 332.971L0 331.971C40.4 323.971 69.9 289.271 98.3 255.771C113.8 237.471 128.4 220.271 144.6 207.171C165.6 190.171 185.5 180.971 214 190.871C236.2 198.571 253.5 215.571 270.2 232.071L273.1 234.971C275.1 236.971 277.2 238.971 279.3 241.071C293.3 254.971 307.7 269.271 325.1 278.571C337.3 285.071 349.3 286.271 362.1 287.571C368.9 288.271 376 288.971 383.1 290.571C400.2 294.371 415.1 302.671 429.6 310.571C446.5 319.971 464 329.571 485 331.971L484.9 332.971C463.7 330.571 446.1 320.771 429.1 311.371C414.7 303.371 399.9 295.171 382.9 291.471C375.8 289.871 368.8 289.171 362 288.571C349.2 287.271 337 286.071 324.7 279.471C307.3 270.171 292.7 255.771 278.7 241.771C276.6 239.771 274.6 237.671 272.6 235.671L269.7 232.771C253 216.371 235.8 199.471 213.8 191.871C185.7 182.071 166.1 191.271 145.3 207.971C129.2 220.971 114.6 238.171 99.1 256.471C70.5 290.071 40.9 324.971 0.2 332.971Z" fill="white"/>
</svg>
