<svg width="485" height="246" viewBox="0 0 485 246" fill="none" xmlns="http://www.w3.org/2000/svg">
<path d="M425.6 1.22499C315.7 0.924992 198.5 0.924992 67.2998 1.22499V0.225C198.5 -0.075 315.7 -0.075 425.6 0.225V1.22499Z" fill="white"/>
<path d="M187.7 12.125C179.1 12.125 170.5 12.025 162 11.625C150.4 11.125 138.8 10.125 127.5 9.22501C107.2 7.62501 86.1998 5.82501 65.2998 6.72501V5.72501C86.1998 4.82501 107.3 6.62501 127.6 8.22501C138.9 9.12501 150.6 10.125 162.1 10.625C180.3 11.425 199 11.125 217.1 10.825C226.7 10.625 236.7 10.525 246.4 10.525C255.6 10.525 265.1 10.725 274.2 10.825C292.8 11.125 312.1 11.425 330.8 10.425C340.7 9.92503 350.7 9.12502 360.4 8.32502C382.3 6.52502 405 4.72502 427.5 6.02502L427.4 7.02502C404.9 5.72502 382.3 7.52502 360.4 9.32502C350.7 10.125 340.7 10.925 330.7 11.425C311.9 12.425 292.6 12.125 274 11.825C264.9 11.625 255.5 11.525 246.2 11.525C236.5 11.525 226.5 11.725 216.9 11.825C207.4 11.925 197.5 12.125 187.7 12.125Z" fill="white"/>
<path d="M194.5 30.3249C182.9 30.3249 171.4 29.8249 160.3 28.2249C148.4 26.5249 136.6 23.8249 125.2 21.3249C105.2 16.8249 84.5 12.2249 63 12.6249V11.6249C84.6 11.2249 105.3 15.8249 125.4 20.3249C136.8 22.8249 148.5 25.5249 160.4 27.2249C179.8 30.0249 200.6 29.4249 220.6 28.7249C229 28.4249 237.7 28.2249 246.1 28.2249C254 28.2249 262.2 28.4249 270.1 28.7249C290.7 29.3249 311.9 29.9249 332 26.7249C342.5 25.0249 352.9 22.7249 362.9 20.5249C384.2 15.8249 406.2 10.9249 429.2 12.0249V13.0249C406.4 11.9249 385.4 16.6249 363.2 21.5249C353.1 23.7249 342.7 26.0249 332.2 27.7249C312.1 30.9249 290.8 30.3249 270.1 29.8249C262.2 29.6249 254 29.3249 246.1 29.3249C237.7 29.3249 229 29.6249 220.6 29.8249C212.1 30.0249 203.3 30.3249 194.5 30.3249Z" fill="white"/>
<path d="M198.5 53.9251C184.7 53.9251 171.1 52.9251 158.7 49.4251C146.3 45.9251 134.5 41.0251 123.1 36.2251C102.6 27.8251 83.3998 19.8251 60.7998 18.7251V17.7251C83.4998 18.7251 103.7 27.2251 123.3 35.3251C134.7 40.0251 146.5 44.9251 158.8 48.4251C178.6 54.0251 201.1 53.1251 223 52.2251C231 51.9251 238.6 51.6251 246 51.6251C253 51.6251 260.1 51.9251 267.6 52.1251C289.9 52.9251 312.9 53.7251 333.4 47.4251C344.4 44.0251 355 39.6251 365.3 35.4251C386.8 26.5251 407.2 18.1251 431.2 17.9251V18.9251C407.4 19.1251 387.1 27.5251 365.7 36.3251C355.4 40.6251 344.8 44.9251 333.8 48.3251C313.2 54.6251 290 53.8251 267.7 53.0251C260.2 52.7251 253.1 52.5251 246.1 52.5251C238.7 52.5251 231.1 52.8251 223.1 53.1251C215 53.6251 206.7 53.9251 198.5 53.9251Z" fill="white"/>
<path d="M203.2 80.725C185.8 80.725 168.8 79.125 153.8 72.025C142.5 66.625 131.8 59.825 121.5 53.225C101.5 40.425 82.5 28.325 58.5 25.125L58.6 24.125C82.8 27.325 102.7 40.025 122 52.325C132.3 58.925 142.9 65.625 154.2 71.025C175.3 81.025 200.7 80.025 225.4 79.125C232.6 78.825 239.3 78.625 245.9 78.625C252.3 78.625 258.9 78.925 265.9 79.125C288.6 80.025 312.1 81.025 331.7 72.625C344.7 67.125 356.6 59.425 368.2 52.025C387.8 39.425 408.1 26.425 433.2 24.225L433.3 25.225C408.4 27.425 389.2 39.725 368.8 52.825C357.2 60.225 345.2 67.925 332.2 73.525C312.4 82.025 288.8 81.025 266 80.125C259 79.825 252.5 79.625 246 79.625C239.4 79.625 232.6 79.925 225.5 80.125C218.1 80.425 210.6 80.725 203.2 80.725Z" fill="white"/>
<path d="M285.1 109.125C278.3 109.125 271.4 108.825 264.6 108.525C258 108.225 251.8 108.025 245.7 108.025C239.4 108.025 233.1 108.225 226.4 108.525C200.3 109.525 173.3 110.625 151.9 96.6248C140.4 89.1248 129.8 79.8248 119.6 70.8248C101 54.4248 81.7002 37.4248 56.2002 31.5248L56.4002 30.5248C82.2002 36.5248 101.5 53.6248 120.3 70.1248C130.5 79.1248 141 88.3248 152.5 95.8248C173.7 109.625 200.5 108.625 226.5 107.525C233.2 107.225 239.6 107.025 245.9 107.025C252 107.025 258.2 107.325 264.8 107.525C288.7 108.525 313.5 109.525 333.1 98.1248C346.5 90.3248 358.4 79.7248 369.9 69.5248C388.9 52.7248 408.5 35.3248 435.2 30.4248L435.4 31.4248C409 36.2248 389.5 53.5248 370.6 70.3248C359.1 80.5248 347.1 91.1248 333.6 99.0248C319.3 107.325 302.4 109.125 285.1 109.125Z" fill="white"/>
<path d="M284.5 131.325C277.8 131.325 271 131.025 264.3 130.725C257.8 130.425 251.7 130.225 245.7 130.225C239.5 130.225 233.3 130.425 226.6 130.725C199.6 131.825 171.7 132.925 150.2 116.225C138.6 107.225 128.2 96.025 118.2 85.225C99.9 65.525 81 45.225 54 37.625L54.3 36.625C81.5 44.225 100.5 64.725 118.9 84.525C128.9 95.325 139.3 106.425 150.8 115.425C172 131.825 199.7 130.725 226.5 129.725C232.8 129.425 239.4 129.225 245.6 129.225C251.6 129.225 257.8 129.525 264.3 129.725C289 130.725 314.5 131.825 334.1 118.525C347.9 109.125 359.7 96.325 371.2 83.925C389.7 63.825 408.9 43.025 437 36.625L437.2 37.625C409.4 43.925 390.4 64.625 371.9 84.625C360.4 97.025 348.6 109.925 334.7 119.425C320.3 129.225 302.7 131.325 284.5 131.325Z" fill="white"/>
<path d="M286.2 155.325C278.9 155.325 271.5 154.925 264.5 154.625C257.8 154.325 251.5 153.925 245.6 153.925C239.5 153.925 233.3 154.225 226.7 154.425C200.1 155.525 172.6 156.725 152.1 139.925C138.4 128.625 127 113.925 116 99.6251C98.3999 76.7251 80.0999 53.1251 51.8999 43.7251L52.1999 42.8251C80.6999 52.3251 98.9999 76.1251 116.7 99.1251C127.7 113.325 139 128.125 152.7 139.225C172.9 155.825 200.2 154.625 226.6 153.525C233.2 153.225 239.4 153.025 245.5 153.025C251.4 153.025 257.7 153.325 264.4 153.725C287.9 154.925 314.6 156.325 332.4 143.325C348 131.825 360.5 115.425 372.5 99.5251C390.5 75.7251 409.2 51.1251 438.8 42.7251L439.1 43.7251C409.7 52.0251 391.2 76.5251 373.3 100.125C361.2 116.025 348.7 132.525 333 144.125C320.4 153.225 303.4 155.325 286.2 155.325Z" fill="white"/>
<path d="M286.1 176.925C278.8 176.925 271.4 176.525 264.3 176.225C257.6 175.925 251.3 175.525 245.4 175.525C239.2 175.525 232.8 175.825 226.5 176.025C199.1 177.125 170.9 178.325 150.2 159.425C136.3 146.725 125.2 129.925 114.4 113.725C97.1001 87.7252 79.2001 60.8252 49.6001 49.8252L49.9001 48.9252C79.7001 60.0252 97.7001 87.1252 115.2 113.225C126 129.425 137.1 146.125 150.9 158.725C171.3 177.425 199.3 176.225 226.5 175.125C232.8 174.825 239.3 174.625 245.5 174.625C251.4 174.625 257.7 174.925 264.4 175.325C288.7 176.625 316.2 178.025 333.9 163.625C350 150.625 362.3 131.725 374.2 113.525C391.8 86.6252 409.9 58.8252 440.9 48.8252L441.2 49.8252C410.6 59.8252 392.5 87.4252 375.1 114.125C363.2 132.425 350.8 151.325 334.6 164.425C321.7 174.625 304 176.925 286.1 176.925Z" fill="white"/>
<path d="M287.1 185.525C279.5 185.525 271.9 185.125 264.5 184.725C257.7 184.325 251.2 184.025 245.2 184.025C238.9 184.025 232.3 184.325 226 184.525C198.2 185.725 169.5 186.925 148.7 167.725C134.8 154.925 123.7 137.925 112.9 121.425C95.4001 94.825 77.3001 67.225 47.1001 56.525L47.4001 55.625C77.9001 66.325 96.1001 94.125 113.7 120.925C124.5 137.325 135.6 154.325 149.4 167.025C169.9 185.925 198.4 184.725 226 183.525C232.4 183.225 239 183.025 245.3 183.025C251.3 183.025 257.8 183.325 264.6 183.725C289.2 185.025 317.1 186.525 334.9 172.325C351.4 159.125 363.8 139.825 375.8 121.125C393.4 93.725 411.6 65.425 443 55.625L443.3 56.625C412.3 66.325 394.2 94.525 376.6 121.725C364.5 140.525 352.1 159.825 335.4 173.125C322.8 183.225 305.1 185.525 287.1 185.525Z" fill="white"/>
<path d="M286.1 192.625C278.9 192.625 271.6 192.325 264.6 191.925C257.8 191.625 251.3 191.325 245.2 191.325C238.8 191.325 232.2 191.625 225.8 191.825C196.7 192.925 166.7 194.125 144.5 172.025C132.5 160.025 122.2 144.625 112.2 129.625C94.0001 102.325 75.1001 74.1248 44.6001 63.8248L44.9001 62.9248C75.7001 73.2248 94.7001 101.625 113 129.125C123 144.025 133.3 159.425 145.2 171.325C167 193.125 196.9 191.925 225.7 190.825C232.1 190.525 238.8 190.325 245.2 190.325C251.4 190.325 257.9 190.625 264.7 190.925C290.7 192.125 320.2 193.625 339.4 176.725C354 163.825 365.7 146.125 376.9 128.925C395 101.325 413.8 72.7248 445.4 62.9248L445.7 63.9248C414.4 73.6248 395.7 102.025 377.7 129.525C366.4 146.825 354.7 164.625 340 177.525C325.7 190.025 305.9 192.625 286.1 192.625Z" fill="white"/>
<path d="M286.8 199.925C279.4 199.925 272 199.525 264.8 199.225C257.8 198.925 251.3 198.525 245 198.525C238.5 198.525 231.8 198.825 225.3 199.025C195.9 200.125 165.5 201.325 143.1 179.125C131 167.225 120.6 151.725 110.5 136.825C92 109.425 72.8 81.1249 42 71.0249L42.3 70.0249C73.4 80.2249 92.7 108.725 111.4 136.225C121.5 151.125 131.9 166.425 143.9 178.325C166.1 200.225 196.2 199.025 225.4 197.925C231.9 197.625 238.6 197.425 245.1 197.425C251.4 197.425 258 197.725 264.9 198.125C291.2 199.425 320.9 200.825 340.3 184.125C355.3 171.225 367.2 153.225 378.7 135.925C397 108.425 415.9 79.9249 447.8 70.0249L448.1 71.0249C416.6 80.8249 397.8 109.125 379.6 136.525C368 153.925 356.1 171.925 341 184.925C326.5 197.325 306.7 199.925 286.8 199.925Z" fill="white"/>
<path d="M287.9 207.425C280.4 207.425 272.8 207.025 265.2 206.725C258 206.325 251.3 206.025 244.7 206.025C238.1 206.025 231.5 206.325 224.4 206.625C195.5 207.925 165.6 209.325 144.3 189.625C131 177.225 119.7 160.725 108.8 144.625C90.0002 116.925 70.5002 88.3249 39.2002 78.5249L39.5002 77.5249C71.1002 87.4249 90.7002 116.125 109.7 144.025C120.6 160.025 131.8 176.525 145.1 188.825C166.1 208.225 195.7 206.925 224.4 205.625C231.5 205.325 238.2 205.025 244.8 205.025C251.4 205.025 258.1 205.325 265.3 205.725C291.3 207.025 318.2 208.325 338 194.025C356 180.925 369.3 161.025 382.1 141.825C399.9 115.025 418.4 87.3249 450.1 77.6249L450.4 78.6249C419.1 88.2249 400.7 115.725 383 142.425C370.1 161.725 356.8 181.625 338.7 194.925C324.3 205.125 306.5 207.425 287.9 207.425Z" fill="white"/>
<path d="M288.6 214.725C281 214.725 273.2 214.325 265.5 213.925C258.2 213.525 251.3 213.225 244.7 213.225C238.1 213.225 231.3 213.525 224.2 213.825C195 215.125 164.8 216.525 143.2 196.725C129.8 184.425 118.4 167.825 107.4 151.825C88.1998 124.025 68.3998 95.3251 36.7998 85.7251L37.0998 84.7251C69.0998 94.4251 88.9998 123.325 108.2 151.225C119.2 167.125 130.6 183.625 143.9 195.925C165.2 215.525 195.2 214.125 224.2 212.825C231.4 212.525 238.1 212.225 244.8 212.225C251.5 212.225 258.3 212.525 265.6 212.925C291.9 214.225 319 215.625 339 201.325C357.5 188.125 371 168.125 384 148.825C402 122.125 420.7 94.5251 452.5 84.8251L452.8 85.8251C421.3 95.5251 402.8 122.925 384.9 149.525C371.8 168.925 358.2 189.025 339.6 202.325C325.1 212.425 307.2 214.725 288.6 214.725Z" fill="white"/>
<path d="M287.9 221.925C280.3 221.925 272.7 221.525 265.3 221.225C258 220.925 251.1 220.525 244.5 220.525C237.7 220.525 230.7 220.825 223.8 221.125C193.3 222.325 161.8 223.625 138.4 200.725C126.5 189.025 116 174.025 105.9 159.425C86.3 131.325 66.1 102.325 34 93.0249L34.3 92.0249C66.7 101.425 87.1 130.525 106.8 158.825C116.9 173.325 127.4 188.325 139.2 199.925C162.2 222.525 193.5 221.325 223.8 220.025C230.6 219.725 237.7 219.425 244.5 219.425C251.2 219.425 258 219.725 265.3 220.125C292.1 221.425 322.5 222.825 343.1 206.025C358.8 193.225 371.5 175.025 383.8 157.425C402.9 130.025 422.6 101.725 454.6 92.0249L454.9 93.0249C423.2 102.625 403.6 130.825 384.6 158.025C372.3 175.625 359.6 193.925 343.7 206.825C328.6 219.325 308.2 221.925 287.9 221.925Z" fill="white"/>
<path d="M288.5 229.425C280.7 229.425 272.9 229.025 265.4 228.725C258 228.325 251 228.025 244.3 228.025C237.4 228.025 230.3 228.325 223.4 228.625C192.6 229.825 160.7 231.125 137 208.125C125.1 196.525 114.4 181.525 104.2 166.925C84.3999 138.725 63.7999 109.625 31.3999 100.525L31.6999 99.5248C64.4999 108.725 85.1999 137.925 105.2 166.225C115.4 180.725 126 195.725 137.9 207.225C161.3 229.925 192.9 228.725 223.5 227.425C230.4 227.125 237.5 226.825 244.4 226.825C251.1 226.825 258.2 227.125 265.6 227.525C292.7 228.825 323.4 230.325 344.2 213.625C360.3 200.725 373.3 182.425 385.8 164.725C405.1 137.525 425 109.325 457.1 99.4248L457.4 100.425C425.6 110.125 405.7 138.225 386.6 165.325C374 183.125 361.1 201.425 344.8 214.425C329.5 226.825 309 229.425 288.5 229.425Z" fill="white"/>
<path d="M289.2 236.725C281.3 236.725 273.3 236.325 265.6 235.925C258.1 235.525 250.9 235.225 244.1 235.225C237.2 235.225 230 235.525 223 235.825C191.9 237.025 159.7 238.325 135.6 215.225C123.6 203.625 112.9 188.625 102.5 174.125C82.3998 145.925 61.4998 116.725 28.7998 107.825L29.0998 106.825C62.1998 115.825 83.1998 145.125 103.5 173.525C113.8 187.925 124.5 202.925 136.5 214.425C160.2 237.325 192.2 236.025 223.1 234.825C230.1 234.525 237.3 234.225 244.2 234.225C251 234.225 258.2 234.525 265.7 234.925C293 236.225 324 237.725 345 221.225C361.5 208.225 374.7 189.825 387.5 171.925C406.9 144.825 427 116.725 459.3 106.825L459.6 107.825C427.6 117.625 407.6 145.525 388.3 172.525C375.5 190.425 362.2 208.925 345.6 222.025C330.3 234.125 309.8 236.725 289.2 236.725Z" fill="white"/>
<path d="M291.8 245.625C283.1 245.625 274.3 245.125 265.8 244.725C258 244.325 250.7 243.925 244 243.925C237.2 243.925 230.1 244.225 223.2 244.425C192.9 245.625 161.6 246.825 137.9 226.425C123.4 213.925 111.2 197.125 99.2998 180.925C79.2998 153.525 58.4998 125.125 25.7998 115.625L26.0998 114.625C59.0998 124.125 79.9998 152.725 100.1 180.225C111.9 196.425 124.1 213.125 138.5 225.525C161.9 245.725 193 244.525 223.1 243.325C230 243.025 237.1 242.825 243.9 242.825C250.6 242.825 258 243.225 265.7 243.625C292.6 245.025 323.1 246.725 342.8 232.625C361.7 219.025 376.1 199.225 390 179.925C409.3 153.225 429.3 125.525 461.7 114.825L462 115.725C429.9 126.425 410 153.925 390.8 180.525C376.8 199.825 362.4 219.725 343.4 233.425C329.8 243.325 311 245.625 291.8 245.625Z" fill="white"/>
<path d="M293.8 239.125C284.7 239.125 275.4 238.625 266.6 238.125C258.5 237.725 250.8 237.225 243.8 237.225C236.8 237.225 229.4 237.525 222.3 237.825C192 239.025 160.6 240.225 136.3 221.725C121.8 210.625 109.2 196.025 97.0002 181.825C76.1002 157.625 54.5002 132.525 22.7002 124.625L22.9002 123.625C55.1002 131.525 76.8002 156.725 97.8002 181.125C110 195.225 122.5 209.825 137 220.825C161 239.125 192.2 237.825 222.3 236.725C229.4 236.425 236.8 236.125 243.8 236.125C250.8 236.125 258.5 236.525 266.7 237.025C293.5 238.525 324 240.125 344.2 227.325C363 215.425 377.9 197.925 392.4 181.025C412.6 157.425 433.4 133.025 464.7 123.925L465 124.925C434 134.025 413.2 158.325 393.2 181.725C378.7 198.725 363.7 216.225 344.8 228.225C330.9 237.025 312.6 239.125 293.8 239.125Z" fill="white"/>
<path d="M295.5 227.225C286.2 227.225 276.8 226.725 267.7 226.325C259.2 225.925 251.1 225.425 243.6 225.425C236.2 225.425 228.5 225.825 220.3 226.225C192.5 227.525 161.1 229.025 138.2 215.125C123 205.825 109.3 193.225 96.0999 181.025C73.7999 160.425 50.6999 139.025 19.3999 133.825L19.5999 132.825C51.0999 138.025 74.2999 159.525 96.7999 180.225C110 192.425 123.6 204.925 138.7 214.225C161.3 228.025 192.6 226.525 220.2 225.225C228.4 224.825 236.1 224.425 243.5 224.425C251 224.425 259.1 224.825 267.7 225.325C295.1 226.725 326.2 228.325 348.2 215.825C364.9 206.325 379.4 192.925 393.4 179.925C415 160.025 437.3 139.425 467.6 132.925L467.8 133.925C437.7 140.325 415.5 160.825 394 180.625C379.9 193.625 365.4 207.025 348.6 216.625C333.8 225.125 314.7 227.225 295.5 227.225Z" fill="white"/>
<path d="M298.2 216.325C288.4 216.325 278.6 215.825 269.2 215.325C260.1 214.825 251.5 214.425 243.5 214.425C235.7 214.425 227.5 214.825 218.8 215.225C190.4 216.525 161 217.825 137.5 206.525C122.3 199.225 108.3 189.325 94.6999 179.625C71.0999 162.925 46.7999 145.725 16.3999 142.625L16.4999 141.625C47.0999 144.725 71.5999 162.025 95.2999 178.825C108.9 188.425 122.9 198.325 138 205.625C161.3 216.825 190.6 215.525 218.8 214.225C227.5 213.825 235.7 213.425 243.5 213.425C251.6 213.425 260.2 213.825 269.3 214.325C296 215.625 326.2 217.225 348.8 207.025C365.4 199.625 380.5 188.925 395.1 178.625C417.8 162.525 441.2 146.025 470.6 141.725L470.7 142.725C441.6 146.925 418.3 163.425 395.7 179.425C381.1 189.825 365.9 200.525 349.2 207.925C334.3 214.625 316.3 216.325 298.2 216.325Z" fill="white"/>
<path d="M300.4 204.825C290.5 204.825 280.6 204.425 270.7 204.025C261.1 203.625 252 203.225 243.2 203.225C234.8 203.225 226.2 203.525 217.1 203.925C188.6 205.025 159.1 206.125 133.5 196.625C119.7 191.525 106.5 184.725 93.7002 178.225C68.7002 165.525 42.8002 152.425 13.2002 151.325V150.325C43.1002 151.425 69.0002 164.625 94.1002 177.325C106.9 183.825 120.1 190.525 133.8 195.625C159.1 205.125 188.5 203.925 217 202.825C226.1 202.425 234.7 202.125 243.1 202.125C252 202.125 261.1 202.525 270.7 202.925C296.4 204.025 323 205.125 346.2 198.725C364.7 193.625 381.8 184.825 398.3 176.425C421.4 164.625 445.3 152.325 473.1 150.225L473.2 151.225C445.7 153.325 421.9 165.525 398.8 177.325C382.2 185.825 365.1 194.625 346.5 199.725C332.1 203.725 316.4 204.825 300.4 204.825Z" fill="white"/>
<path d="M303.8 194.625C293.5 194.625 283.1 194.325 272.9 193.925C263 193.625 252.8 193.225 243.1 193.225C233.8 193.225 224.1 193.525 214.7 193.825C187.2 194.725 158.8 195.625 132.9 189.325C119.3 186.025 105.9 181.625 92.9001 177.325C66.4001 168.825 39.2001 159.825 10.1001 160.225V159.225C39.4001 158.825 66.7001 167.825 93.2001 176.525C106.2 180.825 119.5 185.225 133.1 188.525C158.9 194.825 187.3 193.925 214.7 193.025C224.1 192.725 233.8 192.425 243.1 192.425C252.9 192.425 263.1 192.725 273 193.125C297.7 193.925 323.3 194.825 347 190.725C365.3 187.625 383 181.725 400.1 176.025C424.3 168.025 449.2 159.625 476.1 159.125V160.125C449.4 160.625 424.5 168.925 400.4 176.925C383.3 182.625 365.5 188.525 347.1 191.725C333.1 194.025 318.5 194.625 303.8 194.625Z" fill="white"/>
<path d="M309.1 187.525C297.9 187.525 286.7 187.225 275.7 186.925C264.9 186.625 253.7 186.325 242.8 186.325C232.6 186.325 222.1 186.525 211.9 186.825C184.5 187.425 156.2 188.025 129.1 184.325C116.7 182.625 104.2 180.325 92.1998 178.125C64.4998 173.125 35.8998 167.925 6.7998 169.125V168.125C35.9998 166.925 64.6998 172.125 92.3998 177.125C104.4 179.325 116.9 181.525 129.3 183.225C156.3 186.925 184.6 186.325 211.9 185.725C222.1 185.525 232.6 185.225 242.8 185.225C253.7 185.225 264.9 185.525 275.7 185.825C300.5 186.425 326.1 187.125 350.5 184.525C366.9 182.825 383.3 179.825 399.2 176.925C425 172.225 451.7 167.325 478.9 167.825V168.825C451.8 168.325 425.2 173.125 399.4 177.825C383.5 180.725 367.1 183.725 350.6 185.425C337 187.125 323 187.525 309.1 187.525Z" fill="white"/>
<path d="M318.4 184.825C305.7 184.825 293 184.625 280.5 184.525C268.1 184.325 255.2 184.225 242.7 184.225C230.9 184.225 218.8 184.425 207.2 184.525C182.3 184.825 156.5 185.125 131.3 184.025C117.4 183.425 103.4 182.425 89.8001 181.425C61.6001 179.425 32.5001 177.425 3.6001 178.625V177.625C32.5001 176.425 61.7001 178.425 89.9001 180.425C103.5 181.425 117.5 182.325 131.4 183.025C156.6 184.125 182.3 183.825 207.2 183.525C218.9 183.425 230.9 183.225 242.8 183.225C255.4 183.225 268.2 183.425 280.7 183.525C303 183.825 326 184.125 348.6 183.425C366.2 182.925 383.9 181.625 401.1 180.425C427.6 178.525 455 176.525 482.1 177.325V178.325C455 177.525 427.7 179.525 401.2 181.425C384 182.625 366.2 183.925 348.6 184.425C338.4 184.725 328.4 184.825 318.4 184.825Z" fill="white"/>
<path d="M0 188.125V187.125C146.2 186.825 304.8 186.825 484.8 187.125V188.125C304.7 187.925 146.2 187.925 0 188.125Z" fill="white"/>
</svg>
