<svg width="451" height="323" viewBox="0 0 451 323" fill="none" xmlns="http://www.w3.org/2000/svg">
<path d="M385.1 323H65.7L65.6 322.8C23.7 277.9 0.599976 220.7 0.599976 161.5C0.599976 102.4 23.7 45.1 65.6 0.199997L65.7 0H385.2L385.3 0.199997C427.2 45.1 450.3 102.3 450.3 161.5C450.3 220.6 427.2 277.9 385.3 322.8L385.1 323ZM66.1 322H384.7C426.4 277.3 449.3 220.4 449.3 161.6C449.3 102.8 426.4 45.8 384.7 1.2H66.1C24.4 45.8 1.49998 102.8 1.49998 161.6C1.49998 220.4 24.4 277.4 66.1 322Z" fill="white"/>
<path d="M401.4 18.7002H49.4V19.7002H401.4V18.7002Z" fill="white"/>
<path d="M415.6 38.3999H35.3V39.3999H415.6V38.3999Z" fill="white"/>
<path d="M427.3 59.2998H23.5V60.2998H427.3V59.2998Z" fill="white"/>
<path d="M436.7 81H14.1V82H436.7V81Z" fill="white"/>
<path d="M443.8 103.4H7V104.4H443.8V103.4Z" fill="white"/>
<path d="M448.5 126.3H2.30005V127.3H448.5V126.3Z" fill="white"/>
<path d="M450.9 149.5H0V150.5H450.9V149.5Z" fill="white"/>
<path d="M450.9 172.7H0V173.7H450.9V172.7Z" fill="white"/>
<path d="M448.5 195.9H2.30005V196.9H448.5V195.9Z" fill="white"/>
<path d="M443.8 218.8H7V219.8H443.8V218.8Z" fill="white"/>
<path d="M436.7 241.2H14.1V242.2H436.7V241.2Z" fill="white"/>
<path d="M427.3 262.9H23.5V263.9H427.3V262.9Z" fill="white"/>
<path d="M415.6 283.8H35.3V284.8H415.6V283.8Z" fill="white"/>
<path d="M401.4 303.5H49.4V304.5H401.4V303.5Z" fill="white"/>
<path d="M364 322.8L363.2 322.2C399.8 277 419.9 219.9 419.9 161.6C419.9 103.2 399.8 46.1999 363.2 0.999901L364 0.399902C400.7 45.7999 420.9 103.1 420.9 161.6C421 220.2 400.8 277.5 364 322.8Z" fill="white"/>
<path d="M342.8 322.8L342 322.2C406.6 227.6 406.6 95.4998 342 0.899811L342.8 0.299805C407.6 95.2998 407.6 227.9 342.8 322.8Z" fill="white"/>
<path d="M321.6 322.8L320.7 322.3C374.4 226.2 374.4 96.9999 320.7 0.899902L321.6 0.399902C375.4 96.7999 375.4 226.4 321.6 322.8Z" fill="white"/>
<path d="M300.3 322.7L299.4 322.3C320.3 274 331.4 218.5 331.4 161.6C331.4 104.7 320.3 49.1 299.4 0.900002L300.3 0.5C321.3 48.9 332.4 104.6 332.4 161.6C332.4 218.6 321.3 274.3 300.3 322.7Z" fill="white"/>
<path d="M279.1 322.7L278.1 322.4C309.3 221.7 309.3 101.5 278.1 0.799995L279.1 0.5C310.3 101.4 310.3 221.8 279.1 322.7Z" fill="white"/>
<path d="M257.8 322.6L256.8 322.4C276 218.7 276 104.4 256.8 0.699997L257.8 0.5C277 104.4 277 218.8 257.8 322.6Z" fill="white"/>
<path d="M236.5 322.6L235.5 322.5C242.1 215.7 242.1 107.5 235.5 0.700096L236.5 0.600098C243.1 107.5 243.1 215.8 236.5 322.6Z" fill="white"/>
<path d="M214.3 322.6C207.7 215.8 207.7 107.5 214.3 0.700195L215.3 0.800194C208.7 107.6 208.7 215.8 215.3 322.6H214.3Z" fill="white"/>
<path d="M193 322.6C173.8 218.8 173.8 104.4 193 0.5L194 0.699997C174.8 104.4 174.8 218.7 194 322.4L193 322.6Z" fill="white"/>
<path d="M171.7 322.7C140.5 221.8 140.5 101.4 171.7 0.5L172.7 0.799995C141.5 101.5 141.5 221.7 172.7 322.4L171.7 322.7Z" fill="white"/>
<path d="M150.5 322.7C129.5 274.3 118.4 218.6 118.4 161.6C118.4 104.6 129.5 48.9 150.5 0.5L151.4 0.900002C130.5 49.2 119.4 104.8 119.4 161.6C119.4 218.5 130.5 274.1 151.4 322.3L150.5 322.7Z" fill="white"/>
<path d="M129.2 322.8C75.4 226.4 75.4 96.7999 129.2 0.399902L130.1 0.899902C76.4 96.9999 76.4 226.2 130.1 322.3L129.2 322.8Z" fill="white"/>
<path d="M108 322.8C43.2 227.9 43.2 95.2999 108 0.399902L108.8 0.999901C44.2 95.5999 44.2 227.7 108.8 322.3L108 322.8Z" fill="white"/>
<path d="M86.8 322.8C50 277.4 29.8 220.2 29.8 161.6C29.8 103 50 45.7999 86.7001 0.399902L87.5 0.999901C51 46.1999 30.8 103.2 30.8 161.6C30.8 220 50.9 277 87.5 322.2L86.8 322.8Z" fill="white"/>
</svg>
