<svg width="384" height="383" viewBox="0 0 384 383" fill="none" xmlns="http://www.w3.org/2000/svg">
<path d="M248.7 382.824C228.5 382.824 214.1 369.124 199.3 352.624C196.5 349.524 193.7 346.224 191 343.124C172.6 321.824 153.6 299.724 124.2 298.424C113.4 297.924 102.5 300.024 92 302.124C80.2 304.424 68 306.824 55.7 305.524C35.6 303.424 19.5 292.424 7.99997 272.624C-8.80003 243.824 3.39997 225.324 26.9 206.324C28.9 204.724 31 203.024 33.1 201.424C54 184.824 75.7 167.724 75.4 138.524C75.3 126.824 72.9 115.024 70.6 103.724C67.5 88.3245 64.3 72.4245 66.6 56.4245C69.8 34.0245 83.9 17.6245 109.8 6.32447C140.4 -7.07552 162.2 2.32447 185.4 20.4245C188.7 23.0245 192 25.6245 195.2 28.2245C215.9 44.9245 237.2 62.2245 265.6 61.4245C273.7 61.2245 282.2 59.8245 290.4 58.5245C306.1 56.0245 322.3 53.5245 337.6 58.2245C360.6 65.3245 370.8 86.4245 377.7 106.124C386.7 131.624 387.9 153.024 364.4 174.824C345.2 192.724 327 209.524 323.5 238.124C322 250.424 322.6 263.024 323.3 275.224C324.2 292.024 325.1 309.324 320.4 326.124C313.7 349.924 296.9 367.424 270.3 378.124C262.3 381.324 255.2 382.824 248.7 382.824ZM121 297.224C122.1 297.224 123.2 297.224 124.2 297.324C154 298.624 173.2 320.824 191.7 342.324C194.4 345.524 197.3 348.724 200 351.824C214.6 368.124 228.8 381.724 248.7 381.724C255.1 381.724 262 380.324 269.8 377.224C296 366.624 312.7 349.324 319.3 325.824C324 309.224 323.1 291.924 322.2 275.224C321.6 263.024 320.9 250.324 322.4 238.024C326 209.124 344.3 192.124 363.6 174.124C386.7 152.624 385.5 131.524 376.7 106.424C369.8 86.9245 359.8 66.1245 337.2 59.1245C322.1 54.4245 306 57.0245 290.4 59.4245C282.2 60.7245 273.7 62.0245 265.5 62.3245C264.8 62.3245 264.2 62.3245 263.5 62.3245C235.7 62.3245 214.7 45.3245 194.4 28.8245C191.2 26.2245 187.9 23.5245 184.6 21.0245C161.7 3.12447 140.2 -6.17553 110 7.02447C84.4 18.2245 70.5 34.3245 67.4 56.3245C65.1 72.2245 68.3 88.0245 71.4 103.324C73.7 114.724 76.1 126.524 76.2 138.324C76.5 167.924 54.7 185.224 33.6 202.024C31.5 203.624 29.4 205.324 27.4 206.924C4.29997 225.624 -7.80003 243.824 8.69997 271.924C20.1 291.424 35.9 302.324 55.7 304.324C67.8 305.524 80 303.224 91.7 300.924C101.3 299.224 111.1 297.224 121 297.224Z" fill="white"/>
<path d="M247.8 366.824C228.2 366.824 213.1 352.624 199.3 337.524C196.4 334.324 193.5 330.924 190.4 327.424C174.9 309.624 157.2 289.324 133 284.924C121.5 282.824 109.6 284.324 98.0999 285.724C88.4999 286.924 78.5999 288.224 68.8999 287.324C48.8999 285.624 32.5999 275.624 22.7999 259.124C8.99985 235.724 23.4999 219.024 41.2999 204.524L42.4999 203.524C61.0999 188.224 82.2999 170.924 84.0999 144.924C84.8999 132.924 82.7999 120.724 80.6998 109.024C78.2998 95.4245 75.7999 81.3245 77.7999 67.3245C81.0999 45.1245 95.4998 28.1245 118.3 19.5245C143.1 10.1245 163.5 18.5245 186.3 34.0245C189.3 36.0245 192.4 38.2245 195.3 40.2245C214.6 53.7245 234.6 67.6245 258.2 68.4245C267.3 68.7245 276.9 67.3245 286.2 65.9245C301 63.7245 316.4 61.5245 330.8 65.9245C349.3 71.6245 361.9 88.0245 368.3 114.724C374 138.324 368.7 156.324 350.6 174.924C331 195.024 315.7 212.624 312.9 239.924C311.9 249.724 312.1 259.824 312.3 269.624C312.6 284.524 313 300.024 308.9 314.924C303 336.124 289.1 352.324 268.5 361.824C261.1 365.324 254.2 366.824 247.8 366.824ZM120.7 282.924C124.9 282.924 129.1 283.224 133.3 284.024C157.8 288.524 175.6 308.824 191.2 326.824C194.3 330.324 197.2 333.724 200.1 336.924C214.2 352.324 228.6 365.924 247.6 365.924C253.9 365.924 260.7 364.424 268.2 360.924C288.5 351.524 302.3 335.524 308.1 314.624C312.2 299.824 311.8 284.424 311.5 269.624C311.3 259.824 311 249.724 312.1 239.824C315 212.124 330.3 194.424 350.1 174.224C367.9 155.924 373.2 138.224 367.6 114.924C361.3 88.6245 348.9 72.4245 330.8 66.9245C316.6 62.5245 301.3 64.8245 286.6 66.9245C277.3 68.3245 267.7 69.7245 258.4 69.4245C234.5 68.6245 214.4 54.6245 194.9 41.0245C191.8 38.8245 188.9 36.8245 185.9 34.8245C163.3 19.5245 143.2 11.2245 118.8 20.4245C96.2999 28.9245 82.0999 45.6245 78.8999 67.4245C76.7999 81.3245 79.2999 95.3245 81.7999 108.824C83.8998 120.624 86.0999 132.824 85.2999 144.924C83.4998 171.424 62.1999 188.824 43.3999 204.224L42.1999 205.224C24.7999 219.524 10.4999 235.824 23.9999 258.624C33.5999 274.824 49.6999 284.724 69.2999 286.324C78.8999 287.124 88.7999 285.924 98.2999 284.724C105.5 283.924 113.1 282.924 120.7 282.924Z" fill="white"/>
<path d="M245.7 351.224C227.5 351.224 212.9 337.724 199.4 323.424C196.3 320.125 193.2 316.625 189.9 312.924C176.4 297.824 161.1 280.624 141.8 274.124C130.3 270.224 118.1 270.624 106.3 271.024C98.2999 271.324 89.9999 271.524 82.0999 270.524C72.3999 269.224 48.6999 264.124 38.2999 244.024C29.0999 226.224 41.0999 211.924 53.9999 200.324C69.9999 186.024 85.7999 170.124 88.9999 147.224C90.4999 136.224 89.1999 124.924 87.9999 114.024C86.5999 102.124 85.1999 89.8245 87.3999 77.7245C90.6999 59.0245 99.8999 45.8245 114.6 38.6245C134.2 29.0245 163.4 31.4245 189 44.8245C191.2 46.0245 193.5 47.2245 195.7 48.3245C215.4 58.8245 235.8 69.6245 258.8 70.9245C266.9 71.4245 275.6 70.5245 284 69.6245C298 68.1245 312.4 66.6245 325.7 71.2245C341.6 76.6245 352.4 88.0245 356.9 104.224C363.2 126.724 356.3 155.824 340.1 174.924C326.1 191.524 310.3 210.324 305.9 235.324C304.1 245.224 303.9 255.324 303.7 265.124C303.4 278.124 303 291.525 299.3 304.424C293.2 325.324 279 341.324 260.4 348.324C255.1 350.324 250.3 351.224 245.7 351.224ZM117.1 269.824C125.5 269.824 134 270.424 142.1 273.224C161.6 279.824 177 297.025 190.6 312.324C193.9 316.025 197 319.524 200.1 322.724C213.9 337.324 227.9 350.224 245.5 350.224C250 350.224 254.8 349.324 259.8 347.424C278.1 340.525 292.1 324.724 298.1 304.224C301.9 291.324 302.2 278.024 302.5 265.124C302.7 255.224 303 245.124 304.8 235.124C309.3 209.924 325.2 191.024 339.3 174.324C355 155.724 361.9 126.324 355.9 104.524C351.5 88.7245 340.9 77.5245 325.3 72.2245C312.2 67.7245 297.9 69.2245 284 70.7245C275.6 71.6245 266.8 72.5245 258.6 72.0245C235.4 70.6245 214.9 59.8245 195.1 49.3245C192.9 48.1245 190.6 46.9245 188.4 45.8245C163.1 32.5245 134.2 30.1245 114.9 39.6245C100.5 46.7245 91.5999 59.6245 88.2999 78.0245C86.1999 89.9245 87.5999 102.224 88.8999 114.024C90.1999 125.024 91.4999 136.324 89.8999 147.524C86.6999 170.724 70.6999 186.824 54.5999 201.224C41.2999 213.124 30.2999 226.524 39.0999 243.724C49.2999 263.424 72.4999 268.424 82.0999 269.724C89.9999 270.724 98.1999 270.524 106.2 270.224C109.8 269.924 113.4 269.824 117.1 269.824Z" fill="white"/>
<path d="M243.6 335.624C225 335.624 210.4 320.924 199.5 309.924C196.3 306.625 193.1 303.324 189.8 299.724C175.9 285.024 161.6 269.724 143 262.524C133.7 258.924 123.7 258.024 114 257.124C107.7 256.524 101.3 256.024 95.0001 254.724C75.0001 250.524 59.4001 239.124 55.2001 225.524C52.1001 215.324 55.6001 204.624 65.3001 194.524C81.2001 178.124 89.5001 163.224 92.2001 146.124C93.6001 137.324 93.4001 128.124 93.2001 119.324C92.9001 108.824 92.7001 98.0245 95.1001 87.5245C98.7001 72.0245 106.8 60.7245 119.3 53.9245C137.2 44.1245 164.5 44.0245 192.3 53.8245C194.4 54.5245 196.4 55.3245 198.5 56.0245C218.2 63.0245 238.6 70.3245 260 71.5245C266.6 71.9245 273.5 71.5245 280.2 71.2245C293.9 70.6245 308.1 69.9245 321 74.8245C334.5 80.0245 343.3 89.4245 347.4 102.724C350.7 113.524 350.5 126.724 347 140.724C343.9 153.124 338.3 165.424 331.4 175.224C318.7 193.224 305.5 211.824 300.6 234.624C298.8 242.824 298 251.324 297.1 259.524C295.9 271.324 294.7 283.524 290.6 295.124C285 311.324 270.9 331.424 249.7 335.025C247.7 335.424 245.6 335.624 243.6 335.624ZM152.2 47.4245C139.8 47.4245 128.6 49.8245 119.8 54.7245C107.6 61.4245 99.6001 72.5245 96.1001 87.7245C93.7001 98.1245 93.9001 108.824 94.2001 119.224C94.4001 128.124 94.6001 137.224 93.2001 146.124C90.4001 163.424 82.1001 178.524 66.0001 195.024C56.5001 204.824 53.1001 215.224 56.1001 225.024C60.2001 238.224 75.5001 249.424 95.1001 253.524C101.3 254.824 107.7 255.424 113.9 255.924C123.7 256.824 133.8 257.724 143.2 261.324C162 268.724 176.4 284.024 190.3 298.824C193.6 302.424 196.8 305.725 200 309.025C213.3 322.525 226.7 334.525 243.3 334.525C245.3 334.525 247.3 334.324 249.3 334.025C270.1 330.424 283.9 310.624 289.4 294.724C293.4 283.224 294.6 271.124 295.8 259.324C296.6 251.124 297.5 242.624 299.3 234.324C304.3 211.324 317.5 192.624 330.3 174.624C348.4 149.024 351.2 119.624 346.2 103.024C342.3 90.0245 333.6 80.9245 320.4 75.8245C307.8 70.9245 293.7 71.6245 280 72.2245C273.3 72.5245 266.3 72.8245 259.7 72.5245C238.1 71.3245 217.7 64.0245 197.9 57.0245C195.8 56.3245 193.8 55.5245 191.7 54.8245C178.2 49.9245 164.6 47.4245 152.2 47.4245Z" fill="white"/>
<path d="M242.3 317.424C228.2 317.424 212.9 310.124 199.5 296.624C197.2 294.324 194.8 291.924 192.5 289.424C179.3 275.924 165.7 261.924 149 253.224C140.5 248.824 131.3 246.424 122.3 244.024C117.5 242.724 112.5 241.424 107.7 239.824C85.1999 232.324 73.9999 220.024 71.0999 210.924C68.5999 203.224 70.2999 195.324 76.0999 187.324C89.0999 169.424 91.5999 151.524 94.1999 132.624C95.7999 121.024 97.4999 109.024 101.8 96.6244C108 78.5244 121.4 66.7244 141.5 61.5244C160.7 56.6244 182 58.8244 196.5 61.6244C199.4 62.1244 202.3 62.7244 205.2 63.3244C224.4 67.0244 244.4 70.9244 264.4 71.4244C267.9 71.5244 271.5 71.5244 275 71.5244C289.2 71.5244 303.9 71.4244 316.7 77.6244C327.8 83.0244 335.1 91.5244 338.6 102.924C345.6 126.124 335.1 156.524 323.9 175.424L322.6 177.724C312.2 195.324 301.5 213.524 296 233.624C294.2 240.124 293 246.924 291.8 253.424C289.8 264.324 287.7 275.624 283.1 286.124C275.5 303.424 263.9 314.024 249.6 316.724C247.2 317.224 244.8 317.424 242.3 317.424ZM166.7 59.6244C158.5 59.6244 149.9 60.4244 141.7 62.5244C121.9 67.6244 108.8 79.2244 102.7 96.9244C98.4999 109.224 96.7999 121.224 95.1999 132.724C92.4999 151.724 89.9999 169.724 76.8999 187.824C71.2999 195.524 69.6999 203.224 72.0999 210.524C76.4999 224.024 93.4999 233.924 108.1 238.724C112.9 240.324 117.9 241.624 122.7 242.824C131.7 245.124 141 247.624 149.6 252.024C166.5 260.824 180.2 274.824 193.4 288.424C195.7 290.824 198.1 293.224 200.4 295.524C215.9 311.124 233.7 318.324 249.4 315.424C263.4 312.824 274.7 302.424 282.1 285.424C286.6 275.024 288.7 263.824 290.7 252.924C291.9 246.324 293.2 239.624 294.9 233.024C300.4 212.724 311.2 194.524 321.6 176.824L322.9 174.524C334 155.724 344.4 125.724 337.5 102.824C334.1 91.6244 326.9 83.3244 316.1 78.1244C303.5 72.0244 288.9 72.0244 274.9 72.1244C271.4 72.1244 267.7 72.1244 264.2 72.0244C244.1 71.5244 224.1 67.6244 204.8 63.9244C201.9 63.3244 199 62.8244 196.1 62.2244C188.1 61.0244 177.6 59.6244 166.7 59.6244Z" fill="white"/>
<path d="M238.8 301.825C226 301.825 212.3 295.425 199.7 283.425C173.9 258.725 150.8 242.225 120.1 226.425C90.5999 211.225 79.2999 195.625 86.6999 180.225C92.0999 168.925 94.4999 156.325 96.8999 144.125C99.3999 131.125 102.1 117.725 108.1 105.825C124.8 72.9245 167.7 67.8245 200.7 69.3245C208.3 69.7245 216.2 70.2245 223.8 70.7245C235.4 71.5245 247.5 72.3245 259.2 72.5245C262.1 72.6245 265 72.5245 267.9 72.5245C283 72.5245 298.6 72.4245 311.7 80.6245C346.7 102.525 326.8 154.425 316.6 175.725C314.7 179.725 312.7 183.825 310.7 187.825C303.7 202.025 296.5 216.725 291.4 232.025C289.9 236.625 288.5 241.424 287.2 246.124C284.2 256.725 281.2 267.625 275.6 277.425C267.6 291.325 256.7 299.725 244.2 301.525C242.4 301.625 240.6 301.825 238.8 301.825ZM190.6 69.9245C159.7 69.9245 123.8 76.9245 109 106.125C103 117.925 100.4 131.225 97.8999 144.125C95.4999 156.425 92.9999 169.125 87.5999 180.525C80.4999 195.425 91.5999 210.525 120.6 225.425C151.4 241.325 174.5 257.924 200.5 282.624C214.6 296.124 230.1 302.425 244.1 300.425C256.3 298.625 266.9 290.525 274.8 276.825C280.4 267.125 283.4 256.325 286.4 245.725C287.7 241.025 289.1 236.225 290.6 231.624C295.5 216.324 302.8 201.625 309.8 187.325C311.7 183.325 313.8 179.225 315.7 175.225C325.8 154.125 345.5 102.825 311.2 81.3245C298.3 73.2245 282.9 73.3245 267.9 73.3245C265 73.3245 262.1 73.3245 259.2 73.3245C247.4 73.1245 235.4 72.3245 223.7 71.5245C216.1 71.0245 208.3 70.5245 200.7 70.1245C197.4 70.0245 194 69.9245 190.6 69.9245Z" fill="white"/>
<path d="M233.2 285.524C222.7 285.524 211.5 280.324 199.8 270.024C179.4 252.024 157 232.724 131.9 214.024C130.1 212.724 127.9 211.224 125.6 209.624C112.7 200.724 94.8999 188.624 97.4999 173.524C97.7999 171.824 98.0999 170.124 98.3999 168.324C101.5 150.124 105 129.424 115.4 115.224C131.5 93.2244 161.6 80.5244 204.6 77.4244C208.7 77.1244 213.4 76.6244 218.4 76.1244C246.7 73.3244 285.4 69.5244 305.1 85.4244C333.3 108.124 317 156.324 308.6 176.024C306.2 181.624 303.6 188.424 300.9 195.524C287.7 230.124 269.6 277.524 240.6 284.624C238.2 285.224 235.7 285.524 233.2 285.524ZM257.4 74.6244C244.1 74.6244 230.4 75.9244 218.6 77.1244C213.6 77.6244 208.9 78.1244 204.7 78.4244C162 81.5244 132.2 94.1244 116.2 115.824C105.9 129.824 102.4 150.424 99.3999 168.524C99.0999 170.324 98.7999 172.024 98.4999 173.724C95.9999 188.124 113.4 200.124 126.1 208.824C128.4 210.424 130.6 211.924 132.4 213.224C157.5 231.924 179.9 251.224 200.4 269.324C214.6 281.924 228.1 286.724 240.4 283.724C268.9 276.724 286.9 229.624 300 195.224C302.7 188.024 305.3 181.324 307.7 175.624C316 156.224 332.2 108.524 304.5 86.2244C293.3 77.1244 275.7 74.6244 257.4 74.6244Z" fill="white"/>
<path d="M229.4 269.024C219.9 269.024 210 264.724 199.9 256.224C188.1 246.224 176.6 235.024 165.5 224.224C158.2 217.124 150.7 209.724 143.1 202.724C140.3 200.124 136.7 197.424 132.8 194.624C122.6 187.124 111 178.524 109.4 168.224C106.1 146.924 117.2 127.424 141.7 111.624C162.9 97.9245 189.8 89.9244 207.9 87.0244L211.1 86.5244C235.4 82.5244 276 75.8244 295.6 94.5244C311.9 110.124 313.2 137.624 299.3 176.224C289.6 203.224 269.4 259.524 237.6 268.024C234.9 268.724 232.2 269.024 229.4 269.024ZM200.5 255.524C213.3 266.324 225.7 270.124 237.4 267.024C268.7 258.624 288.7 202.724 298.4 175.824C312.1 137.624 310.9 110.524 294.9 95.2244C275.6 76.8244 235.3 83.5245 211.2 87.4245L208 87.9245C190 90.8245 163.3 98.8245 142.2 112.424C125.4 123.224 106.2 141.724 110.4 168.024C112 178.024 123.3 186.424 133.4 193.824C137.3 196.724 141 199.424 143.8 202.024C151.4 209.024 159 216.424 166.3 223.524C177.3 234.324 188.7 245.524 200.5 255.524Z" fill="white"/>
<path d="M225.7 252.425C217.3 252.425 208.6 248.925 199.9 241.825C188.6 232.725 178.5 221.925 168.8 211.425C163.7 205.925 158.3 200.125 152.9 194.725C149.7 191.525 145.9 188.525 142 185.425C134.2 179.225 126.2 172.825 122.7 165.025C120.3 159.625 120.5 153.925 123.5 148.125C136.2 122.825 195.2 102.125 209.9 98.8245C236 93.0245 265 89.4245 282.7 107.225C292.5 117.125 301.4 137.225 287.7 176.225C268.6 231.025 248.1 247.225 234.2 251.125C231.4 252.025 228.6 252.425 225.7 252.425ZM245.2 95.1245C233.8 95.1245 221.6 97.2245 210 99.8245C202.7 101.425 184.3 107.425 165.7 116.425C150.5 123.825 130.9 135.425 124.3 148.625C121.5 154.125 121.3 159.525 123.6 164.625C127 172.225 134.9 178.525 142.6 184.725C146.4 187.725 150.4 190.925 153.6 194.125C159.1 199.525 164.4 205.325 169.5 210.825C179.2 221.225 189.2 232.025 200.5 241.125C211.9 250.325 223.1 253.425 233.8 250.325C247.4 246.425 267.7 230.425 286.6 176.025C300 137.425 291.4 117.825 281.8 108.025C272.3 98.3245 259.3 95.1245 245.2 95.1245Z" fill="white"/>
<path d="M220.9 234.724C213.9 234.724 207 232.024 200 226.624C190.1 218.924 181 209.424 172.2 200.324C168.9 196.824 165.4 193.324 162 189.924C159.7 187.624 157.1 185.324 154.4 182.924C147.9 177.124 141.1 171.224 137.8 164.424C136.1 161.024 136.1 157.424 137.8 153.724C146.7 134.124 200.6 116.124 210.2 113.624C233.4 107.524 254.5 111.624 266.5 124.624C277.8 136.824 280.1 155.224 272.9 176.424C265.2 199.124 249 227.724 228.8 233.724C226.1 234.324 223.5 234.724 220.9 234.724ZM230.6 111.824C224.2 111.824 217.4 112.724 210.4 114.524C200.9 117.024 147.5 134.824 138.7 154.024C137.1 157.424 137.1 160.824 138.7 163.924C142 170.524 148.6 176.424 155.1 182.124C157.8 184.524 160.4 186.824 162.7 189.124C166.1 192.524 169.6 196.124 172.9 199.624C181.7 208.724 190.8 218.124 200.6 225.824C209.9 233.024 219.2 235.324 228.4 232.624C248.2 226.724 264.2 198.424 271.8 175.924C278.9 155.124 276.7 137.124 265.6 125.224C257.5 116.424 245.1 111.824 230.6 111.824Z" fill="white"/>
<path d="M216.3 216.724C211.1 216.724 205.8 215.124 200.7 211.824C185.4 202.224 158.4 181.524 153.9 165.024C153 161.624 153.6 158.124 155.7 154.724C160.6 146.924 172.7 140.724 181.9 136.924C192.2 132.624 203.5 129.424 209.6 128.324C226.4 125.224 242.3 129.524 251.3 139.524C256.9 145.724 262.3 157.024 256.7 175.524C251.9 191.224 240.4 209.424 225.5 215.024C222.4 216.124 219.4 216.724 216.3 216.724ZM220.2 128.324C216.8 128.324 213.3 128.624 209.7 129.324C198.6 131.424 165.2 141.324 156.5 155.224C154.5 158.424 153.9 161.524 154.8 164.724C159.2 180.924 186 201.424 201.1 211.024C209.1 216.024 217.1 217.124 225.1 214.124C239.7 208.724 251 190.724 255.7 175.224C260 161.024 258.2 148.924 250.5 140.224C243.7 132.524 232.6 128.324 220.2 128.324Z" fill="white"/>
<path d="M211.6 200.125C208.3 200.125 205 199.325 201.9 197.725C191.5 192.525 171.7 178.025 170.6 166.325C169.3 152.925 196.1 144.325 208.5 142.525C219 140.925 229.3 144.225 235.4 151.125C240.8 157.225 242.5 165.425 240.1 174.125C237.3 184.525 229.5 194.125 220.7 198.125C217.7 199.425 214.6 200.125 211.6 200.125ZM202.3 196.825C208.1 199.725 214.3 199.825 220.3 197.125C228.8 193.325 236.4 183.925 239.1 173.825C241.4 165.425 239.8 157.525 234.6 151.725C228.7 145.125 218.7 141.925 208.6 143.425C195.1 145.425 170.4 154.225 171.5 166.125C172.5 176.625 190 190.725 202.3 196.825Z" fill="white"/>
<path d="M207.9 184.625C206.4 184.625 204.9 184.425 203.5 184.025C194.6 181.625 187.5 174.425 187.6 168.025C187.8 161.525 196.5 156.225 207 156.125C212.7 156.125 217.6 158.125 220.5 161.625C222.9 164.525 223.8 168.325 223 172.225C222.1 176.525 219.6 180.125 216 182.325C213.5 183.925 210.8 184.625 207.9 184.625ZM207.2 157.125C207.1 157.125 207.1 157.125 207 157.125C197 157.225 188.7 162.125 188.6 168.025C188.5 173.925 195.3 180.725 203.7 183.025C207.8 184.125 212 183.625 215.5 181.425C218.9 179.325 221.2 175.925 222.1 171.925C222.8 168.325 222 164.925 219.8 162.225C217 159.025 212.5 157.125 207.2 157.125Z" fill="white"/>
<path d="M200.2 352.224H199.2C199.2 341.024 199.2 329.724 199.1 318.724C198.8 269.824 198.6 219.224 204.8 170.124L205.8 170.224C199.6 219.324 199.8 269.824 200.1 318.724C200.1 329.724 200.2 341.024 200.2 352.224Z" fill="white"/>
<path d="M326.4 220.924C321.8 220.224 317.3 219.824 313 219.424C304.2 218.724 295.9 218.024 287.4 214.524C272 208.224 257.4 199.624 243.4 191.224C231.1 183.924 218.5 176.424 205.2 170.524L205.6 169.624C218.9 175.624 231.6 183.124 243.9 190.424C257.9 198.724 272.4 207.324 287.8 213.624C296.2 217.124 304.5 217.724 313.2 218.524C317.6 218.924 322.1 219.224 326.7 220.024L326.4 220.924Z" fill="white"/>
<path d="M205.6 170.524L204.9 169.724C224.8 152.224 241.9 132.424 258.5 113.224C267.4 102.924 276.6 92.3244 286.1 82.1244C288.5 79.5244 290.8 77.3244 293.1 75.1244C298.8 69.6244 303.7 64.8244 308.2 56.6244L309.1 57.1244C304.6 65.4244 299.6 70.2244 293.9 75.8244C291.7 78.0244 289.4 80.2244 287 82.7244C277.5 92.9244 268.3 103.524 259.4 113.724C242.7 133.124 225.5 152.924 205.6 170.524Z" fill="white"/>
<path d="M204.9 170.424C194.4 158.024 181.3 148.924 168.6 140.124C155.9 131.324 142.7 122.224 132.2 109.724C120.8 96.2244 111 81.0244 101.5 66.4244C93.6999 54.4244 85.6999 42.0244 76.8999 30.6244L77.6999 30.0244C86.5999 41.5244 94.5999 53.9244 102.4 65.9244C111.9 80.5244 121.7 95.6244 133 109.124C143.4 121.524 156.5 130.524 169.2 139.324C182 148.124 195.2 157.224 205.7 169.824L204.9 170.424Z" fill="white"/>
<path d="M0.399998 253.624L0 252.724C21 242.424 40.2 228.924 58.7 215.724C74.7 204.424 91.3 192.624 108.9 183.124C130 171.724 153.4 171.324 176.1 170.924C185.7 170.724 195.6 170.624 205.2 169.624L205.3 170.624C195.6 171.624 185.7 171.724 176.1 171.924C152.5 172.324 130.3 172.724 109.4 184.024C91.8 193.524 75.3 205.224 59.3 216.524C40.7 229.724 21.5 243.324 0.399998 253.624Z" fill="white"/>
</svg>
