<svg width="485" height="354" viewBox="0 0 485 354" fill="none" xmlns="http://www.w3.org/2000/svg">
<path d="M67.3 107.5L66.9 106.6C90.3 97.1 101.4 74 112.1 51.6C118.6 38 125.4 24 134.8 13.1C142.2 4.60001 150.6 0.2 159.9 0C160.1 0 160.2 0 160.4 0C183.6 0 207.6 25.9 225.3 44.9C228.6 48.4 231.7 51.8 234.5 54.7C236.6 56.8 238.6 58.9 240.7 61C252 72.6 263.6 84.6 276.9 94C296.6 108 313.2 107.4 333.8 102C350.6 97.5 367.3 91.2 383.4 85.1C409.5 75.2 436.5 65 465 62.4L465.1 63.4C436.7 66 409.8 76.2 383.8 86.1C367.7 92.2 351 98.5 334.1 103C313.3 108.5 296.4 109.1 276.4 94.9C263.1 85.4 251.4 73.4 240.1 61.8C238 59.7 236 57.6 233.9 55.5C231.1 52.6 228 49.3 224.7 45.7C207.2 26.9 183.3 1.10001 160.6 1.10001C160.4 1.10001 160.3 1.10001 160.1 1.10001C151.2 1.30001 143 5.5 135.8 13.8C126.5 24.5 119.8 38.5 113.3 52C102.2 74.6 91 97.9 67.3 107.5Z" fill="white"/>
<path d="M311.7 113.3C300.4 113.3 289.4 110.1 277 101.6C263.6 92.2999 251.7 80.5999 240.1 69.2999C238.1 67.2999 236.1 65.3999 234.1 63.3999C231 60.3999 227.7 56.9999 224.1 53.2999C205.9 34.5999 183.3 11.2999 161.1 11.2999C161 11.2999 160.8 11.2999 160.7 11.2999C151.7 11.3999 143.3 15.5999 135.8 23.6999C126.2 34.0999 118.9 46.9999 111.8 59.5999C100 80.4999 87.8 102.1 64.8 112.3L64.4 111.4C87.1 101.3 99.3 79.8999 111 59.0999C118.1 46.4999 125.4 33.4999 135.1 23.0999C142.7 14.7999 151.4 10.4999 160.7 10.3999C160.8 10.3999 161 10.3999 161.1 10.3999C183.8 10.3999 206.6 33.8999 224.9 52.6999C228.4 56.2999 231.8 59.7999 234.8 62.7999C236.8 64.6999 238.8 66.6999 240.8 68.6999C252.3 79.9999 264.2 91.6999 277.5 100.9C297.5 114.8 314 114.3 334.2 109.1C351.2 104.7 368 98.3999 384.2 92.2999C410 82.5999 436.8 72.6999 465 69.8999L465.1 70.8999C437 73.6999 410.3 83.5999 384.5 93.2999C368.2 99.3999 351.4 105.7 334.4 110.1C326.5 112 319 113.3 311.7 113.3Z" fill="white"/>
<path d="M315.9 121.3C285.7 121.3 263.9 101.4 241 80.5999C239.2 78.8999 237.3 77.1999 235.4 75.4999C232.1 72.5999 228.7 69.2999 225.1 65.7999C212.4 53.6999 198 39.8999 182.9 32.5999C165.5 24.1999 150.6 25.9999 137.3 38.3999C127.4 47.5999 119.4 58.6999 111.6 69.4999C98.4 87.7999 84.7001 106.7 62.2001 115.7L61.8 114.8C84 105.8 97 87.8999 110.8 68.8999C118.6 58.0999 126.8 46.8999 136.7 37.6999C167.3 9.19986 201.2 41.4999 225.8 65.0999C229.4 68.5999 232.9 71.7999 236.1 74.7999C238 76.4999 239.8 78.1999 241.7 79.8999C268.9 104.7 294.6 128.1 334.7 117.9C351.6 113.6 368.3 107.4 384.4 101.5C409.6 92.1999 435.7 82.5999 463.2 79.7999L463.3 80.7999C435.9 83.5999 409.9 93.1999 384.8 102.4C368.7 108.4 352 114.5 335 118.9C328.2 120.5 321.9 121.3 315.9 121.3Z" fill="white"/>
<path d="M316.4 131.6C287.1 131.6 265 113.5 241.9 94.5002C240.4 93.2002 238.8 92.0002 237.3 90.7002C234 88.0002 230.7 85.2002 227.1 82.2002C214.5 71.4002 200.1 59.2002 185.3 52.8002C168.4 45.5002 153.4 46.8002 139.4 56.9002C129.3 64.2002 120.4 73.0002 111.8 81.5002C96.7 96.4002 81 111.8 58.9 118.7L58.6 117.7C80.5 110.9 95.3 96.3002 111 80.8002C119.6 72.3002 128.6 63.5002 138.7 56.1002C170.7 33.0002 202.3 59.9002 227.6 81.5002C231.1 84.5002 234.5 87.4002 237.7 90.0002C239.2 91.3002 240.8 92.5002 242.3 93.8002C270 116.5 296.1 138 334.7 128.4C351.3 124.3 367.6 118.3 383.4 112.5C407.7 103.6 432.7 94.5002 459.3 91.9002L459.4 92.9002C433 95.5002 407.9 104.6 383.7 113.5C367.9 119.3 351.5 125.3 334.9 129.4C328.5 130.8 322.3 131.6 316.4 131.6Z" fill="white"/>
<path d="M316.6 142.8C288.4 142.8 265.9 126.7 242.4 109.9L239.5 107.8C236.6 105.8 233.8 103.7 230.9 101.6C203.8 81.8 175.7 61.2 142.1 77.4C131.6 82.5 121.7 88.7 112.2 94.7C94.2 106 77.3 116.7 55.7 120.8L55.5 119.8C76.9 115.7 93.8 105 111.7 93.8C121.2 87.8 131.1 81.6 141.7 76.5C175.9 60 204.2 80.7 231.6 100.7C234.5 102.8 237.3 104.9 240.2 106.9L243.1 109C271.4 129.3 298.1 148.4 335.1 139.5C351.3 135.6 367.1 129.9 382.4 124.3C405.5 115.9 429.5 107.3 454.9 104.9L455 105.9C429.7 108.3 405.9 116.9 382.8 125.2C367.4 130.8 351.6 136.5 335.3 140.4C328.8 142.1 322.6 142.8 316.6 142.8Z" fill="white"/>
<path d="M316.6 154.4C289.3 154.4 266.4 140.6 242.4 126.1L239.2 124.1C208.3 105.4 181.6 89.3001 144.8 99.0001C134.6 101.7 124.6 105 114.9 108.1C94.9 114.6 74.2 121.4 52.1 123L52 122C74 120.3 94.6 113.6 114.6 107.1C124.3 103.9 134.4 100.7 144.5 98.0001C181.7 88.1001 208.5 104.4 239.6 123.2L242.8 125.2C271.9 142.8 299.4 159.4 335.1 151.2C350.8 147.6 366.1 142.1 380.9 136.9C402.9 129.1 425.6 121 449.7 118.9L449.8 119.9C425.8 122 403.1 130 381.2 137.8C366.4 143.1 351 148.6 335.3 152.2C328.9 153.8 322.6 154.4 316.6 154.4Z" fill="white"/>
<path d="M316.4 164.3C290.3 164.3 267.5 152.6 243.7 140.3C212.3 124.1 185.2 112 146.8 116.5C139.2 117.4 131.5 118.4 124 119.3C99.4 122.4 73.9 125.6 48.4 126.1V125.1C73.8 124.6 99.2 121.4 123.9 118.3C131.4 117.4 139.1 116.4 146.7 115.5C185.3 111 212.6 123.1 244.2 139.5C273.5 154.6 301.1 168.9 335.4 161.3C350.7 157.9 365.7 152.7 380.1 147.6C401.1 140.2 422.8 132.6 445.9 130.6L446 131.6C423 133.5 401.4 141.1 380.4 148.5C365.9 153.6 351 158.9 335.6 162.2C328.9 163.7 322.6 164.3 316.4 164.3Z" fill="white"/>
<path d="M316.2 174.8C290.7 174.8 267.9 165.2 245.6 155.8C212.4 141.9 185.3 136 149 134.9C129.9 134.3 110.5 133 91.7 131.8C76.7 130.8 61.2 129.8 45.9 129.1V128.1C61.2 128.8 76.7 129.8 91.8 130.8C110.6 132 130 133.3 149.1 133.9C185.5 135 212.7 140.9 246 154.9C273.7 166.5 302.4 178.6 335.7 171.8C350.9 168.7 365.8 163.6 380.1 158.7C399.9 151.9 420.5 144.8 442.4 143.1L442.5 144.1C420.7 145.8 400.3 152.9 380.5 159.7C366.2 164.6 351.3 169.8 336 172.9C329.1 174.2 322.6 174.8 316.2 174.8Z" fill="white"/>
<path d="M315.5 184.4C293.1 184.4 271.5 178.1 246.9 170C221.3 161.6 197.6 158.5 172.4 155.1C165.3 154.2 157.9 153.2 150.4 152.1C135.8 149.9 121.3 146.9 107.2 143.9C86.5 139.6 65.1 135.1 43.6 133.4L43.7 132.4C65.3 134.1 86.8 138.6 107.5 142.9C121.6 145.9 136.2 148.9 150.7 151.1C158.2 152.2 165.6 153.2 172.7 154.1C197.9 157.4 221.7 160.6 247.4 169C279.4 179.5 306.3 187.1 336.5 181.4C351.7 178.6 366.4 173.7 380.7 169C400 162.6 420 156 441.3 154.4L441.4 155.4C420.3 156.9 400.3 163.5 381.1 169.9C366.8 174.6 352 179.5 336.8 182.4C329.3 183.8 322.3 184.4 315.5 184.4Z" fill="white"/>
<path d="M315.6 191.3C292.7 191.3 270.3 185.1 246.3 177.6C222.3 170.1 200 167.3 176.3 164.2C167.6 163.1 158.6 161.9 149.5 160.5C135.3 158.3 121.1 155.2 107.3 152.2C85.8 147.5 63.6 142.7 41 141.3L41.1 140.3C63.7 141.7 86 146.6 107.5 151.3C121.2 154.3 135.4 157.4 149.6 159.6C158.7 161 167.7 162.2 176.4 163.3C200.1 166.4 222.6 169.2 246.6 176.7C277.7 186.4 306 194 336.3 188.6C351.8 185.8 366.9 181.1 381.5 176.4C401.2 170.2 421.6 163.7 443.1 162.2L443.2 163.2C421.8 164.8 401.5 171.2 381.9 177.4C367.3 182 352.1 186.8 336.5 189.6C329.4 190.7 322.5 191.3 315.6 191.3Z" fill="white"/>
<path d="M313 198.6C289.9 198.6 267.9 192.4 244.3 184.9C218.5 176.7 194.5 173.9 169.1 170.8C162.3 170 155.3 169.2 148.1 168.2C133.9 166.3 119.6 163.6 105.8 161C84 156.9 61.4 152.7 38.7 151.5L38.8 150.5C61.6 151.7 84.2 155.9 106 160C119.8 162.6 134.1 165.3 148.3 167.1C155.4 168.1 162.5 168.9 169.3 169.7C194.7 172.7 218.8 175.6 244.6 183.8C275.2 193.5 303.1 201.1 334.2 195.6C350.1 192.8 365.7 188.1 380.8 183.6C401.6 177.4 423 171 445.4 169.3L445.5 170.3C423.2 172 401.8 178.3 381.1 184.5C366 189 350.3 193.7 334.3 196.5C327.1 198 320 198.6 313 198.6Z" fill="white"/>
<path d="M309.9 206C286.2 206 264.2 199.5 241.9 192.2C212.9 182.7 186.8 179.9 156.6 176.7L150.2 176C134.8 174.4 119.4 171.9 104.4 169.5C82.4999 166 59.9 162.3 37.2 161.3V160.3C59.9 161.3 82.6 165 104.5 168.5C119.4 170.9 134.9 173.4 150.2 175L156.6 175.7C186.9 178.9 213 181.7 242.1 191.2C270 200.4 297.6 208.2 328.3 203.5C346.2 200.8 363.9 195.7 381 190.9C402.5 184.8 424.6 178.4 447.6 176.6L447.7 177.6C424.8 179.4 402.7 185.7 381.3 191.8C364.2 196.7 346.5 201.7 328.5 204.5C322.3 205.6 316 206 309.9 206Z" fill="white"/>
<path d="M307.1 212.2C285.3 212.2 264.4 207 239.7 198.9C209.1 188.9 181.5 186.5 149.5 183.8H149.1C133.8 182.5 118.4 180.5 103.4 178.6C81.2999 175.7 58.5 172.8 35.7 172V171C58.5 171.8 81.4 174.7 103.5 177.6C118.4 179.5 133.8 181.5 149.1 182.8H149.5C181.6 185.6 209.3 187.9 239.9 198C271.5 208.3 296.8 213.9 325.7 209.9C344.4 207.3 362.8 202.4 380.7 197.7C403.1 191.8 426.2 185.7 450 184L450.1 185C426.4 186.7 403.3 192.8 380.9 198.6C363 203.3 344.5 208.2 325.8 210.8C319.5 211.8 313.3 212.2 307.1 212.2Z" fill="white"/>
<path d="M305.1 217.7C280.6 217.7 258.4 211.8 237.7 205.2C206.2 195.1 176.6 193.2 148 191.3C132.8 190.3 117.4 188.8 102.5 187.3C80.2 185.1 57.2 182.8 34.3 182.3V181.3C57.2 181.8 80.2 184.1 102.5 186.3C117.4 187.8 132.8 189.3 148 190.3C176.7 192.2 206.3 194.1 237.9 204.2C263.4 212.4 291.5 219.4 323.2 215.5C342.6 213.1 361.8 208.5 380.3 204.1C403.6 198.5 427.6 192.8 452.2 191.3L452.3 192.3C427.8 193.8 403.8 199.5 380.6 205.1C362 209.6 342.8 214.2 323.3 216.6C317.2 217.4 311 217.7 305.1 217.7Z" fill="white"/>
<path d="M302 224.3C281.6 224.3 260.6 220.4 235.4 212.2C203.6 201.8 174.7 200.4 144.1 198.9C130 198.2 115.8 197.2 102 196.3C79.4 194.7 56 193.1 32.9 192.8V191.8C56 192.1 79.4 193.7 102.1 195.3C115.9 196.3 130.1 197.2 144.2 197.9C174.9 199.4 203.9 200.8 235.8 211.2C270 222.3 296.3 225.5 323.9 221.8C342.3 219.3 360.7 215.2 378.5 211.3C403.2 205.8 428.8 200.1 454.8 198.7L454.9 199.7C429 201.1 403.5 206.8 378.8 212.3C361 216.3 342.6 220.3 324.1 222.8C316.6 223.8 309.4 224.3 302 224.3Z" fill="white"/>
<path d="M298.8 231.7C278.2 231.7 257.5 227.8 233.1 219.6C202.4 209.2 174.1 207.6 143.1 206.6C129.1 206.2 114.8 205.5 101.1 204.9C78.3 203.9 54.6 202.9 31.4 202.7V201.7C54.7 201.9 78.3 202.9 101.2 203.9C115 204.5 129.2 205.1 143.2 205.6C174.4 206.6 202.7 208.2 233.5 218.6C266.5 229.7 292.7 232.9 321 229.2C340.1 226.7 359.3 222.6 377.9 218.7C403.6 213.3 430.3 207.6 457.2 206.1L457.3 207.1C430.4 208.6 403.9 214.3 378.2 219.7C359.6 223.6 340.5 227.7 321.3 230.2C313.5 231.2 306.2 231.7 298.8 231.7Z" fill="white"/>
<path d="M296.2 238.9C275.4 238.9 254.9 235 231.1 226.8C181.4 209.6 125.5 211.1 71.4 212.5C57.4 212.9 42.9 213.2 29 213.2V212.2C42.8 212.2 57.3 211.8 71.3 211.5C125.5 210.1 181.5 208.7 231.4 225.9C263.6 237 289.7 240.2 318.6 236.5C338.4 234 358.2 230 377.4 226.1C404 220.7 431.5 215.1 459.2 213.5L459.3 214.5C431.6 216.1 404.2 221.7 377.6 227.1C358.4 231 338.5 235 318.7 237.5C311.1 238.4 303.7 238.9 296.2 238.9Z" fill="white"/>
<path d="M296.1 246.3C275.9 246.3 255.3 242.6 230.5 234.9C179.2 218.8 122.2 220.2 67.1 221.6C53.5 221.9 39.5 222.3 26.1 222.3V221.3C39.5 221.2 53.6 220.9 67.1 220.6C122.3 219.2 179.3 217.8 230.8 234C263.4 244.2 288.7 247.3 315.4 244.3C336.8 241.9 358.4 237.7 379.2 233.7C406.1 228.5 433.9 223.1 461.9 221.4L462 222.4C434.1 224.1 406.3 229.4 379.5 234.7C358.7 238.7 337.1 242.9 315.7 245.3C309 245.9 302.6 246.3 296.1 246.3Z" fill="white"/>
<path d="M295.3 253.9C272.3 253.9 250.5 250.5 231.5 247C206.4 242.3 182.3 241.1 156.7 239.8C151.7 239.6 146.7 239.3 141.7 239C126.4 238.2 111 236.9 96 235.6C72.1 233.6 47.4 231.6 22.9 231.3V230.3C47.4 230.6 72.1 232.7 96.1 234.7C111.1 235.9 126.5 237.2 141.8 238.1C146.8 238.4 151.9 238.6 156.8 238.9C182.4 240.2 206.5 241.4 231.7 246.1C256.9 250.8 286.9 255.2 318.1 251.8C339.6 249.5 361.3 245.6 382.2 241.9C409.1 237.1 436.9 232.2 464.7 230.4L464.8 231.4C437 233.1 409.3 238.1 382.4 242.8C361.5 246.5 339.8 250.4 318.2 252.7C310.5 253.5 302.8 253.9 295.3 253.9Z" fill="white"/>
<path d="M288.2 260.6C270.3 260.6 252.3 259.6 234.7 258.7L233.6 258.6C221.5 257.9 209.2 257.8 197.3 257.6C179.6 257.3 161.4 257 143.5 255.3C127.1 253.7 110.7 251.2 94.7 248.8C70.2 245.1 44.9 241.2 19.5 240.5V239.5C44.9 240.2 70.3 244.1 94.8 247.8C110.7 250.2 127.2 252.7 143.5 254.3C161.3 256.1 179.5 256.4 197.2 256.6C209.1 256.8 221.5 257 233.5 257.6L234.6 257.7C264.5 259.3 295.3 261 325.5 257.9C345.4 255.8 365.5 252.7 385 249.6C411.9 245.4 439.6 241 467.4 239.5L467.5 240.5C439.8 242 412.1 246.4 385.2 250.6C365.7 253.6 345.6 256.8 325.7 258.9C313.4 260.1 300.8 260.6 288.2 260.6Z" fill="white"/>
<path d="M175.3 273.8C164.4 273.8 153.6 273.2 142.8 271.6C126 269.1 109.3 265.4 93.1 261.8C68.2 256.3 42.5 250.6 16.4 249.3V248.3C42.6 249.6 68.4 255.3 93.3 260.8C109.5 264.4 126.2 268.1 142.9 270.6C170.3 274.6 198.3 272.2 225.4 269.9C229 269.6 232.6 269.3 236.3 269C251.6 267.8 267.2 267 282.2 266.3C298.2 265.6 314.6 264.8 330.8 263.4C350.4 261.7 370.2 259.1 389.3 256.6C415.8 253.1 443.2 249.5 470.4 248.3V249.3C443.2 250.5 415.9 254.1 389.4 257.6C370.2 260.1 350.4 262.7 330.8 264.4C314.6 265.8 298.1 266.5 282.2 267.3C267.2 268 251.6 268.7 236.3 269.9C232.7 270.2 229.1 270.5 225.5 270.8C209 272.4 192.1 273.8 175.3 273.8Z" fill="white"/>
<path d="M170.5 291.3C160.2 291.3 149.7 290.4 139.1 288.1C123.1 284.7 107.3 279.9 92 275.4C66.7 267.8 40.6 260 13.3 258L13.4 257C40.7 259 66.9 266.8 92.3 274.4C107.6 279 123.4 283.7 139.4 287.1C174.7 294.7 208.9 287.1 239.1 280.5C268 274.1 297 270.4 333.1 268.4C353.8 267.2 374.8 265.1 395.1 263.1C420.7 260.5 447.2 257.8 473.4 257.1V258.1C447.2 258.9 420.7 261.6 395.2 264.1C374.9 266.2 353.9 268.3 333.2 269.4C297.2 271.4 268.2 275.2 239.4 281.5C217.9 286.2 194.7 291.3 170.5 291.3Z" fill="white"/>
<path d="M169.1 309.4C159.1 309.4 148.9 308.2 138.2 305.3C121.8 300.9 105.8 294.9 90.2 289.1C64.6 279.6 38.2 269.7 10 266.9L10.1 265.9C38.5 268.7 65 278.6 90.6 288.2C106.1 294 122.1 300 138.5 304.4C174.4 314.1 205.1 305.1 241.6 292.4C311.2 268.1 388.4 267.1 463.2 266.1C467.5 266 471.8 266 476.1 265.9V266.9C471.8 267 467.5 267 463.2 267.1C388.6 268.1 311.4 269.1 242 293.3C216.1 302.2 193.1 309.4 169.1 309.4Z" fill="white"/>
<path d="M168.9 326.3C157.9 326.3 146.5 324.6 134.3 320.5C118.8 315.4 103.7 308.8 89.1 302.4C63.1 291 36.3 279.3 6.90002 275.9L7.00002 274.9C36.4 278.3 63.4 290.1 89.4 301.5C104 307.9 119.1 314.5 134.5 319.6C174.9 332.9 206.6 321 243.8 303.9C275.4 289.4 304.8 279.6 345.7 278.8C364.2 278.4 383.1 277.7 401.3 277C426.7 276 453 275 478.9 274.9V275.9C453 275.9 426.7 277 401.3 278C383.1 278.7 364.3 279.5 345.7 279.8C305 280.6 275.7 290.4 244.2 304.8C218.1 316.8 194.6 326.3 168.9 326.3Z" fill="white"/>
<path d="M168.5 341.5C158.2 341.5 147.4 339.8 136 335.9C118.8 330.1 102.4 322.1 86.4 314.3C60.4 301.6 33.5 288.6 3.40002 285.2L3.50002 284.2C33.8 287.6 60.8 300.7 86.9 313.4C102.8 321.1 119.2 329.1 136.3 334.9C177 348.7 208.5 334.7 245.4 314.9C280.1 296.4 307.8 285.6 346.6 285.5C366.3 285.4 386.2 285.1 405.6 284.8C430.6 284.4 456.4 284 481.8 284.1V285.1C456.4 285 430.6 285.4 405.6 285.8C386.3 286.1 366.3 286.4 346.6 286.5C307.9 286.6 280.4 297.4 245.8 315.8C219.1 330.2 195.2 341.5 168.5 341.5Z" fill="white"/>
<path d="M167.9 353.5C157.3 353.5 146.2 351.7 134.3 347.6C116.9 341.6 100.4 333.1 84.4 324.9C58.2 311.4 31 297.5 0 294.8L0.0999999 293.8C31.3 296.5 58.6 310.5 85 324C101 332.2 117.4 340.7 134.8 346.6C177.7 361.4 210.6 345.6 246 325.1C281.2 304.8 308 293.7 349 293.7C368.8 293.7 388.6 293.7 408.5 293.7C434 293.7 459.5 293.7 484.9 293.7V294.7C459.4 294.7 433.9 294.7 408.5 294.7C388.7 294.7 368.8 294.7 349 294.7C308.2 294.7 281.5 305.7 246.5 325.9C220.5 341 196 353.5 167.9 353.5Z" fill="white"/>
</svg>
