<svg width="387" height="373" viewBox="0 0 387 373" fill="none" xmlns="http://www.w3.org/2000/svg">
<mask id="mask0_201_641" style="mask-type:luminance" maskUnits="userSpaceOnUse" x="51" y="119" width="243" height="213">
<path d="M283.956 284.926C309.825 236.316 280.876 170.345 219.298 137.575C157.719 104.805 86.8294 117.645 60.9609 166.254C35.0924 214.864 64.041 280.835 125.619 313.605C187.198 346.376 258.088 333.535 283.956 284.926Z" fill="white"/>
</mask>
<g mask="url(#mask0_201_641)">
<path d="M196 332.315C143.8 332.315 88.9 301.315 63.9 254.115C49 225.915 46.9 196.615 57.9 171.415C68.4 147.515 89.8 130.215 118.1 122.915C177.9 107.315 251 140.715 281 197.315C295.9 225.515 298 254.815 287 280.015C276.5 303.915 255.1 321.215 226.8 328.515C216.8 331.015 206.5 332.315 196 332.315ZM148.9 120.015C138.5 120.015 128.3 121.215 118.4 123.815C90.4 131.115 69.2 148.115 58.8 171.815C47.9 196.715 50 225.715 64.7 253.615C89.5 300.515 144 331.315 195.9 331.315C206.3 331.315 216.5 330.115 226.4 327.515C254.4 320.215 275.6 303.215 286 279.515C296.9 254.615 294.8 225.615 280.1 197.715C255.3 150.815 200.8 120.015 148.9 120.015Z" fill="white"/>
</g>
<mask id="mask1_201_641" style="mask-type:luminance" maskUnits="userSpaceOnUse" x="0" y="8" width="387" height="357">
<path d="M21.3 248.415C25.9 257.115 41.6 259.715 64.3 253.815C94.2 310.315 166.9 343.515 226.6 327.915C286.3 312.315 310.5 253.915 280.6 197.415C250.7 140.915 178 107.715 118.3 123.315C58.6 138.915 34.4 197.315 64.3 253.815C41.6 259.715 25.9 257.215 21.3 248.415C19 243.915 14.5 234.615 13.5 231.915C12.1 228.115 10 223.215 8.8 219.415C7.2 214.515 5.2 207.915 4.2 202.915C2.7 195.515 0.899998 185.515 0.399998 177.915C0.0999977 172.815 0 166.015 0 160.915C0.1 157.215 0.499999 152.415 0.799999 148.815C1.3 143.615 2.6 136.815 3.6 131.815C4.3 128.315 5.7 123.715 6.6 120.315C7.9 115.215 10.6 108.715 12.7 103.915C15.1 98.3152 19 91.2152 22 85.9152C23.8 82.8152 26.5 78.9152 28.5 76.0152C32.5 70.1152 39 63.0152 43.8 57.8152C47.3 54.0152 52.4 49.3152 56.6 46.2152C60.6 43.2152 65.9 39.2152 70.1 36.4152C73.2 34.3152 77.6 31.8152 80.9 30.0152C97.8 20.8152 116.5 14.3152 136.6 10.9152C141.1 10.1152 147.1 9.21523 151.6 8.91523C155.7 8.71523 161.3 8.21523 165.4 8.11523C169.8 8.01523 175.6 8.01523 179.9 8.31523C188.2 8.81523 199.3 10.0152 207.5 11.5152C219.4 13.7152 226.9 15.9152 234.9 18.3152C235.4 18.4152 247 22.0152 261.2 28.4152C275.3 34.9152 285.7 41.4152 286.1 41.7152C293.2 46.2152 299.9 50.4152 309.5 58.1152C316.1 63.4152 324.5 71.0152 330.4 77.1152C339 86.0152 345.4 94.1152 349.2 99.3152C356.8 109.815 360.1 115.715 365.1 124.615C365.8 125.815 371.6 137.715 372.9 141.115C374.3 144.915 376.4 149.815 377.6 153.615C379.2 158.515 381.1 165.115 382.2 170.115C383.8 177.515 385.5 187.515 386 195.115C386.3 200.215 386.4 207.015 386.4 212.115C386.3 215.815 385.9 220.615 385.6 224.215C385.2 229.415 383.8 236.215 382.8 241.215C382.1 244.715 380.7 249.315 379.8 252.715C378.5 257.815 375.8 264.315 373.7 269.115C371.3 274.715 367.4 281.815 364.4 287.115C362.6 290.215 359.9 294.115 357.9 297.015C353.9 302.915 347.4 310.015 342.6 315.215C339.1 319.015 334 323.715 329.8 326.815C325.8 329.815 320.5 333.815 316.3 336.615C313.2 338.715 308.8 341.215 305.5 343.015C301.2 345.315 295.4 348.315 290.9 350.115C283.5 353.015 273.4 356.615 265.7 358.715C261 360.015 254.6 361.315 249.8 362.115C245.3 362.915 239.3 363.715 234.8 364.115C226.6 364.715 215.5 364.815 207.2 364.715C202.8 364.615 196.9 364.015 192.6 363.515C188.4 363.015 182.7 362.215 178.6 361.415C172.7 360.215 161.6 358.015 151.4 354.615C147.4 353.315 142 351.615 138.2 349.915C134.3 348.315 129.1 346.215 125.3 344.515C121.5 342.715 116.4 340.315 112.7 338.315C108.9 336.315 104 333.515 100.4 331.315C96.8 329.115 92.1 325.915 88.6 323.615C85 321.215 80.4 317.715 77 314.915C70.5 309.515 62.2 301.815 56.1 295.915C52.9 292.815 49 288.315 46.1 284.915C43.1 281.315 39 276.415 36.4 272.515C31.5 265.415 25.5 255.815 21.3 248.415Z" fill="white"/>
</mask>
<g mask="url(#mask1_201_641)">
<path d="M261.7 359.715C256.5 359.715 251.1 357.415 245.7 353.215C169.4 359.015 86.5998 320.615 39.5998 257.415C31.4998 257.015 25.3998 254.715 22.0998 250.515C18.2998 245.615 18.4998 238.715 22.8998 230.515L23.2998 229.715L23.6998 230.515C28.4998 239.515 33.9998 248.215 40.0998 256.415C46.8998 256.715 54.9998 255.615 64.1998 253.315L64.5998 253.215L64.7998 253.515C89.5998 300.415 144.1 331.215 196 331.215C206.4 331.215 216.6 330.015 226.5 327.415L226.9 327.315L227.1 327.615C232.8 338.415 239.4 346.815 246 352.115C257 351.215 267.8 349.515 278.3 346.715L279.4 346.415L278.9 347.415C274.7 355.515 268.7 359.715 261.7 359.715ZM247.2 353.115C252.1 356.715 257 358.715 261.7 358.715C268 358.715 273.5 355.015 277.5 348.115C267.5 350.615 257.4 352.315 247.2 353.115ZM40.8998 257.515C87.5998 319.815 169.2 357.715 244.6 352.415C238.2 347.015 231.9 338.915 226.4 328.615C166.8 343.915 94.0998 310.715 64.0998 254.515C55.3998 256.715 47.4998 257.715 40.8998 257.515ZM23.2998 231.915C19.4998 239.415 19.3998 245.615 22.7998 249.915C25.7998 253.715 31.3998 255.915 38.7998 256.415C33.0998 248.615 27.8998 240.415 23.2998 231.915Z" fill="white"/>
<path d="M205.7 357.615C138.4 357.615 67.6999 317.615 35.5999 256.915L36.4998 256.415C74.8998 328.915 168.5 371.715 245.1 351.715L245.4 352.715C232.4 356.015 219.1 357.615 205.7 357.615Z" fill="white"/>
<path d="M218 365.315C140.1 365.315 58.0997 319.015 20.8997 248.615L21.7997 248.115C66.2997 332.215 174.8 381.815 263.7 358.615L264 359.615C249 363.515 233.5 365.315 218 365.315Z" fill="white"/>
<path d="M85.1997 321.415C84.8997 321.415 84.5997 321.315 84.2997 321.215C83.6997 320.815 81.6997 319.415 88.9997 305.715L89.8998 306.215C83.2998 318.515 84.5998 320.215 84.8998 320.415C85.1998 320.615 88.2997 321.815 106 301.315L106.8 302.015C98.8997 311.115 88.9997 321.415 85.1997 321.415Z" fill="white"/>
<path d="M170.2 360.115C169.9 360.115 169.6 360.115 169.2 360.015C164.5 358.615 162.7 347.115 164.1 328.215L165.1 328.315C163.1 355.115 167.9 358.615 169.5 359.115C172.2 359.915 176.2 355.815 180.6 347.615L181.5 348.115C177.2 355.915 173.4 360.115 170.2 360.115Z" fill="white"/>
<path d="M261.7 359.715C249.9 359.715 236.7 347.915 226.2 328.215L225.9 327.615L226.5 327.415C254.5 320.115 275.7 303.115 286.1 279.415C297 254.515 294.9 225.515 280.2 197.615L279.9 197.015L280.5 196.815C314.5 187.915 351.4 163.315 362.9 141.815L363.3 141.015L363.7 141.815C387.1 186.015 390.4 232.115 373 271.515C356.5 309.015 323 336.015 278.7 347.615C274.6 355.615 268.6 359.715 261.7 359.715ZM227.4 328.315C237.6 347.415 250.4 358.715 261.7 358.715C268.3 358.715 274 354.715 278 347.115L278.1 346.915L278.3 346.815C322.4 335.315 355.7 308.515 372.1 271.215C389.2 232.315 386.1 186.815 363.2 143.215C351.2 164.615 314.9 188.815 281.3 197.715C295.9 225.715 298 254.815 287 279.815C276.5 303.615 255.4 320.815 227.4 328.315Z" fill="white"/>
<path d="M245.2 352.615L244.9 351.615C281 342.215 308.3 320.215 321.7 289.715C335.8 257.615 333.1 220.115 314.1 184.115L315 183.615C334.2 219.815 336.9 257.615 322.7 290.015C309.2 320.915 281.7 343.115 245.2 352.615Z" fill="white"/>
<path d="M263.8 359.615L263.5 358.615C305.4 347.715 337.1 322.215 352.6 286.815C369 249.615 365.8 206.115 343.8 164.415L344.7 163.915C366.9 205.915 370.1 249.715 353.6 287.215C337.9 322.915 306 348.615 263.8 359.615Z" fill="white"/>
<path d="M323 318.815C307.8 318.815 290 312.215 273.5 300.115L274.1 299.315C294.2 314.015 316.2 320.515 332.9 316.715C341.7 314.715 348.3 309.915 352.1 302.715L353 303.215C349.1 310.615 342.2 315.615 333.1 317.715C329.9 318.515 326.5 318.815 323 318.815Z" fill="white"/>
<path d="M320.1 256.415C311.2 256.415 302.1 255.415 293.1 253.415L293.3 252.415C331.2 261.015 371.2 250.515 382.6 229.115L383.5 229.615C374.6 246.315 348.8 256.415 320.1 256.415Z" fill="white"/>
<path d="M280.3 198.015L280.1 197.715C250.3 141.515 177.8 108.315 118.4 123.815L118 123.915L117.8 123.615C100.6 91.2152 96.0998 47.2152 107.7 25.5152L107.8 25.3152L108 25.2152C201.9 0.715229 316.6 53.1152 363.7 142.015L363.8 142.215L363.7 142.415C352.2 164.115 314.9 189.015 280.7 197.915L280.3 198.015ZM148.9 119.015C201 119.015 255.8 149.915 280.8 196.915C314.6 188.015 351.1 163.615 362.7 142.215C315.8 53.9152 201.9 1.81522 108.5 26.1152C97.1998 47.6152 101.7 90.8152 118.6 122.815C128.4 120.215 138.6 119.015 148.9 119.015Z" fill="white"/>
<path d="M314.2 184.215C275.8 111.715 182.2 68.9153 105.6 88.9153L105.3 87.9153C182.3 67.8153 276.4 110.815 315 183.715L314.2 184.215Z" fill="white"/>
<path d="M343.9 164.415C299.4 80.3153 190.9 30.7153 102 53.9153L101.7 52.9153C191 29.6153 300 79.4153 344.7 163.915L343.9 164.415Z" fill="white"/>
<path d="M238.9 150.015L238.1 149.315C258.9 125.415 285.2 88.3152 296.6 66.8152L297.5 67.3152C286 88.9152 259.7 126.015 238.9 150.015Z" fill="white"/>
<path d="M180.8 123.115L179.8 123.015C182.3 90.6151 193.6 46.6151 205.2 25.0151L206.1 25.5151C194.5 47.0151 183.2 90.8151 180.8 123.115Z" fill="white"/>
<path d="M42.4 257.515C32.9 257.515 25.7 255.115 22.1 250.515C18.3 245.715 18.5 238.915 22.8 230.815C-0.500025 186.715 -3.80002 140.715 13.6 101.315C30.1 63.8153 63.7 36.7153 108.1 25.2153L109.2 24.9153L108.7 25.9153C97.3 47.4153 101.8 91.0153 118.8 123.115L119.1 123.715L118.5 123.915C90.5 131.215 69.3 148.215 58.9 171.915C48 196.815 50.1 225.815 64.8 253.715L65.1 254.315L64.5 254.515C56.3 256.415 48.8 257.515 42.4 257.515ZM107.2 26.4153C63.6 38.1153 30.7 64.8153 14.5 101.715C-2.70003 140.915 0.599974 186.715 23.8 230.615L23.9 230.815L23.8 231.015C19.6 238.815 19.3 245.415 22.9 249.915C28.7 257.215 43.9 258.515 63.6 253.515C49 225.515 46.9 196.415 57.9 171.415C68.3 147.615 89.5 130.515 117.5 123.015C100.9 91.1153 96.4 48.3153 107.2 26.4153Z" fill="white"/>
<path d="M35.4999 256.915C16.2999 220.715 13.5999 182.915 27.7999 150.515C41.2999 119.715 68.8999 97.5154 105.3 88.0154L105.6 89.0154C69.4999 98.4154 42.1999 120.415 28.7999 150.915C14.6999 182.915 17.3999 220.415 36.3999 256.415L35.4999 256.915Z" fill="white"/>
<path d="M20.8 248.615C-1.4 206.615 -4.6 162.815 11.9 125.315C27.6 89.6153 59.5 63.9153 101.7 52.9153L102 53.9153C60.1 64.8153 28.4 90.3153 12.9 125.715C-3.5 162.915 -0.300003 206.415 21.8 248.115L20.8 248.615Z" fill="white"/>
<path d="M70.7999 151.915C38.5999 128.415 21.8999 91.5153 33.4999 69.7153L34.3999 70.2153C22.9999 91.6153 39.5999 127.915 71.3999 151.115L70.7999 151.915Z" fill="white"/>
<path d="M51.5999 198.815C27.5999 193.415 9.19989 181.415 2.59989 166.915C-1.00011 159.015 -0.800112 150.815 3.19989 143.315L4.09989 143.815C0.299886 151.015 0.0998859 158.915 3.59989 166.515C10.0999 180.815 28.1999 192.515 51.9999 197.915L51.5999 198.815Z" fill="white"/>
<path d="M230.3 353.815C148.3 353.815 62.0998 305.115 22.8998 231.015L22.7998 230.815L22.8998 230.615C34.3998 208.915 71.6998 184.015 105.9 175.115L106.3 175.015L106.5 175.315C136.3 231.515 208.8 264.715 268.2 249.215L268.6 249.115L268.8 249.415C286 281.815 290.5 325.815 278.9 347.615L278.8 347.815L278.6 347.915C262.9 351.915 246.7 353.815 230.3 353.815ZM23.8998 230.815C70.7998 319.115 184.7 371.115 278.1 346.915C289.4 325.415 284.9 282.215 268 250.215C208.4 265.515 135.7 232.315 105.7 176.115C71.9998 185.015 35.3998 209.415 23.8998 230.815Z" fill="white"/>
<path d="M239 325.815C161.1 325.815 79.0999 279.515 41.8999 209.115L42.7999 208.615C87.2999 292.715 195.8 342.315 284.7 319.115L285 320.115C270 323.915 254.6 325.815 239 325.815Z" fill="white"/>
<path d="M89.9998 306.215L89.0999 305.715C100.6 284.115 126.9 247.015 147.8 223.015L148.6 223.715C127.7 247.615 101.4 284.615 89.9998 306.215Z" fill="white"/>
<path d="M181.5 348.015L180.6 347.515C192.1 326.015 203.4 282.215 205.8 249.915L206.8 250.015C204.4 282.315 193 326.315 181.5 348.015Z" fill="white"/>
<path d="M277.5 348.115L278 347.115C289.4 325.615 284.9 282.015 267.9 249.915L267.6 249.315L268.2 249.115C296.2 241.815 317.4 224.815 327.8 201.115C338.7 176.215 336.6 147.215 321.9 119.315L321.6 118.715L322.2 118.515C342.7 113.215 358.5 114.615 364.6 122.315C368.4 127.115 368.2 133.915 363.9 142.015C387.2 186.115 390.5 232.115 373.1 271.515C356.6 309.015 323 336.115 278.6 347.615L277.5 348.115ZM269 250.015C285.7 281.815 290.2 324.715 279.4 346.615C323 334.915 355.9 308.215 372.1 271.315C389.3 232.115 386 186.315 362.8 142.415L362.7 142.215L362.8 142.015C367 134.215 367.3 127.615 363.7 123.115C357.9 115.815 342.7 114.515 323 119.515C337.6 147.515 339.7 176.615 328.7 201.615C318.2 225.315 297.1 242.515 269 250.015Z" fill="white"/>
<path d="M284.9 320.115L284.6 319.115C326.5 308.215 358.2 282.715 373.7 247.315C390.1 210.115 386.9 166.615 364.8 124.915L365.7 124.415C387.9 166.415 391.1 210.215 374.6 247.715C359 283.315 327.1 309.015 284.9 320.115Z" fill="white"/>
<path d="M353.1 303.215L352.2 302.715C363.6 281.315 347 245.015 315.2 221.815L315.8 221.015C347.9 244.615 364.7 281.415 353.1 303.215Z" fill="white"/>
<path d="M383.5 229.615L382.6 229.115C386.4 221.915 386.6 214.015 383.1 206.415C376.6 192.115 358.5 180.415 334.7 175.015L334.9 174.015C359 179.415 377.3 191.415 384 205.915C387.7 214.015 387.5 222.115 383.5 229.615Z" fill="white"/>
<path d="M363.3 143.215L362.9 142.415C358.1 133.415 352.6 124.715 346.5 116.515C339.8 116.215 331.6 117.315 322.4 119.615L322 119.715L321.8 119.415C292 63.2153 219.5 30.0153 160.1 45.5153L159.7 45.6153L159.5 45.3153C153.8 34.4153 147.3 26.0153 140.6 20.7153C129.6 21.6153 118.8 23.3153 108.3 26.1153L107.2 26.4153L107.7 25.4153C111.9 17.4153 117.9 13.2153 124.9 13.2153C130.1 13.2153 135.5 15.5153 140.9 19.7153C217.1 13.9153 300 52.3153 347 115.515C355.1 115.915 361.2 118.215 364.5 122.415C368.3 127.315 368.1 134.215 363.7 142.415L363.3 143.215ZM347.8 116.515C353.5 124.315 358.7 132.515 363.3 141.015C367.1 133.515 367.2 127.315 363.8 122.915C360.7 119.215 355.2 117.115 347.8 116.515ZM190.6 40.7153C242.7 40.7153 297.5 71.6153 322.5 118.615C331.2 116.415 339.1 115.315 345.7 115.515C299 53.2153 217.4 15.3153 142 20.7153C148.4 26.1153 154.7 34.2153 160.2 44.5153C170.1 41.9153 180.3 40.7153 190.6 40.7153ZM124.9 14.2153C118.6 14.2153 113.1 17.9153 109.1 24.8153C119 22.3153 129.1 20.6153 139.4 19.8153C134.6 16.2153 129.6 14.2153 124.9 14.2153Z" fill="white"/>
<path d="M364.9 124.815C320.4 40.7152 211.9 -8.88479 123 14.3152L122.7 13.3152C212 -9.98479 321 39.8152 365.7 124.315L364.9 124.815Z" fill="white"/>
<path d="M280.5 71.7153L279.7 71.0153C288.3 61.1153 299.2 49.7153 302.2 51.8153C302.8 52.2153 304.8 53.6153 297.5 67.3153L296.6 66.8153C303.2 54.5153 301.9 52.8153 301.6 52.6153C301.4 52.4153 298.3 51.2153 280.5 71.7153Z" fill="white"/>
<path d="M222.4 44.8151L221.4 44.7151C223.4 17.9151 218.6 14.4151 217 14.0151C214.2 13.2151 210.3 17.3151 205.9 25.5151L205 25.0151C209.7 16.2151 213.9 12.0151 217.2 13.0151C222 14.3151 223.9 25.9151 222.4 44.8151Z" fill="white"/>
<path d="M23.3 231.915L22.9 231.115C-0.500031 186.915 -3.80003 140.815 13.6 101.415C30.1 63.9152 63.6 36.9152 107.9 25.3152C112.1 17.5152 118 13.3152 125 13.3152C136.8 13.3152 150 25.1152 160.5 44.8152L160.8 45.4152L160.2 45.6152C132.2 52.9152 111 69.9152 100.6 93.6152C89.7 118.515 91.8 147.515 106.5 175.415L106.8 176.015L106.2 176.215C72.2 185.115 35.3 209.815 23.8 231.215L23.3 231.915ZM124.9 14.2152C118.3 14.2152 112.6 18.2152 108.5 25.8152L108.4 26.0152L108.2 26.1152C64.1 37.6152 30.8 64.4152 14.4 101.715C-2.70003 140.615 0.399971 186.115 23.3 229.715C35.3 208.315 71.6 184.115 105.2 175.115C90.6 147.115 88.5 118.015 99.5 93.0152C109.9 69.2152 131.1 52.1152 159.1 44.6152C149 25.6152 136.2 14.2152 124.9 14.2152Z" fill="white"/>
<path d="M41.8999 209.115C19.6999 167.115 16.4998 123.315 32.9998 85.8153C48.6998 50.1153 80.5998 24.4153 122.8 13.4153L123.1 14.4153C81.1999 25.3153 49.4998 50.8153 33.9998 86.2153C17.5998 123.415 20.7999 166.915 42.8999 208.615L41.8999 209.115Z" fill="white"/>
<path d="M112.5 73.6152C92.3998 58.9152 70.3999 52.4152 53.6999 56.2152C44.8999 58.2152 38.2998 63.0152 34.4998 70.2152L33.5999 69.7152C37.4999 62.3152 44.3998 57.3152 53.4998 55.2152C70.4998 51.3152 92.7998 57.9152 113.2 72.8152L112.5 73.6152Z" fill="white"/>
<path d="M3.99986 143.815L3.09985 143.315C14.6999 121.515 55.2998 110.815 93.4998 119.515L93.2999 120.515C55.4999 111.915 15.3999 122.415 3.99986 143.815Z" fill="white"/>
</g>
<mask id="mask2_201_641" style="mask-type:luminance" maskUnits="userSpaceOnUse" x="0" y="8" width="387" height="357">
<path d="M21.3 248.415C25.9 257.115 41.6 259.715 64.3 253.815C94.2 310.315 166.9 343.515 226.6 327.915C286.3 312.315 310.5 253.915 280.6 197.415C250.7 140.915 178 107.715 118.3 123.315C58.6 138.915 34.4 197.315 64.3 253.815C41.6 259.715 25.9 257.215 21.3 248.415C19 243.915 14.5 234.615 13.5 231.915C12.1 228.115 10 223.215 8.8 219.415C7.2 214.515 5.2 207.915 4.2 202.915C2.7 195.515 0.899998 185.515 0.399998 177.915C0.0999977 172.815 0 166.015 0 160.915C0.1 157.215 0.499999 152.415 0.799999 148.815C1.3 143.615 2.6 136.815 3.6 131.815C4.3 128.315 5.7 123.715 6.6 120.315C7.9 115.215 10.6 108.715 12.7 103.915C15.1 98.3152 19 91.2152 22 85.9152C23.8 82.8152 26.5 78.9152 28.5 76.0152C32.5 70.1152 39 63.0152 43.8 57.8152C47.3 54.0152 52.4 49.3152 56.6 46.2152C60.6 43.2152 65.9 39.2152 70.1 36.4152C73.2 34.3152 77.6 31.8152 80.9 30.0152C97.8 20.8152 116.5 14.3152 136.6 10.9152C141.1 10.1152 147.1 9.21523 151.6 8.91523C155.7 8.71523 161.3 8.21523 165.4 8.11523C169.8 8.01523 175.6 8.01523 179.9 8.31523C188.2 8.81523 199.3 10.0152 207.5 11.5152C219.4 13.7152 226.9 15.9152 234.9 18.3152C235.4 18.4152 247 22.0152 261.2 28.4152C275.3 34.9152 285.7 41.4152 286.1 41.7152C293.2 46.2152 299.9 50.4152 309.5 58.1152C316.1 63.4152 324.5 71.0152 330.4 77.1152C339 86.0152 345.4 94.1152 349.2 99.3152C356.8 109.815 360.1 115.715 365.1 124.615C365.8 125.815 371.6 137.715 372.9 141.115C374.3 144.915 376.4 149.815 377.6 153.615C379.2 158.515 381.1 165.115 382.2 170.115C383.8 177.515 385.5 187.515 386 195.115C386.3 200.215 386.4 207.015 386.4 212.115C386.3 215.815 385.9 220.615 385.6 224.215C385.2 229.415 383.8 236.215 382.8 241.215C382.1 244.715 380.7 249.315 379.8 252.715C378.5 257.815 375.8 264.315 373.7 269.115C371.3 274.715 367.4 281.815 364.4 287.115C362.6 290.215 359.9 294.115 357.9 297.015C353.9 302.915 347.4 310.015 342.6 315.215C339.1 319.015 334 323.715 329.8 326.815C325.8 329.815 320.5 333.815 316.3 336.615C313.2 338.715 308.8 341.215 305.5 343.015C301.2 345.315 295.4 348.315 290.9 350.115C283.5 353.015 273.4 356.615 265.7 358.715C261 360.015 254.6 361.315 249.8 362.115C245.3 362.915 239.3 363.715 234.8 364.115C226.6 364.715 215.5 364.815 207.2 364.715C202.8 364.615 196.9 364.015 192.6 363.515C188.4 363.015 182.7 362.215 178.6 361.415C172.7 360.215 161.6 358.015 151.4 354.615C147.4 353.315 142 351.615 138.2 349.915C134.3 348.315 129.1 346.215 125.3 344.515C121.5 342.715 116.4 340.315 112.7 338.315C108.9 336.315 104 333.515 100.4 331.315C96.8 329.115 92.1 325.915 88.6 323.615C85 321.215 80.4 317.715 77 314.915C70.5 309.515 62.2 301.815 56.1 295.915C52.9 292.815 49 288.315 46.1 284.915C43.1 281.315 39 276.415 36.4 272.515C31.5 265.415 25.5 255.815 21.3 248.415Z" fill="white"/>
</mask>
<g mask="url(#mask2_201_641)">
<path d="M213.6 365.215C211.5 365.215 209.4 365.215 207.2 365.215C203 365.115 197.7 364.615 192.5 364.015C188.6 363.515 182.8 362.815 178.4 361.915C172.5 360.715 161.4 358.515 151.2 355.115L149 354.415C145.3 353.215 141.2 351.815 138 350.515C136.8 350.015 135.4 349.415 134 348.815C130.9 347.515 127.7 346.215 125.1 345.015C121.2 343.215 116.1 340.715 112.5 338.815C108.7 336.815 103.7 333.915 100.2 331.815C97.7 330.315 94.8 328.315 92 326.415C90.7 325.615 89.5 324.815 88.4 324.015C84.5 321.415 79.8 317.815 76.8 315.315C70.1 309.815 61.6 301.915 55.9 296.315C53.3 293.815 50.1 290.215 45.9 285.215C41.4 279.915 38.3 275.815 36.2 272.715C31.8 266.315 26.1 257.015 21.7 249.515C21.5 249.215 21.4 249.015 21.2 248.715C19 244.415 14.5 235.015 13.4 232.115C13 230.915 12.5 229.715 12 228.315C10.8 225.315 9.6 222.215 8.8 219.515C7.3 214.915 5.2 208.115 4.2 202.915C2.7 195.815 0.899998 185.615 0.399998 177.815C0.0999977 172.815 0 165.915 0 160.815C0.1 157.015 0.499998 152.015 0.899998 148.615C1.4 143.315 2.7 136.415 3.7 131.515C4.2 129.115 5 126.215 5.8 123.415C6.1 122.215 6.5 121.015 6.8 119.915C8.3 114.315 11.2 107.215 12.9 103.415C15.4 97.7153 19.3 90.5153 22.2 85.4153C23.5 83.0153 25.5 80.2153 27.2 77.7153C27.7 76.9153 28.3 76.2153 28.7 75.4153C32.9 69.1153 40.2 61.3153 44.1 57.1152C47.8 53.1152 53 48.4153 57 45.4153L57.4 45.1152C61.4 42.1152 66.4 38.3153 70.5 35.6152C73.8 33.4152 78.2 30.8153 81.3 29.1152C98.3 19.8152 117 13.4153 137.2 10.0153C143.6 8.91525 148.7 8.21525 152.3 8.01525C153.5 7.91525 154.9 7.81526 156.3 7.71526C159.5 7.51526 163.2 7.21526 166.2 7.21526C171.7 7.11526 177.1 7.21525 180.8 7.41525C188 7.91525 199.6 9.01525 208.4 10.6153C220.3 12.8153 227.9 15.0153 235.9 17.4153C236.4 17.6153 248 21.1152 262.2 27.6152C276.4 34.1152 286.8 40.6153 287.2 40.9153C294.3 45.4153 301 49.7153 310.6 57.3153C317.3 62.6153 325.7 70.3152 331.5 76.3152C340.1 85.2152 346.5 93.3153 350.3 98.5153C358 109.015 361.2 114.915 366.2 123.815C366.9 125.015 372.7 136.915 374 140.415C374.4 141.615 374.9 142.815 375.4 144.215C376.6 147.215 377.8 150.415 378.6 153.015C379.6 156.015 381.9 163.715 383.2 169.615C384.7 176.615 386.5 186.815 387 194.715C387.3 199.715 387.4 206.615 387.4 211.715C387.3 214.915 387 219.015 386.7 222.415L386.6 223.915C386.2 229.015 384.9 235.715 383.8 241.015C383.3 243.415 382.5 246.315 381.7 249.115C381.4 250.315 381 251.515 380.7 252.615C379.2 258.215 376.3 265.315 374.6 269.115C372.1 274.815 368.2 282.015 365.3 287.115C364 289.515 362 292.315 360.3 294.815C359.8 295.615 359.2 296.415 358.7 297.115C354.7 303.015 348.1 310.215 343.3 315.315C339.7 319.215 334.5 323.915 330.4 327.015L329.9 327.315C325.9 330.315 320.9 334.115 316.9 336.815C313.6 339.015 309.2 341.615 306.1 343.315C303.5 344.715 296.8 348.315 291.4 350.415C285 352.915 274.6 356.715 266.2 359.015C260.3 360.615 252.5 362.015 250.2 362.415C246.3 363.115 240 364.015 235.1 364.415C229.3 365.015 221.7 365.215 213.6 365.215ZM24.5 253.015C28.4 259.615 33 266.815 36.6 272.215C38.7 275.315 41.8 279.315 46.3 284.615C50.5 289.615 53.7 293.215 56.3 295.615C62 301.115 70.5 309.015 77.2 314.515C80.1 316.915 84.9 320.615 88.7 323.115C89.8 323.815 91 324.615 92.3 325.515C95.1 327.415 98 329.315 100.5 330.815C104 333.015 109 335.815 112.8 337.815C116.4 339.715 121.5 342.215 125.4 344.015C128 345.215 131.2 346.515 134.3 347.815C135.7 348.415 137.1 349.015 138.4 349.515C141.6 350.815 145.7 352.215 149.4 353.415L151.6 354.115C161.8 357.515 172.8 359.715 178.7 360.915C183.1 361.815 188.8 362.615 192.7 363.015C197.6 363.615 203.1 364.115 207.3 364.215C217.7 364.415 227.9 364.115 234.8 363.615C239.7 363.215 245.9 362.315 249.8 361.715C255.8 360.715 261.7 359.415 265.7 358.315C272.6 356.415 282.5 353.015 290.8 349.715C296.1 347.615 302.7 344.115 305.3 342.615C308.4 340.915 312.8 338.415 316 336.215C320 333.515 325 329.815 329 326.815L329.5 326.515C333.5 323.515 338.7 318.815 342.2 315.015C347 309.815 353.5 302.715 357.5 296.815C358 296.115 358.5 295.315 359.1 294.515C360.8 292.015 362.7 289.215 364.1 286.915C367 281.915 370.9 274.715 373.4 269.015C375 265.315 378 258.215 379.4 252.715C379.7 251.615 380 250.415 380.4 249.215C381.2 246.415 382 243.615 382.5 241.215C383.6 236.015 384.9 229.315 385.3 224.215L385.4 222.715C385.7 219.415 386.1 215.215 386.1 212.115C386.2 207.015 386 200.215 385.7 195.215C385.2 187.415 383.5 177.215 382 170.315C380.7 164.515 378.4 156.815 377.4 153.815C376.6 151.215 375.4 148.115 374.2 145.115C373.7 143.815 373.2 142.515 372.8 141.315C371.5 137.915 365.7 126.115 365.1 124.915C360.2 116.015 356.9 110.115 349.3 99.7153C345.5 94.5153 339.2 86.5153 330.6 77.6152C324.8 71.6152 316.4 64.0153 309.8 58.7153C300.3 51.1153 293.6 46.8153 286.5 42.4153C286.1 42.1153 275.7 35.6153 261.6 29.2153C247.5 22.7153 235.9 19.2153 235.4 19.1153C227.4 16.7153 219.9 14.5153 208 12.3153C199.2 10.7153 187.7 9.61525 180.5 9.11525C176.9 8.91525 171.4 8.81525 166 8.91525C163.1 9.01525 159.4 9.21525 156.2 9.41525C154.8 9.51525 153.5 9.61526 152.2 9.71526C148.6 9.91526 143.6 10.6153 137.2 11.6153C117.2 15.0153 98.5 21.4152 81.6 30.6152C78.5 32.3153 74.1 34.8153 70.9 37.0153C66.9 39.7153 61.9 43.4153 57.9 46.5153L57.5 46.8153C53.5 49.8153 48.4 54.4153 44.8 58.3153C40.9 62.5153 33.7 70.2153 29.5 76.4153C29 77.1152 28.5 77.9153 27.9 78.7153C26.2 81.2153 24.3 84.0152 22.9 86.3152C20 91.3152 16.1 98.5153 13.6 104.215C12 107.915 9 115.015 7.6 120.515C7.3 121.615 7 122.815 6.6 124.015C5.8 126.815 5 129.615 4.5 132.015C3.5 136.915 2.2 143.815 1.7 149.015C1.4 152.415 0.899998 157.415 0.899998 161.115C0.799998 166.215 0.999999 173.015 1.3 178.015C1.8 185.715 3.6 195.815 5 202.915C6.1 208.115 8.1 214.815 9.6 219.415C10.4 222.015 11.6 225.115 12.8 228.115C13.3 229.415 13.8 230.715 14.3 231.915C15.3 234.515 19.6 243.715 22 248.315C22.1 248.515 22.3 248.815 22.4 249.015C26.3 255.215 36.4 257.715 50.2 256.115C54.4 255.615 59 254.815 63.8 253.515C49.2 225.515 47.1 196.415 58.1 171.415C68.6 147.515 90 130.215 118.3 122.915C178.1 107.315 251.2 140.715 281.2 197.315C296.1 225.515 298.2 254.815 287.2 280.015C276.7 303.915 255.3 321.215 227 328.515C167.3 344.115 94.4 310.915 64.3 254.515C45.9 259.115 31.7 258.515 24.5 253.015ZM64.8 253.615C94.6 309.815 167.1 343.015 226.5 327.515C254.5 320.215 275.7 303.215 286.1 279.515C297 254.615 294.9 225.615 280.2 197.715C250.4 141.515 177.9 108.315 118.5 123.815C90.5 131.115 69.3 148.115 58.9 171.815C47.9 196.715 50 225.715 64.8 253.615Z" fill="white"/>
</g>
<mask id="mask3_201_641" style="mask-type:luminance" maskUnits="userSpaceOnUse" x="0" y="8" width="387" height="357">
<path d="M265.7 358.715C261.7 359.715 256.3 361.015 252.2 361.715C247.4 362.515 241 363.615 236.2 364.015C227.9 364.615 216.9 364.915 208.6 364.815C204 364.815 197.8 364.115 193.2 363.615C182.7 362.515 169.1 359.615 165 358.515C160.9 357.315 155.3 356.015 151.2 354.615C143.3 351.815 132.7 348.015 125 344.515C117.9 341.315 103.7 334.315 88.3 323.515C76.3 315.115 67.8 307.415 66.2 305.915C63 303.015 58.7 299.115 55.8 295.815C50.1 289.515 42.8 281.015 37.5 274.315C34.7 270.815 31.5 265.815 29.1 262.015C26.6 258.015 23.4 252.515 21.2 248.315C18.9 243.915 19.4 237.915 23.2 230.615C34.7 209.015 71.7 184.215 105.9 175.315C135.8 231.815 208.5 265.015 268.2 249.415C327.9 233.815 352.1 175.415 322.2 118.915C292.3 62.4153 219.7 29.4153 160 45.0153C100.3 60.6153 76.1 119.015 106 175.515C71.8 184.415 34.8 209.215 23.3 230.815C19.4 238.115 18.9 244.015 21.3 248.515C19.5 244.715 16.9 239.815 15.2 236.015C13.4 232.015 11.4 226.515 9.8 222.415C8 217.915 6.3 211.615 5.1 206.915C3.4 199.515 1.4 189.515 0.799999 181.915C0.399999 177.115 0.1 170.615 0 165.815C0 162.115 0.2 157.315 0.5 153.615C1 148.615 1.8 142.015 2.7 137.115C3.3 133.615 4.5 128.915 5.3 125.415C6.4 120.415 8.7 113.915 10.7 109.115C15.2 98.3153 16.8 94.7153 24 82.9153C27.7 76.8153 33.4 69.1153 38.3 63.9153C42.5 59.4153 48.1 53.4153 52.8 49.5153C56.8 46.2153 62.3 41.9153 66.5 38.9153C69.5 36.7153 73.8 34.1153 77 32.2153C81.4 29.5153 87.5 26.3153 92.3 24.3153C95.9 22.8153 100.7 20.7153 104.5 19.4153C109.3 17.7153 115.8 15.5153 120.8 14.3153C128.8 12.4153 139.6 10.2153 147.8 9.31534C152.7 8.81534 159.2 8.31534 164.1 8.21534C168.2 8.11534 173.7 8.11534 177.9 8.31534C184.3 8.51534 194.5 9.31534 207 11.5153C222.4 14.2153 235.1 18.4153 235.2 18.5153C243 21.1153 250.4 23.6153 261.5 28.6153C275.6 35.0153 285.9 41.5153 286.4 41.8153C293.2 46.1153 300.2 50.6153 309.6 58.0153C322.4 68.2153 330.7 77.1153 330.8 77.2153C338.1 85.0154 342.9 90.2153 349.6 99.4153C352.1 102.815 355.3 107.415 357.5 111.015C360 115.015 363.3 120.415 365.4 124.715C367.3 128.415 369.8 133.415 371.5 137.215C373.3 141.215 375.5 146.715 376.9 150.815C378.2 154.515 379.8 159.615 380.8 163.415C382 168.015 383.3 174.115 384.2 178.815C384.9 182.515 385.6 187.515 385.9 191.315C386.3 196.115 386.7 202.615 386.7 207.415C386.7 211.115 386.5 215.915 386.2 219.615C385.7 224.615 384.9 231.215 384 236.115C383.3 239.615 382.3 244.315 381.4 247.815C380 252.715 377.7 259.215 376 264.115C374.3 269.115 371.2 275.415 368.7 280.015C365.3 286.315 360.2 294.315 355.9 300.015C352.3 304.915 347.1 311.215 342.7 315.415C340.1 317.915 336.7 321.315 333.9 323.715C329.9 327.115 324.4 331.315 320.2 334.315C314.1 338.715 305.2 343.615 298.5 346.915C293.8 349.315 287.2 352.015 282.2 353.815C277.2 355.415 270.7 357.515 265.7 358.715Z" fill="white"/>
</mask>
<g mask="url(#mask3_201_641)">
<path d="M261.7 359.716C256.5 359.716 251.1 357.416 245.7 353.216C169.4 359.016 86.5998 320.616 39.5998 257.416C31.4998 257.016 25.3998 254.716 22.0998 250.516C18.2998 245.616 18.4998 238.716 22.8998 230.516L23.2998 229.716L23.6998 230.516C28.4998 239.516 33.9998 248.216 40.0998 256.416C46.8998 256.716 54.9998 255.616 64.1998 253.316L64.5998 253.216L64.7998 253.516C89.5998 300.416 144.1 331.216 196 331.216C206.4 331.216 216.6 330.016 226.5 327.416L226.9 327.316L227.1 327.616C232.8 338.416 239.4 346.816 246 352.116C257 351.216 267.8 349.516 278.3 346.716L279.4 346.416L278.9 347.416C274.7 355.516 268.7 359.716 261.7 359.716ZM247.2 353.116C252.1 356.716 257 358.716 261.7 358.716C268 358.716 273.5 355.016 277.5 348.116C267.5 350.616 257.4 352.316 247.2 353.116ZM40.8998 257.516C87.5998 319.816 169.2 357.716 244.6 352.416C238.2 347.016 231.9 338.916 226.4 328.616C166.8 343.916 94.0998 310.716 64.0998 254.516C55.3998 256.716 47.4998 257.716 40.8998 257.516ZM23.2998 231.916C19.4998 239.416 19.3998 245.616 22.7998 249.916C25.7998 253.716 31.3998 255.916 38.7998 256.416C33.0998 248.616 27.8998 240.416 23.2998 231.916Z" fill="white"/>
<path d="M218 365.315C140.1 365.315 58.0997 319.015 20.8997 248.615L21.7997 248.115C66.2997 332.215 174.8 381.815 263.7 358.615L264 359.615C249 363.515 233.5 365.315 218 365.315Z" fill="white"/>
<path d="M85.1997 321.416C84.8997 321.416 84.5997 321.316 84.2997 321.216C83.6997 320.816 81.6997 319.416 88.9997 305.716L89.8998 306.216C83.2998 318.516 84.5998 320.216 84.8998 320.416C85.1998 320.616 88.2997 321.816 106 301.316L106.8 302.016C98.8997 311.116 88.9997 321.416 85.1997 321.416Z" fill="white"/>
<path d="M170.2 360.116C169.9 360.116 169.6 360.116 169.2 360.016C164.5 358.616 162.7 347.116 164.1 328.216L165.1 328.316C163.1 355.116 167.9 358.616 169.5 359.116C172.2 359.916 176.2 355.816 180.6 347.616L181.5 348.116C177.2 355.916 173.4 360.116 170.2 360.116Z" fill="white"/>
<path d="M261.7 359.715C249.9 359.715 236.7 347.915 226.2 328.215L225.9 327.615L226.5 327.415C254.5 320.115 275.7 303.115 286.1 279.415C297 254.515 294.9 225.515 280.2 197.615L279.9 197.015L280.5 196.815C314.5 187.915 351.4 163.315 362.9 141.815L363.3 141.015L363.7 141.815C387.1 186.015 390.4 232.115 373 271.515C356.5 309.015 323 336.015 278.7 347.615C274.6 355.615 268.6 359.715 261.7 359.715ZM227.4 328.315C237.6 347.415 250.4 358.715 261.7 358.715C268.3 358.715 274 354.715 278 347.115L278.1 346.915L278.3 346.815C322.4 335.315 355.7 308.515 372.1 271.215C389.2 232.315 386.1 186.815 363.2 143.215C351.2 164.615 314.9 188.815 281.3 197.715C295.9 225.715 298 254.815 287 279.815C276.5 303.615 255.4 320.815 227.4 328.315Z" fill="white"/>
<path d="M263.8 359.615L263.5 358.615C305.4 347.715 337.1 322.215 352.6 286.815C369 249.615 365.8 206.115 343.8 164.415L344.7 163.915C366.9 205.915 370.1 249.715 353.6 287.215C337.9 322.915 306 348.615 263.8 359.615Z" fill="white"/>
<path d="M323 318.815C307.8 318.815 290 312.215 273.5 300.115L274.1 299.315C294.2 314.015 316.2 320.515 332.9 316.715C341.7 314.715 348.3 309.915 352.1 302.715L353 303.215C349.1 310.615 342.2 315.615 333.1 317.715C329.9 318.515 326.5 318.815 323 318.815Z" fill="white"/>
<path d="M320.1 256.415C311.2 256.415 302.1 255.415 293.1 253.415L293.3 252.415C331.2 261.015 371.2 250.515 382.6 229.115L383.5 229.615C374.6 246.315 348.8 256.415 320.1 256.415Z" fill="white"/>
<path d="M280.3 198.015L280.1 197.715C250.3 141.515 177.8 108.315 118.4 123.815L118 123.915L117.8 123.615C100.6 91.2155 96.0998 47.2155 107.7 25.5155L107.8 25.3155L108 25.2155C201.9 0.715473 316.6 53.1155 363.7 142.015L363.8 142.215L363.7 142.415C352.2 164.115 314.9 189.015 280.7 197.915L280.3 198.015ZM148.9 119.015C201 119.015 255.8 149.915 280.8 196.915C314.6 188.015 351.1 163.615 362.7 142.215C315.8 53.9155 201.9 1.81547 108.5 26.1155C97.1998 47.6155 101.7 90.8155 118.6 122.815C128.4 120.215 138.6 119.015 148.9 119.015Z" fill="white"/>
<path d="M343.9 164.416C299.4 80.3156 190.9 30.7156 102 53.9156L101.7 52.9156C191 29.6156 300 79.4156 344.7 163.916L343.9 164.416Z" fill="white"/>
<path d="M238.9 150.015L238.1 149.315C258.9 125.415 285.2 88.3154 296.6 66.8154L297.5 67.3154C286 88.9154 259.7 126.015 238.9 150.015Z" fill="white"/>
<path d="M180.8 123.115L179.8 123.015C182.3 90.6154 193.6 46.6154 205.2 25.0154L206.1 25.5154C194.5 47.0154 183.2 90.8154 180.8 123.115Z" fill="white"/>
<path d="M42.4 257.516C32.9 257.516 25.7 255.116 22.1 250.516C18.3 245.716 18.5 238.916 22.8 230.816C-0.500025 186.716 -3.80002 140.716 13.6 101.316C30.1 63.8155 63.7 36.7155 108.1 25.2155L109.2 24.9155L108.7 25.9155C97.3 47.4155 101.8 91.0155 118.8 123.116L119.1 123.716L118.5 123.916C90.5 131.216 69.3 148.216 58.9 171.916C48 196.816 50.1 225.816 64.8 253.716L65.1 254.316L64.5 254.516C56.3 256.416 48.8 257.516 42.4 257.516ZM107.2 26.4155C63.6 38.1155 30.7 64.8155 14.5 101.716C-2.70003 140.916 0.599974 186.716 23.8 230.616L23.9 230.816L23.8 231.016C19.6 238.816 19.3 245.416 22.9 249.916C28.7 257.216 43.9 258.516 63.6 253.516C49 225.516 46.9 196.416 57.9 171.416C68.3 147.616 89.5 130.516 117.5 123.016C100.9 91.1155 96.4 48.3155 107.2 26.4155Z" fill="white"/>
<path d="M20.8 248.616C-1.4 206.616 -4.6 162.816 11.9 125.316C27.6 89.6155 59.5 63.9155 101.7 52.9155L102 53.9155C60.1 64.8155 28.4 90.3155 12.9 125.716C-3.5 162.916 -0.300003 206.416 21.8 248.116L20.8 248.616Z" fill="white"/>
<path d="M70.7999 151.916C38.5999 128.416 21.8999 91.5156 33.4999 69.7156L34.3999 70.2156C22.9999 91.6156 39.5999 127.916 71.3999 151.116L70.7999 151.916Z" fill="white"/>
<path d="M51.5999 198.815C27.5999 193.415 9.19989 181.415 2.59989 166.915C-1.00011 159.015 -0.800112 150.815 3.19989 143.315L4.09989 143.815C0.299886 151.015 0.0998859 158.915 3.59989 166.515C10.0999 180.815 28.1999 192.515 51.9999 197.915L51.5999 198.815Z" fill="white"/>
<path d="M230.3 353.815C148.3 353.815 62.0998 305.115 22.8998 231.015L22.7998 230.815L22.8998 230.615C34.3998 208.915 71.6998 184.015 105.9 175.115L106.3 175.015L106.5 175.315C136.3 231.515 208.8 264.715 268.2 249.215L268.6 249.115L268.8 249.415C286 281.815 290.5 325.815 278.9 347.615L278.8 347.815L278.6 347.915C262.9 351.915 246.7 353.815 230.3 353.815ZM23.8998 230.815C70.7998 319.115 184.7 371.115 278.1 346.915C289.4 325.415 284.9 282.215 268 250.215C208.4 265.515 135.7 232.315 105.7 176.115C71.9998 185.015 35.3998 209.415 23.8998 230.815Z" fill="white"/>
<path d="M239 325.815C161.1 325.815 79.0999 279.515 41.8999 209.115L42.7999 208.615C87.2999 292.715 195.8 342.315 284.7 319.115L285 320.115C270 323.915 254.6 325.815 239 325.815Z" fill="white"/>
<path d="M241.6 289.915C174.3 289.915 103.6 249.915 71.4998 189.215L72.3998 188.715C110.8 261.215 204.4 304.015 281 284.015L281.3 285.015C268.4 288.415 255.1 289.915 241.6 289.915Z" fill="white"/>
<path d="M89.9998 306.215L89.0999 305.715C100.6 284.115 126.9 247.015 147.8 223.015L148.6 223.715C127.7 247.615 101.4 284.615 89.9998 306.215Z" fill="white"/>
<path d="M181.5 348.015L180.6 347.515C192.1 326.015 203.4 282.215 205.8 249.915L206.8 250.015C204.4 282.315 193 326.315 181.5 348.015Z" fill="white"/>
<path d="M277.5 348.116L278 347.116C289.4 325.616 284.9 282.016 267.9 249.916L267.6 249.316L268.2 249.116C296.2 241.816 317.4 224.816 327.8 201.116C338.7 176.216 336.6 147.216 321.9 119.316L321.6 118.716L322.2 118.516C342.7 113.216 358.5 114.616 364.6 122.316C368.4 127.116 368.2 133.916 363.9 142.016C387.2 186.116 390.5 232.116 373.1 271.516C356.6 309.016 323 336.116 278.6 347.616L277.5 348.116ZM269 250.016C285.7 281.816 290.2 324.716 279.4 346.616C323 334.916 355.9 308.216 372.1 271.316C389.3 232.116 386 186.316 362.8 142.416L362.7 142.216L362.8 142.016C367 134.216 367.3 127.616 363.7 123.116C357.9 115.816 342.7 114.516 323 119.516C337.6 147.516 339.7 176.616 328.7 201.616C318.2 225.316 297.1 242.516 269 250.016Z" fill="white"/>
<path d="M284.9 320.116L284.6 319.116C326.5 308.216 358.2 282.716 373.7 247.316C390.1 210.116 386.9 166.616 364.8 124.916L365.7 124.416C387.9 166.416 391.1 210.216 374.6 247.716C359 283.316 327.1 309.016 284.9 320.116Z" fill="white"/>
<path d="M281.2 285.016L280.9 284.016C317 274.616 344.3 252.616 357.7 222.116C371.8 190.016 369.1 152.516 350.1 116.516L351 116.016C370.2 152.216 372.9 190.016 358.7 222.416C345.2 253.316 317.7 275.516 281.2 285.016Z" fill="white"/>
<path d="M353.1 303.216L352.2 302.716C363.6 281.316 347 245.016 315.2 221.816L315.8 221.016C347.9 244.616 364.7 281.416 353.1 303.216Z" fill="white"/>
<path d="M383.5 229.616L382.6 229.116C386.4 221.916 386.6 214.016 383.1 206.416C376.6 192.116 358.5 180.416 334.7 175.016L334.9 174.016C359 179.416 377.3 191.416 384 205.916C387.7 214.016 387.5 222.116 383.5 229.616Z" fill="white"/>
<path d="M363.3 143.216L362.9 142.416C358.1 133.416 352.6 124.716 346.5 116.516C339.8 116.216 331.6 117.316 322.4 119.616L322 119.716L321.8 119.416C292 63.2156 219.5 30.0156 160.1 45.5156L159.7 45.6156L159.5 45.3156C153.8 34.4156 147.3 26.0156 140.6 20.7156C129.6 21.6156 118.8 23.3156 108.3 26.1156L107.2 26.4156L107.7 25.4156C111.9 17.4156 117.9 13.2156 124.9 13.2156C130.1 13.2156 135.5 15.5156 140.9 19.7156C217.1 13.9156 300 52.3156 347 115.516C355.1 115.916 361.2 118.216 364.5 122.416C368.3 127.316 368.1 134.216 363.7 142.416L363.3 143.216ZM347.8 116.516C353.5 124.316 358.7 132.516 363.3 141.016C367.1 133.516 367.2 127.316 363.8 122.916C360.7 119.216 355.2 117.116 347.8 116.516ZM190.6 40.7156C242.7 40.7156 297.5 71.6156 322.5 118.616C331.2 116.416 339.1 115.316 345.7 115.516C299 53.2156 217.4 15.3156 142 20.7156C148.4 26.1156 154.7 34.2156 160.2 44.5156C170.1 41.9156 180.3 40.7156 190.6 40.7156ZM124.9 14.2156C118.6 14.2156 113.1 17.9156 109.1 24.8156C119 22.3156 129.1 20.6156 139.4 19.8156C134.6 16.2156 129.6 14.2156 124.9 14.2156Z" fill="white"/>
<path d="M364.9 124.815C320.4 40.7155 211.9 -8.88454 123 14.3155L122.7 13.3155C212 -9.98454 321 39.8155 365.7 124.315L364.9 124.815Z" fill="white"/>
<path d="M350.2 116.615C311.8 44.1155 218.2 1.31549 141.6 21.3155L141.3 20.3155C218.3 0.215489 312.4 43.2155 351 116.115L350.2 116.615Z" fill="white"/>
<path d="M280.5 71.7155L279.7 71.0156C288.3 61.1156 299.2 49.7155 302.2 51.8155C302.8 52.2155 304.8 53.6155 297.5 67.3155L296.6 66.8155C303.2 54.5155 301.9 52.8155 301.6 52.6155C301.4 52.4155 298.3 51.2155 280.5 71.7155Z" fill="white"/>
<path d="M222.4 44.8154L221.4 44.7154C223.4 17.9154 218.6 14.4154 217 14.0154C214.2 13.2154 210.3 17.3154 205.9 25.5154L205 25.0154C209.7 16.2154 213.9 12.0154 217.2 13.0154C222 14.3154 223.9 25.9154 222.4 44.8154Z" fill="white"/>
<path d="M23.3 231.915L22.9 231.115C-0.500031 186.915 -3.80003 140.815 13.6 101.415C30.1 63.9154 63.6 36.9154 107.9 25.3154C112.1 17.5154 118 13.3154 125 13.3154C136.8 13.3154 150 25.1154 160.5 44.8154L160.8 45.4154L160.2 45.6154C132.2 52.9154 111 69.9154 100.6 93.6154C89.7 118.515 91.8 147.515 106.5 175.415L106.8 176.015L106.2 176.215C72.2 185.115 35.3 209.815 23.8 231.215L23.3 231.915ZM124.9 14.2154C118.3 14.2154 112.6 18.2154 108.5 25.8154L108.4 26.0154L108.2 26.1154C64.1 37.6154 30.8 64.4154 14.4 101.715C-2.70003 140.615 0.399971 186.115 23.3 229.715C35.3 208.315 71.6 184.115 105.2 175.115C90.6 147.115 88.5 118.015 99.5 93.0154C109.9 69.2154 131.1 52.1154 159.1 44.6154C149 25.6154 136.2 14.2154 124.9 14.2154Z" fill="white"/>
<path d="M41.8999 209.116C19.6999 167.116 16.4998 123.316 32.9998 85.8155C48.6998 50.1155 80.5998 24.4155 122.8 13.4155L123.1 14.4155C81.1999 25.3155 49.4998 50.8155 33.9998 86.2155C17.5998 123.416 20.7999 166.916 42.8999 208.616L41.8999 209.116Z" fill="white"/>
<path d="M71.4999 189.215C52.2999 153.015 49.5999 115.215 63.7999 82.8154C77.2999 52.0154 104.9 29.8154 141.3 20.3154L141.6 21.3154C105.5 30.7154 78.1999 52.7154 64.7999 83.2154C50.6999 115.315 53.3999 152.815 72.3999 188.815L71.4999 189.215Z" fill="white"/>
<path d="M112.5 73.6154C92.3998 58.9154 70.3999 52.4155 53.6999 56.2155C44.8999 58.2155 38.2998 63.0155 34.4998 70.2155L33.5999 69.7155C37.4999 62.3155 44.3998 57.3155 53.4998 55.2155C70.4998 51.3155 92.7998 57.9154 113.2 72.8154L112.5 73.6154Z" fill="white"/>
<path d="M3.99986 143.815L3.09985 143.315C14.6999 121.515 55.2998 110.815 93.4998 119.515L93.2999 120.515C55.4999 111.915 15.3999 122.415 3.99986 143.815Z" fill="white"/>
</g>
<mask id="mask4_201_641" style="mask-type:luminance" maskUnits="userSpaceOnUse" x="0" y="8" width="387" height="357">
<path d="M265.7 358.715C261.7 359.715 256.3 361.015 252.2 361.715C247.4 362.515 241 363.615 236.2 364.015C227.9 364.615 216.9 364.915 208.6 364.815C204 364.815 197.8 364.115 193.2 363.615C182.7 362.515 169.1 359.615 165 358.515C160.9 357.315 155.3 356.015 151.2 354.615C143.3 351.815 132.7 348.015 125 344.515C117.9 341.315 103.7 334.315 88.3 323.515C76.3 315.115 67.8 307.415 66.2 305.915C63 303.015 58.7 299.115 55.8 295.815C50.1 289.515 42.8 281.015 37.5 274.315C34.7 270.815 31.5 265.815 29.1 262.015C26.6 258.015 23.4 252.515 21.2 248.315C18.9 243.915 19.4 237.915 23.2 230.615C34.7 209.015 71.7 184.215 105.9 175.315C135.8 231.815 208.5 265.015 268.2 249.415C327.9 233.815 352.1 175.415 322.2 118.915C292.3 62.4153 219.7 29.4153 160 45.0153C100.3 60.6153 76.1 119.015 106 175.515C71.8 184.415 34.8 209.215 23.3 230.815C19.4 238.115 18.9 244.015 21.3 248.515C19.5 244.715 16.9 239.815 15.2 236.015C13.4 232.015 11.4 226.515 9.8 222.415C8 217.915 6.3 211.615 5.1 206.915C3.4 199.515 1.4 189.515 0.799999 181.915C0.399999 177.115 0.1 170.615 0 165.815C0 162.115 0.2 157.315 0.5 153.615C1 148.615 1.8 142.015 2.7 137.115C3.3 133.615 4.5 128.915 5.3 125.415C6.4 120.415 8.7 113.915 10.7 109.115C15.2 98.3153 16.8 94.7153 24 82.9153C27.7 76.8153 33.4 69.1153 38.3 63.9153C42.5 59.4153 48.1 53.4153 52.8 49.5153C56.8 46.2153 62.3 41.9153 66.5 38.9153C69.5 36.7153 73.8 34.1153 77 32.2153C81.4 29.5153 87.5 26.3153 92.3 24.3153C95.9 22.8153 100.7 20.7153 104.5 19.4153C109.3 17.7153 115.8 15.5153 120.8 14.3153C128.8 12.4153 139.6 10.2153 147.8 9.31534C152.7 8.81534 159.2 8.31534 164.1 8.21534C168.2 8.11534 173.7 8.11534 177.9 8.31534C184.3 8.51534 194.5 9.31534 207 11.5153C222.4 14.2153 235.1 18.4153 235.2 18.5153C243 21.1153 250.4 23.6153 261.5 28.6153C275.6 35.0153 285.9 41.5153 286.4 41.8153C293.2 46.1153 300.2 50.6153 309.6 58.0153C322.4 68.2153 330.7 77.1153 330.8 77.2153C338.1 85.0154 342.9 90.2153 349.6 99.4153C352.1 102.815 355.3 107.415 357.5 111.015C360 115.015 363.3 120.415 365.4 124.715C367.3 128.415 369.8 133.415 371.5 137.215C373.3 141.215 375.5 146.715 376.9 150.815C378.2 154.515 379.8 159.615 380.8 163.415C382 168.015 383.3 174.115 384.2 178.815C384.9 182.515 385.6 187.515 385.9 191.315C386.3 196.115 386.7 202.615 386.7 207.415C386.7 211.115 386.5 215.915 386.2 219.615C385.7 224.615 384.9 231.215 384 236.115C383.3 239.615 382.3 244.315 381.4 247.815C380 252.715 377.7 259.215 376 264.115C374.3 269.115 371.2 275.415 368.7 280.015C365.3 286.315 360.2 294.315 355.9 300.015C352.3 304.915 347.1 311.215 342.7 315.415C340.1 317.915 336.7 321.315 333.9 323.715C329.9 327.115 324.4 331.315 320.2 334.315C314.1 338.715 305.2 343.615 298.5 346.915C293.8 349.315 287.2 352.015 282.2 353.815C277.2 355.415 270.7 357.515 265.7 358.715Z" fill="white"/>
</mask>
<g mask="url(#mask4_201_641)">
<path d="M211.2 365.315C210.4 365.315 209.5 365.315 208.7 365.315C204.5 365.315 199 364.715 194.5 364.315L193.3 364.215C183 363.215 169.4 360.315 165.1 359.115C163.8 358.715 162.4 358.415 161 358.015C157.6 357.115 154.2 356.215 151.3 355.215C140 351.215 131.1 347.815 125.1 345.115C118 341.915 103.8 334.915 88.2999 324.115C76.1999 315.715 67.6999 307.915 66.0999 306.515L64.7999 305.315C61.7999 302.615 58.1999 299.215 55.5999 296.415C49.2999 289.515 42.1999 281.115 37.2999 274.915C34.1999 271.015 30.6999 265.515 28.7999 262.615C26.2999 258.715 23.0999 253.215 20.7999 248.915C20.6999 248.715 20.5999 248.415 20.4999 248.215C19.9999 247.215 19.4999 246.115 18.8999 245.015C17.3999 242.015 15.8999 239.015 14.6999 236.415C13.2999 233.315 11.7999 229.215 10.3999 225.715C9.9999 224.715 9.5999 223.715 9.2999 222.815C7.3999 217.915 5.5999 211.315 4.5999 207.215C3.7999 203.815 1.09991 191.915 0.199905 182.115C-0.200095 177.315 -0.500098 170.815 -0.600098 165.915C-0.600098 162.215 -0.400098 157.315 -0.100098 153.715C0.399902 148.815 1.1999 142.115 2.0999 137.215C2.4999 134.715 3.1999 131.815 3.8999 129.015C4.1999 127.815 4.49991 126.615 4.69991 125.515C5.79991 120.815 7.89991 114.215 10.0999 109.215C14.7999 98.2153 16.3999 94.5153 23.3999 83.0153C27.2999 76.7153 32.9999 69.0153 37.7999 63.9153C41.8999 59.5153 47.5999 53.4153 52.3999 49.4153C54.7999 47.4153 61.0999 42.4153 66.1999 38.7153C69.3999 36.4153 73.9999 33.6153 76.7999 32.0153C80.8999 29.5153 87.0999 26.2153 92.0999 24.1153C93.1999 23.6153 94.3999 23.1153 95.6999 22.6153C98.5999 21.4153 101.7 20.1153 104.3 19.2153C109.3 17.4153 115.7 15.3153 120.6 14.1153C128.3 12.3153 139.3 10.0153 147.7 9.11527C152.5 8.61527 159 8.11527 164 8.01527C168.3 7.81527 174 7.91527 177.8 8.11527C184.2 8.31527 194.5 9.11527 207 11.3153C222.4 14.0153 235.1 18.2153 235.3 18.3153C243.1 20.9153 250.5 23.4153 261.6 28.4153C275.8 34.9153 286.1 41.4153 286.5 41.7153C293.3 46.0153 300.4 50.5153 309.7 57.9153C322.5 68.1153 330.8 77.0153 330.9 77.1153C338.2 84.9153 343 90.1153 349.7 99.3153C352.5 103.115 355.6 107.715 357.6 110.915C359.5 114.015 363.1 119.915 365.6 124.615C367.4 128.115 370 133.315 371.7 137.215C373.6 141.615 375.8 147.015 377.1 150.915C378.3 154.415 380 159.515 381 163.615C382.3 168.415 383.6 174.715 384.4 179.015C385.1 182.515 385.8 187.615 386.1 191.615C386.5 196.115 386.9 202.715 386.9 207.815C386.9 209.515 386.8 215.415 386.4 220.015C386 224.715 385.2 231.515 384.2 236.615C383.9 238.215 382.8 243.915 381.5 248.315C380.2 252.915 378.1 258.915 376.1 264.615C374.3 269.715 371.1 276.215 368.8 280.615C365.4 286.815 360.3 294.915 356 300.715C352.9 304.915 347.5 311.515 342.7 316.115C342 316.815 341.3 317.515 340.5 318.215C338.4 320.315 335.9 322.615 333.9 324.415C329.8 327.815 324.3 332.115 320.1 335.115C312.3 340.715 301.5 346.215 298.3 347.815C293.3 350.315 286.5 353.015 282 354.715C276.7 356.615 270.3 358.615 265.7 359.815C260 361.215 255.4 362.215 252.2 362.815C247.2 363.715 240.9 364.715 236.1 365.115C228.9 364.915 219.1 365.315 211.2 365.315ZM21.7999 248.215C24.0999 252.415 27.1999 257.915 29.6999 261.815C31.4999 264.715 35.0999 270.215 38.0999 274.015C42.8999 280.215 50.0999 288.615 56.2999 295.515C58.7999 298.315 62.4999 301.715 65.3999 304.415L66.6999 305.615C68.2999 307.115 76.7999 314.815 88.7999 323.215C104.2 334.015 118.4 340.915 125.4 344.115C131.5 346.815 140.3 350.215 151.6 354.215C154.4 355.215 157.8 356.115 161.2 357.015C162.7 357.415 164.1 357.815 165.3 358.115C169.7 359.315 183.1 362.115 193.4 363.215L194.6 363.315C199 363.715 204.5 364.315 208.7 364.315C217 364.415 228.1 364.115 236.2 363.515C240.9 363.215 247.2 362.115 252.2 361.315C255.4 360.715 259.9 359.715 265.6 358.315C270.2 357.215 276.5 355.215 281.8 353.315C286.4 351.615 293 348.915 298 346.415C301.1 344.815 311.9 339.315 319.6 333.815C323.7 330.815 329.3 326.615 333.3 323.215C335.3 321.515 337.8 319.115 339.9 317.115C340.7 316.315 341.4 315.615 342.1 315.015C346.9 310.415 352.2 303.915 355.3 299.715C359.5 293.915 364.7 285.915 368 279.715C370.4 275.415 373.5 268.915 375.3 263.915C377.3 258.215 379.3 252.315 380.6 247.715C381.8 243.415 382.9 237.715 383.2 236.115C384.1 231.115 384.9 224.315 385.4 219.615C385.8 215.015 385.9 209.115 385.9 207.515C385.9 202.415 385.5 195.915 385.1 191.415C384.8 187.415 384.1 182.415 383.4 178.915C382.6 174.615 381.3 168.415 380 163.615C378.9 159.615 377.3 154.515 376.1 151.015C374.8 147.115 372.6 141.815 370.7 137.415C369 133.515 366.4 128.415 364.6 124.915C362.2 120.215 358.6 114.315 356.7 111.315C354.7 108.115 351.6 103.615 348.8 99.7153C342.3 90.4153 337.6 85.2153 330.3 77.4153C330.2 77.3153 321.9 68.5153 309.2 58.3153C299.9 50.9153 292.9 46.4153 286.1 42.1153C285.7 41.8153 275.4 35.4153 261.3 28.9153C250.2 23.8153 242.9 21.4153 235.1 18.8153C235 18.8153 222.3 14.6153 207 11.9153C194.6 9.71527 184.4 9.01527 178 8.71527C174.2 8.61527 168.6 8.51527 164.3 8.61527C159.3 8.81527 152.8 9.21527 148.1 9.71527C139.8 10.6153 128.9 12.9153 121.2 14.7153C116.3 15.8153 110 18.0153 105 19.7153C102.4 20.6153 99.3999 21.9153 96.4999 23.1153C95.1999 23.6153 93.9999 24.2153 92.8999 24.6153C87.8999 26.7153 81.6999 30.0153 77.6999 32.4153C74.8999 34.1153 70.2999 36.8153 67.1999 39.1153C62.0999 42.7153 55.8999 47.7153 53.4999 49.7153C48.6999 53.6153 43.0999 59.6153 38.9999 64.1153C34.2999 69.1153 28.5999 76.7153 24.7999 83.0153C17.4999 94.9153 15.9999 98.5153 11.4999 109.115C9.3999 114.115 7.19991 120.615 6.19991 125.315C5.99991 126.415 5.6999 127.615 5.3999 128.815C4.6999 131.615 3.9999 134.515 3.5999 136.915C2.6999 141.915 1.8999 148.515 1.3999 153.415C1.0999 157.015 0.899902 161.815 0.899902 165.515C0.899902 170.415 1.29991 176.915 1.69991 181.615C2.49991 191.215 5.1999 203.115 5.9999 206.515C6.9999 210.615 8.79991 217.115 10.5999 222.015C10.9999 222.915 11.2999 223.915 11.6999 224.915C13.0999 228.415 14.5999 232.515 15.9999 235.615C16.9999 238.015 18.3999 240.715 19.7999 243.415C19.6999 241.315 19.8999 239.015 20.6999 236.615C21.2999 234.615 22.0999 232.615 23.2999 230.415C33.6999 210.915 64.9999 188.715 96.0999 178.015C96.1999 178.015 96.1999 178.015 96.2999 177.915C99.3999 176.815 102.6 175.915 105.7 175.015C91.0999 147.015 88.9999 117.915 99.9999 92.9153C110.5 69.0153 131.9 51.7153 160.2 44.4153C220 28.8153 293.1 62.2153 323.1 118.815C338 147.015 340.1 176.315 329.1 201.515C318.6 225.415 297.2 242.715 268.9 250.015C209.2 265.615 136.3 232.415 106.2 176.015C104.3 176.515 102.4 177.115 100.4 177.715H100.3C100.1 177.715 99.9999 177.815 99.7999 177.815C99.6999 177.815 99.5999 177.915 99.4999 177.915C67.5999 188.115 34.8999 210.915 24.1999 230.915C22.7999 233.515 21.8999 235.915 21.2999 238.215C20.4999 241.715 20.5999 244.815 21.7999 247.415C21.4999 247.815 21.6999 248.015 21.7999 248.215ZM106.5 175.315C136.3 231.515 208.8 264.715 268.2 249.215C296.2 241.915 317.4 224.915 327.8 201.215C338.7 176.315 336.6 147.315 321.9 119.415C292.1 63.2153 219.6 30.0153 160.2 45.5153C132.2 52.8153 111 69.8153 100.6 93.5153C89.5999 118.315 91.6999 147.415 106.5 175.315Z" fill="white"/>
</g>
<mask id="mask5_201_641" style="mask-type:luminance" maskUnits="userSpaceOnUse" x="93" y="41" width="243" height="213">
<path d="M325.614 206.687C351.483 158.077 322.534 92.1059 260.956 59.3357C199.377 26.5655 128.488 39.4057 102.619 88.0151C76.7506 136.625 105.699 202.596 167.278 235.366C228.856 268.136 299.746 255.296 325.614 206.687Z" fill="white"/>
</mask>
<g mask="url(#mask5_201_641)">
<path d="M237.7 254.015C185.5 254.015 130.6 223.015 105.6 175.815C90.7 147.615 88.6 118.315 99.6 93.1154C110.1 69.2154 131.5 51.9154 159.8 44.6154C219.6 29.0154 292.7 62.4154 322.7 119.015C337.6 147.215 339.7 176.515 328.7 201.715C318.2 225.615 296.8 242.915 268.5 250.215C258.5 252.715 248.1 254.015 237.7 254.015ZM190.6 41.7154C180.2 41.7154 170 42.9154 160.1 45.5154C132.1 52.8154 110.9 69.8154 100.5 93.5154C89.6 118.415 91.7 147.415 106.4 175.315C131.2 222.215 185.7 253.015 237.6 253.015C248 253.015 258.2 251.815 268.1 249.215C296.1 241.915 317.3 224.915 327.7 201.215C338.6 176.315 336.5 147.315 321.8 119.415C297 72.5154 242.5 41.7154 190.6 41.7154Z" fill="white"/>
</g>
</svg>
