<svg width="442" height="385" viewBox="0 0 442 385" fill="none" xmlns="http://www.w3.org/2000/svg">
<path d="M293.153 384.775C272.553 384.775 250.953 374.975 233.953 367.275L233.753 367.175C230.453 365.675 227.253 364.175 223.953 362.675C197.653 350.675 172.753 339.275 144.353 333.475C121.753 328.875 98.6526 323.375 73.6526 316.875C71.2526 316.275 68.7526 315.575 66.1526 314.975C46.4526 310.075 22.0526 303.875 8.95263 288.675C-5.94737 271.275 0.65263 245.575 7.95263 224.975C15.5526 203.775 27.3526 184.475 38.7526 165.775C50.0526 147.175 61.7526 128.075 69.2526 107.175C71.0526 102.175 72.5526 96.5752 74.0526 90.5752C78.1526 74.8752 82.8526 56.9752 94.8526 47.2752C117.853 28.6752 160.553 43.3752 188.853 53.0752C192.353 54.2752 195.653 55.3752 198.653 56.3752C206.253 58.8752 213.953 61.6752 222.053 64.6752C248.553 74.3752 275.953 84.4752 303.053 82.9752C306.953 82.7752 310.953 82.4752 314.853 82.1752C334.553 80.5752 354.953 78.9752 373.053 90.5752C393.353 103.675 403.553 127.575 412.353 150.875C422.453 177.975 431.953 204.575 437.453 232.175C441.253 251.475 448.353 287.475 428.653 302.375C421.053 308.175 411.553 311.575 402.453 314.875C393.753 317.975 384.853 321.275 377.253 326.575C367.853 333.175 359.553 341.875 351.553 350.275C341.453 360.975 330.953 371.975 317.953 378.975C310.153 383.075 301.753 384.775 293.153 384.775ZM124.853 39.3752C113.653 39.3752 103.353 41.7752 95.5526 48.0752C83.7526 57.5752 79.1526 75.2752 75.0526 90.8752C73.4526 96.8752 72.0526 102.475 70.2526 107.575C62.7526 128.575 51.0526 147.775 39.6526 166.375C28.2526 184.975 16.5526 204.275 8.95263 225.375C1.65263 245.675 -4.74737 271.075 9.75263 288.075C22.6526 303.075 46.8526 309.175 66.4526 314.075C69.0526 314.675 71.5526 315.375 73.9526 315.975C98.9526 322.575 122.053 327.975 144.553 332.575C173.053 338.375 197.953 349.775 224.353 361.875C227.653 363.375 230.853 364.875 234.153 366.375L234.353 366.475C258.353 377.375 291.153 392.175 317.553 378.075C330.453 371.175 340.853 360.175 350.953 349.575C358.953 341.175 367.253 332.375 376.753 325.675C384.453 320.275 393.453 317.075 402.153 313.875C411.153 310.575 420.553 307.175 428.053 301.475C447.253 286.975 440.253 251.375 436.453 232.275C431.053 204.775 421.553 178.175 411.453 151.175C402.753 127.975 392.653 104.275 372.553 91.3752C354.753 79.9752 334.553 81.5752 315.053 83.0752C311.153 83.3752 307.153 83.6752 303.253 83.8752C276.053 85.3752 248.553 75.2752 221.953 65.4752C213.853 62.4752 206.253 59.6752 198.653 57.2752C195.653 56.2752 192.353 55.1752 188.853 53.9752C170.353 47.6752 145.853 39.3752 124.853 39.3752Z" fill="white"/>
<path d="M287.053 370.875C267.953 370.875 248.653 363.075 233.253 356.775C228.153 354.675 222.953 352.575 217.953 350.475C196.153 341.375 173.553 331.975 149.553 327.375C145.053 326.475 140.553 325.675 135.953 324.875C118.653 321.675 100.753 318.375 83.4526 313.775L80.3526 312.975C62.3526 308.375 40.0526 302.575 27.2526 288.275C11.1526 270.275 17.6526 243.575 24.0526 225.075C31.0526 204.775 41.9526 186.375 52.4526 168.575C62.6526 151.275 73.2526 133.475 80.0526 114.075C81.4526 110.075 82.7526 105.575 84.0526 100.875C88.4526 85.1751 93.4526 67.4751 106.453 58.9751C127.153 45.4751 162.753 54.5751 188.753 61.2751C192.953 62.3751 196.853 63.3752 200.353 64.1752C206.153 65.5752 212.053 67.0751 218.353 68.6751C245.353 75.5751 273.253 82.6751 299.453 78.0751C303.753 77.2751 308.153 76.3751 312.353 75.3751C330.553 71.2751 347.653 67.4752 365.253 78.6751C386.653 92.3751 394.953 120.875 400.553 139.875C408.553 167.075 417.553 197.975 422.053 228.275L422.553 231.475C425.553 250.875 429.953 280.275 414.053 294.775C406.953 301.275 397.253 305.375 387.853 309.275C380.453 312.375 372.753 315.675 366.453 320.075C358.453 325.675 351.053 332.975 343.953 339.975C334.353 349.475 324.453 359.275 312.553 365.375C304.453 369.275 295.753 370.875 287.053 370.875ZM233.553 355.875C255.853 364.875 286.453 377.275 312.153 364.175C323.853 358.175 333.753 348.375 343.253 338.975C350.353 331.875 357.753 324.575 365.853 318.975C372.253 314.475 379.953 311.275 387.453 308.075C396.753 304.175 406.353 300.175 413.353 293.775C428.853 279.675 424.453 250.575 421.453 231.375L420.953 228.175C416.453 197.975 407.453 167.075 399.453 139.875C393.953 121.075 385.653 92.7751 364.653 79.2751C347.353 68.2751 330.453 72.0751 312.453 76.0751C308.253 76.9751 303.853 77.9751 299.553 78.7751C273.153 83.4751 243.853 75.9751 218.053 69.3751C211.853 67.7751 205.953 66.2751 200.053 64.8751C196.553 64.0751 192.653 63.0751 188.453 61.9751C162.653 55.3751 127.253 46.2751 106.953 59.5751C94.2526 67.8751 89.2526 85.4752 84.9526 100.975C83.6526 105.775 82.3526 110.175 80.9526 114.275C74.0526 133.775 63.4526 151.675 53.2526 168.975C42.7526 186.775 31.8526 205.075 24.9526 225.375C18.6526 243.575 12.2526 269.875 27.9526 287.575C40.5526 301.675 62.7526 307.375 80.5526 311.975L83.6526 312.775C100.953 317.275 118.853 320.575 136.153 323.775C140.653 324.575 145.153 325.475 149.753 326.275C173.853 330.875 196.453 340.275 218.353 349.475C223.253 351.675 228.453 353.875 233.553 355.875Z" fill="white"/>
<path d="M278.053 355.275C262.553 355.275 246.653 350.675 231.953 345.975C225.153 343.775 218.153 341.275 211.353 338.875C193.653 332.675 175.253 326.175 156.553 322.675C149.953 321.475 143.153 320.375 136.653 319.275C122.553 316.975 107.853 314.575 93.7527 310.675C66.9527 303.375 49.9527 292.475 41.7527 277.275C34.2527 263.575 33.9527 246.575 40.5527 225.375C46.9527 205.175 57.5527 186.975 67.7527 169.475C76.5527 154.475 85.6527 138.875 92.0527 122.075C93.1527 119.175 94.2527 116.075 95.3527 112.875C100.053 99.0752 105.353 83.3752 117.653 75.2752C137.853 62.0752 168.553 64.9752 193.253 67.2752C197.153 67.6752 200.853 67.9752 204.353 68.2752C207.553 68.4752 210.753 68.7752 213.953 69.0752C242.353 71.3752 271.653 73.6752 299.053 65.8752C302.553 64.8752 306.153 63.6752 309.553 62.5752C326.053 57.0752 341.653 51.9752 358.253 62.5752C378.153 75.2752 384.653 101.675 389.853 122.875L390.553 125.575C399.153 160.575 404.553 190.775 407.053 217.975C407.153 219.275 407.253 220.575 407.453 221.975C409.453 242.175 412.353 272.775 395.453 287.575C389.053 293.175 380.753 297.175 372.753 301.075C366.653 304.075 360.253 307.175 354.953 310.875C348.053 315.675 341.653 321.475 335.353 327.075C326.953 334.575 318.353 342.275 308.453 347.875C298.753 353.275 288.453 355.275 278.053 355.275ZM161.253 66.3752C145.453 66.3752 129.953 68.4752 118.253 76.1752C106.253 84.0752 100.953 99.5752 96.3527 113.175C95.2527 116.475 94.1527 119.475 93.0527 122.475C86.6527 139.375 77.5527 154.975 68.7527 170.075C58.5527 187.575 47.9527 205.575 41.6527 225.775C35.0527 246.675 35.4527 263.375 42.7527 276.875C50.8527 291.775 67.6527 302.575 94.1527 309.875C108.253 313.775 122.853 316.175 136.953 318.475C143.453 319.575 150.253 320.675 156.853 321.875C175.653 325.375 194.053 331.875 211.853 338.075C218.553 340.475 225.553 342.875 232.353 345.175C256.653 353.075 284.453 360.375 307.953 347.075C317.653 341.575 326.253 333.875 334.653 326.375C340.953 320.775 347.453 314.975 354.353 310.175C359.753 306.375 366.153 303.275 372.353 300.275C380.253 296.375 388.453 292.375 394.753 286.875C411.353 272.475 408.353 242.175 406.453 222.175C406.353 220.775 406.153 219.475 406.053 218.175C403.553 190.975 398.153 160.875 389.553 125.975L388.853 123.275C383.653 102.175 377.253 75.9752 357.753 63.5752C341.553 53.2752 326.153 58.2752 309.853 63.6752C306.453 64.7752 302.853 65.9752 299.353 66.9752C271.753 74.8752 242.353 72.4752 213.953 70.1752C210.753 69.8752 207.553 69.6752 204.453 69.3752C200.953 69.0752 197.253 68.7752 193.353 68.3752C183.153 67.3752 172.153 66.3752 161.253 66.3752Z" fill="white"/>
<path d="M264.353 339.475C252.153 339.475 240.353 337.175 230.153 334.775C213.753 330.875 196.453 327.575 179.853 324.475C154.853 319.775 128.953 314.875 104.653 307.575C83.8526 301.275 69.3526 291.275 61.3526 277.975C53.0526 264.175 51.8526 246.575 57.6526 225.775C63.6526 204.375 74.7526 185.775 85.4526 167.775C92.4526 156.075 99.6526 143.975 105.453 131.275C106.153 129.775 106.753 128.275 107.453 126.775C113.053 114.275 118.753 101.375 130.053 92.5752C149.453 77.4752 177.253 74.0752 201.853 71.0752C204.653 70.7752 207.353 70.3752 210.053 70.0752C239.653 66.1752 271.053 61.3752 301.153 48.6752L303.753 47.5752C319.253 40.9752 335.353 34.0752 351.553 44.2752C369.953 55.8752 375.753 83.2752 379.153 99.6752C386.353 133.975 390.853 169.775 392.053 203.375C392.153 204.975 392.153 206.575 392.253 208.375C393.153 229.575 394.353 258.675 380.353 275.075C374.353 282.075 365.153 286.975 356.253 291.775C351.253 294.475 346.453 297.075 342.353 299.975C336.953 303.775 331.553 308.175 326.253 312.475C316.753 320.275 306.953 328.375 295.953 333.375C285.653 337.875 274.853 339.475 264.353 339.475ZM230.353 333.875C249.153 338.375 273.553 342.275 295.453 332.275C306.353 327.375 316.053 319.275 325.453 311.575C330.653 307.275 336.053 302.775 341.553 298.975C345.753 296.075 350.553 293.475 355.553 290.775C364.353 285.975 373.453 281.075 379.353 274.275C393.153 258.175 391.953 229.375 391.053 208.275C390.953 206.575 390.953 204.875 390.853 203.275C389.653 169.775 385.153 133.975 377.953 99.7752C374.553 83.5752 368.853 56.4752 350.753 45.0752C335.053 35.1752 319.253 41.9752 303.953 48.4752L301.353 49.5752C271.153 62.3752 239.653 67.1752 209.953 71.0752C207.253 71.3752 204.553 71.7752 201.753 72.0752C177.353 75.0752 149.653 78.4752 130.453 93.3752C119.353 102.075 113.653 114.775 108.153 127.175C107.453 128.675 106.853 130.175 106.153 131.675C100.353 144.475 93.1526 156.575 86.1526 168.275C75.4526 186.275 64.3526 204.775 58.4526 226.075C47.0526 266.775 62.6526 293.875 104.753 306.575C129.053 313.975 154.853 318.775 179.853 323.475C196.653 326.675 213.853 329.975 230.353 333.875Z" fill="white"/>
<path d="M243.053 324.475C238.353 324.475 233.353 324.175 228.053 323.475C222.153 322.775 215.553 322.075 208.553 321.375C164.653 316.875 104.653 310.675 81.6527 277.975C72.0527 264.275 69.8527 246.975 74.9527 226.375C81.0527 201.875 93.6527 182.175 106.953 161.375C111.153 154.775 115.453 147.975 119.553 141.075C141.353 104.275 172.853 86.7753 216.653 70.4753C242.853 60.6753 268.353 50.7753 292.053 37.4753C294.053 36.3753 296.153 35.0753 298.153 33.8753C312.853 25.1753 328.153 16.0753 344.653 26.1753C362.153 36.8753 366.153 62.2753 369.153 80.7753L369.453 82.8753C374.953 117.375 377.553 152.175 377.153 186.375C377.153 187.875 377.153 189.275 377.153 190.875C376.953 213.575 376.653 244.675 362.253 263.475C356.553 270.975 347.753 276.275 339.253 281.275C335.653 283.375 332.353 285.375 329.153 287.575C327.553 288.675 325.853 289.775 324.253 290.875C296.453 309.975 275.453 324.475 243.053 324.475ZM329.553 22.6753C318.953 22.6753 308.753 28.7753 298.753 34.6753C296.753 35.8753 294.653 37.0753 292.553 38.2753C268.753 51.6753 243.253 61.5753 216.953 71.3753C173.353 87.6753 141.953 105.075 120.353 141.575C116.253 148.475 111.953 155.275 107.753 161.875C94.4527 182.675 81.9527 202.275 75.8527 226.575C70.7527 246.875 72.9527 263.975 82.4527 277.375C105.153 309.675 164.953 315.875 208.653 320.375C215.653 321.075 222.253 321.775 228.253 322.475C269.253 327.575 292.153 311.775 323.853 289.975C325.453 288.875 327.053 287.775 328.753 286.675C331.953 284.475 335.253 282.475 338.853 280.375C347.253 275.375 355.953 270.175 361.553 262.875C375.653 244.275 375.953 213.375 376.253 190.775C376.253 189.275 376.253 187.775 376.253 186.275C376.653 152.175 374.153 117.375 368.553 82.9753L368.253 80.8753C365.353 62.5753 361.353 37.3753 344.253 26.9753C339.153 23.9753 334.353 22.6753 329.553 22.6753Z" fill="white"/>
<path d="M226.353 312.075C226.153 312.075 226.053 312.075 225.853 312.075C196.753 311.975 128.453 311.675 101.853 278.975C91.0527 265.675 87.8527 248.175 92.1527 226.875C104.753 165.275 168.253 105.775 223.453 70.5752C246.153 56.0752 270.453 40.3752 293.653 23.6752C295.153 22.5752 296.653 21.4752 298.153 20.3752C309.553 11.8752 322.553 2.1752 337.253 10.8752C352.953 20.1752 355.853 44.3752 357.953 61.9752C358.153 63.4752 358.353 64.9752 358.453 66.2752C362.653 99.7752 363.953 134.275 362.153 168.775C360.953 192.275 359.253 224.475 345.553 248.775C339.553 259.475 330.753 265.175 321.353 271.275C319.553 272.475 317.653 273.675 315.753 274.975C313.853 276.275 311.953 277.575 310.153 278.775C283.853 296.575 260.953 312.075 226.353 312.075ZM325.453 8.2752C315.953 8.2752 307.353 14.7752 298.853 21.0752C297.353 22.1752 295.753 23.3752 294.253 24.4752C270.953 41.1752 246.653 56.8752 223.953 71.4752C168.953 106.575 105.753 165.875 93.1527 227.175C88.8527 248.175 92.0527 265.375 102.653 278.375C128.953 310.775 196.853 311.075 225.853 311.175C226.053 311.175 226.153 311.175 226.353 311.175C260.653 311.175 282.353 296.475 309.753 277.875C311.653 276.575 313.453 275.375 315.453 274.075C317.353 272.775 319.253 271.575 321.053 270.375C330.653 264.175 338.953 258.775 344.853 248.275C358.353 224.175 360.053 192.175 361.353 168.775C363.153 134.275 361.953 99.8752 357.753 66.4752C357.553 65.0752 357.453 63.6752 357.253 62.1752C355.153 44.7752 352.353 20.8752 337.053 11.8752C332.953 9.2752 329.153 8.2752 325.453 8.2752Z" fill="white"/>
<path d="M195.153 302.475C169.353 302.475 139.353 297.975 122.353 280.275C110.353 267.675 105.953 249.975 109.453 227.375C113.353 201.975 125.453 180.675 147.453 160.475C161.953 147.075 175.053 131.675 187.753 116.875C200.953 101.375 214.553 85.3753 229.853 71.4753C248.953 54.1753 267.853 37.4753 286.153 21.7753C287.653 20.4753 289.253 19.0753 290.953 17.4753C301.353 7.97526 315.653 -5.12474 329.053 2.07526C342.653 9.37526 344.953 34.6753 346.253 49.6753C346.453 51.6753 346.553 53.5753 346.753 55.1753C350.053 85.5753 350.253 118.275 347.453 152.375C344.453 188.775 340.353 238.575 303.253 263.275C300.453 265.175 297.753 266.975 295.053 268.775C272.253 284.275 252.553 297.575 223.853 300.775C215.753 301.675 205.853 302.475 195.153 302.475ZM320.853 0.975261C310.353 0.975261 299.753 10.6753 291.653 18.1753C289.953 19.7753 288.353 21.1753 286.853 22.4753C268.553 38.1753 249.653 54.8753 230.553 72.1753C215.253 85.9753 201.653 101.975 188.553 117.475C175.853 132.375 162.753 147.775 148.253 161.175C126.353 181.275 114.353 202.375 110.553 227.475C107.153 249.675 111.353 267.175 123.253 279.475C147.053 304.275 196.553 302.775 223.953 299.775C252.353 296.575 271.953 283.275 294.653 267.875C297.353 266.075 300.053 264.175 302.853 262.375C339.553 237.875 343.653 188.375 346.653 152.175C349.453 118.175 349.253 85.5753 345.953 55.1753C345.753 53.5753 345.653 51.6753 345.453 49.6753C344.153 34.7753 341.953 9.87526 328.753 2.87526C326.053 1.57526 323.453 0.975261 320.853 0.975261Z" fill="white"/>
<path d="M181.653 295.275C170.453 295.275 159.453 293.375 150.253 287.675C140.753 281.875 133.553 272.775 129.453 261.375C125.753 251.075 124.653 239.475 126.253 227.675C129.553 204.375 139.753 185.975 159.353 168.075C176.653 152.275 191.253 132.075 205.253 112.575C214.753 99.4752 224.453 85.8752 234.953 73.9752C236.753 71.9752 239.353 68.6752 242.653 64.4752C260.953 41.4752 299.053 -6.22478 318.853 4.27522C330.553 10.4752 332.353 33.2752 333.353 46.8752C333.453 48.3752 333.553 49.7752 333.653 51.0752C336.053 77.5752 335.653 107.175 332.353 139.075C328.753 174.075 323.253 227.075 291.653 254.375C271.353 271.875 246.053 284.775 222.253 289.775C210.253 292.275 195.753 295.275 181.653 295.275ZM312.553 3.87521C292.453 3.87521 259.953 44.5752 243.553 65.1752C240.253 69.3752 237.653 72.5752 235.853 74.6752C225.453 86.5752 215.653 100.075 206.253 113.175C192.153 132.775 177.553 152.975 160.153 168.875C140.653 186.575 130.553 204.775 127.353 227.875C123.153 258.075 136.753 278.175 150.853 286.875C171.253 299.375 200.553 293.275 222.053 288.775C245.753 283.875 270.853 271.075 291.053 253.675C322.353 226.675 327.853 173.975 331.453 139.075C334.753 107.275 335.153 77.6752 332.753 51.2752C332.653 50.0752 332.553 48.5752 332.453 47.0752C331.353 33.6752 329.653 11.2752 318.453 5.27522C316.553 4.27522 314.653 3.87521 312.553 3.87521Z" fill="white"/>
<path d="M191.153 283.975C177.153 283.975 165.153 280.375 156.653 273.375C145.153 263.875 140.353 248.175 142.653 228.075C145.353 204.975 158.053 187.675 170.753 171.875C184.853 154.375 198.053 135.775 210.753 117.675C219.653 105.075 228.753 92.0753 238.153 79.5753C239.653 77.6753 241.653 74.6753 243.953 71.2753C257.853 51.0753 286.853 8.87527 306.553 19.6753C315.953 24.7753 317.553 40.1753 318.653 50.2753C318.753 51.2753 318.853 52.1753 318.953 53.0753C322.253 81.4753 319.453 111.175 317.153 131.075C312.553 170.075 305.653 214.075 281.253 243.575C268.753 258.675 248.553 270.675 221.253 279.175C210.753 282.275 200.453 283.975 191.153 283.975ZM299.753 18.8753C281.253 18.8753 257.153 53.9753 244.853 71.7753C242.553 75.1753 240.453 78.1753 239.053 80.0753C229.653 92.4753 220.553 105.575 211.653 118.075C198.953 136.175 185.753 154.775 171.653 172.275C158.453 188.575 146.453 205.075 143.753 227.975C141.453 247.675 146.153 263.075 157.353 272.375C171.253 283.875 195.053 285.975 221.053 277.975C248.153 269.575 268.153 257.775 280.553 242.775C304.853 213.475 311.753 169.575 316.253 130.775C318.553 110.975 321.253 81.3753 318.053 52.9753C317.953 52.0753 317.853 51.1753 317.753 50.1753C316.753 40.2753 315.153 25.2753 306.153 20.3753C304.053 19.3753 301.953 18.8753 299.753 18.8753Z" fill="white"/>
<path d="M197.453 272.475C186.753 272.475 177.353 269.675 170.553 264.175C160.953 256.475 156.753 243.775 158.453 227.575C160.653 206.375 172.853 187.175 182.753 171.775C202.153 141.475 220.953 113.675 238.753 89.0752C239.653 87.7752 240.853 85.9752 242.253 83.9752C253.053 68.1752 275.453 35.1752 292.553 44.9752C311.653 55.8752 305.453 101.675 302.453 123.775C302.153 126.075 301.853 128.075 301.653 129.775C292.153 208.275 265.853 253.575 221.153 268.375C212.953 271.075 204.853 272.475 197.453 272.475ZM285.853 44.2752C270.453 44.2752 252.353 70.9752 243.053 84.6752C241.653 86.7752 240.453 88.4752 239.553 89.7752C221.753 114.375 202.953 142.175 183.553 172.375C173.753 187.675 161.553 206.675 159.453 227.675C157.853 243.575 161.853 255.875 171.153 263.375C182.453 272.475 201.053 273.975 220.853 267.375C265.153 252.675 291.253 207.675 300.653 129.575C300.853 127.875 301.153 125.875 301.453 123.575C304.453 101.775 310.553 56.3752 292.053 45.7752C290.053 44.7752 288.053 44.2752 285.853 44.2752Z" fill="white"/>
<path d="M203.653 256.775C196.953 256.775 190.853 254.975 185.853 251.375C177.353 245.175 173.453 234.675 175.053 221.675C180.153 179.175 217.553 130.975 237.653 105.175C238.353 104.275 239.253 103.075 240.253 101.675C248.653 90.2753 264.453 68.9753 277.453 76.4753C291.553 84.5753 287.253 118.275 285.453 132.675C285.353 133.775 285.153 134.775 285.053 135.575C282.053 161.075 276.253 183.375 267.953 201.875C256.953 226.375 241.553 243.275 222.353 252.275C215.953 255.275 209.653 256.775 203.653 256.775ZM271.753 75.9753C260.453 75.9753 247.653 93.2753 241.053 102.275C240.053 103.675 239.153 104.775 238.453 105.775C218.453 131.575 181.153 179.575 176.053 221.775C174.553 234.375 178.253 244.575 186.453 250.475C195.653 257.075 208.853 257.475 221.853 251.375C245.253 240.475 275.053 211.575 284.053 135.475C284.153 134.575 284.253 133.675 284.453 132.475C286.253 118.275 290.453 84.9753 276.953 77.2753C275.253 76.4753 273.553 75.9753 271.753 75.9753Z" fill="white"/>
<path d="M211.053 235.175C207.353 235.175 203.753 234.175 200.653 232.075C194.053 227.675 191.153 219.575 192.653 210.375C197.953 178.975 219.053 145.575 235.553 126.575C236.053 125.975 236.653 125.275 237.253 124.575C242.953 117.775 252.353 106.375 261.753 110.975C271.053 115.475 268.853 135.075 267.753 144.475C267.653 145.475 267.553 146.375 267.453 147.075C264.753 174.875 251.953 213.575 224.453 230.975C220.053 233.675 215.453 235.175 211.053 235.175ZM257.353 110.875C249.953 110.875 242.753 119.575 238.053 125.175C237.453 125.975 236.853 126.675 236.353 127.275C219.953 146.175 198.953 179.375 193.653 210.575C192.153 219.375 194.953 227.175 201.253 231.275C207.653 235.575 216.153 235.075 223.953 230.175C251.153 212.975 263.853 174.575 266.453 146.975C266.553 146.275 266.653 145.375 266.753 144.275C267.753 135.075 269.953 115.975 261.353 111.775C259.953 111.175 258.653 110.875 257.353 110.875Z" fill="white"/>
<path d="M218.453 209.575C217.153 209.575 216.053 209.275 214.953 208.675C211.553 206.675 210.053 201.875 210.953 195.375C212.653 183.075 219.753 168.675 232.753 151.575C237.653 145.075 241.753 145.575 243.753 146.475C248.053 148.375 250.453 155.375 249.153 161.975C246.853 173.775 240.953 195.075 227.253 205.875C224.153 208.375 221.153 209.575 218.453 209.575ZM241.253 146.975C238.753 146.975 236.153 148.775 233.553 152.175C220.653 169.175 213.553 183.375 211.953 195.475C211.153 201.575 212.453 206.075 215.453 207.775C218.253 209.375 222.353 208.375 226.653 204.975C240.053 194.375 245.853 173.275 248.153 161.675C249.353 155.475 247.253 148.975 243.353 147.275C242.653 147.075 242.053 146.975 241.253 146.975Z" fill="white"/>
</svg>
