<svg width="457" height="334" viewBox="0 0 457 334" fill="none" xmlns="http://www.w3.org/2000/svg">
<path d="M312.1 66.2C285.1 66.2 260.1 51.2 235.7 36.5L233.6 35.3C196.6 13.1 168.9 1 128.6 1C110.4 1 92.1 1 73.9 1C51.1 1 27.6 1.1 4.5 1V0C27.6 0 51.2 0 73.9 0C92.1 0 110.4 0 128.6 0C169.2 0 197 12.1 234.2 34.4L236.3 35.6C268.7 55.1 302.2 75.2 339.8 59.5C356 52.8 370.4 42.8 384.3 33.2C405.7 18.4 427.8 3.2 456 0L456.1 1C428.1 4.1 407.1 18.6 384.8 34C370.8 43.6 356.4 53.6 340.1 60.4C330.6 64.5 321.2 66.2 312.1 66.2Z" fill="white"/>
<path d="M311.7 76.7C284.8 76.7 260 62 235.8 47.7L232.1 45.5C198.1 25.4 168.6 9.99997 125.6 10.6C108 10.8 90.1999 11.7 72.8999 12.6C50.4999 13.7 27.2999 14.9 4.3999 14.6V13.6C27.2999 13.9 50.3999 12.7 72.7999 11.6C90.0999 10.7 107.9 9.89997 125.5 9.59997C168.8 8.99997 198.4 24.5 232.6 44.7L236.3 46.9C268.3 65.9 301.4 85.6 339.1 70.4C355.3 63.9 370 54.5 384.2 45.4C405.9 31.6 428.3 17.3 455.9 13.5L456 14.5C428.6 18.3 406.3 32.5 384.7 46.3C370.5 55.4 355.7 64.8 339.5 71.3C329.9 75.1 320.7 76.7 311.7 76.7Z" fill="white"/>
<path d="M311.5 82.9001C283.6 82.9001 258.1 68.3001 233.3 54.1001C231.7 53.2001 230.1 52.3001 228.5 51.4001C190.3 29.7001 160.1 14.5001 119.4 16.7001C102.7 17.6001 85.7998 19.9001 69.5998 22.0001C48.3998 24.8001 26.3998 27.8001 4.2998 27.8001V26.8001C26.2998 26.8001 48.1998 23.8001 69.3998 21.0001C85.6998 18.8001 102.5 16.6001 119.3 15.7001C160.3 13.4001 190.6 28.7001 229 50.5001C230.6 51.4001 232.2 52.3001 233.8 53.2001C266.2 71.7001 299.7 90.9001 338 77.2001C354.2 71.4001 369.2 63.1001 383.7 55.1001C405.8 42.9001 428.7 30.2001 455.6 26.7001L455.7 27.7001C429 31.2001 406.2 43.8001 384.1 56.0001C369.5 64.0001 354.5 72.4001 338.2 78.2001C329.1 81.5001 320.2 82.9001 311.5 82.9001Z" fill="white"/>
<path d="M311.9 86.3C282.2 86.3 255.1 71.6 228.8 57.3C227 56.3 225.2 55.3 223.3 54.3L218.9 51.9C184.1 33.1 151.3 15.4 110.9 20.4C95.1001 22.4 79.7001 26.3 64.9001 30.1C45.4001 35.1 25.3001 40.3 4.1001 41V40C25.1001 39.3 45.2001 34.1 64.7001 29.1C79.6001 25.3 95.1001 21.3 110.9 19.3C151.6 14.2 184.6 32.1 219.5 50.9L223.9 53.3C225.7 54.3 227.5 55.3 229.4 56.3C262.8 74.4 297.3 93.1 336.8 81.6C353 76.9 368.4 70 383.3 63.3C406 53.1 429.5 42.7 455.7 39.9L455.8 40.9C429.7 43.6 406.3 54.1 383.7 64.2C368.8 70.9 353.4 77.8 337.1 82.5C328.4 85.2 320 86.3 311.9 86.3Z" fill="white"/>
<path d="M313.4 88.2C280.9 88.2 251.4 73.1 222.8 58.4C221 57.5 219.1 56.5 217.3 55.6C213.6 53.7 210 51.8 206.2 49.9C172.9 32.5 138.4 14.6 101.1 22.7C86.2998 25.9 72.6998 31.8 59.4998 37.4C42.1998 44.8 24.3998 52.5 3.8998 54.2L3.7998 53.2C24.0998 51.5 41.8998 43.9 59.0998 36.5C72.2998 30.8 85.9998 24.9 100.9 21.7C138.6 13.5 173.2 31.6 206.7 49C210.4 50.9 214.1 52.9 217.8 54.7C219.6 55.6 221.5 56.6 223.3 57.5C259.7 76.1 294.1 93.7 335.2 84.8C351.4 81.3 367.1 76 382.3 70.9C405.6 63.1 429.6 55 455.4 53.3L455.5 54.3C429.9 56 405.9 64.1 382.7 71.9C367.4 77 351.7 82.3 335.5 85.9C327.9 87.5 320.6 88.2 313.4 88.2Z" fill="white"/>
<path d="M315.5 90.9C279.9 90.9 248.7 75.6 215.9 59.5L210.8 57C205.9 54.6 200.8 52 195.5 49.3C162.6 32.4 125.3 13.2 90.8 24.6C76.9 29.2 65.2 37 53.9 44.6C39.1 54.5 23.9 64.7 3.6 67.5L3.5 66.5C23.6 63.7 38.7 53.5 53.4 43.7C64.7 36.1 76.5 28.3 90.5 23.6C125.4 12.1 162.9 31.4 196 48.4C201.3 51.1 206.4 53.7 211.3 56.1L216.4 58.6C254.5 77.3 290.5 94.9 333.5 88.5C349.7 86.1 365.8 82.4 381.3 78.7C405.2 73.1 429.8 67.4 455.2 66.5V67.5C429.9 68.3 405.3 74.1 381.5 79.6C365.9 83.2 349.8 87 333.6 89.4C327.4 90.5 321.4 90.9 315.5 90.9Z" fill="white"/>
<path d="M318.7 95.9C279.3 95.9 245.2 79.7 209.4 62.6L204.1 60.1C198.6 57.5 192.6 54.4 186.3 51.2C153.1 34.1 111.8 12.8 79.9001 27.3C66.7001 33.3 57.3001 42.9 48.1001 52.2C36.1001 64.3 23.8001 76.9 3.3001 80.8L3.1001 79.8C23.3001 75.9 35.0001 64 47.4001 51.5C56.6001 42.2 66.2001 32.5 79.5001 26.4C111.8 11.7 153.3 33.1 186.7 50.4C193 53.7 199 56.7 204.5 59.3L209.8 61.8C249.5 80.7 287.1 98.6 332 94.4C348.2 92.9 364.6 90.4 380.4 88C404.7 84.3 429.8 80.5 455 80.1V81.1C429.8 81.5 404.8 85.3 380.5 89C364.7 91.4 348.3 93.9 332.1 95.4C327.6 95.7 323.1 95.9 318.7 95.9Z" fill="white"/>
<path d="M323.8 101.3C279.4 101.3 241.6 84.2 201.6 66.1L198.6 64.7C193 62.2 186.5 58.9 179.6 55.5C146.1 38.7 100.2 15.6 70.4999 32.3C57.8999 39.4 50.3999 50.4 43.1999 61.1C33.3999 75.6 24.0999 89.2 3.0999 94L2.8999 93C23.4999 88.3 32.6999 74.8 42.4999 60.5C49.7999 49.8 57.2999 38.7 70.0999 31.4C100.2 14.4 146.4 37.6 180.1 54.5C187 57.9 193.4 61.2 199 63.7L202 65.1C244.1 84.1 283.8 102.1 331.2 100.1C347.5 99.4 363.9 98.2 379.9 96.9C404.4 95 429.7 93.1 454.9 93.2V94.2C429.8 94.2 404.5 96.1 380 97.9C364.1 99.1 347.6 100.4 331.3 101.1C328.7 101.2 326.3 101.3 323.8 101.3Z" fill="white"/>
<path d="M329 108.9C279.3 108.9 238.6 91.5 195.6 73C189.9 70.6 183.2 67.3 176.1 63.9C141.3 47.2 93.6999 24.2 65.2999 41.7C52.8999 49.3 46.6999 61.2 40.7999 72.6C32.6999 88.1 25.0999 102.8 3.0999 107.4L2.8999 106.4C24.3999 101.9 31.8999 87.4 39.8999 72.1C45.8999 60.6 52.0999 48.6 64.7999 40.8C93.6999 23 141.6 46.1 176.6 62.9C183.7 66.3 190.5 69.6 196.1 72C239.5 90.6 280.6 108.1 330.7 107.8C347.2 107.7 364 107.4 380.2 107.2C404.6 106.8 429.9 106.4 454.8 106.5V107.5C430 107.4 404.7 107.8 380.3 108.2C364.1 108.5 347.3 108.7 330.8 108.8C330.1 108.9 329.6 108.9 329 108.9Z" fill="white"/>
<path d="M454.5 120.9C429.1 120.8 403.4 119.6 378.5 118.4C362.8 117.7 346.5 116.9 330.5 116.4C281 114.9 238.7 100.9 196.2 85.5C192.3 84.1 188.3 82.6 184.4 81.2C163.9 73.7 142.8 65.9 121.4 60.4L118.7 59.7C101.8 55.3 82.5998 50.4 66.8998 59.4C54.4998 66.5 47.9998 77.6 41.5998 88.3C32.8998 103 24.5998 116.8 2.9998 120.8L2.7998 119.8C23.9998 115.9 32.0998 102.2 40.6998 87.8C47.0998 77 53.7998 65.8 66.3998 58.5C82.4998 49.3 101.9 54.3 119 58.7L121.7 59.4C143.1 64.9 164.3 72.7 184.8 80.2C188.7 81.6 192.7 83.1 196.6 84.5C239 99.9 281.2 113.9 330.6 115.4C346.6 115.9 362.9 116.6 378.6 117.4C403.5 118.6 429.2 119.8 454.5 119.9V120.9Z" fill="white"/>
<path d="M454.3 134.2C428.9 133.7 403.5 130.6 378.9 127.5C363.1 125.5 346.7 123.5 330.5 122.1C286.5 118.5 244.9 111.3 199.7 99.4C192.7 97.6 184.8 95.1 176.4 92.4C142.9 81.9 101.3 68.8 73.6999 81.7C61.0999 87.6 52.8999 97.1 44.8999 106.3C33.8999 119.1 23.4999 131.1 2.4999 134.1L2.3999 133.1C22.8999 130.1 33.1999 118.2 44.0999 105.6C52.0999 96.3 60.3999 86.7 73.1999 80.7C101.1 67.6 143 80.8 176.6 91.4C185 94 192.9 96.5 199.9 98.4C245.1 110.3 286.6 117.6 330.5 121.1C346.7 122.4 363.1 124.5 379 126.5C403.6 129.6 429 132.8 454.3 133.2V134.2Z" fill="white"/>
<path d="M454.1 147.5C428.6 146.4 403.5 141.1 379.3 135.9C363.4 132.5 347 129 330.5 126.7C312.1 124.1 293.3 122.2 275.1 120.3C251.7 117.9 227.5 115.4 203.8 111.5C195.6 110.2 186.7 108.3 177.3 106.3C145.1 99.4 108.5 91.7 81.5999 102.1C68.6999 107.1 58.6999 115.3 49.1999 123.2C35.6999 134.4 22.9999 144.9 2.4999 147.4L2.3999 146.4C22.5999 143.9 35.1999 133.4 48.5999 122.4C58.1999 114.4 68.1999 106.2 81.2999 101.1C108.5 90.6 145.2 98.4 177.6 105.3C187 107.3 196 109.2 204.1 110.5C227.8 114.3 252 116.8 275.3 119.3C293.5 121.2 312.3 123.1 330.8 125.7C347.3 128 363.7 131.5 379.7 134.9C403.9 140.1 428.9 145.4 454.3 146.5L454.1 147.5Z" fill="white"/>
<path d="M454 160.8C428.2 159.3 403.5 152 379.7 145C363.8 140.3 347.4 135.4 330.6 132.3C302.9 127.1 273.3 126.6 244.6 126.1C232.7 125.9 220.5 125.7 208.7 125.1C198.6 124.6 187.9 123.5 176.6 122.4C146.9 119.3 116.2 116.2 90.6002 123.7C77.1002 127.7 65.4002 134.4 54.1002 140.9C38.7002 149.7 22.7002 158.9 2.3002 160.8L2.2002 159.8C22.4002 157.9 37.5002 149.2 53.6002 140C64.9002 133.5 76.7002 126.8 90.3002 122.7C116.1 115.1 146.9 118.3 176.7 121.3C188 122.5 198.7 123.6 208.7 124C220.5 124.6 232.7 124.8 244.6 125C273.3 125.5 303 126.1 330.7 131.2C347.5 134.3 363.9 139.2 379.9 143.9C403.7 150.9 428.2 158.2 454 159.7V160.8Z" fill="white"/>
<path d="M2.2001 174.1L2.1001 173.1C22.8001 171.8 41.2001 164.7 59.1001 157.8C72.0001 152.8 85.4001 147.7 99.7001 144.7C121.7 140.1 145.5 139.4 168.6 138.7C183.6 138.3 199 137.8 213.7 136.2C219.9 135.5 226.2 134.8 232.7 134C265.6 130.1 299.6 126 330.8 134C347.9 138.4 364.4 145 380.3 151.4C403.6 160.8 427.6 170.5 453.8 173.1L453.7 174.1C427.4 171.5 403.3 161.8 379.9 152.4C364 146 347.6 139.4 330.5 135C299.5 127 265.6 131.1 232.7 135.1C226.1 135.9 219.9 136.6 213.6 137.3C198.9 138.8 183.4 139.3 168.5 139.8C145.5 140.5 121.7 141.2 99.8001 145.8C85.6001 148.8 72.2001 153.9 59.3001 158.9C41.6001 165.6 23.1001 172.7 2.2001 174.1Z" fill="white"/>
<path d="M2.1001 187.4V186.4C23.7001 185.5 44.5001 180.4 64.6001 175.5C78.9001 172 93.8001 168.3 108.9 166.2C120.3 164.6 131.6 163.3 142.6 162.1C168.4 159.2 192.9 156.4 218.6 149.9C221.8 149.1 225 148.3 228.2 147.4C262.2 138.5 297.4 129.4 331.1 139.5C348.5 144.8 364.9 152.8 380.8 160.5C403.6 171.7 427.2 183.2 453.9 186.3L453.8 187.3C427 184.2 403.3 172.6 380.4 161.4C364.6 153.7 348.3 145.7 330.9 140.4C297.5 130.3 262.4 139.4 228.5 148.3C225.3 149.1 222.1 150 218.9 150.8C193.1 157.4 168.7 160.1 142.8 163.1C131.8 164.3 120.5 165.6 109.1 167.2C94.0001 169.3 79.2001 172.9 64.9001 176.5C44.7001 181.4 23.8001 186.5 2.1001 187.4Z" fill="white"/>
<path d="M1.8999 200.7V199.7C24.6999 199.1 47.3999 195.7 69.3999 192.5C84.7999 190.2 100.8 187.9 116.7 186.5C122.5 186 128.3 185.7 134 185.5C145.3 185 157.1 184.5 168.5 181.9C185.2 178.2 201.2 171.4 216.8 164.7C218.8 163.9 220.8 163 222.7 162.2L227.5 160.2C260.9 146 295.4 131.4 331.1 144C348.9 150.3 365.2 159.8 380.9 169.1C403.2 182.2 426.3 195.7 453.6 199.6L453.5 200.6C426.1 196.7 402.9 183.1 380.5 169.9C364.8 160.7 348.6 151.2 330.9 144.9C295.5 132.4 261.2 147 228 161L223.2 163C221.2 163.8 219.3 164.7 217.3 165.5C201.7 172.1 185.6 179 168.8 182.7C157.3 185.2 145.5 185.8 134.2 186.3C128.6 186.6 122.7 186.8 117 187.3C101.1 188.7 85.1999 191 69.7999 193.3C47.4999 196.7 24.7999 200 1.8999 200.7Z" fill="white"/>
<path d="M1.7002 214V213C25.6002 212.9 49.8002 211.8 73.2002 210.7C89.7002 209.9 106.8 209.1 123.6 208.7C126.4 208.6 129.2 208.6 132 208.5C146.8 208.3 160.7 208.1 174.8 203.5C191.1 198.2 206.1 188.9 220.6 179.9C222.5 178.7 224.3 177.6 226.2 176.4L229.7 174.2C261.2 154.8 293.7 134.7 331.1 149.5C349.2 156.7 365.4 167.6 381 178.2C402.9 193 425.5 208.3 453.4 212.8L453.2 213.8C425.2 209.2 402.4 193.9 380.4 179C364.8 168.5 348.7 157.5 330.7 150.4C293.8 135.8 261.4 155.7 230.2 175L226.7 177.2C224.8 178.3 223 179.5 221.1 180.7C206.6 189.7 191.5 199.1 175.1 204.4C160.9 209 146.9 209.2 132 209.4C129.2 209.4 126.4 209.5 123.6 209.6C106.8 210 89.7002 210.8 73.2002 211.6C49.9002 212.8 25.6002 213.9 1.7002 214Z" fill="white"/>
<path d="M20.2 227.4C14 227.4 7.7 227.4 1.5 227.3V226.3C27.4 226.6 53.8 226.2 79.3 225.9C94.5 225.7 110.2 225.5 125.6 225.4C127.6 225.4 129.6 225.4 131.6 225.4C147.1 225.4 161.8 225.4 176.6 220C192.9 214 207.6 203.7 221.8 193.8C223.6 192.6 225.3 191.3 227.1 190.1L231 187.4C261.6 166.1 293.3 144 331.1 159.6C349.4 167.1 365.6 178.7 381.2 189.8C402.9 205.3 425.3 221.3 453.3 226.2L453.1 227.2C424.9 222.3 402.4 206.2 380.6 190.6C365 179.5 348.9 168 330.7 160.5C293.4 145.1 261.9 167 231.5 188.2L227.6 190.9C225.9 192.1 224.1 193.3 222.3 194.6C208 204.6 193.3 214.9 176.8 221C161.8 226.5 147.1 226.5 131.5 226.5C129.5 226.5 127.5 226.5 125.5 226.5C110.1 226.6 94.4 226.8 79.2 227C60 227.1 40.1 227.4 20.2 227.4Z" fill="white"/>
<path d="M9.7998 240.7C6.9998 240.7 4.0998 240.7 1.2998 240.6V239.6C27.3998 240.1 53.6998 238.1 79.1998 236.1C94.3998 234.9 110.1 233.7 125.6 233.1C129.4 232.9 133.2 232.9 136.9 232.8C150.6 232.5 163.6 232.2 176.9 228.2C192.9 223.4 207.9 215.2 222.4 207.3C224 206.4 225.6 205.6 227.1 204.7C228.6 203.9 230.1 203 231.7 202.2C262.8 185.3 294.9 167.7 330.5 180.7C348.6 187.3 365.1 197.5 381 207.4C403 221.1 425.8 235.2 453 239.5L452.8 240.5C425.4 236.2 402.5 222 380.4 208.3C364.6 198.5 348.2 188.3 330.1 181.7C294.9 168.9 263 186.3 232.1 203.1C230.6 203.9 229 204.8 227.5 205.6C225.9 206.5 224.4 207.3 222.8 208.2C208.2 216.1 193.2 224.4 177.1 229.2C163.7 233.3 150.6 233.5 136.8 233.8C133.1 233.9 129.3 234 125.5 234.1C110 234.8 94.2998 236 79.0998 237.1C56.5998 238.9 33.1998 240.7 9.7998 240.7Z" fill="white"/>
<path d="M2.1001 253.9C1.8001 253.9 1.5001 253.9 1.1001 253.9V252.9C27.5001 253 53.8001 248.6 79.1001 244.4C94.4001 241.8 110.1 239.2 125.9 237.6C159.8 234 191.9 230.7 227.6 218.1C229.7 217.4 231.8 216.6 233.9 215.9C265.2 204.8 297.5 193.3 330.2 203.3C348.1 208.8 364.8 217.4 380.9 225.8C403.3 237.4 426.4 249.4 452.9 252.8L452.8 253.8C426.2 250.4 403 238.3 380.5 226.7C364.4 218.4 347.8 209.8 329.9 204.3C297.6 194.4 265.4 205.8 234.3 216.8C232.2 217.5 230.1 218.3 228 219C192.1 231.6 160.1 235 126.1 238.5C110.4 240.1 94.6001 242.8 79.4001 245.3C54.3001 249.6 28.3001 253.9 2.1001 253.9Z" fill="white"/>
<path d="M1 267.2V266.2C28.4 265.2 54.7 257.8 80.1 250.7C95.6 246.4 111.6 241.9 127.9 238.8C146.6 235.3 166.3 234.1 185.2 232.9C199.7 232 214.6 231.1 229.1 229.2C233.9 228.5 239 227.8 243.8 227.1C272.5 222.9 302.1 218.5 329.7 225.5C347.4 230 364.3 237.1 380.7 244C403.4 253.6 426.9 263.5 452.7 266.2L452.6 267.2C426.7 264.5 403.1 254.6 380.3 244.9C364 238 347.1 230.9 329.5 226.4C302.1 219.5 272.5 223.8 244 228C239.1 228.7 234.1 229.5 229.2 230.1C214.7 232 199.7 233 185.3 233.9C166.3 235.1 146.7 236.3 128.1 239.8C111.9 242.8 95.9 247.3 80.4 251.7C54.9 258.8 28.5 266.2 1 267.2Z" fill="white"/>
<path d="M452.4 280.5C427.2 279 403.2 271.5 380.1 264.3C363.6 259.2 346.6 253.9 329.1 250.7C310.3 247.3 290.5 246.1 271.4 245C257.7 244.2 243.4 243.4 229.7 241.7C225 241.1 220.2 240.5 215.6 239.9C186.7 236.1 156.9 232.2 128.9 239.9C112.4 244.5 96.3002 251 80.7002 257.2C55.4002 267.4 29.2002 277.9 0.800196 280.3L0.700195 279.3C29.0002 276.9 55.1002 266.4 80.3002 256.2C95.9002 249.9 112 243.5 128.6 238.9C156.8 231.1 186.7 235 215.7 238.8C220.3 239.4 225.1 240 229.8 240.6C243.5 242.3 257.7 243.1 271.4 243.9C290.6 245 310.4 246.2 329.2 249.6C346.7 252.8 363.8 258.1 380.3 263.2C403.4 270.4 427.3 277.8 452.4 279.3V280.5Z" fill="white"/>
<path d="M452.3 293.9C427.6 293.4 403.3 288.5 379.8 283.7C363.2 280.3 346 276.8 328.7 274.9C291.3 270.8 263.2 266 230.2 253.6L228.3 252.9C195.2 240.5 163.9 228.7 129.7 241C112.8 247 96.8 255.4 81.2 263.5C56.1 276.5 30.1 290 0.6 293.8L0.5 292.8C29.8 289.1 55.7 275.6 80.7 262.6C96.3 254.5 112.4 246.1 129.3 240.1C163.8 227.7 196.7 240.1 228.6 252L230.5 252.7C263.3 265 291.4 269.8 328.7 273.9C346 275.8 363.2 279.3 379.8 282.7C403.2 287.5 427.4 292.4 452.1 292.9L452.3 293.9Z" fill="white"/>
<path d="M448.7 307.3C425.4 307.3 402 304.7 379.4 302.2C362.7 300.3 345.4 298.4 328.3 297.6C325.6 297.5 323 297.4 320.4 297.2C303.4 296.5 288.6 295.9 272.1 288.7C259.6 283.3 247.8 276 236.4 269C234.5 267.8 232.5 266.6 230.6 265.5C198.5 246 168.1 227.5 130.3 243.6C113.2 250.9 97.1998 260.9 81.6998 270.6C56.7998 286.2 30.9998 302.3 0.499804 307L0.299805 306C30.6998 301.3 56.2998 285.2 81.1998 269.7C96.6998 260 112.8 250 129.9 242.6C168.2 226.3 198.7 244.9 231.1 264.5C233 265.7 235 266.9 236.9 268C248.3 275 260.1 282.2 272.5 287.6C288.8 294.7 303.5 295.3 320.4 296C323 296.1 325.6 296.2 328.3 296.4C345.5 297.3 362.7 299.2 379.5 301.1C403.2 303.7 427.7 306.5 452 306.2V307.2C451 307.3 449.8 307.3 448.7 307.3Z" fill="white"/>
<path d="M438.4 320.7C418.5 320.7 398.6 319.9 379.2 319.1C362.4 318.4 345.1 317.7 328 317.5H325.4C305.6 317.3 290 317.2 272.1 307.3C259.4 300.3 247.8 291 236.7 282C234.8 280.5 232.9 278.9 231 277.4C201.6 254 171.2 229.8 130.7 248.9C113.5 257.1 97.6002 268.4 82.3002 279.3C57.6002 296.9 32.0002 315.2 0.400194 320.3L0.200195 319.3C31.5002 314.2 57.0002 296.1 81.6002 278.5C97.0002 267.5 112.9 256.2 130.2 248C171.2 228.6 201.9 253 231.5 276.6C233.4 278.1 235.3 279.6 237.2 281.2C248.3 290.1 259.8 299.4 272.5 306.4C290.2 316.1 305.7 316.3 325.3 316.5H327.9C345 316.7 362.4 317.4 379.2 318.1C403 319.1 427.6 320.1 451.9 319.6V320.6C447.4 320.7 442.9 320.7 438.4 320.7Z" fill="white"/>
<path d="M423 333.7C408.4 333.7 393.9 333.7 379.6 333.7C362.2 333.7 344.9 333.7 327.5 333.7H325.4C306 333.7 289.3 333.7 271.8 323.2C258.9 315.4 247.6 305 236.7 294.9C234.8 293.1 232.8 291.3 230.9 289.5C198.2 259.7 170.1 238.4 130.4 258.1C113.3 266.6 97.6 278.7 82.5 290.4C57.9 309.4 32.5 329.1 0.1 333.6L0 332.6C32 328.2 57.4 308.6 81.9 289.6C97.1 277.9 112.8 265.7 130 257.2C148.8 247.8 166.9 247.1 185.2 255C201.6 262 216.5 275 231.6 288.8C233.5 290.6 235.5 292.4 237.4 294.2C248.3 304.3 259.5 314.6 272.3 322.3C289.5 332.7 306.1 332.6 325.3 332.6H327.4C344.8 332.6 362.1 332.6 379.5 332.6C403.1 332.6 427.6 332.6 451.6 332.6V333.6C442.2 333.7 432.6 333.7 423 333.7Z" fill="white"/>
</svg>
