<svg width="405" height="429" viewBox="0 0 405 429" fill="none" xmlns="http://www.w3.org/2000/svg">
<path d="M82.8 428.502C76.1 428.502 69.5 427.902 63.2 426.402C38.3 420.602 40.4 395.902 42.2 374.202C42.8 367.802 43.3 361.702 43.1 356.302C42.5 335.002 34.4 319.002 25.9 302.002C22.5 295.402 19.1 288.502 16 281.102C5.5 256.302 0 229.102 0 202.302C0 178.602 5.1 154.902 10.1 132.002C11 127.802 11.9 123.702 12.8 119.502C13.9 114.302 14.8 108.902 15.8 103.102C19.9 79.6017 24.5 52.9017 41.5 36.0017C57 20.6017 79.2 17.6017 100.6 14.8017C105.8 14.1017 110.7 13.5017 115.5 12.6017C123.1 11.3017 130.8 9.80171 138.3 8.30171C159.1 4.20171 180.7 -0.0982886 202.2 0.00171136C229 0.201711 254.5 6.10171 282.7 13.2017C285.5 13.9017 288.4 14.6017 291.3 15.3017C314.6 21.0017 338.7 26.8017 355.8 43.9017C373.4 61.4017 380.4 86.1017 387.3 110.002C387.9 112.002 388.4 114.002 389 115.902C397 143.502 404.4 173.102 404.4 202.202C404.4 224.602 399.7 247.202 395.3 269.102C394.1 274.802 392.9 280.602 391.8 286.302C391.1 289.802 390.5 293.302 389.9 296.702C386.6 315.902 383.2 335.802 368.4 350.802C349.1 370.502 319.3 379.302 293 387.102C290.3 387.902 287.6 388.702 285 389.502C256.8 398.002 228.1 403.202 202.2 404.402C185.6 405.202 167.4 410.302 148.1 415.802C126.3 422.102 103.9 428.502 82.8 428.502ZM201.3 1.10171C180.2 1.10171 159 5.30171 138.5 9.40171C131 10.9017 123.3 12.4017 115.6 13.7017C110.8 14.5017 105.9 15.2017 100.7 15.9017C79.5 18.7017 57.5 21.6017 42.2 36.8017C25.4 53.5017 20.8 80.0017 16.7 103.402C15.7 109.102 14.8 114.602 13.7 119.802C12.8 124.002 11.9 128.102 11 132.302C6.1 155.102 1 178.702 0.900002 202.402C0.900002 229.102 6.4 256.102 16.7 280.702C19.8 288.102 23.3 294.902 26.6 301.502C35.2 318.502 43.3 334.602 44 356.202C44.2 361.702 43.6 367.802 43.1 374.302C41.3 395.602 39.2 419.802 63.3 425.402C89.5 431.502 119.1 423.102 147.8 415.002C167.1 409.502 185.3 404.402 202.1 403.602C228 402.402 256.5 397.202 284.7 388.702C287.3 387.902 290 387.102 292.7 386.302C318.9 378.502 348.6 369.702 367.7 350.302C382.2 335.502 385.5 316.702 388.9 296.702C389.5 293.302 390.1 289.702 390.8 286.302C391.9 280.602 393.1 274.702 394.3 269.102C398.8 247.302 403.4 224.702 403.4 202.402C403.4 173.502 396 144.002 388.1 116.402C387.5 114.402 387 112.502 386.4 110.502C379.6 86.7017 372.6 62.1017 355.2 44.8017C338.2 27.9017 314.3 22.1017 291.1 16.4017C288.2 15.7017 285.3 15.0017 282.5 14.3017C254.3 7.20171 228.9 1.30171 202.2 1.10171C201.9 1.10171 201.6 1.10171 201.3 1.10171Z" fill="white"/>
<path d="M103.3 405.302C97.9002 405.302 92.6002 404.902 87.4002 404.002C60.6002 399.502 59.8002 379.302 58.9002 357.902C58.7002 352.802 58.5002 347.502 57.9002 342.502C55.8002 324.902 48.6002 311.202 40.9002 296.802C37.2002 289.902 33.4002 282.702 30.1002 275.002C20.0002 251.102 15.0002 226.002 15.4002 202.302C15.8002 182.902 17.7002 162.602 19.6002 143.002C20.5002 134.102 21.3002 124.902 22.1002 115.902C22.4002 112.202 22.6002 108.402 22.9002 104.302C24.4002 80.0017 26.1002 52.4017 43.5002 35.2017C60.1002 18.8017 85.2002 19.1017 107.4 19.4017C111.3 19.5017 115 19.5017 118.7 19.5017C132.7 19.4017 147.2 18.4017 161.1 17.5017C174.8 16.6017 188.9 15.7017 202.2 15.6017C224.4 15.4017 248.3 18.7017 271.5 22.0017C275.1 22.5017 278.7 23.0017 282.3 23.5017C283.8 23.7017 285.2 23.9017 286.7 24.1017C309.6 27.2017 333.3 30.3017 350.3 47.3017C368.4 65.3017 373.5 92.4017 378 116.402L378.7 120.002C383.6 146.002 389.3 175.602 388.9 202.402C388.7 215.002 387.8 228.202 387 241.102C386.1 253.902 385.3 267.102 385.1 279.902C385.1 282.302 385 284.702 385 287.102C384.9 307.702 384.8 327.102 369.4 342.802C350.6 362.002 321.1 368.802 295 374.802C292.9 375.302 290.8 375.802 288.7 376.302C260.2 383.002 230.3 387.402 202.3 389.002C188.5 389.802 173.9 393.202 158.5 396.702C140.2 401.002 121.4 405.302 103.3 405.302ZM98.5002 20.4017C78.9002 20.4017 58.3002 22.0017 44.2002 36.0017C27.1002 53.0017 25.4002 80.3017 23.9002 104.502C23.7002 108.502 23.4002 112.402 23.1002 116.102C22.4002 125.102 21.5002 134.302 20.6002 143.202C18.7002 162.802 16.8002 183.002 16.4002 202.402C15.9002 226.002 21.0002 251.002 31.0002 274.702C34.3002 282.402 38.0002 289.502 41.7002 296.502C49.4002 311.002 56.7002 324.802 58.8002 342.602C59.4002 347.702 59.6002 352.902 59.8002 358.102C60.6002 379.102 61.4002 398.902 87.5002 403.302C110.1 407.102 134.5 401.502 158.2 396.002C173.7 392.402 188.3 389.002 202.1 388.202C230.1 386.602 259.9 382.202 288.4 375.502C290.5 375.002 292.5 374.502 294.7 374.002C320.6 368.002 350 361.202 368.6 342.202C383.7 326.802 383.8 307.502 383.9 287.202C383.9 284.802 383.9 282.402 384 279.902C384.2 267.102 385.1 253.802 385.9 241.102C386.8 228.302 387.6 215.002 387.8 202.402C388.2 175.602 382.6 146.202 377.6 120.202L376.9 116.602C372.4 92.8017 367.3 65.9017 349.5 48.1017C332.7 31.4017 309.2 28.3017 286.5 25.2017C285 25.0017 283.5 24.8017 282.1 24.6017C278.5 24.1017 274.9 23.6017 271.3 23.1017C248.2 19.9017 224.3 16.5017 202.2 16.7017C188.9 16.8017 174.8 17.7017 161.2 18.6017C147.2 19.5017 132.8 20.4017 118.7 20.6017C115 20.6017 111.3 20.6017 107.4 20.5017C104.4 20.4017 101.5 20.4017 98.5002 20.4017Z" fill="white"/>
<path d="M128.3 382.702C120.1 382.702 112.1 381.802 104.6 379.502C84.4001 373.402 80.9001 357.102 77.1001 340.002C76.2001 336.102 75.4001 332.002 74.3001 328.002C70.8001 315.302 64.0001 304.002 57.5001 293.102C52.5001 284.802 47.4001 276.202 43.6001 267.002C35.0001 245.902 30.7001 223.602 31.0001 202.502C31.4001 179.502 31.3001 153.802 30.9001 121.502C30.8001 117.302 30.6001 112.702 30.4001 107.902C29.3001 83.0017 27.9001 52.1017 45.6001 34.7017C61.7001 18.8017 86.5001 22.1017 108.4 25.1017C112.2 25.6017 115.8 26.1017 119.2 26.5017C149.8 29.8017 177.8 31.4017 202.3 31.3017C222.2 31.2017 243.4 31.9017 264 32.5017C267.5 32.6017 270.9 32.7017 274.3 32.8017C276.7 32.9017 279.1 32.9017 281.5 33.0017C303.3 33.5017 328.1 34.1017 344.8 50.6017C361.8 67.5017 364.7 93.3017 367.3 116.202C367.5 117.902 367.7 119.602 367.9 121.202C370.8 146.002 373.8 175.102 373.5 202.402C373.2 225.802 374.9 251.102 378.3 275.502C378.6 277.602 378.9 279.702 379.2 281.802C382 300.302 384.9 319.502 370.2 334.702C351.6 353.902 319.1 359.202 292.9 363.502C289.6 364.002 286.4 364.602 283.3 365.102C258.6 369.402 231.4 372.202 202.2 373.602C192.3 374.102 181.6 375.902 170.3 377.902C156.3 380.202 142 382.702 128.3 382.702ZM80.8001 23.5017C67.8001 23.5017 55.5001 26.1017 46.2001 35.3017C28.9001 52.4017 30.2001 83.1017 31.3001 107.802C31.5001 112.602 31.7001 117.202 31.8001 121.402C32.3001 153.602 32.3001 179.402 31.9001 202.402C31.6001 223.402 35.9001 245.602 44.4001 266.602C48.1001 275.802 53.3001 284.302 58.2001 292.602C64.8001 303.602 71.6001 314.902 75.1001 327.702C76.2001 331.702 77.1001 335.802 78.0001 339.802C81.7001 356.702 85.1001 372.602 104.8 378.602C124.8 384.702 147.8 380.702 170 376.902C181.3 374.902 192.1 373.102 202.1 372.602C231.2 371.202 258.4 368.302 283 364.102C286.1 363.602 289.3 363.002 292.6 362.502C318.6 358.302 350.9 353.002 369.3 334.002C383.7 319.102 381 301.102 378.1 281.902C377.8 279.802 377.5 277.702 377.2 275.602C373.8 251.202 372.1 225.802 372.4 202.402C372.7 175.202 369.8 146.102 366.8 121.302C366.6 119.602 366.4 118.002 366.2 116.302C363.6 93.6017 360.7 67.9017 344 51.3017C327.6 35.0017 303.1 34.5017 281.4 34.0017C279 33.9017 276.5 33.9017 274.1 33.8017C270.7 33.7017 267.2 33.6017 263.8 33.5017C243.2 32.8017 222 32.1017 202.2 32.3017C177.6 32.5017 149.6 30.9017 119 27.5017C115.5 27.1017 112 26.6017 108.2 26.1017C99.3001 24.8017 89.9001 23.5017 80.8001 23.5017Z" fill="white"/>
<path d="M152 361.502C141.8 361.502 131.9 360.302 122.9 356.602C107.9 350.402 102.6 339.002 97.1002 327.002C95.1002 322.602 93.0002 318.102 90.3002 313.602C86.9002 307.802 83.5002 302.202 80.3002 296.902C62.2002 267.102 46.6002 241.402 46.5002 202.302C46.5002 182.402 44.6002 162.102 42.9002 142.602C42.2002 134.702 41.4002 126.502 40.8002 118.402C40.5002 115.102 40.1002 111.202 39.7002 107.002C37.3002 84.8017 33.6002 51.2017 49.6002 36.4017C64.6002 22.5017 89.0002 27.8017 108.5 32.1017C111.6 32.8017 114.5 33.4017 117.2 33.9017C122.4 34.9017 127.7 36.0017 132.9 37.1017C155.5 41.7017 178.9 46.5017 202.1 46.6017C217.3 46.7017 232.7 45.7017 247.6 44.8017C256 44.3017 264.7 43.7017 273.3 43.4017C275.2 43.3017 277.1 43.2017 279.2 43.1017C298.8 42.1017 323.3 40.9017 337.9 55.5017C352.8 70.4017 354.4 95.3017 355.7 115.302C355.8 116.902 355.9 118.502 356 120.002C357.8 145.402 357.8 171.402 357.8 196.402V202.302C357.8 223.302 363 243.902 368.1 263.802C368.9 267.002 369.7 270.102 370.5 273.302C370.9 275.002 371.3 276.602 371.8 278.302C376.1 294.802 380.5 311.902 368.2 325.802C353 343.002 320.3 347.002 296.4 350.002C292.8 350.502 289.3 350.902 286.2 351.302C258.4 355.302 230.2 357.502 202.1 357.902C195 358.002 187.5 358.702 179.5 359.502C170.4 360.502 161.1 361.502 152 361.502ZM76.5002 28.5017C66.6002 28.5017 57.4002 30.6017 50.3002 37.2017C34.7002 51.7017 38.3002 84.9017 40.7002 106.902C41.2002 111.002 41.6002 115.002 41.8002 118.302C42.4002 126.302 43.2002 134.502 43.9002 142.502C45.7002 162.102 47.5002 182.402 47.5002 202.302C47.5002 241.102 63.1002 266.602 81.1002 296.202C84.4002 301.602 87.8002 307.202 91.1002 313.002C93.8002 317.602 95.9002 322.102 97.9002 326.502C103.6 338.902 108.5 349.602 123.2 355.602C139.9 362.502 160 360.502 179.4 358.602C187.4 357.802 195 357.102 202.1 357.002C230.1 356.602 258.3 354.402 286 350.502C289.1 350.102 292.6 349.602 296.2 349.202C319.9 346.202 352.4 342.202 367.3 325.302C379.3 311.802 374.9 295.002 370.7 278.702C370.3 277.002 369.8 275.302 369.4 273.702C368.6 270.502 367.8 267.302 367 264.202C361.9 244.302 356.7 223.602 356.7 202.502V196.602C356.7 171.502 356.7 145.602 354.9 120.202C354.8 118.702 354.7 117.102 354.6 115.502C353.3 95.7017 351.6 71.0017 337 56.3017C322.7 42.0017 298.5 43.2017 279.1 44.2017C277.1 44.3017 275.1 44.4017 273.2 44.5017C264.6 44.9017 255.9 45.4017 247.5 45.9017C232.6 46.8017 217.1 47.8017 202 47.7017C178.7 47.7017 155.2 42.9017 132.6 38.2017C127.5 37.1017 122.1 36.1017 116.9 35.0017C114.2 34.5017 111.3 33.8017 108.2 33.2017C98.4002 31.0017 87.1002 28.5017 76.5002 28.5017Z" fill="white"/>
<path d="M182.2 342.602C167.8 342.602 153.3 341.802 140.6 336.402C127.5 330.902 118.7 320.202 110.2 309.902C107.9 307.102 105.5 304.202 103 301.402C76.4999 271.502 62.6999 238.202 61.9999 202.302C61.6999 184.402 58.9999 165.802 56.3999 147.902C55.0999 139.202 53.7999 130.302 52.7999 121.502C52.3999 118.502 51.9999 115.102 51.3999 111.402C48.2999 89.5017 43.9999 59.6016 58.5999 45.0016C72.1999 31.4016 101.1 39.4016 120.2 44.7017C122.9 45.4016 125.4 46.1017 127.6 46.7017C133.4 48.1017 139.3 49.8016 145.1 51.4016C164 56.6016 183.5 62.0016 202.1 62.2017C211.8 62.3017 224.7 60.2016 238.3 58.0016C271.1 52.6016 308.3 46.6016 327.9 65.0016C342.4 78.6016 343 107.102 343.3 126.002C343.3 127.602 343.4 129.102 343.4 130.602C343.7 143.402 343.3 156.502 342.8 169.202C342.4 180.202 342 191.602 342.2 202.402C342.4 218.902 348.2 235.402 353.8 251.402C355.1 255.202 356.5 259.202 357.8 263.002C358.4 264.702 359 266.502 359.6 268.302C364.8 283.402 371.3 302.302 359.5 315.502C345.3 331.402 314.9 334.602 292.7 336.902C289.3 337.302 286 337.602 283.1 337.902C255.4 341.202 228.2 342.802 202.1 342.502C198.4 342.502 194.7 342.502 190.7 342.502C188 342.602 185.1 342.602 182.2 342.602ZM81.3999 38.5016C72.6999 38.5016 64.7999 40.4017 59.3999 45.7017C45.0999 59.9016 49.3999 89.6017 52.4999 111.302C52.9999 114.902 53.4999 118.402 53.8999 121.402C54.8999 130.202 56.1999 139.102 57.4999 147.802C60.0999 165.802 62.7999 184.402 63.0999 202.302C63.7999 237.902 77.4999 271.102 103.8 300.802C106.3 303.602 108.7 306.502 111 309.302C119.8 320.002 128.1 330.002 141 335.502C156.1 341.902 173.8 341.702 190.8 341.502C194.8 341.502 198.5 341.402 202.2 341.502C228.2 341.802 255.4 340.302 283.1 336.902C286.1 336.502 289.3 336.202 292.7 335.902C314.7 333.602 344.9 330.502 358.9 314.902C370.3 302.102 363.9 283.502 358.8 268.702C358.2 266.902 357.6 265.102 357 263.402C355.7 259.602 354.4 255.602 353 251.802C347.4 235.702 341.6 219.102 341.4 202.502C341.3 191.702 341.7 180.302 342 169.302C342.4 156.602 342.9 143.502 342.6 130.802C342.6 129.302 342.5 127.802 342.5 126.202C342.1 107.502 341.5 79.2016 327.4 65.9016C308.2 47.9016 271.2 53.9016 238.6 59.2017C225 61.4017 212 63.5016 202.2 63.4016C183.5 63.2016 163.9 57.8017 145 52.6017C139.3 51.0017 133.3 49.4016 127.6 47.9016C125.4 47.3016 122.9 46.6016 120.2 45.9016C108.8 42.6016 94.1999 38.5016 81.3999 38.5016Z" fill="white"/>
<path d="M215.1 327.102C210.7 327.102 206.4 327.002 202.2 326.902C169.7 326.002 138.9 312.702 115.4 289.702C91.6001 266.302 78.2001 235.302 77.6001 202.302C77.3001 186.902 74.5001 170.702 71.8001 155.002C70.3001 146.102 68.7001 136.902 67.6001 128.002C67.3001 125.702 67.0001 123.202 66.6001 120.602C63.9001 101.502 60.1001 75.4018 73.6001 61.7018C86.1001 49.0018 108 54.6018 124 58.8018C125.2 59.1018 126.3 59.4018 127.4 59.7018C135.2 61.7018 143.2 64.2018 151 66.6018C168 71.9018 185.7 77.4018 202.2 77.7018C211.4 77.9018 223.2 75.7018 235.7 73.4018C263.9 68.2018 295.8 62.3018 314.1 79.7018C334.9 99.4018 331.4 140.402 328.5 173.402C327.6 184.202 326.7 194.502 326.9 202.402C327.1 211.802 332.1 224.202 337.4 237.302C346.9 260.702 357.6 287.302 342.6 303.302C328.9 317.902 302.4 320.702 283 322.802C280.8 323.002 278.7 323.302 276.7 323.502C255.4 325.902 234.7 327.102 215.1 327.102ZM202.2 326.002C225.5 326.702 250.5 325.502 276.6 322.502C278.6 322.302 280.7 322.002 282.9 321.802C302.1 319.802 328.4 317.002 341.8 302.602C356.3 287.102 345.7 260.802 336.4 237.702C331.1 224.502 326 212.002 325.8 202.402C325.6 194.402 326.5 184.102 327.4 173.302C330.2 140.602 333.7 99.8018 313.3 80.5018C295.4 63.5018 263.7 69.3018 235.8 74.5018C223.3 76.8018 211.5 79.0018 202.1 78.8018C185.5 78.5018 167.8 73.0018 150.7 67.6018C142.9 65.2018 134.9 62.7018 127.1 60.7018C126 60.4018 124.8 60.1018 123.7 59.8018C108 55.7018 86.4001 50.1018 74.2001 62.5018C61.1001 75.9018 64.7001 101.702 67.4001 120.602C67.8001 123.202 68.1001 125.702 68.4001 128.002C69.5001 136.902 71.1001 146.102 72.6001 155.002C75.3001 170.702 78.1001 186.902 78.4001 202.402C79.0001 235.102 92.3001 265.802 115.9 289.102C139.4 311.902 170 325.002 202.2 326.002Z" fill="white"/>
<path d="M234.3 312.002C226.8 312.002 219.6 311.802 213.1 311.702C209.2 311.602 205.6 311.502 202.2 311.502C174 311.202 147.1 299.402 126.4 278.402C105.9 257.602 94.0998 230.602 93.0998 202.402C92.7998 193.702 90.5999 182.402 88.2999 170.302C82.4999 139.702 75.1999 101.702 94.2999 83.2017C110.7 67.3017 140.5 76.7017 166.8 85.0017C180.2 89.2017 192.9 93.2017 202.1 93.2017C202.2 93.2017 202.2 93.2017 202.3 93.2017C210.1 93.2017 219.6 91.6017 229.7 89.9017C254.7 85.7017 283 81.0017 299.6 97.4017C317.6 115.202 314.8 150.202 312.6 178.302C311.9 187.102 311.2 195.402 311.3 202.202C311.4 211.102 315.5 221.702 319.9 233.002C327.8 253.402 336 274.502 322.4 289.202C304.2 309.002 266.4 312.002 234.3 312.002ZM119.1 75.6017C109.7 75.6017 101.3 77.9017 94.9999 83.9017C76.2999 102.002 83.4999 139.702 89.2999 170.102C91.5999 182.202 93.7998 193.602 94.0998 202.302C94.9998 230.302 106.7 257.002 127.1 277.602C147.7 298.402 174.4 310.102 202.2 310.402C205.6 310.402 209.2 310.502 213.1 310.602C247.5 311.402 299.5 312.502 321.7 288.602C334.9 274.402 326.8 253.502 319 233.402C314.6 222.002 310.4 211.302 310.3 202.202C310.2 195.302 310.9 187.002 311.6 178.202C313.8 150.302 316.6 115.602 298.9 98.1017C282.7 82.1017 254.6 86.7017 229.9 90.8017C219.7 92.5017 210.1 94.1017 202.2 94.1017C192.8 94.1017 180.1 90.1017 166.6 85.8017C150.8 81.0017 133.7 75.6017 119.1 75.6017Z" fill="white"/>
<path d="M222.8 295.802C219.4 295.802 216.1 295.802 212.9 295.802C209.7 295.802 206.6 295.802 203.9 295.802C203.8 295.802 203.8 295.802 203.7 295.802C182 295.802 158.9 284.902 140.3 266.002C122.3 247.602 111.1 223.802 110.3 202.302C110.1 196.902 109.4 190.302 108.7 183.302C105.8 155.902 102.3 121.902 120.2 105.302C134.9 91.7016 157.8 97.9016 178 103.502C187.6 106.102 196.7 108.602 204 108.702C210.5 108.802 218.4 107.802 226.8 106.702C249.1 103.902 274.3 100.602 289.3 115.502C304.5 130.602 301.5 158.402 299.1 180.802C298.3 188.702 297.5 196.202 297.6 202.202C297.8 209.302 300.9 217.602 304.3 226.502C310.5 242.702 317.5 261.002 305.6 274.902C289 294.002 251.6 295.802 222.8 295.802ZM205.2 294.702C207.6 294.702 210.2 294.702 212.9 294.702C242.2 294.902 286.6 295.302 304.7 274.102C316.2 260.702 309.6 243.402 303.2 226.702C299.8 217.802 296.6 209.402 296.4 202.102C296.3 196.102 297.1 188.602 297.9 180.602C300.3 158.402 303.2 130.802 288.4 116.102C273.7 101.502 248.7 104.702 226.7 107.502C218.3 108.602 210.4 109.602 203.8 109.502C196.4 109.402 187.2 106.902 177.6 104.202C157.7 98.8016 135.1 92.6016 120.8 105.802C103.3 122.002 106.8 155.802 109.6 183.002C110.3 190.002 111 196.602 111.2 202.102C112 223.402 123.1 246.902 140.9 265.202C159.3 284.002 182.1 294.702 203.6 294.702C203.7 294.702 203.7 294.702 203.8 294.702C204.3 294.702 204.8 294.702 205.2 294.702Z" fill="white"/>
<path d="M214.9 278.502C197.1 278.502 177.9 269.202 162.1 252.902C147 237.202 137.6 217.602 137.1 200.402C137 198.402 136.9 196.102 136.8 193.802C135.9 172.702 134.5 140.902 150.8 125.902C163.3 114.402 181.7 117.502 197.9 120.202C204.1 121.202 210 122.202 215.2 122.302C219.5 122.402 224.6 122.102 230.1 121.702C248.4 120.502 271.2 119.102 284 132.202C296.6 145.202 295.1 167.502 293.9 185.402C293.5 190.902 293.2 196.002 293.3 200.302C293.4 205.402 295 211.302 296.6 217.602C300.2 231.602 304.4 247.402 294 259.202C277.5 278.002 239.5 278.202 216.7 278.302H215.2C215.1 278.502 215 278.502 214.9 278.502ZM175.5 118.702C166.6 118.702 158.2 120.602 151.6 126.702C135.6 141.402 137 172.902 137.9 193.802C138 196.202 138.1 198.402 138.2 200.502C138.7 217.502 148 236.802 163 252.302C178.6 268.502 197.7 277.702 215.3 277.602H216.8C239.4 277.502 277.1 277.302 293.3 258.802C303.3 247.402 299.3 231.802 295.7 218.102C294 211.702 292.5 205.702 292.3 200.502C292.2 196.202 292.5 191.002 292.9 185.502C294.1 167.802 295.6 145.802 283.2 133.102C270.8 120.302 248.2 121.702 230.1 122.902C224.7 123.202 219.5 123.602 215.2 123.502C210 123.402 204.1 122.402 197.8 121.302C190.6 120.002 182.9 118.702 175.5 118.702Z" fill="white"/>
<path d="M235 260.302C234.6 260.302 234.1 260.302 233.7 260.302C218.6 260.202 202.9 253.002 190.6 240.702C178.4 228.402 171.3 212.802 171.1 197.802C170.9 178.502 171.8 156.802 184.8 144.102C195.5 133.702 211.4 134.402 225.4 135.002C228.3 135.102 231 135.202 233.6 135.302C254.8 135.402 270.1 140.602 280.5 151.102C290.7 161.402 295.8 176.702 296.2 197.902C296.3 200.902 296.5 204.002 296.8 207.402C297.8 219.802 298.9 233.902 289.4 244.002C275.9 258.002 250.1 260.302 235 260.302ZM233.8 259.302C248.5 259.402 275.1 257.502 288.8 243.102C298 233.402 296.9 219.502 296 207.302C295.7 204.002 295.5 200.802 295.4 197.802C294.7 156.102 275.1 136.502 233.8 136.202C231.2 136.202 228.4 136.102 225.5 135.902C211.7 135.302 196 134.702 185.6 144.702C172.8 157.102 172 178.602 172.2 197.702C172.4 212.402 179.4 227.802 191.4 239.902C203.5 252.102 218.9 259.202 233.8 259.302Z" fill="white"/>
<path d="M255.1 241.602C243.1 241.602 231.5 236.702 222.5 227.802C213.5 218.802 208.3 206.702 208.3 194.602C208.3 179.502 212.4 167.702 220.5 159.602C228.6 151.502 240.3 147.502 255.4 147.502C284.2 147.602 302.3 165.602 302.4 194.502C302.5 208.602 298.3 220.502 290.1 228.702C281.9 237.002 269.9 241.502 255.3 241.502C255.3 241.602 255.2 241.602 255.1 241.602ZM255.1 148.502C240.4 148.502 229 152.502 221.2 160.302C213.3 168.202 209.3 179.702 209.3 194.602C209.3 206.502 214.4 218.402 223.2 227.102C232 235.902 243.4 240.702 255.3 240.602C269.6 240.502 281.3 236.202 289.4 228.002C297.3 220.002 301.5 208.402 301.4 194.502C301.2 166.202 283.6 148.502 255.4 148.402C255.3 148.502 255.2 148.502 255.1 148.502Z" fill="white"/>
<path d="M276 223.102H275.9C267.9 223.102 259.8 219.402 253.6 213.102C247.6 207.002 244.3 199.102 244.4 191.602C244.7 174.802 259.1 160.302 275.9 160.102C283.4 160.002 290.9 163.302 297.1 169.502C303.6 175.902 307.4 184.202 307.4 191.702C307.4 199.202 303.6 207.502 297.2 213.802C291.1 219.702 283.6 223.102 276 223.102ZM275.9 222.102H276C283.3 222.102 290.6 218.902 296.5 213.002C302.6 206.902 306.4 198.702 306.4 191.602C306.4 184.502 302.6 176.302 296.4 170.202C290.4 164.202 283.1 161.002 275.9 161.102C259.6 161.302 245.6 175.302 245.4 191.602C245.3 198.902 248.5 206.502 254.3 212.402C260.3 218.502 268.2 222.002 275.9 222.102Z" fill="white"/>
<path d="M291.1 205.302C286.7 205.302 282.7 203.702 279.7 200.602C276.7 197.602 275.1 193.402 275.1 189.202C275.2 181.702 282.1 173.202 291.1 173.202C294.6 173.202 298.7 175.202 302 178.502C305.2 181.802 307.1 185.802 307.1 189.302C307 197.002 298.8 205.302 291.1 205.302C291.2 205.302 291.2 205.302 291.1 205.302ZM291.3 174.302C282.8 174.302 276.4 182.302 276.2 189.302C276.1 193.302 277.7 197.102 280.5 200.002C283.3 202.802 287.1 204.302 291.2 204.402C298.4 204.402 306.1 196.602 306.2 189.402C306.2 186.202 304.4 182.402 301.4 179.302C298.4 176.102 294.6 174.302 291.3 174.302Z" fill="white"/>
</svg>
