<svg width="391" height="391" viewBox="0 0 391 391" fill="none" xmlns="http://www.w3.org/2000/svg">
<mask id="mask0_201_609" style="mask-type:luminance" maskUnits="userSpaceOnUse" x="0" y="0" width="391" height="391">
<path d="M98.9191 364.831C126.419 380.431 159.419 387.231 194.819 382.531C159.319 387.231 126.419 380.431 98.9191 364.831C93.6191 361.731 86.5191 357.531 81.7191 353.831C77.6191 350.731 72.1191 346.531 68.1191 343.131C64.9191 340.431 60.6191 336.631 57.7191 333.531C54.2191 329.931 49.6191 325.031 46.3191 321.231C43.4191 317.931 39.8191 313.231 37.3191 309.731C33.2191 304.131 27.0191 294.931 20.9191 282.831C9.61914 260.331 4.71914 239.731 2.61914 226.431C1.11914 217.031 0.119141 204.431 0.119141 194.931C0.219141 181.731 0.81914 177.231 2.91914 162.031C3.61914 156.931 5.21914 150.331 6.51914 145.431C7.71914 141.031 9.51914 135.131 11.0191 130.831C15.7191 117.531 20.5191 108.331 24.0191 101.731C26.4191 97.1311 30.1191 91.3311 32.9191 87.0311C35.3191 83.3311 38.9191 78.7311 41.5191 75.1311C44.7191 70.7311 49.6191 65.4311 53.3191 61.4311C56.2191 58.3311 60.2191 54.3311 63.4191 51.4311C67.9191 47.4311 74.0191 42.4311 78.8191 38.7311C86.0191 33.1311 93.3191 28.9311 101.019 24.4311C106.819 21.0311 114.919 17.2311 121.219 14.7311C125.319 13.1311 130.719 11.0311 134.919 9.73111C139.119 8.33111 144.919 6.73111 149.219 5.73111C153.319 4.73111 158.719 3.53111 162.819 2.93111C168.419 2.03111 170.319 1.73111 179.219 0.831114C179.419 0.831114 184.819 0.331112 192.519 0.231112C198.019 0.131112 202.919 0.331112 205.219 0.431112C208.019 0.531112 214.519 1.03111 218.819 1.63111C225.819 2.53111 227.419 2.83111 234.819 4.23111C240.419 5.33111 251.319 8.13111 258.119 10.6311C263.319 12.5311 272.119 15.6311 281.419 20.3311C291.519 25.4311 300.019 30.4311 306.519 35.1311C313.119 39.9311 320.619 45.3311 330.019 54.3311C340.319 64.2311 347.419 73.0311 350.719 77.4311C354.119 81.9311 360.419 90.3311 367.619 103.731C371.919 111.731 376.419 122.931 379.719 131.431C381.519 136.131 383.319 142.631 384.519 147.531C385.619 152.031 386.719 158.131 387.719 162.731C388.719 167.731 389.419 174.631 389.819 179.731C390.319 185.531 390.719 193.331 390.419 199.131C390.119 203.931 389.919 210.231 389.419 215.031C388.919 220.131 388.119 227.031 386.919 232.031C385.919 236.531 384.719 242.631 383.419 247.031C382.019 251.931 379.919 258.531 378.119 263.331C372.119 279.431 365.019 291.431 364.219 292.731C359.719 300.331 352.919 309.931 347.619 317.031C344.319 321.331 339.319 326.631 335.719 330.631C332.919 333.831 328.719 337.631 325.519 340.431C320.919 344.431 314.719 349.531 309.919 353.031C306.119 355.831 300.919 359.331 296.919 361.731C291.119 365.131 283.219 369.431 277.119 372.331C271.819 374.931 259.819 379.831 248.219 383.031C242.819 384.531 228.619 388.331 211.319 389.731C202.619 390.431 189.019 391.031 171.719 388.931C166.019 388.231 161.319 387.431 161.319 387.331C156.519 386.431 156.519 386.431 148.719 384.631C142.719 383.231 135.519 380.831 132.419 379.831C128.319 378.531 123.019 376.531 119.119 374.731C112.719 371.931 104.819 367.931 98.9191 364.831Z" fill="white"/>
</mask>
<g mask="url(#mask0_201_609)">
<path d="M216.519 389.231C209.419 389.231 202.019 387.131 194.719 383.031C149.819 389.031 107.119 376.631 74.5191 348.031C57.3191 332.931 43.8191 314.231 34.3191 292.431C24.5191 269.831 19.6191 245.031 19.6191 218.731V217.831L20.3191 218.231C67.6191 245.131 184.519 256.331 281.019 243.431L281.619 243.331V243.931C281.519 313.831 263.719 367.531 235.219 384.131C229.119 387.531 222.919 389.231 216.519 389.231ZM194.819 381.931L194.919 382.031C208.919 389.931 222.219 390.331 234.419 383.231C262.519 366.931 280.119 313.731 280.319 244.431C184.319 257.231 68.1191 246.031 20.3191 219.431C20.4191 245.331 25.3191 269.631 34.9191 291.931C44.3191 313.631 57.8191 332.231 74.9191 347.131C107.319 375.531 149.819 387.931 194.519 381.931H194.819Z" fill="white"/>
<path d="M195.619 384.731C158.919 384.731 123.419 379.031 106.219 369.231L106.719 368.331C130.519 381.831 189.519 387.531 238.119 381.031L238.219 382.031C224.519 383.831 209.919 384.731 195.619 384.731Z" fill="white"/>
<path d="M196.219 336.931C133.419 336.931 72.9189 327.131 43.4189 310.431L43.9189 309.531C84.7189 332.731 185.619 342.431 268.919 331.231L269.019 332.231C245.719 335.431 220.819 336.931 196.219 336.931Z" fill="white"/>
<path d="M169.519 388.331C158.219 388.331 147.419 385.031 137.519 378.431C105.619 357.131 86.6191 305.431 86.7191 240.131H87.7191C87.6191 305.031 106.419 356.431 138.019 377.631C154.919 388.931 174.419 390.431 194.519 382.131L194.919 383.031C186.319 386.531 177.819 388.331 169.519 388.331Z" fill="white"/>
<path d="M190.819 390.631C190.719 390.631 190.719 390.631 190.619 390.631C182.819 389.631 180.219 313.731 180.319 249.131H181.319C181.119 340.531 185.919 389.031 190.719 389.631C191.119 389.631 192.419 389.331 194.219 382.331L195.219 382.631C193.819 388.131 192.419 390.631 190.819 390.631Z" fill="white"/>
<path d="M216.519 389.231C209.319 389.231 201.919 387.131 194.519 382.931L193.219 382.231L194.719 382.031C215.819 379.231 236.019 372.431 254.819 362.531C270.919 337.131 280.419 294.831 280.519 243.931V243.531L280.919 243.431C315.919 238.731 344.319 231.331 363.319 222.331C367.419 205.931 369.719 188.831 369.719 171.631V170.731L370.419 171.131C385.319 179.531 392.119 189.031 390.319 198.431C388.619 207.231 379.419 215.631 364.119 222.931C348.819 283.131 307.919 335.531 255.419 363.331C249.419 372.631 242.619 379.731 235.019 384.131C229.119 387.531 222.919 389.231 216.519 389.231ZM196.319 382.731C209.819 389.931 222.619 390.131 234.519 383.231C241.619 379.131 248.019 372.631 253.719 364.231C235.719 373.531 216.419 379.931 196.319 382.731ZM281.419 244.331C281.319 294.231 272.119 335.931 256.419 361.531C307.719 333.831 347.719 282.431 362.919 223.431C343.919 232.331 315.919 239.731 281.419 244.331ZM370.719 172.431C370.619 189.231 368.419 205.731 364.519 221.731C379.019 214.631 387.819 206.631 389.419 198.231C391.119 189.431 384.619 180.531 370.719 172.431Z" fill="white"/>
<path d="M238.219 382.031L238.119 381.031C269.919 376.731 290.819 368.131 292.719 358.431C293.619 354.031 290.219 349.531 283.019 345.431L283.519 344.531C291.119 348.831 294.619 353.731 293.719 358.531C291.619 368.731 270.419 377.731 238.219 382.031Z" fill="white"/>
<path d="M269.119 332.331L269.019 331.331C323.519 324.031 359.419 309.031 362.619 292.331C364.119 284.631 358.319 276.831 345.819 269.731L346.319 268.831C359.219 276.131 365.119 284.331 363.519 292.431C360.319 309.631 324.119 324.931 269.119 332.331Z" fill="white"/>
<path d="M220.719 385.431C212.119 385.431 203.419 384.631 194.719 383.031L194.919 382.031C234.419 389.331 272.419 379.931 302.119 355.331C337.019 326.331 357.119 279.031 357.219 225.431H358.219C358.119 279.331 337.919 326.931 302.719 356.131C279.419 375.331 250.919 385.431 220.719 385.431Z" fill="white"/>
<path d="M199.319 383.031C197.819 383.031 196.219 383.031 194.719 382.931V381.931C247.919 383.131 297.619 363.831 334.619 327.731C369.619 293.531 389.019 247.931 389.119 199.331H390.119C390.019 248.131 370.619 294.031 335.319 328.431C299.219 363.731 251.119 383.031 199.319 383.031Z" fill="white"/>
<path d="M194.619 383.031L194.519 382.931C147.019 355.931 108.519 249.831 108.719 146.331V145.931L109.119 145.831C205.719 132.831 323.019 144.131 370.419 171.131L370.719 171.231V171.531C370.519 275.031 291.619 369.931 194.819 382.931L194.619 383.031ZM109.719 146.831C109.619 249.731 147.719 355.131 194.819 382.031C291.019 369.031 369.319 274.831 369.719 171.931C322.319 145.131 205.919 133.931 109.719 146.831Z" fill="white"/>
<path d="M282.919 345.431C259.119 331.931 200.119 326.231 151.519 332.731L151.419 331.731C200.219 325.131 259.519 330.931 283.419 344.531L282.919 345.431Z" fill="white"/>
<path d="M345.919 269.831C305.119 246.631 204.219 236.931 120.919 248.131L120.819 247.131C204.319 235.931 305.519 245.731 346.519 269.031L345.919 269.831Z" fill="white"/>
<path d="M194.919 382.931L194.519 382.031C253.819 357.331 302.219 253.331 302.419 150.231H303.419C303.319 253.631 254.619 358.131 194.919 382.931Z" fill="white"/>
<path d="M195.219 382.631L194.219 382.331C202.019 352.631 208.619 244.331 208.819 141.131H209.819C209.619 244.431 203.119 352.831 195.219 382.631Z" fill="white"/>
<path d="M172.719 384.431C135.919 384.431 101.719 371.831 74.419 347.931C57.219 332.831 43.719 314.131 34.219 292.331C24.419 269.831 19.519 245.131 19.519 218.931C4.81901 210.531 -1.98099 201.131 -0.18099 191.831C3.61901 172.031 45.519 154.431 109.219 145.831L109.819 145.731V146.331C109.619 249.431 147.919 355.231 195.119 382.031L196.419 382.731L194.919 382.931C187.419 383.931 180.019 384.431 172.719 384.431ZM108.719 146.931C45.819 155.431 4.51901 172.731 0.81901 192.031C-0.88099 200.931 5.81901 210.031 20.219 218.231L20.519 218.331V218.631C20.519 244.831 25.419 269.531 35.119 291.931C44.519 313.631 58.019 332.231 75.119 347.131C107.219 375.231 149.119 387.631 193.319 382.031C146.419 354.131 108.719 249.331 108.719 146.931Z" fill="white"/>
<path d="M106.219 369.231C98.6188 364.931 95.1188 360.031 96.0188 355.231C98.0188 345.131 119.219 336.131 151.419 331.831L151.519 332.831C119.719 337.131 98.8188 345.731 96.9188 355.431C96.0188 359.831 99.4188 364.331 106.619 368.431L106.219 369.231Z" fill="white"/>
<path d="M43.5191 310.431C30.6191 303.131 24.7191 294.931 26.3191 286.831C29.6191 269.731 65.8191 254.431 120.819 247.031L120.919 248.031C66.4191 255.331 30.5191 270.331 27.3191 287.031C25.8191 294.731 31.6191 302.531 44.1191 309.631L43.5191 310.431Z" fill="white"/>
<path d="M194.619 382.931C104.819 366.231 31.9191 268.431 32.1191 164.931H33.1191C32.9191 268.031 105.519 365.431 194.919 382.031L194.619 382.931Z" fill="white"/>
<path d="M194.719 383.031C87.2189 380.631 -0.181103 294.431 0.0188973 190.931H1.0189C0.818897 293.931 87.7189 379.731 194.719 382.031V383.031Z" fill="white"/>
<path d="M196.619 249.831C123.919 249.831 53.8189 238.531 19.7189 219.131L19.4189 219.031V218.731C19.7189 115.131 98.6189 20.3311 195.419 7.33105H195.619L195.719 7.43105C243.219 34.4311 281.719 140.531 281.519 244.031V244.431L281.119 244.531C253.819 248.031 225.019 249.831 196.619 249.831ZM20.5189 218.431C67.9189 245.131 184.319 256.331 280.519 243.531C280.619 140.631 242.519 35.2311 195.419 8.33105C99.2189 21.3311 20.8189 115.531 20.5189 218.431Z" fill="white"/>
<path d="M196.619 147.831C133.819 147.831 73.3188 138.031 43.8188 121.331L44.3188 120.431C85.1188 143.631 186.019 153.331 269.319 142.131L269.419 143.131C246.019 146.331 221.119 147.831 196.619 147.831Z" fill="white"/>
<path d="M196.219 61.2311C159.519 61.2311 124.019 55.5311 106.819 45.7311L107.319 44.8311C131.119 58.3311 190.119 64.0311 238.719 57.5311L238.819 58.5311C225.119 60.3311 210.519 61.2311 196.219 61.2311Z" fill="white"/>
<path d="M87.7188 240.131H86.7188C86.9188 136.631 135.619 32.1311 195.219 7.33105L195.619 8.23105C136.319 32.9311 87.9188 136.931 87.7188 240.131Z" fill="white"/>
<path d="M181.319 249.131H180.319C180.519 145.831 187.019 37.4311 194.919 7.6311L195.919 7.9311C188.119 37.6311 181.519 145.831 181.319 249.131Z" fill="white"/>
<path d="M280.419 244.531V243.931C280.619 140.831 242.319 35.0312 195.119 8.23119L193.819 7.53119L195.319 7.33119C240.319 1.23119 283.119 13.7312 315.719 42.3312C332.919 57.4312 346.419 76.1312 355.919 97.9312C365.719 120.431 370.619 145.131 370.619 171.331C385.319 179.731 392.119 189.131 390.319 198.431C386.519 218.231 344.619 235.831 280.919 244.431L280.419 244.531ZM196.919 8.13119C243.719 36.2312 281.419 141.031 281.419 243.431C344.319 234.931 385.619 217.631 389.319 198.331C391.019 189.431 384.319 180.331 369.919 172.131L369.619 172.031V171.731C369.619 145.531 364.719 120.831 355.019 98.4312C345.619 76.7312 332.119 58.1312 315.019 43.2312C283.019 14.9312 241.119 2.53119 196.919 8.13119Z" fill="white"/>
<path d="M269.519 143.231L269.419 142.231C323.919 134.931 359.819 119.931 363.019 103.231C364.519 95.5312 358.719 87.7312 346.219 80.6312L346.719 79.7312C359.619 87.0312 365.519 95.2312 363.919 103.331C360.619 120.531 324.419 135.831 269.519 143.231Z" fill="white"/>
<path d="M238.819 58.4312L238.719 57.4312C270.519 53.1312 291.419 44.5311 293.319 34.8311C294.219 30.4311 290.819 25.9311 283.619 21.8311L284.119 20.9312C291.719 25.2312 295.219 30.1312 294.319 34.9312C292.219 45.1312 271.019 54.1312 238.819 58.4312Z" fill="white"/>
<path d="M358.119 225.331H357.119C357.319 122.231 284.719 24.8312 195.319 8.2312L195.519 7.2312C285.419 24.0312 358.319 121.831 358.119 225.331Z" fill="white"/>
<path d="M390.119 199.431H389.119C389.319 96.4313 302.419 10.6313 195.419 8.3313V7.3313C303.019 9.6313 390.319 95.8313 390.119 199.431Z" fill="white"/>
<path d="M370.719 172.431L370.019 172.031C322.719 145.131 205.819 133.931 109.319 146.831L108.719 146.931V146.331C108.819 76.4311 126.619 22.7311 155.119 6.13111C167.519 -1.06889 181.419 -0.668894 195.519 7.23111C240.419 1.23111 283.119 13.6311 315.719 42.2311C332.919 57.3311 346.419 76.0311 355.919 97.8311C365.719 120.431 370.719 145.231 370.619 171.531L370.719 172.431ZM193.519 140.431C265.619 140.431 335.319 151.531 369.719 170.731C369.619 144.831 364.719 120.531 355.119 98.2311C345.719 76.5311 332.219 57.9311 315.119 43.0311C282.719 14.6311 240.219 2.23111 195.519 8.23111H195.319L195.219 8.13111C181.219 0.231107 168.019 -0.168893 155.719 6.93111C127.619 23.2311 110.019 76.4311 109.819 145.731C136.719 142.131 165.319 140.431 193.519 140.431Z" fill="white"/>
<path d="M346.219 80.6311C305.419 57.4311 204.519 47.7311 121.219 58.9311L121.119 57.9311C204.619 46.7311 305.819 56.5311 346.819 79.8311L346.219 80.6311Z" fill="white"/>
<path d="M283.519 21.9312C259.719 8.33121 200.819 2.7312 152.119 9.2312L152.019 8.2312C200.819 1.6312 260.119 7.43121 284.019 21.0312L283.519 21.9312Z" fill="white"/>
<path d="M303.419 150.131H302.419C302.519 85.2312 283.719 33.8312 252.119 12.6312C235.219 1.33117 215.719 -0.168829 195.619 8.13117L195.219 7.23117C215.619 -1.26883 235.419 0.331168 252.619 11.8312C284.619 33.2312 303.619 84.9312 303.419 150.131Z" fill="white"/>
<path d="M209.819 141.131H208.819C209.019 49.7311 204.219 1.23112 199.419 0.631122C199.019 0.631122 197.719 0.931122 195.919 7.93112L194.919 7.63112C196.419 1.83112 197.919 -0.568878 199.519 -0.368878C207.319 0.631122 209.919 76.4311 209.819 141.131Z" fill="white"/>
<path d="M20.5189 219.531L19.8189 219.131C4.91887 210.731 -1.88112 201.231 -0.0811239 191.831C1.61888 183.031 10.8189 174.631 26.1189 167.331C41.3189 107.131 82.2189 54.7312 134.719 26.9312C140.719 17.6312 147.519 10.5312 155.119 6.13117C167.519 -1.06883 181.519 -0.668829 195.619 7.33117L196.919 8.03117L195.419 8.23117C174.319 11.0312 154.119 17.8312 135.319 27.7312C119.219 53.1312 109.719 95.4312 109.619 146.331V146.731L109.219 146.831C74.2189 151.531 45.8189 158.931 26.8189 167.931C22.7189 184.331 20.4189 201.431 20.4189 218.631L20.5189 219.531ZM25.7189 168.531C11.2189 175.631 2.41888 183.631 0.818878 192.031C-0.881122 200.831 5.61888 209.731 19.5189 217.831C19.6189 201.031 21.7189 184.531 25.7189 168.531ZM133.719 28.6312C82.4189 56.3312 42.4189 107.731 27.2189 166.731C46.2189 157.831 74.3189 150.531 108.719 145.831C108.919 95.9312 118.019 54.3312 133.719 28.6312ZM173.719 1.93117C167.519 1.93117 161.419 3.63117 155.619 7.03117C148.519 11.1312 142.119 17.6312 136.419 26.0312C154.419 16.7312 173.719 10.3312 193.819 7.43117C187.019 3.83117 180.219 1.93117 173.719 1.93117Z" fill="white"/>
<path d="M43.8189 121.331C30.9189 114.031 25.0189 105.831 26.6189 97.7312C29.9189 80.6312 66.1189 65.3312 121.119 57.9312L121.219 58.9312C66.7189 66.2312 30.8189 81.2312 27.6189 97.9312C26.1189 105.631 31.9189 113.431 44.4189 120.531L43.8189 121.331Z" fill="white"/>
<path d="M106.819 45.6312C99.2189 41.3312 95.7189 36.4312 96.6189 31.6312C98.6189 21.5312 119.819 12.5312 152.019 8.2312L152.119 9.2312C120.319 13.5312 99.4189 22.1312 97.5189 31.8312C96.6189 36.2312 100.019 40.7312 107.219 44.8312L106.819 45.6312Z" fill="white"/>
<path d="M33.1187 164.931H32.1187C32.2187 111.031 52.4187 63.4313 87.6187 34.2313C117.519 9.43127 155.819 -0.0687323 195.619 7.33127L195.419 8.33127C155.919 1.03127 117.919 10.4313 88.2187 35.0313C53.3187 63.9313 33.2187 111.331 33.1187 164.931Z" fill="white"/>
<path d="M1.01904 190.831H0.019043C0.119043 142.031 19.519 96.1311 54.819 61.7311C92.019 25.4311 141.919 6.13108 195.419 7.23108V8.23108C142.219 7.03108 92.519 26.3311 55.519 62.4311C20.519 96.6311 1.11904 142.231 1.01904 190.831Z" fill="white"/>
</g>
<mask id="mask1_201_609" style="mask-type:luminance" maskUnits="userSpaceOnUse" x="0" y="0" width="391" height="391">
<path d="M98.9191 364.831C126.419 380.431 159.419 387.231 194.819 382.531C159.319 387.231 126.419 380.431 98.9191 364.831C93.6191 361.731 86.5191 357.531 81.7191 353.831C77.6191 350.731 72.1191 346.531 68.1191 343.131C64.9191 340.431 60.6191 336.631 57.7191 333.531C54.2191 329.931 49.6191 325.031 46.3191 321.231C43.4191 317.931 39.8191 313.231 37.3191 309.731C33.2191 304.131 27.0191 294.931 20.9191 282.831C9.61914 260.331 4.71914 239.731 2.61914 226.431C1.11914 217.031 0.119141 204.431 0.119141 194.931C0.219141 181.731 0.81914 177.231 2.91914 162.031C3.61914 156.931 5.21914 150.331 6.51914 145.431C7.71914 141.031 9.51914 135.131 11.0191 130.831C15.7191 117.531 20.5191 108.331 24.0191 101.731C26.4191 97.1311 30.1191 91.3311 32.9191 87.0311C35.3191 83.3311 38.9191 78.7311 41.5191 75.1311C44.7191 70.7311 49.6191 65.4311 53.3191 61.4311C56.2191 58.3311 60.2191 54.3311 63.4191 51.4311C67.9191 47.4311 74.0191 42.4311 78.8191 38.7311C86.0191 33.1311 93.3191 28.9311 101.019 24.4311C106.819 21.0311 114.919 17.2311 121.219 14.7311C125.319 13.1311 130.719 11.0311 134.919 9.73111C139.119 8.33111 144.919 6.73111 149.219 5.73111C153.319 4.73111 158.719 3.53111 162.819 2.93111C168.419 2.03111 170.319 1.73111 179.219 0.831114C179.419 0.831114 184.819 0.331112 192.519 0.231112C198.019 0.131112 202.919 0.331112 205.219 0.431112C208.019 0.531112 214.519 1.03111 218.819 1.63111C225.819 2.53111 227.419 2.83111 234.819 4.23111C240.419 5.33111 251.319 8.13111 258.119 10.6311C263.319 12.5311 272.119 15.6311 281.419 20.3311C291.519 25.4311 300.019 30.4311 306.519 35.1311C313.119 39.9311 320.619 45.3311 330.019 54.3311C340.319 64.2311 347.419 73.0311 350.719 77.4311C354.119 81.9311 360.419 90.3311 367.619 103.731C371.919 111.731 376.419 122.931 379.719 131.431C381.519 136.131 383.319 142.631 384.519 147.531C385.619 152.031 386.719 158.131 387.719 162.731C388.719 167.731 389.419 174.631 389.819 179.731C390.319 185.531 390.719 193.331 390.419 199.131C390.119 203.931 389.919 210.231 389.419 215.031C388.919 220.131 388.119 227.031 386.919 232.031C385.919 236.531 384.719 242.631 383.419 247.031C382.019 251.931 379.919 258.531 378.119 263.331C372.119 279.431 365.019 291.431 364.219 292.731C359.719 300.331 352.919 309.931 347.619 317.031C344.319 321.331 339.319 326.631 335.719 330.631C332.919 333.831 328.719 337.631 325.519 340.431C320.919 344.431 314.719 349.531 309.919 353.031C306.119 355.831 300.919 359.331 296.919 361.731C291.119 365.131 283.219 369.431 277.119 372.331C271.819 374.931 259.819 379.831 248.219 383.031C242.819 384.531 228.619 388.331 211.319 389.731C202.619 390.431 189.019 391.031 171.719 388.931C166.019 388.231 161.319 387.431 161.319 387.331C156.519 386.431 156.519 386.431 148.719 384.631C142.719 383.231 135.519 380.831 132.419 379.831C128.319 378.531 123.019 376.531 119.119 374.731C112.719 371.931 104.819 367.931 98.9191 364.831Z" fill="white"/>
</mask>
<g mask="url(#mask1_201_609)">
<path d="M195.019 390.731C188.219 390.731 180.319 390.331 171.419 389.331C165.719 388.631 161.019 387.731 160.919 387.731C156.119 386.831 156.119 386.831 148.319 385.031C142.319 383.631 135.019 381.231 131.919 380.231C127.419 378.731 122.119 376.731 118.519 375.131C115.819 373.931 112.919 372.531 110.019 371.131C106.119 369.331 102.219 367.431 98.5189 365.231L98.3189 365.131C93.1189 362.031 86.1189 357.831 81.2189 354.231C77.4189 351.331 71.6189 346.931 67.6189 343.531C66.1189 342.231 60.9189 337.731 57.2189 333.931L56.5189 333.231C53.1189 329.631 48.8189 325.231 45.8189 321.631C43.1189 318.431 39.5189 313.931 36.7189 310.131C30.5189 301.631 25.0189 292.531 20.2189 283.131C8.91894 260.631 4.01895 239.931 1.91895 226.531C0.418945 216.731 -0.581055 204.031 -0.581055 194.931C-0.481055 181.731 0.118945 177.131 2.21894 161.931C2.91894 156.731 4.61895 149.931 5.81895 145.231C6.91895 141.031 8.71894 135.231 10.3189 130.531C15.0189 117.131 19.8189 108.031 23.3189 101.331C26.0189 96.2311 30.1189 89.9311 32.3189 86.6311C34.0189 84.0311 36.2189 81.1311 38.3189 78.2311C39.2189 77.0311 40.1189 75.8311 40.9189 74.7311C44.1189 70.3311 48.9189 65.1311 52.7189 61.0311C56.0189 57.5311 60.0189 53.6311 62.8189 51.0311C67.0189 47.3311 73.019 42.3311 78.2189 38.3311C85.519 32.7311 92.7189 28.4311 100.519 23.9311C106.219 20.6311 114.419 16.7311 120.719 14.2311C126.619 11.9311 131.119 10.2311 134.419 9.23111C138.619 7.83111 144.319 6.23111 148.719 5.23111C153.319 4.13111 158.619 3.03111 162.419 2.43111C168.019 1.53111 169.919 1.23111 178.919 0.331114C179.119 0.331114 184.519 -0.168888 192.219 -0.268888C197.719 -0.368888 202.619 -0.168888 204.919 -0.0688876C207.719 0.0311124 214.219 0.531113 218.619 1.13111C225.619 2.03111 227.219 2.33111 234.619 3.73111C240.219 4.83111 251.219 7.73111 258.019 10.1311C263.219 12.0311 272.019 15.1311 281.419 19.8311C291.619 25.0311 300.019 29.9311 306.519 34.6311C313.119 39.4311 320.619 44.8311 330.019 53.8311C340.319 63.7311 347.419 72.6311 350.719 77.0311C354.119 81.5311 360.419 89.9311 367.619 103.431C371.919 111.531 376.619 122.931 379.719 131.131C381.119 134.831 382.719 140.131 384.519 147.231C385.319 150.331 386.019 154.131 386.719 157.731C387.019 159.331 387.319 160.931 387.619 162.431C388.419 166.331 389.119 171.931 389.719 179.431C390.119 185.031 390.619 192.931 390.319 198.931C390.219 200.231 390.219 201.631 390.119 203.031C389.919 206.931 389.719 211.331 389.419 214.831C388.919 219.631 388.119 226.731 386.919 231.931C386.619 233.031 386.419 234.331 386.119 235.631C385.319 239.431 384.319 243.631 383.419 247.031C381.919 252.231 379.819 258.831 378.119 263.331C372.119 279.531 365.019 291.531 364.219 292.831C359.319 301.031 352.219 311.031 347.619 317.131C345.119 320.431 341.619 324.231 338.519 327.531C337.519 328.631 336.519 329.731 335.619 330.731C332.619 334.031 328.419 338.031 325.419 340.631C323.319 342.431 316.019 348.731 309.719 353.331C307.919 354.631 301.819 359.031 296.619 362.031C290.819 365.431 282.919 369.731 276.719 372.631C271.419 375.231 259.319 380.131 247.719 383.331C242.319 384.831 228.019 388.731 210.719 390.031C206.819 390.431 201.419 390.731 195.019 390.731ZM129.319 378.231C130.319 378.631 131.319 378.931 132.319 379.231C135.419 380.231 142.619 382.631 148.619 384.031C156.319 385.831 156.319 385.831 161.119 386.631C161.119 386.631 165.919 387.531 171.519 388.231C188.819 390.331 202.319 389.631 211.019 389.031C228.219 387.731 242.519 383.831 247.819 382.331C259.419 379.131 271.419 374.231 276.619 371.731C282.719 368.731 290.619 364.531 296.419 361.131C301.519 358.131 307.619 353.731 309.419 352.431C315.619 347.931 322.919 341.631 325.019 339.831C328.019 337.231 332.219 333.331 335.119 330.031C336.019 329.031 337.019 327.931 338.019 326.831C341.119 323.531 344.619 319.731 347.019 316.431C351.619 310.331 358.719 300.331 363.619 292.231C364.419 290.931 371.419 279.031 377.419 262.931C379.119 258.431 381.219 251.831 382.619 246.731C383.519 243.431 384.519 239.131 385.319 235.431C385.619 234.131 385.919 232.931 386.119 231.731C387.319 226.531 388.119 219.531 388.619 214.731C389.019 211.231 389.219 206.931 389.319 203.031C389.419 201.631 389.419 200.231 389.519 198.931C389.819 193.031 389.419 185.131 388.919 179.531C388.319 172.031 387.619 166.531 386.819 162.631C386.519 161.231 386.219 159.631 385.919 157.931C385.219 154.331 384.519 150.531 383.719 147.531C381.919 140.431 380.319 135.131 378.919 131.531C375.819 123.431 371.219 112.031 366.919 103.931C359.719 90.5311 353.419 82.1311 350.119 77.6311C346.819 73.2311 339.719 64.4311 329.519 54.5311C320.119 45.5311 312.719 40.1311 306.119 35.4311C299.619 30.7311 291.219 25.8311 281.119 20.6311C271.819 15.9311 263.119 12.8311 257.919 10.9311C251.119 8.53112 240.219 5.63111 234.719 4.63111C227.319 3.23111 225.719 2.93111 218.719 2.03111C214.319 1.43111 207.919 0.931114 205.119 0.831114C202.819 0.731114 197.919 0.531113 192.419 0.631113C184.819 0.731113 179.419 1.23111 179.219 1.23111C170.319 2.03111 168.419 2.33111 162.819 3.33111C159.119 3.93111 153.719 5.03111 149.219 6.13111C144.819 7.23111 139.119 8.83111 135.019 10.1311C131.719 11.2311 127.319 12.8311 121.319 15.1311C115.019 17.6311 106.919 21.4311 101.219 24.7311C93.519 29.2311 86.2189 33.4311 79.0189 39.0311C73.9189 43.0311 67.8189 48.0311 63.7189 51.7311C60.8189 54.2311 56.9189 58.1311 53.6189 61.6311C49.8189 65.7311 45.0189 70.9311 41.9189 75.2311C41.1189 76.3311 40.2189 77.5311 39.3189 78.7311C37.2189 81.6311 35.0189 84.5311 33.3189 87.1311C31.1189 90.4311 27.1189 96.7311 24.4189 101.831C20.9189 108.431 16.1189 117.531 11.4189 130.931C9.81895 135.531 8.01895 141.431 6.91895 145.531C5.71895 150.131 4.01895 156.931 3.31895 162.131C1.21895 177.231 0.518948 181.831 0.518948 194.931C0.518948 203.931 1.41895 216.631 3.01895 226.331C5.11895 239.631 9.91894 260.231 21.2189 282.631C25.9189 291.931 31.4189 300.931 37.6189 309.431C40.3189 313.231 44.0189 317.831 46.6189 320.931C49.7189 324.531 53.9189 328.931 57.3189 332.531L58.0189 333.231C61.7189 337.031 66.9189 341.531 68.4189 342.831C72.4189 346.231 78.2189 350.631 82.0189 353.431C86.8189 357.031 93.8189 361.231 99.0189 364.331L99.2189 364.431C102.419 366.131 106.519 368.231 110.619 370.231C132.119 380.031 155.719 384.431 180.319 383.331C185.119 383.131 189.919 382.631 194.819 382.031L194.919 383.031C172.219 386.031 150.019 384.431 129.319 378.231Z" fill="white"/>
</g>
<mask id="mask2_201_609" style="mask-type:luminance" maskUnits="userSpaceOnUse" x="0" y="0" width="391" height="391">
<path d="M221.119 388.431C207.619 390.231 196.419 390.331 189.419 390.131C173.119 389.531 163.119 387.631 155.719 386.231C152.219 385.531 145.619 383.931 141.819 382.831C136.919 381.431 130.419 379.231 125.619 377.431C122.119 376.131 117.419 374.131 114.019 372.531C109.419 370.331 103.419 367.231 98.9192 364.831C51.3192 337.731 19.9192 284.331 20.0192 218.731C20.2192 115.231 98.8192 20.8311 195.519 7.83108C98.8192 20.8311 20.2192 115.231 20.0192 218.731C19.9192 284.331 51.3192 337.831 98.9192 364.831C98.9192 364.831 91.3192 361.031 77.0191 350.331C71.8192 346.431 65.2192 340.731 60.5192 336.331C56.5192 332.531 51.3192 327.331 47.9192 323.131C42.3192 316.331 35.2192 306.931 30.3192 299.631C27.4192 295.231 24.0192 289.131 21.6192 284.431C19.3192 279.931 16.3192 273.831 14.5192 269.131C11.3192 260.531 7.61916 248.931 5.21916 240.031C3.91916 235.131 2.71916 228.331 2.01916 223.231C0.81916 214.731 0.31916 203.331 0.0191603 194.831C-0.0808397 190.031 0.219157 183.631 0.719157 178.931C1.21916 173.831 1.81916 166.931 2.91916 161.931C3.91916 157.431 5.01916 151.331 6.11916 146.831C7.41916 141.931 9.21916 135.431 11.0192 130.731C14.1192 122.231 19.1192 111.231 23.1192 103.131C25.3192 98.6311 28.9192 93.0311 31.6192 88.8311C34.4192 84.5311 38.3192 78.9311 41.5192 74.9311C47.0192 68.3311 54.6192 59.7311 60.7192 53.8311C62.3192 52.2311 71.2192 43.7311 84.3192 34.6311C88.7192 31.5311 94.8192 27.8311 99.5191 25.1311C102.419 23.4311 106.519 21.3311 109.619 19.8311C118.819 15.2311 138.119 6.93108 163.419 2.63108C176.919 0.331082 187.419 0.131084 192.519 0.0310836C201.419 -0.168916 212.419 0.631081 218.819 1.43108C225.119 2.23108 227.519 2.63108 234.719 4.03108C237.819 4.63108 243.219 5.93108 248.019 7.23108C255.219 9.23108 259.019 10.6311 264.819 12.8311C268.319 14.1311 272.919 16.2311 276.419 17.7311C281.119 19.7311 287.119 23.0311 291.519 25.4311C295.019 27.3311 299.419 30.1311 302.719 32.3311C309.519 36.7311 317.919 43.4311 324.119 48.6311C328.519 52.3311 334.119 57.6311 337.819 61.9311C341.319 65.9311 346.119 71.3311 349.419 75.5311C352.119 79.0311 355.619 83.8311 358.019 87.5311C360.819 91.8311 364.319 97.7311 366.819 102.231C369.019 106.131 371.619 111.531 373.519 115.731C375.619 120.331 378.019 126.631 379.719 131.431C381.219 135.731 382.819 141.731 384.119 146.131C385.619 151.031 386.819 157.731 387.619 162.731C388.419 167.331 389.019 173.631 389.619 178.331C390.319 183.531 390.419 190.431 390.319 195.631C390.119 205.831 389.919 214.531 387.119 230.531C386.319 235.131 384.919 241.131 383.719 245.631C382.419 250.531 380.519 256.931 378.719 261.631C377.019 265.831 374.919 271.531 373.019 275.631C370.919 280.231 368.019 286.331 365.419 290.631C360.819 298.131 354.319 308.031 349.119 315.131C346.119 319.231 341.619 324.131 338.219 327.931C335.419 331.131 331.319 335.131 328.219 338.031C324.419 341.531 319.219 346.031 315.219 349.131C303.819 358.031 294.119 363.631 289.219 366.331C286.319 367.931 282.319 370.031 279.219 371.431C276.219 372.731 272.219 374.631 269.219 375.831C266.519 376.931 262.819 378.431 259.919 379.331C257.819 380.031 254.919 381.031 252.819 381.631C248.619 382.831 243.019 384.431 238.719 385.431C235.919 385.931 228.619 387.431 221.119 388.431Z" fill="white"/>
</mask>
<g mask="url(#mask2_201_609)">
<path d="M216.519 389.231C209.419 389.231 202.019 387.131 194.719 383.031C149.819 389.031 107.119 376.631 74.5191 348.031C57.3191 332.931 43.8191 314.231 34.3191 292.431C24.5191 269.831 19.6191 245.031 19.6191 218.731V217.831L20.3191 218.231C67.6191 245.131 184.519 256.331 281.019 243.431L281.619 243.331V243.931C281.519 313.831 263.719 367.531 235.219 384.131C229.119 387.531 222.919 389.231 216.519 389.231ZM194.819 381.931L194.919 382.031C208.919 389.931 222.219 390.331 234.419 383.231C262.519 366.931 280.119 313.731 280.319 244.431C184.319 257.231 68.1191 246.031 20.3191 219.431C20.4191 245.331 25.3191 269.631 34.9191 291.931C44.3191 313.631 57.8191 332.231 74.9191 347.131C107.319 375.531 149.819 387.931 194.519 381.931H194.819Z" fill="white"/>
<path d="M195.619 384.731C158.919 384.731 123.419 379.031 106.219 369.231L106.719 368.331C130.519 381.831 189.519 387.531 238.119 381.031L238.219 382.031C224.519 383.831 209.919 384.731 195.619 384.731Z" fill="white"/>
<path d="M196.219 336.931C133.419 336.931 72.9189 327.131 43.4189 310.431L43.9189 309.531C84.7189 332.731 185.619 342.431 268.919 331.231L269.019 332.231C245.719 335.431 220.819 336.931 196.219 336.931Z" fill="white"/>
<path d="M169.519 388.331C158.219 388.331 147.419 385.031 137.519 378.431C105.619 357.131 86.6191 305.431 86.7191 240.131H87.7191C87.6191 305.031 106.419 356.431 138.019 377.631C154.919 388.931 174.419 390.431 194.519 382.131L194.919 383.031C186.319 386.531 177.819 388.331 169.519 388.331Z" fill="white"/>
<path d="M190.819 390.631C190.719 390.631 190.719 390.631 190.619 390.631C182.819 389.631 180.219 313.731 180.319 249.131H181.319C181.119 340.531 185.919 389.031 190.719 389.631C191.119 389.631 192.419 389.331 194.219 382.331L195.219 382.631C193.819 388.131 192.419 390.631 190.819 390.631Z" fill="white"/>
<path d="M216.519 389.231C209.319 389.231 201.919 387.131 194.519 382.931L193.219 382.231L194.719 382.031C215.819 379.231 236.019 372.431 254.819 362.531C270.919 337.131 280.419 294.831 280.519 243.931V243.531L280.919 243.431C315.919 238.731 344.319 231.331 363.319 222.331C367.419 205.931 369.719 188.831 369.719 171.631V170.731L370.419 171.131C385.319 179.531 392.119 189.031 390.319 198.431C388.619 207.231 379.419 215.631 364.119 222.931C348.819 283.131 307.919 335.531 255.419 363.331C249.419 372.631 242.619 379.731 235.019 384.131C229.119 387.531 222.919 389.231 216.519 389.231ZM196.319 382.731C209.819 389.931 222.619 390.131 234.519 383.231C241.619 379.131 248.019 372.631 253.719 364.231C235.719 373.531 216.419 379.931 196.319 382.731ZM281.419 244.331C281.319 294.231 272.119 335.931 256.419 361.531C307.719 333.831 347.719 282.431 362.919 223.431C343.919 232.331 315.919 239.731 281.419 244.331ZM370.719 172.431C370.619 189.231 368.419 205.731 364.519 221.731C379.019 214.631 387.819 206.631 389.419 198.231C391.119 189.431 384.619 180.531 370.719 172.431Z" fill="white"/>
<path d="M238.219 382.031L238.119 381.031C269.919 376.731 290.819 368.131 292.719 358.431C293.619 354.031 290.219 349.531 283.019 345.431L283.519 344.531C291.119 348.831 294.619 353.731 293.719 358.531C291.619 368.731 270.419 377.731 238.219 382.031Z" fill="white"/>
<path d="M269.119 332.331L269.019 331.331C323.519 324.031 359.419 309.031 362.619 292.331C364.119 284.631 358.319 276.831 345.819 269.731L346.319 268.831C359.219 276.131 365.119 284.331 363.519 292.431C360.319 309.631 324.119 324.931 269.119 332.331Z" fill="white"/>
<path d="M220.719 385.431C212.119 385.431 203.419 384.631 194.719 383.031L194.919 382.031C234.419 389.331 272.419 379.931 302.119 355.331C337.019 326.331 357.119 279.031 357.219 225.431H358.219C358.119 279.331 337.919 326.931 302.719 356.131C279.419 375.331 250.919 385.431 220.719 385.431Z" fill="white"/>
<path d="M199.319 383.031C197.819 383.031 196.219 383.031 194.719 382.931V381.931C247.919 383.131 297.619 363.831 334.619 327.731C369.619 293.531 389.019 247.931 389.119 199.331H390.119C390.019 248.131 370.619 294.031 335.319 328.431C299.219 363.731 251.119 383.031 199.319 383.031Z" fill="white"/>
<path d="M194.619 383.031L194.519 382.931C147.019 355.931 108.519 249.831 108.719 146.331V145.931L109.119 145.831C205.719 132.831 323.019 144.131 370.419 171.131L370.719 171.231V171.531C370.519 275.031 291.619 369.931 194.819 382.931L194.619 383.031ZM109.719 146.831C109.619 249.731 147.719 355.131 194.819 382.031C291.019 369.031 369.319 274.831 369.719 171.931C322.319 145.131 205.919 133.931 109.719 146.831Z" fill="white"/>
<path d="M282.919 345.431C259.119 331.931 200.119 326.231 151.519 332.731L151.419 331.731C200.219 325.131 259.519 330.931 283.419 344.531L282.919 345.431Z" fill="white"/>
<path d="M345.919 269.831C305.119 246.631 204.219 236.931 120.919 248.131L120.819 247.131C204.319 235.931 305.519 245.731 346.519 269.031L345.919 269.831Z" fill="white"/>
<path d="M194.919 382.931L194.519 382.031C253.819 357.331 302.219 253.331 302.419 150.231H303.419C303.319 253.631 254.619 358.131 194.919 382.931Z" fill="white"/>
<path d="M195.219 382.631L194.219 382.331C202.019 352.631 208.619 244.331 208.819 141.131H209.819C209.619 244.431 203.119 352.831 195.219 382.631Z" fill="white"/>
<path d="M172.719 384.431C135.919 384.431 101.719 371.831 74.419 347.931C57.219 332.831 43.719 314.131 34.219 292.331C24.419 269.831 19.519 245.131 19.519 218.931C4.81901 210.531 -1.98099 201.131 -0.18099 191.831C3.61901 172.031 45.519 154.431 109.219 145.831L109.819 145.731V146.331C109.619 249.431 147.919 355.231 195.119 382.031L196.419 382.731L194.919 382.931C187.419 383.931 180.019 384.431 172.719 384.431ZM108.719 146.931C45.819 155.431 4.51901 172.731 0.81901 192.031C-0.88099 200.931 5.81901 210.031 20.219 218.231L20.519 218.331V218.631C20.519 244.831 25.419 269.531 35.119 291.931C44.519 313.631 58.019 332.231 75.119 347.131C107.219 375.231 149.119 387.631 193.319 382.031C146.419 354.131 108.719 249.331 108.719 146.931Z" fill="white"/>
<path d="M106.219 369.231C98.6188 364.931 95.1188 360.031 96.0188 355.231C98.0188 345.131 119.219 336.131 151.419 331.831L151.519 332.831C119.719 337.131 98.8188 345.731 96.9188 355.431C96.0188 359.831 99.4188 364.331 106.619 368.431L106.219 369.231Z" fill="white"/>
<path d="M43.5191 310.431C30.6191 303.131 24.7191 294.931 26.3191 286.831C29.6191 269.731 65.8191 254.431 120.819 247.031L120.919 248.031C66.4191 255.331 30.5191 270.331 27.3191 287.031C25.8191 294.731 31.6191 302.531 44.1191 309.631L43.5191 310.431Z" fill="white"/>
<path d="M194.619 382.931C104.819 366.231 31.9191 268.431 32.1191 164.931H33.1191C32.9191 268.031 105.519 365.431 194.919 382.031L194.619 382.931Z" fill="white"/>
<path d="M194.719 383.031C87.2189 380.631 -0.181103 294.431 0.0188973 190.931H1.0189C0.818897 293.931 87.7189 379.731 194.719 382.031V383.031Z" fill="white"/>
<path d="M196.619 249.831C123.919 249.831 53.8189 238.531 19.7189 219.131L19.4189 219.031V218.731C19.7189 115.131 98.6189 20.3311 195.419 7.33105H195.619L195.719 7.43105C243.219 34.4311 281.719 140.531 281.519 244.031V244.431L281.119 244.531C253.819 248.031 225.019 249.831 196.619 249.831ZM20.5189 218.431C67.9189 245.131 184.319 256.331 280.519 243.531C280.619 140.631 242.519 35.2311 195.419 8.33105C99.2189 21.3311 20.8189 115.531 20.5189 218.431Z" fill="white"/>
<path d="M196.619 147.831C133.819 147.831 73.3188 138.031 43.8188 121.331L44.3188 120.431C85.1188 143.631 186.019 153.331 269.319 142.131L269.419 143.131C246.019 146.331 221.119 147.831 196.619 147.831Z" fill="white"/>
<path d="M196.219 61.2311C159.519 61.2311 124.019 55.5311 106.819 45.7311L107.319 44.8311C131.119 58.3311 190.119 64.0311 238.719 57.5311L238.819 58.5311C225.119 60.3311 210.519 61.2311 196.219 61.2311Z" fill="white"/>
<path d="M87.7188 240.131H86.7188C86.9188 136.631 135.619 32.1311 195.219 7.33105L195.619 8.23105C136.319 32.9311 87.9188 136.931 87.7188 240.131Z" fill="white"/>
<path d="M181.319 249.131H180.319C180.519 145.831 187.019 37.4311 194.919 7.6311L195.919 7.9311C188.119 37.6311 181.519 145.831 181.319 249.131Z" fill="white"/>
<path d="M280.419 244.531V243.931C280.619 140.831 242.319 35.0312 195.119 8.23119L193.819 7.53119L195.319 7.33119C240.319 1.23119 283.119 13.7312 315.719 42.3312C332.919 57.4312 346.419 76.1312 355.919 97.9312C365.719 120.431 370.619 145.131 370.619 171.331C385.319 179.731 392.119 189.131 390.319 198.431C386.519 218.231 344.619 235.831 280.919 244.431L280.419 244.531ZM196.919 8.13119C243.719 36.2312 281.419 141.031 281.419 243.431C344.319 234.931 385.619 217.631 389.319 198.331C391.019 189.431 384.319 180.331 369.919 172.131L369.619 172.031V171.731C369.619 145.531 364.719 120.831 355.019 98.4312C345.619 76.7312 332.119 58.1312 315.019 43.2312C283.019 14.9312 241.119 2.53119 196.919 8.13119Z" fill="white"/>
<path d="M269.519 143.231L269.419 142.231C323.919 134.931 359.819 119.931 363.019 103.231C364.519 95.5312 358.719 87.7312 346.219 80.6312L346.719 79.7312C359.619 87.0312 365.519 95.2312 363.919 103.331C360.619 120.531 324.419 135.831 269.519 143.231Z" fill="white"/>
<path d="M238.819 58.4312L238.719 57.4312C270.519 53.1312 291.419 44.5311 293.319 34.8311C294.219 30.4311 290.819 25.9311 283.619 21.8311L284.119 20.9312C291.719 25.2312 295.219 30.1312 294.319 34.9312C292.219 45.1312 271.019 54.1312 238.819 58.4312Z" fill="white"/>
<path d="M358.119 225.331H357.119C357.319 122.231 284.719 24.8312 195.319 8.2312L195.519 7.2312C285.419 24.0312 358.319 121.831 358.119 225.331Z" fill="white"/>
<path d="M390.119 199.431H389.119C389.319 96.4313 302.419 10.6313 195.419 8.3313V7.3313C303.019 9.6313 390.319 95.8313 390.119 199.431Z" fill="white"/>
<path d="M370.719 172.431L370.019 172.031C322.719 145.131 205.819 133.931 109.319 146.831L108.719 146.931V146.331C108.819 76.4311 126.619 22.7311 155.119 6.13111C167.519 -1.06889 181.419 -0.668894 195.519 7.23111C240.419 1.23111 283.119 13.6311 315.719 42.2311C332.919 57.3311 346.419 76.0311 355.919 97.8311C365.719 120.431 370.719 145.231 370.619 171.531L370.719 172.431ZM193.519 140.431C265.619 140.431 335.319 151.531 369.719 170.731C369.619 144.831 364.719 120.531 355.119 98.2311C345.719 76.5311 332.219 57.9311 315.119 43.0311C282.719 14.6311 240.219 2.23111 195.519 8.23111H195.319L195.219 8.13111C181.219 0.231107 168.019 -0.168893 155.719 6.93111C127.619 23.2311 110.019 76.4311 109.819 145.731C136.719 142.131 165.319 140.431 193.519 140.431Z" fill="white"/>
<path d="M346.219 80.6311C305.419 57.4311 204.519 47.7311 121.219 58.9311L121.119 57.9311C204.619 46.7311 305.819 56.5311 346.819 79.8311L346.219 80.6311Z" fill="white"/>
<path d="M283.519 21.9312C259.719 8.33121 200.819 2.7312 152.119 9.2312L152.019 8.2312C200.819 1.6312 260.119 7.43121 284.019 21.0312L283.519 21.9312Z" fill="white"/>
<path d="M303.419 150.131H302.419C302.519 85.2312 283.719 33.8312 252.119 12.6312C235.219 1.33117 215.719 -0.168829 195.619 8.13117L195.219 7.23117C215.619 -1.26883 235.419 0.331168 252.619 11.8312C284.619 33.2312 303.619 84.9312 303.419 150.131Z" fill="white"/>
<path d="M209.819 141.131H208.819C209.019 49.7311 204.219 1.23112 199.419 0.631122C199.019 0.631122 197.719 0.931122 195.919 7.93112L194.919 7.63112C196.419 1.83112 197.919 -0.568878 199.519 -0.368878C207.319 0.631122 209.919 76.4311 209.819 141.131Z" fill="white"/>
<path d="M20.5189 219.531L19.8189 219.131C4.91887 210.731 -1.88112 201.231 -0.0811239 191.831C1.61888 183.031 10.8189 174.631 26.1189 167.331C41.3189 107.131 82.2189 54.7312 134.719 26.9312C140.719 17.6312 147.519 10.5312 155.119 6.13117C167.519 -1.06883 181.519 -0.668829 195.619 7.33117L196.919 8.03117L195.419 8.23117C174.319 11.0312 154.119 17.8312 135.319 27.7312C119.219 53.1312 109.719 95.4312 109.619 146.331V146.731L109.219 146.831C74.2189 151.531 45.8189 158.931 26.8189 167.931C22.7189 184.331 20.4189 201.431 20.4189 218.631L20.5189 219.531ZM25.7189 168.531C11.2189 175.631 2.41888 183.631 0.818878 192.031C-0.881122 200.831 5.61888 209.731 19.5189 217.831C19.6189 201.031 21.7189 184.531 25.7189 168.531ZM133.719 28.6312C82.4189 56.3312 42.4189 107.731 27.2189 166.731C46.2189 157.831 74.3189 150.531 108.719 145.831C108.919 95.9312 118.019 54.3312 133.719 28.6312ZM173.719 1.93117C167.519 1.93117 161.419 3.63117 155.619 7.03117C148.519 11.1312 142.119 17.6312 136.419 26.0312C154.419 16.7312 173.719 10.3312 193.819 7.43117C187.019 3.83117 180.219 1.93117 173.719 1.93117Z" fill="white"/>
<path d="M43.8189 121.331C30.9189 114.031 25.0189 105.831 26.6189 97.7312C29.9189 80.6312 66.1189 65.3312 121.119 57.9312L121.219 58.9312C66.7189 66.2312 30.8189 81.2312 27.6189 97.9312C26.1189 105.631 31.9189 113.431 44.4189 120.531L43.8189 121.331Z" fill="white"/>
<path d="M106.819 45.6312C99.2189 41.3312 95.7189 36.4312 96.6189 31.6312C98.6189 21.5312 119.819 12.5312 152.019 8.2312L152.119 9.2312C120.319 13.5312 99.4189 22.1312 97.5189 31.8312C96.6189 36.2312 100.019 40.7312 107.219 44.8312L106.819 45.6312Z" fill="white"/>
<path d="M33.1187 164.931H32.1187C32.2187 111.031 52.4187 63.4313 87.6187 34.2313C117.519 9.43127 155.819 -0.0687323 195.619 7.33127L195.419 8.33127C155.919 1.03127 117.919 10.4313 88.2187 35.0313C53.3187 63.9313 33.2187 111.331 33.1187 164.931Z" fill="white"/>
<path d="M1.01904 190.831H0.019043C0.119043 142.031 19.519 96.1311 54.819 61.7311C92.019 25.4311 141.919 6.13108 195.419 7.23108V8.23108C142.219 7.03108 92.519 26.3311 55.519 62.4311C20.519 96.6311 1.11904 142.231 1.01904 190.831Z" fill="white"/>
</g>
<mask id="mask3_201_609" style="mask-type:luminance" maskUnits="userSpaceOnUse" x="0" y="0" width="391" height="391">
<path d="M221.119 388.431C207.619 390.231 196.419 390.331 189.419 390.131C173.119 389.531 163.119 387.631 155.719 386.231C152.219 385.531 145.619 383.931 141.819 382.831C136.919 381.431 130.419 379.231 125.619 377.431C122.119 376.131 117.419 374.131 114.019 372.531C109.419 370.331 103.419 367.231 98.9192 364.831C51.3192 337.731 19.9192 284.331 20.0192 218.731C20.2192 115.231 98.8192 20.8311 195.519 7.83108C98.8192 20.8311 20.2192 115.231 20.0192 218.731C19.9192 284.331 51.3192 337.831 98.9192 364.831C98.9192 364.831 91.3192 361.031 77.0191 350.331C71.8192 346.431 65.2192 340.731 60.5192 336.331C56.5192 332.531 51.3192 327.331 47.9192 323.131C42.3192 316.331 35.2192 306.931 30.3192 299.631C27.4192 295.231 24.0192 289.131 21.6192 284.431C19.3192 279.931 16.3192 273.831 14.5192 269.131C11.3192 260.531 7.61916 248.931 5.21916 240.031C3.91916 235.131 2.71916 228.331 2.01916 223.231C0.81916 214.731 0.31916 203.331 0.0191603 194.831C-0.0808397 190.031 0.219157 183.631 0.719157 178.931C1.21916 173.831 1.81916 166.931 2.91916 161.931C3.91916 157.431 5.01916 151.331 6.11916 146.831C7.41916 141.931 9.21916 135.431 11.0192 130.731C14.1192 122.231 19.1192 111.231 23.1192 103.131C25.3192 98.6311 28.9192 93.0311 31.6192 88.8311C34.4192 84.5311 38.3192 78.9311 41.5192 74.9311C47.0192 68.3311 54.6192 59.7311 60.7192 53.8311C62.3192 52.2311 71.2192 43.7311 84.3192 34.6311C88.7192 31.5311 94.8192 27.8311 99.5191 25.1311C102.419 23.4311 106.519 21.3311 109.619 19.8311C118.819 15.2311 138.119 6.93108 163.419 2.63108C176.919 0.331082 187.419 0.131084 192.519 0.0310836C201.419 -0.168916 212.419 0.631081 218.819 1.43108C225.119 2.23108 227.519 2.63108 234.719 4.03108C237.819 4.63108 243.219 5.93108 248.019 7.23108C255.219 9.23108 259.019 10.6311 264.819 12.8311C268.319 14.1311 272.919 16.2311 276.419 17.7311C281.119 19.7311 287.119 23.0311 291.519 25.4311C295.019 27.3311 299.419 30.1311 302.719 32.3311C309.519 36.7311 317.919 43.4311 324.119 48.6311C328.519 52.3311 334.119 57.6311 337.819 61.9311C341.319 65.9311 346.119 71.3311 349.419 75.5311C352.119 79.0311 355.619 83.8311 358.019 87.5311C360.819 91.8311 364.319 97.7311 366.819 102.231C369.019 106.131 371.619 111.531 373.519 115.731C375.619 120.331 378.019 126.631 379.719 131.431C381.219 135.731 382.819 141.731 384.119 146.131C385.619 151.031 386.819 157.731 387.619 162.731C388.419 167.331 389.019 173.631 389.619 178.331C390.319 183.531 390.419 190.431 390.319 195.631C390.119 205.831 389.919 214.531 387.119 230.531C386.319 235.131 384.919 241.131 383.719 245.631C382.419 250.531 380.519 256.931 378.719 261.631C377.019 265.831 374.919 271.531 373.019 275.631C370.919 280.231 368.019 286.331 365.419 290.631C360.819 298.131 354.319 308.031 349.119 315.131C346.119 319.231 341.619 324.131 338.219 327.931C335.419 331.131 331.319 335.131 328.219 338.031C324.419 341.531 319.219 346.031 315.219 349.131C303.819 358.031 294.119 363.631 289.219 366.331C286.319 367.931 282.319 370.031 279.219 371.431C276.219 372.731 272.219 374.631 269.219 375.831C266.519 376.931 262.819 378.431 259.919 379.331C257.819 380.031 254.919 381.031 252.819 381.631C248.619 382.831 243.019 384.431 238.719 385.431C235.919 385.931 228.619 387.431 221.119 388.431Z" fill="white"/>
</mask>
<g mask="url(#mask3_201_609)">
<path d="M195.219 390.731C193.019 390.731 191.119 390.731 189.419 390.631C173.119 390.031 163.019 388.131 155.619 386.731C152.119 386.031 145.519 384.431 141.719 383.331C136.619 381.831 130.119 379.631 125.419 377.931C121.519 376.431 117.019 374.531 113.719 373.031C109.419 371.031 103.319 367.831 98.6194 365.331C98.5194 365.231 98.4194 365.231 98.3194 365.131C96.3194 364.131 88.6194 359.631 76.6194 350.831C71.8194 347.331 65.3194 341.731 60.1194 336.731C57.6194 334.431 51.5194 328.431 47.4194 323.431C42.6194 317.531 35.1194 307.831 29.8194 299.931C26.8194 295.431 23.3194 289.131 21.1194 284.731C18.8194 280.331 15.8194 274.131 14.0194 269.331C10.8194 260.831 7.11939 249.131 4.71939 240.231C3.61939 236.231 2.51939 230.631 1.51939 223.331C0.519393 216.631 -0.0806068 207.031 -0.480607 194.931C-0.680607 189.831 -0.28061 183.331 0.21939 178.931L0.319392 177.531C0.819392 172.631 1.41939 166.531 2.31939 161.831C2.61939 160.431 2.91939 158.831 3.31939 157.131C4.01939 153.531 4.81939 149.731 5.61939 146.631C6.41939 143.631 8.41939 136.131 10.5194 130.531C14.5194 119.631 20.8194 106.631 22.7194 102.931C24.9194 98.431 28.6194 92.631 31.2194 88.631C32.9194 86.031 37.3194 79.331 41.2194 74.731C46.3194 68.631 54.1194 59.831 60.5194 53.531C62.1194 51.931 71.0194 43.431 84.2194 34.331C88.8194 31.131 95.0194 27.431 99.4194 24.831C102.219 23.231 105.919 21.331 109.519 19.531C118.719 14.931 138.019 6.53104 163.419 2.33104C177.019 0.0310369 187.519 -0.168965 192.519 -0.268965C201.419 -0.468965 212.519 0.331036 218.819 1.13104C225.219 1.93104 227.519 2.33103 234.719 3.73103C237.919 4.33103 243.219 5.63104 248.019 6.93104C255.219 8.93104 259.019 10.331 264.819 12.531C267.519 13.531 270.919 15.031 273.819 16.331C274.719 16.731 275.619 17.131 276.419 17.431C281.019 19.431 286.919 22.631 291.519 25.231C295.019 27.131 299.519 30.031 302.819 32.131C309.819 36.631 318.419 43.531 324.219 48.531C328.219 52.031 334.019 57.331 338.019 61.831L339.819 63.831C343.119 67.631 346.819 71.831 349.719 75.431C352.219 78.631 355.619 83.331 358.319 87.431C361.019 91.431 364.519 97.331 367.119 102.131C369.119 105.831 371.819 111.231 373.819 115.631C375.819 120.031 378.319 126.331 380.019 131.331C381.119 134.331 382.119 138.131 383.219 141.731C383.619 143.231 384.119 144.731 384.519 146.031C385.919 150.831 387.219 157.431 388.119 162.731C388.619 165.931 389.119 169.831 389.519 173.531C389.719 175.231 389.919 176.831 390.119 178.331C390.819 183.831 390.919 190.931 390.819 195.731C390.619 205.931 390.419 214.731 387.619 230.731C386.819 235.131 385.519 241.231 384.219 245.831C382.319 252.731 380.619 258.131 379.219 261.931L378.219 264.431C376.719 268.231 375.019 272.631 373.519 276.031C371.219 281.131 368.419 286.931 365.919 291.031C361.119 298.931 354.519 308.731 349.619 315.531C347.319 318.631 344.119 322.331 341.219 325.531C340.319 326.531 339.519 327.431 338.719 328.331C335.219 332.331 330.119 337.031 328.619 338.431C324.419 342.331 319.319 346.631 315.519 349.631C307.219 356.131 298.619 361.731 289.419 366.831C285.119 369.231 281.819 370.931 279.419 371.931C278.619 372.331 277.719 372.731 276.719 373.131C274.319 374.231 271.619 375.431 269.419 376.331C267.719 377.031 263.419 378.731 260.119 379.831C259.419 380.031 258.719 380.331 258.019 380.531C256.319 381.131 254.519 381.731 253.019 382.131C249.119 383.231 243.319 384.831 238.919 385.931C236.119 386.631 228.819 388.131 221.319 389.131C210.919 390.331 201.919 390.731 195.219 390.731ZM99.1194 364.331C103.819 366.931 109.919 370.031 114.219 372.031C117.419 373.531 121.919 375.431 125.819 376.931C130.419 378.631 136.919 380.831 142.019 382.331C145.719 383.431 152.319 385.031 155.819 385.731C163.119 387.131 173.119 389.131 189.419 389.631C196.419 389.831 207.619 389.831 221.119 387.931C228.619 386.931 235.819 385.431 238.619 384.731C243.019 383.631 248.719 382.131 252.619 380.931C254.119 380.531 255.819 379.931 257.519 379.331C258.319 379.031 259.019 378.831 259.719 378.631C263.019 377.531 267.219 375.831 268.919 375.131C271.119 374.231 273.819 373.031 276.219 371.931C277.119 371.531 278.119 371.131 278.919 370.731C281.319 369.631 284.519 368.031 288.819 365.631C298.019 360.531 306.519 354.931 314.819 348.531C318.519 345.631 323.619 341.231 327.819 337.431C331.719 333.831 335.419 330.131 337.819 327.431C338.619 326.531 339.419 325.631 340.319 324.631C343.119 321.431 346.419 317.831 348.619 314.731C353.519 307.931 360.119 298.131 364.919 290.231C367.419 286.131 370.119 280.331 372.519 275.331C374.019 271.931 375.719 267.631 377.219 263.831L378.219 261.331C379.719 257.631 381.319 252.231 383.219 245.331C384.419 240.731 385.819 234.631 386.619 230.331C389.419 214.431 389.619 205.631 389.819 195.531C389.919 190.731 389.819 183.631 389.119 178.231C388.919 176.731 388.719 175.131 388.519 173.431C388.119 169.731 387.619 165.831 387.119 162.731C386.219 157.531 385.019 150.931 383.619 146.231C383.219 144.931 382.819 143.431 382.319 141.931C381.319 138.331 380.219 134.631 379.119 131.631C377.419 126.631 374.919 120.331 372.919 116.031C371.019 111.731 368.319 106.331 366.319 102.631C363.719 97.931 360.219 92.031 357.519 88.031C354.819 83.931 351.419 79.231 348.919 76.131C346.119 72.631 342.419 68.331 339.119 64.631L337.319 62.631C333.319 58.131 327.619 52.831 323.619 49.431C317.919 44.531 309.219 37.631 302.319 33.131C299.119 31.031 294.619 28.231 291.119 26.231C286.519 23.731 280.619 20.531 276.019 18.531C275.219 18.131 274.319 17.831 273.419 17.431C270.519 16.131 267.119 14.731 264.419 13.731C258.619 11.631 254.819 10.231 247.719 8.23103C242.919 6.83103 237.619 5.63104 234.419 5.03104C227.319 3.63104 224.919 3.33104 218.619 2.43104C212.319 1.63104 201.319 0.831038 192.419 1.03104C187.419 1.13104 176.919 1.33104 163.419 3.63104C138.219 7.83104 119.019 16.131 109.819 20.731C106.219 22.531 102.519 24.431 99.8194 26.031C95.4194 28.631 89.2194 32.331 84.7194 35.531C71.6194 44.631 62.8194 53.031 61.2194 54.631C54.8194 60.831 47.1194 69.631 42.0194 75.731C38.2194 80.331 33.8194 86.931 32.1194 89.531C29.5194 93.531 25.9194 99.231 23.7194 103.731C19.9194 111.331 14.8194 122.631 11.6194 131.231C9.51939 136.831 7.51939 144.331 6.71939 147.231C5.91939 150.331 5.21939 154.031 4.41939 157.631C4.11939 159.331 3.71939 160.831 3.41939 162.331C2.41939 166.931 1.91939 172.931 1.41939 177.831L1.31939 179.231C0.919392 183.631 0.519392 190.031 0.619392 195.131C1.01939 207.231 1.61939 216.831 2.61939 223.431C3.61939 230.631 4.71939 236.231 5.81939 240.131C8.21939 249.031 12.0194 260.631 15.1194 269.131C16.9194 273.931 19.9194 280.131 22.2194 284.431C24.5194 288.831 27.9194 295.031 30.9194 299.531C36.1194 307.431 43.6194 317.131 48.4194 323.031C52.4194 327.931 58.6194 333.831 61.0194 336.231C64.1194 339.231 67.7194 342.431 71.1194 345.231C39.3194 315.631 20.6194 272.131 19.7194 223.231C19.7194 222.931 19.7194 222.531 19.7194 222.231C19.7194 221.231 19.7194 220.331 19.7194 219.331C19.7194 219.231 19.7194 219.131 19.7194 218.931C19.7194 115.131 98.6194 20.331 195.419 7.33104L195.519 8.33104C99.2194 21.331 20.7194 115.631 20.5194 218.731C20.5194 218.831 20.5194 218.931 20.5194 219.131C20.5194 282.031 49.9194 336.331 99.1194 364.331Z" fill="white"/>
</g>
</svg>
