<svg width="397" height="477" viewBox="0 0 397 477" fill="none" xmlns="http://www.w3.org/2000/svg">
<path d="M269.7 476.3C240.8 476.3 219.9 458 198 438.7C171.6 415.5 146.7 393.7 107.8 404.9C92.9 409.2 78.8 415.7 65.2 422C45 431.3 24.1 441 0.5 443.4L0 443.5V42.3H0.5C23.9 40 44.8 30.3 64.9 21C78.6 14.7 92.7 8.2 107.7 3.8C147.1 -7.6 172.3 14.4 198.8 37.8C223.9 59.8 247.5 80.6 283.3 73.8C300.3 70.6 316.5 64.7 332.3 59C352.7 51.6 373.7 44 396.4 42.2H396.9V443.4H396.4C373.9 445.2 352.9 452.8 332.6 460.1C316.8 465.8 300.5 471.7 283.5 474.9C278.7 475.9 274.1 476.3 269.7 476.3ZM128.3 401C156.4 401 177.1 419.1 198.7 438.1C223.8 460.1 247.4 480.9 283.2 474.1C300.2 470.9 316.4 465 332.2 459.3C352.4 452 373.3 444.4 395.9 442.6V43.3C373.6 45.2 352.7 52.7 332.6 60C316.8 65.7 300.5 71.6 283.5 74.8C247.2 81.6 223.4 60.7 198.1 38.6C171.7 15.4 146.8 -6.4 107.9 4.8C93 9.1 78.9 15.6 65.3 21.9C45.1 31.2 24.4 40.8 0.900002 43.2V442.4C24.1 440 44.8 430.4 64.7 421.2C78.4 414.9 92.5 408.4 107.5 404C114.9 401.9 121.8 401 128.3 401Z" fill="white"/>
<path d="M269.7 102.8C240.8 102.8 219.9 84.5 198 65.2C171.6 42 146.7 20.2 107.8 31.4C92.8999 35.7 78.7999 42.2 65.1999 48.5C44.9999 57.8 24.0999 67.5 0.499901 69.9L0.399902 68.9C23.7999 66.6 44.6999 56.9 64.7999 47.6C78.4999 41.3 92.5999 34.8 107.6 30.4C147 19 172.2 41 198.7 64.4C223.8 86.4 247.4 107.2 283.2 100.4C300.2 97.2 316.4 91.3 332.2 85.6C352.6 78.2 373.6 70.6 396.3 68.8L396.4 69.8C373.9 71.6 352.9 79.2 332.6 86.5C316.8 92.2 300.5 98.1 283.5 101.3C278.7 102.4 274.1 102.8 269.7 102.8Z" fill="white"/>
<path d="M269.7 129.5C240.8 129.5 219.9 111.2 198 91.9C171.6 68.7 146.7 46.9 107.8 58.1C92.8999 62.4 78.7999 68.9 65.1999 75.2C44.9999 84.5 24.0999 94.2 0.499901 96.6L0.399902 95.6C23.7999 93.3 44.6999 83.6 64.7999 74.3C78.4999 68 92.5999 61.5 107.6 57.1C147 45.7 172.2 67.7 198.7 91.1C223.8 113.1 247.4 133.9 283.2 127.1C300.2 123.9 316.4 118 332.2 112.3C352.6 104.9 373.6 97.3 396.3 95.5L396.4 96.5C373.9 98.3 352.9 105.9 332.6 113.2C316.8 118.9 300.5 124.8 283.5 128C278.7 129.1 274.1 129.5 269.7 129.5Z" fill="white"/>
<path d="M269.7 156.2C240.8 156.2 219.9 137.9 198 118.6C171.6 95.4 146.7 73.6 107.8 84.8C92.8999 89.1 78.7999 95.6 65.1999 101.9C44.9999 111.2 24.0999 120.9 0.499901 123.3L0.399902 122.3C23.7999 120 44.6999 110.3 64.7999 101C78.4999 94.7 92.5999 88.2 107.6 83.8C147 72.4 172.2 94.4 198.7 117.8C223.8 139.8 247.4 160.6 283.2 153.8C300.2 150.6 316.4 144.7 332.2 139C352.6 131.6 373.6 124 396.3 122.2L396.4 123.2C373.9 125 352.9 132.6 332.6 139.9C316.8 145.6 300.5 151.5 283.5 154.7C278.7 155.8 274.1 156.2 269.7 156.2Z" fill="white"/>
<path d="M269.7 182.9C240.8 182.9 219.9 164.6 198 145.3C171.6 122.1 146.7 100.3 107.8 111.5C92.8999 115.8 78.7999 122.3 65.1999 128.6C44.9999 137.9 24.0999 147.6 0.499901 150L0.399902 149C23.7999 146.7 44.6999 137 64.7999 127.7C78.4999 121.4 92.5999 114.9 107.6 110.5C147 99.1 172.2 121.1 198.7 144.5C223.8 166.5 247.4 187.3 283.2 180.5C300.2 177.3 316.4 171.4 332.2 165.7C352.6 158.3 373.6 150.7 396.3 148.9L396.4 149.9C373.9 151.7 352.9 159.3 332.6 166.6C316.8 172.3 300.5 178.2 283.5 181.4C278.7 182.4 274.1 182.9 269.7 182.9Z" fill="white"/>
<path d="M269.7 209.5C240.8 209.5 219.9 191.2 198 171.9C171.6 148.7 146.7 126.9 107.8 138.1C92.8999 142.4 78.7999 148.9 65.1999 155.2C44.9999 164.5 24.0999 174.2 0.499901 176.6L0.399902 175.6C23.7999 173.3 44.6999 163.6 64.7999 154.3C78.4999 148 92.5999 141.5 107.6 137.1C147 125.7 172.2 147.7 198.7 171.1C223.8 193.1 247.4 213.9 283.2 207.1C300.2 203.9 316.4 198 332.2 192.3C352.6 184.9 373.6 177.3 396.3 175.5L396.4 176.5C373.9 178.3 352.9 185.9 332.6 193.2C316.8 198.9 300.5 204.8 283.5 208C278.7 209.1 274.1 209.5 269.7 209.5Z" fill="white"/>
<path d="M269.7 236.2C240.8 236.2 219.9 217.9 198 198.6C171.6 175.4 146.7 153.6 107.8 164.8C92.8999 169.1 78.7999 175.6 65.1999 181.9C44.9999 191.2 24.0999 200.9 0.499901 203.3L0.399902 202.3C23.7999 200 44.6999 190.3 64.7999 181C78.4999 174.7 92.5999 168.2 107.6 163.8C147 152.4 172.2 174.4 198.7 197.8C223.8 219.8 247.4 240.6 283.2 233.8C300.2 230.6 316.4 224.7 332.2 219C352.6 211.6 373.6 204 396.3 202.2L396.4 203.2C373.9 205 352.9 212.6 332.6 219.9C316.8 225.6 300.5 231.5 283.5 234.7C278.7 235.8 274.1 236.2 269.7 236.2Z" fill="white"/>
<path d="M269.7 262.9C240.8 262.9 219.9 244.6 198 225.3C171.6 202.1 146.7 180.3 107.8 191.5C92.8999 195.8 78.7999 202.3 65.1999 208.6C44.9999 217.9 24.0999 227.6 0.499901 230L0.399902 229C23.7999 226.7 44.6999 217 64.7999 207.7C78.4999 201.4 92.5999 194.9 107.6 190.5C147 179.1 172.2 201.1 198.7 224.5C223.8 246.5 247.4 267.3 283.2 260.5C300.2 257.3 316.4 251.4 332.2 245.7C352.6 238.3 373.6 230.7 396.3 228.9L396.4 229.9C373.9 231.7 352.9 239.3 332.6 246.6C316.8 252.3 300.5 258.2 283.5 261.4C278.7 262.5 274.1 262.9 269.7 262.9Z" fill="white"/>
<path d="M269.7 289.6C240.8 289.6 219.9 271.3 198 252C171.6 228.8 146.7 207 107.8 218.2C92.8999 222.5 78.7999 229 65.1999 235.3C44.9999 244.6 24.0999 254.3 0.499901 256.7L0.399902 255.7C23.7999 253.4 44.6999 243.7 64.7999 234.4C78.4999 228.1 92.5999 221.6 107.6 217.2C147 205.8 172.2 227.8 198.7 251.2C223.8 273.2 247.4 294 283.2 287.2C300.2 284 316.4 278.1 332.2 272.4C352.6 265 373.6 257.4 396.3 255.6L396.4 256.6C373.9 258.4 352.9 266 332.6 273.3C316.8 279 300.5 284.9 283.5 288.1C278.7 289.2 274.1 289.6 269.7 289.6Z" fill="white"/>
<path d="M269.7 316.3C240.8 316.3 219.9 298 198 278.7C171.6 255.5 146.7 233.7 107.8 244.9C92.8999 249.2 78.7999 255.7 65.1999 262C44.9999 271.3 24.0999 281 0.499901 283.4L0.399902 282.4C23.7999 280.1 44.6999 270.4 64.7999 261.1C78.4999 254.8 92.5999 248.3 107.6 243.9C147 232.5 172.2 254.5 198.7 277.9C223.8 299.9 247.4 320.7 283.2 313.9C300.2 310.7 316.4 304.8 332.2 299.1C352.6 291.7 373.6 284.1 396.3 282.3L396.4 283.3C373.9 285.1 352.9 292.7 332.6 300C316.8 305.7 300.5 311.6 283.5 314.8C278.7 315.8 274.1 316.3 269.7 316.3Z" fill="white"/>
<path d="M269.7 342.9C240.8 342.9 219.9 324.6 198 305.3C171.6 282.1 146.7 260.3 107.8 271.5C92.8999 275.8 78.7999 282.3 65.1999 288.6C44.9999 297.9 24.0999 307.6 0.499901 310L0.399902 309C23.7999 306.7 44.6999 297 64.7999 287.7C78.4999 281.4 92.5999 274.9 107.6 270.5C147 259.1 172.2 281.1 198.7 304.5C223.8 326.5 247.4 347.3 283.2 340.5C300.2 337.3 316.4 331.4 332.2 325.7C352.6 318.3 373.6 310.7 396.3 308.9L396.4 309.9C373.9 311.7 352.9 319.3 332.6 326.6C316.8 332.3 300.5 338.2 283.5 341.4C278.7 342.5 274.1 342.9 269.7 342.9Z" fill="white"/>
<path d="M269.7 369.6C240.8 369.6 219.9 351.3 198 332C171.6 308.8 146.7 287 107.8 298.2C92.8999 302.5 78.7999 309 65.1999 315.3C44.9999 324.6 24.0999 334.3 0.499901 336.7L0.399902 335.7C23.7999 333.4 44.6999 323.7 64.7999 314.4C78.4999 308.1 92.5999 301.6 107.6 297.2C147 285.8 172.2 307.8 198.7 331.2C223.8 353.2 247.4 374 283.2 367.2C300.2 364 316.4 358.1 332.2 352.4C352.6 345 373.6 337.4 396.3 335.6L396.4 336.6C373.9 338.4 352.9 346 332.6 353.3C316.8 359 300.5 364.9 283.5 368.1C278.7 369.2 274.1 369.6 269.7 369.6Z" fill="white"/>
<path d="M269.7 396.3C240.8 396.3 219.9 378 198 358.7C171.6 335.5 146.7 313.7 107.8 324.9C92.8999 329.2 78.7999 335.7 65.1999 342C44.9999 351.3 24.0999 361 0.499901 363.4L0.399902 362.4C23.7999 360.1 44.6999 350.4 64.7999 341.1C78.4999 334.8 92.5999 328.3 107.6 323.9C147 312.5 172.2 334.5 198.7 357.9C223.8 379.9 247.4 400.7 283.2 393.9C300.2 390.7 316.4 384.8 332.2 379.1C352.6 371.7 373.6 364.1 396.3 362.3L396.4 363.3C373.9 365.1 352.9 372.7 332.6 380C316.8 385.7 300.5 391.6 283.5 394.8C278.7 395.9 274.1 396.3 269.7 396.3Z" fill="white"/>
<path d="M269.7 423C240.8 423 219.9 404.7 198 385.4C171.6 362.2 146.7 340.4 107.8 351.6C92.8999 355.9 78.7999 362.4 65.1999 368.7C44.9999 378 24.0999 387.7 0.499901 390.1L0.399902 389.1C23.7999 386.8 44.6999 377.1 64.7999 367.8C78.4999 361.5 92.5999 355 107.6 350.6C147 339.2 172.2 361.2 198.7 384.6C223.8 406.6 247.4 427.4 283.2 420.6C300.2 417.4 316.4 411.5 332.2 405.8C352.6 398.4 373.6 390.8 396.3 389L396.4 390C373.9 391.8 352.9 399.4 332.6 406.7C316.8 412.4 300.5 418.3 283.5 421.5C278.7 422.6 274.1 423 269.7 423Z" fill="white"/>
<path d="M269.7 449.7C240.8 449.7 219.9 431.4 198 412.1C171.6 388.9 146.7 367.1 107.8 378.3C92.8999 382.6 78.7999 389.1 65.1999 395.4C44.9999 404.7 24.0999 414.4 0.499901 416.8L0.399902 415.8C23.7999 413.5 44.6999 403.8 64.7999 394.5C78.4999 388.2 92.5999 381.7 107.6 377.3C147 365.9 172.2 387.9 198.7 411.3C223.8 433.3 247.4 454.1 283.2 447.3C300.2 444.1 316.4 438.2 332.2 432.5C352.6 425.1 373.6 417.5 396.3 415.7L396.4 416.7C373.9 418.5 352.9 426.1 332.6 433.4C316.8 439.1 300.5 445 283.5 448.2C278.7 449.2 274.1 449.7 269.7 449.7Z" fill="white"/>
<path d="M370.4 46.4H369.4V446.6H370.4V46.4Z" fill="white"/>
<path d="M343.7 54.7H342.7V454.9H343.7V54.7Z" fill="white"/>
<path d="M317 64.6H316V464.8H317V64.6Z" fill="white"/>
<path d="M290.4 72.9H289.4V473.1H290.4V72.9Z" fill="white"/>
<path d="M263.9 76.3H262.9V476.5H263.9V76.3Z" fill="white"/>
<path d="M237.7 68.3H236.7V468.5H237.7V68.3Z" fill="white"/>
<path d="M211.8 49.5H210.8V449.7H211.8V49.5Z" fill="white"/>
<path d="M186 26.9H185V427.1H186V26.9Z" fill="white"/>
<path d="M160.1 8H159.1V408.2H160.1V8Z" fill="white"/>
<path d="M133.9 0H132.9V400.2H133.9V0Z" fill="white"/>
<path d="M107.4 4.40002H106.4V404.6H107.4V4.40002Z" fill="white"/>
<path d="M80.8 14.9H79.8V415.1H80.8V14.9Z" fill="white"/>
<path d="M54.1001 27.6H53.1001V427.8H54.1001V27.6Z" fill="white"/>
<path d="M27.3999 38.2H26.3999V438.4H27.3999V38.2Z" fill="white"/>
</svg>
