<svg width="462" height="246" viewBox="0 0 462 246" fill="none" xmlns="http://www.w3.org/2000/svg">
<path d="M404.4 56.2388C390.9 56.2388 377.4 56.2388 364.2 56.2388C351.6 56.2388 339.1 56.2388 326.5 56.2388C295.6 56.2388 276.8 49.7388 249.3 29.3388L247.2 27.7388C223.6 10.2388 201.3 -6.16118 171.2 4.23882C154.7 9.93882 140 19.3388 125.8 28.3388C107.9 39.7388 89.4 51.5388 67.3 56.0388L67.1 55.0388C89 50.5388 107.5 38.8388 125.3 27.4388C139.6 18.3388 154.3 8.93882 170.9 3.23882C201.5 -7.36118 225 10.0388 247.8 26.8388L249.9 28.4388C277.2 48.6388 295.9 55.1388 326.5 55.1388C339.1 55.1388 351.6 55.1388 364.2 55.1388C384.3 55.1388 405.1 55.1388 425.6 55.1388V56.1388C418.5 56.2388 411.5 56.2388 404.4 56.2388Z" fill="white"/>
<path d="M416.4 62.1389C400.1 62.1389 383.8 61.2389 367.9 60.4389C355.9 59.8389 343.5 59.1389 331.3 58.8389C298.9 58.1389 278.3 51.9389 249.6 34.3389C248.2 33.5389 246.9 32.6389 245.5 31.8389C220.6 16.4389 197.1 1.93892 167 13.4389C152.1 19.1389 138.4 27.1389 125.1 34.9389C106.6 45.8389 87.5 57.0389 65.3 61.7389L65.1 60.7389C87.2 56.0389 106.2 44.8389 124.6 34.0389C137.9 26.2389 151.7 18.1389 166.6 12.4389C197.1 0.838921 220.9 15.4389 246 30.9389C247.4 31.7389 248.7 32.6389 250.1 33.4389C278.6 50.9389 299.1 57.1389 331.3 57.8389C343.5 58.1389 356 58.7389 367.9 59.4389C387.4 60.4389 407.5 61.5389 427.4 61.0389V62.0389C423.7 62.1389 420.1 62.1389 416.4 62.1389Z" fill="white"/>
<path d="M425.2 68.0386C406.7 68.0386 388.4 65.5386 370.7 63.0386C358.8 61.4386 346.6 59.7386 334.3 58.7386C304.9 56.5386 280.6 52.4386 250.4 39.3386C248.5 38.5386 246.5 37.6386 244.6 36.8386C218.6 25.3386 194 14.5386 165.6 24.3386C150.9 29.4386 137 36.6386 123.7 43.5386C104.8 53.3386 85.3 63.4386 63.3 67.7386L63.1 66.7386C84.9 62.4386 104.4 52.4386 123.2 42.6386C136.6 35.7386 150.5 28.5386 165.3 23.3386C194.1 13.3386 218.8 24.2386 245.1 35.8386C247 36.6386 248.9 37.5386 250.9 38.3386C281 51.4386 305.2 55.4386 334.5 57.7386C346.8 58.6386 359.1 60.3386 371 62.0386C390 64.6386 409.6 67.3386 429.5 66.9386V67.9386C427.9 67.9386 426.6 68.0386 425.2 68.0386Z" fill="white"/>
<path d="M431.2 74.039C411.1 73.839 392.3 69.039 374 64.439C362.4 61.439 350.4 58.439 338.1 56.539C327.2 54.839 316.2 53.639 305.6 52.439C287.9 50.439 269.6 48.339 251.5 44.239C248.2 43.439 244.8 42.739 241.5 41.939C216.1 35.939 189.7 29.739 163.8 37.439C149.3 41.739 135.4 47.739 121.9 53.539C102.6 61.839 82.7001 70.439 61.0001 73.939L60.8 72.939C82.4 69.439 102.3 60.839 121.5 52.539C135 46.739 148.9 40.739 163.5 36.439C189.7 28.739 216.1 34.939 241.7 40.939C245.1 41.739 248.4 42.539 251.7 43.239C269.8 47.339 288.1 49.439 305.7 51.439C316.3 52.639 327.3 53.839 338.2 55.539C350.6 57.439 362.6 60.539 374.2 63.439C392.4 68.039 411.2 72.939 431.1 73.039L431.2 74.039Z" fill="white"/>
<path d="M433.2 80.2388C412.7 79.1388 394.7 71.9388 377.2 64.9388C365.3 60.1388 353.1 55.2388 340 52.2388C319.9 47.5388 297.9 48.1388 276.6 48.6388C268.8 48.8388 260.7 49.0388 253 48.9388C245.8 48.8388 238.3 48.6388 231.1 48.3388C206.9 47.4388 182 46.6388 158.9 52.3388C145.9 55.5388 133.2 59.8388 120.8 63.9388C100.9 70.6388 80.3 77.5388 58.7 80.0388L58.6 79.0388C80.2 76.5388 100.7 69.6388 120.5 62.9388C132.9 58.8388 145.6 54.5388 158.6 51.2388C181.8 45.4388 206.8 46.3388 231.1 47.2388C238.3 47.5388 245.8 47.7388 253 47.8388C260.7 47.9388 268.8 47.7388 276.6 47.5388C297.9 47.0388 320 46.4388 340.2 51.1388C353.4 54.2388 365.7 59.1388 377.6 63.9388C395 70.9388 412.9 78.1388 433.2 79.1388V80.2388Z" fill="white"/>
<path d="M435.1 86.4386C414.1 84.2386 397.3 74.5386 381 65.1386C369.7 58.6386 358 51.8386 344.8 47.5386C320.7 39.5386 294.1 45.2386 268.3 50.7386C263.5 51.7386 259.1 52.7386 254.6 53.6386C237.1 57.0386 219.3 59.0386 202 61.0386C187.2 62.6386 171.9 64.4386 157 67.0386C144.2 69.2386 131.5 72.3386 119.2 75.2386C98.9001 80.0386 77.9 85.0386 56.4 86.5386L56.3 85.5386C77.7 84.0386 98.6 79.0386 118.9 74.2386C131.2 71.3386 144 68.2386 156.8 66.0386C171.8 63.4386 187.1 61.7386 201.9 60.0386C219.1 58.1386 236.9 56.1386 254.4 52.7386C258.9 51.8386 263.4 50.9386 268.1 49.8386C294 44.2386 320.7 38.5386 345.1 46.6386C358.4 51.0386 370.1 57.8386 381.5 64.3386C398.5 74.1386 414.5 83.3386 435.2 85.5386L435.1 86.4386Z" fill="white"/>
<path d="M54.2 92.439V91.439C75.6 90.439 96.8999 86.939 117.6 83.639C129.9 81.639 142.6 79.539 155.3 78.039C190.9 73.739 221.7 68.339 256.1 55.939C259.9 54.539 263.7 53.139 267.7 51.639C294.1 41.639 324 30.239 350.2 41.839C363.3 47.639 374.2 56.139 384.9 64.239C400.8 76.439 415.8 88.039 437.3 91.439L437.1 92.439C415.4 88.939 400.3 77.339 384.3 65.039C373.7 56.939 362.8 48.539 349.9 42.739C324.1 31.239 294.4 42.539 268.2 52.539C264.2 54.039 260.4 55.539 256.6 56.839C222.1 69.239 191.2 74.739 155.5 79.039C142.9 80.539 130.2 82.639 117.8 84.639C97 88.039 75.7 91.539 54.2 92.439Z" fill="white"/>
<path d="M52.1 98.539V97.539C73.2 97.239 94.6 95.5389 115.3 93.8389C128.8 92.7389 142.7 91.639 156.5 90.9389C195.1 88.9389 222.9 78.2389 257.7 60.4389C261.2 58.639 264.9 56.6389 268.8 54.6389C294.2 41.0389 325.8 24.1389 352.8 36.6389C367.6 43.4389 378.7 54.539 389.4 65.239C403.8 79.539 417.3 93.139 439.2 97.539L439 98.539C416.9 94.039 402.6 79.7389 388.7 65.9389C378 55.3389 367 44.339 352.4 37.539C325.8 25.239 294.4 42.039 269.3 55.539C265.4 57.639 261.8 59.5389 258.2 61.4389C223.3 79.2389 195.4 90.039 156.6 92.039C142.8 92.739 128.9 93.839 115.4 94.9389C94.7 96.5389 73.2 98.239 52.1 98.539Z" fill="white"/>
<path d="M58.6 104.639C55.7 104.639 52.8 104.639 49.9 104.639V103.639C71.3 103.739 93.1 103.439 114.2 103.239C127.6 103.039 141.4 102.939 155 102.839C196.8 102.639 224.4 87.7389 258.9 66.7389C262.3 64.7389 265.8 62.4389 269.5 60.0389C295.8 43.3389 328.5 22.4389 357 36.6389C372 44.1389 382.4 56.3389 392.5 68.2389C405.9 83.9389 418.6 98.8389 441 103.539L440.8 104.539C418 99.7389 404.7 84.0389 391.7 68.8389C381.7 57.0389 371.3 44.9389 356.5 37.5389C328.5 23.6389 296.1 44.2389 270 60.8389C266.3 63.2389 262.7 65.4389 259.4 67.5389C225.9 87.9389 196.9 103.539 155 103.739C141.4 103.839 127.6 103.939 114.2 104.139C96 104.339 77.2 104.639 58.6 104.639Z" fill="white"/>
<path d="M63.6 111.739C58.2 111.739 52.8 111.739 47.4 111.639V110.639C68.6 111.039 90.1 110.539 110.9 110.039C124.7 109.739 139 109.339 153 109.339C195.3 109.139 224.5 94.7389 258.2 76.0389C261.8 74.0389 265.6 71.8389 269.5 69.5389C296 54.0389 329 34.8389 357.3 47.8389C372.4 54.7389 383.3 66.3389 393.8 77.5389C407.8 92.3389 421 106.439 443.1 110.639L442.9 111.639C420.4 107.339 406.5 92.5389 393 78.2389C382.5 67.1389 371.7 55.6389 356.8 48.7389C328.9 36.0389 296.2 55.1389 269.9 70.4389C265.9 72.7389 262.1 74.9389 258.5 76.9389C224.7 95.7389 195.4 110.139 152.8 110.339C138.8 110.439 124.5 110.739 110.7 111.039C95.4 111.339 79.5 111.739 63.6 111.739Z" fill="white"/>
<path d="M48.2999 118.939C47.0999 118.939 45.9 118.939 44.7 118.939V117.939C66 118.139 87.4 116.139 108.1 114.139C120.7 112.939 133.8 111.639 146.8 110.939C151.3 110.639 155.7 110.539 159.9 110.439C173.9 109.939 187.1 109.539 201 105.539C216.8 100.939 232.4 94.439 247.4 88.039C250.1 86.939 252.7 85.739 255.4 84.639C259.6 82.939 263.9 81.039 268.4 78.939C295.6 66.939 329.5 51.939 357.8 64.239C371.7 70.339 382.9 79.739 393.7 88.939C409.1 101.939 423.7 114.239 445.4 117.739L445.2 118.739C423.2 115.239 407.8 102.239 393 89.639C382.2 80.539 371.1 71.139 357.3 65.139C329.5 52.939 297.2 67.239 268.7 79.839C264.1 81.839 259.9 83.739 255.7 85.539C253 86.639 250.4 87.739 247.7 88.939C232.6 95.339 217.1 101.839 201.2 106.439C187.2 110.439 173.9 110.939 159.9 111.339C155.6 111.439 151.2 111.639 146.8 111.839C133.9 112.539 120.8 113.839 108.2 115.039C88.7 116.939 68.5 118.939 48.2999 118.939Z" fill="white"/>
<path d="M42.2 126.139V125.139C63.6 124.739 84.5999 120.539 104.8 116.539C117.2 114.039 130.1 111.539 143 109.839C147.7 109.239 152.3 108.639 156.9 108.039C189.3 103.839 219.9 99.9389 252.3 91.3389C257.5 89.9389 262.8 88.4389 268.4 86.7389C296.6 78.5389 328.5 69.2389 355.5 79.0389C369.7 84.2389 381.9 92.3389 393.7 100.239C410.6 111.439 426.5 122.139 447.9 125.039L447.8 126.039C426.2 123.039 409.4 111.839 393.1 101.039C381.3 93.2389 369.1 85.1389 355.1 79.9389C328.4 70.2389 296.7 79.4389 268.7 87.6389C263.1 89.2389 257.8 90.8389 252.6 92.2389C220.2 100.839 189.5 104.839 157.1 108.939C152.5 109.539 147.9 110.139 143.2 110.739C130.3 112.439 117.5 115.039 105.1 117.439C84.7 121.539 63.7 125.739 42.2 126.139Z" fill="white"/>
<path d="M39.5 133.439L39.4 132.439C60.7 131.039 80.6 124.539 99.8 118.239C113.1 113.839 126.9 109.339 141.2 106.439C163.3 102.039 186.9 101.039 209.7 100.039C222.5 99.4387 235.6 98.9387 248.3 97.7387C255.7 97.0387 263.2 96.1387 271.1 95.1387C297.6 91.8387 325.1 88.3387 349.8 94.7387C365.2 98.7387 379.3 105.639 392.8 112.439C410.5 121.239 428.9 130.339 450.1 132.539L450 133.539C428.6 131.339 410.2 122.139 392.3 113.339C378.8 106.639 364.8 99.6387 349.4 95.7387C324.9 89.4387 297.6 92.8387 271.1 96.2387C263.2 97.2387 255.7 98.1387 248.2 98.8387C235.5 100.039 222.3 100.539 209.5 101.139C186.8 102.139 163.2 103.139 141.2 107.539C127 110.339 113.2 114.939 99.9 119.239C80.9 125.539 61 132.039 39.5 133.439Z" fill="white"/>
<path d="M452.4 140.739C430.9 139.139 411.1 132.139 391.9 125.239C377.3 120.039 362.2 114.739 346.5 111.739C325.6 107.839 303.3 107.239 281.8 106.539C269.5 106.139 256.7 105.839 244.5 104.839C237.5 104.239 230.6 103.539 223.2 102.739C194.2 99.7386 164.3 96.6386 137.3 104.339C123 108.439 109.7 114.639 96.8 120.639C78.2 129.239 59 138.239 37 140.639L36.9 139.639C58.8 137.239 77.9 128.339 96.4 119.739C109.3 113.739 122.7 107.539 137 103.439C164.2 95.6386 194.2 98.8386 223.3 101.839C230.7 102.639 237.6 103.339 244.6 103.839C256.8 104.839 269.6 105.139 281.9 105.539C303.5 106.139 325.8 106.839 346.8 110.739C362.6 113.739 377.7 119.039 392.4 124.239C411.5 131.039 431.3 138.039 452.6 139.639L452.4 140.739Z" fill="white"/>
<path d="M454.7 148.039C432.7 147.039 411.5 141.939 390.9 137.039C376.4 133.639 361.5 130.039 346.4 127.839C337.3 126.539 328.2 125.339 319.5 124.239C292.6 120.739 267.2 117.439 240.7 111.039C236.1 109.939 231.2 108.639 226.6 107.439C194.5 99.1388 161.3 90.5388 130.7 102.939C117.7 108.239 105.8 115.339 94.3 122.239C75.4 133.639 57.5001 144.439 34.4001 147.839L34.3 146.839C57.2 143.439 75 132.639 93.9 121.339C105.4 114.439 117.3 107.239 130.4 101.939C161.3 89.4388 194.7 98.0388 226.9 106.439C231.6 107.639 236.4 108.939 241 110.039C267.4 116.439 292.8 119.739 319.7 123.239C328.5 124.339 337.6 125.539 346.7 126.839C361.9 129.039 376.8 132.539 391.3 136.039C411.8 140.939 433 145.939 454.9 147.039L454.7 148.039Z" fill="white"/>
<path d="M457 155.439C434.6 154.739 412.2 151.539 390.5 148.439C375.3 146.239 359.5 143.939 343.9 142.639C305.8 139.339 273.9 131.739 237.3 117.439C233.6 116.039 229.9 114.539 226.1 112.939C194.7 100.239 159.1 85.9387 126.9 102.039C114.2 108.339 103 116.639 92.1 124.539C73.5 138.139 55.9 151.039 31.7 155.339L31.5 154.339C55.5 150.039 73 137.239 91.5 123.739C102.4 115.739 113.7 107.439 126.5 101.139C159.1 84.8387 194.9 99.2387 226.5 112.039C230.4 113.639 234 115.039 237.7 116.539C274.3 130.839 306.1 138.339 344.1 141.639C359.8 143.039 375.5 145.239 390.8 147.439C412.4 150.539 434.8 153.739 457.2 154.439L457 155.439Z" fill="white"/>
<path d="M459.3 162.739C436 162.739 412.3 161.739 389.4 160.739C373.8 160.039 357.6 159.339 341.7 158.939C301.7 158.039 272 146.239 234.3 126.339C231.2 124.639 228 122.939 224.7 121.239C193.1 104.139 157.3 84.7387 123.3 103.639C110.6 110.639 99.7 119.839 89.1 128.739C71 143.939 53.9 158.239 28.8 162.739L28.6 161.739C53.4 157.339 70.4 143.039 88.4 127.939C99 119.039 110 109.839 122.7 102.739C157.2 83.6387 193.2 103.139 225 120.339C228.2 122.039 231.4 123.839 234.5 125.439C272.1 145.339 301.7 157.039 341.5 157.939C357.4 158.339 373.6 159.039 389.2 159.739C412.1 160.739 435.7 161.739 459 161.739V162.739H459.3Z" fill="white"/>
<path d="M349.4 171.139C346.1 171.139 342.8 171.139 339.5 171.139C297.8 170.939 268 155.839 233.5 136.239C230.8 134.739 228.1 133.139 225.3 131.539C194.2 113.539 159 93.1387 124 110.339C109.8 117.339 97.8 127.439 86.3 137.139C68.3 152.339 51.3 166.739 26 170.639L25.8 169.639C50.8 165.739 67.7001 151.439 85.6001 136.339C97.2001 126.539 109.1 116.439 123.5 109.339C158.9 91.9387 194.4 112.439 225.7 130.539C228.5 132.139 231.2 133.739 233.9 135.239C268.3 154.739 297.9 169.739 339.4 170.039C355.4 170.139 371.6 169.939 387.3 169.839C411.6 169.639 436.7 169.339 461.4 170.039V171.039C436.7 170.339 411.6 170.639 387.3 170.839C374.9 170.939 362.1 171.139 349.4 171.139Z" fill="white"/>
<path d="M22.9001 179.639L22.8 178.639C47.8 175.439 66.1001 162.639 85.5001 149.239C96.6001 141.539 108.2 133.439 121.2 127.339C157.5 110.339 194.6 128.739 227.3 144.939C229.8 146.139 232.3 147.439 234.8 148.639C269.8 165.839 302.8 182.039 342.9 177.239C356.8 175.539 370.7 173.039 384.1 170.639C406.4 166.639 429.5 162.439 453.1 162.139V163.139C429.6 163.339 406.6 167.539 384.3 171.639C370.9 174.039 357 176.639 343 178.239C302.6 183.039 269.4 166.739 234.3 149.539C231.8 148.339 229.3 147.139 226.8 145.839C194.3 129.639 157.4 111.339 121.6 128.239C108.7 134.339 97.2001 142.339 86.1001 150.039C66.5001 163.639 48.1001 176.339 22.9001 179.639Z" fill="white"/>
<path d="M19.6 188.739L19.5 187.739C44.5 185.139 64.1 174.139 84.9 162.539C96.6 156.039 108.8 149.239 122 144.039C159 129.639 194.9 144.839 229.7 159.539C231.7 160.439 233.8 161.239 235.8 162.139C239 163.439 242.2 164.839 245.4 166.239C277 179.739 309.6 193.739 343 183.839C356.4 179.839 369 174.239 381.1 168.739C400.1 160.139 419.8 151.339 442.7 149.239L442.8 150.239C420.1 152.339 401.4 160.739 381.5 169.639C369.3 175.139 356.8 180.739 343.3 184.739C309.6 194.739 276.8 180.639 245 167.039C241.8 165.639 238.6 164.239 235.4 162.939C233.4 162.139 231.4 161.239 229.3 160.339C194.7 145.739 158.9 130.639 122.4 144.839C109.3 149.939 97.2 156.739 85.4 163.239C64.5 175.139 44.8 186.139 19.6 188.739Z" fill="white"/>
<path d="M16.4001 197.739L16.3 196.739C41.4 194.839 62.5 185.839 84.8 176.239C97.1001 170.939 109.8 165.439 123.3 161.339C161.1 149.739 198 162.439 233.6 174.739L237.1 175.939C241.5 177.439 245.9 179.039 250.6 180.839C280.8 191.839 314.9 204.339 343.3 190.539C356.4 184.139 367.3 175.339 377.8 166.839C394.2 153.539 409.8 140.939 433.1 136.839L433.3 137.839C410.2 141.939 394.8 154.439 378.5 167.639C367.9 176.139 357 185.039 343.8 191.439C315.1 205.439 280.7 192.939 250.4 181.839C245.7 180.139 241.2 178.439 236.9 176.939L233.4 175.739C197.9 163.539 161.2 150.839 123.7 162.339C110.3 166.439 97.6 171.939 85.4 177.139C62.8 186.839 41.6001 195.939 16.4001 197.739Z" fill="white"/>
<path d="M311.4 206.939C292.6 206.939 271.9 200.839 253.9 195.639C248.4 194.039 243.2 192.539 238.4 191.239C201.8 181.739 164 171.939 125.1 180.439C111.5 183.439 98.3 187.439 85.5 191.339C62.6 198.339 38.8 205.539 13.4 206.439V205.439C38.7 204.539 62.4 197.339 85.3 190.439C98.1 186.539 111.4 182.539 125 179.539C164.2 171.039 202.1 180.839 238.8 190.339C243.6 191.539 248.8 193.139 254.4 194.739C283.8 203.339 320.4 214.039 343.8 196.839C356 187.839 364.8 176.139 373.3 164.739C386.6 147.039 399.1 130.339 423.4 123.639L423.7 124.639C399.8 131.239 387.3 147.839 374.2 165.339C365.7 176.739 356.8 188.539 344.5 197.639C334.8 204.439 323.5 206.939 311.4 206.939Z" fill="white"/>
<path d="M307.3 216.439C290.9 216.439 272.8 212.539 256.9 209.139C250.8 207.839 245 206.539 239.9 205.739C201.7 199.139 164.3 193.639 126.4 198.739C112.6 200.639 98.9 203.239 85.6 205.739C61.2 210.439 35.9 215.239 10 215.339V214.339C35.8 214.339 61 209.439 85.4 204.839C98.7 202.339 112.4 199.639 126.2 197.839C164.2 192.739 201.7 198.239 240 204.839C245.1 205.739 250.9 206.939 257 208.239C286.9 214.639 324.2 222.739 344 203.539C355.7 192.339 362.5 177.539 369.2 163.339C379.3 141.639 388.9 121.139 413.9 111.839L414.2 112.739C389.6 121.839 380.1 142.239 370 163.739C363.3 178.039 356.4 192.839 344.6 204.239C335.2 213.339 321.9 216.439 307.3 216.439Z" fill="white"/>
<path d="M302.1 226.139C287.8 226.139 272.7 223.939 259.7 222.039C253 221.039 246.7 220.139 241.2 219.639C204.9 216.139 166 213.339 127.4 215.939C113.4 216.839 99.2999 218.239 85.6 219.639C59.9 222.239 33.3 224.939 6.69995 224.339V223.339C33.2 223.939 59.7999 221.239 85.3999 218.639C99.0999 217.239 113.2 215.839 127.2 214.939C165.9 212.339 204.8 215.239 241.2 218.639C246.7 219.139 253 220.039 259.7 221.039C288.3 225.239 327.6 230.939 344.7 210.939C355.9 197.839 361.1 180.439 366.1 163.739C373.3 139.639 380.8 114.639 406.5 103.239L406.9 104.139C381.8 115.339 374.7 138.939 367.2 163.939C362.2 180.839 356.9 198.339 345.6 211.539C336 222.839 319.7 226.139 302.1 226.139Z" fill="white"/>
<path d="M298.2 236.139C286.2 236.139 273.8 234.939 262.4 233.839C255 233.139 248 232.439 242.2 232.239C200.4 230.839 158 231.739 117 232.739C79.8 233.539 41.3 234.439 3.40002 233.539V232.539C41.2 233.439 79.7 232.639 116.9 231.739C157.9 230.839 200.3 229.839 242.1 231.239C247.9 231.439 255 232.139 262.4 232.839C291.2 235.539 330.7 239.239 346.1 219.339C357.1 205.039 361 185.539 364.7 166.739C370 139.839 375.6 112.039 402.2 99.5386L402.6 100.439C376.4 112.739 371.2 139.039 365.7 166.939C361.9 185.939 358 205.439 346.9 219.939C337.1 232.839 318.4 236.139 298.2 236.139Z" fill="white"/>
<path d="M297.3 245.839C286.4 245.839 275.1 245.039 264.7 244.339C256.4 243.739 248.6 243.239 242.4 243.239C207.5 243.239 172.5 243.239 137.6 243.239C92.5 243.239 45.9 243.239 0 243.239V242.239C45.9 242.339 92.5 242.239 137.6 242.239C172.5 242.239 207.5 242.239 242.4 242.239C248.7 242.239 256.5 242.839 264.8 243.339C293.9 245.439 333.8 248.239 348.3 229.239C359.5 214.639 362.6 193.739 365.6 173.439C369.9 144.639 374.3 114.839 402.3 103.039L402.7 103.939C375.2 115.539 370.9 145.039 366.6 173.539C363.6 193.839 360.5 214.939 349.1 229.739C339.2 242.739 318.9 245.839 297.3 245.839Z" fill="white"/>
</svg>
