<svg width="448" height="366" viewBox="0 0 448 366" fill="none" xmlns="http://www.w3.org/2000/svg">
<path d="M225.346 365.8C183.046 365.8 149.246 333.2 116.546 301.6C101.346 287 87.0464 273.1 72.3464 263.1C63.9464 257.3 53.9464 252.8 44.2464 248.4C31.9464 242.7 19.1464 236.9 9.4464 228.5C-2.7536 217.8 -3.1536 201.6 8.3464 178.7C12.5464 170.4 17.3464 162.3 22.0464 154.5C29.1464 142.6 36.5464 130.3 41.7464 117C43.1464 113.3 44.6464 109.4 45.9464 105.7C53.8464 84.3001 61.9464 62.2001 78.5464 47.0001C104.746 23.0001 141.346 32.3001 176.646 41.3001C194.546 45.9001 211.446 50.2001 226.446 50.0001C239.346 49.9001 254.646 47.0001 270.846 44.0001C308.146 37.0001 350.446 29.1001 376.346 52.8001C392.046 67.1001 399.746 87.4001 407.146 107.1C408.746 111.3 410.346 115.6 412.046 119.7C416.546 130.9 422.846 141.4 428.846 151.5C433.446 159.3 438.246 167.3 442.246 175.7C460.146 213.1 431.246 229.5 403.346 245.3C394.546 250.3 385.346 255.5 377.846 261.3C364.446 271.6 351.546 284.5 337.946 298.3C305.146 331.3 271.246 365.4 226.446 366C226.146 365.8 225.746 365.8 225.346 365.8ZM121.546 32.6001C105.946 32.6001 91.4464 36.4001 79.2464 47.6001C62.8464 62.6001 54.7464 84.6001 46.8464 105.9C45.4464 109.7 44.0464 113.5 42.6464 117.2C37.4464 130.7 30.0464 143 22.9464 154.9C18.2464 162.7 13.4464 170.8 9.2464 179.1C-2.0536 201.5 -1.7536 217.4 10.0464 227.7C19.6464 236.1 32.3464 241.9 44.7464 247.5C54.4464 251.9 64.5464 256.5 73.0464 262.3C87.8464 272.4 102.146 286.3 117.346 300.9C150.146 332.6 184.146 365.4 226.546 364.8C270.946 364.2 304.746 330.2 337.346 297.4C351.046 283.6 363.946 270.7 377.346 260.3C384.946 254.5 394.046 249.3 402.946 244.3C431.746 228 458.946 212.6 441.446 176C437.446 167.7 432.646 159.7 428.046 151.9C421.946 141.7 415.746 131.3 411.146 120C409.446 115.9 407.846 111.5 406.246 107.4C398.846 87.9001 391.246 67.7001 375.746 53.5001C350.146 30.2001 308.146 38.0001 271.046 45.0001C254.846 48.0001 239.446 50.9001 226.446 51.1001C211.346 51.3001 194.346 46.9001 176.346 42.3001C157.946 37.5001 139.046 32.6001 121.546 32.6001Z" fill="white"/>
<path d="M225.746 348.4C189.946 348.4 157.646 317.5 126.346 287.6C110.746 272.7 96.0465 258.6 81.2465 248.7C70.5465 241.5 59.1465 235.1 46.1465 229.2C44.0465 228.2 41.5465 227.3 38.8465 226.4C33.2465 224.4 27.0465 222.2 23.2465 218.7C11.0465 207.3 17.8465 189.1 23.9465 176.5C28.0465 168.1 32.8465 159.9 37.5465 151.9C43.3465 142.1 49.2465 131.9 53.9465 121.3C56.2465 116 58.5465 110.3 60.6465 104.8C67.9465 86.1999 75.4465 66.9999 90.2465 53.1999C115.146 29.8999 151.446 38.9999 183.346 47.0999C198.946 50.9999 213.646 54.6999 226.146 54.5999C237.446 54.4999 251.146 51.7999 265.646 48.8999C299.646 42.0999 338.146 34.4999 362.946 57.3999C376.946 70.3999 384.246 87.8999 391.246 104.9C393.146 109.5 395.146 114.3 397.246 118.9C401.646 128.7 407.046 138.1 412.346 147.2C417.246 155.7 422.246 164.4 426.546 173.5C441.846 206.1 416.546 219.4 392.046 232.2C383.746 236.6 375.146 241.1 368.146 246.3C354.646 256.4 341.246 269.9 327.046 284.2C295.846 315.7 263.646 348.2 226.246 348.6C226.146 348.4 225.946 348.4 225.746 348.4ZM226.246 347.4C263.146 347.1 295.246 314.7 326.346 283.3C340.546 269 353.946 255.4 367.546 245.3C374.546 240 383.246 235.5 391.546 231.1C416.746 217.9 440.446 205.4 425.646 173.7C421.446 164.7 416.446 156 411.546 147.5C406.246 138.4 400.846 128.9 396.446 119.1C394.346 114.5 392.346 109.7 390.446 105.1C383.446 88.1999 376.246 70.7999 362.446 57.8999C338.046 35.2999 299.846 42.8999 266.046 49.5999C251.546 52.4999 237.846 55.1999 226.346 55.2999C213.746 55.3999 198.946 51.6999 183.346 47.6999C151.646 39.6999 115.646 30.6999 91.1465 53.5999C76.3465 67.2999 68.9465 86.3999 61.6465 104.9C59.5465 110.4 57.2465 116.1 54.9465 121.4C50.2465 132.1 44.2465 142.3 38.4465 152.1C33.7465 160 28.9465 168.3 24.8465 176.6C18.3465 190 12.3465 206.8 23.8465 217.6C27.4465 221 33.6465 223.2 39.1465 225.1C41.8465 226.1 44.3465 227 46.5465 227.9C59.5465 233.9 71.0465 240.3 81.7465 247.5C96.5465 257.5 111.346 271.6 126.946 286.6C158.046 316.4 190.246 347.2 225.646 347.2C225.946 347.4 226.146 347.4 226.246 347.4Z" fill="white"/>
<path d="M225.746 319.3C193.746 319.3 163.346 292.1 134.046 265.8C119.046 252.4 104.846 239.7 90.6463 230.6C80.8463 224.3 71.5463 219.4 62.3463 215.4C60.3463 214.5 57.5463 213.8 54.6463 213C48.8463 211.4 42.3463 209.6 39.2463 206.4C29.4463 196.5 34.5463 181.8 40.0463 170C44.1463 161.3 48.9463 152.8 53.5463 144.5C58.5463 135.6 63.6463 126.4 67.9463 117C70.0463 112.4 72.0463 107.5 74.0463 102.8C81.1463 85.9 88.4463 68.5 101.846 55.6C125.646 32.9 159.446 39.7 189.246 45.7C202.346 48.4 214.746 50.9 225.646 50.9C235.946 51 247.846 49 260.446 46.9C291.346 41.8 326.346 36 349.846 58.3C362.346 70.2 369.546 86.1 376.346 101.4C377.946 105.1 379.646 108.8 381.446 112.5C385.446 121 390.146 129.3 394.646 137.3C400.046 146.9 405.546 156.8 410.146 167C422.946 195.7 401.946 205.6 379.746 216C372.046 219.6 364.046 223.4 357.546 228C344.846 237 332.046 249.3 318.446 262.2C288.946 290.3 258.446 319.3 225.746 319.3ZM145.746 40.9C129.946 40.9 114.846 44.6 102.446 56.4C89.1463 69.1 81.8463 86.4 74.8463 103.2C72.8463 107.9 70.8463 112.8 68.7463 117.4C64.4464 126.9 59.2463 136.1 54.2463 145C49.6463 153.2 44.8463 161.8 40.7463 170.4C30.4463 192.2 34.7463 200.7 39.7463 205.7C42.7463 208.7 49.1463 210.5 54.7463 212C57.7463 212.8 60.5463 213.6 62.5463 214.5C71.7463 218.5 81.0463 223.5 90.9463 229.8C105.246 238.9 119.446 251.6 134.546 265.1C163.746 291.2 193.946 318.3 225.546 318.3H225.646C257.946 318.3 288.346 289.4 317.646 261.5C331.246 248.5 344.146 236.3 356.846 227.2C363.346 222.5 371.446 218.8 379.146 215.1C400.846 204.9 421.346 195.3 409.046 167.5C404.546 157.3 399.046 147.5 393.646 137.9C389.146 129.8 384.446 121.5 380.446 113C378.746 109.3 377.046 105.6 375.346 101.9C368.546 86.7 361.446 70.9 349.046 59.1C325.946 37.1 291.146 42.9 260.546 48C247.946 50.1 236.046 52 225.646 52C214.646 52 202.146 49.5 189.046 46.8C175.046 44 160.146 40.9 145.746 40.9Z" fill="white"/>
<path d="M224.747 282C195.047 282 167.347 259.9 140.447 238.5C126.647 227.5 113.647 217.2 100.447 209.7C93.9465 206 86.7465 203.5 79.8465 201C68.1465 196.9 57.1465 192.9 53.3465 184.2C50.7465 178.3 51.6465 170.5 56.0465 160.5C60.3465 150.7 65.5465 141 70.4465 131.7C74.0465 124.9 77.8465 117.8 81.2465 110.7C83.2465 106.6 85.1465 102.3 87.0465 98.1C93.8465 83 100.847 67.4001 112.847 55.2001C135.247 32.5001 167.347 36.4001 195.747 39.8001C205.947 41.0001 215.547 42.2001 224.547 42.2001C233.047 42.2001 242.147 41.4 251.847 40.5C280.747 37.8 313.547 34.7001 336.447 56.8001C348.447 68.3001 355.747 83.7001 362.847 98.5001C364.747 102.5 366.747 106.6 368.747 110.6C371.447 116 374.447 121.3 377.247 126.5C382.747 136.6 388.447 147 392.947 157.7C396.347 166 396.847 172.8 394.447 178.4C390.347 188.1 378.447 192.8 365.847 197.8C358.947 200.5 351.847 203.3 346.047 207C334.047 214.6 322.247 224.7 309.647 235.4C282.847 258.4 255.047 282 224.747 282ZM162.747 38.2001C144.647 38.2001 127.547 42 113.747 55.9C101.947 67.9 94.9465 83.4001 88.1465 98.5001C86.2465 102.7 84.3465 107 82.3465 111.1C78.9465 118.2 75.1465 125.3 71.4465 132.1C66.4465 141.4 61.3465 151 57.0465 160.8C52.7465 170.5 51.8465 178 54.3465 183.7C57.9465 192.1 68.3465 195.7 80.2465 200C87.2465 202.5 94.4465 205 101.047 208.8C114.347 216.4 127.347 226.7 141.147 237.7C167.847 259 195.447 280.9 224.747 281C254.647 281 282.347 257.5 309.047 234.7C321.647 224 333.547 213.8 345.647 206.2C351.547 202.4 358.747 199.6 365.647 196.9C378.047 192 389.747 187.4 393.747 178.1C396.047 172.7 395.547 166.2 392.247 158.2C387.847 147.5 382.147 137.1 376.647 127.1C373.747 121.9 370.847 116.5 368.147 111.1C366.147 107.1 364.147 103 362.247 99.0001C355.247 84.3001 347.947 69 336.047 57.6C313.447 35.9 280.947 38.9 252.247 41.6C242.547 42.5 233.447 43.3001 224.847 43.3001C215.847 43.3001 206.147 42.1 195.947 40.9C184.747 39.5001 173.547 38.2001 162.747 38.2001Z" fill="white"/>
<path d="M224.546 240.1C224.246 240.1 224.046 240.1 223.746 240.1C196.046 239.8 171.746 223.9 148.346 208.5C136.346 200.6 123.946 192.5 111.346 186.8C105.746 184.2 99.6465 182.6 93.8465 181.1C83.4465 178.4 74.5465 176 71.0465 169.1C68.5465 164.2 69.1465 157.5 72.6465 148.5C84.6465 118.2 100.946 76.7 124.046 52.1C146.346 28.3 177.346 29.3 207.346 30.2C212.846 30.4 218.446 30.5 223.846 30.5C228.346 30.5 233.146 30.4 237.746 30.3C268.746 29.8 300.746 29.2 324.146 52.8C342.046 70.9 359.546 102.2 376.046 146C378.946 153.6 379.146 159.5 376.846 164.2C372.946 172 362.646 174.9 351.746 178C345.746 179.7 339.546 181.5 334.446 184.1C323.246 189.9 312.246 197.7 300.646 205.9C276.746 222.8 252.246 240.1 224.546 240.1ZM189.646 30.9C165.646 30.9 142.346 34 124.646 52.8C101.746 77.2 85.4465 118.6 73.4465 148.8C70.0465 157.5 69.4465 164 71.7465 168.6C75.0465 175.2 83.8465 177.5 93.9465 180.1C99.8465 181.6 105.946 183.2 111.646 185.9C124.246 191.7 136.746 199.8 148.746 207.7C172.046 223 196.146 238.8 223.646 239.1C251.446 239.4 276.046 222 299.746 205.1C311.346 196.9 322.346 189.1 333.646 183.2C338.846 180.5 345.146 178.7 351.146 177C361.846 174 371.946 171.1 375.646 163.7C377.846 159.3 377.646 153.6 374.846 146.3C358.346 102.7 340.946 71.4 323.146 53.5C300.046 30.2 268.246 30.8 237.546 31.3C232.946 31.4 228.246 31.5 223.646 31.5C218.246 31.5 212.546 31.3 207.146 31.1C201.346 31 195.446 30.9 189.646 30.9Z" fill="white"/>
<path d="M221.146 197.2C199.246 197.2 178.446 187.4 158.346 178C146.846 172.6 134.846 167 122.946 163.4C118.246 162 113.246 161.3 108.446 160.6C99.5463 159.4 91.7463 158.3 88.4463 152.9C86.0463 149 86.2463 143 89.1463 134.7C106.846 83.8999 125.346 58.0999 134.746 47.2999C156.946 21.7999 190.146 18.2 222.646 18.2C241.946 18.2 257.046 19.7999 270.146 23.2999C287.346 27.9999 300.946 35.8999 311.546 47.5999C333.146 71.1999 349.846 107 358.246 132.6C360.646 139.8 360.646 145.1 358.246 149C354.446 155.1 345.446 156.5 335.946 157.9C330.946 158.7 325.746 159.4 321.346 161C309.646 165 298.346 170.7 287.246 176.2C266.846 186.3 245.846 196.8 222.646 197.2C222.146 197.2 221.646 197.2 221.146 197.2ZM223.546 19.0999C223.246 19.0999 222.946 19.0999 222.646 19.0999C190.346 19.1999 157.346 22.6999 135.446 47.8999C126.046 58.6999 107.746 84.2999 90.0463 134.9C87.2463 142.9 87.0463 148.6 89.2463 152.2C92.3463 157.3 99.8463 158.3 108.546 159.5C113.446 160.2 118.446 160.9 123.246 162.3C135.246 165.9 147.146 171.6 158.746 177C179.246 186.6 200.346 196.6 222.646 196.1C245.646 195.6 266.546 185.2 286.846 175.2C297.846 169.7 309.346 164 321.046 160C325.546 158.4 330.746 157.7 335.846 156.9C345.146 155.5 353.846 154.2 357.446 148.4C359.646 144.8 359.646 139.7 357.346 132.8C348.946 107.3 332.346 71.6999 310.846 48.0999C287.346 22.5999 251.946 19.0999 223.546 19.0999Z" fill="white"/>
<path d="M221.346 156.8C205.246 156.8 189.846 152.7 175.046 148.6C162.146 145.1 148.846 141.5 135.146 140.7C132.346 140.5 129.446 140.5 126.546 140.6C117.746 140.6 109.446 140.7 105.746 135.7C103.346 132.4 103.346 127.2 105.746 119.9C110.446 105.4 123.846 68.9 145.246 41.9C162.446 20.2 190.946 7.29997 221.646 7.49997C252.446 7.59997 281.546 20.5 299.546 41.9C316.346 61.9 332.446 91.9 340.446 118.2C342.446 124.7 342.246 129.4 339.846 132.7C335.746 138.3 326.346 138.4 317.146 138.4C313.846 138.4 310.746 138.5 308.046 138.7C294.746 140.1 281.946 143.9 269.646 147.5C254.346 152 238.546 156.7 221.646 156.8C221.546 156.8 221.446 156.8 221.346 156.8ZM128.946 139.5C131.046 139.5 133.146 139.5 135.246 139.7C149.046 140.6 162.446 144.2 175.346 147.7C190.246 151.7 205.546 155.9 221.646 155.8C238.446 155.8 254.146 151.1 269.346 146.5C281.746 142.8 294.546 139 307.946 137.6C310.746 137.3 313.846 137.3 317.146 137.3C326.046 137.2 335.246 137.1 339.046 132C341.246 129 341.446 124.5 339.546 118.4C331.546 92.2 315.546 62.4 298.846 42.5C281.046 21.3 252.246 8.59997 221.746 8.39997C221.546 8.39997 221.446 8.39997 221.246 8.39997C191.046 8.39997 162.946 21.1 146.046 42.5C124.746 69.4 111.446 105.8 106.746 120.2C104.446 127.2 104.446 132.1 106.646 135.1C110.046 139.7 118.046 139.7 126.646 139.6C127.346 139.5 128.146 139.5 128.946 139.5Z" fill="white"/>
<path d="M135.946 122.4C130.646 122.4 125.946 121.5 123.246 118.4C120.746 115.4 120.446 110.9 122.246 104.6C137.046 54.4 173.946 0.599976 220.146 0.599976C220.346 0.599976 220.446 0.599976 220.646 0.599976C235.946 0.699976 259.546 6.69998 284.646 34.5C302.046 53.6 315.746 78.7 322.446 103.3C323.946 109 323.546 113.3 321.146 116.2C316.346 122 304.746 120.9 296.246 120.1C295.546 120 294.846 120 294.246 119.9C279.446 118.6 264.246 119.8 249.446 120.9C239.446 121.7 230.046 122.4 220.746 122.4C212.346 122.4 203.746 121.9 194.746 121.4C179.346 120.5 163.346 119.6 148.046 121.4C144.246 121.9 139.946 122.4 135.946 122.4ZM220.246 1.49998C174.546 1.49998 137.946 55 123.246 104.8C121.546 110.7 121.746 115 124.046 117.7C128.346 122.8 139.246 121.5 147.946 120.4C163.346 118.5 179.346 119.5 194.746 120.4C203.846 120.9 212.346 121.4 220.746 121.4C230.046 121.4 239.446 120.7 249.346 119.9C264.146 118.8 279.546 117.6 294.346 118.9C295.046 119 295.646 119 296.346 119.1C304.646 119.8 315.946 120.9 320.446 115.5C322.646 112.9 323.046 108.8 321.546 103.5C314.946 79.1 301.246 54.2 283.946 35.1C259.046 7.59998 235.746 1.69998 220.646 1.59998C220.646 1.49998 220.446 1.49998 220.246 1.49998Z" fill="white"/>
<path d="M153.747 105.7C148.747 105.7 143.646 104.8 140.846 101.6C138.446 98.9 137.847 94.9 138.947 89.7C147.247 52.3 182.146 0 220.346 0C237.546 0 256.446 10.9 273.846 30.8C288.846 48.1 300.747 70.2 304.947 88.6C306.047 93.3 305.347 97 303.047 99.7C299.447 103.7 292.347 105.1 281.147 104C274.047 103.3 266.647 102.2 259.547 101.2C246.447 99.4 232.847 97.4 220.447 97.5C208.646 97.5 195.946 99.7 183.646 101.8C176.146 103.1 168.347 104.4 160.747 105.2C158.547 105.5 156.147 105.7 153.747 105.7ZM220.346 1C203.346 1 185.047 12 168.947 31.8C155.247 48.7 144.147 70.9 139.947 89.9C138.847 94.8 139.447 98.5 141.547 100.9C145.547 105.3 154.247 104.9 160.547 104.2C168.047 103.4 175.846 102 183.346 100.8C195.646 98.7 208.347 96.5 220.247 96.5C232.747 96.5 246.347 98.4 259.547 100.2C266.647 101.2 273.947 102.2 281.047 102.9C291.747 104 298.847 102.7 302.147 99C304.247 96.6 304.846 93.2 303.846 88.8C299.746 70.6 287.947 48.6 273.047 31.4C255.947 11.8 237.146 1 220.346 1Z" fill="white"/>
<path d="M176.246 90.2C168.046 90.2 161.046 89 157.546 85.3C155.346 83 154.646 79.9 155.446 76C158.546 61.7 167.246 44.8 178.246 31.8C191.246 16.4 206.146 7.79998 220.246 7.59998C220.446 7.59998 220.646 7.59998 220.846 7.59998C251.446 7.59998 282.946 48.4 287.346 75.3C287.946 79.2 287.146 82.4 284.846 84.7C276.346 93.2 250.346 89.2 233.246 86.5C227.446 85.6 222.746 84.9 220.346 84.9C218.346 84.9 214.246 85.6 209.046 86.5C199.646 88 186.946 90.2 176.246 90.2ZM220.646 8.49998C220.446 8.49998 220.346 8.49998 220.146 8.49998C206.346 8.69998 191.746 17.2 178.946 32.3C168.046 45.2 159.446 61.9 156.446 76.1C155.646 79.7 156.246 82.4 158.246 84.5C165.946 92.6 192.746 88.1 208.646 85.4C213.946 84.5 218.046 83.8 220.146 83.8C220.146 83.8 220.146 83.8 220.246 83.8C222.746 83.8 227.346 84.5 233.246 85.4C250.246 88 275.946 92 284.046 83.9C286.146 81.8 286.946 79 286.346 75.3C284.146 61.7 275.046 44.8 262.746 31.4C249.246 16.9 233.946 8.49998 220.646 8.49998Z" fill="white"/>
<path d="M194.446 77.2C186.146 77.2 178.246 76.1 174.346 72.1C172.346 70 171.446 67.3 171.846 64C174.246 43.3 197.446 17.1 220.146 17.1H220.246C241.846 17.2 268.346 42 269.946 63.6C270.146 66.7 269.246 69.3 267.246 71.3C260.146 78.3 241.046 76.8 228.446 75.8C225.046 75.5 222.046 75.3 220.146 75.3C218.546 75.3 216.046 75.6 212.946 75.9C207.746 76.5 200.946 77.2 194.446 77.2ZM220.146 18.1C197.946 18.1 175.246 43.8 172.846 64.2C172.446 67.2 173.246 69.6 175.046 71.5C181.746 78.3 201.246 76.3 212.846 75.1C216.046 74.8 218.546 74.5 220.146 74.5C222.046 74.5 225.046 74.7 228.446 75C240.146 75.9 259.746 77.5 266.446 70.7C268.246 68.9 269.046 66.6 268.846 63.8C268.146 54.1 261.846 42.7 251.946 33.4C242.146 23.8 230.146 18.1 220.146 18.1Z" fill="white"/>
<path d="M214.846 65.9C206.546 65.9 194.946 65.3 190.146 60.4C188.646 58.8 187.946 56.9 188.046 54.7C188.346 48.7 192.346 41.6 198.946 35.7C205.646 29.7 213.546 26.4 220.246 26.7C234.446 27.3 253.246 41.2 253.046 54.5C252.846 66 234.346 65.9 223.346 65.9C222.246 65.9 221.146 65.9 220.246 65.9H218.946C217.646 65.8 216.346 65.9 214.846 65.9ZM219.346 27.6C205.146 27.6 189.646 43.2 189.046 54.7C188.946 56.7 189.546 58.3 190.946 59.7C196.246 65.2 211.546 65 218.946 64.9H220.246C221.146 64.9 222.246 64.9 223.346 64.9C234.046 64.9 251.946 65 252.046 54.5C252.246 41.9 233.646 28.3 220.246 27.7C219.846 27.6 219.546 27.6 219.346 27.6Z" fill="white"/>
<path d="M220.146 56.3C215.246 56.3 208.646 55.6 205.646 52.5C204.546 51.4 203.946 50 204.046 48.4C204.146 42.8 211.446 36.1 220.246 36.1C229.146 36.1 236.546 42.8 236.646 48.3C236.646 49.8 236.146 51.2 235.046 52.3C232.446 54.9 227.246 56.3 220.146 56.3ZM220.146 37.2C212.146 37.2 205.046 43.4 204.946 48.5C204.946 49.8 205.346 50.9 206.246 51.8C208.446 54 213.346 55.3 220.046 55.3C226.846 55.3 231.846 54 234.046 51.7C234.946 50.8 235.446 49.7 235.346 48.4C235.446 43.3 228.346 37.2 220.146 37.2Z" fill="white"/>
<path d="M226.046 365.3C225.646 316.5 224.246 267 222.946 219.1C221.346 162.5 219.746 103.9 219.746 46.3H220.746C220.746 103.9 222.346 162.5 223.946 219.1C225.246 267 226.646 316.6 227.046 365.4L226.046 365.3Z" fill="white"/>
<path d="M445.146 214.7C406.746 200.2 375.046 169.8 344.446 140.5C339.146 135.4 334.146 130.6 329.046 125.9C324.046 121.2 318.946 116.2 313.546 111C286.346 84.5001 255.546 54.4001 219.946 46.7001L220.146 45.7001C256.046 53.4001 286.946 83.6001 314.246 110.2C319.646 115.5 324.746 120.4 329.746 125.1C334.846 129.8 339.846 134.7 345.146 139.7C375.646 169 407.246 199.3 445.446 213.7L445.146 214.7Z" fill="white"/>
<path d="M220.446 46.6L219.846 45.8C239.246 31.3 260.046 19 281.146 26.3C288.846 29 295.446 32.2 301.246 35C316.846 42.5 329.246 48.5 352.546 39.5L352.946 40.4C329.246 49.5 316.646 43.5 300.846 35.8C295.046 33 288.546 29.9 280.846 27.2C260.146 20.1 239.646 32.3 220.446 46.6Z" fill="white"/>
<path d="M219.846 46.6001C204.546 35.3001 183.546 19.8001 162.546 27.3001C155.946 29.6001 150.546 32.3001 145.846 34.7001C132.146 41.5001 123.046 46.0001 102.446 34.4001L102.946 33.5001C123.046 44.9001 131.946 40.5001 145.346 33.8001C150.146 31.4001 155.546 28.7001 162.146 26.4001C183.646 18.7001 204.846 34.4001 220.346 45.8001L219.846 46.6001Z" fill="white"/>
<path d="M3.14634 220.9L2.74634 220C40.4463 205.1 72.0463 172 99.9463 142.8C104.946 137.5 109.746 132.5 114.546 127.6C119.146 122.9 123.746 118 128.646 112.7C154.746 84.9001 184.246 53.4001 219.946 45.7001L220.146 46.7001C184.746 54.3001 155.346 85.7001 129.346 113.4C124.446 118.7 119.746 123.6 115.146 128.3C110.346 133.2 105.546 138.2 100.546 143.5C72.7463 172.7 41.1463 205.9 3.14634 220.9Z" fill="white"/>
</svg>
