<svg width="485" height="248" viewBox="0 0 485 248" fill="none" xmlns="http://www.w3.org/2000/svg">
<path d="M133.3 60.1563C122.2 60.1563 111.2 60.1563 100.3 60.1563C89.3 60.1563 78.3 60.1563 67.3 60.1563V59.1563C78.3 59.1563 89.3 59.1563 100.3 59.1563C122 59.1563 144.3 59.1563 166.4 59.1563C200.9 59.0563 221.3 46.2563 246.4 28.0563L247.7 27.0563C272.3 9.25627 297.7 -9.14373 329 5.05627C342.9 11.3563 355 20.3563 366.7 29.1563C384.9 42.7563 402.1 55.5563 425.5 59.1563L425.3 60.1563C401.6 56.4563 383.5 43.0563 366.1 29.9563C354.4 21.2563 342.4 12.2563 328.6 5.95626C297.8 -7.94374 272.6 10.2563 248.3 27.8563L247 28.8563C221.7 47.1563 201.1 60.0563 166.4 60.1563C155.4 60.1563 144.3 60.1563 133.3 60.1563Z" fill="white"/>
<path d="M130.2 65.9562C119.4 65.9562 108.5 65.9562 97.7001 65.9562H65.3V64.9562H97.7001C119.3 64.9562 141 64.9562 162.6 64.9562C196.1 64.9562 217.1 54.8562 246.4 35.0562L246.7 34.8562C274 16.3562 299.8 -1.14379 332.8 14.5562C345.4 20.5562 356.8 28.3562 367.8 35.8562C386.6 48.7562 404.4 60.8562 427.7 64.9562L427.5 65.9562C404 61.8562 385.3 49.0562 367.3 36.6562C356.3 29.1562 344.9 21.3562 332.4 15.4562C300 0.0562038 274.4 17.3562 247.3 35.7562L247 35.9562C217.5 55.8562 196.4 66.0562 162.7 66.0562C151.8 65.9562 141 65.9562 130.2 65.9562Z" fill="white"/>
<path d="M128.5 71.8561C117.6 71.8561 106.7 71.8561 95.9001 71.8561H63.1001V70.8561H95.9001C117.8 70.8561 139.6 70.8561 161.5 70.8561C194.6 70.8561 216.8 61.3561 246.2 43.9561L246.7 43.6561C274.4 27.1561 300.6 11.6561 333.1 25.4561C345.8 30.8561 357.5 37.8561 368.9 44.5561C388.3 56.0561 406.6 66.9561 429.4 70.8561L429.2 71.8561C406.2 67.9561 386.9 56.4561 368.3 45.3561C357 38.6561 345.2 31.6561 332.6 26.2561C300.5 12.6561 274.6 28.0561 247.1 44.3561L246.6 44.6561C217 62.2561 194.7 71.7561 161.4 71.7561C150.5 71.8561 139.5 71.8561 128.5 71.8561Z" fill="white"/>
<path d="M94.0999 77.9564H60.8999V76.9564H94.0999H160.5C193.5 76.9564 217.7 68.2564 246.1 54.3564C274.5 40.3564 301.3 27.1564 333.6 38.6564C346.3 43.1564 358.4 49.0564 370.1 54.7564C389.2 64.0564 409 73.7564 431.4 76.9564L431.3 77.9564C408.7 74.7564 388.9 64.9564 369.7 55.6564C358.1 49.9564 346 44.0564 333.3 39.5564C301.4 28.2564 274.8 41.3564 246.6 55.2564C218.1 69.2564 193.8 77.9564 160.5 77.9564H94.0999Z" fill="white"/>
<path d="M156.6 84.1564H58.7V83.1564H156.6C187.1 83.1564 212.9 78.0564 245.9 65.5564C274 54.9564 300.6 44.8564 331.1 52.4564C345.1 55.9564 358.7 61.0564 371.7 65.9564C391.2 73.2564 411.4 80.8564 433.2 83.0564L433.1 84.0564C411.2 81.8564 391 74.2564 371.4 66.8564C358.3 61.9564 344.8 56.8564 330.9 53.3564C300.7 45.8564 274.2 55.8564 246.3 66.3564C213.1 79.0564 187.2 84.1564 156.6 84.1564Z" fill="white"/>
<path d="M121.8 90.8565C111 90.8565 100.2 90.7565 89.4999 90.5565C78.6999 90.4565 67.3999 90.2565 56.3999 90.2565V89.2565C67.4999 89.2565 78.6999 89.3565 89.4999 89.5565C143.4 90.1565 194.2 90.7565 245.7 77.1565C276.8 68.8565 302.9 62.9565 331.5 67.8565C345.5 70.2565 359.4 73.8565 372.8 77.3565C392.9 82.6565 413.7 88.0565 435.2 89.3565L435.1 90.3565C413.5 89.0565 392.7 83.6565 372.5 78.3565C359.1 74.8565 345.3 71.2565 331.3 68.8565C302.8 63.9565 276.9 69.9565 245.9 78.1565C205.1 89.0565 163.1 90.8565 121.8 90.8565Z" fill="white"/>
<path d="M121.2 96.7564C110.1 96.7564 99 96.6564 88 96.5564C76.9 96.4564 65.5 96.3564 54.2 96.3564V95.3564C65.5 95.3564 76.9 95.4564 88 95.5564C139.8 95.9564 193.3 96.4564 245.5 86.9564C275.9 81.4564 303.3 77.1564 331.9 80.4564C346 82.0564 360.2 84.5564 373.8 87.0564C394.4 90.7564 415.6 94.4564 437.1 95.3564V96.3564C415.6 95.5564 394.3 91.7564 373.7 88.0564C360 85.6564 345.9 83.1564 331.8 81.4564C303.4 78.1564 276 82.4564 245.7 87.9564C204.6 95.4564 162.5 96.7564 121.2 96.7564Z" fill="white"/>
<path d="M125.5 102.656C113.3 102.656 101.1 102.556 89.0001 102.556C76.9001 102.456 64.4001 102.456 52.1001 102.456V101.456C64.4001 101.456 76.9001 101.556 89.0001 101.556C140.3 101.856 193.4 102.056 245.4 97.4561C287.1 93.7561 328.4 96.1561 368.4 98.4561C391.4 99.7561 415.2 101.156 439 101.356V102.356C415.2 102.156 391.4 100.756 368.4 99.4561C328.4 97.1561 287.1 94.7561 245.5 98.4561C205.7 101.956 165.3 102.656 125.5 102.656Z" fill="white"/>
<path d="M311.9 108.856C267.9 108.856 224.1 108.756 181 108.656C138 108.556 93.5999 108.456 49.8999 108.456V107.456C93.5999 107.456 138 107.556 181 107.656C266.2 107.856 354.3 107.956 440.9 107.456V108.456C398.1 108.756 354.9 108.856 311.9 108.856Z" fill="white"/>
<path d="M284.7 115.056C271.4 115.056 258.2 114.856 245 114.356C196 112.356 146.1 112.756 97.8999 113.156C80.9999 113.256 63.4999 113.456 46.3999 113.456V112.456C63.5999 112.456 80.9999 112.256 97.8999 112.156C146.2 111.756 196.1 111.356 245.1 113.356C279.7 114.756 314.8 113.856 348.8 113.056C380.1 112.256 412.4 111.456 444.2 112.456V113.456C412.4 112.456 380.1 113.256 348.8 114.056C327.7 114.456 306.3 115.056 284.7 115.056Z" fill="white"/>
<path d="M314.9 122.956C291.7 122.956 268.5 119.456 244.9 115.456C191.6 106.456 136.7 107.256 83.5999 108.056C70.4999 108.256 57 108.456 43.7 108.556V107.556C57 107.456 70.4999 107.256 83.5999 107.056C136.7 106.256 191.7 105.456 245.1 114.456C275.8 119.656 305.9 124.056 336 120.956C349.9 119.456 363.8 117.156 377.2 114.956C399.8 111.256 423.2 107.356 446.7 107.456V108.456C446.4 108.456 446.1 108.456 445.8 108.456C422.6 108.456 399.6 112.256 377.3 115.956C363.8 118.156 349.9 120.456 336 121.956C328.9 122.556 321.9 122.956 314.9 122.956Z" fill="white"/>
<path d="M315.1 129.756C290.8 129.756 267.4 122.356 244.7 115.156C190.4 97.9561 133.7 99.0561 78.6999 100.156C66.4999 100.356 53.8999 100.656 41.3999 100.656V99.6561C53.8999 99.5561 66.4999 99.3561 78.6999 99.1561C133.7 98.0561 190.6 96.9561 245 114.156C274.5 123.456 305.1 133.156 337.2 126.456C351.6 123.456 365.7 119.056 379.3 114.756C401.4 107.856 424.3 100.656 448.6 99.5561V100.556C424.4 101.556 401.6 108.756 379.6 115.656C365.9 119.956 351.8 124.356 337.4 127.356C329.8 129.056 322.4 129.756 315.1 129.756Z" fill="white"/>
<path d="M315.3 136.456C291.6 136.456 269.4 125.856 247.9 115.556L244.5 113.956C215.1 99.9561 187.8 90.5562 150.3 90.5562C150.1 90.5562 149.9 90.5562 149.7 90.5562L39.1001 90.8562V89.8562L149.7 89.5562C149.9 89.5562 150.1 89.5562 150.3 89.5562C188.1 89.5562 215.5 98.9562 245 113.056L248.4 114.656C275.9 127.756 304.3 141.356 335.7 132.656C352.4 128.056 368 120.456 383.1 113.156C404.1 102.956 425.8 92.4562 450.6 89.8562L450.7 90.8562C426.1 93.4562 404.5 103.856 383.6 114.056C368.4 121.356 352.8 128.956 336 133.656C328.9 135.556 322 136.456 315.3 136.456Z" fill="white"/>
<path d="M315.5 143.356C291.5 143.356 269.9 129.356 248.8 115.756C247.3 114.856 245.9 113.856 244.4 112.956L241.9 111.356C228.4 102.656 214.4 93.6563 199.3 87.5563C184 81.3563 169.1 81.4563 153.3 81.4563C151.8 81.4563 150.2 81.4563 148.6 81.4563H37V80.4563H148.6C150.2 80.4563 151.7 80.4563 153.3 80.4563C169.2 80.3563 184.2 80.3563 199.7 86.5563C214.9 92.7563 228.9 101.756 242.5 110.456L245 112.056C246.5 112.956 247.9 113.956 249.4 114.856C276.4 132.356 304.4 150.356 336.9 138.356C354.3 131.956 369.8 121.756 384.9 111.956C405.4 98.5563 426.5 84.7563 452.5 80.4563L452.7 81.4563C427 85.6563 405.9 99.4563 385.5 112.756C370.4 122.656 354.8 132.856 337.3 139.256C329.7 142.156 322.5 143.356 315.5 143.356Z" fill="white"/>
<path d="M316.1 150.256C291.5 150.256 269.7 132.756 250 116.856C248.1 115.256 246.2 113.756 244.2 112.256L240.7 109.456C227.6 99.0563 214.1 88.2564 199 80.6564C183.4 72.9564 168.8 72.9563 151.9 72.9563C150.4 72.9563 149 72.9563 147.5 72.9563L34.8 72.7563V71.7563L147.5 71.9563C149 71.9563 150.5 71.9563 151.9 71.9563C168.9 71.9563 183.7 71.8563 199.4 79.7563C214.6 87.3563 228.2 98.1564 241.3 108.656L244.8 111.456C246.7 112.956 248.6 114.556 250.6 116.056C275.9 136.456 304.5 159.456 337.9 144.456C356 136.256 371.4 123.656 386.3 111.356C406.2 94.9564 426.9 77.9563 454 71.9563L454.2 72.9563C427.3 78.8563 406.8 95.7564 386.9 112.156C372 124.456 356.5 137.256 338.3 145.456C330.7 148.756 323.3 150.256 316.1 150.256Z" fill="white"/>
<path d="M316.6 157.456C291.8 157.456 270.4 137.056 250.9 118.456C248.7 116.356 246.5 114.256 244.3 112.156C242.5 110.456 240.8 108.856 239 107.156C227.1 95.9561 214.9 84.3561 200.9 75.7561C184.3 65.6561 168.4 65.7561 149.9 65.7561C147.9 65.7561 145.9 65.7561 143.8 65.7561L32.8 65.4561V64.4561L143.8 64.7561C145.9 64.7561 147.9 64.7561 149.9 64.7561C168.5 64.6561 184.5 64.6561 201.4 74.8561C215.5 83.4561 227.8 95.0561 239.7 106.356C241.5 108.056 243.3 109.756 245 111.356C247.2 113.456 249.4 115.556 251.6 117.656C277.4 142.256 306.6 170.156 342.4 148.756C358.8 138.956 372.7 125.356 386.3 112.156C406.4 92.5561 427.2 72.2561 455.9 64.7561L456.2 65.7561C427.7 73.2561 407 93.4561 387.1 112.956C373.5 126.156 359.5 139.856 343.1 149.756C333.7 155.156 325 157.456 316.6 157.456Z" fill="white"/>
<path d="M317.5 164.556C291.5 164.556 269.5 140.556 250.8 120.256C248.5 117.756 246.2 115.256 243.9 112.856C241.9 110.756 240 108.656 238 106.556C226.4 94.0564 214.4 81.0563 200.3 71.4563C183.6 60.1563 167.4 60.2564 148.5 60.3564C146.4 60.3564 144.2 60.3564 142.1 60.3564L29.7 60.2563V59.2563L142.1 59.3564C144.3 59.3564 146.4 59.3564 148.5 59.3564C167.5 59.2564 183.9 59.1564 200.8 70.5564C215 80.1564 227 93.1563 238.7 105.756C240.7 107.856 242.6 109.956 244.6 112.056C246.9 114.456 249.2 116.956 251.5 119.556C263.9 132.956 277.9 148.256 293.1 156.756C310.5 166.456 327.1 165.856 343.6 154.956C360.5 143.856 374.5 128.256 388 113.256C407.9 91.1563 428.4 68.2564 458.3 59.5564L458.6 60.5564C428.9 69.1564 408.5 91.9563 388.7 113.956C375.1 129.056 361.1 144.656 344.1 155.856C335 161.956 326 164.556 317.5 164.556Z" fill="white"/>
<path d="M318.9 173.356C310 173.356 300.8 170.556 291.3 164.856C275.8 155.656 262.1 140.556 250 127.356C247.8 124.956 245.7 122.656 243.6 120.456C241.6 118.356 239.6 116.156 237.6 113.956C224.6 99.7565 211.1 85.1565 194.8 75.7565C180.8 67.6565 165.9 67.8565 150.1 68.0565C147.8 68.0565 145.4 68.1565 143.1 68.1565C143.1 68.1565 143.1 68.1565 143 68.1565H25.8V67.1565H143C145.4 67.1565 147.7 67.1565 150 67.0565C165.9 66.8565 181 66.6565 195.2 74.9565C211.7 84.4565 225.2 99.1565 238.3 113.356C240.3 115.556 242.3 117.656 244.3 119.856C246.4 122.056 248.5 124.356 250.7 126.756C275.2 153.556 305.7 186.956 342 165.756C361.1 154.556 376.2 137.556 390.9 121.056C410.8 98.6565 431.4 75.3565 462.1 67.2565L462.4 68.2565C432 76.3565 411.5 99.4565 391.7 121.756C377 138.356 361.8 155.456 342.6 166.656C334.8 171.056 326.9 173.356 318.9 173.356Z" fill="white"/>
<path d="M319.9 182.356C293.4 182.356 270.4 161.256 249.4 142.156C247.3 140.256 245.3 138.356 243.3 136.556C241.4 134.856 239.5 133.056 237.6 131.356C224.3 119.256 210.6 106.756 194.6 98.8562C179.4 91.3562 164 91.3562 147.8 91.3562C146.5 91.3562 145.1 91.3562 143.8 91.3562L21.6001 91.1562V90.1562L143.8 90.3562C145.1 90.3562 146.5 90.3562 147.8 90.3562C164.2 90.3562 179.6 90.3562 195.1 97.9562C211.2 105.956 225 118.456 238.3 130.556C240.2 132.256 242.1 134.056 244 135.756C246 137.556 248.1 139.456 250.1 141.356C277.6 166.456 308.8 194.856 346.2 174.056C363.5 164.456 378.3 150.656 392.6 137.256C413.9 117.456 435.9 96.9562 466 90.3562L466.2 91.3562C436.4 97.9562 414.5 118.356 393.3 138.056C378.9 151.456 364 165.356 346.7 174.956C337.4 180.156 328.5 182.356 319.9 182.356Z" fill="white"/>
<path d="M321.4 191.556C294.8 191.556 270.9 173.356 249.2 156.856C247.2 155.356 245.2 153.856 243.3 152.356C241.6 151.056 239.9 149.856 238.2 148.556C224.2 137.956 209.7 126.956 193.5 120.156C178.3 113.756 163 113.756 146.9 113.856C145.4 113.856 143.9 113.856 142.4 113.856L18.6001 113.756V112.756L142.4 112.856C143.9 112.856 145.4 112.856 146.9 112.856C163.1 112.856 178.5 112.756 193.9 119.256C210.2 126.156 224.8 137.156 238.9 147.756C240.6 149.056 242.3 150.356 243.9 151.556C245.9 153.056 247.8 154.556 249.8 156.056C278.2 177.556 310.3 202.056 347 184.556C364.3 176.356 379.7 164.456 394.5 152.956C416.6 135.856 439.4 118.256 468.7 112.756L468.9 113.756C439.9 119.156 417.1 136.756 395.1 153.756C380.2 165.256 364.8 177.156 347.4 185.456C338.4 189.756 329.8 191.556 321.4 191.556Z" fill="white"/>
<path d="M322.2 200.756C295.6 200.756 271.4 186.156 247.9 171.856C246.3 170.856 244.7 169.956 243.2 168.956L241.1 167.756C226.1 158.756 210.5 149.356 193.9 143.256C178.3 137.556 162.8 137.756 146.4 137.856C143.7 137.856 140.9 137.856 138.2 137.956H15.8V136.956H138.2C140.9 136.956 143.7 136.956 146.4 136.856C162.9 136.656 178.5 136.556 194.3 142.256C211.1 148.356 226.6 157.756 241.7 166.856L243.8 168.056C245.4 168.956 247 169.956 248.5 170.956C278.5 189.056 309.4 207.756 344.9 195.956C364 189.556 381.2 179.056 397.9 168.756C420.3 154.956 443.5 140.756 471.4 136.856L471.5 137.856C443.8 141.756 420.7 155.856 398.4 169.556C381.7 179.756 364.4 190.356 345.2 196.856C337.2 199.556 329.6 200.756 322.2 200.756Z" fill="white"/>
<path d="M323.8 209.756C296.6 209.756 271.1 198.656 246.2 187.856L243 186.456C206.2 170.556 175.4 164.056 136.6 163.956H12.7V162.956H136.6C175.6 162.956 206.5 169.456 243.4 185.456L246.6 186.856C277.9 200.456 310.3 214.556 345.5 206.156C364.4 201.656 382.2 193.756 399.4 186.056C422.7 175.656 446.8 164.956 473.8 162.756L473.9 163.756C447.1 165.956 423 176.556 399.8 186.956C382.6 194.656 364.7 202.556 345.7 207.056C338.3 209.056 331 209.756 323.8 209.756Z" fill="white"/>
<path d="M325.1 219.156C296.1 219.156 268.2 211.256 242.8 204.156C182.6 187.156 118.9 188.356 57.3 189.556C41.7 189.856 25.6 190.156 9.8 190.156C9.7 190.156 9.6 190.156 9.5 190.156V189.156C9.6 189.156 9.7 189.156 9.8 189.156C25.6 189.156 41.7 188.856 57.3 188.556C118.9 187.356 182.7 186.156 243 203.256C275.3 212.356 311.8 222.656 349.2 216.256C366.2 213.356 382.8 208.556 399 203.956C423.8 196.856 449.5 189.556 476.5 188.956V189.956C449.7 190.556 424.1 197.856 399.3 204.956C383.1 209.556 366.4 214.356 349.4 217.256C341.3 218.556 333.2 219.156 325.1 219.156Z" fill="white"/>
<path d="M326.3 228.656C297.6 228.656 269.4 224.856 242.7 220.856C182.7 211.756 120.6 212.656 60.6 213.556C42.8 213.856 24.5 214.056 6.5 214.056V213.056C6.6 213.056 6.7 213.056 6.8 213.056C24.7 213.056 43 212.756 60.7 212.556C120.8 211.656 182.9 210.856 243 219.856C277.1 224.956 313.4 229.756 350.2 226.756C367.1 225.356 384.1 222.756 400.6 220.256C426.2 216.356 452.7 212.256 479.4 212.756V213.756C452.8 213.256 426.4 217.356 400.8 221.256C384.3 223.756 367.3 226.356 350.3 227.756C342.2 228.356 334.2 228.656 326.3 228.656Z" fill="white"/>
<path d="M291.1 236.656C274.9 236.656 258.7 236.356 242.6 235.456C184.4 232.356 125 232.856 67.6 233.356C46.6 233.556 24.8 233.756 3.50005 233.756C3.40005 233.756 3.40005 233.756 3.30005 233.756V232.756C3.40005 232.756 3.40005 232.756 3.50005 232.756C24.9 232.756 46.6 232.556 67.6 232.356C125 231.856 184.4 231.356 242.6 234.456C285.7 236.756 329.3 235.256 371.4 233.856C407.6 232.656 445 231.356 481.9 232.456V233.456C445 232.356 407.6 233.656 371.4 234.856C345.1 235.756 318.2 236.656 291.1 236.656Z" fill="white"/>
<path d="M0 247.056V246.056C54.6 246.056 109.2 246.056 163.8 245.956C269 245.856 377.8 245.856 484.8 246.056V247.056C377.8 246.856 269 246.956 163.8 246.956C109.2 247.056 54.6 247.056 0 247.056Z" fill="white"/>
</svg>
