<svg width="436" height="436" viewBox="0 0 436 436" fill="none" xmlns="http://www.w3.org/2000/svg">
<path d="M224.3 435.418C212.9 435.418 202.8 429.118 197.8 418.718L165.5 351.918C160.1 340.618 148.1 334.318 135.7 336.118L62.3 346.718C50.5 348.418 39.3 343.218 33 333.118C26.7 323.018 26.9 310.718 33.6 300.818L75.3 239.518C82.3 229.218 81.9 215.618 74.1 205.818L28.2 147.518C20.9 138.218 19.8 125.918 25.3 115.418C30.9 104.918 41.7 98.9177 53.5 99.8177L127.5 105.218C140 106.118 151.4 98.9177 156.1 87.3177L183.8 18.6177C188.2 7.61771 198.3 0.517711 210.2 0.0177112C222.1 -0.382289 232.7 6.01771 237.8 16.7177L270.1 83.5177C275.5 94.7177 287.5 101.118 299.9 99.3177L373.3 88.7177C385.1 87.0177 396.3 92.2177 402.6 102.318C408.9 112.418 408.7 124.718 402 134.618L360.3 195.918C353.3 206.218 353.7 219.818 361.5 229.618L407.4 287.918C414.7 297.218 415.8 309.518 410.3 320.018C404.7 330.518 393.9 336.418 382.1 335.618L308.1 330.218C295.6 329.318 284.2 336.518 279.5 348.118L251.8 416.818C247.4 427.818 237.3 434.918 225.4 435.418C225 435.418 224.7 435.418 224.3 435.418ZM139.9 334.818C151.1 334.818 161.4 341.118 166.4 351.518L198.7 418.318C203.7 428.618 213.9 434.818 225.4 434.418C236.9 434.018 246.6 427.118 250.9 416.518L278.4 347.618C283.2 335.618 295.1 328.218 308 329.118L382 334.518C393.4 335.318 403.9 329.618 409.3 319.418C414.7 309.318 413.6 297.418 406.5 288.418L360.6 230.118C352.6 219.918 352.1 205.918 359.4 195.218L401.1 133.918C407.6 124.418 407.8 112.518 401.7 102.718C395.6 92.9177 384.8 88.0177 373.4 89.7177L300 100.318C287.2 102.118 274.8 95.6177 269.2 83.9177L236.9 17.1177C231.9 6.81771 221.7 0.617711 210.2 1.01771C198.7 1.41771 189 8.31771 184.7 18.9177L157.2 87.8177C152.4 99.8177 140.5 107.218 127.6 106.318L53.6 100.918C42.1 100.018 31.7 105.818 26.3 116.018C20.9 126.118 22 138.018 29.1 147.018L75 205.318C83 215.518 83.5 229.518 76.2 240.218L34.5 301.518C28 311.018 27.8 322.918 33.9 332.718C40 342.518 50.8 347.418 62.2 345.718L135.6 335.118C137 334.918 138.5 334.818 139.9 334.818Z" fill="white"/>
<path d="M211.3 435.418C210.9 435.418 210.6 435.418 210.2 435.418C198.3 435.018 188.2 427.918 183.8 416.818L156.3 347.918C151.7 336.318 140.2 329.118 127.7 330.018L53.7002 335.418C41.8002 336.318 31.0002 330.318 25.5002 319.818C19.9002 309.318 21.0002 297.018 28.4002 287.718L74.3002 229.418C82.0002 219.618 82.5002 206.018 75.5002 195.718L33.8002 134.418C27.1002 124.618 26.9002 112.218 33.2002 102.118C39.5002 92.0177 50.7002 86.8177 62.5002 88.5177L135.9 99.1177C148.3 100.918 160.2 94.5177 165.7 83.3177L197.8 16.7177C203 6.01771 213.5 -0.382289 225.4 0.0177112C237.3 0.417711 247.4 7.51771 251.8 18.6177L279.3 87.5177C283.9 99.1177 295.4 106.318 307.9 105.418L381.9 100.018C393.7 99.1177 404.6 105.118 410.1 115.618C415.7 126.118 414.6 138.418 407.2 147.718L361.3 206.018C353.6 215.818 353.1 229.418 360.1 239.718L401.8 301.018C408.5 310.818 408.7 323.218 402.4 333.318C396.1 343.418 384.9 348.618 373.1 346.918L299.7 336.318C287.3 334.518 275.4 340.918 269.9 352.118L237.8 418.718C232.8 429.118 222.7 435.418 211.3 435.418ZM129.8 329.018C141.8 329.018 152.7 336.318 157.2 347.618L184.7 416.518C189 427.218 198.7 434.018 210.2 434.418C221.7 434.818 231.9 428.618 236.9 418.318L269.2 351.518C274.8 339.918 287.2 333.318 300 335.118L373.4 345.718C384.8 347.318 395.6 342.318 401.7 332.618C407.8 322.918 407.6 310.918 401.1 301.418L359.4 240.118C352.1 229.418 352.6 215.418 360.6 205.218L406.5 146.918C413.6 137.918 414.7 126.018 409.3 115.918C403.9 105.818 393.5 100.018 382 100.818L308 106.218C295.1 107.118 283.2 99.7177 278.4 87.7177L250.9 18.8177C246.6 8.11771 236.9 1.31771 225.4 0.917713C213.9 0.517713 203.7 6.71771 198.7 17.0177L166.4 83.8177C160.8 95.4177 148.4 102.018 135.6 100.218L62.2002 89.7177C50.8002 88.1177 40.0002 93.1177 33.9002 102.818C27.8002 112.518 28.0002 124.518 34.5002 134.018L76.2002 195.318C83.5002 206.018 83.0002 220.018 75.0002 230.218L29.1002 288.518C22.0002 297.518 20.9002 309.418 26.3002 319.518C31.7002 329.618 42.1002 335.418 53.6002 334.618L127.6 329.218C128.3 329.118 129.1 329.018 129.8 329.018Z" fill="white"/>
<path d="M198.3 434.518C197.2 434.518 196.2 434.418 195.1 434.318C183.3 433.118 173.7 425.318 170.1 414.018L147.4 343.418C143.6 331.518 132.7 323.618 120.2 323.618H120.1L45.9002 323.918H45.8002C34.0002 323.918 23.6002 317.218 18.8002 306.418C14.0002 295.518 15.9002 283.318 23.9002 274.518L73.7002 219.618C82.1002 210.318 83.5002 196.918 77.2002 186.118L39.9002 122.018C33.9002 111.718 34.5002 99.4177 41.5002 89.8177C48.5002 80.2177 60.0002 75.8177 71.6002 78.3177L144.1 94.0177C156.3 96.6177 168.7 91.1177 174.9 80.3177L211.8 15.9177C217.7 5.61767 228.7 0.0176694 240.5 1.21767C252.3 2.41767 261.9 10.2177 265.5 21.5177L288.2 92.1177C292 104.018 302.9 111.918 315.4 111.918H315.5L389.7 111.618H389.8C401.6 111.618 412 118.318 416.8 129.118C421.6 140.018 419.7 152.218 411.7 161.018L361.9 215.918C353.5 225.218 352.1 238.618 358.4 249.418L395.7 313.518C401.7 323.818 401.1 336.118 394.1 345.718C387.1 355.318 375.6 359.718 364 357.218L291.5 341.518C279.3 338.918 266.9 344.418 260.7 355.218L223.8 419.618C218.4 429.018 208.8 434.518 198.3 434.518ZM120.2 322.618C133.1 322.618 144.4 330.818 148.3 343.118L171 413.718C174.5 424.618 183.8 432.218 195.2 433.418C206.6 434.618 217.2 429.218 222.9 419.218L259.8 354.818C266.2 343.618 279 337.918 291.7 340.618L364.2 356.318C375.4 358.718 386.6 354.518 393.3 345.218C400 335.918 400.6 324.018 394.9 314.118L357.6 250.018C351.1 238.818 352.6 224.918 361.2 215.318L411 160.418C418.7 151.918 420.6 140.118 415.9 129.618C411.2 119.118 401.3 112.718 389.8 112.718H389.7L315.5 113.018H315.4C302.5 113.018 291.2 104.818 287.3 92.5177L264.7 21.7177C261.2 10.8177 251.9 3.21767 240.5 2.01767C229.1 0.817669 218.5 6.21767 212.8 16.2177L175.9 80.6177C169.5 91.8177 156.7 97.5177 144 94.8177L71.5002 79.1177C60.3002 76.7177 49.1002 80.9177 42.4002 90.2177C35.7002 99.5177 35.1002 111.418 40.8002 121.318L78.1002 185.418C84.6002 196.618 83.1002 210.518 74.5002 220.118L24.7002 275.018C17.0002 283.518 15.1002 295.318 19.8002 305.818C24.5002 316.318 34.4002 322.718 45.9002 322.718H46.0002L120.2 322.418C120.1 322.618 120.1 322.618 120.2 322.618Z" fill="white"/>
<path d="M185.3 432.718C183.5 432.718 181.8 432.518 180 432.218C168.3 430.118 159.3 421.718 156.4 410.218L138.7 338.218C135.7 326.118 125.3 317.418 112.9 316.518L38.8998 311.618C26.9998 310.818 17.1998 303.418 13.0998 292.218C8.99977 281.018 11.7998 269.018 20.3998 260.818L73.8998 209.518C82.8998 200.918 85.2998 187.518 79.7998 176.318L47.0998 109.718C41.8998 99.0177 43.2998 86.8177 50.9998 77.7177C58.5998 68.6177 70.4998 65.0177 81.8998 68.3177L153.1 89.0177C165.1 92.5177 177.8 87.9177 184.8 77.5177L226.1 15.9177C232.7 6.01774 244.1 1.21773 255.8 3.21773C267.5 5.31773 276.5 13.7177 279.4 25.2177L297.1 97.2177C300.1 109.318 310.5 118.018 322.9 118.918L396.9 123.818C408.8 124.618 418.6 132.018 422.7 143.218C426.8 154.418 424 166.418 415.4 174.618L361.9 225.918C352.9 234.518 350.5 247.918 356 259.118L388.8 325.618C394 336.318 392.6 348.518 384.9 357.618C377.3 366.718 365.4 370.318 354 367.018L282.8 346.318C270.8 342.818 258.1 347.418 251.1 357.818L209.8 419.418C204 427.918 195 432.718 185.3 432.718ZM73.3998 68.1177C65.0998 68.1177 57.2998 71.7177 51.6998 78.3177C44.2998 87.1177 42.8998 98.9177 47.9998 109.218L80.7998 175.718C86.4998 187.318 84.0998 201.118 74.6998 210.118L21.1998 261.418C12.8998 269.318 10.1998 281.018 14.0998 291.818C17.9998 302.618 27.5998 309.818 38.9998 310.518L113 315.418C125.9 316.318 136.6 325.318 139.7 337.818L157.4 409.818C160.1 420.918 168.9 429.118 180.2 431.118C191.5 433.118 202.5 428.418 208.9 418.918L250.2 357.318C257.4 346.618 270.6 341.818 283 345.418L354.2 366.118C365.2 369.318 376.6 365.818 384 357.018C391.4 348.218 392.8 336.418 387.7 326.118L354.9 259.618C349.2 248.018 351.6 234.218 361 225.218L414.5 173.918C422.8 166.018 425.5 154.318 421.6 143.518C417.7 132.718 408.1 125.518 396.7 124.818L322.7 119.918C309.8 119.018 299.1 110.018 296 97.5177L278.3 25.5177C275.6 14.4177 266.8 6.21773 255.5 4.21773C244.2 2.21773 233.2 6.91774 226.8 16.4177L185.5 78.0177C178.3 88.7177 165.1 93.5177 152.7 89.9177L81.4998 69.2177C78.7998 68.5177 76.0998 68.1177 73.3998 68.1177Z" fill="white"/>
<path d="M172.4 430.018C170 430.018 167.5 429.718 165.1 429.118C153.6 426.218 145.2 417.218 143.1 405.518L130.5 332.418C128.4 320.118 118.6 310.718 106.2 309.018L32.8001 298.918C21.0001 297.318 11.7001 289.218 8.40006 277.818C5.10006 266.418 8.80006 254.618 17.9001 247.018L74.9001 199.518C84.5001 191.518 87.8001 178.418 83.1001 166.818L55.1001 98.1178C50.6001 87.1178 52.9001 75.0178 61.2001 66.4178C69.5001 57.8178 81.5001 55.1178 92.6001 59.2178L162.2 84.8178C173.9 89.1178 186.9 85.4178 194.6 75.5178L240.1 16.9178C247.4 7.51776 259.1 3.51776 270.6 6.31776C282.1 9.21776 290.5 18.2178 292.6 29.9178L305.2 103.018C307.3 115.318 317.1 124.718 329.5 126.418L403 136.518C414.8 138.118 424.1 146.218 427.4 157.618C430.7 169.018 427 180.818 417.9 188.418L360.9 235.918C351.3 243.918 348 257.018 352.7 268.618L380.7 337.318C385.2 348.318 382.9 360.418 374.6 369.018C366.3 377.518 354.3 380.318 343.2 376.218L273.6 350.618C261.9 346.318 248.9 350.018 241.2 359.918L195.7 418.518C189.9 425.918 181.4 430.018 172.4 430.018ZM82.2001 58.3178C74.7001 58.3178 67.4001 61.3178 61.8001 67.1178C53.8001 75.4178 51.6001 87.1178 55.9001 97.7178L83.9001 166.418C88.8001 178.418 85.4001 192.018 75.5001 200.318L18.5001 247.818C9.70006 255.118 6.20006 266.618 9.30006 277.618C12.5001 288.618 21.5001 296.418 32.9001 298.018L106.4 308.118C119.2 309.918 129.3 319.618 131.5 332.318L144.1 405.418C146.1 416.718 154.2 425.518 165.3 428.218C176.4 431.018 187.7 427.118 194.8 418.018L240.3 359.418C248.2 349.218 261.7 345.318 273.8 349.818L343.4 375.418C354.2 379.418 365.8 376.718 373.8 368.418C381.8 360.118 384 348.418 379.7 337.818L351.7 269.118C346.8 257.118 350.2 243.518 360.1 235.218L417.1 187.718C425.9 180.418 429.4 168.918 426.3 157.918C423.1 146.918 414.1 139.118 402.7 137.518L329.2 127.418C316.4 125.618 306.3 115.918 304.1 103.218L291.5 30.1178C289.5 18.8178 281.4 10.0178 270.3 7.31776C259.2 4.51776 247.9 8.41776 240.8 17.5178L195.3 76.1178C187.4 86.3178 173.9 90.2178 161.8 85.7178L92.2001 60.1178C88.9001 58.9178 85.5001 58.3178 82.2001 58.3178Z" fill="white"/>
<path d="M159.8 426.418C156.7 426.418 153.6 425.918 150.5 424.918C139.2 421.218 131.4 411.618 130.2 399.818L122.7 326.018C121.4 313.618 112.4 303.518 100.1 300.918L27.4998 285.718C15.8998 283.318 7.09982 274.518 4.59982 262.918C2.09982 251.318 6.59982 239.718 16.1998 232.818L76.3998 189.418C86.4998 182.118 90.6998 169.218 86.7998 157.318L63.7998 87.0179C60.0998 75.7179 63.2998 63.8179 72.0998 55.8179C80.8998 47.9179 93.0998 45.9179 104 50.8179L171.6 81.2179C183 86.3179 196.2 83.5179 204.6 74.2179L254 18.9179C261.9 10.0179 273.9 6.81788 285.1 10.5179C296.4 14.2179 304.2 23.8179 305.4 35.6179L312.9 109.418C314.2 121.818 323.2 131.918 335.5 134.518L408.1 149.718C419.7 152.118 428.5 160.918 431 172.518C433.5 184.118 429 195.718 419.4 202.618L359.2 246.018C349.1 253.318 344.9 266.218 348.8 278.118L372 348.618C375.7 359.918 372.5 371.818 363.7 379.818C354.9 387.818 342.7 389.718 331.8 384.818L264.2 354.418C252.8 349.318 239.6 352.118 231.2 361.418L181.8 416.718C175.9 422.918 168 426.418 159.8 426.418ZM91.6998 49.2179C84.7998 49.2179 78.0998 51.7179 72.6998 56.6179C64.1998 64.3179 61.0998 75.8179 64.6998 86.7179L87.8998 157.218C91.8998 169.518 87.5998 182.818 77.0998 190.418L16.8998 233.718C7.59982 240.418 3.29982 251.618 5.69982 262.818C8.09982 274.018 16.4998 282.518 27.7998 284.818L100.4 300.018C113.1 302.618 122.4 313.118 123.7 325.918L131.2 399.718C132.4 411.118 139.9 420.418 150.8 424.018C161.7 427.518 173.2 424.418 180.9 415.918L230.3 360.618C238.9 351.018 252.6 348.018 264.4 353.318L332 383.718C342.5 388.418 354.3 386.618 362.8 378.918C371.3 371.218 374.4 359.718 370.8 348.818L347.6 278.318C343.6 266.018 347.9 252.718 358.4 245.118L418.6 201.718C427.9 195.018 432.2 183.818 429.8 172.618C427.4 161.418 419 152.918 407.7 150.618L335.1 135.418C322.4 132.818 313.1 122.318 311.8 109.518L304.4 35.7179C303.2 24.3179 295.7 15.0179 284.8 11.4179C273.9 7.91788 262.4 11.0179 254.7 19.5179L205.3 74.8179C196.7 84.4179 183 87.4179 171.2 82.1179L103.5 51.7179C99.6998 50.0179 95.6998 49.2179 91.6998 49.2179Z" fill="white"/>
<path d="M147.4 421.918C143.7 421.918 139.9 421.218 136.2 419.718C125.2 415.318 118.1 405.118 117.7 393.218L115.4 319.118C115 306.618 106.7 295.918 94.6002 292.518L23.2002 272.318C11.8002 269.118 3.60022 259.818 2.00022 248.018C0.300223 236.217 5.60022 225.018 15.7002 218.818L78.7002 179.718C89.3002 173.118 94.4002 160.618 91.3002 148.418L73.1002 76.5175C70.2002 65.0175 74.2002 53.3175 83.5002 46.0175C92.9002 38.7175 105.2 37.6175 115.6 43.2175L181 78.3175C192 84.2175 205.4 82.3175 214.4 73.6175L267.6 21.9175C276.1 13.6175 288.2 11.2175 299.3 15.7175C310.3 20.1175 317.4 30.3175 317.8 42.2175L320.1 116.318C320.5 128.818 328.8 139.518 340.9 142.918L412.3 163.118C423.7 166.318 431.9 175.618 433.5 187.418C435.2 199.218 429.9 210.418 419.8 216.618L356.8 255.718C346.2 262.318 341.1 274.818 344.2 287.018L362.4 358.918C365.3 370.418 361.3 382.118 352 389.418C342.6 396.718 330.3 397.818 319.9 392.218L254.5 357.118C243.5 351.218 230.1 353.118 221.1 361.818L167.9 413.518C162.2 419.018 154.9 421.918 147.4 421.918ZM101.8 40.7175C95.6002 40.7175 89.5002 42.8175 84.3002 46.8175C75.3002 53.9175 71.4002 65.2175 74.2002 76.3175L92.4002 148.218C95.6002 160.718 90.3002 173.718 79.3002 180.618L16.3002 219.718C6.50022 225.718 1.50022 236.618 3.10022 247.918C4.70022 259.318 12.5002 268.318 23.6002 271.418L95.0002 291.618C107.4 295.118 116.1 306.218 116.5 319.118L118.8 393.218C119.2 404.718 126 414.518 136.6 418.818C147.2 423.118 159 420.818 167.2 412.818L220.4 361.118C229.7 352.118 243.6 350.118 255 356.218L320.4 391.318C330.5 396.718 342.4 395.718 351.5 388.618C360.5 381.518 364.4 370.218 361.6 359.118L343.4 287.218C340.2 274.718 345.5 261.718 356.5 254.818L419.5 215.718C429.3 209.718 434.3 198.818 432.7 187.518C431.1 176.118 423.3 167.118 412.2 164.018L340.8 143.818C328.4 140.318 319.7 129.218 319.3 116.318L317 42.2175C316.6 30.7175 309.8 20.9175 299.2 16.6175C288.6 12.3175 276.8 14.6175 268.6 22.6175L215.4 74.3175C206.1 83.3175 192.2 85.3175 180.8 79.2175L115.4 44.1175C111.1 41.9175 106.4 40.7175 101.8 40.7175Z" fill="white"/>
<path d="M135.4 416.517C131 416.517 126.6 415.517 122.4 413.417C111.7 408.217 105.4 397.617 105.8 385.717L108.7 311.617C109.2 299.117 101.6 287.917 89.7998 283.717L19.9998 258.617C8.79978 254.617 1.39977 244.717 0.499774 232.917C-0.300226 221.117 5.69977 210.317 16.1998 204.717L81.7998 170.117C92.8998 164.317 98.7998 152.117 96.5998 139.817L83.4998 66.8175C81.3998 55.1175 86.1998 43.7175 96.0998 37.1175C106 30.5175 118.3 30.3175 128.4 36.6175L191.2 76.1175C201.8 82.8175 215.3 81.8175 224.8 73.7175L281.4 25.8175C290.5 18.1175 302.7 16.6175 313.4 21.8175C324.1 27.0175 330.4 37.6175 330 49.5175L327.1 123.617C326.6 136.117 334.2 147.317 346 151.517L415.8 176.617C427 180.617 434.4 190.517 435.3 202.317C436.2 214.117 430.1 224.917 419.6 230.517L353.8 265.317C342.7 271.117 336.8 283.317 339 295.617L352.1 368.617C354.2 380.317 349.4 391.717 339.5 398.317C329.7 404.917 317.3 405.117 307.2 398.817L244.4 359.317C233.8 352.617 220.3 353.617 210.8 361.717L154.2 409.617C148.8 414.117 142.1 416.517 135.4 416.517ZM112.5 33.0175C107 33.0175 101.4 34.7175 96.5998 37.9175C87.0998 44.3175 82.3998 55.3175 84.4998 66.6175L97.5998 139.617C99.8998 152.317 93.6998 164.917 82.2998 171.017L16.6998 205.617C6.49978 211.017 0.699774 221.417 1.49977 232.817C2.29977 244.217 9.49977 253.817 20.2998 257.717L90.0998 282.817C102.3 287.217 110.1 298.817 109.6 311.717L106.7 385.817C106.3 397.317 112.4 407.517 122.7 412.517C133 417.517 144.9 416.117 153.6 408.617L210.2 360.717C220.1 352.417 234.1 351.417 245 358.317L307.8 397.817C317.5 403.917 329.5 403.717 339 397.317C348.5 390.917 353.2 379.917 351.1 368.617L338 295.617C335.7 282.917 341.9 270.317 353.3 264.217L418.9 229.617C429.1 224.217 434.9 213.817 434.1 202.417C433.3 191.017 426.1 181.417 415.3 177.517L345.5 152.417C333.3 148.017 325.5 136.417 326 123.517L328.9 49.4175C329.3 37.9175 323.2 27.7175 312.9 22.7175C302.6 17.7175 290.7 19.1175 282 26.6175L225.4 74.5175C215.5 82.8175 201.5 83.8175 190.6 76.9175L127.8 37.4175C123 34.5175 117.7 33.0175 112.5 33.0175Z" fill="white"/>
<path d="M311.9 410.418C305.8 410.418 299.7 408.518 294.5 404.618L234.7 360.818C224.6 353.418 211.1 353.418 201 360.818L141.2 404.618C131.6 411.618 119.3 412.318 109 406.318C98.7 400.418 93.1 389.318 94.4 377.518L102.4 303.818C103.8 291.418 97 279.618 85.5 274.618L17.6 244.718C6.7 239.918 0 229.618 0 217.718C0 205.818 6.8 195.518 17.6 190.718L85.5 160.818C96.9 155.818 103.7 144.018 102.4 131.618L94.4 57.9178C93.1 46.1178 98.7 35.1178 109 29.1178C119.3 23.2178 131.6 23.8178 141.2 30.8178L201 74.6178C211.1 82.0178 224.6 82.0178 234.7 74.6178L294.5 30.8178C304.1 23.8178 316.4 23.1178 326.7 29.1178C337 35.0178 342.6 46.1178 341.3 57.9178L333.3 131.618C331.9 144.018 338.7 155.818 350.2 160.818L418.1 190.718C429 195.518 435.7 205.818 435.7 217.718C435.7 229.618 428.9 239.918 418.1 244.718L350.2 274.618C338.8 279.618 332 291.418 333.3 303.818L341.3 377.518C342.6 389.318 337 400.318 326.7 406.318C322 409.018 317 410.418 311.9 410.418ZM217.8 354.318C223.9 354.318 230 356.218 235.2 360.018L295 403.818C304.3 410.618 316.2 411.218 326.1 405.518C336 399.818 341.4 389.118 340.2 377.718L332.2 304.018C330.8 291.118 337.8 279.018 349.6 273.818L417.5 243.918C428 239.318 434.5 229.318 434.5 217.818C434.5 206.318 428 196.318 417.5 191.718L349.7 161.718C337.9 156.518 330.9 144.318 332.3 131.518L340.3 57.8178C341.5 46.4178 336.1 35.7178 326.2 30.0178C316.3 24.3178 304.3 24.9178 295.1 31.7178L235.3 75.5178C224.9 83.1178 210.8 83.1178 200.4 75.5178L140.6 31.7178C131.3 24.9178 119.4 24.3178 109.5 30.0178C99.6 35.7178 94.2 46.4178 95.4 57.8178L103.4 131.518C104.8 144.418 97.8 156.518 86 161.718L18.1 191.618C7.6 196.218 1.1 206.218 1.1 217.718C1.1 229.218 7.6 239.218 18.1 243.818L86 273.718C97.8 278.918 104.8 291.118 103.4 303.918L95.4 377.618C94.2 389.018 99.6 399.718 109.5 405.418C119.4 411.118 131.4 410.518 140.6 403.718L200.4 359.918C205.6 356.218 211.7 354.318 217.8 354.318Z" fill="white"/>
</svg>
