<svg width="403" height="385" viewBox="0 0 403 385" fill="none" xmlns="http://www.w3.org/2000/svg">
<path d="M88.2034 384.938C80.3034 384.938 73.3034 379.838 70.9034 372.338C63.0034 348.038 54.9034 323.438 47.1034 299.638C31.8034 252.838 15.9034 204.538 0.803367 156.838C-1.39663 149.738 1.00337 141.638 7.00337 135.938C17.5034 124.938 26.0034 112.038 34.3034 99.5385C47.5034 79.5385 61.2034 58.9384 83.0034 45.9384C99.7034 35.9384 118.403 30.2385 136.503 24.7385C154.803 19.1385 173.703 13.4384 190.703 3.23845C197.403 -1.16155 206.003 -1.06155 212.103 3.43845C270.003 45.3385 328.703 88.0384 385.503 129.438L395.503 136.738C401.703 141.238 404.403 149.438 402.003 156.938C392.003 188.038 377.503 214.638 362.003 242.838C359.903 246.738 357.703 250.638 355.603 254.538C340.203 282.838 337.203 312.838 333.903 344.638C333.003 353.438 332.103 362.438 330.903 371.338C329.503 379.338 322.803 384.838 314.603 384.838C267.803 384.838 220.903 384.838 174.103 384.838C145.603 384.938 116.903 384.938 88.2034 384.938ZM201.503 0.938448C198.003 0.938448 194.403 1.93845 191.303 4.03845C174.203 14.3384 155.203 20.0384 136.803 25.6384C118.703 31.1384 100.103 36.8385 83.5034 46.7385C61.9034 59.6385 48.3034 80.2384 35.2034 100.038C26.9034 112.538 18.3034 125.538 7.80337 136.538C2.10337 141.938 -0.296631 149.738 1.90337 156.338C17.0034 204.038 32.9034 252.338 48.2034 299.138C56.0034 322.938 64.1034 347.638 72.0034 371.838C74.3034 378.938 80.9034 383.738 88.3034 383.738C117.003 383.738 145.703 383.738 174.303 383.738C221.103 383.738 268.003 383.738 314.803 383.738C322.703 383.738 328.803 378.638 330.103 371.038C331.303 362.138 332.203 353.138 333.103 344.338C336.403 312.438 339.403 282.338 354.903 253.938C357.003 250.038 359.203 246.138 361.303 242.238C376.703 214.138 391.203 187.538 401.203 156.538C403.403 149.338 400.903 141.638 395.103 137.438L385.103 130.138C328.303 88.7384 269.603 46.0385 211.703 4.13845C208.603 2.03845 205.103 0.938448 201.503 0.938448Z" fill="white"/>
<path d="M98.5036 369.038C90.6036 369.038 83.6036 363.938 81.2036 356.438C72.6036 329.938 63.6036 303.038 54.9036 277.138C41.8036 238.238 28.3036 197.938 15.9036 158.138C13.8036 151.438 15.8036 142.838 21.0036 135.738C26.5036 127.438 31.6036 118.438 36.6036 109.638C49.6036 86.6382 63.0036 62.9382 86.8036 49.0382C104.304 38.7382 124.804 34.2382 144.604 29.8382C159.704 26.4382 175.304 23.0382 189.504 17.0382C196.904 13.5382 205.604 13.9382 211.504 18.1382C247.204 43.7382 283.204 70.1382 318.004 95.7382C338.004 110.438 358.704 125.638 379.104 140.438C385.604 145.138 388.204 153.438 385.404 160.538C377.204 179.938 365.404 196.438 353.904 212.438C347.304 221.638 340.504 231.138 334.304 241.238C316.404 270.638 316.304 304.838 316.304 337.938C316.304 342.438 316.304 346.838 316.204 351.338C316.104 356.138 314.504 360.138 311.604 362.838C309.004 365.338 305.504 366.638 301.604 366.538C262.804 365.838 223.404 366.738 185.204 367.638C156.904 368.338 127.504 369.038 98.5036 369.038ZM199.804 15.6382C196.504 15.6382 193.004 16.4382 189.804 17.9382C175.504 23.9382 159.904 27.4382 144.704 30.8382C125.004 35.2382 104.604 39.7382 87.2036 49.9382C63.6036 63.7382 50.3036 87.3382 37.4036 110.238C32.4036 119.038 27.3036 128.138 21.7036 136.438C16.7036 143.238 14.8036 151.438 16.8036 157.938C29.2036 197.738 42.7036 238.038 55.8036 276.938C64.5036 302.938 73.5036 329.738 82.1036 356.238C84.4036 363.338 91.0035 368.138 98.4035 368.138C127.304 368.138 156.804 367.438 185.204 366.738C223.404 365.838 262.804 364.938 301.604 365.638C305.304 365.738 308.504 364.538 310.904 362.238C313.604 359.638 315.104 355.938 315.204 351.438C315.204 347.038 315.204 342.538 315.304 338.038C315.304 304.838 315.304 270.438 333.404 240.838C339.604 230.738 346.404 221.238 353.004 211.938C364.904 195.238 376.204 179.538 384.404 160.238C387.004 153.538 384.504 145.738 378.404 141.338C358.004 126.438 337.304 111.338 317.304 96.6382C282.504 71.0382 246.504 44.6382 210.804 19.0382C207.804 16.7382 203.904 15.6382 199.804 15.6382Z" fill="white"/>
<path d="M108.804 353.238C100.904 353.238 93.9035 348.138 91.5035 340.638C81.6035 310.038 70.9035 279.138 60.5035 249.238C50.1035 219.138 39.3035 188.038 29.3035 157.238C27.1035 150.438 28.6035 141.138 33.1035 133.138C35.9035 127.838 38.6035 122.338 41.2035 116.938C53.3035 92.1384 65.7035 66.5384 90.7035 52.4384C108.504 42.3384 130.004 39.1384 150.704 36.0384C162.804 34.2384 175.404 32.3384 186.904 29.1384C195.104 26.4384 203.904 27.4384 209.804 31.7384C232.804 48.5384 256.004 65.8384 278.504 82.5384C305.804 102.838 333.904 123.738 361.904 144.038C368.404 148.738 370.604 156.838 367.204 163.338C358.804 177.338 347.703 188.538 336.904 199.438C328.303 208.138 319.404 217.138 311.904 227.538C292.504 254.538 295.004 288.338 297.504 320.938C297.704 323.538 297.904 326.138 298.104 328.638C298.504 334.038 297.103 338.638 294.303 341.638C291.904 344.038 288.603 345.238 284.803 345.038C252.703 343.938 220.404 346.538 189.204 349.138C162.904 351.038 135.804 353.238 108.804 353.238ZM196.104 28.5384C193.204 28.5384 190.104 29.0384 187.204 29.9384C175.704 33.2384 163.104 35.0384 150.904 36.9384C130.304 40.0384 108.904 43.2384 91.3035 53.2384C66.6035 67.2384 54.2035 92.6384 42.2035 117.338C39.6035 122.738 36.9035 128.238 34.1035 133.538C29.7035 141.338 28.3035 150.338 30.4035 156.938C40.4035 187.738 51.1035 218.838 61.5035 248.938C71.8035 278.838 82.5035 309.738 92.5035 340.438C94.8035 347.538 101.404 352.338 108.804 352.338C135.704 352.338 162.904 350.138 189.104 348.038C220.404 345.538 252.704 342.838 284.904 343.938C288.404 344.138 291.404 343.038 293.604 340.838C296.304 338.138 297.504 333.738 297.204 328.638C297.004 326.138 296.804 323.538 296.604 320.938C294.204 289.638 291.604 254.238 311.204 226.838C318.704 216.438 327.603 207.438 336.303 198.638C347.004 187.838 358.104 176.638 366.404 162.738C369.604 156.738 367.504 149.238 361.404 144.738C333.404 124.438 305.204 103.538 278.004 83.2384C255.504 66.5384 232.304 49.2384 209.304 32.4384C205.704 29.8384 201.004 28.5384 196.104 28.5384Z" fill="white"/>
<path d="M119.103 337.339C111.203 337.339 104.203 332.238 101.803 324.738C90.1033 288.638 77.0033 252.439 64.4033 217.439C57.0033 197.039 49.4033 175.939 42.2033 155.139C39.7033 147.839 40.7033 137.839 44.7033 129.139C46.1033 126.039 47.4033 122.939 48.8033 119.739C59.4033 95.1385 70.5033 69.6385 95.3033 56.3385C112.903 46.8385 134.503 44.9385 155.303 43.1385C165.203 42.2385 174.603 41.4385 183.603 39.8385C192.403 38.0385 201.603 39.6385 207.703 44.2385C215.903 50.5385 224.203 56.7385 232.403 63.0385C268.703 90.7385 306.303 119.439 344.203 146.539C347.503 148.839 349.603 152.239 350.103 155.739C350.603 158.839 349.803 161.839 347.803 164.439C338.903 174.739 328.003 182.839 317.603 190.639C308.203 197.639 298.403 204.939 290.203 213.839C269.403 236.139 273.203 268.839 276.603 297.639C276.803 299.439 277.003 301.238 277.203 302.939C278.003 308.939 276.803 313.839 273.903 316.939C271.703 319.339 268.503 320.439 264.803 320.238C239.003 319.538 214.003 324.238 189.703 328.738C166.903 332.939 143.403 337.339 119.103 337.339ZM190.603 40.0385C188.303 40.0385 186.003 40.2385 183.703 40.7385C174.703 42.3385 165.203 43.1385 155.303 44.0385C134.603 45.8385 113.103 47.7385 95.7033 57.1385C71.2033 70.3385 60.3033 95.6385 49.7033 120.139C48.3033 123.239 47.0033 126.439 45.6033 129.539C41.7033 138.039 40.8033 147.739 43.2033 154.839C50.5033 175.639 58.1033 196.739 65.4033 217.139C78.0033 252.139 91.1033 288.339 102.803 324.539C105.103 331.639 111.703 336.439 119.103 336.439C143.303 336.439 166.803 332.039 189.603 327.839C213.903 323.339 239.003 318.638 264.903 319.339C268.303 319.539 271.203 318.539 273.203 316.339C275.903 313.439 276.903 308.739 276.203 303.139C276.003 301.339 275.803 299.638 275.603 297.839C272.203 268.839 268.303 235.839 289.403 213.238C297.703 204.339 307.503 197.039 316.903 189.939C327.303 182.139 338.103 174.139 346.903 163.839C348.703 161.539 349.403 158.739 349.003 155.939C348.503 152.739 346.503 149.639 343.503 147.439C305.603 120.239 268.003 91.6385 231.703 63.8385C223.503 57.5385 215.303 51.3385 207.003 45.0385C202.703 41.7385 196.803 40.0385 190.603 40.0385Z" fill="white"/>
<path d="M129.403 321.539C121.503 321.539 114.503 316.439 112.103 308.939C99.2032 269.139 84.0032 229.639 69.4032 191.439C64.6032 178.839 59.6032 165.939 54.8032 153.039C51.8032 145.139 52.4032 133.439 56.0032 125.139C56.8032 123.139 57.7032 121.039 58.5032 118.939C67.4032 97.1386 77.5031 72.4386 100.403 61.5386C117.503 53.3386 138.003 52.3386 157.903 51.4386C165.603 51.0386 172.803 50.7386 179.803 49.9386C189.003 48.7386 198.703 51.1386 205.103 56.2386C243.703 87.0386 283.603 118.939 325.403 148.339C328.403 150.439 330.203 153.439 330.403 156.539C330.603 159.439 329.303 162.239 326.903 164.439C318.203 171.339 308.403 176.939 298.903 182.239C288.803 187.939 278.503 193.839 269.503 201.239C247.903 219.239 251.303 247.839 254.303 272.939L254.603 275.839C255.503 282.039 254.403 287.339 251.603 290.539C249.503 292.839 246.603 294.039 243.103 293.839C222.603 294.339 204.003 301.039 186.103 307.539C168.303 314.239 149.803 320.939 129.403 321.539ZM184.503 50.7386C183.003 50.7386 181.503 50.8386 180.003 51.0386C173.003 51.7386 165.703 52.1386 158.103 52.5386C138.403 53.4386 118.003 54.4386 101.003 62.5386C78.5032 73.2386 68.5032 97.7386 59.6032 119.439C58.7032 121.539 57.9032 123.539 57.1032 125.639C53.5032 133.739 53.0032 145.139 55.9032 152.739C60.7032 165.539 65.7032 178.539 70.5032 191.139C85.1032 229.339 100.203 268.839 113.203 308.739C115.503 315.839 122.103 320.639 129.503 320.639C149.703 320.039 168.103 313.339 185.903 306.939C203.903 300.439 222.603 293.639 243.303 293.139C246.503 293.239 249.203 292.239 251.103 290.139C253.803 287.139 254.803 282.239 253.903 276.239L253.603 273.339C250.603 247.939 247.103 219.039 269.203 200.739C278.203 193.239 288.703 187.339 298.803 181.539C308.203 176.239 318.003 170.639 326.603 163.839C328.803 161.839 329.903 159.339 329.803 156.839C329.603 154.039 328.003 151.339 325.203 149.439C283.303 120.039 243.403 88.1386 204.903 57.2386C199.303 53.0386 191.903 50.7386 184.503 50.7386Z" fill="white"/>
<path d="M138.304 305.439C131.504 305.439 124.703 300.239 122.403 293.139C109.703 253.939 94.0035 215.439 78.8035 178.139C75.2035 169.339 71.6035 160.539 68.1035 151.639C64.5035 143.139 64.6035 130.739 68.3035 122.239L69.1035 120.239C77.8035 100.139 86.8035 79.3386 107.703 69.6386C123.503 62.3386 143.604 61.7386 161.304 61.1386C166.504 60.9386 171.504 60.8386 176.203 60.5386C185.104 59.6386 196.303 63.1386 202.803 68.7386L204.903 70.4386C238.703 98.7386 270.603 125.539 306.303 149.939C308.903 151.739 310.303 154.139 310.303 156.639C310.203 159.339 308.503 161.939 305.403 163.939C298.003 168.039 290.003 171.539 282.303 174.939C271.703 179.639 260.704 184.439 251.104 190.939C229.404 205.739 230.903 227.039 232.503 249.539C233.203 255.639 232.103 260.939 229.303 264.339C227.403 266.639 224.803 268.039 221.903 268.339C206.403 271.539 193.403 279.239 180.903 286.839C168.303 294.439 155.203 302.239 139.504 305.439C139.104 305.439 138.704 305.439 138.304 305.439ZM178.903 61.3386C178.003 61.3386 177.104 61.3386 176.203 61.4386C171.403 61.7386 166.504 61.9386 161.203 62.0386C143.604 62.6386 123.604 63.2386 108.003 70.4386C87.4035 79.9386 78.5035 100.539 69.9035 120.539L69.1035 122.539C65.6035 130.839 65.5035 142.839 68.9035 151.239C72.5035 160.139 76.1035 168.939 79.6035 177.739C94.8035 215.039 110.504 253.639 123.304 292.839C125.604 299.939 132.604 305.039 139.304 304.439C154.804 301.239 167.804 293.539 180.304 285.939C192.904 278.339 206.004 270.539 221.704 267.339C224.404 267.039 226.803 265.839 228.503 263.739C231.104 260.539 232.203 255.539 231.403 249.639C229.803 226.739 228.203 205.239 250.403 190.139C260.003 183.539 271.104 178.739 281.704 174.039C289.404 170.639 297.304 167.139 304.704 163.039C307.504 161.239 309.104 159.039 309.104 156.639C309.104 154.439 307.904 152.339 305.604 150.739C269.803 126.239 237.904 99.4386 204.104 71.1386L202.003 69.4386C196.403 64.5386 187.003 61.3386 178.903 61.3386Z" fill="white"/>
<path d="M145.103 288.038C139.903 288.038 134.803 283.738 132.703 277.238C121.503 242.738 106.903 208.938 92.8033 176.338C89.3033 168.238 85.7033 159.938 82.2033 151.638C78.0033 141.338 77.7033 130.139 81.6033 121.039C102.803 78.5385 130.303 74.0385 173.103 71.6385C182.203 71.0385 193.903 75.2385 200.803 81.4385C204.203 84.4385 207.603 87.4385 211.003 90.4385C235.903 112.438 259.403 133.139 286.803 151.039C288.903 152.439 289.903 154.238 289.803 156.138C289.603 158.738 287.403 161.138 283.503 162.938C277.803 165.339 272.203 167.438 266.803 169.438C238.903 179.839 214.903 188.838 213.203 225.438C213.503 235.638 209.903 243.638 204.103 245.438C193.103 250.538 184.503 258.638 176.203 266.438C167.803 274.238 159.203 282.439 147.903 287.639C146.903 287.939 146.003 288.038 145.103 288.038ZM174.803 72.5385C174.203 72.5385 173.603 72.5385 173.103 72.6385C130.703 75.0385 103.403 79.5385 82.5033 121.438C78.8033 130.339 79.0033 141.139 83.1033 151.239C86.6033 159.438 90.2033 167.839 93.7033 175.938C107.803 208.639 122.403 242.339 133.703 276.938C136.003 284.038 142.103 288.339 147.503 286.639C158.503 281.538 167.103 273.439 175.403 265.639C183.803 257.839 192.403 249.638 203.703 244.438C209.103 242.738 212.503 235.138 212.103 225.338C213.803 188.038 238.103 178.938 266.303 168.438C271.703 166.438 277.303 164.339 283.003 161.938C286.503 160.339 288.603 158.139 288.703 156.039C288.803 154.439 287.903 152.938 286.203 151.838C258.803 133.938 235.303 113.138 210.303 91.1385C206.903 88.1385 203.503 85.1385 200.103 82.1385C193.703 76.4385 183.403 72.5385 174.803 72.5385Z" fill="white"/>
<path d="M150.803 269.339C150.003 269.339 149.203 269.139 148.403 268.839C145.503 267.739 143.103 264.539 142.103 260.539C135.003 233.339 122.503 206.739 110.403 181.139C106.203 172.139 101.803 162.839 97.7034 153.739C92.8034 142.539 92.4034 131.139 96.7034 122.539C114.503 94.5386 139.203 87.0386 170.803 84.3386C180.003 83.7386 192.103 88.4386 199.403 95.4386C204.303 99.9386 209.403 104.739 214.303 109.439C230.803 125.239 247.903 141.539 267.403 152.539C268.903 153.439 269.703 154.739 269.503 156.139C269.303 158.539 266.503 160.839 261.803 162.539C258.403 163.739 255.103 164.839 251.903 165.839C228.003 173.639 207.403 180.339 199.503 207.039C198.403 216.239 194.803 224.039 190.403 226.739C183.403 232.939 177.803 240.339 172.403 247.439C167.003 254.639 161.303 262.039 154.203 268.339C153.203 268.939 152.003 269.339 150.803 269.339ZM170.903 85.2386C127.603 88.9386 110.203 103.039 97.6034 122.939C93.5034 131.239 93.9034 142.339 98.6034 153.239C102.603 162.339 107.003 171.639 111.303 180.639C123.403 206.339 135.903 232.939 143.103 260.239C144.103 264.039 146.203 266.839 148.803 267.939C150.503 268.639 152.203 268.439 153.803 267.439C160.803 261.239 166.403 253.839 171.803 246.739C177.203 239.539 182.903 232.139 190.003 225.839C194.203 223.239 197.603 215.739 198.703 206.739C206.703 179.539 228.603 172.339 251.703 164.839C254.903 163.739 258.303 162.739 261.603 161.539C265.803 160.039 268.403 157.939 268.603 155.939C268.703 154.739 267.803 153.839 266.903 153.339C247.303 142.239 230.203 125.939 213.603 110.139C208.703 105.439 203.703 100.639 198.703 96.1386C191.603 89.2386 179.903 84.7386 170.903 85.2386Z" fill="white"/>
<path d="M156.204 249.838C155.904 249.838 155.604 249.838 155.304 249.738C152.604 249.138 150.304 246.038 148.604 240.838C139.504 212.738 127.104 185.238 115.104 158.738L114.904 158.238C112.204 152.538 106.904 138.038 114.504 127.638C129.904 111.838 145.504 103.838 170.104 99.0382C181.304 97.8382 190.604 104.538 198.704 110.438L198.904 110.638C201.904 113.438 204.904 116.238 207.904 119.038C220.704 131.038 233.903 143.538 248.303 153.838C249.803 154.838 250.503 156.038 250.303 157.238C250.003 159.338 247.104 161.338 241.803 163.138L240.504 163.638C222.504 169.938 202.104 177.038 193.404 195.038C188.904 203.638 185.204 209.538 182.304 212.538C177.804 217.938 174.404 224.138 171.204 230.238C167.904 236.338 164.504 242.638 159.904 248.038C158.804 249.138 157.504 249.838 156.204 249.838ZM170.204 100.138C145.804 104.938 130.404 112.838 115.204 128.338C108.004 138.238 113.204 152.238 115.804 157.838L116.004 158.338C128.004 184.938 140.404 212.338 149.604 240.538C151.104 245.238 153.304 248.238 155.504 248.738C156.704 249.038 158.004 248.538 159.104 247.338C163.604 241.938 167.004 235.738 170.204 229.638C173.504 223.538 176.904 217.238 181.504 211.838C184.404 208.838 188.004 202.938 192.404 194.538C201.304 176.138 221.904 168.938 240.104 162.638L241.404 162.138C247.904 159.938 249.104 158.038 249.303 157.038C249.404 156.238 248.904 155.438 247.704 154.638C233.204 144.338 220.004 131.838 207.204 119.738C204.204 116.938 201.304 114.138 198.304 111.338L198.104 111.238C189.704 105.238 181.004 98.8382 170.204 100.138Z" fill="white"/>
<path d="M160.003 227.238C159.703 227.238 159.503 227.238 159.303 227.138C156.703 226.638 154.303 223.138 152.503 217.538C146.903 199.438 139.903 182.038 132.603 164.238L132.103 162.438C129.703 153.838 126.603 143.138 133.503 135.338C143.803 125.238 155.603 120.238 170.203 115.738C179.403 113.938 191.303 119.238 197.503 125.438L200.803 128.538C209.703 136.838 218.803 145.538 228.403 153.338C230.003 154.638 230.803 156.038 230.603 157.538C230.303 159.838 227.803 162.038 223.003 164.238C209.203 170.438 199.003 177.838 192.103 187.038C190.603 189.038 189.003 191.238 187.503 193.338C184.703 197.238 182.003 200.938 179.803 203.438C176.203 207.538 173.903 210.938 171.603 214.338C169.303 217.738 167.003 221.138 163.403 225.338C162.203 226.838 160.903 227.238 160.003 227.238ZM170.403 116.738C156.003 121.138 144.303 126.138 134.203 136.038C127.703 143.338 130.703 153.838 133.103 162.238L133.603 163.938C140.903 181.638 147.903 199.138 153.503 217.238C155.103 222.438 157.303 225.738 159.603 226.138C160.703 226.338 161.803 225.838 162.803 224.738C166.403 220.638 168.703 217.238 171.003 213.838C173.303 210.438 175.603 207.038 179.203 202.838C181.303 200.338 184.003 196.638 186.803 192.738C188.303 190.638 189.903 188.438 191.403 186.438C198.503 177.138 208.703 169.638 222.703 163.338C227.103 161.338 229.503 159.238 229.703 157.438C229.803 156.338 229.203 155.238 227.903 154.138C218.303 146.238 209.103 137.638 200.303 129.238L197.003 126.138C190.703 120.138 179.203 114.938 170.403 116.738Z" fill="white"/>
<path d="M164.603 204.438C164.203 204.438 163.703 204.338 163.303 204.238C160.603 203.338 158.203 199.738 156.603 194.138C153.903 184.838 152.303 179.738 148.703 169.338C144.903 158.438 146.203 147.638 151.903 143.138C158.303 138.038 161.803 136.038 169.803 132.838C177.503 129.738 188.403 133.838 194.503 139.638C201.203 146.038 204.103 148.738 209.003 153.038C210.903 154.738 211.803 156.538 211.703 158.338C211.603 160.938 209.703 163.638 205.803 166.538C199.703 171.138 196.803 173.738 191.903 179.638L191.203 180.538C186.903 185.838 182.003 191.838 178.203 194.738C176.103 196.438 174.503 197.738 173.003 198.938C171.503 200.238 169.903 201.538 167.803 203.138C166.803 204.038 165.703 204.438 164.603 204.438ZM170.203 133.738C162.303 136.938 158.803 138.838 152.503 143.838C146.503 148.638 146.503 160.038 149.603 168.938C153.303 179.438 154.903 184.538 157.603 193.838C159.103 199.138 161.303 202.538 163.603 203.238C164.803 203.638 166.003 203.338 167.203 202.338C169.303 200.638 170.903 199.338 172.403 198.138C173.903 196.838 175.503 195.538 177.603 193.938C181.303 191.038 186.103 185.138 190.403 179.838L191.103 178.938C196.003 172.938 198.903 170.338 205.203 165.638C208.703 162.938 210.603 160.438 210.703 158.238C210.803 156.638 210.003 155.138 208.303 153.738C203.403 149.438 200.603 146.738 193.803 140.338C188.003 134.738 177.503 130.738 170.203 133.738Z" fill="white"/>
<path d="M172.403 184.039C171.303 184.039 170.303 183.739 169.303 183.239C166.403 181.739 164.203 178.139 162.903 172.839C160.103 161.639 164.203 153.139 169.103 150.039C175.803 145.839 185.503 148.339 190.603 153.139C195.403 157.639 195.403 163.339 190.403 169.939C185.203 176.839 179.503 181.939 175.003 183.539C174.103 183.939 173.203 184.039 172.403 184.039ZM169.703 150.939C163.403 154.939 162.003 164.939 163.903 172.639C165.103 177.539 167.203 181.039 169.803 182.339C171.303 183.139 173.003 183.239 174.703 182.539C179.003 180.939 184.603 175.939 189.703 169.239C194.403 163.039 194.503 157.939 190.003 153.739C185.103 149.339 176.003 146.939 169.703 150.939Z" fill="white"/>
</svg>
