<svg width="424" height="424" viewBox="0 0 424 424" fill="none" xmlns="http://www.w3.org/2000/svg">
<path d="M248.7 227.2L315.2 251.3L423.8 212L315.2 172.6L248.7 196.7L312.8 166.7L361.8 62.1L257.1 111.1L227.1 175.2L251.2 108.6L211.9 0L172.6 108.6L196.7 175.2L166.7 111.1L62 62.1L111 166.7L175.1 196.7L108.6 172.6L0 212L108.6 251.3L175.1 227.2L111 257.2L62 361.8L166.7 312.8L196.7 248.7L172.6 315.3L211.9 423.9L251.2 315.3L227.1 248.7L257.1 312.8L361.8 361.8L312.8 257.2L248.7 227.2Z" fill="white"/>
</svg>
