<svg width="341" height="376" viewBox="0 0 341 376" fill="none" xmlns="http://www.w3.org/2000/svg">
<path d="M312.49 205.6L281.79 187.9L312.49 170.2C339.19 154.8 348.29 120.7 332.89 94C317.49 67.3 283.39 58.2 256.69 73.6L225.99 91.3V55.8C225.99 25 200.99 0 170.19 0C139.39 0 114.39 25 114.39 55.8V91.3L83.6898 73.6C56.9898 58.2 22.8898 67.3 7.48983 94C-7.91017 120.7 1.18983 154.8 27.8898 170.2L58.5898 187.9L27.8898 205.6C1.18983 221 -7.91017 255.1 7.48983 281.8C22.8898 308.5 56.9898 317.6 83.6898 302.2L114.39 284.5V319.9C114.39 350.7 139.39 375.7 170.19 375.7C200.99 375.7 225.99 350.7 225.99 319.9V284.4L256.69 302.1C283.39 317.5 317.49 308.4 332.89 281.7C348.29 255.1 339.19 221 312.49 205.6Z" fill="white"/>
</svg>
