<svg width="371" height="428" viewBox="0 0 371 428" fill="none" xmlns="http://www.w3.org/2000/svg">
<path d="M280.1 226.2C285.7 221.7 291.5 217.6 297.6 213.7C291.5 209.8 285.7 205.7 280.1 201.2C285.8 193.4 292.1 186.1 298.9 179.2L370.4 106.9L272 132.6C262.6 135.1 253.1 136.8 243.5 137.9C242.4 130.8 241.7 123.7 241.4 116.5C235 119.8 228.5 122.8 221.8 125.4C217.9 116.6 214.7 107.5 212.1 98.1L185.2 0L158.3 98.1C155.7 107.5 152.5 116.6 148.6 125.4C142 122.8 135.4 119.8 129 116.5C128.7 123.7 128 130.8 126.9 137.9C117.3 136.8 107.8 135.1 98.4 132.6L0 106.9L71.5 179.2C78.3 186.1 84.6 193.5 90.3 201.2C84.7 205.7 78.9 209.8 72.8 213.7C78.9 217.6 84.7 221.7 90.3 226.2C84.6 234 78.3 241.3 71.5 248.2L0 320.5L98.4 294.8C107.8 292.3 117.3 290.6 126.9 289.5C128 296.6 128.7 303.7 129 310.9C135.4 307.6 141.9 304.6 148.6 302C152.5 310.8 155.7 319.9 158.3 329.3L185.2 427.4L212.1 329.3C214.7 319.9 217.9 310.8 221.8 302C228.4 304.6 235 307.6 241.4 310.9C241.7 303.7 242.4 296.6 243.5 289.5C253.1 290.6 262.6 292.3 272 294.8L370.4 320.5L298.9 248.2C292.1 241.3 285.8 233.9 280.1 226.2Z" fill="white"/>
</svg>
