<svg width="371" height="371" viewBox="0 0 371 371" fill="none" xmlns="http://www.w3.org/2000/svg">
<path d="M369 248C339 263 304 266 271 257C247 250 226 235 212 214C278 231 344 187 371 128C367 119 364 109 360 100C357 106 354 112 352 118C351 120 349 121 348 123C325 168 274 198 224 186C250 173 267 148 277 122C283 107 285 90 286 74C286 54 282 33 276 14C267 10 258 6 248 2C273 53 265 126 214 158C231 92 186 27 128 0C119 4 109 7 100 11C129 23 156 42 173 70C187 93 192 120 186 146C179 135 172 125 162 117C159 115 156 113 153 110C111 80 59 79 13 95C11 105 5 113 2 123C53 98 125 106 158 157C125 149 90 155 60 174C33 191 14 215 0 243C3 253 7 262 11 271C23 241 42 215 70 198C73 197 76 195 79 193C100 183 124 179 146 185C135 192 125 199 117 209C115 212 113 215 110 218C80 260 79 312 95 358C105 361 113 366 123 369C97 318 106 245 157 213C146 255 160 299 189 331C192 334 195 337 198 340C211 353 227 363 243 371C252 367 262 364 271 360C217 341 171 284 185 225C196 244 213 259 232 270C236 272 239 273 243 275C279 290 320 289 357 276C361 267 366 258 369 248Z" fill="white"/>
</svg>
