<svg width="376" height="376" viewBox="0 0 376 376" fill="none" xmlns="http://www.w3.org/2000/svg">
<path d="M196.7 184.6L297.5 108C320.6 90.4 322.9 56.5 302.4 36L190.1 183.9L207.8 54.4C211.7 25.6 189.4 0 160.3 0L184.8 179.8L108.9 79.8C91.3 56.7 57.4 54.4 36.9 74.9L181.9 185.1L54.4 167.7C25.6 163.8 0 186.1 0 215.2L183.6 190.1L80.6 268.4C57.5 286 55.2 319.9 75.7 340.4L184.7 197L167.7 321C163.8 349.8 186.1 375.4 215.2 375.4L190.3 192.8L269.2 296.6C286.8 319.7 320.7 322 341.2 301.5L195 190.5L321.1 207.7C349.9 211.6 375.5 189.3 375.5 160.2L196.7 184.6Z" fill="white"/>
</svg>
