<svg width="367" height="367" viewBox="0 0 367 367" fill="none" xmlns="http://www.w3.org/2000/svg">
<path d="M199.682 45.4824L234.182 7.28236C247.982 -8.01764 273.282 2.48236 272.182 23.0824L269.582 74.4824C268.882 87.3824 279.582 98.0824 292.482 97.3824L343.882 94.7824C364.382 93.7824 374.882 119.082 359.682 132.782L321.482 167.282C311.882 175.982 311.882 191.082 321.482 199.682L359.682 234.182C374.982 247.982 364.482 273.282 343.882 272.182L292.482 269.582C279.582 268.882 268.882 279.582 269.582 292.482L272.182 343.882C273.182 364.382 247.882 374.882 234.182 359.682L199.682 321.482C190.982 311.882 175.882 311.882 167.282 321.482L132.782 359.682C118.982 374.982 93.6824 364.482 94.7824 343.882L97.3824 292.482C98.0824 279.582 87.3824 268.882 74.4824 269.582L23.0824 272.182C2.58236 273.182 -7.91764 247.882 7.28236 234.182L45.4824 199.682C55.0824 190.982 55.0824 175.882 45.4824 167.282L7.28236 132.782C-8.01764 118.982 2.48236 93.6824 23.0824 94.7824L74.4824 97.3824C87.3824 98.0824 98.0824 87.3824 97.3824 74.4824L94.7824 23.0824C93.7824 2.58237 119.082 -7.91764 132.782 7.28236L167.282 45.4824C175.982 55.0824 191.082 55.0824 199.682 45.4824Z" fill="white"/>
</svg>
