<svg width="379" height="376" viewBox="0 0 379 376" fill="none" xmlns="http://www.w3.org/2000/svg">
<path d="M189.4 52.7L212.2 0L221.7 56.7L256.5 10.9L252.2 68.2L296.9 32.2L279 86.8L331.1 62.4L300.7 111.2L357 100L315.8 140L373.2 142.7L323.6 171.7L378.7 188L323.6 204.3L373.2 233.3L315.8 236L357 276L300.7 264.8L331.1 313.6L279 289.2L296.9 343.8L252.2 307.8L256.5 365.1L221.7 319.3L212.2 376L189.4 323.3L166.5 376L157 319.3L122.2 365.1L126.5 307.8L81.8 343.8L99.7 289.2L47.6 313.6L78 264.8L21.7 276L62.9 236L5.5 233.3L55.1 204.3L0 188L55.1 171.7L5.5 142.7L62.9 140L21.7 100L78 111.2L47.6 62.4L99.7 86.8L81.8 32.2L126.5 68.2L122.2 10.9L157 56.7L166.5 0L189.4 52.7Z" fill="white"/>
</svg>
