<svg width="370" height="373" viewBox="0 0 370 373" fill="none" xmlns="http://www.w3.org/2000/svg">
<path d="M369.7 133.8L322.7 52.5C308.1 60.9 247.1 106.4 209.6 143.4C222.9 92.4 231.8 16.8 231.8 0H137.9C137.9 16.8 146.8 92.5 160.1 143.4C122.6 106.4 61.5 60.9 47 52.5L0 133.8C14.6 142.2 84.5 172.4 135.3 186.3C84.5 200.3 14.6 230.4 0 238.8L47 320.1C61.6 311.7 122.6 266.2 160.1 229.2C146.8 280.2 137.9 355.8 137.9 372.6H231.8C231.8 355.8 222.9 280.1 209.6 229.2C247.1 266.2 308.2 311.7 322.7 320.1L369.7 238.8C355.1 230.4 285.2 200.2 234.4 186.3C285.2 172.3 355.1 142.2 369.7 133.8Z" fill="white"/>
</svg>
