<svg width="377" height="378" viewBox="0 0 377 378" fill="none" xmlns="http://www.w3.org/2000/svg">
<path d="M274 85C283 67 285 46 284 26C285 31 287 35 289 39C296 62 298 85 297 108C310 92 316 73 320 53C324 81 322 110 313 137C329 124 340 107 349 89C346 117 337 144 322 168C340 159 356 146 368 130C359 157 343 181 323 201C343 197 361 187 377 175C362 199 340 217 317 233C337 233 357 228 375 220C354 239 329 254 302 262C322 267 342 269 362 264C338 278 310 286 282 287C299 298 320 304 340 303C313 311 284 312 256 307C270 321 289 331 308 336C280 337 251 332 226 319C236 337 252 350 269 361C242 354 215 342 193 324C194 329 197 333 199 338C200 342 203 346 206 350C207 351 207 353 208 355C214 363 220 369 226 375C201 362 178 345 161 322C163 342 169 361 180 378C158 360 142 337 130 311C126 331 130 352 135 371C119 348 106 322 103 294C93 312 92 333 93 353C83 327 78 298 80 270C68 286 60 306 57 326C53 298 55 269 64 242C48 254 36 271 28 290C31 262 39 234 55 210C38 220 20 232 9 249C17 222 34 198 54 178C34 181 15 191 0 204C15 180 36 160 60 146C40 145 20 150 2 158C23 139 47 124 74 117C55 109 34 111 14 115C39 101 67 93 95 91C77 81 57 76 37 75C65 69 93 66 121 72C115 67 110 61 103 57C100 56 97 54 94 52C86 48 77 45 69 42C97 42 125 48 151 59C141 42 125 29 108 18C136 25 162 36 184 54C177 35 166 18 151 4C176 16 199 34 216 57C215 36 206 18 197 0C202 5 208 10 213 15C216 19 219 22 222 26C232 39 241 52 247 67C250 47 248 27 242 8C258 31 271 57 274 85Z" fill="white"/>
</svg>
