<svg width="390" height="390" viewBox="0 0 390 390" fill="none" xmlns="http://www.w3.org/2000/svg">
<path d="M194.75 194.95C92.0505 454.35 297.45 454.35 194.75 194.95V194.95Z" fill="white"/>
<path d="M194.55 194.95C-61.4498 305.65 83.8502 450.95 194.55 194.95V194.95Z" fill="white"/>
<path d="M194.55 194.75C-64.85 92.05 -64.85 297.45 194.55 194.75V194.75Z" fill="white"/>
<path d="M194.95 194.95C305.65 450.95 450.95 305.65 194.95 194.95V194.95Z" fill="white"/>
<path d="M194.95 194.75C197.75 193.55 200.65 192.25 203.65 191.05C200.75 192.25 197.85 193.45 194.95 194.55C196.05 191.65 197.25 188.75 198.45 185.85C197.25 188.75 196.05 191.65 194.75 194.55C193.55 191.75 192.25 188.85 191.05 185.85C192.25 188.75 193.45 191.65 194.55 194.55C191.65 193.45 188.75 192.25 185.85 191.05C188.75 192.25 191.65 193.45 194.55 194.75C191.75 195.95 188.85 197.25 185.85 198.45C188.75 197.25 191.65 196.05 194.55 194.95C193.45 197.85 192.25 200.75 191.05 203.65C192.25 200.75 193.45 197.85 194.75 194.95C195.95 197.75 197.25 200.65 198.45 203.65C197.25 200.75 196.05 197.85 194.95 194.95C197.85 196.05 200.75 197.25 203.65 198.45C200.65 197.25 197.85 195.95 194.95 194.75Z" fill="white"/>
<path d="M194.95 194.75C454.35 92.05 454.35 297.45 194.95 194.75V194.75Z" fill="white"/>
<path d="M194.95 194.55C305.65 -61.4501 450.95 83.8499 194.95 194.55V194.55Z" fill="white"/>
<path d="M194.55 194.55C-61.4498 83.8499 83.8502 -61.4501 194.55 194.55V194.55Z" fill="white"/>
<path d="M194.75 194.55C92.0505 -64.85 297.45 -64.85 194.75 194.55V194.55Z" fill="white"/>
</svg>
