<svg width="384" height="384" viewBox="0 0 384 384" fill="none" xmlns="http://www.w3.org/2000/svg">
<path d="M384 190C367 198 350 203 331 207C313 211 295 210 277 209C288 205 299 201 310 196C313 194 316 193 319 191C342 176 361 158 376 135C359 109 344 81 327 55C323 62 321 70 317 78C314 82 313 87 310 91C297 112 282 129 264 144C284 107 291 63 281 22C251 15 221 6 190 0C206 34 213 71 209 108C198 67 171 31 135 8C109 25 81 40 55 57C63 61 70 63 78 67C91 74 104 82 116 91C125 98 131 106 139 113C141 115 142 118 144 120C140 117 135 116 131 113C125 110 118 108 112 106C83 97 51 95 22 103C17 123 13 142 7 162C5 173 2 183 0 194C34 179 71 171 108 175C67 186 32 214 9 249C25 276 41 303 58 329C71 295 91 262 121 240C100 276 94 321 103 362C134 368 163 378 194 384C180 350 169 313 176 276C177 286 182 296 186 305C188 308 190 311 191 314C192 315 193 317 194 318C195 320 195 321 196 323C207 338 217 351 232 362C233 363 233 364 234 365C239 369 244 372 249 375C276 359 303 343 330 326C326 326 324 323 320 322C308 318 297 312 286 305C278 300 273 295 265 290C262 288 261 285 259 283C252 277 246 270 240 263C276 284 321 291 362 281C367 258 374 235 380 211C382 204 383 197 384 190Z" fill="white"/>
</svg>
