<svg width="376" height="374" viewBox="0 0 376 374" fill="none" xmlns="http://www.w3.org/2000/svg">
<path d="M207.6 0C194.5 124.7 181.4 124.7 168.3 0C181.4 124.7 168.6 127.4 129.9 8.2C168.6 127.4 156.7 132.7 94 24.2C156.7 132.7 146.1 140.4 62.2 47.3C146.1 140.4 137.3 150.2 35.9 76.5C137.3 150.2 130.8 161.5 16.2 110.5C130.7 161.5 126.7 173.9 4.1 147.9C126.7 174 125.3 187 0 187C125.3 187 126.7 200 4.1 226.1C126.7 200 130.7 212.5 16.2 263.5C130.7 212.5 137.3 223.9 35.9 297.5C137.3 223.8 146.1 233.6 62.2 326.7C146.1 233.6 156.7 241.3 94 349.8C156.7 241.3 168.6 246.6 129.9 365.8C168.6 246.6 177.5 254.3 168.3 374C183.4 253.3 194.5 249.3 207.6 374C194.5 249.3 207.3 246.6 246 365.8C207.3 246.6 219.2 241.3 281.9 349.8C219.2 241.3 229.8 233.6 313.7 326.7C229.8 233.6 238.6 223.8 340 297.5C238.6 223.8 245.1 212.5 359.7 263.5C245.2 212.5 249.2 200.1 371.8 226.1C249.3 200 250.7 187 376 187C250.7 187 249.3 174 371.9 147.9C249.3 174 245.3 161.5 359.8 110.5C245.3 161.5 238.7 150.1 340.1 76.5C238.7 150.2 229.9 140.4 313.8 47.3C229.9 140.4 219.3 132.7 282 24.2C219.3 132.7 207.4 127.4 246.1 8.2C207.4 127.4 194.5 124.7 207.6 0Z" fill="white"/>
</svg>
