<svg width="393" height="393" viewBox="0 0 393 393" fill="none" xmlns="http://www.w3.org/2000/svg">
<path d="M392.2 245.5C392.2 191 342.9 149.9 289.3 159.7C286.1 160.3 282.9 160.9 279.7 161.5C319.6 134.4 359.9 102.2 369.7 92.4C331.2 53.9 267.2 59.7 236.2 104.5C234.3 107.2 232.5 109.8 230.7 112.5C239.8 65.1 245.5 13.8 245.5 0C191 0 149.9 49.3 159.7 102.9C160.3 106.1 160.9 109.3 161.5 112.5C134.4 72.6 102.2 32.3 92.4 22.5C53.9 61 59.7 125 104.5 156C107.2 157.9 109.8 159.7 112.5 161.5C65.1 152.4 13.8 146.7 0 146.7C0 201.2 49.3 242.3 102.9 232.5C106.1 231.9 109.3 231.3 112.5 230.7C72.6 257.8 32.3 290 22.5 299.8C61 338.3 125 332.5 156 287.7C157.9 285 159.7 282.4 161.5 279.7C152.4 327.1 146.7 378.4 146.7 392.2C201.2 392.2 242.3 342.9 232.5 289.3C231.9 286.1 231.3 282.9 230.7 279.7C257.8 319.6 290 359.9 299.8 369.7C338.3 331.2 332.5 267.2 287.7 236.2C285 234.3 282.4 232.5 279.7 230.7C327.1 239.9 378.4 245.5 392.2 245.5Z" fill="white"/>
</svg>
