<svg width="401" height="375" viewBox="0 0 401 375" fill="none" xmlns="http://www.w3.org/2000/svg">
<path d="M200.179 187.28C20.4788 498.48 44.5788 277.08 200.179 187.28V187.28Z" fill="white"/>
<path d="M200.179 187.28C20.4792 498.48 200.179 366.98 200.179 187.28V187.28Z" fill="white"/>
<path d="M200.179 187.28C-159.221 187.28 44.5788 277.08 200.179 187.28V187.28Z" fill="white"/>
<path d="M200.179 187.28C355.779 277.08 379.779 498.48 200.179 187.28V187.28Z" fill="white"/>
<path d="M200.179 187.28C200.179 366.98 379.779 498.48 200.179 187.28V187.28Z" fill="white"/>
<path d="M200.179 187.28C-159.221 187.28 44.5788 97.48 200.179 187.28V187.28Z" fill="white"/>
<path d="M200.179 187.28C355.779 97.4801 379.779 -123.92 200.179 187.28V187.28Z" fill="white"/>
<path d="M200.179 187.28C355.779 97.48 559.479 187.28 200.179 187.28V187.28Z" fill="white"/>
<path d="M200.179 187.28C355.779 277.08 559.479 187.28 200.179 187.28V187.28Z" fill="white"/>
<path d="M200.179 187.28C200.179 7.58008 379.779 -123.92 200.179 187.28V187.28Z" fill="white"/>
<path d="M200.179 187.28C20.4788 -123.92 44.5788 97.4801 200.179 187.28V187.28Z" fill="white"/>
<path d="M200.179 187.28C20.4792 -123.92 200.179 7.58008 200.179 187.28V187.28Z" fill="white"/>
</svg>
