<svg width="369" height="369" viewBox="0 0 369 369" fill="none" xmlns="http://www.w3.org/2000/svg">
<path d="M196 85C237 80 268 41 264 0C267 4 271 9 273 14C275 19 278 23 280 27C305 80 307 142 284 196C287 211 293 226 303 238C320 257 345 265 369 264C322 297 263 308 206 295C202 294 199 293 195 292C187 290 180 287 173 284C148 289 124 303 113 327C112 329 111 332 110 334C106 345 104 357 105 369C65 313 58 236 85 173C80 148 66 124 42 113C40 112 37 111 35 110C24 106 12 104 0 105C4 102 9 100 14 97C42 79 73 72 104 70C135 67 167 73 196 85Z" fill="white"/>
</svg>
