<svg width="388" height="388" viewBox="0 0 388 388" fill="none" xmlns="http://www.w3.org/2000/svg">
<path d="M387.3 178.7H264L376.8 131.8L365.3 104.1L261 147.5L341.2 67.4L320 46.2L232.8 133.4L279.9 19L252.3 7.6L208.6 113.4V0H178.7V120.6L131.7 7.8L104.1 19.3L149.4 128.3L67.3 46.2L46.1 67.4L128.7 149.9L19 104.7L7.60001 132.4L120 178.7H0V208.7H114.1L7.8 252.9L19.3 280.6L132.9 233.3L46.1 320L67.3 341.2L148 260.6L104.7 365.7L132.3 377.1L178.7 264.7V387.4H208.6V270.6L252.9 376.9L280.5 365.4L235.2 256.4L320 341.2L341.2 320L255.9 234.8L365.6 280L377 252.3L271.2 208.7H387.3V178.7Z" fill="white"/>
</svg>
