<svg width="377" height="377" viewBox="0 0 377 377" fill="none" xmlns="http://www.w3.org/2000/svg">
<path d="M361 264.155C362 262.155 362 261.155 362 259.155C361 254.155 355 254.155 352 255.155C307 270.155 257 266.155 221 234.155C220 232.155 218 231.155 216 229.155C214 226.155 211 224.155 210 221.155C235 243.155 268 249.155 300 244.155C321 241.155 339 233.155 357 222.155C367 216.155 374 207.155 376 195.155C376 191.155 377 185.155 372 184.155C370 184.155 368 184.155 367 185.155C329 217.155 277 235.155 230 214.155C248 219.155 268 216.155 286 211.155C292 209.155 297 207.155 303 204.155C308 201.155 313 198.155 318 195.155C320 193.155 322 192.155 325 190.155C340 178.155 352 166.155 360 150.155C365 141.155 367 130.155 364 120.155C363 117.155 360 116.155 358 115.155C356 115.155 354 116.155 353 117.155C348 123.155 346 129.155 342 136.155C340 138.155 339 140.155 337 142.155C336 143.155 337 144.155 336 145.155C310 180.155 269 203.155 226 197.155C266 194.155 299 167.155 317 132.155C328 108.155 345 74.1554 319 55.1554C315 52.1554 311 58.1554 311 62.1554C308 110.155 282 161.155 235 178.155C245 171.155 254 163.155 262 153.155C263 151.155 265 148.155 267 146.155C287 112.155 292 72.1554 281 36.1554C275 28.1554 270 15.1554 258 16.1554C253 17.1554 253 23.1554 254 26.1554C271 74.1554 263 132.155 223 166.155C259 121.155 250 54.1554 214 11.1554C208 4.15542 199 2.15542 190 0.155418C185 -0.844582 182 3.15542 183 7.15542C187 18.1554 198 26.1554 203 37.1554C204 39.1554 206 40.1554 207 42.1554C225 76.1554 230 117.155 213 152.155C222 113.155 208 72.1554 180 42.1554C179 41.1554 178 41.1554 177 40.1554C168 30.1554 157 20.1554 144 16.1554C134 12.1554 119 8.15542 115 20.1554C114 22.1554 117 25.1554 119 27.1554C139 37.1554 155 49.1554 170 66.1554C172 68.1554 173 71.1554 175 73.1554C184 88.1554 192 101.155 195 118.155C195 119.155 195 121.155 195 122.155C198 129.155 197 137.155 197 144.155C191 113.155 173 86.1554 146 68.1554C134 60.1554 122 54.1554 109 51.1554C99 48.1554 91 44.1554 81 45.1554C71 47.1554 59 48.1554 54 58.1554C53 62.1554 59 65.1554 62 66.1554C111 69.1554 163 95.1554 179 144.155C180 146.155 182 148.155 182 150.155C155 102.155 98 83.1554 44 94.1554C41 95.1554 38 96.1554 35 97.1554C27 102.155 18 107.155 15 117.155C13 124.155 21 125.155 26 124.155C71 108.155 127 114.155 161 150.155C128 127.155 84 127.155 47 141.155C27 149.155 3 161.155 0 185.155C0 191.155 5 195.155 10 192.155C26 181.155 40 169.155 58 163.155C59 163.155 60 161.155 61 161.155C93 149.155 128 151.155 158 167.155C135 159.155 111 161.155 88 169.155C60 179.155 37 197.155 20 223.155C13 235.155 9 248.155 15 261.155C18 267.155 23 263.155 26 259.155C31 252.155 35 245.155 39 237.155C43 231.155 47 226.155 52 221.155C56 218.155 59 213.155 63 210.155C76 201.155 88 192.155 103 187.155C116 183.155 129 180.155 142 181.155C115 186.155 92 201.155 74 223.155C59 242.155 49 262.155 45 285.155C43 297.155 45 309.155 53 319.155C55 321.155 58 322.155 61 321.155C65 319.155 65 313.155 66 309.155C70 260.155 100 209.155 150 196.155C138 203.155 127 211.155 118 222.155C117 224.155 115 227.155 113 229.155C92 260.155 86 295.155 93 332.155C96 345.155 104 362.155 119 362.155C124 363.155 124 356.155 123 352.155C107 305.155 114 248.155 152 215.155C134 238.155 129 267.155 132 295.155C133 305.155 135 314.155 138 323.155C144 338.155 150 353.155 161 365.155C169 372.155 180 380.155 190 374.155C196 370.155 188 363.155 184 358.155C184 357.155 184 357.155 182 355.155C173 343.155 166 331.155 162 317.155C162 316.155 160 315.155 160 314.155C151 285.155 151 253.155 165 225.155C151 276.155 179 327.155 222 358.155C223 358.155 223 358.155 224 358.155C235 366.155 249 370.155 261 362.155C265 360.155 262 354.155 258 351.155C229 336.155 204 314.155 190 284.155C189 282.155 188 279.155 187 277.155C182 261.155 178 245.155 181 229.155C184 255.155 197 279.155 216 297.155C239 317.155 268 334.155 299 332.155C308 331.155 323 328.155 321 317.155C321 313.155 314 312.155 310 311.155C265 308.155 222 283.155 202 242.155C201 240.155 201 237.155 199 235.155C227 277.155 280 295.155 331 285.155C343 282.155 355 276.155 361 264.155Z" fill="white"/>
</svg>
