<svg width="338" height="338" viewBox="0 0 338 338" fill="none" xmlns="http://www.w3.org/2000/svg">
<path d="M337.6 144.1L194.6 163.6L333.5 127.1L314.7 81.5L200 148.5L306.7 67.3L271.8 32.5L181.6 151.3L256.8 22.4L211.2 3.5L173.3 147.8L193.5 0H144.1L164.3 147.8L126.4 3.5L80.8 22.4L148.4 138.2L68 32.4L33.1 67.3L147.5 154.3L22.9 81.5L4 127.1L143 163.6L0 144.1V193.4L142.3 174L2.8 210.7L21.7 256.3L155.7 178L33.1 271.2L68 306.1L152 195.5L82 315.4L127.6 334.3L162.9 200.1L144.1 337.6H193.5L174.7 200.1L210 334.3L255.5 315.4L177.9 182.5L271.8 306.1L306.7 271.2L191.8 183.9L315.9 256.3L334.8 210.7L195.2 174L337.6 193.4V144.1Z" fill="white"/>
</svg>
