<svg width="387" height="387" viewBox="0 0 387 387" fill="none" xmlns="http://www.w3.org/2000/svg">
<path d="M386.1 244.3C375 254.3 365 263.2 352.8 272C350.6 273.1 348.4 274.2 346.1 275.3C331.7 287.5 316.1 295.3 299.5 303C256.2 324.1 210.7 330.7 168.6 359.6C157.5 367.4 149.7 376.2 142 386.2C139.8 381.8 135.3 379.5 132 376.2C119.8 360.7 94.3 319.6 93.2 317.4C71 281.9 63.2 243.1 46.6 205.3C35.5 182 22.2 157.6 0 143.2C38.8 105.5 85.4 81.1 136.5 63.3C163.1 54.4 188.7 46.7 213.1 30C225.3 21.1 235.3 12.2 243.1 0C264.2 22.2 281.9 46.6 296.4 74.3C299.7 82.1 304.2 89.8 307.5 97.6C318.6 125.3 328.6 154.2 339.7 181.9C345.2 195.2 351.9 208.5 361.9 220.7C369.4 229.9 376.1 237.7 386.1 244.3Z" fill="white"/>
</svg>
