<svg width="378" height="378" viewBox="0 0 378 378" fill="none" xmlns="http://www.w3.org/2000/svg">
<path d="M378 189C378 179.4 318.3 171.3 237.4 169C293 110.1 329.4 62.2 322.6 55.4C315.8 48.6 267.9 85.1 209 140.6C206.7 59.7 198.6 0 189 0C179.4 0 171.3 59.7 169 140.6C110.1 85 62.2 48.6 55.4 55.4C48.6 62.2 85.1 110.1 140.6 169C59.7 171.3 0 179.4 0 189C0 198.6 59.7 206.7 140.6 209C85 267.9 48.6 315.8 55.4 322.6C62.2 329.4 110.1 292.9 169 237.4C171.3 318.3 179.4 378 189 378C198.6 378 206.7 318.3 209 237.4C267.9 293 315.8 329.4 322.6 322.6C329.4 315.8 292.9 267.9 237.4 209C318.3 206.7 378 198.6 378 189Z" fill="white"/>
</svg>
