<svg width="420" height="402" viewBox="0 0 420 402" fill="none" xmlns="http://www.w3.org/2000/svg">
<path d="M234.58 178.793C563.68 104.893 319.28 69.3927 217.58 176.293C319.28 69.3927 209.98 -152.107 209.98 160.893C209.98 -152.107 100.68 69.3927 202.38 176.293C100.68 69.3927 -143.72 104.893 185.38 178.793C-143.72 104.893 33.0803 277.293 197.68 190.793C33.1803 277.293 -8.61969 520.693 194.78 207.693C-8.61969 520.693 209.98 405.793 209.98 199.693C209.98 405.793 428.58 520.693 225.18 207.693C428.58 520.693 386.78 277.293 222.28 190.793C386.78 277.293 563.68 104.893 234.58 178.793Z" fill="white"/>
</svg>
