<svg width="392" height="402" viewBox="0 0 392 402" fill="none" xmlns="http://www.w3.org/2000/svg">
<path d="M65.7998 355C65.7998 349.9 65.6998 344.7 65.5998 339.6C65.4998 344.7 65.5998 349.9 65.7998 355Z" fill="white"/>
<path d="M370.9 281.7C375.2 280.6 378.3 278.5 382.6 276.4C378.1 278.6 373.5 280.5 368.8 282.3C369.4 282 370.1 281.9 370.9 281.7Z" fill="white"/>
<path d="M177.2 397C177.6 397.5 178 397.9 178.5 398.4C178.1 397.9 177.7 397.4 177.2 397Z" fill="white"/>
<path d="M104.7 34.6001C106.4 35.1001 108.1 35.6001 109.8 36.2001C109 35.8001 108.1 35.5001 107.3 35.1001C106.4 34.7001 105.5 34.6001 104.7 34.6001Z" fill="white"/>
<path d="M98.3998 32.8999C95.2998 31.5999 92.5998 30.8999 89.2998 30.8999C92.2998 31.3999 95.3998 32.0999 98.3998 32.8999Z" fill="white"/>
<path d="M276.3 274.2C273.1 271 271 265.7 272 260.4C274.1 254 278.4 249.8 284.8 246.6L285.9 244.5C328.4 222.2 366.7 193.5 391.1 153.1C377.3 175.4 360.3 194.5 336.9 206.2C323.1 212.6 304 217.9 292.3 205.1C289.1 193.4 294.4 182.8 299.7 172.2C318.8 132.9 329.5 90.4 325.2 46.8C326.3 63.8 326.3 80.8 322 97.8C316.7 114.8 310.3 131.8 295.4 143.5C290.1 147.8 280.5 152 275.2 145.6H273.1C269.9 142.4 268.8 138.2 266.7 135C258.2 107.4 256.1 79.7 244.4 54.2C234.8 34 224.2 15.9 209.3 0C227.4 21.3 241.2 45.7 244.4 74.4C245.5 86.1 244.4 98.8 235.9 107.3C226.3 115.8 213.6 106.2 206.1 99.9C177.3 72.9 146.3 48.3 109.8 36.1C136.7 47.7 164.9 63.6 173.2 94.5C174.3 98.8 173.2 103 171.1 106.2C167.9 109.4 163.7 111.5 159.4 112.6C139.2 113.7 118 109.4 97.8002 108.3C68.0002 108.3 37.2002 113.6 9.6002 125.3C27.7002 117.9 46.8002 112.5 65.9002 113.6C85.0002 113.6 110.5 114.7 119 134.9C120.1 139.2 119 144.5 115.8 148.7C111.5 155.1 104.1 156.1 99.9002 161.5C61.5002 180.7 27.9002 208.5 3.7002 244.1C22.6002 216.3 49.1002 190.2 84.0002 190.2C89.3002 189.1 94.6002 190.2 97.8002 195.5C98.9002 196.6 98.9002 198.7 99.9002 199.8C101 204.1 99.9002 209.4 98.8002 213.6C87.1002 244.4 71.2002 273.1 66.9002 307.1C65.5002 317.9 65.5002 328.7 65.6002 339.5C66.0002 324.5 68.2002 309.4 72.2002 294.4C76.5002 283.8 81.8002 273.1 89.2002 264.6C95.6002 258.2 103 252.9 112.6 254C116.9 255.1 119 257.2 121.1 260.4C123.2 263.6 124.3 266.8 125.4 270C135.5 316.7 146.7 362.4 177.3 397C167.9 386 160.7 372.2 155.2 359.3C149.9 346.5 145.6 332.7 146.7 318.9C148.8 308.3 149.9 296.6 160.5 292.3C164.8 291.2 169 292.3 173.3 294.4C186.1 302.9 195.6 311.4 206.2 322C233.8 346.4 265.7 363.4 301.9 372C266.8 362.4 225.4 343.3 217.9 304C220 285.9 242.3 289.1 255.1 291.2C293.7 295 333 295.4 368.8 282.2C365.5 283.1 362.7 284 359.2 284.8C330.5 292.3 299.7 294.4 276.3 274.2Z" fill="white"/>
<path d="M1.8 247C1.2 247.9 0.6 248.9 0 249.8C0.5 248.9 1.2 247.9 1.8 247Z" fill="white"/>
<path d="M100.9 34C102.2 34.6 103.4 34.5 104.7 34.5C102.6 33.9 100.5 33.3 98.4004 32.8C99.2004 33.2 100 33.6 100.9 34Z" fill="white"/>
</svg>
