<svg width="413" height="413" viewBox="0 0 413 413" fill="none" xmlns="http://www.w3.org/2000/svg">
<path d="M412.8 206.4C384.3 177.9 347 163.7 309.6 163.7C336 137.3 352.3 100.8 352.3 60.5C312 60.5 275.5 76.8 249.1 103.2C249.1 65.9 234.9 28.5 206.4 0C177.9 28.5 163.7 65.8 163.7 103.2C137.3 76.8 100.8 60.5 60.5 60.5C60.5 100.8 76.8 137.3 103.2 163.7C65.9 163.7 28.5 177.9 0 206.4C28.5 234.9 65.8 249.1 103.2 249.1C76.8 275.5 60.5 312 60.5 352.3C100.8 352.3 137.3 336 163.7 309.6C163.7 347 177.9 384.3 206.4 412.8C234.9 384.3 249.1 347 249.1 309.6C275.5 336 312 352.3 352.3 352.3C352.3 312 336 275.5 309.6 249.1C347 249.2 384.3 234.9 412.8 206.4Z" fill="white"/>
</svg>
