<svg width="374" height="374" viewBox="0 0 374 374" fill="none" xmlns="http://www.w3.org/2000/svg">
<path d="M203.32 11.3205C210.82 -7.17951 238.32 -1.67951 238.22 18.2205C238.12 34.4205 257.82 42.6205 269.22 31.0205C283.22 16.8205 306.52 32.4205 298.72 50.7205C292.421 65.7205 307.421 80.7205 322.421 74.4205C340.82 66.6205 356.32 89.9205 342.12 103.92C330.52 115.32 338.72 135.02 354.921 134.92C374.82 134.82 380.32 162.32 361.82 169.82C346.72 175.92 346.72 197.22 361.82 203.32C380.32 210.82 374.82 238.32 354.921 238.22C338.72 238.12 330.52 257.82 342.12 269.22C356.32 283.22 340.72 306.52 322.421 298.72C307.421 292.42 292.421 307.42 298.72 322.42C306.52 340.82 283.22 356.32 269.22 342.12C257.82 330.52 238.12 338.72 238.22 354.92C238.32 374.82 210.82 380.32 203.32 361.82C197.22 346.72 175.92 346.72 169.82 361.82C162.32 380.32 134.82 374.82 134.92 354.92C135.02 338.72 115.32 330.52 103.92 342.12C89.9205 356.32 66.6205 340.72 74.4205 322.42C80.7205 307.42 65.7205 292.42 50.7205 298.72C32.3205 306.52 16.8205 283.22 31.0205 269.22C42.6205 257.82 34.4205 238.12 18.2205 238.22C-1.67951 238.32 -7.17951 210.82 11.3205 203.32C26.4205 197.22 26.4205 175.92 11.3205 169.82C-7.17951 162.32 -1.67951 134.82 18.2205 134.92C34.4205 135.02 42.6205 115.32 31.0205 103.92C16.8205 89.9205 32.4205 66.6205 50.7205 74.4205C65.7205 80.7205 80.7205 65.7205 74.4205 50.7205C66.6205 32.3205 89.9205 16.8205 103.92 31.0205C115.32 42.6205 135.02 34.4205 134.92 18.2205C134.82 -1.67951 162.32 -7.17951 169.82 11.3205C175.92 26.4205 197.22 26.4205 203.32 11.3205Z" fill="white"/>
</svg>
