<svg width="364" height="362" viewBox="0 0 364 362" fill="none" xmlns="http://www.w3.org/2000/svg">
<path d="M181.575 12.7146C189.875 -6.58543 218.175 -3.08543 221.675 17.6146C234.375 0.914574 261.075 11.0146 259.475 31.9146C275.775 18.7146 299.275 34.9146 292.775 54.9146C311.775 46.0146 330.675 67.4146 319.575 85.2146C340.175 81.1146 353.375 106.415 338.375 121.015C359.375 122.015 366.175 149.715 348.075 160.315C368.175 166.315 368.175 194.815 348.075 200.715C366.175 211.315 359.375 239.015 338.375 240.015C353.475 254.615 340.175 279.915 319.575 275.815C330.675 293.615 311.775 315.015 292.775 306.115C299.275 326.115 275.875 342.215 259.475 329.115C261.075 350.015 234.375 360.115 221.675 343.415C218.175 364.115 189.875 367.515 181.575 348.315C173.275 367.615 144.975 364.115 141.475 343.415C128.775 360.115 102.075 350.015 103.675 329.115C87.375 342.315 63.875 326.115 70.375 306.115C51.375 315.015 32.475 293.615 43.575 275.815C22.975 279.915 9.775 254.615 24.775 240.015C3.775 239.015 -3.025 211.315 15.075 200.715C-5.025 194.715 -5.025 166.215 15.075 160.315C-3.025 149.615 3.775 121.915 24.775 121.015C9.675 106.415 22.975 81.1146 43.575 85.2146C32.475 67.4146 51.375 46.0146 70.375 54.9146C63.875 34.9146 87.275 18.8146 103.675 31.9146C102.075 11.0146 128.775 0.914574 141.475 17.6146C144.875 -3.08543 173.175 -6.48543 181.575 12.7146Z" fill="white"/>
</svg>
