<svg width="378" height="378" viewBox="0 0 378 378" fill="none" xmlns="http://www.w3.org/2000/svg">
<path d="M377.8 188.8C377.8 181 338.3 174.2 280.1 170.7C332.6 145.1 366.4 123.8 363.4 116.6C360.4 109.4 321.3 118.2 266.1 137.3C304.8 93.6 327.9 60.9 322.4 55.3C316.9 49.8 284.2 72.9 240.5 111.6C259.5 56.4 268.4 17.4 261.1 14.4C253.9 11.4 232.5 45.3 206.9 97.8C203.4 39.5 196.6 0 188.8 0C181 0 174.2 39.5 170.7 97.7C145.1 45.2 123.8 11.4 116.6 14.4C109.4 17.4 118.2 56.5 137.2 111.6C93.5 72.9 60.8 49.8 55.3 55.3C49.8 60.8 72.9 93.5 111.6 137.2C56.4 118.2 17.4 109.3 14.4 116.6C11.4 123.8 45.3 145.2 97.7 170.7C39.4 174.2 0 181 0 188.8C0 196.6 39.5 203.4 97.8 206.9C45.3 232.5 11.4 253.9 14.4 261.1C17.4 268.3 56.4 259.5 111.6 240.5C72.9 284.2 49.8 316.9 55.3 322.4C60.8 327.9 93.5 304.8 137.3 266.1C118.3 321.3 109.4 360.4 116.6 363.4C123.8 366.4 145.2 332.5 170.7 280.1C174.2 338.4 181 377.8 188.8 377.8C196.6 377.8 203.4 338.3 206.9 280.1C232.5 332.6 253.8 366.5 261.1 363.5C268.3 360.5 259.5 321.4 240.5 266.3C284.2 305 316.9 328.1 322.4 322.6C327.9 317.1 304.8 284.4 266.1 240.7C321.3 259.7 360.3 268.6 363.3 261.3C366.3 254.1 332.4 232.7 279.9 207.1C338.3 203.4 377.8 196.6 377.8 188.8Z" fill="white"/>
</svg>
