<svg width="327" height="377" viewBox="0 0 327 377" fill="none" xmlns="http://www.w3.org/2000/svg">
<path d="M166.1 188.4C224.5 166.3 278.7 134.4 326.4 94.2C267.7 115.4 213 146.5 164.6 186C174.6 124.4 174.2 61.5 163.2 0C152.2 61.5 151.8 124.4 161.8 186C113.5 146.5 58.8 115.5 0 94.2C47.8 134.4 102 166.3 160.3 188.4C101.9 210.5 47.7 242.4 0 282.6C58.9 261.4 113.5 230.3 161.9 190.9C151.9 252.5 152.3 315.4 163.3 376.9C174.3 315.4 174.7 252.5 164.7 190.9C213 230.4 267.7 261.4 326.5 282.7C278.7 242.4 224.5 210.5 166.1 188.4Z" fill="white"/>
</svg>
