<svg width="384" height="402" viewBox="0 0 384 402" fill="none" xmlns="http://www.w3.org/2000/svg">
<path d="M191.63 200.85C-90.0704 200.85 -36.2704 366.35 191.63 200.85V200.85Z" fill="white"/>
<path d="M191.629 200.85C-36.2705 366.35 104.529 468.65 191.629 200.85V200.85Z" fill="white"/>
<path d="M191.63 200.85C104.53 468.65 278.63 468.65 191.63 200.85V200.85Z" fill="white"/>
<path d="M191.63 200.85C-90.0704 200.85 -36.2704 35.35 191.63 200.85V200.85Z" fill="white"/>
<path d="M191.63 200.85C278.63 468.65 419.43 366.35 191.63 200.85V200.85Z" fill="white"/>
<path d="M191.629 200.85C-36.2705 35.3501 104.529 -66.9499 191.629 200.85V200.85Z" fill="white"/>
<path d="M191.63 200.85C419.43 35.35 473.23 200.85 191.63 200.85V200.85Z" fill="white"/>
<path d="M191.63 200.85C419.43 366.35 473.23 200.85 191.63 200.85V200.85Z" fill="white"/>
<path d="M191.63 200.85C104.53 -66.95 278.63 -66.95 191.63 200.85V200.85Z" fill="white"/>
<path d="M191.63 200.85C278.63 -66.9499 419.43 35.3501 191.63 200.85V200.85Z" fill="white"/>
</svg>
