<svg width="377" height="377" viewBox="0 0 377 377" fill="none" xmlns="http://www.w3.org/2000/svg">
<path d="M376.6 188.5C343 182.5 308.9 179.6 274.9 179.9C308.4 173.6 341.2 164.3 373.1 151.9C338.9 152.5 304.8 156.2 271.4 163.1C303.1 150.4 333.6 134.7 362.5 116.3C329.1 123.6 296.5 133.9 265.2 147.1C293.8 128.5 320.6 107.3 345.4 83.7C314.3 97.1 284.7 113.3 256.7 132.1C280.6 108.5 302.3 82.8 321.5 55.2C293.6 74.6 267.7 96.5 244 120.6C263.1 92.6 279.7 62.8 293.4 31.7C269.7 56.2 248.4 82.8 229.6 111.2C242.9 79.9 253.4 47.4 260.7 14.1C242.4 42.6 226.8 72.6 214.1 103.8C221.1 70.7 225 37 225.8 3.1C213 35.4 203.3 68.7 196.8 102.7C197.1 68.4 194.3 34 188.2 0C182.3 32.9 179.5 66.3 179.6 99.6C173.3 66.8 164.1 34.5 151.9 3.2C152.5 37.2 156.2 71 163 104.2C150.3 72.8 134.8 42.5 116.5 13.8C123.6 46.4 133.6 78.2 146.4 108.9C128.1 81 107.3 54.8 84.3 30.6C98.5 63.4 115.7 94.6 135.9 123.9C111.3 98.5 84.2 75.5 55.1 55.2C74 82.4 95.4 107.7 118.8 131C91.4 112.5 62.4 96.4 32 83C56.5 106.6 83 127.9 111.3 146.6C80.1 133.4 47.7 123 14.6 115.6C42.4 133.4 71.6 148.7 102 161.3C69.7 154.7 36.9 150.9 3.8 150.1C37.4 163.4 72.2 173.4 107.6 179.9C71.6 179.2 35.6 182 0 188.4C32.5 194.2 65.4 197.1 98.2 197C65.9 203.3 34.2 212.4 3.5 224.3C37.6 223.7 71.5 220 104.8 213.2C73.3 225.9 43 241.5 14.2 259.8C46.4 252.8 77.9 242.9 108.3 230.3C80.9 248.4 55.1 268.9 31.2 291.6C64 277.4 95.3 260.1 124.7 240C99 264.8 75.7 292.1 55.1 321.6C82.4 302.6 107.9 281.1 131.2 257.6C112.7 285 96.6 314 83.2 344.4C107 319.8 128.4 293 147.2 264.5C133.8 295.9 123.3 328.5 115.9 361.9C133.9 333.9 149.3 304.3 161.9 273.7C155.2 306.1 151.4 339.1 150.6 372.3C163.4 340 173.1 306.6 179.6 272.6C179.2 307.5 182 342.3 188.2 376.8C194.1 343.7 197 310.1 196.8 276.6C203.1 309.4 212.3 341.7 224.5 373C223.9 338.6 220.1 304.5 213.2 270.9C225.9 302.7 241.6 333.2 260.1 362.2C252.9 329.2 242.7 297 229.7 266C248.1 294.1 269 320.5 292.2 344.8C278.8 313.7 262.6 284 243.8 256.1C267.6 280.2 293.6 302.2 321.5 321.7C302 293.7 280 267.7 255.7 243.8C283.7 262.9 313.5 279.5 344.6 293.2C319.9 269.3 293.1 247.8 264.5 229C296 242.5 328.7 253 362.3 260.4C333.6 241.9 303.2 226.2 271.7 213.4C304.9 220.4 338.8 224.4 372.9 225.2C341.8 212.9 309.8 203.4 277.2 196.9C310.4 197.3 343.7 194.4 376.6 188.5Z" fill="white"/>
</svg>
