<svg width="445" height="445" viewBox="0 0 445 445" fill="none" xmlns="http://www.w3.org/2000/svg">
<path d="M284 188C299 185 313 178 325 168C327 166 329 163 332 161C360 133 371 93 370 55C384 125 356 207 290 241C340 273 407 249 445 208C420 246 382 274 337 285C333 286 328 287 324 288C316 289 307 290 299 290C285 289 271 288 257 283C271 341 335 373 391 369C321 383 238 355 204 289C186 317 186 353 197 384C205 407 220 427 237 445C212 426 189 403 174 374C168 362 163 350 160 336C154 309 154 282 162 256C104 270 74 334 76 390C62 319 90 238 156 203C137 191 114 187 92 189C56 193 25 212 0 237C39 182 107 142 178 158C182 159 185 161 189 161C185 144 177 129 165 117C163 115 160 113 158 110C130 84 92 75 55 75C126 62 207 89 242 155C273 105 250 37 208 0C268 39 306 117 284 188Z" fill="white"/>
</svg>
