<svg width="376" height="376" viewBox="0 0 376 376" fill="none" xmlns="http://www.w3.org/2000/svg">
<path d="M360 172C352.4 172 227.3 177.3 191.7 184.3C198.7 148.6 204 23.6 204 16C204 7.2 196.8 0 188 0C179.2 0 172 7.2 172 16C172 23.6 177.3 148.7 184.3 184.3C148.6 177.3 23.6 172 16 172C7.2 172 0 179.2 0 188C0 196.8 7.2 204 16 204C23.6 204 148.7 198.7 184.3 191.7C177.3 227.4 172 352.4 172 360C172 368.8 179.2 376 188 376C196.8 376 204 368.8 204 360C204 352.4 198.7 227.3 191.7 191.7C227.4 198.7 352.4 204 360 204C368.8 204 376 196.8 376 188C376 179.2 368.9 172 360 172Z" fill="white"/>
</svg>
