<svg width="408" height="359" viewBox="0 0 408 359" fill="none" xmlns="http://www.w3.org/2000/svg">
<path d="M215.5 54.307L284.5 3.80704C298.2 -6.19296 317.3 4.80704 315.5 21.707L306.3 106.707C305.4 115.207 310.1 123.307 317.9 126.707L396.2 161.207C411.8 168.107 411.8 190.107 396.2 197.007L317.9 231.507C310.1 234.907 305.4 243.007 306.3 251.507L315.5 336.507C317.3 353.407 298.2 364.407 284.5 354.407L215.5 303.907C208.6 298.907 199.3 298.907 192.4 303.907L123.4 354.407C109.7 364.407 90.6 353.407 92.4 336.507L101.6 251.507C102.5 243.007 97.8 234.907 90 231.507L11.7 197.007C-3.9 190.107 -3.9 168.107 11.7 161.207L90 126.707C97.8 123.307 102.5 115.207 101.6 106.707L92.4 21.707C90.6 4.80704 109.7 -6.19296 123.4 3.80704L192.4 54.307C199.3 59.407 208.6 59.407 215.5 54.307Z" fill="white"/>
</svg>
