<svg width="377" height="378" viewBox="0 0 377 378" fill="none" xmlns="http://www.w3.org/2000/svg">
<path d="M376.9 188.4C320.5 178.3 262.9 177.1 206.2 184.7C261.6 170.1 314.4 147 362.8 116.2C308.1 128.1 255.6 148.2 207 175.9C251.1 141.7 289.8 101 321.7 55.2C275.1 87.7 233.9 127.1 199.3 172.1C227.8 123 248.6 69.7 260.9 14.1C230.3 61.8 207.2 113.8 192.4 168.4C199.7 112.4 198.3 55.7 188.4 0C178.6 55.1 177.2 111.3 184.2 166.8C169.6 112.7 146.8 61.2 116.7 13.9C128.9 70 149.8 123.8 178.5 173.4C143.8 127.9 102.2 88 55.2 55.3C86.9 100.8 125.3 141.3 169 175.3C120.9 147.8 68.8 127.8 14.6 115.8C63.1 146.9 116.1 170.3 171.6 185C114.6 177.3 56.7 178.4 0 188.6C54.7 198.4 110.4 199.8 165.4 193C112 207.6 61 230.2 14.3 260C70.3 247.8 124 227 173.5 198.3C127.9 233 88 274.7 55.1 321.8C101.2 289.7 142 250.8 176.3 206.5C148.5 255 128.1 307.5 116 362.2C146.6 314.6 169.6 262.7 184.4 208.3C177.1 264.4 178.4 321.3 188.3 377.1C198.3 321.1 199.6 264 192.2 207.7C206.8 262.4 229.7 314.6 260.2 362.5C248.3 307.9 228.2 255.5 200.7 207C234.9 251.2 275.7 289.9 321.6 322C288.7 274.9 248.8 233.2 203.1 198.4C252.8 227 306.5 248 362.5 260.4C315.7 230.3 264.7 207.5 211.2 192.7C266.3 199.6 322.2 198.2 376.9 188.4Z" fill="white"/>
</svg>
