<svg width="414" height="414" viewBox="0 0 414 414" fill="none" xmlns="http://www.w3.org/2000/svg">
<path d="M413.2 173.1H368.3C389.3 154.7 397.3 124.4 386 97.2L340.5 116C354.3 90.6 350.4 58.3 329 36.8L297.3 68.5C298.6 41.1 282.9 14.6 256.1 3.5L237.4 48.5C229.4 20.5 203.6 0 173.1 0V45.9C154.6 25.6 124.8 18 98 29.1L116 72.7C90.6 58.9 58.3 62.8 36.8 84.2L70.5 117.9C42.7 116.1 15.5 131.9 4.3 159.1L46.3 176.5C19.4 185 0 210.2 0 240H49C27 258.2 18.4 289.3 29.9 317.1L71.2 300C59.2 324.9 63.6 355.7 84.2 376.3L119 341.5C115.7 370.4 131.7 399.1 159.9 410.8L177.2 369C186.5 394.7 211.2 413.1 240.1 413.1V365.1C258.2 387.8 289.8 396.9 318 385.2L300.1 342C325 354 355.8 349.6 376.4 329L343.7 296.3C372.1 298.9 400.2 283 411.7 255.3L367 236.7C393.8 228 413.2 202.8 413.2 173.1Z" fill="white"/>
</svg>
