<svg width="368" height="368" viewBox="0 0 368 368" fill="none" xmlns="http://www.w3.org/2000/svg">
<path d="M327.101 183.958C304.101 184.958 281.101 180.958 261.101 169.958C279.101 136.958 291.101 99.9576 284.101 61.9576C281.101 40.9576 269.101 23.9576 251.101 10.9576C235.101 -0.0423555 216.101 -4.04236 199.101 4.95764C191.101 9.95765 185.101 18.9576 185.101 27.9576C183.101 54.9576 183.101 81.9576 170.101 105.958C137.101 88.9576 100.101 75.9576 62.1008 82.9576C25.1008 88.9576 -8.89922 123.958 2.10078 162.958C2.10078 163.958 4.10078 163.958 4.10078 164.958C8.10078 178.958 24.1008 181.958 37.1008 183.958C61.1008 179.958 84.1008 187.958 106.101 196.958C91.1008 223.958 82.1008 253.958 80.1008 283.958C79.1008 300.958 83.1008 317.958 93.1008 332.958C95.1008 334.958 96.1008 336.958 98.1008 339.958C113.101 357.958 136.101 372.958 160.101 364.958C161.101 364.958 162.101 364.958 163.101 364.958C174.101 358.958 183.101 348.958 183.101 335.958C183.101 309.958 185.101 283.958 197.101 260.958C208.101 267.958 220.101 272.958 232.101 276.958C236.101 277.958 239.101 277.958 243.101 279.958C245.101 280.958 247.101 280.958 249.101 280.958C251.101 281.958 252.101 281.958 254.101 282.958C280.101 288.958 306.101 289.958 329.101 275.958C351.101 262.958 368.101 240.958 367.101 214.958C366.101 194.958 346.101 180.958 327.101 183.958Z" fill="white"/>
</svg>
