<svg width="391" height="390" viewBox="0 0 391 390" fill="none" xmlns="http://www.w3.org/2000/svg">
<path d="M207.6 0C199.4 130 191.2 130 183.1 0C191.3 130 183.2 131.1 158.8 3.1C183.2 131.1 175.3 133.1 135 9.2C175.3 133.1 167.7 136.1 112.2 18.2C167.7 136.1 160.5 140 90.7 30C160.5 140 153.9 144.8 70.8 44.4C153.8 144.8 147.9 150.4 52.9 61.2C147.9 150.4 142.7 156.7 37.3 80.1C142.7 156.7 138.3 163.6 24.1 100.8C138.3 163.6 134.8 171 13.7 123C134.8 171 132.3 178.7 6.1 146.3C132.3 178.7 130.8 186.7 1.5 170.4C130.8 186.7 130.2 194.9 0 194.9C130.3 194.9 130.8 203.1 1.5 219.4C130.8 203.1 132.3 211.1 6.1 243.5C132.3 211.1 134.8 218.9 13.7 266.8C134.8 218.8 138.3 226.2 24.1 289C138.3 226.2 142.7 233.1 37.3 309.7C142.7 233.1 147.9 239.4 52.9 328.6C147.9 239.4 153.8 245 70.8 345.4C153.8 245 160.5 249.8 90.7 359.8C160.5 249.8 167.7 253.7 112.2 371.6C167.7 253.7 175.3 256.7 135 380.6C171.2 256.8 183.2 258.7 158.8 386.7C183.2 258.7 191.3 259.7 183.1 389.8C191.8 259.6 199.5 259.8 207.6 389.8C203.6 260.3 207.5 258.7 231.9 386.7C207.5 258.7 215.4 256.7 255.7 380.6C215.4 256.7 223 253.7 278.5 371.6C223 253.7 230.2 249.8 300 359.8C230.2 249.8 236.8 245 319.9 345.4C236.9 245 242.8 239.4 337.8 328.6C242.8 239.4 248 233.1 353.4 309.7C248 233.1 252.4 226.2 366.6 289C252.4 226.2 255.9 218.8 377 266.8C255.9 218.8 258.4 211.1 384.6 243.5C258.4 211.1 259.9 203.1 389.2 219.4C259.9 203.1 260.5 194.9 390.7 194.9C260.4 194.9 259.9 186.7 389.2 170.4C259.9 186.7 258.4 178.7 384.6 146.3C258.4 178.7 255.9 170.9 377 123C255.9 171 252.4 163.6 366.6 100.8C252.4 163.6 248 156.7 353.4 80.1C248 156.7 242.8 150.4 337.8 61.2C242.8 150.4 236.9 144.8 319.9 44.4C236.9 144.8 230.2 140 300 30C230.2 140 223 136.1 278.5 18.2C223 136.1 215.4 133.1 255.7 9.2C215.4 133.1 207.5 131.1 231.9 3.1C207.6 131 199.5 130 207.6 0Z" fill="white"/>
</svg>
