<svg width="325" height="325" viewBox="0 0 325 325" fill="none" xmlns="http://www.w3.org/2000/svg">
<path d="M0 0V95.1C58.7 95.1 117.5 117.5 162.3 162.3C117.5 117.5 95.1 58.7 95.1 0H0Z" fill="white"/>
<path d="M0 324.6H95.1C95.1 265.9 117.5 207.1 162.3 162.3C117.5 207.1 58.7 229.5 0 229.5V324.6Z" fill="white"/>
<path d="M324.6 324.6V229.5C265.9 229.5 207.1 207.1 162.3 162.3C207.1 207.1 229.5 265.9 229.5 324.6H324.6Z" fill="white"/>
<path d="M324.6 0H229.5C229.5 58.7 207.1 117.5 162.3 162.3C207.1 117.5 265.9 95.1 324.6 95.1V0Z" fill="white"/>
</svg>
