<svg width="388" height="388" viewBox="0 0 388 388" fill="none" xmlns="http://www.w3.org/2000/svg">
<path d="M387.4 208.6V178.7H307.5L384.6 158L376.9 129.1L299.7 149.7L368.9 109.8L353.9 83.8L284.7 123.8L341.2 67.3L320 46.1L263.6 102.6L303.5 33.4L277.6 18.5L237.6 87.6L258.3 10.5L229.4 2.7L208.7 79.9V0H178.7V79.9L158 2.7L129.1 10.5L149.8 87.6L109.8 18.5L83.9 33.4L123.8 102.6L67.4 46.1L46.2 67.3L102.7 123.8L33.5 83.8L18.5 109.8L87.7 149.7L10.5 129.1L2.8 158L79.9 178.7H0V208.6H79.9L2.8 229.3L10.5 258.2L87.7 237.6L18.5 277.5L33.5 303.4L102.7 263.5L46.2 320L67.4 341.2L123.8 284.7L83.9 353.9L109.8 368.8L149.8 299.7L129.1 376.8L158 384.6L178.7 307.4V387.3H208.7V307.4L229.4 384.6L258.3 376.8L237.6 299.7L277.6 368.8L303.5 353.9L263.6 284.7L320 341.2L341.2 320L284.7 263.5L353.9 303.4L368.9 277.5L299.7 237.6L376.9 258.2L384.6 229.3L307.5 208.6H387.4Z" fill="white"/>
</svg>
