<svg width="340" height="340" viewBox="0 0 340 340" fill="none" xmlns="http://www.w3.org/2000/svg">
<path d="M340 188C323 195 306 202 287 204C248 208 207 200 178 174C208 181 239 173 267 160C270 158 273 156 276 155C298 143 315 125 329 105C320 92 312 77 304 63C285 119 235 166 174 169C225 137 246 71 236 13C220 7 204 6 188 0C190 6 192 11 195 16C196 18 195 20 196 22C212 64 208 112 182 151C181 153 181 154 180 156C178 159 176 161 174 163C175 153 176 144 176 134C175 117 171 100 165 84C164 83 163 81 162 80C151 53 131 30 107 13C93 21 78 29 64 38C119 56 164 106 168 165C167 163 167 162 166 160C165 159 163 158 162 157C127 110 67 94 13 105C13 108 11 110 10 113C7 126 4 139 0 152C22 143 45 136 69 135C104 134 139 146 166 169C108 156 46 185 13 236C13 237 15 238 16 239C23 253 30 266 39 278C56 224 105 179 162 174C154 180 147 186 140 193C135 200 130 206 125 213C121 219 118 225 116 231C102 261 98 295 105 328C121 332 137 335 152 340C147 327 143 315 139 302C134 284 134 266 136 248C139 221 150 196 168 175C158 229 181 283 223 318C226 320 229 322 232 325C233 326 236 328 237 328C252 321 265 312 279 303C265 298 251 292 238 283C232 279 227 275 221 270C194 245 175 213 173 177C184 192 196 205 212 215C215 216 218 218 221 220C231 224 240 229 250 232C261 235 271 237 282 238C298 239 313 237 328 236C331 220 336 204 340 188Z" fill="white"/>
</svg>
