<svg width="328" height="378" viewBox="0 0 328 378" fill="none" xmlns="http://www.w3.org/2000/svg">
<path d="M204.638 189C279.538 143.7 332.638 103.3 327.538 94.5C322.438 85.7 260.938 111.5 184.238 153.7C182.438 66.2 174.038 0 163.938 0C153.838 0 145.438 66.2 143.638 153.7C66.9383 111.6 5.43831 85.8 0.338307 94.5C-4.76169 103.3 48.3383 143.6 123.238 189C48.3383 234.3 -4.76169 274.7 0.338307 283.5C5.43831 292.3 66.9383 266.5 143.638 224.3C145.438 311.8 153.838 378 163.938 378C174.038 378 182.438 311.8 184.238 224.3C260.938 266.5 322.438 292.3 327.538 283.5C332.638 274.7 279.438 234.3 204.638 189Z" fill="white"/>
</svg>
