<svg width="409" height="406" viewBox="0 0 409 406" fill="none" xmlns="http://www.w3.org/2000/svg">
<path d="M204.2 138.8L228.8 0L219.4 140.7L276.6 11.7L233.8 146.1L320.1 34.6L246.5 154.9L357 67.2L256.7 166.4L384.9 107.7L263.8 180L402.4 153.7L267.5 194.9L408.3 202.6L267.5 210.3L402.4 251.5L263.8 225.2L384.9 297.5L256.7 238.8L357 338L246.5 250.3L320.1 370.6L233.8 259.1L276.6 393.5L219.4 264.5L228.8 405.2L204.2 266.4L179.6 405.2L188.9 264.5L131.8 393.5L174.5 259.1L88.2 370.6L161.9 250.3L51.4 338L151.7 238.8L23.4 297.5L144.5 225.2L6 251.5L140.8 210.3L0 202.6L140.8 194.9L6 153.7L144.5 180L23.4 107.7L151.7 166.4L51.4 67.2L161.9 154.9L88.2 34.6L174.5 146.1L131.8 11.7L188.9 140.7L179.6 0L204.2 138.8Z" fill="white"/>
</svg>
