<svg width="363" height="349" viewBox="0 0 363 349" fill="none" xmlns="http://www.w3.org/2000/svg">
<path d="M199.442 317L251.442 344.4C279.942 359.4 313.142 335.2 307.742 303.5L297.842 245.6C295.642 233 299.842 220.2 309.042 211.2L351.142 170.2C374.142 147.7 361.442 108.6 329.642 104L271.442 95.5C258.842 93.7 247.842 85.7 242.242 74.3L216.242 21.6C202.042 -7.2 160.842 -7.2 146.642 21.6L120.642 74.3C114.942 85.8 104.042 93.7 91.442 95.5L33.242 104C1.44202 108.6 -11.258 147.7 11.742 170.2L53.842 211.2C62.942 220.1 67.142 233 65.042 245.6L55.142 303.5C49.742 335.2 82.942 359.4 111.442 344.4L163.442 317C174.642 311.1 188.142 311.1 199.442 317Z" fill="white"/>
</svg>
