<svg width="347" height="347" viewBox="0 0 347 347" fill="none" xmlns="http://www.w3.org/2000/svg">
<path d="M212.699 118.812C218.699 118.812 224.699 117.812 230.699 117.812C240.699 116.812 250.699 113.812 259.699 110.812C267.699 106.812 274.699 103.812 282.699 98.8123C298.699 87.8123 310.699 75.8123 321.699 58.8123C332.699 39.8123 341.699 21.8123 345.699 0.812265C351.699 85.8123 307.699 176.812 227.699 212.812C224.699 279.812 282.699 332.812 345.699 345.812C298.699 348.812 252.699 338.812 210.699 313.812C175.699 292.812 150.699 262.812 132.699 227.812C98.6993 226.812 66.6993 240.812 42.6993 264.812C20.6993 287.812 7.69927 315.812 0.699266 345.812C-6.30073 259.812 39.6993 169.812 118.699 132.812C118.699 100.812 107.699 69.8123 84.6993 45.8123C61.6993 22.8123 32.6993 6.81227 0.699266 0.812265C45.6993 -3.18773 89.6993 7.81227 129.699 28.8123C131.699 29.8123 132.699 31.8123 134.699 32.8123C169.699 52.8123 196.699 82.8123 212.699 118.812Z" fill="white"/>
</svg>
